<?xml version="1.0" encoding="UTF-8" standalone="no"?>
<!DOCTYPE svg PUBLIC "-//W3C//DTD SVG 1.1//EN" "http://www.w3.org/Graphics/SVG/1.1/DTD/svg11.dtd">
<svg width="100%" height="100%" viewBox="0 0 1024 1024" version="1.1" xmlns="http://www.w3.org/2000/svg" xmlns:xlink="http://www.w3.org/1999/xlink" xml:space="preserve" xmlns:serif="http://www.serif.com/" style="fill-rule:evenodd;clip-rule:evenodd;stroke-linejoin:round;stroke-miterlimit:2;">
    <path d="M349.515,101.582L396.814,185.247L27.242,915.881L356.371,920.072L313.212,819.981L377.356,701.749L594.962,706.051L625.067,828.664L577.334,920.327L937.216,920.742L708.84,98.629L349.515,101.582Z" style="fill:rgb(194,11,38);" data-color="color-1"/>
    <path d="M318.778,83.227C329.326,84.014 348.98,83.448 360.224,83.455L441.791,83.485L716.2,83.442C718.128,88.365 720.328,96.5 721.874,101.803L731.455,135.057L754.229,213.07C758.235,226.631 762.022,240.444 766.39,253.868C798.264,242.959 829.006,247.64 847.206,278.585C858.787,298.277 859.536,312.871 853.794,334.78C861.57,342.862 868.492,351.917 876.013,360.094C902.083,388.439 919.941,415.725 912.741,456.366C926.315,471.033 939.074,487.25 952.851,501.728C967.349,516.965 985.906,530.698 984.111,554.503C982.222,579.56 969.127,603.271 956.376,624.396C951.846,631.9 945.859,635.385 945.045,644.989C943.735,653.416 938.403,664.487 932.547,670.757C924.191,679.703 912.881,683.987 902.472,689.874C897.899,692.543 890.074,699.863 885.849,703.721C892.493,729.138 901.421,757.454 908.789,782.93C923.213,832.992 937.945,882.965 952.985,932.846C939.61,932.145 920.267,932.728 906.388,932.744L819.898,932.722L549.156,932.921C555.428,922.274 562.79,911.234 569.296,900.532L613.102,827.922C610.92,821.18 608.916,814.382 607.092,807.535C598.532,779.069 590.535,749.033 582.217,720.263C558.993,719.634 533.851,720.082 510.52,720.076L382.727,720.109C376.467,733.772 369.018,748.039 362.222,761.497L328.762,828.187C338.459,848.338 348.277,868.431 358.215,888.465C365.265,902.867 372.767,918.96 380.431,932.878L2.711,932.91L309.651,330.483C333.617,283.094 358.582,235.306 382.104,187.773C366.784,164.519 351.591,138.471 337.235,114.591L325.749,95.485C323.771,92.211 320.08,86.565 318.778,83.227ZM411.732,187.205C403.702,202.204 396.068,218.035 388.403,233.275L345.649,317.923L186.781,630.297L88.12,822.684L59.277,878.913C55.104,887.024 48.858,898.116 45.308,905.984C51.15,906.198 58.571,906.359 64.414,906.082C71.654,894.277 80.895,881.41 88.714,869.758C107.168,842.018 126.073,814.581 145.421,787.457C187.16,728.754 229.117,670.847 276.484,616.446C291.745,599.164 307.451,582.281 323.586,565.813C342.613,546.091 369.052,519.633 390.253,502.303C374.175,504.368 358.314,507.867 342.859,512.758C332.839,515.888 322.695,519.914 312.569,522.52C310.888,522.953 305.387,523.351 303.208,523.564C314.664,507.071 328.513,489.801 341.343,474.349C384.793,422.018 435.283,372.751 492.815,336.039C499.87,331.537 507.814,326.204 515.113,322.278C513.65,312.605 513.417,302.075 514.551,292.506C519.95,246.955 561.305,216.769 606.37,223.649C634.596,227.958 657.487,243.07 674.659,265.528C699.352,265.028 724.661,273.054 747.269,282.51L696.89,109.731L363.593,109.827C376.148,129.239 387.443,150.123 400.212,169.488C403.792,174.917 407.943,182.072 411.732,187.205Z" style="fill:rgb(254,254,254);fill-rule:nonzero;"/>
    <path d="M515.113,322.278C513.65,312.605 513.417,302.075 514.551,292.506C519.95,246.955 561.305,216.769 606.37,223.649C634.596,227.958 657.487,243.07 674.659,265.528C699.352,265.028 724.661,273.054 747.269,282.51C747.618,283.067 748.207,284.463 748.881,284.414C754.363,284.056 760.127,279.867 765.203,278.395C780.894,273.846 802.607,269.032 817.621,278.585C837.784,291.412 834.454,319.315 826.078,337.789C842.344,353.956 875.131,389.257 884.594,409.616C888.452,418.008 890.489,427.123 890.57,436.359C890.561,445.185 888.775,450.238 884.878,457.931C905.267,480.589 923.815,504.825 944.919,526.857C949.164,531.288 954.669,536.549 958.251,541.499C960.373,544.431 959.767,554.512 959.265,558.199C955.734,584.12 940.615,604.247 924.679,623.901C920.323,634.083 921.55,648.946 912.462,656.735C908.398,659.903 901.474,661.701 897.573,664.65C889.933,670.426 882.617,677.098 875.324,683.318C867.21,690.24 865.677,693.311 854.799,695.282C857.532,702.016 860.063,708.829 862.388,715.714L918.482,906.222L710.233,906.255L637.391,906.256C623.96,906.256 609.68,906.482 596.328,906.119C599.49,902.036 602.037,896.997 604.743,892.571C617.136,872.304 628.481,851.09 640.862,830.855C637.557,818.414 633.544,806.33 629.934,793.992L612.082,731.726C609.239,721.943 603.104,703.131 601.151,694.014L366.643,693.999C346.221,735.758 324.607,776.946 304.219,818.728C302.694,821.853 301.069,824.967 299.603,828.118C310.21,850.612 321.993,872.747 332.886,895.12C334.662,898.766 336.596,902.704 338.56,906.241L159.437,906.259C128.962,906.258 94.444,907.11 64.414,906.082C71.654,894.277 80.895,881.41 88.714,869.758C107.168,842.018 126.073,814.581 145.421,787.457C187.16,728.754 229.117,670.847 276.484,616.446C291.745,599.164 307.451,582.281 323.586,565.813C342.613,546.091 369.052,519.633 390.253,502.303C374.175,504.368 358.314,507.867 342.859,512.758C332.839,515.888 322.695,519.914 312.569,522.52C310.888,522.953 305.387,523.351 303.208,523.564C314.664,507.071 328.513,489.801 341.343,474.349C384.793,422.018 435.283,372.751 492.815,336.039C499.87,331.537 507.814,326.204 515.113,322.278Z" style="fill-rule:nonzero;" data-color="color-2"/>
    <path d="M700.379,786.39C703.752,779.766 708.181,770.806 712.355,764.858C736.217,730.856 774.546,719.434 812.104,708C827.176,703.411 839.201,698.321 854.799,695.282C857.532,702.016 860.063,708.829 862.388,715.714C855.166,716.674 846.755,718.777 839.66,720.555C799.017,730.836 760.242,747.44 724.755,769.76C716.742,774.77 707.731,780.487 700.379,786.39Z" style="fill:rgb(193,13,39);fill-rule:nonzero;" data-color="color-1"/>
    <path d="M587.704,258.175C600.851,257.424 606.784,259.994 618.954,264.525C646.188,274.666 659.795,298.002 670.725,323.837C674.832,315.114 679.896,304.785 684.454,296.355C731.026,306.713 784.367,332.999 818.237,366.829C830.161,378.739 859.596,412.782 858.774,430.274C858.299,440.384 851.796,445.1 845.198,451.47C873.234,476.155 895.674,501.529 918.641,530.773C913.939,532.826 909.083,535.588 903.715,537.086C891.977,540.362 865.21,544.563 865.294,561.07C866.356,571.095 873.971,584.654 881.334,591.118C891.395,599.951 900.486,591.568 906.505,583.441C908.29,597.273 902.98,605.357 893.942,615.506C884.71,625.873 873.962,616.473 863.531,614.33C857.679,613.127 851.591,612.404 845.57,612.491C810.818,612.486 794.394,623.429 770.879,646.745C756.767,629.375 745.331,600.666 746.508,578.221C748.824,534.05 781.01,504.874 811.192,477.118C821.764,467.478 832.263,457.758 842.689,447.96C837.961,441.019 833.298,434.035 828.702,427.007C828.58,445.025 823.112,460.458 800.781,453.477C777.773,446.284 760.112,422.879 737.028,415.554C724.223,411.491 704.16,418.951 693.155,425.059C701.828,428.376 716.194,431.678 725.283,433.498C716.587,445.562 710.08,461.98 713.088,477.183C714.742,485.543 725.193,490.542 732.066,494.416C712.112,518.589 695.326,539.631 689.719,571.183C665.058,553.452 628.741,540.182 598.705,535.906C560.487,530.464 514.193,541.742 483.515,565.451C483.655,554.864 481.758,542.727 482.644,532.248C485.913,493.54 499.312,455.219 520.551,422.986C510.879,422.906 503.248,423.359 493.61,424.088C512.371,394.293 527.263,374.765 559.631,357.364C542.039,325.898 536.663,272.132 579.524,259.744C582.432,258.904 584.707,258.507 587.704,258.175ZM591.067,284.598C583.701,286.278 577.088,289.593 573.298,296.403C563.062,314.794 563.526,334.516 573.555,352.401C581.833,348.608 590.277,345.185 598.86,342.143C610.446,338.076 620.896,334.364 632.741,331.066C629.504,318.673 626.87,306.212 617.861,296.537C610.033,288.13 602.997,283.708 591.067,284.598ZM830.303,639.193C841.53,637.572 858.933,639.169 869.651,643.27C855.898,664.525 859.553,663.085 836.526,657.151C820.68,654.208 807.865,652.327 791.764,652.479C802.883,644.505 816.855,640.668 830.303,639.193ZM755.388,448.606C767.807,456.482 774.67,459.315 788.164,463.967C785.755,466.628 784.567,467.539 781.768,469.755C776.334,473.16 768.583,476.313 762.181,475.143C750.609,473.03 753.869,456.28 755.388,448.606Z" style="fill:rgb(254,254,254);"/>
</svg>
