<svg width="100%" height="100%" viewBox="0 0 995 810" version="1.1" xmlns="http://www.w3.org/2000/svg" xmlns:xlink="http://www.w3.org/1999/xlink" xml:space="preserve" xmlns:serif="http://www.serif.com/" style="fill-rule:evenodd;clip-rule:evenodd;stroke-linejoin:round;stroke-miterlimit:2;">
    <g transform="matrix(1,0,0,1,-9.8241,-105.659)">
        <path d="M485.655,106.207C507.512,103.744 544.087,109.838 563.746,119.446C585.459,130.058 587.497,131.338 612.127,133.945C631.379,136.106 650.742,137.126 670.114,136.999C680.694,136.887 694.246,136.261 704.289,133.295C711.759,131.089 719.084,126.633 726.09,123.143C737.056,117.728 748.863,114.219 761.005,112.766C827.82,104.32 862.072,154.35 869.665,213.846C874.31,219.264 879.92,224.895 884.778,230.218C892.205,238.402 899.337,246.85 906.16,255.544C943.285,302.966 967.46,355.363 931.409,409.942C929.887,412.245 927.58,421.608 926.387,424.82C921.346,438.382 914.923,447.837 903.514,456.614C920.952,475.931 934.742,495.272 946.193,518.667C953.786,534.183 959.642,550.49 963.653,567.292C975.915,618.669 967.069,659.077 950.308,708.172C964.577,721.831 979.267,735.798 990.771,751.95C1008.85,777.334 1012.24,817.923 983.291,837.153C971.171,845.272 955.623,846.246 942.584,839.705C936.304,836.512 930.478,831.555 923.643,828.884C914.766,825.416 904.028,823.806 894.61,821.934C878.807,843.278 859.873,866.722 832.527,872.267C809.116,877.014 779.895,865.409 775.102,839.925C770.274,842.29 765.395,847.017 760.936,850.139C738.35,865.941 703.881,868.231 685.833,844.265C675.715,830.829 675.17,818.042 677.202,802.017C655.014,801.983 633.383,802.284 611.107,801.883C611.23,802.53 611.339,803.179 611.435,803.83C613.795,819.963 607.719,827.622 598.838,839.606C602.52,851.12 603.612,858.802 600.641,870.613C598.104,878.875 594.045,885.254 587.359,890.822C581.005,896.077 573.449,899.675 565.365,901.297C535.428,907.469 530.34,888.193 504.538,885.908C495.456,908.23 477.852,915.68 454.977,915.049C437.952,914.579 428.301,907.938 414.546,898.889C402.299,890.833 390.229,882.572 377.279,875.751C366.32,869.939 354.357,866.39 342.734,862.092C318.011,852.95 298.993,837.89 281.101,818.846C280.199,836.265 266.697,849.05 251.094,855.045C228.988,863.178 205.805,854.888 188.46,840.39C182.859,835.708 173.618,826.942 167.42,824.32C162.051,833.895 155.198,847.219 146.207,853.607C111.32,878.394 67.322,853.917 54.319,816.963C46.725,795.379 46.487,767.28 49.979,744.94C39.156,727.854 29.272,710.399 22.374,690.884C-9.721,600.072 20.224,473.424 106.69,422.601C116.097,417.072 126.58,413.208 136.787,409.555C149.845,385.151 163.928,364.986 180.647,342.79C195.837,322.386 212.307,302.966 229.958,284.649C260.939,253.007 301.767,222.196 339.973,199.824C354.859,191.107 368.923,184.6 384.401,177.289C405.412,131.33 435.273,110.558 485.655,106.207ZM492.94,121.716C462.944,123.06 439.184,130.161 417.819,152.899C406.303,165.157 403.829,173.974 397.616,188.482C380.854,195.302 360.928,205.998 345.426,215.111C281.995,252.4 229.177,301.396 186.415,361.193C170.447,383.523 160.184,398.037 147.567,423.098L147.191,423.254C143.477,424.754 139.14,425.799 135.278,427.109C92.601,441.594 62.556,478.234 45.301,518.672C21.946,573.403 17.045,637.458 39.969,693.225C47.353,711.312 55.401,725.218 66.023,741.612C64.22,753.476 63.575,763.972 63.681,775.998C63.855,795.632 65.894,810.656 77.68,827.061C91.196,845.874 116.962,855.349 137.072,840.787C144.517,835.346 156.126,815.181 159.552,806.098C164.746,807.53 175.791,810.174 179.701,813.156C191.721,822.324 201.681,833.314 216.276,838.943C227.68,843.342 241.105,843.487 252.024,837.396C267.745,828.586 266.231,811.903 265.916,796.633C273.8,799.961 276.298,800.395 284.797,801.56C296.479,812.41 306.91,824.103 320.287,832.911C336.18,843.376 353.113,849.166 370.777,855.686C396.083,865.028 416.233,883.769 440.195,895.432C453.002,901.665 473.18,900.557 483.429,889.846C488.691,884.382 491.979,873.691 494.406,866.565C505.062,869.081 515.782,871.441 526.095,875.205C531.297,877.104 536.424,881.446 541.358,883.315C571.992,894.922 597.077,870.918 582.397,840.161L579.232,834.532C586.537,828.407 595.159,821.977 596.131,811.712C597.18,800.615 590.032,794.264 585.745,784.924C606.926,786.001 625.557,786.975 646.906,787.01C654.145,787.012 661.383,786.942 668.62,786.801C672.902,786.703 679.377,786.287 683.428,786.871C687.196,787.414 691.549,789.844 695.86,790.853C690.698,813.18 686.377,837.821 716.151,845.711C727.7,848.771 741.74,843.971 751.335,837.77C755.01,835.371 764.35,827.736 767.527,826.758C775.585,824.277 779.668,824.459 787.91,820.687C789.051,831.64 789.321,842.42 798.666,850.077C806.364,856.384 818.312,857.976 827.899,856.764C854.114,853.45 873.743,824.423 888.95,804.642C900.95,808.134 913.63,809.497 925.073,813.046C942.07,818.319 954.945,835.934 974.314,824.6C995.412,812.254 990.808,780.668 979.917,763.559C966.783,742.927 947.835,729.37 931.949,712.306C956.074,649.167 964.207,596.262 935.677,532.298C929.441,518.58 921.918,505.484 913.208,493.186C908.588,486.775 903.695,480.566 898.541,474.576C892.56,467.669 886.839,462.875 884.063,453.999C895.996,444.126 906.104,434.824 911.509,419.828C913.43,415.128 914.108,408.635 916.379,404.195C921.414,394.424 927.862,386.422 930.595,375.567C942.2,329.473 912.889,288.421 885.473,254.594C875.61,242.425 864.125,231.424 854.233,219.448C850.24,149.136 797.82,105.442 729.393,138.924C722.782,142.159 716.272,146.064 709.223,148.271C690.327,153.428 665.773,153.494 646.233,152.769C625.85,152.013 602.691,150.406 582.902,145.692C576.968,144.278 566.93,138.283 560.962,135.549C541.151,126.472 514.73,120.146 492.94,121.716ZM157.808,463.187C189.436,460.675 212.838,470.643 219.912,503.533C224.461,524.685 220.816,549.084 212.71,569.057C208.269,580.001 199.746,591.206 193.931,601.478C176.099,631.102 133.626,659.291 99.816,666.64C121.141,683.351 137.102,683.681 161.379,672.9L162.175,673.137C179.417,678.396 197.123,689.585 212.323,699.019C236.33,713.919 257.91,735.52 271.088,760.64C258.449,753.243 243.635,748.402 231.327,741.285C210.731,729.375 196.378,718.461 173.899,709.743C188.958,720.738 204.025,737.943 215.422,752.774C219.665,758.485 223.571,764.438 227.121,770.604C233.2,781.112 241.656,796.384 238.556,808.949C237.127,814.738 233.535,820.06 227.314,815.431C221.153,810.847 215.971,805.397 210.525,799.979C200.648,790.207 190.969,780.236 181.494,770.074C175.236,763.466 168.601,755.643 161.66,749.889C151.822,741.734 144.703,735.634 132.28,741.856C132.777,747.587 133.924,753.769 134.075,759.491C134.516,776.172 130.973,818.861 113.036,826.337C111.736,825.685 109.64,824.643 108.541,823.816C99.3,816.863 97.728,796.639 97.181,785.861C96.842,778.912 96.911,771.949 97.386,765.008C98.015,756.067 99.58,745.831 97.951,737.087C95.496,723.906 88.336,712.737 82.518,700.745C73.423,681.994 66.639,662.592 63.874,641.786C57.384,592.939 73.394,536.856 102.862,497.565C116.933,478.802 134.282,466.221 157.808,463.187ZM859.921,480.348C863.487,483.481 871.095,492.729 874.237,496.51C893.83,520.091 911.033,547.335 918.384,577.444C930.223,625.935 915.97,675.73 890.744,717.438C897.009,720.649 902.279,724.065 907.731,728.553C922.263,740.61 938.735,749.828 950.75,764.754C959.931,776.159 968.646,786.237 957.911,800.117C951.653,792.134 938.074,786.686 929.047,781.849C914.845,774.239 898.1,761.963 882.935,756.855C878.114,760.803 873.991,766.968 869.751,771.509C853.82,788.57 839.973,823.727 818.662,833.464C815.624,830.531 814.522,828.841 812.535,825.308C812.366,820.08 813.358,813.544 813.636,808.402C814.889,785.246 821.132,775.979 833.279,757.23C794.821,766.432 783.889,776.172 754.459,800.627C747.158,806.645 727.44,824.869 718.843,824.074C714.96,821.795 716.438,817.396 717.374,813.613C724.669,784.14 746.795,760.787 772.949,746.576C779.497,743.018 785.868,740.573 792.325,737.252L792.867,736.969C784.129,738.725 773.935,739.413 764.995,740.528C727.583,745.194 703.347,747.832 672.921,772.195C672.957,742.009 706.965,724.514 732.586,719.272C743.383,718.158 752.962,716.084 763.643,714.154C791.877,709.053 793.997,679.156 807.989,657.34C825.248,630.427 841.044,619.409 871.516,611.615C845.81,597.793 839.32,618.234 817.463,606.977C819.649,600.644 823.53,592.618 826.333,586.407C830.159,577.973 833.798,569.456 837.247,560.861C848.845,532.132 853.993,510.422 859.921,480.348ZM878.426,552.667C870.649,553.769 866.674,556.895 864.211,564.387C865.95,572.858 869.491,578.293 878.674,579.421C887.112,578.089 893.667,572.175 891.715,563.076C891.006,559.667 888.948,556.69 886.01,554.821C883.268,553.079 881.585,552.756 878.426,552.667ZM494.43,152.711C533.525,149.03 573.367,175.431 604.524,195.647C619.055,205.076 639.2,216.999 656.34,219.381C641.578,206.638 634.872,198.388 624.349,182.037C648.782,186.649 681.155,185.904 705.898,183.37C728.348,181.072 742.483,162.71 765.042,159.597C797.008,155.186 813.495,175.97 817.765,205.33C807.488,200.455 801.683,198.565 790.97,195.329C793.95,198.261 797.002,201.532 799.825,204.66C829.238,237.138 857.921,264.624 883.986,300.404C898.343,319.403 910.455,352.047 890.427,371.385C886.856,374.832 851.205,367.152 845.347,366.2C825.84,363.006 806.1,361.443 786.333,361.529C734.673,361.932 691.281,372.34 641.718,381.718C600.8,389.46 481.527,434.983 454.429,388.531C461.449,379.218 470.628,376.127 481.243,372.457C479.03,371.246 476.793,369.99 474.449,369.126C447.597,359.23 410.2,384.812 419.179,415.018C420.944,420.954 423.823,424.94 427.942,429.346C428.108,420.702 429.907,415.867 434.037,408.483C442.002,416.655 450.576,421.497 461.079,425.819C503.488,443.27 542.608,432.68 583.948,421.765C598.258,418.011 612.612,414.423 627.006,411.003C657.39,403.589 688.133,397.73 719.113,393.448C773.175,386.093 825.35,387.116 878.055,402.571L877.654,403.692C873.137,416.213 867.204,426.773 853.575,430.598C831.486,436.797 807.957,430.844 785.746,428.513C735.174,423.205 679.262,440.009 633.713,461.449C657.729,462.992 678.08,461.861 701.898,458.06C715.793,455.842 729.531,452.953 743.543,451.96C774.168,449.79 801.786,457.043 831.676,460.451C806.829,515.591 746.385,539.481 689.987,547.753C630.152,556.529 565.806,550.339 512.174,521.08C501.495,515.254 491.37,507.637 481.609,500.347C483.624,504.944 486.039,509.356 488.826,513.531C512.023,548.586 556.787,567.889 596.693,575.997C655.816,587.887 717.138,581.963 772.892,558.975C786.263,553.438 799.639,546.987 811.716,538.981C808.617,547.675 796.992,576.945 792.163,583.094C778.073,601.038 727.893,612.193 707.746,615.921C629.946,630.318 542.895,615.898 477.875,570.013L473.069,566.327C487.558,592.16 507.295,607.878 533.372,621.018C600.56,654.874 690.968,653.031 761.167,629.719C741.662,657.821 713.743,677.84 683.255,694.907C615.764,732.689 526.897,740.661 452.259,721.581C435.827,717.38 435.333,713.687 427.31,699.973C418.15,684.237 409.281,668.333 400.708,652.27C419.579,630.022 435.567,601.391 441.019,572.582C424.352,589.777 407.654,605.396 388.273,619.513C374.969,629.202 370.9,634.106 354.199,626.76C341.827,621.318 332.116,621.449 319.125,624.311C332.711,631.046 349.306,640.251 359.857,651.19C371.724,663.492 382.151,683.788 390.388,698.894C398.39,713.568 405.345,731.332 420.588,740.517C440.907,752.76 471.965,754.967 495.279,757.756C504.822,758.898 514.779,759.103 524.039,761.391C537.967,764.833 552.295,771.767 564.224,779.721C573.862,786.148 574.637,794.139 576.302,804.369C556.735,791.964 537.506,789.627 515.282,785.656C497.856,782.542 482.27,780.296 464.608,779.032C488.852,791.606 551.701,822.719 559.507,848.962C561.041,854.119 558.783,858.455 556.278,862.815C551.886,858.262 529.551,847.165 522.795,845.136C503.048,839.205 489.379,833.497 472.248,821.568C461.327,813.964 446.024,807.258 434.022,801.555C425.62,797.626 413.095,796.386 403.748,795.214C426.334,806.256 449.812,825.995 461.52,848.784C464.793,855.153 464.721,868.741 457.237,871.809C450.138,871.881 437.127,859.985 431.233,855.885C417.821,846.552 404.553,837.455 389.604,830.718C378.907,825.897 355.847,818.52 347.728,812.696C341.853,808.483 317.646,770.808 311.145,761.392C295.536,738.781 279.46,716.409 264.394,693.434C259.673,686.234 255.048,678.912 250.997,671.311C244.997,660.056 240.484,648.841 238.912,636.103C234.595,601.134 253.192,555.386 274.79,527.963C296.114,500.89 322.372,486.737 356.355,482.747C323.47,452.27 273.186,484.224 252.116,513.055C250.053,515.879 246.668,518.551 245.899,521.995L245.451,522.179C244.491,520.536 241.739,502.056 240.853,498.175C239.254,490.908 236.978,483.807 234.054,476.965C224.306,454.317 210.293,441.009 187.692,432.022C211.698,392.416 240.287,355.778 272.868,322.863C283.141,312.543 293.766,303.012 304.564,293.267C302.868,304.703 303.722,322.217 319.708,321.982C333.21,321.783 347.337,310.369 356.582,301.236C365.863,292.067 378.091,276.242 378.958,262.458C379.102,257.929 375.17,254.78 372.085,251.909C383.41,245.593 394.326,238.571 404.768,230.883C407.81,238.23 409.863,244.247 415.665,249.869C416.791,244.302 417.545,238.612 418.775,233.046C428.222,190.296 447.466,156.517 494.43,152.711ZM267.086,438.48C259.275,442.731 254.214,457.739 258.376,465.43C259.57,467.639 261.629,469.251 264.06,469.88C265.381,470.212 267.078,470.043 268.445,469.945C282.61,462.258 281.608,439.292 267.086,438.48ZM812.924,263.615C789.527,268.101 799.818,294.753 806.233,308.667L810.283,306.245C818.552,299.905 823.913,293.374 825.617,282.757C827.025,273.986 822.75,264.111 812.924,263.615ZM715.299,289.093C710.672,290.459 706.08,293.156 703.591,297.391C698.048,306.828 725.449,316.596 731.318,318.248C734.701,319.279 738.096,320.27 741.502,321.221C739.341,308.983 730.057,288.645 715.299,289.093ZM325.402,358.116C322.034,358.994 319.855,359.673 316.998,361.864C306.087,370.229 301.77,390.655 313.613,400.037L321.447,398.173C329.052,395.608 333.439,389.277 336.809,382.416C343.493,368.808 343.977,357.105 325.402,358.116ZM479.768,197.169C464.529,199.123 454.595,204.765 453.664,221.387C462.808,211.147 473.802,210.763 485.576,216.423C476.465,228.862 472.44,242.644 474.842,258.053C477.381,274.239 486.372,288.705 499.761,298.147C503.356,300.682 506.973,303.185 510.612,305.655C489.226,310.631 471.774,300.844 454.868,289.006C457.891,302.522 460.322,310.741 472.713,318.542C489.723,329.251 511.176,330.71 530.408,326.121C538.519,324.171 546.374,321.277 553.812,317.499C570.549,308.668 585.223,296.06 594.038,279.047C613.908,284.979 634.939,287.256 654.139,277.186C664.651,271.673 666.966,264.648 668.29,253.601C659.12,261.881 650.788,263.449 638.468,262.925C607.389,261.603 584.474,242.037 559.688,226.339C536.757,211.815 507.427,195.719 479.768,197.169ZM530.983,236.305C539.889,239.026 556.416,251.626 563.679,257.976C560.066,262.882 557.729,264.959 552.909,268.585C545.796,272.831 537.099,273.974 530.145,268.702C526.297,265.743 523.826,261.341 523.303,256.515C522.394,248.384 526.1,242.209 530.983,236.305ZM260.742,367.08C247.677,371.446 240.404,382.688 235.897,395.128C231.429,407.461 234.755,416.148 249.257,415.49C267.753,412.623 277.465,396.626 275.906,378.408C275.211,370.299 268.455,366.586 260.742,367.08ZM301.305,538.439C288.814,547.797 286.845,575.363 304.42,568.14C312.345,562.762 319.75,554.447 313.088,544.833C310.621,541.273 305.732,538.076 301.305,538.439ZM282.644,597.61C277.576,598.046 273.144,601.198 271.068,605.842C268.992,610.486 269.599,615.891 272.655,619.958C275.71,624.025 280.732,626.114 285.77,625.413C293.284,624.369 298.597,617.528 297.75,609.989C296.902,602.451 290.202,596.96 282.644,597.61ZM415.467,337.704C401.645,338.769 390.32,344.076 381.1,354.688C368.541,369.144 362.244,392.755 363.813,411.716C365.582,433.103 375.513,455.147 392.001,469.486C402.915,478.978 417.449,483.163 431.942,483.482C432.956,483.504 432.704,483.498 433.476,482.778L432.85,481.581C410.742,463.359 388.955,441.615 386.336,411.526C384.954,395.638 388.173,377.097 398.752,364.657C409.517,351.997 421.83,347.405 437.921,346.089C439.009,346 440.098,345.923 441.188,345.855C433.028,340.712 425.343,337.533 415.467,337.704Z" style="fill:rgb(254,254,254);" data-color='color-2'/>
        <path d="M492.94,121.716C514.73,120.146 541.151,126.472 560.962,135.549C566.93,138.283 576.968,144.278 582.902,145.692C602.691,150.406 625.85,152.013 646.233,152.769C665.773,153.494 690.327,153.428 709.223,148.271C716.272,146.064 722.782,142.159 729.393,138.924C797.82,105.442 850.24,149.136 854.233,219.448C864.125,231.424 875.61,242.425 885.473,254.594C912.889,288.421 942.2,329.473 930.595,375.567C927.862,386.422 921.414,394.424 916.379,404.195C914.108,408.635 913.43,415.128 911.509,419.828C906.104,434.824 895.996,444.126 884.063,453.999C886.839,462.875 892.56,467.669 898.541,474.576C903.695,480.566 908.588,486.775 913.208,493.186C921.918,505.484 929.441,518.58 935.677,532.298C964.207,596.262 956.074,649.167 931.949,712.306C947.835,729.37 966.783,742.927 979.917,763.559C990.808,780.668 995.412,812.254 974.314,824.6C954.945,835.934 942.07,818.319 925.073,813.046C913.63,809.497 900.95,808.134 888.95,804.642C873.743,824.423 854.114,853.45 827.899,856.764C818.312,857.976 806.364,856.384 798.666,850.077C789.321,842.42 789.051,831.64 787.91,820.687C779.668,824.459 775.585,824.277 767.527,826.758C764.35,827.736 755.01,835.371 751.335,837.77C741.74,843.971 727.7,848.771 716.151,845.711C686.377,837.821 690.698,813.18 695.86,790.853C691.549,789.844 687.196,787.414 683.428,786.871C679.377,786.287 672.902,786.703 668.62,786.801C661.383,786.942 654.145,787.012 646.906,787.01C625.557,786.975 606.926,786.001 585.745,784.924C590.032,794.264 597.18,800.615 596.131,811.712C595.159,821.977 586.537,828.407 579.232,834.532L582.397,840.161C597.077,870.918 571.992,894.922 541.358,883.315C536.424,881.446 531.297,877.104 526.095,875.205C515.782,871.441 505.062,869.081 494.406,866.565C491.979,873.691 488.691,884.382 483.429,889.846C473.18,900.557 453.002,901.665 440.195,895.432C416.233,883.769 396.083,865.028 370.777,855.686C353.113,849.166 336.18,843.376 320.287,832.911C306.91,824.103 296.479,812.41 284.797,801.56C276.298,800.395 273.8,799.961 265.916,796.633C266.231,811.903 267.745,828.586 252.024,837.396C241.105,843.487 227.68,843.342 216.276,838.943C201.681,833.314 191.721,822.324 179.701,813.156C175.791,810.174 164.746,807.53 159.552,806.098C156.126,815.181 144.517,835.346 137.072,840.787C116.962,855.349 91.196,845.874 77.68,827.061C65.894,810.656 63.855,795.632 63.681,775.998C63.575,763.972 64.22,753.476 66.023,741.612C55.401,725.218 47.353,711.312 39.969,693.225C17.045,637.458 21.946,573.403 45.301,518.672C62.556,478.234 92.601,441.594 135.278,427.109C139.14,425.799 143.477,424.754 147.191,423.254L147.567,423.098C160.184,398.037 170.447,383.523 186.415,361.193C229.177,301.396 281.995,252.4 345.426,215.111C360.928,205.998 380.854,195.302 397.616,188.482C403.829,173.974 406.303,165.157 417.819,152.899C439.184,130.161 462.944,123.06 492.94,121.716ZM157.808,463.187C134.282,466.221 116.933,478.802 102.862,497.565C73.394,536.856 57.384,592.939 63.874,641.786C66.639,662.592 73.423,681.994 82.518,700.745C88.336,712.737 95.496,723.906 97.951,737.087C99.58,745.831 98.015,756.067 97.386,765.008C96.911,771.949 96.842,778.912 97.181,785.861C97.728,796.639 99.3,816.863 108.541,823.816C109.64,824.643 111.736,825.685 113.036,826.337C130.973,818.861 134.516,776.172 134.075,759.491C133.924,753.769 132.777,747.587 132.28,741.856C144.703,735.634 151.822,741.734 161.66,749.889C168.601,755.643 175.236,763.466 181.494,770.074C190.969,780.236 200.648,790.207 210.525,799.979C215.971,805.397 221.153,810.847 227.314,815.431C233.535,820.06 237.127,814.738 238.556,808.949C241.656,796.384 233.2,781.112 227.121,770.604C223.571,764.438 219.665,758.485 215.422,752.774C204.025,737.943 188.958,720.738 173.899,709.743C196.378,718.461 210.731,729.375 231.327,741.285C243.635,748.402 258.449,753.243 271.088,760.64C257.91,735.52 236.33,713.919 212.323,699.019C197.123,689.585 179.417,678.396 162.175,673.137L161.379,672.9C137.102,683.681 121.141,683.351 99.816,666.64C133.626,659.291 176.099,631.102 193.931,601.478C199.746,591.206 208.269,580.001 212.71,569.057C220.816,549.084 224.461,524.685 219.912,503.533C212.838,470.643 189.436,460.675 157.808,463.187ZM859.921,480.348C853.993,510.422 848.845,532.132 837.247,560.861C833.798,569.456 830.159,577.973 826.333,586.407C823.53,592.618 819.649,600.644 817.463,606.977C839.32,618.234 845.81,597.793 871.516,611.615C841.044,619.409 825.248,630.427 807.989,657.34C793.997,679.156 791.877,709.053 763.643,714.154C752.962,716.084 743.383,718.158 732.586,719.272C706.965,724.514 672.957,742.009 672.921,772.195C703.347,747.832 727.583,745.194 764.995,740.528C773.935,739.413 784.129,738.725 792.867,736.969L792.325,737.252C785.868,740.573 779.497,743.018 772.949,746.576C746.795,760.787 724.669,784.14 717.374,813.613C716.438,817.396 714.96,821.795 718.843,824.074C727.44,824.869 747.158,806.645 754.459,800.627C783.889,776.172 794.821,766.432 833.279,757.23C821.132,775.979 814.889,785.246 813.636,808.402C813.358,813.544 812.366,820.08 812.535,825.308C814.522,828.841 815.624,830.531 818.662,833.464C839.973,823.727 853.82,788.57 869.751,771.509C873.991,766.968 878.114,760.803 882.935,756.855C898.1,761.963 914.845,774.239 929.047,781.849C938.074,786.686 951.653,792.134 957.911,800.117C968.646,786.237 959.931,776.159 950.75,764.754C938.735,749.828 922.263,740.61 907.731,728.553C902.279,724.065 897.009,720.649 890.744,717.438C915.97,675.73 930.223,625.935 918.384,577.444C911.033,547.335 893.83,520.091 874.237,496.51C871.095,492.729 863.487,483.481 859.921,480.348ZM878.426,552.667C881.585,552.756 883.268,553.079 886.01,554.821C888.948,556.69 891.006,559.667 891.715,563.076C893.667,572.175 887.112,578.089 878.674,579.421C869.491,578.293 865.95,572.858 864.211,564.387C866.674,556.895 870.649,553.769 878.426,552.667ZM494.43,152.711C447.466,156.517 428.222,190.296 418.775,233.046C417.545,238.612 416.791,244.302 415.665,249.869C409.863,244.247 407.81,238.23 404.768,230.883C394.326,238.571 383.41,245.593 372.085,251.909C375.17,254.78 379.102,257.929 378.958,262.458C378.091,276.242 365.863,292.067 356.582,301.236C347.337,310.369 333.21,321.783 319.708,321.982C303.722,322.217 302.868,304.703 304.564,293.267C293.766,303.012 283.141,312.543 272.868,322.863C240.287,355.778 211.698,392.416 187.692,432.022C210.293,441.009 224.306,454.317 234.054,476.965C236.978,483.807 239.254,490.908 240.853,498.175C241.739,502.056 244.491,520.536 245.451,522.179L245.899,521.995C246.668,518.551 250.053,515.879 252.116,513.055C273.186,484.224 323.47,452.27 356.355,482.747C322.372,486.737 296.114,500.89 274.79,527.963C253.192,555.386 234.595,601.134 238.912,636.103C240.484,648.841 244.997,660.056 250.997,671.311C255.048,678.912 259.673,686.234 264.394,693.434C279.46,716.409 295.536,738.781 311.145,761.392C317.646,770.808 341.853,808.483 347.728,812.696C355.847,818.52 378.907,825.897 389.604,830.718C404.553,837.455 417.821,846.552 431.233,855.885C437.127,859.985 450.138,871.881 457.237,871.809C464.721,868.741 464.793,855.153 461.52,848.784C449.812,825.995 426.334,806.256 403.748,795.214C413.095,796.386 425.62,797.626 434.022,801.555C446.024,807.258 461.327,813.964 472.248,821.568C489.379,833.497 503.048,839.205 522.795,845.136C529.551,847.165 551.886,858.262 556.278,862.815C558.783,858.455 561.041,854.119 559.507,848.962C551.701,822.719 488.852,791.606 464.608,779.032C482.27,780.296 497.856,782.542 515.282,785.656C537.506,789.627 556.735,791.964 576.302,804.369C574.637,794.139 573.862,786.148 564.224,779.721C552.295,771.767 537.967,764.833 524.039,761.391C514.779,759.103 504.822,758.898 495.279,757.756C471.965,754.967 440.907,752.76 420.588,740.517C405.345,731.332 398.39,713.568 390.388,698.894C382.151,683.788 371.724,663.492 359.857,651.19C349.306,640.251 332.711,631.046 319.125,624.311C332.116,621.449 341.827,621.318 354.199,626.76C370.9,634.106 374.969,629.202 388.273,619.513C407.654,605.396 424.352,589.777 441.019,572.582C435.567,601.391 419.579,630.022 400.708,652.27C409.281,668.333 418.15,684.237 427.31,699.973C435.333,713.687 435.827,717.38 452.259,721.581C526.897,740.661 615.764,732.689 683.255,694.907C713.743,677.84 741.662,657.821 761.167,629.719C690.968,653.031 600.56,654.874 533.372,621.018C507.295,607.878 487.558,592.16 473.069,566.327L477.875,570.013C542.895,615.898 629.946,630.318 707.746,615.921C727.893,612.193 778.073,601.038 792.163,583.094C796.992,576.945 808.617,547.675 811.716,538.981C799.639,546.987 786.263,553.438 772.892,558.975C717.138,581.963 655.816,587.887 596.693,575.997C556.787,567.889 512.023,548.586 488.826,513.531C486.039,509.356 483.624,504.944 481.609,500.347C491.37,507.637 501.495,515.254 512.174,521.08C565.806,550.339 630.152,556.529 689.987,547.753C746.385,539.481 806.829,515.591 831.676,460.451C801.786,457.043 774.168,449.79 743.543,451.96C729.531,452.953 715.793,455.842 701.898,458.06C678.08,461.861 657.729,462.992 633.713,461.449C679.262,440.009 735.174,423.205 785.746,428.513C807.957,430.844 831.486,436.797 853.575,430.598C867.204,426.773 873.137,416.213 877.654,403.692L878.055,402.571C825.35,387.116 773.175,386.093 719.113,393.448C688.133,397.73 657.39,403.589 627.006,411.003C612.612,414.423 598.258,418.011 583.948,421.765C542.608,432.68 503.488,443.27 461.079,425.819C450.576,421.497 442.002,416.655 434.037,408.483C429.907,415.867 428.108,420.702 427.942,429.346C423.823,424.94 420.944,420.954 419.179,415.018C410.2,384.812 447.597,359.23 474.449,369.126C476.793,369.99 479.03,371.246 481.243,372.457C470.628,376.127 461.449,379.218 454.429,388.531C481.527,434.983 600.8,389.46 641.718,381.718C691.281,372.34 734.673,361.932 786.333,361.529C806.1,361.443 825.84,363.006 845.347,366.2C851.205,367.152 886.856,374.832 890.427,371.385C910.455,352.047 898.343,319.403 883.986,300.404C857.921,264.624 829.238,237.138 799.825,204.66C797.002,201.532 793.95,198.261 790.97,195.329C801.683,198.565 807.488,200.455 817.765,205.33C813.495,175.97 797.008,155.186 765.042,159.597C742.483,162.71 728.348,181.072 705.898,183.37C681.155,185.904 648.782,186.649 624.349,182.037C634.872,198.388 641.578,206.638 656.34,219.381C639.2,216.999 619.055,205.076 604.524,195.647C573.367,175.431 533.525,149.03 494.43,152.711ZM715.299,289.093C730.057,288.645 739.341,308.983 741.502,321.221C738.096,320.27 734.701,319.279 731.318,318.248C725.449,316.596 698.048,306.828 703.591,297.391C706.08,293.156 710.672,290.459 715.299,289.093ZM479.768,197.169C507.427,195.719 536.757,211.815 559.688,226.339C584.474,242.037 607.389,261.603 638.468,262.925C650.788,263.449 659.12,261.881 668.29,253.601C666.966,264.648 664.651,271.673 654.139,277.186C634.939,287.256 613.908,284.979 594.038,279.047C585.223,296.06 570.549,308.668 553.812,317.499C546.374,321.277 538.519,324.171 530.408,326.121C511.176,330.71 489.723,329.251 472.713,318.542C460.322,310.741 457.891,302.522 454.868,289.006C471.774,300.844 489.226,310.631 510.612,305.655C506.973,303.185 503.356,300.682 499.761,298.147C486.372,288.705 477.381,274.239 474.842,258.053C472.44,242.644 476.465,228.862 485.576,216.423C473.802,210.763 462.808,211.147 453.664,221.387C454.595,204.765 464.529,199.123 479.768,197.169ZM530.983,236.305C526.1,242.209 522.394,248.384 523.303,256.515C523.826,261.341 526.297,265.743 530.145,268.702C537.099,273.974 545.796,272.831 552.909,268.585C557.729,264.959 560.066,262.882 563.679,257.976C556.416,251.626 539.889,239.026 530.983,236.305ZM267.086,438.48C281.608,439.292 282.61,462.258 268.445,469.945C267.078,470.043 265.381,470.212 264.06,469.88C261.629,469.251 259.57,467.639 258.376,465.43C254.214,457.739 259.275,442.731 267.086,438.48ZM282.644,597.61C290.202,596.96 296.902,602.451 297.75,609.989C298.597,617.528 293.284,624.369 285.77,625.413C280.732,626.114 275.71,624.025 272.655,619.958C269.599,615.891 268.992,610.486 271.068,605.842C273.144,601.198 277.576,598.046 282.644,597.61ZM415.467,337.704C425.343,337.533 433.028,340.712 441.188,345.855C440.098,345.923 439.009,346 437.921,346.089C421.83,347.405 409.517,351.997 398.752,364.657C388.173,377.097 384.954,395.638 386.336,411.526C388.955,441.615 410.742,463.359 432.85,481.581L433.476,482.778C432.704,483.498 432.956,483.504 431.942,483.482C417.449,483.163 402.915,478.978 392.001,469.486C375.513,455.147 365.582,433.103 363.813,411.716C362.244,392.755 368.541,369.144 381.1,354.688C390.32,344.076 401.645,338.769 415.467,337.704ZM325.402,358.116C343.977,357.105 343.493,368.808 336.809,382.416C333.439,389.277 329.052,395.608 321.447,398.173L313.613,400.037C301.77,390.655 306.087,370.229 316.998,361.864C319.855,359.673 322.034,358.994 325.402,358.116ZM301.305,538.439C305.732,538.076 310.621,541.273 313.088,544.833C319.75,554.447 312.345,562.762 304.42,568.14C286.845,575.363 288.814,547.797 301.305,538.439ZM812.924,263.615C822.75,264.111 827.025,273.986 825.617,282.757C823.913,293.374 818.552,299.905 810.283,306.245L806.233,308.667C799.818,294.753 789.527,268.101 812.924,263.615ZM260.742,367.08C268.455,366.586 275.211,370.299 275.906,378.408C277.465,396.626 267.753,412.623 249.257,415.49C234.755,416.148 231.429,407.461 235.897,395.128C240.404,382.688 247.677,371.446 260.742,367.08Z" style="fill:rgb(0,63,39);" data-color='color-1'/>
    </g>
</svg>
