<svg width="100%" height="100%" viewBox="0 0 996 933" version="1.1" xmlns="http://www.w3.org/2000/svg" xmlns:xlink="http://www.w3.org/1999/xlink" xml:space="preserve" xmlns:serif="http://www.serif.com/" style="fill-rule:evenodd;clip-rule:evenodd;stroke-linejoin:round;stroke-miterlimit:2;">
    <g transform="matrix(1,0,0,1,-24.1286,-48.0479)">
        <path d="M478.29,64.196C491.36,62.822 509.127,69.56 520.249,76.059C531.127,68.329 537.896,64.305 551.721,64.977C561.836,65.469 567.453,67.648 576.514,71.943C594.11,58.176 615.818,64.564 628.545,81.228C637.864,93.43 645.688,112.11 644.018,127.636C652.837,129.712 659.959,134.426 667.201,136.367C680.894,140.037 697.404,142.618 711.48,145.124C725.455,139.902 733.933,137.206 748.478,142.35C774.431,132.556 793.292,130.807 807.046,159.461C808.775,163.065 809.889,167.152 811.701,170.683C813.338,173.602 815.652,176.203 817.445,179.013C827.55,194.847 826.179,212.358 809.387,223.196C804.645,239.844 793.437,252.685 777.244,259.645C774.843,260.677 771.033,261.904 768.575,260.812C766.667,258.019 767.011,236.86 766.986,232.647C761.538,232.629 755.927,232.221 750.475,231.908C745.966,242.179 737.909,257.64 726.963,262.159C723.13,258.518 717.528,248.604 714.699,243.711C709.9,249.471 696.13,277.086 689.055,268.746C684.837,263.773 676.945,247.401 674.089,240.715C666.584,239.144 657.971,237.399 650.894,234.564C640.117,230.245 629.719,226.234 618.698,222.545C615.454,243.267 646.096,266.588 662.13,274.227C664.732,260.704 668.652,264.159 674.165,273.986C675.824,276.942 677.62,280.078 679.29,283.046C686.785,286.013 698.676,287.834 707.141,290.728C707.255,290.609 707.368,290.489 707.482,290.37L708.039,289.764C711.885,285.654 716.836,276.655 719.979,275.581C727.256,276.105 731.271,295.873 732.546,301.979C750.905,312.881 744.283,327.798 732.272,340.524C727.231,345.866 720.849,349.429 714.363,352.731C728.534,360.394 751.335,356.701 766.337,352.984C776.128,350.559 789.827,344.541 799.491,346.87C809.882,337.544 822.18,330.834 836.437,333.111C839.408,321.067 848.134,305.792 854.376,295.088C869.894,268.472 891.922,246.558 920.477,234.176C934.423,228.167 953.47,221.382 968.597,227.062C981.684,231.975 979.851,243.366 975.511,253.591C985.013,252.419 1002.95,254.737 1003.31,265.026C1003.98,284.838 967.274,300.702 954.503,311.326C943.708,320.306 939.7,323.275 932.757,333.325C947.985,350.056 942.534,370.29 932.677,388.716C920.075,412.272 902.749,418.482 878.419,425.398C870.561,444.69 845.981,452.632 826.718,449.411C811.591,460.065 799.226,466.568 781.481,471.938C730.554,487.35 667.027,480.509 620.106,455.648C607.767,475.324 599.351,489.108 583.583,506.951C576.268,515.228 565.881,525.256 559.438,532.894L558.844,533.605C559.317,549.015 560.435,555.256 552.721,568.684C570.549,573.634 582.524,578.801 594.809,593.529C609.557,611.208 614.348,631.589 612.404,654.154C618.755,662.707 629.363,677.184 637.068,684.139C652.244,681.439 654.762,687.071 660.459,699.587C663.922,700.039 666.868,700.525 670.301,701.175C678.942,691.986 683.88,690.027 695.478,695.271C702.219,687.309 708.921,684.381 719.154,687.947C725.756,676.763 729.224,674.804 742.072,675.003C744.641,670.409 748.022,666.538 750.56,662.074C752.609,658.154 753.751,653.982 755.841,650.064C772.547,618.747 816.151,606.346 843.585,631.641C844.667,632.639 850.33,638.765 850.997,639.064C865.724,645.678 871.303,658.603 866.973,673.832C880.942,685.383 878.74,701.605 860.054,705.169C858.645,708.376 857.156,711.546 855.587,714.677C858.442,718.347 860.932,722.195 860.899,727.061C860.873,730.539 859.445,733.858 856.938,736.268C852.318,740.795 847.241,741.025 841.336,741.02C838.18,745.167 834.901,749.218 831.503,753.169C833.079,757.886 834.563,762.195 832.698,767.197C831.479,770.534 828.884,773.185 825.574,774.476C820.278,776.58 815.516,775.36 810.62,773.158C799.491,781.967 785.992,789.065 774.424,797.384C768.303,801.786 763.342,806.661 757.937,811.855C758.489,812.592 759.02,813.344 759.53,814.111C766.646,824.931 758.483,839.288 743.555,834.977C739.582,839.025 735.735,843.088 731.108,846.37C733.939,854.483 735.157,863.61 724.779,867.759C720.34,869.534 715.434,867.965 711.312,865.79C708.955,867.102 706.319,868.4 703.902,869.644C701.895,874.8 699.896,879.42 694.766,882.347C691.501,884.205 687.619,884.648 684.019,883.574C679.572,882.227 677.141,879.039 675.134,875.114C659.703,874.494 650.701,868.658 646.118,853.619C643.446,851.209 637.695,847.207 634.47,844.645C616.638,829.481 608.152,814.706 610.673,791.03C604.048,783.853 598.901,782.52 590.175,778.204C579.515,772.932 577.413,765.738 574.07,755.419C569.904,752.441 560.699,748.705 555.753,745.995C548.939,742.26 544.863,739.203 538.744,734.508C510.179,734.628 498.508,725.243 490.922,698.227C478.593,703.865 465.534,707.523 452.593,711.457C430.106,744.89 374.428,804.853 336.987,819.851C318.864,827.11 304.744,826.547 287.021,818.948C275.954,823.281 269.051,824.418 257.373,825.304C247.035,833.587 238.189,839.17 223.839,837.72C219.915,843.395 216.768,845.799 211.108,849.512C210.886,859.728 206.706,862.943 198.893,868.552C201.123,875.845 201.346,880.232 199.209,887.597C210.061,890.821 217.423,898.238 218.431,910.094C219.156,918.612 215.57,924.212 210.233,930.359C209.64,943.939 199.727,949.103 187.571,951.201C187.203,952.168 186.811,953.126 186.397,954.075C181.005,966.497 167.052,968.122 162.377,954.554C156.986,954.22 151.599,953.822 146.217,953.362C143.448,956.465 141.22,958.719 136.855,959.558C133.78,960.151 130.596,959.457 128.047,957.639C123.262,954.294 122.283,949.67 121.233,944.447C120.914,944.262 120.593,944.08 120.27,943.901C115.433,941.226 114.661,945.392 110.407,945.786C97.568,946.975 91.453,935.519 97.866,925.036C97.548,924.503 95.544,921.337 95.227,921.377C81.632,923.101 78.062,911.215 82.119,900.312C83.211,897.377 84.671,895.999 87.017,893.529L87.009,886.297C77.208,877.631 78.445,862.207 92.263,858.278C104.005,834.657 111.723,832.349 114.105,803.827C110.93,800.682 108.873,797.903 107.357,793.605C105.593,788.106 105.806,783.868 108.017,778.777C110.246,773.646 116.396,773.522 117.737,772.415C121.289,769.483 111.941,761.558 114.359,755.774C118.212,746.558 126.396,746.352 134.851,744.296C136.038,744.004 138.027,742.251 138.967,741.93C141.118,741.024 144.348,740.766 146.392,739.815C162.903,732.132 181.334,733.979 196.338,744.237C200.505,747.085 202.429,751.422 207.772,753.407C210.031,753.281 213.42,749.9 215.654,749.115C219.814,747.652 225.351,748.737 229.359,749.637C244.918,731.112 255.834,728.776 278.955,725.239C279.011,723.155 279.013,722.361 278.765,720.306C276.995,720.114 276.407,720.79 274.778,721.222C224.907,734.453 171.905,733.428 125.511,709.164C88.01,689.919 59.711,656.54 46.862,616.395C35.742,580.682 38.249,542.199 55.521,508.764C65.986,488.505 84.201,469.53 106.496,463.387C110.612,462.252 118.926,459.89 122.651,462.339C125.299,463.986 126.693,467.328 125.409,470.371C112.596,500.749 110.317,521.174 117.374,554.051C135.516,539.91 136.263,575.586 149.623,585.822C155.669,586.369 158.654,569.522 170.289,584.092C176.038,591.292 184.25,599.372 192.536,603.588C200.26,585.417 197.121,580.273 218.601,591.547C223.143,593.931 235.296,599.094 240.114,597.046C240.788,595.329 241.255,590.572 241.303,588.476C241.636,574.046 255.064,578.617 264.95,573.793C273.918,569.417 279.232,564.044 287.053,557.598C292.047,540.306 294.527,532.465 301.855,515.797C281.245,522.435 268.359,519.076 248.837,512.058C244.341,513.074 237.383,513.982 232.87,512.971C227.624,511.796 221.623,506.628 216.852,504.921C212.224,503.265 207.631,502.763 202.825,500.72C180.401,491.189 170.566,474.497 158.17,455.308C152.305,452.546 147.625,451.518 142.073,447.181C132.737,439.888 129.916,434.491 128.253,423.001C116.663,410.528 107.171,397.382 101.509,381.174C93.16,357.073 92.703,328.214 103.818,304.99C125.126,260.157 176.992,243.243 222.582,236.164C239.931,233.47 252.416,231.965 269.061,225.861C293.314,216.967 324.797,215.695 348.553,227.129C352.159,216.15 354.062,209.556 348.338,198.642C337.675,178.312 360.647,173.118 369.991,163.567C369.182,156.249 366.903,152.607 365.274,146.191C361.542,131.49 390.896,124.405 400.523,122.825C400.368,117.233 399.397,104.601 403.092,100.879C410.126,93.795 432.443,90.782 441.904,89.866C452.44,74.084 458.916,66.351 478.29,64.196Z"/>
        <path d="M273.53,392.678C263.672,389.444 253.438,387.495 243.081,386.878C242.115,374.685 240.326,368.66 231.39,360.026C232.591,350.517 232.635,340.931 230.17,331.605C235.961,330.042 243.487,328.764 249.365,327.717C270.301,323.984 303.701,332.735 320.704,345.296C301.997,351.089 287.223,364.976 278.184,382.127C276.395,385.534 274.84,389.06 273.53,392.678ZM339.909,360.114C362.576,380.319 377.215,410.479 381.454,440.361C363.29,432.742 343.643,426.247 325.201,419.136C318.467,416.539 310.146,416.816 302.974,413.653C300.931,410.597 299.469,408.171 297.657,404.968C300.063,400.46 301.829,395.626 304.593,390.758C313.157,375.674 324.346,367.117 339.909,360.114ZM288.815,440.847C297.737,436.211 299.757,431.311 302.004,421.945C313.877,428.492 320.904,429.048 333.657,433.002C342.252,435.668 351.102,439.256 359.86,441.961C364.993,443.547 375.396,446.7 379.609,449.273C355.629,470.376 330.874,486.596 297.577,486.135C292.505,467.118 290.517,461.367 288.815,440.847Z" style="fill:rgb(49,28,28);"  data-color="color-4"/>
        <path d="M300.265,570.392C305.296,573.092 309.705,576.387 315.217,579.152C333.222,588.183 355.379,595.201 375.229,598.267C363.72,604.956 355.024,612.59 349.551,625.002C358.755,623.035 378.024,612.096 387.737,607.488C413.038,595.276 440.142,587.222 468.007,583.637C496.611,579.788 549.292,576.718 573.025,595.389C588.667,607.694 592.961,622.732 595.242,641.349C571.956,635.597 554.883,650.872 541.064,667.809C528.532,683.956 525.517,697.251 527.135,716.944C526.059,716.406 524.992,715.85 523.934,715.278C488.68,696.102 516.693,644.987 508.746,641.368C498.447,644.889 490.911,666.626 489.94,676.874C487.737,678.659 484.205,681.096 481.582,682.24C436.969,701.692 379.87,714.012 335.553,687.554C310.472,672.581 291.84,644.773 291.505,615.437C291.344,601.326 292.688,582.661 300.265,570.392ZM303.387,683.791C337.156,719.34 377.876,723.18 423.794,718.61C418.359,725.112 413.362,731.847 407.709,738.348C389.751,758.997 368.309,780.393 345.81,796.008C322.552,810.515 290.33,816.009 279.982,782.818C276.35,771.167 277.27,753.78 283.108,742.873C289.058,754.847 298.182,765.178 311.734,768.256C313.031,768.55 313.54,768.492 314.532,767.728C314.469,766.306 309.497,759.387 308.305,757.785C292.59,736.664 295.311,707.884 303.387,683.791ZM626.621,713.826C629.122,714.718 636.939,727.535 638.747,730.377C632.299,738.377 626.296,745.902 621.658,755.215C619.467,759.615 617.751,766.712 615.27,770.556C613.762,770.729 613.694,770.246 612.04,769.189C607.019,766.298 601.773,763.43 597.061,760.082C602.53,740.089 611.01,727.15 626.621,713.826ZM203.966,765.976C206.181,765.913 208.995,765.774 210.758,767.216C211.213,770.831 209.477,775.46 209.585,779.409C210.135,799.574 214.442,807.649 227.355,821.212C224.378,824.981 223.867,825.648 219.271,827.455C199.4,822.311 183.22,777.301 203.966,765.976Z" style="fill:white;"  data-color="color-3"/>
        <path d="M103.213,483.579L103.387,483.6L103.675,484.02C91.571,507.002 92.717,531.324 98.737,555.603C99.365,558.135 100.642,562.141 99.928,564.595L98.876,565.077C93.232,564.187 84.833,551.713 81.23,547.249C83.119,557.605 84.018,567.704 94.433,573.056C99.834,575.831 104.502,576.128 110.153,577.652C118.448,588.987 122.493,593.044 133.334,601.774C127.247,604.53 119.646,606.808 113.199,608.927C124.655,613.551 139.73,612.709 151.581,609.922C155.358,611.096 160.421,613.809 164.344,615.298C169.578,617.284 174.411,618.681 179.768,620.291C172.702,627.133 164.779,629.8 156.648,634.756C157.847,634.849 159.048,634.912 160.249,634.945C175.721,635.351 188.058,632.84 199.325,622.088C208.234,621.964 220.151,621.406 228.492,618.754C225.112,624.835 219.279,631.603 215.071,637.745C230.681,633.495 239.996,626.472 248.492,612.648C257.63,608.813 264.898,606.942 274.074,602.194C272.505,621.972 275.9,639.265 283.535,657.435C256.049,678.427 216.482,686.818 182.381,682.317C167.264,680.465 152.405,676.911 138.086,671.721C132.108,669.496 125.874,666.239 119.882,664.425L119.18,664.218C129.869,676.931 157.349,690.15 173.012,694.543C198.557,701.707 226.398,705.731 252.941,703.615C261.883,702.902 272.746,700.328 281.554,698.151C279.117,699.743 276.59,701.192 273.986,702.491C245.803,716.211 183.22,712.636 154.059,702.117C88.529,678.478 45.989,614.393 61.557,544.208C66.635,521.316 81.189,494.017 103.213,483.579ZM585.285,655.125C587.414,654.988 589.989,655.099 592.16,655.127C595.927,658.229 601.12,665.148 604.276,669.112C610.089,676.414 615.443,683.072 621.707,689.988C599.364,704.852 590.723,713.43 579.459,738.715L578.775,739.235C573.733,737.528 561.672,730.945 557.132,727.969C525.683,707.355 556.747,659.894 585.285,655.125ZM261.729,742.103L266.872,741.975C258.785,764.636 259.461,786.585 272.85,806.98C264.022,810.061 259.117,810.529 249.797,810.427C231.679,797.115 225.925,765.218 245.34,750.646C251.099,746.323 254.265,743.426 261.729,742.103ZM208.767,396.185C218.438,395.063 230.792,398.068 240.929,400.3C254.487,403.286 276.025,403.107 285.81,414.276C289.68,418.693 283.095,426.073 278.857,428.098C267.67,433.445 254.564,432.255 242.971,428.784C242.776,444.149 245.103,447.352 251.725,460.652C262.086,481.463 274.091,490.912 293.882,501.935C290.404,502.926 286.833,503.558 283.226,503.82C269.72,504.746 257.4,497.935 247.451,489.379C239.015,482.747 226.785,469.681 220.941,460.724C218.283,475.36 225.522,486.895 235.06,497.408C220.36,492.671 210.359,484.797 203.899,470.311L203.026,470.636C201.419,474.299 203.482,481.513 204.627,485.218C189.385,475.615 171.597,456.418 169.208,438.097C165.887,412.616 186.093,398.835 208.767,396.185ZM545.237,81.144C568.026,79.347 595.725,109.927 605.037,110.485L605.64,109.738C605.404,101.753 593.03,89.531 587.521,84.169C609.046,77.766 619.039,93.422 625.652,111.627C627.092,115.591 627.409,120.406 627.584,124.608C626.224,125.005 624.883,125.469 623.568,125.997C612.187,130.578 604.309,136.214 599.403,147.644C617.35,146.25 625.453,134.857 645.722,141.485C636.373,150.091 626.595,158.688 621.793,170.702C632.692,165.092 650.147,152.133 661.825,150.882C664.074,150.641 674.599,153.638 678.152,154.335C670.727,161.691 664.581,168.852 662.331,179.454C665.573,177.823 670.934,173.961 674.145,171.716C681.959,166.253 686.916,163.591 695.75,160.406C695.984,162.568 696.281,165.232 697.317,167.149C699.177,170.593 704.34,177.787 708.687,177.879C711.479,176.35 710.735,173.64 710.639,170.239C710.241,156.037 732.096,149.127 743.169,153.898C749.095,156.451 762.749,179.268 770.377,177.554C774.282,172.955 766.542,159.825 763.989,155.274C766.704,152.132 769.22,150.891 773.448,150.808C790.214,150.481 793.389,166.349 798.799,178.034C801.603,184.09 810.034,187.746 809.217,197.62C808.837,202.222 807.878,205.77 804.188,209.252C787.053,223.027 750.575,215.667 730.581,217.971C709.856,220.309 693.471,228.86 671.923,224.736C657.622,221.998 646.317,218.073 632.887,212.425C627.944,210.845 620.402,207.564 615.215,207.661C594.852,208.262 576.685,214.015 556.051,209.738C527.443,203.807 503.169,182.349 473.736,181.106C453.951,180.271 431.121,194.178 430.248,215.418C430.076,219.62 430.89,224.203 433.945,227.297C434.585,227.486 435.537,228.031 435.896,227.103C440.859,214.264 450.173,207.077 462.953,202.069C462.911,205.475 462.744,212.978 463.477,216.014C469.52,241.032 510.197,247.965 529.801,257.084C541.593,262.568 553.074,270.988 563.47,278.25C578.04,288.898 590.143,300.341 606.707,307.239C617.779,312.894 631.389,312.009 642.542,315.279C674.964,324.784 696.088,335.396 729.834,320.8C721.146,339.303 688.486,349.567 669.738,344.688C652.321,340.155 638.852,335.4 620.766,333.662C587.503,330.842 560.493,308.155 530.001,298.592C491.135,286.403 437.786,288.642 410.018,253.303C390.86,228.921 392.489,189.37 411.463,165.354C413.097,163.285 417.935,156.777 416.025,154.356C413.211,154.425 409.98,157.568 407.865,159.318C373.917,187.403 370.096,230.36 397.289,264.619C400.661,268.868 404.44,272.382 407.728,276.38L408.096,276.833C385.017,261.255 365.633,240.287 370.273,210.419C376.966,167.347 403.201,133.161 438.971,109.363C438.858,113.599 438.005,122.18 440.63,125.109C441.63,125.262 442.442,125.306 443.169,124.34C452.574,111.835 454.324,95.063 468.51,86.046C474.42,82.218 481.533,80.704 488.489,81.795C499.507,83.578 517.086,95.185 527.386,101.144C533.82,104.88 540.377,108.4 547.046,111.699C551.467,113.935 562.634,119.986 567.382,118.627C568.998,117.257 568.493,118.067 569.157,116.247C567.298,108.354 540.453,91.782 533.857,85.219C538.56,82.477 539.824,81.875 545.237,81.144ZM730.56,165.487C716.577,177.005 735.185,191.128 748.666,190.424C762.975,187.199 743.458,165.197 730.56,165.487ZM488.102,104.659C480.118,105.825 474.016,109.35 468.921,115.555C467.426,117.376 465.022,122.014 465.654,124.331C469.771,125.131 474.213,117.503 486.777,122.513C482.29,133.415 480.396,141.142 485.117,152.636C489.119,162.259 496.848,169.85 506.541,173.679C523.55,180.534 545.608,175.762 555.178,159.275C557.202,158.748 560.04,159.534 562.121,159.676C569.929,160.206 578.098,158.312 583.176,151.927C587.57,147.115 589.809,132.925 584.179,128.824C583.206,128.105 581.941,127.911 580.797,128.305C572.395,131.19 576.128,156.22 544.823,129.076C532.326,118.239 505.337,102.471 488.102,104.659ZM954.812,240.171C956.379,240.014 960.669,239.526 961.984,240.359C970.639,245.839 954.53,257.087 950.647,259.867C936.998,269.55 921.086,275.434 908.813,287.153C896.726,298.694 890.927,311.533 884.118,326.263C882.711,329.307 877.324,332.297 874.898,334.993C869.414,341.09 866.73,349.304 863.325,356.723C871.476,354.432 908.256,328.356 911.963,341.858C915.424,354.465 892.093,371.991 886.771,382.322C881.49,394.329 867.932,404.187 855.279,407.119C838.868,402.378 831.32,382.207 835.791,366.431C837.745,359.721 842.612,353.621 845.247,347.327C866.427,296.733 895.076,248.547 954.812,240.171ZM977.911,268.19C980.936,267.954 985.015,266.976 986.44,270.114C985.712,275.626 944.235,299.314 937.598,305.405C930.021,312.358 925.117,318.098 918.466,325.874L913.155,323.951C909.343,323.096 905.834,322.824 901.951,322.884C905.037,316.869 910.205,306.6 914.262,301.71C926.572,286.87 946.454,276.359 964.901,271.376C969.48,270.139 973.135,268.743 977.911,268.19ZM926.887,349.845C927.278,350.231 927.515,350.331 927.587,350.931C929.574,367.589 919.923,385.425 908.134,396.641C904.046,400.531 899.593,402.685 894.258,404.526L893.777,404.399C893.336,403.367 895.051,400.62 895.681,399.043C897.582,394.279 898.503,390.163 899.524,385.195C911.837,375.53 921.852,365.224 926.887,349.845ZM460.474,306.625C471.516,305.662 506.337,308.964 514.678,316.016C501.975,318.215 472.117,313.293 460.474,306.625Z" style="fill:rgb(70,99,44);" data-color="color-1"/>
        <path d="M118.49,445.272C115.981,441.005 114.405,436.269 113.25,430.281C101.645,417.209 92.27,403.243 86.404,386.451C86.4,386.438 86.395,386.424 86.39,386.411C76.712,358.473 76.498,325.032 89.375,298.106C112.996,248.427 169.603,228.199 220.127,220.353C236.327,217.838 248.009,216.539 263.552,210.839C284.707,203.081 310.613,200.568 333.858,205.473C329.204,196.307 328.859,188.707 330.312,182.357C331.841,175.678 335.613,169.994 340.943,165.184C344.203,162.242 348.385,159.82 352.164,157.339C351.36,155.079 350.471,152.906 349.766,150.128C347.106,139.652 350.566,130.47 358.666,123.114C364.992,117.371 375.416,113.072 384.432,110.313C384.536,107.882 384.748,105.476 385.137,103.34C386.238,97.29 388.809,92.556 391.738,89.606C395.208,86.111 400.725,82.837 407.47,80.459C415.318,77.693 425.15,75.891 432.814,74.834C444.398,58.525 453.949,50.805 476.521,48.294C476.553,48.29 476.585,48.287 476.617,48.283C489.425,46.937 506.013,51.545 519.134,57.517C529.313,51.172 538.016,48.292 552.498,48.996C561.758,49.446 568.011,50.941 575.162,53.83C598.541,41.612 625.062,50.306 641.261,71.517C650.335,83.399 657.927,100.337 659.786,116.393C663.775,118.143 667.546,119.895 671.343,120.912C683.258,124.106 697.378,126.423 710.013,128.622C723.956,123.64 733.962,121.604 748.135,125.477C766.095,119.386 781.429,117.941 794.352,123.57C804.45,127.968 813.821,136.602 821.47,152.537L821.472,152.54C823.096,155.925 824.132,159.763 825.804,163.115C827.286,165.666 829.354,167.931 830.933,170.406C838.287,181.93 841.034,194.17 839.319,205.395C837.759,215.601 832.637,225.287 822.984,233.087C816.123,251.768 802.51,266.201 783.562,274.345C777.658,276.883 768.124,278.119 762.079,275.434C759.364,274.228 757.039,272.29 755.363,269.837C754.327,268.32 752.818,265.208 752.038,260.759C748.408,265.504 744.324,269.826 739.906,273.044C742.951,278.574 745.275,286.422 746.761,292.382C755.303,299.232 758.853,307.091 759.735,314.763C760.642,322.654 758.132,331.234 753.15,339.48C756.485,338.869 759.646,338.158 762.49,337.453C768.526,335.958 776.016,333.162 783.18,331.659C786.989,330.859 790.74,330.408 794.312,330.376C803.518,323.299 813.824,318.288 825.09,316.993C829.442,306.513 835.635,295.463 840.554,287.029C857.793,257.461 882.39,233.252 914.112,219.497C914.123,219.492 914.134,219.487 914.146,219.482C931.499,212.005 955.398,205.015 974.221,212.083C982.061,215.026 986.966,219.471 990.113,224.33C992.931,228.683 994.303,233.745 994.498,239.11C999.583,240.298 1004.39,242.118 1008.03,244.628C1014.97,249.417 1019.01,256.128 1019.3,264.467L1019.3,264.485C1019.63,274.368 1015.25,284.053 1007.15,292.697C995.343,305.297 974.023,315.9 964.735,323.626C959.312,328.138 955.84,330.844 952.699,334.039C962.985,353.726 957.722,375.819 946.785,396.263C932.955,422.116 914.847,431.149 889.407,438.853C877.425,457.741 852.809,467.21 830.906,465.951C816.429,475.664 803.651,481.946 786.115,487.252C736.083,502.393 674.736,497.597 626.039,476.263C616.801,490.802 608.569,502.839 595.572,517.546C589.502,524.415 581.287,532.495 575.033,539.382C575.259,547.146 575.259,552.954 573.988,558.849C586.579,563.914 596.695,570.812 607.095,583.28C623.327,602.738 629.67,624.875 628.733,649.325C633.019,655.113 638.299,662.133 643.116,667.498C649.084,667.434 653.595,668.635 657.285,670.451C661.775,672.662 665.417,676.177 668.833,681.375C671.859,679.398 674.785,678.101 677.739,677.33C681.853,676.255 686.276,676.026 691.478,677.107C694.512,674.864 697.64,673.223 700.89,672.126C704.326,670.967 707.967,670.346 711.91,670.43C714.688,667.189 717.437,664.949 720.402,663.275C723.921,661.287 727.937,659.979 733.274,659.377C734.406,657.761 735.513,656.135 736.513,654.406C738.501,650.521 739.658,646.406 741.724,642.533C763.145,602.378 819.254,587.444 854.431,619.878L854.433,619.88C855.097,620.493 858.477,623.969 860.177,625.721C878.026,634.77 886.307,650.247 884.251,668.739C891.082,677.514 893.058,687.241 891.473,695.509C889.885,703.791 884.77,711.835 875.113,716.835C876.268,720.051 876.924,723.473 876.899,727.17L876.899,727.181C876.841,734.944 873.664,742.354 868.084,747.747C862.282,753.411 856.244,755.736 849.469,756.587C849.331,756.758 849.193,756.93 849.055,757.1C849.91,762.157 849.755,767.221 847.709,772.736C844.912,780.348 838.992,786.399 831.442,789.361C825.171,791.844 819.284,792.122 813.482,790.915C803.81,797.621 793.168,803.612 783.766,810.374C781.477,812.02 779.376,813.747 777.353,815.539C779.98,826.606 776.107,837.807 768.159,844.699C763.4,848.826 757.032,851.718 749.357,851.807C749.155,852.002 748.952,852.197 748.748,852.39C749.404,859.316 748.276,866.059 744.644,871.607C741.816,875.926 737.514,879.899 730.719,882.615C725.624,884.653 720.169,884.882 714.892,883.879C712.053,888.825 708.34,893.023 702.695,896.244L702.679,896.253C695.621,900.27 687.228,901.228 679.445,898.906C679.423,898.9 679.402,898.893 679.381,898.887C673.706,897.168 669.438,894.203 666.042,890.254C658.581,889.004 652.392,886.484 647.219,882.765C641.015,878.305 636.021,872.036 632.508,863.153C629.882,861.148 626.618,858.842 624.518,857.173C624.378,857.062 624.241,856.949 624.105,856.834C603.953,839.697 593.732,822.771 594.212,797.872C590.943,795.763 587.58,794.771 583.082,792.546C569.77,785.962 564.971,777.835 560.794,766.122C556.667,764.015 551.326,761.814 548.065,760.027L548.062,760.025C542.104,756.759 538.003,753.977 533.228,750.409C517.398,749.763 506.005,745.976 497.224,739.236C490.931,734.406 485.783,727.889 481.587,719.111C475.306,721.293 468.936,723.231 462.565,725.156C436.917,761.192 380.873,819.507 342.936,834.704C322.476,842.899 306.112,843.149 286.788,836.072C278.681,838.818 272.12,840.024 263.448,840.847C253.436,848.369 243.9,853.292 231.316,853.906C229.738,855.548 228.105,856.989 226.278,858.405C224.891,865.596 221.762,870.327 216.63,874.962C216.739,876.042 216.8,877.107 216.811,878.174C226.846,884.729 233.2,894.937 234.373,908.738C235.351,920.229 231.924,928.568 225.622,936.807C223.016,952.264 212.746,960.807 198.715,965.014C192.803,974.742 183.539,979.563 175.003,980.036C167.04,980.478 158.619,977.637 152.614,969.925C152.438,969.912 152.263,969.898 152.088,969.884C148.744,972.495 145.014,974.282 139.881,975.269C132.53,976.686 124.92,975.036 118.816,970.708C115.065,968.073 112.415,965.11 110.463,961.823C97.3,962.558 87.952,956.232 83.072,947.808C80.819,943.919 79.453,939.375 79.285,934.53C76.196,932.925 73.626,930.786 71.515,928.366C64.623,920.467 62.431,907.343 67.123,894.732C67.821,892.855 68.559,891.307 69.412,889.888C64.047,880.918 63.26,870.341 66.725,861.503C69.198,855.194 73.766,849.481 80.784,845.731C88.914,831.054 94.897,826.615 97.436,808.995C95.312,806.056 93.664,802.886 92.268,798.927C92.217,798.783 92.168,798.638 92.122,798.492C89.018,788.816 89.451,781.362 93.341,772.403L93.342,772.402C94.573,769.567 96.719,767.11 99.112,765.063C98.877,764.373 98.684,763.725 98.556,763.154C97.496,758.453 97.812,753.873 99.597,749.603C105.512,735.454 116.44,732.324 129.214,729.201C129.369,729.111 129.533,729.017 129.703,728.919C125.815,727.211 121.963,725.363 118.152,723.371C76.895,702.181 45.763,665.447 31.624,621.272C31.611,621.232 31.599,621.192 31.586,621.152C19.214,581.422 22.09,538.617 41.305,501.421C53.736,477.357 75.762,455.259 102.245,447.962C106.202,446.871 113.005,445.193 118.49,445.272ZM141.756,465.544C142.166,469.168 141.687,472.95 140.151,476.589C130.918,498.481 127.85,514.534 130.395,535.444C136.298,536.906 141.746,540.818 146.067,547.361C148.918,551.679 151.41,557.66 154.06,563.595C156.016,562.832 158.068,562.359 160.215,562.2C165.789,561.789 173.906,562.98 182.792,574.108C183.874,575.463 185.059,576.869 186.326,578.268C189.872,573.477 194.158,570.885 199.589,569.926C204.341,569.086 212.356,570.199 226.037,577.38C226.28,577.508 226.596,577.653 226.966,577.812C229.444,570.545 234.424,566.619 240.2,563.944C243.343,562.489 247.036,561.57 251.002,560.899C253.256,560.518 255.766,560.471 257.933,559.414C264.113,556.398 268.197,552.717 273.027,548.525C274.474,543.575 275.748,539.363 277.055,535.371C267.524,534.814 258.307,532.3 247.496,528.553C241.527,529.418 234.393,529.709 229.373,528.584C225.863,527.798 222.074,526.122 218.372,523.997C215.921,522.589 213.576,520.742 211.462,519.986C206.54,518.225 201.677,517.618 196.566,515.445C172.418,505.181 160.448,488.225 147.307,467.973C145.392,467.149 143.565,466.386 141.756,465.544ZM478.29,64.196C458.916,66.351 452.44,74.084 441.904,89.866C432.443,90.782 410.126,93.795 403.092,100.879C399.397,104.601 400.368,117.233 400.523,122.825C390.896,124.405 361.542,131.49 365.274,146.191C366.903,152.607 369.182,156.249 369.991,163.567C360.647,173.118 337.675,178.312 348.338,198.642C354.062,209.556 352.159,216.15 348.553,227.129C324.797,215.695 293.314,216.967 269.061,225.861C252.416,231.965 239.931,233.47 222.582,236.164C176.992,243.243 125.126,260.157 103.818,304.99C92.703,328.214 93.16,357.073 101.509,381.174C107.171,397.382 116.663,410.528 128.253,423.001C129.916,434.491 132.737,439.888 142.073,447.181C147.625,451.518 152.305,452.546 158.17,455.308C170.566,474.497 180.401,491.189 202.825,500.72C207.631,502.763 212.224,503.265 216.852,504.921C221.623,506.628 227.624,511.796 232.87,512.971C237.383,513.982 244.341,513.074 248.837,512.058C268.359,519.076 281.245,522.435 301.855,515.797C294.527,532.465 292.047,540.306 287.053,557.598C279.232,564.044 273.918,569.417 264.95,573.793C255.064,578.617 241.636,574.046 241.303,588.476C241.255,590.572 240.788,595.329 240.114,597.046C235.296,599.094 223.143,593.931 218.601,591.547C197.121,580.273 200.26,585.417 192.536,603.588C184.25,599.372 176.038,591.292 170.289,584.092C158.654,569.522 155.669,586.369 149.623,585.822C136.263,575.586 135.516,539.91 117.374,554.051C110.317,521.174 112.596,500.749 125.409,470.371C126.693,467.328 125.299,463.986 122.651,462.339C118.926,459.89 110.612,462.252 106.496,463.387C84.201,469.53 65.986,488.505 55.521,508.764C38.249,542.199 35.742,580.682 46.862,616.395C59.711,656.54 88.01,689.919 125.511,709.164C171.905,733.428 224.907,734.453 274.778,721.222C276.407,720.79 276.995,720.114 278.765,720.306C279.013,722.361 279.011,723.155 278.955,725.239C255.834,728.776 244.918,731.112 229.359,749.637C225.351,748.737 219.814,747.652 215.654,749.115C213.42,749.9 210.031,753.281 207.772,753.407C202.429,751.422 200.505,747.085 196.338,744.237C181.334,733.979 162.903,732.132 146.392,739.815C144.348,740.766 141.118,741.024 138.967,741.93C138.027,742.251 136.038,744.004 134.851,744.296C126.396,746.352 118.212,746.558 114.359,755.774C111.941,761.558 121.289,769.483 117.737,772.415C116.396,773.522 110.246,773.646 108.017,778.777C105.806,783.868 105.593,788.106 107.357,793.605C108.873,797.903 110.93,800.682 114.105,803.827C111.723,832.349 104.005,834.657 92.263,858.278C78.445,862.207 77.208,877.631 87.009,886.297L87.017,893.529C84.671,895.999 83.211,897.377 82.119,900.312C78.062,911.215 81.632,923.101 95.227,921.377C95.544,921.337 97.548,924.503 97.866,925.036C91.453,935.519 97.568,946.975 110.407,945.786C114.661,945.392 115.433,941.226 120.27,943.901C120.593,944.08 120.914,944.262 121.233,944.447C122.283,949.67 123.262,954.294 128.047,957.639C130.596,959.457 133.78,960.151 136.855,959.558C141.22,958.719 143.448,956.465 146.217,953.362C151.599,953.822 156.986,954.22 162.377,954.554C167.052,968.122 181.005,966.497 186.397,954.075C186.811,953.126 187.203,952.168 187.571,951.201C199.727,949.103 209.64,943.939 210.233,930.359C215.57,924.212 219.156,918.612 218.431,910.094C217.423,898.238 210.061,890.821 199.209,887.597C201.346,880.232 201.123,875.845 198.893,868.552C206.706,862.943 210.886,859.728 211.108,849.512C216.768,845.799 219.915,843.395 223.839,837.72C238.189,839.17 247.035,833.587 257.373,825.304C269.051,824.418 275.954,823.281 287.021,818.948C304.744,826.547 318.864,827.11 336.987,819.851C374.428,804.853 430.106,744.89 452.593,711.457C465.534,707.523 478.593,703.865 490.922,698.227C498.508,725.243 510.179,734.628 538.744,734.508C544.863,739.203 548.939,742.26 555.753,745.995C560.699,748.705 569.904,752.441 574.07,755.419C577.413,765.738 579.515,772.932 590.175,778.204C598.901,782.52 604.048,783.853 610.673,791.03C608.152,814.706 616.638,829.481 634.47,844.645C637.695,847.207 643.446,851.209 646.118,853.619C650.701,868.658 659.703,874.494 675.134,875.114C677.141,879.039 679.572,882.227 684.019,883.574C687.619,884.648 691.501,884.205 694.766,882.347C699.896,879.42 701.895,874.8 703.902,869.644C706.319,868.4 708.955,867.102 711.312,865.79C715.434,867.965 720.34,869.534 724.779,867.759C735.157,863.61 733.939,854.483 731.108,846.37C735.735,843.088 739.582,839.025 743.555,834.977C758.483,839.288 766.646,824.931 759.53,814.111C759.02,813.344 758.489,812.592 757.937,811.855C763.342,806.661 768.303,801.786 774.424,797.384C785.992,789.065 799.491,781.967 810.62,773.158C815.516,775.36 820.278,776.58 825.574,774.476C828.884,773.185 831.479,770.534 832.698,767.197C834.563,762.195 833.079,757.886 831.503,753.169C834.901,749.218 838.18,745.167 841.336,741.02C847.241,741.025 852.318,740.795 856.938,736.268C859.445,733.858 860.873,730.539 860.899,727.061C860.932,722.195 858.442,718.347 855.587,714.677C857.156,711.546 858.645,708.376 860.054,705.169C878.74,701.605 880.942,685.383 866.973,673.832C871.303,658.603 865.724,645.678 850.997,639.064C850.33,638.765 844.667,632.639 843.585,631.641C816.151,606.346 772.547,618.747 755.841,650.064C753.751,653.982 752.609,658.154 750.56,662.074C748.022,666.538 744.641,670.409 742.072,675.003C729.224,674.804 725.756,676.763 719.154,687.947C708.921,684.381 702.219,687.309 695.478,695.271C683.88,690.027 678.942,691.986 670.301,701.175C666.868,700.525 663.922,700.039 660.459,699.587C654.762,687.071 652.244,681.439 637.068,684.139C629.363,677.184 618.755,662.707 612.404,654.154C614.348,631.589 609.557,611.208 594.809,593.529C582.524,578.801 570.549,573.634 552.721,568.684C560.435,555.256 559.317,549.015 558.844,533.605L559.438,532.894C565.881,525.256 576.268,515.228 583.583,506.951C599.351,489.108 607.767,475.324 620.106,455.648C667.027,480.509 730.554,487.35 781.481,471.938C799.226,466.568 811.591,460.065 826.718,449.411C845.981,452.632 870.561,444.69 878.419,425.398C902.749,418.482 920.075,412.272 932.677,388.716C942.534,370.29 947.985,350.056 932.757,333.325C939.7,323.275 943.708,320.306 954.503,311.326C967.274,300.702 1003.98,284.838 1003.31,265.026C1002.95,254.737 985.013,252.419 975.511,253.591C979.851,243.366 981.684,231.975 968.597,227.062C953.47,221.382 934.423,228.167 920.477,234.176C891.922,246.558 869.894,268.472 854.376,295.088C848.134,305.792 839.408,321.067 836.437,333.111C822.18,330.834 809.882,337.544 799.491,346.87C789.827,344.541 776.128,350.559 766.337,352.984C751.335,356.701 728.534,360.394 714.363,352.731C720.849,349.429 727.231,345.866 732.272,340.524C744.283,327.798 750.905,312.881 732.546,301.979C731.271,295.873 727.256,276.105 719.979,275.581C716.836,276.655 711.885,285.654 708.039,289.764L707.482,290.37C707.368,290.489 707.255,290.609 707.141,290.728C698.676,287.834 686.785,286.013 679.29,283.046C677.62,280.078 675.824,276.942 674.165,273.986C668.652,264.159 664.732,260.704 662.13,274.227C646.096,266.588 615.454,243.267 618.698,222.545C629.719,226.234 640.117,230.245 650.894,234.564C657.971,237.399 666.584,239.144 674.089,240.715C676.945,247.401 684.837,263.773 689.055,268.746C696.13,277.086 709.9,249.471 714.699,243.711C717.528,248.604 723.13,258.518 726.963,262.159C737.909,257.64 745.966,242.179 750.475,231.908C755.927,232.221 761.538,232.629 766.986,232.647C767.011,236.86 766.667,258.019 768.575,260.812C771.033,261.904 774.843,260.677 777.244,259.645C793.437,252.685 804.645,239.844 809.387,223.196C826.179,212.358 827.55,194.847 817.445,179.013C815.652,176.203 813.338,173.602 811.701,170.683C809.889,167.152 808.775,163.065 807.046,159.461C793.292,130.807 774.431,132.556 748.478,142.35C733.933,137.206 725.455,139.902 711.48,145.124C697.404,142.618 680.894,140.037 667.201,136.367C659.959,134.426 652.837,129.712 644.018,127.636C645.688,112.11 637.864,93.43 628.545,81.228C615.818,64.564 594.11,58.176 576.514,71.943C567.453,67.648 561.836,65.469 551.721,64.977C537.896,64.305 531.127,68.329 520.249,76.059C509.127,69.56 491.36,62.822 478.29,64.196ZM320.704,345.296C327.568,349.605 334,354.568 339.909,360.114C324.346,367.117 313.157,375.674 304.593,390.758C301.829,395.626 300.063,400.46 297.657,404.968C291.448,397.842 282.467,394.903 273.53,392.678C274.84,389.06 276.395,385.534 278.184,382.127C287.223,364.976 301.997,351.089 320.704,345.296ZM297.577,486.135C297.04,485.951 296.032,485.612 295.543,485.331C279.107,475.884 269.939,464.363 263.989,447.077C275.967,446.103 277.764,445.3 288.815,440.847C290.517,461.367 292.505,467.118 297.577,486.135ZM843.636,687.936C842.992,695.498 837.917,701.615 829.909,698.612C827.054,697.558 824.762,695.37 823.576,692.567C820.651,685.47 828.457,677.87 834.4,675.583C840.036,679.006 843.111,680.932 843.636,687.936ZM811.666,728.438C808.662,738.093 799.528,739.346 793.984,731.809C790.327,726.837 799.894,716.253 804.06,714.489C810.724,719.227 811.584,720.311 811.666,728.438ZM723.82,828.079C722.756,830.676 722.337,832.011 720.228,834.093C715.436,838.825 706.201,836.574 706.935,829.042C707.319,825.101 712.11,819.846 715.33,817.513C719.386,816.808 723.224,822.411 723.647,826.001C723.728,826.692 723.784,827.385 723.82,828.079ZM698.453,856.348C697.995,857.642 697.432,858.896 696.445,859.87C695.03,861.292 693.084,862.054 691.08,861.972C689.275,861.908 687.275,861.12 686.101,859.72C682.362,855.262 688.12,850.177 691.417,847.659C696.116,850.094 697.736,850.972 698.453,856.348ZM834.179,648.68C844.944,648.009 852.333,652.79 856.423,662.643C855.653,662.106 854.876,661.578 854.094,661.057C840.356,651.951 824.644,659.886 813.69,669.486C794.471,686.33 781.05,709.486 768.492,731.452C761.689,743.349 754.911,755.678 745.847,766.065C735.071,778.112 720.769,788.832 708.475,799.49C694.194,812.079 681.721,826.579 671.408,842.581C668.682,847.144 666.42,850.922 665.348,856.17L664.752,859.063C662.618,859.329 660.726,856.027 660.506,854.13C659.827,848.253 663.152,841.282 665.932,836.314C677.577,815.501 694.763,798.888 713.336,784.27C723.968,775.802 735.516,765.88 743.733,755.104C754.143,741.452 761.246,726.258 769.63,711.382C775.491,701.077 782.018,691.166 789.172,681.712C800.412,666.881 814.987,651.315 834.179,648.68ZM705.392,699.739C706.666,699.937 706.243,699.763 707.317,700.543C707.144,702.902 704.534,707.947 704.062,710.384C703.096,715.37 702.924,721.111 702.698,726.211C699.959,727.546 699.033,728.153 695.941,728.672C687.19,720.463 697.756,705.286 705.392,699.739ZM680.871,705.959L682.997,706.123L683.484,706.781C683.173,708.175 681.99,709.909 681.164,711.218C677.3,717.345 676.365,724.598 673.883,731.18C673.278,732.784 670.488,733.188 668.837,733.498C661.684,730.296 667.895,719.666 670.692,715.108C673.172,711.067 676.826,708.285 680.871,705.959ZM730.46,690.822L731.459,691.059C732.101,693.29 728.053,710.268 726.388,713.153C724.644,716.175 724.132,716.311 720.928,717.331C713.285,709.568 722.95,695.571 730.46,690.822ZM504.98,126.245C508.247,127.125 523.817,135.123 527.116,136.962C526.028,138.466 524.97,139.991 523.943,141.537C518.591,149.666 518.944,154.798 520.836,163.821L520.594,164.696C520.422,164.72 520.25,164.743 520.078,164.767C509.234,163.145 499.368,153.806 498.949,142.786C498.635,134.549 500.776,131.307 504.98,126.245ZM667.743,285.324C669.867,287.532 669.012,303.152 668.942,306.757C665.342,306.126 662.197,305.45 658.634,304.621C657.795,304.424 657.428,304.159 656.637,303.77L656.349,302.761C657.458,297.886 664.412,289.591 667.743,285.324ZM692.985,238.709C695.019,238.462 699.277,238.395 701.473,238.299C699.483,244.803 697.681,248.252 693.957,253.854L693.402,253.989C690.882,252.499 687.05,242.035 685.952,239.068C688.291,239.014 690.648,238.848 692.985,238.709ZM732.97,231.73C734.293,231.494 733.824,231.53 735.18,231.728C736.722,234.503 732.267,245.377 729.249,246.534L728.146,245.306C725.677,240.795 723.898,237.297 721.72,232.625C725.446,232.283 729.235,232.022 732.97,231.73ZM790.497,229.17C791.492,228.996 791.414,229.087 792.458,229.205L792.646,230.211C790.804,235.316 785.053,240.57 781.059,244.151L780.281,244.47C778.818,242.76 778.981,234.031 778.928,231.208L790.497,229.17ZM718.799,291.945C720.123,295.325 720.016,303.811 720.016,307.777C715.803,308.089 712.986,307.805 708.826,307.305C707.814,306.935 708.298,307.216 707.413,306.403C708.118,303.684 716.399,295.032 718.799,291.945ZM606.797,221.201C607.2,221.127 607.955,221.233 608.409,221.269C609.699,225.328 603.342,236.61 600.384,239.669L599.438,239.574C597.153,234.972 595.789,228.404 594.652,223.313C599,222.395 602.395,221.78 606.797,221.201ZM571.314,256.319C574.1,258.711 580.033,268.942 577.081,272.004L575.689,270.954C572.216,267.635 569.375,265.208 565.644,262.167C567.466,260.108 569.37,258.257 571.314,256.319ZM134.75,759.363C136.507,761.969 132.862,773.13 132.398,777.647C130.676,794.391 131.501,809.339 127.299,825.824C121.368,847.683 106.383,855.609 103.956,879.028C98.542,931.276 153.903,944.971 194.843,934.792C195.722,934.573 196.893,934.903 197.673,935.414L197.585,936.069C195.689,937.468 194.12,938.066 191.99,939.035C185.807,941.159 180.319,942.783 173.806,943.572C141.781,947.454 101.061,931.702 97.227,895.555C95.987,883.863 99.124,867.6 105.15,857.358C111.152,847.158 118.158,838.312 121.003,826.488C126.83,806.927 121.809,775.15 134.75,759.363ZM167.371,837.982C170.516,838.878 172.312,841.02 174.985,842.988C182.756,848.71 190.754,848.112 199.741,848.106C198.017,849.484 196.235,850.448 194.336,851.568C184.138,855.818 175.143,854.446 166.692,847.431C165.762,844.866 164.407,842.671 164.358,840.062C165.233,838.387 165.066,838.895 167.371,837.982ZM158.173,860.832C161.993,861.223 163.592,862.999 167.125,864.424C173.366,866.941 182.715,866.235 189.348,865.642C186.809,867.849 185.457,868.968 182.665,870.841C175.122,874.694 165.335,875.975 158.796,869.417C157.532,868.149 155.869,865.016 154.932,863.38L158.173,860.832ZM177.094,817.722C183.414,817.208 183.119,820.24 187.296,824.62C190.256,827.724 204.422,833.766 205.571,835.649L204.618,836.015C190.527,836.257 177.692,835.071 175.826,818.274L177.094,817.722ZM161.751,885.161L174.445,886.344C169.012,887.382 163.57,888.367 158.118,889.302C154.478,889.865 151.281,890.423 147.678,891.18C152.744,888.285 155.884,886.013 161.751,885.161Z" style="fill:white;"/>
        <path d="M487.941,219.816C499.02,221.548 507.234,226.183 517.665,229.088C520.272,229.814 529.333,228.951 532.508,228.614C561.472,225.541 593.837,242.186 605.757,269.188C607.628,272.65 608.54,281.604 611.596,283.957C619.581,290.102 631.84,294.326 640.995,298.693C636.249,299.628 634.586,299.593 629.875,299.445C609.942,298.172 603.068,292.018 587.075,280.437C584.737,264.991 586.048,258.76 575.225,245.951C567.722,249.402 563.731,250.887 557.628,256.358C550.086,251.512 537.92,245.487 529.531,242.168C512.319,235.356 499.258,235.913 487.941,219.816ZM368.243,268.123C367.045,265.15 366.116,260.157 365.394,256.862L369.818,263.443C385.449,282.258 399.442,294.492 420.931,306.579C418.948,310.617 416.134,315.963 414.612,320.073C397.562,308.957 382.001,296.401 372.339,277.949C371.19,275.757 368.774,270.471 368.243,268.123ZM298.37,236.195C306.161,235.396 314.023,235.601 321.762,236.804C329.203,237.992 340.589,241.328 346.124,246.978C350.02,250.954 351.976,266.829 354.689,273.256C357.866,280.785 360.943,288.607 366.269,295.432C379.869,312.863 399.64,326.937 418.198,338.614C424.042,341.601 430.631,343.856 436.593,346.433C473.003,362.169 513.339,368.169 552.083,358.112C561.737,355.606 577.05,345.755 585.283,339.749C594.619,343.066 602.638,345.639 612.474,347.518C620.328,349.018 629.708,349.651 637.315,351.269C657.383,355.539 673.569,362.162 694.733,359.506C722.843,382.573 761.057,371.519 792.369,362.446C786.922,374.202 783.345,388.35 784.97,401.288C787.242,419.379 794.577,429.425 808.224,440.405C757.598,474.376 681.416,466.913 629.474,439.416C638.927,419.014 645.338,402.021 637.568,379.415C636.683,376.837 636.132,375.029 633.717,373.851C633.07,374.698 633.105,374.443 632.911,375.37C625.405,411.145 609.321,442.334 588.161,472.027C579.093,484.917 569.369,497.333 559.029,509.226C553.976,515.065 546.441,523.96 540.598,528.704C524.053,542.138 502.399,546.684 482.085,550.076C478.036,550.319 471.725,551.483 467.249,551.977C459.46,552.838 453.008,553.091 445.073,553.12C403.636,552.874 356.049,544.271 324.297,515.886C322.489,514.269 317.118,506.952 319.421,503.631C319.948,502.871 328.049,500.98 329.742,500.493C352.947,493.822 374.022,480.189 391.29,463.485C395.998,458.906 400.201,454.728 399.826,447.993C399.476,441.72 398.624,435.475 397.401,429.314C391.3,399.417 376.296,372.064 354.361,350.851C324.369,321.467 290.256,310.762 248.927,311.15C240.772,297.702 229.679,287.233 213.37,285.574C215.905,289.144 220.079,293.416 222.945,297.035C227.662,302.989 229.69,306.98 232.817,313.683C229.818,314.538 228.023,315.267 225.153,316.446C217.369,302.478 208.668,293.334 191.381,292.082C183.667,291.523 176.727,291.99 170.677,297.356C202.093,303.32 215.682,320.209 215.037,352.554C180.365,338.346 140.307,360.613 128.41,394.678C120.061,384.136 114.848,367.972 113.219,354.666C110.538,332.757 114.55,313.857 128.822,296.414C150.335,270.121 185.056,259.566 217.202,253.192C228.98,250.857 241.057,250.192 253.33,247.458C268.735,244.027 282.948,237.861 298.37,236.195ZM455.223,369.866C452.854,380.106 451.264,390.617 448.696,400.738C452.923,401.646 457.034,402.292 461.292,402.979C456.098,426.796 451.32,451.718 446.479,475.69C441.574,474.933 436.655,474.217 431.787,473.261C429.447,483.561 427.671,493.855 425.498,504.156L497.037,515.193C505.462,516.451 526.933,519.034 534.626,520.951C536.025,514.115 537.288,507.037 538.758,500.265C540.675,489.882 542.712,479.521 544.868,469.184C537.651,468.1 527.16,466.863 520.27,465.402C519.134,472.287 517.445,479.781 516.021,486.669C506.284,485.049 492.585,482.681 482.816,481.732C488.886,458.797 492.13,431.478 497.72,408.425C501.231,408.97 508.246,409.854 511.43,410.693C513.488,400.544 515.477,389.231 517.877,379.257L478.178,373.123C471.561,372.118 461.698,370.343 455.223,369.866ZM463.365,324.33C471.751,326.862 480.553,328.56 489.14,330.332C488.191,334.231 487.22,345.607 486,347.274C476.088,345.952 468.499,343.889 459.085,340.971C460.697,336.143 462.31,329.257 463.365,324.33ZM500.075,331.533C507.959,332.509 517.251,332.746 525.102,332.45C525.147,336.514 525.7,344.445 524.655,348.505C524.486,349.163 523.656,349.107 522.656,349.353C512.664,349.719 507.911,350.032 497.882,348.973C498.797,343.184 499.529,337.368 500.075,331.533ZM430.273,310.723C437.53,314.59 445.644,317.83 453.226,321.2C452.573,323.562 449.507,336.106 448.196,336.904C439.983,333.335 431.923,330.195 423.627,326.484C425.813,320.816 427.584,316.171 430.273,310.723ZM184.55,365.085C186.132,364.846 186.321,364.727 187.931,365.003C190.976,367.03 195.05,375.232 197.154,378.821C188.489,380.058 184.934,381.561 177.526,386.069C176.517,386.734 176.577,386.776 175.403,386.973C172.053,384.453 168.526,377.383 166.375,373.521C172.769,368.816 176.921,366.895 184.55,365.085ZM826.198,351.126C822.728,357.906 821.796,360.692 820.532,368.176C816.941,369.852 807.993,372.525 803.788,374.003C806.645,364.67 810.318,352.386 820.509,348.432C823.655,346.551 826.413,346.109 829.987,345.335C828.605,347.312 827.368,349.003 826.198,351.126ZM818.041,381.525C818.959,382.315 819.09,387.953 819.751,390.526C821.614,397.783 824.151,402.834 827.592,409.341C822.165,412.151 816.693,414.873 811.177,417.506L809.758,417.983C803.158,414.472 801.482,394.032 801.572,387.311C806.769,385.304 812.728,383.363 818.041,381.525ZM835.439,419.453C843.82,425.542 845.89,426.381 856.031,429.357C851.351,432.447 846.081,434.534 840.554,435.487C839.882,435.491 839.211,435.489 838.539,435.482C829.993,435.387 824.925,433.717 818.888,427.527C824.135,425.204 830.218,422.027 835.439,419.453ZM155.618,382.793C156.849,383.186 163.513,393.406 165.098,395.436C160.267,400.436 157.643,405.027 154.823,411.281C151.776,408.958 146.754,401.745 144.628,398.561C148.185,391.981 150.8,388.532 155.618,382.793ZM545.674,329.176C546.782,328.934 546.353,328.976 547.516,329.198C548.736,331.742 548.164,341.624 548.082,344.969C545.421,345.803 541.955,346.557 539.194,347.228C537.818,347.218 537.855,347.273 536.583,346.797C536.278,345.327 536.821,333.355 536.887,330.577C539.682,330.048 542.835,329.619 545.674,329.176ZM200.475,363.843C210.278,366.308 215.393,370.893 221.494,378.691C217.178,378.2 212.868,377.67 208.562,377.102C205.644,372.822 202.944,368.397 200.475,363.843ZM141.27,411.839C142.46,412.53 150.315,421.602 152.059,423.395C151.368,425.182 151.173,426.513 150.798,428.4C150.627,428.763 150.771,428.547 150.186,428.881C145.455,422.655 143.433,419.343 141.27,411.839ZM366.839,558.448C373.328,560.804 382.19,562.676 388.972,564.258C387.48,571.024 385.892,577.841 384.714,584.664L383.92,585.172C376.16,583.566 368.498,581.518 360.971,579.04C363.124,572.175 364.466,565.411 366.839,558.448ZM336.291,544.949C342.658,548.199 349.208,551.12 355.713,554.091C353.097,561.075 351.106,568.279 349.765,575.615C343.043,573.373 336.496,570.637 330.178,567.428C331.785,558.741 333.535,553.21 336.291,544.949ZM401.279,566.359C413.002,568.648 438.451,570.827 450.491,570.988C444.31,572.362 438.085,574.158 431.968,575.831C419.114,578.728 407.636,584.555 396.466,586.855C397.463,580.597 399.874,572.895 401.279,566.359ZM313.539,528.733C315.625,529.997 322.303,536.604 326.654,539.521C323.524,547.252 321.986,553.27 319.916,561.29C315.036,558.073 310.194,555.36 306.628,550.704C308.096,541.624 309.573,537.044 313.539,528.733ZM540.01,548.959C541.021,554.188 536.798,561.968 534.542,566.494L526.555,566.046L526.228,565.736C525.686,564.174 526.583,557.692 526.798,555.613C531.892,553.462 535.23,551.718 540.01,548.959ZM513.493,560.611C514.388,561.57 513.7,564.831 513.545,566.126C508.072,565.991 503.189,565.93 497.703,566.066L497.353,565.749C498.034,565.029 511.208,561.415 513.493,560.611Z" style="fill:rgb(84,14,117);"  data-color="color-2"/>
    </g>
</svg>
