<?xml version="1.0" encoding="UTF-8" standalone="no"?>
<!DOCTYPE svg PUBLIC "-//W3C//DTD SVG 1.1//EN" "http://www.w3.org/Graphics/SVG/1.1/DTD/svg11.dtd">
<svg width="100%" height="100%" viewBox="0 0 656 899" version="1.1" xmlns="http://www.w3.org/2000/svg" xmlns:xlink="http://www.w3.org/1999/xlink" xml:space="preserve" xmlns:serif="http://www.serif.com/" style="fill-rule:evenodd;clip-rule:evenodd;stroke-linejoin:round;stroke-miterlimit:2;">
    <g transform="matrix(1,0,0,1,-157.969,-50.7275)">
        <path d="M577.291,347.816C579.94,327.019 589.025,301.015 596.703,281.43C617.018,229.609 649.492,180.855 692.746,145.452C709.52,131.722 725.958,121.916 744.501,110.79L768.682,96.328C773.482,93.468 778.797,89.97 783.868,87.799C785.724,97.058 786.439,106.646 787.294,116.263C792.763,177.824 786.286,241.669 760.267,298.257C754.823,310.095 746.3,321.374 738.595,331.607C714.825,363.371 686.789,391.706 655.28,415.814C657.863,421.027 661.192,426.319 663.652,431.678C672.572,451.113 681.764,470.284 691.571,489.293L680.601,508.727C685.105,519.239 688.298,529.257 692.368,539.84C696.858,551.515 701.759,562.715 705.984,574.56C709.387,584.028 714.201,595.192 715.52,604.901C714.078,607.092 712.381,609.077 710.865,611.205C691.539,638.331 671.106,664.638 651.014,691.198C641.876,703.277 632.315,714.519 624.344,727.452C625.293,735.156 626.366,742.845 627.562,750.514C628.74,757.964 630.414,766.884 630.647,774.334C622.395,789.32 612.503,801.33 602.075,814.898C593.069,826.616 584.536,839.745 574.973,850.976C573.683,852.491 565.306,858.739 562.772,861.013C539.562,881.842 514.924,900.404 489.9,918.956C471.555,905.985 452.933,889.845 435.386,875.79C425.573,867.93 412.509,858.228 403.407,849.719C399.436,846.006 389.017,830.946 385.097,825.831C375.978,813.933 366.453,801.678 358.173,789.197C355.11,784.581 351.49,779.655 349.064,774.696C349.665,758.771 353.147,745.888 356.108,730.303C350.93,717.472 338.914,704.719 330.45,693.911L304.862,660.695C291.135,642.729 277.021,622.394 262.906,605.274C266.266,593.028 272.797,576.94 277.344,564.735C284.023,546.809 290.948,527.561 298.55,510.074C294.968,502.604 290.91,495.466 287.39,487.981C298.217,464.12 309.989,438.334 323.697,416.026C315.67,411.578 305.554,403.064 298.489,396.974C274.416,376.284 252.337,353.381 232.543,328.566C212.32,303.362 204.026,283.42 195.517,252.498C180.155,196.664 180.878,145.054 187.157,87.926C191.457,89.571 199.565,94.073 203.807,96.259C218.051,103.6 231.606,112.321 245.466,120.392C251.625,124.044 257.559,128.701 263.527,132.566C317.112,167.268 353.987,221.935 377.546,280.404C386.789,303.345 394.325,323.88 400.317,348.494C404.611,346.324 409.321,344.154 413.748,342.25C438.689,331.524 463.22,318.692 488.059,307.914C495.192,310.477 506.825,315.804 513.898,318.894C535.118,328.34 556.25,337.981 577.291,347.816ZM362.709,518.364C363.125,518.354 366.151,518.263 366.127,518.233C372.082,526.018 372.2,540.413 381.124,545.628C388.641,550.022 395.614,553.645 403.746,549.106C405.066,548.369 409.579,546.732 411.181,546.337C412.458,546.022 412.463,546.219 413.211,546.743C413.081,548.377 411.731,549.684 410.654,551.029C405.637,556.544 396.816,560.178 389.358,560.141C383.902,560.103 378.687,557.884 374.877,553.978C367.449,546.411 362.536,528.309 362.709,518.364ZM219.26,149.743C221.445,150.917 225.137,153.78 227.203,155.427C240.537,166.055 255.447,176.77 266.869,189.481C278.808,202.768 291.311,220.414 300.033,236.05C305.382,245.638 309.757,257.699 313.765,267.847C324.593,295.267 331.53,323.789 335.215,353.073C331.335,341.573 321.68,323.466 315.627,312.549C306.938,296.77 297.938,281.163 288.634,265.738C286.904,262.84 285.098,259.989 283.218,257.186C284.531,261.75 285.588,267.439 286.775,272.175L295.663,307.745C300.234,325.704 306.321,345.754 311.297,363.901C276.085,330.115 243.27,295.097 228.632,247.246C225.131,235.804 223.146,221.425 221.638,209.562C219.259,189.717 218.464,169.714 219.26,149.743ZM648.994,516.025C653.631,521.439 675.162,585.078 678.067,595.485C672.057,605.605 665.219,613.27 658.513,622.629C646.876,638.871 634.974,654.259 622.802,670.035C619.814,655.164 618.084,637.585 615.804,622.411L610.64,659.968C608.812,671.719 607.1,681.027 606.8,692.997C603.635,687.419 599.818,677.969 596.732,671.87C593.75,665.979 588.08,655.723 585.919,649.844C582.143,639.576 579.537,627.132 576.365,616.498C573.523,606.967 570.014,597.589 567.378,588.066C581.158,587.278 587.848,584.644 600.552,579.622C624.215,570.266 626.061,553.011 636.177,532.736C638.486,528.109 640.116,523.687 641.92,518.922C644.327,517.655 646.457,516.944 648.994,516.025ZM488.637,693.327C467.475,687.121 452.827,683.36 433.636,672.296C429.139,687.156 425.085,702.146 421.481,717.247C438.757,733.746 459.635,753.256 480.199,765.244C479.17,770.966 479.137,778.71 478.987,784.638L468.768,797.973C455.368,803.6 431.022,810.384 417.049,814.314C409.122,804.734 384.463,775.357 382.4,763.954C382.516,750.481 387.919,728.583 392.032,716.116C408.142,667.292 424.001,618.286 443.871,570.916C451.911,551.749 463.759,540.437 475.745,524.726C469.604,516.989 463.799,506.677 457.953,498.282C442.478,476.204 421.367,458.679 396.817,447.533C413.517,465.965 428.974,485.529 439.963,508.192C442.152,512.707 451.046,537.481 450.492,541.275L449.907,541.622C446.045,539.837 441.82,536.755 438.134,534.439L417.42,521.472C401.951,511.681 385.887,502.596 370.485,492.644C357.263,484.099 343.095,477.828 328.472,472.163L355.331,424.29C358.734,418.184 364.43,406.044 368.684,401.168C373.179,396.017 472.527,350.47 486.994,344.095C487.336,344.014 487.678,343.933 488.02,343.851C524.662,358.831 560.785,375.244 596.894,391.473C599.937,392.84 608.001,396.562 609.713,399.238C614.911,407.364 619.793,416.026 624.658,424.377L651.552,470.669C643.128,474.591 629.201,480.222 621.647,484.404C604.56,493.862 587.197,506.609 570.627,517.281C562.471,522.533 543.129,535.158 536.065,541.306C535.338,534.571 534.849,521.996 536.124,515.514C539.344,499.135 553.581,479.158 564.096,466.074C566.981,462.427 570.073,458.948 573.357,455.657C554.315,462.71 530.681,484.905 517.957,501.149C512.65,507.925 508.569,516.118 502.289,523.166C510.795,529.693 512.656,535.018 518.252,543.919C535.392,571.182 545.509,597.752 556.93,627.596C568.295,657.332 578.577,687.471 587.758,717.952C590.14,726.023 591.056,732.785 592.91,740.704C594.518,747.569 596.996,755.605 598.97,762.477C595.084,772.998 571.424,804.67 564.156,814.166C548.643,809.961 528.821,804.605 513.793,798.165C511.948,797.375 506.974,790.886 506.026,788.833C501.765,779.609 504.895,770.888 501.734,759.114C519.612,747.889 543.913,731.48 557.169,714.866C554.11,700.081 551.161,688.574 544.462,674.846C530.297,681.276 516.001,686.21 501.033,690.374C497.869,691.254 491.4,694.407 488.637,693.327ZM616.826,516.468C619.117,519.299 612.816,539.487 611.141,543.313C610.01,545.91 608.546,548.348 606.785,550.567C597.07,562.775 580.326,561.751 569.275,552.556C567.61,550.486 566.512,548.534 565.148,546.271C576.824,550.654 584.946,553.586 596.948,546.824C608.715,540.196 605.991,521.123 616.826,516.468ZM490.495,816.942C508.151,820.491 525.967,830.256 546.521,833.34C541.793,838.08 532.584,845.214 527.044,849.754C515.331,859.539 503.395,869.054 491.244,878.29C491.173,878.321 491.109,878.376 491.032,878.383C486.727,878.778 442.101,840.141 435.534,834.631C447.676,833.884 478.053,821.902 490.495,816.942ZM753.197,151.427L753.484,151.485C755.926,155.647 750.934,212.079 749.748,220.468C746.269,245.089 739.816,267.118 726.709,288.386C709.682,316.013 689.686,344.304 663.345,363.83C667.576,351.671 669.89,338.473 673.158,326.004C675.002,318.971 677.125,312.015 678.925,304.99C682.876,289.124 686.657,273.217 690.266,257.27C688.39,260.19 686.317,264.014 684.551,267.077C681.892,271.732 679.252,276.593 676.479,281.164C662.037,304.973 650.736,330.226 637.477,354.664C641.857,330.235 644.906,308.8 654.055,285.489C658.045,275.324 660.289,264.658 664.884,254.321C684.017,211.276 714.582,177.854 753.197,151.427ZM333.745,515.897C341.049,525.642 342.535,530.122 346.023,541.207C347.814,546.902 354.696,562.094 358.257,566.11C370.629,580.062 393.355,586.821 411.429,588.334C407.093,604.761 402.386,620.689 397.145,636.85C393.936,646.747 392.778,654.564 387.601,663.939C382.308,673.525 377.922,684.336 373.426,694.341C373.358,681.318 370.763,669.74 368.59,656.909C366.47,646.131 365.42,632.303 363.013,622.503C360.642,634.308 358.45,658.481 357.67,670.43C352.601,665.534 346.185,656.75 341.846,650.955L320.377,621.968C314.459,614.007 303.361,600.705 298.971,592.795C302.331,581.936 305.148,580.41 308.991,571.481C316.454,554.142 323.454,531.675 333.745,515.897Z" style="fill:rgb(0,20,43);"/>
        <path d="M648.994,516.025C653.631,521.439 675.162,585.078 678.067,595.485C672.057,605.605 665.219,613.27 658.513,622.629C646.876,638.871 634.974,654.259 622.802,670.035C619.814,655.164 618.084,637.585 615.804,622.411L610.64,659.968C608.812,671.719 607.1,681.027 606.8,692.997C603.635,687.419 599.818,677.969 596.732,671.87C593.75,665.979 588.08,655.723 585.919,649.844C582.143,639.576 579.537,627.132 576.365,616.498C573.523,606.967 570.014,597.589 567.378,588.066C581.158,587.278 587.848,584.644 600.552,579.622C624.215,570.266 626.061,553.011 636.177,532.736C638.486,528.109 640.116,523.687 641.92,518.922C644.327,517.655 646.457,516.944 648.994,516.025ZM486.994,344.095C487.336,344.014 487.678,343.933 488.02,343.851C524.662,358.831 560.785,375.244 596.894,391.473C599.937,392.84 608.001,396.562 609.713,399.238C614.911,407.364 619.793,416.026 624.658,424.377L651.552,470.669C643.128,474.591 629.201,480.222 621.647,484.404C604.56,493.862 587.197,506.609 570.627,517.281C562.471,522.533 543.129,535.158 536.065,541.306C535.338,534.571 534.849,521.996 536.124,515.514C539.344,499.135 553.581,479.158 564.096,466.074C566.981,462.427 570.073,458.948 573.357,455.657C554.315,462.71 530.681,484.905 517.957,501.149C512.65,507.925 508.569,516.118 502.289,523.166C510.795,529.693 512.656,535.018 518.252,543.919C535.392,571.182 545.509,597.752 556.93,627.596C568.295,657.332 578.577,687.471 587.758,717.952C590.14,726.023 591.056,732.785 592.91,740.704C594.518,747.569 596.996,755.605 598.97,762.477C595.084,772.998 571.424,804.67 564.156,814.166C548.643,809.961 528.821,804.605 513.793,798.165C511.948,797.375 506.974,790.886 506.026,788.833C501.765,779.609 504.895,770.888 501.734,759.114C519.612,747.889 543.913,731.48 557.169,714.866C554.11,700.081 551.161,688.574 544.462,674.846C530.297,681.276 516.001,686.21 501.033,690.374C497.869,691.254 491.4,694.407 488.637,693.327C489.112,692.998 488.827,693.247 489.295,692.4C488.231,682.271 488.535,667.083 488.484,656.573L488.422,593.852L487.982,411.806C487.984,403.56 488.807,349.779 486.994,344.095ZM753.197,151.427L753.484,151.485C755.926,155.647 750.934,212.079 749.748,220.468C746.269,245.089 739.816,267.118 726.709,288.386C709.682,316.013 689.686,344.304 663.345,363.83C667.576,351.671 669.89,338.473 673.158,326.004C675.002,318.971 677.125,312.015 678.925,304.99C682.876,289.124 686.657,273.217 690.266,257.27C688.39,260.19 686.317,264.014 684.551,267.077C681.892,271.732 679.252,276.593 676.479,281.164C662.037,304.973 650.736,330.226 637.477,354.664C641.857,330.235 644.906,308.8 654.055,285.489C658.045,275.324 660.289,264.658 664.884,254.321C684.017,211.276 714.582,177.854 753.197,151.427Z" style="fill:rgb(220,99,7);"/>
        <path d="M333.745,515.897C341.049,525.642 342.535,530.122 346.023,541.207C347.814,546.902 354.696,562.094 358.257,566.11C370.629,580.062 393.355,586.821 411.429,588.334C407.093,604.761 402.386,620.689 397.145,636.85C393.936,646.747 392.778,654.564 387.601,663.939C382.308,673.525 377.922,684.336 373.426,694.341C373.358,681.318 370.763,669.74 368.59,656.909C366.47,646.131 365.42,632.303 363.013,622.503C360.642,634.308 358.45,658.481 357.67,670.43C352.601,665.534 346.185,656.75 341.846,650.955L320.377,621.968C314.459,614.007 303.361,600.705 298.971,592.795C302.331,581.936 305.148,580.41 308.991,571.481C316.454,554.142 323.454,531.675 333.745,515.897ZM219.26,149.743C221.445,150.917 225.137,153.78 227.203,155.427C240.537,166.055 255.447,176.77 266.869,189.481C278.808,202.768 291.311,220.414 300.033,236.05C305.382,245.638 309.757,257.699 313.765,267.847C324.593,295.267 331.53,323.789 335.215,353.073C331.335,341.573 321.68,323.466 315.627,312.549C306.938,296.77 297.938,281.163 288.634,265.738C286.904,262.84 285.098,259.989 283.218,257.186C284.531,261.75 285.588,267.439 286.775,272.175L295.663,307.745C300.234,325.704 306.321,345.754 311.297,363.901C276.085,330.115 243.27,295.097 228.632,247.246C225.131,235.804 223.146,221.425 221.638,209.562C219.259,189.717 218.464,169.714 219.26,149.743ZM488.637,693.327C467.475,687.121 452.827,683.36 433.636,672.296C429.139,687.156 425.085,702.146 421.481,717.247C438.757,733.746 459.635,753.256 480.199,765.244C479.17,770.966 479.137,778.71 478.987,784.638L468.768,797.973C455.368,803.6 431.022,810.384 417.049,814.314C409.122,804.734 384.463,775.357 382.4,763.954C382.516,750.481 387.919,728.583 392.032,716.116C408.142,667.292 424.001,618.286 443.871,570.916C451.911,551.749 463.759,540.437 475.745,524.726C469.604,516.989 463.799,506.677 457.953,498.282C442.478,476.204 421.367,458.679 396.817,447.533C413.517,465.965 428.974,485.529 439.963,508.192C442.152,512.707 451.046,537.481 450.492,541.275L449.907,541.622C446.045,539.837 441.82,536.755 438.134,534.439L417.42,521.472C401.951,511.681 385.887,502.596 370.485,492.644C357.263,484.099 343.095,477.828 328.472,472.163L355.331,424.29C358.734,418.184 364.43,406.044 368.684,401.168C373.179,396.017 472.527,350.47 486.994,344.095C488.807,349.779 487.984,403.56 487.982,411.806L488.422,593.852L488.484,656.573C488.535,667.083 488.231,682.271 489.295,692.4C488.827,693.247 489.112,692.998 488.637,693.327ZM490.495,816.942C508.151,820.491 525.967,830.256 546.521,833.34C541.793,838.08 532.584,845.214 527.044,849.754C515.331,859.539 503.395,869.054 491.244,878.29C491.173,878.321 491.109,878.376 491.032,878.383C486.727,878.778 442.101,840.141 435.534,834.631C447.676,833.884 478.053,821.902 490.495,816.942Z" style="fill:rgb(239,117,12);"/>
        <path d="M167.985,50.728C174.327,53.089 181.528,56.947 187.78,59.909C195.58,63.605 203.621,67.24 211.344,71.048C235.303,83.108 258.184,97.201 279.735,113.171C292.951,122.794 308.312,133.667 319.884,145.063C368.635,193.07 394.118,249.216 415.862,312.967C440.177,301.775 464.141,291.478 488.588,280.701C513.63,290.914 536.662,300.206 561.168,311.724C577.09,249.327 612.141,184.535 659.147,140.238C671.276,128.808 689.875,116.1 703.428,106.346C734.201,84.202 768.884,66.145 803.543,50.905C805.391,56.354 807.16,69.794 807.966,75.732C812.764,109.374 814.66,143.367 813.632,177.334C809.599,288.731 766.708,349.076 687.338,422.881C697.489,444.68 709.126,469.634 720.734,490.396C716.262,497.556 711.836,504.744 707.458,511.962C714.09,528.157 719.787,545.114 725.597,561.654C730.962,576.93 737.28,592.823 741.489,608.388C741.512,608.547 741.551,608.705 741.557,608.866C741.743,613.754 676.426,699.957 668.774,709.836C662.615,717.788 656.075,725.465 649.666,733.217C653.297,745.712 654.78,764.663 657.072,777.982C650.262,790.144 635.704,809.113 627.379,821.05C616.321,836.906 603.643,855.431 590.57,869.621C588.901,871.432 582.134,876.168 579.816,877.884C575.534,881.101 571.33,884.421 567.208,887.839C542.295,908.505 517.14,928.877 491.749,948.952C485.789,945.869 477.822,939.324 472.344,935.006C463.694,928.19 455.099,921.306 446.559,914.352L402.041,877.493C398.68,874.752 390.76,870.608 388.401,867.845C371.493,848.031 356.331,826.456 341.277,805.222C334.864,796.175 329.495,786.681 322.798,777.815C325.177,763.22 326.798,748.798 329.5,734.097C314.147,713.624 298.669,693.244 283.068,672.958C273.597,660.912 264.303,648.729 255.189,636.41C249.21,628.37 242.211,619.103 237.063,610.573C238.265,605.832 241.535,597.083 243.199,592.241C247.843,578.387 252.815,564.645 258.112,551.028C262.941,538.269 266.972,525.434 272.057,512.593C268.009,505.937 262.529,497.435 259.126,490.635C261.353,484.905 264.865,479.47 267.166,473.855C274.377,456.255 283.075,439.885 291.715,422.963C285.434,416.779 277.159,410.366 270.49,403.959C246.658,381.064 223.745,357.734 204.372,330.883C179.559,296.489 168.113,254.503 161.67,213.148C160.755,207.275 159.07,196.361 158.765,190.834C156.177,143.957 160.07,96.835 167.985,50.728ZM577.291,347.816C556.25,337.981 535.118,328.34 513.898,318.894C506.825,315.804 495.192,310.477 488.059,307.914C463.22,318.692 438.689,331.524 413.748,342.25C409.321,344.154 404.611,346.324 400.317,348.494C394.325,323.88 386.789,303.345 377.546,280.404C353.987,221.935 317.112,167.268 263.527,132.566C257.559,128.701 251.625,124.044 245.466,120.392C231.606,112.321 218.051,103.6 203.807,96.259C199.565,94.073 191.457,89.571 187.157,87.926C180.878,145.054 180.155,196.664 195.517,252.498C204.026,283.42 212.32,303.362 232.543,328.566C252.337,353.381 274.416,376.284 298.489,396.974C305.554,403.064 315.67,411.578 323.697,416.026C309.989,438.334 298.217,464.12 287.39,487.981C290.91,495.466 294.968,502.604 298.55,510.074C290.948,527.561 284.023,546.809 277.344,564.735C272.797,576.94 266.266,593.028 262.906,605.274C277.021,622.394 291.135,642.729 304.862,660.695L330.45,693.911C338.914,704.719 350.93,717.472 356.108,730.303C353.147,745.888 349.665,758.771 349.064,774.696C351.49,779.655 355.11,784.581 358.173,789.197C366.453,801.678 375.978,813.933 385.097,825.831C389.017,830.946 399.436,846.006 403.407,849.719C412.509,858.228 425.573,867.93 435.386,875.79C452.933,889.845 471.555,905.985 489.9,918.956C514.924,900.404 539.562,881.842 562.772,861.013C565.306,858.739 573.683,852.491 574.973,850.976C584.536,839.745 593.069,826.616 602.075,814.898C612.503,801.33 622.395,789.32 630.647,774.334C630.414,766.884 628.74,757.964 627.562,750.514C626.366,742.845 625.293,735.156 624.344,727.452C632.315,714.519 641.876,703.277 651.014,691.198C671.106,664.638 691.539,638.331 710.865,611.205C712.381,609.077 714.078,607.092 715.52,604.901C714.201,595.192 709.387,584.028 705.984,574.56C701.759,562.715 696.858,551.515 692.368,539.84C688.298,529.257 685.105,519.239 680.601,508.727L691.571,489.293C681.764,470.284 672.572,451.113 663.652,431.678C661.192,426.319 657.863,421.027 655.28,415.814C686.789,391.706 714.825,363.371 738.595,331.607C746.3,321.374 754.823,310.095 760.267,298.257C786.286,241.669 792.763,177.824 787.294,116.263C786.439,106.646 785.724,97.058 783.868,87.799C778.797,89.97 773.482,93.468 768.682,96.328L744.501,110.79C725.958,121.916 709.52,131.722 692.746,145.452C649.492,180.855 617.018,229.609 596.703,281.43C589.025,301.015 579.94,327.019 577.291,347.816ZM362.709,518.364C363.125,518.354 366.151,518.263 366.127,518.233C372.082,526.018 372.2,540.413 381.124,545.628C388.641,550.022 395.614,553.645 403.746,549.106C405.066,548.369 409.579,546.732 411.181,546.337C412.458,546.022 412.463,546.219 413.211,546.743C413.081,548.377 411.731,549.684 410.654,551.029C405.637,556.544 396.816,560.178 389.358,560.141C383.902,560.103 378.687,557.884 374.877,553.978C367.449,546.411 362.536,528.309 362.709,518.364ZM616.826,516.468C619.117,519.299 612.816,539.487 611.141,543.313C610.01,545.91 608.546,548.348 606.785,550.567C597.07,562.775 580.326,561.751 569.275,552.556C567.61,550.486 566.512,548.534 565.148,546.271C576.824,550.654 584.946,553.586 596.948,546.824C608.715,540.196 605.991,521.123 616.826,516.468Z" style="fill:rgb(254,252,247);"/>
    </g>
</svg>
