<svg width="100%" height="100%" viewBox="0 0 921 976" version="1.1" xmlns="http://www.w3.org/2000/svg" xmlns:xlink="http://www.w3.org/1999/xlink" xml:space="preserve" xmlns:serif="http://www.serif.com/" style="fill-rule:evenodd;clip-rule:evenodd;stroke-linejoin:round;stroke-miterlimit:2;">
    <g transform="matrix(1,0,0,1,-19.4314,-21.8027)">
        <path d="M888.858,47.17C894.399,46.244 903.375,46.622 906.922,51.306C915.65,62.831 915.624,86.826 914.592,100.777C909.688,167.078 886.99,234.517 845.512,286.977C835.262,299.853 825.153,309.755 813.04,320.545C825.379,317.356 847.612,314.72 860.953,314.007C869.63,313.597 906.839,311.364 911.939,318.583C928.138,341.511 871.364,406.513 860.448,417.631C791.357,487.996 700.603,498.499 607.385,497.946C644.912,514.057 682.564,545.655 706.403,578.53C739.933,625.309 753.533,683.48 744.217,740.276C717.969,903.131 518.705,969.95 375.16,971.999C345.394,972.424 317.188,968.423 287.964,963.65C303.123,956.946 316.22,952.475 331.866,944.633C373.672,924.344 405.95,891.468 415.059,844.395C419.763,820.084 418.359,797.119 419.169,772.501C419.665,752.139 421.991,731.863 426.119,711.917C434.445,672.306 446.982,649.017 466.218,614.224C473.15,601.566 480.189,588.967 487.332,576.427C474.408,579.036 453.891,578.282 441.185,575.771C399.057,567.444 368.011,541.789 344.745,507.063C333.112,509.113 323.542,509.896 311.708,512.777C261.844,524.917 230.3,548.39 198.141,587.231C193.966,592.222 189.567,598.256 185.581,603.488C185.309,603.13 185.038,602.77 184.769,602.41C118.154,513.118 150.044,390.334 222.813,315.067C233.098,304.429 244.231,295.499 256.104,286.722C254.18,282.931 252.092,279.225 249.846,275.616C210.166,211.846 125.628,201.708 58.59,189.415C54.264,188.359 47.857,186.156 45.55,182.186C42.699,177.279 46.446,172.362 50.856,170.476C80.286,157.89 122.778,165.513 152.294,173.812C207.396,189.305 249.801,222.791 277.308,272.865C290.813,265.26 301.627,260.414 316.002,254.863C307.073,232.524 293.474,212.349 276.118,195.69C239.714,160.223 193.779,139.545 148.871,117.413C140.262,113.17 133.281,100.996 145.71,99.144C172.871,95.097 209.217,110.568 232.924,123.241C283.712,150.39 322.467,191.891 339.302,247.484C345.645,245.898 352.068,244.653 358.544,243.754C416.432,235.799 463.264,259.594 471.342,321.032C490.207,251.564 522.313,173.497 569.226,118.238C577.794,108.146 588.664,96.621 599.603,89.298C605.423,85.402 612.932,81.943 620.031,83.524C624.756,84.576 629.354,88.656 631.64,92.71C650.262,125.721 649.924,191.627 642.113,226.639C694.456,169.489 813.164,58.527 888.858,47.17ZM679.704,605.848C635.022,652.135 571.567,677.114 507.444,679.006C496.611,679.326 485.823,678.857 475.265,676.204C468.472,686.671 462.716,713.256 460.195,725.816C468.558,728.476 477.16,730.313 485.879,731.302C554.281,740.008 628.232,721.505 683.02,679.124C690.787,673.136 698.116,666.601 704.953,659.569C700.967,645.654 689.756,616.155 679.704,605.848ZM593.801,537.833C571.325,560.808 550.877,572.929 520.673,583.605C514.202,594.792 507.311,606.361 501.117,617.654C513.141,617.078 526.639,614.798 538.395,612.008C576.135,602.776 607.631,588.906 635.127,560.568C626.958,554.866 602.873,538.588 593.801,537.833ZM444.409,870.35C435.867,895.05 421.368,917.264 402.195,935.025C428.569,934.057 454.731,929.923 480.118,922.713C502.288,916.532 515.167,910.551 535.942,902.886C503.463,902.717 470.031,890.078 444.409,870.35ZM371.843,271.211C318.852,275.4 265.683,307.182 231.765,347.228C195.514,390.029 173.877,451.818 178.405,507.926C179.626,523.406 183.393,538.58 189.555,552.834C199.098,541.783 209.692,531.685 221.188,522.682C240.822,507.736 259.442,497.279 283.077,489.433C298.429,484.336 313.096,482.009 328.782,478.363C365.003,469.943 395.295,453.054 417.48,422.427C430.947,403.776 439.609,382.093 442.699,359.296C448.089,319.397 437.487,276.782 391.515,271.468C385.824,270.81 377.53,270.549 371.843,271.211ZM368.568,297.71C369.302,297.66 370.036,297.621 370.771,297.593C381.406,297.205 389.104,300.241 396.798,307.387C385.3,304.844 378.926,306.174 367.841,309.556C422.25,345.474 386.075,426.317 333.152,441.283C302.403,449.978 269.343,440.999 259.983,407.279C257.483,408.361 254.991,409.79 252.583,411.092C242.97,416.965 238.914,420.127 231.116,428.051C229.917,390.947 246.509,350.839 276.517,328.268C268.412,343.65 268.231,358.15 264.515,374.832C268.814,368.548 273.469,362.514 278.456,356.761C287.092,346.707 296.293,337.782 306.634,329.501C325.403,314.468 343.586,299.593 368.568,297.71ZM343.447,342.968C335.284,348.411 329.866,353.277 322.954,360.336C335.024,382.531 329.281,404.467 308.59,418.712L316.749,417.816C332.017,413.502 342.61,404.568 350.555,390.816C358.881,376.406 361.904,351.076 343.447,342.968ZM709.139,736.948C658.396,780.256 583.65,802.824 517.301,797.519C495.556,795.972 474.178,791.086 453.919,783.035C454.165,799.387 454.145,812.662 452.816,828.819L457.791,831.491C518.604,860.296 606.867,858.867 666.817,820.428C676.633,814.134 689.072,790.661 694.602,780.135C697.854,773.479 710.255,742.26 709.139,736.948ZM609.748,120.977C560.68,169.66 531.534,233.874 509.999,298.72C503.338,318.777 498.161,339.318 492.066,359.527C495.789,360.847 499.769,362.176 503.377,363.724C506.362,365.002 509.313,366.359 512.226,367.792L575.476,293.096C582.872,284.324 590.495,275.519 597.8,266.689C602.223,261.343 604.56,251.335 606.422,244.492C614.621,215.046 617.661,184.404 615.408,153.921C614.844,146.705 612.613,126.689 609.748,120.977ZM857.395,345.209C789.295,350.454 714.971,383.794 654.648,414.927C641.718,421.6 621.583,431.991 609.37,439.541C616.323,437.581 623.427,436.265 630.531,434.943C668.853,427.81 707.084,419.579 745.75,414.515C749.006,414.088 752.286,413.741 755.52,413.197C748.551,416.871 741.501,420.388 734.375,423.746C699.466,440.347 663.725,455.141 627.295,468.069C712.849,463.975 784.867,454.535 845.994,387.457C857.044,375.331 868.692,359.706 876.185,345.038C869.908,344.978 863.661,344.831 857.395,345.209ZM882.535,81.512C776.053,118.662 660.679,248.1 585.796,331.138C556.811,363.278 522.22,401.597 494.225,434.525C538.181,403.44 581.686,371.723 624.728,339.384C648.767,321.096 672.961,303.015 697.309,285.14C707.753,277.389 718.373,269.878 729.161,262.613C736.291,257.909 743.935,253.518 750.936,248.807C736.875,266.058 714.995,288.302 699.283,304.308C673.842,330.604 647.594,356.106 620.577,380.779C610.728,389.715 600.751,398.508 590.648,407.155C585.284,411.78 577.572,418.041 572.613,422.886C583.014,417.519 593.792,411.108 604.136,405.44C623.767,394.634 643.6,384.2 663.625,374.143C691.334,360.253 720.523,346.685 747,330.818C808.96,293.687 846.774,245.383 868.791,176.598C877.267,150.353 882.317,123.122 883.817,95.582C883.991,92.231 884.521,84.724 883.592,81.715L882.535,81.512Z" style="fill:rgb(69,0,0);"  data-color="color-2"/>
        <path d="M156.877,149.14C150.52,146.043 144.156,142.96 137.819,139.837C127.783,134.891 119.154,124.967 115.955,116.068C113.184,108.361 113.449,100.848 115.855,94.383C118.973,86.007 125.765,76.84 142.026,74.417C173.88,69.67 216.906,86.331 244.71,101.194C294.753,127.946 334.1,167.376 355.588,218.926C398.502,213.131 436.148,222.762 461.856,246.702C463.681,248.402 465.452,250.176 467.164,252.025C487.193,197.838 514.742,143.788 550.168,102.058C560.145,90.307 572.958,77.051 585.696,68.523C596.899,61.023 611.799,56.079 625.464,59.121C636.682,61.619 647.987,70.805 653.415,80.427C664.685,100.405 670.178,130.987 671.501,161.191C700.537,133.495 735.12,103.383 769.797,78.483C810.49,49.264 851.688,27.521 884.977,22.473C891.259,21.459 899.776,21.467 907.046,23.398C915.383,25.613 922.283,30.18 926.853,36.214C932.478,43.642 936.442,54.06 938.353,65.596C940.471,78.384 940.261,92.654 939.524,102.621C934.683,168.066 913.509,234.473 875.505,288.554C887.394,288.406 902.46,288.758 911.589,291.046C922.147,293.692 928.887,299.246 932.357,304.158C941.206,316.682 942.24,336.212 933.014,357.809C919.911,388.48 886.755,426.521 878.286,435.147C823.866,490.567 757.203,512.252 686.033,519.632C701.538,533.312 715.47,548.448 726.682,563.91L726.722,563.966C764.102,616.116 779.269,680.963 768.894,744.281C757.271,816.345 715.466,871.7 658.795,911.983C577.892,969.489 466.2,995.702 375.517,996.996C344.257,997.443 314.625,993.336 283.934,988.323L200.993,974.777L277.853,940.786C292.63,934.251 305.412,929.928 320.807,922.212L320.951,922.142C355.583,905.334 382.968,878.641 390.514,839.646C394.954,816.702 393.422,795.015 394.179,771.801C394.716,749.971 397.212,728.234 401.646,706.812L401.654,706.775C410.561,664.399 423.742,639.384 444.315,602.171C444.418,601.983 444.522,601.794 444.625,601.606C441.662,601.236 438.872,600.797 436.337,600.296C392.877,591.705 359.297,567.622 333.397,534.083C328.333,534.841 323.245,535.699 317.622,537.067C273.535,547.802 245.83,568.834 217.357,603.223L217.317,603.271C213.373,607.986 209.232,613.696 205.467,618.638L185.554,644.777L165.675,618.612C165.362,618.201 165.051,617.788 164.731,617.359L164.72,617.344C90.754,518.041 123.959,381.347 204.84,297.69C210.683,291.646 216.767,286.094 223.084,280.807C206.332,258.878 182.268,245.906 156.235,236.812C122.986,225.198 86.407,219.933 54.08,214.005L53.366,213.874L52.66,213.702C42.676,211.264 29.261,203.912 23.935,194.747C12.789,175.566 23.787,154.862 41.026,147.49C74.54,133.157 122.656,139.797 156.877,149.14ZM888.858,47.17C813.164,58.527 694.456,169.489 642.113,226.639C649.924,191.627 650.262,125.721 631.64,92.71C629.354,88.656 624.756,84.576 620.031,83.524C612.932,81.943 605.423,85.402 599.603,89.298C588.664,96.621 577.794,108.146 569.226,118.238C522.313,173.497 490.207,251.564 471.342,321.032C463.264,259.594 416.432,235.799 358.544,243.754C352.068,244.653 345.645,245.898 339.302,247.484C322.467,191.891 283.712,150.39 232.924,123.241C209.217,110.568 172.871,95.097 145.71,99.144C133.281,100.996 140.262,113.17 148.871,117.413C193.779,139.545 239.714,160.223 276.118,195.69C293.474,212.349 307.073,232.524 316.002,254.863C301.627,260.414 290.813,265.26 277.308,272.865C249.801,222.791 207.396,189.305 152.294,173.812C122.778,165.513 80.286,157.89 50.856,170.476C46.446,172.362 42.699,177.279 45.55,182.186C47.857,186.156 54.264,188.359 58.59,189.415C125.628,201.708 210.166,211.846 249.846,275.616C252.092,279.225 254.18,282.931 256.104,286.722C244.231,295.499 233.098,304.429 222.813,315.067C150.044,390.334 118.154,513.118 184.769,602.41C185.038,602.77 185.309,603.13 185.581,603.488C189.567,598.256 193.966,592.222 198.141,587.231C230.3,548.39 261.844,524.917 311.708,512.777C323.542,509.896 333.112,509.113 344.745,507.063C368.011,541.789 399.057,567.444 441.185,575.771C453.891,578.282 474.408,579.036 487.332,576.427C480.189,588.967 473.15,601.566 466.218,614.224C446.982,649.017 434.445,672.306 426.119,711.917C421.991,731.863 419.665,752.139 419.169,772.501C418.359,797.119 419.763,820.084 415.059,844.395C405.95,891.468 373.672,924.344 331.866,944.633C316.22,952.475 303.123,956.946 287.964,963.65C317.188,968.423 345.394,972.424 375.16,971.999C518.705,969.95 717.969,903.131 744.217,740.276C753.533,683.48 739.933,625.309 706.403,578.53C682.564,545.655 644.912,514.057 607.385,497.946C700.603,498.499 791.357,487.996 860.448,417.631C871.364,406.513 928.138,341.511 911.939,318.583C906.839,311.364 869.63,313.597 860.953,314.007C847.612,314.72 825.379,317.356 813.04,320.545C825.153,309.755 835.262,299.853 845.512,286.977C886.99,234.517 909.688,167.078 914.592,100.777C915.624,86.826 915.65,62.831 906.922,51.306C903.375,46.622 894.399,46.244 888.858,47.17ZM882.535,81.512L883.592,81.715C884.521,84.724 883.991,92.231 883.817,95.582C882.317,123.122 877.267,150.353 868.791,176.598C846.774,245.383 808.96,293.687 747,330.818C720.523,346.685 691.334,360.253 663.625,374.143C643.6,384.2 623.767,394.634 604.136,405.44C593.792,411.108 583.014,417.519 572.613,422.886C577.572,418.041 585.284,411.78 590.648,407.155C600.751,398.508 610.728,389.715 620.577,380.779C647.594,356.106 673.842,330.604 699.283,304.308C714.995,288.302 736.875,266.058 750.936,248.807C743.935,253.518 736.291,257.909 729.161,262.613C718.373,269.878 707.753,277.389 697.309,285.14C672.961,303.015 648.767,321.096 624.728,339.384C581.686,371.723 538.181,403.44 494.225,434.525C522.22,401.597 556.811,363.278 585.796,331.138C660.679,248.1 776.053,118.662 882.535,81.512ZM857.395,345.209C863.661,344.831 869.908,344.978 876.185,345.038C868.692,359.706 857.044,375.331 845.994,387.457C784.867,454.535 712.849,463.975 627.295,468.069C663.725,455.141 699.466,440.347 734.375,423.746C741.501,420.388 748.551,416.871 755.52,413.197C752.286,413.741 749.006,414.088 745.75,414.515C707.084,419.579 668.853,427.81 630.531,434.943C623.427,436.265 616.323,437.581 609.37,439.541C621.583,431.991 641.718,421.6 654.648,414.927C714.971,383.794 789.295,350.454 857.395,345.209ZM609.748,120.977C612.613,126.689 614.844,146.705 615.408,153.921C617.661,184.404 614.621,215.046 606.422,244.492C604.56,251.335 602.223,261.343 597.8,266.689C590.495,275.519 582.872,284.324 575.476,293.096L512.226,367.792C509.313,366.359 506.362,365.002 503.377,363.724C499.769,362.176 495.789,360.847 492.066,359.527C498.161,339.318 503.338,318.777 509.999,298.72C531.534,233.874 560.68,169.66 609.748,120.977ZM343.447,342.968C361.904,351.076 358.881,376.406 350.555,390.816C342.61,404.568 332.017,413.502 316.749,417.816L308.59,418.712C329.281,404.467 335.024,382.531 322.954,360.336C329.866,353.277 335.284,348.411 343.447,342.968Z" style="fill:white;"  data-color="color-3"/>
        <path d="M371.843,271.211C377.53,270.549 385.824,270.81 391.515,271.468C437.487,276.782 448.089,319.397 442.699,359.296C439.609,382.093 430.947,403.776 417.48,422.427C395.295,453.054 365.003,469.943 328.782,478.363C313.096,482.009 298.429,484.336 283.077,489.433C259.442,497.279 240.822,507.736 221.188,522.682C209.692,531.685 199.098,541.783 189.555,552.834C183.393,538.58 179.626,523.406 178.405,507.926C173.877,451.818 195.514,390.029 231.765,347.228C265.683,307.182 318.852,275.4 371.843,271.211ZM368.568,297.71C343.586,299.593 325.403,314.468 306.634,329.501C296.293,337.782 287.092,346.707 278.456,356.761C273.469,362.514 268.814,368.548 264.515,374.832C268.231,358.15 268.412,343.65 276.517,328.268C246.509,350.839 229.917,390.947 231.116,428.051C238.914,420.127 242.97,416.965 252.583,411.092C254.991,409.79 257.483,408.361 259.983,407.279C269.343,440.999 302.403,449.978 333.152,441.283C386.075,426.317 422.25,345.474 367.841,309.556C378.926,306.174 385.3,304.844 396.798,307.387C389.104,300.241 381.406,297.205 370.771,297.593C370.036,297.621 369.302,297.66 368.568,297.71ZM679.704,605.848C689.756,616.155 700.967,645.654 704.953,659.569C698.116,666.601 690.787,673.136 683.02,679.124C628.232,721.505 554.281,740.008 485.879,731.302C477.16,730.313 468.558,728.476 460.195,725.816C462.716,713.256 468.472,686.671 475.265,676.204C485.823,678.857 496.611,679.326 507.444,679.006C571.567,677.114 635.022,652.135 679.704,605.848ZM709.139,736.948C710.255,742.26 697.854,773.479 694.602,780.135C689.072,790.661 676.633,814.134 666.817,820.428C606.867,858.867 518.604,860.296 457.791,831.491L452.816,828.819C454.145,812.662 454.165,799.387 453.919,783.035C474.178,791.086 495.556,795.972 517.301,797.519C583.65,802.824 658.396,780.256 709.139,736.948ZM593.801,537.833C602.873,538.588 626.958,554.866 635.127,560.568C607.631,588.906 576.135,602.776 538.395,612.008C526.639,614.798 513.141,617.078 501.117,617.654C507.311,606.361 514.202,594.792 520.673,583.605C550.877,572.929 571.325,560.808 593.801,537.833ZM444.409,870.35C470.031,890.078 503.463,902.717 535.942,902.886C515.167,910.551 502.288,916.532 480.118,922.713C454.731,929.923 428.569,934.057 402.195,935.025C421.368,917.264 435.867,895.05 444.409,870.35Z" style="fill:rgb(253,195,60);"  data-color="color-1"/>
    </g>
</svg>
