<?xml version="1.0" encoding="UTF-8" standalone="no"?>
<!DOCTYPE svg PUBLIC "-//W3C//DTD SVG 1.1//EN" "http://www.w3.org/Graphics/SVG/1.1/DTD/svg11.dtd">
<svg width="100%" height="100%" viewBox="0 0 823 832" version="1.1" xmlns="http://www.w3.org/2000/svg" xmlns:xlink="http://www.w3.org/1999/xlink" xml:space="preserve" xmlns:serif="http://www.serif.com/" style="fill-rule:evenodd;clip-rule:evenodd;stroke-linejoin:round;stroke-miterlimit:2;">
    <g transform="matrix(1,0,0,1,-64.9536,-124.64)">
        <path d="M256.86,699.161C254.706,696.378 252.22,692.865 249.662,690.583C249.664,689.838 249.712,689.956 249.536,689.269C236.189,637.27 202.444,579.289 156.543,550.312C166.701,545.628 179.428,541.207 189.987,536.891C203.311,531.444 214.084,526.456 226.944,520.07C229.854,520.052 233.767,519.838 236.465,520.508C252.079,520.52 266.332,519.673 282.183,521.817C292.42,523.202 301.465,525.439 311.439,527.96C307.126,521.861 301.885,516.454 297.602,510.102C302.841,489.896 313.265,469.988 323.251,451.748C380.642,346.914 500.02,257.129 624.804,278.705C628.577,279.357 630.004,279.494 632.876,277.153C641.012,279.476 647.9,280.689 656.093,282.531C637.336,267.975 616.527,240.014 613.602,216.281C611.877,202.289 614.431,184.29 619.405,171.147C640.166,181.425 667.774,199.932 679.313,219.829C690.961,239.916 700.94,272.163 704.821,295.103C710.801,283.608 713.983,275.718 716.846,262.812C740.394,282.754 759.057,305.543 778.625,329.283C785.509,337.634 794.55,344.803 800.63,353.6C806.291,361.792 802.942,374.935 796.798,381.95L796.488,382.297C791.659,378.604 788.062,375.467 783.532,371.416C787.241,383.905 791.632,395.812 796.413,407.928C810.411,443.401 823.745,479.432 842.694,512.636C843.18,509.406 843.958,505.046 844.214,501.886C850.922,505.98 858.784,510.611 860.891,518.809C863.08,527.331 859.314,538.19 855.695,545.827C852.854,536.93 852.95,531.567 852.724,522.263C844.29,536.644 845.141,553.072 848.209,568.89C838.144,596.815 805.708,601.572 780.288,593.604C771.226,590.764 763.113,582.124 755.762,576.483C748.955,571.167 740.956,564.317 733.865,559.492C735.764,567.463 737.272,576.779 742.211,583.464C754.678,600.341 772.24,609.311 792.636,612.747C769.863,625.503 740.286,619.358 725.725,596.818C718.352,585.405 720.198,566.077 716.072,553.992C718.928,544.202 730.729,537.478 739.921,534.746C727.09,511.344 695.498,475.32 676.201,457.105C661.953,463.436 646.316,467.097 630.726,464.998C596.032,460.327 582.425,418.911 578.197,389.1C577.53,384.397 576.427,364.163 574.475,361.891C574.292,361.678 574.092,361.481 573.901,361.276C579.722,347.365 585.674,337.294 595.622,325.78C590.084,328.12 586.403,330.173 581.359,333.368C579.66,331.288 578.307,331.43 575.631,331.036C567.625,327.558 530.079,340.265 521.51,343.487C442.559,373.17 380.926,443.931 391.68,532.428C392.069,535.63 393.709,551.467 393.496,553.87C382.137,547.584 370.859,541.506 358.777,536.695C351.867,533.944 344.256,531.562 337.18,529.113C379.901,558.574 416.062,589.438 435.12,639.641C432.695,643.011 433.021,658.008 432.203,663.416C427.084,697.257 403.209,706.256 380.973,726.974C367.694,728.162 358.139,730.036 345.474,734.245C385.926,737.998 419.459,755.402 455.364,772.572C470.453,779.787 486.943,784.663 501.71,792.667C504.644,794.286 507.276,796.401 509.488,798.918C515.229,805.51 517.57,816.421 516.68,824.951C515.341,837.775 509.81,843.657 501.097,852.256C496.496,851.283 487.568,859.572 477.321,858.276C462.171,856.359 457.755,850.869 448.348,840.403C444.513,831.434 446.242,817.271 447.068,807.658C444.749,805.463 440.266,803.741 437.237,802.581C391.867,785.2 339.021,797.949 296.264,772.914C288.276,768.238 283.897,759.269 280.161,751.192C277.884,766.759 278.902,785.941 292.307,795.219C293.764,796.227 297.778,798.84 298.289,800.141L295.873,800.958C287.407,799.954 268.605,793.526 261.295,790.059C259.328,765.578 264.764,744.065 268.535,720.149C271.54,701.088 274.158,679.332 273.976,660.015C268.602,672.947 262.538,686.314 256.86,699.161ZM783.141,524.975C757.724,536.722 778.149,568.683 794.21,555.595C796.069,558.967 796.399,560.295 797.51,564.021C799.971,558.807 800.984,554.631 800.903,548.814C800.769,539.178 794.465,524.584 783.141,524.975ZM773.065,498.605C766.562,499.888 761.499,502.385 757.881,508.191C749.608,521.466 753.441,533.582 760.913,545.575C761.138,531.005 763.363,519.855 779.466,515.507C794.822,514.537 804.506,520.61 813.078,533.044C810.867,519.604 805.979,514.315 795.049,505.988C788.931,501.326 780.94,497.754 773.065,498.605ZM629.883,200.852C632.671,223.936 638.654,240.009 655.631,256.356C659.827,260.397 664.579,266.567 669.094,270.073C667.532,248.757 654.163,224.955 639.213,209.958C636.53,207.267 632.884,202.889 629.883,200.852ZM695.582,402.578C699.365,415.216 743.741,451.854 754.552,463.387C754.705,463.55 756.029,463.836 756.306,463.901L756.481,463.858L756.791,463.306C750.281,437.028 742.883,422.676 730.808,398.894C746.056,394.542 745.916,388.555 747.164,374.24C738.108,391.001 729.482,380.925 719.38,372.478C709.599,364.3 701.5,353.246 692.156,345.131C687.593,341.198 682.41,338.048 676.818,335.809C663.495,330.356 649.426,331.046 636.226,336.584C648.45,338.082 660.587,343.608 670.179,351.254C654.972,378.142 664.888,398.887 695.582,402.578Z" style="fill:rgb(239,225,202);"/>
        <path d="M249.662,690.583C248.236,689.873 244.221,681.443 243.174,679.544C239.375,672.587 235.299,665.783 230.958,659.15C194.118,602.533 133.279,545.95 64.954,532.482C108.592,524.895 136.179,511.138 170.524,482.996C163.448,483.035 156.128,483.246 149.112,482.483C125.259,479.89 105.536,469.931 87.583,454.456C132.539,454.738 147.183,434.198 178.161,406.695C186.785,399.039 200.666,390.473 210.602,384.311C181.454,379.164 163.239,366.746 145.62,342.515C140.43,335.379 134.665,324.184 131.874,315.828C164.802,331.28 195.503,327.4 224.714,306.369C242.506,293.56 259.571,279.755 279.105,269.583C250.489,264.106 229.301,243.869 221.847,215.843C263.463,234.26 288.619,223.218 325.109,200.92C345.928,188.198 371.403,181.219 395.784,180.366C384.259,172.582 377.793,163.419 375.081,149.551C373.464,141.282 373.813,132.749 376.099,124.64C411.914,149.709 448.24,131.507 486.708,130.047C527.343,128.504 558.774,137.681 593.149,158.476C596.2,149.385 596.867,143.151 596.428,133.635C635.75,147.251 670.977,163.982 698.179,196.519C722.156,184.758 734.53,163.2 747.273,140.919C765.268,170.951 780.064,211.915 771.198,246.8C769.156,254.835 766.59,260.709 762.787,267.955C779.702,287.189 795.443,309.621 813.642,327.646C825.621,339.512 830.034,346.978 828.895,364.778C828.209,375.533 824.768,385.527 820.295,395.755C828.569,414.227 834.945,434.526 843.332,453.098C846.564,460.254 848.979,467.951 852.659,474.947C855.585,480.915 866.313,488.254 871.854,492.643C886.198,504.005 890.844,521.169 884.602,538.329C882.273,544.729 878.659,550.129 874.795,555.814C875.603,575.758 870.844,586.18 857.524,601.94C851.396,608.65 843.958,614.14 835.304,617.06C833.336,617.725 828.074,618.65 826.914,619.58C810.262,632.915 796.531,644.825 773.792,645.514C753.314,646.134 729.467,638.024 714.143,623.756C703.447,613.883 697.341,600.958 696.031,586.492C695.856,584.559 694.842,574.686 693.852,573.337C680.903,555.708 660.327,541.016 641.599,529.911C632.944,524.78 626.205,527.759 616.962,525.462C604.437,522.958 594.883,520.525 583.409,514.569C566.987,535.273 561.652,553.825 556.143,578.869C580.049,605.557 595.878,633.166 593.875,670.505C593.297,682.369 590.437,694.011 585.452,704.793C601.517,706.991 617.556,709.373 633.566,711.938C639.842,712.971 646.084,714.054 652.299,715.303C663.993,717.653 671.104,719.657 678.49,729.474C692.493,747.945 699.084,776.229 682,795C672.783,805.126 661.709,812.777 651.297,821.623C641.67,829.802 633.224,838.717 624.684,848.014C617.616,855.824 610.972,864.008 604.781,872.53C587.718,895.862 585.635,909.666 552.314,905.475C525.771,919.664 498.27,925.118 472.062,907.722C464.438,914.918 456.05,924.403 448.856,932.073C436.096,945.679 426.63,956.459 406.464,955.645C398.223,955.313 390.049,954.256 381.815,953.999C372.42,953.706 360.074,954.416 350.999,953.774C335.279,952.662 309.326,941.161 295.613,932.588C305.185,903.571 323.831,877.255 351.563,862.926C362.933,857.051 375.209,853.685 387.75,857.99C389.896,858.717 391.952,859.686 393.879,860.879C400.844,853.679 407.262,845.923 411.223,836.632C401.881,837.567 392.022,838.748 382.662,839.275C337.142,841.84 289.393,836.925 247.987,816.54C214.209,799.911 238.137,744.581 248.126,718.783C250.653,712.257 254.356,705.666 256.86,699.161C262.538,686.314 268.602,672.947 273.976,660.015C274.158,679.332 271.54,701.088 268.535,720.149C264.764,744.065 259.328,765.578 261.295,790.059C268.605,793.526 287.407,799.954 295.873,800.958C300.549,802.194 305.325,803.039 310.088,803.866C336.635,808.475 363.49,810.916 390.254,813.861C398.357,814.762 406.454,815.707 414.543,816.728C419.12,817.306 425.578,818.392 430.013,818.478C437.815,814.455 440.488,811.755 447.068,807.658C446.242,817.271 444.513,831.434 448.348,840.403C446.673,841.288 444.254,840.642 442.215,840.474C439.146,846.117 435.569,852.797 431.426,857.619C418.279,872.921 403.89,884.616 390.829,900.283C384.282,893.866 379.892,889.426 371.827,884.712C359.282,898.21 357.519,914.805 366.745,930.807C373.081,932.37 408.732,933.874 412.38,931.327C422.287,924.408 446.637,899.544 455.902,891.204C464.768,883.229 473.796,875.434 482.979,867.827C488.349,863.334 496.233,857.087 501.097,852.256C509.81,843.657 515.341,837.775 516.68,824.951C517.57,816.421 515.229,805.51 509.488,798.918C507.276,796.401 504.644,794.286 501.71,792.667C486.943,784.663 470.453,779.787 455.364,772.572C419.459,755.402 385.926,737.998 345.474,734.245C358.139,730.036 367.694,728.162 380.973,726.974C400.036,726.24 408.496,727.857 426.477,733.234C447.943,706.204 446.761,670.57 435.12,639.641C416.062,589.438 379.901,558.574 337.18,529.113C344.256,531.562 351.867,533.944 358.777,536.695C370.859,541.506 382.137,547.584 393.496,553.87C429.273,576.995 458.455,609.765 471.109,651.22C473.18,658.004 473.838,665.922 474.256,672.983C485.482,650.614 489.217,629.774 493.399,605.278C501.953,555.179 513.572,518.042 547.746,479.812C538.737,461.172 536.278,449.021 535.853,428.472C485.618,455.62 449.35,519.149 438.47,573.724C433.603,548.06 435.801,521.556 444.829,497.045C461.563,449.721 496.458,411.011 541.799,389.475C549.762,366.587 558.439,351.95 577.03,336.331L581.359,333.368C586.403,330.173 590.084,328.12 595.622,325.78C585.674,337.294 579.722,347.365 573.901,361.276C551.813,419.721 564.349,503.88 644.245,496.179C663.452,494.327 676.133,493.926 690.578,508.721C680.334,504.122 673.058,505.48 662.581,509.203C670.856,515.445 679.826,520.973 687.658,527.735C697.128,535.912 707.878,544.543 716.072,553.992C720.198,566.077 718.352,585.405 725.725,596.818C740.286,619.358 769.863,625.503 792.636,612.747C772.24,609.311 754.678,600.341 742.211,583.464C737.272,576.779 735.764,567.463 733.865,559.492C740.956,564.317 748.955,571.167 755.762,576.483C763.113,582.124 771.226,590.764 780.288,593.604C805.708,601.572 838.144,596.815 848.209,568.89C845.141,553.072 844.29,536.644 852.724,522.263C852.95,531.567 852.854,536.93 855.695,545.827C859.314,538.19 863.08,527.331 860.891,518.809C858.784,510.611 850.922,505.98 844.214,501.886C843.958,505.046 843.18,509.406 842.694,512.636C823.745,479.432 810.411,443.401 796.413,407.928C791.632,395.812 787.241,383.905 783.532,371.416C788.062,375.467 791.659,378.604 796.488,382.297L796.798,381.95C802.942,374.935 806.291,361.792 800.63,353.6C794.55,344.803 785.509,337.634 778.625,329.283C759.057,305.543 740.394,282.754 716.846,262.812C713.983,275.718 710.801,283.608 704.821,295.103C700.94,272.163 690.961,239.916 679.313,219.829C667.774,199.932 640.166,181.425 619.405,171.147C614.431,184.29 611.877,202.289 613.602,216.281C616.527,240.014 637.336,267.975 656.093,282.531C647.9,280.689 641.012,279.476 632.876,277.153C625.64,274.805 621.951,273.407 615.383,269.609C611.374,267.291 603.88,260.975 600.366,260.072C592.715,258.105 582.893,258.312 575.118,257.928C537.57,256.075 499.432,267.336 466.041,284.503C426.693,305.338 389.938,335.339 359.717,367.863C347.846,380.639 334.153,399.745 324.755,413.95C302.322,447.856 284.132,484.021 249.135,507.106C246.347,508.945 237.172,513.876 235.356,515.595C232.558,517.038 229.647,518.473 226.944,520.07C214.084,526.456 203.311,531.444 189.987,536.891C179.428,541.207 166.701,545.628 156.543,550.312C202.444,579.289 236.189,637.27 249.536,689.269C249.712,689.956 249.664,689.838 249.662,690.583ZM739.676,199.347C730.157,212.93 725.007,216.024 710.472,224.276C715.974,226.877 719.948,229.213 724.978,232.694C729.99,236.235 733.861,239.336 738.604,243.226C744.1,231.03 745.89,211.456 739.676,199.347ZM519.231,735.203C517.607,738.907 516.467,741.06 514.435,744.575L520.307,740.786C524.986,737.333 529.37,733.496 533.412,729.316C566.905,694.86 569.037,643.524 537.82,606.687C534.276,602.505 530.816,599.018 526.9,595.224C515.771,651.736 505.666,690.737 466.396,734.278C495.191,729.733 511.233,719.624 521.561,691.787C522.804,708.204 523.612,718.966 519.231,735.203ZM577.446,224.551C583.454,226.124 585.469,227.256 590.871,230.44C591.391,231.106 591.4,230.943 592.287,231.359C593.343,229.842 590.259,218.315 590.224,215.391C590.141,208.564 589.533,201.539 590.607,194.735C563.843,171.425 526.684,158.823 491.484,158.042C479.389,157.774 468.136,158.974 456.242,159.457C442.031,160.034 422.659,162.193 408.862,160.058L408.156,159.945C433.356,177.053 462.72,187.455 484.404,208.033C472.614,205.819 455.64,204.68 443.764,203.945C405.948,201.604 373.657,206.419 338.931,221.962C321.362,229.826 306.54,238.654 287.566,243.332C304.264,251.1 325.705,250.234 343.747,251.241C359.691,252.131 378.427,253.726 393.312,259.316C386.283,259.362 371.732,261.82 364.745,263.182C343.477,267.268 323.008,274.762 304.13,285.374C264.668,307.986 233.237,343.771 184.153,347.169C215.324,365.271 257.447,360.759 289.935,348.425C300.846,344.283 311.696,340.14 322.695,336.215C301.4,356.966 277.585,374.963 251.807,389.782C238.632,397.185 225.498,402.737 212.832,411.103C197.866,420.989 186.299,432.5 172.886,444.16C167.362,448.962 160.853,453.286 154.843,457.562C175.663,457.39 197.345,452.55 216.791,445.051C228.387,440.579 239.654,434.556 251.067,429.736C249.093,432.199 247.183,435.124 245.417,437.755C229.965,460.772 211.041,480.153 190.521,498.575C199.832,495.168 207.755,490.769 216.227,485.776C270.841,453.745 298.958,395.332 339.577,349.532C367.805,317.704 414.136,279.659 454.935,266.012C441.327,262.884 431.681,261.96 417.775,262.039C452.602,241.321 494.989,230.016 535.529,234.153C528.628,227.381 519.468,222.908 510.664,219.156C516.146,219.439 523.775,218.917 529.5,218.834C545.61,218.601 561.963,219.779 577.446,224.551ZM589.081,780.595C570.619,784.881 549.762,788.769 530.94,790.312C538.705,806.615 542.736,818.679 539.327,836.995L538.188,841.737C542.798,842.241 545.077,842.669 549.567,843.763C565.588,829.21 579.327,813.847 586.903,793.148C588.134,789.782 590.689,784.268 590.369,780.835C589.452,780.437 589.888,780.466 589.081,780.595ZM695.582,402.578C664.888,398.887 654.972,378.142 670.179,351.254C660.587,343.608 648.45,338.082 636.226,336.584C649.426,331.046 663.495,330.356 676.818,335.809C682.41,338.048 687.593,341.198 692.156,345.131C701.5,353.246 709.599,364.3 719.38,372.478C729.482,380.925 738.108,391.001 747.164,374.24C745.916,388.555 746.056,394.542 730.808,398.894C742.883,422.676 750.281,437.028 756.791,463.306L756.481,463.858L756.306,463.901C754.045,460.004 752.425,454.357 749.249,449.315C738.889,432.875 726.276,414.928 713.697,400.251C706.616,402.403 702.948,402.557 695.582,402.578ZM685.793,365.166C681.971,371.938 679.842,376.788 687.636,381.388C690.153,381.564 692.535,381.788 695.061,381.704L696.495,381.045C697.677,377.076 689.187,366.885 685.793,365.166ZM773.065,498.605C780.94,497.754 788.931,501.326 795.049,505.988C805.979,514.315 810.867,519.604 813.078,533.044C804.506,520.61 794.822,514.537 779.466,515.507C763.363,519.855 761.138,531.005 760.913,545.575C753.441,533.582 749.608,521.466 757.881,508.191C761.499,502.385 766.562,499.888 773.065,498.605ZM629.883,200.852C632.884,202.889 636.53,207.267 639.213,209.958C654.163,224.955 667.532,248.757 669.094,270.073C664.579,266.567 659.827,260.397 655.631,256.356C638.654,240.009 632.671,223.936 629.883,200.852ZM783.141,524.975C794.465,524.584 800.769,539.178 800.903,548.814C800.984,554.631 799.971,558.807 797.51,564.021C796.399,560.295 796.069,558.967 794.21,555.595C778.149,568.683 757.724,536.722 783.141,524.975Z" style="fill:rgb(0,34,55);"/>
        <path d="M577.03,336.331C558.439,351.95 549.762,366.587 541.799,389.475C496.458,411.011 461.563,449.721 444.829,497.045C435.801,521.556 433.603,548.06 438.47,573.724C449.35,519.149 485.618,455.62 535.853,428.472C536.278,449.021 538.737,461.172 547.746,479.812C513.572,518.042 501.953,555.179 493.399,605.278C489.217,629.774 485.482,650.614 474.256,672.983C473.838,665.922 473.18,658.004 471.109,651.22C458.455,609.765 429.273,576.995 393.496,553.87C393.709,551.467 392.069,535.63 391.68,532.428C380.926,443.931 442.559,373.17 521.51,343.487C530.079,340.265 567.625,327.558 575.631,331.036C578.307,331.43 579.66,331.288 581.359,333.368L577.03,336.331ZM236.465,520.508C233.767,519.838 229.854,520.052 226.944,520.07C229.647,518.473 232.558,517.038 235.356,515.595C237.172,513.876 246.347,508.945 249.135,507.106C284.132,484.021 302.322,447.856 324.755,413.95C334.153,399.745 347.846,380.639 359.717,367.863C389.938,335.339 426.693,305.338 466.041,284.503C499.432,267.336 537.57,256.075 575.118,257.928C582.893,258.312 592.715,258.105 600.366,260.072C603.88,260.975 611.374,267.291 615.383,269.609C621.951,273.407 625.64,274.805 632.876,277.153C630.004,279.494 628.577,279.357 624.804,278.705C500.02,257.129 380.642,346.914 323.251,451.748C313.265,469.988 302.841,489.896 297.602,510.102C301.885,516.454 307.126,521.861 311.439,527.96C301.465,525.439 292.42,523.202 282.183,521.817C266.332,519.673 252.079,520.52 236.465,520.508ZM756.306,463.901C756.029,463.836 754.705,463.55 754.552,463.387C743.741,451.854 699.365,415.216 695.582,402.578C702.948,402.557 706.616,402.403 713.697,400.251C726.276,414.928 738.889,432.875 749.249,449.315C752.425,454.357 754.045,460.004 756.306,463.901ZM519.231,735.203C523.612,718.966 522.804,708.204 521.561,691.787C511.233,719.624 495.191,729.733 466.396,734.278C505.666,690.737 515.771,651.736 526.9,595.224C530.816,599.018 534.276,602.505 537.82,606.687C569.037,643.524 566.905,694.86 533.412,729.316C529.37,733.496 524.986,737.333 520.307,740.786L514.435,744.575C516.467,741.06 517.607,738.907 519.231,735.203ZM716.072,553.992C707.878,544.543 697.128,535.912 687.658,527.735C679.826,520.973 670.856,515.445 662.581,509.203C673.058,505.48 680.334,504.122 690.578,508.721C676.133,493.926 663.452,494.327 644.245,496.179C564.349,503.88 551.813,419.721 573.901,361.276C574.092,361.481 574.292,361.678 574.475,361.891C576.427,364.163 577.53,384.397 578.197,389.1C582.425,418.911 596.032,460.327 630.726,464.998C646.316,467.097 661.953,463.436 676.201,457.105C695.498,475.32 727.09,511.344 739.921,534.746C730.729,537.478 718.928,544.202 716.072,553.992ZM447.068,807.658C440.488,811.755 437.815,814.455 430.013,818.478C425.578,818.392 419.12,817.306 414.543,816.728C406.454,815.707 398.357,814.762 390.254,813.861C363.49,810.916 336.635,808.475 310.088,803.866C305.325,803.039 300.549,802.194 295.873,800.958L298.289,800.141C297.778,798.84 293.764,796.227 292.307,795.219C278.902,785.941 277.884,766.759 280.161,751.192C283.897,759.269 288.276,768.238 296.264,772.914C339.021,797.949 391.867,785.2 437.237,802.581C440.266,803.741 444.749,805.463 447.068,807.658ZM501.097,852.256C496.233,857.087 488.349,863.334 482.979,867.827C473.796,875.434 464.768,883.229 455.902,891.204C446.637,899.544 422.287,924.408 412.38,931.327C408.732,933.874 373.081,932.37 366.745,930.807C357.519,914.805 359.282,898.21 371.827,884.712C379.892,889.426 384.282,893.866 390.829,900.283C403.89,884.616 418.279,872.921 431.426,857.619C435.569,852.797 439.146,846.117 442.215,840.474C444.254,840.642 446.673,841.288 448.348,840.403C457.755,850.869 462.171,856.359 477.321,858.276C487.568,859.572 496.496,851.283 501.097,852.256ZM435.12,639.641C446.761,670.57 447.943,706.204 426.477,733.234C408.496,727.857 400.036,726.24 380.973,726.974C403.209,706.256 427.084,697.257 432.203,663.416C433.021,658.008 432.695,643.011 435.12,639.641Z" style="fill:url(#_Linear1);"/>
        <path d="M685.793,365.166C689.187,366.885 697.677,377.076 696.495,381.045L695.061,381.704C692.535,381.788 690.153,381.564 687.636,381.388C679.842,376.788 681.971,371.938 685.793,365.166ZM577.446,224.551C561.963,219.779 545.61,218.601 529.5,218.834C523.775,218.917 516.146,219.439 510.664,219.156C519.468,222.908 528.628,227.381 535.529,234.153C494.989,230.016 452.602,241.321 417.775,262.039C431.681,261.96 441.327,262.884 454.935,266.012C414.136,279.659 367.805,317.704 339.577,349.532C298.958,395.332 270.841,453.745 216.227,485.776C207.755,490.769 199.832,495.168 190.521,498.575C211.041,480.153 229.965,460.772 245.417,437.755C247.183,435.124 249.093,432.199 251.067,429.736C239.654,434.556 228.387,440.579 216.791,445.051C197.345,452.55 175.663,457.39 154.843,457.562C160.853,453.286 167.362,448.962 172.886,444.16C186.299,432.5 197.866,420.989 212.832,411.103C225.498,402.737 238.632,397.185 251.807,389.782C277.585,374.963 301.4,356.966 322.695,336.215C311.696,340.14 300.846,344.283 289.935,348.425C257.447,360.759 215.324,365.271 184.153,347.169C233.237,343.771 264.668,307.986 304.13,285.374C323.008,274.762 343.477,267.268 364.745,263.182C371.732,261.82 386.283,259.362 393.312,259.316C378.427,253.726 359.691,252.131 343.747,251.241C325.705,250.234 304.264,251.1 287.566,243.332C306.54,238.654 321.362,229.826 338.931,221.962C373.657,206.419 405.948,201.604 443.764,203.945C455.64,204.68 472.614,205.819 484.404,208.033C462.72,187.455 433.356,177.053 408.156,159.945L408.862,160.058C422.659,162.193 442.031,160.034 456.242,159.457C468.136,158.974 479.389,157.774 491.484,158.042C526.684,158.823 563.843,171.425 590.607,194.735C589.533,201.539 590.141,208.564 590.224,215.391C590.259,218.315 593.343,229.842 592.287,231.359C591.4,230.943 591.391,231.106 590.871,230.44C585.469,227.256 583.454,226.124 577.446,224.551ZM739.676,199.347C745.89,211.456 744.1,231.03 738.604,243.226C733.861,239.336 729.99,236.235 724.978,232.694C719.948,229.213 715.974,226.877 710.472,224.276C725.007,216.024 730.157,212.93 739.676,199.347Z" style="fill:rgb(158,69,1);"/>
    </g>
    <defs>
        <linearGradient id="_Linear1" x1="0" y1="0" x2="1" y2="0" gradientUnits="userSpaceOnUse" gradientTransform="matrix(10.9421,-10.4967,10.4967,10.9421,723.551,433.88)"><stop offset="0" style="stop-color:rgb(196,184,166);stop-opacity:1"/><stop offset="1" style="stop-color:rgb(238,222,199);stop-opacity:1"/></linearGradient>
    </defs>
</svg>
