<?xml version="1.0" encoding="UTF-8" standalone="no"?>
<!DOCTYPE svg PUBLIC "-//W3C//DTD SVG 1.1//EN" "http://www.w3.org/Graphics/SVG/1.1/DTD/svg11.dtd">
<svg width="100%" height="100%" viewBox="0 0 704 895" version="1.1" xmlns="http://www.w3.org/2000/svg" xmlns:xlink="http://www.w3.org/1999/xlink" xml:space="preserve" xmlns:serif="http://www.serif.com/" style="fill-rule:evenodd;clip-rule:evenodd;stroke-linejoin:round;stroke-miterlimit:2;">
    <g transform="matrix(1,0,0,1,-168.293,-67.4088)">
        <path d="M432.319,82.69C438.366,81.609 448.034,83.11 453.586,85.786C462.022,89.851 465.294,93.739 468.439,102.13C487.308,98.729 508.245,99.648 527.218,102.504C565.96,108.337 605.671,123.625 633.916,151.544C639.927,157.486 643.666,162.588 648.663,169.263C668.144,173.782 694.813,178.691 709.23,193.019C717.372,201.11 703.919,238.88 701.105,249.65C694.76,273.182 690.308,297.183 687.791,321.424C702.304,301.439 713.679,286.288 735.682,273.832C751.838,264.296 778.926,258.244 797.365,264.859C882.315,295.334 869.928,421.679 799.501,458.813C803.983,464.97 808.394,471.178 812.734,477.436C830.854,504.023 860.446,550.592 854.164,583.82C847.746,575.467 833.007,567.199 823.572,562.023C833.135,581.835 838.26,619.028 836.202,640.946C833.529,669.422 824.327,709.011 802.081,728.207C800.656,717.314 799.352,707.484 797.63,696.594C791.77,710.706 788.679,720.133 781.133,733.906C760.467,771.625 723.582,805.179 685.102,824.084C688.597,813.394 694.775,796.439 696.484,785.857C679.329,811.769 658.146,833.352 633.791,852.441C605.473,874.253 572.568,889.578 541.569,907.053C523.51,917.234 509.859,925.903 499.323,944.347C488.657,941.675 480.177,937.929 470.275,933.526C446.683,923.036 428.285,912.514 409.067,895.228C405.922,892.417 402.946,889.423 400.153,886.262C390.02,874.652 391.535,875.567 377.515,868.865C372.742,866.583 368.116,864.006 363.656,861.161C336.599,843.641 323.995,822.258 317.48,791.304C306.209,782.29 295.076,773.103 284.088,763.746C255.388,739.471 241.794,725.884 228.712,689.402C226.564,695.85 224.546,701.971 222.675,708.5C212.849,697.641 209.249,685.317 206.507,671.192C201.196,643.836 206.652,619.739 214.4,593.761C206.135,597.62 194.208,607.124 187.371,613.221C190.354,585.485 202.156,564.609 217.913,542.28C232.818,521.159 248.808,508.597 252.346,482.097C236.448,477.329 224.981,470.676 214.067,457.394C185.817,423.015 183.211,367.789 218.704,337.323C230.522,327.178 244.628,325.691 259.637,327.29C255.297,320.541 250.388,314.175 244.964,308.262C233.524,295.661 219.439,284.534 235.439,267.859C242.794,260.193 249.639,256.169 258.63,250.604C260.242,244.774 262.15,239.029 264.346,233.393C281.923,189.185 321.199,151.42 362.437,128.822C371.247,123.994 379.506,120.805 388.675,116.839C388.345,94.859 414.056,84.996 432.319,82.69ZM777.094,295.731C842.566,298.114 842.001,417.711 770.13,442.128C765.968,439.982 758.711,434.955 754.579,432.239C781.271,420.323 799.878,388.808 801.757,360.15C802.704,345.705 796.456,325.47 778.993,325.254C763.465,325.251 748.123,340.663 739.408,352.183C725.124,371.065 716.995,389.976 699.849,407.019C720.022,406.448 726.906,404.161 745.613,398.942C739.343,416.484 730.726,421.242 714.87,429.922C716.735,432.033 718.431,434.271 720.15,436.501C731.452,451.161 743.183,465.491 753.985,480.532C761.343,490.778 767.652,501.673 773.828,512.655C762.532,509.674 749.371,505.633 738.14,502.013C758.107,527.654 774.453,560.553 771.915,593.809C753.329,572.004 738.225,561.117 709.246,557.969C710.282,559.275 711.272,560.616 712.214,561.991C731.387,589.868 737.828,620.383 731.703,653.54C724.533,639.127 714.199,627.534 702.204,617.008C701.467,655.228 688.549,677.285 665.064,705.928C666.347,691.197 667.2,678.198 664.223,663.593C660.798,670.275 657.6,676.845 653.175,682.938C641.022,702.054 617.416,720.002 596.918,729.276C599.606,716.419 603.877,695.853 609.025,684.059C622.057,654.21 641.09,622.496 623.595,589.504C608.731,561.474 575.162,558.55 546.914,566.921C564.758,536.709 605.615,519.738 639.472,519.736C647.045,519.736 653.879,520.31 661.373,521.128C646.188,505.765 625.555,500.923 604.621,505.545C609.482,484.895 610.455,468.43 607.533,447.077C603.198,415.41 583.37,378.84 546.038,384.944C526.147,388.197 504.141,410.16 492.694,426.474C492.136,422.539 491.796,418.221 492.068,414.279C493.966,386.666 521.338,364.7 547.381,361.046C569.923,357.883 588.786,366.734 602.71,384.243C605.886,388.236 608.095,393.016 611.374,396.754L612.637,396.737C616.473,393.914 615.406,383.388 614.386,378.994C612.06,368.984 605.882,361.329 597.254,355.94C629.704,356.551 651.897,373.289 670.876,398.189C680.203,392.842 688.272,388.962 694.577,379.768C701.443,369.757 705.511,358.718 710.995,347.995C715.891,338.22 722.051,329.129 729.315,320.958C742.042,306.736 757.742,296.791 777.094,295.731ZM412.741,506.714C444.356,505.349 474.142,524.896 494.16,547.852C514.19,570.822 522.857,582.79 554.007,587.245C550.678,588.879 547.479,590.763 544.436,592.881C540.384,595.749 530.731,604.228 534.535,609.541C538.104,610.589 540.528,608.011 543.876,606.701C550.594,604.071 556.797,603.265 563.936,602.908C549.573,653.376 504.56,695.472 451.986,702.4C428.351,706.231 399.932,701.173 380.442,686.745C372.425,680.81 368.947,673.605 365.767,664.455C395.522,652.149 439.253,607.138 429.606,571.684C420.079,536.67 369.759,533.572 340.529,539.767C359.138,519.796 385.593,508.329 412.741,506.714ZM589.046,604.082C591.539,604.752 593.987,606.009 596.008,607.611C601.685,612.112 604.58,619.222 605.288,626.285C608.397,657.292 565.179,741.802 548.552,769.462C542.146,780.084 535.01,790.248 527.197,799.882C507.276,824.106 481.149,841.024 449.324,844.074C404.154,848.404 347.34,825.636 342.794,774.52C341.926,767.2 342.296,756.782 341.622,749.031C340.759,739.084 339.641,734.01 337.159,724.532C342.957,724.614 346.993,724.381 352.73,723.83C354.473,729.439 357.344,740.853 357.847,746.459C359.03,759.653 357.943,769.902 366.127,781.518C375.954,795.468 394.74,802.099 410.98,804.69C438.319,809.112 466.295,802.484 488.743,786.265C530.645,755.495 581.234,655.125 589.046,604.082ZM468.737,121.25C509.563,117.72 565.072,128.837 589.662,164.161C535.233,162.506 498.615,166.402 444.888,177.967C412.861,185.294 381.402,194.916 350.757,206.76C357.173,180.195 377.211,142.64 405.233,134.103C425.255,128.003 447.85,122.865 468.737,121.25ZM505.283,714.699C511.082,714.274 515.285,714.591 521.073,715.215C511.382,732.389 496.663,750.69 481.383,763.142C462.717,778.353 436.711,783.64 413.201,780.705C404.148,779.575 391.529,776.402 385.846,768.594C381.79,763.022 381.724,757.878 382.564,751.492C384.398,743.468 388.609,734.901 394.53,729.114C399.464,724.397 405.346,723.558 411.802,724.573C420.561,725.95 429.426,727.709 438.253,728.107C431.361,741.105 429.499,746.193 427.141,760.475C428.528,758.933 430.216,756.669 431.48,755.019C452.058,728.153 472.39,718.716 505.283,714.699ZM276.437,611.297C277.718,612.529 284.711,626.009 287.372,629.606C302.467,650.012 320.707,662.852 345.68,667.131C349.014,679.904 353.105,687.83 362.061,697.405L355.125,700.277C330.088,710.584 308.607,701.758 293.236,679.992C278.964,659.785 272.211,635.988 276.437,611.297ZM545.815,430.145C568.349,428.55 581.651,447.601 582.83,468.038C583.116,472.979 582.997,477.654 582.873,482.586C580.719,475.097 578.573,468.59 573.65,462.352C565.156,451.59 550.4,450.606 540.472,460.094C530.432,469.689 527.701,484.034 527.362,497.414C527.728,507.909 529.714,515.713 534.132,525.265C530.391,528.28 526.667,531.316 522.96,534.371C512.754,525.057 507.66,514.836 505.424,501.125C500.978,473.847 514.844,434.646 545.815,430.145ZM238.677,362.588C263.92,360.203 270.486,389.777 273.749,408.738C267.95,401.698 260.795,392.413 251.749,389.496C245.499,387.481 241.578,392.392 240.301,398.051C237.538,410.3 242.317,422.072 248.629,432.388C252.946,438.362 256.597,441.251 262.89,444.835C260.592,448.271 259.186,450.783 257.224,454.444C255.112,453.667 253.026,452.82 250.971,451.902C238.601,446.279 229.212,434.288 224.67,421.711C218.233,403.889 217.117,370.528 238.677,362.588ZM348.49,556.255C350.478,556.224 352.467,556.217 354.456,556.233C369.018,556.372 391.751,557.076 402.425,568.438C413.348,580.067 407.438,591.81 397.57,601.071C397.571,574.915 373.9,572.152 353.311,571.276C339.752,570.873 319.45,571.449 307.513,577.787C298.961,582.327 295.099,588.438 292.369,597.464C282.27,559.599 321.987,557.568 348.49,556.255ZM341.408,454.593C357.18,453.835 361.377,464.501 364.584,477.719C363.949,477.142 363.296,476.584 362.626,476.048C346.747,463.421 332.863,481.725 330.054,496.28C328.649,503.564 329.012,507.463 330.113,514.731C330.725,518.168 331.328,520.201 332.346,523.556C329.137,525.449 325.892,527.28 322.613,529.049C312.479,510.722 312.072,489.776 321.697,470.815C326.02,462.298 332.263,457.372 341.408,454.593ZM342.8,403.669C349.739,402.653 357.874,404.66 362.777,409.888C371.307,418.982 370.748,429.606 370.524,441.187C359.582,423.101 345.267,419.177 326.415,428.547C316.51,433.599 309.188,442.976 305.01,453.122C304.333,428.04 316.603,407.247 342.8,403.669ZM357.152,155.441L357.694,155.849C354.849,160.082 351.935,163.343 349.001,167.968C339.062,183.637 333.854,198.061 329.024,215.746C317.969,221.088 307.717,225.662 296.674,231.313C296.258,231.354 296.538,231.362 295.888,231.015C296.423,227.847 300.39,219.707 301.961,216.751C314.622,192.931 334.327,169.97 357.152,155.441ZM558.668,188.712C565.23,188.007 577.66,188.246 584.381,188.371C619.805,189.029 652.676,191.689 684.22,209.067C676.693,239.476 670.001,271.184 663.41,301.815C661.399,311.161 660.215,320.744 658.404,330.139C639.961,328.246 623.196,325.11 603.968,323.844C518.269,318.202 446.805,337.288 368.875,369.814C352.045,377.004 336.43,385.58 320.386,394.304C302.594,348.384 288.641,325.461 258.714,286.924C333.129,225.361 463.682,194.481 558.668,188.712ZM369.044,604.578C382.461,603.681 371.864,617.248 368.36,622.133L368.76,623.126C372.374,625.838 381.685,625.675 386.342,625.771C382.615,629.646 378.607,633.877 374.531,637.342C371.067,640.312 367.757,643.506 364.436,646.64C355.798,634.018 352.119,612.169 369.044,604.578ZM316.057,606.145C329.488,611.065 330.524,634.308 331.659,646.213C326.241,643.796 323.317,642.044 318.512,638.603C312.378,634.139 307.152,628.544 303.116,622.119C307.033,623.662 315.814,627.377 319.825,626.597C321.911,624.06 316.764,617.655 316.265,613.114C315.871,609.523 315.808,609.933 316.057,606.145ZM432.847,104.15C435.914,103.882 443.249,103.886 444.813,106.893C444.572,113.997 429.033,116.303 423.682,116.802C420.77,117.112 414.333,117.417 412.32,115.173C412.613,108.447 427.346,104.912 432.847,104.15ZM564.02,477.379C573.397,477.324 574.548,487.822 567.069,492.962C559.293,493.806 556.864,483.122 564.02,477.379ZM354.654,492.794C362.254,492.913 360.503,499.884 357.168,504.063C355.854,504.097 355.067,504.129 353.939,503.274C352.893,502.481 352.219,501.294 352.075,499.99C351.699,496.853 352.824,495.092 354.654,492.794Z" style="fill:rgb(9,9,8);"/>
        <path d="M412.741,506.714C444.356,505.349 474.142,524.896 494.16,547.852C514.19,570.822 522.857,582.79 554.007,587.245C550.678,588.879 547.479,590.763 544.436,592.881C540.384,595.749 530.731,604.228 534.535,609.541C538.104,610.589 540.528,608.011 543.876,606.701C550.594,604.071 556.797,603.265 563.936,602.908C549.573,653.376 504.56,695.472 451.986,702.4C428.351,706.231 399.932,701.173 380.442,686.745C372.425,680.81 368.947,673.605 365.767,664.455C395.522,652.149 439.253,607.138 429.606,571.684C420.079,536.67 369.759,533.572 340.529,539.767C359.138,519.796 385.593,508.329 412.741,506.714ZM589.046,604.082C591.539,604.752 593.987,606.009 596.008,607.611C601.685,612.112 604.58,619.222 605.288,626.285C608.397,657.292 565.179,741.802 548.552,769.462C542.146,780.084 535.01,790.248 527.197,799.882C507.276,824.106 481.149,841.024 449.324,844.074C404.154,848.404 347.34,825.636 342.794,774.52C341.926,767.2 342.296,756.782 341.622,749.031C340.759,739.084 339.641,734.01 337.159,724.532C342.957,724.614 346.993,724.381 352.73,723.83C354.473,729.439 357.344,740.853 357.847,746.459C359.03,759.653 357.943,769.902 366.127,781.518C375.954,795.468 394.74,802.099 410.98,804.69C438.319,809.112 466.295,802.484 488.743,786.265C530.645,755.495 581.234,655.125 589.046,604.082ZM276.437,611.297C277.718,612.529 284.711,626.009 287.372,629.606C302.467,650.012 320.707,662.852 345.68,667.131C349.014,679.904 353.105,687.83 362.061,697.405L355.125,700.277C330.088,710.584 308.607,701.758 293.236,679.992C278.964,659.785 272.211,635.988 276.437,611.297Z" style="fill:rgb(169,114,58);"/>
        <path d="M777.094,295.731C842.566,298.114 842.001,417.711 770.13,442.128C765.968,439.982 758.711,434.955 754.579,432.239C781.271,420.323 799.878,388.808 801.757,360.15C802.704,345.705 796.456,325.47 778.993,325.254C763.465,325.251 748.123,340.663 739.408,352.183C725.124,371.065 716.995,389.976 699.849,407.019C720.022,406.448 726.906,404.161 745.613,398.942C739.343,416.484 730.726,421.242 714.87,429.922C716.735,432.033 718.431,434.271 720.15,436.501C731.452,451.161 743.183,465.491 753.985,480.532C761.343,490.778 767.652,501.673 773.828,512.655C762.532,509.674 749.371,505.633 738.14,502.013C758.107,527.654 774.453,560.553 771.915,593.809C753.329,572.004 738.225,561.117 709.246,557.969C710.282,559.275 711.272,560.616 712.214,561.991C731.387,589.868 737.828,620.383 731.703,653.54C724.533,639.127 714.199,627.534 702.204,617.008C701.467,655.228 688.549,677.285 665.064,705.928C666.347,691.197 667.2,678.198 664.223,663.593C660.798,670.275 657.6,676.845 653.175,682.938C641.022,702.054 617.416,720.002 596.918,729.276C599.606,716.419 603.877,695.853 609.025,684.059C622.057,654.21 641.09,622.496 623.595,589.504C608.731,561.474 575.162,558.55 546.914,566.921C564.758,536.709 605.615,519.738 639.472,519.736C647.045,519.736 653.879,520.31 661.373,521.128C646.188,505.765 625.555,500.923 604.621,505.545C609.482,484.895 610.455,468.43 607.533,447.077C603.198,415.41 583.37,378.84 546.038,384.944C526.147,388.197 504.141,410.16 492.694,426.474C492.136,422.539 491.796,418.221 492.068,414.279C493.966,386.666 521.338,364.7 547.381,361.046C569.923,357.883 588.786,366.734 602.71,384.243C605.886,388.236 608.095,393.016 611.374,396.754L612.637,396.737C616.473,393.914 615.406,383.388 614.386,378.994C612.06,368.984 605.882,361.329 597.254,355.94C629.704,356.551 651.897,373.289 670.876,398.189C680.203,392.842 688.272,388.962 694.577,379.768C701.443,369.757 705.511,358.718 710.995,347.995C715.891,338.22 722.051,329.129 729.315,320.958C742.042,306.736 757.742,296.791 777.094,295.731ZM238.677,362.588C263.92,360.203 270.486,389.777 273.749,408.738C267.95,401.698 260.795,392.413 251.749,389.496C245.499,387.481 241.578,392.392 240.301,398.051C237.538,410.3 242.317,422.072 248.629,432.388C252.946,438.362 256.597,441.251 262.89,444.835C260.592,448.271 259.186,450.783 257.224,454.444C255.112,453.667 253.026,452.82 250.971,451.902C238.601,446.279 229.212,434.288 224.67,421.711C218.233,403.889 217.117,370.528 238.677,362.588ZM348.49,556.255C350.478,556.224 352.467,556.217 354.456,556.233C369.018,556.372 391.751,557.076 402.425,568.438C413.348,580.067 407.438,591.81 397.57,601.071C397.571,574.915 373.9,572.152 353.311,571.276C339.752,570.873 319.45,571.449 307.513,577.787C298.961,582.327 295.099,588.438 292.369,597.464C282.27,559.599 321.987,557.568 348.49,556.255ZM342.8,403.669C349.739,402.653 357.874,404.66 362.777,409.888C371.307,418.982 370.748,429.606 370.524,441.187C359.582,423.101 345.267,419.177 326.415,428.547C316.51,433.599 309.188,442.976 305.01,453.122C304.333,428.04 316.603,407.247 342.8,403.669ZM369.044,604.578C382.461,603.681 371.864,617.248 368.36,622.133L368.76,623.126C372.374,625.838 381.685,625.675 386.342,625.771C382.615,629.646 378.607,633.877 374.531,637.342C371.067,640.312 367.757,643.506 364.436,646.64C355.798,634.018 352.119,612.169 369.044,604.578ZM316.057,606.145C329.488,611.065 330.524,634.308 331.659,646.213C326.241,643.796 323.317,642.044 318.512,638.603C312.378,634.139 307.152,628.544 303.116,622.119C307.033,623.662 315.814,627.377 319.825,626.597C321.911,624.06 316.764,617.655 316.265,613.114C315.871,609.523 315.808,609.933 316.057,606.145Z" style="fill:rgb(51,51,49);"/>
        <path d="M230.206,314.382C225.943,309.785 221.77,305.251 218.86,300.603C214.896,294.27 212.859,287.625 213.309,280.6C213.756,273.617 216.622,265.805 224.615,257.474C231.543,250.254 238.007,245.807 245.85,240.886C247.203,236.521 248.71,232.206 250.388,227.899L250.407,227.851C269.229,180.511 311.068,139.865 355.229,115.668C361.888,112.018 368.239,109.245 374.867,106.423C377.043,97.699 382.061,90.454 388.858,84.612C400.021,75.018 416.599,69.61 430.11,67.851L430.13,67.848C438.799,66.45 452.296,68.513 460.098,72.273C468.358,76.253 473.339,80.113 477.114,85.799C494.389,84.081 512.633,85.139 529.451,87.671C571.259,93.966 613.98,110.749 644.461,140.876C649.673,146.029 653.352,150.585 657.373,155.885C678.56,160.824 704.861,167.529 719.803,182.379C724.463,187.01 727.63,196.257 726.534,208.159C725.12,223.525 717.697,245.485 715.603,253.499L715.588,253.555C713.892,259.846 712.335,266.172 710.92,272.527C716.036,268.398 721.693,264.522 728.162,260.853C747.631,249.407 780.264,242.788 802.43,250.74C851.623,268.387 873.176,313.449 871.692,359.819C870.426,399.363 852.046,439.412 820.892,462.923C822.288,464.906 823.678,466.895 825.095,468.938L825.129,468.988C836.528,485.713 852.176,510.026 861.512,534.288C868.539,552.548 871.877,570.876 868.903,586.606L862.68,619.523L849.543,602.425C851.53,616.954 852.165,631.385 851.136,642.348C848.144,674.212 836.773,718.084 811.88,739.563L790.817,757.739L789.681,749.056C766.985,786.109 730.118,818.68 691.716,837.547L659.791,853.232L661.15,849.075C655.309,854.319 649.253,859.38 642.994,864.286L642.944,864.324C614.061,886.572 580.553,902.296 548.935,920.12C533.428,928.862 521.395,935.95 512.348,951.787L506.708,961.661L495.678,958.897C484.121,956.002 474.91,952.003 464.181,947.232C439.062,936.063 419.512,924.795 399.05,906.394C395.474,903.195 392.089,899.79 388.882,896.16L388.852,896.125C380.877,886.988 382.096,887.669 371.045,882.398L371.033,882.392C365.717,879.845 360.559,876.978 355.546,873.78L355.503,873.752C326.298,854.841 311.741,832.075 303.997,799.715C294.015,791.672 284.142,783.494 274.382,775.183C255.141,758.908 242.246,747.004 231.852,730.926L229.66,738.576L211.553,718.564C199.782,705.557 195.068,690.971 191.782,674.051C188.827,658.825 188.828,644.514 190.661,630.385L168.293,650.332L172.457,611.617C175.731,581.18 188.366,558.135 205.657,533.631C211.732,525.023 217.973,517.802 223.519,510.517C227.983,504.653 231.973,498.776 234.634,491.625C222.26,486.23 212.203,478.753 202.478,466.917C169.299,426.54 167.248,361.721 208.934,325.941C215.54,320.27 222.67,316.576 230.206,314.382ZM432.319,82.69C414.056,84.996 388.345,94.859 388.675,116.839C379.506,120.805 371.247,123.994 362.437,128.822C321.199,151.42 281.923,189.185 264.346,233.393C262.15,239.029 260.242,244.774 258.63,250.604C249.639,256.169 242.794,260.193 235.439,267.859C219.439,284.534 233.524,295.661 244.964,308.262C250.388,314.175 255.297,320.541 259.637,327.29C244.628,325.691 230.522,327.178 218.704,337.323C183.211,367.789 185.817,423.015 214.067,457.394C224.981,470.676 236.448,477.329 252.346,482.097C248.808,508.597 232.818,521.159 217.913,542.28C202.156,564.609 190.354,585.485 187.371,613.221C194.208,607.124 206.135,597.62 214.4,593.761C206.652,619.739 201.196,643.836 206.507,671.192C209.249,685.317 212.849,697.641 222.675,708.5C224.546,701.971 226.564,695.85 228.712,689.402C241.794,725.884 255.388,739.471 284.088,763.746C295.076,773.103 306.209,782.29 317.48,791.304C323.995,822.258 336.599,843.641 363.656,861.161C368.116,864.006 372.742,866.583 377.515,868.865C391.535,875.567 390.02,874.652 400.153,886.262C402.946,889.423 405.922,892.417 409.067,895.228C428.285,912.514 446.683,923.036 470.275,933.526C480.177,937.929 488.657,941.675 499.323,944.347C509.859,925.903 523.51,917.234 541.569,907.053C572.568,889.578 605.473,874.253 633.791,852.441C658.146,833.352 679.329,811.769 696.484,785.857C694.775,796.439 688.597,813.394 685.102,824.084C723.582,805.179 760.467,771.625 781.133,733.906C788.679,720.133 791.77,710.706 797.63,696.594C799.352,707.484 800.656,717.314 802.081,728.207C824.327,709.011 833.529,669.422 836.202,640.946C838.26,619.028 833.135,581.835 823.572,562.023C833.007,567.199 847.746,575.467 854.164,583.82C860.446,550.592 830.854,504.023 812.734,477.436C808.394,471.178 803.983,464.97 799.501,458.813C869.928,421.679 882.315,295.334 797.365,264.859C778.926,258.244 751.838,264.296 735.682,273.832C713.679,286.288 702.304,301.439 687.791,321.424C690.308,297.183 694.76,273.182 701.105,249.65C703.919,238.88 717.372,201.11 709.23,193.019C694.813,178.691 668.144,173.782 648.663,169.263C643.666,162.588 639.927,157.486 633.916,151.544C605.671,123.625 565.96,108.337 527.218,102.504C508.245,99.648 487.308,98.729 468.439,102.13C465.294,93.739 462.022,89.851 453.586,85.786C448.034,83.11 438.366,81.609 432.319,82.69ZM558.668,188.712C565.23,188.007 577.66,188.246 584.381,188.371C619.805,189.029 652.676,191.689 684.22,209.067C676.693,239.476 670.001,271.184 663.41,301.815C661.399,311.161 660.215,320.744 658.404,330.139C639.961,328.246 623.196,325.11 603.968,323.844C518.269,318.202 446.805,337.288 368.875,369.814C352.045,377.004 336.43,385.58 320.386,394.304C302.594,348.384 288.641,325.461 258.714,286.924C333.129,225.361 463.682,194.481 558.668,188.712ZM621.539,213.566C604.997,217.693 602.729,233.806 604.707,248.924C606.23,260.57 623.978,266.16 629.997,274.403C631.102,275.786 630.682,278.62 630.879,280.172C631.807,287.5 624.408,291.872 618.168,288.268C613.399,285.513 614.716,280.011 615.563,275.279C609.549,274.218 604.326,273.579 598.26,272.89C596.764,281.71 594.981,290.18 600.638,298.148C606.685,306.665 621.597,308.115 631.191,307.387C637.907,305.261 643.531,301.772 646.811,295.18C650.428,287.91 651.817,277.899 649.413,270.09C645.382,256.994 628.456,252.87 622.442,243.968C622.439,234.324 625.137,227.686 636.768,235.15C639.304,236.777 637.986,242.978 637.563,245.816L653.199,248.031C656.7,232.283 656.889,218.668 637.464,214.671C632.233,213.595 626.881,213.117 621.539,213.566ZM553.504,209.731C545.549,209.963 538.205,210.202 530.283,211.097C530.182,216.583 529.914,222.998 530.079,228.403L536.517,227.939C535.92,247.694 535.586,267.456 535.512,287.22L529.929,287.702C530.131,293.118 530.403,298.683 530.506,304.087C539.547,303.478 548.924,302.716 557.95,302.302C557.921,299.314 558.091,288.213 557.618,286.322C556.148,285.638 556.073,285.862 554.329,285.943C552.664,284.082 553.903,270.723 554.064,266.997L560.478,266.895L562.572,273.394C565.453,283.257 567.623,292.634 570.751,302.498C576.966,302.447 583.855,302.249 590.015,302.399C590.19,296.695 590.51,290.431 590.407,284.767C588.522,284.784 586.438,284.755 584.571,284.876L578.03,265.144C583.911,261.315 588.212,257.079 589.291,249.759C592.084,230.806 594.872,210.167 568.714,209.717C563.809,209.633 558.455,209.683 553.504,209.731ZM555.994,227.868C559.822,227.859 566.751,227.322 569.767,229.727C574.402,233.421 572.85,243.901 569.288,248.038C564.712,250.21 559.513,249.896 554.428,250.008C554.618,243.27 555.442,234.71 555.994,227.868ZM429.355,229.617C411.591,234.822 390.042,241.156 373.057,248.03C374.739,253.868 376.241,259.296 378.38,264.995L383.414,263.064C388.194,280.623 394.66,299.247 398.949,316.565L393.572,318.362C395.093,323.749 396.684,329.818 398.379,335.098C412.824,330.037 427.288,324.688 442.067,320.678C444.591,319.993 447.106,319.363 449.602,318.576C450.323,317.063 449.864,315.824 449.568,314.111C448.304,307.253 446.874,300.426 445.279,293.637C440.371,294.943 434.38,296.391 429.591,297.862C430.126,300.551 430.677,303.679 431.326,306.299C426.574,307.712 421.813,309.096 417.044,310.451C415.559,304.487 413.8,296.443 412.037,290.722C418.498,288.897 426.586,286.824 432.794,284.649L429.201,268.206C422.122,270.014 415.104,272.052 408.158,274.317L403.089,256.334C408.413,254.495 412.765,253.059 418.217,251.576C418.762,254.087 419.325,256.593 419.908,259.096C425.074,257.313 430.262,255.59 435.468,253.928C434.701,250.712 430.331,231.114 429.355,229.617ZM503.42,214.183C488.222,217.223 475.282,219.215 459.98,222.763C459.988,228.485 459.86,235.079 460.105,240.725L466.146,239.95C464.538,258.978 462.672,279.868 460.266,298.789L455.262,299.831C456.054,305.396 456.667,311.362 457.507,316.815C467.409,314.402 476.09,312.406 486.14,310.782C485.82,307.777 484.891,296.721 483.752,294.727C481.831,294.411 481.557,294.515 479.701,294.807C479.495,291.782 479.819,288.904 480.048,285.88C484.79,284.823 491.45,283.546 495.967,282.187C496.703,284.789 497.839,287.902 497.687,290.505C496.251,292.702 494.582,291.086 494.16,293.12C493.427,296.649 495.057,304.951 495.765,308.359L495.904,309.017C505.787,306.932 515.293,305.773 525.097,303.983C524.696,300.955 523.913,288.994 522.433,287.685L521.425,287.796C520.269,287.917 520.039,287.926 518.853,287.761C517.484,285.543 516.913,282.733 516.096,280.24C511.002,264.701 506.972,248.678 501.821,233.169L507.012,231.825C506.54,229.139 504.319,215.171 503.42,214.183ZM484.223,241.341C485.723,242.679 491.272,263.778 491.925,266.954C491.086,268.232 491.619,267.662 489.548,268.178C487.178,268.611 484.259,269.351 481.864,269.896C482.102,261.011 483.867,251.099 484.223,241.341ZM346.551,259.663C338.192,260.857 308.164,276.571 298.885,281.401C300.956,286.843 303.453,292.64 306.372,297.682L311.09,294.843C316.424,306.603 321.598,318.434 326.612,330.333C328.364,334.555 331.624,342.115 332.92,346.485L328.383,348.947C330.615,354.158 332.987,360.05 335.45,365.101C341.747,361.805 348.111,358.637 354.538,355.601C365.963,350.212 379.87,345.958 384.06,332.687C386.988,323.415 383.361,315.172 379.426,306.879C376.637,301.002 371.741,297.727 365.56,296.425C369.174,289.484 370.471,284.736 367.986,276.971C364.434,265.872 358.931,259.429 346.551,259.663ZM355.882,313.045C360.866,312.927 362.094,316.34 364.137,320.231C369.966,331.334 359.054,333.404 351.327,337.034L349.842,337.41C348.25,336.153 343.316,322.241 342.026,318.976C346.66,316.89 351.117,314.838 355.882,313.045ZM342.755,279.559C348.835,279.932 352.41,287.939 351.065,293.158C350.103,296.888 341.284,299.932 337.709,301.488C336.599,301.948 337.188,301.87 335.936,301.669C334.111,299.275 330.568,289.598 329.221,286.141C333.514,283.884 338.248,281.214 342.755,279.559ZM432.847,104.15C435.914,103.882 443.249,103.886 444.813,106.893C444.572,113.997 429.033,116.303 423.682,116.802C420.77,117.112 414.333,117.417 412.32,115.173C412.613,108.447 427.346,104.912 432.847,104.15ZM468.737,121.25C509.563,117.72 565.072,128.837 589.662,164.161C535.233,162.506 498.615,166.402 444.888,177.967C412.861,185.294 381.402,194.916 350.757,206.76C357.173,180.195 377.211,142.64 405.233,134.103C425.255,128.003 447.85,122.865 468.737,121.25ZM505.283,714.699C511.082,714.274 515.285,714.591 521.073,715.215C511.382,732.389 496.663,750.69 481.383,763.142C462.717,778.353 436.711,783.64 413.201,780.705C404.148,779.575 391.529,776.402 385.846,768.594C381.79,763.022 381.724,757.878 382.564,751.492C384.398,743.468 388.609,734.901 394.53,729.114C399.464,724.397 405.346,723.558 411.802,724.573C420.561,725.95 429.426,727.709 438.253,728.107C431.361,741.105 429.499,746.193 427.141,760.475C428.528,758.933 430.216,756.669 431.48,755.019C452.058,728.153 472.39,718.716 505.283,714.699ZM357.152,155.441L357.694,155.849C354.849,160.082 351.935,163.343 349.001,167.968C339.062,183.637 333.854,198.061 329.024,215.746C317.969,221.088 307.717,225.662 296.674,231.313C296.258,231.354 296.538,231.362 295.888,231.015C296.423,227.847 300.39,219.707 301.961,216.751C314.622,192.931 334.327,169.97 357.152,155.441Z" style="fill:rgb(255,49,49);"/>
        <path d="M346.551,259.663C358.931,259.429 364.434,265.872 367.986,276.971C370.471,284.736 369.174,289.484 365.56,296.425C371.741,297.727 376.637,301.002 379.426,306.879C383.361,315.172 386.988,323.415 384.06,332.687C379.87,345.958 365.963,350.212 354.538,355.601C348.111,358.637 341.747,361.805 335.45,365.101C332.987,360.05 330.615,354.158 328.383,348.947L332.92,346.485C331.624,342.115 328.364,334.555 326.612,330.333C321.598,318.434 316.424,306.603 311.09,294.843L306.372,297.682C303.453,292.64 300.956,286.843 298.885,281.401C308.164,276.571 338.192,260.857 346.551,259.663ZM342.755,279.559C338.248,281.214 333.514,283.884 329.221,286.141C330.568,289.598 334.111,299.275 335.936,301.669C337.188,301.87 336.599,301.948 337.709,301.488C341.284,299.932 350.103,296.888 351.065,293.158C352.41,287.939 348.835,279.932 342.755,279.559ZM355.882,313.045C351.117,314.838 346.66,316.89 342.026,318.976C343.316,322.241 348.25,336.153 349.842,337.41L351.327,337.034C359.054,333.404 369.966,331.334 364.137,320.231C362.094,316.34 360.866,312.927 355.882,313.045ZM553.504,209.731C558.455,209.683 563.809,209.633 568.714,209.717C594.872,210.167 592.084,230.806 589.291,249.759C588.212,257.079 583.911,261.315 578.03,265.144L584.571,284.876C586.438,284.755 588.522,284.784 590.407,284.767C590.51,290.431 590.19,296.695 590.015,302.399C583.855,302.249 576.966,302.447 570.751,302.498C567.623,292.634 565.453,283.257 562.572,273.394L560.478,266.895L554.064,266.997C553.903,270.723 552.664,284.082 554.329,285.943C556.073,285.862 556.148,285.638 557.618,286.322C558.091,288.213 557.921,299.314 557.95,302.302C548.924,302.716 539.547,303.478 530.506,304.087C530.403,298.683 530.131,293.118 529.929,287.702L535.512,287.22C535.586,267.456 535.92,247.694 536.517,227.939L530.079,228.403C529.914,222.998 530.182,216.583 530.283,211.097C538.205,210.202 545.549,209.963 553.504,209.731ZM555.994,227.868C555.442,234.71 554.618,243.27 554.428,250.008C559.513,249.896 564.712,250.21 569.288,248.038C572.85,243.901 574.402,233.421 569.767,229.727C566.751,227.322 559.822,227.859 555.994,227.868ZM503.42,214.183C504.319,215.171 506.54,229.139 507.012,231.825L501.821,233.169C506.972,248.678 511.002,264.701 516.096,280.24C516.913,282.733 517.484,285.543 518.853,287.761C520.039,287.926 520.269,287.917 521.425,287.796L522.433,287.685C523.913,288.994 524.696,300.955 525.097,303.983C515.293,305.773 505.787,306.932 495.904,309.017L495.765,308.359C495.057,304.951 493.427,296.649 494.16,293.12C494.582,291.086 496.251,292.702 497.687,290.505C497.839,287.902 496.703,284.789 495.967,282.187C491.45,283.546 484.79,284.823 480.048,285.88C479.819,288.904 479.495,291.782 479.701,294.807C481.557,294.515 481.831,294.411 483.752,294.727C484.891,296.721 485.82,307.777 486.14,310.782C476.09,312.406 467.409,314.402 457.507,316.815C456.667,311.362 456.054,305.396 455.262,299.831L460.266,298.789C462.672,279.868 464.538,258.978 466.146,239.95L460.105,240.725C459.86,235.079 459.988,228.485 459.98,222.763C475.282,219.215 488.222,217.223 503.42,214.183ZM484.223,241.341C483.867,251.099 482.102,261.011 481.864,269.896C484.259,269.351 487.178,268.611 489.548,268.178C491.619,267.662 491.086,268.232 491.925,266.954C491.272,263.778 485.723,242.679 484.223,241.341ZM429.355,229.617C430.331,231.114 434.701,250.712 435.468,253.928C430.262,255.59 425.074,257.313 419.908,259.096C419.325,256.593 418.762,254.087 418.217,251.576C412.765,253.059 408.413,254.495 403.089,256.334L408.158,274.317C415.104,272.052 422.122,270.014 429.201,268.206L432.794,284.649C426.586,286.824 418.498,288.897 412.037,290.722C413.8,296.443 415.559,304.487 417.044,310.451C421.813,309.096 426.574,307.712 431.326,306.299C430.677,303.679 430.126,300.551 429.591,297.862C434.38,296.391 440.371,294.943 445.279,293.637C446.874,300.426 448.304,307.253 449.568,314.111C449.864,315.824 450.323,317.063 449.602,318.576C447.106,319.363 444.591,319.993 442.067,320.678C427.288,324.688 412.824,330.037 398.379,335.098C396.684,329.818 395.093,323.749 393.572,318.362L398.949,316.565C394.66,299.247 388.194,280.623 383.414,263.064L378.38,264.995C376.241,259.296 374.739,253.868 373.057,248.03C390.042,241.156 411.591,234.822 429.355,229.617ZM621.539,213.566C626.881,213.117 632.233,213.595 637.464,214.671C656.889,218.668 656.7,232.283 653.199,248.031L637.563,245.816C637.986,242.978 639.304,236.777 636.768,235.15C625.137,227.686 622.439,234.324 622.442,243.968C628.456,252.87 645.382,256.994 649.413,270.09C651.817,277.899 650.428,287.91 646.811,295.18C643.531,301.772 637.907,305.261 631.191,307.387C621.597,308.115 606.685,306.665 600.638,298.148C594.981,290.18 596.764,281.71 598.26,272.89C604.326,273.579 609.549,274.218 615.563,275.279C614.716,280.011 613.399,285.513 618.168,288.268C624.408,291.872 631.807,287.5 630.879,280.172C630.682,278.62 631.102,275.786 629.997,274.403C623.978,266.16 606.23,260.57 604.707,248.924C602.729,233.806 604.997,217.693 621.539,213.566Z" style="fill:white;"/>
        <path d="M545.815,430.145C568.349,428.55 581.651,447.601 582.83,468.038C583.116,472.979 582.997,477.654 582.873,482.586C580.719,475.097 578.573,468.59 573.65,462.352C565.156,451.59 550.4,450.606 540.472,460.094C530.432,469.689 527.701,484.034 527.362,497.414C527.728,507.909 529.714,515.713 534.132,525.265C530.391,528.28 526.667,531.316 522.96,534.371C512.754,525.057 507.66,514.836 505.424,501.125C500.978,473.847 514.844,434.646 545.815,430.145ZM341.408,454.593C357.18,453.835 361.377,464.501 364.584,477.719C363.949,477.142 363.296,476.584 362.626,476.048C346.747,463.421 332.863,481.725 330.054,496.28C328.649,503.564 329.012,507.463 330.113,514.731C330.725,518.168 331.328,520.201 332.346,523.556C329.137,525.449 325.892,527.28 322.613,529.049C312.479,510.722 312.072,489.776 321.697,470.815C326.02,462.298 332.263,457.372 341.408,454.593ZM564.02,477.379C573.397,477.324 574.548,487.822 567.069,492.962C559.293,493.806 556.864,483.122 564.02,477.379ZM354.654,492.794C362.254,492.913 360.503,499.884 357.168,504.063C355.854,504.097 355.067,504.129 353.939,503.274C352.893,502.481 352.219,501.294 352.075,499.99C351.699,496.853 352.824,495.092 354.654,492.794Z" style="fill:white;"/>
    </g>
</svg>
