<svg width="100%" height="100%" viewBox="0 0 830 819" version="1.1" xmlns="http://www.w3.org/2000/svg" xmlns:xlink="http://www.w3.org/1999/xlink" xml:space="preserve" xmlns:serif="http://www.serif.com/" style="fill-rule:evenodd;clip-rule:evenodd;stroke-linejoin:round;stroke-miterlimit:2;">
    <g transform="matrix(1,0,0,1,-112.169,-98.749)">
        <path d="M281.692,122.598L282.149,122.742C281.729,125.207 268.906,142.009 266.397,145.871C258.006,158.786 250.403,172.792 244.941,187.214C238.146,205.156 231.782,229.693 240.256,248.043C244.87,258.034 254.565,264.804 264.726,268.404C295.843,279.431 333.555,276.525 366.125,276.165C373.326,276.085 384.828,277.086 391.388,275.436C395.404,274.426 399.644,270.946 403.479,269.155C427.212,258.069 487.328,266.306 513.194,271.926C530.597,275.707 547.064,281.689 564.953,283.23C577.177,284.283 589.839,280.878 601.966,279.433C629.74,276.125 660.2,276.804 686.968,285.457C692.125,287.124 696.377,290.445 701.367,292.118C707.052,294.025 718.988,293.415 725.212,293.621C751.874,294.503 796.357,297.359 820.163,285.447C833.492,278.777 842.629,267.826 847.253,253.699C855.903,227.269 850.069,195.581 840.177,170.136C836.565,160.845 832.042,151.955 827.555,143.066C834.435,146.275 841.089,149.947 847.471,154.057C908.146,193.827 952.38,280.402 908.391,348.953C888.31,380.245 853.921,396.439 818.297,403.595C831.718,411.716 843.961,418.533 859.171,422.898C836.608,451.265 795.824,488.759 756.133,486.64C754.288,486.542 750.521,485.143 748.65,484.504C742.634,499.062 734.021,524.284 734.151,540.327C734.188,544.847 743.083,566.251 745.57,571.615C764.634,574.01 773.427,580.792 779.694,599.664C783.366,610.72 783.138,623.659 780.26,634.856C779.08,639.447 777.062,644.086 776.234,648.783C774.826,658.048 775.448,668.936 774.638,678.152C774.019,685.186 767.84,698.085 764.457,704.481C759.954,712.543 757.898,718.723 749.676,723.816C743.995,727.335 740.165,728.864 733.673,730.3C730.274,737.646 726.257,744.656 720.648,750.522C702.186,769.83 676.385,783.735 650.502,789.195C619.427,795.923 586.952,789.786 560.475,772.182C553.797,780.768 543.395,791.073 535.841,800.153C512.127,828.658 490.387,859.689 475.009,893.549C450.356,881.843 418.451,859.682 395.899,843.453C322.769,791.722 256.702,730.668 199.372,661.839C174.371,631.754 154.276,604.925 133.893,571.569C136.557,564.282 145.138,550.572 149.413,543.995C157.52,531.456 166.065,519.207 175.032,507.269C183.776,495.626 192.841,484.498 201.382,472.681C180.156,457.045 156.683,436.372 139.72,416.067C162.428,404.62 185.355,395.17 208.907,385.646C176.899,374.03 144.754,351.865 136.141,316.915C113.931,226.787 201.693,144.118 281.692,122.598ZM217.909,629.462C219.656,632.24 225.275,638.722 227.425,641.437C236.978,653.501 247.772,664.685 257.652,676.4C256.717,670.651 257.113,660.389 257.705,654.651C260.835,624.33 270.79,596.499 284.409,569.428C288.68,560.939 291.463,554.163 296.763,545.883C295.7,555.197 292.248,564.771 290.749,574.288C286.357,602.166 288.502,633.268 294.622,660.737C304.576,705.416 326.615,735.365 359.92,765.521C372.675,777.189 386.224,787.959 400.469,797.753C408.967,803.584 417.412,808.284 426.039,813.794C419.203,803.788 409.834,793.643 404.082,783.009C380.837,740.038 365.164,695.817 360.378,647.358C359.171,645.606 357.457,643.635 355.918,642.17C324.575,612.34 313.6,562.24 325.625,521.211C327.827,513.7 329.784,505.093 331.797,497.246C309.664,506.374 288.114,507.619 264.613,503.471C251.679,500.656 246.088,498.443 234.268,492.678C208.314,519.101 193.592,537.7 174.905,569.834C186.251,587.999 203.712,612.971 217.909,629.462ZM726.303,472.922C722.018,481.317 717.944,489.502 707.294,490.24L713.46,499.13C711.472,500.802 710.821,501.507 709.137,503.497L712.358,506.838C715.198,510.233 716.07,512.745 717.569,516.796C718.399,510.651 728.003,475.195 726.303,472.922ZM715.815,456.204C714.247,458.158 712.394,459.409 710.275,460.731C709.589,470.588 706.973,475.017 696.467,476.367C697.536,477.871 698.632,479.486 699.775,480.923C713.912,483.168 720.19,466.38 715.815,456.204ZM515.772,736.762L515.281,737.385C501.842,754.281 483.188,767.411 474.184,787.958C467.301,803.663 462.166,818.874 463.721,836.315C465.384,833.83 466.691,831.928 468.077,829.274C476.699,811.913 488.633,794.142 500.642,778.934C508.94,768.425 517.622,758.578 525.732,747.798C522.754,743.926 519.668,739.758 515.772,736.762ZM728.706,345.423C729.914,353.751 729.829,363.193 729.405,371.564C731.975,374.747 734.256,378.049 735.942,381.784C780.946,378.614 825.787,377.948 865.047,351.647C910.48,321.211 902.808,254.42 874.211,215.03C872.243,211.158 870.609,208.397 868.309,204.695C874.684,227.858 876.745,256.064 864.542,277.499C837.956,324.2 775.064,319.422 728.956,317.508C725.774,317.376 721.962,316.848 718.909,317.707C720.673,319.463 720.173,317.237 721.868,319.345C727.061,325.804 727.772,337.545 728.706,345.423ZM771.847,405.739C762.434,406.195 753.063,407.297 743.801,409.035C750.308,426.609 748.613,420.361 765.149,423.969C772.605,425.596 785.144,432.717 792.375,436.55C778.778,439.388 770.909,440.352 757.006,441.868L765.088,447.071C753.46,449.768 748.442,449.214 737.223,450.431L739.319,454.675C743.131,459.586 750.901,463.543 757.066,463.996C779.729,465.662 802.468,444.565 817.462,430.434C805.118,425.035 793.241,418.626 781.952,411.273C779.661,409.76 774.13,405.466 771.847,405.739ZM676.893,711.213C661.093,712.38 645.886,717.009 631.202,722.846C611.001,730.876 593.302,740.394 571.125,742.255C574.295,749.066 576.444,753.922 583.182,758.088C591.536,763.252 601.664,765.801 611.371,766.735C647.604,770.325 701.875,752.459 715.492,715.347C703.841,712.214 688.991,709.407 676.893,711.213ZM202.671,440.734L203.131,441.224C224.192,457.963 244.992,470.702 271.926,476.057C291.458,479.941 309.072,471.842 326.458,463.389C311.277,463.995 287.146,460.628 273.67,453.927C278.673,453.074 284.035,452.342 288.892,451.015C275.289,449.648 262.55,448.052 249.172,445.011C242.552,443.506 235.477,440.715 229.438,439.374C239.728,435.011 249.7,430.335 260.478,427.59C283.597,421.702 308.56,425.936 330.762,433.897C350.857,441.102 365.466,443.747 387.042,443.333C386.67,451.399 385.547,458.49 384.081,466.403C380.689,484.714 377.587,502.952 375.714,521.49L368.362,492.118C356.861,522.948 346.205,556.112 360.676,587.759C372.902,614.496 395.259,628.048 422.173,637.374C445.322,645.395 474.758,656.695 494.52,671.676C486.203,652.557 481.682,633.093 475.411,613.291C474.588,610.694 473.863,607.936 473.129,605.307C489.378,622.188 510.377,646.505 521.64,667.002C524.733,672.631 527.454,678.457 529.793,684.439C533.779,694.544 536.749,709.924 545.805,716.072C569.096,731.885 592.306,718.758 614.476,709.852C650.367,695.435 698.421,682.041 732.574,706.983C741.205,697.517 750.405,687.552 749.692,673.801C749.313,666.493 745.235,658.263 739.111,654.093C733.538,659.163 730.216,661.795 723.957,666.066C718.32,669.913 708.923,675.769 704.176,680.249C709.813,669.723 712.434,661.176 716.862,650.445C719.229,644.71 727.631,630.113 731.351,625.009C733.024,623.275 733.421,623.026 735.5,621.783C739.443,620.204 743.581,618.63 747.104,622.197C746.915,625.936 750.438,635.596 751.883,639.221C760.122,628.33 764.997,610.985 755.512,599.302C747.83,590.657 739.615,595.661 730.566,599.788C709.602,609.35 694.003,613.789 671.022,610.358C666.184,608.774 660.968,607.849 656.06,606.368C641.889,602.091 627.618,597.854 612.973,595.513C610.403,595.102 604.808,594.346 602.266,594.654C579.424,597.424 568.429,632.172 573.232,650.963C571.986,650.205 565.075,641.798 563.325,640.006C559.896,646.164 558.836,649.479 556.844,656.31C550.095,643.681 548.112,639.759 548.408,625.732C551.3,606.425 556.187,599.563 571.639,587.169C587.138,574.737 599.692,571.287 619.343,574.088C653.011,578.887 680.791,594.965 715.658,583.227C705.923,553.135 693.708,522.906 681.925,493.48C671.91,468.47 656.061,448.47 664.724,419.154C665.24,433.259 668.428,442.244 674.929,454.826C693.131,459.714 697.495,455.45 709.547,442.146C731.06,418.394 705.448,406.989 694.912,386.727C689.233,375.806 686.526,362.516 684.858,350.347C689.822,356.384 694.834,362.996 699.659,369.183C704.516,352.154 704.603,334.535 690.769,321.153C686.504,317.027 676.866,310.214 671.024,308.83C644.85,302.631 615.769,306.911 589.041,307.73C592.666,311.574 596.538,315.18 600.63,318.523C571.634,316.504 548.045,308.438 519.925,301.347C496.675,295.484 471.096,290.448 447.004,290.364C443.453,290.351 433.242,290.794 429.866,291.9C426.255,292.103 421.318,293.166 417.851,294.228L421.182,301.421C425.554,316.658 426.909,323.12 425.284,339.083C421.228,365.498 411.974,382.089 387.364,394.439C401.997,392.136 408.779,392.252 423.06,396.912L422.379,397.071C418.341,398.04 413.645,399.677 409.751,401.144C388.027,409.327 364.935,413.134 341.811,409.99C336.588,409.28 331.202,407.125 326.061,406.215C311.715,401.562 284.652,392.908 269.781,394.306C254.454,395.746 227.881,406.843 213.853,413.375C205.247,417.383 196.469,423.778 187.792,427.818C190.841,431.055 198.97,438.465 202.671,440.734ZM648.781,635.445C650.903,639.655 653.26,643.412 655.177,647.866C659.133,657.062 661.076,666.558 663.042,676.294C654.395,667.322 639.972,659.252 629.659,651.916C621.445,657.888 614.057,667.462 606.203,674.881C596.207,658.434 594.307,646.436 602.093,628.51C603.496,625.279 610.67,624.244 613.715,623.603C623.023,623.246 636.272,622.175 643.492,628.952C645.086,630.448 647.392,633.584 648.781,635.445ZM560.613,461.805C563.752,462.352 566.084,462.794 569.272,462.952C589.574,462.654 588.985,451.285 589.772,433.315C590.227,422.918 585.065,414.385 578.922,406.252L579.484,406.01C593.17,418.874 609.408,441.929 610,461.432C610.036,462.694 610.058,463.956 610.066,465.219C604.767,480.068 598.459,483.127 583.805,486.34C585.176,492.625 586.54,498.789 588.444,504.738C590.813,512.141 607.629,550.334 605.843,555.415C599.624,547.366 593.096,539.56 586.273,532.015C572.328,516.398 567.801,512.782 559.883,493.072C556.207,495.744 552.42,498.261 548.533,500.617C531.283,510.843 511.68,516.006 491.827,514.162C488.123,513.818 485.247,514.364 481.5,513.395L481.452,513.055C490.591,510.639 494.894,510.14 504.118,506.266C510.463,504.39 520.132,497.66 525.296,493.759C516.95,495.613 506.979,495.584 498.871,492.685C476.278,484.606 463.054,456.983 471.18,434.421C455.252,429.882 444.756,430.118 428.533,433.258C444.829,418.239 461.522,406.325 484.398,415.916C496.427,420.959 506.783,424.26 517.471,432.735C532.138,444.366 541.24,458.446 560.613,461.805ZM489.017,442.798C477.152,466.294 500.719,489.057 524.011,480.648C527.609,479.349 530.69,477.408 533.802,475.209L534.1,474.21C531.871,472.043 529.598,470.453 527.113,468.6C522.362,472.417 518.046,474.892 511.56,474.045C506.822,473.463 502.53,470.96 499.69,467.123C494.971,460.646 496.09,454.247 499.056,447.44C495.266,445.143 493.381,444.094 489.017,442.798ZM399.326,342.008C400.736,334.777 400.95,327.958 399.272,320.769C396.878,310.51 390.957,306.304 382.509,301.224C336.226,299.959 274.781,307.078 233.158,282.615C222.141,276.14 214.112,263.42 211.828,250.912C206.437,221.383 216.165,192.501 231.926,168.044C223.971,173.828 213.356,185.037 206.898,192.598C183.151,216.622 162.365,251.239 162.45,285.75C162.491,302.586 167.648,319.403 179.817,331.464C213.255,364.604 296.814,374.518 341.969,377.152C350.831,377.669 359.823,378.363 368.697,378.237C375.604,378.139 380.455,375.208 385.129,370.336C392.6,362.548 396.874,352.366 399.326,342.008Z" style="fill:rgb(0,29,59);"  data-color='color-3'/>
        <path d="M421.182,301.421L417.851,294.228C421.318,293.166 426.255,292.103 429.866,291.9C433.242,290.794 443.453,290.351 447.004,290.364C471.096,290.448 496.675,295.484 519.925,301.347C548.045,308.438 571.634,316.504 600.63,318.523C596.538,315.18 592.666,311.574 589.041,307.73C615.769,306.911 644.85,302.631 671.024,308.83C676.866,310.214 686.504,317.027 690.769,321.153C704.603,334.535 704.516,352.154 699.659,369.183C694.834,362.996 689.822,356.384 684.858,350.347C686.526,362.516 689.233,375.806 694.912,386.727C705.448,406.989 731.06,418.394 709.547,442.146C697.495,455.45 693.131,459.714 674.929,454.826C668.428,442.244 665.24,433.259 664.724,419.154C656.061,448.47 671.91,468.47 681.925,493.48C693.708,522.906 705.923,553.135 715.658,583.227C680.791,594.965 653.011,578.887 619.343,574.088C599.692,571.287 587.138,574.737 571.639,587.169C556.187,599.563 551.3,606.425 548.408,625.732C536.002,618.984 532.667,570.385 534.399,556.998C528.595,566.106 518.39,586.959 516.677,597.351C512.513,587.056 500.915,553.931 493.846,547.386C467.007,543.92 436.541,534.584 423.927,508.253C418.139,496.172 416.723,482.421 424.115,470.785C429.686,462.014 431.707,457.363 441.777,452.539C443.581,478.422 462.365,500.905 488.254,505.211C493.333,506.055 498.18,505.656 503.137,506.16L504.118,506.266C494.894,510.14 490.591,510.639 481.452,513.055L481.5,513.395C485.247,514.364 488.123,513.818 491.827,514.162C511.68,516.006 531.283,510.843 548.533,500.617C552.42,498.261 556.207,495.744 559.883,493.072C567.801,512.782 572.328,516.398 586.273,532.015C593.096,539.56 599.624,547.366 605.843,555.415C606.294,556.275 608.377,560.212 608.853,560.633C613.406,564.66 614.12,564.72 617.366,570.114C617.406,564.378 618.516,558.908 617.634,553.134C614.659,533.646 602.483,515.268 605.819,494.98C607.29,486.028 612.495,474.181 610.066,465.219C610.058,463.956 610.036,462.694 610,461.432C609.408,441.929 593.17,418.874 579.484,406.01L578.922,406.252C585.065,414.385 590.227,422.918 589.772,433.315C588.985,451.285 589.574,462.654 569.272,462.952C567.831,462.501 566.916,462.368 565.831,461.319L566.773,461.451C563.919,458.503 562.181,457.541 558.684,455.321C555.609,453.221 547.975,445.538 545.382,442.589C524.889,419.281 501.389,395.269 469.632,388.603C465.813,387.801 461.956,387.19 458.076,386.77C452.435,386.182 438.724,386.12 434.542,383.408C435.986,380.741 441.011,380.552 443.666,379.429C464.541,370.595 489.493,370.191 511.397,375.066C487.72,356.631 456.566,335.369 425.284,339.083C426.909,323.12 425.554,316.658 421.182,301.421ZM755.512,599.302C764.997,610.985 760.122,628.33 751.883,639.221C750.438,635.596 746.915,625.936 747.104,622.197C747.745,619.144 747.878,614.909 748.078,611.7C744.794,613.249 740.863,616.034 737.854,618.137C735.731,619.622 735.791,619.773 735.5,621.783C733.421,623.026 733.024,623.275 731.351,625.009C727.409,625.159 717.673,633.555 714.1,636.193C694.903,650.363 675.911,654.101 655.698,639.547C654.45,638.649 650.152,635.836 648.781,635.445C647.392,633.584 645.086,630.448 643.492,628.952C636.272,622.175 623.023,623.246 613.715,623.603C608.751,621.164 602.116,619.198 596.737,617.528C594.89,615.342 594.371,614.625 592.959,612.141C584.386,629.078 585.066,640.749 590.322,659.266C591.791,664.442 597.545,673.211 596.908,676.739C589.86,677.597 580.966,662.267 576.83,657.084C575.514,655.436 574.449,652.605 573.232,650.963C568.429,632.172 579.424,597.424 602.266,594.654C604.808,594.346 610.403,595.102 612.973,595.513C627.618,597.854 641.889,602.091 656.06,606.368C660.968,607.849 666.184,608.774 671.022,610.358C694.003,613.789 709.602,609.35 730.566,599.788C739.615,595.661 747.83,590.657 755.512,599.302ZM202.671,440.734C198.97,438.465 190.841,431.055 187.792,427.818C196.469,423.778 205.247,417.383 213.853,413.375C227.881,406.843 254.454,395.746 269.781,394.306C284.652,392.908 311.715,401.562 326.061,406.215C323.797,407.359 295.255,407.974 290.321,408.321C272.366,409.586 263.067,412.285 246.109,417.304C235.475,422.538 210.424,432.749 203.131,441.224L202.671,440.734ZM217.909,629.462C203.712,612.971 186.251,587.999 174.905,569.834C193.592,537.7 208.314,519.101 234.268,492.678C246.088,498.443 251.679,500.656 264.613,503.471C258.983,508.259 253.51,515.697 249.567,521.925C231.292,550.79 221.153,586.664 218.427,620.521C218.197,623.498 218.025,626.479 217.909,629.462Z" style="fill:rgb(155,27,39);"  data-color='color-1'/>
        <path d="M751.967,598.745C744.898,603.815 730.294,605.747 721.899,610.554C714.097,615.022 702.413,616.381 693.646,617.803C667.674,621.632 643.309,611.756 618.487,606.195C612.412,604.834 595.743,611.402 592.403,606.052C593.198,603.29 600.776,603.994 603.53,603.77C622.26,602.244 638.771,608.923 656.647,612.089C663.858,613.321 671.161,613.944 678.477,613.952C687.019,615.063 710.35,612.57 718.645,609.053C723.046,607.188 729.217,603.453 733.881,601.771C737.404,600.501 748.585,597.112 751.967,598.745ZM421.182,301.421L417.851,294.228C421.318,293.166 426.255,292.103 429.866,291.9L429.865,292.076L428.897,292.775C434.41,295.558 446.773,296.601 453.406,297.543C475.564,300.571 497.537,304.833 519.22,310.308C550.157,317.925 582.136,330.824 614.722,322.289C630.002,318.287 643.781,312.399 660.011,315.753C668.985,317.412 678.417,328.356 680.333,336.96L679.838,337.302C678.241,335.767 674.483,330.264 672.992,328.204C659.709,309.85 648.935,318.071 632.122,322.994C619.692,326.729 606.799,328.702 593.821,328.856C577.149,329.07 568.199,325.398 552.452,321.81C529.295,316.533 507.439,311.503 483.91,307.938C473.41,306.375 462.868,305.106 452.296,304.134C446.24,303.603 425.249,302.944 421.182,301.421Z" style="fill:white;fill-opacity:0.25;"/>
        <path d="M319.563,98.749L319.94,98.937C319.857,100.253 311.683,110.263 309.909,112.557C289.43,138.933 268.736,167.338 257.857,199.153C250.509,220.641 247.872,247.451 274.872,254.847C304.715,263.022 340.089,259.823 370.817,258.951C376.508,258.79 384.378,258.02 390.256,257.542C406.805,251.64 417.613,248.272 435.993,248.62C462.747,248.997 489.414,251.746 515.682,256.834C533.975,260.354 551.588,265.514 570.238,267.204C580.386,268.124 591.045,264.732 601.211,263.879C623.392,262.015 651.91,261.918 673.705,266.099C681.771,267.646 689.416,270.058 697.272,272.383C722.011,279.704 792.189,283.489 814.492,271.168C824.286,265.757 830.196,256.693 833.197,246.083C843.188,210.758 824.869,171.725 808.985,140.939C803.945,131.018 798.762,121.171 793.437,111.401C838.707,128.336 868.983,143.9 900.125,181.154C944.415,234.138 960.053,308.965 914.344,366.739C899.824,385.091 884.458,395.315 863.804,405.467C870.412,408.992 877.768,411.899 884.594,415.435C865.038,440.343 849.373,460.433 823.189,478.761C800.147,494.89 787.757,498.991 759.56,503.204C753.366,517.732 752.159,523.726 749.557,538.738C752.375,545.284 754.115,550.978 756.075,557.742C780.561,562.208 793.769,583.123 797.201,606.489C798.705,616.45 798.254,626.609 795.872,636.398C795.198,639.182 793.103,646.291 792.866,648.648C792.121,656.048 792.25,664.266 791.825,671.782C790.989,686.58 786.675,696.498 779.921,709.425C777.445,714.165 775.942,718.178 772.612,722.642C763.851,734.232 757.419,737.053 744.926,743.187C732.841,766.785 700.645,788.575 676.161,797.73C648.364,808.122 613.702,809.89 585.174,801.142C577.463,798.778 571.633,796.117 564.338,792.82C562.129,795.006 560.134,797.268 558.079,799.604C534.535,826.374 513.649,855.16 497.117,886.807C491.75,897.081 487.569,907.498 482.342,917.641C441.833,896.715 413.045,877.839 375.992,850.914C299.115,795.49 230.264,729.709 171.394,655.437C152.298,631.61 131.187,603.877 115.513,577.816C116.474,554.09 163.166,497.239 178.319,477.393C152.579,457.19 133.316,435.679 112.169,411.124C118.541,408.381 127.024,403.672 133.525,400.471C145.076,394.78 156.778,389.401 168.618,384.339C94.639,335.298 104.888,250.129 154.968,188.467C188.619,147.325 234.66,118.156 286.234,105.305C297.499,102.378 307.936,99.967 319.563,98.749ZM281.692,122.598C201.693,144.118 113.931,226.787 136.141,316.915C144.754,351.865 176.899,374.03 208.907,385.646C185.355,395.17 162.428,404.62 139.72,416.067C156.683,436.372 180.156,457.045 201.382,472.681C192.841,484.498 183.776,495.626 175.032,507.269C166.065,519.207 157.52,531.456 149.413,543.995C145.138,550.572 136.557,564.282 133.893,571.569C154.276,604.925 174.371,631.754 199.372,661.839C256.702,730.668 322.769,791.722 395.899,843.453C418.451,859.682 450.356,881.843 475.009,893.549C490.387,859.689 512.127,828.658 535.841,800.153C543.395,791.073 553.797,780.768 560.475,772.182C586.952,789.786 619.427,795.923 650.502,789.195C676.385,783.735 702.186,769.83 720.648,750.522C726.257,744.656 730.274,737.646 733.673,730.3C740.165,728.864 743.995,727.335 749.676,723.816C757.898,718.723 759.954,712.543 764.457,704.481C767.84,698.085 774.019,685.186 774.638,678.152C775.448,668.936 774.826,658.048 776.234,648.783C777.062,644.086 779.08,639.447 780.26,634.856C783.138,623.659 783.366,610.72 779.694,599.664C773.427,580.792 764.634,574.01 745.57,571.615C743.083,566.251 734.188,544.847 734.151,540.327C734.021,524.284 742.634,499.062 748.65,484.504C750.521,485.143 754.288,486.542 756.133,486.64C795.824,488.759 836.608,451.265 859.171,422.898C843.961,418.533 831.718,411.716 818.297,403.595C853.921,396.439 888.31,380.245 908.391,348.953C952.38,280.402 908.146,193.827 847.471,154.057C841.089,149.947 834.435,146.275 827.555,143.066C832.042,151.955 836.565,160.845 840.177,170.136C850.069,195.581 855.903,227.269 847.253,253.699C842.629,267.826 833.492,278.777 820.163,285.447C796.357,297.359 751.874,294.503 725.212,293.621C718.988,293.415 707.052,294.025 701.367,292.118C696.377,290.445 692.125,287.124 686.968,285.457C660.2,276.804 629.74,276.125 601.966,279.433C589.839,280.878 577.177,284.283 564.953,283.23C547.064,281.689 530.597,275.707 513.194,271.926C487.328,266.306 427.212,258.069 403.479,269.155C399.644,270.946 395.404,274.426 391.388,275.436C384.828,277.086 373.326,276.085 366.125,276.165C333.555,276.525 295.843,279.431 264.726,268.404C254.565,264.804 244.87,258.034 240.256,248.043C231.782,229.693 238.146,205.156 244.941,187.214C250.403,172.792 258.006,158.786 266.397,145.871C268.906,142.009 281.729,125.207 282.149,122.742L281.692,122.598ZM399.326,342.008C396.874,352.366 392.6,362.548 385.129,370.336C380.455,375.208 375.604,378.139 368.697,378.237C359.823,378.363 350.831,377.669 341.969,377.152C296.814,374.518 213.255,364.604 179.817,331.464C167.648,319.403 162.491,302.586 162.45,285.75C162.365,251.239 183.151,216.622 206.898,192.598C205.735,198.021 199.337,206.934 196.882,212.908C185.966,239.464 181.076,271.095 194.945,297.527C204.688,315.267 232.197,325.35 250.806,329.833C286.018,338.316 324.952,341.071 361.185,341.943C368.493,342.128 375.804,342.13 383.111,341.948C387.968,341.857 394.637,341.487 399.326,342.008ZM874.211,215.03C902.808,254.42 910.48,321.211 865.047,351.647C825.787,377.948 780.946,378.614 735.942,381.784C734.256,378.049 731.975,374.747 729.405,371.564C729.829,363.193 729.914,353.751 728.706,345.423C737.331,345.526 746.663,347.591 755.289,347.633C795.684,347.831 848.066,341.872 873.4,306.477C896.087,274.779 884.39,248.429 874.289,215.518C874.263,215.355 874.237,215.193 874.211,215.03Z" style="fill:rgb(145,153,161);"/>
        <path d="M206.898,192.598C213.356,185.037 223.971,173.828 231.926,168.044C216.165,192.501 206.437,221.383 211.828,250.912C214.112,263.42 222.141,276.14 233.158,282.615C274.781,307.078 336.226,299.959 382.509,301.224C390.957,306.304 396.878,310.51 399.272,320.769C400.95,327.958 400.736,334.777 399.326,342.008C394.637,341.487 387.968,341.857 383.111,341.948C375.804,342.13 368.493,342.128 361.185,341.943C324.952,341.071 286.018,338.316 250.806,329.833C232.197,325.35 204.688,315.267 194.945,297.527C181.076,271.095 185.966,239.464 196.882,212.908C199.337,206.934 205.735,198.021 206.898,192.598ZM728.706,345.423C727.772,337.545 727.061,325.804 721.868,319.345C720.173,317.237 720.673,319.463 718.909,317.707C721.962,316.848 725.774,317.376 728.956,317.508C775.064,319.422 837.956,324.2 864.542,277.499C876.745,256.064 874.684,227.858 868.309,204.695C870.609,208.397 872.243,211.158 874.211,215.03C874.237,215.193 874.263,215.355 874.289,215.518C884.39,248.429 896.087,274.779 873.4,306.477C848.066,341.872 795.684,347.831 755.289,347.633C746.663,347.591 737.331,345.526 728.706,345.423Z" style="fill:rgb(234,233,223);"/>
        <path d="M747.104,622.197C743.581,618.63 739.443,620.204 735.5,621.783C735.791,619.773 735.731,619.622 737.854,618.137C740.863,616.034 744.794,613.249 748.078,611.7C747.878,614.909 747.745,619.144 747.104,622.197ZM610.066,465.219C612.495,474.181 607.29,486.028 605.819,494.98C602.483,515.268 614.659,533.646 617.634,553.134C618.516,558.908 617.406,564.378 617.366,570.114C614.12,564.72 613.406,564.66 608.853,560.633C608.377,560.212 606.294,556.275 605.843,555.415C607.629,550.334 590.813,512.141 588.444,504.738C586.54,498.789 585.176,492.625 583.805,486.34C598.459,483.127 604.767,480.068 610.066,465.219ZM560.613,461.805C541.24,458.446 532.138,444.366 517.471,432.735C506.783,424.26 496.427,420.959 484.398,415.916C461.522,406.325 444.829,418.239 428.533,433.258C444.756,430.118 455.252,429.882 471.18,434.421C463.054,456.983 476.278,484.606 498.871,492.685C506.979,495.584 516.95,495.613 525.296,493.759C520.132,497.66 510.463,504.39 504.118,506.266L503.137,506.16C498.18,505.656 493.333,506.055 488.254,505.211C462.365,500.905 443.581,478.422 441.777,452.539C431.707,457.363 429.686,462.014 424.115,470.785C416.723,482.421 418.139,496.172 423.927,508.253C436.541,534.584 467.007,543.92 493.846,547.386C500.915,553.931 512.513,587.056 516.677,597.351C518.39,586.959 528.595,566.106 534.399,556.998C532.667,570.385 536.002,618.984 548.408,625.732C548.112,639.759 550.095,643.681 556.844,656.31C558.836,649.479 559.896,646.164 563.325,640.006C565.075,641.798 571.986,650.205 573.232,650.963C574.449,652.605 575.514,655.436 576.83,657.084C580.966,662.267 589.86,677.597 596.908,676.739C597.545,673.211 591.791,664.442 590.322,659.266C585.066,640.749 584.386,629.078 592.959,612.141C594.371,614.625 594.89,615.342 596.737,617.528C602.116,619.198 608.751,621.164 613.715,623.603C610.67,624.244 603.496,625.279 602.093,628.51C594.307,646.436 596.207,658.434 606.203,674.881C614.057,667.462 621.445,657.888 629.659,651.916C639.972,659.252 654.395,667.322 663.042,676.294C661.076,666.558 659.133,657.062 655.177,647.866C653.26,643.412 650.903,639.655 648.781,635.445C650.152,635.836 654.45,638.649 655.698,639.547C675.911,654.101 694.903,650.363 714.1,636.193C717.673,633.555 727.409,625.159 731.351,625.009C727.631,630.113 719.229,644.71 716.862,650.445C712.434,661.176 709.813,669.723 704.176,680.249C708.923,675.769 718.32,669.913 723.957,666.066C730.216,661.795 733.538,659.163 739.111,654.093C745.235,658.263 749.313,666.493 749.692,673.801C750.405,687.552 741.205,697.517 732.574,706.983C698.421,682.041 650.367,695.435 614.476,709.852C592.306,718.758 569.096,731.885 545.805,716.072C536.749,709.924 533.779,694.544 529.793,684.439C527.454,678.457 524.733,672.631 521.64,667.002C510.377,646.505 489.378,622.188 473.129,605.307C473.863,607.936 474.588,610.694 475.411,613.291C481.682,633.093 486.203,652.557 494.52,671.676C474.758,656.695 445.322,645.395 422.173,637.374C395.259,628.048 372.902,614.496 360.676,587.759C346.205,556.112 356.861,522.948 368.362,492.118L375.714,521.49C377.587,502.952 380.689,484.714 384.081,466.403C385.547,458.49 386.67,451.399 387.042,443.333C365.466,443.747 350.857,441.102 330.762,433.897C308.56,425.936 283.597,421.702 260.478,427.59C249.7,430.335 239.728,435.011 229.438,439.374C235.477,440.715 242.552,443.506 249.172,445.011C262.55,448.052 275.289,449.648 288.892,451.015C284.035,452.342 278.673,453.074 273.67,453.927C287.146,460.628 311.277,463.995 326.458,463.389C309.072,471.842 291.458,479.941 271.926,476.057C244.992,470.702 224.192,457.963 203.131,441.224C210.424,432.749 235.475,422.538 246.109,417.304C263.067,412.285 272.366,409.586 290.321,408.321C295.255,407.974 323.797,407.359 326.061,406.215C331.202,407.125 336.588,409.28 341.811,409.99C364.935,413.134 388.027,409.327 409.751,401.144C413.645,399.677 418.341,398.04 422.379,397.071L423.06,396.912C408.779,392.252 401.997,392.136 387.364,394.439C411.974,382.089 421.228,365.498 425.284,339.083C456.566,335.369 487.72,356.631 511.397,375.066C489.493,370.191 464.541,370.595 443.666,379.429C441.011,380.552 435.986,380.741 434.542,383.408C438.724,386.12 452.435,386.182 458.076,386.77C461.956,387.19 465.813,387.801 469.632,388.603C501.389,395.269 524.889,419.281 545.382,442.589C547.975,445.538 555.609,453.221 558.684,455.321C562.181,457.541 563.919,458.503 566.773,461.451L565.831,461.319C566.916,462.368 567.831,462.501 569.272,462.952C566.084,462.794 563.752,462.352 560.613,461.805ZM264.613,503.471C288.114,507.619 309.664,506.374 331.797,497.246C329.784,505.093 327.827,513.7 325.625,521.211C313.6,562.24 324.575,612.34 355.918,642.17C357.457,643.635 359.171,645.606 360.378,647.358C365.164,695.817 380.837,740.038 404.082,783.009C409.834,793.643 419.203,803.788 426.039,813.794C417.412,808.284 408.967,803.584 400.469,797.753C386.224,787.959 372.675,777.189 359.92,765.521C326.615,735.365 304.576,705.416 294.622,660.737C288.502,633.268 286.357,602.166 290.749,574.288C292.248,564.771 295.7,555.197 296.763,545.883C291.463,554.163 288.68,560.939 284.409,569.428C270.79,596.499 260.835,624.33 257.705,654.651C257.113,660.389 256.717,670.651 257.652,676.4C247.772,664.685 236.978,653.501 227.425,641.437C225.275,638.722 219.656,632.24 217.909,629.462C218.025,626.479 218.197,623.498 218.427,620.521C221.153,586.664 231.292,550.79 249.567,521.925C253.51,515.697 258.983,508.259 264.613,503.471ZM676.893,711.213C688.991,709.407 703.841,712.214 715.492,715.347C701.875,752.459 647.604,770.325 611.371,766.735C601.664,765.801 591.536,763.252 583.182,758.088C576.444,753.922 574.295,749.066 571.125,742.255C593.302,740.394 611.001,730.876 631.202,722.846C645.886,717.009 661.093,712.38 676.893,711.213ZM771.847,405.739C774.13,405.466 779.661,409.76 781.952,411.273C793.241,418.626 805.118,425.035 817.462,430.434C802.468,444.565 779.729,465.662 757.066,463.996C750.901,463.543 743.131,459.586 739.319,454.675L737.223,450.431C748.442,449.214 753.46,449.768 765.088,447.071L757.006,441.868C770.909,440.352 778.778,439.388 792.375,436.55C785.144,432.717 772.605,425.596 765.149,423.969C748.613,420.361 750.308,426.609 743.801,409.035C753.063,407.297 762.434,406.195 771.847,405.739ZM515.772,736.762C519.668,739.758 522.754,743.926 525.732,747.798C517.622,758.578 508.94,768.425 500.642,778.934C488.633,794.142 476.699,811.913 468.077,829.274C466.691,831.928 465.384,833.83 463.721,836.315C462.166,818.874 467.301,803.663 474.184,787.958C483.188,767.411 501.842,754.281 515.281,737.385L515.772,736.762ZM726.303,472.922C728.003,475.195 718.399,510.651 717.569,516.796C716.07,512.745 715.198,510.233 712.358,506.838L709.137,503.497C710.821,501.507 711.472,500.802 713.46,499.13L707.294,490.24C717.944,489.502 722.018,481.317 726.303,472.922Z" style="fill:rgb(95,17,29);"  data-color='color-2'/>
        <path d="M489.017,442.798C493.381,444.094 495.266,445.143 499.056,447.44C496.09,454.247 494.971,460.646 499.69,467.123C502.53,470.96 506.822,473.463 511.56,474.045C518.046,474.892 522.362,472.417 527.113,468.6C529.598,470.453 531.871,472.043 534.1,474.21L533.802,475.209C530.69,477.408 527.609,479.349 524.011,480.648C500.719,489.057 477.152,466.294 489.017,442.798ZM715.815,456.204C720.19,466.38 713.912,483.168 699.775,480.923C698.632,479.486 697.536,477.871 696.467,476.367C706.973,475.017 709.589,470.588 710.275,460.731C712.394,459.409 714.247,458.158 715.815,456.204Z" style="fill:rgb(247,230,79);"  data-color='color-4'/>
    </g>
</svg>
