<?xml version="1.0" encoding="UTF-8" standalone="no"?>
<!DOCTYPE svg PUBLIC "-//W3C//DTD SVG 1.1//EN" "http://www.w3.org/Graphics/SVG/1.1/DTD/svg11.dtd">
<svg width="100%" height="100%" viewBox="0 0 979 957" version="1.1" xmlns="http://www.w3.org/2000/svg" xmlns:xlink="http://www.w3.org/1999/xlink" xml:space="preserve" xmlns:serif="http://www.serif.com/" style="fill-rule:evenodd;clip-rule:evenodd;stroke-linejoin:round;stroke-miterlimit:2;">
    <g transform="matrix(1,0,0,1,-17.4713,-27.4244)">
        <path d="M460.932,392.741C488.343,400.577 516.351,408.33 543.603,416.514C547.243,421.076 555.49,435.494 558.9,441.181C555.633,450.483 551.726,461.904 547.901,470.893C544.095,472.783 536.989,475.106 532.787,476.618C536.146,481.817 539.221,486.589 542.289,491.97C540.042,498.181 530.723,521.564 527.88,526.398C521.771,529.106 515.398,531.458 509.152,533.857C506.338,535.051 503.761,535.95 500.879,536.956C490.948,534.619 479.172,530.981 469.227,528.105C452.253,523.197 435.301,518.211 418.378,513.127L426.967,488.009L438.662,491.367C441.36,484.629 444.325,475.071 446.742,468.05L462.764,421.954C459.406,421.034 455.945,419.832 452.625,418.738C454.46,411.229 458.274,400.167 460.932,392.741ZM492.518,429.37C500.199,431.653 507.949,433.485 515.755,435.768C523.645,438.075 526.037,443.488 522.997,451.173C521.515,454.92 518.979,456.628 515.382,458.205C507.236,460.172 493.262,455.108 484.8,452.679C487.448,444.934 490.021,437.165 492.518,429.37ZM477.036,476.158C484.637,478.479 501.429,482.095 506.571,488.329C508.028,490.096 505.942,498.253 505.082,500.463C503.751,503.884 501.808,505.908 498.37,507.414C488.746,509.391 477.387,504.61 468.141,501.586C471.311,493.665 474.38,484.284 477.036,476.158Z" style="fill:rgb(0,34,50);"/>
        <path d="M687.751,340.454C691.892,351.615 693.726,358.572 686.975,369.609C689.02,370.74 691.333,371.84 693.5,372.918C717.961,385.085 751.865,384.895 777.687,376.809C782.861,375.189 790.17,368.592 796.716,366.606C805.527,363.932 811.066,364.5 819.19,368.4C823.507,365.621 826.903,364.186 831.636,362.24C841.433,327.216 853.04,307.109 883.009,285.156C901.806,271.387 923.356,263.273 947.096,266.812C953.016,267.694 961.271,270.66 964.733,275.81C966.437,278.345 967.014,281.466 966.326,284.442C964.721,291.386 958.173,295.423 952.59,298.781C955.314,298.63 958.046,298.714 960.756,299.024C970.085,300.092 982.616,307.98 980.543,318.634C977.904,332.198 956.199,335.604 945.53,340.188C939.387,342.828 935.554,344.7 929.819,348.662C936.98,362.187 933.87,371.417 925.157,382.926C924.353,383.988 920.562,389.446 920.324,390.478C914.441,415.989 897.129,434.476 871.739,441.418C856.466,463.251 836.61,476.977 811.607,480.412C809.378,480.718 798.089,486.298 795.086,487.665C737.862,513.715 667.766,506.933 610.503,484.864C595.951,505.726 576.203,525.522 557.498,542.786C560.421,559.018 556.755,569.515 547.306,582.53C591.193,587.113 623.022,622.962 625.717,667.198C626.208,675.255 625.5,682.432 619.772,688.662C628.656,699.858 637.61,710.999 646.633,722.084C659.029,710.188 672.614,713.006 679.696,728.503C692.751,725.518 714.411,716.618 723.781,706.803C733.498,696.626 740.2,686.868 752.954,679.249C766.862,670.81 783.58,668.316 799.346,672.328C811.4,675.498 818.636,681.104 824.834,691.626C838.591,698.54 837.734,710.235 834.739,723.194C835.541,723.805 836.34,724.421 837.136,725.041C849.62,734.773 850.646,748.974 832.256,750.119C830.849,755.864 829.54,759.928 827.328,765.387C827.82,766.18 828.3,766.981 828.763,767.791C836.502,781.335 825.433,791.74 810.568,786.858C805.488,793.562 802.255,796.467 796.067,802.029C804.102,819.581 787.432,827.647 776.436,815.526C759.769,827.887 745.919,830.202 735.417,850.367C741.659,854.589 745.716,861.433 741.112,868.614C739.464,871.14 736.835,872.858 733.862,873.368C729.203,874.167 726.095,872.335 722.47,869.941C718.009,875.893 715.273,878.953 709.036,882.923C710.917,892.681 708.393,901.209 696.061,900.607C690.466,900.334 686.604,895.869 683.263,891.759C666.354,904.35 647.285,896.377 641.309,877.021C620.102,866.847 611.108,848.46 610.317,825.542C594.489,825.849 591.709,816.242 594.01,802.578C577.576,785.604 561.547,772.611 543.572,757.35C541.572,757.901 539.358,758.535 537.323,758.882C525.84,760.843 514.051,758.114 504.538,751.391C493.114,743.294 487.936,732.095 485.645,718.686C477.377,720.051 453.068,725.426 446.957,729.887C443.34,732.527 440.474,737.419 437.713,740.958C410.197,776.233 357.655,830.511 311.024,836.023C295.966,837.803 282.575,835.151 270.547,825.704C259.991,829.536 251.657,833.132 240.593,836.732C237.645,852.175 221.118,854.293 208.071,852.313L205.261,855.11C199.194,861.088 198.184,866.769 193.904,874.033C190.359,880.049 187.246,884.101 182.966,889.473C192.725,899.306 196.737,906.88 199.305,920.483C209.661,926.279 211.394,936.394 203.87,945.663C194.796,956.841 177.542,960.45 163.881,961.703C156.304,971.805 147.115,972.049 139.854,961.702C130.764,960.339 126.417,959.581 118.092,955.966C113.726,959.45 109.068,961.648 103.434,959.578C100.562,958.523 98.25,956.336 97.061,953.517C95.218,949.147 96.181,945.544 97.927,941.448C92.762,936.447 90.852,933.576 87.205,927.385C78.1,929.199 70.167,925.452 70.964,914.799C71.395,909.045 75.188,905.157 79.416,901.617C78.773,895.298 78.547,889.921 78.929,883.599C74.536,882.313 69.221,880.041 68.762,874.971C67.861,865.028 76.884,862.115 84.366,861.2C86.225,856.283 88.6,851.576 91.45,847.16C98.367,836.341 105.786,829.204 106.087,815.901C99.447,806.573 99.332,800.496 103.009,790.114C90.266,779.427 95.651,764.802 111.198,761.181C113.095,760.739 116.626,760.952 118.684,760.984C123.525,749.579 129.743,743.064 142.941,744.999C150.714,741.255 157.467,739.245 166.219,740.424C178.994,742.066 190.578,748.761 198.38,759.009C208.931,753.959 216.421,751.914 227.25,748.103C231.725,731.177 240.521,723.488 257.21,719.71C264.734,701.667 272.491,688.794 283.415,672.607C282.814,671.249 282.266,670.229 281.566,668.937C281.25,668.74 280.934,668.542 280.619,668.345C278.472,669.739 274.807,672.059 272.813,673.301C256.508,683.678 238.529,691.15 219.673,695.387C183.347,703.561 142.856,701.074 108.674,685.766C100.119,681.935 92.786,677.249 84.912,672.269C91.834,672.915 102.145,672.146 109.226,671.784C91.741,662.185 72.69,646.01 62.278,629.237C43.878,599.595 37.746,561.262 45.195,527.329C48.645,528.946 54.181,532.432 57.627,534.459C58.768,518.556 61.898,503.322 60.769,487.185C59.347,466.889 51.347,450.622 38.189,435.528C44.43,429.557 48.388,428.232 56.906,428.361C112.5,428.815 157.143,471.044 180.078,518.816C199.47,559.209 226.293,598.684 276.744,598.594C281.698,580.55 293.229,566.716 305.993,553.478C299.205,538.393 306.213,530.153 315.084,518.58C314.129,516.459 312.951,514.568 311.775,512.562C293.522,510.426 288.431,510.301 270.494,504.052C259.297,512.118 239.66,500.835 229.419,494.887C217.997,496.998 208.974,496.14 198.083,490.935C169.051,477.171 143.763,442.822 136.376,411.818C133.528,399.866 135.211,402.245 128.578,391.053C125.973,386.695 123.79,382.098 122.057,377.326C114.312,356.172 117.839,333.061 127.275,313.06C134.398,298.097 144.221,284.575 156.25,273.176C190,240.835 227.421,241.017 270.352,235.059C275.829,234.299 284.693,230.119 290.219,228.134C321.385,216.938 364.67,225.923 393.696,239.842L415.248,229.52C409.629,225.137 405.553,221.536 400.642,216.379C419.539,211.773 432.064,206.062 448.061,195.367C446.243,191.114 444.627,186.777 443.219,182.371C430.185,141.571 436.238,85.867 455.715,48.017C465.631,53.489 473.656,59.597 482.835,65.958C509.056,84.128 531.771,105.198 552.016,129.975C561.294,129.311 572.966,129.922 582.215,131.14C585.154,125.757 593.362,116.112 597.652,111.134C613.87,92.316 634.364,69.202 653.779,53.845C673.228,74.895 667.265,138.549 660.721,164.943C678.79,184.129 687.628,198.903 702.016,220.685C700.48,226.647 697.754,233.136 695.478,238.918C718.192,259.376 755.363,262.11 783.855,268.39C795.513,271.464 791.124,285.515 787.135,292.632C766.959,328.628 727.743,346.597 687.922,339.142C679.101,336.709 672.137,334.555 663.631,330.748C666.487,337.51 668.444,342.98 670.839,349.905C677.128,347.44 681.078,345.058 686.552,340.985C687.154,340.537 686.954,340.675 687.751,340.454ZM164.23,850.779C155.715,860.422 177.585,871.747 184.725,866.972C185.848,865.389 187.153,863.642 188.205,862.037C180.95,860.808 176.78,859.303 170.899,854.796C168.867,853.239 166.748,850.949 164.23,850.779ZM124.893,891.69C127.375,890.979 131.124,889.933 133.825,888.804C135.372,888.157 136.574,887.482 136.998,886.827L136.764,885.738C135.444,885.451 135.539,885.502 134.198,885.692C133.942,885.728 133.658,885.753 133.355,885.793C130.362,886.184 125.321,887.169 122.474,889.265C121.485,889.993 120.761,890.855 120.478,891.872L120.877,892.48C122.017,892.429 122.058,892.525 123.131,892.211C123.582,892.079 124.184,891.893 124.893,891.69ZM296.047,691.835C283.572,707.205 272.747,724.005 267.923,743.542C266.469,749.431 266.275,754.439 265.4,760.203C261.011,752.112 259.725,746.468 257.701,737.418C251.409,739.701 247.423,742.76 244.794,749.009C233.783,775.186 251.879,795.73 275.38,805.261C283.389,808.509 288.758,810.549 297.02,812.894C291.592,814.631 289.877,815.064 284.099,815.29C295.695,818.955 304.118,817.832 315.809,815.157C334.607,808.782 339.509,802.938 353.629,790.098C372.131,773.274 386.95,752.004 404.635,734.984C366.191,734.92 328.564,728.197 301.571,697.633C300.597,696.53 297.005,692.306 296.047,691.835ZM691.115,860.565C680.565,866.193 683.126,877.37 694.171,877.111C703.326,873.181 703.088,859.848 691.115,860.565ZM752.147,804.426C752.738,804.62 753.386,804.766 754.089,804.858C755.09,804.989 756.206,805.009 757.434,804.899C758.442,804.302 759.309,803.658 760.04,802.982C761.377,801.747 762.26,800.409 762.721,799.078C763.931,795.585 762.236,792.135 758.224,790.69C757.458,790.414 756.607,790.211 755.676,790.094C754.852,789.991 753.965,789.956 753.017,789.999C745.929,794.501 745.68,802.308 752.147,804.426ZM788.043,764.216C788.194,764.01 788.335,763.802 788.467,763.592C791.86,758.193 789.067,751.595 780.567,751.512C770.825,755.863 771.633,769.421 783.182,768.212C785.318,767.123 786.934,765.731 788.043,764.216ZM679.091,738.85C670.401,742.171 658.511,760.594 666.186,767.664C667.685,767.506 670.607,767.304 671.201,765.808C672.755,761.896 673.288,756.53 674.635,752.482C675.973,748.462 680.616,744.141 680.505,740.012C679.695,738.984 680.214,739.284 679.091,738.85ZM938.98,311.182C915.278,314.42 904.943,327.595 896.506,348.295C899.514,346.616 901.203,345.716 904.311,344.402C907.114,343.218 913.566,341.954 915.448,340.646C925.876,332.09 934.967,327.77 947.783,323.262C952.985,321.432 959.99,319.481 964.593,316.695C956.363,310.651 949.173,309.688 938.98,311.182ZM811.727,730.275C808.686,731.052 806.299,733.406 805.48,736.436C804.661,739.466 805.537,742.702 807.773,744.905C810.008,747.108 813.257,747.937 816.274,747.074C820.85,745.766 823.526,741.026 822.283,736.433C821.039,731.84 816.337,729.097 811.727,730.275ZM225.18,766.102C220.955,767.081 215.989,768.099 211.861,769.234C211.917,789.87 217.049,805.253 231.321,821.121L238.111,819.639C243.094,818.25 248.285,816.863 252.948,814.603C236.832,801.627 230.144,786.164 226.155,766.671C226.036,766.089 225.564,766.123 225.18,766.102ZM208.744,832.155C201.7,833.208 199.373,835.751 193.937,840.233C200.285,841.202 205.826,842.064 212.292,842.279C215.438,842.13 224.799,842.618 224.253,838.062C221.222,834.048 213.619,832.468 208.744,832.155ZM118.304,628.163C117.757,627.495 117.216,626.823 116.679,626.146L116.744,625.657L117.611,625.877C117.927,625.977 118.241,626.074 118.553,626.169C132.916,630.534 143.158,629.667 158.186,628.793C131.552,616.304 118.799,589.812 119.161,561.06C130.679,580.856 136.589,582.764 158.014,591.5C146.972,572.253 141.245,559.316 142.118,536.814C157.184,552.111 160.458,554.178 179.527,564.605C174.704,555.581 171.074,545.94 167.119,536.54C150.886,497.957 121.899,462.655 80.793,449.738C77.126,448.586 73.109,447.754 69.347,446.829C100.021,498.692 55.43,542.282 91.82,591.863C78.086,586.058 72.114,583.97 62.06,572.541C64.304,583.977 66.375,594.689 71.227,605.421C92.946,653.461 146.353,678.8 197.143,664.431C169.325,663.202 143.247,655.937 123.858,634.602C121.951,632.504 120.1,630.356 118.304,628.163ZM693.689,733.565C691.924,734.023 689.661,734.542 687.976,735.136C684.305,742.039 678.312,757.399 686,763.181C696.609,761.622 690.288,752.242 691.913,744.976C692.534,742.199 695.137,736.171 694.679,733.773L693.689,733.565ZM574.546,375.793C575.163,375.386 575.782,374.958 576.389,374.512C580.045,371.83 583.295,368.552 583.399,365.933C582.152,365.3 582.823,365.475 581.284,365.745C578.12,365.925 575.191,366.079 572.017,366.108C569.868,370.384 567.746,374.673 565.651,378.975C566.684,379.727 566.141,379.413 567.926,379.273C569.548,378.737 572.036,377.448 574.546,375.793ZM507.499,330.252C511.662,331.872 513.613,331.956 517.939,332.191C508.895,338.762 503.761,340.974 492.788,341.622C489.08,346.853 485.261,352.803 481.653,358.167C485.789,362.062 492.465,365.95 497.419,369.035C499.032,364.93 502.898,354.531 505.895,351.83C507.462,351.889 511.8,354.701 513.449,355.666C510.915,361.524 507.763,368.187 505.84,374.16L506.314,374.396C512.364,377.449 517.277,378.339 523.827,379.798C526.474,374.133 529.04,368.166 531.595,362.438L525.352,360.421C534.366,355.23 541.379,352.582 551.001,349.578C574.023,341.925 593.888,343.94 614.9,356.339C630.368,365.466 654.113,379.619 671.486,366.498C672.688,365.59 672.884,365.134 672.918,363.772C671.796,363.346 667.917,364.112 666.289,364.083C635.836,363.538 607.653,330.585 591.549,307.864C586.304,308.228 583.754,308.694 578.812,310.311C580.881,305.16 584.286,300.657 588.659,297.239C611.597,279.311 633.938,297.539 654.826,308.882C668.377,316.24 682.898,323.157 698.241,324.835C716.354,326.816 736.979,320.039 751.042,308.645C742.546,309.408 736.456,307.773 731.474,300.604C727.476,289.551 730.21,282.894 737.174,274.145C720.718,269.682 692.485,260.288 681.358,246.214C677,240.702 683.976,228.789 685.989,222.481C681.399,213.255 676.914,207.663 671.065,199.62C643.671,161.951 605.24,146.766 559.667,145.554C561.471,150.761 566.78,166.486 559.902,169.578C556.427,169.097 544.152,152.288 541.094,148.604C518.822,121.598 493.035,97.694 464.419,77.531C449.342,128.66 454.155,156.278 472.122,204.212C461.611,214.69 447.73,218.558 434.204,223.374C440.807,226.137 449.583,230.263 456.005,232.635C444.035,240.559 430.938,245.936 417.174,249.937C428.583,255.704 437.836,258.922 450.063,262.451C445.716,265.788 438.781,270.948 434.059,273.725C449.644,300.5 475.124,321.504 505.277,329.886C506.1,330.115 506.659,330.182 507.499,330.252ZM477.294,172.977C475.015,167.913 473.711,162.297 472.815,155.625C472.883,155.652 472.95,155.678 473.018,155.705C478.867,158.002 485.199,160.176 491.147,162.443C478.113,150.131 473.98,133.968 474.765,116.446C474.901,113.413 474.979,110.727 475.75,107.777C493.238,122.34 515.723,156.475 522.07,178.337C513.666,176.428 507.548,175.272 499.497,171.869C501.496,180.849 503.652,187.779 507.392,196.223L508.551,198.432L508.19,199.087C504.346,199.237 493.724,192.175 490.758,189.746C484.196,184.373 480.038,179.076 477.294,172.977ZM664.989,240.131C662.45,242.388 659.147,244.535 655.04,246.498C651.605,248.14 645.48,247.209 642.974,249.301C636.15,259.532 626.149,266.3 613.347,262.772C604.405,260.274 596.829,254.312 592.299,246.208C587.952,238.485 586.37,230.55 588.728,221.916C579.368,218.073 571.815,217.789 561.929,217.926C572.366,205.384 584.653,204.578 599.788,205.075C596.832,202.62 591.592,200.128 590.84,197.171C592.389,196.05 592.875,196.396 595.143,196.199C621.714,194.04 645.655,234.94 656.598,231.509C662.919,225.731 657.556,214.705 654.201,208.681C657.456,210.128 660.279,211.745 662.646,213.486C673.207,221.256 674.695,231.5 664.989,240.131ZM610.985,225.317C604.024,234.858 607.38,245.022 616.633,251.34L617.024,251.027C616.847,249.702 616.696,248.471 616.452,247.154C616.636,239.535 618.771,236.419 625.437,232.711C620.141,229.172 616.942,227.634 610.985,225.317ZM308.228,469.015C316.377,469.737 325.594,470.494 333.796,470.495C357.678,470.303 375.434,465.097 397.392,456.936C383.352,440.7 364.725,421.483 347.11,408.998C340.597,403.91 333.848,399.132 326.884,394.681C305.007,380.773 269.677,362.773 243.371,367.397L238.699,376.841C241.376,377.718 243.512,378.437 246.281,378.767C256.153,379.942 270.403,377.759 275.704,388.553C278.368,393.977 279.495,400.674 277.205,406.364C270.975,421.846 255.184,426.19 240.609,427.601L241.023,428.123C243.073,430.751 245.433,434.109 247.152,436.978C259.652,457.837 282.024,465.689 305.423,468.671L308.228,469.015ZM184.335,273.631C172.595,276.89 166.689,283.626 159.141,292.61C179.456,286.032 201.56,287.873 220.506,297.722C226.842,300.952 230.779,303.788 236.06,308.426C242.688,314.839 244.812,317.725 249.927,325.153C239.607,297.344 216.131,272.063 184.335,273.631ZM176.201,832.759C175.149,833.572 173.466,834.669 173.399,836.073C173.203,840.176 175.979,844.477 178.684,847.396C182.62,851.645 186.711,854.741 192.596,853.202C194.291,852.018 195.34,851.524 196.36,849.799C192.464,846.642 189.293,845.905 185.628,841.822C183.159,839.072 179.422,833.177 176.201,832.759ZM661.042,730.03C653.693,733.678 648.846,743.192 646.241,750.659C644.84,754.674 642.745,761.326 647.115,763.928C649.156,764.073 649.459,763.937 651.5,763.475C653.921,758.146 653.276,752.033 657.856,744.49C661.092,739.159 665.906,735.51 667.896,732.002C666.392,729.449 663.78,729.841 661.042,730.03ZM458.872,327.848C462.716,337.667 467.159,343.64 474.443,351.285L477.564,346.026L481.634,339.661C471.797,337.078 466.826,334.199 458.872,327.848ZM712.276,739.387C712.218,739.179 712.164,738.97 712.113,738.758C711.704,737.05 711.514,735.173 711.487,732.691C711.463,730.512 712.882,726.417 711.495,725.891C708.003,727.964 702.346,730.439 701.667,734.71C700.794,740.203 701.864,749.034 706.933,752.297C712.346,752.508 713.377,750.788 715.154,745.891C713.773,743.346 712.85,741.453 712.276,739.387ZM153.271,869.255C143.526,877.438 161.824,884.837 168.402,884.402C172.569,884.126 174.551,883.804 177.975,881.285C180.334,878.099 180.711,877.059 181.851,873.28C176.633,875.631 171.267,877.903 165.293,876.239C162.535,875.471 154.973,869.523 153.271,869.255ZM353.103,543.736C349.363,548.903 343.347,558.489 340.752,564.33C345.129,568.114 354.553,573.987 360.087,575.323C364.079,567.618 367.578,561.128 371.986,553.691C367.175,551.649 363.544,549.71 359.036,547.12C358.045,546.551 353.809,544.024 353.103,543.736ZM777.911,687.672C758.266,690.634 739.781,711.357 740.206,731.482C740.217,731.991 740.508,732.586 740.756,733.02L741.524,733.23C742.935,731.338 743.614,729.643 744.614,727.518C755.433,707.537 767.837,695.466 789.498,688.307C785.369,687.657 782.116,687.142 777.911,687.672ZM614.874,314.756C624.028,327.274 642.152,344.899 656.64,350.174C648.582,330.994 635.487,318.57 614.874,314.756ZM540.079,364.874L533.47,381.915C541.178,382.272 546.216,382.62 553.885,381.851C556.793,378.552 559.168,370.486 560.717,366.049C553.101,366.03 547.695,365.581 540.079,364.874ZM182.223,774.66C173.659,787.322 179.543,813.451 188.845,824.233C190.332,823.156 191.427,822.66 191.967,820.953C191.363,816.322 189.216,813.302 188.134,809.179C185.504,799.158 185.764,788.695 186.694,778.497C185.16,776.864 184.25,775.629 182.223,774.66ZM333.178,528.841C330.14,532.591 324.851,538.44 323.163,542.943C321.277,547.975 327.841,553.885 331.97,556.381L332.562,556.208C336.667,549.596 339.65,544.556 344.562,538.498C340.438,535.191 337.114,532.402 333.178,528.841ZM332.203,389.006C339.011,393.649 345.707,398.454 352.286,403.417C353.347,404.597 356.327,406.919 357.643,407.985C374.303,421.483 388.16,437.923 403.717,452.549C404.139,450.83 404.473,449.09 404.716,447.336C407.583,427.563 397.027,404.367 385.387,388.95C380.881,382.437 375.852,377.006 370.115,371.593C345.889,346.848 299.61,330.846 265.779,342.437C253.598,346.611 255.394,350.102 249.525,359.433C279.832,360.471 306.835,373.363 332.203,389.006ZM137.739,760.963C127.859,766.442 124.55,773.697 121.189,784.11C116.654,798.161 118.654,813.505 115.021,827.114C111.918,837.149 104.644,845.679 99.373,854.599C88.282,873.368 87.832,900.578 98.355,919.59C114.325,948.443 151.354,957.811 180.79,944.998C182.929,943.899 186.132,942.545 186.853,940.304C185.741,939.945 171.508,943.59 169.258,943.945C122.645,951.308 86.792,915.747 100.768,869.015C104.739,855.934 115.117,846.18 119.939,833.505C126.906,815.191 123.414,794.872 132.11,776.85C133.139,774.717 139.081,762.508 137.739,760.963ZM594.44,690.635C579.08,693.76 565.573,702.82 556.855,715.847C551.518,723.737 549.397,730.484 549.531,739.923C554.147,745.582 570.48,759.634 576.708,765.378C586.762,743.699 598.452,728.133 620.58,717.839C617.059,713.431 599.734,691.703 596.22,690.482L594.44,690.635ZM928.002,283.185C905.441,286.141 881.06,300.711 867.268,318.89C850.922,340.437 838.932,375.238 837.323,402.212C831.394,393.48 830.966,388.408 830.141,377.973C823.701,382.716 819.75,385.717 818.694,394.47C816.653,411.38 821.341,435.621 841.602,438.733C848.274,439.758 854.446,436.936 860.254,434.042C852.855,432.479 849.329,431.723 843.578,426.333C848.606,426.562 853.644,426.294 858.619,425.531C882.045,421.483 888.622,413.339 894.913,390.576C901.113,385.044 923.13,370.496 918.167,358.429C917.718,357.337 914.878,356.744 913.812,356.893C891.393,360.693 887.52,375.145 861.577,373.764C867.296,364.389 872.72,361.839 882.137,356.53C881.585,327.711 898.975,307.898 923.492,295.269C927.091,293.415 944.367,287.146 945.689,285.155C942.885,282.04 932.047,282.851 928.002,283.185ZM314.424,569.898C301.211,582.767 294.138,595.045 291.101,613.09C279.814,680.153 341.196,714.581 399.907,713.868C414.406,713.692 428.694,712.205 442.939,709.421C457.721,706.532 473.842,701.173 489.018,701.129C490.617,693.015 492.238,682.989 495.546,675.554C511.282,693.179 495.872,717.438 512.876,732.388C516.749,735.772 521.626,737.796 526.758,738.138C529,738.288 531.245,738.156 533.482,737.999C533.376,712.086 552.388,689.422 574.894,678.516C585.444,674.003 595.816,671.712 607.021,675.076C607.641,654.337 602.747,637.035 588.17,621.536C575.979,608.32 559.002,600.485 541.03,599.944C539.95,599.912 538.869,599.9 537.788,599.898C541.869,604.968 544.807,609.145 547.955,614.859C535.232,608.536 525.812,601.491 511.015,598.119C501.819,596.023 494.337,595.836 485.014,595.87C445.323,596.015 400.725,605.022 363.208,617.599C355.243,620.305 347.333,623.171 339.484,626.194C346.557,611.654 361.528,604.743 375.868,599.386C352.88,594.2 331.651,586.94 314.424,569.898ZM174.433,363.445C169.665,366.599 167.717,376.866 167.146,382.279C163.462,376.122 162.907,373.666 161.707,366.608C152.478,370.445 150.339,375.834 149.911,385.609C149.25,400.695 152.832,414.959 159.152,428.592C166.287,444.047 176.838,457.681 190.01,468.464C191.706,469.833 194.963,472.589 197.09,472.67C197.311,471.189 197.188,470.783 197.026,469.308C198.459,470.075 201.191,472.731 202.498,473.932C209.322,480.201 213.652,482.35 222.64,484.149C216.15,473.932 212.587,464.557 206.442,454.33C219.856,468.483 222.919,472.582 240.779,483.169C247.531,486.758 253.094,489.429 260.472,491.631C264.444,487.374 266.344,482.97 261.657,478.401C246.87,463.987 225.849,446.84 222.163,425.575C221.933,422.795 222.701,420.094 224.563,418.049C234.041,407.639 250.806,416.482 259.972,406.377C261.878,404.276 262.388,400.705 260.542,398.385C257.2,396.749 253.627,398.142 250.428,397.527C232.924,394.162 218.989,389.565 200.936,389.609C202.833,385.477 203.81,383.352 204.572,378.731C202.011,369.608 196.626,366.585 187.986,364.192C186.945,367.966 186.213,370.678 185.572,374.517C183.785,371.926 179.391,364.849 176.497,363.531C176.275,363.43 174.641,363.445 174.433,363.445ZM314.133,241.201C306.783,241.892 301.721,242.508 294.87,245.453C305.826,250.278 309.256,252.531 315.076,263.262C279.558,251.467 249.25,253.893 212.976,259.568C239.146,269.55 255.367,289.893 260.357,317.356C261.097,304.548 259.219,295.174 256.269,282.838C269.75,293.663 277.957,305.704 280.197,323.236C318.875,321.755 351.961,333.261 381.045,359.566C410.624,386.32 440.186,442.339 408.197,477.44C393.28,493.808 365.83,505.799 344.114,510.316C365.645,535.267 405.015,556.179 435.915,567.058C416.809,566.695 397.882,563.288 379.848,556.965C376.596,564.302 373.001,572.064 370.037,579.477C379.713,582.644 397.229,588.569 407.196,589.135C412.026,589.409 429.949,584.982 436.455,583.803C470.233,577.681 489.369,577.47 522.644,583.202C534.25,577.717 540.976,566.518 541.163,553.806C525.837,560.23 519.863,561.724 503.635,564.936C510.7,561.007 514.767,558.622 521.285,553.656C535.683,542.359 549.305,527.576 561.927,514.255C578.088,497.198 594.281,479.883 607.271,460.245C613.923,450.154 620.156,439.792 625.954,429.187C628.675,424.14 631.06,418.622 633.804,413.743C635.26,431.971 633.376,449.984 624.148,466.104C670.249,487.135 738.37,490.027 785.792,471.764C786.658,471.43 787.512,471.065 788.348,470.663C762.639,453.938 754.468,423.841 766.58,395.911C731.079,403.955 708.407,399.401 676.261,382.884C657.041,394.279 633.549,385.841 615.6,375.949C612.136,374.04 607.838,371.576 604.176,370.267C596.499,383.252 584.732,392.052 570.109,395.265C519.404,406.408 459.218,375.793 440.618,326.826C437.921,319.727 436.573,313.088 433.985,306.083C431.816,300.875 424.271,291.553 421.328,285.954C415.085,274.077 413.648,269.731 404.127,260.511C404.424,263.83 404.68,267.517 405.134,270.788C400.104,266.325 393.972,261.132 388.105,257.84C367.207,246.115 338.162,238.942 314.133,241.201ZM322.023,496.025C331.126,495.361 337.358,494.474 346.258,492.76C367.321,487.247 381.909,479.506 397.267,464.482C374.239,476.076 360.629,476.357 337.059,478.906C327.994,479.115 320.886,478.52 311.883,477.761C300.727,475.799 290.816,474.499 279.486,472.184C281.485,480.328 281.938,482.353 280.747,490.729C295.117,493.957 307.093,495.993 322.023,496.025ZM808.549,701.592C780.419,708.014 752.202,749.287 738.05,772.921C724.533,795.494 711.522,814.419 690.837,831.263C679.187,840.75 640.108,868.643 663.056,884.387C662.899,881.451 662.662,878.413 662.833,875.487C664.85,860.862 686.986,845.01 698.177,835.867C736.689,804.402 750.303,753.706 789.527,723.071C799.269,715.462 811.18,710.154 823.659,711.754C819.473,706.8 815.692,701.155 808.549,701.592ZM802.284,384.153C780.421,389.888 773.758,412.659 778.968,432.714C783.153,448.821 799.077,461.492 815.506,463.043C822.635,461.776 828.259,459.506 833.842,454.734C810.061,448.008 796.27,421.326 802.866,397.605C804.177,392.889 806.184,388.421 808.235,383.981C806.405,384.031 804.062,384.023 802.284,384.153ZM178.399,305.696C168.191,306.943 150.648,311.337 144.075,319.792C137.427,328.343 134.806,348.051 136.185,358.688C136.575,361.698 137.245,364.666 138.166,367.559C142.378,362.267 145.942,358.666 152.133,355.707C163.815,350.123 179.684,347.009 192.4,350.155C199.53,351.969 205.863,354.888 211.199,359.826C213.443,361.902 217.864,369.976 221.224,367.174C258.044,336.468 211.805,301.24 178.399,305.696ZM647.409,803.679C638.303,804.997 633.954,807.321 627.491,813.87C648.389,808.76 663.046,813.272 682.129,821.213C686.036,822.815 689.857,824.528 693.97,825.482C695.547,823.37 697.212,821.234 698.633,819.023C680.225,811.512 668.343,801.91 647.409,803.679Z" style="fill:rgb(0,34,50);"/>
        <path d="M353.103,543.736C353.809,544.024 358.045,546.551 359.036,547.12C363.544,549.71 367.175,551.649 371.986,553.691C367.578,561.128 364.079,567.618 360.087,575.323C354.553,573.987 345.129,568.114 340.752,564.33C343.347,558.489 349.363,548.903 353.103,543.736ZM333.178,528.841C337.114,532.402 340.438,535.191 344.562,538.498C339.65,544.556 336.667,549.596 332.562,556.208L331.97,556.381C327.841,553.885 321.277,547.975 323.163,542.943C324.851,538.44 330.14,532.591 333.178,528.841ZM178.399,305.696C211.805,301.24 258.044,336.468 221.224,367.174C217.864,369.976 213.443,361.902 211.199,359.826C205.863,354.888 199.53,351.969 192.4,350.155C179.684,347.009 163.815,350.123 152.133,355.707C145.942,358.666 142.378,362.267 138.166,367.559C137.245,364.666 136.575,361.698 136.185,358.688C134.806,348.051 137.427,328.343 144.075,319.792C150.648,311.337 168.191,306.943 178.399,305.696ZM314.133,241.201C338.162,238.942 367.207,246.115 388.105,257.84C393.972,261.132 400.104,266.325 405.134,270.788C404.68,267.517 404.424,263.83 404.127,260.511C413.648,269.731 415.085,274.077 421.328,285.954C424.271,291.553 431.816,300.875 433.985,306.083C436.573,313.088 437.921,319.727 440.618,326.826C459.218,375.793 519.404,406.408 570.109,395.265C584.732,392.052 596.499,383.252 604.176,370.267C607.838,371.576 612.136,374.04 615.6,375.949C633.549,385.841 657.041,394.279 676.261,382.884C708.407,399.401 731.079,403.955 766.58,395.911C754.468,423.841 762.639,453.938 788.348,470.663C787.512,471.065 786.658,471.43 785.792,471.764C738.37,490.027 670.249,487.135 624.148,466.104C633.376,449.984 635.26,431.971 633.804,413.743C631.06,418.622 628.675,424.14 625.954,429.187C620.156,439.792 613.923,450.154 607.271,460.245C594.281,479.883 578.088,497.198 561.927,514.255C549.305,527.576 535.683,542.359 521.285,553.656C514.767,558.622 510.7,561.007 503.635,564.936C519.863,561.724 525.837,560.23 541.163,553.806C540.976,566.518 534.25,577.717 522.644,583.202C489.369,577.47 470.233,577.681 436.455,583.803C429.949,584.982 412.026,589.409 407.196,589.135C397.229,588.569 379.713,582.644 370.037,579.477C373.001,572.064 376.596,564.302 379.848,556.965C397.882,563.288 416.809,566.695 435.915,567.058C405.015,556.179 365.645,535.267 344.114,510.316C365.83,505.799 393.28,493.808 408.197,477.44C440.186,442.339 410.624,386.32 381.045,359.566C351.961,333.261 318.875,321.755 280.197,323.236C277.957,305.704 269.75,293.663 256.269,282.838C259.219,295.174 261.097,304.548 260.357,317.356C255.367,289.893 239.146,269.55 212.976,259.568C249.25,253.893 279.558,251.467 315.076,263.262C309.256,252.531 305.826,250.278 294.87,245.453C301.721,242.508 306.783,241.892 314.133,241.201ZM460.932,392.741C458.274,400.167 454.46,411.229 452.625,418.738C455.945,419.832 459.406,421.034 462.764,421.954L446.742,468.05C444.325,475.071 441.36,484.629 438.662,491.367L426.967,488.009L418.378,513.127C435.301,518.211 452.253,523.197 469.227,528.105C479.172,530.981 490.948,534.619 500.879,536.956C503.761,535.95 506.338,535.051 509.152,533.857C515.398,531.458 521.771,529.106 527.88,526.398C530.723,521.564 540.042,498.181 542.289,491.97C539.221,486.589 536.146,481.817 532.787,476.618C536.989,475.106 544.095,472.783 547.901,470.893C551.726,461.904 555.633,450.483 558.9,441.181C555.49,435.494 547.243,421.076 543.603,416.514C516.351,408.33 488.343,400.577 460.932,392.741ZM477.036,476.158C484.637,478.479 501.429,482.095 506.571,488.329C508.028,490.096 505.942,498.253 505.082,500.463C503.751,503.884 501.808,505.908 498.37,507.414C488.746,509.391 477.387,504.61 468.141,501.586C471.311,493.665 474.38,484.284 477.036,476.158ZM492.518,429.37C500.199,431.653 507.949,433.485 515.755,435.768C523.645,438.075 526.037,443.488 522.997,451.173C521.515,454.92 518.979,456.628 515.382,458.205C507.236,460.172 493.262,455.108 484.8,452.679C487.448,444.934 490.021,437.165 492.518,429.37ZM802.284,384.153C804.062,384.023 806.405,384.031 808.235,383.981C806.184,388.421 804.177,392.889 802.866,397.605C796.27,421.326 810.061,448.008 833.842,454.734C828.259,459.506 822.635,461.776 815.506,463.043C799.077,461.492 783.153,448.821 778.968,432.714C773.758,412.659 780.421,389.888 802.284,384.153ZM184.335,273.631C216.131,272.063 239.607,297.344 249.927,325.153C244.812,317.725 242.688,314.839 236.06,308.426C230.779,303.788 226.842,300.952 220.506,297.722C201.56,287.873 179.456,286.032 159.141,292.61C166.689,283.626 172.595,276.89 184.335,273.631ZM540.079,364.874C547.695,365.581 553.101,366.03 560.717,366.049C559.168,370.486 556.793,378.552 553.885,381.851C546.216,382.62 541.178,382.272 533.47,381.915L540.079,364.874ZM458.872,327.848C466.826,334.199 471.797,337.078 481.634,339.661L477.564,346.026L474.443,351.285C467.159,343.64 462.716,337.667 458.872,327.848ZM574.546,375.793C572.036,377.448 569.548,378.737 567.926,379.273C566.141,379.413 566.684,379.727 565.651,378.975C567.746,374.673 569.868,370.384 572.017,366.108C575.191,366.079 578.12,365.925 581.284,365.745C582.823,365.475 582.152,365.3 583.399,365.933C583.295,368.552 580.045,371.83 576.389,374.512C575.782,374.958 575.163,375.386 574.546,375.793ZM594.44,690.635L596.22,690.482C599.734,691.703 617.059,713.431 620.58,717.839C598.452,728.133 586.762,743.699 576.708,765.378C570.48,759.634 554.147,745.582 549.531,739.923C549.397,730.484 551.518,723.737 556.855,715.847C565.573,702.82 579.08,693.76 594.44,690.635ZM225.18,766.102C225.564,766.123 226.036,766.089 226.155,766.671C230.144,786.164 236.832,801.627 252.948,814.603C248.285,816.863 243.094,818.25 238.111,819.639L231.321,821.121C217.049,805.253 211.917,789.87 211.861,769.234C215.989,768.099 220.955,767.081 225.18,766.102Z" style="fill:rgb(253,243,224);"/>
        <path d="M305.824,453.594C305.853,454.055 305.888,454.514 305.928,454.969C306.339,459.594 307.35,464.494 308.228,469.015L305.423,468.671C282.024,465.689 259.652,457.837 247.152,436.978C245.433,434.109 243.073,430.751 241.023,428.123L240.609,427.601C255.184,426.19 270.975,421.846 277.205,406.364C279.495,400.674 278.368,393.977 275.704,388.553C270.403,377.759 256.153,379.942 246.281,378.767C243.512,378.437 241.376,377.718 238.699,376.841L243.371,367.397C269.677,362.773 305.007,380.773 326.884,394.681C323.91,398.213 320.199,402.554 317.726,406.638C317.496,407.019 317.276,407.397 317.068,407.773C309.94,420.672 304.882,438.612 305.824,453.594ZM339.443,421.96C341.64,417.546 344.223,413.227 347.11,408.998C364.725,421.483 383.352,440.7 397.392,456.936C375.434,465.097 357.678,470.303 333.796,470.495C332.376,465.381 331.633,460.376 331.483,455.474C331.122,443.722 334.164,432.569 339.443,421.96ZM344.843,379.499C340.692,381.988 336.63,385.115 332.203,389.006C306.835,373.363 279.832,360.471 249.525,359.433C255.394,350.102 253.598,346.611 265.779,342.437C299.61,330.846 345.889,346.848 370.115,371.593C363.221,372.333 357.55,373.646 352.369,375.737C349.768,376.786 347.29,378.032 344.843,379.499ZM369.269,392.475C374.141,390.444 379.394,389.222 385.387,388.95C397.027,404.367 407.583,427.563 404.716,447.336C404.473,449.09 404.139,450.83 403.717,452.549C388.16,437.923 374.303,421.483 357.643,407.985C356.327,406.919 353.347,404.597 352.286,403.417C356.457,399.876 360.571,396.882 364.918,394.549C366.34,393.785 367.787,393.093 369.269,392.475ZM322.023,496.025C307.093,495.993 295.117,493.957 280.747,490.729C281.938,482.353 281.485,480.328 279.486,472.184C290.816,474.499 300.727,475.799 311.883,477.761C311.585,481.334 319.351,493.05 322.023,496.025ZM337.059,478.906C360.629,476.357 374.239,476.076 397.267,464.482C381.909,479.506 367.321,487.247 346.258,492.76C341.985,487.465 340.141,484.955 337.059,478.906Z" style="fill:rgb(57,37,0);"/>
        <path d="M314.424,569.898C331.651,586.94 352.88,594.2 375.868,599.386C361.528,604.743 346.557,611.654 339.484,626.194C347.333,623.171 355.243,620.305 363.208,617.599C400.725,605.022 445.323,596.015 485.014,595.87C494.337,595.836 501.819,596.023 511.015,598.119C525.812,601.491 535.232,608.536 547.955,614.859C544.807,609.145 541.869,604.968 537.788,599.898C538.869,599.9 539.95,599.912 541.03,599.944C559.002,600.485 575.979,608.32 588.17,621.536C602.747,637.035 607.641,654.337 607.021,675.076C595.816,671.712 585.444,674.003 574.894,678.516C552.388,689.422 533.376,712.086 533.482,737.999C531.245,738.156 529,738.288 526.758,738.138C521.626,737.796 516.749,735.772 512.876,732.388C495.872,717.438 511.282,693.179 495.546,675.554C492.238,682.989 490.617,693.015 489.018,701.129C473.842,701.173 457.721,706.532 442.939,709.421C428.694,712.205 414.406,713.692 399.907,713.868C341.196,714.581 279.814,680.153 291.101,613.09C294.138,595.045 301.211,582.767 314.424,569.898ZM296.047,691.835C297.005,692.306 300.597,696.53 301.571,697.633C328.564,728.197 366.191,734.92 404.635,734.984C386.95,752.004 372.131,773.274 353.629,790.098C339.509,802.938 334.607,808.782 315.809,815.157C304.118,817.832 295.695,818.955 284.099,815.29C289.877,815.064 291.592,814.631 297.02,812.894C288.758,810.549 283.389,808.509 275.38,805.261C251.879,795.73 233.783,775.186 244.794,749.009C247.423,742.76 251.409,739.701 257.701,737.418C259.725,746.468 261.011,752.112 265.4,760.203C266.275,754.439 266.469,749.431 267.923,743.542C272.747,724.005 283.572,707.205 296.047,691.835ZM118.304,628.163C120.1,630.356 121.951,632.504 123.858,634.602C143.247,655.937 169.325,663.202 197.143,664.431C146.353,678.8 92.946,653.461 71.227,605.421C66.375,594.689 64.304,583.977 62.06,572.541C72.114,583.97 78.086,586.058 91.82,591.863C55.43,542.282 100.021,498.692 69.347,446.829C73.109,447.754 77.126,448.586 80.793,449.738C121.899,462.655 150.886,497.957 167.119,536.54C171.074,545.94 174.704,555.581 179.527,564.605C160.458,554.178 157.184,552.111 142.118,536.814C141.245,559.316 146.972,572.253 158.014,591.5C136.589,582.764 130.679,580.856 119.161,561.06C118.799,589.812 131.552,616.304 158.186,628.793C143.158,629.667 132.916,630.534 118.553,626.169C118.241,626.074 117.927,625.977 117.611,625.877L116.744,625.657L116.679,626.146C117.216,626.823 117.757,627.495 118.304,628.163ZM174.433,363.445C174.641,363.445 176.275,363.43 176.497,363.531C179.391,364.849 183.785,371.926 185.572,374.517C186.213,370.678 186.945,367.966 187.986,364.192C196.626,366.585 202.011,369.608 204.572,378.731C203.81,383.352 202.833,385.477 200.936,389.609C218.989,389.565 232.924,394.162 250.428,397.527C253.627,398.142 257.2,396.749 260.542,398.385C262.388,400.705 261.878,404.276 259.972,406.377C250.806,416.482 234.041,407.639 224.563,418.049C222.701,420.094 221.933,422.795 222.163,425.575C225.849,446.84 246.87,463.987 261.657,478.401C266.344,482.97 264.444,487.374 260.472,491.631C253.094,489.429 247.531,486.758 240.779,483.169C222.919,472.582 219.856,468.483 206.442,454.33C212.587,464.557 216.15,473.932 222.64,484.149C213.652,482.35 209.322,480.201 202.498,473.932C201.191,472.731 198.459,470.075 197.026,469.308C197.188,470.783 197.311,471.189 197.09,472.67C194.963,472.589 191.706,469.833 190.01,468.464C176.838,457.681 166.287,444.047 159.152,428.592C152.832,414.959 149.25,400.695 149.911,385.609C150.339,375.834 152.478,370.445 161.707,366.608C162.907,373.666 163.462,376.122 167.146,382.279C167.717,376.866 169.665,366.599 174.433,363.445ZM483.38,303.955C481.571,304.008 479.714,304.014 477.782,303.964C485.249,312.421 492.65,319.743 501.966,326.167C503.651,327.329 506.059,328.947 507.499,330.252C506.659,330.182 506.1,330.115 505.277,329.886C475.124,321.504 449.644,300.5 434.059,273.725C438.781,270.948 445.716,265.788 450.063,262.451C437.836,258.922 428.583,255.704 417.174,249.937C430.938,245.936 444.035,240.559 456.005,232.635C449.583,230.263 440.807,226.137 434.204,223.374C447.73,218.558 461.611,214.69 472.122,204.212C454.155,156.278 449.342,128.66 464.419,77.531C493.035,97.694 518.822,121.598 541.094,148.604C544.152,152.288 556.427,169.097 559.902,169.578C566.78,166.486 561.471,150.761 559.667,145.554C605.24,146.766 643.671,161.951 671.065,199.62C676.914,207.663 681.399,213.255 685.989,222.481C683.976,228.789 677,240.702 681.358,246.214C692.485,260.288 720.718,269.682 737.174,274.145C730.21,282.894 727.476,289.551 731.474,300.604C726.444,301.571 721.332,302.029 716.168,302.063C681.263,302.289 644.02,283.083 613.952,270.116C570.639,251.437 519.015,261.279 478.377,282.839C485.608,289.214 496.213,297.535 504.781,301.632C497.192,302.775 490.671,303.744 483.38,303.955ZM664.989,240.131C674.695,231.5 673.207,221.256 662.646,213.486C660.279,211.745 657.456,210.128 654.201,208.681C657.556,214.705 662.919,225.731 656.598,231.509C645.655,234.94 621.714,194.04 595.143,196.199C592.875,196.396 592.389,196.05 590.84,197.171C591.592,200.128 596.832,202.62 599.788,205.075C584.653,204.578 572.366,205.384 561.929,217.926C571.815,217.789 579.368,218.073 588.728,221.916C586.37,230.55 587.952,238.485 592.299,246.208C596.829,254.312 604.405,260.274 613.347,262.772C626.149,266.3 636.15,259.532 642.974,249.301C645.48,247.209 651.605,248.14 655.04,246.498C659.147,244.535 662.45,242.388 664.989,240.131ZM473.018,155.705C472.95,155.678 472.883,155.652 472.815,155.625C473.711,162.297 475.015,167.913 477.294,172.977C480.038,179.076 484.196,184.373 490.758,189.746C493.724,192.175 504.346,199.237 508.19,199.087L508.551,198.432L507.392,196.223C503.652,187.779 501.496,180.849 499.497,171.869C507.548,175.272 513.666,176.428 522.07,178.337C515.723,156.475 493.238,122.34 475.75,107.777C474.979,110.727 474.901,113.413 474.765,116.446C473.98,133.968 478.113,150.131 491.147,162.443C485.199,160.176 478.867,158.002 473.018,155.705ZM928.002,283.185C932.047,282.851 942.885,282.04 945.689,285.155C944.367,287.146 927.091,293.415 923.492,295.269C898.975,307.898 881.585,327.711 882.137,356.53C872.72,361.839 867.296,364.389 861.577,373.764C887.52,375.145 891.393,360.693 913.812,356.893C914.878,356.744 917.718,357.337 918.167,358.429C923.13,370.496 901.113,385.044 894.913,390.576C888.622,413.339 882.045,421.483 858.619,425.531C853.644,426.294 848.606,426.562 843.578,426.333C849.329,431.723 852.855,432.479 860.254,434.042C854.446,436.936 848.274,439.758 841.602,438.733C821.341,435.621 816.653,411.38 818.694,394.47C819.75,385.717 823.701,382.716 830.141,377.973C830.966,388.408 831.394,393.48 837.323,402.212C838.932,375.238 850.922,340.437 867.268,318.89C881.06,300.711 905.441,286.141 928.002,283.185ZM938.98,311.182C949.173,309.688 956.363,310.651 964.593,316.695C959.99,319.481 952.985,321.432 947.783,323.262C934.967,327.77 925.876,332.09 915.448,340.646C913.566,341.954 907.114,343.218 904.311,344.402C901.203,345.716 899.514,346.616 896.506,348.295C904.943,327.595 915.278,314.42 938.98,311.182ZM614.874,314.756C635.487,318.57 648.582,330.994 656.64,350.174C642.152,344.899 624.028,327.274 614.874,314.756Z" style="fill:rgb(215,99,26);"/>
        <path d="M128.95,436.172C125.855,429.208 123.425,422.181 121.784,415.295C119.515,405.772 120.96,407.621 115.683,398.716C112.601,393.555 110.016,388.111 107.963,382.461C98.84,357.519 102.584,330.24 113.72,306.636L113.731,306.613C121.641,289.997 132.547,274.98 145.876,262.342C182.197,227.54 222.089,226.614 268.29,220.201C272.964,219.553 280.432,215.711 285.148,214.017C313.869,203.699 351.908,208.322 382.448,219.025L371.898,207.946L397.09,201.806C409.952,198.671 419.528,194.958 429.662,189.168C429.413,188.426 429.169,187.682 428.93,186.935C414.792,142.667 421.245,82.22 442.377,41.154L449.442,27.424L462.962,34.884C473.343,40.612 481.769,46.97 491.379,53.629C516.705,71.179 538.901,91.317 558.819,114.714C564.073,114.668 569.622,114.888 574.917,115.305C578.769,110.213 583.332,104.773 586.289,101.342C603.083,81.855 624.369,57.983 644.473,42.08L655.369,33.462L664.796,43.665C672.281,51.767 677.419,64.547 679.896,79.72C684.145,105.741 681.155,139.336 677.032,160.546C692.298,177.709 701.115,192.105 714.532,212.418L718.204,217.976L716.542,224.427C715.764,227.446 714.719,230.592 713.574,233.728C721.792,238.732 731.381,241.915 741.227,244.441C756.751,248.423 772.992,250.636 787.383,253.808L787.68,253.886C801.875,257.629 806.694,267.772 806.356,279.429C806.148,286.615 803.214,294.624 800.22,299.966C780.483,335.176 745.034,355.502 706.708,355.812C706.733,357.897 706.561,359.975 706.161,362.095C726.687,369.887 752.848,368.869 773.205,362.494C775.393,361.809 777.958,359.584 780.788,357.833C784.623,355.46 788.61,353.39 792.361,352.252C802.54,349.163 809.775,348.972 818.171,351.774C818.515,351.606 818.859,351.44 819.206,351.277C829.687,316.754 843.031,295.847 874.145,273.055C896.157,256.931 921.507,247.83 949.307,251.976C958.853,253.398 971.66,259.161 977.183,267.443C981.212,273.416 982.574,280.798 980.945,287.8C980.728,288.751 980.461,289.675 980.148,290.574C983.291,292.555 986.167,294.924 988.493,297.606C994.233,304.225 997.027,312.453 995.267,321.499C993.375,331.222 986.799,338.68 977.426,343.878C969.134,348.477 958.218,351.063 951.452,353.97C950.246,354.488 949.146,354.969 948.106,355.445C948.646,358.28 948.849,361.01 948.775,363.667C948.511,373.195 944.568,382.137 937.116,391.98C936.77,392.437 935.252,394.732 934.42,395.995C927.236,424.213 908.32,445.056 880.915,454.296C863.786,476.902 841.886,491.03 814.969,495.082C812.946,496.006 803.478,500.326 801.301,501.317C744.035,527.387 674.635,522.981 615.916,502.798C603.351,519.015 588.238,534.488 573.361,548.504C574.043,557.29 572.997,564.833 570.266,572.162C610.274,585.278 637.999,622.123 640.689,666.286C641.155,673.936 640.603,680.977 638.015,687.495C641.936,692.406 645.871,697.306 649.819,702.196C656.098,699.639 662.337,699.171 668.071,700.307C674.577,701.595 680.908,705.058 686.179,711.034C696.018,707.668 707.262,702.383 712.932,696.445C723.611,685.26 731.211,674.779 745.184,666.418C762.532,655.896 783.382,652.788 803.103,657.806L803.161,657.821C818.094,661.748 827.581,668.428 835.518,680.421C850.19,689.482 853.045,702.428 851.055,717.423C861.315,728.042 863.251,741.125 859.087,749.982C856.688,755.088 852.103,760.149 844.215,762.954C844.068,763.4 843.919,763.845 843.765,764.292C849.225,776.882 845.742,787.791 838.78,794.806C833.729,799.894 825.946,803.381 816.634,803.071C815.462,804.357 814.294,805.555 813.055,806.763C814.858,819.386 808.568,828.335 801.049,832.801C794.418,836.74 785.129,837.818 776.223,833.745C772.551,836.026 769.032,838.044 765.664,840.109C761.649,842.571 757.905,845.104 754.51,848.853C759.438,856.948 760.094,866.799 753.707,876.76L753.675,876.81C749.742,882.838 743.471,886.951 736.42,888.148C732.82,888.771 729.659,888.722 726.714,888.141C725.994,888.848 725.253,889.53 724.475,890.199C724.041,897.376 721.5,903.591 717.19,907.972C712.646,912.591 705.803,916.1 695.33,915.589C689.847,915.322 685.025,913.217 680.806,910.159C671.154,913.869 661.482,913.602 652.954,910.428C643.102,906.761 634.468,898.953 629.328,887.649C610.138,876.551 599.836,859.513 596.492,838.454C592.291,836.932 589.02,834.692 586.452,832.115C580.977,826.622 578.119,818.388 578.407,808.13C565.772,795.607 553.229,785.136 539.672,773.697C524.321,776.233 508.589,772.622 495.873,763.635L495.864,763.629C485.491,756.277 478.886,747.069 474.823,736.25C471.583,737.022 468.191,737.895 465.011,738.817C461.042,739.968 457.398,740.837 455.8,742.003C453.217,743.889 451.512,747.657 449.54,750.184C432.328,772.252 405.681,801.41 376.649,822.479C355.834,837.585 333.699,848.448 312.785,850.919C296.558,852.837 281.9,850.522 268.493,842.48C263.064,844.549 257.959,846.562 252.361,848.561C245.318,862.872 229.418,868.216 213.946,867.854C210.605,872.118 209.868,876.487 206.827,881.648C205.27,884.291 203.792,886.595 202.279,888.784C207.395,895.638 210.502,902.518 212.731,911.598C218.618,916.59 221.919,922.746 223.059,929.136C224.52,937.322 222.497,946.517 215.516,955.117C205.301,967.7 187.299,973.644 171.263,975.936C165.06,981.853 158.226,984.324 151.859,984.37C145.249,984.419 138.236,981.941 132.004,975.652C127.401,974.875 123.764,974.064 119.668,972.679C113.165,975.81 106.12,976.567 98.294,973.67C91.502,971.2 86.047,966.009 83.241,959.349C81.146,954.391 80.621,949.918 81.212,945.474C80.446,944.522 79.731,943.565 79.028,942.559C72.435,941.732 66.753,938.887 62.739,934.578C58.342,929.858 55.302,923.09 56.006,913.68C56.54,906.544 59.558,900.759 63.908,895.794C63.853,894.761 63.811,893.735 63.783,892.71C58.476,888.858 54.462,883.373 53.823,876.324C52.385,860.446 62.072,851.933 73.651,848.229C75.195,845.071 76.925,842.006 78.832,839.049C81.605,834.715 84.456,830.967 86.901,827.179C88.445,824.788 89.827,822.408 90.555,819.546C85.231,810.563 84.176,803.231 86.256,793.916C80.444,785.527 79.717,776.419 82.174,768.535C85.21,758.794 93.888,749.811 107.795,746.572C108.28,746.459 108.837,746.366 109.441,746.29C113.249,740.269 117.843,735.861 123.387,733.089C128.093,730.735 133.623,729.398 140.355,729.697C149.375,725.842 157.761,724.157 168.177,725.552C180.88,727.194 192.683,732.646 202.105,741.049C206.481,739.339 210.653,737.93 215.243,736.372C221.078,720.837 230.679,712.145 246.316,707.13C247.065,705.468 247.819,703.844 248.581,702.25C240.259,705.459 231.698,708.059 222.964,710.022C183.551,718.89 139.63,716.066 102.543,699.456C93.318,695.325 85.385,690.316 76.894,684.946L81.528,671.35C68.864,661.475 57.156,649.428 49.534,637.148C29.123,604.267 22.281,561.753 30.544,524.113L34.568,505.783L45.069,510.704C45.841,503.304 46.34,495.876 45.805,488.233C44.625,471.37 37.815,457.926 26.882,445.385L17.471,434.589L27.82,424.689C37.593,415.339 43.761,413.166 57.037,413.362C83.488,413.579 107.81,422.204 128.95,436.172ZM292.448,525.305C285.744,524.302 280.029,522.997 271.431,520.2C265.172,522.264 258.102,522.321 250.793,520.644C242.31,518.697 233.416,514.308 226.535,510.5C214.304,511.971 203.884,510.329 191.631,504.476C190.714,504.041 189.801,503.588 188.891,503.118C190.543,506.157 192.114,509.229 193.6,512.324C209.168,544.752 229.097,577.835 266.43,582.921C271.832,570.57 279.832,559.863 288.925,549.776C286.809,540.433 288.507,532.828 292.448,525.305ZM687.751,340.454C686.954,340.675 687.154,340.537 686.552,340.985C681.078,345.058 677.128,347.44 670.839,349.905C668.444,342.98 666.487,337.51 663.631,330.748C672.137,334.555 679.101,336.709 687.922,339.142C727.743,346.597 766.959,328.628 787.135,292.632C791.124,285.515 795.513,271.464 783.855,268.39C755.363,262.11 718.192,259.376 695.478,238.918C697.754,233.136 700.48,226.647 702.016,220.685C687.628,198.903 678.79,184.129 660.721,164.943C667.265,138.549 673.228,74.895 653.779,53.845C634.364,69.202 613.87,92.316 597.652,111.134C593.362,116.112 585.154,125.757 582.215,131.14C572.966,129.922 561.294,129.311 552.016,129.975C531.771,105.198 509.056,84.128 482.835,65.958C473.656,59.597 465.631,53.489 455.715,48.017C436.238,85.867 430.185,141.571 443.219,182.371C444.627,186.777 446.243,191.114 448.061,195.367C432.064,206.062 419.539,211.773 400.642,216.379C405.553,221.536 409.629,225.137 415.248,229.52L393.696,239.842C364.67,225.923 321.385,216.938 290.219,228.134C284.693,230.119 275.829,234.299 270.352,235.059C227.421,241.017 190,240.835 156.25,273.176C144.221,284.575 134.398,298.097 127.275,313.06C117.839,333.061 114.312,356.172 122.057,377.326C123.79,382.098 125.973,386.695 128.578,391.053C135.211,402.245 133.528,399.866 136.376,411.818C143.763,442.822 169.051,477.171 198.083,490.935C208.974,496.14 217.997,496.998 229.419,494.887C239.66,500.835 259.297,512.118 270.494,504.052C288.431,510.301 293.522,510.426 311.775,512.562C312.951,514.568 314.129,516.459 315.084,518.58C306.213,530.153 299.205,538.393 305.993,553.478C293.229,566.716 281.698,580.55 276.744,598.594C226.293,598.684 199.47,559.209 180.078,518.816C157.143,471.044 112.5,428.815 56.906,428.361C48.388,428.232 44.43,429.557 38.189,435.528C51.347,450.622 59.347,466.889 60.769,487.185C61.898,503.322 58.768,518.556 57.627,534.459C54.181,532.432 48.645,528.946 45.195,527.329C37.746,561.262 43.878,599.595 62.278,629.237C72.69,646.01 91.741,662.185 109.226,671.784C102.145,672.146 91.834,672.915 84.912,672.269C92.786,677.249 100.119,681.935 108.674,685.766C142.856,701.074 183.347,703.561 219.673,695.387C238.529,691.15 256.508,683.678 272.813,673.301C274.807,672.059 278.472,669.739 280.619,668.345C280.934,668.542 281.25,668.74 281.566,668.937C282.266,670.229 282.814,671.249 283.415,672.607C272.491,688.794 264.734,701.667 257.21,719.71C240.521,723.488 231.725,731.177 227.25,748.103C216.421,751.914 208.931,753.959 198.38,759.009C190.578,748.761 178.994,742.066 166.219,740.424C157.467,739.245 150.714,741.255 142.941,744.999C129.743,743.064 123.525,749.579 118.684,760.984C116.626,760.952 113.095,760.739 111.198,761.181C95.651,764.802 90.266,779.427 103.009,790.114C99.332,800.496 99.447,806.573 106.087,815.901C105.786,829.204 98.367,836.341 91.45,847.16C88.6,851.576 86.225,856.283 84.366,861.2C76.884,862.115 67.861,865.028 68.762,874.971C69.221,880.041 74.536,882.313 78.929,883.599C78.547,889.921 78.773,895.298 79.416,901.617C75.188,905.157 71.395,909.045 70.964,914.799C70.167,925.452 78.1,929.199 87.205,927.385C90.852,933.576 92.762,936.447 97.927,941.448C96.181,945.544 95.218,949.147 97.061,953.517C98.25,956.336 100.562,958.523 103.434,959.578C109.068,961.648 113.726,959.45 118.092,955.966C126.417,959.581 130.764,960.339 139.854,961.702C147.115,972.049 156.304,971.805 163.881,961.703C177.542,960.45 194.796,956.841 203.87,945.663C211.394,936.394 209.661,926.279 199.305,920.483C196.737,906.88 192.725,899.306 182.966,889.473C187.246,884.101 190.359,880.049 193.904,874.033C198.184,866.769 199.194,861.088 205.261,855.11L208.071,852.313C221.118,854.293 237.645,852.175 240.593,836.732C251.657,833.132 259.991,829.536 270.547,825.704C282.575,835.151 295.966,837.803 311.024,836.023C357.655,830.511 410.197,776.233 437.713,740.958C440.474,737.419 443.34,732.527 446.957,729.887C453.068,725.426 477.377,720.051 485.645,718.686C487.936,732.095 493.114,743.294 504.538,751.391C514.051,758.114 525.84,760.843 537.323,758.882C539.358,758.535 541.572,757.901 543.572,757.35C561.547,772.611 577.576,785.604 594.01,802.578C591.709,816.242 594.489,825.849 610.317,825.542C611.108,848.46 620.102,866.847 641.309,877.021C647.285,896.377 666.354,904.35 683.263,891.759C686.604,895.869 690.466,900.334 696.061,900.607C708.393,901.209 710.917,892.681 709.036,882.923C715.273,878.953 718.009,875.893 722.47,869.941C726.095,872.335 729.203,874.167 733.862,873.368C736.835,872.858 739.464,871.14 741.112,868.614C745.716,861.433 741.659,854.589 735.417,850.367C745.919,830.202 759.769,827.887 776.436,815.526C787.432,827.647 804.102,819.581 796.067,802.029C802.255,796.467 805.488,793.562 810.568,786.858C825.433,791.74 836.502,781.335 828.763,767.791C828.3,766.981 827.82,766.18 827.328,765.387C829.54,759.928 830.849,755.864 832.256,750.119C850.646,748.974 849.62,734.773 837.136,725.041C836.34,724.421 835.541,723.805 834.739,723.194C837.734,710.235 838.591,698.54 824.834,691.626C818.636,681.104 811.4,675.498 799.346,672.328C783.58,668.316 766.862,670.81 752.954,679.249C740.2,686.868 733.498,696.626 723.781,706.803C714.411,716.618 692.751,725.518 679.696,728.503C672.614,713.006 659.029,710.188 646.633,722.084C637.61,710.999 628.656,699.858 619.772,688.662C625.5,682.432 626.208,675.255 625.717,667.198C623.022,622.962 591.193,587.113 547.306,582.53C556.755,569.515 560.421,559.018 557.498,542.786C576.203,525.522 595.951,505.726 610.503,484.864C667.766,506.933 737.862,513.715 795.086,487.665C798.089,486.298 809.378,480.718 811.607,480.412C836.61,476.977 856.466,463.251 871.739,441.418C897.129,434.476 914.441,415.989 920.324,390.478C920.562,389.446 924.353,383.988 925.157,382.926C933.87,371.417 936.98,362.187 929.819,348.662C935.554,344.7 939.387,342.828 945.53,340.188C956.199,335.604 977.904,332.198 980.543,318.634C982.616,307.98 970.085,300.092 960.756,299.024C958.046,298.714 955.314,298.63 952.59,298.781C958.173,295.423 964.721,291.386 966.326,284.442C967.014,281.466 966.437,278.345 964.733,275.81C961.271,270.66 953.016,267.694 947.096,266.812C923.356,263.273 901.806,271.387 883.009,285.156C853.04,307.109 841.433,327.216 831.636,362.24C826.903,364.186 823.507,365.621 819.19,368.4C811.066,364.5 805.527,363.932 796.716,366.606C790.17,368.592 782.861,375.189 777.687,376.809C751.865,384.895 717.961,385.085 693.5,372.918C691.333,371.84 689.02,370.74 686.975,369.609C693.726,358.572 691.892,351.615 687.751,340.454ZM364.918,394.549C360.571,396.882 356.457,399.876 352.286,403.417C345.707,398.454 339.011,393.649 332.203,389.006C336.63,385.115 340.692,381.988 344.843,379.499C347.29,378.032 349.768,376.786 352.369,375.737C357.55,373.646 363.221,372.333 370.115,371.593C375.852,377.006 380.881,382.437 385.387,388.95C379.394,389.222 374.141,390.444 369.269,392.475C367.787,393.093 366.34,393.785 364.918,394.549ZM716.168,302.063C721.332,302.029 726.444,301.571 731.474,300.604C736.456,307.773 742.546,309.408 751.042,308.645C736.979,320.039 716.354,326.816 698.241,324.835C682.898,323.157 668.377,316.24 654.826,308.882C633.938,297.539 611.597,279.311 588.659,297.239C584.286,300.657 580.881,305.16 578.812,310.311C583.754,308.694 586.304,308.228 591.549,307.864C607.653,330.585 635.836,363.538 666.289,364.083C667.917,364.112 671.796,363.346 672.918,363.772C672.884,365.134 672.688,365.59 671.486,366.498C654.113,379.619 630.368,365.466 614.9,356.339C593.888,343.94 574.023,341.925 551.001,349.578C541.379,352.582 534.366,355.23 525.352,360.421L531.595,362.438C529.04,368.166 526.474,374.133 523.827,379.798C517.277,378.339 512.364,377.449 506.314,374.396L505.84,374.16C507.763,368.187 510.915,361.524 513.449,355.666C511.8,354.701 507.462,351.889 505.895,351.83C502.898,354.531 499.032,364.93 497.419,369.035C492.465,365.95 485.789,362.062 481.653,358.167C485.261,352.803 489.08,346.853 492.788,341.622C503.761,340.974 508.895,338.762 517.939,332.191C513.613,331.956 511.662,331.872 507.499,330.252C506.059,328.947 503.651,327.329 501.966,326.167C492.65,319.743 485.249,312.421 477.782,303.964C479.714,304.014 481.571,304.008 483.38,303.955C490.671,303.744 497.192,302.775 504.781,301.632C496.213,297.535 485.608,289.214 478.377,282.839C519.015,261.279 570.639,251.437 613.952,270.116C644.02,283.083 681.263,302.289 716.168,302.063ZM317.726,406.638C320.199,402.554 323.91,398.213 326.884,394.681C333.848,399.132 340.597,403.91 347.11,408.998C344.223,413.227 341.64,417.546 339.443,421.96C334.164,432.569 331.122,443.722 331.483,455.474C331.633,460.376 332.376,465.381 333.796,470.495C325.594,470.494 316.377,469.737 308.228,469.015C307.35,464.494 306.339,459.594 305.928,454.969C305.888,454.514 305.853,454.055 305.824,453.594C304.882,438.612 309.94,420.672 317.068,407.773C317.276,407.397 317.496,407.019 317.726,406.638ZM811.727,730.275C816.337,729.097 821.039,731.84 822.283,736.433C823.526,741.026 820.85,745.766 816.274,747.074C813.257,747.937 810.008,747.108 807.773,744.905C805.537,742.702 804.661,739.466 805.48,736.436C806.299,733.406 808.686,731.052 811.727,730.275ZM311.883,477.761C320.886,478.52 327.994,479.115 337.059,478.906C340.141,484.955 341.985,487.465 346.258,492.76C337.358,494.474 331.126,495.361 322.023,496.025C319.351,493.05 311.585,481.334 311.883,477.761ZM808.549,701.592C815.692,701.155 819.473,706.8 823.659,711.754C811.18,710.154 799.269,715.462 789.527,723.071C750.303,753.706 736.689,804.402 698.177,835.867C686.986,845.01 664.85,860.862 662.833,875.487C662.662,878.413 662.899,881.451 663.056,884.387C640.108,868.643 679.187,840.75 690.837,831.263C711.522,814.419 724.533,795.494 738.05,772.921C752.202,749.287 780.419,708.014 808.549,701.592ZM752.147,804.426C745.68,802.308 745.929,794.501 753.017,789.999C753.965,789.956 754.852,789.991 755.676,790.094C756.607,790.211 757.458,790.414 758.224,790.69C762.236,792.135 763.931,795.585 762.721,799.078C762.26,800.409 761.377,801.747 760.04,802.982C759.309,803.658 758.442,804.302 757.434,804.899C756.206,805.009 755.09,804.989 754.089,804.858C753.386,804.766 752.738,804.62 752.147,804.426ZM661.042,730.03C663.78,729.841 666.392,729.449 667.896,732.002C665.906,735.51 661.092,739.159 657.856,744.49C653.276,752.033 653.921,758.146 651.5,763.475C649.459,763.937 649.156,764.073 647.115,763.928C642.745,761.326 644.84,754.674 646.241,750.659C648.846,743.192 653.693,733.678 661.042,730.03ZM691.115,860.565C703.088,859.848 703.326,873.181 694.171,877.111C683.126,877.37 680.565,866.193 691.115,860.565ZM124.893,891.69C124.184,891.893 123.582,892.079 123.131,892.211C122.058,892.525 122.017,892.429 120.877,892.48L120.478,891.872C120.761,890.855 121.485,889.993 122.474,889.265C125.321,887.169 130.362,886.184 133.355,885.793C133.658,885.753 133.942,885.728 134.198,885.692C135.539,885.502 135.444,885.451 136.764,885.738L136.998,886.827C136.574,887.482 135.372,888.157 133.825,888.804C131.124,889.933 127.375,890.979 124.893,891.69ZM693.689,733.565L694.679,733.773C695.137,736.171 692.534,742.199 691.913,744.976C690.288,752.242 696.609,761.622 686,763.181C678.312,757.399 684.305,742.039 687.976,735.136C689.661,734.542 691.924,734.023 693.689,733.565ZM679.091,738.85C680.214,739.284 679.695,738.984 680.505,740.012C680.616,744.141 675.973,748.462 674.635,752.482C673.288,756.53 672.755,761.896 671.201,765.808C670.607,767.304 667.685,767.506 666.186,767.664C658.511,760.594 670.401,742.171 679.091,738.85ZM647.409,803.679C668.343,801.91 680.225,811.512 698.633,819.023C697.212,821.234 695.547,823.37 693.97,825.482C689.857,824.528 686.036,822.815 682.129,821.213C663.046,813.272 648.389,808.76 627.491,813.87C633.954,807.321 638.303,804.997 647.409,803.679ZM610.985,225.317C616.942,227.634 620.141,229.172 625.437,232.711C618.771,236.419 616.636,239.535 616.452,247.154C616.696,248.471 616.847,249.702 617.024,251.027L616.633,251.34C607.38,245.022 604.024,234.858 610.985,225.317ZM712.276,739.387C712.85,741.453 713.773,743.346 715.154,745.891C713.377,750.788 712.346,752.508 706.933,752.297C701.864,749.034 700.794,740.203 701.667,734.71C702.346,730.439 708.003,727.964 711.495,725.891C712.882,726.417 711.463,730.512 711.487,732.691C711.514,735.173 711.704,737.05 712.113,738.758C712.164,738.97 712.218,739.179 712.276,739.387ZM788.043,764.216C786.934,765.731 785.318,767.123 783.182,768.212C771.633,769.421 770.825,755.863 780.567,751.512C789.067,751.595 791.86,758.193 788.467,763.592C788.335,763.802 788.194,764.01 788.043,764.216ZM777.911,687.672C782.116,687.142 785.369,687.657 789.498,688.307C767.837,695.466 755.433,707.537 744.614,727.518C743.614,729.643 742.935,731.338 741.524,733.23L740.756,733.02C740.508,732.586 740.217,731.991 740.206,731.482C739.781,711.357 758.266,690.634 777.911,687.672ZM137.739,760.963C139.081,762.508 133.139,774.717 132.11,776.85C123.414,794.872 126.906,815.191 119.939,833.505C115.117,846.18 104.739,855.934 100.768,869.015C86.792,915.747 122.645,951.308 169.258,943.945C171.508,943.59 185.741,939.945 186.853,940.304C186.132,942.545 182.929,943.899 180.79,944.998C151.354,957.811 114.325,948.443 98.355,919.59C87.832,900.578 88.282,873.368 99.373,854.599C104.644,845.679 111.918,837.149 115.021,827.114C118.654,813.505 116.654,798.161 121.189,784.11C124.55,773.697 127.859,766.442 137.739,760.963ZM182.223,774.66C184.25,775.629 185.16,776.864 186.694,778.497C185.764,788.695 185.504,799.158 188.134,809.179C189.216,813.302 191.363,816.322 191.967,820.953C191.427,822.66 190.332,823.156 188.845,824.233C179.543,813.451 173.659,787.322 182.223,774.66ZM153.271,869.255C154.973,869.523 162.535,875.471 165.293,876.239C171.267,877.903 176.633,875.631 181.851,873.28C180.711,877.059 180.334,878.099 177.975,881.285C174.551,883.804 172.569,884.126 168.402,884.402C161.824,884.837 143.526,877.438 153.271,869.255ZM208.744,832.155C213.619,832.468 221.222,834.048 224.253,838.062C224.799,842.618 215.438,842.13 212.292,842.279C205.826,842.064 200.285,841.202 193.937,840.233C199.373,835.751 201.7,833.208 208.744,832.155ZM176.201,832.759C179.422,833.177 183.159,839.072 185.628,841.822C189.293,845.905 192.464,846.642 196.36,849.799C195.34,851.524 194.291,852.018 192.596,853.202C186.711,854.741 182.62,851.645 178.684,847.396C175.979,844.477 173.203,840.176 173.399,836.073C173.466,834.669 175.149,833.572 176.201,832.759ZM164.23,850.779C166.748,850.949 168.867,853.239 170.899,854.796C176.78,859.303 180.95,860.808 188.205,862.037C187.153,863.642 185.848,865.389 184.725,866.972C177.585,871.747 155.715,860.422 164.23,850.779Z" style="fill:rgb(253,243,224);"/>
    </g>
</svg>
