<?xml version="1.0" encoding="UTF-8" standalone="no"?>
<!DOCTYPE svg PUBLIC "-//W3C//DTD SVG 1.1//EN" "http://www.w3.org/Graphics/SVG/1.1/DTD/svg11.dtd">
<svg width="100%" height="100%" viewBox="0 0 920 792" version="1.1" xmlns="http://www.w3.org/2000/svg" xmlns:xlink="http://www.w3.org/1999/xlink" xml:space="preserve" xmlns:serif="http://www.serif.com/" style="fill-rule:evenodd;clip-rule:evenodd;stroke-linejoin:round;stroke-miterlimit:2;">
    <g transform="matrix(1,0,0,1,-56.1293,-115.545)">
        <path d="M493.334,481.402C494.73,483.5 491.872,493.182 495.443,499.683C499.438,506.955 507.72,508.933 515.554,508.182C518.646,507.885 521.743,504.481 525.559,505.839L525.917,506.803C525.638,508.466 524.884,509.065 523.778,510.352C504.994,522.285 478.594,502.282 493.334,481.402ZM502.439,484.304L504.722,484.635C506.405,485.937 505.854,485.148 506.626,486.944C506.257,489.248 506.706,488.238 505.163,490.06C503.028,489.507 501.729,489.279 500.642,487.246C500.988,485.331 500.854,485.948 502.439,484.304ZM146.447,274.684C149.436,246.439 154.865,220.071 148.158,191.611C163.437,210.597 171.12,230.431 175.116,254.235C176.934,265.063 178.082,274.321 180.354,285.018C190.108,330.951 226.728,345.047 269.529,349.572C301.306,352.931 334.78,351.912 366.793,351.478C377.28,351.337 390.112,350.301 400.388,350.511C415.372,359.981 418.471,377.172 415.164,393.589C400.88,392.551 385.794,393.727 371.858,392.906C348.496,391.528 323.978,388.98 300.776,385.765C276.007,382.333 245.136,378.381 221.622,370.138C190.935,359.381 174.52,343.566 164.717,312.487C162.574,305.693 162.296,298.634 159.887,292.549C158.674,289.486 159.07,287.071 158.896,286.751C157.063,283.389 151.54,272.796 148.405,271.2L147.56,271.683C147.342,273.07 147.133,273.453 146.447,274.684ZM701.057,388.417C700.553,380.046 699.749,374.641 698.096,366.565C727.65,372.715 757.907,374.789 788.024,372.731C808.412,371.147 828.137,366.127 843.602,351.835C875.089,322.737 866.053,271.518 894.157,239.037L894.604,238.53C889.709,262.721 892.07,280.998 891.447,305.248C891.1,306.92 890.811,308.414 890.544,310.099L890.424,304.996C888.997,303.727 889.796,304.127 887.942,303.734C885.729,304.912 885.284,306.389 884.629,308.825C873.851,348.902 859.06,384.469 815.572,395.697C776.991,405.658 740.759,403.587 701.42,399.733C701.496,396.155 701.77,391.85 701.057,388.417Z" style="fill:rgb(237,232,227);"/>
        <path d="M56.129,115.683C69.503,114.565 92.342,120.517 105.063,124.357C142.772,135.74 175.872,159.516 194.849,194.491C199.979,203.944 204.606,213.62 207.654,223.999C214.794,245.554 213.833,274.44 229.056,291.782C234.662,298.168 245.523,304.284 253.718,306.184C288.035,314.142 326.692,310.862 361.735,309.812C370.093,308.457 385.523,310.018 393.071,307.876C416.575,301.206 434.466,296.386 459.399,295.965C474.621,295.633 489.833,297.003 504.751,300.048C519.812,303.195 534.875,307.639 550.215,308.88C562.943,309.911 574.233,307.292 586.753,305.872C599.056,304.41 611.472,304.144 623.826,305.076C642.402,306.484 659.178,309.866 676.401,317.308C681.011,319.299 688.15,324.438 692.401,325.523C710.632,330.178 730.713,332.216 749.597,333.281C775.868,334.763 811.557,333.785 827.148,308.645C832.39,300.193 835.529,284.135 838.296,274.108C845.345,248.557 860.55,216.662 880.406,199.083C885.851,194.216 891.891,190.059 898.382,186.712C918.033,176.666 953.277,169.209 975.399,170.523C965.213,179.412 958.616,184.321 949.796,195.245C929.13,220.842 924.575,245.698 927.042,277.997C930.056,317.465 931.19,359.271 910.208,394.842C889.334,430.228 854.266,449.156 815.742,459.625C820.428,462.105 830.359,465.299 836.172,467.845C832.312,473.923 826.922,478.222 822.692,483.613C794.068,520.094 757.709,540.013 711.441,544.26C712.645,561.352 719.259,586.528 727.089,601.644C730.209,602.692 732.854,603.752 735.901,605C748.705,611.412 757.035,619.061 762.438,632.208C771.804,655 763.704,666.448 759.176,688.435C758.557,693.23 758.886,698.404 758.449,703.18C756.657,722.735 748.658,741.922 733.187,754.555C727.647,759.078 722.283,761.108 715.692,763.692C696.007,797.593 661.725,806.759 624.487,806.77C599.868,806.777 581.529,801.944 561.345,787.772C559.491,789.703 557.764,791.931 556.072,793.994C528.456,827.682 510.475,866.223 494.878,906.563C494.801,906.708 494.724,906.854 494.647,906.999C450.9,879.026 403.335,845.711 363.525,812.21C316.782,772.876 269.851,727.485 234.062,678.009C228.982,670.386 223.141,662.227 218.611,654.288C214.228,646.608 201.548,630.924 206.612,622.39C220.605,598.809 230.427,571.164 248.97,550.648C246.995,550.092 245.039,549.473 243.103,548.791C214.857,539.048 179.1,511.398 158.741,488.972C153.424,483.115 147.069,472.173 143.601,465.013C161.516,460.208 177.086,455.248 194.217,448.227C197.318,446.956 204.611,444.724 206.971,442.874L206.978,442.179C203.952,440.194 196.623,437.598 192.873,436.022C184.689,432.584 177.904,429.316 170.356,424.855C130.942,401.563 108.644,371.266 105.04,324.372C103.593,305.552 103.713,297.038 106.072,277.544C109.424,248.436 115.922,215.84 107.738,187.031C100.938,163.092 85.647,142.327 67.306,125.982C65.166,124.075 56.605,117.614 56.129,115.683ZM99.224,138.442C111.403,155.385 121.184,171.986 124.739,192.931C134.197,248.669 105.051,304.244 128.344,358.69C137.462,380.002 148.669,391.954 167.646,405.33C187.548,419.358 218.583,432.191 242.619,436.171L243.591,436.326C222.211,454.217 192.621,466.464 166.004,474.528C173.087,483.258 180.245,489.49 188.623,496.796C215.427,520.168 238.784,534.733 274.032,542.414C256.031,564.973 240.858,585.186 229.345,611.885C227.027,617.262 223.009,622.927 220.984,628.271C225.274,637.847 232.071,647.411 237.725,656.316C261.728,694.118 292.488,726.349 324.85,757.041C374.991,804.59 429.576,847.221 487.855,884.349C498.619,858.233 510.623,832.006 526.921,808.824C535.939,795.996 545.993,781.3 557.343,770.345C560.326,770.773 563.601,771.181 566.54,771.704C594.631,800.492 662.821,797.825 691.862,770.622C697.93,764.939 701.457,756.874 706.606,750.592C711.975,748.85 716.572,747.459 721.276,744.423C736.555,734.559 742.851,715.959 743.621,698.553C743.803,694.438 743.111,689.862 743.738,685.734C747.145,670.444 755.327,657.199 749.729,641.193C744.857,627.262 736.837,620.191 722.877,616.277C720.89,615.781 718.719,615.288 716.769,614.715C708.462,602.663 688.994,542.685 698.291,531.894C701.988,529.97 719.745,528.656 725.996,527.401C752.696,522.042 774.279,511.481 794.276,492.655C800.281,487.002 805.627,479.755 811.474,474.696C798.326,469.125 786.22,462.601 775.281,453.27C839.019,443.546 899.786,417.824 911.149,347.457C912.559,338.722 914.007,329.898 914.021,321.029C914.071,289.58 907.717,257.53 915.969,226.575C920.074,211.155 927.966,202.13 935.286,189.468C899.392,199.906 885.87,207.227 867.33,241.099C862.252,250.477 858.104,260.33 854.946,270.516C850.491,285.292 847.329,304.039 839.387,317.142C830.885,331.169 815.25,340.129 799.917,344.656C792.56,346.828 784.958,347.95 777.311,348.421C757.649,349.632 698.074,347.199 681.416,338.117C677.031,335.727 673.068,332.876 668.451,330.879C643.798,320.213 613.916,318.112 587.458,321.185C574.497,322.691 561.423,325.204 548.334,324.242C534.515,323.226 521.206,319.111 507.752,316.12C475.919,309.044 443.412,309.153 412.003,318.144C407.133,319.538 402.186,321.951 397.212,322.763C386.734,324.473 375.487,324.397 364.869,324.893C334.818,326.296 295.588,327.957 266.188,323.832C255.007,322.264 244.025,319.837 234.041,314.366C218.692,305.955 208.56,292.327 203.729,275.682C199.357,260.622 197.628,244.823 193.556,229.654C187.19,205.939 171.779,182.2 153.079,166.352C146.28,160.591 138.886,155.907 131.124,151.58C122.644,146.853 108.746,139.512 99.224,138.442ZM891.447,305.248C892.313,332.648 884.29,372.655 864.707,392.326C825.242,431.967 762.752,431.485 710.86,428.637C708.223,428.492 705.44,428.321 702.874,427.966L696.983,421.499C701.138,408.429 701.058,402.053 701.057,388.417C701.77,391.85 701.496,396.155 701.42,399.733C740.759,403.587 776.991,405.658 815.572,395.697C859.06,384.469 873.851,348.902 884.629,308.825C885.284,306.389 885.729,304.912 887.942,303.734C889.796,304.127 888.997,303.727 890.424,304.996L890.544,310.099C890.811,308.414 891.1,306.92 891.447,305.248ZM415.164,393.589C414.852,394.941 414.519,396.289 414.167,397.632C411.819,406.606 408.12,417.06 399.487,421.9C392.283,425.938 374.178,424.412 365.662,423.948C322.121,421.576 273.457,416.265 231.375,404.773C202.602,396.915 168.952,380.841 154.591,353.801C144.213,334.261 143.249,311.9 144.706,290.216C144.938,286.762 145.552,277.783 146.447,274.684C147.133,273.453 147.342,273.07 147.56,271.683L148.405,271.2C151.54,272.796 157.063,283.389 158.896,286.751C159.07,287.071 158.674,289.486 159.887,292.549C162.296,298.634 162.574,305.693 164.717,312.487C174.52,343.566 190.935,359.381 221.622,370.138C245.136,378.381 276.007,382.333 300.776,385.765C323.978,388.98 348.496,391.528 371.858,392.906C385.794,393.727 400.88,392.551 415.164,393.589Z" style="fill:rgb(144,151,159);"/>
        <path d="M99.224,138.442C108.746,139.512 122.644,146.853 131.124,151.58C138.886,155.907 146.28,160.591 153.079,166.352C171.779,182.2 187.19,205.939 193.556,229.654C197.628,244.823 199.357,260.622 203.729,275.682C208.56,292.327 218.692,305.955 234.041,314.366C244.025,319.837 255.007,322.264 266.188,323.832C295.588,327.957 334.818,326.296 364.869,324.893C375.487,324.397 386.734,324.473 397.212,322.763C402.186,321.951 407.133,319.538 412.003,318.144C443.412,309.153 475.919,309.044 507.752,316.12C521.206,319.111 534.515,323.226 548.334,324.242C561.423,325.204 574.497,322.691 587.458,321.185C613.916,318.112 643.798,320.213 668.451,330.879C673.068,332.876 677.031,335.727 681.416,338.117C698.074,347.199 757.649,349.632 777.311,348.421C784.958,347.95 792.56,346.828 799.917,344.656C815.25,340.129 830.885,331.169 839.387,317.142C847.329,304.039 850.491,285.292 854.946,270.516C858.104,260.33 862.252,250.477 867.33,241.099C885.87,207.227 899.392,199.906 935.286,189.468C927.966,202.13 920.074,211.155 915.969,226.575C907.717,257.53 914.071,289.58 914.021,321.029C914.007,329.898 912.559,338.722 911.149,347.457C899.786,417.824 839.019,443.546 775.281,453.27C786.22,462.601 798.326,469.125 811.474,474.696C805.627,479.755 800.281,487.002 794.276,492.655C774.279,511.481 752.696,522.042 725.996,527.401C719.745,528.656 701.988,529.97 698.291,531.894C688.994,542.685 708.462,602.663 716.769,614.715C718.719,615.288 720.89,615.781 722.877,616.277C736.837,620.191 744.857,627.262 749.729,641.193C755.327,657.199 747.145,670.444 743.738,685.734C743.111,689.862 743.803,694.438 743.621,698.553C742.851,715.959 736.555,734.559 721.276,744.423C716.572,747.459 711.975,748.85 706.606,750.592C701.457,756.874 697.93,764.939 691.862,770.622C662.821,797.825 594.631,800.492 566.54,771.704C563.601,771.181 560.326,770.773 557.343,770.345C545.993,781.3 535.939,795.996 526.921,808.824C510.623,832.006 498.619,858.233 487.855,884.349C429.576,847.221 374.991,804.59 324.85,757.041C292.488,726.349 261.728,694.118 237.725,656.316C232.071,647.411 225.274,637.847 220.984,628.271C223.009,622.927 227.027,617.262 229.345,611.885C240.858,585.186 256.031,564.973 274.032,542.414C238.784,534.733 215.427,520.168 188.623,496.796C180.245,489.49 173.087,483.258 166.004,474.528C192.621,466.464 222.211,454.217 243.591,436.326L242.619,436.171C218.583,432.191 187.548,419.358 167.646,405.33C148.669,391.954 137.462,380.002 128.344,358.69C105.051,304.244 134.197,248.669 124.739,192.931C121.184,171.986 111.403,155.385 99.224,138.442ZM651.835,741.706C641.834,742.641 633.375,744.881 624.052,748.827C614.828,752.73 605.718,759.662 596.069,762.254C607.236,767.736 616.648,769.596 629.152,769.552C649.242,769.007 671.315,763.48 683.09,745.827C675.876,741.211 659.737,740.459 651.835,741.706ZM355.013,537.117C345.965,541.251 336.885,543.391 326.985,544.33C322.939,544.713 317.615,543.908 313.867,545.51C304.39,549.562 268.316,612.538 262.209,625.134C273.839,647.99 299.941,685.603 319.304,702.597C317.888,695.183 316.912,688.777 316.622,681.15C315.845,660.739 322.09,629.05 333.559,611.977C334.219,610.978 334.922,610.008 335.664,609.068C334.715,617.256 333.164,624.53 332.885,632.908C332.029,658.684 338.466,683.909 349.575,706.955C370.744,748.847 398.546,775.971 436.069,803.456C418.57,769.29 414.152,717.181 424.222,680.053C394.171,668.095 374.174,650.67 361.373,620.611C352.8,600.481 351.768,580.55 353.079,559.068C353.277,555.826 355.562,538.443 355.013,537.117ZM708.882,669.073C714.453,660.638 718.98,655.66 728.055,663.726C730.259,657.062 730.713,648.934 726.314,642.994C725.581,641.742 721.55,638.648 720.143,638.917C712.038,640.466 704.287,645.254 696.484,648.046C690.837,650.067 684.987,651.466 679.038,652.224C637.232,657.4 614.381,618.321 578.144,647.754C568.874,656.291 566.822,665.474 562.207,676.486C561.258,665.209 564.969,654.461 566.791,643.569C568.587,638.465 572.416,631.637 576.547,628.042C610.04,598.881 661.748,654.622 693.275,625.056C678.363,591.534 655.465,520.811 654.977,484.386C658.044,489.095 662.221,499.897 664.736,505.639C674.36,500.527 681.11,495.865 687.712,487.337C705.858,463.895 684.036,450.721 672.332,432.85C666.873,424.514 663.586,410.558 662.309,400.522C666.349,406.266 669.863,415.994 674.624,420.755C671.7,407.793 675.907,399.065 674.36,385.99C673.126,375.565 668.53,362.79 659.911,356.313C639.34,340.852 599.232,347.086 575.383,349.8C588.845,362.382 600.811,378.849 606.602,396.402C592.513,380.906 579.446,368.337 560.165,359.055C527.745,343.449 489.902,336.235 454.03,337.573C446.974,337.836 439.527,339.138 432.555,340.185C435.604,343.94 438.18,347.144 440.587,351.353C448.049,364.398 448.068,382.737 444.087,396.913C439.442,410.978 434.798,421.272 424.294,432.355C421.597,435.201 414.317,442.219 412.296,445.035C415.821,454.383 416.627,457.843 415.243,467.796C409.49,459.272 406.936,457.519 397.787,452.731C369.739,457.211 348.139,449.119 320.952,444.838C293.438,440.506 270.088,453.918 247.6,467.638C238.753,473.01 223.375,481.152 215.445,487.042C231.157,498.871 257.968,511.833 276.805,516.797C295.175,521.638 332.69,523.526 345.79,506.672C343.945,505.589 342.083,504.434 340.158,503.515C331.987,503.902 322.777,507.662 313.884,508.866C317.457,502.784 320.354,499.969 325.167,494.883C319.443,493.661 317.221,493.285 311.513,492.944C298.344,492.156 280.738,495.447 269.381,487.991C269.046,486.969 268.903,487.24 269.363,486.381C271.484,482.421 302.374,472.881 308.695,471.371C314.928,469.881 321.105,469.092 327.477,470.114C340.375,472.183 352.39,479.193 364.932,482.745C377.752,486.376 391.559,487.492 404.06,491.844C400.071,500.224 396.206,508.241 393.106,516.733C376.245,562.922 376.213,621.807 428.011,644.722C442.454,651.111 457.528,656.405 472.247,662.237C485.252,667.866 500.747,676.029 513.311,682.786C506.182,668.897 499.409,662.314 491.619,650.313L492.325,650.657C507.468,658.137 533.932,681.43 539.488,698.122C541.018,702.717 541.829,710.293 543.103,714.747C550.723,741.393 567.59,751.774 594.138,740.716C603.387,736.864 613.932,733.39 623.301,729.479C645.68,722.172 674.276,718.822 697.622,722.598C706.489,724.032 712.123,728.691 718.242,717.562C721.024,712.503 721.803,703.627 722.498,697.954C701.547,680.139 703.836,707.651 696.991,709.356C693.181,701.855 704.74,676.129 708.882,669.073ZM636.544,671.269C641.633,683.561 646.045,697.14 639.052,709.771C630.207,673.561 612.01,701.227 598.203,696.667C593.829,689.992 592.832,682.177 594.091,674.412C596.636,658.718 619.24,654.859 630.278,663.701C633.252,666.083 634.601,668.131 636.544,671.269ZM563.221,541.01C555.554,533.085 549.105,527.536 539.838,521.528C529.723,524.518 504.446,524.748 494.696,519.52C488.937,516.432 483.963,510.322 482.276,503.956C479.322,492.807 481.918,485.914 487.218,476.551C485.656,474.869 483.993,473.285 482.237,471.807C474.163,464.984 466.662,467.814 456.817,468.689C465.269,461.632 483.552,455.11 493.194,461.064C502.712,466.941 512.105,474.003 522.376,479.288C527.213,481.778 534.257,489.505 538.536,493.317C542.326,496.693 545.745,501.826 550.354,504.574C558.534,509.832 568.742,510.304 576.985,515.184C578.185,515.9 580.712,519.003 581.721,520.193C581.416,514.784 581.869,506.926 581.963,501.287C582.472,491.31 581.194,484.357 577.853,474.85C584.425,479.267 589.657,489.664 591.083,497.35C593.063,508.026 590.805,517.076 588.385,527.345C590.284,533.492 593.517,538.93 595.47,544.914C598.715,554.856 600.404,565.418 603.304,575.469C606.328,586.588 610.67,597.941 613.623,608.898C606.705,600.283 599.947,582.999 593.06,573.903C584.52,562.625 572.658,552.042 563.221,541.01ZM493.334,481.402C478.594,502.282 504.994,522.285 523.778,510.352C524.884,509.065 525.638,508.466 525.917,506.803L525.559,505.839C521.743,504.481 518.646,507.885 515.554,508.182C507.72,508.933 499.438,506.955 495.443,499.683C491.872,493.182 494.73,483.5 493.334,481.402ZM502.439,484.304C500.854,485.948 500.988,485.331 500.642,487.246C501.729,489.279 503.028,489.507 505.163,490.06C506.706,488.238 506.257,489.248 506.626,486.944C505.854,485.148 506.405,485.937 504.722,484.635L502.439,484.304ZM415.164,393.589C418.471,377.172 415.372,359.981 400.388,350.511C390.112,350.301 377.28,351.337 366.793,351.478C334.78,351.912 301.306,352.931 269.529,349.572C226.728,345.047 190.108,330.951 180.354,285.018C178.082,274.321 176.934,265.063 175.116,254.235C171.12,230.431 163.437,210.597 148.158,191.611C154.865,220.071 149.436,246.439 146.447,274.684C145.552,277.783 144.938,286.762 144.706,290.216C143.249,311.9 144.213,334.261 154.591,353.801C168.952,380.841 202.602,396.915 231.375,404.773C273.457,416.265 322.121,421.576 365.662,423.948C374.178,424.412 392.283,425.938 399.487,421.9C408.12,417.06 411.819,406.606 414.167,397.632C414.519,396.289 414.852,394.941 415.164,393.589ZM520.893,741.878C499.065,763.891 478.823,794.849 478.666,827.064C478.66,828.259 478.767,828.806 479.046,829.932L479.743,830.272C480.915,829.133 481.043,828.51 481.656,827.016C489.088,810.296 500.002,794.31 510.301,779.24C514.766,772.706 524.618,759.787 527.502,753.201C525.465,748.631 524.214,745.685 520.893,741.878ZM720.755,457.219C722.912,463.12 723.368,465.858 723.341,472.034C723.295,482.841 717.471,486.571 710.995,494.036C708.405,497.022 705.851,500.681 703.586,504.108C716.236,503.939 734.931,500.932 746.635,496.817C757.56,492.669 765.181,487.122 774.48,480.23C761.316,473.39 735.139,460.455 720.755,457.219ZM891.447,305.248C892.07,280.998 889.709,262.721 894.604,238.53L894.157,239.037C866.053,271.518 875.089,322.737 843.602,351.835C828.137,366.127 808.412,371.147 788.024,372.731C757.907,374.789 727.65,372.715 698.096,366.565C699.749,374.641 700.553,380.046 701.057,388.417C701.058,402.053 701.138,408.429 696.983,421.499L702.874,427.966C705.44,428.321 708.223,428.492 710.86,428.637C762.752,431.485 825.242,431.967 864.707,392.326C884.29,372.655 892.313,332.648 891.447,305.248Z" style="fill:rgb(0,28,58);"/>
        <path d="M708.882,669.073C704.74,676.129 693.181,701.855 696.991,709.356C703.836,707.651 701.547,680.139 722.498,697.954C721.803,703.627 721.024,712.503 718.242,717.562C712.123,728.691 706.489,724.032 697.622,722.598C674.276,718.822 645.68,722.172 623.301,729.479C613.932,733.39 603.387,736.864 594.138,740.716C567.59,751.774 550.723,741.393 543.103,714.747C541.829,710.293 541.018,702.717 539.488,698.122C533.932,681.43 507.468,658.137 492.325,650.657L491.619,650.313C499.409,662.314 506.182,668.897 513.311,682.786C500.747,676.029 485.252,667.866 472.247,662.237C457.528,656.405 442.454,651.111 428.011,644.722C376.213,621.807 376.245,562.922 393.106,516.733C396.206,508.241 400.071,500.224 404.06,491.844C391.559,487.492 377.752,486.376 364.932,482.745C352.39,479.193 340.375,472.183 327.477,470.114C321.105,469.092 314.928,469.881 308.695,471.371C302.374,472.881 271.484,482.421 269.363,486.381C268.903,487.24 269.046,486.969 269.381,487.991C280.738,495.447 298.344,492.156 311.513,492.944C317.221,493.285 319.443,493.661 325.167,494.883C320.354,499.969 317.457,502.784 313.884,508.866C322.777,507.662 331.987,503.902 340.158,503.515C342.083,504.434 343.945,505.589 345.79,506.672C332.69,523.526 295.175,521.638 276.805,516.797C257.968,511.833 231.157,498.871 215.445,487.042C223.375,481.152 238.753,473.01 247.6,467.638C270.088,453.918 293.438,440.506 320.952,444.838C348.139,449.119 369.739,457.211 397.787,452.731C406.936,457.519 409.49,459.272 415.243,467.796C416.627,457.843 415.821,454.383 412.296,445.035C414.317,442.219 421.597,435.201 424.294,432.355C434.798,421.272 439.442,410.978 444.087,396.913C478.47,401.019 498.804,415.361 527.786,431.864C516.351,428.574 507.349,426.51 495.265,426.477C471.806,426.412 468.07,440.578 461.702,459.125C469.175,458.786 482.148,454.688 490.967,453.796C501.281,457.686 523.744,473.897 531.919,481.598C549.317,497.988 556.488,503.941 579.643,511.549C580.354,508.115 581.127,504.694 581.963,501.287C581.869,506.926 581.416,514.784 581.721,520.193C580.712,519.003 578.185,515.9 576.985,515.184C568.742,510.304 558.534,509.832 550.354,504.574C545.745,501.826 542.326,496.693 538.536,493.317C534.257,489.505 527.213,481.778 522.376,479.288C512.105,474.003 502.712,466.941 493.194,461.064C483.552,455.11 465.269,461.632 456.817,468.689C466.662,467.814 474.163,464.984 482.237,471.807C483.993,473.285 485.656,474.869 487.218,476.551C481.918,485.914 479.322,492.807 482.276,503.956C483.963,510.322 488.937,516.432 494.696,519.52C504.446,524.748 529.723,524.518 539.838,521.528C549.105,527.536 555.554,533.085 563.221,541.01C558.212,541.547 552.633,545.428 548.697,546.561C527.515,552.661 529.13,547.835 513.119,562.276C514.427,556.584 516.03,550.944 518.728,545.669C520.462,542.282 524.01,539.75 523.625,536.19C517.23,530.078 502.966,528.378 494.542,525.005C487.615,522.231 481.972,517.632 475.592,514.827C474.825,527.513 479.666,531.968 489.693,538.54C491.754,539.891 500.614,543.328 501.318,544.285C500.156,545.285 499.045,545.288 497.381,545.054C485.047,543.317 469.998,538.026 462.082,527.961C455.554,519.659 454.671,506.53 453.695,496.475C451.328,501.352 448.798,506.329 446.568,511.26C439.364,527.184 437.141,546.933 442.286,563.765C445.152,573.14 452.506,577.287 460.794,581.204C496.54,595.465 526.18,620.341 544.128,654.686C545.136,656.614 546.85,659.606 548.235,661.472C551.215,655.931 556.347,646.451 562.447,643.959C564.102,644.308 563.713,644.428 565.085,646.162C565.89,645.126 565.788,645.119 565.988,643.794L566.791,643.569C564.969,654.461 561.258,665.209 562.207,676.486C566.822,665.474 568.874,656.291 578.144,647.754C578.935,652.399 576.107,657.528 575.717,662.151C574.797,673.06 575.163,684.695 577.666,695.384C580.377,706.595 588.48,708.768 598.618,709.064C598.565,705.282 598.638,700.325 598.203,696.667C612.01,701.227 630.207,673.561 639.052,709.771C646.045,697.14 641.633,683.561 636.544,671.269C640.386,670.443 643.505,670.69 647.33,671.07C661.985,672.527 676.6,672.742 691.249,671.069C697.01,670.411 703.078,669.219 708.882,669.073ZM355.013,537.117C355.562,538.443 353.277,555.826 353.079,559.068C351.768,580.55 352.8,600.481 361.373,620.611C374.174,650.67 394.171,668.095 424.222,680.053C414.152,717.181 418.57,769.29 436.069,803.456C398.546,775.971 370.744,748.847 349.575,706.955C338.466,683.909 332.029,658.684 332.885,632.908C333.164,624.53 334.715,617.256 335.664,609.068C334.922,610.008 334.219,610.978 333.559,611.977C322.09,629.05 315.845,660.739 316.622,681.15C316.912,688.777 317.888,695.183 319.304,702.597C299.941,685.603 273.839,647.99 262.209,625.134C268.316,612.538 304.39,549.562 313.867,545.51C317.615,543.908 322.939,544.713 326.985,544.33C336.885,543.391 345.965,541.251 355.013,537.117ZM720.755,457.219C735.139,460.455 761.316,473.39 774.48,480.23C765.181,487.122 757.56,492.669 746.635,496.817C734.931,500.932 716.236,503.939 703.586,504.108C705.851,500.681 708.405,497.022 710.995,494.036C717.471,486.571 723.295,482.841 723.341,472.034C723.368,465.858 722.912,463.12 720.755,457.219ZM651.835,741.706C659.737,740.459 675.876,741.211 683.09,745.827C671.315,763.48 649.242,769.007 629.152,769.552C616.648,769.596 607.236,767.736 596.069,762.254C605.718,759.662 614.828,752.73 624.052,748.827C633.375,744.881 641.834,742.641 651.835,741.706ZM520.893,741.878C524.214,745.685 525.465,748.631 527.502,753.201C524.618,759.787 514.766,772.706 510.301,779.24C500.002,794.31 489.088,810.296 481.656,827.016C481.043,828.51 480.915,829.133 479.743,830.272L479.046,829.932C478.767,828.806 478.66,828.259 478.666,827.064C478.823,794.849 499.065,763.891 520.893,741.878Z" style="fill:rgb(113,58,18);"/>
        <path d="M444.087,396.913C448.068,382.737 448.049,364.398 440.587,351.353C438.18,347.144 435.604,343.94 432.555,340.185C439.527,339.138 446.974,337.836 454.03,337.573C489.902,336.235 527.745,343.449 560.165,359.055C579.446,368.337 592.513,380.906 606.602,396.402C600.811,378.849 588.845,362.382 575.383,349.8C599.232,347.086 639.34,340.852 659.911,356.313C668.53,362.79 673.126,375.565 674.36,385.99C675.907,399.065 671.7,407.793 674.624,420.755C669.863,415.994 666.349,406.266 662.309,400.522C663.586,410.558 666.873,424.514 672.332,432.85C684.036,450.721 705.858,463.895 687.712,487.337C681.11,495.865 674.36,500.527 664.736,505.639C662.221,499.897 658.044,489.095 654.977,484.386C655.465,520.811 678.363,591.534 693.275,625.056C661.748,654.622 610.04,598.881 576.547,628.042C572.416,631.637 568.587,638.465 566.791,643.569L565.988,643.794C565.788,645.119 565.89,645.126 565.085,646.162C563.713,644.428 564.102,644.308 562.447,643.959C556.347,646.451 551.215,655.931 548.235,661.472C546.85,659.606 545.136,656.614 544.128,654.686C526.18,620.341 496.54,595.465 460.794,581.204C452.506,577.287 445.152,573.14 442.286,563.765C437.141,546.933 439.364,527.184 446.568,511.26C448.798,506.329 451.328,501.352 453.695,496.475C454.671,506.53 455.554,519.659 462.082,527.961C469.998,538.026 485.047,543.317 497.381,545.054C499.045,545.288 500.156,545.285 501.318,544.285C500.614,543.328 491.754,539.891 489.693,538.54C479.666,531.968 474.825,527.513 475.592,514.827C481.972,517.632 487.615,522.231 494.542,525.005C502.966,528.378 517.23,530.078 523.625,536.19C524.01,539.75 520.462,542.282 518.728,545.669C516.03,550.944 514.427,556.584 513.119,562.276C529.13,547.835 527.515,552.661 548.697,546.561C552.633,545.428 558.212,541.547 563.221,541.01C572.658,552.042 584.52,562.625 593.06,573.903C599.947,582.999 606.705,600.283 613.623,608.898C610.67,597.941 606.328,586.588 603.304,575.469C600.404,565.418 598.715,554.856 595.47,544.914C593.517,538.93 590.284,533.492 588.385,527.345C590.805,517.076 593.063,508.026 591.083,497.35C589.657,489.664 584.425,479.267 577.853,474.85C581.194,484.357 582.472,491.31 581.963,501.287C581.127,504.694 580.354,508.115 579.643,511.549C556.488,503.941 549.317,497.988 531.919,481.598C523.744,473.897 501.281,457.686 490.967,453.796C482.148,454.688 469.175,458.786 461.702,459.125C468.07,440.578 471.806,426.412 495.265,426.477C507.349,426.51 516.351,428.574 527.786,431.864C498.804,415.361 478.47,401.019 444.087,396.913ZM578.144,647.754C614.381,618.321 637.232,657.4 679.038,652.224C684.987,651.466 690.837,650.067 696.484,648.046C704.287,645.254 712.038,640.466 720.143,638.917C721.55,638.648 725.581,641.742 726.314,642.994C730.713,648.934 730.259,657.062 728.055,663.726C718.98,655.66 714.453,660.638 708.882,669.073C703.078,669.219 697.01,670.411 691.249,671.069C676.6,672.742 661.985,672.527 647.33,671.07C643.505,670.69 640.386,670.443 636.544,671.269C634.601,668.131 633.252,666.083 630.278,663.701C619.24,654.859 596.636,658.718 594.091,674.412C592.832,682.177 593.829,689.992 598.203,696.667C598.638,700.325 598.565,705.282 598.618,709.064C588.48,708.768 580.377,706.595 577.666,695.384C575.163,684.695 574.797,673.06 575.717,662.151C576.107,657.528 578.935,652.399 578.144,647.754Z" style="fill:rgb(170,85,23);"/>
    </g>
</svg>
