<?xml version="1.0" encoding="UTF-8" standalone="no"?>
<!DOCTYPE svg PUBLIC "-//W3C//DTD SVG 1.1//EN" "http://www.w3.org/Graphics/SVG/1.1/DTD/svg11.dtd">
<svg width="100%" height="100%" viewBox="0 0 960 918" version="1.1" xmlns="http://www.w3.org/2000/svg" xmlns:xlink="http://www.w3.org/1999/xlink" xml:space="preserve" xmlns:serif="http://www.serif.com/" style="fill-rule:evenodd;clip-rule:evenodd;stroke-linejoin:round;stroke-miterlimit:2;">
    <g transform="matrix(1,0,0,1,-46.814,-36.0086)">
        <path d="M484.25,54.184C510.228,52.188 528.552,68.597 535.5,92.862C565.136,81.183 604.194,83.039 634.237,92.932C634.762,87.064 635.976,81.038 638.828,75.83C642.521,68.992 648.885,63.992 656.402,62.02C665.951,59.478 675.491,61.822 683.853,66.701C708.061,80.826 718.098,116.021 703.957,140.328C720.042,158.308 739.899,183.209 734.269,208.557C729.258,231.118 738.976,233.833 747.284,252.239C758.824,277.804 758.277,315.327 732.987,332.84C723.556,339.372 711.004,342.192 703.615,330.994C694.735,336.053 688.277,337.967 678.044,336.143C679.98,337.642 681.549,338.61 683.605,339.889C706.594,340.024 710.009,342.992 699.018,364.917C700.77,366.309 702.583,367.623 704.452,368.853C727.884,384.408 765.764,385.523 791.926,375.026C795.462,373.607 798.742,370.083 801.529,367.473C807.296,362.074 814.902,359.787 822.474,358.261C839.49,319.623 862.871,289.437 895.614,262.751C909.244,251.454 925.319,239.25 943.889,238.963C960.922,238.701 967.616,246.529 967.856,262.576C973.29,263.488 978.2,264.868 982.408,268.669C986.103,271.955 988.263,276.632 988.372,281.576C988.677,291.742 982.639,299.651 976.041,306.565C976.841,307.982 978.529,311.001 978.939,312.409C986.018,336.678 956.235,354.806 945.056,372.468C942.464,377.946 942.466,385.251 941.134,391.01C936.876,409.414 926.363,424.795 911.311,436.131C903.58,441.953 896.19,445.345 887.153,448.834C879.053,459.634 873.497,463.813 861.799,470.36C859.258,471.782 854.858,476.038 852.188,478.056C812.228,508.256 760.234,515.917 711.386,514.89C683.745,514.229 656.514,509.861 629.578,506.788C626.119,509.719 621.76,514.83 618.574,518.28C613.886,523.412 608.957,528.319 603.804,532.984C588.156,547.145 573.211,556.926 556.57,569.483C606.49,591.309 630.945,627.281 624.297,682.469C628.666,687.788 636.246,697.811 640.917,702.198L641.794,702.048C652.684,700.207 656.719,702.692 665.281,708.758C674.742,707.25 675.645,708.876 684.803,709.616C686.855,709.782 694.422,707.331 697.182,707.035C699.628,706.774 701.52,707.899 703.396,706.804C710.1,702.893 720.063,698.752 725.75,693.722C742.556,678.853 752.491,662.306 775.397,655.022C790.998,650.061 809.65,650.584 824.347,658.163C836.986,664.681 844.16,674.135 847.819,687.672C849.167,692.662 852.576,694.473 854.518,701.31C856.296,706.094 855.073,713.476 857.065,717.834C863.442,731.78 854.547,744.846 839.253,742.896C837.111,747.521 835.599,750.851 832.915,755.226C847.54,768.736 831.247,788.372 815.506,777.673C812.054,781.85 808.941,784.998 804.988,788.662C805.749,790.557 806.378,792.49 806.519,794.546C806.766,798.456 805.381,802.293 802.695,805.145C796.138,812.231 786.277,812.358 779.33,805.745C756.669,818.337 746.591,823.593 728.017,843.449C744.422,858.101 727.114,875.2 714.804,868.763C713.709,867.969 713.515,867.613 712.222,867.49C707.169,869.632 701.759,875.687 697.993,879.739C699.322,884.937 699.024,889.16 695.183,893.35C692.533,896.265 688.768,897.915 684.829,897.887C679.373,897.881 675.898,895.602 672.35,891.886C657.678,897.57 644.213,895.557 638.09,879.635C609.995,870.489 597.066,850.06 595.207,821.346C585.728,813.105 581.6,805.594 584.717,792.727C578.074,787.738 573.151,782.137 566.893,777.137C559.145,770.946 551.419,763.925 543.626,757.967C520.333,758.405 504.159,749.42 492.037,729.353C480.422,732.288 465.468,734.562 453.67,736.163C449.737,739.297 446.294,743.168 442.243,746.69C402.372,781.352 344.8,817.324 289.724,806.986C285.417,806.178 277.416,801.869 273.37,799.811C260.631,800.982 250.253,804.063 237.926,806.434C232.863,807.408 222.74,807.069 217.601,806.668C213.821,816.471 211.403,820.443 202.613,826.255C197.501,829.635 195.117,834.273 193.024,839.771C192.515,841.108 189.735,844.496 189.548,845.686C188.598,851.755 186.688,858.736 187.569,864.857C188.045,866.532 194.315,872.13 196.071,874.38C198.122,877.011 199.845,879.883 201.201,882.932C204.454,890.189 204.894,900.615 201.86,908.017C193.702,927.712 170.39,934.913 150.772,935.01C121.224,935.157 93.119,921.579 81.395,893.288C76.227,892.129 71.808,889.968 68.971,885.268C66.806,881.642 66.226,877.285 67.367,873.219C68.688,868.63 71.002,866.169 75.095,864.034L75.003,852.376C72.587,851.035 70.754,850.069 68.933,847.913C65.851,844.272 64.401,839.525 64.922,834.784C65.833,825.709 72.901,822.214 81.342,823.508C88.608,807.353 94.315,796.228 97.565,778.468C85.072,768.948 86.763,752.655 101.967,747.903C101.973,745.231 102.165,742.907 102.374,740.258C95.515,734.917 91.961,729.249 93.924,720.212C95.364,713.585 99.453,707.835 105.24,704.299C112.087,700.196 118.11,700.427 125.453,702.196C136.641,696.317 138.772,697.794 150.582,697.545C168.537,697.167 182.122,698.867 197.285,709.23C215.979,693.342 227.212,694.104 248.283,685.002C252.502,679.096 269.305,646.162 268.77,640.026C265.513,602.702 275.281,569.455 301.921,541.461C300.733,534.939 300.117,529.974 299.971,523.358C281.343,522.053 272.91,520.76 254.811,515.806C238.004,528.281 218.865,517.007 204.082,507.633C200.369,505.927 195.537,505.224 191.773,503.943C165.672,495.061 148.346,468.873 139.709,443.916C136.277,433.997 135.177,424.793 134.878,414.489C102.198,379.253 115.677,326.62 138.603,289.881C158.387,258.177 187.992,241.05 223.748,233.17C239.217,229.892 254.972,228.15 270.783,227.97C277.866,227.912 292.955,228.784 299.246,227.898C341.996,221.872 369.118,213.008 408.608,238.313C411.859,233.109 418.72,218.115 421.697,211.993C431.081,192.691 439.157,177.127 451.137,159.357C439.598,148.816 433.519,138.496 431.496,122.771C427.024,88.008 449.271,58.27 484.25,54.184Z" style="fill:rgb(0,34,52);"/>
        <path d="M313.679,550.505C333.659,568.613 351.523,579.784 376.88,589.546C364.89,595.814 353.442,600.931 345.516,612.212C365.882,609.613 376.577,603.376 394.772,597.167C426.306,586.644 458.832,574.723 492.212,572.427C543.73,568.885 607.628,602.226 610.639,659.038C588.221,652.652 567.839,665.107 552.173,680.215C535.777,697.41 523.458,718.508 530.432,742.834C503.9,731.091 494.717,711.782 494.487,683.263C486.869,694.167 486.048,699.877 485.833,713.044C469.791,715.995 453.28,718.961 436.927,720.327C400.05,723.407 347.115,716.72 318.072,692.498C299.449,676.967 285.724,650.392 284.374,626.25C282.741,597.043 294.869,571.903 313.679,550.505ZM276.269,665.351C277.895,667.268 280.851,673.557 282.273,676.12C310.875,727.667 371.913,738.69 425.964,738.984C410.493,752.453 397.387,762.061 379.699,772.23C369.757,777.679 359.399,782.333 348.722,786.147C331.537,792.226 305.559,797.782 288.18,789.306C258.812,775.012 248.783,736.224 252.97,706.227C253.183,704.7 262.246,691.412 263.767,688.872C268.255,681.206 272.426,673.359 276.269,665.351ZM211.183,715.958C212.186,716.751 210.483,720.225 210.148,721.748C205.744,741.801 207.719,764.723 220.732,781.345C225.015,786.816 231.611,790.498 237.42,794.135C234.058,794.111 231.231,794.037 227.88,793.804C217.865,792.735 212.48,792.897 206.527,783.394C197.399,768.824 195.246,749.351 198.21,732.649C199.777,723.819 204.138,720.512 211.183,715.958Z" style="fill:rgb(104,18,18);"/>
        <path d="M316.773,406.959C314.601,405.707 309.551,401.888 307.27,400.29C302.229,396.707 297.014,393.376 291.642,390.311C294.253,381.708 295.748,370.841 288.363,364.204C278.431,355.277 259.193,354.088 246.71,354.106C259.671,337.696 278.81,336.429 298.102,339.54C327.437,344.272 353.114,355.042 371.12,379.672C349.714,384.786 332.409,390.234 316.773,406.959ZM381.221,398.081C391.74,422.873 391.008,447.342 384.092,472.901C369.719,453.242 354.205,437.614 335.615,421.737C353.532,405.11 359.993,407.39 381.221,398.081ZM299.486,484.32C288.811,482.406 281.382,480.56 270.882,477.634C254.759,459.302 244.489,440.939 242.49,416.369C260.545,417.833 273.435,412.908 286.262,400.298C293.107,404.075 303.702,411.329 309.856,416.257C297.54,435.202 291.038,462.624 299.486,484.32ZM328.902,431.382C348.578,447.61 359.053,458.51 374.266,478.322C357.832,483.582 340.659,486.168 323.405,485.982C323.18,485.299 322.958,484.614 322.741,483.929C316.309,463.657 319.448,449.622 328.902,431.382ZM315.406,509.246C299.825,511.241 282.556,509.326 267.465,504.959C272.046,500.176 273.504,496.963 274.325,490.58C284.857,492.268 292.766,494.454 304.405,496.013C306.191,498.496 312.942,507.865 315.406,509.246ZM328.387,496.897C346.714,494.848 355.75,493.894 373.478,487.45C362.458,495.339 347.537,502.886 334.169,505.813C333.788,504.402 329.608,498.766 328.387,496.897Z" style="fill:rgb(114,70,19);"/>
        <path d="M79.371,741.555C75.305,734.591 74.126,726.558 76.334,716.39C78.818,704.958 85.872,695.039 95.855,688.939C95.899,688.912 95.944,688.885 95.988,688.859C105.255,683.306 113.569,682.079 122.914,683.387C132.954,678.86 136.887,679.83 150.203,679.549C167.655,679.182 181.671,680.707 195.99,687.669C209.338,678.858 219.998,676.963 235.843,670.673C240.393,661.932 248.928,642.909 250.637,639.087C247.905,602.019 256.71,568.564 279.748,539.54C272.449,538.582 265.877,537.27 257.494,535.137C246.48,540.4 235.063,540.372 223.861,537.254C213.941,534.493 204.2,528.965 195.68,523.616C192.635,522.441 188.907,521.982 185.974,520.983C154.69,510.337 133.051,479.715 122.699,449.802C119.373,440.191 117.832,431.157 117.19,421.505C84.411,380.28 97.522,321.712 123.332,280.352C145.814,244.325 179.243,224.546 219.874,215.592C219.922,215.581 219.969,215.571 220.017,215.561C236.645,212.037 253.582,210.165 270.578,209.971C270.597,209.971 270.616,209.971 270.636,209.971C277.131,209.917 290.966,210.886 296.735,210.074C337.835,204.281 365.845,197.242 401.038,213.578C402.798,209.852 404.424,206.354 405.509,204.122C413.1,188.509 419.886,175.253 428.383,161.441C420.198,151.159 415.559,139.959 413.643,125.068C407.848,80.018 436.833,41.6 482.162,36.306C482.398,36.278 482.634,36.256 482.871,36.237C511.517,34.036 533.642,47.891 545.952,70.855C569.889,65.284 596.976,65.816 621.229,70.871C621.774,69.63 622.369,68.413 623.019,67.223C629.077,56.042 639.488,47.863 651.783,44.623C666.068,40.824 680.416,43.855 692.925,51.154C721.313,67.718 734.92,106.059 724.958,137.106C733.542,147.449 741.999,159.295 747.255,171.788C752.754,184.858 754.913,198.63 751.841,212.46C749.89,221.242 752.081,224.592 755.079,229.336C757.77,233.596 760.787,238.402 763.69,244.834C778.467,277.569 775.618,325.212 743.235,347.638C736.622,352.218 729.232,355.362 721.849,356.4C721.729,356.841 721.6,357.292 721.461,357.756C740.174,366.319 765.964,365.84 784.601,358.568C785.219,358.007 787.946,355.532 789.225,354.335L789.227,354.333C795.101,348.834 802.184,345.314 809.686,342.956C827.533,305.447 851.486,275.507 884.167,248.859C900.802,235.076 920.955,221.315 943.612,220.965C958.448,220.737 968.38,225.24 975.057,232.087C979.164,236.298 982.289,241.736 984.097,248.589C987.754,250.206 991.192,252.357 994.425,255.268C1001.8,261.857 1006.13,271.209 1006.37,281.083C1006.68,291.97 1002.73,301.407 996.833,309.686C1000.22,323.924 996.272,336.947 988.258,348.946C980.487,360.579 967.791,370.891 960.951,381.048C959.313,385.314 959.665,390.77 958.671,395.067C953.444,417.659 940.617,436.594 922.139,450.51C914.386,456.348 906.961,460.192 898.366,463.741C890.141,473.934 883.462,478.84 870.976,485.851C870.331,486.401 865.101,490.859 863.041,492.416C819.845,525.062 763.812,533.996 711.008,532.886C710.99,532.886 710.973,532.885 710.956,532.885C685.7,532.281 660.775,528.68 636.105,525.684C634.591,527.363 633.113,529.066 631.835,530.451C626.772,535.992 621.449,541.291 615.884,546.328L615.882,546.33C607.209,554.179 598.756,560.73 590.125,567.124C605.827,577.451 618.13,589.736 626.953,603.993C639.35,624.026 645.104,648.121 642.92,676.975C644.566,679.065 646.314,681.27 647.998,683.298C656.673,683.032 662.448,685.299 669.973,690.167C674.886,689.994 677.651,690.854 684.329,691.503C686.728,690.919 693.263,689.352 695.263,689.138L695.272,689.137C696.186,689.039 697.328,689.033 698.43,689.067C703.736,686.406 709.968,683.65 713.824,680.24C732.597,663.63 744.355,646.005 769.942,637.868C789.917,631.517 813.78,632.461 832.597,642.165C849.942,651.11 859.939,663.98 865.052,682.451C865.412,683.005 866.43,684.574 867.022,685.532C868.775,688.369 870.498,691.693 871.833,696.392L871.722,696.051C873.083,700.723 873.773,709.594 873.902,711.407C879.591,724.735 877.422,737.525 871.029,746.653C867.378,751.865 862.219,756.146 855.804,758.661C858.697,769.018 855.623,779.318 849.648,786.78C843.788,794.096 834.653,799.176 824.351,798.985C823.591,805.848 820.635,812.333 815.864,817.416C805.596,828.479 791.482,831.505 778.933,826.559C767.907,832.742 760.184,837.507 751.013,845.914C752.332,849.756 752.805,853.52 752.719,857.037C752.262,875.601 734.265,889.67 716.763,887.824C716.265,894.052 713.722,899.755 708.476,905.487C702.398,912.157 693.777,915.936 684.754,915.887C678.249,915.872 673.048,914.449 668.404,911.737C657.993,913.793 648.281,912.645 640.195,908.396C634.448,905.376 629.23,900.779 625.155,894.049C596.491,882.257 581.685,860.151 577.926,829.785C569.312,820.915 565.016,811.913 565.508,799.972C562.289,797.001 559.176,794.011 555.657,791.199C549.528,786.302 543.417,780.874 537.274,775.884C514.797,774.891 497.702,766.444 484.147,749.507C476.62,750.966 468.681,752.219 461.451,753.253C459.034,755.53 456.684,757.986 454.053,760.274C410.392,798.231 346.715,835.997 286.405,824.677C282.301,823.907 275.495,820.886 270.129,818.296C260.153,819.663 251.434,822.166 241.326,824.11C238.252,824.701 233.669,824.953 229.048,824.997C225.408,831.391 220.945,835.713 212.541,841.27C210.814,842.411 210.553,844.318 209.846,846.175C209.46,847.189 207.759,850.057 206.638,851.903C206.177,853.914 205.666,855.983 205.415,858.014C207.279,859.963 209.484,862.309 210.261,863.306L210.267,863.313C213.218,867.099 215.697,871.231 217.626,875.569C222.719,886.93 223.265,903.256 218.515,914.844C218.507,914.864 218.498,914.885 218.49,914.905C207.53,941.364 177.217,952.879 150.861,953.01C116.769,953.179 84.617,938.045 68.403,907.853C62.379,905.073 57.344,900.837 53.561,894.571C53.546,894.546 53.531,894.52 53.516,894.495C48.82,886.629 47.562,877.178 50.036,868.357C50.047,868.318 50.058,868.278 50.07,868.239C51.171,864.412 52.567,861.244 54.37,858.531C48.674,851.276 46.025,842.069 47.019,832.92C47.904,824.254 51.527,817.899 56.377,813.369C59.932,810.047 64.36,807.616 69.399,806.32C72.812,798.812 75.727,791.994 77.923,783.841C72.387,776.05 70.477,767.172 71.53,759.076C72.346,752.799 74.897,746.671 79.371,741.555ZM484.25,54.184C449.271,58.27 427.024,88.008 431.496,122.771C433.519,138.496 439.598,148.816 451.137,159.357C439.157,177.127 431.081,192.691 421.697,211.993C418.72,218.115 411.859,233.109 408.608,238.313C369.118,213.008 341.996,221.872 299.246,227.898C292.955,228.784 277.866,227.912 270.783,227.97C254.972,228.15 239.217,229.892 223.748,233.17C187.992,241.05 158.387,258.177 138.603,289.881C115.677,326.62 102.198,379.253 134.878,414.489C135.177,424.793 136.277,433.997 139.709,443.916C148.346,468.873 165.672,495.061 191.773,503.943C195.537,505.224 200.369,505.927 204.082,507.633C218.865,517.007 238.004,528.281 254.811,515.806C272.91,520.76 281.343,522.053 299.971,523.358C300.117,529.974 300.733,534.939 301.921,541.461C275.281,569.455 265.513,602.702 268.77,640.026C269.305,646.162 252.502,679.096 248.283,685.002C227.212,694.104 215.979,693.342 197.285,709.23C182.122,698.867 168.537,697.167 150.582,697.545C138.772,697.794 136.641,696.317 125.453,702.196C118.11,700.427 112.087,700.196 105.24,704.299C99.453,707.835 95.364,713.585 93.924,720.212C91.961,729.249 95.515,734.917 102.374,740.258C102.165,742.907 101.973,745.231 101.967,747.903C86.763,752.655 85.072,768.948 97.565,778.468C94.315,796.228 88.608,807.353 81.342,823.508C72.901,822.214 65.833,825.709 64.922,834.784C64.401,839.525 65.851,844.272 68.933,847.913C70.754,850.069 72.587,851.035 75.003,852.376L75.095,864.034C71.002,866.169 68.688,868.63 67.367,873.219C66.226,877.285 66.806,881.642 68.971,885.268C71.808,889.968 76.227,892.129 81.395,893.288C93.119,921.579 121.224,935.157 150.772,935.01C170.39,934.913 193.702,927.712 201.86,908.017C204.894,900.615 204.454,890.189 201.201,882.932C199.845,879.883 198.122,877.011 196.071,874.38C194.315,872.13 188.045,866.532 187.569,864.857C186.688,858.736 188.598,851.755 189.548,845.686C189.735,844.496 192.515,841.108 193.024,839.771C195.117,834.273 197.501,829.635 202.613,826.255C211.403,820.443 213.821,816.471 217.601,806.668C222.74,807.069 232.863,807.408 237.926,806.434C250.253,804.063 260.631,800.982 273.37,799.811C277.416,801.869 285.417,806.178 289.724,806.986C344.8,817.324 402.372,781.352 442.243,746.69C446.294,743.168 449.737,739.297 453.67,736.163C465.468,734.562 480.422,732.288 492.037,729.353C504.159,749.42 520.333,758.405 543.626,757.967C551.419,763.925 559.145,770.946 566.893,777.137C573.151,782.137 578.074,787.738 584.717,792.727C581.6,805.594 585.728,813.105 595.207,821.346C597.066,850.06 609.995,870.489 638.09,879.635C644.213,895.557 657.678,897.57 672.35,891.886C675.898,895.602 679.373,897.881 684.829,897.887C688.768,897.915 692.533,896.265 695.183,893.35C699.024,889.16 699.322,884.937 697.993,879.739C701.759,875.687 707.169,869.632 712.222,867.49C713.515,867.613 713.709,867.969 714.804,868.763C727.114,875.2 744.422,858.101 728.017,843.449C746.591,823.593 756.669,818.337 779.33,805.745C786.277,812.358 796.138,812.231 802.695,805.145C805.381,802.293 806.766,798.456 806.519,794.546C806.378,792.49 805.749,790.557 804.988,788.662C808.941,784.998 812.054,781.85 815.506,777.673C831.247,788.372 847.54,768.736 832.915,755.226C835.599,750.851 837.111,747.521 839.253,742.896C854.547,744.846 863.442,731.78 857.065,717.834C855.073,713.476 856.296,706.094 854.518,701.31C852.576,694.473 849.167,692.662 847.819,687.672C844.16,674.135 836.986,664.681 824.347,658.163C809.65,650.584 790.998,650.061 775.397,655.022C752.491,662.306 742.556,678.853 725.75,693.722C720.063,698.752 710.1,702.893 703.396,706.804C701.52,707.899 699.628,706.774 697.182,707.035C694.422,707.331 686.855,709.782 684.803,709.616C675.645,708.876 674.742,707.25 665.281,708.758C656.719,702.692 652.684,700.207 641.794,702.048L640.917,702.198C636.246,697.811 628.666,687.788 624.297,682.469C630.945,627.281 606.49,591.309 556.57,569.483C573.211,556.926 588.156,547.145 603.804,532.984C608.957,528.319 613.886,523.412 618.574,518.28C621.76,514.83 626.119,509.719 629.578,506.788C656.514,509.861 683.745,514.229 711.386,514.89C760.234,515.917 812.228,508.256 852.188,478.056C854.858,476.038 859.258,471.782 861.799,470.36C873.497,463.813 879.053,459.634 887.153,448.834C896.19,445.345 903.58,441.953 911.311,436.131C926.363,424.795 936.876,409.414 941.134,391.01C942.466,385.251 942.464,377.946 945.056,372.468C956.235,354.806 986.018,336.678 978.939,312.409C978.529,311.001 976.841,307.982 976.041,306.565C982.639,299.651 988.677,291.742 988.372,281.576C988.263,276.632 986.103,271.955 982.408,268.669C978.2,264.868 973.29,263.488 967.856,262.576C967.616,246.529 960.922,238.701 943.889,238.963C925.319,239.25 909.244,251.454 895.614,262.751C862.871,289.437 839.49,319.623 822.474,358.261C814.902,359.787 807.296,362.074 801.529,367.473C798.742,370.083 795.462,373.607 791.926,375.026C765.764,385.523 727.884,384.408 704.452,368.853C702.583,367.623 700.77,366.309 699.018,364.917C710.009,342.992 706.594,340.024 683.605,339.889C681.549,338.61 679.98,337.642 678.044,336.143C688.277,337.967 694.735,336.053 703.615,330.994C711.004,342.192 723.556,339.372 732.987,332.84C758.277,315.327 758.824,277.804 747.284,252.239C738.976,233.833 729.258,231.118 734.269,208.557C739.899,183.209 720.042,158.308 703.957,140.328C718.098,116.021 708.061,80.826 683.853,66.701C675.491,61.822 665.951,59.478 656.402,62.02C648.885,63.992 642.521,68.992 638.828,75.83C635.976,81.038 634.762,87.064 634.237,92.932C604.194,83.039 565.136,81.183 535.5,92.862C528.552,68.597 510.228,52.188 484.25,54.184ZM443.991,317.796C446.443,319.135 455.161,330.365 457.892,333.112C463.258,338.508 468.382,343.952 474.936,348.146C483.37,353.542 490.29,360.362 498.626,365.944C520.952,380.772 547.276,388.423 574.072,387.874C581.932,387.744 592.113,386.514 600.227,385.883C598.092,387.071 595.834,388.21 593.662,389.342C553.23,410.429 484.321,379.677 458.786,345.946C452.413,337.527 447.58,327.633 443.991,317.796ZM675.243,412.41C676.453,414.004 676.092,423.767 675.948,426.197C674.415,452.108 662.147,468.687 644.221,485.543L643.99,485.372C643.986,485.281 661.875,451.444 664.13,446.695C669.85,434.65 671.447,424.8 675.243,412.41ZM444.342,383.752C459.439,390.192 478.816,396.525 494.433,402.026C491.037,410.017 487.924,419.68 485.285,427.981C482.075,426.609 478.556,425.374 475.264,424.155C471.495,440.294 469.68,459.036 466.035,475.586C482.358,456.088 499.332,430.056 513.309,408.898C519.38,410.967 525.254,412.924 531.205,415.329C530.921,418.862 530.352,422.756 529.865,426.279C526.842,448.154 524.896,470.272 521.884,492.128C532.934,478.224 541.594,465.767 551.213,451.076C548.444,449.995 545.019,448.929 542.159,447.959C545.165,441.547 549.212,429.062 551.705,421.978C556.662,424.316 595.995,438.016 596.778,439.656L596.005,441.685C592.941,449.258 589.639,457.452 587.014,465.133C583.7,463.542 580.699,462.31 577.285,460.931C558.483,487.46 536.264,515.93 516.279,541.529C507.972,538.41 499.219,535.508 490.811,532.595C491.456,524.873 493.043,515.248 494.018,507.42C495.574,494.915 497.173,481.918 499.449,469.566C487.035,486.666 474.599,505.164 462.529,522.6C453.389,519.568 442.327,516.208 433.509,512.696C438.743,480.563 442.465,446.926 448.067,415.051C443.856,413.286 441.398,412.469 436.997,411.225C438.916,402.146 442.431,393.08 444.342,383.752ZM417.358,565.671L431.309,570.494C428.428,571.21 425.557,571.964 422.696,572.758L412.205,575.731C413.746,572.409 415.645,568.938 417.358,565.671ZM797.619,716.001C799.05,715.956 800.386,715.96 801.767,716.432C803.947,717.163 805.7,718.805 806.571,720.932C808.924,726.702 805.091,731.919 799.751,734.055C787.339,734.291 786.518,721.349 797.619,716.001ZM692.742,719.036C694.408,718.96 695.602,718.701 696.653,719.604C695.989,723.993 695.53,728.155 695.038,732.553C694.462,737.709 694.397,744.122 688.395,745.423C682.438,743.002 682.659,737.099 684.018,731.726C685.484,725.93 687.657,722.127 692.742,719.036ZM681.689,851.521C693.573,851.278 692.714,864.406 682.613,868.742C671.209,869.116 671.682,856.371 681.689,851.521ZM648.726,715.996C652.037,716.073 653.128,716.599 656.223,717.656C653.007,722.5 647.854,733.845 646.06,735.725C634.646,737.771 638.003,719.777 648.726,715.996ZM831.257,706.964C841.181,706.685 840.73,719.48 831.92,724.525C820.971,724.581 822.913,712.225 831.257,706.964ZM714.087,712.806C715.325,713.241 715.306,713.279 716.378,714.062C717.168,716.489 716.376,721.353 715.73,723.896C714.656,728.125 714.525,730.817 710.914,733.516C704.125,729.811 709.484,716.911 714.087,712.806ZM963.855,318.901L964.689,319.085C965.896,322.571 961.169,329.89 959.121,332.928C953.417,342.343 932.124,359.377 930.302,369.71C925.391,397.554 918.119,416.726 890.995,430.749C870.711,441.236 842.58,431.648 833.056,409.862C827.783,397.94 827.513,384.401 832.308,372.278C839.837,353.684 858.369,343.695 875.874,336.218C880.042,334.455 919.858,319.3 915.401,333.56C911.075,347.396 890.875,355.39 878.769,361.917C879.672,368.431 882.29,374.96 882.748,382.265C883.776,398.666 882.752,405.904 872.581,418.235C899.64,416.98 900.336,390.805 895.13,370.67C902.738,366.432 906.735,363.783 913.55,358.412C914.954,362.295 915.31,362.97 918.72,365.246C930.553,347.367 946.042,330.891 963.855,318.901ZM938.022,256.101C942.403,255.808 948.56,255.467 951.465,259.361C951.887,260.852 951.769,262.325 950.844,263.638C938.409,281.292 912.882,294.977 902.539,313.741C891.018,314.702 876.841,319.95 866.372,324.675C862.802,326.213 858.72,328.596 855.258,330.497C868.865,308.44 913.96,262.017 938.022,256.101ZM965.355,280.123C967.456,279.924 967.836,279.766 969.773,280.405C975.679,286.847 961,297.612 956.863,301.664C948.218,310.131 939.087,318.335 930.846,327.178L930.424,327.115L929.415,324.415C927.307,319.64 924.273,317.317 920.199,314.491C931.96,302.222 949.111,284.862 965.355,280.123ZM814.802,404.115C816.675,407.017 819.537,416.356 821.861,420.683C816.918,423.764 811.779,427.663 807.027,431.108C803.476,426.306 801.779,421.895 799.829,416.326C804.111,412.198 810.033,407.791 814.802,404.115ZM829.651,431.879C830.803,432.105 837.57,438.71 840.725,440.749C837.401,443.687 830.953,448.301 827.221,451.148C823.188,450.867 818.071,445.733 815.373,442.874C820.075,439.135 824.835,435.47 829.651,431.879ZM813.76,379.409L814.393,379.597C814.848,380.766 813.977,389.966 813.956,392.703C806.532,394.891 804.036,395.988 797.306,399.834L796.623,399.501C795.964,396.618 796.009,394.113 795.911,391.165C802.623,384.899 805.374,382.623 813.76,379.409ZM753.523,768.024C766.348,766.795 767.239,780.055 756.425,785.928C743.944,786.974 742.444,774.131 753.523,768.024ZM341.898,529.204C343.719,530.099 349.115,533.722 351.095,534.981C346.863,540.628 343.229,546.662 339.695,552.759C338.208,552.975 332.543,548.394 330.953,547.223C334.725,539.779 336.775,535.981 341.898,529.204ZM388.873,553.205C393.088,554.709 399.866,558.03 403.971,559.988C402.17,562.98 394.813,578.12 393.375,578.923C388.003,577.55 382.039,575.185 376.869,573.104C380.688,564.818 383.725,560.696 388.873,553.205ZM362.541,540.779C366.301,542.181 373.242,545.995 377.056,547.95C372.877,553.84 368.769,559.78 364.734,565.77L363.841,566.79C361.384,567.049 354.06,562.289 351.534,560.809C355.065,554.058 358.735,547.38 362.541,540.779ZM855.085,447.927C857.585,447.917 864.026,449.446 866.683,450.015C862.26,453.498 858.16,455.775 853.183,458.33C849.187,459.984 845.318,458.714 841.378,457.623C846.233,453.938 849.918,451.184 855.085,447.927ZM209.845,369.209C219.769,368.152 232.347,369.367 242.491,369.613C252.83,370.176 269.295,368.295 278.057,374.931C282.588,378.362 274.763,391.611 270.795,394.436C262.489,400.349 253.969,402.62 243.742,401.845C241.12,401.646 232.496,398.357 230.372,400.672C221.218,424.756 235.382,454.655 249.33,474.121C253.355,479.739 258.535,483.325 259.221,489.253C259.806,493.287 254.589,497.316 250.987,496.356C232.77,491.502 216.632,466.629 204.311,453.136C205.763,462.216 207.609,467.633 211.102,476.186C217.97,491.48 225.935,499.653 240.638,507.202C204.601,506.423 189.961,462.772 183.609,463.007C180.577,469.298 188.673,484.214 191.658,490.279C169.314,474.846 153.691,449.517 150.339,422.451C145.99,387.34 180.072,371.806 209.845,369.209ZM371.12,379.672C375.257,385.298 378.513,391.652 381.221,398.081C359.993,407.39 353.532,405.11 335.615,421.737C329.474,416.635 323.191,411.707 316.773,406.959C332.409,390.234 349.714,384.786 371.12,379.672ZM309.856,416.257C316.358,421.103 322.709,426.147 328.902,431.382C319.448,449.622 316.309,463.657 322.741,483.929C322.958,484.614 323.18,485.299 323.405,485.982C314.707,486.112 308.003,485.862 299.486,484.32C291.038,462.624 297.54,435.202 309.856,416.257ZM304.405,496.013C313.047,496.648 319.714,497.153 328.387,496.897C329.608,498.766 333.788,504.402 334.169,505.813C327.45,507.547 322.412,508.663 315.406,509.246C312.942,507.865 306.191,498.496 304.405,496.013ZM231.297,277.728C235.148,277.954 237.633,278.087 241.395,279.165C251.746,282.163 260.451,289.209 265.541,298.709C269.116,305.272 272.706,319.974 270.712,326.651L269.817,327.124C266.536,327.691 263.281,328.49 260.035,329.239C259.871,310.046 255.792,294.382 238.778,282.907C237.126,281.792 231.944,279.086 231.297,277.728ZM193.969,340.709C197.815,340.512 200.204,340.739 204.069,341.072C203.197,345.205 202.496,350.646 201.821,354.906C198.557,355.057 195.344,355.729 192.123,356.304L185.135,358.024C184.523,352.731 184.071,347.421 183.779,342.1C187.578,341.226 190.058,341.046 193.969,340.709ZM626.807,710.038C628.3,709.937 628.947,709.756 630.309,710.387C631.117,712.325 627.726,718.949 626.689,722.086C608.545,734.919 597.962,759.838 592.69,780.858L592.295,781.935L591.563,781.733C589.1,776.551 590.283,768.241 591.929,762.892C598.981,739.984 605.817,722.266 626.807,710.038ZM815.334,678.144C824.483,677.388 830.372,677.689 834.173,687.026C794.171,680.352 760.343,724.626 739.954,753.559C725.946,773.436 716.212,793.064 697.237,809.73C680.253,824.647 662.053,842.085 651.013,861.924C648.432,867.281 647.935,869.974 647.257,875.817C645.529,873.848 644.476,872.241 643.023,870.095C641.481,841.083 688.274,812.018 705.13,790.888C733.25,755.637 766.784,686.585 815.334,678.144ZM671.269,719.549C673.263,719.413 675.131,719.257 676.634,720.761C675.84,724.802 673.339,727.837 672.36,731.46C670.212,739.42 673.254,745.257 665.286,750.074C656.852,747.512 657.974,738.327 660.434,731.498C662.56,725.598 665.536,722.104 671.269,719.549ZM145.278,362.913C146.186,364.011 148.942,376.918 149.493,379.247C144.715,384.746 142.35,389.744 138.96,393.776C136.866,388.136 135.202,382.346 133.983,376.455C137.68,370.944 140.625,367.647 145.278,362.913ZM170.237,345.898L170.998,346.157C172.231,348.476 172.882,359.341 173.162,362.551C168.49,364.721 164.765,366.914 160.333,369.488C159.02,364.147 157.373,358.623 156.701,353.2C160.872,350.118 165.553,348.058 170.237,345.898ZM216.084,343.622C218.991,344.419 222.694,345.189 225.333,346.626C228.473,348.335 228.073,350.3 227.963,353.428L215.371,353.564C215.675,350.255 215.913,346.94 216.084,343.622ZM133.953,713.471C134.352,713.523 135.629,713.857 136.066,713.962C136.938,715.523 135.506,717.032 134.387,718.361C117.287,738.668 122.731,766.665 116.506,791.488C114.432,799.465 111.777,807.278 108.56,814.867C101.377,831.5 93.024,844.473 93.104,863.583C93.237,872.587 95.081,881.14 98.269,889.532C99.235,892.076 102.998,899.46 102.873,901.569C83.305,881.089 85.667,846.201 97.821,822.591C104.614,809.394 109.865,793.041 111.79,778.445C114.257,759.744 110.575,720.495 133.953,713.471ZM159.448,791.442C167.414,790.998 170.953,801.114 179.05,805.055C186.053,808.463 191.409,809.35 198.78,811.472C196.938,813.502 196.418,813.954 194.19,815.557C190.99,816.774 188.673,817.112 185.246,817.095C176.725,817.024 168.592,813.52 162.687,807.376C158.537,803.081 154.127,796.584 159.448,791.442ZM148.252,816.41C153.094,816.476 159.616,823.504 166.417,825.584C174.375,828.019 175.676,827.98 184.176,828.233C181.866,831.821 181.065,832.715 177.829,835.245C172.931,837.701 172.677,836.841 167.768,837.413C160.03,838.315 137.421,824.897 148.252,816.41ZM182.414,718.923C183.682,718.941 183.638,718.991 184.832,719.47C185.535,721.375 183.984,722.392 182.652,723.775C170.07,736.847 170.335,756.346 175.611,772.645C176.407,775.103 177.898,778.842 177.83,781.193L177.093,781.566C175.103,779.532 173.415,777.223 172.08,774.71C162.982,757.994 163.992,728.776 182.414,718.923ZM141.465,839.33C145.169,839.888 152.365,844.602 156.905,845.917C161.624,847.285 163.955,847.424 169.025,847.8C170.208,847.887 170.595,848.849 171.012,849.714C170.622,852.443 168.994,853.516 166.891,855.234C155.275,860.366 131.279,846.591 141.465,839.33ZM157.359,865.025C160.724,865.211 170.337,864.72 172.16,866.864C172.225,868.454 172.129,868.367 171.299,869.765C170.425,869.929 169.546,870.065 168.663,870.171C165.101,870.597 160.545,870.465 157.654,868.148C156.777,866.227 156.927,867.226 157.359,865.025ZM572.787,101.2C599.618,97.62 639.728,108.483 662.401,124.06C684.819,139.461 710.946,166.044 719.433,192.44C721.052,197.476 720.397,204.781 719.551,209.909C715.974,231.61 721.824,236.266 731.381,253.225C725.484,246.741 721.141,241.787 714.831,235.63C717.149,223.048 715.182,213.791 705.895,204.556C711.525,200.462 712.829,198.965 715.503,192.558C712.127,189.5 709.597,188.301 705.481,186.641C687.385,190.536 683.178,209.677 682.899,225.671C697.392,240.147 719.243,255.017 730.578,272.486C724.622,272.59 717.233,272.72 711.393,272.074C700.962,270.811 691.964,266.877 681.58,270.908C674.311,273.729 672.803,280.133 675.958,286.958C680.383,296.528 693.445,299.257 702.536,302.581C698.795,330.11 678.243,325.387 659.844,314.942C650.287,309.516 641.918,302.357 631.293,299.071C616.567,294.516 603.695,308.39 595.716,318.909C591.96,323.909 584.535,334.472 588.759,340.603C592.738,346.377 606.304,348.249 612.774,349.702C626.084,353.019 640.477,356.368 654.151,356.14C665.435,355.952 676.571,354.63 687.937,354.379C670.547,394.675 607.031,367.994 578.289,356.481C582.181,360.922 586.376,365.087 590.844,368.947C563.223,363.798 537.002,353.841 514.938,336.042C515.026,340.543 515.802,346.809 516.192,351.486C496.013,337.37 483.252,321.479 468.432,302.371C467.615,307.916 466.902,313.029 465.684,318.51C455.69,299.726 449.63,286.669 448.922,264.637C444.578,268.053 439.893,272.203 435.637,275.826C433.754,260.373 436.101,245.014 441.094,230.362L428.874,233.181C439.659,210.071 450.977,187.649 465.957,166.908C481.577,170.786 491.729,168.327 505.798,161.053C503.948,154.696 504.679,135.872 513.905,135.185C519.305,134.783 523.671,138.088 527.645,141.157C535.324,132.105 537.458,121.311 538.071,109.825C550.56,104.325 559.365,102.582 572.787,101.2ZM599.02,173.616C574.215,178.668 573.501,199.754 560.579,217.495C555.168,224.925 546.145,231.561 542.415,239.647C540.251,244.381 539.636,249.678 540.658,254.781C545.545,280.175 573.091,288.468 595.739,283.423C600.306,282.383 604.755,280.881 609.017,278.939C617,274.99 623.946,270.781 630.523,264.621C645.922,250.198 658.689,239.331 667.576,219.568C666.414,217.168 665.76,215.731 664.208,213.509C663.56,215.759 663.165,218.071 661.662,219.759C652.014,221.232 634.94,170.742 599.02,173.616ZM622.099,211.061C627.735,210.695 629.305,211.418 633.77,214.753C627.574,218.852 624.054,225.599 625.222,233.275C625.809,237.139 628.193,238.482 631.228,240.484C616.049,244.837 612.332,231.303 615.218,218.619C616.049,214.97 618.836,212.694 622.099,211.061ZM632.292,325.673C649.968,323.776 654.123,329.023 665.358,340.986C659.058,341.166 652.755,341.195 646.454,341.072C635.137,340.296 623.798,337.155 612.872,334.254C619.042,328.322 624.024,326.807 632.292,325.673ZM737.942,293.053L738.278,293.444C738.866,303.941 728.667,321.085 717.297,322.264C716.887,321.612 716.364,320.868 716.534,320.031C717.8,313.768 719.557,307.659 720.854,301.383C727.994,299.447 731.937,297.238 737.942,293.053ZM694.552,214.204C697.252,215.963 700.394,219.89 701.672,222.86L701.152,223.606C699.091,222.124 693.888,218.917 693.444,216.558C693.298,215.779 694.038,215.018 694.552,214.204Z" style="fill:rgb(255,247,228);"/>
    </g>
</svg>
