<svg width="100%" height="100%" viewBox="0 0 950 815" version="1.1" xmlns="http://www.w3.org/2000/svg" xmlns:xlink="http://www.w3.org/1999/xlink" xml:space="preserve" xmlns:serif="http://www.serif.com/" style="fill-rule:evenodd;clip-rule:evenodd;stroke-linejoin:round;stroke-miterlimit:2;">
    <g transform="matrix(1,0,0,1,-37.2582,-121.543)">
        <path d="M696.859,143.363C783.13,145.894 856.306,211.662 899.655,281.461C949.226,362.604 972.434,457.114 966.087,551.988C964.131,580.862 960.062,604.09 953.56,632.004C948.499,648.961 945.518,661.407 939.124,678.641C917.367,737.287 882.201,792.972 831.402,830.536C847.497,787.118 859.127,741.581 853.355,694.446C852.068,684.646 847.306,666.171 837.985,660.635C803.131,639.935 759.521,706.348 744.495,728.247C742.505,716.903 737.436,706.324 729.84,697.667C699.578,663.559 650.041,696.5 627.056,723.001C611.861,740.521 609.104,758.919 607.942,781.543C597.544,781.302 591.884,781.776 582.068,785.965C548.289,800.383 524.885,846.538 511.7,879.073C503.657,855.632 483.641,820.518 465.83,803.26C451.642,789.513 435.609,781.206 415.624,781.483C415.252,767.744 412.981,748.025 405.83,736.102C393.215,715.072 365.198,691.854 341.506,685.414C329.831,682.24 314.606,682.084 304.194,688.587C289.244,697.925 282.983,712.019 278.786,728.113C262.151,704.15 240.474,673.819 214.235,659.83C198.727,651.561 180.684,658.69 175.034,675.653C159.33,722.797 173.624,786.011 192.211,830.189C107.365,767.794 64.983,653.326 58.252,551.459C49.579,420.198 97.451,279.362 200.762,194.263C237.268,164.193 277.057,146.749 324.264,143.739C324.264,143.739 306.291,178.917 301.137,193.719C280.609,251.579 277.353,328.716 289.556,389.126C299.563,438.664 323.953,482.051 367.051,510.142C368.569,503.967 369.929,497.516 371.319,491.291C348.595,470.936 334.872,451.989 325.79,422.249C307.703,363.026 320.385,306.107 348.63,252.712C373.8,267.862 398.536,294.031 418.859,315.038C446.169,343.269 460.699,370.657 470.513,408.448C499.357,397.514 524.792,398.657 553.597,408.236C558.956,392.035 561.62,381.242 569.56,365.41C589.755,325.146 638.047,277.231 674.871,252.374C710.33,316.896 721.71,405.323 674.744,467.861C667.994,476.85 660.385,483.915 652.24,491.554C653.577,497.561 654.98,503.553 656.448,509.529C657.956,508.743 659.32,507.904 660.714,506.955C702.183,478.733 725.656,435.309 734.473,386.746C748.665,308.582 742.022,210.623 696.859,143.363Z" style="fill:rgb(0,35,103);" data-color="color-1"/>
        <path d="M419.979,502.09C437.371,504.858 467.583,534.51 475.854,549.814C473.766,552.214 473.197,552.678 470.7,554.601C464.31,558.49 457.337,559.558 450.057,558.24C424.86,553.679 415.999,524.24 419.979,502.09ZM602.246,502.424C603.494,502.575 602.89,502.404 603.981,503.256C606.838,511.209 604.076,526.753 600.819,534.659C593.023,553.584 575.208,564.453 554.931,556C548.864,552.937 547.779,550.826 551.795,545.206C564.296,527.717 582.106,510.487 602.246,502.424Z" style="fill:rgb(252,248,240);"/>
        <path d="M302.433,319.423C307.994,293.439 317.892,268.047 330.951,243.36L340.834,224.676L358.944,235.577C385.503,251.562 411.789,278.966 433.234,301.132C458.146,326.884 473.388,351.975 483.998,383.553C503.089,379.344 521.366,379.71 540.473,383.868C543.41,375.038 546.513,366.752 551.683,356.444C573.201,313.54 624.443,262.284 663.681,235.797L681.844,223.537L692.399,242.741C705.64,266.836 715.655,293.959 721.089,321.97C722.66,263.135 711.461,200.987 680.255,154.512L658.579,122.231L697.446,123.372C790.354,126.097 869.961,195.74 916.684,270.972L916.722,271.035C968.448,355.705 992.665,454.324 986.042,553.331L986.041,553.34C984.007,583.362 979.799,607.517 973.039,636.541L972.9,637.137L972.725,637.724C967.528,655.134 964.44,667.903 957.875,685.598C934.785,747.837 897.205,806.751 843.293,846.617L789.314,886.533L812.649,823.584C827.632,783.166 838.865,740.842 833.507,696.911C833.013,693.231 831.888,687.983 830.018,683.128C829.286,681.225 827.581,678.298 827.089,677.468C824.411,676.205 821.586,676.713 818.778,677.742C814.668,679.249 810.628,681.857 806.631,684.968C786.807,700.398 769.287,727.465 760.986,739.562L733.263,779.967L724.796,731.703C723.443,723.989 720.001,716.794 714.809,710.861C705.924,700.924 694.025,702.016 682.866,706.285C666.901,712.393 651.801,724.995 642.165,736.105C630.174,749.931 628.833,764.715 627.916,782.569L626.918,801.988L607.479,801.538C600.433,801.374 596.569,801.522 589.919,804.36C579.309,808.889 570.257,817.708 562.246,827.933C548.122,845.96 537.538,868.566 530.236,886.585L510.144,936.163L492.783,885.564C485.586,864.589 467.85,833.066 451.913,817.623C441.681,807.71 430.313,801.281 415.901,801.481L396.166,801.755L395.631,782.024C395.34,771.28 394.271,755.714 388.679,746.389C378.363,729.193 355.633,709.98 336.259,704.714C329.56,702.892 320.763,701.819 314.789,705.55C304.531,711.958 301.019,722.117 298.139,733.16L287.162,775.251L262.357,739.518C247.378,717.941 228.452,690.075 204.825,677.478C200.528,675.187 195.575,677.273 194.009,681.974C179.724,724.859 193.738,782.246 210.646,822.433L238.755,889.243L180.362,846.301C90.894,780.507 45.394,660.194 38.296,552.778C29.211,415.289 79.834,267.962 188.046,178.826C227.918,145.983 271.432,127.067 322.991,123.78L358.063,121.543L342.074,152.838C342.074,152.838 324.922,186.231 320.005,200.351L319.986,200.406C307.513,235.561 301.836,278.246 302.433,319.423ZM696.859,143.363C742.022,210.623 748.665,308.582 734.473,386.746C725.656,435.309 702.183,478.733 660.714,506.955C659.32,507.904 657.956,508.743 656.448,509.529C654.98,503.553 653.577,497.561 652.24,491.554C660.385,483.915 667.994,476.85 674.744,467.861C721.71,405.323 710.33,316.896 674.871,252.374C638.047,277.231 589.755,325.146 569.56,365.41C561.62,381.242 558.956,392.035 553.597,408.236C524.792,398.657 499.357,397.514 470.513,408.448C460.699,370.657 446.169,343.269 418.859,315.038C398.536,294.031 373.8,267.862 348.63,252.712C320.385,306.107 307.703,363.026 325.79,422.249C334.872,451.989 348.595,470.936 371.319,491.291C369.929,497.516 368.569,503.967 367.051,510.142C323.953,482.051 299.563,438.664 289.556,389.126C277.353,328.716 280.609,251.579 301.137,193.719C306.291,178.917 324.264,143.739 324.264,143.739C277.057,146.749 237.268,164.193 200.762,194.263C97.451,279.362 49.579,420.198 58.252,551.459C64.983,653.326 107.365,767.794 192.211,830.189C173.624,786.011 159.33,722.797 175.034,675.653C180.684,658.69 198.727,651.561 214.235,659.83C240.474,673.819 262.151,704.15 278.786,728.113C282.983,712.019 289.244,697.925 304.194,688.587C314.606,682.084 329.831,682.24 341.506,685.414C365.198,691.854 393.215,715.072 405.83,736.102C412.981,748.025 415.252,767.744 415.624,781.483C435.609,781.206 451.642,789.513 465.83,803.26C483.641,820.518 503.657,855.632 511.7,879.073C524.885,846.538 548.289,800.383 582.068,785.965C591.884,781.776 597.544,781.302 607.942,781.543C609.104,758.919 611.861,740.521 627.056,723.001C650.041,696.5 699.578,663.559 729.84,697.667C737.436,706.324 742.505,716.903 744.495,728.247C759.521,706.348 803.131,639.935 837.985,660.635C847.306,666.171 852.068,684.646 853.355,694.446C859.127,741.581 847.497,787.118 831.402,830.536C882.201,792.972 917.367,737.287 939.124,678.641C945.518,661.407 948.499,648.961 953.56,632.004C960.062,604.09 964.131,580.862 966.087,551.988C972.434,457.114 949.226,362.604 899.655,281.461C856.306,211.662 783.13,145.894 696.859,143.363ZM782.539,449.669C780.333,452.829 776.512,461.444 774.622,465.276C770.794,472.973 766.71,480.54 762.376,487.965C733.969,536.139 708.885,559.528 662.319,590.275C660.943,582.337 660.002,572.292 659.442,564.206C662.81,561.154 674.374,553.7 678.83,550.378C694.505,538.69 707.787,526.679 720.455,511.802C779.236,442.769 787.804,366.042 779.828,278.811C786.408,300.039 793.376,318.556 799.473,340.716C818.71,410.644 820.656,492.941 799.79,562.935C793.008,584.888 784.344,606.216 773.894,626.679C770.476,633.473 767.261,640.694 763.454,647.237C780.699,589.277 788.919,526.302 788.151,465.886C788.108,462.515 788.417,448.994 787.282,447.195C785.396,447.029 785.518,447.367 783.502,448.333L782.539,449.669ZM661.111,317.428C661.694,317.68 662.069,318.27 662.259,318.878C673.109,353.956 675.028,393.656 662.1,428.461C654.203,449.719 643.279,461.911 623.339,471.998C634.793,455.61 642.338,436.642 639.775,416.367C638.797,408.63 632.835,410.13 627.646,411.705C634.497,394.477 638.076,384.577 649.002,369.698L652.15,365.161C627.839,373.36 606.762,406.134 595.605,428.327C591.855,435.785 588.265,445.581 585.116,453.482C585.228,403.695 622.024,346.488 661.111,317.428ZM404.552,596.693C414.702,602.842 440.539,643.209 447.22,655.319C451.475,662.939 455.298,670.793 458.672,678.843C463.075,689.333 485.887,751.164 483.743,758.615C480.513,755.977 475.608,749.753 472.689,746.337C454.695,725.277 435.281,701.306 422.876,676.484C412.184,655.09 400.513,620.165 404.552,596.693ZM512.439,568.379C518.303,572.775 530.518,592.91 534.571,599.624C536.704,597.444 544.325,589.799 547.504,589.435C551.986,588.923 552.555,592.841 553.057,597.038C553.953,604.52 551.294,614.21 546.374,620.028C544.227,622.568 538.562,628.128 535.479,628.362C531.269,625.724 535.441,616.403 534.057,613.29L532.704,612.995C525.563,614.656 516.205,623.424 511.012,628.549C506.745,625.031 494.886,612.647 489.255,613.955C487.918,617.355 493.657,623.152 490.45,628.272C482.859,633.738 459.707,608.739 477.735,589.943C482.085,593.231 485.621,596.254 489.728,599.809C497.56,585.714 501.252,580.134 512.439,568.379ZM571.179,721.723C570.201,722.906 570.281,722.849 568.936,723.584L568.767,723.016L570.156,721.266C588.804,695.208 604.269,663.892 611.972,632.728C613.374,626.861 614.566,620.946 615.544,614.994C616.151,611.179 616.637,605.657 617.734,602.16L618.525,602.035C620.699,604.431 620.361,614.327 620.118,617.626C616.74,663.462 600.735,688.872 571.179,721.723ZM243.76,280.561C243.979,282.523 241.998,302.839 241.81,306.838C240.686,330.714 240.722,354.114 244.074,377.827C250.058,420.153 262.859,456.981 287.674,492.005C299.58,508.811 310.342,521.661 325.7,535.793C338.246,547.337 350.031,554.2 363.25,564.14C362.531,572.75 361.903,581.367 361.365,589.99C350.326,583.556 339.699,575.316 329.64,567.499C296.346,541.628 271.73,508.557 252.396,471.38C249.242,465.314 245.698,456.733 242.831,450.345C240.697,446.618 238.5,442.929 236.24,439.278C235.246,450.103 235.696,461.997 235.496,472.815C234.485,527.482 242.882,581.451 256.665,634.236C257.867,638.84 259.285,643.561 260.247,648.227C256.149,639.43 251.584,630.378 247.268,621.697C222.869,572.617 213.22,527.627 210.754,473.166C207.636,404.286 220.733,345.188 243.76,280.561ZM98.886,562.405C97.015,547.664 97.138,531.684 97.297,516.603C98.427,409.24 146.407,296.67 228.623,226.482C237.271,219.099 249.573,209.973 259.591,205.011C249.196,218.781 240.616,227.878 230.249,243.08C178.953,318.299 155.473,396.305 141.751,485.083L141.29,488.445C133.426,544.802 132.494,601.675 133.653,658.476C134.003,675.622 135.903,690.179 138.096,707.204C125.141,685.878 100.387,597.361 100.033,572.226C99.424,569.983 99.109,564.917 98.886,562.405ZM379.076,372.013C388.302,386.181 392.217,396.393 398.011,412.291C383.569,405.18 383.735,419.592 384.155,429.649C384.867,446.67 392.021,458.563 400.608,472.538C387.938,465.721 378.804,459.288 371.009,446.95C347.689,410.042 348.769,357.218 361.891,317.267C372.914,325.217 386.497,338.501 395.405,348.904L396.3,350.189C421.553,379.944 436.867,412.448 439.198,451.753L438.715,450.859C434.741,443.349 432.634,433.949 428.297,425.718C416.302,402.953 399.79,377.574 376.169,365.596C375.892,365.455 375.409,365.585 375.112,365.643L374.675,366.436C376.411,368.303 377.578,369.97 379.076,372.013ZM765.796,205.906C770.811,207.435 784.412,217.595 789.08,221.423C877.017,293.206 926.029,408.915 926.177,521.479C926.189,530.442 926.371,539.042 925.93,548.063C923.741,592.855 912.348,637.82 897.473,679.98C894.319,689.312 890.594,698.442 886.317,707.316C887.209,692.089 889.457,678.197 889.983,661.913C891.448,620.659 890.578,579.355 887.377,538.199C880.163,452.057 857.778,352.449 815.602,276.657C805.139,258.112 793.376,240.333 780.399,223.452C776.145,217.867 769.193,211.211 765.796,205.906Z" style="fill:rgb(0,97,64);" data-color="color-2"/>
    </g>
</svg>
