<svg width="100%" height="100%" viewBox="0 0 2923 3613" version="1.1" xmlns="http://www.w3.org/2000/svg" xmlns:xlink="http://www.w3.org/1999/xlink" xml:space="preserve" xmlns:serif="http://www.serif.com/" style="fill-rule:evenodd;clip-rule:evenodd;stroke-linejoin:round;stroke-miterlimit:2;">
    <g transform="matrix(1,0,0,1,-571.209,-219.09)">
        <path d="M1370.46,239.299C1380.37,229.693 1383.88,226.86 1395.17,219.09C1404.3,226.472 1413.1,233.373 1421.66,241.439C1456.89,271.943 1476.63,294.701 1504.61,332.088C1522.46,358.274 1553.88,403.681 1567.45,432.545C1579.26,451.047 1644.15,583.5 1649.77,602.824C1661.38,624.602 1672.65,651.257 1683.43,674.045C1698.41,704.933 1713.61,735.708 1729.05,766.368C1741.9,791.636 1758.18,821.454 1770.19,846.398C1779.95,864.472 1798.87,902.779 1808.9,918.073L1822.27,941.928C1832.6,959.518 1842.8,979.53 1854.09,996.151C1863.5,998.825 1885.63,997.027 1896.36,996.756C1921.71,996.117 1945.13,997.186 1970.42,999.388C2013.61,999.647 2068.05,1009.4 2111.46,1015.92C2163.39,963.06 2176.69,951.422 2216.59,889.902C2219.01,884.202 2239.28,847.892 2242.82,842.46C2298.17,733.703 2348.04,622.011 2413.34,518.687C2421.21,506.236 2428.87,492.926 2437.95,481.359C2473.82,416.046 2547.48,340.043 2605.46,293.762C2620.64,281.242 2635.24,269.112 2651.82,258.383C2651.34,291.943 2647.01,326.441 2645.39,360.053C2642.76,414.54 2643.85,470.078 2651.4,524C2677.01,706.771 2760.14,872.736 2739.88,1061.36C2733.25,1123.11 2726.67,1163.88 2700.03,1220.65C2795.8,1324.55 2863.78,1382.43 2987.25,1450.34C3087.41,1505.43 3118.01,1619.74 3122.43,1729.29L3119.69,1729.15C3095.23,1727.6 3045.66,1710.44 3029.12,1713.56C3023.51,1720.56 3023.64,1734.89 3022.69,1743.74C3017.3,1793.9 3013.13,1835.66 2982.51,1877.29C3067.89,1931.52 3156.9,1981.57 3241.94,2036.46C3293.1,2069.48 3353.81,2102.61 3397.3,2144.88C3443.99,2190.26 3437.79,2266.33 3414.92,2321.33C3430.37,2345.26 3446.33,2370.15 3457.85,2396.39C3495.54,2482.24 3502.88,2583.3 3483.88,2674.63C3473.88,2722.66 3446.25,2786.85 3416.83,2826.1C3378.43,2883.3 3305.51,2945.74 3234.55,2953.58C3207.48,3060.26 3121.42,3167.27 3027.45,3222.65C2991.65,3243.75 2959.44,3260.73 2927.52,3288.08C2913.83,3301.4 2903.53,3317.81 2897.5,3335.94C2880.33,3387.41 2901.76,3424.29 2923.12,3467.46C2745.52,3469.68 2670.62,3411.09 2550.25,3289.32C2518.55,3257.24 2477.19,3220.69 2434.09,3205.45C2419.35,3197.27 2393.58,3188.15 2377.25,3181.83C2313.21,3157.03 2253.98,3121.29 2211.22,3066.51C2204.59,3058.02 2199.69,3048.42 2191.92,3040.92L2188.66,3041.92L2186.94,3049.58C2181.34,3086.68 2194.61,3127.69 2202.75,3164.68C2208.25,3185.31 2209.98,3205.42 2214.08,3226C2232.13,3316.7 2221.23,3422.31 2151.1,3490.55C2153.43,3472.28 2155.83,3455.78 2156.18,3437.29C2157.08,3388.13 2152.5,3364.81 2139.07,3316.75C2137.12,3311.19 2136.26,3306.82 2135.01,3301.13L2130.56,3297.37C2125.39,3302.59 2124.75,3326.07 2124.08,3334.54C2121.58,3411.33 2073.25,3498.07 2024.93,3555.51C2011.65,3571.6 1993.17,3592.44 1977.62,3606.63C1934.36,3647.85 1892.72,3682.38 1842.07,3714.2C1834.11,3719.2 1822.64,3726.51 1815.33,3732.22C1796.53,3743.65 1776.5,3756.39 1757.16,3766.62C1729.57,3781.31 1679.79,3808.64 1651.82,3820.43C1644.29,3823.88 1637.83,3827.75 1630.67,3831.87C1630.52,3796.04 1626.77,3770.86 1615.96,3737.22C1594.96,3678.89 1546.14,3617.08 1505.01,3570.4L1462.47,3526.38C1457.74,3522.8 1441.46,3506.83 1436.19,3501.84C1414.9,3481.69 1396.27,3464.17 1372.71,3446.38C1366.1,3440.02 1352.75,3429.8 1345.16,3423.67C1303.38,3391.83 1256.17,3353.44 1212.39,3325.47C1205.57,3319.74 1187.32,3307.74 1179.15,3301.91C1170.04,3297.34 1131.84,3271.22 1123.18,3264.87C1053.31,3213.63 954.818,3142.51 897.371,3078.31C850.785,3033.44 810.128,2982.78 776.39,2927.59C775.934,2926.52 767.796,2913.92 766.704,2912.2C744.438,2872.04 706.124,2796.51 699.982,2752.09C696.96,2746.66 692.766,2729 691.036,2721.96C674.009,2652.72 668.353,2575.95 672.651,2504.88C671.412,2477.7 681.173,2422.57 686.203,2394.15C688.54,2380.95 696.159,2360.05 695.346,2348.31C677.654,2368.02 654.359,2392.52 639.57,2413.5C623.415,2434.03 613.474,2456 602.013,2479.28C592.117,2451.31 574.835,2386.41 575.844,2358.94C571.274,2343.29 571.734,2317.3 571.394,2300.44C569.853,2224.02 577.62,2145.48 605.905,2073.84C607.694,2069.21 609.139,2064.59 610.693,2059.88C682.682,1895.96 810.946,1794.4 930.111,1667.37C961.066,1634.37 991.115,1588.19 1014.9,1549.97L1016.72,1546.65C1025.99,1528.65 1034.71,1511.81 1042.98,1493.27C1053.02,1468.67 1064.55,1442.32 1070.13,1416.53C1067.11,1410.46 1064.29,1404.28 1061.67,1398.02C964.531,1168.43 997.002,888.684 1088.91,662.635C1099.5,636.839 1115.02,599.901 1127.96,575.736C1132.52,558.032 1172.19,491.246 1182.72,474.122C1200.29,445.252 1213.88,422.07 1233.58,393.93C1240.31,382.281 1254.26,364.547 1262.37,352.113C1292.87,318.845 1324.84,269.375 1365.82,243.751C1366.54,242.772 1369.44,240.243 1370.46,239.299Z" style="fill:rgb(33,33,64);fill-rule:nonzero;" data-color="color-2"/>
        <path d="M1507.65,2789.63L1503.45,2786.14C1495.43,2780.78 1491.74,2776.89 1484.94,2770.33C1473.55,2759.8 1467.25,2753.65 1457.28,2741.88C1412.53,2698.22 1372.64,2623.25 1354.77,2564.06L1353,2559.82C1344.39,2534.15 1336.4,2498.78 1334.03,2472.19C1328.6,2452.67 1328.97,2387.26 1330.28,2364.9C1339.35,2209.75 1416.77,2032.15 1533.18,1928.05C1536.92,1923.98 1542.77,1919.93 1547.27,1916.5C1559.16,1905.7 1580.09,1893.44 1593.9,1883.8C1561.91,1895.56 1540.02,1909.09 1510.31,1924.51L1476.63,1945.92C1455.42,1961.66 1432.63,1978.04 1413.17,1995.78C1301.19,2097.89 1212.25,2259.55 1202.76,2412.84C1173.28,2298.97 1202.44,2133.16 1258.11,2027.82C1258.25,2027.6 1258.4,2027.39 1258.55,2027.18C1278.16,1983.1 1339.7,1887.13 1374.68,1853.17C1402.49,1817.26 1455.19,1769.18 1491.85,1743.8C1453.77,1757.03 1407.11,1778.08 1370.75,1796.36C1269.5,1847.26 1169.3,1923.44 1113.6,2023.66C1100.23,2047.71 1091.82,2072.6 1083.37,2098.55C1087.53,1873.39 1246.74,1749.06 1420.82,1641.72C1413.7,1638.04 1409.83,1636.09 1403.32,1631.53C1376.15,1617.61 1336.79,1588.31 1313.7,1569C1302.37,1563.11 1260.85,1515.86 1250.66,1504.28C1224.55,1474.27 1207.48,1446.52 1187.7,1412.65C1165.01,1372.61 1146.24,1327.03 1133.69,1282.79C1128.55,1264.67 1125.77,1244.89 1120.65,1226.3C1113.79,1167.77 1105.89,1102.53 1111.47,1043.51C1111.73,1019.04 1115.68,985.586 1118.24,960.7C1119.54,954.33 1120.57,945.485 1121.55,938.855C1123.45,929.074 1124.68,921.308 1125.86,911.417C1134.18,872.576 1144.18,836.314 1152.76,798.246L1154.16,794.138C1157.85,785.125 1161.35,773.914 1164.3,764.567C1183.92,702.377 1210.61,644.92 1239.85,586.636C1245.83,576.418 1251.57,566.054 1257.04,555.554C1270.9,531.524 1291.49,494.289 1308.48,472.896L1317.25,458.744C1319.71,456.016 1322.53,451.067 1324.59,447.802C1338.9,429.113 1377.39,376.845 1395.06,367.203C1414.42,388.991 1433.08,408.56 1449.02,433.14C1453.4,440.368 1459.67,450.037 1463.37,457.362C1467.1,463.429 1470.72,469.575 1474.9,475.332C1496.33,519.044 1519.74,561.257 1539.24,606.037C1543.31,615.386 1553.64,639.909 1558.59,646.758C1562.5,656.052 1566.52,665.295 1570.67,674.486C1600.57,739.969 1632.36,804.576 1665.99,868.229C1679.46,892.745 1692.58,917.454 1705.34,942.348C1714.6,962.575 1730.87,996.533 1737.73,1016.85C1773.99,1124.21 1784.03,1251.2 1758.32,1361.66C1768.72,1352.99 1778.09,1343.17 1786.28,1332.39C1810.72,1299.33 1822.51,1272.59 1832.38,1233.02C1832.35,1230.02 1836.27,1200.88 1836.73,1192.1C1897.09,1217.23 1954.85,1219.97 2018.85,1206.44C1954.48,1178.35 1902.63,1155.47 1866.13,1094.2C1924.47,1094.45 1970.18,1095.49 2028.58,1100.17C2040.74,1101.88 2086.19,1106.17 2093.51,1109.12C2115.62,1111.83 2163.62,1120.94 2182.84,1130.14L2188.32,1130.09C2254.81,1154.99 2282.63,1166.31 2345.76,1203.11C2364.62,1217.9 2386.9,1233.17 2406.59,1247.22C2416.93,1256.66 2447.46,1283.47 2454.26,1293.4C2442.15,1289.76 2400.8,1262.31 2385.86,1254.72C2299.58,1210.9 2225.99,1182.58 2129.35,1172.49C2156.24,1184.88 2200.87,1206.22 2224.63,1222.77C2250.18,1236.73 2269.12,1251.74 2292,1269.42L2298.38,1274.38C2327.34,1295.71 2378.04,1339.44 2401.11,1367.35C2483.82,1453.21 2540.68,1594.31 2538.42,1713.75L2538.34,1716.96C2505.55,1613.34 2400.18,1498.33 2303.27,1451.67C2191.62,1397.91 2136.21,1406.72 2022.73,1429.04C2088.49,1442.67 2133.03,1469.31 2188.72,1503.47L2186.53,1502.91C2164.63,1497.22 2142.94,1487.03 2120.71,1483.23C2054.46,1471.89 1990.65,1489.92 1933.5,1522.3C1866.95,1560.01 1822.62,1613.25 1761.18,1654.93C1736,1672.01 1691.66,1687.72 1662.52,1698.82C1787.48,1705.2 1832.04,1650.07 1940.01,1615.14C1906.93,1658.99 1865.09,1708.68 1823.15,1744.21C1799.82,1763.97 1772.76,1779.03 1749.84,1797.67C1787.66,1784.16 1913.79,1735.48 1938.48,1707.12C1944.56,1695.31 1951.67,1683.38 1960.62,1673.57L1962.36,1677.15L1956.86,1684.81L1957.56,1686.79C1962.66,1685.53 1960.58,1686.84 1963.47,1682.1L1965.14,1684.67C1967.33,1685.66 1976.32,1688.64 1977.23,1689.3L1980.13,1688.51C2062.78,1657.08 2108.33,1663.99 2193.59,1678.21C2154.89,1697.15 2120.08,1722.19 2085.43,1747.61C2033.59,1785.62 1997.11,1827.91 1932.59,1842.06C1985.55,1852.17 2056.22,1842.37 2103.96,1819.46C2118.99,1869.31 2140.01,1905.35 2187.29,1931.58C2234.06,1957.54 2303.51,1958.92 2353.76,1943.25C2377.43,1935.87 2403.32,1922.85 2425.94,1911.81C2438.24,1903.96 2443.31,1899.99 2454.4,1890.44C2448.08,1900.8 2439.08,1916.59 2432.32,1926.09C2417.88,1954.67 2392.24,1986.24 2372.63,2011.74C2284.04,2126.92 2171.91,2139.15 2059.16,2217.76C2046.2,2227.39 2033.48,2237.33 2021,2247.58C2017.27,2250.87 2009.92,2257.8 2006.27,2260.5C1984.28,2281.92 1970.03,2298.14 1950.77,2322.76C1933.47,2348.56 1890.69,2410.42 1883.3,2437.85C1871.04,2463.52 1863.33,2483.77 1854.69,2510.88C1851.21,2521.27 1847.64,2531.38 1844.92,2542.01L1843.15,2549.02L1838.7,2568.44C1830.37,2602.95 1813.82,2711.11 1821.62,2743.3C1822.16,2764.24 1825.36,2798.2 1830.65,2818.53C1834.04,2836.92 1837.64,2850.23 1842.67,2868.22C1845.78,2876.21 1868.85,2930.34 1868.78,2933.11C1855.52,2923 1819.05,2905.5 1801.62,2893.26C1706.29,2826.26 1633.74,2753.69 1586.89,2645.5C1582.3,2633.21 1568.91,2585.57 1564.83,2578.31C1548.57,2499.07 1542.49,2422.73 1555.64,2345.77C1559.77,2321.61 1565.79,2297.39 1573.98,2273L1572.69,2274.7L1570.59,2277.57C1544.62,2312.3 1516.45,2374.97 1505.64,2417.8C1482.12,2486.11 1472.32,2558.4 1476.82,2630.51C1484.27,2683.64 1493.66,2724.3 1516.22,2774.05C1520.69,2782.86 1536.99,2810.18 1538.78,2815.04C1528.27,2806.74 1517.89,2798.27 1507.65,2789.63ZM1264.86,1329.73C1289.81,1375.17 1309.29,1404.1 1346.17,1441.5C1361.82,1454.58 1380.05,1467.13 1394.07,1478.96C1403.79,1483.32 1410.98,1487.74 1420.11,1493.11L1443.64,1503.04C1442.95,1485.41 1441.81,1443.06 1438.49,1427.6C1438.54,1371.59 1402.59,1260.07 1380.17,1206.36L1380.51,1200.81C1392.44,1209.07 1427.48,1259.75 1437.81,1273.63C1448.99,1288.62 1460.33,1318.55 1471.12,1334.57C1504.5,1423.99 1504.16,1459.41 1501.53,1553.09C1507.51,1547.86 1514.48,1542.16 1519.84,1536.45C1538.36,1524.53 1573.45,1467.1 1582.88,1446.02C1654.01,1286.9 1621.13,1123.63 1563.97,968.284C1547.61,921.441 1525.16,863.63 1511.19,817.015C1497.64,791.69 1481.89,731.849 1469.14,703.224C1464.62,693.095 1461.36,679.792 1455.25,670.217C1450.38,653.813 1439.33,630.268 1432.03,614.143C1427.23,602.66 1422.96,594.21 1417.27,583.196C1412.33,568.143 1393.89,537.196 1385.23,522.239C1369.35,529.269 1301.02,644.304 1293.15,664.802C1283.63,683.412 1274.01,702.974 1266.5,722.499C1243.98,770.783 1228.62,821.125 1216.19,872.712C1214.13,881.259 1212.05,892.124 1209.46,900.256L1208.84,904.175C1205.97,924.012 1202.94,943.824 1199.73,963.61C1196.66,1011.07 1197.3,1039.57 1196.29,1085.06C1197.57,1094.93 1199.45,1125.59 1200.98,1131.48C1203.6,1157.7 1207.42,1176 1214.69,1201.34C1224.17,1244.42 1246.39,1289.79 1264.86,1329.73ZM1435.58,1028.08C1458.6,1036.77 1499.06,1090.47 1510.73,1112.69C1526.37,1142.48 1543.85,1201.08 1540.03,1234.59C1541.68,1252.35 1540.24,1272.69 1539.5,1290.71C1537.89,1284.17 1534.54,1272.45 1534.42,1266.19L1530.86,1258.17C1518.46,1203.6 1489.32,1132.89 1465.46,1081.91C1458.01,1066 1445.03,1047.58 1437.2,1031.46L1435.58,1028.08ZM1466.89,3117.62C1538.75,3203.81 1601.24,3295.39 1628.42,3406.39C1637.49,3443.42 1640.53,3477.59 1643.81,3515.24C1626.43,3476.08 1622.31,3455.25 1596.4,3415.56L1589.35,3404.12C1563.69,3362.56 1529.85,3327.94 1495.69,3293.35L1467.02,3266.05C1282.78,3113.34 1156.59,2950.78 1094.68,2716.54C1080.45,2662.68 1063.98,2595.74 1060.89,2540.48C1091.74,2643.47 1138.35,2727.03 1203.58,2812.47C1215.28,2827.8 1237.03,2857.73 1250.73,2870.67C1270.91,2897.43 1327.5,2963.19 1351.59,2985.98C1359.72,2997.49 1421.44,3067.93 1430.41,3074.81C1442.46,3089.17 1454.62,3103.44 1466.89,3117.62ZM861.177,2779.9C801.568,2634.06 809.526,2509.13 850.239,2360.19C854.922,2350.43 872.528,2296.61 877.022,2283.91C889.648,2257.29 900.698,2228.18 914.792,2202.83C861.171,2383.94 892.24,2627.36 983.655,2791.55C1034.82,2883.46 1099.27,2963.12 1163.81,3045.76C1206.67,3100.64 1246.32,3159.49 1292.44,3211.19C1163.35,3133.4 1066.34,3060.86 967.242,2943.82C942.94,2915.12 926.941,2889.59 905.027,2861.42C888.436,2833.34 875.192,2809.25 861.177,2779.9ZM1029.74,1776.51C984.302,1852.13 931.589,1923.13 872.352,1988.51C830.032,2035.98 784.884,2080.96 745.028,2130.6C735.301,2142.72 686.59,2215.22 684.837,2216.41L683.531,2211.67C688.192,2176.5 694.599,2151.68 705.775,2117.83C721.094,2086.84 732.798,2066.94 751.237,2038.43C764.947,2020.09 780.594,2001.02 795.078,1983.22C818.96,1959.01 843.042,1934.99 867.32,1911.17C877.875,1902.43 888.262,1893.49 898.476,1884.36C940.067,1843.53 981.641,1808.23 1023.85,1765.06L1065.98,1716.36C1054.64,1736.69 1041.97,1756.68 1029.74,1776.51Z" style="fill:rgb(215,173,95);" data-color="color-1"/>
        <path d="M2514.49,3009.95C2503.39,2991.75 2495.85,2959.15 2491.77,2938.11C2475.46,2854.01 2486.59,2776.86 2513.23,2696.28C2540.03,2624.21 2576.89,2564.98 2634.35,2512.52C2653.66,2494.89 2674.07,2481.61 2694.05,2465.27C2624.2,2492.32 2576.68,2525.86 2528.43,2583.43C2454.94,2663.87 2409.09,2819.6 2416.16,2927.19C2419.39,2976.28 2423.6,2998.72 2437.03,3044.92C2438.27,3047.94 2441.35,3056.1 2442.68,3058.57C2451.2,3086.69 2468.41,3117.88 2484.78,3142.21C2475.03,3135.42 2446.31,3114.39 2437.39,3109.35C2390.92,3067.96 2373.32,3044.67 2342.9,2989.7C2305.86,2906.98 2293.97,2855.95 2300.64,2763.79C2302.95,2758.45 2308.94,2720.46 2310.78,2712.1C2325.88,2643.48 2358.66,2583.53 2394.6,2523.91C2410.7,2503.66 2427.12,2480.22 2443.77,2459.03C2418.46,2477.33 2395.09,2498.18 2374.03,2521.25C2336.81,2553.33 2273.02,2639.26 2258.83,2683.33C2227.19,2757.67 2219.48,2854.06 2243.61,2931.58C2235.56,2929.94 2205.89,2875.98 2201.04,2866.68C2156.2,2778.75 2147.41,2676.8 2176.55,2582.5C2223.23,2436.27 2346.14,2322.97 2479.34,2253.72L2522.63,2234.95C2517.22,2235.95 2508.38,2237.57 2497.96,2239.56C2468.62,2245.17 2426.86,2253.69 2414.58,2259.49C2293.99,2290.13 2169.11,2383.63 2107.42,2491.3C2069.75,2557.02 2055.77,2604.15 2047.99,2678.28C2047.81,2684.35 2048.84,2689.99 2045.94,2693.9C2044.4,2689.67 2043.3,2686.57 2042.12,2682.23C2026.36,2600.3 2035.02,2526.28 2072.89,2451.79C2044.87,2469.19 2021.56,2492.71 2000.64,2517.91C1950.31,2578.54 1918.19,2645.8 1925.77,2726.03C1920.89,2713.68 1917.45,2701.85 1914.48,2688.98C1868.4,2488.97 2002.23,2299.91 2179.09,2218.13C2236.2,2191.72 2291.82,2160.66 2340.69,2120.87C2364.57,2101.54 2387,2080.51 2407.81,2057.92C2454.72,2006.49 2480.75,1971.63 2540.26,1932.87C2575.86,1915.48 2603.41,1907.62 2633.12,1905.03C2656.68,1902.97 2681.6,1904.23 2712.97,1906.68C2673.26,1892.09 2640.47,1885.25 2599.92,1867.13C2575.96,1856.43 2522.62,1819.17 2509.57,1814.89L2510.18,1810.22C2549.22,1811.93 2582.3,1783.66 2599.71,1750.93C2509.13,1770.62 2427.58,1696.88 2358.75,1647.64C2266.24,1581.47 2125.3,1559.63 2023.68,1620.94C2003.16,1632.08 1973.73,1654.23 1960.62,1673.57C1951.67,1683.38 1944.56,1695.31 1938.48,1707.12C1913.79,1735.48 1787.66,1784.16 1749.84,1797.67C1772.76,1779.03 1799.82,1763.97 1823.15,1744.21C1865.09,1708.68 1906.93,1658.99 1940.01,1615.14C1832.04,1650.07 1787.48,1705.2 1662.52,1698.82C1691.66,1687.72 1736,1672.01 1761.18,1654.93C1822.62,1613.25 1866.95,1560.01 1933.5,1522.3C1990.65,1489.92 2054.46,1471.89 2120.71,1483.23C2142.94,1487.03 2164.63,1497.22 2186.53,1502.91L2188.72,1503.47C2133.03,1469.31 2088.49,1442.67 2022.73,1429.04C2136.21,1406.72 2191.62,1397.91 2303.27,1451.67C2400.18,1498.33 2505.55,1613.34 2538.34,1716.96L2538.42,1713.75C2540.68,1594.31 2483.82,1453.21 2401.11,1367.35C2378.04,1339.44 2327.34,1295.71 2298.38,1274.38L2292,1269.42C2269.12,1251.74 2250.18,1236.73 2224.63,1222.77C2200.87,1206.22 2156.24,1184.88 2129.35,1172.49C2225.99,1182.58 2299.58,1210.9 2385.86,1254.72C2400.8,1262.31 2442.15,1289.76 2454.26,1293.4L2458.49,1296.35L2492.81,1329.53C2483.25,1310.11 2475.34,1294.91 2464.49,1276.07C2458.88,1258.56 2415.58,1205.88 2401.14,1191.76C2375.79,1161.16 2340.44,1135.06 2307.79,1112.58C2301.4,1108.18 2287.58,1100.85 2284.68,1094.51C2435.86,1147.02 2526.36,1204.86 2645.21,1315.34C2695.81,1362.39 2744.82,1409.66 2798.91,1452.79C2857.41,1499.43 2942.12,1530.99 2985.45,1590.97C2880.71,1609.98 2813.32,1661.8 2796.37,1774.33C2786.39,1840.69 2839.66,1874.77 2887.54,1906.71C2996.38,1976.61 3111.16,2036.8 3216.08,2113.05C3106.84,2078.28 2959.28,2097.82 2895.52,2203.52C2933.26,2320.48 3019.2,2382.09 3124.67,2435.97C3127.47,2437.41 3130.28,2438.82 3133.11,2440.21C3123.76,2626.94 2930.11,2624.07 2804.6,2683.82C2835.82,2655.67 2864.75,2627 2889.75,2592.95C2899.5,2579.62 2909.27,2565.01 2916.75,2550.28C2915.96,2543.22 2916.98,2545 2913.92,2539.21L2906.96,2538.68C2883.63,2560.52 2860,2579.27 2834.52,2598.55C2815.2,2610 2797.53,2625.56 2778.87,2636.95C2633.02,2725.95 2540.24,2839.36 2527.85,3015.73C2527.89,3024.96 2529.12,3035.96 2529.92,3045.3C2524.58,3033.61 2519.44,3021.82 2514.49,3009.95ZM1505.64,2417.8C1482.12,2486.11 1472.32,2558.4 1476.82,2630.51L1475.56,2634.31L1473.07,2633.05C1440.83,2578.24 1438.48,2512.48 1437.84,2451.67C1438.57,2441.8 1439.52,2431.96 1440.69,2422.14C1458.44,2271.05 1518.42,2168.72 1636.64,2075.44C1674.96,2048.58 1690.14,2039.22 1731.76,2017.7C1772.74,2003.88 1791.5,1996.53 1834.95,1987.64L1838.95,1989.46L1837.64,1993.37C1786.82,2009.03 1728.12,2075.73 1704.72,2121.47C1646.69,2211.54 1626.89,2384.3 1652.86,2487.9C1656.94,2504.17 1661.3,2521.93 1665.89,2538.17C1667.48,2478.3 1678.07,2427.68 1709.41,2375.38C1759.07,2292.53 1852.11,2207.65 1948,2185.13L1927.31,2200.67C1866.29,2249.79 1812.94,2328.52 1794.85,2405.43L1792.54,2413.61C1764.87,2517.12 1757.22,2638.65 1783.36,2742.82C1792.17,2777.93 1818.56,2841.09 1842.67,2868.22C1845.78,2876.21 1868.85,2930.34 1868.78,2933.11C1855.52,2923 1819.05,2905.5 1801.62,2893.26C1706.29,2826.26 1633.74,2753.69 1586.89,2645.5C1582.3,2633.21 1568.91,2585.57 1564.83,2578.31C1548.57,2499.07 1542.49,2422.73 1555.64,2345.77C1559.77,2321.61 1565.79,2297.39 1573.98,2273L1572.69,2274.7L1570.59,2277.57C1544.62,2312.3 1516.45,2374.97 1505.64,2417.8ZM3084.91,2663.64C3107.41,2682.39 3126.57,2700.35 3139.65,2727.14C3177.7,2805.08 3147.96,2900.43 3117.01,2975.63C3089.88,3027.01 3058.4,3074.93 3012.94,3111.57C3004.64,3118.25 2997,3126 2987.76,3131.28L2986.4,3129.72L2986.84,3128.72C3022.65,3078.54 3040.82,2995.39 3039.98,2934.11C3036.72,2922.18 3039.04,2911.62 3035.11,2897.35L3032.97,2897.77L3030.09,2906.17L3027.28,2905.49C3004.44,2961.93 2995.79,2995.63 2961.01,3051.1C2890.66,3163.3 2833.23,3172.37 2827.07,3314.05C2795.68,3233.08 2814.93,3149.75 2838,3069.84C2842.12,3055.58 2852.91,3013.67 2853.53,3000.51C2852.15,2990.85 2857.13,2958.3 2857.55,2942.67C2854.19,2949.39 2851.22,2957.89 2845,2961.3C2836.55,2973.05 2829.12,2989.25 2821.82,3002.07C2766.29,3099.63 2705.09,3179.86 2725.36,3298.34C2684.19,3267.59 2655.32,3235.37 2637.36,3188.3C2559.97,2985.39 2669.17,2774.15 2884.6,2731.2C2921.19,2723.9 2983.74,2710.6 3016.61,2697.17C3036.85,2692.61 3066.95,2674.29 3084.91,2663.64ZM3260.2,2824.63L3256.95,2825.46C3273.86,2763.99 3263.25,2690.13 3230.8,2635.41C3224.12,2617.6 3197.11,2586.15 3181.05,2574.18C3208.2,2531.3 3212.99,2500.65 3216.15,2450.92C3257.87,2447.8 3302.35,2423.82 3329.42,2391.82C3335.44,2384.57 3340.79,2376.79 3345.4,2368.58C3425.95,2487.09 3443.53,2623.96 3367.71,2750.45L3366.63,2747.04C3370.28,2685.58 3358.64,2615.01 3327.47,2561.09C3328.88,2585.89 3330.35,2611.8 3328.13,2636.49C3322.78,2695.92 3293.52,2774.57 3260.2,2824.63ZM2892.84,1715.49C2923.93,1724.66 2920.26,1776.38 2889.41,1792.08L2888.35,1791.88C2848.37,1784.36 2866.75,1731.05 2892.84,1715.49ZM2305.95,1728.43C2341.53,1732.36 2351.29,1750.25 2341.26,1784.21C2337.55,1787.09 2333.1,1790.57 2328.93,1792.65C2319.44,1797.35 2308.45,1798.01 2298.46,1794.5C2289.9,1791.39 2283.06,1784.81 2279.63,1776.37C2270.23,1753.6 2284.6,1735.67 2305.95,1728.43ZM2159.01,1770.6C2168.82,1763.55 2183.94,1756.38 2195.08,1750.7C2197.7,1777.22 2206.21,1812.46 2219.36,1836.92C2245.23,1885.07 2313.24,1890.76 2359.85,1874.25C2366.22,1871.99 2382.39,1859.79 2389.38,1855.44L2390.13,1859.07C2388.37,1867 2387.65,1877.23 2382.88,1881.89L2385.44,1881.11C2380.6,1884.71 2372.74,1883.69 2366.25,1883.66C2362.31,1884.65 2346.08,1892.15 2341.57,1893.99C2240.3,1935.39 2167.81,1873.65 2159.01,1770.6Z" style="fill:rgb(247,231,212);"/>
        <path d="M2511.32,2022.46C2565.15,1977.65 2601.81,1968.68 2668.61,1992.08C2589.23,1986.95 2521.11,2041.32 2459.96,2088.63C2466.52,2076.27 2471.27,2066.94 2479.39,2055.51C2486.98,2043.22 2500.33,2031.69 2511.32,2022.46Z" style="fill:rgb(215,173,95);" data-color="color-1"/>
        <path d="M2916.75,2550.28C2909.27,2565.01 2899.5,2579.62 2889.75,2592.95C2889.84,2592.94 2856.58,2598.18 2860.3,2594.66C2854.53,2600.12 2853.73,2605.81 2845.89,2606.18L2845.84,2607.28C2850.06,2609.05 2850.92,2609.17 2855.6,2608.33L2857.99,2611.19L2857.58,2615.27C2843.84,2624.72 2841.66,2621.04 2839.86,2638.33L2835.65,2641.76C2821.85,2635.26 2827.72,2629.84 2810.72,2635.66C2806.24,2634.22 2806.6,2634.1 2803.75,2630.24C2808,2617.19 2834.55,2605.36 2834.95,2599.26L2834.52,2598.55C2860,2579.27 2883.63,2560.52 2906.96,2538.68C2918.33,2526.56 2929.42,2514.17 2940.21,2501.53C2937.01,2509.72 2933.5,2517.79 2929.71,2525.72C2925.71,2534.07 2921.39,2542.26 2916.75,2550.28ZM2845.83,2607.41L2845.78,2608.56L2848.19,2609.4L2845.83,2607.41ZM3027.28,2905.49C3029.06,2898.47 3030.72,2891.74 3032.53,2885.06C3034.44,2878.01 3036.53,2871.01 3039.1,2863.79C3039.28,2870.87 3039.49,2877.94 3039.67,2885C3039.7,2886.28 3039.73,2887.55 3039.76,2888.82C3040.12,2903.91 3040.34,2918.99 3039.98,2934.11C3036.72,2922.18 3039.04,2911.62 3035.11,2897.35L3032.97,2897.77L3030.09,2906.17L3027.28,2905.49ZM2390.13,1859.07C2388.37,1867 2387.65,1877.23 2382.88,1881.89L2385.44,1881.11C2380.6,1884.71 2372.74,1883.69 2366.25,1883.66C2370.31,1880.03 2374.27,1876.1 2378.13,1872.07C2382.24,1867.79 2386.24,1863.38 2390.13,1859.07ZM1960.62,1673.57L1962.36,1677.15L1956.86,1684.81L1957.56,1686.79C1962.66,1685.53 1960.58,1686.84 1963.47,1682.1L1965.14,1684.67C1967.33,1685.66 1976.32,1688.64 1977.23,1689.3C1969.03,1693.63 1946.06,1706.91 1938.48,1707.12C1944.56,1695.31 1951.67,1683.38 1960.62,1673.57Z" style="fill:rgb(33,33,64);" data-color="color-2"/>
    </g>
</svg>
