<svg width="100%" height="100%" viewBox="0 0 941 766" version="1.1" xmlns="http://www.w3.org/2000/svg" xmlns:xlink="http://www.w3.org/1999/xlink" xml:space="preserve" xmlns:serif="http://www.serif.com/" style="fill-rule:evenodd;clip-rule:evenodd;stroke-linejoin:round;stroke-miterlimit:2;">
    <g transform="matrix(1,0,0,1,-29.0923,-135.128)">
        <path d="M118.432,534.1C116.278,532.557 112.934,529.249 109.635,524.701C105.479,518.97 100.426,510.512 98.307,507.101L98.289,507.071C91.456,495.985 84.543,484.949 77.546,473.96L77.544,473.957C72.472,465.983 67.344,458.045 62.137,450.106C60.355,447.43 53.538,437.421 50.51,432.209C48.505,428.757 47.483,425.943 47.128,424.604C44.23,413.667 42.459,399.814 41.023,388.563C41.023,388.563 35.26,344.361 35.26,344.361C34.191,336.487 33.033,328.625 31.781,320.751L31.777,320.724C30.532,312.76 28.982,303.925 29.099,295.952L29.171,290.969L31.574,286.602C39.805,271.646 56.893,253.179 68.309,240.457C79.244,228.272 89.76,215.68 100.627,203.441C105.335,198.138 109.934,193.275 114.411,188.222C113.323,186.985 112.266,185.784 111.281,184.647L89.506,159.507L121.92,152.06C150.998,145.38 185.863,139.624 215.524,135.458C218.611,135.003 221.688,135.033 224.78,135.461C237.296,137.196 288.634,153.572 322.306,166.509C338.686,172.803 351.188,178.789 355.205,181.882C360.827,186.211 368.368,197.168 372.916,203.129C372.916,203.129 388.389,223.288 388.389,223.288C407.639,219.516 427.641,217.083 446.764,213.751C446.764,213.751 476.336,208.544 476.336,208.544C480.889,207.731 496.194,205.283 499.619,205.567C510.561,206.474 523.448,209.042 534.464,210.801C558.991,214.714 584.511,218.661 609.149,223.359C615.931,214.572 624.203,202.169 631.717,193.163C638.509,185.022 645.34,179.154 650.55,176.613C663.982,170.063 689.058,161.737 704.131,156.413C714.77,152.609 725.436,148.883 736.129,145.235C747.73,141.27 761.124,136.835 773.406,135.29C777.318,134.798 791.527,136.608 795.98,137.289L796.001,137.292C809.379,139.369 822.718,141.681 836.05,144.233C850.71,146.905 864.709,148.098 879.025,153.079L907.444,162.966L887.325,185.341C886.328,186.45 885.317,187.582 884.294,188.724C886.395,191.09 888.36,193.291 889.771,194.929C904.883,212.474 920.529,229.67 935.807,247.121C947.826,260.848 956.124,268.237 966.176,284.751L969.187,289.698L969.089,295.488C968.983,301.706 967.206,315.567 966.455,322.101L961.147,366.508L961.137,366.587C959.452,379.785 957.551,392.956 955.452,406.099L955.451,406.103C954.981,409.036 951.921,424.63 951.09,426.412C948.705,431.584 942.43,440.631 938.987,445.909L924.041,469.307C924.041,469.307 902.297,503.453 902.289,503.465C897.598,510.981 890.533,523.586 884.583,529.9C881.909,532.737 869.294,539.742 865.153,542.149L836.361,558.926L836.349,558.933C831.666,561.653 826.384,564.563 821.542,567.657C821.035,572.612 820.625,578.337 820.347,581.42C818.844,598.343 817.568,615.285 816.518,632.289L816.515,632.336C815.972,640.501 814.935,659.532 812.514,666.996C812.097,668.28 810.754,671.499 807.801,675.284C804.372,679.677 796.39,688.524 794.341,690.839L794.338,690.842C780.262,706.736 766.065,722.522 751.563,738.396L751.377,738.589C740.127,750.257 729.321,765.536 717.499,776.464C710.063,783.338 695.546,790.814 686.676,796.591C676.315,803.338 665.565,809.902 655.166,817.008L655.007,817.112C645.978,823.032 635.79,828.73 627.283,835.337C623.257,838.464 619.583,844.109 615.672,849.063C611.297,854.604 606.795,859.664 602.397,863.117C601.556,863.778 599.147,865.42 595.39,866.913C590.965,868.672 581.279,871.913 579.141,872.676L534.09,888.758C525.173,891.946 513.318,897.219 504.683,899.508L499.419,900.904L494.174,899.438C485.903,897.125 477.573,893.811 469.436,890.949L429.859,877.094L429.797,877.072C422.337,874.406 403.862,868.485 398.101,865.432L396.928,864.811L395.848,864.04C391.053,860.619 386.26,855.192 381.795,849.117C378.526,844.667 375.836,839.362 372.459,836.982C350.963,821.833 327.785,809.196 306.136,794.272C299.213,789.499 287.349,782.998 281.439,777.595C274.826,771.549 267.107,761.521 260.92,754.59C260.92,754.59 232.094,722.436 232.094,722.436C227.473,717.373 195.704,682.64 189.103,673.729C185.146,668.387 184.373,663.986 184.181,662.506C182.015,645.751 179.081,594.835 177.245,568.608C176.809,568.357 176.374,568.108 175.941,567.859C160.46,558.961 145.405,549.301 129.674,540.847C126.175,538.966 122.348,536.902 119.082,534.57C119.082,534.57 118.431,534.099 118.432,534.1ZM616.684,245.227C588.829,239.555 559.412,235.035 531.312,230.551C520.767,228.868 508.438,226.367 497.965,225.498C495.285,225.276 483.331,227.61 479.817,228.239L450.211,233.452C427.201,237.461 402.889,240.108 380.228,245.502L357.031,215.281C353.34,210.446 347.571,201.246 343.003,197.728C331.734,189.052 239.117,157.639 222.034,155.272C220.831,155.105 219.634,155.068 218.432,155.246C189.227,159.347 154.966,164.989 126.398,171.552C130.785,176.617 136.464,182.883 140.353,188.159C132.484,198.632 124.228,206.982 115.583,216.719C104.693,228.985 94.153,241.603 83.195,253.815C72.659,265.556 56.693,282.441 49.096,296.245C48.996,303.134 50.452,310.757 51.537,317.636C52.8,325.653 53.994,333.68 55.085,341.721L60.859,386.003C62.192,396.448 63.77,409.326 66.462,419.482C67.1,421.893 76.858,436.122 78.85,439.119C84.095,447.117 89.284,455.153 94.419,463.222C101.463,474.291 108.431,485.408 115.315,496.577C118.11,501.077 126.47,515.258 130.077,517.84L130.751,518.327C133.303,520.148 136.367,521.738 139.143,523.23C155.04,531.775 170.262,541.526 185.907,550.519C189.44,552.55 193.044,554.61 196.419,556.875C198.085,576.687 201.542,640.8 204.016,659.942C204.361,662.61 242.187,703.826 246.925,709.017L275.829,741.259C281.612,747.736 288.752,757.181 294.934,762.834C300.303,767.742 311.199,773.47 317.488,777.806C339.193,792.769 362.428,805.445 383.981,820.634C391.957,826.256 399.169,841.841 407.465,847.76C412.736,850.553 429.703,855.799 436.529,858.239L476.062,872.078C483.794,874.798 491.699,877.979 499.558,880.176C507.73,878.01 518.92,872.942 527.359,869.925L572.42,853.839C574.983,852.925 588.859,848.318 590.047,847.386C598.356,840.863 606.508,826.149 615.016,819.541C623.933,812.616 634.577,806.591 644.04,800.387C654.404,793.306 665.278,786.659 675.762,779.831C683.822,774.582 697.166,768.024 703.923,761.778C715.478,751.096 725.983,736.112 736.979,724.708C751.229,709.109 765.362,693.403 779.365,677.583C781.77,674.866 792.922,662.577 793.49,660.825C795.569,654.413 796.092,638.024 796.559,631.009C797.617,613.873 798.894,596.751 800.425,579.65C800.918,574.153 801.888,561.338 802.97,556.248C809.787,550.971 818.728,546.039 826.304,541.638L855.097,524.861C858.205,523.054 868.017,518.317 870.027,516.184C875.263,510.628 881.265,499.37 885.378,492.787L907.178,458.552L922.185,435.06C925.185,430.456 930.825,422.572 932.928,418.037C933.563,416.667 935.358,405.099 935.703,402.94C937.771,390.009 939.64,377.044 941.298,364.055L946.591,319.772C947.283,313.756 948.994,300.914 949.091,295.15C939.755,279.811 931.924,273.047 920.76,260.296C905.445,242.805 889.764,225.567 874.617,207.982C870.273,202.937 861.086,192.872 857.563,187.961C862.647,183.093 867.708,177.246 872.453,171.968C859.104,167.324 846.017,166.386 832.344,163.887C819.248,161.379 806.112,159.087 792.933,157.056C789.579,156.538 778.863,154.762 775.9,155.134C764.915,156.515 752.971,160.618 742.594,164.161C731.978,167.786 721.387,171.483 710.824,175.259C696.355,180.371 672.223,188.295 659.317,194.59C647.737,200.238 627.648,234.42 616.684,245.227ZM771.893,179.924C790.644,181.701 810.109,185.343 829.317,187.144C859.912,224.483 891.194,261.254 923.147,297.437C923.739,304.587 922.937,317.148 922.554,324.374L920.613,360.95C920.084,370.994 919.429,381.032 918.648,391.06C918.337,395.557 918.464,400.779 917.531,405.14C916.653,409.245 873.767,473.781 868.216,482.334C865.37,486.72 862.877,491.351 859.965,495.687C859.241,496.765 858.439,498.066 857.311,498.745L802.75,530.899C797.138,534.252 785.328,540.592 781.102,544.693C779.625,580.843 777.577,616.967 774.96,653.052C767.563,659.918 759.481,669.75 752.669,677.445L713.404,721.281C707.219,728.152 699.913,736.521 693.673,743.15C690.384,746.644 676.189,755.437 671.529,758.431L626.675,787.151C620.902,790.775 611.075,795.983 605.975,799.755C597.56,805.98 589.669,822.878 581.47,829.658C580.578,830.395 572.161,833.336 570.411,833.963C563.066,836.593 555.695,839.149 548.299,841.63L519.152,851.338C512.674,853.519 505.196,856.25 498.678,858.067C491.225,855.843 481.687,852.341 474.039,849.817C454.471,843.39 434.974,836.743 415.554,829.878C407.983,820.917 401.254,809.097 392.888,800.817C390.163,798.12 382.313,794.85 378.538,792.425L328.188,759.794C322.139,755.797 314.353,751.143 308.723,746.995C304.212,743.672 296.664,734.773 292.653,730.278C285.232,721.87 277.736,713.529 270.166,705.255C255.383,687.845 238.415,669.692 223.121,652.303C221.928,640.135 222.089,627.431 220.82,615.376C218.324,591.663 218.763,568.499 217.964,544.865C214.519,541.443 201.145,533.953 196.154,530.985L153.035,505.462C148.839,502.959 142.843,500.691 139.32,497.468C135.7,494.154 119.396,466.298 115.49,460.173C108.583,449.343 101.597,438.494 94.487,427.799C90.449,421.725 85.201,415.261 82.166,408.663C77.507,398.534 75.516,314.045 75.34,298.565C77.612,294.641 82.71,289.167 85.93,285.664C115.007,254.028 140.991,219.588 169.045,187.114C174.014,186.157 179.541,185.891 185.204,185.116C197.901,183.379 212.737,180.85 225.464,180.376C230.694,181.416 237.459,184.273 242.391,185.711C267.53,193.041 292.276,201.229 316.613,210.894C319.079,211.874 328.76,215.219 330.239,216.717C335.096,221.634 339.495,228.418 343.889,233.894C352.705,245.098 361.522,257.484 370.684,268.295C378.368,267.853 396.509,263.976 405.107,262.487L473.742,250.955C478.004,250.258 495.912,246.761 498.639,246.855C505.556,247.092 521.384,250.542 529.007,251.803L627.308,268.338C630.506,264.973 633.532,260.671 636.523,257.011C647.226,243.913 656.659,229.531 667.738,216.785C669.407,214.866 679.021,211.688 681.842,210.576C697.278,204.492 712.934,198.708 728.754,193.694C742.801,188.984 758.183,185.294 771.893,179.924ZM376.533,687.515C388.973,702.273 399.459,723.732 408.795,740.896C429.739,734.575 449.142,727.242 469.418,719.065C472.668,717.754 476.109,716.735 479.14,714.97C472.92,708.075 464.792,702.812 458.657,696.869C449.279,687.787 432.485,675.477 423.864,666.906C412.621,655.729 418.741,623.208 419.346,607.574C419.608,606.694 420.411,601.956 420.689,600.631C421.854,595.08 423.151,589.4 424.205,583.841C427.456,568.372 431.786,545.957 431.718,530.249C429.656,527.877 427.608,525.243 425.627,522.779C414.083,529.318 416.004,532.154 400.851,534.667C387.358,536.906 382.93,537.108 369.724,531.06C368.438,530.471 361.757,527.59 361.023,526.766C355.338,520.385 349.649,508.321 346.73,500.251C346.006,498.247 345.791,495.238 345.656,493.418C345.555,487.825 346.983,481.133 345.461,475.739C344.219,471.34 320.043,434.189 315.584,429.055C322.234,431.421 336.986,439.633 343.829,443.215L396.847,471.096C407.394,476.64 419.256,482.716 429.854,488.271C432.09,489.443 438.101,498.886 439.877,501.522C441.583,500.222 444.108,498.412 445.492,496.768C456.505,483.674 469.615,470.756 479.913,457.263C483.794,452.177 487.079,437.392 489.066,430.621C492.308,419.535 495.618,408.468 498.993,397.422C502.175,408.455 514.974,452.471 520.558,460.101C528.268,470.639 549.36,490.229 558.142,503.857C566.892,484.452 572.337,486.119 589.916,476.693L638.765,451.092C652.268,443.992 668.458,435.217 682.27,429.016C672.689,444.968 661.447,460.341 652.222,476.097C652.76,481.424 653.216,486.759 653.589,492.102C652.333,499.167 642.744,521.919 637.015,525.524C622.694,534.536 610.566,538.066 593.799,534.135C585.715,532.239 579.042,526.569 572.46,521.964C570.016,524.781 567.854,527.269 566.006,530.536C567.719,550.105 571.091,565.698 574.411,584.972C575.837,593.326 577.458,602.055 578.696,610.4C580.36,623.375 583.601,652.431 576.436,664.727C575.59,666.178 566.004,673.917 564.017,675.565C555.279,682.746 546.644,690.052 538.118,697.481C533.15,701.738 522.9,710.086 519.502,715.088C541.972,724.09 565.415,733.737 588.498,740.756C595.606,728.546 601.254,715.13 609.006,703.141C612.634,697.53 615.917,691.163 620.606,686.306C626.34,695.036 623.526,713.845 624.069,724.435C624.542,733.665 622.049,744.15 622.123,753.317L625.906,749.457C630.43,746.431 634.657,742.849 638.979,739.537C648.691,732.092 658.074,724.75 667.225,716.595C675.707,709.036 684.444,701.475 692.585,693.551C699.935,686.397 706.85,678.793 714.195,671.624C720.332,665.635 741.548,646.463 744.311,639.998C746.841,634.076 752.173,585.462 752.65,577.128C752.877,572.262 753.065,567.351 752.393,562.512C748.97,537.833 744.024,513.248 739.765,488.727L734.224,456.281C729.948,431.243 729.24,427.87 715.175,406.534C710.343,399.261 705.549,391.963 700.794,384.639L684.954,360.384C680.713,353.914 676.643,347.173 671.449,341.454L670.914,340.866C672.875,335.723 677.055,328.995 679.942,324.061L695.308,297.836C696.837,295.177 708.875,273.077 709.779,272.542C723.009,264.685 740.448,259.807 754.782,253.625C763.99,249.654 789.731,253.097 800.259,254.411C777.668,267.788 758.648,278.053 736.242,292.411C752.552,307.068 768.561,323.08 783.113,339.441C787.878,344.801 794.231,350.441 798.528,355.996C800.635,366.157 802.647,394.856 802.289,405.088C793.646,418.304 784.103,431.045 775.484,444.265C773.103,447.916 768.883,454.037 767.029,457.776C767.797,466.48 774.949,494.467 777.872,503.078C782.918,498.058 788.341,490.115 793.302,484.387C809.903,465.217 823.552,451.028 836.901,429.385C838.214,436.622 841.91,458.785 844.061,464.53C850.257,454.991 855.058,443.056 861.088,433.622C874.396,412.805 878.128,391.47 885.907,368.43C868.573,349.514 853.029,328.706 834.289,311.029C830.346,307.31 826.131,303.96 822.439,299.975C834,302.673 846.722,304.802 858.498,306.783C868.47,308.46 887.259,312.698 897.006,313.013C894.067,308.65 880.796,295.292 876.374,290.492L829.363,238.933C822.906,231.876 811.439,220.702 806.103,213.778C798.273,212.945 778.658,209.876 771.906,210.925C768.318,211.482 693.052,242.876 690.372,244.934C686.921,247.584 682.933,254.046 680.179,257.606L656.534,287.811C652.945,292.428 645.167,302.986 641.176,306.585C632.808,305.253 623.497,302.961 615.005,301.33C586.483,295.637 557.922,290.146 529.322,284.858C524.266,283.962 503.319,279.476 499.948,279.654C489.805,280.187 471.422,284.184 461.023,286.141L379.511,301.941C371.869,303.45 364.353,305.343 356.696,306.768C350.6,299.466 345.037,291.708 339.198,284.199C332.238,275.245 324.988,266.467 317.876,257.631C314.584,253.542 311.901,248.376 307.99,244.881C305.707,242.841 241.896,216.462 233.554,213.321C230.67,212.236 227.416,210.928 224.322,210.676C218.779,210.226 197.066,212.723 191.357,214.03C186.875,218.556 183.041,223.644 178.765,228.11C169.075,238.233 159.979,249.078 150.53,259.303C139.515,271.09 128.571,282.943 117.698,294.862C113.094,299.855 104.822,307.742 101.582,313.114C107.663,312.6 115.349,311.188 121.469,310.202C134.541,308.045 147.588,305.735 160.606,303.272C165.609,302.317 171.897,300.824 176.763,300.109C167.7,306.667 162.846,312.614 155.274,320.365C140.212,335.782 126.897,352.862 112.662,368.788C117.575,382.173 120.724,397.391 125.764,410.862C127.58,415.715 132.148,423.845 134.73,428.743C140.866,440.557 147.272,452.228 153.943,463.748C158.384,451.554 158.378,441.187 161.504,430.409C164.783,435.768 168.864,442.748 172.693,447.646C182.51,460.204 193.449,472.217 203.827,484.35C208.958,490.349 214.196,497.641 219.525,503.184C223.68,494.834 230.97,468.308 231.606,458.745C225.802,445.895 212.899,430.043 204.968,418.206C202.473,414.482 198.006,408.875 196.091,405.072C196.234,395.042 197.137,365.027 200.338,356.827C202.446,351.43 233.034,320.372 239.249,314.331C246.963,306.836 254.602,298.982 262.956,292.205C241.924,278.534 220.222,265.923 197.931,254.419C205.855,253.744 213.783,253.116 221.714,252.536C223.801,252.367 235.072,251.157 236.773,251.627C249.389,255.109 277.639,266.636 287.976,272.186C289.884,273.211 303.006,297.703 304.752,301.034C310.583,312.153 323.181,330.547 327.116,341.344C320.625,347.449 312.491,361.595 307.351,369.473L285.687,402.316C281.464,408.783 273.44,420.051 270.19,426.546C268.52,429.887 265.416,446.691 264.568,451.25C261.845,466.12 259.209,481.005 256.659,495.904C254.524,507.976 252.309,520.034 250.014,532.077C247.529,545.04 244.69,559.017 244.194,572.24C243.92,579.548 245.745,589.463 246.675,596.976C248.482,611.215 250.075,625.481 251.452,639.767C258.156,648.025 270.009,657.597 277.813,665.404C297.616,685.218 317.822,704.739 338.923,723.169C346.622,729.894 355.041,736.222 363.056,742.566C367.518,746.097 371.751,749.726 376.344,753.105C372.758,736.095 374.647,716.857 374.016,699.476C373.854,694.997 374.09,691.392 376.533,687.515ZM497.772,738.481C487.107,742.263 475.282,745.607 464.992,749.441C449.349,755.27 434.884,761.263 418.613,765.892C424.285,776.625 429.298,787.472 434.505,798.429C435.686,800.915 437.086,803.898 438.481,806.249C444.744,810.152 493.413,824.374 499.295,824.354C503.829,823.878 522.377,818.202 527.568,816.546C535.091,814.145 552.604,809.587 559.143,806.455C562.553,799.545 566.025,792.646 569.393,785.72C572.537,779.257 575.313,772.428 578.685,766.09C567.079,761.924 503.688,738.109 497.772,738.481ZM630.942,482.115C617.96,489.064 605.321,496.596 592.337,503.53C589.997,504.78 587.525,505.998 585.258,507.351C587.378,508.484 589.906,509.912 592.036,510.92C606.873,518.542 613.06,514.482 625.833,506.343C628.379,501.429 632.905,487.223 631.64,482.376L630.942,482.115ZM446.548,629.307C445.268,636.294 443.57,647.787 443.632,654.889C452.737,664.195 459.08,666.42 469.569,672.87L470.283,673.142C471.321,671.324 469.882,661.045 468.959,658.955C464.228,648.243 454.224,637.53 446.548,629.307ZM365.852,482.442C366.802,488.464 368.606,503.913 374.103,507.654C386.415,516.035 394.432,516.764 407.948,510.173L411.893,508.108C405.533,503.104 392.489,496.804 385.017,492.643C380.595,490.18 370.205,484.323 365.852,482.442ZM550.914,627.641C544.671,634.048 522.453,662.25 527.592,671.842C528.395,671.744 528.12,671.888 528.5,671.638C537.721,664.953 543.94,665.2 552.196,655.7C552.701,649.969 552.837,633.446 551.172,627.903L550.914,627.641Z" style="fill:rgb(0,20,46);" data-color='color-1'/>
        <g transform="matrix(0.886659,0,0,0.886659,45.5509,51.7754)">
            <path d="M373.291,717.006C370.536,721.379 370.27,725.445 370.453,730.496C371.164,750.099 369.034,771.796 373.078,790.98C367.898,787.17 363.124,783.077 358.092,779.094C349.052,771.939 339.557,764.802 330.874,757.218C307.075,736.432 284.287,714.416 261.952,692.069C253.151,683.264 239.782,672.468 232.221,663.155C230.668,647.042 228.872,630.953 226.834,614.894C225.785,606.42 223.727,595.238 224.036,586.995C224.595,572.082 227.797,556.318 230.6,541.698C233.188,528.116 235.686,514.517 238.094,500.902C240.97,484.098 243.943,467.31 247.014,450.539C247.97,445.398 251.471,426.445 253.355,422.678C257.02,415.352 266.07,402.644 270.833,395.35L295.266,358.309C301.063,349.424 310.237,333.47 317.557,326.584C313.119,314.407 298.911,293.662 292.335,281.121C290.365,277.364 275.566,249.742 273.414,248.586C261.756,242.326 229.895,229.326 215.666,225.398C213.747,224.869 201.036,226.233 198.682,226.424C189.737,227.078 180.796,227.786 171.859,228.547C196.999,241.522 221.475,255.745 245.196,271.164C235.774,278.807 227.158,287.665 218.459,296.118C211.449,302.931 176.951,337.959 174.574,344.046C170.963,353.295 169.945,387.146 169.784,398.458C171.943,402.747 176.981,409.071 179.795,413.271C188.74,426.622 203.292,444.5 209.838,458.992C209.121,469.778 200.899,499.695 196.213,509.112C190.203,502.86 184.295,494.636 178.508,487.871C166.804,474.187 154.467,460.638 143.395,446.475C139.076,440.951 134.474,433.078 130.775,427.034C127.25,439.19 127.257,450.882 122.248,464.635C114.724,451.642 107.499,438.479 100.579,425.155C97.667,419.631 92.515,410.462 90.467,404.988C84.782,389.795 81.231,372.632 75.69,357.536C91.745,339.574 106.762,320.311 123.749,302.923C132.289,294.181 137.763,287.474 147.985,280.078C142.497,280.884 135.405,282.568 129.763,283.645C115.081,286.423 100.366,289.029 85.622,291.461C78.72,292.573 70.052,294.166 63.193,294.746C66.848,288.687 76.177,279.792 81.369,274.16C93.633,260.718 105.976,247.35 118.399,234.056C129.055,222.524 139.314,210.292 150.243,198.875C155.065,193.838 159.389,188.1 164.444,182.995C170.883,181.522 195.372,178.705 201.623,179.213C205.113,179.497 208.783,180.972 212.035,182.196C221.444,185.738 293.412,215.489 295.987,217.79C300.398,221.732 303.424,227.558 307.136,232.17C315.157,242.136 323.334,252.036 331.184,262.134C337.769,270.603 344.044,279.353 350.919,287.588C359.555,285.981 368.031,283.846 376.65,282.144L468.582,264.325C480.31,262.117 501.043,257.609 512.483,257.008C516.284,256.808 539.909,261.867 545.612,262.878C577.867,268.841 610.079,275.034 642.247,281.455C651.825,283.295 662.326,285.88 671.764,287.382C676.265,283.323 685.037,271.415 689.085,266.208L715.752,232.142C718.859,228.127 723.356,220.839 727.249,217.85C730.271,215.529 815.158,180.122 819.205,179.494C826.82,178.311 848.942,181.772 857.773,182.711C863.791,190.52 876.724,203.123 884.007,211.082L937.027,269.232C942.014,274.645 956.982,289.711 960.297,294.631C949.303,294.276 928.113,289.496 916.866,287.605C903.585,285.371 889.236,282.97 876.198,279.927C880.361,284.421 885.115,288.199 889.562,292.394C910.698,312.331 928.229,335.798 947.779,357.132C939.005,383.118 934.796,407.18 919.787,430.658C912.986,441.298 907.571,454.758 900.584,465.517C898.158,459.037 893.989,434.041 892.508,425.879C877.453,450.289 862.059,466.292 843.336,487.912C837.741,494.372 831.625,503.331 825.934,508.992C822.637,499.281 814.571,467.716 813.705,457.9C815.796,453.683 820.555,446.779 823.24,442.661C832.961,427.752 843.724,413.382 853.472,398.477C853.876,386.936 851.606,354.569 849.23,343.109C844.384,336.844 837.219,330.483 831.844,324.438C815.432,305.985 797.377,287.927 778.982,271.396C804.252,255.203 825.703,243.625 851.182,228.538C839.308,227.056 810.277,223.173 799.892,227.652C783.726,234.624 764.057,240.126 749.136,248.987C748.117,249.591 734.54,274.516 732.816,277.515L715.485,307.092C712.229,312.657 707.515,320.244 705.303,326.045L705.906,326.708C711.764,333.158 716.355,340.761 721.138,348.058L739.003,375.414C744.365,383.674 749.772,391.905 755.222,400.107C771.085,424.171 771.884,427.975 776.706,456.213L782.955,492.807C787.759,520.462 793.337,548.19 797.198,576.024C797.955,581.481 797.744,587.02 797.488,592.508C780.346,613.103 768.07,636.066 758.009,660.789C753.868,670.965 750.235,673.104 742.41,680.481C737.879,684.777 733.448,689.176 729.121,693.677C706.362,717.22 685.669,742.001 665.266,767.641C662.243,771.44 654.8,782.034 654.542,786.866L650.275,791.219C650.192,780.881 653.004,769.055 652.47,758.646C651.858,746.702 655.031,725.488 648.564,715.643C647.203,711.596 643.175,705.326 641.1,701.265C637.813,694.834 634.501,688.221 631.057,681.877C627.171,675.373 622.824,667.162 619.007,660.86C616.21,656.242 604.661,631.892 601.297,630.033C599.901,620.622 598.073,610.777 596.464,601.355C602.787,589.278 608.648,579.435 617.394,568.83C627.863,568.916 637.983,572.826 647.899,571.898C649.823,571.718 658.569,567.5 661.799,565.902C669.171,562.256 681.853,559.477 687.656,553.215C696.705,535.558 705.046,510.896 711.825,492.454L711.221,492.505C704.526,493.108 693.487,494.763 686.508,495.727C686.26,496.022 686.011,496.318 685.763,496.613C685.343,490.588 684.829,484.57 684.222,478.562C694.626,460.792 707.305,443.454 718.111,425.463C702.533,432.457 684.274,442.353 669.044,450.361L613.951,479.235C594.125,489.866 587.984,487.986 578.115,509.871C568.211,494.501 544.423,472.407 535.727,460.522C529.429,451.916 514.994,402.274 511.406,389.831C507.599,402.289 503.866,414.77 500.209,427.273C497.968,434.91 494.264,451.585 489.886,457.321C478.272,472.539 463.486,487.108 451.065,501.876C449.505,503.73 446.657,505.771 444.733,507.238C442.73,504.265 435.95,493.614 433.429,492.293C421.476,486.028 408.097,479.175 396.202,472.922L336.407,441.477C328.689,437.437 312.052,428.176 304.551,425.507C309.58,431.297 336.847,473.198 338.247,478.159C339.964,484.242 338.353,491.79 338.467,498.098C338.122,496.688 338.024,494.71 336.949,494.516C330.279,493.312 319.08,491.045 312.718,490.811C313.362,498.319 327.895,545.437 332.472,551.274C334.646,554.047 371.017,568.981 376.852,571.46C379.595,572.625 401.395,568.907 407.029,567.951C412.176,574.996 415.863,580.561 420.178,588.218C421.532,590.62 425.597,598.01 427.057,600.08C425.869,606.349 424.406,612.755 423.092,619.016C422.778,620.51 421.873,625.854 421.577,626.846C418.034,629.811 410.857,646.209 408.129,651.35C401.369,664.091 393.496,676.249 387.352,689.269C382.98,699.296 378.786,707.603 373.291,717.006Z" style="fill:rgb(157,157,157);" data-color='color-2'/>
        </g>
        <path d="M616.684,245.227C627.648,234.42 647.737,200.238 659.317,194.59C672.223,188.295 696.355,180.371 710.824,175.259C721.387,171.483 731.978,167.786 742.594,164.161C752.971,160.618 764.915,156.515 775.9,155.134C778.863,154.762 789.579,156.538 792.933,157.056C806.112,159.087 819.248,161.379 832.344,163.887C846.017,166.386 859.104,167.324 872.453,171.968C867.708,177.246 862.647,183.093 857.563,187.961C861.086,192.872 870.273,202.937 874.617,207.982C889.764,225.567 905.445,242.805 920.76,260.296C931.924,273.047 939.755,279.811 949.091,295.15C948.994,300.914 947.283,313.756 946.591,319.772L941.298,364.055C939.64,377.044 937.771,390.009 935.703,402.94C935.358,405.099 933.563,416.667 932.928,418.037C930.825,422.572 925.185,430.456 922.185,435.06L907.178,458.552L885.378,492.787C881.265,499.37 875.263,510.628 870.027,516.184C868.017,518.317 858.205,523.054 855.097,524.861L826.304,541.638C818.728,546.039 809.787,550.971 802.97,556.248C801.888,561.338 800.918,574.153 800.425,579.65C798.894,596.751 797.617,613.873 796.559,631.009C796.092,638.024 795.569,654.413 793.49,660.825C792.922,662.577 781.77,674.866 779.365,677.583C765.362,693.403 751.229,709.109 736.979,724.708C725.983,736.112 715.478,751.096 703.923,761.778C697.166,768.024 683.822,774.582 675.762,779.831C665.278,786.659 654.404,793.306 644.04,800.387C634.577,806.591 623.933,812.616 615.016,819.541C606.508,826.149 598.356,840.863 590.047,847.386C588.859,848.318 574.983,852.925 572.42,853.839L527.359,869.925C518.92,872.942 507.73,878.01 499.558,880.176C491.699,877.979 483.794,874.798 476.062,872.078L436.529,858.239C429.703,855.799 412.736,850.553 407.465,847.76C399.169,841.841 391.957,826.256 383.981,820.634C362.428,805.445 339.193,792.769 317.488,777.806C311.199,773.47 300.303,767.742 294.934,762.834C288.752,757.181 281.612,747.736 275.829,741.259L246.925,709.017C242.187,703.826 204.361,662.61 204.016,659.942C201.542,640.8 198.085,576.687 196.419,556.875C193.044,554.61 189.44,552.55 185.907,550.519C170.262,541.526 155.04,531.775 139.143,523.23C136.367,521.738 133.303,520.148 130.751,518.327L130.077,517.84C126.47,515.258 118.11,501.077 115.315,496.577C108.431,485.408 101.463,474.291 94.419,463.222C89.284,455.153 84.095,447.117 78.85,439.119C76.858,436.122 67.1,421.893 66.462,419.482C63.77,409.326 62.192,396.448 60.859,386.003L55.085,341.721C53.994,333.68 52.8,325.653 51.537,317.636C50.452,310.757 48.996,303.134 49.096,296.245C56.693,282.441 72.659,265.556 83.195,253.815C94.153,241.603 104.693,228.985 115.583,216.719C124.228,206.982 132.484,198.632 140.353,188.159C136.464,182.883 130.785,176.617 126.398,171.552C154.966,164.989 189.227,159.347 218.432,155.246C219.634,155.068 220.831,155.105 222.034,155.272C239.117,157.639 331.734,189.052 343.003,197.728C347.571,201.246 353.34,210.446 357.031,215.281L380.228,245.502C402.889,240.108 427.201,237.461 450.211,233.452L479.817,228.239C483.331,227.61 495.285,225.276 497.965,225.498C508.438,226.367 520.767,228.868 531.312,230.551C559.412,235.035 588.829,239.555 616.684,245.227ZM771.893,179.924C758.183,185.294 742.801,188.984 728.754,193.694C712.934,198.708 697.278,204.492 681.842,210.576C679.021,211.688 669.407,214.866 667.738,216.785C656.659,229.531 647.226,243.913 636.523,257.011C633.532,260.671 630.506,264.973 627.308,268.338L529.007,251.803C521.384,250.542 505.556,247.092 498.639,246.855C495.912,246.761 478.004,250.258 473.742,250.955L405.107,262.487C396.509,263.976 378.368,267.853 370.684,268.295C361.522,257.484 352.705,245.098 343.889,233.894C339.495,228.418 335.096,221.634 330.239,216.717C328.76,215.219 319.079,211.874 316.613,210.894C292.276,201.229 267.53,193.041 242.391,185.711C237.459,184.273 230.694,181.416 225.464,180.376C212.737,180.85 197.901,183.379 185.204,185.116C179.541,185.891 174.014,186.157 169.045,187.114C140.991,219.588 115.007,254.028 85.93,285.664C82.71,289.167 77.612,294.641 75.34,298.565C75.516,314.045 77.507,398.534 82.166,408.663C85.201,415.261 90.449,421.725 94.487,427.799C101.597,438.494 108.583,449.343 115.49,460.173C119.396,466.298 135.7,494.154 139.32,497.468C142.843,500.691 148.839,502.959 153.035,505.462L196.154,530.985C201.145,533.953 214.519,541.443 217.964,544.865C218.763,568.499 218.324,591.663 220.82,615.376C222.089,627.431 221.928,640.135 223.121,652.303C238.415,669.692 255.383,687.845 270.166,705.255C277.736,713.529 285.232,721.87 292.653,730.278C296.664,734.773 304.212,743.672 308.723,746.995C314.353,751.143 322.139,755.797 328.188,759.794L378.538,792.425C382.313,794.85 390.163,798.12 392.888,800.817C401.254,809.097 407.983,820.917 415.554,829.878C434.974,836.743 454.471,843.39 474.039,849.817C481.687,852.341 491.225,855.843 498.678,858.067C505.196,856.25 512.674,853.519 519.152,851.338L548.299,841.63C555.695,839.149 563.066,836.593 570.411,833.963C572.161,833.336 580.578,830.395 581.47,829.658C589.669,822.878 597.56,805.98 605.975,799.755C611.075,795.983 620.902,790.775 626.675,787.151L671.529,758.431C676.189,755.437 690.384,746.644 693.673,743.15C699.913,736.521 707.219,728.152 713.404,721.281L752.669,677.445C759.481,669.75 767.563,659.918 774.96,653.052C777.577,616.967 779.625,580.843 781.102,544.693C785.328,540.592 797.138,534.252 802.75,530.899L857.311,498.745C858.439,498.066 859.241,496.765 859.965,495.687C862.877,491.351 865.37,486.72 868.216,482.334C873.767,473.781 916.653,409.245 917.531,405.14C918.464,400.779 918.337,395.557 918.648,391.06C919.429,381.032 920.084,370.994 920.613,360.95L922.554,324.374C922.937,317.148 923.739,304.587 923.147,297.437C891.194,261.254 859.912,224.483 829.317,187.144C810.109,185.343 790.644,181.701 771.893,179.924ZM345.656,493.418C345.791,495.238 346.006,498.247 346.73,500.251C349.649,508.321 355.338,520.385 361.023,526.766C361.757,527.59 368.438,530.471 369.724,531.06C382.93,537.108 387.358,536.906 400.851,534.667C416.004,532.154 414.083,529.318 425.627,522.779C427.608,525.243 429.656,527.877 431.718,530.249C431.786,545.957 427.456,568.372 424.205,583.841C422.91,582.006 419.306,575.454 418.105,573.324C414.279,566.535 411.01,561.601 406.447,555.354C401.451,556.202 382.122,559.498 379.69,558.465C374.516,556.267 342.268,543.026 340.34,540.567C336.282,535.392 323.396,493.614 322.825,486.957C328.466,487.165 338.396,489.175 344.31,490.242C345.263,490.414 345.35,492.168 345.656,493.418ZM365.852,482.442C370.205,484.323 380.595,490.18 385.017,492.643C392.489,496.804 405.533,503.104 411.893,508.108L407.948,510.173C394.432,516.764 386.415,516.035 374.103,507.654C368.606,503.913 366.802,488.464 365.852,482.442ZM419.346,607.574C418.741,623.208 412.621,655.729 423.864,666.906C432.485,675.477 449.279,687.787 458.657,696.869C464.792,702.812 472.92,708.075 479.14,714.97C476.109,716.735 472.668,717.754 469.418,719.065C449.142,727.242 429.739,734.575 408.795,740.896C399.459,723.732 388.973,702.273 376.533,687.515C381.405,679.178 385.123,671.812 389,662.922C394.448,651.377 401.428,640.597 407.422,629.3C409.841,624.742 416.204,610.203 419.346,607.574ZM497.772,738.481C503.688,738.109 567.079,761.924 578.685,766.09C575.313,772.428 572.537,779.257 569.393,785.72C566.025,792.646 562.553,799.545 559.143,806.455C552.604,809.587 535.091,814.145 527.568,816.546C522.377,818.202 503.829,823.878 499.295,824.354C493.413,824.374 444.744,810.152 438.481,806.249C437.086,803.898 435.686,800.915 434.505,798.429C429.298,787.472 424.285,776.625 418.613,765.892C434.884,761.263 449.349,755.27 464.992,749.441C475.282,745.607 487.107,742.263 497.772,738.481ZM620.606,686.306C615.917,691.163 612.634,697.53 609.006,703.141C601.254,715.13 595.606,728.546 588.498,740.756C565.415,733.737 541.972,724.09 519.502,715.088C522.9,710.086 533.15,701.738 538.118,697.481C546.644,690.052 555.279,682.746 564.017,675.565C566.004,673.917 575.59,666.178 576.436,664.727C583.601,652.431 580.36,623.375 578.696,610.4C581.679,612.048 591.919,633.638 594.399,637.733C597.783,643.32 601.637,650.601 605.083,656.368C608.137,661.992 611.074,667.856 613.988,673.558C615.828,677.159 619.399,682.718 620.606,686.306ZM574.411,584.972C571.091,565.698 567.719,550.105 566.006,530.536C567.854,527.269 570.016,524.781 572.46,521.964C579.042,526.569 585.715,532.239 593.799,534.135C610.566,538.066 622.694,534.536 637.015,525.524C642.744,521.919 652.333,499.167 653.589,492.102C653.808,491.84 654.029,491.578 654.249,491.316C660.437,490.461 670.225,488.994 676.161,488.459L676.697,488.414C670.686,504.766 663.29,526.633 655.267,542.288C650.122,547.84 638.877,550.305 632.341,553.537C629.477,554.954 621.722,558.694 620.016,558.854C611.224,559.677 602.251,556.21 592.969,556.133C585.214,565.536 580.017,574.264 574.411,584.972ZM630.942,482.115L631.64,482.376C632.905,487.223 628.379,501.429 625.833,506.343C613.06,514.482 606.873,518.542 592.036,510.92C589.906,509.912 587.378,508.484 585.258,507.351C587.525,505.998 589.997,504.78 592.337,503.53C605.321,496.596 617.96,489.064 630.942,482.115Z" style="fill:rgb(194,194,194);" data-color='color-3'/>
        <path d="M446.548,629.307C454.224,637.53 464.228,648.243 468.959,658.955C469.882,661.045 471.321,671.324 470.283,673.142L469.569,672.87C459.08,666.42 452.737,664.195 443.632,654.889C443.57,647.787 445.268,636.294 446.548,629.307ZM550.914,627.641L551.172,627.903C552.837,633.446 552.701,649.969 552.196,655.7C543.94,665.2 537.721,664.953 528.5,671.638C528.12,671.888 528.395,671.744 527.592,671.842C522.453,662.25 544.671,634.048 550.914,627.641ZM752.65,577.128C752.173,585.462 746.841,634.076 744.311,639.998C741.548,646.463 720.332,665.635 714.195,671.624C706.85,678.793 699.935,686.397 692.585,693.551C684.444,701.475 675.707,709.036 667.225,716.595C658.074,724.75 648.691,732.092 638.979,739.537C634.657,742.849 630.43,746.431 625.906,749.457C626.135,745.173 632.734,735.779 635.415,732.411C653.505,709.677 671.853,687.705 692.032,666.83C695.869,662.839 699.798,658.939 703.815,655.13C710.753,648.589 713.974,646.692 717.646,637.67C726.567,615.749 737.451,595.388 752.65,577.128Z" style="fill:rgb(74,77,85);" data-color='color-4'/>
    </g>
</svg>
