<?xml version="1.0" encoding="UTF-8" standalone="no"?>
<!DOCTYPE svg PUBLIC "-//W3C//DTD SVG 1.1//EN" "http://www.w3.org/Graphics/SVG/1.1/DTD/svg11.dtd">
<svg width="100%" height="100%" viewBox="0 0 970 934" version="1.1" xmlns="http://www.w3.org/2000/svg" xmlns:xlink="http://www.w3.org/1999/xlink" xml:space="preserve" xmlns:serif="http://www.serif.com/" style="fill-rule:evenodd;clip-rule:evenodd;stroke-linejoin:round;stroke-miterlimit:2;">
    <g transform="matrix(1,0,0,1,-36.4479,-43.6685)">
        <path d="M565.071,60.201C578.019,58.424 590.89,61.225 602.801,66.129C612.856,63.409 618.425,62.984 628.5,63.093C648.814,63.313 657.398,72.864 670.222,87.464C675.801,93.816 681.939,101.562 689.425,105.908C703.729,114.213 722.248,116.201 736.835,124.136C744.065,128.069 750.06,134.762 752.322,142.821C771.56,143.164 791.146,145.258 808.491,150.765C832.101,158.261 834.055,176.801 840.09,197.202C841.025,200.362 849.573,211.644 852.002,216.698C864.813,243.354 851.678,279.63 816.229,265.827C811.638,268.741 809.607,270.536 806.033,274.622C819.591,288.775 800.5,308.295 787.816,315.067C774.788,322.096 759.496,323.644 745.324,319.368C724.34,312.89 715.71,299.235 706.187,281.052C705.888,280.845 705.588,280.638 705.289,280.431C681.575,266.255 674.559,268.206 650.765,280.045C640.835,284.986 628.54,289.239 617.817,291.787L622.681,302.914C640.825,310.34 665.037,324.54 677.276,338.828C695.422,360.014 712.254,374.976 736.998,387.998C740.756,389.975 747.064,395.054 750.76,397.848C754.201,397.224 770.72,394.337 773.118,393.466C792.491,386.433 795.056,382.723 815.632,385.327C824.785,378.627 833.899,372.864 843.542,366.891C844.898,335.446 852.715,304.064 877.956,282.894C900.139,265.266 930.387,236.549 959.401,233.944C971.799,232.83 977.562,250.309 976.361,261.42C979.362,263.561 982.377,265.841 985.139,268.251C991.712,273.997 991.563,286.221 987.053,293.241C976.273,310.019 959.126,323.823 945.398,338.222C947.937,339.819 950.202,341.435 952.533,343.347C969.283,357.091 963.588,377.394 944.251,384.25C941.656,385.17 939.082,385.707 936.353,386.311C934.885,394.352 930.083,404.98 925.498,411.691C916.367,425.056 909.043,431.071 893.517,434.283C886.669,449.263 873.921,460.294 858.282,465.39C838.15,490.321 809.309,510.49 778.868,520.391C757.973,527.187 738.349,526.917 717.02,523.169C682.521,517.109 648.552,506.423 617.572,489.931C604.393,505.427 587.903,519.037 572.135,531.766C567.667,535.373 555.538,543.133 552.705,546.586C549.123,550.949 542.974,563.066 540.009,568.559C575.949,577.97 595.772,595.477 615.248,626.273C630.367,650.181 636.907,664.134 623.76,691.046C634.025,702.147 644.511,714.322 654.736,725.623C665.909,717.787 678.701,717.774 687.341,729.128C694.312,722.434 701.489,719.018 709.103,726.808C717.616,718.91 722.491,714.317 734.825,716.755C744.817,711.474 746.986,707.253 754.859,699.393C768.766,685.592 786.453,674.157 806.142,671.295C824.615,668.61 848.126,673.73 851.064,695.737L851.43,695.888L852.037,696.147C869.133,703.325 866.792,719.109 859.079,732.39C868.059,740.793 870.494,754.53 857.559,761.214C856.083,761.976 852.514,762.424 850.742,762.712C848.521,765.484 846.236,768.204 843.889,770.871C844.952,773.068 846.112,775.381 846.549,777.793C848.831,790.368 838.078,802.303 825.182,797.4L812.923,809.745C814.019,811.523 815.245,813.79 815.828,815.786C817.05,820.012 816.501,824.553 814.305,828.365C809.142,837.277 801.053,837.082 793.266,832.058C777.034,840.742 761.145,851.676 749.835,866.392C754.111,871.618 756.561,877.494 753.878,884.19C752.334,888.087 749.233,891.163 745.324,892.677C740.654,894.439 736.99,893.772 732.603,891.886C731.062,893.77 719.933,905.461 719.945,905.596C721.09,917.827 709.615,928.639 693.15,914.886C674.519,928.109 654.618,922.099 648.424,899.398C626.4,881.974 611.117,860.038 610.469,831.156C610.045,831.055 609.623,830.947 609.202,830.833C593.133,826.407 591.044,811.728 595.269,797.939C590.682,793.664 585.728,789.347 581.045,785.141C568.463,773.558 553.409,760.273 540.366,749.185C513.345,755.727 490.818,738.452 480.844,714.205C458.98,723.604 440.909,729.56 417.744,734.333C412.749,741.431 403.87,749.143 397.015,754.71C365.076,780.648 329.327,804.281 292.061,821.721C273.086,830.601 249.809,837.548 229.179,831.438C225.564,830.397 215.448,824.445 213.252,824.658C207.148,829.2 219.244,841.997 193.557,851.225C186.3,873.409 168.913,866.675 167.791,896.348C175.27,902.438 181.565,908.176 185.118,917.39C192.009,935.314 181.294,950.294 164.347,956.115C141.997,963.79 118.37,962.685 96.984,952.802C89.102,958.048 79.091,959.66 74.345,948.979C72.08,943.882 74.22,938.515 76.304,933.692L69.081,924.264C61.588,925.624 54.311,923.391 52.698,915.043C51.967,911.218 52.856,907.262 55.152,904.117C58.222,899.946 61.475,898.923 66.214,898.208C66.6,894.161 67.224,890 67.773,885.962C48.657,882.408 54.661,856.917 75.312,858.993C81.547,840.443 87.581,829.476 92.961,809.371C83.252,801.861 81.13,791.052 91.426,781.787C92.456,780.861 97.172,779.349 98.912,778.471C100.137,771.321 92.482,767.968 96.097,758.379C100.151,747.626 109.077,744.561 119.447,748.098C137.451,734.731 156.752,735.169 177.159,742.246C179.988,741.487 181.749,740.789 184.43,739.724C194.501,723.671 206.405,729.533 213.911,719.661C223.974,706.427 233.753,683.876 240.354,668.38C236.683,657.343 236.252,653.293 235.41,641.926C233.477,642.866 231.539,643.793 229.595,644.708C200.087,658.794 166.137,660.349 135.464,649.021C111.334,640.208 91.81,624.261 80.935,600.965C61.045,558.36 81.891,517.746 97.409,478.129C111.543,442.044 78.993,458.936 63.658,469.932C63.224,464.259 63.172,458.249 64.316,452.677C68.312,433.209 84.667,415.323 105.833,417.176C124.463,418.807 140.326,434.776 149.772,449.742C166.97,476.99 160.548,510.636 146.609,537.717C141.855,547.821 135.644,557.127 132.815,568.036C127.814,587.322 141.554,602.46 160.069,605.353C198.099,611.295 230.367,587.639 259.743,567.132C271.892,558.582 284.117,550.142 296.417,541.812C296.238,532.762 301.01,524.858 305.001,516.814C297.006,514.001 289.47,511.795 281.491,508.663C277.364,510.77 273.614,512.141 268.953,512.436C264.843,512.687 260.734,511.946 256.971,510.277C247.635,506.227 238.498,497.206 229.327,492.999C218.398,487.986 208.265,485.323 197.664,478.803C194.859,477.086 192.191,475.156 189.683,473.029C174.577,460.013 161.669,431.59 156.461,412.32C154.829,406.28 154.085,399.837 153.603,393.623C152.624,393.202 150.028,392.029 149.406,391.336C142.733,383.901 142.349,360.315 141.953,350.738C135.175,344.597 137.449,334.832 138.366,326.67C140.833,304.724 146.965,286.458 159.163,268.137C179.919,237.566 211.792,216.308 247.991,208.89C266.45,205.252 287.048,205.033 305.794,205.811C315.906,206.247 326.006,206.909 336.088,207.799C340.956,208.194 349.306,209.078 353.86,208.917C357.167,208.8 365.231,206.349 369.056,205.717C396.228,201.227 426.788,209.244 449.26,224.345C454.14,215.098 463.642,204.995 469.42,196.01C477.195,183.918 482.547,173.437 491.031,161.532C469.189,147.888 460.888,120.599 464.149,96.073C476.826,94.624 496.779,93.745 509.513,94.502C522.655,73.822 540.904,62.823 565.071,60.201Z" style="fill:rgb(0,48,69);"/>
        <path d="M301.96,558.806C304.253,559.722 308.341,566.117 310.45,568.263C325.694,583.78 341.625,590.694 362.492,594.388C357.078,598.149 329.557,613.37 330.467,619.108C333.424,618.862 345.468,615.085 348.855,614.053L378.241,605.248C431.439,589.603 524.689,566.139 573.139,605.917C586.824,617.153 607.4,646.22 611.08,664.264C612.032,668.933 608.904,674.625 605.805,678.075C590.068,667.508 564.981,684.599 553.174,695.013C545.305,701.435 538.102,710.599 533.774,719.832C529.749,726.691 536.445,735.009 524.24,731.351C495.848,722.84 497.775,694.173 494.449,671.457C487.326,678.963 485.217,682.665 482.469,692.63C473.362,696.93 455.674,702.512 446.028,705.46C410.782,716.232 375.909,723.718 338.975,717.344C312.794,712.827 285.613,701.953 269.703,679.487C258.537,663.979 254.069,644.636 257.305,625.803C261.99,599.519 280.18,573.854 301.96,558.806ZM242.943,710.21C248.852,713.744 255.589,717.628 262.128,719.717C299.824,731.762 340.966,741.566 380.551,741.986C373.265,746.711 363.704,754.518 356.246,759.817C341.438,770.302 326.207,780.176 310.59,789.414C287.396,802.545 251.175,824.939 224.548,809.581C207.634,799.826 196.467,776.622 198.068,757.339C198.763,745.999 204.4,745.405 213.134,741.994C227.481,736.39 235.749,722.692 242.943,710.21ZM568.709,77.195C571.267,77.002 573.834,76.973 576.395,77.109C595.856,78.093 620.535,95.113 633.301,109.394C630.65,95.754 628.083,90.201 619.557,79.408C648.702,78.101 654.843,104.694 676.306,117.582C694.845,128.713 714.905,130.687 734.295,141.371C726.437,142.915 718.383,143.449 710.308,144.967C717.085,152.826 726.228,153.599 735.951,155.187C742.526,156.309 749.127,157.27 755.748,158.069C774.051,160.111 806.029,159.796 816.119,177.197C821.568,186.594 822.411,199.612 814.74,208.14C804.273,193.993 785.33,178.132 766.997,177.754C755.77,177.523 754.255,183.102 756.672,192.021C762.449,213.336 781.599,213.24 798.001,209.693C786.418,204.04 781.179,206.55 771.164,195.187C777.62,197.43 783.475,200.373 789.388,202.905C808.911,211.267 811.803,218.024 822.653,234.811L822.566,233.841C822.277,230.538 820.737,212.592 827.804,214.785C840.996,218.877 847.178,251.876 829.516,252.444C826.152,252.552 819.019,238.151 816.638,233.73C816.583,240.188 815.73,247.869 809.689,251.572C791.48,262.732 774.133,240.042 760.722,230.713C752.901,225.041 745.148,220.773 735.496,219.239C721.429,217.004 712.621,221.069 701.439,229.014C704.743,230.186 710.017,232.107 712.559,234.249C731.996,250.626 738.18,282.581 764.297,291.843C774.478,295.453 781.023,292.822 791.308,290.819C782.713,299.666 778.376,303.104 765.707,304.616C756.827,305.449 747.926,303.261 740.445,298.405C727.421,290.13 726.77,282.672 723.788,269.196C686.608,249.524 676.728,243.867 637.131,263.01C585.388,288.024 545.561,259.185 541.875,203.194C525.125,232.496 535.216,259.417 557.128,282.299C572.912,298.781 587.358,307.026 590.156,331.567C587.204,332.027 582.497,332.692 579.543,332.823C545.947,334.312 513.383,319.273 488.732,297.186C475.223,285.082 464.621,271.393 463.646,252.747C462.791,236.383 471.681,226.597 481.545,214.869C487.313,208.011 492.521,201.487 497.822,194.29C502.569,187.844 508.467,175.463 513.496,169.973C523.162,168.842 536.386,167.498 544.958,163.07L545.142,162.382C543.419,161.604 537.944,161.62 535.626,161.249C505.34,156.411 488.343,142.972 480.598,113.525C509.276,105.21 545.583,119.105 560.821,145.053C567.113,120.42 550.059,109.218 530.644,99.89C531.106,99.225 531.595,98.578 532.108,97.951C541.726,86.264 553.544,78.76 568.709,77.195ZM627.852,135.724C610.835,136.825 599.816,141.952 589.684,155.881C602.449,154.661 612.491,154.586 625.248,155.915C623.137,166.226 620.907,175.421 627.263,185.082C631.618,191.701 639.113,195.817 646.826,197.084C655.886,198.572 663.597,197.102 672.046,193.966C682.158,189.292 686.824,184.811 692.374,174.941C703.154,174.25 706.429,170.26 705.444,158.783C705.067,154.399 703.41,150.318 699.652,147.797C697.167,150.114 700.001,158.24 691.244,157.469C677.494,156.259 664.008,145.837 651.297,140.722C643.171,137.453 636.35,136.064 627.852,135.724ZM493.49,122.102C499.053,132.721 515.735,147.14 527.567,150.297C534.271,152.085 538.262,152.312 544.969,150.663L545.673,149.839C544.162,147.808 540.607,146.128 538.725,144.016C525.477,129.156 513.443,123.063 493.49,122.102ZM99.245,433.128C113.507,432.108 127.058,445.241 134.01,456.347C149.414,480.956 141.734,509.295 129.475,533.383C124.488,543.184 118.845,553.938 115.986,564.559C109.199,592.428 129.758,615.898 156.269,621.352C189.074,628.101 219.823,614.295 246.79,597.063C243.702,605.621 241.866,608.986 239.633,618.299C236.89,620.904 231.781,623.451 228.459,625.254C210.791,634.843 190.298,640.413 170.124,639.402C147.761,638.281 124.666,628.787 109.521,612.031C84.813,584.833 86.849,550.863 100.035,518.732C106.572,502.304 117.801,485.482 118.375,467.321C119.115,443.924 106.217,441.017 87.188,440.2C91.498,436.38 93.758,434.859 99.245,433.128ZM200.559,377.195C219.393,375.911 225.844,383.215 240.285,392.815C252.138,400.568 269.124,405.31 278.444,416.262C287.762,427.211 281.952,438.887 267.55,429.894C259.598,424.929 249.758,421.389 240.732,419.163C245.046,439.373 246.318,455.839 258.151,474.152C260.65,478.02 274.27,494.298 265.484,496.021C256.073,492.713 242.111,480.826 235.639,473.235C231.384,468.245 226.574,461.376 222.427,456.072C218.302,450.853 214.055,445.732 209.69,440.712C212.697,449.525 215.663,459.022 217.45,468.136C203.57,464.542 196.886,457.874 190.441,445.419C181.487,428.115 168.921,403.168 178.005,383.776C183.206,379.932 194.218,377.915 200.559,377.195ZM957.096,250.929C957.663,251.178 958.333,251.692 958.481,252.24C960.981,264.328 942.528,278.571 934.426,285.854C919.548,299.227 913.02,306.537 904.724,325.014C903.815,324.967 902.905,324.952 901.996,324.968C891.612,325.226 883.148,336.073 878.878,344.585C875.269,351.782 874.249,357.309 874.664,365.266C881.035,356.33 892.35,344.188 904.016,343.287C916.882,342.555 930.785,349.473 940.958,356.765C943.977,358.929 946.603,364.278 942.992,366.845C934.173,373.115 918.912,370.977 908.876,370.416C908.291,370.357 907.361,370.32 906.757,370.284C906.652,372.022 909.245,374.286 909.702,375.931C916.135,398.142 885.375,428.243 868.918,401.028C855.912,379.518 860.854,347.715 868.799,325.257C875.598,306.04 891.737,293.677 907.557,282.109C923.294,270.602 939.189,258.791 957.096,250.929ZM971.178,276.428C975.177,277.966 973.011,285.894 971.107,288.268C967.399,293.004 962.513,296.64 958.112,300.677C947.593,310.328 935.662,319.14 926.327,329.941L919.103,327.399L913.764,325.891C923.517,309.922 954.585,285.969 971.178,276.428Z" style="fill:rgb(223,172,2);"/>
        <path d="M341.775,399.402C355.379,419.854 364.981,439.156 373.365,462.319C375.875,469.254 378.596,475.984 380.073,483.255C356.689,485.5 327.688,481.032 305.094,474.387C298.61,441.364 313.201,415.729 341.775,399.402ZM277.635,464.693C275.823,463.88 272.979,462.903 271.049,462.167C268.001,456.073 266.643,452.068 264.704,445.517C269.231,446.367 272.456,446.519 277.032,446.558C276.756,453.17 276.617,458.163 277.635,464.693ZM329.209,374.016C310.677,353.269 303.556,345.751 277.964,332.509C282.219,326.478 283.969,322.867 286.62,316.032C294.267,317.206 299.062,317.78 306.891,319.451C334.964,325.443 364.38,348.464 379.234,372.949C361.331,366.672 347.176,366.784 329.209,374.016ZM292.859,408.182C286.342,401.246 281.597,397.4 273.521,392.09C263.061,385.211 252.923,380.697 244.615,371.092C248.295,357.64 253.338,357.827 263.173,349.06C267.515,345.19 270.662,341.292 274.174,336.734C296.08,347.111 308.955,358.367 324.596,376.6C310.566,384.069 299.64,393.616 292.859,408.182ZM390.317,396.483C398.347,422.854 402.301,452.918 389.511,479.249C388.978,480.345 387.801,481.789 386.992,482.72C379.416,458.048 370.436,438.48 358.316,415.473C355.538,410.2 349.035,401.151 347.227,397.268C359.773,391.112 377.423,391.699 390.317,396.483ZM307.817,482.667C335.143,489.645 352.653,491.777 380.621,489.76C362.843,498.895 351.715,502.36 331.194,500.814C326.991,500.498 320.04,499.863 316.031,498.739C311.924,493.132 310.212,489.141 307.817,482.667Z" style="fill:rgb(199,96,49);"/>
        <path d="M45.808,890.459C45.322,889.816 44.87,889.16 44.45,888.494C40.286,881.894 39.182,873.941 41.138,866.367C43.645,856.654 51.342,847.102 63.715,843.946C67.643,833.594 71.462,825.038 75.026,813.748C71.36,808.733 69.287,803.246 68.764,797.754C67.901,788.702 70.883,778.867 80.486,770.109C79.395,765.135 78.878,758.696 81.126,752.734C84.991,742.483 91.597,736.275 99.29,733.094C104.344,731.004 110.087,730.212 116.256,730.993C134.978,719.73 154.729,719.072 175.466,724.941C180.442,719.142 185.631,716.047 190.661,713.878C193.026,712.858 195.357,712.092 197.623,711.352C198.842,710.955 200.269,711.168 201.175,709.977C209.428,699.122 217.34,681.47 223.311,667.551C223.037,666.624 222.786,665.737 222.556,664.881C192.672,675.3 159.929,675.105 129.95,664.041C101.774,653.744 79.137,634.938 66.437,607.733C54.846,582.905 54.858,558.678 60.295,534.865C64.62,515.924 72.534,497.264 79.912,478.844C77.213,480.266 74.692,481.708 72.982,482.934L49.876,499.504L47.705,471.154C47.159,464.02 47.204,456.467 48.643,449.46C54.194,422.417 77.826,398.663 107.228,401.237C119.472,402.309 130.972,408.017 140.86,415.909C139.753,411.678 138.993,407.287 138.447,402.894C138.05,402.571 137.725,402.276 137.499,402.023C134.093,398.229 131.141,392.194 129.372,384.84C127.238,375.971 126.536,364.669 126.185,356.711C123.734,352.915 122.318,348.727 121.667,344.283C120.753,338.044 121.769,331.091 122.466,324.883C125.232,300.275 132.167,279.813 145.885,259.21L145.926,259.15C169.024,225.128 204.494,201.471 244.838,193.204L244.897,193.192C264.558,189.317 286.491,188.996 306.47,189.825L306.483,189.826C316.818,190.271 327.14,190.948 337.386,191.852C341.746,192.206 349.217,193.071 353.294,192.927C356.167,192.825 363.125,190.48 366.448,189.931C392.257,185.666 420.765,191.158 444.406,203.038C448.473,197.682 452.755,192.343 455.962,187.356C461.07,179.412 465.161,172.156 469.741,164.752C451.933,146.434 444.941,119.144 448.289,93.964L449.933,81.595L462.331,80.177C473.035,78.953 488.628,78.125 501.359,78.244C516.728,58.152 537.069,47.198 563.109,44.32L563.13,44.318C576.998,42.461 590.817,44.723 603.805,49.376C612.552,47.351 618.737,46.987 628.673,47.094C654.448,47.373 665.972,58.38 682.243,76.905C686.745,82.03 691.419,88.565 697.459,92.071C711.639,100.304 730.02,102.215 744.481,110.081C751.817,114.072 758.232,120.009 762.692,127.165C780.177,128.051 797.602,130.521 813.333,135.515C842.73,144.849 847.664,166.24 855.098,191.527C856.466,193.583 864.404,205.567 866.423,209.767C877.237,232.269 873.399,259.486 859.034,273.59C851.345,281.14 840.62,286.031 826.845,284.778C826.916,289.527 825.871,294.324 823.956,299.041C818.83,311.666 805.699,323.644 795.392,329.16C778.623,338.2 758.942,340.189 740.653,334.671L740.604,334.656C716.455,327.201 705.064,312.612 694.1,292.395C687.564,288.556 683.132,286.358 678.464,286.477C672.603,286.626 666.957,289.86 657.893,294.37C655.235,295.692 652.425,296.97 649.524,298.189C664.773,306.668 680.146,317.585 689.428,328.42C706.163,347.959 721.629,361.829 744.447,373.838C747.192,375.282 751.148,378.112 754.763,380.812C760.484,379.724 767.574,378.365 768.108,378.263C788.29,370.905 792.868,367.17 811.286,368.765C816.825,364.891 822.385,361.273 828.085,357.678C830.77,324.743 841.138,292.891 867.836,270.499L868.002,270.368C881.746,259.446 898.537,244.464 916.203,233.595C929.849,225.2 944.084,219.255 957.97,218.008C968.915,217.025 977.841,221.958 984.054,230.581C988.535,236.8 991.301,245.295 992.184,253.301C993.37,254.247 994.532,255.212 995.664,256.2L995.669,256.205C1000.99,260.855 1004.44,267.439 1005.72,274.771C1007.34,284.153 1005.19,294.619 1000.51,301.89C992.22,314.799 980.43,326.12 969.052,337.198C977.81,347.494 979.946,359.334 977.523,369.944C974.705,382.284 965.193,393.801 949.597,399.33C949.483,399.371 949.368,399.411 949.254,399.45C946.547,407.095 942.586,415.043 938.709,420.717C928.371,435.849 919.665,443.565 904.317,448.083C895.92,462.152 883.133,472.879 867.821,478.95C845.968,504.608 815.687,525.241 783.817,535.606C760.311,543.251 738.245,543.144 714.251,538.928C682.198,533.297 650.592,523.822 621.211,509.701C609.169,522.161 595.452,533.506 582.185,544.215C578.516,547.178 565.786,556.365 564.806,557.072C564.328,557.689 563.808,558.446 563.262,559.304C592.092,570.741 610.622,589.023 628.771,617.721C639.696,634.997 646.188,648.248 646.784,662.853C647.096,670.49 645.883,678.596 642.508,687.865C647.873,693.824 653.268,699.953 658.626,705.982C663.527,704.442 668.458,703.86 673.215,704.226C678.512,704.634 683.704,706.148 688.539,708.992C692.485,707.197 696.47,706.283 700.366,706.333C702.609,706.362 704.903,706.653 707.225,707.309C714.42,701.847 721.186,699.194 731.48,700.11C736.342,696.705 738.352,693.264 743.572,688.053L743.589,688.036C759.878,671.871 780.778,658.814 803.841,655.461C827.834,651.974 856.36,659.992 864.874,684.816C872.829,689.808 877.23,696.405 879.409,703.456C881.935,711.63 881.053,721.138 877.655,730.383C881.865,737.796 883.462,746.149 881.963,753.712C880.313,762.035 875.311,770.051 864.901,775.43L864.899,775.431C864.282,775.75 863.459,776.066 862.523,776.369C865.324,796.279 851.019,814.316 831.965,814.63C833.29,822.056 831.969,829.755 828.159,836.369L828.15,836.386C823.716,844.038 817.935,848.168 811.935,850.153C806.383,851.989 800.215,851.975 793.97,849.989C785.107,855.172 776.56,861.173 769.325,868.415C771.726,875.137 771.833,882.386 768.736,890.126C765.544,898.147 759.155,904.478 751.038,907.622L750.972,907.647C746.26,909.425 742.069,910.055 737.935,909.735C737.145,910.585 736.368,911.418 735.654,912.184C734.202,921.788 728.563,929.962 720.592,934.15C713.63,937.807 703.822,939.287 692.548,933.613C681.523,938.555 670.545,938.946 661.073,935.796C649.871,932.069 640.022,923.252 634.657,908.814C613.649,891.135 598.911,869.419 595.304,842.325C589.349,838.94 585.122,834.354 582.2,829.168C578.092,821.879 576.717,812.912 577.778,803.663C575.29,801.441 572.785,799.228 570.281,796.979L570.208,796.912C559.562,787.111 547.124,776.077 535.677,766.228C509.674,769.104 487.234,755.65 473.497,734.524C457.97,740.59 443.502,745.05 426.68,748.783C420.928,755.391 413.33,762.072 407.102,767.13C374.162,793.881 337.276,818.226 298.843,836.213C276.49,846.674 248.938,853.977 224.751,846.813C224.511,846.744 224.22,846.647 223.888,846.525C223.24,848.06 222.464,849.535 221.535,850.856C218.673,854.929 214.075,859.437 205.853,863.412C203.051,869.111 199.687,873.168 196.187,876.588C192.092,880.591 186.97,882.321 184.798,889.913C191.319,896.009 196.577,902.637 200.049,911.641L200.052,911.648C210.552,938.958 195.365,962.378 169.544,971.248C145.771,979.411 120.772,979.115 97.602,970.395C90.877,972.973 83.831,973.594 77.679,971.829C70.663,969.814 64.007,965.116 59.723,955.476C57.446,950.351 57.093,945.026 57.869,939.804C54.051,938.937 50.542,937.385 47.553,935.197C42.518,931.512 38.528,926.05 36.985,918.062L36.982,918.046C35.419,909.867 37.319,901.407 42.248,894.657L42.266,894.633C43.437,893.041 44.61,891.661 45.808,890.459ZM565.071,60.201C540.904,62.823 522.655,73.822 509.513,94.502C496.779,93.745 476.826,94.624 464.149,96.073C460.888,120.599 469.189,147.888 491.031,161.532C482.547,173.437 477.195,183.918 469.42,196.01C463.642,204.995 454.14,215.098 449.26,224.345C426.788,209.244 396.228,201.227 369.056,205.717C365.231,206.349 357.167,208.8 353.86,208.917C349.306,209.078 340.956,208.194 336.088,207.799C326.006,206.909 315.906,206.247 305.794,205.811C287.048,205.033 266.45,205.252 247.991,208.89C211.792,216.308 179.919,237.566 159.163,268.137C146.965,286.458 140.833,304.724 138.366,326.67C137.449,334.832 135.175,344.597 141.953,350.738C142.349,360.315 142.733,383.901 149.406,391.336C150.028,392.029 152.624,393.202 153.603,393.623C154.085,399.837 154.829,406.28 156.461,412.32C161.669,431.59 174.577,460.013 189.683,473.029C192.191,475.156 194.859,477.086 197.664,478.803C208.265,485.323 218.398,487.986 229.327,492.999C238.498,497.206 247.635,506.227 256.971,510.277C260.734,511.946 264.843,512.687 268.953,512.436C273.614,512.141 277.364,510.77 281.491,508.663C289.47,511.795 297.006,514.001 305.001,516.814C301.01,524.858 296.238,532.762 296.417,541.812C284.117,550.142 271.892,558.582 259.743,567.132C230.367,587.639 198.099,611.295 160.069,605.353C141.554,602.46 127.814,587.322 132.815,568.036C135.644,557.127 141.855,547.821 146.609,537.717C160.548,510.636 166.97,476.99 149.772,449.742C140.326,434.776 124.463,418.807 105.833,417.176C84.667,415.323 68.312,433.209 64.316,452.677C63.172,458.249 63.224,464.259 63.658,469.932C78.993,458.936 111.543,442.044 97.409,478.129C81.891,517.746 61.045,558.36 80.935,600.965C91.81,624.261 111.334,640.208 135.464,649.021C166.137,660.349 200.087,658.794 229.595,644.708C231.539,643.793 233.477,642.866 235.41,641.926C236.252,653.293 236.683,657.343 240.354,668.38C233.753,683.876 223.974,706.427 213.911,719.661C206.405,729.533 194.501,723.671 184.43,739.724C181.749,740.789 179.988,741.487 177.159,742.246C156.752,735.169 137.451,734.731 119.447,748.098C109.077,744.561 100.151,747.626 96.097,758.379C92.482,767.968 100.137,771.321 98.912,778.471C97.172,779.349 92.456,780.861 91.426,781.787C81.13,791.052 83.252,801.861 92.961,809.371C87.581,829.476 81.547,840.443 75.312,858.993C54.661,856.917 48.657,882.408 67.773,885.962C67.224,890 66.6,894.161 66.214,898.208C61.475,898.923 58.222,899.946 55.152,904.117C52.856,907.262 51.967,911.218 52.698,915.043C54.311,923.391 61.588,925.624 69.081,924.264L76.304,933.692C74.22,938.515 72.08,943.882 74.345,948.979C79.091,959.66 89.102,958.048 96.984,952.802C118.37,962.685 141.997,963.79 164.347,956.115C181.294,950.294 192.009,935.314 185.118,917.39C181.565,908.176 175.27,902.438 167.791,896.348C168.913,866.675 186.3,873.409 193.557,851.225C219.244,841.997 207.148,829.2 213.252,824.658C215.448,824.445 225.564,830.397 229.179,831.438C249.809,837.548 273.086,830.601 292.061,821.721C329.327,804.281 365.076,780.648 397.015,754.71C403.87,749.143 412.749,741.431 417.744,734.333C440.909,729.56 458.98,723.604 480.844,714.205C490.818,738.452 513.345,755.727 540.366,749.185C553.409,760.273 568.463,773.558 581.045,785.141C585.728,789.347 590.682,793.664 595.269,797.939C591.044,811.728 593.133,826.407 609.202,830.833C609.623,830.947 610.045,831.055 610.469,831.156C611.117,860.038 626.4,881.974 648.424,899.398C654.618,922.099 674.519,928.109 693.15,914.886C709.615,928.639 721.09,917.827 719.945,905.596C719.933,905.461 731.062,893.77 732.603,891.886C736.99,893.772 740.654,894.439 745.324,892.677C749.233,891.163 752.334,888.087 753.878,884.19C756.561,877.494 754.111,871.618 749.835,866.392C761.145,851.676 777.034,840.742 793.266,832.058C801.053,837.082 809.142,837.277 814.305,828.365C816.501,824.553 817.05,820.012 815.828,815.786C815.245,813.79 814.019,811.523 812.923,809.745L825.182,797.4C838.078,802.303 848.831,790.368 846.549,777.793C846.112,775.381 844.952,773.068 843.889,770.871C846.236,768.204 848.521,765.484 850.742,762.712C852.514,762.424 856.083,761.976 857.559,761.214C870.494,754.53 868.059,740.793 859.079,732.39C866.792,719.109 869.133,703.325 852.037,696.147L851.43,695.888L851.064,695.737C848.126,673.73 824.615,668.61 806.142,671.295C786.453,674.157 768.766,685.592 754.859,699.393C746.986,707.253 744.817,711.474 734.825,716.755C722.491,714.317 717.616,718.91 709.103,726.808C701.489,719.018 694.312,722.434 687.341,729.128C678.701,717.774 665.909,717.787 654.736,725.623C644.511,714.322 634.025,702.147 623.76,691.046C636.907,664.134 630.367,650.181 615.248,626.273C595.772,595.477 575.949,577.97 540.009,568.559C542.974,563.066 549.123,550.949 552.705,546.586C555.538,543.133 567.667,535.373 572.135,531.766C587.903,519.037 604.393,505.427 617.572,489.931C648.552,506.423 682.521,517.109 717.02,523.169C738.349,526.917 757.973,527.187 778.868,520.391C809.309,510.49 838.15,490.321 858.282,465.39C873.921,460.294 886.669,449.263 893.517,434.283C909.043,431.071 916.367,425.056 925.498,411.691C930.083,404.98 934.885,394.352 936.353,386.311C939.082,385.707 941.656,385.17 944.251,384.25C963.588,377.394 969.283,357.091 952.533,343.347C950.202,341.435 947.937,339.819 945.398,338.222C959.126,323.823 976.273,310.019 987.053,293.241C991.563,286.221 991.712,273.997 985.139,268.251C982.377,265.841 979.362,263.561 976.361,261.42C977.562,250.309 971.799,232.83 959.401,233.944C930.387,236.549 900.139,265.266 877.956,282.894C852.715,304.064 844.898,335.446 843.542,366.891C833.899,372.864 824.785,378.627 815.632,385.327C795.056,382.723 792.491,386.433 773.118,393.466C770.72,394.337 754.201,397.224 750.76,397.848C747.064,395.054 740.756,389.975 736.998,387.998C712.254,374.976 695.422,360.014 677.276,338.828C665.037,324.54 640.825,310.34 622.681,302.914L617.817,291.787C628.54,289.239 640.835,284.986 650.765,280.045C674.559,268.206 681.575,266.255 705.289,280.431C705.588,280.638 705.888,280.845 706.187,281.052C715.71,299.235 724.34,312.89 745.324,319.368C759.496,323.644 774.788,322.096 787.816,315.067C800.5,308.295 819.591,288.775 806.033,274.622C809.607,270.536 811.638,268.741 816.229,265.827C851.678,279.63 864.813,243.354 852.002,216.698C849.573,211.644 841.025,200.362 840.09,197.202C834.055,176.801 832.101,158.261 808.491,150.765C791.146,145.258 771.56,143.164 752.322,142.821C750.06,134.762 744.065,128.069 736.835,124.136C722.248,116.201 703.729,114.213 689.425,105.908C681.939,101.562 675.801,93.816 670.222,87.464C657.398,72.864 648.814,63.313 628.5,63.093C618.425,62.984 612.856,63.409 602.801,66.129C590.89,61.225 578.019,58.424 565.071,60.201ZM142.607,837.761C146.424,838.258 154.214,846.407 160.728,848.993C165.347,850.826 172.832,851.999 175.461,853.632C176.38,855.404 176.238,854.49 175.877,856.474C174.502,858.33 174.219,858.383 172.168,859.592C170.877,859.876 169.565,860.057 168.244,860.132C158.809,860.603 129.269,850.802 142.607,837.761ZM179.46,755.38C181.721,756.75 181.257,761.096 181.489,764.271C182.599,779.472 186.685,789.95 193.162,803.434C189.593,803.216 188.336,803.027 184.849,802.223C168.876,795.262 161.625,762.28 179.46,755.38ZM834.587,737.222C839.542,736.388 844.243,739.705 845.118,744.653C845.993,749.601 842.714,754.329 837.774,755.245C832.775,756.171 827.98,752.846 827.095,747.84C826.21,742.834 829.574,738.066 834.587,737.222ZM666.951,736.984C669.477,736.739 671.828,736.634 673.923,738.267C674.556,740.034 670.917,755.933 670.628,759.22C670.413,761.673 668.721,763.242 666.688,764.534C658.448,764.385 658.38,758.08 659.129,751.173C659.757,745.387 662.279,740.568 666.951,736.984ZM732.863,234.156C754.364,236.835 763.971,260.267 783.502,267.321C786.47,268.393 789.412,269.561 792.392,270.631L792.776,271.461C792.3,273.217 791.569,273.846 790.405,275.234C781.045,281.84 767.962,276.502 761.033,269.014C753.275,260.631 737.196,244.056 732.863,234.156ZM721.69,732.079C723.463,732.067 725.819,731.871 726.812,733.483C724.208,739.854 722.221,745.736 719.888,752.185C718.773,755.271 717.31,756.485 714.401,757.627C705.623,756.64 708.782,746.965 711.324,741.591C713.746,736.473 716.44,733.953 721.69,732.079ZM121.146,764.829L122.454,765.172C123.133,766.147 123.692,767.072 123.339,768.355C117.471,789.649 114.752,812.656 106.743,833.216C98.327,855.055 78.321,877.749 82.165,902.796C87.563,937.959 132.402,944.947 161.336,940.673C162.995,940.428 164.827,940.044 166.104,941.002L166.006,941.981C164.685,943.416 162.84,943.951 161.003,944.7C136.81,951.007 101.786,946.553 85.075,925.994C76.438,915.367 74.618,904.05 75.788,890.766C77.547,870.787 89.369,855.443 96.791,837.465C102.422,823.888 105.783,810.678 108.84,796.339C110.88,786.768 113.362,771.173 121.146,764.829ZM156.825,812.789C158.732,813.044 162.815,817.162 164.879,818.773C168.752,821.794 173.059,824.212 177.655,825.946C186.481,829.331 188.16,828.302 196.523,829.102C200.939,832.681 197.242,836.37 193.513,838.221C179.963,841.507 161.607,834.364 153.177,823.263C149.89,818.935 152.682,815.056 156.825,812.789ZM642.171,160.77C646.778,161.566 652.135,165.04 656.204,167.486C651.213,175.304 653.983,177.92 655.648,185.485L654.888,185.974C640.321,183.432 631.048,174.412 642.171,160.77ZM316.031,498.739C304.88,496.332 298.319,494.383 287.88,489.87C285.431,483.936 280.912,478.041 277.403,472.427C279.474,473.023 282.414,474.241 284.442,475.123C292.159,478.477 299.681,480.559 307.817,482.667C310.212,489.141 311.924,493.132 316.031,498.739ZM700.239,879.774C705.025,878.271 710.125,880.919 711.649,885.698C713.174,890.477 710.548,895.59 705.776,897.135C700.974,898.69 695.822,896.045 694.288,891.236C692.754,886.427 695.423,881.287 700.239,879.774ZM617.447,714.911C618.947,715.895 624.939,722.203 626.523,723.832L645.246,743.193C627.086,752.212 614.81,764.731 603.263,781.23C593.754,773.416 584.435,765.372 575.314,757.107C583.438,737.327 599.43,724.968 617.447,714.911ZM802.259,768.353C807.181,767.256 812.063,770.351 813.169,775.271C814.276,780.191 811.189,785.078 806.271,786.193C801.341,787.312 796.438,784.216 795.329,779.283C794.22,774.35 797.325,769.454 802.259,768.353ZM774.719,806.146C777.865,805.061 781.352,805.765 783.829,807.987C786.307,810.208 787.387,813.598 786.65,816.843C785.913,820.088 783.477,822.679 780.283,823.614C775.504,825.012 770.483,822.34 768.972,817.596C767.461,812.852 770.012,807.769 774.719,806.146ZM693.157,737.915C695.01,738.127 697.353,738.643 698.613,740.085C699.337,744.579 695.076,754.818 693.133,759.287C692.136,761.58 690.735,762.666 688.539,763.721C678.528,761.827 683.035,750.082 686.451,744.126C688.245,740.997 690.013,739.606 693.157,737.915ZM834.173,704.091C839.12,703.675 851.933,705.455 848.749,714.361C848.09,716.202 837.81,714.073 835.702,715.654C835.256,715.989 830.798,717.06 830.012,717.622C805.386,728.948 784.759,756.312 771.507,779.645C756.829,805.489 746.241,825.763 720.302,843.297C700.918,856.401 680.368,868.226 670.826,890.865C670.192,893.46 669.659,899.666 666.716,900.169C665.985,899.374 665.721,898.838 665.488,897.788C659.057,868.828 697.213,849.332 716.787,835.92C724.218,830.828 729.975,825.667 735.911,819.231C750.533,803.376 756.9,783.297 767.695,765.363C781.412,742.572 808.008,710.773 834.173,704.091ZM379.234,372.949C384.816,381.221 386.908,387.452 390.317,396.483C377.423,391.699 359.773,391.112 347.227,397.268C341.121,389.07 335.723,381.93 329.209,374.016C347.176,366.784 361.331,366.672 379.234,372.949ZM127.748,858.33C131.231,858.39 132.393,862.449 135.453,864.809C141.377,869.379 154.578,870.889 159.54,873.688L159.772,874.661C158.756,876.435 158.033,876.701 156.268,877.882C142.611,881.701 114.298,869.006 127.748,858.33ZM324.596,376.6C329.757,382.581 337.622,392.825 341.775,399.402C313.201,415.729 298.61,441.364 305.094,474.387C295.605,471.691 286.846,468.156 277.635,464.693C276.617,458.163 276.756,453.17 277.032,446.558C281.975,446.199 286.592,445.049 290.722,442.187C295.164,439.109 298.178,434.373 299.079,429.045C300.519,420.897 297.261,414.572 292.859,408.182C299.64,393.616 310.566,384.069 324.596,376.6ZM175.918,482.054C176.993,503.539 170.817,525.561 160.968,544.781C156.648,553.887 150.857,562.204 148.303,572.052C145.862,581.465 153.502,588.133 162.539,589.545C196.352,594.828 224.439,572.266 250.559,554.03C260.785,546.834 271.064,539.715 281.396,532.674C281.865,530.532 282.483,528.423 283.209,526.34C282.798,526.197 282.387,526.053 281.976,525.907C278.188,527.279 274.335,528.127 269.946,528.405L269.928,528.406C263.281,528.812 256.635,527.619 250.545,524.93C241.135,520.827 231.9,511.783 222.656,507.542C211.117,502.249 200.474,499.315 189.311,492.449C185.804,490.303 182.469,487.89 179.286,485.191L179.239,485.15C178.123,484.189 177.015,483.154 175.918,482.054Z" style="fill:white;"/>
        <path d="M812.936,687.661C815.054,687.38 816.679,687.047 818.312,688.631C817.593,690.086 812.767,692.347 811.112,693.427C784.314,710.91 764.513,734.893 749.549,762.954C748.718,764.597 747.81,766.194 746.914,767.802C746.653,752.017 748.872,741.056 758.068,728.075C768.586,713.228 794.495,690.484 812.936,687.661ZM648.673,818.582C667.554,816.705 686.087,825.299 702.121,834.332C697.637,835.541 696.65,836.068 692.723,838.296C688.586,836.308 685.503,835.095 681.182,833.486C668.484,829.043 657.123,826.464 643.68,830.3C638.54,831.767 633.775,834.078 628.449,835.001L627.733,835.119C632.397,824.382 637.86,821.298 648.673,818.582ZM643.996,764.372C644.839,764.987 647.21,772.364 647.968,774.277C641.188,782.155 632.028,789.699 625.792,798.759C622.504,803.538 620.619,807.971 617.571,812.627L616.808,812.678C614.945,810.473 613.12,808.237 611.332,805.972C618.27,790.001 631.205,775.876 643.996,764.372ZM157.645,754.146C159.298,754.014 158.623,753.756 159.83,754.555C160.275,756.818 158.962,758.845 157.927,760.776C152.874,770.203 152.869,782.183 153.194,792.557C150.434,793.783 148.71,794.818 145.677,795.147C143.294,793.088 142.778,792.002 142.418,788.661C141.469,779.864 142.166,766.903 147.689,759.622C150.687,755.669 153.065,754.741 157.645,754.146ZM199.837,326.235C200.807,326.15 200.761,326.234 201.751,326.421C203.56,329.57 202.905,351.368 202.853,355.748C198.747,355.671 194.645,356.042 190.62,356.857C189.626,357.059 190.177,357.045 188.972,356.756C186.864,351.824 187.179,333.512 188.742,327.753C193.07,326.691 195.356,326.591 199.837,326.235ZM215.546,330.283C217.981,330.968 220.689,331.736 223.044,332.664C233.761,336.886 232.155,351.352 228.139,359.874C225.234,362.287 217.729,358.825 213.98,357.743C214.201,350.2 212.893,336.457 215.546,330.283ZM174.919,330.957C176.783,332.717 177.927,357.612 178.161,361.084C173.053,362.803 169.836,364.346 165.237,367.122C164.423,367.736 164.905,367.517 163.747,367.677C162.106,364.863 162.924,344.986 163.05,340.719C167.278,336.16 169.517,333.832 174.919,330.957ZM339.55,539.494C343.82,541.779 347.898,543.963 352.074,546.434C349.703,552.223 344.049,564.45 341.066,569.942C336.359,567.228 332.202,564.604 327.647,561.675L339.55,539.494ZM513.437,337.648C518.937,339.732 525.951,342.966 531.448,345.338C529.829,350.053 528.067,354.65 526.451,359.432C518.51,356.95 514.378,354.713 507.12,350.85C509.123,346.332 510.973,341.943 513.437,337.648ZM543.056,347.952C548.474,349.639 557.431,350.936 563.119,351.872C561.475,356.422 559.898,360.898 557.379,365.03C550.069,365.18 544.393,364.337 537.456,362.159C539.144,357.322 541.104,352.684 543.056,347.952ZM317.754,525.759C322.052,528.617 325.522,531.014 329.657,534.154C327.351,539.392 323.518,546.457 320.866,551.717C319.749,553.339 320.4,553.087 319.047,553.408C315.639,551.089 312.02,544.219 310.936,540.378C312.74,535.825 315.574,530.228 317.754,525.759ZM387.948,225.708C402.109,225.218 430.823,233.182 440.154,245.465C441.941,247.818 439.131,262.206 438.668,266.391C429.908,345.433 535.053,410.104 602.078,368.135C617.312,358.587 625.407,347.179 629.315,329.672C654.804,340.92 669.84,364.25 690.293,382.224C702.58,393.021 719.787,399.811 730.85,410C721.196,425.891 721.637,425.37 719.855,444.309C721.176,442.662 722.596,441.097 724.106,439.622C737.806,426.376 760.341,416.144 778.342,410.214C788.516,406.863 795.559,403.681 806.434,403.98C806.071,427.102 812.455,449.158 831.748,463.51C813.825,480.496 791.337,494.693 767.418,501.119C758.202,503.549 748.655,504.479 739.143,503.874C710.171,502.287 655.743,486.187 630.643,471.578C647.516,445.247 654.593,413.822 650.636,382.801C650.199,385.304 649.663,387.789 649.03,390.25C634.629,446.352 590.949,493.119 544.382,525.225C534.557,532 524.213,538.223 513.948,544.315C509.507,547.217 506.08,549.66 502.204,552.955C499.871,554.938 491.806,564.514 490.32,564.822C480.625,566.832 467.496,567.584 457.448,569.105C445.913,570.966 434.43,573.139 423.012,575.621C415.568,577.224 403.278,580.226 396.077,580.667C381.59,581.554 364.615,579.568 351.22,573.94C354.997,566.692 358.217,558.464 361.995,550.918C392.971,561.83 410.721,565.06 444.179,559.109C409.193,552.676 378.213,540.381 350.296,518.17C364.038,513.601 375.001,513.326 388.349,505.778C402.119,497.992 408.415,485.372 412.59,470.53C421.397,439.214 413.013,394.146 396.566,366.115C378.51,335.191 348.938,312.68 314.323,303.509C310,293.308 306.951,282.398 301.552,272.586C301.129,281.293 300.815,290.005 300.61,298.72C296.777,298.601 293.841,298.449 290.041,298.023C287.095,275.409 281.421,267.066 262.339,255.493C270.284,270.315 274.593,282.841 271.263,299.797C268.105,315.875 261.373,325.576 249.313,336.327C236.843,306.371 207.084,302.636 178.507,312.006C172.349,314.026 166.719,317.653 161.341,321.211C161.982,316.356 162.75,309.551 164.407,305.007C180.417,261.1 223.507,230.779 269.773,227.393C285.98,226.206 301.145,226.69 317.132,227.819C326.13,227.515 342.484,232.669 350.784,231.585C363.846,229.879 373.954,226.418 387.948,225.708ZM479.033,371.486C472.07,373.899 450.005,382.205 444.405,385.383C441.922,392.587 439.851,401.863 438.083,409.41C432.416,433.61 425.362,457.974 420.097,482.208C423.864,489.72 429.851,504.249 435.078,510.098C438.853,514.322 482.208,527.858 489.823,530.892C496.528,528.649 518.528,520.585 523.972,517.183C527.288,508.668 530.099,498.768 532.945,489.934C523.49,485.332 508.811,480.474 498.485,476.24C496.372,482.01 494.384,487.826 492.521,493.682C491.038,496.087 489.255,496.439 486.514,497.437C478.562,494.726 470.071,491.196 462.302,487.895C458.449,469.451 460.881,468.54 465.928,450.769L476.559,413.262C479.02,412.037 481.267,410.878 483.83,409.859C488.938,411.677 493.868,413.94 498.808,416.007C516.248,423.305 516.395,422.876 510.391,440.746C517.904,444.824 534.019,451.227 542.568,454.653C547.085,440.116 552.346,424.197 556.319,409.643C549.242,406.416 542.269,402.966 535.41,399.297C534.322,400.348 532.262,402.734 531.082,402.945C530.103,399.539 532.398,398.066 528.997,396.743C522.164,394.085 483.142,372.225 479.033,371.486ZM849.742,405.965C858.16,415.725 852.201,421.133 844.08,427.308C840.388,430.114 836.678,433.12 832.954,435.932C829.874,434.189 828.556,425.976 828.155,422.634C832.722,417.889 844.205,409.677 849.742,405.965ZM860.192,425.399C862.487,425.807 868.737,431.263 870.64,432.886C865.153,440.237 858.436,445.597 850.43,449.975C847.775,450.12 843.853,445.763 839.484,443.445C845.132,437.483 853.348,430.091 860.192,425.399ZM842.879,386.886L843.504,387.145C844.627,389.055 845.633,393.307 846.285,395.646C841.513,400.34 830.469,408.519 824.792,411.998C824.514,412.176 823.915,412.264 823.547,412.349C822.167,410.106 822.448,404.584 822.447,401.814L822.586,401.662C827.245,396.457 836.689,391.051 842.879,386.886ZM487.129,321.708C492.282,325.497 497.584,329.079 503.023,332.445C501.371,336.299 499.232,340.437 497.37,344.231C494.652,344.156 484.416,335.208 481.955,332.672C483.562,328.718 485.189,325.525 487.129,321.708ZM592.815,349.58L594.498,349.502C595.555,350.323 595.468,350.467 596.008,351.735C595.673,358.177 578.644,362.977 573.492,364.035C572.69,364.064 571.786,364.039 570.973,364.036L570.471,363.173C570.628,360.717 572.575,356.143 573.452,353.095C580.607,352.145 585.891,351.187 592.815,349.58ZM458.352,293.882C461.383,296.046 474.997,312.266 478.768,316.453L475.909,322.419C475.26,323.611 475.339,323.687 474.255,324.452C467.329,322.247 459.248,301.177 458.352,293.882ZM115.965,891.628C125.521,890.684 132.016,892.15 140.261,896.997C135.6,897.053 130.457,896.739 125.765,896.548C117.721,896.564 109.437,897.967 101.543,899.436C106.228,893.821 109.114,893.014 115.965,891.628Z" style="fill:rgb(0,162,237);"/>
    </g>
</svg>
