<svg width="100%" height="100%" viewBox="0 0 912 630" version="1.1" xmlns="http://www.w3.org/2000/svg" xmlns:xlink="http://www.w3.org/1999/xlink" xml:space="preserve" xmlns:serif="http://www.serif.com/" style="fill-rule:evenodd;clip-rule:evenodd;stroke-linejoin:round;stroke-miterlimit:2;">
    <g transform="matrix(1,0,0,1,-28.311,-98.4676)">
        <path d="M915.909,312.671C916.162,313.11 916.383,313.567 916.568,314.039C926.645,339.745 925.882,365.642 916.277,389.911C914.886,392.977 913.519,396.747 911.847,399.517C914.488,407.385 914.534,410.466 916.277,417.577L916.277,433.261C913.519,444.591 913.542,446.604 906.972,456.348C906.956,463.384 906.941,470.438 905.027,477.327C903.019,484.545 899.417,492.097 898.277,499.489C898.034,501.537 899.136,504.908 899.894,506.787C903.659,516.094 904.23,523.267 901.675,533.002C898.605,544.687 896.304,547.216 884.879,549.591C881.235,569.784 873.79,577.876 852.637,576.709C838.089,604.893 827.259,618.04 800.055,635.738C796.72,631.837 796.091,629.204 795.802,624.085C769.993,641.947 750.551,650.027 718.55,650.587C722.682,640.608 726.498,630.222 728.536,619.569C729.734,613.312 729.947,606.411 730.504,600.03C721.858,601.943 709.45,601.762 701.259,597.612C703.377,593.641 704.721,591.138 706.112,586.88C702.937,586.768 699.463,586.718 696.323,586.422C692.688,588.802 689.532,591.112 686.045,593.684L686.37,594.198C691.318,601.932 702.872,611.392 700.441,621.655C696.21,639.529 641.559,687.556 625.535,696.901C622.176,698.86 619.028,700.333 615.134,700.83C604.073,702.243 591.802,699.98 580.686,699.065C569.752,698.209 558.777,697.988 547.817,698.405C532.686,699.125 517.759,702.175 503.109,705.953C505.316,692.409 510.496,674.237 517.654,662.786C528.003,646.23 538.402,630.412 548.213,613.446C537.516,615.463 528.11,617.377 517.223,618.271C516.853,612.39 515.638,605.358 515.41,599.955C504.819,603.92 494.141,607.652 483.384,611.145C486.384,599.769 491.201,583.958 494.974,572.748C475.754,584.88 456.75,596.319 436.818,607.261C430.773,610.58 422.477,616.2 416.638,619.019C408.345,616.057 393.994,611.361 386.411,607.57C393.977,616.262 401.159,625.266 408.726,633.942C425.591,653.282 445.205,671.583 454.487,696.077C456.055,700.214 457.545,704.396 459.069,708.553C437.875,708.136 415.12,708.226 393.871,708.352C391.54,698.641 389.747,691.91 385.089,682.815C376.73,683.333 368.486,684.133 360.21,684.667C361.728,676.131 363.102,667.571 364.333,658.989C362.082,656.334 359.655,653.869 357.208,651.396C345.063,639.127 332.774,626.671 319.012,616.206C316.074,613.973 312.588,612.221 309.215,610.764C311.684,602.345 315.978,593.473 319.584,585.419C323.374,576.952 326.785,568.85 331.568,560.869C326.234,566.342 319.398,572.034 313.604,577.197C302.475,587.116 292.275,599.631 280.106,608.005C277.921,609.509 260.402,609.216 257.082,608.878C241.647,622.698 226.644,639.968 213.003,655.647C207.068,662.469 199.626,673.744 193.649,679.722C182.488,679.651 170.718,677.809 160.096,677.875C145.878,685.652 132.668,691.748 116.277,694.084C98.12,690.38 101.575,668.761 116.277,637.82C117.584,635.774 120.477,629.365 121.845,626.634C126.628,617.091 134.005,605.048 142.268,598.408C146.824,594.748 163.431,599.18 169.283,600.437C171.711,594.016 174.522,587.023 176.197,580.377C180.864,561.854 186.598,543.704 191.787,525.337C195.476,524.437 202.37,523.609 206.316,523.046C214.809,521.835 222.63,520.578 231.062,518.955C232.71,503.47 235.457,487.266 237.259,471.525L240.599,440.882C241.098,436.009 241.373,430.532 242.069,425.792C220.145,432.319 198.202,442.296 176.257,449.205C169.981,451.182 163.191,453.973 156.888,455.574L166.663,430.964C160.887,431.032 154.92,432.518 149.275,433.267C138.85,434.652 126.638,437.122 116.277,437.819L87.492,438.893C87.492,438.893 164.064,390.887 187.383,377.237C194.773,372.912 206.928,365.016 214.151,361.671C222.088,360.451 232.363,361.21 240.14,360.225C244.137,359.718 251.4,348.782 254.077,345.227C261.051,335.791 267.977,326.319 274.855,316.812L299.248,283.127C308.142,271.01 316.707,259.753 325.263,247.348C332.418,254.419 340.209,261.448 347.622,268.306L431.434,170.698C447.273,186.017 462.295,200.571 477.843,216.24C496.366,198.361 514.762,180.348 533.026,162.205C546.518,148.94 559.949,135.958 572.763,122.022C585.016,135.173 598.118,150.811 610.211,164.424L633.279,190.559C638.331,196.261 643.509,201.733 648.315,207.653C657.27,199.766 665.178,191.606 673.82,183.521C683.318,174.636 693.39,165.719 703.096,157.043C708.333,162.794 714.559,170.805 719.714,176.987C730.582,189.917 741.354,202.927 752.03,216.014C757.216,212.553 765.266,205.32 770.396,201.086C789.325,219.382 812.491,237.811 832.596,255.724C833.326,247.989 833.788,238.171 833.901,230.395C840.977,235.275 849.59,239.832 856.277,244.627C873.752,257.157 890.705,273.571 902.948,291.273C907.474,297.82 911.897,305.692 915.909,312.671Z" style="fill:rgb(0,36,41);"  data-color="color-2"/>
        <path d="M234.155,344.715C236.161,342.18 240.011,337.303 241.257,335.653C248.183,326.282 255.061,316.876 261.893,307.431L286.32,273.7L286.35,273.659C295.149,261.671 303.627,250.537 312.091,238.264L322.93,222.549L336.509,235.968C339.671,239.092 342.96,242.208 346.285,245.303L430.355,147.394L442.558,159.197C454.656,170.899 466.28,182.156 478.021,193.798C492.679,179.567 507.256,165.252 521.779,150.824L521.809,150.795C535.108,137.72 548.354,124.929 560.984,111.192L572.684,98.468L584.468,111.114C596.805,124.354 609.999,140.093 622.19,153.817L645.262,179.957C646.674,181.55 648.095,183.126 649.514,184.7C653.945,180.426 658.312,176.12 662.89,171.837C672.475,162.87 682.638,153.869 692.433,145.114L704.254,134.548L714.927,146.271C720.298,152.171 726.695,160.376 731.986,166.721C739.507,175.669 746.983,184.656 754.413,193.68C756.523,191.87 758.532,190.132 760.211,188.747L771.236,179.645L781.516,189.582C792.701,200.392 805.381,211.245 818.021,222.01L818.339,200.229L842.984,217.223C850.139,222.157 858.839,226.776 865.6,231.624C884.524,245.193 902.85,263.002 916.109,282.174L916.11,282.175C920.874,289.067 925.551,297.341 929.776,304.688L929.78,304.695C930.423,305.813 930.983,306.977 931.46,308.189L931.465,308.2C943.099,337.879 942.244,367.779 931.01,396.163L930.848,396.519C930.226,397.891 929.595,399.376 928.944,400.868C930.066,405.215 930.508,408.429 931.817,413.77L932.277,415.646L932.277,435.18L931.823,437.045C928.866,449.192 928.384,452.555 922.928,461.19C922.8,468.05 922.31,474.89 920.442,481.613L920.441,481.615C918.773,487.614 915.783,493.826 914.452,499.983C914.551,500.296 914.655,500.611 914.726,500.786C919.936,513.664 920.686,523.593 917.15,537.066L917.15,537.069C914.625,546.678 911.656,552.165 907.73,556.095C905.286,558.542 902.339,560.58 898.295,562.26C895.471,571.566 891.352,578.329 885.942,583.128C880.197,588.226 872.69,591.619 862.33,592.552C848.334,617.971 835.925,631.49 808.78,649.15L797.013,656.805L789.031,647.467C767.349,660.21 747.643,666.08 718.83,666.584L694.432,667.011L701.592,649.719C700.264,651.345 698.859,652.994 697.381,654.656C677.686,676.808 645.519,703.768 633.596,710.722C628.312,713.804 623.287,715.919 617.161,716.701C605.041,718.249 591.586,716.018 579.404,715.013C569.124,714.21 558.806,714.002 548.47,714.392C534.468,715.07 520.663,717.95 507.105,721.446L483.378,727.565L487.318,703.381C489.829,687.961 495.937,667.342 504.087,654.305C508.291,647.579 512.504,640.977 516.683,634.369L502.277,635.553L501.424,621.981C497.072,623.48 492.706,624.94 488.327,626.363L460.437,635.422L467.622,608.172C460.016,612.626 452.337,616.994 444.518,621.286C439.577,623.999 433.172,628.172 427.718,631.246C443.904,649.304 460.745,667.439 469.448,690.407C471.037,694.598 472.547,698.834 474.091,703.045L482.145,725.01L458.754,724.55C437.693,724.135 415.082,724.226 393.966,724.352L381.275,724.428L378.313,712.087C377.186,707.393 376.232,703.5 374.901,699.601C370.341,699.965 365.796,700.34 361.241,700.634L340.886,701.948L344.457,681.866C345.501,675.994 346.476,670.111 347.381,664.216C346.868,663.693 346.352,663.172 345.836,662.652C334.217,650.913 322.496,638.956 309.329,628.944C307.404,627.481 305.079,626.407 302.869,625.452L290.628,620.163C290.147,620.51 289.664,620.851 289.177,621.186C287.626,622.253 284.162,623.985 279.095,624.593C275.042,625.078 268.403,625.167 263.092,625.092C249.787,637.669 236.914,652.54 225.075,666.148C218.927,673.215 211.155,684.842 204.964,691.034L200.235,695.764L193.547,695.721C183.782,695.659 173.55,694.225 164.037,693.927C149.461,701.66 135.486,707.508 118.534,709.924L115.792,710.314L113.079,709.761C98.159,706.718 90.455,697.678 88.38,683.988C86.554,671.943 91.196,653.323 101.825,630.954L102.255,630.049L102.794,629.205C103.927,627.431 106.354,621.833 107.541,619.465C113.259,608.058 122.369,593.873 132.246,585.935C135.772,583.103 141.772,580.857 149.304,580.997C152.287,581.053 155.7,581.47 159.042,582.021C159.66,580.157 160.22,578.299 160.682,576.467C165.386,557.797 171.159,539.5 176.39,520.987L178.928,512.003L187.998,509.792C192.077,508.798 199.692,507.829 204.057,507.206C208.354,506.594 212.474,505.969 216.593,505.288C218.142,493.51 220.012,481.499 221.358,469.745C221.358,469.745 222.648,457.911 223.623,448.969C209.44,454.239 195.253,459.999 181.063,464.467C174.51,466.53 167.409,469.409 160.828,471.081L130.447,478.801L141.659,450.571C133.474,451.86 124.871,453.277 117.112,453.799L28.311,457.111L78.993,425.337C78.993,425.337 155.885,377.136 179.301,363.429C187.056,358.89 199.847,350.663 207.426,347.153L209.481,346.201L211.719,345.857C218.496,344.815 226.948,345.168 234.155,344.715ZM915.909,312.671C911.897,305.692 907.474,297.82 902.948,291.273C890.705,273.571 873.752,257.157 856.277,244.627C849.59,239.832 840.977,235.275 833.901,230.395C833.788,238.171 833.326,247.989 832.596,255.724C812.491,237.811 789.325,219.382 770.396,201.086C765.266,205.32 757.216,212.553 752.03,216.014C741.354,202.927 730.582,189.917 719.714,176.987C714.559,170.805 708.333,162.794 703.096,157.043C693.39,165.719 683.318,174.636 673.82,183.521C665.178,191.606 657.27,199.766 648.315,207.653C643.509,201.733 638.331,196.261 633.279,190.559L610.211,164.424C598.118,150.811 585.016,135.173 572.763,122.022C559.949,135.958 546.518,148.94 533.026,162.205C514.762,180.348 496.366,198.361 477.843,216.24C462.295,200.571 447.273,186.017 431.434,170.698L347.622,268.306C340.209,261.448 332.418,254.419 325.263,247.348C316.707,259.753 308.142,271.01 299.248,283.127L274.855,316.812C267.977,326.319 261.051,335.791 254.077,345.227C251.4,348.782 244.137,359.718 240.14,360.225C232.363,361.21 222.088,360.451 214.151,361.671C206.928,365.016 194.773,372.912 187.383,377.237C164.064,390.887 87.492,438.893 87.492,438.893L116.277,437.819C126.638,437.122 138.85,434.652 149.275,433.267C154.92,432.518 160.887,431.032 166.663,430.964L156.888,455.574C163.191,453.973 169.981,451.182 176.257,449.205C198.202,442.296 220.145,432.319 242.069,425.792C241.373,430.532 241.098,436.009 240.599,440.882L237.259,471.525C235.457,487.266 232.71,503.47 231.062,518.955C222.63,520.578 214.809,521.835 206.316,523.046C202.37,523.609 195.476,524.437 191.787,525.337C186.598,543.704 180.864,561.854 176.197,580.377C174.522,587.023 171.711,594.016 169.283,600.437C163.431,599.18 146.824,594.748 142.268,598.408C134.005,605.048 126.628,617.091 121.845,626.634C120.477,629.365 117.584,635.774 116.277,637.82C101.575,668.761 98.12,690.38 116.277,694.084C132.668,691.748 145.878,685.652 160.096,677.875C170.718,677.809 182.488,679.651 193.649,679.722C199.626,673.744 207.068,662.469 213.003,655.647C226.644,639.968 241.647,622.698 257.082,608.878C260.402,609.216 277.921,609.509 280.106,608.005C292.275,599.631 302.475,587.116 313.604,577.197C319.398,572.034 326.234,566.342 331.568,560.869C326.785,568.85 323.374,576.952 319.584,585.419C315.978,593.473 311.684,602.345 309.215,610.764C312.588,612.221 316.074,613.973 319.012,616.206C332.774,626.671 345.063,639.127 357.208,651.396C359.655,653.869 362.082,656.334 364.333,658.989C363.102,667.571 361.728,676.131 360.21,684.667C368.486,684.133 376.73,683.333 385.089,682.815C389.747,691.91 391.54,698.641 393.871,708.352C415.12,708.226 437.875,708.136 459.069,708.553C457.545,704.396 456.055,700.214 454.487,696.077C445.205,671.583 425.591,653.282 408.726,633.942C401.159,625.266 393.977,616.262 386.411,607.57C393.994,611.361 408.345,616.057 416.638,619.019C422.477,616.2 430.773,610.58 436.818,607.261C456.75,596.319 475.754,584.88 494.974,572.748C491.201,583.958 486.384,599.769 483.384,611.145C494.141,607.652 504.819,603.92 515.41,599.955C515.638,605.358 516.853,612.39 517.223,618.271C528.11,617.377 537.516,615.463 548.213,613.446C538.402,630.412 528.003,646.23 517.654,662.786C510.496,674.237 505.316,692.409 503.109,705.953C517.759,702.175 532.686,699.125 547.817,698.405C558.777,697.988 569.752,698.209 580.686,699.065C591.802,699.98 604.073,702.243 615.134,700.83C619.028,700.333 622.176,698.86 625.535,696.901C641.559,687.556 696.21,639.529 700.441,621.655C702.872,611.392 691.318,601.932 686.37,594.198L686.045,593.684C689.532,591.112 692.688,588.802 696.323,586.422C699.463,586.718 702.937,586.768 706.112,586.88C704.721,591.138 703.377,593.641 701.259,597.612C709.45,601.762 721.858,601.943 730.504,600.03C729.947,606.411 729.734,613.312 728.536,619.569C726.498,630.222 722.682,640.608 718.55,650.587C750.551,650.027 769.993,641.947 795.802,624.085C796.091,629.204 796.72,631.837 800.055,635.738C827.259,618.04 838.089,604.893 852.637,576.709C873.79,577.876 881.235,569.784 884.879,549.591C896.304,547.216 898.605,544.687 901.675,533.002C904.23,523.267 903.659,516.094 899.894,506.787C899.136,504.908 898.034,501.537 898.277,499.489C899.417,492.097 903.019,484.545 905.027,477.327C906.941,470.438 906.956,463.384 906.972,456.348C913.542,446.604 913.519,444.591 916.277,433.261L916.277,417.577C914.534,410.466 914.488,407.385 911.847,399.517C913.519,396.747 914.886,392.977 916.277,389.911C925.882,365.642 926.645,339.745 916.568,314.039C916.383,313.567 916.162,313.11 915.909,312.671ZM795.117,433.381C797.769,434.115 801.616,436.597 803.926,438.077L807.019,448.998C796.983,451.159 795.074,440.907 795.117,433.381Z" style="fill:rgb(146,0,0);"  data-color="color-3"/>
        <path d="M571.02,149.128C572.821,149.997 620.838,206.796 624.373,211.733C627.953,216.758 631.278,221.961 634.335,227.321C639.18,235.902 639.169,239.295 648.266,244.604C663.709,253.615 679.998,257.344 697.177,261.214C686.232,251.709 674.078,239.6 666.236,227.293C671.759,220.318 677.205,212.951 682.787,206.056C689.413,197.873 695.1,191.239 700.823,182.319C709.821,194.117 718.209,207.441 726.798,219.604C729.979,224.11 736.17,234.509 739.722,237.987C742.395,240.605 753.526,247.089 757.008,249.121L788.37,267.087C781.738,257.114 773.623,249.131 765.405,240.49C777.045,243.48 787.779,244.664 796.26,254.076C803.96,262.619 813.556,271.087 820.205,280.473C818.337,270.037 817.688,264.69 812.406,255.372C828.386,269.235 840.586,278.616 855.619,293.952C849.705,279.012 847.698,271.323 847.492,255.253C853.375,261.606 860.259,266.867 866.695,272.664C873.309,278.544 879.24,285.151 884.376,292.359C894.216,306.384 906.222,333.849 907.198,350.979C908.456,373.141 898.691,398.239 883.82,414.663C895.877,387.185 893.137,355.497 875.676,330.949C876.132,343.343 874.823,351.035 871.416,362.703C867.273,344.115 855.983,325.452 841.297,313.33C843.967,329.801 845.895,336.767 842.859,353.641C837.582,345.273 830.605,338.108 822.381,332.609C823.302,339.625 822.83,343.499 821.897,350.355C815.041,338.689 791.239,315.66 780.316,307.03C767.683,311.688 748.061,320.572 736.898,327.402C725.026,299.329 738.752,279.778 764.339,266.937C746.958,263.921 730.746,263.81 714.805,272.375C699.62,280.533 687.473,292.786 682.342,309.417C669.788,301.284 658.241,288.039 649.952,275.818C635.159,308.332 639.81,328.656 656.241,358.641C644.441,353.537 636.571,349.577 625.188,343.642C633.714,377.14 657.288,411.242 691.256,422.318C680.527,406.522 676.376,396.985 677.266,378.168C686.841,392 697.616,404.514 715.875,403.886C712.445,401.587 709.218,399 706.228,396.152C693.119,383.738 683.835,365.025 683.305,346.804C687.456,351.935 690.977,357.416 695.524,362.581C707.433,375.955 723.001,389.805 741.505,391.798C748.029,392.501 753.135,387.669 752.87,381.064C752.559,373.262 750.006,368.459 744.484,362.998C750.263,364.444 762.382,365.302 768.816,366.112C762.402,356.535 756.477,350.541 747.121,343.896C763.698,348.242 779.341,359.034 792.744,369.412C791.38,361.527 789.895,351.654 787.724,344.124C798.65,354.377 810.231,363.175 820.739,374.162C836.713,390.866 848.368,409.345 859.952,429.208C866.178,439.884 870.665,449.632 874.256,461.514C875.775,466.419 877.649,471.325 878.483,476.421C881.117,465.299 879.373,454.83 881.247,443.973C881.887,440.266 888.522,432.083 890.563,427.464C892.721,422.579 894.339,419.13 895.404,413.53C895.595,412.527 896.02,412.149 896.801,411.751C900.441,413.009 901.214,423.254 901.019,426.698C900.542,435.088 895.11,440.006 889.318,445.223C890.626,455.159 890.751,462.596 888.938,472.61C886.519,485.962 880.082,498.933 882.807,512.679C881.01,513.68 879.252,514.435 877.38,515.276C865.339,513.763 850.162,503.836 837.785,504.328C834.468,504.46 830.798,506.773 828.051,508.601C815.402,517.012 813.932,529.52 805.511,540.637C810.298,539.262 814.48,537.596 819.077,535.762C822.02,540.592 823.226,542.54 827.307,546.359C827.22,541.536 827.547,530.956 829.563,526.769C830.924,523.987 833.157,521.723 835.922,520.324C850.752,512.748 867.238,532.23 889.723,524.873C888.017,530.584 887.214,533.037 881.476,535.548C876.423,535.038 876.349,534.502 871.87,536.555C872.97,543.761 867.988,549.379 863.937,555.058C864.109,549.265 862.529,541.294 863.277,536.335C864.095,535.352 865.452,535.273 866.875,534.705L866.547,534.244C856.54,531.847 852.68,529.905 842.081,530.042C842.095,532.259 842.211,534.282 842.341,536.492C847.649,542.037 851.811,539.815 859.647,549.898C856.094,551.316 854.571,552.019 851.291,553.991C852.757,557.35 853.862,559.419 855.682,562.622C831.59,565.509 824.916,546.612 797.621,563.329C815.68,563.206 820.398,563.844 836.015,572.894C829.449,590.491 822.039,596.387 807.565,607.823C810.556,599.777 810.898,594.603 810.72,586.222C801.955,597.707 782.048,612.047 769.242,618.809C766.062,620.469 762.334,622.145 759.065,623.708C769.901,612.078 771.305,593.34 771.663,578.312C760.766,586.893 751.168,595.644 743.63,607.44C743.059,593.291 746.096,583.867 748.263,570.149C749.193,564.259 749.186,557.627 749.264,551.633C739.945,562.867 731.44,569.279 718.016,574.319C723.236,570.286 725.68,567.634 728.832,561.697C735.477,549.176 735.866,525.553 731.502,512.346C728.137,521.102 725.045,526.059 719.571,533.367C718.33,522.185 716.097,511.05 715.191,499.805C714.568,492.062 714.159,484.319 713.872,476.558C721.328,486.508 726.063,491.501 736.772,497.722C726.716,484.285 715.075,463.372 710.473,447.302C708.175,439.277 706.476,428.926 704.968,420.559C700.851,431.094 694.909,443.637 690.17,454.136C680.106,476.43 668.977,502.161 653.569,521.259C645.966,530.684 632.831,542.43 623.649,550.672C638.12,574.458 661.163,596.298 680.014,616.914C670.118,629.366 659.301,638.391 647.7,649.159C636.334,659.841 625.079,670.641 613.938,681.558C610.653,680.764 602.098,680.421 598.269,680.23C573.034,678.969 551.111,679.23 526.217,683.265C533.033,665.314 548.304,644.891 562.899,632.541C569.636,633.957 576.847,635.459 583.681,636.259C575.582,643.954 571.643,651.086 567.41,661.444C572.325,660.85 580.905,661.01 586.066,661.044C594.567,661.102 604.069,660.927 612.497,661.446C614.994,659.545 618.395,656.111 620.772,653.873L635.161,640.345C625.918,638.707 616.286,634.797 607.477,631.536C616.316,626.365 629.866,619.898 639.185,615.593C625.133,609.152 609.975,602.136 595.646,596.365C580.805,590.387 566.09,586.013 551.541,578.719C556.501,566.539 562.348,549.489 566.412,536.947C558.659,540.898 550.845,544.727 542.973,548.434C538.012,550.75 531.335,553.574 526.766,556.317C539.223,530.805 547.381,506.819 554.869,479.621C566.887,484.817 578.973,489.851 591.127,494.721C581.675,476.672 567.713,457.025 556.536,439.93C553.821,435.777 543.644,420.04 540.963,417.005C530.299,424.795 518.33,434.912 507.883,443.273C489.72,457.98 471.318,472.387 452.682,486.49C431.576,471.386 411.163,455.335 391.505,438.387C388.85,440.996 386.241,443.752 383.663,446.444C355.264,476.097 325.926,504.792 298.481,535.359C291.516,543.117 285.313,551.966 278.927,560.188C262.215,561.431 245.343,564.503 228.636,566.07C212.417,596.409 193.318,624.313 174.348,652.846C171.035,647.003 168.862,643.805 164.139,639.113C156.585,643.565 149.649,648.996 142.456,653.963C136.384,658.155 130.113,662.055 123.995,666.219C128.985,645.463 136.65,630.453 151.712,615.209C161.344,618.059 171.587,620.316 181.428,622.296C183.93,615.505 185.787,608.251 188.331,601.53C196.001,581.273 200.791,560.628 206.746,539.926C221.696,538.241 233.558,536.823 248.133,533.331C248.938,519.801 250.994,504.834 252.265,491.184C254.38,468.465 257.32,445.453 261.4,423.005C262.376,417.635 264.63,409.687 266.024,404.223C260.997,403.88 254.785,402.979 249.567,402.48C257.063,399.24 269.533,391.067 277.295,386.858C291.192,379.323 302.266,374.619 316.833,369.073C321.88,375.315 326.4,379.749 331.529,386.594C344.632,374.853 361.741,361.691 375.715,351.118C395.109,336.444 418.584,319.735 439.734,307.616C448.855,310.043 460.785,314.467 470.409,317.305C484.717,303.84 502.933,280.83 513.895,264.291C528.618,242.078 543.784,204.294 570.117,192.752C570.089,176.886 570.038,164.818 571.02,149.128ZM781.067,394.862C777.405,395.144 774.007,395.448 770.489,396.598C785.88,401.713 802.318,409.605 803.977,427.964C794.766,422.07 788.727,421.584 777.628,421.288C779.755,424.18 783.091,428.414 784.966,431.262C784.19,439.014 786.663,448.392 791.487,454.603C796.66,461.265 807.484,458.991 815.268,459.538C814.191,463.167 813.052,466.797 812.252,470.494C815.309,466.03 818.427,461.288 821.028,456.541C823.236,452.301 825.269,448.355 827.134,443.932C830.995,448.48 835.397,455.923 838.153,461.349C845.005,449.885 851.987,440.648 854.862,427.577C852.643,430.805 851.017,433.041 848.384,435.955C846.205,434.096 841.953,431.262 840.371,429.294C825.154,410.364 807.701,394.255 781.067,394.862ZM576.323,223.544L519.683,281.641C510.623,290.784 501.334,299.692 492.226,308.798C471.505,329.514 455.33,354.224 434.456,374.823C442.279,369.848 449.904,364.001 457.212,358.284C492.825,331.236 528.47,304.515 563.016,276.077C568.427,271.623 573.985,267.085 579.532,262.814C584.93,266.359 595.753,272.848 601.448,275.803C595.193,265.344 590.31,253.216 584.942,242.245C583.579,239.459 577.689,224.902 576.323,223.544ZM434.688,205.474C437.998,208.208 441.221,211.736 444.501,214.619C460.06,228.298 474.137,242.398 488.034,257.726C483.291,266.972 477.759,275.792 471.501,284.089C462.138,274.586 453.252,266.714 443.502,257.686C428.934,272.136 408.596,289.257 392.877,302.794C385.482,309.262 377.947,315.567 370.278,321.708C365.36,325.6 360.38,329.149 355.585,333.208C366.631,315.53 377.988,298.048 389.65,280.769C398.628,267.398 407.262,254.451 416.728,241.403C421.055,246.513 425.523,251.504 430.125,256.368L432.936,224.184C433.446,218.337 433.876,211.195 434.688,205.474ZM328.927,294.935C335.033,299.57 343.64,303.926 349.488,309.075C342.841,313.928 334.464,319.23 327.527,323.766C310.719,334.948 293.49,345.484 275.877,355.351C270.213,358.748 264.509,358.745 257.915,360.27C281.508,337.925 304.046,316.105 328.927,294.935ZM221.972,376.716L222.433,377.169C218.902,382.501 214.594,387.926 210.865,393.192C206.301,399.637 201.866,406.449 197.173,412.762C203.646,412.745 212.389,411.271 218.808,410.025C204.998,417.069 191.777,425.212 179.273,434.377C179.77,426.529 182.95,419.03 186.04,411.904C181.153,412.677 176.846,413.401 172.013,414.447C157.584,417.518 143.226,420.917 128.952,424.643C131.64,422.871 137.083,420.19 140.036,418.666L160.995,407.975L221.972,376.716ZM390.848,519.674C396.063,523.656 402.781,528.227 408.503,531.279C405.052,530.915 398.076,531.115 394.304,531.132C388.621,531.13 383.52,531.17 377.854,531.477C382.272,527.638 386.604,523.704 390.848,519.674Z" style="fill:rgb(200,151,57);"  data-color="color-1"/>
    </g>
</svg>
