<svg width="100%" height="100%" viewBox="0 0 889 889" version="1.1" xmlns="http://www.w3.org/2000/svg" xmlns:xlink="http://www.w3.org/1999/xlink" xml:space="preserve" xmlns:serif="http://www.serif.com/" style="fill-rule:evenodd;clip-rule:evenodd;stroke-linejoin:round;stroke-miterlimit:2;">
    <g transform="matrix(1,0,0,1,-10.2473,-71.486)">
        <path d="M478.247,95.713C485.189,95.204 494.628,95.609 501.787,95.86C550.803,97.582 606.012,111.541 648.712,135.797C659.826,142.11 674.309,154.207 683.768,162.424C732.39,204.666 759.946,258.565 774.807,320.66C775.899,320.915 776.98,321.213 778.048,321.554C801.941,329.114 797.359,352.999 799.198,372.772C801.292,395.284 787.218,402.508 769.195,410.478C776.221,421.097 779.596,427.499 783.769,439.326C798.037,449.546 807.633,456.257 817.307,471.531C827.69,487.926 830.955,502.161 833.878,520.888C834.916,520.784 835.958,520.72 837.001,520.695C861.581,520.199 875.916,533.798 874.934,558.732C873.411,597.357 864.091,634.834 855.065,672.251C851.043,688.921 846.592,706.363 839.948,722.164C831.471,741.736 815.202,751.582 794.912,755.711C769.928,760.794 744.593,760.825 719.297,760.37C715.697,765.054 710.089,770.907 706.035,775.374L683.418,800.245C634.384,854.033 596.95,892.722 535.183,931.466C513.155,917.801 490.257,901.238 469.247,886.122C398.72,835.282 336.017,779.298 251.186,753.566C239.591,763.318 228.598,774.956 217.286,785.112C174.54,731.476 108.541,684.379 43.986,661.632C45.397,658.838 47.094,655.888 48.683,653.176C81.856,596.538 128.652,546.687 185.291,513.385C177.039,486.899 171.691,447.443 170.245,419.76C165.927,337.097 189.549,261.889 245.582,200.021C290.39,150.547 352.234,117.353 417.204,102.782C436.642,98.422 458.341,96.652 478.247,95.713ZM800.166,645.847C788.497,656.388 777.835,665.968 763,672.105C758.588,664.945 756.163,662.088 749.652,656.726C737.693,667.504 728.965,675.471 715.748,684.789C714.394,685.791 712.855,686.871 711.576,687.944C713.128,689.16 719.201,693.999 720.988,694.268C730.262,695.663 787.526,694.016 790.173,690.061C793.734,684.744 800.644,654.811 801.314,647.238C800.803,646.006 801.242,646.399 800.166,645.847Z" style="fill:rgb(31,54,46);"  data-color="color-4"/>
        <path d="M476.799,71.755L476.828,71.753C484.503,71.223 494.796,71.6 502.63,71.875C555.33,73.726 614.657,88.85 660.566,114.929C672.881,121.924 689.026,135.201 699.508,144.306C748.749,187.086 778.247,240.784 794.97,302.599C810.181,310.365 817.114,322.838 820.33,337.413C822.604,347.723 822.085,359.692 823.095,370.549C824.176,382.172 822.373,391.375 819.013,399.007C815.347,407.336 809.451,413.977 801.844,419.633C802.475,421.074 803.094,422.562 803.712,424.121C817.543,434.223 827.407,442.623 837.583,458.69C846.178,472.262 850.827,484.534 854.03,498.257C865.682,500.719 875.179,505.95 882.42,513.104C893.16,523.714 899.723,539.183 898.915,559.677C897.33,599.886 887.792,638.928 878.396,677.88C874.075,695.785 869.208,714.494 862.022,731.585L861.971,731.703C850.146,759.005 828.001,773.469 799.697,779.229C776.714,783.905 753.46,784.698 730.189,784.518C727.957,786.982 725.727,789.388 723.799,791.512L701.164,816.403L701.154,816.414C650.513,871.965 611.728,911.783 547.936,951.797L535.253,959.753L522.531,951.86C500.051,937.915 476.672,921.03 455.222,905.597L455.213,905.591C390.407,858.875 332.736,807.154 256.858,780.656C248.954,788.038 241.22,795.877 233.32,802.971L214.38,819.974L198.517,800.07C158.432,749.772 96.547,705.599 36.009,684.268L10.247,675.19L22.564,650.81C24.193,647.586 26.141,644.176 27.974,641.046C60.107,586.183 104.356,537.391 157.532,502.405C151.481,476.272 147.511,444.62 146.278,421.012C141.617,331.791 167.315,250.686 227.793,183.91C275.897,130.797 342.203,95.007 411.951,79.364C432.602,74.732 455.633,72.762 476.799,71.755ZM478.247,95.713C458.341,96.652 436.642,98.422 417.204,102.782C352.234,117.353 290.39,150.547 245.582,200.021C189.549,261.889 165.927,337.097 170.245,419.76C171.691,447.443 177.039,486.899 185.291,513.385C128.652,546.687 81.856,596.538 48.683,653.176C47.094,655.888 45.397,658.838 43.986,661.632C108.541,684.379 174.54,731.476 217.286,785.112C228.598,774.956 239.591,763.318 251.186,753.566C336.017,779.298 398.72,835.282 469.247,886.122C490.257,901.238 513.155,917.801 535.183,931.466C596.95,892.722 634.384,854.033 683.418,800.245L706.035,775.374C710.089,770.907 715.697,765.054 719.297,760.37C744.593,760.825 769.928,760.794 794.912,755.711C815.202,751.582 831.471,741.736 839.948,722.164C846.592,706.363 851.043,688.921 855.065,672.251C864.091,634.834 873.411,597.357 874.934,558.732C875.916,533.798 861.581,520.199 837.001,520.695C835.958,520.72 834.916,520.784 833.878,520.888C830.955,502.161 827.69,487.926 817.307,471.531C807.633,456.257 798.037,449.546 783.769,439.326C779.596,427.499 776.221,421.097 769.195,410.478C787.218,402.508 801.292,395.284 799.198,372.772C797.359,352.999 801.941,329.114 778.048,321.554C776.98,321.213 775.899,320.915 774.807,320.66C759.946,258.565 732.39,204.666 683.768,162.424C674.309,154.207 659.826,142.11 648.712,135.797C606.012,111.541 550.803,97.582 501.787,95.86C494.628,95.609 485.189,95.204 478.247,95.713ZM575.05,448.328C582.225,449.155 591.404,453.631 597.991,456.693C575.917,485.676 615.986,506.882 627.808,476.27C630.401,477.619 633.514,478.889 635.298,481.056C635.661,482.782 635.499,482.283 634.268,484.319C621.056,500.67 595.906,504.944 579.034,491.986C572.639,487.064 568.508,479.764 567.582,471.748C566.494,462.403 569.535,455.402 575.05,448.328Z" style="fill:white;"/>
        <path d="M494.334,122.489C498.339,122.011 509.881,122.667 514.149,122.944C547.125,125.087 582.946,132.863 611.405,150.347C649.337,173.651 676.149,212.143 692.856,252.757C700.874,272.25 707.067,294.619 712.129,314.904C696.181,314.837 680.233,314.876 664.285,315.02C645.827,231.848 598.487,149.916 510.812,126.666C505.366,125.222 499.702,124.039 494.334,122.489Z" style="fill:rgb(255,248,229);"  data-color="color-3"/>
        <path d="M657.377,397.253C692.875,395.654 738.991,396.419 757.967,432.289C748.462,430.906 738.389,427.799 728.85,429.679C731.075,431.631 752.127,440.455 757.68,443.822C794.487,466.139 809.619,485.31 813.916,530.359C801.471,531.029 788.622,532.51 775.852,533.199C749.156,534.505 722.435,535.255 695.708,535.449C671.193,535.741 645.193,535.929 620.68,534.619C610.166,534.579 598.517,533.603 587.947,532.89C561.336,531.094 534.375,528.275 508.249,522.82C507.68,518.233 505.99,512.522 504.859,507.909C502.611,498.602 500.258,489.32 497.802,480.066C495.059,469.634 492.1,455.645 489.179,445.867C507.384,415.225 552.829,404.133 585.805,399.788C613.929,396.082 639.856,401.64 662.165,419.539C668.32,424.476 674.084,429.854 680.229,434.68C677.194,424.705 673.127,416.063 666.96,407.62C664.367,404.07 660.519,400.936 657.25,397.988L657.377,397.253ZM556.453,425.668C542.178,428.078 528.953,434.067 520.3,446.162C519.302,447.574 518.33,449.004 517.384,450.451C529.709,447.569 541.98,445.307 554.731,446.283C519.39,474.047 558.618,510.141 588.666,515.726C600.236,517.876 604.4,518.618 616.632,516.901C611.584,520.091 606.804,523.273 601.135,525.282C596.312,526.992 591.207,528.048 586.462,529.906C598.3,529.933 603.277,530.102 614.848,527.222C634.971,520.2 645.176,511.323 652.827,491.504C671.473,491.768 677.27,479.954 677.815,463.243C677.98,458.182 676.061,444.536 670.145,443.43C667.549,446.427 673.585,461.875 659.243,467.193C643.201,463.749 631.596,453.885 617.819,445.669C604.341,437.633 571.666,423.38 556.453,425.668ZM747.9,476.561C738.261,484.182 745.782,495.224 753.544,500.869C753.437,497.802 753.376,494.743 753.09,491.688C761.719,493.789 768.42,496.326 774.659,503.01C777.096,506.205 778.15,507.416 778.788,511.344C783.683,506.302 772.532,488.892 767.897,485.262C761.401,480.175 756.901,475.638 747.9,476.561ZM524.065,591.695C541.937,593.053 560.042,595.233 577.996,596.646C609.852,599.074 641.785,600.348 673.733,600.467C702.158,600.417 730.576,599.614 758.958,598.061C772.451,597.404 788.296,595.882 801.436,595.762C796.375,613.017 784.425,634.522 771.06,646.661C762.489,638.414 757.988,633.634 747.347,627.197C737.319,621.061 726.428,616.46 715.037,613.549C676.822,603.682 613.923,607.122 575.886,616.36C568.579,618.27 558.458,620.859 553.792,627.399C550.366,632.202 547.897,639.794 554.382,643.285C562.146,647.465 572.742,641.633 580.486,639.374C622.316,627.17 692.353,619.178 731.706,639.605C706.008,661.053 677.575,677.039 645.204,685.913C633.459,689.132 632.566,688.622 621.034,686.299C602.912,682.648 588.017,678.506 571.781,669.523C539.781,651.817 532.439,624.513 524.065,591.695ZM429.577,668.395C431.404,668.586 435.627,675.097 437.291,676.979C472.227,716.493 531.87,740.704 583.126,744.691C565.274,761.052 550.539,769.238 525.763,769.261C501.698,769.282 484.953,762.855 463.809,752.656C445.06,742.954 424.539,727.682 410.285,712.09C404.277,705.519 398.787,697.486 393.731,690.139C400.015,695.309 406.958,699.995 413.666,704.577C436.982,720.503 455.771,730.871 483.487,737.143C454.257,722.651 438.268,700.019 425.468,671.088L429.577,668.395ZM134.949,590.282C136.649,590.661 143.98,593.957 145.947,594.814C160.614,601.209 175.072,608.548 189.444,615.623C172.376,632.408 161.452,644.213 146.413,663.141C145.623,664.263 145.72,664.282 144.495,664.847C138.407,661.56 132.47,657.354 126.531,654.243C116.274,648.87 104.93,643.863 94.31,639.292C108.188,621.723 118.289,606.787 134.949,590.282ZM240.561,605.425C247.15,607.58 281.784,641.509 288.21,648.343C282.413,652.32 259.705,670.865 255.695,672.491C242.435,663.942 218.748,645.672 206.311,635.321C213.461,627.377 231.819,611.938 240.561,605.425ZM191.085,650.783C193.231,651.81 209.546,665.406 212.743,667.947C221.465,674.877 230.015,681.04 239.077,687.586C228.565,699.632 223.199,705.853 214.499,719.635C198.262,705.668 182.8,692.443 165.703,679.514C173.628,669.477 182.102,659.885 191.085,650.783ZM463.487,590.822C465.019,592.667 472.382,615.339 474.077,619.805C476.754,626.859 479.568,634.613 482.82,642.002C486.868,651.157 491.371,660.104 496.31,668.811C499.623,674.723 504.331,682.384 506.909,688.417C502.937,686.506 499.032,684.463 495.198,682.29C476.801,672.475 458.873,652.952 447.761,635.475C454.62,623.649 459.86,604.123 463.487,590.822ZM193.531,543.374C194.351,543.684 194.934,543.814 195.352,544.745C199.543,554.084 203.026,563.505 207.819,572.591C210.827,578.293 214.599,582.902 217.823,588.344L218.116,588.846C214.282,592.567 210.164,596.076 206.137,599.595C200.177,596.275 194.447,593.381 188.355,590.308C176.674,584.788 163.819,579.336 152.463,573.684C164.532,562.931 179.457,551.345 193.531,543.374Z" style="fill:rgb(86,133,69);"  data-color="color-2"/>
        <path d="M676.603,339.275C699.484,338.043 726.256,339.557 749.048,341.185C755.821,341.669 768.704,343.133 775.135,344.78C776.968,351.555 777.542,361.97 778.067,369.151C758.616,368.256 739.864,366.391 720,366.082C654.827,365.068 587.893,370.404 524.046,383.554C509.146,386.623 465.484,397.272 457.595,409.581C458.838,415.945 461.02,423.651 462.645,430.079L472.33,468.13C477.986,490.175 484.67,518.746 491.351,540.236C509.663,544.603 540.36,548.137 559.079,550.006C609.244,554.644 659.634,556.404 710.001,555.277C753.31,554.808 796.571,552.236 839.631,547.569C842.558,547.249 846.754,546.766 849.092,549.05C850.651,550.573 851.272,552.416 851.442,554.557C851.71,557.935 850.669,568.062 848.182,570.372C838.554,579.317 684.23,580.46 662.934,580.131C636.705,579.689 610.494,578.503 584.332,576.574C566.707,575.198 549.137,573.2 531.654,570.581C523.027,569.236 506.065,565.511 498.526,565.309L497.763,565.293C513.533,638.043 536.326,690.292 617.261,703.27C660.994,710.282 697.905,715.914 743.125,716.013C758.964,716.129 781.339,714.989 796.707,711.014C802.261,709.577 808.577,705.712 811.062,700.419C814.126,693.893 812.562,689.307 810.358,683.083C811.259,678.764 812.547,673.528 813.797,669.295C821.438,643.417 824.413,617.148 829.234,590.801C834.472,590.001 839.526,589.234 844.733,588.227C840.772,621.561 833.607,654.891 825.244,687.377C822.998,696.101 821.206,705.973 817.514,714.167C813.804,722.399 807.888,727.949 799.467,731.127C760.304,745.905 661.933,736.953 619.672,728.269C601.753,724.587 583.952,719.714 567.288,712.067C520.716,690.696 500.259,651.312 486.337,604.676C482.041,590.287 478.791,575.242 473.56,561.181C450.211,558.737 414.658,552.862 395.565,539.192C400.881,533.518 404.169,529.603 408.144,523.004C420.127,527.553 453.017,535.33 466.388,537.28C463.726,524.828 458.748,508.996 455.286,496.443C448.712,472.693 442.272,448.906 435.966,425.083C424.98,433.872 402.699,472.071 395.718,484.965C388.85,481.065 382.158,477.018 375.211,473.124C388.888,449.167 406.206,418.251 425.141,398.419C434.971,388.287 446.597,380.068 459.427,374.18C471.533,368.537 486.977,363.822 499.959,360.622C557.776,346.373 617.281,340.7 676.603,339.275ZM360.933,486.516C376.039,485.848 399.316,497.791 394.892,515.936C393.796,520.433 390.156,523.837 386.206,525.926C376.049,528.18 360.093,519.767 354.399,511.318C349.02,503.337 352.697,491.489 360.933,486.516Z" style="fill:rgb(255,248,229);"/>
        <path d="M439.019,136.212C443.693,135.677 451.842,136.123 456.742,136.382C483.292,137.782 509.064,145.181 531.858,159.291C564.947,179.775 591.688,216.784 607.722,251.788C617.159,272.388 623.17,295.148 628.379,316.941C599.147,318.987 570.015,322.284 541.065,326.824C440.915,342.676 403.361,362.953 357.045,455.136C338.894,441.3 317.7,433.113 298.113,449.633C276.306,468.044 274.57,503.71 293.326,524.878C308.638,542.16 328.939,544.088 346.151,528.67C354.125,534.447 361.991,539.515 370.249,544.841C390.468,557.732 404.648,563.937 427.633,570.246C422.144,594.153 408.461,615.579 384.781,624.944C363.222,633.552 333.958,624.286 318.311,607.886C291.699,579.994 268.206,563.321 233.071,547.831C230.256,541.256 227.452,532.35 225.295,525.543C214.989,493.076 208.616,459.489 206.315,425.504C201.886,352.115 220.604,278.141 270.426,222.758C313.658,174.701 373.75,140.017 439.019,136.212ZM306.329,691.929C308.286,691.627 317.481,696.432 319.927,697.632C342.015,708.365 363.465,720.366 384.17,733.574C400.559,744.022 416.217,755.327 432.737,765.537C444.201,772.67 456.004,779.241 468.106,785.228C493.697,797.756 515.828,803.954 543.45,809.052C542.602,816.488 542.21,824.644 541.429,832.28C539.839,848.001 537.686,863.659 534.975,879.226C531.257,877.127 527.588,874.944 523.969,872.68C513.131,866.272 500.659,857.312 490.344,849.97C470.505,835.843 451.015,821.23 431.894,806.146C385.157,769.639 337.418,730.97 279.674,713.611C286.705,706.14 297.6,696.96 306.329,691.929ZM643.511,752.638C652.565,753.992 661.599,755.476 670.61,757.091C665.374,764.098 655.641,774.629 649.564,781.378C622.36,811.593 592.955,841.059 561.159,866.389C556.397,870.322 549.922,874.695 544.789,878.113C551.875,849.064 556.694,836.506 558.243,805.896C591.138,796.931 618.851,775.172 643.511,752.638ZM232.938,571.953C238.041,572.608 244.233,576.45 248.965,578.562C292.089,597.809 312.568,647.909 364.365,648.587C393.515,648.969 407.983,640.765 428.356,621.809C427.05,624.277 425.225,626.906 423.682,629.27C415.023,643.188 398.086,652.879 382.439,655.907C348.202,662.533 319.392,645.015 296.278,621.511C280.139,605.099 261.01,589.605 241.589,577.255C238.735,575.44 235.796,573.85 232.938,571.953ZM690.791,203.393C693.228,205.417 698.706,212.626 700.756,215.533C720.928,244.129 737.587,283.464 746.697,317.014C742.51,316.16 737.552,315.822 733.244,315.415C729.543,284.083 715.183,247.662 700.892,219.701C698.015,214.07 693.418,209.041 690.791,203.393ZM414.22,487.211C417.824,489.823 422.064,504.941 421.287,509.156L420.325,509.416C418.447,508.836 416.515,508.167 414.641,507.549C412.399,502.224 411.98,498.117 411.18,492.365C412.112,490.659 413.217,488.89 414.22,487.211Z" style="fill:rgb(173,89,0);"  data-color="color-1"/>
    </g>
</svg>
