<svg width="100%" height="100%" viewBox="0 0 921 464" version="1.1" xmlns="http://www.w3.org/2000/svg" xmlns:xlink="http://www.w3.org/1999/xlink" xml:space="preserve" xmlns:serif="http://www.serif.com/" style="fill-rule:evenodd;clip-rule:evenodd;stroke-linejoin:round;stroke-miterlimit:2;">
    <g transform="matrix(1,0,0,1,-47.9143,-265.136)">
        <path d="M708.467,296.316C725.425,288.505 744.397,276.988 762.664,273.441C768.705,272.268 783.473,273.817 788.812,276.883C797.62,281.942 802.026,280.143 811.905,280.835C829.863,282.65 854.861,285.62 870.049,295.707C881.589,306.379 880.157,314.317 895.177,322.459C913.866,332.588 944.471,342.205 960.643,354.547L960.643,363.425C943.636,407.601 896.77,392.33 861.288,388.721C852.005,387.82 842.7,387.164 833.382,386.752C803.403,385.338 777.873,385.949 767.438,351.774C766.827,364.049 769.329,374.639 777.77,383.907C778.757,384.981 779.775,386.027 780.821,387.045C734.33,391.081 700.9,415.83 671.186,450.461C653.579,470.981 640.911,497.238 621.003,514.65C602.028,531.245 572.199,541.25 548.885,550.771C535.453,556.256 520.92,561.309 509.813,571.164C500.925,557.021 487.582,535.669 483.964,519.043C481.357,507.061 488.744,490.517 491.313,478.82C505.697,427.96 480.566,384.622 427.855,372.912C409.622,368.975 390.663,370.054 372.995,376.035C436.44,376.518 501.219,402.75 479.356,478.697C476.547,489.373 472.185,500.196 471.607,511.281C470.862,525.559 477.366,538.649 483.98,550.758C494.841,570.642 505.549,589.706 526.409,600.566C543.191,609.302 560.878,612.036 579.458,614.198C609.91,618.219 644.288,615.701 670.022,635.303C674.83,638.969 679.2,645.065 679.017,651.243C678.637,663.982 664.311,666.243 654.383,665.969C635.439,665.445 620.111,654.198 601.986,650.535C592.301,648.739 581.454,648.993 571.755,648.542C542.445,647.182 493.329,647.767 472.278,623.982C447.979,596.524 443.935,547.409 414.968,522.877C404.48,513.995 391.727,513.86 378.714,513.238C339.626,510.362 302.524,506.161 275.921,473.53C270.148,466.447 266.884,460.945 262.253,453.225C222.647,482.043 183.541,514.94 130.151,506.655C105.401,502.814 77.504,489.775 60.936,470.72C60.743,470.498 60.526,470.297 60.29,470.121C54.348,465.719 54.681,462.562 59.936,460.382C60.421,460.177 60.948,460.092 61.474,460.133C67.704,460.703 71.805,465.285 77.271,468.322C97.743,479.561 124.537,487.67 148.229,484.164C196.763,476.981 238.375,439.729 274.117,408.516C278.68,404.531 283.381,400.161 287.618,396.049C325.724,359.054 369.718,324.378 423.307,314.653C459.87,307.906 490.453,315.202 526.008,321.662C542.071,324.621 558.297,326.619 574.598,327.643C621.733,330.926 657.475,325.817 700.754,306.837C717.314,321.494 738.233,315.854 755.415,305.073C739.956,310.263 719.082,310.983 708.467,296.316ZM411.341,535.486C420.235,539.867 438.027,585.954 442.476,597.27C437.814,599.912 431.881,604.057 427.317,607.079C417.887,613.363 408.425,619.597 398.929,625.782C361.764,649.364 324.185,672.288 286.21,694.543C273.763,701.671 261.428,709.366 248.731,715.979C240.927,720.044 232.68,722.811 225.518,716.268C201.711,685.64 275.731,652.29 295.493,642.769C288.242,640.883 279.47,638.692 273.126,634.668C270.67,633.109 268.13,630.95 267.601,627.923C267.216,625.714 268.14,623.648 269.486,621.94C276.212,613.403 289.333,612.681 299.237,614.096C306.253,615.098 313.221,617.471 320.38,616.662C339.202,614.532 376.776,575.885 389.576,561.686C397.193,553.235 404.256,544.38 411.341,535.486Z" style="fill:rgb(136,0,12);" data-color='color-1'/>
        <path d="M697.541,299.511C698.612,299.041 700.331,295.803 700.728,294.287C701.335,291.972 702.946,290.051 705.12,289.049C722.628,280.985 742.279,269.249 761.139,265.588C768.459,264.166 786.327,266.23 792.797,269.946C800.27,274.239 804.08,272.267 812.464,272.854C812.546,272.86 812.628,272.867 812.71,272.875C831.814,274.807 858.317,278.312 874.475,289.042C874.831,289.279 875.168,289.543 875.481,289.833C880.694,294.655 883.593,298.958 886.244,303.003C889.132,307.408 891.6,311.42 898.99,315.425C917.994,325.726 949.051,335.637 965.496,348.187C967.479,349.7 968.643,352.052 968.643,354.547L968.643,363.425C968.643,364.407 968.462,365.382 968.109,366.299C958.214,392.001 939.709,400.515 918.441,401.974C899.734,403.256 878.656,398.531 860.497,396.682C851.36,395.796 842.201,395.149 833.029,394.744C833.021,394.743 833.013,394.743 833.006,394.743C816.424,393.961 784.631,394.744 781.513,395.015C737.239,398.859 705.555,422.691 677.258,455.67C659.405,476.476 646.455,503.017 626.269,520.672C606.677,537.807 575.982,548.347 551.909,558.178C539.296,563.328 525.553,567.894 515.122,577.148C514.124,578.033 512.934,578.644 511.666,578.946C516.776,584.657 522.735,589.634 530.104,593.47C545.999,601.744 562.785,604.204 580.383,606.252C580.424,606.257 580.465,606.262 580.505,606.267C595.773,608.283 612.025,608.665 627.686,610.994C644.641,613.517 660.901,618.298 674.869,628.939L674.872,628.941C681.598,634.069 687.27,642.839 687.013,651.481C686.715,661.477 681.12,667.487 673.478,670.819C667.554,673.402 660.2,674.132 654.162,673.966C643.731,673.677 634.269,670.545 624.945,666.872C616.933,663.716 609.038,660.132 600.447,658.386C591.132,656.672 580.706,656.966 571.384,656.533C553.39,655.698 528.106,655.513 506.101,650.295C490.043,646.487 475.718,639.939 466.288,629.283C459.343,621.436 453.926,611.926 449.133,601.708C448.457,602.722 447.542,603.594 446.42,604.23C441.905,606.789 436.168,610.813 431.745,613.742C422.295,620.039 412.812,626.287 403.295,632.485C403.269,632.502 403.242,632.519 403.216,632.536C365.97,656.17 328.312,679.142 290.254,701.445C290.231,701.458 290.208,701.472 290.185,701.485C277.647,708.666 265.218,716.412 252.427,723.074C241.564,728.733 230.092,731.283 220.122,722.175C219.787,721.869 219.479,721.536 219.201,721.178C206.967,705.439 213.19,688.777 228.669,674.102C241.107,662.31 259.608,651.765 274.211,644.286C272.311,643.425 270.502,642.477 268.841,641.424L268.839,641.423C264.565,638.71 260.64,634.566 259.72,629.299L259.72,629.297C258.935,624.792 260.458,620.473 263.201,616.99L263.202,616.989C271.664,606.249 287.909,604.397 300.368,606.176C306.719,607.083 313,609.445 319.48,608.713C326.002,607.974 334.864,601.724 344.17,594.244C359.917,581.587 376.129,564.655 383.634,556.329C391.141,548 398.1,539.268 405.084,530.502C406.017,529.33 407.224,528.481 408.553,527.988C399.726,521.348 389.064,521.742 378.332,521.228C378.264,521.225 378.196,521.221 378.127,521.216C336.807,518.176 297.842,513.079 269.72,478.584C265.701,473.653 262.835,469.46 259.94,464.826C220.97,493.391 181.424,522.707 128.924,514.56C102.567,510.47 72.94,496.511 55.173,476.283C49.545,471.984 47.919,467.576 47.914,464.432C47.908,460.326 50.167,455.782 56.848,453.002C58.507,452.306 60.309,452.016 62.104,452.158C62.136,452.161 62.169,452.163 62.202,452.166C66.665,452.574 70.417,454.283 73.98,456.57C76.324,458.074 78.565,459.887 81.139,461.319C100.174,471.766 125.034,479.51 147.057,476.25C194.112,469.286 234.203,432.751 268.855,402.49C273.313,398.597 277.906,394.327 282.045,390.309C321.269,352.229 366.709,316.797 421.868,306.784C459.447,299.852 490.895,307.152 527.438,313.791L527.457,313.795C543.207,316.695 559.117,318.654 575.1,319.659C575.118,319.66 575.136,319.661 575.154,319.663C620.879,322.847 655.557,317.923 697.541,299.511ZM708.467,296.316C719.082,310.983 739.956,310.263 755.415,305.073C738.233,315.854 717.314,321.494 700.754,306.837C657.475,325.817 621.733,330.926 574.598,327.643C558.297,326.619 542.071,324.621 526.008,321.662C490.453,315.202 459.87,307.906 423.307,314.653C369.718,324.378 325.724,359.054 287.618,396.049C283.381,400.161 278.68,404.531 274.117,408.516C238.375,439.729 196.763,476.981 148.229,484.164C124.537,487.67 97.743,479.561 77.271,468.322C71.805,465.285 67.704,460.703 61.474,460.133C60.948,460.092 60.421,460.177 59.936,460.382C54.681,462.562 54.348,465.719 60.29,470.121C60.526,470.297 60.743,470.498 60.936,470.72C77.504,489.775 105.401,502.814 130.151,506.655C183.541,514.94 222.647,482.043 262.253,453.225C266.884,460.945 270.148,466.447 275.921,473.53C302.524,506.161 339.626,510.362 378.714,513.238C391.727,513.86 404.48,513.995 414.968,522.877C443.935,547.409 447.979,596.524 472.278,623.982C493.329,647.767 542.445,647.182 571.755,648.542C581.454,648.993 592.301,648.739 601.986,650.535C620.111,654.198 635.439,665.445 654.383,665.969C664.311,666.243 678.637,663.982 679.017,651.243C679.2,645.065 674.83,638.969 670.022,635.303C644.288,615.701 609.91,618.219 579.458,614.198C560.878,612.036 543.191,609.302 526.409,600.566C505.549,589.706 494.841,570.642 483.98,550.758C477.366,538.649 470.862,525.559 471.607,511.281C472.185,500.196 476.547,489.373 479.356,478.697C501.219,402.75 436.44,376.518 372.995,376.035C390.663,370.054 409.622,368.975 427.855,372.912C480.566,384.622 505.697,427.96 491.313,478.82C488.744,490.517 481.357,507.061 483.964,519.043C487.582,535.669 500.925,557.021 509.813,571.164C520.92,561.309 535.453,556.256 548.885,550.771C572.199,541.25 602.028,531.245 621.003,514.65C640.911,497.238 653.579,470.981 671.186,450.461C700.9,415.83 734.33,391.081 780.821,387.045C779.775,386.027 778.757,384.981 777.77,383.907C769.329,374.639 766.827,364.049 767.438,351.774C777.873,385.949 803.403,385.338 833.382,386.752C842.7,387.164 852.005,387.82 861.288,388.721C896.77,392.33 943.636,407.601 960.643,363.425L960.643,354.547C944.471,342.205 913.866,332.588 895.177,322.459C880.157,314.317 881.589,306.379 870.049,295.707C854.861,285.62 829.863,282.65 811.905,280.835C802.026,280.143 797.62,281.942 788.812,276.883C783.473,273.817 768.705,272.268 762.664,273.441C744.397,276.988 725.425,288.505 708.467,296.316ZM411.341,535.486C404.256,544.38 397.193,553.235 389.576,561.686C376.776,575.885 339.202,614.532 320.38,616.662C313.221,617.471 306.253,615.098 299.237,614.096C289.333,612.681 276.212,613.403 269.486,621.94C268.14,623.648 267.216,625.714 267.601,627.923C268.13,630.95 270.67,633.109 273.126,634.668C279.47,638.692 288.242,640.883 295.493,642.769C275.731,652.29 201.711,685.64 225.518,716.268C232.68,722.811 240.927,720.044 248.731,715.979C261.428,709.366 273.763,701.671 286.21,694.543C324.185,672.288 361.764,649.364 398.929,625.782C408.425,619.597 417.887,613.363 427.317,607.079C431.881,604.057 437.814,599.912 442.476,597.27C438.027,585.954 420.235,539.867 411.341,535.486Z" style="fill:white;" data-color='color-2'/>
    </g>
</svg>
