<svg width="100%" height="100%" viewBox="0 0 977 889" version="1.1" xmlns="http://www.w3.org/2000/svg" xmlns:xlink="http://www.w3.org/1999/xlink" xml:space="preserve" xmlns:serif="http://www.serif.com/" style="fill-rule:evenodd;clip-rule:evenodd;stroke-linejoin:round;stroke-miterlimit:2;">
    <g transform="matrix(1,0,0,1,-29.3758,-56.222)">
        <path d="M552.107,76.223C557.612,77.24 564.708,79.261 570.25,80.695C613.176,91.797 637.333,112.281 666.939,143.734C674.704,144.027 680.87,144.585 686.844,149.063C700.766,159.501 699.943,174.925 700.346,190.378C700.392,192.117 704.174,199.737 705.004,202.242C707.859,210.863 709.431,219.414 710.971,228.381C722.03,229.795 733.532,231.322 743.335,237.004C755.444,244.022 758.14,251.778 750.854,263.56C754.042,269.096 755.929,273.904 756.632,280.292C759.631,307.533 746.89,334.907 717.59,338.224C713.916,347.509 708.65,356.49 703.795,365.229C712.323,371.701 721.053,377.573 729.68,384.311C741.018,393.167 752.902,403.655 764.47,411.938C777.62,409.099 788.184,410.181 800.91,413.842C807.568,404.274 808.958,401.692 820.031,397.222C811.568,365.108 817.507,350.295 838.982,326.17C857.64,305.208 883.416,288.76 912.818,294.63C921.345,296.333 927.25,302.723 931.314,309.849C957.767,312.858 968.322,325.737 967.957,352.232C990.866,368.773 990.075,402.624 977.099,425.182C964.711,446.716 944.934,459.042 921.511,465.64C920.92,469.732 919.786,473.727 918.138,477.519C911.996,491.963 903.155,501.745 888.699,507.582C885.154,512.22 883.18,515.573 878.991,520.324C862.299,539.259 838.73,554.795 814.516,562.14C775.443,573.993 731.697,564.485 694.677,549.779C680.847,544.286 665.409,536.167 652.288,529.161C630.447,558.748 615.581,573.111 584.486,593.971L581.93,602.659C587.76,605.889 593.171,608.595 598.596,612.595C628.624,634.739 644.279,673.045 634.976,709.284C640.94,715.205 648.913,725.416 654.454,732.13C659.489,725.913 662.948,724.395 670.177,722.102C672.664,722.967 675.156,723.818 677.653,724.655C683.742,718.774 688.728,717.297 695.188,723.379C701.143,715.508 703.81,710.883 713.624,707.931C717.366,701.571 718.666,699.462 725.112,695.742L728.909,698.064C743.261,680.782 766.71,669.263 789.295,671.316C807.737,672.993 820.767,680.15 827.749,697.592C844.742,703.555 848.807,713.452 846.312,730.449C852.808,732.037 857.474,735.201 858.441,742.503C859.118,747.615 856.792,760.127 853.835,764.35C851.96,767.029 838.595,766.323 835.35,766.177C834.283,772.879 832.319,776.81 828.837,782.471C836.1,787.592 839.864,790.641 835.739,799.77C827.785,817.369 823.2,822.841 804.304,814.852C794.374,827.791 786.005,831.545 772.566,840.197C762.18,846.989 751.848,853.864 741.573,860.821C743.745,867.134 747.031,872.787 749.168,879.805C746.98,887.233 740.437,901.095 732.748,904.484C728.596,906.314 719.96,902.111 715.955,900.339C708.071,909.719 694.214,920.313 682.506,924.221C677.329,923.14 675.538,922.558 670.978,919.945C667.224,920.625 661.624,920.948 657.923,919.815C654.041,918.809 651.027,913.294 647.438,912.009C628.015,905.055 613.695,894.932 604.447,875.693C597.606,861.462 596.308,848.024 601.655,832.499C586.333,826.328 585.922,814.181 590.522,800.381C590.162,799.821 589.789,799.271 589.404,798.729C584.811,792.198 567.819,772.626 558.599,770.212C557.588,769.948 556.957,770.916 556.439,771.561C556.385,772.633 560.65,784.593 561.41,786.913C531.754,789.127 511.785,779.649 496.027,754.296C486.664,759.645 481.23,761.868 471.201,765.165C450.713,807.486 413.628,836.574 365.466,836.116C360.816,836.017 356.856,835.471 352.284,834.727C355.512,831.946 357.912,829.395 360.848,826.309C350.58,824.599 342.677,823.283 332.792,819.467C328.99,818.456 323.311,813.937 319.567,813.509C308.391,812.231 298.423,811.373 287.408,808.697C285.021,820.563 280.261,827.25 267.935,822.012C261.657,829.906 260.921,832.702 251.548,836.915C251.395,837.545 250.354,841.795 249.826,842.52C247.88,844.794 239.096,860.369 237.858,860.674C229.071,862.839 233.12,863.463 227.008,869.856C229.834,879.027 223.236,882.254 216.279,886.072C214.459,889.259 212.636,892.422 210.557,895.46C195.169,917.942 165.885,932.249 139.317,921.328C135.544,919.777 132.336,916.84 128.917,914.641C125.427,912.396 121.352,910.549 118.083,908.018C115.938,906.33 114.038,904.352 112.437,902.14C106.291,893.626 105.498,883.625 107.11,873.505C101.801,870.058 97.066,867.802 97.33,860.707C97.554,854.681 99.129,846.904 103.256,842.262C104.942,840.366 110.137,840.921 112.54,840.986C115.078,835.274 119.151,828.624 122.119,822.78C119.313,819.934 117.076,817.499 114.456,814.476C116.644,809.143 121.012,802.104 126.416,799.693C131.105,797.6 134.026,798.991 138.447,800.53C147.197,790.641 157.162,777.876 162.685,766.08C165.919,759.173 168.577,751.956 171.899,744.856C162.417,739.625 161.838,736.359 167.372,726.29C170.109,721.309 173.903,716.675 178.68,713.527C181.566,713.569 184.016,714.01 186.858,714.432C189.546,711.833 191.402,710.112 194.393,707.822C198.881,703.555 206.336,705.185 211.234,703.531C222.681,699.665 231.439,697.282 243.918,699.583C258.262,702.228 275.083,712.251 283.615,724.316C292.317,721.685 297.655,720.344 306.672,721.451C310.079,716.052 313.356,711.815 317.303,706.89C310.859,697.1 306.739,690.313 302.117,679.289C294.333,681.417 286.465,683.222 278.532,684.701C220.992,695.334 154.715,692.373 105.083,658.233C117.742,659.319 120.576,658.182 133.126,656.053C125.672,652.503 118.864,649.958 111.293,645.944C89.067,634.266 70.26,617.007 56.721,595.862C67.816,593.326 78.437,592.505 90.56,589.581C75.642,577.821 63.741,566.49 53.244,550.467C45.739,539.01 49.504,538.923 60.524,535.7C77.97,530.598 93.922,530.358 111.744,532.098C107.441,524.479 104.364,518.943 100.887,510.955C150.926,511.183 191.327,529.572 231.156,558.617C248.676,571.392 265.541,585.416 284.226,596.455C289.892,599.802 297.068,603.085 303.077,606C305.556,597.801 307.819,593.711 311.873,586.368C309.213,582.045 306.918,579.081 306.551,573.633C305.713,561.213 315.605,546.207 323.257,537.379C309.321,534.785 297.864,529.397 286.94,520.399C272.744,527 263.224,521.16 250.842,514.761C241.862,516.396 233.616,517.025 224.859,514.209C222.272,513.376 217.254,511.545 214.892,511.039C205.089,508.94 198.853,507.581 189.83,502.515C168.748,490.679 152.993,467.664 146.216,444.782C144.647,439.485 144.743,430.633 142.485,426.002C141.218,423.403 135.296,418.227 132.88,415.577C120.789,402.313 111.315,389.689 106.492,372.09C98.948,345.232 103.568,317.487 117.434,293.462C134.355,264.144 163.999,244.444 196.049,234.99C199.87,233.863 203.877,232.988 207.646,231.765C214.901,229.412 221.942,226.376 229.371,224.536C274.659,213.469 330.107,222.738 370.32,245.934C372.459,240.832 374.612,238.442 378.027,234.141C371.301,231.966 368.301,231.162 361.398,230.893C369.086,214.784 378.172,208.484 392.944,199.956C385.771,191.826 379.871,182.915 375.814,172.75C366.681,149.929 374.328,118.987 399.286,110.226C412.626,105.543 426.265,108.553 438.651,114.425C444.061,110.612 447.877,108.452 453.786,105.478C449.178,101.919 444.76,99.23 439.703,96.388C444.677,93.63 451.978,91.336 457.482,89.954C477.14,85.017 489.965,85.7 509.254,89.957C505.891,84.461 500.084,80.886 494.869,77.094C520.857,76.395 534.238,77.941 558.403,88.753C557.011,85.235 553.917,79.705 552.107,76.223Z" style="fill:rgb(43,44,23);"/>
        <path d="M513.694,430.408C518.016,430.665 536.466,435.642 541.501,437.001C554.724,440.57 570.115,443.714 583.034,447.785C586.362,452.701 594.083,468.95 597.493,475.382C588.575,498.917 580.676,523.123 572.471,546.917C571.709,549.128 569.41,556.324 568.209,557.636C563.191,563.117 548.495,571.099 542.129,574.257L539.497,575.943C520.674,571.267 495.843,567.629 477.716,562.282C471.844,553.823 466.172,545.228 460.703,536.503C469.364,506.991 479.216,477.135 488.46,447.775C491.163,444.967 509.058,433.544 513.694,430.408ZM518.125,460.831C532.425,464.085 546.666,467.594 560.842,471.355C561.775,473.095 562.554,475.219 563.298,477.072C562.639,479.745 561.691,482.676 560.802,485.304C554.754,503.176 549.418,521.343 543.047,539.088C542.118,541.674 540.688,543.578 538.785,545.513C528.468,547.385 509.523,540.806 497.849,538.516C494.93,535.372 493.077,532.72 494.624,528.295C501.844,507.634 508.121,486.657 515.107,465.923C515.723,464.096 516.975,462.356 518.125,460.831Z" style="fill:rgb(43,44,23);"  data-color="color-3"/>
        <path d="M419.046,332.794C420.44,333.616 431.713,347.229 434.394,349.906C446.054,361.488 459.203,371.467 473.495,379.581C483.034,385.128 493.024,389.857 503.361,393.719C514.168,397.756 550.67,407.031 557.307,413.206C555.953,413.245 554.599,413.272 553.245,413.286C527.31,413.628 498.242,405.284 475.505,393.032C453.886,381.383 419.389,360.173 419.046,332.794ZM554.751,327.196C561.693,328.563 574.273,335.202 580.598,338.927C595.653,347.793 602.305,358.168 606.534,374.684C600.636,373.069 595.124,371.686 589.657,368.855C572.207,359.821 560.882,345.533 554.751,327.196ZM626.11,721.304C627.766,723.312 629.405,727.372 631.178,729.889C635.742,736.367 640.598,741.503 646.058,747.128C641.022,757.842 636.39,769.146 630.859,779.609C629.549,782.087 627.546,784.537 625.717,786.634C612.958,801.261 610.789,798.178 600.563,785.292C593.877,777.233 585.531,769.377 577.641,762.504C592.244,749.591 597.199,743.794 606.481,725.944C608.994,729.65 610.57,732.526 613.802,735.666C619.945,731.046 622.702,728.151 626.11,721.304ZM291.327,736.613C294.36,736.365 299.263,736.47 302.438,736.436C301.142,741.469 300.114,750.169 300.345,755.395C300.932,768.675 307.584,776.309 316.499,784.82C313.888,785.089 311.185,785.344 308.59,785.673C298.716,786.926 298.359,789.494 304.961,795.991C302.372,796.193 300.105,796.119 297.52,796.079C268.402,795.412 254.881,770.592 273.591,747.539C278.861,741.045 282.853,738.081 291.327,736.613ZM428.376,587.873C440.41,591.663 452.808,595.077 465.222,597.404C474.933,599.224 486.538,600.005 495.949,602.423C487.028,605.052 478.125,607.736 469.237,610.475C459.924,613.547 448.926,618.241 439.959,621.143C435.54,622.573 420.164,620.8 414.972,620.346C420.061,609.477 424.82,599.351 428.376,587.873ZM360.847,555.646C364.867,557.526 373.912,563.219 377.946,565.735C370.458,577.285 364.34,586.643 357.877,598.789L357.348,599.176C353.718,598.387 344.376,591.371 341.511,588.656C346.286,579.324 355.231,565.711 360.847,555.646ZM383.088,568.737C386.998,570.353 396.972,575.721 400.675,577.926C394.452,588.894 388.448,599.985 382.668,611.193C376.191,608.674 371.062,606.601 364.979,603.273C370.889,592.509 377.964,579.742 383.088,568.737ZM405.476,579.888C411.599,582.3 418.139,584.483 424.379,586.664C418.742,595.622 410.991,608.972 407.541,618.739C401.187,617.019 394.86,615.382 388.614,613.303C395.107,602.74 399.583,590.673 405.476,579.888ZM342.296,540.757C345.72,543.082 351.994,549.132 356.638,552.592C349.745,561.474 343.628,570.834 337.389,580.179C336.412,582.042 336.799,582.065 335.296,582.754C330.277,580.864 326.859,574.621 325.225,569.767C327.305,559.033 335.634,549.37 342.296,540.757ZM124.535,372.579C118.037,344.72 120.046,325.744 134.719,300.384C153.931,267.178 195.92,263.09 226.991,281.494C249.317,295.164 253.243,316.071 252.989,340.124C249.348,341.827 245.841,342.774 242.007,343.92C234.273,329.743 229.091,325.36 213.252,320.426C177.424,309.267 136.521,338.338 126.551,372.499C126.283,373.434 126.02,374.129 125.687,375.042L125.205,374.838L124.535,372.579ZM226.354,242.154C243.058,240.532 262.704,262.145 268.613,276.475C276.982,296.771 276.932,311.318 269.088,331.327C268.792,316.137 266.489,304.709 259.692,291.248C254.485,282.238 247.238,274.576 238.533,268.876C218.029,255.566 195.19,257.444 172.499,262.362C190.971,251.262 205.032,245.915 226.354,242.154ZM262.17,237.212C291.998,235.077 339.193,248.94 365.499,263.487C365.048,265.468 364.729,267.477 364.544,269.5C363.369,283.337 367.056,298.866 376.164,309.579C376.852,306.355 379.096,296.411 381.394,294.527C383.237,295.161 385.651,308.698 387.16,312.186C421.981,392.703 511.138,440.51 597.397,421.627C602.853,420.433 611.405,421.441 617.194,420.13C638.397,416.75 658.122,407.251 672.685,391.321C683.387,390.212 686.082,386.936 693.608,379.641C712.174,392.507 730.712,406.223 747.344,421.575C728.833,436.84 716.343,463.378 719.781,487.532C730.281,461.865 742.946,443.592 768.646,432.227C765.681,434.954 763.085,437.549 760.413,440.57C739.801,463.875 739.759,504.363 764.218,524.742C763.82,520.315 761.734,512.682 760.649,507.903C757.055,492.071 757.821,476.402 764.472,461.431C771.693,445.178 781.169,436.361 797.522,429.917C797.42,458.881 817.655,487.362 842.936,500.354C850.8,504.395 857.713,506.273 866.234,508.367C853.946,522.203 830.444,536.437 812.604,542.475C806.301,544.849 799.765,546.553 793.105,547.561C753.405,553.816 694.969,532.88 663.165,509.886C674.747,488.32 684.481,464.699 686.181,439.965C686.52,435.034 685.957,426.657 685.744,421.544C671.147,455.209 661.665,481.903 641.267,513.152C622.588,542.371 597.801,567.198 568.612,585.923C565.641,587.793 555.732,594.248 552.646,594.265C489.406,594.614 422.536,577.755 370.722,542.28C382.867,539.321 394.282,539.206 406.887,535.093C433.18,526.512 440.511,516.635 440.132,488.676C439.932,473.947 438.639,463.073 433.894,448.63C418.59,402.047 385.65,364.185 339.49,346.378C336.164,345.098 335.859,340.366 334.669,337.434C331.643,326.086 325.335,315.647 322.058,304.444L321.805,303.565C321.623,306.215 321.57,309.141 321.565,311.815C321.547,321.494 320.591,331.308 320.833,340.958C305.269,336.906 299.445,336.881 284.003,335.508C288.24,324.449 289.741,307.36 288.362,295.638C285.357,270.09 273.147,253.781 253.867,238.266C256.828,237.474 259.133,237.427 262.17,237.212ZM387.763,359.082L386.587,359.626C387.515,359.866 387.127,359.856 387.736,359.819L388.219,359.151L387.763,359.082ZM513.694,430.408C509.058,433.544 491.163,444.967 488.46,447.775C479.216,477.135 469.364,506.991 460.703,536.503C466.172,545.228 471.844,553.823 477.716,562.282C495.843,567.629 520.674,571.267 539.497,575.943L542.129,574.257C548.495,571.099 563.191,563.117 568.209,557.636C569.41,556.324 571.709,549.128 572.471,546.917C580.676,523.123 588.575,498.917 597.493,475.382C594.083,468.95 586.362,452.701 583.034,447.785C570.115,443.714 554.724,440.57 541.501,437.001C536.466,435.642 518.016,430.665 513.694,430.408ZM518.125,460.831C532.425,464.085 546.666,467.594 560.842,471.355C561.775,473.095 562.554,475.219 563.298,477.072C562.639,479.745 561.691,482.676 560.802,485.304C554.754,503.176 549.418,521.343 543.047,539.088C542.118,541.674 540.688,543.578 538.785,545.513C528.468,547.385 509.523,540.806 497.849,538.516C494.93,535.372 493.077,532.72 494.624,528.295C501.844,507.634 508.121,486.657 515.107,465.923C515.723,464.096 516.975,462.356 518.125,460.831ZM851.385,450.819C853.825,452.51 861.554,459.432 863.955,461.595C857.975,468.244 848.692,476.455 843.959,483.647C838.583,480.049 834.482,476.364 830.143,471.611C835.862,466.978 846.571,456.26 851.385,450.819ZM834.482,430.367C835.841,431.259 843.606,441.641 845.293,443.802C838.574,449.754 831.612,457.414 825.378,464.022L825.08,464.237L824.31,463.956C820.936,458.79 817.995,453.959 815.444,448.337C821.678,443.556 828.779,436.095 834.482,430.367ZM870.751,466.518C875.036,468.677 879.28,470.914 883.483,473.228C879.666,476.765 876.127,480.124 872.618,483.999C870.908,485.887 866.367,492.094 864.374,492.658C859.124,491.342 855.367,490.073 850.534,487.706C856.748,481.463 865.218,473.281 870.751,466.518ZM823.303,409.328C824.835,410.572 828.723,420.055 829.804,422.479C825.005,426.531 820.389,431.342 815.939,435.807C815.402,436.341 814.705,436.937 814.132,437.455L813.268,437.292C811.837,435.527 811.848,433.865 811.662,431.667C810.758,421.031 816.518,416.729 823.303,409.328ZM891.712,474.904C894.999,475.555 899.106,475.829 902.502,476.146C898.83,483.5 892.857,489.895 885.292,493.272C881.032,494.642 879.269,494.512 874.883,494.455C879.532,489.703 888.394,480.285 891.712,474.904ZM188.043,335.06C188.621,335.581 189.041,336.31 189.208,337.058C191.194,345.961 192.758,353.582 195.925,362.223C193.07,363.304 189.402,364.838 186.494,365.41L185.747,364.842C181.938,356.504 178.632,347.841 175.37,339.281L188.043,335.06ZM167.903,343.354C169.055,344.07 171.983,353.816 173.209,356.351C175.25,360.569 177.264,364.486 179.439,368.632C176.292,370.535 173.202,372.529 170.172,374.612L169.718,374.758C167.202,373.338 160.161,354.065 158.499,349.804C161.65,347.678 164.785,345.528 167.903,343.354ZM151.366,356.798C152.28,357.243 152.906,358.081 153.33,358.996C156.694,366.256 159.324,372.175 163.767,378.978C160.812,381.849 158.204,384.611 155.392,387.628L154.864,388.198C152.428,386.807 145.438,369.487 143.991,366.093C145.941,362.71 148.67,359.601 151.366,356.798ZM196.735,334.708C201.514,334.859 205.174,335.259 209.881,335.819C210.388,339.292 210.82,341.809 211.575,345.176C212.412,348.905 215.583,356.999 215.467,360.224C212.064,359.901 209.62,359.536 206.219,359.975C204.704,356.061 196.961,337.21 196.735,334.708ZM139.657,373.34C143.521,382.955 142.709,383.993 149.53,393.16C147.149,396.882 146.324,399.271 145.028,403.38C144.859,403.841 144.559,404.202 144.272,404.631C142.242,403.885 140.938,401.519 139.885,399.578C135.297,391.116 137.061,382.12 139.657,373.34ZM218.873,338.701C229.203,341.861 230.47,355.703 230.919,364.97C228.636,363.9 226.397,362.954 224.081,361.971C222.685,352.684 221.856,347.589 218.873,338.701Z" style="fill:rgb(22,109,34);"  data-color="color-1"/>
        <path d="M292.757,493.994C290.751,489.613 289.058,485.235 287.292,480.759L293.398,485.888C303.455,493.052 311.631,497.126 322.594,502.827C324.407,503.572 326.739,504.45 328.427,505.356C333.171,507.03 337.27,509.221 341.816,510.827C362.461,518.119 378.286,521.802 400.275,522.08C374.251,530.658 339.372,529.278 314.072,519.132C310.047,517.518 296.013,510.956 294.294,507.058C296.652,502.143 294.505,498.949 292.757,493.994ZM545.377,273.069C535.641,272.76 532.456,273.531 522.925,276.21C521.728,276.787 520.492,277.427 519.262,277.906C505.83,285.8 500.987,293.634 498.704,308.935C502.067,305.65 508.647,299.07 512.485,296.711C515.091,294.749 516.619,293.062 519.89,293.226C522.207,294.631 522.396,295.594 522.998,298.148C525.53,305.153 527.502,313.555 530.453,320.11C544.398,351.088 561.513,372.708 592.731,387.755C618.352,400.105 630.128,391.657 654.949,390.93C649.015,395.944 638.846,399.963 631.304,402.392C598.868,412.835 555.693,400.121 533.318,374.758C531.755,372.987 524.811,362.678 524.357,362.363L523.351,362.906C524.059,372.775 523.661,373.068 529.083,382.086C508.363,375.776 497.346,361.96 483.917,346.959C485.484,355.889 486.679,362.818 491.096,370.816C486.074,367.325 480.576,364.144 475.587,360.561C459.959,349.334 443.839,335.525 432.512,319.864C428.912,314.887 425.855,308.218 423.425,302.669C423.506,300.568 420.892,290.622 420.151,288.412L419.73,288.187L418.782,289.113L417.924,291.28C415.139,297.068 412.937,302.365 410.652,308.354C409.918,310.278 409.686,311.444 408.178,312.082C406.664,311.631 405.654,310.71 404.95,309.277C397.835,294.793 398.094,279.672 402.431,264.402C403.597,260.296 404.9,256.257 408.48,254.279L407.528,253.581C398.165,252.733 389.025,262.163 382.944,268.108C386.143,244.769 397.89,234.499 417.289,223.156C406.245,223.054 400.385,224.348 390.907,217.7C403.185,208.606 410.965,208.653 425.371,203.06C402.728,192.713 376.048,157.396 396.244,133.089C400.88,127.51 409.279,125.423 416.338,125.289C420.662,125.782 424.1,126.454 428.153,128.192C438.907,131.479 449.374,142.751 455.752,151.624C457.71,154.347 461.177,160.301 463.437,162.356C468.326,154.738 466.892,146.638 464.117,138.488L463.739,137.093C459.956,130.65 459.198,130.067 453.54,124.798C463.361,116.961 481.525,120.066 493.038,120.823C488.163,114.444 477.769,107.912 470.712,103.833C488.543,99.802 516.284,102.691 532.112,112.083L534.229,113.106C537.144,114.968 539.437,117.085 542.042,119.35C537.493,105.247 535.074,106.497 527.764,95.799C545.461,100.662 561.04,106.572 576.54,116.706C583.416,121.203 589.105,127.34 595.728,132.099C593.653,128.016 580.103,103.811 580.203,101.968C628.811,120.604 668.096,157.675 689.516,205.122C692.608,212.019 695.109,220.741 697.288,228.026C680.875,227.872 654.992,233.788 650.164,252.218C652.956,263.073 659.752,264.477 667.415,271.198C674.547,277.453 684.416,283.693 690.995,290.117C690.93,298.364 686.052,308.544 679.834,313.847C646.571,342.214 573.947,320.644 553.78,285.464C557.607,285.186 567.157,284.954 569.426,281.965C568.695,278.296 557.004,275.417 553.371,274.306L545.377,273.069ZM645.457,287.706C633.843,288.842 640.146,298.726 645.941,297.527C648.616,295.872 649.101,293.126 648.537,290.235C647.491,289.281 646.564,288.576 645.457,287.706ZM627.826,266.419C626.663,267.13 625.188,267.651 624.805,269.124C624.002,272.207 625.892,278.021 628.903,279.331C633.158,275.611 634.402,267.194 627.826,266.419ZM607.39,286.5C604.616,290.904 606.141,297.781 611.476,296.364C612.52,295.234 613.922,293.809 614.88,292.661C613.003,288.36 612.741,286.33 607.39,286.5ZM623.197,300.896C620.303,304.74 620.876,312.574 627.983,310.223C632.396,304.315 629.932,300.888 623.197,300.896ZM411.886,143.008C399.648,152.617 414.838,195.722 438.89,185.301C441.651,182.629 443.095,180.6 443.064,176.535C442.965,163.549 426.24,142.517 412.731,142.967C412.449,142.976 412.167,142.989 411.886,143.008ZM549.354,254.33C560.047,256.383 568.775,259.532 580.07,257.673C602.678,253.951 612.239,241.339 609.476,219.108C614.691,220.8 628.219,228.522 632.693,226.338L632.727,225.574C625.265,220.6 618.722,210.896 613.608,203.413C599.992,183.289 583.726,165.54 561.652,154.576C543.275,145.448 514.509,146.842 504.841,167.709L504.299,168.506C503.672,170.125 502.561,172.682 502.312,174.316C504.715,174.184 505.584,172.472 507.55,171.371C514.557,167.448 523.189,166.051 530.986,166.125C538.031,166.192 568.993,175.521 570.636,181.946C569.003,183.177 564.056,184.138 561.828,185.438C557.235,188.119 553.47,191.159 550.089,195.287C549.636,195.84 547.503,198.984 547.366,199.119C544.339,205.379 543.095,208.664 542.929,215.77C543.851,226.263 544.478,230.598 548.38,240.131C542.417,238.698 536.704,237.117 530.627,236.258C529.107,236.043 522.375,235.525 521.606,235.181C519.566,235.118 517.394,235.193 515.342,235.227C498.849,236.355 486.055,241.86 474.671,254.262C472.308,256.837 470.898,259.849 468.874,262.549C468.659,263.005 467.229,266.113 467.058,266.364C464.911,272.986 464.547,274.288 463.957,281.129L464.045,285.66L464.448,287.258C465.014,290.886 466.277,293.273 466.959,297.066L467.058,297.64L467.527,297.812C469.502,293.844 470.323,289.263 471.682,285.035C475.389,273.501 481.08,264.686 491.539,258.483C512.101,246.29 527.052,248.854 548.923,254.141L549.354,254.33ZM736.214,310.939C732.673,318.379 727.637,322.546 719.405,323.833C716.643,324.217 715.681,323.953 712.973,323.486C707.718,321.826 702.861,318.548 700.082,313.702C703.879,307.427 705.022,303.209 706.803,296.098C720.027,290.25 729.273,284.136 738.917,273.428C742.386,285.17 742.134,291.64 739.726,303.544L739.403,304.089C738.446,306.363 737.678,308.608 736.179,310.539L736.214,310.939ZM396.624,513.917C393.306,514.026 384.429,513.175 381.005,512.629C351.757,507.964 320.334,497.664 297.095,478.738C293.191,475.558 289.295,472.478 286.278,468.527L285.923,468.013C279.441,462.188 277.433,447.921 275.332,438.971C287.671,438.598 295.596,435.331 301.918,424.268L302.066,423.272C302.199,422.915 302.331,422.558 302.464,422.201C305.145,414.28 304.552,405.616 300.816,398.134L300.078,397.397C294.194,380.843 260.385,372.809 244.846,370.882C245.447,365.764 245.571,363.785 245.59,358.467C252.098,356.206 256.886,354.708 263.724,353.301C288.072,348.288 314.362,353.003 337.302,361.84C341.953,363.631 348.002,366.01 352.098,368.804C354.9,370.28 357.489,371.591 360.139,373.336C366.392,376.946 370.099,380.563 375.628,385.237C399.999,405.843 415.946,435.614 425.197,465.771C428.822,477.588 429.972,490.96 428.911,503.023C427.919,501.67 426.748,499.977 425.676,498.742C423.477,495.761 421.243,492.812 419.24,489.696C417.959,488.785 413.474,482.009 412.311,480.661C408.739,476.52 391.653,452.371 388.83,451.507C388.366,448.99 387.764,447.821 386.777,445.491C387.867,444.62 387.955,444.865 389.538,444.62C394.172,437.384 394.37,433.597 384.68,432.574C383.569,434.553 383.23,435.434 381.662,436.986L381.17,437.48C381.057,437.587 380.945,437.694 380.832,437.802C379.007,436.756 377.495,434.652 376.156,433.003C375.421,432.294 374.257,430.771 373.564,429.925C374.438,429.142 373.895,429.049 375.589,427.929C376.181,426.786 376.147,426.557 376.005,425.281L377.599,423.892L379.503,420.843C374.656,412.522 370.718,418.228 366.361,423.075C363.093,419.86 360.776,417.534 357.855,414.035C358.805,413.045 358.916,413.052 360.125,412.355C362.962,412.719 364.835,412.813 366.305,409.847C366.794,404.266 362.588,403.309 358.344,402.61C356.233,403.725 354.108,405.675 351.1,407.291C349.85,406.731 344.452,403.078 342.867,402.07C346.495,399.279 344.694,398.664 349.669,399.277C351.333,398.047 351.613,396.35 350.662,394.473C349.929,393.034 348.528,392.055 346.925,391.86C343.152,391.372 339.724,394.764 337.028,397.089C335.35,395.684 333.079,394.16 331.263,392.859C333.022,389.062 337.29,386.814 334.423,382.286C329.749,378.882 324.595,383.633 321.446,386.656C317.534,384.71 312.547,381.641 308.976,385.708C308.112,389.633 311.393,392.35 314.301,394.454L314.009,394.948C311.738,398.72 308.796,400.517 309.154,404.099C311.504,407.399 315.889,406.004 318.768,404.13C318.557,403.684 318.346,403.237 318.135,402.79C318.886,401.824 320.214,400.215 320.864,399.26C323.306,401.139 326.499,403.737 329.007,405.369C326.432,408.535 321.895,413.695 325.469,417.839C330.758,419.223 333.187,413.691 335.66,410.284C338.64,413.317 341.205,415.191 344.595,417.787C340.769,419.255 338.132,425.054 339.351,428.62C340.599,429.961 340.497,429.877 342.246,430.442C344.438,429.267 345.997,428.574 348.485,428.599C347.595,425.213 347.83,424.942 349.762,422.042C352.894,425.136 355.844,428.103 359.19,430.979C357.658,432.593 355.995,433.986 355.305,436.05C356.597,436.496 356.121,436.38 357.537,436.358L357.655,437.08C355.862,438.762 356.196,437.965 355.918,440.087C357.124,441.436 358.825,442.148 360.629,442.101C363.227,440.736 362.66,440.086 364.51,438.089L365.196,437.357C367.35,439.638 372.064,444.296 373.818,446.55L374.472,446.493L372.402,449.058L368.552,453.617C367.461,455.149 367.039,455.983 365.445,457.011C366.229,458.951 366.143,458.88 367.704,460.243L369.258,460.098C371.404,460.1 371.643,460.035 373.109,458.648L376.027,455.876L378.338,454.069L379.945,453.455C381.069,454.857 382.746,457.123 384.011,458.255C384.206,461.415 391.454,468.06 393.889,471.542C401.152,481.929 415.951,501.41 420.708,512.71C415.121,513.609 411.958,514.197 406.33,513.927C402.476,514.146 400.465,514.173 396.624,513.917ZM309.086,373.492C304.903,376.264 296.083,382.871 298.192,388.483C299.838,390.029 300.398,390.154 302.543,390.1C303.831,390.06 305.118,389.996 306.403,389.908C303.566,381.206 316.412,379.412 316.196,374.818C314.633,373.691 310.983,373.311 309.086,373.492ZM387.763,359.082L388.219,359.151L387.736,359.819C387.127,359.856 387.515,359.866 386.587,359.626L387.763,359.082ZM289.965,405.094C293.563,411.588 291.625,420.326 284.394,424.784C277.237,429.196 262.902,421.497 258.183,421.608C252.431,421.743 261.78,459.015 262.626,461.652C263.696,464.245 264.457,466.644 265.32,469.299C267.265,473.396 271.353,481.96 272.854,486.017C275.083,488.844 281.104,501.801 280.486,505.516C278.459,508.459 275.197,507.75 272.171,506.624C250.041,498.38 230.473,478.963 220.034,458.106C219.848,478.154 224.021,483.565 235.432,500.487C229.963,499.63 229.068,498.634 224.275,496.54C213.322,491.753 208.733,483.721 201.707,474.648C202.171,483.497 203.054,486.252 206.886,494.351C196.075,489.238 187.7,484.092 179.483,474.906C166.742,460.661 156.757,440.807 157.474,421.285C157.905,409.559 165.86,401.742 174.176,394.217L176.55,392.262C188.176,384.158 194.507,378.693 208.838,376.7C223.574,374.65 224.885,380.747 236.862,386.24C240.865,388.076 250.593,388.214 255.333,389.31C264.783,390.665 284.305,396.453 289.97,404.726L289.965,405.094ZM355.351,810.361C343.097,809.269 331.369,803.037 321.918,795.433C333.397,795.966 342.161,792.896 352.64,789.075C328.059,776.986 311.015,766.718 318.639,736.274L319.598,733.092L321.055,729.06C321.623,727.454 322.522,725.44 323.185,723.825C324.209,720.793 325.723,717.709 326.607,714.932C329.109,718.802 332.734,722.485 335.941,725.862C352.085,742.863 372.377,753.582 394.076,761.68C399.75,763.797 408.446,765.102 412.672,766.873C425.75,769.161 432.272,768.967 445.02,769.633C442.278,773.502 437.21,780.944 434.236,784.057C432.586,787.111 421.899,797.9 419.057,800.291L417.704,801.21C407.671,810.266 394.709,816.65 382.034,820.98C384.235,816.665 389.605,808.056 388.99,803.535L388.191,802.752C386.141,802.914 385.271,804.657 383.491,805.345C380.315,807.191 379.394,807.721 375.927,808.9C371.66,809.81 366.026,811.074 361.626,810.689L355.351,810.361ZM338.01,704.639C311.282,671.275 305.723,637.597 321.529,597.541C327.852,601.405 334.698,607.162 341.055,611.369C358.477,622.897 374.732,627.915 394.852,632.698C397.875,633.259 400.922,633.565 403.559,635.035L404.159,635.949C403.519,637.835 402.224,638.732 400.406,639.606C391.885,642.209 390.036,644.337 382.362,648.326L380.671,649.905C382.545,650.356 385.118,650.405 387.052,650.227C388.892,650.286 389.746,650.318 391.559,650.114C400.13,651.144 417.039,645.64 425.555,643.217L429.607,641.809L429.877,641.697C433.292,639.986 436.868,638.617 440.552,637.609C446.495,634.171 455.893,631.363 462.288,628.809C491.046,617.326 535.297,609.673 565.582,617.781C584.637,623.028 600.829,635.628 610.596,652.811C617.757,665.483 623.804,689.257 619.756,703.478C619.604,704.014 619.447,704.548 619.284,705.081C619.055,706.689 619.116,707.538 618.042,708.737L616.855,708.729C614.137,706.879 612.976,704.876 611.567,701.937C608.259,694.665 604.135,689.041 600.028,682.246C599.19,685.934 598.596,689.072 597.985,692.806L597.93,697.46C596.206,721.156 572.325,750.59 547.394,752.602C542.623,750.113 542.228,749.299 538.881,745.013C537.502,753.794 537.324,762.035 539.626,770.653C527.776,765.677 514.109,755.681 509.229,743.386C508.862,742.446 508.524,741.494 508.216,740.532L507.504,737.907C504.478,726.381 504.826,720.515 504.854,708.649C503.914,707.232 504.555,707.765 502.681,707.249L501.717,709.503C498.749,716.554 493.56,730.943 490.603,736.436C482.936,740.981 470.18,747.674 461.143,748.529C459.798,748.734 458.355,748.994 457.01,749.109C454.172,750.428 438.811,750.552 435.256,750.38C409.103,749.109 384.089,741.463 362.501,726.416C356.976,722.566 351.372,718.553 346.817,713.517C344.186,711.863 340.111,707.025 338.01,704.639ZM905.513,450.076C893.387,447.898 890.201,447.768 879.197,442.135C883.055,450.549 888.157,453.742 895.509,458.854C878.015,457.264 855.098,436.278 846.461,421.787C852.658,423.495 858.493,425.113 864.774,426.498C850.85,417.025 843.994,411.391 837.069,394.989C832.256,383.948 831.856,371.742 835.839,360.465C840.79,346.442 866.531,350.03 876.963,355.355C885.582,359.767 892.111,367.402 895.133,376.601C896.268,379.159 896.449,380.269 896.77,383.092C897.432,385.997 896.054,391.609 895.208,394.482C875.337,401.035 861.763,392.141 851.7,375.157C851.13,376.998 851.105,377.121 850.941,379.04C855.437,398.641 869.377,416.555 891.711,410.363C892.804,410.049 893.886,409.698 894.956,409.313C904.038,442.813 950.197,433.105 953.375,400.776L952.704,400.901C947.253,409.062 940.536,413.669 930.766,415.78C920.874,417.726 909.615,414.65 908.326,403.14C907.511,395.865 909.772,391.117 912.197,384.695C922.714,356.791 968.398,354.303 969.059,390.071C969.403,408.689 959.027,425.491 944.711,436.733C938.617,441.518 924.905,448.983 917.138,449.682L915.991,450.058L913.065,450.032C910.128,450.617 908.448,450.333 905.513,450.076ZM929.212,326.72C937.22,326.517 946.766,329.126 950.367,337.01C951.631,339.778 955.171,346.46 954.256,349.299C952.38,349.905 948.241,348.914 945.993,348.771C931.744,347.866 924.285,351.953 913.815,360.476L908.335,365.39C902.253,356.297 899.782,353.356 891.782,346.2C902.537,334.21 912.755,327.343 929.212,326.72ZM899.813,310.706C904.644,309.993 909.544,311.226 914.171,312.423C897.664,319.468 889.819,324.794 881.005,340.208C877.082,338.519 874.696,337.653 870.604,336.403C863.718,334.487 859.829,334.465 852.784,334.977C864.145,322.861 883.098,312.101 899.813,310.706ZM269.767,669.1C259.156,671.934 246.429,671.175 236.009,672.75C235.538,672.955 234.992,672.881 234.593,672.556C232.769,673.143 229.065,673.157 227.165,672.937C205.516,674.411 175.151,670.185 154.472,664.346C153.098,664.213 153.123,664.184 151.832,663.656C152.758,662.747 153.257,663.078 155.005,663.013C160.583,663.123 193.916,658.341 194.96,655.731C193.704,654.303 187.714,653.627 185.517,653.249C183.042,653.094 180.294,652.375 177.841,651.835C166.146,650.577 143.533,641.601 133.16,636.373C130.775,635.343 127.902,633.833 125.526,632.658C119.508,629.627 112.363,625.913 106.945,621.984C103.358,619.383 86.949,608.601 86.303,605.289C90.008,603.853 97.426,604.066 101.755,603.501C116.347,601.6 130.385,603.51 144.973,603.587L148.113,603.072L149.138,602.07C145.825,601.324 144.206,600.468 141.132,599.039C127.875,594.487 98.364,574.4 87.101,564.34C83.108,560.773 77.554,554.526 73.802,550.391C79.691,549.448 86.07,547.914 91.907,547.217C95.44,546.306 97.872,545.987 101.506,545.502C117.181,541.9 133.779,551.625 147.666,557.15C148.709,557.564 150.094,557.2 151.077,557.463C153.082,558.002 153.791,559.094 156.004,558.845L156.235,558.49C155.082,557.387 152.832,554.34 152.002,553.706C146.408,549.436 142.367,544.525 137.852,539.107C136.698,537.972 135.472,536.609 134.348,535.418C132.307,532.959 130.275,530.313 128.285,527.797C131.47,528.701 134.66,529.59 137.855,530.461C144.903,532.167 153.745,534.836 160.463,537.74C160.884,537.925 162.072,538.406 162.396,538.64C172.989,542.027 196.371,554.197 205.146,560.672L206.684,561.722C210.762,563.685 216.444,567.777 220.205,570.466C236.687,582.248 253.259,593.399 270.498,604.046C278.249,608.834 291.827,615.566 297.598,621.98C295.901,637.825 294.641,646.999 297.22,663.337C291.138,665.053 276.704,668.854 270.64,669.151L269.767,669.1ZM176.229,580.986C182.352,588.755 187.491,592.403 195.217,598.251C215.852,613.869 241.334,624.255 267.03,627.334C272.604,628.002 276.925,628.379 282.332,626.596C281.543,625.974 281.141,625.925 280.192,625.882C270.04,625.426 224.846,605.159 213.75,599.416C206.655,595.744 183.137,581.406 177.529,581.083C177.268,581.068 177.007,581.036 176.746,581.017C176.574,581.004 176.401,580.996 176.229,580.986ZM244.846,647.759C247.143,648.031 250.71,648.603 252.905,648.401C262.736,650.758 278.754,647.596 288.47,645.374C282.394,644.479 273.658,644.348 266.887,643.575C248.062,641.456 229.543,637.18 211.695,630.832C202.444,627.501 192.611,623.31 183.516,619.506C176.383,616.523 169.224,612.53 161.856,610.135L160.947,609.846C185.428,635.92 211.063,641.69 244.846,647.759Z" style="fill:rgb(128,92,45);"  data-color="color-2"/>
        <path d="M80.899,511.641C80.759,507.558 81.871,503.467 84.184,499.954C87.902,494.31 94.219,490.924 100.978,490.955C119.368,491.039 136.577,493.332 152.976,497.549C141,483.819 131.984,467.155 127.04,450.462C125.985,446.901 124.817,438.816 124.355,435.445C122.5,433.588 119.315,430.384 118.1,429.051C103.804,413.368 92.935,398.238 87.221,377.442C78.224,345.349 83.544,312.171 100.112,283.465C119.596,249.706 153.486,226.693 190.391,215.807C194.041,214.731 197.873,213.91 201.473,212.741L201.476,212.741C209.179,210.242 216.675,207.076 224.563,205.123C224.583,205.118 224.603,205.113 224.623,205.108C263.336,195.647 308.783,199.563 347.942,213.695C352.734,205.755 358.028,199.936 364.451,194.787C361.701,190.147 359.284,185.288 357.242,180.173C344.171,147.497 356.928,103.899 392.661,91.355C402.192,88.009 411.855,87.284 421.331,88.484C423.053,84.484 426.065,81.083 430.002,78.899C436.342,75.382 445.595,72.318 452.61,70.556C462.011,68.195 470.084,66.904 477.88,66.539C481.369,60.922 487.501,57.285 494.331,57.102C512.851,56.603 525.732,57.16 539.531,60.67C544.009,57.049 549.915,55.479 555.74,56.555C561.66,57.649 569.298,59.79 575.258,61.332C619.684,72.822 646.003,93.12 676.117,124.37C684.513,125.38 691.69,127.701 698.84,133.06L698.841,133.061C717.401,146.976 719.602,166.389 720.252,186.846C721.318,189.33 723.48,194.415 723.989,195.952L723.99,195.954C725.628,200.901 726.902,205.824 727.987,210.8C736.84,212.546 745.514,215.15 753.364,219.7C765.016,226.454 771.079,234.534 773.536,242.789C775.353,248.89 775.525,255.732 772.977,263.38C774.761,267.951 775.911,272.64 776.512,278.104C780.295,312.47 764.704,345.935 731.642,355.726C731.028,356.969 730.399,358.208 729.758,359.441C733.837,362.387 737.925,365.374 741.991,368.549C751,375.586 760.35,383.685 769.608,390.827C777.548,389.916 784.943,390.174 792.581,391.427C794.129,389.611 795.667,388.076 797.412,386.68C795.497,373.736 796.184,363.091 799.071,353.132C802.893,339.945 810.85,327.693 824.043,312.873C847.31,286.733 880.07,267.697 916.734,275.017C927.613,277.19 936.345,283.403 942.929,291.496C957.378,294.615 967.682,300.793 974.9,309.244C981.975,317.527 986.447,328.51 987.642,342.916C1010.96,367 1010.47,407.274 994.435,435.155C981.352,457.897 961.729,472.515 938.153,481.249C937.654,482.656 937.106,484.046 936.512,485.418C928.942,503.187 918.192,515.602 901.653,523.695C899.323,526.917 897.272,529.832 893.993,533.55C874.926,555.179 847.981,572.889 820.322,581.279C776.975,594.428 728.363,584.681 687.294,568.366C677.846,564.614 667.673,559.707 657.927,554.712C643.714,572.544 631.054,584.926 612.964,598.393C644.885,623.286 662.304,663.597 656.548,703.272C657.065,703.874 657.584,704.483 658.104,705.098C659.928,704.408 661.916,703.74 664.13,703.038C667.469,701.979 671.013,701.82 674.408,702.555C679.349,700.115 684.21,699.232 688.925,699.523C692.113,696.312 695.542,693.775 700.157,691.643C703.941,685.927 707.172,683.003 715.115,678.42C717.433,677.082 719.95,676.247 722.516,675.911C740.924,659.22 766.479,649.16 791.106,651.398C814.825,653.555 831.98,662.525 842.606,682.195C852.162,687.021 858.191,693.301 862.015,700.527C864.699,705.598 866.338,711.408 866.812,718.131C872.955,722.919 876.944,729.884 878.268,739.877C879.385,748.31 875.097,768.851 870.219,775.82C867.892,779.145 863.576,783.078 856.618,784.918C856.484,784.953 856.347,784.988 856.207,785.022C856.316,785.367 856.416,785.714 856.509,786.063C858.02,791.733 858.164,798.712 853.965,808.005L853.964,808.007C845.671,826.355 836.801,834.791 826.087,837.467C821.851,838.525 816.825,838.799 810.692,837.683C802.754,845.236 794.701,849.735 783.45,856.976C777.711,860.729 771.989,864.508 766.284,868.312C767.011,870.126 767.698,872.001 768.301,873.979C769.439,877.717 769.457,881.708 768.353,885.456C766.256,892.576 761.145,903.964 754.711,911.777C750.502,916.887 745.635,920.66 740.814,922.785C736.523,924.676 730.905,925.508 724.681,924.445C723.478,924.24 722.221,923.945 720.95,923.591C711.329,931.999 699.36,939.68 688.838,943.192C685.48,944.313 681.884,944.522 678.418,943.799C673.252,942.72 670.328,941.95 666.952,940.414C661.795,940.616 656.235,940.214 652.069,938.939L652.549,939.075C648.245,937.763 641.34,932.364 638.479,930.026C614.96,921.199 597.809,908.048 586.421,884.358C579.5,869.959 576.831,856.157 578.962,841.324C575.85,838.214 573.529,834.8 571.798,831.231C568.193,823.801 567.247,815.035 568.719,805.53C566.877,806.253 564.918,806.707 562.899,806.857C531.294,809.217 508.307,801.137 489.838,779.702C488.377,780.3 486.883,780.877 485.312,781.454C460.692,826.685 418.607,856.622 365.276,856.115C365.197,856.114 365.119,856.113 365.04,856.111C359.409,855.992 354.609,855.368 349.072,854.467C341.613,853.254 335.495,847.946 333.221,840.778C330.76,840.019 328.238,839.147 325.589,838.125L326.336,838.368C322.938,837.118 317.344,834.226 315.307,833.154C309.846,832.539 304.631,831.978 299.428,831.251C296.125,835.894 292.106,839.215 287.689,841.219C284.37,842.725 280.528,843.764 276.093,843.849C273.566,846.763 271.156,848.964 267.507,851.182C266.902,852.628 266.353,853.799 265.993,854.294C265.856,854.483 265.715,854.669 265.571,854.853C264.921,855.906 255.936,870.443 253.702,873.08C251.543,875.629 249.317,877.249 247.369,878.296C247.118,879.904 246.74,881.423 246.272,882.863C243.948,890.015 238.335,895.763 230.989,900.565C229.74,902.661 228.448,904.73 227.062,906.755L227.061,906.756C206.571,936.692 167.09,954.368 131.713,939.826C126.837,937.822 122.516,934.304 118.098,931.462C114.129,928.909 109.556,926.71 105.839,923.832C105.797,923.8 105.756,923.767 105.715,923.735C102.113,920.901 98.923,917.58 96.235,913.866L96.221,913.846C89.422,904.428 86.53,893.892 86.395,882.926C80.407,877.357 76.943,870.711 77.343,859.963C77.724,849.738 81.306,836.849 88.31,828.972C90.394,826.628 93.094,824.586 96.431,823.144C94.011,818.11 93.771,812.202 95.953,806.885C99.848,797.391 108.646,785.722 118.266,781.429C123.063,779.288 127.039,778.441 130.894,778.484C136.211,771.839 141.318,764.549 144.572,757.599C145.744,755.096 146.841,752.552 147.921,749.988C146.186,747.292 145.15,744.591 144.53,741.942C143.108,735.862 143.68,727.874 149.844,716.658C152.506,711.814 155.863,707.23 159.817,703.273C136.253,697.705 113.765,688.48 93.748,674.711C86.931,670.022 83.772,661.683 85.586,653.773C67.396,641.326 51.833,625.317 39.878,606.646C36.368,601.164 35.745,594.316 38.21,588.29C40.182,583.469 43.933,579.657 48.605,577.583C44.369,572.621 40.363,567.301 36.514,561.426C29.071,550.064 28.865,542.243 29.726,537.6C30.797,531.826 33.613,527.029 38.814,523.148C41.794,520.923 47.123,518.782 54.91,516.504C63.8,513.904 72.35,512.369 80.899,511.641ZM233.892,536.045C236.914,538.123 239.928,540.261 242.94,542.457C257.458,553.043 271.483,564.557 286.561,574.365C286.155,566.064 288.793,556.819 292.811,548.127C289.577,546.484 286.427,544.645 283.336,542.598C270.427,545.202 259.636,541.433 247.535,535.499C242.917,536.065 238.403,536.295 233.892,536.045ZM552.107,76.223C553.917,79.705 557.011,85.235 558.403,88.753C534.238,77.941 520.857,76.395 494.869,77.094C500.084,80.886 505.891,84.461 509.254,89.957C489.965,85.7 477.14,85.017 457.482,89.954C451.978,91.336 444.677,93.63 439.703,96.388C444.76,99.23 449.178,101.919 453.786,105.478C447.877,108.452 444.061,110.612 438.651,114.425C426.265,108.553 412.626,105.543 399.286,110.226C374.328,118.987 366.681,149.929 375.814,172.75C379.871,182.915 385.771,191.826 392.944,199.956C378.172,208.484 369.086,214.784 361.398,230.893C368.301,231.162 371.301,231.966 378.027,234.141C374.612,238.442 372.459,240.832 370.32,245.934C330.107,222.738 274.659,213.469 229.371,224.536C221.942,226.376 214.901,229.412 207.646,231.765C203.877,232.988 199.87,233.863 196.049,234.99C163.999,244.444 134.355,264.144 117.434,293.462C103.568,317.487 98.948,345.232 106.492,372.09C111.315,389.689 120.789,402.313 132.88,415.577C135.296,418.227 141.218,423.403 142.485,426.002C144.743,430.633 144.647,439.485 146.216,444.782C152.993,467.664 168.748,490.679 189.83,502.515C198.853,507.581 205.089,508.94 214.892,511.039C217.254,511.545 222.272,513.376 224.859,514.209C233.616,517.025 241.862,516.396 250.842,514.761C263.224,521.16 272.744,527 286.94,520.399C297.864,529.397 309.321,534.785 323.257,537.379C315.605,546.207 305.713,561.213 306.551,573.633C306.918,579.081 309.213,582.045 311.873,586.368C307.819,593.711 305.556,597.801 303.077,606C297.068,603.085 289.892,599.802 284.226,596.455C265.541,585.416 248.676,571.392 231.156,558.617C191.327,529.572 150.926,511.183 100.887,510.955C104.364,518.943 107.441,524.479 111.744,532.098C93.922,530.358 77.97,530.598 60.524,535.7C49.504,538.923 45.739,539.01 53.244,550.467C63.741,566.49 75.642,577.821 90.56,589.581C78.437,592.505 67.816,593.326 56.721,595.862C70.26,617.007 89.067,634.266 111.293,645.944C118.864,649.958 125.672,652.503 133.126,656.053C120.576,658.182 117.742,659.319 105.083,658.233C154.715,692.373 220.992,695.334 278.532,684.701C286.465,683.222 294.333,681.417 302.117,679.289C306.739,690.313 310.859,697.1 317.303,706.89C313.356,711.815 310.079,716.052 306.672,721.451C297.655,720.344 292.317,721.685 283.615,724.316C275.083,712.251 258.262,702.228 243.918,699.583C231.439,697.282 222.681,699.665 211.234,703.531C206.336,705.185 198.881,703.555 194.393,707.822C191.402,710.112 189.546,711.833 186.858,714.432C184.016,714.01 181.566,713.569 178.68,713.527C173.903,716.675 170.109,721.309 167.372,726.29C161.838,736.359 162.417,739.625 171.899,744.856C168.577,751.956 165.919,759.173 162.685,766.08C157.162,777.876 147.197,790.641 138.447,800.53C134.026,798.991 131.105,797.6 126.416,799.693C121.012,802.104 116.644,809.143 114.456,814.476C117.076,817.499 119.313,819.934 122.119,822.78C119.151,828.624 115.078,835.274 112.54,840.986C110.137,840.921 104.942,840.366 103.256,842.262C99.129,846.904 97.554,854.681 97.33,860.707C97.066,867.802 101.801,870.058 107.11,873.505C105.498,883.625 106.291,893.626 112.437,902.14C114.038,904.352 115.938,906.33 118.083,908.018C121.352,910.549 125.427,912.396 128.917,914.641C132.336,916.84 135.544,919.777 139.317,921.328C165.885,932.249 195.169,917.942 210.557,895.46C212.636,892.422 214.459,889.259 216.279,886.072C223.236,882.254 229.834,879.027 227.008,869.856C233.12,863.463 229.071,862.839 237.858,860.674C239.096,860.369 247.88,844.794 249.826,842.52C250.354,841.795 251.395,837.545 251.548,836.915C260.921,832.702 261.657,829.906 267.935,822.012C280.261,827.25 285.021,820.563 287.408,808.697C298.423,811.373 308.391,812.231 319.567,813.509C323.311,813.937 328.99,818.456 332.792,819.467C342.677,823.283 350.58,824.599 360.848,826.309C357.912,829.395 355.512,831.946 352.284,834.727C356.856,835.471 360.816,836.017 365.466,836.116C413.628,836.574 450.713,807.486 471.201,765.165C481.23,761.868 486.664,759.645 496.027,754.296C511.785,779.649 531.754,789.127 561.41,786.913C560.65,784.593 556.385,772.633 556.439,771.561C556.957,770.916 557.588,769.948 558.599,770.212C567.819,772.626 584.811,792.198 589.404,798.729C589.789,799.271 590.162,799.821 590.522,800.381C585.922,814.181 586.333,826.328 601.655,832.499C596.308,848.024 597.606,861.462 604.447,875.693C613.695,894.932 628.015,905.055 647.438,912.009C651.027,913.294 654.041,918.809 657.923,919.815C661.624,920.948 667.224,920.625 670.978,919.945C675.538,922.558 677.329,923.14 682.506,924.221C694.214,920.313 708.071,909.719 715.955,900.339C719.96,902.111 728.596,906.314 732.748,904.484C740.437,901.095 746.98,887.233 749.168,879.805C747.031,872.787 743.745,867.134 741.573,860.821C751.848,853.864 762.18,846.989 772.566,840.197C786.005,831.545 794.374,827.791 804.304,814.852C823.2,822.841 827.785,817.369 835.739,799.77C839.864,790.641 836.1,787.592 828.837,782.471C832.319,776.81 834.283,772.879 835.35,766.177C838.595,766.323 851.96,767.029 853.835,764.35C856.792,760.127 859.118,747.615 858.441,742.503C857.474,735.201 852.808,732.037 846.312,730.449C848.807,713.452 844.742,703.555 827.749,697.592C820.767,680.15 807.737,672.993 789.295,671.316C766.71,669.263 743.261,680.782 728.909,698.064L725.112,695.742C718.666,699.462 717.366,701.571 713.624,707.931C703.81,710.883 701.143,715.508 695.188,723.379C688.728,717.297 683.742,718.774 677.653,724.655C675.156,723.818 672.664,722.967 670.177,722.102C662.948,724.395 659.489,725.913 654.454,732.13C648.913,725.416 640.94,715.205 634.976,709.284C644.279,673.045 628.624,634.739 598.596,612.595C593.171,608.595 587.76,605.889 581.93,602.659L584.486,593.971C615.581,573.111 630.447,558.748 652.288,529.161C665.409,536.167 680.847,544.286 694.677,549.779C731.697,564.485 775.443,573.993 814.516,562.14C838.73,554.795 862.299,539.259 878.991,520.324C883.18,515.573 885.154,512.22 888.699,507.582C903.155,501.745 911.996,491.963 918.138,477.519C919.786,473.727 920.92,469.732 921.511,465.64C944.934,459.042 964.711,446.716 977.099,425.182C990.075,402.624 990.866,368.773 967.957,352.232C968.322,325.737 957.767,312.858 931.314,309.849C927.25,302.723 921.345,296.333 912.818,294.63C883.416,288.76 857.64,305.208 838.982,326.17C817.507,350.295 811.568,365.108 820.031,397.222C808.958,401.692 807.568,404.274 800.91,413.842C788.184,410.181 777.62,409.099 764.47,411.938C752.902,403.655 741.018,393.167 729.68,384.311C721.053,377.573 712.323,371.701 703.795,365.229C708.65,356.49 713.916,347.509 717.59,338.224C746.89,334.907 759.631,307.533 756.632,280.292C755.929,273.904 754.042,269.096 750.854,263.56C758.14,251.778 755.444,244.022 743.335,237.004C733.532,231.322 722.03,229.795 710.971,228.381C709.431,219.414 707.859,210.863 705.004,202.242C704.174,199.737 700.392,192.117 700.346,190.378C699.943,174.925 700.766,159.501 686.844,149.063C680.87,144.585 674.704,144.027 666.939,143.734C637.333,112.281 613.176,91.797 570.25,80.695C564.708,79.261 557.612,77.24 552.107,76.223ZM808.32,706.125C818.936,705.118 825.547,705.515 832.73,713.621C823.967,712.297 815.01,713.293 806.752,716.512C796.109,720.666 787.589,729.226 780.215,737.71C772.305,746.944 765.074,756.738 758.578,767.017C750.117,780.588 743.47,793.247 733.902,806.236C711.223,837.024 680.693,855.99 664.936,892.086C662.422,899.677 662.247,901.359 662.244,909.445C651.202,903.556 657.116,896.74 660.322,888.376C669.09,865.151 686.909,849.206 704.364,832.488C722.109,815.493 731.791,798.023 743.037,776.835C756.081,752.261 778.61,711.176 808.32,706.125ZM373.564,429.925C374.257,430.771 375.421,432.294 376.156,433.003C377.495,434.652 379.007,436.756 380.832,437.802C380.813,441.017 376.73,443.298 374.472,446.493L373.818,446.55C372.064,444.296 367.35,439.638 365.196,437.357C367.189,435.004 369.976,431.45 372.304,429.642L373.564,429.925ZM690.061,325.845C696.152,331.468 698.55,333.415 706.104,336.515C701.769,347.729 686.231,367.207 678.048,376.448C669.057,376.488 660.772,378.154 651.975,378.285C651.93,375.186 652.104,373.979 652.554,371.007C651.578,372.107 649.662,374.266 648.619,375.182C642.515,380.54 629.86,378.998 622.066,378.389C622.797,372.826 624.325,367.791 626.105,362.499L632.337,340.974C652.12,341.39 657.104,338.793 675.113,332.611C673.295,342.201 666.343,356.46 660.718,364.47C673.365,360.4 685.628,337.732 690.061,325.845ZM575.932,196.143C587.886,196.206 595.633,201.383 600.155,212.317C584.701,207.415 576.049,208.39 573.534,226.774C573.067,230.185 573.279,232.447 573.679,235.861C574.798,239.19 575.549,240.753 577.116,243.909C571.772,244.012 568.174,244.056 562.983,242.767C553.357,227.389 553.559,199.88 575.932,196.143ZM698.762,244.703C706.156,244.197 712.494,245.153 718.354,249.96L705.355,262.64C704.551,262.747 703.054,260.556 702.346,259.713C696.597,252.872 693.642,253.172 686.217,249.814C686.156,245.676 695.686,244.955 698.762,244.703ZM773.446,824.983C771.416,827.088 769.225,828.901 766.554,830.155C750.595,836.809 741.826,850.168 726.935,854.786C723.076,855.983 710.452,855.936 705.418,856.309C718.669,841.806 730.867,831.294 743.357,814.831C765.622,785.487 776.056,743.855 810.914,726.804C814.439,725.08 826.963,721.532 830.12,723.542C833.823,728.347 829.084,741.958 827.643,747.479C822.821,765.964 812.63,779.32 801.352,794.224C792.753,805.588 786.636,813.359 775.754,822.743L773.446,824.983ZM791.574,746.151C791.04,747.866 790.857,748.154 791.165,750C793.602,753.578 802.207,756.783 797.805,761.665C793.112,761.732 788.523,751.346 783.564,757.877C778.991,763.9 765.904,775.577 778.159,780.58C783.135,782.318 789.365,785.177 794.736,782.999C802.803,779.729 811.664,759.94 807.419,751.97C804.267,749.466 800.26,748.47 796.764,746.544C794.904,745.519 793.589,745.935 791.574,746.151ZM774.792,821.785C776.957,818.04 781.947,807.668 781.609,803.397C781.292,799.392 766.582,789.42 763.101,793.787C761.906,802.011 771.185,798.839 771.573,805.676C771.628,806.639 771.01,807.958 770.284,808.672C768.352,808.337 762.391,803.224 758.417,801.286C754.43,804.351 745.089,815.155 744.827,820.102C744.467,826.889 760.717,831.257 766.242,829.398C768.274,827.686 769.753,827.301 772.708,824.574L774.792,821.785ZM733.622,873.828C737.074,875.9 738.769,879.061 737.718,883.064C736.302,884.083 737.085,883.869 735.26,883.609C733.196,882.52 731.117,881.185 729.117,879.961C730.514,877.891 732.119,875.832 733.622,873.828ZM844.634,735.647C847.159,736.884 850.272,740.593 848.903,743.497L847.762,743.752L841.904,742.559L844.634,735.647ZM619.842,835.583C618.388,835.152 618.086,835.319 617.159,834.378L618.396,833.986C630.633,832.998 642.436,824.418 650.224,815.354C656.437,808.123 658.652,801.421 659.502,792.114C660.734,799.682 660.876,804.994 658.096,812.252C651.877,828.488 637.381,838.415 619.842,835.583ZM255.422,795.866C263.262,796.84 281.61,803.726 276.6,814.135C274.599,815.228 273.258,816.069 271.008,815.422C268.788,813.48 268.011,809.775 266.42,808.164C261.142,802.821 259.025,802.638 255.422,795.866ZM234.098,807.226C236.274,807.619 254.157,821.498 255.681,823.384C255.919,825.293 255.137,826.592 254.396,828.415C253.835,828.758 253.095,829.084 252.489,829.379C246.694,829.337 234.053,813.04 234.098,807.226ZM693.742,732.738L694.635,733.635C695.284,740.377 699.331,754.94 691.079,756.286C683.786,749.623 688.577,739.126 693.742,732.738ZM688.247,883.33C686.792,885.588 685.119,887.223 683.292,889.183C684.325,886.893 685.505,884.568 686.614,882.305C688.66,878.543 690.163,875.832 692.72,872.382C695.354,876.239 698.796,882.712 696.829,887.395C693.193,888.713 691.108,882.581 688.247,883.33ZM342.867,402.07C344.452,403.078 349.85,406.731 351.1,407.291L352.199,408.697C351.678,411.562 346.755,415.582 344.595,417.787C341.205,415.191 338.64,413.317 335.66,410.284C337.527,407.779 340.691,404.473 342.867,402.07ZM221.98,830.147C227.291,830.905 239.154,831.785 242.379,835.376C243.166,838.053 242.194,840.559 239.663,841.873C236.673,841.737 201.402,835.1 200.024,834.165C198.759,833.307 197.58,831.009 197.444,829.509C197.33,828.248 197.661,826.966 198.658,826.122C199.767,825.184 201.911,824.745 203.347,825.076C205.216,825.508 206.9,827.214 208.659,828.023C211.846,829.487 216.696,829.41 220.158,829.756L218.669,828.036C215.732,823.789 205.842,811.29 212.822,807.089C214.35,807.168 215.297,807.391 216.338,808.779C218.563,811.749 223.968,822.207 224.869,825.427C224.417,827.231 223.171,828.234 221.638,829.288L221.98,830.147ZM331.263,392.859C333.079,394.16 335.35,395.684 337.028,397.089C334.424,399.832 331.508,402.642 329.007,405.369C326.499,403.737 323.306,401.139 320.864,399.26C322.811,396.371 324.477,393.134 327.352,391.458C329.446,391.388 329.106,391.639 331.263,392.859ZM667.708,729.352C669.344,729.309 670.341,729.22 671.642,730.192C672.674,733.043 668.465,738.984 667.463,743.083C665.668,750.424 668.026,756.897 660.68,760.445C653.849,756.772 656.152,751.07 657.889,744.601C659.571,738.334 662.605,733.431 667.708,729.352ZM688.324,727.039L688.96,727.756C688.761,730.233 685.297,735.412 684.347,738.309C682.405,744.232 683.06,755.517 678.273,759.605C676.582,760.161 676.249,759.954 674.543,759.537C668.397,752.27 677.819,729.628 688.324,727.039ZM357.855,414.035C360.776,417.534 363.093,419.86 366.361,423.075C364.448,425.426 361.545,429.214 359.19,430.979C355.844,428.103 352.894,425.136 349.762,422.042C352.381,419.284 354.937,416.472 357.855,414.035ZM704.744,718.801C711.445,719.628 707.704,729.881 708.992,734.739C710.825,741.651 714.752,744.451 707.945,749.138C706.773,749.037 706.533,748.943 705.379,748.668C702.059,745.901 701.187,741.827 700.633,737.739C699.556,729.798 699.92,725.245 704.744,718.801ZM721.887,704.901C723.848,705.006 724.373,704.868 725.924,706.086C728.266,709.739 725.602,716.602 726.296,720.453C726.9,723.803 728.402,725.889 728.863,729.999C728.47,731.726 727.294,732.579 726.01,733.881C717.34,735.064 716.143,711.561 721.887,704.901ZM314.301,394.454C311.393,392.35 308.112,389.633 308.976,385.708C312.547,381.641 317.534,384.71 321.446,386.656C319.127,389.19 316.662,391.999 314.301,394.454ZM222.488,844.365C228.103,844.665 238.101,847.345 237.623,854.448C236.013,855.076 235.143,855.369 233.571,854.511C229.793,852.45 223.942,848.415 222.488,844.365ZM269.942,730.982L270.33,731.358C269.681,733.584 261.076,740.927 259.312,744.451C257.241,748.109 255.642,751.652 254.281,755.627C253.397,758.21 253.317,761.934 251.091,763.366C246.001,755.027 255.184,740.971 261.881,735.675C264.8,733.366 266.62,732.39 269.942,730.982ZM206.801,840.808C211.395,840.935 219.724,849.048 221.707,853.297C222.21,854.376 221.043,855.812 220.496,856.705C219.718,856.807 218.808,857.118 218.172,856.718C213.124,853.54 204.076,847.657 206.801,840.808ZM822.747,789.757C824.542,791.144 827.864,794.864 825.996,797.063L824.688,797.069C822.703,796.264 821.379,795.599 819.468,794.613L822.747,789.757ZM204.67,713.355C205.432,713.563 205.065,713.346 205.615,714.219C204.896,716.646 195.924,730.499 193.84,735.246C186.503,751.946 181.256,769.657 171.762,785.203C167.201,792.852 160.415,799.077 154.938,805.944C136.564,828.981 120.209,856.759 122.037,887.276C122.198,889.965 123.659,898.459 123.077,900.578L122.142,899.743C121.41,898.651 120.714,897.535 120.054,896.398C113.832,885.482 118.077,863.464 121.258,852.155C126.376,833.075 137.911,815.211 151.314,800.727C164.315,786.676 169.075,776.033 176.625,758.88C180.084,751.102 183.675,743.381 187.393,735.723C192.399,725.258 194.125,719.188 204.67,713.355ZM388.83,451.507C387.436,455.025 386.876,455.802 384.011,458.255C382.746,457.123 381.069,454.857 379.945,453.455C379.446,452.369 379.574,452.827 379.66,451.549C381.063,449.455 384.078,445.129 386.777,445.491C387.764,447.821 388.366,448.99 388.83,451.507ZM188.42,844.823C191.038,845.044 192.878,845.488 195.034,847.094C201.845,852.168 229.384,867.563 216.827,877.171C212.473,876.955 212.019,872.823 209.795,868.993C203.743,858.565 191.73,857.683 184.668,850.115C185.95,847.93 186.863,846.782 188.42,844.823ZM229.747,789.913C230.395,789.913 231.826,789.928 232.353,790.181C237.257,792.531 252.573,802.322 254.601,806.422C254.3,807.985 253.24,808.749 252.086,809.929C248.189,810.213 230.221,798.509 226.884,795.342C227.78,793.253 228.62,791.863 229.747,789.913Z" style="fill:white;"/>
    </g>
</svg>
