<?xml version="1.0" encoding="UTF-8" standalone="no"?>
<!DOCTYPE svg PUBLIC "-//W3C//DTD SVG 1.1//EN" "http://www.w3.org/Graphics/SVG/1.1/DTD/svg11.dtd">
<svg width="100%" height="100%" viewBox="0 0 815 933" version="1.1" xmlns="http://www.w3.org/2000/svg" xmlns:xlink="http://www.w3.org/1999/xlink" xml:space="preserve" xmlns:serif="http://www.serif.com/" style="fill-rule:evenodd;clip-rule:evenodd;stroke-linejoin:round;stroke-miterlimit:2;">
    <g transform="matrix(1,0,0,1,-96.4695,-43.9468)">
        <path d="M483.807,59.211C484.174,59.179 484.542,59.151 484.909,59.128C505.062,57.869 533.947,62.32 535.023,87.731C594.149,98.524 650.124,121.04 695.069,161.958C702.318,168.558 708.161,175.05 714.689,182.332C723.852,184.851 734.165,187.331 743.25,190.537C758.756,196.01 792.79,204.783 788.692,226.923C787.046,235.815 782.58,248.568 779.641,257.539C774.14,274.331 769.289,291.931 763.238,308.482C795.02,314.327 823.286,324.733 825.759,361.462C828.225,398.074 810.718,426.326 788.239,453.127C792.922,461.723 794.284,468.845 793.629,478.523C819.473,479.815 840.515,482.264 864.224,494.21C893.269,508.844 903.499,537.358 887.801,566.48C899.466,594.925 898.451,623.572 887.391,652.612C877.046,679.775 854.929,711.105 828.194,723.907C819.288,728.172 811.906,726.746 803.215,723.229C801.651,732.049 800.246,736.958 797.446,745.345C808.098,770.595 808.95,789.448 801.855,815.564C812.071,840.557 812.203,866.896 797.895,890.98C756.637,960.431 660.985,973.591 589.599,951.082C548.941,938.262 514.474,910.411 477.732,889.543C461.091,880.011 443.699,871.855 425.729,865.156C414.61,860.95 403.172,856.863 391.851,853.19C355.043,841.25 318.086,822.399 291.722,793.429C297.059,809.157 304.087,821.71 313.09,835.43C300.947,831.694 293.617,829.039 282.025,824.008C239.816,805.688 205.116,757.94 189.477,715.355C190.911,732.143 191.167,752.959 192.093,770.199C180.549,760.474 171.76,751.814 163.282,739.191C139.154,703.265 134.969,660.563 143.028,619.027C129.558,629.659 121.7,637.68 112.147,651.894C111.115,642.008 111.404,630.263 112.005,620.386C114.398,575.439 130.108,532.22 157.137,496.229C137.477,482.443 123.873,465.025 116.731,441.972C108.676,415.875 111.315,387.648 124.061,363.493C139.765,333.732 165.458,315.605 197.039,305.891C193.776,300.15 190.713,294.113 188.223,288.003C170.869,245.427 220.6,228.739 250.575,217.139C253.687,210.742 257.703,202.787 261.74,196.866C291.979,152.513 341.294,119.438 391.15,101.091C409.416,94.369 426.662,90.327 445.349,86.381C448.425,65.249 465.348,60.789 483.807,59.211ZM479.617,828.753C492.742,837.192 502.811,847.263 514.531,857.432C540.552,880.09 565.704,900.191 598.138,913.261C654.325,935.904 736.636,927.842 768.998,870.495C771.481,866.094 773.853,859.065 775.737,854.195C772.94,857.277 769.859,860.09 766.536,862.596C741.718,881.519 694.8,885.848 664.361,881.846C584.628,869.796 521.451,798.258 490.114,728.023C479.155,703.46 468.376,661.971 453.613,642.347C449.383,646.709 446.353,652.693 444.257,658.352C432.652,689.694 441.043,719.849 451.829,749.778C455.852,761.151 460.32,772.362 465.221,783.385C460.955,781.337 455.991,776.738 452.337,773.568C433.126,756.904 423.214,740.712 414.67,717.298C403.318,686.192 405.872,657.159 415.853,626.191C418.063,619.337 420.59,611.468 423.638,604.905C398.544,609.366 383.449,617.108 366.088,635.758C371.003,611.11 380.115,593.245 401.575,578.62C417.023,568.092 436.651,561.313 455.513,564.689C463.005,566.03 474.803,576.231 481.798,580.456C490.606,585.777 496.215,589.413 506.141,593.152C500.488,595.673 491.788,599.237 486.89,602.692C488.388,607.857 491.512,614.994 495.139,619.196C512.929,639.808 538.556,654.12 562.448,667.425C622.35,700.784 735.282,722.557 778.399,652.736C787.967,637.243 790.762,614.742 790.565,596.853C790.556,590.963 791.63,577.742 784.676,574.826C777.362,571.759 766.889,578.943 764.714,586.083C760.96,596.424 764.017,600.381 755.51,608.141C744.234,605.859 732.952,597.555 724.013,590.3C709.287,578.346 696.25,557.231 699.859,537.516C701.224,530.053 713.173,523.02 718.845,519.006C733.658,507.993 753.476,507.826 769.948,501.428C760.772,500.443 752.17,497.844 743.183,496.388C725.044,493.449 707.04,489.061 688.783,487.161C685.5,486.82 681.839,486.417 678.641,485.377C670.319,481.687 657.052,470.182 655.338,460.943C653.874,453.053 656.513,441.506 656.825,433.38C657.279,424.087 657.615,415.171 658.28,405.914C669.818,416.329 674.932,423.055 675.756,439.373C675.826,440.794 675.886,442.216 675.937,443.639C681.222,439.33 686.798,435.294 691.986,431.111C707.17,418.867 723.852,406.187 744.494,408.67C757.742,410.263 763.932,414.652 774.36,422.409C770.822,403.2 761.472,393.231 745.7,382.283C713.54,359.959 676.879,350.219 638.268,347.159C619.68,345.686 600.936,344.995 582.372,348.421C581.148,348.643 579.94,348.945 578.757,349.326C593.739,358.336 602.832,371.541 603.564,389.252C568.455,365.91 519.654,352.576 477.697,352.951C434.861,353.334 391.088,370.08 353.666,389.839C340.504,396.788 327.153,406.044 313.766,412.162C292.245,385.253 270.337,339.586 232.318,335.502C211.145,333.227 191.554,341.723 175.463,354.944C160.385,367.332 151.421,382.996 149.67,402.568C147.872,422.665 153.624,443.585 166.67,459.082C181.805,477.06 202.916,481.97 225.4,483.786C227.394,483.95 229.393,484.042 231.393,484.062C190.563,505.138 187.339,547.001 181.469,587.068C193.933,564.487 220.248,536.479 242.956,524.615C239.805,529.717 236.098,535.795 233.966,541.329C221.59,573.455 219.061,617.231 226.949,650.397C229.773,662.112 233.667,673.542 238.582,684.544C241.588,663.719 250.809,623.916 266.633,609.137C268.864,620.626 270.557,632.818 273.1,644.019C284.679,695.027 306.899,730.228 350.466,759.596C360.4,766.191 370.634,772.323 381.134,777.974C374.703,761.847 370.646,745.963 369.898,728.513C374.865,736.094 384.706,750.656 391.12,757.294C413.728,780.695 441.143,803.968 468.502,821.838C470.303,823.015 478.013,828.043 479.617,828.753ZM463.856,394.214C497.807,391.731 524.583,414.632 552.623,430.231C568.151,438.869 585.149,446.518 602.404,450.856C607.745,445.462 612.576,435.859 613.449,428.314C613.907,424.354 613.808,419.898 614.272,415.74C617.481,415.922 624.029,422.824 626.229,425.142C639.889,439.528 633.972,451.179 632.962,469.258C626.715,474.511 622.383,477.525 615.554,481.731C619.458,484.46 630.968,491.965 633.699,494.538C588.046,493.602 555.363,518.939 535.131,558.35C533.169,562.627 532.064,566.382 530.987,570.923C506.704,544.177 467.391,531.557 432.39,527.572C425.035,526.735 417.637,525.683 410.295,524.708C425.271,515.437 451.039,510.414 468.065,513.88C448.046,495.473 439.77,468.845 452.32,444.131C455.62,437.633 458.636,433.668 463.134,428.069C443.657,424.112 418.597,425.599 399.635,430.715C401.975,426.711 404.682,422.934 407.722,419.431C421.971,403.006 442.653,395.76 463.856,394.214ZM506.113,513.863C510.776,515.337 516.132,516.189 520.978,517.021C515.283,514.838 512.498,513.892 507.692,510.271C497.549,501.685 499.827,498.365 496.791,487.787C497.745,483.226 497.481,480.416 499.448,475.742C503.293,466.607 508.824,463.065 517.208,459.347C521.921,458.747 524.835,458.931 529.516,459.791C539.203,461.732 544.066,467.214 550.72,473.84C545.883,463.167 536.862,455.319 526.31,450.473C515.075,445.743 504.662,441.499 492.526,446.522C475.911,453.399 471.247,476.571 478.075,491.789C482.806,502.216 492.337,508.925 502.764,512.752C503.87,513.154 504.986,513.525 506.113,513.863ZM221.199,377.21C254.868,375.194 267.848,404.103 282.099,428.995C267.159,440.274 256.321,452.685 242.47,464.891C239.658,467.369 231.585,465.327 228.103,464.191C207.967,454.317 199.737,425.037 208.25,405.187C196.578,407.989 191.771,413.23 185.642,422.887C185.072,420.78 184.709,418.744 184.567,416.572C183.008,392.781 198.676,379.114 221.199,377.21ZM563.448,116.443C579.936,126.069 603.856,152.553 615.944,167.8C631.388,168.401 645.411,171.321 659.406,172.14C637.176,150.256 610.194,131.678 580.753,120.985C576.838,119.563 567.532,116.337 563.448,116.443ZM535.439,202.788C531.811,202.986 528.178,203.056 524.545,202.998C524.757,206.737 524.364,220.191 524.573,221.492L525.257,221.792C527.193,222.66 527.941,222.763 529.063,224.403C529.684,226.613 529.313,243.418 528.987,247.787C527.956,260.005 530.549,275.56 527.593,287.018C526.204,292.404 510.084,292.677 510.618,284.597C511.474,271.643 505.832,235.667 508.339,224.991C509.565,223.6 510.268,223.562 511.999,222.949L512.621,222.725C512.746,222.682 512.871,222.64 512.997,222.597C512.018,216.363 510.714,210.84 509.476,204.712C500.196,205.325 489.355,206.726 480.392,207.074C481.039,211.366 480.38,220.58 481.634,223.526C484.084,225.309 485.383,225.097 486.13,228.11C487.305,236.562 486.787,244.321 487.138,252.699C487.612,263.991 488.158,275.248 487.814,286.534C487.716,295.164 487.4,301.978 495.262,307.531C503.536,313.375 512.858,310.033 521.907,310.131C535.85,310.281 549.632,306.93 550.807,290.324C551.15,285.475 550.88,280.31 550.86,275.376C550.834,263.068 550.679,250.76 550.395,238.455C550.319,233.532 548.859,225.995 552.34,222.183C555.33,218.909 554.734,206.701 554.824,202.376C549.415,202.41 540.645,202.248 535.439,202.788ZM762.796,765.911C757.783,786.019 752.542,803.584 739.958,820.674C733.731,829.129 730.437,834.012 720.33,837.946L718.868,831.398C693.836,835.536 644.109,840.986 622.925,825.387C614.935,819.503 609.006,811.518 605.388,802.292C601.583,810.676 600.588,815.254 604.134,824.218C610.75,837.71 622.642,845.938 637.037,850.809C665.631,860.484 709.772,861.252 737.74,848.501C750.361,842.152 763.126,828.118 767.494,814.741C771.942,801.116 770.258,784.72 765.372,771.565C764.968,770.479 763.45,766.603 762.796,765.911ZM838.57,571.791C833.356,582.82 828.975,593.148 825.88,604.948C825.255,607.329 824.355,610.575 823.481,612.83C819.936,615.147 817.038,616.952 813.926,619.857C807.728,641.596 803.495,657.671 795.787,679.31C800.283,686.033 809.166,691.569 816.345,694.972C822.135,691.755 827.276,687.562 831.98,682.908C850.582,664.05 868.046,637.414 868.143,609.975C868.169,602.649 866.889,596.896 865.072,589.893C854.952,595.544 849.917,601.344 841.26,607.219C842.822,598.995 843.717,578.824 838.57,571.791ZM491.368,101.138C458.597,106.485 435.436,144.859 425.786,174.013C447.976,169.348 479.619,166.472 502.376,165.052C519.626,164.164 536.906,164.001 554.169,164.562C560.821,164.758 569.191,164.853 575.658,165.562C568.071,156.568 562.556,147.076 555.397,138.086C540.208,119.014 517.08,99.718 491.368,101.138ZM445.282,212.178C435.14,213.581 425.212,215.53 415.189,217.599C408.74,218.931 401.494,220.162 395.251,222.108C395.448,241.271 402.171,238.238 402.956,242.101C406.443,259.257 406.131,282.066 407.875,299.981C408.403,305.398 409.117,308.974 404.281,311.906C405.296,318.507 405.41,323.239 405.285,329.939C415.376,327.331 425.969,324.427 436.055,322.034C435.937,316.803 435.909,311.569 435.972,306.337L431.932,304.419C431.643,302.023 431.183,298.977 431.048,296.624C430.8,291.599 430.618,287.229 430.69,282.17C432.423,281.887 434.386,281.615 436.08,281.226C440.356,291.572 443.928,301.957 449.272,311.833C450.379,313.88 451.757,316.582 452.61,318.725C460.259,317.083 467.977,315.783 475.741,314.828C473.362,308.847 470.985,302.852 468.206,297.045C464.594,289.497 460.609,282.374 457.488,274.594C465.911,268.586 467.782,263.509 466.391,253.214C464.361,238.187 471.335,214.33 449.248,212.196C447.759,212.05 446.731,211.968 445.282,212.178ZM432.433,233.091C447.799,231.888 445.767,240.965 446.037,252.958C446.198,260.109 446.952,262.586 439.752,265.541C436.547,266.249 433.457,267.148 430.237,266.552C428.969,265.609 428.712,265.139 428.365,263.325C427.519,258.904 426.011,237.748 427.685,234.909C429.382,233.559 430.233,233.572 432.433,233.091ZM566.983,202.443C567.013,206.027 566.387,217.625 566.559,219.289C567.854,220.037 571.5,222.049 571.523,222.988C571.71,230.52 570.929,282.275 569.418,285.869C567.813,287.546 567.219,287.674 565.059,288.706C564.923,294.844 563.761,302.58 563.875,307.964C575.008,307.933 584.953,307.844 596.069,308.759C595.129,300.281 596.321,298.14 596.697,290.301C594.886,289.402 592.161,288.453 591.463,286.391C590.802,284.44 591.797,224.604 592.55,223.129C593.103,222.046 594.667,221.199 595.66,220.541C596.915,218.328 597.96,206.344 597.851,203.502C588.243,202.57 576.643,202.447 566.983,202.443ZM707.94,219.633C701.154,220.895 693.193,224.653 692.418,232.85C691.575,241.762 689.569,252.309 690.482,261.235C692.998,270.866 710.945,277.161 716.009,285.075C715.971,291.681 715.856,304.868 707.815,306.804C700.272,305.199 704.099,292.636 705.293,287.564C698.669,287.021 691.766,286.35 685.157,285.933C684.839,289.138 684.126,295.664 683.378,298.638C678.149,319.406 694.323,322.176 710.222,324.779C712.758,325.194 715.301,324.748 717.935,324.22C723.893,321.596 728.633,318.255 730.515,311.601C732.55,304.4 738.358,283.497 736.069,277.008C731.991,265.448 707.072,262.211 712.388,246.147C714.661,239.478 722.748,236.683 725.909,244.09C727.26,247.253 726.415,252.201 725.874,255.567C731.461,257.859 735.556,259.276 741.253,261.171C744.179,238.391 752.848,227.423 721.801,221.869C716.671,220.952 713.72,219.02 707.94,219.633ZM610.073,203.835L610.003,221.24C612.243,221.705 613.341,221.703 615.042,223.096C615.862,224.393 615.904,225.99 615.845,227.514C615.08,247.518 613.818,267.547 612.813,287.538C612.71,289.584 609.759,291.441 608.086,292.312C607.913,297.876 607.308,303.418 606.276,308.888C615.295,309.122 624.717,309.914 633.749,310.543C634.292,305.66 634.984,300.376 635.314,295.505C633.797,294.319 632.202,293.366 632.144,291.13C631.901,281.883 633.068,272.601 633.016,263.331C632.997,259.895 633.013,256.029 633.305,252.638C639.522,272.952 645.995,293.187 652.722,313.337C658.661,313.883 664.568,314.744 670.415,315.918L671.38,305.121L675.164,256.383C675.792,247.956 676.289,239.449 677.088,231.036C677.487,226.837 678.275,226.28 682.083,224.791C682.943,220.352 683.777,215.532 684.758,211.151C674.953,210.023 664.134,208.569 654.356,207.837C654.44,210.448 654.008,222.584 655.007,223.27C660.609,227.12 658.311,234.084 657.858,242.303C657.259,251.819 656.742,261.34 656.307,270.865C649.203,249.465 642.704,227.869 636.817,206.104C629.316,205.454 617.186,204.008 610.073,203.835ZM445.175,110.039C436.611,112.592 427.951,114.847 419.46,117.594C380.707,130.132 344.494,157.422 325.071,193.646C322.624,198.267 320.355,202.98 318.267,207.774L318.603,208.208L318.759,208.185C338.037,200.071 357.53,192.48 377.218,185.422C382.714,160.809 406.413,136.999 426.192,122.131C428.269,120.569 445.669,110.281 445.705,110.157L445.175,110.039ZM770.007,535.152C791.723,532.595 824.108,523.596 844.148,530.635C851.182,533.172 855.122,535.412 860.949,539.894C856.863,532.987 853.364,530.309 846.946,525.429C846.13,524.931 845.299,524.457 844.454,524.008C828.685,515.491 806.37,516.246 789.624,521.248C779.049,523.761 764.514,532.56 755.343,538.813C758.056,538.085 767.892,536.106 770.007,535.152ZM535.341,721.699C532.14,722.066 529.04,722.35 525.898,723.07C531.762,736.296 540.142,747.873 548.397,759.655C558.263,773.735 568.33,785.552 584.382,792.889C591.196,788.545 596.551,782.226 603.684,778.832C605.343,781.463 607.599,785.271 609.861,787.398C628.472,804.893 656.016,812.428 680.935,806.385C691.526,803.816 694.909,800.812 691.721,789.8C681.857,767.061 649.331,736.497 622.643,740.636C625.242,748.561 630.086,765.381 632.851,772.106C606.49,752.295 571.618,715.306 535.341,721.699ZM364.457,231.139C359.317,232.032 352.241,234.525 347.174,236.212C334.19,240.574 321.357,245.371 308.695,250.595C310.576,255.781 311.544,260.723 313.298,265.751C315.024,267.611 319.037,268.14 319.73,271.158C324.459,291.75 326.569,312.99 330.924,333.701C331.522,336.542 329.548,337.765 327.655,339.499C328.472,346.634 329.312,349.469 331.801,356.262L338.793,353.518C345.605,350.535 354.344,346.389 361.018,343.942C379.493,337.167 396.153,335.264 392.094,310.109C389.814,295.979 393.334,291.035 379.916,280.948C386.896,271.542 385.47,268.4 384.146,257.488C382.574,244.531 383.415,229.076 364.457,231.139ZM352.767,257.132C357.296,256.699 360.192,258.661 361.544,262.895C364.936,273.522 362.838,280.24 352.625,283.563C350.458,284.102 349.524,284.519 347.373,284.214C343.328,282.071 341.222,264.861 342.964,260.534C345.726,258 349.049,257.814 352.767,257.132ZM360.057,296.084C367.816,295.17 368.893,302.794 369.887,308.735C371.964,321.142 368.901,321.936 358.646,325.33C356.459,325.904 354.868,326.683 353.001,325.231C351.024,321.058 348.137,305.383 349.602,300.468C350.199,298.466 357.677,296.687 360.057,296.084ZM731.624,467.28L731.52,474.39C736.866,476.01 742.34,477.172 747.883,477.864C749.954,468.992 751.928,449.395 744.559,442.474C738.687,436.96 727.393,438.178 721.963,443.9C718.269,447.026 717.438,450.513 715.412,454.832C724.879,455.139 729.763,457.449 731.624,467.28Z"/>
        <path d="M479.617,828.753C478.013,828.043 470.303,823.015 468.502,821.838C441.143,803.968 413.728,780.695 391.12,757.294C384.706,750.656 374.865,736.094 369.898,728.513C370.646,745.963 374.703,761.847 381.134,777.974C370.634,772.323 360.4,766.191 350.466,759.596C306.899,730.228 284.679,695.027 273.1,644.019C270.557,632.818 268.864,620.626 266.633,609.137C250.809,623.916 241.588,663.719 238.582,684.544C233.667,673.542 229.773,662.112 226.949,650.397C219.061,617.231 221.59,573.455 233.966,541.329C236.098,535.795 239.805,529.717 242.956,524.615C220.248,536.479 193.933,564.487 181.469,587.068C187.339,547.001 190.563,505.138 231.393,484.062C229.393,484.042 227.394,483.95 225.4,483.786C202.916,481.97 181.805,477.06 166.67,459.082C153.624,443.585 147.872,422.665 149.67,402.568C151.421,382.996 160.385,367.332 175.463,354.944C191.554,341.723 211.145,333.227 232.318,335.502C270.337,339.586 292.245,385.253 313.766,412.162C327.153,406.044 340.504,396.788 353.666,389.839C391.088,370.08 434.861,353.334 477.697,352.951C519.654,352.576 568.455,365.91 603.564,389.252C602.832,371.541 593.739,358.336 578.757,349.326C579.94,348.945 581.148,348.643 582.372,348.421C600.936,344.995 619.68,345.686 638.268,347.159C676.879,350.219 713.54,359.959 745.7,382.283C761.472,393.231 770.822,403.2 774.36,422.409C763.932,414.652 757.742,410.263 744.494,408.67C723.852,406.187 707.17,418.867 691.986,431.111C686.798,435.294 681.222,439.33 675.937,443.639C675.886,442.216 675.826,440.794 675.756,439.373C674.932,423.055 669.818,416.329 658.28,405.914C657.615,415.171 657.279,424.087 656.825,433.38C656.513,441.506 653.874,453.053 655.338,460.943C657.052,470.182 670.319,481.687 678.641,485.377C681.839,486.417 685.5,486.82 688.783,487.161C707.04,489.061 725.044,493.449 743.183,496.388C752.17,497.844 760.772,500.443 769.948,501.428C753.476,507.826 733.658,507.993 718.845,519.006C713.173,523.02 701.224,530.053 699.859,537.516C696.25,557.231 709.287,578.346 724.013,590.3C732.952,597.555 744.234,605.859 755.51,608.141C764.017,600.381 760.96,596.424 764.714,586.083C766.889,578.943 777.362,571.759 784.676,574.826C791.63,577.742 790.556,590.963 790.565,596.853C790.762,614.742 787.967,637.243 778.399,652.736C735.282,722.557 622.35,700.784 562.448,667.425C538.556,654.12 512.929,639.808 495.139,619.196C491.512,614.994 488.388,607.857 486.89,602.692C491.788,599.237 500.488,595.673 506.141,593.152C496.215,589.413 490.606,585.777 481.798,580.456C474.803,576.231 463.005,566.03 455.513,564.689C436.651,561.313 417.023,568.092 401.575,578.62C380.115,593.245 371.003,611.11 366.088,635.758C383.449,617.108 398.544,609.366 423.638,604.905C420.59,611.468 418.063,619.337 415.853,626.191C405.872,657.159 403.318,686.192 414.67,717.298C423.214,740.712 433.126,756.904 452.337,773.568C455.991,776.738 460.955,781.337 465.221,783.385C460.32,772.362 455.852,761.151 451.829,749.778C441.043,719.849 432.652,689.694 444.257,658.352C446.353,652.693 449.383,646.709 453.613,642.347C468.376,661.971 479.155,703.46 490.114,728.023C521.451,798.258 584.628,869.796 664.361,881.846C694.8,885.848 741.718,881.519 766.536,862.596C769.859,860.09 772.94,857.277 775.737,854.195C773.853,859.065 771.481,866.094 768.998,870.495C736.636,927.842 654.325,935.904 598.138,913.261C565.704,900.191 540.552,880.09 514.531,857.432C502.811,847.263 492.742,837.192 479.617,828.753ZM221.199,377.21C198.676,379.114 183.008,392.781 184.567,416.572C184.709,418.744 185.072,420.78 185.642,422.887C191.771,413.23 196.578,407.989 208.25,405.187C199.737,425.037 207.967,454.317 228.103,464.191C231.585,465.327 239.658,467.369 242.47,464.891C256.321,452.685 267.159,440.274 282.099,428.995C267.848,404.103 254.868,375.194 221.199,377.21ZM463.856,394.214C442.653,395.76 421.971,403.006 407.722,419.431C404.682,422.934 401.975,426.711 399.635,430.715C418.597,425.599 443.657,424.112 463.134,428.069C458.636,433.668 455.62,437.633 452.32,444.131C439.77,468.845 448.046,495.473 468.065,513.88C451.039,510.414 425.271,515.437 410.295,524.708C417.637,525.683 425.035,526.735 432.39,527.572C467.391,531.557 506.704,544.177 530.987,570.923C532.064,566.382 533.169,562.627 535.131,558.35C555.363,518.939 588.046,493.602 633.699,494.538C630.968,491.965 619.458,484.46 615.554,481.731C622.383,477.525 626.715,474.511 632.962,469.258C633.972,451.179 639.889,439.528 626.229,425.142C624.029,422.824 617.481,415.922 614.272,415.74C613.808,419.898 613.907,424.354 613.449,428.314C612.576,435.859 607.745,445.462 602.404,450.856C585.149,446.518 568.151,438.869 552.623,430.231C524.583,414.632 497.807,391.731 463.856,394.214ZM838.57,571.791C843.717,578.824 842.822,598.995 841.26,607.219C849.917,601.344 854.952,595.544 865.072,589.893C866.889,596.896 868.169,602.649 868.143,609.975C868.046,637.414 850.582,664.05 831.98,682.908C827.276,687.562 822.135,691.755 816.345,694.972C809.166,691.569 800.283,686.033 795.787,679.31C803.495,657.671 807.728,641.596 813.926,619.857C817.038,616.952 819.936,615.147 823.481,612.83C824.355,610.575 825.255,607.329 825.88,604.948C828.975,593.148 833.356,582.82 838.57,571.791Z" style="fill:url(#_Linear1);"/>
        <path d="M338.817,847.295L348.473,862.01L308.679,849.767C295.926,845.843 288.228,843.052 276.053,837.768C249.887,826.411 226.237,804.738 207.621,779.631L208.93,803.996L182.429,781.671C169.746,770.987 160.144,761.422 150.83,747.554C133.032,721.053 124.985,691.21 124.335,660.651L101.523,694.593L97.228,653.451C96.117,642.809 96.384,630.17 97.027,619.566C99.321,576.558 113.052,535.035 136.679,499.236C120.526,485.073 109.046,467.854 102.401,446.403L102.398,446.396C93.171,416.5 96.191,384.163 110.795,356.493C125.593,328.443 148.173,309.441 176.01,297.601C175.429,296.293 174.869,294.981 174.333,293.665C162.446,264.506 173.225,244.125 192.416,229.134C205.916,218.589 224.401,211.173 239.729,205.247C242.641,199.499 245.999,193.325 249.346,188.416C281.303,141.544 333.282,106.403 385.97,87.014C401.918,81.145 417.111,77.221 433.078,73.685C440.636,52.689 460.196,46.133 482.542,44.264C483.019,44.223 483.497,44.187 483.974,44.157C496.164,43.395 510.964,44.592 522.91,49.59C534.595,54.479 543.897,62.564 547.911,74.956C606.02,86.949 660.707,110.394 705.167,150.866C711.691,156.806 717.146,162.651 722.885,169.011C731.243,171.25 740.204,173.555 748.242,176.392C758.635,180.06 776.331,185.392 787.954,194.144C799.652,202.951 806.205,214.719 803.441,229.653C801.692,239.102 797.019,252.675 793.896,262.208C790.102,273.79 786.609,285.751 782.829,297.495C813.944,305.912 838.15,322.223 840.725,360.454C843.244,397.87 827.66,427.699 805.724,455.42C806.795,458.411 807.564,461.369 808.064,464.412C830.151,466.197 849.54,470.015 870.973,480.814C889.446,490.121 901.637,504.117 907.012,520.142C911.822,534.481 911.31,550.682 904.12,567.199C914.66,597.18 913.056,627.373 901.409,657.951C889.822,688.373 864.615,723.099 834.672,737.436C827.471,740.885 820.937,742.035 814.396,741.524C814.084,742.587 813.754,743.67 813.4,744.795C822.899,769.442 823.828,789.161 817.58,814.665C827.702,842.644 826.723,871.823 810.791,898.641C766,974.043 662.59,989.825 585.088,965.388C543.428,952.252 507.972,923.968 470.3,902.573L470.276,902.559C454.345,893.433 437.694,885.625 420.456,879.199L420.422,879.186C409.525,875.064 398.317,871.057 387.223,867.458C370.819,862.137 354.411,855.488 338.817,847.295ZM483.807,59.211C465.348,60.789 448.425,65.249 445.349,86.381C426.662,90.327 409.416,94.369 391.15,101.091C341.294,119.438 291.979,152.513 261.74,196.866C257.703,202.787 253.687,210.742 250.575,217.139C220.6,228.739 170.869,245.427 188.223,288.003C190.713,294.113 193.776,300.15 197.039,305.891C165.458,315.605 139.765,333.732 124.061,363.493C111.315,387.648 108.676,415.875 116.731,441.972C123.873,465.025 137.477,482.443 157.137,496.229C130.108,532.22 114.398,575.439 112.005,620.386C111.404,630.263 111.115,642.008 112.147,651.894C121.7,637.68 129.558,629.659 143.028,619.027C134.969,660.563 139.154,703.265 163.282,739.191C171.76,751.814 180.549,760.474 192.093,770.199C191.167,752.959 190.911,732.143 189.477,715.355C205.116,757.94 239.816,805.688 282.025,824.008C293.617,829.039 300.947,831.694 313.09,835.43C304.087,821.71 297.059,809.157 291.722,793.429C318.086,822.399 355.043,841.25 391.851,853.19C403.172,856.863 414.61,860.95 425.729,865.156C443.699,871.855 461.091,880.011 477.732,889.543C514.474,910.411 548.941,938.262 589.599,951.082C660.985,973.591 756.637,960.431 797.895,890.98C812.203,866.896 812.071,840.557 801.855,815.564C808.95,789.448 808.098,770.595 797.446,745.345C800.246,736.958 801.651,732.049 803.215,723.229C811.906,726.746 819.288,728.172 828.194,723.907C854.929,711.105 877.046,679.775 887.391,652.612C898.451,623.572 899.466,594.925 887.801,566.48C903.499,537.358 893.269,508.844 864.224,494.21C840.515,482.264 819.473,479.815 793.629,478.523C794.284,468.845 792.922,461.723 788.239,453.127C810.718,426.326 828.225,398.074 825.759,361.462C823.286,324.733 795.02,314.327 763.238,308.482C769.289,291.931 774.14,274.331 779.641,257.539C782.58,248.568 787.046,235.815 788.692,226.923C792.79,204.783 758.756,196.01 743.25,190.537C734.165,187.331 723.852,184.851 714.689,182.332C708.161,175.05 702.318,168.558 695.069,161.958C650.124,121.04 594.149,98.524 535.023,87.731C533.947,62.32 505.062,57.869 484.909,59.128C484.542,59.151 484.174,59.179 483.807,59.211ZM491.368,101.138C517.08,99.718 540.208,119.014 555.397,138.086C562.556,147.076 568.071,156.568 575.658,165.562C569.191,164.853 560.821,164.758 554.169,164.562C536.906,164.001 519.626,164.164 502.376,165.052C479.619,166.472 447.976,169.348 425.786,174.013C435.436,144.859 458.597,106.485 491.368,101.138ZM535.341,721.699C571.618,715.306 606.49,752.295 632.851,772.106C630.086,765.381 625.242,748.561 622.643,740.636C649.331,736.497 681.857,767.061 691.721,789.8C694.909,800.812 691.526,803.816 680.935,806.385C656.016,812.428 628.472,804.893 609.861,787.398C607.599,785.271 605.343,781.463 603.684,778.832C596.551,782.226 591.196,788.545 584.382,792.889C568.33,785.552 558.263,773.735 548.397,759.655C540.142,747.873 531.762,736.296 525.898,723.07C529.04,722.35 532.14,722.066 535.341,721.699ZM445.175,110.039L445.705,110.157C445.669,110.281 428.269,120.569 426.192,122.131C406.413,136.999 382.714,160.809 377.218,185.422C357.53,192.48 338.037,200.071 318.759,208.185L318.603,208.208L318.267,207.774C320.355,202.98 322.624,198.267 325.071,193.646C344.494,157.422 380.707,130.132 419.46,117.594C427.951,114.847 436.611,112.592 445.175,110.039ZM563.448,116.443C567.532,116.337 576.838,119.563 580.753,120.985C610.194,131.678 637.176,150.256 659.406,172.14C645.411,171.321 631.388,168.401 615.944,167.8C603.856,152.553 579.936,126.069 563.448,116.443Z" style="fill:rgb(88,153,77);"/>
        <path d="M364.457,231.139C383.415,229.076 382.574,244.531 384.146,257.488C385.47,268.4 386.896,271.542 379.916,280.948C393.334,291.035 389.814,295.979 392.094,310.109C396.153,335.264 379.493,337.167 361.018,343.942C354.344,346.389 345.605,350.535 338.793,353.518L331.801,356.262C329.312,349.469 328.472,346.634 327.655,339.499C329.548,337.765 331.522,336.542 330.924,333.701C326.569,312.99 324.459,291.75 319.73,271.158C319.037,268.14 315.024,267.611 313.298,265.751C311.544,260.723 310.576,255.781 308.695,250.595C321.357,245.371 334.19,240.574 347.174,236.212C352.241,234.525 359.317,232.032 364.457,231.139ZM352.767,257.132C349.049,257.814 345.726,258 342.964,260.534C341.222,264.861 343.328,282.071 347.373,284.214C349.524,284.519 350.458,284.102 352.625,283.563C362.838,280.24 364.936,273.522 361.544,262.895C360.192,258.661 357.296,256.699 352.767,257.132ZM360.057,296.084C357.677,296.687 350.199,298.466 349.602,300.468C348.137,305.383 351.024,321.058 353.001,325.231C354.868,326.683 356.459,325.904 358.646,325.33C368.901,321.936 371.964,321.142 369.887,308.735C368.893,302.794 367.816,295.17 360.057,296.084ZM445.282,212.178C446.731,211.968 447.759,212.05 449.248,212.196C471.335,214.33 464.361,238.187 466.391,253.214C467.782,263.509 465.911,268.586 457.488,274.594C460.609,282.374 464.594,289.497 468.206,297.045C470.985,302.852 473.362,308.847 475.741,314.828C467.977,315.783 460.259,317.083 452.61,318.725C451.757,316.582 450.379,313.88 449.272,311.833C443.928,301.957 440.356,291.572 436.08,281.226C434.386,281.615 432.423,281.887 430.69,282.17C430.618,287.229 430.8,291.599 431.048,296.624C431.183,298.977 431.643,302.023 431.932,304.419L435.972,306.337C435.909,311.569 435.937,316.803 436.055,322.034C425.969,324.427 415.376,327.331 405.285,329.939C405.41,323.239 405.296,318.507 404.281,311.906C409.117,308.974 408.403,305.398 407.875,299.981C406.131,282.066 406.443,259.257 402.956,242.101C402.171,238.238 395.448,241.271 395.251,222.108C401.494,220.162 408.74,218.931 415.189,217.599C425.212,215.53 435.14,213.581 445.282,212.178ZM432.433,233.091C430.233,233.572 429.382,233.559 427.685,234.909C426.011,237.748 427.519,258.904 428.365,263.325C428.712,265.139 428.969,265.609 430.237,266.552C433.457,267.148 436.547,266.249 439.752,265.541C446.952,262.586 446.198,260.109 446.037,252.958C445.767,240.965 447.799,231.888 432.433,233.091ZM610.073,203.835C617.186,204.008 629.316,205.454 636.817,206.104C642.704,227.869 649.203,249.465 656.307,270.865C656.742,261.34 657.259,251.819 657.858,242.303C658.311,234.084 660.609,227.12 655.007,223.27C654.008,222.584 654.44,210.448 654.356,207.837C664.134,208.569 674.953,210.023 684.758,211.151C683.777,215.532 682.943,220.352 682.083,224.791C678.275,226.28 677.487,226.837 677.088,231.036C676.289,239.449 675.792,247.956 675.164,256.383L671.38,305.121L670.415,315.918C664.568,314.744 658.661,313.883 652.722,313.337C645.995,293.187 639.522,272.952 633.305,252.638C633.013,256.029 632.997,259.895 633.016,263.331C633.068,272.601 631.901,281.883 632.144,291.13C632.202,293.366 633.797,294.319 635.314,295.505C634.984,300.376 634.292,305.66 633.749,310.543C624.717,309.914 615.295,309.122 606.276,308.888C607.308,303.418 607.913,297.876 608.086,292.312C609.759,291.441 612.71,289.584 612.813,287.538C613.818,267.547 615.08,247.518 615.845,227.514C615.904,225.99 615.862,224.393 615.042,223.096C613.341,221.703 612.243,221.705 610.003,221.24L610.073,203.835ZM535.439,202.788C540.645,202.248 549.415,202.41 554.824,202.376C554.734,206.701 555.33,218.909 552.34,222.183C548.859,225.995 550.319,233.532 550.395,238.455C550.679,250.76 550.834,263.068 550.86,275.376C550.88,280.31 551.15,285.475 550.807,290.324C549.632,306.93 535.85,310.281 521.907,310.131C512.858,310.033 503.536,313.375 495.262,307.531C487.4,301.978 487.716,295.164 487.814,286.534C488.158,275.248 487.612,263.991 487.138,252.699C486.787,244.321 487.305,236.562 486.13,228.11C485.383,225.097 484.084,225.309 481.634,223.526C480.38,220.58 481.039,211.366 480.392,207.074C489.355,206.726 500.196,205.325 509.476,204.712C510.714,210.84 512.018,216.363 512.997,222.597C512.871,222.64 512.746,222.682 512.621,222.725L511.999,222.949C510.268,223.562 509.565,223.6 508.339,224.991C505.832,235.667 511.474,271.643 510.618,284.597C510.084,292.677 526.204,292.404 527.593,287.018C530.549,275.56 527.956,260.005 528.987,247.787C529.313,243.418 529.684,226.613 529.063,224.403C527.941,222.763 527.193,222.66 525.257,221.792L524.573,221.492C524.364,220.191 524.757,206.737 524.545,202.998C528.178,203.056 531.811,202.986 535.439,202.788ZM707.94,219.633C713.72,219.02 716.671,220.952 721.801,221.869C752.848,227.423 744.179,238.391 741.253,261.171C735.556,259.276 731.461,257.859 725.874,255.567C726.415,252.201 727.26,247.253 725.909,244.09C722.748,236.683 714.661,239.478 712.388,246.147C707.072,262.211 731.991,265.448 736.069,277.008C738.358,283.497 732.55,304.4 730.515,311.601C728.633,318.255 723.893,321.596 717.935,324.22C715.301,324.748 712.758,325.194 710.222,324.779C694.323,322.176 678.149,319.406 683.378,298.638C684.126,295.664 684.839,289.138 685.157,285.933C691.766,286.35 698.669,287.021 705.293,287.564C704.099,292.636 700.272,305.199 707.815,306.804C715.856,304.868 715.971,291.681 716.009,285.075C710.945,277.161 692.998,270.866 690.482,261.235C689.569,252.309 691.575,241.762 692.418,232.85C693.193,224.653 701.154,220.895 707.94,219.633ZM566.983,202.443C576.643,202.447 588.243,202.57 597.851,203.502C597.96,206.344 596.915,218.328 595.66,220.541C594.667,221.199 593.103,222.046 592.55,223.129C591.797,224.604 590.802,284.44 591.463,286.391C592.161,288.453 594.886,289.402 596.697,290.301C596.321,298.14 595.129,300.281 596.069,308.759C584.953,307.844 575.008,307.933 563.875,307.964C563.761,302.58 564.923,294.844 565.059,288.706C567.219,287.674 567.813,287.546 569.418,285.869C570.929,282.275 571.71,230.52 571.523,222.988C571.5,222.049 567.854,220.037 566.559,219.289C566.387,217.625 567.013,206.027 566.983,202.443ZM506.113,513.863C504.986,513.525 503.87,513.154 502.764,512.752C492.337,508.925 482.806,502.216 478.075,491.789C471.247,476.571 475.911,453.399 492.526,446.522C504.662,441.499 515.075,445.743 526.31,450.473C536.862,455.319 545.883,463.167 550.72,473.84C544.066,467.214 539.203,461.732 529.516,459.791C524.835,458.931 521.921,458.747 517.208,459.347C508.824,463.065 503.293,466.607 499.448,475.742C497.481,480.416 497.745,483.226 496.791,487.787C499.827,498.365 497.549,501.685 507.692,510.271C512.498,513.892 515.283,514.838 520.978,517.021C516.132,516.189 510.776,515.337 506.113,513.863ZM762.796,765.911C763.45,766.603 764.968,770.479 765.372,771.565C770.258,784.72 771.942,801.116 767.494,814.741C763.126,828.118 750.361,842.152 737.74,848.501C709.772,861.252 665.631,860.484 637.037,850.809C622.642,845.938 610.75,837.71 604.134,824.218C600.588,815.254 601.583,810.676 605.388,802.292C609.006,811.518 614.935,819.503 622.925,825.387C644.109,840.986 693.836,835.536 718.868,831.398L720.33,837.946C730.437,834.012 733.731,829.129 739.958,820.674C752.542,803.584 757.783,786.019 762.796,765.911ZM731.624,467.28C729.763,457.449 724.879,455.139 715.412,454.832C717.438,450.513 718.269,447.026 721.963,443.9C727.393,438.178 738.687,436.96 744.559,442.474C751.928,449.395 749.954,468.992 747.883,477.864C742.34,477.172 736.866,476.01 731.52,474.39L731.624,467.28ZM770.007,535.152C767.892,536.106 758.056,538.085 755.343,538.813C764.514,532.56 779.049,523.761 789.624,521.248C806.37,516.246 828.685,515.491 844.454,524.008C845.299,524.457 846.13,524.931 846.946,525.429C853.364,530.309 856.863,532.987 860.949,539.894C855.122,535.412 851.182,533.172 844.148,530.635C824.108,523.596 791.723,532.595 770.007,535.152Z" style="fill:white;"/>
    </g>
    <defs>
        <linearGradient id="_Linear1" x1="0" y1="0" x2="1" y2="0" gradientUnits="userSpaceOnUse" gradientTransform="matrix(563.293,363.42,-363.42,563.293,183.823,335.85)"><stop offset="0" style="stop-color:rgb(116,68,15);stop-opacity:1"/><stop offset="1" style="stop-color:rgb(148,97,31);stop-opacity:1"/></linearGradient>
    </defs>
</svg>
