<svg width="100%" height="100%" viewBox="0 0 856 954" version="1.1" xmlns="http://www.w3.org/2000/svg" xmlns:xlink="http://www.w3.org/1999/xlink" xml:space="preserve" xmlns:serif="http://www.serif.com/" style="fill-rule:evenodd;clip-rule:evenodd;stroke-linejoin:round;stroke-miterlimit:2;">
    <g transform="matrix(1,0,0,1,-85.922,-16.0722)">
        <path d="M267.176,630.353C262.426,630.78 253.904,630.303 248.91,630.209C238.768,630.012 228.623,629.917 218.479,629.927C233.35,594.304 252.713,558.128 266.634,522.878C260.151,524.692 250.837,528.328 244.37,530.754C230.645,535.945 216.972,541.272 203.352,546.732C208.828,539.097 215.73,525.836 220.353,517.196C233.093,493.387 245.6,470.564 259.676,447.448C275.763,421.558 294.038,397.093 314.301,374.322C328.709,358.016 344.321,342.14 359.096,326.062C334.138,290.602 307.932,255.508 282.935,220.171C280.917,238.225 271.93,293.341 275.495,307.968C277.087,314.497 280.034,320.836 282.52,327.071C285.922,335.605 289.165,344.128 291.93,352.892C289.808,355.557 285.016,361.152 282.576,363.246C280.738,363.261 279.75,362.5 278.863,360.938C275.743,355.443 273.107,349.696 270.01,344.183C263.202,332.089 255.845,320.312 247.962,308.89C247.737,289.434 251.111,267.848 254.236,248.708C259.175,218.459 266.446,188.908 273.406,159.087C279.717,167.375 288.487,176.551 295.441,184.53L334.781,229.766C355.69,253.473 374.252,276.558 394.256,300.744C416.882,294.237 442.518,289.326 465.679,285.13C480.717,282.649 495.69,278.695 510.992,278.529C525.535,278.37 539.497,281.288 553.859,283.277C580.745,287.001 606.176,293.364 632.083,301.314C636.906,296.29 642.467,287.851 646.731,282.09C652.635,274.146 658.818,266.413 665.269,258.907C688.798,231.036 714.324,204.98 738.212,177.44C742.674,172.296 746.912,167.056 751.524,162.027C755.466,173.823 758.118,189.508 760.786,201.868C768.394,237.109 775.003,271.204 776.922,307.289C772.088,316.283 767.386,324.634 762.772,333.795C758.445,342.384 753.448,354.759 748.537,362.549L747.808,362.656C743.593,360.952 737.122,354.386 733.549,351.086C736.397,342.14 739.425,333.252 742.632,324.428C749.845,304.092 750.206,303.716 748.423,282.02C746.734,261.472 743.861,240.691 742.27,220.237C736.746,229.341 729.133,237.608 723.465,246.508C705.766,274.304 684.049,300.837 667.143,329.019C691.055,354.387 715.482,378.27 736.494,406.375C763.422,442.392 783.186,482.403 807.331,520.119C813.328,529.487 818.938,539.255 824.589,548.843C802.444,539.251 778.286,530.252 755.573,520.992C772.824,557.005 789.415,593.331 805.338,629.95C795.263,629.958 785.187,629.89 775.113,629.748C771.218,629.693 762.674,629.773 759.185,629.169C758.341,624.768 728.988,586.271 724.529,581.205L677.53,630.938C672.594,636.226 660.594,648.487 657.192,653.504C656.775,653.65 656.359,653.796 655.942,653.942C648.554,663.285 625.306,690.934 620.651,699.785C619.861,697.714 617.154,694.226 615.87,692.083C605.385,674.583 597.564,655.746 588.698,637.426C585.803,631.444 581.708,621.611 577.931,616.395C582.566,601.258 590.823,564.608 598.207,553.448C599.195,559.573 609.712,597.903 612.631,601.204C612.921,601.06 613.21,600.917 613.5,600.773C620.401,595.8 629.41,592.547 637.232,588.913C647.203,584.282 657.376,579.514 667.212,574.581C670.224,573.07 673.125,570.958 675.382,568.445C684.766,557.994 692.667,545.657 701.179,534.495C708.616,524.743 716.039,515.682 723.123,505.647C715.722,503.046 708.278,500.569 700.794,498.218C695.637,496.603 687.137,494.131 682.437,491.797C690.709,482.4 701.351,472.724 709.097,463.438C698.044,465.972 678.175,467.09 666.359,468.315C659.484,469.028 604.716,480.7 598.613,480.845C596.18,479.921 593.518,480.885 590.814,480.875L591.031,479.993C593.356,478.978 596.236,479.79 597.584,479.202C603.197,476.755 609.246,475.465 615.194,474.067L674.316,457.268C679.681,456.065 687.468,454.952 692.162,452.462C692.902,449.795 688.473,447.866 686.388,446.745C657.401,431.164 641.17,412.576 613.354,394.967C607.944,401.382 602.062,410.54 596.787,417.498C580.693,438.724 566.579,459.89 552.246,482.25C549.264,486.338 547.708,487.774 549.352,492.898C549.26,495.866 552.818,511.496 553.611,515.251C557.624,534.472 562.107,553.591 567.056,572.592C570.399,585.949 574.804,602.677 577.3,616.143L577.931,616.395C574.056,634.308 568.541,652.132 565.79,670.395C564.97,675.842 562.671,685.301 562.745,690.609C560.242,690.804 554.187,690.571 551.473,690.557L528.142,690.454L460.553,690.503C459.2,669.141 451.929,639.434 446.477,618.605C439.808,628.37 436.345,636.545 431.323,647.159C426.224,657.89 421.191,668.653 416.224,679.446C414.967,682.169 406.648,700.925 405.289,702.21C403.065,698.999 401.372,694.111 398.775,690.958C389.05,679.153 379.234,664.307 368.901,653.194C360.397,641.093 348.566,630.013 338.631,618.996C326.835,605.914 313.826,593.939 301.547,581.318C291.793,596.948 272.49,614.808 267.176,630.353ZM424.623,553.782C424.289,559.899 422.296,568.635 421.16,574.65C419.561,583.115 417.916,591.523 415.689,599.847C413.595,598.851 411.486,598.261 409.317,597.472C391.1,590.842 373.161,583.198 355.56,575.089C353.425,574.105 351.225,571.459 349.865,569.535C337.923,552.642 325.97,535.805 313.108,519.591C309.847,515.48 306.477,511.141 303.758,506.672C313.793,502.985 332.313,495.438 341.839,491.096L313.423,463.256C321.492,464.255 331.687,464.735 339.986,465.441C347.472,466.077 361.794,468.384 368.799,468.408C372.652,467.464 373.843,468.639 377.548,468.449C377.31,468.183 377.071,467.917 376.832,467.652C369.344,466.727 362.083,464.43 354.731,462.85C349.996,461.833 345.286,460.815 340.55,459.846C337.001,459.12 355.439,458.268 352.169,456.789C346.972,457.413 345.68,454.112 341.004,454.21C339.339,454.245 340.632,454.623 339.213,454.002C340.027,452.649 343.46,450.385 344.946,449.282C348.819,446.78 352.83,444.881 356.834,442.634C378.848,430.28 379.063,416.511 400.654,403.436C404.182,401.3 406.991,405.052 411.006,403.999C412.879,404.784 414.649,406.342 415.827,407.988C432.65,431.499 451.933,447.872 469.085,471.118C477.778,482.899 481.104,484.678 473.857,497.937C474.255,501.932 449.238,615.238 447.558,618.27L446.868,618.481C445.543,616.329 444.975,612.582 444.506,610.103C441.455,593.965 438.225,578.165 430.146,563.657C428.306,560.351 427.042,556.891 424.623,553.782Z" style="fill:rgb(131,132,133);"  data-color="color-2"/>
        <path d="M685.858,839.771C683.403,847.792 672.493,883.137 669.36,888.322C663.618,897.824 639.272,915.9 629.967,923.016L570.338,968.836L561.038,967.732C555.326,967.053 547.013,967.438 541.016,967.427L540.948,967.426C529.527,967.337 518.104,967.311 506.709,967.348C497.155,967.389 473.51,966.608 465.079,967.917L456.396,969.265L449.026,964.48C443.267,960.741 428.541,948.994 421.765,943.679C404.387,930.048 380.352,913.176 364.441,898.584L361.843,896.201L360.078,893.149C352.874,880.695 347.409,862.622 342.596,849.492L342.596,849.491C340.153,842.822 340.562,841.089 335.558,836.587C318.246,821.016 302.074,803.897 283.663,789.781C266.261,776.439 249.972,760.79 232.576,747.741C232.576,747.741 166.774,698.955 166.739,698.929C157.277,691.982 143.439,682.919 134.823,675.609L122.179,664.785L127.571,649.84C130.234,642.458 132.326,634.419 134.634,626.859C135.691,623.396 136.829,619.885 137.952,616.359C125.974,609.202 113.494,602.194 102.845,594.944L85.922,583.423L95.405,565.278C106.46,544.127 118.823,523.995 130.305,503.25C145.324,475.674 160.921,448.417 177.085,421.496C183.023,411.446 187.559,403.372 192.907,394.564C188.811,386.745 184.752,378.43 181.24,371.461C177.919,364.869 169.676,351.251 165.181,340.517C161.65,332.085 160.283,324.402 160.593,319.307C163.259,275.497 168.718,230.503 179.021,187.818C190.791,139.048 211.3,93.45 229.166,46.977L241.046,16.072L265.861,37.993C267.798,39.704 355.792,130.248 397.854,172.849C407.61,182.73 417.231,193.37 427.122,203.338C457.241,198.069 512.245,189.444 517.751,190.063C544.16,193.033 571.253,198.708 597.702,203.106C604.057,196.598 610.678,190.104 616.848,183.652C640.607,158.612 664.546,133.744 688.663,109.048C711.169,85.984 734.723,59.765 758.378,38.294L780.799,17.943L794.389,45.002C798.712,53.609 802.674,64.088 806.435,73.144L806.439,73.153C816.554,97.564 825.754,122.344 834.081,147.633L834.14,147.825C849.391,197.011 859.037,247.763 862.895,299.115C863.159,302.43 864.202,315.556 864.18,321.86C864.161,327.383 863.047,331.304 862.437,332.905C859.329,341.055 851.274,355.588 847.041,363.646C841.869,373.502 836.757,383.389 831.706,393.307C846.12,416.371 860.363,441.786 873.783,464.744C892.654,497.026 913.849,531.882 931.313,564.99L941.488,584.279L922.768,595.465C911.087,602.445 899.436,609.475 887.816,616.557C891.851,628.673 895.785,640.848 898.396,653.286L901.348,667.345L890.01,676.166C882.833,681.749 875.044,687.058 867.669,692.466L824.058,724.572L824.05,724.578C819.049,728.253 814.299,732.471 809.342,736.231C798.291,744.612 787.244,752.931 776.311,761.467C745.644,785.869 713.237,811.57 685.858,839.771ZM250.634,55.23C233.126,100.774 212.915,145.419 201.379,193.214C191.39,234.599 186.136,278.228 183.551,320.704C183.013,329.543 197.254,352.129 201.78,361.111C207.066,371.6 213.612,385.286 219.594,395.305C210.621,409.133 205.139,419.232 196.847,433.263C180.819,459.955 165.355,486.981 150.464,514.323C139.061,534.931 126.77,554.922 115.789,575.932C130.708,586.089 149.254,595.757 164.907,606.046C162.645,615.179 159.391,624.538 156.631,633.576C154.213,641.496 151.996,649.911 149.206,657.645L149.741,658.103C157.991,665.102 171.349,673.775 180.428,680.446L246.328,729.305C263.806,742.41 280.175,758.125 297.657,771.528C316.543,786.008 333.181,803.514 350.939,819.487C359.711,827.378 359.909,829.891 364.192,841.578C368.597,853.598 373.391,870.23 379.987,881.633C395.512,895.871 419.004,912.282 435.96,925.582C442.33,930.579 456.136,941.674 461.55,945.189C470.677,943.772 496.267,944.387 506.609,944.348C518.115,944.304 529.622,944.337 541.128,944.427C547.851,944.44 557.274,944.123 563.75,944.892L615.977,904.76C623.768,898.801 644.858,884.397 649.675,876.426C653.4,870.262 663.153,830.229 666.565,826.651C695.226,796.594 729.58,769.258 762.075,743.402C773.12,734.777 784.279,726.374 795.443,717.906C800.492,714.076 805.337,709.787 810.431,706.044L854.054,673.929C861.259,668.645 868.875,663.467 875.887,658.012C872.206,640.481 865.707,623.516 860.265,606.455C877.101,596.104 894.004,585.859 910.97,575.721C893.657,542.9 872.634,508.353 853.927,476.351C838.465,449.901 821.914,420.141 805.262,394.618C812.283,380.669 819.419,366.778 826.678,352.952C830.571,345.537 838.086,332.21 840.946,324.71C841.748,322.607 840.259,304.594 839.964,300.893C836.238,251.249 826.915,202.186 812.172,154.636C804.087,130.082 795.087,105.839 785.191,81.957C781.636,73.399 777.926,63.468 773.836,55.325C750.513,76.495 727.314,102.371 705.123,125.112C681.07,149.742 657.195,174.545 633.499,199.518C624.568,208.86 614.669,218.282 606.052,227.718C576.195,223.243 545.242,216.301 515.179,212.919C509.244,212.251 441.838,223.841 419.541,228.084C406.518,215.807 394.107,201.789 381.488,189.009C339.775,146.762 252.555,56.927 250.634,55.23ZM765.953,95.444C767.696,97.274 772.874,114.079 774.448,117.954C801.099,183.565 813.475,250.5 817.908,321.147C813.284,328.268 806.885,341.15 802.622,349.027C794.379,364.072 786.215,379.16 778.129,394.29C790.017,413.134 801.095,432.671 812.453,451.82L880.769,568.482C878.557,569.925 876.04,571.186 873.674,572.382C859.32,579.643 845.345,587.587 831.152,595.143C834.95,604.638 838.401,614.268 841.496,624.015C843.939,631.536 846.494,641.661 850.094,648.393C839.413,655.797 829.36,663.668 818.928,671.393C782.707,697.769 747.53,725.548 713.476,754.668C691.733,772.933 669.476,790.562 649.7,811.097C644.356,816.646 642.041,834.653 638.447,842.636C635.004,850.286 633.417,861.634 626.565,867.413C608.352,882.772 589.173,896.779 570.245,911.215C565.635,914.726 560.691,918.523 555.778,921.506C526.415,921.858 498.154,920.754 468.29,921.591C465.268,919.554 462.345,917.385 459.448,915.13C438.589,898.771 416.783,883.577 396.695,866.265C391.577,861.856 381.93,830.217 378.688,822.24C377.102,818.338 376.882,814.114 373.724,810.566C365.909,801.785 356.978,793.873 348.237,786.042C326.063,766.498 303.465,747.441 280.459,728.883C258.746,710.851 235.447,693.184 213.007,676.005C200.324,666.295 188.612,658.966 176.004,648.482C177.457,645.282 178.787,641.771 179.647,638.37C183.385,623.593 188.947,609.387 193.499,594.923C178.329,585.876 161.017,576.572 145.418,567.99C157.719,544.095 170.3,523.678 183.782,500.832L224.089,431.604C231.416,419.089 239.266,408.199 246.445,394.777C238.688,381.352 231.172,367.789 223.9,354.094C218.194,343.164 212.939,332.022 206.987,321.226C209.188,297.826 210.466,275.009 214.125,251.537C222.111,200.311 237.405,142.585 259.616,95.588L359.306,198.033L393.97,234.155C399.99,240.497 405.979,247.404 412.304,253.374C425.217,249.265 448.64,245.917 462.64,243.15C476.909,240.331 497.809,237.069 512.274,236.169C514.864,236.008 536.032,239.149 540.195,239.864C563.617,243.89 590.776,247.161 613.516,253.365C626.815,240.478 641.116,224.324 654.149,210.789C691.104,172.038 728.373,133.589 765.953,95.444ZM267.176,630.353C272.101,631.394 281.659,642.354 285.685,646.407C295.495,656.28 305.244,666.214 314.938,676.2L333.849,695.442C336.408,698.054 341.876,703.161 343.738,706.097C356.54,726.287 366.715,749.713 379.704,769.647L372.746,693.789C371.575,681.054 370.433,665.714 368.901,653.194C379.234,664.307 389.05,679.153 398.775,690.958C401.372,694.111 403.065,698.999 405.289,702.21C407.235,709.396 400.681,724.947 401.517,733.158C403.067,748.377 407.858,763.768 411.543,778.606C414.559,790.748 416.93,805.125 420.996,816.686C423.054,816.278 425.203,816.019 427.294,815.704C447.435,812.667 466.771,805.625 486.305,800.056C491.062,798.7 495.847,797.212 500.472,795.524C497.085,790.853 488.194,781.36 484.054,776.845C476.947,769.095 468.189,758.824 460.686,751.715C456.914,754.688 452.965,757.43 448.86,759.923C445.035,746.222 441.037,725.153 438.448,711.057C441.833,706.215 452.971,696.104 457.559,691.495C457.99,691.062 459.842,690.646 460.553,690.503L528.142,690.454L551.473,690.557C554.187,690.571 560.242,690.804 562.745,690.609C567.715,693.016 583.154,707.856 587.516,712.378L580.143,741.276C578.764,746.642 576.95,754.539 575.006,759.465C571.473,756.446 569.081,754.363 565.145,751.815C556.586,759.45 547.203,769.642 538.929,777.792C534.77,781.889 524.649,791.749 521.275,795.987C526.359,798.225 541.916,801.452 547.991,802.998L602.854,817.316C605.764,816.097 609.959,795.324 611.01,791.07C614.7,776.132 618.754,761.254 620.904,745.998C621.727,740.158 623.183,734.354 623.162,728.419C623.686,719.017 620.108,707.763 620.651,699.785C625.306,690.934 648.554,663.285 655.942,653.942C656.359,653.796 656.775,653.65 657.192,653.504C655.691,664.215 645.268,758.263 646.865,762.901C647.323,764.232 647.489,764.349 648.678,764.893C649.515,764.299 649.421,764.389 649.815,763.478C652.652,756.917 657.263,750.342 660.958,744.081C666.474,734.585 672.166,725.192 678.031,715.907C679.808,713.052 685.164,704.07 687.281,701.549C697.629,689.562 710.709,677.055 722.09,666.153C728.107,660.389 753.648,631.474 759.185,629.169C762.674,629.773 771.218,629.693 775.113,629.748C785.187,629.89 795.263,629.958 805.338,629.95C789.415,593.331 772.824,557.005 755.573,520.992C778.286,530.252 802.444,539.251 824.589,548.843C818.938,539.255 813.328,529.487 807.331,520.119C783.186,482.403 763.422,442.392 736.494,406.375C715.482,378.27 691.055,354.387 667.143,329.019C684.049,300.837 705.766,274.304 723.465,246.508C729.133,237.608 736.746,229.341 742.27,220.237C743.861,240.691 746.734,261.472 748.423,282.02C750.206,303.716 749.845,304.092 742.632,324.428C739.425,333.252 736.397,342.14 733.549,351.086C737.122,354.386 743.593,360.952 747.808,362.656L748.537,362.549C753.448,354.759 758.445,342.384 762.772,333.795C767.386,324.634 772.088,316.283 776.922,307.289C775.003,271.204 768.394,237.109 760.786,201.868C758.118,189.508 755.466,173.823 751.524,162.027C746.912,167.056 742.674,172.296 738.212,177.44C714.324,204.98 688.798,231.036 665.269,258.907C658.818,266.413 652.635,274.146 646.731,282.09C642.467,287.851 636.906,296.29 632.083,301.314C606.176,293.364 580.745,287.001 553.859,283.277C539.497,281.288 525.535,278.37 510.992,278.529C495.69,278.695 480.717,282.649 465.679,285.13C442.518,289.326 416.882,294.237 394.256,300.744C374.252,276.558 355.69,253.473 334.781,229.766L295.441,184.53C288.487,176.551 279.717,167.375 273.406,159.087C266.446,188.908 259.175,218.459 254.236,248.708C251.111,267.848 247.737,289.434 247.962,308.89C255.845,320.312 263.202,332.089 270.01,344.183C273.107,349.696 275.743,355.443 278.863,360.938C279.75,362.5 280.738,363.261 282.576,363.246C285.016,361.152 289.808,355.557 291.93,352.892C289.165,344.128 285.922,335.605 282.52,327.071C280.034,320.836 277.087,314.497 275.495,307.968C271.93,293.341 280.917,238.225 282.935,220.171C307.932,255.508 334.138,290.602 359.096,326.062C344.321,342.14 328.709,358.016 314.301,374.322C294.038,397.093 275.763,421.558 259.676,447.448C245.6,470.564 233.093,493.387 220.353,517.196C215.73,525.836 208.828,539.097 203.352,546.732C216.972,541.272 230.645,535.945 244.37,530.754C250.837,528.328 260.151,524.692 266.634,522.878C252.713,558.128 233.35,594.304 218.479,629.927C228.623,629.917 238.768,630.012 248.91,630.209C253.904,630.303 262.426,630.78 267.176,630.353ZM341.839,491.096L313.423,463.256C321.492,464.255 331.687,464.735 339.986,465.441C347.472,466.077 361.794,468.384 368.799,468.408C378.478,469.663 397.833,470.737 406.822,475.11C409.89,476.603 415.838,485.665 418.816,488.113C425.757,495.131 432.674,502.096 439.534,509.184C443.152,512.983 450.687,517.941 453.345,522.087C456.996,520.796 471.129,502.044 473.857,497.937C474.255,501.932 449.238,615.238 447.558,618.27L446.868,618.481C445.543,616.329 444.975,612.582 444.506,610.103C441.455,593.965 438.225,578.165 430.146,563.657C428.306,560.351 427.042,556.891 424.623,553.782C415.07,550.725 404.242,552.441 394.482,551.044C390.999,550.545 385.907,547.818 382.377,546.742C378.865,545.673 376.024,545.202 372.365,544.632C368.142,540.197 355.999,523.72 353.454,518.169C349.501,509.542 349.885,498.796 341.839,491.096ZM371.228,497.328C374.338,513.773 380.189,517.195 391.48,526.016C400.476,524.852 408.971,524.273 417.907,523.324L419.695,522.175L419.74,521.179C417.031,518.759 403.465,512.242 399.618,510.41C392.767,507.147 378.022,497.983 371.228,497.328ZM598.207,553.448C590.823,564.608 582.566,601.258 577.931,616.395L577.3,616.143C574.804,602.677 570.399,585.949 567.056,572.592C562.107,553.591 557.624,534.472 553.611,515.251C552.818,511.496 549.26,495.866 549.352,492.898L551.655,496.533C554.51,501.935 567.508,518.235 571.653,523.668C573.673,518.309 585.213,509.424 589.898,504.565C599.669,494.432 609.048,482.877 619.755,473.896C621.051,472.809 636.045,471.163 638.613,470.845C644.716,470.7 659.484,469.028 666.359,468.315C678.175,467.09 698.044,465.972 709.097,463.438C701.351,472.724 690.709,482.4 682.437,491.797C673.509,501.33 674.395,509.874 669.322,519.858C666.772,524.876 656.044,540.021 652.295,544.779C644.857,547.004 631.403,551.021 624.238,551.949C616.957,552.892 605.848,551.558 598.207,553.448ZM648.174,497.053C636.887,504.993 624.677,510.925 612.127,516.579C610.009,517.533 602.992,520.229 601.944,522.012C602.807,523.636 605.738,523.657 607.482,523.868C615.321,524.398 623.268,525.723 631.091,526.634C634.879,524.862 640.314,521.694 643.819,519.312C645.363,516.028 651.938,501.169 651.34,498.422C650.093,497.399 649.734,497.448 648.174,497.053ZM507.635,824.547L461.27,838.284C456.07,839.796 444.571,842.481 440.113,844.27C452.617,857.012 466.411,869.108 478.78,882.573C492.498,882.288 504.521,882.885 518.024,883.046C526.349,883.276 534.675,883.424 543.003,883.489C547.825,880.515 581.893,848.848 584.306,844.623C580.557,842.812 577.565,842.019 573.517,841.018C552.816,835.895 532.284,830.118 511.692,824.594C510.359,824.237 508.98,824.353 507.635,824.547Z" style="fill:rgb(65,0,0);"  data-color="color-1"/>
        <path d="M250.634,55.23C252.555,56.927 339.775,146.762 381.488,189.009C394.107,201.789 406.518,215.807 419.541,228.084C441.838,223.841 509.244,212.251 515.179,212.919C545.242,216.301 576.195,223.243 606.052,227.718C614.669,218.282 624.568,208.86 633.499,199.518C657.195,174.545 681.07,149.742 705.123,125.112C727.314,102.371 750.513,76.495 773.836,55.325C777.926,63.468 781.636,73.399 785.191,81.957C795.087,105.839 804.087,130.082 812.172,154.636C826.915,202.186 836.238,251.249 839.964,300.893C840.259,304.594 841.748,322.607 840.946,324.71C838.086,332.21 830.571,345.537 826.678,352.952C819.419,366.778 812.283,380.669 805.262,394.618C821.914,420.141 838.465,449.901 853.927,476.351C872.634,508.353 893.657,542.9 910.97,575.721C894.004,585.859 877.101,596.104 860.265,606.455C865.707,623.516 872.206,640.481 875.887,658.012C868.875,663.467 861.259,668.645 854.054,673.929L810.431,706.044C805.337,709.787 800.492,714.076 795.443,717.906C784.279,726.374 773.12,734.777 762.075,743.402C729.58,769.258 695.226,796.594 666.565,826.651C663.153,830.229 653.4,870.262 649.675,876.426C644.858,884.397 623.768,898.801 615.977,904.76L563.75,944.892C557.274,944.123 547.851,944.44 541.128,944.427C529.622,944.337 518.115,944.304 506.609,944.348C496.267,944.387 470.677,943.772 461.55,945.189C456.136,941.674 442.33,930.579 435.96,925.582C419.004,912.282 395.512,895.871 379.987,881.633C373.391,870.23 368.597,853.598 364.192,841.578C359.909,829.891 359.711,827.378 350.939,819.487C333.181,803.514 316.543,786.008 297.657,771.528C280.175,758.125 263.806,742.41 246.328,729.305L180.428,680.446C171.349,673.775 157.991,665.102 149.741,658.103L149.206,657.645C151.996,649.911 154.213,641.496 156.631,633.576C159.391,624.538 162.645,615.179 164.907,606.046C149.254,595.757 130.708,586.089 115.789,575.932C126.77,554.922 139.061,534.931 150.464,514.323C165.355,486.981 180.819,459.955 196.847,433.263C205.139,419.232 210.621,409.133 219.594,395.305C213.612,385.286 207.066,371.6 201.78,361.111C197.254,352.129 183.013,329.543 183.551,320.704C186.136,278.228 191.39,234.599 201.379,193.214C212.915,145.419 233.126,100.774 250.634,55.23ZM765.953,95.444C728.373,133.589 691.104,172.038 654.149,210.789C641.116,224.324 626.815,240.478 613.516,253.365C590.776,247.161 563.617,243.89 540.195,239.864C536.032,239.149 514.864,236.008 512.274,236.169C497.809,237.069 476.909,240.331 462.64,243.15C448.64,245.917 425.217,249.265 412.304,253.374C405.979,247.404 399.99,240.497 393.97,234.155L359.306,198.033L259.616,95.588C237.405,142.585 222.111,200.311 214.125,251.537C210.466,275.009 209.188,297.826 206.987,321.226C212.939,332.022 218.194,343.164 223.9,354.094C231.172,367.789 238.688,381.352 246.445,394.777C239.266,408.199 231.416,419.089 224.089,431.604L183.782,500.832C170.3,523.678 157.719,544.095 145.418,567.99C161.017,576.572 178.329,585.876 193.499,594.923C188.947,609.387 183.385,623.593 179.647,638.37C178.787,641.771 177.457,645.282 176.004,648.482C188.612,658.966 200.324,666.295 213.007,676.005C235.447,693.184 258.746,710.851 280.459,728.883C303.465,747.441 326.063,766.498 348.237,786.042C356.978,793.873 365.909,801.785 373.724,810.566C376.882,814.114 377.102,818.338 378.688,822.24C381.93,830.217 391.577,861.856 396.695,866.265C416.783,883.577 438.589,898.771 459.448,915.13C462.345,917.385 465.268,919.554 468.29,921.591C498.154,920.754 526.415,921.858 555.778,921.506C560.691,918.523 565.635,914.726 570.245,911.215C589.173,896.779 608.352,882.772 626.565,867.413C633.417,861.634 635.004,850.286 638.447,842.636C642.041,834.653 644.356,816.646 649.7,811.097C669.476,790.562 691.733,772.933 713.476,754.668C747.53,725.548 782.707,697.769 818.928,671.393C829.36,663.668 839.413,655.797 850.094,648.393C846.494,641.661 843.939,631.536 841.496,624.015C838.401,614.268 834.95,604.638 831.152,595.143C845.345,587.587 859.32,579.643 873.674,572.382C876.04,571.186 878.557,569.925 880.769,568.482L812.453,451.82C801.095,432.671 790.017,413.134 778.129,394.29C786.215,379.16 794.379,364.072 802.622,349.027C806.885,341.15 813.284,328.268 817.908,321.147C813.475,250.5 801.099,183.565 774.448,117.954C772.874,114.079 767.696,97.274 765.953,95.444ZM551.655,496.533L549.352,492.898C547.708,487.774 549.264,486.338 552.246,482.25C566.579,459.89 580.693,438.724 596.787,417.498C602.062,410.54 607.944,401.382 613.354,394.967C641.17,412.576 703.902,449.795 703.162,452.462C698.468,454.952 690.681,456.065 685.316,457.268L655.194,464.067C649.246,465.465 621.051,472.809 619.755,473.896C609.048,482.877 599.669,494.432 589.898,504.565C585.213,509.424 573.673,518.309 571.653,523.668C567.508,518.235 554.51,501.935 551.655,496.533ZM368.901,653.194C370.433,665.714 371.575,681.054 372.746,693.789L379.704,769.647C366.715,749.713 356.54,726.287 343.738,706.097C341.876,703.161 336.408,698.054 333.849,695.442L314.938,676.2C305.244,666.214 295.495,656.28 285.685,646.407C281.659,642.354 272.101,631.394 267.176,630.353C272.49,614.808 291.793,596.948 301.547,581.318C313.826,593.939 326.835,605.914 338.631,618.996C348.566,630.013 360.397,641.093 368.901,653.194ZM682.437,491.797C687.137,494.131 695.637,496.603 700.794,498.218C708.278,500.569 715.722,503.046 723.123,505.647C716.039,515.682 708.616,524.743 701.179,534.495C692.667,545.657 684.766,557.994 675.382,568.445C673.125,570.958 670.224,573.07 667.212,574.581C657.376,579.514 647.203,584.282 637.232,588.913C629.41,592.547 620.401,595.8 613.5,600.773C613.21,600.917 612.921,601.06 612.631,601.204C609.712,597.903 599.195,559.573 598.207,553.448C605.848,551.558 616.957,552.892 624.238,551.949C631.403,551.021 644.857,547.004 652.295,544.779C656.044,540.021 666.772,524.876 669.322,519.858C674.395,509.874 673.509,501.33 682.437,491.797ZM620.651,699.785C620.108,707.763 623.686,719.017 623.162,728.419C623.183,734.354 621.727,740.158 620.904,745.998C618.754,761.254 614.7,776.132 611.01,791.07C609.959,795.324 605.764,816.097 602.854,817.316L547.991,802.998C541.916,801.452 526.359,798.225 521.275,795.987C524.649,791.749 534.77,781.889 538.929,777.792C547.203,769.642 556.586,759.45 565.145,751.815C569.081,754.363 571.473,756.446 575.006,759.465C576.95,754.539 578.764,746.642 580.143,741.276L587.516,712.378C583.154,707.856 567.715,693.016 562.745,690.609C562.671,685.301 564.97,675.842 565.79,670.395C568.541,652.132 574.056,634.308 577.931,616.395C581.708,621.611 585.803,631.444 588.698,637.426C597.564,655.746 605.385,674.583 615.87,692.083C617.154,694.226 619.861,697.714 620.651,699.785ZM460.553,690.503C459.842,690.646 457.99,691.062 457.559,691.495C452.971,696.104 441.833,706.215 438.448,711.057C441.037,725.153 445.035,746.222 448.86,759.923C452.965,757.43 456.914,754.688 460.686,751.715C468.189,758.824 476.947,769.095 484.054,776.845C488.194,781.36 497.085,790.853 500.472,795.524C495.847,797.212 491.062,798.7 486.305,800.056C466.771,805.625 447.435,812.667 427.294,815.704C425.203,816.019 423.054,816.278 420.996,816.686C416.93,805.125 414.559,790.748 411.543,778.606C407.858,763.768 403.067,748.377 401.517,733.158C400.681,724.947 407.235,709.396 405.289,702.21C406.648,700.925 414.967,682.169 416.224,679.446C421.191,668.653 426.224,657.89 431.323,647.159C436.345,636.545 439.808,628.37 446.477,618.605C451.929,639.434 459.2,669.141 460.553,690.503ZM507.635,824.547C508.98,824.353 510.359,824.237 511.692,824.594C532.284,830.118 552.816,835.895 573.517,841.018C577.565,842.019 580.557,842.812 584.306,844.623C581.893,848.848 547.825,880.515 543.003,883.489C534.675,883.424 526.349,883.276 518.024,883.046C504.521,882.885 492.498,882.288 478.78,882.573C466.411,869.108 452.617,857.012 440.113,844.27C444.571,842.481 456.07,839.796 461.27,838.284L507.635,824.547ZM371.228,497.328C378.022,497.983 392.767,507.147 399.618,510.41C403.465,512.242 417.031,518.759 419.74,521.179L419.695,522.175L417.907,523.324C408.971,524.273 400.476,524.852 391.48,526.016C380.189,517.195 374.338,513.773 371.228,497.328ZM648.174,497.053C649.734,497.448 650.093,497.399 651.34,498.422C651.938,501.169 645.363,516.028 643.819,519.312C640.314,521.694 634.879,524.862 631.091,526.634C623.268,525.723 615.321,524.398 607.482,523.868C605.738,523.657 602.807,523.636 601.944,522.012C602.992,520.229 610.009,517.533 612.127,516.579C624.677,510.925 636.887,504.993 648.174,497.053ZM759.185,629.169C753.648,631.474 728.107,660.389 722.09,666.153C710.709,677.055 697.629,689.562 687.281,701.549C685.164,704.07 679.808,713.052 678.031,715.907C672.166,725.192 666.474,734.585 660.958,744.081C657.263,750.342 652.652,756.917 649.815,763.478C649.421,764.389 649.515,764.299 648.678,764.893C647.489,764.349 647.323,764.232 646.865,762.901C645.268,758.263 655.691,664.215 657.192,653.504C660.594,648.487 672.594,636.226 677.53,630.938L724.529,581.205C728.988,586.271 758.341,624.768 759.185,629.169ZM340.55,459.846C337.001,459.12 319.632,454.623 318.213,454.002C319.027,452.649 379.063,416.511 400.654,403.436C404.182,401.3 407.991,399.052 412.006,397.999C413.879,398.784 451.933,447.872 469.085,471.118C477.778,482.899 481.104,484.678 473.857,497.937C471.129,502.044 456.996,520.796 453.345,522.087C450.687,517.941 443.152,512.983 439.534,509.184C432.674,502.096 425.757,495.131 418.816,488.113C415.838,485.665 409.89,476.603 406.822,475.11C397.833,470.737 378.478,469.663 368.799,468.408C372.652,467.464 362.083,464.43 354.731,462.85C349.996,461.833 345.286,460.815 340.55,459.846ZM424.623,553.782C424.289,559.899 422.296,568.635 421.16,574.65C419.561,583.115 417.916,591.523 415.689,599.847C413.595,598.851 411.486,598.261 409.317,597.472C391.1,590.842 373.161,583.198 355.56,575.089C353.425,574.105 351.225,571.459 349.865,569.535C337.923,552.642 325.97,535.805 313.108,519.591C309.847,515.48 306.477,511.141 303.758,506.672C313.793,502.985 332.313,495.438 341.839,491.096C349.885,498.796 349.501,509.542 353.454,518.169C355.999,523.72 368.142,540.197 372.365,544.632C376.024,545.202 378.865,545.673 382.377,546.742C385.907,547.818 390.999,550.545 394.482,551.044C404.242,552.441 415.07,550.725 424.623,553.782Z" style="fill:rgb(177,177,177);"  data-color="color-3"/>
    </g>
</svg>
