<?xml version="1.0" encoding="UTF-8" standalone="no"?>
<!DOCTYPE svg PUBLIC "-//W3C//DTD SVG 1.1//EN" "http://www.w3.org/Graphics/SVG/1.1/DTD/svg11.dtd">
<svg width="100%" height="100%" viewBox="0 0 1020 812" version="1.1" xmlns="http://www.w3.org/2000/svg" xmlns:xlink="http://www.w3.org/1999/xlink" xml:space="preserve" xmlns:serif="http://www.serif.com/" style="fill-rule:evenodd;clip-rule:evenodd;stroke-linejoin:round;stroke-miterlimit:2;">
    <g transform="matrix(1,0,0,1,-205.13,-81.9137)">
        <g transform="matrix(0.807695,0,0,0.807695,145.416,83.0528)">
            <path d="M880.215,37.171C882.495,38.654 885.083,42.132 886.781,44.303C914.666,80.281 958.494,108.497 1002.63,119.356C1058.5,133.103 1112.15,146.816 1145.03,198.705C1147.88,203.203 1155.71,218.787 1159.36,221.06C1173.77,230.618 1195.14,235.788 1208.69,246.73C1223.05,258.317 1235.39,273.602 1249.54,286.247C1261.18,296.685 1272.98,306.944 1284.93,317.021C1296.05,326.287 1311.76,337.323 1321.62,347.657C1324.82,352.481 1324.86,360.047 1323.73,365.014C1318.41,388.541 1300.24,377.587 1282.66,373.065C1290.08,378.797 1298.45,383.816 1306.42,388.806C1276.17,397.046 1266.62,374.469 1238.86,370.101C1193.94,363.035 1145.49,382.161 1123.78,328.506C1124.75,347.562 1128.69,359.811 1145.15,371.017C1120.57,395.147 1110.37,420.273 1094.6,449.415C1086.91,463.397 1078.59,477.02 1069.66,490.243C1054.26,512.872 1031.33,541.538 1006.41,554.82C1000.66,557.887 992.542,559.243 986.066,560.479C986.234,535.198 984.459,516.122 972.601,493.62C975.69,514.896 976.069,552.245 967.448,572.234C1012.71,568.674 1058.44,559.798 1104.06,558.04C1116.64,557.011 1149.56,556.057 1148.78,575.303C1148.29,587.62 1136.58,610.875 1128.62,619.847C1093.66,659.235 1072.03,707.933 1035.22,745.78C1030.26,750.877 1024.21,755.209 1017.8,758.288C1004.79,763.519 920.702,790.785 913.531,783.49C911.411,773.55 934.382,744.004 943.822,739.456C958.241,732.509 979.232,733.925 994.149,738.097C995.046,733.348 996.678,723.841 999.433,720.208C1009.11,707.45 1025.49,695.297 1037.57,684.338C1049.64,673.495 1060.92,661.803 1071.33,649.353C1077.12,642.347 1097.34,616.584 1096.55,608.196C1095.33,606.409 1094.8,605.956 1092.62,605.534C1076.12,602.35 980.583,630.594 959.103,636.829C946.151,640.588 932.369,645.858 919.077,647.812C913.972,648.563 908.875,648.412 904.035,646.49C899.327,644.621 895.381,641.344 892.109,637.529C879.47,622.794 863.665,588.011 855.92,569.462C855.294,596.906 859.93,613.918 871.143,639.1C808.031,654.561 760.005,642.06 701.528,617.373C664.683,601.818 633.594,593.67 593.648,592.947C603.034,571.191 610.695,545.127 610.485,521.273C598.869,549.072 575.894,588.403 558.691,612.929C557.961,613.993 557.222,615.049 556.472,616.098C518.218,669.577 447.519,688.684 385.877,698.928C354.543,704.136 333.557,701.122 311.796,728.578C284.372,763.18 255.355,796.816 228.764,832.122C210.274,856.499 192.559,881.999 173.013,905.48C155.512,926.178 136.274,945.342 115.509,962.763C107.419,969.542 87.127,990.498 86.359,967.484C86.004,955.122 87.668,942.784 91.285,930.958C104.015,890.216 127.493,910.852 138.008,900.258C142.385,895.848 138.844,884.593 143.202,878.356C150.397,868.058 168.568,855.983 178.313,846.8C197.634,828.591 213.085,806.522 227.948,784.668C247.038,756.599 264.607,728.122 280.186,697.94C283.107,692.283 286.237,686.592 288.746,680.74C291.84,673.523 294.001,662.374 298.638,656.277C299.682,654.904 302.298,654.325 303.919,653.884C317.464,650.204 330.188,648.943 343.336,643.254C362.978,634.756 379.99,621.557 392.169,603.859C405.136,585.015 408.777,564.9 414.845,543.395C424.344,509.73 441.198,485.907 464.776,460.804C459.867,463.189 455.049,465.451 449.918,467.314C395.14,487.2 352.663,452.692 335.344,403.375C383.527,438.043 426.949,452.79 485.733,436.257C512.838,428.633 529.507,421.277 558.935,418.141C588.568,414.983 612.645,417.582 642.094,418.587C666.493,419.821 689.905,418.351 714.234,417.061C773.35,414.063 826.56,379.556 885.542,379.723C916.783,379.812 932.133,395.083 963.982,381.253C1006.54,362.771 1026.36,325.443 1053.77,290.879C1063.65,278.422 1076.51,266.896 1089.06,257.352C1030.27,271.99 995.177,233.521 970.192,186.46C1006.5,190.989 1035.73,197.654 1069.24,213.142C1081.74,218.92 1095.32,226.654 1107.72,231.577C1091.13,178.844 1029.17,159.791 983.838,140.252C937.969,120.479 888.038,91.299 880.215,37.171ZM1182.1,266.454C1175.7,268.013 1169.49,270.289 1163.6,273.238C1182.98,279.418 1186.09,287.82 1205.82,290.037C1210.4,290.768 1215.24,291.455 1219.77,292.414C1207.2,277.957 1203.98,264.477 1182.1,266.454ZM581.824,614.452C591.246,615.752 609.98,616.051 620.547,616.792C574.742,680.632 532.605,699.831 457.391,719.891C443.063,723.712 424.6,727.96 414.013,738.487C396.337,756.253 386.827,780.503 374.632,802.091C356.048,836.626 334.138,870.279 315.599,904.739C298.278,936.936 280.764,953.939 253.554,978.387C248.471,982.914 240.117,992.651 233.227,990.263C231.062,988.063 230.418,985.51 230.069,982.537C228.978,973.23 230.29,962.586 232.388,953.478C242.527,909.448 270.813,924.167 275.511,914.043C278.053,908.565 273.049,900.741 275.972,894.559C279.889,886.273 293.563,874.475 299.833,866.274C312.55,849.641 323.884,831.307 334.238,813.12C345.906,792.522 356.132,771.14 364.844,749.128C367.567,742.372 373.868,722.458 378.148,718.504C381.136,715.744 401.107,713.366 406.68,712.171C461.232,700.478 515.31,683.922 556.448,644.18C566.387,634.578 573.49,625.225 581.824,614.452ZM1130.56,635.919C1138.71,667.042 1158.99,753.269 1155.66,781.983C1155.04,787.359 1153.83,792.23 1151.29,797.027C1147.02,805.076 1140.41,811.737 1134.26,818.364C1125.78,827.513 1117.31,836.889 1108,845.214C1099.12,853.16 1089.29,860.326 1079.97,867.788C1076.45,868.984 1077.51,869.155 1074.6,868.418C1072.97,866.638 1072.35,865.01 1071.86,862.686C1070.43,855.882 1070.96,847.696 1071.37,840.98C1073.05,813.516 1085.59,808.887 1107.98,798.213C1111.56,796.504 1115.82,794.407 1117.83,790.75C1119.98,786.836 1114.69,779.858 1112.94,774.1L1112.68,773.201C1113.81,768.326 1115.77,763.784 1116.26,758.522C1118.96,729.239 1112,696.716 1106.86,667.952C1115.94,655.981 1119.59,648.351 1130.56,635.919ZM931.824,28.12C933.635,29.569 940.742,41.168 943.243,44.287C950.42,53.24 957.158,61.453 965.392,69.424C1001.62,104.496 1047.81,115.134 1093.17,132.383C1120.83,142.903 1149.33,162.914 1164.45,188.762C1170.54,199.193 1174.91,209.579 1179.65,220.786C1173.03,217.913 1166.45,214.947 1159.92,211.889C1135.59,158.878 1094.81,133.316 1038.99,120.761C989.304,109.585 940.49,84.229 931.824,28.12Z" style="fill:rgb(88,153,77);"/>
        </g>
        <g transform="matrix(0.807695,0,0,0.807695,145.416,83.0528)">
            <path d="M128.056,891.32C128.168,889.851 128.309,887.968 128.399,886.648C128.787,880.969 130.091,875.505 133.053,871.265C140.632,860.418 159.557,847.462 169.822,837.79C188.489,820.197 203.35,798.82 217.71,777.705C236.519,750.051 253.835,721.997 269.185,692.26C271.971,686.864 274.974,681.443 277.367,675.861C280.812,667.824 283.619,655.573 288.783,648.783C291.253,645.535 296.834,642.981 300.671,641.937L300.673,641.936C313.632,638.415 325.84,637.334 338.42,631.891C355.921,624.319 371.118,612.609 381.97,596.84C394.128,579.171 397.24,560.197 402.929,540.033C408.908,518.846 417.58,501.302 428.869,484.975C378.948,490.474 340.549,455.563 323.662,407.477L310.618,370.332L342.575,393.325C387.397,425.575 427.697,439.718 482.381,424.339C510.232,416.505 527.385,409.052 557.623,405.83C587.874,402.606 612.453,405.187 642.618,406.217L642.719,406.222C666.685,407.434 689.681,405.965 713.593,404.697L713.607,404.696C742.092,403.251 769.119,394.068 796.165,385.413C825.466,376.037 854.787,367.255 885.577,367.342C899.083,367.381 909.854,369.958 920.104,372.184C932.013,374.771 943.053,376.843 959.05,369.897C999.618,352.279 1017.94,316.134 1044.07,283.186C1047,279.495 1050.17,275.878 1053.51,272.361C1010.31,267.482 981.04,233.297 959.257,192.266L948.086,171.226L971.724,174.174C1009.36,178.869 1039.64,185.832 1074.37,201.875C1067.23,195.119 1058.99,189.31 1050.24,184.112C1027.47,170.59 1001.15,161.196 978.937,151.622C929.305,130.227 876.426,97.511 867.961,38.942L864.051,11.882C864.051,11.882 894.124,33.595 896.55,36.697L896.567,36.718C907.883,51.319 921.99,64.559 937.708,75.716C928.718,62.961 922.344,47.855 919.588,30.01L914.735,-1.41C914.735,-1.41 941.82,20.538 943.411,22.683C946.161,26.391 950.956,34.114 952.903,36.543C959.746,45.08 966.152,52.928 974.004,60.529C1008.97,94.38 1053.79,104.162 1097.57,120.811C1127.74,132.284 1158.65,154.322 1175.14,182.515L1175.14,182.52C1181.51,193.418 1186.1,204.254 1191.05,215.963L1194.78,224.779C1202.69,228.343 1210.35,232.159 1216.47,237.096C1230.98,248.81 1243.49,264.232 1257.8,277.022L1257.81,277.029C1269.34,287.375 1281.04,297.543 1292.88,307.531C1304.33,317.066 1320.43,328.479 1330.58,339.11L1331.33,339.902L1331.94,340.813C1336.92,348.322 1337.56,360.021 1335.8,367.754C1333.73,376.915 1329.98,382.615 1325.63,386.227C1325.63,386.227 1318.91,392.346 1314.19,396.641C1310.65,399.862 1306.22,401.934 1301.48,402.583C1286.81,404.589 1276.19,400.624 1265.86,395.097C1257.34,390.531 1249.22,384.264 1236.94,382.331C1214.56,378.811 1191.3,381.838 1170.93,379.04C1166.31,378.404 1161.8,377.521 1157.45,376.291L1153.82,379.852C1130.21,403.032 1120.64,427.313 1105.47,455.345L1105.45,455.382C1097.58,469.693 1089.06,483.637 1079.91,497.19L1079.9,497.209C1067.57,515.314 1050.58,536.895 1031.63,552.515C1055.5,549.482 1079.42,546.614 1103.3,545.68C1112.12,544.978 1129.11,544.623 1141.19,548.965C1153.65,553.446 1161.7,562.126 1161.15,575.799C1160.63,588.924 1149.49,612.778 1140.46,624.866L1142.54,632.783C1150.94,664.861 1171.39,753.809 1167.96,783.407C1167.16,790.353 1165.51,796.623 1162.23,802.825L1162.23,802.829C1157.46,811.823 1150.21,819.378 1143.34,826.783C1134.6,836.213 1125.85,845.861 1116.25,854.442C1107.21,862.537 1097.2,869.851 1087.71,877.453L1086.01,878.811L1083.95,879.511C1079.41,881.055 1078.25,881.229 1076.83,881.24C1075.75,881.248 1074.41,881.141 1071.56,880.42L1067.97,879.511L1065.47,876.779C1062.16,873.171 1060.74,869.952 1059.75,865.236L1059.74,865.232C1058.1,857.392 1058.54,847.964 1059.01,840.224C1059.87,826.144 1063.34,816.863 1068.58,809.779C1075.74,800.077 1086.92,794.535 1102.65,787.04C1103.14,786.805 1103.8,786.445 1104.46,786.068C1103.28,783.43 1101.75,779.863 1101.07,777.62L1099.89,773.545L1100.62,770.405C1101.62,766.068 1103.5,762.059 1103.93,757.377C1106.12,733.633 1101.58,707.694 1097.13,683.553C1080.87,708.215 1064.89,733.034 1044.09,754.414C1038.13,760.539 1030.86,765.748 1023.16,769.448L1022.8,769.624L1022.42,769.775C1011.67,774.095 953.957,792.922 927.515,796.445C921.202,797.286 916.191,797.217 913.062,796.556C909.147,795.729 906.471,793.969 904.702,792.169L902.174,789.598L901.422,786.073C900.391,781.236 901.834,773.224 906.437,764.617C914.3,749.911 930.6,732.083 938.448,728.302C951.608,721.962 969.422,721.235 984.924,723.529C986.216,719.194 987.8,715.058 989.568,712.726C999.667,699.412 1016.64,686.605 1029.27,675.148L1029.3,675.128C1040.92,664.686 1051.78,653.427 1061.81,641.439C1065.01,637.568 1072.78,627.758 1078.6,618.644C1074.21,619.43 1068.96,620.56 1063.18,621.811C1028.37,629.354 977.468,644.39 962.554,648.719C949.076,652.631 934.71,658.028 920.879,660.061C913.606,661.131 906.361,660.735 899.466,657.997C894.072,655.856 889.336,652.47 885.285,648.383L874.089,651.125C808.107,667.29 757.849,654.589 696.713,628.779C677.016,620.464 659.041,614.339 640.35,610.43L630.606,624.01C582.822,690.609 539.046,710.927 460.581,731.854C448.188,735.159 431.934,738.149 422.751,747.258C405.911,764.206 397.092,787.476 385.481,808.058C366.909,842.557 345.023,876.178 326.502,910.605C308.417,944.223 290.24,962.069 261.809,987.615L261.788,987.633C257.49,991.461 251.014,998.07 244.805,1000.88C239.497,1003.29 234.154,1003.69 229.173,1001.96L226.435,1001.01L224.402,998.947C220.156,994.632 218.457,989.811 217.772,983.979C216.523,973.323 217.921,961.127 220.323,950.699C224.115,934.232 230.328,924.551 236.787,918.453C243.913,911.726 251.656,909.007 258.625,907.512C260.036,907.209 261.792,906.851 263.344,906.54C263.223,905.695 263.104,904.853 263.014,904.197C262.303,899.03 262.577,893.925 264.779,889.267C268.969,880.403 283.29,867.527 289.997,858.754C302.376,842.564 313.393,824.71 323.471,807.007C334.855,786.91 344.832,766.048 353.346,744.536L353.361,744.5C355.31,739.664 359.072,728.245 362.642,720.437C363.74,718.037 364.903,715.904 366.039,714.118C362.176,714.625 358.471,715.166 354.891,715.861C342.673,718.233 332.205,722.761 321.499,736.268C294.138,770.791 265.184,804.346 238.641,839.587L238.628,839.604C220.026,864.129 202.193,889.777 182.498,913.438L182.467,913.474C164.511,934.711 144.772,954.374 123.464,972.25L123.461,972.253C118.92,976.057 110.832,983.681 103.895,987.283C96.42,991.165 89.339,991.097 84.17,988.277C79.58,985.773 74.398,980.256 73.984,967.868L73.983,967.84C73.589,954.132 75.435,940.45 79.457,927.301L79.468,927.266C88.155,899.463 101.744,893.764 113.72,892.047C117.785,891.464 121.796,891.525 125.539,891.481C126.253,891.472 127.223,891.398 128.056,891.32ZM880.215,37.171C888.038,91.299 937.969,120.479 983.838,140.252C1029.17,159.791 1091.13,178.844 1107.72,231.577C1095.32,226.654 1081.74,218.92 1069.24,213.142C1035.73,197.654 1006.5,190.989 970.192,186.46C995.177,233.521 1030.27,271.99 1089.06,257.352C1076.51,266.896 1063.65,278.422 1053.77,290.879C1026.36,325.443 1006.54,362.771 963.982,381.253C932.133,395.083 916.783,379.812 885.542,379.723C826.56,379.556 773.35,414.063 714.234,417.061C689.905,418.351 666.493,419.821 642.094,418.587C612.645,417.582 588.568,414.983 558.935,418.141C529.507,421.277 512.838,428.633 485.733,436.257C426.949,452.79 383.527,438.043 335.344,403.375C352.663,452.692 395.14,487.2 449.918,467.314C455.049,465.451 459.867,463.189 464.776,460.804C441.198,485.907 424.344,509.73 414.845,543.395C408.777,564.9 405.136,585.015 392.169,603.859C379.99,621.557 362.978,634.756 343.336,643.254C330.188,648.943 317.464,650.204 303.919,653.884C302.298,654.325 299.682,654.904 298.638,656.277C294.001,662.374 291.84,673.523 288.746,680.74C286.237,686.592 283.107,692.283 280.186,697.94C264.607,728.122 247.038,756.599 227.948,784.668C213.085,806.522 197.634,828.591 178.313,846.8C168.568,855.983 150.397,868.058 143.202,878.356C138.844,884.593 142.385,895.848 138.008,900.258C127.493,910.852 104.015,890.216 91.285,930.958C87.668,942.784 86.004,955.122 86.359,967.484C87.127,990.498 107.419,969.542 115.509,962.763C136.274,945.342 155.512,926.178 173.013,905.48C192.559,881.999 210.274,856.499 228.764,832.122C255.355,796.816 284.372,763.18 311.796,728.578C333.557,701.122 354.543,704.136 385.877,698.928C447.519,688.684 518.218,669.577 556.472,616.098C557.222,615.049 557.961,613.993 558.691,612.929C575.894,588.403 598.869,549.072 610.485,521.273C610.695,545.127 603.034,571.191 593.648,592.947C633.594,593.67 664.683,601.818 701.528,617.373C760.005,642.06 808.031,654.561 871.143,639.1C859.93,613.918 855.294,596.906 855.92,569.462C863.665,588.011 879.47,622.794 892.109,637.529C895.381,641.344 899.327,644.621 904.035,646.49C908.875,648.412 913.972,648.563 919.077,647.812C932.369,645.858 946.151,640.588 959.103,636.829C980.583,630.594 1076.12,602.35 1092.62,605.534C1094.8,605.956 1095.33,606.409 1096.55,608.196C1097.34,616.584 1077.12,642.347 1071.33,649.353C1060.92,661.803 1049.64,673.495 1037.57,684.338C1025.49,695.297 1009.11,707.45 999.433,720.208C996.678,723.841 995.046,733.348 994.149,738.097C979.232,733.925 958.241,732.509 943.822,739.456C934.382,744.004 911.411,773.55 913.531,783.49C920.702,790.785 1004.79,763.519 1017.8,758.288C1024.21,755.209 1030.26,750.877 1035.22,745.78C1072.03,707.933 1093.66,659.235 1128.62,619.847C1136.58,610.875 1148.29,587.62 1148.78,575.303C1149.56,556.057 1116.64,557.011 1104.06,558.04C1058.44,559.798 1012.71,568.674 967.448,572.234C976.069,552.245 975.69,514.896 972.601,493.62C984.459,516.122 986.234,535.198 986.066,560.479C992.542,559.243 1000.66,557.887 1006.41,554.82C1031.33,541.538 1054.26,512.872 1069.66,490.243C1078.59,477.02 1086.91,463.397 1094.6,449.415C1110.37,420.273 1120.57,395.147 1145.15,371.017C1128.69,359.811 1124.75,347.562 1123.78,328.506C1145.49,382.161 1193.94,363.035 1238.86,370.101C1266.62,374.469 1276.17,397.046 1306.42,388.806C1298.45,383.816 1290.08,378.797 1282.66,373.065C1300.24,377.587 1318.41,388.541 1323.73,365.014C1324.86,360.047 1324.82,352.481 1321.62,347.657C1311.76,337.323 1296.05,326.287 1284.93,317.021C1272.98,306.944 1261.18,296.685 1249.54,286.247C1235.39,273.602 1223.05,258.317 1208.69,246.73C1195.14,235.788 1173.77,230.618 1159.36,221.06C1155.71,218.787 1147.88,203.203 1145.03,198.705C1112.15,146.816 1058.5,133.103 1002.63,119.356C958.494,108.497 914.666,80.281 886.781,44.303C885.083,42.132 882.495,38.654 880.215,37.171ZM1182.1,266.454C1203.98,264.477 1207.2,277.957 1219.77,292.414C1215.24,291.455 1210.4,290.768 1205.82,290.037C1186.09,287.82 1182.98,279.418 1163.6,273.238C1169.49,270.289 1175.7,268.013 1182.1,266.454ZM581.824,614.452C573.49,625.225 566.387,634.578 556.448,644.18C515.31,683.922 461.232,700.478 406.68,712.171C401.107,713.366 381.136,715.744 378.148,718.504C373.868,722.458 367.567,742.372 364.844,749.128C356.132,771.14 345.906,792.522 334.238,813.12C323.884,831.307 312.55,849.641 299.833,866.274C293.563,874.475 279.889,886.273 275.972,894.559C273.049,900.741 278.053,908.565 275.511,914.043C270.813,924.167 242.527,909.448 232.388,953.478C230.29,962.586 228.978,973.23 230.069,982.537C230.418,985.51 231.062,988.063 233.227,990.263C240.117,992.651 248.471,982.914 253.554,978.387C280.764,953.939 298.278,936.936 315.599,904.739C334.138,870.279 356.048,836.626 374.632,802.091C386.827,780.503 396.337,756.253 414.013,738.487C424.6,727.96 443.063,723.712 457.391,719.891C532.605,699.831 574.742,680.632 620.547,616.792C609.98,616.051 591.246,615.752 581.824,614.452ZM1130.56,635.919C1119.59,648.351 1115.94,655.981 1106.86,667.952C1112,696.716 1118.96,729.239 1116.26,758.522C1115.77,763.784 1113.81,768.326 1112.68,773.201L1112.94,774.1C1114.69,779.858 1119.98,786.836 1117.83,790.75C1115.82,794.407 1111.56,796.504 1107.98,798.213C1085.59,808.887 1073.05,813.516 1071.37,840.98C1070.96,847.696 1070.43,855.882 1071.86,862.686C1072.35,865.01 1072.97,866.638 1074.6,868.418C1077.51,869.155 1076.45,868.984 1079.97,867.788C1089.29,860.326 1099.12,853.16 1108,845.214C1117.31,836.889 1125.78,827.513 1134.26,818.364C1140.41,811.737 1147.02,805.076 1151.29,797.027C1153.83,792.23 1155.04,787.359 1155.66,781.983C1158.99,753.269 1138.71,667.042 1130.56,635.919ZM931.824,28.12C940.49,84.229 989.304,109.585 1038.99,120.761C1094.81,133.316 1135.59,158.878 1159.92,211.889C1166.45,214.947 1173.03,217.913 1179.65,220.786C1174.91,209.579 1170.54,199.193 1164.45,188.762C1149.33,162.914 1120.83,142.903 1093.17,132.383C1047.81,115.134 1001.62,104.496 965.392,69.424C957.158,61.453 950.42,53.24 943.243,44.287C940.742,41.168 933.635,29.569 931.824,28.12Z"/>
        </g>
    </g>
</svg>
