<svg width="100%" height="100%" viewBox="0 0 906 1210" version="1.1" xmlns="http://www.w3.org/2000/svg" xmlns:xlink="http://www.w3.org/1999/xlink" xml:space="preserve" xmlns:serif="http://www.serif.com/" style="fill-rule:evenodd;clip-rule:evenodd;stroke-linejoin:round;stroke-miterlimit:2;">
    <g transform="matrix(1,0,0,1,-39.6226,-141.475)">
        <path d="M172.251,157.6C198.274,155.357 244.451,177.155 266.036,191.472C306.125,218.063 348.283,269.937 357.587,317.927C435.812,301.114 489.542,363.722 499.606,435.806C500.998,446.467 501.575,457.218 501.332,467.967C501.288,470.757 500.601,476.378 501.891,478.136C505.507,477.453 507.908,476.566 508.482,472.575C510.94,456.111 515.226,440.105 520.258,424.202C543.066,352.116 573.415,279.092 623.611,221.539C634.379,209.193 648.232,196.842 662.753,189.487C688.896,176.246 691.037,217.479 691.174,233.566C691.941,270.027 682.694,302.315 669.304,335.992C676.026,328.311 682.812,320.686 689.661,313.118C739.301,258.769 801.567,201.203 870.044,172.002C889.269,163.804 918.226,152.269 916.961,185.298C913.797,267.924 872.656,350.027 815.216,408.406C843.324,398.302 881.736,391.91 911.449,394.907C951.317,398.928 911.968,445.801 900.099,458.778C862.398,499.997 813.325,533.75 760.416,551.992C789.005,556.512 830.874,576.959 851.157,598.146C868.232,615.47 875.342,641.02 874.779,664.694C874.207,688.709 865.811,707.316 853.981,727.508C853.045,729.106 850.472,738.169 850.036,740.225C847.604,751.693 840.693,758.202 832.488,765.95C833.237,779.079 833.465,788.347 828.774,801.018C819.838,825.154 799.92,845.786 772.79,835.494C755.147,841.561 745.022,840.665 730.25,829.415C724.437,830.537 721.002,830.667 715.191,829.14C706.834,826.944 699.718,821.467 695.48,813.938C689.113,802.627 690.65,792.453 694.029,780.78C685.3,752.275 693.939,728.686 724.949,722.525C724.658,712.361 725.092,707.253 728.615,697.812C726.033,693.877 724.47,690.444 722.45,686.233C705.821,679.294 700.377,684.189 683.381,688.279C676.721,689.882 671.909,690.614 665.085,691.227C668.89,717.753 668.786,739.976 663.064,766.222C673.038,783.48 675.46,798.337 673.039,817.969C691.952,835.367 707.783,855.84 719.86,878.521C749.803,935.917 752.183,998.204 732.941,1059.55C748.252,1068.46 761.531,1071.52 777.755,1078.21C791.845,1055.22 828.653,1031.72 852.599,1054.97C856.132,1054.41 859.722,1053.83 863.302,1054.07C869.493,1054.49 875.273,1057.34 879.324,1062.05C883.665,1067.09 885.822,1073.65 885.348,1080.29C884.712,1088.65 880.749,1093.39 874.727,1098.55C875.666,1101.71 876.591,1105.24 877.361,1108.46C882.144,1128.47 889.798,1147.77 894.698,1167.71C912.036,1168.56 922.8,1180.03 917.871,1198.41C915.991,1205.42 909.593,1209.18 903.302,1212.06C903.277,1219.08 903.189,1224.67 902.605,1231.66C922.11,1244.01 923.458,1270.71 898.185,1276.86C896.175,1277.35 890.657,1277.03 888.377,1276.96C877.954,1301.02 857.229,1322.28 828.924,1319.94C786.323,1316.42 777.247,1262.09 789.089,1228.94C791.558,1222.03 794.805,1215.32 797.121,1208.35C797.533,1207.11 797.979,1201.62 798.188,1199.94C793.522,1191.5 793.437,1187.25 790.114,1178.57C789.459,1176.86 785.93,1170.35 784.862,1168.15C773.966,1167.11 770.552,1165.34 761.844,1158.94C750.691,1159.09 746.447,1159.09 735.699,1155.99C718.608,1164.24 707.574,1163.01 690.745,1155.39C668.79,1189.29 642.493,1220.18 612.525,1247.26C583.055,1275.2 536.573,1301.05 498.008,1313.42C486.092,1317.25 472.065,1319.88 459.697,1322.34C461.453,1320.93 463.672,1318.78 465.318,1317.15C523.485,1259.54 554.608,1192.44 555.902,1110.86C523.441,1088.34 504.662,1065.89 485.057,1031.95C465.838,1042.1 446.408,1042.98 425.244,1041.87C423.917,1052.88 421.736,1056.98 414.941,1065.78C414.988,1084.14 412.703,1095.41 408.934,1113.25C430.468,1125.27 429.94,1140.8 416.278,1159.48C426.322,1182.65 433.987,1202.78 429.735,1228.58C427.278,1243.49 419.942,1260.07 407.184,1268.95C398.241,1275.17 391.503,1275.53 381.333,1273.68C371.952,1284.95 345.253,1307.93 332.567,1284.1C328.34,1276.16 332.933,1263.98 336.512,1256.02C314.176,1248.39 286.841,1240.94 263.843,1235.5C243.47,1255.31 221.267,1245.9 226.746,1217.31C215.668,1208.69 209.765,1202.59 200.693,1192.05C199.06,1193.07 197.385,1194.02 195.674,1194.9C182.553,1201.65 168.207,1195.88 167.219,1180.17C166.847,1174.26 168.488,1170.05 170.59,1164.56C146.099,1129.29 171.661,1102.95 209.109,1098.2C232.962,1095.17 255.306,1108.32 272.961,1123.4C283.055,1121.9 288.211,1123.87 296.352,1129.41C305.716,1127.73 311.658,1127.41 321.054,1127.5C321.067,1113.88 324.233,1105.41 333.502,1095.71C331.585,1085.68 329.925,1077.47 328.849,1067.31C315.092,1054.12 312.028,1044.65 310.766,1026.06C310.263,1025.62 309.768,1025.18 309.275,1024.72C298.757,1014.93 294.645,1002.71 294.059,988.729C292.445,950.239 320.268,919.005 352.86,902.68C373.28,892.452 394.371,887.709 417.07,887.006C416.227,885.604 415.402,884.191 414.6,882.766C407.095,869.437 406.604,856.6 410.663,842.165C396.665,821.627 384.841,814.002 368.987,795.979C366.78,802.182 364.179,808.237 361.199,814.108C341.978,851.409 314.876,870.082 275.993,882.452C238.86,931.865 160.542,923.26 124.937,876.533C115.118,865.751 114.983,848.203 109.667,836.939C99.444,815.279 90.985,797.697 115.36,780.969C119.494,764.328 127.446,753.023 145.862,751.974C170.566,703.274 209.575,678.694 263.539,674.973C279.137,648.049 291.059,631.017 318.952,615.543C287.995,608.124 279.595,599.73 244.913,597.732C221.425,620.466 213.539,635.428 202.483,665.128C152.436,640.205 147.628,561.132 157.611,513.407C172.204,443.64 211.245,387.362 270.45,348.22C243.6,287.533 181.504,255.052 118.675,245.279C104.897,243.136 90.927,242.364 77.249,240.317C71.081,239.394 54.236,237.382 55.773,228.579C56.691,222.646 65.655,220.26 70.723,219.571C95.46,216.208 123.832,220.112 147.736,225.997C209.868,241.295 260.744,282.25 293.073,336.805C303.886,330.563 320.092,325.768 332.113,322.12C317.336,243.274 252.547,205.788 185.154,179.579C177.651,176.661 159.032,165.957 172.251,157.6ZM575.34,1142.46C573.514,1154.51 572.133,1167.77 569.729,1179.48C561.8,1216.63 546.144,1251.7 523.778,1282.4C542.102,1273.15 559.812,1262.72 576.801,1251.2C608.022,1227.66 636.786,1196.73 656.478,1162.87C629.444,1168 606.478,1164.38 583.686,1148.29C582.107,1147.17 576.66,1143.15 575.34,1142.46ZM412.599,913.063C389.331,914.741 349.562,926.774 334.995,946.426C304.28,987.866 312.316,1016.31 364.696,1022.76C352.572,1027.91 345.868,1031.7 332.624,1031.21C338.509,1050.05 357.206,1059.72 374.484,1066.87C365.442,1067.52 357.661,1068.21 348.55,1067.74C349.167,1077.1 350.998,1087.7 352.401,1097.08C360.205,1097.93 367.027,1098.69 374.668,1100.63C381.245,1102.35 386.03,1104.06 392.419,1106.38C394.701,1095.19 400.599,1072.2 394.738,1061.93C393.868,1060.41 390.639,1058.43 388.969,1057.46C413.287,1042.36 406.008,1015.05 390.314,996.243C404.783,1002.49 411.773,1005.17 421.308,1018.22C439.581,1020.88 456.564,1021.2 473.596,1012.88C455.588,980.658 449.433,952.296 443.843,916.228C433.014,913.965 423.771,912.201 412.599,913.063ZM363.654,553.835C332.244,555.214 292.644,562.67 266.613,581.396C281.55,583.564 296.285,588.847 310.737,593.375C351.756,603.543 371.042,597.942 402.326,570.125C400.311,563.807 399.227,560.248 392.787,556.921C385.795,553.309 371.665,553.619 363.654,553.835ZM747.275,570.246C713.196,574.747 691.856,611.015 696.704,643.371C697.647,649.791 699.661,656.008 702.664,661.761C707.474,662.195 716.581,663.568 720.56,661.286C720.754,660.238 720.957,659.696 720.871,658.682C722.956,620.083 739.369,592.246 776.649,577.699C767.603,573.742 757.415,569.102 747.275,570.246ZM774.456,687.148C761.028,690.005 739.366,699.624 742.95,716.97L744.046,718.261C748.491,717.51 753.345,715.095 758.117,714.095C775.161,710.524 791.484,714.427 805.522,724.415C807.816,726.02 810.005,727.77 812.074,729.655C817.933,735.173 820.579,739.101 825.135,745.766C830.307,738.018 834.855,730.582 832.263,720.9C825.219,694.592 798.609,685.663 774.456,687.148ZM898.548,1180.32C899.459,1184.78 901.15,1195.08 902.628,1198.56C904.324,1198.85 903.471,1198.95 905.186,1197.85C908.615,1189.57 907.519,1183.91 898.548,1180.32ZM266.196,866.895C257.56,879.052 253.43,885.35 241.466,894.752L241.63,895.334C249.107,891.384 267.893,876.943 266.74,867.511L266.196,866.895ZM869.916,1286.26C864.221,1292.53 859.677,1297.39 852.749,1302.41C850.293,1304.2 842.887,1307.73 842.431,1309.39C853.992,1305.71 863.914,1299.7 869.336,1288.55C869.837,1287.52 870.01,1287.49 869.916,1286.26ZM352.122,776.672C337.481,811.065 313.641,837.558 278.263,851.119C278.878,854.401 279.888,859.075 280.027,862.262C312.773,848.353 333.616,831.292 347.635,797.859C349.332,793.812 355.34,779.521 352.122,776.672ZM362.891,1250.46C357.841,1254.35 342.515,1275.39 347.338,1281.46C351.135,1282.62 353.296,1280.84 356.458,1278.92C363.981,1273.37 370.483,1268.1 377.665,1262.18C373.79,1256.01 371.732,1252.49 364.273,1250.76C363.814,1250.65 363.353,1250.55 362.891,1250.46ZM230.931,828.444C222.576,843.04 215.481,850.247 201.899,860.333C197.864,863.33 191.661,866.506 188.077,869.649L189.25,869.552C201.408,864.479 236.144,846.073 233.543,831.044C232.56,829.813 232.281,829.33 230.931,828.444ZM858.748,1065.42C861.11,1069.03 869.675,1085.9 870.623,1086.57L871.699,1085.89C875.722,1074.68 871.512,1066.01 858.748,1065.42ZM377.511,340.023C322.253,346.278 285.947,398.708 257.903,441.667C258.74,414.098 271.02,382.619 290.32,362.922C246.164,389.88 215.691,424.733 195.432,472.473C172.705,526.03 166.059,579.14 194.09,631.749L198.102,623.125C216.106,587.914 256.126,562.081 292.856,550.187C321.665,540.998 351.934,537.259 382.113,539.16C374.963,534.122 369.339,530.047 361.227,526.532C393.978,522.597 409.031,523.507 413.343,559.437C442.787,520.773 464.714,469.163 457.771,419.649C451.611,375.728 427.954,335.955 377.511,340.023ZM387.843,361.007C399.996,359.873 405.593,360.741 417.05,363.614C405.036,370.673 392.591,373.375 379.232,377.887L379.584,378.162C415.551,406.336 415.067,450.835 388.122,484.678C375.014,501.317 355.796,512.026 334.746,514.42C305.082,517.733 278.956,504.316 275.838,472.609C270.472,476.219 265.208,479.151 259.594,482.342C253.88,485.4 253.906,488.439 252.443,494.381C233.918,483.685 221.69,487.026 204.073,496.975C215.463,471.741 219.57,462.757 239.067,443.797C237.522,450.332 234.168,468.978 247.36,464.109C291.541,447.766 315.717,405.854 349.672,376.25C358.844,368.254 376.095,362.586 387.843,361.007ZM354.718,404.064C344.149,411.003 334.38,419.244 327.553,430.052C355.808,432.222 356.412,458.931 344.956,479.074L341.056,485.212C370.714,471.089 375.708,441.66 364.889,412.139C363.318,407.852 359.731,403.471 354.718,404.064ZM728.333,1083.77C722.45,1104.5 713.298,1120.49 701.893,1138.64C721.591,1142.21 733.839,1139.94 750.316,1128.41C750.73,1128.12 751.143,1127.82 751.555,1127.53C751.617,1130.35 751.24,1137.67 751.788,1139.73L753.747,1140.23C761.732,1140.2 766.673,1140.15 774.606,1138.1C777.961,1125.03 777.87,1112.06 773.409,1099.23C768.468,1098.41 763.808,1097.63 758.818,1097.05C756.891,1105.29 755.634,1107.93 750.37,1114.59C749.379,1100.14 741.568,1089.77 728.333,1083.77ZM748.174,818.817C746.319,821.015 742.917,824.161 742.804,826.503C744.595,827.531 745.731,827.255 747.894,827.202C750.776,826.646 751.635,827.01 753.351,825.169C752.979,822.85 750.055,820.634 748.174,818.817ZM180.046,1137.75C177.64,1139.33 176.054,1140.08 174.78,1142.7C173.934,1147.97 177.558,1152.1 180.742,1156.61C185.552,1152.86 190.094,1147.15 196.081,1151.51C199.722,1160.22 180.559,1172.21 180.602,1181.65C181.908,1184.07 181.246,1183.25 183.864,1184.71C188.663,1185.31 197.263,1178.33 201.23,1175.25C206.307,1171.25 211.32,1167.17 216.266,1163.01C235.049,1173.85 244.276,1182.32 259.352,1197.88C253.112,1205.08 246.958,1213.31 241.86,1221.39C239.349,1225.37 238.611,1227.29 240.29,1231.79C243.27,1232.8 244.259,1233.23 247.561,1231.39C255.399,1227.02 264.712,1219.33 271.649,1213.43C282.657,1220.4 287.37,1222.69 300.394,1226.04C265.523,1202.22 225.103,1141.54 180.046,1137.75ZM899.611,1244.84C898.417,1249.79 893.754,1262.05 894.739,1264.75C896.563,1265.31 897.073,1265.16 898.93,1265.02C906.509,1259.2 906.963,1251.09 899.611,1244.84ZM712.94,763.315C705.86,776.877 705.041,791.937 715.04,804.261L716.396,804.386C713.758,793.549 709.351,787.335 711.619,774.962C711.923,773.304 713.103,764.659 712.94,763.315ZM841.325,1175.96C835.187,1179.38 833.632,1180.25 826.725,1182.29C820.287,1184.19 808.051,1181.63 805.097,1185.59C805.852,1189.19 807.939,1190.91 811.141,1192.44C821.773,1194.31 832.717,1191.97 841.654,1185.92C844.186,1184.18 845.657,1182.87 846.297,1179.88C845.82,1178.23 842.998,1176.29 841.325,1175.96ZM844.108,1199.97C832.402,1204.79 824.662,1205.6 812.091,1205.15C810.499,1205.09 809.879,1206.24 809.341,1207.43C810.573,1211.4 812.802,1212.86 816.372,1214.41C825.988,1215.79 843.692,1214.52 848.634,1204.49C848.711,1201.91 849.009,1202.78 847.868,1200.64C845.64,1199.81 846.179,1199.65 844.108,1199.97ZM832.853,1153.2C824.226,1159.17 818.826,1162.01 807.947,1163.6C804.529,1164.11 800.335,1163.54 797.731,1164.97C797.605,1168.12 800.129,1169.56 802.633,1171.2C812.085,1172.99 834.315,1169.39 836.355,1158.18C835.671,1155.91 835.445,1155.73 834.013,1153.78L832.853,1153.2ZM193.691,1122.91C188.456,1123.93 186.283,1124.69 181.266,1126.6C216.919,1129.4 242.089,1151.82 266.714,1176.2C282.042,1191.38 294.141,1207.53 313.329,1219.42C324.035,1226.05 333.807,1231.3 345.142,1236.5C358.195,1242.5 381.757,1249.36 391.935,1259.1C394.227,1261.05 393.18,1260.62 395.899,1261.04C396.908,1260.33 397.814,1259.96 397.84,1258.52C398.029,1247.73 378.526,1241.66 370.672,1238.86C353.019,1232.57 336.033,1227.09 319.896,1217.49C299.003,1205.01 285.906,1185.35 270.315,1167.63C254.398,1149.55 219.403,1120.56 193.691,1122.91ZM253.495,839.524C246.555,857.494 240.067,867.47 224.842,879.796C222.912,881.359 213.265,888.127 213.119,889.49L214.1,889.145C230.414,880.274 257.753,863.304 255.836,841.681C255.765,840.878 254.145,839.981 253.495,839.524ZM891.423,192.15C800.278,216.877 682.922,351.573 625.67,424.098C606.835,447.959 586.29,473.178 568.829,498.18C592.166,481.672 614.363,460.915 636.268,442.436C680.952,404.741 728.692,360.702 776.504,327.276C783.676,322.531 790.888,317.846 798.139,313.22C783.236,330.64 766.412,347.49 749.983,363.554C702.958,409.531 656.482,457.171 608.448,502.035C635.707,488.857 662.783,475.307 689.67,461.387C713.991,448.96 751.632,429.309 773.356,412.964C818.528,378.976 858.061,321.318 875.706,267.739C879.089,257.466 895.385,201.597 891.972,192.435L891.423,192.15ZM285.487,1136.77C294.078,1145.5 301.008,1154.76 309.308,1163.62C311.351,1165.8 314.326,1165.59 317.03,1165.11C317.202,1150.33 297.549,1140.5 285.487,1136.77ZM333.325,1131.8C345.603,1138 353.916,1146.02 364.278,1154.74C365.485,1155.75 369.61,1154.14 370.963,1153.47C370.286,1141.22 344.085,1131.42 333.325,1131.8ZM805.14,1091.7C814.698,1106.21 817.245,1117.27 814.962,1135.19C814.496,1138.85 809.875,1146.96 810.363,1149.76C811.717,1148.75 812.021,1148.56 813.205,1147.29C815.079,1144.82 816.276,1142.8 817.858,1140.14C825.349,1127.55 819.451,1097.84 805.14,1091.7ZM310.528,1141.08C314.15,1142.89 317.212,1144.6 320.699,1146.69C328.24,1151.2 334.443,1163.29 343.944,1160.24C345.433,1146.06 321.98,1140.04 310.528,1141.08ZM794.16,593.427C750.393,601.739 722.649,640.53 742.29,683.654C761.808,669.578 786.495,665.661 809.218,674.226C825.187,680.331 834.676,687.793 844.476,701.784C861.131,664.782 856.809,615.084 814.325,597.437C806.077,594.011 803.329,592.573 794.16,593.427ZM646.877,785.717C612.1,839.328 554.22,863.638 491.764,867.21C468.417,868.545 450.503,866.595 428.43,858.779C430.148,870.111 431.411,876.832 440.703,884.297C470.224,901.341 530.739,899.515 563.259,890.451C594.682,881.691 630.138,862.905 647.503,833.868C654.585,822.026 655.753,810.885 652.268,797.676C651.502,794.774 648.823,787.759 646.877,785.717ZM720.357,997.241C719.012,999.507 717.583,1001.97 716.122,1004.15C680.914,1056.63 598.154,1084.87 538.02,1070.72C544.957,1077.64 551.549,1084.28 559.342,1090.3C581.038,1106.25 606.419,1116.35 633.203,1111.89C683.001,1103.6 714.798,1062.97 719.584,1014.11C720.016,1009.7 721.61,1001.36 720.357,997.241ZM255.153,736.155C247.923,739.004 241.869,743.181 236.133,748.38C230.385,754.194 221.022,761.247 214.662,767.23C192.287,788.276 163.185,816.961 155.24,847.224C174.356,844.898 191.844,835.265 206.994,823.729C213.932,818.445 219.548,812.987 227.723,809.608C237.025,810.644 242.248,823.221 244.499,823.29C257.831,823.697 266.1,825.394 269.327,845.084C311.01,831.783 332.287,805.25 348.038,765.48C339.508,752.26 329.079,729.527 325.651,714.165C300.767,710.501 275.704,724.153 255.153,736.155ZM228.808,739.883C234.779,734.572 239.393,731.683 246.169,727.814C269.92,714.806 288.524,705.025 316.065,704.884C280.416,692.004 257.661,686.056 220.84,703.291C186.779,719.234 161.736,748.95 149.344,784.107C143.398,800.978 139.758,821.707 147.769,838.442C148.002,838.933 148.243,839.42 148.491,839.903C163.511,804.629 188.042,778.4 215.26,752.216C219.319,748.311 225.145,743.854 228.808,739.883ZM887.208,418.07C811.672,423.293 749.779,455.1 684.465,490.12C670.943,497.37 657.441,505.593 643.869,512.491C649.384,513.844 653.216,514.782 658.585,516.769C689.635,507.032 732.575,493.998 765.146,490.998L769.945,490.47L770.36,490.829C762.991,494.952 753.856,497.904 746.116,501.362C727.555,509.655 704.893,517.149 686.823,525.757C700.967,528.705 709.753,531.464 723.523,536.05C777.339,523.921 831.729,493.98 870.988,455.487C880.877,445.79 892.365,433.483 899.771,421.74C900.578,420.457 901.369,419.164 902.145,417.861C897.756,417.861 891.427,417.674 887.208,418.07ZM665.367,215.188C595.743,273.279 547.579,395.457 529.214,482.961C533.237,484.885 535.677,485.93 539.214,488.588C541.513,490.966 543.004,492.45 544.933,495.155C569.447,457.547 598.74,422.44 622.562,384.392C644.479,349.387 658.661,303.081 664.54,262.407C665.536,255.518 669.078,219.89 665.367,215.188ZM511.238,507.205C499.601,557.282 472.243,596.005 429.165,624.416C408.741,637.887 361.77,654.147 350.178,622.845C347.249,624.08 342.055,625.854 341.094,629.167C339.549,634.485 341.715,642.596 344.348,647.311C358.788,673.167 395.806,667.023 419.404,664.012C397.383,673.903 375.782,682.637 351.103,673.063C339.835,668.786 330.845,660.028 326.275,648.878C325.071,646.009 323.967,642.062 323.364,638.993C307.914,647.353 295.29,660.252 288.796,676.736C303.203,680.191 314.242,683.709 327.83,689.977C328.932,686.477 330.026,682.625 331.592,679.334C341.406,719.066 353.137,750.706 381.053,782.087C392.491,794.145 404.671,806.417 416.026,818.447C421.19,823.919 436.118,844.888 440.87,846.978C483.308,865.638 546.292,850.499 583.786,828.7C641.178,792.323 653.591,752.255 639.298,686.237C616.138,684.689 597.118,681.154 579.947,663.656C612.411,671.79 643.989,674.331 676.951,666.7C664.238,620.758 676.441,583.666 715.223,555.582C698.505,547.685 665.275,541.978 646.986,542.096C622.59,518.285 567.475,521.788 544.011,545.484C536.093,553.48 531.966,565.745 526.655,575.564C509.579,606.855 486.097,625.452 455.11,641.368L455.585,640.898C463.555,633.116 472.078,626.875 480.03,618.511C497.059,600.601 553.232,523.118 511.238,507.205ZM686.298,871.206C652.75,936.059 547.914,982.859 477.865,962.81C483.657,984.43 487.876,996.105 499.477,1015.61L506.094,1017.47C562.269,1027.99 610.417,1018.08 658.242,985.998C682.737,969.568 701.892,948.226 712.673,920.488C709.267,910.58 694.658,876.414 686.298,871.206Z" style="fill:rgb(2,23,31);"  data-color="color-2"/>
        <path d="M377.511,340.023C427.954,335.955 451.611,375.728 457.771,419.649C464.714,469.163 442.787,520.773 413.343,559.437C409.031,523.507 393.978,522.597 361.227,526.532C369.339,530.047 374.963,534.122 382.113,539.16C351.934,537.259 321.665,540.998 292.856,550.187C256.126,562.081 216.106,587.914 198.102,623.125L194.09,631.749C166.059,579.14 172.705,526.03 195.432,472.473C215.691,424.733 246.164,389.88 290.32,362.922C271.02,382.619 258.74,414.098 257.903,441.667C285.947,398.708 322.253,346.278 377.511,340.023ZM387.843,361.007C376.095,362.586 358.844,368.254 349.672,376.25C315.717,405.854 291.541,447.766 247.36,464.109C234.168,468.978 237.522,450.332 239.067,443.797C219.57,462.757 215.463,471.741 204.073,496.975C221.69,487.026 233.918,483.685 252.443,494.381C253.906,488.439 253.88,485.4 259.594,482.342C265.208,479.151 270.472,476.219 275.838,472.609C278.956,504.316 305.082,517.733 334.746,514.42C355.796,512.026 375.014,501.317 388.122,484.678C415.067,450.835 415.551,406.336 379.584,378.162L379.232,377.887C392.591,373.375 405.036,370.673 417.05,363.614C405.593,360.741 399.996,359.873 387.843,361.007ZM412.599,913.063C423.771,912.201 433.014,913.965 443.843,916.228C449.433,952.296 455.588,980.658 473.596,1012.88C456.564,1021.2 439.581,1020.88 421.308,1018.22C411.773,1005.17 404.783,1002.49 390.314,996.243C406.008,1015.05 413.287,1042.36 388.969,1057.46C390.639,1058.43 393.868,1060.41 394.738,1061.93C400.599,1072.2 394.701,1095.19 392.419,1106.38C386.03,1104.06 381.245,1102.35 374.668,1100.63C367.027,1098.69 360.205,1097.93 352.401,1097.08C350.998,1087.7 349.167,1077.1 348.55,1067.74C357.661,1068.21 365.442,1067.52 374.484,1066.87C357.206,1059.72 338.509,1050.05 332.624,1031.21C345.868,1031.7 352.572,1027.91 364.696,1022.76C312.316,1016.31 304.28,987.866 334.995,946.426C349.562,926.774 389.331,914.741 412.599,913.063ZM686.298,871.206C694.658,876.414 709.267,910.58 712.673,920.488C701.892,948.226 682.737,969.568 658.242,985.998C610.417,1018.08 562.269,1027.99 506.094,1017.47L499.477,1015.61C487.876,996.105 483.657,984.43 477.865,962.81C547.914,982.859 652.75,936.059 686.298,871.206ZM720.357,997.241C721.61,1001.36 720.016,1009.7 719.584,1014.11C714.798,1062.97 683.001,1103.6 633.203,1111.89C606.419,1116.35 581.038,1106.25 559.342,1090.3C551.549,1084.28 544.957,1077.64 538.02,1070.72C598.154,1084.87 680.914,1056.63 716.122,1004.15C717.583,1001.97 719.012,999.507 720.357,997.241ZM575.34,1142.46C576.66,1143.15 582.107,1147.17 583.686,1148.29C606.478,1164.38 629.444,1168 656.478,1162.87C636.786,1196.73 608.022,1227.66 576.801,1251.2C559.812,1262.72 542.102,1273.15 523.778,1282.4C546.144,1251.7 561.8,1216.63 569.729,1179.48C572.133,1167.77 573.514,1154.51 575.34,1142.46ZM363.654,553.835C371.665,553.619 385.795,553.309 392.787,556.921C399.227,560.248 400.311,563.807 402.326,570.125C371.042,597.942 351.756,603.543 310.737,593.375C296.285,588.847 281.55,583.564 266.613,581.396C292.644,562.67 332.244,555.214 363.654,553.835ZM728.333,1083.77C741.568,1089.77 749.379,1100.14 750.37,1114.59C755.634,1107.93 756.891,1105.29 758.818,1097.05C763.808,1097.63 768.468,1098.41 773.409,1099.23C777.87,1112.06 777.961,1125.03 774.606,1138.1C766.673,1140.15 761.732,1140.2 753.747,1140.23L751.788,1139.73C751.24,1137.67 751.617,1130.35 751.555,1127.53C751.143,1127.82 750.73,1128.12 750.316,1128.41C733.839,1139.94 721.591,1142.21 701.893,1138.64C713.298,1120.49 722.45,1104.5 728.333,1083.77Z" style="fill:rgb(253,182,22);"  data-color="color-1"/>
        <path d="M511.238,507.205C553.232,523.118 497.059,600.601 480.03,618.511C472.078,626.875 463.555,633.116 455.585,640.898L455.11,641.368C486.097,625.452 509.579,606.855 526.655,575.564C531.966,565.745 536.093,553.48 544.011,545.484C567.475,521.788 622.59,518.285 646.986,542.096C665.275,541.978 698.505,547.685 715.223,555.582C676.441,583.666 664.238,620.758 676.951,666.7C643.989,674.331 612.411,671.79 579.947,663.656C597.118,681.154 616.138,684.689 639.298,686.237C653.591,752.255 641.178,792.323 583.786,828.7C546.292,850.499 483.308,865.638 440.87,846.978C436.118,844.888 421.19,823.919 416.026,818.447C404.671,806.417 392.491,794.145 381.053,782.087C353.137,750.706 341.406,719.066 331.592,679.334C330.026,682.625 328.932,686.477 327.83,689.977C314.242,683.709 303.203,680.191 288.796,676.736C295.29,660.252 307.914,647.353 323.364,638.993C323.967,642.062 325.071,646.009 326.275,648.878C330.845,660.028 339.835,668.786 351.103,673.063C375.782,682.637 397.383,673.903 419.404,664.012C395.806,667.023 358.788,673.167 344.348,647.311C341.715,642.596 339.549,634.485 341.094,629.167C342.055,625.854 347.249,624.08 350.178,622.845C361.77,654.147 408.741,637.887 429.165,624.416C472.243,596.005 499.601,557.282 511.238,507.205ZM794.16,593.427C803.329,592.573 806.077,594.011 814.325,597.437C856.809,615.084 861.131,664.782 844.476,701.784C834.676,687.793 825.187,680.331 809.218,674.226C786.495,665.661 761.808,669.578 742.29,683.654C722.649,640.53 750.393,601.739 794.16,593.427ZM646.877,785.717C648.823,787.759 651.502,794.774 652.268,797.676C655.753,810.885 654.585,822.026 647.503,833.868C630.138,862.905 594.682,881.691 563.259,890.451C530.739,899.515 470.224,901.341 440.703,884.297C431.411,876.832 430.148,870.111 428.43,858.779C450.503,866.595 468.417,868.545 491.764,867.21C554.22,863.638 612.1,839.328 646.877,785.717ZM747.275,570.246C757.415,569.102 767.603,573.742 776.649,577.699C739.369,592.246 722.956,620.083 720.871,658.682C720.957,659.696 720.754,660.238 720.56,661.286C716.581,663.568 707.474,662.195 702.664,661.761C699.661,656.008 697.647,649.791 696.704,643.371C691.856,611.015 713.196,574.747 747.275,570.246ZM774.456,687.148C798.609,685.663 825.219,694.592 832.263,720.9C834.855,730.582 830.307,738.018 825.135,745.766C820.579,739.101 817.933,735.173 812.074,729.655C810.005,727.77 807.816,726.02 805.522,724.415C791.484,714.427 775.161,710.524 758.117,714.095C753.345,715.095 748.491,717.51 744.046,718.261L742.95,716.97C739.366,699.624 761.028,690.005 774.456,687.148Z" style="fill:rgb(255,252,240);"  data-color="color-4"/>
        <g transform="matrix(0.993476,-0.114041,0.114041,0.993476,-70.3995,56.4178)">
            <path d="M488.782,662.987C492.751,663.612 516.647,678.231 521.435,681.092C526.01,699.312 530.103,714.666 535.868,732.513C530.456,741.986 524.908,751.382 519.226,760.696C503.906,766.328 478.949,773.017 463.054,776.765C464.608,783.511 467.527,792.379 469.559,799.174C474.049,797.853 479.416,796.718 484.028,795.622C487.112,804.953 490.9,813.334 494.997,822.246C483.84,825.327 467.126,830.391 456.186,832.281C450.173,833.055 444.778,834.016 438.827,835.109C433.812,825.446 431.301,817.764 427.73,807.442L437.071,805.282C426.415,778.686 419.519,748.253 407.539,722.246L398.502,724.5C395.192,712.187 392.864,705.008 387.769,693.346C419.841,684.685 456.983,673.026 488.782,662.987ZM481.045,699.981C493.563,699.077 494.705,717.147 496.756,726.694C494.552,731.184 493.129,734.402 488.292,736.427C479.173,740.245 468.17,742.295 458.536,744.584L455.31,745.293C452.687,743.24 445.211,716.042 443.4,710.127C454.92,706.543 469.332,701.617 481.045,699.981Z" style="fill:rgb(40,62,0);"  data-color="color-3"/>
        </g>
        <path d="M255.153,736.155C275.704,724.153 300.767,710.501 325.651,714.165C329.079,729.527 339.508,752.26 348.038,765.48C332.287,805.25 311.01,831.783 269.327,845.084C266.1,825.394 257.831,823.697 244.499,823.29C242.248,823.221 237.025,810.644 227.723,809.608C219.548,812.987 213.932,818.445 206.994,823.729C191.844,835.265 174.356,844.898 155.24,847.224C163.185,816.961 192.287,788.276 214.662,767.23C221.022,761.247 230.385,754.194 236.133,748.38C240.986,755.435 245.791,762.522 250.548,769.642C258.867,765.695 260.933,763.367 267.11,756.853C264.78,747.46 262.218,742.764 255.153,736.155ZM228.808,739.883C225.145,743.854 219.319,748.311 215.26,752.216C188.042,778.4 163.511,804.629 148.491,839.903C148.243,839.42 148.002,838.933 147.769,838.442C139.758,821.707 143.398,800.978 149.344,784.107C161.736,748.95 186.779,719.234 220.84,703.291C257.661,686.056 280.416,692.004 316.065,704.884C288.524,705.025 269.92,714.806 246.169,727.814C238.799,722.793 220.026,710.349 210.998,711.944C204.247,713.136 198.046,720.414 193.398,725.221C207.424,729.511 215.815,732.832 228.808,739.883ZM352.122,776.672C355.34,779.521 349.332,793.812 347.635,797.859C333.616,831.292 312.773,848.353 280.027,862.262C279.888,859.075 278.878,854.401 278.263,851.119C313.641,837.558 337.481,811.065 352.122,776.672Z" style="fill:rgb(144,58,20);"/>
        <path d="M509.426,405.686C532.409,336.056 563.095,266.583 611.553,211.022C623.623,197.184 639.247,183.458 655.524,175.213C665.513,170.154 673.786,170.102 680.443,172.151C687.579,174.348 693.48,179.266 697.765,186.475C705.339,199.216 707.064,221.614 707.172,233.311C707.467,247.582 706.342,261.256 704.091,274.625C750.267,227.748 804.853,182.408 863.768,157.284C873.132,153.291 884.554,148.822 894.467,147.58C904.936,146.267 914.177,148.356 921.004,153.81C927.859,159.285 933.603,168.852 932.949,185.91C930.285,255.493 902.035,324.784 859.79,381.045C878.171,378.294 896.825,377.351 913.055,378.988C927.402,380.435 935.418,386.267 939.898,392.778C944.785,399.879 946.153,409.015 943.627,419.23C939.179,437.223 920.112,460.604 911.905,469.577C882.266,501.982 845.895,529.951 806.161,549.962C827.981,559.733 849.427,573.238 862.589,586.951C882.656,607.337 891.438,637.232 890.774,665.075C890.142,691.652 881.28,712.427 868.324,734.674C867.856,736.175 865.951,742.305 865.688,743.544C863.063,755.922 856.913,764.189 848.807,772.397C849.195,784.322 848.422,794.03 843.779,806.574C832.396,837.315 806.453,861.633 772.733,852.298C763.458,854.992 755.71,855.786 748.343,854.81C741.08,853.848 734.025,851.201 726.268,846.176C723.689,846.406 721.294,846.399 718.75,846.115C724.319,854.099 729.417,862.426 734.014,871.061L734.046,871.12C763.89,928.327 768.256,990.073 751.981,1051.31C758.701,1054.29 765.26,1056.5 772.176,1058.97C783.471,1046.05 799.779,1034.72 816.369,1030.89C830.534,1027.63 844.881,1029.26 857.438,1038.21C859.751,1038.02 862.072,1037.95 864.386,1038.11C874.84,1038.81 884.58,1043.66 891.45,1051.61L891.467,1051.63C898.545,1059.88 902.082,1070.58 901.305,1081.47L901.302,1081.5C900.596,1090.78 897.602,1097.4 892.586,1103.35C892.701,1103.82 892.814,1104.29 892.922,1104.74C896.883,1121.3 902.812,1137.37 907.51,1153.72C915.75,1156.16 922.413,1160.63 927.099,1166.45C934.111,1175.17 937.398,1187.36 933.325,1202.55C931.127,1210.75 925.788,1216.85 919.182,1221.43C919.156,1222.39 919.125,1223.35 919.086,1224.32C931.613,1236.28 935.82,1253 931.545,1266.64C927.987,1277.99 918.841,1288.3 901.973,1292.4C901.124,1292.61 899.843,1292.75 898.374,1292.85C884.112,1318.6 859.273,1338.5 827.606,1335.89C799.243,1333.54 781.568,1314.84 773.427,1290.65C766.181,1269.12 767.005,1243.2 774.022,1223.56C776.344,1217.06 779.36,1210.73 781.608,1204.27C781.642,1203.95 781.696,1203.46 781.759,1202.89C778.851,1196.52 778.127,1192.03 775.174,1184.3C775.053,1183.98 774.822,1183.49 774.524,1182.89C767.636,1181.57 763.152,1179.4 756.773,1174.99C749.155,1175.01 744.29,1174.67 737.058,1172.91C722.218,1179.06 710.649,1179.35 696.908,1174.98C675.77,1205.74 651.1,1233.95 623.41,1258.99C592.35,1288.38 543.484,1315.63 502.9,1328.65C490.429,1332.66 475.761,1335.46 462.818,1338.03L398.721,1350.78L449.679,1309.86C451.053,1308.76 452.768,1307.06 454.057,1305.78C507.098,1253.21 536.509,1192.38 539.661,1118.92C513.158,1099.38 495.522,1079.36 478.531,1052.17C465.386,1056.7 452.04,1058.2 438.095,1058.22C436.516,1062.65 434.281,1066.49 430.89,1071.18C430.602,1084.18 429.136,1094.07 426.759,1106.05C436.321,1113.94 440.692,1122.91 441.708,1132.11C442.678,1140.91 440.303,1150.69 434.331,1161.07C443.801,1184 449.824,1205.06 445.522,1231.18C442.403,1250.1 432.512,1270.81 416.322,1282.08L416.318,1282.09C405.983,1289.27 397.704,1291.37 387.364,1290.61C381.239,1296.54 373.054,1302.97 364.664,1306.68C354.623,1311.13 344.268,1311.87 335.201,1307.91C329.01,1305.2 323.053,1300.28 318.444,1291.62C315.282,1285.68 314.285,1278.54 315.224,1271.08C315.426,1269.47 315.723,1267.84 316.09,1266.21C300.4,1261.36 283.447,1256.76 267.917,1252.94C253.642,1263.24 239.07,1263.82 228.849,1259.06C218.205,1254.11 209.39,1242.51 209.908,1224.26C205.011,1220.1 200.985,1216.22 196.793,1211.73C187.245,1214.86 177.706,1214.09 169.984,1210.39C159.958,1205.59 152.176,1195.89 151.251,1181.17C150.904,1175.68 151.607,1171.17 152.97,1166.53C143.637,1149.8 143.15,1134.57 147.738,1121.89C155.125,1101.48 177.807,1086.04 207.094,1082.33C233.08,1079.03 257.895,1091.02 278.008,1106.85C286.419,1106.54 292.577,1108.4 299.816,1112.65C302.139,1112.32 304.322,1112.08 306.49,1111.9C308.114,1104.24 311.221,1097.7 316.335,1091.11C315.296,1085.58 314.373,1080.35 313.62,1074.7C301.224,1061.67 297.089,1050.93 295.324,1033.42C283.707,1021.18 278.782,1006.32 278.073,989.399C276.189,944.503 307.677,907.415 345.694,888.374C361.229,880.593 377.109,875.661 393.682,873.092C391.56,864.118 391.598,855.073 393.424,845.557C386.839,836.79 380.606,830.586 374.008,824.128C353.522,862.358 325.346,882.689 285.533,896.16C241.104,949.179 153.369,939.572 112.612,886.752C107.409,880.833 104.002,873.634 101.592,865.996C99.15,858.253 98.115,849.95 95.198,843.768C85.805,823.869 79.866,806.175 86.73,790.069C89.403,783.795 93.952,777.481 101.452,771.394C105.067,760.142 110.648,751.223 118.661,745.116C123.33,741.557 128.869,738.838 135.557,737.302C150.451,710.733 169.549,691.194 192.963,678.213C170.521,666.128 155.656,644.943 147.059,619.894C134.882,584.417 135.459,541.162 141.95,510.131C156.45,440.809 193.677,384.023 249.945,342.985C222.864,294.96 169.614,269.395 116.216,261.089C102.468,258.951 88.529,258.184 74.88,256.141C68.806,255.232 55.641,252.709 48.869,247.547C41.828,242.181 38.462,234.953 39.982,226.001C40.874,220.441 43.698,215.688 48.085,211.957C53.596,207.272 62.588,204.53 68.567,203.717C95.221,200.093 125.805,204.12 151.561,210.461C213.142,225.624 264.449,264.282 299.103,316.341C303.665,314.522 308.444,312.842 313.122,311.3C294.755,247.847 237.599,217.141 179.355,194.491C172.572,191.853 160.213,184.368 155.35,176.581C151.795,170.887 150.81,164.845 152.266,158.968C153.471,154.1 156.463,148.652 163.701,144.076L166.995,141.994L170.877,141.659C199.64,139.18 251.022,162.314 274.88,178.139C313.982,204.076 354.594,252.527 369.457,299.844C439.461,292.526 490.601,341.932 509.426,405.686ZM218.848,667.066C229.789,663.547 241.478,661.125 253.922,659.767C263.185,644.307 271.828,632.021 283.429,621.265C274.194,618.162 264.997,615.559 251.015,614.236C234.324,631.399 227.42,644.513 218.848,667.066ZM683.632,730.264C689.248,721.84 697.593,714.931 709.144,710.463C709.461,706.792 710.084,703.386 711.17,699.575C711.123,699.485 711.077,699.394 711.03,699.304C707.102,698.49 704.176,699.082 700.539,700.114C696.729,701.195 692.47,702.548 687.124,703.835C685.605,704.2 684.171,704.526 682.787,704.819C683.558,713.502 683.859,721.886 683.632,730.264ZM172.251,157.6C159.032,165.957 177.651,176.661 185.154,179.579C252.547,205.788 317.336,243.274 332.113,322.12C320.092,325.768 303.886,330.563 293.073,336.805C260.744,282.25 209.868,241.295 147.736,225.997C123.832,220.112 95.46,216.208 70.723,219.571C65.655,220.26 56.691,222.646 55.773,228.579C54.236,237.382 71.081,239.394 77.249,240.317C90.927,242.364 104.897,243.136 118.675,245.279C181.504,255.052 243.6,287.533 270.45,348.22C211.245,387.362 172.204,443.64 157.611,513.407C147.628,561.132 152.436,640.205 202.483,665.128C213.539,635.428 221.425,620.466 244.913,597.732C279.595,599.73 287.995,608.124 318.952,615.543C291.059,631.017 279.137,648.049 263.539,674.973C209.575,678.694 170.566,703.274 145.862,751.974C127.446,753.023 119.494,764.328 115.36,780.969C90.985,797.697 99.444,815.279 109.667,836.939C114.983,848.203 115.118,865.751 124.937,876.533C160.542,923.26 238.86,931.865 275.993,882.452C314.876,870.082 341.978,851.409 361.199,814.108C364.179,808.237 366.78,802.182 368.987,795.979C384.841,814.002 396.665,821.627 410.663,842.165C406.604,856.6 407.095,869.437 414.6,882.766C415.402,884.191 416.227,885.604 417.07,887.006C394.371,887.709 373.28,892.452 352.86,902.68C320.268,919.005 292.445,950.239 294.059,988.729C294.645,1002.71 298.757,1014.93 309.275,1024.72C309.768,1025.18 310.263,1025.62 310.766,1026.06C312.028,1044.65 315.092,1054.12 328.849,1067.31C329.925,1077.47 331.585,1085.68 333.502,1095.71C324.233,1105.41 321.067,1113.88 321.054,1127.5C311.658,1127.41 305.716,1127.73 296.352,1129.41C288.211,1123.87 283.055,1121.9 272.961,1123.4C255.306,1108.32 232.962,1095.17 209.109,1098.2C171.661,1102.95 146.099,1129.29 170.59,1164.56C168.488,1170.05 166.847,1174.26 167.219,1180.17C168.207,1195.88 182.553,1201.65 195.674,1194.9C197.385,1194.02 199.06,1193.07 200.693,1192.05C209.765,1202.59 215.668,1208.69 226.746,1217.31C221.267,1245.9 243.47,1255.31 263.843,1235.5C286.841,1240.94 314.176,1248.39 336.512,1256.02C332.933,1263.98 328.34,1276.16 332.567,1284.1C345.253,1307.93 371.952,1284.95 381.333,1273.68C391.503,1275.53 398.241,1275.17 407.184,1268.95C419.942,1260.07 427.278,1243.49 429.735,1228.58C433.987,1202.78 426.322,1182.65 416.278,1159.48C429.94,1140.8 430.468,1125.27 408.934,1113.25C412.703,1095.41 414.988,1084.14 414.941,1065.78C421.736,1056.98 423.917,1052.88 425.244,1041.87C446.408,1042.98 465.838,1042.1 485.057,1031.95C504.662,1065.89 523.441,1088.34 555.902,1110.86C554.608,1192.44 523.485,1259.54 465.318,1317.15C463.672,1318.78 461.453,1320.93 459.697,1322.34C472.065,1319.88 486.092,1317.25 498.008,1313.42C536.573,1301.05 583.055,1275.2 612.525,1247.26C642.493,1220.18 668.79,1189.29 690.745,1155.39C707.574,1163.01 718.608,1164.24 735.699,1155.99C746.447,1159.09 750.691,1159.09 761.844,1158.94C770.552,1165.34 773.966,1167.11 784.862,1168.15C785.93,1170.35 789.459,1176.86 790.114,1178.57C793.437,1187.25 793.522,1191.5 798.188,1199.94C797.979,1201.62 797.533,1207.11 797.121,1208.35C794.805,1215.32 791.558,1222.03 789.089,1228.94C777.247,1262.09 786.323,1316.42 828.924,1319.94C857.229,1322.28 877.954,1301.02 888.377,1276.96C890.657,1277.03 896.175,1277.35 898.185,1276.86C923.458,1270.71 922.11,1244.01 902.605,1231.66C903.189,1224.67 903.277,1219.08 903.302,1212.06C909.593,1209.18 915.991,1205.42 917.871,1198.41C922.8,1180.03 912.036,1168.56 894.698,1167.71C889.798,1147.77 882.144,1128.47 877.361,1108.46C876.591,1105.24 875.666,1101.71 874.727,1098.55C880.749,1093.39 884.712,1088.65 885.348,1080.29C885.822,1073.65 883.665,1067.09 879.324,1062.05C875.273,1057.34 869.493,1054.49 863.302,1054.07C859.722,1053.83 856.132,1054.41 852.599,1054.97C828.653,1031.72 791.845,1055.22 777.755,1078.21C761.531,1071.52 748.252,1068.46 732.941,1059.55C752.183,998.204 749.803,935.917 719.86,878.521C707.783,855.84 691.952,835.367 673.039,817.969C675.46,798.337 673.038,783.48 663.064,766.222C668.786,739.976 668.89,717.753 665.085,691.227C671.909,690.614 676.721,689.882 683.381,688.279C700.377,684.189 705.821,679.294 722.45,686.233C724.47,690.444 726.033,693.877 728.615,697.812C725.092,707.253 724.658,712.361 724.949,722.525C693.939,728.686 685.3,752.275 694.029,780.78C690.65,792.453 689.113,802.627 695.48,813.938C699.718,821.467 706.834,826.944 715.191,829.14C721.002,830.667 724.437,830.537 730.25,829.415C745.022,840.665 755.147,841.561 772.79,835.494C799.92,845.786 819.838,825.154 828.774,801.018C833.465,788.347 833.237,779.079 832.488,765.95C840.693,758.202 847.604,751.693 850.036,740.225C850.472,738.169 853.045,729.106 853.981,727.508C865.811,707.316 874.207,688.709 874.779,664.694C875.342,641.02 868.232,615.47 851.157,598.146C830.874,576.959 789.005,556.512 760.416,551.992C813.325,533.75 862.398,499.997 900.099,458.778C911.968,445.801 951.317,398.928 911.449,394.907C881.736,391.91 843.324,398.302 815.216,408.406C872.656,350.027 913.797,267.924 916.961,185.298C918.226,152.269 889.269,163.804 870.044,172.002C801.567,201.203 739.301,258.769 689.661,313.118C682.812,320.686 676.026,328.311 669.304,335.992C682.694,302.315 691.941,270.027 691.174,233.566C691.037,217.479 688.896,176.246 662.753,189.487C648.232,196.842 634.379,209.193 623.611,221.539C573.415,279.092 543.066,352.116 520.258,424.202C515.226,440.105 510.94,456.111 508.482,472.575C507.908,476.566 505.507,477.453 501.891,478.136C500.601,476.378 501.288,470.757 501.332,467.967C501.575,457.218 500.998,446.467 499.606,435.806C489.542,363.722 435.812,301.114 357.587,317.927C348.283,269.937 306.125,218.063 266.036,191.472C244.451,177.155 198.274,155.357 172.251,157.6ZM891.423,192.15L891.972,192.435C895.385,201.597 879.089,257.466 875.706,267.739C858.061,321.318 818.528,378.976 773.356,412.964C751.632,429.309 713.991,448.96 689.67,461.387C662.783,475.307 635.707,488.857 608.448,502.035C656.482,457.171 702.958,409.531 749.983,363.554C766.412,347.49 783.236,330.64 798.139,313.22C790.888,317.846 783.676,322.531 776.504,327.276C728.692,360.702 680.952,404.741 636.268,442.436C614.363,460.915 592.166,481.672 568.829,498.18C586.29,473.178 606.835,447.959 625.67,424.098C682.922,351.573 800.278,216.877 891.423,192.15ZM236.133,748.38C241.869,743.181 247.923,739.004 255.153,736.155C262.218,742.764 264.78,747.46 267.11,756.853C260.933,763.367 258.867,765.695 250.548,769.642C245.791,762.522 240.986,755.435 236.133,748.38ZM665.367,215.188C669.078,219.89 665.536,255.518 664.54,262.407C658.661,303.081 644.479,349.387 622.562,384.392C598.74,422.44 569.447,457.547 544.933,495.155C543.004,492.45 541.513,490.966 539.214,488.588C535.677,485.93 533.237,484.885 529.214,482.961C547.579,395.457 595.743,273.279 665.367,215.188ZM266.196,866.895L266.74,867.511C267.893,876.943 249.107,891.384 241.63,895.334L241.466,894.752C253.43,885.35 257.56,879.052 266.196,866.895ZM869.916,1286.26C870.01,1287.49 869.837,1287.52 869.336,1288.55C863.914,1299.7 853.992,1305.71 842.431,1309.39C842.887,1307.73 850.293,1304.2 852.749,1302.41C859.677,1297.39 864.221,1292.53 869.916,1286.26ZM748.174,818.817C750.055,820.634 752.979,822.85 753.351,825.169C751.635,827.01 750.776,826.646 747.894,827.202C745.731,827.255 744.595,827.531 742.804,826.503C742.917,824.161 746.319,821.015 748.174,818.817ZM805.14,1091.7C819.451,1097.84 825.349,1127.55 817.858,1140.14C816.276,1142.8 815.079,1144.82 813.205,1147.29C812.021,1148.56 811.717,1148.75 810.363,1149.76C809.875,1146.96 814.496,1138.85 814.962,1135.19C817.245,1117.27 814.698,1106.21 805.14,1091.7ZM310.528,1141.08C321.98,1140.04 345.433,1146.06 343.944,1160.24C334.443,1163.29 328.24,1151.2 320.699,1146.69C317.212,1144.6 314.15,1142.89 310.528,1141.08ZM230.931,828.444C232.281,829.33 232.56,829.813 233.543,831.044C236.144,846.073 201.408,864.479 189.25,869.552L188.077,869.649C191.661,866.506 197.864,863.33 201.899,860.333C215.481,850.247 222.576,843.04 230.931,828.444ZM858.748,1065.42C871.512,1066.01 875.722,1074.68 871.699,1085.89L870.623,1086.57C869.675,1085.9 861.11,1069.03 858.748,1065.42ZM899.611,1244.84C906.963,1251.09 906.509,1259.2 898.93,1265.02C897.073,1265.16 896.563,1265.31 894.739,1264.75C893.754,1262.05 898.417,1249.79 899.611,1244.84ZM712.94,763.315C713.103,764.659 711.923,773.304 711.619,774.962C709.351,787.335 713.758,793.549 716.396,804.386L715.04,804.261C705.041,791.937 705.86,776.877 712.94,763.315ZM898.548,1180.32C907.519,1183.91 908.615,1189.57 905.186,1197.85C903.471,1198.95 904.324,1198.85 902.628,1198.56C901.15,1195.08 899.459,1184.78 898.548,1180.32ZM354.718,404.064C359.731,403.471 363.318,407.852 364.889,412.139C375.708,441.66 370.714,471.089 341.056,485.212L344.956,479.074C356.412,458.931 355.808,432.222 327.553,430.052C334.38,419.244 344.149,411.003 354.718,404.064ZM887.208,418.07C891.427,417.674 897.756,417.861 902.145,417.861C901.369,419.164 900.578,420.457 899.771,421.74C892.365,433.483 880.877,445.79 870.988,455.487C831.729,493.98 777.339,523.921 723.523,536.05C709.753,531.464 700.967,528.705 686.823,525.757C704.893,517.149 727.555,509.655 746.116,501.362C753.856,497.904 762.991,494.952 770.36,490.829L769.945,490.47L765.146,490.998C732.575,493.998 689.635,507.032 658.585,516.769C653.216,514.782 649.384,513.844 643.869,512.491C657.441,505.593 670.943,497.37 684.465,490.12C749.779,455.1 811.672,423.293 887.208,418.07ZM246.169,727.814C239.393,731.683 234.779,734.572 228.808,739.883C215.815,732.832 207.424,729.511 193.398,725.221C198.046,720.414 204.247,713.136 210.998,711.944C220.026,710.349 238.799,722.793 246.169,727.814ZM180.046,1137.75C225.103,1141.54 265.523,1202.22 300.394,1226.04C287.37,1222.69 282.657,1220.4 271.649,1213.43C264.712,1219.33 255.399,1227.02 247.561,1231.39C244.259,1233.23 243.27,1232.8 240.29,1231.79C238.611,1227.29 239.349,1225.37 241.86,1221.39C246.958,1213.31 253.112,1205.08 259.352,1197.88C244.276,1182.32 235.049,1173.85 216.266,1163.01C211.32,1167.17 206.307,1171.25 201.23,1175.25C197.263,1178.33 188.663,1185.31 183.864,1184.71C181.246,1183.25 181.908,1184.07 180.602,1181.65C180.559,1172.21 199.722,1160.22 196.081,1151.51C190.094,1147.15 185.552,1152.86 180.742,1156.61C177.558,1152.1 173.934,1147.97 174.78,1142.7C176.054,1140.08 177.64,1139.33 180.046,1137.75ZM193.691,1122.91C219.403,1120.56 254.398,1149.55 270.315,1167.63C285.906,1185.35 299.003,1205.01 319.896,1217.49C336.033,1227.09 353.019,1232.57 370.672,1238.86C378.526,1241.66 398.029,1247.73 397.84,1258.52C397.814,1259.96 396.908,1260.33 395.899,1261.04C393.18,1260.62 394.227,1261.05 391.935,1259.1C381.757,1249.36 358.195,1242.5 345.142,1236.5C333.807,1231.3 324.035,1226.05 313.329,1219.42C294.141,1207.53 282.042,1191.38 266.714,1176.2C242.089,1151.82 216.919,1129.4 181.266,1126.6C186.283,1124.69 188.456,1123.93 193.691,1122.91ZM362.891,1250.46C363.353,1250.55 363.814,1250.65 364.273,1250.76C371.732,1252.49 373.79,1256.01 377.665,1262.18C370.483,1268.1 363.981,1273.37 356.458,1278.92C353.296,1280.84 351.135,1282.62 347.338,1281.46C342.515,1275.39 357.841,1254.35 362.891,1250.46ZM841.325,1175.96C842.998,1176.29 845.82,1178.23 846.297,1179.88C845.657,1182.87 844.186,1184.18 841.654,1185.92C832.717,1191.97 821.773,1194.31 811.141,1192.44C807.939,1190.91 805.852,1189.19 805.097,1185.59C808.051,1181.63 820.287,1184.19 826.725,1182.29C833.632,1180.25 835.187,1179.38 841.325,1175.96ZM844.108,1199.97C846.179,1199.65 845.64,1199.81 847.868,1200.64C849.009,1202.78 848.711,1201.91 848.634,1204.49C843.692,1214.52 825.988,1215.79 816.372,1214.41C812.802,1212.86 810.573,1211.4 809.341,1207.43C809.879,1206.24 810.499,1205.09 812.091,1205.15C824.662,1205.6 832.402,1204.79 844.108,1199.97ZM832.853,1153.2L834.013,1153.78C835.445,1155.73 835.671,1155.91 836.355,1158.18C834.315,1169.39 812.085,1172.99 802.633,1171.2C800.129,1169.56 797.605,1168.12 797.731,1164.97C800.335,1163.54 804.529,1164.11 807.947,1163.6C818.826,1162.01 824.226,1159.17 832.853,1153.2ZM253.495,839.524C254.145,839.981 255.765,840.878 255.836,841.681C257.753,863.304 230.414,880.274 214.1,889.145L213.119,889.49C213.265,888.127 222.912,881.359 224.842,879.796C240.067,867.47 246.555,857.494 253.495,839.524ZM285.487,1136.77C297.549,1140.5 317.202,1150.33 317.03,1165.11C314.326,1165.59 311.351,1165.8 309.308,1163.62C301.008,1154.76 294.078,1145.5 285.487,1136.77ZM333.325,1131.8C344.085,1131.42 370.286,1141.22 370.963,1153.47C369.61,1154.14 365.485,1155.75 364.278,1154.74C353.916,1146.02 345.603,1138 333.325,1131.8Z" style="fill:white;"/>
    </g>
</svg>
