<svg width="100%" height="100%" viewBox="0 0 964 990" version="1.1" xmlns="http://www.w3.org/2000/svg" xmlns:xlink="http://www.w3.org/1999/xlink" xml:space="preserve" xmlns:serif="http://www.serif.com/" style="fill-rule:evenodd;clip-rule:evenodd;stroke-linejoin:round;stroke-miterlimit:2;">
    <g transform="matrix(1,0,0,1,-39.674,-17.7272)">
        <path d="M578.951,32.859C594.133,33.226 611.848,74.475 615.97,87.756C622.17,107.729 621.649,128.484 611.94,147.162C614.675,149.065 617.325,151.087 619.883,153.221C630.514,162.141 653.299,183.736 654.614,197.902C655.256,204.821 649.072,210.958 644.728,215.696C652.274,219.77 668.217,222.739 677.121,225.414C688.086,228.709 699.297,232.026 710.266,235.453C716.098,237.605 724.035,238.661 729.073,242.457C738.574,249.616 732.653,259.764 727.698,266.684C731.396,281.952 728.952,297.222 718.984,309.503C717.016,311.928 712.586,317.118 711.935,319.844C717.465,324.974 766.26,332.524 776.352,334.704C791.936,328.566 809.506,333.188 824.5,338.372C848.995,308.584 887.954,279.217 927.256,275.64C960.596,272.605 999.506,277.453 962.405,316.107C984.021,320.513 1000.44,334.9 976.536,352.171C969.585,357.192 964.19,358.585 955.89,360.385C965.149,365.253 973.017,370.159 978.115,379.818C985.31,390.863 970.995,403.8 960.691,405.143C939.45,407.909 931.969,397.375 909.822,406.698C910.192,407.615 910.552,408.536 910.902,409.461C915.517,421.702 916.046,438.462 910.52,450.267C901.17,470.241 885.372,455.334 873.5,447.928C869.445,445.398 864.747,443.108 860.403,441.097C848.177,447.386 839.926,447.301 827.063,444.694C805.645,458.328 785.965,464.346 762.621,451.17C720.982,461.703 663.871,457.106 624.025,441.532C611.026,468.293 596.238,485.696 572.062,502.911C572.055,503.579 572.036,504.247 572.004,504.914C571.173,523.672 566.102,532.293 552.658,544.582C552.565,551.729 552.114,554.499 550.482,561.513C579.446,561.121 606.283,567.019 631.991,580.559C662.316,596.531 705.575,635.731 685.356,673.539C693.785,686.112 699.749,700.14 705.817,713.871C706.957,716.45 713.502,717.385 715.842,720.891C722.96,731.558 723.995,739.937 733.594,749.097C735.523,743.46 735.315,737.552 738.038,732.139C740.874,726.563 745.455,721.824 751.496,720.022C764.584,716.118 772.826,728.85 769.241,740.593C768.214,743.959 767.276,745.574 765.601,748.547C770.242,747.957 771.523,748.185 775.993,748.965C780.226,745.207 782.49,743.34 787.67,740.892C788.959,740.042 794.039,738.077 794.888,737.108C806.532,723.815 817.052,714.188 835.099,710.088C849.724,706.765 866.841,709.058 879.333,718.384C882.668,720.874 885.452,724.471 888.79,727.016C891.629,729.011 896.887,730.034 900.386,732.409C905.632,735.971 910.297,740.645 911.447,747.149C912.919,755.485 908.776,762.936 904.21,769.426C912.465,783.927 914.383,805.39 890.546,798.123C887.294,806.341 885.42,809.483 879.711,816.183C880.494,818.335 881.209,820.459 881.872,822.673C883.795,829.1 883.567,839.798 875.357,841.579C869.65,842.817 863.549,838.725 858.836,835.873C845.342,844.651 831.694,853.776 818.551,863.054C809.86,869.189 801.627,876.066 792.886,882.193C806.702,903.506 796.678,925.66 771.541,903.39C767.368,906.672 762.268,910.011 757.847,913.051C758.194,914.412 758.516,915.78 758.813,917.154C759.732,921.506 759.513,926.594 756.925,930.368C755.422,932.577 753.078,934.07 750.441,934.5C744.174,935.528 737.799,931.349 733.051,927.76C715.327,937.216 695.166,932.969 691.757,910.42C673.446,898.074 666.655,875.667 665.594,854.498C665.295,848.522 666.251,839.431 663.212,834.155C659.684,828.031 640.857,822.683 633.97,807.437C631.303,801.531 631.97,796.653 634.151,790.836C616.639,779.171 604.573,766.827 591.982,750.012C566.065,750.433 554.987,741.131 538.863,722.113C505.218,721.218 481.372,717.809 448.557,708.884C444.198,729.854 441.462,740.117 431.464,759.611C418.422,784.022 388.149,813.254 357.895,805.965C340.469,816.432 329.18,819.975 309.689,824.314C309.348,834.436 298.754,837.329 290.811,840.464C299.65,846.811 310.419,859.76 295.398,868.798C291.598,871.084 283.394,870.39 279.441,868.5C275.061,866.406 270.923,863.367 266.184,861.388L265.539,861.123C269.944,867.745 271.765,869.346 271.894,877.108C271.904,877.688 282.715,886.167 284.063,887.299C304.917,888.934 325.173,909.802 325.836,930.723C326.049,937.444 323.998,941.904 320.573,947.419C322.647,964.471 312.848,969.462 298.137,972.526C297.729,980.272 295.096,989.488 286.681,991.921C283.75,992.76 280.606,992.393 277.947,990.904C272.192,987.732 270.355,981.12 268.637,975.341C265.338,975.437 261.761,975.356 258.437,975.339C253.633,983.143 244.834,999.359 233.749,988.591C228.806,983.789 228.037,978.291 227.936,971.733C216.59,969.3 210.684,968.124 200.116,962.975C189.723,978.536 168.962,977.686 173.305,955.982C173.857,953.219 174.532,950.424 175.163,947.673C171.296,944.532 168,941.805 164.683,938.075C159.599,940.445 152.569,942.168 148.108,938.243C138.131,929.465 145.105,918.514 150.839,911.182C143.621,888.361 149.015,870.533 143.461,851.077C136.825,849.945 127.266,847.621 126.246,839.536C125.339,832.349 130.654,827.302 134.753,822.171C128.226,819.577 122.417,816.596 120.448,809.149C119.437,805.312 120.026,801.23 122.079,797.835C125.363,792.394 130.112,790.627 135.778,789.072C139.923,776.155 143.237,773.818 156.044,769.813C164.624,755.675 185.877,751.569 201.028,754.344C206.309,755.311 211.343,756.86 216.457,758.445C225.394,748.55 229.255,745.777 242.44,743.363C253.41,731.761 255.826,725.592 271.483,717.609C272.171,707.821 271.911,697.479 271.885,687.62C255.367,708.544 221.923,722.449 195.448,721.179C191.685,720.998 189.679,717.134 189.512,717.139C186.19,717.238 182.442,718.5 179.065,718.957C160.031,721.694 140.612,719.485 122.679,712.54C112.163,708.352 87.774,695.143 81.099,684.195C76.915,677.333 91.94,676.001 96.443,675.187C80.808,664.034 69.532,651.363 61.092,633.859C58.723,628.946 52.193,617.137 55.647,611.457C56.377,610.256 58.804,609.749 60.215,610.029C66.921,611.359 73.564,613.008 80.298,614.261C94.15,616.837 108.214,618.094 122.303,618.015C120.155,615.154 107.226,597.981 118.016,597.085C123.448,596.634 133.979,598.186 139.893,598.586C151.73,599.39 163.614,599.148 175.408,597.864C201.313,595.044 240.052,583.274 261.905,565.65C264.451,563.596 269.714,551.329 272.361,547.496C276.585,541.382 281.132,536.681 285.733,530.953C284.421,522.102 284.87,517.061 287.053,508.51C280.866,506.594 275.172,504.535 269.086,502.321C257.448,520.77 231.554,509.551 217.905,500.015C214.017,501.048 210.87,501.932 206.936,502.121C189.61,502.955 178.936,493.32 165.6,485.256C155.731,480.163 145.194,475.815 136.863,468.247C126.367,458.712 119.845,446.446 116.314,432.775C113.859,423.266 113.601,413.916 113.035,404.081C73.835,352.685 89.099,294.247 136.754,255.724C145.034,249.031 150.631,244.583 160.831,240.479C177.687,233.696 195.523,230.407 212.95,225.445C226.118,221.907 239.931,217.368 253.232,214.915C259.849,213.679 266.563,213.031 273.294,212.977C290.63,212.642 307.966,213.645 325.148,215.976C335.501,217.28 347.755,219.509 357.939,220.225C355.916,218.408 352.099,215.196 352.317,212.349C355.861,208.439 385.34,202.308 391.973,200.778C386.538,195.823 369.554,179.491 367.032,171.881C366.724,170.949 367.384,169.94 368.132,169.23C372.227,165.347 384.052,165.998 389.64,165.908C367.855,138.15 350.188,122.735 401.872,133.192C400.818,129.065 399.965,124.889 399.313,120.679C395.817,97.92 399.67,75.892 405.833,53.98C406.88,50.256 408.67,40.493 413.079,40.396C417.369,42.401 422.599,48.392 426.094,51.948C449.012,75.264 477.871,90.747 499.965,114.704C514.421,112.295 525.858,113.221 540.19,114.154C544.618,95.679 555.645,78.838 564.453,62.156C568.043,55.357 574.11,36.923 578.951,32.859Z" style="fill:rgb(0,38,57);"  data-color="color-1"/>
        <path d="M269.838,229.21C281.25,228.124 294.239,229.676 305.62,230.692C327.484,232.643 348.303,237.805 369.42,243.602C362.1,249.023 362.134,251.139 368.568,257.672C373.363,262.54 378.499,267.061 383.557,271.654C384.19,275.895 384.858,281.131 385.866,285.266C399.023,339.215 457.652,373.209 510.724,373.123C534.308,373.085 551.973,367.055 570.183,352.87C582.608,362.574 592.162,373.88 603.957,383.139C621.493,382.978 637.983,379.847 652.225,369.261C664.412,360.203 667.893,353.941 670.218,339.464L656.68,326.316C659.567,325.022 662.668,323.852 665.624,322.682C673.636,332.766 672.758,338.069 677.839,348.272C684.413,345.639 693.831,339.278 698.969,334.328C718.483,342.183 741.112,343.652 762.036,346.206C757.044,353.073 752.986,360.572 749.969,368.508C741.784,390.291 742.543,414.427 752.08,435.654C710.953,442.8 665.675,437.68 626.113,425.015C628.121,418.093 630.093,402.534 629.953,395.326C627.735,398.499 625.72,403.623 623.963,407.215C620.684,413.92 617.694,420.803 614.191,427.399C594.22,465.009 571.238,491.007 533.263,510.6C527.589,513.154 521.955,515.797 516.365,518.528C529.244,517.381 542.877,516.19 554.788,510.93C553.517,515.309 551.4,519.866 548.289,523.217C533.39,539.264 505.879,545.024 484.944,546.152C442.426,548.444 397.353,540.121 360.154,518.933C354.61,515.775 346,510.483 341.361,506.423C359.231,503.665 382.679,491.878 388.644,473.495C396.813,448.321 393.273,415.109 382.218,391.444C366.852,358.548 339.5,337.409 306.102,324.936C305.693,316.293 302.364,307.38 298.851,299.59C296.807,306.845 294.237,314.258 292.513,321.526C281.632,318.544 271.273,317.211 260.119,315.976C256.724,289.734 240.599,273.673 216.682,264.468C217.146,264.884 217.602,265.307 218.05,265.739C234.881,281.974 244.544,297.081 245.046,320.492C242.733,321.335 239.378,322.925 237.06,323.952C237.035,322 236.898,320.05 236.65,318.113C234.923,303.599 226.03,289.293 214.533,280.521C192.812,263.947 173.083,266.087 148.125,269.259C176.476,243.754 215.418,242.934 248.039,260.577C239.779,250.931 234.159,247.649 223.275,241.306C237.966,234.573 253.728,230.479 269.838,229.21ZM323.606,510.229C324.426,510.336 332.959,516.72 334.426,517.741C392.796,558.367 466.954,569.159 534.646,547.271C534.184,553.32 533.62,557.425 531.158,562.912C525.399,567.328 518.247,570.906 511.63,573.811C474.767,590.357 423.561,585.508 385.06,574.95C360.487,568.212 317.524,550.82 303.12,527.899C299.554,522.224 301.592,517.348 303.36,511.409C312.107,511.96 314.983,511.514 323.606,510.229ZM168.921,279.7C174.128,279.099 180.352,279.728 185.37,281.202C215.967,290.195 229.641,315.932 220.841,346.115C209.086,314.493 170.965,312.49 144.11,325.13C123.011,336.24 114.489,349.392 111.658,372.773C109.67,366.91 108.286,360.858 107.53,354.712C105.428,336.704 111.922,318.166 122.953,303.958C133.642,290.19 151.711,281.561 168.921,279.7ZM790.757,347.154C799.612,346.605 806.62,348.317 815.1,350.342C804.848,361.7 798.853,372.485 797.268,387.978C795.591,404.374 799.68,423.311 810.256,436.252C805.525,438.88 802.666,440.069 797.448,441.39C773.813,446.288 763.268,430.02 759.887,409.086C757.099,391.821 761.947,371.954 771.532,357.482C775.637,351.285 783.593,348.114 790.757,347.154ZM406.778,300.651C418.982,303.407 425.686,312.128 433.982,320.419C437.08,323.516 442.011,327.16 445.639,329.66C469.811,346.525 499.719,353.034 528.714,347.74C535.879,346.425 542.05,343.355 549.064,341.747C551.549,341.177 556.636,342.866 556.428,346.14L554.519,347.435C509.86,372.678 446.92,353.409 415.732,314.965C412.363,310.812 408.835,305.605 406.778,300.651Z" style="fill:rgb(253,241,222);"  data-color="color-4"/>
        <g transform="matrix(0.99264,-0.121101,0.121101,0.99264,-48.8421,60.9031)">
            <path d="M405.057,355.203C418.728,360.238 432.806,365.069 446.562,369.955C444.409,378.026 442.321,386.114 440.296,394.218L434.122,391.728C433.801,407.283 432.031,423.291 431.936,438.893C436.78,430.411 443.455,420.763 448.923,412.424L470.766,378.817C477.001,380.592 486.072,384.193 492.471,386.45C491.663,391.78 491.254,401.416 490.872,407.011C489.693,423.759 489.056,440.54 488.963,457.329C495.719,446.102 505.964,431.608 513.525,420.532C511.031,419.722 508.297,418.696 505.802,417.816C508.572,409.535 511.451,401.292 514.438,393.087C528.612,397.996 542.837,402.757 557.111,407.368C554.75,413.671 552.507,419.503 550.638,425.975L548.54,432.839L539.06,429.851C524.016,455.112 502.275,485.092 484.808,509.364C476.902,507.122 469.102,504.522 461.432,501.571C461.739,482.856 464.077,451.89 466.878,433.032C456.585,449.998 440.588,473.001 428.62,488.897L404.725,480.57C405.966,448.18 406.72,415.772 406.986,383.359C403.586,382.362 399.56,380.791 396.168,379.564C398.862,371.348 401.827,363.224 405.057,355.203Z" style="fill:rgb(156,0,26);"  data-color="color-2"/>
        </g>
        <path d="M419.195,67.239C420.409,68.238 423.176,71.603 424.353,72.971C446.323,98.492 483.008,108.517 497.86,140.48C500.216,145.55 501.451,150.647 502.748,155.915C508.42,148.243 509.289,140.978 508.944,131.795C534.058,128.332 563.191,134.902 585.814,146.124C603.944,155.164 619.812,168.162 632.245,184.157C635.602,188.557 641.945,196.464 638.863,202.003C637.3,203.334 636.585,203.159 634.524,203.261L633.733,203.294C633.708,204.314 633.668,204.935 633.549,205.947L632.922,206.045L632.042,205.014C631.202,205.17 630.726,207.194 630.323,208.344C627.659,215.942 625.188,219.359 619.683,225.111C640.104,229.25 662.698,236.589 682.628,242.726C669.776,250.187 678.554,269.187 685.444,277.983C687.327,275.634 691.939,268.426 695.083,269.457C696.941,271.556 698.033,273.599 698.238,276.448C698.655,282.246 695.441,288.063 691.84,292.407C685.386,300.193 677.68,304.752 667.751,306.598C623.192,314.883 590.583,262.63 554.01,266.297C544.898,267.21 535.748,272.544 530.076,279.701C525.796,285.102 525.975,290.675 526.669,297.125C536.087,290.08 537.886,288.873 549.335,293.411C567.143,300.472 579.022,314.079 593.314,326.006C610.112,339.001 634.205,349.002 655.678,344.254C650.154,354.921 642.826,359.382 631.8,363.292C628.846,360.861 627.339,359.509 623.966,357.702C620.071,361.539 617.845,363.985 613.259,367.025C595.181,356.881 577.568,336.283 557.476,327.505C544.617,321.887 527.03,320.164 514.354,327.389C510.122,329.628 505.847,334.343 501.328,335.748C485.233,340.749 471.587,322.381 460.502,314.068C444.522,302.085 429.463,293.588 411.666,285.394C413.747,280.77 416.251,273.662 418.14,268.769C407.447,267.37 394.896,262.696 387.429,254.469C399.44,247.887 411.263,240.975 423.318,234.476C407.974,233.295 395.929,228.737 382.94,220.467C388.058,218.458 395.699,216.452 401.105,214.903L429.997,206.627C416.378,198.72 407.42,192.671 396.209,181.512L432.29,180.919C417.334,170.298 407.024,163.19 395.376,148.528C405.278,150.551 415.228,152.326 425.218,153.853C425.013,153.52 424.814,153.183 424.622,152.841C421.947,148.067 419.871,141.741 418.236,136.531C410.687,112.47 412.259,91.11 419.195,67.239ZM649.915,264.211C648.461,264.529 647.291,265.606 646.854,267.028C646.416,268.451 646.78,269.999 647.804,271.079C648.828,272.158 650.355,272.602 651.798,272.241C653.984,271.693 655.326,269.492 654.811,267.298C654.297,265.104 652.116,263.729 649.915,264.211ZM642.456,282.441C640.929,282.65 639.633,283.665 639.064,285.097C638.495,286.529 638.74,288.157 639.706,289.357C640.672,290.558 642.209,291.146 643.73,290.896C646.039,290.517 647.614,288.353 647.265,286.04C646.917,283.727 644.774,282.123 642.456,282.441ZM484.324,224.212C468.399,225.522 455.752,230.955 445.239,243.258C443.266,245.537 441.443,247.942 439.782,250.458C441.35,252 445.187,255.315 444.951,257.253C444.154,263.8 439.877,275.447 437.612,281.613C454.719,288.188 473.739,296.206 489.779,305.077L491.337,305.644C490.624,303.788 487.206,300.543 485.717,298.886C475.24,287.22 466.176,278.718 452.587,270.666C461.04,245.527 474.629,232.584 499.866,224.799C494.812,223.924 489.432,223.995 484.324,224.212ZM631.442,264.755C629.429,265.623 628.439,267.908 629.183,269.971C629.928,272.033 632.149,273.159 634.252,272.541C635.731,272.106 636.846,270.887 637.149,269.376C637.451,267.865 636.89,266.311 635.692,265.341C634.495,264.371 632.858,264.146 631.442,264.755ZM435.863,107.834C436.135,127.478 440.558,132.119 451.331,148.676C449.559,149.515 447.945,150.027 446.872,151.64C446.223,160.898 461.732,175.061 469.213,179.42C469.496,176.846 469.72,174.218 470.234,171.686C473.01,166.066 475.035,165.359 481.236,165.942C474.004,145.798 469.698,134.819 451.863,121.389C447.691,118.248 439.077,111.515 435.863,107.834ZM546.191,158.151C542.264,158.666 540.874,159.067 537.126,160.773C556.625,163.862 562.559,175.076 573.995,190.535C562.559,181.442 550.375,174.674 535.354,176.509C522.55,178.074 515.503,184.064 512.425,196.526C519.196,191.517 528.766,185.557 537.38,190.042C537.218,191.355 531.656,196.695 530.937,199.028C523.785,222.252 537.465,238.578 559.391,242.339C576.95,244.271 588.697,239.681 600.081,226.045C594.789,226.427 589.488,226.686 584.183,226.82C589.174,220.497 589.073,219.34 586.992,211.457C591.057,214.588 597.119,218.928 602.326,217.605C620.392,213.016 614.625,192.227 607.283,182.041C607.074,186.288 607.267,195.795 603.77,198.604C602.738,199.434 602.014,199.623 600.703,199.457C590.813,198.203 575.574,156.413 546.191,158.151ZM167.288,333.17C171.419,332.833 174.813,332.892 178.974,332.947C181.052,336.366 183.243,339.803 185.362,343.205L186.143,334.442C192.892,336.917 199.967,340.022 202.094,347.817C202.49,349.268 202.223,349.585 201.471,350.698L200.155,350.849C197.888,350.034 196.659,348.518 194.89,346.823C195.699,354.058 198.319,360.81 204.141,365.175C216.331,374.315 228.146,368.862 241.326,370.397C244.199,370.731 250.688,374.111 253.244,375.84C265.167,383.903 272.797,385.471 287.238,383.797C280.768,395.371 272.189,402.49 258.876,404.952C249.384,406.708 241.506,403.656 232.837,400.176C229.76,408.69 226.094,410.587 218.347,414.78C218.677,438.107 226.064,456.211 242.541,473.328C246.329,477.262 268.026,492.193 247.772,496.965C241.57,498.427 229.481,490.938 224.223,486.863C207.756,473.341 197.889,459.464 185.19,442.911C187.991,454.545 191.371,464.013 197.738,474.309C200.493,478.765 204.275,483.724 206.534,488.321C180.924,487.701 170.607,467.708 157.52,449.126C157.929,454.874 158.607,460.646 159.224,466.378C140.576,455.635 131.564,439.557 128.468,418.125C126.939,407.537 127.054,397.473 125.129,386.683C122.577,372.383 130.997,356.615 139.738,345.943C139.909,347.832 139.835,349.505 140.919,351.007L141.736,350.944C143.258,349.14 145.148,343.813 146.137,341.344C149.33,339.246 151.342,338.216 154.795,336.516C155.52,339.553 156.308,341.719 157.356,344.652C160.371,340.313 160.009,338.88 162.581,334.614C163.358,333.327 165.663,333.378 167.288,333.17ZM254.499,589.937L254.726,589.987C255.467,590.725 253.122,602.86 252.887,605.173C250.573,627.911 253.546,645.714 263.779,665.872C262.639,668.282 261.376,670.632 259.997,672.913C250.602,688.528 233.203,697.798 215.991,702.106C223.075,692.66 224.213,690.766 226.091,679.026C194.059,709.982 150.75,708.931 112.88,689.749C130.608,689.339 159.617,684.087 175.682,676.782C173.757,676.168 163.162,675.859 160.216,675.44C154.584,674.64 149.42,673.789 143.93,672.368C112.137,664.137 93.234,656.638 75.433,628.407C99.317,636.029 138.934,640.174 162.966,632.504C152.437,628.167 144.507,623.577 137.274,614.844C144.752,615.595 161.47,617.098 168.475,616.412C199.149,613.411 227.427,604.097 254.499,589.937ZM937.193,289.711C945.13,288.825 953.301,290.243 960.919,292.387C956.281,301.468 944.25,309.711 934.797,312.427C923.239,315.748 913.519,316.245 902.775,322.805C883.865,334.349 877.259,345.438 871.734,365.76C864.316,372.67 858.094,374.832 848.529,377.295C847.433,377.577 847.383,377.795 847.067,378.69C848.167,380.046 852.43,381.859 854.252,382.796C868.467,390.107 885.4,396.327 893.334,411.311C898.904,421.831 899.91,431.298 896.631,442.561C892.521,440.776 889.238,439.123 885.255,437.045C872.755,429.624 862.485,422.528 848.232,418.974C849.128,420.592 850.258,421.974 849.508,423.701C843.929,428.053 824.854,424.538 819.455,420.25C814.492,415.301 812.718,404.364 812.159,397.908C809.593,368.298 839.733,342.648 859.638,324.88C882.752,304.248 905.938,292.022 937.193,289.711ZM657.762,662.457C667.931,662.545 687.346,713.373 690.983,723.1C687.382,719.946 685.348,718.493 681.33,715.783C683.194,720.764 684.572,724.064 686.901,728.865C674.378,736.442 672.243,741.033 663.77,752.527C657.457,747.924 651.709,742.387 644.86,737.524C647.87,745.596 652.248,752.828 657.163,759.861C654.225,763.72 651.335,767.826 648.484,771.767L645.845,775.478C639.927,768.015 635.291,759.243 629.196,751.429C628.836,756.14 627.952,759.216 626.482,763.642C609.826,751.315 599.788,734.969 593.157,715.767C603.265,696.374 618.888,679.783 638.522,669.823C644.668,666.706 651.239,664.622 657.762,662.457ZM268.764,736.868L269.454,737.441C276.497,762.739 309.089,791.498 333.904,798.557C327.995,801.771 321.854,804.537 315.532,806.833C306.461,810.149 302.052,809.716 295.416,817.38C292.427,815.493 290.852,814.748 287.625,813.279C282.042,811.033 276.538,808.597 271.121,805.974C274.217,803.118 276.262,801.041 279.091,797.913C275.882,798.819 272.534,799.381 269.369,800.128C256.2,803.236 253.186,799.178 248.581,787.448C252.289,782.472 257.927,776.384 262.302,772.001C255.273,773.644 253.002,774.438 246.341,777.42C246.385,771.154 246.494,761.843 249.839,756.594C254.211,749.733 262.43,741.743 268.764,736.868ZM932.6,329.188C940.142,328.43 965.75,329.039 969.696,335.556C970.108,344.858 940.036,346.248 933.238,348.95C920.195,354.135 911.856,361.933 905.769,374.588C923.74,365.517 942.885,367.793 958.145,380.821C960.094,382.65 962.19,384.992 964.046,386.964C943.775,397.653 927.284,376.596 898.654,393.152C893.708,387.825 889.634,384.608 883.211,381.307C884.252,372.789 886.432,366.222 890.587,358.791C900.332,341.368 912.556,331.405 932.6,329.188ZM585.522,58.961C601.853,80.654 613.486,109.274 600.572,135.334C596.147,132.908 592.243,130.836 587.667,128.644C580.344,124.799 568.816,121.125 560.981,118.623C565.647,106.956 571.155,98.422 576.243,87.067C580.207,78.22 581.806,67.558 585.522,58.961ZM581.716,298.039C596.628,297.778 604.372,307.656 609.184,320.34C601.585,318.075 588.693,303.826 581.716,298.039ZM714.073,282.971L714.848,283.327C716.391,288.976 712.414,297.805 708.102,301.548C705.049,304.197 703.909,304.214 699.986,304.047C699.35,303.574 699.054,303.238 698.489,302.684C699.234,300.815 702.73,297.717 704.169,295.616C707.704,290.457 707.662,284.828 714.073,282.971Z" style="fill:rgb(194,163,112);"  data-color="color-3"/>
        <path d="M98.781,601.822C98.618,596.497 100.338,592.058 103.352,588.611C106.078,585.493 110.166,582.685 116.775,582.136C122.764,581.639 134.385,583.179 140.907,583.62L140.909,583.62C151.867,584.365 162.867,584.141 173.785,582.952C196.82,580.444 231.128,570.429 251.175,555.01C252.479,552.494 258.012,541.878 260.019,538.97C263.249,534.295 266.642,530.392 270.113,526.294C270.011,524.875 269.958,523.518 269.954,522.191C263.916,525.833 257.021,527.328 249.759,527.224C238.089,527.057 225.189,521.927 215.255,516.107C212.809,516.616 210.376,516.973 207.656,517.104C187.152,518.09 174.008,507.912 158.27,498.353C147.384,492.759 135.953,487.685 126.777,479.35C114.083,467.818 106.061,453.06 101.79,436.525C99.459,427.497 98.838,418.609 98.312,409.389C57.187,351.774 74.208,286.996 127.324,244.059C136.894,236.323 143.442,231.307 155.232,226.563C172.577,219.583 190.909,216.124 208.95,210.988L209.058,210.959C222.601,207.32 236.817,202.691 250.497,200.166C257.948,198.776 265.509,198.044 273.088,197.978C291.143,197.634 309.198,198.678 327.07,201.1C331.325,201.636 335.907,202.337 340.528,203.02L341.203,202.275C342.818,200.494 346.406,197.823 351.859,195.761C354.801,194.648 358.667,193.48 362.809,192.35C362.115,191.536 361.445,190.728 360.807,189.933C356.772,184.906 353.942,180.066 352.792,176.594L352.79,176.588C350.76,170.446 352.876,163.03 357.808,158.348L357.811,158.345C359.032,157.187 360.504,156.114 362.194,155.173C359.193,151.104 356.863,147.568 355.547,144.674C351.229,135.171 353.173,127.784 357.379,122.67C359.922,119.577 364.011,116.535 370.889,115.397C373.857,114.906 378.01,114.808 383.545,115.259C381.513,93.056 385.344,71.427 391.393,49.92C392.414,46.287 394.377,38.688 397.309,34.314C401.313,28.345 406.878,25.529 412.749,25.4L416.254,25.322L419.431,26.807C425.027,29.423 432.232,36.795 436.791,41.433C457.955,62.964 484.132,77.88 505.466,98.839C513.739,97.999 521.333,98.076 529.384,98.473C535.047,83.414 543.775,69.193 551.188,55.152C553.676,50.441 557.35,40.081 560.983,32.913C563.703,27.548 566.797,23.477 569.308,21.37L573.648,17.727L579.313,17.864C587.237,18.055 596.528,23.129 604.488,32.888C616.36,47.446 627.087,72.97 630.296,83.309C636.411,103.009 636.872,123.335 630.288,142.375C638.613,149.449 652.677,162.809 661.035,175.389C665.974,182.823 668.968,190.252 669.55,196.516C669.907,200.361 669.39,204.123 668.16,207.734C673.036,208.909 677.867,209.976 681.438,211.049C692.454,214.359 703.718,217.692 714.739,221.135L715.102,221.249L715.459,221.38C722.549,223.997 731.974,225.862 738.1,230.477C753.231,241.879 750.464,257.397 743.559,269.676C745.744,284.15 743.453,298.375 736.204,310.885C749.146,313.61 766.762,317.324 775.469,319.177C789.84,315.019 805.333,317.092 819.602,321.108C846.593,291.362 886.241,264.311 925.896,260.702C942.159,259.221 959.539,259.75 971.064,263.73C978.841,266.416 984.581,270.701 988.088,275.888C992.904,283.009 994.886,294.307 986.451,309.255C988.273,310.34 989.955,311.495 991.469,312.708C997.733,317.726 1001.54,323.873 1002.83,330.375C1004.7,339.858 1001.84,352.272 985.604,364.124C987.61,366.548 989.44,369.233 991.08,372.255C996.909,381.681 996.135,391.695 991.089,400.546C985.281,410.733 972.721,418.702 962.628,420.017C952.285,421.364 944.617,420.23 937.419,418.979C934.451,418.463 931.613,417.89 928.465,417.826C930.519,430.987 929.307,445.513 924.105,456.626C918.651,468.278 911.211,472.911 904.045,474.579C897.224,476.167 889.714,474.819 882.3,471.14C876.534,468.279 870.687,463.852 865.56,460.654C863.881,459.607 862.073,458.612 860.231,457.667C849.764,461.844 841.093,462.23 830.015,460.477C807.083,473.974 785.392,478.836 760.637,467.039C721.249,475.561 670.695,472.287 631.316,459.968C619.66,480.688 606.093,496.041 586.655,510.8C585.277,526.829 580.871,536.707 571.23,547.29C594.889,549.417 617.301,555.869 638.981,567.287C659.454,578.07 684.945,598.496 697.325,622.113C705.634,637.963 708.455,655.142 702.285,672.31C708.319,682.557 713.201,693.463 717.985,704.294C721.175,706.229 726.387,709.671 728.319,712.565C729.192,713.873 729.987,715.15 730.725,716.401C735.132,711.422 740.724,707.582 747.208,705.648C758.041,702.417 767.196,705.109 773.895,710.559C778.583,714.372 782.078,719.85 783.822,726.07C784.338,725.817 784.825,725.58 785.235,725.381C798.493,710.533 811.126,700.152 831.776,695.461C850.485,691.21 872.326,694.434 888.307,706.364C891.457,708.717 894.13,712.036 897.219,714.562C898.561,715.078 905.645,717.849 908.812,719.999C917.376,725.814 924.341,733.92 926.218,744.539L926.218,744.541C927.858,753.826 925.405,762.555 921.22,770.409C923.102,775.294 924.345,780.336 924.709,784.948C925.277,792.136 923.763,798.534 920.702,803.365C916.919,809.336 910.364,814.662 899.428,814.66C898.54,816.206 897.585,817.678 896.48,819.21C898.274,825.868 898.423,834.803 895.653,841.639C892.727,848.858 887.247,854.349 878.537,856.238C872.388,857.572 865.72,855.881 859.688,853.239C848.763,860.425 837.815,867.816 827.201,875.308C821.934,879.027 816.834,883.017 811.688,886.947C814.686,896.133 814.608,904.711 812.557,910.875C810.38,917.419 806.217,922.2 800.785,925.01C794.911,928.049 785.607,929.196 774.222,923.417C773.94,928.89 772.394,934.333 769.327,938.806C765.51,944.416 759.559,948.209 752.863,949.303C745.695,950.477 738.191,948.17 731.678,944.667C718.341,949.222 704.835,948.077 694.674,941.685C687.361,937.085 681.305,929.755 678.29,919.046C659.676,903.564 651.801,878.954 650.613,855.248C650.486,852.72 650.561,849.664 650.504,846.55C650.483,845.378 650.29,843.57 650.149,842.388C647.916,840.952 642.96,837.738 639.425,835.259C631.912,829.989 624.57,823.065 620.299,813.611C617.67,807.787 616.789,802.554 617.244,797.253C604.563,787.743 594.487,777.506 584.507,764.895C560.555,763.714 547.588,754.637 531.824,736.894C505.481,735.895 484.583,733.178 459.839,727.26C456.53,740.731 452.825,750.83 444.753,766.568L444.694,766.679C435.677,783.557 419.42,802.347 400.401,812.934C387.957,819.861 374.384,823.357 360.708,821.691C346.876,829.523 336.206,833.353 321.539,836.956C319.825,840.119 317.481,842.805 314.674,845.112C317.55,850.821 318.573,856.89 317.423,862.771C316.349,868.263 313.448,874.068 306.868,879.116C325.562,889.429 340.182,909.834 340.828,930.248C341.09,938.49 339.316,944.533 335.847,950.987C335.999,959.722 333.666,966.239 330.101,971.337C325.951,977.272 319.513,981.532 311.183,984.473C308.189,994.347 301.703,1003.19 290.828,1006.34L290.809,1006.34C284.051,1008.28 276.803,1007.44 270.688,1004.03C267.149,1002.08 264.332,999.441 262.046,996.411C260.868,997.782 259.635,999.067 258.358,1000.19C253.539,1004.43 248.047,1006.85 242.387,1007.14C236.513,1007.45 229.917,1005.78 223.297,999.35C218.449,994.641 215.756,989.628 214.338,984.061C210.646,983.154 207.305,982.187 203.749,980.875C192.696,989.447 179.054,990.236 170.45,985.336C162.607,980.869 155.653,971.463 158.221,955.136C151.014,955.796 143.653,954.303 138.2,949.505C123.479,936.553 127.044,920.731 134.54,908.4C132.217,898.376 131.758,889.163 131.531,880.249C131.384,874.492 131.401,868.896 130.668,863.245C127.659,862.175 124.735,860.803 122.24,859.058C116.414,854.985 112.352,849.242 111.364,841.414C110.686,836.037 111.765,831.221 113.778,826.778C110.208,823.255 107.488,818.816 105.945,812.977L105.943,812.971C103.897,805.207 105.088,796.947 109.241,790.077C113.208,783.507 118.197,779.746 124.222,777.179C126.638,771.68 129.3,767.998 132.532,765.039C135.988,761.873 140.322,759.449 146.789,757.101C159.943,741.662 185.043,736.167 203.73,739.589C206.508,740.098 209.226,740.744 211.92,741.47C216.044,737.489 219.689,734.842 224.224,732.859C214.167,735.418 204.078,736.61 194.728,736.162C191.417,736.002 188.199,734.588 185.466,732.879C184.013,733.231 182.558,733.614 181.176,733.808C159.6,736.906 137.589,734.4 117.195,726.502L117.129,726.476C108.912,723.203 93.105,714.999 81.806,706.178C75.828,701.511 71.052,696.53 68.292,692.004C65.319,687.129 64.981,682.71 65.627,678.933C66.094,676.205 67.152,673.622 68.867,671.292C60.342,662.436 53.38,652.402 47.581,640.375C45.495,636.05 41.139,627.365 40.027,620.16C39.046,613.804 40.148,608.075 42.83,603.664C44.636,600.694 47.727,597.901 51.816,596.341C55.49,594.939 59.997,594.694 63.134,595.316C69.782,596.634 76.365,598.272 83.041,599.514C88.259,600.484 93.51,601.254 98.781,601.822ZM578.951,32.859C574.11,36.923 568.043,55.357 564.453,62.156C555.645,78.838 544.618,95.679 540.19,114.154C525.858,113.221 514.421,112.295 499.965,114.704C477.871,90.747 449.012,75.264 426.094,51.948C422.599,48.392 417.369,42.401 413.079,40.396C408.67,40.493 406.88,50.256 405.833,53.98C399.67,75.892 395.817,97.92 399.313,120.679C399.965,124.889 400.818,129.065 401.872,133.192C350.188,122.735 367.855,138.15 389.64,165.908C384.052,165.998 372.227,165.347 368.132,169.23C367.384,169.94 366.724,170.949 367.032,171.881C369.554,179.491 386.538,195.823 391.973,200.778C385.34,202.308 355.861,208.439 352.317,212.349C352.099,215.196 355.916,218.408 357.939,220.225C347.755,219.509 335.501,217.28 325.148,215.976C307.966,213.645 290.63,212.642 273.294,212.977C266.563,213.031 259.849,213.679 253.232,214.915C239.931,217.368 226.118,221.907 212.95,225.445C195.523,230.407 177.687,233.696 160.831,240.479C150.631,244.583 145.034,249.031 136.754,255.724C89.099,294.247 73.835,352.685 113.035,404.081C113.601,413.916 113.859,423.266 116.314,432.775C119.845,446.446 126.367,458.712 136.863,468.247C145.194,475.815 155.731,480.163 165.6,485.256C178.936,493.32 189.61,502.955 206.936,502.121C210.87,501.932 214.017,501.048 217.905,500.015C231.554,509.551 257.448,520.77 269.086,502.321C275.172,504.535 280.866,506.594 287.053,508.51C284.87,517.061 284.421,522.102 285.733,530.953C281.132,536.681 276.585,541.382 272.361,547.496C269.714,551.329 264.451,563.596 261.905,565.65C240.052,583.274 201.313,595.044 175.408,597.864C163.614,599.148 151.73,599.39 139.893,598.586C133.979,598.186 123.448,596.634 118.016,597.085C107.226,597.981 120.155,615.154 122.303,618.015C108.214,618.094 94.15,616.837 80.298,614.261C73.564,613.008 66.921,611.359 60.215,610.029C58.804,609.749 56.377,610.256 55.647,611.457C52.193,617.137 58.723,628.946 61.092,633.859C69.532,651.363 80.808,664.034 96.443,675.187C91.94,676.001 76.915,677.333 81.099,684.195C87.774,695.143 112.163,708.352 122.679,712.54C140.612,719.485 160.031,721.694 179.065,718.957C182.442,718.5 186.19,717.238 189.512,717.139C189.679,717.134 191.685,720.998 195.448,721.179C221.923,722.449 255.367,708.544 271.885,687.62C271.911,697.479 272.171,707.821 271.483,717.609C255.826,725.592 253.41,731.761 242.44,743.363C229.255,745.777 225.394,748.55 216.457,758.445C211.343,756.86 206.309,755.311 201.028,754.344C185.877,751.569 164.624,755.675 156.044,769.813C143.237,773.818 139.923,776.155 135.778,789.072C130.112,790.627 125.363,792.394 122.079,797.835C120.026,801.23 119.437,805.312 120.448,809.149C122.417,816.596 128.226,819.577 134.753,822.171C130.654,827.302 125.339,832.349 126.246,839.536C127.266,847.621 136.825,849.945 143.461,851.077C149.015,870.533 143.621,888.361 150.839,911.182C145.105,918.514 138.131,929.465 148.108,938.243C152.569,942.168 159.599,940.445 164.683,938.075C168,941.805 171.296,944.532 175.163,947.673C174.532,950.424 173.857,953.219 173.305,955.982C168.962,977.686 189.723,978.536 200.116,962.975C210.684,968.124 216.59,969.3 227.936,971.733C228.037,978.291 228.806,983.789 233.749,988.591C244.834,999.359 253.633,983.143 258.437,975.339C261.761,975.356 265.338,975.437 268.637,975.341C270.355,981.12 272.192,987.732 277.947,990.904C280.606,992.393 283.75,992.76 286.681,991.921C295.096,989.488 297.729,980.272 298.137,972.526C312.848,969.462 322.647,964.471 320.573,947.419C323.998,941.904 326.049,937.444 325.836,930.723C325.173,909.802 304.917,888.934 284.063,887.299C282.715,886.167 271.904,877.688 271.894,877.108C271.765,869.346 269.944,867.745 265.539,861.123L266.184,861.388C270.923,863.367 275.061,866.406 279.441,868.5C283.394,870.39 291.598,871.084 295.398,868.798C310.419,859.76 299.65,846.811 290.811,840.464C298.754,837.329 309.348,834.436 309.689,824.314C329.18,819.975 340.469,816.432 357.895,805.965C388.149,813.254 418.422,784.022 431.464,759.611C441.462,740.117 444.198,729.854 448.557,708.884C481.372,717.809 505.218,721.218 538.863,722.113C554.987,741.131 566.065,750.433 591.982,750.012C604.573,766.827 616.639,779.171 634.151,790.836C631.97,796.653 631.303,801.531 633.97,807.437C640.857,822.683 659.684,828.031 663.212,834.155C666.251,839.431 665.295,848.522 665.594,854.498C666.655,875.667 673.446,898.074 691.757,910.42C695.166,932.969 715.327,937.216 733.051,927.76C737.799,931.349 744.174,935.528 750.441,934.5C753.078,934.07 755.422,932.577 756.925,930.368C759.513,926.594 759.732,921.506 758.813,917.154C758.516,915.78 758.194,914.412 757.847,913.051C762.268,910.011 767.368,906.672 771.541,903.39C796.678,925.66 806.702,903.506 792.886,882.193C801.627,876.066 809.86,869.189 818.551,863.054C831.694,853.776 845.342,844.651 858.836,835.873C863.549,838.725 869.65,842.817 875.357,841.579C883.567,839.798 883.795,829.1 881.872,822.673C881.209,820.459 880.494,818.335 879.711,816.183C885.42,809.483 887.294,806.341 890.546,798.123C914.383,805.39 912.465,783.927 904.21,769.426C908.776,762.936 912.919,755.485 911.447,747.149C910.297,740.645 905.632,735.971 900.386,732.409C896.887,730.034 891.629,729.011 888.79,727.016C885.452,724.471 882.668,720.874 879.333,718.384C866.841,709.058 849.724,706.765 835.099,710.088C817.052,714.188 806.532,723.815 794.888,737.108C794.039,738.077 788.959,740.042 787.67,740.892C782.49,743.34 780.226,745.207 775.993,748.965C771.523,748.185 770.242,747.957 765.601,748.547C767.276,745.574 768.214,743.959 769.241,740.593C772.826,728.85 764.584,716.118 751.496,720.022C745.455,721.824 740.874,726.563 738.038,732.139C735.315,737.552 735.523,743.46 733.594,749.097C723.995,739.937 722.96,731.558 715.842,720.891C713.502,717.385 706.957,716.45 705.817,713.871C699.749,700.14 693.785,686.112 685.356,673.539C705.575,635.731 662.316,596.531 631.991,580.559C606.283,567.019 579.446,561.121 550.482,561.513C552.114,554.499 552.565,551.729 552.658,544.582C566.102,532.293 571.173,523.672 572.004,504.914C572.036,504.247 572.055,503.579 572.062,502.911C596.238,485.696 611.026,468.293 624.025,441.532C663.871,457.106 720.982,461.703 762.621,451.17C785.965,464.346 805.645,458.328 827.063,444.694C839.926,447.301 848.177,447.386 860.403,441.097C864.747,443.108 869.445,445.398 873.5,447.928C885.372,455.334 901.17,470.241 910.52,450.267C916.046,438.462 915.517,421.702 910.902,409.461C910.552,408.536 910.192,407.615 909.822,406.698C931.969,397.375 939.45,407.909 960.691,405.143C970.995,403.8 985.31,390.863 978.115,379.818C973.017,370.159 965.149,365.253 955.89,360.385C964.19,358.585 969.585,357.192 976.536,352.171C1000.44,334.9 984.021,320.513 962.405,316.107C999.506,277.453 960.596,272.605 927.256,275.64C887.954,279.217 848.995,308.584 824.5,338.372C809.506,333.188 791.936,328.566 776.352,334.704C766.26,332.524 717.465,324.974 711.935,319.844C712.586,317.118 717.016,311.928 718.984,309.503C728.952,297.222 731.396,281.952 727.698,266.684C732.653,259.764 738.574,249.616 729.073,242.457C724.035,238.661 716.098,237.605 710.266,235.453C699.297,232.026 688.086,228.709 677.121,225.414C668.217,222.739 652.274,219.77 644.728,215.696C649.072,210.958 655.256,204.821 654.614,197.902C653.299,183.736 630.514,162.141 619.883,153.221C617.325,151.087 614.675,149.065 611.94,147.162C621.649,128.484 622.17,107.729 615.97,87.756C611.848,74.475 594.133,33.226 578.951,32.859ZM136.217,831.893C137.279,833.543 139.274,840.128 139.188,842.133L138.024,842.809C132.194,839.462 132.72,836.989 136.217,831.893ZM183.042,953.267C186.299,955.222 189.523,957.232 192.713,959.296C191.445,960.791 190.025,962.213 188.663,963.628C178.897,968.501 181.517,958.401 183.042,953.267ZM237.697,972.881C241.744,973.347 245.796,973.775 249.852,974.162C248.684,976.166 247.082,978.152 245.673,980.02C239.241,986.869 235.998,979.676 237.697,972.881ZM284.608,974.293C287.049,974.044 286.988,973.641 288.763,974.584C290.472,978.847 286.499,983.707 281.762,983.346C278.282,981.088 277.677,978.893 275.858,975.128C278.754,974.821 281.704,974.569 284.608,974.293ZM848.512,803.958C856.903,805.439 864.66,821.162 853.906,820.807C844.549,817.603 835.212,811.238 848.512,803.958ZM131.914,798.397L132.456,799.244C132.365,801.518 132.34,808.637 131.557,810.269L130.443,810.109C126.95,804.965 127.569,802.746 131.914,798.397ZM154.819,920.342C156.276,921.946 158.553,928.246 159.289,930.512C158.032,931.614 157.227,931.538 155.445,931.972C147.899,930.555 151.832,924.009 154.819,920.342ZM891.15,769.311C896.144,772.132 904.393,783.822 900.61,789.346C899.187,790.356 898.02,790.037 896.219,789.933C886.303,785.268 878.913,776.817 891.15,769.311ZM236.394,849.212C241.608,848.95 251.8,846.966 253.863,852.68C253.696,853.488 253.71,854.249 253.15,854.682C249.332,857.637 235.061,857.74 229.885,858.107C226.35,858.714 213.226,861.797 212.493,856.458C216.572,849.642 229.206,849.633 236.394,849.212ZM213.693,829.113C223.568,828.444 232.502,830.468 241.117,835.193C244.422,836.658 249.522,840.024 253.115,840.551C263.066,842.01 274.137,840.588 283.192,845.901C286.155,847.64 291.888,852.601 292.777,856.292C292.052,858.159 291.869,857.826 289.996,859.275C281.588,861.461 274.145,850.544 265.947,847.91C259.242,845.756 255.832,848.111 249.702,847.412C243.344,846.156 237.868,842.12 231.789,839.892C226.626,838 213.747,837.734 211.945,831.975C212.328,830.105 212.185,830.705 213.693,829.113ZM743.397,909.843C748.127,909.951 753.825,920.544 749.662,924.577C747.865,925.267 747.494,925.033 745.638,924.591C735.812,920.621 733.461,915.46 743.397,909.843ZM853.89,730.72L854.248,731.225C836.031,740.653 823.595,754.168 810.51,769.255L810.181,769.108L810.056,768.289C815.97,755.756 825.604,743.213 837.528,735.747C842.524,732.619 848.128,731.52 853.89,730.72ZM688.314,311.824C691.436,312.907 695.052,313.752 698.287,314.585C695.574,319.625 693.929,321.603 689.981,325.75C688.071,327.631 686.57,329.506 684.862,331.559C686.241,325.372 686.777,318.671 688.314,311.824ZM496.313,631.986L496.685,632.394C496.496,633.109 496.255,634.069 495.958,634.742C487.77,653.308 474.98,676.674 455.726,685.168L455.392,684.851C455.397,684.833 467.534,670.813 468.853,669.089C478.135,656.958 487.91,644.745 496.313,631.986ZM787.831,751.891L788.682,752.212C788.621,754.087 785.914,762.333 785.339,765.105C783.8,772.527 782.933,779.042 776.005,783.147C774.205,780.468 774.336,778.697 774.964,775.604C777.117,765.001 778.572,758.02 787.831,751.891ZM617.797,310.666C623.55,312.869 628.391,314.135 634.417,315.312C633.231,318.866 631.55,321.831 629.618,325.003C628.044,327.292 626.802,328.499 624.905,330.493C620.013,323.705 618.432,318.934 617.797,310.666ZM784.886,886.376C788.375,888.878 793.665,898.514 790.124,902.673C788.374,903.352 787.282,902.796 785.432,902.288C781.513,900.264 779.592,898.033 776.647,894.863C778.836,890.158 780.674,888.91 784.886,886.376ZM767.664,758.465C769.377,758.432 771.211,758.35 772.428,759.516C772.394,763.242 767.222,767.245 765.164,771.866C762.332,778.224 762.997,782.806 758.792,788.144C756.958,788.538 755.756,787.928 754.659,786.466C752.082,777.805 760.388,763.4 767.664,758.465ZM253.271,881.592C257.638,881.236 261.794,881.179 261.266,886.983C259.111,889.778 251.231,890.381 247.572,891.788C241.938,893.955 236.795,897.241 231.71,900.354C229.274,901.946 225.778,902.481 224.861,899.052C226.435,891.289 245.86,883.073 253.271,881.592ZM252.792,421.638C253.697,421.488 253.437,421.56 254.413,421.82C255.739,425.732 250.669,430.213 247.443,431.771C241.323,426.828 246.995,422.352 252.792,421.638ZM233.439,758.549C233.79,758.987 232.129,770.588 232.047,773.004C231.7,783.257 233.554,792.69 239.235,801.378C241.411,804.706 247.033,812.974 244.516,816.792C243.098,817.123 241.984,816.32 240.582,815.655C228.808,808.997 222.414,779.743 225.319,767.312C226.499,762.259 229.451,760.92 233.439,758.549ZM247.103,863.151C251.879,862.769 261.543,864.454 260.81,870.9C258.173,873.452 251.064,871.32 246.535,872.285C239.529,873.778 234.203,876.293 227.773,879.191C223.836,881.266 222.283,882.673 218.007,881.96C217.562,881.611 216.85,881.254 216.861,880.762C217.075,871.154 241.094,864.032 247.103,863.151ZM868.499,815.682C872.157,816.829 876.333,827.46 873.578,831.545C871.771,832.289 872.433,832.099 870.196,831.599C866.961,830.115 864.801,828.443 862.159,826.151C864.111,821.949 865.699,819.304 868.499,815.682ZM148.201,783.355C148.561,783.703 148.877,784.162 148.871,784.698C148.764,793.641 148.255,802.592 149.488,811.487C150.457,818.738 152.202,825.864 154.691,832.743C156.38,837.503 160.234,847.199 160.911,851.641C162.623,866.81 162.989,880.924 165.89,895.97C174.202,939.085 213.027,951.919 252.078,954.293C266.106,955.146 281.154,954.816 295.299,952.744C299.566,952.12 305.3,949.812 309.29,952.317C311.184,956.148 305.91,958.959 303.112,960.181C294.825,962.675 282.531,964.134 273.583,964.493C242.842,965.728 203.126,959.032 179.79,937.844C164,923.508 157.961,900.763 156.656,880.249C156.211,873.26 156.011,859.112 154.368,853.151C150.103,837.683 142.195,825.011 141.859,808C141.691,799.478 141.967,790.099 148.201,783.355ZM286.836,903.81C292.414,905.11 299.706,912.115 302.476,917.131C306.4,924.238 306.529,929.364 304.539,936.906L303.971,937.772L303.312,937.872L303.038,935.736C301.634,924.7 294.677,911.649 286.836,903.81ZM754.037,749.419C750.866,753.796 744.503,762.375 742.303,767.003C745.842,763.232 752.681,755.865 758.641,758.906C759.916,762.432 751.741,766.869 749.535,769.314C744.848,774.51 745.397,788.994 738.825,792.217C737.046,792.121 737.842,792.4 736.381,791.273C734.842,786.733 739.722,772.726 741.312,767.267C735.389,774.292 729.76,780.543 721.287,784.581C712.417,788.809 702.477,788.135 698.597,777.841C697.011,773.745 697.157,769.181 699,765.194C701.054,760.717 705.009,757.419 709.653,755.916C720.135,752.525 728.599,756.447 737.688,760.957C740.689,756.692 741.623,754.577 743.177,749.618C744.456,742.65 745.517,735.677 751.813,731.289C754.365,729.51 758.414,728.896 759.939,732.241C762.574,738.022 757.179,744.953 754.037,749.419ZM715.645,761.582C711.837,762.341 708.783,763.074 706.351,766.495C704.829,768.593 704.27,771.239 704.813,773.773C706.539,781.828 713.695,779.926 719.021,777.322C724.872,773.79 727.923,771.171 732.986,766.52C726.792,763.643 722.606,761.348 715.645,761.582ZM273.06,416.01C273.576,416.244 273.576,416.426 273.989,416.966C274.381,420.354 273.646,421.493 272.026,424.562L277.535,427.337C280.01,423.805 281.383,421.148 285.56,420.364C290.833,421.882 286.5,428.825 285.03,431.791L291.996,435.943C294.19,433.049 296.218,429.605 300.191,429.675C304.167,432.391 300.024,437.959 298.176,440.826C323.469,456.488 339.201,463.438 367.211,471.836C355.138,472.275 349.261,472.012 337.878,468.225C322.274,462.597 309.038,454.051 294.312,446.815C292.534,449.746 290.63,454.087 288.336,456.275C287.688,456.405 287.271,456.695 286.803,456.252C282.518,452.204 285.099,446.532 287.502,442.576L281.668,438.991C280.411,442.42 278.224,448.497 273.708,448.287C269.234,445.173 272.44,438.784 273.982,434.777C271.391,433.071 269.816,432.24 267.074,430.845C264.916,433.63 260.664,439.739 256.637,437.725C254.91,434.239 259.281,429.263 261.224,426.577C258.563,424.6 257.462,423.784 255.124,421.395C258.977,420.243 260.553,420.931 263.558,420.282C265.42,419.879 270.126,416.947 273.06,416.01ZM311.231,342.484C321.265,346.754 339.728,367.934 346.303,377.515C360.797,398.636 378.014,436.588 373.27,462.22L372.741,462.24C371.805,456.584 371.308,452.019 370.048,446.26C363.168,415.011 348.943,385.849 328.55,361.192C322.727,354.159 316.934,348.955 311.231,342.484ZM550.561,195.087C560.772,194.655 565.067,198.8 571.691,205.758C558.78,206.134 552.247,213.912 558.818,226.128L562.017,230.156C561.569,230.049 561.123,229.936 560.678,229.817C554.078,228.044 547.835,224.68 544.567,218.388C540.061,209.712 541.135,199.666 550.561,195.087ZM885.258,739.08C892.99,738.389 896.763,741.792 901.072,747.729C868.914,749.408 844.452,781.76 825.18,804.39C812.001,819.864 800.137,833.992 785.376,848.213C779.589,853.874 773.355,859.059 766.733,863.717C744.973,878.844 726.393,885.488 711.426,910.724C710.015,913.428 709.276,915.603 708.239,918.464C700.705,912.782 701.04,905.729 705.911,898.1C714.905,884.011 730.468,876.45 743.63,867C754.142,859.452 764.966,851.785 774.677,843.199C788.621,829.907 802.116,814.819 813.822,799.514C825.135,784.722 835.286,770.365 849.656,758.247C860.207,749.349 871.606,742.146 885.258,739.08ZM696.908,792.905C699.022,794.431 700.348,795.983 702.135,797.864C694.199,808.78 684.488,818.93 675.999,830.51C675.209,830.48 675.023,830.328 674.243,830.07C672.457,828.374 671.899,826.43 670.919,824.125C675.449,817.577 691.576,798.492 696.908,792.905Z" style="fill:rgb(253,241,222);"  data-color="color-5"/>
    </g>
</svg>
