<?xml version="1.0" encoding="UTF-8" standalone="no"?>
<!DOCTYPE svg PUBLIC "-//W3C//DTD SVG 1.1//EN" "http://www.w3.org/Graphics/SVG/1.1/DTD/svg11.dtd">
<svg width="100%" height="100%" viewBox="0 0 755 955" version="1.1" xmlns="http://www.w3.org/2000/svg" xmlns:xlink="http://www.w3.org/1999/xlink" xml:space="preserve" xmlns:serif="http://www.serif.com/" style="fill-rule:evenodd;clip-rule:evenodd;stroke-linejoin:round;stroke-miterlimit:2;">
    <g transform="matrix(1,0,0,1,-31.2216,-35.1041)">
        <path d="M514.261,59.225C525.264,58.769 538.972,59.622 549.924,60.718C613.993,67.129 672.502,90.095 713.552,130.847C674.59,162.43 642.722,201.869 620.025,246.593C626.443,250.487 632.754,254.555 638.95,258.793C633.188,272.067 627.335,285.302 621.392,298.497C682.285,335.863 723.09,394.493 757.388,456.035C752.298,464.251 743.09,473.959 736.06,480.584C738.895,495.333 737.12,506.96 729.935,520.049C756.948,543.463 755.689,592.049 745.756,623.279C737.594,648.939 716.877,677.585 692.038,689.197C688.777,684.964 685.382,678.349 682.835,673.528C668.401,688.621 656.329,699.172 639.021,710.889C671.347,727.883 698.001,749.618 718.898,779.867C660.739,809.925 629.588,849.409 584.05,893.62C567.034,910.307 548.888,925.8 529.741,939.99C519.922,947.177 506.518,956.371 495.746,962.075C464.06,945.833 434.47,925.837 405.795,904.833C343.095,858.697 301.187,821.781 225.568,793.225C216.862,801.32 208.2,809.46 199.581,817.647C190.328,803.562 183.427,792.71 173.135,778.935C140.821,735.684 104.504,704.675 62.543,671.748C65.133,667.341 67.795,662.976 70.529,658.657C115.533,587.551 188.649,527.635 271.86,508.845C273.847,492.134 277.902,473.733 281.408,457.234C232.443,448.912 195.43,463.887 152.189,483.827C150.569,471.588 149.532,459.278 149.081,446.94C145.848,344.384 178.056,250.692 248.861,175.906C317.167,103.758 415.453,62.158 514.261,59.225Z" style="fill:rgb(22,46,47);"/>
        <path d="M425.737,434.175C424.012,430.451 422.696,427.746 420.656,424.203C474.428,394.412 519.871,377.345 580.443,365.498C601.234,361.431 622.172,358.818 642.988,355.121C671.317,383.515 695.079,416.257 716.961,449.748C713.335,451.73 709.727,453.742 706.136,455.784C687.427,430.795 669.495,409.087 650.507,384.928C652.004,391.852 653.568,398.893 654.968,405.832C658.923,425.439 666.212,443.912 671.687,462.98C672.863,465.465 673.859,469.694 674.617,472.502C631.507,450.887 577.174,439.641 529.064,438.195C496.68,437.221 459.037,442.87 428.003,452.144C428.042,444.563 427.698,441.502 425.737,434.175ZM343.895,467.18C343.814,447.841 354.311,427.609 376.007,427.688C382.947,427.66 389.578,430.54 394.308,435.619C402.67,444.598 403.671,459.555 399.244,470.578C395.645,482.406 383.581,494.398 370.76,495.068C363.981,495.405 357.36,492.943 352.446,488.259C346.615,482.675 344.053,475.085 343.895,467.18ZM486.803,296.236C530.91,295.455 566.464,312.273 600.081,339.105C526.975,343.783 456.256,366.958 394.56,406.455C390.923,405.514 387.706,404.704 383.989,404.239C349.953,399.514 325.668,430.93 323.322,461.386C321.537,484.556 327.136,501.041 345.542,513.541C346.106,513.925 345.563,515.202 345.401,515.944C339.296,530.929 324.651,557.199 310.975,565.645C297.577,573.919 277.999,574.609 262.846,571.144C296.909,544.581 304.77,518.563 309.031,477.106C313.814,430.569 327.355,389.06 359.672,354.224C393.471,317.791 437.367,298.265 486.803,296.236ZM276.774,724.777C279.992,725.816 288.579,730.318 291.857,732.099C306.927,740.288 322.589,749.51 337.063,758.771C388.263,791.535 435.797,815.428 495.904,827.336C497.947,857.605 499.179,878.837 491.227,909.071L481.258,902.966C471.016,897.103 460.093,889.032 450.206,882.413C422.431,863.819 396.467,842.868 369.523,823.225C333.455,796.775 294.806,774.039 254.165,755.364C261.399,744.948 268.939,734.748 276.774,724.777ZM626.119,757.78C630.678,758.605 646.94,771.719 651.38,775.599C644.714,783.484 631.979,795.893 624.312,803.771C593.373,835.915 560.454,866.092 525.748,894.126C520.375,898.175 515.076,902.32 509.854,906.561C516.907,881.463 520.38,855.394 522.145,829.44C567.531,807.799 589.576,793.356 626.119,757.78ZM362.614,518.931C370.123,520.321 375.349,520.248 382.86,519.297C380.909,529.51 378.396,538.841 376.756,549.443C368.77,601.061 370.64,644.198 395.561,690.675C390.201,687.45 385.723,684.118 380.817,680.328C363.48,667.347 342.262,644.176 328.957,627.106C342.448,598.768 360.082,550.4 362.614,518.931ZM488.012,249.221C505.136,248.194 523.993,251.171 540.838,253.748C539.91,260.904 537.383,271.307 535.752,278.446C519.296,273.594 502.214,271.199 485.058,271.338C429.491,271.903 381.813,297.188 343.509,336.172C332.305,347.682 324.478,357.651 315.002,370.441C323.727,349.934 337.649,329.756 352.816,313.472C389.134,274.483 434.652,251.474 488.012,249.221ZM560.8,256.761C575.211,260.009 589.582,263.432 603.91,267.028C601.235,275.182 598.559,283.793 595.526,291.782C595.457,291.837 595.403,291.92 595.319,291.946C593.122,292.632 558.904,283.499 554.178,282.262C556.474,273.785 558.681,265.284 560.8,256.761Z" style="fill:rgb(209,162,52);"/>
        <path d="M580.89,817.488L581.233,817.802C579.765,821.037 536.085,864.686 531.163,869.57L530.757,869.077C531.266,864.068 533.969,848.536 535.261,843.72C549.318,834.602 566.301,826.568 580.89,817.488ZM560.8,256.761C575.211,260.009 589.582,263.432 603.91,267.028C601.235,275.182 598.559,283.793 595.526,291.782C595.457,291.837 595.403,291.92 595.319,291.946C593.122,292.632 558.904,283.499 554.178,282.262C556.474,273.785 558.681,265.284 560.8,256.761Z" style="fill-opacity:0.4;"/>
        <path d="M425.737,434.175C424.012,430.451 422.696,427.746 420.656,424.203C474.428,394.412 519.871,377.345 580.443,365.498C601.234,361.431 622.172,358.818 642.988,355.121C671.317,383.515 695.079,416.257 716.961,449.748C713.335,451.73 709.727,453.742 706.136,455.784C687.427,430.795 669.495,409.087 650.507,384.928C652.004,391.852 653.568,398.893 654.968,405.832C658.923,425.439 666.212,443.912 671.687,462.98C671.163,463.24 671.497,463.149 670.647,462.995C655.412,439.512 642.647,399.587 637.734,371.901C632.848,372.701 627.886,373.244 622.855,373.899C561.858,381.85 501.233,399.502 444.993,424.32C439.092,426.925 431.063,430.739 425.737,434.175ZM343.895,467.18C343.814,447.841 354.311,427.609 376.007,427.688C382.947,427.66 389.578,430.54 394.308,435.619C402.67,444.598 403.671,459.555 399.244,470.578C398.538,469.505 397.441,466.142 397.085,464.83C393.426,451.336 384.501,437.388 368.11,442.176C356.523,445.56 349.595,457.027 343.895,467.18Z" style="fill:white;fill-opacity:0.43;"/>
        <path d="M513.385,35.241L513.415,35.24C525.437,34.753 540.372,35.642 552.314,36.837C622.157,43.826 685.711,69.39 730.461,113.815L749.437,132.653L728.665,149.491C697.926,174.409 671.92,204.569 651.821,238.521C652.047,238.675 652.273,238.829 652.499,238.984L668.856,250.171L660.965,268.349C657.862,275.498 654.733,282.636 651.577,289.762C706.532,329.204 745.466,385.342 778.352,444.351L785.222,456.678L777.79,468.675C773.716,475.25 767.493,482.684 761.307,489.249C761.816,498.471 760.754,507.002 758.004,515.566C765.64,526.316 770.745,539.025 773.546,552.688C778.894,578.787 775.682,608.373 768.627,630.554C758.618,662.021 732.662,696.699 702.202,710.939L691.337,716.018C709.285,730.074 725.047,746.543 738.644,766.226L754.146,788.666L729.917,801.188C674.084,830.044 644.518,868.358 600.833,910.776C583.035,928.228 564.056,944.431 543.974,959.314L543.916,959.357C533.256,967.159 518.672,977.092 506.977,983.285L495.926,989.137L484.798,983.433C451.983,966.612 421.31,945.947 391.592,924.179L391.571,924.164C334.715,882.328 295.67,848.039 230.853,821.129C225.925,825.754 221.01,830.393 216.11,835.048L195.289,854.825L179.522,830.824C170.555,817.175 163.882,806.649 153.909,793.3C122.919,751.821 87.969,722.207 47.727,690.629L31.222,677.677L41.851,659.588C44.575,654.954 47.375,650.363 50.25,645.821C95.616,574.143 167.848,513.392 250.457,489.576C251.066,486.033 251.725,482.466 252.414,478.904C220.357,479.325 193.147,491.369 162.239,505.621L132.669,519.257L128.397,486.976C126.677,473.983 125.576,460.915 125.095,447.756L125.093,447.696C121.653,338.585 156.102,238.972 231.433,159.406C304.017,82.739 408.39,38.4 513.385,35.241ZM514.261,59.225C415.453,62.158 317.167,103.758 248.861,175.906C178.056,250.692 145.848,344.384 149.081,446.94C149.532,459.278 150.569,471.588 152.189,483.827C195.43,463.887 232.443,448.912 281.408,457.234C277.902,473.733 273.847,492.134 271.86,508.845C188.649,527.635 115.533,587.551 70.529,658.657C67.795,662.976 65.133,667.341 62.543,671.748C104.504,704.675 140.821,735.684 173.135,778.935C183.427,792.71 190.328,803.562 199.581,817.647C208.2,809.46 216.862,801.32 225.568,793.225C301.187,821.781 343.095,858.697 405.795,904.833C434.47,925.837 464.06,945.833 495.746,962.075C506.518,956.371 519.922,947.177 529.741,939.99C548.888,925.8 567.034,910.307 584.05,893.62C629.588,849.409 660.739,809.925 718.898,779.867C698.001,749.618 671.347,727.883 639.021,710.889C656.329,699.172 668.401,688.621 682.835,673.528C685.382,678.349 688.777,684.964 692.038,689.197C716.877,677.585 737.594,648.939 745.756,623.279C755.689,592.049 756.948,543.463 729.935,520.049C737.12,506.96 738.895,495.333 736.06,480.584C743.09,473.959 752.298,464.251 757.388,456.035C723.09,394.493 682.285,335.863 621.392,298.497C627.335,285.302 633.188,272.067 638.95,258.793C632.754,254.555 626.443,250.487 620.025,246.593C642.722,201.869 674.59,162.43 713.552,130.847C672.502,90.095 613.993,67.129 549.924,60.718C538.972,59.622 525.264,58.769 514.261,59.225ZM525.891,494.845C530.997,497.669 538.786,503.249 543.703,506.589C540.618,511.149 538.113,515.847 539.192,521.602C539.959,525.493 542.268,528.906 545.593,531.066C549.189,533.447 553.613,534.228 557.807,533.222C563.41,531.897 566.687,528.555 569.591,523.917L578.068,529.2C576.404,531.199 574.797,532.629 572.911,534.4C551.262,551.929 519.998,544.83 516.654,514.103C515.879,506.979 520.938,499.733 525.891,494.845ZM524.269,614.157C537.873,612.394 556.751,621.462 569.441,626.851C561.065,629.227 550.707,631.272 542.078,633.141L532.987,634.949C531.297,631.082 529.636,627.203 528.001,623.312L525.659,632.412C520.876,630.78 508.654,628.385 506.463,624.948C505.99,619.074 519.574,614.79 524.269,614.157Z" style="fill:rgb(253,249,237);"/>
        <path d="M502.239,93.707C505.146,93.3 511.254,93.396 514.389,93.305C530.188,92.851 545.326,94.925 560.909,96.18C554.654,121.43 549.696,146.984 546.056,172.742C555.619,148.607 567.465,124.011 576.487,99.572C588.814,101.992 609.701,109.611 621.195,114.446C619.768,116.779 618.035,119.118 616.482,121.394C593.173,155.535 570.141,193.619 559.128,233.827C544.353,229.182 521.918,227.731 506.695,226.968C507.844,199.907 508.317,172.822 508.112,145.737C508.073,134.12 508.505,116.995 507.567,105.729C505.318,113.89 503.695,123.988 501.798,132.442C494.691,164.125 490.525,193.058 489.228,225.497C481.467,225.924 474.249,226.917 466.537,227.914C462.899,192.543 454.901,163.099 446.746,128.805C444.838,166.878 442.351,194.621 444.227,233.2C423.322,239.116 410.438,244.395 391.401,254.962C374.833,231.714 357.691,208.88 339.99,186.482C347.29,201.367 354.424,216.332 361.391,231.376C366.449,242.556 371.188,253.866 376.464,264.946C361.209,276.098 350.772,285.98 337.566,299.165C316.252,282.699 289.731,268.521 265.788,256.264C285.358,275.605 304.509,295.365 323.229,315.531L317.638,323.259C316.997,324.324 317.191,324.003 316.204,324.853C314.144,324.216 311.226,322.69 309.236,321.674C290.061,311.882 269.656,305.452 249.637,297.607C255.697,302.368 265.455,308.75 272.048,313.389C284.54,322.179 294.883,330.078 306.579,339.999C296.828,358.705 292.943,366.455 286.02,386.495C268.576,382.247 237.597,383.737 219.743,387.58C223.382,388.356 230.686,389.014 234.865,389.659C251.289,392.194 266.949,395.95 281.557,404.238C279.949,409.518 279.175,415.241 278.309,420.704C247.922,416.793 213.174,420.653 184.101,430.309C183.772,402.198 189.842,362.966 198.051,336.254C204.581,338.045 212.564,338.627 219.304,339.772C235.24,342.479 253.752,344.082 269.411,347.667C256.124,340.195 242.72,332.931 229.206,325.879C221.394,321.766 213.226,317.808 205.637,313.366C207.266,307.278 211.614,296.732 214.121,290.9C230.191,253.53 253.485,219.702 282.665,191.36C299.203,205.168 314.901,219.965 331.646,233.672C318.333,216.464 305.967,199.534 292.302,182.364C308.411,166.183 336.78,146.981 356.597,136.044C370.31,158.626 386.084,182.952 400.476,205.095C393.881,181.843 383.614,148.779 375.25,126.519C412.476,107.635 460.665,95.964 502.239,93.707ZM653.779,129.454C653.664,131.509 649.746,136.227 648.25,138.096C632.289,158.036 620.698,179.8 607.63,201.509C607.899,199.019 610.923,192.362 612.151,189.711C622.595,167.46 636.663,147.097 653.779,129.454Z" style="fill:rgb(162,58,55);"/>
        <path d="M515.864,460.59C551.216,463.859 588.549,468.421 604.657,505.012C606.755,497.404 608.572,489.212 605.126,481.806C628.697,487.613 645.166,495.253 665.185,508.608C654.12,508.306 649.304,510.218 640.5,516.958C641.428,516.768 642.36,516.605 643.297,516.47C662.781,513.643 688.886,517.511 704.917,529.558C732.585,550.46 730.486,591.486 719.754,620.783C715.177,633.276 708.537,643.405 700.562,653.829C677.413,609.395 637.431,610.922 594.503,618.285C574.535,608.76 547.103,593.335 525.532,593.341C511.62,593.309 498.262,598.793 488.385,608.592C475.581,621.487 472.969,634.611 472.981,651.932L481.079,640.01C480.73,643.107 480.423,646.241 481.14,649.264C486.843,673.289 511.818,660.316 525.762,657.024C558.604,649.272 589.735,638.828 623.447,637.686C640.808,637.098 654.308,637.904 668.925,647.479C664.817,657.52 661.573,661.945 655.247,670.525C642.93,662.556 621.678,660.545 607.435,662.006C595.642,663.215 584.157,669.476 573.902,675.036C578.749,673.856 583.671,673.339 588.623,672.817C603.541,671.55 616.746,672.995 630.727,678.389C619.842,692.667 596.309,706.313 579.471,712.747C545.473,725.737 503.029,722.78 470.078,707.852C442.302,695.267 421.894,673.524 411.14,644.927C393.068,596.87 409.102,525.511 430.018,480.251C445.765,475.039 468.452,472.147 484.757,469.45C472.39,475.594 467.578,483.055 461.99,495.363C472.387,486.405 482.379,482.934 495.918,485.438C494.446,487.549 493.096,489.742 491.875,492.008C480.596,513.256 488.959,539.332 510.469,550.228C494.995,546.512 487.892,543.198 474.553,534.382C480.166,542.631 484.629,548.629 492.328,555.045C513.647,572.812 544.067,573.067 567.941,560.341C576.417,555.822 581.671,550.382 588.235,543.559C597.15,543.357 605.67,539.839 612.13,533.691C619.909,526.325 621.853,518.749 622.069,508.473C619.007,512.735 609.161,524.063 603.139,520.852C595.648,516.859 587.771,510.604 580.675,505.758C559.081,491.014 538.045,474.373 515.864,460.59ZM431.041,606.879C417.935,634.953 421.25,646.493 445.21,666.883L449.426,670.377C440.454,655.032 433.736,641.305 431.448,623.231C430.982,619.545 431.456,608.769 431.041,606.879ZM671.717,539.092C667.259,539.985 662.532,543.841 663.015,548.581C663.373,552.095 670.367,552.455 672.872,552.933C681.112,554.504 687.496,560.323 692.685,566.561L696.465,572.785C693.091,560.312 687.158,540.341 671.717,539.092ZM460.242,664.301C469.478,695.479 494.332,697.7 522.098,689.598L525.666,688.063C506.838,687.657 486.037,684.369 470.096,673.543C466.538,671.128 463.076,666.26 460.242,664.301ZM324.54,672.329C343.067,691.175 360.88,705.619 383.177,719.448C387.482,723.636 391.278,729.194 395.335,733.553C413.587,753.163 432.679,767.533 459.205,774.886C441.93,763.123 433.088,751.289 424.66,732.371C458.284,751.612 484.525,761.852 523.952,761.388C535.073,760.583 543.994,759.495 554.896,756.616C548.205,765.49 539.922,773.041 530.469,778.886C483.445,808.281 427.853,780.163 385.346,755.423C357.765,739.37 330.681,716.339 313.647,689.071C316.947,683.573 320.969,677.721 324.54,672.329ZM142.913,618.868C160.676,624.85 178.358,631.073 195.952,637.536C181.89,654.104 167.115,676.658 156.092,695.263C155.083,696.838 153.79,699.328 152.838,701.023C138.034,686.369 121.665,673.809 107.308,660.015C116.653,647.07 131.935,630.391 142.913,618.868ZM223.028,665.094L253.239,676.908C238.979,700.618 221.132,726.363 205.452,749.031L202.224,753.373C195.019,746.539 186.336,736.605 179.025,729.201C191.257,706.681 207.043,685.074 223.028,665.094ZM252.392,542.576L252.631,542.714C251.416,546.442 215.734,572.34 210.763,575.536C216.782,581.751 228.095,590.084 235.07,596.17L214.874,616.369C207.462,613.875 199.961,611.653 192.386,609.706C183.02,606.686 169.45,603.671 159.942,601.673C188.808,574.086 215.063,556.564 252.392,542.576ZM277.043,604.13C281.336,605.085 289.396,606.041 293.954,606.733C284.194,621.639 275.366,638.349 266.666,653.971L260.549,651.624C254.717,649.295 246.71,646.328 241.272,643.598C251.93,632.355 266.092,613.997 277.043,604.13ZM710.413,490.036C711.841,492.907 709.145,503.955 708.204,507.325C704.244,505.193 701.491,503.9 697.34,502.159L691.288,500.553C696.456,496.688 704.502,493 710.413,490.036Z" style="fill:rgb(86,120,71);"/>
    </g>
</svg>
