<?xml version="1.0" encoding="UTF-8" standalone="no"?>
<!DOCTYPE svg PUBLIC "-//W3C//DTD SVG 1.1//EN" "http://www.w3.org/Graphics/SVG/1.1/DTD/svg11.dtd">
<svg width="100%" height="100%" viewBox="0 0 950 864" version="1.1" xmlns="http://www.w3.org/2000/svg" xmlns:xlink="http://www.w3.org/1999/xlink" xml:space="preserve" xmlns:serif="http://www.serif.com/" style="fill-rule:evenodd;clip-rule:evenodd;stroke-linejoin:round;stroke-miterlimit:2;">
    <g transform="matrix(1,0,0,1,-32.1946,-273.087)">
        <path d="M271.693,380.962C263.446,364.271 264.377,348.749 270.017,331.685C281.392,297.267 305.461,291.813 337.301,303.781C360.684,312.569 382.518,326.032 403.377,339.926L433.156,326.772C437.228,336.421 441.804,348.485 446.09,357.718C454.546,354.722 462.956,351.601 471.319,348.358C493.624,365.91 523.005,365.508 545.081,347.714C552.425,350.753 561.94,354.722 569.568,356.956C574.223,347.502 578.582,336.334 582.667,326.517L612.949,340.031C634.012,323.255 682.342,295.549 710.58,298.572C720.595,299.747 729.732,304.852 735.981,312.765C746.466,325.823 750.495,348.386 748.305,364.949C746.603,377.818 744.587,383.33 731.3,385.398C736.908,393.813 742.131,402.478 746.955,411.364C756.744,429.709 765.939,453.256 782.993,465.943C791.086,471.962 802.74,476.294 811.679,481.008C809.815,489.749 805.41,500.77 802.628,509.866C814.505,532.078 833.03,559.576 843.299,581.227C835.638,582.556 818.991,584.59 811.266,584.818C823.24,605.562 830.773,639.181 812.88,658.677C849.153,672.154 878.88,693.393 895.458,729.468C906.388,753.093 907.329,780.124 898.067,804.451C889.168,828.429 873.028,844.224 850.876,856.509C895.318,880.428 938.07,913.727 953.338,964.035C955.939,972.619 958.043,983.343 956.854,992.247C941.069,983.618 933.06,979.153 914.683,975.718C922.559,996.242 922.634,1012.52 917.084,1033.87C883.238,1009.1 855.659,983.752 813.474,970.187L806.663,976.774C828.68,992.194 843.056,1005.85 848.955,1034C853.057,1053.56 842.436,1071.59 832.155,1087.56C826.34,1081.09 820.776,1073.78 814.9,1067.61C798.705,1050.59 773.014,1032.05 751.185,1023.15C747.295,1030.15 743.466,1037.18 739.607,1044.21C730.452,1060.87 725.152,1078.98 719.071,1096.92C695.18,1079.59 679.906,1064.47 675.012,1033.62C674.472,1030.12 673.997,1026.62 673.588,1023.11C639.49,1034.67 624.537,1045.18 598.094,1069.34C590.882,1045.57 585.928,1027.9 598.561,1003.62C605.377,990.516 615.66,981.417 627.187,972.424C643.96,959.33 664.633,952.414 670.358,930.336C657.903,937.776 647.944,943.661 634.258,949.325C566.76,977.244 488.576,978.931 418.092,961.904C393.177,955.894 369.932,946.103 348.505,932.334C361.257,969.281 425.389,969.335 432.808,1025.35C434.694,1039.58 432.084,1053.74 425.923,1066.65C425.549,1067.43 425.147,1068.19 424.719,1068.95C419.102,1064.31 413.738,1059.02 408.018,1054.2C389.893,1038.94 372.547,1030.47 350.392,1022.86C346.752,1051.74 340.113,1069.63 316.233,1088.16C312.488,1091.1 308.649,1093.92 304.722,1096.61C301.7,1087.12 298.519,1076.16 294.784,1067.1C288.573,1052.03 280.027,1037.11 272.342,1022.64C237.793,1035.87 213.471,1059.68 191.293,1088.18C158.1,1053 170.4,1013.69 202.76,984.373C205.913,981.523 209.771,978.088 212.688,975.025C210.769,972.761 208.626,970.08 206.487,968.092C161.555,983.53 137.156,1004.68 100.229,1033.72C92.5,1011.4 95.657,997.085 100.98,975.185C83.676,977.617 72.798,984.018 57.195,991.999L57.195,981.63C64.319,937.767 95.662,901.13 130.439,875.075C139.423,868.346 151.89,861.641 161.853,856.083C135.992,841.025 121.695,824.477 113.657,795.08C106.742,769.788 111.882,742.288 124.92,719.798C142.087,690.186 169.115,671.475 200.399,658.745C185.807,635.073 190.264,608.076 203.162,584.998C193.124,584.062 181.332,583.246 171.508,581.77C185.187,557.595 199.228,533.628 213.627,509.875C210.384,500.679 207.3,489.971 203.867,481.129C213.663,476.398 224.067,471.71 232.741,465.102C249.823,452.088 257.204,430.85 267.202,412.637C272.155,403.615 278.411,393.563 284.615,385.309C278.997,384.393 276.512,383.925 271.693,380.962Z" style="fill:rgb(190,76,48);"/>
        <path d="M249.694,392.875L249.28,392.037C237.862,368.928 238.472,347.465 246.28,323.84C255.004,297.441 269.892,283.252 287.409,276.855C303.603,270.942 323.521,271.894 346.097,280.379C366.971,288.225 386.748,299.441 405.696,311.571L446.308,293.633L456.19,317.054C457.376,319.865 458.605,322.888 459.857,325.985C460.665,325.674 461.472,325.362 462.279,325.049L475.574,319.893L486.78,328.711C499.665,338.851 516.638,338.529 529.391,328.25L540.937,318.944L554.639,324.613C555.136,324.819 555.645,325.03 556.164,325.245C557.325,322.407 558.465,319.605 559.586,316.912L569.439,293.237C569.439,293.237 609.934,311.309 609.934,311.31C623.961,301.798 642.447,291.256 660.687,283.86C679.697,276.152 698.628,272.15 713.366,273.728L713.491,273.743C730.063,275.686 745.185,284.122 755.543,297.197C769.821,315.051 776.077,345.631 773.089,368.227C771.666,378.99 769.063,386.759 765.174,392.698C766.461,394.953 767.726,397.226 768.969,399.516L769.01,399.594C777.179,414.901 783.684,435.298 797.914,445.884C805.048,451.19 815.461,454.739 823.34,458.894L840.073,467.718L836.129,486.22C834.774,492.576 832.213,500.073 829.775,507.282C841.54,527.903 856.847,551.453 865.887,570.514L879.984,600.237L847.572,605.859C847.071,605.946 846.536,606.035 845.97,606.127C847.808,614.377 848.758,622.863 848.475,631.089C848.298,636.239 847.662,641.29 846.535,646.174C877.617,662.167 902.634,685.232 918.16,718.998C931.89,748.694 933.082,782.664 921.479,813.22C915.385,829.611 906.677,843.027 895.496,854.326C932.394,879.558 963.875,912.67 977.262,956.78L977.264,956.785C980.834,968.567 983.266,983.338 981.634,995.558L976.812,1031.65L945.776,1014.68C945.165,1022.75 943.637,1031.09 941.28,1040.16L932.019,1075.79L902.317,1054.05C892.513,1046.87 883.303,1039.59 874.088,1032.58C877.762,1057.35 866.261,1080.77 853.176,1101.1L835.448,1128.63L813.559,1104.27C807.904,1097.98 802.511,1090.85 796.793,1084.85L796.79,1084.84C787.472,1075.05 774.547,1064.64 761.38,1056.5C753.02,1071.8 748.327,1088.48 742.748,1104.94L731.857,1137.08L704.392,1117.16C680.296,1099.68 663.82,1083.6 655.157,1057.71C641.078,1065.02 630.192,1073.88 614.956,1087.8L585.681,1114.54L574.171,1076.6C564.893,1046.01 560.132,1023.31 576.383,992.081C576.398,992.053 576.412,992.025 576.427,991.997C534.525,999.553 490.995,999.613 448.957,993.359C453.119,1001.61 456.133,1011.06 457.592,1022.07C460.118,1041.13 456.739,1060.12 448.48,1077.43L448.475,1077.44C447.848,1078.75 447.174,1080.03 446.454,1081.3L431.743,1107.19L408.79,1088.22C403.116,1083.53 397.692,1078.19 391.912,1073.32C384.223,1066.85 376.678,1061.83 368.719,1057.62C362.506,1076.97 351.835,1092.17 331.654,1107.84C327.489,1111.1 323.218,1114.24 318.851,1117.23L291.105,1136.24L280.901,1104.19C278.079,1095.33 275.157,1085.09 271.669,1076.63C268.754,1069.55 265.282,1062.52 261.635,1055.55C241.544,1067.6 225.839,1084.49 211.022,1103.53L193.115,1126.54L173.108,1105.33C154.833,1085.96 147.155,1065.42 146.677,1045.48C146.537,1039.6 147.053,1033.73 148.185,1027.91C137.911,1035.61 127.498,1044.08 115.682,1053.37L88.088,1075.07L76.604,1041.9C72.908,1031.22 71.093,1022.02 70.636,1013.19C69.961,1013.55 69.276,1013.9 68.579,1014.26L32.195,1032.87L32.195,979.613L32.518,977.622C40.672,927.423 75.649,884.886 115.451,855.066L115.452,855.065C116.104,854.577 116.773,854.088 117.456,853.6C104.366,840.028 95.574,823.731 89.543,801.674C80.875,769.973 86.949,735.449 103.291,707.259C119.059,680.061 141.731,660.468 168.473,646.117C165.45,633.04 165.653,619.667 168.409,606.584C168.204,606.554 167.999,606.524 167.795,606.493L131.848,601.095L149.749,569.458C161.652,548.422 173.827,527.542 186.271,506.822C184.42,501.092 182.555,495.311 180.562,490.178L172.207,468.657L192.995,458.617C201.303,454.605 210.233,450.821 217.59,445.216C231.879,434.329 236.924,415.843 245.287,400.607C246.671,398.085 248.149,395.491 249.694,392.875ZM271.693,380.962C276.512,383.925 278.997,384.393 284.615,385.309C278.411,393.563 272.155,403.615 267.202,412.637C257.204,430.85 249.823,452.088 232.741,465.102C224.067,471.71 213.663,476.398 203.867,481.129C207.3,489.971 210.384,500.679 213.627,509.875C199.228,533.628 185.187,557.595 171.508,581.77C181.332,583.246 193.124,584.062 203.162,584.998C190.264,608.076 185.807,635.073 200.399,658.745C169.115,671.475 142.087,690.186 124.92,719.798C111.882,742.288 106.742,769.788 113.657,795.08C121.695,824.477 135.992,841.025 161.853,856.083C151.89,861.641 139.423,868.346 130.439,875.075C95.662,901.13 64.319,937.767 57.195,981.63L57.195,991.999C72.798,984.018 83.676,977.617 100.98,975.185C95.657,997.085 92.5,1011.4 100.229,1033.72C137.156,1004.68 161.555,983.53 206.487,968.092C208.626,970.08 210.769,972.761 212.688,975.025C209.771,978.088 205.913,981.523 202.76,984.373C170.4,1013.69 158.1,1053 191.293,1088.18C213.471,1059.68 237.793,1035.87 272.342,1022.64C280.027,1037.11 288.573,1052.03 294.784,1067.1C298.519,1076.16 301.7,1087.12 304.722,1096.61C308.649,1093.92 312.488,1091.1 316.233,1088.16C340.113,1069.63 346.752,1051.74 350.392,1022.86C372.547,1030.47 389.893,1038.94 408.018,1054.2C413.738,1059.02 419.102,1064.31 424.719,1068.95C425.147,1068.19 425.549,1067.43 425.923,1066.65C432.084,1053.74 434.694,1039.58 432.808,1025.35C425.389,969.335 361.257,969.281 348.505,932.334C369.932,946.103 393.177,955.894 418.092,961.904C488.576,978.931 566.76,977.244 634.258,949.325C647.944,943.661 657.903,937.776 670.358,930.336C664.633,952.414 643.96,959.33 627.187,972.424C615.66,981.417 605.377,990.516 598.561,1003.62C585.928,1027.9 590.882,1045.57 598.094,1069.34C624.537,1045.18 639.49,1034.67 673.588,1023.11C673.997,1026.62 674.472,1030.12 675.012,1033.62C679.906,1064.47 695.18,1079.59 719.071,1096.92C725.152,1078.98 730.452,1060.87 739.607,1044.21C743.466,1037.18 747.295,1030.15 751.185,1023.15C773.014,1032.05 798.705,1050.59 814.9,1067.61C820.776,1073.78 826.34,1081.09 832.155,1087.56C842.436,1071.59 853.057,1053.56 848.955,1034C843.056,1005.85 828.68,992.194 806.663,976.774L813.474,970.187C855.659,983.752 883.238,1009.1 917.084,1033.87C922.634,1012.52 922.559,996.242 914.683,975.718C933.06,979.153 941.069,983.618 956.854,992.247C958.043,983.343 955.939,972.619 953.338,964.035C938.07,913.727 895.318,880.428 850.876,856.509C873.028,844.224 889.168,828.429 898.067,804.451C907.329,780.124 906.388,753.093 895.458,729.468C878.88,693.393 849.153,672.154 812.88,658.677C830.773,639.181 823.24,605.562 811.266,584.818C818.991,584.59 835.638,582.556 843.299,581.227C833.03,559.576 814.505,532.078 802.628,509.866C805.41,500.77 809.815,489.749 811.679,481.008C802.74,476.294 791.086,471.962 782.993,465.943C765.939,453.256 756.744,429.709 746.955,411.364C742.131,402.478 736.908,393.813 731.3,385.398C744.587,383.33 746.603,377.818 748.305,364.949C750.495,348.386 746.466,325.823 735.981,312.765C729.732,304.852 720.595,299.747 710.58,298.572C682.342,295.549 634.012,323.255 612.949,340.031L582.667,326.517C578.582,336.334 574.223,347.502 569.568,356.956C561.94,354.722 552.425,350.753 545.081,347.714C523.005,365.508 493.624,365.91 471.319,348.358C462.956,351.601 454.546,354.722 446.09,357.718C441.804,348.485 437.228,336.421 433.156,326.772L403.377,339.926C382.518,326.032 360.684,312.569 337.301,303.781C305.461,291.813 281.392,297.267 270.017,331.685C264.377,348.749 263.446,364.271 271.693,380.962ZM222.855,675.93L224.642,675.801C229.793,678.48 236.304,688.104 239.554,693.144C233.322,702.059 230.367,706.537 225.961,716.387L228.119,724.756C221.996,735.516 210.566,748.763 203.187,759.712C192.013,776.292 184.916,790.771 175.74,808.171C165.555,801.907 158.412,796.977 150.262,788.204C148.856,786.66 147.501,785.068 146.203,783.432C132.15,765.561 138.434,742.614 152.125,726.676C157.541,720.372 163.402,716.031 169.962,710.994C171.153,716.597 171.308,720.077 171.65,725.785C185.751,721.947 196.084,718.239 209.659,713.165C202.86,704.098 199.312,697.806 195.255,687.394C201.913,683.444 215.214,678.856 222.855,675.93ZM789.347,675.836C799.268,677.371 813.648,681.96 821.963,687.621C831.925,694.404 825.934,711.619 819.808,719.218C831.586,724.255 838.901,725.584 851.422,727.402C854.288,724.037 856.519,721.813 859.667,718.774C876.68,741.713 887.198,769.912 863.252,792.308C855.276,798.982 848.802,802.477 839.854,807.637C829.908,787.25 818.174,767.782 806.635,748.27C803.553,743.058 800.211,737.994 797.632,732.505L801.659,722.617C795.163,710.649 786.256,700.913 776.85,691.245C780.067,685.19 784.613,680.692 789.347,675.836ZM168.243,882.914C171.073,885.479 185.249,919.559 187.877,925.25C191.277,932.627 194.887,939.906 198.704,947.079C168.628,954.261 149.565,964.647 126.01,984.187C134.59,963.502 144.874,943.573 156.756,924.584L167.04,908.534C143.114,917.881 114.637,941.158 91.713,956.196C109.826,922.977 136.341,902.666 168.243,882.914ZM846.164,883.135C852.003,885.887 861.995,892.483 867.299,896.274C891.756,913.762 910.248,929.36 923.765,956.374C915.637,950.71 907.275,945.321 899.441,939.258C883.805,927.158 867.165,915.707 848.03,909.874L856.31,921.335C871.74,942.436 880.539,957.404 890.109,981.39C867.047,964.568 846.093,953.435 818.295,947.328C833.343,924.779 840.866,909.555 846.164,883.135ZM617.17,371.202C644.371,352.757 669.117,330.849 703.904,325.453C715.063,333.033 717.65,340.873 720.359,353.585C701.387,351.051 696.965,352.627 682.255,364.378C668.132,375.659 658.429,386.655 646.866,400.339C632.22,417.671 618.19,439.188 596.193,447.474C580.579,453.324 568.494,448.919 554.33,442.368C565.158,463.359 581.844,470.975 604.27,462.841C616.206,473.85 631.369,489.543 648.094,491.19C693.192,495.631 718.963,447.7 690.426,412.237C677.795,419.925 661.913,431.118 649.255,439.457C651.761,444.338 662.976,460.22 663.396,463.996C662.035,465.412 658.683,465.794 656.723,465.702C646.596,465.225 637.34,456.64 630.546,449.84C627.187,451.975 624.06,453.449 620.51,455.183C643.588,432.556 671.4,405.384 697.021,385.726C711.967,400.362 721.559,416.107 724.16,437.193C730.705,490.244 670.551,531.252 623.894,504.72C618.041,501.392 612.775,496.743 607.585,492.483C615.569,507.374 624.485,517.57 640.945,523.304C677.89,536.175 720.829,513.78 736.862,479.36C739.764,473.127 741.305,467.219 743.578,460.868C756.952,477.54 759.799,481.917 778.392,493.218C771.885,498.109 763.636,506.791 758.396,512.958C771.626,526.087 783.42,540.585 793.58,556.209C783.751,557.792 773.243,558.65 763.314,559.386C775.067,578.358 792.155,596.222 792.582,621.211C793.223,658.866 750.534,675.987 720.309,685.998C686.857,697.079 651.906,702.64 616.064,703.393C639.91,712.301 651.845,713.646 657.76,741.984C664.522,734.551 670.87,722.908 675.904,714.063C696.875,714.174 717.782,711.726 738.16,706.775C746.25,712.324 765.298,729.891 770.589,737.776C764.726,750.997 751.053,768.922 743.08,782.016C752.819,783.782 762.8,785.461 772.425,787.698C779.17,782.883 783.591,779.125 788.478,772.333C800.922,782.751 810.376,804.308 816.115,819.145C806.7,824.219 801.905,826.695 794.55,834.666C808.893,845.464 812.666,849.475 824.348,862.789C821.751,874.64 817.347,887.45 813.569,899.044C795.227,875.448 784.619,865.181 752.901,865.656C755.637,873.211 769.443,896.398 774.328,906.101C765.86,906.669 756.705,908.001 748.349,909.421C753.43,920.065 757.55,929.955 762.055,940.838C770.733,938.708 779.452,936.568 788.225,934.855C791.202,934.278 792.899,934.251 794.44,936.959C795.145,950.532 766.104,971.962 776.26,981.088C789.349,992.842 805.779,1002.57 815.695,1018.23C819.227,1023.81 826.352,1036.63 825.04,1043.26C823.27,1043.67 821.315,1041.91 819.833,1040.69C796.96,1021.91 770.4,1002.95 742.982,991.821C733.917,1004.68 725.117,1021.06 718.4,1035.27C714.986,1042.48 712.353,1049.82 708.704,1057.18C693.196,1038.84 694.131,1012.59 698.592,990.445C667.136,992.593 643.538,1008.34 617.278,1024C635.514,990.578 673.654,968.278 706.589,950.967C712.481,947.869 725.941,950.08 728.174,947.727C729.401,938.264 707.155,931.482 699.951,929.094C706.551,897.171 723.134,870.672 744.899,846.801C750.753,840.38 756.787,835.067 762.582,828.841C753.14,828.825 748.402,830.388 739.777,833.645C727.634,819.353 713.094,793.762 701.544,782.698C703.326,804.235 703.843,812.739 710.675,832.793C687.971,825.9 679.657,808.115 667.812,788.939C669.195,811.403 672.713,828.658 690.425,844.851C693.089,847.061 697.164,849.594 700.128,851.56C696.879,857.038 691.174,863.232 686.834,867.937C670.411,885.763 654.533,898.112 632.529,908.507C562.974,941.389 478.898,943.164 406.615,918.174C370.307,905.622 335.886,885.426 318.769,849.898C321.097,848.412 323.348,846.807 325.511,845.089C342.769,831.15 347.36,810.553 349.691,789.771C337.241,810.767 332.286,823.434 308.901,833.45C314.151,822.154 321.672,795.576 324.508,782.862C306.474,800.543 298.042,815.894 282.47,834.895C278.157,832.506 267.732,826.916 263.102,829.981C263.103,832.585 279.675,848.107 282.974,851.867C303.677,875.457 313.598,901.76 323.137,930.922C309.583,934.251 302.783,934.589 296.795,948.153C320.978,949.103 325.682,956.258 344.532,968.988C368.687,985.296 391.38,998.266 407.708,1023.38C377.922,1007.83 358.041,995.274 324.234,990.339C324.79,993.561 325.309,996.792 325.79,1000.03C328.788,1020.69 328.146,1039.71 315.069,1057.19C307.901,1034.97 293.281,1011.01 280.522,991.262C248.239,1004.21 222.477,1023.3 197.319,1046.63C201.447,1019.53 213.696,1006.68 233.653,989.753C238.13,985.953 245.778,979.544 249.384,975.256L249.941,974.581C244.069,965.438 229.022,947.772 226.704,936.151C226.44,934.828 227.702,933.825 228.604,933.159C236.661,931.783 250.929,940.901 257.722,945.082C261.706,927.904 262.96,919.639 268.725,902.506C261.432,903.154 255.894,904.281 248.74,905.773C251.17,897.925 263.388,870.139 263.79,865.683C261.671,864.573 256.085,865.576 253.733,866.126C232.742,871.027 220.417,883.082 209.518,900.5C205.019,891.995 197.991,875.803 194.639,866.97L205.457,867.254C209.009,854.363 212.667,840.621 217.017,828.04C208.214,827.408 201.52,826.798 192.762,827.889C201.579,808.606 206.508,800.894 218.071,783.491C223.163,788.192 228.191,793.736 232.969,798.818C249.378,781.34 265.79,764.944 278.305,744.319C262.611,746.333 252.111,747.382 237.116,751.983C246.096,737.664 264.052,718.943 276.011,706.545C299.106,712.637 316.356,713.383 339.936,714.243C345.482,720.684 352.633,733.481 356.969,740.915C362.604,717.143 379.06,711.448 399.367,703.897C350.078,702.117 286.837,691.003 245.569,661.89C204.28,632.764 227.617,590.794 252.06,559.382C242.037,558.602 232.045,557.471 222.101,555.99C234.255,538.082 241.877,528.894 256.358,513.109C252.284,507.831 242.309,498.505 237.016,492.83C254.152,483.903 259.873,475.046 271.578,460.742C272.788,464.992 274.066,469.198 275.5,473.379C293.814,526.825 379.14,552.378 407.555,492.26C404.291,495.189 401.126,498.096 397.588,500.557C340.665,540.164 268.206,477.699 296.703,414.871C302.574,401.93 307.631,395.745 317.301,386.121C340.829,403.355 375.246,433.236 394.741,454.951C391.633,453.784 388.569,452.018 385.635,450.431C377.187,457.813 364.189,469.633 352.079,464.481C351.887,461.466 363.365,444.448 365.867,439.982C356.046,432.08 336.087,419.685 324.844,412.072C297.947,445.059 318.813,490.505 361.278,491.672C381.722,492.234 397.37,475.791 410.926,462.439C433.611,472.28 449.676,461.5 461.296,442.3C452.452,446.467 444.703,449.742 434.695,450.03C425.75,450.287 414.752,446.945 407.465,441.68C382.864,423.901 365.603,393.87 343.653,372.582C335.656,364.827 323.409,354.873 312.324,353.123C309.191,352.628 298.898,352.955 295.249,353.027C296.939,340.922 299.1,332.733 309.791,325.671C323.327,325.102 356.064,342.203 367.174,349.708C376.735,356.166 388.269,364.66 398.059,371.43C404.969,367.977 411.734,364.529 418.843,361.483C423.633,369.905 428.669,381.176 432.929,390.073C443.601,385.512 455.824,380.157 466.868,376.98C474.325,380.089 481.509,383.012 488.81,386.56C493.574,388.526 505.177,399.429 510.488,395.97C522.766,387.974 535.095,382.967 548.377,376.966C558.555,379.903 572.682,385.943 582.702,389.944C587.479,380.502 592.174,371.017 596.787,361.492C602.9,363.828 611.124,368.196 617.17,371.202ZM552.38,493.648C532.275,498.437 540.668,520.987 550.851,510.35C556.949,504.44 559.29,502.354 567.55,499.587C562.292,495.777 559.107,493.679 552.38,493.648ZM493.794,604.288C462.884,606.694 426.129,614.86 400.786,633.698C444.294,625.165 477.81,621.81 522.371,622.609C553.186,623.227 583.861,626.936 613.934,633.681C580.341,608.044 535.065,600.874 493.794,604.288ZM405.723,742.392C440.036,771.728 479.13,784.524 524.291,781.222C553.108,779.116 573.831,771.28 597.28,754.612C602.583,750.769 607.312,747.29 611.858,742.491C558.508,753.3 523.98,762.212 467.742,753.893C446.869,750.805 425.501,745.455 405.723,742.392ZM505.081,555.712C416.287,558.456 345.756,583.515 272.629,632.819C274.665,606.469 288.175,582.589 301.863,560.512C276.475,573.767 241.703,614.191 255.823,645.891C261.373,658.353 279.108,661.733 289.784,654.296C302.791,646.118 314.437,635.847 327.831,628.185C384.102,594.261 446.617,577.239 512.399,577.574C529.657,578.16 546.005,579.002 563.208,581.66C611.341,589.095 656.484,607.261 697.374,633.487C706.578,639.39 721.096,652.313 730.055,656.107C735.011,658.192 740.525,658.552 745.71,657.131C749.031,656.203 752.085,654.502 754.62,652.165C763.82,643.656 764.22,629.475 760.763,618.244C753.747,595.449 734.358,570.094 712.078,560.553C725.399,580.36 741.025,608.4 742.707,632.688C673.548,582.723 590.409,555.791 505.081,555.712ZM457.576,493.632C453.195,495.558 451.338,496.674 447.823,500.024C460.752,504.337 458.933,505.898 467.8,513.106C482.843,514.299 476.52,492.591 458.549,493.568C458.225,493.586 457.9,493.607 457.576,493.632Z" style="fill:white;"/>
    </g>
</svg>
