<svg width="100%" height="100%" viewBox="0 0 949 925" version="1.1" xmlns="http://www.w3.org/2000/svg" xmlns:xlink="http://www.w3.org/1999/xlink" xml:space="preserve" xmlns:serif="http://www.serif.com/" style="fill-rule:evenodd;clip-rule:evenodd;stroke-linejoin:round;stroke-miterlimit:2;">
    <g transform="matrix(1,0,0,1,-22.5735,-8.70036)">
        <path d="M482.893,21.752C487.763,24.524 490.497,29.738 497.731,31.405C505.758,33.254 514.155,33.562 522.207,32.37C557.158,27.197 593.613,15.589 627.163,33.563C644.455,42.525 657.41,54.804 663.609,73.946C679.27,77.769 693.345,85.205 700.805,100.229C704.624,107.918 704.23,115.11 703.384,123.381C791.379,132.642 882.865,162.908 960.387,205.031L960.363,436.822C928.715,437.511 896.57,436.406 864.868,436.863C852.618,437.04 839.307,437.211 827.096,436.779C814.1,404.305 788.772,385.254 758.432,370.432C736.508,359.722 714.68,352.079 691.126,345.934C683.778,351.522 676.511,346.805 669.841,343.583C668.07,342.728 663.289,341.893 661.242,341.697C632.871,338.991 604.301,339.547 576.061,342.921C577.721,348.426 582.894,361.222 586.095,365.519C589.155,369.626 600.327,376.666 604.817,380.206C613.683,387.198 624.372,394.579 632.551,402.336C650.388,394.222 665.332,380.995 684.999,376.586C710.21,370.934 747.39,385.096 756.479,410.929C757.868,414.876 758.982,419.921 760.704,423.611C764.013,430.701 769.141,437.333 773.522,443.797C780.016,452.589 788.05,460.972 795.417,468.951C804.185,478.446 814.087,485.216 819.193,497.287C824.93,510.848 822.014,521.887 823.031,535.152C823.186,537.163 828.308,552.282 829.052,556.33C835.372,590.676 830.574,613.668 812.088,642.29C789.769,646.333 762.457,633.532 747.484,617.263C721.129,588.628 717.224,562.783 746.407,535.057C739.709,523.916 733.555,515.946 724.4,506.749C721.231,527.442 709.394,527.786 703.572,541.5C698.143,554.283 695.829,582.943 693.636,597.297C691.617,610.504 689.208,618.566 679.486,628.491C676.536,631.502 671.293,636.564 669.428,640.32C666.066,647.092 663.307,654.457 660.079,661.421C650.712,681.629 634.653,703.941 616.715,717.404C589.703,714.789 571.67,699.632 562.508,674.108C555.39,654.032 556.548,631.95 565.725,612.728C574.224,594.885 590.044,578.414 608.886,571.657C611.474,559.625 613.988,549.481 620.726,539.041L616.51,534.224C602.441,560.816 583.851,584.366 557.227,599.312C548.675,615.988 539.981,632.605 527.435,646.68C509.275,667.053 489.205,685.159 468.169,702.467C464.194,705.709 459.94,708.923 455.88,712.083C518.938,730.593 617.822,730.829 681.903,716.142C747.471,701.114 800.296,672.901 836.701,615.19L960.363,615.219L960.366,725.753C960.37,745.791 961.583,768.93 959.442,788.67C958.667,795.821 957.143,803.483 953.521,809.792C948.192,819.075 938.443,826.81 929.925,833.009C890.884,861.419 842.946,878.6 796.799,891.401C622.009,939.887 388.759,938.089 228.024,846.984C154.944,805.563 97.444,745.006 63.973,667.586C57.069,652.026 51.307,635.984 46.734,619.587C19.458,523.033 31.906,419.582 81.306,332.254C126.873,252.298 199.117,195.25 283.782,160.842C297.545,155.227 311.544,150.208 325.74,145.8C330.178,144.425 351.16,139.181 353.138,137.658C359.565,132.705 368.147,122.937 375.71,116.755C405.173,92.671 433.689,79.173 470.136,69.205C468.522,50.612 471.646,36.755 482.893,21.752ZM669.031,90.784C670.545,99.397 670.876,107.484 669.074,116.147C671.618,117.944 677.588,122.8 680.617,123.389C681.151,123.493 682.94,122.416 683.531,122.062C690.449,108.661 680.773,96.628 669.031,90.784ZM494.359,89.713C424.979,95.084 377.644,149.402 343.608,204.616C323.415,237.373 305.275,265.258 269.832,283.228C280.455,282.452 287.046,281.621 297.373,278.585C326.889,269.006 347.654,248.081 365.756,223.674C376.882,208.672 385.631,192.358 396.646,177.169C420.085,144.848 450.253,115.05 488.051,100.338C503.242,94.383 510.404,94.419 524.709,91.575C515.953,90.274 503.145,88.53 494.359,89.713ZM575.12,43.19L574.279,43.283C566.654,44.165 553.711,47.284 545.775,48.92C527.03,52.785 515.627,52.678 497.033,51.823C514.225,63.925 534.603,70.347 555.233,65.891C578.187,60.932 588.677,61.041 610.193,73.265C628.793,84.213 639.307,95.134 650.819,113.021C651.905,108.686 653.83,97.519 653.05,93.13C647.463,61.7 613.521,42.205 583.326,42.812C580.901,42.861 577.43,42.784 575.12,43.19ZM325.573,175.993L326.106,176.117L326.367,176.698C314.109,203.764 299.403,238.761 275.586,256.918C256.525,271.45 231.776,277.294 208.161,274.32C224.657,299.387 241.26,311.049 271.333,314.624C268.398,347.538 250.62,370.847 216.396,372.697L217.45,373.992C237.209,398.092 262.491,408.099 293.164,411.129C273.59,451.863 266.354,488.779 270.032,534.013C274.905,593.949 302.465,650.346 348.747,689.231C424.185,752.612 537.838,763.033 632.424,755.115C696.498,749.751 766.328,729.475 815.619,686.879C829.88,674.555 837.949,665.535 850.036,651.106L921.971,651.128C921.169,680.469 922.317,712.255 921.922,741.688C921.269,790.346 928.265,789.486 886.217,815.72C863.799,828.569 840.266,839.367 815.906,847.985C778.603,861.013 740.255,870.826 701.28,877.317C689.014,879.324 676.392,880.669 664.055,882.319C637.646,885.852 611.321,888.49 584.684,889.593C550.83,890.799 516.934,889.951 483.183,887.053C404.609,880.588 339.366,867.279 266.807,833.769C179.522,793.459 113.902,724.824 81.439,633.521C50.361,547.033 55.228,451.698 94.952,368.824C141.978,269.997 224.688,211.741 325.573,175.993ZM707.534,153.292C729.373,156.941 749.209,160.054 771.001,164.954C823.25,176.902 873.905,194.981 921.912,218.816C921.972,278.347 922.503,338.98 921.814,398.42L876.25,398.436L839.179,398.467C819.764,370.584 796.977,354.19 766.223,340.06C755.062,334.932 743.92,331.356 732.58,326.995C736.185,324.237 738.97,321.848 742.375,318.829C760.079,318.983 746.665,305.197 750.065,295.23C753.896,283.998 770.72,276.231 774.897,267.726C776.411,264.643 776.587,261.073 775.385,257.854C771.58,247.661 761.142,243.191 752.143,238.861C750.65,236.737 722.364,193.011 722.203,192.12C718.941,174.067 718.195,170.282 707.534,153.292ZM578.994,264.695C594.779,276.624 598.672,275.996 616.674,281.826C633.097,287.144 648.939,297.876 659.597,311.631C656.179,311.069 652.355,310.736 648.878,310.362C625.831,307.586 593.023,309.105 570.128,312.246C570.253,294.518 572.503,281.272 578.994,264.695Z" style="fill:rgb(6,0,43);" data-color="color-2"/>
        <path d="M731.736,188.641C729.917,178.612 728.757,172.762 726.209,166.542C740.329,168.927 754.112,171.407 768.789,174.706C818.257,186.02 866.274,202.911 911.92,225.052C912.002,279.239 912.426,334.272 911.918,388.423L876.244,388.436L844.311,388.463C824.48,361.583 801.272,345.158 770.398,330.973C765.633,328.784 760.873,326.87 756.101,325.058C756.609,324.666 757.063,324.262 757.469,323.857C760.113,321.219 761.505,317.946 761.734,314.045C761.897,311.257 761.272,307.881 760.419,304.322C759.954,302.378 758.895,300.319 759.53,298.458C761.304,293.257 767.179,289.471 771.898,285.494C777.183,281.042 781.707,276.544 783.873,272.134C786.6,266.582 786.917,260.153 784.753,254.356C780.357,242.581 769.462,236.22 758.961,231.056C753.794,223.173 736.099,195.778 731.736,188.641ZM630.405,299.059C614.128,298.579 596.133,299.392 580.589,300.948C581.159,293.817 582.294,287.239 584.216,280.406C593.233,285.756 599.243,286.693 613.593,291.34C619.36,293.207 625.049,295.823 630.405,299.059ZM188.667,262.888L199.808,279.817C216.221,304.759 232.782,317.69 260.032,322.989C255.378,345.633 241.161,361.344 215.856,362.712L196.238,363.772L209.705,380.318C228.257,402.945 251.166,414.362 278.506,419.215C262.388,456.884 256.61,492.332 260.065,534.823C265.154,597.413 293.983,656.281 342.314,696.887C419.721,761.923 536.203,773.205 633.258,765.08C699.359,759.547 771.308,738.388 822.158,694.445C835.665,682.773 843.803,673.982 854.69,661.107C854.69,661.107 911.769,661.125 911.769,661.125C911.416,687.561 912.273,715.48 911.923,741.554C911.729,756.009 912.226,766.051 911.879,773.728C911.633,779.175 911.1,783.026 908.595,786.57C904.342,792.588 896.084,797.777 881.083,807.136C859.242,819.642 836.317,830.155 812.59,838.551C775.836,851.386 738.053,861.054 699.652,867.45C687.485,869.441 674.966,870.771 662.729,872.407C636.633,875.898 610.62,878.509 584.298,879.6C550.858,880.79 517.377,879.952 484.038,877.09L484.021,877.088C406.659,870.723 342.423,857.676 271,824.69C186.196,785.526 122.401,718.879 90.861,630.171L90.855,630.155C60.676,546.169 65.401,453.608 103.969,373.146L103.975,373.134C125.254,328.416 154.066,292.27 188.667,262.888ZM189.801,261.929C224.095,233.06 264.017,210.769 307.887,193.316C298.157,214.255 286.365,236.126 269.523,248.965C252.535,261.917 230.458,267.049 209.41,264.398L189.801,261.929ZM494.359,89.713C503.145,88.53 515.953,90.274 524.709,91.575C510.404,94.419 503.242,94.383 488.051,100.338C450.253,115.05 420.085,144.848 396.646,177.169C385.631,192.358 376.882,208.672 365.756,223.674C347.653,248.081 326.889,269.006 297.373,278.585C287.046,281.621 280.455,282.452 269.832,283.228C305.275,265.258 323.415,237.373 343.608,204.616C377.644,149.402 424.979,95.084 494.359,89.713ZM575.12,43.19C577.43,42.784 580.901,42.861 583.326,42.812C613.521,42.205 647.462,61.701 653.05,93.13C653.83,97.519 651.905,108.686 650.819,113.021C639.307,95.134 628.793,84.213 610.193,73.265C588.677,61.041 578.187,60.932 555.233,65.891C534.603,70.347 514.225,63.925 497.033,51.823C515.627,52.678 527.03,52.785 545.775,48.92C553.711,47.284 566.654,44.165 574.279,43.283L575.12,43.19ZM669.031,90.784C680.773,96.628 690.449,108.661 683.531,122.062C682.94,122.416 681.151,123.493 680.617,123.389C677.588,122.8 671.618,117.944 669.074,116.147C670.876,107.484 670.545,99.397 669.031,90.784Z" style="fill:rgb(146,0,0);" data-color="color-1"/>
        <path d="M347.903,129.049C354.16,123.968 362.224,114.862 369.381,109.012C397.879,85.718 425.509,71.921 459.737,61.769C459.481,44.498 463.741,30.629 474.892,15.754L480.179,8.7L487.84,13.061C490.403,14.52 492.571,16.423 494.794,18.405C496.193,19.654 497.578,21.108 499.976,21.66C506.786,23.229 513.911,23.489 520.743,22.478C538.457,19.856 556.558,15.633 574.476,14.313C593.999,12.875 613.297,14.808 631.798,24.702C649.876,34.078 663.642,46.773 671.239,65.662C687.601,70.602 701.767,79.682 709.761,95.781C712.908,102.117 713.912,108.16 713.922,114.513C800.252,125.018 889.301,155.024 965.161,196.244L970.388,199.084L970.362,446.607L960.581,446.82C928.908,447.509 896.739,446.405 865.012,446.862C852.601,447.041 839.114,447.21 826.742,446.773L820.232,446.542L817.812,440.494C805.793,410.463 782.101,393.124 754.043,379.417C733.975,369.614 713.986,362.463 692.606,356.674C687.625,358.973 682.687,358.972 677.826,357.769C673.688,356.745 669.599,354.58 665.748,352.711C665.271,352.605 661.478,351.765 660.289,351.652C636.878,349.419 613.328,349.468 589.952,351.531C591.387,354.852 592.9,357.915 594.114,359.545C596.841,363.204 607.008,369.199 611.009,372.354C618.306,378.109 626.793,384.139 634.196,390.408C650.231,382.084 664.616,370.907 682.811,366.828C700.168,362.937 722.506,367.033 739.823,377.493C751.936,384.81 761.535,395.169 765.912,407.61C767.199,411.267 768.17,415.963 769.766,419.382C772.826,425.938 777.616,432.033 781.682,438.013C787.943,446.46 795.683,454.497 802.764,462.167C812.341,472.538 822.826,480.206 828.403,493.391C834.549,507.92 831.961,519.733 832.962,533.857C833.326,535.035 838.226,550.924 838.887,554.522C842.448,573.875 842.751,589.903 839.408,605.191L970.363,605.221L970.366,725.751C970.37,746.133 971.561,769.669 969.384,789.748C968.464,798.235 966.492,807.283 962.194,814.771C956.194,825.222 945.4,834.115 935.809,841.095C895.811,870.201 846.75,887.922 799.472,901.037C622.337,950.174 385.985,948.011 223.093,855.684C148.115,813.187 89.162,751.021 54.812,671.597C47.723,655.613 41.805,639.134 37.106,622.291C9.111,523.173 21.89,416.977 72.61,327.316L72.618,327.303C119.308,245.376 193.26,186.837 280.011,151.58C294.038,145.858 308.306,140.742 322.778,136.249L322.781,136.248C326.357,135.14 345.064,129.851 347.903,129.049ZM792.929,652.124C772.961,648.967 752.688,637.684 740.126,624.035C725.022,607.624 716.843,591.761 716.129,576.28C715.482,562.236 720.726,548.073 733.737,533.713C731.933,531.004 730.11,528.47 728.186,526.008C726.387,528.928 724.373,531.328 722.301,533.555C718.973,537.131 715.15,539.819 712.776,545.409C707.585,557.632 705.618,585.082 703.521,598.808C701.141,614.378 698.091,623.788 686.629,635.489C684.271,637.896 679.876,641.765 678.385,644.767C675.062,651.461 672.342,658.743 669.152,665.626C661.556,682.013 649.796,699.658 636.189,713.503C651.762,711.8 666.471,709.42 679.669,706.395C723.811,696.278 762.009,680.05 792.929,652.124ZM582.699,716.625C569.223,708.12 559.35,694.91 553.089,677.468L553.083,677.45C548.212,663.71 546.787,649.136 548.743,634.959C544.587,641.384 540.047,647.56 534.9,653.334C517.394,672.973 498.157,690.555 477.969,707.339C509.162,714.036 546.303,717.022 582.699,716.625ZM482.893,21.752C471.646,36.755 468.522,50.612 470.136,69.205C433.689,79.173 405.173,92.671 375.71,116.755C368.147,122.937 359.565,132.705 353.138,137.658C351.16,139.181 330.178,144.425 325.74,145.8C311.544,150.208 297.545,155.227 283.782,160.842C199.117,195.25 126.873,252.298 81.306,332.254C31.906,419.582 19.458,523.033 46.734,619.587C51.307,635.984 57.069,652.026 63.973,667.586C97.444,745.006 154.944,805.563 228.024,846.984C388.759,938.089 622.009,939.887 796.799,891.401C842.946,878.6 890.884,861.419 929.925,833.009C938.443,826.81 948.192,819.075 953.521,809.792C957.143,803.483 958.667,795.821 959.442,788.67C961.583,768.93 960.37,745.791 960.366,725.753L960.363,615.219L836.701,615.19C800.296,672.901 747.471,701.114 681.903,716.142C617.822,730.829 518.938,730.593 455.88,712.083C459.94,708.923 464.194,705.709 468.169,702.467C489.205,685.159 509.275,667.053 527.435,646.68C539.981,632.605 548.675,615.988 557.227,599.312C583.851,584.366 602.441,560.816 616.51,534.224L620.726,539.041C613.988,549.481 611.474,559.625 608.886,571.657C590.044,578.414 574.224,594.885 565.725,612.728C556.548,631.95 555.39,654.032 562.508,674.108C571.67,699.632 589.703,714.789 616.715,717.404C634.653,703.941 650.712,681.629 660.079,661.421C663.307,654.457 666.066,647.092 669.428,640.32C671.293,636.564 676.536,631.502 679.486,628.491C689.208,618.566 691.617,610.504 693.636,597.297C695.829,582.943 698.143,554.283 703.572,541.5C709.394,527.786 721.231,527.442 724.4,506.749C733.555,515.946 739.709,523.916 746.407,535.057C717.224,562.783 721.129,588.628 747.484,617.263C762.457,633.532 789.769,646.333 812.088,642.29C830.574,613.668 835.372,590.676 829.052,556.33C828.308,552.282 823.186,537.163 823.031,535.152C822.014,521.887 824.93,510.848 819.193,497.287C814.087,485.216 804.185,478.446 795.417,468.951C788.05,460.972 780.016,452.589 773.522,443.797C769.141,437.333 764.013,430.701 760.704,423.611C758.982,419.921 757.868,414.876 756.479,410.929C747.39,385.096 710.21,370.934 684.999,376.586C665.332,380.995 650.388,394.222 632.551,402.336C624.372,394.579 613.683,387.198 604.817,380.206C600.327,376.666 589.155,369.626 586.095,365.519C582.894,361.222 577.721,348.426 576.061,342.921C604.301,339.547 632.871,338.991 661.242,341.697C663.289,341.893 668.07,342.728 669.841,343.583C676.511,346.805 683.778,351.522 691.126,345.934C714.68,352.079 736.508,359.722 758.432,370.432C788.772,385.254 814.1,404.305 827.096,436.779C839.307,437.211 852.618,437.04 864.868,436.863C896.57,436.406 928.715,437.511 960.363,436.822L960.387,205.031C882.865,162.908 791.379,132.642 703.384,123.381C704.23,115.11 704.624,107.918 700.805,100.229C693.345,85.205 679.27,77.769 663.609,73.946C657.41,54.804 644.455,42.525 627.163,33.563C593.613,15.589 557.158,27.197 522.207,32.37C514.155,33.562 505.758,33.254 497.731,31.405C490.497,29.738 487.763,24.524 482.893,21.752ZM707.534,153.292C729.373,156.941 749.209,160.054 771.001,164.954C823.25,176.902 873.905,194.981 921.912,218.816C921.972,278.347 922.503,338.98 921.814,398.42L876.25,398.436L839.179,398.467C819.764,370.584 796.977,354.19 766.223,340.06C755.062,334.932 743.92,331.356 732.58,326.995C736.185,324.237 738.97,321.848 742.375,318.829C760.079,318.983 746.665,305.197 750.065,295.23C753.896,283.998 770.72,276.231 774.897,267.726C776.411,264.643 776.587,261.073 775.385,257.854C771.58,247.661 761.142,243.191 752.143,238.861C750.65,236.737 722.364,193.011 722.203,192.12C718.941,174.067 718.195,170.282 707.534,153.292ZM731.736,188.641C736.099,195.778 753.794,223.173 758.961,231.056C769.462,236.22 780.357,242.581 784.753,254.356C786.917,260.153 786.6,266.582 783.873,272.134C781.707,276.544 777.183,281.042 771.898,285.494C767.179,289.471 761.304,293.257 759.53,298.458C758.895,300.319 759.954,302.378 760.419,304.322C761.272,307.881 761.897,311.257 761.734,314.045C761.505,317.946 760.113,321.219 757.469,323.857C757.063,324.262 756.609,324.666 756.101,325.058C760.873,326.87 765.633,328.784 770.398,330.973C801.272,345.158 824.48,361.583 844.311,388.463L876.244,388.436L911.918,388.423C912.426,334.272 912.002,279.239 911.92,225.052C866.274,202.911 818.257,186.02 768.789,174.706C754.112,171.407 740.329,168.927 726.209,166.542C728.757,172.762 729.917,178.612 731.736,188.641ZM572.73,79.516C593.587,80.693 611.92,90.393 627.75,103.39C637.056,111.031 640.653,116.018 652.447,119.673C659.776,121.945 669.575,129.439 675.331,134.49C691.029,148.267 704.909,173.309 705.891,194.458C716.805,210.573 729.696,230.828 740.509,247.392C741.214,248.471 756.165,258.129 759.701,261.39C753.57,266.704 741.848,274.334 734.856,279.127C734.169,271.024 732.432,262.729 726.5,256.69C722.546,252.597 715.9,251.458 711.888,256.112C707.049,261.726 706.91,268.751 707.34,275.683C701.772,272.792 696.479,271.029 690.585,269.078C681.866,253.13 661.305,243.042 643.478,243.291C632.928,243.439 625.999,244.699 616.329,248.698C628.935,239.241 631.696,237.464 633.1,221.089C609.322,234.485 570.626,244.183 548.947,220.52C542.489,213.47 539.568,203.562 540.344,194.032C541.708,177.302 551.361,165.463 563.684,154.894C549.605,159.317 541.724,161.891 528.365,169.659C495.745,188.628 469.006,221.838 459.401,258.488C474.053,234.341 495.054,214.681 520.114,201.652C518.615,222.346 520.03,237.043 533.97,253.566C510.181,299.953 522.839,343.577 553.834,382.73C583.833,392.54 591.34,398.894 614.916,419.967C621.586,420.344 627.525,420.368 633.964,418.578C656.805,412.225 674.984,387.821 700.73,391.437C711.737,392.983 725.399,398.532 733.461,406.585C741.648,413.319 740.439,423.652 744.851,431.96C754.184,449.534 768.096,465.609 781.987,479.727C787.841,485.675 794.939,490.573 799.892,497.046C808.409,508.176 806.072,524.472 804.356,537.333C816.153,563.359 817.081,581.332 811.104,608.612C792.137,602.498 769.211,595.024 757.585,577.501C752.437,569.742 751.881,562.251 751.653,553.215C755.27,551.024 758.676,548.502 761.826,545.681C771.715,536.782 776.933,528.359 777.552,515.163C772.33,515.099 766.224,514.152 762.616,509.649C744.554,487.102 737.244,447.36 705.838,439.549C691.044,435.869 683.702,439.311 671.114,446.58C683.509,454.196 704.386,465.082 709.314,478.629C712.828,488.286 711.312,499.042 707.106,508.181C701.648,517.195 692.553,522.994 689.243,529.837C682.069,544.667 680.114,568.539 677.939,585.002C676.997,592.136 676.805,598.273 674.636,605.254C671.421,615.599 661.313,619.711 656.3,627.984C652.995,633.438 649.514,642.185 646.699,648.186C638.991,664.62 632.138,677.355 619.869,690.971C616.756,689.995 613.748,689.043 610.737,687.778C577.003,673.607 572.635,631.687 594.76,605.27C597.435,602.077 599.816,599.8 602.958,597.006C608.94,611.063 620.105,618.121 635.05,611.717C620.173,598.193 627.119,575.096 632.031,558.592C633.511,554.787 635.253,547.765 637.861,544.748C645.431,536.204 654.912,532.867 658.24,520.71C667.729,486.031 620.342,461.7 593.988,454.095C569.493,447.027 535.286,450.623 513.092,463.487C589.872,464.419 543.613,539.02 503.653,555.276C478.895,565.348 462.127,545.267 440.663,536.093C423.486,589.588 397.024,626.194 359.648,667.066C344.203,651.932 330.555,635.068 318.974,616.807C327.357,595.631 335.669,573.476 340.531,551.195C343.232,538.823 341.935,527.245 343.601,515.095C348.36,480.39 365.201,439.282 389.936,414.443C415.537,388.903 450.304,374.686 486.464,374.971C478.274,370.282 471.194,366.432 462.017,363.58C437.001,355.855 409.936,358.445 386.839,370.775C382.649,340.673 382.874,313.719 389.05,283.704C402.752,217.116 445.134,153.415 509.278,126.566C533.563,116.401 556.716,113.725 582.4,118.98C580.569,116.886 578.946,114.618 577.556,112.209C571.967,102.603 569.81,90.338 572.73,79.516ZM638.158,151.115C635.051,176.061 647.549,170.913 648.271,177.716C645.861,181.617 635.91,178.342 632.576,176.806C633.925,182.044 635.014,187.92 640.476,190.622C649.473,195.072 662.943,199.167 672.082,201.425C674.263,201.965 687.594,215.591 690.51,218.327C693.96,221.797 697.357,225.319 700.701,228.893C696.294,220.784 691.477,212.905 686.269,205.286C678.277,193.598 649.708,156.447 638.158,151.115ZM578.994,264.695C594.779,276.624 598.672,275.996 616.674,281.826C633.097,287.144 648.939,297.876 659.597,311.631C656.179,311.069 652.355,310.736 648.878,310.362C625.831,307.586 593.023,309.105 570.128,312.246C570.253,294.518 572.503,281.272 578.994,264.695ZM630.405,299.059C625.049,295.823 619.36,293.207 613.593,291.34C599.243,286.693 593.233,285.756 584.216,280.406C582.294,287.239 581.159,293.817 580.589,300.948C596.133,299.392 614.128,298.579 630.405,299.059ZM649.019,277.561C666.124,276.559 681.029,289.667 690.682,302.375C704.565,300.099 719.185,301.945 730.223,311.321C731.263,312.204 731.55,312.703 731.507,313.981L730.666,314.254C709.359,311.849 700.951,309.156 678.393,314.807C675.54,296.62 664.343,286.194 649.019,277.561ZM325.573,175.993L326.106,176.117L326.367,176.698C314.109,203.764 299.403,238.761 275.586,256.918C256.525,271.45 231.776,277.294 208.161,274.32C224.657,299.387 241.26,311.049 271.333,314.624C268.398,347.538 250.62,370.847 216.396,372.697L217.45,373.992C237.209,398.092 262.491,408.099 293.164,411.129C273.59,451.863 266.354,488.779 270.032,534.013C274.905,593.949 302.465,650.346 348.747,689.231C424.185,752.612 537.838,763.033 632.424,755.115C696.498,749.751 766.328,729.475 815.619,686.879C829.88,674.555 837.949,665.535 850.036,651.106L921.971,651.128C921.169,680.469 922.317,712.255 921.922,741.688C921.269,790.346 928.265,789.486 886.217,815.72C863.799,828.569 840.266,839.367 815.906,847.985C778.603,861.013 740.255,870.826 701.28,877.317C689.014,879.324 676.392,880.669 664.055,882.319C637.646,885.852 611.321,888.49 584.684,889.593C550.83,890.799 516.934,889.951 483.183,887.053C404.609,880.588 339.366,867.279 266.807,833.769C179.522,793.459 113.902,724.824 81.439,633.521C50.361,547.033 55.228,451.698 94.952,368.824C141.978,269.997 224.688,211.741 325.573,175.993ZM189.801,261.929L209.41,264.398C230.458,267.049 252.535,261.917 269.523,248.965C286.365,236.126 298.157,214.255 307.887,193.316C264.017,210.769 224.095,233.06 189.801,261.929ZM188.667,262.888C154.066,292.27 125.254,328.416 103.975,373.134L103.969,373.146C65.401,453.608 60.676,546.169 90.855,630.155L90.861,630.171C122.401,718.879 186.196,785.526 271,824.69C342.423,857.676 406.659,870.723 484.021,877.088L484.038,877.09C517.377,879.952 550.858,880.79 584.298,879.6C610.62,878.509 636.633,875.898 662.729,872.407C674.966,870.771 687.485,869.441 699.652,867.45C738.053,861.054 775.836,851.386 812.59,838.551C836.317,830.155 859.242,819.642 881.083,807.136C896.084,797.777 904.342,792.588 908.595,786.57C911.1,783.026 911.633,779.175 911.879,773.728C912.226,766.051 911.729,756.009 911.923,741.554C912.273,715.48 911.416,687.561 911.769,661.125C911.769,661.125 854.69,661.107 854.69,661.107C843.803,673.982 835.665,682.773 822.158,694.445C771.308,738.388 699.359,759.547 633.258,765.08C536.203,773.205 419.721,761.923 342.314,696.887C293.983,656.281 265.154,597.413 260.065,534.823C256.61,492.332 262.388,456.884 278.506,419.215C251.166,414.362 228.257,402.945 209.705,380.318L196.238,363.772L215.856,362.712C241.161,361.344 255.378,345.633 260.032,322.989C232.782,317.69 216.221,304.759 199.808,279.817L188.667,262.888Z" style="fill:white;"/>
    </g>
</svg>
