<?xml version="1.0" encoding="UTF-8" standalone="no"?>
<!DOCTYPE svg PUBLIC "-//W3C//DTD SVG 1.1//EN" "http://www.w3.org/Graphics/SVG/1.1/DTD/svg11.dtd">
<svg width="100%" height="100%" viewBox="0 0 973 887" version="1.1" xmlns="http://www.w3.org/2000/svg" xmlns:xlink="http://www.w3.org/1999/xlink" xml:space="preserve" xmlns:serif="http://www.serif.com/" style="fill-rule:evenodd;clip-rule:evenodd;stroke-linejoin:round;stroke-miterlimit:2;">
    <g transform="matrix(1,0,0,1,-16.0661,-56.4108)">
        <path d="M627.368,91.877C638.415,102.262 647.675,115.982 654.639,129.315C682.602,182.852 694.597,246.827 676.153,305.412C715.206,277.995 755.042,251.71 795.611,226.59C844.117,196.428 890.058,169.147 941.398,144.194C942.829,147.346 944.11,150.6 945.276,153.905C967.987,218.276 972.723,295.049 943.919,358.313C937.748,371.867 925.093,391.88 914.775,401.888C888.489,427.384 851.895,444.974 818.181,458.326C809.848,461.626 801.409,464.057 793.112,467.052C825.919,462.822 859.922,458.662 892.482,453.282C889.683,461.664 881.765,478.901 877.745,487.22C867.49,508.44 856.318,536.15 842.55,554.726C835.722,564.047 827.254,572.046 817.559,578.333C768.708,609.618 695.463,596.56 642.528,585.094C663.175,638.232 660.915,704.693 641.405,757.683C619.026,818.125 573.783,862.196 515.617,888.645C414.117,934.798 304.213,921.163 202.68,883.881C182.701,876.039 162.916,867.714 143.342,858.912C176.893,854.783 223.22,846.268 250.517,824.895C278.422,803.046 289.131,757.821 302,726.043C326.183,666.322 360.374,625.025 416.669,594.327C415.316,588.25 414.563,583.044 413.907,576.896C394.08,583.874 374.074,590.33 353.909,596.258C317.068,606.715 284.145,613.677 246.821,621.193C245.382,616.915 244.006,612.617 242.692,608.3C228.379,559.846 230.839,507.98 249.673,461.098C254.812,448.162 260.94,436.835 267.482,424.621C214.61,409.913 159.302,405.35 104.86,399.596C118.102,393.093 134.713,387.619 148.91,383.743C201.983,369.25 253.624,368.385 306.534,383.403C308.188,382.115 309.811,380.657 311.4,379.278C268.806,347.07 221.379,325.933 171.224,308.197C164.39,305.78 157.164,303.681 150.516,300.857C169.003,298.006 187.561,297.754 206.16,298.625C265.833,301.417 318.739,317.533 367.516,352.559C397.525,348.124 418.617,348.031 447.302,358.523C493.334,260.955 554.062,171.027 627.368,91.877ZM564.903,670.864C583.865,692.906 595.875,709.199 610.374,734.37L611.87,729.772C613.724,723.577 615.19,717.622 616.742,711.344C610.479,704.275 571.893,673.384 564.903,670.864ZM427.821,693.903C471.571,734.979 504.463,786.253 523.559,843.144C542.526,830.594 559.718,817.474 574.247,799.746C553.589,740.702 520.504,695.224 469.038,659.215C454.251,649.152 444.75,643.779 428.963,635.072C414.147,643.619 403.301,650.66 391,663.103C404.724,674.005 414.787,681.679 427.821,693.903ZM393.673,386.209C369.374,389.168 347.946,398.328 329.357,414.375C287.662,450.367 264.478,509.595 271.234,564.328C271.601,567.315 272.037,570.294 272.54,573.261C290.772,570.817 308.837,567.254 326.631,562.593C367.142,552.201 418.153,537.314 440.173,498.975C458.189,467.606 473.306,418.069 435.101,395.502C425.018,389.546 405.306,383.916 393.673,386.209ZM376.662,425.472L377.577,425.624C393.802,438.489 396.513,463.037 387.669,480.857C381.004,494.284 366.166,509.251 351.836,514.352C339.123,518.877 326.362,515.144 314.772,509.472C307.029,505.578 299.064,499.979 291.856,495.101C313.673,466.766 345.762,442.991 376.662,425.472ZM355.185,462.607C348.799,467.315 342.603,472.276 336.614,477.479C338.41,481.97 339.016,483.984 342.845,487.159C359.821,494.389 363.12,471.122 355.185,462.607ZM494.276,497.384C477.933,518.902 466.512,553.691 460.346,579.64C478.366,574.214 506.585,566.875 525.381,566.048C540.924,564.149 557.089,563.615 572.757,563C569.301,546.785 559.887,524.298 550.002,511.393C535.215,506.131 509.785,499.633 494.276,497.384ZM827.689,494.246L724.568,496.489C711.109,496.795 695.379,496.582 682.135,497.304C673.744,497.761 657.641,501.105 648.828,502.452C640.557,503.716 626.195,506.004 618.169,507.832C634.083,509.588 654.445,510.123 670.902,511.324L755.551,518.166C750.636,520.122 745.689,521.995 740.711,523.785C719.531,531.114 698.057,537.566 676.344,543.124C668.496,545.11 657.098,548.006 649.117,548.98C654.822,551.131 667.721,553.589 674.183,554.634C709.66,560.371 754.948,565.549 788.712,551.333C810.978,541.958 826.143,517.831 834.273,496.108C834.507,495.484 834.732,494.856 834.948,494.226L827.689,494.246ZM548.441,604.226C533.433,605.149 507.991,607.617 493.531,611.992C497.182,614.33 516.977,628.461 519.117,627.974C519.618,627.86 519.939,627.712 520.403,627.525C530.964,623.507 541.447,619.285 551.844,614.861C559.728,611.423 568.26,607.147 576.042,603.947C567.349,603.907 557.05,603.651 548.441,604.226ZM297.065,833.563C280.982,848.191 274.326,853.321 254.805,863.392L263.217,861.394C279.206,857.535 290.599,852.255 304.481,843.825C303.016,841.665 298.625,834.99 297.065,833.563ZM917.365,197.961C797.38,265.961 683.195,343.721 575.968,430.455L538.196,461.205C531.695,466.52 520.299,475.465 514.867,481.436C578.243,442.405 645.464,409.064 712.697,377.301C746.652,361.709 782.566,345.358 817.744,332.683C805.161,344.982 785.862,360.998 772.169,372.171C746.097,393.246 719.69,413.903 692.959,434.135C681.304,443.041 667.217,453.276 656.071,462.568C696.753,450.376 738.077,440.294 778.612,427.431C828.743,411.523 881.127,398.247 907.869,347.728C926.512,312.508 928.148,272.057 923.892,233.173C922.616,221.776 920.989,209.873 918.163,198.797L917.365,197.961ZM623.063,152.502C575.24,207.675 534.563,273.259 499.985,337.515C493.914,348.797 482.113,370.008 477.234,381.326C481.504,386.697 485.62,392.189 489.578,397.795C510.902,372.509 534.73,344.5 557.806,320.765C564.715,313.484 571.708,306.283 578.786,299.165C570.854,341.031 566.574,364.444 549.225,404.091C557.111,397.095 565.169,391.239 573.819,384.121C589.635,371.121 605.977,359.101 621.643,345.945C624.175,343.818 627.506,333.929 629.592,329.523C656.353,273.001 654.234,207.162 623.348,152.789C623.253,152.694 623.158,152.598 623.063,152.502ZM341.416,811.594C356.383,832.396 366.673,854.311 374.268,878.665C397.602,877.864 422.543,877.656 445.081,871.202C438.783,826.026 417.841,772.073 389.795,735.908C381.13,723.715 370.02,711.329 359.322,700.87C345.195,725.208 331.307,761.072 322.839,788.089C330.023,796.455 335.026,802.699 341.416,811.594Z" style="fill:rgb(0,63,6);"/>
        <path d="M393.673,386.209C405.306,383.916 425.018,389.546 435.101,395.502C473.306,418.069 458.189,467.606 440.173,498.975C418.153,537.314 367.142,552.201 326.631,562.593C308.837,567.254 290.772,570.817 272.54,573.261C272.037,570.294 271.601,567.315 271.234,564.328C264.478,509.595 287.662,450.367 329.357,414.375C347.946,398.328 369.374,389.168 393.673,386.209ZM376.662,425.472C345.762,442.991 313.673,466.766 291.856,495.101C299.064,499.979 307.029,505.578 314.772,509.472C326.362,515.144 339.123,518.877 351.836,514.352C366.166,509.251 381.004,494.284 387.669,480.857C396.513,463.037 393.802,438.489 377.577,425.624L376.662,425.472ZM469.038,659.215C520.504,695.224 553.589,740.702 574.247,799.746C559.718,817.474 542.526,830.594 523.559,843.144C504.463,786.253 471.571,734.979 427.821,693.903C439.123,683.387 456.824,667.801 469.038,659.215ZM389.795,735.908C417.841,772.073 438.783,826.026 445.081,871.202C422.543,877.656 397.602,877.864 374.268,878.665C366.673,854.311 356.383,832.396 341.416,811.594C346.847,802.94 352.3,792.177 357.784,783.074C367.621,766.802 378.306,751.058 389.795,735.908ZM494.276,497.384C509.785,499.633 535.215,506.131 550.002,511.393C559.887,524.298 569.301,546.785 572.757,563C557.089,563.615 540.924,564.149 525.381,566.048C506.585,566.875 478.366,574.214 460.346,579.64C466.512,553.691 477.933,518.902 494.276,497.384ZM564.903,670.864C571.893,673.384 610.479,704.275 616.742,711.344C615.19,717.622 613.724,723.577 611.87,729.772L610.374,734.37C595.875,709.199 583.865,692.906 564.903,670.864Z" style="fill:rgb(235,176,54);"/>
        <path d="M206.021,348.377C191.921,342.405 177.523,336.941 162.888,331.766C155.575,329.179 147.856,326.889 140.741,323.867L59.916,289.533L146.706,276.149C166.848,273.043 187.065,272.703 207.329,273.652C268.611,276.518 323.256,292.504 373.792,326.479C395.76,323.797 413.939,323.803 434.078,328.465C479.957,236.045 538.864,150.645 609.026,74.889L626.14,56.411L644.491,73.662C657.526,85.915 668.581,102.01 676.798,117.741C698.278,158.867 710.949,205.588 709.889,252.01C733.798,236.042 757.982,220.485 782.429,205.348C831.68,174.723 878.34,147.045 930.469,121.709L953.552,110.49L964.162,133.859C965.89,137.666 967.443,141.595 968.852,145.587C993.639,215.841 998.108,299.626 966.672,368.672C959.408,384.625 944.325,408.053 932.181,419.833C931.137,420.846 930.078,421.848 929.005,422.839L916.195,461.2C913.154,470.306 904.621,489.06 900.254,498.098C889.38,520.6 877.271,549.841 862.705,569.517C854.085,581.279 843.397,591.374 831.101,599.347L831.041,599.385C788.476,626.645 729.27,625.158 677.396,617.101C686.645,666.569 681.578,720.928 664.857,766.342L664.849,766.363C640.101,833.204 590.289,882.154 525.965,911.402C418.319,960.351 301.745,946.888 193.803,907.253L193.546,907.152C173.19,899.162 153.032,890.68 133.089,881.713L51.502,845.025L140.288,834.099C169.864,830.459 211.042,824.051 235.105,805.211C245.956,796.714 252.898,783.291 258.944,769.284C266.641,751.455 272.458,732.39 278.828,716.659C292.989,681.688 310.323,652.517 332.805,627.797C305.938,634.592 280.094,639.994 251.756,645.701L230.152,650.051L223.125,629.163C221.609,624.656 220.16,620.128 218.745,615.481L218.716,615.382C202.813,561.546 205.541,503.92 226.455,451.827C227.865,448.282 229.34,444.848 230.873,441.481C188.575,432.669 145.121,428.99 102.233,424.457L16.066,415.35L93.84,377.156C108.423,369.994 126.69,363.895 142.325,359.626C163.721,353.784 184.903,349.995 206.021,348.377ZM627.368,91.877C554.062,171.027 493.334,260.955 447.302,358.523C418.617,348.031 397.525,348.124 367.516,352.559C318.739,317.533 265.833,301.417 206.16,298.625C187.561,297.754 169.003,298.006 150.516,300.857C157.164,303.681 164.39,305.78 171.224,308.197C221.379,325.933 268.806,347.07 311.4,379.278C309.811,380.657 308.188,382.115 306.534,383.403C253.624,368.385 201.983,369.25 148.91,383.743C134.713,387.619 118.102,393.093 104.86,399.596C159.302,405.35 214.61,409.913 267.482,424.621C260.94,436.835 254.812,448.162 249.673,461.098C230.839,507.98 228.379,559.846 242.692,608.3C244.006,612.617 245.382,616.915 246.821,621.193C284.145,613.677 317.068,606.715 353.909,596.258C374.074,590.33 394.08,583.874 413.907,576.896C414.563,583.044 415.316,588.25 416.669,594.327C360.374,625.025 326.183,666.322 302,726.043C289.131,757.821 278.422,803.046 250.517,824.895C223.22,846.268 176.893,854.783 143.342,858.912C162.916,867.714 182.701,876.039 202.68,883.881C304.213,921.163 414.117,934.798 515.617,888.645C573.783,862.196 619.026,818.125 641.405,757.683C660.915,704.693 663.175,638.232 642.528,585.094C695.463,596.56 768.708,609.618 817.559,578.333C827.254,572.046 835.722,564.047 842.55,554.726C856.318,536.15 867.49,508.44 877.745,487.22C881.765,478.901 889.683,461.664 892.482,453.282C859.922,458.662 825.919,462.822 793.112,467.052C801.409,464.057 809.848,461.626 818.181,458.326C851.895,444.974 888.489,427.384 914.775,401.888C925.093,391.88 937.748,371.867 943.919,358.313C972.723,295.049 967.987,218.276 945.276,153.905C944.11,150.6 942.829,147.346 941.398,144.194C890.058,169.147 844.117,196.428 795.611,226.59C755.042,251.71 715.206,277.995 676.153,305.412C694.597,246.827 682.602,182.852 654.639,129.315C647.675,115.982 638.415,102.262 627.368,91.877ZM355.185,462.607C363.12,471.122 359.821,494.389 342.845,487.159C339.016,483.984 338.41,481.97 336.614,477.479C342.603,472.276 348.799,467.315 355.185,462.607ZM623.063,152.502C623.158,152.598 623.253,152.694 623.348,152.789C654.234,207.162 656.353,273.001 629.592,329.523C627.506,333.929 624.175,343.818 621.643,345.945C605.977,359.101 589.635,371.121 573.819,384.121C565.169,391.239 557.111,397.095 549.225,404.091C566.574,364.444 570.854,341.031 578.786,299.165C571.708,306.283 564.715,313.484 557.806,320.765C534.73,344.5 510.902,372.509 489.578,397.795C485.62,392.189 481.504,386.697 477.234,381.326C482.113,370.008 493.914,348.797 499.985,337.515C534.563,273.259 575.24,207.675 623.063,152.502ZM427.821,693.903C414.787,681.679 404.724,674.005 391,663.103C403.301,650.66 414.147,643.619 428.963,635.072C444.75,643.779 454.251,649.152 469.038,659.215C456.824,667.801 439.123,683.387 427.821,693.903ZM341.416,811.594C335.026,802.699 330.023,796.455 322.839,788.089C331.307,761.072 345.195,725.208 359.322,700.87C370.02,711.329 381.13,723.715 389.795,735.908C378.306,751.058 367.621,766.802 357.784,783.074C352.3,792.177 346.847,802.94 341.416,811.594ZM827.689,494.246L834.948,494.226C834.732,494.856 834.507,495.484 834.273,496.108C826.143,517.831 810.978,541.958 788.712,551.333C754.948,565.549 709.66,560.371 674.183,554.634C667.721,553.589 654.822,551.131 649.117,548.98C657.098,548.006 668.496,545.11 676.344,543.124C698.057,537.566 719.531,531.114 740.711,523.785C745.689,521.995 750.636,520.122 755.551,518.166L670.902,511.324C654.445,510.123 634.083,509.588 618.169,507.832C626.195,506.004 640.557,503.716 648.828,502.452C657.641,501.105 673.744,497.761 682.135,497.304C695.379,496.582 711.109,496.795 724.568,496.489L827.689,494.246ZM548.441,604.226C557.05,603.651 567.349,603.907 576.042,603.947C568.26,607.147 559.728,611.423 551.844,614.861C541.447,619.285 530.964,623.507 520.403,627.525C519.939,627.712 519.618,627.86 519.117,627.974C516.977,628.461 497.182,614.33 493.531,611.992C507.991,607.617 533.433,605.149 548.441,604.226ZM297.065,833.563C298.625,834.99 303.016,841.665 304.481,843.825C290.599,852.255 279.206,857.535 263.217,861.394L254.805,863.392C274.326,853.321 280.982,848.191 297.065,833.563ZM917.365,197.961L918.163,198.797C920.989,209.873 922.616,221.776 923.892,233.173C928.148,272.057 926.512,312.508 907.869,347.728C881.127,398.247 828.743,411.523 778.612,427.431C738.077,440.294 696.753,450.376 656.071,462.568C667.217,453.276 681.304,443.041 692.959,434.135C719.69,413.903 746.097,393.246 772.169,372.171C785.862,360.998 805.161,344.982 817.744,332.683C782.566,345.358 746.652,361.709 712.697,377.301C645.464,409.064 578.243,442.405 514.867,481.436C520.299,475.465 531.695,466.52 538.196,461.205L575.968,430.455C683.195,343.721 797.38,265.961 917.365,197.961Z" style="fill:white;"/>
    </g>
</svg>
