<svg width="100%" height="100%" viewBox="0 0 767 888" version="1.1" xmlns="http://www.w3.org/2000/svg" xmlns:xlink="http://www.w3.org/1999/xlink" xml:space="preserve" xmlns:serif="http://www.serif.com/" style="fill-rule:evenodd;clip-rule:evenodd;stroke-linejoin:round;stroke-miterlimit:2;">
    <g transform="matrix(1,0,0,1,-391.174,-66.8036)">
        <path d="M746.453,477.465C752.66,507.747 748.526,536.098 715.641,546.399C705.211,548.219 701.114,547.52 690.943,546.01C715.427,543.008 727.788,533.187 729.404,507.012C730.901,482.752 712.559,453.589 686.175,453.75C676.983,453.814 668.203,457.573 661.81,464.179C650.682,475.797 650.164,490.594 650.559,505.533C650.018,504.401 649.521,503.248 649.07,502.077C643.138,486.984 642.216,470.666 648.956,455.654C653.893,444.355 663.151,435.507 674.659,431.086C709.023,418.172 735.531,448.085 746.453,477.465ZM948.173,500.146C942.953,510.518 933.692,521.865 920.443,516.665C964.852,493.955 915.936,396.899 883.815,456.273C883.938,407.932 921.536,397.242 943.054,438.726C952.841,457.709 954.683,479.805 948.173,500.146Z" style="fill:rgb(254,254,254);"/>
        <path d="M636.365,77.525C648.931,75.563 662.866,77.352 673.173,85.04C681.968,91.601 683.967,98.314 689.353,106.943C700.938,106.358 713.391,104.806 725.115,103.986C739.911,103.066 754.737,102.69 769.56,102.861C830.242,103.669 916.039,116.159 966.276,156.728C978.146,166.314 971.102,185.143 968.06,198.104C965.795,207.49 963.828,216.946 962.164,226.458C956.575,258.574 954.461,290.771 953.909,323.346C967.524,328.852 975.852,335.028 985.246,346.071C999.129,343.916 1011.79,345.496 1024.48,351.749C1040,359.4 1051.78,373.023 1057.11,389.498C1065.23,414.506 1057,442.017 1045.56,464.594C1062.6,498.687 1068.62,524.981 1068.67,563.405C1087.7,568.785 1114.7,581.436 1128.11,596.283C1117.83,593.562 1106.14,588.769 1096,585.061C1086.79,581.778 1077.51,578.689 1068.17,575.796C1065.78,595.882 1063.4,607.576 1056.76,626.521C1061.68,629.512 1066.52,632.626 1071.28,635.878C1079.44,641.454 1104.37,661.567 1106.06,670.665C1106.06,670.665 1062.02,644.562 1051.59,638.694C1051.28,639.561 1050.96,640.424 1050.63,641.283C1033.9,685.536 1000.19,721.273 956.995,740.556C955.192,764.867 951.97,784.389 954.691,809.421C956.031,821.747 962.198,844.957 962.912,855.157C963.833,868.316 940.861,892.378 931.004,901.692C926.195,905.764 921.637,909.441 916.7,913.304C877.906,943.661 825.979,948.825 778.507,941.833C733.2,935.159 681.356,912.85 641.531,889.189C603.454,866.567 578.368,849.771 535.945,834.44C523.992,830.052 511.817,826.296 499.469,823.19C486.232,819.961 472.866,817.16 459.77,813.403C456.92,812.585 452.359,810.572 454.437,806.811C479.614,761.238 475.979,706.342 473.935,656.118C473.073,634.928 471.481,611.31 475.898,590.558C451.067,571.508 432.831,552.269 422.061,522.296C408.011,483.196 421.661,445.107 462.477,430.932C453.692,410.704 444.789,390.853 434.025,371.541C424.797,354.95 413.904,339.271 405.574,322.194C391.702,293.754 413.665,263.816 430.484,242.261C465.754,197.059 510.837,170.34 562.529,147.929C561.906,132.396 563.163,122.213 572.855,109.28C588.185,88.824 612.13,80.88 636.365,77.525ZM1004.34,375.04C1014.32,396.947 1013.59,402.678 1015.07,425.85C1018.28,429.424 1022.45,434.88 1026.66,436.568C1028.63,435.512 1028.06,435.707 1029.34,433.373C1034.12,421.752 1036.09,408.43 1031.19,396.476C1027.6,387.739 1020.66,380.804 1011.92,377.221C1009.88,376.385 1006.55,375.481 1004.34,375.04ZM701.303,766.637C707.824,769.969 715.371,777.769 722.115,782.069C765.187,809.53 830.896,833.73 880.791,812.172C922.312,794.233 923.05,749.936 936.316,713.582C943.355,711.771 948.684,710.234 955.463,707.439C983.45,695.9 1010.31,653.766 1020.7,626.475L997.28,621.046C988.042,643.669 980.037,653.301 958.534,665.769C947.025,671.664 938.217,674.864 925.11,676.184C921.47,687.07 918.018,698.019 914.755,709.025C908.014,731.364 900.265,759.312 877.122,768.858C796.401,802.151 717.718,728.9 669.279,678.772C649.604,689.511 635.792,698.897 618.263,713.132C611.653,718.683 584.257,743.781 579.313,744.959L578.301,744.169C579.481,733.905 600.606,711.569 608.079,704.238C622.368,689.843 641.596,676.891 659.053,666.749C654.478,661.229 650.09,655.557 645.896,649.742C642.122,653.135 635.627,663.968 632.238,664.476C629.552,662.258 629.072,653.204 629.726,650.043C630.735,645.168 636.054,639.45 635.959,634.081L634.877,633.552C623.091,633.579 584.198,652.931 572.285,659.343C568.104,661.773 560.242,667.305 555.656,664.966C555.187,659.789 565.904,652.178 569.612,649.236C599.893,627.442 635.097,613.486 672.083,608.614C682.1,607.382 735.539,604.054 735.781,618.123C732.24,623.396 715.681,620.75 708.899,620.982C690.795,621.462 672.794,623.888 655.209,628.219C659.851,629.299 676.043,633.57 672.761,640.346C670.091,642.144 666.154,641.824 662.763,641.919C667.389,647.281 672.775,652.464 677.812,657.486C687.577,653.723 724.334,639.072 733.228,645.599C734.436,648.158 734.301,647.05 733.795,649.771C730.967,653.636 698.028,665.161 690.551,668.452C696.038,672.097 701.865,675.201 707.95,677.721C748.07,694.266 800.7,685.212 837.044,663.159C846.546,657.393 855.027,648.25 863.949,643.535C872.399,641.326 884.86,652.504 892.058,654.594C925.124,664.193 965.261,650.407 978.614,617.568C973.284,617.434 956.888,618.544 956.369,611.34C960.653,604.439 975.279,605.368 982.431,605.324C984.932,594.556 984.541,584.604 982.126,573.923C972.382,576.204 954.7,584.179 948.877,584.688C946.179,583.586 947.109,584.324 945.427,581.797C946.013,571.934 970.138,563.582 978.876,561.253C995.671,556.721 1020.07,554.989 1037.24,558.193C1037.5,522.878 1029.74,491.778 1010.45,462.424C997.397,442.555 993.333,444.473 989.869,418.52C980.666,349.588 912.242,338.125 854.644,338.195C742.992,336.408 624.756,382.87 545.158,462.015C541.442,465.718 537.836,469.531 534.345,473.447C515.286,460.911 496.395,452.752 472.831,457.256C450.641,461.497 438.64,481.871 443.954,503.518C451.906,535.906 481.591,563.943 512.091,575.771C497.78,624.958 506.852,653.678 509.297,703.37C510.961,737.167 507.398,766.981 498.805,799.49C512.156,800.953 524.077,802.631 536.889,806.218C655.934,839.547 782.503,970.561 907.247,880.594C914.98,875.018 927.216,861.235 932.019,853.065C928.377,840.766 925.03,827.897 923.52,815.145C907.709,835.995 887.149,848.025 861.06,851.042C816.137,856.627 773.419,844.69 738.092,816.232C723.596,804.554 705.424,789.539 697.267,772.102C696.163,769.742 699.276,767.417 701.303,766.637ZM790.973,546.676C793.623,540.358 798.14,534.262 803.673,530.191C833.019,508.597 888.324,501.02 912.955,532.714C917.641,542.313 921.499,552.287 917.7,562.891C910.564,582.805 890.641,585.217 876.408,597.741C867.215,605.831 868.916,616.595 865.473,620.817L864.347,621.079C860.316,616.258 857.64,604.387 852.265,601.169C842.88,595.549 829.588,595.887 819.193,593.182C796.702,587.33 782.888,569.769 790.973,546.676ZM479.149,491.539C500.199,489.948 517.046,502.152 528.176,519.212C520.546,516.989 517.142,515.208 510.465,520.945C505.203,526.831 503.528,533.75 493.037,530.883C485.4,528.591 477.363,522.344 473.578,515.259C468.509,505.771 469.145,496.971 479.149,491.539ZM715.641,546.399C718.122,547.579 718.139,547.797 719.002,549.859L718.302,551.559C716.385,553.239 714.562,553.688 712.072,554.23C695.527,557.828 677.368,552.702 663.403,543.802C644.386,531.552 630.987,512.273 626.133,490.176C618.373,454.323 638.019,417.531 675.019,409.975C691.509,406.685 708.63,410.131 722.564,419.544C735.03,427.991 760.286,455.597 752.004,475.283C751.343,476.853 748.105,477.254 746.453,477.465C735.531,448.085 709.023,418.172 674.659,431.086C663.151,435.507 653.893,444.355 648.956,455.654C642.216,470.666 643.138,486.984 649.07,502.077C649.521,503.248 650.018,504.401 650.559,505.533C650.164,490.594 650.682,475.797 661.81,464.179C668.203,457.573 676.983,453.814 686.175,453.75C712.559,453.589 730.901,482.752 729.404,507.012C727.788,533.187 715.427,543.008 690.943,546.01C701.114,547.52 705.211,548.219 715.641,546.399ZM920.443,516.665C914.446,517.889 907.157,516.632 901.975,513.59C871.481,495.693 859.929,443.896 876.39,413.715C886.348,394.14 909.637,386.348 929.239,398.054C960.057,416.458 974.228,466.705 957.458,498.813C956.222,501.179 950.608,502.799 948.173,500.146C954.683,479.805 952.841,457.709 943.054,438.726C921.536,397.242 883.938,407.932 883.815,456.273C915.936,396.899 964.852,493.955 920.443,516.665ZM797.438,712.946C790.04,713.679 767.595,718.214 768.236,728.047C771.576,733.096 786.665,741.155 792.602,743.841C811.863,752.556 841.081,756.399 860.799,748.203C886.67,734.116 856.238,717.386 841.127,713.381C840.244,713.14 839.351,712.936 838.452,712.768C841.296,716.075 846.373,720.828 845.984,725.307C844.508,726.358 843.305,726.707 841.477,726.003C825.043,719.671 816.104,713.007 797.438,712.946ZM1005.53,569.701L996.717,570.498C1000.92,584.084 1001.77,593.114 999.994,607.349C1008.02,609.006 1018.09,611.925 1025.34,613.244L1026.06,612.719C1030.97,597.668 1034.44,586.468 1036.06,570.689C1028.41,569.969 1013.2,568.49 1005.53,569.701ZM640.894,97.813C617.99,100.108 591.347,111.469 587.448,136.759C594.265,134.114 601.2,131.341 608.092,128.939C628.64,121.663 644.044,116.94 665.564,111.901C659.211,100.17 653.905,98.074 640.894,97.813ZM739.293,125.604C718.749,126.626 698.176,128.544 677.975,132.524C595.157,148.84 510.339,192.145 453.558,255.047C442.508,267.289 424.085,288.274 425.317,305.769C425.993,315.377 452.511,351.29 459.02,363.155C471.001,384.993 480.987,407.883 492.864,429.711L508.915,431.151C532.564,407.773 557.418,391.795 586.72,376.616C667.344,336.382 756.03,308.789 846.631,309.106C875.33,309.206 901.94,310.792 930.005,317.406C934.771,305.829 934.541,270.816 935.632,254.982C936.977,235.468 948.732,192.956 944.471,176.704C941.322,164.695 899.416,147.107 887.849,143.343C844.253,127.825 785.809,123.562 739.293,125.604Z"/>
        <path d="M770.381,155.378C790.348,155.017 810.319,155.817 830.193,157.774C834.325,162.434 839.644,169.589 843.636,174.623C843.792,189.049 845.721,206.745 846.983,221.41C843.324,226.007 840.546,229.154 836.54,233.424C839.455,240.79 842.693,252.574 845.229,260.529L852.649,261.836C852.734,269.673 852.816,274.424 853.774,282.209C846.118,280.608 837.863,280.424 830.021,280.033C827.522,272.293 824.043,263.35 821.255,255.586C819.205,250.006 814.544,236.453 811.482,231.75C809.783,230.673 806.455,230.492 805.06,232.003C805.57,236.853 805.651,257.555 808.531,259.666C810.676,259.541 811.933,259.241 813.844,260.047C814.774,262.606 815.538,275.392 815.991,279.379C803.335,279.784 790.7,279.621 777.897,280.08C777.768,273.835 777.172,266.726 776.778,260.426C779.529,260.165 780.622,260.158 783.262,259.098C783.883,255.386 782.382,237.694 782.049,232.884L778.166,178.542C776.431,176.563 775.415,177.821 771.522,176.855C770.101,172.973 770.423,160.101 770.381,155.378ZM800.173,177.783L802.806,210.824C808.269,211.009 818.729,212.41 822.504,208.536C824.786,203.327 823.949,198.322 824.22,192.977C825.11,175.443 813.175,177.898 800.173,177.783ZM517.104,250.511L532.184,255.101C536.816,283.624 541.959,320.415 545.535,349.007C543.531,352.583 537.671,364.048 535.495,366.449C528.413,374.261 512.004,383.623 502.579,389.853C498.217,387.775 492.427,385.499 487.88,383.578L478.86,328.311C477.487,319.847 474.566,305.389 474.82,297.141C474.885,295.055 480.129,281.067 481.358,277.38C492.655,267.772 505.02,259.13 517.104,250.511ZM508.514,281.256C503.166,285.817 501.126,286.673 496.938,292.503C496.885,298.238 504.952,357.279 506.645,359.854C508.661,360.947 508.515,361.305 510.384,361.133C513.992,358.671 519.245,355.383 522.13,352.313C521.398,333.393 515.303,305.148 513.221,284.974L508.514,281.256ZM755.855,158.617C757.64,158.193 757.514,158.22 759.315,158.618C760.316,163.519 761.213,185.411 761.517,191.197L744.023,194.289L743.186,182.875C736.721,183.67 731.405,184.38 725.021,185.647C726.066,194.748 726.942,203.867 727.646,213.001C735.765,211.606 744.396,210.544 752.671,209.185L754.097,231.981C746.116,232.545 738.159,233.405 730.241,234.56C730.731,243.687 732.29,255.326 733.57,264.37L748.976,261.451C748.578,258.435 748.417,253.859 748.211,250.706C753.461,249.842 762.094,249.438 767.657,249.038C767.88,256.918 768.663,265.006 769.323,272.882L770.037,282.157C747.28,285.223 727.134,288.137 704.798,293.701C704.091,286.636 703.298,279.58 702.42,272.534L709.088,270.79C707.233,244.514 704.284,216.519 701.731,190.287C699.064,190.544 695.818,191.073 693.115,191.444C692.298,184.119 691.696,176.772 691.309,169.412C717.152,163.565 729.527,161.264 755.855,158.617ZM862.723,165.589C871.365,166.526 893.766,173.511 900.637,179.211C904.915,182.759 907.949,187.408 911.215,192.048C911.016,200.548 911.348,207.236 912.208,215.637C905.38,213.598 898.573,211.489 891.788,209.308C891.674,203.476 891.474,199.482 890.849,193.664C885.85,191.644 880.258,188.4 875.5,192.139C872.315,196.688 874.629,206.818 875.369,212.586C888.675,222.306 901.928,221.913 914.986,237.282C915.791,243.002 915.523,250.61 915.815,256.581C916.207,264.584 917.041,271.784 918.018,279.747C915.175,283.188 911.802,286.771 908.787,290.108C908.251,290.384 907.716,290.66 907.181,290.936C896.938,288.52 879.536,285.578 870.044,284.086L857.352,268.249C856.928,260.71 856.551,253.169 856.22,245.626L876.579,248.871L877.649,264.355C881.958,265.733 888.678,268.604 892.629,266.947C893.553,266.039 894.487,265.086 894.65,263.744C897.65,238.945 887.121,239.226 868.824,235.47C863.872,230.014 858.767,224.699 853.515,219.53C853.665,206.807 851.985,188.217 851.205,174.988L862.723,165.589ZM681.733,172.677L682.352,172.846C683.479,174.209 687.135,203.014 688.211,208.158C682.34,209.612 677.834,211.087 672.122,213.01L669.601,198.871L662.18,201.565C663.664,209.623 664.784,221.743 665.772,230.056C667.667,246.587 669.751,263.096 672.023,279.579L679.948,276.368C681.077,283.85 682.03,291.358 682.807,298.885C669.407,303.472 656.112,308.36 642.933,313.548C642.593,306.739 641.564,298.979 641.077,291.899L640.903,290.745C642.456,288.826 645.758,288.043 648.263,287.142C645.5,261.321 641.768,234.984 639.439,209.257C636.129,210.422 632.209,212.17 628.909,213.542C629.101,218.24 629.792,222.463 630.473,227.093C624.778,229.287 621.002,230.78 615.548,233.585L610.13,195.53C634.939,185.184 655.842,179.034 681.733,172.677ZM601.713,199.478C604.141,201.286 607.685,231.084 608.62,236.323C603.521,238.406 599.176,240.434 594.231,242.801C593.337,237.367 592.805,232.779 592.252,227.321C589.268,228.625 586.261,230.024 583.29,231.372L594.602,312.077L602.062,308.097C603.178,315.36 604.25,322.63 605.278,329.906C592.59,336.323 578.968,344.382 566.494,351.462C565.651,344.556 564.747,337.659 563.784,330.769L564.018,329.772C565.755,327.694 569.658,325.679 572.159,324.203C568.081,298.946 565.048,270.706 561.465,244.994L552.365,250.763L554.138,263.904C548.516,267.046 545.244,269.537 540.264,273.441C539.137,262.462 537.093,248.282 535.053,237.549C560.577,222.045 574.103,213.208 601.713,199.478Z" style="fill:rgb(254,254,254);"/>
        <path d="M978.876,561.253C970.138,563.582 946.013,571.934 945.427,581.797C947.109,584.324 946.179,583.586 948.877,584.688C954.7,584.179 972.382,576.204 982.126,573.923C984.541,584.604 984.932,594.556 982.431,605.324C975.279,605.368 960.653,604.439 956.369,611.34C956.888,618.544 973.284,617.434 978.614,617.568C965.261,650.407 925.124,664.193 892.058,654.594C884.86,652.504 872.399,641.326 863.949,643.535C855.027,648.25 846.546,657.393 837.044,663.159C800.7,685.212 748.07,694.266 707.95,677.721C701.865,675.201 696.038,672.097 690.551,668.452C698.028,665.161 730.967,653.636 733.795,649.771C734.301,647.05 734.436,648.158 733.228,645.599C724.334,639.072 687.577,653.723 677.812,657.486C672.775,652.464 667.389,647.281 662.763,641.919C666.154,641.824 670.091,642.144 672.761,640.346C676.043,633.57 659.851,629.299 655.209,628.219C672.794,623.888 690.795,621.462 708.899,620.982C715.681,620.75 732.24,623.396 735.781,618.123C735.539,604.054 682.1,607.382 672.083,608.614C635.097,613.486 599.893,627.442 569.612,649.236C565.582,637.395 570.86,616.236 577.914,606.193C590.594,588.176 607.263,577.905 628.064,572.3C659.655,563.786 687.201,581.049 717.819,575.667C734.817,572.679 752.367,563.111 768.068,556.267C774.68,553.384 784.105,547.954 790.973,546.676C782.888,569.769 796.702,587.33 819.193,593.182C829.588,595.887 842.88,595.549 852.265,601.169C857.64,604.387 860.316,616.258 864.347,621.079L865.473,620.817C868.916,616.595 867.215,605.831 876.408,597.741C890.641,585.217 910.564,582.805 917.7,562.891C921.499,552.287 917.641,542.313 912.955,532.714C932.411,532.89 958.565,539.515 972.515,553.566C974.866,555.928 976.995,558.501 978.876,561.253ZM618.263,713.132C635.792,698.897 649.604,689.511 669.279,678.772C717.718,728.9 796.401,802.151 877.122,768.858C900.265,759.312 908.014,731.364 914.755,709.025C918.018,698.019 921.47,687.07 925.11,676.184C938.217,674.864 947.025,671.664 958.534,665.769C959.368,669.304 951.091,683.431 948.96,687.249C943.974,696.182 939.819,703.84 936.316,713.582C923.05,749.936 922.312,794.233 880.791,812.172C830.896,833.73 765.187,809.53 722.115,782.069C715.371,777.769 707.824,769.969 701.303,766.637C698.96,766.232 626.752,718.548 618.263,713.132ZM572.285,659.343C584.198,652.931 623.091,633.579 634.877,633.552L635.959,634.081C636.054,639.45 630.735,645.168 629.726,650.043C629.072,653.204 629.552,662.258 632.238,664.476C635.627,663.968 642.122,653.135 645.896,649.742C650.09,655.557 654.478,661.229 659.053,666.749C641.596,676.891 622.368,689.843 608.079,704.238C589.224,690.561 581.143,680.256 572.285,659.343Z" style="fill:rgb(203,150,85);"  data-color='color-3'/>
        <path d="M634.893,67.634L634.911,67.631C650.043,65.288 666.745,67.77 679.152,77.025C687.339,83.132 690.552,89.196 694.816,96.582C704.578,95.867 714.747,94.687 724.456,94.008L724.494,94.005C739.535,93.07 754.607,92.688 769.684,92.862L769.693,92.862C832.314,93.696 920.716,107.083 972.559,148.948C979.732,154.741 982.659,162.622 982.904,171.422C983.171,180.996 979.795,191.868 977.788,200.419L977.781,200.45C975.566,209.628 973.642,218.875 972.015,228.177C966.896,257.592 964.753,287.078 964.043,316.867C974.146,321.664 981.593,327.243 989.239,335.501C1003.1,334.215 1015.98,336.418 1028.9,342.779L1028.9,342.781C1046.84,351.632 1060.46,367.371 1066.62,386.413C1075.02,412.276 1068.02,440.647 1056.7,464.589C1071.79,495.917 1077.82,521.41 1078.59,556.032C1098.29,562.744 1122.65,575.322 1135.53,589.58L1158.1,614.565L1125.55,605.95C1115.01,603.159 1103.01,598.273 1092.6,594.467C1087.27,592.564 1081.9,590.728 1076.52,588.958C1074.75,600.83 1072.59,610.363 1068.76,622.226C1071.5,623.983 1074.22,625.78 1076.92,627.623L1076.93,627.629C1083,631.79 1097.82,643.53 1106.78,653.513C1111.96,659.276 1115.16,664.927 1115.89,668.839L1119.92,690.502L1100.96,679.267C1100.96,679.267 1073.2,662.812 1056.61,653.136C1038.79,694.209 1006.83,727.588 966.499,747.16C964.712,768.191 962.205,786.013 964.632,808.34C965.983,820.768 972.168,844.175 972.888,854.459C973.272,859.963 971.158,866.992 966.94,874.267C959.402,887.267 945.239,901.999 937.872,908.96L937.674,909.148L937.466,909.324C932.556,913.481 927.903,917.235 922.863,921.179C881.906,953.232 827.17,959.109 777.05,951.726C730.547,944.877 677.299,922.071 636.423,897.786C598.951,875.522 574.295,858.932 532.523,843.836L532.499,843.827C520.887,839.565 509.059,835.915 497.064,832.896C483.709,829.64 470.227,826.804 457.012,823.015C448.98,820.71 439.828,812.574 445.684,801.976C469.971,758.008 465.916,704.978 463.943,656.525C463.134,636.623 461.815,614.662 464.968,594.706C441.009,575.603 423.406,555.61 412.65,525.678C397.805,484.366 410.358,444.186 449.222,425.577C441.861,408.874 434.231,392.451 425.288,376.406L425.286,376.402C415.971,359.654 404.995,343.816 396.586,326.578C388.297,309.584 390.32,292.135 397.322,275.722C403.522,261.188 413.701,247.514 422.6,236.109C457.535,191.336 501.712,164.02 552.394,141.459C552.433,127.021 555.032,116.388 564.853,103.283C581.82,80.643 608.071,71.361 634.893,67.634ZM636.365,77.525C612.13,80.88 588.185,88.824 572.855,109.28C563.163,122.213 561.906,132.396 562.529,147.929C510.837,170.34 465.754,197.059 430.484,242.261C413.665,263.816 391.702,293.754 405.574,322.194C413.904,339.271 424.797,354.95 434.025,371.541C444.789,390.853 453.692,410.704 462.477,430.932C421.661,445.107 408.011,483.196 422.061,522.296C432.831,552.269 451.067,571.508 475.898,590.558C471.481,611.31 473.073,634.928 473.935,656.118C475.979,706.342 479.614,761.238 454.437,806.811C452.359,810.572 456.92,812.585 459.77,813.403C472.866,817.16 486.232,819.961 499.469,823.19C511.817,826.296 523.992,830.052 535.945,834.44C578.368,849.771 603.454,866.567 641.531,889.189C681.356,912.85 733.2,935.159 778.507,941.833C825.979,948.825 877.906,943.661 916.7,913.304C921.637,909.441 926.195,905.764 931.004,901.692C940.861,892.378 963.833,868.316 962.912,855.157C962.198,844.957 956.031,821.747 954.691,809.421C951.97,784.389 955.192,764.867 956.995,740.556C1000.19,721.273 1033.9,685.536 1050.63,641.283C1050.96,640.424 1051.28,639.561 1051.59,638.694C1062.02,644.562 1106.06,670.665 1106.06,670.665C1104.37,661.567 1079.44,641.454 1071.28,635.878C1066.52,632.626 1061.68,629.512 1056.76,626.521C1063.4,607.576 1065.78,595.882 1068.17,575.796C1077.51,578.689 1086.79,581.778 1096,585.061C1106.14,588.769 1117.83,593.562 1128.11,596.283C1114.7,581.436 1087.7,568.785 1068.67,563.405C1068.62,524.981 1062.6,498.687 1045.56,464.594C1057,442.017 1065.23,414.506 1057.11,389.498C1051.78,373.023 1040,359.4 1024.48,351.749C1011.79,345.496 999.129,343.916 985.246,346.071C975.852,335.028 967.524,328.852 953.909,323.346C954.461,290.771 956.575,258.574 962.164,226.458C963.828,216.946 965.795,207.49 968.06,198.104C971.102,185.143 978.146,166.314 966.276,156.728C916.039,116.159 830.242,103.669 769.56,102.861C754.737,102.69 739.911,103.066 725.115,103.986C713.391,104.806 700.938,106.358 689.353,106.943C683.967,98.314 681.968,91.601 673.173,85.04C662.866,77.352 648.931,75.563 636.365,77.525ZM797.438,712.946C816.104,713.007 825.043,719.671 841.477,726.003C843.305,726.707 844.508,726.358 845.984,725.307C846.373,720.828 841.296,716.075 838.452,712.768C839.351,712.936 840.244,713.14 841.127,713.381C856.238,717.386 886.67,734.116 860.799,748.203C841.081,756.399 811.863,752.556 792.602,743.841C786.665,741.155 771.576,733.096 768.236,728.047C767.595,718.214 790.04,713.679 797.438,712.946ZM640.894,97.813C653.905,98.074 659.211,100.17 665.564,111.901C644.044,116.94 628.64,121.663 608.092,128.939C601.2,131.341 594.265,134.114 587.448,136.759C591.347,111.469 617.99,100.108 640.894,97.813ZM739.293,125.604C785.809,123.562 844.253,127.825 887.849,143.343C899.416,147.107 941.322,164.695 944.471,176.704C948.732,192.956 936.977,235.468 935.632,254.982C934.541,270.816 934.771,305.829 930.005,317.406C901.94,310.792 875.33,309.206 846.631,309.106C756.03,308.789 667.344,336.382 586.72,376.616C557.418,391.795 532.564,407.773 508.915,431.151L492.864,429.711C480.987,407.883 471.001,384.993 459.02,363.155C452.511,351.29 425.993,315.377 425.317,305.769C424.085,288.274 442.508,267.289 453.558,255.047C510.339,192.145 595.157,148.84 677.975,132.524C698.176,128.544 718.749,126.626 739.293,125.604ZM755.855,158.617C729.527,161.264 717.152,163.565 691.309,169.412C691.696,176.772 692.298,184.119 693.115,191.444C695.818,191.073 699.064,190.544 701.731,190.287C704.284,216.519 707.233,244.514 709.088,270.79L702.42,272.534C703.298,279.58 704.091,286.636 704.798,293.701C727.134,288.137 747.28,285.223 770.037,282.157L769.323,272.882C768.663,265.006 767.88,256.918 767.657,249.038C762.094,249.438 753.461,249.842 748.211,250.706C748.417,253.859 748.578,258.435 748.976,261.451L733.57,264.37C732.29,255.326 730.731,243.687 730.241,234.56C738.159,233.405 746.116,232.545 754.097,231.981L752.671,209.185C744.396,210.544 735.765,211.606 727.646,213.001C726.942,203.867 726.066,194.748 725.021,185.647C731.405,184.38 736.721,183.67 743.186,182.875L744.023,194.289L761.517,191.197C761.213,185.411 760.316,163.519 759.315,158.618C757.514,158.22 757.64,158.193 755.855,158.617ZM862.723,165.589L851.205,174.988C851.985,188.217 853.665,206.807 853.515,219.53C858.767,224.699 863.872,230.014 868.824,235.47C887.121,239.226 897.65,238.945 894.65,263.744C894.487,265.086 893.553,266.039 892.629,266.947C888.678,268.604 881.958,265.733 877.649,264.355L876.579,248.871L856.22,245.626C856.551,253.169 856.928,260.71 857.352,268.249L870.044,284.086C879.536,285.578 896.938,288.52 907.181,290.936C907.716,290.66 908.251,290.384 908.787,290.108C911.802,286.771 915.175,283.188 918.018,279.747C917.041,271.784 916.207,264.584 915.815,256.581C915.523,250.61 915.791,243.002 914.986,237.282C901.928,221.913 888.675,222.306 875.369,212.586C874.629,206.818 872.315,196.688 875.5,192.139C880.258,188.4 885.85,191.644 890.849,193.664C891.474,199.482 891.674,203.476 891.788,209.308C898.573,211.489 905.38,213.598 912.208,215.637C911.348,207.236 911.016,200.548 911.215,192.048C907.949,187.408 904.915,182.759 900.637,179.211C893.766,173.511 871.365,166.526 862.723,165.589ZM681.733,172.677C655.842,179.034 634.939,185.184 610.13,195.53L615.548,233.585C621.002,230.78 624.778,229.287 630.473,227.093C629.792,222.463 629.101,218.24 628.909,213.542C632.209,212.17 636.129,210.422 639.439,209.257C641.768,234.984 645.5,261.321 648.263,287.142C645.758,288.043 642.456,288.826 640.903,290.745L641.077,291.899C641.564,298.979 642.593,306.739 642.933,313.548C656.112,308.36 669.407,303.472 682.807,298.885C682.03,291.358 681.077,283.85 679.948,276.368L672.023,279.579C669.751,263.096 667.667,246.587 665.772,230.056C664.784,221.743 663.664,209.623 662.18,201.565L669.601,198.871L672.122,213.01C677.834,211.087 682.34,209.612 688.211,208.158C687.135,203.014 683.479,174.209 682.352,172.846L681.733,172.677ZM601.713,199.478C574.103,213.208 560.577,222.045 535.053,237.549C537.093,248.282 539.137,262.462 540.264,273.441C545.244,269.537 548.516,267.046 554.138,263.904L552.365,250.763L561.465,244.994C565.048,270.706 568.081,298.946 572.159,324.203C569.658,325.679 565.755,327.694 564.018,329.772L563.784,330.769C564.747,337.659 565.651,344.556 566.494,351.462C578.968,344.382 592.59,336.323 605.278,329.906C604.25,322.63 603.178,315.36 602.062,308.097L594.602,312.077L583.29,231.372C586.261,230.024 589.268,228.625 592.252,227.321C592.805,232.779 593.337,237.367 594.231,242.801C599.176,240.434 603.521,238.406 608.62,236.323C607.685,231.084 604.141,201.286 601.713,199.478ZM517.104,250.511C505.02,259.13 492.655,267.772 481.358,277.38C480.129,281.067 474.885,295.055 474.82,297.141C474.566,305.389 477.487,319.847 478.86,328.311L487.88,383.578C492.427,385.499 498.217,387.775 502.579,389.853C512.004,383.623 528.413,374.261 535.495,366.449C537.671,364.048 543.531,352.583 545.535,349.007C541.959,320.415 536.816,283.624 532.184,255.101L517.104,250.511ZM508.514,281.256L513.221,284.974C515.303,305.148 521.398,333.393 522.13,352.313C519.245,355.383 513.992,358.671 510.384,361.133C508.515,361.305 508.661,360.947 506.645,359.854C504.952,357.279 496.885,298.238 496.938,292.503C501.126,286.673 503.166,285.817 508.514,281.256ZM770.381,155.378C770.423,160.101 770.101,172.973 771.522,176.855C775.415,177.821 776.431,176.563 778.166,178.542L782.049,232.884C782.382,237.694 783.883,255.386 783.262,259.098C780.622,260.158 779.529,260.165 776.778,260.426C777.172,266.726 777.768,273.835 777.897,280.08C790.7,279.621 803.335,279.784 815.991,279.379C815.538,275.392 814.774,262.606 813.844,260.047C811.933,259.241 810.676,259.541 808.531,259.666C805.651,257.555 805.57,236.853 805.06,232.003C806.455,230.492 809.783,230.673 811.482,231.75C814.544,236.453 819.205,250.006 821.255,255.586C824.043,263.35 827.522,272.293 830.021,280.033C837.863,280.424 846.118,280.608 853.774,282.209C852.816,274.424 852.734,269.673 852.649,261.836L845.229,260.529C842.693,252.574 839.455,240.79 836.54,233.424C840.546,229.154 843.324,226.007 846.983,221.41C845.721,206.745 843.792,189.049 843.636,174.623C839.644,169.589 834.325,162.434 830.193,157.774C810.319,155.817 790.348,155.017 770.381,155.378ZM800.173,177.783C813.175,177.898 825.11,175.443 824.22,192.977C823.949,198.322 824.786,203.327 822.504,208.536C818.729,212.41 808.269,211.009 802.806,210.824L800.173,177.783Z" style="fill:rgb(152,0,0);" data-color='color-1'/>
        <path d="M701.303,766.637C699.276,767.417 696.163,769.742 697.267,772.102C705.424,789.539 723.596,804.554 738.092,816.232C773.419,844.69 816.137,856.627 861.06,851.042C887.149,848.025 907.709,835.995 923.52,815.145C925.03,827.897 928.377,840.766 932.019,853.065C927.216,861.235 914.98,875.018 907.247,880.594C782.503,970.561 655.934,839.547 536.889,806.218C524.077,802.631 512.156,800.953 498.805,799.49C507.398,766.981 510.961,737.167 509.297,703.37C506.852,653.678 497.78,624.958 512.091,575.771C481.591,563.943 451.906,535.906 443.954,503.518C438.64,481.871 450.641,461.497 472.831,457.256C496.395,452.752 515.286,460.911 534.345,473.447C537.836,469.531 541.442,465.718 545.158,462.015C624.756,382.87 742.992,336.408 854.644,338.195C912.242,338.125 980.666,349.588 989.869,418.52C993.333,444.473 997.397,442.555 1010.45,462.424C1029.74,491.778 1037.5,522.878 1037.24,558.193C1020.07,554.989 995.671,556.721 978.876,561.253C976.995,558.501 974.866,555.928 972.515,553.566C958.565,539.515 932.411,532.89 912.955,532.714C888.324,501.02 833.019,508.597 803.673,530.191C798.14,534.262 793.623,540.358 790.973,546.676C784.105,547.954 774.68,553.384 768.068,556.267C752.367,563.111 734.817,572.679 717.819,575.667C687.201,581.049 659.655,563.786 628.064,572.3C607.263,577.905 590.594,588.176 577.914,606.193C570.86,616.236 565.582,637.395 569.612,649.236C565.904,652.178 555.187,659.789 555.656,664.966C560.242,667.305 568.104,661.773 572.285,659.343C581.143,680.256 589.224,690.561 608.079,704.238C600.606,711.569 579.481,733.905 578.301,744.169L579.313,744.959C584.257,743.781 611.653,718.683 618.263,713.132C626.752,718.548 698.96,766.232 701.303,766.637ZM479.149,491.539C469.145,496.971 468.509,505.771 473.578,515.259C477.363,522.344 485.4,528.591 493.037,530.883C503.528,533.75 505.203,526.831 510.465,520.945C517.142,515.208 520.546,516.989 528.176,519.212C517.046,502.152 500.199,489.948 479.149,491.539ZM715.641,546.399C748.526,536.098 752.66,507.747 746.453,477.465C748.105,477.254 751.343,476.853 752.004,475.283C760.286,455.597 735.03,427.991 722.564,419.544C708.63,410.131 691.509,406.685 675.019,409.975C638.019,417.531 618.373,454.323 626.133,490.176C630.987,512.273 644.386,531.552 663.403,543.802C677.368,552.702 695.527,557.828 712.072,554.23C714.562,553.688 716.385,553.239 718.302,551.559L719.002,549.859C718.139,547.797 718.122,547.579 715.641,546.399ZM920.443,516.665C933.692,521.865 942.953,510.518 948.173,500.146C950.608,502.799 956.222,501.179 957.458,498.813C974.228,466.705 960.057,416.458 929.239,398.054C909.637,386.348 886.348,394.14 876.39,413.715C859.929,443.896 871.481,495.693 901.975,513.59C907.157,516.632 914.446,517.889 920.443,516.665ZM958.534,665.769C980.037,653.301 988.042,643.669 997.28,621.046L1020.7,626.475C1010.31,653.766 983.45,695.9 955.463,707.439C948.684,710.234 943.355,711.771 936.316,713.582C939.819,703.84 943.974,696.182 948.96,687.249C951.091,683.431 959.368,669.304 958.534,665.769ZM1005.53,569.701C1013.2,568.49 1028.41,569.969 1036.06,570.689C1034.44,586.468 1030.97,597.668 1026.06,612.719L1025.34,613.244C1018.09,611.925 1008.02,609.006 999.994,607.349C1001.77,593.114 1000.92,584.084 996.717,570.498L1005.53,569.701ZM1004.34,375.04C1006.55,375.481 1009.88,376.385 1011.92,377.221C1020.66,380.804 1027.6,387.739 1031.19,396.476C1036.09,408.43 1034.12,421.752 1029.34,433.373C1028.06,435.707 1028.63,435.512 1026.66,436.568C1022.45,434.88 1018.28,429.424 1015.07,425.85C1013.59,402.678 1014.32,396.947 1004.34,375.04Z" style="fill:rgb(142,87,36);"  data-color='color-2'/>
    </g>
</svg>
