<?xml version="1.0" encoding="UTF-8" standalone="no"?>
<!DOCTYPE svg PUBLIC "-//W3C//DTD SVG 1.1//EN" "http://www.w3.org/Graphics/SVG/1.1/DTD/svg11.dtd">
<svg width="100%" height="100%" viewBox="0 0 957 888" version="1.1" xmlns="http://www.w3.org/2000/svg" xmlns:xlink="http://www.w3.org/1999/xlink" xml:space="preserve" xmlns:serif="http://www.serif.com/" style="fill-rule:evenodd;clip-rule:evenodd;stroke-linejoin:round;stroke-miterlimit:2;">
    <g transform="matrix(1,0,0,1,-37.5984,-61.3223)">
        <path d="M381.832,79.773C398.103,80.521 421.687,94.061 434.984,103.827C458.583,96.143 489.782,98.034 514.073,102.537C555.057,110.135 594.551,131.117 618.532,166.018C633.726,166.62 645.035,167.282 658.051,174.114C679.58,185.415 684.894,200.903 682.644,223.999C682.456,225.919 684.629,235.837 685.123,238.844C688.307,258.245 682.762,285.546 663.616,295.081C661.092,296.326 655.395,296.264 654.064,298.901C659.838,305.383 729.808,314.368 741.991,316.841C749.753,318.417 755.856,320.272 763.769,323.646C774.317,312.921 788.836,316.304 802.617,316.464C811.302,316.533 819.983,316.058 828.609,315.043C858.832,281.515 896.318,248.523 944.812,249.139C951.282,249.221 979.302,251.998 976.707,262.895C975.04,269.897 957.127,285.327 951.111,289.933C953.743,292.063 956.996,294.749 958.097,298.067C963.816,315.293 938.724,330.801 927.983,339.893C919.939,346.702 910.868,354.89 906.331,364.524C904.68,368.029 903.28,371.932 904.762,375.745C908.143,384.444 928.523,391.11 935.273,410.464C937.678,417.361 937.627,425.357 934.246,431.939C931.877,436.55 927.949,439.432 923.07,440.995C915.446,443.436 908.459,440.125 901.126,438.392C896.656,437.321 892.106,436.617 887.522,436.289C866.009,434.793 855.233,441.661 833.572,430.834C831.026,431.652 828.489,432.5 825.962,433.378C805.598,440.258 787.279,444.266 767.493,434.482C716.584,454.317 670.367,462.77 615.644,463.448C603.482,494.058 587.051,522.794 566.84,548.802C574.658,555.533 581.317,564.462 582.87,575.073C583.312,578.087 583.098,583.168 584.297,585.843C586.676,585.207 600.631,571.025 604.582,567.875C617.103,557.225 630.507,547.624 644.134,538.493C663.033,525.828 727.645,491.345 743.971,517.125C744.143,519.408 743.987,522.677 743.945,525.039C758.7,517.963 780.838,511.267 796.985,508.645C812.371,506.646 835.897,504.568 849.317,514.028C860.264,521.745 855.84,532.429 849.021,540.899C906.497,541.161 900.24,586.314 852.998,604.11C855.435,607.953 857.103,611.919 856.871,616.562C856.515,623.718 852.052,629.923 846.997,634.666C820.326,659.687 740.225,670.631 703.806,673.369C685.372,674.755 667.329,675.069 648.88,674.427C651.008,685.348 651.799,693.985 650.143,705.04C659.442,710.763 662.782,719.017 665.785,729.074C674.398,732.536 678.534,736.233 684.919,743.009C687.365,745.605 689.466,748.064 692.569,749.841C695.773,750.069 699.616,749.972 702.878,749.967C717.342,733.408 730.578,718.949 752.495,712.377C766.664,708.128 776.593,710.238 790.411,714.139C817.358,703.783 829.178,732.338 828.11,753.994C827.808,760.114 827.103,764.333 825.89,770.299C829.344,775.968 833.475,782.804 832.709,789.7C831.652,799.213 824.002,800.455 816.192,799.289C811.041,809.226 807.393,814.229 800.324,822.61C803.243,831.882 804.26,839.837 794.327,844.702C787.196,846.004 782.57,844.57 775.736,842.845C758.843,856.068 750.144,860.902 732.069,872.144C744.217,908.284 726.561,906.827 700.819,896.77C700.682,896.818 700.546,896.866 700.41,896.913C698.622,905.137 704.558,914.026 699.249,922.335C689.805,935.839 668.201,916.657 659.715,911.275C641.693,916.458 640.378,907.373 636.796,892.752C633.564,889.743 630.338,887.093 627.369,883.784C610.093,864.528 603.997,839.878 611.059,815.161C602.757,810.283 599.87,807.33 595.626,798.727C585.028,794.876 576.364,787.023 571.493,776.853C538.601,776.769 527.115,757.034 502.598,741.374C467.823,719.16 432.323,709.966 391.238,712.215C389.419,714.505 387.054,718.801 385.515,721.46C365.609,755.847 336.482,782.552 293.451,775.416C283.66,780.954 276.817,781.568 265.587,780.474C264.221,784.911 262.883,787.602 260.885,791.776L276.538,819.093C304.261,825.071 335.969,846.518 326.78,878.853C333.933,887.265 334.583,896.547 327.601,905.336C318.702,916.541 303.653,919.402 290.305,920.812C290.003,923.011 289.786,924.422 288.665,926.385C286.085,930.903 280.532,934.063 275.695,930.813C272.474,928.648 272.106,925.642 271.384,922.097C263.374,922.08 257.058,921.895 249.13,921.171C245.392,927.584 238.314,936.151 229.679,930.04C226.08,927.492 225.454,921.512 224.943,917.372C215.696,914.349 210.783,912.78 202.027,908.307C189.094,924.392 180.116,910.013 181.981,894.234C161.676,871.099 163.579,863.777 151.49,839.674C128.78,852.714 134.514,825.367 134.275,811.023C126.911,813.454 113.997,816.537 113.445,804.151C113.182,798.24 118.662,793.031 122.576,789.09C119.417,777.122 112.346,772.43 128.314,768.652C134.683,745.783 151.771,732.301 175.349,730.876C180.165,710.486 199.913,701.075 218.561,696.05C218.521,694.242 218.512,692.433 218.536,690.625C219.161,655.233 249.744,601.785 275.343,577.138C269.18,554.274 292.692,538.826 290.526,531.219C288.255,530.712 285.655,532.107 283.643,533.235C276.473,537.254 270.086,537.083 262.008,536.923C250.729,548.504 237.533,549.594 222.545,545.286C199.919,553.559 178.861,542.983 161.62,528.104C156.568,523.223 146.114,513.071 143.532,506.514C138.119,492.767 132.844,489.522 121.554,480.761C116.288,476.674 110.183,469.217 104.808,464.474C91.201,452.241 78.022,440.345 69.207,424.064C32.376,356.037 69.858,301.842 130.738,268.931C181.667,241.399 233.974,223.392 292.787,224.701C302.074,224.908 312.071,225.855 320.875,228.283L322.354,222.232C316.607,220.911 312.741,220.993 306.807,221.008C313.193,212.128 317.984,208.274 326.856,202.336C291.588,159.95 320.963,115.895 373.224,125.253C370.816,112.486 367.707,103.974 363.402,91.828C373.786,92.271 383.767,96.875 392.798,101.695C390.503,93.855 386.056,86.705 381.832,79.773Z" style="fill:rgb(16,28,15);"/>
        <path d="M285.134,589.35C288.026,590.433 293.509,595.922 296.747,597.794C337.401,621.292 388.748,632.909 435.149,635.58C476.768,637.976 542.981,627.908 574.265,599.155C608.098,622.342 642.556,662.451 634.048,706.129C614.689,711.932 599.463,726.173 587.846,742.294C584.552,745.766 578.514,759.415 573.663,759.8C551.824,761.529 530.873,737.686 514.24,726.134C489.26,707.244 449.092,693.098 417.752,692.511C425.842,688.684 444.804,683.426 454.325,680.568C447.573,677.242 440.102,675.639 432.58,675.904C399.801,676.756 370.516,704.212 349.332,726.716C355.684,724.715 361.747,722.184 367.928,719.711C354.362,740.958 335.342,758.054 309.085,759.535C276.893,761.351 233.986,728.641 234.689,695.064C235.437,659.381 260.976,614.819 285.134,589.35ZM305.092,542.713C350.769,574.899 414.21,588.641 469.631,586.662C500.164,585.571 529.968,578.059 556.448,562.497C563.736,567.94 565.351,571.885 567.22,580.316C567.136,580.664 567.046,581.01 566.951,581.355C564.72,589.344 558.956,592.646 552.223,596.404C542.617,602.017 525.963,608.175 515.182,611.103C463.034,625.354 410.849,621.324 359.014,606.552C343.003,601.989 299.129,590.023 291.067,571.644C289.304,567.625 295.008,558.386 297.5,554.833C300.043,551.209 302.677,546.791 305.092,542.713Z" style="fill:rgb(195,73,28);"/>
        <path d="M207.847,350.525C206.143,351.212 203.767,351.642 201.929,352.047C195.232,339.256 190.617,332.479 178.806,323.177C160.469,308.735 131.22,301.706 108.207,304.698C113.73,299.848 122.693,294.052 129.204,290.921C135.655,286.595 140.43,283.619 147.757,280.573C184.066,291.755 209.283,308.971 220.937,346.702C217.096,347.523 211.3,348.639 207.847,350.525ZM779.495,332.081C784.576,331.782 791.241,332.642 796.522,332.763C804.111,332.939 810.907,332.491 818.476,331.96C816.568,336.94 814.144,343.124 812.635,348.146C807.876,363.98 807.344,385.322 811.946,401.306C813.59,407.016 816.247,412.1 819.012,417.285L809.112,420.508C790.663,426.02 772.94,424.37 766.608,402.759C760.561,382.125 761.56,359.415 771.226,340.065C773.217,336.079 775.148,333.385 779.495,332.081ZM276.257,241.208C288.606,239.54 312.747,242.285 324.52,246.37C319.472,270.29 331.674,303.442 354.054,314.869C354.829,310.834 355.305,307.88 355.735,303.804C365.162,329.127 383.167,344.007 408.672,351.835C408.011,346.522 407.457,343.223 405.488,338.265C425.646,356.851 445.295,362.759 470.812,369.848C494.996,376.567 516.207,381.486 541.638,379.178C567.661,376.816 584.018,366.715 600.53,347.126C622.524,344.644 633.767,333.776 645.059,315.598C678.102,328.148 719.957,325.726 756.168,336.862C755.481,338.255 754.848,339.675 754.269,341.117C745.098,364.328 746.35,397.681 756.414,420.529C715.371,435.617 665.643,445.791 621.722,444.968C628.915,420.949 631.458,399.497 624.389,374.913C623.734,387.91 619.662,404.103 616.194,416.622C605.831,450.714 590.928,483.258 571.886,513.376C566.59,521.909 552.378,543.85 545.437,550.467C539.665,555.97 511.121,565.899 503.091,567.493C450.406,577.957 389.117,567.925 340.067,547.186C329.77,542.832 320.978,537.481 311.763,531.762C324.853,530.252 335.256,528.571 345.449,518.815C356.317,508.415 357.56,489.934 357.692,475.679C358.008,441.689 341.311,401.521 316.878,377.499C295.667,356.699 267.042,345.21 237.337,345.574C226.782,305.725 198.329,285.941 161.275,272.976C197.014,254.605 236.155,243.791 276.257,241.208ZM402.739,376.33C400.032,390.365 396.475,405.307 394.019,419.15C399.498,420.384 406.008,421.703 411.347,423.165L420.289,499.233C421.357,508.731 423.665,524.325 424.142,533.342C438.621,536.48 455.208,540.558 469.627,543.212C473.66,538.346 485.795,518.184 489.693,511.994L529.712,448.928C534.759,450.241 539.002,451.118 544.095,452.101C544.579,450.429 545.266,448.304 545.66,446.656L553.443,410.49L510.955,400.823C503.371,399.116 493.426,397.154 486.038,395.026C481.906,409.853 480.121,422.587 476.674,437.054C478.761,437.629 481.218,438.38 483.292,438.855C476.603,450.676 468.071,464.325 460.628,475.762C460.178,464.231 456.766,444.628 455.047,432.8L460.573,433.499C464.397,419.55 466.382,404.786 469.888,391.296C462.936,389.097 454.907,387.846 447.735,386.179C432.931,382.737 417.482,379.905 402.739,376.33ZM112.982,316.204C128.146,314.394 150.756,320.367 163.193,329.012C176.755,338.439 184.806,349.681 188.14,365.684C186.922,368.879 185.777,372.274 184.632,375.51C178.462,373.858 172.101,373.027 165.714,373.037C145.209,373.045 128.663,382.141 114.438,396.265C104.25,406.814 99.159,418.143 95.901,432.207C67.812,402.172 62.245,358.095 87.483,324.501C92.98,317.184 104.508,317.03 112.982,316.204ZM163.309,386.653C170.983,385.347 178.63,387.454 185.916,389.412C191.331,399.988 188.672,400.436 197.33,412.367C186.376,413.473 175.767,416.819 166.16,422.196C150.266,431.257 141.476,444.811 136.821,462.121L135.406,469.582C125.808,461.816 116.543,452.2 107.729,443.447C113.124,412.927 131.994,391.406 163.309,386.653Z" style="fill:rgb(195,73,28);"/>
        <path d="M412.791,112.248C416.913,114.116 425.786,119.99 429.427,122.57C434.894,121.129 440.459,118.574 446.018,117.594C504.909,107.209 567.95,124.556 603.69,174.502C596.57,181.625 592.014,185.759 589.083,195.461C605.271,182.337 617.072,181.645 636.701,182.037C620.333,190.844 607.992,204.762 622.713,223.827C629.686,232.858 643.107,236.396 654.159,237.257C648.253,266.754 633.655,289.894 600.226,286.027C576.868,283.325 562.703,268.715 548.797,251.19C535.074,250.994 524.078,255.735 513.199,263.851C496.265,276.485 487.849,293.771 484.839,314.338C505.229,316.112 506.292,326.965 525.031,333.162C533.8,336.062 540.878,335.954 549.903,336.035C562.163,343.766 568.016,348.439 583.498,343.353C568.526,356.327 561.401,361.661 540.807,361.546C526.273,360.545 511.545,353.953 499.824,345.533C500.838,349.513 503.269,355.574 504.745,359.591L504.291,360.095C501.713,360.014 496.758,357.804 494.242,356.716C478.235,349.795 461.907,341.782 448.997,329.867C443.193,324.51 439.423,318.805 435.14,312.299C437.272,323.261 439.185,333.945 441.499,344.932C438.511,342.156 431.717,337.646 428.128,335.009C411.725,322.961 401.613,307.939 398.553,287.624C394.834,299.789 394.165,315.374 393.641,328.089C384.108,317.79 378.295,311.521 373.385,297.957C367.212,280.909 366.455,268.684 370.635,251.344C358.218,262.028 354.244,273.587 351.58,289.776C342.445,276.933 339.021,267.618 338.502,251.784C338.098,239.451 342.658,232.375 348.868,222.302C342.95,218.129 339.391,218.073 332.319,217.194C344.656,210.583 350.012,206.677 360.032,197.213C319.88,193.583 316.499,140.077 359.185,140.054C375.927,140.046 390.884,148.586 402.377,160.242C399.256,147.316 394.236,130.675 389.818,118.087C393.731,119.526 413.285,128.366 415.584,128.137C417.7,125.401 413.854,115.575 412.791,112.248ZM358.457,153.137C350.9,154.435 346.956,157.579 342.695,163.816C352.292,167.46 358.543,173.195 362.845,182.663C363.395,183.884 363.927,185.112 364.441,186.348L368.216,183.795C376.75,178.282 378.545,178.797 386.373,175.028C383.493,166.672 379.068,159.509 370.777,155.483C366.951,153.624 362.699,152.814 358.457,153.137ZM618.293,244.712C615.457,245.853 614.057,249.057 615.148,251.913C616.238,254.77 619.415,256.226 622.291,255.188C624.198,254.499 625.584,252.835 625.918,250.835C626.251,248.835 625.478,246.811 623.898,245.542C622.317,244.272 620.174,243.955 618.293,244.712ZM594.874,229.182C591.922,230.236 590.391,233.489 591.46,236.435C592.529,239.38 595.789,240.895 598.73,239.812C601.65,238.736 603.152,235.504 602.09,232.578C601.029,229.653 597.804,228.135 594.874,229.182ZM489.085,141.679C476.072,143.34 463.348,150.533 456.718,162.08C477.015,154.063 486.501,157.039 506.383,162.641C499.221,168.819 495.86,174.344 495.109,183.917C493.639,202.671 508.641,222.951 528.089,223.851C532.136,224.039 535.381,223.505 539.312,222.755C552.334,218.025 560.1,210.943 565.65,198.302C568.706,191.341 568.211,193.204 573.084,188.325C578.981,182.421 579.468,174.54 579.999,166.829C576.872,170.037 573.231,174.461 568.382,174.687C552.078,175.449 529.855,137.581 489.085,141.679ZM816.323,522.714C817.017,522.646 817.712,522.596 818.408,522.564C823.423,522.311 831.539,522.233 835.351,525.964C836.521,527.109 837.042,528.454 836.993,530.103C836.596,543.729 783.191,560.004 770.573,564.62C760.82,568.188 751.23,572.138 741.515,575.802C738.748,576.846 730.328,578.884 728.568,580.623C732.209,581.412 737.719,578.838 741.387,578.041C769.518,571.927 841.4,548.525 866.26,560.067C868.997,561.337 871.847,563.506 872.86,566.468C873.509,568.368 873.242,570.369 872.358,572.147C862.782,591.416 779.138,609.093 755.64,615.277C739.764,619.455 723.689,624.021 708.09,629.133C726.123,628.293 744.296,625.734 761.765,623.698C777.901,621.818 823.903,611.986 837.592,615.877C841.773,620.886 822.903,631.735 818.987,633.164C789.65,643.87 752.724,651.991 721.606,654.902C696.824,658.177 669.646,658.21 644.685,658C638.827,645.865 635.093,639.293 627.252,628.366C643.558,620.92 661.019,614.718 677.522,607.664C684.061,604.868 691.653,602.156 697.912,598.904C667.322,602.845 649.156,608.554 619.876,619.037C612.226,610.058 605.234,603.691 596.498,595.752C622.985,568.709 675.208,531.001 714.099,524.225C717.479,523.636 723.661,523.222 726.527,525.51C728.082,528.923 725.74,531.376 723.099,533.481C714.501,540.331 705.128,546.347 695.998,552.47C683.988,560.473 672.159,568.743 660.519,577.276C673.052,572.349 686.546,564.97 699.038,559.332C735.358,542.94 776.241,525.606 816.323,522.714ZM938.067,262.699C942.694,262.021 950.778,262.779 955.611,263.174C934.124,284.987 893.075,299.814 879.447,329.01C894.192,317.698 911.555,306.612 929.26,300.702C932.344,299.672 943.905,298.475 943.742,302.918C943.475,310.18 926.916,320.173 921.754,324.24C905.443,337.091 882.908,355.951 888.311,379.385C890.631,389.495 897.85,392.418 906.046,397.056C912.241,401.197 926.113,413.342 922.138,422.897C921.528,424.363 917.984,425.706 916.391,425.726C908.159,425.83 900.142,421.46 891.88,420.809C879.013,419.206 865.563,421.778 852.818,419.896C834.231,417.15 826.477,394.729 824.815,378.771C822.354,355.132 832.345,333.022 847.494,315.413C869.227,290.15 904.489,265.864 938.067,262.699ZM197.795,426.184C205.394,424.922 222.125,426.113 229.52,428.28C278.575,442.657 278.764,475.125 220.584,456.785C230.568,473.719 242.585,489.397 260.31,499.321C266.656,502.996 276.445,505.507 280.116,512.211C281.869,515.412 277.193,521.171 273.995,521.475C254.145,523.361 233.838,507.987 217.837,498.43C220.412,505.627 231.02,519.39 237.877,523.468C240.074,524.775 246.366,528.256 247.701,529.542L247.337,530.449C233.791,540.009 210.543,524.525 201.077,514.731C203.223,523.014 204.741,525.405 208.715,533.013C195.135,533.34 187.987,527.709 177.249,520.284C134.636,490.82 143.121,432.806 197.795,426.184ZM261.499,391.118C250.913,382.796 215.031,376.229 201.296,374.856C205.545,365.973 210.99,363.472 220.209,361.482C274.857,349.685 320.162,390.824 336.54,440.059C344.757,464.758 344.872,477.054 337.521,501.191C331.487,484.584 315.569,441.813 301.888,430.538C303.987,428.109 307.312,427.547 307.539,423.736C306.876,422.198 306.945,422.296 305.505,421.432C302.249,421.05 300.142,423.198 297.493,425.148C295.852,422.682 293.687,420.125 291.817,417.789C294.674,414.868 297.606,412.726 296.75,408.265C293.046,403.861 287.825,409.179 284.682,411.785C283.16,409.81 280.442,406.978 277.973,406.396C280.725,403.428 288.979,399.192 287.353,394.859C283.007,391.303 278.172,395.666 274.365,398.217C272.446,396.879 270.401,395.585 268.437,394.301C270.655,392.54 274.083,390.624 272.917,387.513C269.356,385.588 264.437,389.275 261.499,391.118ZM297.131,434.339C311.509,453.701 328.226,485.18 328.671,509.413C316.415,514.55 306.713,514.914 293.754,515.051C292.553,498.157 281.298,496.283 269.034,487.927C262.268,483.316 259.789,481.333 254.145,475.418C275.539,472.961 288.155,457.262 272.189,438.586C258.687,422.793 236.038,415.441 216.079,414.002C209.85,401.661 202.562,394.39 201.641,379.266C218.339,380.365 238.701,388.982 254.052,395.712C251.077,397.914 246.03,401.468 245.191,405.241C247.069,409.325 255.721,403.975 258.419,402.817C260.09,404.147 261.813,405.448 263.352,406.922C261.572,408.542 259.56,409.926 259.979,412.57C263.147,415.697 268.169,412.977 271.591,411.549C274.395,414.188 275.752,415.538 278.167,418.509C275.672,421.275 273.561,422.802 273.723,426.454C276.135,430.728 281.208,426.261 283.789,424.333L288.928,430.95C287.328,432.448 285.814,433.5 285.168,435.518C285.228,437.377 285.164,437.26 286.169,438.813C289.88,440.631 294.048,436.539 297.131,434.339ZM670.221,235.042C670.663,235.167 670.344,235.048 671.004,235.701C673.688,251.628 674.077,265.015 661.671,278.237C658.815,281.281 655.349,281.618 651.347,281.31C649.861,281.156 647.697,281.122 646.704,280.062C656.552,266.834 660.564,254.636 660.485,238.102C664.719,237.137 666.268,236.734 670.221,235.042Z" style="fill:rgb(151,90,34);"/>
        <path d="M295.47,207.771C298.264,204.153 300.881,201.26 303.696,198.64C290.544,175.125 292.299,152.176 302.802,135.378C312.03,120.62 328.822,109.652 350.858,107.4C349.796,104.286 348.64,101.066 347.379,97.507L338.965,73.77L358.782,74.615L350.682,61.322L382.613,62.791C399.048,63.547 422.124,74.9 438.11,85.335C462.903,79.55 493.101,81.36 517.172,85.822C559.727,93.711 600.652,114.936 627.457,149.435C641.495,150.306 652.975,152.25 665.952,159.062C680.723,166.815 689.594,176.348 694.724,187.561C699.409,197.804 700.92,209.779 699.706,224.087C700.096,226.173 701.555,234.002 701.898,236.09C704.677,253.021 701.608,274.119 691.993,290.25C713.064,294.113 739.266,298.941 745.373,300.181C751.081,301.34 756.01,302.628 761.2,304.421C767.276,301.065 773.857,299.508 780.774,299.016C787.888,298.51 795.435,299.377 802.784,299.465C808.677,299.511 814.569,299.284 820.44,298.785C853.089,263.605 893.827,231.49 945.028,232.14C950.965,232.216 970.634,234.502 980.8,240.478C991.584,246.818 995.77,256.226 993.245,266.833C992.325,270.694 989.367,276.343 984.469,282.038C981.525,285.46 977.825,289.145 974.172,292.536C974.192,292.595 974.212,292.653 974.232,292.712C978.328,305.054 974.882,317.209 966.497,328.027C958.735,338.042 946.09,346.838 938.966,352.869C933.125,357.813 926.279,363.41 922.503,370.222C924.539,371.889 927.319,374.162 929.48,375.92C938.024,382.868 946.792,391.868 951.325,404.866C955.228,416.061 954.855,429.024 949.367,439.707C944.854,448.493 937.551,454.207 928.254,457.185C917.518,460.623 907.543,457.377 897.191,454.93L897.165,454.924C893.603,454.071 889.976,453.509 886.323,453.247C876.195,452.545 868.594,453.89 860.974,454.057C852.228,454.248 843.458,453.416 832.64,449.057C832.273,449.183 831.907,449.309 831.472,449.46L831.403,449.484C808.993,457.055 788.6,460.877 767.107,452.826C720.252,470.346 676.828,478.593 627.093,480.197C616.787,503.963 603.991,526.566 588.92,547.628C590.644,549.938 592.219,552.362 593.61,554.888C593.633,554.869 593.656,554.85 593.678,554.832C606.662,543.799 620.546,533.835 634.67,524.371C649.303,514.565 688.881,493.349 717.403,491.034C732.818,489.782 745.589,493.636 754.069,502.549C767.457,497.78 782.43,493.786 794.527,491.821L794.795,491.787C805.185,490.437 818.877,489.167 831.428,490.577C841.873,491.751 851.57,494.817 859.112,500.133C866.045,505.021 869.728,510.73 871.559,516.449C872.627,519.784 873.001,523.279 872.778,526.822C890.418,531.578 900.387,541.485 904.577,551.668C908.795,561.917 908.227,573.821 902.071,585.534C896.944,595.29 887.458,605.253 873.797,613.08C873.904,614.491 873.924,615.933 873.85,617.408C873.274,628.975 866.8,639.397 858.628,647.064C846.419,658.518 824.699,667.982 800.035,674.711C766.58,683.838 727.695,688.621 705.081,690.321C692.634,691.257 680.361,691.721 668.03,691.745C668.069,693.665 668.045,695.598 667.953,697.567C673.336,703.007 676.845,709.406 679.599,716.765C686.214,720.345 690.861,724.549 696.986,731.027C711.26,715.424 725.892,702.606 747.612,696.093C763.555,691.312 775.221,692.553 789.989,696.405C827.093,686.329 846.629,723.613 845.089,754.832C844.856,759.57 844.425,763.325 843.744,767.359C847.6,774.819 850.525,783.295 849.605,791.577C848.521,801.338 844.09,807.362 838.649,811.296C835.184,813.802 830.926,815.416 826.255,816.146C823.914,819.997 821.575,823.322 818.754,826.924C819.639,832.953 819.321,838.529 817.505,843.415C815.165,849.715 810.676,855.624 801.805,859.969L799.693,861.003L797.38,861.426C790.562,862.67 785.376,862.337 779.705,861.225C769.445,868.92 761.837,873.726 751.655,880.019C754.305,894.926 751.298,904.358 747.212,909.677C743.132,914.989 737.408,918.419 729.903,919.552C726.589,920.052 722.617,919.944 718.145,919.285C717.526,923.427 716.076,927.573 713.383,931.787L713.18,932.078C706.18,942.088 696.63,945.196 685.907,943.77C676.141,942.471 664.34,934.802 656.227,929.36C646.919,930.583 640.531,928.541 635.848,925.598C631.351,922.773 627.824,918.692 625.247,913.137C623.809,910.038 622.675,906.22 621.544,901.842C619.199,899.708 616.902,897.574 614.715,895.137C596.27,874.577 588.242,849.012 592.074,822.739C588.591,819.754 586.019,816.51 583.383,811.931C574.702,807.573 567.221,801.18 561.571,793.323C546.163,791.65 534.762,786.168 524.28,778.967C514.377,772.165 505.528,763.417 493.446,755.701C464.292,737.077 434.575,728.522 400.837,728.901C400.622,729.285 400.418,729.648 400.228,729.977C377.632,769.01 344.176,798.28 296.48,792.991C291.991,795.104 287.852,796.445 283.583,797.195C285.612,800.735 287.735,804.44 287.735,804.44C319.284,813.927 349.727,839.881 344.877,875.231C347.777,880.479 349.256,885.885 349.477,891.255C349.814,899.444 347.307,907.86 340.913,915.909C331.432,927.846 317.048,933.483 302.583,936.203C294.96,947.991 279.319,953.729 266.212,944.922C263.476,943.083 261.428,941.089 259.85,938.898C258.909,938.863 257.97,938.822 257.027,938.774C247.88,948.34 234.299,954.136 219.857,943.916L219.856,943.915C215.615,940.912 212.645,935.87 210.709,930.537C208.752,929.848 206.901,929.159 205.027,928.401C196.343,933.852 188.208,933.014 182.27,930.523C177.769,928.635 173.646,925.267 170.515,920.346C167.352,915.373 165.147,908.21 164.802,900.281C151.122,883.686 148.75,875.037 142.25,860.065C138.785,860.164 135.879,859.566 133.513,858.717C125.693,855.912 119.912,849.321 117.802,839.032C117.237,836.274 117.019,833.046 116.969,829.668C110.465,828.408 105.005,825.067 101.18,819.591C98.699,816.04 96.748,811.335 96.462,804.907C96.159,798.097 99.277,791.321 103.401,785.498C102.807,783.97 102.296,782.612 102,781.393C100.844,776.62 101.1,772.419 102.364,768.638C103.746,764.509 106.683,759.258 114.9,755.344C123.612,733.777 140.512,719.884 163.024,715.358C170.85,699.857 185.719,689.821 201.953,683.584C205.616,647.758 232.293,598.81 257.329,571.312C257.167,567.522 257.49,563.885 258.18,560.404C247.436,565.377 235.737,565.818 223.038,562.957C196.261,570.264 171.067,558.712 150.513,540.974L150.151,540.662L149.808,540.33C143.468,534.205 130.954,520.971 127.714,512.743C123.736,502.64 119.429,500.63 111.131,494.191C105.625,489.917 99.181,482.181 93.501,477.169L93.442,477.116C78.375,463.57 64.019,450.187 54.257,432.158C37.094,400.457 34.222,371.266 40.967,345.278C50.729,307.658 81.587,276.177 122.654,253.976C176.221,225.018 231.306,206.328 293.166,207.705C293.93,207.722 294.698,207.744 295.47,207.771ZM381.832,79.773C386.056,86.705 390.503,93.855 392.798,101.695C383.767,96.875 373.786,92.271 363.402,91.828C367.707,103.974 370.816,112.486 373.224,125.253C320.963,115.895 291.588,159.95 326.856,202.336C317.984,208.274 313.193,212.128 306.807,221.008C312.741,220.993 316.607,220.911 322.354,222.232L320.875,228.283C312.071,225.855 302.074,224.908 292.787,224.701C233.974,223.392 181.667,241.399 130.738,268.931C69.858,301.842 32.376,356.037 69.207,424.064C78.022,440.345 91.201,452.241 104.808,464.474C110.183,469.217 116.288,476.674 121.554,480.761C132.844,489.522 138.119,492.767 143.532,506.514C146.114,513.071 156.568,523.223 161.62,528.104C178.861,542.983 199.919,553.559 222.545,545.286C237.533,549.594 250.729,548.504 262.008,536.923C270.086,537.083 276.473,537.254 283.643,533.235C285.655,532.107 288.255,530.712 290.526,531.219C292.692,538.826 269.18,554.274 275.343,577.138C249.744,601.785 219.161,655.233 218.536,690.625C218.512,692.433 218.521,694.242 218.561,696.05C199.913,701.075 180.165,710.486 175.349,730.876C151.771,732.301 134.683,745.783 128.314,768.652C112.346,772.43 119.417,777.122 122.576,789.09C118.662,793.031 113.182,798.24 113.445,804.151C113.997,816.537 126.911,813.454 134.275,811.023C134.514,825.367 128.78,852.714 151.49,839.674C163.579,863.777 161.676,871.099 181.981,894.234C180.116,910.013 189.094,924.392 202.027,908.307C210.783,912.78 215.696,914.349 224.943,917.372C225.454,921.512 226.08,927.492 229.679,930.04C238.314,936.151 245.392,927.584 249.13,921.171C257.058,921.895 263.374,922.08 271.384,922.097C272.106,925.642 272.474,928.648 275.695,930.813C280.532,934.063 286.085,930.903 288.665,926.385C289.786,924.422 290.003,923.011 290.305,920.812C303.653,919.402 318.702,916.541 327.601,905.336C334.583,896.547 333.933,887.265 326.78,878.853C335.969,846.518 304.261,825.071 276.538,819.093L260.885,791.776C262.883,787.602 264.221,784.911 265.587,780.474C276.817,781.568 283.66,780.954 293.451,775.416C336.482,782.552 365.609,755.847 385.515,721.46C387.054,718.801 389.419,714.505 391.238,712.215C432.323,709.966 467.823,719.16 502.598,741.374C527.115,757.034 538.601,776.769 571.493,776.853C576.364,787.023 585.028,794.876 595.626,798.727C599.87,807.33 602.757,810.283 611.059,815.161C603.997,839.878 610.093,864.528 627.369,883.784C630.338,887.093 633.564,889.743 636.796,892.752C640.378,907.373 641.693,916.458 659.715,911.275C668.201,916.657 689.805,935.839 699.249,922.335C704.558,914.026 698.622,905.137 700.41,896.913C700.546,896.866 700.682,896.818 700.819,896.77C726.561,906.827 744.217,908.284 732.069,872.144C750.144,860.902 758.843,856.068 775.736,842.845C782.57,844.57 787.196,846.004 794.327,844.702C804.26,839.837 803.243,831.882 800.324,822.61C807.393,814.229 811.041,809.226 816.192,799.289C824.002,800.455 831.652,799.213 832.709,789.7C833.475,782.804 829.344,775.968 825.89,770.299C827.103,764.333 827.808,760.114 828.11,753.994C829.178,732.338 817.358,703.783 790.411,714.139C776.593,710.238 766.664,708.128 752.495,712.377C730.578,718.949 717.342,733.408 702.878,749.967C699.616,749.972 695.773,750.069 692.569,749.841C689.466,748.064 687.365,745.605 684.919,743.009C678.534,736.233 674.398,732.536 665.785,729.074C662.782,719.017 659.442,710.763 650.143,705.04C651.799,693.985 651.008,685.348 648.88,674.427C667.329,675.069 685.372,674.755 703.806,673.369C740.225,670.631 820.326,659.687 846.997,634.666C852.052,629.923 856.515,623.718 856.871,616.562C857.103,611.919 855.435,607.953 852.998,604.11C900.24,586.314 906.497,541.161 849.021,540.899C855.84,532.429 860.264,521.745 849.317,514.028C835.897,504.568 812.371,506.646 796.985,508.645C780.838,511.267 758.7,517.963 743.945,525.039C743.987,522.677 744.143,519.408 743.971,517.125C727.645,491.345 663.033,525.828 644.134,538.493C630.507,547.624 617.103,557.225 604.582,567.875C600.631,571.025 586.676,585.207 584.297,585.843C583.098,583.168 583.312,578.087 582.87,575.073C581.317,564.462 574.658,555.533 566.84,548.802C587.051,522.794 603.482,494.058 615.644,463.448C670.367,462.77 716.584,454.317 767.493,434.482C787.279,444.266 805.598,440.258 825.962,433.378C828.489,432.5 831.026,431.652 833.572,430.834C855.233,441.661 866.009,434.793 887.522,436.289C892.106,436.617 896.656,437.321 901.126,438.392C908.459,440.125 915.446,443.436 923.07,440.995C927.949,439.432 931.877,436.55 934.246,431.939C937.627,425.357 937.678,417.361 935.273,410.464C928.523,391.11 908.143,384.444 904.762,375.745C903.28,371.932 904.68,368.029 906.331,364.524C910.868,354.89 919.939,346.702 927.983,339.893C938.724,330.801 963.816,315.293 958.097,298.067C956.996,294.749 953.743,292.063 951.111,289.933C957.127,285.327 975.04,269.897 976.707,262.895C979.302,251.998 951.282,249.221 944.812,249.139C896.318,248.523 858.832,281.515 828.609,315.043C819.983,316.058 811.302,316.533 802.617,316.464C788.836,316.304 774.317,312.921 763.769,323.646C755.856,320.272 749.753,318.417 741.991,316.841C729.808,314.368 659.838,305.383 654.064,298.901C655.395,296.264 661.092,296.326 663.616,295.081C682.762,285.546 688.307,258.245 685.123,238.844C684.629,235.837 682.456,225.919 682.644,223.999C684.894,200.903 679.58,185.415 658.051,174.114C645.035,167.282 633.726,166.62 618.532,166.018C594.551,131.117 555.057,110.135 514.073,102.537C489.782,98.034 458.583,96.143 434.984,103.827C421.687,94.061 398.103,80.521 381.832,79.773ZM136.639,773.834C137.191,774.539 141.924,787.228 144.034,790.759C150.975,802.37 158.641,813.002 165.455,824.661C175.564,841.958 181.334,862.612 194.605,877.71C211.922,897.413 242.051,901.281 266.78,901.147C276.583,901.094 286.261,900.786 295.906,898.68C298.602,898.091 301.13,897.554 303.762,896.671C307.539,895.403 312.782,891.728 316.634,891.92L317.388,892.791C317.486,895.088 315.541,897.703 314.237,899.457C292.884,917.773 227.476,910.584 204.319,896.533C178.319,880.758 171.822,851.83 158.546,826.616C150.17,810.708 137.96,798.382 133.691,780.735C134.66,777.626 134.895,776.722 136.639,773.834ZM632.927,292.111C635.899,291.69 639.07,291.7 640.979,294.267C640.966,295.186 640.836,296.357 640.343,297.149C633.878,307.514 625.457,324.725 613.537,328.991C610.152,329.791 608.639,329.888 605.19,330.146C612.571,317.365 617.517,308.649 622.993,295.066C626.61,293.756 629.179,293.059 632.927,292.111ZM409.55,386.787C415.189,387.758 422.666,389.652 428.375,390.915C438.711,393.139 449.026,395.459 459.319,397.876C458.307,406.155 456.085,415.455 454.182,423.605L444.826,421.368C445.799,429.941 447.528,439.882 448.797,448.496C451.333,465.531 453.695,482.591 455.884,499.674C460.177,493.42 464.647,485.626 468.785,479.039C478.378,463.634 488.131,448.33 498.042,433.129C494.49,432.228 490.367,431.467 486.737,430.713C488.479,422.455 490.169,413.848 492.31,405.714C498.886,407.443 540.717,415.758 542.865,417.765L542.591,419.616C541.038,427.082 539.419,434.533 537.732,441.97C533.845,440.922 529.497,440.059 525.534,439.191L465.824,533.426C454.699,531.255 443.299,528.414 432.101,526.112C431.788,521.913 431.158,516.889 430.541,512.676C425.861,480.716 424.001,447.016 418.207,415.333C413.033,414.468 409.179,413.62 404.116,412.275C406.091,404.73 407.909,394.597 409.55,386.787ZM803.247,765.812C810.777,768.461 818.102,779.767 820.786,786.97C818.035,787.042 815.145,786.98 812.382,786.965C804.668,785.89 800.641,784.637 793.742,781.199C796.35,775.264 799.014,770.669 803.247,765.812ZM509.196,164.384C516.59,165.907 536.466,178.583 543.253,183.411C526.206,181.285 512.766,192.973 520.247,210.339C523.146,215.108 524.191,215.734 528.789,218.923C527.156,218.724 525.532,218.453 523.923,218.111C500.477,213.165 488.935,177.123 509.196,164.384ZM252.352,812.04C254.938,811.908 256.238,811.609 258.099,813.562L258.05,814.958C255.56,818.841 235.576,829.842 230.94,831.547C228.537,832.112 227.4,832.578 225.353,831.044C224.94,829.992 224.5,829.245 225.213,828.027C228.476,822.45 246.811,813.862 252.352,812.04ZM760.372,729.672C762.776,729.407 766.534,729.555 769.053,729.578C755.458,743.368 743.743,754.474 733.051,770.737L732.574,771.216L731.801,770.849C728.293,764.606 726.662,757.527 725.442,750.535C734.584,738.601 745.289,731.579 760.372,729.672ZM286.843,843.871C298.454,845.278 315.423,869.845 302.399,878.735L298.1,880.545C301.702,866.305 299.524,858.302 289.238,847.664C289.281,847.095 289.32,846.526 289.355,845.957L286.843,843.871ZM681.997,892.871C686.074,893.044 689.151,912.293 689.621,915.527C686.652,914.181 685.227,913.278 682.483,911.551C678.322,908.37 674.42,904.864 670.813,901.067C674.795,897.477 677.459,895.65 681.997,892.871ZM523.305,296.703C536.626,295.447 545.402,310.284 549.038,321.118C544.284,320.846 539.512,319.93 534.876,318.898C522.621,316.134 514.081,311.631 505.431,302.608C511.893,298.926 515.992,297.495 523.305,296.703ZM301.888,430.538L297.131,434.339C294.048,436.539 289.88,440.631 286.169,438.813C285.164,437.26 285.228,437.377 285.168,435.518C285.814,433.5 287.328,432.448 288.928,430.95L283.789,424.333C281.208,426.261 276.135,430.728 273.723,426.454C273.561,422.802 275.672,421.275 278.167,418.509C275.752,415.538 274.395,414.188 271.591,411.549C268.169,412.977 263.147,415.697 259.979,412.57C259.56,409.926 261.572,408.542 263.352,406.922C261.813,405.448 260.09,404.147 258.419,402.817C255.721,403.975 247.069,409.325 245.191,405.241C246.03,401.468 251.077,397.914 254.052,395.712L261.499,391.118C264.437,389.275 269.356,385.588 272.917,387.513C274.083,390.624 270.655,392.54 268.437,394.301L264.141,397.271L270.306,401.333L274.365,398.217C278.172,395.666 283.007,391.303 287.353,394.859C288.979,399.192 280.725,403.428 277.973,406.396L277.313,407.267C278.746,409.674 280.227,410.787 282.564,412.297C283.724,412.315 283.642,412.314 284.682,411.785C287.825,409.179 293.046,403.861 296.75,408.265C297.606,412.726 294.674,414.868 291.817,417.789L288.036,421.106L293.537,428.047L297.493,425.148C300.142,423.198 302.249,421.05 305.505,421.432C306.945,422.296 306.876,422.198 307.539,423.736C307.312,427.547 303.987,428.109 301.888,430.538ZM711.122,755.957C713.269,755.876 712.972,755.578 714.649,756.422C717.841,760.757 717.854,769.309 714.387,773.622C705.283,773.509 708.51,761.021 711.122,755.957ZM639.652,721.581C645.28,721.767 647.445,728.282 649.538,732.663C642.29,739.188 628.788,747.981 620.357,754.295C633.197,749.463 649.685,739.187 663.446,745.466C652.2,753.282 648.893,763.766 644.575,776.262C639.511,779.44 635.903,781.808 631.251,785.565C626.325,790.237 623.605,794.325 619.719,799.833C610.119,793.337 609.367,786.881 606.634,776.346C604.435,778.174 601.066,780.472 598.676,782.204C594.627,779.417 591.763,775.743 588.657,771.987C601.515,749.058 611.008,727.816 639.652,721.581ZM218.783,712.4C219.947,712.342 219.358,712.27 220.525,713.032C222.59,716.86 217.401,731.522 227.194,738.847C227.383,737.852 224.563,733.977 224.01,731.521C222.756,725.956 223.154,723.661 224.1,718.349C234.851,746.267 251.843,756.616 276.68,769.635C265.57,767.282 258.548,766.622 248.674,760.952C243.306,757.878 238.995,753.875 232.912,751.643C236.986,758.815 240.964,762.374 246.784,768.094C233.966,766.675 226.397,762.966 215.534,770.096C208.336,764.556 196.027,754.708 192.733,746.354C186.185,729.748 206.057,717.73 218.783,712.4ZM684.088,764.897C686.186,764.705 686.396,764.621 687.575,766.157C688.616,771.201 683.495,783.535 682.021,789.011C681.51,790.912 680.002,791.56 678.317,792.327C675.379,790.72 674.363,788.98 674.789,785.54C675.608,778.923 679.089,769.391 684.088,764.897ZM719.305,873.892C722.416,877.568 724.365,886.726 725.343,891.339C722.228,890.677 719.931,890.072 716.876,889.164C712.901,887.476 711.233,886.526 707.653,884.182C711.522,879.531 714.348,877.393 719.305,873.892ZM697.171,762.797C699.359,763.178 699.481,763.221 700.737,764.607C701.16,767.626 701.096,781.479 700.58,784.451C699.569,785.924 698.378,786.21 696.714,786.939C690.133,782.016 692.369,767.987 697.171,762.797ZM775.42,813.327C782.3,814.405 789.876,827.19 792.679,833.024C789.646,833.058 787.258,832.946 784.244,832.766C780.414,832.094 773.054,830.018 769.843,827.988C763.087,823.717 772.147,816.365 775.42,813.327ZM672.855,758.373C675.339,758.334 676.535,759.571 676.92,762.017C676.643,762.643 671.863,768.283 670.981,769.394C667.814,773.382 664.426,784.276 661.265,786.677C659.928,786.241 657.705,785.614 657.07,784.407C653.08,776.82 667.986,761.891 672.855,758.373ZM797.758,729.602C803.442,728.939 808.822,731.217 811.899,736.799C812.42,737.745 811.892,739.072 811.45,740.014C810.023,740.157 804.267,740.561 803.21,740.873C787.25,745.574 773.321,767.452 763.967,780.163C757.774,788.658 751.468,797.071 745.05,805.397C735.933,817.232 726.08,828.481 715.549,839.078C709.883,844.891 703.946,850.435 697.758,855.69C683.753,867.387 669.014,877.055 659.222,892.891L656.478,898.371C645.697,893.938 649.183,886.669 655.403,879.344C669.76,862.439 688.609,850.38 704.683,835.144C725.212,815.685 741.18,792.79 757.674,769.968C767.071,757.222 782.611,734.816 797.758,729.602ZM210.874,786.67C215.091,787.029 231.424,791.504 236.402,792.776C239.59,790.681 243.085,788.455 247.01,788.597C249.549,790.121 248.315,792.791 247.345,795.154C246.24,797.847 253.825,800.996 250.816,804.345C246.424,809.234 239.98,801.446 235.181,803.625C231.926,806.528 224.216,814.373 220.675,815.49C214.802,815.049 216.859,809.671 219.652,807.073C222.423,804.496 225.301,801.957 228.143,799.49C223.373,797.78 200.52,794.7 210.874,786.67ZM261.467,821.85C263.035,822.585 263.13,822.5 264.12,823.986C264.799,829.03 251.344,836.462 247.194,838.416C245.891,838.108 246.156,838.151 244.93,837.526C241.514,831.939 257.469,823.856 261.467,821.85ZM579.857,291.205C591.065,296.025 603.342,297.821 615.461,296.414C611.494,305.839 605.255,318.949 600.31,327.929C592.243,332.678 576.153,330.741 567.065,329.813C572.288,315.821 575.674,305.524 579.857,291.205Z" style="fill:rgb(247,223,185);"/>
    </g>
</svg>
