<svg width="100%" height="100%" viewBox="0 0 3321 3400" version="1.1" xmlns="http://www.w3.org/2000/svg" xmlns:xlink="http://www.w3.org/1999/xlink" xml:space="preserve" xmlns:serif="http://www.serif.com/" style="fill-rule:evenodd;clip-rule:evenodd;stroke-linejoin:round;stroke-miterlimit:2;">
    <g transform="matrix(1,0,0,1,-373.957,-339.828)">
        <path d="M2450.56,3734.65C2380.33,3738.23 2282.34,3735.62 2210.4,3735.79L1721.16,3735.99L375.577,3739.63C373.381,3475.75 373.417,3211.85 375.685,2947.97C407.929,2928.35 439.428,2904.59 472.195,2884.65C484.094,2873.8 519.467,2858.1 525.618,2844.36C522.445,2818.59 524.062,2737.11 523.992,2707.07L523.532,2422.22L523.199,1873.62C522.944,1760.19 523.268,1646.75 524.173,1533.32C522.243,1513.95 523.919,1453.87 523.99,1431.11L524.216,1215.98C498.822,1199.88 472.507,1180.3 446.933,1163.69C435.665,1156.37 400.313,1133.38 391.678,1125.55C385.241,1122.54 381.065,1119.36 375.284,1115.35L375.635,341.198C443.18,339.031 515.751,340.082 583.655,340.087L926.01,340.188L1930.25,340.111L2431.4,340.113C2500.69,340.26 2571.57,339.141 2640.65,342.829C2658.48,343.781 2678.97,344.486 2696.28,347.879C2730.21,347.384 2793.4,360.555 2826.78,368.557C3011.01,410.991 3179.88,503.627 3314.67,636.19C3360.48,680.596 3405.32,729.387 3443.57,780.588C3671.3,1085.47 3705.18,1635.76 3426.4,1922.6C3422.21,1926.91 3417.91,1931.11 3413.51,1935.21C3599.9,2105.68 3685.8,2329.24 3693.93,2578.51C3703.67,2876.83 3588.23,3149.35 3387.38,3366.23C3218.6,3548.48 2979.07,3672.9 2736.36,3715.86C2682.05,3724.94 2627.2,3730.38 2572.16,3732.15C2541.38,3733.41 2479.42,3736.62 2450.56,3734.65Z" style="fill:rgb(0,27,48);" data-color="color-1"/>
        <path d="M444.981,1058C441.207,1051.08 443.833,461.436 445.643,407.749L1901.78,407.321L2363.63,407.56C2541.67,407.581 2713.45,398.132 2882.8,462.146C2892.12,465.67 2900.83,468.445 2910.04,472.607C2995.6,501.76 3127.15,570.7 3194.68,631.196C3211,641.351 3250.79,679.207 3265.12,692.964C3392.87,815.65 3481.87,973.082 3521.11,1145.8C3575.71,1380.13 3542.05,1660.82 3388.75,1854.14C3369.76,1878.08 3331.19,1919.08 3306.55,1937.74C3330.11,1957.78 3361.84,1983.66 3382.78,2005.35C3431.89,2056.22 3476.75,2117.82 3511.2,2179.56C3516.52,2189.09 3536.57,2226.7 3538.91,2235.6C3596.73,2363.22 3628.47,2527.84 3615.15,2667.79C3611.48,2707.13 3607.57,2754.16 3600.41,2792.48C3567.89,2966.61 3499.9,3114.77 3386.93,3251.68C3335.25,3314.31 3300.91,3354.74 3238.1,3406.88C3163.66,3468.21 3081.79,3519.91 2994.41,3560.74C2986.33,3564.57 2955.8,3578.6 2948.8,3579.3C2861.39,3622.69 2641.44,3669.48 2544.04,3662.29C2531.13,3664.12 2494.42,3663.01 2480.03,3662.76L2363.42,3660.75L1963.61,3660.32L447.075,3660.16C444.58,3603.9 445.804,3540.37 445.813,3483.55L446.071,3192.68C446.197,3133.16 445.127,3070.7 448.398,3011.31C449.038,2999.69 502.513,2965.15 514.769,2956.5C546.061,2934.38 577.219,2912.07 608.242,2889.57C609.651,2824.34 608.192,2752.77 608.169,2687.19L608.132,2272.52L609.158,1179C592.689,1167.3 572.739,1153.88 557.204,1141.4C532.061,1124.41 463.74,1078.49 444.981,1058ZM3523.34,2475.3C3520.84,2470.66 3511.84,2424.99 3509.68,2415.97C3472.05,2259.53 3384.46,2119.62 3260.18,2017.43C3236.74,1997.81 3211.39,1977.25 3185.36,1961.28C3209.98,1940.75 3233.06,1916.37 3255.07,1893.02C3266.18,1881.23 3279.12,1864.29 3290.52,1853.65C3290.52,1853.65 3376.36,1743.34 3385.22,1726.11C3411.66,1674.73 3440.07,1610.93 3452.9,1553.68C3454.62,1546.02 3455.8,1510.28 3458.25,1492.68C3465.22,1442.67 3471.21,1395.14 3469.45,1344.49C3468.92,1329.35 3463.09,1260.71 3461.58,1243.75C3458.75,1211.77 3405.09,1055.83 3405.09,1055.83C3388.74,1021.06 3374.46,987.745 3355.18,954.297C3250.71,769.726 3083.41,628.827 2883.76,557.269C2721.84,498.922 2592.35,494.645 2424.05,492.947C2343.35,492.308 2262.65,492.084 2181.95,492.274L1681.89,492.184L532.312,492.275L532.169,1020.11C582.054,1054.48 645.155,1092.88 692.334,1127.74L692.122,2939.86C647.051,2975.13 581.16,3013.72 532.182,3047.59L532.253,3405.15L532.261,3512.87C532.267,3531.24 533.098,3559.09 531.088,3576.49C542.75,3575.06 573.958,3575.76 586.571,3575.77L688.316,3575.87L1035.06,3575.84L2176.83,3574.72C2591.57,3573.68 2842.48,3598.4 3193.17,3334.49C3194.32,3333.05 3200.02,3328.38 3201.75,3326.89C3409.95,3147.73 3526.16,2892.44 3536.07,2618.84C3537.74,2572.68 3529.67,2521.06 3523.34,2475.3Z" style="fill:rgb(185,19,38);" data-color="color-2"/>
        <path d="M3201.75,3326.89C3200.02,3328.38 3194.32,3333.05 3193.17,3334.49C2842.48,3598.4 2591.57,3573.68 2176.83,3574.72L1035.06,3575.84L688.316,3575.87L586.571,3575.77C573.958,3575.76 542.75,3575.06 531.088,3576.49C533.098,3559.09 532.267,3531.24 532.261,3512.87L532.253,3405.15L532.182,3047.59C581.16,3013.72 647.051,2975.13 692.122,2939.86L692.334,1127.74C645.155,1092.88 582.054,1054.48 532.169,1020.11L532.312,492.275L1681.89,492.184L2181.95,492.274C2262.65,492.084 2343.35,492.308 2424.05,492.947C2592.35,494.645 2721.84,498.922 2883.76,557.269C3083.41,628.827 3250.71,769.726 3355.18,954.297C3374.46,987.745 3388.74,1021.06 3405.09,1055.83C3405.09,1055.83 3458.75,1211.77 3461.58,1243.75C3463.09,1260.71 3468.92,1329.35 3469.45,1344.49C3471.21,1395.14 3454.62,1546.02 3452.9,1553.68C3440.07,1610.93 3411.66,1674.73 3385.22,1726.11C3376.36,1743.34 3290.52,1853.65 3290.52,1853.65C3279.12,1864.29 3266.18,1881.23 3255.07,1893.02C3233.06,1916.37 3209.98,1940.75 3185.36,1961.28C3211.39,1977.25 3236.74,1997.81 3260.18,2017.43C3384.46,2119.62 3472.05,2259.53 3509.68,2415.97C3511.84,2424.99 3520.84,2470.66 3523.34,2475.3C3529.67,2521.06 3537.74,2572.68 3536.07,2618.84C3526.16,2892.44 3409.95,3147.73 3201.75,3326.89ZM619.571,576.134L619.675,961.982C672.691,995.964 725.419,1030.39 777.854,1065.27L777.209,2996.39C727.724,3031.9 669.511,3071.06 618.357,3104.59L618.654,3495.62L1952.48,3495.26L2318.68,3495.19C2474.36,3495.22 2603,3501.95 2756.45,3466.18C2936.27,3424.27 3079.71,3351.58 3211.59,3220.89C3371.25,3062.64 3458.05,2828.93 3455.51,2604.97C3454.05,2413.04 3376,2229.63 3238.69,2095.5C3198.94,2057.06 3152.73,2023.35 3106.02,1993.79C3096.76,1987.93 3066.71,1971.49 3063.82,1964.2C3076.29,1960.31 3117.88,1923.6 3129.96,1913.06C3238.56,1818.33 3321.01,1705.47 3357.04,1563.96C3366.29,1537.47 3374.86,1488.8 3378.64,1460.6C3400.83,1308.45 3377.39,1172.09 3310.4,1034.16C3214.14,835.953 3057.5,697.524 2849.19,625.411C2731.85,584.787 2630.75,575.383 2507.21,575.362L2361.05,575.398L1898.71,575.543L1060.02,575.713C914.095,575.748 765.308,574.334 619.571,576.134ZM1454.45,2977.31L1154.62,2970.77C1096.17,2969.73 1010.67,2971.78 954.352,2961.79C999.393,2955.1 1064.48,2951.03 1110.49,2947.97C1148.71,2945.32 1186.65,2943.74 1224.81,2941.46C1330.66,2935.13 1436.85,2941.05 1542.74,2936.29C1556.89,2954.2 1565.97,2964.58 1583.13,2979.75C1550.56,2974.06 1491.92,2978.2 1454.45,2977.31ZM1454.45,2324.98C1491.92,2324.09 1550.56,2328.23 1583.13,2322.54C1565.97,2337.71 1556.89,2348.09 1542.74,2366C1436.85,2361.24 1330.66,2367.16 1224.81,2360.83C1186.65,2358.55 1148.71,2356.97 1110.49,2354.32C1064.48,2351.26 999.393,2347.19 954.352,2340.5C1010.67,2330.51 1096.17,2332.56 1154.62,2331.52L1454.45,2324.98ZM2249.36,1859.09C2025.52,1844.72 1831.03,1761.25 1651.62,1628.13C1580.73,1575.78 1430.17,1452.44 1432.73,1358.82C1434.92,1278.67 1564.9,1158.86 1623.22,1106.02C1819.16,928.482 2078.77,818.032 2346.49,832.602C2622.38,853.662 2878.76,982.922 3059.76,1192.2C3097.12,1235.29 3165.81,1313.78 3161.61,1372.4C3156.95,1419.89 3119.73,1464.45 3088.52,1497.79C3003.88,1588.24 2896.99,1671.57 2788.43,1731.31C2617.59,1825.31 2444.39,1869.67 2249.36,1859.09ZM2940.91,1155.31C2933.05,1147.41 2925.27,1139.43 2917.58,1131.37C2916.59,1199.77 2917.69,1273.28 2918.58,1341.69C2876.51,1340.33 2834.41,1340.09 2792.32,1340.97C2791.22,1240.28 2788.06,1136.73 2788.08,1036.96C2715.23,993.142 2617.45,951.522 2535.65,929.812C2347.14,878.892 2147.26,889.802 1965.41,960.942C1905.24,984.842 1860.15,1009.49 1804.46,1041.88L1803.28,1339.58C1761.12,1339.16 1718.96,1339.06 1676.81,1339.29L1675.84,1136.22L1665.06,1146.05C1613.88,1192.76 1511.25,1280.86 1502.18,1355.26C1500.62,1368.05 1510.53,1390.23 1516.03,1402.51C1551.61,1482.02 1618.37,1524.08 1676.1,1581.61C1674.87,1519.96 1675.86,1455.13 1675.83,1393.24L1803.91,1394.24C1803.69,1482.5 1802.33,1574.86 1804.82,1662.86C1871.45,1697.57 1940.98,1726.4 2012.63,1749.01C2193.64,1807.49 2388.18,1809.41 2570.32,1754.52C2650.48,1729.65 2715.12,1699.1 2789.23,1661.2C2787.05,1572.59 2794.3,1481.85 2790.42,1394.11L2915.82,1394.42C2916.12,1456.59 2915.97,1518.76 2915.37,1580.92C2954.01,1545.18 3013.41,1500.87 3042.69,1456.04C3065.34,1426.76 3081.9,1393.25 3091.43,1357.49C3066.86,1283.54 3025.48,1238.25 2971.02,1183.89C2965.96,1178.84 2944.82,1158.07 2940.91,1155.31ZM1940.65,1330C1963.69,1324.86 1975.37,1326.33 1999,1328.21C1997.93,1320.31 1996.85,1310 1994.94,1302.46C1992.77,1279.9 1986.28,1246.58 1999.32,1227.35C2007.04,1215.95 2030.35,1214.84 2039.28,1224.54C2052.58,1238.99 2049.42,1271.34 2049.38,1290.37C2049.22,1301.94 2048.81,1314.5 2049.07,1325.96C2077.31,1326 2106.45,1325.68 2134.61,1326.32C2134.09,1299.82 2133.82,1273.32 2133.78,1246.82C2134.19,1235.46 2138.28,1218.47 2150.41,1216.91C2178.14,1213.35 2187.29,1249.12 2190.14,1265.62C2189.74,1282.95 2189.71,1300.28 2190.03,1317.61L2190.65,1323.1C2197.57,1327.98 2221.95,1324.93 2231.46,1324.3C2245,1324.98 2258.54,1325.53 2272.08,1325.95C2271.86,1319.53 2271.61,1299.49 2270.88,1294.04C2270.48,1264.19 2262.58,1203.26 2312.74,1222.14C2315.57,1228.29 2322.83,1240.9 2324.2,1245.34C2331.47,1268.94 2327.21,1302.71 2325.82,1328.15C2354.13,1328.05 2381.24,1327.97 2409.53,1329.06C2406.81,1303.66 2409.43,1265.75 2410.21,1239.09C2418.7,1211 2452.01,1211.45 2459.97,1238.91C2459.68,1264.44 2463.74,1301.12 2464.31,1329.67C2491.4,1329.37 2519.41,1329.99 2546.57,1330.25L2546.21,1291.31C2546.17,1274.68 2542.98,1230.39 2558.17,1224.4C2602.93,1206.75 2602.17,1250.57 2602.61,1279.72C2602.95,1301.57 2606.32,1313.1 2601.65,1331.81C2617.82,1332.04 2646,1330.41 2659.1,1340.3C2673.83,1351.49 2679.52,1380.6 2665.48,1394.2C2653.96,1405.36 2617.21,1399.14 2601.64,1398C2602,1400.64 2602.31,1403.29 2602.54,1405.94C2605.07,1433.5 2609.94,1477.25 2590.57,1499.21C2584.61,1506.07 2575.96,1510 2566.87,1509.99C2534.95,1509.88 2543.94,1430.53 2544.06,1406.4C2517.06,1405.66 2488.72,1405.91 2461.61,1405.75C2463.91,1432.96 2468.66,1465.02 2456.39,1490.47C2448.36,1507.12 2427.97,1513.75 2412.11,1503.55C2403.94,1488.62 2405.58,1421.71 2408.4,1404.16C2382.4,1403.35 2351.92,1404.61 2325.57,1405.14C2326.41,1434.77 2330.94,1474.59 2312.32,1499.81C2303.96,1511.13 2285.09,1512.24 2274.98,1502.79C2268.03,1486.4 2271.16,1426.8 2271.52,1405.84C2243.79,1403.88 2217.99,1403.76 2190.18,1403.54C2192.31,1421.68 2194.23,1449.46 2191.63,1467.2C2186.38,1503.04 2169.25,1511.62 2137.31,1507.06C2132.82,1475.42 2132.91,1436.64 2132.15,1404.03C2108.12,1403.78 2075.02,1400.52 2049.49,1399.41C2052.42,1428.45 2061.79,1508.08 2015.18,1506.47C1981.62,1505.3 1996.51,1416.96 1998.25,1394.1C1966.4,1395.96 1918.65,1398.03 1924.07,1350.23C1925.21,1340.17 1933,1335.38 1940.65,1330ZM1301.42,2809.37C1234.99,2807.43 1168.62,2806.66 1102.3,2804.61C1073.05,2803.71 1024.26,2801.77 996.622,2795.19C1040.34,2789.25 1085.63,2787.9 1129.74,2786.62C1202.6,2785.58 1275.71,2782.08 1348.6,2780.68C1360.77,2780.45 1374.72,2779.94 1386.79,2778.54C1395.8,2789.29 1404.6,2800.07 1414.24,2810.25C1377.11,2810.19 1338.4,2810.67 1301.42,2809.37ZM1301.42,2492.92C1338.4,2491.62 1377.11,2492.1 1414.24,2492.04C1404.6,2502.22 1395.8,2513 1386.79,2523.75C1374.72,2522.35 1360.77,2521.84 1348.6,2521.61C1275.71,2520.21 1202.6,2516.71 1129.74,2515.67C1085.63,2514.39 1040.34,2513.04 996.622,2507.1C1024.26,2500.52 1073.05,2498.58 1102.3,2497.68C1168.62,2495.63 1234.99,2494.86 1301.42,2492.92ZM1454.45,1680.96L1154.62,1674.42C1096.17,1673.38 1010.67,1675.43 954.352,1665.44C999.393,1658.75 1064.48,1654.68 1110.49,1651.62C1148.71,1648.97 1186.65,1647.39 1224.81,1645.11C1330.66,1638.78 1436.85,1644.7 1542.74,1639.94C1556.89,1657.85 1565.97,1668.23 1583.13,1683.4C1550.56,1677.71 1491.92,1681.85 1454.45,1680.96ZM1267.99,1373.01C1172.32,1370.42 1071.73,1371.96 974.037,1368.45C935.07,1367.06 895.277,1363.07 858.902,1356.87C895.319,1348.74 933.771,1343.86 972.787,1343.63C1098.65,1339.72 1238.48,1335.13 1364.29,1329.85C1363.78,1330.07 1363.62,1373.69 1364.06,1374C1332.33,1373.76 1299.63,1373.92 1267.99,1373.01ZM1301.42,1513.02C1234.99,1511.08 1168.62,1510.31 1102.3,1508.26C1073.05,1507.36 1024.26,1505.42 996.622,1498.84C1040.34,1492.9 1085.63,1491.55 1129.74,1490.27C1202.6,1489.23 1275.71,1485.73 1348.6,1484.33C1360.77,1484.1 1374.72,1483.59 1386.79,1482.19C1395.8,1492.94 1404.6,1503.72 1414.24,1513.9C1377.11,1513.84 1338.4,1514.32 1301.42,1513.02ZM1454.45,1028.63C1491.92,1027.74 1550.56,1031.88 1583.13,1026.19C1565.97,1041.36 1556.89,1051.74 1542.74,1069.65C1436.85,1064.89 1330.66,1070.81 1224.81,1064.48C1186.65,1062.2 1148.71,1060.62 1110.49,1057.97C1064.48,1054.91 999.393,1050.84 954.352,1044.15C1010.67,1034.16 1096.17,1036.21 1154.62,1035.17L1454.45,1028.63ZM1301.42,1196.57C1338.4,1195.27 1377.11,1195.75 1414.24,1195.69C1404.6,1205.87 1395.8,1216.65 1386.79,1227.4C1374.72,1226 1360.77,1225.49 1348.6,1225.26C1275.71,1223.86 1202.6,1220.36 1129.74,1219.32C1085.63,1218.04 1040.34,1216.69 996.622,1210.75C1024.26,1204.17 1073.05,1202.23 1102.3,1201.33C1168.62,1199.28 1234.99,1198.51 1301.42,1196.57ZM1267.99,2632.93C1299.63,2632.02 1332.33,2632.18 1364.06,2631.94C1363.62,2632.25 1363.78,2675.88 1364.29,2676.09C1238.48,2670.81 1098.65,2666.22 972.787,2662.31C933.771,2662.08 895.319,2657.2 858.902,2649.08C895.277,2642.87 935.07,2638.88 974.037,2637.49C1071.73,2633.99 1172.32,2635.52 1267.99,2632.93ZM2249.36,2146.85C2444.39,2136.27 2617.59,2180.63 2788.43,2274.63C2896.99,2334.37 3003.88,2417.7 3088.52,2508.15C3119.73,2541.49 3156.95,2586.05 3161.61,2633.54C3165.81,2692.16 3097.12,2770.65 3059.76,2813.74C2878.76,3023.02 2622.38,3152.28 2346.49,3173.34C2078.77,3187.91 1819.16,3077.46 1623.22,2899.92C1564.9,2847.08 1434.92,2727.27 1432.73,2647.12C1430.17,2553.5 1580.73,2430.16 1651.62,2377.81C1831.03,2244.69 2025.52,2161.22 2249.36,2146.85ZM2940.91,2850.63C2944.82,2847.87 2965.96,2827.1 2971.02,2822.05C3025.48,2767.69 3066.86,2722.4 3091.43,2648.45C3081.9,2612.69 3065.34,2579.18 3042.69,2549.9C3013.41,2505.07 2954.01,2460.76 2915.37,2425.02C2915.97,2487.18 2916.12,2549.35 2915.82,2611.52L2790.42,2611.83C2794.3,2524.09 2787.05,2433.35 2789.23,2344.74C2715.12,2306.84 2650.48,2276.29 2570.32,2251.42C2388.18,2196.53 2193.64,2198.45 2012.63,2256.93C1940.98,2279.54 1871.45,2308.37 1804.82,2343.08C1802.33,2431.08 1803.69,2523.44 1803.91,2611.7L1675.83,2612.7C1675.86,2550.81 1674.87,2485.98 1676.1,2424.33C1618.37,2481.86 1551.61,2523.92 1516.03,2603.43C1510.53,2615.71 1500.62,2637.89 1502.18,2650.68C1511.25,2725.08 1613.88,2813.18 1665.06,2859.89L1675.84,2869.72L1676.81,2666.65C1718.96,2666.88 1761.12,2666.78 1803.28,2666.36L1804.46,2964.06C1860.15,2996.45 1905.24,3021.1 1965.41,3045C2147.26,3116.14 2347.14,3127.05 2535.65,3076.13C2617.45,3054.42 2715.23,3012.8 2788.08,2968.98C2788.06,2869.21 2791.22,2765.66 2792.32,2664.97C2834.41,2665.85 2876.51,2665.61 2918.58,2664.25C2917.69,2732.66 2916.59,2806.17 2917.58,2874.57C2925.27,2866.51 2933.05,2858.53 2940.91,2850.63ZM1940.65,2675.94C1933,2670.56 1925.21,2665.77 1924.07,2655.71C1918.65,2607.91 1966.4,2609.98 1998.25,2611.84C1996.51,2588.98 1981.62,2500.64 2015.18,2499.47C2061.79,2497.86 2052.42,2577.49 2049.49,2606.53C2075.02,2605.42 2108.12,2602.16 2132.15,2601.91C2132.91,2569.3 2132.82,2530.52 2137.31,2498.88C2169.25,2494.32 2186.38,2502.9 2191.63,2538.74C2194.23,2556.48 2192.31,2584.26 2190.18,2602.4C2217.99,2602.18 2243.79,2602.06 2271.52,2600.1C2271.16,2579.14 2268.03,2519.54 2274.98,2503.15C2285.09,2493.7 2303.96,2494.81 2312.32,2506.13C2330.94,2531.35 2326.41,2571.17 2325.57,2600.8C2351.92,2601.33 2382.4,2602.59 2408.4,2601.78C2405.58,2584.23 2403.94,2517.32 2412.11,2502.39C2427.97,2492.19 2448.36,2498.82 2456.39,2515.47C2468.66,2540.92 2463.91,2572.98 2461.61,2600.19C2488.72,2600.03 2517.06,2600.28 2544.06,2599.54C2543.94,2575.41 2534.95,2496.06 2566.87,2495.95C2575.96,2495.94 2584.61,2499.87 2590.57,2506.73C2609.94,2528.69 2605.07,2572.44 2602.54,2600C2602.31,2602.65 2602,2605.3 2601.64,2607.94C2617.21,2606.8 2653.96,2600.58 2665.48,2611.74C2679.52,2625.34 2673.83,2654.45 2659.1,2665.64C2646,2675.53 2617.82,2673.9 2601.65,2674.13C2606.32,2692.84 2602.95,2704.37 2602.61,2726.22C2602.17,2755.37 2602.93,2799.19 2558.17,2781.54C2542.98,2775.55 2546.17,2731.26 2546.21,2714.63L2546.57,2675.69C2519.41,2675.95 2491.4,2676.57 2464.31,2676.27C2463.74,2704.82 2459.68,2741.5 2459.97,2767.03C2452.01,2794.49 2418.7,2794.94 2410.21,2766.85C2409.43,2740.19 2406.81,2702.28 2409.53,2676.88C2381.24,2677.97 2354.13,2677.89 2325.82,2677.79C2327.21,2703.23 2331.47,2737 2324.2,2760.6C2322.83,2765.04 2315.57,2777.65 2312.74,2783.8C2262.58,2802.68 2270.48,2741.75 2270.88,2711.9C2271.61,2706.45 2271.86,2686.41 2272.08,2679.99C2258.54,2680.41 2245,2680.96 2231.46,2681.64C2221.95,2681.01 2197.57,2677.96 2190.65,2682.84L2190.03,2688.33C2189.71,2705.66 2189.74,2722.99 2190.14,2740.32C2187.29,2756.82 2178.14,2792.59 2150.41,2789.03C2138.28,2787.47 2134.19,2770.48 2133.78,2759.12C2133.82,2732.62 2134.09,2706.12 2134.61,2679.62C2106.45,2680.26 2077.31,2679.94 2049.07,2679.98C2048.81,2691.44 2049.22,2704 2049.38,2715.57C2049.42,2734.6 2052.58,2766.95 2039.28,2781.4C2030.35,2791.1 2007.04,2789.99 1999.32,2778.59C1986.28,2759.36 1992.77,2726.04 1994.94,2703.48C1996.85,2695.94 1997.93,2685.63 1999,2677.73C1975.37,2679.61 1963.69,2681.08 1940.65,2675.94Z" style="fill:rgb(254,254,254);"/>
    </g>
</svg>
