<svg width="100%" height="100%" viewBox="0 0 833 951" version="1.1" xmlns="http://www.w3.org/2000/svg" xmlns:xlink="http://www.w3.org/1999/xlink" xml:space="preserve" xmlns:serif="http://www.serif.com/" style="fill-rule:evenodd;clip-rule:evenodd;stroke-linejoin:round;stroke-miterlimit:2;">
    <g transform="matrix(1,0,0,1,-79.155,-51.4338)">
        <path d="M522.006,70.212C626.641,61.917 743.539,119.822 790.012,215.904C805.086,247.07 814.921,288.628 803.12,322.02C806.948,324.931 810.48,328.213 813.663,331.818C826.437,346.402 831.819,363.244 830.607,382.456C874.445,424.381 905.311,472.313 890.069,536.145C881.043,573.945 852.524,608.22 819.687,628.264C817.023,608.497 816.383,594.449 802.864,577.582C788.117,559.182 767.769,553.422 745.337,550.875C731.243,598.589 772.822,638.051 795.073,676.341C832.518,740.773 819.824,815.646 769.376,869.4C767.278,857.82 765.834,850.246 761.523,839.063C758.776,844.813 756.24,850.43 753.155,856.02C720.647,914.909 661.745,956.204 598.06,975.008C599.845,969.385 601.429,963.7 602.808,957.964C609.992,927.518 607.358,905.752 590.938,879.191C587.315,873.507 583.664,868.844 579.352,863.737C576.463,876.709 572.413,889.395 567.249,901.641C560.276,895.445 552.758,887.331 545.713,880.727C531.386,867.245 516.097,854.823 499.967,843.56C468.331,821.488 434.037,805.485 401.802,783.669C404.495,793.318 406.156,803.311 407.729,813.19C401.325,811.107 394.991,808.812 388.739,806.309C323.775,780.317 253.767,727.207 225.524,661.421L152.276,690.488C137.362,696.45 120.977,703.346 105.965,708.663C113.463,678.999 122.752,649.817 133.781,621.277C147.346,585.317 158.745,558.569 176.429,524.092C154.691,524.459 136.494,523.568 115.275,517.776C120.424,513.033 125.301,509.038 130.38,504.039C148.585,485.971 164.614,465.836 178.142,444.044C208.78,394.301 222.064,344.466 241.183,290.414C255.968,248.617 280.689,206.084 310.233,172.959C364.167,111.668 440.484,74.641 522.006,70.212Z" style="fill:white;fill-rule:nonzero;"/>
        <path d="M520.803,52.251L520.809,52.25C632.354,43.504 756.682,105.655 806.216,208.067C821.473,239.611 831.232,280.671 823.499,316C824.756,317.265 825.975,318.567 827.18,319.931L827.203,319.958C841.332,336.089 848.32,354.399 848.757,375.015C894.166,420.204 923.801,472.381 907.577,540.326C897.475,582.633 865.817,621.194 829.065,643.628L805.531,657.993L801.848,630.668C799.663,614.451 799.91,602.677 788.818,588.839C781.14,579.259 771.353,574.43 760.494,571.682C760.783,584.577 765.834,596.703 772.323,608.423C783.677,628.93 799.569,648.253 810.636,667.297C852.214,738.841 838.517,822.031 782.501,881.718L758.037,907.785L754.405,887.738C718.142,938.582 662.672,974.698 603.157,992.271L570.648,1001.87L580.904,969.562C582.555,964.36 584.021,959.102 585.297,953.796C589.521,935.877 589.709,921.582 584.56,906.897C584.32,907.477 584.079,908.056 583.835,908.635L574.073,931.784L555.293,915.096C548.209,908.802 540.56,900.569 533.39,893.847L533.378,893.836C519.687,880.953 505.078,869.083 489.665,858.32C469.488,844.243 448.225,832.645 427.108,820.424L430.13,839.404L402.161,830.307C395.38,828.101 388.672,825.671 382.051,823.02C318.272,797.502 250.287,746.985 216.616,684.321L158.939,707.21C143.814,713.256 127.197,720.239 111.974,725.63L80.272,736.859L88.514,704.252C96.184,673.906 105.685,644.053 116.965,614.857C127.259,587.571 136.335,565.489 147.746,541.475C135.532,540.582 123.561,538.696 110.535,535.141L79.155,526.575L103.08,504.537C108.07,499.94 112.806,496.077 117.728,491.236C134.918,474.171 150.055,455.156 162.832,434.578C192.757,385.983 205.536,337.216 224.213,284.411C239.745,240.503 265.727,195.83 296.74,161.046C353.815,96.196 434.55,56.998 520.803,52.251ZM522.006,70.212C440.484,74.641 364.167,111.668 310.233,172.959C280.689,206.084 255.968,248.617 241.183,290.414C222.064,344.466 208.78,394.301 178.142,444.044C164.614,465.836 148.585,485.971 130.38,504.039C125.301,509.038 120.424,513.033 115.275,517.776C136.494,523.568 154.691,524.459 176.429,524.092C158.745,558.569 147.346,585.317 133.781,621.277C122.752,649.817 113.463,678.999 105.965,708.663C120.977,703.346 137.362,696.45 152.276,690.488L225.524,661.421C253.767,727.207 323.775,780.317 388.739,806.309C394.991,808.812 401.325,811.107 407.729,813.19C406.156,803.311 404.495,793.318 401.802,783.669C434.037,805.485 468.331,821.488 499.967,843.56C516.097,854.823 531.386,867.245 545.713,880.727C552.758,887.331 560.276,895.445 567.249,901.641C572.413,889.395 576.463,876.709 579.352,863.737C583.664,868.844 587.315,873.507 590.938,879.191C607.358,905.752 609.992,927.518 602.808,957.964C601.429,963.7 599.845,969.385 598.06,975.008C661.745,956.204 720.647,914.909 753.155,856.02C756.24,850.43 758.776,844.813 761.523,839.063C765.834,850.246 767.278,857.82 769.376,869.4C819.824,815.646 832.518,740.773 795.073,676.341C772.822,638.051 731.243,598.589 745.337,550.875C767.769,553.422 788.117,559.182 802.864,577.582C816.383,594.449 817.023,608.497 819.687,628.264C852.524,608.22 881.043,573.945 890.069,536.145C905.311,472.313 874.445,424.381 830.607,382.456C831.819,363.244 826.437,346.402 813.663,331.818C810.48,328.213 806.948,324.931 803.12,322.02C814.921,288.628 805.086,247.07 790.012,215.904C743.539,119.822 626.641,61.917 522.006,70.212Z" style="fill:rgb(251,174,30);" data-color="color-1"/>
        <path d="M520.937,89.183C575.907,86.694 629.508,97.416 677.479,125.072C739.846,161.029 793.075,227.355 789.141,302.637C788.722,310.666 784.716,319.467 780.759,326.273C802.468,342.483 816.518,360.342 812.062,388.837C846.87,421.653 878.73,462.414 874.87,512.996C872.362,545.87 857.413,573.409 832.981,595.235C816.721,550.403 780.568,531.057 733.843,533.033C733.629,533.383 733.418,533.735 733.21,534.088C725.127,548.095 721.94,564.394 724.151,580.413C729.302,620.351 755.864,648.921 776.089,681.815C805.641,729.878 804.348,782.969 775.707,831.273C771.931,815.096 765.081,800.714 753.553,788.684C752.283,803.418 748.854,817.885 743.377,831.622C722.516,884.757 674.059,924.181 622.927,946.397C624.029,941.283 624.726,936.09 625.012,930.867C626.962,894.995 610.912,868.937 587.866,843.187C579.299,833.826 572.835,827.497 562.962,819.438C565.896,837.138 563.678,850.521 560.69,867.878C542.063,850.092 522.178,833.076 500.219,819.546C459.515,794.469 416.176,774.376 380.883,741.222C380.931,754.928 383.782,770.684 386.402,784.031C332.568,760.401 285.043,722.359 253.782,672.063C246.399,660.186 241.609,649.659 235.954,636.883C226.259,640.106 213.321,645.673 203.446,649.629L133.749,677.903C137.008,668.556 139.823,658.627 143.112,649.101C149.721,630.24 156.899,611.583 164.636,593.155C177.87,561.741 193.498,532.143 209.045,501.902C189.329,505.968 174.929,505.627 155.156,504.694C184.526,471.192 203.235,442.681 221.172,401.532C234.423,371.657 243.245,340.262 253.935,309.455C272.305,256.521 300.063,206.862 340.731,167.806C379.989,130.105 429.24,103.794 482.846,93.791C495.77,91.379 507.84,90.155 520.937,89.183ZM579.673,321.21C581.344,321.924 594.253,334.19 597.346,336.816C595.713,337.897 593.75,338.873 592.006,339.801C577.031,344.444 571.956,333.43 579.673,321.21ZM517.883,276.177C524.594,279.214 540.651,289.669 547.173,293.743C543.306,299.853 540.67,304.409 539.44,311.694C537.678,322.119 540.202,332.813 546.439,341.349C552.67,349.737 562.014,355.266 572.366,356.688C585.842,358.605 598.397,355.149 609.155,346.955L618.449,352.391L614.751,355.38C593.15,370.738 563.824,372.873 540.554,359.842C526.439,352.046 516.045,338.911 511.702,323.383C507.18,306.704 509.405,291.066 517.883,276.177ZM674.614,381.493C688.246,352.048 736.037,332.974 766.597,346.139C780.066,351.942 789.298,366.086 789.312,380.978C765.116,375.893 748.974,380.467 727.514,391.73C724.279,394.348 720.751,396.588 717.355,399.013C708.112,405.615 696.728,412.943 684.836,409.361C680.246,407.979 674.729,404.386 672.6,400.062C669.944,394.669 672.733,386.711 674.614,381.493Z" style="fill:rgb(7,9,11);"/>
        <path d="M708.102,426.003C720.98,421.054 728.964,414.345 740.062,407.875C750.067,402.044 772.581,394.414 783.592,400.383C798.905,408.684 820.605,432.431 830.119,446.687C834.999,453.944 838.972,461.771 841.95,469.993C850.71,494.584 851.059,525.12 839.595,548.927C839.001,550.155 838.391,551.374 837.764,552.585C837.315,553.704 837.508,553.311 836.634,554.235C834.5,553.398 831.227,545.894 829.465,543.25C821.62,531.475 812.388,520.687 801.968,511.116C763.449,475.698 703.33,451.259 650.574,453.043C635.369,453.596 620.072,458.424 609.593,469.908C607.024,472.723 598.855,484.364 602.251,487.427C606.627,487.159 612.457,483.805 616.956,482.607C667.971,469.017 721.618,479.905 766.274,506.986C771.086,509.905 776.874,513.068 781.159,516.552C747.802,502.421 718.28,502.311 682.751,504.894C653.385,507.029 614.134,517.833 590.343,495.992C590.601,459.759 620.084,430.888 653.694,421.939C654.011,422.124 654.33,422.305 654.651,422.482C672.382,432.243 689.392,431.483 708.102,426.003ZM765.884,412.467C779.589,417.264 789.54,425.823 792.017,440.622C787.979,438.345 769.545,424.269 766.794,420.901C766.323,417.853 766.111,415.543 765.884,412.467Z" style="fill:rgb(251,174,30);" data-color="color-1"/>
        <path d="M653.694,421.939C654.011,422.124 654.33,422.305 654.651,422.482C672.382,432.243 689.392,431.483 708.102,426.003C706.385,429.181 703.05,430.207 699.521,431.217C685.552,435.218 670.098,434.754 656.038,431.62C655.818,431.571 630.905,441.891 631.186,441.926C631.295,441.939 654.652,443.068 654.657,443.069C669.65,445.521 684.785,446.743 699.846,450.353C745.653,461.334 797.461,486.616 826.003,525.222C830.506,531.314 833.639,538.608 835.911,545.766C836.453,547.471 837.317,551.654 837.764,552.585C837.315,553.704 837.508,553.311 836.634,554.235C834.5,553.398 831.227,545.894 829.465,543.25C821.62,531.475 812.388,520.687 801.968,511.116C763.449,475.698 703.33,451.259 650.574,453.043C635.369,453.596 620.072,458.424 609.593,469.908C607.024,472.723 598.855,484.364 602.251,487.427C606.627,487.159 612.457,483.805 616.956,482.607C667.971,469.017 721.618,479.905 766.274,506.986C771.086,509.905 776.874,513.068 781.159,516.552C747.802,502.421 718.28,502.311 682.751,504.894C653.385,507.029 614.134,517.833 590.343,495.992C590.601,459.759 620.084,430.888 653.694,421.939Z" style="fill:rgb(206,127,20);fill-rule:nonzero;"/>
        <path d="M226.233,451.455C240.661,427.407 250.511,406.175 258.427,379.03C263.215,362.613 267.427,346.09 272.178,329.684C287.638,276.286 312.989,225.212 353.508,186.319C404.659,137.22 468.63,111.38 539.834,113.501C605.774,115.464 667.711,141.139 713.741,188.99C738.039,214.249 759.539,249.134 759.084,285.236C758.94,296.608 754.862,309.05 746.414,317.035C737.9,317.871 734.133,315.413 726.096,314.898C724.744,301.754 721.786,293.142 712.382,283.601C716.449,308.335 706.792,320.328 685.425,331.164C682.513,318.266 671.628,309.396 660.174,303.872C661.417,311.702 662.347,318.008 658.366,325.353C637.186,354.555 588.654,301.554 571.489,287.54C544.411,265.422 512.277,250.354 477.956,243.683C469.551,242.129 461.648,241.618 453.183,240.799C468.997,247.604 480.018,252.627 492.777,264.99C473.439,299.585 486.641,348.082 518.547,370.097C523.214,373.317 527.923,376.119 532.508,379.267C552.546,388.191 573.362,394.492 595.646,389.276C606.766,385.291 611.365,384.806 623.011,378.959C633.369,373.758 646.172,365.74 656.354,361.921C639.755,388.37 618.662,402.823 595.698,423.019C589.873,428.141 582.288,437.066 577.583,440.919C573.645,446.437 566.496,458.036 563.822,464.367C562.946,468.447 561.541,472.495 560.75,476.662C554.478,509.719 568.137,533.512 600.22,543.402C582.138,562.277 584.995,592.172 594.852,614.474C609.271,647.099 637.554,670.02 670.293,682.86C653.964,663.682 643.116,629.075 641.819,603.676C651.29,615.523 671.017,630.297 683.295,640.218C715.315,666.09 749.71,715.223 755.509,756.628C736.728,737.56 715.994,726.847 692.827,714.478C700.337,732.516 704.313,751.829 704.538,771.367C705.171,815.275 684.754,857.741 654.538,888.865C651.26,804.594 570.762,759.098 506.078,721.228C516.98,739.948 529.431,774.217 533.962,795.4C529.022,791.509 521.251,786.443 515.882,782.719C505.125,775.299 494.431,767.789 483.801,760.19C436.718,726.614 386.68,683.593 358.631,632.542C358.65,636.403 358.273,639.868 357.395,643.634C351.084,670.703 349.869,695.645 352.153,723.246C316.853,696.678 287.881,646.937 274.13,605.59C272.196,599.774 268.516,588.153 268.451,582.418C257.605,587.901 245.575,595.069 234.704,600.929C219.961,608.706 205.14,616.331 190.242,623.806C194.268,609.731 200.263,596.721 206.437,583.498C218.783,557.395 232.376,531.9 247.166,507.101C262.31,481.297 270.455,471.425 280.356,442.583C259.298,459.599 234.522,471.405 208.043,477.043C214.673,468.476 219.993,460.002 226.233,451.455ZM674.614,381.493C683.231,398.533 702.389,397.869 718.458,393.901C720.997,393.274 725.04,391.897 727.514,391.73C724.279,394.348 720.751,396.588 717.355,399.013C708.112,405.615 696.728,412.943 684.836,409.361C680.246,407.979 674.729,404.386 672.6,400.062C669.944,394.669 672.733,386.711 674.614,381.493Z" style="fill:rgb(114,126,135);"  data-color="color-2"/>
        <path d="M226.233,451.455C229.779,450.699 236.788,445.734 239.828,443.549C263.756,426.08 284.843,405.021 302.344,381.116C292.696,443.502 285.87,506.386 310.724,566.59C314.572,575.911 319.266,584.123 324.258,592.856C329.295,539.981 344.561,503.996 372.929,459.8C368.309,528.701 390.986,608.269 448.357,651.099C434.788,617.221 435.443,591.121 441.456,556.048C467.112,623.608 505.609,648.905 561.523,691.741C573.297,700.761 593.774,717.241 602.747,728.638C585.712,662.883 524.367,624.392 529.176,548.536C530.616,525.809 537.541,504.649 549.089,485.091C553.202,478.126 557.866,469.827 563.822,464.367C562.946,468.447 561.541,472.495 560.75,476.662C554.478,509.719 568.137,533.512 600.22,543.402C582.138,562.277 584.995,592.172 594.852,614.474C609.271,647.099 637.554,670.02 670.293,682.86C653.964,663.682 643.116,629.075 641.819,603.676C651.29,615.523 671.017,630.297 683.295,640.218C715.315,666.09 749.71,715.223 755.509,756.628C736.728,737.56 715.994,726.847 692.827,714.478C700.337,732.516 704.313,751.829 704.538,771.367C705.171,815.275 684.754,857.741 654.538,888.865C651.26,804.594 570.762,759.098 506.078,721.228C516.98,739.948 529.431,774.217 533.962,795.4C529.022,791.509 521.251,786.443 515.882,782.719C505.125,775.299 494.431,767.789 483.801,760.19C436.718,726.614 386.68,683.593 358.631,632.542C358.65,636.403 358.273,639.868 357.395,643.634C351.084,670.703 349.869,695.645 352.153,723.246C316.853,696.678 287.881,646.937 274.13,605.59C272.196,599.774 268.516,588.153 268.451,582.418C257.605,587.901 245.575,595.069 234.704,600.929C219.961,608.706 205.14,616.331 190.242,623.806C194.268,609.731 200.263,596.721 206.437,583.498C218.783,557.395 232.376,531.9 247.166,507.101C262.31,481.297 270.455,471.425 280.356,442.583C259.298,459.599 234.522,471.405 208.043,477.043C214.673,468.476 219.993,460.002 226.233,451.455ZM420.361,224.452C426.551,221.916 432.076,219.716 438.734,218.473C490.626,208.779 541.526,242.663 578.542,275.355C595.931,290.714 614.471,309.681 634.959,320.824C642.201,324.762 650.27,325.639 658.366,325.353C637.186,354.555 588.654,301.554 571.489,287.54C544.411,265.422 512.277,250.354 477.956,243.683C469.551,242.129 461.648,241.618 453.183,240.799C468.997,247.604 480.018,252.627 492.777,264.99C473.439,299.585 486.641,348.082 518.547,370.097C523.214,373.317 527.923,376.119 532.508,379.267C526.446,378.888 516.853,373.577 511.661,370.702C492.848,360.77 478.469,338.907 473.86,318.34C469.831,300.365 468.162,289.084 451.632,277.271C440.026,268.977 427.956,266.803 413.707,269.174C415.232,266.002 416.998,262.952 418.99,260.05C428.115,246.829 439.962,238.597 455.735,235.63C444.188,228.609 433.8,224.755 420.361,224.452ZM656.354,361.921C639.755,388.37 618.662,402.823 595.698,423.019C589.873,428.141 582.288,437.066 577.583,440.919C580.618,431.763 605.081,404.553 611.877,396.623C592.097,406.854 577.243,406.238 555.906,402.475C567.154,401.507 586.593,396.61 595.764,390.268L595.646,389.276C606.766,385.291 611.365,384.806 623.011,378.959C633.369,373.758 646.172,365.74 656.354,361.921Z" style="fill:rgb(63,73,83);"/>
    </g>
</svg>
