<svg width="100%" height="100%" viewBox="0 0 881 796" version="1.1" xmlns="http://www.w3.org/2000/svg" xmlns:xlink="http://www.w3.org/1999/xlink" xml:space="preserve" xmlns:serif="http://www.serif.com/" style="fill-rule:evenodd;clip-rule:evenodd;stroke-linejoin:round;stroke-miterlimit:2;">
    <g transform="matrix(1,0,0,1,-71.3299,-399.218)">
        <path d="M727.291,400.078C746.202,398.235 784.018,399.764 802.991,400.851C775.981,416.558 755.843,428.581 731.175,448.484C760.546,448.831 795.185,452.236 824.344,455.513C866.941,460.223 909.409,466.038 951.703,472.954C931.785,531.693 910.912,590.104 889.094,648.165L919.894,656.889C912.216,679.175 904.153,701.327 895.707,723.334C875.919,776.09 851.895,827.161 823.872,876.046C752.306,1000.97 642.494,1099.61 510.617,1157.42L512.541,1139.48C470.361,1165.32 435.735,1177.33 390.676,1195.07C420.22,1139.59 442.992,1102.76 460.847,1041.11C472.479,991.603 480.82,906.593 404.537,908.811C343.332,910.591 269.849,930.148 224.271,972.918C194.649,1000.72 187.693,1039.38 187.59,1078.31C156.386,1066.36 129.293,1045.66 109.558,1018.7C64.725,957.231 59.74,875.668 92.425,807.933C122.785,745.018 168.768,708.08 223.57,668.54C300.37,456.522 527.704,409.064 727.291,400.078ZM736.214,418.921C735.894,420.376 700.706,445.992 696.667,449.132C689.524,454.645 682.621,460.464 675.977,466.571C758.488,462.892 842.891,478.923 924.45,489.263C913.566,521.543 902.213,553.663 890.394,585.613C881.742,609.021 870.072,641.394 857.717,662.544L893.343,672.483C876.53,719.58 860.1,762.656 837.979,807.694C770.25,945.59 670.898,1053.65 534.438,1124.98C536.436,1115.36 538.261,1105.7 539.913,1096.01C499.75,1125.82 478.278,1137.3 433.468,1158.42C462.778,1100.13 493.799,1038.48 488.069,970.995C481.749,896.526 427.954,881.228 363.794,892.145C290.292,904.652 203.39,933.428 178.039,1012.27C173.869,1025.24 172.26,1036.08 170.794,1049.5C152.801,1038.71 137.164,1024.41 124.814,1007.45C96.283,968.017 84.691,918.821 92.614,870.8C106.15,784.642 174.629,729.455 240.43,681.39C253.519,640.401 275.129,602.644 303.843,570.594C390.276,474.564 528.087,440.004 651.87,426.821C680.372,423.786 707.481,420.413 736.214,418.921Z" style="fill:rgb(254,254,254);"/>
        <path d="M289.285,728.476C342.889,760.321 380.214,797.672 448.888,782.367C436.367,794.908 423.709,807.311 410.916,819.573C405.914,824.36 396.216,833.901 390.919,838.064C341.379,846.275 273.838,868.171 232.828,897.61C268.789,852.481 307.117,834.687 361.758,819.826C376.898,815.709 394.956,811.798 408.105,803.169C397.17,799.895 387.896,800.791 376.726,801.336C345.041,802.882 315.169,812.334 287.405,827.51C227.689,860.15 161.441,915.362 149.571,986.497C147.68,983.746 145.094,980.288 143.883,977.276C144.731,972.355 141.439,959.539 141.209,953.635C140.247,929.556 142.749,905.482 149.751,882.359C168.105,821.76 217.928,775.293 269.333,741.348C275.966,736.968 282.807,733.08 289.285,728.476ZM278.14,749.05C280.68,749.5 285.723,750.83 286.24,753.759C289.113,770.038 265.629,773.365 255.235,775.535L247.209,776.906C257.406,766.253 266.151,757.574 278.14,749.05Z" style="fill:rgb(99,98,98);"/>
        <path d="M143.883,977.276C128.011,945.433 126.347,910.394 133.91,875.932C148.347,810.143 214.374,752.105 270.392,717.818C276.812,721.15 283.113,724.705 289.285,728.476C282.807,733.08 275.966,736.968 269.333,741.348C217.928,775.293 168.105,821.76 149.751,882.359C142.749,905.482 140.247,929.556 141.209,953.635C141.439,959.539 144.731,972.355 143.883,977.276Z" style="fill:rgb(152,151,151);"/>
        <path d="M661.59,445.081C662.428,444.944 663.472,445.022 664.348,445.038C663.943,446.542 623.537,480.521 618.711,484.693C626.533,484.432 634.341,483.965 642.163,483.725C725.157,481.173 806.889,493.532 888.44,508.223C876.517,544.321 864.336,580.436 851.04,616.068C842.866,637.973 832.19,658.356 820.756,678.687C834.403,681.076 847.105,683.315 860.766,685.993C821.15,812.548 758.589,924.09 658.212,1011.93C629.016,1037.48 602.796,1058.2 569.022,1078.05C575.898,1064.13 579.148,1046.86 581.589,1031.71C552.125,1059.52 518.9,1079.34 488.605,1103.54C506.662,1051.93 521.845,997.698 505.293,943.309C493.042,903.806 463.384,875.716 421.291,871.224C357.447,864.412 275.564,889.606 223.4,926.258C191.099,948.955 165.972,983.708 160.213,1022.9C157.09,1020.14 154.032,1017.3 151.043,1014.39C121.732,984.994 105.123,945.276 104.787,903.769C104.389,830.777 150.911,773.961 204.722,729.856C214.739,721.776 224.909,713.887 235.227,706.195C240.258,702.406 247.867,697.323 252.077,692.846C261.881,652.303 282.59,616.811 309.927,585.501C391.989,491.51 540.667,452.816 661.59,445.081ZM577.849,486.286C474.566,501.764 365.869,543.714 301.078,629.486C286.604,648.647 250.911,710.781 305.365,703.951C330.302,700.824 351.637,672.763 368.908,656.936C429.781,596.961 492.378,566.716 578.995,569.323C569.822,571.822 560.815,573.526 551.659,576.247C526.079,584.108 501.617,595.23 478.879,609.339C499.523,629.071 515.301,630.983 542.697,631.574C519.951,644.657 506.747,654.493 488.586,673.909C464,700.195 451.447,736.228 413.511,745.805C399.776,749.273 383.286,748.322 369.761,744.682C369.354,744.573 368.949,744.459 368.545,744.341C394.752,761.648 417.871,769.634 449.631,762.777C477.243,756.815 507.721,744.044 533.263,732.564C512.558,757.879 492.963,784.081 474.532,811.095C503.935,799.71 527.819,793.996 559.219,790.397C568.399,789.345 578.398,788.685 587.301,787.604C629.93,785.918 670.695,786.454 711.99,799.681C656.419,767.178 600.784,763.892 538.121,771.073C602.592,730.875 692.946,705.093 769.007,712.762C696.987,680.981 636.609,676.819 560.991,698.48C618.38,648.097 726.702,610.451 802.908,601.011C789.002,596.347 775.174,590.632 761.131,585.847C730.723,575.485 706.161,572.442 674.592,570.765C707.958,555.972 745.986,547.764 781.966,541.649C794.837,539.462 808.882,538.186 821.363,535.918C808.486,532.702 786.58,529.36 773.102,526.966C697.657,513.566 607.511,507.06 532.42,525.232C537.422,521.404 578.727,488.24 579.464,486.259L577.849,486.286ZM556.241,831.719C566.801,837.682 577.657,843.01 588.166,849.17C611.752,862.994 633.133,879.367 653.974,896.971C658.039,900.404 664.932,906.432 669.415,909.136C650.975,874.263 619.275,848.275 581.456,837.028C575.673,835.257 562.147,831.963 556.241,831.719ZM143.883,977.276C145.094,980.288 147.68,983.746 149.571,986.497C161.441,915.362 227.689,860.15 287.405,827.51C315.169,812.334 345.041,802.882 376.726,801.336C387.896,800.791 397.17,799.895 408.105,803.169C394.956,811.798 376.898,815.709 361.758,819.826C307.117,834.687 268.789,852.481 232.828,897.61C273.838,868.171 341.379,846.275 390.919,838.064C396.216,833.901 405.914,824.36 410.916,819.573C423.709,807.311 436.367,794.908 448.888,782.367C380.214,797.672 342.889,760.321 289.285,728.476C283.113,724.705 276.812,721.15 270.392,717.818C214.374,752.105 148.347,810.143 133.91,875.932C126.347,910.394 128.011,945.433 143.883,977.276ZM278.14,749.05C280.68,749.5 285.723,750.83 286.24,753.759C289.113,770.038 265.629,773.365 255.235,775.535L247.209,776.906C257.406,766.253 266.151,757.574 278.14,749.05ZM449.139,631.401C439.189,637.324 429.278,643.311 419.407,649.363C449.562,677.889 395.411,724.09 384.848,679.881C382.008,682.431 370.093,692.434 369.275,694.849C391.683,740.213 436.195,717.622 446.382,677.926C449.159,667.105 454.315,641.02 449.139,631.401Z"/>
        <path d="M449.139,631.401C454.315,641.02 449.159,667.105 446.382,677.926C436.195,717.622 391.683,740.213 369.275,694.849C370.093,692.434 382.008,682.431 384.848,679.881C395.411,724.09 449.562,677.889 419.407,649.363C429.278,643.311 439.189,637.324 449.139,631.401Z" style="fill:rgb(254,169,1);"  data-color="color-2"/>
        <path d="M489.933,525.829L490.996,526.054C490.044,527.643 485.638,529.282 483.436,530.436C445.745,550.192 411.47,575.869 381.919,606.486C372.544,616.477 363.656,626.914 355.287,637.761C340.893,656.77 329.955,678.944 308.146,689.383L307.239,689.109C306.004,684.637 315.935,660.554 318.534,655.485C353.081,588.102 421.413,549.495 489.933,525.829Z" style="fill:rgb(0,119,38);"  data-color="color-3"/>
        <path d="M736.214,418.921C735.894,420.376 700.706,445.992 696.667,449.132C689.524,454.645 682.621,460.464 675.977,466.571C758.488,462.892 842.891,478.923 924.45,489.263C913.566,521.543 902.213,553.663 890.394,585.613C881.742,609.021 870.072,641.394 857.717,662.544L893.343,672.483C876.53,719.58 860.1,762.656 837.979,807.694C770.25,945.59 670.898,1053.65 534.438,1124.98C536.436,1115.36 538.261,1105.7 539.913,1096.01C499.75,1125.82 478.278,1137.3 433.468,1158.42C462.778,1100.13 493.799,1038.48 488.069,970.995C481.749,896.526 427.954,881.228 363.794,892.145C290.292,904.652 203.39,933.428 178.039,1012.27C173.869,1025.24 172.26,1036.08 170.794,1049.5C152.801,1038.71 137.164,1024.41 124.814,1007.45C96.283,968.017 84.691,918.821 92.614,870.8C106.15,784.642 174.629,729.455 240.43,681.39C253.519,640.401 275.129,602.644 303.843,570.594C390.276,474.564 528.087,440.004 651.87,426.821C680.372,423.786 707.481,420.413 736.214,418.921ZM661.59,445.081C540.667,452.816 391.989,491.51 309.927,585.501C282.59,616.811 261.881,652.303 252.077,692.846C247.867,697.323 240.258,702.406 235.227,706.195C224.909,713.887 214.739,721.776 204.722,729.856C150.911,773.961 104.389,830.777 104.787,903.769C105.123,945.276 121.732,984.994 151.043,1014.39C154.032,1017.3 157.09,1020.14 160.213,1022.9C165.972,983.708 191.099,948.955 223.4,926.258C275.564,889.606 357.447,864.412 421.291,871.224C463.384,875.716 493.042,903.806 505.293,943.309C521.845,997.698 506.662,1051.93 488.605,1103.54C518.9,1079.34 552.125,1059.52 581.589,1031.71C579.148,1046.86 575.898,1064.13 569.022,1078.05C602.796,1058.2 629.016,1037.48 658.212,1011.93C758.589,924.09 821.15,812.548 860.766,685.993C847.105,683.315 834.403,681.076 820.756,678.687C832.19,658.356 842.866,637.973 851.04,616.068C864.336,580.436 876.517,544.321 888.44,508.223C806.889,493.532 725.157,481.173 642.163,483.725C634.341,483.965 626.533,484.432 618.711,484.693C623.537,480.521 663.943,446.542 664.348,445.038C663.472,445.022 662.428,444.944 661.59,445.081ZM577.849,486.286L579.464,486.259C578.727,488.24 537.422,521.404 532.42,525.232C607.511,507.06 697.657,513.566 773.102,526.966C786.58,529.36 808.486,532.702 821.363,535.918C808.882,538.186 794.837,539.462 781.966,541.649C745.986,547.764 707.958,555.972 674.592,570.765C706.161,572.442 730.723,575.485 761.131,585.847C775.174,590.632 789.002,596.347 802.908,601.011C726.702,610.451 618.38,648.097 560.991,698.48C636.609,676.819 696.987,680.981 769.007,712.762C692.946,705.093 602.592,730.875 538.121,771.073C600.784,763.892 656.419,767.178 711.99,799.681C670.695,786.454 629.93,785.918 587.301,787.604C578.398,788.685 568.399,789.345 559.219,790.397C527.819,793.996 503.935,799.71 474.532,811.095C492.963,784.081 512.558,757.879 533.263,732.564C507.721,744.044 477.243,756.815 449.631,762.777C417.871,769.634 394.752,761.648 368.545,744.341C368.949,744.459 369.354,744.573 369.761,744.682C383.286,748.322 399.776,749.273 413.511,745.805C451.447,736.228 464,700.195 488.586,673.909C506.747,654.493 519.951,644.657 542.697,631.574C515.301,630.983 499.523,629.071 478.879,609.339C501.617,595.23 526.079,584.108 551.659,576.247C560.815,573.526 569.822,571.822 578.995,569.323C492.378,566.716 429.781,596.961 368.908,656.936C351.637,672.763 330.302,700.824 305.365,703.951C250.911,710.781 286.604,648.647 301.078,629.486C365.869,543.714 474.566,501.764 577.849,486.286ZM489.933,525.829C421.413,549.495 353.081,588.102 318.534,655.485C315.935,660.554 306.004,684.637 307.239,689.109L308.146,689.383C329.955,678.944 340.893,656.77 355.287,637.761C363.656,626.914 372.544,616.477 381.919,606.486C411.47,575.869 445.745,550.192 483.436,530.436C485.638,529.282 490.044,527.643 490.996,526.054L489.933,525.829ZM556.241,831.719C562.147,831.963 575.673,835.257 581.456,837.028C619.275,848.275 650.975,874.263 669.415,909.136C664.932,906.432 658.039,900.404 653.974,896.971C633.133,879.367 611.752,862.994 588.166,849.17C577.657,843.01 566.801,837.682 556.241,831.719Z" style="fill:rgb(0,69,139);"  data-color="color-1"/>
    </g>
</svg>
