<?xml version="1.0" encoding="UTF-8" standalone="no"?>
<!DOCTYPE svg PUBLIC "-//W3C//DTD SVG 1.1//EN" "http://www.w3.org/Graphics/SVG/1.1/DTD/svg11.dtd">
<svg width="100%" height="100%" viewBox="0 0 754 780" version="1.1" xmlns="http://www.w3.org/2000/svg" xmlns:xlink="http://www.w3.org/1999/xlink" xml:space="preserve" xmlns:serif="http://www.serif.com/" style="fill-rule:evenodd;clip-rule:evenodd;stroke-linejoin:round;stroke-miterlimit:2;">
    <g transform="matrix(1,0,0,1,-135.272,-128.499)">
        <path d="M784.029,710.922C783.687,714.173 760.023,734.785 755.953,738.702C743.78,706.138 730.32,683.414 709.526,655.308C721.219,660.697 729.918,663.324 742.533,665.31C732.461,656.223 723.701,645.904 714.036,636.481C698.988,621.81 684.897,604.196 677.283,584.313C688.749,589.619 697.59,592.136 709.627,595.283C712.906,610.457 737.832,638.698 747.462,650.813C753.184,658.011 758.626,665.428 763.758,673.058C770.591,683.218 776.736,693.451 781.475,704.738C782.243,706.567 783.153,709.228 784.029,710.922ZM268.152,738.478C258.666,729.428 249.502,721.676 240.058,712.034C250.539,678.898 277.37,653.567 297.345,626.433C301.106,621.325 314.396,600.931 315.446,595.698C326.427,591.727 335.072,589.295 346.279,584.661C334.002,611.794 318.691,628.327 298.224,649.165C292.581,654.912 288.186,660.59 281.704,665.431C294.201,663.128 303.41,660.742 315.167,655.202C310.801,660.51 306.969,666.726 303.107,672.32C290.504,690.571 279.298,709.307 271.528,730.149C270.558,732.753 269.355,735.956 268.152,738.478Z" style="fill:rgb(188,144,95);"/>
        <path d="M750.057,600.292C753.57,604.746 763.111,609.411 768.432,612.116C769.547,601.069 770.515,595.477 773.099,584.636C779.791,597.538 794.326,611.945 804.02,623.202C812.594,633.308 820.715,643.79 828.361,654.615C824.639,660.05 819.536,667.232 816.298,672.905C810.172,655.221 800.158,642.643 783.514,633.776C759.059,620.749 765.695,645.61 773.608,657.933C781.657,670.551 793.602,680.2 807.632,685.413C804.33,689.322 787.722,709.638 784.736,710.681L784.25,710.543L784.029,710.922C783.153,709.228 782.243,706.567 781.475,704.738C776.736,693.451 770.591,683.218 763.758,673.058C758.626,665.428 753.184,658.011 747.462,650.813C737.832,638.698 712.906,610.457 709.627,595.283C719.939,597.583 739.78,601.559 750.057,600.292ZM240.058,712.034C232.675,704.525 223.23,693.688 216.806,685.371C217.743,685.036 218.679,684.696 219.612,684.349C234.693,678.739 248.466,665.551 254.976,651.042C261.147,637.289 259.009,622.868 241.348,632.794C224.445,642.294 213.928,654.584 207.608,672.712C203.774,666.698 199.652,660.636 195.75,654.619C200.839,649.26 208.546,637.781 213.758,631.362C223.329,619.575 234.136,609.318 243.181,597.381C245.818,593.9 248.658,587.704 250.572,583.613C253.178,592.798 254.693,602.258 255.088,611.797C261.861,608.584 269.41,605.352 274.892,600.256C286.251,601.12 304.149,598.502 315.446,595.698C314.396,600.931 301.106,621.325 297.345,626.433C277.37,653.567 250.539,678.898 240.058,712.034ZM688.088,436.363C688.567,434.054 694.749,425 696.416,422.096C698.784,417.97 700.694,413.597 702.086,409.048C707.864,390.318 705.434,368.516 696.186,351.193C700.842,348.16 705.462,345.069 710.044,341.923C715.678,361.133 728.337,383.518 740.083,399.658C741.628,401.781 744.624,404.401 746.655,406.92L747.032,407.393C729.726,412.576 715.598,417.068 700.152,427.352C695.723,430.3 692.161,433.499 688.088,436.363ZM277.752,406.765C292.226,394.457 309.034,360.295 315.076,342.021C319.325,344.936 324.511,348.312 328.588,351.333C314.614,371.213 317.411,411.084 332.298,429.972C333.866,431.962 335.152,433.225 333.932,435.193C318.672,423.148 296.702,411.616 277.752,406.765ZM399.197,289.699C400.855,269.565 397.19,251.97 383.857,236.107C380.83,232.503 377.413,229.245 373.669,226.392C383.813,217.343 394.806,211.532 404.813,203.772C412.857,209.988 420.405,215.655 427.646,222.854C434.72,229.887 442.643,239.473 450.368,245.585C451.88,224.666 451.793,208.937 443.737,189.2C452.93,186.935 462.969,185.82 472.324,184.334C485.531,208.008 495.381,233.598 507.477,257.844C509.075,261.047 510.669,264.289 512.051,267.589C521.623,248.182 530.01,226.806 539.668,207.302C542.596,201.387 547.605,190.333 550.92,184.85C559.833,185.434 571.54,187.468 580.381,189.252C572.32,209.79 572.455,224.154 573.18,245.885C582.881,237.272 590.247,229.294 599.313,220.037C604.438,214.805 613.506,208.261 619.531,204.089C627.643,209.104 642.82,220.255 650.428,226.592C629.159,246.644 624.178,260.915 625.178,289.902C618.878,298.469 612.868,306.864 607.144,315.937C597.619,331.033 588.994,348.055 576.848,361.236C572.193,366.288 565.873,370.313 560.115,373.905C559.22,367.064 559.118,357.715 559.963,350.802C550.501,363.588 547.776,372.268 547.49,387.989C544.479,386.076 540.732,382.198 537.897,379.958C518.962,365.001 500.079,367.477 482.613,383.216C481.358,384.347 477.536,387.983 476.152,388.871C477.833,373.228 472.477,362.707 463.706,350.66C465.206,358.658 464.757,366.181 464.354,374.22C439.381,359.061 432.779,339.784 417.559,316.053C411.225,306.177 406.215,299.128 399.197,289.699ZM481.133,288.863C471.15,305.438 482.897,356.966 497.843,351.163C509.75,334.948 498.502,295.92 481.133,288.863ZM541.932,288.906C525.627,297.641 512.213,340.429 527.314,351.878C544.406,350.896 553.459,297.986 541.932,288.906ZM425.981,245.928C414.141,254.562 425.268,280.862 432.852,289.647C438.739,296.467 442.772,301.114 451.547,303.887C465.924,292.482 444.832,246.976 425.981,245.928ZM595.88,246.015C578.152,251.808 564.538,281.785 568.381,299.619C569.162,303.246 572.146,304.049 575.375,303.859C588.934,296.184 597.034,284.281 601.323,269.43C603.226,262.839 605.648,247.193 595.88,246.015Z" style="fill:rgb(85,55,35);"/>
        <path d="M500.327,128.782C503.05,128.65 505.775,128.563 508.501,128.521C529.341,128.283 550.158,129.991 570.681,133.622C663.494,150.246 719.775,207.245 756.553,291.647C780.179,345.864 796.97,406.36 832.289,454.007C839.76,464.087 850.147,474.637 859.123,483.382C844.309,489.505 829.097,494.127 813.003,495.177C816.538,513.977 816.744,537.38 815.004,556.324C830.281,577.811 849.556,599.544 865.632,620.663C873.487,630.983 881.567,640.682 888.384,651.827C886.664,655.26 884.226,658.699 882.257,661.958C821.159,763.079 724.32,836.272 614.215,876.879C583.969,888.034 553.565,899.084 521.373,906.295C512.149,908.764 512.45,908.971 503.276,906.814C476.374,900.491 451.005,891.835 425.069,882.819C322.007,846.992 232.776,787.819 167.367,699.609C154.979,682.903 146.143,669.115 135.272,651.496C142.32,640.714 150.902,630.161 158.944,620.065C170.765,605.397 182.512,590.67 194.186,575.884C198.862,569.891 204.67,562.712 208.908,556.483C207.345,533.291 207.171,518.384 210.067,495.469C191.873,493.652 180.926,489.746 164.368,483.174C175.647,472.536 185.836,462.088 194.867,449.407C215.372,420.614 229.513,386.831 242.43,354.061C263.767,299.932 284.416,244.737 324.946,201.556C371.189,152.289 433.882,130.864 500.327,128.782ZM495.142,147.214C431.674,151.351 374.142,172.109 331.792,221.17C287.487,272.497 269.731,342.05 241.806,402.649C229.577,429.186 216.284,455.304 194.938,475.591C206.091,478.58 220.815,480.517 232.35,479.14C225.775,509.192 223.39,529.748 227.693,560.803C207.036,589.308 183.1,615.239 162.11,643.47C160.24,645.986 158.276,648.776 156.647,651.442C171.077,677.25 186.975,697.6 205.911,719.651C278.064,803.671 381.804,854.275 486.931,883.608C494.096,885.607 505.931,889.527 513.167,889.428C515.31,889.399 524.02,887.022 526.609,886.347C662.968,849.973 793.871,778.716 866.516,653.048L867.533,651.284C846.131,620.324 818.099,591.599 796.289,560.93C800.039,529.693 798.576,509.31 791.549,478.977C803.71,480.399 817.222,478.854 829.004,475.67C801.118,449.646 782.816,405.513 768.627,370.92C753.541,334.141 740.776,296.951 721.25,262.21C672.746,175.913 594.153,143.711 497.918,147.098C496.993,147.131 496.067,147.169 495.142,147.214ZM476.152,388.871C466.548,404.463 462.41,403.764 446.257,400.272C390.529,388.226 369.296,319.105 317.857,301.571C324.975,283.774 337.303,261.659 350.584,247.732C373.016,258.965 384.415,270.001 399.197,289.699C406.215,299.128 411.225,306.177 417.559,316.053C432.779,339.784 439.381,359.061 464.354,374.22C464.757,366.181 465.206,358.658 463.706,350.66C472.477,362.707 477.833,373.228 476.152,388.871ZM625.178,289.902C641.376,268.777 649.265,260.217 673.467,247.783C687.201,262.608 698.88,282.795 706.109,301.583C655.112,319.041 634.355,387.078 579.467,399.998C561.77,404.164 558.247,404.668 547.49,387.989C547.776,372.268 550.501,363.588 559.963,350.802C559.118,357.715 559.22,367.064 560.115,373.905C565.873,370.313 572.193,366.288 576.848,361.236C588.994,348.055 597.619,331.033 607.144,315.937C612.868,306.864 618.878,298.469 625.178,289.902ZM274.892,600.256C278.558,597.236 282.968,594.551 286.837,591.208C300.381,579.507 306.73,567.586 313.679,551.746C301.834,558.347 288.17,561.267 274.748,562.121C274.65,541.38 279.03,516.137 286.346,496.675C277.469,502.331 266.477,510.189 259.9,518.446C262.458,491.475 268.906,467.299 285.043,444.89C274.464,445.22 263.723,447.811 253.8,451.392C258.37,442.866 271.537,411.676 277.752,406.765C296.702,411.616 318.672,423.148 333.932,435.193C338.746,439.143 342.734,443.401 347.342,447.439C357.973,456.757 372.712,463.631 386.813,465.382C383.256,470.425 379.27,474.828 375.733,479.707C367.68,490.814 360.829,505.888 357.91,519.36C375.111,508.94 390.232,503.442 410.825,504.732C397.879,519.237 390.625,534.168 387.897,553.494C402.091,540.664 419.022,526.98 437.437,521.316C422.425,546.068 421.147,572.223 427.851,599.936C429.546,606.876 431.813,613.663 434.628,620.229C438.753,602.434 437.042,593.067 450.69,577.865C452.824,589.147 454.972,600.055 459.463,610.751C469.107,633.724 486.53,653.178 504.793,669.771C506.922,671.706 509.389,673.876 511.813,675.402C525.642,667.203 550.45,637.619 558.474,623.444C563.786,613.992 567.813,603.874 570.449,593.358C571.743,588.309 572.925,582.763 573.176,577.543C584.69,589.538 587.465,604.604 588.77,620.905C599.531,600.412 603.154,564.035 595.691,541.929C593.03,534.046 590.662,528.662 586.643,521.407C606.861,528.845 620.079,539.306 635.871,553.474C632.698,532.95 627.035,520.823 613.651,504.855C636.225,504.914 647.217,506.828 666.863,519.741C662.24,504.386 657.66,492.041 647.97,478.824C644.759,474.444 640.07,469.363 637.276,465.325C654.139,463.175 671.05,453.981 682.625,441.836C683.82,440.583 687.127,437.551 688.088,436.363C692.161,433.499 695.723,430.3 700.152,427.352C715.598,417.068 729.726,412.576 747.032,407.393C756.09,421.243 763.789,435.935 770.023,451.264C760.945,448.102 748.643,445.13 738.98,444.897C754.212,465.553 761.951,492.847 763.714,518.247C758.372,511.243 745.552,501.093 737.679,496.951C745.09,516.333 749.342,541.519 749.509,562.162C733.896,560.573 725.607,559.092 711.444,551.978C720.868,574.858 729.831,586.122 750.057,600.292C739.78,601.559 719.939,597.583 709.627,595.283C697.59,592.136 688.749,589.619 677.283,584.313C684.897,604.196 698.988,621.81 714.036,636.481C723.701,645.904 732.461,656.223 742.533,665.31C729.918,663.324 721.219,660.697 709.526,655.308C730.32,683.414 743.78,706.138 755.953,738.702C742.235,749.852 730.783,758.301 716.382,768.661C708.774,753.01 696.846,731.273 678.511,725.46C672.834,723.661 669.588,731.628 669.615,736.425C669.712,754.127 678.822,772.332 690.439,785.33C659.144,803.191 636.143,814.778 602.492,828.177C604.374,810.808 596.203,778.451 581.055,767.514C570.559,759.936 566.904,778.133 565.964,784.981C563.326,804.191 568.535,820.664 574.374,838.612C558.621,842.831 543.196,848.827 527.218,852.6C516.384,855.158 513.036,857.308 501.795,854.434C483.956,849.874 466.906,844.264 449.423,838.573C455.582,822.81 458.835,810.192 458.879,792.808C458.905,782.474 453.454,754.085 438.359,770.951C426.681,784 420.151,810.686 421.35,828.133C407.151,822.468 393.137,816.349 379.33,809.785C363.593,802.113 349.167,793.935 333.951,785.329C345.505,773.052 357.501,748.609 353.79,731.169C352.789,726.469 347.007,723.933 342.663,726.25C326.536,734.851 314.803,751.962 308.225,768.636C295.275,759.916 279.847,748.893 268.152,738.478C269.355,735.956 270.558,732.753 271.528,730.149C279.298,709.307 290.504,690.571 303.107,672.32C306.969,666.726 310.801,660.51 315.167,655.202C303.41,660.742 294.201,663.128 281.704,665.431C288.186,660.59 292.581,654.912 298.224,649.165C318.691,628.327 334.002,611.794 346.279,584.661C335.072,589.295 326.427,591.727 315.446,595.698C304.149,598.502 286.251,601.12 274.892,600.256ZM651.877,630.567C633.711,640.351 662.583,690.926 683.978,691.432C701.672,680.765 674.982,631.253 651.877,630.567ZM430.722,671.473C405.009,682.543 396.448,738.705 415.689,738.905C442.485,727.309 450.069,670.38 430.722,671.473ZM510.643,702.969C488.489,712.712 492.109,774.71 513.719,774.933C537.67,762.59 529.562,702.856 510.643,702.969ZM590.048,671.525C586.328,673.88 584.631,676.506 583.826,680.952C581.103,695.972 585.35,712.509 593.395,725.294C597.035,731.079 604.367,739.714 611.851,738.527C629.213,725.054 611.623,671.18 590.048,671.525ZM369.416,630.576C343.219,636.882 322.047,690.555 342.265,691.33C360.17,685.775 374.149,663.922 376.82,646.003C377.79,639.503 378.241,630.608 369.416,630.576Z" style="fill:rgb(228,203,165);"/>
        <path d="M495.142,147.214C496.067,147.169 496.993,147.131 497.918,147.098C594.153,143.711 672.746,175.913 721.25,262.21C740.776,296.951 753.541,334.141 768.627,370.92C782.816,405.513 801.118,449.646 829.004,475.67C817.222,478.854 803.71,480.399 791.549,478.977C798.576,509.31 800.039,529.693 796.289,560.93C818.099,591.599 846.131,620.324 867.533,651.284L866.516,653.048C793.871,778.716 662.968,849.973 526.609,886.347C524.02,887.022 515.31,889.399 513.167,889.428C505.931,889.527 494.096,885.607 486.931,883.608C381.804,854.275 278.064,803.671 205.911,719.651C186.975,697.6 171.077,677.25 156.647,651.442C158.276,648.776 160.24,645.986 162.11,643.47C183.1,615.239 207.036,589.308 227.693,560.803C223.39,529.748 225.775,509.192 232.35,479.14C220.815,480.517 206.091,478.58 194.938,475.591C216.284,455.304 229.577,429.186 241.806,402.649C269.731,342.05 287.487,272.497 331.792,221.17C374.142,172.109 431.674,151.351 495.142,147.214ZM358.189,357.358C354.328,361.335 352.768,364.952 350.741,369.99C338.067,401.503 356.733,439.357 393.236,438.687C405.979,438.395 418.086,433.057 426.897,423.845L427.224,423.492C428.869,421.422 430.304,419.739 431.637,417.439C428.485,415.989 424.882,414.432 421.905,412.732C386.561,449.334 348.912,397.116 375.299,376.842C371.362,372.882 368.313,369.626 364.785,365.295C363.369,363.558 359.501,358.59 358.189,357.358ZM240.058,712.034C249.502,721.676 258.666,729.428 268.152,738.478C279.847,748.893 295.275,759.916 308.225,768.636C314.803,751.962 326.536,734.851 342.663,726.25C347.007,723.933 352.789,726.469 353.79,731.169C357.501,748.609 345.505,773.052 333.951,785.329C349.167,793.935 363.593,802.113 379.33,809.785C393.137,816.349 407.151,822.468 421.35,828.133C420.151,810.686 426.681,784 438.359,770.951C453.454,754.085 458.905,782.474 458.879,792.808C458.835,810.192 455.582,822.81 449.423,838.573C466.906,844.264 483.956,849.874 501.795,854.434C513.036,857.308 516.384,855.158 527.218,852.6C543.196,848.827 558.621,842.831 574.374,838.612C568.535,820.664 563.326,804.191 565.964,784.981C566.904,778.133 570.559,759.936 581.055,767.514C596.203,778.451 604.374,810.808 602.492,828.177C636.143,814.778 659.144,803.191 690.439,785.33C678.822,772.332 669.712,754.127 669.615,736.425C669.588,731.628 672.834,723.661 678.511,725.46C696.846,731.273 708.774,753.01 716.382,768.661C730.783,758.301 742.235,749.852 755.953,738.702C760.023,734.785 783.687,714.173 784.029,710.922L784.25,710.543L784.736,710.681C787.722,709.638 804.33,689.322 807.632,685.413C793.602,680.2 781.657,670.551 773.608,657.933C765.695,645.61 759.059,620.749 783.514,633.776C800.158,642.643 810.172,655.221 816.298,672.905C819.536,667.232 824.639,660.05 828.361,654.615C820.715,643.79 812.594,633.308 804.02,623.202C794.326,611.945 779.791,597.538 773.099,584.636C770.515,595.477 769.547,601.069 768.432,612.116C763.111,609.411 753.57,604.746 750.057,600.292C729.831,586.122 720.868,574.858 711.444,551.978C725.607,559.092 733.896,560.573 749.509,562.162C749.342,541.519 745.09,516.333 737.679,496.951C745.552,501.093 758.372,511.243 763.714,518.247C761.951,492.847 754.212,465.553 738.98,444.897C748.643,445.13 760.945,448.102 770.023,451.264C763.789,435.935 756.09,421.243 747.032,407.393L746.655,406.92C744.624,404.401 741.628,401.781 740.083,399.658C728.337,383.518 715.678,361.133 710.044,341.923C705.462,345.069 700.842,348.16 696.186,351.193C705.434,368.516 707.864,390.318 702.086,409.048C700.694,413.597 698.784,417.97 696.416,422.096C694.749,425 688.567,434.054 688.088,436.363C687.127,437.551 683.82,440.583 682.625,441.836C671.05,453.981 654.139,463.175 637.276,465.325C640.07,469.363 644.759,474.444 647.97,478.824C657.66,492.041 662.24,504.386 666.863,519.741C647.217,506.828 636.225,504.914 613.651,504.855C627.035,520.823 632.698,532.95 635.871,553.474C620.079,539.306 606.861,528.845 586.643,521.407C590.662,528.662 593.03,534.046 595.691,541.929C603.154,564.035 599.531,600.412 588.77,620.905C587.465,604.604 584.69,589.538 573.176,577.543C572.925,582.763 571.743,588.309 570.449,593.358C567.813,603.874 563.786,613.992 558.474,623.444C550.45,637.619 525.642,667.203 511.813,675.402C509.389,673.876 506.922,671.706 504.793,669.771C486.53,653.178 469.107,633.724 459.463,610.751C454.972,600.055 452.824,589.147 450.69,577.865C437.042,593.067 438.753,602.434 434.628,620.229C431.813,613.663 429.546,606.876 427.851,599.936C421.147,572.223 422.425,546.068 437.437,521.316C419.022,526.98 402.091,540.664 387.897,553.494C390.625,534.168 397.879,519.237 410.825,504.732C390.232,503.442 375.111,508.94 357.91,519.36C360.829,505.888 367.68,490.814 375.733,479.707C379.27,474.828 383.256,470.425 386.813,465.382C372.712,463.631 357.973,456.757 347.342,447.439C342.734,443.401 338.746,439.143 333.932,435.193C335.152,433.225 333.866,431.962 332.298,429.972C317.411,411.084 314.614,371.213 328.588,351.333C324.511,348.312 319.325,344.936 315.076,342.021C309.034,360.295 292.226,394.457 277.752,406.765C271.537,411.676 258.37,442.866 253.8,451.392C263.723,447.811 274.464,445.22 285.043,444.89C268.906,467.299 262.458,491.475 259.9,518.446C266.477,510.189 277.469,502.331 286.346,496.675C279.03,516.137 274.65,541.38 274.748,562.121C288.17,561.267 301.834,558.347 313.679,551.746C306.73,567.586 300.381,579.507 286.837,591.208C282.968,594.551 278.558,597.236 274.892,600.256C269.41,605.352 261.861,608.584 255.088,611.797C254.693,602.258 253.178,592.798 250.572,583.613C248.658,587.704 245.818,593.9 243.181,597.381C234.136,609.318 223.329,619.575 213.758,631.362C208.546,637.781 200.839,649.26 195.75,654.619C199.652,660.636 203.774,666.698 207.608,672.712C213.928,654.584 224.445,642.294 241.348,632.794C259.009,622.868 261.147,637.289 254.976,651.042C248.466,665.551 234.693,678.739 219.612,684.349C218.679,684.696 217.743,685.036 216.806,685.371C223.23,693.688 232.675,704.525 240.058,712.034ZM510.643,702.969C529.562,702.856 537.67,762.59 513.719,774.933C492.109,774.71 488.489,712.712 510.643,702.969ZM430.722,671.473C450.069,670.38 442.485,727.309 415.689,738.905C396.448,738.705 405.009,682.543 430.722,671.473ZM590.048,671.525C611.623,671.18 629.213,725.054 611.851,738.527C604.367,739.714 597.035,731.079 593.395,725.294C585.35,712.509 581.103,695.972 583.826,680.952C584.631,676.506 586.328,673.88 590.048,671.525ZM651.877,630.567C674.982,631.253 701.672,680.765 683.978,691.432C662.583,690.926 633.711,640.351 651.877,630.567ZM369.416,630.576C378.241,630.608 377.79,639.503 376.82,646.003C374.149,663.922 360.17,685.775 342.265,691.33C322.047,690.555 343.219,636.882 369.416,630.576ZM511.969,528.953C514.187,525.659 516.841,520.136 518.831,516.554C542.955,473.143 567.724,465.605 612.649,483.17C604.007,473.748 596.595,467.566 584.643,462.48C580.585,460.753 576.22,459.254 572.265,457.415L571.736,457.165C562.175,442.775 553.429,431.506 539.265,421.137C534.868,417.918 515.886,404.5 511.586,405.106C492.357,414.777 477.34,425.26 463.525,442.117C460.061,446.344 455.361,454.096 452.179,457.135C450.315,458.915 438.857,463.351 435.64,464.925C425.711,469.783 420.064,476.012 412.032,483.425C427.599,475.976 448.711,471.07 465.614,476.875C476.901,480.752 487.365,490.741 494.452,500.069C498.758,505.737 502.559,511.771 505.827,518.096C506.705,519.796 510.622,528.643 511.969,528.953ZM491.154,429.929L491.953,430.484C494.03,436.356 493.808,453.013 493.832,459.66C491.823,456.116 490.674,454.096 488.22,450.895C483.867,446.623 481.629,445.981 475.879,445.108C480.192,438.777 484.858,434.317 491.154,429.929ZM532.382,429.496C538.04,432.486 544.053,439.747 547.528,445.019C542.795,446.321 541.188,446.809 537.3,449.889C534.328,452.822 532.42,456.193 530.287,459.74C530.755,449.423 529.64,439.721 532.382,429.496ZM378.913,379.959C377.024,382.954 376.223,386.96 376.997,390.413C377.631,393.357 379.447,395.91 382.019,397.476C385.789,399.762 389.736,399.303 393.628,397.671C394.981,396.612 396.29,395.65 397.513,394.439C390.931,389.448 385.104,385.519 378.913,379.959ZM476.152,388.871C477.536,387.983 481.358,384.347 482.613,383.216C500.079,367.477 518.962,365.001 537.897,379.958C540.732,382.198 544.479,386.076 547.49,387.989C558.247,404.668 561.77,404.164 579.467,399.998C634.355,387.078 655.112,319.041 706.109,301.583C698.88,282.795 687.201,262.608 673.467,247.783C649.265,260.217 641.376,268.777 625.178,289.902C624.178,260.915 629.159,246.644 650.428,226.592C642.82,220.255 627.643,209.104 619.531,204.089C613.506,208.261 604.438,214.805 599.313,220.037C590.247,229.294 582.881,237.272 573.18,245.885C572.455,224.154 572.32,209.79 580.381,189.252C571.54,187.468 559.833,185.434 550.92,184.85C547.605,190.333 542.596,201.387 539.668,207.302C530.01,226.806 521.623,248.182 512.051,267.589C510.669,264.289 509.075,261.047 507.477,257.844C495.381,233.598 485.531,208.008 472.324,184.334C462.969,185.82 452.93,186.935 443.737,189.2C451.793,208.937 451.88,224.666 450.368,245.585C442.643,239.473 434.72,229.887 427.646,222.854C420.405,215.655 412.857,209.988 404.813,203.772C394.806,211.532 383.813,217.343 373.669,226.392C377.413,229.245 380.83,232.503 383.857,236.107C397.19,251.97 400.855,269.565 399.197,289.699C384.415,270.001 373.016,258.965 350.584,247.732C337.303,261.659 324.975,283.774 317.857,301.571C369.296,319.105 390.529,388.226 446.257,400.272C462.41,403.764 466.548,404.463 476.152,388.871ZM541.932,288.906C553.459,297.986 544.406,350.896 527.314,351.878C512.213,340.429 525.627,297.641 541.932,288.906ZM481.133,288.863C498.502,295.92 509.75,334.948 497.843,351.163C482.897,356.966 471.15,305.438 481.133,288.863ZM595.88,246.015C605.648,247.193 603.226,262.839 601.323,269.43C597.034,284.281 588.934,296.184 575.375,303.859C572.146,304.049 569.162,303.246 568.381,299.619C564.538,281.785 578.152,251.808 595.88,246.015ZM425.981,245.928C444.832,246.976 465.924,292.482 451.547,303.887C442.772,301.114 438.739,296.467 432.852,289.647C425.268,280.862 414.141,254.562 425.981,245.928ZM648.376,376.51C643.371,381.105 638.311,385.641 633.197,390.115C641.122,407.037 656.008,394.146 652.623,380.321C655.664,382.316 656.971,392.559 656.816,395.962C656.399,404.121 652.772,411.784 646.727,417.279C640.781,422.782 632.823,425.579 624.742,425.006C614.707,424.335 609.105,420.044 602.708,412.802C598.786,414.964 596.984,415.954 592.784,417.479C593.833,419.505 595.115,421.401 596.605,423.13C613.131,441.966 642.403,444.128 661.421,427.264C680.133,410.672 682.769,375.616 665.687,357.065C659.827,363.389 654.448,370.048 648.376,376.51ZM512.334,553.598C531.836,530.022 550.737,511.393 577.463,496.266C578.818,495.499 582.702,493.241 583.646,492.222C557.273,486.456 529.943,517.984 517.689,537.813C515.688,541.052 513.669,544.385 511.718,547.662C495.686,521.201 474.168,485.467 437.666,492.113C455.024,499.91 470.861,510.723 484.443,524.05C488.869,528.329 493.389,533.047 497.569,537.464C499.614,539.626 510.334,553.276 511.923,553.833L512.334,553.598Z" style="fill:rgb(1,29,63);"/>
        <path d="M511.969,528.953C510.622,528.643 506.705,519.796 505.827,518.096C502.559,511.771 498.758,505.737 494.452,500.069C487.365,490.741 476.901,480.752 465.614,476.875C448.711,471.07 427.599,475.976 412.032,483.425C420.064,476.012 425.711,469.783 435.64,464.925C438.857,463.351 450.315,458.915 452.179,457.135C455.361,454.096 460.061,446.344 463.525,442.117C477.34,425.26 492.357,414.777 511.586,405.106C512.28,407.645 511.994,426.855 511.992,431L511.957,497.31C511.951,505.061 511.404,522.07 511.969,528.953ZM491.154,429.929C484.858,434.317 480.192,438.777 475.879,445.108C481.629,445.981 483.867,446.623 488.22,450.895C490.674,454.096 491.823,456.116 493.832,459.66C493.808,453.013 494.03,436.356 491.953,430.484L491.154,429.929ZM512.334,553.598L511.923,553.833C510.334,553.276 499.614,539.626 497.569,537.464C493.389,533.047 488.869,528.329 484.443,524.05C470.861,510.723 455.024,499.91 437.666,492.113C474.168,485.467 495.686,521.201 511.718,547.662C511.909,549.642 512.114,551.621 512.334,553.598Z" style="fill:rgb(98,114,120);"/>
        <path d="M511.586,405.106C515.886,404.5 534.868,417.918 539.265,421.137C553.429,431.506 562.175,442.775 571.736,457.165L572.265,457.415C576.22,459.254 580.585,460.753 584.643,462.48C596.595,467.566 604.007,473.748 612.649,483.17C567.724,465.605 542.955,473.143 518.831,516.554C516.841,520.136 514.187,525.659 511.969,528.953C511.404,522.07 511.951,505.061 511.957,497.31L511.992,431C511.994,426.855 512.28,407.645 511.586,405.106ZM532.382,429.496C529.64,439.721 530.755,449.423 530.287,459.74C532.42,456.193 534.328,452.822 537.3,449.889C541.188,446.809 542.795,446.321 547.528,445.019C544.053,439.747 538.04,432.486 532.382,429.496ZM511.718,547.662C513.669,544.385 515.688,541.052 517.689,537.813C529.943,517.984 557.273,486.456 583.646,492.222C582.702,493.241 578.818,495.499 577.463,496.266C550.737,511.393 531.836,530.022 512.334,553.598C512.114,551.621 511.909,549.642 511.718,547.662Z" style="fill:rgb(43,69,86);"/>
        <path d="M648.376,376.51C654.448,370.048 659.827,363.389 665.687,357.065C682.769,375.616 680.133,410.672 661.421,427.264C642.403,444.128 613.131,441.966 596.605,423.13C595.115,421.401 593.833,419.505 592.784,417.479C596.984,415.954 598.786,414.964 602.708,412.802C609.105,420.044 614.707,424.335 624.742,425.006C632.823,425.579 640.781,422.782 646.727,417.279C652.772,411.784 656.399,404.121 656.816,395.962C656.971,392.559 655.664,382.316 652.623,380.321C650.951,378.441 650.411,378.011 648.376,376.51ZM358.189,357.358C359.501,358.59 363.369,363.558 364.785,365.295C368.313,369.626 371.362,372.882 375.299,376.842C348.912,397.116 386.561,449.334 421.905,412.732C424.882,414.432 428.485,415.989 431.637,417.439C430.304,419.739 428.869,421.422 427.224,423.492L426.897,423.845C418.086,433.057 405.979,438.395 393.236,438.687C356.733,439.357 338.067,401.503 350.741,369.99C352.768,364.952 354.328,361.335 358.189,357.358Z" style="fill:rgb(235,164,54);"/>
        <path d="M652.623,380.321C656.008,394.146 641.122,407.037 633.197,390.115C638.311,385.641 643.371,381.105 648.376,376.51C650.411,378.011 650.951,378.441 652.623,380.321ZM378.913,379.959C385.104,385.519 390.931,389.448 397.513,394.439C396.29,395.65 394.981,396.612 393.628,397.671C389.736,399.303 385.789,399.762 382.019,397.476C379.447,395.91 377.631,393.357 376.997,390.413C376.223,386.96 377.024,382.954 378.913,379.959Z" style="fill:rgb(254,254,254);"/>
    </g>
</svg>
