<?xml version="1.0" encoding="UTF-8" standalone="no"?>
<!DOCTYPE svg PUBLIC "-//W3C//DTD SVG 1.1//EN" "http://www.w3.org/Graphics/SVG/1.1/DTD/svg11.dtd">
<svg width="100%" height="100%" viewBox="0 0 851 925" version="1.1" xmlns="http://www.w3.org/2000/svg" xmlns:xlink="http://www.w3.org/1999/xlink" xml:space="preserve" xmlns:serif="http://www.serif.com/" style="fill-rule:evenodd;clip-rule:evenodd;stroke-linejoin:round;stroke-miterlimit:2;">
    <g transform="matrix(1,0,0,1,-82.6702,-49.8559)">
        <path d="M151.229,100.174C154.691,102.563 159.821,107.838 163.051,110.901C202.189,148.025 253.655,168.758 303.302,188.099C349.077,205.931 397.764,217.234 445.512,228.618C535.135,249.986 625.937,277.011 703.593,328.074C754.648,361.384 818.946,422.765 808.437,490.188C869.575,530.439 915.854,587.57 912.866,664.59C912.324,678.571 910.681,694.761 907.152,708.289C901.402,704.828 895.418,699.676 889.346,696.136C872.213,686.15 851.835,679.58 832.058,676.809C796.095,671.771 746.414,675.764 716.079,697.167C694.962,712.065 686.267,746.45 686.225,770.76C686.199,785.271 691.091,808.653 693.935,823.671C699.293,851.966 704.306,878.516 705.248,907.498C705.714,921.849 706.546,930.974 704.468,945.829L693.624,942.252C678.786,936.817 665.208,930.391 650.838,923.892C604.363,903.111 559.673,878.551 517.217,850.46C473.661,821.158 432.173,788.364 389.25,757.851C338.744,721.946 281.644,687.31 220.603,673.3C190.435,666.376 145.052,666.518 114.699,671.553C125.645,615.721 137.718,584.066 166.545,535.411C153.753,537.457 132.566,550.525 120.339,557.43C136.144,517.054 159.309,475.898 188.265,443.427C201.621,428.449 214.925,416.703 230.119,403.801C187.42,365.663 153.915,319.481 138.846,263.567C137.614,258.998 136.429,254.415 135.236,249.836C154.807,259.998 177.514,269.557 197.923,278.078C192.205,268.853 186.532,260.741 181.278,250.934C163.075,216.962 150.338,178.163 149.042,139.437C148.629,127.098 150.159,112.385 151.229,100.174ZM187.233,621.004C180.65,621.345 175.361,622.86 169.281,625.168C172.791,615.529 176.53,604.864 180.635,595.55C194.437,564.233 219.815,529.414 246.956,508.287C252.033,503.275 262.004,495.035 267.683,490.854C260.332,491.74 252.969,492.533 245.597,493.23C229.646,495.968 225.465,495.246 208.723,500.777C213.758,495.769 218.436,490.086 223.673,485.02C249.682,459.861 276.165,441.469 313.421,439.464C327.468,436.516 360.461,443.031 374.635,445.367C358.719,437.789 343.056,429.689 327.672,421.082C288.517,399.337 259.664,380.196 228.947,346.896C216.957,333.898 209.656,322.672 198.998,310.002C201.683,310.966 204.479,311.852 206.984,313.187C217.563,317.281 228.23,322.307 238.757,326.7C256.506,334.048 274.378,341.097 292.365,347.842C301.526,351.297 313.703,356.142 322.942,358.679C327.392,359.847 332.148,361.241 336.68,361.829C314.11,348.447 281.622,322.351 262.617,304.297C301.89,321.05 337.26,328.825 379.692,329.522C373.289,327.267 366.933,324.881 360.628,322.366C338.818,313.64 315.276,303.163 295.354,290.608C262.237,269.738 229.403,238.617 213.798,202.226L208.313,191.558C206.868,188.902 205.369,186.262 204.135,183.504C306.177,242.672 417.229,254.544 527.513,287.859C564.657,299.382 600.89,313.655 635.914,330.56C668.037,346.268 698.745,365.124 725.594,389.105C746.657,407.919 764.258,429.875 772.508,457.487C774.255,463.333 775.026,472.738 771.74,477.884C768.144,483.515 758.852,491.792 753.563,496.168C751.543,487.362 748.712,480.081 743.886,472.364C739.189,480.131 734.59,490.287 725.006,492.094C695.364,497.683 666.988,471.719 644.919,455.681C623.895,440.402 605.342,425.792 582.774,413.121C574.204,408.288 564.457,402.778 555.055,399.865C546.855,397.982 538.766,395.215 530.33,393.275C503.922,386.986 476.601,385.477 449.66,388.818C459.676,399.828 466.908,405.639 479.946,412.828C485.331,415.798 493.213,424.325 497.145,429.081C477.449,426.367 449.08,427.041 429.49,431.406C472.478,442.783 509.848,469.43 534.612,506.364C505.679,509.812 476.772,513.471 447.893,517.34C435.494,518.977 413.575,522.527 401.834,523.036C404.161,524.331 406.173,525.33 408.244,527.02C411.76,529.842 417.244,534.083 420.138,537.318C432.386,548.702 439.825,560.795 449.547,574.037C471.942,604.54 500.233,632.138 530.483,654.628C531.3,654.993 536.31,658.943 537.342,659.737C507.003,656.021 465.408,640.052 437.925,625.98C429.207,621.516 416.33,612.762 408.282,607.218C412.588,625.31 423.574,645.906 433.426,661.723C476.564,730.98 536.503,788.396 592.934,846.667C585.555,842.352 574.558,834.389 567.018,829.443C539.725,811.335 512.831,792.632 486.355,773.349L430.585,732.246C421.052,725.196 408.156,714.981 398.352,708.491C347.976,675.145 291.8,638.229 232.486,624.277C217.75,620.81 202.021,620.897 187.233,621.004ZM699.48,620.211C739.195,618.146 785.879,623.64 821.928,641.143C805.934,642.263 791.644,640.438 773.932,642.584C752.296,644.367 731.432,651.536 711.91,660.681C699.274,646.524 685.559,633.743 669.656,623.336C678.482,621.543 690.475,620.768 699.48,620.211ZM577.589,447.672C589.652,455.194 603.653,465.894 615.237,474.372C614.583,475.074 613.946,475.791 613.326,476.523C601.829,489.922 604.449,506.479 617.674,517.238C624.876,523.186 634.196,525.932 643.472,524.841C653.849,523.605 659.701,518.472 665.777,510.711C667.383,511.866 669.763,513.314 670.714,514.927L670.124,515.894C653.121,532.608 633.375,540.185 609.938,531.831C595.386,526.596 583.523,515.774 576.979,501.762C568.007,482.407 570.662,466.559 577.589,447.672ZM779.517,513.895C789.135,518.245 794.376,521.375 802.798,527.674C844.897,559.161 870.133,591.914 877.5,645.277C864.416,635.246 848.934,628.392 834.126,621.962C796.313,605.544 758.948,596.941 717.711,595.167C708.29,594.762 699.156,593.94 689.499,593.995C675.849,593.876 663.109,595.953 649.816,596.122C663.256,588.836 677.3,582.723 691.792,577.853C703.771,573.798 715.899,570.199 728.151,567.064C751.08,561.097 764.027,560.313 786.063,570.576C797.404,575.858 808.791,581.294 820.057,586.827C802.979,569.423 785.805,552.113 768.535,534.898C767.491,537.464 766.725,540.028 764.554,541.853C756.871,548.311 748.555,544.367 742.818,537.986C748.41,534.63 755.478,532.417 760.58,529.456C765.746,526.458 774.739,518.142 779.517,513.895ZM661.681,675.385C662.034,677.331 655.809,687.594 654.364,690.674C649.652,700.28 647.992,711.255 646.537,721.686C642.612,749.835 647.259,772.932 657.111,799.26C663.234,815.622 669.84,833.33 675.505,850.027C672.733,847.142 670.603,844.869 668.089,841.775L667.968,841.651C645.705,812.949 628.941,777.189 631.613,740.075C633.238,717.513 644.293,690.397 661.681,675.385Z" style="fill:rgb(4,15,19);"/>
        <path d="M779.517,513.895C789.135,518.245 794.376,521.375 802.798,527.674C844.897,559.161 870.133,591.914 877.5,645.277C864.416,635.246 848.934,628.392 834.126,621.962C796.313,605.544 758.948,596.941 717.711,595.167C708.29,594.762 699.156,593.94 689.499,593.995C675.849,593.876 663.109,595.953 649.816,596.122C663.256,588.836 677.3,582.723 691.792,577.853C703.771,573.798 715.899,570.199 728.151,567.064C751.08,561.097 764.027,560.313 786.063,570.576C797.404,575.858 808.791,581.294 820.057,586.827C802.979,569.423 785.805,552.113 768.535,534.898C767.491,537.464 766.725,540.028 764.554,541.853C756.871,548.311 748.555,544.367 742.818,537.986C748.41,534.63 755.478,532.417 760.58,529.456C765.746,526.458 774.739,518.142 779.517,513.895Z" style="fill:rgb(255,201,16);"/>
        <path d="M699.48,620.211C739.195,618.146 785.879,623.64 821.928,641.143C805.934,642.263 791.644,640.438 773.932,642.584C752.296,644.367 731.432,651.536 711.91,660.681C699.274,646.524 685.559,633.743 669.656,623.336C678.482,621.543 690.475,620.768 699.48,620.211Z" style="fill:rgb(99,99,99);"/>
        <path d="M134.386,49.856C136.933,52.08 141.277,57.073 143.729,59.745C148.792,65.368 154,70.86 159.347,76.213C180.448,97.207 204.196,115.36 229.99,130.214C324.836,184.364 424.577,197.497 526.837,226.837C576.284,241.064 624.231,260.064 670,283.571C713.415,306.04 752.776,333.412 785.213,370.451C809.913,398.655 832.397,441.305 829.658,479.459C870.623,504.786 902.271,542.715 919.851,587.554C939.071,637.145 937.472,698.759 916.015,747.258C913.601,745.353 910.959,742.969 908.993,740.687C881.633,708.94 839.437,695.031 798.354,696.663C777.318,697.498 744.285,702.854 727.739,716.278C695.151,742.719 709.001,799.268 715.89,833.508C717.817,843.221 719.466,852.986 720.835,862.793C724.483,889.636 726.518,922.958 723.59,949.88C722.937,958.057 721.252,966.359 719.697,974.41C640.242,947.888 550.655,901.763 482.177,853.302C461.517,838.799 441.018,824.067 420.684,809.11C351.62,758.231 278.575,703.628 191.076,691.959C155.491,687.213 122.831,691.338 88.269,700.248C90.615,685.112 92.04,670.217 94.664,654.984C99.232,628.06 107.716,601.949 119.847,577.483C107.413,585.705 95.103,595.358 82.67,603.772C102.788,521.304 135.842,461.5 195.78,401.598C187.691,392.613 179.699,384.132 172.162,374.652C143.926,339.137 121.731,297.414 112.082,252.865C108.575,236.674 106.641,220.303 104.737,203.875C118.463,213.283 132.331,221.677 146.453,230.424C117.443,165.866 120.666,117.537 134.386,49.856ZM151.229,100.174C150.159,112.385 148.629,127.098 149.042,139.437C150.338,178.163 163.075,216.962 181.278,250.934C186.532,260.741 192.205,268.853 197.923,278.078C177.514,269.557 154.807,259.998 135.236,249.836C136.429,254.415 137.614,258.998 138.846,263.567C153.915,319.481 187.42,365.663 230.119,403.801C214.925,416.703 201.621,428.449 188.265,443.427C159.309,475.898 136.144,517.054 120.339,557.43C132.566,550.525 153.753,537.457 166.545,535.411C137.718,584.066 125.645,615.721 114.699,671.553C145.052,666.518 190.435,666.376 220.603,673.3C281.644,687.31 338.744,721.946 389.25,757.851C432.173,788.364 473.661,821.158 517.217,850.46C559.673,878.551 604.363,903.111 650.838,923.892C665.208,930.391 678.786,936.817 693.624,942.252L704.468,945.829C706.546,930.974 705.714,921.849 705.248,907.498C704.306,878.516 699.293,851.966 693.935,823.671C691.091,808.653 686.199,785.271 686.225,770.76C686.267,746.45 694.962,712.065 716.079,697.167C746.414,675.764 796.095,671.771 832.058,676.809C851.835,679.58 872.213,686.15 889.346,696.136C895.418,699.676 901.402,704.828 907.152,708.289C910.681,694.761 912.324,678.571 912.866,664.59C915.854,587.57 869.575,530.439 808.437,490.188C818.946,422.765 754.648,361.384 703.593,328.074C625.937,277.011 535.135,249.986 445.512,228.618C397.764,217.234 349.077,205.931 303.302,188.099C253.655,168.758 202.189,148.025 163.051,110.901C159.821,107.838 154.691,102.563 151.229,100.174ZM577.589,447.672C589.652,455.194 603.653,465.894 615.237,474.372C614.583,475.074 613.946,475.791 613.326,476.523C601.829,489.922 604.449,506.479 617.674,517.238C624.876,523.186 634.196,525.932 643.472,524.841C653.849,523.605 659.701,518.472 665.777,510.711C667.383,511.866 669.763,513.314 670.714,514.927L670.124,515.894C653.121,532.608 633.375,540.185 609.938,531.831C595.386,526.596 583.523,515.774 576.979,501.762C568.007,482.407 570.662,466.559 577.589,447.672Z" style="fill:white;"/>
        <path d="M221.46,203.907C226.571,208.231 231.744,212.531 236.981,216.7C296.345,263.96 367.944,291.832 435.266,325.438C458.513,337.042 484.268,344.653 506.293,358.729C486.593,359.069 465.411,356.754 445.746,354.661C436.251,353.65 423.212,350.718 414.343,350.251C422.853,352.315 429.481,356.031 437.159,358.09C472.718,367.628 508.163,376.862 541.658,392.555C544.937,394.087 553.072,397.079 555.055,399.865C546.855,397.982 538.766,395.215 530.33,393.275C503.922,386.986 476.601,385.477 449.66,388.818C459.676,399.828 466.908,405.639 479.946,412.828C485.331,415.798 493.213,424.325 497.145,429.081C477.449,426.367 449.08,427.041 429.49,431.406C472.478,442.783 509.848,469.43 534.612,506.364C505.679,509.812 476.772,513.471 447.893,517.34C435.494,518.977 413.575,522.527 401.834,523.036C404.161,524.331 406.173,525.33 408.244,527.02C411.76,529.842 417.244,534.083 420.138,537.318C417.513,537.318 404.164,529.281 401.849,527.316L400.643,526.76C399.907,528.592 413.737,553.653 415.675,556.965C424.033,571.245 433.106,585.606 443.953,598.155C465.071,621.919 493.447,640.084 522.515,652.616C524.923,653.654 527.914,654.735 530.483,654.628C531.3,654.993 536.31,658.943 537.342,659.737C507.003,656.021 465.408,640.052 437.925,625.98C429.207,621.516 416.33,612.762 408.282,607.218C412.588,625.31 423.574,645.906 433.426,661.723C476.564,730.98 536.503,788.396 592.934,846.667C585.555,842.352 574.558,834.389 567.018,829.443C539.725,811.335 512.831,792.632 486.355,773.349L430.585,732.246C421.052,725.196 408.156,714.981 398.352,708.491C347.976,675.145 291.8,638.229 232.486,624.277C217.75,620.81 202.021,620.897 187.233,621.004C191.541,617.694 197.8,615.684 202.779,613.685C232.153,601.895 263,603.495 293.99,603.702C299.634,603.74 306.56,604.217 312.099,603.209C297.704,595.143 267.363,589.648 250.186,587.077C242.989,586 224.245,586.062 217.073,587.061C231.1,557.761 254.197,530.231 278.215,508.51C287.164,500.417 296.17,493.945 305.237,486.334C294.535,488.931 279.596,495.879 269.069,499.671C264.172,501.435 251.407,508.001 246.956,508.287C252.033,503.275 262.004,495.035 267.683,490.854C260.332,491.74 252.969,492.533 245.597,493.23C248.281,488.977 254.007,483.62 257.766,479.96C277.463,460.788 296.106,449.28 321.566,439.433C318.75,439.523 316.23,439.509 313.421,439.464C327.468,436.516 360.461,443.031 374.635,445.367C358.719,437.789 343.056,429.689 327.672,421.082C288.517,399.337 259.664,380.196 228.947,346.896C216.957,333.898 209.656,322.672 198.998,310.002C201.683,310.966 204.479,311.852 206.984,313.187C211.071,320.193 217.053,325.909 223.701,330.45C247.327,346.587 274.748,361.435 301.139,372.374C317.079,379.141 333.472,384.786 350.199,389.269C370.095,394.49 384.405,398.146 404.719,400.259C378.204,386.85 350.815,374.769 324.659,360.602C324.026,360.259 323.336,359.239 322.942,358.679C327.392,359.847 332.148,361.241 336.68,361.829C314.11,348.447 281.622,322.351 262.617,304.297C301.89,321.05 337.26,328.825 379.692,329.522C373.289,327.267 366.933,324.881 360.628,322.366C338.818,313.64 315.276,303.163 295.354,290.608C262.237,269.738 229.403,238.617 213.798,202.226L208.313,191.558L209.41,190.39C209.896,190.534 220.233,202.376 221.46,203.907ZM592.211,353.904C595.998,354.099 601.388,355.522 604.993,356.579C654.938,371.224 701.07,398.866 729.955,443.146C732.219,446.617 737.468,453.229 738.36,457.003L737.712,457.602L736.894,457.795C708.308,464.324 684.684,452.175 667.252,429.604C664.068,425.483 661.198,420.351 658.276,415.947C654.068,409.589 649.423,403.532 644.374,397.82C629.203,380.563 611.542,366.242 592.211,353.904ZM661.681,675.385C662.034,677.331 655.809,687.594 654.364,690.674C649.652,700.28 647.992,711.255 646.537,721.686C642.612,749.835 647.259,772.932 657.111,799.26C663.234,815.622 669.84,833.33 675.505,850.027C672.733,847.142 670.603,844.869 668.089,841.775L667.968,841.651C645.705,812.949 628.941,777.189 631.613,740.075C633.238,717.513 644.293,690.397 661.681,675.385Z" style="fill:rgb(152,12,25);"/>
        <path d="M208.313,191.558C206.868,188.902 205.369,186.262 204.135,183.504C306.177,242.672 417.229,254.544 527.513,287.859C564.657,299.382 600.89,313.655 635.914,330.56C668.037,346.268 698.745,365.124 725.594,389.105C746.657,407.919 764.258,429.875 772.508,457.487C774.255,463.333 775.026,472.738 771.74,477.884C768.144,483.515 758.852,491.792 753.563,496.168C751.543,487.362 748.712,480.081 743.886,472.364C739.189,480.131 734.59,490.287 725.006,492.094C695.364,497.683 666.988,471.719 644.919,455.681C623.895,440.402 605.342,425.792 582.774,413.121C574.204,408.288 564.457,402.778 555.055,399.865C553.072,397.079 544.937,394.087 541.658,392.555C508.163,376.862 472.718,367.628 437.159,358.09C429.481,356.031 422.853,352.315 414.343,350.251C423.212,350.718 436.251,353.65 445.746,354.661C465.411,356.754 486.593,359.069 506.293,358.729C484.268,344.653 458.513,337.042 435.266,325.438C367.944,291.832 296.345,263.96 236.981,216.7C231.744,212.531 226.571,208.231 221.46,203.907C220.233,202.376 209.896,190.534 209.41,190.39L208.313,191.558ZM592.211,353.904C611.542,366.242 629.203,380.563 644.374,397.82C649.423,403.532 654.068,409.589 658.276,415.947C661.198,420.351 664.068,425.483 667.252,429.604C684.684,452.175 708.308,464.324 736.894,457.795L737.712,457.602L738.36,457.003C737.468,453.229 732.219,446.617 729.955,443.146C701.07,398.866 654.938,371.224 604.993,356.579C601.388,355.522 595.998,354.099 592.211,353.904ZM187.233,621.004C180.65,621.345 175.361,622.86 169.281,625.168C172.791,615.529 176.53,604.864 180.635,595.55C194.437,564.233 219.815,529.414 246.956,508.287C251.407,508.001 264.172,501.435 269.069,499.671C279.596,495.879 294.535,488.931 305.237,486.334C296.17,493.945 287.164,500.417 278.215,508.51C254.197,530.231 231.1,557.761 217.073,587.061C224.245,586.062 242.989,586 250.186,587.077C267.363,589.648 297.704,595.143 312.099,603.209C306.56,604.217 299.634,603.74 293.99,603.702C263,603.495 232.153,601.895 202.779,613.685C197.8,615.684 191.541,617.694 187.233,621.004ZM206.984,313.187C217.563,317.281 228.23,322.307 238.757,326.7C256.506,334.048 274.378,341.097 292.365,347.842C301.526,351.297 313.703,356.142 322.942,358.679C323.336,359.239 324.026,360.259 324.659,360.602C350.815,374.769 378.204,386.85 404.719,400.259C384.405,398.146 370.095,394.49 350.199,389.269C333.472,384.786 317.079,379.141 301.139,372.374C274.748,361.435 247.327,346.587 223.701,330.45C217.053,325.909 211.071,320.193 206.984,313.187ZM420.138,537.318C432.386,548.702 439.825,560.795 449.547,574.037C471.942,604.54 500.233,632.138 530.483,654.628C527.914,654.735 524.923,653.654 522.515,652.616C493.447,640.084 465.071,621.919 443.953,598.155C433.106,585.606 424.033,571.245 415.675,556.965C413.737,553.653 399.907,528.592 400.643,526.76L401.849,527.316C404.164,529.281 417.513,537.318 420.138,537.318ZM245.597,493.23C229.646,495.968 225.465,495.246 208.723,500.777C213.758,495.769 218.436,490.086 223.673,485.02C249.682,459.861 276.165,441.469 313.421,439.464C316.23,439.509 318.75,439.523 321.566,439.433C296.106,449.28 277.463,460.788 257.766,479.96C254.007,483.62 248.281,488.977 245.597,493.23Z" style="fill:rgb(228,33,43);"/>
    </g>
</svg>
