<?xml version="1.0" encoding="UTF-8" standalone="no"?>
<!DOCTYPE svg PUBLIC "-//W3C//DTD SVG 1.1//EN" "http://www.w3.org/Graphics/SVG/1.1/DTD/svg11.dtd">
<svg width="100%" height="100%" viewBox="0 0 728 829" version="1.1" xmlns="http://www.w3.org/2000/svg" xmlns:xlink="http://www.w3.org/1999/xlink" xml:space="preserve" xmlns:serif="http://www.serif.com/" style="fill-rule:evenodd;clip-rule:evenodd;stroke-linejoin:round;stroke-miterlimit:2;">
    <g transform="matrix(1,0,0,1,-153.923,-100.838)">
        <path d="M733.406,100.838C735.516,102.108 738.817,110.972 739.684,113.461C755.378,158.499 755.71,208.848 745.397,255.104C758.855,253.942 767.473,253.635 780.978,255.095C765.692,299.726 749.283,336.392 721.66,375C755.678,412.918 779.056,461.577 799.143,507.917C823.69,564.546 836.114,606.451 880.95,650.688C864.991,657.807 845.654,664.84 829.253,670.954C799.707,681.633 770.376,692.898 741.277,704.741C704.553,720.309 668.515,737.449 633.261,756.111C599.906,773.269 567.319,791.879 535.591,811.888C497.524,836.568 461.035,863.601 426.337,892.828C413.311,903.68 396.548,917.222 384.354,928.848C361.412,914.193 347.606,902.898 328.684,883.345C310.417,862.388 299.776,849.218 288.17,823.794C264.233,771.358 277.17,723.925 305.154,676.956C312.325,663.572 321.652,651.194 327.648,637.219C333.306,624.031 324.278,620.355 314.407,616.362C258.527,593.756 209.806,600.988 155.917,625.414C153.472,609.693 153.275,593.704 155.331,577.928C162.901,517.267 201.941,479.283 248.004,443.444C227.737,403.241 248.101,356.127 274.652,324.136C295.35,299.196 318.679,280.912 346.496,264.642C433.561,213.72 537.769,212.697 629.583,174.429C669.162,157.915 702.273,129.838 733.406,100.838ZM725.211,133.378C695.591,159.995 661.665,182.505 624.354,196.579C511.251,239.242 371.121,235.398 288.65,337.052C262.94,368.742 245.155,412.778 273.085,449.023C226.734,485.627 181.311,519.278 173.841,583.506C173.26,588.647 172.93,593.813 172.853,598.986C213.449,583.97 248.649,577.877 291.184,589.674C302.411,592.399 313.639,595.534 324.196,600.114C347.066,610.035 354.841,628.01 342.632,650.284C315.863,699.122 279.897,747.075 301.73,805.847C310.356,829.067 320.137,843.873 336.104,863.172C349.811,879.193 365.638,893.269 383.148,905.014C448.094,849.077 516.595,797.408 592.499,756.997C605.265,750.2 618.09,743.483 630.919,736.806C662.38,720.161 694.47,704.737 727.12,690.567C751.664,680.191 776.448,670.39 801.451,661.174C816.178,655.708 833.303,649.904 847.638,644.017C843.319,638.092 838.947,632.164 834.97,626.009C813.049,592.087 798.79,553.904 782.763,516.997C760.398,465.493 735.386,416.221 696.448,374.945C721.379,347.832 740.943,309.103 754.118,274.922L716.471,281.357C733.047,241.751 738.008,198.246 730.777,155.925C730.191,152.363 727.384,134.753 725.211,133.378ZM427.144,634.757C428.655,635.777 431.438,638.471 432.894,639.802C432.594,637.429 432.091,632.275 431.455,630.12C420.445,592.82 415.791,559.22 464.119,550.501C452.979,526.523 429.287,508.653 408.678,492.732C430.636,500.557 445.75,506.277 469.138,497.401C511.603,481.284 529.188,431.376 513.639,390.678C528.745,381.21 546.372,373.672 564.047,370.881C528.397,358.595 489.744,364.253 457.106,382.895C432.495,397.926 412.584,416.829 386.837,430.618C352.721,448.89 333.944,435.734 336.644,397.772C324.654,407.987 321.284,417.129 319.081,432.516C308.844,432.783 299.41,429.583 294.284,420.321C280.139,394.026 307.57,357.03 325.464,339.852C394.799,273.292 492.894,264.799 581.539,242.494C622.317,232.233 665.687,216.493 701.909,194.597C701.166,199.475 698.832,207.455 697.321,212.299C686.974,245.821 666.154,275.144 637.917,295.964C629.771,301.983 623.611,305.288 615.496,310.597C636.865,315.574 659.334,321.719 680.977,323.447C671.508,340.863 645.416,363.883 628.283,374.411C622.775,377.795 610.837,383.174 607.22,386.341C619.82,391.189 638.827,404.407 647.773,414.571C669.414,439.157 686.848,471.943 692.9,504.264C693.838,509.273 694.537,514.818 695.772,519.595C682.359,512.998 656.473,504.315 641.68,501.531C645.856,510.337 652.676,521.551 656.236,529.879C664.153,548.397 667.283,583.672 666.419,603.914C653.476,600.04 615.449,584.947 605.289,586.441C603.308,587.799 604.31,587.688 604.126,589.814C601.115,619.936 579.121,646.541 558.867,667.736C541.016,686.416 520.287,703.552 500.972,720.828C477.825,741.531 456.878,762.661 436.05,785.733C420.958,802.451 405.65,818.838 392.704,837.419C390.64,840.381 379.363,856.17 378.692,858.521C363.057,845.806 349.205,830.277 340.671,811.914C307.996,741.607 365.978,693.623 387.049,634.438C390.482,640.152 385.245,667.918 383.113,674.535C391.916,668.864 402.746,650.904 408.786,641.936C414.506,645.573 420.266,649.148 426.063,652.661L432.787,659.128C433.841,654.671 434.68,653.089 433.119,648.816C431.998,646.892 426.809,636.194 427.144,634.757Z" style="fill:rgb(0,97,178);"/>
        <path d="M701.909,194.597C703.272,193.42 703.006,193.238 704.445,193.159C707.781,199.437 699.886,237.211 697.316,245.637C690.567,267.091 677.993,286.252 660.987,300.969C655.843,305.42 651.423,308.181 646.293,312.129C657.001,311.396 665.529,312.239 676.239,312.704C684.859,313.079 693.951,313.004 702.613,313.008C695.189,333.213 679.515,351.02 662.966,364.286C656.096,369.793 652.288,373.805 644.019,377.739C635.559,381.764 628.183,381.526 619.935,384.127C638.332,388.769 641.808,392.056 656.062,403.773C683.357,426.209 704.912,454.252 722.959,484.464C747.152,524.26 761.514,562.494 777.379,606.053C774.204,602.741 767.506,595.809 764.202,593.116C753.758,584.605 730.335,567.174 718.334,562.334C725.907,583.322 733.907,604.152 740.95,625.318C741.922,628.239 742.86,631.082 744.039,633.93C702.867,649.155 660.992,665.646 621.727,685.358C604.927,693.792 588.022,704.608 571.516,713.805C542.886,729.757 515.523,746.361 488.933,765.647C459.942,786.924 432.105,809.731 405.556,833.987C402.116,837.129 380.163,858.401 379.015,858.723L378.692,858.521C379.363,856.17 390.64,840.381 392.704,837.419C405.65,818.838 420.958,802.451 436.05,785.733C456.878,762.661 477.825,741.531 500.972,720.828C520.287,703.552 541.016,686.416 558.867,667.736C579.121,646.541 601.115,619.936 604.126,589.814C604.31,587.688 603.308,587.799 605.289,586.441C615.449,584.947 653.476,600.04 666.419,603.914C667.283,583.672 664.153,548.397 656.236,529.879C652.676,521.551 645.856,510.337 641.68,501.531C656.473,504.315 682.359,512.998 695.772,519.595C694.537,514.818 693.838,509.273 692.9,504.264C686.848,471.943 669.414,439.157 647.773,414.571C638.827,404.407 619.82,391.189 607.22,386.341C610.837,383.174 622.775,377.795 628.283,374.411C645.416,363.883 671.508,340.863 680.977,323.447C659.334,321.719 636.865,315.574 615.496,310.597C623.611,305.288 629.771,301.983 637.917,295.964C666.154,275.144 686.974,245.821 697.321,212.299C698.832,207.455 701.166,199.475 701.909,194.597ZM426.063,652.661C420.266,649.148 414.506,645.573 408.786,641.936C402.746,650.904 391.916,668.864 383.113,674.535C385.245,667.918 390.482,640.152 387.049,634.438C388.515,628.783 389.727,623.066 390.682,617.303C400.518,620.283 419.322,627.774 427.144,634.757C426.809,636.194 431.998,646.892 433.119,648.816C434.68,653.089 433.841,654.671 432.787,659.128L426.063,652.661Z" style="fill:rgb(0,65,133);"/>
        <path d="M463.623,418.415C467.933,415.146 476.064,410.608 480.927,407.768C487.07,412.222 490.724,417.795 491.651,425.277C494.881,451.342 478.719,474.652 452.14,478.01C431.589,480.607 419.741,471.346 409.037,455.132C413.279,452.875 417.962,450.505 422.034,448.023C431.066,464.137 446.433,466.299 460.091,454.42C466.276,451.34 472.294,437.904 472.483,431.037C475.555,422.429 472.794,418.557 463.623,418.415Z" style="fill:rgb(222,147,25);"/>
        <path d="M465.605,435.049C459.845,434.987 452.994,428.761 456.84,422.88C457.854,421.329 461.869,419.378 463.623,418.415C472.794,418.557 475.555,422.429 472.483,431.037C469.964,433.225 468.77,433.871 465.605,435.049Z" style="fill:rgb(254,254,254);"/>
        <path d="M460.091,454.42C463.518,446.782 464.217,443.441 465.605,435.049C468.77,433.871 469.964,433.225 472.483,431.037C472.294,437.904 466.276,451.34 460.091,454.42Z" style="fill:rgb(114,92,39);"/>
        <path d="M320.102,459.786C333.422,462.416 334.73,472.835 342.973,481.959C359.62,500.385 390.809,514.106 414.375,521.756C403.678,525.821 388.202,525.724 376.66,527.147C354.144,529.922 330.901,530.582 308.494,533.943C278.644,538.42 247.688,544.339 220.271,557.338C217.364,558.716 213.937,560.812 211.01,561.883C214.333,555.313 218.449,545.546 222.673,539.537C242.01,512.024 269.127,491.84 297.78,474.867C301.73,472.527 311.55,468.702 315.939,466.875L319.929,465.705L321.416,465.267L321.605,464.525C320.402,462.439 319.939,462.053 320.102,459.786ZM321.018,481.649C310.962,483.177 306.104,488.595 299.409,496.1C298.447,497.178 298.007,498.254 298.087,499.698C300.939,502.604 308.283,498.401 312.279,497.534C319.817,496.225 332.968,494.95 339.046,491.707C335.268,485.406 328.583,480.941 321.018,481.649ZM362.319,545.718C374.559,545.273 386.813,545.48 399.031,546.339C390.536,553.127 384.566,561.971 375.809,568.663C361.969,579.24 351.131,574.537 335.831,571.708C329.359,570.57 322.877,569.481 316.388,568.441C311.49,567.595 306.553,566.993 301.597,566.606C297.372,566.276 274.875,565.565 272.679,564.416C273.219,562.456 272.476,562.389 272.859,561.097C279.23,556.9 334.433,548.047 344.877,546.863C348.355,546.469 358.244,545.889 362.319,545.718Z" style="fill:rgb(57,86,107);"/>
        <path d="M315.939,466.875C311.55,468.702 301.73,472.527 297.78,474.867C269.127,491.84 242.01,512.024 222.673,539.537C218.449,545.546 214.333,555.313 211.01,561.883C209.272,563.246 204.097,566.289 201.775,567.859C206.717,554.71 216.972,532.829 225.12,521.263C226.261,518.59 232.416,511.2 234.379,508.85C251.062,488.877 288.341,461.696 314.133,459.886C314.377,459.784 316.609,459.318 317.019,459.227C326.944,456.153 325.363,457.664 327.417,459.926C329.657,462.394 323.254,465.243 315.939,466.875Z" style="fill:rgb(147,154,161);"/>
        <path d="M725.211,133.378C727.384,134.753 730.191,152.363 730.777,155.925C738.008,198.246 733.047,241.751 716.471,281.357L754.118,274.922C740.943,309.103 721.379,347.832 696.448,374.945C735.386,416.221 760.398,465.493 782.763,516.997C798.79,553.904 813.049,592.087 834.97,626.009C838.947,632.164 843.319,638.092 847.638,644.017C833.303,649.904 816.178,655.708 801.451,661.174C776.448,670.39 751.664,680.191 727.12,690.567C694.47,704.737 662.38,720.161 630.919,736.806C618.09,743.483 605.265,750.2 592.499,756.997C516.595,797.408 448.094,849.077 383.148,905.014C365.638,893.269 349.811,879.193 336.104,863.172C320.137,843.873 310.356,829.067 301.73,805.847C279.897,747.075 315.863,699.122 342.632,650.284C354.841,628.01 347.066,610.035 324.196,600.114C313.639,595.534 302.411,592.399 291.184,589.674C248.649,577.877 213.449,583.97 172.853,598.986C172.93,593.813 173.26,588.647 173.841,583.506C181.311,519.278 226.734,485.627 273.085,449.023C245.155,412.778 262.94,368.742 288.65,337.052C371.121,235.398 511.251,239.242 624.354,196.579C661.665,182.505 695.591,159.995 725.211,133.378ZM362.319,545.718C358.244,545.889 348.355,546.469 344.877,546.863C334.433,548.047 279.23,556.9 272.859,561.097C272.476,562.389 273.219,562.456 272.679,564.416C274.875,565.565 297.372,566.276 301.597,566.606C306.553,566.993 311.49,567.595 316.388,568.441C322.877,569.481 329.359,570.57 335.831,571.708C351.131,574.537 361.969,579.24 375.809,568.663C384.566,561.971 390.536,553.127 399.031,546.339C386.813,545.48 374.559,545.273 362.319,545.718ZM463.623,418.415C461.869,419.378 457.854,421.329 456.84,422.88C452.994,428.761 459.845,434.987 465.605,435.049C464.217,443.441 463.518,446.782 460.091,454.42C446.433,466.299 431.066,464.137 422.034,448.023C417.962,450.505 413.279,452.875 409.037,455.132C419.741,471.346 431.589,480.607 452.14,478.01C478.719,474.652 494.881,451.342 491.651,425.277C490.724,417.795 487.07,412.222 480.927,407.768C476.064,410.608 467.933,415.146 463.623,418.415ZM427.144,634.757C419.322,627.774 400.518,620.283 390.682,617.303C389.727,623.066 388.515,628.783 387.049,634.438C365.978,693.623 307.996,741.607 340.671,811.914C349.205,830.277 363.057,845.806 378.692,858.521L379.015,858.723C380.163,858.401 402.116,837.129 405.556,833.987C432.105,809.731 459.942,786.924 488.933,765.647C515.523,746.361 542.886,729.757 571.516,713.805C588.022,704.608 604.927,693.792 621.727,685.358C660.992,665.646 702.867,649.155 744.039,633.93C742.86,631.082 741.922,628.239 740.95,625.318C733.907,604.152 725.907,583.322 718.334,562.334C730.335,567.174 753.758,584.605 764.202,593.116C767.506,595.809 774.204,602.741 777.379,606.053C761.514,562.494 747.152,524.26 722.959,484.464C704.912,454.252 683.357,426.209 656.062,403.773C641.808,392.056 638.332,388.769 619.935,384.127C628.183,381.526 635.559,381.764 644.019,377.739C652.288,373.805 656.096,369.793 662.966,364.286C679.515,351.02 695.189,333.213 702.613,313.008C693.951,313.004 684.859,313.079 676.239,312.704C665.529,312.239 657.001,311.396 646.293,312.129C651.423,308.181 655.843,305.42 660.987,300.969C677.993,286.252 690.567,267.091 697.316,245.637C699.886,237.211 707.781,199.437 704.445,193.159C703.006,193.238 703.272,193.42 701.909,194.597C665.687,216.493 622.317,232.233 581.539,242.494C492.894,264.799 394.799,273.292 325.464,339.852C307.57,357.03 280.139,394.026 294.284,420.321C299.41,429.583 308.844,432.783 319.081,432.516C321.284,417.129 324.654,407.987 336.644,397.772C333.944,435.734 352.721,448.89 386.837,430.618C412.584,416.829 432.495,397.926 457.106,382.895C489.744,364.253 528.397,358.595 564.047,370.881C546.372,373.672 528.745,381.21 513.639,390.678C529.188,431.376 511.603,481.284 469.138,497.401C445.75,506.277 430.636,500.557 408.678,492.732C429.287,508.653 452.979,526.523 464.119,550.501C415.791,559.22 420.445,592.82 431.455,630.12C432.091,632.275 432.594,637.429 432.894,639.802C431.438,638.471 428.655,635.777 427.144,634.757ZM211.01,561.883C213.937,560.812 217.364,558.716 220.271,557.338C247.688,544.339 278.644,538.42 308.494,533.943C330.901,530.582 354.144,529.922 376.66,527.147C388.202,525.724 403.678,525.821 414.375,521.756C390.809,514.106 359.62,500.385 342.973,481.959C334.73,472.835 333.422,462.416 320.102,459.786C318.714,459.415 314.377,459.784 314.133,459.886C288.341,461.696 251.062,488.877 234.379,508.85C232.416,511.2 226.261,518.59 225.12,521.263C216.972,532.829 206.717,554.71 201.775,567.859C204.097,566.289 209.272,563.246 211.01,561.883ZM321.018,481.649C328.583,480.941 335.268,485.406 339.046,491.707C332.968,494.95 319.817,496.225 312.279,497.534C308.283,498.401 300.939,502.604 298.087,499.698C298.007,498.254 298.447,497.178 299.409,496.1C306.104,488.595 310.962,483.177 321.018,481.649Z" style="fill:rgb(0,31,69);"/>
    </g>
</svg>
