<svg width="100%" height="100%" viewBox="0 0 853 741" version="1.1" xmlns="http://www.w3.org/2000/svg" xmlns:xlink="http://www.w3.org/1999/xlink" xml:space="preserve" xmlns:serif="http://www.serif.com/" style="fill-rule:evenodd;clip-rule:evenodd;stroke-linejoin:round;stroke-miterlimit:2;">
    <g transform="matrix(1,0,0,1,-84.177,-148.38)">
        <path d="M340.051,335.754C350.954,381.39 400.574,398.121 440.505,410.498C445.711,412.112 451.315,412.847 456.391,414.388C442.22,414.512 428.896,414.5 414.684,415.161C369.677,417.689 324.802,422.172 280.185,428.597C233.905,434.929 185.001,440.672 141.493,458.32C139.18,459.258 132.159,463.403 130.125,462.674C130.418,461.348 130.433,461.441 131.321,460.39C147.767,419.016 201.469,404.319 238.072,386.106C272.578,368.936 306.699,351.437 339.352,330.831C339.528,332.51 339.787,334.087 340.051,335.754ZM332.065,368.409C317.725,375.29 310.912,379.833 301.679,392.763C304.486,390.848 307.613,388.598 310.565,387C322.72,381.495 329.891,379.15 343.564,379.544C341.216,376.681 335.499,368.668 332.065,368.409ZM437.951,428.292C440.267,428.067 442.89,427.974 445.238,427.836C433.959,433.302 410.371,451.043 399.924,454.027C378.08,459.364 353.692,459.564 331.358,460.494C290.925,462.177 251.174,462.224 210.879,458.891L201.624,458.141C241.891,450.838 282.649,445.731 323.275,440.739C360.967,436.107 400.14,430.917 437.951,428.292ZM492.987,192.714C500.307,191.876 510.104,192.242 517.576,192.395C632.6,194.749 701.372,256.916 722.805,369.216C720.935,366.153 719.55,363.118 717.431,360.094C687.614,317.534 645.957,279.825 593.352,270.049C585.089,268.513 577.714,266.949 569.236,267.945C581.836,260.338 593.014,257.988 607.439,256.787C590.691,248.716 569.846,249.011 551.889,251.927C535.836,255.519 520.579,262.827 506.334,270.934C496.856,276.328 487.428,282.204 478.326,288.2C467.362,295.422 420.196,329.34 410.326,330.442C407.382,330.771 404.328,329.022 402.189,327.149C392.59,318.747 389.929,304.313 389.043,292.302C380.01,311.098 379.567,323.734 380.074,343.875C366.513,331.223 359.768,315.705 357.871,297.426C347.158,301.467 331.411,308.533 321.108,313.54C295.4,283.972 329.997,253.386 353.752,237.117C394.618,209.129 444.063,196.304 492.987,192.714ZM666.317,668.732C667.883,668.678 669.302,668.674 670.869,668.69C724.377,669.244 776.011,688.474 816.846,723.057C824.528,729.683 831.857,736.757 838.424,744.497C840.718,747.199 843.109,749.818 845.588,752.351C830.631,758.426 813.126,763.479 797.559,768.227C776.94,774.615 756.2,780.606 735.352,786.198C716.413,791.213 697.32,795.65 678.322,800.675C669.543,802.613 660.952,805.57 652.235,807.838C634.661,812.53 616.973,816.782 599.187,820.591C590.766,822.474 578.485,825.631 570.186,826.135C567.864,824.302 565.604,822.391 563.413,820.404C516.271,776.974 505.052,727.764 568.123,692.427C599.905,674.621 630.443,670.105 666.317,668.732ZM725.265,686.037C722.038,688.096 721.055,690.9 723.607,694.035C731.205,703.364 747.754,711.814 759.942,709.612C761.783,708.806 762.26,708.772 763.26,707.017C765.028,698.338 737.766,687.247 730.604,686.166C728.876,685.905 727.004,685.922 725.265,686.037ZM650.401,745.056C643.229,751.038 646.078,759.868 651.846,765.693C660.48,774.412 675.1,781.201 687.512,779.349C692.598,776.636 693.277,772.475 689.895,768.277C682.853,759.535 661.344,744.443 650.401,745.056ZM700.022,719.678C696.039,720.286 688.272,722.495 690.663,728.234C696.822,743.017 722.454,752.217 737.123,751.902C740.454,751.386 747.923,749.447 745.958,744.827C739.42,729.449 715.192,718.838 700.022,719.678ZM596.277,691.546C583.527,695.471 585.728,704.794 594.003,712.262C604.575,721.803 618.456,727.766 632.793,726.556C659.188,717.525 614.471,690.597 596.277,691.546ZM567.924,731.562C559.818,733.726 555.188,740.097 558.07,748.43C562.55,761.38 587.307,772.775 599.934,773.149C628.618,770.363 587.43,730.603 567.924,731.562ZM784.415,739.1C781.471,740.214 778.599,742.734 780.42,746.058C784.427,753.374 794.718,753.84 801.768,752.484C803.449,751.896 804.24,751.811 805.331,750.412C807.267,743.028 789.755,739.059 784.415,739.1ZM652.925,676.091C649.536,677.768 646.531,680.854 649.194,684.74C656.775,695.806 674.574,703.375 687.796,701.393C696.825,696.168 693.093,689.016 685.473,685.151C676.587,680.644 662.915,675.533 652.925,676.091ZM324.596,744.459L325.792,744.861C333.206,755.79 335.037,778.388 330.277,790.784C328.56,795.253 322.89,805.667 317.179,803.225C302.898,786.627 300.456,752.74 324.596,744.459ZM390.795,714.427C391.491,714.665 391.11,714.46 391.809,715.239C393.521,725.782 395.798,737.691 393.256,748.201C391.383,755.946 386.136,768.387 376.201,765.719C369.421,760.384 370.013,748.096 371.772,740.364C374.531,728.237 380.35,720.911 390.795,714.427ZM307.451,685.993C307.647,686.272 307.945,686.635 307.953,686.991C308.305,702.046 305.975,718.171 295.433,729.704C293.816,731.473 289.769,735.34 287.386,735.445C280.094,717.363 294.224,697.155 307.451,685.993ZM405.739,787.208C417.307,792.773 423.02,805.383 421.221,817.88C418.829,817.734 414.331,813.972 412.886,812.189C406.751,804.613 404.98,796.667 405.739,787.208ZM365.64,797.849C374.969,804.071 375.751,819.195 371.087,828.588L370.313,828.581C361.352,824.078 362.627,805.931 365.64,797.849ZM273.173,764.221C274.816,765.708 277.164,770.375 277.823,772.631C280.35,781.282 279.583,787.47 275.663,795.291C267.423,787.564 267.117,773.347 273.173,764.221Z" style="fill:rgb(24,61,91);"  data-color="color-1"/>
        <path d="M131.321,460.39C147.767,419.016 201.469,404.319 238.072,386.106C272.578,368.936 306.699,351.437 339.352,330.831C339.528,332.51 339.787,334.087 340.051,335.754C310.208,362.075 271.174,382.182 235.696,400.199C204.414,416.085 168.649,422.982 142.681,449.206C139.441,452.326 134.883,456.647 132.261,460.135L131.321,460.39Z" style="fill:white;fill-opacity:0.44;"/>
        <path d="M512.804,168.22C548.347,165.927 602.896,172.667 633.833,190.83C696.62,227.693 739.704,297.568 751.801,368.502C758.887,410.054 756.214,453.702 748.321,494.18C744.812,512.224 741.088,530.225 737.149,548.18C733.969,562.887 729.597,580.927 729.078,595.837C728.626,608.835 735.228,626.363 743.838,635.969C746.734,639.201 762.755,649.157 767.479,652.194C783.043,662.014 798.457,672.068 813.717,682.354C849.124,706.68 875.182,729.501 905.352,759.516C896.498,763.4 879.878,768.878 870.081,772.525C843.621,782.642 816.947,792.192 790.078,801.168C753.552,813.47 716.614,824.519 679.332,834.295C651.81,841.879 623.993,848.353 595.95,853.699C563.438,859.569 530.661,863.862 497.734,866.562C440.38,871.423 389.399,870.349 332.384,863.934C307.082,860.798 274.243,853.086 249.755,845.551C238.647,829.342 229.858,803.818 227.168,784.16C220.889,738.27 236.072,690.462 263.705,653.823C281.671,630.001 305.603,609.233 327.72,589.359C342.536,576.045 363.316,563.395 374.875,547.689C384.307,534.873 390.361,523.768 388.089,507.932C383.361,502.578 355.674,483.353 349.171,482.898C315.952,480.574 281.363,483.636 247.954,482.594C217.577,481.647 187.286,477.113 157.136,477.739C145.513,477.98 120.69,492.41 110.91,499.088C107.051,487.847 102.325,480.469 103.831,468.377C110.924,411.42 173.404,393.38 217.055,370.8C244.386,356.661 270.603,345.402 295.187,326.519C292.056,318.927 288.668,308.65 283.054,302.9C283.089,281.087 293.961,260.956 308.323,245.123C351.314,197.728 414.69,178.451 476.374,170.801C488.522,169.294 500.549,168.819 512.804,168.22ZM558.564,582.42C562.1,582.484 568.627,583.487 572.442,583.855C579.033,584.429 585.641,584.784 592.255,584.919C628.851,585.542 664.976,576.609 697.063,559C699.005,552.935 700.755,546.81 702.312,540.635C712.292,500.888 718.631,445.95 696.706,409.32C696.048,435.725 688.1,461.432 673.74,483.6C640.906,533.315 589.291,551.931 534.444,565.967C525.973,568.135 517.465,569.958 508.909,571.695C500.243,572.444 491.618,574.464 483.156,575.213C457.806,577.457 427.503,576.069 405.661,562.01C396.483,571.353 373.147,592.448 362.301,598.837C401.853,629.926 475.03,635.701 523.332,631.222C554.748,628.308 582.583,616.22 612,606.353C599.988,600.141 588.158,594.003 575.632,588.807C572.747,587.611 559.622,583.352 558.564,582.42ZM437.951,428.292C400.14,430.917 360.967,436.107 323.275,440.739C282.649,445.731 241.891,450.838 201.624,458.141L210.879,458.891C251.174,462.224 290.925,462.177 331.358,460.494C353.692,459.564 378.08,459.364 399.924,454.027C410.371,451.043 433.959,433.302 445.238,427.836C442.89,427.974 440.267,428.067 437.951,428.292ZM492.987,192.714C444.063,196.304 394.618,209.129 353.752,237.117C329.997,253.386 295.4,283.972 321.108,313.54C331.411,308.533 347.158,301.467 357.871,297.426C359.768,315.705 366.513,331.223 380.074,343.875C379.567,323.734 380.01,311.098 389.043,292.302C389.929,304.313 392.59,318.747 402.189,327.149C404.328,329.022 407.382,330.771 410.326,330.442C420.196,329.34 467.362,295.422 478.326,288.2C487.428,282.204 496.856,276.328 506.334,270.934C520.579,262.827 535.836,255.519 551.889,251.927C569.846,249.011 590.691,248.716 607.439,256.787C593.014,257.988 581.836,260.338 569.236,267.945C577.714,266.949 585.089,268.513 593.352,270.049C645.957,279.825 687.614,317.534 717.431,360.094C719.55,363.118 720.935,366.153 722.805,369.216C701.372,256.916 632.6,194.749 517.576,192.395C510.104,192.242 500.307,191.876 492.987,192.714ZM519.168,303.693C515.72,305.506 507.814,308.912 507.606,312.634C506.92,324.91 519.104,325.955 527.134,323.246C527.688,325.299 526.855,330.155 526.28,332.145C522.189,346.309 505.893,357.361 491.218,352.942C480.945,349.848 476.428,342.33 471.499,333.664C466.122,337.62 457.33,343.05 451.497,346.319C459.472,357.095 468.288,369.284 481.995,372.784C514.222,381.012 546.656,351.154 541.747,318.373C540.491,309.983 537.826,304.02 533.555,296.737L519.168,303.693ZM340.051,335.754C339.787,334.087 339.528,332.51 339.352,330.831C306.699,351.437 272.578,368.936 238.072,386.106C201.469,404.319 147.767,419.016 131.321,460.39C130.433,461.441 130.418,461.348 130.125,462.674C132.159,463.403 139.18,459.258 141.493,458.32C185.001,440.672 233.905,434.929 280.185,428.597C324.802,422.172 369.677,417.689 414.684,415.161C428.896,414.5 442.22,414.512 456.391,414.388C451.315,412.847 445.711,412.112 440.505,410.498C400.574,398.121 350.954,381.39 340.051,335.754ZM332.065,368.409C335.499,368.668 341.216,376.681 343.564,379.544C329.891,379.15 322.72,381.495 310.565,387C307.613,388.598 304.486,390.848 301.679,392.763C310.912,379.833 317.725,375.29 332.065,368.409ZM463.625,840.778C466.264,840.075 484.36,838.242 488.129,837.864C496.58,837.016 508.801,834.768 516.863,834.446C506.479,822.937 493.764,802.866 488.856,788.534C473.673,744.196 504.036,699.745 533.279,669.248C515.142,675.882 472.215,679.685 453.086,676.669C406.63,673.312 362.402,659.179 325.273,630.326C269.389,669.796 240.312,737.733 260.101,804.823C262.248,812.099 265.227,820.89 268.674,827.594C314.196,839.843 357.476,843.616 404.631,843.473C424.114,843.414 444.276,843.065 463.625,840.778ZM666.317,668.732C630.443,670.105 599.905,674.621 568.123,692.427C505.052,727.764 516.271,776.974 563.413,820.404C565.604,822.391 567.864,824.302 570.186,826.135C578.485,825.631 590.766,822.474 599.187,820.591C616.973,816.782 634.661,812.53 652.235,807.838C660.952,805.57 669.543,802.613 678.322,800.675C697.32,795.65 716.413,791.213 735.352,786.198C756.2,780.606 776.94,774.615 797.559,768.227C813.126,763.479 830.631,758.426 845.588,752.351C843.109,749.818 840.718,747.199 838.424,744.497C831.857,736.757 824.528,729.683 816.846,723.057C776.011,688.474 724.377,669.244 670.869,668.69C669.302,668.674 667.883,668.678 666.317,668.732Z" style="fill:rgb(0,19,40);"  data-color="color-3"/>
        <path d="M508.535,148.721C535.445,147.56 567.029,149.3 593.005,154.972C685.699,175.398 751.495,267.986 769.806,356.954C776.48,389.38 775.859,428.572 772.82,461.407C768.866,504.126 755.268,546.439 749.121,588.88C747.743,598.39 748.839,612.223 756.102,619.273C771.646,634.363 793.025,643.408 810.713,655.874C849.304,682.985 886.848,711.565 919.003,746.223C924.409,752.054 931.667,759.243 936.476,765.286L936.919,765.847C928.278,771.289 904.539,779.914 894.427,783.735C877.196,790.426 859.91,796.975 842.571,803.38C679.53,862.984 521.507,901.708 346.481,885.657C311.406,882.676 269.621,874.15 236.39,862.249C230.908,855.299 224.046,841.656 220.663,833.733C192.778,769.718 206.635,694.389 249.54,640.384C270.59,613.888 300.702,586.472 326.858,564.567C347.563,547.227 357.989,544.411 369.012,517.561C363.123,511.738 348.618,503.568 340.542,502.365C331.911,501.465 322.741,502.272 314.036,502.378C283.4,502.819 253.861,503.846 223.157,501.524C203.135,500.009 174.148,496.105 154.524,499.217C139.776,501.556 115.714,518.555 103.571,527.174C103.211,526.624 102.862,526.066 102.525,525.501C95.346,513.534 85.119,489.23 84.298,475.438C81.935,435.731 114.578,400.509 147.695,383.104C174.832,368.842 203.102,355.762 230.525,341.967C243.594,335.342 257.371,328.8 269.964,321.344C266.635,315.416 264.858,307.892 264.594,301.122C262.956,259.227 298.253,223.758 329.833,200.969C380.574,164.354 447.106,151.173 508.535,148.721ZM512.804,168.22C500.549,168.819 488.522,169.294 476.374,170.801C414.69,178.451 351.314,197.728 308.323,245.123C293.961,260.956 283.089,281.087 283.054,302.9C288.668,308.65 292.056,318.927 295.187,326.519C270.603,345.402 244.386,356.661 217.055,370.8C173.404,393.38 110.924,411.42 103.831,468.377C102.325,480.469 107.051,487.847 110.91,499.088C120.69,492.41 145.513,477.98 157.136,477.739C187.286,477.113 217.577,481.647 247.954,482.594C281.363,483.636 315.952,480.574 349.171,482.898C355.674,483.353 383.361,502.578 388.089,507.932C390.361,523.768 384.307,534.873 374.875,547.689C363.316,563.395 342.536,576.045 327.72,589.359C305.603,609.233 281.671,630.001 263.705,653.823C236.072,690.462 220.889,738.27 227.168,784.16C229.858,803.818 238.647,829.342 249.755,845.551C274.243,853.086 307.082,860.798 332.384,863.934C389.399,870.349 440.38,871.423 497.734,866.562C530.661,863.862 563.438,859.569 595.95,853.699C623.993,848.353 651.81,841.879 679.332,834.295C716.614,824.519 753.552,813.47 790.078,801.168C816.947,792.192 843.621,782.642 870.081,772.525C879.878,768.878 896.498,763.4 905.352,759.516C875.182,729.501 849.124,706.68 813.717,682.354C798.457,672.068 783.043,662.014 767.479,652.194C762.755,649.157 746.734,639.201 743.838,635.969C735.228,626.363 728.626,608.835 729.078,595.837C729.597,580.927 733.969,562.887 737.149,548.18C741.088,530.225 744.812,512.224 748.321,494.18C756.214,453.702 758.887,410.054 751.801,368.502C739.704,297.568 696.62,227.693 633.833,190.83C602.896,172.667 548.347,165.927 512.804,168.22ZM527.134,323.246C519.104,325.955 506.92,324.91 507.606,312.634C507.814,308.912 515.72,305.506 519.168,303.693C523.514,309.765 527.098,315.447 527.134,323.246ZM567.924,731.562C587.43,730.603 628.618,770.363 599.934,773.149C587.307,772.775 562.55,761.38 558.07,748.43C555.188,740.097 559.818,733.726 567.924,731.562ZM596.277,691.546C614.471,690.597 659.188,717.525 632.793,726.556C618.456,727.766 604.575,721.803 594.003,712.262C585.728,704.794 583.527,695.471 596.277,691.546ZM700.022,719.678C715.192,718.838 739.42,729.449 745.958,744.827C747.923,749.447 740.454,751.386 737.123,751.902C722.454,752.217 696.822,743.017 690.663,728.234C688.272,722.495 696.039,720.286 700.022,719.678ZM650.401,745.056C661.344,744.443 682.853,759.535 689.895,768.277C693.277,772.475 692.598,776.636 687.512,779.349C675.1,781.201 660.48,774.412 651.846,765.693C646.078,759.868 643.229,751.038 650.401,745.056ZM652.925,676.091C662.915,675.533 676.587,680.644 685.473,685.151C693.093,689.016 696.825,696.168 687.796,701.393C674.574,703.375 656.775,695.806 649.194,684.74C646.531,680.854 649.536,677.768 652.925,676.091ZM725.265,686.037C727.004,685.922 728.876,685.905 730.604,686.166C737.766,687.247 765.028,698.338 763.26,707.017C762.26,708.772 761.783,708.806 759.942,709.612C747.754,711.814 731.205,703.364 723.607,694.035C721.055,690.9 722.038,688.096 725.265,686.037ZM784.415,739.1C789.755,739.059 807.267,743.028 805.331,750.412C804.24,751.811 803.449,751.896 801.768,752.484C794.718,753.84 784.427,753.374 780.42,746.058C778.599,742.734 781.471,740.214 784.415,739.1ZM508.909,571.695C517.465,569.958 525.973,568.135 534.444,565.967C589.291,551.931 640.906,533.315 673.74,483.6C688.1,461.432 696.048,435.725 696.706,409.32C718.631,445.95 712.292,500.888 702.312,540.635C700.755,546.81 699.005,552.935 697.063,559C664.976,576.609 628.851,585.542 592.255,584.919C585.641,584.784 579.033,584.429 572.442,583.855C568.627,583.487 562.1,582.484 558.564,582.42C555.871,581.631 551.075,581.362 548.414,580.791C541.307,579.265 514.007,574.523 508.909,571.695ZM463.625,840.778C444.276,843.065 424.114,843.414 404.631,843.473C357.476,843.616 314.196,839.843 268.674,827.594C265.227,820.89 262.248,812.099 260.101,804.823C240.312,737.733 269.389,669.796 325.273,630.326C362.402,659.179 406.63,673.312 453.086,676.669C452.526,679.107 441.819,696.31 439.743,700.506C424.159,732.009 423.011,764.557 438.941,796.258C443.674,806.122 448.51,815.017 453.959,824.494C456.825,829.478 460.332,836.322 463.625,840.778ZM273.173,764.221C267.117,773.347 267.423,787.564 275.663,795.291C279.583,787.47 280.35,781.282 277.823,772.631C277.164,770.375 274.816,765.708 273.173,764.221ZM307.451,685.993C294.224,697.155 280.094,717.363 287.386,735.445C289.769,735.34 293.816,731.473 295.433,729.704C305.975,718.171 308.305,702.046 307.953,686.991C307.945,686.635 307.647,686.272 307.451,685.993ZM390.795,714.427C380.35,720.911 374.531,728.237 371.772,740.364C370.013,748.096 369.421,760.384 376.201,765.719C386.136,768.387 391.383,755.946 393.256,748.201C395.798,737.691 393.521,725.782 391.809,715.239C391.11,714.46 391.491,714.665 390.795,714.427ZM324.596,744.459C300.456,752.74 302.898,786.627 317.179,803.225C322.89,805.667 328.56,795.253 330.277,790.784C335.037,778.388 333.206,755.79 325.792,744.861L324.596,744.459ZM405.739,787.208C404.98,796.667 406.751,804.613 412.886,812.189C414.331,813.972 418.829,817.734 421.221,817.88C423.02,805.383 417.307,792.773 405.739,787.208ZM365.64,797.849C362.627,805.931 361.352,824.078 370.313,828.581L371.087,828.588C375.751,819.195 374.969,804.071 365.64,797.849Z" style="fill:white;"/>
        <path d="M558.564,582.42C559.622,583.352 572.747,587.611 575.632,588.807C588.158,594.003 599.988,600.141 612,606.353C582.583,616.22 554.748,628.308 523.332,631.222C475.03,635.701 401.853,629.926 362.301,598.837C373.147,592.448 396.483,571.353 405.661,562.01C427.503,576.069 457.806,577.457 483.156,575.213C491.618,574.464 500.243,572.444 508.909,571.695C514.007,574.523 541.307,579.265 548.414,580.791C551.075,581.362 555.871,581.631 558.564,582.42ZM519.168,303.693L533.555,296.737C537.826,304.02 540.491,309.983 541.747,318.373C546.656,351.154 514.222,381.012 481.995,372.784C468.288,369.284 459.472,357.095 451.497,346.319C457.33,343.05 466.122,337.62 471.499,333.664C476.428,342.33 480.945,349.848 491.218,352.942C505.893,357.361 522.189,346.309 526.28,332.145C526.855,330.155 527.688,325.299 527.134,323.246C527.098,315.447 523.514,309.765 519.168,303.693ZM453.086,676.669C472.215,679.685 515.142,675.882 533.279,669.248C504.036,699.745 473.673,744.196 488.856,788.534C493.764,802.866 506.479,822.937 516.863,834.446C508.801,834.768 496.58,837.016 488.129,837.864C484.36,838.242 466.264,840.075 463.625,840.778C460.332,836.322 456.825,829.478 453.959,824.494C448.51,815.017 443.674,806.122 438.941,796.258C423.011,764.557 424.159,732.009 439.743,700.506C441.819,696.31 452.526,679.107 453.086,676.669Z" style="fill:rgb(131,37,35);"  data-color="color-2"/>
    </g>
</svg>
