<?xml version="1.0" encoding="UTF-8" standalone="no"?>
<!DOCTYPE svg PUBLIC "-//W3C//DTD SVG 1.1//EN" "http://www.w3.org/Graphics/SVG/1.1/DTD/svg11.dtd">
<svg width="100%" height="100%" viewBox="0 0 650 789" version="1.1" xmlns="http://www.w3.org/2000/svg" xmlns:xlink="http://www.w3.org/1999/xlink" xml:space="preserve" xmlns:serif="http://www.serif.com/" style="fill-rule:evenodd;clip-rule:evenodd;stroke-linejoin:round;stroke-miterlimit:2;">
    <g transform="matrix(1,0,0,1,-186.363,-95.7082)">
        <path d="M225.267,95.708C226.563,96.633 237.016,110.308 238.931,112.633C244.713,119.619 250.726,126.412 256.96,133.001C290.909,168.342 330.325,197.99 373.696,220.805C404.092,237.065 438.81,251.707 471.763,262.095C492.141,268.518 515.289,273.325 536.121,278.4C600.032,293.968 658.612,311.401 707.096,358.524C738.796,389.334 763.695,429.456 764.884,474.721C777.433,485.021 786.53,494.815 796.131,507.78C837.693,563.902 841.407,612.286 831.731,679.323C806.548,670.606 774.24,670.412 748.62,676.77C694.606,690.173 657.786,717.529 628.942,764.504C608.141,801.297 601.332,842.199 601.279,883.921C591.473,877.946 581.106,873.295 570.953,866.707C533.183,842.194 499.632,814.063 466.051,784.203C393.284,719.498 329.404,642.446 245.718,591.179C228.065,580.364 205.162,569.852 186.363,561.233C203.846,507.676 219.425,450.942 242.51,399.549C207.823,345.262 201.887,287.062 195.609,224.818L214.806,234.834C213.591,190.143 220.479,140.38 225.267,95.708ZM238.38,136.306C239.607,137.212 250.007,149.181 251.648,150.999C257.919,157.879 264.488,164.481 271.337,170.785C317.06,212.724 399.423,256.847 458.94,275.081C545.024,301.454 640.241,306.645 705.091,378.57C731.781,408.171 750.378,440.086 748.823,481.416C761.976,492.299 773.533,503.202 783.79,516.911C818.186,562.884 825.297,604.24 817.795,660.018C792.788,654.331 776.709,654.753 751.649,659.764C698.211,670.227 651.229,701.747 621.283,747.226C602.723,774.917 586.363,821.963 585.391,855.358C562.045,843.538 527.457,815.634 507.37,798.747C485.632,780.359 464.49,761.278 443.977,741.533C370.875,671.189 300.253,593.933 205.987,552.314C217.714,515.676 228.165,478.96 241.994,442.929C247.942,427.432 253.012,413.717 260.526,398.761C233.461,358.791 217.987,300.796 214.88,252.961C222.296,257.336 229.779,262.244 237.062,266.886C227.013,229.448 233.003,175.054 238.38,136.306Z" style="fill:rgb(215,183,127);"/>
        <path d="M238.38,136.306C239.607,137.212 250.007,149.181 251.648,150.999C257.919,157.879 264.488,164.481 271.337,170.785C317.06,212.724 399.423,256.847 458.94,275.081C545.024,301.454 640.241,306.645 705.091,378.57C731.781,408.171 750.378,440.086 748.823,481.416C761.976,492.299 773.533,503.202 783.79,516.911C818.186,562.884 825.297,604.24 817.795,660.018C792.788,654.331 776.709,654.753 751.649,659.764C698.211,670.227 651.229,701.747 621.283,747.226C602.723,774.917 586.363,821.963 585.391,855.358C562.045,843.538 527.457,815.634 507.37,798.747C485.632,780.359 464.49,761.278 443.977,741.533C370.875,671.189 300.253,593.933 205.987,552.314C217.714,515.676 228.165,478.96 241.994,442.929C247.942,427.432 253.012,413.717 260.526,398.761C233.461,358.791 217.987,300.796 214.88,252.961C222.296,257.336 229.779,262.244 237.062,266.886C227.013,229.448 233.003,175.054 238.38,136.306ZM720.313,501.907C723.647,502.062 740.069,516.02 743.437,519.081C770.358,543.552 787.161,578.152 788.677,614.677C772.574,599.422 757.221,589.277 736.814,580.52C710.919,569.659 683.044,564.316 654.969,564.834C648.561,564.895 640.447,565.128 634.18,566.117C661.266,542.616 690.056,521.154 720.313,501.907ZM555.232,447.254C557.476,448.101 568.163,455.852 570.702,457.64C560.491,472.332 561.23,490.542 575.477,502.306C582.469,508.075 591.49,510.783 600.503,509.819C612.876,508.601 620.695,501.976 628.167,492.745C626.751,496.852 625.842,498.517 623.677,502.181C609.076,522.013 582.592,524.468 563.376,509.762C554.022,502.628 547.891,492.066 546.334,480.406C544.744,468.012 547.642,457.11 555.232,447.254ZM662.672,588.709C688.943,586.446 724.985,593.655 748.873,605.192C759.062,610.114 766.85,615.513 775.523,622.524C747.048,621.926 718.326,631.551 692.557,643.012C670.564,653.015 651.012,665.338 631.542,679.51C636.982,649.91 632.769,624.984 617.811,599.26C632.181,592.549 647.049,589.961 662.672,588.709ZM266.236,211.797C268.264,213.223 273.957,218.534 276.13,220.427C281.832,225.381 287.737,230.096 293.83,234.56C325.368,257.327 367.469,279.299 403.724,292.608C490.941,324.623 590.442,324.82 665.724,386.044C690.404,406.116 712.196,432.503 715.717,465.472C713.661,467.811 711.195,469.754 708.439,471.204C682.7,484.852 646.566,461.19 625.558,447.824C617.954,442.976 610.283,438.236 602.546,433.606C587.656,424.493 572.188,416.361 556.239,409.263C522.49,394.396 497.623,389.078 463.065,378.495C474.321,396.004 490.906,409.845 506.977,422.758C495.222,433.719 485.836,448.042 482.061,463.791C477.16,484.459 480.679,506.228 491.842,524.3C502.806,541.962 521.409,556.248 541.749,561.007C521.287,562.818 487.314,557.068 467.063,553.481C478.355,579.981 500.441,593.209 525.606,604.168C510.478,622.325 505.448,632.242 499.4,655.119C492.971,689.023 497.634,717.791 511.586,749.003C504.497,742.954 496.783,737.632 489.67,731.407C440.292,688.204 398.472,637.247 349.146,593.944C319.026,567.502 289.038,545.245 250.469,533.228C255.145,521.398 259.493,509.499 264.374,497.741C273.7,475.264 283.788,453.11 294.622,431.319C301.65,434.569 311.496,437.918 318.898,440.421C344.999,449.245 378.093,458.7 405.837,459.576C405.04,459.117 404.246,458.653 403.455,458.184C388.715,449.417 372.868,439.294 358.463,429.863C325.103,408.02 289.248,386.106 269.115,350.456C259.084,332.695 256.849,321.138 252.051,302.358C278.203,338.445 332.878,363.316 375.631,372.149C354.563,358.648 336.311,346.106 317.698,329.236C282.316,297.169 257.961,261.915 266.236,211.797ZM574.352,459.778L597.378,474.427C596.157,475.624 594.512,476.791 593.122,477.843C579.708,484.816 569.685,474.134 574.352,459.778Z" style="fill:rgb(1,33,80);"/>
        <path d="M266.236,211.797C268.264,213.223 273.957,218.534 276.13,220.427C281.832,225.381 287.737,230.096 293.83,234.56C325.368,257.327 367.469,279.299 403.724,292.608C490.941,324.623 590.442,324.82 665.724,386.044C690.404,406.116 712.196,432.503 715.717,465.472C713.661,467.811 711.195,469.754 708.439,471.204C682.7,484.852 646.566,461.19 625.558,447.824C617.954,442.976 610.283,438.236 602.546,433.606C587.656,424.493 572.188,416.361 556.239,409.263C522.49,394.396 497.623,389.078 463.065,378.495C474.321,396.004 490.906,409.845 506.977,422.758C495.222,433.719 485.836,448.042 482.061,463.791C477.16,484.459 480.679,506.228 491.842,524.3C502.806,541.962 521.409,556.248 541.749,561.007C521.287,562.818 487.314,557.068 467.063,553.481C478.355,579.981 500.441,593.209 525.606,604.168C510.478,622.325 505.448,632.242 499.4,655.119C492.971,689.023 497.634,717.791 511.586,749.003C504.497,742.954 496.783,737.632 489.67,731.407C440.292,688.204 398.472,637.247 349.146,593.944C319.026,567.502 289.038,545.245 250.469,533.228C255.145,521.398 259.493,509.499 264.374,497.741C273.7,475.264 283.788,453.11 294.622,431.319C301.65,434.569 311.496,437.918 318.898,440.421C344.999,449.245 378.093,458.7 405.837,459.576C405.04,459.117 404.246,458.653 403.455,458.184C388.715,449.417 372.868,439.294 358.463,429.863C325.103,408.02 289.248,386.106 269.115,350.456C259.084,332.695 256.849,321.138 252.051,302.358C278.203,338.445 332.878,363.316 375.631,372.149C354.563,358.648 336.311,346.106 317.698,329.236C282.316,297.169 257.961,261.915 266.236,211.797Z" style="fill:rgb(202,11,45);"/>
        <path d="M662.672,588.709C688.943,586.446 724.985,593.655 748.873,605.192C759.062,610.114 766.85,615.513 775.523,622.524C747.048,621.926 718.326,631.551 692.557,643.012C670.564,653.015 651.012,665.338 631.542,679.51C636.982,649.91 632.769,624.984 617.811,599.26C632.181,592.549 647.049,589.961 662.672,588.709ZM720.313,501.907C723.647,502.062 740.069,516.02 743.437,519.081C770.358,543.552 787.161,578.152 788.677,614.677C772.574,599.422 757.221,589.277 736.814,580.52C710.919,569.659 683.044,564.316 654.969,564.834C648.561,564.895 640.447,565.128 634.18,566.117C661.266,542.616 690.056,521.154 720.313,501.907ZM555.232,447.254C557.476,448.101 568.163,455.852 570.702,457.64C560.491,472.332 561.23,490.542 575.477,502.306C582.469,508.075 591.49,510.783 600.503,509.819C612.876,508.601 620.695,501.976 628.167,492.745C626.751,496.852 625.842,498.517 623.677,502.181C609.076,522.013 582.592,524.468 563.376,509.762C554.022,502.628 547.891,492.066 546.334,480.406C544.744,468.012 547.642,457.11 555.232,447.254Z" style="fill:rgb(241,168,30);"/>
        <path d="M574.352,459.778L597.378,474.427C596.157,475.624 594.512,476.791 593.122,477.843C579.708,484.816 569.685,474.134 574.352,459.778Z" style="fill:rgb(255,255,254);"/>
    </g>
</svg>
