<svg width="100%" height="100%" viewBox="0 0 1033 847" version="1.1" xmlns="http://www.w3.org/2000/svg" xmlns:xlink="http://www.w3.org/1999/xlink" xml:space="preserve" xmlns:serif="http://www.serif.com/" style="fill-rule:evenodd;clip-rule:evenodd;stroke-linejoin:round;stroke-miterlimit:2;">
    <g transform="matrix(1,0,0,1,-238.513,-96.4697)">
        <path d="M1045.04,366.259C1042.31,369.259 1038.94,371.606 1035.18,373.125C1029.2,375.565 1022.76,376.037 1016.36,375.883C986.517,375.165 962.739,351.665 941.995,332.415C931.65,322.681 921.168,313.094 910.552,303.655C865.896,264.742 822.985,243.711 764.99,267.307C782.064,268.371 804.127,274.024 818.662,283.388C833.057,292.661 836.672,302.451 840.066,318.172C815.6,309.5 795.082,316.135 774.339,329.55C798.728,336.714 821.339,345.425 829.072,371.679C832.695,383.979 836.123,393.543 843.014,404.456C825.341,410.729 808.95,411.398 790.269,412.206C833.119,439.385 872.546,449.913 922.919,442.146C894.326,454.094 868.443,460.335 840.504,470.73C819.603,478.555 799.568,488.522 780.719,500.474C767.136,508.899 756.666,515.744 745.547,527.141C765.154,546.442 804.189,565.369 829.216,576.633C796.541,578.027 771.746,576.715 739.946,566.946C693.181,552.58 658.257,515.775 649.985,467.032C645.956,443.293 647.264,415.407 654.741,392.386C636.371,408.07 620.229,432.214 608.854,453.312C581.336,504.349 566.169,575.533 583.617,632.223C593.2,605.49 603.039,587.043 622.464,565.779C622.825,649.476 644.582,720.271 678.699,795.27C669.263,786.65 658.005,774.683 649.077,765.472L602.159,717.033C565.565,679.427 526.597,640.991 490.954,602.782C498.549,548.867 518.467,493.933 551.087,450.023C561.134,436.499 572.282,424.733 583.706,412.464C526.065,412.997 466.029,435.659 419.111,468.513C441.09,417.875 484.084,376.354 531.626,349.334C540.476,344.303 549.789,339.728 558.886,335.136C510.999,321.8 438.831,321.474 391.117,332.205C431.399,283.309 484.751,258.553 544.156,241.044C519.715,221.488 471.964,198.501 441.806,190.481C455.288,187.479 475.824,186.063 489.484,185.921C539.313,184.997 588.734,195.06 634.237,215.394C645.573,208.878 670.219,196.178 682.832,193.685C738.208,174.462 784.752,170.998 842.263,182.907C866.03,187.655 889.119,195.321 911.007,205.732C929.459,214.907 946.865,226.053 962.92,238.974C974.966,248.603 986.239,259.16 996.637,270.55C1010.53,285.611 1021.99,300.083 1037.8,311.691C1049.35,320.173 1085.06,337.312 1086.98,349.968C1090.95,376.103 1057.72,354.269 1050.94,347.397C1050.08,355.075 1049.31,359.655 1045.04,366.259Z" style="fill:rgb(76,8,17);"  data-color="color-1"/>
        <path d="M682.832,193.685C738.208,174.462 784.752,170.998 842.263,182.907C866.03,187.655 889.119,195.321 911.007,205.732C929.459,214.907 946.865,226.053 962.92,238.974C974.966,248.603 986.239,259.16 996.637,270.55C1010.53,285.611 1021.99,300.083 1037.8,311.691C1049.35,320.173 1085.06,337.312 1086.98,349.968C1090.95,376.103 1057.72,354.269 1050.94,347.397C1050.08,355.075 1049.31,359.655 1045.04,366.259C1042.68,362.027 1042.22,359.719 1039.08,355.174C1027.28,338.089 1008.75,324.091 995.187,308.717C950.817,258.417 908.608,213.839 840.724,197.169C819.484,191.953 798.071,187.715 775.522,187.46C761.662,187.272 747.801,187.794 733.994,189.022C726.11,189.693 687.66,194.853 682.832,193.685Z" style="fill:white;fill-opacity:0.15;"/>
        <path d="M1217.01,603.302C1209.85,624.569 1191.37,645.206 1175.23,660.144C1175.67,640.788 1175.72,624.963 1169.27,606.539C1151.45,555.631 1102.09,535.538 1054.19,522.108C994.06,505.249 928.055,498.164 868.085,518.999C929.068,519.026 984.019,525.583 1042.78,543.097C1079.34,553.994 1121.8,569.711 1141.1,605.252C1124.39,604.717 1107.78,602.486 1091.51,598.594C1057.16,590.574 1027,579.624 990.956,580.033C984.329,580.108 966.698,580.452 961.075,578.303C946.729,572.82 932.431,565.911 918.08,560.074C890.579,549.038 862.869,538.532 834.965,528.561C837.266,524.006 839.963,518.626 843.147,514.725C868.574,483.57 934.36,483.858 971.525,481.507C988.08,480.505 1004.6,478.933 1021.04,476.792C1015.77,440.421 1016.74,420.34 1049.15,398.874C1059.33,393.136 1075.33,387.267 1086.81,392.317C1121.53,407.592 1157.33,437.113 1183.32,464.554C1219.98,503.262 1237.8,552.103 1217.01,603.302ZM1069.05,443.51C1054.76,447.226 1055.94,464.405 1056,476.557C1070.42,467.329 1083.26,465.976 1099.97,469.666C1100.69,469.825 1101.4,469.988 1102.12,470.156C1107.96,472.207 1112.47,473.76 1118.06,476.43C1107.01,461.348 1089.3,442.462 1069.05,443.51ZM881.447,324.452C884.091,325.164 896.397,336.288 899.099,338.806C880.898,356.659 879.354,382.853 903.487,395.72C911.356,399.975 920.59,400.939 929.167,398.399C940.232,395.013 946.14,387.458 951.269,377.685L963.955,386.107C962.53,388.966 960.35,392.475 958.7,395.3C956.397,398.473 954.554,400.651 951.749,403.442C941.88,413.464 928.363,419.045 914.3,418.906C900.345,418.774 887.023,413.066 877.299,403.054C853.808,378.97 858.293,346.83 881.447,324.452Z" style="fill:rgb(251,162,2);"  data-color="color-2"/>
        <path d="M1049.15,398.874C1059.33,393.136 1075.33,387.267 1086.81,392.317C1121.53,407.592 1157.33,437.113 1183.32,464.554C1219.98,503.262 1237.8,552.103 1217.01,603.302C1215.49,600.944 1216.02,598.041 1216.4,595.405C1219.62,573.131 1219.38,553.692 1208.26,533.451C1183.86,489.066 1144.02,456.189 1102.25,428.853C1084.62,417.312 1067.37,408.941 1049.15,398.874Z" style="fill:white;fill-opacity:0.42;"/>
        <path d="M622.205,129.172C687.771,154.628 719.23,143.129 783.841,143.638C828.45,143.628 872.672,151.911 914.254,168.067C961.259,186.558 996.473,212.242 1027.78,251.836C1038.21,265.029 1050.45,282.399 1062.21,293.828C1078.59,309.745 1102.67,315.184 1112.74,338.949C1118.8,353.242 1115.48,364.752 1110.12,378.218C1191.36,429.722 1281.23,505.387 1240.82,611.281C1222.55,659.166 1192.61,690.124 1146.41,711.526C1152.96,686.977 1147.94,658.603 1141.49,634.71C1103.6,633.565 1086.27,626.478 1051.96,614.635C994.826,594.911 925.286,610.921 882.117,653.782C820.063,715.394 776.715,820.823 773.909,908.473C764.426,903.131 755.091,897.528 745.917,891.671C701.665,863.265 660.185,830.756 622.024,794.575C534.934,712.67 458.097,612.714 337.825,577.391C340.536,508.653 357.704,440.446 404.322,387.781C363.117,389.226 328.049,399.208 290.047,414.41C290.824,407.525 291.855,400.67 293.139,393.861C306.136,326.919 355.917,275.366 413.164,242.311C421.178,237.684 429.534,233.315 437.186,228.134C394.193,215.419 329.236,220.879 284.825,227.036C305.245,206.5 322.315,191.437 348.649,178.476C443.572,131.754 553.933,135.324 648.936,178.155C639.825,165.718 625.91,144.234 622.205,129.172ZM881.447,324.452C858.293,346.83 853.808,378.97 877.299,403.054C887.023,413.066 900.345,418.774 914.3,418.906C928.363,419.045 941.88,413.464 951.749,403.442C954.554,400.651 956.397,398.473 958.7,395.3C960.35,392.475 962.53,388.966 963.955,386.107L951.269,377.685C946.14,387.458 940.232,395.013 929.167,398.399C920.59,400.939 911.356,399.975 903.487,395.72C879.354,382.853 880.898,356.659 899.099,338.806C896.397,336.288 884.091,325.164 881.447,324.452ZM921.032,358.915C917.941,359.962 915.671,362.617 915.115,365.833C914.558,369.049 915.805,372.313 918.363,374.338C920.922,376.364 924.384,376.828 927.386,375.547C931.789,373.669 933.92,368.645 932.211,364.172C930.503,359.7 925.566,357.378 921.032,358.915ZM1045.04,366.259C1049.31,359.655 1050.08,355.075 1050.94,347.397C1057.72,354.269 1090.95,376.103 1086.98,349.968C1085.06,337.312 1049.35,320.173 1037.8,311.691C1021.99,300.083 1010.53,285.611 996.637,270.55C986.239,259.16 974.966,248.603 962.92,238.974C946.865,226.053 929.459,214.907 911.007,205.732C889.119,195.321 866.03,187.655 842.263,182.907C784.752,170.998 738.208,174.462 682.832,193.685C670.219,196.178 645.573,208.878 634.237,215.394C588.734,195.06 539.313,184.997 489.484,185.921C475.824,186.063 455.288,187.479 441.806,190.481C471.964,198.501 519.715,221.488 544.156,241.044C484.751,258.553 431.399,283.309 391.117,332.205C438.831,321.474 510.999,321.8 558.886,335.136C549.789,339.728 540.476,344.303 531.626,349.334C484.084,376.354 441.09,417.875 419.111,468.513C466.029,435.659 526.065,412.997 583.706,412.464C572.282,424.733 561.134,436.499 551.087,450.023C518.467,493.933 498.549,548.867 490.954,602.782C526.597,640.991 565.565,679.427 602.159,717.033L649.077,765.472C658.005,774.683 669.263,786.65 678.699,795.27C644.582,720.271 622.825,649.476 622.464,565.779C603.039,587.043 593.2,605.49 583.617,632.223C566.169,575.533 581.336,504.349 608.854,453.312C620.229,432.214 636.371,408.07 654.741,392.386C647.264,415.407 645.956,443.293 649.985,467.032C658.257,515.775 693.181,552.58 739.946,566.946C771.746,576.715 796.541,578.027 829.216,576.633C804.189,565.369 765.154,546.442 745.547,527.141C756.666,515.744 767.136,508.899 780.719,500.474C799.568,488.522 819.603,478.555 840.504,470.73C868.443,460.335 894.326,454.094 922.919,442.146C872.546,449.913 833.119,439.385 790.269,412.206C808.95,411.398 825.341,410.729 843.014,404.456C836.123,393.543 832.695,383.979 829.072,371.679C821.339,345.425 798.728,336.714 774.339,329.55C795.082,316.135 815.6,309.5 840.066,318.172C836.672,302.451 833.057,292.661 818.662,283.388C804.127,274.024 782.064,268.371 764.99,267.307C822.985,243.711 865.896,264.742 910.552,303.655C921.168,313.094 931.65,322.681 941.995,332.415C962.739,351.665 986.517,375.165 1016.36,375.883C1022.76,376.037 1029.2,375.565 1035.18,373.125C1038.94,371.606 1042.31,369.259 1045.04,366.259ZM1217.01,603.302C1237.8,552.103 1219.98,503.262 1183.32,464.554C1157.33,437.113 1121.53,407.592 1086.81,392.317C1075.33,387.267 1059.33,393.136 1049.15,398.874C1016.74,420.34 1015.77,440.421 1021.04,476.792C1004.6,478.933 988.08,480.505 971.525,481.507C934.36,483.858 868.574,483.57 843.147,514.725C839.963,518.626 837.266,524.006 834.965,528.561C862.869,538.532 890.579,549.038 918.08,560.074C932.431,565.911 946.729,572.82 961.075,578.303C966.698,580.452 984.329,580.108 990.956,580.033C1027,579.624 1057.16,590.574 1091.51,598.594C1107.78,602.486 1124.39,604.717 1141.1,605.252C1121.8,569.711 1079.34,553.994 1042.78,543.097C984.019,525.583 929.068,519.026 868.085,518.999C928.055,498.164 994.06,505.249 1054.19,522.108C1102.09,535.538 1151.45,555.631 1169.27,606.539C1175.72,624.963 1175.67,640.788 1175.23,660.144C1191.37,645.206 1209.85,624.569 1217.01,603.302ZM1069.05,443.51C1089.3,442.462 1107.01,461.348 1118.06,476.43C1112.47,473.76 1107.96,472.207 1102.12,470.156C1101.4,469.988 1100.69,469.825 1099.97,469.666C1083.26,465.976 1070.42,467.329 1056,476.557C1055.94,464.405 1054.76,447.226 1069.05,443.51Z"/>
        <path d="M591.343,96.47C621.459,106.668 658.655,119.536 689.662,123.947C713.457,127.332 744.215,124.245 768.799,123.709C796.91,123.106 825.017,125.022 852.786,129.435C921.707,140.187 984.897,174.139 1031.91,225.681C1046.97,242.405 1059.13,261.553 1073.71,277.338C1087.1,291.83 1111.21,299.45 1123.52,318.198C1135.03,335.729 1137.87,349.869 1134.42,370.279C1225.34,432.898 1304.15,508.657 1256.13,627.218C1240.18,665.862 1211.88,698.129 1175.65,718.969C1159.03,728.528 1134.64,738.656 1116.65,746.264C1128.44,713.649 1131.77,687.358 1126.16,653.422C1112.34,652.444 1100,651.358 1086.62,647.455C1062.51,640.489 1037.42,628.78 1012.11,626.956C876.121,617.149 803.327,794.014 793.802,905.289C792.575,916.779 793.524,931.937 795.968,943.256C730.561,913.035 659.625,859.391 607.48,809.761C510.826,717.766 449.91,633.894 317.54,591.126C317.833,518.518 327.923,479.407 359.196,414.855C322.389,424.268 299.686,432.368 266.189,450.203C267.346,433.102 268.85,411.484 271.583,394.843C278.589,352.196 302.551,310.706 331.601,279.254C343.503,266.368 359.039,252.767 372.326,240.725C328.744,240.029 281.463,245.178 238.513,252.242C246.757,240.362 255.517,228.451 264.809,217.459C329.26,141.213 435.916,116.018 531.982,125.049C556.719,127.374 580.272,132.076 604.608,137.571C598.979,123.714 595.139,110.855 591.343,96.47ZM622.205,129.172C625.91,144.234 639.825,165.718 648.936,178.155C553.933,135.324 443.572,131.754 348.649,178.476C322.315,191.437 305.245,206.5 284.825,227.036C329.236,220.879 394.193,215.419 437.186,228.134C429.534,233.315 421.178,237.684 413.164,242.311C355.917,275.366 306.136,326.919 293.139,393.861C291.855,400.67 290.824,407.525 290.047,414.41C328.049,399.208 363.117,389.226 404.322,387.781C357.704,440.446 340.536,508.653 337.825,577.391C458.097,612.714 534.934,712.67 622.024,794.575C660.185,830.756 701.665,863.265 745.917,891.671C755.091,897.528 764.426,903.131 773.909,908.473C776.715,820.823 820.063,715.394 882.117,653.782C925.286,610.921 994.826,594.911 1051.96,614.635C1086.27,626.478 1103.6,633.565 1141.49,634.71C1147.94,658.603 1152.96,686.977 1146.41,711.526C1192.61,690.124 1222.55,659.166 1240.82,611.281C1281.23,505.387 1191.36,429.722 1110.12,378.218C1115.48,364.752 1118.8,353.242 1112.74,338.949C1102.67,315.184 1078.59,309.745 1062.21,293.828C1050.45,282.399 1038.21,265.029 1027.78,251.836C996.473,212.242 961.259,186.558 914.254,168.067C872.672,151.911 828.45,143.628 783.841,143.638C719.23,143.129 687.771,154.628 622.205,129.172ZM921.032,358.915C925.566,357.378 930.503,359.7 932.211,364.172C933.92,368.645 931.789,373.669 927.386,375.547C924.384,376.828 920.922,376.364 918.363,374.338C915.805,372.313 914.558,369.049 915.115,365.833C915.671,362.617 917.941,359.962 921.032,358.915Z" style="fill:rgb(254,254,254);"/>
    </g>
</svg>
