<svg width="100%" height="100%" viewBox="0 0 1002 803" version="1.1" xmlns="http://www.w3.org/2000/svg" xmlns:xlink="http://www.w3.org/1999/xlink" xml:space="preserve" xmlns:serif="http://www.serif.com/" style="fill-rule:evenodd;clip-rule:evenodd;stroke-linejoin:round;stroke-miterlimit:2;">
    <g transform="matrix(1,0,0,1,-0.675675,-107.611)">
        <path d="M463.322,107.735C611.505,104.381 762.655,169.088 852.204,289.145C867.885,310.167 882.839,334.46 889.065,360.117C891.295,369.304 891.281,377.26 890.874,386.553C907.086,396.711 919.701,408.624 933.695,421.402C1015.79,496.363 1026.49,613.016 951.673,697.703C915.976,738.801 865.25,763.815 810.913,767.117C820.777,750.07 837.534,712.241 837.039,692.871C835.9,648.286 766.179,643.887 733.845,650.51C697.263,658.003 666.347,687.214 669.029,726.677C673.859,784.419 726.455,832.26 766.554,869.033C759.225,868.931 751.078,867.808 743.774,867.08C718.644,864.576 696.034,859.477 671.659,853.472C681.165,864.63 689.779,877.017 699.406,888.157C703.424,892.807 707.894,898.028 711.377,903.004C692.681,900.316 676.518,898.53 657.696,894.947C618.202,887.428 589.677,876.516 553.622,860.236C555.137,862.869 556.731,865.888 558.065,868.617C564.796,882.375 573.309,896.083 579.534,910.013C522.936,892.042 475.121,871.034 422.411,843.958C387.598,826.412 353.042,807.295 317.991,789.552C283.211,826.986 264.077,858.564 248.426,907.057C238.992,894.655 229.621,882.637 221.449,869.307C186.903,812.956 168.016,754.851 175.408,688.698C150.569,708.904 130.092,726.322 107.306,749.061C100.831,755.426 94.52,761.955 88.379,768.643C83.833,773.61 77.44,781.088 72.623,785.436C68.169,772.427 65.704,752.951 64.058,739.166C55.495,667.47 64.207,593.848 96.244,528.621C80.048,535.538 64.192,540.604 47.414,548.395C32.684,555.234 15.235,564.655 0.69,570.503C0.317,555.092 7.368,534.414 12.348,519.736C36.607,448.236 81.186,388.357 137.181,338.37C101.824,325.9 76.299,306.795 47.335,283.67C41.021,278.629 29.41,270.943 25.412,264.483C80.123,264.563 116.8,264.717 168.96,243.724C113.548,212.575 78.711,170.311 54.114,112.35C63.343,117.37 75.306,123.355 85.295,126.875C141.138,146.559 203.161,146.767 261.013,137.389C297.667,131.447 333.115,122.609 369.573,116.462C400.558,111.196 431.897,108.279 463.322,107.735Z" style="fill:white;fill-rule:nonzero;"/>
        <path d="M450.845,130.22C488.703,128.619 526.619,131.41 563.835,138.538C644.668,154.702 716.652,188.345 778.783,242.88C803.389,264.071 825.053,288.455 843.2,315.385C861.726,343.21 873.872,364.936 867.051,398.858C914.191,427.448 957.699,468.98 973.657,523.092C997.658,604.478 955.708,685.331 883.152,724.581C872.304,730.45 860.731,734.076 848.949,737.451C859.748,710.252 866.194,678.691 844.302,654.756C825.027,633.801 796.826,627.517 769.538,625.892C735.241,623.848 700.966,632.938 675.126,656.47C658.042,672.104 647.887,693.897 646.902,717.033C644.752,762.591 673.098,805.026 702.676,837.464C651.49,827.125 618.47,811.155 584.927,769.807C587.854,777.854 595.2,790.429 599.728,797.746C616.552,824.932 635.877,848.602 657.992,871.682C643.004,868.302 630.81,865.606 616.04,860.859C567.121,845.137 523.926,817.922 486.79,782.627C498.777,813.268 515.923,841.504 533.098,869.403C495.822,854.886 464.902,839.932 429.648,821.474L341.786,775.05C355.024,756.51 378.974,723.176 397.145,710.292C393.249,711.49 389.368,712.74 385.505,714.042C373.779,718.093 358.605,727.866 348.297,735.058C302.555,766.972 266.627,807 242.23,857.245C228.164,836.047 217.022,813.049 209.105,788.872C194.242,743.176 190.803,680.941 213.136,637.214C206.186,641.332 199.22,645.179 192.409,649.552C153.768,674.362 118.624,705.64 86.241,738.087C84.669,715.278 83.31,698.196 84.11,674.867C86.163,608.868 106.703,544.77 143.391,489.869C105.796,501.069 68.933,514.596 33.017,530.372C57.724,448.814 116.824,380.238 183.76,329.667C150.44,321.363 117.638,306.823 90.162,286.192C122.529,283.757 159.727,272.719 189.389,259.768C200.439,254.943 210.096,249.512 220.736,244.648C209.738,241.116 200.026,235.627 189.968,230.206C154.47,211.075 130.486,188.024 105.627,156.588C119.657,161.197 135.523,163.123 150.175,164.73C229.276,173.401 301.673,150.92 378.239,137.966C402.261,133.909 426.508,131.323 450.845,130.22ZM581.291,343.324C593.687,352.59 613.091,366.188 625.961,374.412C601.645,404.516 625.379,438.191 661.058,424.64C668.591,421.779 673.966,412.499 676.507,405.123C683.615,410.326 689.893,413.254 697.701,417.14L697.671,417.782C690.244,423.737 677.569,433.479 669.398,438.159C656.592,445.639 641.299,447.602 627.019,443.598C583.641,431.636 568.049,391.146 579.388,350.045C580.006,347.802 580.642,345.56 581.291,343.324Z" style="fill:rgb(0,29,64);"  data-color="color-3"/>
        <path d="M450.332,165.724C466.313,164.762 487.299,165.535 503.205,166.587C585.662,172.04 666.651,198.1 732.865,248.358C761.679,270.053 786.88,296.169 807.535,325.737C823.169,347.821 830.382,361.576 834.113,388.669L833.851,388.298C824.992,375.97 803.462,359.288 788.209,356.835C791.721,363.969 793.082,369.228 789.995,376.918C787.376,383.441 780.427,389.744 773.827,392.131C741.473,403.832 703.764,377.865 678.45,360.264C668.785,353.6 659.227,346.781 649.78,339.809C638.919,331.831 625.997,322.884 614.787,315.371C597.647,303.764 579.372,293.931 560.243,286.023C530.125,273.87 501.331,270.888 469.007,272.957C462.062,273.401 450.766,274.636 444.42,277.325C460.63,282.052 505.952,302.817 519.428,312.693C512.642,315.094 503.575,317.341 496.519,319.316C484.221,322.636 472.041,326.381 460.003,330.546C453.745,332.729 445.846,335.574 440.147,338.761C454.97,338.962 477.63,345.032 491.603,350.241C501.636,353.982 517.784,360.056 526.005,367.101C529.006,369.673 531.593,379.402 533.023,383.809C541.035,408.499 550.919,434.524 572.544,450.612C590.429,463.918 615.557,472.124 637.816,473.058C647.948,473.484 656.193,472.309 666.125,470.865C661.047,473.25 653.603,476.828 648.331,478.244C634.77,481.886 619.757,483.266 605.925,485.959C584.708,490.089 561.896,495.046 541.891,503.351C527.524,509.441 514.299,517.934 502.785,528.467C499.841,531.212 495.104,537.504 492.073,539.039C483.857,543.2 474.886,546.697 466.497,550.59C451.993,557.43 437.844,564.999 424.104,573.268C358.695,612.736 300.371,676.407 263.913,743.394C257.016,756.067 253.379,765.807 248.021,778.724C246.443,758.054 249.369,732.626 251.859,711.996C253.573,701.277 255.825,690.652 258.606,680.159C276.814,611.674 315.912,563.745 373.606,524.009C389.596,512.996 403.268,505.225 419.966,495.54C334.793,506.793 256.724,540.751 187.02,590.294C170.752,601.857 150.131,616.127 137.14,631.135C146.673,552.086 203.13,487.706 266.743,444.238C284.566,432.059 303.191,422.169 322.251,412.152C316.014,413.088 309.159,413.514 302.799,414.314C291.073,415.876 279.376,417.655 267.716,419.652C211.509,429.847 156.393,445.336 103.104,465.911C108.728,458.662 118.028,448.726 124.367,441.84C136.652,428.494 151.023,412.702 164.704,400.996C205.372,366.197 263.595,331.048 313.45,310.411C305.973,311.274 291.728,310.415 284.008,309.819C251.53,307.311 218.929,304.8 187.828,294.622L188.671,294.622C194.958,294.615 199.597,293.841 205.531,291.694C221.307,285.988 237.107,277.135 251.74,268.894C273.827,256.455 302.785,242.025 320.651,224.11C298.568,224.035 261.161,211.677 239.324,205.913C235.243,204.836 218.462,199.873 215.192,198.342C231.231,199.076 254.036,195.342 269.759,192.27C330.263,180.447 388.312,167.661 450.332,165.724Z" style="fill:rgb(0,49,98);fill-rule:nonzero;"  data-color="color-1"/>
        <path d="M817.738,419.11C847.119,416.909 888.894,453.573 907.717,474.624C964.724,538.379 952.209,630.017 888.266,683.989C903.884,648.152 888.72,614.955 860.859,590.598C844.864,576.616 828.917,567.707 809.635,559.147C791.796,551.396 773.3,545.25 754.369,540.784C689.33,524.835 626.089,525.923 560.558,538.574C589.101,523.031 618.053,515.904 649.222,507.557C659.664,504.76 678.597,500.574 687.424,496.186C696.659,491.594 710.612,482.481 719.624,476.826L776.106,441.328C786.706,434.672 806.365,421.002 817.738,419.11ZM819.245,456.614C810.742,458.123 805.56,462.027 797.959,465.241C787.885,469.5 774.336,481.191 778.801,493.55C779.565,493.552 793.142,488.153 795.716,487.349C804.073,484.94 811.677,482.406 819.291,478.02C828.894,472.487 832.857,468.704 843.472,465.318L838.333,464.98C832.062,460.294 827.523,455.924 819.245,456.614ZM674.539,562.224C731.05,560.777 786.6,577.034 833.414,608.721C818.953,604.593 796.886,601.67 781.264,598.148C751.744,592.849 720.582,583.723 690.917,578.412C664.555,573.692 639.323,573.399 612.674,574.972C632.245,565.942 653.26,562.992 674.539,562.224Z" style="fill:rgb(250,174,23);"  data-color="color-2"/>
    </g>
</svg>
