<?xml version="1.0" encoding="UTF-8" standalone="no"?>
<!DOCTYPE svg PUBLIC "-//W3C//DTD SVG 1.1//EN" "http://www.w3.org/Graphics/SVG/1.1/DTD/svg11.dtd">
<svg width="100%" height="100%" viewBox="0 0 745 916" version="1.1" xmlns="http://www.w3.org/2000/svg" xmlns:xlink="http://www.w3.org/1999/xlink" xml:space="preserve" xmlns:serif="http://www.serif.com/" style="fill-rule:evenodd;clip-rule:evenodd;stroke-linejoin:round;stroke-miterlimit:2;">
    <g transform="matrix(1,0,0,1,-139.459,-46.1232)">
        <path d="M833.69,96.851C837.853,114.669 842.959,144.659 843.592,153.628C846.973,201.518 835.298,249.566 810.086,290.456C803.189,301.641 791.341,315.375 782.745,325.212C818.802,376.365 842.183,435.357 850.958,497.322C854.063,517.899 855.095,535.361 857.142,555.76C853.48,551.042 850.44,546.203 846.253,541.723C839.636,534.642 831.726,528.408 824.264,522.196C828.122,536.878 829.906,550.382 830.708,565.49C834.856,643.665 804.462,717.83 752.698,775.53C753.679,763.812 752.871,742.049 752.347,730.201C735.918,748.995 719.94,767.034 700.639,783.064C679.192,800.877 656.302,817.07 633.523,833.135C625.881,838.525 617.573,843.513 609.841,848.863C573.148,874.255 542.192,897.351 512.696,931.02C443.921,850.032 337.632,817.594 272.12,730.306C271.372,741.88 270.75,753.64 271.343,765.232C271.477,767.854 272.209,773.816 271.629,776.132C260.871,764.391 251.05,751.825 242.256,738.548C205.535,684.919 188.38,620.29 193.67,555.509C194.737,543.683 196.809,533.547 199.101,521.932C186.027,531.83 176.57,540.559 166.788,553.841C168.54,536.666 168.731,522.278 171.271,504.291C181.076,434.866 201.538,382.388 240.792,325.179C226.264,306.246 218.879,299.783 206.859,277.764C177.412,223.827 172.79,155.394 190.317,96.858C197.11,105.362 202.598,113.923 210.145,122.117C216.949,129.505 223.301,135.414 230.677,142.225C252.372,162.207 275.721,180.315 300.474,196.354C317.779,207.792 335.788,217.94 352.5,230.311C356.494,233.267 361.439,236.726 366.164,238.241C374.283,236.433 381.975,232.859 389.922,230.328C460.195,207.944 538.065,205.917 609.902,223.297C619.689,225.678 629.388,228.41 638.98,231.486C645.298,233.55 652.685,236.411 658.936,238.027L659.666,238.212C669.134,234.48 682.957,222.006 692.191,216.085C734.453,188.982 776.31,160.864 811.422,124.653C820.007,115.8 826.428,108.213 833.69,96.851Z" style="fill:rgb(27,39,40);"/>
        <path d="M657.707,216.788C665.495,211.923 674.695,203.545 681.394,199.25C722.363,172.976 763.026,145.833 797.064,110.73C804.68,102.876 810.395,96.16 816.838,86.08L842.377,46.123L853.166,92.301C857.558,111.101 862.874,142.756 863.542,152.22C867.218,204.277 854.516,256.504 827.11,300.953C822.168,308.967 814.897,318.227 807.862,326.643C840.763,377.27 862.252,434.526 870.748,494.429C873.895,515.315 874.963,533.049 877.042,553.763L883.986,622.963L851.083,580.572C850.846,658.12 819.305,731.235 767.585,788.886L727.797,833.236L732.127,781.511C726.164,787.346 719.972,793.006 713.417,798.45C691.567,816.598 668.258,833.111 645.05,849.479C637.36,854.903 629.002,859.926 621.221,865.31C585.944,889.722 556.098,911.829 527.74,944.199L512.46,961.64L497.451,943.966C464.27,904.892 421.865,877.746 380.027,849.624C348.979,828.755 318.23,807.385 290.952,781.302L281.999,817.054L256.883,789.643C245.453,777.169 235.016,763.821 225.682,749.742C191.269,699.439 172.928,640.106 172.736,579.49L139.459,624.675L146.891,551.811C148.67,534.37 148.888,519.761 151.468,501.494C161.033,433.763 180.286,381.431 216.102,326.152C206.151,313.765 199.277,305.616 189.305,287.347C157.361,228.837 152.144,154.62 171.157,91.122L182.11,54.541L205.943,84.376C212.439,92.507 217.639,100.732 224.856,108.568C231.274,115.537 237.278,121.098 244.234,127.521C265.096,146.735 287.548,164.147 311.426,179.619L311.502,179.669C329.103,191.303 347.401,201.653 364.398,214.235C365.543,215.082 366.779,216.069 368.067,216.961C373.363,215.209 378.538,212.964 383.852,211.271C457.567,187.791 539.25,185.627 614.617,203.861L614.63,203.864C624.881,206.358 635.04,209.219 645.139,212.458L645.191,212.475C649.126,213.76 653.496,215.392 657.707,216.788ZM833.69,96.851C826.428,108.213 820.007,115.8 811.422,124.653C776.31,160.864 734.453,188.982 692.191,216.085C682.957,222.006 669.134,234.48 659.666,238.212L658.936,238.027C652.685,236.411 645.298,233.55 638.98,231.486C629.388,228.41 619.689,225.678 609.902,223.297C538.065,205.917 460.195,207.944 389.922,230.328C381.975,232.859 374.283,236.433 366.164,238.241C361.439,236.726 356.494,233.267 352.5,230.311C335.788,217.94 317.779,207.792 300.474,196.354C275.721,180.315 252.372,162.207 230.677,142.225C223.301,135.414 216.949,129.505 210.145,122.117C202.598,113.923 197.11,105.362 190.317,96.858C172.79,155.394 177.412,223.827 206.859,277.764C218.879,299.783 226.264,306.246 240.792,325.179C201.538,382.388 181.076,434.866 171.271,504.291C168.731,522.278 168.54,536.666 166.788,553.841C176.57,540.559 186.027,531.83 199.101,521.932C196.809,533.547 194.737,543.683 193.67,555.509C188.38,620.29 205.535,684.919 242.256,738.548C251.05,751.825 260.871,764.391 271.629,776.132C272.209,773.816 271.477,767.854 271.343,765.232C270.75,753.64 271.372,741.88 272.12,730.306C337.632,817.594 443.921,850.032 512.696,931.02C542.192,897.351 573.148,874.255 609.841,848.863C617.573,843.513 625.881,838.525 633.523,833.135C656.302,817.07 679.192,800.877 700.639,783.064C719.94,767.034 735.918,748.995 752.347,730.201C752.871,742.049 753.679,763.812 752.698,775.53C804.462,717.83 834.856,643.665 830.708,565.49C829.906,550.382 828.122,536.878 824.264,522.196C831.726,528.408 839.636,534.642 846.253,541.723C850.44,546.203 853.48,551.042 857.142,555.76C855.095,535.361 854.063,517.899 850.958,497.322C842.183,435.357 818.802,376.365 782.745,325.212C791.341,315.375 803.189,301.641 810.086,290.456C835.298,249.566 846.973,201.518 843.592,153.628C842.959,144.659 837.853,114.669 833.69,96.851Z" style="fill:rgb(210,162,76);"/>
        <path d="M280.469,363.965C291.044,371.541 303.294,381.644 313.706,389.782C312.08,393.899 310.713,398.113 309.613,402.4C302.939,428.809 305.622,460.274 319.813,483.903C331.673,503.693 350.871,517.997 373.227,523.701C407.32,532.162 432.261,519.8 460.669,502.826C455.931,515.803 449.035,530.81 446.475,544.252C445.224,550.823 448.568,562.566 450.582,568.992C462.555,607.19 487.806,647.183 512.105,679.134C533.326,651.551 553.877,619.003 567.179,587.088C583.984,546.768 578.655,541.103 562.693,502.485C572.246,507.749 579.785,512.549 589.925,517.309C612.743,528.021 636.528,529.334 660.232,520.573C682.023,512.493 699.65,495.991 709.148,474.779C721.32,447.872 720.581,416.914 710.342,389.555C720.618,381.624 732.578,371.794 742.987,364.487C744.447,364.932 744.145,365.106 745.231,366.733C762.87,393.412 773.258,416.773 776.256,449.144C778.764,474.774 774.729,500.621 764.529,524.267C748.458,561.138 716.205,582.043 678.88,594.076C668.917,597.288 656.7,599.505 646.342,602.259C629.961,606.701 614.239,613.285 599.582,621.842C564.943,642.204 537.109,677.44 511.692,708.021C508.717,704.057 505.255,700.198 502.129,696.374C468.357,655.068 431.283,615.183 377.589,601.697C368.941,599.526 360.072,597.688 351.477,595.387C333.874,590.591 317.168,582.964 302.013,572.805C271.75,552.78 256.609,528.7 249.373,493.221C242.799,460.984 248.19,424.674 262.215,395.034C267.549,383.761 273.595,374.327 280.469,363.965Z" style="fill:rgb(253,247,236);"/>
        <path d="M672.742,413.423L673.256,413.543C675.358,415.799 676.616,428.777 676.923,432.072C680.043,465.51 656.437,495.418 622.23,497.125C606.73,497.899 595.086,494.163 583.34,483.608C581.305,481.613 579.535,479.463 577.679,477.302C584.444,472.67 591.158,467.966 597.822,463.191C605.022,472.617 615.295,476.729 626.807,472.537C633.303,470.136 638.514,465.152 641.201,458.769C644.955,450.066 643.521,443.126 640.363,434.819C652.056,426.247 660.324,420.64 672.742,413.423ZM350.97,412.89C362.343,419.165 373.117,426.469 383.158,434.71C380.927,440.181 379.566,445.009 380.133,451.04C380.779,457.982 384.184,464.375 389.584,468.786C395.007,473.253 402.039,475.272 409.007,474.364C417.297,473.334 422.616,469.371 427.518,463.019C433.465,467.952 440.014,472.962 446.098,477.788C444.774,479.573 443.288,481.234 441.838,482.921C428.149,496.154 409.476,500.134 391.124,495.65C376.043,491.898 363.085,482.277 355.133,468.925C344.544,451.013 346.054,432.136 350.97,412.89Z" style="fill:rgb(253,247,236);"/>
        <path d="M804.704,179.837C807.319,185.948 798.67,215.365 796.246,222.688C763.758,320.862 659.57,361.552 586.268,423.765C571.532,436.272 555.548,447.319 543.484,462.715C542.479,459.216 556.288,432.436 558.433,428.241C578.657,388.058 607.429,355.425 638.591,323.583C663.836,297.788 689.742,276.949 718.35,254.966C748.521,231.782 780.812,209.797 804.704,179.837ZM218.971,179.834C222.201,182.564 227.016,189.275 230.134,192.616C260.303,224.95 298.074,248.378 332.432,275.82C358.813,296.891 383.126,319.86 405.427,345.212C426.167,368.214 445.131,390.476 459.948,417.963C465.255,427.623 478.011,450.952 480.175,461.607C478.482,460.267 475.927,456.978 474.203,455.25C454.42,435.421 430.136,416.212 407.5,399.831C336.031,348.114 251.395,304.423 225.479,212.85C222.204,201.278 218.863,192.243 218.971,179.834ZM245.621,613.254C246.865,614.17 250.756,622.259 251.975,624.51C256.818,633.293 262.04,641.861 267.627,650.191C287.653,679.537 308.848,704.296 335.974,727.357C343.997,734.177 351.585,741.02 360.39,746.891C358.445,741.409 357.112,735.652 355.679,730.006C362.103,740.899 364.338,744.422 374.562,751.415C367.562,737.326 361.665,715.645 357.187,700.214C365.513,709.933 376.668,720.437 385.941,729.418L428.064,769.971L428.061,770.479L425.291,769.829C425.33,771.105 455.183,798.75 458.088,801.503C469.335,812.115 483.599,830.734 490.657,844.331C485.18,839.936 478.415,835.354 472.662,830.95C458.116,819.818 443.366,808.243 428.554,797.537C424.743,794.782 407.63,781.629 404.369,780.158L403.837,780.945C406.301,785.844 404.646,789.742 402.99,795.023C330.748,739.56 270.456,708.431 245.621,613.254ZM511.594,499.868C518.47,503.141 533.757,523.113 536.243,531.281C537.777,536.322 540.233,541.783 539.709,547.444C537.461,571.716 521.581,598.081 512.295,620.181L512.044,620.233L511.417,619.729C503.447,601.292 482.574,563.334 484.215,544.232C485.818,525.576 500.656,508.882 511.594,499.868ZM776.261,617.387C776.63,621.15 769.801,638.253 768.119,643.005C749.271,696.253 706.962,730.194 661.228,760.437C661.308,760.128 661.388,759.818 661.468,759.509C669.894,752.07 682.445,740.537 689.911,733.205C698.17,724.985 706.212,716.55 714.028,707.909C738.249,680.797 759.045,649.355 776.261,617.387Z" style="fill:rgb(210,162,76);"/>
    </g>
</svg>
