<?xml version="1.0" encoding="UTF-8" standalone="no"?>
<!DOCTYPE svg PUBLIC "-//W3C//DTD SVG 1.1//EN" "http://www.w3.org/Graphics/SVG/1.1/DTD/svg11.dtd">
<svg width="100%" height="100%" viewBox="0 0 764 870" version="1.1" xmlns="http://www.w3.org/2000/svg" xmlns:xlink="http://www.w3.org/1999/xlink" xml:space="preserve" xmlns:serif="http://www.serif.com/" style="fill-rule:evenodd;clip-rule:evenodd;stroke-linejoin:round;stroke-miterlimit:2;">
    <g transform="matrix(1,0,0,1,-121.314,-80.3762)">
        <path d="M705.864,126.985C706.676,127.936 707.181,137.875 707.315,139.656C709.813,172.813 702.55,204.489 691.044,235.354C701.95,233.089 712.871,230.896 723.806,228.772C713.208,262.737 696.076,290.508 674.596,318.836C705.777,363.628 729.502,400.596 741.465,455.368C744.461,469.266 746.423,483.367 747.335,497.555C748.816,521.207 747.94,546.46 756.182,569.121C768.62,603.318 793.333,631.333 817.228,658.062C825.992,667.865 835.569,677.39 845.135,686.533C764.507,708.964 687.103,741.681 614.831,783.878C594.568,795.765 574.811,809.051 555.134,821.87C521.262,843.465 488.981,867.461 458.54,893.673C446.394,903.983 436.378,912.325 425.163,923.597C417.701,918.833 410.369,912.545 403.512,906.984C386.063,892.836 371.181,878.271 356.335,861.481C350.988,855.119 345.948,848.505 341.231,841.663C296.263,775.472 299.209,700.656 344.851,636.037C367.723,603.655 397.217,575.916 368.987,535.713C366.537,532.217 363.765,528.958 360.707,525.979C355.244,520.638 328.084,498.28 321.766,495.389C314.613,492.116 286.077,487.955 277.039,486.442C236.68,479.687 194.795,475.9 154.54,468.962C177.414,431.825 256.704,394.85 298.265,384.037C319.069,341.522 342.387,302.056 381.251,273.21C392.256,265.042 408.393,256.423 420.694,250.34C445.448,237.933 471.583,228.499 498.554,222.235C527.624,215.259 561.057,210.738 589.035,201.171C634.556,185.606 671.972,160.711 705.864,126.985ZM307.354,406.198C277.878,409.59 225.516,435.617 199.895,451.018C227.98,446.29 275.309,442.067 303.376,444.852C330.119,446.153 367.298,450.528 392.779,459.637C374.259,445.128 362.747,435.787 340.442,426.748C343.867,426.57 347.616,426.454 351.006,426.183C342.974,408.824 325.326,403.18 307.354,406.198ZM332.01,416.204L337.925,416.004C336.611,417.571 335.259,419.105 333.869,420.605C325.369,429.654 318.739,430.695 307.047,431.021C304.338,430.593 304.079,430.954 303.951,428.295C300.175,424.829 305.695,422.874 308.518,421.431C315.755,417.733 324.025,416.824 332.01,416.204ZM478.984,376.107C474.969,378.927 470.138,381.936 469.07,387.119C468.025,392.191 472.477,396.413 477.307,396.712C479.856,396.868 482.347,395.907 484.132,394.081C485.974,392.232 486.178,390.019 486.73,387.469C499.511,407.618 473.284,430.285 454.07,416.902C448.218,412.827 446.061,408.174 444.679,401.435C437.992,406.074 432.715,409.545 425.376,413.305C430.169,423.665 438.705,433.777 450.425,436.813C460.476,439.416 479.331,436.93 488.697,431.687C496.758,427.176 507.043,416.31 509.398,406.845C511.919,387.033 507.991,375.463 488.261,371.298C484.569,372.885 482.48,374.065 478.984,376.107ZM573.485,340.46C570.796,342.011 552.353,346.013 547.504,347.59C536.421,351.194 526.973,355.007 516.207,359.446C524.85,368.264 528.203,374.363 528.004,387.219C527.845,397.446 525.968,406.253 522.166,415.794C502.936,452.523 468.448,464.345 429.983,449.717C421.668,446.051 416.797,443.473 409.133,438.177C411.925,444.544 414.708,449.566 419.447,454.771C425.493,461.43 430.205,465.58 436.95,471.335C433.625,472.838 429.437,474.098 425.914,475.258C417.649,478.161 408.449,480.357 400.636,483.494C384.131,488.666 375.36,496.377 358.891,496.635C378.331,504.738 391.847,522.039 399.847,541.042C413.052,572.408 402.241,598.277 383.612,623.87C350.935,663.404 329.406,704.284 335.387,757.044C341.316,809.344 374.702,849.961 413.891,882.25C417.295,885.051 420.767,887.768 424.304,890.398C438.971,872.857 466.23,843.742 483.094,829.202C491.01,822.093 498.682,814.66 506.643,807.569C528.58,788.248 564.288,762.322 588.974,745.915C600.346,737.701 613.629,729.794 625.423,722.518C666.081,697.433 713.449,676.001 761.367,670.696C771.664,669.557 783.41,668.274 793.865,668.901C788.965,664.281 783.834,658.588 779.174,653.623C759.479,632.643 743.994,612.594 732.589,586.061C725.816,568.799 726.443,548.099 725.554,529.572C724.995,517.91 724.07,506.27 722.77,494.668C715.016,428.767 684.287,363.03 631.594,321.343C637.395,316.602 644.735,307.424 650.037,301.61C657.63,293.282 666.73,284.594 673.891,276.078C676.502,272.662 678.154,269.649 680.278,265.942C664.907,270.5 655.614,271.487 639.643,270.83C646.988,259.51 659.625,242.451 664.879,230.517C673.736,215.624 678.286,198.043 681.492,181.156C656.521,198.588 624.433,216.153 595.397,225.572C571.927,233.185 542.704,237.693 518.085,243.236C435.502,261.828 376.578,293.825 332.283,368.04C333.596,383.899 347.749,386.291 360.379,380.75C356.692,391.608 356.62,398.703 370.002,402.258C387.11,406.495 407.604,395.942 421.783,387.451C454.837,367.656 483.109,339.947 524.342,340.233C540.926,340.348 556.762,341.352 573.485,340.46ZM262.823,461.346C266.719,461.806 270.996,462.659 274.865,463.355C302.579,468.342 330.409,473.025 358.289,476.976C367.176,478.235 376.302,478.606 385.253,479.696C343.729,461.219 307.053,459.633 262.799,460.025C258.628,459.979 257.186,460.03 252.951,460.795C256.23,460.974 259.55,461.128 262.823,461.346Z" style="fill:rgb(0,30,70);"/>
        <path d="M506.643,807.569C498.682,814.66 491.01,822.093 483.094,829.202C452.417,801.43 438.778,769.428 449.448,728.187C454.666,755.301 485.827,789.928 506.643,807.569ZM387.167,745.804C388.261,746.781 394.648,760.555 396.05,763.352C412.473,796.11 432.591,825.968 436.258,863.205L435.596,863.867C425.16,857.298 414.231,846.167 406.755,836.44C384.51,807.5 382.583,780.363 387.167,745.804ZM732.589,586.061C743.994,612.594 759.479,632.643 779.174,653.623C783.834,658.588 788.965,664.281 793.865,668.901C783.41,668.274 771.664,669.557 761.367,670.696C713.449,676.001 666.081,697.433 625.423,722.518C613.629,729.794 600.346,737.701 588.974,745.915C559.294,703.262 551.999,648.788 597.361,613.624C603.305,610.291 607.622,607.487 614.175,604.791C652.157,589.162 692.172,585.617 732.589,586.061ZM478.984,376.107C482.48,374.065 484.569,372.885 488.261,371.298C507.991,375.463 511.919,387.033 509.398,406.845C507.043,416.31 496.758,427.176 488.697,431.687C479.331,436.93 460.476,439.416 450.425,436.813C438.705,433.777 430.169,423.665 425.376,413.305C432.715,409.545 437.992,406.074 444.679,401.435C446.061,408.174 448.218,412.827 454.07,416.902C473.284,430.285 499.511,407.618 486.73,387.469C484.807,383.379 481.76,379.647 478.984,376.107Z" style="fill:rgb(242,79,24);"/>
        <path d="M588.974,745.915C564.288,762.322 528.58,788.248 506.643,807.569C485.827,789.928 454.666,755.301 449.448,728.187C438.778,769.428 452.417,801.43 483.094,829.202C466.23,843.742 438.971,872.857 424.304,890.398C420.767,887.768 417.295,885.051 413.891,882.25C374.702,849.961 341.316,809.344 335.387,757.044C329.406,704.284 350.935,663.404 383.612,623.87C388.88,623.37 394.338,618.264 398.495,615.198C413.51,604.097 425.025,589.419 430.291,571.365C432.419,564.066 433.014,556.04 435.404,549.099C443.351,551.681 448.124,553.358 455.675,557.223C446.435,537.606 435.02,519.115 416.374,507.167C406.174,500.632 397.91,499.159 386.279,497.358C389.356,494.533 399.728,486.521 400.636,483.494C408.449,480.357 417.649,478.161 425.914,475.258C428.574,477.256 441.512,476.646 445.501,476.644L436.95,471.335C430.205,465.58 425.493,461.43 419.447,454.771C422.342,453.907 426.877,451.2 429.983,449.717C468.448,464.345 502.936,452.523 522.166,415.794C527.001,416.548 533.705,409.793 537.644,406.756C543.364,402.322 549.511,398.465 555.992,395.244C574.067,386.387 598.494,383.054 617.243,390.519C648.637,403.018 664.28,440.831 660.156,472.808C655.384,509.813 627.952,536.656 599.977,558.472C565.428,584.841 527.967,607.399 500.409,642.021C494.455,649.502 488.326,659.483 483.469,667.792C499.744,650.985 526.962,635.751 548.999,627.507C558.867,623.816 569.589,621.002 579.75,618.286C585.402,616.775 590.56,614.664 596.29,613.325L597.361,613.624C551.999,648.788 559.294,703.262 588.974,745.915ZM387.167,745.804C382.583,780.363 384.51,807.5 406.755,836.44C414.231,846.167 425.16,857.298 435.596,863.867L436.258,863.205C432.591,825.968 412.473,796.11 396.05,763.352C394.648,760.555 388.261,746.781 387.167,745.804ZM573.485,340.46C556.762,341.352 540.926,340.348 524.342,340.233C483.109,339.947 454.837,367.656 421.783,387.451C407.604,395.942 387.11,406.495 370.002,402.258C356.62,398.703 356.692,391.608 360.379,380.75C347.749,386.291 333.596,383.899 332.283,368.04C376.578,293.825 435.502,261.828 518.085,243.236C542.704,237.693 571.927,233.185 595.397,225.572C624.433,216.153 656.521,198.588 681.492,181.156C678.286,198.043 673.736,215.624 664.879,230.517C661.725,231.829 647.722,247.226 643.967,250.852C628.947,265.361 614.517,276.573 597.392,288.42C607.741,286.815 615.293,285.684 625.301,282.417C628.299,281.439 638.553,277.103 640.515,276.836C645.246,276.191 654.7,277.232 660.219,276.692C662.727,276.447 672.174,275.249 673.891,276.078C666.73,284.594 657.63,293.282 650.037,301.61C644.735,307.424 637.395,316.602 631.594,321.343C616.655,328.163 603.312,334.468 587,337.589C585.694,337.839 573.891,340.253 573.485,340.46ZM486.73,387.469C486.178,390.019 485.974,392.232 484.132,394.081C482.347,395.907 479.856,396.868 477.307,396.712C472.477,396.413 468.025,392.191 469.07,387.119C470.138,381.936 474.969,378.927 478.984,376.107C481.76,379.647 484.807,383.379 486.73,387.469Z" style="fill:rgb(248,248,246);"/>
        <path d="M720.794,80.376L721.319,81.042C725.981,125.199 731.163,165.334 720.024,209.025C723.92,207.672 729.52,205.018 733.543,203.329L758.602,193.014C749.052,223.482 737.05,255.255 721.472,283.139C714.608,295.426 706.712,306.978 698.757,318.57C733.542,371.869 760.523,421.5 766.123,486.077C768.06,508.413 766.533,541.247 774.318,561.544C794.663,614.583 842.035,658.719 885.153,693.798C838.976,707.32 785.068,723.183 740.951,741.514C703.39,757.263 666.887,775.429 631.673,795.895C608.733,809.363 586.677,824.202 564.282,838.539C559.538,841.577 554.748,844.613 550.102,847.794C528.238,862.957 506.969,878.961 486.344,895.77C465.132,912.932 445.353,928.929 427.585,949.751C404.196,934.37 374.27,908.388 354.873,888.57C342.026,874.682 331.801,862.612 321.526,846.689C277.288,778.132 279.038,699.753 324.22,632.363C328.73,625.65 333.351,619.011 338.083,612.452C346.127,601.341 357.753,587.889 360.719,574.617C362.926,564.744 359.332,556.689 354.234,548.452C347.396,537.402 323.25,518.193 312.044,512.52C304.646,508.775 272.023,503.226 263.271,501.779C216.101,493.985 168.371,489.488 121.314,480.638C150.531,435.724 173.087,418.198 220.508,394.511C241.346,383.878 262.936,374.784 285.102,367.303C289.25,360.39 292.84,351.85 296.863,344.609C315.271,311.895 339.64,278.537 371.048,256.914C409.165,230.672 456.954,211.858 501.977,201.764C533.065,194.794 565.08,190.346 594.69,178.729C645.025,158.979 688.175,123.022 720.794,80.376ZM705.864,126.985C671.972,160.711 634.556,185.606 589.035,201.171C561.057,210.738 527.624,215.259 498.554,222.235C471.583,228.499 445.448,237.933 420.694,250.34C408.393,256.423 392.256,265.042 381.251,273.21C342.387,302.056 319.069,341.522 298.265,384.037C256.704,394.85 177.414,431.825 154.54,468.962C194.795,475.9 236.68,479.687 277.039,486.442C286.077,487.955 314.613,492.116 321.766,495.389C328.084,498.28 355.244,520.638 360.707,525.979C363.765,528.958 366.537,532.217 368.987,535.713C397.217,575.916 367.723,603.655 344.851,636.037C299.209,700.656 296.263,775.472 341.231,841.663C345.948,848.505 350.988,855.119 356.335,861.481C371.181,878.271 386.063,892.836 403.512,906.984C410.369,912.545 417.701,918.833 425.163,923.597C436.378,912.325 446.394,903.983 458.54,893.673C488.981,867.461 521.262,843.465 555.134,821.87C574.811,809.051 594.568,795.765 614.831,783.878C687.103,741.681 764.507,708.964 845.135,686.533C835.569,677.39 825.992,667.865 817.228,658.062C793.333,631.333 768.62,603.318 756.182,569.121C747.94,546.46 748.816,521.207 747.335,497.555C746.423,483.367 744.461,469.266 741.465,455.368C729.502,400.596 705.777,363.628 674.596,318.836C696.076,290.508 713.208,262.737 723.806,228.772C712.871,230.896 701.95,233.089 691.044,235.354C702.55,204.489 709.813,172.813 707.315,139.656C707.181,137.875 706.676,127.936 705.864,126.985ZM419.447,454.771C414.708,449.566 411.925,444.544 409.133,438.177C416.797,443.473 421.668,446.051 429.983,449.717C426.877,451.2 422.342,453.907 419.447,454.771ZM383.612,623.87C402.241,598.277 413.052,572.408 399.847,541.042C391.847,522.039 378.331,504.738 358.891,496.635C375.36,496.377 384.131,488.666 400.636,483.494C399.728,486.521 389.356,494.533 386.279,497.358C397.91,499.159 406.174,500.632 416.374,507.167C435.02,519.115 446.435,537.606 455.675,557.223C448.124,553.358 443.351,551.681 435.404,549.099C433.014,556.04 432.419,564.066 430.291,571.365C425.025,589.419 413.51,604.097 398.495,615.198C394.338,618.264 388.88,623.37 383.612,623.87ZM425.914,475.258C429.437,474.098 433.625,472.838 436.95,471.335L445.501,476.644C441.512,476.646 428.574,477.256 425.914,475.258ZM664.879,230.517C659.625,242.451 646.988,259.51 639.643,270.83C655.614,271.487 664.907,270.5 680.278,265.942C678.154,269.649 676.502,272.662 673.891,276.078C672.174,275.249 662.727,276.447 660.219,276.692C654.7,277.232 645.246,276.191 640.515,276.836C638.553,277.103 628.299,281.439 625.301,282.417C615.293,285.684 607.741,286.815 597.392,288.42C614.517,276.573 628.947,265.361 643.967,250.852C647.722,247.226 661.725,231.829 664.879,230.517ZM631.594,321.343C684.287,363.03 715.016,428.767 722.77,494.668C724.07,506.27 724.995,517.91 725.554,529.572C726.443,548.099 725.816,568.799 732.589,586.061C692.172,585.617 652.157,589.162 614.175,604.791C607.622,607.487 603.305,610.291 597.361,613.624L596.29,613.325C590.56,614.664 585.402,616.775 579.75,618.286C569.589,621.002 558.867,623.816 548.999,627.507C526.962,635.751 499.744,650.985 483.469,667.792C488.326,659.483 494.455,649.502 500.409,642.021C527.967,607.399 565.428,584.841 599.977,558.472C627.952,536.656 655.384,509.813 660.156,472.808C664.28,440.831 648.637,403.018 617.243,390.519C598.494,383.054 574.067,386.387 555.992,395.244C549.511,398.465 543.364,402.322 537.644,406.756C533.705,409.793 527.001,416.548 522.166,415.794C525.968,406.253 527.845,397.446 528.004,387.219C528.203,374.363 524.85,368.264 516.207,359.446C526.973,355.007 536.421,351.194 547.504,347.59C552.353,346.013 570.796,342.011 573.485,340.46C573.891,340.253 585.694,337.839 587,337.589C603.312,334.468 616.655,328.163 631.594,321.343Z" style="fill:rgb(166,175,183);"/>
        <path d="M262.823,461.346C259.55,461.128 256.23,460.974 252.951,460.795C257.186,460.03 258.628,459.979 262.799,460.025C307.053,459.633 343.729,461.219 385.253,479.696C376.302,478.606 367.176,478.235 358.289,476.976C330.409,473.025 302.579,468.342 274.865,463.355C270.996,462.659 266.719,461.806 262.823,461.346ZM307.354,406.198C325.326,403.18 342.974,408.824 351.006,426.183C347.616,426.454 343.867,426.57 340.442,426.748C362.747,435.787 374.259,445.128 392.779,459.637C367.298,450.528 330.119,446.153 303.376,444.852C275.309,442.067 227.98,446.29 199.895,451.018C225.516,435.617 277.878,409.59 307.354,406.198ZM332.01,416.204C324.025,416.824 315.755,417.733 308.518,421.431C305.695,422.874 300.175,424.829 303.951,428.295C304.079,430.954 304.338,430.593 307.047,431.021C318.739,430.695 325.369,429.654 333.869,420.605C335.259,419.105 336.611,417.571 337.925,416.004L332.01,416.204Z" style="fill:rgb(57,78,96);"/>
    </g>
</svg>
