<svg width="100%" height="100%" viewBox="0 0 746 729" version="1.1" xmlns="http://www.w3.org/2000/svg" xmlns:xlink="http://www.w3.org/1999/xlink" xml:space="preserve" xmlns:serif="http://www.serif.com/" style="fill-rule:evenodd;clip-rule:evenodd;stroke-linejoin:round;stroke-miterlimit:2;">
    <g transform="matrix(1,0,0,1,-139.342,-162.411)">
        <path d="M486.659,178.226L487.533,178.198C524.266,177.373 566.894,181.856 602.362,191.773C624.845,198.094 645.509,207.798 666.628,217.236C693.737,229.351 715.188,242.224 739.224,259.38C758.249,272.959 774.705,282.772 792.063,299.277C773.498,306.438 762.456,310.229 743.554,315.912C803.006,387.705 858.419,517.925 866.119,610.586C845.964,599.915 826.15,587.979 806.284,576.719C801.778,594.028 799.072,606.225 792.681,623.367C773.665,674.368 732.733,723.11 689.033,754.986C674.449,765.625 651.369,777.604 634.976,784.906L635.007,712.755C611.503,737.189 576.106,751.495 545.82,765.566C527.436,774.142 509.118,782.858 490.868,791.715C443.556,815.346 416.277,830.801 378.882,868.611C349.495,842.749 329.428,816.157 315.121,780.668C287.785,712.86 312.843,672.962 338.952,611.896C346.708,593.047 350.552,578.581 348.253,557.95C343.115,511.847 272.05,516.034 251.014,546.187C242.187,558.838 239.975,579.2 242.591,594.551C214.224,581.876 184.361,557.792 169.674,530.267C154.508,501.844 149.855,476.882 159.126,445.577C166.375,421.897 179.822,400.586 198.073,383.848C210.547,372.271 230.39,357.756 245.196,349.756C243.88,345.027 242.545,338.355 242.325,333.435C241.399,312.725 259.583,289.466 273.033,274.917C282.498,264.68 296.838,252.05 307.571,243.228C316.892,235.567 330.808,225.035 341.15,218.751C385.743,191.654 435.032,180.102 486.659,178.226ZM440.528,338.699C446.376,334.118 451.897,331.645 458.808,328.857C485.272,369.535 421.062,413.315 389.378,373.271C392.31,370.613 394.574,368.581 397.725,366.216C405.238,372.643 413.056,377.634 423.386,376.53C437.087,375.064 445.67,369.301 450.896,356.324C441.373,358.797 438.197,347.71 436.396,340.65C437.675,339.982 439.201,339.316 440.528,338.699ZM197.306,530.032C193.682,524.538 191.982,519.093 189.865,513.083C183.741,495.702 181.852,478.872 184.44,460.481C188.088,434.559 200.281,417.434 219.329,400.28C226.883,393.477 232.503,388.36 240.751,382.15C241.882,381.362 243.381,380.495 244.582,379.757C256.724,372.599 276.168,362.191 290.419,366.289C307.064,372.738 317.041,389.102 329.318,400.748C354.333,424.476 381.561,437.519 414.113,448.05C418.34,449.417 428.497,453.519 431.849,454.159C438.051,455.789 443.562,458.187 449.409,459.792C450.944,460.277 451.981,460.407 453.005,461.619L452.838,462.473C449.141,464.86 435.132,466.766 429.682,468.101C421.622,470.075 413.882,472.153 405.86,474.361C392.027,478.168 376.76,486.33 363.636,490.226C344.419,499.311 347.567,498.091 326.935,498.03C321.347,497.988 315.764,498.374 310.235,499.183C293.788,501.523 281.441,505.449 265.507,510.091C273.293,504.858 297.992,491.257 306.617,487.905C336.572,476.267 369.32,467.86 401.044,462.772C411.437,461.105 422.291,459.262 432.804,458.92C434.037,458.88 433.499,459.059 434.678,458.445L433.027,457.769C378.327,448.173 348.592,453.118 295.336,470.04C281.195,474.533 263.859,480.905 251.647,489.202C232.877,501.956 220.969,526.286 217.371,548.325C217.042,550.283 216.795,552.254 216.631,554.233C209.913,546.803 202.09,538.742 197.306,530.032ZM325.836,357.796C304.465,352.955 302.172,341.03 306.196,321.442C297.762,327.19 294.961,332.022 290.22,340.974C281.397,338.734 277.408,338.909 268.766,341.112C269.665,324.786 276.514,308.623 287.507,296.616C306.03,276.385 331.585,256.92 355.267,243.162C390.266,223.063 429.323,211.059 469.57,208.033C484.649,206.869 495.936,207.757 510.342,208.022C553.506,208.817 586.44,218.197 625.93,235.421C647.187,244.692 669.097,254.744 688.64,267.646C697.293,273.358 713.337,282.435 720.805,288.832L721.321,289.45C719.871,290.418 689.891,292.471 686.473,292.558C732.4,347.561 769.438,409.412 796.242,475.865C803.515,493.425 812.056,515.524 817.341,533.823C803.283,520.67 788.658,508.136 773.507,496.259C766.979,491.127 759.045,484.798 752.197,480.3C761.831,550.107 750.295,623.829 706.915,680.967C698.12,692.551 690.469,700.597 679.997,710.613C680.07,678.497 671.877,639.04 652.611,612.854C632.956,639.412 610.859,668.377 584.56,688.759C522.427,736.913 444.524,758.128 388.375,815.365C376.188,782.021 378.89,750.652 384.602,716.299C386.598,704.296 389.853,688.799 394.093,677.382C373.634,705.527 357.027,731.081 348.449,765.088C325.539,702.966 361.724,650.86 381.402,594.34C386.027,581.056 390.375,565.459 391.161,551.43C400.474,561.025 408.783,571.547 415.956,582.832C417.18,570.381 416.506,558.461 411.576,546.78C440.734,564.95 457.285,578.23 478.342,605.137C473.097,565.107 449.917,528.08 418.194,503.514L417.976,503.348C442.473,489.47 480.034,482.524 508.135,484.481C496.862,472.43 482.603,458.086 468.783,448.97C455.582,440.263 436.534,433.611 422.012,426.68C406.938,419.485 395.436,412.086 381.396,403.189C399.99,407.559 423.231,410.267 441.376,402.882C479.808,387.241 507.883,357.784 490.969,314.634C506.761,308.487 533.889,300.385 550.743,301.03C563.943,300.551 574.346,300.58 587.399,303.092C579.214,298.794 571.743,295.648 563.17,292.228C554.795,290.279 546.817,288.031 538.161,286.826C504.14,282.089 471.369,288.063 442.048,306.271C421.554,318.998 402.218,335.57 381.954,347.938C368.202,356.332 341.96,359.694 325.836,357.796Z" style="fill:rgb(0,31,65);"  data-color="color-1"/>
        <path d="M490.576,162.72C514.794,161.39 545.929,164.549 569.805,168.539C606.756,174.229 639.974,187.377 673.593,202.946C704.16,217.103 728.941,231.691 755.96,251.666C777.453,267.556 801.447,282.907 817.087,305.403C802.181,311.035 785.58,318.557 770.476,324.696C773.282,328.438 776.051,332.296 778.683,336.157C809.928,381.193 831.178,428.887 850.326,479.873C870.254,532.934 878.404,581.925 885.141,637.736C879.265,635.079 869.263,629.36 863.275,626.212L816.247,601.333C801.353,644.254 791.859,668.439 763.069,704.075C722.922,753.77 678.061,786.921 617.807,808.583C618.356,801.39 619.53,793.782 619.72,786.552C620.082,772.741 619.967,758.708 619.972,744.884C597.973,759.601 569.683,772.332 545.442,783.392C523.427,793.416 501.545,803.73 479.802,814.329C449.431,830.631 422.86,846.062 398.01,870.598C391.166,877.356 385.31,882.851 379.955,891.095C349.804,864.494 328.708,842.387 310.091,806.571C287.711,763.516 282.691,722.522 295.911,675.564C300.25,660.152 307.858,645.702 313.891,630.927C322.581,609.48 336.705,584.546 333.58,560.842C329.363,528.843 276.216,534.932 262.618,556.016C251.601,573.097 257.262,596.302 260.864,614.723C258.772,614.562 255.891,614.403 253.882,613.921C186.63,597.782 127.014,524.167 141.545,453.54C152.245,401.535 186.379,369.44 228.017,341.351C223.719,310.744 242.045,285.871 261.648,264.625C275.478,249.563 290.661,235.801 307.005,223.512C363.869,180.12 420.077,165.547 490.576,162.72ZM486.659,178.226C435.032,180.102 385.743,191.654 341.15,218.751C330.808,225.035 316.892,235.567 307.571,243.228C296.838,252.05 282.498,264.68 273.033,274.917C259.583,289.466 241.399,312.725 242.325,333.435C242.545,338.355 243.88,345.027 245.196,349.756C230.39,357.756 210.547,372.271 198.073,383.848C179.822,400.586 166.375,421.897 159.126,445.577C149.855,476.882 154.508,501.844 169.674,530.267C184.361,557.792 214.224,581.876 242.591,594.551C239.975,579.2 242.187,558.838 251.014,546.187C272.05,516.034 343.115,511.847 348.253,557.95C350.552,578.581 346.708,593.047 338.952,611.896C312.843,672.962 287.785,712.86 315.121,780.668C329.428,816.157 349.495,842.749 378.882,868.611C416.277,830.801 443.556,815.346 490.868,791.715C509.118,782.858 527.436,774.142 545.82,765.566C576.106,751.495 611.503,737.189 635.007,712.755L634.976,784.906C651.369,777.604 674.449,765.625 689.033,754.986C732.733,723.11 773.665,674.368 792.681,623.367C799.072,606.225 801.778,594.028 806.284,576.719C826.15,587.979 845.964,599.915 866.119,610.586C858.419,517.925 803.006,387.705 743.554,315.912C762.456,310.229 773.498,306.438 792.063,299.277C774.705,282.772 758.249,272.959 739.224,259.38C715.188,242.224 693.737,229.351 666.628,217.236C645.509,207.798 624.845,198.094 602.362,191.773C566.894,181.856 524.266,177.373 487.533,178.198L486.659,178.226ZM720.805,288.832L721.321,289.45C719.871,290.418 689.891,292.471 686.473,292.558C732.4,347.561 769.438,409.412 796.242,475.865C803.515,493.425 812.056,515.524 817.341,533.823C803.283,520.67 788.658,508.136 773.507,496.259C766.979,491.127 759.045,484.798 752.197,480.3C761.831,550.107 750.295,623.829 706.915,680.967C698.12,692.551 690.469,700.597 679.997,710.613C680.07,678.497 671.877,639.04 652.611,612.854C632.956,639.412 610.859,668.377 584.56,688.759C522.427,736.913 444.524,758.128 388.375,815.365C376.188,782.021 378.89,750.652 384.602,716.299C386.598,704.296 389.853,688.799 394.093,677.382C373.634,705.527 357.027,731.081 348.449,765.088C325.539,702.966 361.724,650.86 381.402,594.34C386.027,581.056 390.375,565.459 391.161,551.43C400.474,561.025 408.783,571.547 415.956,582.832C417.18,570.381 416.506,558.461 411.576,546.78C440.734,564.95 457.285,578.23 478.342,605.137C473.097,565.107 449.917,528.08 418.194,503.514L417.976,503.348C442.473,489.47 480.034,482.524 508.135,484.481C496.862,472.43 482.603,458.086 468.783,448.97C455.582,440.263 436.534,433.611 422.012,426.68C406.938,419.485 395.436,412.086 381.396,403.189C399.99,407.559 423.231,410.267 441.376,402.882C479.808,387.241 507.883,357.784 490.969,314.634C506.761,308.487 533.889,300.385 550.743,301.03C548.501,301.801 545.652,301.33 544.862,302.438C545.485,303.077 550.817,303.103 552.27,303.25C564.102,304.448 574.893,305.666 586.203,309.655C581.362,310.887 573.411,312.059 568.028,313.107C551.447,316.332 519.694,326.84 508.042,338.377C508.075,356.867 506.443,373.428 493.353,387.665C479.939,402.254 456.247,411.253 436.79,412.813C426.906,413.605 416.001,412.812 405.846,413.305C436.758,427.112 466.41,431.895 493.078,454.559C513.936,472.286 526.282,489.654 538.216,513.999C520.267,509.562 505.818,507.69 487.272,509.381C501.402,549.84 498.847,590.991 482.917,630.433C474.36,616.719 464.775,606.403 451.156,597.724C421.721,654.282 403.41,715.954 402.199,779.898C408.757,773.725 417.161,767.511 424.357,762.084C461.485,734.083 502.453,711.556 538.725,682.366C585.794,644.487 620.01,596.017 637.755,538.137C665.487,568.364 681.593,601.854 691.26,641.348C702.006,623.793 710.832,592.842 714.485,572.635C725.121,513.817 711.794,436.56 677.003,387.275C693.71,394.645 709.616,404.494 725.109,414.086C738.983,422.631 752.753,431.345 766.414,440.227C756.743,423.173 748.546,405.1 738.256,387.741C716.22,350.568 679.846,300.282 641.03,279.137C657.626,281.704 675.918,282.208 692.666,284.893C701.262,286.272 708.485,286.321 717.232,288.488L715.937,288.717C717.859,289.772 718.707,289.391 720.805,288.832ZM563.17,292.228C554.795,290.279 546.817,288.031 538.161,286.826C504.14,282.089 471.369,288.063 442.048,306.271C421.554,318.998 402.218,335.57 381.954,347.938C368.202,356.332 341.96,359.694 325.836,357.796C328.054,356.081 339.407,355.417 343.329,354.537C366.909,349.241 383.869,336.142 401.971,320.841C435.492,292.508 479.616,262.78 525.757,274.89C531.495,276.396 560.918,288.079 563.17,292.228Z" style="fill:rgb(171,173,176);"/>
        <path d="M197.306,530.032C193.682,524.538 191.982,519.093 189.865,513.083C183.741,495.702 181.852,478.872 184.44,460.481C188.088,434.559 200.281,417.434 219.329,400.28C226.883,393.477 232.503,388.36 240.751,382.15C250.142,386.862 255.858,393.012 264.518,397.814C229.561,421.941 207.26,437.667 198.808,482.964C197.635,489.078 196.983,495.281 196.86,501.506C196.797,505.58 196.916,509.654 197.217,513.717C197.534,517.545 199.289,526.983 197.306,530.032ZM244.582,379.757C256.724,372.599 276.168,362.191 290.419,366.289C289.434,368.564 289.441,370.11 290.582,372.339C295.074,381.116 301.462,388.504 306.517,397.203C299.925,393.131 284.356,384.446 276.984,383.706C267.228,382.727 254.652,384.747 244.582,379.757Z" style="fill:rgb(244,205,78);"/>
        <path d="M281.94,392.635C292.875,393.104 305.97,406.706 314.82,413.836C310.619,412.45 307.339,411.23 303.25,409.54C295.166,406.389 287.08,402.407 282.757,412.439C279.1,409.253 274.757,406.227 273.466,401.293C271.935,395.446 277.331,393.388 281.94,392.635Z" style="fill:rgb(0,31,65);"  data-color="color-1"/>
        <path d="M431.849,454.159C438.051,455.789 443.562,458.187 449.409,459.792L448.941,459.905C442.933,461.316 436.087,461.99 429.631,463.443C409.969,467.866 390.489,474.325 372.7,483.896C370.8,484.918 364.716,488.17 363.696,489.631L363.636,490.226C344.419,499.311 347.567,498.091 326.935,498.03C321.347,497.988 315.764,498.374 310.235,499.183C293.788,501.523 281.441,505.449 265.507,510.091C273.293,504.858 297.992,491.257 306.617,487.905C336.572,476.267 369.32,467.86 401.044,462.772C411.437,461.105 422.291,459.262 432.804,458.92C434.037,458.88 433.499,459.059 434.678,458.445L433.027,457.769C432.577,456.622 432.218,455.344 431.849,454.159Z" style="fill:rgb(137,87,27);"/>
        <path d="M240.751,382.15C241.882,381.362 243.381,380.495 244.582,379.757C254.652,384.747 267.228,382.727 276.984,383.706C284.356,384.446 299.925,393.131 306.517,397.203C301.462,388.504 295.074,381.116 290.582,372.339C289.441,370.11 289.434,368.564 290.419,366.289C307.064,372.738 317.041,389.102 329.318,400.748C354.333,424.476 381.561,437.519 414.113,448.05C418.34,449.417 428.497,453.519 431.849,454.159C432.218,455.344 432.577,456.622 433.027,457.769C378.327,448.173 348.592,453.118 295.336,470.04C281.195,474.533 263.859,480.905 251.647,489.202C232.877,501.956 220.969,526.286 217.371,548.325C217.042,550.283 216.795,552.254 216.631,554.233C209.913,546.803 202.09,538.742 197.306,530.032C199.289,526.983 197.534,517.545 197.217,513.717C196.916,509.654 196.797,505.58 196.86,501.506C196.983,495.281 197.635,489.078 198.808,482.964C207.26,437.667 229.561,421.941 264.518,397.814C255.858,393.012 250.142,386.862 240.751,382.15ZM281.94,392.635C277.331,393.388 271.935,395.446 273.466,401.293C274.757,406.227 279.1,409.253 282.757,412.439C287.08,402.407 295.166,406.389 303.25,409.54C307.339,411.23 310.619,412.45 314.82,413.836C305.97,406.706 292.875,393.104 281.94,392.635ZM449.409,459.792C450.944,460.277 451.981,460.407 453.005,461.619L452.838,462.473C449.141,464.86 435.132,466.766 429.682,468.101C421.622,470.075 413.882,472.153 405.86,474.361C392.027,478.168 376.76,486.33 363.636,490.226L363.696,489.631C364.716,488.17 370.8,484.918 372.7,483.896C390.489,474.325 409.969,467.866 429.631,463.443C436.087,461.99 442.933,461.316 448.941,459.905L449.409,459.792Z" style="fill:rgb(230,156,49);"/>
        <path d="M440.528,338.699C446.376,334.118 451.897,331.645 458.808,328.857C485.272,369.535 421.062,413.315 389.378,373.271C392.31,370.613 394.574,368.581 397.725,366.216C405.238,372.643 413.056,377.634 423.386,376.53C437.087,375.064 445.67,369.301 450.896,356.324C456.394,347.927 453.79,344.092 446.414,337.976L440.528,338.699Z" style="fill:rgb(240,86,33);"  data-color="color-2"/>
        <path d="M325.836,357.796C304.465,352.955 302.172,341.03 306.196,321.442C297.762,327.19 294.961,332.022 290.22,340.974C281.397,338.734 277.408,338.909 268.766,341.112C269.665,324.786 276.514,308.623 287.507,296.616C306.03,276.385 331.585,256.92 355.267,243.162C390.266,223.063 429.323,211.059 469.57,208.033C484.649,206.869 495.936,207.757 510.342,208.022C553.506,208.817 586.44,218.197 625.93,235.421C647.187,244.692 669.097,254.744 688.64,267.646C697.293,273.358 713.337,282.435 720.805,288.832C718.707,289.391 717.859,289.772 715.937,288.717L717.232,288.488C708.485,286.321 701.262,286.272 692.666,284.893C675.918,282.208 657.626,281.704 641.03,279.137C679.846,300.282 716.22,350.568 738.256,387.741C748.546,405.1 756.743,423.173 766.414,440.227C752.753,431.345 738.983,422.631 725.109,414.086C709.616,404.494 693.71,394.645 677.003,387.275C711.794,436.56 725.121,513.817 714.485,572.635C710.832,592.842 702.006,623.793 691.26,641.348C681.593,601.854 665.487,568.364 637.755,538.137C620.01,596.017 585.794,644.487 538.725,682.366C502.453,711.556 461.485,734.083 424.357,762.084C417.161,767.511 408.757,773.725 402.199,779.898C403.41,715.954 421.721,654.282 451.156,597.724C464.775,606.403 474.36,616.719 482.917,630.433C498.847,590.991 501.402,549.84 487.272,509.381C505.818,507.69 520.267,509.562 538.216,513.999C526.282,489.654 513.936,472.286 493.078,454.559C466.41,431.895 436.758,427.112 405.846,413.305C416.001,412.812 426.906,413.605 436.79,412.813C456.247,411.253 479.939,402.254 493.353,387.665C506.443,373.428 508.075,356.867 508.042,338.377C519.694,326.84 551.447,316.332 568.028,313.107C573.411,312.059 581.362,310.887 586.203,309.655C574.893,305.666 564.102,304.448 552.27,303.25C550.817,303.103 545.485,303.077 544.862,302.438C545.652,301.33 548.501,301.801 550.743,301.03C563.943,300.551 574.346,300.58 587.399,303.092C579.214,298.794 571.743,295.648 563.17,292.228C560.918,288.079 531.495,276.396 525.757,274.89C479.616,262.78 435.492,292.508 401.971,320.841C383.869,336.142 366.909,349.241 343.329,354.537C339.407,355.417 328.054,356.081 325.836,357.796ZM450.896,356.324C441.373,358.797 438.197,347.71 436.396,340.65C437.675,339.982 439.201,339.316 440.528,338.699L446.414,337.976C453.79,344.092 456.394,347.927 450.896,356.324Z" style="fill:rgb(246,245,239);"/>
    </g>
</svg>
