<svg width="100%" height="100%" viewBox="0 0 882 836" version="1.1" xmlns="http://www.w3.org/2000/svg" xmlns:xlink="http://www.w3.org/1999/xlink" xml:space="preserve" xmlns:serif="http://www.serif.com/" style="fill-rule:evenodd;clip-rule:evenodd;stroke-linejoin:round;stroke-miterlimit:2;">
    <g transform="matrix(1,0,0,1,-74.1538,-98.3738)">
        <path d="M180.201,98.723C293.144,96.179 405.97,107.549 516.135,132.577C608.942,153.109 698.715,185.549 776.482,241.328C811.561,266.07 844.53,297.098 867.777,333.515C884.293,359.388 897.172,388.319 890.234,419.522C924.447,458.974 950.028,482.532 955.097,538.869C958.857,580.665 945.804,619.723 918.844,651.79C895.374,679.705 859.795,705.927 822.567,709.229C830.207,685.356 835.017,663.229 831.608,638.071C806.019,636.35 780.049,633.533 754.499,631.155C736.218,629.454 717.07,626.587 698.751,627.052C698.501,627.356 698.256,627.665 698.017,627.978C690.025,638.539 692.113,658.994 694.015,671.378C701.821,722.207 755.005,787.219 792.025,821.04C806.786,834.527 822.532,846.015 838.616,857.812C810.95,868.992 785.849,877.485 756.374,883.187C717.192,890.572 654.513,889.62 615.103,881.131C629.316,900.031 637.385,913.619 649.025,934.102C646.052,934 643.085,933.561 640.138,933.151C609.594,928.962 579.241,923.483 549.16,916.729C342.171,868.611 104.39,734.288 139.405,486.721C122.66,496.343 107.103,507.979 89.75,516.36C84.482,518.905 79.226,521.531 74.154,524.441C88.745,446.342 128.816,361.834 182.552,303.076C174.21,302.899 160.171,301.225 151.295,300.492C126.641,298.653 102.029,296.274 77.479,293.358C86.639,283.213 99.002,272.936 109.444,263.953C146.248,232.294 181.046,207.069 223.688,183.703C217.629,179.777 211.031,174.397 205.042,170.036C182.593,153.925 161.005,136.649 140.365,118.278C135.578,114.021 126.199,106.103 122.335,101.457C127.877,100.829 135.854,100.653 141.583,100.352C154.446,99.593 167.321,99.05 180.201,98.723Z" style="fill:white;fill-rule:nonzero;"/>
        <path d="M217.199,120.723C223.117,120.309 231.985,120.586 238.036,120.684C250.437,120.854 262.834,121.239 275.222,121.838C341.319,125.123 407.075,133.384 471.931,146.55C532.323,158.489 592.362,172.458 649.283,196.37C673.125,206.481 696.314,218.064 718.718,231.053C769.051,259.678 818.536,295.869 849.368,345.868C858.804,361.17 867.822,377.032 869.667,395.297C870.794,406.448 868.436,416.417 867.903,427.415C886.052,448.551 904.161,463.221 918.229,488.596C934.175,517.36 938.761,552.577 930.531,584.225C919.578,626.344 888.843,657.345 852.299,678.353C857.354,658.019 854.548,638.571 850.707,618.315L752.623,609.087C741.644,607.929 730.658,606.846 719.664,605.838C705.768,604.578 690.677,602.752 680.85,615.602C669.292,630.716 670.77,654.793 672.488,672.799C674.028,688.94 680.889,704.613 687.717,719.172C711.702,769.17 751.733,817.025 795.044,851.459C786.005,853.693 777.427,856.64 768.005,858.754C747.435,863.368 728.084,865.363 707.125,866.342C663.393,867.816 611.272,861.142 569.573,847.607C578.899,867.387 590.388,887.689 603.858,904.913C588.101,901.906 572.587,899.249 556.892,895.697C503.577,883.628 450.851,866.664 401.33,843.389C380.567,833.631 359.611,823.674 339.815,812.098C269.795,770.22 206.723,710.115 176.28,633.079C158.253,587.597 153.799,540.015 161.38,491.856C163.987,474.911 167.3,458.269 174.162,442.466C153.057,450.492 130.637,463.473 111.732,476.034C128.765,419.555 165.66,352.197 207.618,310.334C217.018,300.955 225.17,294.698 235.686,286.866C223.2,285.052 211.018,282.274 198.423,281.075C177.107,279.045 155.115,276.201 133.717,275.906C157.356,253.103 187.171,232.948 214.888,215.447C231.276,205.099 248.974,197.561 266.175,188.755C237.237,166.739 208.619,144.307 180.329,121.464C192.23,120.65 205.054,121.195 217.199,120.723ZM605.467,466.155C611.786,472.065 618.853,478.461 626.388,482.779C641.647,491.522 673.216,498.151 690.837,499.27C671.832,509.581 660.875,511.505 641.186,518.259C611.433,528.466 587.487,539.812 564.373,561.322C582.636,558.075 604.55,561.07 621.771,567.853C595.673,586.677 581.836,607.325 575.031,638.471C587.987,624.594 604.072,614.431 621.132,606.351C619.383,620.555 617.553,636.582 619.413,650.867C624.994,693.72 652.605,742.878 678.6,776.201C688.282,788.652 698.647,800.555 709.649,811.856C715.358,817.771 723.649,825.227 728.759,831.189C712.238,829.324 694.992,827.999 678.733,824.873C661.938,821.614 645.415,817.081 629.308,811.314C582.494,795.077 542.77,772.172 510.949,732.967C498.386,717.489 481.013,688.876 478.54,669.247C475.786,680.217 474.844,694.334 474.966,705.706C475.468,752.653 486.891,787.777 510.166,827.663C499.164,820.512 488.483,813.914 478.093,805.924C435.799,773.4 407.782,729.582 396.905,677.17C385.593,622.661 393.932,559.707 424.622,512.453C428.713,506.154 433.184,500.246 438.095,494.56C440.751,491.485 444.387,488.116 446.853,485.096C455.931,475.155 464.419,470.127 476.74,464.373C508.278,449.583 544.071,446.576 577.635,455.896C587.48,458.676 595.929,462.701 605.467,466.155ZM616.58,364.201C624.216,365.941 646.914,377.27 653.55,381.27C637.079,404.196 642.208,434.566 669.924,445.146C690.621,453.048 714.46,442.82 721.907,421.85L731.885,427.227C730.778,429.708 729.468,432.28 728.272,434.735C721.073,447.26 710.61,457.193 696.879,462.162C680.273,468.187 661.955,467.369 645.952,459.888C611.124,443.536 600.828,397.464 616.58,364.201ZM698.357,407.714C700.23,408.573 707.717,415.185 709.225,416.99C708.79,418.448 708.212,418.437 706.687,419.587C697.333,423.654 693.816,416.048 698.357,407.714Z" style="fill:rgb(0,33,74);"  data-color="color-2"/>
        <path d="M446.853,485.096C443.36,486.807 435.955,492.392 432.485,494.843C412.234,509.15 396.614,524.172 379.831,542.09C338.332,586.396 319.791,635.797 319.062,696.296C318.919,708.235 320.786,716.49 321.248,727.648C306.58,700.507 293.663,682.426 285.656,651.755C276.455,616.509 272.828,585.033 279.893,548.86C283.709,529.321 287.365,511.873 296.634,493.859C303.799,479.021 313.535,465.054 322.595,451.372C323.228,450.416 322.651,449.482 322.15,448.654L321.172,448.47C296.668,464.266 279.278,477.627 259.324,499.197C240.666,519.367 219.923,538.739 207.937,564.016C207.107,552.803 207.71,543.365 208.939,532.326C215.777,470.929 245.806,413.899 291.596,372.584C313.361,352.947 328.58,346.632 355,336.472C340.835,336.931 327.15,336.479 312.97,338.286C281.923,342.242 252.703,346.861 223.198,357.542C228.035,353.684 234.726,346.714 239.467,342.239C246.398,335.678 253.786,329.618 261.576,324.105C300.332,296.264 350.395,283.878 397.734,287.335C414.541,288.562 429.096,291.67 445.641,294.375C417.431,278.033 386.307,264.053 357.084,249.594C342.017,242.14 326.381,235.142 312.054,226.358C342.49,232.788 429.478,236.089 458.222,227.398C402.692,211.197 348.252,193.603 295.959,168.607C282.125,161.994 268.157,154.231 254.775,146.73C264.882,147.785 274.278,147.556 284.337,148.206C306.553,149.63 328.725,151.67 350.827,154.323C409.805,161.747 468.289,172.674 525.969,187.048C535.409,189.419 544.969,191.751 554.35,194.419C648.645,221.226 748.161,269.669 810.991,347.054C825.941,365.468 860.955,420.471 814.304,422.966C754.757,426.15 711.468,369.953 666.956,338.782C613.621,300.052 570.249,280.583 506.772,269.326C511.051,271.305 515.39,273.219 519.666,275.122C544.21,286.048 566.061,301.021 588.131,316.118C593.674,319.909 599.011,323.911 604.862,327.337C603.357,327.112 601.822,326.778 600.313,326.634C557.637,322.584 514.085,327.732 479.38,355.12C515.063,356.656 541.022,362.704 573.003,377.785C573.653,398.871 582.175,429.232 592.42,447.734C595.829,453.893 601.235,460.417 605.467,466.155C595.929,462.701 587.48,458.676 577.635,455.896C544.071,446.576 508.278,449.583 476.74,464.373C464.419,470.127 455.931,475.155 446.853,485.096Z" style="fill:rgb(200,3,36);"  data-color="color-1"/>
        <path d="M839.503,446.927C843.485,448.843 852.26,456.336 856.004,459.495C886.12,484.903 906.697,516.024 906.097,556.781C905.621,589.028 893.695,607.672 878.19,634.449C877.993,625.223 876.712,616.053 874.373,607.126C868.273,584.363 857.236,575.664 837.749,564.407C809.144,548.799 767.545,538.034 735.81,530.308C725.486,527.794 710.211,526.321 701.041,523.402C716.045,510.455 739.985,497.398 757.295,488.104C784.198,473.659 812.071,460.395 839.503,446.927ZM824.124,474.477C817.923,485.168 813.389,490.573 804.219,498.851C814.805,496.31 827.316,495.576 838.117,497.131C845.454,498.376 848.302,499.36 855.265,502.173C847.26,493.007 834.697,480.408 824.124,474.477ZM679.825,548.214C686.849,547.203 703.832,548.301 711.124,548.865C760.698,552.694 793.619,568.817 836.111,592.194C827.862,590.488 819.537,588.584 811.301,586.771C789.085,582.851 765.632,577.39 743.339,572.955C712.064,566.732 680.993,560.486 650.425,551.349C658.628,549.701 671.451,548.735 679.825,548.214Z" style="fill:rgb(245,166,17);"  data-color="color-3"/>
    </g>
</svg>
