<svg width="100%" height="100%" viewBox="0 0 872 752" version="1.1" xmlns="http://www.w3.org/2000/svg" xmlns:xlink="http://www.w3.org/1999/xlink" xml:space="preserve" xmlns:serif="http://www.serif.com/" style="fill-rule:evenodd;clip-rule:evenodd;stroke-linejoin:round;stroke-miterlimit:2;">
    <g transform="matrix(1,0,0,1,-82.9345,-135.013)">
        <path d="M479.861,135.225L481.318,135.18C588.219,132.074 709.801,172.444 787.648,246.759C815.161,273.023 846.053,309.908 847.129,349.588C886.846,377.922 922.678,411.072 941.087,457.301C959.13,502.611 958.94,546.599 939.989,591.591C916.828,646.577 863.655,680.811 809.974,702.159C816.2,679.703 833.668,638.199 817.595,616.889C796.954,589.525 734.01,585.269 706.445,604.297C679.063,623.199 686.006,666.603 703.52,689.897C731.247,728.417 774.91,744.992 820.026,752.777C794.829,777.192 759.515,794.632 725.486,802.86C716.245,805.094 705.358,806.189 695.943,807.145C717.085,833.987 739.813,856.88 761.444,882.309C702.697,890.769 633.695,886.608 575.344,875.892C542.508,869.209 509.817,859.977 478.928,846.936C462.639,840.059 447.814,832.405 432.1,824.371C442.602,844.122 454.301,861.664 466.685,880.173C388.479,853.78 316.863,813.962 260.068,752.724C250.285,742.175 242.369,731.445 233.966,719.794C233.974,742.662 233.973,773.642 237.028,796.46C228.128,788.026 219.748,779.06 211.932,769.613C173.666,723.234 147.945,669.874 139.219,610.158C137.264,596.782 135.712,578.124 136.992,564.667C121.139,579.273 97.076,605.71 85.084,623.595C84.592,620.742 84.257,616.906 84.029,613.956C75.204,499.975 120.49,391.789 193.159,305.974C164.262,306.041 135.393,307.757 106.692,311.114C115.194,303.649 124.41,294.162 132.881,286.256C145.82,274.256 159.209,262.751 173.018,251.764C248.435,191.847 339.898,149.76 435.951,138.453C450.734,136.713 465.014,135.819 479.861,135.225Z" style="fill:rgb(254,254,253);fill-rule:nonzero;"/>
        <path d="M487.342,151.731C488.169,151.694 488.997,151.67 489.825,151.66C602.585,150.95 727.439,197.076 801.256,284.661C820.371,307.341 830.899,328.198 831.114,358.28C864.182,380.552 897.591,409.134 917.349,444.369C938.59,481.377 943.976,525.397 932.287,566.435C917.396,618.727 881.037,647.793 835.679,672.852C839.928,651.541 842.967,632.712 833.337,612.241C826.8,597.813 809.891,588.533 795.353,583.726C755.533,570.559 691.439,572.262 675.824,619.906C668.885,641.076 672.85,666.938 683.09,686.513C698.127,715.255 725.461,737.392 754.815,750.508C764.512,754.836 773.495,757.719 783.586,760.942C741.881,787.832 710.356,791.801 662.118,792.204C674.524,805.89 686.641,820.8 698.54,834.962L728.419,869.857C712.153,870.361 698.898,871.191 682.381,870.942C626.906,870.057 571.845,861.217 518.881,844.694C471.496,829.809 431.797,808.092 391.89,778.897C403.984,801.862 414.547,826.812 428.666,849.175C354.904,816.316 286.204,771.779 241.533,702.578C233.112,689.534 226.732,676.106 220.126,662.127C217.814,692.118 217.289,722.22 218.554,752.273C179.207,704.43 153.057,635.889 152.297,573.909C152.235,557.772 153.573,541.66 156.296,525.754C135.65,542.58 116.473,561.13 98.97,581.205C98.98,575.46 99.172,569.717 99.546,563.985C104.005,492.874 129.316,426.888 167.59,367.228C187.696,335.887 205.852,314.214 233.501,289.862C211.097,287.504 174.207,290.184 151.019,291.124C235.675,215.148 342.651,161.696 456.758,153.026C467.064,152.243 477.027,151.935 487.342,151.731ZM627.602,353.618C639.012,354.015 648.771,367.604 634.745,373.178C619.002,374.823 614.84,356.996 627.602,353.618ZM474.418,190.216C485.539,189.496 500.774,190.182 511.91,190.83C581.996,194.573 649.781,217.116 708.149,256.092C728.615,269.955 783.673,313.981 787.921,338.522C789.011,344.824 787.919,351.072 784.177,356.329C777.048,366.344 763.477,372.395 751.689,374.436C702.491,382.954 651.629,331.474 614.453,305.612C555.897,264.876 507.953,246.564 436.374,259.456C468.586,267.557 483.158,273.723 513.114,288.962C484.931,289.289 456.864,292.617 429.386,298.892C349.554,318.102 276.748,358.577 216.18,413.577C202.469,426.028 185.866,441.497 174.14,455.887C174.352,455.304 174.575,454.723 174.807,454.147C195.528,402.049 228.076,355.481 269.882,318.12C305.524,285.859 338.145,268.185 382.027,249.368C366.093,245.455 341.113,245.021 324.757,244.888C310.531,244.772 294.211,244.803 280.004,245.54C294.758,236.623 311.195,229.081 327.092,222.44C376.146,201.944 421.692,192.883 474.418,190.216ZM208.969,568.074C215.401,503.432 243.327,442.305 294.406,400.891C358.078,349.266 464.917,333.668 526.578,396.917C533.874,404.401 540.252,412.737 547.154,420.574C567.707,443.517 588.42,453.056 618.633,456.235C605.694,464.597 590.936,472.176 577.397,479.628C537.168,501.77 504.849,534.064 487.594,577.276C510.529,558.936 543.331,549.037 572.648,548.973C554.344,559.965 539.502,570.22 526.998,587.693C483.515,648.458 528.041,722.939 575.454,765.893C581.205,771.103 589.817,778.193 594.856,783.73C596.203,784.626 602.212,790.806 603.862,792.459C613.88,802.498 625.257,813.398 633.475,825.038C580.492,819.436 528.396,807.846 480.767,783.332C421.57,752.863 372.851,706.558 351.896,642.344C337.071,677.443 334.629,710.26 342.964,747.295C313.445,728.809 283.226,692.062 270.502,659.512C257.885,626.289 255.679,590.013 264.177,555.506C267.621,541.907 271.255,533.061 276.85,520.316C246.123,537.597 225.838,561.86 207.82,591.615C207.781,584.406 208.051,575.195 208.969,568.074ZM819.672,426.83C845.078,438.89 864.797,460.358 874.66,486.695C876.57,491.931 877.575,496.199 878.793,501.606L878.521,501.145C875.195,495.388 873.045,489.299 869.328,483.148C855.463,460.201 837.678,445.025 813.959,433.213C816.563,430.705 817.57,429.794 819.672,426.83Z" style="fill:rgb(0,54,0);"  data-color="color-1"/>
        <path d="M208.969,568.074L209.185,567.726C211.22,564.402 213.25,560.006 215.213,556.448C218.81,549.925 222.769,543.61 227.072,537.53C254.287,499.01 296.528,469.256 340.357,452.61C308.345,494.284 284.192,537.686 283.094,591.53C282.355,627.791 291.49,654.02 309.585,684.735C301.474,616.503 353.998,545.398 416.061,521.986C420.96,520.138 426.103,518.559 430.905,516.584C368.787,569.109 372.836,652.32 423.778,710.943C439.849,729.437 453.366,740.137 473.469,754.148C453.831,712.327 445.562,690.426 457.279,642.945C469.105,694.84 508.289,733.704 551.793,761.775C557.76,765.625 590.047,783.351 594.856,783.73C596.203,784.626 602.212,790.806 603.862,792.459C613.88,802.498 625.257,813.398 633.475,825.038C580.492,819.436 528.396,807.846 480.767,783.332C421.57,752.863 372.851,706.558 351.896,642.344C337.071,677.443 334.629,710.26 342.964,747.295C313.445,728.809 283.226,692.062 270.502,659.512C257.885,626.289 255.679,590.013 264.177,555.506C267.621,541.907 271.255,533.061 276.85,520.316C246.123,537.597 225.838,561.86 207.82,591.615C207.781,584.406 208.051,575.195 208.969,568.074ZM600.342,632.907C601.278,635.018 602.703,648.553 603.938,652.915C614.681,690.855 648.769,724.326 682.051,743.631C664.765,740.835 654.422,738.37 638.091,732.64C631.366,729.951 627.498,727.994 621.39,724.123C620.878,737.169 621.644,749.71 622.88,762.667C605.911,746.623 593.059,727.317 587.857,704.349C582.375,679.822 586.867,654.121 600.342,632.907Z" style="fill:rgb(0,65,130);"  data-color="color-3"/>
        <path d="M580.446,318.916C583.016,319.648 597.904,329.71 601.577,331.845C582.381,341.431 574.277,358.929 581.353,379.613C585.067,390.719 593.146,399.832 603.728,404.849C626.74,415.86 653.481,407.298 664.499,383.885C671.217,387.077 676.85,389.856 683.818,392.521C681.759,396.545 680.512,398.583 677.933,402.287C653.375,433.741 614.103,438.497 581.362,416.248C557.938,400.331 546.097,367.987 557.857,341.551C562.569,330.957 570.302,324.144 580.446,318.916ZM804.6,386.375C806.131,386.453 810.576,388.963 812.139,389.814C861.487,416.697 904.962,461.34 905.438,521.094C905.774,563.213 891.423,590.209 862.683,619.672C872.983,562.238 843.531,527.163 791.621,508.292C732.16,486.814 653.59,497.064 594.232,514.991C627.872,494.631 666.695,480.975 699.632,459.369C735.222,436.021 766.81,406.567 804.6,386.375ZM813.959,433.213C837.678,445.025 855.463,460.201 869.328,483.148C873.045,489.299 875.195,495.388 878.521,501.145L878.793,501.606C877.575,496.199 876.57,491.931 874.66,486.695C864.797,460.358 845.078,438.89 819.672,426.83C820.406,419.659 816.889,416.262 809.648,416.023C791.967,415.439 776.135,428.957 765.386,441.643C787.899,443.612 794.47,447.832 813.959,433.213ZM682.072,520.219C682.204,520.206 682.337,520.193 682.47,520.18C720.356,518.858 757.925,523.985 790.833,543.977C800.436,549.812 806.462,554.798 814.883,561.744C799.338,555.799 781.281,550.68 765.291,546.273C736.716,539.311 707.656,534.522 678.358,531.947C658.182,530.167 637.093,529.685 617.328,527.688C641.187,523.419 657.491,521.316 682.072,520.219Z" style="fill:rgb(226,157,14);"  data-color="color-2"/>
    </g>
</svg>
