<?xml version="1.0" encoding="UTF-8" standalone="no"?>
<!DOCTYPE svg PUBLIC "-//W3C//DTD SVG 1.1//EN" "http://www.w3.org/Graphics/SVG/1.1/DTD/svg11.dtd">
<svg width="100%" height="100%" viewBox="0 0 703 789" version="1.1" xmlns="http://www.w3.org/2000/svg" xmlns:xlink="http://www.w3.org/1999/xlink" xml:space="preserve" xmlns:serif="http://www.serif.com/" style="fill-rule:evenodd;clip-rule:evenodd;stroke-linejoin:round;stroke-miterlimit:2;">
    <g transform="matrix(1,0,0,1,-160.616,-125.431)">
        <path d="M185.43,125.431C198.367,134.987 211.698,145.784 224.651,155.044C251.297,174.091 287.673,195.808 318.988,206.012C402.387,142.788 568.739,141.427 662.202,181.281C678.915,188.383 694.773,197.347 709.477,208.003C717.491,206.314 726.779,202.419 734.457,199.432C775.134,183.607 807.873,157.825 842.605,132.323C846.704,146.937 848.651,155.789 849.815,171.119C853.224,216.006 838.015,273.097 808.079,307.25C859.043,393.619 886.913,534.719 835.234,626.449C847.75,649.255 855.724,672.953 858.366,698.888C861.702,732.952 855.746,767.283 841.131,798.232C839.867,800.893 835.354,810.626 834.016,812.266L833.194,811.956C814.11,796.421 804.906,788.747 782.745,777.377C769.567,793.057 754.98,807.497 739.167,820.516C690.017,860.552 617.764,893.901 558.178,914.26C502.736,871.708 434.798,849.617 371.639,819.716C300.253,786.59 232.329,746.463 168.867,699.925C171.004,674.359 177.033,655.291 187.246,632.089C182.018,618.527 177.224,604.803 172.869,590.936C142.108,489.526 173.318,388.767 221.54,298.55C198.102,273.514 181.23,237.421 176.619,203.451C173.311,179.073 175.694,147.753 185.43,125.431Z" style="fill:rgb(199,203,208);fill-rule:nonzero;"/>
        <path d="M195.223,154.752C198.074,156.453 201.797,159.439 204.536,161.456C240.345,187.818 278.565,210.336 321.032,224.228C356.164,195.112 407.293,180.932 452.034,174.794C519.595,165.525 598.375,171.061 661.417,198.939C678.449,206.471 692.442,215.594 707.171,226.651C757.151,212.74 789.45,190.848 831.265,162.435C832.168,169.324 833.081,176.008 833.285,182.965C834.625,228.51 817.678,272.18 787.152,305.544C805.049,333.18 818.892,363.239 828.26,394.804C848.371,460.811 855.786,533.501 829.955,598.99C826.141,608.66 821.778,617.01 816.903,626.173C824.011,639.747 830.489,653.126 835.003,667.813C844.425,698.53 844.657,731.332 835.671,762.18C833.755,768.919 830.376,778.877 827.13,785.016L817.557,777.893C803.244,768.032 793.754,763.086 778.279,755.168C773.133,762.946 763.73,773.532 757.269,780.352C706.028,834.436 630.664,869.67 561.598,894.931C512.208,856.716 443.082,833.36 386.647,806.905C317.222,774.361 248.31,738.018 187.231,691.304C191.736,663.775 194.272,652.748 203.838,626.272C194.111,606.274 186.801,585.189 182.062,563.462C173.553,524.427 174.86,481.986 183.378,443.105C194.592,391.916 214.264,340.531 242.606,296.367C237.211,291.133 230.57,283.592 226.181,277.445C197.346,237.054 187.929,203.67 195.223,154.752ZM596.671,495.818C597.973,489.513 597.364,484.575 599.364,476.742C606.791,483.988 611.058,486.119 619.105,491.641C618.815,493.008 618.989,493.839 620.015,495.151C629.588,507.39 646.648,516.512 660.324,522.221C640.068,520.6 627.105,515.804 609.581,504.851C606.871,503.158 598.557,496.656 596.671,495.818ZM547.094,496.871C547.643,496.974 548.19,497.083 548.736,497.199C561.329,499.846 565.456,516.319 567.101,527.262C570.152,547.564 566.009,567.235 561.497,586.894C561.34,587.633 561.111,587.975 560.788,588.676C560.477,587.81 560.445,588.015 560.476,587.245C561.827,553.782 558.946,534.763 543.483,504.894C544.211,501.27 544.889,499.799 547.094,496.871ZM603.852,561.876C621.621,567.943 637.11,566.241 655.072,561.628C650.293,568.695 622.418,578.88 614.055,583.024C598.839,590.564 586.979,601.642 575.255,613.732C571.563,617.538 568.317,622.145 564.647,625.745L563.327,625.344C573.376,605.915 589.956,578.105 603.852,561.876ZM435.451,564.803C441.996,565.96 451.033,568.561 457.444,570.582C486.27,579.668 514.167,593.522 531.984,618.915C537.076,626.188 541.185,634.103 544.203,642.453C544.962,644.532 547.07,651.569 547.728,653.035L544.369,658.194C539.748,651.355 534.333,644.227 528.574,638.354C524.313,633.651 518.207,629.362 514.08,624.683C500.056,608.782 487.547,596.999 469.659,585.316C463.866,581.553 457.951,577.983 451.923,574.612C448.175,572.516 438.196,567.353 435.451,564.803ZM266.262,317.324C284.412,331.448 309.071,344.982 328.716,357.56C327.626,358.577 326.559,359.619 325.516,360.685C310.795,375.721 306.167,395.938 306.334,416.373C305.375,414.709 305.953,409.238 305.711,407.076C303.981,391.589 305.48,379.364 309.549,364.253L310.899,359.301C300.821,352.887 295.379,348.548 286.088,341.855C264.578,358.554 246.932,384.237 235.516,408.805C231.848,416.7 227.69,424.616 225.178,432.985C216.005,463.541 216.889,497.655 223.442,528.652C228.732,521.53 236.021,512.475 242.459,506.36C248.667,554.311 276.428,601.964 314.753,631.533C327.298,641.213 342.282,648.417 357.203,653.745C352.767,643.664 348.162,632.106 343.737,622.408C367.577,647.51 397.951,663.057 430.591,673.601C479.723,689.473 514.811,692.165 544.599,739.718C488.917,695.271 429.499,710.968 366.98,686.144C340.311,675.554 311.024,653.532 289.776,634.569C309.927,671.212 337.466,700.444 370.473,725.8C372.257,727.17 377.837,730.69 377.847,732.682L376.75,733.319C312.518,698.428 249.198,653.864 239.352,576.569C238.545,570.235 237.888,564.171 237.355,557.801C231.494,566.442 225.926,572.993 220.294,582.242C215.821,572.89 211.816,554.176 210.53,543.286C203.101,480.384 214.925,407.504 244.209,351.092C250.674,338.638 257.835,328.279 266.262,317.324ZM234.659,651.768C236.017,652.524 240.483,660.272 241.666,662.135C246.028,668.986 250.855,675.53 256.111,681.721C271.881,700.061 284.583,711.837 303.822,726.557C294.902,725.79 251.212,696.06 242.686,689.538C238.01,677.66 235.911,664.41 234.659,651.768ZM710.377,358.505C715.966,352.731 724.817,346.8 731.45,342.103C740.858,335.518 750.194,328.83 759.456,322.041C781.523,345.286 793.026,369.591 802.212,399.769L800.828,400.754C799.234,399.814 796.11,393.946 794.564,391.82C782.483,375.202 769.031,358.415 752.763,345.687C745.43,351.677 737.254,357.597 729.5,363.078C732.387,373.637 737.48,395.46 733.791,407.716C733.713,407.827 733.635,407.939 733.558,408.05C730.347,387.329 726.945,372.863 710.377,358.505ZM405.268,409.805C410.011,408.703 414.749,411.656 415.849,416.4C416.948,421.144 413.992,425.88 409.248,426.977C404.507,428.072 399.776,425.119 398.678,420.38C397.579,415.64 400.529,410.907 405.268,409.805ZM660.257,404.877C664.788,403.38 669.688,405.764 671.305,410.254C672.922,414.743 670.67,419.704 666.225,421.441C663.242,422.606 659.862,422.061 657.397,420.016C654.933,417.971 653.772,414.75 654.367,411.604C654.961,408.457 657.217,405.881 660.257,404.877ZM763.856,666.473C775.64,660.081 781.015,655.993 791.223,647.671C807.595,680.857 811.574,709.418 804.068,745.773C803.435,744.73 800.084,739.345 799.797,738.565C800.735,736.541 799.77,733.405 799.21,731.281C792.29,705.021 782.368,686.532 763.856,666.473ZM471.06,462.882C474.304,465.643 478.233,469.051 481.101,472.117C478.033,476.914 474.627,483.239 471,487.523C455.593,505.72 428.69,520.97 405.734,526.015C404.318,526.324 402.897,526.611 401.472,526.877C409.919,522.324 429.106,507.495 432.329,498.203C434.186,496.908 440.337,493.88 443.21,491.989C455.756,483.729 463.046,475.32 471.06,462.882Z" style="fill:rgb(39,0,75);"/>
        <path d="M619.105,491.641C651.88,506.67 682.225,506.409 708.195,479.582C727.922,459.203 733.644,435.678 733.558,408.05C733.635,407.939 733.713,407.827 733.791,407.716C737.48,395.46 732.387,373.637 729.5,363.078C737.254,357.597 745.43,351.677 752.763,345.687C769.031,358.415 782.483,375.202 794.564,391.82C796.11,393.946 799.234,399.814 800.828,400.754L802.212,399.769C819.825,467.084 821.558,540.492 785.563,602.574C767.855,633.116 738.691,665.296 704.417,676.191C727.197,677.973 742.766,676.866 763.856,666.473C782.368,686.532 792.29,705.021 799.21,731.281C799.77,733.405 800.735,736.541 799.797,738.565C790.014,723.646 777.977,712.621 762.634,703.558C762.48,704.046 762.319,704.533 762.149,705.016C748.252,745.599 712.524,783.825 674.301,802.661C682.791,783.408 686.368,766.359 687.058,745.32C655.824,793.539 618.173,823.567 567.836,850.031C542.726,805.151 515.291,775.079 470.589,749.599C455.124,740.783 440.53,732.406 423.849,725.627C437.273,745.731 447.23,758.807 458.784,780.655C436.837,762.732 402.589,746.688 376.75,733.319L377.847,732.682C377.837,730.69 372.257,727.17 370.473,725.8C337.466,700.444 309.927,671.212 289.776,634.569C311.024,653.532 340.311,675.554 366.98,686.144C429.499,710.968 488.917,695.271 544.599,739.718C514.811,692.165 479.723,689.473 430.591,673.601C397.951,663.057 367.577,647.51 343.737,622.408C348.162,632.106 352.767,643.664 357.203,653.745C342.282,648.417 327.298,641.213 314.753,631.533C276.428,601.964 248.667,554.311 242.459,506.36C236.021,512.475 228.732,521.53 223.442,528.652C216.889,497.655 216.005,463.541 225.178,432.985C227.69,424.616 231.848,416.7 235.516,408.805C246.932,384.237 264.578,358.554 286.088,341.855C295.379,348.548 300.821,352.887 310.899,359.301L309.549,364.253C305.48,379.364 303.981,391.589 305.711,407.076C305.953,409.238 305.375,414.709 306.334,416.373C309.509,478.852 374.024,522.553 432.329,498.203C429.106,507.495 409.919,522.324 401.472,526.877C402.897,526.611 404.318,526.324 405.734,526.015C428.69,520.97 455.593,505.72 471,487.523C474.627,483.239 478.033,476.914 481.101,472.117C485.494,476.669 487.671,479.275 491.281,484.446C495.294,476.713 497.999,473.197 504.198,466.961C480.572,434.64 460.285,417.828 428.576,393.747C399.427,371.99 369.765,350.93 339.613,330.585C316.584,314.788 292.051,298.452 272.221,278.738C252.978,259.609 235.136,232.413 227.809,206.083C263.388,232.038 320.993,261.846 365.559,264.972C355.32,260.2 345.486,254.601 336.156,248.231C346.947,237.893 360.003,231.46 373.523,225.534C421.021,204.715 475.107,197.332 526.721,199C585.861,200.911 655.979,218.425 701.612,257.823C737.187,249.043 770.634,233.197 799.961,211.228C789.321,264.167 754.858,290.743 714.288,320.092C699.377,330.784 684.64,341.719 670.084,352.89C631.983,382.405 592.989,417.704 568.75,460.011C582.973,468.301 590.46,477.238 595.798,493.215C596.096,494.08 596.387,494.948 596.671,495.818C598.557,496.656 606.871,503.158 609.581,504.851C627.105,515.804 640.068,520.6 660.324,522.221C646.648,516.512 629.588,507.39 620.015,495.151C618.989,493.839 618.815,493.008 619.105,491.641ZM435.451,564.803C431.29,563.702 427.367,562.883 423.165,562.009C440.602,556.983 456.34,547.303 468.69,534.008C470.535,544.184 472.431,548.412 478.15,556.865C479.891,547.977 481.384,541.292 484.435,532.7C490.843,539.648 494.515,542.081 502.454,546.979C498.401,525.081 504.55,500.033 519.971,483.67C534.017,468.512 552.84,468.251 566.993,483.616C583.739,501.795 588.216,522.341 588.047,546.119C592.393,539.251 595.475,534.51 598.685,526.969C616.967,546.177 633.953,558.28 661.232,559.109L655.072,561.628C650.293,568.695 622.418,578.88 614.055,583.024C598.839,590.564 586.979,601.642 575.255,613.732C571.563,617.538 568.317,622.145 564.647,625.745L563.327,625.344L547.728,653.035L544.369,658.194C539.748,651.355 534.333,644.227 528.574,638.354C524.313,633.651 518.207,629.362 514.08,624.683C500.056,608.782 487.547,596.999 469.659,585.316C463.866,581.553 457.951,577.983 451.923,574.612C448.175,572.516 438.196,567.353 435.451,564.803Z" style="fill:rgb(252,252,252);"/>
        <path d="M353.331,378.368C361.366,381.415 369.059,386.089 376.237,390.771C369.492,397.952 366.909,401.957 364.61,411.562C360.004,446.424 398.056,468.071 422.916,447.423C428.135,441.949 430.169,438.67 433.452,431.789C440.29,435.638 446.449,439.411 453.107,443.579C448.513,451.693 441.448,461.786 433.537,467.026C407.182,488.028 361.85,476.343 344.353,448.375C337.87,438.737 335.152,424.948 336.008,413.536C337.151,398.279 342.07,388.39 353.331,378.368ZM689.637,377.327C706.295,394.122 710.238,409.69 705.803,432.931C705.015,435.73 704.246,438.664 703.216,441.381C692.764,468.971 665.925,483.206 637.315,474.763C632.093,473.167 627.121,470.846 622.545,467.868C624.033,458.485 627.665,455.257 635.029,450.133C655.268,460.915 675.033,452.929 681.393,430.185C683.344,423.207 682.558,415.973 681.147,408.915C678.394,401.706 675.818,397.862 669.443,393.19C676.35,387.321 682.159,382.503 689.637,377.327Z" style="fill:rgb(254,186,77);"/>
        <path d="M353.331,378.368C361.366,381.415 369.059,386.089 376.237,390.771C369.492,397.952 366.909,401.957 364.61,411.562C345.51,413.406 342.801,425.191 343.874,442.417C344.007,444.553 344.375,446.172 344.353,448.375C337.87,438.737 335.152,424.948 336.008,413.536C337.151,398.279 342.07,388.39 353.331,378.368ZM433.452,431.789C440.29,435.638 446.449,439.411 453.107,443.579C448.513,451.693 441.448,461.786 433.537,467.026C433.555,458.706 433.114,448.517 422.916,447.423C428.135,441.949 430.169,438.67 433.452,431.789ZM689.637,377.327C706.295,394.122 710.238,409.69 705.803,432.931C703.1,428.347 704.685,421.126 701.553,416.614C699.384,413.491 695.343,410.832 691.845,409.531C689.369,408.609 683.305,407.192 681.147,408.915C678.394,401.706 675.818,397.862 669.443,393.19C676.35,387.321 682.159,382.503 689.637,377.327ZM604.777,448.407C608.937,443.253 616.566,435.895 621.545,431.832C624.979,440.406 627.862,444.355 635.029,450.133C627.665,455.257 624.033,458.485 622.545,467.868C614.145,461.757 609.958,457.402 604.777,448.407Z" style="fill:rgb(229,149,46);"/>
        <path d="M405.268,409.805C410.011,408.703 414.749,411.656 415.849,416.4C416.948,421.144 413.992,425.88 409.248,426.977C404.507,428.072 399.776,425.119 398.678,420.38C397.579,415.64 400.529,410.907 405.268,409.805ZM660.257,404.877C664.788,403.38 669.688,405.764 671.305,410.254C672.922,414.743 670.67,419.704 666.225,421.441C663.242,422.606 659.862,422.061 657.397,420.016C654.933,417.971 653.772,414.75 654.367,411.604C654.961,408.457 657.217,405.881 660.257,404.877Z" style="fill:rgb(252,252,252);"/>
    </g>
</svg>
