<svg width="100%" height="100%" viewBox="0 0 898 954" version="1.1" xmlns="http://www.w3.org/2000/svg" xmlns:xlink="http://www.w3.org/1999/xlink" xml:space="preserve" xmlns:serif="http://www.serif.com/" style="fill-rule:evenodd;clip-rule:evenodd;stroke-linejoin:round;stroke-miterlimit:2;">
    <g transform="matrix(1,0,0,1,-71.8422,-34.7525)">
        <path d="M232.874,34.753C261.593,38.685 295.369,42.564 323.49,48.09C417.87,66.639 526.998,97.449 611.637,143.368C637.5,157.354 662.049,173.645 684.985,192.043C706.436,209.197 726.035,228.546 743.462,249.776C758.283,267.99 768.66,285.807 788.617,299.024C821.319,320.681 836.286,348.722 835.392,387.833C894.083,411.254 954.907,466.329 966.38,531.004C987.064,647.6 907.192,750.16 793.543,772.911C800.65,743.135 812.344,697.673 806.009,667.235C804.555,660.25 798.039,654.559 791.732,651.381C764.034,637.424 712.245,631.471 683.391,640.284C697.733,670.775 705.675,695.004 706.05,728.982C706.798,796.669 683.13,842.902 636.99,890.275C600.07,927.054 546.267,965.821 499.274,988.475C498.82,982.854 498.087,977.259 497.079,971.711C492.945,948.819 484.874,922.544 471.518,903.306C432.072,846.486 353.485,810.206 294.905,776.778C273.716,764.5 253.064,751.319 233.005,737.27C233.714,749.636 235.155,761.994 235.476,774.435C199.245,752.27 163.776,718.91 140.816,683.284C117.262,646.736 108.562,608.127 112.092,565.099C113.038,553.571 113.846,541.323 116.301,529.955C111.44,534.447 105.187,541.449 100.557,546.356C92.012,555.453 83.374,564.462 74.644,573.382C69.491,528.515 71.057,479.904 82.603,436.089C104.601,352.611 177.053,263.96 250.862,220.798C224.014,203.337 184.58,184.417 155.717,170.104C185.358,160.096 215.519,151.695 246.066,144.936C264.381,141.187 282.824,138.093 301.359,135.659C296.169,127.476 289.508,118.134 284.03,110.034C266.832,85.04 249.78,59.946 232.874,34.753Z" style="fill:white;fill-rule:nonzero;"/>
        <path d="M288.784,68.832C378.431,79.89 479.829,110.265 562.279,146.687C620.209,172.278 673.566,208.201 716.464,255.185C722.892,262.194 729.036,269.458 734.883,276.96C740.516,284.254 749.581,296.927 755.691,302.576C776.853,322.144 797.765,328.338 808.417,358.033C813.837,373.142 813.156,386.667 806.418,401.376C810.872,402.776 815.259,404.383 819.563,406.193C866.492,425.674 915.537,461.861 935.535,510.174C951.724,549.286 948.484,598.458 932.319,637.28C912.667,684.477 871.608,720.622 824.766,739.859C829.979,715.057 835.866,681.751 827.128,657.42C821.645,642.152 808.64,632.99 794.104,626.863C752.03,609.126 687.118,606.978 644.678,623.524C648.621,630.839 655.744,640.117 660.353,648.424C678.563,681.245 684.582,710.586 682.081,747.688C677.55,814.89 643.122,855.505 594.236,897.889C568.914,918.768 547.097,934.162 518.507,950.635C515.706,936.429 509.619,923.155 503.438,910.182C489.367,880.65 467.038,857.89 441.283,838.198C397.34,804.6 347.82,779.68 300.179,751.91C276.635,738.457 254.018,723.441 232.481,706.965C220.02,697.409 209.389,689.543 198.514,678.125C199.969,692.844 200.464,704.925 203.255,719.843C182.268,704.073 155.886,667.133 146.322,642.72C121.831,580.205 141.956,509.705 166.741,451.039C161.496,455.314 156.216,459.589 151.077,463.99C131.956,480.367 115.175,499.539 96.182,516.072C95.102,484.457 103.387,445.192 114.646,415.438C137.899,353.988 185.384,297.073 238.271,258.688C258.478,244.022 280.386,232.829 302.905,222.579C276.222,206.891 250.279,189.572 222.484,176.213C267.009,164.767 310.337,160.332 356.058,156.189C329.871,131.694 306.73,99.78 288.784,68.832Z" style="fill:rgb(43,11,20);fill-rule:nonzero;"  data-color="color-4"/>
        <path d="M605.039,600.264C520.495,617.251 458.686,530.865 433.89,460.991C424.483,434.483 421.222,396.561 434.441,370.855C457.891,325.256 517.154,303.025 563.746,326.621C566.848,328.226 568.484,329.487 571.293,331.555C568.496,336.233 565.556,340.968 563.408,345.979C553.193,368.635 547.461,391.934 556.58,415.989C568.747,448.082 593.64,463.932 626.659,468.484C634.32,469.528 644.805,468.957 652.41,467.427C656.323,466.639 661.105,464.656 664.995,464.738C670.222,462.011 676.775,458.91 681.657,456.087C691.39,450.457 702.701,438.188 709.258,428.798C718.346,433.517 720.844,434.759 730.826,437.323C717.966,461.386 689.303,487 664.108,497.848C642.229,506.848 604.897,535.254 596.57,558.032C593.446,566.579 589.698,581.452 593.711,590.265C596.763,596.967 600.033,597.086 605.039,600.264Z" style="fill:rgb(223,151,30);fill-rule:nonzero;"  data-color="color-2"/>
        <path d="M359.699,111.883C367.604,111.842 401.516,121.374 410.81,123.974C437.774,131.596 464.427,140.28 490.706,150.005C553.209,173.074 612.502,201.139 663.381,244.876C678.906,258.222 694.116,273.59 707.19,289.348C716.305,300.334 723.46,312.2 733.979,322.239C738.584,326.576 743.619,331.999 748.925,335.41C763.654,344.88 780.099,355.489 782.402,374.528C783.01,379.553 782.041,385.146 778.391,389.099C770.143,398.032 756.453,405.726 744.202,406.921C733.087,407.757 721.735,399.172 712.508,393.783C690.396,380.718 670.692,365.196 651.746,347.85C616.898,315.945 571.715,270.934 520.545,275.773C484.174,279.212 445.843,303.987 422.616,331.652C399.724,358.919 388.695,395.734 392.667,431.183C398.019,488.119 428.948,541.151 468.441,581.155C521.191,634.587 606.556,668.923 613.453,753.252C616.678,792.689 596.615,829.83 572.107,858.973C573.227,782.45 545.431,744.563 487.478,698.905C480.83,694.282 472.787,687.756 466.259,682.752C455.497,674.64 444.806,666.435 434.186,658.138C379.751,615.257 328.507,567.797 299.231,503.942C292.498,489.256 288.223,475.791 283.717,460.335C280.464,471.935 276.87,481.475 273.608,493.891C263.86,530.993 261.785,585.147 276.459,621.286C211.228,558.26 212.999,450.515 257.752,376.519C266.293,362.398 275.888,350.898 286.268,338.182C238.319,352.625 197.355,370.434 160.385,405.222C170.08,377.388 180.993,359.934 201.837,338.949C264.785,275.574 345.199,245.427 433.666,244.508C427.045,239.765 418.335,235.042 411.114,231.012C380.401,213.543 347.607,200.018 313.509,190.757C323.516,189.962 336.581,189.999 346.705,189.96C391.28,189.478 435.768,194.011 479.33,203.474C497.027,207.228 514.597,212.18 532.164,216.664C519.023,207.913 504.722,200.905 490.716,193.582C459.657,177.344 427.329,163.772 398.037,144.367C382.376,133.993 373.138,123.937 359.699,111.883ZM664.995,464.738C639.074,482.152 585.013,490.52 564.893,459.854C560.891,453.755 558.601,447.436 556.842,440.42C567.557,457.548 580.846,464.705 600.404,470.541C607.291,472.596 620.391,472.241 626.659,468.484C634.32,469.528 644.805,468.957 652.41,467.427C656.323,466.639 661.105,464.656 664.995,464.738Z" style="fill:rgb(106,16,29);"  data-color="color-1"/>
        <path d="M466.223,388.905C466.039,388.725 478.621,414.121 480.274,416.899C489.281,432.258 499.581,446.821 511.062,460.43C530.037,483.108 553.233,503.045 580.882,513.995C587.581,516.649 594.798,519.564 602.014,520.204C590.614,528.761 583.897,533.691 575.178,545.247C569.175,553.681 566.098,559.771 563.583,569.66C542.158,568.962 520.687,544.801 507.938,529.295C477.015,491.688 461.288,437.163 466.223,388.905Z" style="fill:rgb(178,101,6);fill-rule:nonzero;"  data-color="color-3"/>
        <path d="M782.705,422.266C829.138,438.227 883.652,468.594 906.333,514.289C921.254,544.351 920.929,585.083 910.178,616.573C900.135,645.99 880.45,671.087 855.879,689.888C877.335,598.425 805.554,547.733 725.462,534.359C682.632,527.208 622.315,535.291 594.397,571.774C603.623,568.295 613.877,564.532 623.54,562.425C685.905,548.827 772.723,559.085 817.452,609.37C796.603,598.302 786.735,593.674 763.476,589.053C725.14,581.799 685.765,582.009 647.508,589.67C635.557,591.94 623.897,595.39 612.174,598.59C609.813,599.234 607.462,599.899 605.039,600.264C600.033,597.086 596.763,596.967 593.711,590.265C589.698,581.452 593.446,566.579 596.57,558.032C604.897,535.254 642.229,506.848 664.108,497.848C667.838,499.307 687.726,492.389 692.75,490.495C716.78,481.437 739.552,467.635 757.522,449.163C766.105,440.341 773.872,431.067 782.705,422.266ZM790.405,448.378C782.25,460.858 777.587,465.759 767.098,476.144C791.587,474.79 808.209,478.46 828.162,493.573C832.642,497.117 836.34,500.708 840.478,504.629C831.273,479.378 817.828,456.701 790.405,448.378ZM602.532,350.712C607.883,353.849 621.802,367.328 626.146,372.157C613.119,390.712 612.189,417.944 640.882,422.685C653.297,424.737 665.734,417.74 675.246,410.128C678.537,413.188 680.754,414.737 684.47,417.35C682.24,419.658 679.608,421.858 677.174,423.987C671.07,428.68 664.646,433.419 657.428,436.163C631.799,445.904 603.18,436.275 592.763,409.952C584.381,388.774 594.28,369.885 602.532,350.712Z" style="fill:rgb(182,26,23);"  data-color="color-1"/>
    </g>
</svg>
