<svg width="100%" height="100%" viewBox="0 0 840 944" version="1.1" xmlns="http://www.w3.org/2000/svg" xmlns:xlink="http://www.w3.org/1999/xlink" xml:space="preserve" xmlns:serif="http://www.serif.com/" style="fill-rule:evenodd;clip-rule:evenodd;stroke-linejoin:round;stroke-miterlimit:2;">
    <g transform="matrix(1,0,0,1,-90.0336,-48.0166)">
        <path d="M209.426,48.017C209.455,48.062 208.119,68.975 208.482,72.436C215.244,136.861 299.929,164.959 352.748,182.839C426.243,164.664 500.391,163.115 575.108,174.151C606.058,178.431 636.537,185.609 666.144,195.59C688.865,203.583 710.852,213.524 731.86,225.303C793.849,203.205 884.016,155.458 888.799,80.646C943.488,174.216 948.095,273.45 874.248,357.73C886.144,371.888 899.722,400.96 905.91,418.284C924.053,470.548 924.758,527.287 907.918,579.986C902.582,597.149 896.674,610.826 889.049,626.973C890.893,638.04 891.622,649.264 891.224,660.476C889.474,700.286 877.761,738.05 851.984,769.003C844.223,778.323 837.401,784.614 828.429,792.819L828.478,792.259C829.495,779.956 829.515,766.711 821.246,756.865C809.683,773.726 794.8,789.766 779.808,803.602C748.425,833.666 709.179,860.382 674.896,887.262C648.91,907.637 622.63,928.667 599.249,952.037C586.814,964.466 574.758,978.491 563.366,991.911C546.599,970.896 532.633,954.142 512.811,935.838C462.019,888.935 397.566,863.771 334.327,838.394C290.197,820.686 249.581,800.794 212.575,770.37C162.172,728.932 127.238,665.016 121.129,599.829C110.959,609.019 104.633,617.821 98.449,629.927C94.63,615.119 92.14,599.999 91.009,584.748C82.658,477.03 128.748,381.55 197.346,301.496C157.157,266.339 133.077,219.125 140.002,164.755C144.068,132.831 156.507,100.895 178.007,76.588C187.695,65.636 198.033,57.028 209.426,48.017Z" style="fill:white;fill-rule:nonzero;"/>
        <path d="M190.728,92.849C191.776,93.879 200.175,110.95 201.7,113.508C208.655,125.339 217.578,135.897 228.084,144.728C258.585,170.422 322.764,196.247 361.528,206.088C365.586,204.538 369.667,203.051 373.77,201.627C451.495,175.441 583.731,189.22 660.418,215.171C674.038,219.78 691.016,226.525 704.035,232.904C712.811,237.205 722.137,242.669 731.128,247.119C741.998,243.606 755.44,237.678 766.065,233.355C813.537,214.039 866.654,180.981 892.169,134.848C904.165,161.747 910.253,190.905 910.023,220.356C910.066,272.679 884.586,319.484 848.329,355.848C861.538,371.474 872.323,391.762 880.89,410.187C904.551,461.07 905.304,522.327 888.744,575.54C886.036,584.097 882.918,592.518 879.399,600.775C869.54,623.489 867.693,616.33 870.58,641.475C874.495,675.575 863.337,722.508 842.016,749.355C836.541,736.558 832.431,719.22 826.918,704.692C814.761,735.105 797.435,758.428 774.46,781.25C751.563,804.188 722.745,825.694 697.023,845.491C661.662,872.705 624.723,899.596 592.409,930.443C582.589,939.817 573.591,950.464 564.632,960.63C532.502,924.444 507.248,901.124 465.202,876.035C363.702,815.471 232.269,801.803 170.341,688.804C144.444,641.55 136.68,603.803 142.217,550.458C132.063,561.242 121.744,571.87 111.265,582.338C109.376,568.045 110.335,545.871 111.514,531.484C118.154,450.454 168.985,353.316 231.228,301.428C178.916,266.882 147.448,215.601 162.962,150.901C167.732,131.006 176.988,108 190.728,92.849Z" style="fill:rgb(0,14,47);fill-rule:nonzero;"  data-color="color-3"/>
        <path d="M393.632,376.383C395.316,376.429 414.288,391.491 415.518,393.558C403.039,405.878 395.637,422.721 395.158,440.182C393.498,500.597 440.046,540.658 497.589,543.644C493.735,546.104 490.551,547.844 486.498,549.997C511.308,550.483 541.462,544.344 563.927,533.791C569.721,531.069 576.021,526.848 581.388,523.234C581.153,524.445 580.903,525.652 580.635,526.856C575.319,550.495 546.967,568.234 527.988,580.263C537.292,582.51 546.524,585.591 554.728,590.578C563.164,595.369 580.054,604.02 586.885,610.742C575.305,606.908 565.211,604.055 553.085,602.316C513.537,596.842 475.923,601.887 436.844,590.861C376.586,573.86 319.654,515.844 334.605,449.084C342.082,415.7 364.274,392.383 393.632,376.383ZM814.214,386.93L814.936,386.936C819.831,390.051 829.7,403.849 832.851,408.857C851.807,438.938 858.191,475.26 850.626,510.002C841.261,551.166 814.571,581.128 775.275,595.486C768.147,598.09 727.587,608.182 721.447,606.784L721.104,605.929C722.123,601.654 735.739,587.474 739.389,583.828L739.41,583.044C737.644,582.597 723.061,584.089 719.968,584.27C718.577,562.52 716.008,554.219 708.964,534.157C732.687,543.939 749.761,545.763 774.966,546.46C767.175,542.068 763.002,541.248 756.217,535.193C772.386,531.791 783.23,527.768 794.522,515.144C818.373,488.479 822.557,429.778 793.904,405.068C801.835,399.538 813.349,387.146 814.214,386.93ZM650.914,492.405C654.215,495.647 657.98,501.716 660.631,505.717C673.647,525.362 684.245,550.162 687.679,573.634C694.39,619.498 681.371,653.639 654.567,689.993C656.319,670.421 649.392,644.198 638.595,627.53C628.778,612.517 615.623,600.93 598.771,594.543C595.812,572.563 605.75,551.78 616.919,533.521C632.451,546.958 640.997,560.253 648.571,579.161C648.049,552.092 645.838,536.168 631.701,512.261C638.313,505.268 643.449,498.776 650.914,492.405Z" style="fill:rgb(234,162,26);"  data-color="color-2"/>
        <path d="M209.441,166.142C211.573,167.056 225.858,178.698 230.473,181.579C242.047,189.494 254.685,195.356 266.811,202.107C298.315,219.646 331.98,232.578 365.651,245.339C383.244,252.006 401.721,258.036 419.184,265.289C459.199,281.907 495.422,307.067 527.61,335.866C539.286,346.24 550.601,355.606 562.044,366.746C555.7,349.948 549.087,340.662 539.551,325.847C511.251,281.874 471.379,251.725 424.239,229.294C462.927,219.768 506.499,220.237 545.9,225.052C589.163,230.34 635.065,239.549 674.157,259.628C692.63,269.117 712.511,284.615 727.457,298.87C723.856,305.636 714.901,318.483 710.261,325.995C699.794,343.177 691.209,361.435 684.654,380.456C697.982,366.081 710.2,353.754 725.203,341.013C738.263,329.922 750.423,321.659 763.921,311.541C772.653,304.866 781.745,298.521 790.552,291.914C805.293,280.779 819.849,269.4 834.213,257.783C846.264,248.013 867.096,231.152 874.39,217.785C874.335,231.666 871.15,246.445 866.269,259.504C859.231,278.335 847.553,297.724 835.703,313.892C814.208,343.22 786.441,363.99 762.45,390.806C741.432,414.298 722.229,439.918 700.606,462.856C694.234,469.615 688.721,473.812 680.395,477.748C672.713,469.479 672.746,461.734 661.762,453.799C658.482,455.741 654.455,459.494 651.316,461.948C642.067,469.181 632.563,474.903 620.74,476.421C615.26,477.211 609.182,476.863 604.017,474.725C579.149,464.429 559.392,444.952 539.25,427.564L485.392,380.689C452.348,352.093 420.637,329.882 381.359,308.581C322.618,276.724 240.474,253.034 213.487,185.152C211.278,179.596 210.236,172.051 209.441,166.142ZM308.53,351.474L309.548,351.493C309.481,353.453 306.406,356.888 305.073,358.524C272.682,398.262 266.844,451.26 279.927,499.952C291.46,542.873 322.973,574.298 359.717,597.523C364.863,600.776 370.361,603.133 375.712,606.076C368.454,604.97 360.455,604.309 353.01,603.159C326.205,599.018 311.752,591.124 289.807,576.71C324.45,639.101 383.65,646.369 441.659,673.646C503.535,702.742 577.67,769.692 581.239,842.844C543.91,791.056 503.759,762.943 448.174,733.56C447.657,733.367 448,733.458 447.112,733.465C447.72,735.069 456.185,744.243 458.102,746.42C476.483,767.295 483.852,785.218 495.565,809.361C475.718,792.325 454.596,776.834 432.384,763.022C425.842,758.872 419.515,754.765 412.787,750.815C369.14,725.186 318.897,705.945 282.804,669.588C264.809,651.461 256.222,635.671 243.699,614.401C234.826,641.241 234.831,679.454 240.118,707.101C206.176,670.311 191.237,627.458 192.52,577.745C193.65,533.964 210.111,497.65 228.712,458.906C215.558,463.404 200.61,471.168 189.743,479.667C191.664,474.712 193.684,469.796 195.801,464.922C216.572,417.893 259.952,370.283 308.53,351.474ZM851.86,570.963C852.2,571.355 852.312,571.393 852.134,572.199C845.139,603.917 829.888,638.029 806.995,661.566C770.317,699.274 720.407,721.403 680.066,754.851L679.853,754.649L679.967,753.709C685.523,747.302 689.738,739.505 694.522,732.475C705.879,715.784 718.725,701.771 734.119,688.768C767.863,660.265 802.537,631.877 831.439,598.336C838.828,589.76 845.328,580.209 851.86,570.963Z" style="fill:rgb(2,50,109);"  data-color="color-1"/>
        <path d="M452.022,415.966C461.908,422.742 469.718,429.764 479.014,437.19C476.302,441.088 473.677,444.989 471.883,449.36C465.181,465.692 471.678,484.431 488.859,490.674C500.347,494.848 511.901,492.662 521.511,485.287C523.947,483.418 527.567,479.526 530.081,478.414C532.353,479.76 547.128,487.962 549.579,493.684C549.347,495.898 549.201,495.422 547.574,497.503C534.471,508.659 512.362,515.28 495.264,514.813C479.82,514.549 462.582,506.872 452.585,494.977C439.12,478.955 435.385,453.383 442.277,433.748C444.585,427.174 448.032,421.6 452.022,415.966ZM773.198,428.451C776.827,432.04 779.636,437.765 781.256,442.714C789.572,468.127 778.244,501.396 751.444,510.264C738.112,514.676 723.077,509.276 711.075,502.942C708.374,501.279 707.337,500.329 705.015,498.278C709.101,494.012 715.816,487.974 720.318,484.108C725.318,487.634 727.997,490.049 734.455,491.312C747.607,493.963 759.986,484.32 761.69,471.207C762.871,462.109 760.844,456.017 755.397,448.822C759.394,443.608 768.301,434.123 773.198,428.451Z" style="fill:white;"/>
    </g>
</svg>
