<svg width="100%" height="100%" viewBox="0 0 724 899" version="1.1" xmlns="http://www.w3.org/2000/svg" xmlns:xlink="http://www.w3.org/1999/xlink" xml:space="preserve" xmlns:serif="http://www.serif.com/" style="fill-rule:evenodd;clip-rule:evenodd;stroke-linejoin:round;stroke-miterlimit:2;">
    <g transform="matrix(1,0,0,1,-121.901,-55.9623)">
        <path d="M327.38,56.135C338.949,55.657 349.598,56.285 361.052,56.661C422.319,58.67 483.335,78.019 529.345,120.013C525.306,93.815 518.792,81.245 507.432,58.074C518.403,60.143 529.31,62.532 540.142,65.237C605.555,81.657 655.996,117.182 690.766,175.271C696.536,157.066 695.555,131.917 692.822,112.899C739.348,147.069 770.704,185.526 783.775,242.349C795.259,292.272 788.622,338.893 761.735,382.422C829.239,416.079 857.237,485.903 830.148,556.404C814.681,547.297 800.494,540.329 781.975,540.624C772.143,540.92 756.563,542.261 748.89,548.61C743.926,552.943 751.219,570.547 754.417,574.237C767.513,589.351 785.623,600.149 800.348,613.859C825.153,636.746 844.878,667.562 845.606,702.361C847.049,771.321 798.697,811 733.265,813.065C724.68,828.833 715.476,843.843 703.321,857.511C668.618,896.535 623.332,927.751 576.625,950.761C574.587,951.764 567.864,955.061 566.042,954.752C563.017,949.218 559.937,943.529 557.032,937.937C532.233,890.192 483.24,869.126 439.608,841.917C444.354,855.023 449.293,867.573 454.161,880.578C395.512,860.554 321.202,826.402 280.227,779.265C271.248,768.936 264.998,758.681 258.526,746.722C242.286,780.292 234.594,799.931 226.517,836.767C220.647,829.478 214.72,823.65 208.799,815.641C171.614,765.345 165.99,712.208 174.313,652.1C157.216,669.198 136.557,690.054 121.901,709.151C122.855,702.833 123.204,693.391 123.852,686.698C127.416,647.315 135.793,608.518 148.798,571.174C179.872,483.208 256.593,366.659 328.983,306.927C312.907,286.117 311.51,263.34 307.344,238.983C302.881,212.892 277.073,184.607 257.091,168.03C245.568,158.47 230.915,148.96 218.295,140.495C232.073,137.254 244.004,132.153 257.367,128.531C296.095,118.035 327.975,119.491 366.082,130.485C360.165,115.078 352.999,100.18 344.654,85.941C338.971,76.066 332.559,66.267 327.38,56.135ZM352.309,70.488C370.188,99.476 379.059,118.61 386.932,151.961C335.454,134.878 304.163,128.366 251.721,145.928C273.817,161.188 291.246,178.01 305.911,200.695C314.631,214.184 319.321,223.981 321.937,240.113C326.35,267.327 327.436,288.914 349.824,308.007C338.585,316.248 327.87,325.182 317.743,334.758C308.743,343.359 296.582,356.781 288.407,366.295C240.998,421.462 195.29,491.021 168.186,558.602C155.06,591.185 145.845,625.211 140.735,659.965C140.349,662.65 139.973,665.242 139.792,667.954C159.801,647.47 177.508,630.653 198.173,611.246C176.264,680.347 177.185,748.06 219.635,808.762C231.318,771.816 239.764,751.473 259.657,717.146C265.113,730.055 270.643,743.379 278.4,755.118C311.306,804.918 375.172,835.579 428.839,857.302L431.296,858.287C423.696,839.818 420.159,828.579 416.139,809.24C430.167,819.912 444.803,829.761 459.973,838.735C495.502,860.21 531.241,878.366 556.524,912.297C562.592,921.035 567.73,929.145 572.569,938.676C588.635,930.856 606.432,919.713 621.188,909.673C665.37,879.613 700.412,848.433 723.861,799.936C754.497,800.411 783.629,794.58 806.41,772.437C824.267,755.081 832.119,731.067 832.417,706.534C832.782,676.385 817.328,648.915 796.558,628.011C774.156,604.601 735.694,590.221 734.028,553.525C733.788,548.233 735.432,543.094 739.258,539.438C749.18,529.957 770.617,527.958 783.5,527.952C797.941,527.945 810.303,531.423 822.862,538.144C838.1,476.947 813.553,424.721 758.608,395.512C753.017,392.54 746.724,389.702 741.328,386.626C798.308,313.588 779.612,203.523 710.01,145.801C707.795,173.673 703.613,182.317 691.873,207.099C684.43,192.691 677.009,179.289 667.526,166.072C640.43,128.13 601.847,99.909 557.479,85.581C549.384,82.997 541.201,80.698 532.945,78.687C543.483,104.344 546.997,126.21 540.641,153.571C535.773,146.679 530.588,141.797 524.636,135.865C492.025,103.365 446.307,82.705 401.178,74.932C385.022,72.237 368.687,70.752 352.309,70.488ZM504.517,670.051C503.627,675.78 503.965,684.095 503.929,689.931C503.64,737.831 531.649,769.352 551.473,809.684C563.044,833.225 568.403,851.842 570.03,878.396C551.46,856.009 524.767,841.133 500.998,825.172C483.676,813.328 467.439,799.971 452.479,785.257C415.205,748.505 394.069,713.488 382.624,662.487C360.768,700.592 358.576,747.173 365.379,789.64C352.794,777.662 345.378,769.556 335.455,755.136C300.217,703.93 302.18,638.67 313.492,579.986C275.202,617.635 244.58,655.239 222.056,704.483C221.261,631.114 238.58,570.273 274.607,506.563C240.348,521.773 220.119,542.257 195.904,570.067C203.193,554.062 210.823,537.009 219.296,521.511C257.719,451.234 310.604,369.353 378.836,325.887C428.279,294.39 491.396,286.076 543.528,314.755C559.492,323.538 570.477,332.15 584.348,343.905C603.785,360.377 619.264,383.398 644.943,389.518C620.653,419.076 581.335,382.443 559.182,367.628C536.263,352.301 510.819,331.045 481.596,332.279C466.717,332.908 452.694,339.413 442.603,350.368C455.455,351.139 466.374,354.484 477.833,360.227C475.611,362.365 473.227,364.575 471.245,366.926C422.391,424.869 428.817,529.988 525.517,518.258C523.253,522.479 520.424,526.609 517.925,530.726C494.208,569.807 477.509,628.694 504.517,670.051ZM405.221,407.955C402.461,409.822 399.522,411.747 396.912,413.805C360.222,442.733 344.49,498.384 372.129,538.72C383.312,555.146 400.668,566.346 420.242,569.768C429.972,571.553 439.376,571.337 449.113,569.939C463.736,567.16 470.482,564.325 483.64,557.587C426.287,555.925 388.919,527.431 391.077,467.085C391.706,449.963 395.368,433.088 401.894,417.245C402.735,415.25 405.926,409.052 405.221,407.955Z" style="fill:rgb(254,254,254);"/>
        <path d="M352.309,70.488C368.687,70.752 385.022,72.237 401.178,74.932C446.307,82.705 492.025,103.365 524.636,135.865C530.588,141.797 535.773,146.679 540.641,153.571C546.997,126.21 543.483,104.344 532.945,78.687C541.201,80.698 549.384,82.997 557.479,85.581C601.847,99.909 640.43,128.13 667.526,166.072C677.009,179.289 684.43,192.691 691.873,207.099C703.613,182.317 707.795,173.673 710.01,145.801C779.612,203.523 798.308,313.588 741.328,386.626C746.724,389.702 753.017,392.54 758.608,395.512C813.553,424.721 838.1,476.947 822.862,538.144C810.303,531.423 797.941,527.945 783.5,527.952C770.617,527.958 749.18,529.957 739.258,539.438C735.432,543.094 733.788,548.233 734.028,553.525C735.694,590.221 774.156,604.601 796.558,628.011C817.328,648.915 832.782,676.385 832.417,706.534C832.119,731.067 824.267,755.081 806.41,772.437C783.629,794.58 754.497,800.411 723.861,799.936C700.412,848.433 665.37,879.613 621.188,909.673C606.432,919.713 588.635,930.856 572.569,938.676C567.73,929.145 562.592,921.035 556.524,912.297C531.241,878.366 495.502,860.21 459.973,838.735C444.803,829.761 430.167,819.912 416.139,809.24C420.159,828.579 423.696,839.818 431.296,858.287L428.839,857.302C375.172,835.579 311.306,804.918 278.4,755.118C270.643,743.379 265.113,730.055 259.657,717.146C239.764,751.473 231.318,771.816 219.635,808.762C177.185,748.06 176.264,680.347 198.173,611.246C177.508,630.653 159.801,647.47 139.792,667.954C139.973,665.242 140.349,662.65 140.735,659.965C145.845,625.211 155.06,591.185 168.186,558.602C195.29,491.021 240.998,421.462 288.407,366.295C296.582,356.781 308.743,343.359 317.743,334.758C327.87,325.182 338.585,316.248 349.824,308.007C327.436,288.914 326.35,267.327 321.937,240.113C319.321,223.981 314.631,214.184 305.911,200.695C291.246,178.01 273.817,161.188 251.721,145.928C304.163,128.366 335.454,134.878 386.932,151.961C379.059,118.61 370.188,99.476 352.309,70.488ZM710.901,546.852C672.928,588.961 703.585,617.732 727.892,655.765C748.275,687.658 760.188,731.221 746.233,767.94C755.948,766.351 764.407,764.124 773.033,759.13C808.087,737.218 813.201,697.923 791.652,664.096C767.124,625.593 711.053,611.334 710.902,558.538C710.896,556.636 711.707,547.665 710.901,546.852ZM504.517,670.051C509.475,632.311 522.086,599.982 541.231,567.378C541.118,562.918 541.03,558.457 540.967,553.996C540.393,501.408 560.534,490.502 599.752,461.67C609.808,454.277 622.355,442.132 631.127,433.156C623.854,432.893 619.593,431.9 612.672,429.808C603.969,440.578 596.013,448.216 582.604,452.926C561.816,459.979 537.216,459.751 517.212,450.434C484.7,435.292 469.231,397.984 485.285,365.115C482.371,362.938 481.015,361.975 477.833,360.227C466.374,354.484 455.455,351.139 442.603,350.368C452.694,339.413 466.717,332.908 481.596,332.279C510.819,331.045 536.263,352.301 559.182,367.628C581.335,382.443 620.653,419.076 644.943,389.518C619.264,383.398 603.785,360.377 584.348,343.905C570.477,332.15 559.492,323.538 543.528,314.755C491.396,286.076 428.279,294.39 378.836,325.887C310.604,369.353 257.719,451.234 219.296,521.511C210.823,537.009 203.193,554.062 195.904,570.067C220.119,542.257 240.348,521.773 274.607,506.563C238.58,570.273 221.261,631.114 222.056,704.483C244.58,655.239 275.202,617.635 313.492,579.986C302.18,638.67 300.217,703.93 335.455,755.136C345.378,769.556 352.794,777.662 365.379,789.64C358.576,747.173 360.768,700.592 382.624,662.487C394.069,713.488 415.205,748.505 452.479,785.257C467.439,799.971 483.676,813.328 500.998,825.172C524.767,841.133 551.46,856.009 570.03,878.396C568.403,851.842 563.044,833.225 551.473,809.684C531.649,769.352 503.64,737.831 503.929,689.931C503.965,684.095 503.627,675.78 504.517,670.051ZM405.221,407.955C405.926,409.052 402.735,415.25 401.894,417.245C395.368,433.088 391.706,449.963 391.077,467.085C388.919,527.431 426.287,555.925 483.64,557.587C470.482,564.325 463.736,567.16 449.113,569.939C439.376,571.337 429.972,571.553 420.242,569.768C400.668,566.346 383.312,555.146 372.129,538.72C344.49,498.384 360.222,442.733 396.912,413.805C399.522,411.747 402.461,409.822 405.221,407.955ZM703.251,494.208C674.409,496.057 629.216,506.03 612.69,531.249C624.664,540.786 639.895,545.259 655.125,543.712C661.666,542.997 667.504,541.2 673.44,538.397C680.289,534.617 686.784,530.341 693.676,526.696C718.436,513.603 742.143,506.265 770.458,507.045C747.034,496.515 729.229,492.957 703.251,494.208ZM699.933,405.216C684.586,406.233 676.166,409.965 665.962,421.679C653.849,435.584 643.11,454.383 627.982,465.013C601.018,483.96 585.063,496.535 581.168,530.486C600.829,505.624 635.48,487.136 666.446,480.592C713.122,469.75 760.038,476.574 800.854,502.125C802.148,502.926 803.427,503.751 804.69,504.601C804.308,478.092 796.122,457.559 776.955,438.62C758.168,420.057 726.642,405.166 699.933,405.216ZM682.545,426.614C696.894,425.264 704.687,431.449 715.008,440.222C712.75,439.789 710.389,439.428 708.113,439.045C695.995,437.432 688.149,437.326 676.011,437.426C676.854,431.376 677.02,429.541 682.545,426.614ZM568.944,557.35C545.244,586.14 538.941,636.206 541.959,672.865C544.875,708.29 560.621,739.708 587.906,763.398C616.92,788.588 670.321,798.161 697.892,765.678C705.509,756.703 709.253,745.574 711.355,733.928C714.39,704.2 697.177,677.218 678.962,655.042C654.523,625.289 634.22,606.677 624.438,567.159C616.651,592.41 616.793,617.05 627.178,641.543C616.843,632.817 609.977,626.708 602.182,615.142C598.461,609.568 595.068,603.783 592.02,597.815C587.378,588.67 576.796,562.796 568.944,557.35ZM411.619,109.111C413.117,113.318 415.076,117.408 416.736,121.559C427.803,149.225 433.48,179.924 435.058,209.614C399.292,185.655 358.809,164.794 314.557,165.471C328.833,176.856 342.471,196.806 348.139,214.2C355.19,235.835 351.562,264.47 372.15,279.859C380.399,286.025 388.257,284.797 397.097,281.219C407.258,277.107 417.974,273.616 428.661,270.993C480.579,257.866 535.65,269.246 578.112,301.877C587.461,308.916 595.068,316.198 603.477,324.765C626.568,348.291 655.859,388.426 693.097,384.536C700.648,383.747 708.257,379.615 713.927,374.836C737.096,352.858 746.86,319.786 747.707,288.584C748.711,260.619 741.606,232.961 727.247,208.944C721.022,237.904 707.528,258.986 682.279,275.306L681.908,275.545C679.462,267.01 677.476,258.359 675.133,249.783C662.31,202.844 633.116,157.843 590.775,132.648C587.737,130.841 584.226,129.388 580.918,128.1C585.375,159.465 582.612,191.509 563.311,218.32C562.836,218.979 562.231,219.631 561.684,220.232C550.274,204.376 536.337,188.986 523.561,174.152C498.277,144.796 457.602,116.571 418.705,110.137C416.35,109.749 413.988,109.407 411.619,109.111ZM529.888,378.807C492.94,414.159 556.119,463.032 585.743,423.595L588.976,418.759C583.794,416.025 580.377,414.026 575.403,410.834C573.389,416.594 570.952,421.034 565.057,423.805C560.634,425.862 555.568,426.044 551.009,424.31C545.548,422.223 541.191,417.975 538.968,412.568C536.954,407.773 537.033,402.356 539.184,397.621C540.609,394.432 542.476,392.331 544.92,389.911C542.705,388.204 531.774,379.586 529.888,378.807Z" style="fill:rgb(20,18,21);"/>
        <path d="M477.833,360.227C481.015,361.975 482.371,362.938 485.285,365.115C469.231,397.984 484.7,435.292 517.212,450.434C537.216,459.751 561.816,459.979 582.604,452.926C596.013,448.216 603.969,440.578 612.672,429.808C619.593,431.9 623.854,432.893 631.127,433.156C622.355,442.132 609.808,454.277 599.752,461.67C560.534,490.502 540.393,501.408 540.967,553.996C541.03,558.457 541.118,562.918 541.231,567.378C522.086,599.982 509.475,632.311 504.517,670.051C477.509,628.694 494.208,569.807 517.925,530.726C520.424,526.609 523.253,522.479 525.517,518.258C428.817,529.988 422.391,424.869 471.245,366.926C473.227,364.575 475.611,362.365 477.833,360.227ZM411.619,109.111C413.988,109.407 416.35,109.749 418.705,110.137C457.602,116.571 498.277,144.796 523.561,174.152C536.337,188.986 550.274,204.376 561.684,220.232C562.231,219.631 562.836,218.979 563.311,218.32C582.612,191.509 585.375,159.465 580.918,128.1C584.226,129.388 587.737,130.841 590.775,132.648C633.116,157.843 662.31,202.844 675.133,249.783C677.476,258.359 679.462,267.01 681.908,275.545L682.279,275.306C707.528,258.986 721.022,237.904 727.247,208.944C741.606,232.961 748.711,260.619 747.707,288.584C746.86,319.786 737.096,352.858 713.927,374.836C708.257,379.615 700.648,383.747 693.097,384.536C655.859,388.426 626.568,348.291 603.477,324.765C595.068,316.198 587.461,308.916 578.112,301.877C535.65,269.246 480.579,257.866 428.661,270.993C417.974,273.616 407.258,277.107 397.097,281.219C388.257,284.797 380.399,286.025 372.15,279.859C351.562,264.47 355.19,235.835 348.139,214.2C342.471,196.806 328.833,176.856 314.557,165.471C358.809,164.794 399.292,185.655 435.058,209.614C433.48,179.924 427.803,149.225 416.736,121.559C415.076,117.408 413.117,113.318 411.619,109.111ZM568.944,557.35C576.796,562.796 587.378,588.67 592.02,597.815C595.068,603.783 598.461,609.568 602.182,615.142C609.977,626.708 616.843,632.817 627.178,641.543C616.793,617.05 616.651,592.41 624.438,567.159C634.22,606.677 654.523,625.289 678.962,655.042C697.177,677.218 714.39,704.2 711.355,733.928C709.253,745.574 705.509,756.703 697.892,765.678C670.321,798.161 616.92,788.588 587.906,763.398C560.621,739.708 544.875,708.29 541.959,672.865C538.941,636.206 545.244,586.14 568.944,557.35ZM710.901,546.852C711.707,547.665 710.896,556.636 710.902,558.538C711.053,611.334 767.124,625.593 791.652,664.096C813.201,697.923 808.087,737.218 773.033,759.13C764.407,764.124 755.948,766.351 746.233,767.94C760.188,731.221 748.275,687.658 727.892,655.765C703.585,617.732 672.928,588.961 710.901,546.852Z" style="fill:rgb(139,4,28);"  data-color="color-1"/>
        <path d="M699.933,405.216C726.642,405.166 758.168,420.057 776.955,438.62C796.122,457.559 804.308,478.092 804.69,504.601C803.427,503.751 802.148,502.926 800.854,502.125C760.038,476.574 713.122,469.75 666.446,480.592C635.48,487.136 600.829,505.624 581.168,530.486C585.063,496.535 601.018,483.96 627.982,465.013C643.11,454.383 653.849,435.584 665.962,421.679C676.166,409.965 684.586,406.233 699.933,405.216ZM682.545,426.614C677.02,429.541 676.854,431.376 676.011,437.426C688.149,437.326 695.995,437.432 708.113,439.045C710.389,439.428 712.75,439.789 715.008,440.222C704.687,431.449 696.894,425.264 682.545,426.614ZM703.251,494.208C729.229,492.957 747.034,496.515 770.458,507.045C742.143,506.265 718.436,513.603 693.676,526.696C686.784,530.341 680.289,534.617 673.44,538.397C667.504,541.2 661.666,542.997 655.125,543.712C639.895,545.259 624.664,540.786 612.69,531.249C629.216,506.03 674.409,496.057 703.251,494.208ZM529.888,378.807C531.774,379.586 542.705,388.204 544.92,389.911C542.476,392.331 540.609,394.432 539.184,397.621C537.033,402.356 536.954,407.773 538.968,412.568C541.191,417.975 545.548,422.223 551.009,424.31C555.568,426.044 560.634,425.862 565.057,423.805C570.952,421.034 573.389,416.594 575.403,410.834C580.377,414.026 583.794,416.025 588.976,418.759L585.743,423.595C556.119,463.032 492.94,414.159 529.888,378.807Z" style="fill:rgb(232,198,42);"  data-color="color-2"/>
    </g>
</svg>
