<?xml version="1.0" encoding="UTF-8" standalone="no"?>
<!DOCTYPE svg PUBLIC "-//W3C//DTD SVG 1.1//EN" "http://www.w3.org/Graphics/SVG/1.1/DTD/svg11.dtd">
<svg width="100%" height="100%" viewBox="0 0 648 863" version="1.1" xmlns="http://www.w3.org/2000/svg" xmlns:xlink="http://www.w3.org/1999/xlink" xml:space="preserve" xmlns:serif="http://www.serif.com/" style="fill-rule:evenodd;clip-rule:evenodd;stroke-linejoin:round;stroke-miterlimit:2;">
    <g transform="matrix(1,0,0,1,-270.87,-91.0271)">
        <path d="M366.119,91.094C382.643,90.546 400.902,93.438 417.115,97.803C468.308,111.584 512.534,138.362 545.067,180.573C550.433,187.535 554.951,195.649 559.348,203.189C565.577,204.743 571.795,206.342 578.002,207.985C605.58,215.372 630.462,224.468 648.077,248.638C652.668,254.939 657.928,265.376 662.058,272.537C633.528,270.119 583.922,274.391 556.255,284.187C546.571,287.616 541.187,293.546 537.122,302.824C599.782,345.581 627.185,408.54 659.496,474.102C673.387,502.722 688.551,530.705 704.943,557.969C726.498,593.223 755.887,626.621 785.024,655.897C781.495,655.468 777.783,655.185 774.23,654.843C742.467,651.788 713.578,640.33 684.132,628.746C700.816,655.397 718.528,681.391 737.229,706.669C774.37,758.188 815.259,806.897 859.566,852.4C879.485,873.238 897.356,891.927 918.753,911.282C909.74,909.584 901.021,908.425 892.145,905.937C809.156,882.677 743.993,830.409 691.049,763.777C683.399,754.007 675.883,744.132 668.503,734.156C657.511,719.281 656.541,715.754 640.374,706.117C664.135,770.286 683.054,848.321 670.888,916.622C668.574,928.649 664.588,942.076 661.126,953.817C655.825,936.543 647.062,920.369 640.231,903.805C630.199,879.482 618.934,855.636 609.131,831.256C592.311,789.027 575.763,746.691 559.486,704.25C551.945,684.926 542.285,657.565 533.48,639.617C524.499,650.974 515.723,662.324 507.708,674.393C527.36,684.496 526.276,713.555 509.701,725.985C504.629,729.788 500.042,731.331 494.177,733.511C494.592,729.127 494.419,719.918 491.444,716.72C480.848,705.327 464.269,738.068 465.668,746.009C467.101,754.14 475.178,764.284 480.579,771.075C476.249,772.095 471.886,772.968 467.497,773.694C455.788,775.53 453.311,774.079 442.135,772.167C433.324,770.902 424.706,770.134 417.443,764.276C404.605,753.921 400.421,737.675 404.215,722.082C410.468,694.551 440.558,685.619 458.446,667.395C472.77,652.802 483.209,634.629 495.359,618.372C489.563,616.442 482.376,614.899 476.429,613.402C469.941,611.77 466.809,614.286 460.528,615.455C457.508,616.017 450.439,615.861 447.881,616.535C438.991,618.878 426.676,626.865 419.075,631.889C444.19,653.245 429.356,684.031 402.061,693.991C398.52,695.283 395.316,696.057 391.638,696.921C393.133,685.84 394.059,679.068 390.955,668.18C387.881,668.06 376.031,667.209 374.479,669.049C361.954,683.895 377.322,705.959 384.668,718.318C368.774,719.966 356.914,721.57 342.536,713.703C339.661,712.909 335.739,712.19 332.884,711.684C311.218,707.843 302.082,686.649 305.265,666.414C309.824,639.783 335.886,627.967 357.514,617.788C374.63,609.732 394.628,596.174 409.856,585.21C404.612,580.585 394.839,575.056 388.621,570.897C377.102,563.33 366.031,555.1 355.467,546.248C324.725,520.607 302.262,494.704 285.545,458.19C265.951,415.391 263.669,367.571 292.958,328.269C296.877,323.009 303.384,316.999 306.489,311.693C307.723,309.583 309.401,297.592 309.914,294.501C311.154,286.647 312.609,278.829 314.278,271.054C324.442,224.062 339.279,195.773 369.965,159.3C357.895,145.434 344.214,133.058 329.212,122.435C351.259,116.726 363.94,111.271 387.424,110.857C379.993,102.767 375.644,97.015 366.119,91.094ZM403.05,109.194C433.241,116.454 462.031,126.03 488.047,143.736C509.035,158.02 542.927,189.032 547.692,214.198C549.955,214.504 552.204,214.902 554.435,215.389C564.635,217.529 574.734,220.124 584.703,223.165C608.623,230.416 626.581,238.339 640.617,259.887C613.022,259.951 576.962,263.1 551.069,273.004C538.309,277.885 529.711,285.888 524.279,298.554C524.622,302.95 525.306,306.894 526.019,311.224C580.458,346.091 607.017,396.761 634.872,453.211C661.816,507.818 689.07,564.163 728.001,611.37C735.404,620.347 743.872,629.139 751.873,637.646C743.218,635.816 735.134,634.446 726.614,631.906C695.433,622.608 671.388,608.955 643.712,592.883C651.335,602.576 659.709,617.236 666.857,627.712C678.273,644.446 689.596,661.304 701.194,677.92C743.675,739.229 790.702,797.259 841.879,851.521C854.23,864.383 866.528,877.541 879.843,889.402C864.274,883.366 851.446,879.117 836.083,871.381C786.468,846.399 744.567,809.662 709.268,767.053C692.51,746.824 676.709,725.123 661.554,703.675C657.121,697.402 653.026,690.935 648.279,684.872L647.899,696.152C637.916,690.308 622.588,677.912 612.332,670.384C624.598,699.699 635.847,730.681 645.139,761.093C648.102,771.362 649.961,781.999 652.337,792.377C661.923,834.25 664.515,872.758 658.451,915.24C651.776,900.784 645.454,886.167 639.491,871.403L577.28,715.832L558.093,666.463C552.905,653.111 547.41,639.442 541.006,626.604C539.823,624.23 536.019,621.424 533.849,619.61C525.118,629.034 516.512,640.497 508.779,650.735C501.034,660.989 492.773,670.329 486.953,681.791C497.036,683.497 506.778,685.92 508.417,698.147C509.335,704.996 506.804,710.111 502.63,715.276C500.932,708.885 497.008,701.32 489.698,700.373C471.574,698.024 456.026,727.042 452.367,741.718C450.389,749.656 455.127,756.413 459.43,762.523C455.471,761.551 448.392,760.146 445.147,758.156C438.215,753.905 433.414,743.284 435.121,735.162C436.753,727.391 441.275,718.605 445.492,711.766C434.337,719.953 430.816,726.605 427.444,740.148C425.645,747.379 427.145,750.672 429.916,757.183C419.11,749.765 414.044,741.447 415.977,727.783C418.246,711.743 428.582,705.054 440.867,696.337C449.663,689.491 462.318,682.63 469.341,674.092C484.724,655.392 502.129,632.552 514.665,611.999C507.477,605.478 483.937,600.885 473.431,598.196C461.94,602.358 456.253,601.512 445.873,603.553C436.692,605.357 420.887,617.146 411.944,621.769C409.065,623.258 396.748,631.314 395.939,635.046C396.608,639.754 411.465,638.388 415.927,647.417C422.89,661.509 417.309,671.006 405.419,678.404C406.231,669.002 408.139,657.037 395.513,654.816C386.822,653.287 373.516,653.397 365.955,658.291C362.317,660.645 357.239,673.877 356.338,678.666C354.41,688.959 358.371,698.805 364.097,707.153C360.237,706.199 354.866,705.556 350.603,704.618C336.845,693.555 336.599,671.879 342.459,656.673C330.872,668.23 326.721,683.189 331.983,698.735C329.654,698.053 327.145,697.345 325.379,695.675C318.14,688.826 315.567,675.996 317.967,666.696C324.857,640.002 356.894,634.03 377.412,621.319C393.943,611.077 409.826,600.482 426.253,590.32C416.673,573.621 421.948,576.728 404.546,565.507C398.471,561.582 392.442,557.588 386.458,553.526C369.956,542.257 354.565,529.44 340.495,515.25C290.727,464.414 255.603,384.472 313.848,324.34C315.81,322.315 317.839,320.351 319.853,318.378C328.581,253.026 340.897,208.113 388.879,160.251C379.641,148.217 369.121,135.858 356.577,127.299C377.327,124.404 392.572,124.199 413.29,127.915C410.064,121.536 406.561,115.419 403.05,109.194Z" style="fill:white;"/>
        <path d="M466.89,437.769C470.043,442.376 472.923,447.201 476.195,451.728C486.008,465.116 497.146,477.48 509.441,488.632C531.509,508.694 556.654,524.797 578.414,546.655C604.937,573.299 623.273,598.192 631.857,635.774C634.45,647.127 635.928,654.556 636.026,666.496C624.304,656.575 611.872,647.86 599.55,638.753C587.445,629.705 575.546,620.384 563.862,610.799C565.546,603.633 567.089,596.904 569.235,589.867C562.203,593.652 555.483,595.417 547.754,597.037C515.217,586.103 509.944,577.11 483.247,560.956C492.355,569.491 498.722,576.744 501.989,589.058C488,583.739 475.795,580.608 461.654,576.307C451.952,573.356 439.277,567.275 430.218,562.587C379.856,536.526 329.372,494.916 311.16,439.36C304.998,420.563 300.92,385.297 310.34,367.381C310.306,375.51 310.583,382.608 314.026,390.187L314.894,393.772C309.802,407.96 316.02,433.067 321.999,446.381C342.368,491.737 384.173,521.194 428.878,539.569C435.813,542.419 452.434,545.81 459.494,542.918C464.077,538.431 455.837,525.93 452.73,522.103C467.178,532.299 497.835,546.805 515.768,547.72C522.159,548.046 520.047,534.421 518.868,530.401C516.21,521.335 510.838,512.697 505.607,504.827C491.778,485.627 474.15,468.231 466.896,445.004C466.278,443.024 465.143,439.854 465.939,438.217L466.89,437.769Z" style="fill:rgb(182,78,22);"/>
        <path d="M462.481,361.468C460.51,361.274 460.816,361.016 459.237,361.709C460.134,358.143 462.798,351.764 465.294,349.034C463.986,353.686 463.128,356.629 462.481,361.468Z" style="fill:rgb(5,3,4);"/>
        <path d="M403.05,109.194C433.241,116.454 462.031,126.03 488.047,143.736C509.035,158.02 542.927,189.032 547.692,214.198C549.955,214.504 552.204,214.902 554.435,215.389C564.635,217.529 574.734,220.124 584.703,223.165C608.623,230.416 626.581,238.339 640.617,259.887C613.022,259.951 576.962,263.1 551.069,273.004C538.309,277.885 529.711,285.888 524.279,298.554C524.622,302.95 525.306,306.894 526.019,311.224C580.458,346.091 607.017,396.761 634.872,453.211C661.816,507.818 689.07,564.163 728.001,611.37C735.404,620.347 743.872,629.139 751.873,637.646C743.218,635.816 735.134,634.446 726.614,631.906C695.433,622.608 671.388,608.955 643.712,592.883C651.335,602.576 659.709,617.236 666.857,627.712C678.273,644.446 689.596,661.304 701.194,677.92C743.675,739.229 790.702,797.259 841.879,851.521C854.23,864.383 866.528,877.541 879.843,889.402C864.274,883.366 851.446,879.117 836.083,871.381C786.468,846.399 744.567,809.662 709.268,767.053C692.51,746.824 676.709,725.123 661.554,703.675C657.121,697.402 653.026,690.935 648.279,684.872L647.899,696.152C637.916,690.308 622.588,677.912 612.332,670.384C624.598,699.699 635.847,730.681 645.139,761.093C648.102,771.362 649.961,781.999 652.337,792.377C661.923,834.25 664.515,872.758 658.451,915.24C651.776,900.784 645.454,886.167 639.491,871.403L577.28,715.832L558.093,666.463C552.905,653.111 547.41,639.442 541.006,626.604C539.823,624.23 536.019,621.424 533.849,619.61C525.118,629.034 516.512,640.497 508.779,650.735C501.034,660.989 492.773,670.329 486.953,681.791C497.036,683.497 506.778,685.92 508.417,698.147C509.335,704.996 506.804,710.111 502.63,715.276C500.932,708.885 497.008,701.32 489.698,700.373C471.574,698.024 456.026,727.042 452.367,741.718C450.389,749.656 455.127,756.413 459.43,762.523C455.471,761.551 448.392,760.146 445.147,758.156C438.215,753.905 433.414,743.284 435.121,735.162C436.753,727.391 441.275,718.605 445.492,711.766C434.337,719.953 430.816,726.605 427.444,740.148C425.645,747.379 427.145,750.672 429.916,757.183C419.11,749.765 414.044,741.447 415.977,727.783C418.246,711.743 428.582,705.054 440.867,696.337C449.663,689.491 462.318,682.63 469.341,674.092C484.724,655.392 502.129,632.552 514.665,611.999C507.477,605.478 483.937,600.885 473.431,598.196C461.94,602.358 456.253,601.512 445.873,603.553C436.692,605.357 420.887,617.146 411.944,621.769C409.065,623.258 396.748,631.314 395.939,635.046C396.608,639.754 411.465,638.388 415.927,647.417C422.89,661.509 417.309,671.006 405.419,678.404C406.231,669.002 408.139,657.037 395.513,654.816C386.822,653.287 373.516,653.397 365.955,658.291C362.317,660.645 357.239,673.877 356.338,678.666C354.41,688.959 358.371,698.805 364.097,707.153C360.237,706.199 354.866,705.556 350.603,704.618C336.845,693.555 336.599,671.879 342.459,656.673C330.872,668.23 326.721,683.189 331.983,698.735C329.654,698.053 327.145,697.345 325.379,695.675C318.14,688.826 315.567,675.996 317.967,666.696C324.857,640.002 356.894,634.03 377.412,621.319C393.943,611.077 409.826,600.482 426.253,590.32C416.673,573.621 421.948,576.728 404.546,565.507C398.471,561.582 392.442,557.588 386.458,553.526C369.956,542.257 354.565,529.44 340.495,515.25C290.727,464.414 255.603,384.472 313.848,324.34C315.81,322.315 317.839,320.351 319.853,318.378C328.581,253.026 340.897,208.113 388.879,160.251C379.641,148.217 369.121,135.858 356.577,127.299C377.327,124.404 392.572,124.199 413.29,127.915C410.064,121.536 406.561,115.419 403.05,109.194ZM638.456,619.857C666.275,676.059 703.076,737.02 748.975,780.631C751.854,783.365 758.545,790.28 761.119,791.703C756.009,784.658 749.008,778.122 743.417,770.928C714.43,733.625 688.264,694.21 662.619,654.587C659.871,650.34 641.33,621.523 638.456,619.857ZM538.929,483.997C554.984,502.788 571.66,520.784 591.104,536.144C593.456,538.001 597.68,541.788 600.349,542.633C590.385,532.685 580.692,522.469 571.281,511.997C564.28,504.069 556.936,492.658 549.013,485.85C547.222,484.311 541.489,484.029 538.929,483.997ZM466.89,437.769C457.484,423.123 452.772,402.202 454.225,384.963C454.659,379.823 456.139,373.829 456.931,368.588L459.237,361.709C460.816,361.016 460.51,361.274 462.481,361.468C459.577,390.853 473.041,421.948 491.129,444.584C497.835,452.977 509.157,462.73 518.26,468.897C519.245,470.047 521.387,471.562 522.666,472.553C517.895,455.865 509.414,441.802 503.034,426.63C506.183,430.83 509.233,435.931 512.617,439.916C525.055,454.562 542.249,471.209 561.034,476.385C559.58,472.67 556.886,468.494 554.985,464.944C550.283,456.164 544.001,446.689 539.789,437.836C552.731,452.951 578.416,474.056 596.968,481.31C592.336,470.844 585.079,456.427 578.786,446.983C593.335,460.71 611.976,476.337 631.043,482.999C629.068,477.186 614.489,444.138 611.74,440.433C610.17,436.724 607.648,431.657 605.584,428.007C585.745,392.923 562.199,354.718 527.593,332.388C516.932,325.509 505.757,321.556 493.925,318.034C493.177,315.774 492.631,316.064 490.571,315.335C495.339,313.98 501.219,313.949 506.139,313.91C501.928,294.249 508.121,284.947 522.221,272.047C512.906,271.42 503.787,272.578 494.579,273.708C487.947,275.211 485.216,276.025 479.149,279.024C490.213,266.533 494.884,259.817 507.721,247.92C487.91,258.599 467.486,269.333 449.929,245.715C445.639,239.944 443.852,232.473 443.31,225.365L443.633,217.078C436.77,213.145 426.264,210.248 418.422,209.605C422.186,207.711 426.842,207.155 431.17,206.65C446.4,204.598 459.082,207.08 473.655,211.5C487.301,215.639 501.938,228.948 516.669,223.552C521.823,221.665 523.391,215.437 524.227,210.664C525.085,212.593 525.469,213.952 527.032,215.305C530.053,216.097 531.196,213.752 532.866,211.426C523.437,191.141 489.345,164.964 469.748,153.773C460.601,148.639 451.058,144.244 441.211,140.631C438.603,139.684 435.987,138.758 433.365,137.853C436.251,144.767 438.538,152.086 441.295,158.591C428.157,150.51 418.872,147.632 403.666,144.537C408.523,150.612 413.687,158.98 417.388,165.94C396.116,178.032 383.276,191.364 371.375,212.643C377.894,210.822 383.77,209.237 390.114,206.863C373.548,217.617 363.026,231.491 355.701,249.837C345.973,272.812 340.111,300.955 337.349,325.68C320.435,337.279 314.581,347.035 310.34,367.381C300.92,385.297 304.998,420.563 311.16,439.36C329.372,494.916 379.856,536.526 430.218,562.587C439.277,567.275 451.952,573.356 461.654,576.307C475.795,580.608 488,583.739 501.989,589.058C498.722,576.744 492.355,569.491 483.247,560.956C509.944,577.11 515.217,586.103 547.754,597.037C555.483,595.417 562.203,593.652 569.235,589.867C567.089,596.904 565.546,603.633 563.862,610.799C575.546,620.384 587.445,629.705 599.55,638.753C611.872,647.86 624.304,656.575 636.026,666.496C635.928,654.556 634.45,647.127 631.857,635.774C623.273,598.192 604.937,573.299 578.414,546.655C556.654,524.797 531.509,508.694 509.441,488.632C497.146,477.48 486.008,465.116 476.195,451.728C472.923,447.201 470.043,442.376 466.89,437.769ZM609.647,492.499C615.662,499.98 660.925,548.627 667.596,551.161C658.905,539.793 651.136,528.233 642.835,516.675C638.789,511.043 631.275,499.451 626.462,495.346C620.615,494.203 615.546,493.311 609.647,492.499ZM574.325,487.863C602.984,523.516 633.842,558.515 673.075,582.981C679.564,587.027 686.369,591.366 693.714,593.545C688.658,586.233 680.584,581.52 673.459,576.058C668.779,572.427 664.206,568.659 659.748,564.758C643.389,550.434 627.867,535.179 613.261,519.071C605.326,510.377 597.807,501.211 589.578,492.802C585.45,488.584 579.793,489.316 574.325,487.863ZM597.943,702.378C606.507,733.339 618.129,764.677 627.995,795.312C632.466,809.195 637.691,830.887 643.96,843.619C643.58,838.825 641.619,830.276 640.66,825.317C633.622,788.891 620.513,754.437 606.213,720.34C605.054,717.576 599.604,703.976 597.943,702.378ZM539.018,227.651C528.503,229.748 526.731,233.385 522.754,242.903C520.582,248.102 517.134,253.156 513.079,257.098C529.918,254.042 546.277,248.59 563.486,247.951C568.194,247.776 572.932,247.557 577.643,247.541C588.32,247.569 601.91,248.051 612.191,247.474C596.066,238.755 579.707,235.457 562.054,231.185C554.7,229.405 546.648,227.324 539.018,227.651ZM538.009,233.596C545.265,232.604 557.549,235.715 565.002,237.484C561.645,237.475 558.237,237.396 554.875,237.347C547.62,237.091 538.457,238.294 531.147,239.068C534.065,236.339 534.578,235.767 538.009,233.596ZM466.832,230.372C469.662,230.11 472.633,229.329 471.553,225.827C470.121,224.443 469.801,224.498 467.877,224.142C467.596,222.916 467.855,222.822 466.946,222.411C463.587,220.894 458.945,219.696 455.426,218.655C452.829,224.647 452.179,229.45 454.603,235.889C456.875,241.954 461.504,246.841 467.438,249.437C478.182,254.068 491.369,249.611 498.999,241.249L493.142,236.151C485.952,252.268 468.497,247.075 466.832,230.372Z" style="fill:rgb(0,30,65);"/>
        <path d="M456.931,368.588C456.139,373.829 454.659,379.823 454.225,384.963C452.772,402.202 457.484,423.123 466.89,437.769L465.939,438.217C465.143,439.854 466.278,443.024 466.896,445.004C474.15,468.231 491.778,485.627 505.607,504.827C510.838,512.697 516.21,521.335 518.868,530.401C520.047,534.421 522.159,548.046 515.768,547.72C497.835,546.805 467.178,532.299 452.73,522.103C455.837,525.93 464.077,538.431 459.494,542.918C452.434,545.81 435.813,542.419 428.878,539.569C384.173,521.194 342.368,491.737 321.999,446.381C316.02,433.067 309.802,407.96 314.894,393.772C323.296,415.234 338.712,428.624 357.54,441.042C374.41,425.411 391.481,406.162 407.161,389.221C430.125,364.411 448.376,336.212 478.963,320.169C481.985,318.637 484.438,317.574 487.575,316.273L490.571,315.335C492.631,316.064 493.177,315.774 493.925,318.034C480.29,324.523 471.608,335.771 465.294,349.034C462.798,351.764 460.134,358.143 459.237,361.709L456.931,368.588ZM466.832,230.372C468.497,247.075 485.952,252.268 493.142,236.151L498.999,241.249C491.369,249.611 478.182,254.068 467.438,249.437C461.504,246.841 456.875,241.954 454.603,235.889C452.179,229.45 452.829,224.647 455.426,218.655C458.945,219.696 463.587,220.894 466.946,222.411C467.855,222.822 467.596,222.916 467.877,224.142C466.036,226.94 465.639,227.205 466.832,230.372Z" style="fill:rgb(223,96,23);"/>
        <path d="M355.701,249.837C363.026,231.491 373.548,217.617 390.114,206.863C383.77,209.237 377.894,210.822 371.375,212.643C383.276,191.364 396.116,178.032 417.388,165.94C413.687,158.98 408.523,150.612 403.666,144.537C418.872,147.632 428.157,150.51 441.295,158.591C438.538,152.086 436.251,144.767 433.365,137.853C435.987,138.758 438.603,139.684 441.211,140.631C451.058,144.244 460.601,148.639 469.748,153.773C489.345,164.964 523.437,191.141 532.866,211.426C531.196,213.752 530.053,216.097 527.032,215.305C525.469,213.952 525.085,212.593 524.227,210.664C523.391,215.437 521.823,221.665 516.669,223.552C501.938,228.948 487.301,215.639 473.655,211.5C459.082,207.08 446.4,204.598 431.17,206.65C426.842,207.155 422.186,207.711 418.422,209.605C414.82,211.211 411.528,213.282 408.146,215.306C420.964,215.877 430.398,218.175 442.781,221.038C442.824,222.532 442.618,224.281 443.31,225.365C443.852,232.473 445.639,239.944 449.929,245.715C467.486,269.333 487.91,258.599 507.721,247.92C494.884,259.817 490.213,266.533 479.149,279.024C485.216,276.025 487.947,275.211 494.579,273.708C494.529,274.682 494.616,275.467 493.78,276.076C484.189,283.064 476.083,289.723 467.434,297.81C456.289,308.231 448.304,320.34 437.927,331.008C451.577,324.098 464.002,316.933 479.675,315.653C482.147,315.451 485.366,315.11 487.575,316.273C484.438,317.574 481.985,318.637 478.963,320.169C448.376,336.212 430.125,364.411 407.161,389.221C391.481,406.162 374.41,425.411 357.54,441.042C338.712,428.624 323.296,415.234 314.894,393.772L314.026,390.187C315.58,381.296 314.309,375.282 317.672,365.799C328.042,336.554 345.518,328.284 374.29,337.925C366.238,321.465 359.523,302.628 363.385,284.196C360.683,290.855 357.945,296.868 355.375,303.674C352.52,290.994 353.108,277.086 354.537,264.212C354.876,261.159 356.71,252.048 355.701,249.837ZM467.877,224.142C469.801,224.498 470.121,224.443 471.553,225.827C472.633,229.329 469.662,230.11 466.832,230.372C465.639,227.205 466.036,226.94 467.877,224.142Z" style="fill:white;"/>
        <path d="M539.018,227.651C546.648,227.324 554.7,229.405 562.054,231.185C579.707,235.457 596.066,238.755 612.191,247.474C601.91,248.051 588.32,247.569 577.643,247.541C572.932,247.557 568.194,247.776 563.486,247.951C546.277,248.59 529.918,254.042 513.079,257.098C517.134,253.156 520.582,248.102 522.754,242.903C526.731,233.385 528.503,229.748 539.018,227.651ZM538.009,233.596C534.578,235.767 534.065,236.339 531.147,239.068C538.457,238.294 547.62,237.091 554.875,237.347C558.237,237.396 561.645,237.475 565.002,237.484C557.549,235.715 545.265,232.604 538.009,233.596ZM638.456,619.857C641.33,621.523 659.871,650.34 662.619,654.587C688.264,694.21 714.43,733.625 743.417,770.928C749.008,778.122 756.009,784.658 761.119,791.703C758.545,790.28 751.854,783.365 748.975,780.631C703.076,737.02 666.275,676.059 638.456,619.857ZM597.943,702.378C599.604,703.976 605.054,717.576 606.213,720.34C620.513,754.437 633.622,788.891 640.66,825.317C641.619,830.276 643.58,838.825 643.96,843.619C637.691,830.887 632.466,809.195 627.995,795.312C618.129,764.677 606.507,733.339 597.943,702.378ZM611.74,440.433C614.489,444.138 629.068,477.186 631.043,482.999C611.976,476.337 593.335,460.71 578.786,446.983C585.079,456.427 592.336,470.844 596.968,481.31C578.416,474.056 552.731,452.951 539.789,437.836C544.001,446.689 550.283,456.164 554.985,464.944C556.886,468.494 559.58,472.67 561.034,476.385C542.249,471.209 525.055,454.562 512.617,439.916C509.233,435.931 506.183,430.83 503.034,426.63C509.414,441.802 517.895,455.865 522.666,472.553C521.387,471.562 519.245,470.047 518.26,468.897C515.259,458.67 508.424,447.324 504.915,437.028C498.636,418.605 492.611,400.125 485.761,381.89C497.017,398.832 516.052,421.146 538.457,419.668C536.479,414.423 530.368,404.379 527.365,398.389C535.567,404.507 542.858,412.249 551.282,418.18C555.655,421.26 570.949,431.71 576.534,429.625C577.15,426.661 567.417,411.905 565.427,408.674C575.367,418.895 597.953,437.251 611.74,440.433ZM574.325,487.863C579.793,489.316 585.45,488.584 589.578,492.802C597.807,501.211 605.326,510.377 613.261,519.071C627.867,535.179 643.389,550.434 659.748,564.758C664.206,568.659 668.779,572.427 673.459,576.058C680.584,581.52 688.658,586.233 693.714,593.545C686.369,591.366 679.564,587.027 673.075,582.981C633.842,558.515 602.984,523.516 574.325,487.863ZM609.647,492.499C615.546,493.311 620.615,494.203 626.462,495.346C631.275,499.451 638.789,511.043 642.835,516.675C651.136,528.233 658.905,539.793 667.596,551.161C660.925,548.627 615.662,499.98 609.647,492.499ZM538.929,483.997C541.489,484.029 547.222,484.311 549.013,485.85C556.936,492.658 564.28,504.069 571.281,511.997C580.692,522.469 590.385,532.685 600.349,542.633C597.68,541.788 593.456,538.001 591.104,536.144C571.66,520.784 554.984,502.788 538.929,483.997Z" style="fill:rgb(60,80,93);"/>
        <path d="M310.34,367.381C314.581,347.035 320.435,337.279 337.349,325.68C340.111,300.955 345.973,272.812 355.701,249.837C356.71,252.048 354.876,261.159 354.537,264.212C353.108,277.086 352.52,290.994 355.375,303.674C357.945,296.868 360.683,290.855 363.385,284.196C359.523,302.628 366.238,321.465 374.29,337.925C345.518,328.284 328.042,336.554 317.672,365.799C314.309,375.282 315.58,381.296 314.026,390.187C310.583,382.608 310.306,375.51 310.34,367.381ZM494.579,273.708C503.787,272.578 512.906,271.42 522.221,272.047C508.121,284.947 501.928,294.249 506.139,313.91C501.219,313.949 495.339,313.98 490.571,315.335L487.575,316.273C485.366,315.11 482.147,315.451 479.675,315.653C464.002,316.933 451.577,324.098 437.927,331.008C448.304,320.34 456.289,308.231 467.434,297.81C476.083,289.723 484.189,283.064 493.78,276.076C494.616,275.467 494.529,274.682 494.579,273.708ZM493.925,318.034C505.757,321.556 516.932,325.509 527.593,332.388C562.199,354.718 585.745,392.923 605.584,428.007C607.648,431.657 610.17,436.724 611.74,440.433C597.953,437.251 575.367,418.895 565.427,408.674C567.417,411.905 577.15,426.661 576.534,429.625C570.949,431.71 555.655,421.26 551.282,418.18C542.858,412.249 535.567,404.507 527.365,398.389C530.368,404.379 536.479,414.423 538.457,419.668C516.052,421.146 497.017,398.832 485.761,381.89C492.611,400.125 498.636,418.605 504.915,437.028C508.424,447.324 515.259,458.67 518.26,468.897C509.157,462.73 497.835,452.977 491.129,444.584C473.041,421.948 459.577,390.853 462.481,361.468C463.128,356.629 463.986,353.686 465.294,349.034C471.608,335.771 480.29,324.523 493.925,318.034ZM418.422,209.605C426.264,210.248 436.77,213.145 443.633,217.078L443.31,225.365C442.618,224.281 442.824,222.532 442.781,221.038C430.398,218.175 420.964,215.877 408.146,215.306C411.528,213.282 414.82,211.211 418.422,209.605Z" style="fill:rgb(153,159,164);"/>
    </g>
</svg>
