<svg width="100%" height="100%" viewBox="0 0 753 873" version="1.1" xmlns="http://www.w3.org/2000/svg" xmlns:xlink="http://www.w3.org/1999/xlink" xml:space="preserve" xmlns:serif="http://www.serif.com/" style="fill-rule:evenodd;clip-rule:evenodd;stroke-linejoin:round;stroke-miterlimit:2;">
    <g transform="matrix(1,0,0,1,-141.023,-77.4155)">
        <path d="M541.301,91.217C553.278,90.167 579.234,93.955 591.071,95.801C620.274,100.356 651.453,109.318 676.973,124.592C718.885,149.676 739.67,185.684 793.575,187.349C788.482,193.704 785.27,196.744 778.717,201.468C791.613,209.018 803.373,217.592 809.69,231.494C823.013,260.816 817.252,294.309 806.952,323.404C818.362,341.637 829.103,358.453 838.803,378.011C868.607,438.108 886.994,509.689 878.327,576.974C876.747,589.239 873.079,602.245 869.26,613.85C865.2,603.38 857.317,587.99 850.004,579.359C850.005,589.445 848.765,598.366 846.31,608.125C825.84,689.486 772.009,764.639 700.447,808.348C702.767,799.009 704.333,790.108 706.119,780.664C679.464,804.738 652.726,825.62 621.514,843.74C571.695,872.662 532.374,885.696 494.565,931.646C484.973,925.868 478.281,921.51 469.246,914.885C435.642,889.647 401.036,843.683 383.973,805.425C384.338,834.095 377.096,851.867 359.147,874.274C338.036,828.218 304.612,800.398 269.332,766.513C222.855,721.875 182.354,652.451 181.971,586.266C175.188,596.772 172.362,603.2 167.387,614.501C164.196,607.355 160.42,594.129 158.644,586.425C138.796,500.327 181.561,400.22 226.664,328.587C223.788,322.65 221.333,316.518 219.318,310.236C211.499,286.241 208.373,253.23 220.327,229.967C226.789,217.392 236.291,210.721 249.439,206.49C245.225,202.948 241.261,199.117 237.576,195.026C273.128,186.989 295.314,163.05 322.751,141.744C359.527,113.185 414.726,100.925 456.886,124.878C479.305,99.711 509.29,93.16 541.301,91.217ZM781.952,246.916C766.654,215.725 727.359,224.151 702.255,236.692C690.675,242.477 678.578,251.103 669.084,260.048L668.983,260.622C672.285,261.981 676.98,262.917 679.571,264.07C687.299,267.508 696.555,271.411 703.09,276.686C707.321,272.426 712.897,267.131 718.104,264.152C785.581,225.546 771.802,297.058 744.422,330.416C720.149,312.626 703.247,304.146 673.404,297.969C714.212,317.748 740.14,350.374 760.034,390.205C765.903,401.712 771.015,413.589 775.338,425.762C777.06,430.853 778.734,435.961 780.36,441.084C760.881,422.948 747.395,406.809 723.252,393.276C720.707,391.707 718.278,390.204 715.662,388.751L722.293,396.386C726.538,402.7 731.291,408.364 735.633,415.053C748.075,434.643 757.841,455.809 764.672,477.988C779.528,525.763 780.896,581.932 757.145,627.099C757.34,580.509 748.071,540.923 720.67,502.495C725.181,518.414 726.219,541.218 726.044,557.669C725.464,612.419 700.873,675.572 661.356,713.953C675.386,678.395 682.374,632.262 672.839,595.022C666.469,658.42 626.78,724.824 579.216,766.184C548.824,792.612 511.677,816.024 491.949,852.322C487.909,859.755 485.098,869.861 482.655,878.051C501.494,851.348 545.679,832.893 575.001,818.739C592.831,810.201 610.094,800.527 626.683,789.777C679.235,756.343 717.765,717.382 740.558,658.682C744.254,683.093 746.001,699.446 740.251,724.256C751.201,713.383 762.386,696.963 770.106,683.657C800.028,632.084 816.538,571.84 810.756,512.076C808.882,492.706 805.552,479.138 800.652,460.675C822.805,478.665 836.206,493.321 849.923,518.698C845.196,493.829 841.652,482.437 833.128,458.547C815.625,409.493 797.578,378.147 760.751,342.166C770.055,331.193 777.148,318.524 781.639,304.857C787.349,287.491 790.46,263.898 781.952,246.916ZM343.012,187.713C329.685,188.544 321.994,189.796 309.324,194.56C328.952,199.571 348.439,207.685 366.976,215.807C377.634,220.476 389.692,225.649 399.908,231.03C406.569,234.621 414.197,238.796 420.461,243.082C405.324,210.159 381.148,186.816 343.012,187.713ZM537.535,124.758C495.427,134.105 467.764,159.325 465.484,203.205C465.266,207.396 464.922,213.339 464.34,217.42C463.438,216.268 461.162,204.449 460.577,201.98C445.171,136.958 405.923,134.369 349.686,150.672C355.25,151.131 358.643,151.649 364.204,153.014C375.598,155.832 386.515,160.311 396.603,166.308C432.789,187.655 445.983,222.638 463.486,258.265C468.514,268.501 474.923,279.263 480.799,289.006C481.62,280.947 484.439,272.397 486.006,264.394C498.665,199.776 526.818,138.92 596.979,120.37C581.688,119.062 552.214,120.457 537.535,124.758ZM279.936,363.42C213.446,400.739 187.552,471.762 182.841,544.212C190.655,531.179 200.403,519.407 211.75,509.299C208.491,544.759 209.484,569.079 217.348,604.304C218.532,608.746 219.849,613.391 220.887,617.849C223.198,567.66 228.167,526.01 249.958,479.604C255.053,468.754 261.296,456.355 268.807,447.043C254.682,453.27 244.349,458.614 231.869,467.869C235.784,445.755 253.678,408.444 264.812,388.443C267.419,383.761 280.49,364.14 280.444,363.566L279.936,363.42ZM279.259,542.388C254.068,581.916 246.716,634.747 256.673,680.338C267.347,729.215 297.215,752.146 329.751,786.006C336.338,792.861 346.162,803.475 351.718,811.261L351.617,810.662C350.745,805.279 350.544,799.901 349.654,794.383C348.341,786.25 346.487,778.966 344.336,771.044C333.442,735.961 318.128,703.731 312.261,667.144C310.958,659.023 308.751,650.934 307.639,642.684C300.456,668.262 301.211,685.205 302.69,711.466C276.462,660.984 267.473,605.666 278.279,549.735C278.574,548.209 279.998,543.304 279.259,542.388ZM359.727,476.315C350.262,488.864 335.916,510.425 329.887,525.067C340.057,535.248 353.102,543.498 366.466,548.875C349.875,549.173 340.275,549.711 325.053,541.757C324.845,548.665 324.601,554.262 325.628,561.156C341.788,572.886 358.41,576.244 377.571,579.287C360.882,583.276 347.591,584.66 330.558,580.914C347.829,613.758 373.527,621.775 406.739,604.162C414.367,600.117 421.25,595.376 427.008,588.826C427.035,584.598 427.143,580.264 426.825,576.056C423.078,570.13 417.952,568.026 413.36,562.087C408.728,556.097 398.823,539.662 392.471,536.412C390.985,538.135 391.469,543.007 391.524,545.505C377.534,537.617 364.88,528.727 366.744,510.487C367.843,504.88 370.535,496.909 373.449,492.007C374.065,499.198 374.67,503.324 377.881,509.917C390.923,500.558 402.9,510.122 416.517,512.862C429.923,515.559 442.459,513.163 455.613,510.178C471.688,506.464 483.116,504.481 495.305,517.969C495.919,518.545 496.205,519.091 496.806,518.937C503.155,517.31 509.54,507.258 513.436,503.103L514.1,503.11C515.692,506.018 515.85,509.816 516.022,513.094C513.298,532.546 500.298,537.701 485.087,547.589C485.097,544.718 485.257,539.936 483.19,537.878C479.024,533.73 471.64,540.477 469.261,543.497C464.785,549.102 462.071,555.747 457.359,561.206C453.763,565.371 448.534,568.3 445.72,573.022C442.829,577.873 444.282,583.934 445.387,589.079C450.797,593.392 457.029,597.785 463.241,600.875C484.082,611.241 516.57,619.711 539.428,617.037C547.312,616.125 554.94,613.673 561.88,609.822C575.285,602.592 582.128,593.133 589.427,580.389C583.868,582.667 579.423,583.711 573.631,585.215C554.347,588.377 535.375,588.131 516.568,582.551C538.816,580.881 559.042,575.121 579.423,566.425C584.184,564.409 588.507,562.249 593.127,559.959C593.132,552.007 592.811,547.791 591.457,539.962C586.871,542.541 582.945,544.192 578.128,546.165C561.912,551.679 539.829,554.022 523.239,548.911C537.837,545.611 559.049,536.132 574.277,531.22L587.259,526.937C580.448,509.362 573.098,498.976 561.882,484.456C575.841,488.87 589.022,495.441 600.948,503.931C628.503,490.682 664.484,474.57 670.77,441.369C671.175,442 671.565,442.642 671.944,443.289C683.35,462.758 684.956,482.051 679.305,503.559C678.112,507.826 676.935,511.292 675.445,515.475C678.15,511.558 680.079,508.256 682.454,504.157C686.075,500.361 692.874,481.058 694.226,475.429C702.36,441.562 690.528,396.665 678.226,364.621C676.277,359.544 672.587,350.514 669.874,345.973C657.334,319.481 639.621,297.19 615.341,280.47C583.851,258.786 547.629,274.169 520.136,294.727C510.566,301.883 494.208,317.297 483.495,320.294C452.377,310.014 416.775,255.06 381.327,274.04C352.374,289.542 319.107,332.391 308.504,363.986C302.331,382.379 304.295,394.264 308.093,411.953C303.992,415.947 301.868,433.246 301.825,439.183C301.672,460.415 310.153,476.523 324.832,491.398C326.364,492.95 327.916,494.481 329.493,495.986C336.429,488.925 350.169,479.722 359.381,475.721L359.775,476.065L359.727,476.315ZM505.952,446.646C499.113,429.858 503.206,420.657 513.275,406.59C510.351,404.664 507.852,402.902 505.132,400.704C487.385,386.357 486.092,363.885 501.111,346.76C497.475,359.047 497.172,377.071 511.52,382.4C530.315,389.38 547.979,368.855 562.196,359.417C569.82,354.355 574.565,351.889 582.862,348.392C571.898,357.588 564.107,370.458 559.002,383.698C565.152,381.054 571.364,378.364 577.526,375.752C606.06,363.662 629.654,349.889 655.863,375.448L658.252,378.789C649.473,378.887 639.871,378.782 631.189,379.653C627.293,400.455 622.602,413.332 605.648,427.319C586.08,439.66 572.491,439.045 550.513,434.075L548.901,433.706C542.749,431.635 534.76,430.157 528.284,428.858C522.722,442.231 519.854,453.707 521.598,468.353C514.137,460.369 511.036,456.446 505.952,446.646ZM603.799,385.059C598.722,386.455 593.02,388.148 587.946,389.388C588.035,396 587.98,401.492 582.863,406.663C579.882,409.692 575.788,411.366 571.538,411.293C564.732,411.165 560.969,407.279 557.286,402.175C552.899,404.496 547.692,407.575 543.633,410.477C544.593,411.219 545.687,412.107 546.656,412.808C557.926,419.731 568.336,423.78 581.709,420.92C598.243,417.384 605.235,401.359 604.716,385.772C604.085,385.014 604.449,385.147 603.799,385.059ZM378.791,473.485C378.757,471.651 382.869,460.676 383.748,458.235C387.111,448.898 390.106,440.252 392.413,430.572C390.739,431.31 389.53,431.944 387.918,432.816C363.638,440.815 343.36,419.296 336.106,398.029C333.88,391.502 333.292,384.811 333.044,377.958C328.037,377.085 321.042,376.077 315.893,375.897C340.917,349.058 355.475,361.779 381.714,376.845C387.477,380.154 394.738,382.911 401.039,385.115C398.882,378.663 396.055,372.48 393.664,366.086C390.649,358.024 389.251,351.166 387.944,342.736C393.513,350.364 399.467,357.683 405.937,364.523C423.186,382.758 429.636,383.627 441.087,361.371C436.958,379.221 434.555,387.554 420.929,400.7C425.429,424.073 409.642,437.701 395.261,453.41C389.389,459.779 383.89,466.482 378.791,473.485ZM355.956,382.895C355.964,394.22 355.337,404.414 364.093,413.248C368.584,417.814 374.764,420.32 381.167,420.172C388.238,419.957 392.86,416.848 398.246,412.86C399.49,411.866 401.007,410.719 402.15,409.658C400.591,408.316 398.785,406.676 397.171,405.453C380.35,416.38 369.903,406.205 369.989,388.033C365.116,386.085 360.9,384.57 355.956,382.895ZM640.838,219.262C613.649,221.907 602.035,228.676 582.242,248.265L582.209,248.869L583.273,248.54C590.846,244.08 638.849,222.702 641.834,219.329C641.025,219.161 641.354,219.114 640.838,219.262ZM433.232,666.206C404.279,668.456 374.19,679.578 377.011,714.597C378.301,730.609 386.729,743.255 397.343,754.855C394.213,738.588 396.665,724.786 403.278,709.817C409.495,745.066 430.801,763.315 460.846,780.208C466.852,764.946 481.098,749.616 493.795,739.339C499.289,734.636 512.256,723.331 518.259,719.805C514.853,734.376 509.557,749.782 499.765,761.448C504.431,758.962 510.973,755.581 515.26,752.635C535.086,739.012 553.754,719.452 560.861,695.992C562.331,691.138 563.386,685.875 564.397,680.931C546.052,705.068 531.817,694.637 510.681,683.221C505.665,680.555 500.515,678.151 495.249,676.02C477.712,668.943 452.337,663.958 433.232,666.206ZM506.792,628.007C512.616,642.751 515.754,653.745 516.014,669.883C519.206,666.661 522.294,663.6 524.793,659.785C530.737,650.599 532.504,644.285 534.291,633.568C522.67,632.55 518.121,631.843 506.792,628.007ZM401.869,653.775C407.889,650.949 414.465,647.741 420.907,646.16C448.348,639.427 478.615,645.302 502.686,659.333C502.408,658.552 502.108,657.779 501.787,657.015C500.551,654.073 497.4,647.385 495.167,645.289C489.861,640.306 478.967,635.683 472.207,632.842C455.002,625.611 436.454,620.756 418.515,628.354C405.715,633.775 406.498,639.87 402.024,650.919C399.364,640.897 399.859,635.568 400.072,625.253C393.722,626.048 387.122,626.982 380.736,627.076C382.879,642.083 387.69,653.207 398.027,664.438C399.259,660.866 400.54,657.312 401.869,653.775ZM520.39,252.217C525.153,246.91 530.065,241.739 535.12,236.709C568.71,203.903 607.023,180.371 655.871,182.848C668.905,183.508 679.489,185.461 692.162,186.747C701.039,187.573 709.947,188.005 718.862,188.04C695.851,176.11 676.964,157.426 651.234,151.862C602.823,141.393 556.997,170.459 533.82,211.844C528.201,221.877 522.133,234.467 519.633,245.476C518.38,249.518 517.177,253.575 516.025,257.646C517.221,256.103 519.086,253.538 520.39,252.217ZM325.961,261.029L334.985,254.867C317.666,240.557 286.811,219.747 262.018,227.131C253.884,229.553 248.381,238.488 245.105,246.066C238.422,265.886 241.551,295.107 250.665,313.845C256.512,325.867 264.393,333.514 276.086,339.711C265.915,317.685 258.063,297.157 259.2,272.271C259.824,258.612 267.778,249.249 281.94,255.331C294.288,260.356 300.645,266.932 309.545,276.256C315.198,270.219 319.404,266.33 325.961,261.029Z" style="fill:rgb(0,31,65);" data-color="color-1"/>
        <path d="M308.093,411.953C304.295,394.264 302.331,382.379 308.504,363.986C319.107,332.391 352.374,289.542 381.327,274.04C416.775,255.06 452.377,310.014 483.495,320.294C494.208,317.297 510.566,301.883 520.136,294.727C547.629,274.169 583.851,258.786 615.341,280.47C639.621,297.19 657.334,319.481 669.874,345.973C667.301,345.691 665.147,343.777 663.249,342.083C650.015,330.274 634.728,326.856 616.955,330.134C626.977,337.717 657.866,362.24 655.863,375.448C629.654,349.889 606.06,363.662 577.526,375.752C571.364,378.364 565.152,381.054 559.002,383.698C564.107,370.458 571.898,357.588 582.862,348.392C574.565,351.889 569.82,354.355 562.196,359.417C547.979,368.855 530.315,389.38 511.52,382.4C497.172,377.071 497.475,359.047 501.111,346.76C486.092,363.885 487.385,386.357 505.132,400.704C507.852,402.902 510.351,404.664 513.275,406.59C503.206,420.657 499.113,429.858 505.952,446.646C504.711,452.103 506.892,461.339 507.609,467.194C509.535,482.921 505.382,505.467 495.305,517.969C483.116,504.481 471.688,506.464 455.613,510.178C442.459,513.163 429.923,515.559 416.517,512.862C402.9,510.122 390.923,500.558 377.881,509.917C374.67,503.324 374.065,499.198 373.449,492.007C373.562,484.824 375.624,479.89 378.791,473.485C383.89,466.482 389.389,459.779 395.261,453.41C409.642,437.701 425.429,424.073 420.929,400.7C434.555,387.554 436.958,379.221 441.087,361.371C429.636,383.627 423.186,382.758 405.937,364.523C399.467,357.683 393.513,350.364 387.944,342.736C389.251,351.166 390.649,358.024 393.664,366.086C396.055,372.48 398.882,378.663 401.039,385.115C394.738,382.911 387.477,380.154 381.714,376.845C355.475,361.779 340.917,349.058 315.893,375.897C321.042,376.077 328.037,377.085 333.044,377.958C333.292,384.811 333.88,391.502 336.106,398.029C343.36,419.296 363.638,440.815 387.918,432.816C386.82,435.908 381.654,438.762 378.669,440.255C354.527,452.33 327.43,443.795 319.938,416.651C318.564,411.673 318.888,406.186 318.98,400.923C316.212,403.454 310.444,411.19 308.093,411.953ZM605.648,427.319C615.454,430.137 637.89,407.201 643.413,399.123C640.665,416.29 636.735,427.773 623.778,440.44C607.389,456.463 585.131,454.794 565.511,446.041C562.083,444.512 549.226,437.812 548.901,433.706L550.513,434.075C572.491,439.045 586.08,439.66 605.648,427.319ZM669.084,260.048C678.578,251.103 690.675,242.477 702.255,236.692C727.359,224.151 766.654,215.725 781.952,246.916C778.3,247.021 771.442,244.017 767.64,243.315C742.462,238.664 717.619,245.616 693.878,253.465C686.965,255.75 676.014,260.457 669.084,260.048ZM433.232,666.206C452.337,663.958 477.712,668.943 495.249,676.02C500.515,678.151 505.665,680.555 510.681,683.221C531.817,694.637 546.052,705.068 564.397,680.931C563.386,685.875 562.331,691.138 560.861,695.992C553.754,719.452 535.086,739.012 515.26,752.635C510.973,755.581 504.431,758.962 499.765,761.448C509.557,749.782 514.853,734.376 518.259,719.805C512.256,723.331 499.289,734.636 493.795,739.339C481.098,749.616 466.852,764.946 460.846,780.208C430.801,763.315 409.495,745.066 403.278,709.817C396.665,724.786 394.213,738.588 397.343,754.855C386.729,743.255 378.301,730.609 377.011,714.597C374.19,679.578 404.279,668.456 433.232,666.206ZM574.277,531.22C559.049,536.132 537.837,545.611 523.239,548.911C539.829,554.022 561.912,551.679 578.128,546.165C579.959,548.522 579.079,562.479 579.423,566.425C559.042,575.121 538.816,580.881 516.568,582.551C535.375,588.131 554.347,588.377 573.631,585.215L574.625,585.697C573.036,594.157 563.825,603.242 561.88,609.822C554.94,613.673 547.312,616.125 539.428,617.037C516.57,619.711 484.082,611.241 463.241,600.875C457.029,597.785 450.797,593.392 445.387,589.079C444.282,583.934 442.829,577.873 445.72,573.022C448.534,568.3 453.763,565.371 457.359,561.206C462.071,555.747 464.785,549.102 469.261,543.497C471.64,540.477 479.024,533.73 483.19,537.878C485.257,539.936 485.097,544.718 485.087,547.589C500.298,537.701 513.298,532.546 516.022,513.094C516.169,513.046 516.317,512.999 516.465,512.952C521.831,513.963 531.151,494.874 532.089,495.082C547.79,498.564 569.661,515.395 574.277,531.22ZM464.34,217.42C464.922,213.339 465.266,207.396 465.484,203.205C467.764,159.325 495.427,134.105 537.535,124.758C536.668,127.501 526.843,132.95 523.999,134.818C501.104,149.854 485.705,171.893 475.396,197.007C473.25,202.237 469.092,213.928 465.593,217.908C464.641,217.903 465.06,218.062 464.34,217.42ZM366.744,510.487C364.88,528.727 377.534,537.617 391.524,545.505C391.469,543.007 390.985,538.135 392.471,536.412C398.823,539.662 408.728,556.097 413.36,562.087C417.952,568.026 423.078,570.13 426.825,576.056C427.143,580.264 427.035,584.598 427.008,588.826C421.25,595.376 414.367,600.117 406.739,604.162C373.527,621.775 347.829,613.758 330.558,580.914C347.591,584.66 360.882,583.276 377.571,579.287C358.41,576.244 341.788,572.886 325.628,561.156C324.601,554.262 324.845,548.665 325.053,541.757C340.275,549.711 349.875,549.173 366.466,548.875C353.102,543.498 340.057,535.248 329.887,525.067C335.916,510.425 350.262,488.864 359.727,476.315C360.924,486.976 360.969,500.686 366.744,510.487ZM245.105,246.066C248.381,238.488 253.884,229.553 262.018,227.131C286.811,219.747 317.666,240.557 334.985,254.867L325.961,261.029C322.64,258.221 314.296,253.625 310.303,251.917C285.491,241.298 270.569,236.733 245.105,246.066Z" style="fill:rgb(247,180,33);"  data-color="color-2"/>
        <path d="M537.772,77.714C551.99,76.374 576.309,79.86 590.089,81.958C628.123,87.634 668.952,100.121 699.884,123.977C736.497,152.214 762.481,181.088 813.984,173.517C810.811,185.763 808.648,190.259 800.915,200.314C808.608,205.935 815.061,213.08 819.872,221.303C839.272,254.692 830.964,288.719 822.012,322.942C843.297,354.878 860.353,389.437 872.754,425.757C895.549,494.171 904.357,576.297 871.09,642.928C865.445,634.573 862.093,626.733 858.358,617.503C856.034,624.106 853.905,630.841 851.61,637.446C828.418,704.206 787.454,762.507 730.367,804.616C716.52,814.83 700.004,825.651 684.293,833.048C684.72,827.323 685.538,821.539 686.265,815.837C665.747,830.085 650.738,842.176 628.349,855.475C579.134,884.708 531.71,900.489 498.323,950.217C491.842,946.234 485.4,942.186 478.999,938.075C439.042,911.531 417.377,885.386 390.699,845.678C383.38,866.699 371.583,882.714 354.943,897.169C343.874,869.759 328.825,843.456 308.45,821.975C290.821,803.389 271.42,786.718 253.72,768.306C222.682,736.02 197.289,697.989 182.157,655.7C178.698,646.034 175.416,636.941 173.399,626.837C170.666,632.089 168.073,636.31 164.961,641.34C157.605,625.076 152.137,611.283 147.712,593.882C124.57,502.882 165.29,405.007 211.532,327.854C195.259,286.521 188.197,232.998 226.951,201.845C222.167,196.666 218.727,191.456 214.818,185.652C266.049,179.94 284.009,153.416 322.456,125.873C358.24,100.237 412.986,89.514 454.149,107.984C478.792,87.197 506.246,79.38 537.772,77.714ZM541.301,91.217C509.29,93.16 479.305,99.711 456.886,124.878C414.726,100.925 359.527,113.185 322.751,141.744C295.314,163.05 273.128,186.989 237.576,195.026C241.261,199.117 245.225,202.948 249.439,206.49C236.291,210.721 226.789,217.392 220.327,229.967C208.373,253.23 211.499,286.241 219.318,310.236C221.333,316.518 223.788,322.65 226.664,328.587C181.561,400.22 138.796,500.327 158.644,586.425C160.42,594.129 164.196,607.355 167.387,614.501C172.362,603.2 175.188,596.772 181.971,586.266C182.354,652.451 222.855,721.875 269.332,766.513C304.612,800.398 338.036,828.218 359.147,874.274C377.096,851.867 384.338,834.095 383.973,805.425C401.036,843.683 435.642,889.647 469.246,914.885C478.281,921.51 484.973,925.868 494.565,931.646C532.374,885.696 571.695,872.662 621.514,843.74C652.726,825.62 679.464,804.738 706.119,780.664C704.333,790.108 702.767,799.009 700.447,808.348C772.009,764.639 825.84,689.486 846.31,608.125C848.765,598.366 850.005,589.445 850.004,579.359C857.317,587.99 865.2,603.38 869.26,613.85C873.079,602.245 876.747,589.239 878.327,576.974C886.994,509.689 868.607,438.108 838.803,378.011C829.103,358.453 818.362,341.637 806.952,323.404C817.252,294.309 823.013,260.816 809.69,231.494C803.373,217.592 791.613,209.018 778.717,201.468C785.27,196.744 788.482,193.704 793.575,187.349C739.67,185.684 718.885,149.676 676.973,124.592C651.453,109.318 620.274,100.356 591.071,95.801C579.234,93.955 553.278,90.167 541.301,91.217ZM603.799,385.059C604.449,385.147 604.085,385.014 604.716,385.772C605.235,401.359 598.243,417.384 581.709,420.92C568.336,423.78 557.926,419.731 546.656,412.808C545.687,412.107 544.593,411.219 543.633,410.477C547.692,407.575 552.899,404.496 557.286,402.175C560.969,407.279 564.732,411.165 571.538,411.293C575.788,411.366 579.882,409.692 582.863,406.663C587.98,401.492 588.035,396 587.946,389.388C593.02,388.148 598.722,386.455 603.799,385.059ZM401.869,653.775C400.54,657.312 399.259,660.866 398.027,664.438C387.69,653.207 382.879,642.083 380.736,627.076C387.122,626.982 393.722,626.048 400.072,625.253C399.859,635.568 399.364,640.897 402.024,650.919L401.869,653.775ZM506.792,628.007C518.121,631.843 522.67,632.55 534.291,633.568C532.504,644.285 530.737,650.599 524.793,659.785C522.294,663.6 519.206,666.661 516.014,669.883C515.754,653.745 512.616,642.751 506.792,628.007ZM355.956,382.895C360.9,384.57 365.116,386.085 369.989,388.033C369.903,406.205 380.35,416.38 397.171,405.453C398.785,406.676 400.591,408.316 402.15,409.658C401.007,410.719 399.49,411.866 398.246,412.86C392.86,416.848 388.238,419.957 381.167,420.172C374.764,420.32 368.584,417.814 364.093,413.248C355.337,404.414 355.964,394.22 355.956,382.895Z" style="fill:white;"/>
        <path d="M679.305,503.559C684.956,482.051 683.35,462.758 671.944,443.289C671.565,442.642 671.175,442 670.77,441.369C664.484,474.57 628.503,490.682 600.948,503.931C589.022,495.441 575.841,488.87 561.882,484.456C573.098,498.976 580.448,509.362 587.259,526.937L574.277,531.22C569.661,515.395 547.79,498.564 532.089,495.082C531.151,494.874 521.831,513.963 516.465,512.952C516.317,512.999 516.169,513.046 516.022,513.094C515.85,509.816 515.692,506.018 514.1,503.11L513.436,503.103C509.54,507.258 503.155,517.31 496.806,518.937C496.205,519.091 495.919,518.545 495.305,517.969C505.382,505.467 509.535,482.921 507.609,467.194C506.892,461.339 504.711,452.103 505.952,446.646C511.036,456.446 514.137,460.369 521.598,468.353C519.854,453.707 522.722,442.231 528.284,428.858C534.76,430.157 542.749,431.635 548.901,433.706C549.226,437.812 562.083,444.512 565.511,446.041C585.131,454.794 607.389,456.463 623.778,440.44C636.735,427.773 640.665,416.29 643.413,399.123C637.89,407.201 615.454,430.137 605.648,427.319C622.602,413.332 627.293,400.455 631.189,379.653C639.871,378.782 649.473,378.887 658.252,378.789L655.863,375.448C657.866,362.24 626.977,337.717 616.955,330.134C634.728,326.856 650.015,330.274 663.249,342.083C665.147,343.777 667.301,345.691 669.874,345.973C672.587,350.514 676.277,359.544 678.226,364.621C690.528,396.665 702.36,441.562 694.226,475.429C692.874,481.058 686.075,500.361 682.454,504.157C680.079,508.256 678.15,511.558 675.445,515.475C676.935,511.292 678.112,507.826 679.305,503.559ZM723.252,393.276C747.395,406.809 760.881,422.948 780.36,441.084C778.734,435.961 777.06,430.853 775.338,425.762C771.015,413.589 765.903,401.712 760.034,390.205C740.14,350.374 714.212,317.748 673.404,297.969C703.247,304.146 720.149,312.626 744.422,330.416C771.802,297.058 785.581,225.546 718.104,264.152C712.897,267.131 707.321,272.426 703.09,276.686C696.555,271.411 687.299,267.508 679.571,264.07C676.98,262.917 672.285,261.981 668.983,260.622L669.084,260.048C676.014,260.457 686.965,255.75 693.878,253.465C717.619,245.616 742.462,238.664 767.64,243.315C771.442,244.017 778.3,247.021 781.952,246.916C790.46,263.898 787.349,287.491 781.639,304.857C777.148,318.524 770.055,331.193 760.751,342.166C797.578,378.147 815.625,409.493 833.128,458.547C841.652,482.437 845.196,493.829 849.923,518.698C836.206,493.321 822.805,478.665 800.652,460.675C805.552,479.138 808.882,492.706 810.756,512.076C816.538,571.84 800.028,632.084 770.106,683.657C762.386,696.963 751.201,713.383 740.251,724.256C746.001,699.446 744.254,683.093 740.558,658.682C717.765,717.382 679.235,756.343 626.683,789.777C610.094,800.527 592.831,810.201 575.001,818.739C545.679,832.893 501.494,851.348 482.655,878.051C485.098,869.861 487.909,859.755 491.949,852.322C511.677,816.024 548.824,792.612 579.216,766.184C626.78,724.824 666.469,658.42 672.839,595.022C682.374,632.262 675.386,678.395 661.356,713.953C700.873,675.572 725.464,612.419 726.044,557.669C726.219,541.218 725.181,518.414 720.67,502.495C748.071,540.923 757.34,580.509 757.145,627.099C780.896,581.932 779.528,525.763 764.672,477.988C757.841,455.809 748.075,434.643 735.633,415.053C731.291,408.364 726.538,402.7 722.293,396.386L715.662,388.751C718.278,390.204 720.707,391.707 723.252,393.276ZM520.39,252.217C519.086,253.538 517.221,256.103 516.025,257.646C517.177,253.575 518.38,249.518 519.633,245.476C522.133,234.467 528.201,221.877 533.82,211.844C556.997,170.459 602.823,141.393 651.234,151.862C676.964,157.426 695.851,176.11 718.862,188.04C709.947,188.005 701.039,187.573 692.162,186.747C679.489,185.461 668.905,183.508 655.871,182.848C607.023,180.371 568.71,203.903 535.12,236.709C530.065,241.739 525.153,246.91 520.39,252.217ZM359.727,476.315L359.775,476.065L359.381,475.721C350.169,479.722 336.429,488.925 329.493,495.986C327.916,494.481 326.364,492.95 324.832,491.398C310.153,476.523 301.672,460.415 301.825,439.183C301.868,433.246 303.992,415.947 308.093,411.953C310.444,411.19 316.212,403.454 318.98,400.923C318.888,406.186 318.564,411.673 319.938,416.651C327.43,443.795 354.527,452.33 378.669,440.255C381.654,438.762 386.82,435.908 387.918,432.816C389.53,431.944 390.739,431.31 392.413,430.572C390.106,440.252 387.111,448.898 383.748,458.235C382.869,460.676 378.757,471.651 378.791,473.485C375.624,479.89 373.562,484.824 373.449,492.007C370.535,496.909 367.843,504.88 366.744,510.487C360.969,500.686 360.924,486.976 359.727,476.315ZM402.024,650.919C406.498,639.87 405.715,633.775 418.515,628.354C436.454,620.756 455.002,625.611 472.207,632.842C478.967,635.683 489.861,640.306 495.167,645.289C497.4,647.385 500.551,654.073 501.787,657.015C502.108,657.779 502.408,658.552 502.686,659.333C478.615,645.302 448.348,639.427 420.907,646.16C414.465,647.741 407.889,650.949 401.869,653.775L402.024,650.919ZM578.128,546.165C582.945,544.192 586.871,542.541 591.457,539.962C592.811,547.791 593.132,552.007 593.127,559.959C588.507,562.249 584.184,564.409 579.423,566.425C579.079,562.479 579.959,548.522 578.128,546.165ZM573.631,585.215C579.423,583.711 583.868,582.667 589.427,580.389C582.128,593.133 575.285,602.592 561.88,609.822C563.825,603.242 573.036,594.157 574.625,585.697L573.631,585.215ZM279.259,542.388C279.998,543.304 278.574,548.209 278.279,549.735C267.473,605.666 276.462,660.984 302.69,711.466C301.211,685.205 300.456,668.262 307.639,642.684C308.751,650.934 310.958,659.023 312.261,667.144C318.128,703.731 333.442,735.961 344.336,771.044C346.487,778.966 348.341,786.25 349.654,794.383C350.544,799.901 350.745,805.279 351.617,810.662L351.718,811.261C346.162,803.475 336.338,792.861 329.751,786.006C297.215,752.146 267.347,729.215 256.673,680.338C246.716,634.747 254.068,581.916 279.259,542.388ZM279.936,363.42L280.444,363.566C280.49,364.14 267.419,383.761 264.812,388.443C253.678,408.444 235.784,445.755 231.869,467.869C244.349,458.614 254.682,453.27 268.807,447.043C261.296,456.355 255.053,468.754 249.958,479.604C228.167,526.01 223.198,567.66 220.887,617.849C219.849,613.391 218.532,608.746 217.348,604.304C209.484,569.079 208.491,544.759 211.75,509.299C200.403,519.407 190.655,531.179 182.841,544.212C187.552,471.762 213.446,400.739 279.936,363.42ZM325.961,261.029C319.404,266.33 315.198,270.219 309.545,276.256C300.645,266.932 294.288,260.356 281.94,255.331C267.778,249.249 259.824,258.612 259.2,272.271C258.063,297.157 265.915,317.685 276.086,339.711C264.393,333.514 256.512,325.867 250.665,313.845C241.551,295.107 238.422,265.886 245.105,246.066C270.569,236.733 285.491,241.298 310.303,251.917C314.296,253.625 322.64,258.221 325.961,261.029ZM537.535,124.758C552.214,120.457 581.688,119.062 596.979,120.37C526.818,138.92 498.665,199.776 486.006,264.394C484.439,272.397 481.62,280.947 480.799,289.006C474.923,279.263 468.514,268.501 463.486,258.265C445.983,222.638 432.789,187.655 396.603,166.308C386.515,160.311 375.598,155.832 364.204,153.014C358.643,151.649 355.25,151.131 349.686,150.672C405.923,134.369 445.171,136.958 460.577,201.98C461.162,204.449 463.438,216.268 464.34,217.42C465.06,218.062 464.641,217.903 465.593,217.908C469.092,213.928 473.25,202.237 475.396,197.007C485.705,171.893 501.104,149.854 523.999,134.818C526.843,132.95 536.668,127.501 537.535,124.758ZM343.012,187.713C381.148,186.816 405.324,210.159 420.461,243.082C414.197,238.796 406.569,234.621 399.908,231.03C389.692,225.649 377.634,220.476 366.976,215.807C348.439,207.685 328.952,199.571 309.324,194.56C321.994,189.796 329.685,188.544 343.012,187.713ZM640.838,219.262C641.354,219.114 641.025,219.161 641.834,219.329C638.849,222.702 590.846,244.08 583.273,248.54L582.209,248.869L582.242,248.265C602.035,228.676 613.649,221.907 640.838,219.262Z" style="fill:rgb(220,146,10);"  data-color="color-3"/>
    </g>
</svg>
