<svg width="100%" height="100%" viewBox="0 0 805 860" version="1.1" xmlns="http://www.w3.org/2000/svg" xmlns:xlink="http://www.w3.org/1999/xlink" xml:space="preserve" xmlns:serif="http://www.serif.com/" style="fill-rule:evenodd;clip-rule:evenodd;stroke-linejoin:round;stroke-miterlimit:2;">
    <g transform="matrix(1,0,0,1,-60.4484,-92.9937)">
        <path d="M187.197,573.25C177.419,560.288 171.776,549.944 164.941,535.353C166.236,519.397 170.645,499.2 174.195,483.52C188.493,420.356 211.134,366.779 245.055,311.684C221.131,284.972 204.388,268.246 175.549,247.437C175.01,275.768 176.696,298.202 182.531,326.316C184.262,334.655 186.449,342.661 188.237,350.843C176.983,340.497 168.438,332.087 159.103,319.771C137.184,290.455 124.473,255.285 122.586,218.729C121.725,198.574 124.838,171.997 135.693,154.628C178.87,166.005 205.133,182.595 238.823,212.503C252.327,224.492 266.493,238.52 277.817,252.643C336.755,227.749 404.083,217.036 468.043,216.357C477.661,216.255 493.302,217.877 503.059,218.728C548.762,222.711 597.668,232.046 640.309,249.33L648.359,252.623C686.519,208.517 732.579,167.798 790.821,154.581C808.172,189.564 806.607,231.887 794.413,268.271C783.351,300.454 763.878,329.091 738.013,351.207C747.377,313.598 750.924,285.531 750.461,247.078C724.02,265.41 701.836,287.664 680.674,311.697C718.401,369.998 743.493,436.119 756.344,504.189C758.261,514.341 760.489,524.879 761.93,535.084C755.455,549.295 748.07,561.511 739.575,572.856C736.589,568.095 726.55,524.574 724.03,516.447C723.133,513.556 719.412,501.367 718.745,498.226L718.297,498.994C714.601,505.402 711.856,512.709 708.586,519.548C688.389,561.791 657.285,597.123 620.446,625.656C617.357,628.049 610.411,632.837 610.411,632.837C613.174,645.299 615.602,657.834 617.691,670.428C582.833,687.695 549.209,705.078 513.962,722.063C506.559,725.622 499.192,729.261 491.85,732.944C488.687,734.531 482.362,737.883 479.288,739.016C484.936,718.35 495.453,686.934 519.091,680.936C524.083,682.495 526.582,683.702 531.993,684.784C547.906,680.168 549.807,652.504 537.688,646.682C517.59,637.028 482.591,655.866 463.861,660.739L463.172,660.914C442.522,655.151 411.149,638.609 390.265,645.927C377.325,650.462 377.236,679.344 395.117,684.716C398.602,684.149 404.13,682.147 407.774,681.021C409.687,681.605 411.535,682.385 413.289,683.347C431.905,693.712 441.117,719.701 446.422,738.855C426.027,727.775 402.337,717.45 381.293,706.903L337.654,685.13C328.811,680.676 317.295,674.475 308.336,670.703C310.496,661.09 314.222,641.791 315.71,632.136L315.802,631.326C312.047,630.107 309.642,628.049 306.553,625.656C269.714,597.123 238.61,561.791 218.413,519.548C215.143,512.709 212.398,505.402 208.702,498.994L208.254,498.226C207.587,501.367 203.866,513.556 202.969,516.447C200.449,524.574 190.183,568.489 187.197,573.25ZM503.798,418.096C501.947,411.896 500.438,404.813 498.165,398.903C510.893,388.342 522.752,378.108 536.308,368.596C531.436,382.054 526.766,395.584 522.3,409.183C520.693,414.031 516.157,430.79 512.998,433.285C520.023,446.072 527.942,459.012 535.311,471.68C556.759,447.602 585.953,427.947 618.994,425.556C638.162,424.168 656.691,428.662 674.506,435.301C677.738,436.506 684.238,439.105 687.132,440.913C677.458,444.585 671.445,446.848 662.236,451.607C662.521,473.863 653.959,495.321 638.431,511.268C624.574,525.671 605.356,534.932 585.23,535.172C584.546,535.18 583.862,535.182 583.177,535.179L575.806,560.538C574.908,563.681 572.758,571.915 571.65,574.481C575.317,595.507 572.956,611.037 569.37,631.49C565.163,617.591 560.603,603.801 555.697,590.133C545.387,561.816 534.167,534.435 525.314,505.484C519.821,487.694 515.047,469.689 511.006,451.514C509.252,443.552 505.887,424.644 503.798,418.096ZM264.113,452.036C258.376,448.124 245.482,443.608 238.562,440.737C249.773,435.016 261.281,431.397 273.435,428.33C319.066,416.815 360.095,438.232 390.229,472.065C396.666,460.233 405.451,446.46 412.474,434.689C408.658,429.651 395.039,378.292 392.376,368.45C403.003,378.499 418.618,390.116 427.76,399.583C425.924,405.221 424.359,412.945 422.129,418.19C415.219,454.118 406.065,489.578 394.723,524.362C383.891,556.786 370.067,588.184 360.378,620.999C359.412,624.269 358.478,627.564 357.358,630.786C353.284,614.745 351.618,591.211 354.588,575.165C353.586,573.235 352.978,571.151 352.351,569.076C348.935,557.774 346.024,546.316 342.266,535.119C340.76,535.127 339.253,535.095 337.748,535.022C297.269,532.726 261.541,492.223 264.113,452.036Z" style="fill:rgb(250,168,1);"  data-color="color-2"/>
        <path d="M114.204,121.592C130.117,121.066 144.03,123.637 159.425,127.342C213.704,140.405 255.148,170.436 296.219,206.899C319.738,199.773 344.789,195.416 369.034,191.468C455.613,177.368 544.8,182.219 629.461,206.34C670.615,167.775 722.49,135.334 778.377,124.478C789.581,122.302 803.954,120.323 815.246,122.189C822.429,133.674 827.182,146.536 830.587,159.603C850.559,236.255 822.69,336.849 753.885,381.029C755.635,386.338 759.059,393.902 761.253,399.324C764.923,408.393 768.247,417.598 771.218,426.919C782.595,462.875 790.443,499.854 794.649,537.332C795.869,547.699 796.532,558.28 797.484,568.704C772.114,618.513 739.204,664.104 699.916,703.866C686.467,717.453 673.647,730.246 658.297,741.677C647.601,789.742 625.877,828.997 577.96,848.496C576.914,852.689 574.932,857.633 573.072,861.522C560.223,888.386 539.756,905.6 511.896,915.523C475.891,928.58 436.163,926.727 401.529,910.375C372.53,896.511 358.57,877.959 348.079,848.558C296.874,826.037 281.306,792.699 268.706,742.16C257.478,734.52 243.088,720.757 233.372,711.206C202.761,681.125 175.704,647.63 152.734,611.378C144.014,597.495 136.645,583.614 128.553,569.399C131.547,504.428 146.615,440.583 172.988,381.129C172.625,380.912 172.264,380.692 171.905,380.47C132.888,356.306 105.854,311.378 95.676,267.178C92.874,255.255 90.946,243.144 89.907,230.941C87.435,198.808 91.102,155.691 107.792,127.065C109.673,123.841 110.703,122.349 114.204,121.592ZM187.197,573.25C209.377,604.122 262.731,647.007 294.235,670.042C296.959,664.401 311.894,636.992 315.71,632.136C314.222,641.791 310.496,661.09 308.336,670.703L302.039,715.133L339.512,734.674C347.873,739.069 357.615,744.045 365.52,749.098C346.23,748.024 324.277,745.708 305.354,741.244C308.196,751.727 310.201,757.818 314.966,767.874C323.161,770.333 331.176,772.881 339.425,775.174C348.065,777.575 358.837,779.475 367.032,782.647C353.244,783.64 341.794,785.079 328.196,787.91C331.146,791.238 347.985,809.232 352.558,808.896C358.12,808.486 370.424,801.247 376.183,798.595C392.478,791.204 409.027,784.389 425.802,778.163C431.218,776.135 437.745,773.313 443.137,771.655C461.484,766.013 451.912,752.192 446.422,738.855C441.117,719.701 431.905,693.712 413.289,683.347C411.535,682.385 409.687,681.605 407.774,681.021C404.13,682.147 398.602,684.149 395.117,684.716C377.236,679.344 377.325,650.462 390.265,645.927C411.149,638.609 442.522,655.151 463.172,660.914L463.861,660.739C482.591,655.866 517.59,637.028 537.688,646.682C549.807,652.504 547.906,680.168 531.993,684.784C526.582,683.702 524.083,682.495 519.091,680.936C495.453,686.934 484.936,718.35 479.288,739.016C476.423,750.626 463.076,764.144 481.494,771.104C497.369,777.102 513.099,783.12 528.78,789.66C535.963,792.659 543.083,795.805 550.137,799.097C556.558,802.113 566.662,807.72 572.971,808.956C579.314,807.621 593.726,792.613 597.997,787.555C585.825,785.088 570.807,783.993 558.413,783.855C576.818,778.286 592.922,774.194 611.132,767.534C615.502,758.158 617.622,751.638 619.947,741.813C608.721,744.026 597.416,745.817 586.055,747.184C577.123,748.198 568.206,748.743 559.251,749.817L623.654,715.609C623.162,701.3 619.873,684.646 617.691,670.428C615.602,657.834 613.174,645.299 610.411,632.837C611.233,633.882 612.6,635.927 614.273,638.549C618.085,644.615 623.877,654.26 628.079,661.33C628.455,661.969 628.825,662.592 629.186,663.194C631.154,666.513 632.63,669.027 633.15,669.934C647.294,659.592 665.75,645.403 683.78,629.96C687.892,626.56 692.309,622.63 696.539,618.736C713.903,603.018 729.727,586.564 739.575,572.856C748.07,561.511 755.455,549.295 761.93,535.084C760.489,524.879 758.261,514.341 756.344,504.189C743.493,436.119 718.401,369.998 680.674,311.697C701.836,287.664 724.02,265.41 750.461,247.078C750.924,285.531 747.377,313.598 738.013,351.207C763.878,329.091 783.351,300.454 794.413,268.271C806.607,231.887 808.172,189.564 790.821,154.581C732.579,167.798 686.519,208.517 648.359,252.623L640.309,249.33C597.668,232.046 548.762,222.711 503.059,218.728C493.302,217.877 477.661,216.255 468.043,216.357C404.083,217.036 336.755,227.749 277.817,252.643C266.493,238.52 252.327,224.492 238.823,212.503C205.133,182.595 178.87,166.005 135.693,154.628C124.838,171.997 121.725,198.574 122.586,218.729C124.473,255.285 137.184,290.455 159.103,319.771C168.438,332.087 176.983,340.497 188.237,350.843C186.449,342.661 184.262,334.655 182.531,326.316C176.696,298.202 175.01,275.768 175.549,247.437C204.388,268.246 221.131,284.972 245.055,311.684C211.134,366.779 188.493,420.356 174.195,483.52C170.645,499.2 166.236,519.397 164.941,535.353C171.776,549.944 177.419,560.288 187.197,573.25ZM264.113,452.036C258.376,448.124 245.482,443.608 238.562,440.737C249.773,435.016 261.281,431.397 273.435,428.33C319.066,416.815 360.095,438.232 390.229,472.065C396.666,460.233 405.451,446.46 412.474,434.689C414.472,431.156 420.011,420.822 422.129,418.19C415.219,454.118 406.065,489.578 394.723,524.362C383.891,556.786 370.067,588.184 360.378,620.999C359.412,624.269 358.478,627.564 357.358,630.786C353.284,614.745 351.618,591.211 354.588,575.165C357.138,562.678 360.267,550.316 363.964,538.12C366.776,528.773 370.535,518.175 372.75,508.82C367.049,511.816 363.202,513.657 356.916,515.312C341.573,519.391 325.234,517.132 311.574,509.042C292.333,497.542 284.346,481.513 279.137,460.672C274.206,457.662 269.196,454.782 264.113,452.036ZM297.295,450.733C298.378,475.233 313.447,499.65 340.511,498.496C349.445,498.115 357.9,494.357 364.17,487.983C362.08,482.289 359.67,478.196 355.345,473.871C350.897,479.107 345.266,484.417 338.129,484.371C320.076,484.257 313.976,470.196 313.494,455.473C308.523,453.286 302.705,451.38 297.295,450.733ZM512.998,433.285C520.023,446.072 527.942,459.012 535.311,471.68C556.759,447.602 585.953,427.947 618.994,425.556C638.162,424.168 656.691,428.662 674.506,435.301C677.738,436.506 684.238,439.105 687.132,440.913C677.458,444.585 671.445,446.848 662.236,451.607C656.806,454.508 651.436,457.521 646.13,460.644C642.27,480.094 633.705,495.981 616.912,507.25C603.802,516.101 587.665,519.263 572.184,516.016C564.794,514.486 560.031,512.358 553.299,509.139C560.74,532.049 566.663,550.774 571.65,574.481C575.317,595.507 572.956,611.037 569.37,631.49C565.163,617.591 560.603,603.801 555.697,590.133C545.387,561.816 534.167,534.435 525.314,505.484C519.821,487.694 515.047,469.689 511.006,451.514C509.252,443.552 505.887,424.644 503.798,418.096C506.359,420.946 510.452,429.325 512.998,433.285ZM626.257,451.064C621.028,452.379 616.876,453.542 611.955,455.849C612.194,464.041 611.773,469.975 605.758,476.599C601.479,481.385 595.429,484.212 589.013,484.425C580.121,484.657 575.294,480.051 569.653,474.085C566.275,477.717 562.121,482.472 561.296,487.463C561.722,488.683 561.815,488.605 562.842,489.442C572.323,497.26 582.849,500.275 595.32,497.65C616.055,493.285 627.745,472.316 628.723,452.424C628.742,452.032 628.48,451.512 628.318,451.143C627.157,450.924 627.533,450.958 626.257,451.064ZM462.579,795.447C431.125,808.702 404.656,818.646 373.446,833.966C376.511,846.492 380.985,856.565 390.563,865.534C409.163,882.951 439.214,890.106 464.031,890.163C501.358,889.065 544.529,875.328 552.756,834.051C544.732,829.504 535.893,825.475 527.419,821.79C506.183,812.558 484.37,803.225 462.579,795.447Z" style="fill:rgb(0,20,50);"  data-color="color-1"/>
        <path d="M626.257,451.064C627.533,450.958 627.157,450.924 628.318,451.143C628.48,451.512 628.742,452.032 628.723,452.424C627.745,472.316 616.055,493.285 595.32,497.65C582.849,500.275 572.323,497.26 562.842,489.442C561.815,488.605 561.722,488.683 561.296,487.463C562.121,482.472 566.275,477.717 569.653,474.085C575.294,480.051 580.121,484.657 589.013,484.425C595.429,484.212 601.479,481.385 605.758,476.599C611.773,469.975 612.194,464.041 611.955,455.849C616.876,453.542 621.028,452.379 626.257,451.064ZM297.295,450.733C302.705,451.38 308.523,453.286 313.494,455.473C313.976,470.196 320.076,484.257 338.129,484.371C345.266,484.417 350.897,479.107 355.345,473.871C359.67,478.196 362.08,482.289 364.17,487.983C357.9,494.357 349.445,498.115 340.511,498.496C313.447,499.65 298.378,475.233 297.295,450.733Z" style="fill:rgb(26,145,218);"  data-color="color-4"/>
        <path d="M610.411,632.837C610.411,632.837 617.357,628.049 620.446,625.656C657.285,597.123 688.389,561.791 708.586,519.548C711.856,512.709 714.601,505.402 718.297,498.994L718.745,498.226C719.412,501.367 723.133,513.556 724.03,516.447C726.55,524.574 736.589,568.095 739.575,572.856C729.727,586.564 713.903,603.018 696.539,618.736C692.309,622.63 687.892,626.56 683.78,629.96C665.75,645.403 647.294,659.592 633.15,669.934C632.63,669.027 631.154,666.513 629.186,663.194C628.825,662.592 628.455,661.969 628.079,661.33C623.877,654.26 618.085,644.615 614.273,638.549C612.6,635.927 611.233,633.882 610.411,632.837ZM315.71,632.136C311.894,636.992 296.959,664.401 294.235,670.042C262.731,647.007 209.377,604.122 187.197,573.25C190.183,568.489 200.449,524.574 202.969,516.447C203.866,513.556 207.587,501.367 208.254,498.226L208.702,498.994C212.398,505.402 215.143,512.709 218.413,519.548C238.61,561.791 269.714,597.123 306.553,625.656C309.642,628.049 312.047,630.107 315.802,631.326L315.71,632.136ZM503.798,418.096C501.947,411.896 500.438,404.813 498.165,398.903C510.893,388.342 522.752,378.108 536.308,368.596C531.436,382.054 526.766,395.584 522.3,409.183C520.693,414.031 516.157,430.79 512.998,433.285C510.452,429.325 506.359,420.946 503.798,418.096ZM412.474,434.689C408.658,429.651 395.039,378.292 392.376,368.45C403.003,378.499 418.618,390.116 427.76,399.583C425.924,405.221 424.359,412.945 422.129,418.19C420.011,420.822 414.472,431.156 412.474,434.689Z" style="fill:rgb(247,136,0);"  data-color="color-3"/>
        <path d="M623.373,175.173C666.316,139.607 713.571,106.541 769.587,97.056C788.375,93.875 821.733,87.333 835.507,103.275C858.838,130.28 865.669,175.446 865.38,210.25C865.012,254.394 853.677,300.713 831.26,338.835C819.999,357.647 804.715,375.523 789.217,390.711C792.108,397.741 795.27,408.021 797.661,415.472C811.219,458.224 819.931,502.363 823.635,547.06C825.847,574.568 827.526,572.266 814.243,596.826C784.806,651.254 747.002,698.862 702.299,741.485C696.131,747.351 689.654,752.575 683.428,758.331C681.277,765.544 679.694,772.118 677.182,779.402C666.834,809.406 650.363,833.351 625.588,853.258C617.446,859.8 608.177,864.177 600.604,870.508C599.712,871.253 593.852,883.24 592.022,886.244C580.718,905.163 564.825,920.926 545.813,932.073C478.819,970.955 367.582,953.762 330.633,880.226C328.719,876.417 326.942,872.417 324.805,868.741L324.538,868.288C288.22,849.798 259.541,814.653 248.278,775.627C246.623,769.895 245.183,764.095 243.327,758.428C186.056,710.565 135.823,647.549 103.014,580.16C99.263,572.456 101.29,560.258 101.91,551.241C105.782,494.928 118.739,442.995 137.974,390.238C128.858,381.913 122.929,376.409 114.732,366.859C82.771,329.623 66.2,283.424 61.595,234.709C57.828,194.855 62.515,139.025 88.18,106.195C94.776,97.757 102.769,94.094 113.298,93.203C125.859,92.422 141.369,94.754 153.799,96.95C211.663,107.168 258.148,138.564 303.24,174.859C380.133,157.996 455.81,149.898 533.997,159.542C563.868,163.227 594.229,167.609 623.373,175.173ZM114.204,121.592C110.703,122.349 109.673,123.841 107.792,127.065C91.102,155.691 87.435,198.808 89.907,230.941C90.946,243.144 92.874,255.255 95.676,267.178C105.854,311.378 132.888,356.306 171.905,380.47C172.264,380.692 172.625,380.912 172.988,381.129C146.615,440.583 131.547,504.428 128.553,569.399C136.645,583.614 144.014,597.495 152.734,611.378C175.704,647.63 202.761,681.125 233.372,711.206C243.088,720.757 257.478,734.52 268.706,742.16C281.306,792.699 296.874,826.037 348.079,848.558C358.57,877.959 372.53,896.511 401.529,910.375C436.163,926.727 475.891,928.58 511.896,915.523C539.756,905.6 560.223,888.386 573.072,861.522C574.932,857.633 576.914,852.689 577.96,848.496C625.877,828.997 647.601,789.742 658.297,741.677C673.647,730.246 686.467,717.453 699.916,703.866C739.204,664.104 772.114,618.513 797.484,568.704C796.532,558.28 795.869,547.699 794.649,537.332C790.443,499.854 782.595,462.875 771.218,426.919C768.247,417.598 764.923,408.393 761.253,399.324C759.059,393.902 755.635,386.338 753.885,381.029C822.69,336.849 850.559,236.255 830.587,159.603C827.182,146.536 822.429,133.674 815.246,122.189C803.954,120.323 789.581,122.302 778.377,124.478C722.49,135.334 670.615,167.775 629.461,206.34C544.8,182.219 455.613,177.368 369.034,191.468C344.789,195.416 319.738,199.773 296.219,206.899C255.148,170.436 213.704,140.405 159.425,127.342C144.03,123.637 130.117,121.066 114.204,121.592ZM462.579,795.447C484.37,803.225 506.183,812.558 527.419,821.79C535.893,825.475 544.732,829.504 552.756,834.051C544.529,875.328 501.358,889.065 464.031,890.163C439.214,890.106 409.163,882.951 390.563,865.534C380.985,856.565 376.511,846.492 373.446,833.966C404.656,818.646 431.125,808.702 462.579,795.447ZM446.422,738.855C451.912,752.192 461.484,766.013 443.137,771.655C437.745,773.313 431.218,776.135 425.802,778.163C409.027,784.389 392.478,791.204 376.183,798.595C370.424,801.247 358.12,808.486 352.558,808.896C347.985,809.232 331.146,791.238 328.196,787.91C341.794,785.079 353.244,783.64 367.032,782.647C358.837,779.475 348.065,777.575 339.425,775.174C331.176,772.881 323.161,770.333 314.966,767.874C310.201,757.818 308.196,751.727 305.354,741.244C324.277,745.708 346.23,748.024 365.52,749.098C357.615,744.045 347.873,739.069 339.512,734.674L302.039,715.133L308.336,670.703C317.295,674.475 328.811,680.676 337.654,685.13L381.293,706.903C402.337,717.45 426.027,727.775 446.422,738.855ZM662.236,451.607C662.521,473.863 653.959,495.321 638.431,511.268C624.574,525.671 605.356,534.932 585.23,535.172C584.546,535.18 583.862,535.182 583.177,535.179L575.806,560.538C574.908,563.681 572.758,571.915 571.65,574.481C566.663,550.774 560.74,532.049 553.299,509.139C560.031,512.358 564.794,514.486 572.184,516.016C587.665,519.263 603.802,516.101 616.912,507.25C633.705,495.981 642.27,480.094 646.13,460.644C651.436,457.521 656.806,454.508 662.236,451.607ZM354.588,575.165C353.586,573.235 352.978,571.151 352.351,569.076C348.935,557.774 346.024,546.316 342.266,535.119C340.76,535.127 339.253,535.095 337.748,535.022C297.269,532.726 261.541,492.223 264.113,452.036C269.196,454.782 274.206,457.662 279.137,460.672C284.346,481.513 292.333,497.542 311.574,509.042C325.234,517.132 341.573,519.391 356.916,515.312C363.202,513.657 367.049,511.816 372.75,508.82C370.535,518.175 366.776,528.773 363.964,538.12C360.267,550.316 357.138,562.678 354.588,575.165ZM617.691,670.428C619.873,684.646 623.162,701.3 623.654,715.609L559.251,749.817C568.206,748.743 577.123,748.198 586.055,747.184C597.416,745.817 608.721,744.026 619.947,741.813C617.622,751.638 615.502,758.158 611.132,767.534C592.922,774.194 576.818,778.286 558.413,783.855C570.807,783.993 585.825,785.088 597.997,787.555C593.726,792.613 579.314,807.621 572.971,808.956C566.662,807.72 556.558,802.113 550.137,799.097C543.083,795.805 535.963,792.659 528.78,789.66C513.099,783.12 497.369,777.102 481.494,771.104C463.076,764.144 476.423,750.626 479.288,739.016C482.362,737.883 488.687,734.531 491.85,732.944C499.192,729.261 506.559,725.622 513.962,722.063C549.209,705.078 582.833,687.695 617.691,670.428Z" style="fill:rgb(254,254,254);"/>
    </g>
</svg>
