<svg width="100%" height="100%" viewBox="0 0 764 694" version="1.1" xmlns="http://www.w3.org/2000/svg" xmlns:xlink="http://www.w3.org/1999/xlink" xml:space="preserve" xmlns:serif="http://www.serif.com/" style="fill-rule:evenodd;clip-rule:evenodd;stroke-linejoin:round;stroke-miterlimit:2;">
    <g transform="matrix(1,0,0,1,-130.276,-156.333)">
        <path d="M313.946,156.703C341.422,154.36 359.83,163.653 385.502,170.011C422.169,179.092 444.127,202.358 462.805,234.032C457.742,233.108 449.798,232.583 444.243,231.816C491.357,266.079 497.815,293.813 507.453,347.206C502.821,345.169 497.444,342.178 492.895,339.796C499.485,354.045 509.64,370.48 511.898,385.792C512.388,389.117 512.085,395.505 511.969,399.086C522.185,415.114 532.739,427.329 550.787,434.905C582.657,448.283 617.052,450.883 650.561,457.613C661.457,459.801 674.183,463.7 684.635,467.477C695.463,471.318 705.91,476.157 715.841,481.932C732.387,491.762 746.111,505.218 766.027,508.573C775.026,510.09 784.661,509.076 792.143,503.481C795.197,501.196 798.024,497.651 798.249,493.835C799.911,465.653 736.119,452.173 716.429,447.443C707.104,445.222 697.792,442.953 688.491,440.633C659.286,433.333 626.957,424.204 607.773,399.226C596.489,384.564 591.651,365.944 594.369,347.643C596.899,330.914 605.949,315.866 619.541,305.791C645.766,286.135 682.058,290.646 709.642,304.489C734.6,317.016 752.786,329.456 778.671,309.611C775.805,330.868 764.897,345.731 745.888,355.887C724.884,367.109 702.561,367.803 680.92,357.765C674.676,354.869 667.965,349.848 661.532,347.947C655.286,349.275 651.209,350.615 646.443,355.386C643.539,358.293 640.775,363.965 641.493,368.048C646.707,397.705 699.214,402.627 722.928,408.084C736.329,410.833 749.743,413.665 762.885,417.493C765.705,418.321 768.544,419.188 771.33,420.116C804.413,431.143 844.055,451.134 845.913,490.758C846.678,507.064 842.989,521.482 831.842,533.772C818.774,548.283 800.492,557.032 780.993,558.106C785.199,569.036 788.76,581.112 792.216,592.372C799.75,616.436 809.375,662.075 828.348,678.668C835.333,684.777 846.641,685.549 851.472,693.755C855.735,700.996 855.515,712.385 856.872,720.606C857.86,726.252 859.1,731.85 860.587,737.385C863.305,747.288 866.527,757.045 870.241,766.619C873.481,774.805 880.857,789.393 881.823,797.363C883.402,810.389 880.404,826.168 877.005,838.715C880.709,838.948 892.021,839.699 893.781,843.145C892.029,848.87 866.191,848.801 860.904,848.9C795.209,850.139 729.515,849.971 663.813,850.066L351.28,850.108C302.657,850.217 254.034,850.023 205.414,849.525C195.64,849.404 133.744,850.286 130.276,843.419L130.736,842.396C136.183,838.629 149.119,838.219 155.888,837.876C157.11,824.525 160.607,805.598 170.526,795.552C179.693,786.268 195.401,786.902 207.794,787.029C215.666,779.406 221.221,764.971 224.617,754.823C230.899,736.05 231.86,715.729 233.54,696.119L236.684,661.142C238.355,642.577 240.785,624.088 243.967,605.721C223.393,582.409 207.526,555.894 200.318,525.371C198.575,517.989 197.767,511.066 196.788,503.557C193.603,509.044 189.849,514.848 186.478,520.27C183.082,508.809 181.39,496.911 181.458,484.957C181.382,456.86 189.671,427.199 209.878,406.849C200.885,405.255 198.342,405.52 190.614,410.442C175.327,390.514 164.529,377.89 174.169,352.076C166.861,337.115 161.375,322.255 164.569,305.236C163.424,303.752 162.334,302.273 161.282,300.721C151.643,286.503 168.893,274.86 179.059,268.094C188.82,261.599 198.907,255.989 209.017,250.216C208.158,234.083 217.79,236.081 228.961,229.17C230.771,228.051 234.321,223.669 236.27,221.897C244.239,214.656 252.829,210.102 262.91,206.488C252.557,171.514 285.881,159.516 313.946,156.703ZM342.225,667.785C340.141,676.149 337.175,682.405 333.532,690.108C320.536,717.591 307.97,745.264 296.217,773.306C290.897,785.999 296.744,799.735 283.1,808.828C275.295,814.03 273.351,822.974 271.653,831.518C288.476,830.136 312.547,829.99 329.625,829.925L346.92,829.593C349.85,810.507 355.89,791.582 377.001,786.401C379.541,785.669 388.827,786.299 390.473,784.654C394.641,780.488 397.7,769.538 398.367,763.815C401.725,735.01 394.204,701.392 386.739,673.637C370.418,675.388 357.623,672.754 342.225,667.785ZM651.89,312.184C602.111,319.227 594.655,378.375 633.088,404.317C671.491,430.237 722.718,430.319 765.712,448.122C789.776,458.086 827.198,478.186 805.614,510.96C797.244,523.669 781.8,527.36 767.084,526.958C788.612,538.716 810.62,534.411 822.5,511.901C823.076,510.832 823.605,509.738 824.086,508.623C845.215,451.062 760.477,431.966 721.166,422.037C690.782,414.363 643.417,408.711 627.868,377.952C623.122,368.564 621.866,355.275 625.831,345.453C642.081,306.456 694.24,325.639 724.291,331.425C700.791,320.801 678.671,309.525 651.89,312.184ZM529.75,655.068C517.262,658.353 504.725,661.453 492.145,664.367C491.379,672.843 489.772,682.323 488.541,690.853L482.307,734.099C481.256,741.389 479.698,749.724 479.212,756.924C478.228,771.509 485.504,783.025 479.885,797.821C476.143,807.674 472.204,819.524 470.295,829.953C483.822,829.899 497.35,830.079 510.872,830.494C511.37,825.597 512.059,822.41 513.787,817.742C522.513,798.518 529.826,792.313 551.717,795.541C564.095,795.325 578.083,773.53 582.578,764.762C596.707,737.198 575.877,721.925 559.306,703.259C548.944,691.587 536.549,677.769 532.392,662.632C531.952,661.03 531.076,655.83 530.178,655.094L529.75,655.068ZM417.592,355.379C417.151,393.598 393.249,411.456 370.441,438.096C356.716,454.128 346.324,472.357 342.228,493.268C341.902,494.934 340.365,504.554 341.11,505.671C341.374,505.028 341.886,503.907 342.023,503.279C344.878,493.951 348.483,486.083 354.274,478.152C377.616,446.184 422.412,423.625 422.711,379.186C422.748,373.739 420.798,359.652 417.592,355.379ZM322.291,170.716C308.047,172.462 293.651,177.067 284.426,188.689C278.211,196.52 278.033,202.963 279.747,212.17L279.123,212.525C268.904,218.284 257.449,221.932 247.572,228.872C244.426,231.082 240.364,236.373 238.107,237.577C226.116,243.971 222.835,239.513 220.577,255.342C211.919,260.5 168.371,279.502 172.473,290.216C175.947,293.384 182.706,292.728 187.303,292.447C194.579,292.001 200.697,292.929 207.897,292.866C210.916,292.84 214.83,291.161 216.775,291.728C216.972,293.543 215.043,296.695 213.861,298.12C209.277,303.653 202.632,304.465 196.153,306.305C178.402,311.347 187.241,328.154 196.475,336.747C207.475,345.956 224.792,349.572 239.114,348.625C240.343,348.547 241.572,348.456 242.8,348.353C238.227,346.834 233.676,345.25 229.148,343.601C238.614,342.938 247.762,342.368 256.942,339.628C244.294,336.266 236.119,334.011 222.907,332.352C235.3,331.565 244.144,330.636 256.441,328.593C248.104,325.388 236.842,321.52 228.972,318.128C240.036,318.655 254.903,317.841 265.85,315.595C260.329,313.87 253.874,312.092 248.776,309.537L247.967,309.14L247.485,308.895C267.204,311.797 286.765,315.517 302.387,300.626C297.486,325.03 279.594,336.099 271.096,356.148C297.239,335.548 317.715,328.096 318.184,290.569C327.821,316.881 318.503,336.007 298.708,354.072C274.075,376.551 243.907,409.618 254.434,445.975C281.445,367.237 398.405,379.568 316.714,259.837C336.724,274.711 352.389,295.999 358.477,320.359C362.378,342.304 358.521,359.071 345.564,377.298C321.216,411.55 285.18,424.799 271.226,467.726C266.96,480.695 265.929,494.509 268.221,507.968C269.717,516.821 271.739,522.178 275.318,530.176C268.507,489.307 287.993,457.587 316.334,430.296C306.997,449.625 303.014,463.809 308.043,484.954C315.71,444.64 334.452,432.096 359.914,403.312C384.737,375.25 394.752,339.831 374.194,305.968C390.285,321.952 398.618,334.951 399.244,358.081C414.474,312.758 378.49,297.054 351.043,268.657C343.065,260.402 337.131,252.998 330.711,243.532C345.069,248.758 349.123,257.602 360.992,261.453C355.417,237.455 338.809,226.53 317.482,217.105C331.829,214.345 332.765,211.7 345.25,204.448C360.007,195.878 377.169,192.357 394.072,191.717C367.754,179.205 347.534,182.152 325.001,200.597C333.601,188.274 340.222,182.673 353.883,176.146C330.162,179.083 311.11,185.505 295.62,205.367C294.942,206.239 294.277,207.123 293.627,208.016C296.393,189.467 308.675,181.04 323.05,171.093L322.949,170.622L322.291,170.716ZM277.482,266.525C277.262,262.127 274.024,262.119 270.677,262.691C263.562,263.909 257.715,268.505 251.284,271.366C241.054,273.825 236.619,272.209 226.11,277.316C234.258,270.401 245.126,263.292 252.382,256.677C248.978,254.154 245.253,251.504 241.993,248.841C247.459,250.448 250.095,250.961 255.851,251.034C263.55,251.132 270.309,248.366 277.509,252.133C282.662,254.829 287.708,259.181 292.422,262.737C285.824,263.362 284.032,264.028 278.329,267.855C276.689,269.308 272.214,271.509 270.239,272.462C271.625,270.729 275.433,268.113 277.482,266.525ZM495.926,424.861C495.431,437.466 494.86,446.144 492.44,458.748C491.166,465.384 482.156,487.693 482.393,491.356C484.491,523.843 516.886,544.007 506.712,578.946C527.498,580.904 555.514,573.236 573.99,563.637C582.871,559.023 591.373,553.038 599.136,546.832C594.217,566.126 587.993,576.308 570.439,586.659C568.807,587.612 567.153,588.529 565.48,589.408C610.993,586.663 638.879,561.295 635.673,514.413C635.568,512.895 635.451,511.378 635.322,509.863C648.949,527.032 656.268,551.723 663.889,572.001C672.903,595.986 683.936,621.666 699.5,642.175C712.522,659.334 730.126,673.709 748.782,684.176C771.962,697.18 797.245,705.459 813.361,728.261C821.006,739.078 825.32,751.699 829.068,764.371C831.677,775.284 832.515,780.701 833.037,792.121C842.889,793.616 847.199,794.485 856.048,798.967C848.953,777.286 842.613,755.365 837.04,733.245C834.303,722.353 834.166,706.591 826.245,699.241C818.215,691.791 810.14,684.619 802.649,676.572C794.762,668.124 787.503,659.111 780.93,649.605C763.241,624.466 752.272,596.774 741.12,568.387C739.411,564.038 737.591,559.783 735.592,555.558C741.662,562.91 748.591,570.606 753.907,578.425C762.345,590.836 770.239,603.774 778.378,616.4C768.272,568.798 751.934,527.585 708.73,499.988C685.822,484.468 658.852,479.467 632.188,474.566C603.865,469.36 575.505,464.86 547.932,456.246C525.25,449.16 511.336,443.473 495.926,424.861ZM193.403,350.106C182.366,354.433 179.122,366.4 183.687,376.677C186.209,382.356 188.968,385.81 193.58,389.914C194.988,385.638 195.793,383.286 198.331,379.444C201.056,385.623 203.407,392.436 210.222,394.992C211.18,395.345 212.15,395.667 213.129,395.957C211.724,390.377 210.332,384.849 213.937,379.67L214.679,379.507L215.177,380.193C219.546,387.818 223.114,388.101 231.43,388.785C234.543,379.418 239.035,375.479 247.265,370.647C232.617,369.521 227.785,363.881 215.158,357.011C209.84,354.118 199.45,351.015 193.403,350.106ZM264.421,646.201C258.426,666.081 252.98,686.123 248.089,706.304C245.682,716.662 243.425,727.054 241.321,737.478C237.555,755.951 234.068,776.664 223.463,792.608C228.516,794.479 232.139,796.057 236.993,798.294C213.589,798.515 202.131,803.93 202.633,830.203C207.91,830.233 217.988,830.667 223.024,829.886C237.662,827.616 251.569,809.325 258.431,797.223C260.785,793.072 261.973,787.901 263.625,783.468C270.746,764.468 272.96,745.282 274.555,725.203C275.634,711.61 277.107,697.604 277.101,683.897C277.322,668.655 275.387,658.919 265.237,646.947C264.971,646.632 264.727,646.45 264.421,646.201ZM234.635,423.838C212.967,459.142 215.47,502.411 241.539,534.814L248.566,542.358C237.877,518.454 235.593,498.213 241.389,472.745C236.026,459.66 235.057,450.679 234.885,436.37C234.853,433.707 235.227,425.973 234.635,423.838ZM382.416,208.736C370.557,209.357 359.666,212.918 358.049,226.423C359.052,228.572 360.035,230.772 361.163,232.854C362.397,228.972 363.564,226.807 367.442,224.895C375.754,220.797 389.343,221.781 398.529,222.059C394.502,224.924 391.791,226.969 388.07,230.203C395.505,236.394 397.294,241.626 394.59,251.268C391.632,259.81 388.91,263.012 382.98,269.884C391.515,268.59 397.332,266.719 403.325,258.9C414.342,244.525 413.893,213.228 392.299,209.002C390.028,208.557 384.963,208.725 382.416,208.736ZM412.97,278.752C417.108,286.582 421.435,294.311 425.947,301.931C436.398,319.216 445.971,332.535 451.907,352.356C454.541,361.165 456.148,370.25 456.697,379.428C456.809,381.17 456.686,394.74 456.896,395.046L457.669,393.032C464.024,362.719 462.957,338.332 445.541,311.736C440.426,303.925 421.864,281.472 412.97,278.752ZM475.457,605.416C476.334,610.451 478.337,617.936 477.759,622.796C476.348,634.656 472.724,646.052 470.888,657.99C467.707,678.22 467.929,698.84 471.544,718.997C471.75,717.249 471.968,715.503 472.196,713.759C474.886,687.284 479.728,660.68 484.621,634.543C485.144,631.75 486.079,627.063 485.858,624.312C485.478,619.562 478.261,608.148 475.457,605.416ZM192.489,801.125C177.459,804.1 173.442,816.637 174.107,830.177L185.179,830.107C186.83,830.15 188.352,830.456 189.598,829.544C192.86,817.919 194.526,809.946 202.946,801.151C199.464,801.07 195.965,800.92 192.489,801.125ZM383.318,800.161C368.888,802.78 364.557,816.792 364.797,829.607L374.441,829.559L380.781,829.55C382.075,819.149 384.879,807.77 393.106,800.619C390.193,800.431 386.142,800.058 383.318,800.161ZM314.6,536.839C308.756,552.708 310.138,573.592 317.527,588.719C323.341,600.622 327.652,605.26 336.676,614.444L337.788,615.169C337.29,613.552 332.481,606.381 331.027,603.224C327.013,594.506 323.664,585.714 320.816,576.532C318.3,568.417 316.641,559.806 315.506,551.392C315.078,548.218 315.138,538.905 314.6,536.839ZM828.587,803.674C815.702,805.683 813.898,819.486 813.934,830.411C817.983,830.399 822.343,830.304 826.364,830.464C827.369,829.252 827.535,825.879 827.936,824.022C829.596,816.071 834.118,809.005 840.642,804.166C836.806,803.994 832.378,803.684 828.587,803.674ZM801.118,804.079C789.035,809.018 786.857,818.621 786.948,830.445L795.625,830.398L800.855,830.406C801.493,820.969 803.334,811.73 809.135,804.019C806.546,803.989 803.677,803.874 801.118,804.079ZM426.371,244.352C430.156,260.908 442.045,271.263 454.397,281.844C456.911,283.998 463.388,290.261 465.974,291.721C457.997,274.646 448.542,265.218 435.123,252.537C433.406,250.914 427.913,245.33 426.371,244.352ZM278.447,587.389C285.078,608.581 298.897,627.568 318.737,638.329C320.482,639.276 325.405,641.657 327.214,642.031C314.673,631.906 303.333,620.377 293.417,607.669C290.351,603.819 280.784,589.217 278.447,587.389ZM625.29,617.192C619.677,617.758 614.867,619.033 609.413,620.41C627.669,620.803 640.522,624.2 656.451,633.559L664.595,638.679C657.339,627.611 652.794,620.867 638.703,617.609C635.484,616.865 628.518,616.702 625.29,617.192ZM172.977,310.265C173.891,317.236 176.016,335.727 180.064,340.865L180.806,341.073L181.921,339.468C184.651,333.344 184.609,331.303 182.42,324.344C181.243,320.602 176.092,312.249 172.977,310.265ZM460.367,438.976C450.464,447.666 440.154,455.881 429.471,463.593C420.841,469.926 411.128,476.41 402.992,483.174C385.923,497.362 370.323,516.581 365.466,538.639C360.424,562.093 362.206,590.922 378.482,609.879C386.468,619.18 397.008,624.596 407.503,630.444L401.27,633.595C403.873,670.833 415.29,707.552 414.693,745.092C414.465,759.39 413.259,775.431 409.075,789.082C420.109,790.836 423.924,793.416 431.657,801.266C423.426,799.066 418.692,798.927 410.203,799.663C396.163,804.064 393.938,816.624 393.824,829.528C404.649,829.576 420.533,830.163 430.457,828.817C439.703,827.562 454.018,802.764 455.751,794.445C457.961,783.835 455.806,762.542 455.208,751.158C453.895,729.417 452.929,707.657 452.31,685.885C451.82,666.228 449.23,633.416 465.543,619.614C456.649,599.217 457.996,593.323 461.455,571.239C465.487,545.5 459.094,522.834 440.443,504.087C451.147,486.392 461.318,461.294 460.742,439.673C460.733,439.312 460.583,439.208 460.367,438.976ZM663.31,648.136C647.991,650.747 638.775,662.255 637.074,677.38C635.03,695.549 643.266,712.723 654.339,726.592C657.757,730.87 664.492,739.332 661.428,745.032C656.93,753.4 650.952,761.196 645.699,769.158C637.625,781.531 629.752,794.034 622.083,806.663C617.856,813.621 612.277,822.506 608.715,829.649C648.613,829.523 688.511,830.153 728.385,831.538C740.329,831.954 756.247,831.877 767.797,832.987C770.655,818.543 774.079,803.185 787.171,794.361C793.18,790.31 797.421,790.885 803.288,787.883C804.018,787.51 804.541,786.137 804.65,785.277C806.47,770.856 800.733,756.327 792.872,744.976C777.208,722.356 759.061,717.315 736.686,705.926C726.74,700.832 717.253,694.889 708.329,688.163C697.992,680.425 688.623,671.471 680.424,661.495C677.196,657.606 672.933,651.409 669.718,648.089C667.677,648.077 665.316,647.992 663.31,648.136Z" style="fill:rgb(0,46,0);"  data-color="color-1"/>
        <path d="M495.926,424.861C511.336,443.473 525.25,449.16 547.932,456.246C575.505,464.86 603.865,469.36 632.188,474.566C658.852,479.467 685.822,484.468 708.73,499.988C751.934,527.585 768.272,568.798 778.378,616.4C770.239,603.774 762.345,590.836 753.907,578.425C748.591,570.606 741.662,562.91 735.592,555.558C737.591,559.783 739.411,564.038 741.12,568.387C752.272,596.774 763.241,624.466 780.93,649.605C787.503,659.111 794.762,668.124 802.649,676.572C810.14,684.619 818.215,691.791 826.245,699.241C834.166,706.591 834.303,722.353 837.04,733.245C842.613,755.365 848.953,777.286 856.048,798.967C847.199,794.485 842.889,793.616 833.037,792.121C832.515,780.701 831.677,775.284 829.068,764.371C825.32,751.699 821.006,739.078 813.361,728.261C797.245,705.459 771.962,697.18 748.782,684.176C730.126,673.709 712.522,659.334 699.5,642.175C683.936,621.666 672.903,595.986 663.889,572.001C656.268,551.723 648.949,527.032 635.322,509.863C635.451,511.378 635.568,512.895 635.673,514.413C638.879,561.295 610.993,586.663 565.48,589.408C567.153,588.529 568.807,587.612 570.439,586.659C587.993,576.308 594.217,566.126 599.136,546.832C591.373,553.038 582.871,559.023 573.99,563.637C555.514,573.236 527.498,580.904 506.712,578.946C516.886,544.007 484.491,523.843 482.393,491.356C482.156,487.693 491.166,465.384 492.44,458.748C494.86,446.144 495.431,437.466 495.926,424.861ZM322.291,170.716L322.949,170.622L323.05,171.093C308.675,181.04 296.393,189.467 293.627,208.016C294.277,207.123 294.942,206.239 295.62,205.367C311.11,185.505 330.162,179.083 353.883,176.146C340.222,182.673 333.601,188.274 325.001,200.597C347.534,182.152 367.754,179.205 394.072,191.717C377.169,192.357 360.007,195.878 345.25,204.448C332.765,211.7 331.829,214.345 317.482,217.105C338.809,226.53 355.417,237.455 360.992,261.453C349.123,257.602 345.069,248.758 330.711,243.532C337.131,252.998 343.065,260.402 351.043,268.657C378.49,297.054 414.474,312.758 399.244,358.081C398.618,334.951 390.285,321.952 374.194,305.968C394.752,339.831 384.737,375.25 359.914,403.312C334.452,432.096 315.71,444.64 308.043,484.954C303.014,463.809 306.997,449.625 316.334,430.296C287.993,457.587 268.507,489.307 275.318,530.176C271.739,522.178 269.717,516.821 268.221,507.968C265.929,494.509 266.96,480.695 271.226,467.726C285.18,424.799 321.216,411.55 345.564,377.298C358.521,359.071 362.378,342.304 358.477,320.359C352.389,295.999 336.724,274.711 316.714,259.837C398.405,379.568 281.445,367.237 254.434,445.975C243.907,409.618 274.075,376.551 298.708,354.072C318.503,336.007 327.821,316.881 318.184,290.569C317.715,328.096 297.239,335.548 271.096,356.148C279.594,336.099 297.486,325.03 302.387,300.626C286.765,315.517 267.204,311.797 247.485,308.895L247.967,309.14L248.776,309.537C253.874,312.092 260.329,313.87 265.85,315.595C254.903,317.841 240.036,318.655 228.972,318.128C236.842,321.52 248.104,325.388 256.441,328.593C244.144,330.636 235.3,331.565 222.907,332.352C236.119,334.011 244.294,336.266 256.942,339.628C247.762,342.368 238.614,342.938 229.148,343.601C233.676,345.25 238.227,346.834 242.8,348.353C241.572,348.456 240.343,348.547 239.114,348.625C224.792,349.572 207.475,345.956 196.475,336.747C187.241,328.154 178.402,311.347 196.153,306.305C202.632,304.465 209.277,303.653 213.861,298.12C215.043,296.695 216.972,293.543 216.775,291.728C214.83,291.161 210.916,292.84 207.897,292.866C200.697,292.929 194.579,292.001 187.303,292.447C182.706,292.728 175.947,293.384 172.473,290.216C168.371,279.502 211.919,260.5 220.577,255.342C222.835,239.513 226.116,243.971 238.107,237.577C240.364,236.373 244.426,231.082 247.572,228.872C257.449,221.932 268.904,218.284 279.123,212.525L279.747,212.17C278.033,202.963 278.211,196.52 284.426,188.689C293.651,177.067 308.047,172.462 322.291,170.716ZM277.482,266.525C275.433,268.113 271.625,270.729 270.239,272.462C272.214,271.509 276.689,269.308 278.329,267.855C284.032,264.028 285.824,263.362 292.422,262.737C287.708,259.181 282.662,254.829 277.509,252.133C270.309,248.366 263.55,251.132 255.851,251.034C250.095,250.961 247.459,250.448 241.993,248.841C245.253,251.504 248.978,254.154 252.382,256.677C245.126,263.292 234.258,270.401 226.11,277.316C236.619,272.209 241.054,273.825 251.284,271.366C257.715,268.505 263.562,263.909 270.677,262.691C274.024,262.119 277.262,262.127 277.482,266.525ZM460.367,438.976C460.583,439.208 460.733,439.312 460.742,439.673C461.318,461.294 451.147,486.392 440.443,504.087C459.094,522.834 465.487,545.5 461.455,571.239C457.996,593.323 456.649,599.217 465.543,619.614C449.23,633.416 451.82,666.228 452.31,685.885C452.929,707.657 453.895,729.417 455.208,751.158C455.806,762.542 457.961,783.835 455.751,794.445C454.018,802.764 439.703,827.562 430.457,828.817C420.533,830.163 404.649,829.576 393.824,829.528C393.938,816.624 396.163,804.064 410.203,799.663C418.692,798.927 423.426,799.066 431.657,801.266C423.924,793.416 420.109,790.836 409.075,789.082C413.259,775.431 414.465,759.39 414.693,745.092C415.29,707.552 403.873,670.833 401.27,633.595L407.503,630.444C397.008,624.596 386.468,619.18 378.482,609.879C362.206,590.922 360.424,562.093 365.466,538.639C370.323,516.581 385.923,497.362 402.992,483.174C411.128,476.41 420.841,469.926 429.471,463.593C440.154,455.881 450.464,447.666 460.367,438.976ZM651.89,312.184C678.671,309.525 700.791,320.801 724.291,331.425C694.24,325.639 642.081,306.456 625.831,345.453C621.866,355.275 623.122,368.564 627.868,377.952C643.417,408.711 690.782,414.363 721.166,422.037C760.477,431.966 845.215,451.062 824.086,508.623C823.605,509.738 823.076,510.832 822.5,511.901C810.62,534.411 788.612,538.716 767.084,526.958C781.8,527.36 797.244,523.669 805.614,510.96C827.198,478.186 789.776,458.086 765.712,448.122C722.718,430.319 671.491,430.237 633.088,404.317C594.655,378.375 602.111,319.227 651.89,312.184ZM264.421,646.201C264.727,646.45 264.971,646.632 265.237,646.947C275.387,658.919 277.322,668.655 277.101,683.897C277.107,697.604 275.634,711.61 274.555,725.203C272.96,745.282 270.746,764.468 263.625,783.468C261.973,787.901 260.785,793.072 258.431,797.223C251.569,809.325 237.662,827.616 223.024,829.886C217.988,830.667 207.91,830.233 202.633,830.203C202.131,803.93 213.589,798.515 236.993,798.294C232.139,796.057 228.516,794.479 223.463,792.608C234.068,776.664 237.555,755.951 241.321,737.478C243.425,727.054 245.682,716.662 248.089,706.304C252.98,686.123 258.426,666.081 264.421,646.201ZM417.592,355.379C420.798,359.652 422.748,373.739 422.711,379.186C422.412,423.625 377.616,446.184 354.274,478.152C348.483,486.083 344.878,493.951 342.023,503.279C341.886,503.907 341.374,505.028 341.11,505.671C340.365,504.554 341.902,494.934 342.228,493.268C346.324,472.357 356.716,454.128 370.441,438.096C393.249,411.456 417.151,393.598 417.592,355.379ZM193.403,350.106C199.45,351.015 209.84,354.118 215.158,357.011C227.785,363.881 232.617,369.521 247.265,370.647C239.035,375.479 234.543,379.418 231.43,388.785C223.114,388.101 219.546,387.818 215.177,380.193L214.679,379.507L213.937,379.67C210.332,384.849 211.724,390.377 213.129,395.957C212.15,395.667 211.18,395.345 210.222,394.992C203.407,392.436 201.056,385.623 198.331,379.444C195.793,383.286 194.988,385.638 193.58,389.914C188.968,385.81 186.209,382.356 183.687,376.677C179.122,366.4 182.366,354.433 193.403,350.106ZM234.635,423.838C235.227,425.973 234.853,433.707 234.885,436.37C235.057,450.679 236.026,459.66 241.389,472.745C235.593,498.213 237.877,518.454 248.566,542.358L241.539,534.814C215.47,502.411 212.967,459.142 234.635,423.838ZM382.416,208.736C384.963,208.725 390.028,208.557 392.299,209.002C413.893,213.228 414.342,244.525 403.325,258.9C397.332,266.719 391.515,268.59 382.98,269.884C388.91,263.012 391.632,259.81 394.59,251.268C397.294,241.626 395.505,236.394 388.07,230.203C391.791,226.969 394.502,224.924 398.529,222.059C389.343,221.781 375.754,220.797 367.442,224.895C363.564,226.807 362.397,228.972 361.163,232.854C360.035,230.772 359.052,228.572 358.049,226.423C359.666,212.918 370.557,209.357 382.416,208.736ZM412.97,278.752C421.864,281.472 440.426,303.925 445.541,311.736C462.957,338.332 464.024,362.719 457.669,393.032L456.896,395.046C456.686,394.74 456.809,381.17 456.697,379.428C456.148,370.25 454.541,361.165 451.907,352.356C445.971,332.535 436.398,319.216 425.947,301.931C421.435,294.311 417.108,286.582 412.97,278.752ZM475.457,605.416C478.261,608.148 485.478,619.562 485.858,624.312C486.079,627.063 485.144,631.75 484.621,634.543C479.728,660.68 474.886,687.284 472.196,713.759C471.968,715.503 471.75,717.249 471.544,718.997C467.929,698.84 467.707,678.22 470.888,657.99C472.724,646.052 476.348,634.656 477.759,622.796C478.337,617.936 476.334,610.451 475.457,605.416ZM192.489,801.125C195.965,800.92 199.464,801.07 202.946,801.151C194.526,809.946 192.86,817.919 189.598,829.544C188.352,830.456 186.83,830.15 185.179,830.107L174.107,830.177C173.442,816.637 177.459,804.1 192.489,801.125ZM383.318,800.161C386.142,800.058 390.193,800.431 393.106,800.619C384.879,807.77 382.075,819.149 380.781,829.55L374.441,829.559L364.797,829.607C364.557,816.792 368.888,802.78 383.318,800.161ZM314.6,536.839C315.138,538.905 315.078,548.218 315.506,551.392C316.641,559.806 318.3,568.417 320.816,576.532C323.664,585.714 327.013,594.506 331.027,603.224C332.481,606.381 337.29,613.552 337.788,615.169L336.676,614.444C327.652,605.26 323.341,600.622 317.527,588.719C310.138,573.592 308.756,552.708 314.6,536.839ZM828.587,803.674C832.378,803.684 836.806,803.994 840.642,804.166C834.118,809.005 829.596,816.071 827.936,824.022C827.535,825.879 827.369,829.252 826.364,830.464C822.343,830.304 817.983,830.399 813.934,830.411C813.898,819.486 815.702,805.683 828.587,803.674ZM801.118,804.079C803.677,803.874 806.546,803.989 809.135,804.019C803.334,811.73 801.493,820.969 800.855,830.406L795.625,830.398L786.948,830.445C786.857,818.621 789.035,809.018 801.118,804.079ZM426.371,244.352C427.913,245.33 433.406,250.914 435.123,252.537C448.542,265.218 457.997,274.646 465.974,291.721C463.388,290.261 456.911,283.998 454.397,281.844C442.045,271.263 430.156,260.908 426.371,244.352ZM278.447,587.389C280.784,589.217 290.351,603.819 293.417,607.669C303.333,620.377 314.673,631.906 327.214,642.031C325.405,641.657 320.482,639.276 318.737,638.329C298.897,627.568 285.078,608.581 278.447,587.389ZM625.29,617.192C628.518,616.702 635.484,616.865 638.703,617.609C652.794,620.867 657.339,627.611 664.595,638.679L656.451,633.559C640.522,624.2 627.669,620.803 609.413,620.41C614.867,619.033 619.677,617.758 625.29,617.192ZM172.977,310.265C176.092,312.249 181.243,320.602 182.42,324.344C184.609,331.303 184.651,333.344 181.921,339.468L180.806,341.073L180.064,340.865C176.016,335.727 173.891,317.236 172.977,310.265Z" style="fill:rgb(244,220,180);"  data-color="color-2"/>
    </g>
</svg>
