<?xml version="1.0" encoding="UTF-8" standalone="no"?>
<!DOCTYPE svg PUBLIC "-//W3C//DTD SVG 1.1//EN" "http://www.w3.org/Graphics/SVG/1.1/DTD/svg11.dtd">
<svg width="100%" height="100%" viewBox="0 0 1111 487" version="1.1" xmlns="http://www.w3.org/2000/svg" xmlns:xlink="http://www.w3.org/1999/xlink" xml:space="preserve" xmlns:serif="http://www.serif.com/" style="fill-rule:evenodd;clip-rule:evenodd;stroke-linejoin:round;stroke-miterlimit:2;">
    <g transform="matrix(1,0,0,1,-210.639,-285.356)">
        <path d="M1119.03,658.244C1118.9,658.376 1118.78,658.516 1118.66,658.667C1120.6,663.575 1142.58,663.293 1150.52,666.243C1154.54,671.653 1162.82,684.318 1165.13,690.393C1163.95,702.009 1159.36,714.612 1146.22,716.658C1143.41,714.227 1146,712.707 1143.04,711.487C1136.42,712.873 1127.56,721.346 1123.53,719.931C1122.47,718.054 1122.12,716.615 1119.75,716.088C1114.34,714.884 1104.45,719.018 1099.43,721.132C1092.02,713.999 1080.02,718.708 1072.42,711.865C1062.92,703.311 1044.84,687.707 1038.62,676.844C1027.66,657.719 1024.64,658.448 1005.88,646.963C992.693,638.747 979.28,630.899 965.656,623.429C952.063,616.027 931.849,607.133 920.212,597.315C913.759,591.871 911.312,574.07 911.03,565.646C910.375,565.937 898.142,582.53 895.106,584.806C890.923,587.942 801.174,597.225 757.524,591.163C752.84,612.729 746.2,642.017 726.419,654.86C694.328,675.696 633.647,667.218 615.427,685.548C611.106,689.895 609.424,696.096 608.14,701.915C606.912,707.481 605.851,713.157 605.801,718.87C612.766,718.719 618.346,718.087 624.967,720.701C639.516,726.446 643.842,742.699 636.657,756.01C615.933,756.04 594.568,756.343 573.895,756.006C569.03,750.139 559.102,736.43 556.947,728.875C555.666,724.385 559.814,712.492 560.983,707.555C562.149,704.181 563.09,697.666 563.957,694.623C566.131,686.992 568.378,656.334 572.947,651.528C587.656,636.057 608.14,636.018 622.66,616.707L619.797,601.343C602.214,620.552 581.371,643.911 557.579,655.106C536.113,665.087 512.964,670.95 489.336,672.389C471.378,673.527 452.826,671.818 438.517,684.41C430.666,691.319 413.964,709.203 414.085,720.192C415.336,722.125 414.514,721.514 416.443,722.311C432.642,727.391 435.463,751.489 425.659,760.299L424.235,760.619C422.288,758.926 421.413,748.134 419.928,743.232C419.262,751.052 419.116,753.439 415.968,760.743L397.144,760.722C396.182,751.877 394.675,747.817 391.422,739.748C391.827,749.321 392.046,751.412 388.918,760.728C376.678,760.776 360.518,761.482 348.489,760.361C332.942,758.913 336.942,727.663 343.699,718.779C349.734,710.845 356.116,705.001 363.064,697.683C370.327,690.033 377.216,682.037 383.723,673.734C393.806,660.922 403.212,648.162 410.926,633.8C412.24,631.354 413.766,628.543 415.467,626.369L416.355,626.017C425.367,622.483 436.474,619.81 445.474,616.507C474.598,605.818 480.123,591.875 490.286,564.99C497.034,547.14 515.103,523.337 528.704,509.599C525.216,510.943 517.328,513.744 514.545,515.781C502.094,524.895 493.542,526.647 478.172,529.188C431.197,536.953 378.074,536.892 333.496,518.321C316.301,510.928 298.384,496.499 285.905,482.936C268.346,463.851 258.077,447.047 234.024,435.394C250.787,427.655 265.64,424.258 283.837,430.77C303.146,437.68 314.024,452.478 328.657,465.265C339.258,474.664 351.539,481.975 364.853,486.813C417.196,505.861 478.356,487.105 532.01,482.486C541.185,481.696 550.555,481.374 559.704,482.483C573.259,474.709 588.971,466.063 603.787,461.08C651.823,444.924 702.609,440.284 750.158,421.698C772.465,412.904 793.613,401.417 813.133,387.491C828.406,376.698 841.714,365.823 857.803,355.857C892.775,334.193 926.154,322.927 966.22,315.437C978.652,313.113 994.684,311.319 1006.48,308.77L1003.17,300.191C1030,307.488 1042.2,307.799 1072.69,304.797C1113.96,300.734 1165.5,308.632 1198.2,337.029C1198.83,337.577 1201.11,345.495 1201.63,346.862C1219.41,354.465 1233.21,354.016 1244.93,372.108C1242.78,382.167 1234.99,396.204 1230.59,405.898C1229.47,408.371 1222.45,413.413 1220.63,415.839C1213.55,425.274 1209.2,435.877 1198.7,442.382C1195.61,444.298 1189.27,447.545 1185.67,448.227C1183.95,445.833 1180.84,444.798 1180.84,444.798L1180.13,444.074C1183.99,434.076 1185.19,428.091 1185.09,417.121C1171.61,413.589 1162.14,414.97 1149.69,422.29C1146.82,423.998 1144.15,426.006 1141.71,428.279C1146.72,441.457 1145.21,452.241 1149.94,466.421C1158.15,463.023 1165.69,461.887 1173.98,459.078C1176.7,458.156 1180.69,455.641 1183.37,454.222C1177.6,472.358 1173.48,487.145 1156.26,497.863C1150.16,501.662 1134.16,501.342 1127.56,498.918C1106.55,491.202 1115.57,465.527 1092.46,457.934C1078.75,453.429 1067.04,454.384 1053.55,451.462C1075.7,478.152 1085.22,496.347 1102.12,525.841C1134.22,539.273 1165.27,555.062 1195.03,573.078C1203.91,578.532 1227.02,595.982 1233.85,599.002C1248.61,598.141 1252.75,592.943 1268.77,596.368C1271.52,598.762 1274.13,601.034 1276.78,603.551C1280.87,604.362 1286.77,605.192 1290.18,607.39C1314.09,622.802 1320.69,655.724 1290.32,667.645C1291.79,663.406 1293.08,659.398 1295.07,655.36C1288.95,657.536 1284.63,658.934 1278.34,660.537C1274.19,652.552 1271.44,649.059 1263.62,644.349C1247.15,647.635 1244.41,648.261 1228.92,639.919C1226.66,638.703 1219.16,635.312 1217.13,635.184C1205.35,634.44 1202.05,639.072 1190.72,631.137C1186.81,628.399 1182.24,624.569 1178.25,621.519C1157.11,620.541 1120.4,613.769 1089.45,605.732L1077.65,601.924L1021.36,565.768L1058.44,605.344C1058.92,605.954 1059.44,606.547 1059.98,607.116C1060.24,607.394 1060.53,607.656 1060.84,607.905L1084.19,632.836L1094.66,642.127L1107.76,650.835L1118.05,657.537L1119.03,658.244Z" style="fill:rgb(0,30,62);"/>
        <path d="M679.701,489.803L680.351,489.909C680.447,490.852 663.519,505.768 661.068,508.038C629.005,537.733 605.296,572.987 582.86,610.062L582.686,610.169L582.235,609.604C598.204,551.299 623.072,513.843 679.701,489.803ZM883.136,433.555C883.277,433.706 883.419,433.858 883.56,434.009C889.401,463.339 899.439,493.519 911.269,520.764C914.654,528.561 924.128,543.061 923.485,546.985C918.718,543.82 914.287,539.957 910.824,535.435C884.898,501.582 879.364,474.14 883.136,433.555ZM978.607,372.591C997.584,375.618 1013.93,401.751 1016.55,419.356C1018.49,432.409 1018.88,440.638 1016.22,453.714L1015.51,454.828C1014.4,454.705 1014.91,454.862 1014.83,452.39C1014.58,444.593 1013.44,436.849 1011.35,429.332C1005.1,406.51 994.225,389.92 978.607,372.591ZM282.425,440.947C302.817,448.384 323.541,481.822 348.784,491.134C347.176,491.291 345.379,491.229 343.79,490.945C312.847,485.41 299.16,463.715 282.425,440.947ZM1066.85,371.828C1067.9,375.334 1066.85,378.907 1066.64,382.654C1065.94,395.521 1066.77,407.711 1072.98,419.253C1075.19,423.274 1077.84,427.034 1080.84,430.509C1082.19,432.067 1091.14,440.659 1091.34,441.546L1088.78,441.179C1087.99,440.892 1087.2,440.584 1086.43,440.261C1055.7,427.363 1055.3,399.469 1066.85,371.828ZM1195.33,357.294C1205.84,357.055 1221.88,363.578 1229.07,371.212C1236.24,378.817 1231.45,384.38 1225.12,389.152C1223.94,390.129 1224.04,390.082 1222.53,390.359C1221.12,388.431 1220.51,385.059 1220.23,382.705C1217.71,361.479 1202.5,366.442 1190.7,358.952L1191.05,358.131L1195.33,357.294ZM1132.36,319.504C1150.4,320.319 1169.11,330.43 1182.89,341.543C1181.51,343.564 1180.2,346.014 1178.97,348.157C1177.75,350.005 1177.57,351.061 1175.84,351.544C1174.95,350.265 1170.08,343.252 1169.33,342.618C1159.45,334.277 1141.79,327.009 1132.36,319.504ZM1045.25,490.543L1045.81,491.267C1046.64,503.795 1040.89,518.479 1034.17,528.867C1032.4,531.604 1025.83,540.961 1022.95,541.609C1022.76,538.403 1020.45,529.222 1021.05,528.587C1031.44,517.6 1039.04,504.094 1045.25,490.543ZM1029.61,318.809C1038.94,318.834 1083.19,326.394 1090.9,330.131L1090.89,331.336C1089.78,331.673 1088.65,331.947 1087.51,332.157C1067.97,335.943 1045.91,329.911 1029.61,318.809ZM1163.63,387.292C1173.49,386.57 1175.63,387.131 1185.01,389.346C1167.02,388.721 1162.7,390.731 1145.86,396.885C1140.64,398.936 1135.06,400.816 1129.76,402.698C1139.8,393.863 1150.56,389.352 1163.63,387.292Z" style="fill:rgb(29,69,104);"/>
        <path d="M992.809,301.118L986.728,285.356L1005.79,290.542C1031.23,297.46 1042.8,297.691 1071.71,294.845C1115.5,290.534 1170.06,299.35 1204.76,329.479C1205.39,330.026 1206.48,331.103 1207.41,332.985C1207.93,334.051 1208.87,336.86 1209.66,339.311C1215,341.323 1219.96,342.739 1224.59,344.424C1235.43,348.364 1244.8,353.513 1253.32,366.671L1255.58,370.148L1254.71,374.198C1252.43,384.845 1244.35,399.771 1239.7,410.031C1239.01,411.538 1237.48,413.696 1235.25,415.859C1233.07,417.972 1229.71,420.396 1228.63,421.841C1220.8,432.281 1215.58,443.684 1203.97,450.882C1201.44,452.448 1197.15,454.65 1193.22,456.233L1192.9,457.254C1186.36,477.818 1181.07,494.198 1161.55,506.352C1158.07,508.519 1152.41,510.074 1146.18,510.545C1138.07,511.158 1129.01,510.103 1124.11,508.305C1112.6,504.077 1107.38,496.195 1103.58,487.255C1102,483.537 1100.73,479.616 1098.9,475.983C1097.09,472.391 1094.55,469.145 1089.34,467.434C1084.83,465.951 1080.53,465.088 1076.32,464.484C1088.69,481.659 1097.18,497.036 1109.12,517.939C1140.56,531.272 1171,546.84 1200.24,564.54L1200.26,564.557C1208.15,569.401 1227.53,584.085 1235.86,588.808C1241.21,588.245 1244.98,587.053 1248.87,586.273C1254.86,585.072 1261.04,584.489 1270.86,586.589L1273.39,587.129L1275.34,588.826C1277.45,590.669 1279.49,592.444 1281.52,594.304C1286.32,595.293 1292.01,596.671 1295.6,598.985C1313.6,610.589 1323.09,630.458 1320.13,647.444C1318.03,659.447 1310.13,670.611 1293.97,676.954L1273.76,684.89L1278.65,670.778L1273.12,672.186L1269.47,665.149C1266.96,660.335 1265.18,657.654 1261.54,654.955C1245.37,658.11 1241.33,657.957 1224.18,648.724C1222.75,647.955 1216.98,645.612 1215.77,645.126C1212.08,644.972 1209.38,645.461 1206.9,645.683C1200.35,646.272 1194.7,646.136 1184.98,639.328C1181.74,637.053 1178.04,634.048 1174.57,631.325C1152.57,629.846 1117.09,623.239 1086.94,615.411L1086.66,615.338L1079.27,612.953L1091.17,625.663L1100.78,634.184L1113.26,642.481L1123.71,649.293L1127.59,652.1C1130.19,652.599 1134.59,653.408 1137.67,653.792C1144.04,654.587 1150.32,655.499 1154,656.869L1156.78,657.901L1158.55,660.279C1162.96,666.215 1171.94,680.173 1174.48,686.839L1175.32,689.05L1175.08,691.404C1173.46,707.378 1165.83,723.725 1147.76,726.539L1143.18,727.252L1139.68,724.221C1139.63,724.178 1139.58,724.134 1139.53,724.091C1137.08,725.543 1134.68,727.02 1132.56,728.025C1127.71,730.33 1123.32,730.457 1120.22,729.366L1116.67,728.121L1115.51,726.062C1115.07,726.178 1114.62,726.314 1114.15,726.432C1110.17,727.433 1105.97,729.227 1103.31,730.348L1097.24,732.905L1092.5,728.336C1091.35,727.235 1089.85,727.05 1088.37,726.797C1086.18,726.422 1083.92,726.242 1081.7,725.934C1075.85,725.121 1070.32,723.435 1065.73,719.296C1055.61,710.189 1036.57,693.38 1029.94,681.815C1020.21,664.826 1017.32,665.694 1000.62,655.471L1000.59,655.45C987.567,647.335 974.318,639.583 960.862,632.205C946.747,624.52 925.844,615.15 913.764,604.958C910.765,602.428 908.068,598.339 906.109,593.272C905.596,591.944 905.125,590.539 904.697,589.089C903.108,590.901 901.802,592.284 901.104,592.808C900.394,593.339 899.189,594.091 897.354,594.701C895.343,595.369 890.958,596.272 884.796,597.153C859.878,600.713 802.204,605.226 765.329,602.078C762.618,613.696 759.073,626.436 753.51,637.571C748.267,648.065 741.243,657.158 731.865,663.247C711.521,676.456 680.425,679.009 654.547,682.726C646.932,683.82 639.835,685.047 633.798,686.885C629.125,688.307 625.15,689.951 622.519,692.598C619.537,695.598 618.791,700.053 617.905,704.07C617.555,705.659 617.214,707.257 616.913,708.863C620.753,709.106 624.525,709.775 628.639,711.4C649.038,719.454 655.53,742.098 645.457,760.76L642.628,766.001L636.671,766.01C615.889,766.04 594.463,766.343 573.732,766.005L569.133,765.93L566.197,762.389C560.708,755.769 549.762,740.143 547.331,731.618C546.653,729.242 546.512,725.69 547.158,721.646C548.051,716.053 550.396,708.865 551.252,705.251L551.368,704.763L551.531,704.289C552.649,701.055 553.509,694.8 554.34,691.883C555.565,687.582 556.778,675.807 558.457,665.689C536.806,675.275 513.61,680.928 489.957,682.37C481.263,682.92 472.424,682.748 464.028,683.996C457.233,685.006 450.73,686.983 445.123,691.917C440.85,695.678 433.678,703.015 428.655,710.442C427.482,712.176 426.345,713.86 425.498,715.461C433.698,720.299 438.841,728.83 440.619,738.003C442.827,749.392 439.537,761.273 432.343,767.737L430.4,769.483L421.491,771.485L420.644,770.748L391.945,770.716L388.957,770.728C376.424,770.777 359.878,771.465 347.561,770.318C336.694,769.305 330.07,761.014 328.256,749.171C326.285,736.31 330.61,719.469 335.74,712.725C342.004,704.489 348.6,698.395 355.812,690.798C362.857,683.377 369.54,675.62 375.858,667.558L375.865,667.55C385.585,655.198 394.68,642.914 402.116,629.068C403.688,626.142 405.557,622.807 407.591,620.207L409.262,618.072L412.687,616.714L412.704,616.707C421.781,613.148 432.964,610.446 442.029,607.119C467.617,597.728 472.003,585.075 480.932,561.454C483.857,553.715 488.767,544.909 494.536,536.204C490.159,537.28 485.387,538.131 479.803,539.054C431.044,547.114 375.921,546.828 329.598,527.53L329.546,527.508C311.14,519.594 291.903,504.226 278.546,489.707C261.914,471.629 252.447,455.431 229.664,444.393L210.639,435.176L229.832,426.315C249.129,417.406 266.259,413.859 287.206,421.355C307.777,428.716 319.648,444.112 335.264,457.759L335.291,457.782C344.949,466.346 356.138,473.007 368.27,477.415L368.273,477.416C393.045,486.431 419.92,486.307 446.934,483.575C475.524,480.685 504.278,474.837 531.152,472.523C539.886,471.771 548.784,471.442 557.536,472.205C570.972,464.565 586.203,456.444 600.599,451.602C648.479,435.498 699.11,430.912 746.504,412.389C768.048,403.895 788.473,392.8 807.344,379.337L807.362,379.324C822.804,368.412 836.27,357.433 852.537,347.356C888.62,325.004 923.043,313.336 964.382,305.607C972.998,303.997 983.355,302.647 992.809,301.118ZM1171.34,449.394L1168.48,446.479L1170.8,440.472C1173.04,434.681 1174.24,430.45 1174.77,425.431C1167.91,424.938 1161.98,426.667 1154.76,430.909C1154.25,431.212 1153.76,431.526 1153.26,431.852C1155.06,439.167 1155.44,446.028 1156.91,453.579C1161.46,452.316 1165.99,451.226 1170.77,449.607C1170.95,449.545 1171.14,449.473 1171.34,449.394ZM1026.74,569.222L1077.65,601.924L1089.45,605.732C1120.4,613.769 1157.11,620.541 1178.25,621.519C1182.24,624.569 1186.81,628.399 1190.72,631.137C1202.05,639.072 1205.35,634.44 1217.13,635.184C1219.16,635.312 1226.66,638.703 1228.92,639.919C1244.41,648.261 1247.15,647.635 1263.62,644.349C1271.44,649.059 1274.19,652.552 1278.34,660.537C1284.63,658.934 1288.95,657.536 1295.07,655.36C1293.08,659.398 1291.79,663.406 1290.32,667.645C1320.69,655.724 1314.09,622.802 1290.18,607.39C1286.77,605.192 1280.87,604.362 1276.78,603.551C1274.13,601.034 1271.52,598.762 1268.77,596.368C1252.75,592.943 1248.61,598.141 1233.85,599.002C1227.02,595.982 1203.91,578.532 1195.03,573.078C1165.27,555.062 1134.22,539.273 1102.12,525.841C1085.22,496.347 1075.7,478.152 1053.55,451.462C1067.04,454.384 1078.75,453.429 1092.46,457.934C1115.57,465.527 1106.55,491.202 1127.56,498.918C1134.16,501.342 1150.16,501.662 1156.26,497.863C1173.48,487.145 1177.6,472.358 1183.37,454.222C1180.69,455.641 1176.7,458.156 1173.98,459.078C1165.69,461.887 1158.15,463.023 1149.94,466.421C1145.21,452.241 1146.72,441.457 1141.71,428.279C1144.15,426.006 1146.82,423.998 1149.69,422.29C1162.14,414.97 1171.61,413.589 1185.09,417.121C1185.19,428.091 1183.99,434.076 1180.13,444.074L1180.84,444.798C1180.84,444.798 1183.95,445.833 1185.67,448.227C1189.27,447.545 1195.61,444.298 1198.7,442.382C1209.2,435.877 1213.55,425.274 1220.63,415.839C1222.45,413.413 1229.47,408.371 1230.59,405.898C1234.99,396.204 1242.78,382.167 1244.93,372.108C1233.21,354.016 1219.41,354.465 1201.63,346.862C1201.11,345.495 1198.83,337.577 1198.2,337.029C1165.5,308.632 1113.96,300.734 1072.69,304.797C1042.2,307.799 1030,307.488 1003.17,300.191L1006.48,308.77C994.684,311.319 978.652,313.113 966.22,315.437C926.154,322.927 892.775,334.193 857.803,355.857C841.714,365.823 828.406,376.698 813.133,387.491C793.613,401.417 772.465,412.904 750.158,421.698C702.609,440.284 651.823,444.924 603.787,461.08C588.971,466.063 573.259,474.709 559.704,482.483C550.555,481.374 541.185,481.696 532.01,482.486C478.356,487.105 417.196,505.861 364.853,486.813C351.539,481.975 339.258,474.664 328.657,465.265C314.024,452.478 303.146,437.68 283.837,430.77C265.64,424.258 250.787,427.655 234.024,435.394C258.077,447.047 268.346,463.851 285.905,482.936C298.384,496.499 316.301,510.928 333.496,518.321C378.074,536.892 431.197,536.953 478.172,529.188C493.542,526.647 502.094,524.895 514.545,515.781C517.328,513.744 525.216,510.943 528.704,509.599C515.103,523.337 497.034,547.14 490.286,564.99C480.123,591.875 474.598,605.818 445.474,616.507C436.474,619.81 425.367,622.483 416.355,626.017L415.467,626.369C413.766,628.543 412.24,631.354 410.926,633.8C403.212,648.162 393.806,660.922 383.723,673.734C377.216,682.037 370.327,690.033 363.064,697.683C356.116,705.001 349.734,710.845 343.699,718.779C336.942,727.663 332.942,758.913 348.489,760.361C360.518,761.482 376.678,760.776 388.918,760.728C392.046,751.412 391.827,749.321 391.422,739.748C394.675,747.817 396.182,751.877 397.144,760.722L415.968,760.743C419.116,753.439 419.262,751.052 419.928,743.232C421.413,748.134 422.288,758.926 424.235,760.619L425.659,760.299C435.463,751.489 432.642,727.391 416.443,722.311C414.514,721.514 415.336,722.125 414.085,720.192C413.964,709.203 430.666,691.319 438.517,684.41C452.826,671.818 471.378,673.527 489.336,672.389C512.964,670.95 536.113,665.087 557.579,655.106C581.371,643.911 602.214,620.552 619.797,601.343L622.66,616.707C608.14,636.018 587.656,636.057 572.947,651.528C568.378,656.334 566.131,686.992 563.957,694.623C563.09,697.666 562.149,704.181 560.983,707.555C559.814,712.492 555.666,724.385 556.947,728.875C559.102,736.43 569.03,750.139 573.895,756.006C594.568,756.343 615.933,756.04 636.657,756.01C643.842,742.699 639.516,726.446 624.967,720.701C618.346,718.087 612.766,718.719 605.801,718.87C605.851,713.157 606.912,707.481 608.14,701.915C609.424,696.096 611.106,689.895 615.427,685.548C633.647,667.218 694.328,675.696 726.419,654.86C746.2,642.017 752.84,612.729 757.524,591.163C801.174,597.225 890.923,587.942 895.106,584.806C898.142,582.53 910.375,565.937 911.03,565.646C911.312,574.07 913.759,591.871 920.212,597.315C931.849,607.133 952.063,616.027 965.656,623.429C979.28,630.899 992.693,638.747 1005.88,646.963C1024.64,658.448 1027.66,657.719 1038.62,676.844C1044.84,687.707 1062.92,703.311 1072.42,711.865C1080.02,718.708 1092.02,713.999 1099.43,721.132C1104.45,719.018 1114.34,714.884 1119.75,716.088C1122.12,716.615 1122.47,718.054 1123.53,719.931C1127.56,721.346 1136.42,712.873 1143.04,711.487C1146,712.707 1143.41,714.227 1146.22,716.658C1159.36,714.612 1163.95,702.009 1165.13,690.393C1162.82,684.318 1154.54,671.653 1150.52,666.243C1142.58,663.293 1120.6,663.575 1118.66,658.667C1118.76,658.531 1118.87,658.403 1118.99,658.283L1092.36,641.161C1071.35,624.302 1015.55,576.376 1002.24,556.382C997.326,548.999 997.376,533.629 998.887,525.114C1002.53,543.907 1008.07,544.93 1011.03,550.418C1012.85,553.794 1018.8,560.671 1026.74,569.222ZM1013.91,326.866C1015.24,328.613 1018.48,334.402 1019.86,336.585C1028.21,349.778 1035.04,353.809 1048.29,360.461C1039.39,369.105 1035.72,380.142 1034.25,392.158C1033.71,397.177 1033.94,401.723 1034.07,406.742C1027.43,390.333 1029.3,380.947 1032.1,363.996C1016.67,354.058 1013.45,344.397 1013.91,326.866ZM1097.07,687.166C1113.89,686.343 1109.76,699.803 1103.89,709.285L1103.05,709.945C1101.32,707.969 1101.98,701.859 1100.97,699.207C1099.62,695.684 1094.84,692.103 1094.51,688.502L1097.07,687.166ZM1140.45,346.445C1145.36,346.382 1158.39,349.996 1163.85,351.369C1164.07,355.924 1164.24,356.835 1165.53,361.213C1152.79,356.919 1149.79,356.319 1140.45,346.445ZM1193.71,413.041L1208.83,416.174C1205.23,421.278 1203.37,423.891 1199.02,428.487C1196.78,430.717 1193.7,433.164 1191.23,435.237C1195.17,425.746 1196.86,423.119 1193.71,413.041ZM1169.09,471.233L1169.51,471.961C1164.01,479.311 1158.05,485.811 1148.24,482.189C1146.35,480.34 1144.75,479.226 1145.59,476.65C1149.38,474.887 1155.7,475.423 1159.96,474.49C1163.14,473.793 1166.09,472.484 1169.09,471.233ZM1139.22,677.132C1151.75,678.445 1158.27,687.731 1151.87,699.845C1150.66,701.288 1150.47,701.699 1148.72,702.483C1149.1,688.738 1148.7,686.855 1139.22,677.132ZM1121.42,681.541C1135.36,683.281 1137.38,691.247 1131.92,702.788L1130.13,704.937C1129.01,704.589 1129.36,705.069 1129.06,703.211C1127.4,692.776 1128.44,689.574 1121.42,681.541ZM1258.58,619.062C1270.89,617.668 1275.38,624.873 1267.91,635.019L1266.48,635.832C1264.32,634.744 1265.87,630.047 1264.59,628.295C1262.45,625.369 1259.38,624.31 1257.31,620.838L1258.58,619.062ZM1281.02,628.001C1293.19,626.07 1292.98,636.549 1287.35,644.536L1285.22,646.343C1284.26,644.827 1285.14,640.222 1284.81,637.939C1284.16,633.45 1280.4,632.132 1281.02,628.001Z" style="fill:white;"/>
    </g>
</svg>
