<svg width="100%" height="100%" viewBox="0 0 822 821" version="1.1" xmlns="http://www.w3.org/2000/svg" xmlns:xlink="http://www.w3.org/1999/xlink" xml:space="preserve" xmlns:serif="http://www.serif.com/" style="fill-rule:evenodd;clip-rule:evenodd;stroke-linejoin:round;stroke-miterlimit:2;">
    <g transform="matrix(1,0,0,1,-120.953,-107.068)">
        <path d="M224.794,121.161C231.955,120.469 243.353,122.614 249.709,125.857C275.388,138.959 297.547,158.95 322.261,173.915C340.469,184.989 359.78,194.141 379.881,201.221C446.987,183.66 521.816,188.79 589.451,200.838C615.707,205.515 637.028,210.288 662.614,218.575C679.181,213.355 695.843,208.44 712.591,203.832C753.517,192.393 813.615,176.381 846.065,147.779C847.324,154.968 848.035,162.243 848.192,169.54C849.368,224.778 826.356,285.339 788.106,325.336C810.174,351.467 839.904,382.121 810.104,414.45C814.293,421.177 817.983,428.204 821.142,435.473C837.021,472.137 838.573,510.836 823.846,548.112C830.561,559.229 832.943,566.596 836.191,578.854C863.519,581.89 876.344,585.911 900.39,598.877C885.395,595.857 852.332,593.962 837.011,593.992C837.065,603.251 837.207,610.976 835.328,620.104C859.927,628.063 876.916,637.24 894.741,656.548C888.873,653.411 881.567,650.623 875.301,648.119C861.334,642.493 847.147,637.431 832.773,632.947C827.198,647.445 819.332,660.07 809.635,672.129C796.54,688.417 779.805,698.08 758.988,700.256C753.951,714.004 746.856,726.003 738.105,737.644C730.216,748.306 720.299,757.249 709.501,764.863C713.267,797.38 710.956,833.854 692.798,861.943C674.57,890.733 650.476,902.392 618.326,910.041C553.992,925.346 478.164,899.273 458.311,830.916C456.026,823.049 455.787,814.093 454.12,805.918C450.487,788.093 438.497,779.227 424.049,769.954C438.022,797.695 443.086,807.541 443.017,839.179C359.925,777.609 262.008,735.512 191.407,657.365C178.593,643.181 165.668,627.819 156.165,611.179C149.045,615.317 141.975,619.538 134.956,623.844C135.195,524.335 167.481,449.878 221.161,368.158C197.87,334.731 182.865,296.244 177.384,255.874C172.295,220.625 172.598,169.737 194.816,140.338C202.587,130.056 211.872,123.025 224.794,121.161ZM320.447,338.817L320.559,339.484C306.322,348.064 294.219,357.897 282.105,369.038C245.999,402.243 221.188,440.126 209.63,488.133C203.137,515.103 200.98,532.606 202.084,560.055C212.226,537.792 233.208,517.848 250.357,500.917C236.526,544.92 240.746,592.616 262.088,633.507C282.675,673.098 308.869,696.928 347.234,719.217C360.147,726.719 373.282,734.134 386.927,740.341C384.467,713.731 378.688,682.643 366.126,658.793C385.626,666.305 409.936,680.776 424.73,695.507C445.332,716.023 460.214,743.964 471.954,770.256C475.86,779.033 479.876,789.827 483.987,798.022C490.117,820.136 495.75,836.55 511.733,854.381C525.606,869.857 543.656,879.66 564.599,881.1C586.045,882.575 621.865,873.637 638.203,858.803C633.83,870.263 630.971,876.43 621.82,884.368C652.613,877.491 669.227,859.194 678.079,829.48C675.796,828.87 673.577,828.035 671.349,827.25C655.404,821.633 639.017,817.769 622.042,817.064C613.656,816.723 605.256,817.024 596.916,817.965C580.952,819.775 561.815,824.914 546.384,819.854C523.757,812.433 511.948,786.765 501.127,767.507C489.763,747.283 480.302,726.12 469.887,705.491C467.959,700.455 464.502,694.153 462.008,689.358C449.738,665.768 433.974,645.127 416.02,625.563C433.725,614.353 456.432,608.513 477.201,606.508C476.125,601.405 475.502,596.215 475.387,591.002C475.319,587.931 476.435,576.883 475.991,575.953C430.187,567.11 393.089,567.004 347.447,569.035C351.148,567.502 364.596,564.692 368.869,563.706C404.028,555.588 445.404,551.517 481.27,557.286C484.293,547.766 489.185,541.072 495.204,533.354C462.725,522.031 429.155,511.119 395.307,504.785C390.284,503.845 385.201,503.214 380.218,502.083C428.637,500.19 462.986,504.984 509.015,520.494C515.872,515.58 521.851,512.897 530.067,510.655C544.559,506.702 577.492,505.858 590.092,513.3C573.364,514.472 552.216,523.034 538.34,532.444C545.171,536.283 552.56,539.901 559.529,543.619C574.595,551.656 584.951,559.86 597.335,571.373C573.372,562.062 546.406,554.171 522.038,545.393C515.959,551.761 513.045,555.898 509.421,564.078C538.835,573.693 561.267,585.165 587.698,601.684L504.127,582.114C502.893,591.589 503.101,596.991 506.326,606.021C533.817,610.173 552.391,616.271 577.992,627.975C561.779,626.68 536.685,627.404 519.412,627.05C544.798,651.795 579.676,661.048 614.392,660.553C634.743,660.263 693.582,654.456 707.401,640.671C711.396,636.687 712.139,632.395 712.031,626.953C711.771,613.776 705.01,592.143 695.252,582.891C692.922,580.682 689.883,578.943 686.569,579.233C684.705,579.396 681.961,580.467 680.754,581.963C679.634,583.352 679.883,585.526 680.246,587.151C681.043,590.719 682.75,593.974 684.607,597.087C663.952,589.073 643.696,566.729 629.639,549.794C639.988,542.335 650.049,528.497 663.761,539.389C666.449,541.524 666.836,543.631 667.3,546.878C696.81,529.759 712.19,550.727 741.337,553.867C749.05,554.698 762.542,549.601 770.303,547.905C775.162,546.844 780.218,545.679 785.296,544.765C779.4,526.067 770.961,510.13 759.933,493.944C748.915,477.291 734.585,460.644 727.674,441.636C721.592,424.909 721.811,403.364 719.062,385.635C717.736,377.086 717.407,368.904 715.654,360.341C722.964,375.009 732.545,399.277 735.719,415.164C739.287,405.28 742.803,400.153 752.481,395.096C765.602,388.239 783.449,379.581 798.367,383.677C785.651,357.261 764.785,334.999 744.257,314.426C712.325,282.425 674.219,253.74 630.132,241.341C620.415,238.608 611.102,237.043 601.152,235.365C615.466,247.807 625.483,265.189 631.854,282.888C618.527,266.764 601.072,252.07 583.875,240.181C566.792,228.064 546.001,225.008 525.703,222.228C482.035,216.246 440.522,217.646 397.461,226.469C415.579,236.216 426.531,246.467 441.752,259.894C437.576,259.393 433.211,259.524 429.001,259.314C417.637,258.745 406.146,257.171 395.45,253.155C382.849,248.423 370.867,241.618 359.612,234.287C344.061,224.158 328.806,213.302 313.816,202.358C297.633,190.544 244.16,146.534 227.527,146.637C222.79,146.667 218.727,149.169 215.427,152.388C201.463,166.012 198.298,188.403 198.001,207.003C197.457,241.127 203.178,278.54 222.772,307.257C226.833,313.207 231.567,318.328 236.555,323.486C232.002,313.225 229.319,302.328 226.302,291.568C220.824,272.034 217.335,253.274 215.298,233.102C212.834,208.698 212.884,189.176 225.418,167.365C229.591,169.58 242.121,179.305 245.978,182.636C263.052,197.382 281.461,216.137 295.881,233.441C313.711,254.836 326.724,273.072 350.187,289.133C318.275,286.746 286.005,271.971 259.404,254.655C278.981,283.676 291.581,301.287 323.991,318.031C321.352,317.732 318.365,317.579 315.7,317.458C300.949,316.79 286.57,313.156 272.779,307.959C286.496,322.845 301.018,332.619 320.447,338.817ZM628.497,406.901C646.961,396.605 653.633,383.296 656.508,362.864C659.663,382.693 658.374,402.289 646.213,418.96C636.078,432.854 627.054,436.296 613.249,444.259C631.677,464.291 648.737,488.502 647.876,516.796L647.535,517.225L646.854,516.493C635.182,490.553 600.343,468.62 576.968,452.292C564.997,458.685 559.664,460.586 546.159,462.824C512.704,466.198 492.187,456.39 472.63,429.222C464.052,416.055 458.998,400.907 457.952,385.227C444.821,381.656 430.604,381.22 417.126,382.674C414.711,383.068 413.393,383.312 410.929,383.351C529.858,318.099 571.329,436.462 628.497,406.901ZM512.901,404.636C512.318,402.173 510.872,401.035 509.08,399.397C509.544,397.998 510.202,396.709 509.837,395.367C506.392,393.076 496.616,391.123 492.224,390.17C488.561,401.741 486.124,410.041 492.341,421.383C497.613,430.999 506.712,440.267 517.495,443.16C540.077,449.218 556.354,441.618 564.628,420.084C558.649,416.926 554.19,414.272 548.414,410.637C547.205,416.368 545.003,425.941 539.508,428.514C522.981,436.253 512.467,418.278 512.901,404.636ZM773.293,405.91C767.922,408.124 762.994,410.184 757.73,412.662C759.07,419.1 759.873,425.36 756.116,431.323C753.684,435.182 751.252,435.601 747.275,436.837C746.752,439.152 749.811,444.356 751.114,446.426C751.696,447.339 752.306,448.232 752.944,449.106C771.71,447.586 784.002,423.454 774.775,406.608C773.835,405.967 774.196,405.965 773.293,405.91ZM802.48,563.805C795.241,580.689 789.5,588.235 774.665,599.573C775.872,595.882 777.717,590.558 776.103,586.872C771.317,583.443 765.339,592.626 763.395,596.181C755.079,611.388 741.027,622.032 731.163,635.825C723.443,646.621 738.427,656.809 746.56,661.163C757.722,666.83 767.736,670.38 779.847,665.319C787.349,661.33 792.95,656.698 797.567,649.453C791.782,648.164 783.457,645.543 777.782,643.514C786.579,641.672 795.681,639.627 804.543,638.309C809.205,630.637 811.312,624.51 813.216,615.776C802.497,617.581 790.301,619.926 779.615,621.295C791.527,612.096 800.046,606.224 813.962,599.862C813.33,588.051 812.104,573.937 803.029,564.123L802.48,563.805ZM563.022,740.863C555.406,753.664 548.672,776.033 550.949,791.018C553.63,803.63 574.191,799.169 582.603,797.514C599.472,794.194 615.307,793.051 632.227,795.337C655.745,798.514 667.979,807.35 677.087,778.722C679.622,767.48 680.482,754.89 675.81,744.088C672.209,760.356 660.902,778.066 643.027,781.353C637.02,782.457 629.168,780.785 623.003,781.052C610.716,781.078 598.443,780.824 586.159,780.386C581.652,774.429 578.681,770.493 575.115,763.827C571.557,757.177 567.392,746.711 563.022,740.863ZM823.21,208.372C808.508,233.637 794.19,252.645 771.842,272C765.526,277.47 758.883,282.416 752.382,287.657L761.708,295.917C764.433,298.371 767.246,300.845 769.868,303.4C796.02,279.531 819.397,244.98 823.722,209.205L823.21,208.372ZM795.243,437.373C787.555,452.704 781.715,460.856 765.593,467.134C776.072,480.884 787.087,495.34 795.62,510.395C798.127,514.951 801.342,520.983 803.246,525.845C811.983,493.373 813.198,471.732 797.01,440.005C796.519,439.041 795.897,438.234 795.243,437.373ZM574.532,674.868C574.479,698.763 575.771,711.581 582.098,734.573C587.946,728.382 591.996,723.394 596.738,716.191C603.707,704.822 610.521,690.915 614.095,678.008C603.061,678.01 592.45,677.396 581.533,675.781C579.299,675.451 576.768,675.06 574.532,674.868ZM689.285,670.206C677.179,671.25 662.475,673.885 650.678,676.751C665.424,677.971 694.173,680.736 708.007,684.258C708.511,704.624 708.551,713.217 702.625,733.374L700.683,738.857C719.92,722.543 729.502,705.144 737.875,682.043C721.467,673.913 707.826,668.994 689.285,670.206Z" style="fill:rgb(0,37,83);"  data-color="color-1"/>
        <path d="M475.991,575.953C476.435,576.883 475.319,587.931 475.387,591.002C475.502,596.215 476.125,601.405 477.201,606.508C456.432,608.513 433.725,614.353 416.02,625.563C433.974,645.127 449.738,665.768 462.008,689.358C464.502,694.153 467.959,700.455 469.887,705.491C470.584,712.891 473.547,725.172 475.139,732.901C478.278,748.519 480.725,764.268 482.476,780.102C482.985,784.704 484.079,793.529 483.987,798.022C479.876,789.827 475.86,779.033 471.954,770.256C460.214,743.964 445.332,716.023 424.73,695.507C409.936,680.776 385.626,666.305 366.126,658.793C378.688,682.643 384.467,713.731 386.927,740.341C373.282,734.134 360.147,726.719 347.234,719.217C308.869,696.928 282.675,673.098 262.088,633.507C240.746,592.616 236.526,544.92 250.357,500.917C233.208,517.848 212.226,537.792 202.084,560.055C200.98,532.606 203.137,515.103 209.63,488.133C221.188,440.126 245.999,402.243 282.105,369.038C294.219,357.897 306.322,348.064 320.559,339.484L320.447,338.817C325.192,337.971 331.54,334.784 336.497,333.518C346.154,331.05 356.008,329.883 365.864,328.558C307.231,365.579 244.846,428.939 224.923,497.094C229.33,493.617 233.699,490.062 237.994,486.448C255.221,471.95 274.575,460.522 294.354,449.885C287.158,460.132 278.681,472.049 273.478,483.496C260.566,511.905 255.612,547.462 260.961,578.172C266.156,608.003 278.904,633.267 300.275,654.615C304.915,659.25 309.598,663.806 314.969,667.557C319.233,670.589 324.005,672.833 329.06,674.182C331.292,669.206 338.243,662.308 342.299,658.312C370.933,630.1 408.861,611.021 444.008,592.351C453.804,587.148 466.985,581.482 475.991,575.953ZM646.854,516.493C640.161,515.525 626.116,503.663 619.617,499.737C613.232,495.881 605.472,490.061 598.742,486.631C584.461,479.353 569.462,471.982 554.352,466.65C551.419,465.615 548.346,464.897 546.159,462.824C559.664,460.586 564.997,458.685 576.968,452.292C600.343,468.62 635.182,490.553 646.854,516.493ZM472.63,429.222L471.24,429.682C469.04,429.132 451.468,410.976 448.006,407.832C442.68,402.994 437.201,398.327 431.527,393.904C427.322,390.626 420.879,386.029 417.126,382.674C430.604,381.22 444.821,381.656 457.952,385.227C458.998,400.907 464.052,416.055 472.63,429.222ZM795.243,437.373C795.897,438.234 796.519,439.041 797.01,440.005C813.198,471.732 811.983,493.373 803.246,525.845C801.342,520.983 798.127,514.951 795.62,510.395C787.087,495.34 776.072,480.884 765.593,467.134C781.715,460.856 787.555,452.704 795.243,437.373Z" style="fill:rgb(218,110,6);"  data-color="color-4"/>
        <path d="M320.447,338.817C301.018,332.619 286.496,322.845 272.779,307.959C286.57,313.156 300.949,316.79 315.7,317.458C318.365,317.579 321.352,317.732 323.991,318.031C291.581,301.287 278.981,283.676 259.404,254.655C286.005,271.971 318.275,286.746 350.187,289.133C326.724,273.072 313.711,254.836 295.881,233.441C281.461,216.137 263.052,197.382 245.978,182.636C242.121,179.305 229.591,169.58 225.418,167.365C212.884,189.176 212.834,208.698 215.298,233.102C217.335,253.274 220.824,272.034 226.302,291.568C229.319,302.328 232.002,313.225 236.555,323.486C231.567,318.328 226.833,313.207 222.772,307.257C203.178,278.54 197.457,241.127 198.001,207.003C198.298,188.403 201.463,166.012 215.427,152.388C218.727,149.169 222.79,146.667 227.527,146.637C244.16,146.534 297.633,190.544 313.816,202.358C328.806,213.302 344.061,224.158 359.612,234.287C370.867,241.618 382.849,248.423 395.45,253.155C406.146,257.171 417.637,258.745 429.001,259.314C433.211,259.524 437.576,259.393 441.752,259.894C426.531,246.467 415.579,236.216 397.461,226.469C440.522,217.646 482.035,216.246 525.703,222.228C546.001,225.008 566.792,228.064 583.875,240.181C601.072,252.07 618.527,266.764 631.854,282.888C625.483,265.189 615.466,247.807 601.152,235.365C611.102,237.043 620.415,238.608 630.132,241.341C674.219,253.74 712.325,282.425 744.257,314.426C764.785,334.999 785.651,357.261 798.367,383.677C783.449,379.581 765.602,388.239 752.481,395.096C742.803,400.153 739.287,405.28 735.719,415.164C732.545,399.277 722.964,375.009 715.654,360.341C717.407,368.904 717.736,377.086 719.062,385.635C721.811,403.364 721.592,424.909 727.674,441.636C734.585,460.644 748.915,477.291 759.933,493.944C770.961,510.13 779.4,526.067 785.296,544.765C780.218,545.679 775.162,546.844 770.303,547.905C762.542,549.601 749.05,554.698 741.337,553.867C712.19,550.727 696.81,529.759 667.3,546.878C666.836,543.631 666.449,541.524 663.761,539.389C650.049,528.497 639.988,542.335 629.639,549.794C617.983,537.722 606.41,521.084 590.092,513.3C577.492,505.858 544.559,506.702 530.067,510.655C521.851,512.897 515.872,515.58 509.015,520.494C462.986,504.984 428.637,500.19 380.218,502.083C385.201,503.214 390.284,503.845 395.307,504.785C429.155,511.119 462.725,522.031 495.204,533.354C489.185,541.072 484.293,547.766 481.27,557.286C445.404,551.517 404.028,555.588 368.869,563.706C364.596,564.692 351.148,567.502 347.447,569.035C393.089,567.004 430.187,567.11 475.991,575.953C466.985,581.482 453.804,587.148 444.008,592.351C408.861,611.021 370.933,630.1 342.299,658.312C338.243,662.308 331.292,669.206 329.06,674.182C324.005,672.833 319.233,670.589 314.969,667.557C309.598,663.806 304.915,659.25 300.275,654.615C278.904,633.267 266.156,608.003 260.961,578.172C255.612,547.462 260.566,511.905 273.478,483.496C278.681,472.049 287.158,460.132 294.354,449.885C274.575,460.522 255.221,471.95 237.994,486.448C233.699,490.062 229.33,493.617 224.923,497.094C244.846,428.939 307.231,365.579 365.864,328.558C356.008,329.883 346.154,331.05 336.497,333.518C331.54,334.784 325.192,337.971 320.447,338.817ZM410.929,383.351C413.393,383.312 414.711,383.068 417.126,382.674C420.879,386.029 427.322,390.626 431.527,393.904C437.201,398.327 442.68,402.994 448.006,407.832C451.468,410.976 469.04,429.132 471.24,429.682L472.63,429.222C492.187,456.39 512.704,466.198 546.159,462.824C548.346,464.897 551.419,465.615 554.352,466.65C569.462,471.982 584.461,479.353 598.742,486.631C605.472,490.061 613.232,495.881 619.617,499.737C626.116,503.663 640.161,515.525 646.854,516.493L647.535,517.225L647.876,516.796C648.737,488.502 631.677,464.291 613.249,444.259C627.054,436.296 636.078,432.854 646.213,418.96C658.374,402.289 659.663,382.693 656.508,362.864C653.633,383.296 646.961,396.605 628.497,406.901C621.256,401.415 618.091,400.858 610.14,393.028C595.773,378.88 584.925,363.646 569.598,350.37C550.682,333.781 525.91,325.459 500.815,327.265C491.037,327.995 481.433,330.245 472.349,333.936C455.321,340.826 439.899,352.405 425.512,363.665C422.249,366.219 407.909,378.655 408.237,382.673C409.433,383.785 408.718,383.346 410.929,383.351ZM823.21,208.372L823.722,209.205C819.397,244.98 796.02,279.531 769.868,303.4C767.246,300.845 764.433,298.371 761.708,295.917L752.382,287.657C758.883,282.416 765.526,277.47 771.842,272C794.19,252.645 808.508,233.637 823.21,208.372Z" style="fill:rgb(238,142,21);"  data-color="color-2"/>
        <path d="M224.316,107.192C248.632,105.435 271.423,122.663 289.86,135.911C298.24,142.015 306.766,147.917 315.43,153.611C333.648,165.396 359.329,180.124 380.159,186.969C387.509,185.139 395.007,183.175 402.498,181.875C464.347,171.142 528.99,176.749 590.562,186.815C614.076,190.659 637.803,197.665 660.59,204.193C673.407,200.937 688.156,196.031 701.403,192.37C740.629,181.528 783.096,171.132 818.49,150.704C830.04,144.038 845.454,129.399 854.623,119.715C857.423,129.379 859.407,139.262 860.552,149.258C865.652,193.554 853.903,246.083 832.931,285.372C824.615,300.95 816.686,311.729 805.805,325.432C827.609,354.345 849.325,379.374 825.947,415.497C828.206,419.701 830.329,423.978 832.313,428.319C849.105,465.151 852.283,509.094 838.114,547.251C841.721,554.162 843.432,558.488 845.863,565.739C853.771,567.563 860.402,568.624 868.373,570.95C896.66,579.202 923.385,595.706 942.451,618.318C904.006,607.328 890.051,608.513 850.522,609.093C864.417,615.698 878.001,623.344 889.544,633.601C905.307,647.609 921.169,669.07 927.147,689.432C901.044,669.761 871.345,658.433 839.694,651.376C834.573,663.042 827.14,673.295 818.643,682.709C804.253,698.378 789.126,707.458 768.58,712.299C756.557,737.598 744.89,753.525 723.188,771.473C727.569,815.608 717.676,864.478 682.481,894.173C677.224,898.608 671.313,903.231 665.229,906.469C593.909,944.433 497.881,932.708 455.284,857.725L453.825,864.344C434.619,849.52 414.805,835.499 394.435,822.319C370.248,806.57 344.964,791.877 320.627,776.36C256.134,735.241 196.429,692.846 151.717,629.761C141.518,635.741 131.465,641.969 121.567,648.437C117.529,573.07 133.457,497.972 167.741,430.733C178.87,408.539 190.882,389.151 204.326,368.437C181.44,328.781 168.484,296.094 163.155,250.065C157.568,201.808 162.001,114.17 224.316,107.192ZM224.794,121.161C211.872,123.025 202.587,130.056 194.816,140.338C172.598,169.737 172.295,220.625 177.384,255.874C182.865,296.244 197.87,334.731 221.161,368.158C167.481,449.878 135.195,524.335 134.956,623.844C141.975,619.538 149.045,615.317 156.165,611.179C165.668,627.819 178.593,643.181 191.407,657.365C262.008,735.512 359.925,777.609 443.017,839.179C443.086,807.541 438.022,797.695 424.049,769.954C438.497,779.227 450.487,788.093 454.12,805.918C455.787,814.093 456.026,823.049 458.311,830.916C478.164,899.273 553.992,925.346 618.326,910.041C650.476,902.392 674.57,890.733 692.798,861.943C710.956,833.854 713.267,797.38 709.501,764.863C720.299,757.249 730.216,748.306 738.105,737.644C746.856,726.003 753.951,714.004 758.988,700.256C779.805,698.08 796.54,688.417 809.635,672.129C819.332,660.07 827.198,647.445 832.773,632.947C847.147,637.431 861.334,642.493 875.301,648.119C881.567,650.623 888.873,653.411 894.741,656.548C876.916,637.24 859.927,628.063 835.328,620.104C837.207,610.976 837.065,603.251 837.011,593.992C852.332,593.962 885.395,595.857 900.39,598.877C876.344,585.911 863.519,581.89 836.191,578.854C832.943,566.596 830.561,559.229 823.846,548.112C838.573,510.836 837.021,472.137 821.142,435.473C817.983,428.204 814.293,421.177 810.104,414.45C839.904,382.121 810.174,351.467 788.106,325.336C826.356,285.339 849.368,224.778 848.192,169.54C848.035,162.243 847.324,154.968 846.065,147.779C813.615,176.381 753.517,192.393 712.591,203.832C695.843,208.44 679.181,213.355 662.614,218.575C637.028,210.288 615.707,205.515 589.451,200.838C521.816,188.79 446.987,183.66 379.881,201.221C359.78,194.141 340.469,184.989 322.261,173.915C297.547,158.95 275.388,138.959 249.709,125.857C243.353,122.614 231.955,120.469 224.794,121.161ZM509.08,399.397C510.872,401.035 512.318,402.173 512.901,404.636C511.844,411.718 505.741,416.569 500.688,410.203C499.328,408.474 498.738,406.262 499.057,404.085C499.802,399.334 505.294,398.867 509.08,399.397ZM802.48,563.805L803.029,564.123C812.104,573.937 813.33,588.051 813.962,599.862C800.046,606.224 791.527,612.096 779.615,621.295C790.301,619.926 802.497,617.581 813.216,615.776C811.312,624.51 809.205,630.637 804.543,638.309C795.681,639.627 786.579,641.672 777.782,643.514C783.457,645.543 791.782,648.164 797.567,649.453C792.95,656.698 787.349,661.33 779.847,665.319C767.736,670.38 757.722,666.83 746.56,661.163C738.427,656.809 723.443,646.621 731.163,635.825C741.027,622.032 755.079,611.388 763.395,596.181C765.339,592.626 771.317,583.443 776.103,586.872C777.717,590.558 775.872,595.882 774.665,599.573C789.5,588.235 795.241,580.689 802.48,563.805ZM469.887,705.491C480.302,726.12 489.763,747.283 501.127,767.507C511.948,786.765 523.757,812.433 546.384,819.854C561.815,824.914 580.952,819.775 596.916,817.965C605.256,817.024 613.656,816.723 622.042,817.064C639.017,817.769 655.404,821.633 671.349,827.25C673.577,828.035 675.796,828.87 678.079,829.48C669.227,859.194 652.613,877.491 621.82,884.368C630.971,876.43 633.83,870.263 638.203,858.803C621.865,873.637 586.045,882.575 564.599,881.1C543.656,879.66 525.606,869.857 511.733,854.381C495.75,836.55 490.117,820.136 483.987,798.022C484.079,793.529 482.985,784.704 482.476,780.102C480.725,764.268 478.278,748.519 475.139,732.901C473.547,725.172 470.584,712.891 469.887,705.491ZM563.022,740.863C567.392,746.711 571.557,757.177 575.115,763.827C578.681,770.493 581.652,774.429 586.159,780.386C598.443,780.824 610.716,781.078 623.003,781.052C629.168,780.785 637.02,782.457 643.027,781.353C660.902,778.066 672.209,760.356 675.81,744.088C680.482,754.89 679.622,767.48 677.087,778.722C667.979,807.35 655.745,798.514 632.227,795.337C615.307,793.051 599.472,794.194 582.603,797.514C574.191,799.169 553.63,803.63 550.949,791.018C548.672,776.033 555.406,753.664 563.022,740.863ZM689.285,670.206C707.826,668.994 721.467,673.913 737.875,682.043C729.502,705.144 719.92,722.543 700.683,738.857L702.625,733.374C708.551,713.217 708.511,704.624 708.007,684.258C694.173,680.736 665.424,677.971 650.678,676.751C662.475,673.885 677.179,671.25 689.285,670.206ZM574.532,674.868C576.768,675.06 579.299,675.451 581.533,675.781C592.45,677.396 603.061,678.01 614.095,678.008C610.521,690.915 603.707,704.822 596.738,716.191C591.996,723.394 587.946,728.382 582.098,734.573C575.771,711.581 574.479,698.763 574.532,674.868ZM629.639,549.794C643.696,566.729 663.952,589.073 684.607,597.087C682.75,593.974 681.043,590.719 680.246,587.151C679.883,585.526 679.634,583.352 680.754,581.963C681.961,580.467 684.705,579.396 686.569,579.233C689.883,578.943 692.922,580.682 695.252,582.891C705.01,592.143 711.771,613.776 712.031,626.953C712.139,632.395 711.396,636.687 707.401,640.671C693.582,654.456 634.743,660.263 614.392,660.553C579.676,661.048 544.798,651.795 519.412,627.05C536.685,627.404 561.779,626.68 577.992,627.975C552.391,616.271 533.817,610.173 506.326,606.021C503.101,596.991 502.893,591.589 504.127,582.114L587.698,601.684C561.267,585.165 538.835,573.693 509.421,564.078C513.045,555.898 515.959,551.761 522.038,545.393C546.406,554.171 573.372,562.062 597.335,571.373C584.951,559.86 574.595,551.656 559.529,543.619C552.56,539.901 545.171,536.283 538.34,532.444C552.216,523.034 573.364,514.472 590.092,513.3C606.41,521.084 617.983,537.722 629.639,549.794Z" style="fill:white;"/>
        <path d="M410.929,383.351C408.718,383.346 409.433,383.785 408.237,382.673C407.909,378.655 422.249,366.219 425.512,363.665C439.899,352.405 455.321,340.826 472.349,333.936C481.433,330.245 491.037,327.995 500.815,327.265C525.91,325.459 550.682,333.781 569.598,350.37C584.925,363.646 595.773,378.88 610.14,393.028C618.091,400.858 621.256,401.415 628.497,406.901C571.329,436.462 529.858,318.099 410.929,383.351ZM512.901,404.636C512.467,418.278 522.981,436.253 539.508,428.514C545.003,425.941 547.205,416.368 548.414,410.637C554.19,414.272 558.649,416.926 564.628,420.084C556.354,441.618 540.077,449.218 517.495,443.16C506.712,440.267 497.613,430.999 492.341,421.383C486.124,410.041 488.561,401.741 492.224,390.17C496.616,391.123 506.392,393.076 509.837,395.367C510.202,396.709 509.544,397.998 509.08,399.397C505.294,398.867 499.802,399.334 499.057,404.085C498.738,406.262 499.328,408.474 500.688,410.203C505.741,416.569 511.844,411.718 512.901,404.636ZM773.293,405.91C774.196,405.965 773.835,405.967 774.775,406.608C784.002,423.454 771.71,447.586 752.944,449.106C752.306,448.232 751.696,447.339 751.114,446.426C749.811,444.356 746.752,439.152 747.275,436.837C751.252,435.601 753.684,435.182 756.116,431.323C759.873,425.36 759.07,419.1 757.73,412.662C762.994,410.184 767.922,408.124 773.293,405.91Z" style="fill:rgb(254,188,48);"  data-color="color-3"/>
    </g>
</svg>
