<svg width="100%" height="100%" viewBox="0 0 776 772" version="1.1" xmlns="http://www.w3.org/2000/svg" xmlns:xlink="http://www.w3.org/1999/xlink" xml:space="preserve" xmlns:serif="http://www.serif.com/" style="fill-rule:evenodd;clip-rule:evenodd;stroke-linejoin:round;stroke-miterlimit:2;">
    <g transform="matrix(1,0,0,1,-124.21,-129.449)">
        <path d="M182.885,129.661C216.019,126.497 292.254,159.634 325.224,172.121C377.399,144.569 437.401,127.569 496.71,136.276C502.062,137.062 508.383,138.796 513.716,138.771C518.61,138.748 524.351,137.713 529.307,137.189C537.445,136.338 545.617,135.854 553.799,135.739C594.999,135.175 636.518,142.259 673.842,160.043C679.797,162.881 690.181,167.979 695.345,171.832C721.63,161.866 750.461,153.394 777.247,144.976C791.214,140.587 814.185,132.024 828.194,130.317C843.348,128.567 858.569,132.996 870.417,142.604C887.375,156.179 896.479,177.854 898.711,199.012C904.127,250.357 875.196,310.867 844.063,350.031C849.443,360.832 853.839,372.734 857.787,384.131C875.748,435.971 883.131,490.535 873.332,544.791C865.769,586.663 849.522,619.021 822.416,651.515C813.338,662.464 803.506,673.91 792.734,683.263C777.776,696.249 760.91,708.651 744.628,719.925C724.141,735.437 698.845,747.155 682.229,767.349C677.542,774.707 676.269,786.386 674.441,794.829C664.757,839.565 636.587,871.618 592.581,887.13C537.865,906.419 472.849,906.199 419.461,881.83C379.296,863.496 359.379,833.568 348.553,792.137C346.275,783.479 345.934,770.852 339.5,764.338C323.883,748.526 304.168,737.251 285.694,725.166C230.623,688.906 182.943,643.905 160.457,580.15C134.924,507.754 149.141,416.908 180.73,348.847C156.62,314.421 132.981,276.092 125.876,234.109C118.657,191.46 134.403,137.563 182.885,129.661Z" style="fill:white;fill-rule:nonzero;"/>
        <path d="M695.112,192.831C721.25,184.623 747.445,174.479 773.545,165.836C790.407,160.253 810.297,152.559 827.879,150.528C839.337,149.043 853.82,152.361 862.479,160.856C903.857,201.451 871.437,274.081 846.768,315.799C840.216,326.88 831.021,337.452 823.216,346.334C828.832,362.026 835.694,376.977 841.105,392.726C856.441,437.362 863.301,486.449 856.54,533.334C845.726,608.322 803.749,653.455 744.721,697.341C737.573,702.61 730.28,707.679 722.851,712.543C706.331,723.379 672.842,742.839 664.237,760.872C662.237,765.064 660.223,777.333 659.208,782.392C657.803,789.408 655.98,796.333 653.748,803.131C644.397,831.378 627.107,851.054 600.699,864.931C590.596,870.622 579.244,872.536 568.427,875.466C533.763,885.026 499.67,883.428 464.578,877.651C427.303,871.514 393.641,852.322 376.736,817.299C371.878,807.233 368.779,795.991 365.965,785.08C362.931,773.314 362.172,760.001 353.13,750.743C339.38,737.352 320.3,725.111 304.099,714.671C257.382,684.569 214.378,649.553 188.631,599.258C159.552,542.452 160.513,467.074 178.833,406.871C182.321,395.286 186.341,383.867 190.881,372.652C194.438,363.92 198.618,355.238 201.593,346.316C198.39,340.236 187.322,326.676 182.617,319.582C165.141,292.842 148.458,261.18 143.506,229.248C138.741,198.517 147.931,155.613 184.324,150.672C208.656,146.932 251.055,164.684 273.702,173.159C290.966,179.62 308.344,186.294 325.093,193.952C374.683,163.63 435.547,146.801 493.729,155.115C499.149,155.889 504.996,157.853 510.478,157.871C522.977,157.758 534.878,153.986 547.462,153.639C571.833,152.967 594.385,153.861 618.156,160.085C645.615,167.274 669.874,180.276 695.112,192.831Z" style="fill:rgb(2,20,31);fill-rule:nonzero;"/>
        <path d="M173.002,189.627C177.432,184.094 184.974,179.63 192.159,179.952C198.707,180.246 208.354,183.17 214.539,185.491C233.942,192.773 252.79,201.826 271.467,210.779C280.331,215.063 299.787,223.163 306.51,229.519C306.456,229.64 306.403,229.762 306.349,229.884L306.064,230.486C303.698,235.618 298.493,241.489 295.135,246.338C291.839,251.098 289.974,254.491 287.293,259.561C295.998,251.095 302.984,250.463 313.07,243.851C322.103,237.93 330.679,231.209 339.661,225.3C360.803,211.389 384.07,198.704 408.194,190.684C430.131,183.391 456.989,182.309 479.967,185.388C489.821,186.708 501.261,190.218 511.149,190.902C523.747,191.775 537.214,187.258 549.738,185.399C560.299,183.832 570.581,183.601 581.308,183.928C618.898,185.077 653.867,204.896 684.836,224.644C701.77,235.443 715.464,246.306 733.536,255.645C731.746,250.712 715.807,228.47 718.807,226.793C750.226,209.226 784.775,193.705 819.143,182.726C832.456,178.473 839.704,178.312 849.383,189.296C844.693,191.315 837.363,196.375 832.982,199.357C810.884,214.611 790.768,232.551 773.094,252.766C764.776,262.094 757.644,272.216 748.547,280.832C745.529,283.69 738.54,289.39 741.861,293.604C743.901,294.194 742.84,294.082 745.195,293.532C747.212,296.978 751.644,305.168 753.828,307.934C757.194,312.199 764.767,317.542 768.944,321.535C771.324,323.81 775.775,329.473 777.887,330.578C781.05,334.837 786.287,344.868 788.888,349.723C792.092,355.706 796.969,363.874 799.582,369.94C809.878,393.844 815.992,421.974 819.538,447.7C820.043,451.367 821.607,466.887 821.396,470.269C831.429,551.003 802.543,613.822 735.693,659.398C727.851,664.745 717.083,671.417 710.24,677.632C715.798,669.54 721.766,661.715 727.497,653.742C730.54,649.507 732.567,644.544 735.384,640.254C742.319,629.695 748.677,619.879 753.952,608.328C740.07,618.226 728.657,621.927 713.324,628.006C713.615,621.497 712.865,615.806 712.272,609.339C704.781,567.856 675.041,540.492 642.545,516.839C632.038,509.191 626.599,503.478 613.85,499.655C621.108,505.482 622.566,510.486 628.224,517.187C636.569,525.761 642.371,534.671 650.101,543.746C660.746,556.243 674.427,572.653 675.797,589.746C676.198,594.741 664.411,603.863 660.3,607.526C655.5,595.231 645.691,578.026 637.717,567.358C636.33,578.983 630.735,586.716 622.27,594.397C616.097,599.999 597.642,619.656 590.573,621.384C603.181,609.204 608.361,582.958 599.865,567.245C597.276,562.458 593.724,557.421 590.276,553.177C591.478,567.519 591.398,571.383 588.637,585.693C585.299,581.5 582.506,578.25 576.851,577.885C569.052,577.381 558.493,580.028 551.262,582.396C522.883,591.69 498.39,590.534 470.363,581.11C462.874,578.592 447.046,575.452 440.494,581.301C438.252,583.523 437.719,584.203 435.847,586.763C434.282,573.387 433.166,567.048 433.535,553.145C432.071,556.348 430.015,560.43 427.888,563.066C416.071,577.708 418.003,602.28 429.943,616.312C431.274,617.877 433.438,620.653 434.537,622.354C425.66,618.427 419.855,610.896 412.971,604.857C399.592,593.119 390.092,583.07 387.657,564.839C378.052,576.31 368.502,593.295 362.957,607.221C360.476,604.696 358.034,602.411 355.455,600.116C352.524,597.507 347.809,594.285 348.502,589.886C352.297,565.811 372.308,546.356 386.527,527.976C390.336,523.069 394.094,518.123 397.801,513.14C400.926,508.869 403.944,503.859 407.719,500.274C405.63,500.888 402.761,501.692 400.948,502.911C370.374,523.465 340.4,545.246 322.295,578.523C317.174,587.831 313.68,597.945 311.964,608.43C311.139,615.489 310.554,621.775 310.66,628.88C297.264,623.638 281.907,618.252 270.746,609.095C275.94,622.46 284.643,632.77 291.704,644.979C298.793,657.236 307.567,669.165 316.709,680.003C308.574,673.549 300.933,668.751 292.706,662.773C274.384,649.46 253.956,632.927 239.774,615.164C208.027,575.4 196.983,517.929 203.096,467.958C202.895,463.368 204.408,450.716 204.984,445.798C208.282,416.561 215.789,388.826 228.456,362.273C232.868,353.023 243.224,337.299 245.987,328.481C247.099,329.54 247.222,329.823 248.677,330.345C251.667,327.092 254.619,323.71 257.764,320.631C266.308,312.267 274.672,306.689 276.772,294.118C278.34,294.607 277.599,294.625 279.067,294.226C280.272,292.578 281.398,290.344 280.357,288.29C276.613,280.906 269.578,275.96 264.433,269.766C245.104,246.497 225.145,223.812 200.317,206.191C190.476,199.172 184.531,194.555 173.002,189.627Z" style="fill:rgb(224,148,4);fill-rule:nonzero;" data-color="color-1"/>
        <path d="M550.908,386.647C549.654,385.348 547.85,383.8 547.332,382.161C548.696,382.531 550.247,384.48 551.325,385.614C554.196,388.093 557.213,390.582 559.54,393.595C566.274,400.912 587.345,417.46 597.333,417.457C611.47,417.453 634.196,400.857 646.977,393.968C666.264,383.573 712.473,356.654 733.061,371.211C724.645,380.495 718.68,379.494 706.678,380.065L705.848,380.099L708.65,381.424C715.821,384.853 719.385,393.161 723.256,399.677C727.937,407.554 732.288,415.141 735.579,423.745C728.323,414.284 721.313,408.941 711.299,402.747C718.383,459.706 670.797,497.85 616.994,476.816C616.954,482.933 616.661,492.021 617.433,497.929C605.557,499.702 601.213,499.86 590.339,504.564C587.52,512.274 586.714,518.821 585.332,526.897C584.521,531.601 584.51,534.565 584.421,539.288C583.28,535.867 582.561,530.967 582.251,527.351C580.357,521.004 581.115,474.677 581.062,464.646C574.927,465.39 555.855,471.127 550.075,473.377C577.51,440.946 578.858,431.782 556.51,395.152C554.976,393.368 553.804,389.617 550.908,386.647ZM438.827,524.623C438.693,524.235 437.965,520.07 437.835,519.397C436.662,513.297 436.092,510.047 433.248,504.657C428.164,501.823 422.49,500.261 416.736,499.424C413.224,498.914 410.904,499.258 407.476,498.08C407.125,495.723 407.947,480.585 408.023,476.704C362.048,497.383 313.306,466.729 312.265,416.578C312.178,412.385 312.388,408.341 312.601,404.163C302.955,409.641 296.881,414.429 289.695,423.105C294.727,410.069 306.692,393.211 314.227,380.595L311.338,379.53C306.474,377.783 300.278,372.474 296.943,368.627L296.448,368.05C329.886,363.625 365.105,384.823 392.871,402.369C419.753,419.356 431.611,425.095 457.815,400.626C464.378,394.497 466.984,389.755 474.774,384.641C470.571,388.999 470.433,390.599 467.315,395.566C461.642,404.606 451.809,420.335 451.321,431.136C450.684,445.242 465.674,463.64 474.611,473.63C469.427,471.519 447.006,462.946 443.04,465.651C442.121,475.618 443.312,486.875 442.95,496.96C442.638,505.637 443.785,515.165 442.133,523.713C441.895,529.296 441.313,533.81 440.373,539.345C439.758,534.448 439.242,529.54 438.827,524.623ZM505.851,217.712C508.147,217.272 511.399,217.665 513.82,217.654C524.297,217.608 530.318,219.925 538.843,225.755C539.734,227.985 540.594,230.16 540.868,232.572C541.214,235.555 540.282,238.545 538.303,240.803C533.255,246.632 522.641,249.129 515.235,249.796C506.116,251.129 492.546,249.59 485.017,243.956C479.13,239.551 478.689,231.998 483.581,226.64C489.713,219.923 497.315,218.473 505.851,217.712ZM510.864,285.056C512.027,284.99 513.002,285.147 514.129,285.478C527.251,289.337 533.211,306.452 529.185,318.679C526.133,327.948 521.222,333.413 512.708,337.967C511.069,338.043 510.742,337.78 509.221,337.176C490.114,329.583 487.881,299.184 504.526,287.878C506.41,286.598 508.716,285.819 510.864,285.056ZM255.357,496.874C258.358,499.901 262.816,510.438 265.31,514.637C272.6,526.911 291.122,552.725 270.585,561.661C259.024,563.445 251.467,551.706 248.332,542.148C242.598,524.672 247.582,512.28 255.357,496.874ZM767.781,497.318C772.491,501.776 775.482,514.36 776.634,520.517C779.66,536.687 773.384,559.174 754.566,562.003C753.646,561.714 752.77,561.302 751.96,560.779C737.268,551.279 747.535,532.884 753.693,521.31C757.855,513.489 762.799,504.555 767.781,497.318ZM282.983,437.989L285.775,438.068C287.44,439.128 286.969,443.145 287.018,445.462C287.577,471.983 308.927,489.775 330.983,501.259C327.026,500.273 322.279,499.578 318.208,498.879C317.466,498.768 316.726,498.638 315.99,498.488C296.292,494.567 286.305,494.291 273.753,476.187C270.081,470.89 268.085,464.524 269.657,458.085C271.296,451.372 277.165,441.746 282.983,437.989ZM737.457,438.123C739.756,439.382 741.831,440.407 744.178,441.534C745.701,443.554 746.324,446.236 747.616,448.244C750.235,452.314 753.247,454.115 753.883,459.296C754.681,465.793 751.021,474.962 746.855,480.046C734.463,495.169 728.429,495.116 710.882,497.606C705.319,498.691 700.284,499.721 694.641,500.359C704.311,495.194 713.215,488.709 721.097,481.09C734.374,468.005 737.404,456.049 737.457,438.123ZM437.05,200.196C449.183,199.246 456.198,200.731 467.894,202.241C458.48,212.402 447.189,219.706 433.663,223.157C425.692,224.99 415.502,227.246 408.547,222.424C397.756,214.941 409.794,207.174 417.035,204.476C424.496,201.695 429.529,200.913 437.05,200.196ZM688.092,283.584C697.075,282.713 711.219,296.919 715.587,304.205C717.38,307.196 722.235,317.152 721.452,320.487C720.922,319.67 720.37,318.865 719.903,318.011L719.497,318.512C720.102,321.873 718.829,322.244 719.147,324.927C702.749,323.621 683.949,312.088 679.696,295.366C677.742,287.685 681.542,285.186 688.092,283.584ZM576.684,199.692C588.988,199.875 607.648,202.219 615.591,212.899C616.931,214.699 617.543,217.184 618.119,219.344C612.973,224.634 606.665,225.805 599.623,225.139C598.014,225.066 596.41,224.907 594.818,224.663C587.65,223.502 559.176,213.444 560.558,204.666L562.015,205.613L562.442,205.011C562.059,204.256 561.689,203.569 561.278,202.829C563.262,200.653 573.601,199.951 576.684,199.692ZM590.336,247.537C597.929,247.007 605.521,248.599 612.262,252.134C621.333,256.787 629.544,267.546 623.959,278.337C623.294,279.623 620.982,279.625 619.621,279.84C607.375,280.641 595.897,277.471 588.238,267.194C583.226,260.471 582.819,252.557 590.336,247.537ZM392.44,299.587L392.74,299.927C378.547,327.803 380.183,344.24 391.975,372.907C387.037,370.102 385.516,368.895 381.609,364.775C376.315,358.005 371.788,357.389 367.389,348.294C357.163,327.154 367.588,316.224 384.337,303.987C386.977,302.059 389.449,300.964 392.44,299.587ZM786.956,420.229C788.227,420.921 787.707,420.44 788.305,421.931C800.182,424.858 807.055,446.985 805.063,457.743C803.827,464.42 803.059,467.176 797.763,471.382C796.566,472.277 795.05,472.941 793.696,473.614C783.904,468.023 780.973,457.061 780.359,446.544C779.743,435.981 779.755,428.493 786.956,420.229ZM237.077,421.02C251.506,431.253 241.312,477.704 227.41,472.747C216.029,463.839 217.257,443.171 224.578,432.172C228.111,426.865 232.021,424.456 237.077,421.02ZM630.946,299.983C638.164,303.369 642.972,306.908 649.064,311.712C661.643,321.632 662.282,332.763 656.827,346.827C653.819,354.582 650.013,356.65 644.892,362.765C641.178,366.811 638.785,367.868 634.019,370.473C645.861,333.278 644.889,334.727 630.946,299.983ZM427.912,247.691L428.53,247.738L429.44,249.051L430.603,249.179C431.083,248.132 430.739,248.494 431.492,247.973C435.501,249.394 437.485,253.098 439.35,256.771C436.542,272.248 425.777,277.812 411.667,279.825C407.586,280.696 403.699,279.886 399.844,278.677C399.337,271.477 398.577,265.635 403.764,259.713C410.256,252.3 418.306,248.503 427.912,247.691ZM333.313,284.034C343.782,283.36 344.796,289.713 341.742,298.173C337.405,310.184 328.082,320.103 315.624,323.424C307.137,324.286 304.188,322.237 307.201,313.129C311.319,300.677 320.675,288.595 333.313,284.034ZM272.369,346.045C273.322,346.012 274.334,346.081 275.293,346.12C275.952,346.71 276.389,346.826 276.49,347.769C278.078,362.522 267.445,387.02 252.442,391.547C250.039,389.556 248.808,387.843 247.386,385.111C247.597,368.063 254.833,351.281 272.369,346.045ZM749.714,345.588C770.128,349.048 782.452,371.272 772.97,390.109C771.767,391.974 772.308,391.786 770.664,392.245C768.404,391.656 764.277,388.418 762.629,386.712C750.654,374.319 750.161,361.178 749.714,345.588ZM645.372,236.154C649.742,235.974 654.28,235.729 658.551,236.636C669.34,238.927 685.831,247.636 682.505,261.028C682.122,262.572 681.509,262.726 680.278,263.532C678.853,264.226 677.391,264.785 675.851,265.202C665.164,268.1 637.799,247.193 645.372,236.154ZM369.116,236.092C372.27,235.723 375.691,235.995 378.883,236.13C379.192,238.597 379.752,241.577 379.042,243.951C375.748,254.966 364.008,262.996 353.386,265.724C349.359,265.742 347.442,265.353 343.431,264.649C342.72,262.989 342.246,261.151 341.722,259.408C345.283,246.031 356.396,239.105 369.116,236.092ZM312.687,512.726C324.225,511.571 339.687,513.984 346.388,524.576C346.549,528.542 347.167,533.209 345.396,536.702C338.019,539.359 325.365,540.535 319.171,534.84C312.908,529.081 313.025,520.534 312.687,512.726ZM700.645,512.539C704.593,512.343 706.641,512.584 710.605,513.01C708.273,529.348 707.689,536.263 688.827,539.003C679.508,537.603 674.746,535.612 679.665,523.924C682.448,517.313 693.938,514.467 700.645,512.539ZM445.931,330.614C447.58,330.372 448.157,330.142 449.72,330.749C453.882,336.3 439.401,354.459 435.436,358.729C433.21,361.126 427.47,365.34 424.694,367.646L420.615,371.197C424.064,363.843 424.16,356.487 427.512,349.146C431.254,340.951 436.598,332.641 445.931,330.614ZM575.705,331.136C577.231,331.005 580.189,330.66 581.466,331.218C595.928,337.534 597.683,354.578 602.736,367.47C603.184,368.612 603.241,368.1 603.484,369.676L602.619,369.848L600.965,368.002C598.175,364.827 594.53,362.263 591.184,359.613C582.34,352.607 578.439,346.89 574.005,336.804C574.488,334.188 574.575,333.513 575.705,331.136Z" style="fill:rgb(2,20,31);"/>
        <path d="M712.272,609.339L712.995,608.65C714.037,609.471 714,609.45 715.236,609.932C717.541,609.336 718.914,608.239 720.96,607.208C744.971,595.102 770.35,583.017 789.324,563.45C793.804,558.83 798.097,550.153 801.235,544.366C813.58,521.601 819.376,495.823 821.396,470.269C831.429,551.003 802.543,613.822 735.693,659.398C727.851,664.745 717.083,671.417 710.24,677.632C715.798,669.54 721.766,661.715 727.497,653.742C730.54,649.507 732.567,644.544 735.384,640.254C742.319,629.695 748.677,619.879 753.952,608.328C740.07,618.226 728.657,621.927 713.324,628.006C713.615,621.497 712.865,615.806 712.272,609.339ZM203.096,467.958C203.907,474.367 203.712,480.916 204.738,487.287C208.447,510.311 219.269,545.675 234.169,564.035C237.068,567.607 240.69,570.571 244.31,573.377C250.613,578.261 257.152,583.117 263.905,587.363C269.345,590.784 303.958,610.223 308.346,609.863C309.194,609.793 310.062,609.155 310.781,608.746C311.417,608.384 311.148,608.499 311.964,608.43C311.139,615.489 310.554,621.775 310.66,628.88C297.264,623.638 281.907,618.252 270.746,609.095C275.94,622.46 284.643,632.77 291.704,644.979C298.793,657.236 307.567,669.165 316.709,680.003C308.574,673.549 300.933,668.751 292.706,662.773C274.384,649.46 253.956,632.927 239.774,615.164C208.027,575.4 196.983,517.929 203.096,467.958ZM447.909,728.958C448.71,730.045 445.842,749.648 445.626,752.703C445.155,759.712 445.054,766.741 445.324,773.76C464.89,757.21 477.601,746.453 504.851,744.229C535.551,741.724 556.164,751.867 578.904,771.28C579.277,755.495 578.571,744.674 577.392,729.189C585.309,736.88 593.15,743.067 599.126,752.607C617.518,781.964 612.214,818.265 581.846,837.043C577.57,839.315 574.363,840.702 569.803,842.199C573.145,834.42 575.228,828.868 577.577,820.862C572.505,825.597 567.558,828.524 561.896,832.267C521.236,859.146 483.589,850.4 446.902,822.028C449.415,830.852 452.804,836.89 456.547,845.159C447.241,841.829 433.196,829.762 425.815,822.628C417.377,814.472 414.389,794.98 415.071,783.397C416.525,758.708 430.207,744.593 447.909,728.958ZM590.573,621.384C597.642,619.656 616.097,599.999 622.27,594.397C630.735,586.716 636.33,578.983 637.717,567.358C645.691,578.026 655.5,595.231 660.3,607.526C640.645,623.729 623.854,630.449 603.237,642.621C634.028,637.211 654.012,632.901 681.207,616.965C678.887,630.446 679.098,633.075 674.073,646.523C656.142,656.883 640.004,662.337 619.802,666.646C613.269,668.04 603.289,669.169 597.322,671.1C609.531,675.042 617.071,674.921 629.441,675.158C645.451,675.466 652.264,674.848 666.796,667.722C658.406,684.177 650.511,699.066 636.169,711.359C628.113,718.264 624.33,719.887 613.507,718.542C608.429,717.911 602.122,718.252 596.945,717.152C578.29,712.061 559.373,705.193 541.774,697.116C534.793,693.912 530.42,688.669 527.969,681.365C523.97,669.445 530.552,665.272 536.561,656.286C543.011,646.639 549.83,637.187 558.275,629.044C561.269,626.114 563.01,622.809 566.638,619.93C562.921,625.207 560.765,628.718 557.587,634.364C570.412,631.992 580.141,629.929 590.573,621.384ZM387.657,564.839C390.092,583.07 399.592,593.119 412.971,604.857C419.855,610.896 425.66,618.427 434.537,622.354C442.441,628.986 455.353,632.682 465.471,634.079C463.347,630.473 460.262,625.83 458.622,622.209C460.196,623.151 464.861,629.436 466.409,631.295C469.246,634.703 473.592,638.429 476.171,641.734C481.275,648.276 486.071,655.5 491.211,662.071C494.978,666.887 497.654,671.406 496.602,677.676C495.672,683.22 492.297,690.999 487.549,693.988C478.573,699.639 465.942,703.537 456.177,707.811C451.652,709.791 436.018,716.631 432.403,717.211C427.822,717.947 403.275,719.434 400.441,718.429C384.346,712.725 366.815,683.288 358.728,669.618C377.582,675.793 397.66,677.261 417.211,673.894C421.547,673.131 425.029,670.785 429.682,670.4L429.806,670.091C427.805,669.218 425.48,669.388 423.276,669.136C399.41,666.442 374.39,660.388 353.282,648.676C346.804,645.082 343.918,624.974 342.709,617.477C348.542,620.761 355.101,624.588 361.17,627.257C379.979,635.528 401.122,639.366 421.315,642.453C399.424,631.002 382.969,622.404 362.957,607.221C368.502,593.295 378.052,576.31 387.657,564.839ZM219.312,259.604C234.899,267.685 248.996,279.718 264.768,287.585C268.744,289.568 273.067,291.689 276.772,294.118C274.672,306.689 266.308,312.267 257.764,320.631C254.619,323.71 251.667,327.092 248.677,330.345C247.222,329.823 247.099,329.54 245.987,328.481C242.697,324.529 238.943,318.271 235.372,313.812C229.916,306.998 223.503,300.215 219.115,292.822C262.733,309.949 228.223,271.838 219.312,259.604ZM745.195,293.532C766.853,285.384 786.495,272.027 805.431,258.831C800.857,264.478 779.031,288.608 784.607,296.232C788.842,298.634 798.928,294.698 804.542,294.177C799.737,301.138 794.301,307.417 789.272,314.222C785.41,319.449 782.035,325.701 777.887,330.578C775.775,329.473 771.324,323.81 768.944,321.535C764.767,317.542 757.194,312.199 753.828,307.934C751.644,305.168 747.212,296.978 745.195,293.532Z" style="fill:rgb(249,223,183);" data-color="color-2"/>
        <path d="M687.032,399.941L687.702,400.414C692.325,416.233 688.024,434.346 677.389,446.815C670.529,454.903 660.74,459.938 650.171,460.816C639.75,461.604 630.016,457.629 622.154,450.97C620.042,448.979 618.165,446.882 616.2,444.75C619.279,442.206 623.883,439.158 627.234,436.798C627.688,437.339 628.154,437.869 628.63,438.39C636.189,446.615 646.675,447.284 654.836,439.244C662.411,431.782 661.556,424.186 661.483,414.536C667.429,411.778 680.222,403.699 687.032,399.941ZM337.275,396.748C345.925,401.505 356.084,407.261 363.534,413.61L363.552,415.805C363.688,428.605 366.503,443.966 384.02,444.832C389.419,445.099 393.835,440.711 397.276,436.831C401.016,439.155 404.712,441.549 408.363,444.012C406.526,446.706 405.588,447.634 403.329,449.959C394.006,458.804 383.316,462.73 370.457,460.333C359.938,458.353 350.669,452.2 344.76,443.275C334.624,428.182 333.788,413.913 337.275,396.748Z" style="fill:white;"/>
    </g>
</svg>
