<?xml version="1.0" encoding="UTF-8" standalone="no"?>
<!DOCTYPE svg PUBLIC "-//W3C//DTD SVG 1.1//EN" "http://www.w3.org/Graphics/SVG/1.1/DTD/svg11.dtd">
<svg width="100%" height="100%" viewBox="0 0 792 831" version="1.1" xmlns="http://www.w3.org/2000/svg" xmlns:xlink="http://www.w3.org/1999/xlink" xml:space="preserve" xmlns:serif="http://www.serif.com/" style="fill-rule:evenodd;clip-rule:evenodd;stroke-linejoin:round;stroke-miterlimit:2;">
    <g transform="matrix(1,0,0,1,-114.622,-69.7522)">
        <path d="M841.721,69.752C845.135,77.912 848.102,86.251 850.611,94.733C871.376,164.719 867.798,239.679 840.461,307.37C833.737,324.414 826.111,339.37 817.484,355.405C855.727,403.648 889.235,466.029 901.485,526.633C904.148,539.804 905.381,551.673 906.335,565.032C895.69,555.974 887.639,550.338 876.067,542.757C876.731,546.476 877.323,550.207 877.841,553.949C885.053,605.277 877.526,662.595 845.627,704.859C843.311,690.724 839.455,679.257 834.321,666.083C819.544,705.227 797.745,733.371 767.519,761.67C749.658,778.061 738.084,786.394 717.535,799.549C718.47,792.677 718.621,785.789 718.9,778.86C688.401,813.031 649.996,839.211 607.042,855.112C609.865,846.137 611.079,836.79 612.161,827.492C584.642,859.225 547.779,880.852 511.197,900.063C468.618,878.591 442.855,862.212 409.817,827.554C410.563,838.077 411.904,845.051 414.723,855.043C375.112,842.161 331.355,810.241 303.517,779.678C303.439,786.48 303.716,793.282 304.348,800.055C293.955,793.199 282.447,785.673 272.755,777.911C235.658,748.201 203.171,711.39 187.286,666.031C181.446,680.546 178.933,689.564 175.659,704.67C173.634,701.861 171.672,699.006 169.776,696.109C142.176,653.448 134.407,591.355 145.014,542.163C133.458,549.2 125.085,555.949 114.622,564.551C119.068,499.738 143.327,444.532 178.584,390.467C186.617,378.148 194.78,367.4 203.117,355.487C195.417,341.236 188.69,328.527 182.43,313.492C150.138,235.941 146.874,148.415 178.507,70.298C179.725,70.984 191.071,85.291 193.542,87.883C206.018,101.121 219.532,113.341 233.954,124.427C261.488,145.383 289.684,160.275 318.618,178.856C338.074,191.35 356.145,206.219 373.339,221.64C441.989,205.248 513.012,201.235 583.071,209.791C605.587,212.611 626.466,216.915 648.543,221.655C668.18,202.962 696.725,181.58 720.13,167.864C767.735,139.969 807.045,113.675 841.721,69.752Z" style="fill:rgb(189,189,191);fill-rule:nonzero;"/>
        <path d="M835.24,103.966C836.574,106.701 839.002,116.29 839.816,119.794C859.649,205.123 842.543,282.602 797.67,356.216C838.54,408.621 872.401,464.639 886.546,530.391C873.777,522.282 865.323,517.76 851.47,512.085C852.437,514.913 853.381,517.75 854.301,520.594C866.514,558.753 868.382,599.468 859.715,638.584C857.962,646.313 855.015,657.395 851.447,664.368C844.058,649.005 840.319,642.837 829.456,629.658C829.354,630.142 829.249,630.624 829.141,631.106C819.427,674.906 794.862,713.732 762.745,744.563C752.755,754.154 744.177,761.91 732.484,769.36C732.471,757.545 731.603,750.046 726.705,739.404C722.999,747.524 716.358,756.761 710.724,763.875C687.918,792.67 659.15,812.939 626.741,829.582C628.762,819.429 629.956,807.415 630.375,797.052C630.695,789.157 630.305,781.359 630.925,773.369C602.595,825.468 562.593,855.139 511.092,881.908C469.477,860.256 434.995,837.427 407.204,798.805C402.28,791.962 394.465,780.878 390.958,773.434C390.851,792.485 391.176,810.407 394.51,829.264C354.565,807.416 317.601,780.57 295.173,739.874L293.483,743.498C289.491,752.828 289.401,760.171 289.318,769.993C238.747,733.629 207.387,690.112 192.13,629.802C180.328,644.633 178.609,648.279 170.107,664.635C150.426,615.577 152.127,561.204 169.442,511.786C157.405,515.996 145.095,523.024 134.492,530.159C147.135,466.799 183.96,406.168 223.101,355.862C215.181,344.189 204.065,322.932 198.456,310.032C174.836,255.719 166.152,192.887 177.55,134.541C179.22,125.99 182.362,112.226 185.462,104.196C200.902,119.88 217.757,134.107 235.811,146.694C257.637,161.921 277.063,172.264 298.972,186.028C323.928,201.368 347.106,219.428 368.083,239.875C461.626,215.38 559.903,215.411 653.43,239.966C672.301,221.242 693.129,204.6 715.555,190.325C748.856,168.866 784.044,150.682 813.775,124.011C821.095,117.444 828.062,110.671 835.24,103.966Z" style="fill:rgb(7,49,0);"/>
        <path d="M739.09,577.08C744.162,583.028 747.648,588.463 750.774,595.659C768.662,636.837 768.073,673.857 752.415,715.115C750.739,708.953 749.45,702.453 747.716,696.187C741.606,674.117 732.861,659.57 717.288,643.026C718.871,649.68 719.371,659.5 718.786,666.295C715.095,709.166 692.744,742.387 661.478,769.921C674.279,737.121 672.619,705.468 652.712,676.035C667.48,658.383 676.598,645.373 677.022,622.078C684.823,620.194 692.945,618.582 700.82,616.714C708.765,614.829 719.095,612.027 727.02,611.157C712.374,604.277 691.403,602.024 675.234,602.002C674.219,598.642 666.228,576.693 666.293,576.288L667.943,575.216C695.298,568.955 719.37,565.756 746.731,574.71C744.441,574.859 739.656,574.82 738.116,576.235C738.723,577.034 738.362,576.802 739.09,577.08ZM617.567,508.112C646.753,507.866 671.692,493.368 681.516,464.589C683.561,458.599 684.042,451.981 686.391,446.037C689.537,443.038 693.073,441.188 696.83,439.07C696.742,450.196 696.331,457.991 693.319,469.04C684.967,499.666 655.175,520.369 623.657,510.917C621.44,510.252 619.522,509.387 617.567,508.112ZM325.03,439.05C328.753,440.989 332.196,442.763 335.386,445.543L335.653,446.347C337.677,452.511 338.517,458.97 340.54,465.009C350.126,493.627 375.911,507.991 404.721,508.073C398.593,512.852 386.522,513.621 379.113,513.041C361.688,511.677 344.371,500.522 335.39,485.589C328.165,473.574 323.903,453.024 325.03,439.05ZM354.623,575.77L355.28,576.429C354.8,578.919 352.238,584.549 351.191,587.312C349.242,592.455 347.969,596.633 346.464,601.949C328.347,602.077 311.775,603.515 295.094,611.143C311.719,614.119 328.254,617.583 344.675,621.532C345.93,647.268 353.777,656.113 368.927,675.849C347.409,707.159 348.917,735.704 360.233,770.25C329.081,742.103 306.706,710.552 303.058,666.948C302.826,664.175 302.833,654.255 303.241,651.623C303.449,648.569 304.112,645.57 304.691,642.561L299.938,647.986C281.181,669.195 274.627,688.009 269.949,715.29C263.461,699.898 259.432,683.582 258.011,666.939C255.817,638.68 264.072,598.679 282.877,576.689L283.335,576.343L282.99,575.728C280.286,574.927 277.4,574.931 274.556,574.768C298.134,565.324 330.411,569.323 354.623,575.77ZM500.101,703.201C524.788,699.737 567.011,707.92 580.594,731.297C582.027,733.764 583.139,737.35 584.026,740.085C588.917,729.806 591.092,718.359 592.824,707.159C599.739,707.061 605.335,706.896 612.165,705.893C609.464,729.597 602.035,757.007 588.574,776.745C580.357,788.794 571.899,797.573 561.743,807.854C565.215,794.8 565.89,781.161 563.725,767.828C550.776,790.678 537.071,808.065 517.392,825.73L510.754,831.271C490.162,815.519 470.5,790.656 458.267,767.862C455.255,779.653 457.134,796.383 459.838,808.06C452.476,800.169 445.986,793.552 439.313,785.024C420.171,760.563 414.554,735.511 409.697,705.969C416.76,706.973 421.694,707.067 428.724,707.049C429.984,716.646 433.15,731.302 437.598,739.674C438.605,737.035 439.654,734.116 441.092,731.698C452.872,711.885 479.073,705.416 500.101,703.201ZM433.5,539.068C433.915,540.059 432.93,544.682 432.704,545.993C430.066,561.255 431.385,576.772 440.404,589.794C447.329,599.792 457.636,603.023 467.823,608.884C471.3,603.945 472.897,602.348 477.568,598.505C488.508,606.403 488.441,611.516 484.066,623.284C489.75,631.582 499.157,638.673 499.879,649.508C500.104,652.876 499.463,655.3 497.173,657.841C488.396,667.58 442.305,685.088 429.226,685.948C412.616,687.04 397.258,676.822 385.445,666.297C390.209,666.94 395.966,667.363 400.766,667.667L401.34,666.977C401.043,666.144 400.819,665.552 400.026,665.04C391.85,659.753 383.996,655.373 376.823,648.625C370.534,642.525 367.686,636.757 364.811,628.659C392.439,633.914 413.359,633.247 440.639,626.889C417.197,621.639 387.783,614.751 365.321,606.154C366.348,597.686 367.928,592.547 371.333,584.719C388.164,589.135 405.846,593.198 423.17,595.029C409.207,583.609 399.302,576.081 384.338,566.077C394.837,556.752 420.418,545.142 433.5,539.068ZM406.947,651.077C397.029,655.092 402.07,666.377 411.85,666.865C420.731,661.665 417.144,652.476 406.947,651.077ZM434.968,647.542C427.51,651.877 431.297,660.977 440.305,659.947C446.989,653.968 444.438,647.163 434.968,647.542ZM587.359,539.02C600.044,543.112 626.27,557.71 636.459,565.865C621.649,575.986 611.55,583.985 597.484,595.073C618.301,592.079 629.762,589.879 650.401,584.855C654.152,592.255 655.302,597.964 656.575,606.1C634.656,615.258 604.273,620.789 581.129,626.992C605.683,634.798 632.218,632.853 657.162,628.764C654.228,637.122 651.712,641.231 645.871,647.736C637.541,656.623 629.043,659.917 620.43,666.794L620.537,667.243C624.738,667.648 633.464,667.008 637.645,666.21C606.746,695.502 585.794,687.619 550.865,672.386C516.216,657.275 513.751,653.027 537.897,623.252C532.666,611.747 534.17,607.238 543.642,599.39C548.458,602.125 550.548,604.741 553.758,609.02C565.048,601.789 574.707,599.914 582.42,587.856C592.33,572.364 590.99,556.081 587.359,539.02ZM612.007,651.477C603.485,656.573 602.367,667.352 612.876,667.004C623.044,662.059 622.823,650.063 612.007,651.477ZM582.443,647.536C574.45,652.383 579.115,661.387 586.573,660.165C588.775,658.472 590.502,656.592 590.917,653.694C591.149,652.136 590.667,650.555 589.604,649.391C588.133,647.766 586.688,647.526 584.614,647.502C583.89,647.499 583.166,647.51 582.443,647.536Z" style="fill:rgb(254,254,254);"/>
        <path d="M282.877,576.689C256.531,591.914 244.986,605.504 232.105,632.627C231.684,617.658 231.258,604.437 232.528,589.586C235.891,550.253 258.755,487.931 285.31,458.543C234.793,486.127 208.585,529.968 188.669,582.413C190.622,563.086 192.199,549.093 197.754,530.134C209.482,490.109 236.786,450.641 265.895,421.312C259.664,423.961 253.441,426.18 247.33,429.084C225.713,439.355 207.411,452.683 189.996,468.971C213.424,415.531 242.543,375.805 291.667,343.376C282.367,318.953 270.201,297.873 259.196,274.183C276.689,288.269 302.291,307.88 314.57,326.646C314.427,317.186 313.522,308.747 310.097,299.775C297.855,267.698 271.664,241.857 247.651,218.218C239.662,210.354 231.826,202.362 223.893,194.69L223.264,194.093C221.802,205.487 220.273,218.841 220.999,230.378C223.042,262.864 234.682,310.964 247.304,340.524C244.411,337.734 238.142,327.343 235.796,323.511C213.675,286.949 201.492,245.242 200.455,202.522C200.158,186.987 201.381,171.588 203.187,156.167C218.7,168.487 234.666,180.226 251.053,191.358C286.413,215.574 324.041,238.037 352.743,270.452C365.628,285.005 381.834,306.804 387.219,325.601C390.4,309.873 392.699,278.537 384.584,264.276C417.403,253.474 459.274,250.995 493.605,249.477C499.157,289.403 506.422,330.618 511.009,370.539L522.698,289.33C524.348,277.86 527.468,260.287 528.152,249.407C558.213,249.9 608.746,254.597 636.973,264.267C629.261,280.543 631.334,308.177 633.892,326.067C636.944,314.994 644.058,303.402 650.603,293.861C676.932,255.479 714.086,229.18 752.016,203.401C772.867,189.23 797.897,172.858 816.741,156.247C818.913,167.86 820.005,184.191 820.086,196.098C820.466,252.107 804.517,295.717 774,341.67C787.111,303.388 800.317,264.027 800.922,222.924C801.056,213.782 799.744,203.517 798.39,194.416C767.331,225.324 724.791,259.781 710.314,301.961C707.403,310.44 707.054,318.382 706.028,327.062C716.818,312.153 728.675,301.137 742.948,289.735C748.832,285.035 757.601,278.726 762.834,273.705C758.161,282.878 753.893,292.265 749.275,301.415C742.074,315.684 735.713,328.551 729.967,343.493C777.739,374.381 808.807,417.009 830.948,469.028C810.547,450.071 782.908,430.699 756.372,421.717C762.059,427.307 767.502,433.76 772.668,439.852C797.459,469.08 817.099,502.301 826.048,539.83C827.876,547.499 829.353,555.247 830.474,563.05C831.294,569.104 831.827,576.114 832.892,581.985C821.018,555.602 813.803,534.696 796.107,511.225C777.93,487.117 762.594,473.693 736.802,458.603C768.02,499.943 789.698,559.281 790.111,611.414C790.146,615.856 790.5,628.269 789.495,631.839C788.669,630.635 787.75,628.428 787.104,627.038C785.896,625.417 781.439,616.772 779.843,613.968C772.532,601.125 752.634,582.548 739.09,577.08C738.362,576.802 738.723,577.034 738.116,576.235C739.656,574.82 744.441,574.859 746.731,574.71C719.37,565.756 695.298,568.955 667.943,575.216C674.23,569.72 702.455,556.665 710.972,552.049C689.065,553.456 678.659,553.465 656.753,558.634C641.795,545.629 629.804,545.618 614.509,535.954C602.233,528.198 594.985,514.454 592.34,500.305C601.932,505.356 606.795,507.094 617.567,508.112C619.522,509.387 621.44,510.252 623.657,510.917C655.175,520.369 684.967,499.666 693.319,469.04C696.331,457.991 696.742,450.196 696.83,439.07C704.011,434.547 720.065,430.066 728.611,427.738C711.459,423.719 696.088,422.148 678.497,421.684C668.968,421.433 659.802,420.71 650.204,420.962C675.215,401.32 691.088,396.955 722.897,396.895C706.193,390.556 699.2,387.7 681.111,387.819C655.842,387.986 645.154,399.66 627.857,415.559C619.722,423.04 611.386,430.3 602.86,437.331C592.864,445.676 587.039,451.23 574.43,454.879C552.35,433.264 581.767,390.736 595.814,371.963C569.564,388.745 543.047,411.831 547.228,446.457C548.888,460.201 555.311,468.475 566.026,476.77C568.324,500.35 566.397,523.195 567.775,546.68C568.198,553.883 568.498,560.938 568.474,568.147C559.071,559.125 547.357,554.919 534.468,557.639C525.493,559.533 519.328,562.116 509.738,561.97C499.221,561.811 490.564,557.507 480.447,556.996C469.116,556.423 461.067,560.879 452.988,568.275C453.076,565.218 453.023,561.705 453.285,558.689C455.675,531.104 452.804,504.236 456.087,476.686C461.833,472.768 466.572,467.547 469.918,461.45C475.821,450.559 476.314,436.106 472.934,424.343C466.931,403.445 445.084,383.015 426.367,373.007C441.163,390.974 469.122,435.57 446.821,455.446C431.458,450.423 403.03,425.338 390.95,413.198C363.569,385.682 337.373,379.741 299.621,396.844C331.649,397.001 346.857,401.54 371.599,420.948C348.491,420.396 317.182,422.555 294.861,427.605C304.825,430.701 315.957,433.934 325.03,439.05C323.903,453.024 328.165,473.574 335.39,485.589C344.371,500.522 361.688,511.677 379.113,513.041C386.522,513.621 398.593,512.852 404.721,508.073C415.723,507.094 419.267,505.801 429.325,500.935C425.126,517.217 418.849,529.43 403.824,538.179C397.722,541.733 392.037,543.574 385.723,546.379C378.458,549.59 371.675,553.796 365.57,558.877C347.452,555.448 328.364,552.355 309.872,552.201C317.715,555.879 349.777,571.154 354.623,575.77C330.411,569.323 298.134,565.324 274.556,574.768C277.4,574.931 280.286,574.927 282.99,575.728L283.335,576.343L282.877,576.689ZM363.484,436.512C369.162,436.397 376.503,438.52 381.44,441.32C378.164,447.911 377.046,454.807 380.126,461.777C385.227,473.317 404.429,476.014 410.995,464.483C412.118,462.511 412.75,459.998 413.364,457.801C418.59,460.401 423.853,462.927 429.15,465.38C428.343,467.764 427.332,469.834 426.282,472.112C422.273,479.582 416.579,484.24 408.551,487.008C399.29,490.14 389.158,489.408 380.444,484.977C362.585,476.097 354.349,454.495 363.484,436.512ZM654.79,436.634C657.417,436.508 656.718,436.164 658.636,437.343C661.447,441.367 661.986,452.764 661.334,457.776C660.107,467.104 655.155,475.537 647.606,481.151C631.275,493.426 609.641,491.519 597.105,474.894C594.923,471.097 594.122,469.493 592.591,465.42C597.968,462.967 603.296,460.408 608.572,457.746C609.022,459.804 609.417,461.781 610.385,463.67C612.191,467.236 615.352,469.929 619.16,471.145C634.278,475.988 646.909,462.347 642.578,447.742C641.791,445.088 641.187,443.827 639.921,441.426C645.735,438.672 648.503,437.647 654.79,436.634Z" style="fill:rgb(215,152,47);"/>
        <path d="M363.484,436.512C369.162,436.397 376.503,438.52 381.44,441.32C378.164,447.911 377.046,454.807 380.126,461.777C385.227,473.317 404.429,476.014 410.995,464.483C412.118,462.511 412.75,459.998 413.364,457.801C418.59,460.401 423.853,462.927 429.15,465.38C428.343,467.764 427.332,469.834 426.282,472.112C422.273,479.582 416.579,484.24 408.551,487.008C399.29,490.14 389.158,489.408 380.444,484.977C362.585,476.097 354.349,454.495 363.484,436.512ZM654.79,436.634C657.417,436.508 656.718,436.164 658.636,437.343C661.447,441.367 661.986,452.764 661.334,457.776C660.107,467.104 655.155,475.537 647.606,481.151C631.275,493.426 609.641,491.519 597.105,474.894C594.923,471.097 594.122,469.493 592.591,465.42C597.968,462.967 603.296,460.408 608.572,457.746C609.022,459.804 609.417,461.781 610.385,463.67C612.191,467.236 615.352,469.929 619.16,471.145C634.278,475.988 646.909,462.347 642.578,447.742C641.791,445.088 641.187,443.827 639.921,441.426C645.735,438.672 648.503,437.647 654.79,436.634Z" style="fill:white;fill-opacity:0.25;"/>
    </g>
</svg>
