<svg width="100%" height="100%" viewBox="0 0 764 862" version="1.1" xmlns="http://www.w3.org/2000/svg" xmlns:xlink="http://www.w3.org/1999/xlink" xml:space="preserve" xmlns:serif="http://www.serif.com/" style="fill-rule:evenodd;clip-rule:evenodd;stroke-linejoin:round;stroke-miterlimit:2;">
    <g transform="matrix(1,0,0,1,-130.347,-83.0258)">
        <path d="M476.723,83.229C528.761,81.35 585.154,92.319 627.786,123.602C675.66,109.237 719.707,117.89 758.755,149.318C750.993,151.064 743.267,152.97 735.584,155.037C742.035,157.484 747.244,159.833 753.468,162.742C771.82,157.407 792.154,146.747 806.761,134.187C815.168,149.049 822.861,170.576 826.751,187.179C837.503,233.076 834.985,279.484 810.027,320.441C903.056,422.858 920.09,554.401 854.717,676.787C846.028,693.054 837.381,707.429 825.394,721.565C823.189,714.922 821.207,708.469 818.528,701.988C816.87,705.746 815.235,710.032 813.64,713.879C777.804,800.33 697.328,855.151 617.721,897.727C596.486,909.085 575.547,920.187 553.128,929.288C538.789,935.427 524.005,940.47 508.903,944.375C500.009,933.246 491.518,923.138 481.078,913.419C447.335,882.005 406.39,862.073 366.67,839.614C328.352,817.948 297.734,797.683 267.33,765.763C267.632,771.939 268.297,777.639 268.987,783.778C254.346,773.871 242.555,764.43 230.055,751.805C180.401,701.324 152.692,633.276 152.954,562.468C147.941,569.179 143.74,576.148 139.486,583.343C134.072,568.161 132.354,551.713 131.17,535.804C127.402,488.641 136.764,445.97 155.36,402.762C170.29,368.073 185.476,344.767 210.07,316.549C208.674,313.967 207.307,311.371 205.967,308.759C187.571,272.423 188.03,226.816 196.259,187.642C200.204,168.864 206.537,150.766 212.543,132.585C235.704,139.687 261.854,146.309 285.414,152.894C300.378,143.702 312.419,132.693 326.884,123.667C374.346,94.05 421.648,85.307 476.723,83.229ZM474.12,96.727C517.029,94.735 590.36,105.728 621.603,137.888C630.753,135.52 640.332,132.874 649.676,131.578C676.3,127.885 703.914,132.782 728.406,143.505C718.299,146.857 707.935,151.144 700.122,158.564C715.268,159.887 737.607,168.439 750.537,176.486C772.514,171.833 783.109,166.695 801.525,154.638C809.166,173.782 815.705,195.347 818.055,215.84C822.134,251.411 816.534,291.793 793.845,320.531C830.252,362.607 858.39,405.099 872.284,459.717C893.172,541.833 873.032,621.192 830.17,692.568C825.392,681.771 820.7,669.858 816.156,658.89C811.34,679.192 807.395,695.142 798.729,714.042C763.349,791.203 693.921,841.227 621.275,880.383C589.825,897.335 560.537,912.47 526.649,925.072C522.7,926.401 518.743,927.71 514.78,928.997C442.193,840.276 319.29,827.316 253.462,725.585C253.063,735.246 252.759,744.912 252.549,754.579C239.825,743.32 228.354,730.72 218.336,716.998C187.237,674.011 165.624,619.466 167.002,565.968C167.468,547.876 169.595,534.94 172.427,517.206C159.137,529.59 155.602,532.904 145.194,547.492C144.68,542.046 144.349,536.584 144.201,531.116C141.683,452.645 173.59,373.678 227.179,316.645C223.274,311.787 219.955,306.486 217.289,300.852C195.405,254.982 205.208,194.803 221.39,148.613C240.774,153.193 263.975,161.51 283.817,166.886C298.535,159.96 308.383,156.862 324.028,153.147C333.896,150.803 351.726,147.25 360.94,143.361L327.713,138.736C366.359,108.489 426.529,98.297 474.12,96.727Z" style="fill:white;"/>
        <path d="M474.12,96.727C517.029,94.735 590.36,105.728 621.603,137.888C630.753,135.52 640.332,132.874 649.676,131.578C676.3,127.885 703.914,132.782 728.406,143.505C718.299,146.857 707.935,151.144 700.122,158.564C715.268,159.887 737.607,168.439 750.537,176.486C772.514,171.833 783.109,166.695 801.525,154.638C809.166,173.782 815.705,195.347 818.055,215.84C822.134,251.411 816.534,291.793 793.845,320.531C830.252,362.607 858.39,405.099 872.284,459.717C893.172,541.833 873.032,621.192 830.17,692.568C825.392,681.771 820.7,669.858 816.156,658.89C811.34,679.192 807.395,695.142 798.729,714.042C763.349,791.203 693.921,841.227 621.275,880.383C589.825,897.335 560.537,912.47 526.649,925.072C522.7,926.401 518.743,927.71 514.78,928.997C442.193,840.276 319.29,827.316 253.462,725.585C253.063,735.246 252.759,744.912 252.549,754.579C239.825,743.32 228.354,730.72 218.336,716.998C187.237,674.011 165.624,619.466 167.002,565.968C167.468,547.876 169.595,534.94 172.427,517.206C159.137,529.59 155.602,532.904 145.194,547.492C144.68,542.046 144.349,536.584 144.201,531.116C141.683,452.645 173.59,373.678 227.179,316.645C223.274,311.787 219.955,306.486 217.289,300.852C195.405,254.982 205.208,194.803 221.39,148.613C240.774,153.193 263.975,161.51 283.817,166.886C298.535,159.96 308.383,156.862 324.028,153.147C333.896,150.803 351.726,147.25 360.94,143.361L327.713,138.736C366.359,108.489 426.529,98.297 474.12,96.727ZM701.675,650.01C702.092,651.003 702.884,656.778 703.047,658.08C705.668,678.981 705.774,708.781 702.515,729.432C735.512,678.162 745.414,620.073 743.572,560.09C743.36,555.593 742.683,551.114 742.087,546.649L747.006,557.349C750.014,564.649 754.053,573.999 755.939,581.583C766.656,624.665 763.315,671.016 745.942,711.939C723.907,763.841 681.746,806.361 635.433,837.384C622.904,845.777 608.726,852.871 595.368,859.511C635.119,818.329 670.377,751.12 686.768,696.727C689.992,686.217 692.655,675.544 694.746,664.753C695.348,661.699 696.967,649.062 697.772,647.121C698.261,642.74 698.62,639.17 698.779,634.777C699.772,638.838 701.448,645.931 701.675,650.01ZM459.662,661.831C459.384,663.616 459.512,668.09 459.516,670.088C457.616,672.826 452.382,677.353 449.723,679.892C448.474,677.69 447.28,675.457 446.142,673.195C436.232,653.042 446.954,650.323 463.925,642.605C497.205,626.668 529.682,626.721 564.023,639.105C566.633,640.047 570.772,641.514 573.129,642.679C599.718,653.763 598.793,654.306 587.811,679.225C584.168,676.616 582.3,675.32 579.127,672.261C578.975,670.928 578.464,665.673 578.216,664.623C565.863,654.558 555.379,647.56 539.23,646.081C511.942,643.581 482.038,644.784 459.662,661.831ZM366.761,754.225C367.351,756.746 369.514,761.93 370.539,764.518C377.457,781.981 388.107,796.434 400.951,809.957C308.435,760.094 237.623,698.61 230.73,586.915C225.516,609.361 221.928,628.134 221.887,651.331C201.023,609.966 189.367,573.702 197.183,526.47C202.632,493.537 217.918,468.767 240.099,444.773C244.086,440.461 253.416,430.241 257.665,427.225C235.369,459.05 216.555,509.042 221.315,548.273C229.39,524.779 242.777,504.026 258.435,484.885C264.264,477.76 271.44,470.71 276.926,463.449C275.637,467.497 274.384,471.557 273.166,475.628C258.436,525.251 246.841,583.219 263.125,633.968C266.886,645.69 272.669,656.073 278.494,666.824C277.06,656.63 276.888,643.884 277.006,633.568C277.406,598.693 284.448,577.321 299.781,547.043C299.581,548.264 299.423,549.491 299.309,550.723C298.435,560.692 299.859,580.808 300.791,590.991C305.185,639.027 317.931,687.138 344.653,727.781C350.847,737.201 357.278,745.162 364.421,753.811C364.113,752.208 363.938,752.244 363.269,750.938C360.567,745.659 358.759,739.832 356.748,734.259C347.983,707.052 344.381,678.195 346.031,649.66C346.41,643.103 347.367,636.229 348.079,629.701C351.121,645.847 357.285,658.769 364.69,673.184C360.523,693.798 359.939,714.976 362.966,735.788C363.934,742.021 365.887,748.607 366.761,754.225ZM258.769,284.53C263.717,297.755 270.608,304.606 281.84,312.646C262.858,314.441 250.452,304.982 241.739,288.51C225.428,257.673 230.278,219.984 239.61,187.707C252.272,192.862 265.103,197.59 278.082,201.884C289.363,205.51 300.973,208.164 312.006,212.419C330.631,219.601 347.909,229.444 361.655,244.175C355.84,249.786 350.587,254.972 345.139,260.927C342.414,264.144 339.752,267.413 337.154,270.734C318.179,245.451 296.078,227.91 265.102,219.481C264.156,239.092 270.472,251.802 283.6,266.426C284.164,267.055 284.741,267.672 285.335,268.274C274.744,266.998 266.045,266.372 258.214,258.201C256.324,268.375 256.945,274.323 258.769,284.53ZM494.859,792.236C494.152,791.858 493.449,791.472 492.751,791.079C479.092,783.385 459.902,770.475 451.887,757.109C448.851,752.046 447.469,747.734 445.889,742.104C440.037,752.526 438.105,757.002 436.869,768.869C415.333,744.763 415.516,724.525 426.527,695.715C431.019,703.152 432.835,706.382 438.574,713.176C457.184,685.592 497.54,674.554 529.154,678.112C549.067,679.474 575.099,690.429 588.65,705.618C593.204,710.722 594.145,714.268 594.036,720.656L594.412,721.223C602.505,718.022 606.772,706.366 608.338,698.493C618.883,726.16 613.985,748.917 596.016,772.288C597.219,761.439 594.97,748.217 586.628,740.506C577.491,764.332 565.741,774.845 545.579,790.291C540.172,794.433 534.145,799.22 528.411,802.827C525.333,805.725 519.714,812.749 516.715,816.3C511.88,804.861 504.688,799.456 494.859,792.236ZM738.73,357.025C739.13,357.148 739.864,357.425 740.2,357.581C780.884,376.475 818.419,419.041 835.763,459.693C856.173,507.53 854.765,582.113 835.543,629.358C832.426,614.559 826.226,599.655 819.402,586.227C816.978,593.706 815.033,601.849 812.636,609.49C808.127,623.86 802.885,634.989 795.573,648.066C797.372,641.604 798.289,636.304 799.347,629.742C808.818,575.111 797.343,496.186 767.14,448.79C790.767,468.937 802.723,482.594 818.089,509.611C815.576,467.956 790.71,418.173 764.72,386.077C759.481,379.607 753.733,373.395 748.067,367.309C745.659,364.723 741.332,360.43 739.336,357.827L738.73,357.025ZM519.266,130.056C532.723,134.755 552.203,152.342 560.499,163.886C582.7,194.779 570.035,235.926 548.711,263.546C543.618,270.142 535.267,280.334 528.52,284.922C528.651,275.733 527.689,266.561 525.653,257.599C516.963,219.115 492.608,183.146 459.084,162.089C441.446,150.777 423.751,144.609 403.293,140.625C397.535,139.504 391.713,138.848 386.073,137.624C394.257,137.41 402.418,136.389 410.607,136.142C432.685,135.476 456.303,137.367 476.969,145.468C502.352,155.419 524.67,173.246 538.378,196.977C541.617,202.584 543.726,208.813 546.322,214.774C548.358,186.496 546.985,166.161 529.623,142.052C526.529,137.755 522.62,134.454 519.817,130.787L519.266,130.056ZM302.163,340.468L302.73,340.64C302.438,342.164 298.363,347.138 297.247,348.743C261.794,399.73 207.675,435.399 168.831,482.701L168.44,482.788L168.121,482.044C169.603,472.186 173.569,459.706 177.39,450.514C199.598,397.074 250.465,361.98 302.163,340.468ZM377.329,173.709C430.94,167.888 475.179,206.963 494.68,253.816C497.237,259.958 498.944,266.83 500.669,273.268C495.123,265.855 491.038,261.022 484.65,254.323C459.23,225.452 424.364,210.96 389.744,196.145C374.904,189.795 357.182,182.567 341.637,178.368C352.797,177.395 365.091,174.811 377.329,173.709ZM661.848,165.977L662.221,166.291C662.137,166.55 650.758,175.92 649.078,177.517C634.513,191.362 622.14,207.292 607.504,221.117C599.241,228.923 590.566,236.01 581.665,243.062L581.244,242.47C604.714,199.082 613.466,184.851 661.848,165.977ZM635.378,388.915C638.635,391.434 639.885,397.788 639.974,401.743C640.127,408.77 637.489,415.571 632.64,420.659C622.054,431.683 603.841,432.731 592.799,421.546C591.141,419.353 590.365,417.785 589.095,415.391C592.212,414.585 595.214,413.386 598.234,412.262C606.067,421.939 616.832,424.028 623.646,410.736C625.836,406.464 624.678,401.712 622.728,397.465C626.647,394.197 630.885,391.332 635.378,388.915ZM402.148,388.052C407.889,391.048 410.052,392.945 415.013,397.269L414.738,397.903C409.825,409.056 415.219,417.325 426.448,420.219C433.165,418.627 434.354,417.558 438.893,412.265C441.575,413.392 444.582,414.434 447.336,415.448C446.468,417.209 445.279,419.144 444.282,420.863C436.137,430.801 421.207,431.731 410.653,425.358C404.747,421.804 400.5,416.045 398.849,409.353C396.787,401.31 397.993,394.989 402.148,388.052ZM679.001,252.973C677.544,251.189 676.099,249.395 674.666,247.591C675.251,246.982 675.848,246.384 676.455,245.797C708.148,215.159 739.795,212.646 779.341,200.18C781.272,199.571 784.77,197.633 786.609,197.66L787.091,198.961C795.79,221.493 794.415,264.578 783.536,286.396C776.308,300.891 771.899,307.621 758.817,316.783C771.746,290.843 777.121,270.067 777.013,241.115C776.989,234.814 777.261,227.814 776.404,221.565C762.821,240.246 742.797,258.995 720.187,265.572C730.122,275.585 738.406,279.345 752.734,281.301C724.517,300.171 695.84,274.995 679.001,252.973ZM331.826,494.579C326.539,486.867 324.963,481.324 322.919,472.212C318.064,450.569 320.732,431.792 327.323,411C317.928,416.931 305.708,421.96 295.427,426.387C320.234,373.374 337.704,329.352 394.762,304.87C375.019,305.341 364.134,306.831 345.176,312.739C370.004,283.16 404.678,263.492 444.122,273.615C436.03,266.332 425.037,261.701 415.062,257.755C464.651,258.942 489.073,278.867 517.486,317.259C550.654,279.714 575.418,258.74 628.488,257.413C617.3,260.818 597.696,270.76 589.69,279.239C607.238,272.076 626.903,272.124 644.416,279.372C655.735,284.046 671.578,294.223 679.689,303.515C683.548,307.937 688.918,316.194 692.289,321.247C681.602,316.609 675.945,314.629 664.374,311.897C670.104,316.334 674.405,321.34 679.333,326.427C699.921,347.68 711.816,370.518 723.933,397.077C730.384,411.216 735.332,421.643 740.639,436.665C732.322,430.67 718.056,423.356 708.682,417.765C717.008,443.08 718.585,465.461 706.881,490.6C704.278,496.189 700.446,501.031 697.189,506.179C701.039,491.388 698.282,468.476 692.436,454.841C681.438,481.855 676.37,487.608 655.991,507.887C651.244,484.755 625.035,471.335 609.011,456.828C604.074,452.359 600.425,446.089 596.708,440.537C604.2,442.296 607.633,442.195 615.13,442.56L619.022,442.278C632.62,439.939 637.733,436.991 647.621,427.441C658.826,412.151 663.217,397.902 658.273,379.376C659.086,379.177 659.903,378.992 660.723,378.823C674.424,375.961 683.107,380.872 693.816,387.837L694.423,387.546C694.89,378.657 686.491,372.059 680.546,366.742L679.595,366.17C669.019,360.506 659.866,357.993 647.848,361.44C637.611,364.377 626.228,372.581 618.138,379.297C604.556,390.573 595.213,403.693 575.376,399.103C567.798,396.787 565.017,394.421 559.655,388.931C555.385,384.464 553.776,381.695 551.311,376.013C551.569,378.876 551.956,382.101 552.008,384.948C552.325,402.278 560.442,417.691 571.81,430.356C568.034,429.465 563.789,428.739 560.169,427.77C556.826,427.212 553.478,426.685 550.125,426.189L541.269,425.267C544.49,427.404 549.449,430.458 552.414,432.67C566.371,438.678 579.001,450.498 584.705,464.732C587.07,470.627 588.647,476.807 589.396,483.114C593.817,475.012 593.789,467.951 591.787,459.245L591.599,458.408L591.481,457.906C602.748,468.86 619.957,480.241 627.164,493.721C634.33,507.123 625.44,525.354 614.842,534.163C613.844,535.044 610.303,538.054 610.062,539.175L619.008,536.054C629.326,531.659 637.066,528.524 646.161,521.743C647.946,525.04 648.909,526.944 650.104,530.534C647.815,535.554 634.392,550.445 630.116,554.506C639.1,551.474 648.016,548.245 656.858,544.823C661.161,543.163 670.451,539.276 674.712,538.209C692.587,531.522 716.886,528.311 735.995,529.191C718.717,533.095 701.982,538.934 685.177,544.446C682.44,545.343 679.352,546.524 676.597,547.225C673.005,549.067 668.38,550.531 664.546,552.041C645.77,559.432 627.441,567.812 608.203,574.025C603.896,575.398 598.069,577.037 593.946,578.643C596.983,578.845 600.02,579.031 603.058,579.201C624.66,580.701 648.952,574.751 671.427,573.517C688.036,573.428 694.816,574.485 711.31,577.182C694.37,578.634 686.369,580.8 670.373,583.223C665.711,584.767 658.158,586.073 653.249,587.094C635.803,590.723 618.343,592.675 600.658,594.622C598.042,594.905 595.425,595.169 592.806,595.414C596.211,596.276 600.156,597.169 603.488,598.127C616.298,601.124 631.104,604.987 643.876,607.52C636.442,615.479 618.618,633.749 607.834,635.368C603.181,636.067 586.443,626.345 581.371,623.604C567.414,616.891 546.42,607.121 533.584,598.403C530.156,595.251 529.516,590.231 529.438,585.822C529.177,571.105 547.394,550.256 557.105,540.275L555.759,551.155C569.233,546.209 589.651,532.082 593.114,517.079C593.099,515.536 592.985,513.995 592.775,512.466C591.373,502.515 585.508,496.16 577.798,490.541C578.482,495.895 579.902,508.792 575.406,512.706C573.822,512.81 574.128,512.588 572.447,511.362C557.909,503.629 550.293,506.963 534.99,510.143C530.103,511.158 523.763,511.327 518.756,511.353C499.89,511.453 481.85,500.028 464.918,513.244C455.55,502.028 461.825,499.242 462.471,488.941C458.448,488.104 449.692,501.519 449.063,505.45C448.978,505.985 447.288,511.146 447.192,511.335C447.056,513.356 446.767,516.575 447.269,518.463C451.649,534.962 470.616,543.55 482.364,553.836C481.365,547.602 481.347,546.07 483.151,539.933C489.329,546.234 504.73,567.399 507.924,575.413C509.3,578.919 509.986,582.658 509.944,586.424C509.936,590.133 508.75,596.787 505.466,599.052C485.304,612.959 461.352,621.833 439.707,633.355C432.157,637.374 423.367,632.112 417.342,627.435C409.805,623.083 400.266,613.583 393.986,607.357C397.717,606.169 402.395,605.052 406.237,604.024C413.174,602.139 438.402,596.979 442.834,594.789C439.31,593.645 436.334,593.86 432.627,593.442C426.499,592.72 420.375,591.964 414.255,591.174C401.947,589.535 377.333,584.779 364.936,581.201C362.737,580.945 360.034,580.422 357.817,579.976C348.549,578.113 339.664,577.169 330.222,576.699C340.61,574.559 350.558,573.077 361.205,573.075C366.179,572.848 373.289,573.576 378.356,573.92C403.995,575.663 423.393,581.631 449.491,577.95C425.984,571.223 405.512,563.678 382.885,554.602C369.075,549.063 353.719,544.45 340.03,538.903C335.55,538.248 311.679,530.858 306.759,528.959C319.206,528.973 329.253,529.323 341.63,531.7C365.794,535.179 387.466,547.749 410.749,554.598C404.477,548.059 394.216,538.128 389.767,530.927C391.073,526.991 392.306,524.582 394.156,520.837C411.303,533.017 423.503,535.591 441.843,542.746C434.282,533.83 423.369,528.28 415.339,519.664C410.248,514.202 403.859,506.618 404.35,498.661C404.952,488.915 434.898,463.758 443.266,456.332C439.498,465.989 439.106,472.553 442.296,482.4C447.606,462.852 454.543,451.236 471.988,440.296C479.206,435.77 485.127,432.343 493.003,428.921C482.107,429.92 474.719,430.448 463.911,432.824C481.138,413.886 487.544,397.239 486.761,371.739C480.51,384.348 473.026,398.54 457.372,400.104C436.448,399.663 426.917,384.254 411.302,372.369C389.495,355.771 364.697,353.06 346.996,377.6L346.15,379.597L346.603,380.128C348.775,379.641 349.933,378.863 351.94,377.936C360.855,374.553 370.284,375.403 378.876,379.325C375.891,396.39 377.914,409.065 388.124,423.626C388.889,424.717 389.671,425.796 390.466,426.865C403.572,439.494 413.455,443.864 431.904,441.93C434.763,441.331 437.352,440.849 440.14,439.944C435.183,447.629 432.483,451.628 426.329,458.588C422.699,462.98 419.557,467.073 416.142,471.619C418.219,467.259 420.308,463.129 423.005,459.105C413.689,464.313 391.741,485.216 385.565,493.955C380.971,501.214 379.133,504.676 378.304,513.493C361.171,498.489 344.386,485.875 338.237,461.842C335.382,479.354 335.533,493.576 344.144,509.315C341.564,506.613 332.815,497.555 331.826,494.579Z" style="fill:rgb(2,30,58);"  data-color="color-1"/>
        <path d="M390.466,426.865C403.572,439.494 413.455,443.864 431.904,441.93C429.103,444.241 424.563,446.226 420.991,446.785C394.861,450.874 373.233,441.713 368.083,414.201C377.429,417.471 382.185,425.651 390.466,426.865ZM619.022,442.278C632.62,439.939 637.733,436.991 647.621,427.441C653.243,427.695 663.3,414.326 669.908,409.626C668.112,427.782 649.667,449.066 630.252,447.133C627.08,446.817 620.949,444.947 619.022,442.278ZM340.03,538.903C335.55,538.248 311.679,530.858 306.759,528.959C319.206,528.973 329.253,529.323 341.63,531.7C365.794,535.179 387.466,547.749 410.749,554.598C404.477,548.059 394.216,538.128 389.767,530.927C391.073,526.991 392.306,524.582 394.156,520.837C411.303,533.017 423.503,535.591 441.843,542.746C446.233,544.611 448.107,545.286 452.776,546.09C445.74,537.277 439.456,520.909 446.668,510.638L447.192,511.335C447.056,513.356 446.767,516.575 447.269,518.463C451.649,534.962 470.616,543.55 482.364,553.836C481.365,547.602 481.347,546.07 483.151,539.933C489.329,546.234 504.73,567.399 507.924,575.413C509.3,578.919 509.986,582.658 509.944,586.424C509.936,590.133 508.75,596.787 505.466,599.052C485.304,612.959 461.352,621.833 439.707,633.355C432.157,637.374 423.367,632.112 417.342,627.435C417.344,626.95 417.428,625.755 417.132,625.366C412.55,619.351 407.387,611.718 406.237,604.024C413.174,602.139 438.402,596.979 442.834,594.789C439.31,593.645 436.334,593.86 432.627,593.442C426.499,592.72 420.375,591.964 414.255,591.174C401.947,589.535 377.333,584.779 364.936,581.201C362.737,580.945 360.034,580.422 357.817,579.976C348.549,578.113 339.664,577.169 330.222,576.699C340.61,574.559 350.558,573.077 361.205,573.075C366.179,572.848 373.289,573.576 378.356,573.92C403.995,575.663 423.393,581.631 449.491,577.95C425.984,571.223 405.512,563.678 382.885,554.602C369.075,549.063 353.719,544.45 340.03,538.903ZM457.372,400.104C436.448,399.663 426.917,384.254 411.302,372.369C389.495,355.771 364.697,353.06 346.996,377.6C345.248,377.438 344.321,377.543 342.945,376.473C342.272,374.882 342.202,374.207 342.967,372.685C357.478,343.809 392.178,327.965 418.52,352.448C422.789,356.417 439.872,372.709 444.352,371.697C446.87,370.094 447.322,367.853 447.983,364.96C450.669,353.195 445.627,339.702 439.057,330.014C437.46,327.668 435.794,325.37 434.059,323.124C456.456,334.192 477.967,362.129 466.662,388.164C465.197,391.539 459.958,397.15 457.372,400.104ZM679.595,366.17C669.019,360.506 659.866,357.993 647.848,361.44C637.611,364.377 626.228,372.581 618.138,379.297C604.556,390.573 595.213,403.693 575.376,399.103C575.352,398.426 575.328,397.75 575.304,397.073C573.544,394.853 569.659,389.77 568.791,387.338C565.627,378.465 568.195,365.2 571.411,356.905C576.802,342.999 588.904,329.802 602.418,323.729C598.226,328.344 595.046,332.507 592.378,338.208C587.511,348.398 586.884,360.101 590.633,370.752C610.477,359.284 628.298,338.809 653.357,344.226C665.129,346.771 672.218,351.177 681.05,359.062C681.743,362.652 682.089,363.315 679.595,366.17ZM494.859,792.236C494.152,791.858 493.449,791.472 492.751,791.079C479.092,783.385 459.902,770.475 451.887,757.109C448.851,752.046 447.469,747.734 445.889,742.104C440.037,752.526 438.105,757.002 436.869,768.869C415.333,744.763 415.516,724.525 426.527,695.715C431.019,703.152 432.835,706.382 438.574,713.176C457.184,685.592 497.54,674.554 529.154,678.112C526.282,681.126 519.877,680.276 515.776,680.994C508.535,682.261 497.96,685.456 492.306,690.042C507.507,686.921 525.64,687.539 539.001,696.307C551.573,704.558 556.157,717.585 563.243,730.067C558.782,724.987 555.646,721.475 550.643,716.866C549.947,723.734 548.87,730.53 546.564,737.09C541.494,751.514 526.727,771.86 515.208,782.387C497.475,773.154 479.221,755.43 473.165,735.894C470.838,728.387 470.868,722.927 470.902,715.192C462.452,738.31 465.692,758.146 480.716,777.116C483.153,780.193 494.66,790.326 494.859,792.236ZM610.062,539.175L619.008,536.054C618.788,538.991 616.6,543.728 615.664,546.978C613.091,555.915 609.945,564.875 608.203,574.025C603.896,575.398 598.069,577.037 593.946,578.643C596.983,578.845 600.02,579.031 603.058,579.201C602.91,583.375 601.189,589.999 600.658,594.622C598.042,594.905 595.425,595.169 592.806,595.414C596.211,596.276 600.156,597.169 603.488,598.127C597.599,607.614 589.313,615.699 581.371,623.604C567.414,616.891 546.42,607.121 533.584,598.403C530.156,595.251 529.516,590.231 529.438,585.822C529.177,571.105 547.394,550.256 557.105,540.275L555.759,551.155C569.233,546.209 589.651,532.082 593.114,517.079C593.783,512.87 593.841,507.213 593.901,502.863C601.919,516.264 601.382,533.525 589.934,544.841C595.136,543.53 605.667,541.293 610.062,539.175Z" style="fill:rgb(247,175,65);"  data-color="color-3"/>
        <path d="M558.691,420.923C547.69,403.167 539.167,383.409 542.239,361.85C544.721,344.435 558.073,332.473 571.793,322.627C559.589,335.352 550.683,359.859 554.775,377.1C555.764,381.264 559.676,384.89 559.655,388.931C555.385,384.464 553.776,381.695 551.311,376.013C551.569,378.876 551.956,382.101 552.008,384.948C552.325,402.278 560.442,417.691 571.81,430.356C568.034,429.465 563.789,428.739 560.169,427.77C556.826,427.212 553.478,426.685 550.125,426.189C552.524,422.677 554.509,424.702 558.691,420.923ZM351.94,377.936C360.855,374.553 370.284,375.403 378.876,379.325C375.891,396.39 377.914,409.065 388.124,423.626C388.889,424.717 389.671,425.796 390.466,426.865C382.185,425.651 377.429,417.471 368.083,414.201C365.971,405.307 365.416,395.069 364.962,386.001C359.549,378.615 359.189,381.182 351.94,377.936ZM463.925,642.605C497.205,626.668 529.682,626.721 564.023,639.105C566.633,640.047 570.772,641.514 573.129,642.679C574.812,650.747 577.766,655.482 578.216,664.623C565.863,654.558 555.379,647.56 539.23,646.081C511.942,643.581 482.038,644.784 459.662,661.831C460.376,655.026 462.102,649.15 463.925,642.605ZM701.675,650.01C702.092,651.003 702.884,656.778 703.047,658.08C705.668,678.981 705.774,708.781 702.515,729.432C735.512,678.162 745.414,620.073 743.572,560.09C743.36,555.593 742.683,551.114 742.087,546.649L747.006,557.349C750.014,564.649 754.053,573.999 755.939,581.583C766.656,624.665 763.315,671.016 745.942,711.939C723.907,763.841 681.746,806.361 635.433,837.384C622.904,845.777 608.726,852.871 595.368,859.511C635.119,818.329 670.377,751.12 686.768,696.727C689.992,686.217 692.655,675.544 694.746,664.753C695.348,661.699 696.967,649.062 697.772,647.121C698.261,642.74 698.62,639.17 698.779,634.777C699.772,638.838 701.448,645.931 701.675,650.01ZM457.42,316.445C470.849,318.181 485.661,326.308 494.001,337.063C500.045,344.86 501.318,353.957 499.959,363.497C499.025,363.318 494.576,355.372 493.371,353.664C483.256,339.326 471.502,326.947 457.42,316.445ZM385.565,493.955C380.971,501.214 379.133,504.676 378.304,513.493C361.171,498.489 344.386,485.875 338.237,461.842C335.382,479.354 335.533,493.576 344.144,509.315C341.564,506.613 332.815,497.555 331.826,494.579C331.923,493.688 329.911,486.048 329.526,484.224C325.233,463.846 332.91,441.282 344.674,424.649C342.77,459.731 356.391,476.931 385.565,493.955ZM594.036,720.656L594.412,721.223C602.505,718.022 606.772,706.366 608.338,698.493C618.883,726.16 613.985,748.917 596.016,772.288C597.219,761.439 594.97,748.217 586.628,740.506C577.491,764.332 565.741,774.845 545.579,790.291C540.172,794.433 534.145,799.22 528.411,802.827C530.075,798.436 535.836,792.654 538.902,788.753C556.856,765.909 572.727,745.441 569.867,715.067C579.243,719.697 583.584,720.85 594.036,720.656ZM589.69,279.239C607.238,272.076 626.903,272.124 644.416,279.372C655.735,284.046 671.578,294.223 679.689,303.515C683.548,307.937 688.918,316.194 692.289,321.247C681.602,316.609 675.945,314.629 664.374,311.897C670.104,316.334 674.405,321.34 679.333,326.427C699.921,347.68 711.816,370.518 723.933,397.077C730.384,411.216 735.332,421.643 740.639,436.665C732.322,430.67 718.056,423.356 708.682,417.765C717.008,443.08 718.585,465.461 706.881,490.6C704.278,496.189 700.446,501.031 697.189,506.179C701.039,491.388 698.282,468.476 692.436,454.841C681.438,481.855 676.37,487.608 655.991,507.887C651.244,484.755 625.035,471.335 609.011,456.828C604.074,452.359 600.425,446.089 596.708,440.537C604.2,442.296 607.633,442.195 615.13,442.56C617.284,452.678 652.425,473.77 663.281,469.346C669.909,466.645 675.802,459.292 678.224,452.963C684.707,436.024 685.113,419.932 678.387,403.23C675.259,405.07 672.484,407.069 669.908,409.626C663.3,414.326 653.243,427.695 647.621,427.441C658.826,412.151 663.217,397.902 658.273,379.376C659.086,379.177 659.903,378.992 660.723,378.823C674.424,375.961 683.107,380.872 693.816,387.837L694.423,387.546C694.89,378.657 686.491,372.059 680.546,366.742C683.179,367.276 684.382,368.191 685.541,365.707C685.26,363.64 683.291,360.482 682.222,358.512C678.113,346.546 659.763,325.599 649.675,317.676C644.727,313.79 637.507,308.811 632.1,305.084C644.043,304.729 651.547,304.183 663.162,307.462C662.758,307.118 662.347,306.782 661.932,306.45C643.836,291.962 614.669,277.307 590.896,279.854C589.605,279.992 590.309,280.145 588.97,279.825L589.69,279.239ZM552.414,432.67C566.371,438.678 579.001,450.498 584.705,464.732C587.07,470.627 588.647,476.807 589.396,483.114C593.817,475.012 593.789,467.951 591.787,459.245L591.599,458.408L591.481,457.906C602.748,468.86 619.957,480.241 627.164,493.721C634.33,507.123 625.44,525.354 614.842,534.163C613.844,535.044 610.303,538.054 610.062,539.175C605.667,541.293 595.136,543.53 589.934,544.841C601.382,533.525 601.919,516.264 593.901,502.863C593.841,507.213 593.783,512.87 593.114,517.079C593.099,515.536 592.985,513.995 592.775,512.466C591.373,502.515 585.508,496.16 577.798,490.541C578.482,495.895 579.902,508.792 575.406,512.706C573.822,512.81 574.128,512.588 572.447,511.362C572.653,510.975 572.841,510.66 572.958,510.211C578.461,489.137 573.09,465.759 562.537,447.124C559.798,442.287 555.145,437.498 552.841,433.441L552.414,432.67ZM364.421,753.811C364.113,752.208 363.938,752.244 363.269,750.938C360.567,745.659 358.759,739.832 356.748,734.259C347.983,707.052 344.381,678.195 346.031,649.66C346.41,643.103 347.367,636.229 348.079,629.701C351.121,645.847 357.285,658.769 364.69,673.184C360.523,693.798 359.939,714.976 362.966,735.788C363.934,742.021 365.887,748.607 366.761,754.225L366.536,754.232L365.843,755.061L365.169,755.048L364.421,753.811ZM345.139,260.927C342.414,264.144 339.752,267.413 337.154,270.734C318.179,245.451 296.078,227.91 265.102,219.481C264.156,239.092 270.472,251.802 283.6,266.426C284.164,267.055 284.741,267.672 285.335,268.274C274.744,266.998 266.045,266.372 258.214,258.201C256.324,268.375 256.945,274.323 258.769,284.53C255.129,281.055 252.245,273.937 250.458,269.29C242.512,248.626 244.377,229.198 247.239,207.894C250.505,209.041 253.95,210.016 257.305,210.829C285.117,217.569 313.121,228.2 334.028,248.436C337.876,252.16 342.204,256.352 345.139,260.927ZM787.091,198.961C795.79,221.493 794.415,264.578 783.536,286.396C776.308,300.891 771.899,307.621 758.817,316.783C771.746,290.843 777.121,270.067 777.013,241.115C776.989,234.814 777.261,227.814 776.404,221.565C762.821,240.246 742.797,258.995 720.187,265.572C730.122,275.585 738.406,279.345 752.734,281.301C724.517,300.171 695.84,274.995 679.001,252.973C700.862,248.643 710.884,244.404 730.929,235.231C743.75,229.911 756.507,224.32 768.275,216.897C773.148,213.823 785.753,204.834 787.091,198.961ZM738.73,357.025C739.13,357.148 739.864,357.425 740.2,357.581C780.884,376.475 818.419,419.041 835.763,459.693C856.173,507.53 854.765,582.113 835.543,629.358C832.426,614.559 826.226,599.655 819.402,586.227C816.978,593.706 815.033,601.849 812.636,609.49C808.127,623.86 802.885,634.989 795.573,648.066C797.372,641.604 798.289,636.304 799.347,629.742C808.818,575.111 797.343,496.186 767.14,448.79C790.767,468.937 802.723,482.594 818.089,509.611C815.576,467.956 790.71,418.173 764.72,386.077C759.481,379.607 753.733,373.395 748.067,367.309C745.659,364.723 741.332,360.43 739.336,357.827L738.73,357.025ZM519.266,130.056C532.723,134.755 552.203,152.342 560.499,163.886C582.7,194.779 570.035,235.926 548.711,263.546C543.618,270.142 535.267,280.334 528.52,284.922C528.651,275.733 527.689,266.561 525.653,257.599C516.963,219.115 492.608,183.146 459.084,162.089C441.446,150.777 423.751,144.609 403.293,140.625C397.535,139.504 391.713,138.848 386.073,137.624C394.257,137.41 402.418,136.389 410.607,136.142C432.685,135.476 456.303,137.367 476.969,145.468C502.352,155.419 524.67,173.246 538.378,196.977C541.617,202.584 543.726,208.813 546.322,214.774C548.358,186.496 546.985,166.161 529.623,142.052C526.529,137.755 522.62,134.454 519.817,130.787L519.266,130.056ZM302.163,340.468L302.73,340.64C302.438,342.164 298.363,347.138 297.247,348.743C261.794,399.73 207.675,435.399 168.831,482.701L168.44,482.788L168.121,482.044C169.603,472.186 173.569,459.706 177.39,450.514C199.598,397.074 250.465,361.98 302.163,340.468ZM377.329,173.709C430.94,167.888 475.179,206.963 494.68,253.816C497.237,259.958 498.944,266.83 500.669,273.268C495.123,265.855 491.038,261.022 484.65,254.323C459.23,225.452 424.364,210.96 389.744,196.145C374.904,189.795 357.182,182.567 341.637,178.368C352.797,177.395 365.091,174.811 377.329,173.709ZM661.848,165.977L662.221,166.291C662.137,166.55 650.758,175.92 649.078,177.517C634.513,191.362 622.14,207.292 607.504,221.117C599.241,228.923 590.566,236.01 581.665,243.062L581.244,242.47C604.714,199.082 613.466,184.851 661.848,165.977Z" style="fill:rgb(137,73,8);"  data-color="color-4"/>
        <path d="M635.378,388.915C638.635,391.434 639.885,397.788 639.974,401.743C640.127,408.77 637.489,415.571 632.64,420.659C622.054,431.683 603.841,432.731 592.799,421.546C591.141,419.353 590.365,417.785 589.095,415.391C592.212,414.585 595.214,413.386 598.234,412.262C606.067,421.939 616.832,424.028 623.646,410.736C625.836,406.464 624.678,401.712 622.728,397.465C626.647,394.197 630.885,391.332 635.378,388.915ZM402.148,388.052C407.889,391.048 410.052,392.945 415.013,397.269L414.738,397.903C409.825,409.056 415.219,417.325 426.448,420.219C433.165,418.627 434.354,417.558 438.893,412.265C441.575,413.392 444.582,414.434 447.336,415.448C446.468,417.209 445.279,419.144 444.282,420.863C436.137,430.801 421.207,431.731 410.653,425.358C404.747,421.804 400.5,416.045 398.849,409.353C396.787,401.31 397.993,394.989 402.148,388.052Z" style="fill:rgb(247,175,65);"/>
        <path d="M459.662,661.831C459.384,663.616 459.512,668.09 459.516,670.088C457.616,672.826 452.382,677.353 449.723,679.892C448.474,677.69 447.28,675.457 446.142,673.195C436.232,653.042 446.954,650.323 463.925,642.605C462.102,649.15 460.376,655.026 459.662,661.831ZM573.129,642.679C599.718,653.763 598.793,654.306 587.811,679.225C584.168,676.616 582.3,675.32 579.127,672.261C578.975,670.928 578.464,665.673 578.216,664.623C577.766,655.482 574.812,650.747 573.129,642.679Z" style="fill:rgb(250,217,150);"/>
        <path d="M423.005,459.105C413.689,464.313 391.741,485.216 385.565,493.955C356.391,476.931 342.77,459.731 344.674,424.649C332.91,441.282 325.233,463.846 329.526,484.224C329.911,486.048 331.923,493.688 331.826,494.579C326.539,486.867 324.963,481.324 322.919,472.212C318.064,450.569 320.732,431.792 327.323,411C317.928,416.931 305.708,421.96 295.427,426.387C320.234,373.374 337.704,329.352 394.762,304.87C375.019,305.341 364.134,306.831 345.176,312.739C370.004,283.16 404.678,263.492 444.122,273.615C436.03,266.332 425.037,261.701 415.062,257.755C464.651,258.942 489.073,278.867 517.486,317.259C550.654,279.714 575.418,258.74 628.488,257.413C617.3,260.818 597.696,270.76 589.69,279.239L588.97,279.825C590.309,280.145 589.605,279.992 590.896,279.854C614.669,277.307 643.836,291.962 661.932,306.45C662.347,306.782 662.758,307.118 663.162,307.462C651.547,304.183 644.043,304.729 632.1,305.084C637.507,308.811 644.727,313.79 649.675,317.676C659.763,325.599 678.113,346.546 682.222,358.512C683.291,360.482 685.26,363.64 685.541,365.707C684.382,368.191 683.179,367.276 680.546,366.742L679.595,366.17C682.089,363.315 681.743,362.652 681.05,359.062C672.218,351.177 665.129,346.771 653.357,344.226C628.298,338.809 610.477,359.284 590.633,370.752C586.884,360.101 587.511,348.398 592.378,338.208C595.046,332.507 598.226,328.344 602.418,323.729C588.904,329.802 576.802,342.999 571.411,356.905C568.195,365.2 565.627,378.465 568.791,387.338C569.659,389.77 573.544,394.853 575.304,397.073C575.328,397.75 575.352,398.426 575.376,399.103C567.798,396.787 565.017,394.421 559.655,388.931C559.676,384.89 555.764,381.264 554.775,377.1C550.683,359.859 559.589,335.352 571.793,322.627C558.073,332.473 544.721,344.435 542.239,361.85C539.167,383.409 547.69,403.167 558.691,420.923C554.509,424.702 552.524,422.677 550.125,426.189L541.269,425.267C544.49,427.404 549.449,430.458 552.414,432.67L552.841,433.441C555.145,437.498 559.798,442.287 562.537,447.124C573.09,465.759 578.461,489.137 572.958,510.211C572.841,510.66 572.653,510.975 572.447,511.362C557.909,503.629 550.293,506.963 534.99,510.143C530.103,511.158 523.763,511.327 518.756,511.353C499.89,511.453 481.85,500.028 464.918,513.244C455.55,502.028 461.825,499.242 462.471,488.941C458.448,488.104 449.692,501.519 449.063,505.45C448.978,505.985 447.288,511.146 447.192,511.335L446.668,510.638C439.456,520.909 445.74,537.277 452.776,546.09C448.107,545.286 446.233,544.611 441.843,542.746C434.282,533.83 423.369,528.28 415.339,519.664C410.248,514.202 403.859,506.618 404.35,498.661C404.952,488.915 434.898,463.758 443.266,456.332C439.498,465.989 439.106,472.553 442.296,482.4C447.606,462.852 454.543,451.236 471.988,440.296C479.206,435.77 485.127,432.343 493.003,428.921C482.107,429.92 474.719,430.448 463.911,432.824C481.138,413.886 487.544,397.239 486.761,371.739C480.51,384.348 473.026,398.54 457.372,400.104C459.958,397.15 465.197,391.539 466.662,388.164C477.967,362.129 456.456,334.192 434.059,323.124C435.794,325.37 437.46,327.668 439.057,330.014C445.627,339.702 450.669,353.195 447.983,364.96C447.322,367.853 446.87,370.094 444.352,371.697C439.872,372.709 422.789,356.417 418.52,352.448C392.178,327.965 357.478,343.809 342.967,372.685C342.202,374.207 342.272,374.882 342.945,376.473C344.321,377.543 345.248,377.438 346.996,377.6L346.15,379.597L346.603,380.128C348.775,379.641 349.933,378.863 351.94,377.936C359.189,381.182 359.549,378.615 364.962,386.001C365.416,395.069 365.971,405.307 368.083,414.201C373.233,441.713 394.861,450.874 420.991,446.785C424.563,446.226 429.103,444.241 431.904,441.93C434.763,441.331 437.352,440.849 440.14,439.944C435.183,447.629 432.483,451.628 426.329,458.588C422.699,462.98 419.557,467.073 416.142,471.619C418.219,467.259 420.308,463.129 423.005,459.105ZM457.42,316.445C471.502,326.947 483.256,339.326 493.371,353.664C494.576,355.372 499.025,363.318 499.959,363.497C501.318,353.957 500.045,344.86 494.001,337.063C485.661,326.308 470.849,318.181 457.42,316.445ZM417.342,627.435C409.805,623.083 400.266,613.583 393.986,607.357C397.717,606.169 402.395,605.052 406.237,604.024C407.387,611.718 412.55,619.351 417.132,625.366C417.428,625.755 417.344,626.95 417.342,627.435ZM670.373,583.223C665.711,584.767 658.158,586.073 653.249,587.094C635.803,590.723 618.343,592.675 600.658,594.622C601.189,589.999 602.91,583.375 603.058,579.201C624.66,580.701 648.952,574.751 671.427,573.517C688.036,573.428 694.816,574.485 711.31,577.182C694.37,578.634 686.369,580.8 670.373,583.223ZM676.597,547.225C673.005,549.067 668.38,550.531 664.546,552.041C645.77,559.432 627.441,567.812 608.203,574.025C609.945,564.875 613.091,555.915 615.664,546.978C616.6,543.728 618.788,538.991 619.008,536.054C629.326,531.659 637.066,528.524 646.161,521.743C647.946,525.04 648.909,526.944 650.104,530.534C647.815,535.554 634.392,550.445 630.116,554.506C639.1,551.474 648.016,548.245 656.858,544.823C661.161,543.163 670.451,539.276 674.712,538.209C692.587,531.522 716.886,528.311 735.995,529.191C718.717,533.095 701.982,538.934 685.177,544.446C682.44,545.343 679.352,546.524 676.597,547.225ZM366.761,754.225C367.351,756.746 369.514,761.93 370.539,764.518C377.457,781.981 388.107,796.434 400.951,809.957C308.435,760.094 237.623,698.61 230.73,586.915C225.516,609.361 221.928,628.134 221.887,651.331C201.023,609.966 189.367,573.702 197.183,526.47C202.632,493.537 217.918,468.767 240.099,444.773C244.086,440.461 253.416,430.241 257.665,427.225C235.369,459.05 216.555,509.042 221.315,548.273C229.39,524.779 242.777,504.026 258.435,484.885C264.264,477.76 271.44,470.71 276.926,463.449C275.637,467.497 274.384,471.557 273.166,475.628C258.436,525.251 246.841,583.219 263.125,633.968C266.886,645.69 272.669,656.073 278.494,666.824C277.06,656.63 276.888,643.884 277.006,633.568C277.406,598.693 284.448,577.321 299.781,547.043C299.581,548.264 299.423,549.491 299.309,550.723C298.435,560.692 299.859,580.808 300.791,590.991C305.185,639.027 317.931,687.138 344.653,727.781C350.847,737.201 357.278,745.162 364.421,753.811L365.169,755.048L365.843,755.061L366.536,754.232L366.761,754.225ZM529.154,678.112C549.067,679.474 575.099,690.429 588.65,705.618C593.204,710.722 594.145,714.268 594.036,720.656C583.584,720.85 579.243,719.697 569.867,715.067C572.727,745.441 556.856,765.909 538.902,788.753C535.836,792.654 530.075,798.436 528.411,802.827C525.333,805.725 519.714,812.749 516.715,816.3C511.88,804.861 504.688,799.456 494.859,792.236C494.66,790.326 483.153,780.193 480.716,777.116C465.692,758.146 462.452,738.31 470.902,715.192C470.868,722.927 470.838,728.387 473.165,735.894C479.221,755.43 497.475,773.154 515.208,782.387C526.727,771.86 541.494,751.514 546.564,737.09C548.87,730.53 549.947,723.734 550.643,716.866C555.646,721.475 558.782,724.987 563.243,730.067C556.157,717.585 551.573,704.558 539.001,696.307C525.64,687.539 507.507,686.921 492.306,690.042C497.96,685.456 508.535,682.261 515.776,680.994C519.877,680.276 526.282,681.126 529.154,678.112ZM615.13,442.56L619.022,442.278C620.949,444.947 627.08,446.817 630.252,447.133C649.667,449.066 668.112,427.782 669.908,409.626C672.484,407.069 675.259,405.07 678.387,403.23C685.113,419.932 684.707,436.024 678.224,452.963C675.802,459.292 669.909,466.645 663.281,469.346C652.425,473.77 617.284,452.678 615.13,442.56ZM258.769,284.53C263.717,297.755 270.608,304.606 281.84,312.646C262.858,314.441 250.452,304.982 241.739,288.51C225.428,257.673 230.278,219.984 239.61,187.707C252.272,192.862 265.103,197.59 278.082,201.884C289.363,205.51 300.973,208.164 312.006,212.419C330.631,219.601 347.909,229.444 361.655,244.175C355.84,249.786 350.587,254.972 345.139,260.927C342.204,256.352 337.876,252.16 334.028,248.436C313.121,228.2 285.117,217.569 257.305,210.829C253.95,210.016 250.505,209.041 247.239,207.894C244.377,229.198 242.512,248.626 250.458,269.29C252.245,273.937 255.129,281.055 258.769,284.53ZM679.001,252.973C677.544,251.189 676.099,249.395 674.666,247.591C675.251,246.982 675.848,246.384 676.455,245.797C708.148,215.159 739.795,212.646 779.341,200.18C781.272,199.571 784.77,197.633 786.609,197.66L787.091,198.961C785.753,204.834 773.148,213.823 768.275,216.897C756.507,224.32 743.75,229.911 730.929,235.231C710.884,244.404 700.862,248.643 679.001,252.973ZM603.488,598.127C616.298,601.124 631.104,604.987 643.876,607.52C636.442,615.479 618.618,633.749 607.834,635.368C603.181,636.067 586.443,626.345 581.371,623.604C589.313,615.699 597.599,607.614 603.488,598.127Z" style="fill:rgb(226,132,7);"  data-color="color-2"/>
    </g>
</svg>
