<svg width="100%" height="100%" viewBox="0 0 806 793" version="1.1" xmlns="http://www.w3.org/2000/svg" xmlns:xlink="http://www.w3.org/1999/xlink" xml:space="preserve" xmlns:serif="http://www.serif.com/" style="fill-rule:evenodd;clip-rule:evenodd;stroke-linejoin:round;stroke-miterlimit:2;">
    <g transform="matrix(1,0,0,1,-91.2291,-108.423)">
        <path d="M390.541,582.624C370.938,564.505 364.048,554.7 353.648,530.633C355.253,530.38 380.548,544.851 382.579,546.708C389.698,553.219 398.968,560.819 405.829,567.556C411.867,579.43 417.111,589.997 423.851,601.506C424.888,602.788 425.445,604.143 426.19,605.625C423.991,604.445 419.841,602.9 417.323,601.663C405.666,595.937 399.207,592.245 390.541,582.624ZM606.29,847.554C610.284,856.964 608.864,869.336 603.772,878.048C596.655,878.244 589.931,877.102 583.663,873.503C574.461,868.22 572.908,856.243 570.621,846.388C572.775,839.769 592.379,837.649 599.132,836.828C602.419,841.216 603.546,842.929 606.29,847.554ZM457.369,584.996C460.376,592.048 463.472,601.19 466.41,608.62C450.111,598.632 438.181,585.277 426.964,570.132C438.354,568.158 449.671,578.1 457.369,584.996ZM544.755,393.86C544.412,391.719 544.182,392.616 544.99,390.988C548.073,390.395 558.737,399.231 561.097,401.702C567.881,406.425 574.51,411.429 581.313,416.113C583.267,417.459 587.971,420.983 589.916,421.832C593.379,425.957 595.944,431.716 598.79,436.382C610.84,456.137 627.001,473.677 645.579,487.459C650.77,491.31 657.349,493.867 662.252,498.055C660.113,492.4 657.25,488.123 654.447,482.87C644.013,463.324 632,444.27 622.846,424.121C620.5,418.959 618.275,413.73 615.997,408.552C643.25,433.916 673.444,455.03 693.014,488.151C708.279,477.995 719.095,467.081 730.733,452.958C735.703,446.926 739.073,443.806 743.234,436.796C740.439,467.823 734.528,490.57 717.151,516.808C711.453,525.412 707.581,532.44 700.69,540.754C695.443,547.086 689.607,551.883 684.61,557.683C703.315,545.693 720.311,536.062 735.833,519.277C740.817,513.889 745.681,507.228 750.271,501.419C752.157,514.108 740.636,548.379 733.75,559.595C728.651,567.9 720.87,579.016 715.256,587.956C704.319,594.787 693.267,599.577 682.145,605.996C688.746,590.219 690.555,582.738 694.603,566.353C683.024,576.704 672.638,587.498 661.261,597.896C649.984,608.204 634.206,614.085 620.945,620.832C619.932,621.988 616.677,623.877 615.226,624.794C614.957,619.98 614.638,615.229 614.671,610.404C610.266,586.171 600.51,580.723 584.379,563.921C582.717,556.118 577.787,547.354 576.488,539.227C574.414,526.247 573.203,512.359 572.023,499.21C565.304,458.884 591.872,505.074 594.988,517.862C611.015,532.412 621.325,557.467 627.916,577.787C628.937,580.932 629.565,584.023 630.895,587.089L630.977,586.297C632.129,574.708 632.292,556.795 629.887,545.877C622.557,512.592 600.057,484.838 575.798,461.986C571.344,457.791 565.798,452.419 561.933,447.629L561.4,446.962C560.683,444.862 559.296,441.803 558.304,439.8C550.912,424.876 548.008,410.12 544.755,393.86ZM796.393,200.482C798.181,202.782 800.124,205.163 801.722,207.583C795.329,211.46 790.813,215.112 785.524,220.382C782.87,223.026 778.913,227.453 776.025,229.436C775.557,227.762 776.896,221.583 775.509,217.844C774.174,218.055 774.078,218.715 772.922,220.072C775.151,211.69 782.194,202.061 790.72,198.876C792.793,198.102 794.577,199.446 796.393,200.482ZM701.455,299.222C696.881,298.232 686.969,294.509 686.042,289.259C686.513,287.52 686.713,287.543 688.051,286.373L690.668,284.189C692.033,286.856 691.464,288.671 692.734,291.191C694.157,294.015 700.279,297.352 701.455,299.222ZM651.39,219.173C648.214,215.518 646.002,213.054 650.674,209.21C657.242,203.806 666.541,202.567 674.761,203.476C680.516,204.147 686.3,206.675 691.157,209.735C698.564,214.402 706.975,218.892 712.648,225.662C715.345,228.881 722.605,242.71 720.48,246.554C709.702,238.171 703.563,232.013 690.514,225.891C681.732,221.771 670.054,218.198 662.341,213.091C663.732,217.99 665.243,221.739 667.107,226.45C661.026,220.984 658.96,222.018 651.39,219.173ZM692.438,250.085L693.447,251.303L693.781,252.438C692.792,254.354 691.4,255.071 689.624,256.345C685.523,256.898 682.888,257.506 678.889,256.164C674.855,254.811 671.569,251.846 669.838,247.959C667.842,243.478 667.977,239.954 669.676,235.618C671.753,234.909 671.663,234.773 673.259,236.571L674.834,243.805C677.602,251.6 685.39,252.105 692.438,250.085ZM734.93,766.62C733.195,751.599 734.916,739.399 738.282,724.874C738.737,725.656 739.185,726.161 739.28,726.942C745.976,741.367 748.569,764.231 748.019,779.851C747.832,785.181 748.294,789.99 747.28,795.332C746.671,796.905 746.246,798.52 745.168,799.711L743.818,800.48C738.684,789.923 735.41,778.362 734.93,766.62ZM717.909,725.302C697.49,704.506 702.754,665.495 712.653,640.827L713.926,641.308C715.519,645.158 715.528,649.988 716.571,654.08C719.206,664.425 732.628,704.876 730.354,712.202C730.113,712.978 741.802,701.98 741.397,702.843C740.324,705.135 726.679,719.42 724.58,721.209C723.327,722.277 721.749,723.547 720.383,724.237C719.4,724.734 718.545,724.644 717.909,725.302ZM177.748,815.587C178.668,819.278 179.33,822.807 179.086,826.686C178.686,833.05 179.581,846.733 169.391,844.56C163.616,843.329 159.989,840.887 156.642,836.119C152.085,829.629 154.419,820.65 155.89,813.478C162.647,804.256 172.274,806.266 177.748,815.587ZM585.797,227.64C572.056,256.493 568.47,319.839 603.279,336.868C606.87,338.625 611.778,340.087 615.684,341.063C612.271,337.035 610.927,334.619 608.795,329.764C619.731,338.315 627.345,339.879 637.624,347.225C646.014,353.221 652.076,363.167 661.645,369.67C634.809,364.234 625.341,360.822 598.031,368.167C591.844,359.408 583.88,345.582 582.206,334.867C575.141,345.023 573.408,348.958 577.591,361.097C562.987,350.19 555.989,327.692 552.273,310.508C550.115,300.53 550.024,284.857 551.556,274.774C549.214,278.417 546.263,282.743 544.118,286.424C541.506,279.403 549.072,257.708 552.905,251.798L559.377,251.75C562.73,245.414 576.307,229.481 581.54,224.431C583.496,225.646 584.093,226.093 585.797,227.64ZM735.728,302.593C740.245,308.752 749.312,314.278 755.905,318.078C764.2,322.86 765.481,324.201 768.96,332.779C764.931,334.378 760.704,336.672 756.866,338.433C741.332,345.561 732.836,354.39 714.893,355.518C700.148,356.445 696.927,355.126 683.905,348.582C691.976,347.145 699.641,347.563 707.784,346.965C713.592,346.539 718.852,345.301 724.46,343.805C705.563,342.582 685.929,341.098 671.545,326.329C675.673,326.96 680.858,328.211 684.871,328.614C694.147,329.547 707.052,327.625 715.708,324.362C698.441,322.604 678.283,320.084 671.132,301.734C675.038,303.542 679.441,305.615 683.646,306.453C700.002,309.712 704.397,308.485 718.033,300.284C720.769,298.964 722.659,296.919 725.158,295.17C728.627,297.598 732.374,300.07 735.728,302.593ZM757.596,362.109C765.402,361.761 781.454,363.729 786.08,370.684C786.616,373.241 784.097,382.702 783.024,385.129C773.459,406.759 736.165,414.014 716.796,405.499C707.015,400.824 701.215,394.923 695.265,386.102C702.549,381.584 705.645,375.922 714.846,371.956C715.906,373.847 719.872,381.56 721.068,382.44C722.731,380.468 726.265,380.657 727.8,379.225C737.583,370.102 743.741,364.647 757.596,362.109ZM800.558,277.881C806.787,282.662 813.571,302.736 813.597,310.829C810.943,314.916 807.279,318.443 803.833,321.875C808.969,319.806 813.611,317.634 818.619,315.294L819.356,315.587C820.183,317.846 820.038,320.445 820.099,322.906C814.501,327.106 804.523,330.767 797.866,333.434C802.594,333.207 812.436,331.695 816.573,333.332C817.291,333.616 817.206,334.129 817.46,335.038C816.571,338.221 810.611,338.123 807.475,339.844C804.281,341.596 803.095,342.123 800.294,344.513L800.514,345.026L804.875,345.283C808.414,345.457 812.887,345.106 816.511,344.92C816.168,345.349 815.816,345.77 815.455,346.184C812.69,349.381 807.698,354.831 803.008,354.722C792.477,354.477 781.524,345.71 773.737,339.236C772.542,338.242 771.944,337.238 771.887,335.83C773.104,335.174 773.294,335.135 774.293,334.211C772.54,323.594 771.985,325.137 781.874,319.341C791.767,313.544 806.953,305.965 804.06,292.05C803.085,287.357 801.762,282.56 800.558,277.881ZM645.051,838.047C653.596,847.184 653.71,855.08 653.446,867.054C653.197,878.338 651.171,878.263 640.657,878.135C635.054,878.066 628.884,877.972 623.276,878.042C626.16,865.155 623.589,849.292 613.34,840.257C614.101,839.184 614.71,837.913 615.337,836.738C623.437,832.568 632.121,833.248 640.517,836.5C642.128,837.124 642.741,837.472 644.508,837.916L645.051,838.047ZM614.249,275.092C616.458,280.89 616.809,281.674 619.934,286.581C622.123,290.018 631.806,300.913 632.495,303.583C631.582,308.568 624.229,309.327 620.163,309.054C614.212,308.636 609.338,305.076 605.623,300.619C593.962,286.626 594.621,267.325 596.043,250.366C602.732,258.73 606.809,267.261 614.249,275.092ZM789.797,247.253C786.918,246.935 784.031,247.307 782.964,244.413C784.848,243.037 792.414,242.757 794.856,241.173C797.134,239.696 797.888,234.313 798.428,231.645L799.153,231.168L800.967,232.069C803.264,242.312 800.304,244.987 789.797,247.253ZM649.083,828.509C658.012,828.587 665.874,829.115 672.549,835.926C680.712,844.256 683.01,855.276 683.082,866.629C683.109,870.969 681.165,877.597 675.493,877.434C674.352,877.401 674.329,877.11 673.363,876.48C672.505,874.27 672.091,869.163 671.263,866.139C668.29,855.286 659.179,841.53 648.481,836.859C648.488,833.484 648.406,831.818 649.083,828.509ZM562.933,148.606C557.296,161.805 568.317,180.058 579.733,186.975C580.761,190.194 580.964,190.825 581.233,194.221C577.522,197.585 573.532,195.601 570.099,192.294C556.186,178.895 546.118,153.652 559.618,136.651C562.099,133.526 567.027,131.71 571.043,131.514L571.821,132.022C573.033,132.797 573.576,132.946 574.925,133.432L575.185,133.907C569.148,139.537 566.055,140.533 562.933,148.606ZM205.406,814.387C211.031,820.614 212.892,827.517 212.471,835.825C212.317,838.702 211.881,841.558 211.168,844.351C205.26,844.497 199.547,844.631 193.645,845.019C193.812,834.164 192.307,823.753 184.518,815.586L184.843,814.008C188.236,809.084 200.747,813.024 205.406,814.387ZM790.745,141.44L791.595,142.012C792.856,148.57 793.687,163.447 790.288,169.839C789.676,170.99 787.5,172.431 786.379,173.193C780.3,168.442 775.056,164.807 768.858,160.362C775.791,154.16 787.625,148.54 790.745,141.44ZM222.917,808.456C228.095,809.323 231.444,809.877 234.91,814.502C238.413,819.178 238.974,826.51 237.994,832.172C237.539,834.682 236.857,837.145 235.956,839.531C233.792,840.551 232.065,841.395 229.794,842.198C227.297,830.258 222.444,818.764 210.937,813.221C213.95,811.689 219.428,809.989 222.917,808.456ZM348.49,565.015C351.895,572.642 356.365,581.399 359.093,589.026C354.747,587.408 349.835,585.508 345.239,584.769C344.203,579.254 343.634,574.108 342.981,568.545L343.222,568.182C345.245,565.179 345.187,565.653 348.49,565.015Z" style="fill:rgb(254,253,243);"/>
        <path d="M563.981,108.68C584.937,106.156 605.33,122.805 622.39,133.884C648.975,128.385 680.05,125.949 707.247,129.467C717.052,130.735 732.522,136.145 741.811,139.798C748.725,136.727 754.645,134.095 761.36,130.396C771.122,125.018 779.974,117.02 790.649,113.754C794.793,112.486 801.986,114.016 805.587,116.301C829.394,131.404 821.964,171.197 809.579,191.191C816.545,198.829 822.915,205.499 826.97,215.073C825.66,218.556 824.999,219.663 822.52,222.433C836.399,238.829 839.071,257.785 841.918,270.865C840.941,284.42 845.118,290.935 846.419,303.682C846.753,306.955 845.64,312.208 844.96,315.491C849.3,318.376 853.697,321.006 858.152,323.702C854.359,326.558 851.914,330.796 847.889,333.421C846.078,334.602 846.49,332.746 844.221,334.219C841.435,336.027 839.801,336.598 838.778,339.707C839.197,343.649 846.683,349.239 850.07,352.289C844.274,353.958 839.285,354.073 833.33,354.48C824.601,369.073 821.475,374.027 805.71,380.314C802.271,397.546 792.061,408.096 777.176,416.631C786.85,437.214 794.678,473.591 796.803,496.425C798.139,510.782 794.554,532.454 794.369,547.566C794.221,559.745 789.98,575.005 790.073,587.581C790.168,600.473 792.925,613.151 793.95,625.988C794.864,638.512 795.253,652.678 796.725,664.884C801.053,700.758 812.22,755.876 830.304,786.706C831.734,786.746 833.163,786.8 834.591,786.866C872.299,788.662 898.18,817.605 896.739,855.339C895.959,869.382 890.297,878.629 875.563,880.373C827.265,886.089 778.469,883.283 729.942,883.957C721.402,884.075 711.89,884.8 704.28,889.014C700.012,891.378 696.251,894.54 691.333,895.632C673.202,899.778 654.533,900.238 636.024,900.852C587.013,902.079 538.314,897.627 489.516,894.691C402.939,889.519 316.46,882.829 230.118,874.624C212.225,872.851 116.649,863.498 110.177,854.628C109.739,854.029 110.041,853.732 110.222,853.091C114.126,849.929 129.448,848.39 134.871,847.92C133.07,838.924 132.489,829.334 133.59,820.131C139.432,771.358 152.026,723.669 159.344,675.116C161.419,664.486 168.446,658.223 174.231,649.789C186.036,632.576 199.752,614.385 206.703,594.596C211.588,580.691 210.747,566.806 211.366,552.449C211.726,544.107 213.121,535.457 214.484,527.296C208.018,530.342 201.315,532.854 194.44,534.808C174.139,540.462 152.211,535.003 134.17,525.051C115.497,514.751 99.12,490.772 93.848,470.495C85.831,439.659 97.337,398.379 113.227,371.692C129.962,343.587 153.354,313.109 186.601,304.772C204.736,300.392 223.977,300.687 240.48,310.236C252.123,316.973 258.107,327.673 250.464,340.404C246.313,347.32 237,349.634 229.422,350.875C208.424,354.342 187.801,370.543 176.698,388.462C160.796,414.124 145.326,450.824 176.77,470.986C177.524,471.024 178.279,471.047 179.033,471.055C212.384,471.332 252.328,419.927 275.18,398.791C304.508,371.665 334.911,361.139 372.425,349.808C388.356,343.688 415.475,338.909 427.97,327.345C440.668,315.595 464.054,293.929 471.933,278.944C478.777,265.929 480.055,258.718 489.553,246.291C505.145,225.89 523.887,211.278 541.942,193.81C523.361,168.222 527.179,113.625 563.981,108.68ZM789.797,247.253C794.182,250.955 798.619,248.771 803.058,246.558C802.657,249.117 802.281,251.681 801.929,254.248C799.84,255.914 797.022,257.638 794.748,259.125C800.683,264.752 808.998,278.612 818.597,276.993C825.326,275.859 819.185,255.724 817.713,251.934C815.675,246.685 812.428,239.696 808.292,235.783C807.384,234.924 802.269,232.673 800.967,232.069L799.153,231.168L798.428,231.645C797.888,234.313 797.134,239.696 794.856,241.173C792.414,242.757 784.848,243.037 782.964,244.413C784.031,247.307 786.918,246.935 789.797,247.253ZM203.893,486.346C199.055,490.235 196.528,492.605 190.246,493.206C179.779,494.208 176.202,499.602 175.466,509.575C175.368,510.463 175.417,510.749 175.588,511.651C176.711,512.537 177.581,512.502 179.006,512.701C190.796,513.106 197.707,508.974 207.291,502.163C207.072,499.338 206.22,488.165 204.314,486.438L203.893,486.346ZM768.858,160.362C775.056,164.807 780.3,168.442 786.379,173.193C787.5,172.431 789.676,170.99 790.288,169.839C793.687,163.447 792.856,148.57 791.595,142.012L790.745,141.44C783.917,144.813 773.695,153.564 767.106,158.536L767.175,159.273L768.858,160.362ZM717.909,725.302C723.21,725.228 731.153,713.028 734.466,709.219C738.905,704.114 741.466,702.107 744.407,696.039L744.953,696.235C746.166,700.897 739.775,718.688 738.282,724.874C734.916,739.399 733.195,751.599 734.93,766.62C735.41,778.362 738.684,789.923 743.818,800.48C749.455,817.352 759.434,844.424 772.107,856.256C780.917,864.482 793.24,864.549 804.489,863.896C808.799,847.87 804.344,836.217 793.376,824.346C802.113,826.032 810.511,826.449 817.26,833.39C824.923,841.271 825.911,852.864 826.01,863.192C831.456,863.142 836.697,861.799 842.369,861.32C842.885,842.42 842.659,832.523 828.513,819.278C854.115,822.905 859.943,835.585 864.173,859.283L871.177,857.835C871.062,839.55 859.384,809.925 837.391,812.42C816.462,814.795 802.985,818.309 782.066,811.535C788.245,802.401 795.246,799.558 805.235,795.954C801.579,790.067 798.594,783.789 796.337,777.236C793.268,768.284 789.428,751.739 787.328,742.442C784.041,728.138 780.956,713.789 778.073,699.398C775.114,684.457 772.256,674.263 770.46,659.01C767.23,661.126 763.501,664.926 760.086,667.251C753.309,671.863 742.526,676.142 734.783,678.789C740.362,668.418 745.102,658.868 752.381,649.295C755.801,644.797 769.588,632.982 769.863,628.124C770.122,623.525 767.834,613.581 767.214,608.421C766.051,598.754 766.026,587.629 763.877,578.274C755.021,588.69 746.915,599.242 736.921,608.717C727.06,618.067 716.902,627.525 712.653,640.827C702.754,665.495 697.49,704.506 717.909,725.302ZM232.173,591.365C229.251,600.376 226.39,609.527 222.182,618.024C229.255,641.929 236.985,659.54 260.412,670.298L267.722,664.575C272.921,660.689 278.412,656.416 281.925,650.957C276.771,648.121 271.794,646.277 266.616,643.194C252.088,634.544 242.716,619.446 236.535,604.099C235.659,601.923 233.104,592.348 232.173,591.365ZM757.596,362.109C743.741,364.647 737.583,370.102 727.8,379.225C726.265,380.657 722.731,380.468 721.068,382.44C719.872,381.56 715.906,373.847 714.846,371.956C705.645,375.922 702.549,381.584 695.265,386.102C701.215,394.923 707.015,400.824 716.796,405.499C736.165,414.014 773.459,406.759 783.024,385.129C784.097,382.702 786.616,373.241 786.08,370.684C781.454,363.729 765.402,361.761 757.596,362.109ZM177.748,815.587C177.238,812.801 176.426,811.657 175.055,809.242C178.679,811.355 181.343,812.827 184.518,815.586C192.307,823.753 193.812,834.164 193.645,845.019C199.547,844.631 205.26,844.497 211.168,844.351C211.881,841.558 212.317,838.702 212.471,835.825C212.892,827.517 211.031,820.614 205.406,814.387C204.442,813.303 204.066,813.054 203.565,811.694C205.048,811.24 208.902,812.686 210.937,813.221C222.444,818.764 227.297,830.258 229.794,842.198C232.065,841.395 233.792,840.551 235.956,839.531C236.857,837.145 237.539,834.682 237.994,832.172C238.974,826.51 238.413,819.178 234.91,814.502C231.444,809.877 228.095,809.323 222.917,808.456C202.69,808.615 196.242,808.281 177.369,800.383C186.484,794.247 189.769,794.04 200.482,792.048C198.326,765.639 205.582,724.242 223.358,703.944C228.374,698.216 236.633,689.794 242.319,684.439C220.164,673.624 216.878,664.244 207.618,643.345C205.286,647.793 199.138,657.333 197.793,660.701C199.33,674.076 198.528,688.978 201.567,701.377C191.171,694.427 189.089,692.647 182.589,681.793C179.216,692.818 178.308,699.553 176.077,710.747L169.204,744.629C165.911,760.29 162.817,775.992 159.925,791.731C158.677,798.304 156.736,807.072 155.89,813.478C154.419,820.65 152.085,829.629 156.642,836.119C159.989,840.887 163.616,843.329 169.391,844.56C179.581,846.733 178.686,833.05 179.086,826.686C179.33,822.807 178.668,819.278 177.748,815.587ZM391.944,520.703C391.442,516.675 391.145,513.276 390.893,509.221C392.539,512.351 393.974,516.465 395.254,519.833C397.44,525.586 399.896,529.111 402.612,534.33C409.904,548.343 416.347,558.211 426.964,570.132C438.181,585.277 450.111,598.632 466.41,608.62C463.472,601.19 460.376,592.048 457.369,584.996C449.167,560.001 444.866,538.919 444.089,512.374C443.859,504.51 445.447,497.186 445.076,489.322L445.036,488.34L445.003,487.751L445.247,488.228C448.671,495.079 451.199,502.98 454.689,509.876C472.845,545.752 496.439,578.5 532.982,597.343C549.262,605.738 561.783,615.055 571.979,631.099C546.053,623.631 503.867,611.199 483.706,594.868C495.599,626.744 503.244,659.843 514.976,691.76C517.526,698.696 521.184,714.437 525.561,719.61C541.473,738.412 563.492,751.82 580.565,769.21C563.298,763.425 555.882,762.1 539.437,753.704C543.732,777.092 556.265,801.025 563.346,823.893C565.64,831.302 568.83,838.838 570.621,846.388C572.908,856.243 574.461,868.22 583.663,873.503C589.931,877.102 596.655,878.244 603.772,878.048C608.864,869.336 610.284,856.964 606.29,847.554C605.416,841.132 601.145,839.596 601.332,836.354L602.176,835.883C606.48,836.048 609.497,838.19 613.34,840.257C623.589,849.292 626.16,865.155 623.276,878.042C628.884,877.972 635.054,878.066 640.657,878.135C651.171,878.263 653.197,878.338 653.446,867.054C653.71,855.08 653.596,847.184 645.051,838.047C644.087,837.149 643.682,836.928 643.145,835.73C644.599,835.385 646.807,836.355 648.481,836.859C659.179,841.53 668.29,855.286 671.263,866.139C672.091,869.163 672.505,874.27 673.363,876.48C674.329,877.11 674.352,877.401 675.493,877.434C681.165,877.597 683.109,870.969 683.082,866.629C683.01,855.276 680.712,844.256 672.549,835.926C665.874,829.115 658.012,828.587 649.083,828.509C635.627,830.742 615.683,828.559 602.652,824.534C611.627,816.6 614.799,815.595 626.277,812.114C613.59,781.226 611.289,753.963 605.864,721.541C598.411,717.365 590.855,713.234 583.471,708.945C565.176,698.32 548.269,685.01 531.145,672.688C536.452,673.842 542.218,674.585 547.475,676.059C559.06,679.307 570.488,682.412 582.258,684.968C588.61,686.348 593.579,688.02 600.133,688.046C598.101,677.444 596.939,664.756 596.471,654.001C595.785,638.241 596.448,623.568 590.25,608.517C587.282,601.31 577.418,592.926 571.66,587.759C520.229,541.606 510.13,531.773 502.288,463.613C520.336,507.499 548.878,534.178 584.379,563.921C600.51,580.723 610.266,586.171 614.671,610.404C614.638,615.229 614.957,619.98 615.226,624.794C616.677,623.877 619.932,621.988 620.945,620.832C634.206,614.085 649.984,608.204 661.261,597.896C672.638,587.498 683.024,576.704 694.603,566.353C690.555,582.738 688.746,590.219 682.145,605.996C693.267,599.577 704.319,594.787 715.256,587.956C737.267,575.12 756.021,554.153 765.545,530.494C774.44,508.762 774.241,484.369 764.992,462.786C762.819,475.101 756.571,490.721 750.271,501.419C745.681,507.228 740.817,513.889 735.833,519.277C720.311,536.062 703.315,545.693 684.61,557.683C689.607,551.883 695.443,547.086 700.69,540.754C707.581,532.44 711.453,525.412 717.151,516.808C734.528,490.57 740.439,467.823 743.234,436.796C739.073,443.806 735.703,446.926 730.733,452.958C719.095,467.081 708.279,477.995 693.014,488.151C673.444,455.03 643.25,433.916 615.997,408.552C618.275,413.73 620.5,418.959 622.846,424.121C632,444.27 644.013,463.324 654.447,482.87C657.25,488.123 660.113,492.4 662.252,498.055C657.349,493.867 650.77,491.31 645.579,487.459C627.001,473.677 610.84,456.137 598.79,436.382C595.944,431.716 593.379,425.957 589.916,421.832C570.768,396.048 544.15,371.709 536.597,339.91C532.167,321.256 534.057,302.895 544.118,286.424C546.263,282.743 549.214,278.417 551.556,274.774C550.024,284.857 550.115,300.53 552.273,310.508C555.989,327.692 562.987,350.19 577.591,361.097C573.408,348.958 575.141,345.023 582.206,334.867C583.88,345.582 591.844,359.408 598.031,368.167C625.341,360.822 634.809,364.234 661.645,369.67C652.076,363.167 646.014,353.221 637.624,347.225C627.345,339.879 619.731,338.315 608.795,329.764C610.927,334.619 612.271,337.035 615.684,341.063C611.778,340.087 606.87,338.625 603.279,336.868C568.47,319.839 572.056,256.493 585.797,227.64C592.76,216.998 600.224,205.544 612.699,200.952C604.155,212.029 594.814,236.217 596.043,250.366C594.621,267.325 593.962,286.626 605.623,300.619C609.338,305.076 614.212,308.636 620.163,309.054C624.229,309.327 631.582,308.568 632.495,303.583C631.806,300.913 622.123,290.018 619.934,286.581C616.809,281.674 616.458,280.89 614.249,275.092C611.913,258.967 612.745,237.728 631.732,232.143L632.83,231.813C613.186,268.817 657.101,297.089 691.484,277C690.555,279.395 687.828,284.501 688.051,286.373C686.713,287.543 686.513,287.52 686.042,289.259C686.969,294.509 696.881,298.232 701.455,299.222C707.487,300.601 716.089,298.657 717.906,299.531L718.033,300.284C704.397,308.485 700.002,309.712 683.646,306.453C679.441,305.615 675.038,303.542 671.132,301.734C678.283,320.084 698.441,322.604 715.708,324.362C707.052,327.625 694.147,329.547 684.871,328.614C680.858,328.211 675.673,326.96 671.545,326.329C685.929,341.098 705.563,342.582 724.46,343.805C718.852,345.301 713.592,346.539 707.784,346.965C699.641,347.563 691.976,347.145 683.905,348.582C696.927,355.126 700.148,356.445 714.893,355.518C732.836,354.39 741.332,345.561 756.866,338.433C760.704,336.672 764.931,334.378 768.96,332.779C765.481,324.201 764.2,322.86 755.905,318.078C749.312,314.278 740.245,308.752 735.728,302.593C734.325,299.315 732.308,292.694 736.668,290.736C745.388,286.819 756.212,295.168 765.295,296.605C774.901,298.125 783.52,302.658 792.726,296.407C806.561,287.098 789.061,269.728 783.528,260.69C779.128,253.503 775.023,246.361 771.405,238.844C770.241,236.426 770.267,231.509 772.762,229.942C774.123,229.91 774.73,229.94 776.025,229.436C778.913,227.453 782.87,223.026 785.524,220.382C790.813,215.112 795.329,211.46 801.722,207.583C800.124,205.163 798.181,202.782 796.393,200.482C794.708,198.009 786.362,189.634 783.673,188.113C780.278,189.146 776.796,190.117 773.406,191.151C762.718,194.41 753.69,194.899 753.01,208.176C744.101,196.723 737.168,192.577 722.277,192.035C713.32,191.709 704.976,191.869 696.019,192.598C707.974,188.802 717.081,181.283 728.221,179.173C717.62,169.527 707.535,173.593 694.957,175.726C686.164,177.217 677.358,178.631 668.541,179.967C671.559,177.983 681.019,171.309 683.647,170.177C693.057,166.123 705.196,162.013 714.917,158.802C699.835,148.298 697.882,151.457 682.669,157.99C667.96,164.307 650.608,167.632 635.342,172.249C644.324,166.423 650.507,160.084 658.553,153.393C660.763,151.555 668.045,149.422 671.421,147.27C658.231,149.838 640.168,156.465 626.696,160.62C618.589,154.928 609.14,149.674 600.356,145.086C592.706,141.091 579.506,131.307 571.043,131.514C567.027,131.71 562.099,133.526 559.618,136.651C546.118,153.652 556.186,178.895 570.099,192.294C573.532,195.601 577.522,197.585 581.233,194.221L585.787,190.022L579.733,186.975C568.317,180.058 557.296,161.805 562.933,148.606C570.614,146.757 574.889,147.704 581.72,151.586C594.458,158.824 606.217,166.113 617.617,175.363C613.457,178.535 605.923,183.426 602.421,186.611C586.533,201.058 566.262,221.539 558.84,241.79C557.597,233.238 556.856,227.839 558.225,219.084C548.787,230.41 545.29,234.756 538.13,247.715C523.335,274.491 522.804,301.363 525.349,330.786C525.559,333.306 525.862,335.818 526.257,338.315C522.342,332.986 517.285,325.644 514.91,319.539C510.382,307.897 507.107,286.617 508.909,274.601C509.081,273.477 509.272,272.356 509.483,271.239C506.701,276.448 502.51,287.699 500.7,293.637C487.791,335.987 499.501,382.563 528.433,415.685C533.787,421.814 540.431,426.745 546.156,432.5C550.339,436.326 557.479,443.761 561.4,446.962L561.933,447.629C565.798,452.419 571.344,457.791 575.798,461.986C600.057,484.838 622.557,512.592 629.887,545.877C632.292,556.795 632.129,574.708 630.977,586.297L630.895,587.089C629.565,584.023 628.937,580.932 627.916,577.787C621.325,557.467 611.015,532.412 594.988,517.862C589.243,511.266 581.309,503.585 575.108,497.215C565.652,487.395 556.125,477.642 546.529,467.959C539.431,460.919 531.379,453.591 524.84,446.164C514.617,434.334 505.376,421.691 497.207,408.359C487.235,392.409 483.373,386.734 479.006,368.11C470.919,400.993 470.895,447.261 481.725,479.418C464.473,456.577 457.294,443.42 456.29,414.035C455.503,391.041 455.858,368.847 463.405,346.749C464.925,342.179 465.035,330.842 466.289,325.086C453.455,340.814 450.958,349.459 443.479,367.93C437.153,383.551 429.046,399.085 424.109,415.408C422.108,421.354 421.559,429.776 420.546,436.035C417.576,454.392 416.377,467.867 418.264,486.51C420.099,503.88 423.609,521.033 428.743,537.728C404.741,501.619 398.2,456.984 405.806,413.501C407.724,402.537 420.737,367.155 426.533,357.516C416.243,363.323 414.744,364.758 407.321,374.414C405.991,376.145 402.27,378.138 401.024,379.976C389.981,396.263 382.752,413.486 377.538,432.388C370.422,458.183 370.259,485.949 375.547,512.094C376.555,517.079 380.715,527.325 382.61,532.365C342.511,489.447 340.856,434.657 372.852,386.632C376.474,381.195 379.126,376.551 383.696,371.686C377.994,373.968 372.842,377.387 367.76,380.805C316.448,415.321 318.452,485.828 309.94,539.967C304.93,521.879 300.683,492.475 301.156,473.568C301.72,451.027 309.33,422.889 320.213,403.083C322.752,398.463 327.216,392.174 330.325,387.754C325.313,391.447 313.998,399.373 310.436,403.484C295.71,420.48 285.905,450.607 282.959,473.238C279.045,503.292 281.613,547.821 299.008,573.636C303.416,580.177 314.78,586.764 321.585,589.894C321.266,572.066 320.132,552.333 322.189,534.723C323.945,519.683 328.537,504.659 331.987,490.072C334.11,481.095 333.624,474.943 336.812,465.089C337.272,483.681 344.682,514.05 353.648,530.633C364.048,554.7 370.938,564.505 390.541,582.624C399.207,592.245 405.666,595.937 417.323,601.663C419.841,602.9 423.991,604.445 426.19,605.625C425.445,604.143 424.888,602.788 423.851,601.506C417.111,589.997 411.867,579.43 405.829,567.556C398.561,550.605 394.447,539.32 391.944,520.703ZM669.676,235.618L668.992,236.269C667.826,237.402 667.205,238.15 665.687,238.862C663.284,240.006 660.508,240.076 658.05,239.054C652.875,236.936 642.971,222.587 640.844,217.501C645.032,217.915 647.37,218.105 651.39,219.173C658.96,222.018 661.026,220.984 667.107,226.45C665.243,221.739 663.732,217.99 662.341,213.091C670.054,218.198 681.732,221.771 690.514,225.891C703.563,232.013 709.702,238.171 720.48,246.554C722.319,252.281 722.607,254.314 720.416,260.116C718.8,261.162 716.248,263.076 714.3,262.524C710.455,261.436 707.791,255.276 705.185,252.404C703.169,250.182 701.561,248.815 699.325,246.976C697.968,247.6 693.635,249.695 692.438,250.085C685.39,252.105 677.602,251.6 674.834,243.805L673.259,236.571C671.663,234.773 671.753,234.909 669.676,235.618ZM342.981,568.545C343.634,574.108 344.203,579.254 345.239,584.769C349.835,585.508 354.747,587.408 359.093,589.026C356.365,581.399 351.895,572.642 348.49,565.015C345.938,559.731 343.511,554.387 341.212,548.988C341.752,555.249 342.224,562.349 342.981,568.545ZM162.408,349.847C149.741,356.38 137.401,375.01 129.688,387.034L140.675,387.095C143.452,387.325 147.713,387.561 150.339,388.063C154.055,381.972 156.914,377.464 161.425,371.803C164.144,368.39 168.966,363.331 171.191,359.941C169.731,355 167.638,351.444 162.408,349.847ZM647.702,646.976C638.753,650.282 627.14,654.628 617.965,657.383C619.582,687.959 635.085,781.917 654.739,804.734C672.058,808.191 686.094,814.307 696.414,829.647C699.342,833.944 701.514,838.711 702.835,843.74C703.218,845.742 702.873,845.957 704.087,846.922C710.269,847.437 720.579,846.409 728.189,846.668C722.437,815.396 715.775,786.839 702.667,757.57C695.849,742.347 686.371,726.206 678.501,711.315C667.44,690.596 657.482,669.307 648.667,647.538C648.346,647.35 648.024,647.163 647.702,646.976ZM738.164,156.586C734.684,157.757 733.13,158.763 730.035,160.759C741.255,162.445 748.143,165.751 758.414,168.437L765.303,170.408C757.272,164.975 747.609,158.657 738.164,156.586ZM133.183,417.226C126.494,417.829 123.294,418.189 116.624,417.277L116.577,417.982C115.557,432.19 112.12,437.201 113.684,453.228L114.371,453.852L114.734,453.833C122.585,449.753 126.481,447.624 135.143,446.574C135.053,438.789 134.897,425.914 135.486,417.545C135.331,417.384 135.175,417.223 135.019,417.062L133.183,417.226ZM354.419,619.695C340.371,638.35 318.608,662.14 301.068,677.268C254.169,717.72 231.816,722.653 235.056,791.729C257.021,798.222 263.99,818.6 259.361,839.546C277.468,839.459 296.707,839.735 314.711,839.148L373.497,839.045C384.326,839.037 397.718,839.357 408.331,838.722C395.69,819.736 343.488,741.464 347.131,721.616C348.791,712.577 356.699,705.895 361.34,698.331C371.868,681.176 381.387,652.385 369.207,633.908C366.11,629.21 359.94,621.485 354.419,619.695ZM800.558,277.881C801.762,282.56 803.085,287.357 804.06,292.05C806.953,305.965 791.767,313.544 781.874,319.341C771.985,325.137 772.54,323.594 774.293,334.211C773.294,335.135 773.104,335.174 771.887,335.83C771.944,337.238 772.542,338.242 773.737,339.236C781.524,345.71 792.477,354.477 803.008,354.722C807.698,354.831 812.69,349.381 815.455,346.184C815.816,345.77 816.168,345.349 816.511,344.92C812.887,345.106 808.414,345.457 804.875,345.283L800.514,345.026L800.294,344.513C803.095,342.123 804.281,341.596 807.475,339.844C810.611,338.123 816.571,338.221 817.46,335.038C817.206,334.129 817.291,333.616 816.573,333.332C812.436,331.695 802.594,333.207 797.866,333.434C804.523,330.767 814.501,327.106 820.099,322.906C820.038,320.445 820.183,317.846 819.356,315.587L818.619,315.294C813.611,317.634 808.969,319.806 803.833,321.875C807.279,318.443 810.943,314.916 813.597,310.829C813.571,302.736 806.787,282.662 800.558,277.881ZM485.304,682.913C479.258,689.292 473.102,695.567 466.838,701.734C456.442,711.929 442.061,724.706 435.598,737.647C443.595,752.387 459.053,776.709 470.138,788.99C489.195,783.344 505.878,797.717 515.761,812.44C521.509,822.129 523.504,827.513 526.308,838.32C530.517,838.283 534.33,838.276 538.531,838.467C532.827,812.602 526.913,787.146 516.241,762.531C510.588,749.491 505.6,733.477 499.852,720.6C497.941,716.319 486.693,684.463 485.304,682.913ZM266.805,444.428C264.407,452.21 261.078,459.36 257.812,466.976C249.102,487.281 239.055,511.55 239.411,534.038C239.536,541.911 241.958,549.117 243.151,556.36C245.506,570.654 248.627,584.179 256.039,596.94C266.058,614.19 273.869,624.92 291.839,633.168C292.508,633.428 294.071,634.205 294.456,633.938C298.575,631.091 310.077,617.217 312.315,613.559C307.075,609.975 301.915,607.149 296.927,603.065C279.99,589.199 270.851,569.866 266.75,548.548C262.924,528.667 261.76,511.116 263.054,490.426C263.859,477.556 265.673,458.568 267.235,445.242C267.091,444.971 266.948,444.699 266.805,444.428ZM750.863,174.023C747.518,175.062 745.745,176.071 742.643,177.692L745.507,182.081C759.605,187.353 761.555,187.263 776.382,186.952L783.093,186.496C776.851,178.561 760.633,173.652 750.863,174.023ZM143.86,473.959C135.292,478.304 133.199,480.305 126.814,487.531C131.492,493.76 134.328,496.571 140.42,501.568L144.498,504.579C147.102,495.788 148.749,490.747 154.16,483.358C152.494,481.779 145.329,474.668 143.86,473.959Z" style="fill:rgb(1,17,26);"  data-color="color-2"/>
        <path d="M353.648,530.633C344.682,514.05 337.272,483.681 336.812,465.089C333.624,474.943 334.11,481.095 331.987,490.072C328.537,504.659 323.945,519.683 322.189,534.723C320.132,552.333 321.266,572.066 321.585,589.894C314.78,586.764 303.416,580.177 299.008,573.636C281.613,547.821 279.045,503.292 282.959,473.238C285.905,450.607 295.71,420.48 310.436,403.484C313.998,399.373 325.313,391.447 330.325,387.754C327.216,392.174 322.752,398.463 320.213,403.083C309.33,422.889 301.72,451.027 301.156,473.568C300.683,492.475 304.93,521.879 309.94,539.967C318.452,485.828 316.448,415.321 367.76,380.805C372.842,377.387 377.994,373.968 383.696,371.686C379.126,376.551 376.474,381.195 372.852,386.632C340.856,434.657 342.511,489.447 382.61,532.365C380.715,527.325 376.555,517.079 375.547,512.094C370.259,485.949 370.422,458.183 377.538,432.388C382.752,413.486 389.981,396.263 401.024,379.976C402.27,378.138 405.991,376.145 407.321,374.414C414.744,364.758 416.243,363.323 426.533,357.516C420.737,367.155 407.724,402.537 405.806,413.501C398.2,456.984 404.741,501.619 428.743,537.728C423.609,521.033 420.099,503.88 418.264,486.51C416.377,467.867 417.576,454.392 420.546,436.035C421.559,429.776 422.108,421.354 424.109,415.408C429.046,399.085 437.153,383.551 443.479,367.93C450.958,349.459 453.455,340.814 466.289,325.086C465.035,330.842 464.925,342.179 463.405,346.749C455.858,368.847 455.503,391.041 456.29,414.035C457.294,443.42 464.473,456.577 481.725,479.418C470.895,447.261 470.919,400.993 479.006,368.11C483.373,386.734 487.235,392.409 497.207,408.359C505.376,421.691 514.617,434.334 524.84,446.164C531.379,453.591 539.431,460.919 546.529,467.959C556.125,477.642 562.312,483.881 571.768,493.701C571.921,493.86 574.414,526.247 576.488,539.227C577.787,547.354 582.717,556.118 584.379,563.921C548.878,534.178 520.336,507.499 502.288,463.613C510.13,531.773 520.229,541.606 571.66,587.759C577.418,592.926 587.282,601.31 590.25,608.517C596.448,623.568 595.785,638.241 596.471,654.001C596.939,664.756 598.101,677.444 600.133,688.046C593.579,688.02 588.61,686.348 582.258,684.968C570.488,682.412 559.06,679.307 547.475,676.059C542.218,674.585 536.452,673.842 531.145,672.688C548.269,685.01 565.176,698.32 583.471,708.945C590.855,713.234 598.411,717.365 605.864,721.541C611.289,753.963 613.59,781.226 626.277,812.114C614.799,815.595 611.627,816.6 602.652,824.534C615.683,828.559 635.627,830.742 649.083,828.509C648.406,831.818 648.488,833.484 648.481,836.859C646.807,836.355 644.599,835.385 643.145,835.73C643.682,836.928 644.087,837.149 645.051,838.047L644.508,837.916C642.741,837.472 642.128,837.124 640.517,836.5C632.121,833.248 623.437,832.568 615.337,836.738C614.71,837.913 614.101,839.184 613.34,840.257C609.497,838.19 606.48,836.048 602.176,835.883L601.332,836.354C601.145,839.596 605.416,841.132 606.29,847.554C603.546,842.929 602.419,841.216 599.132,836.828C592.379,837.649 572.775,839.769 570.621,846.388C568.83,838.838 565.64,831.302 563.346,823.893C556.265,801.025 543.732,777.092 539.437,753.704C555.882,762.1 563.298,763.425 580.565,769.21C563.492,751.82 541.473,738.412 525.561,719.61C521.184,714.437 517.526,698.696 514.976,691.76C503.244,659.843 495.599,626.744 483.706,594.868C503.867,611.199 546.053,623.631 571.979,631.099C561.783,615.055 549.262,605.738 532.982,597.343C496.439,578.5 472.845,545.752 454.689,509.876C451.199,502.98 448.671,495.079 445.247,488.228L445.003,487.751L445.036,488.34L445.076,489.322C445.447,497.186 443.859,504.51 444.089,512.374C444.866,538.919 449.167,560.001 457.369,584.996C449.671,578.1 438.354,568.158 426.964,570.132C416.347,558.211 409.904,548.343 402.612,534.33C399.896,529.111 397.44,525.586 395.254,519.833C393.974,516.465 392.539,512.351 390.893,509.221C391.145,513.276 391.442,516.675 391.944,520.703C394.447,539.32 398.561,550.605 405.829,567.556C398.968,560.819 389.698,553.219 382.579,546.708C380.548,544.851 355.253,530.38 353.648,530.633ZM561.4,446.962C557.479,443.761 550.339,436.326 546.156,432.5C540.431,426.745 533.787,421.814 528.433,415.685C499.501,382.563 487.791,335.987 500.7,293.637C502.51,287.699 506.701,276.448 509.483,271.239C509.272,272.356 509.081,273.477 508.909,274.601C507.107,286.617 510.382,307.897 514.91,319.539C517.285,325.644 522.342,332.986 526.257,338.315C525.862,335.818 525.559,333.306 525.349,330.786C522.804,301.363 523.335,274.491 538.13,247.715C545.29,234.756 548.787,230.41 558.225,219.084C556.856,227.839 557.597,233.238 558.84,241.79C566.262,221.539 586.533,201.058 602.421,186.611C605.923,183.426 613.457,178.535 617.617,175.363C606.217,166.113 594.458,158.824 581.72,151.586C574.889,147.704 570.614,146.757 562.933,148.606C566.055,140.533 569.148,139.537 575.185,133.907L574.925,133.432C573.576,132.946 573.033,132.797 571.821,132.022L571.043,131.514C579.506,131.307 592.706,141.091 600.356,145.086C609.14,149.674 618.589,154.928 626.696,160.62C640.168,156.465 658.231,149.838 671.421,147.27C668.045,149.422 660.763,151.555 658.553,153.393C650.507,160.084 644.324,166.423 635.342,172.249C650.608,167.632 667.96,164.307 682.669,157.99C697.882,151.457 699.835,148.298 714.917,158.802C705.196,162.013 693.057,166.123 683.647,170.177C681.019,171.309 671.559,177.983 668.541,179.967C677.358,178.631 686.164,177.217 694.957,175.726C707.535,173.593 717.62,169.527 728.221,179.173C717.081,181.283 707.974,188.802 696.019,192.598C704.976,191.869 713.32,191.709 722.277,192.035C737.168,192.577 744.101,196.723 753.01,208.176C753.69,194.899 762.718,194.41 773.406,191.151C776.796,190.117 780.278,189.146 783.673,188.113C786.362,189.634 794.708,198.009 796.393,200.482C794.577,199.446 792.793,198.102 790.72,198.876C782.194,202.061 775.151,211.69 772.922,220.072C774.078,218.715 774.174,218.055 775.509,217.844C776.896,221.583 775.557,227.762 776.025,229.436C774.73,229.94 774.123,229.91 772.762,229.942C770.267,231.509 770.241,236.426 771.405,238.844C775.023,246.361 779.128,253.503 783.528,260.69C789.061,269.728 806.561,287.098 792.726,296.407C783.52,302.658 774.901,298.125 765.295,296.605C756.212,295.168 745.388,286.819 736.668,290.736C732.308,292.694 734.325,299.315 735.728,302.593C732.374,300.07 728.627,297.598 725.158,295.17C722.659,296.919 720.769,298.964 718.033,300.284L717.906,299.531C716.089,298.657 707.487,300.601 701.455,299.222C700.279,297.352 694.157,294.015 692.734,291.191C691.464,288.671 692.033,286.856 690.668,284.189L688.051,286.373C687.828,284.501 690.555,279.395 691.484,277C657.101,297.089 613.186,268.817 632.83,231.813L631.732,232.143C612.745,237.728 611.913,258.967 614.249,275.092C606.809,267.261 602.732,258.73 596.043,250.366C594.814,236.217 604.155,212.029 612.699,200.952C600.224,205.544 592.76,216.998 585.797,227.64C584.093,226.093 583.496,225.646 581.54,224.431C576.307,229.481 562.73,245.414 559.377,251.75L552.905,251.798C549.072,257.708 541.506,279.403 544.118,286.424C534.057,302.895 532.167,321.256 536.597,339.91C544.15,371.709 570.768,396.048 589.916,421.832C587.971,420.983 583.267,417.459 581.313,416.113C574.51,411.429 567.881,406.425 561.097,401.702C558.737,399.231 548.073,390.395 544.99,390.988C544.182,392.616 544.412,391.719 544.755,393.86C548.008,410.12 550.912,424.876 558.304,439.8C559.296,441.803 560.683,444.862 561.4,446.962ZM669.676,235.618C667.977,239.954 667.842,243.478 669.838,247.959C671.569,251.846 674.855,254.811 678.889,256.164C682.888,257.506 685.523,256.898 689.624,256.345C691.4,255.071 692.792,254.354 693.781,252.438L693.447,251.303L692.438,250.085C693.635,249.695 697.968,247.6 699.325,246.976C701.561,248.815 703.169,250.182 705.185,252.404C707.791,255.276 710.455,261.436 714.3,262.524C716.248,263.076 718.8,261.162 720.416,260.116C722.607,254.314 722.319,252.281 720.48,246.554C722.605,242.71 715.345,228.881 712.648,225.662C706.975,218.892 698.564,214.402 691.157,209.735C686.3,206.675 680.516,204.147 674.761,203.476C666.541,202.567 657.242,203.806 650.674,209.21C646.002,213.054 648.214,215.518 651.39,219.173C647.37,218.105 645.032,217.915 640.844,217.501C642.971,222.587 652.875,236.936 658.05,239.054C660.508,240.076 663.284,240.006 665.687,238.862C667.205,238.15 667.826,237.402 668.992,236.269L669.676,235.618ZM750.271,501.419C756.571,490.721 762.819,475.101 764.992,462.786C774.241,484.369 774.44,508.762 765.545,530.494C756.021,554.153 737.267,575.12 715.256,587.956C720.87,579.016 728.651,567.9 733.75,559.595C740.636,548.379 752.157,514.108 750.271,501.419ZM712.653,640.827C716.902,627.525 727.06,618.067 736.921,608.717C746.915,599.242 755.021,588.69 763.877,578.274C766.026,587.629 766.051,598.754 767.214,608.421C767.834,613.581 770.122,623.525 769.863,628.124C769.588,632.982 755.801,644.797 752.381,649.295C745.102,658.868 740.362,668.418 734.783,678.789C742.526,676.142 753.309,671.863 760.086,667.251C763.501,664.926 767.23,661.126 770.46,659.01C772.256,674.263 775.114,684.457 778.073,699.398C780.956,713.789 784.041,728.138 787.328,742.442C789.428,751.739 793.268,768.284 796.337,777.236C798.594,783.789 801.579,790.067 805.235,795.954C795.246,799.558 788.245,802.401 782.066,811.535C802.985,818.309 816.462,814.795 837.391,812.42C859.384,809.925 871.062,839.55 871.177,857.835L864.173,859.283C859.943,835.585 854.115,822.905 828.513,819.278C842.659,832.523 842.885,842.42 842.369,861.32C836.697,861.799 831.456,863.142 826.01,863.192C825.911,852.864 824.923,841.271 817.26,833.39C810.511,826.449 802.113,826.032 793.376,824.346C804.344,836.217 808.799,847.87 804.489,863.896C793.24,864.549 780.917,864.482 772.107,856.256C759.434,844.424 749.455,817.352 743.818,800.48L745.168,799.711C746.246,798.52 746.671,796.905 747.28,795.332C748.294,789.99 747.832,785.181 748.019,779.851C748.569,764.231 745.976,741.367 739.28,726.942C739.185,726.161 738.737,725.656 738.282,724.874C739.775,718.688 746.166,700.897 744.953,696.235L744.407,696.039C741.466,702.107 738.905,704.114 734.466,709.219C732.395,711.6 730.731,714.409 730.13,714.744C729.77,714.945 729.778,714.059 730.354,712.202C732.628,704.876 719.206,664.425 716.571,654.08C715.528,649.988 715.519,645.158 713.926,641.308L712.653,640.827ZM155.89,813.478C156.736,807.072 158.677,798.304 159.925,791.731C162.817,775.992 165.911,760.29 169.204,744.629L176.077,710.747C178.308,699.553 179.216,692.818 182.589,681.793C189.089,692.647 191.171,694.427 201.567,701.377C198.528,688.978 199.33,674.076 197.793,660.701C199.138,657.333 205.286,647.793 207.618,643.345C216.878,664.244 220.164,673.624 242.319,684.439C236.633,689.794 228.374,698.216 223.358,703.944C205.582,724.242 198.326,765.639 200.482,792.048C189.769,794.04 186.484,794.247 177.369,800.383C196.242,808.281 202.69,808.615 222.917,808.456C219.428,809.989 213.95,811.689 210.937,813.221C208.902,812.686 205.048,811.24 203.565,811.694C204.066,813.054 204.442,813.303 205.406,814.387C200.747,813.024 188.236,809.084 184.843,814.008L184.518,815.586C181.343,812.827 178.679,811.355 175.055,809.242C176.426,811.657 177.238,812.801 177.748,815.587C172.274,806.266 162.647,804.256 155.89,813.478ZM266.805,444.428C266.948,444.699 267.091,444.971 267.235,445.242C265.673,458.568 263.859,477.556 263.054,490.426C261.76,511.116 262.924,528.667 266.75,548.548C270.851,569.866 279.99,589.199 296.927,603.065C301.915,607.149 307.075,609.975 312.315,613.559C310.077,617.217 298.575,631.091 294.456,633.938C294.071,634.205 292.508,633.428 291.839,633.168C273.869,624.92 266.058,614.19 256.039,596.94C248.627,584.179 245.506,570.654 243.151,556.36C241.958,549.117 239.536,541.911 239.411,534.038C239.055,511.55 249.102,487.281 257.812,466.976C261.078,459.36 264.407,452.21 266.805,444.428ZM232.173,591.365C233.104,592.348 235.659,601.923 236.535,604.099C242.716,619.446 252.088,634.544 266.616,643.194C271.794,646.277 276.771,648.121 281.925,650.957C278.412,656.416 272.921,660.689 267.722,664.575L260.412,670.298C236.985,659.54 229.255,641.929 222.182,618.024C226.39,609.527 229.251,600.376 232.173,591.365ZM800.967,232.069C802.269,232.673 807.384,234.924 808.292,235.783C812.428,239.696 815.675,246.685 817.713,251.934C819.185,255.724 825.326,275.859 818.597,276.993C808.998,278.612 800.683,264.752 794.748,259.125C797.022,257.638 799.84,255.914 801.929,254.248C802.281,251.681 802.657,249.117 803.058,246.558C798.619,248.771 794.182,250.955 789.797,247.253C800.304,244.987 803.264,242.312 800.967,232.069ZM162.408,349.847C167.638,351.444 169.731,355 171.191,359.941C168.966,363.331 164.144,368.39 161.425,371.803C156.914,377.464 154.055,381.972 150.339,388.063C147.713,387.561 143.452,387.325 140.675,387.095L129.688,387.034C137.401,375.01 149.741,356.38 162.408,349.847ZM133.183,417.226L135.019,417.062C135.175,417.223 135.331,417.384 135.486,417.545C134.897,425.914 135.053,438.789 135.143,446.574C126.481,447.624 122.585,449.753 114.734,453.833L114.371,453.852L113.684,453.228C112.12,437.201 115.557,432.19 116.577,417.982L116.624,417.277C123.294,418.189 126.494,417.829 133.183,417.226ZM579.733,186.975L585.787,190.022L581.233,194.221C580.964,190.825 580.761,190.194 579.733,186.975ZM203.893,486.346L204.314,486.438C206.22,488.165 207.072,499.338 207.291,502.163C197.707,508.974 190.796,513.106 179.006,512.701C177.581,512.502 176.711,512.537 175.588,511.651C175.417,510.749 175.368,510.463 175.466,509.575C176.202,499.602 179.779,494.208 190.246,493.206C196.528,492.605 199.055,490.235 203.893,486.346ZM768.858,160.362L767.175,159.273L767.106,158.536C773.695,153.564 783.917,144.813 790.745,141.44C787.625,148.54 775.791,154.16 768.858,160.362ZM143.86,473.959C145.329,474.668 152.494,481.779 154.16,483.358C148.749,490.747 147.102,495.788 144.498,504.579L140.42,501.568C134.328,496.571 131.492,493.76 126.814,487.531C133.199,480.305 135.292,478.304 143.86,473.959ZM750.863,174.023C760.633,173.652 776.851,178.561 783.093,186.496L776.382,186.952C761.555,187.263 759.605,187.353 745.507,182.081L742.643,177.692C745.745,176.071 747.518,175.062 750.863,174.023ZM738.164,156.586C747.609,158.657 757.272,164.975 765.303,170.408L758.414,168.437C748.143,165.751 741.255,162.445 730.035,160.759C733.13,158.763 734.684,157.757 738.164,156.586ZM342.981,568.545C342.224,562.349 341.752,555.249 341.212,548.988C343.511,554.387 345.938,559.731 348.49,565.015C345.187,565.653 345.245,565.179 343.222,568.182L342.981,568.545Z" style="fill:rgb(226,106,23);"  data-color="color-1"/>
    </g>
</svg>
