<svg width="100%" height="100%" viewBox="0 0 712 798" version="1.1" xmlns="http://www.w3.org/2000/svg" xmlns:xlink="http://www.w3.org/1999/xlink" xml:space="preserve" xmlns:serif="http://www.serif.com/" style="fill-rule:evenodd;clip-rule:evenodd;stroke-linejoin:round;stroke-miterlimit:2;">
    <g transform="matrix(1,0,0,1,-147.298,-112.407)">
        <path d="M545.096,112.407C624.876,119.34 674.235,148.184 716.081,217.22C736.789,210.247 755.853,220.86 766.661,238.609C781.723,263.342 786.437,292.798 780.143,320.847C793.215,335.379 812.135,349.908 819.099,368.711C825.323,385.515 822.023,402.532 817.263,419.207C842.803,450.773 844.793,473.589 841.342,511.831C843.939,515.729 846.777,519.997 849.07,524.022C861.518,545.867 860.498,576.791 853.594,600.259C844.144,632.375 825.049,659.431 795.552,675.786C789.821,689.152 786.411,694.242 778.086,705.892C797.639,767.295 773.74,821.111 717.946,852.274C676.41,875.472 627.704,881.451 581.212,871.481C575.93,870.348 570.633,868.677 565.358,868.002C564.489,867.891 564.09,866.455 563.839,865.671C561.73,866.644 546.14,878.369 541.495,881.257C523.083,892.706 506.514,900.291 487.299,909.724C469.925,876.979 451.941,859.351 421.718,838.176C401.072,823.192 368.943,806.93 345.958,795.458C282.873,763.973 231.659,722.485 200.949,657.911C194.896,645.184 191.265,634.419 186.788,621.086C183.159,630.301 179.449,641.136 175.541,650.028C172.553,642.459 170.072,634.598 167.228,626.974C134.605,539.535 144.806,446.5 185.333,362.596C172.373,370.066 160.183,376.523 147.298,384.506C155.88,362.282 166.118,340.734 177.925,320.043C213.161,258.256 257.862,209.465 319.9,174.196C313.29,173.66 307.117,173.175 300.488,172.955C319.816,157.429 341.07,144.465 363.722,134.387C412.825,112.383 467.779,107.051 520.196,119.204C535.657,122.876 548.66,127.641 563.457,133.393C557.474,126.279 551.352,119.282 545.096,112.407ZM463.882,127.216C510.44,126.198 568.141,143.461 603.423,174.451C599.636,157.079 589.689,143.532 577.633,130.7C593.667,134.644 606.543,138.807 621.511,145.582C658.181,162.181 695.963,201.135 709.579,239.164C712.437,236.517 714.833,234.211 718.226,232.222C734.734,222.531 750.042,235.883 757.287,250.182C765.783,266.949 770.31,285.653 768.522,304.474C767.851,311.544 766.284,317.752 764.241,324.536C775.183,336.317 787.384,347.135 797.642,359.513C814.636,380.019 808.544,398.425 801.98,421.587C829.368,458.747 830.238,471.342 826.721,516.162C829.408,519.472 832.707,524.116 834.882,527.746C846.64,547.37 846.537,571.372 840.797,592.981C834.343,617.277 820.849,640.014 800.867,655.633C795.65,659.711 790.057,662.809 784.339,666.138C776.503,683.211 774.436,687.629 761.997,702.434C779.345,759.471 769.361,803.309 716.99,836.139C675.207,862.333 626.456,866.93 579.039,856.306C579.743,848.358 580.534,840.418 581.413,832.488C569.491,840.949 558.328,851.576 546.493,860.493C531.729,871.618 517.777,878.918 501.525,887.376L493.624,891.348C465.459,845.031 424.395,820 377.492,794.792C363.853,787.799 349.255,781.163 335.775,774.012C262.84,735.32 209.93,672.196 194.365,590.124C192.28,579.129 190.967,568.429 189.663,557.146C188.617,562.336 186.427,569.324 184.999,574.657L175.76,609.392C171.81,594.56 167.66,579.554 165.532,564.166C156.669,500.08 168.703,431.667 195.98,373.245C205.193,353.512 217.397,334.714 230.183,317.437C225.224,319.982 218.425,324.249 213.505,327.153L178.341,348.179C181.694,342.539 184.858,336.404 188.248,330.626C195.942,317.392 204.235,304.516 213.102,292.039C253.604,235.027 311.612,180.441 382.933,168.297C371.483,165.48 354.245,161.88 342.606,160.667C386.961,137.554 412.938,128.854 463.882,127.216Z" style="fill:rgb(180,181,185);"  data-color="color-3"/>
        <path d="M463.882,127.216C510.44,126.198 568.141,143.461 603.423,174.451C599.636,157.079 589.689,143.532 577.633,130.7C593.667,134.644 606.543,138.807 621.511,145.582C658.181,162.181 695.963,201.135 709.579,239.164C712.437,236.517 714.833,234.211 718.226,232.222C734.734,222.531 750.042,235.883 757.287,250.182C765.783,266.949 770.31,285.653 768.522,304.474C767.851,311.544 766.284,317.752 764.241,324.536C775.183,336.317 787.384,347.135 797.642,359.513C814.636,380.019 808.544,398.425 801.98,421.587C829.368,458.747 830.238,471.342 826.721,516.162C829.408,519.472 832.707,524.116 834.882,527.746C846.64,547.37 846.537,571.372 840.797,592.981C834.343,617.277 820.849,640.014 800.867,655.633C795.65,659.711 790.057,662.809 784.339,666.138C776.503,683.211 774.436,687.629 761.997,702.434C779.345,759.471 769.361,803.309 716.99,836.139C675.207,862.333 626.456,866.93 579.039,856.306C579.743,848.358 580.534,840.418 581.413,832.488C569.491,840.949 558.328,851.576 546.493,860.493C531.729,871.618 517.777,878.918 501.525,887.376L493.624,891.348C465.459,845.031 424.395,820 377.492,794.792C363.853,787.799 349.255,781.163 335.775,774.012C262.84,735.32 209.93,672.196 194.365,590.124C192.28,579.129 190.967,568.429 189.663,557.146C188.617,562.336 186.427,569.324 184.999,574.657L175.76,609.392C171.81,594.56 167.66,579.554 165.532,564.166C156.669,500.08 168.703,431.667 195.98,373.245C205.193,353.512 217.397,334.714 230.183,317.437C225.224,319.982 218.425,324.249 213.505,327.153L178.341,348.179C181.694,342.539 184.858,336.404 188.248,330.626C195.942,317.392 204.235,304.516 213.102,292.039C253.604,235.027 311.612,180.441 382.933,168.297C371.483,165.48 354.245,161.88 342.606,160.667C386.961,137.554 412.938,128.854 463.882,127.216ZM512.633,639.038C526.038,652.493 537.533,663.625 547.112,680.497C552.184,689.482 556.592,698.825 560.3,708.453C569.039,731.348 575.3,758.943 593.914,775.294C572.854,768.814 561.306,762.474 544.579,748.074C555.599,763.45 565.285,778.859 581.321,789.694C601.117,803.07 623.275,804.189 645.045,794.938C638.615,812.325 629.589,822.732 613.994,832.967C630.1,833.122 641.164,831.293 656.65,826.013C677.746,818.107 693.428,808.493 708.027,791.058C708.003,801.983 706.585,809.524 702.451,819.7C716.26,810.104 729.406,797.011 732.499,779.804C739.394,741.449 682.919,753.792 662.013,756.217C636.837,759.139 616.369,760.695 599.952,738.239C588.866,723.958 584.271,712.894 576.291,697.294C563.321,671.94 539.777,648.903 512.633,639.038ZM329.329,276.001C317.639,281.303 307.298,286.609 296.931,294.258C262.313,319.802 236.201,359.611 221.226,399.422C217.474,409.396 214.236,419.555 211.524,429.86C209.42,437.747 207.364,446.829 204.897,454.496C205.873,452.943 206.976,451.305 207.73,449.654C231.875,407.88 260.908,369.546 302.651,343.864C312.783,337.631 322.007,333.405 332.86,328.567C328.806,313.475 327.227,300.199 328.894,284.632C329.091,282.793 330.281,276.815 329.329,276.001ZM629.825,183.83C634.114,189.009 638.663,197.549 641.917,203.591C659.274,235.107 668.271,270.542 668.053,306.521C668.033,312.424 668.187,318.981 667.459,324.816C669.458,321.324 671.84,317.38 673.601,313.815C696.625,262.444 673.296,216.335 631.222,184.272C630.859,183.995 630.268,183.917 629.825,183.83ZM773.726,402.863C772.735,404.115 769.627,407.974 769.013,409.178C766.36,414.371 766.9,420.365 764.036,425.678C762.367,428.774 757.955,430.424 756.75,432.956C757.288,434.349 757.822,435.325 759.128,436.178C773.434,432.049 779.571,421.252 775.184,406.454C774.84,405.294 774.406,403.865 773.726,402.863ZM735.816,637.707C715.831,639.443 695.657,645.314 675.814,648.496C670.557,649.663 665.181,650.04 660.004,651.598C651.098,654.278 647.98,656.228 647.881,665.925C647.788,674.971 647.756,681.833 650.478,690.512C662.17,682.996 664.434,676.662 672.363,667.386C676.596,666.286 680.051,665.693 684.382,664.964C702.474,661.973 725.932,657.719 744.191,660.912C743.929,671.886 743.429,678.17 739.857,688.901C751.72,679.048 762.192,664.713 763.906,648.822C764.142,646.634 764.372,643.537 763.695,641.506C759.467,637.787 741.345,636.794 735.816,637.707ZM785.424,434.81C779.058,442.728 776.118,445.363 767.3,450.538C774.728,461.854 783.383,473.59 792.867,483.279C795.607,486.104 798.786,489.232 801.39,492.129C803.507,472.812 802.824,456.533 790.431,439.987C789.341,438.532 786.865,435.731 785.424,434.81ZM388.978,594.344C392.265,623.59 396.629,652.122 410.098,678.589C431.892,721.416 471.767,752.346 487.501,798.794C491.376,810.23 493.962,819.211 494.337,831.417L497.616,822.609C507.679,790.849 504.423,752.282 489.031,722.481C466.068,678.021 419.519,651.493 396.235,606.792C395.321,605.037 389.762,594.976 388.978,594.344ZM319.533,382.055C221.295,446.057 191.572,554.908 261.361,651.831C267.304,660.084 273.482,668.056 279.521,676.204C273.016,649.117 275.763,633.057 283.137,607.371C287.162,650.814 316.423,689.787 349.584,716.315C381.468,741.821 418.838,760.02 451.459,784.615C460.812,791.667 470.316,798.427 478.291,807.072C477.031,804.913 476.131,803.309 474.585,801.308C458.849,776.919 436.054,751.342 414.339,733.517C355.02,684.828 303.655,628.663 303.882,547.336C303.934,528.677 304.24,513.88 308.327,494.717C309.249,490.327 310.387,485.986 311.738,481.708C305.609,491.539 298.453,500.543 292.343,510.31C281.456,527.353 272.831,545.74 266.687,565.008C264.224,572.676 262.478,579.933 260.263,587.555C259.442,577.483 258.193,567.282 258.122,557.187C257.937,531.118 263.41,505.883 272.156,481.428C282.637,452.124 297.257,425.296 311.68,397.847C313.728,393.95 317.371,386.915 319.775,382.801C319.695,382.552 319.614,382.304 319.533,382.055ZM463.364,154.739C450.59,155.082 442.292,156.351 429.954,157.349C475.771,167.719 496.679,179.789 532.028,210.544C526.925,208.31 521.696,206.762 516.4,205.054C468.098,189.471 415.164,184.372 366.916,202.968C332.952,216.059 307.027,240.037 280.999,264.564C298.013,255.094 320.052,247.172 339.349,244.116C345.436,233.951 351.886,224.543 362.764,219.002C402.461,198.781 439.247,231.875 471.257,250.046C502.982,266.546 538.32,266.691 573.367,277.918C548.39,260.308 524.293,245.57 498.054,229.898C555.974,232.16 601.393,249.103 641.363,292.262C643.971,295.103 646.522,297.997 649.014,300.941C645.599,289.972 642.705,280.589 638.002,270.063C619.631,229.297 588.289,195.755 548.861,174.666C522.476,160.979 493.081,154.128 463.364,154.739ZM343.437,417.081C372.294,395.974 406.575,380.527 442.894,379.909C398.202,408.08 356.698,448.905 344.962,502.09C340.951,520.265 339.978,547.243 344.461,565.673C345.416,559.12 347.974,551.997 350.134,545.708C360.638,515.131 379.449,490.944 405.148,471.566C417.816,462.014 427.979,456.584 442.259,449.944C421.95,471.756 405.935,495.585 407.022,526.844C407.927,549.932 418.019,571.702 435.053,587.314C443.067,594.763 451.364,599.876 460.429,605.764C437.368,576.102 431.874,546.7 439.411,510.555C453.61,549.422 490.143,560.359 526.414,569.623C519.527,561.575 513.082,554.971 504.824,548.234C476.266,524.935 453.159,512.675 454.04,471.999C484.885,513 526.42,523.151 574.873,526.228C595.017,514.553 597.27,514.963 618.928,512.165C611.701,516.717 603.069,522.972 598.629,530.489L598.081,531.502C599.348,532.924 605.756,534.169 608.187,534.904C618.264,537.896 628.031,541.842 637.358,546.69C649.577,553.17 659.14,560.927 668.365,571.255C649.993,563.105 625.584,557.161 606.084,552.343C600.635,550.997 587.883,548.225 582.443,547.748C578.643,551.977 577.282,555.005 575.436,560.343C583.217,564.583 599.674,570.046 608.42,573.062C626.761,579.379 645.178,585.475 663.667,591.348C628.997,596.964 602.14,589.608 570.116,578.003C570.164,584.375 569.818,588.884 574.822,593.332C594.17,610.526 619.227,613.938 642.371,619.303C629.747,622.315 615.99,624.54 603.056,622.115C608.794,625.615 617.794,628.391 624.157,630.226C651.767,638.189 679.628,630.596 705.632,620.649C719.593,615.379 738.222,608.889 746.744,595.889C755.642,582.315 740.842,561.158 728.99,554.203C719.4,548.575 720.855,563.534 720.811,568.531C706.635,561.711 700.11,556.071 690.866,543.391C685.785,533.148 683.909,524.571 684.074,513.158C689.867,518.02 693.737,521.253 700.377,525.046C721.373,508.121 742.992,520.456 766.303,523.164C777.402,524.453 786.322,523.199 797.094,520.756C784.666,503.565 770.586,486.537 758.593,469.169C742.403,445.401 729.537,419.533 720.35,392.281C727.474,396.519 737.211,402.437 744.571,405.758C748.643,402.214 752.608,397.635 756.342,393.67C764.975,384.506 771.388,379.775 782.544,374.387C761.858,350.085 729.811,320.456 705.938,299.7C701.335,321.534 688.716,340.969 676.549,359.097C633.52,317.615 596.101,300.347 536.538,296.4C518.459,295.203 493.296,293.017 476.713,286.184C448.345,274.495 427.164,245.137 396.161,237.15C389.25,235.37 379.392,234.675 373.19,238.614C364.761,243.968 359.256,258.997 357.445,268.351C353.695,287.732 357.555,309.605 364.872,327.735C366.273,331.206 368.103,336.053 370.133,339.052C365.322,320.641 362.368,304.946 365.74,285.758C367.241,277.219 372.335,263.077 380.052,258.652C402.923,245.535 433.234,288.66 450.456,300.009C462.649,308.043 474.083,313.409 487.564,316.528C484.461,317.694 475.09,319.646 471.365,320.569C430.471,330.7 394.908,354.467 365.856,384.52C358.844,391.774 347.958,404.21 342.767,412.983C340.371,416.411 338.061,419.897 335.838,423.44C338.165,421.418 340.995,418.825 343.437,417.081ZM532.254,423.347C532.096,422.928 528.23,416.018 527.659,414.965C523.255,406.848 521.305,401.257 519.193,392.333C511.514,389.501 498.526,386.598 490.342,385.76C512.865,373.138 542.687,366.592 567.094,377.516C571.977,379.701 576.763,382.667 581.338,385.461C599.884,401.653 617.602,418.729 643.485,417.035C644.107,416.994 644.728,416.948 645.348,416.898C658.136,413.112 666.789,405.271 673.982,394.314C673.391,412.231 671.733,432.058 652.983,439.846C662.275,456.714 665.978,467.752 672.897,484.846C658.639,467.744 642.814,455.77 624.549,443.401C616.986,449.716 612.196,451.607 602.695,454.305C572.055,457.785 550.827,447.314 532.254,423.347ZM554.046,394.762C553.889,401.773 553.253,410.798 555.754,417.339C564.88,441.215 594.564,446.734 612.369,429.399C612.651,429.123 612.93,428.844 613.205,428.561L613.702,427.576C611.927,425.671 604.84,421.651 602.257,420.085C591.936,432.234 578.841,434.258 571.469,416.707C570.458,414.299 570.165,410.955 570.067,408.29C570.001,406.593 569.998,404.895 570.055,403.198C564.624,399.833 559.943,397.27 554.046,394.762ZM662.993,705.338C652.152,717.743 643.216,727.354 628.553,735.667C646.018,738.136 653.511,735.187 670.678,733.154C684.24,731.549 702.218,731.414 715.614,733.507C720.844,734.509 724.204,735.25 729.239,736.986C733.432,725.387 733.758,718.584 731.71,706.322C727.538,713.723 725.373,717.047 717.6,721.355C699.15,718.951 685.942,718.154 667.3,722.443C666.737,719.956 664.277,706.242 662.993,705.338ZM816.601,535.822C810.343,547.264 805.191,554.445 795.755,563.87C792.009,567.636 787.998,571.13 783.753,574.323C781.281,576.201 776.093,579.776 774.181,581.816C768.756,587.605 766.58,597.968 768.843,605.534C771.774,615.333 785.76,627.577 794.38,632.097C797.049,629.978 799.207,628.239 801.699,625.92C808.081,619.326 811.821,615.441 814.25,606.418C809.224,605.502 807.045,604.809 802.399,602.56C818.447,597.536 824.684,596.971 824.007,578.205C816.199,580.794 811.608,581.544 803.454,579.665C812.095,573.548 820.128,567.375 824.363,557.282C823.632,547.919 821.88,543.613 816.601,535.822Z" style="fill:rgb(2,32,76);"  data-color="color-1"/>
        <path d="M581.338,385.461C568.658,370.21 559.618,363.684 541.352,356.3C545.728,355.757 550.122,355.175 554.53,355.033C593.982,353.766 627.772,383.981 645.348,416.898C644.728,416.948 644.107,416.994 643.485,417.035C617.602,418.729 599.884,401.653 581.338,385.461ZM602.695,454.305C605.103,454.993 611.814,455.18 614.521,455.318C591.61,471.175 564.73,470.117 546.264,448.984C541.623,443.672 531.966,430.567 532.254,423.347C550.827,447.314 572.055,457.785 602.695,454.305ZM690.866,543.391C700.11,556.071 706.635,561.711 720.811,568.531C720.855,563.534 719.4,548.575 728.99,554.203C740.842,561.158 755.642,582.315 746.744,595.889C738.222,608.889 719.593,615.379 705.632,620.649C679.628,630.596 651.767,638.189 624.157,630.226C617.794,628.391 608.794,625.615 603.056,622.115C615.99,624.54 629.747,622.315 642.371,619.303C619.227,613.938 594.17,610.526 574.822,593.332C569.818,588.884 570.164,584.375 570.116,578.003C602.14,589.608 628.997,596.964 663.667,591.348C645.178,585.475 626.761,579.379 608.42,573.062C599.674,570.046 583.217,564.583 575.436,560.343C577.282,555.005 578.643,551.977 582.443,547.748C587.883,548.225 600.635,550.997 606.084,552.343C625.584,557.161 649.993,563.105 668.365,571.255C659.14,560.927 649.577,553.17 637.358,546.69C628.031,541.842 618.264,537.896 608.187,534.904C605.756,534.169 599.348,532.924 598.081,531.502L598.629,530.489C629.061,515.722 653.715,521.12 682.355,538.135C685.043,539.732 688.225,541.996 690.866,543.391ZM512.633,639.038C539.777,648.903 563.321,671.94 576.291,697.294C584.271,712.894 588.866,723.958 599.952,738.239C616.369,760.695 636.837,759.139 662.013,756.217C682.919,753.792 739.394,741.449 732.499,779.804C729.406,797.011 716.26,810.104 702.451,819.7C706.585,809.524 708.003,801.983 708.027,791.058C693.428,808.493 677.746,818.107 656.65,826.013C641.164,831.293 630.1,833.122 613.994,832.967C629.589,822.732 638.615,812.325 645.045,794.938C623.275,804.189 601.117,803.07 581.321,789.694C565.285,778.859 555.599,763.45 544.579,748.074C561.306,762.474 572.854,768.814 593.914,775.294C575.3,758.943 569.039,731.348 560.3,708.453C556.592,698.825 552.184,689.482 547.112,680.497C537.533,663.625 526.038,652.493 512.633,639.038ZM816.601,535.822C821.88,543.613 823.632,547.919 824.363,557.282C820.128,567.375 812.095,573.548 803.454,579.665C811.608,581.544 816.199,580.794 824.007,578.205C824.684,596.971 818.447,597.536 802.399,602.56C807.045,604.809 809.224,605.502 814.25,606.418C811.821,615.441 808.081,619.326 801.699,625.92C799.207,628.239 797.049,629.978 794.38,632.097C785.76,627.577 771.774,615.333 768.843,605.534C766.58,597.968 768.756,587.605 774.181,581.816C776.093,579.776 781.281,576.201 783.753,574.323C787.998,571.13 792.009,567.636 795.755,563.87C805.191,554.445 810.343,547.264 816.601,535.822ZM735.816,637.707C741.345,636.794 759.467,637.787 763.695,641.506C764.372,643.537 764.142,646.634 763.906,648.822C762.192,664.713 751.72,679.048 739.857,688.901C743.429,678.17 743.929,671.886 744.191,660.912C725.932,657.719 702.474,661.973 684.382,664.964C680.051,665.693 676.596,666.286 672.363,667.386C664.434,676.662 662.17,682.996 650.478,690.512C647.756,681.833 647.788,674.971 647.881,665.925C647.98,656.228 651.098,654.278 660.004,651.598C665.181,650.04 670.557,649.663 675.814,648.496C695.657,645.314 715.831,639.443 735.816,637.707ZM662.993,705.338C664.277,706.242 666.737,719.956 667.3,722.443C685.942,718.154 699.15,718.951 717.6,721.355C725.373,717.047 727.538,713.723 731.71,706.322C733.758,718.584 733.432,725.387 729.239,736.986C724.204,735.25 720.844,734.509 715.614,733.507C702.218,731.414 684.24,731.549 670.678,733.154C653.511,735.187 646.018,738.136 628.553,735.667C643.216,727.354 652.152,717.743 662.993,705.338Z" style="fill:rgb(255,255,255);"/>
        <path d="M343.437,417.081C340.995,418.825 338.165,421.418 335.838,423.44C338.061,419.897 340.371,416.411 342.767,412.983C347.958,404.21 358.844,391.774 365.856,384.52C394.908,354.467 430.471,330.7 471.365,320.569C475.09,319.646 484.461,317.694 487.564,316.528C474.083,313.409 462.649,308.043 450.456,300.009C433.234,288.66 402.923,245.535 380.052,258.652C372.335,263.077 367.241,277.219 365.74,285.758C362.368,304.946 365.322,320.641 370.133,339.052C368.103,336.053 366.273,331.206 364.872,327.735C357.555,309.605 353.695,287.732 357.445,268.351C359.256,258.997 364.761,243.968 373.19,238.614C379.392,234.675 389.25,235.37 396.161,237.15C427.164,245.137 448.345,274.495 476.713,286.184C493.296,293.017 518.459,295.203 536.538,296.4C596.101,300.347 633.52,317.615 676.549,359.097C688.716,340.969 701.335,321.534 705.938,299.7C729.811,320.456 761.858,350.085 782.544,374.387C771.388,379.775 764.975,384.506 756.342,393.67C752.608,397.635 748.643,402.214 744.571,405.758C737.211,402.437 727.474,396.519 720.35,392.281C729.537,419.533 742.403,445.401 758.593,469.169C770.586,486.537 784.666,503.565 797.094,520.756C786.322,523.199 777.402,524.453 766.303,523.164C742.992,520.456 721.373,508.121 700.377,525.046C693.737,521.253 689.867,518.02 684.074,513.158C683.909,524.571 685.785,533.148 690.866,543.391C688.225,541.996 685.043,539.732 682.355,538.135C653.715,521.12 629.061,515.722 598.629,530.489C603.069,522.972 611.701,516.717 618.928,512.165C597.27,514.963 595.017,514.553 574.873,526.228C526.42,523.151 484.885,513 454.04,471.999C453.159,512.675 476.266,524.935 504.824,548.234C513.082,554.971 519.527,561.575 526.414,569.623C490.143,560.359 453.61,549.422 439.411,510.555C431.874,546.7 437.368,576.102 460.429,605.764C451.364,599.876 443.067,594.763 435.053,587.314C418.019,571.702 407.927,549.932 407.022,526.844C405.935,495.585 421.95,471.756 442.259,449.944C427.979,456.584 417.816,462.014 405.148,471.566C379.449,490.944 360.638,515.131 350.134,545.708C347.974,551.997 345.416,559.12 344.461,565.673C339.978,547.243 340.951,520.265 344.962,502.09C356.698,448.905 398.202,408.08 442.894,379.909C406.575,380.527 372.294,395.974 343.437,417.081ZM532.254,423.347C531.966,430.567 541.623,443.672 546.264,448.984C564.73,470.117 591.61,471.175 614.521,455.318C611.814,455.18 605.103,454.993 602.695,454.305C612.196,451.607 616.986,449.716 624.549,443.401C642.814,455.77 658.639,467.744 672.897,484.846C665.978,467.752 662.275,456.714 652.983,439.846C671.733,432.058 673.391,412.231 673.982,394.314C666.789,405.271 658.136,413.112 645.348,416.898C627.772,383.981 593.982,353.766 554.53,355.033C550.122,355.175 545.728,355.757 541.352,356.3C559.618,363.684 568.658,370.21 581.338,385.461C576.763,382.667 571.977,379.701 567.094,377.516C542.687,366.592 512.865,373.138 490.342,385.76C498.526,386.598 511.514,389.501 519.193,392.333C521.305,401.257 523.255,406.848 527.659,414.965C528.23,416.018 532.096,422.928 532.254,423.347ZM554.046,394.762C559.943,397.27 564.624,399.833 570.055,403.198C569.998,404.895 570.001,406.593 570.067,408.29C570.165,410.955 570.458,414.299 571.469,416.707C578.841,434.258 591.936,432.234 602.257,420.085C604.84,421.651 611.927,425.671 613.702,427.576L613.205,428.561C612.93,428.844 612.651,429.123 612.369,429.399C594.564,446.734 564.88,441.215 555.754,417.339C553.253,410.798 553.889,401.773 554.046,394.762ZM319.533,382.055C319.614,382.304 319.695,382.552 319.775,382.801C317.371,386.915 313.728,393.95 311.68,397.847C297.257,425.296 282.637,452.124 272.156,481.428C263.41,505.883 257.937,531.118 258.122,557.187C258.193,567.282 259.442,577.483 260.263,587.555C262.478,579.933 264.224,572.676 266.687,565.008C272.831,545.74 281.456,527.353 292.343,510.31C298.453,500.543 305.609,491.539 311.738,481.708C310.387,485.986 309.249,490.327 308.327,494.717C304.24,513.88 303.934,528.677 303.882,547.336C303.655,628.663 355.02,684.828 414.339,733.517C436.054,751.342 458.849,776.919 474.585,801.308C476.131,803.309 477.031,804.913 478.291,807.072C470.316,798.427 460.812,791.667 451.459,784.615C418.838,760.02 381.468,741.821 349.584,716.315C316.423,689.787 287.162,650.814 283.137,607.371C275.763,633.057 273.016,649.117 279.521,676.204C273.482,668.056 267.304,660.084 261.361,651.831C191.572,554.908 221.295,446.057 319.533,382.055ZM463.364,154.739C493.081,154.128 522.476,160.979 548.861,174.666C588.289,195.755 619.631,229.297 638.002,270.063C642.705,280.589 645.599,289.972 649.014,300.941C646.522,297.997 643.971,295.103 641.363,292.262C601.393,249.103 555.974,232.16 498.054,229.898C524.293,245.57 548.39,260.308 573.367,277.918C538.32,266.691 502.982,266.546 471.257,250.046C439.247,231.875 402.461,198.781 362.764,219.002C351.886,224.543 345.436,233.951 339.349,244.116C320.052,247.172 298.013,255.094 280.999,264.564C307.027,240.037 332.952,216.059 366.916,202.968C415.164,184.372 468.098,189.471 516.4,205.054C521.696,206.762 526.925,208.31 532.028,210.544C496.679,179.789 475.771,167.719 429.954,157.349C442.292,156.351 450.59,155.082 463.364,154.739ZM388.978,594.344C389.762,594.976 395.321,605.037 396.235,606.792C419.519,651.493 466.068,678.021 489.031,722.481C504.423,752.282 507.679,790.849 497.616,822.609L494.337,831.417C493.962,819.211 491.376,810.23 487.501,798.794C471.767,752.346 431.892,721.416 410.098,678.589C396.629,652.122 392.265,623.59 388.978,594.344ZM329.329,276.001C330.281,276.815 329.091,282.793 328.894,284.632C327.227,300.199 328.806,313.475 332.86,328.567C322.007,333.405 312.783,337.631 302.651,343.864C260.908,369.546 231.875,407.88 207.73,449.654C206.976,451.305 205.873,452.943 204.897,454.496C207.364,446.829 209.42,437.747 211.524,429.86C214.236,419.555 217.474,409.396 221.226,399.422C236.201,359.611 262.313,319.802 296.931,294.258C307.298,286.609 317.639,281.303 329.329,276.001ZM629.825,183.83C630.268,183.917 630.859,183.995 631.222,184.272C673.296,216.335 696.625,262.444 673.601,313.815C671.84,317.38 669.458,321.324 667.459,324.816C668.187,318.981 668.033,312.424 668.053,306.521C668.271,270.542 659.274,235.107 641.917,203.591C638.663,197.549 634.114,189.009 629.825,183.83ZM785.424,434.81C786.865,435.731 789.341,438.532 790.431,439.987C802.824,456.533 803.507,472.812 801.39,492.129C798.786,489.232 795.607,486.104 792.867,483.279C783.383,473.59 774.728,461.854 767.3,450.538C776.118,445.363 779.058,442.728 785.424,434.81ZM773.726,402.863C774.406,403.865 774.84,405.294 775.184,406.454C779.571,421.252 773.434,432.049 759.128,436.178C757.822,435.325 757.288,434.349 756.75,432.956C757.955,430.424 762.367,428.774 764.036,425.678C766.9,420.365 766.36,414.371 769.013,409.178C769.627,407.974 772.735,404.115 773.726,402.863Z" style="fill:rgb(249,174,21);"  data-color="color-2"/>
    </g>
</svg>
