<svg width="100%" height="100%" viewBox="0 0 656 927" version="1.1" xmlns="http://www.w3.org/2000/svg" xmlns:xlink="http://www.w3.org/1999/xlink" xml:space="preserve" xmlns:serif="http://www.serif.com/" style="fill-rule:evenodd;clip-rule:evenodd;stroke-linejoin:round;stroke-miterlimit:2;">
    <g transform="matrix(1,0,0,1,-162.903,-38.7518)">
        <path d="M172.673,38.752C174.89,40.101 181.787,47.995 183.815,50.251C204.003,72.706 223.658,96.314 239.536,122.041C237.997,105.836 239.311,86.717 237.168,70.357C245.328,88.927 254.692,105.689 261.743,125.067C264.018,131.23 265.924,137.522 267.454,143.911C268.504,148.172 271.943,165.835 273.449,167.548C291.69,188.287 329.945,209.076 352.449,223.584C363.404,230.588 374.103,237.985 384.525,245.759C407.385,262.798 425.288,278.763 445.514,298.507C490.825,290.897 537.131,291.443 582.25,300.117C620.567,251.034 677.562,207.261 697.158,146.95C709.075,110.273 695.504,77.051 678.638,44.963C698.706,60.12 716.179,70.763 731.46,92.414C742.725,108.131 751.017,126.486 752.261,146.069C754.16,175.978 741.329,201.838 739.202,231.918C735.704,281.38 740.274,329.597 732.51,378.752C759.778,406.861 786.552,436.79 806.004,470.958C810.066,478.094 813.629,485.496 817.615,492.686C812.339,498.428 806.287,504.379 800.829,510.117C805.252,519.634 808.215,524.748 811.675,535.252C825.744,577.96 815.512,605.668 796.942,642.889C815.118,672.841 809.275,709.456 790.746,737.689C779.589,752.429 769.445,760.244 754.338,770.239C750.33,800.003 741.872,823.029 720.184,844.684C698.441,866.394 675.423,874.195 645.814,877.923C646.203,875.453 646.516,872.872 646.854,870.386C622.855,875.892 597.406,868.403 576.611,856.317C561.719,890.753 558.317,929.123 570.192,964.998C434.012,925.029 312.241,846.647 219.468,739.242C207.533,725.354 187.778,701.982 178.275,687.306C178.719,676.126 182.984,655.494 185.471,644.497C200.744,578.545 225.787,515.246 259.773,456.698C229.925,414.069 217.414,362.383 219.936,310.716C220.769,293.657 223.516,277.42 225.231,260.496C226.788,243.729 227.682,226.907 227.91,210.069C209.035,192.214 202.344,178.62 188.262,157.659C180.238,145.821 171.779,134.285 162.903,123.073C167.191,124.848 173.307,128.402 177.575,130.7L202.283,143.992C197.553,131.449 192.982,113.586 189.414,100.437L172.673,38.752ZM196.287,83.875C201.454,99.478 204.906,114.001 209.672,129.219C213.955,142.465 218.891,155.491 224.461,168.249C214.87,162.309 205.387,156.197 196.015,149.917C210.427,171.873 220.38,185.173 240.305,202.299C240.429,221.066 239.572,239.827 237.737,258.505C235.948,276.211 233.196,293.076 232.376,310.9C230.007,362.328 242.472,414.131 275.011,454.834C241.091,508.36 212.784,581.491 197.856,643.217C195.37,653.493 191.535,672.772 190.753,683.314C192.763,686.812 197.947,693.172 200.542,696.478C208.732,706.866 217.138,717.083 225.756,727.12C247.211,752.11 270.446,775.516 295.276,797.156C365.387,857.951 464.357,917.099 553.356,943.946C543.084,908.802 551.708,866.94 571.38,836.473C591.396,851.782 612.314,860.614 638.276,857.686C647.511,856.645 655.027,852.948 663.146,848.677C662.927,853.461 662.59,857.032 661.849,861.789C674.863,858.267 685.083,854.741 696.426,847.084C725.836,827.232 739.887,797.407 741.721,762.617C749.962,757.582 755.59,754.045 763.152,747.907C781.439,732.457 792.719,714.942 794.317,690.716C795.275,676.187 794.604,654.914 781.489,645.775C809.955,594.601 815.159,561.242 785.154,508.548C789.844,501.509 794.861,493.843 799.853,487.042C778.951,446.226 749.297,415.512 718.379,382.012C727.703,332.464 721.521,282.172 725.578,232.19C726.289,223.117 727.619,214.102 729.559,205.21C733.907,186.101 740.418,168.785 739.437,148.714C738.587,131.32 731.858,114.972 722.149,100.679C718.1,94.785 713.579,89.229 708.63,84.066C743.195,172.99 632.242,251.619 587.764,314.811C532.387,303.522 496.5,303.786 440.368,312.66C417.814,290.126 400.584,274.187 374.747,254.763C364.935,247.504 354.869,240.595 344.567,234.051C319.989,218.342 294.313,204.246 272.43,184.713C263.781,176.993 262.489,175.303 260.331,163.758C257.481,148.514 253.235,130.739 247.135,116.451C247.483,129.337 247.23,144.239 246.895,157.194C234.657,134.129 222.204,115.319 205.735,94.912C203.938,92.685 198.201,85.169 196.287,83.875ZM597.843,824.431L597.244,824.113C591.914,821.254 583.316,815.594 578.332,811.946C540.877,784.532 492.758,763.198 463.912,814.466C453.932,832.203 453.929,847.903 454.099,867.961C453.218,866.869 452.49,865.169 451.987,863.831C437.708,825.862 440.225,779.648 482.322,762.477L470.881,761.493C516.506,747.963 558.221,789.872 589.802,816.625C592.401,818.827 596.305,821.466 597.843,824.431Z" style="fill:rgb(196,182,159);"  data-color="color-4"/>
        <path d="M196.287,83.875C198.201,85.169 203.938,92.685 205.735,94.912C222.204,115.319 234.657,134.129 246.895,157.194C247.23,144.239 247.483,129.337 247.135,116.451C253.235,130.739 257.481,148.514 260.331,163.758C262.489,175.303 263.781,176.993 272.43,184.713C294.313,204.246 319.989,218.342 344.567,234.051C354.869,240.595 364.935,247.504 374.747,254.763C400.584,274.187 417.814,290.126 440.368,312.66C496.5,303.786 532.387,303.522 587.764,314.811C632.242,251.619 743.195,172.99 708.63,84.066C713.579,89.229 718.1,94.785 722.149,100.679C731.858,114.972 738.587,131.32 739.437,148.714C740.418,168.785 733.907,186.101 729.559,205.21C727.619,214.102 726.289,223.117 725.578,232.19C721.521,282.172 727.703,332.464 718.379,382.012C749.297,415.512 778.951,446.226 799.853,487.042C794.861,493.843 789.844,501.509 785.154,508.548C815.159,561.242 809.955,594.601 781.489,645.775C794.604,654.914 795.275,676.187 794.317,690.716C792.719,714.942 781.439,732.457 763.152,747.907C755.59,754.045 749.962,757.582 741.721,762.617C739.887,797.407 725.836,827.232 696.426,847.084C685.083,854.741 674.863,858.267 661.849,861.789C662.59,857.032 662.927,853.461 663.146,848.677C655.027,852.948 647.511,856.645 638.276,857.686C612.314,860.614 591.396,851.782 571.38,836.473C551.708,866.94 543.084,908.802 553.356,943.946C464.357,917.099 365.387,857.951 295.276,797.156C270.446,775.516 247.211,752.11 225.756,727.12C217.138,717.083 208.732,706.866 200.542,696.478C197.947,693.172 192.763,686.812 190.753,683.314C191.535,672.772 195.37,653.493 197.856,643.217C212.784,581.491 241.091,508.36 275.011,454.834C242.472,414.131 230.007,362.328 232.376,310.9C233.196,293.076 235.948,276.211 237.737,258.505C239.572,239.827 240.429,221.066 240.305,202.299C220.38,185.173 210.427,171.873 196.015,149.917C205.387,156.197 214.87,162.309 224.461,168.249C218.891,155.491 213.955,142.465 209.672,129.219C204.906,114.001 201.454,99.478 196.287,83.875ZM551.816,523.993C545.386,529.772 551.131,535.322 557.884,534.971C560.669,532.865 562.711,530.027 559.919,526.774C558.436,525.02 556.268,523.991 553.971,523.95C553.253,523.942 552.534,523.956 551.816,523.993ZM658.853,625.527C660.293,627.647 661.696,629.792 663.06,631.961L655.562,626.206C640.52,619.117 628.395,607.546 617.626,595.225C615.391,599.032 613.424,601.002 610.725,604.301C607.744,607.946 588.016,621.575 584.282,617.517C584.959,615.404 586.917,613.884 588.242,612.103C599.56,596.884 595.719,581.954 584.143,568.668C575.448,573.74 569.418,574.958 559.558,576.536C526.689,579.337 494.958,564.203 483.169,532.267C482.123,529.433 481.292,526.406 480.462,523.503C478.861,516.628 477.48,508.977 477.465,501.889C440.348,502.341 404.897,524.281 381.539,552.327C379.135,555.045 375.35,559.254 373.518,562.377C369.32,567.162 364.953,574.04 361.534,579.449C342.204,609.736 331.948,644.924 331.98,680.853L334.384,673.522C343.729,659.965 349.107,653.09 364.551,646.075C362.032,652.706 359.452,659.843 358.016,666.775C352.343,694.165 352.931,730.482 364.085,755.99C364.633,757.22 365.239,758.423 365.9,759.596C376.463,786.546 395.65,818.667 415.878,839.389C428.489,854.652 441.823,865.849 457.136,878.268C455.678,874.306 455.063,872.09 454.099,867.961C453.929,847.903 453.932,832.203 463.912,814.466C492.758,763.198 540.877,784.532 578.332,811.946C583.316,815.594 591.914,821.254 597.244,824.113L597.843,824.431C630.63,844.714 661.154,831.579 689.647,810.202C686.635,818.918 685.434,823.417 679.677,830.677C696.596,821.609 707.879,812.45 714.271,793.406C718.416,781.055 717.748,768.93 711.848,757.278C683.683,754.066 658.842,765.377 633.209,775.318C628.343,777.205 623.794,778.52 618.711,779.698C623.675,782.126 627.783,784.001 632.898,786.131C591.939,801.679 565.519,775.919 537.682,749.567C519.336,732.198 517.042,728.956 492.57,722.53L493.033,722.252C508.895,712.854 521.153,714.07 538.467,718.399C528.532,704.582 521.116,698.966 520.971,680.163L521.044,674.79C509.573,668.032 493.828,665.991 480.73,665.165C495.573,660.311 508.393,661.833 523.52,663.258C524.409,660.951 525.37,658.966 526.422,656.74C535.091,643.447 543.16,638.588 558.03,635.149C582.349,634.527 591.51,649.842 613.155,660.362C618.944,663.124 624.859,665.612 630.88,667.82C632.69,668.502 639.418,670.849 640.614,671.532C638.577,672.242 622.547,670.898 619.215,670.597C594.272,668.351 569.838,661.589 545.657,655.369C573.843,683.271 612.43,697.869 651.282,702.605C614.209,708.78 579.664,701.856 545.308,687.664C570.818,713.503 604.857,726.71 640.974,727.127C615.607,734.193 596.51,737.129 570.047,732.298C585.279,742.832 604.812,749.969 623.893,748.537C646.037,746.876 681.192,736.428 697.546,720.832C709.366,709.559 687.003,681.145 678.22,672.865C666.941,662.233 641.626,648.847 639.858,631.475L639.798,630.814C647.748,626.141 656.2,633.552 663.081,637.872C666.172,634.656 672.251,627.843 676.462,626.583C689.085,622.806 707.514,626.578 720.816,626.95C730.661,627.226 740.59,625.156 748.934,628.076C745.108,617.542 738.174,603.035 732.291,593.509C719.884,573.421 708.657,560.476 710.095,535.191C711.813,518.575 717.433,505.595 718.965,488.6C720.465,471.964 713.94,449.742 716.466,434.787C717.7,435.994 718.423,439.195 718.983,441.006C724.467,455.097 733.756,474.11 735.855,488.428C736.214,496.854 735.658,499.218 732.578,507.01C742.721,498.977 759.885,486.782 772.854,487.095C770.45,482.387 768.085,477.658 765.76,472.909C761.805,464.933 751.881,451.307 746.644,444.272C719.271,407.505 686.206,371.44 646.6,347.717L638.003,342.568C640.173,344.808 642.366,347.025 644.581,349.221C659.509,366.151 666.518,375.16 677.081,395.197C667.994,386.56 655.503,377.919 644.876,371.155C605.305,345.968 554.567,328.829 507.177,329.997C493.736,330.221 480.371,332.043 467.361,335.424C482.479,346.126 493.745,356.184 504.232,371.881L508.196,377.467L501.648,373.178C479.81,359.187 467.614,355.664 442.086,353.442C444.142,368.959 443.638,376.668 442.134,391.994C414.937,342.13 374.265,292.927 328.422,259.379C305.005,242.241 284.093,230.114 263.027,209.354C263.612,215.391 263.05,222.321 262.976,228.431C262.513,266.924 253.665,305.154 257.27,343.715C261.007,384.12 278.222,424.794 307.849,452.971C309.06,455.896 308.266,460.705 308.583,463.924C307.862,469.38 307.418,471.211 306.123,476.412C307.554,473.91 309.59,470.587 310.848,468.084C310.911,468.037 310.974,467.989 311.038,467.942C320.956,453.315 330.228,426.876 327.71,410.351C324.619,390.059 311.922,377.298 297.681,366.32C314.548,366.57 327.924,368.707 341.229,380.11C337.425,360.068 330.39,345.314 316.264,330.294C329.258,329.706 334.731,329.808 346.851,334.543C341.508,326.261 336.456,315.155 331.546,306.208C322.344,289.44 312.86,276.332 300.85,261.44C298.869,259.223 293.189,253.479 292.683,251.192L303.213,259.758C310.722,265.434 316.957,271.103 323.962,277.187C362.224,310.417 385.225,346.282 398.401,395.099C352.968,434.712 305.085,489.719 283.744,546.963C282.449,544.017 290.038,486.834 291.335,481.485C264.202,530.482 226.982,617.208 221.809,672.398C239.724,704.145 268.195,736.71 294.973,761.059C299.339,765.029 306.699,771.449 311.473,774.825C317.321,780.923 325.132,786.486 331.704,792.093C327.589,780.897 323.79,769.589 320.31,758.18C317.807,749.692 315.731,740.964 313.187,732.523C311.221,726.217 307.891,720.199 306.004,713.886C280.22,627.637 331.808,538.89 404.552,493.889C411.431,489.633 419.864,485.113 427.422,482.663C458.831,477.53 507.074,480.008 536.902,492.53C544.224,495.604 555.314,502.656 562.239,507.018C570.194,511.949 578.069,517.008 585.861,522.193C574.078,507.329 551.489,480.602 535.134,471.163C511.931,451.787 472.797,447.061 443.359,449.71C438.074,450.174 432.813,450.889 427.595,451.855C455.771,437.035 490.606,426.487 522.493,435.588C543.852,441.684 566.45,465.934 579.565,483.71C575.848,455.11 571.386,444.425 554.317,420.773C567.786,430.716 580.698,438.164 591.525,451.681C601.602,464.264 607.709,478.242 615.643,491.926C625.121,508.273 640.781,531.112 657.387,539.925C643.411,539.995 630.987,539.342 617.54,534.526C632.32,562.23 634.665,591.355 653.793,617.082C655.139,618.893 657.779,623.434 658.853,625.527ZM503.903,514.203C503.935,527.047 507.835,539.107 517.079,548.346C530.82,562.081 555.307,564.736 569.459,550.219C573.173,546.405 574.889,542.587 577.178,537.879L572.545,536.858C568.129,542.915 563.778,547.791 555.829,549.186C549.637,550.28 543.267,548.771 538.223,545.016C531.26,539.931 527.482,532.592 526.319,524.187C526.238,523.598 526.168,523.008 526.11,522.416C526.391,518.029 526.785,516.494 527.864,512.319C521.22,509.731 512.194,507.134 505.288,505.477C504.119,508.997 503.986,510.647 503.903,514.203ZM746.257,580.095C756.092,596.134 768.432,610.18 768.685,628.969C775.918,609.342 785.704,594.564 785.271,571.766C785.165,566.184 785.344,561.305 784.054,555.733C782.124,543.278 779.718,537.621 774.315,526.155C775.251,548.238 763.972,567.812 741.831,573.671L746.257,580.095ZM749.552,553.548C756.074,547.584 760.686,538.476 761.027,529.599C762.334,524.415 761.605,516.159 759.77,511.069C754.761,513.564 748.776,517.164 743.972,520.051C746.077,523.406 746.364,525.058 747.09,528.81C745.983,535.252 745.449,538.691 741.118,543.941C736.335,547.978 733.521,548.731 727.291,548.137C730.566,555.523 733.074,562.221 742.56,557.97C745.097,556.85 747.453,555.36 749.552,553.548ZM767.064,647.773C765.234,652.487 762.246,659.091 758.937,662.935C748.454,675.116 738.499,687.684 728.706,700.312C711.772,722.15 716.333,726.504 733.698,745.314C738.869,742.138 743.87,738.691 748.68,734.99C752.556,731.756 755.804,728.908 759.245,725.189C755.092,724.435 752.027,724.103 747.806,723.724C766.486,716.27 770.858,715.443 775.876,694.739C767.983,696.801 764.467,696.889 756.413,697.276C764.967,691.349 770.868,687.243 775.969,678.187C776.099,668.951 774.15,654.394 767.064,647.773ZM739.052,524.305C736.66,526.845 734.764,528.644 736.563,532.174C737.611,533.01 737.732,533.174 738.934,533.721C742.065,530.995 744.377,526.087 739.052,524.305Z" style="fill:rgb(1,28,59);" data-color="color-1"/>
        <path d="M784.054,555.733C785.344,561.305 785.165,566.184 785.271,571.766C785.704,594.564 775.918,609.342 768.685,628.969C768.432,610.18 756.092,596.134 746.257,580.095C763.399,577.236 775.367,571.157 784.054,555.733ZM373.518,562.377C375.35,559.254 379.135,555.045 381.539,552.327C404.897,524.281 440.348,502.341 477.465,501.889C477.48,508.977 478.861,516.628 480.462,523.503C474.14,523.389 466.943,522.918 460.608,522.518C452.828,521.873 443.935,521.839 436.261,523.597C419.232,527.498 397.17,543.052 383.644,554.171C381.6,556.031 375.755,561.79 373.518,562.377ZM365.9,759.596C365.239,758.423 364.633,757.22 364.085,755.99C352.931,730.482 352.343,694.165 358.016,666.775C359.452,659.843 362.032,652.706 364.551,646.075C349.107,653.09 343.729,659.965 334.384,673.522C334.886,669.234 337.136,665.127 339.16,661.369C354.286,633.275 382.22,620.561 411.848,613.567C375.143,647.446 356.718,693.082 363.443,742.761C364.031,747.105 366.197,755.831 365.9,759.596ZM641.366,395.899C641.558,395.963 641.75,396.028 641.942,396.092C661.186,409.866 685.518,436.515 695.306,457.328C705.382,478.757 704.093,500.167 697.063,519.657C696.08,522.135 695.218,523.88 694.03,526.228C689.654,488.745 675.758,455.193 657.86,422.17C653.556,414.23 646.995,402.795 641.366,395.899ZM569.553,385.855C575.808,388.148 605.499,411.402 612.228,417.495C634.622,437.772 657.321,470.386 658.679,501.334C644.593,490.089 622.654,450.598 610.219,434.548C597.093,417.605 582.633,402.242 569.553,385.855ZM558.03,635.149C543.16,638.588 535.091,643.447 526.422,656.74C516.547,656.891 501.682,646.362 494.094,640.746C478.415,629.143 467.036,614.133 456.468,598.005C476.216,611.2 503.549,623.19 526.642,628.949C537.052,631.545 547.59,632.96 558.03,635.149ZM311.473,774.825C306.699,771.449 299.339,765.029 294.973,761.059C268.195,736.71 239.724,704.145 221.809,672.398C226.982,617.208 264.202,530.482 291.335,481.485C290.038,486.834 282.449,544.017 283.744,546.963C280.258,559.291 277.553,568.483 275.279,581.007C282.573,570.682 290.577,562.831 302.462,557.945C275.74,600.353 266.985,651.649 278.127,700.519C282.566,719.131 289.601,737.026 299.028,753.677C302.468,759.747 308.994,769.185 311.473,774.825ZM300.85,261.44C312.86,276.332 322.344,289.44 331.546,306.208C336.456,315.155 341.508,326.261 346.851,334.543C334.731,329.808 329.258,329.706 316.264,330.294C330.39,345.314 337.425,360.068 341.229,380.11C327.924,368.707 314.548,366.57 297.681,366.32C311.922,377.298 324.619,390.059 327.71,410.351C330.228,426.876 320.956,453.315 311.038,467.942C310.974,467.989 310.911,468.037 310.848,468.084C309.59,470.587 307.554,473.91 306.123,476.412C307.418,471.211 307.862,469.38 308.583,463.924C308.266,460.705 309.06,455.896 307.849,452.971C309.627,436.881 292.489,411.705 286.404,397.152C281.517,385.388 278.057,373.08 276.099,360.493C271.316,328.837 276.105,306.556 279.516,275.439C280.796,263.979 281.533,252.465 281.727,240.935C285.185,244.493 289.392,247.734 292.683,251.192C293.189,253.479 298.869,259.223 300.85,261.44Z" style="fill:rgb(144,83,27);"/>
        <path d="M746.257,580.095L741.831,573.671C763.972,567.812 775.251,548.238 774.315,526.155C779.718,537.621 782.124,543.278 784.054,555.733C775.367,571.157 763.399,577.236 746.257,580.095ZM535.134,471.163C551.489,480.602 574.078,507.329 585.861,522.193C578.069,517.008 570.194,511.949 562.239,507.018C555.314,502.656 544.224,495.604 536.902,492.53C507.074,480.008 458.831,477.53 427.422,482.663C430.631,480.094 438.753,477.683 442.859,476.252C465.588,468.333 489.509,466.75 513.368,468.507C520.846,469.058 527.771,470.374 535.134,471.163ZM480.462,523.503C481.292,526.406 482.123,529.433 483.169,532.267C494.958,564.203 526.689,579.337 559.558,576.536C557.662,578.048 554.296,579.148 551.879,579.649C514.196,587.448 469.322,560.408 460.608,522.518C466.943,522.918 474.14,523.389 480.462,523.503ZM520.971,680.163C521.116,698.966 528.532,704.582 538.467,718.399C521.153,714.07 508.895,712.854 493.033,722.252L492.57,722.53C517.042,728.956 519.336,732.198 537.682,749.567C565.519,775.919 591.939,801.679 632.898,786.131C627.783,784.001 623.675,782.126 618.711,779.698C623.794,778.52 628.343,777.205 633.209,775.318C658.842,765.377 683.683,754.066 711.848,757.278C717.748,768.93 718.416,781.055 714.271,793.406C707.879,812.45 696.596,821.609 679.677,830.677C685.434,823.417 686.635,818.918 689.647,810.202C661.154,831.579 630.63,844.714 597.843,824.431C596.305,821.466 592.401,818.827 589.802,816.625C558.221,789.872 516.506,747.963 470.881,761.493L482.322,762.477C440.225,779.648 437.708,825.862 451.987,863.831C452.49,865.169 453.218,866.869 454.099,867.961C455.063,872.09 455.678,874.306 457.136,878.268C441.823,865.849 428.489,854.652 415.878,839.389C401.977,813.763 395.861,796.364 397.091,766.239C399.18,715.085 450.951,682.336 497.999,679.739C505.902,679.303 513.146,679.726 520.971,680.163ZM639.798,630.814L639.858,631.475C641.626,648.847 666.941,662.233 678.22,672.865C687.003,681.145 709.366,709.559 697.546,720.832C681.192,736.428 646.037,746.876 623.893,748.537C604.812,749.969 585.279,742.832 570.047,732.298C596.51,737.129 615.607,734.193 640.974,727.127C604.857,726.71 570.818,713.503 545.308,687.664C579.664,701.856 614.209,708.78 651.282,702.605C612.43,697.869 573.843,683.271 545.657,655.369C569.838,661.589 594.272,668.351 619.215,670.597C622.547,670.898 638.577,672.242 640.614,671.532C638.222,661.82 636.967,650.432 636.12,640.419C635.772,636.308 636.197,633.153 639.798,630.814ZM765.76,472.909C768.085,477.658 770.45,482.387 772.854,487.095C759.885,486.782 742.721,498.977 732.578,507.01C735.658,499.218 736.214,496.854 735.855,488.428C744.377,480.628 753.819,473.039 765.76,472.909ZM767.064,647.773C774.15,654.394 776.099,668.951 775.969,678.187C770.868,687.243 764.967,691.349 756.413,697.276C764.467,696.889 767.983,696.801 775.876,694.739C770.858,715.443 766.486,716.27 747.806,723.724C752.027,724.103 755.092,724.435 759.245,725.189C755.804,728.908 752.556,731.756 748.68,734.99C743.87,738.691 738.869,742.138 733.698,745.314C716.333,726.504 711.772,722.15 728.706,700.312C738.499,687.684 748.454,675.116 758.937,662.935C762.246,659.091 765.234,652.487 767.064,647.773ZM551.816,523.993C552.534,523.956 553.253,523.942 553.971,523.95C556.268,523.991 558.436,525.02 559.919,526.774C562.711,530.027 560.669,532.865 557.884,534.971C551.131,535.322 545.386,529.772 551.816,523.993ZM739.052,524.305C744.377,526.087 742.065,530.995 738.934,533.721C737.732,533.174 737.611,533.01 736.563,532.174C734.764,528.644 736.66,526.845 739.052,524.305Z" style="fill:white;"/>
        <path d="M691.634,642.138C704.46,641.355 715.39,646.446 728.009,646.966C733.976,647.204 746.125,638.182 750.342,645.207C752.081,648.105 740.682,659.478 738.472,662.223C733.186,668.785 729.958,674.261 726.473,681.87C726.667,678.643 726.642,675.852 726.609,672.625C726.432,666.864 726.317,663.038 724.593,657.558C722.946,667.009 719.476,677.664 712.554,684.595C710.143,670.347 707.375,657.715 689.873,656.079C685.435,655.664 681.225,656.12 679.377,651.207C679.527,645.502 686.89,642.827 691.634,642.138Z" style="fill:white;fill-opacity:0.33;"/>
        <path d="M503.903,514.203C503.986,510.647 504.119,508.997 505.288,505.477C512.194,507.134 521.22,509.731 527.864,512.319C526.785,516.494 526.391,518.029 526.11,522.416C526.168,523.008 526.238,523.598 526.319,524.187C527.482,532.592 531.26,539.931 538.223,545.016C543.267,548.771 549.637,550.28 555.829,549.186C563.778,547.791 568.129,542.915 572.545,536.858L577.178,537.879C574.889,542.587 573.173,546.405 569.459,550.219C555.307,564.736 530.82,562.081 517.079,548.346C507.835,539.107 503.935,527.047 503.903,514.203ZM749.552,553.548C747.453,555.36 745.097,556.85 742.56,557.97C733.074,562.221 730.566,555.523 727.291,548.137C733.521,548.731 736.335,547.978 741.118,543.941C745.449,538.691 745.983,535.252 747.09,528.81C746.364,525.058 746.077,523.406 743.972,520.051C748.776,517.164 754.761,513.564 759.77,511.069C761.605,516.159 762.334,524.415 761.027,529.599C760.686,538.476 756.074,547.584 749.552,553.548Z" style="fill:rgb(255,151,30);"  data-color="color-3"/>
        <path d="M503.903,514.203C503.986,510.647 504.119,508.997 505.288,505.477C512.194,507.134 521.22,509.731 527.864,512.319C526.785,516.494 526.391,518.029 526.11,522.416C524.273,522.321 505.177,515.358 503.903,514.203ZM747.09,528.81C746.364,525.058 746.077,523.406 743.972,520.051C748.776,517.164 754.761,513.564 759.77,511.069C761.605,516.159 762.334,524.415 761.027,529.599C760.732,526.849 761.828,521.618 760.065,519.919C755.639,519.651 750.924,526.64 747.09,528.81ZM749.552,553.548C747.453,555.36 745.097,556.85 742.56,557.97C733.074,562.221 730.566,555.523 727.291,548.137C733.521,548.731 736.335,547.978 741.118,543.941C743.833,547.351 746.627,550.33 749.552,553.548Z" style="fill-opacity:0.18;"/>
        <path d="M646.6,347.717C686.206,371.44 719.271,407.505 746.644,444.272C751.881,451.307 761.805,464.933 765.76,472.909C753.819,473.039 744.377,480.628 735.855,488.428C733.756,474.11 724.467,455.097 718.983,441.006C718.423,439.195 717.7,435.994 716.466,434.787C713.94,449.742 720.465,471.964 718.965,488.6C717.433,505.595 711.813,518.575 710.095,535.191C708.657,560.476 719.884,573.421 732.291,593.509C738.174,603.035 745.108,617.542 748.934,628.076C740.59,625.156 730.661,627.226 720.816,626.95C707.514,626.578 689.085,622.806 676.462,626.583C672.251,627.843 666.172,634.656 663.081,637.872C656.2,633.552 647.748,626.141 639.798,630.814C636.197,633.153 635.772,636.308 636.12,640.419C636.967,650.432 638.222,661.82 640.614,671.532C639.418,670.849 632.69,668.502 630.88,667.82C624.859,665.612 618.944,663.124 613.155,660.362C591.51,649.842 582.349,634.527 558.03,635.149C547.59,632.96 537.052,631.545 526.642,628.949C503.549,623.19 476.216,611.2 456.468,598.005C467.036,614.133 478.415,629.143 494.094,640.746C501.682,646.362 516.547,656.891 526.422,656.74C525.37,658.966 524.409,660.951 523.52,663.258C508.393,661.833 495.573,660.311 480.73,665.165C493.828,665.991 509.573,668.032 521.044,674.79L520.971,680.163C513.146,679.726 505.902,679.303 497.999,679.739C450.951,682.336 399.18,715.085 397.091,766.239C395.861,796.364 401.977,813.763 415.878,839.389C395.65,818.667 376.463,786.546 365.9,759.596C366.197,755.831 364.031,747.105 363.443,742.761C356.718,693.082 375.143,647.446 411.848,613.567C382.22,620.561 354.286,633.275 339.16,661.369C337.136,665.127 334.886,669.234 334.384,673.522L331.98,680.853C331.948,644.924 342.204,609.736 361.534,579.449C364.953,574.04 369.32,567.162 373.518,562.377C375.755,561.79 381.6,556.031 383.644,554.171C397.17,543.052 419.232,527.498 436.261,523.597C443.935,521.839 452.828,521.873 460.608,522.518C469.322,560.408 514.196,587.448 551.879,579.649C554.296,579.148 557.662,578.048 559.558,576.536C569.418,574.958 575.448,573.74 584.143,568.668C595.719,581.954 599.56,596.884 588.242,612.103C586.917,613.884 584.959,615.404 584.282,617.517C588.016,621.575 607.744,607.946 610.725,604.301C613.424,601.002 615.391,599.032 617.626,595.225C628.395,607.546 640.52,619.117 655.562,626.206L663.06,631.961C661.696,629.792 660.293,627.647 658.853,625.527C657.779,623.434 655.139,618.893 653.793,617.082C634.665,591.355 632.32,562.23 617.54,534.526C630.987,539.342 643.411,539.995 657.387,539.925C640.781,531.112 625.121,508.273 615.643,491.926C607.709,478.242 601.602,464.264 591.525,451.681C580.698,438.164 567.786,430.716 554.317,420.773C571.386,444.425 575.848,455.11 579.565,483.71C566.45,465.934 543.852,441.684 522.493,435.588C490.606,426.487 455.771,437.035 427.595,451.855C432.813,450.889 438.074,450.174 443.359,449.71C472.797,447.061 511.931,451.787 535.134,471.163C527.771,470.374 520.846,469.058 513.368,468.507C489.509,466.75 465.588,468.333 442.859,476.252C438.753,477.683 430.631,480.094 427.422,482.663C419.864,485.113 411.431,489.633 404.552,493.889C331.808,538.89 280.22,627.637 306.004,713.886C307.891,720.199 311.221,726.217 313.187,732.523C315.731,740.964 317.807,749.692 320.31,758.18C323.79,769.589 327.589,780.897 331.704,792.093C325.132,786.486 317.321,780.923 311.473,774.825C308.994,769.185 302.468,759.747 299.028,753.677C289.601,737.026 282.566,719.131 278.127,700.519C266.985,651.649 275.74,600.353 302.462,557.945C290.577,562.831 282.573,570.682 275.279,581.007C277.553,568.483 280.258,559.291 283.744,546.963C305.085,489.719 352.968,434.712 398.401,395.099C385.225,346.282 362.224,310.417 323.962,277.187C316.957,271.103 310.722,265.434 303.213,259.758L292.683,251.192C289.392,247.734 285.185,244.493 281.727,240.935C281.533,252.465 280.796,263.979 279.516,275.439C276.105,306.556 271.316,328.837 276.099,360.493C278.057,373.08 281.517,385.388 286.404,397.152C292.489,411.705 309.627,436.881 307.849,452.971C278.222,424.794 261.007,384.12 257.27,343.715C253.665,305.154 262.513,266.924 262.976,228.431C263.05,222.321 263.612,215.391 263.027,209.354C284.093,230.114 305.005,242.241 328.422,259.379C374.265,292.927 414.937,342.13 442.134,391.994C443.638,376.668 444.142,368.959 442.086,353.442C467.614,355.664 479.81,359.187 501.648,373.178L508.196,377.467L504.232,371.881C493.745,356.184 482.479,346.126 467.361,335.424C480.371,332.043 493.736,330.221 507.177,329.997C554.567,328.829 605.305,345.968 644.876,371.155C655.503,377.919 667.994,386.56 677.081,395.197C666.518,375.16 659.509,366.151 644.581,349.221C642.366,347.025 640.173,344.808 638.003,342.568L646.6,347.717ZM569.553,385.855C582.633,402.242 597.093,417.605 610.219,434.548C622.654,450.598 644.593,490.089 658.679,501.334C657.321,470.386 634.622,437.772 612.228,417.495C605.499,411.402 575.808,388.148 569.553,385.855ZM641.366,395.899C646.995,402.795 653.556,414.23 657.86,422.17C675.758,455.193 689.654,488.745 694.03,526.228C695.218,523.88 696.08,522.135 697.063,519.657C704.093,500.167 705.382,478.757 695.306,457.328C685.518,436.515 661.186,409.866 641.942,396.092C641.75,396.028 641.558,395.963 641.366,395.899Z" style="fill:rgb(211,141,43);"  data-color="color-2"/>
    </g>
</svg>
