<svg width="100%" height="100%" viewBox="0 0 1003 592" version="1.1" xmlns="http://www.w3.org/2000/svg" xmlns:xlink="http://www.w3.org/1999/xlink" xml:space="preserve" xmlns:serif="http://www.serif.com/" style="fill-rule:evenodd;clip-rule:evenodd;stroke-linejoin:round;stroke-miterlimit:2;">
    <g transform="matrix(1,0,0,1,-265.999,-217.6)">
        <path d="M637.75,604.738C638.808,602.314 639.795,599.858 640.708,597.375C649.825,571.823 646.973,559.703 636.31,536.111C631.91,526.492 627.448,516.9 622.925,507.338L622.872,509.612C621.682,559.031 608.8,602.465 571.953,637.599C575.944,606.791 562.869,579.7 550.31,552.412C546.978,588.098 563.306,612.558 552.554,653.858C534.592,668.803 506.839,680.629 483.8,683.797C475.012,677.24 471.457,668.991 467.797,659.149C466.091,670.567 465.566,675.507 468.958,686.808C463.79,689.552 456.487,693.825 452.938,699.06C442.361,714.663 425.327,737.482 426.631,757.032C427.016,762.787 432.742,766.245 433.573,771.191C434.73,778.075 427.767,794.948 419.398,786.067C421.45,776.493 421.095,773.089 415.937,765.044C415.916,770.349 415.312,781.332 410.506,783.775C403.141,787.518 398.267,786.76 399.159,778.047C399.893,770.868 397.755,765.26 394.754,759.29C395.307,766.341 395.254,775.55 387.883,779.282C382.949,781.78 377.68,776.608 376.284,772.157C374.612,767.866 375.299,754.766 377.76,751.153C387.012,737.572 399.655,730.205 408.416,715.162C417.187,700.103 418.951,688.312 425.059,672.647C427.928,665.29 437.823,664.193 444.468,662.055C460.026,657.211 472.949,646.256 480.278,631.7L481.194,633.118C491.394,648.84 499.643,657.662 518.263,661.638C503.817,648.44 497.844,629.934 494.086,611.368C496.802,602.87 500.774,593.641 504.393,585.516C512.145,610.46 517.395,621.429 533.58,642.09C526.356,617.992 520.44,580.388 519.848,555.656C536.277,531.166 558.033,510.712 583.486,495.825C573.272,514.342 572.023,541.53 580.258,561.157C581.543,548.834 582.737,538.205 587.197,526.536C590.05,519.171 593.691,512.137 598.056,505.555C605.002,495.004 609.495,490.388 621.443,486.231C632.266,482.466 643.624,478.945 654.065,474.302L654.057,474.945C653.678,510.415 661.54,542.963 686.841,568.847C676.214,536.385 670.8,491.182 681.748,458.245C689.137,451.822 701.448,443.781 709.979,436.867C705.196,474.654 715.023,516.382 748.607,538.423C730.48,506.537 724.084,450.939 738.071,413.813C740.171,408.237 767.759,381.069 773.786,376.039C771.621,387.276 771.444,398.805 773.264,410.103C776.732,432.841 785.203,446.212 803.449,459.681C787.75,431.061 789.884,401.58 796.222,370.259C797.246,365.203 801.196,352.455 803.969,348.767C813.487,336.105 835.302,322.804 848.433,314.74C842.839,335.411 845.762,356.645 854.143,376.092C854.695,353.286 860.698,330.943 871.648,310.932C882.214,291.574 895.974,287.774 916.32,281.789C923.128,297.15 932.545,303.843 948.428,308.077C927.666,330.246 919.332,354.519 915.189,383.989C919.147,383.018 924.103,381.214 928.056,379.9C926.236,395.009 925.531,405.694 925.3,420.777C897.78,402.247 884.926,397.777 851.771,396.744C881.993,416.045 898.07,418.854 919.051,451.491C918.38,451.14 917.703,450.803 917.019,450.478C897.148,441.07 868.339,444.807 850.901,457.866C840.783,465.443 834.734,473.54 829.533,484.794C839.197,478.602 849.722,473.868 860.767,470.746C906.975,457.604 934.982,469.231 974.742,491.352C946.936,503.591 933.316,516.378 937.079,547.859C950.119,522.535 969.287,512.653 994.15,499.907C1005.29,503.692 1013.04,505.711 1024.6,507.891C1024.18,508.296 1023.77,508.706 1023.37,509.119C1011.07,521.684 1007.84,530.83 1008.05,547.745C1016.94,532.823 1031.58,519.939 1046.56,511.384C1070.69,515.148 1154.59,523.09 1171.37,533.18C1181.2,539.097 1186.05,549.754 1188.6,560.487C1182.37,561.927 1181.5,563.754 1178.33,569.063C1177.85,564.667 1176.58,561.23 1175.31,557.102C1166.54,528.465 1143.16,541.19 1121.18,541.855C1145.92,547.452 1157.13,537.615 1166.67,565.406C1159.47,565.837 1157.13,568.474 1154.94,575.358C1151.05,565.836 1148.52,559.555 1139,554.393C1128.89,553.972 1125.25,554.239 1115.8,558.534C1132.89,560.568 1138.94,562.82 1144.07,580.462C1142.11,578.45 1141.18,576.974 1138.48,576.667C1130.6,579.15 1132.63,589.131 1130.11,594.867C1127.46,594.914 1122.5,596.987 1119.35,597.059C1103.23,597.427 1099.36,589.33 1089.77,580.959C1080.65,573.008 1054.46,567.756 1042.32,566.25C1007.36,561.911 969.939,562.217 934.568,561.804C908.423,561.499 876.236,559.546 850.912,562.176C849.338,541.591 838.436,522.986 822.841,509.781C814.397,502.632 805.292,496.204 797.778,488.1C800.513,505.627 803.038,513.333 811.646,528.685C783.468,507.326 772.354,485.097 762.759,451.827C760.736,459.523 759.925,467.488 760.357,475.433C761.84,503.661 777.395,529.685 798.092,548.246C777.815,554.129 757.26,561.408 737.116,566.91C709.5,553.714 701.148,533.034 695.151,504.767C686.017,530.263 696.257,557.368 714.716,575.745C689.517,581.308 659.721,590.727 637.75,604.738ZM914.581,299.186C886.287,314.035 871.253,348.007 886.876,377.303C887.237,377.992 887.621,378.669 888.026,379.333L889.722,381.273C889.915,378.044 889.362,373.654 889.34,370.066C889.195,346.623 901.096,318.436 915.513,300.293L915.226,299.317L914.581,299.186ZM826.721,353.124C816.01,380.273 803.767,418.241 826.022,443.053L832.511,449.103C822.342,411.402 836.74,389.357 826.721,353.124ZM920.465,484.776C893.447,490.096 879.088,510.733 883.502,537.787C883.636,538.606 883.781,538.464 884.388,539.028C885.677,536.961 885.731,536.638 886.439,534.267C893.305,516.772 900.434,503.975 915.584,491.815C918.342,489.602 925.541,486.471 926.475,484.769C923.788,484.332 923.227,484.481 920.465,484.776ZM946.558,328.292C957.702,309.187 969.899,294.946 988.324,282.474C968.732,279.661 956.708,272.163 941.816,260.134C946.238,272.534 949.387,284.266 959.636,293.163C950.903,292.142 943.265,290.698 937.342,283.396C931.176,275.795 928.515,260.368 929.769,250.932C929.939,249.652 930.159,248.378 930.425,247.114C949.742,255.801 964.338,260.404 984.828,265.583C992.288,267.469 999.973,270.245 1007.56,271.771C1001.83,267.064 997.805,263.949 991.469,259.98C1003.07,262.045 1020.15,265.657 1031.31,266.781C1022.07,269.489 1020.22,270.52 1014.24,278.072C1033.84,269.846 1045.43,270.643 1066.27,276.318C1051.89,278.298 1045.82,279.876 1033.87,288.939C1070.27,281.606 1099.92,288.283 1115.83,324.75C1131.77,335.083 1149.34,346.047 1162.53,359.637C1156.3,360.119 1137.28,360.029 1132.37,361.129C1129.26,360.607 1125.68,357.316 1120.43,356.016C1069.55,333.004 1034.85,394.511 1041.33,439.801L1027.82,425.372C1016.74,394.814 980.848,393.297 981.41,356.485C981.758,333.658 986.875,307.476 1003.13,290.602C994.578,295.319 991.612,297.203 984.552,303.997C972.781,306.418 956.971,321.941 946.558,328.292ZM1034.37,310.303C1031.11,319.658 1031.52,326.247 1035.85,335.364C1038.46,340.848 1051.02,359.085 1057.98,356.859L1058.38,356.189C1059.94,353.612 1060.3,353.117 1062.97,351.445L1072.53,347.008C1061.91,340.791 1047.2,333.025 1040.07,323.034C1037.72,319.734 1036.51,313.443 1034.37,310.303ZM1100.92,322.563L1104.09,323.088L1104.97,322.243C1105.45,314.979 1098.81,309.758 1094.77,304.879C1090.66,299.914 1073.85,295.695 1071.82,302.848C1073.66,304.832 1079.39,306.442 1082.5,307.739C1073.48,306.842 1066.28,306.057 1057.18,306.187C1059.51,308.072 1061.68,309.52 1063,312.228L1062.81,313.625L1059.91,315.023C1060.14,316.795 1061.02,317.371 1062.29,318.667C1061.67,320.303 1061.29,320.614 1060.18,321.909C1063.97,323.958 1064,323.247 1067.45,323.938C1070.03,324.458 1075.12,331.641 1076.83,333.883C1074.61,326.251 1073.85,324.415 1074.37,316.438L1075.34,315.022C1077.81,314.85 1076.72,314.534 1078.72,315.997C1081.57,321.276 1080.34,328.876 1084.14,330.042C1087.46,328.311 1088.66,325.083 1090.42,321.708C1091.86,324.408 1093.72,327.331 1094.03,330.322C1093.44,331.91 1092.02,334.325 1091.85,335.702C1099.61,336.728 1109.23,338.44 1116.82,338.32C1112.61,334.314 1103.44,326.771 1100.92,322.563ZM1017.52,299.883C1006.49,310.998 1001,320.997 1000.94,337.138C1000.89,351.817 1005.86,368.397 1016.08,379.157C1022.12,385.518 1026.21,389.03 1031.43,396.296C1032.58,381.91 1036.97,384.686 1044.52,375.538C1029.27,363.924 1019.57,357.407 1015.94,337.162C1013.78,325.084 1018.43,308.701 1017.52,299.883ZM1178.27,488.517C1172.84,487.015 1165.64,487.977 1160.15,489.032C1144.35,492.066 1130.47,492.9 1114.39,492.581C1125.19,489.603 1131.13,487.939 1142.36,483.464C1159.13,477.122 1176.31,459.555 1194.33,458.39C1207.27,457.553 1205.36,478.552 1205.14,485.951C1203.29,483.134 1201.34,480.579 1199.32,477.888C1189.92,470.49 1181.92,480.255 1178.27,488.517ZM391.589,508.294C394.865,500.004 399.428,500.867 403.82,494.876C413.973,500.563 418.184,501.929 429.332,505.331C425.253,510.232 421.293,514.602 419.882,521.009C410.468,516.449 401.947,513.555 391.589,508.294ZM1213.46,481.98C1213.75,473.471 1213.94,468.824 1211.81,460.379C1217.45,460.873 1223.28,460.749 1227.32,465.452C1233.38,472.511 1228.67,486.913 1223.77,493.416C1225.06,483.54 1225.09,478.672 1213.46,481.98ZM363.758,470.634C369.079,470.184 376.494,470.398 382.01,470.409C384.963,475.538 386.662,477.604 390.352,482.081C385.92,485.213 382.194,487.795 378.078,491.387C376.159,493.985 375.024,496.952 373.719,499.914C370.046,494.321 360.61,477.799 361.606,471.657L363.758,470.634ZM445.021,519.854C447.711,516.727 450.381,513.581 453.03,510.419C462.134,511.102 469.429,511.526 478.533,511.513C476.404,514.456 473.775,517.893 472.011,520.998L445.021,519.854ZM1232.38,500.192C1236.96,491.992 1238.84,488.984 1241.31,480.149C1249.13,491.425 1247.93,501.49 1239.41,512.25C1240.31,507.797 1242.83,500.391 1238.67,497.552C1235.94,497.331 1234.73,498.595 1232.38,500.192ZM332.866,418.671C341.092,418.245 343.748,419.036 351.582,421.035C343.157,426.141 339.28,427.84 335.067,436.844L334.598,438.217C331.589,438.787 323.78,437.931 320.348,437.669C323.603,425.798 318.311,422.689 332.866,418.671ZM364.046,435.955L366.731,435.982C370.69,438.335 372.717,446.523 374.272,451.061C368.088,452.919 363.19,454.716 357.156,457.036C356.813,456.835 349.102,446.341 346.119,443.723C353.153,439.432 355.745,437.557 364.046,435.955ZM528.409,503.563L530.05,503.394C529.95,504.04 518.257,516.553 516.098,519.76L494.998,521.575L493.276,521.491C493.337,518.084 499.749,511.28 502.221,508.406C510.962,506.858 519.692,505.244 528.409,503.563ZM1058.06,405.507C1065.65,412.495 1064.77,424.841 1061.39,433.636L1060.26,433.956C1056.16,428.327 1056.94,412.26 1058.06,405.507Z" style="fill:rgb(229,120,10);"  data-color="color-1"/>
        <path d="M920.407,217.609C935.39,217.207 949.755,230.331 963.428,233.186C971.133,234.794 986.169,234.626 994.645,235.23C1022.56,237.218 1057.93,243.991 1082.38,258.042C1102.48,269.591 1128.98,286.124 1135.82,309.229C1151.77,321.043 1184.78,344.617 1187.7,365.41C1189.58,378.79 1174.36,394.507 1165.77,404.623C1158.37,413.326 1139.87,428.181 1128.47,432.318C1124.51,433.471 1120.66,433.832 1116.44,434.128C1114.19,443.849 1111.93,452.209 1109.17,461.742C1116.77,460.326 1125.43,458.53 1132.43,455.215C1151.74,446.065 1170.39,431.188 1192.93,432.212C1197.43,432.156 1204.81,435.606 1208.8,435.922C1227.61,437.415 1239.28,440.659 1250.05,457.291C1251.48,459.501 1257.48,463.627 1259.56,466.404C1275.03,487.1 1268.56,515.219 1249.63,531.309C1241.37,538.344 1231.29,542.444 1220.65,543.969C1219.31,544.16 1212.51,542.297 1210.03,542.129C1216.77,571.901 1209.72,590.419 1189.18,613.006L1181.77,609.44C1175.22,619.182 1171.32,622.298 1161.23,627.544L1156.33,622.814C1149.09,630.913 1145.38,632.668 1135.41,636.396C1133.13,632.819 1130.71,629.551 1128.21,626.133C1110.06,624.575 1093.3,623.121 1077.39,613.159C1073.12,610.484 1069.48,606.916 1065.28,604.147C1035.89,584.746 872.692,609.042 832.733,617.527L835.195,608.87L805.619,620.241L807.864,611.974C788.168,617.228 774.981,617.382 754.476,616.625C747.163,630.083 738.507,641.955 730.358,654.704C717.177,675.326 697.429,686.891 674.264,693.494C651.598,699.956 636.982,700.19 633.184,727.402C655.748,729.58 664.502,755.73 653.526,774.17C648.872,781.99 636.705,784.252 628.297,786.806C611.847,791.803 587.821,793.065 572.917,782.81C554.157,768.84 564.433,743.794 566.816,725.176C567.663,718.558 565.284,706.892 564.331,699.9C564.103,697.134 564.419,694.165 564.607,691.373C549.317,699.946 527.89,708.559 510.483,710.002C474.861,712.955 467.573,721.361 454.213,754.417C466.592,771.314 458.294,797.036 440.241,806.473C429.524,812.075 421.302,807.545 411.296,808.309C396.45,810.646 392.349,806.201 379.505,801.165C367.802,796.575 358.121,798.437 351.068,784.331C345.89,773.973 350.689,736.32 359.364,729.512C384.251,709.978 391.5,696.236 398.393,665.444C406.291,643.499 422.738,640.309 440.168,634.501C460.53,627.716 476.217,572.985 482.829,555.883C420.739,560.633 363.176,553.293 339.462,486.642C336.774,481.836 334.977,464.237 328.859,463.313C311.751,460.728 297.541,467.528 280.105,460.655C265.614,454.943 262.978,443.973 269.057,430.41C276.052,414.802 293.057,404.14 308.312,397.906C339.11,386.688 371.689,394.478 389.15,423.716C400.941,443.282 400.197,466.475 425.249,476.861C451.066,487.564 488.765,480.822 515.346,475.576C550.727,468.594 586.077,466.072 619.348,452.433C678.639,428.128 715.233,377.939 761.334,336.449C789.038,311.515 822.198,288.135 855.534,271.358C869.412,264.374 887.63,257.445 902.218,251.818C904.926,238.904 908.047,224.426 920.407,217.609ZM923.507,229.48C917.029,239.014 914.291,247.906 914.086,259.476C897.437,266.033 875.689,274.263 859.75,282.323C828.745,298.001 796.569,320.773 770.506,343.764C724.264,384.558 687.435,436.067 629.147,461.125C593.148,476.547 553.983,479.781 515.607,487.07C485.757,492.741 450.452,498.741 421.164,487.616C381.486,472.543 394.057,424.233 356.26,407.832C330.189,396.519 293.217,409.897 279.551,434.515C275.787,443.928 278.283,447.838 285.882,451.269C300.944,458.072 336.154,441.557 343.029,462.88C354.039,497.024 365.039,525.562 403.04,538.083C428.501,546.473 473.958,547.082 501.356,541.85C496.263,553.002 491.581,564.339 487.321,575.835C480.076,595.084 473.775,616.6 461.575,633.229C447.833,651.959 420.237,643.817 410.615,667.097C405.024,681.798 403.554,694.29 395.794,708.348C387.516,723.344 375,728.219 366.044,740.804C362.033,746.439 359.87,771.791 360.887,778.566C368.002,789.604 386.869,790.885 398.661,796.356C399.755,796.863 406.027,797.148 407.731,797.121C416.57,796.985 429.642,800.457 437.357,795.571C444.844,790.829 452.668,771.16 446.038,763.313C444.593,761.736 442.926,759.331 441.415,757.546C444.994,740.551 457.024,717.506 471.649,707.964C481.996,701.213 506.039,700.352 519.368,696.905C540.944,691.325 561.129,682.088 579.392,669.375C586.081,664.691 592.502,659.634 598.624,654.229C601.381,651.784 608.684,643.836 611.968,643.913C615.609,652.585 610.637,657.737 605.178,663.976C589.745,681.613 573.573,676.416 576.864,703.839C578.527,713.426 579.197,720.114 578.218,729.617C576.937,742.039 567.093,765.1 580.635,773.827C596.382,783.975 619.687,778.09 636.26,772.821C649.983,768.459 648.66,748.209 638.999,740.657C633.238,736.451 623.32,741.522 620.184,733.627C618.971,726.348 624.984,710.136 628.54,704.178C637.65,688.393 657.771,686.719 673.286,681.732C683.204,678.545 698.11,672.069 705.594,665.009C721.817,649.703 736.53,625.007 747.107,605.497C768.007,607.153 789.037,605.168 809.259,599.631C811.608,598.969 820.924,595.663 822.124,596.57C821.474,598.496 820.751,600.081 820.822,602.09C824.526,602.599 846.144,592.181 850.9,590.009L847.084,602.728C865.505,599.246 897.116,595.04 917.327,593.133C955.97,589.487 1042.64,575.698 1075.76,596.958C1096.77,610.449 1100.04,614.833 1130.31,613.484L1139.44,621.974C1146.94,617.387 1150.44,612.839 1154.84,605.216C1157.78,607.501 1161.33,610.112 1164.12,612.487C1170.8,606.145 1174.43,601.056 1178.4,592.696L1187.38,597.807C1203.51,573.57 1207.13,556.707 1191.79,530.575C1205.13,532.117 1212.87,532.153 1222.44,522.215L1222.16,532.937C1236.05,528.758 1246.7,522.491 1252.3,510.333C1261.63,490.056 1256.9,476.355 1240.01,463.691C1237.08,461.496 1234.17,452.579 1228.89,451.255C1222.16,447.544 1212.95,449.227 1206.56,447.267C1194.45,443.551 1189.22,440.912 1176.57,445.634C1166.96,449.221 1157.76,454.531 1148.82,459.686C1128.91,471.99 1112,472.711 1089.16,473.048C1097.12,460.897 1099.99,452.721 1103.84,438.824C1100.92,440.16 1098.3,441.723 1095.17,441.745L1094.08,440.907C1094.36,435.954 1096.62,433.186 1093.77,429.458C1089.22,432.452 1084.07,438.181 1077.67,436.858L1076.69,435.63C1079.51,419.247 1079.38,418.33 1076.15,401.375C1081.24,397.66 1087.33,392.416 1093.44,391.435C1096.35,392.646 1098.27,397.297 1098.76,400.33C1100.45,410.624 1094.33,419.199 1087.8,426.113C1097.15,426.235 1122.46,423.689 1129.85,419.374C1143.38,411.459 1174.43,382.721 1175.83,366.979C1177.05,353.186 1136.37,323.679 1125.57,316.267C1124.8,313.476 1123.38,308.273 1122.03,305.893C1113.85,291.418 1091.76,276.909 1077.62,268.775C1054.35,255.4 1021.3,248.556 994.709,246.93C984.608,246.312 969.94,246.405 960.636,244.612C948.721,242.317 935.833,232.268 923.507,229.48ZM1239.41,512.25C1235.91,517.279 1232.22,520.098 1227.34,523.652C1231.66,515.881 1231.48,515.498 1228.1,507.177C1228.7,503.689 1229.82,503.351 1232.38,500.192C1234.73,498.595 1235.94,497.331 1238.67,497.552C1242.83,500.391 1240.31,507.797 1239.41,512.25ZM472.011,520.998C470.958,523.662 470.067,524.799 466.952,525.01C461.411,525.385 447.659,527.67 443.218,524.35C443.098,521.812 443.259,522.477 445.021,519.854L472.011,520.998ZM1144.07,580.462C1145.69,590.17 1146.26,593.962 1142.86,603.342C1138.28,598.756 1136.05,597.533 1130.11,594.867C1132.63,589.131 1130.6,579.15 1138.48,576.667C1141.18,576.974 1142.11,578.45 1144.07,580.462ZM798.092,548.246L805.281,554.31C794.526,559.73 786.662,563.048 775.245,566.88C781.762,567.051 788.65,567.132 795.126,567.514C779.545,575.097 756.367,573.663 740.456,568.128C739.337,567.739 738.223,567.332 737.116,566.91C757.26,561.408 777.815,554.129 798.092,548.246ZM1107.29,396.518C1111.91,400.046 1115.28,401.694 1120.68,403.719C1117.22,407.437 1115.78,409.098 1111.69,411.994C1109.32,413.509 1105.3,415.469 1102.68,416.833C1105.87,408.705 1106.45,404.971 1107.29,396.518ZM1082.21,444.365L1082.45,444.577C1083.9,449.355 1085.79,448.887 1090.28,450.532L1090.2,452.205C1087.18,455.542 1081.75,456.353 1077.58,454.922C1073.79,453.649 1069.17,452.317 1066.56,449.247L1067.06,448.1C1070.38,446.489 1077.31,445.825 1082.21,444.365ZM1082.5,307.739C1079.39,306.442 1073.66,304.832 1071.82,302.848C1073.85,295.695 1090.66,299.914 1094.77,304.879C1098.81,309.758 1105.45,314.979 1104.97,322.243L1104.09,323.088L1100.92,322.563C1096.1,313.331 1092.1,310.944 1082.5,307.739ZM1132.37,361.129C1170.87,376.979 1142.42,405.259 1114.58,390.187C1108.99,387.163 1083.83,373.625 1087.4,366.548C1093.36,363.97 1111.6,370.425 1118.64,372.497C1109.75,363.656 1105.98,361.555 1094.85,356.651C1108.58,356.045 1113.18,357.2 1126.04,361.652L1120.43,356.016C1125.68,357.316 1129.26,360.607 1132.37,361.129ZM419.882,521.009L418.035,522.746C411.692,523.502 395.444,517.438 390.032,513.762C389.44,512.231 390.771,510.254 391.589,508.294C401.947,513.555 410.468,516.449 419.882,521.009ZM978.024,448.829C993.036,446.799 1005.58,451.642 1012.65,465.265C1005.51,464.92 999.999,464.354 992.9,463.451C981.893,462.171 967.533,460.264 956.755,457.866C964.759,452.045 968.303,450.365 978.024,448.829ZM1076.83,333.883L1068.44,312.429L1077.19,311.457L1091.72,316.33L1101.23,328.236L1091.85,335.702C1085.88,337.953 1080.75,337.74 1076.83,333.883ZM714.716,575.745C720.009,579.826 722.857,581.549 728.637,584.869C703.586,586.428 677.018,592.924 653.147,600.763C650.182,601.737 638.79,606.865 636.962,606.494L637.75,604.738C659.721,590.727 689.517,581.308 714.716,575.745ZM1188.6,560.487C1188.83,568.797 1187.9,572.454 1184.28,580.004C1182.18,573.411 1181.6,574.528 1178.33,569.063C1181.5,563.754 1182.37,561.927 1188.6,560.487ZM1041.33,439.801C1047.64,456.587 1063.42,460.308 1079.28,464.372C1079,464.874 1078.72,465.373 1078.44,465.866C1072.18,476.808 1062.35,479.619 1050.8,482.595C1053.29,478.87 1055.42,475.009 1057.63,471.115C1049.59,473.816 1041.17,474.706 1032.79,475.889C1033.32,442.856 1006.44,427.032 980.169,413.237C969.428,407.597 957.119,405.111 945.46,409.388C941.677,388.01 947.199,366.327 953.74,346.102C945.317,352.813 941.748,356.309 931.095,358.369C935.546,349.899 941.198,335.636 946.558,328.292C956.971,321.941 972.781,306.418 984.552,303.997C970.564,321.997 960.994,341.842 963.802,365.49C965.453,380.125 973.026,393.444 984.757,402.344C991.66,407.673 1000.21,411.909 1007.38,416.846C1016.3,422.986 1024.23,432.609 1031.23,440.916L1027.82,425.372L1041.33,439.801ZM1199.32,477.888C1200.72,489.641 1200.48,493.428 1193.17,502.728C1187.77,496.257 1185.8,491.649 1178.27,488.517C1181.92,480.255 1189.92,470.49 1199.32,477.888ZM1223.77,493.416C1219.48,501.826 1217.29,504.32 1210.89,510.9C1211.82,503.553 1212.9,500.459 1210.17,493.501L1213.46,481.98C1225.09,478.672 1225.06,483.54 1223.77,493.416ZM1166.67,565.406C1168.73,577.978 1170.57,581.362 1164.5,592.346C1160.02,580.462 1154.64,584.11 1154.94,575.358C1157.13,568.474 1159.47,565.837 1166.67,565.406Z" style="fill:white;"/>
        <path d="M923.507,229.48C935.833,232.268 948.721,242.317 960.636,244.612C969.94,246.405 984.608,246.312 994.709,246.93C1021.3,248.556 1054.35,255.4 1077.62,268.775C1091.76,276.909 1113.85,291.418 1122.03,305.893C1123.38,308.273 1124.8,313.476 1125.57,316.267C1136.37,323.679 1177.05,353.186 1175.83,366.979C1174.43,382.721 1143.38,411.459 1129.85,419.374C1122.46,423.689 1097.15,426.235 1087.8,426.113C1094.33,419.199 1100.45,410.624 1098.76,400.33C1098.27,397.297 1096.35,392.646 1093.44,391.435C1087.33,392.416 1081.24,397.66 1076.15,401.375C1079.38,418.33 1079.51,419.247 1076.69,435.63L1077.67,436.858C1084.07,438.181 1089.22,432.452 1093.77,429.458C1096.62,433.186 1094.36,435.954 1094.08,440.907L1095.17,441.745C1098.3,441.723 1100.92,440.16 1103.84,438.824C1099.99,452.721 1097.12,460.897 1089.16,473.048C1112,472.711 1128.91,471.99 1148.82,459.686C1157.76,454.531 1166.96,449.221 1176.57,445.634C1189.22,440.912 1194.45,443.551 1206.56,447.267C1212.95,449.227 1222.16,447.544 1228.89,451.255C1234.17,452.579 1237.08,461.496 1240.01,463.691C1256.9,476.355 1261.63,490.056 1252.3,510.333C1246.7,522.491 1236.05,528.758 1222.16,532.937L1222.44,522.215C1212.87,532.153 1205.13,532.117 1191.79,530.575C1207.13,556.707 1203.51,573.57 1187.38,597.807L1178.4,592.696C1174.43,601.056 1170.8,606.145 1164.12,612.487C1161.33,610.112 1157.78,607.501 1154.84,605.216C1150.44,612.839 1146.94,617.387 1139.44,621.974L1130.31,613.484C1100.04,614.833 1096.77,610.449 1075.76,596.958C1042.64,575.698 955.97,589.487 917.327,593.133C897.116,595.04 865.505,599.246 847.084,602.728L850.9,590.009C846.144,592.181 824.526,602.599 820.822,602.09C820.751,600.081 821.474,598.496 822.124,596.57C820.924,595.663 811.608,598.969 809.259,599.631C789.037,605.168 768.007,607.153 747.107,605.497C736.53,625.007 721.817,649.703 705.594,665.009C698.11,672.069 683.204,678.545 673.286,681.732C657.771,686.719 637.65,688.393 628.54,704.178C624.984,710.136 618.971,726.348 620.184,733.627C623.32,741.522 633.238,736.451 638.999,740.657C648.66,748.209 649.983,768.459 636.26,772.821C619.687,778.09 596.382,783.975 580.635,773.827C567.093,765.1 576.937,742.039 578.218,729.617C579.197,720.114 578.527,713.426 576.864,703.839C573.573,676.416 589.745,681.613 605.178,663.976C610.637,657.737 615.609,652.585 611.968,643.913C608.684,643.836 601.381,651.784 598.624,654.229C592.502,659.634 586.081,664.691 579.392,669.375C561.129,682.088 540.944,691.325 519.368,696.905C506.039,700.352 481.996,701.213 471.649,707.964C457.024,717.506 444.994,740.551 441.415,757.546C442.926,759.331 444.593,761.736 446.038,763.313C452.668,771.16 444.844,790.829 437.357,795.571C429.642,800.457 416.57,796.985 407.731,797.121C406.027,797.148 399.755,796.863 398.661,796.356C386.869,790.885 368.002,789.604 360.887,778.566C359.87,771.791 362.033,746.439 366.044,740.804C375,728.219 387.516,723.344 395.794,708.348C403.554,694.29 405.024,681.798 410.615,667.097C420.237,643.817 447.833,651.959 461.575,633.229C473.775,616.6 480.076,595.084 487.321,575.835C491.581,564.339 496.263,553.002 501.356,541.85C473.958,547.082 428.501,546.473 403.04,538.083C365.039,525.562 354.039,497.024 343.029,462.88C336.154,441.557 300.944,458.072 285.882,451.269C278.283,447.838 275.787,443.928 279.551,434.515C293.217,409.897 330.189,396.519 356.26,407.832C394.057,424.233 381.486,472.543 421.164,487.616C450.452,498.741 485.757,492.741 515.607,487.07C553.983,479.781 593.148,476.547 629.147,461.125C687.435,436.067 724.264,384.558 770.506,343.764C796.569,320.773 828.745,298.001 859.75,282.323C875.689,274.263 897.437,266.033 914.086,259.476C914.291,247.906 917.029,239.014 923.507,229.48ZM1223.77,493.416C1228.67,486.913 1233.38,472.511 1227.32,465.452C1223.28,460.749 1217.45,460.873 1211.81,460.379C1213.94,468.824 1213.75,473.471 1213.46,481.98L1210.17,493.501C1212.9,500.459 1211.82,503.553 1210.89,510.9C1217.29,504.32 1219.48,501.826 1223.77,493.416ZM332.866,418.671C318.311,422.689 323.603,425.798 320.348,437.669C323.78,437.931 331.589,438.787 334.598,438.217L335.067,436.844C339.28,427.84 343.157,426.141 351.582,421.035C343.748,419.036 341.092,418.245 332.866,418.671ZM637.75,604.738L636.962,606.494C638.79,606.865 650.182,601.737 653.147,600.763C677.018,592.924 703.586,586.428 728.637,584.869C722.857,581.549 720.009,579.826 714.716,575.745C696.257,557.368 686.017,530.263 695.151,504.767C701.148,533.034 709.5,553.714 737.116,566.91C738.223,567.332 739.337,567.739 740.456,568.128C756.367,573.663 779.545,575.097 795.126,567.514C788.65,567.132 781.762,567.051 775.245,566.88C786.662,563.048 794.526,559.73 805.281,554.31L798.092,548.246C777.395,529.685 761.84,503.661 760.357,475.433C759.925,467.488 760.736,459.523 762.759,451.827C772.354,485.097 783.468,507.326 811.646,528.685C803.038,513.333 800.513,505.627 797.778,488.1C805.292,496.204 814.397,502.632 822.841,509.781C838.436,522.986 849.338,541.591 850.912,562.176C876.236,559.546 908.423,561.499 934.568,561.804C969.939,562.217 1007.36,561.911 1042.32,566.25C1054.46,567.756 1080.65,573.008 1089.77,580.959C1099.36,589.33 1103.23,597.427 1119.35,597.059C1122.5,596.987 1127.46,594.914 1130.11,594.867C1136.05,597.533 1138.28,598.756 1142.86,603.342C1146.26,593.962 1145.69,590.17 1144.07,580.462C1138.94,562.82 1132.89,560.568 1115.8,558.534C1125.25,554.239 1128.89,553.972 1139,554.393C1148.52,559.555 1151.05,565.836 1154.94,575.358C1154.64,584.11 1160.02,580.462 1164.5,592.346C1170.57,581.362 1168.73,577.978 1166.67,565.406C1157.13,537.615 1145.92,547.452 1121.18,541.855C1143.16,541.19 1166.54,528.465 1175.31,557.102C1176.58,561.23 1177.85,564.667 1178.33,569.063C1181.6,574.528 1182.18,573.411 1184.28,580.004C1187.9,572.454 1188.83,568.797 1188.6,560.487C1186.05,549.754 1181.2,539.097 1171.37,533.18C1154.59,523.09 1070.69,515.148 1046.56,511.384C1031.58,519.939 1016.94,532.823 1008.05,547.745C1007.84,530.83 1011.07,521.684 1023.37,509.119C1023.77,508.706 1024.18,508.296 1024.6,507.891C1013.04,505.711 1005.29,503.692 994.15,499.907C969.287,512.653 950.119,522.535 937.079,547.859C933.316,516.378 946.936,503.591 974.742,491.352C934.982,469.231 906.975,457.604 860.767,470.746C849.722,473.868 839.197,478.602 829.533,484.794C834.734,473.54 840.783,465.443 850.901,457.866C868.339,444.807 897.148,441.07 917.019,450.478C917.703,450.803 918.38,451.14 919.051,451.491C898.07,418.854 881.993,416.045 851.771,396.744C884.926,397.777 897.78,402.247 925.3,420.777C925.531,405.694 926.236,395.009 928.056,379.9C924.103,381.214 919.147,383.018 915.189,383.989C919.332,354.519 927.666,330.246 948.428,308.077C932.545,303.843 923.128,297.15 916.32,281.789C895.974,287.774 882.214,291.574 871.648,310.932C860.698,330.943 854.695,353.286 854.143,376.092C845.762,356.645 842.839,335.411 848.433,314.74C835.302,322.804 813.487,336.105 803.969,348.767C801.196,352.455 797.246,365.203 796.222,370.259C789.884,401.58 787.75,431.061 803.449,459.681C785.203,446.212 776.732,432.841 773.264,410.103C771.444,398.805 771.621,387.276 773.786,376.039C767.759,381.069 740.171,408.237 738.071,413.813C724.084,450.939 730.48,506.537 748.607,538.423C715.023,516.382 705.196,474.654 709.979,436.867C701.448,443.781 689.137,451.822 681.748,458.245C670.8,491.182 676.214,536.385 686.841,568.847C661.54,542.963 653.678,510.415 654.057,474.945L654.065,474.302C643.624,478.945 632.266,482.466 621.443,486.231C609.495,490.388 605.002,495.004 598.056,505.555C593.691,512.137 590.05,519.171 587.197,526.536C582.737,538.205 581.543,548.834 580.258,561.157C572.023,541.53 573.272,514.342 583.486,495.825C558.033,510.712 536.277,531.166 519.848,555.656C520.44,580.388 526.356,617.992 533.58,642.09C517.395,621.429 512.145,610.46 504.393,585.516C500.774,593.641 496.802,602.87 494.086,611.368C497.844,629.934 503.817,648.44 518.263,661.638C499.643,657.662 491.394,648.84 481.194,633.118L480.278,631.7C472.949,646.256 460.026,657.211 444.468,662.055C437.823,664.193 427.928,665.29 425.059,672.647C418.951,688.312 417.187,700.103 408.416,715.162C399.655,730.205 387.012,737.572 377.76,751.153C375.299,754.766 374.612,767.866 376.284,772.157C377.68,776.608 382.949,781.78 387.883,779.282C395.254,775.55 395.307,766.341 394.754,759.29C397.755,765.26 399.893,770.868 399.159,778.047C398.267,786.76 403.141,787.518 410.506,783.775C415.312,781.332 415.916,770.349 415.937,765.044C421.095,773.089 421.45,776.493 419.398,786.067C427.767,794.948 434.73,778.075 433.573,771.191C432.742,766.245 427.016,762.787 426.631,757.032C425.327,737.482 442.361,714.663 452.938,699.06C456.487,693.825 463.79,689.552 468.958,686.808C465.566,675.507 466.091,670.567 467.797,659.149C471.457,668.991 475.012,677.24 483.8,683.797C506.839,680.629 534.592,668.803 552.554,653.858C563.306,612.558 546.978,588.098 550.31,552.412C562.869,579.7 575.944,606.791 571.953,637.599C608.8,602.465 621.682,559.031 622.872,509.612L622.925,507.338C627.448,516.9 631.91,526.492 636.31,536.111C646.973,559.703 649.825,571.823 640.708,597.375C639.795,599.858 638.808,602.314 637.75,604.738ZM826.721,353.124C836.74,389.357 822.342,411.402 832.511,449.103L826.022,443.053C803.767,418.241 816.01,380.273 826.721,353.124ZM914.581,299.186L915.226,299.317L915.513,300.293C901.096,318.436 889.195,346.623 889.34,370.066C889.362,373.654 889.915,378.044 889.722,381.273L888.026,379.333C887.621,378.669 887.237,377.992 886.876,377.303C871.253,348.007 886.287,314.035 914.581,299.186ZM920.465,484.776C923.227,484.481 923.788,484.332 926.475,484.769C925.541,486.471 918.342,489.602 915.584,491.815C900.434,503.975 893.305,516.772 886.439,534.267C885.731,536.638 885.677,536.961 884.388,539.028C883.781,538.464 883.636,538.606 883.502,537.787C879.088,510.733 893.447,490.096 920.465,484.776ZM978.024,448.829C968.303,450.365 964.759,452.045 956.755,457.866C967.533,460.264 981.893,462.171 992.9,463.451C999.999,464.354 1005.51,464.92 1012.65,465.265C1005.58,451.642 993.036,446.799 978.024,448.829ZM472.011,520.998C473.775,517.893 476.404,514.456 478.533,511.513C469.429,511.526 462.134,511.102 453.03,510.419C450.381,513.581 447.711,516.727 445.021,519.854C443.259,522.477 443.098,521.812 443.218,524.35C447.659,527.67 461.411,525.385 466.952,525.01C470.067,524.799 470.958,523.662 472.011,520.998ZM946.558,328.292C941.198,335.636 935.546,349.899 931.095,358.369C941.748,356.309 945.317,352.813 953.74,346.102C947.199,366.327 941.677,388.01 945.46,409.388C957.119,405.111 969.428,407.597 980.169,413.237C1006.44,427.032 1033.32,442.856 1032.79,475.889C1041.17,474.706 1049.59,473.816 1057.63,471.115C1055.42,475.009 1053.29,478.87 1050.8,482.595C1062.35,479.619 1072.18,476.808 1078.44,465.866C1078.72,465.373 1079,464.874 1079.28,464.372C1063.42,460.308 1047.64,456.587 1041.33,439.801C1034.85,394.511 1069.55,333.004 1120.43,356.016L1126.04,361.652C1113.18,357.2 1108.58,356.045 1094.85,356.651C1105.98,361.555 1109.75,363.656 1118.64,372.497C1111.6,370.425 1093.36,363.97 1087.4,366.548C1083.83,373.625 1108.99,387.163 1114.58,390.187C1142.42,405.259 1170.87,376.979 1132.37,361.129C1137.28,360.029 1156.3,360.119 1162.53,359.637C1149.34,346.047 1131.77,335.083 1115.83,324.75C1099.92,288.283 1070.27,281.606 1033.87,288.939C1045.82,279.876 1051.89,278.298 1066.27,276.318C1045.43,270.643 1033.84,269.846 1014.24,278.072C1020.22,270.52 1022.07,269.489 1031.31,266.781C1020.15,265.657 1003.07,262.045 991.469,259.98C997.805,263.949 1001.83,267.064 1007.56,271.771C999.973,270.245 992.288,267.469 984.828,265.583C964.338,260.404 949.742,255.801 930.425,247.114C930.159,248.378 929.939,249.652 929.769,250.932C928.515,260.368 931.176,275.795 937.342,283.396C943.265,290.698 950.903,292.142 959.636,293.163C949.387,284.266 946.238,272.534 941.816,260.134C956.708,272.163 968.732,279.661 988.324,282.474C969.899,294.946 957.702,309.187 946.558,328.292ZM1034.37,310.303C1036.51,313.443 1037.72,319.734 1040.07,323.034C1047.2,333.025 1061.91,340.791 1072.53,347.008L1062.97,351.445C1060.3,353.117 1059.94,353.612 1058.38,356.189L1057.98,356.859C1051.02,359.085 1038.46,340.848 1035.85,335.364C1031.52,326.247 1031.11,319.658 1034.37,310.303ZM1100.92,322.563C1103.44,326.771 1112.61,334.314 1116.82,338.32C1109.23,338.44 1099.61,336.728 1091.85,335.702C1092.02,334.325 1093.44,331.91 1094.03,330.322C1093.72,327.331 1091.86,324.408 1090.42,321.708C1088.66,325.083 1087.46,328.311 1084.14,330.042C1080.34,328.876 1081.57,321.276 1078.72,315.997C1076.72,314.534 1077.81,314.85 1075.34,315.022L1074.37,316.438C1073.85,324.415 1074.61,326.251 1076.83,333.883C1075.12,331.641 1070.03,324.458 1067.45,323.938C1064,323.247 1063.97,323.958 1060.18,321.909C1061.29,320.614 1061.67,320.303 1062.29,318.667C1061.02,317.371 1060.14,316.795 1059.91,315.023L1062.81,313.625L1063,312.228C1061.68,309.52 1059.51,308.072 1057.18,306.187C1066.28,306.057 1073.48,306.842 1082.5,307.739C1092.1,310.944 1096.1,313.331 1100.92,322.563ZM984.552,303.997C991.612,297.203 994.578,295.319 1003.13,290.602C986.875,307.476 981.758,333.658 981.41,356.485C980.848,393.297 1016.74,394.814 1027.82,425.372L1031.23,440.916C1024.23,432.609 1016.3,422.986 1007.38,416.846C1000.21,411.909 991.66,407.673 984.757,402.344C973.026,393.444 965.453,380.125 963.802,365.49C960.994,341.842 970.564,321.997 984.552,303.997ZM1017.52,299.883C1018.43,308.701 1013.78,325.084 1015.94,337.162C1019.57,357.407 1029.27,363.924 1044.52,375.538C1036.97,384.686 1032.58,381.91 1031.43,396.296C1026.21,389.03 1022.12,385.518 1016.08,379.157C1005.86,368.397 1000.89,351.817 1000.94,337.138C1001,320.997 1006.49,310.998 1017.52,299.883ZM363.758,470.634L361.606,471.657C360.61,477.799 370.046,494.321 373.719,499.914C375.024,496.952 376.159,493.985 378.078,491.387C382.194,487.795 385.92,485.213 390.352,482.081C386.662,477.604 384.963,475.538 382.01,470.409C376.494,470.398 369.079,470.184 363.758,470.634ZM1058.06,405.507C1056.94,412.26 1056.16,428.327 1060.26,433.956L1061.39,433.636C1064.77,424.841 1065.65,412.495 1058.06,405.507ZM528.409,503.563C519.692,505.244 510.962,506.858 502.221,508.406C499.749,511.28 493.337,518.084 493.276,521.491L494.998,521.575L516.098,519.76C518.257,516.553 529.95,504.04 530.05,503.394L528.409,503.563ZM364.046,435.955C355.745,437.557 353.153,439.432 346.119,443.723C349.102,446.341 356.813,456.835 357.156,457.036C363.19,454.716 368.088,452.919 374.272,451.061C372.717,446.523 370.69,438.335 366.731,435.982L364.046,435.955ZM1082.21,444.365C1077.31,445.825 1070.38,446.489 1067.06,448.1L1066.56,449.247C1069.17,452.317 1073.79,453.649 1077.58,454.922C1081.75,456.353 1087.18,455.542 1090.2,452.205L1090.28,450.532C1085.79,448.887 1083.9,449.355 1082.45,444.577L1082.21,444.365ZM1178.27,488.517C1185.8,491.649 1187.77,496.257 1193.17,502.728C1200.48,493.428 1200.72,489.641 1199.32,477.888C1201.34,480.579 1203.29,483.134 1205.14,485.951C1205.36,478.552 1207.27,457.553 1194.33,458.39C1176.31,459.555 1159.13,477.122 1142.36,483.464C1131.13,487.939 1125.19,489.603 1114.39,492.581C1130.47,492.9 1144.35,492.066 1160.15,489.032C1165.64,487.977 1172.84,487.015 1178.27,488.517ZM1107.29,396.518C1106.45,404.971 1105.87,408.705 1102.68,416.833C1105.3,415.469 1109.32,413.509 1111.69,411.994C1115.78,409.098 1117.22,407.437 1120.68,403.719C1115.28,401.694 1111.91,400.046 1107.29,396.518ZM419.882,521.009C421.293,514.602 425.253,510.232 429.332,505.331C418.184,501.929 413.973,500.563 403.82,494.876C399.428,500.867 394.865,500.004 391.589,508.294C390.771,510.254 389.44,512.231 390.032,513.762C395.444,517.438 411.692,523.502 418.035,522.746L419.882,521.009ZM1239.41,512.25C1247.93,501.49 1249.13,491.425 1241.31,480.149C1238.84,488.984 1236.96,491.992 1232.38,500.192C1229.82,503.351 1228.7,503.689 1228.1,507.177C1231.48,515.498 1231.66,515.881 1227.34,523.652C1232.22,520.098 1235.91,517.279 1239.41,512.25Z" style="fill:rgb(0,37,79);"  data-color="color-2"/>
    </g>
</svg>
