<?xml version="1.0" encoding="UTF-8" standalone="no"?>
<!DOCTYPE svg PUBLIC "-//W3C//DTD SVG 1.1//EN" "http://www.w3.org/Graphics/SVG/1.1/DTD/svg11.dtd">
<svg width="100%" height="100%" viewBox="0 0 756 890" version="1.1" xmlns="http://www.w3.org/2000/svg" xmlns:xlink="http://www.w3.org/1999/xlink" xml:space="preserve" xmlns:serif="http://www.serif.com/" style="fill-rule:evenodd;clip-rule:evenodd;stroke-linejoin:round;stroke-miterlimit:2;">
    <g transform="matrix(1,0,0,1,-134.222,-38.9149)">
        <path d="M178.642,82.409C179.462,83.173 180.513,85.712 181.037,86.846C184.996,95.638 189.561,104.145 194.699,112.305C203.672,126.268 216.496,141.735 228.068,153.599C285.65,212.632 355.403,249.196 405.313,316.437C421.817,313.612 436.088,309.861 453.426,307.487C504.39,300.511 570.865,301.845 620.32,316.985C626.161,307.601 644.151,287.525 652.228,279.327C713.128,217.511 812.758,165.588 845.309,81.435C847.47,108.13 843.976,120.647 836.899,145.417C845.241,139.686 853.42,133.722 861.426,127.533C857.957,134.506 854.877,142.493 851.319,149.75C843.708,165.275 835.604,176.7 825.337,190.465C830.959,207.924 833.558,226.665 835.144,244.865C839.909,299.551 833.718,350.138 810.46,399.991C814.117,419.087 809.898,444.142 799.975,460.889C796.005,467.591 789.783,474.902 784.864,481.016C785.157,481.442 785.447,481.871 785.734,482.303C798.638,501.792 808.526,524.289 816.036,546.365C835.544,603.714 842.061,664.057 830.079,723.664C824.021,713.09 813.656,696.604 806.758,686.932C804.376,722.687 802.193,742.127 786.276,775.141C764.007,819.89 730.417,854.934 690.229,884.07C694.094,862.788 695.213,830.349 681.234,812.586C667.876,795.611 648.386,804.639 635.415,816.364C624.649,826.096 614.716,836.862 604.335,847.035C577.736,872.771 546.325,896.889 512.667,912.651C481.537,896.479 452.817,876.041 427.338,851.927C414.294,839.408 402.363,825.78 388.209,814.533C378.308,806.667 363.089,798.647 354.017,812.353C339.749,833.908 341.663,865.627 345.287,890.09C337.735,885.269 330.389,880.134 323.267,874.698C275.517,838.223 235.213,788.081 222.253,728.281C219.308,714.694 219.663,701.782 217.885,688.409C211.257,697.124 201.107,713.934 194.831,723.698C178.437,654.106 194.561,571.561 224.869,507.636C228.958,499.01 234.491,489.714 239.442,481.508C223.538,460.357 214.566,443.972 214.183,416.649C214.138,413.454 215.441,404.719 214.826,402.256C213.343,396.32 209.77,389.371 207.378,383.53C203.905,375.039 200.915,366.358 198.423,357.529C183.462,303.466 186.169,243.165 200.613,189.313C182.65,168.173 173.794,151.211 162.7,126.404C171.053,132.685 179.906,138.544 188.585,144.382C180.484,118.872 177.717,109.547 178.642,82.409ZM737.129,520.279C734.555,516.106 731.352,512.618 728.704,508.265L738.812,518.471C764.822,543.09 786.297,572.093 802.255,604.153C807.753,614.934 812.198,625.423 817.323,636.221C807.316,584.989 788.857,535.779 762.703,490.604C752.17,472.673 741.805,457.944 729.763,441.149C747.968,418.815 754.739,402.151 755.568,373.447C747.817,379.652 741.697,383.044 733.133,388.068C738.711,365.687 751.598,342.717 764.209,323.51C728.248,342.163 702.622,382.584 713.417,423.615C707.388,415.759 693.948,401.44 689.561,394.582C687.693,368.896 694.9,353.262 706.497,331.294C734.017,279.162 794.089,240.113 806.49,180.273C801.712,184.146 792.351,194.641 787.786,199.371C778.647,208.747 769.281,217.898 759.695,226.816C746.418,239.099 732.947,251.171 719.287,263.027C681.917,295.646 658.445,317.084 636.627,362.154C627.964,354.816 619.476,349.947 609.719,344.443L614.6,339.703C564.251,322.148 510.268,317.665 457.713,326.676C448.842,328.214 438.487,330.188 429.931,332.865C434.282,332.968 438.632,333.093 442.982,333.241C421.698,340.43 407.366,348.061 389.215,360.861C369.086,314.561 328.001,279.778 290.576,247.77C275.007,234.666 259.886,221.04 245.239,206.913C239.678,201.528 234.21,196.098 228.787,190.575C226.583,188.331 222.023,182.009 219.285,181.43L218.774,183.034C207.299,243.686 201.037,305.484 220.96,365.223C225.229,378.024 230.763,388.938 236.67,401.046C234.491,426.107 235.189,436.666 252.485,457.229C254.059,459.122 255.677,460.979 257.338,462.797C266.195,449.823 277.254,438.832 285.217,427.007C279.609,418.779 273.652,411.037 268.127,402.992C269.184,397.826 268.538,376.896 267.969,371.337C275.579,376.924 284.725,384.553 291.875,390.762C290.403,383.296 288.91,374.807 286.63,367.631C281.592,351.776 269.426,333.66 259.175,320.416C269.987,324.654 287.492,331.824 296.786,338.634L273.214,293.978C270.368,288.669 257.808,267.308 258.155,262.325C285.1,293.784 314.896,324.345 327.301,364.919C330.232,374.507 332.535,386.99 331.633,397.066C331.573,397.778 331.493,398.488 331.39,399.194L331.067,399.639C327.355,404.663 321.116,411.508 316.932,416.399C308.39,426.252 300.156,436.368 292.242,446.731C256.133,494.684 231.182,542.993 215.824,601.362C213.314,610.901 209.886,624.885 208.742,634.63C206.378,644.148 205.499,658.494 204.726,668.325C214.396,645.275 232.325,624.283 252.283,609.541C233.647,660.96 236.551,715.22 255.017,766.141C254.541,729.354 263.477,689.94 285.956,660.177C273.399,717.056 285.04,780.486 316.412,829.523C316.817,830.161 317.228,830.794 317.646,831.424C318.42,833.299 319.183,835.481 319.909,837.404C319.945,803.433 331.819,782.248 352.31,756.743C350.719,765.465 350.913,770.433 351.113,779.237C374.98,772.426 405.45,799.887 421.149,815.846C408.91,785.138 398.039,763.008 367.968,746.611C372.541,744.457 377.298,742.721 382.183,741.424C377.634,733.744 374.329,725.268 371.04,716.997C363.874,715.935 352.933,715.492 345.511,715.05L313.22,712.925C311.797,712.908 311.307,712.833 309.892,712.608C310.715,711.756 312.309,711.684 313.73,711.361C331.749,707.097 349.338,706.002 367.735,705.939C366.185,698.871 365.395,693.394 364.952,686.192C354.421,682.369 339.74,680.534 328.574,678.213C324.984,677.727 322.066,677.215 318.512,676.498C322.8,676.066 327.603,675.145 331.895,674.423C338.22,673.574 346.092,673.031 352.537,672.49C357.076,672.567 360.822,672.091 365.821,672.311C367.405,660.919 369.767,656.601 376.06,646.899C382.872,638.818 390.86,633.833 399.473,627.79C400.33,627.212 401.18,626.622 402.023,626.021C422.868,611.129 431.58,596.855 435.669,572.47C421.831,578.2 409.058,581.206 394.062,579.454C376.28,577.291 360.102,568.109 349.128,553.951C336.003,537.226 335.01,521.222 337.438,501.096C321.709,499.716 316.758,499.902 301.063,501.624C305.43,497.745 317.282,491.657 322.429,489.359C340.039,483.017 353.919,483.448 372.482,486.199C381.621,489.979 390.133,494.119 398.461,499.507C408.51,506.008 450.535,540.909 460.004,537.862C460.566,537.681 460.931,537.397 461.401,537.08L461.479,536.272C459.854,534.422 456.666,532.602 454.459,530.644C450.339,526.988 446.331,523.303 442.429,519.407C431.517,503.773 429.015,492.644 423.664,474.94C417.743,455.352 407.808,430.683 392.974,416.437C417.563,429.5 437.108,447.661 449.347,472.932C457.66,490.096 461.877,511.743 473.732,526.857C480.675,518.111 482.508,514.728 486.614,504.615C487.26,510.522 487.959,515.663 487.129,521.617C484.986,536.99 475.384,547.346 460.61,551.272C464.958,559.528 463.257,569.327 460.666,577.905C454.33,598.88 438.255,615.23 421.007,627.918C414.305,632.847 407.02,637.616 400.644,642.895C408.674,643.78 417.908,646.011 423.841,652.743C424.326,653.293 424.25,653.708 424.13,654.266C404.578,650.983 390.881,652.817 384.836,674.38C398.288,676.909 428.823,686.6 441.101,692.815C418.306,694.207 408.031,694.136 384.703,690.953C385.07,696.546 385.354,702.111 386.122,707.663C404.25,711.819 413.963,714.674 431.095,721.797C416.827,723.105 404.901,723.758 390.693,719.99C399.353,737.421 413.07,753.175 431.9,760.532C434.375,761.367 438.269,762.157 440.842,761.488C452.307,758.509 463.739,752.839 474.587,747.932C482.876,744.182 493.023,740.26 500.922,735.994C504.858,729.252 505.279,725.167 506.143,717.388C503.457,712.956 492.407,703.099 488.293,698.046C486.833,696.252 476.558,683.117 475.906,682.542C468.41,675.921 466.18,675.934 459.815,667.11C450.369,646.614 451.316,630.789 459.114,609.619L459.511,608.548C460.573,619.028 461.654,629.021 465.557,638.93C475.253,632.942 488.946,630.155 499.859,632.475C516.198,635.949 529.868,629.178 545.85,632.964C550.683,634.127 555.292,636.078 559.492,638.738C563.541,626.27 564.606,619.312 565.535,606.033C572.209,624.982 575.729,644.354 566.571,663.325C565.823,664.851 565.066,666.373 564.299,667.89C558.366,675.382 554.771,676.243 548.22,682.46C546.646,683.953 543.522,691.16 541.467,693.773C534.891,702.135 527.656,708.763 519.978,716.053C519.913,723.587 520.413,729.846 524.663,736.331C531.953,740.123 543.441,744.694 551.259,748.189C560.906,751.707 572.956,759.031 582.874,760.993C603.327,765.037 625.998,736.943 633.794,722.288C620.546,724.127 603.206,723.16 589.977,721.723C606.721,717.213 622.753,712.057 639.722,707.69C641.124,701.737 641.763,696.219 642.405,690.184C627.361,693.251 600.057,693.662 584.541,692.127C596.559,688.655 608.812,683.63 620.779,679.752C628.236,677.335 634.961,675.634 642.589,673.8C634.423,652.503 617.714,651.921 598.492,655.144C604.872,647.325 613.758,643.913 623.439,642.378C618.164,637.583 610.561,632.697 604.592,628.637C586.664,616.44 572.078,601.064 565.082,580.128C561.902,570.615 560.261,560.431 564.963,551.102C541.151,545.229 536.294,525.226 539.414,503.61C542.819,514.02 545.69,518.621 552.373,527.094C564.067,510.988 567.923,498.738 574.992,480.356C583.075,459.45 596.91,441.259 614.898,427.886C621.23,423.241 627.539,419.757 634.344,415.9C619.078,430.946 609.707,452.318 603.15,472.54C599.804,482.859 597.135,493.453 592.513,503.378C589.848,509.099 586.025,514.191 582.534,519.403C578.339,523.544 574.115,527.842 569.528,531.53C567.576,533.1 564.904,534.355 564.85,537.05L565.762,537.645C576.11,538.213 614.285,506.256 625.281,499.867C637.792,492.598 643.718,489.157 658.439,485.022C686.556,482.781 704.136,485.204 727.24,502.94C714.481,499.497 701.193,499.365 688.111,500.676C689.811,515.631 689.574,530.175 682.84,543.988C673.35,563.456 652.912,577.293 631.452,579.497C617.167,580.892 602.771,578.404 589.783,572.297C593.811,597.979 601.449,609.243 622.796,624.912C629.251,629.649 641.391,637.417 646.88,642.487C663.381,632.858 679.625,622.952 695.359,612.085C712.272,600.404 722.752,588.689 731.678,570.12C730.196,586.76 727.439,599.349 716.461,612.75C741.231,641.425 758.97,667.102 770.889,703.728C773.043,710.348 776.039,720.057 777.105,726.828C787.494,671.444 774.114,599.925 751.87,548.789C748.263,540.496 742.131,527.792 737.129,520.279ZM508.343,640.225C488.494,640.972 477.683,637.535 469.86,659.094C507.117,658.344 488.913,692.994 505.262,698.018C510.7,696.794 508.816,685.984 511.911,682.576C512.721,683.179 512.406,683.162 512.782,684.613C513.902,688.991 513.974,694.611 516.67,696.984C521.522,698.883 525.397,693.792 526.818,689.747C527.816,686.906 527.019,683.394 527.422,680.486C529.397,666.216 540.584,658.658 554.163,658.555C548.582,641.141 537.58,640.58 521.345,640.195C517.035,640.092 512.659,639.986 508.343,640.225ZM462.408,840.891C463.569,842.372 468.51,847.173 470.077,848.771C465.586,838.07 465.301,830.567 464.187,819.135C464.852,820.843 465.804,823.195 466.475,824.868C472.945,840.999 497.952,866.058 514.161,872.661C532.408,862.817 554.025,839.22 561.174,819.661C561.008,829.467 559.189,839.176 555.792,848.377C558.829,845.689 561.298,843.379 564.158,840.509C580.331,825.749 589.299,806.116 592.649,784.757C575.928,771.108 547.569,761.872 526.222,758.785C497.73,754.665 455.592,766.366 432.814,784.163C433.595,802.706 448.478,829.166 462.408,840.891ZM659.897,508.202C653.997,508.809 649.34,509.803 643.876,512.298C647.767,525.474 645.923,542.158 630.6,546.553C625.961,547.926 620.964,547.364 616.745,544.997C611.218,541.836 608.923,537.254 606.762,531.671C601.118,537.402 596.841,541.562 590.419,546.599C591.758,548.51 593.014,550.374 594.502,552.176C611.298,569.263 637.029,567.339 653.674,551.071C662.641,542.414 667.788,530.539 667.975,518.076C668.006,514.694 667.629,511.39 667.261,508.033C665.331,508.042 661.675,507.953 659.897,508.202ZM813.15,233.893C812.711,243.926 812.55,253.909 812.119,264.101C809.844,317.972 791.797,368.877 767.864,416.696C766.529,419.363 758.609,434.335 758.512,435.618C759.901,435.094 760.28,434.456 761.259,433.346C767.355,427.314 772.994,421.593 778.158,414.65C806.838,376.097 817.586,325.558 817.841,278.251C817.878,271.306 816.593,237.897 813.15,233.893ZM630.141,515.869C624.221,519.884 618.73,530.581 628.76,531.152C636.956,527.388 639.116,516.33 630.141,515.869ZM681.327,679.537C675.492,681.111 667.139,683.153 661.664,685.378C661.598,693.012 660.386,698.283 659.914,705.494C661.415,706.29 662.816,706.031 664.562,705.979C671.803,705.712 677.519,705.53 684.797,706.003C684.604,702.123 683.903,681.87 682.003,679.579L681.327,679.537ZM360.422,508.136C359.459,508.364 358.219,508.415 357.948,509.128C355.843,514.66 357.839,527.149 359.439,532.36C363.096,543.973 371.239,553.645 382.06,559.226C392.007,564.485 403.652,565.522 414.372,562.102C423.136,559.309 429.246,554.336 434.59,546.973L435.18,545.746C434.238,544.085 422.24,533.113 419.563,530.37C417.534,536.699 415.078,542.059 408.76,545.361C404.322,547.686 399.136,548.133 394.366,546.602C379.066,541.68 377.78,525.502 381.5,512.294C374.513,509.628 368.01,507.791 360.422,508.136ZM684.427,715.729C674.826,716.563 665.545,717.501 656.05,719.209C653.593,725.347 651.524,730.595 648.336,736.442C653.62,739.184 658.434,741.714 663.58,744.722C670.619,748.903 677.414,753.482 683.933,758.435C684.256,751.947 686.262,718.802 684.427,715.729ZM401.973,514.931C400.34,516.667 399.842,517.438 399.874,519.938C399.913,522.692 401.044,525.317 403.019,527.237C405.471,529.59 407.436,529.952 410.563,529.008C416.958,523.012 408.622,515.109 401.973,514.931ZM679.225,665.023C675.834,666.764 667.884,670.045 665.651,671.545L665.7,671.983L667.375,672.205L681.281,672.411C680.956,669.951 680.809,667.583 679.866,665.312L679.225,665.023Z" style="fill:rgb(0,25,35);"/>
        <path d="M178.337,38.934C179.444,40.552 184.714,60.276 186.265,64.512C219.235,154.543 312.73,200.283 377.713,264.081C389.743,275.891 400.682,288.006 411.363,301.296C475.732,286.287 550.253,285.306 614.406,301.341C623.203,290.649 632.205,279.571 642.028,269.772C694.831,217.099 762.201,178.773 808.243,119.365C826.273,96.1 838.717,67.853 844.479,38.915C857.483,65.474 862.023,84.578 858.341,114.658C869.256,104.703 878.297,95.612 889.847,85.926C880.537,112.84 872.122,141.543 857.959,166.429C852.723,175.63 846.653,184.536 840.743,193.33C843.514,204.372 845.62,215.571 847.05,226.866C853.58,273.772 850.411,321.519 837.74,367.15C836.006,373.458 833.952,379.674 831.587,385.773C829.811,390.282 826.663,397.224 825.492,401.669C824.354,405.986 825.863,414.208 825.389,419.306C822.856,446.55 818.186,461.261 801.865,482.416C810.523,495.669 817.463,511.005 823.282,525.69C844.954,580.272 853.489,639.185 848.197,697.673C846.551,715.9 841.172,740.12 837.577,758.642L816.394,727.278C812.066,754.092 800.624,779.524 786.95,802.764C757.557,851.1 718.378,882.415 671.988,912.903C677.085,887.495 683.746,851.333 674.099,826.402C668.903,812.976 657.897,815.988 648.641,823.469C634.829,834.632 623.14,848.142 610.23,860.51C581.479,888.343 548.336,911.245 512.134,928.295C485.852,914.203 462.024,899.405 438.898,880.44C430.263,873.263 421.889,865.776 413.793,857.996C401.939,846.508 381.926,824.129 367.477,818.176C347.878,841.707 358.13,890.38 365.094,918.058C348.446,907.8 336.713,901.436 320.449,889.75C268.71,852.574 219.095,792.309 208.54,727.797C201.665,737.574 194.974,747.479 188.47,757.507C167.842,688.063 171.09,615.148 194.304,546.833C202.18,523.655 210.054,503.331 222.959,482.443C208.346,465.55 201.762,441.067 200.474,419.206C200.024,415.893 201.73,406.684 200.692,404.01C195.355,390.258 189.945,376.825 185.935,362.586C169.97,305.886 172.41,249.836 185.211,192.82C176.85,181.345 167.299,166.973 160.652,154.568C155.952,145.797 151.546,133.641 148.074,124.34C143.273,111.571 138.655,98.734 134.222,85.833C146.069,95.332 154.658,102.668 165.865,112.849C163.573,85.306 164.412,63.487 178.337,38.934ZM178.642,82.409C177.717,109.547 180.484,118.872 188.585,144.382C179.906,138.544 171.053,132.685 162.7,126.404C173.794,151.211 182.65,168.173 200.613,189.313C186.169,243.165 183.462,303.466 198.423,357.529C200.915,366.358 203.905,375.039 207.378,383.53C209.77,389.371 213.343,396.32 214.826,402.256C215.441,404.719 214.138,413.454 214.183,416.649C214.566,443.972 223.538,460.357 239.442,481.508C234.491,489.714 228.958,499.01 224.869,507.636C194.561,571.561 178.437,654.106 194.831,723.698C201.107,713.934 211.257,697.124 217.885,688.409C219.663,701.782 219.308,714.694 222.253,728.281C235.213,788.081 275.517,838.223 323.267,874.698C330.389,880.134 337.735,885.269 345.287,890.09C341.663,865.627 339.749,833.908 354.017,812.353C363.089,798.647 378.308,806.667 388.209,814.533C402.363,825.78 414.294,839.408 427.338,851.927C452.817,876.041 481.537,896.479 512.667,912.651C546.325,896.889 577.736,872.771 604.335,847.035C614.716,836.862 624.649,826.096 635.415,816.364C648.386,804.639 667.876,795.611 681.234,812.586C695.213,830.349 694.094,862.788 690.229,884.07C730.417,854.934 764.007,819.89 786.276,775.141C802.193,742.127 804.376,722.687 806.758,686.932C813.656,696.604 824.021,713.09 830.079,723.664C842.061,664.057 835.544,603.714 816.036,546.365C808.526,524.289 798.638,501.792 785.734,482.303C785.447,481.871 785.157,481.442 784.864,481.016C789.783,474.902 796.005,467.591 799.975,460.889C809.898,444.142 814.117,419.087 810.46,399.991C833.718,350.138 839.909,299.551 835.144,244.865C833.558,226.665 830.959,207.924 825.337,190.465C835.604,176.7 843.708,165.275 851.319,149.75C854.877,142.493 857.957,134.506 861.426,127.533C853.42,133.722 845.241,139.686 836.899,145.417C843.976,120.647 847.47,108.13 845.309,81.435C812.758,165.588 713.128,217.511 652.228,279.327C644.151,287.525 626.161,307.601 620.32,316.985C570.865,301.845 504.39,300.511 453.426,307.487C436.088,309.861 421.817,313.612 405.313,316.437C355.403,249.196 285.65,212.632 228.068,153.599C216.496,141.735 203.672,126.268 194.699,112.305C189.561,104.145 184.996,95.638 181.037,86.846C180.513,85.712 179.462,83.173 178.642,82.409ZM462.408,840.891C448.478,829.166 433.595,802.706 432.814,784.163C455.592,766.366 497.73,754.665 526.222,758.785C547.569,761.872 575.928,771.108 592.649,784.757C589.299,806.116 580.331,825.749 564.158,840.509C565.162,836.195 567.131,831.822 568.441,827.528C571.219,818.424 572.575,808.412 572.529,798.891C565.425,787.308 548.658,779.847 535.992,776.623C509.712,769.933 471.609,776.664 452.26,796.847C453.351,806.827 455.142,816.719 457.621,826.448C458.746,830.694 462.205,837.671 462.408,840.891Z" style="fill:rgb(153,153,153);"/>
        <path d="M258.155,262.325C257.808,267.308 270.368,288.669 273.214,293.978L296.786,338.634C287.492,331.824 269.987,324.654 259.175,320.416C269.426,333.66 281.592,351.776 286.63,367.631C288.91,374.807 290.403,383.296 291.875,390.762C284.725,384.553 275.579,376.924 267.969,371.337C268.538,376.896 269.184,397.826 268.127,402.992C247.778,377.639 237.577,347.377 230.654,316.028C223.837,285.161 226.88,252.493 231.323,221.41C236.381,230.101 240.541,239.025 246.665,247.434C250.374,252.526 254.43,257.296 258.155,262.325ZM508.343,640.225C512.659,639.986 517.035,640.092 521.345,640.195C537.58,640.58 548.582,641.141 554.163,658.555C540.584,658.658 529.397,666.216 527.422,680.486C527.019,683.394 527.816,686.906 526.818,689.747C525.397,693.792 521.522,698.883 516.67,696.984C513.974,694.611 513.902,688.991 512.782,684.613C512.406,683.162 512.721,683.179 511.911,682.576C508.816,685.984 510.7,696.794 505.262,698.018C488.913,692.994 507.117,658.344 469.86,659.094C477.683,637.535 488.494,640.972 508.343,640.225Z" style="fill:rgb(0,65,52);"/>
        <path d="M399.473,627.79C390.86,633.833 382.872,638.818 376.06,646.899C372.472,645.277 366.297,640.935 362.89,638.556C342.47,624.294 323.412,607.311 309.134,586.774C304.068,579.488 301.003,572.099 296.896,564.32C314.974,584.798 350.141,606.293 375.327,617.317C380.356,619.518 396.992,624.012 399.473,627.79ZM218.774,183.034L219.285,181.43C222.023,182.009 226.583,188.331 228.787,190.575C234.21,196.098 239.678,201.528 245.239,206.913C259.886,221.04 275.007,234.666 290.576,247.77C328.001,279.778 369.086,314.561 389.215,360.861C385.401,364.578 379.656,368.685 375.541,372.469C366.847,380.464 356.557,390.549 349.524,399.931C350.266,388.317 350.591,374.197 347.804,362.709C334.434,307.604 288.894,269.615 253.241,228.574C244.343,218.332 236.343,208.764 228.139,198.059C225.01,193.976 221.325,186.011 218.774,183.034ZM372.482,486.199C353.919,483.448 340.039,483.017 322.429,489.359C322.118,486.066 324.536,477.034 325.387,473.372C339.877,472.356 361.27,477.199 372.482,486.199ZM360.422,508.136C368.01,507.791 374.513,509.628 381.5,512.294C377.78,525.502 379.066,541.68 394.366,546.602C399.136,548.133 404.322,547.686 408.76,545.361C415.078,542.059 417.534,536.699 419.563,530.37C422.24,533.113 434.238,544.085 435.18,545.746L434.59,546.973C429.246,554.336 423.136,559.309 414.372,562.102C403.652,565.522 392.007,564.485 382.06,559.226C371.239,553.645 363.096,543.973 359.439,532.36C357.839,527.149 355.843,514.66 357.948,509.128C358.219,508.415 359.459,508.364 360.422,508.136ZM659.897,508.202C661.675,507.953 665.331,508.042 667.261,508.033C667.629,511.39 668.006,514.694 667.975,518.076C667.788,530.539 662.641,542.414 653.674,551.071C637.029,567.339 611.298,569.263 594.502,552.176C593.014,550.374 591.758,548.51 590.419,546.599C596.841,541.562 601.118,537.402 606.762,531.671C608.923,537.254 611.218,541.836 616.745,544.997C620.964,547.364 625.961,547.926 630.6,546.553C645.923,542.158 647.767,525.474 643.876,512.298C649.34,509.803 653.997,508.809 659.897,508.202Z" style="fill:rgb(236,137,30);"/>
        <path d="M352.537,672.49C346.092,673.031 338.22,673.574 331.895,674.423L336.193,669.923C321.812,658.056 312.632,646.824 305.74,629.361C322.119,651.232 330.342,657.123 352.537,672.49ZM442.429,519.407C446.331,523.303 450.339,526.988 454.459,530.644C456.666,532.602 459.854,534.422 461.479,536.272L461.401,537.08C460.931,537.397 460.566,537.681 460.004,537.862C450.535,540.909 408.51,506.008 398.461,499.507C390.133,494.119 381.621,489.979 372.482,486.199C361.27,477.199 339.877,472.356 325.387,473.372C320.644,474.11 319.379,474.554 315.043,477.021C327.338,463.087 348.358,453.053 366.85,451.555C377.787,450.669 388.277,454.314 396.371,461.723C413.033,476.975 421.132,499.699 437.609,515.31C439.007,516.635 440.765,518.559 442.429,519.407ZM658.439,485.022C643.718,489.157 637.792,492.598 625.281,499.867C614.285,506.256 576.11,538.213 565.762,537.645L564.85,537.05C564.904,534.355 567.576,533.1 569.528,531.53C574.115,527.842 578.339,523.544 582.534,519.403C597.005,511.288 613.648,473.787 630.541,460.971C653.097,443.859 671.749,450.797 695.124,463.694C702.27,467.637 707.317,472.176 712.557,478.517C711.464,478.028 710.363,477.557 709.254,477.104C693.36,470.775 672.965,478.777 658.439,485.022ZM564.158,840.509C561.298,843.379 558.829,845.689 555.792,848.377C559.189,839.176 561.008,829.467 561.174,819.661C554.025,839.22 532.408,862.817 514.161,872.661C497.952,866.058 472.945,840.999 466.475,824.868C465.804,823.195 464.852,820.843 464.187,819.135C465.301,830.567 465.586,838.07 470.077,848.771C468.51,847.173 463.569,842.372 462.408,840.891C462.205,837.671 458.746,830.694 457.621,826.448C455.142,816.719 453.351,806.827 452.26,796.847C471.609,776.664 509.712,769.933 535.992,776.623C548.658,779.847 565.425,787.308 572.529,798.891C572.575,808.412 571.219,818.424 568.441,827.528C567.131,831.822 565.162,836.195 564.158,840.509ZM598.492,655.144C617.714,651.921 634.423,652.503 642.589,673.8C634.961,675.634 628.236,677.335 620.779,679.752C608.812,683.63 596.559,688.655 584.541,692.127C600.057,693.662 627.361,693.251 642.405,690.184C641.763,696.219 641.124,701.737 639.722,707.69C622.753,712.057 606.721,717.213 589.977,721.723C603.206,723.16 620.546,724.127 633.794,722.288C625.998,736.943 603.327,765.037 582.874,760.993C572.956,759.031 560.906,751.707 551.259,748.189C543.441,744.694 531.953,740.123 524.663,736.331C520.413,729.846 519.913,723.587 519.978,716.053C527.656,708.763 534.891,702.135 541.467,693.773C543.522,691.16 546.646,683.953 548.22,682.46C554.771,676.243 558.366,675.382 564.299,667.89C573.933,661.908 587.551,658.171 598.492,655.144ZM459.815,667.11C466.18,675.934 468.41,675.921 475.906,682.542C476.558,683.117 486.833,696.252 488.293,698.046C492.407,703.099 503.457,712.956 506.143,717.388C505.279,725.167 504.858,729.252 500.922,735.994C493.023,740.26 482.876,744.182 474.587,747.932C463.739,752.839 452.307,758.509 440.842,761.488C438.269,762.157 434.375,761.367 431.9,760.532C413.07,753.175 399.353,737.421 390.693,719.99C404.901,723.758 416.827,723.105 431.095,721.797C413.963,714.674 404.25,711.819 386.122,707.663C385.354,702.111 385.07,696.546 384.703,690.953C408.031,694.136 418.306,694.207 441.101,692.815C428.823,686.6 398.288,676.909 384.836,674.38C390.881,652.817 404.578,650.983 424.13,654.266C436.13,657.657 448.731,661.325 459.815,667.11ZM313.22,712.925L345.511,715.05C352.933,715.492 363.874,715.935 371.04,716.997C374.329,725.268 377.634,733.744 382.183,741.424C377.298,742.721 372.541,744.457 367.968,746.611C398.039,763.008 408.91,785.138 421.149,815.846C405.45,799.887 374.98,772.426 351.113,779.237C350.913,770.433 350.719,765.465 352.31,756.743C331.819,782.248 319.945,803.433 319.909,837.404C319.183,835.481 318.42,833.299 317.646,831.424C315.899,823.451 313.398,816.141 311.732,807.594C305.901,777.679 305.14,742.305 313.22,712.925ZM328.574,678.213C339.74,680.534 354.421,682.369 364.952,686.192C365.395,693.394 366.185,698.871 367.735,705.939C349.338,706.002 331.749,707.097 313.73,711.361C317.815,696.828 321.304,690.959 328.574,678.213ZM630.141,515.869C639.116,516.33 636.956,527.388 628.76,531.152C618.73,530.581 624.221,519.884 630.141,515.869ZM401.973,514.931C408.622,515.109 416.958,523.012 410.563,529.008C407.436,529.952 405.471,529.59 403.019,527.237C401.044,525.317 399.913,522.692 399.874,519.938C399.842,517.438 400.34,516.667 401.973,514.931Z" style="fill:white;"/>
        <path d="M301.063,501.624C316.758,499.902 321.709,499.716 337.438,501.096C335.01,521.222 336.003,537.226 349.128,553.951C360.102,568.109 376.28,577.291 394.062,579.454C409.058,581.206 421.831,578.2 435.669,572.47C431.58,596.855 422.868,611.129 402.023,626.021C401.18,626.622 400.33,627.212 399.473,627.79C396.992,624.012 380.356,619.518 375.327,617.317C350.141,606.293 314.974,584.798 296.896,564.32C301.003,572.099 304.068,579.488 309.134,586.774C323.412,607.311 342.47,624.294 362.89,638.556C366.297,640.935 372.472,645.277 376.06,646.899C369.767,656.601 367.405,660.919 365.821,672.311C360.822,672.091 357.076,672.567 352.537,672.49C330.342,657.123 322.119,651.232 305.74,629.361C312.632,646.824 321.812,658.056 336.193,669.923L331.895,674.423C327.603,675.145 322.8,676.066 318.512,676.498C322.066,677.215 324.984,677.727 328.574,678.213C321.304,690.959 317.815,696.828 313.73,711.361C312.309,711.684 310.715,711.756 309.892,712.608C311.307,712.833 311.797,712.908 313.22,712.925C305.14,742.305 305.901,777.679 311.732,807.594C313.398,816.141 315.899,823.451 317.646,831.424C317.228,830.794 316.817,830.161 316.412,829.523C285.04,780.486 273.399,717.056 285.956,660.177C263.477,689.94 254.541,729.354 255.017,766.141C236.551,715.22 233.647,660.96 252.283,609.541C232.325,624.283 214.396,645.275 204.726,668.325C205.499,658.494 206.378,644.148 208.742,634.63C209.886,624.885 213.314,610.901 215.824,601.362C231.182,542.993 256.133,494.684 292.242,446.731C300.156,436.368 308.39,426.252 316.932,416.399C321.116,411.508 327.355,404.663 331.067,399.639L331.39,399.194C331.493,398.488 331.573,397.778 331.633,397.066C332.535,386.99 330.232,374.507 327.301,364.919C314.896,324.345 285.1,293.784 258.155,262.325C254.43,257.296 250.374,252.526 246.665,247.434C240.541,239.025 236.381,230.101 231.323,221.41C226.88,252.493 223.837,285.161 230.654,316.028C237.577,347.377 247.778,377.639 268.127,402.992C273.652,411.037 279.609,418.779 285.217,427.007C277.254,438.832 266.195,449.823 257.338,462.797C255.677,460.979 254.059,459.122 252.485,457.229C235.189,436.666 234.491,426.107 236.67,401.046C230.763,388.938 225.229,378.024 220.96,365.223C201.037,305.484 207.299,243.686 218.774,183.034C221.325,186.011 225.01,193.976 228.139,198.059C236.343,208.764 244.343,218.332 253.241,228.574C288.894,269.615 334.434,307.604 347.804,362.709C350.591,374.197 350.266,388.317 349.524,399.931C356.557,390.549 366.847,380.464 375.541,372.469C379.656,368.685 385.401,364.578 389.215,360.861C407.366,348.061 421.698,340.43 442.982,333.241C438.632,333.093 434.282,332.968 429.931,332.865C438.487,330.188 448.842,328.214 457.713,326.676C510.268,317.665 564.251,322.148 614.6,339.703L609.719,344.443C619.476,349.947 627.964,354.816 636.627,362.154C658.445,317.084 681.917,295.646 719.287,263.027C732.947,251.171 746.418,239.099 759.695,226.816C769.281,217.898 778.647,208.747 787.786,199.371C792.351,194.641 801.712,184.146 806.49,180.273C794.089,240.113 734.017,279.162 706.497,331.294C694.9,353.262 687.693,368.896 689.561,394.582C693.948,401.44 707.388,415.759 713.417,423.615C702.622,382.584 728.248,342.163 764.209,323.51C751.598,342.717 738.711,365.687 733.133,388.068C741.697,383.044 747.817,379.652 755.568,373.447C754.739,402.151 747.968,418.815 729.763,441.149C741.805,457.944 752.17,472.673 762.703,490.604C788.857,535.779 807.316,584.989 817.323,636.221C812.198,625.423 807.753,614.934 802.255,604.153C786.297,572.093 764.822,543.09 738.812,518.471L728.704,508.265C731.352,512.618 734.555,516.106 737.129,520.279C742.131,527.792 748.263,540.496 751.87,548.789C774.114,599.925 787.494,671.444 777.105,726.828C776.039,720.057 773.043,710.348 770.889,703.728C758.97,667.102 741.231,641.425 716.461,612.75C727.439,599.349 730.196,586.76 731.678,570.12C722.752,588.689 712.272,600.404 695.359,612.085C679.625,622.952 663.381,632.858 646.88,642.487C641.391,637.417 629.251,629.649 622.796,624.912C601.449,609.243 593.811,597.979 589.783,572.297C602.771,578.404 617.167,580.892 631.452,579.497C652.912,577.293 673.35,563.456 682.84,543.988C689.574,530.175 689.811,515.631 688.111,500.676C701.193,499.365 714.481,499.497 727.24,502.94C704.136,485.204 686.556,482.781 658.439,485.022C672.965,478.777 693.36,470.775 709.254,477.104C710.363,477.557 711.464,478.028 712.557,478.517C707.317,472.176 702.27,467.637 695.124,463.694C671.749,450.797 653.097,443.859 630.541,460.971C613.648,473.787 597.005,511.288 582.534,519.403C586.025,514.191 589.848,509.099 592.513,503.378C597.135,493.453 599.804,482.859 603.15,472.54C609.707,452.318 619.078,430.946 634.344,415.9C627.539,419.757 621.23,423.241 614.898,427.886C596.91,441.259 583.075,459.45 574.992,480.356C567.923,498.738 564.067,510.988 552.373,527.094C545.69,518.621 542.819,514.02 539.414,503.61C536.294,525.226 541.151,545.229 564.963,551.102C560.261,560.431 561.902,570.615 565.082,580.128C572.078,601.064 586.664,616.44 604.592,628.637C610.561,632.697 618.164,637.583 623.439,642.378C613.758,643.913 604.872,647.325 598.492,655.144C587.551,658.171 573.933,661.908 564.299,667.89C565.066,666.373 565.823,664.851 566.571,663.325C575.729,644.354 572.209,624.982 565.535,606.033C564.606,619.312 563.541,626.27 559.492,638.738C555.292,636.078 550.683,634.127 545.85,632.964C529.868,629.178 516.198,635.949 499.859,632.475C488.946,630.155 475.253,632.942 465.557,638.93C461.654,629.021 460.573,619.028 459.511,608.548L459.114,609.619C451.316,630.789 450.369,646.614 459.815,667.11C448.731,661.325 436.13,657.657 424.13,654.266C424.25,653.708 424.326,653.293 423.841,652.743C417.908,646.011 408.674,643.78 400.644,642.895C407.02,637.616 414.305,632.847 421.007,627.918C438.255,615.23 454.33,598.88 460.666,577.905C463.257,569.327 464.958,559.528 460.61,551.272C475.384,547.346 484.986,536.99 487.129,521.617C487.959,515.663 487.26,510.522 486.614,504.615C482.508,514.728 480.675,518.111 473.732,526.857C461.877,511.743 457.66,490.096 449.347,472.932C437.108,447.661 417.563,429.5 392.974,416.437C407.808,430.683 417.743,455.352 423.664,474.94C429.015,492.644 431.517,503.773 442.429,519.407C440.765,518.559 439.007,516.635 437.609,515.31C421.132,499.699 413.033,476.975 396.371,461.723C388.277,454.314 377.787,450.669 366.85,451.555C348.358,453.053 327.338,463.087 315.043,477.021C319.379,474.554 320.644,474.11 325.387,473.372C324.536,477.034 322.118,486.066 322.429,489.359C317.282,491.657 305.43,497.745 301.063,501.624ZM813.15,233.893C816.593,237.897 817.878,271.306 817.841,278.251C817.586,325.558 806.838,376.097 778.158,414.65C772.994,421.593 767.355,427.314 761.259,433.346C760.28,434.456 759.901,435.094 758.512,435.618C758.609,434.335 766.529,419.363 767.864,416.696C791.797,368.877 809.844,317.972 812.119,264.101C812.55,253.909 812.711,243.926 813.15,233.893ZM684.427,715.729C686.262,718.802 684.256,751.947 683.933,758.435C677.414,753.482 670.619,748.903 663.58,744.722C658.434,741.714 653.62,739.184 648.336,736.442C651.524,730.595 653.593,725.347 656.05,719.209C665.545,717.501 674.826,716.563 684.427,715.729ZM681.327,679.537L682.003,679.579C683.903,681.87 684.604,702.123 684.797,706.003C677.519,705.53 671.803,705.712 664.562,705.979C662.816,706.031 661.415,706.29 659.914,705.494C660.386,698.283 661.598,693.012 661.664,685.378C667.139,683.153 675.492,681.111 681.327,679.537ZM679.225,665.023L679.866,665.312C680.809,667.583 680.956,669.951 681.281,672.411L667.375,672.205L665.7,671.983L665.651,671.545C667.884,670.045 675.834,666.764 679.225,665.023Z" style="fill:rgb(219,111,0);"/>
    </g>
</svg>
