<?xml version="1.0" encoding="UTF-8" standalone="no"?>
<!DOCTYPE svg PUBLIC "-//W3C//DTD SVG 1.1//EN" "http://www.w3.org/Graphics/SVG/1.1/DTD/svg11.dtd">
<svg width="100%" height="100%" viewBox="0 0 766 883" version="1.1" xmlns="http://www.w3.org/2000/svg" xmlns:xlink="http://www.w3.org/1999/xlink" xml:space="preserve" xmlns:serif="http://www.serif.com/" style="fill-rule:evenodd;clip-rule:evenodd;stroke-linejoin:round;stroke-miterlimit:2;">
    <g transform="matrix(1,0,0,1,-128.566,-28.4741)">
        <path d="M795.532,28.474C806.488,49.607 820.536,66.682 829.88,89.316C843.081,121.289 844.528,145.486 831.546,177.761C835.56,192.968 837.035,207.342 838.156,222.993C842.491,283.464 827.785,351.024 802.054,405.85C805.149,410.653 808.663,415.577 811.997,420.222C853.158,477.573 880.881,545.451 891.469,615.244C893.5,628.628 892.204,642.35 893.529,655.709L893.632,656.703C884.294,651.292 875.403,644.645 866.092,639.177C868.006,726.945 824.554,799.869 754.046,849.888C722.499,870.744 696.599,880.217 659.327,887.613C662.08,879.394 664.799,871.43 667.103,863.071C673.619,839.421 680.835,817.01 665.232,795.356C641.186,832.488 596.96,865.632 559.298,888.209C544.998,896.782 526.807,904.834 511.529,911.462C498.73,906.918 482.701,899.204 470.628,892.904C426.809,870.039 384.876,837.715 356.209,796.996C335.489,817.954 353.059,864.074 362.099,887.301C282.26,875.729 215.167,823.121 179.001,751.489C160.92,715.679 154.464,678.786 154.493,638.869C146.103,644.034 137.451,648.763 128.574,653.036C128.415,628.51 130.485,610.816 135.619,586.994C145.748,539.959 163.025,494.754 186.847,452.952C194.285,439.881 202.765,427.632 211.372,415.327C213.516,412.262 216.086,408.982 217.612,405.583C208.125,389.386 202.97,371.64 197.67,353.792C179.991,294.256 174.831,238.796 188.336,177.871C173.77,144.745 180.209,107.825 196.773,77.059C205.259,61.295 215.345,44.577 224.85,29.369C225.224,31.939 224.748,39.437 224.82,42.561C224.972,49.2 225.045,55.572 225.538,62.179C231.85,146.733 295.541,173.729 356.085,214.195C369.984,223.575 383.23,233.887 395.733,245.06C401.143,243.945 407.88,243.246 413.435,242.376C436.23,238.865 459.383,237.127 482.437,237.573C496.043,237.721 509.212,240.279 522.821,238.343C526.697,237.792 531.521,237.822 535.445,237.709C566.379,236.819 596.81,239.158 627.259,244.507C635.226,234.898 650.473,223.849 660.613,216.432C693.476,192.39 730.998,175.174 758.844,144.805C791.099,109.629 796.892,74.135 795.532,28.474Z" style="fill:rgb(166,147,127);fill-rule:nonzero;"/>
        <path d="M808.705,86.251C813,89.695 820.216,110.041 821.599,115.762C826.816,137.351 823.966,157.025 812.964,176.018C820.347,201.279 823.025,232.778 821.627,258.932C819.338,301.782 806.8,373.704 779.098,407.448C787.015,415.075 797.116,429.444 803.459,438.96C819.57,463.966 835.993,490.98 846.637,518.902C859.234,551.946 871.85,589.219 875.128,624.433C868.178,621.005 851.63,611.625 845.782,607.557C849.827,644.156 850.774,673.007 839.395,708.986C836.186,719.133 833.075,728.952 828.223,738.537C818.991,756.719 807.638,773.742 794.402,789.253C763.184,826.392 731.559,847.822 685.699,863.054C691.415,840.947 695.357,821.704 687.174,799.107C684.334,791.266 678.059,781.954 670.208,778.517C666.483,776.886 658.269,775.95 655.241,778.755C651.589,782.312 649.316,788.003 646.248,791.853C613.15,833.385 560.259,872.613 511.423,892.44C471.289,878.504 419.135,842.26 390.408,810.997C385.555,806.336 381.304,800.255 376.768,795.454C371.077,789.43 366.533,774.438 356.688,777.169C336.965,782.64 330.241,806.012 329.557,824.116C329.021,838.319 331.954,850.067 334.328,863.735C308.434,854.63 294.255,847.405 271.861,832.393C251.508,817.469 236.658,804.903 221.182,784.485C209.777,769.437 199.173,753.418 190.749,736.417C187.679,730.22 185.882,722.945 183.701,716.425C175.689,692.48 171.65,668.084 172.166,642.813C172.391,631.779 174.157,618.833 175.574,607.664C166.628,613.436 157.354,618.684 147.799,623.379C150.151,566.242 185.542,486.109 217.102,438.718C223.603,428.956 233.129,416.757 240.524,407.541C237.306,403.491 233.229,398.227 230.952,393.593C199.912,330.42 187.765,242.94 207.082,175.425C189.876,142.623 196.19,118.337 211.683,86.654C218.236,117.456 229.015,137.843 250.676,160.416C278.506,189.418 312.193,206.718 345.308,228.711C361.251,239.299 375.223,250.365 389.17,263.375C427.231,257.216 465.442,252.568 503.992,256.457C505.81,256.64 509.84,257.02 511.472,256.865C552.518,252.973 593.755,256.059 634.316,262.946C674.996,218.451 735.616,198.623 775.484,153.1C794.473,131.418 801.616,113.793 808.705,86.251ZM418.962,758.164C434.711,746.171 451.909,736.213 470.151,728.526C500.532,716.048 523.771,715.761 554.971,728.764C565.164,733.013 597.164,748.695 603.314,759.091C604.269,760.705 598.629,771.224 597.39,773.856C596.731,773.172 587.279,767.503 585.376,766.283C566.683,754.293 547.891,743.034 525.741,739.103C493.435,733.369 465.469,749.077 439.607,766.298C435.52,769.02 428.664,775.368 425.072,777.043C421.751,771.283 420.446,764.59 418.962,758.164ZM462.886,637.646C462.766,631.963 463.394,628.293 468.827,625.156C473.294,622.577 484.003,622.445 486.633,627.683C486.677,629.875 485.575,632.231 484.793,634.363C483.091,633.041 474.27,632.947 471.702,633.246C470.737,633.363 469.779,633.523 468.829,633.725C467.178,635.177 463.344,637.121 462.886,637.646ZM537.692,633.47C536.914,631.494 535.967,629.775 536.163,627.732C541.398,619.177 560.231,622.906 558.926,635.491C553.457,633.731 543.281,632.554 537.692,633.47ZM793.707,236.35C793.772,236.678 793.838,237.006 793.903,237.334C793.876,241.229 793.709,245.261 793.764,249.136C793.873,256.694 793.856,266.032 793.301,273.436C790.756,307.418 778.019,366.887 756.367,393.597C751.69,375.957 757.047,359.629 762.998,343.377C764.043,340.468 765.452,337.252 766.644,334.368C758.005,338.304 748.976,340.185 739.564,341.265C742.388,338.366 746.261,335.517 749.406,332.352C758.169,323.535 764.435,314.007 769.658,302.826C762.076,306.427 753.56,306.707 745.314,307.225C745.479,307.124 745.643,307.023 745.808,306.922L746.621,306.402C751.806,303.132 755.998,298.395 759.996,293.768C770.305,281.762 778.958,268.428 785.723,254.123C788.541,248.309 790.907,242.241 793.707,236.35ZM291.131,669.777C295.392,667.152 298.005,665.387 302.943,664.196C304.875,665.3 317.221,664.745 320.618,664.826C329.151,664.961 337.642,666.064 345.927,668.111C348.455,675.359 351.808,682.292 355.922,688.773C331.943,697.94 317.474,714.103 307.145,737.317C296.308,761.674 296.098,782.067 301.774,807.535C285.975,780.494 273.689,742.237 281.986,710.998C282.419,709.393 282.881,707.796 283.372,706.208C270.013,721.04 264.298,730.862 258.163,749.952C257.74,748.965 257.323,748.106 257.465,747.021C260.35,724.987 268.702,702.822 281.037,684.335C284.933,678.496 285.23,674.558 291.131,669.777ZM234.382,187.189C237.017,194.681 252.271,249.686 254.064,251.596C253.594,256.645 265.794,287.388 269.46,293.186C272.659,298.245 275.731,302.661 279.583,307.535C267.651,304.468 259.738,301.914 249.154,295.061C254.975,309.667 264.2,322.672 276.061,332.994C280.726,337.069 285.894,340.587 290.201,345.059C284.783,343.815 279.038,343.199 273.508,341.943C267.588,340.598 263.278,338.953 257.661,336.812L257.964,339.003C260.159,355.916 269.446,374.127 260.044,390.693C229.07,337.678 213.363,245.816 234.382,187.189ZM717.022,664.182L719.478,664.632C721.133,668.19 724.851,669.63 727.115,672.961C729.341,676.236 731.362,679.618 733.539,682.936C735.77,686.338 739.059,689.807 741.234,693.118C747.118,702.077 752.351,712.378 755.116,722.737C756.009,726.081 757.409,729.306 757.5,732.716C757.258,733.199 756.995,733.797 756.698,734.227C750.259,722.547 746.73,717.388 738.19,707.23C747.832,744.29 736.05,774.937 718.77,806.856C724.423,785.332 723.721,763.188 715.535,742.548C705.204,716.499 691.397,699.184 665.776,687.822C670.467,680.223 672.377,675.544 675.891,667.358C681.136,666.316 686.444,665.616 691.78,665.263C696.596,664.933 714.396,665.378 717.022,664.182Z" style="fill:rgb(2,30,59);"/>
        <path d="M291.131,669.777C288.891,670.481 281.014,672.446 279.825,674.118C279.434,675.999 275.154,678.839 273.617,680.423C268.944,685.24 263.766,690.324 259.925,695.833C251.501,707.757 245.228,721.063 241.391,735.149C240.363,739.072 239.551,745.675 238.744,748.434C223.634,704.353 229.687,659.92 247.698,617.761C244.369,618.332 240.651,618.562 237.256,618.848C241.713,614.608 243.679,613.037 249.069,610.117C252.304,603.979 255.081,596.626 258.462,590.235C268.884,570.532 281.796,552.351 298.38,537.404C290.159,539.966 280.642,543.252 273.265,547.631C232.801,571.648 210.8,630.018 199.231,673.031C197.685,656.38 199.912,627.221 205.04,611.115C218.721,568.141 248.633,520.968 281.02,489.71C255.512,500.264 236.818,511.542 216.838,530.876C213.731,533.882 190.239,560.681 188.878,560.815L188.23,559.886C187.949,554.488 192.836,543.809 195.122,538.506C216.387,489.177 249.449,439.596 283.722,398.428C293.244,386.553 304.248,376.265 314.756,365.333C319.343,360.561 326.713,354.04 330.319,348.829C330.001,332.552 319.538,320.086 308.755,308.978C290.914,290.6 274.079,267.386 254.064,251.596C252.271,249.686 237.017,194.681 234.382,187.189C250.175,204.348 263.425,216.5 281.134,231.33C316.545,260.986 347.098,280.361 369.331,321.908C370.018,308.806 375.161,302.495 386.751,297.156C400.496,290.825 421.857,284.857 432.446,299.554C444.957,316.918 456.49,340.25 464.572,360.192C468.755,331.144 470.783,310.096 456.59,283.188C467.353,283.037 478.119,283.085 488.881,283.333C495.734,297.139 496.629,319.651 499.841,335.122C502.779,349.273 506.04,362.789 508.032,377.106C508.492,380.408 510.355,400.195 510.685,400.939C511.217,397.412 511.231,393.23 511.434,389.596C512.335,373.391 516.21,357.543 520.001,341.755C524.221,324.184 524.589,299.428 531.703,283.134C542.314,283.143 553.77,282.961 564.316,283.219C551.912,309.778 550.933,330.256 556.81,359.07C564.379,341.987 580.979,301.573 598.089,291.618C604.964,287.619 627.311,293.721 633.702,297.646C645.943,303.892 649.727,308.744 650.89,322.45C677.865,272.99 710.832,258.2 751.623,222.784C759.555,215.813 767.102,208.417 774.231,200.627C777.935,196.621 782.027,191.585 785.846,187.862C783.328,210.887 770.458,234.443 758.004,253.699C755.959,256.861 752.24,260.473 749.707,263.43C740.377,274.325 731.835,285.954 722.361,296.717C713.183,307.143 702.776,316.536 696.045,328.888C691.992,336.379 690.69,341.917 690.134,350.303C696.517,355.317 703.427,363.365 709.374,369.137C753.09,411.566 787.685,460.435 815.225,514.68C821.297,526.642 831.581,549.378 833.659,562.42C824.258,551.552 815.893,541.297 805.462,531.347C785.089,511.911 767.529,500.423 741.617,489.437C767.823,516.291 789.248,547.427 804.966,581.498C820.738,615.421 823.186,634.599 822.438,671.695L822.415,672.838C811.81,632.422 785.766,570.499 748.215,548.42C740.14,543.672 731.621,540.003 722.574,537.565C741.132,552.049 764.724,588.3 771.918,610.582C776.74,613.046 779.632,615.378 783.286,619.388C780.378,618.866 776.368,618.037 773.514,617.742C777.302,626.43 779.432,634.572 782.409,643.458C794.359,679.122 794.751,716.463 780.919,752.084C780.777,752.455 780.63,752.823 780.474,753.187C777.865,762.616 770.83,776.547 766.071,785.171C766.151,764.72 764.878,753.594 756.698,734.227C756.995,733.797 757.258,733.199 757.5,732.716C757.409,729.306 756.009,726.081 755.116,722.737C752.35,712.378 747.118,702.077 741.234,693.118C739.059,689.807 735.77,686.338 733.539,682.936C731.362,679.618 729.341,676.236 727.115,672.961C724.851,669.63 721.133,668.19 719.478,664.632L717.022,664.182C709.663,662.511 699.031,659.388 692.079,658.398C668.148,654.989 644.695,660.074 621.959,667.221C611.071,670.644 599.443,674.874 588.273,676.337C610.571,682.696 618.121,681.917 639.525,676.014C638.781,677.672 637.946,679.288 637.024,680.854C628.061,696.178 603.037,713.656 584.513,712.281C567.408,711.011 548.946,701.424 535.365,691.334C529.108,686.684 521.592,680.365 519.832,672.369C517.32,661.041 532.124,656.259 536.595,647.74C539.475,642.315 539.068,639.19 537.692,633.47C543.281,632.554 553.457,633.731 558.926,635.491C559.017,635.915 559.241,636.372 559.414,636.79L560.475,636.661C563.858,634.47 566.783,631.643 569.09,628.338C575.163,619.564 576.036,607.485 574.24,597.232C572.662,591.079 571.144,590.457 565.956,586.857C565.074,586.494 564.181,586.16 563.277,585.858C549.067,581.007 538.652,584.368 525.557,591.364C520.595,594.015 515.855,597.56 510.693,600.037L510.085,600.325C506.303,597.893 502.153,594.311 498.214,592.219C484.866,585.133 474.524,581.826 459.935,585.705C455.628,587.575 452.544,588.51 449.555,592.159C449.093,593.627 448.517,595.315 448.179,596.801C445.259,610.831 448.745,630.732 462.886,637.646C463.344,637.121 467.178,635.177 468.829,633.725C469.779,633.523 470.737,633.363 471.702,633.246C474.27,632.947 483.091,633.041 484.793,634.363L484.63,635.091C479.838,657.088 504.693,654.512 502.86,672.768C500.968,682.577 486.058,692.984 478.402,697.344C463.355,705.913 441.647,716.092 424.105,711.171C406.256,706.164 390.089,692.523 382.23,675.822C403.912,683.277 413.09,681.737 434.784,676.518C421.418,674.907 413.194,670.939 400.772,667.623C378.507,661.68 355.966,655.455 332.732,658.239C322.931,659.414 312.519,661.922 302.943,664.196C298.005,665.387 295.392,667.152 291.131,669.777ZM657.326,438.211C653.059,440.051 648.68,441.898 644.508,443.932C624.664,453.606 606.899,467.246 587.344,477.483C581.064,480.77 577.127,483.366 569.827,483.594C568.115,483.557 566.289,483.297 564.838,483.939C563.758,489.019 563.486,494.755 562.994,499.865C561.066,519.872 563.496,528.203 570.81,546.323C577.376,557.407 581.96,563.226 590.28,573.331C587.385,552.64 584.015,542.056 590.488,521.782C599.737,526.087 612.056,531.008 622.159,531.612C643.123,532.867 666.371,525.594 678.785,507.634C689.224,492.53 691.403,478.68 692.886,460.846C705.092,461.1 716.155,462.602 728.206,464.205C739.208,466.117 750.242,467.845 761.302,469.389C757.058,466.434 752.732,463.599 748.329,460.888C729.33,449.199 699.291,435.815 676.865,434.952C671.129,434.731 663.029,436.856 657.326,438.211ZM668.049,459.699L670.267,459.598C671.92,461.268 672.093,464.897 672.062,467.215C671.697,494.001 652.849,517.634 624.642,516.943C610.638,516.6 595.875,510.783 597.013,494.193C599.416,486.224 606.169,483.075 612.949,479.179C612.65,483.663 612.399,487.618 614.389,491.833C616.264,495.728 619.702,498.647 623.849,499.865C628.055,501.159 632.608,500.654 636.427,498.47C640.199,496.318 642.9,492.689 643.88,488.459C645.713,480.688 641.775,473.439 637.84,467.109C646.486,463.38 658.758,460.765 668.049,459.699ZM425.835,373.277C441.639,412.636 449.697,431.276 451.865,474.459C454.83,471.458 456.789,469.351 459.097,465.752C480.561,431.458 460.992,397.201 430.991,375.884C429.772,375.017 427.205,373.724 425.835,373.277ZM638.275,596.951C640.885,600.927 642.591,603.885 644.673,608.202C634.022,611.013 621.305,614.809 611.269,619.413C620.747,620.667 627.715,621.231 637.215,619.465C645.867,617.299 664.162,610.457 673.738,607.352C665.526,592.985 654.778,582.687 640.868,574.066C629.994,568.74 625.993,568.683 614.925,565.379C623.738,575.696 631.109,585.312 638.275,596.951ZM380.614,574.454C368.086,581.983 361.341,588.035 352.723,600.326C351.369,602.258 348.634,606.639 348.026,608.866C373.522,615.363 380.945,624.081 407.714,619.334C398.543,615.607 386.371,610.963 376.902,608.536C378.931,604.591 381.478,600.399 383.72,596.531C389.428,585.485 398.898,574.15 407.533,565.15L407.153,565.346C399.049,569.387 389.918,569.87 380.614,574.454ZM595.229,372.924C577.336,384.304 559.033,405.171 554.103,426.29C551.092,439.187 555.637,454.745 562.53,465.764C564.953,469.123 566.571,470.866 569.601,473.77C574.118,444.971 575.498,420.051 588.226,393.186C589.557,390.377 596.177,374.427 595.628,373.008L595.229,372.924ZM649.551,389.202C616.535,391.907 595.578,425.013 590.845,455.107C595.983,449.493 601.281,444.143 606.516,438.635C623.748,418.932 645.523,400.978 672.839,399.072C674.897,398.941 676.961,398.907 679.022,398.971C667.991,392.144 662.404,389.827 649.551,389.202ZM341.35,643.136C359.584,642.908 381.378,647.764 399.395,650.392C404.896,651.194 414.886,651.338 420.774,651.57C391.184,640.631 363.594,626.47 332.499,619.66C318.685,616.635 306.866,615.609 292.832,614.517C296.408,616.781 297.149,617.031 300.817,618.872C317.441,622.534 327.173,627.238 341.157,637.734L341.35,643.136ZM639.143,635.628L599.609,651.63C605.036,651.382 614.52,651.491 619.52,650.6C640.251,646.907 658.751,643.503 679.964,643.459C679.996,641.37 679.787,638.816 679.671,636.693C689.188,630.176 702.533,621.068 713.966,619.21C718.158,618.413 722.533,616.47 726.035,614.055C690.279,616.166 672.549,621.614 639.143,635.628ZM366.074,390.146C357.49,391.69 349.624,394.313 342.056,398.755C374.36,399.909 392.326,414.115 413.476,436.823C415.737,439.242 417.95,441.707 420.113,444.215C423.568,447.935 427.529,452.133 431.596,455.207C424.516,423.107 403.598,387.368 366.074,390.146ZM452.051,483.615C438.677,483.4 394.099,451.072 376.556,443.306C374.218,442.859 368.814,440.747 366.409,439.925C353.783,435.609 348.77,434.1 335.86,435.75C309.858,441.551 285.976,454.104 264.269,469.296C272.493,468.493 280.406,466.789 288.545,465.552C301.907,463.519 315.834,461.441 329.341,460.771C331.734,482.996 335.484,503.761 353.775,519.038C373.92,535.863 409.957,536.476 431.555,522.212C437.452,539.861 435.644,555.238 431.455,572.865C446.278,559.732 458.683,535.983 460.062,516.088C460.739,506.332 459.342,492.56 457.694,483.057C455.903,483.261 453.83,483.552 452.051,483.615ZM350.828,459.657C364.52,460.804 370.989,462.586 383.666,466.642C378.921,475.566 373.294,487.009 381.466,496.124C384.118,499.058 387.833,500.809 391.784,500.987C396.124,501.21 400.365,499.638 403.513,496.641C408.787,491.645 409.012,486.169 409.056,479.591C415.51,483.159 420.893,486.019 425.197,492.131C426.884,498.925 424.375,506.685 418.768,510.684C400.669,523.593 373.447,516.849 360.572,499.722C351.707,487.929 348.988,473.656 350.828,459.657Z" style="fill:rgb(241,149,24);"/>
        <path d="M679.964,643.459C679.996,641.37 679.787,638.816 679.671,636.693C689.188,630.176 702.533,621.068 713.966,619.21C712.016,624.291 712.698,625.637 715.091,630.886C719.493,640.54 720.848,640.896 721.099,651.394C707.952,646.38 694.032,643.695 679.964,643.459ZM303.634,621.841C303.709,620.723 301.829,619.66 300.817,618.872C317.441,622.534 327.173,627.238 341.157,637.734L341.35,643.136C324.833,644.54 317.477,645.584 301.492,650.987C301.166,645.082 301.442,639.163 302.24,633.302C302.73,629.703 303.389,625.491 303.634,621.841ZM692.886,460.846C705.092,461.1 716.155,462.602 728.206,464.205C727.786,468.347 725.541,472.757 724.184,476.728C710.246,517.519 673.964,542.373 630.758,539.413C620.391,538.702 602.069,527.965 594.504,529.446L593.664,530.096C593.805,533.603 601.004,538.649 603.19,541.477C603.529,545.186 603.644,548.772 603.838,552.479C604.501,565.14 606.541,577.309 607.388,590.019C598.614,587.985 584.292,587.574 575.495,588.157C576.123,590.873 577.019,593.992 576.608,596.733L574.24,597.232C572.662,591.079 571.144,590.457 565.956,586.857C565.986,585.733 566.027,586.084 565.529,585.28C558.485,573.912 546.189,547.625 542.818,535.373C545.569,535.951 548.261,536.353 550.908,537.32C556.959,539.529 564.752,544.682 570.81,546.323C577.376,557.407 581.96,563.226 590.28,573.331C587.385,552.64 584.015,542.056 590.488,521.782C599.737,526.087 612.056,531.008 622.159,531.612C643.123,532.867 666.371,525.594 678.785,507.634C689.224,492.53 691.403,478.68 692.886,460.846ZM449.555,592.159C448.343,590.495 448.011,587.565 448.392,585.584C451.294,570.518 456.063,555.859 461.175,541.416C461.538,540.39 466.721,537.967 467.902,537.462C470.827,536.425 476.303,533.568 479.211,534.731L479.461,535.55C474.983,549.665 467.726,564.314 463.803,578.903C463.202,581.139 460.414,583.476 459.935,585.705C455.628,587.575 452.544,588.51 449.555,592.159ZM640.868,574.066C646.449,571.277 667.33,580.961 672.568,584.464C677.153,587.531 690.7,597.708 693.19,602.027L693.361,603.998C686.586,604.895 680.409,605.705 673.738,607.352C665.526,592.985 654.778,582.687 640.868,574.066ZM332.221,606.162L332.402,605.78L332.712,605.149C339.358,591.25 358.323,578.95 372.591,574.318C376.014,573.206 377.579,572.834 380.614,574.454C368.086,581.983 361.341,588.035 352.723,600.326C351.369,602.258 348.634,606.639 348.026,608.866C342.78,607.841 337.51,606.94 332.221,606.162Z" style="fill:rgb(197,126,26);"/>
        <path d="M258.163,749.952C254.574,761.696 254.041,773.683 253.958,785.82C248.223,771.494 243.299,764.613 238.744,748.434C239.551,745.675 240.363,739.072 241.391,735.149C245.228,721.063 251.501,707.757 259.925,695.833C263.766,690.324 268.944,685.24 273.617,680.423C275.154,678.839 279.434,675.999 279.825,674.118C274.09,676.16 268.299,678.042 262.46,679.761C272.654,665.288 284.702,656.823 301.492,650.987C317.477,645.584 324.833,644.54 341.35,643.136C359.584,642.908 381.378,647.764 399.395,650.392C404.896,651.194 414.886,651.338 420.774,651.57C391.184,640.631 363.594,626.47 332.499,619.66C318.685,616.635 306.866,615.609 292.832,614.517C283.195,614.178 273.815,615.157 264.222,616.035C259.373,616.478 252.349,616.849 247.698,617.761C244.369,618.332 240.651,618.562 237.256,618.848C241.713,614.608 243.679,613.037 249.069,610.117C267.169,606.367 284.021,604.269 302.559,604.053C312.466,603.937 322.386,605.151 332.221,606.162C337.51,606.94 342.78,607.841 348.026,608.866C373.522,615.363 380.945,624.081 407.714,619.334C398.543,615.607 386.371,610.963 376.902,608.536C378.931,604.591 381.478,600.399 383.72,596.531C392.088,597.649 403.735,597.356 412.289,597.267L448.179,596.801C445.259,610.831 448.745,630.732 462.886,637.646C463.344,637.121 467.178,635.177 468.829,633.725C469.779,633.523 470.737,633.361 471.702,633.246C474.269,632.941 483.091,633.041 484.793,634.363L484.63,635.091C479.838,657.088 504.693,654.512 502.86,672.768C500.968,682.577 486.058,692.984 478.402,697.344C463.355,705.913 441.647,716.092 424.105,711.171C406.256,706.164 390.089,692.523 382.23,675.822C403.912,683.277 413.09,681.737 434.784,676.518C421.418,674.907 413.194,670.939 400.772,667.623C378.507,661.68 355.966,655.455 332.732,658.239C322.931,659.414 312.519,661.922 302.943,664.196C298.005,665.387 295.392,667.152 291.131,669.777C285.23,674.558 284.933,678.496 281.037,684.335C268.702,702.822 260.349,724.987 257.465,747.021C257.323,748.106 257.74,748.965 258.163,749.952ZM717.022,664.182C709.663,662.511 699.031,659.388 692.079,658.398C668.148,654.989 644.695,660.074 621.959,667.221C611.071,670.644 599.443,674.874 588.273,676.337C610.571,682.696 618.121,681.917 639.525,676.014C638.781,677.672 637.946,679.288 637.024,680.854C628.061,696.178 603.037,713.656 584.513,712.281C567.408,711.011 548.946,701.424 535.365,691.334C529.108,686.684 521.592,680.365 519.832,672.369C517.32,661.041 532.124,656.259 536.595,647.74C539.475,642.315 539.068,639.19 537.692,633.47C543.281,632.554 553.457,633.731 558.926,635.491C559.017,635.915 559.241,636.372 559.414,636.79L560.475,636.661C563.858,634.47 566.783,631.643 569.09,628.338C575.163,619.564 576.036,607.485 574.24,597.232L576.608,596.733C580.724,597.341 586.279,597.06 590.531,597.022C606.428,596.883 622.384,597.178 638.275,596.951C640.885,600.927 642.591,603.885 644.673,608.202C634.022,611.013 621.305,614.809 611.269,619.413C620.747,620.667 627.715,621.231 637.215,619.465C645.867,617.299 664.162,610.457 673.738,607.352C680.409,605.705 686.586,604.895 693.361,603.998C717.235,602.057 749.041,603.578 771.918,610.582C776.74,613.046 779.632,615.378 783.286,619.388C780.378,618.866 776.368,618.037 773.514,617.742C757.826,615.125 741.939,613.891 726.035,614.055C690.279,616.166 672.549,621.614 639.143,635.628L599.609,651.63C605.036,651.382 614.52,651.491 619.52,650.6C640.251,646.907 658.751,643.503 679.964,643.459C694.032,643.695 707.952,646.38 721.099,651.394C735.405,657.791 750.356,666.074 759.242,679.401C754.638,678.56 746.289,675.942 742.032,673.824C742.324,675.499 747.777,680.228 749.287,681.671C770.923,702.342 776.444,725.149 780.474,753.187C777.865,762.616 770.83,776.547 766.071,785.171C766.151,764.72 764.878,753.594 756.698,734.227C756.995,733.797 757.258,733.199 757.5,732.716C757.409,729.306 756.009,726.081 755.116,722.737C752.35,712.378 747.118,702.077 741.234,693.118C739.059,689.807 735.77,686.338 733.539,682.936C731.362,679.618 729.341,676.236 727.115,672.961C724.851,669.63 721.133,668.19 719.478,664.632L717.022,664.182ZM597.39,773.856C589.397,792.861 578.723,806.345 563.09,819.866C569.765,804.151 571.524,800.314 572.305,783.581C552.204,809.341 536.35,828.755 510.363,848.702C482.142,826.345 470.644,811.953 448.392,783.303C449.042,797.483 451.759,807.085 457.586,820.087C443.456,807.326 432.794,794.827 425.072,777.043C428.664,775.368 435.52,769.02 439.607,766.298C465.469,749.077 493.435,733.369 525.741,739.103C547.891,743.034 566.683,754.293 585.376,766.283C587.279,767.503 596.731,773.172 597.39,773.856ZM569.827,483.594C569.72,482.001 569.26,480.606 570.312,479.586C573.18,476.83 577.12,475.523 580.348,473.246C608.59,453.318 629.38,414.965 666.838,411.611C684.948,409.989 702.589,421.54 715.734,432.829C694.716,435.327 674.867,428.584 657.326,438.211C653.059,440.051 648.68,441.898 644.508,443.932C624.664,453.606 606.899,467.246 587.344,477.483C581.064,480.77 577.127,483.366 569.827,483.594ZM376.556,443.306C374.684,441.619 371.169,440.06 368.843,438.917C355.922,432.569 348.261,432.993 334.495,433.578C325.356,432.925 315.575,433.957 306.632,433.151C317.325,421.793 335.406,411.594 351.007,411.484C386.426,411.235 409.826,446.459 434.386,467.086C439.006,470.966 445.523,474.306 450.27,478.202C452.419,479.966 452.158,481.233 452.051,483.615C438.677,483.4 394.099,451.072 376.556,443.306Z" style="fill:rgb(241,211,172);"/>
    </g>
</svg>
