<?xml version="1.0" encoding="UTF-8" standalone="no"?>
<!DOCTYPE svg PUBLIC "-//W3C//DTD SVG 1.1//EN" "http://www.w3.org/Graphics/SVG/1.1/DTD/svg11.dtd">
<svg width="100%" height="100%" viewBox="0 0 819 826" version="1.1" xmlns="http://www.w3.org/2000/svg" xmlns:xlink="http://www.w3.org/1999/xlink" xml:space="preserve" xmlns:serif="http://www.serif.com/" style="fill-rule:evenodd;clip-rule:evenodd;stroke-linejoin:round;stroke-miterlimit:2;">
    <g transform="matrix(1,0,0,1,-102.54,-107.65)">
        <path d="M791.652,473.427C793.807,487.256 796.658,511.779 793.38,525.735C788.348,547.162 767.326,575.874 754.658,593.649C742.05,611.341 723.95,630.077 707.902,644.523C702.988,648.946 697.116,653.254 692.673,657.402C685.561,646.919 679.121,636.246 671.37,626.091C669.988,624.28 667.176,619.514 665.756,618.335C665.136,620.165 665.19,620.319 665.058,622.183C664.444,618.194 666.4,611.384 669.088,608.542C678.72,598.361 689.736,589.146 699.968,579.563C714.858,565.46 729.203,550.792 742.969,535.591C751.043,526.786 792.064,482.984 791.652,473.427ZM358,619.333L357.457,619.043C355.434,619.878 331.733,653.008 329.13,656.822C304.36,636.165 277.842,609.36 259.898,582.321C249.351,565.015 235.055,544.344 230.106,524.631C227.255,513.275 228.414,490.023 230.765,478.695C232.457,480.199 233.611,481.704 234.946,483.517C239.739,490.026 244.968,496.185 250.127,502.404C261.243,515.672 272.789,528.573 284.747,541.086C296.387,553.396 309.108,566.4 321.417,578.012C332.045,588.039 343.973,596.89 353.797,607.987C358.771,613.605 356.798,613.982 358,619.333ZM433.466,611.318L432.757,611.137C431.726,613.4 430.674,617.631 430.157,620.213C427.244,634.768 420.124,653.212 421.318,667.979C421.208,667.906 421.097,667.833 420.986,667.761C412.709,661.462 407.945,647.924 406.093,638.135C405.288,633.879 404.946,624.366 405.106,620.567C405.784,604.467 414.585,541.877 421.839,531.661C424.193,543.995 431.622,571.169 437.922,581.478C438.131,589.889 431.882,602.798 433.466,611.318ZM602.892,666.942C601.853,660.109 591.844,616.717 589.081,612.504C589.566,609.494 583.343,591.303 583.476,583.054C590.698,573.967 597.982,543.099 600.708,531.14C602.89,533.904 603.652,541.269 604.051,544.889C606.107,563.551 610.034,581.174 615.329,599.152C616.752,603.982 617.42,609.792 618.464,614.753C621.245,630.326 615.714,646.642 607.818,659.925C606.35,662.399 605.177,665.185 602.892,666.942Z" style="fill:rgb(77,77,77);"/>
        <path d="M670.786,456.181C672.426,455.936 671.829,455.804 673.244,456.362C676.437,464.98 652.18,485.652 643.712,488.184C630.678,492.082 622.319,489.312 610.626,483.816C612,480.299 617.032,474.983 619.69,471.966C624.587,476.396 628.556,480.912 635.609,481.202C649.35,481.766 658.631,470.814 659.153,457.944L670.786,456.181ZM349.161,455.883C352.725,456.084 359.76,457.62 363.394,458.327C363.562,470.82 371.393,478.941 383.903,481.195C391.58,482.578 396.325,478.008 401.9,473.513C406.289,476.662 408.129,478.407 411.436,482.681C411.349,483.217 411.39,483.458 410.992,483.803C399.987,493.33 375.188,490.222 364.959,481.094C356.426,473.479 350.192,466.75 349.161,455.883ZM698.627,450.988L699.329,450.807C702.954,454.256 707.933,469.27 707.584,474.152C705.379,504.988 670.387,526.27 642.534,530.014C630.612,531.616 612.891,530.819 601.219,528.226C603.506,521.383 604.013,517.373 607.285,510.331C612.688,511.468 618.275,512.389 623.767,512.858C656.693,515.671 696.771,484.056 698.627,450.988ZM419.865,525.151C413.218,528.541 400.498,530.262 393.318,530.311C359.596,530.54 314.516,506.924 315.529,468.491C315.671,463.115 319.248,452.825 323.315,449.3C324.494,455.341 326.023,463.599 328.687,469.073C343.856,500.246 382.197,520.532 416.436,510.209C417.115,514.632 418.46,520.863 419.865,525.151Z" style="fill:rgb(179,179,179);"/>
        <path d="M230.765,478.695C234.11,466.331 236.053,452.979 239.716,440.819C247.402,415.303 257.067,389.635 268.146,365.418C273.252,354.256 281.693,343.44 287.908,332.96C294.393,322.024 300.765,312.8 308.955,303.094C306.195,299.872 298.407,294.021 294.847,291.164L269.484,270.72C246.747,252.403 220.898,229.632 197.422,213.021C197.823,252.62 204.668,296.006 218.531,333.235C220.667,338.973 223.388,344.589 225.172,350.449L225.379,351.142C201.766,327.702 184.031,301.152 175.926,268.521C169.873,244.154 164.804,215.261 171.265,190.601C172.081,187.487 172.765,183.753 174.53,181.038C175.717,179.213 177.574,178.528 179.65,178.2C212.145,173.063 281.621,224.317 306.387,245.213C312.647,250.496 318.63,256.005 324.559,261.653C329.357,266.224 334.087,271.173 339.47,275.049L340.093,275.493C374.908,252.422 414.071,239.074 454.118,228.535C509.389,213.989 565.763,222.724 617.857,244.238C627.531,248.233 637.995,251.459 647.458,256.018C658.287,261.601 670.373,269.155 680.848,275.587C685.107,271.418 689.046,266.753 693.407,262.514C701.279,254.862 709.653,248.388 718.168,241.507C748.565,216.941 784.259,193.343 822.047,182.061C828.321,180.188 835.593,177.76 842.14,177.897C844.104,177.939 848.61,178.879 849.322,180.535C854.003,191.434 855.675,208.013 854.795,219.237C850.782,270.394 839.839,311.613 800.16,346.489C819.808,296.46 824.236,265.271 826.566,211.437L752.203,270.898C740.457,280.362 723.634,293.245 713.309,303.382C722.371,314.525 729.19,324.844 736.773,337.014C743.11,347.937 753.939,361.195 758.17,373.046C768.697,402.531 779.718,432.626 787.72,462.94C788.795,467.015 790.773,468.579 791.652,473.427C792.064,482.984 751.043,526.786 742.969,535.591C729.203,550.792 714.858,565.46 699.968,579.563C689.736,589.146 678.72,598.361 669.088,608.542C666.4,611.384 664.444,618.194 665.058,622.183L665.986,655.351C666.197,666.118 666.34,680.365 667.377,691.065C657.255,694.167 646.807,697.742 636.92,701.56C631.506,703.652 614.367,708.085 611.32,711.491C608.122,711.764 604.612,711.62 601.37,711.571C603.826,698.104 602.331,682.273 601.545,668.667C602.118,668.13 602.424,667.596 602.892,666.942C605.177,665.185 606.35,662.399 607.818,659.925C615.714,646.642 621.245,630.326 618.464,614.753C617.42,609.792 616.752,603.982 615.329,599.152C610.034,581.174 606.107,563.551 604.051,544.889C603.652,541.269 602.89,533.904 600.708,531.14L601.219,528.226C612.891,530.819 630.612,531.616 642.534,530.014C670.387,526.27 705.379,504.988 707.584,474.152C707.933,469.27 702.954,454.256 699.329,450.807L698.627,450.988C698.777,446.414 702.34,443.96 705.363,440.772C715.905,429.653 727.067,419.191 736.715,407.254C706.306,416.001 673.994,421.575 643.498,430.141C637.317,431.878 611.021,436.056 608.561,438.563C595.968,451.398 576.026,471.073 563.91,483.885L577.935,555.843C579.7,564.926 581.94,573.953 583.476,583.054C583.343,591.303 589.566,609.494 589.081,612.504C589.3,621.345 588.817,630.096 589.334,638.977C568.244,641.965 531.76,657.066 511.639,665.385C496.846,659.259 448.849,641.303 434.454,641.629C434.458,631.821 433.819,621.188 433.466,611.318C431.882,602.798 438.131,589.889 437.922,581.478C445.155,547.977 452.068,517.622 458.049,483.539C449.884,475.091 441.068,466.901 432.78,458.369C427.134,452.557 418.877,442.737 412.871,437.856C410.458,435.895 393.971,434.262 389.728,433.14C380.309,430.65 370.276,428.073 360.744,425.74C336.761,419.935 312.715,414.393 288.61,409.117C298.645,422.01 311.866,433.402 322.479,445.871C323.09,446.589 323.238,448.362 323.315,449.3C319.248,452.825 315.671,463.115 315.529,468.491C314.516,506.924 359.596,530.54 393.318,530.311C400.498,530.262 413.218,528.541 419.865,525.151C420.576,527.305 421.234,529.476 421.839,531.661C414.585,541.877 405.784,604.467 405.106,620.567C404.946,624.366 405.288,633.879 406.093,638.135C407.945,647.924 412.709,661.462 420.986,667.761C421.097,667.833 421.208,667.906 421.318,667.979L421.388,668.424C418.851,676.029 420.906,707.614 419.055,711.264C418.678,711.301 417.931,711.405 417.591,711.369C409.282,706.411 402.705,705.659 393.961,702.644C381.014,698.18 368.717,694.732 355.51,691.076L358,619.333C356.798,613.982 358.771,613.605 353.797,607.987C343.973,596.89 332.045,588.039 321.417,578.012C309.108,566.4 296.387,553.396 284.747,541.086C272.789,528.573 261.243,515.672 250.127,502.404C244.968,496.185 239.739,490.026 234.946,483.517C233.611,481.704 232.457,480.199 230.765,478.695Z" style="fill:rgb(115,115,115);"/>
        <path d="M831.648,132.703C842.558,131.211 862.841,134.974 871.945,141.778C884.398,151.571 893.618,173.612 895.327,189.344C900.032,232.666 889.016,280.039 872.948,320.093C867.497,333.682 858.343,346.063 851.305,358.37C840.826,376.694 827.992,391.671 815.611,408.329C823.412,440.59 832.058,471.899 832.948,505.397C833.361,520.961 831.718,528.277 827.024,542.992C816.932,573.768 801.698,602.611 781.969,628.297C768.899,645.362 753.638,661.491 738.521,676.801C733.269,682.141 727.804,687.265 722.137,692.162C717.764,695.936 711.287,701.142 707.471,705.219L706.989,705.74C707.046,709.999 707.035,714.259 706.956,718.518C706.596,735.832 702.91,751.808 691.463,764.66C687.902,768.891 685.139,773.337 681.303,777.403C669.526,789.885 654.921,802.325 643.357,814.726C640.239,818.07 633.904,831.921 630.701,836.829C616.943,857.917 602.272,878.305 584.481,896.196C576.344,904.458 572.866,903.644 562.003,904.863C541.607,907.344 521.062,908.385 500.519,907.978C494.73,907.832 452.339,905.447 447.718,902.856C431.777,893.916 406.183,857.887 395.582,841.605C393.062,836.37 387.605,829.255 385.513,824.116C380.936,812.872 377.822,811.741 369.35,803.794C360.615,795.6 351.807,786.24 343.101,777.897C339.801,774.735 336.819,769.861 333.832,766.361C318.269,748.882 316.774,728.871 317.359,705.935C310.042,698.461 299.293,690.467 290.909,682.37C266.137,658.568 241.808,631.858 224.058,602.319C216.45,589.659 209.226,577.311 203.723,563.565C201.188,557.235 199.234,550.925 197.012,544.499C181.811,500.544 198.32,450.8 208.567,407.41C203.83,401.218 197.752,395.786 192.697,388.824C177.115,367.367 159.135,341.332 148.571,317.04C139.82,295.743 134.471,272.445 130.351,249.951C123.268,211.275 122.344,141.944 172.728,133.701C179.09,132.616 185.578,132.487 191.978,133.318C239.562,139.78 309.192,192.283 347.644,220.131C353.971,217.566 360.854,213.397 367.46,210.732C381.539,205.053 396.387,199.551 410.885,195.149C497.663,168.454 591.505,177.479 671.605,220.223C677.511,216.623 684.175,211.627 689.869,207.539L722.075,184.319C749.351,164.952 798.214,135.866 831.648,132.703ZM511.632,797.008C494.512,802.566 477.345,807.977 460.133,813.24C449.474,816.535 437.076,820.627 426.424,823.434C432.814,835.825 449.884,857.367 459.692,866.897C473.228,870.015 498.876,870.827 513.16,870.729C531.324,870.236 544.066,868.797 562.239,866.89C572.769,859.417 590.459,834.655 597.14,822.959C588.831,820.982 578.106,817.116 569.747,814.506C556.022,810.25 542.253,806.136 528.444,802.164C525.026,801.147 514.329,797.179 511.632,797.008ZM230.765,478.695C228.414,490.023 227.255,513.275 230.106,524.631C235.055,544.344 249.351,565.015 259.898,582.321C277.842,609.36 304.36,636.165 329.13,656.822C331.733,653.008 355.434,619.878 357.457,619.043L358,619.333L355.51,691.076C368.717,694.732 381.014,698.18 393.961,702.644C402.705,705.659 409.282,706.411 417.591,711.369C399.28,710.779 376.857,714.482 357.48,714.44C357.969,721.28 358.049,726.583 357.871,733.329C376.445,733.671 395.216,735.571 413.775,736.726C416.863,736.918 419.937,737.339 422.929,738.146C407.373,744.433 384.995,743.862 370.22,749.44C373.116,752.947 376.9,756.43 380.067,759.757C392.281,772.592 406.351,784.911 421.213,794.633C430.993,790.014 441.897,785.832 451.952,781.266C465.777,774.988 486.377,771.257 498.471,762.322C498.773,749.127 498.087,735.929 496.419,722.837C491.216,718.601 484.738,714.312 479.241,710.149C460.314,695.817 440.735,682.231 421.388,668.424L421.318,667.979C420.124,653.212 427.244,634.768 430.157,620.213C430.674,617.631 431.726,613.4 432.757,611.137L433.466,611.318C433.819,621.188 434.458,631.821 434.454,641.629C448.849,641.303 496.846,659.259 511.639,665.385C531.76,657.066 568.244,641.965 589.334,638.977C588.817,630.096 589.3,621.345 589.081,612.504C591.844,616.717 601.853,660.109 602.892,666.942C602.424,667.596 602.118,668.13 601.545,668.667C585.342,679.645 569.434,691.051 553.837,702.874C547.564,707.579 532.816,719.458 526.76,723.259C525.887,732.033 522.794,755.638 525.454,762.672C528.227,764.868 547.288,772.808 551.745,774.355C569.507,780.522 586.726,787.345 604.217,794.21C618.01,784.126 631.528,773.391 643.27,760.93C646.618,757.377 650.331,753.757 653.899,750.45C637.37,744.646 621.637,743.165 604.493,740.17C603.011,739.911 602.713,739.454 601.971,738.463L602.174,737.784C606.819,736.473 618.831,736.057 624.293,735.626C638.806,734.479 651.745,733.199 666.365,733.707C666.362,727.303 666.28,720.899 666.117,714.497C654.461,714.24 642.628,713.071 630.984,712.331C624.56,711.922 617.668,712.123 611.32,711.491C614.367,708.085 631.506,703.652 636.92,701.56C646.807,697.742 657.255,694.167 667.377,691.065C666.34,680.365 666.197,666.118 665.986,655.351L665.058,622.183C665.19,620.319 665.136,620.165 665.756,618.335C667.176,619.514 669.988,624.28 671.37,626.091C679.121,636.246 685.561,646.919 692.673,657.402C697.116,653.254 702.988,648.946 707.902,644.523C723.95,630.077 742.05,611.341 754.658,593.649C767.326,575.874 788.348,547.162 793.38,525.735C796.658,511.779 793.807,487.256 791.652,473.427C790.773,468.579 788.795,467.015 787.72,462.94C779.718,432.626 768.697,402.531 758.17,373.046C753.939,361.195 743.11,347.937 736.773,337.014C729.19,324.844 722.371,314.525 713.309,303.382C723.634,293.245 740.457,280.362 752.203,270.898L826.566,211.437C824.236,265.271 819.808,296.46 800.16,346.489C839.839,311.613 850.782,270.394 854.795,219.237C855.675,208.013 854.003,191.434 849.322,180.535C848.61,178.879 844.104,177.939 842.14,177.897C835.593,177.76 828.321,180.188 822.047,182.061C784.259,193.343 748.565,216.941 718.168,241.507C709.653,248.388 701.279,254.862 693.407,262.514C689.046,266.753 685.107,271.418 680.848,275.587C670.373,269.155 658.287,261.601 647.458,256.018C637.995,251.459 627.531,248.233 617.857,244.238C565.763,222.724 509.389,213.989 454.118,228.535C414.071,239.074 374.908,252.422 340.093,275.493L339.47,275.049C334.087,271.173 329.357,266.224 324.559,261.653C318.63,256.005 312.647,250.496 306.387,245.213C281.621,224.317 212.145,173.063 179.65,178.2C177.574,178.528 175.717,179.213 174.53,181.038C172.765,183.753 172.081,187.487 171.265,190.601C164.804,215.261 169.873,244.154 175.926,268.521C184.031,301.152 201.766,327.702 225.379,351.142L225.172,350.449C223.388,344.589 220.667,338.973 218.531,333.235C204.668,296.006 197.823,252.62 197.422,213.021C220.898,229.632 246.747,252.403 269.484,270.72L294.847,291.164C298.407,294.021 306.195,299.872 308.955,303.094C300.765,312.8 294.393,322.024 287.908,332.96C281.693,343.44 273.252,354.256 268.146,365.418C257.067,389.635 247.402,415.303 239.716,440.819C236.053,452.979 234.11,466.331 230.765,478.695ZM601.219,528.226L600.708,531.14C597.982,543.099 590.698,573.967 583.476,583.054C581.94,573.953 579.7,564.926 577.935,555.843L563.91,483.885C576.026,471.073 595.968,451.398 608.561,438.563C611.021,436.056 637.317,431.878 643.498,430.141C673.994,421.575 706.306,416.001 736.715,407.254C727.067,419.191 715.905,429.653 705.363,440.772C702.34,443.96 698.777,446.414 698.627,450.988C696.771,484.056 656.693,515.671 623.767,512.858C618.275,512.389 612.688,511.468 607.285,510.331C604.013,517.373 603.506,521.383 601.219,528.226ZM670.786,456.181L659.153,457.944C658.631,470.814 649.35,481.766 635.609,481.202C628.556,480.912 624.587,476.396 619.69,471.966C617.032,474.983 612,480.299 610.626,483.816C622.319,489.312 630.678,492.082 643.712,488.184C652.18,485.652 676.437,464.98 673.244,456.362C671.829,455.804 672.426,455.936 670.786,456.181ZM323.315,449.3C323.238,448.362 323.09,446.589 322.479,445.871C311.866,433.402 298.645,422.01 288.61,409.117C312.715,414.393 336.761,419.935 360.744,425.74C370.276,428.073 380.309,430.65 389.728,433.14C393.971,434.262 410.458,435.895 412.871,437.856C418.877,442.737 427.134,452.557 432.78,458.369C441.068,466.901 449.884,475.091 458.049,483.539C452.068,517.622 445.155,547.977 437.922,581.478C431.622,571.169 424.193,543.995 421.839,531.661C421.234,529.476 420.576,527.305 419.865,525.151C418.46,520.863 417.115,514.632 416.436,510.209C382.197,520.532 343.856,500.246 328.687,469.073C326.023,463.599 324.494,455.341 323.315,449.3ZM349.161,455.883C350.192,466.75 356.426,473.479 364.959,481.094C375.188,490.222 399.987,493.33 410.992,483.803C411.39,483.458 411.349,483.217 411.436,482.681C408.129,478.407 406.289,476.662 401.9,473.513C396.325,478.008 391.58,482.578 383.903,481.195C371.393,478.941 363.562,470.82 363.394,458.327C359.76,457.62 352.725,456.084 349.161,455.883Z" style="fill:rgb(5,42,0);"/>
        <path d="M668.755,191.086C697.563,169.247 728.46,148.007 760.382,131.089C771.605,125.141 780.87,120.068 792.908,115.714C803.515,111.84 814.575,109.342 825.817,108.281C848.175,106.062 870.402,109.38 887.726,124.583C928.718,160.557 925.081,223.38 913.572,271.753C907.995,294.682 901.486,317.906 890.818,339.072C877.726,365.047 860.975,392.417 842.462,414.796C849.956,441.738 858.501,486.795 856.927,514.742C853.05,564.385 825.34,614.74 794.731,652.951C779.947,671.407 758.281,693.738 741.013,709.344C737.717,712.285 734.487,715.299 731.325,718.384C728.141,763.352 713.483,781.631 681.742,811.643C677.002,816.125 665.758,826.415 661.946,831.218C660.671,832.824 653.557,847.287 651.596,850.529C642.294,865.819 631.789,880.343 620.18,893.964C615.256,899.813 596.137,922.079 589.818,925.019C575.942,929.044 561.054,930.315 546.459,931.503C510.293,934.449 471.858,933.859 436.271,926.381C431.837,925.449 422.495,915.007 419.021,911.375C402.305,893.816 387.3,874.705 374.21,854.3C371.375,849.828 363.591,833.307 361.393,831.035C325.035,793.449 296.556,777.5 292.792,718.724C286.183,711.6 277.353,704.493 270,697.382C223.876,652.778 178.901,592.188 168.101,527.619C162.673,495.165 173.869,446.498 181.343,414.647C157.642,385.398 134.439,349.008 121.413,313.495C97.748,248.975 78.356,112.323 180.525,107.716C215.731,106.537 244.063,121.417 273.285,138.606C300.345,154.504 326.376,172.094 351.22,191.272C375.52,181.008 396.802,172.65 422.62,166.008C488.906,149.513 558.496,152.007 623.431,173.206C640.953,178.77 652.326,184.757 668.755,191.086ZM831.648,132.703C798.214,135.866 749.351,164.952 722.075,184.319L689.869,207.539C684.175,211.627 677.511,216.623 671.605,220.223C591.505,177.479 497.663,168.454 410.885,195.149C396.387,199.551 381.539,205.053 367.46,210.732C360.854,213.397 353.971,217.566 347.644,220.131C309.192,192.283 239.562,139.78 191.978,133.318C185.578,132.487 179.09,132.616 172.728,133.701C122.344,141.944 123.268,211.275 130.351,249.951C134.471,272.445 139.82,295.743 148.571,317.04C159.135,341.332 177.115,367.367 192.697,388.824C197.752,395.786 203.83,401.218 208.567,407.41C198.32,450.8 181.811,500.544 197.012,544.499C199.234,550.925 201.188,557.235 203.723,563.565C209.226,577.311 216.45,589.659 224.058,602.319C241.808,631.858 266.137,658.568 290.909,682.37C299.293,690.467 310.042,698.461 317.359,705.935C316.774,728.871 318.269,748.882 333.832,766.361C336.819,769.861 339.801,774.735 343.101,777.897C351.807,786.24 360.615,795.6 369.35,803.794C377.822,811.741 380.936,812.872 385.513,824.116C387.605,829.255 393.062,836.37 395.582,841.605C406.183,857.887 431.777,893.916 447.718,902.856C452.339,905.447 494.73,907.832 500.519,907.978C521.062,908.385 541.607,907.344 562.003,904.863C572.866,903.644 576.344,904.458 584.481,896.196C602.272,878.305 616.943,857.917 630.701,836.829C633.904,831.921 640.239,818.07 643.357,814.726C654.921,802.325 669.526,789.885 681.303,777.403C685.139,773.337 687.902,768.891 691.463,764.66C702.91,751.808 706.596,735.832 706.956,718.518C707.035,714.259 707.046,709.999 706.989,705.74L707.471,705.219C711.287,701.142 717.764,695.936 722.137,692.162C727.804,687.265 733.269,682.141 738.521,676.801C753.638,661.491 768.899,645.362 781.969,628.297C801.698,602.611 816.932,573.768 827.024,542.992C831.718,528.277 833.361,520.961 832.948,505.397C832.058,471.899 823.412,440.59 815.611,408.329C827.992,391.671 840.826,376.694 851.305,358.37C858.343,346.063 867.497,333.682 872.948,320.093C889.016,280.039 900.032,232.666 895.327,189.344C893.618,173.612 884.398,151.571 871.945,141.778C862.841,134.974 842.558,131.211 831.648,132.703ZM511.632,797.008C514.329,797.179 525.026,801.147 528.444,802.164C542.253,806.136 556.022,810.25 569.747,814.506C578.106,817.116 588.831,820.982 597.14,822.959C590.459,834.655 572.769,859.417 562.239,866.89C544.066,868.797 531.324,870.236 513.16,870.729C498.876,870.827 473.228,870.015 459.692,866.897C449.884,857.367 432.814,835.825 426.424,823.434C437.076,820.627 449.474,816.535 460.133,813.24C477.345,807.977 494.512,802.566 511.632,797.008ZM611.32,711.491C617.668,712.123 624.56,711.922 630.984,712.331C642.628,713.071 654.461,714.24 666.117,714.497C666.28,720.899 666.362,727.303 666.365,733.707C651.745,733.199 638.806,734.479 624.293,735.626C618.831,736.057 606.819,736.473 602.174,737.784L601.971,738.463C602.713,739.454 603.011,739.911 604.493,740.17C621.637,743.165 637.37,744.646 653.899,750.45C650.331,753.757 646.618,757.377 643.27,760.93C631.528,773.391 618.01,784.126 604.217,794.21C586.726,787.345 569.507,780.522 551.745,774.355C547.288,772.808 528.227,764.868 525.454,762.672C522.794,755.638 525.887,732.033 526.76,723.259C532.816,719.458 547.564,707.579 553.837,702.874C569.434,691.051 585.342,679.645 601.545,668.667C602.331,682.273 603.826,698.104 601.37,711.571C604.612,711.62 608.122,711.764 611.32,711.491ZM421.388,668.424C440.735,682.231 460.314,695.817 479.241,710.149C484.738,714.312 491.216,718.601 496.419,722.837C498.087,735.929 498.773,749.127 498.471,762.322C486.377,771.257 465.777,774.988 451.952,781.266C441.897,785.832 430.993,790.014 421.213,794.633C406.351,784.911 392.281,772.592 380.067,759.757C376.9,756.43 373.116,752.947 370.22,749.44C384.995,743.862 407.373,744.433 422.929,738.146C419.937,737.339 416.863,736.918 413.775,736.726C395.216,735.571 376.445,733.671 357.871,733.329C358.049,726.583 357.969,721.28 357.48,714.44C376.857,714.482 399.28,710.779 417.591,711.369C417.931,711.405 418.678,711.301 419.055,711.264C420.906,707.614 418.851,676.029 421.388,668.424Z" style="fill:white;"/>
    </g>
</svg>
