<svg width="100%" height="100%" viewBox="0 0 777 817" version="1.1" xmlns="http://www.w3.org/2000/svg" xmlns:xlink="http://www.w3.org/1999/xlink" xml:space="preserve" xmlns:serif="http://www.serif.com/" style="fill-rule:evenodd;clip-rule:evenodd;stroke-linejoin:round;stroke-miterlimit:2;">
    <g transform="matrix(1,0,0,1,-123.799,-106.471)">
        <path d="M202.315,124.615C217.767,123.455 228.442,132.181 245.108,143.021C274.598,162.205 316.335,177.022 352.35,176.351C352.968,176.339 374.57,166.993 376.238,166.323C390.701,160.487 405.629,155.88 420.866,152.551C474.035,140.638 549.419,141.404 602.734,152.719C620.033,156.567 636.986,161.831 653.423,168.457C672.7,176.027 666.936,178.446 690.252,175.366C715.41,172.135 739.789,164.435 762.24,152.632C767.925,149.594 773.516,146.384 779.005,143.004C802.041,128.521 820.502,112.104 843.991,138.423C864.811,161.75 875.965,191.026 880.327,221.711C888.382,278.374 870.41,332.034 836.399,377.143C842.18,388.098 846.827,400.187 851.467,411.71C870.036,457.829 880.54,509.245 875.661,559.039C874.151,574.448 869.922,588.844 865.423,603.599C858.252,594.651 853.112,587.977 847.216,578.178C844.671,592.012 843.366,601.487 839.352,615.221C821.177,677.417 773.93,711.048 723.871,747.704C704.004,762.817 685.433,779.526 673.403,801.986C670.205,807.957 667.014,817.105 664.563,823.769C652.901,855.473 628.884,880.028 598.179,893.892C598.302,889.656 598.229,885.099 598.239,880.837C583.757,888.836 578.408,894.261 560.342,899.135C527.553,907.982 486.973,907.261 454.982,895.788C444.512,892.033 435.077,885.995 425.494,880.728L425.445,893.624C396.759,880.748 373.954,857.569 361.546,828.677C353.066,809.134 350.354,797.51 335.395,779.732C314.773,755.225 287.612,739.685 262.724,719.954C212.874,680.433 184.473,639.755 176.715,575.976C170.637,587.041 166.515,593.116 158.605,602.815C157.509,599.289 156.438,595.755 155.39,592.215C136.178,526.651 155.927,435.763 187.915,377.188C136.842,308.203 123.254,221.147 172.91,146.58C180.409,135.318 188.667,127.057 202.315,124.615Z" style="fill:white;fill-rule:nonzero;"/>
        <path d="M202.757,142.09C213.813,141.481 225.656,151.967 234.804,157.632C246.436,164.775 258.665,170.899 271.354,175.934C296.796,186.049 323.375,191.917 350.662,194.05C355.908,194.46 364.745,189.646 369.725,187.447C376.722,184.313 383.848,181.475 391.084,178.941C399.976,175.893 409.018,173.301 418.174,171.174C472.719,158.153 547.881,158.215 602.723,170.447C618.025,173.907 633.03,178.57 647.599,184.39C653.849,186.841 662.777,192.548 668.676,193.786C675.187,194.478 683.388,192.946 689.703,192.171C723.604,188.014 755.543,176.683 785.218,159.904C795.087,154.324 806.345,144.196 817.274,142.054C827.841,140.815 836.832,153.57 841.442,160.853C855.932,183.748 863.763,209.453 865.429,236.465C868.682,289.204 848.715,334.928 816.003,375.03C825.658,387.497 843.162,435.302 847.589,451.194C856.159,481.957 864.892,533.852 858.837,565.678C850.346,553.918 843.973,547.678 832.985,538.477C833.42,553.107 833.186,559.108 831.416,573.474C821.631,652.907 781.607,682.762 722.555,727.494C703.962,741.137 683.811,756.535 670.376,775.504C646.182,809.663 648.949,843.657 608.553,868.63L608.501,855.169C584.85,872.985 564.054,883.765 534.328,887.969C501.096,892.624 467.247,886.515 437.739,870.537C429.001,865.713 423.173,861.315 415.294,855.401C415.262,859.767 415.158,864.132 414.985,868.495C398.999,858.786 385.299,841.83 377.498,824.985C372.814,814.871 369.345,804.288 364.419,794.291C359.982,785.469 354.655,777.123 348.522,769.384C321.712,735.084 275.456,712.816 244.385,680.809C211.502,646.936 194.604,609.065 191.759,561.745C191.301,554.123 191.497,546.529 191.518,538.979C181.093,546.72 173.595,554.698 165.686,564.831C158.557,515.023 173.034,453.954 191.975,407.765C196.725,396.183 201.332,385.253 208.126,374.674C189.097,352.962 174.878,327.468 166.406,299.869C152.477,254.104 156.209,210.533 179.035,168.014C184.302,158.203 191.51,145.493 202.757,142.09ZM256.442,551.048C256.369,573.602 262.575,585.53 279.497,599.605C281.339,602.461 288.747,609.77 291.356,612.449C286.003,612.902 272.685,606.472 267.993,603.284C252.961,593.068 240.873,571.646 237.664,553.927C238.354,549.102 251.401,528.883 255.428,524.433C256.023,531.503 255.3,545.029 256.442,551.048ZM786.297,554.483C779.885,576.871 771.496,595.269 749.733,606.917C746.776,608.499 735.55,613.949 732.702,612.884C736.559,608.874 740.474,604.987 743.869,600.58C760.618,586.933 766.378,575.236 767.46,553.754C768.231,548.796 768.198,530.704 768.317,524.634C774.629,532.17 782.474,545.502 786.297,554.483ZM654.346,592.365C657.045,598.238 659.614,603.818 662.032,609.812C647.876,631.593 622.912,645.759 598.383,652.801C624.465,653.552 629.688,653.52 654.487,644.16C653.426,650.552 638.236,665.429 633.136,669.605C631.03,671.329 623.966,676.693 622.871,678.47C611.348,682.301 599.068,686.12 587.107,688.228C602.264,690.801 611.672,691.529 627.149,690.829L627.524,691.014L627.719,691.621C614.908,705.736 588.218,707.599 571.146,702.407C561.21,699.385 548.928,695.039 543.582,685.503C532.61,665.93 555.763,648.605 567.351,635.602C570.318,632.281 575.363,629.332 576.297,624.655C577.137,622.556 582.507,618.635 584.497,617.275C603.267,611.323 614.901,604.854 627.914,590.296C625.508,605.519 621.754,611.49 610.432,622.321C631.086,616.367 640.278,608.036 654.346,592.365ZM438.827,616.413C441.737,618.826 447.201,623.135 449.365,625.844C451.456,629.372 456.674,633.891 459.897,636.798C463.825,640.341 467.183,644.932 470.807,648.436C485.622,662.6 492.069,681.208 471.406,694.492C456.432,704.118 436.82,707.054 419.382,703.75C415.109,702.94 396.076,695.391 397.378,690.82C412.118,691.655 423.578,690.595 438.068,688.091C427.735,686.407 411.3,682.322 401.626,678.308C400.388,675.98 394.711,671.803 392.241,669.879C385.247,664.432 372.253,651.942 369.028,643.723C393.582,653.333 401.147,653.715 427.179,652.761C403.648,646.012 374.795,630.869 362.177,609.129C364.315,602.93 366.436,598.163 369.219,592.329C380.649,606.285 394.587,616.859 412.033,622.133C403.3,609.649 398.438,606.609 396.406,590.069C406.981,601.843 414.535,607.598 429.779,613.307C432.229,614.225 436.453,615.943 438.827,616.413ZM501.798,746.707C524.071,743.921 560.187,749.219 575.759,766.51C585.498,777.323 589.385,784.358 588.988,798.966C582.395,791.526 577.351,788.015 569.489,782.04C568.726,790.612 568.412,798.137 563.301,805.387C553.416,819.408 539.247,826.654 522.882,829.797C521.369,830.012 519.851,830.19 518.33,830.333C494.934,832.412 470.56,823.168 458.55,802.017C455.226,796.164 454.913,788.539 454.394,781.974C445.976,788.326 441.737,791.674 434.529,799.354C434.172,787.012 437.167,779.781 445.28,770.247C459.325,753.743 481.094,748.409 501.798,746.707ZM587.109,428.253L587.003,428.103C587.27,427.071 596.474,420.802 598.249,419.231C606.96,411.525 616.21,403.352 624.474,395.221C641.543,379.003 663.644,360.692 689.202,365.75C700.443,367.975 709.153,375.527 715.272,384.989C698.734,384.948 681.649,384.137 665.505,387.997C636.652,394.896 617.53,424.853 587.109,428.253ZM381.697,420.956C393.274,421.461 391.466,435.879 382.625,436.174C378.861,436.3 378.491,428.556 378.617,425.623C379.635,423.677 380.376,422.741 381.697,420.956ZM307.177,384.959C310.852,377.625 323.322,369.759 331.02,367.125C352.43,359.799 373.371,371.788 389.159,385.501C391.907,387.888 395.817,392.199 398.613,394.122C409.562,404.204 420.217,414.556 431.894,423.772C433.456,425.005 435.845,426.745 437.161,428.139C416.388,426.795 395.954,406.821 380.084,397.073C374.183,393.471 367.847,390.637 361.228,388.642C345.566,384.074 323.816,384.971 307.177,384.959ZM646.617,428.802C641.946,448.234 625.198,424.296 642.358,420.812C645.885,423.703 645.738,424.316 646.617,428.802Z" style="fill:rgb(2,2,2);"/>
        <path d="M237.664,553.927C236.728,554.882 235.884,555.8 234.861,556.662C232.145,511.696 242.821,481.826 254.293,440.159C240.601,447.111 231.585,457.58 222.137,469.425C221.314,460.682 223.886,442.932 225.54,433.958C226.484,428.843 230.148,421.495 229.67,416.494C232.57,409.201 236.208,402.636 239.602,395.564C244.039,386.317 247.899,377.253 253.078,368.334C260.783,355.067 269.819,341.946 276.737,328.258C277.924,325.908 279.615,319.254 280.301,316.643C285.851,311.389 288.93,303.549 290.225,296.27C292.592,282.608 275.701,264.331 265.351,257.922C242.419,243.724 220.205,232.338 211.619,204.565C210.576,201.19 209.85,193.695 208.008,191.277L207.989,185.301C219.41,197.894 235.579,211.027 249.968,219.922C257.691,224.661 265.597,229.093 273.668,233.21C293.45,243.365 307.704,248.66 319.127,269C334.677,249.159 347.681,236.196 369.527,222.8C399.387,204.491 435.031,195.907 469.664,193.038C474.719,192.619 486.497,191.942 490.921,193.153C498.313,195.177 507.96,214.49 511.698,221.298C518.737,212.455 522.469,199.781 532.871,193.078C578.953,189.949 638.957,206.643 674.447,236.507C681.246,242.339 687.685,248.578 693.728,255.19C697.933,259.884 701.366,264.458 705.799,269.148C718.238,246.105 730.415,242.916 752.778,231.327C762.742,226.164 775.826,218.57 784.944,212.124C790.731,208.048 796.302,203.672 801.634,199.016C803.811,197.08 813.997,186.523 814.974,186.193C816.021,187.21 815.672,187.595 815.817,189.537C812.901,193.901 814.241,198.259 812.734,202.897C807.667,218.492 797.335,231.938 783.895,241.472C765.374,254.612 728.6,271.159 734.038,299.239C735.28,305.654 739.656,313.978 744.215,318.598C745.964,324.054 747.442,329.139 750.45,334.064C755.367,342.113 760.457,349.847 765.184,358.021C773.077,371.671 779.962,385.531 786.702,399.768C788.869,404.375 795.746,418.199 796.845,422.847C796.384,426.982 798.667,433.532 799.302,437.779C800.407,445.169 802.688,462.219 801.299,469.141C793.115,458.979 781.852,445.362 769.714,440.188C782.033,485.069 790.838,510.399 789.163,558.543C787.544,556.869 787.352,556.564 786.297,554.483C782.474,545.502 774.629,532.17 768.317,524.634C768.198,530.704 768.231,548.796 767.46,553.754C766.058,548.19 765.218,545.349 761.14,540.866C755.374,545.703 745.865,558.606 739.323,565.502C735.014,567.509 731.829,571.125 727.891,573.301C720.408,577.436 712.107,581.668 703.902,584.125C697.46,586.054 688.212,589.625 681.599,589.571C658.721,560.012 647.157,555.638 616.692,538.67C629.077,558.132 644.146,569.037 654.346,592.365C640.278,608.036 631.086,616.367 610.432,622.321C621.754,611.49 625.508,605.519 627.914,590.296C614.901,604.854 603.267,611.323 584.497,617.275C586.289,615.642 587.572,613.913 588.903,611.921C607.479,584.104 595.354,560.264 590.059,531.712C585.365,549.469 584.291,556.736 583.069,575.055C555.6,564.13 540.873,578.068 513.945,580.28C508.179,580.754 500.978,578.724 495.415,577.27C476.722,572.385 459.707,565.956 441.371,575.874C440.719,570.678 440.509,564.569 439.916,559.155C438.742,548.435 436.918,541.396 433.755,531.366C430.643,564.618 413.422,584.604 438.827,616.413C436.453,615.943 432.229,614.225 429.779,613.307C414.535,607.598 406.981,601.843 396.406,590.069C398.438,606.609 403.3,609.649 412.033,622.133C394.587,616.859 380.649,606.285 369.219,592.329C370.729,589.447 372.267,586.639 373.835,583.791C383.274,566.65 397.458,554.202 408.081,537.827C400.269,542.577 391.354,547.111 383.338,551.861C365.278,562.561 354.942,573.646 342.442,589.777C336.547,589.019 329.314,586.715 323.538,585.19C314.879,582.903 306.419,579.235 298.508,575.09C294.117,572.789 290.341,569.084 285.678,567.001C281.985,563.183 278.896,559.818 275.457,555.766C271.386,550.969 267.559,544.733 262.636,540.986C258.863,544.949 258.18,545.935 256.442,551.048C255.3,545.029 256.023,531.503 255.428,524.433C251.401,528.883 238.354,549.102 237.664,553.927ZM352.382,268.117C381.363,265.419 366.248,300.836 339.878,308.337C310.173,315.099 328.29,275.206 352.382,268.117ZM607.752,217.683C616.616,216.732 625.718,220.054 633.071,225.076C638.514,228.793 648.56,238.153 643.249,245.401C640.265,249.472 633.385,250.262 628.634,250.968C618.311,251.42 609.395,249.946 600.379,244.307C594.264,240.483 586.891,231.575 592.086,224.131C595.26,219.583 602.462,218.349 607.752,217.683ZM278.997,444.579L279.953,444.497C288.175,443.879 290.577,448.161 289.452,455.853C287.442,469.603 281.353,482.41 271.16,491.851C264.797,496.663 263.157,489.787 262.762,484.502C261.754,471.012 265.32,450.869 278.997,444.579ZM437.161,428.139C437.866,428.333 438.608,428.325 439.346,428.281C451.79,427.539 461.274,421.969 469.58,413.204C486.435,395.038 487.329,365.21 484.448,341.821C500.35,373.233 502.176,419.36 473.616,443.962C458.015,457.4 452.354,466.197 452.38,487.559C452.395,499.896 452.896,511.895 453.872,524.291C447.371,512.58 440.867,496.988 429.254,490.373C428.917,491.58 428.024,494.874 427.361,495.748C423.238,501.186 416.01,505.402 410.607,509.876C412.135,502.237 415.091,488.466 413.081,480.849C412.242,478.249 411.189,475.609 410.218,473.047C405.431,474.031 400.124,475.136 395.271,475.577C378.046,477.134 360.927,471.646 347.817,460.366C334.947,449.409 329.045,435.168 327.75,418.628C328.354,407.471 324.338,403.324 315.068,397.774C311.223,395.473 307.302,393.384 303.319,391.309C304.839,389.035 305.977,387.44 307.177,384.959C310.852,377.625 323.322,369.759 331.02,367.125C352.43,359.799 373.371,371.788 389.159,385.501C391.907,387.888 395.817,392.199 398.613,394.122C409.562,404.204 420.217,414.556 431.894,423.772C433.456,425.005 435.845,426.745 437.161,428.139ZM469.25,249.178C501.065,246.054 499.524,296.765 475.994,299.367C447.572,293.745 438.754,252.526 469.25,249.178ZM411.804,217.695C443.781,214.911 440.375,245.861 403.054,250.994C360.428,252.47 383.587,220.51 411.804,217.695ZM298.751,497.895C303.48,497.977 307.62,504.248 311.073,507.438C317.009,512.921 320.996,515.43 322.603,523.677C320.672,530.769 316.687,533.201 310.876,537.041C296.085,545.044 290.088,529.142 289.35,517.092C288.852,508.956 291.403,502.097 298.751,497.895ZM308.747,447.2C310.06,448.087 316.272,456.573 317.899,458.767C327.467,471.663 337.598,480.859 350.696,489.808C362.528,497.893 377.898,499.611 388.693,505.798C386.23,509.123 385.213,510.13 382.175,512.995C367.253,525.213 358.499,520.39 344.812,509.798C323.621,493.401 312.268,473.592 308.747,447.2ZM579.538,306.067C594.275,304.892 603.69,312.909 598.749,328.424C595.661,338.121 584.979,345.172 576.139,349.341C567.563,352.89 561.794,352.55 559.075,342.141C557.089,334.229 558.304,325.853 562.456,318.83C566.614,311.773 571.614,308.049 579.538,306.067ZM299.599,331.126C321.434,327.994 298.177,356.885 292.007,359.686C283.316,358.953 279.731,354.269 283.35,345.982C286.644,338.435 292.243,334.135 299.599,331.126ZM719.374,330.586C734.388,331.196 750.636,351.349 736.685,358.968C728.756,361.207 722.649,350.023 718.458,344.562C714.796,339.792 713.092,333.997 719.374,330.586ZM617.958,270.123C637.929,270.163 643.553,292.243 628.352,297.556C623.6,297.657 621.695,297.471 617.256,294.676C611.234,290.885 605.222,281.185 609.709,274.281C611.546,271.456 614.779,270.701 617.958,270.123ZM549.387,249.141C568.311,247.814 578.021,260.175 572.52,278.796C569.909,287.634 561.917,293.779 553.841,297.697C530.607,306.771 517.458,256.67 549.387,249.141ZM404.121,270.141C423.694,269.457 417.358,292.186 399.776,297.541C383.689,298.783 380.723,273.914 404.121,270.141ZM470.763,202.617C476.788,202.295 482.787,204.883 483.481,211.533C483.829,214.944 482.714,218.343 480.412,220.885C476.243,225.449 469.87,226.93 463.924,227.056C438.154,221.704 455.9,205.184 470.763,202.617ZM549.299,202.538C557.126,202.274 574.872,209.35 572.298,219.954C571.492,223.275 566.31,225.136 563.37,226.317C542.066,230.558 530.55,208.322 549.299,202.538ZM664.61,268.074C681.697,266.631 695.8,282.74 699.564,298.263C701.167,304.873 697.398,308.288 691.243,309.367C677.807,308.362 663.616,298.351 657.852,286.226C653.898,277.91 656.184,271.543 664.61,268.074ZM723.118,497.985C727.531,498.175 730.559,500.519 732.507,504.455C737.588,514.717 734.92,532.693 724.323,538.546C721.25,540.244 718.498,539.303 715.469,538.179C708.814,534.679 704.645,531.555 701.443,524.568C702.599,514.158 708.469,512.62 714.86,505.557C717.496,502.644 719.598,499.837 723.118,497.985ZM362.022,323.121C390.6,320.672 402.83,342.254 408.022,367.166C403.815,362.877 401.282,360.649 396.283,357.362C383.151,349.483 371.667,347.153 356.887,344.333C352.356,343.469 342.23,342.491 340.445,338.047C341.292,330.929 355.79,324.717 362.022,323.121ZM715.272,384.989C717.22,387.713 718.533,389.465 720.053,392.455C707.847,398.862 695.585,402.673 696.217,418.516C694.728,435.558 688.332,449.964 675.007,461.111C661.661,472.115 644.45,477.291 627.247,475.475C622.531,474.999 618.185,474.011 613.575,472.952L611.031,480.568C609.889,488.644 610.837,494.624 612.332,502.62L613.739,510.166C611.399,508.133 609.035,506.128 606.646,504.152C599.387,499.042 596.771,498.563 594.595,490.086C583.01,497.401 577.135,513.02 569.947,524.454C570.955,517.532 571.264,507.111 571.555,500.153C572.371,480.639 572.146,462.55 555.906,449.054C545.464,440.377 538.87,434.067 533.704,420.799C525.156,398.845 526.796,370.427 536.137,349.021L539.028,342.408L538.98,349.579C538.645,370.178 538.659,397.331 554.303,413.006C563.048,422.1 573.049,426.964 586.222,428.341C586.518,428.312 586.814,428.282 587.109,428.253L587.003,428.103C587.27,427.071 596.474,420.802 598.249,419.231C606.96,411.525 616.21,403.352 624.474,395.221C641.543,379.003 663.644,360.692 689.202,365.75C700.443,367.975 709.153,375.527 715.272,384.989ZM664.341,534.459C668.286,534.736 672.423,536.023 676.256,536.472C690.939,538.191 707.274,549.455 695.208,565.601C686.566,571.705 677.551,564.267 671.499,557.955C665.089,551.269 660.489,543.88 664.341,534.459ZM356.84,534.666C362.265,534.272 361.287,543.064 360.129,546.297C357.254,554.323 350.184,562.085 342.785,566.233C339.096,568.301 335.084,568.547 331.167,567.296C328.455,565.054 325.328,561.583 325.099,557.914C323.966,539.794 343.705,536.736 356.84,534.666ZM752.041,385.601C768.303,387.415 775.698,413.08 758.502,418.09C743.055,414.425 731.929,389.146 752.041,385.601ZM269.003,386.118C279.174,384.601 284.765,391.063 282.247,401.068C280.497,408.02 274.782,413.368 268.884,417.093C263.075,418.929 260.527,416.352 256.982,411.953C254.342,400.922 258.383,390.686 269.003,386.118ZM436.283,306.096C443.476,305.37 448.9,306.015 454.977,310.972C465.526,319.576 470.657,337.742 461.358,348.989C459.592,351.124 458.082,351.748 455.347,351.826C443.642,348.861 429.442,340.089 425.166,328.338C421.286,317.675 425.802,309.408 436.283,306.096ZM714.856,446.875C716.275,455.664 705.643,478.915 700.064,487.029C691.896,498.909 675.183,515.943 660.747,519.86C654.695,521.502 647.853,517.215 643.063,513.752C639.921,510.907 638.356,509.343 635.778,506.034C642.017,502.61 654.73,498.646 662.198,495.588C684.161,486.597 701.877,466.477 714.856,446.875ZM655.073,322.693C657.111,322.652 659.554,322.946 661.582,323.162C667.817,323.826 684.538,331.733 683.332,338.896C682.267,340.431 681.374,341.075 679.495,341.532C664.069,345.282 649.081,347.139 634.352,353.639C626.736,357.338 622.22,361.021 615.995,366.659C621.449,344.501 629.398,325.023 655.073,322.693ZM738.977,444.538C743.42,444.359 746.333,444.578 749.874,447.601C760.323,456.522 765.819,483.199 756.975,494.034C749.417,491.444 744.145,484.365 740.877,477.268C737.06,468.981 732.9,456.956 734.989,447.815C735.377,446.116 737.554,445.208 738.977,444.538Z" style="fill:rgb(233,152,26);"  data-color="color-2"/>
        <path d="M398.613,394.122C402.246,394.327 405.208,396.128 408.438,397.577C427.402,406.087 448.628,413.281 469.58,413.204C461.274,421.969 451.79,427.539 439.346,428.281C438.608,428.325 437.866,428.333 437.161,428.139C435.845,426.745 433.456,425.005 431.894,423.772C420.216,414.557 409.562,404.204 398.613,394.122ZM554.303,413.006C571.056,413.779 590.752,408.346 606.32,402.174C612.166,399.856 618.264,396.496 624.474,395.221C616.21,403.352 606.959,411.524 598.249,419.231C596.474,420.802 587.27,427.071 587.003,428.103L587.109,428.253C586.814,428.282 586.518,428.312 586.222,428.341C573.049,426.964 563.048,422.1 554.303,413.006ZM815.817,189.537C817.758,215.978 814.413,233.367 796.476,254.292C792.375,259.11 787.811,263.514 782.85,267.44C777.85,271.354 771.504,274.862 766.923,278.58C755.875,287.547 743.036,301.846 744.088,317.031C744.124,317.554 744.167,318.076 744.215,318.598C739.656,313.978 735.28,305.654 734.038,299.239C728.6,271.159 765.374,254.612 783.895,241.472C797.335,231.938 807.667,218.492 812.734,202.897C814.241,198.259 812.901,193.901 815.817,189.537ZM280.301,316.643C280.874,300.941 267.082,286.654 255.605,277.487C250.504,273.528 244.561,270.417 239.579,266.312C216.033,246.91 204.34,221.848 208.008,191.277C209.85,193.695 210.576,201.19 211.619,204.565C220.205,232.338 242.419,243.724 265.351,257.922C275.701,264.331 292.592,282.608 290.225,296.27C288.93,303.549 285.851,311.389 280.301,316.643ZM222.137,469.425C219.815,473.408 212.933,482.118 209.671,487.073C210.995,481.039 211.507,474.089 212.896,467.859C216.677,450.902 222.328,432.218 229.67,416.494C230.148,421.495 226.484,428.843 225.54,433.958C223.886,442.932 221.314,460.682 222.137,469.425ZM796.845,422.847C805.35,439.152 811.672,468.194 813.955,486.454C810.011,480.63 804.701,474.305 801.299,469.141C802.688,462.219 800.407,445.169 799.302,437.779C798.667,433.532 796.384,426.982 796.845,422.847ZM743.869,600.58C740.474,604.987 736.559,608.874 732.702,612.884C728.162,616.912 722.602,623.107 718.358,627.622C710.901,635.479 703.553,643.439 696.317,651.5C697.216,630.346 692.223,607.951 681.599,589.571C688.212,589.625 697.46,586.054 703.902,584.125C712.107,581.668 720.408,577.436 727.891,573.301C731.829,571.125 735.014,567.509 739.323,565.502C727.101,583.487 722.751,591.818 713.431,611.718C722.356,610.468 727.754,609.054 735.917,604.839C738.044,603.74 741.88,601.388 743.869,600.58ZM342.442,589.777C330.088,608.562 327.461,629.582 328.002,651.417C320.902,643.542 313.71,635.75 306.428,628.043C302.335,623.629 295.816,616.238 291.356,612.449C288.747,609.77 281.339,602.461 279.497,599.605C280.809,600.13 285.447,602.925 287.026,603.772C295.408,608.267 301.499,610.588 310.889,611.453C305.757,600.629 300.497,589.574 294.272,579.316C291.837,575.304 288.431,570.993 285.678,567.001C290.341,569.084 294.117,572.789 298.508,575.09C306.419,579.235 314.879,582.903 323.538,585.19C329.314,586.715 336.547,589.019 342.442,589.777Z" style="fill:rgb(176,104,8);"  data-color="color-3"/>
        <path d="M413.081,480.849C389.543,495.398 351.833,486.391 335.55,464.536C326.924,452.958 317.794,432.323 323.902,417.773C324.435,416.503 325.064,416.185 326.242,415.862C327.675,416.827 327.214,416.44 327.75,418.628C329.045,435.168 334.947,449.409 347.817,460.366C360.927,471.646 378.046,477.134 395.271,475.577C400.124,475.136 405.431,474.031 410.218,473.047C411.189,475.609 412.242,478.249 413.081,480.849ZM696.217,418.516C696.665,416.454 696.248,416.815 697.559,415.805C705.143,417.709 701.632,435.547 700.31,440.799C691.59,475.446 655.792,494.609 621.839,485.65C618.503,484.77 613.818,482.756 611.031,480.568L613.575,472.952C618.185,474.011 622.531,474.999 627.247,475.475C644.45,477.291 661.661,472.115 675.007,461.111C688.332,449.964 694.728,435.558 696.217,418.516ZM789.163,558.543C785.957,628.253 738.289,663.504 684.921,698.14C690.894,680.469 694.036,670.146 696.317,651.5C703.553,643.439 710.901,635.479 718.358,627.622C722.602,623.107 728.162,616.912 732.702,612.884C735.55,613.949 746.776,608.499 749.733,606.917C771.497,595.271 779.885,576.871 786.297,554.483C787.352,556.564 787.544,556.869 789.163,558.543ZM237.664,553.927C240.873,571.646 252.96,593.069 267.993,603.284C272.685,606.472 286.003,612.902 291.356,612.449C295.816,616.238 302.335,623.629 306.428,628.043C313.71,635.75 320.902,643.542 328.002,651.417C330.603,673.843 333.46,678.055 339.199,698.133C320.099,686.346 299.976,670.634 282.796,656.348C254.083,632.472 235.283,594.134 234.861,556.662C235.884,555.8 236.728,554.882 237.664,553.927ZM502.972,725.206C533.01,722.946 561.829,732.227 585.853,750.134C594.982,756.939 599.747,762.16 601.325,774.016C603.272,788.658 599.834,806.087 592.219,818.707C588.852,824.288 583.987,830.486 579.972,835.751C580.09,825.963 580.246,819.845 575.941,811.032C566.264,828.558 540.309,845.461 520.613,848.468C492.505,852.306 462.363,834.428 448.083,810.871C443.851,820.022 443.82,825.592 444.009,835.332C431.05,820.901 424.595,807.366 422.418,788.092C420.146,767.97 425.037,758.581 441.577,747.65C461.442,734.522 479.274,727.347 502.972,725.206ZM501.798,746.707C481.094,748.409 459.325,753.743 445.28,770.247C437.167,779.781 434.172,787.012 434.529,799.354C441.737,791.674 445.976,788.326 454.394,781.974C454.913,788.539 455.226,796.164 458.55,802.017C470.56,823.168 494.934,832.412 518.33,830.333C519.851,830.19 521.369,830.012 522.882,829.797C539.247,826.654 553.416,819.408 563.301,805.387C568.412,798.137 568.726,790.612 569.489,782.04C577.351,788.015 582.395,791.526 588.988,798.966C589.385,784.358 585.498,777.323 575.759,766.51C560.187,749.219 524.071,743.921 501.798,746.707ZM654.487,644.16C659.479,641.43 664.128,639.469 668.88,636.255C667.576,645.531 665.816,652.992 662.037,661.63C653.643,667.333 632.901,675.931 622.871,678.47C623.966,676.693 631.03,671.329 633.136,669.605C638.236,665.429 653.426,650.552 654.487,644.16ZM627.149,690.829C627.72,690.592 632.83,690.002 633.898,689.833C640.219,688.834 646.255,687.616 652.455,686.052C649.104,690.952 645.303,695.528 641.101,699.721C632.292,708.511 613.715,722.915 600.32,722.16C581.34,721.091 545.355,710.962 531.19,697.496C522.513,689.248 524.179,673.812 524.368,662.799C532.939,659.103 542.685,654.652 547.256,645.986C546.901,636.867 546.369,634.931 552.213,627.313C555.423,623.129 561.312,617.199 566.753,616.554C572.96,615.818 571.304,622.345 574.717,625.007L576.297,624.655C575.363,629.332 570.318,632.281 567.351,635.602C555.763,648.605 532.61,665.93 543.582,685.503C548.928,695.039 561.21,699.385 571.146,702.407C588.218,707.599 614.908,705.736 627.719,691.621L627.524,691.014L627.149,690.829ZM449.365,625.844C452.785,618.968 454.108,612.629 463.021,618.931C467.611,622.177 470.45,625.694 473.676,630.238C477.586,635.747 476.551,639.609 477.061,645.931C482.36,654.36 490.421,658.432 499.095,662.896C500.773,690.02 498.108,699.001 470.812,709.886C456.629,715.542 441.631,721.045 426.189,722.338C405.682,723.488 382.181,701.173 371.194,686C380.171,688.354 388.38,689.195 397.378,690.82C396.076,695.391 415.109,702.94 419.382,703.75C436.82,707.054 456.432,704.118 471.406,694.492C492.069,681.208 485.622,662.6 470.807,648.436C467.183,644.932 463.825,640.341 459.897,636.798C456.674,633.891 451.456,629.372 449.365,625.844ZM401.626,678.308C391.592,676.203 370.652,667.003 362.011,661.681C358.249,654.194 356.421,644.517 355.405,636.295C360.304,639.284 363.85,641.219 369.028,643.723C372.253,651.942 385.247,664.432 392.241,669.879C394.711,671.803 400.388,675.98 401.626,678.308ZM818.353,274.971C818.62,277.281 815.893,283.937 815.06,286.672C807.618,311.101 800.386,325.595 785.383,346.157C782.408,337.967 780.004,333.058 775.418,325.734C776.47,323.245 777.982,320.622 779.276,318.223C783.624,311.914 787.226,308.925 793.231,304.264C782.426,306.69 776.834,308.368 766.404,312.061C779.185,298.119 801.699,287.889 818.353,274.971ZM204.947,274.806C207.605,276.205 215.7,282.353 219.125,284.531C233.421,293.622 245.839,299.679 257.851,311.992C246.511,307.671 241.979,306.349 229.852,304.03C236.018,308.579 238.881,311.085 243.521,317.087C245.613,320.441 246.578,322.382 248.241,325.995C244.665,333.62 241.98,338.041 238.701,346.159C221.475,322.479 213.335,302.782 204.947,274.806Z" style="fill:rgb(213,189,148);"  data-color="color-4"/>
        <path d="M348.82,158.37C354.299,156.047 368.33,150.102 369.502,149.631C384.888,143.422 400.768,138.52 416.977,134.976C472.386,122.571 550.922,123.322 606.557,135.129L606.642,135.148C624.879,139.205 642.752,144.752 660.048,151.721C674.651,157.464 670.184,159.861 687.927,157.517L687.959,157.513C710.972,154.557 733.272,147.517 753.832,136.716C759.143,133.876 764.367,130.877 769.508,127.713C780.172,121.005 790.051,114.104 799.724,110.294C809.033,106.627 818.31,105.396 827.82,107.49C837.161,109.546 847.137,114.915 857.42,126.437C880.628,152.439 893.286,184.974 898.148,219.178C906.359,276.943 889.921,331.909 857.308,378.943C861.215,387.496 864.702,396.388 868.164,404.987C887.798,453.751 898.734,508.144 893.575,560.794C891.948,577.404 887.49,592.944 882.64,608.849L872.697,641.459L856.384,621.103C836.866,686.791 787.703,723.271 734.626,762.139C716.862,775.662 700.03,790.397 689.27,810.485C686.413,815.82 683.647,824.028 681.456,829.983C668.113,866.258 640.718,894.434 605.586,910.297L579.351,922.143L579.658,911.589C575.585,913.309 570.914,914.926 565.031,916.514C528.891,926.265 484.166,925.377 448.905,912.731C447.037,912.061 445.197,911.327 443.381,910.544L443.34,921.386L418.074,910.046C385.284,895.327 359.213,868.836 345.022,835.814C337.345,818.116 335.174,807.427 321.622,791.321C301.789,767.751 275.478,753.036 251.542,734.059C209.477,700.711 181.732,666.482 167.583,620.286L151.367,640.171L141.416,608.158C140.296,604.554 139.202,600.943 138.123,597.301L138.116,597.277C118.761,531.225 136.075,440.923 166.877,378.646C116.782,305.055 106.026,214.543 157.928,136.603C168.308,121.014 180.252,110.277 199.145,106.896L200.05,106.734L200.968,106.666C220.205,105.221 234.174,114.437 254.923,127.932C280.777,144.751 316.954,158.075 348.82,158.37ZM202.315,124.615C188.667,127.057 180.409,135.318 172.91,146.58C123.254,221.147 136.842,308.203 187.915,377.188C155.927,435.763 136.178,526.651 155.39,592.215C156.438,595.755 157.509,599.289 158.605,602.815C166.515,593.116 170.637,587.041 176.715,575.976C184.473,639.755 212.874,680.433 262.724,719.954C287.612,739.685 314.773,755.225 335.395,779.732C350.354,797.51 353.066,809.134 361.546,828.677C373.954,857.569 396.759,880.748 425.445,893.624L425.494,880.728C435.077,885.995 444.512,892.033 454.982,895.788C486.973,907.261 527.553,907.982 560.342,899.135C578.408,894.261 583.757,888.836 598.239,880.837C598.229,885.099 598.302,889.656 598.179,893.892C628.884,880.028 652.901,855.473 664.563,823.769C667.014,817.105 670.205,807.957 673.403,801.986C685.433,779.526 704.004,762.817 723.871,747.704C773.93,711.048 821.177,677.417 839.352,615.221C843.366,601.487 844.671,592.012 847.216,578.178C853.112,587.977 858.252,594.651 865.423,603.599C869.922,588.844 874.151,574.448 875.661,559.039C880.54,509.245 870.036,457.829 851.467,411.71C846.827,400.187 842.18,388.098 836.399,377.143C870.41,332.034 888.382,278.374 880.327,221.711C875.965,191.026 864.811,161.75 843.991,138.423C820.502,112.104 802.041,128.521 779.005,143.004C773.516,146.384 767.925,149.594 762.24,152.632C739.789,164.435 715.41,172.135 690.252,175.366C666.936,178.446 672.7,176.027 653.423,168.457C636.986,161.831 620.033,156.567 602.734,152.719C549.419,141.404 474.035,140.638 420.866,152.551C405.629,155.88 390.701,160.487 376.238,166.323C374.57,166.993 352.968,176.339 352.35,176.351C316.335,177.022 274.598,162.205 245.108,143.021C228.442,132.181 217.767,123.455 202.315,124.615ZM354.451,429.329C354.336,425.305 355.085,416.55 357.2,413.495C360.708,408.43 378.454,418.509 381.697,420.956C380.376,422.741 379.635,423.677 378.617,425.623C375.826,426.996 377.028,433.507 377.478,436.269C383.821,450.8 401.127,459.473 409.776,442.042C412.319,439.823 417.775,446.711 419.142,448.718C422.68,453.914 417.265,457.26 413.12,459.202C395.797,464.959 378.923,462.046 363.933,450.791C356.8,445.436 355.089,437.793 354.451,429.329ZM610.817,458.92C607.117,457.3 605.105,455.181 602.933,451.903C605.11,447.955 609.024,441.995 613.836,441.437C623.983,457.318 640.316,453.793 646.49,436.89C646.533,433.581 647.404,432.35 646.617,428.802C645.738,424.316 645.885,423.703 642.358,420.812C647.096,417.988 650.862,416.031 655.824,413.663C669.252,407.254 669.456,419.096 669.564,429.297C668.264,438.838 667.279,445.619 658.893,451.86C647.227,460.543 624.173,466.528 610.817,458.92ZM460.227,578.997C475.051,580.253 493.316,590.875 508.429,592.361C522.401,593.735 536.616,585.462 549.799,581.624C556.035,579.808 559.514,579.275 565.975,578.75C562.695,580.79 559.908,582.418 556.668,584.618C531.455,604.971 510.653,616.789 480.719,594.325C473.23,588.705 468.682,583.55 460.227,578.997Z" style="fill:rgb(64,0,121);"  data-color="color-1"/>
        <path d="M377.478,436.269C383.821,450.8 401.127,459.473 409.776,442.042C412.661,447.802 412.827,452.871 413.12,459.202C395.797,464.959 378.923,462.046 363.933,450.791C356.8,445.436 355.089,437.793 354.451,429.329C366.587,430.879 368.486,434.064 377.478,436.269ZM669.564,429.297C668.264,438.838 667.279,445.619 658.893,451.86C647.227,460.543 624.173,466.528 610.817,458.92C611.076,451.991 611.842,448.112 613.836,441.437C623.983,457.318 640.316,453.793 646.49,436.89C654.43,433.154 660.866,430.309 669.564,429.297Z" style="fill:white;"/>
    </g>
</svg>
