<svg width="100%" height="100%" viewBox="0 0 877 849" version="1.1" xmlns="http://www.w3.org/2000/svg" xmlns:xlink="http://www.w3.org/1999/xlink" xml:space="preserve" xmlns:serif="http://www.serif.com/" style="fill-rule:evenodd;clip-rule:evenodd;stroke-linejoin:round;stroke-miterlimit:2;">
    <g transform="matrix(1,0,0,1,-100.661,-70.6641)">
        <path d="M689.916,699.024L690.405,699.124C695.846,704.061 697.445,728.666 697.164,736.009C696.709,747.877 693.231,758.292 688.739,769.081C692.554,784.711 691.274,804.545 686.203,819.678C665.099,882.664 587.25,902.806 528.011,891.387C517.936,889.445 508.627,886.555 498.939,883.351C508.17,877.505 512.639,873.546 518.684,864.368C504.212,860.793 485.553,852.472 473.608,843.782C454.547,829.915 434.214,799.617 430.672,776.171C418.461,779.85 409.18,792.34 405.062,803.864C395.226,831.385 404.81,867.391 416.623,893.134C389.226,880.687 362.563,866.682 336.765,851.19C273.988,813.816 206.631,758.974 176.542,690.576C166.488,667.723 164.41,656.183 158.562,633.194C152.048,650.141 146.422,671.941 145.273,690.151C140.75,681.947 136.453,674.424 132.717,665.804C118.876,633.86 113.672,596.739 114.978,562.132C118.105,479.271 159.14,383.995 220.04,327.459C200.777,302.399 183.086,274.437 173.292,244.269C158.297,198.079 156.231,147.207 178.291,102.983C207.134,139.611 261.188,146.51 303.595,162.385C328.424,171.629 352.17,183.555 374.411,197.953C404.697,181.384 472.665,179.223 506.819,182.432C523.183,183.438 539.431,186.237 555.691,187.874C563.938,188.705 574.121,187.801 582.75,188.181C605.486,189.09 628.074,192.282 650.171,197.709C673.748,183.16 697.597,176.746 723.488,167.704C761.757,154.34 806.152,130.857 825.899,93.626C831.015,100.269 835.769,106.92 839.074,114.659C852.791,146.774 840.233,181.264 823.134,209.394C811.959,227.778 799.379,246.239 793.868,267.51C792.21,273.908 792.417,280.235 792.548,286.777C800.703,295.001 809.365,303.123 817.318,311.468C834.201,329.187 829.673,354.651 820.875,375.47C840.067,401.851 851.199,434.357 839.027,466.253C836.583,472.659 833.511,478.578 831.095,484.87C832.742,487.734 846.653,485.923 850.496,485.919C881.994,485.888 920.934,495.27 946.373,513.713C912.509,500.777 875.356,500.002 839.892,505.232C843.206,515.211 843.314,520.371 843.83,530.788C877.816,534.711 914.16,552.894 935.917,579.472C908.945,561.089 874.512,551.239 842.721,545.57C839.931,556.529 837.92,562.252 832.991,572.193C852.412,587.823 867.481,608.192 876.745,631.336C862.978,614.418 843.86,597.281 824.151,587.725C811.648,605.807 800.273,616.247 779.945,624.353C776.242,634.602 771.331,644.374 765.314,653.461C752.073,673.244 728.931,693.182 705.051,697.934C707.316,684.176 709.793,670.363 708.523,656.381C697.318,663.121 692.573,682.742 688.654,695.083C687.63,698.125 686.729,700.913 685.441,703.858C686.863,702.349 688.616,700.592 689.916,699.024ZM487.054,370.959C486.525,384.317 486.969,393.702 496.694,404.287C505.885,414.229 518.645,420.119 532.174,420.663C548.782,421.225 562.723,415.575 567.969,398.625C568.016,397.542 568.308,396.769 567.677,396.325C563.274,393.227 554.53,390.231 549.477,388.241C549.759,394.366 549.326,398.89 544.745,403.795C541.712,407.08 537.482,409.003 533.012,409.128C520.192,409.369 513.938,394.839 514.059,383.764C514.094,381.537 514.301,379.317 514.68,377.123C505.494,375.036 496.185,373.176 487.054,370.959ZM586.063,670.985C586.778,672.911 587.643,674.885 588.441,676.787C602.904,660.304 609.995,641.171 617.871,621.086C612.816,620.83 606.896,620.211 601.789,619.789C594.43,618.923 586.058,618.236 578.88,616.895C581.104,635.533 580.852,652.441 586.063,670.985ZM558.522,771.632C569.556,773.307 580.966,768.729 592.275,767.063C609.654,764.501 622.344,764.318 639.714,766.777C643.557,767.592 648.32,768.47 652.007,769.586L660.545,771.272C675.905,760.85 679.865,742.68 679.997,725.314L672.299,733.432C660.726,743.582 655.856,746.532 641.784,752.88C643.335,755.258 645.032,757.476 645.414,760.309C643.869,759.175 642.154,758.366 640.343,757.756C637.383,756.771 634.323,756.118 631.218,755.809C625.784,755.291 619.676,756.251 614.493,755.937C598.121,754.943 591.827,755.426 577.082,762.67C577.181,749.178 576.053,735.706 573.71,722.419C573.348,720.825 573.046,719.37 572.533,717.811C565.821,731.929 556.335,744.613 548.959,758.229C546.152,763.411 553.14,769.824 558.522,771.632ZM691.794,507.697C681.592,508.623 675.889,512.167 673.211,522.517C674.646,526.86 675.82,529.471 678.48,533.296C684.617,528.321 689.548,526.071 697.471,527.13C718.499,529.941 720.875,544.665 716.392,561.396C718.762,565.46 721.519,568.729 723.957,572.626C730.842,559.363 736.369,546.194 741.842,532.299C742.194,539.645 742.692,546.07 741.5,553.392C740.56,558.711 739.222,563.953 737.497,569.071C739.828,567.652 742.172,566.191 744.538,564.818C760.451,555.585 754.885,530.456 778.078,529.535C779.476,526.858 780.607,517.692 781.153,514.178C769.265,516.41 756.572,520.903 744.36,519.842C724.244,518.095 714.556,504.258 691.794,507.697ZM542.449,384.945C536.268,388.356 537.243,393.512 544.603,393.579C551.719,390.339 548.663,386.342 542.449,384.945ZM805.757,488.888C803.854,484.706 792.636,471.948 789.008,468.284C786.555,465.419 785.325,463.957 782.476,461.533C784.216,464.519 786.245,467.794 787.581,470.94C796.875,492.403 799.618,503.085 794.271,526.463C783.253,551.407 769.271,564.267 747.092,579.303C743.016,582.067 729.131,590.015 728.985,594.775C730.689,598.24 759.023,604.901 763.575,605.431C766.627,605.812 769.721,605.692 772.735,605.075C788.02,602.047 799.392,588.664 807.465,576.34L787.385,577.645C807.371,570.816 815.281,564.211 820.186,543.727C812.165,548.503 805.51,550.37 796.286,551.264C802.888,545.756 817.017,531.22 818.544,522.941C820.38,512.989 811.082,496.79 805.757,488.888ZM495.052,626.397C495.307,631.609 496.886,637.125 497.944,642.242C502.793,665.7 516.253,716.165 533.784,732.043C534.519,732.708 535.141,733.241 536.026,733.721C530.44,708.102 518.36,684.722 508.405,660.422C505.376,653.063 502.423,645.673 499.546,638.254C498.333,635.086 496.33,629.037 495.052,626.397ZM823.37,141.351C808.911,164.038 783.839,182.937 762.485,198.655C748.608,208.87 739.032,215.051 727.593,228.279C732.401,231.863 737.116,235.568 741.736,239.392C746.144,242.985 751.791,247.341 755.945,251.07C783.033,215.944 820.184,191.676 823.91,142.049L823.37,141.351ZM743.435,622.104C738.987,621.047 734.552,619.934 730.132,618.764C726.034,634.732 727.165,646.821 725.476,663C725.299,665.641 724.414,670.506 723.995,673.287C739.727,658.44 748.531,646.017 756.376,625.543L743.435,622.104ZM688.974,617.209C673.323,618.467 651.695,620.971 636.481,621.038C636.755,624.983 636.779,633.859 638.559,636.893C639.628,637.347 640.638,637.531 641.677,636.851C653.452,629.146 660.622,629.04 674.464,628.15C680.218,628.083 685.971,627.95 691.721,627.75C695.71,627.583 699.71,627.246 703.706,627.386C708.168,627.543 708.15,634.409 710.929,633.692C718.037,631.858 726.566,625.392 729.075,618.422C717.082,617.012 701.027,616.314 688.974,617.209ZM594.674,515.048C567.451,501.929 547.67,493.95 518.065,486.409C513.61,491.766 510.545,497.165 507.73,503.556C536.026,507.593 571.24,525.529 592.404,544.69C595.375,547.34 598.853,550.289 601.536,553.164C597.603,551.272 593.631,549.462 589.624,547.734C586.14,546.42 582.495,544.862 579.061,543.402C554.622,533.012 529.843,526.387 503.98,520.734C505.795,529.972 506.563,534.378 510.455,542.868C534.992,545.065 561.921,559.086 582.844,571.303C575.502,569.968 567.493,569.608 560.069,568.587C547.647,566.879 534.551,565.294 522.301,562.792C523.337,564.194 524.423,565.559 525.557,566.884C545.09,589.905 579.098,598.752 608.044,601.492C638.351,604.362 665.817,597.415 695.522,593.39C698.97,593.616 707.449,592.286 706.178,586.628C703.923,576.591 685.639,563.494 678.449,556.709C669.477,548.242 663.499,542.011 655.888,533.46C654.218,529.177 648.81,521.738 646.624,516.537C641.287,503.838 638.237,490.566 634.636,477.32C644.353,487.764 651.82,497.394 662.282,507.457C676.034,488.695 696.165,491.648 715.163,498.743C737.133,506.948 754.164,508.29 775.563,497.47C768.687,454.57 740.049,422.183 711.741,391.906C733.711,386.553 741.367,370.67 743.155,349.042C744.565,331.972 739.16,315.152 732.518,299.619C749.571,317.165 759.95,336.398 758.284,361.516C756.017,367.195 754.493,371.697 751.942,377.495C766.265,361.771 783.089,346.321 805.961,349.87C806.806,341.961 806.534,336.559 803.38,329.27C797.171,317.991 790.822,316.232 783.907,308.081C776.455,299.298 771.498,292.929 763.153,284.503C733.578,255.018 696.987,233.545 656.823,222.105C643.245,218.175 628.926,214.806 614.85,213.191C606.697,212.256 597.838,212.72 589.79,211.852C609.314,223.253 622.718,242.826 630.914,263.495C597.289,223.21 556.168,209.613 505.343,204.768C479.02,202.259 432.756,203.363 406.98,210.55C419.769,220.043 439.569,226.06 454.802,231.124C436.894,234.128 428.392,234.073 410.499,231.712C415.235,237.22 419.723,241.926 424.777,247.161C409.293,242.285 394.434,235.613 380.502,227.281C372.681,222.671 365.269,217.644 357.503,213.037C343.171,204.396 328.296,196.691 312.97,189.969C299.036,183.911 284.745,178.708 270.178,174.39C237.311,164.519 210.995,160.246 184.229,136.534C167.397,218.754 214.918,324.042 302.425,341.912C305.351,342.499 308.282,343.06 311.219,343.593C269.264,381.557 241.434,428.126 233.917,484.706C246.912,468.027 255.778,459.075 271.738,445.582C251.153,495.131 239.185,546.175 260.729,598.29C262.951,603.565 265.307,608.783 267.796,613.937C267.004,606.366 266.726,595.348 268.009,587.761C269.754,595.022 268.741,602.628 271.216,610.642C281.821,644.976 304.666,676.32 334.981,695.817C339.68,698.811 344.155,701.565 349.2,703.67C345.932,694.856 343.837,680.272 343.205,670.777C343.04,667.667 343.07,664.057 343.02,660.904C379.779,654.962 412.074,676.677 433.163,705.037C423.233,679.566 414.295,659.174 391.818,641.203C401.197,644.929 409.409,648.508 417.836,654.297C432.905,664.65 442.791,678.901 449.893,695.638C456.641,711.541 460.785,728.835 464.02,745.798C468.6,774.951 469.46,790.3 491.899,812.609C503.651,824.294 514.789,831.006 530.4,837.367C542.724,842.389 557.16,846.802 570.589,847.182C563.771,855.493 558.8,859.697 549.229,864.247C573.917,861.852 593.352,853.997 610.237,835.287C608.365,845.518 607.541,855.337 605.048,865.508C633.316,850.961 658.84,830.488 666.252,798.144C647.35,798.152 635.403,792.278 615.582,792.406C606.806,792.486 598.06,793.438 589.472,795.249C580.39,797.214 572.301,800.066 562.939,801.017C545.585,802.782 533.823,797.951 520.476,787.39C495.272,758.65 494.532,730.347 484.647,695.526C477.421,670.308 467.413,645.961 461.225,620.436C458.752,610.235 456.128,599.208 457.335,588.647C457.834,584.28 459.307,581.074 461.296,577.247C451.061,578.072 440.139,582.185 431.928,588.446C429.257,590.482 427.806,592.702 426.044,594.084L425.762,592.625C426.76,580.309 431.04,568.284 440.799,560.253C442.554,559.556 448.361,555.554 451.1,554.261C461.743,549.238 471.366,546.538 482.764,544.199C479.266,535.089 477.931,528.702 477.989,519.055C465.029,518.182 446.041,517.116 433.018,518.256C429.958,518.447 419.225,518.949 416.697,519.452C412.619,519.388 402.157,520.692 397.912,521.282C375.117,524.321 352.691,529.675 330.982,537.262C342.281,529.753 356.823,523.294 369.508,518.428C406.608,504.195 441.99,500.069 481.481,501.27C484.22,496.488 488.976,485.409 491.729,479.771C479.981,476.966 467.019,475.372 455.025,473.894C411.786,468.568 371.349,470.73 328.285,476.109C386.885,455.134 442.185,452.446 502.522,466.773C518.188,452.316 539.3,440.685 560.218,436.174C535.096,434.934 524.864,435.32 500.451,425.724C466.303,408.094 461.751,393.55 442.312,363.459C436.763,362.75 430.969,362.52 425.375,362.32C409.01,360.622 390.861,367.308 376.516,374.507C377.207,373.677 379.063,371.577 379.591,370.801C385.793,364 393.117,358.313 401.243,353.989C413.533,347.412 432.753,341.516 447.002,341.773C478.551,342.341 515.636,356.771 543.974,369.695C558.238,376.2 565.596,382.48 581.846,387.454C573.482,382.521 564.125,376.752 556.775,370.619C531.86,349.83 511.919,325.111 479.568,315.046C470.729,312.296 463.237,310.281 453.764,309.906C446.917,308.921 439.625,309.66 432.719,310.071C451.458,300.511 473.267,296.757 493.663,303.337C506.402,307.446 518.07,315.057 528.76,322.984C549.614,338.447 608.05,395.935 635.831,381.561C641.577,378.588 645.459,372.846 647.317,366.76C650.976,354.778 645.516,342.842 639.749,332.53C632.833,320.164 624.16,308.855 617.139,296.603C645.931,320.616 686.569,353.198 653.862,392.713C646.649,401.427 639.76,404.569 629.139,407.723C622.819,408.66 618.656,408.634 612.496,409.168C613.109,409.896 622.582,411.266 624.544,411.759C643.89,417.626 657.826,428.362 670.431,444.173C672.639,446.942 676.915,451.881 678.373,454.913C654.72,436.287 633.327,429.107 604.053,440.277C615.12,446.177 621.673,456.063 628.748,466.022C612.699,454.626 596.201,447.935 576.085,451.21C565.066,453.004 549.379,459.952 539.904,466.212C537.206,467.971 534.376,469.762 531.738,471.593C555.436,480.952 578.272,491.826 596.316,510.52C599.827,514.069 603.263,517.692 606.623,521.385L594.674,515.048ZM205.218,173.626C221.687,183.794 238.554,191.971 255.38,201.405C283.753,217.314 310.641,237.874 330.977,263.438C339.849,274.59 347.622,286.822 355.899,298.469C321.834,298.39 298.912,276.781 270.972,259.85C273.804,265.61 276.027,269.99 279.15,275.599C290.668,293.913 298.728,297.898 314.16,310.215C302.625,309.41 297.788,307.697 287.328,303.482C290.997,318.54 299.665,324.709 310.558,335.381C281.948,324.679 259.616,304.257 241.641,280.144C218.226,248.735 204.311,213.192 205.218,173.626ZM509.854,608.065C510.612,609.349 510.88,609.517 512.035,610.474C535.696,630.077 530.544,659.842 537.911,686.424C541.667,699.794 547.279,709.77 555.843,720.394C561.291,710.718 570.262,705.299 580.383,701.041C583.645,709.093 589.072,726.366 590.166,735.025C607.051,737.992 630.297,738.761 637.831,719.413L635.83,710.781C631.893,693.631 628.778,677.544 627.279,659.992C627.14,658.364 626.457,656.777 625.477,655.473L624.332,655.098C622.223,656.364 620.444,660.663 619.177,663.06C611.088,678.371 603.703,692.136 587.302,699.893C584.923,697.143 582.367,695.209 579.758,692.679C575.428,688.479 571.865,683.319 568.821,678.133C549.28,642.248 555.674,618.978 509.854,608.065ZM757.203,384.486C754.949,386.671 753.487,387.485 753.416,390.611C755.391,394.421 758.976,392.325 761.794,390.768C760.846,400.077 757.361,405.342 749.329,409.93C754.452,415.673 759.515,416.61 765.66,411.265C773.296,404.625 777.187,394.263 778.044,384.389C778.886,374.687 773.187,372.62 765.785,377.668C762.279,379.983 760.165,381.459 757.203,384.486ZM798.83,389.169C795.828,409.873 788.365,420.488 770.324,430.621C781.765,440.174 793.901,447.039 804.485,455.813C808.475,459.735 811.501,462.928 814.868,467.443C822.463,450.056 824.859,432.182 817.941,414.094C814.568,405.275 806.882,394.233 798.83,389.169ZM335.664,802.417C338.695,804.27 341.907,806.6 344.855,808.647C342.761,806.11 340.697,803.547 338.664,800.96C336.991,797.736 331.668,790.986 329.421,787.139C313.447,759.79 298.065,722.285 305.203,690.532C299.009,684.35 292.296,677.81 286.621,671.134C260.21,640.06 239.815,601.969 227.652,563.067C214.37,520.583 209.139,470.616 219.797,426.914C223.775,410.607 229.538,397.088 237.209,382.337C238.694,379.347 240.553,376.693 242.396,373.91C239.876,375.744 237.115,378.112 234.674,380.111C190.942,415.646 160.519,482.069 155.451,537.43C154.102,552.167 154.644,564.662 155.249,579.4C163.698,561.484 171.591,549.074 184.685,533.903C175.702,590.958 208.898,666.36 241.768,711.585C263.603,741.539 289.675,768.161 319.166,790.617C323.82,794.13 330.768,799.407 335.664,802.417Z" style="fill:rgb(0,31,67);"  data-color="color-1"/>
        <path d="M509.854,608.065C555.674,618.978 549.28,642.248 568.821,678.133C571.865,683.319 575.428,688.479 579.758,692.679C582.367,695.209 584.923,697.143 587.302,699.893C603.703,692.136 611.088,678.371 619.177,663.06C620.444,660.663 622.223,656.364 624.332,655.098L625.477,655.473C626.457,656.777 627.14,658.364 627.279,659.992C628.778,677.544 631.893,693.631 635.83,710.781L637.831,719.413C630.297,738.761 607.051,737.992 590.166,735.025C589.072,726.366 583.645,709.093 580.383,701.041C570.262,705.299 561.291,710.718 555.843,720.394C547.279,709.77 541.667,699.794 537.911,686.424C530.544,659.842 535.696,630.077 512.035,610.474C510.88,609.517 510.612,609.349 509.854,608.065Z" style="fill:rgb(149,15,46);"  data-color="color-4"/>
        <path d="M558.522,771.632C553.14,769.824 546.152,763.411 548.959,758.229C556.335,744.613 565.821,731.929 572.533,717.811C573.046,719.37 573.348,720.825 573.71,722.419C572.368,723.292 572.042,723.622 571.916,725.431C570.802,741.525 562.119,756.517 558.522,771.632ZM586.063,670.985C580.852,652.441 581.104,635.533 578.88,616.895C586.058,618.236 594.43,618.923 601.789,619.789C600.94,622.78 598.695,629.638 597.791,632.45C595.404,639.873 589.467,665.938 586.063,670.985ZM725.476,663C727.165,646.821 726.034,634.732 730.132,618.764C734.552,619.934 738.987,621.047 743.435,622.104C738.35,631.662 732.997,654.922 725.476,663ZM645.414,760.309C645.032,757.476 643.335,755.258 641.784,752.88C655.856,746.532 660.726,743.582 672.299,733.432C672.282,742.155 657.298,761.79 652.007,769.586C648.32,768.47 643.557,767.592 639.714,766.777C642.366,764.254 643.55,765.326 645.994,763.476C646.421,761.809 646.256,762.286 645.414,760.309Z" style="fill:rgb(237,221,201);"/>
        <path d="M691.794,507.697C714.556,504.258 724.244,518.095 744.36,519.842C756.572,520.903 769.265,516.41 781.153,514.178C780.607,517.692 779.476,526.858 778.078,529.535C754.885,530.456 760.451,555.585 744.538,564.818C742.172,566.191 739.828,567.652 737.497,569.071C739.222,563.953 740.56,558.711 741.5,553.392C742.692,546.07 742.194,539.645 741.842,532.299C736.369,546.194 730.842,559.363 723.957,572.626C721.519,568.729 718.762,565.46 716.392,561.396C720.875,544.665 718.499,529.941 697.471,527.13C689.548,526.071 684.617,528.321 678.48,533.296C675.82,529.471 674.646,526.86 673.211,522.517C675.889,512.167 681.592,508.623 691.794,507.697ZM495.052,626.397C496.33,629.037 498.333,635.086 499.546,638.254C502.423,645.673 505.376,653.063 508.405,660.422C518.36,684.722 530.44,708.102 536.026,733.721C535.141,733.241 534.519,732.708 533.784,732.043C516.253,716.165 502.793,665.7 497.944,642.242C496.886,637.125 495.307,631.609 495.052,626.397Z" style="fill:rgb(32,72,112);"/>
        <path d="M487.054,370.959C496.185,373.176 505.494,375.036 514.68,377.123C514.301,379.317 514.094,381.537 514.059,383.764C513.938,394.839 520.192,409.369 533.012,409.128C537.482,409.003 541.712,407.08 544.745,403.795C549.326,398.89 549.759,394.366 549.477,388.241C554.53,390.231 563.274,393.227 567.677,396.325C568.308,396.769 568.016,397.542 567.969,398.625C562.723,415.575 548.782,421.225 532.174,420.663C518.645,420.119 505.885,414.229 496.694,404.287C486.969,393.702 486.525,384.317 487.054,370.959ZM757.203,384.486C760.165,381.459 762.279,379.983 765.785,377.668C773.187,372.62 778.886,374.687 778.044,384.389C777.187,394.263 773.296,404.625 765.66,411.265C759.515,416.61 754.452,415.673 749.329,409.93C757.361,405.342 760.846,400.077 761.794,390.768C763.323,389.226 764.993,387.85 765.227,385.825C763.984,385.068 760.47,385.224 757.879,384.642L757.203,384.486Z" style="fill:rgb(254,173,31);"/>
        <path d="M822.632,70.664C825.49,72.089 832.198,78.84 834.501,81.412C849.004,97.604 857.663,115.211 859.111,137.046C860.933,164.525 850.765,190.207 837.245,213.527C825.259,234.203 808.139,256.257 806.986,280.823C816.615,289.849 831.146,302.578 837.002,314.016C846.679,332.915 843.465,354.066 837.356,373.327C841.16,378.563 844.474,384.136 847.258,389.978C860.531,417.674 862.646,442.379 852.566,471.07C901.925,475.185 960.508,486.18 977.17,540.387C940.122,521.356 898.34,513.505 856.911,517.792C862.923,519.944 869.823,521.525 875.99,523.524C923.458,538.906 959.056,569.451 965.297,621.039C934.673,589.367 895.284,569.767 852.005,562.167L849.614,566.651C861.508,578.446 873.277,591.694 881.145,606.593C890.493,624.296 894.165,646.799 888.61,666.246C887.605,669.763 886.5,673.28 885.414,676.769C873.686,644.229 856.419,625.218 827.741,606.309C816.17,620.557 806.434,627.701 790.357,635.646C788.745,638.842 787.359,642.596 785.676,645.855C767.944,680.189 745.982,698.924 710.366,711.426C713.131,726.095 712.559,741.199 708.691,755.616C706.213,765.121 703.707,764.458 704.897,775.396C711.198,833.317 674.782,880.983 620.583,898.929C567.641,916.458 515.786,909.71 466.181,885.463C476.157,880.604 483.652,876.985 492.912,870.744C484.743,867.509 476.108,863.832 468.808,858.913C448.357,845.132 432.821,822.798 422.589,800.715C418.702,807.931 417.443,812.302 416.113,820.384C413.235,855.071 428.835,889.139 445.239,918.834C429.769,914.307 410.279,906.124 395.71,899.219C303.546,855.535 194.868,782.631 158.215,683.045C156.633,696.495 155.461,710.777 154.139,724.319C119.184,683.489 103.295,640.064 100.944,586.311C96.857,492.879 137.386,393.588 200.164,325.203C194.851,317.258 189.765,310.851 184.62,302.428C163.95,269.12 151.495,231.374 148.284,192.306C145.333,154.692 152.807,107.109 177.829,77.757C203.396,125.268 257.106,129.749 303.597,146.84C328.498,156.128 352.528,167.6 375.407,181.123C419.817,165.866 469.078,164.633 515.555,168.104C533.408,169.437 550.826,173.298 568.754,173.026C574.491,172.939 580.765,173.301 586.502,173.607C607.175,174.603 627.714,177.488 647.862,182.226C655.657,178.432 663.545,173.787 671.698,170.775C733.309,148.016 791.391,135.95 822.632,70.664ZM688.654,695.083C692.573,682.742 697.318,663.121 708.523,656.381C709.793,670.363 707.316,684.176 705.051,697.934C728.931,693.182 752.073,673.244 765.314,653.461C771.331,644.374 776.242,634.602 779.945,624.353C800.273,616.247 811.648,605.807 824.151,587.725C843.86,597.281 862.978,614.418 876.745,631.336C867.481,608.192 852.412,587.823 832.991,572.193C837.92,562.252 839.931,556.529 842.721,545.57C874.512,551.239 908.945,561.089 935.917,579.472C914.16,552.894 877.816,534.711 843.83,530.788C843.314,520.371 843.206,515.211 839.892,505.232C875.356,500.002 912.509,500.777 946.373,513.713C920.934,495.27 881.994,485.888 850.496,485.919C846.653,485.923 832.742,487.734 831.095,484.87C833.511,478.578 836.583,472.659 839.027,466.253C851.199,434.357 840.067,401.851 820.875,375.47C829.673,354.651 834.201,329.187 817.318,311.468C809.365,303.123 800.703,295.001 792.548,286.777C792.417,280.235 792.21,273.908 793.868,267.51C799.379,246.239 811.959,227.778 823.134,209.394C840.233,181.264 852.791,146.774 839.074,114.659C835.769,106.92 831.015,100.269 825.899,93.626C806.152,130.857 761.757,154.34 723.488,167.704C697.597,176.746 673.748,183.16 650.171,197.709C628.074,192.282 605.486,189.09 582.75,188.181C574.121,187.801 563.938,188.705 555.691,187.874C539.431,186.237 523.183,183.438 506.819,182.432C472.665,179.223 404.697,181.384 374.411,197.953C352.17,183.555 328.424,171.629 303.595,162.385C261.188,146.51 207.134,139.611 178.291,102.983C156.231,147.207 158.297,198.079 173.292,244.269C183.086,274.437 200.777,302.399 220.04,327.459C159.14,383.995 118.105,479.271 114.978,562.132C113.672,596.739 118.876,633.86 132.717,665.804C136.453,674.424 140.75,681.947 145.273,690.151C146.422,671.941 152.048,650.141 158.562,633.194C164.41,656.183 166.488,667.723 176.542,690.576C206.631,758.974 273.988,813.816 336.765,851.19C362.563,866.682 389.226,880.687 416.623,893.134C404.81,867.391 395.226,831.385 405.062,803.864C409.18,792.34 418.461,779.85 430.672,776.171C434.214,799.617 454.547,829.915 473.608,843.782C485.553,852.472 504.212,860.793 518.684,864.368C512.639,873.546 508.17,877.505 498.939,883.351C508.627,886.555 517.936,889.445 528.011,891.387C587.25,902.806 665.099,882.664 686.203,819.678C691.274,804.545 692.554,784.711 688.739,769.081C693.231,758.292 696.709,747.877 697.164,736.009C697.445,728.666 695.846,704.061 690.405,699.124L689.916,699.024C688.616,700.592 686.863,702.349 685.441,703.858C686.729,700.913 687.63,698.125 688.654,695.083ZM573.71,722.419C576.053,735.706 577.181,749.178 577.082,762.67C591.827,755.426 598.121,754.943 614.493,755.937C619.676,756.251 625.784,755.291 631.218,755.809C634.323,756.118 637.383,756.771 640.343,757.756C642.154,758.366 643.869,759.175 645.414,760.309C646.256,762.286 646.421,761.809 645.994,763.476C643.55,765.326 642.366,764.254 639.714,766.777C622.344,764.318 609.654,764.501 592.275,767.063C580.966,768.729 569.556,773.307 558.522,771.632C562.119,756.517 570.802,741.525 571.916,725.431C572.042,723.622 572.368,723.292 573.71,722.419ZM743.435,622.104L756.376,625.543C748.531,646.017 739.727,658.44 723.995,673.287C724.414,670.506 725.299,665.641 725.476,663C732.997,654.922 738.35,631.662 743.435,622.104ZM601.789,619.789C606.896,620.211 612.816,620.83 617.871,621.086C609.995,641.171 602.904,660.304 588.441,676.787C587.643,674.885 586.778,672.911 586.063,670.985C589.467,665.938 595.404,639.873 597.791,632.45C598.695,629.638 600.94,622.78 601.789,619.789ZM805.757,488.888C811.082,496.79 820.38,512.989 818.544,522.941C817.017,531.22 802.888,545.756 796.286,551.264C805.51,550.37 812.165,548.503 820.186,543.727C815.281,564.211 807.371,570.816 787.385,577.645L807.465,576.34C799.392,588.664 788.02,602.047 772.735,605.075C769.721,605.692 766.627,605.812 763.575,605.431C759.023,604.901 730.689,598.24 728.985,594.775C729.131,590.015 743.016,582.067 747.092,579.303C769.271,564.267 783.253,551.407 794.271,526.463C802.137,517.334 805.394,500.662 805.757,488.888ZM688.974,617.209C701.027,616.314 717.082,617.012 729.075,618.422C726.566,625.392 718.037,631.858 710.929,633.692C708.15,634.409 708.168,627.543 703.706,627.386C699.71,627.246 695.71,627.583 691.721,627.75C685.971,627.95 680.218,628.083 674.464,628.15C660.622,629.04 653.452,629.146 641.677,636.851C640.638,637.531 639.628,637.347 638.559,636.893C636.779,633.859 636.755,624.983 636.481,621.038C651.695,620.971 673.323,618.467 688.974,617.209ZM655.888,533.46C663.499,542.011 669.477,548.242 678.449,556.709C685.639,563.494 703.923,576.591 706.178,586.628C707.449,592.286 698.97,593.616 695.522,593.39C665.817,597.415 638.351,604.362 608.044,601.492C579.098,598.752 545.09,589.905 525.557,566.884C524.423,565.559 523.337,564.194 522.301,562.792C534.551,565.294 547.647,566.879 560.069,568.587C567.493,569.608 575.502,569.968 582.844,571.303C561.921,559.086 534.992,545.065 510.455,542.868C506.563,534.378 505.795,529.972 503.98,520.734C529.843,526.387 554.622,533.012 579.061,543.402C582.495,544.862 586.14,546.42 589.624,547.734C593.631,549.462 597.603,551.272 601.536,553.164C598.853,550.289 595.375,547.34 592.404,544.69C571.24,525.529 536.026,507.593 507.73,503.556C510.545,497.165 513.61,491.766 518.065,486.409C547.67,493.95 567.451,501.929 594.674,515.048L606.623,521.385C603.263,517.692 599.827,514.069 596.316,510.52C578.272,491.826 555.436,480.952 531.738,471.593C534.376,469.762 537.206,467.971 539.904,466.212C573.761,476.417 602.237,493.424 630.812,513.979C638.217,519.306 649.481,529.381 655.888,533.46ZM761.794,390.768C758.976,392.325 755.391,394.421 753.416,390.611C753.487,387.485 754.949,386.671 757.203,384.486L757.879,384.642C760.47,385.224 763.984,385.068 765.227,385.825C764.993,387.85 763.323,389.226 761.794,390.768ZM440.799,560.253C431.04,568.284 426.76,580.309 425.762,592.625C423.92,602.68 431.501,626.148 436.071,635.95C443.937,652.823 451.348,671.084 459.364,687.736C474.236,718.629 489.253,769.906 520.476,787.39C533.823,797.951 545.585,802.782 562.939,801.017C572.301,800.066 580.39,797.214 589.472,795.249C598.06,793.438 606.806,792.486 615.582,792.406C635.403,792.278 647.35,798.152 666.252,798.144C658.84,830.488 633.316,850.961 605.048,865.508C607.541,855.337 608.365,845.518 610.237,835.287C593.352,853.997 573.917,861.852 549.229,864.247C558.8,859.697 563.771,855.493 570.589,847.182C557.16,846.802 542.724,842.389 530.4,837.367C514.789,831.006 503.651,824.294 491.899,812.609C469.46,790.3 468.6,774.951 464.02,745.798C460.785,728.835 456.641,711.541 449.893,695.638C442.791,678.901 432.905,664.65 417.836,654.297C409.409,648.508 401.197,644.929 391.818,641.203C414.295,659.174 423.233,679.566 433.163,705.037C412.074,676.677 379.779,654.962 343.02,660.904C342.923,657.339 343.59,652.708 344.339,649.194C352.858,609.236 388.935,578.331 426.05,564.865C430.046,563.415 436.76,560.589 440.799,560.253ZM672.299,733.432L679.997,725.314C679.865,742.68 675.905,760.85 660.545,771.272L652.007,769.586C657.298,761.79 672.282,742.155 672.299,733.432ZM542.449,384.945C548.663,386.342 551.719,390.339 544.603,393.579C537.243,393.512 536.268,388.356 542.449,384.945Z" style="fill:white;"/>
        <path d="M629.139,407.723C639.76,404.569 646.649,401.427 653.862,392.713C686.569,353.198 645.931,320.616 617.139,296.603C624.16,308.855 632.833,320.164 639.749,332.53C645.516,342.842 650.976,354.778 647.317,366.76C645.459,372.846 641.577,378.588 635.831,381.561C608.05,395.935 549.614,338.447 528.76,322.984C518.07,315.057 506.402,307.446 493.663,303.337C473.267,296.757 451.458,300.511 432.719,310.071C439.625,309.66 446.917,308.921 453.764,309.906C450.185,309.809 446.662,311.061 443.221,312.106C427.519,316.742 413.154,325.066 401.322,336.382C396.26,341.177 377.019,363.664 379.591,370.801C379.063,371.577 377.207,373.677 376.516,374.507C390.861,367.308 409.01,360.622 425.375,362.32L424.33,362.985C424.884,364.634 427.635,368.223 428.734,369.831C436.915,381.803 445.519,392.564 455.914,402.678C458.213,404.915 467.682,412.637 468.459,413.575L466.719,414.769L466.832,415.455C470.736,418.192 496.636,427.612 500.451,425.724C524.864,435.32 535.096,434.934 560.218,436.174C539.3,440.685 518.188,452.316 502.522,466.773C442.185,452.446 386.885,455.134 328.285,476.109C371.349,470.73 411.786,468.568 455.025,473.894C467.019,475.372 479.981,476.966 491.729,479.771C488.976,485.409 484.22,496.488 481.481,501.27C441.99,500.069 406.608,504.195 369.508,518.428C356.823,523.294 342.281,529.753 330.982,537.262C352.691,529.675 375.117,524.321 397.912,521.282C402.157,520.692 412.619,519.388 416.697,519.452C419.225,518.949 429.958,518.447 433.018,518.256C446.041,517.116 465.029,518.182 477.989,519.055C477.931,528.702 479.266,535.089 482.764,544.199C471.366,546.538 461.743,549.238 451.1,554.261C448.361,555.554 442.554,559.556 440.799,560.253C436.76,560.589 430.046,563.415 426.05,564.865C388.935,578.331 352.858,609.236 344.339,649.194C343.59,652.708 342.923,657.339 343.02,660.904C343.07,664.057 343.04,667.667 343.205,670.777C343.095,671.632 342.956,672.454 342.82,673.306L342.033,673.244C334.877,665.361 328.391,656.895 322.642,647.933C296.368,607.366 285.345,550.533 295.448,503.203C288.143,517.705 266.6,571.804 268.009,587.761C266.726,595.348 267.004,606.366 267.796,613.937C265.307,608.783 262.951,603.565 260.729,598.29C239.185,546.175 251.153,495.131 271.738,445.582C255.778,459.075 246.912,468.027 233.917,484.706C241.434,428.126 269.264,381.557 311.219,343.593C308.282,343.06 305.351,342.499 302.425,341.912C214.918,324.042 167.397,218.754 184.229,136.534C210.995,160.246 237.311,164.519 270.178,174.39C284.745,178.708 299.036,183.911 312.97,189.969C328.296,196.691 343.171,204.396 357.503,213.037C365.269,217.644 372.681,222.671 380.502,227.281C394.434,235.613 409.293,242.285 424.777,247.161C419.723,241.926 415.235,237.22 410.499,231.712C428.392,234.073 436.894,234.128 454.802,231.124C439.569,226.06 419.769,220.043 406.98,210.55C432.756,203.363 479.02,202.259 505.343,204.768C556.168,209.613 597.289,223.21 630.914,263.495C622.718,242.826 609.314,223.253 589.79,211.852C597.838,212.72 606.697,212.256 614.85,213.191C628.926,214.806 643.245,218.175 656.823,222.105C696.987,233.545 733.578,255.018 763.153,284.503C771.498,292.929 776.455,299.298 783.907,308.081C790.822,316.232 797.171,317.991 803.38,329.27C786.614,332.295 778.005,338.029 766.441,351.044C763.782,354.037 760.66,358.919 758.284,361.516C759.95,336.398 749.571,317.165 732.518,299.619C739.16,315.152 744.565,331.972 743.155,349.042C741.367,370.67 733.711,386.553 711.741,391.906C740.049,422.183 768.687,454.57 775.563,497.47C754.164,508.29 737.133,506.948 715.163,498.743C696.165,491.648 676.034,488.695 662.282,507.457C651.82,497.394 644.353,487.764 634.636,477.32C638.237,490.566 641.287,503.838 646.624,516.537C648.81,521.738 654.218,529.177 655.888,533.46C649.481,529.381 638.217,519.306 630.812,513.979C602.237,493.424 573.761,476.417 539.904,466.212C549.379,459.952 565.066,453.004 576.085,451.21C596.201,447.935 612.699,454.626 628.748,466.022C621.673,456.063 615.12,446.177 604.053,440.277C633.327,429.107 654.72,436.287 678.373,454.913C678.964,456.01 693.295,469.726 695.768,472.71C695.486,470.971 695.178,469.237 694.845,467.507C690.813,446.951 681.41,430.593 663.972,418.435C655.947,412.84 639.614,406.847 629.757,408.84C627.93,408.74 627.097,408.509 625.491,409.376C624.655,410.351 624.773,410.456 624.544,411.759C622.582,411.266 613.109,409.896 612.496,409.168C618.656,408.634 622.819,408.66 629.139,407.723ZM675.334,310.757C682.662,329.678 684.606,345.432 685.505,365.385C689.86,369.879 695.151,375.04 699.168,379.723L699.712,379.32C703.05,359.434 699.63,341.379 687.854,324.717C685.241,321.019 678.929,313.428 675.334,310.757ZM205.218,173.626C204.311,213.192 218.226,248.735 241.641,280.144C259.616,304.257 281.948,324.679 310.558,335.381C299.665,324.709 290.997,318.54 287.328,303.482C297.788,307.697 302.625,309.41 314.16,310.215C298.728,297.898 290.668,293.913 279.15,275.599C276.027,269.99 273.804,265.61 270.972,259.85C298.912,276.781 321.834,298.39 355.899,298.469C347.622,286.822 339.849,274.59 330.977,263.438C310.641,237.874 283.753,217.314 255.38,201.405C238.554,191.971 221.687,183.794 205.218,173.626ZM823.37,141.351L823.91,142.049C820.184,191.676 783.033,215.944 755.945,251.07C751.791,247.341 746.144,242.985 741.736,239.392C737.116,235.568 732.401,231.863 727.593,228.279C739.032,215.051 748.608,208.87 762.485,198.655C783.839,182.937 808.911,164.038 823.37,141.351ZM798.83,389.169C806.882,394.233 814.568,405.275 817.941,414.094C824.859,432.182 822.463,450.056 814.868,467.443C811.501,462.928 808.475,459.735 804.485,455.813C793.901,447.039 781.765,440.174 770.324,430.621C788.365,420.488 795.828,409.873 798.83,389.169ZM425.762,592.625L426.044,594.084C427.806,592.702 429.257,590.482 431.928,588.446C440.139,582.185 451.061,578.072 461.296,577.247C459.307,581.074 457.834,584.28 457.335,588.647C456.128,599.208 458.752,610.235 461.225,620.436C467.413,645.961 477.421,670.308 484.647,695.526C494.532,730.347 495.272,758.65 520.476,787.39C489.253,769.906 474.236,718.629 459.364,687.736C451.348,671.084 443.937,652.823 436.071,635.95C431.501,626.148 423.92,602.68 425.762,592.625Z" style="fill:rgb(182,115,34);"  data-color="color-3"/>
        <path d="M335.664,802.417C330.768,799.407 323.82,794.13 319.166,790.617C289.675,768.161 263.603,741.539 241.768,711.585C208.898,666.36 175.702,590.958 184.685,533.903C171.591,549.074 163.698,561.484 155.249,579.4C154.644,564.662 154.102,552.167 155.451,537.43C160.519,482.069 190.942,415.646 234.674,380.111C237.115,378.112 239.876,375.744 242.396,373.91C240.553,376.693 238.694,379.347 237.209,382.337C229.538,397.088 223.775,410.607 219.797,426.914C209.139,470.616 214.37,520.583 227.652,563.067C239.815,601.969 260.21,640.06 286.621,671.134C292.296,677.81 299.009,684.35 305.203,690.532C298.065,722.285 313.447,759.79 329.421,787.139C331.668,790.986 336.991,797.736 338.664,800.96C340.697,803.547 342.761,806.11 344.855,808.647C341.907,806.6 338.695,804.27 335.664,802.417ZM343.205,670.777C343.837,680.272 345.932,694.856 349.2,703.67C344.155,701.565 339.68,698.811 334.981,695.817C304.666,676.32 281.821,644.976 271.216,610.642C268.741,602.628 269.754,595.022 268.009,587.761C266.6,571.804 288.143,517.705 295.448,503.203C285.345,550.533 296.368,607.366 322.642,647.933C328.391,656.895 334.877,665.361 342.033,673.244L342.82,673.306C342.956,672.454 343.095,671.632 343.205,670.777ZM678.373,454.913C676.915,451.881 672.639,446.942 670.431,444.173C657.826,428.362 643.89,417.626 624.544,411.759C624.773,410.456 624.655,410.351 625.491,409.376C627.097,408.509 627.93,408.74 629.757,408.84C639.614,406.847 655.947,412.84 663.972,418.435C681.41,430.593 690.813,446.951 694.845,467.507C695.178,469.237 695.486,470.971 695.768,472.71C693.295,469.726 678.964,456.01 678.373,454.913ZM675.334,310.757C678.929,313.428 685.241,321.019 687.854,324.717C699.63,341.379 703.05,359.434 699.712,379.32L699.168,379.723C695.151,375.04 689.86,369.879 685.505,365.385C684.606,345.432 682.662,329.678 675.334,310.757Z" style="fill:rgb(140,80,14);"  data-color="color-2"/>
        <path d="M787.581,470.94C786.245,467.794 784.216,464.519 782.476,461.533C785.325,463.957 786.555,465.419 789.008,468.284C792.636,471.948 803.854,484.706 805.757,488.888C805.394,500.662 802.137,517.334 794.271,526.463C799.618,503.085 796.875,492.403 787.581,470.94ZM425.375,362.32C430.969,362.52 436.763,362.75 442.312,363.459C461.751,393.55 466.303,408.094 500.451,425.724C496.636,427.612 470.736,418.192 466.832,415.455L466.719,414.769L468.459,413.575C467.682,412.637 458.213,404.915 455.914,402.678C445.519,392.564 436.915,381.803 428.734,369.831C427.635,368.223 424.884,364.634 424.33,362.985L425.375,362.32ZM803.38,329.27C806.534,336.559 806.806,341.961 805.961,349.87C783.089,346.321 766.265,361.771 751.942,377.495C754.493,371.697 756.017,367.195 758.284,361.516C760.66,358.919 763.782,354.037 766.441,351.044C778.005,338.029 786.614,332.295 803.38,329.27ZM453.764,309.906C463.237,310.281 470.729,312.296 479.568,315.046C511.919,325.111 531.86,349.83 556.775,370.619C564.125,376.752 573.482,382.521 581.846,387.454C565.596,382.48 558.238,376.2 543.974,369.695C515.636,356.771 478.551,342.341 447.002,341.773C432.753,341.516 413.533,347.412 401.243,353.989C393.117,358.313 385.793,364 379.591,370.801C377.019,363.664 396.26,341.177 401.322,336.382C413.154,325.066 427.519,316.742 443.221,312.106C446.662,311.061 450.185,309.809 453.764,309.906Z" style="fill:rgb(212,153,77);"/>
    </g>
</svg>
