<?xml version="1.0" encoding="UTF-8" standalone="no"?>
<!DOCTYPE svg PUBLIC "-//W3C//DTD SVG 1.1//EN" "http://www.w3.org/Graphics/SVG/1.1/DTD/svg11.dtd">
<svg width="100%" height="100%" viewBox="0 0 994 546" version="1.1" xmlns="http://www.w3.org/2000/svg" xmlns:xlink="http://www.w3.org/1999/xlink" xml:space="preserve" xmlns:serif="http://www.serif.com/" style="fill-rule:evenodd;clip-rule:evenodd;stroke-linejoin:round;stroke-miterlimit:2;">
    <g transform="matrix(1,0,0,1,-269.843,-245.261)">
        <path d="M916.596,245.271C945.253,245.326 964.763,244.005 990.254,258.816C1000.95,258.508 1012.46,258.667 1023.1,258.876C1059.85,259.598 1150.92,283.663 1157.56,328.492C1175.16,341.027 1195.82,354.031 1202.79,377.083C1209.66,399.793 1190.93,405.206 1183,423.219C1180.25,429.455 1167.67,436.124 1161.65,439.907C1147.02,449.114 1137.12,454.378 1119.98,458.348C1119.55,468.003 1112.7,489.001 1109.04,498.8C1108.49,500.286 1104.46,504.09 1103.11,505.371C1114.22,507.375 1128.1,508.112 1139.05,505.516C1158.14,500.965 1174.28,488.336 1194.62,488.675C1204.92,488.847 1214.63,490.45 1223.66,495.825C1230.03,499.609 1233.55,505.902 1238.84,510.507C1244.7,515.616 1251.27,517.653 1255.74,524.815C1262.77,536.236 1264.95,549.995 1261.78,563.03C1257.87,579.105 1241.65,593.846 1225.41,591.035C1212.88,588.867 1203.98,589.341 1191.66,588.466C1179.29,587.586 1163.31,582.803 1151.1,579.734C1160.3,586.791 1165.82,593.079 1173.82,601.185C1181,607.631 1189.7,612.967 1194.69,621.511C1205.89,640.686 1202.62,670.106 1181.86,681.517C1175.13,685.215 1170.84,685.18 1163.36,685.1C1147.71,694.751 1143.07,693.271 1125.32,691.482C1121.32,691.078 1114.79,692.41 1110.02,691.925C1085.85,689.467 1069.18,674.028 1052.52,658.169C1047.87,653.798 1038.34,647.943 1032.26,646.02C983.363,630.558 903.925,628.31 853.145,632.264C845.705,625.941 840.893,620.449 834.618,613.033C811.984,618.787 799.53,619.648 776.862,620.295C774.449,626.894 771.607,633.328 768.355,639.556C749.513,674.946 720.044,693.097 682.604,704.525C691.953,711.948 699.539,719.463 701.051,731.928C704.311,758.801 683.733,777.309 657.416,771.61C655.094,771.107 647.699,772.166 644.904,771.907C636.659,771.955 629.093,770.051 621.327,767.486C605.851,762.451 599.361,755.768 592.376,741.65C578.98,735.507 567.485,730.122 554.481,723.223C552.296,722.011 547.16,718.958 544.982,718.886C533.85,718.521 522.813,719.551 511.558,719.15C489.389,718.359 466.938,714.171 445.333,709.197C442.955,721.471 436.84,736.216 433.131,748.344C427.161,767.868 403.966,780.364 385.512,785.359C371.695,789.098 361.836,793.412 347.517,787.801C331.63,781.576 331.704,768.671 325.148,755.392C321.018,746.827 326.39,744.23 327.435,737.939C329.273,726.879 328.788,719.297 333.287,708.504C335.573,707.343 337.825,706.115 340.039,704.821C370.984,686.54 383.078,643.109 391.441,610.367C398.737,610.658 406.864,611.116 414.137,611.686C445.665,614.156 459.719,622.182 471.772,587.446C459.431,587.554 447.15,585.729 435.373,582.038C385.221,565.979 360.134,524.87 359.918,475.686C359.698,425.631 364.786,427.663 320.855,431.474C314.648,432.013 281.884,416.033 269.843,412.787C283.049,393.693 298.631,378.884 321.937,372.618C343.734,366.758 365.289,367.884 385.063,379.953C394.732,385.827 402.809,393.99 408.582,403.722C426.334,433.436 414.921,461.771 421.101,493.183C427.635,526.397 472.742,531.745 500.048,525.569C517.927,521.526 536.143,505.821 553.25,497.372C590.65,478.899 631.7,467.612 665.017,441.861C687.91,424.407 702.065,404.824 721.229,384.183C779.037,321.922 823.34,289.202 906.507,267.471C909.805,258.823 912.159,253.315 916.596,245.271ZM339.768,755.042C339.69,754.771 339.62,754.497 339.535,754.228C337.455,747.578 342.552,727.266 343.832,719.47C382.131,692.446 387.448,668.477 400.864,624.848C419.466,624.797 444.21,630.217 461.346,625.151C475.575,620.944 486.872,588.244 493.537,573.448C470.157,576.505 446.386,573.013 424.872,563.361C386.631,545.904 371.776,510.508 372.271,470.531C372.39,460.969 373.707,437.504 370.113,429.85C360.035,408.394 337.271,418.878 320.456,416.424C314.9,415.612 299.842,408.141 293.952,405.562C303.969,395.047 312.548,389.117 326.644,385.43C343.738,380.958 363.875,381.619 379.126,391.612C418.137,416.291 399.847,460.419 408.337,497.206C417.775,538.1 465.894,546.683 501.262,539.451C524.723,534.654 539.074,519.38 559.85,509.356C598.105,491.003 638.769,479.754 672.441,452.759C693.696,435.719 709.967,416.443 728.372,396.716C751.566,371.858 777.395,346.916 805.028,327.126C838.407,303.221 878.068,289.124 917.559,278.983C919.789,270.757 921.472,266.439 925.751,258.867C951.045,258.316 965.32,259.445 987.404,272.505L988.658,272.474C1000.55,272.197 1015.76,271.706 1027.68,272.851C1062.23,276.169 1106.04,286.772 1132.42,310.794C1140.76,318.387 1143.75,325.993 1143.87,336.801C1159.84,345.305 1201.72,371.094 1188.42,394.578C1186.41,398.125 1182.44,400.773 1179.14,403.131C1172.46,419.958 1167,421.862 1151.77,429.667C1143.57,433.869 1135.87,441.048 1126.22,443.153C1121.45,444.193 1112.74,448.403 1109,444.541C1108.41,439.774 1113.99,429.875 1114.23,423.063C1115.17,405.432 1096.95,411.77 1089.55,420.135C1077.5,433.757 1072.26,447.65 1072.56,465.679C1078.3,463.651 1102.07,453.685 1105.71,453.548L1106.67,455.114C1107.55,466.545 1104.26,473.485 1098.06,482.492L1097.88,491.776C1095.94,494.259 1093.65,496.458 1091.1,498.308C1079.69,506.416 1062.9,509.703 1049.21,507.345C1035.38,504.962 1031.8,495.967 1024.8,485.513C1017.3,474.326 1005.46,474.411 993.121,472.468C993.103,480.452 992.707,486.339 991.166,494.117C1006.73,493.928 1014.91,495.557 1026.48,506.855C1042.44,522.443 1060.42,521.268 1080.32,514.313C1096.91,518.384 1120.07,522.106 1137.11,519.417C1162.39,515.427 1183.02,495.447 1210.28,503.914C1219.14,506.669 1223.74,511.917 1227.75,519.856C1230.35,521.186 1232.89,522.633 1235.36,524.194C1268.16,545.136 1238.1,587.99 1223.34,577.459C1221.6,576.236 1217.6,575.447 1215.36,574.872C1196.25,579.336 1168.91,568.87 1149.88,566.213C1130.22,563.468 1113.66,565.074 1094.31,569.338C1126.18,579.398 1144.99,585.152 1165.1,611.917C1169.23,617.421 1182.11,622.736 1184.9,631.612C1192.7,645.723 1186.13,672.609 1167.24,672.163C1165.2,672.308 1160.79,672.727 1158.95,672.645C1152.63,676.585 1143.67,683.268 1136.09,678.892C1134.11,678.128 1129.5,677.054 1127.28,676.481C1103.67,689.411 1074.38,660.886 1059.04,645.561C1043.28,629.798 1004.7,627.233 984.681,620.04C980.385,621.67 953.373,618.479 946.25,618.127C916.769,616.526 887.222,616.542 857.743,618.174C849.995,610.908 845.727,605.357 839.135,596.945C835.48,599.259 826.715,601.102 822.362,602.073C800.044,607.051 777.04,606.737 754.356,608.42C731.005,610.339 691.527,617.698 672.499,632.2C706.554,621.82 727.161,619.38 762.289,619.335C749.945,650.793 731.566,669.927 700.342,683.899C682.614,691.831 660.952,696.872 641.512,697.2C658.013,705.889 680.365,712.804 687.687,731.755C692.472,744.14 679.091,762.591 665.915,759.138C662.681,758.063 659.981,757.497 656.664,756.766C651.829,760.096 644.99,760.281 639.384,759.022C620.635,754.813 608.499,750.182 601.778,731.136C582.222,722.08 567.805,715.587 548.857,704.763C503.2,707.589 479.584,702.625 435.33,693.316C432.341,709.269 425.755,731.653 419.987,746.053C411.992,766.014 376.336,777.414 356.397,777.256C351.566,777.218 344.703,770.615 343.253,766.025L343.687,764.809C339.843,763.395 340.023,758.554 339.768,755.042Z" style="fill:rgb(190,189,189);"/>
        <path d="M339.768,755.042C339.69,754.771 339.62,754.497 339.535,754.228C337.455,747.578 342.552,727.266 343.832,719.47C382.131,692.446 387.448,668.477 400.864,624.848C419.466,624.797 444.21,630.217 461.346,625.151C475.575,620.944 486.872,588.244 493.537,573.448C470.157,576.505 446.386,573.013 424.872,563.361C386.631,545.904 371.776,510.508 372.271,470.531C372.39,460.969 373.707,437.504 370.113,429.85C360.035,408.394 337.271,418.878 320.456,416.424C314.9,415.612 299.842,408.141 293.952,405.562C303.969,395.047 312.548,389.117 326.644,385.43C343.738,380.958 363.875,381.619 379.126,391.612C418.137,416.291 399.847,460.419 408.337,497.206C417.775,538.1 465.894,546.683 501.262,539.451C524.723,534.654 539.074,519.38 559.85,509.356C598.105,491.003 638.769,479.754 672.441,452.759C693.696,435.719 709.967,416.443 728.372,396.716C751.566,371.858 777.395,346.916 805.028,327.126C838.407,303.221 878.068,289.124 917.559,278.983C919.789,270.757 921.472,266.439 925.751,258.867C951.045,258.316 965.32,259.445 987.404,272.505L988.658,272.474C1000.55,272.197 1015.76,271.706 1027.68,272.851C1062.23,276.169 1106.04,286.772 1132.42,310.794C1140.76,318.387 1143.75,325.993 1143.87,336.801C1159.84,345.305 1201.72,371.094 1188.42,394.578C1186.41,398.125 1182.44,400.773 1179.14,403.131C1172.46,419.958 1167,421.862 1151.77,429.667C1143.57,433.869 1135.87,441.048 1126.22,443.153C1121.45,444.193 1112.74,448.403 1109,444.541C1108.41,439.774 1113.99,429.875 1114.23,423.063C1115.17,405.432 1096.95,411.77 1089.55,420.135C1077.5,433.757 1072.26,447.65 1072.56,465.679C1078.3,463.651 1102.07,453.685 1105.71,453.548L1106.67,455.114C1107.55,466.545 1104.26,473.485 1098.06,482.492L1097.88,491.776C1095.94,494.259 1093.65,496.458 1091.1,498.308C1079.69,506.416 1062.9,509.703 1049.21,507.345C1035.38,504.962 1031.8,495.967 1024.8,485.513C1017.3,474.326 1005.46,474.411 993.121,472.468C993.103,480.452 992.707,486.339 991.166,494.117C1006.73,493.928 1014.91,495.557 1026.48,506.855C1042.44,522.443 1060.42,521.268 1080.32,514.313C1096.91,518.384 1120.07,522.106 1137.11,519.417C1162.39,515.427 1183.02,495.447 1210.28,503.914C1219.14,506.669 1223.74,511.917 1227.75,519.856C1230.35,521.186 1232.89,522.633 1235.36,524.194C1268.16,545.136 1238.1,587.99 1223.34,577.459C1239.79,563.741 1242.43,541.701 1218.86,534.181C1230.54,546.541 1230.19,565.373 1215.36,574.872C1196.25,579.336 1168.91,568.87 1149.88,566.213C1130.22,563.468 1113.66,565.074 1094.31,569.338C1126.18,579.398 1144.99,585.152 1165.1,611.917C1169.23,617.421 1182.11,622.736 1184.9,631.612C1192.7,645.723 1186.13,672.609 1167.24,672.163C1180.73,652.962 1179.18,632.732 1153.89,627.012C1169.27,639.656 1171.44,656.695 1158.95,672.645C1152.63,676.585 1143.67,683.268 1136.09,678.892C1143.4,670.252 1150.97,652.68 1139.81,643.363C1138.29,642.101 1134.05,639.761 1132.12,639.978C1138.4,652.646 1137.74,664.934 1127.94,675.76L1127.28,676.481C1103.67,689.411 1074.38,660.886 1059.04,645.561C1043.28,629.798 1004.7,627.233 984.681,620.04C955.781,608.876 899.059,605.666 868.751,604.456C839.467,582.805 808.515,524.794 792.867,491.824C796.898,526.903 815.195,570.699 839.135,596.945C835.48,599.259 826.715,601.102 822.362,602.073C800.044,607.051 777.04,606.737 754.356,608.42C731.005,610.339 691.527,617.698 672.499,632.2C706.554,621.82 727.161,619.38 762.289,619.335C749.945,650.793 731.566,669.927 700.342,683.899C682.614,691.831 660.952,696.872 641.512,697.2C658.013,705.889 680.365,712.804 687.687,731.755C692.472,744.14 679.091,762.591 665.915,759.138C666.931,757.461 667.902,755.759 668.829,754.031C675.849,740.64 668.536,732.414 656.806,726.752C663.638,737.72 664.346,746.053 656.664,756.766C651.829,760.096 644.99,760.281 639.384,759.022C620.635,754.813 608.499,750.182 601.778,731.136C582.222,722.08 567.805,715.587 548.857,704.763C503.2,707.589 479.584,702.625 435.33,693.316C432.341,709.269 425.755,731.653 419.987,746.053C411.992,766.014 376.336,777.414 356.397,777.256C351.566,777.218 344.703,770.615 343.253,766.025L343.687,764.809C357.864,769.377 366.295,765.206 376.242,755.388C374.827,755.93 373.403,756.448 371.971,756.942C361.105,760.643 350.07,760.058 339.768,755.042ZM1132.39,363.767C1146.22,369.906 1159.93,385.256 1166.07,399.247C1138.69,429.993 1135.27,398.711 1109.44,393.361C1091.99,389.746 1071.78,398.324 1057.15,408.328L1055.85,409.265L1055.37,408.819C1060.84,400.859 1074.53,390.467 1083.57,386.878C1102.44,379.396 1115.58,383.746 1132.94,390.868C1130.13,388.772 1127.25,386.76 1124.32,384.834C1114.14,378.179 1106.26,376.575 1094.63,378.995C1109.18,367.922 1117.05,370.973 1133.34,376.028C1131.71,371.181 1130.36,368.563 1132.39,363.767ZM972.453,344.158C972.885,346.694 970.667,357.829 970.25,361.201C964.674,406.348 974.252,429.184 1014.63,449.893C1009.58,449.481 1004.88,448.618 999.904,447.77C991.653,445.758 984.504,443.208 977.373,438.438C966.124,431.001 958.4,419.289 955.993,406.017C951.985,384.204 960.233,361.97 972.453,344.158ZM918.71,298.739L920.117,298.891C922.945,304.409 924.633,307.349 928.946,311.787C880.577,314.19 816.705,362.459 782.691,393.528C747.742,425.452 723.966,455.458 679.694,476.081L670.698,479.917C680.739,471.933 691.18,463.881 700.398,454.976C754.3,402.903 782.181,356.918 852.115,322.766C873.331,312.257 895.673,304.196 918.71,298.739ZM1053,303.356C1075.22,301.922 1106.22,311.274 1120.54,329.58C1122.35,331.894 1125.32,336.833 1125.49,339.755C1120.55,340.26 1115.6,340.814 1110.67,341.418C1098.83,318.694 1075.37,312.281 1053,303.356ZM938.686,270.029C968.818,274.735 991.755,281.308 1005.05,311.728C998.054,304.201 994.802,301.046 986.151,295.448C973.286,288.128 958.377,282.114 943.687,279.899C942.335,292.041 943.031,295.016 947.277,306.093C932.65,291.218 936.524,288.831 938.686,270.029ZM1166.98,378.936C1171.52,378.778 1175.53,378.169 1178.49,381.898C1179,384.833 1177.96,386.25 1176.69,389.012C1175.51,390.127 1176.17,389.853 1174.7,390.034C1171.96,384.275 1171.88,382.829 1166.98,378.936ZM688.46,554.407L688.722,554.719C689.018,557.7 655.494,626.911 651.514,634.193C647.31,641.934 642.579,649.377 637.354,656.47C615.348,686.292 590.654,699.61 554.442,705.082L554.063,704.804C554.351,703.472 559.262,701.568 560.86,700.88C610.113,679.667 635.997,635.177 661.414,590.793C668.342,578.694 679.239,565.272 688.46,554.407ZM550.83,534.052L551.478,534.564C537.134,551.218 528.542,565.643 520.318,586.148C515.021,599.357 510.595,616.345 502.09,627.571C492.369,640.404 481.68,643.312 466.818,645.28L466.297,644.708C474.202,639.267 476.927,639.488 484.282,631.483C492.873,622.132 497.509,612.427 502.143,600.767C514.217,570.387 523.58,552.472 550.83,534.052ZM1063.51,330.387C1077.65,329.166 1085.87,332.159 1098.69,337.262C1095.28,338.459 1091.84,338.88 1091.09,342.706C1093.23,347.104 1103.32,350.162 1108.32,352.231C1109.96,352.82 1111.28,353.05 1112.31,354.398C1107.22,355.643 1094.38,352.309 1089.61,350.289C1076.76,344.835 1078.05,334.593 1063.51,330.387ZM1094.46,466.029L1094.76,466.277C1095.04,468.875 1090.97,474.003 1088.63,475.072C1086.82,475.901 1085.52,474.964 1083.73,474.338C1081.85,473.088 1081.98,473.613 1081.59,471.97C1083.44,470.382 1090.8,467.957 1094.46,466.029ZM893.078,433.401C893.926,433.795 894.741,434.257 895.517,434.772C929.031,457.02 938.585,484.978 946.821,521.541C984.117,534.84 1012.68,552.637 1048.29,567.813C1059.14,572.472 1070.18,576.687 1081.37,580.446C1098.09,586.12 1114.51,590.614 1129.72,599.852C1121.16,598.986 1112.64,597.844 1104.16,596.428C1086.03,592.871 1069.9,588.91 1052.89,581.39C1015.21,564.731 977.947,542.915 937.674,532.921C927.271,530.34 910.984,529.561 899.961,528.772C910.91,524.04 916.383,522.63 928.073,520.811C923.28,482.604 915.184,464.255 893.078,433.401ZM1127.86,418.267C1130.9,420.197 1134.88,422.12 1138.14,423.807C1133.72,427.986 1132.07,429.382 1126.99,432.88L1118.68,437.554C1124.08,429.858 1125.22,426.997 1127.86,418.267ZM1046.37,445.454C1054.34,463.974 1056.54,481.884 1079.8,486.199L1080.35,487.007L1078.59,488.372C1049.07,502.602 1045.25,465.635 1046.37,445.454Z" style="fill:rgb(64,0,57);"/>
        <path d="M984.681,620.04C980.385,621.67 953.373,618.479 946.25,618.127C916.769,616.526 887.222,616.542 857.743,618.174C849.995,610.908 845.727,605.357 839.135,596.945C815.195,570.699 796.898,526.903 792.867,491.824C808.515,524.794 839.467,582.805 868.751,604.456C899.059,605.666 955.781,608.876 984.681,620.04ZM1167.24,672.163C1165.2,672.308 1160.79,672.727 1158.95,672.645C1171.44,656.695 1169.27,639.656 1153.89,627.012C1179.18,632.732 1180.73,652.962 1167.24,672.163ZM1223.34,577.459C1221.6,576.236 1217.6,575.447 1215.36,574.872C1230.19,565.373 1230.54,546.541 1218.86,534.181C1242.43,541.701 1239.79,563.741 1223.34,577.459ZM1136.09,678.892C1134.11,678.128 1129.5,677.054 1127.28,676.481L1127.94,675.76C1137.74,664.934 1138.4,652.646 1132.12,639.978C1134.05,639.761 1138.29,642.101 1139.81,643.363C1150.97,652.68 1143.4,670.252 1136.09,678.892ZM665.915,759.138C662.681,758.063 659.981,757.497 656.664,756.766C664.346,746.053 663.638,737.72 656.806,726.752C668.536,732.414 675.849,740.64 668.829,754.031C667.902,755.759 666.931,757.461 665.915,759.138ZM343.687,764.809C339.843,763.395 340.023,758.554 339.768,755.042C350.07,760.058 361.105,760.643 371.971,756.942C373.403,756.448 374.827,755.93 376.242,755.388C366.295,765.206 357.864,769.377 343.687,764.809ZM918.71,298.739L920.117,298.891C922.945,304.409 924.633,307.349 928.946,311.787C880.577,314.19 816.705,362.459 782.691,393.528C747.742,425.452 723.966,455.458 679.694,476.081L670.698,479.917C680.739,471.933 691.18,463.881 700.398,454.976C754.3,402.903 782.181,356.918 852.115,322.766C873.331,312.257 895.673,304.196 918.71,298.739ZM893.078,433.401C893.926,433.795 894.741,434.257 895.517,434.772C929.031,457.02 938.585,484.978 946.821,521.541C984.117,534.84 1012.68,552.637 1048.29,567.813C1059.14,572.472 1070.18,576.687 1081.37,580.446C1098.09,586.12 1114.51,590.614 1129.72,599.852C1121.16,598.986 1112.64,597.844 1104.16,596.428C1086.03,592.871 1069.9,588.91 1052.89,581.39C1015.21,564.731 977.947,542.915 937.674,532.921C927.271,530.34 910.984,529.561 899.961,528.772C910.91,524.04 916.383,522.63 928.073,520.811C923.28,482.604 915.184,464.255 893.078,433.401ZM688.46,554.407L688.722,554.719C689.018,557.7 655.494,626.911 651.514,634.193C647.31,641.934 642.579,649.377 637.354,656.47C615.348,686.292 590.654,699.61 554.442,705.082L554.063,704.804C554.351,703.472 559.262,701.568 560.86,700.88C610.113,679.667 635.997,635.177 661.414,590.793C668.342,578.694 679.239,565.272 688.46,554.407ZM1132.39,363.767C1146.22,369.906 1159.93,385.256 1166.07,399.247C1138.69,429.993 1135.27,398.711 1109.44,393.361C1091.99,389.746 1071.78,398.324 1057.15,408.328L1055.85,409.265L1055.37,408.819C1060.84,400.859 1074.53,390.467 1083.57,386.878C1102.44,379.396 1115.58,383.746 1132.94,390.868C1130.13,388.772 1127.25,386.76 1124.32,384.834C1114.14,378.179 1106.26,376.575 1094.63,378.995C1109.18,367.922 1117.05,370.973 1133.34,376.028C1131.71,371.181 1130.36,368.563 1132.39,363.767ZM972.453,344.158C972.885,346.694 970.667,357.829 970.25,361.201C964.674,406.348 974.252,429.184 1014.63,449.893C1009.58,449.481 1004.88,448.618 999.904,447.77C991.653,445.758 984.504,443.208 977.373,438.438C966.124,431.001 958.4,419.289 955.993,406.017C951.985,384.204 960.233,361.97 972.453,344.158ZM550.83,534.052L551.478,534.564C537.134,551.218 528.542,565.643 520.318,586.148C515.021,599.357 510.595,616.345 502.09,627.571C492.369,640.404 481.68,643.312 466.818,645.28L466.297,644.708C474.202,639.267 476.927,639.488 484.282,631.483C492.873,622.132 497.509,612.427 502.143,600.767C514.217,570.387 523.58,552.472 550.83,534.052ZM1053,303.356C1075.22,301.922 1106.22,311.274 1120.54,329.58C1122.35,331.894 1125.32,336.833 1125.49,339.755C1120.55,340.26 1115.6,340.814 1110.67,341.418C1098.83,318.694 1075.37,312.281 1053,303.356ZM938.686,270.029C968.818,274.735 991.755,281.308 1005.05,311.728C998.054,304.201 994.802,301.046 986.151,295.448C973.286,288.128 958.377,282.114 943.687,279.899C942.335,292.041 943.031,295.016 947.277,306.093C932.65,291.218 936.524,288.831 938.686,270.029ZM1046.37,445.454C1054.34,463.974 1056.54,481.884 1079.8,486.199L1080.35,487.007L1078.59,488.372C1049.07,502.602 1045.25,465.635 1046.37,445.454ZM1063.51,330.387C1077.65,329.166 1085.87,332.159 1098.69,337.262C1095.28,338.459 1091.84,338.88 1091.09,342.706C1093.23,347.104 1103.32,350.162 1108.32,352.231C1109.96,352.82 1111.28,353.05 1112.31,354.398C1107.22,355.643 1094.38,352.309 1089.61,350.289C1076.76,344.835 1078.05,334.593 1063.51,330.387ZM1127.86,418.267C1130.9,420.197 1134.88,422.12 1138.14,423.807C1133.72,427.986 1132.07,429.382 1126.99,432.88L1118.68,437.554C1124.08,429.858 1125.22,426.997 1127.86,418.267ZM1166.98,378.936C1171.52,378.778 1175.53,378.169 1178.49,381.898C1179,384.833 1177.96,386.25 1176.69,389.012C1175.51,390.127 1176.17,389.853 1174.7,390.034C1171.96,384.275 1171.88,382.829 1166.98,378.936ZM1094.46,466.029L1094.76,466.277C1095.04,468.875 1090.97,474.003 1088.63,475.072C1086.82,475.901 1085.52,474.964 1083.73,474.338C1081.85,473.088 1081.98,473.613 1081.59,471.97C1083.44,470.382 1090.8,467.957 1094.46,466.029Z" style="fill:white;"/>
    </g>
</svg>
