<?xml version="1.0" encoding="UTF-8" standalone="no"?>
<!DOCTYPE svg PUBLIC "-//W3C//DTD SVG 1.1//EN" "http://www.w3.org/Graphics/SVG/1.1/DTD/svg11.dtd">
<svg width="100%" height="100%" viewBox="0 0 971 499" version="1.1" xmlns="http://www.w3.org/2000/svg" xmlns:xlink="http://www.w3.org/1999/xlink" xml:space="preserve" xmlns:serif="http://www.serif.com/" style="fill-rule:evenodd;clip-rule:evenodd;stroke-linejoin:round;stroke-miterlimit:2;">
    <g transform="matrix(1,0,0,1,-41.5155,-243.513)">
        <path d="M314.18,319.328C316.487,320.242 321.461,326.484 323.234,328.664C322.962,354.411 323.655,381.542 323.692,407.493L315.004,407.466C314.985,378.085 314.711,348.704 314.18,319.328ZM349.561,460.834C340.945,461.26 332.319,461.456 323.692,461.424C323.255,491.059 323.209,518.381 323.466,547.883L274.643,548.214C273.027,546.558 268.041,541.652 266.887,540.08L314.248,540.017C314.99,511.92 314.783,481.325 314.619,453.136C326.23,452.469 337.927,452.266 349.573,451.662L349.561,460.834ZM202.377,628.698L144.362,628.747C136.13,628.747 123.124,629.12 115.321,628.601C112.26,625.838 109.279,622.987 106.382,620.053L893.005,619.926C892.96,607.073 892.985,594.219 893.082,581.366C895.688,584.341 897.827,586.619 900.634,589.406L900.619,628.516L384.976,628.592L202.377,628.698ZM507.006,539.101C545.284,538.944 583.211,539.776 621.444,537.778L621.588,520.569C622.236,513.323 622.024,503.529 622.003,496.126L628.863,503.193C628.904,517.4 628.865,531.608 628.747,545.815C591.006,547.379 552.66,546.057 514.276,547.498C512.739,545.872 507.494,540.712 507.006,539.101ZM650.41,539.083C687.712,537.595 727.035,538.522 764.63,538.533C765.069,524.283 765.013,510.6 765.21,496.383L765.612,495.011C767.792,494.874 770.856,499.295 772.186,501.067C771.998,515.076 771.497,529.975 771.543,543.908C735.312,547.102 695.371,546.898 658.818,546.981C655.902,544.613 653.102,541.734 650.41,539.083ZM820.255,538.095C828.239,538.376 838.524,537.871 846.546,537.558C847.515,519.058 845.627,499.737 845.973,481.179C846.021,478.596 845.799,464.383 846.186,462.993C849.542,450.97 855.881,436.284 860.123,424.516C871.555,392.797 882.956,361.237 894.851,329.716C895.688,327.497 896.434,325.791 897.863,323.89C900.486,323.736 902.098,322.044 903.873,323.345C906.791,325.484 905.1,330.738 904.1,333.638C901.812,340.27 899.328,347.015 896.898,353.601L868.78,428.867C864.375,440.405 858.218,454.639 854.828,466.135C853.502,470.633 853.872,489.791 853.877,495.404L853.926,546.443C839.446,546.771 824.184,547.382 809.791,547.486C806.776,544.539 803.575,541.509 800.703,538.444C806.475,538.454 814.637,538.678 820.255,538.095ZM171.369,426.825C168.675,426.969 165.623,426.971 162.895,427.035L162.956,364.25C168.869,364.074 174.794,363.56 180.7,363.4C188.173,363.198 193.3,362.958 195.422,371.057C193.218,373.137 175.934,373.204 171.493,373.511L171.369,426.825ZM236.81,343.552C239.182,344.527 244.049,350.58 245.884,352.807C246.002,369.965 246.032,387.123 245.975,404.281C245.949,419.82 246.359,438.964 243.364,454.305C242.623,458.098 238.196,463.344 235.469,466.271C224.163,478.408 208.605,479.149 192.807,479.199C185.759,479.159 178.711,479.169 171.663,479.228L171.593,547.982C157.427,548.006 138.652,548.016 124.591,547.222C122.189,544.786 119.774,542.361 117.346,539.95C132.398,539.501 147.455,539.237 162.513,539.158L163.05,470.499C178.75,469.944 197.348,471.313 212.512,467.834C223.056,465.415 232.579,455.877 235.748,445.448C238.837,435.284 237.378,421.621 238.098,410.961C237.173,394.108 241.449,358.321 236.81,343.552ZM968.922,243.587L977.48,248.217C976.761,254.36 976.941,261.862 976.944,268.132L976.979,297.497L976.982,395.099L976.997,701.724L352.746,701.706L146.07,701.713L77.234,701.708C66.26,701.706 55.238,701.683 44.259,701.671C42.676,701.67 42.577,701.629 41.646,702.451L41.982,692.954C94.562,693.548 148.155,693.04 200.825,693.038L516.025,692.599L968.949,692.56C969.495,687.41 969.161,677.383 969.122,671.93L969.045,637.026L969.077,510.792L969.104,333.619L969.118,275.778C969.119,265.87 969.473,253.336 968.922,243.587ZM794.894,319.535C796.896,320.013 798.911,322.075 800.86,325.061C807.2,334.771 812.847,354.243 815.114,360.725C818.684,370.93 823.708,383.849 826.361,394.213C825.423,396.532 824.212,401.021 823.447,403.568C819.864,394.545 817.188,385.004 814.019,375.866C808.374,359.588 803.043,343.042 797.409,326.734C796.578,324.329 795.74,321.928 794.894,319.535ZM696.664,321.551C699.168,322.309 703.082,326.696 704.991,328.687C705.059,342.952 705.097,357.216 705.106,371.481C705.13,412.472 704.91,453.463 704.445,494.452L696.318,494.431C696.093,469.527 696.388,444.245 696.413,419.295L696.664,321.551ZM553.296,322.381L553.727,321.042C556.249,320.835 560.5,326.155 562.274,328.131L561.594,494.051C559.045,494.124 555.973,494.124 553.48,494.358L553.702,379.162C553.686,361.209 554.156,340.101 553.296,322.381ZM474.568,320.433C478.382,321.201 480.529,325.236 482.981,328.541L483.479,482.608C483.532,503.461 482.884,525.74 483.424,546.355C468.813,546.367 452.116,546.793 437.684,546.342C435.415,544.101 432.423,540.979 429.994,539.065L475.037,539.111C475.207,520.435 475.254,501.695 475.231,482.921C475.164,428.799 474.516,374.395 474.568,320.433ZM397.906,326.114C397.937,323.96 397.609,322.957 398.583,321.264C401.111,321.435 404.975,326.344 407.144,328.526C404.595,390.949 406.713,453.944 406.113,516.429C406.012,526.929 405.834,537.415 405.545,547.881C392.492,548.872 371.782,549.142 358.811,548.536C356.402,547.01 354.061,544.884 351.966,542.678C351.021,541.685 350.127,540.675 349.299,539.697L349.435,538.966L397.576,538.741C397.725,532.618 397.86,526.494 397.982,520.37C398.705,484.094 398.957,447.81 398.739,411.527C398.748,383.052 399.087,354.556 397.906,326.114Z" style="fill:rgb(233,233,233);"/>
        <path d="M41.982,692.954C41.003,629.759 41.867,564.192 41.873,500.831L42.065,243.513L968.922,243.587C969.473,253.336 969.119,265.87 969.118,275.778L969.104,333.619L969.077,510.792L969.045,637.026L969.122,671.93C969.161,677.383 969.495,687.41 968.949,692.56L516.025,692.599L200.825,693.038C148.155,693.04 94.562,693.548 41.982,692.954ZM800.86,325.061C798.911,322.075 796.896,320.013 794.894,319.535C785.257,319.381 775.643,319.212 766.004,319.255C757.781,319.292 749.191,320.003 741.027,320C744.74,329.554 748.475,339.099 752.232,348.635C759.988,368.324 767.837,387.977 775.778,407.592C780.432,418.701 784.97,429.859 789.39,441.063C798.325,463.122 797.251,461.163 797.685,484.958C797.976,502.735 798.146,520.514 798.197,538.293C803.711,537.958 814.843,537.687 820.255,538.095C814.637,538.678 806.475,538.454 800.703,538.444C803.575,541.509 806.776,544.539 809.791,547.486C824.184,547.382 839.446,546.771 853.926,546.443L853.877,495.404C853.872,489.791 853.502,470.633 854.828,466.135C858.218,454.639 864.375,440.405 868.78,428.867L896.898,353.601C899.328,347.015 901.812,340.27 904.1,333.638C905.1,330.738 906.791,325.484 903.873,323.345C902.098,322.044 900.486,323.736 897.863,323.89L897.269,321.802C894.542,321.257 885.868,321.496 882.669,321.494C872.436,321.488 862.204,321.521 851.972,321.651C849.958,327.968 847.799,334.264 845.459,340.469C838.755,358.245 833.461,376.586 826.361,394.213C823.708,383.849 818.684,370.93 815.114,360.725C812.847,354.243 807.2,334.771 800.86,325.061ZM705.106,371.481C705.097,357.216 705.059,342.952 704.991,328.687C703.082,326.696 699.168,322.309 696.664,321.551C691.311,320.84 682.759,321.008 677.238,321.046C667.165,321.116 657.093,321.273 647.022,321.49L646.98,483.453L646.955,524.394C646.953,527.029 646.526,537.472 647.503,538.862C648.497,538.947 649.414,539.027 650.41,539.083C653.102,541.734 655.902,544.613 658.818,546.981C695.371,546.898 735.312,547.102 771.543,543.908C771.497,529.975 771.998,515.076 772.186,501.067C770.856,499.295 767.792,494.874 765.612,495.011L765.21,496.383L764.89,494.789C763.103,494.073 710.302,494.495 704.445,494.452C704.91,453.463 705.13,412.472 705.106,371.481ZM561.594,494.051L562.274,328.131C560.5,326.155 556.249,320.835 553.727,321.042L553.296,322.381L552.882,320.995C548.906,319.533 510.789,320.315 504.76,320.53C504.666,332.775 504.492,409.53 504.749,468.611C504.915,506.597 505.258,537.277 505.915,538.807L507.006,539.101C507.494,540.712 512.739,545.872 514.276,547.498C552.66,546.057 591.006,547.379 628.747,545.815C628.865,531.608 628.904,517.4 628.863,503.193L622.003,496.126C622.024,503.529 622.236,513.323 621.588,520.569C621.073,513.468 621.782,502.171 621.53,494.257C605.732,493.439 587.201,494.665 571.241,494.228C565.386,494.068 559.469,494.823 553.48,494.358C555.973,494.124 559.045,494.124 561.594,494.051ZM483.479,482.608L482.981,328.541C480.529,325.236 478.382,321.201 474.568,320.433C469.033,318.916 433.317,320.331 425.673,320.594C425.541,334.888 425.18,449.958 425.661,506.952C425.818,525.568 426.065,537.987 426.439,538.676C427.869,539.2 428.493,539.089 429.994,539.065C432.423,540.979 435.415,544.101 437.684,546.342C452.116,546.793 468.813,546.367 483.424,546.355C482.884,525.74 483.532,503.461 483.479,482.608ZM406.113,516.429C406.713,453.944 404.595,390.949 407.144,328.526C404.975,326.344 401.111,321.435 398.583,321.264C397.609,322.957 397.937,323.96 397.906,326.114C397.704,323.852 397.603,322.625 397.675,320.372C381.591,320.58 366.085,320.855 349.998,320.553C349.255,331.018 349.576,341.543 349.503,352.025C349.374,370.41 349.835,388.965 349.707,407.327C341.036,407.492 332.364,407.547 323.692,407.493C323.655,381.542 322.962,354.411 323.234,328.664C321.461,326.484 316.487,320.242 314.18,319.328C298.519,319.874 280.443,319.941 264.577,320.082C264.524,340.74 264.297,536.195 265.979,539.772L266.887,540.08C268.041,541.652 273.027,546.558 274.643,548.214L323.466,547.883C323.209,518.381 323.255,491.059 323.692,461.424C332.319,461.456 340.945,461.26 349.561,460.834C349.624,476.185 349.487,491.537 349.143,506.885C348.924,516.682 348.609,526.499 348.53,536.298C348.521,537.393 348.519,538.249 349.435,538.966L349.299,539.697C350.127,540.675 351.021,541.685 351.966,542.678C354.061,544.884 356.402,547.01 358.811,548.536C371.782,549.142 392.492,548.872 405.545,547.881C405.834,537.415 406.012,526.929 406.113,516.429ZM308.437,580.596L195.957,581.11L159.315,581.421C152.491,581.464 141.779,581.254 135.352,581.904C126.099,592.3 110.92,606.194 102.833,616.461C103.87,617.582 105.222,619.171 106.382,620.053C109.279,622.987 112.26,625.838 115.321,628.601C123.124,629.12 136.13,628.747 144.362,628.747L202.377,628.698L384.976,628.592L900.619,628.516L900.634,589.406C897.827,586.619 895.688,584.341 893.082,581.366C890.557,580.806 877.348,581.034 874.063,581.034L830.487,581.049L670.342,580.63L308.437,580.596ZM930.716,276.554C926.224,277.87 922.978,281.034 924.437,286.057C924.989,287.959 926.271,289.562 928.002,290.523C928.976,291.064 930.203,291.254 931.299,291.433C939.289,286.823 941.773,276.901 930.716,276.554ZM927.644,648.62C922.044,653.577 923.607,661.888 930.772,663.463C932.262,663.184 932.159,663.168 933.377,662.231C936.57,660.529 937.105,659.957 938.66,656.669C937.031,652.932 936.567,651.884 934.287,648.539L927.644,648.62ZM509.514,649.529C499.512,654.097 501.848,664.991 512.648,664.018C516.384,662.233 516.597,661.4 518.532,657.705L517.132,652.5C514.404,650.982 512.724,649.963 509.514,649.529ZM236.81,343.552C230.578,331.051 218.757,318.841 204.173,319.279C174.643,320.166 144.888,318.458 115.45,318.581C114.817,380.415 114.588,442.253 114.763,504.089C114.857,514.31 114.87,527.353 114.748,537.847C114.743,538.298 115.116,538.781 115.4,539.206L117.346,539.95C119.774,542.361 122.189,544.786 124.591,547.222C138.652,548.016 157.427,548.006 171.593,547.982L171.663,479.228C178.711,479.169 185.759,479.159 192.807,479.199C208.605,479.149 224.163,478.408 235.469,466.271C238.196,463.344 242.623,458.098 243.364,454.305C246.359,438.964 245.949,419.82 245.975,404.281C246.032,387.123 246.002,369.965 245.884,352.807C244.049,350.58 239.182,344.527 236.81,343.552ZM195.422,371.057C195.276,380.077 195.195,389.098 195.209,398.12C195.218,403.691 196.175,419.572 192.364,423.61C188.87,427.312 176.814,426.236 171.369,426.825L171.493,373.511C175.934,373.204 193.218,373.137 195.422,371.057ZM77.907,650.993C69.051,658.529 74.783,667.473 85.078,664.892C88.052,663.18 88.471,661.413 89.923,658.164C88.501,655.966 87.616,654.463 85.782,652.545C82.827,651.559 81.148,650.97 77.907,650.993ZM78.848,276.555C76.419,277.668 75.265,278.696 74.313,281.326C73.646,283.168 73.744,285.195 74.575,286.969C75.96,289.923 80.273,291.871 83.281,291.157C86.177,289.548 87.797,288.64 88.825,285.275C89.328,283.626 89.153,281.846 88.335,280.329C86.118,276.216 82.891,276.539 78.848,276.555ZM508.932,276.602C499.407,280.578 502.114,291.732 512.393,290.92C519.746,287.645 521.012,275.794 508.932,276.602Z" style="fill:rgb(168,95,0);"/>
        <path d="M397.982,520.37C397.86,526.494 397.725,532.618 397.576,538.741L349.435,538.966C348.519,538.249 348.521,537.393 348.53,536.298C348.609,526.499 348.924,516.682 349.143,506.885C349.487,491.537 349.624,476.185 349.561,460.834L349.573,451.662C337.927,452.266 326.23,452.469 314.619,453.136C314.783,481.325 314.99,511.92 314.248,540.017L266.887,540.08L265.979,539.772C264.297,536.195 264.524,340.74 264.577,320.082C280.443,319.941 298.519,319.874 314.18,319.328C314.711,348.704 314.985,378.085 315.004,407.466L323.692,407.493C332.364,407.547 341.036,407.492 349.707,407.327C349.835,388.965 349.374,370.41 349.503,352.025C349.576,341.543 349.255,331.018 349.998,320.553C366.085,320.855 381.591,320.58 397.675,320.372C397.603,322.625 397.704,323.852 397.906,326.114C399.087,354.556 398.748,383.052 398.739,411.527C398.957,447.81 398.705,484.094 397.982,520.37ZM308.437,580.596L670.342,580.63L830.487,581.049L874.063,581.034C877.348,581.034 890.557,580.806 893.082,581.366C892.985,594.219 892.96,607.073 893.005,619.926L106.382,620.053C105.222,619.171 103.87,617.582 102.833,616.461C110.92,606.194 126.099,592.3 135.352,581.904C141.779,581.254 152.491,581.464 159.315,581.421L195.957,581.11L308.437,580.596ZM41.646,702.451C42.577,701.629 42.676,701.67 44.259,701.671C55.238,701.683 66.26,701.706 77.234,701.708L146.07,701.713L352.746,701.706L976.997,701.724L976.982,395.099L976.979,297.497L976.944,268.132C976.941,261.862 976.761,254.36 977.48,248.217C979.48,249.624 987.424,257.553 989.633,259.805C996.8,267.111 1005.27,274.711 1012.03,282.232C1012.51,298.841 1012.1,317.705 1012.1,334.528L1012.1,435.543L1012.12,741.265L275.279,741.217L131.076,741.225C122.253,741.228 83.295,742.225 78.37,740.692C67.397,729.887 57.122,718.174 45.83,707.658C44.416,706.341 42.016,704.352 41.646,702.451ZM475.231,482.921C475.254,501.695 475.207,520.435 475.037,539.111L429.994,539.065C428.493,539.089 427.869,539.2 426.439,538.676C426.065,537.987 425.818,525.568 425.661,506.952C425.18,449.958 425.541,334.888 425.673,320.594C433.317,320.331 469.033,318.916 474.568,320.433C474.516,374.395 475.164,428.799 475.231,482.921ZM553.48,494.358C559.469,494.823 565.386,494.068 571.241,494.228C587.201,494.665 605.732,493.439 621.53,494.257C621.782,502.171 621.073,513.468 621.588,520.569L621.444,537.778C583.211,539.776 545.284,538.944 507.006,539.101L505.915,538.807C505.258,537.277 504.915,506.597 504.749,468.611C504.492,409.53 504.666,332.775 504.76,320.53C510.789,320.315 548.906,319.533 552.882,320.995L553.296,322.381C554.156,340.101 553.686,361.209 553.702,379.162L553.48,494.358ZM647.022,321.49C657.093,321.273 667.165,321.116 677.238,321.046C682.759,321.008 691.311,320.84 696.664,321.551L696.413,419.295C696.388,444.245 696.093,469.527 696.318,494.431L704.445,494.452C710.302,494.495 763.103,494.073 764.89,494.789L765.21,496.383C765.013,510.6 765.069,524.283 764.63,538.533C727.035,538.522 687.712,537.595 650.41,539.083C649.414,539.027 648.497,538.947 647.503,538.862C646.526,537.472 646.953,527.029 646.955,524.394L646.98,483.453L647.022,321.49ZM797.409,326.734C803.043,343.042 808.374,359.588 814.019,375.866C817.188,385.004 819.864,394.545 823.447,403.568C824.212,401.021 825.423,396.532 826.361,394.213C833.461,376.586 838.755,358.245 845.459,340.469C847.799,334.264 849.958,327.968 851.972,321.651C862.204,321.521 872.436,321.488 882.669,321.494C885.868,321.496 894.542,321.257 897.269,321.802L897.863,323.89C896.434,325.791 895.688,327.497 894.851,329.716C882.956,361.237 871.555,392.797 860.123,424.516C855.881,436.284 849.542,450.97 846.186,462.993C845.799,464.383 846.021,478.596 845.973,481.179C845.627,499.737 847.515,519.058 846.546,537.558C838.524,537.871 828.239,538.376 820.255,538.095C814.843,537.687 803.711,537.958 798.197,538.293C798.146,520.514 797.976,502.735 797.685,484.958C797.251,461.163 798.325,463.122 789.39,441.063C784.97,429.859 780.432,418.701 775.778,407.592C767.837,387.977 759.988,368.324 752.232,348.635C748.475,339.099 744.74,329.554 741.027,320C749.191,320.003 757.781,319.292 766.004,319.255C775.643,319.212 785.257,319.381 794.894,319.535C795.74,321.928 796.578,324.329 797.409,326.734ZM508.932,276.602C521.012,275.794 519.746,287.645 512.393,290.92C502.114,291.732 499.407,280.578 508.932,276.602ZM236.81,343.552C241.449,358.321 237.173,394.108 238.098,410.961C237.378,421.621 238.837,435.284 235.748,445.448C232.579,455.877 223.056,465.415 212.512,467.834C197.348,471.313 178.75,469.944 163.05,470.499L162.513,539.158C147.455,539.237 132.398,539.501 117.346,539.95L115.4,539.206C115.116,538.781 114.743,538.298 114.748,537.847C114.87,527.353 114.857,514.31 114.763,504.089C114.588,442.253 114.817,380.415 115.45,318.581C144.888,318.458 174.643,320.166 204.173,319.279C218.757,318.841 230.578,331.051 236.81,343.552ZM171.369,426.825C176.814,426.236 188.87,427.312 192.364,423.61C196.175,419.572 195.218,403.691 195.209,398.12C195.195,389.098 195.276,380.077 195.422,371.057C193.3,362.958 188.173,363.198 180.7,363.4C174.794,363.56 168.869,364.074 162.956,364.25L162.895,427.035C165.623,426.971 168.675,426.969 171.369,426.825ZM78.848,276.555C82.891,276.539 86.118,276.216 88.335,280.329C89.153,281.846 89.328,283.626 88.825,285.275C87.797,288.64 86.177,289.548 83.281,291.157C80.273,291.871 75.96,289.923 74.575,286.969C73.744,285.195 73.646,283.168 74.313,281.326C75.265,278.696 76.419,277.668 78.848,276.555ZM77.907,650.993C81.148,650.97 82.827,651.559 85.782,652.545C87.616,654.463 88.501,655.966 89.923,658.164C88.471,661.413 88.052,663.18 85.078,664.892C74.783,667.473 69.051,658.529 77.907,650.993ZM927.644,648.62L934.287,648.539C936.567,651.884 937.031,652.932 938.66,656.669C937.105,659.957 936.57,660.529 933.377,662.231C932.159,663.168 932.262,663.184 930.772,663.463C923.607,661.888 922.044,653.577 927.644,648.62ZM930.716,276.554C941.773,276.901 939.289,286.823 931.299,291.433C930.203,291.254 928.976,291.064 928.002,290.523C926.271,289.562 924.989,287.959 924.437,286.057C922.978,281.034 926.224,277.87 930.716,276.554ZM509.514,649.529C512.724,649.963 514.404,650.982 517.132,652.5L518.532,657.705C516.597,661.4 516.384,662.233 512.648,664.018C501.848,664.991 499.512,654.097 509.514,649.529Z" style="fill:rgb(49,49,50);"/>
    </g>
</svg>
