<svg width="100%" height="100%" viewBox="0 0 927 495" version="1.1" xmlns="http://www.w3.org/2000/svg" xmlns:xlink="http://www.w3.org/1999/xlink" xml:space="preserve" xmlns:serif="http://www.serif.com/" style="fill-rule:evenodd;clip-rule:evenodd;stroke-linejoin:round;stroke-miterlimit:2;">
    <g transform="matrix(1,0,0,1,-267.609,-257.627)">
        <path d="M690.308,378.28C685.079,378.531 677.388,378.151 673.431,381.273C671.423,385.82 672.313,478.927 672.462,501.131C672.471,502.413 672.477,503.459 672.48,504.238C670.929,504.039 669.462,503.834 668.155,503.291C667.094,502.851 666.139,502.187 665.329,501.123C663.574,498.816 663.796,383.698 665.303,372.177C668.551,367.934 683.529,368.471 688.089,370.575C689.976,371.445 690.177,376.312 690.308,378.28ZM721.28,349.102C737.561,356.364 730.384,393.425 733.259,409.047C722.555,417.943 709.768,427.24 699.679,436.007L690.829,427.437C701.646,419.574 716.428,407.475 724.345,397.072C724.319,382.326 726.01,362.579 721.28,349.102ZM607.663,334.575C610.407,336.629 613.477,340.276 615.521,343.062L615.631,552.299L579.413,552.179L571.026,543.818C573.765,543.8 580.376,543.853 587.272,543.859C596.112,543.868 605.42,543.801 607.64,543.417L607.663,334.575ZM823.805,336.678L824.658,335.835C835.338,347.037 833.819,353.742 835.678,368.531L840.679,408.433C841.019,411.038 841.358,413.644 841.694,416.25C845.756,447.759 849.49,479.309 852.896,510.895C853.942,520.438 857.332,544.137 857.409,552.265L824.925,552.181L816.453,543.758C820.885,543.758 845.965,543.987 849.171,543.388C848.863,536.296 847.1,524.719 846.219,517.429L840.466,469.54C838.542,453.28 836.686,436.55 834.755,419.731C831.536,391.705 828.108,363.432 823.805,336.678ZM958.051,347.611C960.91,348.936 963.059,351.375 964.673,354.568C971.843,368.756 968.462,397.841 969.928,410.357C959.944,416.914 946.115,425.568 936.745,432.606C934.215,430.224 928.718,424.747 926.202,422.843C933.883,418.885 953.271,404.959 960.912,399.622C960.504,387.233 961.917,370.199 960.11,356.857C959.655,353.496 958.995,350.37 958.051,347.611ZM724.556,475.002C724.495,469.085 724.429,463.907 724.435,460.624C726.843,463.057 730.155,466.219 732.303,468.751C732.315,469.532 732.326,470.315 732.336,471.1C732.472,481.846 732.415,492.902 732.625,503.562C733.16,530.685 732.593,552.288 699.431,552.135L678.036,552.003C663.809,552.007 649.917,552.071 640.754,538.859C645.111,540.956 651.607,543.486 656.502,543.269C682.48,542.112 721.319,552.438 723.835,514.685C724.83,508.283 724.705,489.444 724.556,475.002ZM426.358,347.454C445.776,364.331 434.725,387 438.762,409.32C432.046,416.018 413.73,429.26 405.419,435.572C402.954,433.162 398.018,428.632 396.236,426C408.093,417.297 419.182,409.434 429.971,399.377C429.896,383.103 431.94,361.922 426.358,347.454ZM429.832,459.95C432.918,460.932 435.998,466.093 437.725,468.813C438.203,481.504 437.812,494.84 438.099,507.371C438.626,530.384 439.117,552.934 408.972,552.118C393.756,551.706 376.33,553.568 361.212,550.112C355.975,548.915 349.118,543.138 345.981,538.861C360.385,546.983 383.301,541.868 398.959,543.489C413.291,544.972 427.729,534.715 429.16,520.61C431.046,502.016 429.964,478.756 429.832,459.95ZM396.325,378.284C388.739,378.649 378.293,377.206 378.391,387.105C378.776,425.988 377.507,465.406 378.514,504.243C375.299,503.994 372.845,503.719 370.953,500.926C369.822,496.077 369.58,378.252 371.141,372.063C374.526,368.344 382.417,368.934 387.002,369.094C395.088,369.376 395.598,370.928 396.325,378.284ZM486.143,406.958C487.325,385.253 486.167,358.452 486.547,336.212C489.311,339.499 491.929,342.449 494.19,346.129L494.301,390.537C494.304,396.979 494.609,407.738 494.121,413.822C491.382,414.09 489.904,414.433 487.227,413.725C485.68,411.088 486.207,410.36 486.143,406.958ZM550.736,335.983C553.303,338.796 555.687,341.397 558.076,344.363C559.537,361.695 558.556,396.198 558.563,414.61L558.669,552.298L523.074,552.196C520.179,549.463 516.971,546.556 514.239,543.701C519.118,543.73 547.538,544.047 550.661,543.402L550.736,335.983ZM513.516,457.661C513.358,460.861 513.153,464.086 513.175,467.287L494.259,467.622C494.179,495.84 494.276,524.057 494.55,552.273L458.537,552.202L450.128,543.731C455.171,543.752 482.754,544.083 486.245,543.419L486.162,458.311C495.077,458.347 504.469,457.785 513.516,457.661ZM1087.67,632.003L338.422,631.945C335.463,629.003 333.765,627.234 331.2,623.968L331.459,622.755L1079.4,622.917C1080.21,616.908 1079.74,592.824 1079.77,585.325C1082.49,588.259 1084.91,591.26 1087.44,594.349L1087.67,632.003ZM774.401,543.404C774.936,533.813 776.784,521.435 777.959,511.707C785.341,511.711 804.807,511.119 811.093,512.04C812.661,514.287 812.304,515.505 812.644,518.537L811.881,520.143C808.047,521.064 790.012,520.534 785.11,520.478C784.074,530.553 782.585,542.261 782.09,552.257L748.859,552.198C745.654,549.303 743.015,546.862 740.031,543.749C745.34,543.761 770.934,544.039 774.401,543.404ZM1157.95,257.627L1165.42,264.478L1165.38,712.817L270.619,712.754L267.609,704.191L1157.88,704.17L1157.95,257.627ZM875.439,539.748C887.636,545.218 908.942,543.411 923.108,543.408C924.503,540.861 926.998,535.552 929.136,534.146C931.658,535.374 931.998,540.328 932.509,543.054C932.052,551.815 930.809,551.943 921.956,552.348C910.769,552.859 879.687,553.074 875.439,539.748ZM960.985,543.401L960.881,444.933C961.14,440.625 961.365,436.607 961.409,432.277C963.806,435.121 967.019,438.688 968.848,441.803L968.938,552.338L940.916,552.217L932.583,543.706C936.816,543.735 957.838,544.028 960.985,543.401ZM906.909,504.246C897.88,503.628 898.707,498.661 898.701,491.202C898.674,456.665 898.577,422.171 898.738,387.639C898.752,384.435 898.769,381.23 898.789,378.025C898.09,367.851 907.081,369.307 914.337,369.171C921.075,369.044 924.101,369.492 925.21,374.361C925.456,375.443 925.608,376.743 925.685,378.303C923.321,378.398 919.999,378.29 916.783,378.588C913.173,378.923 909.697,379.771 907.86,381.994C907.73,382.152 907.609,382.578 907.497,383.245C905.413,395.704 906.481,492.379 906.909,504.246ZM1044.38,378.231C1039.53,378.43 1030.98,377.87 1027.44,381.664C1023.26,386.136 1027.26,488.761 1025.95,504.388C1023.1,503.889 1021,503.56 1019.09,501.452C1017.38,497.419 1016.92,378.896 1018.78,372.284C1022.53,368.755 1029.48,368.918 1034.32,369.043C1042.27,369.248 1043.76,370.836 1044.38,378.231ZM994.129,539.075C1007.65,546.087 1022.77,542.666 1036.97,543.542C1081.94,546.319 1079.4,522.229 1079.44,487.96L1079.49,440.344L1079.49,389.969C1079.49,377.998 1080.75,360.039 1076.66,349.02C1089.64,353.386 1087.49,385.51 1087.5,396.264L1087.48,441.369L1087.51,496.013C1087.5,505.887 1087.91,515.964 1087.3,525.811C1087.08,529.346 1086.51,532.746 1085.35,536.099C1083.32,541.974 1079.89,546.483 1074.21,549.153C1064.79,553.58 1018.26,553.554 1008.25,549.777C1003.89,548.132 996.448,544.18 994.357,539.831C994.243,539.594 994.205,539.327 994.129,539.075ZM785.784,444.292C788.694,417.547 793.52,377.477 794.169,371.033C796.17,383.591 797.195,398.324 798.137,411.062C797.671,420.218 796.502,429.863 795.255,439.542C793.982,449.419 792.629,459.332 791.859,468.8C788.602,468.884 786.888,468.929 783.622,468.564C783.341,467.831 784.32,457.748 785.784,444.292Z" style="fill:rgb(244,244,243);"  data-color="color-3"/>
        <path d="M270.619,712.754L1165.38,712.817L1165.42,264.478C1168.32,266.592 1190.24,296.338 1194.21,301.643L1194.2,752.28L492.234,752.26L352.709,752.302C345.272,752.303 306.071,752.976 302.362,751.752C292.091,738.767 281.09,725.626 270.619,712.754ZM862.453,450.58L862.483,393.154C862.507,364.808 857.866,328.352 898.421,331.895C920.938,333.862 944.445,324.316 958.051,347.611C958.995,350.37 959.655,353.496 960.11,356.857C961.917,370.199 960.504,387.233 960.912,399.622C953.271,404.959 933.883,418.885 926.202,422.843C924.849,417.979 925.606,384.862 925.685,378.303C925.608,376.743 925.456,375.443 925.21,374.361C924.101,369.492 921.075,369.044 914.337,369.171C907.081,369.307 898.09,367.851 898.789,378.025C898.769,381.23 898.752,384.435 898.738,387.639C898.577,422.171 898.674,456.665 898.701,491.202C898.707,498.661 897.88,503.628 906.909,504.246C912.339,503.454 920.207,505.325 924.05,502.066C926.655,495.656 925.613,464.426 925.564,455.44C936.184,447.76 949.606,439.407 960.717,432.106C960.601,436.704 960.65,440.339 960.881,444.933L960.985,543.401C956.036,542.622 938.344,543.025 932.509,543.054C931.998,540.328 931.658,535.374 929.136,534.146C926.998,535.552 924.503,540.861 923.108,543.408C908.942,543.411 887.636,545.218 875.439,539.748C873.075,537.26 869.262,535.711 866.625,530.85C864.524,526.978 862.978,523.045 862.844,518.572C862.173,496.185 862.45,472.997 862.453,450.58ZM834.755,419.731C836.686,436.55 838.542,453.28 840.466,469.54L846.219,517.429C847.1,524.719 848.863,536.296 849.171,543.388C843.588,542.513 821.952,543.052 815.394,543.1C813.896,536.095 813.915,523.785 812.644,518.537C812.304,515.505 812.661,514.287 811.093,512.04C804.807,511.119 785.341,511.711 777.959,511.707C776.784,521.435 774.936,533.813 774.401,543.404C768.137,542.456 745.836,543.073 738.56,543.173C739.545,525.105 743.251,503.496 745.167,485.074C745.915,477.88 746.727,470.671 747.585,463.452C752.772,419.773 759.617,375.708 763.995,332.314C771.921,332.354 818.512,331.699 822.904,332.82C823.379,334.382 823.517,335.059 823.805,336.678C828.108,363.432 831.536,391.705 834.755,419.731ZM785.784,444.292C784.32,457.748 783.341,467.831 783.622,468.564C786.888,468.929 788.602,468.884 791.859,468.8L804.96,468.783C803.39,458.381 802.114,447.534 800.924,436.699C799.976,428.069 799.082,419.446 798.137,411.062C797.195,398.324 796.17,383.591 794.169,371.033C793.52,377.477 788.694,417.547 785.784,444.292ZM1009.07,332.301C1023.14,332.486 1048.2,329.979 1059.26,333.215C1065.9,335.191 1071.52,339.678 1074.86,345.74C1075.46,346.832 1076.07,347.92 1076.66,349.02C1080.75,360.039 1079.49,377.998 1079.49,389.969L1079.49,440.344L1079.44,487.96C1079.4,522.229 1081.94,546.319 1036.97,543.542C1022.77,542.666 1007.65,546.087 994.129,539.075C986.923,532.652 982.504,527.556 982.154,517.318C981.376,494.562 981.727,471.679 981.731,448.896L981.762,391.928C981.773,378.829 981.263,365.555 983.458,352.782C984.029,349.462 985.575,346.053 987.761,342.988C992.232,336.718 999.38,331.89 1006.32,332.222C1007.18,332.263 1008.1,332.289 1009.07,332.301ZM1044.38,378.231C1043.76,370.836 1042.27,369.248 1034.32,369.043C1029.48,368.918 1022.53,368.755 1018.78,372.284C1016.92,378.896 1017.38,497.419 1019.09,501.452C1021,503.56 1023.1,503.889 1025.95,504.388C1031.03,503.118 1038.47,505.607 1042.92,501.79C1045.79,494.351 1044.1,394.643 1044.38,378.231ZM630.093,522.382C627.596,512.752 628.632,501.59 628.619,491.768L628.588,448.627L628.596,392.498C628.61,364.45 623.764,328.446 663.906,331.854C687.819,333.884 706.782,324.089 721.28,349.102C726.01,362.579 724.319,382.326 724.345,397.072C716.428,407.475 701.646,419.574 690.829,427.437C689.337,422.994 690.197,385.571 690.308,378.28C690.177,376.312 689.976,371.445 688.089,370.575C683.529,368.471 668.551,367.934 665.303,372.177C663.796,383.698 663.574,498.816 665.329,501.123C666.139,502.187 667.094,502.851 668.155,503.291C669.462,503.834 670.929,504.039 672.48,504.238C678.081,503.777 684.756,504.613 688.918,501.481C690.069,499.712 690.324,496.011 690.299,492.185C690.275,488.559 689.999,484.822 689.994,482.509C701.283,474.109 712.771,465.979 724.448,458.127C724.114,459.966 723.88,466.93 723.739,475.412C723.491,490.401 723.534,510.13 723.835,514.685C721.319,552.438 682.48,542.112 656.502,543.269C651.607,543.486 645.111,540.956 640.754,538.859C639.438,536.657 635.243,533.842 633.051,529.919C631.734,527.562 630.78,525.03 630.093,522.382ZM589.18,542.902C581.275,542.937 573.234,543.093 569.879,543.114L569.758,332.294C575.616,332.269 603.21,331.797 607.058,332.85L607.663,334.575L607.64,543.417C604.809,542.954 597.062,542.867 589.18,542.902ZM1079.4,622.917L331.459,622.755C332.713,619.292 356.145,588.449 359.699,583.791L1079.13,583.83C1079.1,591.98 1078.55,616.222 1079.4,622.917ZM1127.06,661.269C1129.08,660.428 1131.41,660.75 1133.13,662.111C1134.85,663.472 1135.69,665.659 1135.34,667.824C1134.99,669.99 1133.49,671.795 1131.43,672.538C1128.34,673.652 1124.93,672.099 1123.74,669.037C1122.56,665.979 1124.03,662.53 1127.06,661.269ZM1127.81,285.474C1130.92,284.667 1134.1,286.447 1135.05,289.512C1135.99,292.574 1134.36,295.839 1131.34,296.922C1129.26,297.668 1126.95,297.211 1125.31,295.734C1123.67,294.258 1122.96,291.998 1123.49,289.855C1124.02,287.71 1125.68,286.027 1127.81,285.474ZM716.874,661.274C719.948,660.105 723.388,661.645 724.564,664.717C725.739,667.789 724.208,671.233 721.139,672.416C718.061,673.603 714.604,672.065 713.424,668.983C712.244,665.901 713.79,662.447 716.874,661.274ZM345.981,538.861C342.834,535.302 340.3,533.915 337.82,529.314C333.05,520.464 334.384,509.018 334.378,499.083L334.37,463.107L334.4,398.765C334.41,379.191 328.5,333.551 358.184,332.246C374.468,331.53 394.15,330.93 410.21,333.44C417.146,334.524 423.124,341.62 426.358,347.454C431.94,361.922 429.896,383.103 429.971,399.377C419.182,409.434 408.093,417.297 396.236,426L396.325,378.284C395.598,370.928 395.088,369.376 387.002,369.094C382.417,368.934 374.526,368.344 371.141,372.063C369.58,378.252 369.822,496.077 370.953,500.926C372.845,503.719 375.299,503.994 378.514,504.243C383.304,503.088 391.395,505.29 395.54,501.012C397.03,497.887 396.298,486.202 396.223,482.006C406.443,474.677 417.975,466.189 428.469,459.467L429.832,459.95C429.964,478.756 431.046,502.016 429.16,520.61C427.729,534.715 413.291,544.972 398.959,543.489C383.301,541.868 360.385,546.983 345.981,538.861ZM296.836,285.442C300.047,284.923 303.079,287.082 303.639,290.288C304.199,293.493 302.078,296.553 298.881,297.153C296.777,297.548 294.622,296.781 293.242,295.144C291.861,293.507 291.468,291.253 292.212,289.245C292.956,287.237 294.722,285.784 296.836,285.442ZM717.958,285.504C721.098,284.948 724.11,286.989 724.761,290.112C725.411,293.234 723.464,296.308 720.364,297.053C718.273,297.556 716.074,296.88 714.625,295.29C713.177,293.701 712.708,291.448 713.401,289.412C714.095,287.376 715.841,285.879 717.958,285.504ZM486.245,543.419C480.38,542.462 455.543,543.077 448.654,543.134L448.748,332.3L486.284,332.359C484.91,348.377 486.346,366.164 485.818,382.345C485.565,390.097 485.695,399.247 486.143,406.958C486.207,410.36 485.68,411.088 487.227,413.725C489.904,414.433 491.382,414.09 494.121,413.822C500.08,413.331 507.502,413.476 513.614,413.453L513.556,332.274C520.167,332.384 545.919,331.174 550.115,333.299L550.736,335.983L550.661,543.402C545.342,542.514 520.164,543.014 513.62,543.037L513.61,485.294C513.625,477.516 514.228,464.714 513.516,457.661C504.469,457.785 495.077,458.347 486.162,458.311L486.245,543.419ZM295.677,661.302C298.764,660.128 302.217,661.683 303.385,664.773C304.553,667.862 302.994,671.314 299.903,672.478C296.819,673.639 293.378,672.083 292.212,669C291.046,665.918 292.596,662.473 295.677,661.302Z"  data-color="color-2"/>
        <path d="M267.609,704.191L267.685,257.628L1157.95,257.627L1157.88,704.17L267.609,704.191ZM1009.07,332.301C1008.1,332.289 1007.18,332.263 1006.32,332.222C999.38,331.89 992.232,336.718 987.761,342.988C985.575,346.053 984.029,349.462 983.458,352.782C981.263,365.555 981.773,378.829 981.762,391.928L981.731,448.896C981.727,471.679 981.376,494.562 982.154,517.318C982.504,527.556 986.923,532.652 994.129,539.075C994.205,539.327 994.243,539.594 994.357,539.831C996.448,544.18 1003.89,548.132 1008.25,549.777C1018.26,553.554 1064.79,553.58 1074.21,549.153C1079.89,546.483 1083.32,541.974 1085.35,536.099C1086.51,532.746 1087.08,529.346 1087.3,525.811C1087.91,515.964 1087.5,505.887 1087.51,496.013L1087.48,441.369L1087.5,396.264C1087.49,385.51 1089.64,353.386 1076.66,349.02C1076.07,347.92 1075.46,346.832 1074.86,345.74C1071.52,339.678 1065.9,335.191 1059.26,333.215C1048.2,329.979 1023.14,332.486 1009.07,332.301ZM964.673,354.568C963.059,351.375 960.91,348.936 958.051,347.611C944.445,324.316 920.938,333.862 898.421,331.895C857.866,328.352 862.507,364.808 862.483,393.154L862.453,450.58C862.45,472.997 862.173,496.185 862.844,518.572C862.978,523.045 864.524,526.978 866.625,530.85C869.262,535.711 873.075,537.26 875.439,539.748C879.687,553.074 910.769,552.859 921.956,552.348C930.809,551.943 932.052,551.815 932.509,543.054C938.344,543.025 956.036,542.622 960.985,543.401C957.838,544.028 936.816,543.735 932.583,543.706L940.916,552.217L968.938,552.338L968.848,441.803C967.019,438.688 963.806,435.121 961.409,432.277C961.365,436.607 961.14,440.625 960.881,444.933C960.65,440.339 960.601,436.704 960.717,432.106C949.606,439.407 936.184,447.76 925.564,455.44C925.613,464.426 926.655,495.656 924.05,502.066C920.207,505.325 912.339,503.454 906.909,504.246C906.481,492.379 905.413,395.704 907.497,383.245C907.609,382.578 907.73,382.152 907.86,381.994C909.697,379.771 913.173,378.923 916.783,378.588C919.999,378.29 923.321,378.398 925.685,378.303C925.606,384.862 924.849,417.979 926.202,422.843C928.718,424.747 934.215,430.224 936.745,432.606C946.115,425.568 959.944,416.914 969.928,410.357C968.462,397.841 971.843,368.756 964.673,354.568ZM841.694,416.25C841.358,413.644 841.019,411.038 840.679,408.433L835.678,368.531C833.819,353.742 835.338,347.037 824.658,335.835L823.805,336.678C823.517,335.059 823.379,334.382 822.904,332.82C818.512,331.699 771.921,332.354 763.995,332.314C759.617,375.708 752.772,419.773 747.585,463.452C746.727,470.671 745.915,477.88 745.167,485.074C743.251,503.496 739.545,525.105 738.56,543.173C745.836,543.073 768.137,542.456 774.401,543.404C770.934,544.039 745.34,543.761 740.031,543.749C743.015,546.862 745.654,549.303 748.859,552.198L782.09,552.257C782.585,542.261 784.074,530.553 785.11,520.478C790.012,520.534 808.047,521.064 811.881,520.143L812.644,518.537C813.915,523.785 813.896,536.095 815.394,543.1C821.952,543.052 843.588,542.513 849.171,543.388C845.965,543.987 820.885,543.758 816.453,543.758L824.925,552.181L857.409,552.265C857.332,544.137 853.942,520.438 852.896,510.895C849.49,479.309 845.756,447.759 841.694,416.25ZM732.336,471.1C732.326,470.315 732.315,469.532 732.303,468.751C730.155,466.219 726.843,463.057 724.435,460.624C724.429,463.907 724.495,469.085 724.556,475.002C724.705,489.444 724.83,508.283 723.835,514.685C723.534,510.13 723.491,490.401 723.739,475.412C723.88,466.93 724.114,459.966 724.448,458.127C712.771,465.979 701.283,474.109 689.994,482.509C689.999,484.822 690.275,488.559 690.299,492.185C690.324,496.011 690.069,499.712 688.918,501.481C684.756,504.613 678.081,503.777 672.48,504.238C672.477,503.459 672.471,502.413 672.462,501.131C672.313,478.927 671.423,385.82 673.431,381.273C677.388,378.151 685.079,378.531 690.308,378.28C690.197,385.571 689.337,422.994 690.829,427.437L699.679,436.007C709.768,427.24 722.555,417.943 733.259,409.047C730.384,393.425 737.561,356.364 721.28,349.102C706.782,324.089 687.819,333.884 663.906,331.854C623.764,328.446 628.61,364.45 628.596,392.498L628.588,448.627L628.619,491.768C628.632,501.59 627.596,512.752 630.093,522.382C630.78,525.03 631.734,527.562 633.051,529.919C635.243,533.842 639.438,536.657 640.754,538.859C649.917,552.071 663.809,552.007 678.036,552.003L699.431,552.135C732.593,552.288 733.16,530.685 732.625,503.562C732.415,492.902 732.472,481.846 732.336,471.1ZM615.631,552.299L615.521,343.062C613.477,340.276 610.407,336.629 607.663,334.575L607.058,332.85C603.21,331.797 575.616,332.269 569.758,332.294L569.879,543.114C573.234,543.093 581.275,542.937 589.18,542.902C597.062,542.867 604.809,542.954 607.64,543.417C605.42,543.801 596.112,543.868 587.272,543.859C580.376,543.853 573.765,543.8 571.026,543.818L579.413,552.179L615.631,552.299ZM1079.13,583.83L359.699,583.791C356.145,588.449 332.713,619.292 331.459,622.755L331.2,623.968C333.765,627.234 335.463,629.003 338.422,631.945L1087.67,632.003L1087.44,594.349C1084.91,591.26 1082.49,588.259 1079.77,585.325C1079.74,592.824 1080.21,616.908 1079.4,622.917C1078.55,616.222 1079.1,591.98 1079.13,583.83ZM795.255,439.542C796.502,429.863 797.671,420.218 798.137,411.062C799.082,419.446 799.976,428.069 800.924,436.699C802.114,447.534 803.39,458.381 804.96,468.783L791.859,468.8C792.629,459.332 793.982,449.419 795.255,439.542ZM1025.95,504.388C1027.26,488.761 1023.26,386.136 1027.44,381.664C1030.98,377.87 1039.53,378.43 1044.38,378.231C1044.1,394.643 1045.79,494.351 1042.92,501.79C1038.47,505.607 1031.03,503.118 1025.95,504.388ZM295.677,661.302C292.596,662.473 291.046,665.918 292.212,669C293.378,672.083 296.819,673.639 299.903,672.478C302.994,671.314 304.553,667.862 303.385,664.773C302.217,661.683 298.764,660.128 295.677,661.302ZM486.245,543.419C482.754,544.083 455.171,543.752 450.128,543.731L458.537,552.202L494.55,552.273C494.276,524.057 494.179,495.84 494.259,467.622L513.175,467.287C513.153,464.086 513.358,460.861 513.516,457.661C514.228,464.714 513.625,477.516 513.61,485.294L513.62,543.037C520.164,543.014 545.342,542.514 550.661,543.402C547.538,544.047 519.118,543.73 514.239,543.701C516.971,546.556 520.179,549.463 523.074,552.196L558.669,552.298L558.563,414.61C558.556,396.198 559.537,361.695 558.076,344.363C555.687,341.397 553.303,338.796 550.736,335.983L550.115,333.299C545.919,331.174 520.167,332.384 513.556,332.274L513.614,413.453C507.502,413.476 500.08,413.331 494.121,413.822C494.609,407.738 494.304,396.979 494.301,390.537L494.19,346.129C491.929,342.449 489.311,339.499 486.547,336.212C486.167,358.452 487.325,385.253 486.143,406.958C485.695,399.247 485.565,390.097 485.818,382.345C486.346,366.164 484.91,348.377 486.284,332.359L448.748,332.3L448.654,543.134C455.543,543.077 480.38,542.462 486.245,543.419ZM717.958,285.504C715.841,285.879 714.095,287.376 713.401,289.412C712.708,291.448 713.177,293.701 714.625,295.29C716.074,296.88 718.273,297.556 720.364,297.053C723.464,296.308 725.411,293.234 724.761,290.112C724.11,286.989 721.098,284.948 717.958,285.504ZM296.836,285.442C294.722,285.784 292.956,287.237 292.212,289.245C291.468,291.253 291.861,293.507 293.242,295.144C294.622,296.781 296.777,297.548 298.881,297.153C302.078,296.553 304.199,293.493 303.639,290.288C303.079,287.082 300.047,284.923 296.836,285.442ZM345.981,538.861C349.118,543.138 355.975,548.915 361.212,550.112C376.33,553.568 393.756,551.706 408.972,552.118C439.117,552.934 438.626,530.384 438.099,507.371C437.812,494.84 438.203,481.504 437.725,468.813C435.998,466.093 432.918,460.932 429.832,459.95L428.469,459.467C417.975,466.189 406.443,474.677 396.223,482.006C396.298,486.202 397.03,497.887 395.54,501.012C391.395,505.29 383.304,503.088 378.514,504.243C377.507,465.406 378.776,425.988 378.391,387.105C378.293,377.206 388.739,378.649 396.325,378.284L396.236,426C398.018,428.632 402.954,433.162 405.419,435.572C413.73,429.26 432.046,416.018 438.762,409.32C434.725,387 445.776,364.331 426.358,347.454C423.124,341.62 417.146,334.524 410.21,333.44C394.15,330.93 374.468,331.53 358.184,332.246C328.5,333.551 334.41,379.191 334.4,398.765L334.37,463.107L334.378,499.083C334.384,509.018 333.05,520.464 337.82,529.314C340.3,533.915 342.834,535.302 345.981,538.861ZM1127.06,661.269C1124.03,662.53 1122.56,665.979 1123.74,669.037C1124.93,672.099 1128.34,673.652 1131.43,672.538C1133.49,671.795 1134.99,669.99 1135.34,667.824C1135.69,665.659 1134.85,663.472 1133.13,662.111C1131.41,660.75 1129.08,660.428 1127.06,661.269ZM716.874,661.274C713.79,662.447 712.244,665.901 713.424,668.983C714.604,672.065 718.061,673.603 721.139,672.416C724.208,671.233 725.739,667.789 724.564,664.717C723.388,661.645 719.948,660.105 716.874,661.274ZM1127.81,285.474C1125.68,286.027 1124.02,287.71 1123.49,289.855C1122.96,291.998 1123.67,294.258 1125.31,295.734C1126.95,297.211 1129.26,297.668 1131.34,296.922C1134.36,295.839 1135.99,292.574 1135.05,289.512C1134.1,286.447 1130.92,284.667 1127.81,285.474Z" style="fill:rgb(162,0,0);"  data-color="color-1"/>
    </g>
</svg>
