<?xml version="1.0" encoding="UTF-8" standalone="no"?>
<!DOCTYPE svg PUBLIC "-//W3C//DTD SVG 1.1//EN" "http://www.w3.org/Graphics/SVG/1.1/DTD/svg11.dtd">
<svg width="100%" height="100%" viewBox="0 0 4096 4096" version="1.1" xmlns="http://www.w3.org/2000/svg" xmlns:xlink="http://www.w3.org/1999/xlink" xml:space="preserve" xmlns:serif="http://www.serif.com/" style="fill-rule:evenodd;clip-rule:evenodd;stroke-linejoin:round;stroke-miterlimit:2;">
    <path d="M769.432,887.643L2152.4,887.427L2537.6,887.437C2628.81,887.503 2731.41,883.507 2820.38,897.715C2926.33,914.941 3026.39,958.024 3111.72,1023.15C3271.93,1146.71 3348.35,1352.67 3327.83,1551.98C3311.78,1707.84 3280.75,1864.32 3257.86,2019.53L3209.47,2345.45C3185.18,2507.3 3163.39,2684.43 3059.55,2818.44C3044.31,2841.6 3030.6,2858.69 3012.37,2879.6C3005.7,2888.88 2978.03,2917.49 2969.3,2926.05C2873.29,3021.9 2751.21,3087.39 2618.26,3114.38C2507.54,3137.45 2391.12,3131.69 2277.9,3131.69L1877.11,3131.68L519.564,3130.98L703.913,2910.5C764.14,2838.89 830.801,2768.52 873.549,2684.51C915.881,2601.32 926.763,2468.67 941.614,2375.02L987.778,2085.61L1102.71,1361.11C1015.3,1232.73 921.885,1107.46 833.958,979.388C812.852,948.645 792.203,917.15 769.432,887.643Z" style="fill:rgb(254,246,235);fill-rule:nonzero;"/>
    <path d="M2380.55,959L2610.34,958.665C2662.88,958.638 2715.93,956.944 2767.62,961.346C3058.55,986.124 3265.94,1197.25 3260.97,1493.74C3259.61,1574.97 3247.93,1640.43 3235.81,1720.5L3191.26,2012.41L3143.41,2331.48C3129.78,2422.69 3118.19,2525.63 3087.79,2611.92C3053.67,2710.65 2997.8,2800.46 2924.31,2874.71C2843.76,2955.86 2742.27,3013.06 2631.14,3039.93C2523.83,3066.78 2435.98,3062.59 2326.7,3062.6L2082.75,3062.58L1289,3062.53L664.739,3062.32C697.082,3027.74 738.429,2975.62 769.49,2938.87C859.973,2831.83 953.41,2731.95 976.035,2587.94C988.433,2509.02 1001.74,2428.41 1014.51,2348.94L1093.98,1853.42L1142.76,1547.62C1151.49,1493.44 1162.92,1438.65 1168.76,1384.13C1170.43,1368.49 1169.93,1351.5 1165.72,1336.24C1160.32,1316.69 939.405,1008.37 905.224,959.669L2380.55,959Z" style="fill:rgb(0,7,16);fill-rule:nonzero;"/>
    <path d="M1901.28,1837.44C1902.17,1842.49 1898.19,1886.55 1897.88,1897.03C1895.9,1968.77 1918.36,2039.05 1961.57,2096.35C2018.82,2171.85 2092.37,2211.56 2184.9,2223.9C2137.84,2251.88 2100.34,2249.69 2046.5,2249.88C1922.82,2249.23 1837.4,2264.89 1816.81,2112.65C1843.08,2122.68 1866.46,2127.82 1893.65,2133.84C1827.57,2038.19 1845.19,1933.62 1901.28,1837.44ZM2045.31,1660.87C2144.5,1653.83 2236,1673.15 2316.35,1732.17C2427.72,1814 2459.39,1910.32 2481.06,2039.38C2446.55,2015.8 2443.02,2013.83 2421.84,1977.56C2405.02,1950.23 2389.84,1926.46 2369.76,1901.16C2289.48,1800.62 2177.97,1729.72 2052.87,1699.66C2008.68,1688.82 1968.36,1684.15 1923.23,1679.06C1967.77,1667.64 2000.18,1663.22 2045.31,1660.87Z" style="fill:rgb(254,246,235);"/>
    <path d="M2858.17,1087.47C2938.17,1112.46 2979.1,1137.11 3041.32,1192.41C2986.65,1351.93 2908.5,1509.2 2843.88,1664.92C2830.77,1696.52 2816.66,1727.19 2804.81,1759.41C2838.24,1739.75 2869.36,1720.94 2899.25,1695.84C2981.88,1626.45 3091.82,1479.96 3132.19,1380.77C3141.76,1446.37 3143.07,1491.32 3133.77,1557.5C3123.81,1628.47 3112.34,1699.23 3101.19,1770.12C3093.17,1797.52 3092.62,1857.13 3081.01,1881.3C3025.61,1996.59 2890.25,2123.79 2796.38,2196.82C2884.1,2184.56 2980.59,2150.18 3049.24,2092.84C3045.23,2114.08 3042.66,2143.55 3039.74,2165.95C3034.28,2207.04 3028.27,2248.05 3021.72,2288.97C3009.98,2362.95 3012.61,2353.57 2963.74,2410.3C2879.33,2508.27 2781.53,2594.84 2662.93,2648.73C2777.16,2645.27 2872.78,2623.55 2966.49,2553.05C2928.52,2682.22 2873.08,2761.52 2761.53,2838.21C2671.05,2905.94 2560.75,2923.13 2454.03,2943.51C2527.77,2819.53 2572.76,2683.82 2595.94,2542.3C2584.69,2559.59 2570.38,2578.98 2557.76,2595.4C2471.81,2707.23 2389.02,2834.53 2295.89,2940.37L1975.47,2940.77C1999.06,2913.53 2036.9,2855.66 2056.27,2824.87C2114.25,2732.7 2175.58,2629.23 2217.02,2528.27C2281.79,2529.3 2345.55,2530.48 2408.16,2512.3C2510.4,2483.1 2591.91,2408.02 2640.49,2314.6C2755.87,2092.72 2779.37,1694.2 2525.26,1558.48C2541.33,1546.21 2568.39,1518.68 2583.27,1504.33C2689.84,1401.55 2811.78,1229.36 2858.17,1087.47ZM1670.51,1056.37L2027.66,1056.27C1948.87,1258.35 1836.29,1425.9 1687.42,1584.25C1715.16,1583.76 1743.56,1583.93 1771.36,1583.8C1741.99,1729.25 1728.77,1877.04 1688,2021.55C1671.64,2079.54 1678.67,2127.25 1648.27,2186.72C1535.63,2407.13 1397.17,2611.21 1271.5,2824.25C1394.09,2762.96 1505.93,2640.62 1580.35,2528C1597.99,2528.35 1616.22,2528.43 1633.86,2528.18C1769.5,2526.2 1907.47,2532.63 2042.93,2527.84C1968.19,2689.85 1907.06,2798 1794.66,2940.6L1642.5,2940.24L1229.34,2940.25C1156.17,2940.25 1076.36,2938.65 1003.62,2940.87C1012.36,2932.13 1020.64,2922.85 1028.73,2913.46C1290.9,2608.75 1424.58,2212.4 1535.39,1832.21C1545.44,1797.71 1552.74,1762.27 1562.81,1727.6C1473.63,1835.53 1386.01,1944.74 1299.99,2055.2L1221.24,2156.65C1206.67,2175.5 1188.03,2201.75 1171.71,2217.85C1226.75,2107.39 1276.53,1996.16 1333.35,1885.65C1473.25,1613.57 1630.03,1365.01 1670.51,1056.37ZM2260.15,1056.11C2381.63,1056.86 2510.66,1058.14 2631.85,1056C2588.44,1230.91 2546.89,1373.28 2457.06,1529.31C2398.72,1508.24 2321.72,1510 2259.36,1509.11C2127.31,1507.26 1995.25,1506.18 1863.19,1505.87C1894.84,1485.95 1930.59,1455.82 1959.42,1431.43C2090.91,1320.18 2174.96,1203.23 2260.15,1056.11ZM2099.66,1820.58C2119.8,1818.32 2156.47,1819.09 2173.77,1830.2C2175.79,1833.89 2177.72,1836.15 2176.09,1840.64C2147.61,1919.11 2135.44,2006.85 2212.23,2066.09C2217.89,2061.42 2223.49,2056.67 2229,2051.83C2267.54,2017.71 2287.92,1981.31 2290.76,1930.21C2323.8,1963.7 2336.07,1981.07 2354.49,2024.09C2365.38,2059.02 2353.34,2068.15 2322.39,2083.19C2204.04,2140.77 2059.73,2106.98 2038.8,1961.96C2031.11,1908.64 2033.04,1832.12 2099.66,1820.58ZM1264.07,1056.17C1313.5,1055.93 1362.83,1057.24 1412.3,1056.06C1424.15,1124.88 1403.79,1211.96 1385.69,1279.36C1381.84,1295.48 1378.58,1306.43 1373.25,1322.17C1373.92,1223.22 1329.05,1129.05 1264.07,1056.17Z" style="fill:rgb(176,0,0);" data-color="color-1"/>
</svg>
