<?xml version="1.0" encoding="UTF-8" standalone="no"?>
<!DOCTYPE svg PUBLIC "-//W3C//DTD SVG 1.1//EN" "http://www.w3.org/Graphics/SVG/1.1/DTD/svg11.dtd">
<svg width="100%" height="100%" viewBox="0 0 1391 652" version="1.1" xmlns="http://www.w3.org/2000/svg" xmlns:xlink="http://www.w3.org/1999/xlink" xml:space="preserve" xmlns:serif="http://www.serif.com/" style="fill-rule:evenodd;clip-rule:evenodd;stroke-linejoin:round;stroke-miterlimit:2;">
    <g transform="matrix(1,0,0,1,-66.772,-111.738)">
        <path d="M66.772,696.775L66.787,112.062C113.399,111.661 160.013,111.632 206.625,111.977L398.673,112.012L1402.57,111.807C1403.03,112.918 1402.58,117.152 1402.58,119.275L1403.24,696.826L66.772,696.775Z" style="fill:rgb(88,153,77);" data-color="color-1"/>
        <path d="M71.083,709.11C71.105,709.07 66.836,696.906 66.772,696.775L1403.24,696.826L1402.57,111.807C1402.81,111.987 1413.89,123.312 1413.89,123.44C1413.1,145.741 1413.76,171.054 1413.76,193.639L1413.73,328.13L1413.74,709.081L71.083,709.11ZM1281.94,528.808C1286.3,532.99 1290.12,540.453 1294.07,545.001C1294.06,562.693 1293.81,581.027 1294.14,598.668L170.556,598.668C167.662,595.686 158.485,589.81 156.477,586.389C157.409,586.563 162.185,587.009 162.514,587.012C162.516,587.012 162.519,587.012 162.521,587.012C205.071,586.145 250.485,586.944 293.254,586.941L549.218,586.934L1281.87,586.984C1281.86,568.911 1281.4,546.805 1281.94,528.808ZM311.553,230.234C334.72,247.899 331.177,269.457 331.193,295.286L331.213,353.628L331.194,415.643C331.182,431.337 333.453,457.5 323.628,469.729C309.788,486.954 272.546,483.028 252.591,483.026L172.176,483.012C169.087,480.628 160.444,473.514 157.588,470.791L240.351,471.123C253.995,471.131 267.866,471.735 281.449,470.693C325.069,467.347 319.51,431.677 319.529,400.53L319.544,325.699L319.529,276.595C319.522,257.659 321.919,247.167 311.553,230.234ZM227.588,418.485L216.121,418.463L216.127,264.809C223.631,264.837 253.384,263.369 260.051,266.559C262.473,267.718 262.199,273.782 262.189,276.769C250.851,277.125 239,276.912 227.621,276.871L227.588,418.485ZM1030.76,231.241C1052.51,247.386 1048.62,271.139 1048.59,295.037L1048.61,356.456L1048.62,419.177C1048.61,449.159 1053.69,478.087 1014.44,482.332C997.777,483.829 980.872,482.729 964.148,482.997C959.153,483.077 954.114,482.921 949.072,482.948C932.969,483.036 915.854,484.395 902.202,474.046C900.189,472.52 894.837,467.768 894.155,465.313C896.486,466.41 898.878,467.371 901.319,468.192C915.47,472.972 941.67,470.902 957.115,471.161C971.26,471.398 987.788,471.759 1001.76,470.458C1044.11,466.514 1037.33,427.954 1037.3,397.042L1037.27,328.826L1037.33,278.054C1037.34,259.817 1039.56,248.022 1030.76,231.241ZM945.179,418.545C943.481,418.563 940.379,418.623 938.792,418.331C936.78,417.96 935.038,416.709 934.027,414.93C932.225,411.762 933.691,338.129 933.317,326.084C933.054,317.616 932.661,274.246 934.178,267.903C938.686,262.936 972.542,263.767 979.497,266.676C981.642,267.573 981.308,274.183 981.258,276.897C975.588,276.841 949.715,275.718 946.607,278.42C944.44,286.418 945.215,318.37 945.212,327.965L945.179,418.545ZM838.118,230.851C865.931,254.254 854.088,284.033 856.607,316.047C857.645,329.241 856.254,346.048 856.081,359.425C855.824,379.303 836.784,382.414 822.75,390.982C834.655,420.277 849.026,453.628 859.802,482.995L806.056,483.015L791.925,470.796C809.308,470.378 832.044,471.1 849.537,471.086C845.351,462.496 840.252,448.663 836.562,439.405L812.421,379.027C823.294,373.766 838.37,367.478 842.383,355.783C843.89,351.254 844.802,346.549 845.097,341.786C845.389,337.522 845.381,333.026 845.329,328.723C845.008,301.906 846.166,274.83 844.705,248.078C844.451,243.438 840.267,235.182 838.118,230.851ZM771.024,416.427C765.639,419.519 759.563,422.624 754.389,425.697L754.308,482.977L699.847,482.967L684.586,470.732L742.473,471.089L742.449,414.188C750.09,410.041 757.701,405.839 765.282,401.582L771.024,416.427ZM754.338,342.78L742.462,349.189L742.461,264.817C750.277,264.833 783.271,263.129 787.329,267.262C788.842,270.125 788.413,273.629 788.369,276.959L754.364,276.89C754.349,298.718 754.109,320.987 754.338,342.78ZM492.328,418.915C496.343,423.442 500.803,431.084 504.743,435.676L504.801,482.991L365.44,483.017L350.463,470.744C395.848,471.261 447.267,471.087 492.737,471.093L492.328,418.915ZM492.55,214.947L504.761,231.787L504.81,276.89L420.751,276.884L420.767,313.943L409.355,314.073L409.395,264.827L492.743,264.808L492.55,214.947ZM468.662,314.542C471.215,315.274 479.044,327.028 481.332,329.742L481.228,377.399L420.763,377.392C420.762,389.797 421.277,406.445 420.693,418.491L409.371,418.483L409.397,366.011L469.219,366.013C469.284,349.616 468.824,330.939 468.662,314.542ZM1318.3,218.135C1321.7,222.975 1324.7,228.122 1327.75,233.188C1323.89,247.881 1319.6,262.46 1314.89,276.907L1272.14,276.876L1272.12,482.952L1217.38,483.038C1213.92,479.975 1205.94,473.343 1203.37,470.948C1220.69,470.662 1242.69,471.103 1260.06,471.086L1260.07,264.817L1304.2,264.831L1318.3,218.135ZM1202.35,276.934L1160.77,276.941C1157.82,274.663 1150.11,267.723 1146.44,264.094L1202.33,264.833L1202.35,276.934ZM660.588,215.228C664.582,219.513 668.766,227.338 672.716,231.663L672.737,276.904L627.844,276.89L627.894,482.956L573.836,482.991L558.624,470.597L616.195,471.104L616.219,264.794L660.765,264.815L660.588,215.228ZM557.815,276.823C551.978,277.339 533.852,276.892 527.216,276.885C526.577,276.884 514.343,265.389 513.369,264.108L557.769,264.799L557.815,276.823ZM1124.84,214.195C1128.84,218.465 1133.86,227.431 1137.76,231.792L1137.79,482.993L1078.88,483.011C1076.07,479.579 1067.42,473.511 1064.97,469.995L1125.89,471.132L1124.84,214.195Z" style="fill:rgb(242,241,235);"/>
        <path d="M1413.89,123.44C1418.13,126.526 1450.46,166.098 1456.93,173.408L1456.54,582.593L1456.68,706.3C1456.66,723.947 1457.27,745.649 1456.59,762.868L544.352,762.768L262.345,762.676L169.468,762.679C154.764,762.682 136.499,763.254 122.18,762.622L71.083,709.11L1413.74,709.081L1413.73,328.13L1413.76,193.639C1413.76,171.054 1413.1,145.741 1413.89,123.44ZM156.477,586.389C157.211,584.183 211.108,532.646 215.732,528.781C307.995,527.64 402.918,528.733 495.349,528.735L1046.66,528.733L1228.05,528.738C1245.59,528.739 1263.13,528.745 1280.67,528.776C1280.69,528.776 1281.94,528.807 1281.94,528.808C1281.4,546.805 1281.86,568.911 1281.87,586.984L549.218,586.934L293.254,586.941C250.485,586.944 205.071,586.145 162.521,587.012C162.519,587.012 162.516,587.012 162.514,587.012C162.185,587.009 157.409,586.563 156.477,586.389ZM162.51,471.06C160.343,471.112 159.711,471.129 157.588,470.791C156.079,468.778 156.694,445.354 156.694,441.454L156.697,385.699L156.724,214.091C181.064,213.758 205.698,214.144 230.078,213.998C246.069,214.167 262.048,213.64 278.031,214.295C293.282,214.919 301.53,218.981 311.553,230.234C321.919,247.167 319.522,257.659 319.529,276.595L319.544,325.699L319.529,400.53C319.51,431.677 325.069,467.347 281.449,470.693C267.866,471.735 253.995,471.131 240.351,471.123L162.51,471.06ZM227.588,418.485C235.115,418.571 255.202,419.806 260.462,416.544C263.229,411.024 262.242,372.411 262.239,363.672L262.189,276.769C262.199,273.782 262.473,267.718 260.051,266.559C253.384,263.369 223.631,264.837 216.127,264.809L216.121,418.463L227.588,418.485ZM894.155,465.313C871.823,450.909 875.734,427.158 875.727,403.955L875.749,349.15L875.709,282.365C875.705,271.246 875.262,255.526 876.098,244.864C876.824,236.588 880.837,228.949 887.239,223.656C903.406,210.172 931.612,214.538 951.553,214.09C967.369,213.735 984.104,213.683 999.883,214.446C1013.75,215.117 1022.28,220.957 1030.76,231.241C1039.56,248.022 1037.34,259.817 1037.33,278.054L1037.27,328.826L1037.3,397.042C1037.33,427.954 1044.11,466.514 1001.76,470.458C987.788,471.759 971.26,471.398 957.115,471.161C941.67,470.902 915.47,472.972 901.319,468.192C898.878,467.371 896.486,466.41 894.155,465.313ZM945.179,418.545C952.173,418.488 976.692,419.8 979.403,416.655C982.355,413.228 981.29,368.539 981.281,362.614L981.258,276.897C981.308,274.183 981.642,267.573 979.497,266.676C972.542,263.767 938.686,262.936 934.178,267.903C932.661,274.246 933.054,317.616 933.317,326.084C933.691,338.129 932.225,411.762 934.027,414.93C935.038,416.709 936.78,417.96 938.792,418.331C940.379,418.623 943.481,418.563 945.179,418.545ZM689.76,471.119C687.367,471.243 686.829,471.397 684.586,470.732C682.507,466.871 683.836,241.604 683.813,213.98L770.146,213.973C776.437,213.975 782.831,213.948 789.115,213.981C809.513,214.09 825.255,212.177 838.118,230.851C840.267,235.182 844.451,243.438 844.705,248.078C846.166,274.83 845.008,301.906 845.329,328.723C845.381,333.026 845.389,337.522 845.097,341.786C844.802,346.549 843.89,351.254 842.383,355.783C838.37,367.478 823.294,373.766 812.421,379.027L836.562,439.405C840.252,448.663 845.351,462.496 849.537,471.086C832.044,471.1 813.286,470.759 795.903,471.177C794.531,471.119 793.286,470.951 791.925,470.796C788.295,466.133 774.031,424.591 771.024,416.427L765.282,401.582C757.701,405.839 750.09,410.041 742.449,414.188L742.473,471.089L689.76,471.119ZM754.338,342.78C765.767,336.825 777.109,330.704 788.36,324.419L788.369,276.959C788.413,273.629 788.842,270.125 787.329,267.262C783.271,263.129 750.277,264.833 742.461,264.817L742.462,349.189L754.338,342.78ZM355.443,471.067C353.22,471.118 352.612,471.185 350.463,470.744C349.048,468.796 349.615,445.092 349.615,441.27L349.613,385.361L349.621,214.024C388.789,214.006 450.051,213.909 491.324,214.081C491.732,214.37 492.141,214.658 492.55,214.947L492.805,218.049L492.743,264.808L409.395,264.827L409.355,314.073L420.767,313.943C427.779,313.877 464.621,312.995 468.662,314.542C469.145,315.929 469.173,315.464 469.074,316.82C469.236,333.217 469.284,349.616 469.219,366.013L409.397,366.011L409.371,418.483L420.693,418.491L468.816,418.427C473.425,418.421 488.959,418.048 492.328,418.915C492.594,420.123 492.792,420.757 492.81,421.997L492.737,471.093C447.267,471.087 400.828,471.584 355.443,471.067ZM1151.21,264.842C1148.9,264.909 1148.42,265.087 1146.44,264.094C1145.63,259.409 1146.06,221.624 1146.06,214.004L1281.72,214.035C1287.25,214.037 1316.63,213.464 1318.47,214.917L1318.3,218.135L1304.2,264.831L1260.07,264.817L1260.06,471.086C1242.69,471.103 1224.72,470.871 1207.4,471.157C1206.09,471.118 1204.69,471.019 1203.37,470.948C1201.61,468.487 1202.31,433.147 1202.31,427.692L1202.35,276.934L1202.33,264.833L1151.21,264.842ZM517.587,264.849C515.719,264.857 515.014,265.024 513.369,264.108C512.623,259.193 512.954,250.397 512.966,244.997L512.946,214.009C548.638,214.127 620.473,213.782 659.366,214.214C659.774,214.552 660.181,214.89 660.588,215.228L660.8,218.748L660.765,264.815L616.219,264.794L616.195,471.104L563.937,471.076C561.591,471.168 560.776,471.369 558.624,470.597C557.258,468.475 557.823,299.196 557.815,276.823L557.769,264.799L517.587,264.849ZM1125.89,471.132C1125.89,471.132 1066.67,471.553 1064.97,469.995C1064.46,461.381 1064.82,449.938 1064.83,441.007L1064.85,386.225L1064.79,213.978C1083.49,214.122 1106.67,213.166 1124.84,214.195C1126.26,215.905 1124.72,216.178 1124.86,219.002L1125.89,471.132ZM732.845,151.119C736.839,149.852 741.107,152.041 742.409,156.024C743.711,160.007 741.56,164.296 737.59,165.633C733.569,166.988 729.216,164.803 727.898,160.77C726.579,156.737 728.801,152.402 732.845,151.119ZM732.594,638.075C736.585,636.652 740.97,638.758 742.357,642.763C743.743,646.768 741.599,651.135 737.583,652.487C733.617,653.821 729.317,651.709 727.947,647.754C726.578,643.799 728.652,639.479 732.594,638.075ZM1355.34,638.11C1359.3,636.825 1363.55,638.981 1364.85,642.934C1366.16,646.886 1364.02,651.15 1360.08,652.474C1356.11,653.808 1351.81,651.654 1350.49,647.674C1349.18,643.693 1351.35,639.403 1355.34,638.11ZM1355.19,151.246C1357.76,150.33 1360.62,150.868 1362.68,152.654C1364.74,154.44 1365.68,157.197 1365.14,159.869C1364.6,162.542 1362.66,164.716 1360.07,165.559C1356.14,166.837 1351.91,164.72 1350.58,160.807C1349.24,156.894 1351.3,152.635 1355.19,151.246ZM111.258,151.174C115.218,149.967 119.411,152.171 120.663,156.117C121.915,160.064 119.76,164.284 115.829,165.581C113.245,166.434 110.403,165.832 108.387,164.005C106.371,162.178 105.493,159.408 106.087,156.753C106.681,154.098 108.656,151.967 111.258,151.174ZM111.154,638.116C115.097,636.889 119.294,639.059 120.573,642.987C121.852,646.914 119.738,651.141 115.829,652.472C113.253,653.349 110.405,652.772 108.374,650.962C106.343,649.151 105.443,646.388 106.019,643.728C106.594,641.068 108.556,638.924 111.154,638.116Z" style="fill:rgb(51,51,51);"/>
    </g>
</svg>
