<svg width="100%" height="100%" viewBox="0 0 762 748" version="1.1" xmlns="http://www.w3.org/2000/svg" xmlns:xlink="http://www.w3.org/1999/xlink" xml:space="preserve" xmlns:serif="http://www.serif.com/" style="fill-rule:evenodd;clip-rule:evenodd;stroke-linejoin:round;stroke-miterlimit:2;">
    <g transform="matrix(1,0,0,1,-124.125,-145.737)">
        <path d="M308.547,268.316C306.785,279.277 303.613,294 305.874,304.689C313.219,289.266 319.348,278.198 328.683,263.695C334.124,264.439 334.953,265.454 339.452,261.35C343.009,257.717 346.591,254.11 350.2,250.53C361.761,239.181 378.903,223.342 393.669,215.318C446.252,186.745 494.16,240.359 538.44,261.209C545.428,264.5 552.363,269.662 559.823,271.366C560.933,271.62 569.626,271.351 571.302,271.364C568.444,261.021 561.823,259.594 560.071,253.622C565.541,256.102 571.026,258.548 576.526,260.96C569.275,252.445 561.87,244.062 554.314,235.816C550.177,231.251 545.335,225.613 540.792,221.619C549.45,223.386 566.733,225.402 575.724,226.176C556.893,216.583 549.073,214.512 530.705,201.941C538.431,202.01 545.859,201.943 553.557,201.073L552.584,201.882C555.012,205.355 570.055,206.334 574.236,207.222C586.777,209.884 598.705,214.004 609.871,220.372C613.733,222.569 618.374,224.693 621.778,227.553C611.183,227.96 603.786,227.149 593.356,225.738C604.39,236.474 613.565,241.129 628.608,245.268C632.105,246.23 636.972,247.113 640.189,248.036C637.778,249.368 631.186,249.893 627.657,250.976C624.834,251.135 622.397,251.153 622.34,254.683C623.311,255.823 623.567,256.25 625.42,256.539C670.591,269.811 718.712,274.997 762.361,293.875C780.803,301.852 795.116,309.367 805.16,327.434C815.396,343.572 826.426,401.878 840.672,409.147L841.193,408.14C841.813,411.474 841.984,422.398 842.051,426.263C817.555,410.689 788.123,413.97 760.838,419.355C742.186,423.036 723.9,433.108 706.741,441.206C657.912,464.25 613.054,460.679 567.925,431.107C560.715,426.383 551.957,421.037 544.032,417.375C522.994,407.887 499.442,405.499 476.928,410.57C452.988,415.951 431.202,429.241 407.571,435.554C380.869,442.688 356.718,432.626 334.241,418.513L323.852,411.885C333.63,425.248 344.535,437.749 356.448,449.249C378.489,470.826 399.89,490.015 414.976,517.34C429.942,544.447 443.678,545.807 471.46,548.541C502.476,551.592 514.449,596.009 532.399,616.224C553.148,640.935 581.95,669.105 609.203,686.053C632.58,700.59 680.527,711.009 706.963,706.371C696.395,725.281 678.785,739.25 657.966,745.237C582.548,766.26 532.876,682.633 475.378,650.195C457.17,639.922 437.568,637.355 417.487,633.095C349.061,618.84 300.17,597.839 280.337,524.38C271.066,490.04 271.192,449.933 279.24,415.118C282.331,401.745 288.517,384.573 290.996,371.986C283.612,379.115 277.861,384.783 271.948,393.46C253.033,421.219 247.86,454.146 247.054,486.902C245.803,537.778 258.219,589.19 294.05,626.948C312.873,646.783 342.652,664.721 368.54,673.823C376.22,676.523 386.606,679.204 394.645,681.324C380.614,690.71 370.18,696.466 361.908,711.892C346.46,740.702 360.856,759.913 372.304,786.211C301.904,746.211 258.266,674.299 237.154,597.768C226.986,560.5 222.008,522.007 222.36,483.379C211.629,525.347 208.123,556.358 209.69,600.254C209.991,608.352 210.556,616.439 211.385,624.5C212,630.847 213.155,638.821 212.58,645.033C206.401,635.362 186.624,583.865 184.74,572.536C186.786,552.044 185.074,529.765 187.832,509.316C190.845,486.968 193.75,464.18 198.684,442.193C211.361,385.704 243.8,335.756 283.027,293.995C289.124,287.512 301.473,272.631 308.547,268.316ZM498.938,356.743C484.34,368.757 460.626,373.79 441.947,372.79C463.979,361.133 465.198,362.889 481.801,341.92C480.297,342.404 478.771,342.815 477.228,343.151C453.35,348.325 434.28,353.584 411.59,339.435C400.071,332.251 402.144,324.83 399.618,312.107C413.671,323.37 432.405,337.842 449.87,324.114C423.534,317.167 410.511,292.461 419.6,266.492C421.263,261.741 423.967,257.804 426.686,253.609C413.863,253.299 394.717,259.091 383.357,264.953C378.531,267.443 371,272.198 366.153,275.165C374.439,258.781 393.838,236.844 411.798,231.009C470.049,212.082 496.633,280.791 547.002,291.856C567.635,296.388 580.007,288.319 599.326,283.436C629.159,277.118 665.9,293.35 683.91,317.4C687.978,322.831 691.351,329.195 694.496,335.081C691.709,332.537 688.45,330.069 685.467,327.717C681.183,327.96 672.283,324.18 667.831,322.708C644.415,314.965 622.453,309.43 597.733,315.398C586.998,317.803 579.368,321.052 569.167,324.261C551.508,329.817 536.65,337.41 520.401,346.081C516.932,347.932 513.123,349.452 509.756,351.549C506.737,353.222 502.204,357.136 498.938,356.743ZM299.272,434.911C300.238,436.184 302.744,449.246 303.237,451.549C306.057,464.602 309.557,477.499 313.725,490.186C329.716,538.022 365.852,584.305 411.136,608.267C412.277,608.871 412.272,608.781 413.407,609.728C411.979,610.041 410.574,609.487 409.105,609.11C402.853,607.315 395.065,606.206 388.468,604.505C361.951,597.67 336.015,586.838 319.61,563.709C301.206,537.761 291.825,503.126 293.96,471.475C294.649,461.25 297.598,445.494 299.272,434.911ZM728.641,333.878C724.819,329.978 719.472,323.9 717.288,318.857C723.692,309.662 726.723,305.367 730.799,294.781C749.574,302.787 767.058,317.942 774.224,337.252C778.748,349.441 781.905,359.691 781.984,372.844C779.429,366.231 777.178,361.885 773.738,355.688C773.183,356.736 773.731,357.161 772.864,357.726C770.99,356.278 769.351,354.82 767.071,354.194C747.358,348.78 743.997,347.161 728.641,333.878Z" style="fill:rgb(87,97,22);"  data-color="color-1"/>
        <path d="M500.39,305.452C493.431,317.872 485.271,321.263 471.272,319.99C453.657,318.389 445.96,302.076 448.341,285.794C449.74,276.477 454.745,268.083 462.277,262.423C464.095,266.029 471.374,268.997 470.807,273.452C469.049,275.81 465.737,277.994 465.233,278.722C462.623,282.488 460.541,290.577 461.245,295.257C462.048,300.595 465.773,305.35 468.182,310.145C468.071,310.369 467.961,310.593 467.85,310.817C467.649,310.981 467.447,311.145 467.246,311.309C469.533,312.707 472.931,315.892 475.048,315.732C481.188,315.266 486.545,313.108 490.279,308.019C492.263,305.584 493.757,301.14 495.303,299.833C496.655,300.482 499.728,304.203 500.39,305.452Z" style="fill:rgb(239,140,33);"  data-color="color-5"/>
        <path d="M414.079,146.205C436.348,143.794 463.335,151.12 484.369,158.46C489.677,159.868 499.233,165.787 504.558,165.648C516.556,165.332 529.668,164.003 541.658,163.077C544.819,162.833 553.398,160.681 556.814,159.844C598.738,149.569 632.163,162.328 661.56,193.07C666.239,197.961 670.978,204.408 676.003,209.175L676.514,209.654C679.273,210.292 682.346,210.777 685.155,211.144C747.821,219.339 818.002,235.957 853.448,293.844C862.743,309.046 866.889,324.374 871.937,341.431C883.144,379.298 892.161,424.246 877.63,462.412C873.532,473.175 864.802,481.316 855.21,486.982L851.212,495.2C836.088,525.857 808.64,551.56 775.987,562.643C775.744,559.788 775.762,557.106 775.741,554.248C765.116,563.515 750.373,565.422 736.682,568.402L736.473,559.161C723.758,568.623 714.972,567.855 699.685,569.175C699.413,566.961 699.659,565.986 698.408,564.587L697.441,565.035C695.865,567.635 695.223,570.137 694.281,573.028C695.225,577.451 697.616,584.808 698.931,589.506L717.591,583.657C738.627,609.012 742.035,627.579 747.303,658.835C771.47,683.85 758.065,713.429 741.07,738.485C700.113,798.872 607.048,809.37 549.243,768.771C528.549,754.607 509.809,737.379 486.464,727.843C477.223,738.545 470.61,748.378 465.643,761.759C449.869,804.253 454.855,850.103 463.285,893.414C385.202,865.31 321.012,831.045 257.033,779.632C153.912,696.764 106.102,576.256 130.309,445.629C137.272,408.053 145.165,373.035 162.651,338.425C176.171,311.665 190.501,286.568 210.05,263.632C244.887,220.303 292.374,193.457 344.873,177.141C347.514,176.321 357.087,167.811 360.159,165.472C376.562,152.986 393.864,148.063 414.079,146.205ZM418.045,161.211C397.429,162.31 382.519,166.895 366.178,180.013C362.872,182.666 354.926,189.852 351.657,191.068C340.689,195.147 329.132,198.415 318.208,202.806C284.194,216.676 253.704,237.963 228.961,265.113C211.244,284.854 200.415,302.067 187.22,324.623C161.234,369.044 150.867,411.426 143.366,461.274C126.159,575.633 167.882,682.686 255.235,757.788C300.315,796.545 350.645,828.697 405.491,852.695C416.796,857.758 431.907,865.028 443.343,868.98C437.287,818.326 437.023,764.422 470.406,722.205C473.605,718.16 478.092,713.131 481.99,709.774C517.95,721.391 539.545,745.642 570.553,764.135C598.977,781.088 635.96,779.006 667.568,772.174C698.841,762.77 720.095,746.061 736.154,717.032C741.825,706.78 747.411,692.666 743.932,680.951C741.51,672.792 735.253,670.293 732.764,663.813C731.826,661.373 730.62,651.541 729.952,648.268C727.087,634.236 721.43,611.457 712,601.036C704.32,603.353 694.493,608.09 685.867,611.012C683.706,602.36 682.517,593.438 681.107,584.647C680.397,580.219 681.395,577.683 681.085,573.675C674.076,579.371 669.658,583.812 663.511,590.337C648.731,575.462 644.251,565.312 643.86,544.413C643.711,536.477 649.406,529.299 655.14,524.456C660.833,540.826 661.798,548.201 670.813,563.875C688.669,550.429 694.096,538.565 708.77,524.673C709.239,534.759 709.522,542.681 711.193,552.638C714.944,552.165 719.285,551.783 722.6,550.003C729.24,546.438 745.762,532.435 750.532,527.023C750.47,534.235 751.151,542.88 749.937,549.748C758.9,547.264 762.766,546.317 769.56,539.154C774.488,533.959 779.93,528.138 785.163,523.275C786.026,529.083 786.693,534.94 787.549,540.681C807.476,528.385 822.91,515.257 834.595,494.304C838.099,488.279 839.806,481.408 843.489,475.527C845.662,472.057 850.639,471.307 853.424,469.331C867.985,458.999 869.152,435.609 869.632,420.09C870.426,394.359 864.407,371.758 857.321,347.366C852.729,331.335 848.79,315.115 839.573,300.693C815.296,262.706 771.897,243.892 729.602,234.444C720.583,232.375 711.498,230.601 702.363,229.125C692.787,227.615 678.795,226.157 669.639,223.625C665.327,222.432 656.466,210.074 652.478,205.985C639.87,193.059 627.547,182.115 610.378,175.959C587.168,167.638 567.953,173.801 544.976,177.921C536.605,179.422 525.27,179.451 516.551,180.205C512.863,180.524 504.48,181.455 501.224,181.175C495.982,180.724 487.288,175.881 481.935,173.851C461.427,166.074 440.128,160.535 418.045,161.211ZM473.067,276.013C477.863,278.573 477.7,281.977 475.696,286.923C474.666,289.466 472.221,291.83 469.207,291.134C468.131,290.283 468.133,289.717 467.702,288.38C468.502,285.446 471.639,279.303 473.067,276.013Z" style="fill:rgb(136,145,154);"/>
        <path d="M502.088,301.971C501.717,302.771 500.832,304.83 500.39,305.452C499.728,304.203 496.655,300.482 495.303,299.833C493.757,301.14 492.263,305.584 490.279,308.019C486.545,313.108 481.188,315.266 475.048,315.732C472.931,315.892 469.533,312.707 467.246,311.309C467.447,311.145 467.649,310.981 467.85,310.817C467.961,310.593 468.071,310.369 468.182,310.145C465.773,305.35 462.048,300.595 461.245,295.257C460.541,290.577 462.623,282.488 465.233,278.722C465.737,277.994 469.049,275.81 470.807,273.452C471.374,268.997 464.095,266.029 462.277,262.423C466.59,261.513 474.945,268.657 478.443,271.537C476.382,273.108 474.95,274.181 473.067,276.013C471.639,279.303 468.502,285.446 467.702,288.38C461.335,311.758 482.916,322.879 491.639,294.546L493.339,287.918C496.21,291.219 501.723,296.104 503.506,298.434C503,300.166 502.916,300.363 502.088,301.971Z" style="fill:rgb(204,99,29);"  data-color="color-6"/>
        <path d="M418.045,161.211C440.128,160.535 461.427,166.074 481.935,173.851C487.288,175.881 495.982,180.724 501.224,181.175C504.48,181.455 512.863,180.524 516.551,180.205C525.27,179.451 536.605,179.422 544.976,177.921C567.953,173.801 587.168,167.638 610.378,175.959C627.547,182.115 639.87,193.059 652.478,205.985C656.466,210.074 665.327,222.432 669.639,223.625C678.795,226.157 692.787,227.615 702.363,229.125C711.498,230.601 720.583,232.375 729.602,234.444C771.897,243.892 815.296,262.706 839.573,300.693C848.79,315.115 852.729,331.335 857.321,347.366C864.407,371.758 870.426,394.359 869.632,420.09C869.152,435.609 867.985,458.999 853.424,469.331C850.639,471.307 845.662,472.057 843.489,475.527C839.806,481.408 838.099,488.279 834.595,494.304C822.91,515.257 807.476,528.385 787.549,540.681C786.693,534.94 786.026,529.083 785.163,523.275C779.93,528.138 774.488,533.959 769.56,539.154C762.766,546.317 758.9,547.264 749.937,549.748C751.151,542.88 750.47,534.235 750.532,527.023C745.762,532.435 729.24,546.438 722.6,550.003C719.285,551.783 714.944,552.165 711.193,552.638C709.522,542.681 709.239,534.759 708.77,524.673C694.096,538.565 688.669,550.429 670.813,563.875C661.798,548.201 660.833,540.826 655.14,524.456C649.406,529.299 643.711,536.477 643.86,544.413C644.251,565.312 648.731,575.462 663.511,590.337C669.658,583.812 674.076,579.371 681.085,573.675C681.395,577.683 680.397,580.219 681.107,584.647C682.517,593.438 683.706,602.36 685.867,611.012C694.493,608.09 704.32,603.353 712,601.036C721.43,611.457 727.087,634.236 729.952,648.268C730.62,651.541 731.826,661.373 732.764,663.813C735.253,670.293 741.51,672.792 743.932,680.951C747.411,692.666 741.825,706.78 736.154,717.032C720.095,746.061 698.841,762.77 667.568,772.174C635.96,779.006 598.977,781.088 570.553,764.135C539.545,745.642 517.95,721.391 481.99,709.774C478.092,713.131 473.605,718.16 470.406,722.205C437.023,764.422 437.287,818.326 443.343,868.98C431.907,865.028 416.796,857.758 405.491,852.695C350.645,828.697 300.315,796.545 255.235,757.788C167.882,682.686 126.159,575.633 143.366,461.274C150.867,411.426 161.234,369.044 187.22,324.623C200.415,302.067 211.244,284.854 228.961,265.113C253.704,237.963 284.194,216.676 318.208,202.806C329.132,198.415 340.689,195.147 351.657,191.068C354.926,189.852 362.872,182.666 366.178,180.013C382.519,166.895 397.429,162.31 418.045,161.211ZM545.485,451.318C545.826,465.293 546.487,475.446 544.857,489.638C547.87,485.95 551.347,481.812 554.111,477.996C557.578,473.201 562.392,466.654 565.313,461.533C558.619,458.191 552.033,454.941 545.485,451.318ZM563.07,574.99C556.433,577.769 550.455,580.286 544.012,583.458C548.384,591.738 553.783,599.011 559.396,606.483C562.242,610.116 565.444,613.455 568.954,616.452C569.048,609.737 566.508,579.606 563.437,575.156L563.07,574.99ZM579.182,467.682C576.734,475.083 582.028,502.693 584.235,511.594C588.235,507.606 591.966,503.357 595.405,498.877C600.443,492.199 605.447,485.404 609.124,477.849C597.973,474.405 589.952,471.552 579.182,467.682ZM608.187,604.854C598.65,614.874 590.04,621.27 581.15,630.053L599.165,645.03C603.313,648.621 606.283,651.556 610.109,655.437C616.251,638.689 616.45,623.453 609.379,606.732C609.019,605.879 608.761,605.552 608.187,604.854ZM575.511,561.459C577.488,569.791 579.182,578.188 580.591,586.634C581.468,591.669 582.544,599.21 583.82,603.877L590.75,598.326C592.371,596.938 594.197,595.449 595.738,594.002C592.755,588.765 578.376,563.825 575.511,561.459ZM184.74,572.536C186.624,583.865 206.401,635.362 212.58,645.033C213.155,638.821 212,630.847 211.385,624.5C210.556,616.439 209.991,608.352 209.69,600.254C208.123,556.358 211.629,525.347 222.36,483.379C222.008,522.007 226.986,560.5 237.154,597.768C258.266,674.299 301.904,746.211 372.304,786.211C360.856,759.913 346.46,740.702 361.908,711.892C370.18,696.466 380.614,690.71 394.645,681.324C386.606,679.204 376.22,676.523 368.54,673.823C342.652,664.721 312.873,646.783 294.05,626.948C258.219,589.19 245.803,537.778 247.054,486.902C247.86,454.146 253.033,421.219 271.948,393.46C277.861,384.783 283.612,379.115 290.996,371.986C288.517,384.573 282.331,401.745 279.24,415.118C271.192,449.933 271.066,490.04 280.337,524.38C300.17,597.839 349.061,618.84 417.487,633.095C437.568,637.355 457.17,639.922 475.378,650.195C532.876,682.633 582.548,766.26 657.966,745.237C678.785,739.25 696.395,725.281 706.963,706.371C680.527,711.009 632.58,700.59 609.203,686.053C581.95,669.105 553.148,640.935 532.399,616.224C514.449,596.009 502.476,551.592 471.46,548.541C443.678,545.807 429.942,544.447 414.976,517.34C399.89,490.015 378.489,470.826 356.448,449.249C344.535,437.749 333.63,425.248 323.852,411.885L334.241,418.513C356.718,432.626 380.869,442.688 407.571,435.554C431.202,429.241 452.988,415.951 476.928,410.57C499.442,405.499 522.994,407.887 544.032,417.375C551.957,421.037 560.715,426.383 567.925,431.107C613.054,460.679 657.912,464.25 706.741,441.206C723.9,433.108 742.186,423.036 760.838,419.355C788.123,413.97 817.555,410.689 842.051,426.263C841.984,422.398 841.813,411.474 841.193,408.14C839.82,387.962 837.224,374.799 831.749,355.603C827.329,338.163 823.77,320.668 811.504,306.764C784.359,275.994 742.553,266.556 704.099,258.654C682.903,254.298 661.862,249.744 640.189,248.036C636.972,247.113 632.105,246.23 628.608,245.268C613.565,241.129 604.39,236.474 593.356,225.738C603.786,227.149 611.183,227.96 621.778,227.553C628.425,227.764 633.834,227.408 640.406,226.924C636.491,222.649 630.653,217.341 626.341,213.542C613.096,201.872 598.519,195.226 580.644,197.485C571.672,198.619 562.66,200.459 553.557,201.073C545.859,201.943 538.431,202.01 530.705,201.941C549.073,214.512 556.893,216.583 575.724,226.176C566.733,225.402 549.45,223.386 540.792,221.619C545.335,225.613 550.177,231.251 554.314,235.816C561.87,244.062 569.275,252.445 576.526,260.96C571.026,258.548 565.541,256.102 560.071,253.622C551.257,247.883 542.942,240.704 534.272,234.894C500.571,212.311 452.592,182.103 410.259,191.187C403.814,192.608 397.669,195.152 392.105,198.702C377.92,207.572 344.336,239.19 335.206,253.519C334.819,254.127 334.443,254.743 334.08,255.366C332.033,258.227 330.512,260.685 328.683,263.695C319.348,278.198 313.219,289.266 305.874,304.689C303.613,294 306.785,279.277 308.547,268.316C310.571,257.823 311.48,251.755 316.611,242.238C304.293,248.053 295.137,252.856 283.937,260.931C242.876,290.536 213.807,339.416 197.008,386.332C191.177,402.443 186.748,419.028 183.771,435.901C182.762,441.93 182.302,447.99 181.468,454.013C175.838,494.672 174.662,532.301 184.74,572.536ZM498.938,356.743C484.34,368.757 460.626,373.79 441.947,372.79C463.979,361.133 465.198,362.889 481.801,341.92C480.297,342.404 478.771,342.815 477.228,343.151C453.35,348.325 434.28,353.584 411.59,339.435C400.071,332.251 402.144,324.83 399.618,312.107C413.671,323.37 432.405,337.842 449.87,324.114C423.534,317.167 410.511,292.461 419.6,266.492C421.263,261.741 423.967,257.804 426.686,253.609C413.863,253.299 394.717,259.091 383.357,264.953C378.531,267.443 371,272.198 366.153,275.165C374.439,258.781 393.838,236.844 411.798,231.009C470.049,212.082 496.633,280.791 547.002,291.856C567.635,296.388 580.007,288.319 599.326,283.436C629.159,277.118 665.9,293.35 683.91,317.4C687.978,322.831 691.351,329.195 694.496,335.081C691.709,332.537 688.45,330.069 685.467,327.717C666.234,310.378 645.058,302.615 618.742,303.277C594.905,303.875 576.604,315.852 553.757,319.116C547.345,320.031 538.919,319.46 532.427,318.838C517.851,326.413 511.721,344.198 498.938,356.743ZM500.39,305.452C500.832,304.83 501.717,302.771 502.088,301.971C502.916,300.363 503,300.166 503.506,298.434C501.723,296.104 496.21,291.219 493.339,287.918L491.639,294.546C482.916,322.879 461.335,311.758 467.702,288.38C468.133,289.717 468.131,290.283 469.207,291.134C472.221,291.83 474.666,289.466 475.696,286.923C477.7,281.977 477.863,278.573 473.067,276.013C474.95,274.181 476.382,273.108 478.443,271.537C474.945,268.657 466.59,261.513 462.277,262.423C454.745,268.083 449.74,276.477 448.341,285.794C445.96,302.076 453.657,318.389 471.272,319.99C485.271,321.263 493.431,317.872 500.39,305.452ZM728.641,333.878C724.819,329.978 719.472,323.9 717.288,318.857C723.692,309.662 726.723,305.367 730.799,294.781C749.574,302.787 767.058,317.942 774.224,337.252C778.748,349.441 781.905,359.691 781.984,372.844C779.429,366.231 777.178,361.885 773.738,355.688C768.493,344.464 753.261,326.179 738.701,327.165C733.966,327.486 731.418,330.399 728.641,333.878ZM481.418,514.135C480.31,515.351 480.075,515.375 479.897,517.016C481.221,521.492 491.301,524.217 495.401,526.671C513.856,537.717 526.626,550.712 537.117,569.49C545.354,566.867 551.652,564.789 559.624,561.283C563.416,559.574 567.238,557.93 571.087,556.352C545.586,530.455 519.491,511.933 481.418,514.135ZM787.256,440.205C759.028,442.226 734.165,454.604 709.146,467.331C712.343,467.748 717.015,468.49 720.112,468.651C723.479,481.204 727.027,497.715 727.652,510.724C745.018,496.399 753.813,477.97 750.863,455.299C764.734,452.18 763.902,454.276 768.678,466.874C771.31,474.791 773.325,482.5 774.184,490.833C787.599,481.159 796.335,470.785 799.254,454.177L799.956,453.633C804.393,456.356 804.208,475.718 803.819,480.814C803.267,488.039 801.381,495.502 800.751,502.723C808.562,495.514 813.801,488.029 817.773,478.137C822.226,467.048 826.841,459.267 825.352,446.973C814.024,441.723 799.716,439.219 787.256,440.205ZM648.622,620.716L648.311,621.274C645.693,626.038 643.635,631.066 640.992,635.946C635.312,646.436 628.827,653.882 620.917,662.586C641.059,676.189 679.982,689.158 703.413,681.131C708.237,669.922 709.871,660.676 708.767,648.431C708.498,645.444 707.791,636.476 705.766,634.395C702.639,643.638 694.979,669.372 687.938,674.394L686.973,674.406C686.587,673.501 687.531,668.123 687.603,666.588C688.068,656.681 686.92,648.519 683.659,639.199C679.534,649.618 671.532,666.106 664.125,674.349C660.597,674.295 656.226,674.107 652.767,674.24C658.637,659.029 658.955,642.582 652.721,627.26C651.935,625.329 650.286,621.807 648.622,620.716ZM467.991,446.468C449.871,453.878 421.53,462.71 402.128,459.384L401.401,459.265L400.966,459.188C406.31,464.994 411.346,469.245 416.82,474.674C421.145,478.964 426.5,487.326 429.569,492.555C437.664,506.584 438.751,512.892 453.808,519.03C457.868,499.262 458.031,478.739 465.156,459.357C465.758,457.718 468.914,447.486 468.805,446.633L467.991,446.468ZM637.331,508.935C642.914,501.926 647.766,490.017 651.557,481.506C645.71,481.57 640.524,481.646 634.677,481.29C631.67,480.814 628.263,480.347 625.32,479.71C626.681,493.077 630.737,502.682 631.093,516.55C633.687,513.771 635.263,512.128 637.331,508.935ZM675.536,514.452C675.494,516.115 676.569,523.652 676.823,525.717C681.336,522.212 684.181,518.665 687.531,514.156C698.508,499.379 700.071,487.284 702.78,469.957L694.672,472.986C683.349,476.454 677.18,477.905 665.511,480.174C669.929,492.322 672.85,501.68 675.536,514.452Z" style="fill:rgb(0,28,57);"  data-color="color-2"/>
        <path d="M685.467,327.717C681.183,327.96 672.283,324.18 667.831,322.708C644.415,314.965 622.453,309.43 597.733,315.398C586.998,317.803 579.368,321.052 569.167,324.261C551.508,329.817 536.65,337.41 520.401,346.081C516.932,347.932 513.123,349.452 509.756,351.549C506.737,353.222 502.204,357.136 498.938,356.743C511.721,344.198 517.851,326.413 532.427,318.838C538.919,319.46 547.345,320.031 553.757,319.116C576.604,315.852 594.905,303.875 618.742,303.277C645.058,302.615 666.234,310.378 685.467,327.717ZM773.738,355.688C773.183,356.736 773.731,357.161 772.864,357.726C770.99,356.278 769.351,354.82 767.071,354.194C747.358,348.78 743.997,347.161 728.641,333.878C731.418,330.399 733.966,327.486 738.701,327.165C753.261,326.179 768.493,344.464 773.738,355.688ZM467.991,446.468L468.805,446.633C468.914,447.486 465.758,457.718 465.156,459.357C458.031,478.739 457.868,499.262 453.808,519.03C438.751,512.892 437.664,506.584 429.569,492.555C426.5,487.326 421.145,478.964 416.82,474.674C411.346,469.245 406.31,464.994 400.966,459.188L401.401,459.265L402.128,459.384C421.53,462.71 449.871,453.878 467.991,446.468Z" style="fill:rgb(60,76,14);"  data-color="color-4"/>
        <path d="M481.418,514.135C519.491,511.933 545.586,530.455 571.087,556.352C567.238,557.93 563.416,559.574 559.624,561.283C551.652,564.789 545.354,566.867 537.117,569.49C526.626,550.712 513.856,537.717 495.401,526.671C491.301,524.217 481.221,521.492 479.897,517.016C480.075,515.375 480.31,515.351 481.418,514.135ZM575.511,561.459C578.376,563.825 592.755,588.765 595.738,594.002C594.197,595.449 592.371,596.938 590.75,598.326L583.82,603.877C582.544,599.21 581.468,591.669 580.591,586.634C579.182,578.188 577.488,569.791 575.511,561.459Z" style="fill:rgb(145,61,27);"/>
        <path d="M675.536,514.452C672.85,501.68 669.929,492.322 665.511,480.174C677.18,477.905 683.349,476.454 694.672,472.986L702.78,469.957C700.071,487.284 698.508,499.379 687.531,514.156C684.181,518.665 681.336,522.212 676.823,525.717C676.569,523.652 675.494,516.115 675.536,514.452ZM637.331,508.935C635.263,512.128 633.687,513.771 631.093,516.55C630.737,502.682 626.681,493.077 625.32,479.71C628.263,480.347 631.67,480.814 634.677,481.29C640.524,481.646 645.71,481.57 651.557,481.506C647.766,490.017 642.914,501.926 637.331,508.935ZM787.256,440.205C799.716,439.219 814.024,441.723 825.352,446.973C826.841,459.267 822.226,467.048 817.773,478.137C813.801,488.029 808.562,495.514 800.751,502.723C801.381,495.502 803.267,488.039 803.819,480.814C804.208,475.718 804.393,456.356 799.956,453.633L799.254,454.177C796.335,470.785 787.599,481.159 774.184,490.833C773.325,482.5 771.31,474.791 768.678,466.874C763.902,454.276 764.734,452.18 750.863,455.299C753.813,477.97 745.018,496.399 727.652,510.724C727.027,497.715 723.479,481.204 720.112,468.651C717.015,468.49 712.343,467.748 709.146,467.331C734.165,454.604 759.028,442.226 787.256,440.205ZM648.622,620.716C650.286,621.807 651.935,625.329 652.721,627.26C658.955,642.582 658.637,659.029 652.767,674.24C656.226,674.107 660.597,674.295 664.125,674.349C671.532,666.106 679.534,649.618 683.659,639.199C686.92,648.519 688.068,656.681 687.603,666.588C687.531,668.123 686.587,673.501 686.973,674.406L687.938,674.394C694.979,669.372 702.639,643.638 705.766,634.395C707.791,636.476 708.498,645.444 708.767,648.431C709.871,660.676 708.237,669.922 703.413,681.131C679.982,689.158 641.059,676.189 620.917,662.586C628.827,653.882 635.312,646.436 640.992,635.946C643.635,631.066 645.693,626.038 648.311,621.274L648.622,620.716ZM608.187,604.854C608.761,605.552 609.019,605.879 609.379,606.732C616.45,623.453 616.251,638.689 610.109,655.437C606.283,651.556 603.313,648.621 599.165,645.03L581.15,630.053C590.04,621.27 598.65,614.874 608.187,604.854ZM579.182,467.682C589.952,471.552 597.973,474.405 609.124,477.849C605.447,485.404 600.443,492.199 595.405,498.877C591.966,503.357 588.235,507.606 584.235,511.594C582.028,502.693 576.734,475.083 579.182,467.682ZM563.07,574.99L563.437,575.156C566.508,579.606 569.048,609.737 568.954,616.452C565.444,613.455 562.242,610.116 559.396,606.483C553.783,599.011 548.384,591.738 544.012,583.458C550.455,580.286 556.433,577.769 563.07,574.99ZM545.485,451.318C552.033,454.941 558.619,458.191 565.313,461.533C562.392,466.654 557.578,473.201 554.111,477.996C551.347,481.812 547.87,485.95 544.857,489.638C546.487,475.446 545.826,465.293 545.485,451.318Z" style="fill:rgb(238,223,157);"/>
        <path d="M339.452,261.35C334.953,265.454 334.124,264.439 328.683,263.695C330.512,260.685 332.033,258.227 334.08,255.366C334.443,254.743 334.819,254.127 335.206,253.519C344.336,239.19 377.92,207.572 392.105,198.702C397.669,195.152 403.814,192.608 410.259,191.187C452.592,182.103 500.571,212.311 534.272,234.894C542.942,240.704 551.257,247.883 560.071,253.622C561.823,259.594 568.444,261.021 571.302,271.364C569.626,271.351 560.933,271.62 559.823,271.366C552.363,269.662 545.428,264.5 538.44,261.209C494.16,240.359 446.252,186.745 393.669,215.318C378.903,223.342 361.761,239.181 350.2,250.53C346.591,254.11 343.009,257.717 339.452,261.35ZM625.42,256.539C623.567,256.25 623.311,255.823 622.34,254.683C622.397,251.153 624.834,251.135 627.657,250.976C631.186,249.893 637.778,249.368 640.189,248.036C661.862,249.744 682.903,254.298 704.099,258.654C742.553,266.556 784.359,275.994 811.504,306.764C823.77,320.668 827.329,338.163 831.749,355.603C837.224,374.799 839.82,387.962 841.193,408.14L840.672,409.147C826.426,401.878 815.396,343.572 805.16,327.434C795.116,309.367 780.803,301.852 762.361,293.875C718.712,274.997 670.591,269.811 625.42,256.539ZM184.74,572.536C174.662,532.301 175.838,494.672 181.468,454.013C182.302,447.99 182.762,441.93 183.771,435.901C186.748,419.028 191.177,402.443 197.008,386.332C213.807,339.416 242.876,290.536 283.937,260.931C295.137,252.856 304.293,248.053 316.611,242.238C311.48,251.755 310.571,257.823 308.547,268.316C301.473,272.631 289.124,287.512 283.027,293.995C243.8,335.756 211.361,385.704 198.684,442.193C193.75,464.18 190.845,486.968 187.832,509.316C185.074,529.765 186.786,552.044 184.74,572.536ZM553.557,201.073C562.66,200.459 571.672,198.619 580.644,197.485C598.519,195.226 613.096,201.872 626.341,213.542C630.653,217.341 636.491,222.649 640.406,226.924C633.834,227.408 628.425,227.764 621.778,227.553C618.374,224.693 613.733,222.569 609.871,220.372C598.705,214.004 586.777,209.884 574.236,207.222C570.055,206.334 555.012,205.355 552.584,201.882L553.557,201.073ZM299.272,434.911C300.238,436.184 302.744,449.246 303.237,451.549C306.057,464.602 309.557,477.499 313.725,490.186C329.716,538.022 365.852,584.305 411.136,608.267C412.277,608.871 412.272,608.781 413.407,609.728C411.979,610.041 410.574,609.487 409.105,609.11C402.853,607.315 395.065,606.206 388.468,604.505C361.951,597.67 336.015,586.838 319.61,563.709C301.206,537.761 291.825,503.126 293.96,471.475C294.649,461.25 297.598,445.494 299.272,434.911Z" style="fill:rgb(133,134,39);"  data-color="color-3"/>
    </g>
</svg>
