<svg width="100%" height="100%" viewBox="0 0 763 894" version="1.1" xmlns="http://www.w3.org/2000/svg" xmlns:xlink="http://www.w3.org/1999/xlink" xml:space="preserve" xmlns:serif="http://www.serif.com/" style="fill-rule:evenodd;clip-rule:evenodd;stroke-linejoin:round;stroke-miterlimit:2;">
    <g transform="matrix(1,0,0,1,-128.084,-75.3297)">
        <path d="M513.022,90.711C521.438,90.017 535.533,90.366 543.889,90.813C576.592,92.563 609.908,97.691 640.309,110.33C655.631,116.7 672.506,125.524 685.907,135.314C693.663,140.98 700.166,147.403 708.38,152.827C723.859,163.051 739.668,168.723 752.509,182.748C760.243,191.251 765.134,201.953 766.502,213.366C769.077,235.547 759.165,250.297 769.459,274.556C774.808,277.068 789.473,281.394 795.638,283.477C810.101,288.37 824.074,294.607 837.374,302.105C854.143,311.7 868.707,322.886 873.788,342.036C878.312,359.088 873.164,366.438 869.202,381.263C868.595,383.534 870.541,405.167 870.771,409.283C872.512,440.384 869.086,470.461 852.332,497.563C840.039,517.807 829.893,526.891 807.116,532.744C796.813,544.294 789.543,551.625 775.434,558.632C757.373,567.601 739.788,569.876 719.956,570.072C716.423,592.967 721.124,622.818 737.279,639.714C766.387,670.159 785.283,708.31 768.83,751.448C764.067,735.666 757.606,728.578 746.303,717.389C768.162,784.348 735.002,830.327 677.87,861.056C681.768,851.492 684.012,842.023 685.349,831.821C678.568,839.294 670.408,847.825 662.64,854.274C620.054,889.625 567.603,910.535 518.584,935.141C513.34,937.773 507.993,940.183 502.85,943.019C504.356,916.194 499.924,898.176 487.944,874.236C479.322,857.438 465.874,837.409 452.625,823.963C452.304,841.306 448.273,857.652 439.736,872.758C410.031,833.157 374.845,812.799 330.314,792.926C297.115,778.11 271.698,760.479 248.45,732.33C243.961,746.328 243.687,755.582 248.038,769.563C199.473,745.379 167.537,676.542 194.811,626.665C198.46,619.991 201.771,614.546 205.954,608.224C189.19,599.986 173.817,591.871 159.652,579.371C172.445,576.302 180.96,573.489 191.651,565.6C225.208,540.84 235.565,510.318 241.677,471.354C236.549,465.655 229.39,458.78 223.929,453.143C221.379,464.795 218.508,472.003 212.648,482.245C209.938,460.129 194.45,441.89 180.793,425.199C164.661,405.484 157.189,384.334 159.988,358.773C161.413,345.757 166.201,334.116 173.051,322.976C186.234,301.537 204.249,283.301 220.761,264.385C242.103,239.935 257.331,218.184 283.21,197.964C277.102,199.39 271.823,200.712 265.811,202.481C270.117,194.488 273.796,188.514 279.955,181.598C293.19,166.561 311.545,156.984 331.45,154.732C353.888,152.231 347.194,154.738 364.627,141.254C406.665,108.736 460.528,93.728 513.022,90.711Z" style="fill:rgb(28,29,23);"  data-color="color-3"/>
        <path d="M220.514,498.702L203.25,528.876L197.759,484.069C195.393,464.76 181.108,449.271 169.184,434.698C150.361,411.695 141.811,386.965 145.077,357.14C146.748,341.877 152.241,328.182 160.273,315.119C173.891,292.974 192.405,274.06 209.461,254.521C220.533,241.837 230.039,229.885 240.151,218.485L252.605,195.367C257.5,186.28 261.729,179.516 268.722,171.657C284.416,153.842 306.172,142.496 329.776,139.826L329.788,139.824C338.494,138.854 341.606,139.318 344.175,138.254C346.771,137.178 348.612,134.678 355.449,129.389C399.81,95.075 456.549,78.965 511.947,75.748L511.983,75.746C520.974,75.027 535.848,75.361 544.69,75.835C579.083,77.675 614.096,83.187 646.067,96.479C662.434,103.284 680.441,112.744 694.755,123.202C702.318,128.727 708.636,135.021 716.647,140.311C733.187,151.235 749.851,157.632 763.589,172.637L763.606,172.655C773.438,183.465 779.656,197.071 781.399,211.609L781.402,211.636C782.579,221.775 781.59,230.558 780.592,239.218C779.725,246.739 778.754,254.152 781.285,263.099C787.534,265.28 796.168,267.823 800.442,269.267L800.445,269.268C815.795,274.461 830.625,281.081 844.782,289.062L844.824,289.086C865.172,300.729 882.121,314.952 888.286,338.189C893.523,357.928 888.74,366.871 884.132,383.522C884.379,387.246 885.57,405.273 885.748,408.445C887.661,442.629 883.521,475.607 865.123,505.399C851.244,528.242 839.5,539.024 815.317,546.052C805.056,557.309 796.778,564.78 782.106,572.067C766.156,579.987 750.565,583.371 733.791,584.552C733.593,600.722 737.671,618.418 748.121,629.348C781.237,663.985 801.564,707.715 782.845,756.793L767.175,797.88L764.004,787.375C763.491,789.21 762.932,791.025 762.329,792.819C750.895,826.804 722.978,853.826 684.975,874.266L648.233,894.028L654.073,879.701C614.371,907.786 568.574,926.831 525.313,948.547C520.242,951.092 515.066,953.412 510.093,956.154L486.354,969.245L487.874,942.178C489.213,918.318 485.205,902.299 474.551,880.991C471.042,874.164 466.685,866.759 461.864,859.549C459.567,866.611 456.559,873.478 452.795,880.138L441.505,900.115L427.737,881.759C399.682,844.357 366.259,825.393 324.201,806.624C301.024,796.28 281.423,784.621 263.692,769.384L272.8,798.651L241.352,782.99C213.943,769.342 191.084,743.22 179.068,713.346C166.742,682.7 165.859,648.346 181.65,619.469C182.655,617.63 183.636,615.88 184.615,614.179C172.265,607.559 160.678,600.281 149.727,590.618L128.084,571.519L156.153,564.785C166.757,562.241 173.883,560.069 182.745,553.53C203.649,538.106 214.194,520.032 220.514,498.702ZM513.022,90.711C460.528,93.728 406.665,108.736 364.627,141.254C347.194,154.738 353.888,152.231 331.45,154.732C311.545,156.984 293.19,166.561 279.955,181.598C273.796,188.514 270.117,194.488 265.811,202.481C271.823,200.712 277.102,199.39 283.21,197.964C257.331,218.184 242.103,239.935 220.761,264.385C204.249,283.301 186.234,301.537 173.051,322.976C166.201,334.116 161.413,345.757 159.988,358.773C157.189,384.334 164.661,405.484 180.793,425.199C194.45,441.89 209.938,460.129 212.648,482.245C218.508,472.003 221.379,464.795 223.929,453.143C229.39,458.78 236.549,465.655 241.677,471.354C235.565,510.318 225.208,540.84 191.651,565.6C180.96,573.489 172.445,576.302 159.652,579.371C173.817,591.871 189.19,599.986 205.954,608.224C201.771,614.546 198.46,619.991 194.811,626.665C167.537,676.542 199.473,745.379 248.038,769.563C243.687,755.582 243.961,746.328 248.45,732.33C271.698,760.479 297.115,778.11 330.314,792.926C374.845,812.799 410.031,833.157 439.736,872.758C448.273,857.652 452.304,841.306 452.625,823.963C465.874,837.409 479.322,857.438 487.944,874.236C499.924,898.176 504.356,916.194 502.85,943.019C507.993,940.183 513.34,937.773 518.584,935.141C567.603,910.535 620.054,889.625 662.64,854.274C670.408,847.825 678.568,839.294 685.349,831.821C684.012,842.023 681.768,851.492 677.87,861.056C735.002,830.327 768.162,784.348 746.303,717.389C757.606,728.578 764.067,735.666 768.83,751.448C785.283,708.31 766.387,670.159 737.279,639.714C721.124,622.818 716.423,592.967 719.956,570.072C739.788,569.876 757.373,567.601 775.434,558.632C789.543,551.625 796.813,544.294 807.116,532.744C829.893,526.891 840.039,517.807 852.332,497.563C869.086,470.461 872.512,440.384 870.771,409.283C870.541,405.167 868.595,383.534 869.202,381.263C873.164,366.438 878.312,359.088 873.788,342.036C868.707,322.886 854.143,311.7 837.374,302.105C824.074,294.607 810.101,288.37 795.638,283.477C789.473,281.394 774.808,277.068 769.459,274.556C759.165,250.297 769.077,235.547 766.502,213.366C765.134,201.953 760.243,191.251 752.509,182.748C739.668,168.723 723.859,163.051 708.38,152.827C700.166,147.403 693.663,140.98 685.907,135.314C672.506,125.524 655.631,116.7 640.309,110.33C609.908,97.691 576.592,92.563 543.889,90.813C535.533,90.366 521.438,90.017 513.022,90.711ZM558.97,228.945C569.008,228.971 572.826,236.697 564.123,243.371C554.697,244.993 551.24,235.203 558.97,228.945ZM720.471,237.858C725.76,238.337 729.954,243.038 725.522,247.88C720.114,247.095 714.989,242.915 720.471,237.858Z" style="fill:white;"/>
        <path d="M396.475,636.81C393.994,632.938 392.174,629.823 389.875,625.88C371.1,593.677 375.857,556.926 395.12,526.162C398.187,521.264 403.356,515.333 406.997,510.528C414.592,500.56 420.549,489.446 424.647,477.603C437.707,440.72 431.296,399.502 422.51,362.468C417.479,341.261 412.213,320.577 411.458,298.692C410.183,261.743 421,226.406 431.04,191.242C416.445,206.119 402.92,214.587 391.345,233.228C373.712,261.625 374.743,287.344 380.867,318.475C389.475,362.239 407.231,406.961 396.944,451.807C393.229,468.191 387.777,480.589 379.485,495.028C382.229,476.086 383.846,452.837 381.257,433.808C374.675,385.43 351.546,343.035 349.06,293.628C337.131,351.195 365.276,391.805 363.528,447.943C362.886,468.574 356.247,491.818 343.712,508.515C340.35,512.994 335.815,517.06 331.662,520.876C332.41,475.596 295.727,446.357 270.283,413.145C271.666,418.491 273.068,425.181 274.701,430.32C279.09,444.138 284.359,457.959 289.537,471.491C271.949,457.964 252.756,444.85 239.117,426.952C227.209,411.326 219.999,392.073 221.366,372.225C221.745,366.711 223.507,360.685 224.328,354.986C208.245,365.435 201.281,385.101 199.268,403.471C185.717,375.144 186.393,351.522 206.008,325.836C221.35,305.745 240.418,289.695 255.6,269.273C269.73,250.265 280.943,229.315 298.194,212.935C308.758,202.954 319.003,197.853 331.726,191.331C323.166,189.017 317.415,188.114 308.642,187.886C319.894,182.336 335.84,178.279 348.345,177.102C366.985,175.349 379.426,173.354 396.087,164.13C388.887,165.069 384,164.935 376.731,164.874C378.747,162.793 382.021,159.917 384.356,158.187C437.838,118.577 506.891,110.373 571.12,118.603C624.609,125.457 655.573,142.018 698.006,173.866C709.525,182.512 721.943,188.618 731.475,201.437C740.05,212.97 741.087,221.373 739.207,235.135C728.943,216.5 711.51,212.913 698.717,231.927C693.005,220.824 689.558,218.512 684.808,204.75C684.437,215.378 684.708,230.562 688.879,240.367C699.874,266.206 721.124,278.079 745.924,288.297C753.705,291.504 761.379,295.156 769.227,298.253C777.013,301.326 785.043,304.028 792.675,307.306L792.067,307.319C770.572,307.776 751.216,314.025 735.697,329.702C729.267,336.198 725.486,344.808 725.949,354.018C726.736,369.649 736.884,379.808 747.547,389.827C745.222,392.842 744.471,399.02 743.955,402.824C742.336,414.736 739.83,423.892 734.931,434.937C721.914,464.782 695.379,486.579 663.574,493.552C657.794,494.774 651.945,495.639 646.058,496.141C642.487,496.416 635.252,496.087 632.803,498.439C611.86,489.382 592.87,480.49 569.515,479.766C562.776,479.558 551.718,479.677 548.689,487.795C542.571,509.815 575.856,514.692 590.543,514.709C602.794,514.724 614.079,516.766 625.602,519.826C653.544,528.774 681.842,531.943 709.819,521.236C717.74,518.156 725.496,514.668 733.056,510.787C742.578,505.927 790.81,477.228 798.682,487.04C800.279,491.432 797.269,502.514 795.173,506.716C771.671,553.826 707.622,542.083 664.924,542.647C642.424,542.944 614.314,543.119 593.319,548.246C598.198,543.317 605.054,536.998 609.369,531.973C580.914,536.082 550.113,523.704 532.453,501.685C529.282,497.732 526.903,492.246 522.824,489.107C510.015,481.185 490.553,503.442 484.624,511.845C482.875,514.373 481.222,516.965 479.669,519.617C489.428,518.816 499.194,518.101 508.966,517.472C518.284,529.407 524.257,534.336 537.796,541.673C520.678,560.02 512.651,580.172 513.126,605.629C513.328,616.495 515.722,628.129 521.321,637.554C523.262,608.841 533.419,584.146 558.507,568.601C544.089,589.025 541.902,606.589 545.675,631.533C547.937,646.488 554.564,662.882 564.088,674.782C565.932,676.948 567.8,679.095 569.69,681.222L566.414,674.043C550.326,631.527 564.418,589.791 608.437,573.331C610.282,572.654 612.138,572.011 614.005,571.401C604.126,600.41 610.581,634.537 624.478,660.918C629.453,670.362 635.885,682.52 639.904,692.08L639.259,693.797L638.571,694.025C636.538,692.43 632.095,687.872 629.813,685.751C621.141,677.691 611.974,669.905 604.394,660.772C601.01,656.695 598.469,650.89 595.373,646.575C593.665,644.194 591.112,637.702 588.407,637.887C587.748,653.276 594.431,675.081 597.396,690.344C599.806,702.751 603.217,715.117 605.736,727.551C607.555,736.531 609.204,739.182 608.079,748.548C603.205,732.213 597.46,721.294 585.92,708.708C583.571,706.438 582.249,705.163 579.621,703.195L583.887,709.523C593.561,730.667 596.169,764.592 593.056,787.504C591.584,797.884 588.988,808.073 585.314,817.892C574.835,846.291 551.633,877.615 527.162,895.608C526.018,892.868 527.861,887.779 528.166,884.482C528.561,880.214 528.737,876.007 528.959,871.739C530.394,844.133 525.77,818.126 511.895,793.898C507.624,786.438 502.44,780.979 497.352,774.093C500.993,781.677 502.411,787.22 503.578,795.735C504.56,802.891 508.507,831.391 504.231,837.043C481.824,795.824 457.807,769.584 425.285,735.779C414.494,724.562 404.079,712.632 393.013,701.295C395.768,708.408 399.985,716.861 403.039,724.021C415.455,753.122 426.045,776.932 425.985,809.062L419.733,800.644L420.437,800.32C421.341,797.648 418.757,793.316 417.622,790.768C409.5,772.668 396.572,757.167 384.877,741.342C364.159,713.306 345.574,684.029 338.716,649.301C337.834,644.832 333.571,620.143 335.74,616.764C338.211,617.753 342.283,629.029 344.668,632.366C348.746,638.072 353.553,643.976 358.375,649.011C377.802,669.297 400.878,676.577 422.381,694.759C421.06,683.502 410.47,650.321 401.345,643.272C399.611,641.108 398.103,639.05 396.475,636.81ZM422.588,602.888C422.489,689.249 537.004,723.579 540.059,825.241L542.534,819.394C551.939,793.322 550.463,768.121 538.887,742.839C525.249,713.055 496.898,691.648 473.049,669.503C463.828,660.908 455.135,651.763 447.018,642.119C438.617,632.025 431.223,621.706 425.887,609.701C425.296,608.371 423.371,603.775 422.588,602.888ZM665.006,417.9C661.388,421.956 661.893,428.288 667.792,426.5C672.445,422.497 672.102,417.515 665.006,417.9ZM672.369,449.393C668.819,452.782 667.76,458.672 674.16,458.381C678.113,454.726 679.689,449.631 672.369,449.393ZM688.408,405.855C684.765,409.618 684.646,414.463 690.84,414.676C694.567,410.63 695.24,406.404 688.408,405.855ZM702.908,440.348C699.001,444.323 699.678,449.986 705.625,449.267C709.757,445.23 709.814,440.383 702.908,440.348ZM720.563,408.297C719.091,408.621 717.914,409.724 717.496,411.172C717.078,412.621 717.487,414.182 718.56,415.24C719.634,416.298 721.2,416.684 722.643,416.246C724.755,415.604 725.983,413.408 725.424,411.272C724.866,409.136 722.72,407.822 720.563,408.297ZM487.364,435.018C478.085,443.824 464.458,455.272 460.748,467.331C459.172,472.451 442.269,511.316 442.41,512.807C468.225,501.055 474.896,474.906 481.132,450.17C482.131,446.208 486.91,438.406 487.364,435.018ZM565.386,172.708C545.442,174.552 530.308,183.783 514.953,196.359C533.767,187.885 552.673,179.172 573.604,187.003C579.539,189.178 584.835,192.805 589.007,197.555C594.515,204.551 604.694,226.344 606.944,235.114C612.182,222.557 614.041,208.97 608.801,196.008C605.137,186.988 597.978,179.836 588.955,176.181C581.661,173.194 573.216,172.194 565.386,172.708ZM559.991,211.687C537.252,214.676 526.779,230.752 510.236,244.603C502.691,250.92 494.795,255.256 486.207,259.879C502.987,260.108 509.469,258.89 523.897,250.753C529.867,261.142 536.039,268.123 548.167,271.368C556.034,273.428 564.307,273.369 572.144,271.195C580.27,267.803 582.701,265.927 588.966,259.812C592.316,271.019 595.795,282.273 595.026,294.093C600.017,283.316 600.97,274.956 602.103,263.101C606.306,266.074 610.593,269.225 614.989,271.877C612.783,267.447 610.748,263.021 608.718,258.511C598.794,236.459 590.443,207.542 559.991,211.687ZM792.095,328.196C801.479,327.465 810.916,327.787 820.229,329.158C831.123,330.704 837.283,331.501 843.976,340.416C825.752,334.228 807.344,333.323 788.878,339.368C774.992,344.757 767.913,354.715 761.208,367.665C760.408,365.029 759.814,362.335 759.433,359.607C756.386,336.607 773.378,330.368 792.095,328.196ZM740.794,256.819C741.778,257.884 742.755,265.178 742.745,266.657L741.991,266.635C740.46,265.664 738.911,264.555 737.412,263.522C738.534,260.644 739.267,259.42 740.794,256.819Z" style="fill:rgb(214,143,48);"  data-color="color-1"/>
        <path d="M419.733,800.644C385.974,760.117 344.509,748.098 320.3,699.501C305.383,669.556 302.148,632.166 312.668,600.379C278.24,646.381 285.228,699.972 313.432,746.818C268.285,724.904 250.837,694.033 262.214,644.297C243.456,661.224 232.362,683.114 224.672,706.711C224.406,706.218 224.146,705.723 223.89,705.225C210.226,678.645 219.155,643.387 236.616,621.283C255.201,597.758 265.881,596.008 275.763,565.248C258.557,581.609 241.862,585.028 218.735,581.211C246.604,560.337 265.859,529.974 272.857,495.865C283.161,504.078 296.753,515.19 299.293,528.859C301.883,542.797 297.889,561.736 290.218,573.597C296.269,572.175 302.241,571.488 308.404,569.9C325.024,565.619 339.296,558.884 354.338,550.928C353.5,557.343 353.437,563.837 354.149,570.268C357.352,597.626 373.864,622.078 395.2,638.849C396.757,640.209 399.478,642.989 401.345,643.272C410.47,650.321 421.06,683.502 422.381,694.759C400.878,676.577 377.802,669.297 358.375,649.011C353.553,643.976 348.746,638.072 344.668,632.366C342.283,629.029 338.211,617.753 335.74,616.764C333.571,620.143 337.834,644.832 338.716,649.301C345.574,684.029 364.159,713.306 384.877,741.342C396.572,757.167 409.5,772.668 417.622,790.768C418.757,793.316 421.341,797.648 420.437,800.32L419.733,800.644ZM747.547,389.827C753.239,394.795 759.063,399.429 765.426,403.533C773.793,408.929 790.876,416.295 795.444,425.122C796.432,427.032 796.804,429.611 796.903,431.737C797.233,438.83 793.73,445.799 788.942,450.876C777.32,463.199 718.042,494.016 699.878,500.316C690.51,503.565 680.566,505.721 670.634,505.977C657.997,506.302 644.32,503.685 632.803,498.439C635.252,496.087 642.487,496.416 646.058,496.141C651.945,495.639 657.794,494.774 663.574,493.552C695.379,486.579 721.914,464.782 734.931,434.937C739.83,423.892 742.336,414.736 743.955,402.824C744.471,399.02 745.222,392.842 747.547,389.827ZM527.162,895.608L523.789,898.378C521.162,875.964 513.867,857.114 504.231,837.043C508.507,831.391 504.56,802.891 503.578,795.735C502.411,787.22 500.993,781.677 497.352,774.093C502.44,780.979 507.624,786.438 511.895,793.898C525.77,818.126 530.394,844.133 528.959,871.739C528.737,876.007 528.561,880.214 528.166,884.482C527.861,887.779 526.018,892.868 527.162,895.608ZM639.904,692.08C646.163,706.354 649.948,718.182 651.321,733.877C667.24,684.829 627.288,655.668 643.605,606.535C646.96,626.905 651.87,637.323 668.157,651.028C655.999,620.5 658.293,595.662 683.641,573.233C675.085,612.748 696.095,632.101 719.829,659.451C725.239,665.686 731.911,678.077 735.362,685.884C723.227,674.281 713.417,668.879 697.235,665.711C701.625,670.669 704.655,676.139 708.029,681.729C720.719,702.749 727.78,725.516 726.221,750.309C725.189,766.717 720.219,780.144 711.431,793.974C713.822,773.363 709.808,749.817 696.708,733.244C695.089,731.211 693.427,729.213 691.725,727.249C695.317,760.03 687.839,785.994 667.131,812.085C659.148,822.142 646.269,834.207 635.265,841.287C647.57,815.519 655.636,788.983 646.453,760.512C645.835,768.888 645.411,774.894 643.221,783.218C635.94,810.889 615.491,835.011 594.514,853.718C593.186,854.902 591.935,855.868 590.463,856.852C608.959,823.558 615.997,786.024 608.079,748.548C609.204,739.182 607.555,736.531 605.736,727.551C603.217,715.117 599.806,702.751 597.396,690.344C594.431,675.081 587.748,653.276 588.407,637.887C591.112,637.702 593.665,644.194 595.373,646.575C598.469,650.89 601.01,656.695 604.394,660.772C611.974,669.905 621.141,677.691 629.813,685.751C632.095,687.872 636.538,692.43 638.571,694.025L639.259,693.797L639.904,692.08ZM849.856,400.445C852.477,404.006 849.117,439.472 847.723,446.3C843.835,465.336 837.332,487.304 820.62,498.915C821.357,495.487 821.823,493.096 822.234,489.626C822.275,489.267 822.309,488.908 822.337,488.548C823.366,475.164 820.207,464.412 811.555,454.254C815.977,443.11 816.798,438.535 816.945,426.524C834.35,417.139 837.021,415.165 849.856,400.445ZM808.512,362.66C809.512,363.372 809.858,363.731 810.357,364.822C816.023,377.201 804.844,395.849 790.537,393.994C788.145,393.683 786.327,392.927 784.147,392.033C782.399,391.178 780.22,389.789 778.507,388.767C780.318,389.215 782.155,389.551 784.007,389.774C801.493,391.838 807.122,376.785 808.512,362.66ZM844.697,374.881C844.899,381.976 840.527,386.868 834.991,390.669C834.971,389.49 835.718,389.008 836.67,387.814C840.084,383.527 842.264,379.764 844.697,374.881Z" style="fill:rgb(199,121,40);"  data-color="color-2"/>
    </g>
</svg>
