<svg width="100%" height="100%" viewBox="0 0 788 725" version="1.1" xmlns="http://www.w3.org/2000/svg" xmlns:xlink="http://www.w3.org/1999/xlink" xml:space="preserve" xmlns:serif="http://www.serif.com/" style="fill-rule:evenodd;clip-rule:evenodd;stroke-linejoin:round;stroke-miterlimit:2;">
    <g transform="matrix(1,0,0,1,-133.992,-151.948)">
        <path d="M229.294,527.703C238.499,526.265 256.939,528.091 265.714,531.092C275.175,534.328 280.377,537.156 285.077,546.137C274.121,541.394 263.195,539.3 251.378,537.889C235.972,535.936 202.27,535.468 187.357,538.895C198.652,532.321 216.195,529.005 229.294,527.703ZM483.467,392.596C483.846,393.178 482.962,397.422 482.825,398.532C481.308,410.792 488.022,420.786 499.782,424.768C508.876,427.848 515.925,426.291 524.487,422.143C518.641,428.697 515.431,430.432 507.111,432.432C496.862,434.275 486.299,432.031 477.683,426.182C468.629,419.99 463.917,411.932 461.949,401.29C468.929,398.941 476.555,395.467 483.467,392.596ZM516.374,389.814C519.572,388.886 522.916,390.731 523.839,393.931C524.762,397.131 522.914,400.472 519.713,401.391C516.518,402.309 513.183,400.464 512.262,397.27C511.34,394.076 513.18,390.739 516.374,389.814ZM288.252,390.872C291.949,395.48 294.159,395.48 299.984,396.969C295.269,404.013 293.383,409.086 290.687,416.924C289.42,417.902 289.244,418.196 287.684,418.595C281.326,416.944 279.339,406.605 280.617,401.036C281.793,395.911 284.025,393.669 288.252,390.872Z" style="fill:white;"/>
        <path d="M920.971,385.165C921.914,410.431 920.653,425.8 913.682,450.366C901.101,496.121 874.219,535.441 846.538,573.272C832.438,592.542 818.186,611.372 807.384,632.714C798.965,649.348 799.238,659.036 797.061,676.383C794.257,698.73 780.242,723.7 758.429,732.623C731.713,773.503 704.49,805.399 662.742,831.573C658.656,834.134 646.437,842.227 642.567,843.337C641.599,844.582 628.543,850.743 625.884,851.926C593.336,866.406 557.33,876.628 521.468,876.197C477.57,875.578 434.95,861.332 399.503,835.429C386.555,825.832 376.241,815.883 365.015,804.358C357.237,804.978 349.794,806.184 341.824,806.442C308.452,807.522 273.099,800.057 244.816,781.807C242.842,780.533 233.997,774.234 233.046,774.063C217.972,771.346 204.54,766.889 191.894,757.826C161.557,737.074 144.061,701.041 137.305,665.706C133.391,645.232 133.336,623.664 135.124,602.974C135.792,595.52 137.298,587.454 137.864,580.244C138.177,576.263 135.834,566.692 135.492,561.802C133.715,536.36 137.053,516.144 151.59,495.129C152.148,493.131 157.462,486.918 159.141,485.333C161.047,483.037 163.974,480.189 166.409,478.476C167.063,477.241 169.17,475.456 170.291,474.386C163.305,452.578 164.144,415.93 168.575,393.76C174.089,366.175 184.073,342.256 199.332,318.743C200.867,316.378 205.695,307.857 207.677,306.501C209.724,301.938 217.237,292.439 220.419,288.341C221.76,286.246 223.087,284.716 224.659,282.808L232.816,272.697C234.173,270.285 244.874,258.559 247.164,256.315C254.876,247.765 262.921,239.522 271.28,231.603C275.322,226.512 297.265,208.519 302.859,204.295C344.923,172.657 395.565,154.47 448.146,152.118C467.833,151.365 485.046,153.343 504.213,153.64C521.715,153.911 539.097,152.67 556.981,153.668C575.88,154.722 593.501,156.558 612.221,159.18C615.167,159.135 621.572,160.457 624.693,160.926C640.679,163.329 656.101,167.446 671.795,171.078C674.554,171.25 677.612,171.51 680.35,171.537C701.666,171.167 735.87,184.539 753.713,196.82C759.928,201.098 768.169,208.543 773.67,214.024C796.902,237.173 818.877,261.038 843.077,283.226C861.916,300.499 884.413,313.372 900.656,333.185C911.084,345.905 921.63,368.343 920.971,385.165ZM449.766,176.708C369.752,182.633 314.263,216.831 262.088,276.884C219.725,325.643 183.846,377.377 190.642,445.403C191.87,457.687 193.485,471.089 197.445,482.837C178.051,500.447 160.449,515.508 159.344,543.64C159.185,547.681 158.989,559.179 160.066,562.606C164.231,575.869 163.311,578.882 161.15,592.511C160.178,598.486 159.5,604.506 159.118,610.548C156.241,650.753 164.116,694.247 191.81,725.243C201.139,735.684 214.519,744.185 228.19,747.57C232.524,748.643 240.24,749.61 243.971,751.462C249.664,754.288 255.436,760.501 261.205,763.57C281.364,774.292 306.203,780.86 328.765,781.799C344.253,782.443 359.751,780.775 374.747,776.848C386.17,790.006 399.505,804.606 413.689,815.049C440.588,834.855 478.525,848.965 511.873,851.31C536.868,853.067 558.913,848.514 582.646,841.995C637.273,825.488 685.207,791.977 719.469,746.34C728.159,734.844 733.785,724.773 741.311,712.744C761.225,709.398 771.834,688.381 774.186,670.149C775.196,662.321 775.541,654.4 777.289,646.698C783.646,619.55 799.454,597.452 815.397,575.325C848.696,529.11 884.713,482.315 894.875,424.797C900.19,394.71 898.923,364.795 875.424,342.919C863.909,332.199 851.481,322.585 839.175,312.847C831.719,306.908 824.493,300.685 817.514,294.193C805.144,282.566 793.171,270.525 781.616,258.088C770.167,245.966 753.851,228.091 740.037,218.963C724.056,208.404 700.477,198.369 681.375,196.54C675.828,196.009 667.391,197.201 663.15,196.668C659.62,196.225 650.06,192.481 645.585,191.258C632.938,187.85 620.105,185.176 607.15,183.249C584.639,180.078 561.932,178.503 539.199,178.536C527.189,178.565 515.137,179.617 503.128,179.176C488.368,178.635 464.179,174.843 449.766,176.708ZM194.301,603.087C196.222,604.18 199.193,606.346 201.366,607.653C209.113,612.311 215.131,614.189 223.708,616.347C220.62,633.523 215.525,641.651 209.353,657.743C207.523,662.108 205.575,668.537 204.091,673.171C202.248,667.103 200.268,662.331 198.666,655.845C194.308,638.194 193.894,621.093 194.301,603.087ZM672.353,695.365C673.88,695.576 687.223,704.519 689.847,706.148C661.276,748.043 616.896,780.433 569.09,796.905C531.074,810.396 489.252,808.211 452.85,790.831C440.832,785.245 429.321,776.546 419.443,767.735C464.202,766.575 523.194,777.032 555.389,738.69C598.863,735.384 637.962,722.489 672.353,695.365ZM410.291,732.552C402.951,733.546 395.517,733.867 388.045,735.05C355.381,740.333 324.805,745.722 292.255,735.7C267.814,728.174 242.783,712.539 237.6,685.396C236.594,680.131 236.493,670.551 239.674,666.092C244.103,659.883 251.103,666.897 255.934,668.645C260.653,670.441 265.409,672.216 270.064,674.17C279.412,678.105 288.518,682.594 297.334,687.612C339.813,711.658 357.159,734.889 411.536,726.715C410.776,729.309 411.849,730.139 410.291,732.552Z" style="fill:rgb(203,210,214);"  data-color="color-2"/>
        <path d="M411.536,726.715C433.694,721.072 447.073,710.044 466.861,700.646C476.976,695.842 494.802,696.298 503.3,703.901C506.078,706.386 509.633,710.552 513.112,712.095C520.696,709.306 518.628,691.571 515.827,685.566C511.905,677.157 505.687,670.772 496.914,667.598C471.582,658.43 449.654,678.348 427.919,687.916C406.994,697.202 387.719,698.57 366.413,689.807C344.724,680.79 326.828,665.655 306.222,654.397C291.043,646.105 274.343,641.232 259.938,631.788C254.131,627.981 250.654,622.664 247.957,616.389C279.496,606.854 319.477,577.888 311.525,539.684C303.54,501.323 249.78,497.365 218.599,504.465C233.873,490.247 244.893,482.903 261.274,470.694C275.014,460.63 288.246,449.892 300.921,438.517C321.99,419.29 344.972,394.501 341.231,363.66C340.896,360.892 340.762,356.026 339.017,354.119L337.95,354.213C331.911,358.041 329.986,372.006 322.143,373.266C308.205,375.506 292.625,369.475 291.182,353.551C288.956,328.999 302.314,300.105 316.349,280.558C325.44,267.897 337.981,256.308 350.292,247.04C370.24,233.394 396.176,222.197 419.624,216.177C427.912,214.048 436.87,212.848 445.234,211.641C423.275,233.148 403.521,259.946 389.657,287.417C387.745,291.206 382.685,300.048 385.616,303.514C389.598,303.625 400.321,289.544 403.735,285.892C414.847,273.858 426.86,262.69 439.67,252.483C484.132,217.271 524.142,207.231 580.881,213.559C621.796,218.122 658.281,232.589 688.023,261.98C696.429,270.286 701.224,278.068 708.317,287.048C712.142,292.333 715.93,320.698 715.522,328.546C716.579,393.006 699.448,449.369 667.418,505.19C667.495,476.286 667.783,447.235 667.702,418.595C668.055,371.934 665.297,324.31 637.934,284.563C633.739,278.47 629.56,271.746 624.555,266.25C622.63,264.136 620.446,262.656 618.018,264.771C617.566,268.002 623.748,283.955 625.289,288.094C639.029,325.01 637.179,360.829 634.359,399.639C620.434,399.77 593.701,381.137 587.754,368.821C578.17,349.937 555.462,331.546 535.868,325.102C501.051,313.652 468.545,333.116 440.776,352.035C431.641,358.259 418.741,367.6 407.286,365.596C399.321,364.202 402.743,352.905 398.956,350.367C396.829,350.939 395.489,352.558 394.469,354.489C388.244,366.271 394.445,381.483 400.787,391.367C399.917,430.608 414.409,468.637 441.173,497.347C444.411,500.788 447.982,504.396 451.395,507.671C487.125,541.96 522.98,577.752 523.75,631.022C524.204,634.977 525.743,637.798 527.495,641.234C538.14,662.122 547.431,693.456 531.55,714.231C513.321,738.076 479.567,734.129 453.268,732.812C438.813,732.089 424.654,731.834 410.291,732.552C411.849,730.139 410.776,729.309 411.536,726.715Z" style="fill:white;"/>
        <path d="M634.359,399.639C625.847,480.683 603.735,583.639 646.826,658.342C623.641,675.109 588.315,691.451 560.056,696.881C559.853,672.241 553.094,656.991 535.479,639.177C532.337,636 528.154,631.431 523.75,631.022C522.98,577.752 487.125,541.96 451.395,507.671C447.982,504.396 444.411,500.788 441.173,497.347C414.409,468.637 399.917,430.608 400.787,391.367C409.685,401.035 414.962,403.769 427.519,407.327C432.005,416.993 437.593,423.859 444.858,431.733C471.334,460.429 522.892,462.276 539.352,422.189C542.395,414.777 542.572,408.368 542.471,400.238C547.21,405.475 551.608,411.012 555.636,416.814C558.855,421.547 564.154,431.108 567.978,434.59C569.956,434.887 569.123,435.114 570.626,434.163C572.827,429.766 570.259,415.694 569.066,410.737C565.103,394.272 555.074,380.031 540.314,371.465C517.576,358.271 492.309,360.687 468.013,367.161C477.201,357.938 494.011,346.61 505.832,342.24C528.516,333.722 552.32,341.043 570.439,356.002C573.019,358.132 585.167,368.076 587.754,368.821C593.701,381.137 620.434,399.77 634.359,399.639ZM708.317,287.048C709.333,286.258 710.39,285.722 710.41,284.284C710.576,272.487 703.498,251.118 698.831,240.84C721.068,252.471 728.619,264.063 743.995,282.831C753.138,294.184 762.914,305.014 773.275,315.269C784.732,326.446 796.946,336.82 809.83,346.316C820.373,354.073 831.161,360.913 840.777,369.895C870.735,397.804 847.174,442.795 830.891,471.758C818.524,493.756 803.43,514.252 788.914,535.017C766.667,566.842 740.511,599.379 733.328,638.628C732.139,645.126 731.648,651.845 731.112,658.384C715.298,655.461 701.899,649.968 692.527,636.143C676.83,612.99 676.697,586.778 681.387,560.391C691.728,501.875 732.012,451.621 732.446,391.037C732.53,379.274 732.077,366.77 728.909,355.386C727.404,349.978 721.833,329.06 717.244,327.088L716.235,327.343L715.522,328.546C715.93,320.698 712.142,292.333 708.317,287.048ZM285.321,308.44C285.363,309.491 278.719,324.312 277.813,326.75C273.081,339.479 271.806,351.888 269.597,365.018C269.104,367.948 263.145,374.027 261.637,379.649C256.442,399.017 261.733,415.406 270.968,432.393C259.701,439.421 248.805,447.026 238.323,455.178L233.001,459.376C232.037,453.055 231.385,446.691 231.048,440.306C228.446,385.575 249.831,347.279 285.321,308.44Z" style="fill:rgb(215,167,122);"  data-color="color-3"/>
        <path d="M449.766,176.708C464.179,174.843 488.368,178.635 503.128,179.176C515.137,179.617 527.189,178.565 539.199,178.536C561.932,178.503 584.639,180.078 607.15,183.249C620.105,185.176 632.938,187.85 645.585,191.258C650.06,192.481 659.62,196.225 663.15,196.668C667.391,197.201 675.828,196.009 681.375,196.54C700.477,198.369 724.056,208.404 740.037,218.963C753.851,228.091 770.167,245.966 781.616,258.088C793.171,270.525 805.144,282.566 817.514,294.193C824.493,300.685 831.719,306.908 839.175,312.847C851.481,322.585 863.909,332.199 875.424,342.919C898.923,364.795 900.19,394.71 894.875,424.797C884.713,482.315 848.696,529.11 815.397,575.325C799.454,597.452 783.646,619.55 777.289,646.698C775.541,654.4 775.196,662.321 774.186,670.149C771.834,688.381 761.225,709.398 741.311,712.744C733.785,724.773 728.159,734.844 719.469,746.34C685.207,791.977 637.273,825.488 582.646,841.995C558.913,848.514 536.868,853.067 511.873,851.31C478.525,848.965 440.588,834.855 413.689,815.049C399.505,804.606 386.17,790.006 374.747,776.848C359.751,780.775 344.253,782.443 328.765,781.799C306.203,780.86 281.364,774.292 261.205,763.57C255.436,760.501 249.664,754.288 243.971,751.462C240.24,749.61 232.524,748.643 228.19,747.57C214.519,744.185 201.139,735.684 191.81,725.243C164.116,694.247 156.241,650.753 159.118,610.548C159.5,604.506 160.178,598.486 161.15,592.511C163.311,578.882 164.231,575.869 160.066,562.606C158.989,559.179 159.185,547.681 159.344,543.64C160.449,515.508 178.051,500.447 197.445,482.837C193.485,471.089 191.87,457.687 190.642,445.403C183.846,377.377 219.725,325.643 262.088,276.884C314.263,216.831 369.752,182.633 449.766,176.708ZM672.353,695.365C637.962,722.489 598.863,735.384 555.389,738.69C523.194,777.032 464.202,766.575 419.443,767.735C429.321,776.546 440.832,785.245 452.85,790.831C489.252,808.211 531.074,810.396 569.09,796.905C616.896,780.433 661.276,748.043 689.847,706.148C687.223,704.519 673.88,695.576 672.353,695.365ZM194.301,603.087C193.894,621.093 194.308,638.194 198.666,655.845C200.268,662.331 202.248,667.103 204.091,673.171C205.575,668.537 207.523,662.108 209.353,657.743C215.525,641.651 220.62,633.523 223.708,616.347C215.131,614.189 209.113,612.311 201.366,607.653C199.193,606.346 196.222,604.18 194.301,603.087ZM285.321,308.44C249.831,347.279 228.446,385.575 231.048,440.306C231.385,446.691 232.037,453.055 233.001,459.376L238.323,455.178C248.805,447.026 259.701,439.421 270.968,432.393C261.733,415.406 256.442,399.017 261.637,379.649C263.145,374.027 269.104,367.948 269.597,365.018C271.806,351.888 273.081,339.479 277.813,326.75C278.719,324.312 285.363,309.491 285.321,308.44ZM229.294,527.703C216.195,529.005 198.652,532.321 187.357,538.895C202.27,535.468 235.972,535.936 251.378,537.889C263.195,539.3 274.121,541.394 285.077,546.137C280.377,537.156 275.175,534.328 265.714,531.092C256.939,528.091 238.499,526.265 229.294,527.703ZM411.536,726.715C357.159,734.889 339.813,711.658 297.334,687.612C288.518,682.594 279.412,678.105 270.064,674.17C265.409,672.216 260.653,670.441 255.934,668.645C251.103,666.897 244.103,659.883 239.674,666.092C236.493,670.551 236.594,680.131 237.6,685.396C242.783,712.539 267.814,728.174 292.255,735.7C324.805,745.722 355.381,740.333 388.045,735.05C395.517,733.867 402.951,733.546 410.291,732.552C424.654,731.834 438.813,732.089 453.268,732.812C479.567,734.129 513.321,738.076 531.55,714.231C547.431,693.456 538.14,662.122 527.495,641.234C525.743,637.798 524.204,634.977 523.75,631.022C528.154,631.431 532.337,636 535.479,639.177C553.094,656.991 559.853,672.241 560.056,696.881C588.315,691.451 623.641,675.109 646.826,658.342C603.735,583.639 625.847,480.683 634.359,399.639C637.179,360.829 639.029,325.01 625.289,288.094C623.748,283.955 617.566,268.002 618.018,264.771C620.446,262.656 622.63,264.136 624.555,266.25C629.56,271.746 633.739,278.47 637.934,284.563C665.297,324.31 668.055,371.934 667.702,418.595C667.783,447.235 667.495,476.286 667.418,505.19C699.448,449.369 716.579,393.006 715.522,328.546L716.235,327.343L717.244,327.088C721.833,329.06 727.404,349.978 728.909,355.386C732.077,366.77 732.53,379.274 732.446,391.037C732.012,451.621 691.728,501.875 681.387,560.391C676.697,586.778 676.83,612.99 692.527,636.143C701.899,649.968 715.298,655.461 731.112,658.384C731.648,651.845 732.139,645.126 733.328,638.628C740.511,599.379 766.667,566.842 788.914,535.017C803.43,514.252 818.524,493.756 830.891,471.758C847.174,442.795 870.735,397.804 840.777,369.895C831.161,360.913 820.373,354.073 809.83,346.316C796.946,336.82 784.732,326.446 773.275,315.269C762.914,305.014 753.138,294.184 743.995,282.831C728.619,264.063 721.068,252.471 698.831,240.84C703.498,251.118 710.576,272.487 710.41,284.284C710.39,285.722 709.333,286.258 708.317,287.048C701.224,278.068 696.429,270.286 688.023,261.98C658.281,232.589 621.796,218.122 580.881,213.559C524.142,207.231 484.132,217.271 439.67,252.483C426.86,262.69 414.847,273.858 403.735,285.892C400.321,289.544 389.598,303.625 385.616,303.514C382.685,300.048 387.745,291.206 389.657,287.417C403.521,259.946 423.275,233.148 445.234,211.641C436.87,212.848 427.912,214.048 419.624,216.177C396.176,222.197 370.24,233.394 350.292,247.04C337.981,256.308 325.44,267.897 316.349,280.558C302.314,300.105 288.956,328.999 291.182,353.551C292.625,369.475 308.205,375.506 322.143,373.266C329.986,372.006 331.911,358.041 337.95,354.213L339.017,354.119C340.762,356.026 340.896,360.892 341.231,363.66C344.972,394.501 321.99,419.29 300.921,438.517C288.246,449.892 275.014,460.63 261.274,470.694C244.893,482.903 233.873,490.247 218.599,504.465C249.78,497.365 303.54,501.323 311.525,539.684C319.477,577.888 279.496,606.854 247.957,616.389C250.654,622.664 254.131,627.981 259.938,631.788C274.343,641.232 291.043,646.105 306.222,654.397C326.828,665.655 344.724,680.79 366.413,689.807C387.719,698.57 406.994,697.202 427.919,687.916C449.654,678.348 471.582,658.43 496.914,667.598C505.687,670.772 511.905,677.157 515.827,685.566C518.628,691.571 520.696,709.306 513.112,712.095C509.633,710.552 506.078,706.386 503.3,703.901C494.802,696.298 476.976,695.842 466.861,700.646C447.073,710.044 433.694,721.072 411.536,726.715ZM400.787,391.367C394.445,381.483 388.244,366.271 394.469,354.489C395.489,352.558 396.829,350.939 398.956,350.367C402.743,352.905 399.321,364.202 407.286,365.596C418.741,367.6 431.641,358.259 440.776,352.035C468.545,333.116 501.051,313.652 535.868,325.102C555.462,331.546 578.17,349.937 587.754,368.821C585.167,368.076 573.019,358.132 570.439,356.002C552.32,341.043 528.516,333.722 505.832,342.24C494.011,346.61 477.201,357.938 468.013,367.161C492.309,360.687 517.576,358.271 540.314,371.465C555.074,380.031 565.103,394.272 569.066,410.737C570.259,415.694 572.827,429.766 570.626,434.163C569.123,435.114 569.956,434.887 567.978,434.59C564.154,431.108 558.855,421.547 555.636,416.814C551.608,411.012 547.21,405.475 542.471,400.238C542.572,408.368 542.395,414.777 539.352,422.189C522.892,462.276 471.334,460.429 444.858,431.733C437.593,423.859 432.005,416.993 427.519,407.327C414.962,403.769 409.685,401.035 400.787,391.367ZM483.467,392.596C476.555,395.467 468.929,398.941 461.949,401.29C463.917,411.932 468.629,419.99 477.683,426.182C486.299,432.031 496.862,434.275 507.111,432.432C515.431,430.432 518.641,428.697 524.487,422.143C515.925,426.291 508.876,427.848 499.782,424.768C488.022,420.786 481.308,410.792 482.825,398.532C482.962,397.422 483.846,393.178 483.467,392.596ZM516.374,389.814C513.18,390.739 511.34,394.076 512.262,397.27C513.183,400.464 516.518,402.309 519.713,401.391C522.914,400.472 524.762,397.131 523.839,393.931C522.916,390.731 519.572,388.886 516.374,389.814ZM288.252,390.872C284.025,393.669 281.793,395.911 280.617,401.036C279.339,406.605 281.326,416.944 287.684,418.595C289.244,418.196 289.42,417.902 290.687,416.924C293.383,409.086 295.269,404.013 299.984,396.969C294.159,395.48 291.949,395.48 288.252,390.872Z" style="fill:rgb(118,46,61);"  data-color="color-1"/>
    </g>
</svg>
