<?xml version="1.0" encoding="UTF-8" standalone="no"?>
<!DOCTYPE svg PUBLIC "-//W3C//DTD SVG 1.1//EN" "http://www.w3.org/Graphics/SVG/1.1/DTD/svg11.dtd">
<svg width="100%" height="100%" viewBox="0 0 714 1003" version="1.1" xmlns="http://www.w3.org/2000/svg" xmlns:xlink="http://www.w3.org/1999/xlink" xml:space="preserve" xmlns:serif="http://www.serif.com/" style="fill-rule:evenodd;clip-rule:evenodd;stroke-linejoin:round;stroke-miterlimit:2;">
    <g transform="matrix(1,0,0,1,-155.38,-10.7172)">
        <path d="M413.515,588.657C415.015,589.891 421.881,604.01 422.984,606.66C426.039,614 441.759,633.536 449.238,635.086C458.811,637.07 487.538,632.941 498.593,630.218C503.345,629.047 508.221,626.911 512.385,624.865C530.009,631.928 544.347,634.656 563.357,635.048C573.272,636.094 576.918,636.838 584.841,629.909C598.406,618.046 603.82,603.983 611.301,588.005C614.95,604.725 615.857,629.661 611.189,646.428C608.954,654.458 603.047,661.283 595.531,665.129C582.287,671.439 574.111,656.846 569.961,646.827C565.966,656.287 560.872,665.243 554.783,673.512C552.313,665.96 550.665,657.94 548.918,650.171C521.692,644.401 502.008,646.833 474.726,650.688C473.877,654.155 471.986,673.191 469.765,673.938C468.325,672.352 455.942,651.318 454.254,648.51C453.739,649.687 453.197,650.854 452.63,652.007C447.877,661.838 444.037,664.112 434.081,667.596C425.897,665.555 418.996,659.185 415.675,651.674C409.259,637.161 408.773,602.648 413.515,588.657ZM551.148,697.123C558.279,686.577 560.91,685.468 572.704,680.423C575.206,690.859 573.674,698.977 569.579,708.74C566.923,713.856 564.486,717.082 560.423,721.071C514.448,710.031 510.179,710.213 464.948,721.589C453.973,712.299 446.928,694.671 452.15,680.741C453.047,680.925 453.939,681.135 454.824,681.368C464.521,683.949 468.151,688.851 472.844,696.955C490.769,697.112 510.35,693.546 528.619,694.472C536.556,694.875 543.459,696.494 551.148,697.123ZM406.582,412.571C407.865,412.474 407.783,412.44 408.977,412.9C409.212,414.969 406.097,418.908 405.389,421.041C398.937,440.491 419.324,450.051 432.507,434.777C437.454,437.747 440.137,439.812 443.805,444.162C441.07,446.711 439.629,447.785 436.551,449.946C432.821,451.948 428.772,453.288 424.584,453.909C416.217,455.229 407.674,453.088 400.918,447.979C395.078,443.518 391.362,437.795 390.49,430.379C388.521,413.635 392.019,413.576 406.582,412.571ZM615.429,412.834C619.686,412.797 631.127,412.307 633.16,416.497C635.258,421.151 634.991,431.023 633.127,435.774C625.91,454.166 607.242,456.711 591.189,451.103C586.426,449.083 584.871,448.169 581.104,444.655C585.012,439.888 587,438.396 592.135,434.884C608.678,452.731 631.044,436.764 615.429,412.834Z" style="fill:rgb(255,255,249);"/>
        <path d="M511.748,854.413C520.912,856.365 528.019,863.795 531.453,872.267C524.7,891.716 518.115,909.713 511.843,929.516L511.387,929.505C511.23,929.341 493.193,875.976 492.071,872.694C495.584,864.155 502.602,856.709 511.748,854.413ZM671.09,810.976C675.629,812.173 679.323,813.349 683.502,815.476C686.588,820.535 701.239,858.977 702.797,865.147L693.881,858.965C686.098,853.904 678.277,848.903 670.418,843.963C666.312,841.363 660.587,837.974 656.854,835.045C656.396,822.594 657.605,814.73 671.09,810.976ZM352.809,811.433C362.271,810.884 372.463,831.324 366.555,835.602C357.903,841.865 343.167,850.805 334.099,856.551C330.203,859.081 326.674,861.322 322.644,863.669C324.739,856.753 329.004,846.813 331.525,839.655C333.559,833.877 338.269,820.329 340.877,815.331C345.096,813.705 348.448,812.697 352.809,811.433ZM745.334,722.243C751.948,721.925 760.051,728.963 765.888,732.354C772.693,736.307 779.801,740.379 786.401,744.608C781.892,744.886 778.398,745.201 773.929,745.826C763.699,747.318 752.892,747.978 742.585,748.618C740.71,745.865 739.597,744.561 737.38,742.067C735.779,732.941 738.001,727.595 745.334,722.243ZM274.683,722.278C280.568,721.507 285.11,728.245 285.62,733.472C286.247,739.892 285.013,743.517 281.377,748.555C271.652,748.317 263.231,747.42 253.567,746.278C248.983,745.455 242.99,745.053 238.279,744.699C243.239,740.807 252.237,736.097 257.944,732.546C263.164,729.297 269.419,725.159 274.683,722.278Z" style="fill:rgb(255,255,249);"/>
        <g transform="matrix(1,0,0,1,0.317136,-13.1355)">
            <path d="M266.078,40.08C269.887,39.721 274.29,39.633 277.982,40.63C302.039,47.124 315.524,65.409 330.635,83.157C372.564,132.4 403.166,189.067 437.268,243.641C455.008,240.131 479.84,242.936 498.162,243.32C502.858,243.327 508.772,244.684 513.359,244.435C538.863,243.053 561.468,240.634 587.025,244.083C589.479,239.696 592.219,235.105 594.896,230.848C611.002,205.239 626.185,178.518 642.683,153.198C659.564,127.131 678.103,102.176 698.185,78.486C705.056,70.442 711.998,61.675 719.991,54.722C728.765,47.091 742.507,38.811 754.538,39.934C760.502,40.49 764.988,43.302 768.767,47.837C791.754,75.422 805.192,171.976 807.577,208.483C808.09,217.547 808.175,226.63 807.83,235.702C807.36,247.446 806.036,259.142 803.84,270.689C802.856,275.861 800.09,284.254 799.96,289.01C799.829,293.771 801.879,302.422 802.594,307.57C804.264,319.599 804.748,333.782 803.718,345.855C800.872,379.204 776.483,402.881 752.123,423.108C758.069,444.648 764.541,468.609 771.512,489.646C783.624,526.197 796.316,561.218 806.732,598.389C799.184,596.553 791.348,594.53 783.743,593.111C784.758,601.475 784.352,606.484 784.217,614.802C783.809,639.967 780.282,668.002 769.18,690.822C766.93,687.946 758.159,677.738 754.377,679.75C752.457,683.628 753.848,690.265 753.337,695.026C752.771,700.295 751.266,706.486 751.35,711.759C751.37,713.026 753.567,714.273 754.736,714.954C780.476,729.942 809.539,745.726 833.474,763.382L739.418,792.358C737.906,794.665 736.34,797.405 734.971,799.816C727.665,812.683 719.121,824.307 710.533,836.322C711.421,840.061 713.09,845.092 714.218,848.873C720.608,868.537 729.337,895.912 736.875,915.065C729.395,911.855 718.348,908.299 710.409,905.356C689.553,897.509 668.582,889.97 647.503,882.741C635.592,886.84 623.615,892.237 611.466,896.547C589.933,904.187 572.869,907.081 550.493,910.395C545.565,919.374 540.057,932.412 535.667,942.011C528.005,958.917 520.167,975.743 512.153,992.485C504.298,979.235 499.046,964.46 492.536,950.646C486.491,937.82 480.516,922.273 473.576,910.161C462.375,908.508 452.108,907.178 441.019,904.847C417.151,899.83 397.641,891.23 375.505,881.622C347.248,892.525 315.979,904.754 287.371,914.162C296.266,887.272 304.572,863.38 312.217,835.931C310.535,833.332 308.643,830.663 306.846,828.137C298.531,816.449 291.15,804.244 283.586,792.063C280.189,790.901 276.604,790 273.149,788.997C245.287,780.908 217,773.907 189.876,763.515C219.363,744.065 242.389,730.082 273.169,712.919C272.442,707.853 271.802,702.922 271.385,697.81C270.825,690.951 271.589,685.273 269.531,678.646C263.189,681.566 259.475,685.688 254.844,690.744C244.125,670.592 240.552,638.812 239.721,616.097C239.447,608.596 238.863,600.56 239.914,593.133L218.079,598.041C219.938,589.715 223.306,579.341 225.89,571.066C231.328,554.011 236.926,537.008 242.683,520.058C253.627,488.189 263.428,455.939 272.068,423.37C253.864,407.926 235.72,391.872 226.014,369.27C217.311,349.004 218.924,325.461 221.51,304.103C221.481,300.654 224.362,292.282 223.804,289.344C220.828,273.67 217.264,257.913 216.25,241.908C214.534,214.827 217.084,191.03 221.261,164.422C226.328,132.149 230.707,100.029 243.222,69.525C248.358,57.057 253.038,45.587 266.078,40.08ZM597.606,707.863C606.512,716.255 598.716,750.62 590.624,759.159C583.186,767.008 572,771.921 562.389,776.176C551.759,773.409 544.499,776.604 534.661,779.57C516.764,784.966 500.894,784.766 483.395,778.01C481.229,777.51 474.221,774.461 472.279,774.756C457.74,776.965 454.605,776.361 442.392,766.979C430.217,757.626 425.111,748.228 423.171,732.619C422.198,724.264 421.628,718.075 425.604,710.363C428.83,726.501 435.273,754.396 456.872,757.185C464.128,758.122 476.159,751.16 483.662,749.426C493.888,747.064 504.048,747.945 514.474,747.783C521.143,747.923 529.609,747.227 536.075,749.014C553.474,753.822 565.668,764.711 581.445,749.015C592.361,738.156 597.079,723.026 597.606,707.863ZM550.831,710.259C557.962,699.713 560.593,698.604 572.387,693.559C574.889,703.995 573.357,712.113 569.262,721.876C566.606,726.992 564.169,730.218 560.106,734.207C514.131,723.167 509.862,723.349 464.631,734.725C453.656,725.435 446.611,707.807 451.833,693.877C452.73,694.061 453.622,694.271 454.507,694.504C464.204,697.085 467.834,701.987 472.527,710.091C490.452,710.248 510.033,706.682 528.302,707.608C536.239,708.011 543.142,709.63 550.831,710.259ZM352.492,824.569C361.954,824.02 372.146,844.46 366.238,848.738C357.586,855.001 342.85,863.941 333.782,869.687C329.886,872.217 326.357,874.458 322.327,876.805C324.422,869.889 328.687,859.949 331.208,852.791C333.242,847.013 337.952,833.465 340.56,828.467C344.779,826.841 348.131,825.833 352.492,824.569ZM406.265,425.707C407.548,425.61 407.466,425.576 408.66,426.036C408.895,428.105 405.78,432.044 405.072,434.177C398.62,453.627 419.007,463.187 432.19,447.913C437.137,450.883 439.82,452.948 443.488,457.298C440.753,459.847 439.312,460.921 436.234,463.082C432.504,465.084 428.455,466.424 424.267,467.045C415.9,468.365 407.357,466.224 400.601,461.115C394.761,456.654 391.045,450.931 390.173,443.515C388.204,426.771 391.702,426.712 406.265,425.707ZM275.577,75.752C281.573,76.641 289.792,86.027 294.159,90.407C304.953,101.116 314.769,112.768 323.491,125.224C334.491,140.955 341.994,155.086 350.923,171.929C366.191,200.727 383.573,235.475 391.755,266.93C384.829,273.628 376.763,280.212 369.534,286.701C361.572,293.992 353.89,301.583 346.504,309.456C341.359,290.06 337.616,275.535 334.575,255.56C344.748,262.956 358.615,270.939 369.736,277.254C367.707,265.593 365.294,258.228 362.16,247.206C352.567,213.47 337.478,184.847 315.456,157.476C305.597,145.221 298,135.513 285.284,125.522C284.249,132.465 283.981,139.872 282.765,146.671C272.474,204.228 265.081,265.262 290.425,320.186C293.192,326.183 296.943,332.543 299.203,338.749L299.447,339.432C287.876,337.804 284.052,337.912 273.769,332.49C277.459,342.119 287.106,360.183 291.97,370.498C288.8,374.287 280.897,381.359 276.84,385.51C254.206,362.318 247.573,341.502 252.148,309.455C253.086,302.886 256.16,293.356 256.15,287.415C255.819,280.21 251.479,273.309 250.029,266.492C237.798,209.014 251.026,143.835 269.02,88.849C270.077,85.621 273.669,77.92 275.577,75.752ZM565.519,280.535L566.119,280.557C603.351,282.142 635.844,304.368 660.022,331.057C678.096,351.007 690.531,371.765 698.866,397.462C700.273,401.798 704.024,411.929 703.299,416.275C701.355,427.936 695.077,437.933 686.551,445.427C690.591,447.521 696.406,450.422 700.109,452.88C726.611,470.471 740.914,499.035 751.688,527.962C754.864,536.491 758.65,547.196 760.564,555.948C749.371,550.694 741.89,546.684 730.167,542.455C744.26,559.998 750.499,596.506 751.505,619.013C751.782,625.229 750.614,635.12 749.754,641.439C744.287,633.405 736.934,625.531 729.009,619.912C727.592,633.471 726.864,640.658 722.729,653.908C717.05,672.105 710.233,685.966 700.904,702.141C685.639,728.606 667.775,750.321 642.436,767.756C636.944,771.534 631.633,775.489 625.679,778.72C629.651,761.922 633.383,745.068 636.872,728.163C638.111,721.886 639.43,709.706 641.18,704.35C648.101,699.157 654.757,691.9 659.119,684.483C670.013,665.958 662.721,619.944 657.064,599.582C678.512,579.789 687.36,547.922 682.805,519.522C681.109,521.68 679.403,524.183 677.793,526.427C668.032,540.034 654.859,550.377 641.721,560.421C638.288,537.494 625.411,506.75 610.652,488.705C622.87,488.895 630.944,488.552 641.212,480.964C661.291,466.128 668.377,452.258 672.682,428.687C675.593,431.044 679.196,433.593 682.254,435.985C673.132,417.41 655.328,403.109 635.458,397.657C641.863,378.906 660.217,383.881 674.203,387.722C667.102,379.921 654.407,368.731 643.981,366.408C618.43,360.717 592.77,392.382 576.013,407.573C571.09,412.036 567.11,414.89 561.55,418.268C552.392,405.516 559.126,387.693 560.423,372.861C530.222,410.538 535.661,415.534 546.802,459.944C536.511,466.061 527.892,474.519 523.035,485.647L523.681,485.231C536.805,476.814 556.506,473.574 570.35,482.042C577.667,486.517 582.434,492.905 586.931,500.022C593.424,510.744 597.292,521.726 600.042,533.847C596.011,529.476 591.836,524.929 587.274,521.154C571.83,508.375 548.301,503.888 528.285,503.231C502.893,502.396 470.25,502.394 447.282,514.565C438.564,519.185 431.3,526.141 424.105,532.655C426.599,527.513 428.551,521.201 430.698,516.152C439.161,496.248 451.807,475.69 476.214,477.325C487.974,478.113 491.285,481.783 501.722,485.26C494.259,472.607 490.792,467.361 477.863,460.208C481.696,446.719 486.562,427.639 486.75,413.751C486.944,399.507 473.432,382.679 465.253,371.771C466.428,386.86 471.79,404.873 463.096,418.093C438.409,402.842 418.522,368.846 388.08,365.48C376.315,364.178 357.59,380.366 349.118,388.065C365.625,384.551 379.63,377.627 389.535,397.477C389.028,397.647 388.523,397.824 388.022,398.009C369.177,404.965 349.846,418.147 341.264,436.862C345.04,434.075 347.34,431.442 351.678,429.162C351.838,431.005 352.015,432.884 352.333,434.706C355.573,453.34 366.078,469.925 381.541,480.817C392.177,488.307 402.572,490.093 415.184,487.937C401.491,512.502 389.405,533.583 382.104,560.856C366.002,549.555 351.637,535.903 341.114,519.217C340.258,523.158 339.941,526.338 339.926,530.35C339.826,559.114 347.01,579.224 366.631,599.659C361.43,621.047 358.12,645.341 359.448,667.415C360.505,684.988 370.718,695.946 383.819,707.042C387.08,730.757 392.62,754.923 396.9,778.581C386.555,772.849 370.945,760.656 362.128,752.711C329.457,723.275 296.905,662.961 295.343,618.576C290.136,622.306 277.136,635.481 273.733,641.07C273.159,637.492 272.752,633.889 272.513,630.274C271.063,608.196 279.323,559.575 293.77,543.14C283.534,545.95 272.975,551.711 263.368,556.51C265.278,549.839 267.326,543.209 269.513,536.623C282.183,499.434 300.6,464.046 337.321,445.977C329.839,438.751 321.615,426.814 321.027,416.804C320.236,403.344 335.523,371.74 342.322,360.446C346.908,352.99 352.003,345.861 357.572,339.108C383.123,308.266 414.643,284.62 455.78,280.713L458.508,280.641C465.782,284.694 505.807,373.061 512.739,386.657C515.724,382.435 522.924,365.774 525.799,359.77C533.936,342.8 542.228,325.904 550.673,309.086C554.622,301.187 560.971,287.837 565.519,280.535ZM511.431,867.549C520.595,869.501 527.702,876.931 531.136,885.403C524.383,904.852 517.798,922.849 511.526,942.652L511.07,942.641C510.913,942.477 492.876,889.112 491.754,885.83C495.267,877.291 502.285,869.845 511.431,867.549ZM670.773,824.112C675.312,825.309 679.006,826.485 683.185,828.612C686.271,833.671 700.922,872.113 702.48,878.283L693.564,872.101C685.781,867.04 677.96,862.039 670.101,857.099C665.995,854.499 660.27,851.11 656.537,848.181C656.079,835.73 657.288,827.866 670.773,824.112ZM547.008,610.349C540.944,613.885 532.233,617.47 524.756,616.856C521.75,617.268 513.066,608.613 510.718,610.322C504.454,615.281 499.493,617.476 491.183,616.894C483.522,616.356 469.725,607.333 465.21,601.521C467.805,599.475 471.397,601.231 474.205,602.326C485.047,606.555 499.195,613.143 504.276,597.563C507.12,588.84 509.3,572.848 505.474,564.583C503.328,559.946 473.021,559.677 468.168,564.239C463.51,568.298 462.462,572.291 461.353,577.495C460.148,576.457 458.968,575.392 457.812,574.301C449.6,566.399 456.176,557.43 462.992,551.402C475.367,540.457 500.731,537.576 516.621,538.457C534.344,539.914 554.725,543.239 566.956,557.472C574.448,566.189 571.137,571.388 563.335,577.274C560.805,565.646 557.558,562.073 544.875,561.265C540.58,561.052 522.667,560.46 520.018,564.527C515.524,571.426 517.283,599.697 523.834,604.679C535.455,613.518 545.34,600.934 556.562,600.925L557.273,600.931L558.192,601.59C557.81,603.829 554.921,605.935 553.08,607.21C551.2,608.512 549.154,609.557 547.008,610.349ZM615.112,425.97C619.369,425.933 630.81,425.443 632.843,429.633C634.941,434.287 634.674,444.159 632.81,448.91C625.593,467.302 606.925,469.847 590.872,464.239C586.109,462.219 584.554,461.305 580.787,457.791C584.695,453.024 586.683,451.532 591.818,448.02C608.361,465.867 630.727,449.9 615.112,425.97ZM745.017,735.379C751.631,735.061 759.734,742.099 765.571,745.49C772.376,749.443 779.484,753.515 786.084,757.744C781.575,758.022 778.081,758.337 773.612,758.962C763.382,760.454 752.575,761.114 742.268,761.754C740.393,759.001 739.28,757.697 737.063,755.203C735.462,746.077 737.684,740.731 745.017,735.379ZM274.366,735.414C280.251,734.643 284.793,741.381 285.303,746.608C285.93,753.028 284.696,756.653 281.06,761.691C271.335,761.453 262.914,760.556 253.25,759.414C248.666,758.591 242.673,758.189 237.962,757.835C242.922,753.943 251.92,749.233 257.627,745.682C262.847,742.433 269.102,738.295 274.366,735.414ZM712.331,736.36L712.705,736.721C713.238,738.73 712.026,759.521 712.033,763.367C702.352,777.154 688.292,790.934 676.168,802.663C675.751,803.066 655.754,809.504 651.449,812.663C646.096,816.591 638.882,823.947 634.016,827.154C623.644,833.989 607.398,838.153 595.518,842.243C576.826,847.474 552.778,851.991 533.43,851.946C527.985,851.934 519.058,848.669 511.023,848.581C502.843,847.795 496.086,852.614 488.184,852.346C455.708,851.242 421.477,843.19 391.965,829.675C385.979,826.933 380.317,816.567 373.468,813.035C364.67,808.498 357.051,806.765 348.152,803.042C341.041,798.087 313.595,769.44 311.567,761.994C311.745,753.848 311.06,745.591 310.954,737.356C315.253,742.053 321.141,750.548 325.657,755.978C338.548,771.754 353.498,785.728 370.106,797.528C425.179,836.614 509.968,837.949 574.647,828.084C636.558,818.641 676.97,786.827 712.331,736.36ZM413.198,601.793C414.698,603.027 421.564,617.146 422.667,619.796C425.722,627.136 441.442,646.672 448.921,648.222C458.494,650.206 487.221,646.077 498.276,643.354C503.028,642.183 507.904,640.047 512.068,638.001C529.692,645.064 544.03,647.792 563.04,648.184C572.955,649.23 576.601,649.974 584.524,643.045C598.089,631.182 603.503,617.119 610.984,601.141C614.633,617.861 615.54,642.797 610.872,659.564C608.637,667.594 602.73,674.419 595.214,678.265C581.97,684.575 573.794,669.982 569.644,659.963C565.649,669.423 560.555,678.379 554.466,686.648C551.996,679.096 550.348,671.076 548.601,663.307C521.375,657.537 501.691,659.969 474.409,663.824C473.56,667.291 471.669,686.327 469.448,687.074C468.008,685.488 455.625,664.454 453.937,661.646C453.422,662.823 452.88,663.99 452.313,665.143C447.56,674.974 443.72,677.248 433.764,680.732C425.58,678.691 418.679,672.321 415.358,664.81C408.942,650.297 408.456,615.784 413.198,601.793ZM746.343,76.289C749.458,77.067 751.121,80.527 752.256,83.374C768.202,123.369 775.275,167.951 778.242,210.716C779.728,232.146 778.45,253.689 771.146,273.958C769.772,277.77 767.422,284.325 767.475,288.703C769.72,298.683 771.534,308.851 772.486,318.993C775.387,349.886 766.351,363.352 747.017,385.647C741.527,379.9 735.777,375.322 730.398,369.72C731.496,367.389 732.936,364.813 734.206,362.549C739.65,352.843 743.9,342.008 749.974,332.689C737.993,337.717 736.369,337.572 723.382,339.86C724.412,337.103 726.055,333.785 727.486,331.25C755.717,281.265 753.358,223.012 744.636,168.21C742.788,156.597 740.231,144.66 739.088,132.622L738.496,125.58L738.005,125.952C726.388,134.824 717.972,145.459 709.089,156.484C686.416,184.622 670.572,213.942 661.383,248.987C658.628,259.497 656.079,265.668 654.555,277.085C663.574,270.944 674.232,266.684 683.005,260.056C685.111,258.466 687.224,256.902 689.32,255.294C686.203,275.979 683.409,289.17 677.753,309.178C662.838,294.038 649.343,279.316 631.348,267.725C650.516,209.835 695.569,112.032 746.343,76.289Z"/>
        </g>
        <path d="M547.325,597.213C541.261,600.749 532.55,604.334 525.073,603.72C522.067,604.132 513.383,595.477 511.035,597.186C504.771,602.145 499.81,604.34 491.5,603.758C483.839,603.22 470.042,594.197 465.527,588.385C468.122,586.339 471.714,588.095 474.522,589.19C485.364,593.419 499.512,600.007 504.593,584.427C507.437,575.704 509.617,559.712 505.791,551.447C503.645,546.81 473.338,546.541 468.485,551.103C463.827,555.162 462.779,559.155 461.67,564.359C460.465,563.321 459.285,562.256 458.129,561.165C449.917,553.263 456.493,544.294 463.309,538.266C475.684,527.321 501.048,524.44 516.938,525.321C534.661,526.778 555.042,530.103 567.273,544.336C574.765,553.053 571.454,558.252 563.652,564.138C561.122,552.51 557.875,548.937 545.192,548.129C540.897,547.916 522.984,547.324 520.335,551.391C515.841,558.29 517.6,586.561 524.151,591.543C535.772,600.382 545.657,587.798 556.879,587.789L557.59,587.795L558.509,588.454C558.127,590.693 555.238,592.799 553.397,594.074C551.517,595.376 549.471,596.421 547.325,597.213Z" style="fill:rgb(93,66,44);"/>
        <path d="M746.66,63.154C749.775,63.932 751.438,67.392 752.573,70.239C768.519,110.233 775.592,154.815 778.559,197.58C780.045,219.01 778.767,240.553 771.463,260.822C770.089,264.634 767.739,271.189 767.792,275.567C770.037,285.547 771.851,295.715 772.803,305.857C775.704,336.75 766.668,350.216 747.334,372.511C741.844,366.764 736.094,362.186 730.715,356.584C731.813,354.253 733.253,351.677 734.523,349.413C739.967,339.707 744.217,328.872 750.291,319.553C738.31,324.581 736.686,324.436 723.699,326.724C724.729,323.967 726.372,320.649 727.803,318.114C756.034,268.129 753.675,209.876 744.953,155.074C743.105,143.461 740.548,131.524 739.405,119.486L738.813,112.444L738.322,112.816C726.705,121.688 718.289,132.323 709.406,143.348C686.733,171.486 670.889,200.806 661.7,235.851C658.945,246.361 656.396,252.532 654.872,263.949C663.891,257.808 674.549,253.548 683.322,246.92C685.428,245.33 687.541,243.766 689.637,242.158C686.52,262.843 683.726,276.034 678.07,296.042C663.155,280.902 649.66,266.18 631.665,254.589C650.833,196.699 695.886,98.896 746.66,63.154ZM275.894,62.616C281.89,63.506 290.109,72.892 294.476,77.272C305.27,87.98 315.086,99.632 323.808,112.088C334.808,127.819 342.311,141.95 351.24,158.793C366.508,187.591 383.89,222.339 392.072,253.794C385.146,260.492 377.08,267.076 369.851,273.565C361.889,280.856 354.207,288.447 346.821,296.32C341.676,276.924 337.933,262.399 334.892,242.424C345.065,249.82 358.932,257.803 370.053,264.118C368.024,252.457 365.611,245.092 362.477,234.07C352.884,200.334 337.795,171.711 315.773,144.34C305.914,132.085 298.317,122.377 285.601,112.386C284.566,119.329 284.298,126.736 283.082,133.535C272.791,191.092 265.398,252.126 290.742,307.05C293.509,313.047 297.26,319.407 299.52,325.613L299.764,326.296C288.193,324.668 284.369,324.776 274.086,319.354C277.776,328.983 287.423,347.047 292.287,357.362C289.117,361.151 281.214,368.223 277.157,372.374C254.523,349.182 247.89,328.366 252.465,296.319C253.403,289.75 256.477,280.22 256.467,274.279C256.136,267.074 251.796,260.173 250.346,253.356C238.115,195.878 251.343,130.699 269.337,75.713C270.394,72.485 273.986,64.785 275.894,62.616ZM565.836,267.399L566.436,267.421C603.668,269.006 636.161,291.232 660.339,317.921C678.413,337.871 690.848,358.629 699.183,384.326C700.59,388.662 704.341,398.793 703.616,403.139C701.672,414.8 695.394,424.797 686.868,432.291C690.908,434.385 696.723,437.286 700.426,439.744C726.928,457.335 741.231,485.899 752.005,514.826C755.181,523.355 758.967,534.06 760.881,542.812C749.688,537.558 742.207,533.548 730.484,529.319C744.577,546.862 750.816,583.37 751.822,605.877C752.099,612.093 750.931,621.984 750.071,628.303C744.604,620.269 737.251,612.395 729.326,606.776C727.909,620.335 727.181,627.522 723.046,640.772C717.367,658.969 710.55,672.83 701.221,689.005C685.956,715.47 668.092,737.185 642.753,754.62C637.261,758.398 631.95,762.353 625.996,765.584C629.968,748.786 633.7,731.932 637.189,715.027C638.428,708.75 639.747,696.57 641.497,691.214C648.418,686.021 655.074,678.764 659.436,671.347C670.33,652.822 663.038,606.808 657.381,586.446C678.829,566.653 687.677,534.786 683.122,506.386C681.426,508.544 679.72,511.047 678.11,513.291C668.349,526.898 655.176,537.241 642.038,547.285C638.605,524.358 625.728,493.614 610.969,475.569C623.187,475.759 631.261,475.416 641.529,467.828C661.608,452.992 668.694,439.122 672.999,415.551C675.91,417.908 679.513,420.457 682.571,422.849C673.449,404.274 655.645,389.973 635.775,384.521C642.18,365.77 660.534,370.745 674.52,374.586C667.419,366.785 654.724,355.595 644.298,353.272C618.747,347.581 593.087,379.246 576.33,394.437C571.407,398.9 567.427,401.754 561.867,405.132C552.709,392.38 559.443,374.557 560.74,359.725C530.539,397.402 535.978,402.398 547.119,446.808C536.828,452.925 528.209,461.383 523.352,472.511L523.998,472.095C537.122,463.678 556.823,460.438 570.667,468.906C577.984,473.381 582.751,479.769 587.248,486.886C593.741,497.608 597.609,508.59 600.359,520.711C596.328,516.34 592.153,511.793 587.591,508.018C572.147,495.239 548.618,490.752 528.602,490.095C503.21,489.26 470.567,489.258 447.599,501.429C438.881,506.049 431.617,513.005 424.422,519.519C426.916,514.377 428.868,508.065 431.015,503.016C439.478,483.112 452.124,462.554 476.531,464.189C488.291,464.977 491.602,468.647 502.039,472.124C494.576,459.471 491.109,454.225 478.18,447.072C482.013,433.583 486.879,414.503 487.067,400.615C487.261,386.371 473.749,369.543 465.57,358.635C466.745,373.724 472.107,391.737 463.413,404.957C438.726,389.706 418.839,355.71 388.397,352.344C376.632,351.042 357.907,367.23 349.435,374.929C365.942,371.415 379.947,364.491 389.852,384.341C389.345,384.511 388.84,384.688 388.339,384.873C369.494,391.829 350.163,405.011 341.581,423.726C345.357,420.939 347.657,418.306 351.995,416.026C352.155,417.869 352.332,419.748 352.65,421.57C355.89,440.204 366.395,456.789 381.858,467.681C392.494,475.171 402.889,476.957 415.501,474.801C401.808,499.366 389.722,520.447 382.421,547.72C366.319,536.419 351.954,522.767 341.431,506.081C340.575,510.022 340.258,513.202 340.243,517.214C340.143,545.978 347.327,566.088 366.948,586.523C361.747,607.911 358.437,632.205 359.765,654.279C360.822,671.852 371.035,682.81 384.136,693.906C387.397,717.621 392.937,741.787 397.217,765.445C386.872,759.713 371.262,747.52 362.445,739.575C329.774,710.139 297.222,649.825 295.66,605.44C290.453,609.17 277.453,622.345 274.05,627.934C273.476,624.356 273.069,620.753 272.83,617.138C271.38,595.06 279.64,546.439 294.087,530.004C283.851,532.814 273.292,538.575 263.685,543.374C265.595,536.703 267.643,530.073 269.83,523.487C282.5,486.298 300.917,450.91 337.638,432.841C330.156,425.615 321.932,413.678 321.344,403.668C320.553,390.208 335.84,358.604 342.639,347.31C347.225,339.854 352.32,332.725 357.889,325.972C383.44,295.13 414.96,271.484 456.097,267.577L458.825,267.505C466.099,271.558 506.124,359.925 513.056,373.521C516.041,369.299 523.241,352.638 526.116,346.634C534.253,329.664 542.545,312.768 550.99,295.95C554.939,288.051 561.288,274.701 565.836,267.399ZM597.923,694.727C606.829,703.119 599.033,737.484 590.941,746.023C583.503,753.872 572.317,758.785 562.706,763.04C552.076,760.273 544.816,763.468 534.978,766.434C517.081,771.83 501.211,771.63 483.712,764.874C481.546,764.374 474.538,761.325 472.596,761.62C458.057,763.829 454.922,763.225 442.709,753.843C430.534,744.49 425.428,735.092 423.488,719.483C422.515,711.128 421.945,704.939 425.921,697.227C429.147,713.365 435.59,741.26 457.189,744.049C464.445,744.986 476.476,738.024 483.979,736.29C494.205,733.928 504.365,734.809 514.791,734.647C521.46,734.787 529.926,734.091 536.392,735.878C553.791,740.686 565.985,751.575 581.762,735.879C592.678,725.02 597.396,709.89 597.923,694.727Z" style="fill:rgb(213,134,49);"/>
        <path d="M247.023,696.379L241.035,685.122C229.308,663.075 224.959,628.397 224.049,603.546C224.007,602.396 223.961,601.234 223.915,600.064L197.281,606.051L202.781,581.419C204.728,572.699 208.228,561.827 210.949,553.116L210.963,553.07C216.432,535.92 222.061,518.822 227.859,501.751L227.868,501.726C237.604,473.372 246.426,444.713 254.32,415.794C237.053,400.646 220.955,384.164 211.629,362.448C201.82,339.607 203.029,313.116 205.943,289.044L205.904,289.747C206.24,286.25 207.593,279.583 208.054,277.369C205.035,261.647 201.616,245.831 200.599,229.784C198.806,201.484 201.407,176.611 205.772,148.805C211.033,115.298 215.743,81.987 228.741,50.306L228.745,50.295C235.549,33.778 242.895,19.501 260.17,12.205L262.44,11.246L264.894,11.015C270.521,10.484 277.014,10.575 282.469,12.047C309.878,19.446 325.918,39.429 343.134,59.648C383.352,106.882 413.354,160.811 445.76,213.337C462.815,212.032 483.011,213.851 498.712,214.186C503.1,214.234 508.557,215.554 512.811,215.323L512.812,215.323C535.732,214.084 556.402,212.135 578.742,213.937C579.716,212.33 580.696,210.741 581.669,209.194C597.818,183.52 613.043,156.732 629.583,131.346C646.833,104.711 665.777,79.211 686.317,54.982L686.336,54.959C693.711,46.325 701.229,36.976 709.808,29.514C721.512,19.334 740.292,9.37 756.342,10.867C766.779,11.841 774.762,16.522 781.376,24.459C789.281,33.945 796.598,50.365 802.486,70.089C814.823,111.414 822.142,168 823.865,194.374L823.869,194.443C824.41,204.011 824.5,213.598 824.135,223.19L824.134,223.206C823.633,235.734 822.21,248.209 819.875,260.543L819.873,260.556C819.02,265.019 816.383,272.208 816.271,276.314C816.159,280.406 818.145,287.809 818.759,292.234C820.584,305.382 821.103,320.884 819.977,334.08C817.065,368.209 795.128,393.988 770.57,415.54C775.687,434.115 781.172,453.837 787.017,471.478C799.208,508.268 811.972,543.522 822.456,580.936L829.833,607.262L803.268,600.8C802.37,600.582 801.469,600.361 800.564,600.138C800.553,600.719 800.542,601.315 800.532,601.926C800.088,629.34 795.979,659.827 783.885,684.686L778.074,696.63C800.183,709.337 823.454,722.739 843.289,737.371L868.814,756.199C868.814,756.199 750.26,792.722 750.26,792.723C749.897,793.355 749.543,793.98 749.202,794.581C742.892,805.694 735.712,815.927 728.344,826.235C728.859,827.893 729.376,829.525 729.81,830.971C736.106,850.349 744.67,877.241 752.081,896.07L766.126,931.757L730.882,916.633C723.616,913.514 712.877,910.082 705.128,907.209L705.092,907.196C686.129,900.061 667.071,893.183 647.921,886.563C637.74,890.337 627.5,894.813 617.133,898.491C597.218,905.556 580.956,908.803 561.304,911.854C557.574,919.543 553.759,928.477 550.547,935.504C542.842,952.503 534.96,969.423 526.902,986.258L513.975,1013.26L498.707,987.509C490.595,973.825 485.103,958.598 478.38,944.332C473.575,934.137 468.849,922.158 463.596,911.694C455.034,910.449 446.788,909.207 438.045,907.369C415.252,902.578 396.228,894.747 375.471,885.773C348.619,896.145 319.493,907.41 292.687,916.226L262.527,926.144L272.498,896.002C280.53,871.719 288.085,849.906 295.095,825.641C294.77,825.182 294.446,824.727 294.126,824.276C286.779,813.95 280.136,803.234 273.476,792.477C271.979,792.06 270.479,791.655 269.005,791.227C240.717,783.014 212.008,775.871 184.469,765.32L155.38,754.176L181.383,737.023C204.981,721.458 224.49,709.352 247.023,696.379ZM266.395,26.944C253.355,32.452 248.675,43.921 243.539,56.389C231.024,86.893 226.645,119.013 221.578,151.286C217.401,177.894 214.851,201.691 216.567,228.772C217.581,244.777 221.145,260.535 224.121,276.208C224.679,279.146 221.798,287.518 221.827,290.967C219.241,312.325 217.628,335.868 226.331,356.134C236.037,378.736 254.181,394.79 272.385,410.234C263.745,442.803 253.944,475.053 243,506.922C237.243,523.872 231.645,540.875 226.207,557.93C223.623,566.205 220.255,576.579 218.396,584.905L240.231,579.997C239.18,587.424 239.764,595.46 240.038,602.961C240.869,625.676 244.442,657.456 255.161,677.608C259.792,672.552 263.506,668.43 269.848,665.51C271.906,672.137 271.142,677.815 271.702,684.674C272.119,689.786 272.759,694.717 273.486,699.783C242.706,716.946 219.68,730.929 190.193,750.379C217.317,760.771 245.604,767.773 273.466,775.861C276.921,776.864 280.506,777.765 283.903,778.927C291.467,791.108 298.848,803.313 307.163,815.001C308.96,817.527 310.852,820.196 312.534,822.795C304.889,850.244 296.583,874.136 287.688,901.026C316.296,891.618 347.565,879.389 375.822,868.486C397.958,878.094 417.468,886.694 441.336,891.711C452.425,894.042 462.692,895.372 473.893,897.025C480.833,909.137 486.808,924.684 492.853,937.51C499.363,951.324 504.615,966.099 512.47,979.349C520.484,962.607 528.322,945.781 535.984,928.875C540.374,919.276 545.882,906.238 550.81,897.259C573.186,893.945 590.25,891.051 611.783,883.411C623.932,879.101 635.909,873.704 647.82,869.605C668.899,876.834 689.87,884.373 710.726,892.22C718.665,895.163 729.712,898.719 737.192,901.929C729.654,882.776 720.925,855.401 714.535,835.737C713.407,831.956 711.738,826.925 710.85,823.186C719.438,811.171 727.982,799.547 735.288,786.68C736.657,784.269 738.223,781.529 739.735,779.222L833.791,750.246C809.856,732.59 780.793,716.807 755.053,701.818C753.884,701.138 751.687,699.89 751.667,698.623C751.583,693.35 753.088,687.159 753.654,681.89C754.165,677.129 752.774,670.492 754.694,666.614C758.476,664.602 767.247,674.81 769.497,677.686C780.599,654.866 784.126,626.831 784.534,601.666C784.669,593.348 785.075,588.339 784.06,579.975C791.665,581.394 799.501,583.417 807.049,585.253C796.633,548.082 783.941,513.061 771.829,476.51C764.858,455.473 758.386,431.512 752.44,409.972C776.8,389.745 801.19,366.068 804.035,332.719C805.065,320.646 804.581,306.463 802.911,294.434C802.196,289.286 800.147,280.635 800.277,275.874C800.408,271.118 803.174,262.725 804.157,257.553C806.353,246.006 807.677,234.31 808.147,222.566C808.492,213.494 808.407,204.411 807.894,195.347C805.509,158.84 792.071,62.286 769.084,34.702C765.305,30.166 760.819,27.355 754.855,26.798C742.824,25.675 729.082,33.956 720.308,41.587C712.315,48.539 705.373,57.306 698.502,65.351C678.42,89.04 659.881,113.995 643,140.062C626.502,165.382 611.319,192.104 595.213,217.712C592.536,221.969 589.796,226.56 587.342,230.947C561.785,227.498 539.18,229.918 513.676,231.299C509.089,231.548 503.175,230.191 498.479,230.184C480.157,229.8 455.325,226.995 437.585,230.505C403.483,175.931 372.881,119.265 330.952,70.021C315.841,52.274 302.356,33.988 278.299,27.494C274.607,26.497 270.204,26.585 266.395,26.944ZM712.648,723.224L713.022,723.585C713.555,725.594 712.343,746.385 712.35,750.231C702.669,764.018 688.609,777.798 676.485,789.527C676.068,789.93 656.071,796.368 651.766,799.527C646.413,803.455 639.199,810.811 634.333,814.018C623.961,820.853 607.715,825.017 595.835,829.107C577.143,834.338 553.095,838.855 533.747,838.81C528.302,838.798 519.375,835.533 511.34,835.445C503.16,834.659 496.403,839.478 488.501,839.21C456.025,838.106 421.794,830.054 392.282,816.539C386.296,813.797 380.634,803.431 373.785,799.899C364.987,795.362 357.368,793.629 348.469,789.906C341.358,784.951 313.912,756.304 311.884,748.858C312.062,740.712 311.377,732.455 311.271,724.22C315.57,728.917 321.458,737.412 325.974,742.842C338.865,758.618 353.815,772.592 370.423,784.392C425.496,823.478 510.285,824.813 574.964,814.948C636.875,805.505 677.287,773.691 712.648,723.224Z" style="fill:rgb(196,12,0);"/>
    </g>
</svg>
