<?xml version="1.0" encoding="UTF-8" standalone="no"?>
<!DOCTYPE svg PUBLIC "-//W3C//DTD SVG 1.1//EN" "http://www.w3.org/Graphics/SVG/1.1/DTD/svg11.dtd">
<svg width="100%" height="100%" viewBox="0 0 888 1129" version="1.1" xmlns="http://www.w3.org/2000/svg" xmlns:xlink="http://www.w3.org/1999/xlink" xml:space="preserve" xmlns:serif="http://www.serif.com/" style="fill-rule:evenodd;clip-rule:evenodd;stroke-linejoin:round;stroke-miterlimit:2;">
    <g transform="matrix(1,0,0,1,-68.7654,-209.006)">
        <path d="M670.573,241.285C676.527,234.208 684.836,228.632 693.76,226.11C710.498,221.378 726.996,235.444 740.138,244.329C772.997,266.544 804.566,289.489 842.647,302.165C865.092,309.636 889.502,309.918 910.297,321.999C923.764,329.823 933.734,341.873 937.621,356.995C949.294,402.41 917.127,476.643 914.339,524.879C913.105,546.22 922.415,594.335 912.438,610.61C908.394,617.207 900.871,621.191 893.511,622.816C870.962,627.794 848.887,619.406 830.22,607.392C832.62,632.796 837.634,651.858 844.296,676.312C850.393,698.689 861.382,725.872 862.323,748.617C863.256,771.155 852.5,785.075 837.825,800.11C847.596,829.497 859.52,851.212 860.535,883.111C879.838,903.184 899.108,924.403 918.082,944.835C897.585,946.602 871.645,949.224 852.123,954.628C847.79,968.363 843.123,976.785 835.976,989.17C845.826,1009.96 859.51,1035.49 870.506,1055.95C848.305,1052.59 817.797,1047.42 795.853,1046.1C783.203,1058.61 769.778,1070.3 755.659,1081.12C758.118,1102.83 758.29,1128.58 760.594,1151.42C736.511,1140.48 712.344,1129.72 688.097,1119.14C653.851,1134.36 617.923,1145.47 581.064,1152.25C576.826,1161.22 573.868,1164.2 567.411,1171.52L562.222,1176.84C566.941,1181.29 576.009,1189.49 579.231,1194.82C579.047,1265.84 570.293,1278.74 511.635,1318.08C496.694,1308.03 484.485,1299.34 471.408,1286.33C445.697,1260.75 446.633,1234.31 445.753,1201.05C445.485,1190.95 455.2,1183.69 462.382,1176.69C453.436,1167.86 448.899,1162.52 442.718,1151.58C411.531,1148.2 365.365,1131.47 335.841,1118.92C313.266,1128.4 286.858,1141.34 264.252,1151.63C266.666,1132.94 267.99,1099.72 268.783,1080.41C255.676,1071.14 240.205,1056.87 228.256,1046.05C204.421,1048.38 177.927,1053.04 154.102,1056.74C165.783,1034.43 177.287,1012.01 188.611,989.512C181.05,976.978 177.459,968.173 172.75,954.498C152.788,949.074 128.153,947.05 107.181,944.73C124.809,924.492 145.807,902.832 164.278,883.024C165.902,850.315 174.334,830.449 187.503,800.416C140.842,758.898 170.376,719.781 181.774,670.294C186.84,648.298 191.264,629.975 194.398,607.384C189.162,610.82 183.665,613.84 177.957,616.417C162.245,623.388 141.307,627.521 124.875,621.019C118.441,618.473 112.778,613.797 110.071,607.321C102.589,589.424 111.575,544.882 109.883,522.341C106.367,475.526 71.766,390.297 89.809,348.321C94.835,336.63 104.771,327.349 115.761,321.228C132.377,311.975 150.703,310.801 168.761,306.211C183.536,302.456 197.88,296.626 211.562,289.961C234.493,278.791 255.468,263.786 276.5,249.471C289.204,240.825 302.425,230.713 316.794,225.112C332.387,224.22 343.895,229.482 353.914,241.33C401.934,227.649 466.143,225.794 513.094,244.534C559.801,224.837 622.4,228.797 670.573,241.285Z" style="fill:rgb(22,21,16);"/>
        <path d="M584.496,1176.29C587.968,1179.94 591.162,1183.63 592.924,1186.54L595.243,1190.38L595.231,1194.86C595.129,1234.19 591.887,1257.3 581.316,1276.15C570.827,1294.86 552.783,1309.75 520.547,1331.37L511.622,1337.35L502.705,1331.36C486.876,1320.71 473.978,1311.46 460.123,1297.67C430.999,1268.7 430.755,1239.15 429.759,1201.47C429.559,1193.94 432.013,1187.15 436.275,1181.01C437.406,1179.38 438.694,1177.8 440.072,1176.26C437.541,1173.2 435.266,1170.06 432.929,1166.39C403.223,1161.61 364.017,1147.86 335.905,1136.29C314.914,1145.38 291.333,1156.88 270.881,1166.19L244.699,1178.11L248.384,1149.58C250.428,1133.75 251.653,1107.3 252.45,1088.18C242.579,1080.49 232.018,1071.04 222.818,1062.71C201.161,1065.17 177.787,1069.25 156.557,1072.55L125.215,1077.42L139.927,1049.32C150.238,1029.62 160.411,1009.85 170.443,990.004C166.395,982.558 163.502,975.906 160.573,968.005C143.018,964.212 122.894,962.566 105.422,960.633L75.038,957.272L95.116,934.221C111.626,915.266 131.069,895.068 148.67,876.291C150.786,848.476 157.705,829.133 168.423,804.17C142.84,776.871 142.755,750.227 149.906,721.636C154.21,704.432 161.647,686.395 166.182,666.703C168.734,655.625 171.124,645.5 173.262,635.268C155.83,640.782 135.533,642.443 118.988,635.897C108.589,631.782 99.684,623.959 95.309,613.492C91.652,604.744 90.615,590.845 91.275,575.482C92.056,557.282 94.908,536.592 93.928,523.539C91.846,495.822 78.61,454.482 72.289,416.879C67.436,388.006 66.907,361.085 75.11,342.002C81.517,327.097 93.964,315.054 107.976,307.249C125.834,297.305 145.413,295.637 164.82,290.704C178.541,287.217 191.849,281.767 204.555,275.577C226.795,264.743 247.099,250.128 267.498,236.244C281.173,226.937 295.515,216.234 310.983,210.205L313.347,209.283L315.88,209.138C333.318,208.141 347.003,212.778 358.88,223.469C406.653,211.773 466.666,210.962 512.944,227.384C559.03,210.211 617.845,212.644 665.65,223.615C672.554,217.703 680.774,213.153 689.408,210.713C699.592,207.834 709.75,209.144 719.514,213.081C730.179,217.381 740.365,225.169 749.099,231.074C780.744,252.468 811.027,274.776 847.7,286.984C871.178,294.799 896.583,295.527 918.335,308.164C935.549,318.166 948.149,333.682 953.117,353.012C958.294,373.151 956.155,398.417 950.974,424.891C944.107,459.974 931.951,497.455 930.312,525.803C929.453,540.661 933.763,568.567 933.005,589.527C932.558,601.866 930.168,612.301 926.079,618.972C919.789,629.232 908.407,635.912 896.96,638.44C881.074,641.947 865.323,640.132 850.509,635.097C852.967,647.137 856.105,658.787 859.733,672.106C866.123,695.556 877.323,724.12 878.309,747.955C879.298,771.838 870.217,788.115 856.093,803.999C864.92,828.774 874.161,849.237 876.193,876.327C894.179,895.179 912.121,914.903 929.806,933.947L952.107,957.961L919.456,960.776C902.553,962.233 881.767,964.232 864.396,968.071C861.415,975.915 858.142,982.424 854.036,989.787C863.341,1008.78 875.007,1030.53 884.6,1048.38L899.746,1076.56L868.112,1071.77C848.595,1068.82 822.537,1064.41 801.844,1062.59C792.428,1071.6 782.616,1080.17 772.439,1088.31C774.11,1107.98 774.513,1129.99 776.513,1149.81L779.305,1177.49L753.977,1165.99C732.082,1156.04 710.118,1146.25 688.087,1136.6C657.052,1149.86 624.733,1159.88 591.643,1166.51C589.466,1170.18 587.296,1173.01 584.496,1176.29ZM670.573,241.285C622.4,228.797 559.801,224.837 513.094,244.534C466.143,225.794 401.934,227.649 353.914,241.33C343.895,229.482 332.387,224.22 316.794,225.112C302.425,230.713 289.204,240.825 276.5,249.471C255.468,263.786 234.493,278.791 211.562,289.961C197.88,296.626 183.536,302.456 168.761,306.211C150.703,310.801 132.377,311.975 115.761,321.228C104.771,327.349 94.835,336.63 89.809,348.321C71.766,390.297 106.367,475.526 109.883,522.341C111.575,544.882 102.589,589.424 110.071,607.321C112.778,613.797 118.441,618.473 124.875,621.019C141.307,627.521 162.245,623.388 177.957,616.417C183.665,613.84 189.162,610.82 194.398,607.384C191.264,629.975 186.84,648.298 181.774,670.294C170.376,719.781 140.842,758.898 187.503,800.416C174.334,830.449 165.902,850.315 164.278,883.024C145.807,902.832 124.809,924.492 107.181,944.73C128.153,947.05 152.788,949.074 172.75,954.498C177.459,968.173 181.05,976.978 188.611,989.512C177.287,1012.01 165.783,1034.43 154.102,1056.74C177.927,1053.04 204.421,1048.38 228.256,1046.05C240.205,1056.87 255.676,1071.14 268.783,1080.41C267.99,1099.72 266.666,1132.94 264.252,1151.63C286.858,1141.34 313.266,1128.4 335.841,1118.92C365.365,1131.47 411.531,1148.2 442.718,1151.58C448.899,1162.52 453.436,1167.86 462.382,1176.69C455.2,1183.69 445.485,1190.95 445.753,1201.05C446.633,1234.31 445.697,1260.75 471.408,1286.33C484.485,1299.34 496.694,1308.03 511.635,1318.08C570.293,1278.74 579.047,1265.84 579.231,1194.82C576.009,1189.49 566.941,1181.29 562.222,1176.84L567.411,1171.52C573.868,1164.2 576.826,1161.22 581.064,1152.25C617.923,1145.47 653.851,1134.36 688.097,1119.14C712.344,1129.72 736.511,1140.48 760.594,1151.42C758.29,1128.58 758.118,1102.83 755.659,1081.12C769.778,1070.3 783.203,1058.61 795.853,1046.1C817.797,1047.42 848.305,1052.59 870.506,1055.95C859.51,1035.49 845.826,1009.96 835.976,989.17C843.123,976.785 847.79,968.363 852.123,954.628C871.645,949.224 897.585,946.602 918.082,944.835C899.108,924.403 879.838,903.184 860.535,883.111C859.52,851.212 847.596,829.497 837.825,800.11C852.5,785.075 863.256,771.155 862.323,748.617C861.382,725.872 850.393,698.689 844.296,676.312C837.634,651.858 832.62,632.796 830.22,607.392C848.887,619.406 870.962,627.794 893.511,622.816C900.871,621.191 908.394,617.207 912.438,610.61C922.415,594.335 913.105,546.22 914.339,524.879C917.127,476.643 949.294,402.41 937.621,356.995C933.734,341.873 923.764,329.823 910.297,321.999C889.502,309.918 865.092,309.636 842.647,302.165C804.566,289.489 772.997,266.544 740.138,244.329C726.996,235.444 710.498,221.378 693.76,226.11C684.836,228.632 676.527,234.208 670.573,241.285ZM499.107,814.814C532.07,814.421 563.491,812.738 582.726,845.182C589.258,856.2 590.814,865.246 592.296,877.56C573.583,865.993 572.585,868.901 556.002,878.095C550.571,881.105 532.532,883.96 526.042,884.853C496.548,887.272 478.604,884.191 453.029,869.337C443.296,871.478 440.555,872.991 432.157,877.838C434.363,860.972 437.002,847.98 449.067,834.869C464.452,818.152 477.958,815.842 499.107,814.814ZM263.845,554.904L264.409,555.632C261.668,576.071 258.572,593.235 260.968,614.133C262.564,628.047 265.937,641.507 269.724,654.959C278.123,684.797 279.274,703.781 273.08,733.782C270.302,731.164 266.171,726.382 263.463,723.445C246.985,704.05 241.91,682.942 238.182,658.222C232.323,621.726 241.589,584.419 263.845,554.904ZM759.661,555.439C759.848,555.551 760.381,555.848 760.582,556.089C786.594,587.249 793.658,630.674 784.351,669.555C779.275,690.76 775.638,704.942 762.104,721.939C759.119,725.773 754.622,730.506 751.3,734.209C745.987,704.869 747.064,680.381 756.101,651.922C767.038,617.474 765.858,590.872 759.661,555.439ZM502.737,772.041C516.466,769.995 538.735,772.983 550.851,779.392C573.572,791.411 578.141,804.113 585.628,826.065C583.455,822.893 581.147,819.816 578.708,816.844C563.141,798.208 546.432,792.223 523.06,790.014C489.044,786.636 457.416,795.49 440.653,827.66C449.157,792.328 465.493,776.131 502.737,772.041ZM548.497,628.769C556.86,628.626 558.96,637.07 565.071,641.864C567.322,643.631 569.401,645.173 571.776,646.759C567.683,649.049 564.569,650.352 560.29,652.147C537.481,656.437 530.595,631.684 548.497,628.769ZM674.163,479.009C681.907,482.807 689.99,488.795 696.797,494.077C696.377,495.335 695.943,496.589 695.494,497.837C684.898,527.115 657.61,537.939 629.065,527.351C621.519,523.798 617.749,521.256 611.539,515.988L617.832,508.199L618.551,508.841C637.123,525.299 667.533,519.112 674.044,493.724C675.268,488.954 674.568,483.899 674.163,479.009ZM349.195,479.976C350.947,480.851 349.379,487.82 350.064,490.537C350.461,492.98 350.459,496.122 351.515,498.361C362.504,521.659 387.98,522.726 405.865,507.715L412.001,516.208C406.185,521.391 402.424,523.629 395.613,527.047C393.609,527.849 391.587,528.606 389.549,529.318C377.72,533.293 364.785,532.301 353.7,526.569C339.523,519.363 332.843,508.439 328.006,493.988C333.992,489.409 342.7,483.747 349.195,479.976ZM591.468,394.632C605.747,393.82 609.033,394.511 622.513,399.19C603.878,404.378 595.396,412.324 590.183,431.035C588.521,437.003 586.746,443.053 583.546,448.359L583.029,449.207C578.882,453.698 572.534,457.46 566.632,453.486C553.358,444.546 556.12,424.178 563.852,412.468C570.957,401.706 579.175,397.17 591.468,394.632ZM706.28,852.553C706.326,852.704 706.371,852.855 706.417,853.006C704.168,883.338 674.894,926.231 643.828,906.349C641.069,902.626 639.808,899.097 638.363,894.757C669.996,897.562 691.132,877.707 706.28,852.553ZM317.028,852.474C319.168,854.549 322.217,859.762 324.216,862.403C339.868,883.085 359.766,896.489 386.387,894.889C385.116,899.57 384.191,901.552 381.651,905.614C371.538,913.817 358.504,912.948 348.02,906.032C329.897,894.076 321.515,872.622 317.028,852.474ZM471.931,628.724C475.956,628.699 479.714,628.438 482.997,631.134C485.174,632.912 486.524,635.506 486.73,638.308C487.428,648.212 478.244,652.915 469.612,653.075C463.299,652.068 459.028,649.522 453.499,646.551C461.853,640.419 465.076,636.417 471.931,628.724ZM587.665,569.027C594.225,569.78 603.619,573.403 609.632,576.382C642.762,592.793 664.821,624.918 676.58,659.063C676.824,638.319 676.19,624.314 670.765,604.285C701.577,626.192 718.486,647.827 730.178,684.192C743.658,726.116 740.669,765.917 719.747,804.623C715.699,775.231 710.259,747.369 692.994,722.593C692.977,730.611 693.817,740.191 694.337,748.314C695.3,758.157 695,778.715 694.68,788.103C693.906,802.993 692.499,829.083 679.618,838.935C642.439,866.723 617.954,819.751 602.573,792.621C591.967,774.724 582.177,757.579 563.717,746.857C549.001,738.31 524.421,739.554 527.275,716.972C531.968,679.83 588.53,687.555 591.396,647.778C623.651,628.747 608.655,590.774 587.665,569.027ZM625.693,720.359C622.891,721.147 620.739,723.397 620.078,726.232C619.417,729.067 620.35,732.036 622.515,733.983C624.679,735.929 627.732,736.544 630.481,735.588C634.559,734.169 636.771,729.769 635.476,725.651C634.182,721.534 629.849,719.19 625.693,720.359ZM612.46,683.471C609.364,684.24 606.957,686.675 606.225,689.779C605.494,692.884 606.56,696.137 608.988,698.206C611.416,700.276 614.797,700.814 617.748,699.601C621.872,697.906 623.988,693.316 622.599,689.08C621.211,684.844 616.788,682.397 612.46,683.471ZM633.953,653.958C624.781,659.872 627.329,666.112 637.373,668.229C646.32,662.175 644.596,655.138 633.953,653.958ZM653.435,685.116C648.71,686.058 645.636,690.642 646.558,695.37C647.481,700.097 652.052,703.19 656.785,702.287C661.546,701.379 664.661,696.776 663.733,692.02C662.805,687.264 658.188,684.169 653.435,685.116ZM658.906,731.565C654.727,733.121 652.558,737.731 654.024,741.941C655.489,746.152 660.051,748.421 664.294,747.048C667.122,746.134 669.234,743.76 669.813,740.845C670.392,737.93 669.348,734.93 667.085,733.004C664.821,731.078 661.692,730.527 658.906,731.565ZM434.579,569.325L435.384,569.436C435.327,570.447 427.194,579.464 425.715,581.751C411.842,603.199 407.241,633.311 432.961,647.202C438.578,680.685 471.615,680.54 489.294,698.763C494.634,704.326 497.518,711.798 497.3,719.504C496.689,736.893 479.705,738.284 467.227,743.717C428.485,760.589 421.596,809.42 392.26,836.446C379.725,849.328 354.289,851.5 342.135,836.713C327.142,818.475 328.519,775.992 329.953,753.937C330.166,744.372 331.153,732.91 331.647,723.193C314.229,744.632 307.239,777.795 304.563,804.523C267.358,735.605 289.069,648.587 353.494,604.397C348.288,623.12 347.92,639.224 348.172,658.327C351.63,649.081 355.736,640.09 360.459,631.421C377.41,600.896 400.531,579.081 434.579,569.325ZM407.854,683.639C403.526,685.302 401.38,690.171 403.073,694.487C404.766,698.803 409.65,700.915 413.956,699.193C418.22,697.488 420.308,692.661 418.631,688.387C416.955,684.112 412.141,681.992 407.854,683.639ZM367.498,685.593C358.127,692.616 360.984,704.619 373.116,702.918C382.538,695.56 379.859,684.883 367.498,685.593ZM359.021,731.934C356.317,733.202 354.511,735.834 354.303,738.813C354.095,741.792 355.517,744.649 358.019,746.28C360.521,747.911 363.711,748.059 366.353,746.667C370.309,744.582 371.877,739.722 369.885,735.72C367.893,731.718 363.07,730.037 359.021,731.934ZM394.585,720.275C390.321,721.409 387.788,725.788 388.932,730.048C390.076,734.308 394.463,736.83 398.721,735.676C402.964,734.525 405.476,730.158 404.336,725.913C403.196,721.668 398.834,719.146 394.585,720.275ZM387.801,653.901C378.631,659.168 380.507,667.295 390.57,668.091C394.631,665.64 397.975,663.571 396.249,658.212C393.914,654.987 391.626,654.466 387.801,653.901ZM741.438,1118.82C741.713,1119.55 741.58,1119.3 741.435,1120.24C737.185,1119.23 691.91,1085.84 684.887,1080.81C687.228,1072.16 688.542,1070.21 694.664,1063.62C704.112,1056.48 713.756,1052.62 724.69,1048.28C729.933,1069.46 737.498,1097.71 741.438,1118.82ZM330.341,1064.06C336.214,1069.88 338.165,1072.79 340.191,1080.85C335.56,1084.1 285.368,1119.94 283.634,1119.82L283.946,1118.11C289.182,1094.77 294.694,1071.49 300.481,1048.27C311.9,1052.63 320.666,1056.46 330.341,1064.06ZM883.835,931.683C872.796,930.881 860.007,928.867 848.357,927.873C849.505,924.881 850.711,920.63 851.702,917.481C853.011,912.678 854.267,907.86 855.469,903.029C860.386,907.532 883.894,927.925 886.338,931.823C885.77,931.796 884.311,931.768 883.835,931.683ZM417.658,930.805C417.776,930.994 417.894,931.183 418.012,931.371C426.145,955.516 427.143,985.503 418.752,1008.9C412.443,995.514 408.687,990.616 399.006,979.847C386.64,967.141 375.651,959.509 361.253,949.564C384.29,947.924 399.121,946.72 417.658,930.805ZM418.227,394.695C428.772,393.902 437.112,393.952 446.701,399.113C456.44,404.368 463.641,413.335 466.67,423.977C470.498,437.329 467.332,451.245 452.643,455.27C425.595,449.68 447.923,412.389 401.329,399.221C407.613,397.195 411.709,395.798 418.227,394.695ZM606.499,931.109C628.101,945.519 635.331,948.682 662.454,949.525C648.316,958.919 638.843,965.976 626.827,977.807C616.015,989.059 612.711,995.74 605.353,1009.26C598.375,983.19 599.955,957.041 606.499,931.109ZM846.067,1035.82C840.377,1034.65 829.012,1030.23 823.192,1028.12C810.685,1023.52 798.137,1019.03 785.547,1014.67C787.35,1009.97 789.188,1005.78 791.226,1001.21C795.77,993.097 798.069,990.372 804.607,984.127C817.983,1000.24 833.819,1018.18 846.301,1034.63C846.255,1034.96 846.217,1035.6 846.067,1035.82ZM178.875,1035.01C186.124,1023.81 210.448,996.096 220.152,984.491C227.364,990.651 229.15,993.654 233.978,1001.55C236.143,1005.7 238.378,1009.82 240.175,1014.14C233.63,1016.53 180.724,1036.1 178.912,1035.65L178.875,1035.01ZM140.917,931.745C139.83,931.95 140.395,931.989 139.237,931.494C141.173,928.448 165.652,906.815 169.755,903.112C170.628,907.682 172.38,913.661 173.586,918.269C174.342,921.355 175.067,924.516 175.962,927.559C167.355,928.671 148.944,931.503 140.917,931.745Z" style="fill:rgb(167,78,255);"/>
        <path d="M542.509,1187.42C545.189,1188.42 556.533,1200.89 559.266,1203.77C558.471,1258.64 554.572,1263 511.333,1294.9C505.336,1290.04 499.422,1285.08 493.593,1280.03C465.135,1254.25 466.133,1240.38 465.802,1204.42C470.089,1199.87 478.078,1192.48 482.919,1188.65C502.934,1193.48 522.676,1192.39 542.509,1187.42ZM537.517,1199.54C517.702,1202.4 503.622,1203.2 483.692,1200.72C480.675,1203.01 479.608,1203.9 477.025,1206.66C477.315,1226.49 476.179,1247.26 491.37,1262.02C493.519,1264.09 495.694,1266.14 497.895,1268.16C502.286,1272.07 507.856,1276.79 511.956,1280.84C546.105,1252.02 547.31,1253.23 547.831,1208.22C545.543,1205.48 542.447,1201.42 539.651,1199.46L537.517,1199.54ZM829.236,848.028C831.11,849.472 832.281,855.825 832.608,858.144C836.347,884.662 823.768,915.323 807.765,936.241C767.098,989.395 702.266,1027.44 638.807,1046.62C614.373,1054.01 590.382,1057.83 565.528,1061.54L558.22,1056.92L548.164,1050.11C559.037,1050.14 576.404,1047.7 587.063,1045.89C643.381,1036.69 696.599,1013.88 742.1,979.442C787.103,945.551 821.157,904.96 829.236,848.028ZM195.262,847.226C197.549,852.768 197.875,863.737 200.137,870.736C234.995,978.559 370.071,1045.87 476.329,1050.06L468.179,1055.15L458.51,1061.38C430.677,1056.47 406.819,1053.42 378.884,1044.24C312.357,1022.38 238.413,978.445 204.164,915.235C193.208,895.013 188.182,869.339 195.262,847.226ZM504.059,1062.98C521.95,1060.03 541.411,1066.98 553.757,1080.13C564.014,1091.14 569.394,1105.83 568.682,1120.87C568.228,1132.83 559.476,1162.91 544.179,1161.85C539.942,1159.91 536.706,1155.14 534.071,1151.41C541.261,1144.9 546.326,1138.71 548.821,1129.05C551.388,1119.15 549.924,1108.64 544.749,1099.81C538.597,1089.45 530.334,1084.61 519.063,1081.62C518.089,1081.55 517.113,1081.49 516.137,1081.44C505.097,1080.9 495.017,1083.4 486.696,1091.05C479.332,1097.91 475.084,1107.48 474.935,1117.54C474.594,1132.36 481.33,1141.51 490.999,1151.44C487.208,1157.2 483.961,1159.43 478.549,1163.46C477.842,1163 477.141,1162.53 476.446,1162.05C464.966,1154.11 459.09,1142.38 456.711,1128.85C450.934,1096.01 471.678,1068.3 504.059,1062.98ZM504.551,1142.59L522.095,1142.63C522.276,1147.52 522.697,1170.52 521.615,1173.9L520.047,1174.38L502.482,1174.33C502.644,1165.35 501.51,1154.38 502.446,1145.33C502.639,1143.47 503.27,1143.37 504.551,1142.59Z" style="fill:rgb(88,153,255);"/>
        <path d="M694.664,1063.62C704.112,1056.48 713.756,1052.62 724.69,1048.28C729.933,1069.46 737.498,1097.71 741.438,1118.82C736.065,1115.26 700.154,1070.76 694.664,1063.62ZM283.946,1118.11C289.182,1094.77 294.694,1071.49 300.481,1048.27C311.9,1052.63 320.666,1056.46 330.341,1064.06C326.177,1069.01 286.121,1117.23 283.946,1118.11ZM791.226,1001.21C795.77,993.097 798.069,990.372 804.607,984.127C817.983,1000.24 833.819,1018.18 846.301,1034.63C846.255,1034.96 846.217,1035.6 846.067,1035.82C842.828,1032.83 831.203,1025.9 826.885,1023.24C814.951,1015.97 803.065,1008.63 791.226,1001.21ZM178.875,1035.01C186.124,1023.81 210.448,996.096 220.152,984.491C227.364,990.651 229.15,993.654 233.978,1001.55C227.211,1005.61 180.593,1034.62 178.875,1035.01ZM851.702,917.481C853.011,912.678 854.267,907.86 855.469,903.029C860.386,907.532 883.894,927.925 886.338,931.823C885.77,931.796 884.311,931.768 883.835,931.683C877.83,927.984 854.676,921.049 851.702,917.481ZM140.917,931.745C139.83,931.95 140.395,931.989 139.237,931.494C141.173,928.448 165.652,906.815 169.755,903.112C170.628,907.682 172.38,913.661 173.586,918.269C164.126,922.205 149.664,927.6 140.917,931.745Z" style="fill:white;fill-opacity:0.5;"/>
        <path d="M371.718,474.815L372.258,474.778C378.861,474.386 388.606,474.986 393.787,479.537C395.898,484.302 392.659,486.403 388.95,489.091C386.147,489.691 383.567,490.265 380.683,490.072C372.672,489.536 359.928,481.935 371.718,474.815ZM642.868,474.935C647.542,474.554 656.113,473.502 656.387,479.863C656.705,487.236 648.526,489.555 643.326,490.323C642.352,490.295 641.379,490.23 640.411,490.126C636.284,489.664 632.925,488.502 630.273,485.165C628.356,477.349 637.225,476.271 642.868,474.935Z" style="fill:rgb(255,250,238);"/>
        <path d="M263.856,362.266L264.371,362.66C257.24,383.844 250.69,402.756 245.849,424.769C231.976,487.844 229.835,597.304 142.705,600.846L142.313,600.563C142.449,599.902 157.99,589.839 159.965,588.457C207.209,555.379 212.256,502.192 226.165,450.259C234.639,418.616 245.746,391.848 263.856,362.266ZM759.621,362.005C761.416,363.648 767.344,373.863 768.813,376.58C781.898,400.784 791.966,430.074 799.374,456.675C803.842,472.718 806.89,490.553 811.444,506.891C824.22,552.721 842.675,577.194 883.591,600.547C872.866,601.475 857.84,597.436 848.338,592.869C811.976,574.581 797.288,525.564 790.023,488.648C784.356,459.853 781.32,431.823 772.929,403.547C768.721,389.371 764.314,375.926 759.621,362.005ZM278.888,279.85C278.832,280.752 249.091,316.423 245.361,321.391C223.016,351.154 206.607,383.106 190.906,416.606C186.075,426.916 180.552,441.278 175.082,450.124C169.802,393.079 191.91,337.174 239.78,303.713C252.294,294.965 266.124,288.668 278.888,279.85ZM745.513,280.354C750.234,281.993 756.893,288.107 761.63,290.475C824.847,322.076 853.036,379.499 849.124,449.4C848.799,449.368 848.475,449.336 848.15,449.304C845.76,443.668 837.925,426.9 835.948,422.668C821.483,391.704 806.709,361.259 787.431,333C774.593,314.181 760.211,297.608 745.513,280.354ZM503.257,568.064C535.418,563.453 598.798,581.494 584.533,624.859C569.553,585.554 559.039,585.075 521.221,593.337C497.395,596.565 484.398,583.646 464.091,590.783C451.334,595.267 444.178,613.947 439.54,625.622C430.041,584.773 470.769,570.883 503.257,568.064ZM509.483,526.841C537.041,527.182 562.89,533.304 585.529,549.687C563.018,546.551 536.377,542.624 513.986,542.278C490.573,542.195 460.735,546.929 437.119,550.177C459.774,534.464 482.111,527.962 509.483,526.841ZM355.966,425.407C378.524,422.596 389.719,431.231 402.362,448.389C385.83,442.722 369.844,441.383 352.476,441.734C337.049,442.906 325.48,446.843 312.6,455.239C313.293,454.093 314.016,452.964 314.767,451.855C325.101,436.626 337.999,428.787 355.966,425.407ZM652.777,425.375C676.517,423.595 696.875,433.353 709.43,453.667C700.791,447.618 693.223,445.515 683.247,443.233C661.092,439.644 642.319,441.866 621.22,449.162L621.749,448.295C629.484,435.873 638.471,428.517 652.777,425.375ZM485.141,402.555C490.512,406.885 498.596,424.061 499.976,430.997C502.783,445.119 498.764,453.573 491.555,465.069C490.329,466.802 489.732,467.493 488.279,469.049L487.357,468.898C487.144,465.618 489.364,457.396 490.096,453.806C494.503,432.214 492.265,422.459 485.141,402.555ZM539.139,404.122C539.649,407.024 533.708,419.346 533.205,425.01C531.878,439.952 534.046,454.737 536.791,469.36C535.525,468.087 533.919,465.932 532.759,464.473C517.818,441.812 522.529,424.261 539.139,404.122ZM511.894,642.525L512.752,643.38C516.314,657.879 514.468,680.02 512.845,694.701C507.794,688.227 510.872,651.495 511.894,642.525Z" style="fill:white;fill-opacity:0.25;"/>
    </g>
</svg>
