<?xml version="1.0" encoding="UTF-8" standalone="no"?>
<!DOCTYPE svg PUBLIC "-//W3C//DTD SVG 1.1//EN" "http://www.w3.org/Graphics/SVG/1.1/DTD/svg11.dtd">
<svg width="100%" height="100%" viewBox="0 0 817 845" version="1.1" xmlns="http://www.w3.org/2000/svg" xmlns:xlink="http://www.w3.org/1999/xlink" xml:space="preserve" xmlns:serif="http://www.serif.com/" style="fill-rule:evenodd;clip-rule:evenodd;stroke-linejoin:round;stroke-miterlimit:2;">
    <g transform="matrix(1,0,0,1,-102.814,-102.846)">
        <path d="M307.054,118.202C334.756,115.046 364.57,132.082 384.982,149.205C413.843,139.402 448.326,136.964 478.594,138.641C495.946,139.954 511.21,142.24 528.711,140.262C565.075,136.151 604.425,138.487 639.343,149.207C659.961,131.277 684.874,117.071 713.098,118.087C732.074,118.251 745.724,128.208 761.82,136.19C784.117,146.743 809.148,154.864 833.493,159.061C878.263,166.78 888.927,201.961 886.573,243.259C885.828,256.428 883.388,269.447 879.312,281.991C875.838,292.576 872.068,302.663 868.86,313.436C865.139,325.929 866.84,344.087 856.459,352.849C838.756,367.793 807.448,352.074 795.238,337.071L794.756,336.474C806.799,384.132 824.75,422.933 824.063,472.981C823.488,514.898 815.729,544.233 798.381,582.112C805.536,594.661 811.643,607.781 816.638,621.336C822.737,626.06 833.781,632.806 840.655,637.318L887.445,668.035C862.98,678.72 836.161,689.238 811.364,699.586C802.631,727.257 786.899,752.81 767.442,774.233C776.253,796.305 785.182,818.33 794.227,840.307C769.037,831.444 742.048,822.75 716.532,814.535C705.276,823.397 692.826,829.841 680.129,836.304C637.214,857.659 590.08,869.185 542.152,870.044C532.428,886.669 522.467,903.153 512.271,919.492C501.758,903.285 491.965,886.336 481.58,870.03C418.129,869.488 359.779,850.152 307.092,815.026C282.815,822.375 253.806,832.165 229.754,840.401L255.999,773.717C235.466,747.952 223.319,731.99 212.524,699.989C205.593,696.547 193.607,691.916 186.237,688.811L136.486,667.768C148.046,661.127 162.533,650.818 174.107,643.344C183.872,637.037 198.332,628.113 207.093,621.474C212.788,606.774 218.027,595.741 225.334,581.707C201.076,530.478 192.962,475.273 205.731,419.538C212.125,391.627 222.12,364.611 229.43,336.855C215.475,350.585 187.308,368.161 168.449,353.431C164.938,350.664 162.288,346.956 160.807,342.739C158.421,336.022 157.618,321.863 154.991,312.751C148.754,291.119 140.014,273.97 137.955,251.064C135.838,227.892 137.024,198.621 151.997,179.643C165.67,162.315 190.932,159.47 211.186,154.908C219.01,153.097 226.72,150.826 234.277,148.107C243.653,144.726 252.793,140.725 261.638,136.129C278.759,127.243 286.175,120.322 307.054,118.202Z" style="fill:rgb(1,0,15);"/>
        <path d="M305.415,103.292L305.45,103.288C334.195,100.053 365.229,115.067 388.112,132.508C416.969,124.174 450.06,122.037 479.575,123.672L479.726,123.684C496.104,124.923 510.507,127.224 527.026,125.357C562.674,121.327 601.038,123.232 635.847,132.595C657.988,114.913 684.259,102.102 713.416,103.089C734.684,103.333 750.303,113.724 768.367,122.693C789.429,132.647 813.057,140.317 836.042,144.279C858.293,148.116 873.576,157.754 883.943,170.813C898.517,189.169 903.193,215.257 901.549,244.111C900.731,258.566 898.052,272.857 893.571,286.648L893.564,286.669C890.134,297.121 886.404,307.079 883.236,317.718C881.057,325.034 880.836,334.352 878.777,342.475C876.569,351.186 872.655,358.808 866.134,364.311C855.552,373.244 841.861,375.522 827.9,372.793C825.274,372.28 822.644,371.582 820.038,370.727C830.042,404.087 839.578,435.566 839.062,473.187C838.49,514.828 831.251,544.714 815.131,581.422C820.396,591.282 825.061,601.454 829.1,611.88C835.097,616.094 843.389,621.17 848.886,624.778L918.831,670.696L893.449,681.781C870.957,691.604 846.484,701.288 823.406,710.828C814.773,734.99 801.265,757.522 784.776,777.18C792.462,796.356 800.236,815.495 808.098,834.598L820.847,865.575L789.248,854.457C766.578,846.48 742.443,838.643 719.253,831.169C709.029,838.281 698.086,843.995 686.873,849.703L686.812,849.733C644.431,870.822 598.12,882.751 550.889,884.784C542.433,899.106 533.802,913.323 524.997,927.433L512.516,947.433L499.687,927.655C490.599,913.645 482.047,899.082 473.188,884.857C412.337,882.833 356.034,864.23 304.77,831.425C282.137,838.434 256.34,847.152 234.613,854.592L203.911,865.105C203.911,865.105 238.876,776.265 238.876,776.266C221.588,754.312 210.386,738.153 200.468,710.937C193.967,708.09 185.876,704.936 180.403,702.63L102.814,669.813L129.014,654.761C140.373,648.236 154.596,638.088 165.969,630.743C174.311,625.356 186.19,618.021 194.724,611.944C199.129,600.927 203.398,591.71 208.66,581.332C185.392,528.948 178.135,472.82 191.11,416.188C194.63,400.824 199.229,385.728 203.877,370.631C201.758,371.374 199.625,372.007 197.494,372.511C183.974,375.708 170.527,374.087 159.19,365.232L159.164,365.212C153.417,360.683 149.079,354.613 146.672,347.76C144.216,340.844 143.283,326.288 140.578,316.906C134.063,294.31 125.166,276.334 123.017,252.429C120.578,225.732 122.97,192.217 140.221,170.351C148.905,159.346 161.058,152.609 174.467,148.229C185.46,144.639 197.297,142.659 207.862,140.281C215.089,138.605 222.212,136.506 229.194,133.995C237.941,130.84 246.469,127.107 254.725,122.817L254.728,122.815C273.783,112.926 282.23,105.668 305.415,103.292ZM307.054,118.202C286.175,120.322 278.759,127.243 261.638,136.129C252.793,140.725 243.653,144.726 234.277,148.107C226.72,150.826 219.01,153.097 211.186,154.908C190.932,159.47 165.67,162.315 151.997,179.643C137.024,198.621 135.838,227.892 137.955,251.064C140.014,273.97 148.754,291.119 154.991,312.751C157.618,321.863 158.421,336.022 160.807,342.739C162.288,346.956 164.938,350.664 168.449,353.431C187.308,368.161 215.475,350.585 229.43,336.855C222.12,364.611 212.125,391.627 205.731,419.538C192.962,475.273 201.076,530.478 225.334,581.707C218.027,595.741 212.788,606.774 207.093,621.474C198.332,628.113 183.872,637.037 174.107,643.344C162.533,650.818 148.046,661.127 136.486,667.768L186.237,688.811C193.607,691.916 205.593,696.547 212.524,699.989C223.319,731.99 235.466,747.952 255.999,773.717L229.754,840.401C253.806,832.165 282.815,822.375 307.092,815.026C359.779,850.152 418.129,869.488 481.58,870.03C491.965,886.336 501.758,903.285 512.271,919.492C522.467,903.153 532.428,886.669 542.152,870.044C590.08,869.185 637.214,857.659 680.129,836.304C692.826,829.841 705.276,823.397 716.532,814.535C742.048,822.75 769.037,831.444 794.227,840.307C785.182,818.33 776.253,796.305 767.442,774.233C786.899,752.81 802.631,727.257 811.364,699.586C836.161,689.238 862.98,678.72 887.445,668.035L840.655,637.318C833.781,632.806 822.737,626.06 816.638,621.336C811.643,607.781 805.536,594.661 798.381,582.112C815.729,544.233 823.488,514.898 824.063,472.981C824.75,422.933 806.799,384.132 794.756,336.474L795.238,337.071C807.448,352.074 838.756,367.793 856.459,352.849C866.84,344.087 865.139,325.929 868.86,313.436C872.068,302.663 875.838,292.576 879.312,281.991C883.388,269.447 885.828,256.428 886.573,243.259C888.927,201.961 878.263,166.78 833.493,159.061C809.148,154.864 784.117,146.743 761.82,136.19C745.724,128.208 732.074,118.251 713.098,118.087C684.874,117.071 659.961,131.277 639.343,149.207C604.425,138.487 565.075,136.151 528.711,140.262C511.21,142.24 495.946,139.954 478.594,138.641C448.326,136.964 413.843,139.402 384.982,149.205C364.57,132.082 334.756,115.046 307.054,118.202ZM512.23,807.694C521.221,808.042 526.984,810.198 534.899,814.227C526.516,834.353 520.592,862.061 511.976,881.856C508.517,873.988 505.337,863.673 502.572,855.378L489.057,815.136C497.889,809.607 501.83,808.449 512.23,807.694ZM660.277,343.197C663.283,342.729 669.272,342.92 672.331,342.985C675.118,359.185 675.679,377.527 660.735,388.136C651.016,395.036 642.991,396.245 631.361,395.981C619.361,388.695 609.783,380.972 596.856,373.968L593.188,371.972C601.285,369.698 605.243,368.102 612.598,364.062C612.827,365.536 613.125,366.998 613.506,368.441C615.072,374.371 619.169,379.812 624.601,382.741C629.752,385.519 635.816,386.064 641.373,384.232C646.952,382.339 651.96,377.86 654.57,372.588C656.902,367.877 657.217,362.42 655.421,357.48C653.278,351.753 649.532,348.974 644.268,346.647C650.765,344.401 653.433,343.816 660.277,343.197ZM619.746,537.911C621.45,539.877 624.37,546.216 625.244,548.905C630.027,563.621 629.398,574.489 622.711,588.118C620.916,586.355 619.07,584.611 617.252,582.868C612.488,578.644 607.807,574.328 603.211,569.922C607.83,557.105 611.992,548.872 619.746,537.911ZM403.637,539.293C408.222,544.086 416.531,563.007 419.392,569.869C414.779,573.591 409.918,578.538 405.649,582.725L400.446,588.257C391.862,570.417 392.998,555.959 403.637,539.293ZM793.413,634.626C797.537,636.425 807.075,642.323 811.41,644.852L846.387,665.334C841.881,665.562 837.377,665.828 832.875,666.133C816.76,667.122 800.652,668.238 784.554,669.482C783.986,655.138 786.359,647.187 793.413,634.626ZM351.147,343.018C362.766,342.693 368.975,342.94 379.958,346.518C378.785,346.957 377.508,347.435 376.415,348.041C372.291,350.326 369.319,354.243 368.197,358.823C366.724,364.447 367.649,370.43 370.752,375.346C373.952,380.305 379.017,383.763 384.8,384.938C399.103,387.765 408.809,376.922 411.227,363.779C415.897,366.512 419.753,368.209 424.812,370.016L431.382,372.095C417.99,377.946 404.917,388.212 392.328,395.956C378.601,396.458 366.349,394.004 357.109,382.81C347.863,371.607 349.689,356.475 351.147,343.018ZM292.784,742.261C309.59,745.217 322.226,756.269 330.753,770.508C318.363,777.707 300.622,786.17 287.662,792.834L262.736,805.769C272.796,785.885 283.379,762.578 292.784,742.261ZM225.886,638.443L226.893,638.675C234.04,646.062 236.707,659.059 237.116,669.011C222.864,668.558 207.828,667.198 193.458,666.412C188.577,665.965 182.454,665.805 177.469,665.555L225.886,638.443ZM718.133,741.922C720.012,742.722 748.907,796.426 752.067,802.618C745.98,798.914 738.972,795.149 732.717,791.615C720.084,784.324 700.093,774.059 688.632,766.342C695.95,754.822 705.88,747.482 718.133,741.922Z" style="fill:white;"/>
        <path d="M543.835,163.428C550.876,162.8 557.716,163 564.737,162.898C606.288,162.297 645.967,173.442 678.292,200.541C715.46,231.7 734.157,273.169 745.663,319.477C750.157,337.215 753.277,355.273 754.995,373.491C758.481,414.306 749.312,475.393 715.93,502.292C699.347,469.55 681.961,443.087 655.549,417.118C688.872,403.799 700.895,376.722 692.781,342.194C699.684,342.483 703.805,342.353 710.43,344.446C695.326,323.469 674.815,313.176 648.89,319.112C666.217,293.189 692.481,293.463 718.012,307.316C712.449,301.162 707.824,296.206 701.127,291.224C679.799,275.357 649.09,268.191 627.668,287.948C611.363,302.986 590.211,354.214 562.738,327.719C556.419,321.559 552.709,311.043 553.538,302.429C554.912,283.287 563.206,267.627 576.266,254.04C549.776,268.967 532.542,286.198 523.47,316.212C519.568,329.123 521.934,339.014 527.548,350.919C516.938,350.419 508.388,350.509 497.765,350.951C504.332,334.701 504.964,325.417 498.548,308.839C492.365,292.863 473.286,268.092 458.452,259.862C455.349,257.657 452.209,255.503 449.035,253.402C451.472,256.249 454.029,259.106 456.133,262.199C467.979,282.024 479.919,311.925 458.436,330.007C455.938,332.11 450.585,335.076 447.289,335.019C420.762,334.558 411.018,300.572 393.186,286.116C371.4,268.476 342.1,275.867 321.823,291.469C315.715,296.136 311.444,301.376 306.757,307.116C317.575,301.284 332.543,296.591 344.907,298.482C359.073,300.648 367.109,308.278 375.277,319.261C350.033,312.957 327.945,323.545 313.38,344.341C320.298,342.564 324.108,342.453 331.193,342.188C322.642,375.933 335.607,404.75 368.601,417.146C338.025,446.113 312.495,487.8 297.282,526.982C290.199,545.224 285.476,563.413 280.718,582.351C242.065,521.109 225.736,458.979 253.461,389.123C257.981,405.312 260.234,412.74 270.534,426.416C266.26,411.296 267.782,381.955 269.851,365.966C278.051,302.611 297.596,237.814 349.591,196.644C384.627,168.902 436.417,158.032 480.035,163.288C485.985,163.786 492.451,164.639 498.325,165.742C513.546,168.6 528.307,164.541 543.835,163.428ZM405.457,467.161C415.362,461.073 425.22,458.103 436.718,456.822C437.406,457.844 438.125,458.844 438.885,459.813C445.255,467.937 454.818,474.673 465.338,475.916C478.283,477.446 491.714,465.331 488.468,451.951C487.95,449.814 485.047,446.435 485.18,444.496C491.734,441.282 496.742,448.761 497.016,454.833C497.623,468.258 484.13,474.679 482.556,486.621C480.995,498.467 494.651,502.796 501.461,509.023C505.222,512.665 503.599,528.252 503.204,533.826C479.524,536.517 452.26,542.907 434.007,559.035C427.485,545.211 418.423,526.334 405.078,518.477C380.963,525.162 376.072,556.891 378.096,578.152C379.081,588.498 381.733,597.317 384.872,607.098C375.072,629.805 361.732,667.374 340.188,680.92C329.813,687.444 314.109,677.554 309.512,666.646C293.888,629.572 302.871,585.153 314.496,548.123C335.079,484.925 378.585,420.815 438.957,390.33C477.117,371.146 521.298,367.767 561.932,380.924C619.201,399.967 665.465,452.298 691.679,505.404C712.646,550.08 731.93,606.315 718.503,655.692C715.732,667.989 699.012,688.698 684.679,681.751C662.014,670.766 649.186,629.417 639.044,607.935C645.924,587.264 649.325,566.621 642.425,545.279C639.304,535.626 633.267,524.812 623.792,520.021C621.927,519.078 618.902,518.439 616.99,519.351C604.752,525.187 594.954,546.467 590.162,557.859C572.034,543.821 543.454,534.817 520.707,533.903C519.821,526.29 518.373,513.252 524,507.47C529.158,502.17 535.66,500.303 539.118,493.093C545.324,480.153 532.66,473.777 528.73,463.03C526.107,455.858 527.05,446.511 535.487,443.698C537.239,443.114 537.679,443.343 539.287,444.208C540.041,445.669 539.452,445.695 538.429,447.383C532.944,456.437 535.878,467.44 544.849,472.929C555.177,479.249 567.822,475.124 576.495,467.991C581.034,464.258 583.577,460.517 586.544,455.524C602.224,458.359 613.777,462.842 626.205,472.944C614.868,454.778 611.475,447.08 591.768,436.041C585.396,415.233 572.879,398.715 550.696,393.404C507.335,383.022 446.1,384.338 431.287,436.364C417.218,444.833 410.559,451.671 402.101,465.67L398.423,472.352C400.978,470.193 402.515,468.768 405.457,467.161ZM415.269,485.762C410.673,486.185 407.285,490.245 407.693,494.843C408.101,499.44 412.15,502.841 416.749,502.449C421.369,502.055 424.79,497.982 424.38,493.363C423.971,488.744 419.887,485.337 415.269,485.762ZM376.582,501.891C373.572,502.487 371.119,504.664 370.17,507.583C369.222,510.501 369.925,513.705 372.009,515.957C374.094,518.21 377.233,519.16 380.216,518.44C384.699,517.358 387.494,512.89 386.505,508.386C385.516,503.881 381.106,500.995 376.582,501.891ZM606.453,485.757C601.869,486.575 598.813,490.949 599.622,495.533C600.431,500.118 604.799,503.183 609.385,502.383C613.984,501.58 617.059,497.198 616.248,492.601C615.437,488.003 611.048,484.938 606.453,485.757ZM644.714,501.873C641.685,502.085 639.008,503.92 637.717,506.669C636.425,509.418 636.723,512.65 638.493,515.117C640.264,517.584 643.231,518.9 646.248,518.556C650.775,518.04 654.06,514.001 653.643,509.464C653.226,504.927 649.26,501.554 644.714,501.873ZM505.41,558.218C526.883,556.441 552.064,562.57 570.719,573.189C598.057,588.897 618.135,614.71 626.633,645.073C630.259,658.341 631.992,675.378 624.266,687.461C602.666,721.243 550.858,731.31 517.156,712.021L511.852,708.934C500.034,716.172 486.643,720.444 472.817,721.397C450.597,722.929 428.661,715.681 411.738,701.199C402.258,693.02 394.893,681.601 394.208,668.85C392.882,644.164 405.425,617.473 421.24,599.232C443.1,574.019 472.339,560.488 505.41,558.218ZM504.817,599.184C484.866,602.007 466.023,610.298 453.613,626.721C450.526,630.84 447.865,635.261 445.67,639.917C466.633,625.319 497.604,622.776 522.463,623.583C543.16,625.794 560.635,629.185 579.103,639.854C568.887,620.601 556.292,608.746 534.844,602.178C525.127,599.228 514.926,598.211 504.817,599.184ZM486.457,796.85C479.41,798.909 470.742,806.392 467.445,812.931C462.519,822.699 465.927,832.39 469.174,841.926C424.904,843.236 373.247,826.193 335.693,803.402C346.538,794.622 355.363,786.161 348.744,770.91C341.044,753.167 325.699,737.725 307.609,730.55C283.25,720.889 276.261,726.712 267.398,749.303C254.232,735.524 246.932,724.006 239.896,706.597C263.108,681.016 252.071,646.68 234.809,621.152C236.232,618.526 238.284,615.354 239.869,612.752C246.964,622.939 251.036,627.758 259.209,637.073C264.128,676.784 284.558,716.796 327.311,724.573C335.073,725.985 339.527,730.284 345.7,734.671C351.418,738.735 357.371,742.46 363.53,745.82C404.187,767.772 454.044,778.349 500.026,779.491C509.526,779.73 516.956,779.714 526.387,779.498C566.664,778.267 606.44,771.833 643.115,754.548C647.482,752.49 652.042,750.645 656.444,748.614C628.499,772.86 593.756,795.915 558.653,808.273C546.369,799.738 532.947,791.663 517.304,791.595C507.111,791.104 495.738,792.316 486.457,796.85ZM307.5,142.662C317.325,141.795 323.215,144.237 331.717,148.577C322.135,149.796 313.414,155.208 306.914,162.276C265.857,206.917 258.063,293.429 197.756,319.196C192.852,320.748 189.285,321.115 184.198,321.646C184.306,284.676 165.302,228.811 185.816,194.834C191.857,184.829 206.823,184.835 218.052,182.487C224.482,181.103 230.809,179.281 236.99,177.033C246.143,173.763 254.974,169.653 263.369,164.754C276.618,157.059 291.954,145.164 307.5,142.662ZM708.555,142.674C741.893,139.983 760.41,170.514 769.548,198.346C782.612,238.133 791.705,291.617 830.227,315.123C824.152,314.797 822.484,314.71 816.858,312.337C759.015,285.857 748.555,161.74 691.807,148.789C698.262,145.071 701.223,143.79 708.555,142.674Z" style="fill:rgb(127,198,252);"/>
        <path d="M505.932,411.192C518.948,410.573 537.727,413.141 549.771,418.037C529.037,415.794 501.666,416.016 482.299,424C470.655,429.216 467.391,433.188 461.498,443.753L460.779,443.601C458.796,438.568 462.297,430.242 465.897,426.441C476.574,415.167 491.04,412.166 505.932,411.192ZM480.035,163.288C485.985,163.786 492.451,164.639 498.325,165.742C513.546,168.6 528.307,164.541 543.835,163.428C534.362,186.888 520.245,294.372 512.547,303.655L511.723,303.687C511.548,303.446 511.367,303.21 511.199,302.965C505.807,295.104 492.944,214.775 488.975,198.017C487.276,190.65 485.446,183.312 483.421,176.028C482.805,173.81 479.752,164.639 480.035,163.288Z" style="fill:white;fill-opacity:0.5;"/>
    </g>
</svg>
