<svg width="100%" height="100%" viewBox="0 0 813 980" version="1.1" xmlns="http://www.w3.org/2000/svg" xmlns:xlink="http://www.w3.org/1999/xlink" xml:space="preserve" xmlns:serif="http://www.serif.com/" style="fill-rule:evenodd;clip-rule:evenodd;stroke-linejoin:round;stroke-miterlimit:2;">
    <g transform="matrix(1,0,0,1,-76.9899,-16.2678)">
        <path d="M474.212,958.462C470.261,948.915 468.626,945.515 462.017,937.559C466.185,950.006 465.166,959.405 462.696,971.851C456.667,971.444 448.426,971.602 442.224,971.55C441.379,970.065 438.59,965.425 438.658,964.099C439.375,950.183 443.111,930.986 445.187,917.292C445.568,914.927 449,904.175 449.857,900.985C452.829,889.896 455.34,878.688 457.382,867.39C460.846,848.667 463.146,829.842 465.668,810.977C471.316,768.742 474.027,726.425 473.161,683.811C475.68,679.596 482.313,672.195 485.459,667.616C507.991,634.827 504.735,616.148 497.403,580.741C494.538,567.469 492.178,554.094 490.328,540.643C488.16,524.987 486.413,509.22 486.104,493.42C486.04,490.131 486.032,487.001 485.51,483.747C487.771,472.833 492.857,459.055 496.68,448.548C515.341,397.262 546.323,350.499 575.389,304.388C574.715,312.575 575.495,326.079 576.689,333.992C578.457,345.495 582.135,356.621 587.569,366.913C607.605,405.117 646.012,419.424 687.96,418.442C689.736,418.4 693.859,417.702 695.182,418.672L694.484,419.692L693.823,419.824C686.662,421.291 679.186,424.347 672.054,425.956C649.276,431.093 625.359,431.886 602.722,425.907C608.595,430.07 613.838,433.8 620.295,437.189C634.832,444.821 651.138,448.444 667.552,447.76C669.562,447.677 672.783,447.563 674.616,446.95C695.484,445.113 718.184,436.798 736.769,426.957C751.54,455.781 782,514.509 785.256,544.631C786.418,555.378 784.823,565.968 781.532,576.215C772.081,605.639 753.2,634.258 725.064,648.561L724.657,648.763C724.889,646.923 728.292,644.043 729.696,642.626C747.796,624.354 760.68,593.645 752.486,567.987C748.837,588.988 737.393,602.025 721.492,615.752C701.817,632.737 678.958,647.845 652.6,651.138C669.795,634.597 682.491,613.036 684.265,588.834C671.787,603.071 656.749,614.842 639.932,623.536C626.87,630.254 612.836,633.726 599.898,640.478C583.178,649.204 565.499,668.082 559.601,686.244L558.826,686.056C560.521,670.549 565.935,650.01 571.452,635.406C560.026,646.034 552.612,657.707 545.042,671.138C517.385,720.213 510.301,778.986 505.394,834.22C504.13,848.442 503.678,862.508 502.473,876.688C501.471,888.476 499.611,900.299 497.771,911.976C501.61,920.202 507.026,923.458 513.108,929.892C524.453,941.893 529.336,955.866 534.013,971.276C529.619,971.433 525.221,971.497 520.824,971.468C519.887,969.438 507.754,957.032 505.598,955.485C499.788,946.479 495.559,941.998 488.395,933.983C495.645,949.921 495.932,953.887 498.88,971.146C494.549,970.857 487.172,971.036 482.663,971.02C480.115,967.201 477.306,961.533 474.212,958.462ZM713.586,794.499C722.49,770.32 732.691,741.782 745.194,719.359C748.07,737.88 748.87,756.663 747.579,775.361C746.241,795.44 743.294,815.667 740.428,835.587C738.969,845.728 736.757,856.17 736.329,866.393C736.14,870.901 736.438,875.818 737.89,880.119C739.912,886.111 766.265,918.552 771.899,924.228C780.394,926.242 783.647,928.722 789.424,935.378C787.726,936.679 783.655,939.714 782.912,941.634C779.952,938.735 777.942,937.13 774.576,934.636C778.514,943.062 779.247,953.344 781.301,962.671C776.058,962.143 778.622,961.73 774.834,959.68C768.234,956.107 756.236,939.513 751.271,936.878C748.28,933.243 744.859,929.699 742.059,926.235C744.346,938.205 746.501,948.56 749.79,960.313C744.439,960.927 744.347,958.997 740.402,956.467C730.262,950.207 727.065,939.597 723.2,929.296C709.412,892.551 707.4,855.49 711.993,816.808C712.494,812.584 714.93,797.343 713.586,794.499ZM719.114,155.585C724.588,155.918 732.511,156.146 737.715,157.102C758.309,160.884 781.303,169.736 796.767,183.974C812.252,198.231 817.145,221.461 817.921,241.571C812.224,233.301 808.045,225.603 802.8,217.873C805.471,226.116 806.933,233.153 808.944,241.535C812.811,242.712 816.979,244.846 821.228,245.993C834.649,249.615 841.224,250.466 852.964,258.307C838.741,254.449 820.541,254.272 810.795,266.814C805.616,273.479 800.307,280.415 806.57,288.494C813.578,297.535 823.649,293.672 832.112,298.549C832.791,298.946 838.005,316.891 839.042,318.834C839.308,319.347 839.653,322.803 839.739,323.766C831.03,325.455 820.134,334.647 814.134,341.014C801.811,356.475 781.721,379.532 762.093,383.223C743.875,386.649 729.245,382.131 714.139,372.672C731.551,369.605 732.168,359.272 734.042,344.555C736.196,329.433 746.074,316.58 755.092,304.817C776.896,276.373 790.249,245.026 778.349,209.27C771.477,188.62 758.047,173.513 738.349,163.815C732.27,160.822 725.478,158.839 719.595,155.837L719.114,155.585ZM780.545,325.371C778.317,327.258 776.117,328.792 778.321,331.607C779.548,332.016 779.791,332.148 781.061,332.269C782.783,330.552 783.141,330.372 784.009,328.187C783.848,326.388 784.2,327.15 782.837,325.861L780.545,325.371ZM798.9,312.461C797.857,314.494 797.74,314.589 797.794,316.804C798.95,319.107 799.144,319.074 801.693,319.128C803.444,316.75 804.959,314.907 802.261,312.617C800.553,312.284 800.617,312.262 798.9,312.461ZM799.17,331.347C796.959,332.816 795.171,333.876 794.517,336.543C795.076,338.597 795.386,338.574 797.584,339.138C799.713,337.469 801.508,335.695 801.912,332.933L801.438,331.856C800.147,331.408 800.528,331.469 799.17,331.347ZM842.397,377.074C827.818,399.511 807.867,399.449 784.082,401.824C764.453,403.783 746.544,409.271 727.043,401.403L726.632,400.768C728.378,399.809 731.769,399.622 733.885,399.365C740.393,400.349 745.407,399.346 751.756,398.936C776.335,397.347 796.392,383.192 814.942,368.264C822.746,361.983 832.988,351.727 841.851,346.801L842.561,346.411C838.897,364.352 835.691,368.561 826.663,383.794C830.353,382.306 837.863,378.704 841.309,376.74L841.727,376.497L842.397,377.074ZM856.25,296.217C875.177,308.771 877.605,362.175 860.651,378.052C859.68,376.987 861.495,369.322 861.779,367.491C862.567,362.093 862.868,356.635 862.678,351.183C862.162,337.635 857.232,332.495 847.976,323.985C848.087,319.872 847.767,317.894 847.161,313.77C848.249,310.598 854.244,300.225 856.25,296.217ZM715.919,245.005L716.838,244.989C719.678,247.304 717.296,255.584 727.273,260.423C730.711,262.084 734.685,262.243 738.245,260.862C744.288,258.582 746.748,254.121 749.186,248.709C751.319,251.831 753.276,255.045 755.267,258.258C749.226,262.831 745.424,266.204 737.509,267.635C724.759,269.941 713.478,259.38 711.952,246.969C713.124,245.677 714.095,245.644 715.919,245.005ZM566.245,157.907C567.081,159.06 567.362,161.851 567.627,163.468C569.702,176.132 576.657,187.628 587.235,194.957C588.286,195.685 588.425,195.555 589.202,196.653L588.509,196.987C579.162,196.482 572.97,194.766 565.671,188.412C563.104,178.541 563.528,167.7 566.245,157.907ZM743.678,244.32C744.893,243.837 746.278,244.329 746.915,245.47C747.553,246.61 747.247,248.047 746.199,248.829C745.387,249.434 744.298,249.515 743.406,249.035C742.515,248.555 741.982,247.602 742.04,246.591C742.099,245.58 742.737,244.694 743.678,244.32Z" style="fill:rgb(254,254,254);"/>
        <path d="M609.378,16.268C634.353,17.617 679.33,109.827 689.663,131.843C694.886,132.031 700.597,132.233 705.732,132.993C711.75,120.569 721.19,106.438 730.046,95.876C741.613,82.844 752.004,69.248 761.532,54.681C768.566,43.927 771.75,43.118 778.58,54.133C787.271,68.151 789.727,84.705 786.098,100.734C783.116,113.907 773.575,129.964 779.447,143.217C784.116,151.047 799.09,157.142 806.469,163.7C815.206,171.464 818.954,180.005 826.338,188.632C837.365,200.54 855.351,204.923 864.265,219.043C870.189,228.426 868.2,237.569 865.868,247.577C870.397,256.178 876.261,267.859 876.033,277.852C875.987,279.874 874.891,285.133 874.457,287.276C878.761,298.661 882.114,303.398 885.776,316.875C891.624,338.394 890.865,368.183 879.339,387.801C870.358,403.089 860.058,406.441 844.454,410.266L844.117,410.638C833.203,422.616 822.815,430.096 806.142,431.736C802.163,432.127 798.201,431.986 794.2,432.182C792.483,434.59 797.365,447.456 798.454,450.836C800.745,457.881 802.863,464.981 804.805,472.13C811.313,496.906 816.334,522.05 819.842,547.425C820.273,550.734 821.181,559.233 820.795,562.544C817.814,588.095 808.203,613.397 797.107,636.449C794.012,642.878 786.651,654.824 785.224,660.957C784.433,664.358 784.416,677.004 783.989,681.894C782.457,698.975 780.593,716.024 778.397,733.032C773.238,771.359 764.744,810.267 759.405,848.659C759.152,853.694 755.171,867.475 758.277,871.561C766.184,881.964 774.35,893.962 783.985,902.785C790.076,908.361 798.796,912.413 804.54,918.403C820.989,935.559 823.199,961.876 823.508,984.505C819.314,984.773 814.826,984.515 810.597,984.549C772.658,984.861 734.394,983.698 696.497,985.036C685.817,973.721 684.997,961.596 683.475,946.982C682.697,939.596 681.964,932.206 681.274,924.812C680.073,912.062 682.261,910.084 670.03,905.359C671.845,886.103 673.443,864.906 672.322,845.562C670.329,811.159 665.253,776.505 663.387,742.049C629.636,759.6 588.173,765.407 550.457,765.674C547.659,778.386 540.45,798.881 536.492,812.263C529.907,834.951 525.237,858.151 522.531,881.62C521.819,887.893 521.087,894.428 520.749,900.721C520.618,903.318 521.628,908.121 523.48,910.069C549.56,937.513 556.773,956.79 556.457,995.313C544.047,994.955 530.874,995.282 518.356,995.273L460.527,995.052C452.652,995.052 428.389,995.751 421.746,994.828C420.931,994.119 420.139,993.384 419.373,992.623C412.123,985.308 411.605,974.331 412.975,964.707C414.981,950.626 419.036,936.59 419.416,922.293C419.798,907.929 419.452,893.45 419.344,879.073C419.127,853.091 419.148,827.107 419.405,801.125L419.528,794.587C413.087,798.642 386.531,818.9 383.095,823.575C380.709,826.821 366.962,871.395 365.15,877.857C372.334,890.619 373.585,890.86 384.047,899.767C401.724,914.817 398.855,938.816 400.662,958.382C390.367,957.067 379.367,957.487 368.953,957.389C356.418,957.272 343.798,957.278 331.265,957.342C322.671,957.386 314.355,959.188 305.859,957.617C303.307,957.087 300.357,954.836 298.414,953.107C287.605,943.489 286.934,927.789 289.39,914.532C290.303,909.6 290.931,904.656 291.698,899.836C293.645,887.911 295.398,875.954 296.958,863.972C299.504,843.674 300.193,823.121 301.555,802.728C302.036,795.524 302.304,783.495 305.573,777.274C309.928,768.987 320.105,765.714 327.721,760.893C332.884,757.679 337.546,753.723 341.558,749.154C360.109,727.69 339.492,707.787 323.049,693.902C303.424,719.327 284.191,739.906 262.314,763.021C250.528,775.645 238.608,788.144 226.556,800.514C221.371,805.718 216.021,810.755 210.515,815.618C207.816,818.003 194.813,828.712 193.948,830.784C186.307,849.797 180.945,873.238 177.932,893.53C177.184,898.565 190.958,923.215 192.038,934.447C193.616,950.851 192.182,956.56 190.786,972.014L110.262,971.455C99.025,971.36 88.313,970.906 76.998,971.048C76.744,946.597 82.551,933.874 91.182,911.661C99.207,891.006 106.178,868.963 112.445,847.732C116.17,835.115 116.087,821.202 120.136,808.741C121.665,804.02 132.184,792.187 135.832,787.319C137.408,764.317 147.286,737.554 154.808,716.015C165.102,684.945 179.783,651.561 182.441,618.73C184.482,593.529 191.309,580.418 204.517,559.427C213.095,545.794 221.227,531.514 230.861,518.455C234.583,513.41 238.215,506.944 242.599,502.492C225.746,482.477 215.792,466.413 213.002,439.596C220.249,436.584 239.197,432.536 247.218,431.187C265,428.196 288.067,436.106 302.387,446.868C312.13,443.507 322.324,441.123 332.218,437.866C353.111,430.909 373.689,423.035 393.89,414.267C407.626,408.45 421.094,402.759 434.167,395.542C473.778,373.677 500.507,344.131 525.594,307.295C540.887,284.876 554.662,261.459 566.825,237.2C551.507,217.849 542.758,188.384 546.646,163.909C547.847,156.342 550.657,147.593 551.395,141.089C551.377,134.191 550.37,126.87 550.055,120.004C548.395,83.826 564.153,17.234 609.378,16.268ZM605.121,26.542C591.166,30.334 582.657,37.617 575.43,50.358C563.63,71.165 559.81,98.149 560.408,121.876C560.585,128.886 562.128,135.948 562.213,142.645C562.255,145.924 558.305,153.92 557.367,157.461C553.892,170.589 555.338,186.967 558.956,199.752C562.917,213.3 569.776,225.826 579.059,236.459C546.232,297.266 514.906,357.554 454.504,395.655C419.654,417.638 377.327,433.21 338.206,446.293C326.027,450.366 312.876,453.258 300.555,456.937C274.349,438.102 254.834,437.727 225.156,446.841C228.642,464.549 232.592,474.8 244.405,489.263C247.802,493.421 252.007,497.585 255.315,501.599C235.146,530.142 214.761,559.167 199.171,590.53C195.198,598.523 193.281,614.46 192.056,623.721C184.302,682.359 151.743,733.733 145.353,792.661C141.323,797.386 132.388,806.86 129.956,811.797C128.546,814.66 127.275,827.887 126.465,832.544C125.197,839.472 123.61,846.338 121.709,853.119C117.503,868.157 112.029,882.84 107.138,897.543C100.822,916.531 87.828,941.084 87.839,960.612C119.326,961.228 150.818,961.572 182.311,961.642C183.006,946.351 183.828,929.528 175.88,915.744C170.687,906.736 166.951,901.784 168.602,890.656C171.028,874.308 177.911,831.136 189.916,821.001C216.562,798.504 238.276,774.79 261.55,749.305C275.38,734.414 289.002,719.331 302.411,704.06C308.826,696.65 314.979,688.404 321.348,681.154C357.439,704.819 377.73,740.314 334.13,768.579C327.582,772.824 318.584,776.154 314.567,782.856C311.547,789.19 311.694,804.413 311.299,812.061C310.276,831.333 308.709,850.571 306.602,869.754C305.674,877.523 304.544,885.267 303.213,892.977C299.904,911.779 291.791,933.021 307.148,948.255C317.305,948.019 327.237,947.451 337.418,947.426C354.759,947.384 372.976,948 390.263,946.721C390.248,934.166 387.784,917.645 378.348,908.514C374.878,905.156 371.054,902.778 366.971,900.22C363.501,892.325 358.758,886.529 353.73,879.569C358.469,866.146 363.002,852.651 367.327,839.089C368.371,835.775 372.275,820.899 373.414,819.641C381.61,810.597 402.27,795.266 411.889,788.849C417.223,785.329 422.72,782.062 428.361,779.059L429.229,778.864C430.266,781.677 429.899,920.038 429.048,930.829C428.555,937.182 427.648,943.496 426.334,949.731C423.514,962.835 418.502,973.56 426.929,985.574C466.509,985.495 506.692,985.973 546.189,985.546C545.902,966.893 543.666,950.457 531.291,935.431C524.94,927.719 513.962,915.12 510.632,905.231C509.709,902.489 511.658,889.751 512.071,886.095C515.076,858.562 520.458,831.341 528.157,804.737C532.713,788.741 538.69,771.7 542.952,755.981C592.72,756.762 628.456,750.049 671.992,726.809C676.488,784.665 685.844,839.874 681.045,897.777C683.8,900.244 685.909,901.861 688.896,904.068C690.769,917.543 691.547,931.263 693.357,944.771C694.897,956.271 694.64,965.589 702.236,975.075L813.567,974.76C812.365,959.29 808.158,935.702 796.496,923.711C793.371,920.498 782.56,915.309 779.387,912.492C769.728,903.917 749.265,881.335 746.874,868.782C746.012,864.256 749.256,845.479 750.079,840.544C752.146,828.124 754.283,815.715 756.488,803.319C761.551,775.718 765.995,748.007 769.819,720.207C771.477,707.403 772.773,694.556 773.704,681.679C774.036,676.51 773.707,661.748 774.848,657.897C777.014,650.582 784.544,638.731 788.275,631.368C793.095,621.859 797.02,611.885 800.616,601.859C805.184,589.124 809.894,575.24 810.484,561.652C811.433,539.788 793.466,457.121 783.292,438.143L785.403,421.367C811.675,422.602 821.232,421.967 840.031,401.357C853.002,398.07 863.078,396.372 870.389,383.588C885.182,357.717 880.969,313.011 863.02,289.634C867.426,270.244 864.232,266.688 855.148,249.071C857.249,241.819 860.576,232.684 856.416,225.767C849.051,213.524 833.69,209.323 823.007,199.42C813.233,190.358 807.698,178.432 798.344,170.319C791.846,164.684 779.468,157.497 771.874,152.994C766.621,134.669 765.185,130.676 772.507,112.773C779.425,95.857 780.25,76.559 770.749,60.219C765.755,67.442 759.636,76.991 753.824,83.397C735.765,103.302 723.112,120.482 710.887,144.495C701.787,141.875 693.281,141.664 683.882,142.489C673.304,120.831 630.657,33.96 610.27,26.886C608.648,26.323 606.811,26.392 605.121,26.542ZM694.484,419.692C686.17,430.605 673.218,436.532 661.145,442.222C665.687,443.915 670.35,444.721 674.616,446.95C672.783,447.563 669.562,447.677 667.552,447.76C651.138,448.444 634.832,444.821 620.295,437.189C613.838,433.8 608.595,430.07 602.722,425.907C625.359,431.886 649.276,431.093 672.054,425.956C679.186,424.347 686.662,421.291 693.823,419.824L694.484,419.692ZM445.187,917.292C445.007,900.924 446.406,879.238 446.921,862.492L449.688,759.514L451.361,689.391C451.693,677.001 451.299,663.084 453.228,650.98C456.448,630.775 463.513,613.187 471.534,594.651C474.652,605.535 479.195,621.279 484.723,631.032C479.227,605.862 473.961,575.075 473.758,549.126C473.614,530.793 479.523,501.086 485.51,483.747C486.032,487.001 486.04,490.131 486.104,493.42C486.413,509.22 488.16,524.987 490.328,540.643C492.178,554.094 494.538,567.469 497.403,580.741C504.735,616.148 507.991,634.827 485.459,667.616C482.313,672.195 475.68,679.596 473.161,683.811C474.027,726.425 471.316,768.742 465.668,810.977C463.146,829.842 460.846,848.667 457.382,867.39C455.34,878.688 452.829,889.896 449.857,900.985C449,904.175 445.568,914.927 445.187,917.292ZM749.79,960.313C749.616,960.533 749.442,960.752 749.267,960.971C738.172,961.017 727.078,961.266 715.992,961.717C707.286,941.459 703.609,903.658 701.956,882.002C697.962,884.715 693.926,887.366 689.85,889.955C692.441,858.326 701.75,823.859 713.586,794.499C714.93,797.343 712.494,812.584 711.993,816.808C707.4,855.49 709.412,892.551 723.2,929.296C727.065,939.597 730.262,950.207 740.402,956.467C744.347,958.997 744.439,960.927 749.79,960.313ZM724.657,648.763C721.209,650.983 715.756,653.429 711.941,655.202L715.149,644.517C683.349,677.191 612.186,690.009 568.375,690.631C564.967,690.674 561.558,690.646 558.151,690.549C558.27,689.416 558.414,686.951 558.826,686.056L559.601,686.244C565.499,668.082 583.178,649.204 599.898,640.478C612.836,633.726 626.87,630.254 639.932,623.536C656.749,614.842 671.787,603.071 684.265,588.834C682.491,613.036 669.795,634.597 652.6,651.138C678.958,647.845 701.817,632.737 721.492,615.752C737.393,602.025 748.837,588.988 752.486,567.987C760.68,593.645 747.796,624.354 729.696,642.626C728.292,644.043 724.889,646.923 724.657,648.763ZM789.424,935.378C793.531,940.97 799.305,955.789 799.138,962.132L798.7,962.735C797.176,962.758 795.438,963.026 794.257,962.252C789.403,953.417 789.82,950.427 782.912,941.634C783.655,939.714 787.726,936.679 789.424,935.378ZM781.301,962.671C778.549,963.249 767.979,962.657 764.634,962.5C760.064,952.986 756.17,946.035 751.271,936.878C756.236,939.513 768.234,956.107 774.834,959.68C778.622,961.73 776.058,962.143 781.301,962.671ZM498.88,971.146C495.621,971.844 480.872,971.527 476.77,971.504C476.519,967.753 475.082,962.296 474.212,958.462C477.306,961.533 480.115,967.201 482.663,971.02C487.172,971.036 494.549,970.857 498.88,971.146ZM520.824,971.468L513.367,971.553C510.966,966.758 507.537,960.32 505.598,955.485C507.754,957.032 519.887,969.438 520.824,971.468ZM733.885,399.365C746.077,396.899 757.516,397.057 769.151,391.74C789.928,382.246 805.883,365.473 823.119,350.99C828.271,346.661 837.325,339.207 843.903,337.98C861.104,334.772 847.447,371.479 842.397,377.074L841.727,376.497L841.309,376.74C837.863,378.704 830.353,382.306 826.663,383.794C835.691,368.561 838.897,364.352 842.561,346.411L841.851,346.801C832.988,351.727 822.746,361.983 814.942,368.264C796.392,383.192 776.335,397.347 751.756,398.936C745.407,399.346 740.393,400.349 733.885,399.365Z" style="fill:rgb(183,193,195);"  data-color="color-2"/>
        <path d="M605.121,26.542C606.811,26.392 608.648,26.323 610.27,26.886C630.657,33.96 673.304,120.831 683.882,142.489C693.281,141.664 701.787,141.875 710.887,144.495C723.112,120.482 735.765,103.302 753.824,83.397C759.636,76.991 765.755,67.442 770.749,60.219C780.25,76.559 779.425,95.857 772.507,112.773C765.185,130.676 766.621,134.669 771.874,152.994C779.468,157.497 791.846,164.684 798.344,170.319C807.698,178.432 813.233,190.358 823.007,199.42C833.69,209.323 849.051,213.524 856.416,225.767C860.576,232.684 857.249,241.819 855.148,249.071C864.232,266.688 867.426,270.244 863.02,289.634C880.969,313.011 885.182,357.717 870.389,383.588C863.078,396.372 853.002,398.07 840.031,401.357C821.232,421.967 811.675,422.602 785.403,421.367L783.292,438.143C793.466,457.121 811.433,539.788 810.484,561.652C809.894,575.24 805.184,589.124 800.616,601.859C797.02,611.885 793.095,621.859 788.275,631.368C784.544,638.731 777.014,650.582 774.848,657.897C773.707,661.748 774.036,676.51 773.704,681.679C772.773,694.556 771.477,707.403 769.819,720.207C765.995,748.007 761.551,775.718 756.488,803.319C754.283,815.715 752.146,828.124 750.079,840.544C749.256,845.479 746.012,864.256 746.874,868.782C749.265,881.335 769.728,903.917 779.387,912.492C782.56,915.309 793.371,920.498 796.496,923.711C808.158,935.702 812.365,959.29 813.567,974.76L702.236,975.075C694.64,965.589 694.897,956.271 693.357,944.771C691.547,931.263 690.769,917.543 688.896,904.068C685.909,901.861 683.8,900.244 681.045,897.777C685.844,839.874 676.488,784.665 671.992,726.809C628.456,750.049 592.72,756.762 542.952,755.981C538.69,771.7 532.713,788.741 528.157,804.737C520.458,831.341 515.076,858.562 512.071,886.095C511.658,889.751 509.709,902.489 510.632,905.231C513.962,915.12 524.94,927.719 531.291,935.431C543.666,950.457 545.902,966.893 546.189,985.546C506.692,985.973 466.509,985.495 426.929,985.574C418.502,973.56 423.514,962.835 426.334,949.731C427.648,943.496 428.555,937.182 429.048,930.829C429.899,920.038 430.266,781.677 429.229,778.864L428.361,779.059C422.72,782.062 417.223,785.329 411.889,788.849C402.27,795.266 381.61,810.597 373.414,819.641C372.275,820.899 368.371,835.775 367.327,839.089C363.002,852.651 358.469,866.146 353.73,879.569C358.758,886.529 363.501,892.325 366.971,900.22C371.054,902.778 374.878,905.156 378.348,908.514C387.784,917.645 390.248,934.166 390.263,946.721C372.976,948 354.759,947.384 337.418,947.426C327.237,947.451 317.305,948.019 307.148,948.255C291.791,933.021 299.904,911.779 303.213,892.977C304.544,885.267 305.674,877.523 306.602,869.754C308.709,850.571 310.276,831.333 311.299,812.061C311.694,804.413 311.547,789.19 314.567,782.856C318.584,776.154 327.582,772.824 334.13,768.579C377.73,740.314 357.439,704.819 321.348,681.154C314.979,688.404 308.826,696.65 302.411,704.06C289.002,719.331 275.38,734.414 261.55,749.305C238.276,774.79 216.562,798.504 189.916,821.001C177.911,831.136 171.028,874.308 168.602,890.656C166.951,901.784 170.687,906.736 175.88,915.744C183.828,929.528 183.006,946.351 182.311,961.642C150.818,961.572 119.326,961.228 87.839,960.612C87.828,941.084 100.822,916.531 107.138,897.543C112.029,882.84 117.503,868.157 121.709,853.119C123.61,846.338 125.197,839.472 126.465,832.544C127.275,827.887 128.546,814.66 129.956,811.797C132.388,806.86 141.323,797.386 145.353,792.661C151.743,733.733 184.302,682.359 192.056,623.721C193.281,614.46 195.198,598.523 199.171,590.53C214.761,559.167 235.146,530.142 255.315,501.599C252.007,497.585 247.802,493.421 244.405,489.263C232.592,474.8 228.642,464.549 225.156,446.841C254.834,437.727 274.349,438.102 300.555,456.937C312.876,453.258 326.027,450.366 338.206,446.293C377.327,433.21 419.654,417.638 454.504,395.655C514.906,357.554 546.232,297.266 579.059,236.459C569.776,225.826 562.917,213.3 558.956,199.752C555.338,186.967 553.892,170.589 557.367,157.461C558.305,153.92 562.255,145.924 562.213,142.645C562.128,135.948 560.585,128.886 560.408,121.876C559.81,98.149 563.63,71.165 575.43,50.358C582.657,37.617 591.166,30.334 605.121,26.542ZM749.79,960.313C746.501,948.56 744.346,938.205 742.059,926.235C744.859,929.699 748.28,933.243 751.271,936.878C756.17,946.035 760.064,952.986 764.634,962.5C767.979,962.657 778.549,963.249 781.301,962.671C779.247,953.344 778.514,943.062 774.576,934.636C777.942,937.13 779.952,938.735 782.912,941.634C789.82,950.427 789.403,953.417 794.257,962.252C795.438,963.026 797.176,962.758 798.7,962.735L799.138,962.132C799.305,955.789 793.531,940.97 789.424,935.378C783.647,928.722 780.394,926.242 771.899,924.228C766.265,918.552 739.912,886.111 737.89,880.119C736.438,875.818 736.14,870.901 736.329,866.393C736.757,856.17 738.969,845.728 740.428,835.587C743.294,815.667 746.241,795.44 747.579,775.361C748.87,756.663 748.07,737.88 745.194,719.359C732.691,741.782 722.49,770.32 713.586,794.499C701.75,823.859 692.441,858.326 689.85,889.955C693.926,887.366 697.962,884.715 701.956,882.002C703.609,903.658 707.286,941.459 715.992,961.717C727.078,961.266 738.172,961.017 749.267,960.971C749.442,960.752 749.616,960.533 749.79,960.313ZM474.212,958.462C475.082,962.296 476.519,967.753 476.77,971.504C480.872,971.527 495.621,971.844 498.88,971.146C495.932,953.887 495.645,949.921 488.395,933.983C495.559,941.998 499.788,946.479 505.598,955.485C507.537,960.32 510.966,966.758 513.367,971.553L520.824,971.468C525.221,971.497 529.619,971.433 534.013,971.276C529.336,955.866 524.453,941.893 513.108,929.892C507.026,923.458 501.61,920.202 497.771,911.976C499.611,900.299 501.471,888.476 502.473,876.688C503.678,862.508 504.13,848.442 505.394,834.22C510.301,778.986 517.385,720.213 545.042,671.138C552.612,657.707 560.026,646.034 571.452,635.406C565.935,650.01 560.521,670.549 558.826,686.056C558.414,686.951 558.27,689.416 558.151,690.549C561.558,690.646 564.967,690.674 568.375,690.631C612.186,690.009 683.349,677.191 715.149,644.517L711.941,655.202C715.756,653.429 721.209,650.983 724.657,648.763L725.064,648.561C753.2,634.258 772.081,605.639 781.532,576.215C784.823,565.968 786.418,555.378 785.256,544.631C782,514.509 751.54,455.781 736.769,426.957C718.184,436.798 695.484,445.113 674.616,446.95C670.35,444.721 665.687,443.915 661.145,442.222C673.218,436.532 686.17,430.605 694.484,419.692L695.182,418.672C693.859,417.702 689.736,418.4 687.96,418.442C646.012,419.424 607.605,405.117 587.569,366.913C582.135,356.621 578.457,345.495 576.689,333.992C575.495,326.079 574.715,312.575 575.389,304.388C546.323,350.499 515.341,397.262 496.68,448.548C492.857,459.055 487.771,472.833 485.51,483.747C479.523,501.086 473.614,530.793 473.758,549.126C473.961,575.075 479.227,605.862 484.723,631.032C479.195,621.279 474.652,605.535 471.534,594.651C463.513,613.187 456.448,630.775 453.228,650.98C451.299,663.084 451.693,677.001 451.361,689.391L449.688,759.514L446.921,862.492C446.406,879.238 445.007,900.924 445.187,917.292C443.111,930.986 439.375,950.183 438.658,964.099C438.59,965.425 441.379,970.065 442.224,971.55C448.426,971.602 456.667,971.444 462.696,971.851C465.166,959.405 466.185,950.006 462.017,937.559C468.626,945.515 470.261,948.915 474.212,958.462ZM842.397,377.074C847.447,371.479 861.104,334.772 843.903,337.98C837.325,339.207 828.271,346.661 823.119,350.99C805.883,365.473 789.928,382.246 769.151,391.74C757.516,397.057 746.077,396.899 733.885,399.365C731.769,399.622 728.378,399.809 726.632,400.768L727.043,401.403C746.544,409.271 764.453,403.783 784.082,401.824C807.867,399.449 827.818,399.511 842.397,377.074ZM856.25,296.217C854.244,300.225 848.249,310.598 847.161,313.77C847.767,317.894 848.087,319.872 847.976,323.985C857.232,332.495 862.162,337.635 862.678,351.183C862.868,356.635 862.567,362.093 861.779,367.491C861.495,369.322 859.68,376.987 860.651,378.052C877.605,362.175 875.177,308.771 856.25,296.217ZM566.245,157.907C563.528,167.7 563.104,178.541 565.671,188.412C572.97,194.766 579.162,196.482 588.509,196.987L589.202,196.653C588.425,195.555 588.286,195.685 587.235,194.957C576.657,187.628 569.702,176.132 567.627,163.468C567.362,161.851 567.081,159.06 566.245,157.907ZM743.678,244.32C742.737,244.694 742.099,245.58 742.04,246.591C741.982,247.602 742.515,248.555 743.406,249.035C744.298,249.515 745.387,249.434 746.199,248.829C747.247,248.047 747.553,246.61 746.915,245.47C746.278,244.329 744.893,243.837 743.678,244.32ZM715.919,245.005C714.095,245.644 713.124,245.677 711.952,246.969C713.478,259.38 724.759,269.941 737.509,267.635C745.424,266.204 749.226,262.831 755.267,258.258C753.276,255.045 751.319,251.831 749.186,248.709C746.748,254.121 744.288,258.582 738.245,260.862C734.685,262.243 730.711,262.084 727.273,260.423C717.296,255.584 719.678,247.304 716.838,244.989L715.919,245.005ZM719.114,155.585L719.595,155.837C725.478,158.839 732.27,160.822 738.349,163.815C758.047,173.513 771.477,188.62 778.349,209.27C790.249,245.026 776.896,276.373 755.092,304.817C746.074,316.58 736.196,329.433 734.042,344.555C732.168,359.272 731.551,369.605 714.139,372.672C729.245,382.131 743.875,386.649 762.093,383.223C781.721,379.532 801.811,356.475 814.134,341.014C820.134,334.647 831.03,325.455 839.739,323.766C839.653,322.803 839.308,319.347 839.042,318.834C838.005,316.891 832.791,298.946 832.112,298.549C823.649,293.672 813.578,297.535 806.57,288.494C800.307,280.415 805.616,273.479 810.795,266.814C820.541,254.272 838.741,254.449 852.964,258.307C841.224,250.466 834.649,249.615 821.228,245.993C816.979,244.846 812.811,242.712 808.944,241.535C806.933,233.153 805.471,226.116 802.8,217.873C808.045,225.603 812.224,233.301 817.921,241.571C817.145,221.461 812.252,198.231 796.767,183.974C781.303,169.736 758.309,160.884 737.715,157.102C732.511,156.146 724.588,155.918 719.114,155.585ZM780.545,325.371L782.837,325.861C784.2,327.15 783.848,326.388 784.009,328.187C783.141,330.372 782.783,330.552 781.061,332.269C779.791,332.148 779.548,332.016 778.321,331.607C776.117,328.792 778.317,327.258 780.545,325.371ZM798.9,312.461C800.617,312.262 800.553,312.284 802.261,312.617C804.959,314.907 803.444,316.75 801.693,319.128C799.144,319.074 798.95,319.107 797.794,316.804C797.74,314.589 797.857,314.494 798.9,312.461ZM799.17,331.347C800.528,331.469 800.147,331.408 801.438,331.856L801.912,332.933C801.508,335.695 799.713,337.469 797.584,339.138C795.386,338.574 795.076,338.597 794.517,336.543C795.171,333.876 796.959,332.816 799.17,331.347Z" style="fill:rgb(75,11,11);"  data-color="color-1"/>
        <path d="M609.584,37.785C623.273,47.518 646.495,99.993 651.716,117.608C657.007,135.458 653.51,153.136 639.2,165.512C634.364,168.878 631.891,169.381 626.256,171.008C638.332,159.904 639.265,139.889 636.506,124.798C631.507,97.457 622.48,62.392 609.584,37.785ZM294.432,666.077L294.647,666.201C294.072,667.445 286.462,674.736 284.827,676.536C280.402,681.386 276.139,686.381 272.043,691.511C263.101,702.911 252.086,716.356 244.129,728.296C226.178,755.235 213.617,776.812 184.02,792.883L183.915,792.821L184.076,792.125C205.535,771.961 211.353,757.831 226.697,734.366C241.983,710.992 270.162,679.595 294.432,666.077ZM606.821,272.463C606.762,274.866 604.469,282.692 603.91,285.823C601.037,301.925 598.99,321.561 604.366,337.098C613.876,364.582 646.533,383.42 671.324,395.427L664.014,394.34C646.984,391.475 624.568,382.735 612.879,369.738C591.67,346.156 581.828,296.36 606.821,272.463ZM742.403,210.472C759.088,210.578 766.104,221.521 769.502,236.011C743.18,230.287 734.081,229.25 706.925,232.425C700.004,233.689 692.942,234.315 685.947,235.331C694.394,228.975 704.534,221.133 715.133,219.238C725.496,217.385 740.977,218.763 751.232,221.431C748.163,215.99 747.069,214.622 742.403,210.472ZM838.437,264.676C844.065,264.255 856.25,263.883 858.003,271.053C858.984,275.063 856.114,279.248 854.155,282.59C851.145,277.011 849.873,276.439 844.342,273.893C855.671,292.342 839.095,297.538 834.904,292.243L835.895,290.741C839.413,286.03 843.118,273.937 833.051,274.461C831.666,274.533 828.259,276.228 826.865,276.882C826.967,278.435 827.426,282.302 826.535,283.443C821.081,290.423 811.423,280.233 817.405,273.74C822.613,268.088 831.02,265.757 838.437,264.676ZM463.859,423.558C463.774,424.458 459.902,432.731 459.238,434.221C456.686,439.948 455.26,445.469 453.626,451.499C451.483,459.515 449.735,467.632 448.387,475.819C447.691,479.898 444.666,504.438 443.759,506.14L443.229,504.975C440.518,485.99 438.783,465.909 444.682,447.325C448.09,436.589 455.093,430.067 463.859,423.558ZM356.482,907.92C361.238,908.254 368.978,913.237 372.634,916.337C381.608,923.945 381.089,927.989 382.059,938.404L368.611,938.599C364.756,930.149 358.886,916.847 356.482,907.92ZM148.438,921.232C156.365,925.132 162.452,947.532 159.27,954.636L158.125,954.927L145.883,954.67C145.915,945.326 146.559,930.175 148.438,921.232ZM334.125,910.151C344.758,912.072 353.667,929.21 356.659,938.506C351.767,938.488 346.876,938.568 341.988,938.745C340.115,930.772 336.761,917.679 334.125,910.151ZM125.786,920.218C127.791,921.037 131.165,926.421 131.946,928.417C135.638,937.858 135.098,944.935 130.024,953.562C127.602,955.843 125.358,955.118 122.24,954.887C124.042,943.067 123.987,931.025 125.786,920.218ZM167.511,921.396C172.689,925.694 176.39,933.603 176.778,940.223C177.012,944.202 175.963,946.758 174.496,950.273C173.047,952.012 172.368,953.05 169.999,952.996C167.804,950.062 167.446,926.365 167.511,921.396Z" style="fill:rgb(183,193,195); fill-opacity:0.52;"/>
    </g>
</svg>
