<svg width="100%" height="100%" viewBox="0 0 741 803" version="1.1" xmlns="http://www.w3.org/2000/svg" xmlns:xlink="http://www.w3.org/1999/xlink" xml:space="preserve" xmlns:serif="http://www.serif.com/" style="fill-rule:evenodd;clip-rule:evenodd;stroke-linejoin:round;stroke-miterlimit:2;">
    <g transform="matrix(1,0,0,1,-138.179,-115.943)">
        <path d="M614.74,137.766C620.726,135.511 627.329,132.534 633.355,130.583C676.029,116.768 706.452,138.052 740.349,159.666C748.043,164.574 757.301,168.095 765.358,172.482C783.109,182.048 797.638,196.034 802.953,216.162C805.699,226.562 806.241,235.157 805.962,245.867C805.763,253.484 804.659,259.924 802.477,266.225C809.556,275.915 814.706,285.816 817.361,298.798C821.764,320.33 818.847,338.666 808.806,356.857C809.841,365.814 810.127,373.719 810.106,382.593C833.944,407.251 849.682,435.488 862.731,467.626C866.878,477.839 868.286,488.03 871.066,498.437C880.912,535.28 881.056,573.702 872.168,610.733C865.018,641.024 849.234,672.383 821.066,688.96C803.005,699.588 786.555,705.637 766.504,702.48C756.257,706.58 748.064,709.37 735.918,710.998C732.309,711.481 720.968,712.281 718.089,712.48C715.153,714.129 713.47,717.322 711.744,720.302C711.147,721.332 710.578,722.377 710.03,723.427C719.596,739.264 728.251,758.023 725.408,776.197C723.827,786.298 717.444,798.605 707.527,810.885C689.47,833.242 659.61,857.225 644.762,868.218C631.198,878.451 616.818,887.935 603.045,897.908C595.195,903.592 587.01,909.268 578.465,913.829L569.714,918.5L560.699,914.359C548.846,908.914 532.48,899.184 521.099,892.632L521.085,892.623C496.982,878.694 473.063,864.449 449.334,849.891C417.579,830.587 385.083,811.949 354.04,792.028C288.272,749.826 226.926,700.632 175.545,641.558C168.191,633.104 149.181,613.26 144.307,603.999L138.179,592.354L146.448,582.118C159.145,566.399 171.044,554.899 181.68,536.505C194.753,513.895 197.446,495.67 203.04,470.794L203.042,470.785C205.892,458.167 208.936,445.593 212.174,433.069C215.841,418.652 220.116,404.493 224.372,390.318C218.772,388.28 213.511,385.406 208.963,381.65C196.56,371.408 191.578,358.004 190.262,343.081C189.126,330.204 192.403,315.779 188.876,304.312C182.372,284.471 168.603,264.036 166.951,242.879C165.287,221.575 172.806,202.529 185.824,186.878C203.245,165.935 230.935,151.392 256.047,146.385C268.652,143.872 277.443,140.224 287.897,132.793C301.158,123.366 322.742,117.748 338.927,116.272L339.122,116.258C363.871,114.488 395.623,120.209 418.951,132.443C460.162,122.357 521.192,119.55 560.087,133.91C574.29,132.455 588.937,134.35 602.901,136.321C605.847,136.605 612.12,137.421 614.74,137.766ZM340.548,136.207C327.672,137.381 310.163,141.503 299.484,149.094C286.506,158.319 275.606,162.879 259.958,165.999C224.992,172.97 183.79,201.627 186.89,241.322C188.428,261.014 201.92,279.798 207.94,298.263C214.55,319.441 201.85,349.839 221.698,366.229C229.403,372.592 240.303,374.767 250.041,373.988C243.935,395.378 237.045,416.414 231.547,438.038C228.357,450.375 225.358,462.761 222.551,475.191C216.471,502.228 213.208,521.934 198.994,546.516C187.786,565.899 175.385,578.122 162.006,594.685C166.421,603.074 183.972,620.773 190.634,628.431C240.769,686.072 300.67,734.018 364.841,775.196C395.759,795.036 428.128,813.594 459.755,832.82C483.347,847.295 507.128,861.458 531.092,875.307C541.997,881.585 557.676,890.961 569.048,896.185C576.797,892.049 584.196,886.864 591.315,881.709C604.996,871.803 619.284,862.389 632.755,852.223C652.713,837.455 701.775,797.856 705.648,773.105C708.351,755.829 696.198,738.46 687.191,724.736C692.627,713.39 698.728,698.513 711.832,693.363C715.292,692.003 728.247,691.847 733.262,691.175C745.621,689.519 753.207,686.33 764.559,681.685C782.172,686.113 795.714,680.673 810.922,671.723C834.376,657.921 846.765,631.322 852.711,606.102C860.83,572.302 860.731,537.23 851.744,503.6C849.18,494.003 848.024,484.568 844.2,475.15C831.132,442.965 815.316,414.909 790.014,390.827C790.258,376.863 790.163,366.517 788.06,352.59C798.211,336.876 801.568,321.394 797.767,302.805C794.927,288.921 788.146,279.656 779.227,269.085C783.638,261.217 785.731,254.46 785.969,245.345C786.195,236.667 785.841,229.695 783.616,221.267C779.763,206.676 768.704,196.997 755.832,190.068C747.371,185.454 737.679,181.685 729.595,176.529C700.853,158.202 675.7,137.896 639.515,149.611C632.735,151.806 625.217,155.341 618.714,157.598C615.363,158.76 604.473,156.457 600.611,156.195C586.545,154.207 571.704,151.951 557.55,154.436C520.118,138.055 455.067,142.601 416.07,153.903C395.8,140.624 364.366,134.504 340.548,136.207Z" style="fill:rgb(67,76,81);"  data-color="color-3"/>
        <path d="M340.548,136.207C364.366,134.504 395.8,140.624 416.07,153.903C455.067,142.601 520.118,138.055 557.55,154.436C571.704,151.951 586.545,154.207 600.611,156.195C604.473,156.457 615.363,158.76 618.714,157.598C625.217,155.341 632.735,151.806 639.515,149.611C675.7,137.896 700.853,158.202 729.595,176.529C737.679,181.685 747.371,185.454 755.832,190.068C768.704,196.997 779.763,206.676 783.616,221.267C785.841,229.695 786.195,236.667 785.969,245.345C785.731,254.46 783.638,261.217 779.227,269.085C788.146,279.656 794.927,288.921 797.767,302.805C801.568,321.394 798.211,336.876 788.06,352.59C790.163,366.517 790.258,376.863 790.014,390.827C815.316,414.909 831.132,442.965 844.2,475.15C848.024,484.568 849.18,494.003 851.744,503.6C860.731,537.23 860.83,572.302 852.711,606.102C846.765,631.322 834.376,657.921 810.922,671.723C795.714,680.673 782.172,686.113 764.559,681.685C753.207,686.33 745.621,689.519 733.262,691.175C728.247,691.847 715.292,692.003 711.832,693.363C698.728,698.513 692.627,713.39 687.191,724.736C696.198,738.46 708.351,755.829 705.648,773.105C701.775,797.856 652.713,837.455 632.755,852.223C619.284,862.389 604.996,871.803 591.315,881.709C584.196,886.864 576.797,892.049 569.048,896.185C557.676,890.961 541.997,881.585 531.092,875.307C507.128,861.458 483.347,847.295 459.755,832.82C428.128,813.594 395.759,795.036 364.841,775.196C300.67,734.018 240.769,686.072 190.634,628.431C183.972,620.773 166.421,603.074 162.006,594.685C175.385,578.122 187.786,565.899 198.994,546.516C213.208,521.934 216.471,502.228 222.551,475.191C225.358,462.761 228.357,450.375 231.547,438.038C237.045,416.414 243.935,395.378 250.041,373.988C240.303,374.767 229.403,372.592 221.698,366.229C201.85,349.839 214.55,319.441 207.94,298.263C201.92,279.798 188.428,261.014 186.89,241.322C183.79,201.627 224.992,172.97 259.958,165.999C275.606,162.879 286.506,158.319 299.484,149.094C310.163,141.503 327.672,137.381 340.548,136.207Z" style="fill:rgb(17,39,55);"  data-color="color-1"/>
        <path d="M384.347,644.755C416.989,663.483 458.013,677.253 495.944,672.343C498.899,674.434 505.507,679.75 508.02,681.029C527.407,690.894 556.087,692.034 577.083,688.377C580.54,687.751 583.959,686.925 587.321,685.905C575.155,696.053 565.301,706.577 555.656,719.167C551.505,724.586 546.622,729.327 542.387,734.658C533.597,746.869 527.814,765.672 526.4,780.481C525.172,793.338 526.691,804.268 530.201,816.487C531.422,824.03 532.04,833.106 533.838,840.18C528.959,837.798 520.554,832.64 515.727,829.769C504.761,823.246 492.507,816.107 481.969,808.912C478.182,802.972 466.273,791.854 461.206,786.578C453.464,778.517 445.663,770.496 438.344,762.006C420.234,740.646 404.796,717.16 392.368,692.065C383.279,673.512 375.904,654.733 367.814,635.824C372.713,638.884 378.976,642.854 384.347,644.755ZM684.648,338.2C687.471,337.942 690.623,337.98 693.44,338.18C712.628,339.545 725.193,339.318 738.817,354.38C719.813,352.177 710.968,352.629 692.781,358.549C635.991,377.035 600.111,423.841 574.304,475.478C576.894,472.795 579.478,469.743 581.988,466.972C598.499,448.75 617.715,433.14 637.82,419.063C643.353,415.188 649.042,411.005 655.114,407.92C664.217,429.651 717.983,444.083 739.979,448.551C740.684,458.258 739.783,465.675 738.985,475.383C733.875,476.628 728.815,478.07 723.816,479.705C704.129,486.309 686.667,499.546 674.807,516.659C670.805,522.433 667.114,530.088 663.975,536.441C648.035,569.231 641.847,594.984 618.298,625.158C593.052,657.507 551.274,669.223 515.19,647.135C504.89,640.831 499.974,623.178 499.028,612.236C494.108,536.338 537.291,461.492 581.735,403.126C609.804,366.264 637.511,343.435 684.648,338.2ZM660.861,451.515C655.139,454.827 648.484,457.953 643.224,461.856C621.421,478.036 601.628,498.88 589.548,523.397C588.19,526.153 583.785,534.472 583.252,537.051L583.537,537.206C597.658,523.066 610.852,511.725 624.048,495.998C635.647,482.174 647.875,463.591 661.101,451.993L660.861,451.515ZM750.369,503.715C758.236,502.445 772.538,505.001 779.073,510.17C789.491,518.408 791.349,528.537 793.351,540.606C780.59,527.033 759.746,520.041 741.929,526.606C722.094,533.913 706.014,554.115 697.257,572.572C707.53,559.132 719.316,554.153 735.623,550.119C747.42,547.531 761.039,547.087 771.461,553.895C788.947,565.605 790.215,579.395 786.879,598.481C779.74,639.317 766.123,651.767 726.47,660.653C744.933,648.361 755.688,628.426 758.001,606.436C758.712,601.135 758.542,595.679 758.548,590.315C746.353,628.758 721.865,646.852 682.815,652.808C699.716,636.354 703.015,621.906 704.016,599.521C694.486,621.262 671.434,653.177 645.266,655.324C642.759,655.53 639.26,655.113 636.708,654.867C645.686,644.509 658.182,625.119 664.131,612.758C677.328,585.339 684.931,552.534 704.085,528.569C715.157,514.717 732.779,505.313 750.369,503.715ZM767.588,432.376C773.899,425.498 775.96,420.505 779.772,412.017C803.35,434.926 821.261,473.838 830.333,505.36C836.881,528.115 836.555,564.237 833.866,587.751C832.18,602.496 816.51,632.12 806.47,642.585L805.871,643.199C818.319,617.561 822.624,564.267 820.279,535.869C819.302,525.044 817.371,514.326 814.506,503.841C809.078,481.307 795.167,451.584 777.286,436.755C775.364,435.161 770.209,433.72 767.588,432.376ZM531.541,337.613L531.96,337.957C531.789,340.164 531.208,342.275 531.122,344.456C530.708,354.953 535.895,363.683 545.647,367.838C551.049,370.14 554.242,370.161 560.095,370.309C553.02,371.974 550.402,372.201 542.996,372.232C528.844,370.213 518.07,356.744 514.311,343.706C519.997,340.519 525.26,339.196 531.541,337.613ZM579.812,348.647C584.259,351.236 588.898,354.331 593.257,357.122C588.671,359.177 584.112,361.291 579.581,363.465C576.426,365.084 571.581,366.997 568.221,368.443C575.228,362.052 578.24,358.292 579.812,348.647ZM748.994,330.925C752.348,332.024 755.537,333.571 758.476,335.526C758.437,341.162 758.775,348.921 756.076,353.956C755.066,354.861 754.687,355.062 753.52,355.782C752.472,355.206 754.226,348.677 754.214,346.648C754.178,340.604 751.807,335.897 748.994,330.925ZM551.957,338.902C557.931,339.183 561.998,343.372 557.31,348.668C550.623,349.397 548.465,344.044 551.957,338.902Z" style="fill:rgb(251,248,243);"/>
        <path d="M814.506,503.841C813.735,505.221 814.178,504.851 812.961,505.626C811.705,505.117 807.574,498.279 805.911,496.246C803.935,493.83 801.752,491.589 799.399,489.538C789.586,480.981 784.442,480.481 772.978,475.308C767.035,459.643 770.628,455.266 760.562,438.36C763.187,436.679 765.301,434.51 767.588,432.376C770.209,433.72 775.364,435.161 777.286,436.755C795.167,451.584 809.078,481.307 814.506,503.841ZM706.257,376.137C713.578,375.411 721.938,377.057 729.321,377.466C736.333,377.855 743.099,377.9 750.09,378.663C756.955,383.815 760.891,389.734 760.845,398.577C760.786,409.867 759.664,422.526 751.607,431.043C754.456,413.892 766.226,391.399 740.888,385.983C740.061,385.852 739.232,385.739 738.4,385.643C727.487,384.289 708.812,383.476 699.651,390.872C688.225,400.097 695.207,411.729 702.901,420.486C692.94,416.687 672.49,402.991 682.488,390.6C687.559,384.314 698.169,377.352 706.257,376.137ZM723.263,396.808C726.04,398.942 730.829,419.417 733.224,424.821C736.125,431.364 738.528,434.152 742.066,440.303C742.351,440.798 742.252,440.669 741.984,441.379L740.961,440.654C737.39,437.496 733.375,434.073 730.176,430.568C723.582,423.344 713.615,404.601 723.263,396.808Z" style="fill:rgb(67,76,81);"/>
        <path d="M481.969,808.912C479.264,807.671 471.114,802.328 467.942,800.399L437.7,782.296C418.605,771.225 399.728,759.781 381.08,747.971C326.901,713.471 276.896,672.818 232.062,626.822C221.854,616.21 208.481,602.371 199.332,590.911C215.235,575.874 230.466,546.637 237.777,525.939C241.632,515.027 244.661,501.691 247.424,490.381C250.55,477.585 251.477,465.823 256.839,453.572C257.2,464.815 258.743,473.124 260.44,484.059C262.918,500.035 265.225,516.505 271.555,531.589C284.208,561.743 302.814,575.775 331.594,588.261C319.752,577.81 305.39,561.966 297.768,548.349C277.861,512.782 272.28,470.465 275.203,430.263C276.231,416.123 277.259,402.884 280.903,389.125C283.317,386.587 288.39,382.768 291.218,380.829C316.552,363.688 323.607,338.428 333.355,311.648C342.974,285.222 352.712,253.102 375.324,235.109C383.538,228.573 399.913,218.455 409.457,214.81C400.744,204.293 395.275,197.474 382.551,191.394C365.424,183.21 344.184,185.439 334.575,203.512C329.869,212.365 328.346,223.074 325.944,232.801C321.571,250.516 317.953,268.777 310.15,285.399C298.296,308.634 286.406,334.464 259.982,343.766C244.259,349.301 233.961,345.704 235.191,327.353C236.619,306.055 237.138,287.399 227.376,267.755C223.527,260.009 219.483,251.641 216.384,243.547C213.559,235.785 213.67,226.522 217.82,219.101C231.598,194.461 267.44,195.319 289.994,185.152C304.987,178.393 311.985,168.175 328.083,163.375C360.881,153.595 382.027,164.132 409.92,178.31L448.453,197.997C441.905,189.437 440.508,183.968 431.657,174.292C466.203,168.088 513.091,165.651 546.074,178.938C556.882,183.291 569.054,189.997 580.199,194.576C590.104,198.645 597.501,201.04 607.781,204.099C599.225,192.426 593.254,186.705 581.483,177.772C582.094,177.789 582.705,177.819 583.314,177.862C597.247,178.882 625.263,182.819 637.851,186.767C674.412,198.235 707.597,224.031 732.29,252.705C726.317,255.137 723.042,257.195 717.65,260.663C733.939,264.489 748.829,268.563 759.842,281.804C775.236,300.311 778.593,307.693 776.843,331.537C770.226,318.451 763.594,316.664 750.464,313.396C759.753,312.036 766.962,310.38 775.57,315.189C772.739,304.713 766.895,297.925 756.208,294.919C739.259,290.151 730.625,307.238 718.871,313.922C696.282,314.514 695.019,303.03 692.202,285.075C690.191,272.261 674.151,255.508 664.043,248.341C658.004,244.06 649.907,239.48 643.382,235.281C651.691,244.185 672.243,271.855 673.929,283.393C674.73,288.876 675.013,309.566 675.601,317.209C667.133,318.07 662.456,317.475 653.976,316.793C653.94,309.408 652.862,302.458 652.23,295.353C650.749,278.709 643.621,267.158 630.519,256.961C616.624,246.147 604.09,240.767 586.797,238.321C580.212,237.389 571.271,235.986 564.598,236.766C556.071,237.764 547.706,239.761 538.975,240.839C541.34,241.399 551.76,242.09 555.554,242.743C585.317,247.609 613.642,256.118 631.372,282.561C637.435,291.605 638.805,305.968 629.271,314.31C626.588,316.365 621.697,315.472 618.88,314.324C592.346,303.196 568.726,285.67 540.246,279.194C515.214,273.503 469.167,289.737 463.444,317.407C478.859,313.243 492.952,306.748 509.418,304.8C528.797,302.507 551.841,309.986 567.148,322.211C543.969,312.747 532.065,313.784 509.213,324.081C492.1,331.792 482.834,342.123 467.772,351.197C476.611,353.992 485.789,355.01 494.791,352.408C506.399,385.257 533.545,395.335 566.352,390.912C557.976,401.043 547.864,410.619 539.966,420.814C505.212,465.675 482.676,523.734 475.135,579.864C473.568,591.532 472.218,608.265 473.571,619.849C470.116,617.375 465.69,614.157 463.009,610.796C429.325,568.562 417.248,514.246 427.945,461.449C430.363,449.515 431.053,443.724 436.31,432.373C434.294,434.698 431.281,439.598 429.54,442.304C414.518,465.639 406.023,492.573 404.937,520.304C404.43,536.448 406.445,546.613 411.196,561.752C422.497,597.76 448.84,618.197 473.634,644.661C448.793,649.511 429.206,652.012 403.962,648.932C398.738,648.294 387.342,644.703 384.347,644.755C378.976,642.854 372.713,638.884 367.814,635.824C375.904,654.733 383.279,673.512 392.368,692.065C404.796,717.16 420.234,740.646 438.344,762.006C445.663,770.496 453.464,778.517 461.206,786.578C466.273,791.854 478.182,802.972 481.969,808.912ZM352.826,374.48C327.856,415.961 314.106,453.181 326.185,501.964C333.059,529.725 346.449,552.701 371.315,567.799C371.959,568.19 372.606,568.544 373.27,568.899C377.929,571.431 383.459,574.285 388.353,576.398C374.909,566.303 371.978,560.612 365.098,545.216C355.09,523.268 348.328,499.98 345.025,476.085C341.554,451.564 342.595,423.325 347.059,398.987C347.875,394.292 348.865,389.629 350.029,385.008C350.466,383.341 352.737,375.615 352.826,374.48ZM479.796,404.819C485.611,413.944 494.194,422.408 505.993,420.484C508.014,420.154 511.235,420.076 513.045,419.256C512.359,418.846 506.734,417.263 505.71,417.081C498.914,415.875 485.053,405.824 479.796,404.819ZM530.201,816.487C531.416,813.684 530.844,807.71 531.44,804.371C532.823,796.637 534.579,789.018 537.41,781.668C539.893,775.167 543.212,769.018 547.286,763.377C562.8,742.248 600.405,714.899 624.357,704.446C634.867,699.859 659.334,691.198 670.599,688.41C662.645,708.081 637.508,759.572 621.907,772.817C631.722,768.181 641.808,764.149 650.75,758.025C655.902,754.497 659.649,750.772 664.442,746.938C668.366,752.109 673.928,758.89 672.838,765.872C669.024,790.292 591.636,843.364 568.467,859.3C568.232,859.461 567.993,859.617 567.757,859.776L545.498,847.1C542.693,845.5 536.244,842.004 533.838,840.18C532.04,833.106 531.422,824.03 530.201,816.487ZM665.062,173.08C682.147,171.724 707.102,191.582 721.787,199.716C732.398,205.593 748.143,209.836 753.846,220.854C757.256,227.444 756.837,233.843 754.556,240.622C753.938,241.722 754.377,241.37 753.331,241.781C750.744,240.206 737.557,225.339 734.12,222.029C712.707,201.407 691.857,185.779 665.062,173.08Z" style="fill:rgb(159,92,36);"  data-color="color-2"/>
    </g>
</svg>
