<svg width="100%" height="100%" viewBox="0 0 889 1215" version="1.1" xmlns="http://www.w3.org/2000/svg" xmlns:xlink="http://www.w3.org/1999/xlink" xml:space="preserve" xmlns:serif="http://www.serif.com/" style="fill-rule:evenodd;clip-rule:evenodd;stroke-linejoin:round;stroke-miterlimit:2;">
    <g transform="matrix(1,0,0,1,-69.9987,-152.368)">
        <path d="M681.202,455.884C692.187,457.295 705.759,460.001 716.562,462.395C696.87,487.795 670.845,505.294 638.29,490.72C629.933,486.287 626.528,482.134 623.874,473.22C625.996,465.887 627.632,464.415 632.888,458.752C633.719,465.125 635.063,469.72 639.178,474.846C643.472,480.246 649.798,483.643 656.672,484.242C662.27,484.771 667.845,483.025 672.139,479.397C679.739,472.939 680.453,464.958 681.202,455.884ZM341.282,456.304L342.898,456.177C344.944,458.278 343.086,466.995 349.1,475.315C352.506,480.122 357.746,483.309 363.582,484.122C379.061,486.24 390.278,473.851 391.9,459.218C403.242,471.992 402.728,480.933 388.094,490.539C356.047,506.641 328.01,486.429 308.138,462.353C318.192,459.966 331.122,457.72 341.282,456.304Z" style="fill:white;"/>
        <path d="M670.154,1045.6C670.402,1045.7 671.045,1046.38 671.277,1046.6L668.917,1117.35L651.962,1094.52L625.915,1059.13C640.712,1054.79 655.459,1050.28 670.154,1045.6ZM848.814,901.107C851.533,902.936 873.593,928.28 876.861,931.992L870,929.757C859.668,925.822 849.397,921.727 839.191,917.473L848.814,901.107ZM175.53,901.431C177.715,903.941 183.938,914.293 186.051,917.664L156.585,928.997C153.994,930.003 151.165,930.697 148.473,931.439C157.438,921.962 166.746,911.195 175.53,901.431ZM354.142,1045.14C367.677,1050.05 385.865,1055 399.94,1059.26C391.995,1070.14 383.968,1080.96 375.859,1091.72L356.747,1117.32C355.565,1093.27 354.696,1069.21 354.142,1045.14ZM776.239,986.884C778.12,988.6 792.696,1038.37 794.773,1045.2C788.495,1040.76 781.714,1036.33 775.314,1032.01C764.635,1024.8 754.016,1017.51 743.456,1010.14L776.239,986.884ZM248.815,986.745L281.65,1010.24C271.811,1017.41 260.968,1024.68 250.923,1031.67L230.758,1045.39C237.143,1026.15 242.592,1006.15 248.815,986.745Z" style="fill:white;"  data-color="color-3"/>
        <path d="M664.996,180.729C665.711,180.129 666.431,179.534 667.157,178.945C691.035,159.577 700.28,174.5 723.67,186.973C732.008,191.339 740.444,195.514 748.973,199.495C784.385,216.089 820.908,230.203 858.277,241.735C864.159,243.491 870.018,244.982 875.943,246.561C895.504,251.775 916.404,252.181 929.712,269.802C934.342,276.037 937.288,283.36 938.266,291.063C939.754,302.45 936.964,322.16 935.164,333.494C928.917,372.832 918.362,411.31 906.346,449.24C899.613,470.495 891.792,491.873 886.433,513.527C885.221,520.769 884.937,527.754 885.509,535.107C886.009,541.525 890.492,554.493 884.417,559.022C881.563,561.15 875.499,561.345 872.135,560.42C851.238,554.671 831.171,537.16 819.49,519.296C819.417,556.735 826.546,583.112 845.74,616.013C851.335,625.603 861.359,638.918 863.886,649.24C870.276,675.344 863.911,697.872 851.52,720.31C868.898,751.858 860.722,779.677 841.074,806.868C848.507,829.61 854.616,848.994 856.074,873.05C877.029,901.899 899.88,932.011 920.121,961.152C896.634,956.484 861.991,952.668 837.497,949.125C831.609,964.89 828.859,970.113 818.774,983.822C820.164,994.072 816.507,1001.19 810.655,1009.27L830.192,1094.96C805.587,1081.11 781.128,1067.01 756.82,1052.65C742.504,1065.08 714.32,1081.08 697.017,1088.47C695.615,1116.82 690.915,1150.93 687.007,1179.01C668.173,1157.07 649.045,1135.38 629.63,1113.95C616.846,1117.22 603.61,1120.71 590.556,1122.47C589.431,1137.44 586.386,1144.79 578.727,1157.39C589.524,1165.48 600.671,1172.71 611.93,1180.13C612.091,1200.05 612.006,1219.97 611.674,1239.89C611.5,1245.84 609.785,1252.94 607.911,1258.61C593.315,1302.77 552.113,1328.13 512.897,1348.07C492.373,1338.94 461.975,1319.39 445.897,1303.27C406.552,1263.82 413.811,1231.33 413.928,1180.18C425.032,1173.15 435.908,1165.77 446.539,1158.05C438.815,1145.67 436.733,1136.48 435.035,1122.55C421.681,1120.79 408.257,1117.27 395.175,1114.02C376.77,1133.55 356.154,1158.82 338.718,1179.46C334.579,1149.21 331.101,1118.87 328.287,1088.47C313.493,1082.45 280.658,1063.56 268.436,1052.71C244.787,1066.68 219.661,1082 195.45,1094.76C202.141,1066.58 208.439,1037.86 214.765,1009.57C208.143,1000.6 205.22,994.632 206.603,983.403C196.917,970.475 193.763,964.143 187.835,949.109C180.001,950.741 169.09,951.929 160.827,953.085C142.407,955.585 124.003,958.211 105.618,960.964C112.111,951.194 121.09,939.425 128.098,929.737C141.791,910.709 155.588,891.757 169.49,872.882C170.955,849.05 177.446,829.16 184.727,806.68C163.662,780.204 157.67,751.55 173.276,720.303C160.97,696.201 152.759,666.479 164.794,640.224C168.592,631.939 178.839,619.61 183.895,609.651C201.01,575.94 205.991,556.209 205.69,519.512C196.368,532.616 184.81,543.979 171.035,552.377C163.908,556.722 152.732,562.786 144.063,560.377C141.317,559.614 138.671,557.998 137.43,555.342C134.635,549.363 140.063,540.095 140.285,533.364C140.505,526.679 139.402,519.885 138.058,513.351C132.377,485.738 121.457,459.29 113.214,432.378C103.359,400.206 78.03,308.335 90.101,279.01C94.186,269.088 102.526,260.921 112.216,256.402C124.82,250.523 140.668,249.161 154.125,245.555C175.737,239.532 197.05,232.488 217.993,224.444C245.562,213.873 272.535,201.809 298.791,188.305C310.148,182.476 321.78,174.074 332.523,169.621C344.719,168.397 350.69,172.689 359.69,180.506C412.82,173.848 461.01,178.556 512.506,189.153C515.535,189.776 543.227,183.228 549.584,182.396C587.469,177.44 627.051,175.165 664.996,180.729ZM341.282,456.304C331.122,457.72 318.192,459.966 308.138,462.353C328.01,486.429 356.047,506.641 388.094,490.539C402.728,480.933 403.242,471.992 391.9,459.218C390.278,473.851 379.061,486.24 363.582,484.122C357.746,483.309 352.506,480.122 349.1,475.315C343.086,466.995 344.944,458.278 342.898,456.177L341.282,456.304ZM681.202,455.884C680.453,464.958 679.739,472.939 672.139,479.397C667.845,483.025 662.27,484.771 656.672,484.242C649.798,483.643 643.472,480.246 639.178,474.846C635.063,469.72 633.719,465.125 632.888,458.752C627.632,464.415 625.996,465.887 623.874,473.22C626.528,482.134 629.933,486.287 638.29,490.72C670.845,505.294 696.87,487.795 716.562,462.395C705.759,460.001 692.187,457.295 681.202,455.884ZM354.142,1045.14C354.696,1069.21 355.565,1093.27 356.747,1117.32L375.859,1091.72C383.968,1080.96 391.995,1070.14 399.94,1059.26C385.865,1055 367.677,1050.05 354.142,1045.14ZM708.761,986.22C685.915,997.269 661.236,1003.77 636.809,1010.31L643.021,1013.45C664.92,1021.02 699.201,1018.23 709.237,992.868C709.902,991.188 710.332,988.175 709.711,986.484L708.761,986.22ZM340.381,401.478C330.645,402.908 326.235,404.722 317.468,408.736C344.887,408.378 366.939,415.437 389.917,430.623C394.519,433.764 397.19,435.638 401.432,439.387C392.093,422.661 379.333,408.561 360.251,403.121C353.793,401.316 347.049,400.758 340.381,401.478ZM670.154,1045.6C655.459,1050.28 640.712,1054.79 625.915,1059.13L651.962,1094.52L668.917,1117.35L671.277,1046.6C671.045,1046.38 670.402,1045.7 670.154,1045.6ZM479.905,227.792C498.748,248.557 504.329,268.058 512.292,294.59C515.085,284.701 518.018,275.234 521.909,265.705C528.237,251.127 533.764,239.313 544.911,227.65C528.808,228.957 515.044,234.303 498.869,230.097C494.089,228.855 484.968,228.015 479.905,227.792ZM465.041,457.462C454.536,469.343 447.818,476.094 433.786,484.056C434.093,484.875 433.933,484.891 434.457,485.326C436.338,485.132 439.878,484.779 441.558,484.165C450.801,480.786 464.589,468.265 465.566,458.163L465.041,457.462ZM447.007,1021.4C441.14,1026.36 437.109,1029.48 430.816,1033.85C485.8,1042.12 523.118,1044.26 578.907,1036.26C584.163,1035.45 589.976,1034.44 595.21,1033.79C588.775,1029.52 583.746,1025.93 577.628,1021.22C541.946,1025.87 508.521,1027.68 472.639,1023.94C464.973,1023.13 454.476,1021.63 447.007,1021.4ZM418.267,888.546C397.16,920.982 372.487,939.856 334.299,946.025C338.035,949.509 340.024,951.36 344.233,954.286C352.36,959.259 356.551,961.264 366.128,963.414C386.561,956.696 399.146,944.187 409.322,925.145C413.541,917.252 419.819,896.951 418.267,888.546ZM425.091,351.135C410.345,354.2 402.729,359.241 392.899,370.695C407.521,377.932 418.525,389.201 426.89,403.045C431.764,411.112 430.223,415.255 440.295,417.06C472.926,417.493 479.023,381.828 458.937,361.99C451.679,354.734 441.802,350.709 431.538,350.825C429.387,350.885 427.238,350.988 425.091,351.135ZM566.621,1171.92L550.781,1183.95C558.277,1188.25 570.047,1194.56 577.024,1199.07C577.212,1232.53 580.376,1250.97 554.76,1277.69C544.42,1288.48 526.24,1299.65 512.77,1306.22C481.791,1289.88 448.727,1267.06 448.545,1227.72C448.501,1218.23 448.402,1208.69 448.33,1199.2C456.945,1194.21 465.649,1189.37 474.439,1184.7C469.258,1180.55 464.017,1176.27 458.783,1172.21C450.019,1178.53 441.137,1184.69 432.141,1190.67C432.019,1231.91 426.842,1257.41 458.707,1289.59C475.458,1306.51 491.844,1314.99 512.372,1326.34C544.981,1309.51 578.097,1289.14 590.389,1252C595.367,1236.95 593.216,1207.62 593.404,1190.35L578.835,1180.52C574.81,1177.69 570.571,1174.82 566.621,1171.92ZM543.93,1068.72C543.164,1074.73 542.433,1080.43 541.952,1086.47C544.093,1088.72 546.114,1090.87 547.984,1093.36C569.4,1121.84 543.405,1160.56 509.799,1158.78C498.814,1158.21 488.522,1153.25 481.236,1145.01C464.832,1126.74 466.087,1103.68 482.938,1086.3C482.721,1083.6 482.107,1070.98 480.861,1069.52C466.867,1080.14 455.932,1091.14 453.402,1109.57C451.487,1124.46 455.532,1139.5 464.655,1151.42C474.377,1164.11 489.424,1173.21 505.34,1175.22C521.075,1177.21 536.948,1172.75 549.337,1162.85C571.361,1145.44 578.516,1118.35 566.577,1092.8C560.315,1082.08 553.991,1075.94 543.93,1068.72ZM499.828,499.805C433.4,505.371 389.627,544.126 366.007,605.457C351.345,643.528 342.03,681 334.66,721.138C326.714,682.417 328.189,656.16 341.828,617.943C321.915,643.638 308.027,666.916 298.408,697.937C281.607,692.472 270.068,685.611 259.203,671.199C263.954,714.989 275.263,733.279 300.269,768.612C289.512,797.04 282.066,814.505 295.01,845.416C299.986,857.298 307.236,864.306 316.763,872.459C305.35,850.545 303.085,825.003 310.467,801.423C313.771,790.798 318.69,781.871 325.52,773.118C325.784,798.138 327.402,820.49 346.451,840.555C358.569,853.318 383.978,858.035 398.666,845.24C403.594,840.947 408.309,826.155 412.051,820.102C436.717,770.577 443.352,749.126 491.028,720.368C495.726,709.409 497.514,696.36 493.328,684.866C482.33,654.661 429.935,657.949 434.121,624.489C426.842,617.707 408.398,602.422 409.388,591.747C414.901,532.308 474.867,511.809 525.306,515.464C554.25,518.644 581.136,527.735 600.108,551.129C610.782,564.291 617.087,580.455 615.6,597.532C609.454,607.614 600.286,615.795 591.578,623.643C591.08,631.7 589.626,641.13 582.595,645.993C552.684,666.679 516.801,672.699 534.018,719.867C542.823,726.171 551.112,730.668 559.696,737.636C586.28,759.211 599.273,790.633 613.794,820.617C616.361,825.92 623.392,842.216 626.675,845.326C633.243,851.547 647.759,853.913 656.647,852.231C668.989,849.895 678.168,843.288 685.221,833.119C698.42,814.088 699.913,795.155 699.976,773.207C723.066,801.561 725.158,839.423 710.043,871.911C726.486,858.947 733.933,842.177 736.756,821.533C739.319,802.781 732.228,786.039 725.01,769.04C750.141,734.022 760.879,714.687 765.506,671.077C754.09,684.45 743.66,692.01 726.764,698.155C718.809,672.992 701.626,637.803 683.861,618.559C693.631,651.36 701.019,685.507 690.394,719.4C677.804,652.503 658.702,565.729 599.395,525.261C573.832,507.817 530.275,495.337 499.828,499.805ZM360.493,711.379C363.127,710.938 365.795,711.951 367.473,714.029C369.152,716.107 369.58,718.928 368.594,721.41C367.609,723.892 365.362,725.651 362.715,726.012C358.707,726.558 355.002,723.788 354.395,719.79C353.788,715.791 356.503,712.046 360.493,711.379ZM662.344,711.27C666.288,710.92 669.806,713.738 670.326,717.661C670.846,721.585 668.183,725.221 664.285,725.91C661.609,726.383 658.889,725.35 657.202,723.22C655.515,721.09 655.133,718.207 656.207,715.711C657.281,713.215 659.637,711.51 662.344,711.27ZM424.829,686.642C428.519,685.184 432.701,686.909 434.289,690.545C435.877,694.18 434.3,698.42 430.722,700.135C428.292,701.299 425.421,701.044 423.234,699.471C421.047,697.898 419.894,695.257 420.226,692.584C420.558,689.911 422.323,687.632 424.829,686.642ZM646.073,665.632C648.633,664.83 651.427,665.484 653.364,667.339C655.302,669.195 656.076,671.957 655.385,674.549C654.693,677.14 652.646,679.15 650.042,679.795C646.181,680.75 642.26,678.466 641.187,674.638C640.114,670.809 642.278,666.821 646.073,665.632ZM596.464,686.583C600.18,685.24 604.293,687.071 605.781,690.731C607.268,694.391 605.599,698.572 601.999,700.201C599.542,701.313 596.674,700.991 594.524,699.364C592.374,697.736 591.287,695.062 591.692,692.397C592.096,689.731 593.928,687.5 596.464,686.583ZM627.957,699.332C631.669,697.86 635.876,699.617 637.439,703.289C639.002,706.962 637.35,711.211 633.716,712.864C631.284,713.97 628.444,713.671 626.295,712.083C624.147,710.495 623.029,707.867 623.374,705.219C623.719,702.57 625.474,700.316 627.957,699.332ZM374.789,665.583C377.403,664.933 380.162,665.767 381.977,667.756C383.793,669.745 384.371,672.569 383.485,675.112C382.598,677.654 380.389,679.506 377.73,679.936C373.849,680.564 370.164,678.02 369.375,674.169C368.586,670.319 370.974,666.531 374.789,665.583ZM634.024,631.756C636.467,630.578 639.362,630.85 641.542,632.463C643.723,634.075 644.83,636.763 644.419,639.443C644.007,642.123 642.144,644.355 639.58,645.239C635.923,646.5 631.916,644.693 630.443,641.116C628.969,637.54 630.54,633.436 634.024,631.756ZM391.809,699.338C395.521,697.968 399.649,699.805 401.116,703.479C402.583,707.153 400.856,711.326 397.221,712.889C394.783,713.937 391.968,713.58 389.869,711.956C387.77,710.333 386.718,707.698 387.121,705.076C387.525,702.454 389.32,700.257 391.809,699.338ZM385.746,631.779C389.391,630.011 393.779,631.556 395.511,635.217C397.244,638.879 395.656,643.25 391.977,644.946C388.348,646.619 384.049,645.058 382.34,641.447C380.631,637.836 382.151,633.522 385.746,631.779ZM612.592,655.01C615.219,654.66 617.828,655.77 619.398,657.904C620.969,660.038 621.251,662.859 620.135,665.262C619.019,667.665 616.682,669.269 614.037,669.447C610.128,669.71 606.716,666.825 606.326,662.928C605.935,659.03 608.708,655.527 612.592,655.01ZM411.421,655.024C414.04,654.65 416.655,655.734 418.242,657.85C419.829,659.967 420.136,662.78 419.043,665.188C417.95,667.597 415.63,669.219 412.992,669.419C409.094,669.714 405.665,666.866 405.241,662.981C404.817,659.096 407.551,655.576 411.421,655.024ZM293.212,239.354C242.993,279.639 205.095,343.911 191.449,407.069C189.284,417.09 187.845,434.821 186.408,445.841C183.449,468.532 180.906,486.41 175.226,508.74L175.788,509.254C202.069,465.66 207.245,431.829 222.457,385.332C232.662,354.238 245.454,324.053 260.7,295.094C268.408,280.204 276.82,265.689 285.908,251.598C287.489,249.162 293.418,240.992 293.286,239.399L293.212,239.354ZM732.894,241.069C756.102,277.344 770.786,304.661 787.937,344.755C794.206,359.739 799.811,374.992 804.735,390.471C816.481,426.993 824.6,464.845 843.261,498.868C844.549,501.217 847.923,507.297 849.604,508.808C841.043,471.927 839.215,441.823 833.614,405.773C827.59,366.996 798.65,314.602 774.821,284.226C767.672,275.113 744.649,247.8 734.767,242.034C734.161,241.677 733.536,241.355 732.894,241.069ZM587.334,351.154C575.975,353.666 567.436,358.474 560.973,368.523C555.628,376.656 553.797,386.603 555.896,396.106C559.38,411.743 572.395,419.141 587.846,416.465C591.446,415.842 592.808,412.775 594.048,409.833C603.049,393.126 614.169,379.005 631.764,370.639C622.44,360.178 611.768,351.823 597.104,350.914C593.847,350.71 590.578,350.79 587.334,351.154ZM256.264,476.848C243.726,511.147 238.13,572.955 247.175,607.998C250.13,601.034 253.138,593.56 256.585,586.88C265.285,570.287 276.204,555.381 291.854,544.673C281.278,530.536 273.169,517.881 265.94,501.638C264.129,497.569 257.874,478.594 256.264,476.848ZM768.281,476.718C760.466,503.419 750.199,522.582 733.192,544.88C748.551,555.859 760.779,570.656 768.665,587.807C771.837,594.497 774.792,601.287 777.526,608.167C784.846,571.329 783.411,529.54 774.074,493.142C773.219,489.807 770.064,479.101 768.281,476.718ZM509.149,752.495C475.32,757.062 456.677,786.412 446.82,816.216C460.762,797.787 475.382,786.519 499.213,782.657C502.513,782.122 512.806,781.486 516.254,781.964C543.307,783.313 561.981,794.541 578.078,815.865C568.806,785.178 544.462,751.722 509.149,752.495ZM314.232,985.392C318.3,1018.82 358.597,1021.22 384.317,1012.6L387.56,1011.06L387.766,1010.45C383.649,1008.64 377.096,1007.41 372.584,1006.14C352.781,1000.57 332.802,994.335 314.232,985.392ZM832.104,283.367C832.792,305.245 838.62,324.913 851.838,342.557C855.214,347.064 859.316,353.339 864.063,356.342L864.95,356.099C865.488,354.382 865.978,352.947 866.318,351.18L870.85,331.751C858.727,320.964 849.89,312.437 840.862,298.709C838.898,295.722 833.632,284.977 832.104,283.367ZM848.814,901.107L839.191,917.473C849.397,921.727 859.668,925.822 870,929.757L876.861,931.992C873.593,928.28 851.533,902.936 848.814,901.107ZM175.53,901.431C166.746,911.195 157.438,921.962 148.473,931.439C151.165,930.697 153.994,930.003 156.585,928.997L186.051,917.664C183.938,914.293 177.715,903.941 175.53,901.431ZM507.383,1092.16C499.228,1094.95 496.429,1096.97 491.315,1103.99C500.64,1103.6 509.972,1103.41 519.305,1103.4L534.449,1103.67C525.551,1093.28 521.312,1090.65 507.383,1092.16ZM505.793,816.291C499.266,817.059 490.922,818.261 484.618,820.186C498.544,824.726 503.117,826.606 517.801,825.549C525.489,824.419 531.786,823.073 539.193,820.48C529.972,817.704 515.23,814.63 505.793,816.291ZM536.499,598.41C535.601,619.448 548.268,631.187 567.95,620.268L569.277,618.921C567.987,618.073 565.033,618.287 563.275,618.2C553.347,617.709 546.194,613.536 540.436,605.496C538.763,603.16 537.839,600.485 536.499,598.41ZM488.705,597.536C478.094,624.577 459.894,615.431 455.972,618.982C456.963,619.748 457.659,620.329 458.739,620.985C465.894,623.644 471.893,625.231 479.309,622.153C487.817,618.621 490.644,605.621 488.705,597.536ZM559.032,457.191C564.003,472.111 575.485,485.991 592.547,484.971C589.541,481.859 579.762,476.586 575.598,473.311C571.686,470.235 562.136,458.945 559.032,457.191ZM493.957,1134.82C504.532,1142.69 514.655,1144.3 526.567,1137.78L529.137,1135.53L528.842,1134.87C519.032,1134.51 503.755,1134.42 493.957,1134.82ZM500.41,543.31C482.114,544.896 462.666,547.718 449.865,562.731C448.752,564.055 447.679,565.412 446.649,566.8C474.544,546.725 493.065,565.288 523.067,559.97C544.736,556.139 559.004,554.526 578.746,566.962C562.836,549.116 547.643,544.596 524.18,543.178C518.099,542.81 506.404,542.647 500.41,543.31ZM776.239,986.884L743.456,1010.14C754.016,1017.51 764.635,1024.8 775.314,1032.01C781.714,1036.33 788.495,1040.76 794.773,1045.2C792.696,1038.37 778.12,988.6 776.239,986.884ZM248.815,986.745C242.592,1006.15 237.143,1026.15 230.758,1045.39L250.923,1031.67C260.968,1024.68 271.811,1017.41 281.65,1010.24L248.815,986.745ZM816.479,879.508C799.285,905.817 789.14,925.383 764.995,946.719L770.273,951.795L775.802,956.673C800.919,937.373 811.844,918.786 816.471,886.727C816.826,884.268 817.185,881.869 816.479,879.508ZM208.539,879.577C208.756,910.283 225.129,939.014 249.918,956.615L255.255,951.887L260.191,946.717C244.995,932.572 236.078,922.473 224.694,904.77C222.065,900.681 210.887,882.229 208.539,879.577ZM192.481,284.045C181.591,304.433 172.545,317.254 154.737,332.135L159.256,354.642L160.097,356.583C164.603,355.767 172.795,343.054 175.807,339.258C185.189,327.44 194.958,299.157 192.481,284.045ZM673.441,401.44C654.911,404.563 641.01,413.93 630.095,429.219C627.949,432.18 626.007,435.284 624.282,438.508C632.09,432.279 638.962,427.843 647.705,422.951C670.066,412.537 684.377,408.354 708.91,408.714C694.948,401.962 689.198,400.656 673.441,401.44ZM606.842,888.563C607.924,920.18 628.547,954.785 660.359,963.199C669.356,961.071 673.669,959.28 681.564,954.187C684.78,951.58 688.086,949.043 690.911,946.021C650.074,938.484 633.489,923.755 607.831,889.864C607.359,889.241 607.395,889.159 606.842,888.563Z" style="fill:rgb(21,30,29);"  data-color="color-2"/>
        <path d="M513.533,172.012C518.628,170.981 542.373,166.195 547.379,165.54C584.357,160.704 622.89,158.411 660.111,162.925C668.992,156.474 676.64,153.711 683.47,152.9C692.18,151.866 700.096,153.843 708.309,158.055C715.035,161.505 722.192,166.913 731.617,171.945C739.706,176.179 747.89,180.229 756.175,184.096L756.186,184.101C790.861,200.35 826.623,214.172 863.234,225.473C868.922,227.169 874.591,228.607 880.322,230.135C890.357,232.81 900.728,234.29 910.305,237.322C922.911,241.315 934.291,247.657 943.319,259.612L943.36,259.667C949.73,268.244 953.783,278.318 955.13,288.915C956.773,301.611 953.956,323.549 951.954,336.16C945.575,376.334 934.823,415.638 922.552,454.374C915.996,475.069 908.366,495.874 903.098,516.959C902.204,522.594 902.012,528.052 902.458,533.787C902.874,539.136 905.165,548.349 904.29,555.218C903.349,562.62 900.032,568.585 894.578,572.651C888.281,577.345 875.049,578.852 867.626,576.811L867.624,576.811C858.8,574.382 850.07,570.217 841.864,564.902C845.67,578.933 851.673,592.445 860.424,607.447C866.736,618.265 877.548,633.553 880.398,645.198C887.122,672.665 882.183,696.819 870.588,720.5C884.802,752.471 878.137,781.444 859.825,809.588C866,828.895 870.881,846.455 872.669,866.962C892.904,894.712 914.687,923.529 934.083,951.454L958.102,986.033L916.807,977.826C897.572,974.003 870.773,970.773 848.368,967.786C845.054,975.347 841.799,980.861 836.098,988.884C836.005,997.714 833.353,1005.13 828.852,1012.61L855.298,1128.6L821.853,1109.77C800.509,1097.76 779.273,1085.56 758.151,1073.16C745.032,1082.6 727.595,1092.69 713.366,1099.65C711.469,1126.16 707.353,1156.15 703.845,1181.35L698.651,1218.67L674.108,1190.08C657.592,1170.84 640.85,1151.8 623.884,1132.95C617.891,1134.45 611.837,1135.89 605.78,1137.11C604.674,1142.61 603.095,1147.38 600.841,1152.32C607.575,1156.95 614.41,1161.4 621.285,1165.93L628.856,1170.92L628.929,1179.99C629.092,1200.05 629.006,1220.11 628.67,1240.28L628.667,1240.39C628.448,1247.87 626.408,1256.82 624.052,1263.94L624.052,1263.95C608.009,1312.46 563.688,1341.32 520.602,1363.22L513.385,1366.89L505.987,1363.6C483.879,1353.77 451.18,1332.64 433.86,1315.28C390.52,1271.82 396.799,1236.49 396.928,1180.14L396.949,1170.81L404.834,1165.82C411.528,1161.58 418.136,1157.21 424.654,1152.71C422.596,1147.67 421.19,1142.7 420.112,1137.29C413.66,1136.03 407.22,1134.51 400.835,1132.94C384.44,1151 366.862,1172.49 351.704,1190.43L327.053,1219.61L321.875,1181.77C318.146,1154.52 314.95,1127.19 312.288,1099.82C298.71,1093.09 280.135,1082.28 267.216,1073.19C246.284,1085.63 224.484,1098.67 203.376,1109.8L170.263,1127.25L178.91,1090.83C185.013,1065.13 190.787,1038.98 196.556,1013.11C191.472,1005.09 189.044,998.033 189.207,988.418C183.916,980.986 180.621,975.301 177.314,968.035C172.411,968.71 167.457,969.323 163.148,969.926L163.113,969.931C144.77,972.42 126.444,975.035 108.136,977.777L70.264,983.448L91.46,951.555C98.063,941.618 107.185,929.642 114.314,919.787C127.089,902.035 139.954,884.349 152.91,866.731C154.735,846.547 159.803,828.805 165.862,809.801C146.612,782.103 141.398,752.416 154.514,720.51C142.279,693.454 136.327,661.532 149.34,633.14C153.209,624.7 163.586,612.101 168.737,601.955C176.053,587.546 180.952,575.936 184.065,564.227C182.691,565.142 181.298,566.03 179.884,566.892C174.487,570.183 167.191,574.13 159.902,576.204C152.889,578.2 145.827,578.512 139.511,576.756C132.081,574.692 125.388,569.727 122.03,562.541C119.906,557.998 119.197,552.762 119.903,547.118C120.493,542.411 123.153,537.069 123.294,532.804C123.47,527.447 122.484,522.013 121.407,516.777C115.832,489.686 105.047,463.76 96.959,437.357C89.862,414.188 75.033,360.909 70.993,320.688C68.964,300.49 70.016,283.144 74.381,272.539C80.062,258.74 91.555,247.28 105.03,240.995C118.469,234.727 135.288,232.993 149.645,229.156C170.71,223.282 191.484,216.415 211.902,208.573L211.907,208.571C238.899,198.221 265.309,186.409 291.022,173.184L291.028,173.181C302.791,167.144 314.887,158.529 326.014,153.917L328.33,152.956L330.825,152.706C345.852,151.198 354.659,154.769 364.941,162.781C416.306,157.265 463.487,161.861 513.533,172.012ZM664.996,180.729C627.051,175.165 587.469,177.44 549.584,182.396C543.227,183.228 515.535,189.776 512.506,189.153C461.01,178.556 412.82,173.848 359.69,180.506C350.69,172.689 344.719,168.397 332.523,169.621C321.78,174.074 310.148,182.476 298.791,188.305C272.535,201.809 245.562,213.873 217.993,224.444C197.05,232.488 175.737,239.532 154.125,245.555C140.668,249.161 124.82,250.523 112.216,256.402C102.526,260.921 94.186,269.088 90.101,279.01C78.03,308.335 103.359,400.206 113.214,432.378C121.457,459.29 132.377,485.738 138.058,513.351C139.402,519.885 140.505,526.679 140.285,533.364C140.063,540.095 134.635,549.363 137.43,555.342C138.671,557.998 141.317,559.614 144.063,560.377C152.732,562.786 163.908,556.722 171.035,552.377C184.81,543.979 196.368,532.616 205.69,519.512C205.991,556.209 201.01,575.94 183.895,609.651C178.839,619.61 168.592,631.939 164.794,640.224C152.759,666.479 160.97,696.201 173.276,720.303C157.67,751.55 163.662,780.204 184.727,806.68C177.446,829.16 170.955,849.05 169.49,872.882C155.588,891.757 141.791,910.709 128.098,929.737C121.09,939.425 112.111,951.194 105.618,960.964C124.003,958.211 142.407,955.585 160.827,953.085C169.09,951.929 180.001,950.741 187.835,949.109C193.763,964.143 196.917,970.475 206.603,983.403C205.22,994.632 208.143,1000.6 214.765,1009.57C208.439,1037.86 202.141,1066.58 195.45,1094.76C219.661,1082 244.787,1066.68 268.436,1052.71C280.658,1063.56 313.493,1082.45 328.287,1088.47C331.101,1118.87 334.579,1149.21 338.718,1179.46C356.154,1158.82 376.77,1133.55 395.175,1114.02C408.257,1117.27 421.681,1120.79 435.035,1122.55C436.733,1136.48 438.815,1145.67 446.539,1158.05C435.908,1165.77 425.032,1173.15 413.928,1180.18C413.811,1231.33 406.552,1263.82 445.897,1303.27C461.975,1319.39 492.373,1338.94 512.897,1348.07C552.113,1328.13 593.315,1302.77 607.911,1258.61C609.785,1252.94 611.5,1245.84 611.674,1239.89C612.006,1219.97 612.091,1200.05 611.93,1180.13C600.671,1172.71 589.524,1165.48 578.727,1157.39C586.386,1144.79 589.431,1137.44 590.556,1122.47C603.61,1120.71 616.846,1117.22 629.63,1113.95C649.045,1135.38 668.173,1157.07 687.007,1179.01C690.915,1150.93 695.615,1116.82 697.017,1088.47C714.32,1081.08 742.504,1065.08 756.82,1052.65C781.128,1067.01 805.587,1081.11 830.192,1094.96L810.655,1009.27C816.507,1001.19 820.164,994.072 818.774,983.822C828.859,970.113 831.609,964.89 837.497,949.125C861.991,952.668 896.634,956.484 920.121,961.152C899.88,932.011 877.029,901.899 856.074,873.05C854.616,848.994 848.507,829.61 841.074,806.868C860.722,779.677 868.898,751.858 851.52,720.31C863.911,697.872 870.276,675.344 863.886,649.24C861.359,638.918 851.335,625.603 845.74,616.013C826.546,583.112 819.417,556.735 819.49,519.296C831.171,537.16 851.238,554.671 872.135,560.42C875.499,561.345 881.563,561.15 884.417,559.022C890.492,554.493 886.009,541.525 885.509,535.107C884.937,527.754 885.221,520.769 886.433,513.527C891.792,491.873 899.613,470.495 906.346,449.24C918.362,411.31 928.917,372.832 935.164,333.494C936.964,322.16 939.754,302.45 938.266,291.063C937.288,283.36 934.342,276.037 929.712,269.802C916.404,252.181 895.504,251.775 875.943,246.561C870.018,244.982 864.159,243.491 858.277,241.735C820.908,230.203 784.385,216.089 748.973,199.495C740.444,195.514 732.008,191.339 723.67,186.973C700.28,174.5 691.035,159.577 667.157,178.945C666.431,179.534 665.711,180.129 664.996,180.729ZM559.032,457.191C562.136,458.945 571.686,470.235 575.598,473.311C579.762,476.586 589.541,481.859 592.547,484.971C575.485,485.991 564.003,472.111 559.032,457.191ZM447.007,1021.4C454.476,1021.63 464.973,1023.13 472.639,1023.94C508.521,1027.68 541.946,1025.87 577.628,1021.22C583.746,1025.93 588.775,1029.52 595.21,1033.79C589.976,1034.44 584.163,1035.45 578.907,1036.26C523.118,1044.26 485.8,1042.12 430.816,1033.85C437.109,1029.48 441.14,1026.36 447.007,1021.4ZM418.267,888.546C419.819,896.951 413.541,917.252 409.322,925.145C399.146,944.187 386.561,956.696 366.128,963.414C356.551,961.264 352.36,959.259 344.233,954.286C340.024,951.36 338.035,949.509 334.299,946.025C372.487,939.856 397.16,920.982 418.267,888.546ZM606.842,888.563C607.395,889.159 607.359,889.241 607.831,889.864C633.489,923.755 650.074,938.484 690.911,946.021C688.086,949.043 684.78,951.58 681.564,954.187C673.669,959.28 669.356,961.071 660.359,963.199C628.547,954.785 607.924,920.18 606.842,888.563ZM465.041,457.462L465.566,458.163C464.589,468.265 450.801,480.786 441.558,484.165C439.878,484.779 436.338,485.132 434.457,485.326C433.933,484.891 434.093,484.875 433.786,484.056C447.818,476.094 454.536,469.343 465.041,457.462ZM479.905,227.792C484.968,228.015 494.089,228.855 498.869,230.097C515.044,234.303 528.808,228.957 544.911,227.65C533.764,239.313 528.237,251.127 521.909,265.705C518.018,275.234 515.085,284.701 512.292,294.59C504.329,268.058 498.748,248.557 479.905,227.792ZM832.104,283.367C833.632,284.977 838.898,295.722 840.862,298.709C849.89,312.437 858.727,320.964 870.85,331.751L866.318,351.18C865.978,352.947 865.488,354.382 864.95,356.099L864.063,356.342C859.316,353.339 855.214,347.064 851.838,342.557C838.62,324.913 832.792,305.245 832.104,283.367ZM708.761,986.22L709.711,986.484C710.332,988.175 709.902,991.188 709.237,992.868C699.201,1018.23 664.92,1021.02 643.021,1013.45L636.809,1010.31C661.236,1003.77 685.915,997.269 708.761,986.22ZM192.481,284.045C194.958,299.157 185.189,327.44 175.807,339.258C172.795,343.054 164.603,355.767 160.097,356.583L159.256,354.642L154.737,332.135C172.545,317.254 181.591,304.433 192.481,284.045ZM673.441,401.44C689.198,400.656 694.948,401.962 708.91,408.714C684.377,408.354 670.066,412.537 647.705,422.951C638.962,427.843 632.09,432.279 624.282,438.508C626.007,435.284 627.949,432.18 630.095,429.219C641.01,413.93 654.911,404.563 673.441,401.44ZM340.381,401.478C347.049,400.758 353.793,401.316 360.251,403.121C379.333,408.561 392.093,422.661 401.432,439.387C397.19,435.638 394.519,433.764 389.917,430.623C366.939,415.437 344.887,408.378 317.468,408.736C326.235,404.722 330.645,402.908 340.381,401.478ZM507.383,1092.16C521.312,1090.65 525.551,1093.28 534.449,1103.67L519.305,1103.4C509.972,1103.41 500.64,1103.6 491.315,1103.99C496.429,1096.97 499.228,1094.95 507.383,1092.16ZM505.793,816.291C515.23,814.63 529.972,817.704 539.193,820.48C531.786,823.073 525.489,824.419 517.801,825.549C503.117,826.606 498.544,824.726 484.618,820.186C490.922,818.261 499.266,817.059 505.793,816.291ZM536.499,598.41C537.839,600.485 538.763,603.16 540.436,605.496C546.194,613.536 553.347,617.709 563.275,618.2C565.033,618.287 567.987,618.073 569.277,618.921L567.95,620.268C548.268,631.187 535.601,619.448 536.499,598.41ZM488.705,597.536C490.644,605.621 487.817,618.621 479.309,622.153C471.893,625.231 465.894,623.644 458.739,620.985C457.659,620.329 456.963,619.748 455.972,618.982C459.894,615.431 478.094,624.577 488.705,597.536ZM500.41,543.31C506.404,542.647 518.099,542.81 524.18,543.178C547.643,544.596 562.836,549.116 578.746,566.962C559.004,554.526 544.736,556.139 523.067,559.97C493.065,565.288 474.544,546.725 446.649,566.8C447.679,565.412 448.752,564.055 449.865,562.731C462.666,547.718 482.114,544.896 500.41,543.31ZM816.479,879.508C817.185,881.869 816.826,884.268 816.471,886.727C811.844,918.786 800.919,937.373 775.802,956.673L770.273,951.795L764.995,946.719C789.14,925.383 799.285,905.817 816.479,879.508ZM208.539,879.577C210.887,882.229 222.065,900.681 224.694,904.77C236.078,922.473 244.995,932.572 260.191,946.717L255.255,951.887L249.918,956.615C225.129,939.014 208.756,910.283 208.539,879.577ZM566.621,1171.92C570.571,1174.82 574.81,1177.69 578.835,1180.52L593.404,1190.35C593.216,1207.62 595.367,1236.95 590.389,1252C578.097,1289.14 544.981,1309.51 512.372,1326.34C491.844,1314.99 475.458,1306.51 458.707,1289.59C426.842,1257.41 432.019,1231.91 432.141,1190.67C441.137,1184.69 450.019,1178.53 458.783,1172.21C464.017,1176.27 469.258,1180.55 474.439,1184.7C465.649,1189.37 456.945,1194.21 448.33,1199.2C448.402,1208.69 448.501,1218.23 448.545,1227.72C448.727,1267.06 481.791,1289.88 512.77,1306.22C526.24,1299.65 544.42,1288.48 554.76,1277.69C580.376,1250.97 577.212,1232.53 577.024,1199.07C570.047,1194.56 558.277,1188.25 550.781,1183.95L566.621,1171.92ZM293.212,239.354L293.286,239.399C293.418,240.992 287.489,249.162 285.908,251.598C276.82,265.689 268.408,280.204 260.7,295.094C245.454,324.053 232.662,354.238 222.457,385.332C207.245,431.829 202.069,465.66 175.788,509.254L175.226,508.74C180.906,486.41 183.449,468.532 186.408,445.841C187.845,434.821 189.284,417.09 191.449,407.069C205.095,343.911 242.993,279.639 293.212,239.354ZM732.894,241.069C733.536,241.355 734.161,241.677 734.767,242.034C744.649,247.8 767.672,275.113 774.821,284.226C798.65,314.602 827.59,366.996 833.614,405.773C839.215,441.823 841.043,471.927 849.604,508.808C847.923,507.297 844.549,501.217 843.261,498.868C824.6,464.845 816.481,426.993 804.735,390.471C799.811,374.992 794.206,359.739 787.937,344.755C770.786,304.661 756.102,277.344 732.894,241.069ZM543.93,1068.72C553.991,1075.94 560.315,1082.08 566.577,1092.8C578.516,1118.35 571.361,1145.44 549.337,1162.85C536.948,1172.75 521.075,1177.21 505.34,1175.22C489.424,1173.21 474.377,1164.11 464.655,1151.42C455.532,1139.5 451.487,1124.46 453.402,1109.57C455.932,1091.14 466.867,1080.14 480.861,1069.52C482.107,1070.98 482.721,1083.6 482.938,1086.3C466.087,1103.68 464.832,1126.74 481.236,1145.01C488.522,1153.25 498.814,1158.21 509.799,1158.78C543.405,1160.56 569.4,1121.84 547.984,1093.36C546.114,1090.87 544.093,1088.72 541.952,1086.47C542.433,1080.43 543.164,1074.73 543.93,1068.72ZM425.091,351.135C427.238,350.988 429.387,350.885 431.538,350.825C441.802,350.709 451.679,354.734 458.937,361.99C479.023,381.828 472.926,417.493 440.295,417.06C430.223,415.255 431.764,411.112 426.89,403.045C418.525,389.201 407.521,377.932 392.899,370.695C402.729,359.241 410.345,354.2 425.091,351.135ZM587.334,351.154C590.578,350.79 593.847,350.71 597.104,350.914C611.768,351.823 622.44,360.178 631.764,370.639C614.169,379.005 603.049,393.126 594.048,409.833C592.808,412.775 591.446,415.842 587.846,416.465C572.395,419.141 559.38,411.743 555.896,396.106C553.797,386.603 555.628,376.656 560.973,368.523C567.436,358.474 575.975,353.666 587.334,351.154ZM256.264,476.848C257.874,478.594 264.129,497.569 265.94,501.638C273.169,517.881 281.278,530.536 291.854,544.673C276.204,555.381 265.285,570.287 256.585,586.88C253.138,593.56 250.13,601.034 247.175,607.998C238.13,572.955 243.726,511.147 256.264,476.848ZM768.281,476.718C770.064,479.101 773.219,489.807 774.074,493.142C783.411,529.54 784.846,571.329 777.526,608.167C774.792,601.287 771.837,594.497 768.665,587.807C760.779,570.656 748.551,555.859 733.192,544.88C750.199,522.582 760.466,503.419 768.281,476.718ZM509.149,752.495C544.462,751.722 568.806,785.178 578.078,815.865C561.981,794.541 543.307,783.313 516.254,781.964C512.806,781.486 502.513,782.122 499.213,782.657C475.382,786.519 460.762,797.787 446.82,816.216C456.677,786.412 475.32,757.062 509.149,752.495ZM314.232,985.392C332.802,994.335 352.781,1000.57 372.584,1006.14C377.096,1007.41 383.649,1008.64 387.766,1010.45L387.56,1011.06L384.317,1012.6C358.597,1021.22 318.3,1018.82 314.232,985.392ZM499.828,499.805C530.275,495.337 573.832,507.817 599.395,525.261C658.702,565.729 677.804,652.503 690.394,719.4C701.019,685.507 693.631,651.36 683.861,618.559C701.626,637.803 718.809,672.992 726.764,698.155C743.66,692.01 754.09,684.45 765.506,671.077C760.879,714.687 750.141,734.022 725.01,769.04C732.228,786.039 739.319,802.781 736.756,821.533C733.933,842.177 726.486,858.947 710.043,871.911C725.158,839.423 723.066,801.561 699.976,773.207C699.913,795.155 698.42,814.088 685.221,833.119C678.168,843.288 668.989,849.895 656.647,852.231C647.759,853.913 633.243,851.547 626.675,845.326C623.392,842.216 616.361,825.92 613.794,820.617C599.273,790.633 586.28,759.211 559.696,737.636C551.112,730.668 542.823,726.171 534.018,719.867C516.801,672.699 552.684,666.679 582.595,645.993C589.626,641.13 591.08,631.7 591.578,623.643C600.286,615.795 609.454,607.614 615.6,597.532C617.087,580.455 610.782,564.291 600.108,551.129C581.136,527.735 554.25,518.644 525.306,515.464C474.867,511.809 414.901,532.308 409.388,591.747C408.398,602.422 426.842,617.707 434.121,624.489C429.935,657.949 482.33,654.661 493.328,684.866C497.514,696.36 495.726,709.409 491.028,720.368C443.352,749.126 436.717,770.577 412.051,820.102C408.309,826.155 403.594,840.947 398.666,845.24C383.978,858.035 358.569,853.318 346.451,840.555C327.402,820.49 325.784,798.138 325.52,773.118C318.69,781.871 313.771,790.798 310.467,801.423C303.085,825.003 305.35,850.545 316.763,872.459C307.236,864.306 299.986,857.298 295.01,845.416C282.066,814.505 289.512,797.04 300.269,768.612C275.263,733.279 263.954,714.989 259.203,671.199C270.068,685.611 281.607,692.472 298.408,697.937C308.027,666.916 321.915,643.638 341.828,617.943C328.189,656.16 326.714,682.417 334.66,721.138C342.03,681 351.345,643.528 366.007,605.457C389.627,544.126 433.4,505.371 499.828,499.805ZM646.073,665.632C642.278,666.821 640.114,670.809 641.187,674.638C642.26,678.466 646.181,680.75 650.042,679.795C652.646,679.15 654.693,677.14 655.385,674.549C656.076,671.957 655.302,669.195 653.364,667.339C651.427,665.484 648.633,664.83 646.073,665.632ZM424.829,686.642C422.323,687.632 420.558,689.911 420.226,692.584C419.894,695.257 421.047,697.898 423.234,699.471C425.421,701.044 428.292,701.299 430.722,700.135C434.3,698.42 435.877,694.18 434.289,690.545C432.701,686.909 428.519,685.184 424.829,686.642ZM662.344,711.27C659.637,711.51 657.281,713.215 656.207,715.711C655.133,718.207 655.515,721.09 657.202,723.22C658.889,725.35 661.609,726.383 664.285,725.91C668.183,725.221 670.846,721.585 670.326,717.661C669.806,713.738 666.288,710.92 662.344,711.27ZM360.493,711.379C356.503,712.046 353.788,715.791 354.395,719.79C355.002,723.788 358.707,726.558 362.715,726.012C365.362,725.651 367.609,723.892 368.594,721.41C369.58,718.928 369.152,716.107 367.473,714.029C365.795,711.951 363.127,710.938 360.493,711.379ZM374.789,665.583C370.974,666.531 368.586,670.319 369.375,674.169C370.164,678.02 373.849,680.564 377.73,679.936C380.389,679.506 382.598,677.654 383.485,675.112C384.371,672.569 383.793,669.745 381.977,667.756C380.162,665.767 377.403,664.933 374.789,665.583ZM627.957,699.332C625.474,700.316 623.719,702.57 623.374,705.219C623.029,707.867 624.147,710.495 626.295,712.083C628.444,713.671 631.284,713.97 633.716,712.864C637.35,711.211 639.002,706.962 637.439,703.289C635.876,699.617 631.669,697.86 627.957,699.332ZM596.464,686.583C593.928,687.5 592.096,689.731 591.692,692.397C591.287,695.062 592.374,697.736 594.524,699.364C596.674,700.991 599.542,701.313 601.999,700.201C605.599,698.572 607.268,694.391 605.781,690.731C604.293,687.071 600.18,685.24 596.464,686.583ZM391.809,699.338C389.32,700.257 387.525,702.454 387.121,705.076C386.718,707.698 387.77,710.333 389.869,711.956C391.968,713.58 394.783,713.937 397.221,712.889C400.856,711.326 402.583,707.153 401.116,703.479C399.649,699.805 395.521,697.968 391.809,699.338ZM385.746,631.779C382.151,633.522 380.631,637.836 382.34,641.447C384.049,645.058 388.348,646.619 391.977,644.946C395.656,643.25 397.244,638.879 395.511,635.217C393.779,631.556 389.391,630.011 385.746,631.779ZM612.592,655.01C608.708,655.527 605.935,659.03 606.326,662.928C606.716,666.825 610.128,669.71 614.037,669.447C616.682,669.269 619.019,667.665 620.135,665.262C621.251,662.859 620.969,660.038 619.398,657.904C617.828,655.77 615.219,654.66 612.592,655.01ZM411.421,655.024C407.551,655.576 404.817,659.096 405.241,662.981C405.665,666.866 409.094,669.714 412.992,669.419C415.63,669.219 417.95,667.597 419.043,665.188C420.136,662.78 419.829,659.967 418.242,657.85C416.655,655.734 414.04,654.65 411.421,655.024ZM634.024,631.756C630.54,633.436 628.969,637.54 630.443,641.116C631.916,644.693 635.923,646.5 639.58,645.239C642.144,644.355 644.007,642.123 644.419,639.443C644.83,636.763 643.723,634.075 641.542,632.463C639.362,630.85 636.467,630.578 634.024,631.756Z" style="fill:rgb(214,139,33);"  data-color="color-1"/>
    </g>
</svg>
