<svg width="100%" height="100%" viewBox="0 0 894 997" version="1.1" xmlns="http://www.w3.org/2000/svg" xmlns:xlink="http://www.w3.org/1999/xlink" xml:space="preserve" xmlns:serif="http://www.serif.com/" style="fill-rule:evenodd;clip-rule:evenodd;stroke-linejoin:round;stroke-miterlimit:2;">
    <g transform="matrix(1,0,0,1,-46.883,-16.5109)">
        <path d="M409.98,422.447C411.587,421.082 420.921,413.152 422.68,411.662L422.72,411.629C431.914,403.978 441.163,396.391 450.49,388.849L450.515,388.829C469.041,374.016 488.416,361.309 508.395,348.736C509.436,345.476 510.395,342.174 511.481,338.945C526.417,294.542 545.27,247.948 570.693,208.064C560.107,181.881 562.556,144.611 572.066,119.369C584.481,86.417 609.431,44.992 635.226,21.062L640.133,16.511L646.583,18.293C650.251,19.307 655.61,23.234 658.584,25.669C682.231,45.027 697.372,67.502 709.346,93.292C723.178,65.49 739.204,47.616 769.478,25.062L780.872,16.573L787.334,29.227C798.625,51.335 806.215,86.839 805.789,112.008C805.661,119.551 804.808,126.69 803.395,133.82C809.063,136.275 814.448,139.348 819.907,142.408C841.703,154.565 860.645,168.055 876.787,187.32C883.677,195.544 887.091,199.777 888.455,204.353C889.289,207.152 889.564,210.248 888.97,214.57C892.501,215.729 895.883,217.523 899.717,220.721C908.881,228.365 911.383,237.455 915.998,247.569C918.759,253.621 922.547,259.451 924.914,265.696C932.728,286.317 940.919,313.17 940.612,338.026C940.384,356.478 935.564,373.859 923.702,387.684C911.081,402.393 897.666,407.812 880.176,409.731C870.015,421.022 858.317,425.857 844.313,429.702C841.435,446.459 834.926,467.569 828.79,483.071C838.746,502.105 846.43,522.25 851.689,543.125L851.696,543.156C866.594,603.652 857.726,647.359 827.037,699.162C827.385,715.324 826.904,729.984 824.712,746.316C818.592,791.902 802.392,837.515 796.837,883.085C796.837,883.085 806.187,899.823 806.187,899.823C819.054,900.638 829.666,903.014 840.196,912.814C858.971,930.286 865.906,964.741 866.861,989.538L867.321,1001.5L855.366,1001.99C845.534,1002.4 834.641,1001.97 824.708,1001.94L762.371,1001.95C749.441,1001.98 735.811,1001.74 722.968,1002.46L710.497,1003.15L710.299,990.666C710.114,978.964 710.846,967.093 710.475,954.698L710.459,954.179L710.489,953.661C710.967,945.207 708.714,937.717 702.369,931.905C698.944,928.767 694.594,926.149 691,922.48L688.859,920.295L688.025,917.351C686.601,912.321 684.568,899.338 683.494,893.481L674.072,841.164C674.072,841.164 663.883,788.593 663.878,788.566C662.906,783.668 661.649,777.907 660.522,772.226C633.334,779.949 601.256,784.84 573.646,785.87C570.227,796.198 565.208,808.572 562.383,817.434C552.936,847.066 545.728,875.459 541.902,906.088C574.337,926.624 578.101,962.872 577.75,999.278L577.634,1011.32L565.597,1011.16C522.332,1010.61 476.399,1011.78 432.853,1012.16L408.754,1012.86L411.251,998.398C412.662,990.224 413.742,980.527 414.819,971.236C407.848,971.024 400.623,971.02 394.345,970.852C371.37,970.236 348.222,970.661 325.264,969.999L314.309,969.683L313.632,958.745C311.56,925.229 307.848,891.836 302.508,858.661L302.504,858.64C299.795,841.406 294.984,821.518 293.018,804.707L292.442,799.782L295.51,795.887C303.605,785.612 312.15,775.366 318.397,764.541C322.503,757.425 325.549,750.036 326.359,742.149C303.532,770.287 276.491,795.944 245.118,814.299C238.589,818.118 231.97,821.477 225.174,824.744C221.228,826.64 213.112,829.63 209.777,831.929C202.504,836.942 197.676,845.451 193.831,854.883C188.269,868.53 185.027,884.191 182.269,897.373C186.546,899.643 189.527,901.769 195.338,907.606C216.139,928.501 219.154,962.029 218.625,990.262L218.406,1002.01L206.652,1002.04C158.888,1002.14 109.445,1000.47 61.829,1001.42L46.883,1001.72L49.823,987.061C54.263,964.921 61.793,939.96 68.2,918.264C81.977,871.611 91.719,829.388 95.694,780.792L96.124,775.539L100.282,772.302C110.023,764.718 124.611,756.08 133.129,746.783C137.596,741.907 147.49,720.463 149.448,713.657C149.427,713.73 149.341,713.995 149.341,713.995C149.341,713.995 150.971,693.065 151.424,689.269C153.922,668.313 157.312,646.288 164.021,626.215C175.87,590.766 197.932,558.843 219.512,528.593C211.49,502.865 214.264,478.167 222.718,452.152L225.357,444.032L233.894,443.863C251.211,443.522 287.285,448.403 306.225,455.484C322.249,449.992 336.637,444.302 353.749,439.105L353.764,439.101C366.029,435.41 378.329,431.84 390.663,428.39C395.66,426.968 405.152,424.63 409.98,422.447ZM643.388,29.86C618.807,52.663 595.126,92.199 583.296,123.6C574.023,148.211 571.763,185.594 584.374,209.039C557.644,249.279 538.178,297.218 522.855,342.771C521.315,347.349 520.023,352.072 518.409,356.618C497.533,369.699 477.297,382.779 458.01,398.201C448.752,405.687 439.547,413.238 430.396,420.853C428.188,422.723 417.728,432.009 416.029,432.857C410.982,435.376 399.706,438.291 393.917,439.941C381.651,443.371 369.419,446.922 357.222,450.592C338.74,456.204 323.447,462.409 305.781,468.302C290.074,460.735 251.696,455.515 234.131,455.861C225.88,481.252 223.326,505.251 232.87,530.538C210.863,561.327 187.534,593.722 175.403,630.019C168.948,649.33 165.743,670.529 163.34,690.69C162.831,694.958 161.744,714.32 160.981,716.975C158.732,724.791 147.108,749.29 141.977,754.89C133.049,764.634 117.864,773.821 107.655,781.77C103.61,831.22 93.728,874.19 79.708,921.663C73.398,943.033 65.962,967.613 61.588,989.421C109.276,988.466 158.793,990.136 206.628,990.038C207.099,964.864 205.381,934.703 186.834,916.072C179.317,908.521 177.268,908.355 168.597,903.906C174.26,878.73 180.327,837.655 202.967,822.049C206.666,819.499 215.598,816.032 219.976,813.928C226.477,810.803 232.813,807.595 239.059,803.941C269.847,785.929 296.241,760.538 318.465,732.823C321.978,728.441 330.116,718.559 332.91,713.928C349.845,749.619 326.072,776.484 304.937,803.313C306.886,819.979 311.673,839.691 314.359,856.776C319.758,890.315 323.513,924.098 325.61,958.004C348.56,958.666 371.7,958.241 394.667,958.856C405.071,959.135 418.011,958.998 428.287,960.01C426.573,972.652 425.185,988.227 423.077,1000.44L432.625,1000.16C476.293,999.783 522.361,998.606 565.751,999.162C566.083,964.746 563.782,929.821 529.073,912.634C532.682,878.155 540.453,846.715 550.95,813.789C554.592,802.364 562.007,784.997 564.62,774.069C597.38,773.863 638.847,767.386 670.049,756.687C671.118,765.48 673.89,777.361 675.659,786.282L685.868,838.959L695.301,891.335C696.322,896.9 698.214,909.286 699.572,914.082C703.009,917.59 707.2,920.056 710.475,923.056C719.629,931.442 723.16,942.142 722.47,954.339C722.843,966.792 722.112,978.719 722.298,990.476C735.355,989.745 749.212,989.985 762.357,989.951L824.729,989.939C834.494,989.97 845.204,990.4 854.87,990C854.022,967.984 848.69,937.111 832.021,921.598C822.095,912.361 811.885,911.932 798.968,911.505L784.473,885.557C789.572,838.635 806.517,791.661 812.819,744.719C815.079,727.88 815.432,712.888 814.955,695.983C845.274,645.869 854.367,604.185 840.045,546.025C834.573,524.304 826.337,503.376 815.538,483.751C822.905,466.536 831.73,438.436 833.536,420.092C850.018,416.028 863.259,412.493 874.133,398.226C890.758,397.049 903.136,393.225 914.595,379.87C939.621,350.703 925.931,302.243 913.693,269.948C911.418,263.947 907.734,258.366 905.081,252.55C901.243,244.14 899.65,236.292 892.031,229.936C886.078,224.971 881.442,224.985 874.355,223.915C879.749,206.802 878.151,207.633 867.589,195.027C852.412,176.914 834.541,164.309 814.047,152.88C806.045,148.394 798.298,143.712 789.22,141.691C791.898,131.739 793.615,122.195 793.791,111.805C794.187,88.36 787.165,55.278 776.648,34.685C739.983,62.001 725.467,82.062 709.051,123.936C695.918,88.841 680.64,59.232 650.983,34.954C649.052,33.373 645.769,30.518 643.388,29.86ZM394.043,889.404C392.538,877.544 390.244,865.625 389.488,853.692C389.042,846.665 389.364,839.529 391.956,832.904C397.322,819.185 422.65,795.121 433.178,783.073C433.659,784 433.932,799.367 434.002,801.648C435.161,839.685 436.589,877.765 433.148,915.724C426.717,905.222 422.948,900.929 411.893,895.729C406.318,893.232 399.992,890.802 394.043,889.404ZM422.325,812.332C419.78,815.106 417.254,817.925 414.866,820.713C409.594,826.868 404.924,832.691 403.131,837.276C401.182,842.259 401.128,847.647 401.463,852.933C402.038,861.991 403.531,871.039 404.86,880.059C408.961,881.445 413.034,883.092 416.899,884.823L417,884.87C419.163,885.888 421.103,886.874 422.869,887.865C423.798,862.708 423.1,837.513 422.325,812.332Z"/>
        <path d="M752.912,229.048L753.76,229.251C757.665,233.11 750.683,238.352 768.071,246.427C763.436,246.649 760.295,246.834 755.631,246.423C746.708,244.767 744.144,242.473 740.553,233.972C744.313,231.977 748.878,230.361 752.912,229.048ZM764.165,228.073C765.789,227.99 767.702,227.705 769.117,228.338C769.768,229.964 769.399,230.032 769.024,232.104C767.211,232.214 767.3,232.238 765.556,231.76C764.164,230.096 764.593,230.52 764.165,228.073Z" style="fill:rgb(254,254,254);"/>
        <path d="M515.1,949.988L514.782,950.731C515.279,951.369 515.948,952.094 516.489,952.716C518.192,956.778 518.539,959.792 519.625,963.874L519.209,965.416L518.784,965.53C516.191,959.466 515.27,956.061 509.725,951.336C500.744,943.684 486.63,942.528 475.365,943.623C479.163,941.217 484.262,938.257 487.426,935.269C488.939,917.311 492.434,895.582 494.873,877.513C499.528,842.404 504.434,807.329 509.59,772.29L515.26,734.429C516.287,727.708 517.972,718.676 518.35,712.145C527.896,704.278 578.966,665.368 587.17,665.197C581.073,671.344 575.382,677.099 569.944,683.864C547.712,711.521 537.986,746.97 529.491,780.745C524.804,799.494 520.406,818.313 516.299,837.197C513.688,849.065 510.805,860.937 508.352,872.825C504.865,889.713 505.139,907.602 504.748,924.774C504.687,927.428 504.802,930.341 505.092,932.976C534.602,940.91 542.026,953.533 542.854,983.364C540.682,983.02 536.617,983.177 534.276,983.195C532.648,972.566 526.061,954.249 515.1,949.988L515.106,949.974L515.089,949.984C514.958,949.933 514.826,949.884 514.694,949.837L514.504,950.325L515.089,949.984L515.1,949.988ZM889.883,341.143C884.524,362.185 875.755,375.413 857.437,387.542C861.119,382.207 865.562,377.26 869.44,371.795C860.16,379.096 851.902,383.464 840.452,386.177C851.316,372.108 856.871,354.481 861.425,337.572C874.676,324.904 881.109,322.479 889.883,341.143ZM888.286,290.453C887.85,284.541 887.276,278.823 885.973,273.021C887.908,271.121 889.695,269.504 891.309,267.318C899.273,281.286 905.316,299.33 906.318,315.52C903.926,312.393 901.185,305.976 898.352,302.654C895.833,299.701 891.235,296.465 888.763,293.325C888.573,292.177 888.414,291.22 888.286,290.453ZM734.78,359.417C770.354,330.027 782.067,301.527 804.05,261.795C809.652,251.174 816.537,241.389 822.588,231.023C828.158,221.481 824.793,212.598 821.672,202.76C821.119,209.592 820.725,211.57 818.186,217.915C812.914,216.366 807.907,214.027 803.336,210.977C795.507,205.827 788.012,198.46 780.672,192.397C764.433,178.985 748.811,165.688 731.289,153.905C752.379,156.978 772.804,163.565 791.715,173.392C800.907,178.146 807.344,183.295 817.2,186.51C812.232,177.747 805.961,175.279 800.057,167.478C818.804,174.255 841.566,191.464 853.933,207.081C851.997,213.101 854.144,213.417 850.093,219.961C848.449,215.761 847.348,211.572 846.222,207.216C839.918,221.542 837.876,227.952 853.556,234.955C846.919,237.229 837.844,242.983 835.558,250.114C834.606,253.081 835.296,259.209 837.04,261.914C842.985,271.138 856.057,267.378 865.084,269.874C869.923,271.212 871.278,273.899 873.519,277.886C875.448,283.52 875.746,287.621 875.713,293.631L873.812,293.66C830.516,302.378 836.81,364.943 795.099,375.213C777.038,379.66 749.967,368.806 734.78,359.417ZM789.432,678.119C789.236,675.631 792.004,664.463 792.226,659.92C793.151,640.913 790.267,623.282 785.307,605.082C765.482,631.136 745.756,649.348 712.784,657.133C735.427,628.925 741.97,594.086 733.156,558.827C729.273,543.295 720.496,519.982 706.054,511.475C707.064,521.252 707.973,531.128 707.619,540.97C706.149,581.829 689.657,614.768 660.451,642.412C668.153,591.298 662.712,541.723 639.792,495.129C627.697,470.542 613.268,445.074 588.284,431.724C609.317,434.64 627.657,440.656 645.817,451.713C625.395,427.292 597.089,411.375 564.418,419.007C527.212,427.698 502.52,466.791 488.841,499.988C487.367,503.563 485.729,510.001 483.695,512.986C484.67,504.382 488.042,489.157 490.025,480.555C500.414,435.462 512.768,406.9 541.537,371.358C542.11,382.273 543.231,392.179 549.928,401.058C554.822,347.584 578.95,273.735 607.93,228.516C610.813,232.607 614.722,236.066 618.38,239.476C614.978,247.99 612.553,256.863 611.153,265.923C603.262,314.799 621.7,359.405 660.686,389.481C683.879,407.374 708.297,412.674 736.316,417.059L741.181,417.719C739.188,418.685 736.935,418.571 734.667,418.577C706.671,418.816 679.75,417.492 653.893,404.881C645.391,400.735 638.346,395.15 630.936,389.382C642.051,406.345 652.888,419.395 670.996,429.437C675.915,432.165 680.977,435.415 686.662,436.539C693.793,437.743 701.091,437.668 708.266,438.851C738.376,443.817 756.309,461.181 771.36,486.196C766.157,496.673 755.636,518.26 748.664,527.189C764.215,523.727 776.157,515.524 787.325,504.194C804.682,538.697 816.285,581.986 809.68,620.549C806.141,641.211 798.826,659.486 789.432,678.119ZM826.919,958.05C825.662,957.104 823.291,954.777 821.944,953.625C817.523,949.845 813.976,949.161 808.725,947.22L807.247,946.034L807.004,946.46C809.589,952.248 812.351,962.409 811.554,968.554C810.278,966.178 809.553,964.129 808.051,961.808C797.414,945.38 782.547,939.017 763.659,937.305C770.575,933.07 774.2,931.761 781.993,929.879L782.575,929.735C807.681,928.546 818.966,933.232 826.919,958.05ZM757.684,886.603C755.477,882.85 754.843,863.471 754.702,858.206C753.528,814.371 757.235,767.587 774.311,726.764C775.651,723.559 777.857,718.528 779.605,715.727L780.15,715.915L780.751,718.741C780.844,730.329 781.153,743.401 779.901,754.882C777.118,780.396 772.208,806.403 768.056,831.824L763.205,861.221C761.971,868.6 760.436,880.111 757.684,886.603Z" style="fill:rgb(254,254,254);"/>
        <path d="M643.388,29.86C645.769,30.518 649.052,33.373 650.983,34.954C680.64,59.232 695.918,88.841 709.051,123.936C725.467,82.062 739.983,62.001 776.648,34.685C787.165,55.278 794.187,88.36 793.791,111.805C793.615,122.195 791.898,131.739 789.22,141.691C798.298,143.712 806.045,148.394 814.047,152.88C834.541,164.309 852.412,176.914 867.589,195.027C878.151,207.633 879.749,206.802 874.355,223.915C881.442,224.985 886.078,224.971 892.031,229.936C899.65,236.292 901.243,244.14 905.081,252.55C907.734,258.366 911.418,263.947 913.693,269.948C925.931,302.243 939.621,350.703 914.595,379.87C903.136,393.225 890.758,397.049 874.133,398.226C863.259,412.493 850.018,416.028 833.536,420.092C831.73,438.436 822.905,466.536 815.538,483.751C826.337,503.376 834.573,524.304 840.045,546.025C854.367,604.185 845.274,645.869 814.955,695.983C815.432,712.888 815.079,727.88 812.819,744.719C806.517,791.661 789.572,838.635 784.473,885.557L798.968,911.505C811.885,911.932 822.095,912.361 832.021,921.598C848.69,937.111 854.022,967.984 854.87,990C845.204,990.4 834.494,989.97 824.729,989.939L762.357,989.951C749.212,989.985 735.355,989.745 722.298,990.476C722.112,978.719 722.843,966.792 722.47,954.339C723.16,942.142 719.629,931.442 710.475,923.056C707.2,920.056 703.009,917.59 699.572,914.082C698.214,909.286 696.322,896.9 695.301,891.335L685.868,838.959L675.659,786.282C673.89,777.361 671.118,765.48 670.049,756.687C638.847,767.386 597.38,773.863 564.62,774.069C562.007,784.997 554.592,802.364 550.95,813.789C540.453,846.715 532.682,878.155 529.073,912.634C563.782,929.821 566.083,964.746 565.751,999.162C522.361,998.606 476.293,999.783 432.625,1000.16L423.077,1000.44C425.185,988.227 426.573,972.652 428.287,960.01C418.011,958.998 405.071,959.135 394.667,958.856C371.7,958.241 348.56,958.666 325.61,958.004C323.513,924.098 319.758,890.315 314.359,856.776C311.673,839.691 306.886,819.979 304.937,803.313C326.072,776.484 349.845,749.619 332.91,713.928C330.116,718.559 321.978,728.441 318.465,732.823C296.241,760.538 269.847,785.929 239.059,803.941C232.813,807.595 226.477,810.803 219.976,813.928C215.598,816.032 206.666,819.499 202.967,822.049C180.327,837.655 174.26,878.73 168.597,903.906C177.268,908.355 179.317,908.521 186.834,916.072C205.381,934.703 207.099,964.864 206.628,990.038C158.793,990.136 109.276,988.466 61.588,989.421C65.962,967.613 73.398,943.033 79.708,921.663C93.728,874.19 103.61,831.22 107.655,781.77C117.864,773.821 133.049,764.634 141.977,754.89C147.108,749.29 158.732,724.791 160.981,716.975C161.744,714.32 162.831,694.958 163.34,690.69C165.743,670.529 168.948,649.33 175.403,630.019C187.534,593.722 210.863,561.327 232.87,530.538C223.326,505.251 225.88,481.252 234.131,455.861C251.696,455.515 290.074,460.735 305.781,468.302C323.447,462.409 338.74,456.204 357.222,450.592C369.419,446.922 381.651,443.371 393.917,439.941C399.706,438.291 410.982,435.376 416.029,432.857C417.728,432.009 428.188,422.723 430.396,420.853C439.547,413.238 448.752,405.687 458.01,398.201C477.297,382.779 497.533,369.699 518.409,356.618C520.023,352.072 521.315,347.349 522.855,342.771C538.178,297.218 557.644,249.279 584.374,209.039C571.763,185.594 574.023,148.211 583.296,123.6C595.126,92.199 618.807,52.663 643.388,29.86ZM587.17,665.197C578.966,665.368 527.896,704.278 518.35,712.145C517.972,718.676 516.287,727.708 515.26,734.429L509.59,772.29C504.434,807.329 499.528,842.404 494.873,877.513C492.434,895.582 488.939,917.311 487.426,935.269C484.262,938.257 479.163,941.217 475.365,943.623C486.63,942.528 500.744,943.684 509.725,951.336C515.27,956.061 516.191,959.466 518.784,965.53L519.209,965.416L519.625,963.874C519.917,965.599 519.944,979.965 520.133,983.512C511.981,983.529 503.632,983.643 495.502,983.364C493.07,971.902 495.994,961.547 487.191,951.667C487.243,962.223 487.576,973.006 487.262,983.529C477.196,983.598 467.129,983.61 457.063,983.564C457.424,970.58 460.77,957.519 461.491,944.75C465.583,872.343 465.162,799.719 466.513,727.23C467.192,690.764 467.659,654.178 473.34,618.056C474.807,608.724 476.33,599.204 478.872,590.102C464.644,604.18 448.259,635.072 439.756,652.936C384.046,635.09 338.759,597.101 319.027,540.956C299.27,569.371 280.956,608.446 268.6,640.758C263.639,653.73 259.846,667.246 255.033,680.209C248.879,696.66 240.809,712.329 230.99,726.892C213.72,752.385 188.324,778.579 159.55,790.864C153.599,793.405 147.609,794.618 141.302,795.83L143.4,794.466C165.55,779.929 175.087,768.969 184.564,743.109C185.375,739.827 189.39,731.143 189.25,728.202C185.708,653.683 225.608,569.182 289.012,527.698C277.718,529.158 270.887,530.39 260.188,534.501C271.92,520.531 283.629,509.717 300.251,501.539C327.883,487.944 358.026,478.668 387.997,471.836C395.988,470.093 403.994,468.424 412.015,466.83C421.721,464.843 424.516,464.883 433.006,459.439C447.641,450.056 463.021,441.502 477.997,432.626C459.134,475.701 457.11,519.428 470.821,564.163L483.695,512.986C485.729,510.001 487.367,503.563 488.841,499.988C502.52,466.791 527.212,427.698 564.418,419.007C597.089,411.375 625.395,427.292 645.817,451.713C627.657,440.656 609.317,434.64 588.284,431.724C613.268,445.074 627.697,470.542 639.792,495.129C662.712,541.723 668.153,591.298 660.451,642.412C689.657,614.768 706.149,581.829 707.619,540.97C707.973,531.128 707.064,521.252 706.054,511.475C720.496,519.982 729.273,543.295 733.156,558.827C741.97,594.086 735.427,628.925 712.784,657.133C745.756,649.348 765.482,631.136 785.307,605.082C790.267,623.282 793.151,640.913 792.226,659.92C792.004,664.463 789.236,675.631 789.432,678.119C786.052,685.242 781.014,691.773 777.62,698.388C778.406,702.907 781.01,714.829 780.751,718.741L780.15,715.915L779.605,715.727C777.857,718.528 775.651,723.559 774.311,726.764C757.235,767.587 753.528,814.371 754.702,858.206C754.843,863.471 755.477,882.85 757.684,886.603C757.436,892.799 780.634,919.364 781.573,929.253L782.575,929.735L781.993,929.879C774.2,931.761 770.575,933.07 763.659,937.305C782.547,939.017 797.414,945.38 808.051,961.808C809.553,964.129 810.278,966.178 811.554,968.554C811.102,969.299 811.665,981.404 811.558,983.54C815.875,983.548 820.191,983.48 824.505,983.334C822.553,972.436 821.213,964.394 814.737,955.118C812.848,952.413 809.954,949.973 808.725,947.22C813.976,949.161 817.523,949.845 821.944,953.625C823.291,954.777 825.662,957.104 826.919,958.05C829.364,963.863 830.293,977.038 830.92,983.475L847.837,983.119C846.846,968.485 843.045,949.847 836.898,938.267C827.153,919.909 814.357,918.63 796.203,916.479C792.169,916.002 780.728,892.963 777.899,887.257C778.676,877.137 780.573,867.053 782.293,857.06C791.804,801.806 811.336,750.818 808.539,693.971C817.63,677.374 822.797,671.559 829.543,652.084C850.825,590.638 834.75,540.048 808.151,484.38C815.432,467.123 824.497,431.883 828.089,413.576C846.698,410.865 859.648,405.46 871.881,391.099C898.218,390.935 918.148,373.689 921.24,348.195C923.983,325.585 912.046,274.333 898.406,256.81C897.487,235.57 884.864,231.119 866.514,229.853C869.07,221.992 870.478,216.22 870.164,208.001C868.158,204.301 863.477,199.254 860.598,196.162C841.777,175.943 809.263,155.126 783.454,145.568C786.179,135.676 788.534,125.123 789.135,114.936C790.291,95.323 783.701,60.047 774.87,42.482C767.391,49.557 759.56,55.468 752.048,63.1C729.706,85.8 720.177,108.874 710.449,138.037C718.211,138.968 727.01,137.984 735.007,138.072C754.555,138.285 776.818,147.675 792.673,159.016C781.546,154.631 777.785,155.398 769.439,152.785C744.544,144.989 735.319,141.046 708.944,142.358C704.959,136.131 701.328,122.669 698.343,114.81C690.293,93.616 680.225,74.227 665.238,57.066C660.121,51.206 649.081,42.203 643.052,37.319C638.743,43.797 632.51,50.435 627.699,56.816C595.878,99.02 564.888,157.241 592.06,210.112C586.64,217.71 580.671,228.152 576.083,236.287C559.446,265.991 545.52,297.134 534.474,329.338C530.831,339.792 528.14,350.559 524.535,360.836C522.001,362.692 516.577,365.705 513.721,367.438C507.448,371.26 501.249,375.202 495.127,379.26C473.636,393.714 453.17,409.637 433.876,426.914C419.834,439.554 421.914,439.636 403.734,444.655C395.316,446.938 386.912,449.27 378.522,451.649C353.993,458.614 329.792,466.689 305.995,475.849C278.783,466.045 268.145,465.134 239.618,463.126C232.445,489.743 230.278,505.848 240.944,531.782C201.119,583.317 174.816,629.26 169.917,694.51C169.602,698.704 168.948,715.548 167.665,719.013C163.518,730.206 157.32,744.239 151.484,754.829C143.74,764.399 123.044,779.024 113.364,786.183C112.032,795.35 111.94,807.296 110.572,817.304C108.221,834.507 105.151,851.323 101.07,868.197C95.485,890.604 89.38,912.877 82.761,935C78.437,949.942 73.007,967.803 70.179,982.908C88.494,983.384 109.318,983.213 127.719,983.075C123.086,980.553 118.393,978.449 113.609,976.243C115.962,966.964 119.777,952.613 122.777,943.709C128.329,957.67 129.718,968.117 129.878,983.083C153.277,983.168 176.675,983.378 200.071,983.712C200.685,963.786 198.323,941.386 185.855,925.129C178.933,916.104 171.96,912.341 161.704,908.014C165.899,880.518 173.401,844.038 192.297,823.247C199.72,815.079 211.563,811.259 221.689,806.223C227.81,803.151 233.784,799.793 239.591,796.161C279.08,771.534 306.159,739.811 333.521,702.915C339.677,711.976 344.869,724.873 345.282,735.918C346.173,759.714 327.214,787.762 311.518,804.64C311.964,808.538 313.819,816.183 314.678,820.279C316.653,829.503 318.441,838.766 320.042,848.062C325.992,882.207 330.09,916.648 332.315,951.235C345.634,952.115 363.555,951.963 377.059,951.919C377.719,944.826 378.722,934.326 379.965,927.471C383.543,933.004 388.786,945.599 390.047,952.035C397.653,951.959 405.26,952.073 412.86,952.378C410.775,927.339 401.598,920.229 378.923,912.434C389.164,912.824 398.482,913.13 406.788,920.008C416.683,928.201 420.293,939.895 421.59,952.161L435.861,952.589C434.722,965.998 432.659,980.522 431.15,994.042C473.916,993.019 516.255,993.211 558.958,992.612C558.698,965.678 556.447,939.011 532.679,922.23C530.156,920.447 523.946,917.327 523.216,914.968C522.1,911.358 524.037,902.839 524.586,898.791C530.931,852.009 545.394,811.218 561.241,767.259C599.915,767.542 638.333,760.974 674.717,747.859C680.865,772.753 685.739,800.712 690.479,826.074C696.005,854.404 701.12,882.813 705.822,911.292C709.552,914.237 713.176,916.987 716.605,920.283C732.332,935.399 729.792,962.938 729.661,983.825C744.111,983.427 759.197,983.565 773.697,983.511C765.027,966.28 753.66,948.753 745.861,931.025C744.896,928.829 744.151,917.84 743.85,914.669L741.007,883.866C738.167,850.539 735.546,817.194 733.146,783.833C732.033,768.375 730.128,750.284 729.662,735.064C750.719,715.471 773.608,676.278 777.546,648.06C773.28,653.737 768.575,659.07 763.473,664.009C716.52,709.017 641.729,727.32 578.268,725.871C587.826,696.148 601.535,672.977 613.332,645.296C605.522,650.605 594.12,659.02 587.17,665.197ZM872.107,241.275C872.963,241.106 872.82,241.207 873.756,241.399C873.747,243.538 867.228,251.835 865.609,254.048C862.435,254.085 853.982,255.04 851.922,253.501L846.302,247.731C855.178,243.617 862.524,242.291 872.107,241.275ZM153.225,950.929C155.988,954.57 161.272,977.148 159.276,980.479L158.116,980.35C155.493,979.302 153.044,977.883 150.566,976.526C152.769,967.855 152.582,959.731 153.225,950.929ZM644.964,59.76C648.247,61.544 654.456,69.102 656.824,72.13C671.315,90.654 682.757,111.905 688.196,134.886C690.313,143.83 690.866,151.75 691.15,160.834C675.644,177.907 666.53,186.364 647.992,199.537C681.883,162.407 671.2,121.91 646.15,83.632C646.456,88.656 646.163,90.668 645.335,95.529C639.78,117.572 627.324,137.071 627.003,161.247C626.686,185.126 633.984,201.031 649.844,217.968C626.885,209.874 616.104,200.31 610.786,175.52C602.113,135.085 623.694,92.833 644.964,59.76ZM515.1,949.988C526.061,954.249 532.648,972.566 534.276,983.195C536.617,983.177 540.682,983.02 542.854,983.364C540.309,983.837 532.47,983.556 529.547,983.494C527.993,972.595 524.375,960.868 517.045,952.421L516.489,952.716C515.948,952.094 515.279,951.369 514.782,950.731L515.1,949.988ZM515.089,949.984L515.106,949.974L515.1,949.988L515.089,949.984ZM515.089,949.984L514.504,950.325L514.694,949.837C514.826,949.884 514.958,949.933 515.089,949.984ZM771.36,486.196C756.309,461.181 738.376,443.817 708.266,438.851C701.091,437.668 693.793,437.743 686.662,436.539C680.977,435.415 675.915,432.165 670.996,429.437C652.888,419.395 642.051,406.345 630.936,389.382C638.346,395.15 645.391,400.735 653.893,404.881C679.75,417.492 706.671,418.816 734.667,418.577C736.935,418.571 739.188,418.685 741.181,417.719C758.644,417.864 772.344,416.032 789.109,411.182C778.464,420.955 769.5,426.798 755.719,431.721C765.879,435.259 781.96,435.038 792.79,434.504C788.674,446.692 777.733,474.917 771.36,486.196ZM734.78,359.417C749.967,368.806 777.038,379.66 795.099,375.213C836.81,364.943 830.516,302.378 873.812,293.66L875.713,293.631L875.425,300.549C853.231,309.608 851.093,320.447 843.951,341.885C837.75,360.498 827.613,383.286 808.239,391.15C784.367,400.613 758.458,392.543 737.922,379.584C741.87,387.187 745.595,391.359 752.865,396.056C726.66,396.17 707.718,389.685 686.672,374.601C705.459,374.286 719.136,369.87 734.78,359.417ZM889.883,341.143C881.109,322.479 874.676,324.904 861.425,337.572C866.025,305.353 897.53,314.111 889.883,341.143ZM438.53,767.908C439.792,774.066 440.385,795.889 440.692,803.381C441.885,829.285 442.172,855.223 441.552,881.147C440.825,902.949 439.073,921.536 437.421,943.154C432.616,928.922 430.663,920.904 419.948,909.328C411.011,900.492 400.199,896.595 388.125,894.336C385.647,879.248 383.777,864.514 383.11,849.284C382.098,826.165 397.599,812.989 411.626,797.087C420.358,787.188 429.296,777.412 438.53,767.908ZM394.043,889.404C399.992,890.802 406.318,893.232 411.893,895.729C422.948,900.929 426.717,905.222 433.148,915.724C436.589,877.765 435.161,839.685 434.002,801.648C433.932,799.367 433.659,784 433.178,783.073C422.65,795.121 397.322,819.185 391.956,832.904C389.364,839.529 389.042,846.665 389.488,853.692C390.244,865.625 392.538,877.544 394.043,889.404ZM888.286,290.453C888.414,291.22 888.573,292.177 888.763,293.325C891.235,296.465 895.833,299.701 898.352,302.654C901.185,305.976 903.926,312.393 906.318,315.52C907.483,325.689 909.143,332.207 907.286,342.733C904.655,357.65 898.057,367.055 886.061,375.754C898.378,362.818 905.029,348.513 902.564,330.406C901.09,319.573 896.949,309.095 888.092,302.256L888.286,290.453ZM372.462,684.035C394.606,697.155 411.627,704.161 437.162,708.936C437.321,714.047 437.52,719.157 437.761,724.266C413.198,715.731 389.935,703.902 372.462,684.035ZM138.546,925.237C149.691,924.02 164.831,926.574 173.21,934.648C184.356,945.39 186.534,961.052 187.228,975.753C183.417,975.796 175.184,976.338 171.809,975.028C171.208,974.794 171.088,973.327 170.891,972.473C164.443,941.324 147.82,927.3 115.351,931.346C124.125,928.401 129.407,926.421 138.546,925.237ZM747.22,213.184C756.872,212.385 763.186,214.389 771.188,219.506C755.597,217.273 748.054,220.909 734.517,228.364C728.513,232.178 724.251,235.292 717.452,237.544C718.265,236.153 719.13,234.794 720.045,233.468C726.712,223.703 735.268,215.388 747.22,213.184ZM259.79,481.44C270.037,482.426 280.887,484.781 289.826,489.958L285.046,493.658L278.213,498.024C272.708,492.337 265.807,486.575 259.79,481.44ZM792.7,237.082C794.402,238.026 796.522,238.898 798.323,239.697C796.726,243.642 794.481,247.598 791.699,250.833C785.961,257.566 777.773,261.73 768.953,262.403C758.214,263.207 748.425,259.534 740.37,252.532C737.617,249.915 735.12,246.487 732.768,243.456C744.011,249.062 754.715,253.686 767.482,251.526C778.076,249.734 786.283,245.776 792.7,237.082ZM780.282,948.822C785.378,959.976 785.421,971.361 786.47,983.572C789.393,983.496 792.605,983.493 795.493,983.211C793.592,972.985 789.723,954.988 780.282,948.822Z" style="fill:rgb(128,255,151);"  data-color="color-2"/>
        <path d="M587.17,665.197C594.12,659.02 605.522,650.605 613.332,645.296C601.535,672.977 587.826,696.148 578.268,725.871C641.729,727.32 716.52,709.017 763.473,664.009C768.575,659.07 773.28,653.737 777.546,648.06C773.608,676.278 750.719,715.471 729.662,735.064C730.128,750.284 732.033,768.375 733.146,783.833C735.546,817.194 738.167,850.539 741.007,883.866L743.85,914.669C744.151,917.84 744.896,928.829 745.861,931.025C753.66,948.753 765.027,966.28 773.697,983.511C759.197,983.565 744.111,983.427 729.661,983.825C729.792,962.938 732.332,935.399 716.605,920.283C713.176,916.987 709.552,914.237 705.822,911.292C701.12,882.813 696.005,854.404 690.479,826.074C685.739,800.712 680.865,772.753 674.717,747.859C638.333,760.974 599.915,767.542 561.241,767.259C545.394,811.218 530.931,852.009 524.586,898.791C524.037,902.839 522.1,911.358 523.216,914.968C523.946,917.327 530.156,920.447 532.679,922.23C556.447,939.011 558.698,965.678 558.958,992.612C516.255,993.211 473.916,993.019 431.15,994.042C432.659,980.522 434.722,965.998 435.861,952.589L421.59,952.161C420.293,939.895 416.683,928.201 406.788,920.008C398.482,913.13 389.164,912.824 378.923,912.434C401.598,920.229 410.775,927.339 412.86,952.378C405.26,952.073 397.653,951.959 390.047,952.035C388.786,945.599 383.543,933.004 379.965,927.471C378.722,934.326 377.719,944.826 377.059,951.919C363.555,951.963 345.634,952.115 332.315,951.235C330.09,916.648 325.992,882.207 320.042,848.062C318.441,838.766 316.653,829.503 314.678,820.279C313.819,816.183 311.964,808.538 311.518,804.64C327.214,787.762 346.173,759.714 345.282,735.918C344.869,724.873 339.677,711.976 333.521,702.915C306.159,739.811 279.08,771.534 239.591,796.161C233.784,799.793 227.81,803.151 221.689,806.223C211.563,811.259 199.72,815.079 192.297,823.247C173.401,844.038 165.899,880.518 161.704,908.014C171.96,912.341 178.933,916.104 185.855,925.129C198.323,941.386 200.685,963.786 200.071,983.712C176.675,983.378 153.277,983.168 129.878,983.083C129.718,968.117 128.329,957.67 122.777,943.709C119.777,952.613 115.962,966.964 113.609,976.243C118.393,978.449 123.086,980.553 127.719,983.075C109.318,983.213 88.494,983.384 70.179,982.908C73.007,967.803 78.437,949.942 82.761,935C89.38,912.877 95.485,890.604 101.07,868.197C105.151,851.323 108.221,834.507 110.572,817.304C111.94,807.296 112.032,795.35 113.364,786.183C123.044,779.024 143.74,764.399 151.484,754.829C157.32,744.239 163.518,730.206 167.665,719.013C168.948,715.548 169.602,698.704 169.917,694.51C174.816,629.26 201.119,583.317 240.944,531.782C230.278,505.848 232.445,489.743 239.618,463.126C268.145,465.134 278.783,466.045 305.995,475.849C329.792,466.689 353.993,458.614 378.522,451.649C386.912,449.27 395.316,446.938 403.734,444.655C421.914,439.636 419.834,439.554 433.876,426.914C453.17,409.637 473.636,393.714 495.127,379.26C501.249,375.202 507.448,371.26 513.721,367.438C516.577,365.705 522.001,362.692 524.535,360.836C528.14,350.559 530.831,339.792 534.474,329.338C545.52,297.134 559.446,265.991 576.083,236.287C580.671,228.152 586.64,217.71 592.06,210.112C564.888,157.241 595.878,99.02 627.699,56.816C632.51,50.435 638.743,43.797 643.052,37.319C649.081,42.203 660.121,51.206 665.238,57.066C680.225,74.227 690.293,93.616 698.343,114.81C701.328,122.669 704.959,136.131 708.944,142.358C735.319,141.046 744.544,144.989 769.439,152.785C777.785,155.398 781.546,154.631 792.673,159.016C776.818,147.675 754.555,138.285 735.007,138.072C727.01,137.984 718.211,138.968 710.449,138.037C720.177,108.874 729.706,85.8 752.048,63.1C759.56,55.468 767.391,49.557 774.87,42.482C783.701,60.047 790.291,95.323 789.135,114.936C788.534,125.123 786.179,135.676 783.454,145.568C809.263,155.126 841.777,175.943 860.598,196.162C863.477,199.254 868.158,204.301 870.164,208.001C870.478,216.22 869.07,221.992 866.514,229.853C884.864,231.119 897.487,235.57 898.406,256.81C912.046,274.333 923.983,325.585 921.24,348.195C918.148,373.689 898.218,390.935 871.881,391.099C859.648,405.46 846.698,410.865 828.089,413.576C824.497,431.883 815.432,467.123 808.151,484.38C834.75,540.048 850.825,590.638 829.543,652.084C822.797,671.559 817.63,677.374 808.539,693.971C811.336,750.818 791.804,801.806 782.293,857.06C780.573,867.053 778.676,877.137 777.899,887.257C780.728,892.963 792.169,916.002 796.203,916.479C814.357,918.63 827.153,919.909 836.898,938.267C843.045,949.847 846.846,968.485 847.837,983.119L830.92,983.475C830.293,977.038 829.364,963.863 826.919,958.05C818.966,933.232 807.681,928.546 782.575,929.735L781.573,929.253C780.634,919.364 757.436,892.799 757.684,886.603C760.436,880.111 761.971,868.6 763.205,861.221L768.056,831.824C772.208,806.403 777.118,780.396 779.901,754.882C781.153,743.401 780.844,730.329 780.751,718.741C781.01,714.829 778.406,702.907 777.62,698.388C781.014,691.773 786.052,685.242 789.432,678.119C798.826,659.486 806.141,641.211 809.68,620.549C816.285,581.986 804.682,538.697 787.325,504.194C776.157,515.524 764.215,523.727 748.664,527.189C755.636,518.26 766.157,496.673 771.36,486.196C777.733,474.917 788.674,446.692 792.79,434.504C781.96,435.038 765.879,435.259 755.719,431.721C769.5,426.798 778.464,420.955 789.109,411.182C772.344,416.032 758.644,417.864 741.181,417.719L736.316,417.059C708.297,412.674 683.879,407.374 660.686,389.481C621.7,359.405 603.262,314.799 611.153,265.923C612.553,256.863 614.978,247.99 618.38,239.476C614.722,236.066 610.813,232.607 607.93,228.516C578.95,273.735 554.822,347.584 549.928,401.058C543.231,392.179 542.11,382.273 541.537,371.358C512.768,406.9 500.414,435.462 490.025,480.555C488.042,489.157 484.67,504.382 483.695,512.986L470.821,564.163C457.11,519.428 459.134,475.701 477.997,432.626C463.021,441.502 447.641,450.056 433.006,459.439C424.516,464.883 421.721,464.843 412.015,466.83C403.994,468.424 395.988,470.093 387.997,471.836C358.026,478.668 327.883,487.944 300.251,501.539C283.629,509.717 271.92,520.531 260.188,534.501C270.887,530.39 277.718,529.158 289.012,527.698C225.608,569.182 185.708,653.683 189.25,728.202C189.39,731.143 185.375,739.827 184.564,743.109C175.087,768.969 165.55,779.929 143.4,794.466L141.302,795.83C147.609,794.618 153.599,793.405 159.55,790.864C188.324,778.579 213.72,752.385 230.99,726.892C240.809,712.329 248.879,696.66 255.033,680.209C259.846,667.246 263.639,653.73 268.6,640.758C280.956,608.446 299.27,569.371 319.027,540.956C338.759,597.101 384.046,635.09 439.756,652.936C448.259,635.072 464.644,604.18 478.872,590.102C476.33,599.204 474.807,608.724 473.34,618.056C467.659,654.178 467.192,690.764 466.513,727.23C465.162,799.719 465.583,872.343 461.491,944.75C460.77,957.519 457.424,970.58 457.063,983.564C467.129,983.61 477.196,983.598 487.262,983.529C487.576,973.006 487.243,962.223 487.191,951.667C495.994,961.547 493.07,971.902 495.502,983.364C503.632,983.643 511.981,983.529 520.133,983.512C519.944,979.965 519.917,965.599 519.625,963.874C518.539,959.792 518.192,956.778 516.489,952.716L517.045,952.421C524.375,960.868 527.993,972.595 529.547,983.494C532.47,983.556 540.309,983.837 542.854,983.364C542.026,953.533 534.602,940.91 505.092,932.976C504.802,930.341 504.687,927.428 504.748,924.774C505.139,907.602 504.865,889.713 508.352,872.825C510.805,860.937 513.688,849.065 516.299,837.197C520.406,818.313 524.804,799.494 529.491,780.745C537.986,746.97 547.712,711.521 569.944,683.864C575.382,677.099 581.073,671.344 587.17,665.197ZM792.7,237.082C786.283,245.776 778.076,249.734 767.482,251.526C754.715,253.686 744.011,249.062 732.768,243.456C735.12,246.487 737.617,249.915 740.37,252.532C748.425,259.534 758.214,263.207 768.953,262.403C777.773,261.73 785.961,257.566 791.699,250.833C794.481,247.598 796.726,243.642 798.323,239.697C796.522,238.898 794.402,238.026 792.7,237.082ZM764.165,228.073C764.593,230.52 764.164,230.096 765.556,231.76C767.3,232.238 767.211,232.214 769.024,232.104C769.399,230.032 769.768,229.964 769.117,228.338C767.702,227.705 765.789,227.99 764.165,228.073ZM153.225,950.929C152.582,959.731 152.769,967.855 150.566,976.526C153.044,977.883 155.493,979.302 158.116,980.35L159.276,980.479C161.272,977.148 155.988,954.57 153.225,950.929ZM889.883,341.143C897.53,314.111 866.025,305.353 861.425,337.572C856.871,354.481 851.316,372.108 840.452,386.177C851.902,383.464 860.16,379.096 869.44,371.795C865.562,377.26 861.119,382.207 857.437,387.542C875.755,375.413 884.524,362.185 889.883,341.143ZM372.462,684.035C389.935,703.902 413.198,715.731 437.761,724.266C437.52,719.157 437.321,714.047 437.162,708.936C411.627,704.161 394.606,697.155 372.462,684.035ZM259.79,481.44C265.807,486.575 272.708,492.337 278.213,498.024L285.046,493.658L289.826,489.958C280.887,484.781 270.037,482.426 259.79,481.44ZM747.22,213.184C735.268,215.388 726.712,223.703 720.045,233.468C719.13,234.794 718.265,236.153 717.452,237.544C724.251,235.292 728.513,232.178 734.517,228.364C748.054,220.909 755.597,217.273 771.188,219.506C763.186,214.389 756.872,212.385 747.22,213.184ZM872.107,241.275C862.524,242.291 855.178,243.617 846.302,247.731L851.922,253.501C853.982,255.04 862.435,254.085 865.609,254.048C867.228,251.835 873.747,243.538 873.756,241.399C872.82,241.207 872.963,241.106 872.107,241.275ZM644.964,59.76C623.694,92.833 602.113,135.085 610.786,175.52C616.104,200.31 626.885,209.874 649.844,217.968C633.984,201.031 626.686,185.126 627.003,161.247C627.324,137.071 639.78,117.572 645.335,95.529C646.163,90.668 646.456,88.656 646.15,83.632C671.2,121.91 681.883,162.407 647.992,199.537C666.53,186.364 675.644,177.907 691.15,160.834C690.866,151.75 690.313,143.83 688.196,134.886C682.757,111.905 671.315,90.654 656.824,72.13C654.456,69.102 648.247,61.544 644.964,59.76ZM888.286,290.453L888.092,302.256C896.949,309.095 901.09,319.573 902.564,330.406C905.029,348.513 898.378,362.818 886.061,375.754C898.057,367.055 904.655,357.65 907.286,342.733C909.143,332.207 907.483,325.689 906.318,315.52C905.316,299.33 899.273,281.286 891.309,267.318C889.695,269.504 887.908,271.121 885.973,273.021C887.276,278.823 887.85,284.541 888.286,290.453ZM734.78,359.417C719.136,369.87 705.459,374.286 686.672,374.601C707.718,389.685 726.66,396.17 752.865,396.056C745.595,391.359 741.87,387.187 737.922,379.584C758.458,392.543 784.367,400.613 808.239,391.15C827.613,383.286 837.75,360.498 843.951,341.885C851.093,320.447 853.231,309.608 875.425,300.549L875.713,293.631C875.746,287.621 875.448,283.52 873.519,277.886C871.278,273.899 869.923,271.212 865.084,269.874C856.057,267.378 842.985,271.138 837.04,261.914C835.296,259.209 834.606,253.081 835.558,250.114C837.844,242.983 846.919,237.229 853.556,234.955C837.876,227.952 839.918,221.542 846.222,207.216C847.348,211.572 848.449,215.761 850.093,219.961C854.144,213.417 851.997,213.101 853.933,207.081C841.566,191.464 818.804,174.255 800.057,167.478C805.961,175.279 812.232,177.747 817.2,186.51C807.344,183.295 800.907,178.146 791.715,173.392C772.804,163.565 752.379,156.978 731.289,153.905C748.811,165.688 764.433,178.985 780.672,192.397C788.012,198.46 795.507,205.827 803.336,210.977C807.907,214.027 812.914,216.366 818.186,217.915C820.725,211.57 821.119,209.592 821.672,202.76C824.793,212.598 828.158,221.481 822.588,231.023C816.537,241.389 809.652,251.174 804.05,261.795C782.067,301.527 770.354,330.027 734.78,359.417ZM438.53,767.908C429.296,777.412 420.358,787.188 411.626,797.087C397.599,812.989 382.098,826.165 383.11,849.284C383.777,864.514 385.647,879.248 388.125,894.336C400.199,896.595 411.011,900.492 419.948,909.328C430.663,920.904 432.616,928.922 437.421,943.154C439.073,921.536 440.825,902.949 441.552,881.147C442.172,855.223 441.885,829.285 440.692,803.381C440.385,795.889 439.792,774.066 438.53,767.908ZM752.912,229.048C748.878,230.361 744.313,231.977 740.553,233.972C744.144,242.473 746.708,244.767 755.631,246.423C760.295,246.834 763.436,246.649 768.071,246.427C750.683,238.352 757.665,233.11 753.76,229.251L752.912,229.048ZM138.546,925.237C129.407,926.421 124.125,928.401 115.351,931.346C147.82,927.3 164.443,941.324 170.891,972.473C171.088,973.327 171.208,974.794 171.809,975.028C175.184,976.338 183.417,975.796 187.228,975.753C186.534,961.052 184.356,945.39 173.21,934.648C164.831,926.574 149.691,924.02 138.546,925.237ZM808.725,947.22C809.954,949.973 812.848,952.413 814.737,955.118C821.213,964.394 822.553,972.436 824.505,983.334C820.191,983.48 815.875,983.548 811.558,983.54C811.665,981.404 811.102,969.299 811.554,968.554C812.351,962.409 809.589,952.248 807.004,946.46L807.247,946.034L808.725,947.22ZM780.282,948.822C789.723,954.988 793.592,972.985 795.493,983.211C792.605,983.493 789.393,983.496 786.47,983.572C785.421,971.361 785.378,959.976 780.282,948.822Z" style="fill:rgb(15,58,13);"  data-color="color-1"/>
    </g>
</svg>
