<svg width="100%" height="100%" viewBox="0 0 874 757" version="1.1" xmlns="http://www.w3.org/2000/svg" xmlns:xlink="http://www.w3.org/1999/xlink" xml:space="preserve" xmlns:serif="http://www.serif.com/" style="fill-rule:evenodd;clip-rule:evenodd;stroke-linejoin:round;stroke-miterlimit:2;">
    <g transform="matrix(1,0,0,1,-75.72,-128.288)">
        <path d="M101.091,486.468C99.588,482.23 100.681,473.029 101.466,468.59C108.11,429.817 143.818,414.895 175.438,400.508C193.366,392.35 221.124,381.81 236.842,370.524C231.909,363.414 229.123,355.243 227.929,346.722C225.332,340.92 228.798,324.218 231.177,318.33C233.798,311.842 239.728,301.21 245.478,297.219C254.764,290.775 254.193,288.774 259.214,278.922C262.082,273.321 265.3,267.906 268.849,262.71C294.23,225.154 329.543,195.385 370.85,176.72C452.306,140.515 538.643,153.208 623.282,166.946C657.478,172.496 696.039,177.366 728.309,189.825C747.44,197.294 764.825,208.626 779.381,223.114C812.487,255.954 830.426,303.241 865.276,335.02C885.588,353.542 904.556,374.252 915.593,399.77C917.585,404.405 921.3,414.023 921.702,419.156C928.364,456.778 918.356,483.87 897.001,514.349C891.636,522.006 885.7,529.244 879.24,536.002C881.308,549.624 881.399,566.827 880.887,580.575C878.896,634.051 864.32,680.673 832.396,723.83C781.802,792.227 699.512,844.466 615.101,857.172C540.933,868.078 465.479,848.955 405.458,804.04C395.736,796.852 385.579,788.705 378.018,779.255C373.397,773.479 373.003,768.068 373.135,761.074C372.873,761.143 372.055,761.364 371.847,761.401C339.635,767.09 304.873,762.345 275.204,748.654C264.539,743.732 255.489,737.697 245.942,731.499C148.748,733.324 115.336,645.985 111.055,564.097C109.552,560.866 110.401,521.042 112.835,517.45C105.602,505.984 102.755,499.913 101.091,486.468Z" style="fill:rgb(201,207,210);"  data-color="color-2"/>
        <path d="M539.981,705.971L541.137,706.374L541.76,705.945C542.775,698.358 533.564,681.106 528.818,675.127C521.973,666.502 511.131,657.441 500.214,654.614C462.859,644.941 422.577,661.436 385.64,666.877C367.22,669.636 352.422,670.697 334.269,668.362C296.519,663.507 269.584,648.82 242.688,622.261C230.674,610.397 220.445,600.785 210.223,586.766C203.373,577.371 191.672,562.796 193.092,550.04C194.029,541.629 207.123,533.859 213.679,529.275L228.791,518.683C246.274,506.203 264.86,492.394 268.588,470.106C269.959,462.747 270.538,458.892 270.406,451.465C271.811,437.783 259.388,424.967 250.06,416.844C286.097,399.584 311.701,377.805 324.787,338.867C326.884,332.626 329.555,324.814 331.91,318.758C320.887,329.402 314.807,338.865 307.954,352.16C305.054,357.785 268.11,343.849 289.216,332.854C297.655,328.458 306.818,310.007 311.929,301.872C323.942,282.774 339.211,265.931 357.042,252.108C420.514,203.67 498.793,208.637 574.012,218.85C599.405,222.411 624.719,226.519 649.935,231.172C663.964,233.725 682.001,236.654 695.488,240.757C703.26,243.071 710.74,246.267 717.784,250.285C756.415,272.524 777.935,317.37 806.312,350.519C828.648,376.609 860.89,398.808 870.128,433.12C879.592,468.271 836.624,499.66 813.656,520.842C804.607,529.163 796.062,538.016 788.068,547.354C780.803,556.005 774.066,565.084 767.892,574.544C758.74,588.295 750.589,604.216 738.247,614.978C730.294,621.914 717.42,617.649 710.484,611.472C697.088,599.542 683.939,577.657 682.154,559.828C679.921,537.531 683.603,516.224 686.546,494.288C695.752,436.161 698.231,377.263 669.193,323.872C662.18,310.976 645.294,288.551 632.168,281.207C636.552,290.747 640.781,299.338 644.264,309.282C656.094,343.051 658.05,380.606 655.066,416.022C651.491,458.454 637.043,499.503 628.445,540.951C621.999,572.021 625.6,606.199 643.971,632.684C655.886,649.939 675.547,664.982 696.664,668.402C688.813,682.918 665.083,705.396 652.848,716.336C622.711,743.622 589.28,767.031 553.333,786.021C553.819,761.773 552.227,741.837 543.987,718.566C542.77,715.129 540.668,710.251 539.288,706.764C539.519,706.5 539.75,706.235 539.981,705.971ZM497.552,270.707C514.781,269.368 538.847,276.305 549.265,290.962C542.071,288.071 535.524,284.188 527.888,281.76C492.529,270.518 448.76,296.192 417.885,312.538C415.5,313.816 413.104,315.073 410.697,316.309C400.256,321.603 388.646,326.447 376.913,322.552C373.076,321.278 366.339,316.167 368.31,311.417C370.836,308.686 383.962,307.417 388.46,305.498C423.644,290.489 458.841,273.523 497.552,270.707ZM471.861,325.201C478.245,324.148 488.846,325.156 495.219,326.266C502.913,327.607 528.145,334.774 526.091,345.474C524.606,347.533 521.759,349.11 519.556,350.571C506.842,381.14 491.035,412.651 455.006,418.454C437.556,421.265 424.016,418.446 409.546,408.228C399.78,400.918 393.364,390.428 386.358,380.504C373.798,382.473 355.073,370.823 349.876,359.388C349.346,358.221 349.542,358.258 349.971,357.244C352.053,356.909 356.843,360.621 361.073,361.637C366.086,363.034 374.093,363.491 379.133,361.751C414.001,349.712 433.023,329.375 471.861,325.201Z" style="fill:white;"/>
        <path d="M354.101,788.506C323.568,790.055 292.247,784.052 264.729,771.354C255.258,766.983 246.91,761.871 238.522,756.478C132.316,753.982 91.451,659.363 86.186,567.153C85.943,565.781 85.743,564.25 85.623,562.567C85.087,555.055 85.282,538.327 86.164,526.622C86.275,525.149 86.424,523.724 86.605,522.355C80.697,511.9 78.049,503.83 76.28,489.539L76.426,490.155C75.186,482.177 75.743,470.548 76.835,464.309C85.031,416.658 126.206,395.442 165.084,377.753C176.318,372.641 191.777,366.663 205.13,360.095C204.458,357.497 203.908,354.861 203.476,352.207C202.452,348.315 201.85,343.511 202.054,338.188C202.445,327.97 205.657,314.757 207.997,308.965C212.085,298.846 222.255,282.906 231.223,276.681L231.225,276.68C235.59,273.651 234.58,272.201 236.94,267.57C236.947,267.556 236.954,267.542 236.962,267.528C240.299,261.01 244.043,254.708 248.171,248.66C276.142,207.292 315.048,174.501 360.556,153.938C360.602,153.917 360.649,153.896 360.696,153.875C446.738,115.632 537.883,127.757 627.287,142.269C663.129,148.086 703.49,153.444 737.313,166.503C737.343,166.514 737.372,166.526 737.401,166.537C759.732,175.255 780.025,188.482 797.015,205.393C814.794,223.037 828.671,244.43 842.614,265.807C854.433,283.927 866.254,302.079 882.121,316.547C905.032,337.44 926.089,361.062 938.539,389.846C938.546,389.863 938.554,389.881 938.562,389.899C941.114,395.837 945.273,407.741 946.389,415.195C954.211,459.936 942.913,492.388 917.476,528.694C913.672,534.123 909.615,539.366 905.319,544.407C906.291,556.749 906.291,570.186 905.87,581.505C903.685,640.203 887.536,691.326 852.495,738.697C798.108,812.222 709.561,868.235 618.822,881.894C618.794,881.898 618.766,881.902 618.738,881.906C538.008,893.777 455.878,872.972 390.583,824.133C379.166,815.691 367.376,805.971 358.497,794.873C356.777,792.723 355.324,790.612 354.101,788.506ZM101.091,486.468C102.755,499.913 105.602,505.984 112.835,517.45C110.401,521.042 109.552,560.866 111.055,564.097C115.336,645.985 148.748,733.324 245.942,731.499C255.489,737.697 264.539,743.732 275.204,748.654C304.873,762.345 339.635,767.09 371.847,761.401C372.055,761.364 372.873,761.143 373.135,761.074C373.003,768.068 373.397,773.479 378.018,779.255C385.579,788.705 395.736,796.852 405.458,804.04C465.479,848.955 540.933,868.078 615.101,857.172C699.512,844.466 781.802,792.227 832.396,723.83C864.32,680.673 878.896,634.051 880.887,580.575C881.399,566.827 881.308,549.624 879.24,536.002C885.7,529.244 891.636,522.006 897.001,514.349C918.356,483.87 928.364,456.778 921.702,419.156C921.3,414.023 917.585,404.405 915.593,399.77C904.556,374.252 885.588,353.542 865.276,335.02C830.426,303.241 812.487,255.954 779.381,223.114C764.825,208.626 747.44,197.294 728.309,189.825C696.039,177.366 657.478,172.496 623.282,166.946C538.643,153.208 452.306,140.515 370.85,176.72C329.543,195.385 294.23,225.154 268.849,262.71C265.3,267.906 262.082,273.321 259.214,278.922C254.193,288.774 254.764,290.775 245.478,297.219C239.728,301.21 233.798,311.842 231.177,318.33C228.798,324.218 225.332,340.92 227.929,346.722C229.123,355.243 231.909,363.414 236.842,370.524C221.124,381.81 193.366,392.35 175.438,400.508C143.818,414.895 108.11,429.817 101.466,468.59C100.681,473.029 99.588,482.23 101.091,486.468ZM461.674,345.214C474.048,344.181 488.04,344.791 499.846,348.878C493.142,372.791 482.364,396.597 455.014,402.576C440.192,405.817 427.148,400.845 414.803,392.673C408.005,387.765 403.662,383.796 397.691,378.086C403.4,376.364 411.339,371.555 417.026,368.665C424.363,381.596 432.63,391.694 449.272,390.214C456.196,389.547 462.567,386.142 466.968,380.755C471.076,375.767 473.04,369.354 472.429,362.921C471.65,354.941 467.404,350.071 461.674,345.214Z" style="fill:white;"/>
        <path d="M491.084,179.247C542.332,179.585 594.368,188.473 644.87,196.754C671.918,201.19 699.017,205.151 724.462,215.686C772.154,235.189 792.789,286.348 822.25,324.733C850.347,361.34 899.027,387.874 899.604,439.927C899.965,472.495 875.461,505.147 853.292,527.535C857.094,561.028 858.099,591.87 850.75,625.145C825.944,737.45 706.943,824.233 595.429,833.403C567.365,835.711 542.257,832.882 515.103,827.014C470.476,816.022 432.696,797.054 399.461,765.16C399.79,751.212 400.144,743.953 396.767,730.284C344.811,744.372 297.796,738.906 254.238,705.286C242.072,705.827 229.055,705.67 216.891,702.598C152.726,686.371 138.551,609.843 135.372,553.521C134.677,541.22 136.801,529.467 139.824,517.638C138.677,514.683 136.186,507.673 134.64,505.355C96.772,448.586 179.965,428.781 216.552,410.882C234.277,402.21 253.401,391.713 269.989,379.266C265.642,374.337 265.289,368.441 264.115,362.014C254.551,357.26 251.569,350.414 251.632,340.924C251.739,324.659 262.004,316.579 273.343,307.328C273.87,306.898 281.009,291.636 282.632,288.741C291.392,273.111 302.225,258.961 314.793,246.124C348.76,211.676 393.093,189.327 440.988,182.506C459.252,179.78 472.927,179.443 491.084,179.247ZM166.653,550.14C165.483,584.826 171.886,629.631 194.539,657.008C198.629,661.952 212.991,671.478 219.286,671.169C218.902,670.199 219.171,670.547 218.632,670.024C201.941,649.517 196.09,637.228 202.969,611.359C187.886,594.266 180.099,577.157 174.685,555.217C172.229,553.137 169.748,551.215 166.653,550.14ZM539.981,705.971C539.652,705.681 539.319,705.395 538.981,705.115C531.736,699.18 521.9,691.087 512.942,688.237C507.468,686.496 461.921,688.112 453.801,688.99C467.071,716.919 477.103,744.047 476.409,775.554C514.018,794.047 555.964,801.914 597.718,798.304C665.376,792.737 733.311,754.829 776.485,703.121C813.101,659.266 828.55,612.372 823.876,555.495C817.22,567.981 808.407,578.024 800.499,589.666C780.28,619.426 763.459,659.251 724.9,668.279C715.188,670.554 706.404,669.407 696.664,668.402C675.547,664.982 655.886,649.939 643.971,632.684C625.6,606.199 621.999,572.021 628.445,540.951C637.043,499.503 651.491,458.454 655.066,416.022C658.05,380.606 656.094,343.051 644.264,309.282C640.781,299.338 636.552,290.747 632.168,281.207C645.294,288.551 662.18,310.976 669.193,323.872C698.231,377.263 695.752,436.161 686.546,494.288C683.603,516.224 679.921,537.531 682.154,559.828C683.939,577.657 697.088,599.542 710.484,611.472C717.42,617.649 730.294,621.914 738.247,614.978C750.589,604.216 758.74,588.295 767.892,574.544C774.066,565.084 780.803,556.005 788.068,547.354C796.062,538.016 804.607,529.163 813.656,520.842C836.624,499.66 879.592,468.271 870.128,433.12C860.89,398.808 828.648,376.609 806.312,350.519C777.935,317.37 756.415,272.524 717.784,250.285C710.74,246.267 703.26,243.071 695.488,240.757C682.001,236.654 663.964,233.725 649.935,231.172C624.719,226.519 599.405,222.411 574.012,218.85C498.793,208.637 420.514,203.67 357.042,252.108C339.211,265.931 323.942,282.774 311.929,301.872C306.818,310.007 297.655,328.458 289.216,332.854C268.11,343.849 305.054,357.785 307.954,352.16C314.807,338.865 320.887,329.402 331.91,318.758C329.555,324.814 326.884,332.626 324.787,338.867C311.701,377.805 286.097,399.584 250.06,416.844C242.716,420.008 237.326,422.246 229.602,424.602C244.281,432.035 261.635,444.838 267.006,461.189C267.38,462.328 267.719,463.48 268.031,464.638C268.395,466.544 268.688,468.15 268.588,470.106C264.86,492.394 246.274,506.203 228.791,518.683L213.679,529.275C207.123,533.859 194.029,541.629 193.092,550.04C191.672,562.796 203.373,577.371 210.223,586.766C220.445,600.785 230.674,610.397 242.688,622.261C269.584,648.82 296.519,663.507 334.269,668.362C352.422,670.697 367.22,669.636 385.64,666.877C422.577,661.436 462.859,644.941 500.214,654.614C511.131,657.441 521.973,666.502 528.818,675.127C533.564,681.106 542.775,698.358 541.76,705.945L541.137,706.374L539.981,705.971ZM471.861,325.201C478.245,324.148 488.846,325.156 495.219,326.266C502.913,327.607 528.145,334.774 526.091,345.474C524.606,347.533 521.759,349.11 519.556,350.571C506.842,381.14 491.035,412.651 455.006,418.454C437.556,421.265 424.016,418.446 409.546,408.228C399.78,400.918 393.364,390.428 386.358,380.504C373.798,382.473 355.073,370.823 349.876,359.388C349.346,358.221 349.542,358.258 349.971,357.244C352.053,356.909 356.843,360.621 361.073,361.637C366.086,363.034 374.093,363.491 379.133,361.751C414.001,349.712 433.023,329.375 471.861,325.201ZM461.674,345.214C467.404,350.071 471.65,354.941 472.429,362.921C473.04,369.354 471.076,375.767 466.968,380.755C462.567,386.142 456.196,389.547 449.272,390.214C432.63,391.694 424.363,381.596 417.026,368.665C411.339,371.555 403.4,376.364 397.691,378.086C403.662,383.796 408.005,387.765 414.803,392.673C427.148,400.845 440.192,405.817 455.014,402.576C482.364,396.597 493.142,372.791 499.846,348.878C488.04,344.791 474.048,344.181 461.674,345.214ZM497.552,270.707C514.781,269.368 538.847,276.305 549.265,290.962C542.071,288.071 535.524,284.188 527.888,281.76C492.529,270.518 448.76,296.192 417.885,312.538C415.5,313.816 413.104,315.073 410.697,316.309C400.256,321.603 388.646,326.447 376.913,322.552C373.076,321.278 366.339,316.167 368.31,311.417C370.836,308.686 383.962,307.417 388.46,305.498C423.644,290.489 458.841,273.523 497.552,270.707ZM221.4,634.77C231.59,661.202 269.111,687.218 295.033,698.569C321.629,710.214 351.499,712.354 379.887,706.988L380.76,706.505C380.074,704.247 371.56,696.188 369.301,693.935C320.791,697.868 279.149,685.78 241.82,654.293C237.636,650.718 233.589,646.987 229.688,643.106C228.048,641.465 222.769,635.678 221.4,634.77Z" style="fill:rgb(36,132,36);"  data-color="color-1"/>
    </g>
</svg>
