<?xml version="1.0" encoding="UTF-8" standalone="no"?>
<!DOCTYPE svg PUBLIC "-//W3C//DTD SVG 1.1//EN" "http://www.w3.org/Graphics/SVG/1.1/DTD/svg11.dtd">
<svg width="100%" height="100%" viewBox="0 0 628 622" version="1.1" xmlns="http://www.w3.org/2000/svg" xmlns:xlink="http://www.w3.org/1999/xlink" xml:space="preserve" xmlns:serif="http://www.serif.com/" style="fill-rule:evenodd;clip-rule:evenodd;stroke-linejoin:round;stroke-miterlimit:2;">
    <g transform="matrix(1,0,0,1,-151.973,-151.323)">
        <path d="M527.049,439.416L521.13,434.755C510.695,426.429 497.947,413.029 489.25,402.739C489.956,406.228 490.1,409.166 490.352,412.708C489.738,412.21 489.003,411.679 488.358,411.208C474.59,401.16 460.324,388.897 448.606,376.483C414.072,339.853 391.504,293.581 383.901,243.816C385.132,245.061 390.319,252.67 391.559,254.431C396.72,261.762 401.66,268.865 407.213,275.94C430.44,306.066 457.473,333.056 487.637,356.235C492.358,359.871 501.254,366.906 506.494,369.064C507.234,395.905 514.314,416.04 527.049,439.416ZM472.672,465.48C471.586,465.249 470.506,464.986 469.436,464.689C448.499,458.913 415.547,442.554 397.007,430.899C364.542,410.741 337.545,382.894 318.405,349.82C322.284,351.689 336.865,364.472 340.884,367.657C350.428,375.218 360.263,383.054 370.524,389.743C384.491,398.895 398.915,407.329 413.741,415.012C417.778,417.122 439.123,427.069 441.054,429.195C450.921,440.054 461.845,454.8 472.672,465.48ZM306.553,622.96L307.074,623.071L306.992,625.203L307.606,625.81C309.448,622.296 307.414,623.701 308.266,619.977C318.965,654.94 336.234,687.039 369.278,706.38C369.653,706.569 370.029,706.758 370.405,706.946C379.431,711.901 386.357,714.441 395.961,717.451C387.115,711.859 380.478,707.355 372.826,700.089C348.382,676.326 332.248,640.469 330.531,606.409C368.99,615.546 384.092,615.868 423.565,608.156C413.719,618.231 389.552,640.831 376.723,645.679C398.157,652.34 426.176,650.376 448.038,647.263C449.742,652.381 451.419,657.508 453.071,662.643C442.92,671.05 434.358,676.333 423.2,683.356L418.271,686.425C420.845,687.171 422.99,687.872 425.658,688.244C444.034,693.224 468.572,692.969 487.297,690.713C493.181,700.419 501.053,707.291 508.552,715.528L482.469,725.577C479.4,726.65 476.659,727.64 473.503,728.444C477.066,729.667 480.399,730.863 484.054,731.777C492.705,735.126 512.615,737.697 522.155,738.431C539.439,739.759 537.107,738.169 551.687,748.063C546.177,748.775 535.668,748.338 529.604,748.329L487.488,748.309L350.953,748.493C315.023,720.249 303.14,666.578 306.553,622.96ZM641.234,432.376C643.204,433.621 646.186,435.2 648.275,436.385C647.202,433.269 645.853,429.963 644.656,426.868C640.421,415.843 637.23,406.124 634.565,394.681C653.305,419.653 670.954,453.242 701.617,464.472C690.177,472.302 680.019,475.96 665.699,474.561C641.976,472.243 613.386,445.052 597.378,428.096C593.505,423.994 586.783,415.042 582.953,410.4C580.917,407.484 578.779,404.858 576.561,402.084C576.488,405.385 576.276,409.707 576.495,412.908C576.327,433.811 578.707,437.056 594.861,449.896C591.548,462.538 590.446,471.867 597.29,483.748C602.62,493 610.412,498.866 620.73,501.517C621.806,501.796 622.887,502.055 623.972,502.293C620.524,506.856 618.146,508.316 612.843,510.686C632.023,515.418 648.437,504.541 659.68,489.89C667.083,490.258 672.335,490.158 679.751,490.033C688.578,498.739 716.423,523.594 726.034,529.388C733.935,524.085 754.528,504.285 759.975,496.34C765.033,513.848 757.983,542.21 749.06,557.727C737.91,577.116 726.287,587.28 707.827,598.75C674.545,566.242 646.405,538.198 600.863,524.413C585.136,519.758 568.819,517.399 552.418,517.409C496.053,518.004 452.291,553.141 399.457,567.639C357.337,578.836 312.931,578.075 271.219,565.443C264.437,563.421 258.536,560.962 251.923,558.571C264.095,558.689 275.294,558.844 287.523,558.099C327.097,555.685 365.809,544.715 399.999,524.455C407.931,519.755 415.098,514.352 422.478,508.882C425.947,506.311 431.964,501.322 435.47,499.315C398.589,495.804 369.593,490.829 335.664,474.357C327.741,470.511 317.869,465.612 311.197,459.866C333.609,464.136 356.144,467.738 378.77,470.667C389.163,471.914 410.998,473.561 420.462,475.452C424.262,480.532 435.163,493.715 440.967,496.478C444.818,496.065 452.736,488.906 454.863,488.404C470.758,484.647 498.006,485.433 513.257,489.274C506.906,475.714 502.057,457.657 500.283,442.742C527.454,461.371 557.42,475.55 589.054,484.745C582.643,470.226 576.083,465.6 567.398,453.181C549.328,427.346 551.042,390.469 561.829,362.142C563.67,357.308 568.04,347.98 571.079,343.754C584.124,375.453 611.068,415.203 641.234,432.376ZM700.743,546.82C702.508,551.353 710.425,564.352 715.146,564.984L715.757,563.876C717.552,556.539 717.756,555.339 717.231,547.979C710.286,548.081 707.403,548.163 700.743,546.82ZM671.626,675.563L664.007,670.399C679.525,675.891 691.555,679.769 708.368,677.711C724.909,675.687 732.84,671.005 743.788,658.908L744.218,659.433C739.302,695.12 694.508,690.285 671.626,675.563Z" style="fill:rgb(190,76,48);" data-color="color-1"/>
        <path d="M162.628,772.052C159.13,772.339 155.49,772.438 151.973,772.581L160.568,768.087C166.78,764.241 183.415,756.478 190.662,752.984C201.242,747.884 216.933,739.457 227.259,735.428C227.118,711.029 227.717,685.52 227.069,661.351C223.433,662.364 219.771,663.28 216.086,664.099C217.662,645.519 219.663,627.69 223.315,609.374C225.921,596.302 227.95,583.131 231.442,570.238C213.25,563.069 191.878,546.061 183.714,527.978C202.395,528.701 227.798,530.322 246.32,529.015C252.546,516.777 257.821,504.68 264.419,492.187C257.891,484.903 254.076,478.705 248.958,470.516C258.716,469.836 277.715,466.348 288.245,464.738C283.058,460.202 275.795,456.156 270.155,451.263C256.263,439.21 244.212,424.562 234.407,409.024C231.518,404.445 228.91,399.124 226.219,394.387C253.111,404.657 272.237,409.728 300.266,415.119C298.041,411.186 296.381,407.879 294.435,403.794C292.563,400.428 290.786,396.516 289.104,393.009C293.085,395.035 297.403,396.867 301.501,398.685C310.444,402.327 318.706,405.853 327.896,408.865C299.425,373.445 282.344,339.655 271.375,295.231C269.92,289.251 268.759,283.203 267.898,277.109C267.152,271.863 266.677,265.924 265.098,260.903C272.821,268.314 278.336,275.695 287.096,283.536C302.959,297.736 318.627,307.249 335.616,318.873C331.681,304.283 329.878,290.927 329.006,275.94C335.828,285.981 357.74,304.843 368.01,311.593C355.105,265.349 354.12,214.582 362.71,167.527C363.696,162.124 364.975,156.754 365.747,151.323C371.211,163.145 375.234,174.89 381.179,187.037C399.833,225.71 424.539,261.159 454.365,292.047C459.853,297.822 465.898,304.412 471.737,309.707C473.678,290.917 479.2,255.263 485.533,237.524C501.672,272.01 517.252,303.136 542.689,332.231C549.768,316.008 561.441,297.914 573.576,285.096C575.086,289.694 576.681,296.823 577.966,301.675C581.192,313.857 584.396,323.822 590.281,335.062C592.099,329.528 595.067,319.296 597.188,314.356C598.21,311.498 599.172,308.725 600.368,305.932C601.594,308.911 602.91,311.906 603.866,314.974L604.052,315.379C606.346,320.466 608.536,327.486 610.694,332.932C615.421,344.858 620.327,353.417 626.997,364.273C626.916,353.698 628.431,345.608 630.726,335.406C635.43,344.228 639.012,353.649 643.254,362.689C660.224,398.851 685.577,454.139 732.202,455.616L731.702,456.097C719.593,467.871 718.21,474.592 700.339,483.006C705.793,489.346 720.205,502.53 727.12,507.782C739.99,497.095 748.928,486.797 756.845,471.732C758.688,468.225 759.678,465.15 761.302,461.817C762.126,459.146 763.088,456.245 763.83,453.575C765.661,456.888 766.753,459.089 768.257,462.56C781.461,493.821 783.939,524.412 771.014,556.382C758.004,589.003 732.42,615.021 700.021,628.576C686.037,634.395 675.697,635.851 660.814,633.682C657.873,633.085 654.925,632.189 652.03,631.374C655.392,630.433 657.084,629.648 660.267,628.231C668.075,624.1 671.096,621.912 676.213,614.538C662.136,613.842 653.593,613.199 642.912,603.359C648.58,600.805 651.022,598.574 655.152,593.952C634.572,570.561 614.314,553.346 583.748,544.51C598.548,555.078 612.858,571.388 622.481,586.912C630.225,599.404 634.865,613.381 641.723,626.087C656.251,652.998 683.488,666.133 713.664,661.459C726.017,659.546 736.604,653.45 744.288,643.355C746.877,638.41 748.752,633.966 750.941,628.843C751.569,631.74 752.208,634.506 752.604,637.447C754.113,647.617 751.828,655.119 748.809,664.564C752.03,662.18 754.284,660.408 757.15,657.59C757.715,657.034 761.582,652.945 761.742,652.844C765.103,647.737 767.282,644.298 769.933,638.705C770.113,643.308 770.287,648.998 769.642,653.591C764.038,688.942 732.491,711.54 698.096,705.115C656.313,697.311 633.768,662.088 618.68,626.024C609.133,603.204 584.697,586.062 561.691,577.529C570.454,590.856 575.501,597.559 580.302,612.809C591.169,617.006 596.981,617.9 608.661,615.489C603.285,623.007 596.529,628.706 588.634,633.426C597.684,641.019 610.363,640.351 621.718,640.699C612.798,652.364 612.067,651.217 601.954,659.6C608.782,670.915 613.738,674.461 625.104,680.471C607.336,685.829 589.098,687.435 571.971,678.679C555.879,670.452 548.902,653.487 538.059,640.159C530.244,630.543 524.262,625.983 513.98,619.176C522.608,657.515 547.895,693.126 579.282,716.209C619.45,745.749 667.08,755.654 714.131,769.048C717.867,770.126 722.21,770.96 725.979,771.766C696.469,772.686 663.754,772.018 634.072,772.02L466.539,772.037L270.871,772.036C235.637,772.07 197.676,772.783 162.628,772.052ZM671.626,675.563C694.508,690.285 739.302,695.12 744.218,659.433L743.788,658.908C732.84,671.005 724.909,675.687 708.368,677.711C691.555,679.769 679.525,675.891 664.007,670.399L671.626,675.563ZM527.049,439.416C514.314,416.04 507.234,395.905 506.494,369.064C501.254,366.906 492.358,359.871 487.637,356.235C457.473,333.056 430.44,306.066 407.213,275.94C401.66,268.865 396.72,261.762 391.559,254.431C390.319,252.67 385.132,245.061 383.901,243.816C391.504,293.581 414.072,339.853 448.606,376.483C460.324,388.897 474.59,401.16 488.358,411.208C489.003,411.679 489.738,412.21 490.352,412.708C490.1,409.166 489.956,406.228 489.25,402.739C497.947,413.029 510.695,426.429 521.13,434.755L527.049,439.416ZM641.369,485.915L643.599,484.62L643.676,483.957C638.284,480.399 632.568,477.748 626.924,474.008C620.165,469.527 613.588,463.535 607.164,459.207C605.973,466.472 606.304,473.339 610.691,479.68C614.013,484.496 619.19,487.714 624.98,488.56C630.944,489.488 635.901,487.995 641.369,485.915ZM472.672,465.48C461.845,454.8 450.921,440.054 441.054,429.195C439.123,427.069 417.778,417.122 413.741,415.012C398.915,407.329 384.491,398.895 370.524,389.743C360.263,383.054 350.428,375.218 340.884,367.657C336.865,364.472 322.284,351.689 318.405,349.82C337.545,382.894 364.542,410.741 397.007,430.899C415.547,442.554 448.499,458.913 469.436,464.689C470.506,464.986 471.586,465.249 472.672,465.48ZM306.553,622.96C303.14,666.578 315.023,720.249 350.953,748.493L487.488,748.309L529.604,748.329C535.668,748.338 546.177,748.775 551.687,748.063C537.107,738.169 539.439,739.759 522.155,738.431C512.615,737.697 492.705,735.126 484.054,731.777C480.399,730.863 477.066,729.667 473.503,728.444C476.659,727.64 479.4,726.65 482.469,725.577L508.552,715.528C501.053,707.291 493.181,700.419 487.297,690.713C468.572,692.969 444.034,693.224 425.658,688.244C422.99,687.872 420.845,687.171 418.271,686.425L423.2,683.356C434.358,676.333 442.92,671.05 453.071,662.643C451.419,657.508 449.742,652.381 448.038,647.263C426.176,650.376 398.157,652.34 376.723,645.679C389.552,640.831 413.719,618.231 423.565,608.156C384.092,615.868 368.99,615.546 330.531,606.409C332.248,640.469 348.382,676.326 372.826,700.089C380.478,707.355 387.115,711.859 395.961,717.451C386.357,714.441 379.431,711.901 370.405,706.946C370.029,706.758 369.653,706.569 369.278,706.38C336.234,687.039 318.965,654.94 308.266,619.977C307.414,623.701 309.448,622.296 307.606,625.81L306.992,625.203L307.074,623.071L306.553,622.96ZM641.234,432.376C611.068,415.203 584.124,375.453 571.079,343.754C568.04,347.98 563.67,357.308 561.829,362.142C551.042,390.469 549.328,427.346 567.398,453.181C576.083,465.6 582.643,470.226 589.054,484.745C557.42,475.55 527.454,461.371 500.283,442.742C502.057,457.657 506.906,475.714 513.257,489.274C498.006,485.433 470.758,484.647 454.863,488.404C452.736,488.906 444.818,496.065 440.967,496.478C435.163,493.715 424.262,480.532 420.462,475.452C410.998,473.561 389.163,471.914 378.77,470.667C356.144,467.738 333.609,464.136 311.197,459.866C317.869,465.612 327.741,470.511 335.664,474.357C369.593,490.829 398.589,495.804 435.47,499.315C431.964,501.322 425.947,506.311 422.478,508.882C415.098,514.352 407.931,519.755 399.999,524.455C365.809,544.715 327.097,555.685 287.523,558.099C275.294,558.844 264.095,558.689 251.923,558.571C258.536,560.962 264.437,563.421 271.219,565.443C312.931,578.075 357.337,578.836 399.457,567.639C452.291,553.141 496.053,518.004 552.418,517.409C568.819,517.399 585.136,519.758 600.863,524.413C646.405,538.198 674.545,566.242 707.827,598.75C726.287,587.28 737.91,577.116 749.06,557.727C757.983,542.21 765.033,513.848 759.975,496.34C754.528,504.285 733.935,524.085 726.034,529.388C716.423,523.594 688.578,498.739 679.751,490.033C672.335,490.158 667.083,490.258 659.68,489.89C648.437,504.541 632.023,515.418 612.843,510.686C618.146,508.316 620.524,506.856 623.972,502.293C622.887,502.055 621.806,501.796 620.73,501.517C610.412,498.866 602.62,493 597.29,483.748C590.446,471.867 591.548,462.538 594.861,449.896C578.707,437.056 576.327,433.811 576.495,412.908C576.276,409.707 576.488,405.385 576.561,402.084C578.779,404.858 580.917,407.484 582.953,410.4C586.783,415.042 593.505,423.994 597.378,428.096C613.386,445.052 641.976,472.243 665.699,474.561C680.019,475.96 690.177,472.302 701.617,464.472C670.954,453.242 653.305,419.653 634.565,394.681C637.23,406.124 640.421,415.843 644.656,426.868C645.853,429.963 647.202,433.269 648.275,436.385C646.186,435.2 643.204,433.621 641.234,432.376ZM700.743,546.82C707.403,548.163 710.286,548.081 717.231,547.979C717.756,555.339 717.552,556.539 715.757,563.876L715.146,564.984C710.425,564.352 702.508,551.353 700.743,546.82Z"/>
        <path d="M641.369,485.915C635.901,487.995 630.944,489.488 624.98,488.56C619.19,487.714 614.013,484.496 610.691,479.68C606.304,473.339 605.973,466.472 607.164,459.207C613.588,463.535 620.165,469.527 626.924,474.008C632.568,477.748 638.284,480.399 643.676,483.957L643.599,484.62L641.369,485.915Z" style="fill:white;" data-color="color-2"/>
    </g>
</svg>
