<?xml version="1.0" encoding="UTF-8" standalone="no"?>
<!DOCTYPE svg PUBLIC "-//W3C//DTD SVG 1.1//EN" "http://www.w3.org/Graphics/SVG/1.1/DTD/svg11.dtd">
<svg width="100%" height="100%" viewBox="0 0 702 984" version="1.1" xmlns="http://www.w3.org/2000/svg" xmlns:xlink="http://www.w3.org/1999/xlink" xml:space="preserve" xmlns:serif="http://www.serif.com/" style="fill-rule:evenodd;clip-rule:evenodd;stroke-linejoin:round;stroke-miterlimit:2;">
    <g transform="matrix(1,0,0,1,-131.228,-12.3327)">
        <g transform="matrix(1,0,0,1,-23.8936,30.6074)">
            <path d="M655.876,965.408C638.228,964.458 616.323,959.981 602.755,950.375L593.519,943.548L592.482,940.762C592.482,940.762 588.351,929.566 587.698,927.022C584.666,915.199 585.964,900.524 589.703,886.662C585.035,881.793 582.485,877.232 579.531,870.107C575.125,859.476 575.755,848.741 579.214,838.26C580.018,835.825 580.99,833.405 582.035,831.017C576.54,825.913 569.872,820.811 565.612,818.172C558.808,813.956 552.479,811.192 545.483,809.746L554.207,839.131L518.627,828.305C506.405,824.585 497.833,819.419 491.725,813.371L488.387,822.629L466.833,785.526C465.389,783.04 464.064,780.485 462.844,777.827L471.932,783.655L462.79,777.708C458.581,768.322 456.387,759.223 455.705,750.25C426.124,790.264 389.707,823.195 330.208,806.074L297.164,796.566C277.22,795.5 259.973,788.386 242.889,774.912L204.077,744.304L206.649,744.043C193.965,736.546 183.203,726.136 174.558,713.134L155.122,683.905L190.175,682.087C205.619,681.286 222.573,677.727 237.733,674.401C287.749,663.426 343.624,644.547 392.534,618.733C386.056,616.193 379.667,612.831 373.389,608.558L339.048,585.182L340.773,584.649C336.19,581.199 331.783,577.093 327.58,572.266L310.875,553.076L313.89,551.514C302.241,545.177 292.122,534.541 284.299,517.278L276.185,499.373C261.871,489.908 251.064,475.649 246.324,454.007L242.944,438.575C227.462,426.47 216,408.935 211.357,381.835L208.076,362.686C185.54,343.57 169.67,318.654 166.912,283.795L164.038,247.474L174.724,253.143C165.214,237.02 159.349,218.519 158.948,196.368L158.206,155.444L186.928,176.992C177.431,158.913 172.401,139.038 173.11,114.64L174.335,72.459L206.209,100.114C212.164,105.281 218.453,111.784 224.245,117.472C216.035,97.549 212.047,75.878 213.627,49.292L216.456,1.709L248.427,37.065C260.25,50.14 273.153,66.525 284.632,80.349C284.632,80.349 284.654,80.375 284.66,80.383C284.663,80.387 284.667,80.391 284.67,80.394C293.442,91.024 302.243,101.629 311.073,112.209C305.25,77.026 307.484,44.121 307.486,44.093L312.3,-18.275L344.561,35.285C357.457,56.695 370.529,77.998 383.792,99.218L383.805,99.239C383.816,99.256 383.826,99.274 383.837,99.291C383.842,99.299 383.847,99.307 383.852,99.316C410.617,142.717 437.478,185.229 467.486,226.642C468.299,227.764 469.223,229.01 470.229,230.342C467.535,216.537 466.138,201.148 468.965,187.36L475.79,154.074L499.743,174.622C497.748,165.1 496.956,155.278 497.745,145.099C498.536,134.898 501.68,117.476 506.903,108.696L520.893,85.178L539.053,105.649C542.825,109.901 548.52,119.907 551.883,125.186C552.235,125.739 552.587,126.293 552.938,126.849C552.7,124.976 552.505,123.11 552.359,121.253L562.328,130.469L552.354,121.18C551.078,103.889 553.655,86.531 559.882,70.393C562.756,62.755 566.515,55.48 571.08,48.716L590.524,19.907L605.661,51.195C609.201,58.513 611.866,66.563 615.043,74.024C618.484,82.103 621.629,90.355 624.707,98.621C627.91,79.072 636.609,53.144 646.368,41.501L672.011,10.905L681.163,49.763C694.304,105.557 707.293,162.413 724.885,216.926L724.895,216.955C724.903,216.98 724.911,217.005 724.918,217.03C724.922,217.042 724.926,217.054 724.929,217.066C730.585,235.065 736.68,252.925 743.209,270.628C746.064,278.147 748.963,285.65 751.906,293.136C761.542,317.41 769.771,344.259 754.474,369.217C747.707,380.256 737.329,388.281 728.618,397.715C728.584,397.745 728.549,397.775 728.514,397.805C728.497,397.819 728.48,397.834 728.464,397.848L728.514,397.826C717.48,409.536 708.047,422.903 700.267,436.973C693.157,449.834 689.745,464.249 686.975,478.591C724.165,485.95 765.617,499.813 789.218,530.025C802.998,547.664 811.582,569.576 808.595,592.342C808.229,595.211 807.669,598.047 806.921,600.83C813.474,612.443 816.961,624.97 814.644,639.017C810.074,666.698 786.94,680.84 761.187,682.061L725.541,683.752L742.705,652.464C742.993,651.939 743.43,651.193 743.812,650.548C738.396,639.106 727.142,630.736 714.642,625.591C700.767,619.881 684.995,618.076 672.034,622.169C664.216,624.638 659.394,630.004 655.411,636.047C653.796,638.499 652.311,641.067 650.898,643.697L654.31,647.959C657.295,651.687 662.042,662.286 664.1,667.105C669.393,679.507 674.173,693.121 683.231,703.392L683.243,703.407C683.256,703.422 683.269,703.436 683.282,703.451C683.288,703.458 683.294,703.465 683.3,703.472C686.366,706.987 690.164,709.79 694.433,711.686L694.447,711.692C694.457,711.697 694.467,711.701 694.478,711.706C702.728,715.378 707.326,713.846 715.58,711.101C729.328,706.528 745.231,703.889 759.656,704.453C770.349,704.871 780.108,709.562 786.816,717.765C789.499,720.956 792.925,726.696 795.035,732.303C796.203,735.407 796.946,738.493 797.317,741.272C815.417,744.38 832.489,750.252 845.566,765.636L846.43,766.652L846.997,767.859C846.997,767.859 853.426,781.826 853.55,782.259C860.499,806.591 852.653,835.646 841.193,857.256C841.193,857.256 829.781,878.198 829.783,878.192C829.153,879.591 828.411,880.927 827.559,882.191C805.688,914.66 766.458,943.364 728.822,955.254L728.37,955.396L698.344,961.836L698.129,961.873C687.821,963.616 679.44,964.974 669.643,965.436C667.709,965.528 665.719,965.584 663.648,965.602L663.521,965.602C661.098,965.614 658.535,965.551 655.876,965.408ZM670.084,776.445C670.082,776.446 670.08,776.446 670.078,776.447L670.285,778.58C670.287,778.579 670.289,778.579 670.291,778.578L670.084,776.445ZM671.143,776.525L670.867,776.262C670.758,776.288 670.65,776.314 670.541,776.339L670.751,778.481C670.912,778.448 671.073,778.416 671.233,778.384L671.143,776.525ZM671.641,777.001L671.633,776.993L671.698,778.293L671.705,778.291L671.641,777.001ZM609.251,770.643L619.583,764.657C613.394,763.735 607.187,762.177 601.818,759.244C589.856,752.709 584.86,743.718 582.243,733.298C582.176,733.032 582.112,732.765 582.051,732.495C582.039,732.708 582.029,732.916 582.019,733.12C581.397,746.346 590.059,755.177 599.822,763.179C602.693,765.532 605.873,768.093 609.251,770.643ZM636.606,782.388L622.479,779.638C625.748,781.573 629.063,783.285 632.342,784.622C633.736,783.921 635.164,783.166 636.606,782.388Z" style="fill:rgb(101,0,0);"/>
        </g>
        <g transform="matrix(1,0,0,1,-23.8936,30.6074)">
            <path d="M252.321,239.533C243.731,231.042 235.27,222.406 226.966,213.586C199.798,184.733 182.901,157.41 184.106,115.93L184.718,94.84L200.655,108.667C206.875,114.063 213.455,120.957 219.431,126.772L257.278,163.463C265.863,171.718 274.551,179.864 283.345,187.904C280.434,184.281 277.498,180.603 274.475,176.822C242.387,136.69 221.432,104.331 224.61,50.885L226.024,27.094L242.009,44.772C253.747,57.753 266.552,74.024 277.947,87.748L277.957,87.759C297.103,110.96 316.389,134.045 335.812,157.014C313.571,114.188 318.459,45.835 318.459,45.835L320.864,14.665L336.995,41.444C349.924,62.908 363.029,84.266 376.325,105.539L376.341,105.565C403.237,149.178 430.234,191.895 460.388,233.51C468.655,244.918 488.128,268.84 489.7,267.109C492.509,264.018 473.179,222.472 479.761,190.369L483.174,173.726L496.069,184.788C501.309,189.283 516.019,207.66 521.609,214.06L521.626,214.08C526.929,220.216 532.255,226.333 537.603,232.429C532.555,224.483 527.636,216.401 523.353,208.105C513.515,189.05 507.008,168.887 508.715,146.872C509.411,137.905 511.907,122.526 516.497,114.809L523.492,103.049L532.572,113.285C536.089,117.25 541.313,126.636 544.45,131.561C551.404,142.473 558.125,153.866 565.218,164.691C571.112,173.686 577.189,182.549 583.363,191.347C583.181,190.868 583,190.39 582.819,189.911C574.784,168.622 565.132,144.413 563.328,121.469L563.326,121.445C562.159,105.615 564.52,89.725 570.227,74.954C572.828,68.032 576.232,61.439 580.368,55.311L590.091,40.906L597.659,56.55C601.131,63.726 603.728,71.626 606.843,78.942C613.965,95.668 619.811,113.141 626.432,129.93C630.269,139.66 634.404,149.423 638.719,159.169C636.125,143.9 634.493,128.644 634.402,113.597C634.299,96.768 643.779,62.35 655.032,48.924L667.853,33.626L672.429,53.055C685.634,109.12 698.699,166.249 716.378,221.026L716.39,221.063C722.099,239.234 728.252,257.262 734.843,275.133C737.719,282.708 740.639,290.267 743.604,297.808C752.119,319.256 760.466,342.937 746.948,364.991C740.523,375.472 730.541,382.974 722.271,391.931L722.236,391.968C710.631,404.285 700.699,418.336 692.516,433.135C684.329,447.943 680.598,464.638 677.505,481.126L676.29,487.598C713.529,494.033 758.084,506.134 782.337,537.181C794.489,552.736 802.318,571.981 799.678,592.057C799.196,595.841 798.315,599.557 797.052,603.144C803.808,613.797 807.942,625.27 805.777,638.388C802.044,661.006 782.755,672.075 761.713,673.072L743.89,673.918L752.472,658.274C753.997,655.495 756.261,653.049 754.966,649.82C748.999,634.953 735.207,623.83 719.448,617.344C703.36,610.722 685.051,608.887 670.022,613.634C659.79,616.865 653.273,623.636 648.061,631.545C645.086,636.06 642.508,640.93 640.04,645.886L647.503,655.209C650.114,658.469 654.103,667.818 655.902,672.03C661.608,685.398 666.979,699.955 676.745,711.023L676.764,711.045C680.788,715.659 685.772,719.337 691.374,721.825L691.381,721.828C702.47,726.774 708.65,725.276 719.736,721.59C732.379,717.384 746.999,714.927 760.265,715.445C768.079,715.751 775.233,719.141 780.12,725.151C782.266,727.679 784.98,732.32 786.675,736.825C788.114,740.649 788.758,744.415 788.574,747.095L788.372,750.043L787.79,750.819C806.806,753.269 825.405,757.182 838.946,773.113C838.946,773.113 844.823,785.617 844.934,786.003C851.202,807.946 843.696,834.078 833.385,853.521L821.8,874.779C821.374,875.772 820.864,876.716 820.266,877.605C799.568,908.331 762.425,935.467 726.81,946.718L697.461,953.013C685.682,955.005 676.544,956.5 664.537,956.602L664.521,956.602C647.821,956.69 623.646,953.204 609.617,943.273L602.853,938.273C602.853,938.273 598.99,927.897 598.384,925.538C595.317,913.577 597.562,898.325 602.038,884.631L600.673,883.397C595.065,878.329 592.688,874.319 589.769,867.278C586.327,858.972 587.007,850.583 589.71,842.395C591.116,838.135 593.105,833.939 595.025,829.885C588.639,822.876 578,814.464 571.879,810.672C559.955,803.284 549.273,799.789 535.284,799.548C534.73,799.554 533.96,799.54 533.131,799.517C533.785,802.351 534.652,806.033 535.036,807.325L540.328,825.151L522.539,819.738C508.281,815.399 499.833,808.954 494.82,801.172C492.86,798.129 491.431,794.809 490.448,791.205L487.257,800.054L476.48,781.503C475.195,779.292 474.017,777.02 472.932,774.655L472.914,774.616C465.429,757.924 465.222,742.251 468.508,726.449C467.649,726.975 466.737,727.502 465.791,728.022C463.104,729.496 458.597,732.142 457.635,732.708C428.724,774.599 394.719,814.944 333.974,797.464L313.024,791.436L321.047,786.179C319.298,786.497 317.532,786.761 315.751,786.968C290.271,789.931 270.058,783.814 250.081,768.06L230.675,752.756L255.263,750.259C258.258,749.955 261.499,749.33 264.929,748.433C257.112,748.906 249.356,748.544 241.731,747.131C217.171,742.584 197.582,729.197 183.885,708.597L174.167,693.983L191.694,693.073C207.663,692.245 225.201,688.608 240.876,685.168C299.655,672.271 366.375,648.606 420.946,615.764C406.912,614.76 393.195,610.262 380.016,601.291L362.846,589.603L368.204,587.947C356.57,584.544 345.752,577.761 336.123,566.7L327.77,557.105L339.066,551.254C339.743,550.903 340.426,550.556 341.113,550.211C322.07,547.842 305.572,538.788 294.408,514.15L288.69,501.534L299.761,500.364C279.238,493.059 262.896,479.365 257.092,452.868L254.008,438.788L263.243,440.109C242.956,429.428 227.564,412.376 222.213,381.146L219.441,364.965L234.194,369.64C231.757,368.103 229.367,366.521 227.032,364.887C200.525,346.346 180.847,321.499 177.881,284.006L176.444,265.845L192.536,274.383C202.221,279.522 212.207,285.334 222.054,290.869C193.191,267.023 170.71,239.338 169.946,197.187L169.575,176.725L185.946,189.007C208.217,205.716 230.115,222.82 252.321,239.533ZM589.965,716.585L580.604,711.703C579.157,714.193 577.68,716.767 576.19,719.521C574.094,723.398 573.236,729.258 573.03,733.65C572.249,750.257 582.224,761.866 594.483,771.913C605.241,780.731 620.132,792.039 633.858,796.45C640.38,793.553 648.217,788.699 654.761,785.619C659.869,782.809 666.557,780.501 672.24,779.383L672.713,779.29L673.192,779.242C673.422,779.22 673.651,779.2 673.88,779.183L671.867,777.262C671.261,777.405 670.654,777.545 670.047,777.68C666.279,778.522 660.052,777.571 656.231,776.827L630.05,771.729L651.156,759.501C644.378,757.572 637.174,757.26 629.263,756.583C622.021,755.963 614.073,754.997 607.612,751.468C598.6,746.545 594.913,739.712 592.941,731.862C591.742,727.089 591.481,721.79 589.965,716.585Z" style="fill:white;"/>
        </g>
        <g transform="matrix(0.882282,0,0,0.882282,39.2322,78.2115)">
            <path d="M701.533,910.201C701.603,912.588 702.324,917.132 700.377,918.707C687.917,928.79 676.044,940.037 663.711,950.199C658.297,942.309 653.238,934.181 648.551,925.839C646.376,921.925 640.671,912.558 642.866,908.524C651.125,893.339 674.808,893.933 688.382,898.679C696.115,900.78 700.076,901.715 701.533,910.201ZM735.318,884.394C732.703,878.189 729.645,870.141 724.743,865.506C712.662,854.084 694.295,859.438 684.066,870.108C688.184,870.029 700.732,871.124 710.079,877.038C719.425,882.953 729.695,897.589 729.695,897.589C728.648,898.291 715.127,891.529 703.615,888.42C689.725,884.668 677.199,884.353 672.599,884.255C662.648,884.041 644.106,883.882 636.712,890.601C624.421,901.771 618.045,924.205 616.868,940.032C611.947,935.585 609.942,932.011 607.381,925.832C601.761,912.272 610.697,898.446 616.096,886.184C609.672,876.759 591.998,862.199 582.603,856.378C567.159,846.809 553.314,842.351 535.146,842.069C532.572,842.17 526.745,841.314 524.441,842.208C516.492,845.293 522.562,860.571 524.009,865.445C491.934,855.685 491.004,836.387 495.487,806.824C494.76,807.153 494.035,807.488 493.312,807.829C483.581,812.424 481.728,817.768 478.306,827.259C477.032,825.066 475.864,822.813 474.806,820.508C462.105,792.187 470.684,766.786 481.264,738.858C473.603,743.338 465.493,752.352 457.572,758.014C453.954,761.745 440.946,766.668 438.321,770.479C408.151,814.289 373.625,858.425 310.12,840.151C316.293,836.107 321.839,833.763 328.34,828.749C351.354,810.999 376.558,784.335 394.79,762.002C388.391,767.32 380.77,772.69 374.02,778.186C348.106,799.289 319.491,823.881 285.023,827.888C259.37,830.871 239.03,824.677 218.918,808.816C254.387,805.214 319.115,764.279 346.964,741.402C304.792,759.808 252.235,791.69 204.499,782.85C179.785,778.274 160.093,764.772 146.309,744.043C165.005,743.073 185.544,738.862 203.896,734.835C287.911,716.4 385.923,678.784 454.038,625.726C423.539,637.107 393.347,638.248 365.549,619.326C377.926,615.501 410.873,601.241 421.022,593.851C415.248,594.844 408.692,597.034 403.089,598.903C371.344,609.492 341.114,608.633 317.97,582.047C335.561,572.936 356.526,565.611 373.576,556.123C333.834,560.104 293.327,571.289 272.464,525.25C278.69,524.592 288.186,522.645 294.629,521.577C310.544,518.966 326.438,516.231 342.311,513.373C298.962,510.366 242.581,511.295 230.918,458.044C237.293,458.956 247.476,459.26 254.291,459.887C277.609,462.031 302.238,463.589 325.669,462.787C269.621,445.801 203.823,449.281 191.485,377.264C205.044,381.561 218.689,385.91 232.362,389.815C262.176,398.332 290.347,407.452 321.18,411.794L320.832,411.597L320.246,411.278C309.481,405.31 295.582,401.489 284.131,396.517C223.409,370.151 147.484,345.515 141.365,268.183C155.16,275.502 169.494,284.032 183.366,291.616C211.072,306.815 239.147,321.334 267.563,335.159C286.913,344.547 300.227,351.115 320.241,358.556C315.193,354.674 308.678,350.919 303.159,347.508C295.682,342.872 288.232,338.193 280.808,333.472C256.831,318.229 233.291,302.308 210.217,285.729C169.964,256.305 133.397,225.236 132.405,170.469C176.031,203.199 218.401,237.255 263.474,268.081C289.311,285.752 314.052,303.022 341.323,318.401C337.199,314.596 332.769,310.959 328.518,307.273C282.016,266.964 236.176,226.336 193.952,181.492C165.364,151.13 147.183,122.554 148.451,78.905C155.348,84.889 162.635,92.546 169.261,98.993L212.185,140.606C230.376,158.096 248.971,175.16 267.954,191.786C298.325,218.882 325.852,242.423 358.838,266.296C351.458,257.716 342.863,249.449 335.211,241.034L286.302,186.33C272.531,170.813 261.162,156.474 248.401,140.514C213.953,97.431 190.933,62.901 194.344,5.525C207.548,20.127 221.945,38.436 234.753,53.861C261.152,85.85 287.784,117.645 314.646,149.246C328.699,165.687 343.756,182.28 358.307,198.313C368.669,209.731 380.515,220.118 391.118,231.558C385.624,219.107 372.504,201.079 364.513,189.224C350.411,168.562 336.579,147.718 323.019,126.696C294.398,81.666 300.701,0 300.701,0C315.387,24.381 330.273,48.641 345.358,72.777C375.991,122.45 406.745,171.097 441.089,218.494C467.071,254.352 500.017,286.554 523.914,323.811C531.601,335.796 525.596,361.305 526.498,375.19C526.732,409.867 532.607,440.392 551.551,470.25C563.753,489.481 578.333,504.523 599.711,513.885C606.012,516.644 614.86,517.956 621.073,520.377C614.597,513.459 607.561,509.659 602.067,503.994C613.229,505.677 628.818,503.655 641.009,504.481C658.013,505.695 674.942,507.796 691.727,510.776C731.622,517.571 780.145,529.605 806.24,563.01C818.168,578.278 826.184,597.062 823.586,616.769C822.912,622.089 821.383,627.265 819.057,632.097C826.973,643.179 832.856,654.958 830.556,668.897C827.271,688.797 809.773,697.855 791.259,698.733C794.641,692.568 797.541,686.641 794.667,679.479C778.959,640.336 723.214,619.636 684.457,631.877C655.791,640.931 647.226,668.942 634.616,692.506C627.606,705.36 611.288,728.382 601.091,738.948C606.077,714.248 607.01,679.235 595.333,656.906C597.302,679.23 597.896,697.574 590.814,719.42C585.938,734.461 578.818,743.869 571.55,757.309C568.444,763.052 566.921,771.676 566.616,778.183C565.55,800.845 578.339,817.138 595.068,830.849C609.314,842.526 629.623,857.418 647.535,861.861C655.814,858.831 666.85,851.844 675.744,847.711C680.604,844.978 687.088,842.749 692.573,841.67C704.466,840.501 714.352,848.286 724.005,854.807C725.639,855.91 729.554,860.856 730.582,861.597C732.004,863.647 734.766,867.361 735.677,869.497L736.802,868.926C735.937,867.344 734.904,864.638 734.179,862.9C724.867,839.858 722.728,843.754 705.597,827.401C727.013,818.346 751.984,810.035 775.017,806.404C789.031,814.482 808.094,834.772 816.92,848.457C812.104,850.525 779.599,868.505 779.421,868.519C779.265,868.53 776.421,863.299 776.368,863.304C776.277,863.314 770.037,866.35 768.776,867.039C768.374,867.259 772.112,872.178 771.713,872.396C769.632,873.534 765.078,876.467 763.103,877.548C762.632,877.807 759.653,870.998 759.092,871.211C756.284,872.275 753.449,873.673 750.98,875.026C750.687,875.187 754.153,882.259 753.867,882.416C747.621,885.837 744.547,887.266 743.418,887.83C742.836,888.338 739.137,890.326 738.231,890.833L735.318,884.394ZM764.465,614.078C773.946,625.414 780.952,623.543 793.538,626.861C801.325,628.913 803.742,634.327 813.387,630.918L814.623,629.74C813.671,627.362 799.825,620.634 796.476,617.695C790.842,612.749 786.18,608.007 781.209,602.329C774.85,596.269 761.891,586.361 753.635,582.905C754.904,584.604 757.973,588.936 759.286,590.142C768.499,598.605 764.023,603.798 764.465,614.078ZM824.421,862.501L825.371,862.706C832.215,870.41 843.941,901.195 846.827,912.203C848.373,918.694 852.855,929.464 848.76,935.544C825.628,969.884 783.265,1000.02 743.66,1010.93C726.998,1004.25 713.46,995.966 699.026,985.381C689.004,977.616 683.351,972.389 674.827,962.944C684.282,952.949 703.864,936.836 715.325,928.915L718.949,936.372C724.806,932.41 729.719,929.378 733.354,926.024C732.882,924.124 730.631,919.536 730.06,917.628C732.633,916.038 736.918,912.141 736.992,912.233C737.042,912.295 740.372,921.124 741.68,921.54C743.255,920.622 751.797,915.456 752.71,913.991C751.342,912.549 747.786,905.565 747.774,905.488C747.735,905.247 755.582,900.241 758.914,898.335C760.488,900.175 762.135,904.724 763.475,906.765C766.575,905.146 770.377,902.772 773.597,901.063C772.591,898.988 770.96,895.927 770.103,893.639C772.574,891.601 776.834,888.284 779.582,886.865C781.332,889.874 783.513,893.009 785.019,895.699C787.435,894.219 789.468,892.76 792.88,890.629C791.636,888.35 789.763,884.746 788.772,882.284C792.265,879.744 819.396,865.008 824.421,862.501ZM661.285,974.855C663.055,975.334 675.364,987.561 678.187,989.863C689.254,998.887 704.224,1010.11 717.08,1016.17C704.371,1018.32 694.514,1019.97 681.576,1020.08C664.454,1020.17 639.42,1017.04 625.382,1006.64C637.033,995.482 649.028,985.327 661.285,974.855ZM872.98,838.931C874.175,839.184 874.895,840.021 875.221,841.164C881.554,863.328 873.432,889.629 863.017,909.269L859.021,895.768C854.338,880.579 848.183,868.549 841.02,854.53C851.868,849.376 861.953,843.864 872.98,838.931ZM631.366,931.293C632.653,932.364 636.291,939.078 637.439,941.09C641.885,948.884 646.644,955.837 651.948,963.074C644.547,972.109 635.624,981.963 627.896,990.963C625.716,993.957 622.392,997.396 619.772,999.991C618.937,997.834 618.229,995.629 617.654,993.389C612.805,974.479 621.829,947.449 631.366,931.293ZM803.993,807.489C827.992,810.494 853.538,810.595 870.698,830.783C867.712,832.037 865.392,832.484 862.244,833.206C852.965,835.724 842.826,839.161 833.627,842.091C822.808,828.249 817.292,819.766 803.993,807.489ZM692.466,239.803C677.959,187.713 659.165,130.563 658.832,75.862C658.727,58.723 668.107,23.584 679.567,9.91C694.603,73.751 709.494,138.801 729.612,201.134C736.144,221.922 743.184,242.548 750.725,262.993C754.009,271.642 757.343,280.272 760.728,288.882C769.112,309.998 778.706,333.231 765.397,354.944C758.503,366.191 747.64,374.1 738.803,383.671C725.001,398.318 713.178,415.02 703.447,432.619C693.581,450.464 688.94,470.538 685.212,490.407C666.321,485.959 647.105,483.558 627.799,481.693C614.439,480.403 594.454,480.508 581.857,477.225C578.193,473.094 574.682,466.806 571.934,461.898C557.552,436.131 550.939,406.751 552.893,377.307C555.28,336.983 558.61,329.038 534.09,295.305C505.051,255.355 472.398,218.527 483.328,165.223C489.048,170.13 505.017,190.267 511.1,197.232C534.368,224.157 558.023,250.746 582.056,276.991C589.042,284.525 600.766,298.222 607.859,304.578C609.884,306.833 612.294,308.599 614.668,310.499L609.096,303.082C594.477,281.423 580.045,256.934 566.479,234.599C544.128,197.799 512.808,160.094 516.342,114.523C517.022,105.758 519.116,90.643 523.603,83.099C527.301,87.268 532.687,97.205 535.986,102.383C543.894,114.792 551.538,127.746 559.603,140.054C583.051,175.839 609.049,209.782 633.223,244.982C634.536,247.075 646.242,263.905 646.898,264.241C642.909,255.211 636.109,243.057 631.454,233.897C620.467,209.061 609.218,183.808 599.637,158.425C590.89,135.249 580.205,108.944 578.243,83.992C577.042,67.708 579.475,51.36 585.366,36.131C588.003,29.111 591.455,22.425 595.65,16.209C599.507,24.182 602.373,32.965 605.834,41.093C613.867,59.958 620.454,79.666 627.921,98.601C641.609,133.311 658.597,168.392 674.862,202.097C678.392,209.318 681.814,216.591 685.125,223.916C687.401,228.972 689.83,235.023 692.466,239.803ZM653.5,696.891C656.034,700.056 659.697,709.234 661.443,713.323C668.374,729.563 675.129,747.124 686.971,760.544C692.618,767.018 699.612,772.18 707.463,775.667C723.235,782.701 732.027,781.044 747.795,775.8C760.873,771.45 775.99,768.87 789.711,769.406C795.306,769.625 800.459,771.996 803.953,776.341C806.978,779.815 811.242,788.672 810.933,793.178C809.433,795.18 802.361,793.019 799.397,792.603C779.305,789.781 761.524,793.92 742.427,799.454C723.645,805.526 704.601,813.273 685.429,817.558C682.415,818.231 677.462,817.122 674.406,816.527C680.09,813.234 683.777,811.049 689.323,807.402C675.168,795.767 660.359,794.931 642.641,793.414C635.948,792.841 628.539,792.225 622.568,788.963C608.824,781.455 611.792,767.775 607.568,754.753C608.871,752.925 621.308,740.346 625.65,735.201C636.899,721.728 643.535,710.554 653.5,696.891Z" style="fill:rgb(247,199,103);"/>
        </g>
    </g>
</svg>
