<?xml version="1.0" encoding="UTF-8" standalone="no"?>
<!DOCTYPE svg PUBLIC "-//W3C//DTD SVG 1.1//EN" "http://www.w3.org/Graphics/SVG/1.1/DTD/svg11.dtd">
<svg width="100%" height="100%" viewBox="0 0 673 535" version="1.1" xmlns="http://www.w3.org/2000/svg" xmlns:xlink="http://www.w3.org/1999/xlink" xml:space="preserve" xmlns:serif="http://www.serif.com/" style="fill-rule:evenodd;clip-rule:evenodd;stroke-linejoin:round;stroke-miterlimit:2;">
    <g transform="matrix(1,0,0,1,-10.2594,-16.9015)">
        <path d="M199.59,17.208C203.466,16.815 208.841,16.914 212.831,16.91C238.7,17.011 264.389,21.205 288.946,29.336C293.167,30.692 297.334,32.209 301.437,33.885C304.243,35.033 312.922,38.823 315.348,39.122C320.345,39.737 328.462,39.434 333.719,39.442L371.151,39.513C380.374,39.508 383.335,37.656 391.802,34.329C396.938,32.31 402.973,30.307 408.247,28.585C444.634,16.532 483.486,13.913 521.162,20.971C547.609,25.808 568.695,35.01 591.141,49.725C595.474,52.566 599.026,55.987 603.084,59.052C640.074,86.986 664.801,128.741 676.594,173.143C679.643,184.619 683.339,198.062 682.572,210.031C682.468,211.655 675.606,219.264 674.183,220.985C659.615,238.841 642.019,253.996 622.2,265.758C615.08,269.919 607.627,273.03 600.397,277.374C599.163,279.346 598.399,281.974 597.482,284.151C594.593,291.007 592.413,299.081 588.712,305.446C586.64,309.008 581.409,313.202 578.153,316.092C575.148,318.76 571.928,322.326 568.913,324.728C565.569,327.392 561.198,330.184 557.607,332.71C552.552,336.266 547.506,340.265 542.441,343.689C539.481,345.69 534.413,347.94 531.05,349.84C526.776,352.255 523.996,354.013 519.19,355.205C520.157,359.691 521.253,364.126 522.225,368.591C522.812,371.285 522.906,375.127 523.419,377.934C527.101,398.103 522.715,413.727 513.672,431.787C507.681,443.751 493.852,455.275 481.098,459.329C469.203,463.11 457.974,463.903 445.787,461.112C439.714,459.72 437.638,460.103 431.721,456.742C425.974,453.477 419.907,448.358 414.249,445.467L413.768,445.733L413.636,446.793C411.654,454.241 411.874,465.326 410.778,473.18C408.938,486.364 409.261,499.939 406.563,512.968C406.146,514.985 403.69,515.813 401.924,516.988C393.989,522.249 385.977,527.394 377.892,532.421C375.472,533.912 372.273,535.38 370.123,536.839C361.971,542.367 356.276,546.823 347.606,551.567C339.158,547.906 329.44,540.689 321.186,535.591L295.385,519.335C292.65,517.58 289.967,516.409 287.326,514.442C285.935,508.37 285.604,495.121 284.999,488.501C283.701,474.307 281.832,459.198 280.948,445.046C263.073,457.585 248.386,464.562 225.825,462.333C210.047,460.775 195.576,452.17 185.789,439.731C170.097,419.786 167.634,394.192 170.986,369.785C171.777,364.03 173.698,361.515 174.403,355.61C158.18,348.905 142.927,337.536 128.752,327.24C121.845,322.223 109.118,311.222 104.584,304.086C100.176,297.147 97.862,285.763 93.773,278.067L93.595,277.735C88.606,274.217 81.464,271.946 76.139,268.798C54.617,256.075 35.652,240.671 19.631,221.431C16.993,217.937 9.724,212.779 10.291,208.01C14.145,175.607 25.782,141.569 41.947,113.292C48.64,101.586 59.115,89.476 67.727,79.971C93.775,51.218 127.652,30.488 165.725,22.483C176.222,20.235 188.7,17.569 199.59,17.208Z" style="fill:rgb(198,198,201);fill-rule:nonzero;"  data-color="color-2"/>
        <path d="M206.835,28.394C232.363,26.747 264.335,32.86 288.482,40.848C292.725,42.219 296.915,43.747 301.044,45.431C314.311,50.79 314.253,50.391 328.73,50.379L353.326,50.346L368.195,50.354C370.519,50.37 377.535,50.527 379.379,50.142C386.101,48.737 394.255,44.795 400.927,42.388C410.873,38.847 421.028,35.923 431.334,33.632C483.304,22.466 537.41,28.035 582.722,57.236C624.882,84.405 651.604,126.074 665.278,173.735C668.517,185.024 670.095,195.126 672.515,206.447C654.786,228.775 634.965,246.55 609.748,260.035C603.516,263.368 597.895,265.6 591.722,268.65C587.232,277.873 584.622,288.8 579.853,297.928C578.163,301.163 572.636,306.041 569.907,308.554C550.875,326.081 528.64,339.802 505.181,350.558C522.591,389.795 513.029,451.957 457.732,451.701C437.377,451.606 419.025,436.697 405.82,422.128L404.073,433.065C400.575,457.867 398.022,482.794 396.42,507.79C392.142,510.867 385.431,514.845 380.733,517.844L347.007,539.349L297.541,507.793C296.283,488.492 294.494,469.228 292.174,450.025C291.119,441.455 289.845,430.635 288.075,422.203C279.112,432.441 270.731,439.765 258.432,445.853C231.189,459.432 199.961,449.155 187.273,420.954C176.728,397.514 180.172,373.835 188.64,350.521C164.041,339.092 141.323,324.919 121.535,306.208C114.16,299.233 113.032,296.557 109.526,286.973C107.353,281.031 104.773,274.345 102.306,268.527C77.249,258.337 54.674,242.883 36.111,223.211C30.803,217.644 26.409,212.218 21.416,206.422C23.722,197.18 24.928,187.703 27.544,178.09C36.443,145.376 51.761,113.21 74.911,88.105C111.18,48.774 154.239,30.965 206.835,28.394Z" style="fill:rgb(35,103,142);fill-rule:nonzero;"  data-color="color-2"/>
        <path d="M386.169,72.287C436.636,49.966 490.27,41.493 543.011,61.861C599.784,83.787 635.519,136.122 647.5,194.379L648.85,199.801C634.811,218.274 607.353,238.371 585.94,246.728C572.822,251.848 555.646,258.201 542.319,262.539C550.228,264.073 560.525,264.784 568.736,265.853C560.688,283.936 564.647,284.464 547.91,298.093C517.13,323.158 482.527,338.004 444.858,349.096C440.698,342.46 435.163,327.241 432.321,319.562C436.613,309.033 440.581,298.375 444.863,287.83C442.659,286.245 440.354,284.334 438.212,282.633C441.104,278.321 443.662,274.229 447.001,270.211C464.855,248.725 487.01,235.572 514.689,232.508C514.298,230.71 513.876,228.919 513.423,227.135C507.855,205.756 496.579,187.042 477.138,175.671C484.859,153.406 493.624,148.249 516.709,148.759L508.437,128.823C514.911,129.838 517.935,129.664 524.791,131.587C551.739,139.143 577.202,162.699 595.821,183.039C593.106,176.025 590.481,169.013 587.225,162.219C558.046,101.341 495.223,71.393 429.315,89.703C433.946,93.582 445.237,107.32 446.32,112.678C445.54,113.238 445.461,113.008 444.218,112.948C428.58,113.751 409.852,121.574 399.403,133.325C399.142,133.616 398.89,133.914 398.647,134.221C412.892,140.705 423.776,148.604 430.238,163.697C436.566,178.362 435.899,195.105 428.425,209.221C426.091,213.6 422.564,217.507 420.597,221.903C419.143,225.154 417.817,229.288 416.603,232.725C414.45,238.926 412.18,245.085 409.795,251.201C401.586,238.633 396.578,230.154 391.14,215.909C404.448,211.735 414.521,201.76 412.126,186.452C411.576,182.932 409.578,179.839 407.56,176.956C409.194,169.311 408.15,163.744 402.935,157.806C397.142,177.82 383.211,175.074 372.212,188.537C372.707,195.337 374.775,204.62 376.361,211.225C384.386,243.761 397.266,274.903 414.567,303.603C408.077,318.947 403.34,334.92 398.575,350.845C395.073,336.198 388.751,319.622 385.985,305.026C384.674,315.621 385.401,328.033 384.078,338.63C383.33,344.619 369.231,357.087 364.316,360.784C373.665,359.68 377.279,358.967 385.932,354.822C385.347,358.444 383.334,369.504 381.99,372.467C378.85,379.387 368.37,388.34 362.396,392.932C371.778,391.613 375.02,390.532 384.07,387.353C383.402,391.5 381.53,401.343 379.904,404.843C376.319,412.557 366.302,420.949 359.187,425.62C370.321,423.975 371.56,424.017 382.263,419.58C381.63,422.679 379.428,433.269 378.401,435.868C375.255,443.826 363.871,452.996 357.213,458.126C366.949,456.554 370.83,456.628 380.346,451.923C379.631,455.124 377.297,466.541 376.14,468.777C372.684,475.461 360.484,486.124 354.504,490.367C365.437,488.696 367.811,488.611 378.389,484.429C377.436,487.535 376.646,491.856 374.697,494.486C372.544,497.391 351.288,510.106 347.037,512.858C337.991,507.037 327.931,500.957 319.154,494.917L315.537,484.354C325.409,488.532 329.023,488.972 339.464,490.214C333.977,486.749 320.739,474.78 317.829,468.757C316.891,466.816 314.317,454.987 313.434,451.806C324.147,456.721 326.058,456.501 336.956,458.094C330.445,453.476 318.84,443.71 315.679,436.239C314.84,434.256 312.288,422.536 311.476,419.351C320.76,423.578 324.468,424.358 334.505,425.574C327.648,420.508 316.101,411.56 313.539,403.332C312.266,399.243 310.788,391.563 309.728,387.078C317.548,390.23 322.9,391.942 331.402,392.822C325.69,388.312 314.309,378.694 311.778,371.867C310.609,368.714 308.692,358.604 307.921,354.855C316.738,358.795 319.751,359.765 329.441,360.625C326.053,358.196 322.91,355.066 319.966,352.121C316.887,349.043 312.405,345.212 310.553,341.213C309.01,337.885 308.306,310.148 308.299,305.082C303.803,320.312 299.792,335.866 295.215,351.241C293.212,341.247 283.945,313.575 279.418,303.813C296.418,273.981 309.297,245.947 317.377,212.289C319.033,205.387 321.291,195.521 321.775,188.471C319.87,186.362 317.547,183.743 315.179,182.191C303.14,174.304 295.92,172.962 291.004,157.842C287.297,161.91 285.372,167.291 285.656,172.786C285.693,173.496 286.436,176.515 286.34,176.669C281.137,184.975 279.482,192.398 284.235,201.775C288.054,209.31 294.348,213.287 302.836,215.986C297.099,230.781 292.713,238.177 284.218,251.188C280.396,241.62 277.225,231.628 273.496,222.033C271.797,218.257 268.925,214.989 266.797,211.424C251.312,185.5 261.089,151.659 287.912,137.849C289.99,136.779 293.429,135.33 295.181,133.911C284.839,122.17 268.138,114.91 252.705,113.265C250.936,113.261 249.205,113.265 247.436,113.187C251.016,105.026 257.931,95.34 264.751,89.529C257.538,87.957 251.658,86.692 244.326,85.707C214.389,81.689 183.11,87.623 157.486,104.06C135.888,118.185 118.551,137.93 107.338,161.17C103.689,168.627 101.315,175.548 98.16,183.033C102.74,177.72 110.707,170.091 115.915,165.262C136.095,146.55 156.935,131.042 185.166,128.933L185.432,128.914C183.228,134.549 179.733,143.654 177.151,148.943C199.567,146.979 209.885,154.735 216.814,175.651C195.899,188.464 185.354,207.128 179.712,230.583L179.296,232.338C183.117,232.911 186.94,233.453 190.711,234.305C218.067,240.485 241.41,258.993 255.823,282.765C253.684,284.39 251.287,286.302 249.098,287.808C253.335,298.131 257.326,309.342 261.611,319.416C259.202,326.563 253.19,342.71 249.234,348.985C238.91,346.493 226.053,341.777 216.188,337.94C191.322,328.268 167.335,315.532 146.645,298.585C143.72,296.189 135.113,288.931 133.479,285.826C130.486,280.14 127.894,272.071 125.2,265.878C132.91,264.97 144.567,263.926 151.87,262.551C139.66,258.812 127.598,253.282 115.367,249.452C113.234,248.784 110.86,247.906 108.802,247.051C89.808,238.955 72.438,227.485 57.534,213.198C53.621,209.436 49.191,204.734 45.808,200.478C45.189,199.7 45.349,198.338 45.779,197.464C49.982,181.135 52.134,170.939 58.929,154.775C76.069,113.81 106.334,80.193 147.84,63.141C202.934,40.507 255.635,50.26 308.499,72.524C312.249,72.913 317.969,72.755 321.884,72.753L343.812,72.748L370.285,72.767C373.588,72.768 383.568,73.027 386.169,72.287Z" style="fill:rgb(114,189,245);fill-rule:nonzero;"  data-color="color-1"/>
        <path d="M45.779,197.464C49.982,181.135 52.134,170.939 58.929,154.775C76.069,113.81 106.334,80.193 147.84,63.141C202.934,40.507 255.635,50.26 308.499,72.524C305.89,73.209 302.627,73.411 299.894,73.758C294.538,74.421 289.307,75.855 284.363,78.015C263.723,72.071 248.986,68.391 227.723,66.884C152.443,61.548 89.321,106.276 57.531,172.676C56.548,174.729 46.831,197.25 46.301,197.83L45.779,197.464ZM248.107,112.747C274.797,105.868 296.618,114.789 317.947,130.207C311.934,130.289 305.954,131.122 300.147,132.687C299.098,132.965 295.926,134.227 295.181,133.911C284.839,122.17 268.138,114.91 252.705,113.265C251.081,113.031 249.743,112.874 248.107,112.747Z" style="fill:rgb(254,254,254);"/>
        <path d="M386.169,72.287C436.636,49.966 490.27,41.493 543.011,61.861C599.784,83.787 635.519,136.122 647.5,194.379C645.943,195.306 645.65,193.282 645.192,192.128C628.555,150.278 601.6,112.753 562.453,89.388C526.469,67.912 484.553,62.37 443.613,69.474C431.776,71.531 421.571,74.91 410.135,77.815C404.767,76.042 399.699,74.609 394.117,73.835C392.073,73.552 387.517,73.318 386.169,72.287ZM376.042,130.246C379.436,128.297 382.989,125.213 386.596,123.007C400.206,114.683 414.52,110.202 430.555,110.713C433.507,110.807 442.414,111.015 444.218,112.948C428.58,113.751 409.852,121.574 399.403,133.325C399.142,133.616 398.89,133.914 398.647,134.221C391.354,131.402 383.761,130.616 376.042,130.246Z" style="fill:rgb(198,198,201);" data-color="color-3"/>
        <path d="M308.549,149.555C314.446,151.125 319.867,152.838 325.86,154.155C346.669,158.728 365.678,156.181 385.708,149.218C383.152,152.106 380.391,154.806 377.447,157.297C370.073,162.959 356.479,170.786 346.664,171.209C341.965,171.411 332.204,166.842 327.748,164.607C320.421,160.932 314.232,155.529 308.549,149.555ZM315.721,270.097C318.095,270.45 326.96,273.092 330.329,273.814C348.919,277.797 360.738,274.838 378.599,269.986C376.414,272.5 374.574,274.095 372.097,276.296C371.793,276.537 371.487,276.776 371.179,277.011C365.657,281.234 352.238,288.723 345.248,287.534C335.406,285.86 321.645,278.055 315.721,270.097ZM324.49,293.314C342.577,299.001 352.514,298.659 370.255,293.109C368.768,294.577 367.041,296.108 365.495,297.538C360.067,302.192 353.691,304.677 346.878,306.47C339.668,304.441 328.604,299.93 324.49,293.314Z" style="fill:rgb(35,103,142);"  data-color="color-2"/>
        <path d="M413.703,333.811C421.195,352.997 435.827,386.125 455.249,395.944C452.577,399.431 450.94,400.471 446.94,402.205C447.27,402.245 447.6,402.279 447.932,402.306C463.236,403.545 473.677,396.136 476.041,381.004C476.791,377.506 477.26,374.253 477.636,370.674C478.045,366.783 476.283,357.636 482.757,358.523C484.057,358.701 484.513,359.464 485.221,360.468C490.771,376.858 494.27,395.572 486.103,412.179C484.715,415.002 482.359,418.8 480.093,420.982C454.133,445.971 417.849,409.537 408.93,384.63C407.685,381.152 407.006,377.01 406.434,373.438C409.163,377.156 412.489,381.627 415.441,385.07C419.354,389.635 431.116,401.086 436.808,401.84C434.219,398.576 430.913,393.334 428.718,389.733C417.553,371.411 412.659,355.167 413.703,333.811ZM238.703,395.927C256.254,387.985 274.637,351.401 280.014,333.92C281.29,362.016 272.285,379.618 256.712,402.151C267.736,398.546 280.349,382.763 287.061,373.598C286.468,377.388 285.825,381.297 284.54,385.03C275.898,410.125 239.43,445.976 213.714,420.764C211.477,418.571 209.2,414.828 207.835,412.008C199.824,395.454 203.152,376.57 208.918,360.286C212.352,355.84 216.61,359.775 216.227,364.581C215.941,368.183 216.745,372.69 217.089,376.303C218.482,390.916 226.145,402.955 242.87,402.496C244.346,402.447 245.822,402.375 247.297,402.281C243.007,400.464 241.547,399.608 238.703,395.927Z" style="fill:rgb(198,198,201);"  data-color="color-3"/>
        <path d="M413.703,333.811C421.195,352.997 435.827,386.125 455.249,395.944C452.577,399.431 450.94,400.471 446.94,402.205C447.27,402.245 447.6,402.279 447.932,402.306C463.236,403.545 473.677,396.136 476.041,381.004C476.791,377.506 477.26,374.253 477.636,370.674C478.045,366.783 476.283,357.636 482.757,358.523C484.057,358.701 484.513,359.464 485.221,360.468C483.98,360.612 483.204,360.943 482.443,361.972C480.766,364.242 482.511,380.454 482.305,384.624C481.758,395.664 476.936,410.064 464.578,412.419C456.169,414.021 448.315,410.306 441.588,405.602C439.939,404.449 438.292,403.201 436.808,401.84C434.219,398.576 430.913,393.334 428.718,389.733C417.553,371.411 412.659,355.167 413.703,333.811ZM238.703,395.927C256.254,387.985 274.637,351.401 280.014,333.92C281.29,362.016 272.285,379.618 256.712,402.151C255.791,403.29 254.519,404.201 253.39,405.001C222.963,426.54 208.16,399.901 212.143,370.841C212.46,368.524 212.651,364.86 212.069,362.594C211.771,361.438 209.905,360.709 208.918,360.286C212.352,355.84 216.61,359.775 216.227,364.581C215.941,368.183 216.745,372.69 217.089,376.303C218.482,390.916 226.145,402.955 242.87,402.496C244.346,402.447 245.822,402.375 247.297,402.281C243.007,400.464 241.547,399.608 238.703,395.927Z" style="fill:rgb(254,254,254);"/>
    </g>
</svg>
