<svg width="100%" height="100%" viewBox="0 0 593 750" version="1.1" xmlns="http://www.w3.org/2000/svg" xmlns:xlink="http://www.w3.org/1999/xlink" xml:space="preserve" xmlns:serif="http://www.serif.com/" style="fill-rule:evenodd;clip-rule:evenodd;stroke-linejoin:round;stroke-miterlimit:2;">
    <g transform="matrix(1,0,0,1,-218.424,-127.577)">
        <path d="M272.455,245.382C272.264,231.581 272.144,217.778 272.094,203.975C272.065,196.801 271.841,187.762 272.217,180.723C331.953,181.525 393.417,180.762 453.325,180.765L757.181,180.731C756.528,199.003 757.442,220.752 757.489,239.384C757.563,268.41 756.963,299.02 757.957,327.901L707.55,327.97C700.92,322.483 694.233,315.722 688.008,309.752C679.777,301.981 671.628,294.124 663.563,286.181C658.411,281.016 653.472,275.528 648.094,270.609C646.831,269.454 645.029,267.723 643.438,267.133C637.869,265.071 483.416,265.948 470.014,266.267C467.715,266.322 465.344,266.194 463.237,267.226C461.204,269.935 461.973,289.63 461.974,294.281L461.997,341.75L461.971,444.663C512.929,442.918 564.924,445.737 615.978,444.173L615.95,516.767C586.746,509.249 557.433,495.52 527.28,502.924C509.262,507.349 497.591,512.97 478.127,512.101C462.425,511.4 449.109,507.811 434.175,503.612C403.1,494.876 378.132,493.594 347.639,506.198C339.822,509.43 328.58,514.721 320.927,517.457C320.302,508.172 320.443,497.406 320.363,488.015L320.114,440.913C320.083,387.893 320.847,333.261 320.067,280.365C315.983,276.739 307.959,271.172 303.332,267.776C293.094,260.236 282.802,252.772 272.455,245.382ZM385.29,570.203C394.987,568.234 414.428,571.388 423.754,573.91C436.974,577.486 447.859,581.966 461.908,582.077C461.509,589.194 461.862,598.54 461.903,605.851L462.025,648.19L462.11,695.468C462.128,704.592 461.906,715.374 462.474,724.379C465.06,726.956 469.899,730.381 472.929,732.648C480.193,738.066 487.512,743.411 494.883,748.683C498.994,751.652 504.404,755.308 508.108,758.627C507.883,775.52 508.315,792.539 508.092,809.445C508.032,813.972 507.884,819.491 508.377,823.934L397.526,824.151C355.88,824.143 313.602,823.721 272.016,824.232L272.037,758.444C287.812,748.409 304.511,734.616 320.129,723.529C319.809,709.182 320.049,693.798 320.046,679.402L320.057,595.484C329.346,592.504 334.463,588.555 342.895,583.833C355.993,576.547 370.4,571.915 385.29,570.203Z" style="fill:rgb(0,36,73);" data-color='color-1'/>
        <path d="M218.96,127.577C226.369,128.224 236.041,127.949 243.693,127.938L284.261,127.898L415.651,127.939L810.586,127.912L810.989,382.019L726.942,381.993C712.838,381.991 695.032,382.518 681.323,381.798C676.371,377.46 667.419,367.297 662.257,362.058C648.469,348.214 634.508,334.543 620.377,321.049L515.561,320.966C516.261,343.991 515.926,368.393 515.968,391.503C544.124,390.182 577.165,391.007 605.595,390.978L640.43,390.938C649.352,390.933 658.058,390.644 666.923,391.747C667.782,423.563 666.982,459.242 666.955,491.281L666.937,543.134C666.94,547.401 667.567,574.696 666.087,576.797C656.622,584.87 630.097,586.892 617.882,585.727C587.89,582.866 566.53,565.095 535.193,570.393C526.486,571.864 522.548,572.08 515.369,573.846C516.206,584.159 515.546,604.734 515.542,615.952L515.643,698.527C522.089,702.734 531.891,710.902 538.351,715.708C543.968,719.886 556.278,728.67 560.884,733.174C561.482,745.45 561.189,759.606 561.204,772.013L561.351,842.701C561.407,851.122 560.705,870.312 561.536,877.343C534.116,877.698 506.057,877.248 478.586,877.219L311.714,877.337L249.59,877.177C239.943,877.171 228.143,876.84 218.647,877.425C218.079,860.551 218.782,842.773 218.713,825.843C218.59,795.5 219.155,764.356 218.521,734.048C223.268,729.831 230.895,724.547 236.222,720.611L266.678,698.11C266.226,692.839 266.472,684.248 266.5,678.84L266.671,646.539L266.79,550.915L266.683,391.702C266.625,364.775 266.045,336.553 266.588,309.752C255.59,302.075 244.17,294.827 233.259,287.04C229.404,284.288 222.635,279.895 219.418,276.732C218.904,270.873 219.092,262.901 219.086,256.907L219.062,226.075L218.96,127.577ZM272.455,245.382C282.802,252.772 293.094,260.236 303.332,267.776C307.959,271.172 315.983,276.739 320.067,280.365C320.847,333.261 320.083,387.893 320.114,440.913L320.363,488.015C320.443,497.406 320.302,508.172 320.927,517.457C328.58,514.721 339.822,509.43 347.639,506.198C378.132,493.594 403.1,494.876 434.175,503.612C449.109,507.811 462.425,511.4 478.127,512.101C497.591,512.97 509.262,507.349 527.28,502.924C557.433,495.52 586.746,509.249 615.95,516.767L615.978,444.173C564.924,445.737 512.929,442.918 461.971,444.663L461.997,341.75L461.974,294.281C461.973,289.63 461.204,269.935 463.237,267.226C465.344,266.194 467.715,266.322 470.014,266.267C483.416,265.948 637.869,265.071 643.438,267.133C645.029,267.723 646.831,269.454 648.094,270.609C653.472,275.528 658.411,281.016 663.563,286.181C671.628,294.124 679.777,301.981 688.008,309.752C694.233,315.722 700.92,322.483 707.55,327.97L757.957,327.901C756.963,299.02 757.563,268.41 757.489,239.384C757.442,220.752 756.528,199.003 757.181,180.731L453.325,180.765C393.417,180.762 331.953,181.525 272.217,180.723C271.841,187.762 272.065,196.801 272.094,203.975C272.144,217.778 272.264,231.581 272.455,245.382ZM385.29,570.203C370.4,571.915 355.993,576.547 342.895,583.833C334.463,588.555 329.346,592.504 320.057,595.484L320.046,679.402C320.049,693.798 319.809,709.182 320.129,723.529C304.511,734.616 287.812,748.409 272.037,758.444L272.016,824.232C313.602,823.721 355.88,824.143 397.526,824.151L508.377,823.934C507.884,819.491 508.032,813.972 508.092,809.445C508.315,792.539 507.883,775.52 508.108,758.627C504.404,755.308 498.994,751.652 494.883,748.683C487.512,743.411 480.193,738.066 472.929,732.648C469.899,730.381 465.06,726.956 462.474,724.379C461.906,715.374 462.128,704.592 462.11,695.468L462.025,648.19L461.903,605.851C461.862,598.54 461.509,589.194 461.908,582.077C447.859,581.966 436.974,577.486 423.754,573.91C414.428,571.388 394.987,568.234 385.29,570.203Z" style="fill:rgb(254,254,254);fill-rule:nonzero;"/>
        <path d="M218.96,127.577C226.369,128.224 236.041,127.949 243.693,127.938L284.261,127.898L415.651,127.939L810.586,127.912L810.989,382.019L726.942,381.993C712.838,381.991 695.032,382.518 681.323,381.798C676.371,377.46 667.419,367.297 662.257,362.058C648.469,348.214 634.508,334.543 620.377,321.049L515.561,320.966C516.261,343.991 515.926,368.393 515.968,391.503C544.124,390.182 577.165,391.007 605.595,390.978L640.43,390.938C649.352,390.933 658.058,390.644 666.923,391.747C667.782,423.563 666.982,459.242 666.955,491.281L666.937,543.134C666.939,546.594 666.926,568.604 666.766,569.039C666.291,570.333 653.546,575.629 642.741,577.334C610.092,582.485 585.465,562.993 554.671,559.678C540.2,558.191 524.868,560.598 511.172,565.423C499.441,569.556 491.704,572.079 479.22,572.938C454.886,574.614 435.258,563.495 412.383,559.009C378.936,552.451 348.072,569.13 320.412,586.271L320.692,536.122C328.213,535.317 338.307,528.759 345.715,525.364C359.576,519.012 368.397,515.965 383.212,513.846C417.315,508.968 443.179,526.086 475.948,527.883C486.824,528.48 500.64,525.968 510.993,522.789C535.563,515.244 555.036,513.458 579.766,522.278C596.983,528.419 613.79,535.934 632.489,535.058C634.942,534.943 639.083,535.571 640.818,533.762C641.697,529.125 641.4,520.26 641.382,515.181L641.27,485.945L641.323,446.174C641.327,438.479 641.357,430.72 640.981,423.026C640.842,420.187 639.725,418.135 636.568,418.056C618.173,417.596 599.762,418.529 581.366,418.555C550.632,418.953 520.003,417.622 489.281,417.961C488.758,391.937 488.991,366.996 489.511,341.026C489.828,325.202 488.843,308.642 488.96,292.632C536.225,295.348 584.191,291.901 631.127,293.046C636.946,298.632 642.464,304.59 648.207,310.3L692.546,354.2C722.04,353.298 755.235,354.04 785.029,354.193C785.688,333.415 786.627,162.307 783.355,155.884C776.153,154.227 747.595,154.899 738.516,154.905L645.168,154.952L382.408,154.952C336.993,154.946 290.379,155.543 245.117,154.872C244.429,178.971 245.333,203.993 245.153,228.193C245.108,234.288 244.657,258.227 245.635,263.02C248.498,266.06 252.023,268.424 255.471,270.755C267.864,279.138 280.544,286.848 292.116,296.366C291.902,323.157 291.822,349.948 291.877,376.739L291.937,613.784C291.927,646.007 292.571,680.534 291.904,712.58C281.883,719.896 271.766,727.007 261.801,734.441C256.625,738.303 250.365,741.948 245.116,745.846L245.006,805.25C244.969,812.862 244.062,844.245 245.797,849.677C251.634,851.387 272.505,851.026 279.787,851.039L323.419,851.069C393.791,851.076 465.364,850.19 535.629,850.98C535.327,832.457 535.267,813.931 535.451,795.406C535.547,778.799 535.8,760.903 534.697,744.336C523.438,736.332 499.386,719.821 489.925,710.81L489.894,580.777C499.483,579.38 506.174,577.153 515.369,573.846C516.206,584.159 515.546,604.734 515.542,615.952L515.643,698.527C522.089,702.734 531.891,710.902 538.351,715.708C543.968,719.886 556.278,728.67 560.884,733.174C561.482,745.45 561.189,759.606 561.204,772.013L561.351,842.701C561.407,851.122 560.705,870.312 561.536,877.343C534.116,877.698 506.057,877.248 478.586,877.219L311.714,877.337L249.59,877.177C239.943,877.171 228.143,876.84 218.647,877.425C218.079,860.551 218.782,842.773 218.713,825.843C218.59,795.5 219.155,764.356 218.521,734.048C223.268,729.831 230.895,724.547 236.222,720.611L266.678,698.11C266.226,692.839 266.472,684.248 266.5,678.84L266.671,646.539L266.79,550.915L266.683,391.702C266.625,364.775 266.045,336.553 266.588,309.752C255.59,302.075 244.17,294.827 233.259,287.04C229.404,284.288 222.635,279.895 219.418,276.732C218.904,270.873 219.092,262.901 219.086,256.907L219.062,226.075L218.96,127.577Z" style="fill:rgb(111,182,227);fill-rule:nonzero;" data-color="color-2"/>
    </g>
</svg>
