<svg width="100%" height="100%" viewBox="0 0 565 1122" version="1.1" xmlns="http://www.w3.org/2000/svg" xmlns:xlink="http://www.w3.org/1999/xlink" xml:space="preserve" xmlns:serif="http://www.serif.com/" style="fill-rule:evenodd;clip-rule:evenodd;stroke-linejoin:round;stroke-miterlimit:2;">
    <g transform="matrix(1,0,0,1,-260.28,-216.03)">
        <path d="M261.1,216.261L636.798,216.297L758.752,216.319C779.379,216.312 804.305,215.53 824.546,216.569L824.305,403.661C800.112,403.856 753.961,400.316 736.35,416.519C725.739,426.282 724.48,448.653 724.331,462.516C723.933,499.63 724.228,536.953 724.182,574.109L724.077,635.975C723.929,714.027 721.674,715.716 777.112,774.305C757.404,795.614 738.471,815.559 729.246,843.635C722.836,863.141 724.408,888.978 724.387,909.675L724.34,963.763L724.294,1084.28C724.366,1102.55 722.665,1124.46 736.787,1138C755.254,1155.71 800.508,1152.6 824.746,1152.47C823.416,1211.42 824.657,1275.13 824.459,1334.44L824.076,1336.53C817.976,1338.9 710.408,1337.34 694.134,1337.34L260.863,1337.42C259.728,1320.56 260.635,1298.55 260.44,1281.22C259.957,1238.26 261.228,1194.85 260.469,1151.92C284.519,1151.72 327.87,1154.3 346.099,1136.29C360.401,1122.15 358.531,1090.06 358.541,1070.61L358.533,1018.3C358.508,968.087 358.577,917.779 358.501,867.561C358.446,831.169 333.191,799.778 307.909,775.474C308.34,775.06 308.768,774.645 309.193,774.226C326.69,757.015 349.049,731.862 355.944,707.839C357.708,701.694 358.502,689.191 358.56,682.689L358.686,530.781L358.699,482.384C358.673,464.068 359.811,431.46 345.763,418.345C328.578,402.301 283.793,404.159 261.328,404.352C260.41,383.116 261.12,356.601 261.096,334.93L261.1,216.261Z" style="fill:rgb(254,254,254);fill-rule:nonzero;"/>
        <path d="M282.838,237.115L802.972,237.17C803.136,285.267 803.448,334.299 802.933,382.372C777.751,383.407 746.595,383.344 725.587,398.937C701.058,417.143 703.52,458.187 703.462,485.4L703.362,547.005L703.173,637.141C703.184,654.278 703.078,671.777 703.808,688.889C704.098,695.694 705.447,703.942 707.476,710.433C713.118,728.473 722.98,743.236 735.261,757.445C739.803,762.7 745.805,768.839 749.868,774.272L750.365,774.944C745.438,780.933 740.123,786.463 735.206,792.702C717.457,815.222 704.867,840.919 703.99,870.032C703.478,887.045 703.642,904.535 703.621,921.685L703.524,1015.98L703.458,1075.84C703.444,1106.35 701.533,1140.04 730.845,1159.43C751.15,1172.86 779.933,1172.47 803.496,1173.56L803.484,1314.19C803.485,1314.93 803.224,1315.55 803.011,1316.3C799.633,1317.37 769.451,1316.79 763.678,1316.78L668.702,1316.79L429.64,1316.7C381.219,1316.75 330.482,1317.49 282.151,1316.52C282.664,1297.4 282.287,1277.43 282.291,1258.24L282.503,1172.28C306.418,1171.31 337.894,1170.29 356.799,1153.84C384.295,1129.91 379.618,1082.71 379.608,1049.59L379.587,973.338L379.53,901.192C379.505,886.723 380.187,859.922 376.967,846.571C370.025,817.786 353.576,797 334.711,775.112C381.931,721.622 379.98,710.045 379.852,639.634L379.738,564.046L379.715,495.024C379.664,477.936 379.938,461.925 377.811,444.865C370.505,386.265 329.276,387.363 282.587,383.628L282.838,237.115Z" style="fill:rgb(11,26,40);fill-rule:nonzero;" data-color="color-2"/>
        <path d="M434.9,1137.22C442.063,1109.12 440.672,1070.19 440.713,1040.63L440.735,947.899L440.529,893.563C440.383,864.338 440.33,836.888 426.238,810.148C420.823,798.189 410.515,783.62 401.293,774.275C406.685,769.697 417.593,756.417 421.462,750.279C442.394,716.648 440.8,688.155 440.821,650.02L440.739,583.426L440.734,500.987C440.649,473.83 441.753,446.53 435.654,419.875C423.845,368.258 394.478,339.495 342.933,328.84C342.831,318.14 342.819,307.439 342.897,296.738L613.338,296.882L694.916,296.87C710.395,296.865 728.047,297.241 743.313,296.522L743.35,327.2C730.979,329.471 720.172,331.716 708.719,337.141C673.103,354.01 653.104,393.015 647.41,430.574C644.107,452.364 644.478,477.392 644.447,499.609L644.432,584.139L644.307,649.736C644.231,691.477 643.439,728.556 672.085,762.101C675.813,766.466 680.691,771.517 683.998,775.995C639.277,816.908 644.406,863.757 644.422,919.003L644.457,1005.66L644.426,1064.21C644.423,1109.43 645.936,1158.06 678.67,1193.42C696.572,1212.76 716.799,1222.94 743.326,1224.66C743.354,1234.61 743.683,1246.59 742.947,1256.36L342.93,1256.54C342.842,1245.76 342.841,1234.97 342.927,1224.18C371.757,1219.91 397.118,1205.57 414.568,1182.06C419.84,1174.81 424.256,1166.98 427.726,1158.71C430.364,1152.68 433.325,1143.56 434.9,1137.22Z" style="fill:rgb(201,148,39);" data-color="color-1"/>
        <path d="M430.371,326.469C447.855,327.416 467.628,327.765 483.503,335.791C522.559,355.54 534.326,406.787 536.299,446.727C538.435,489.981 537.798,533.569 537.797,576.829L537.841,784.118L537.8,973.45C537.792,1015.9 538.441,1059.69 535.487,1101.98C534.096,1121.91 528.361,1150.27 518.864,1167.92C506.603,1190.71 491.87,1202.41 467.332,1210.2C456.471,1212.68 442.786,1215.13 431.747,1216.97C437.095,1212.28 442.899,1208.63 448.588,1204.39C473.251,1185.98 483.113,1160.19 487.462,1130.66C493.013,1092.97 491.686,1054.79 491.722,1016.77L491.781,863.459L491.692,598.943L491.644,506.672C491.624,487.984 491.998,467.314 491.06,448.784C490.243,430.167 487.428,411.692 482.664,393.676C476.85,372.087 464.712,348.244 445.238,335.973C441.663,333.721 432.325,329.704 430.371,326.469Z" style="fill:rgb(254,254,254);fill-rule:nonzero;"/>
    </g>
</svg>
