<svg width="100%" height="100%" viewBox="0 0 828 686" version="1.1" xmlns="http://www.w3.org/2000/svg" xmlns:xlink="http://www.w3.org/1999/xlink" xml:space="preserve" xmlns:serif="http://www.serif.com/" style="fill-rule:evenodd;clip-rule:evenodd;stroke-linejoin:round;stroke-miterlimit:2;">
    <g transform="matrix(1,0,0,1,-95.3246,-177.237)">
        <path d="M323.741,187.238C342.104,187.175 360.396,189.518 378.15,194.208C425.924,206.561 461.884,229.577 497.733,262.877C502.424,267.235 515.926,279.397 518.997,284.602C603.383,278.027 675.928,297.263 754.869,324.996C789.724,337.217 824.238,350.385 858.375,364.485C872.571,370.471 887.28,376.446 900.668,383.991C911.345,390.008 916.672,395.921 910.763,408.213C905.379,419.414 897.453,428.296 888.831,437.02C858.506,467.709 822.23,489.742 782.184,505.367C774.219,517.447 764.852,523.832 753.547,532.742C755.163,522.058 755.308,510.698 754.878,499.912C744.674,504.483 733.166,515.628 725.384,523.588C728.265,516.097 731.885,504.439 733.68,496.766C720.725,504.743 714.663,509.626 702.836,519.306C705.944,507.14 708.202,498.56 708.93,485.925C694.212,492.57 686.949,497.139 675.571,508.589C677.765,499.437 679.714,491.993 682.464,482.957C669.975,487.651 663.176,490.347 651.584,497.191C652.047,493.11 652.727,489.121 653.388,485.072C646.518,485.855 639.418,486.713 632.686,488.287C642.684,498.922 652.015,506.115 663.458,514.95C663.477,519.333 663.578,523.715 663.76,528.093C673.818,524.712 680.153,521.711 689.095,516.078C686.734,526.178 683.743,535.617 680.773,545.549C694.573,541.133 701.759,537.416 712.257,527.62C711.716,536.119 709.574,545.961 707.448,554.196C723.191,547.737 728.714,542.648 738.417,528.517C738.442,529.512 738.442,530.507 738.417,531.502C738.15,543.01 736.339,551.105 731.534,561.578C729.294,566.461 728.166,571.557 725.294,576.358C723.825,578.76 722.035,580.95 719.972,582.866C705.704,596.285 680.378,598.8 661.701,598.763C621.862,598.684 585.733,580.297 547.237,572.56C518.239,566.732 489.978,564.882 460.497,564.154C454.997,594.518 460.276,611.684 474.848,638.29C440.592,624.964 410.391,608.967 384.328,582.59C360.533,595.635 340.492,613.45 357.271,640.971C365.293,654.129 374.714,662.476 387.193,671.247C409.279,687.163 438.047,698.023 464.676,702.982C471.23,698.141 477.83,692.488 484.593,687.473C499.985,675.965 516.233,665.651 533.198,656.62C575.036,634.329 620.332,617.749 668.399,621.881C677.291,622.645 687.928,624.023 696.421,626.608C692.394,629.459 683.606,633.312 678.706,635.716C670.745,639.655 662.899,643.822 655.176,648.21C622.359,667.013 591.627,689.243 563.497,714.526C555.524,721.718 545.564,731.03 538.67,739.216C537.945,742.882 537.875,746.751 537.873,750.491C537.857,779.403 548.985,808.085 566.617,830.782C572.072,837.804 577.133,842.853 583.346,849.13C548.903,844.891 518.175,830.291 493.24,806.045C475.161,788.465 463.548,768.059 452.379,745.717C384.055,734.729 334.276,724.223 278.863,680.324C262.881,702.099 256.681,713.258 247.431,738.429C232.435,703.844 229.362,679.728 239.685,643.009C226.621,624.007 217.535,608.58 212.739,585.292C198.769,585.733 187.501,588.413 173.865,591.227C153.123,595.507 133.852,600.37 113.83,607.141C133.059,564.287 182.623,521.679 219.206,493.956C218.585,453.923 249.432,409.751 275.007,380.865C289.583,364.401 308.634,348.199 326.975,336.084C335.391,330.425 344.184,325.349 353.293,320.892C356.381,319.388 366.385,315.215 368.187,314.022L368.032,313.408C362.881,314.337 351.25,318.341 345.374,320.047C343.214,309.973 342.44,301.296 341.322,291.083C337.432,255.542 319.33,214.83 292.128,191.8C302.871,188.398 312.65,187.631 323.741,187.238Z"  data-color="color-2"/>
        <path d="M335.013,319.297C333.206,310.05 332.432,301.767 331.381,292.171C327.751,259.006 311.05,220.922 285.666,199.432L271.848,187.733L289.109,182.267C300.761,178.577 311.357,177.671 323.547,177.239L323.707,177.238C342.935,177.172 362.088,179.624 380.679,184.533C430.139,197.327 467.421,221.072 504.539,255.551C508.432,259.167 517.752,267.805 523.497,274.253C607.095,268.745 679.53,287.929 758.179,315.56C793.205,327.841 827.888,341.073 862.227,355.256L862.26,355.271C876.804,361.403 891.862,367.549 905.578,375.279C914.883,380.523 920.652,386.425 922.516,393.594C923.849,398.725 923.461,404.878 919.776,412.545C913.902,424.766 905.351,434.531 895.944,444.049C865.348,475.012 828.913,497.483 788.689,513.55C780.507,524.931 771.088,531.65 759.737,540.596L745.865,551.529C744.65,556.118 742.945,560.687 740.623,565.748C738.232,570.961 736.942,576.366 733.851,581.534L733.825,581.575C731.885,584.748 729.521,587.642 726.798,590.174C710.789,605.206 682.619,608.804 661.681,608.763C621.182,608.683 584.4,590.229 545.267,582.364C519.75,577.236 494.813,575.271 469.073,574.406C466.486,597.047 471.75,611.817 483.619,633.486L496.804,657.561L471.223,647.61C438.032,634.698 408.56,619.282 382.772,595.04C377.696,598.16 373.004,601.559 369.185,605.349C364.926,609.577 361.745,614.23 361.163,619.739C360.657,624.54 362.171,629.799 365.809,635.765C373.063,647.663 381.659,655.135 392.992,663.1L393.039,663.134C412.792,677.369 438.206,687.28 462.216,692.302C467.618,688.126 473.064,683.574 478.621,679.452C494.416,667.644 511.09,657.06 528.498,647.793C572.034,624.598 619.238,607.618 669.255,611.918C678.802,612.738 690.214,614.266 699.333,617.041L718.85,622.982L702.199,634.77C697.853,637.846 688.419,642.09 683.124,644.687C675.345,648.536 667.678,652.608 660.132,656.896C627.936,675.344 597.786,697.154 570.188,721.958C563.197,728.264 554.603,736.248 548.12,743.574C547.877,745.866 547.874,748.211 547.873,750.496C547.858,777.208 558.224,803.677 574.514,824.647C579.706,831.331 584.54,836.121 590.453,842.095L610.724,862.575L582.124,859.055C545.483,854.546 512.795,839.008 486.269,813.214C468.605,796.038 456.756,776.342 445.749,754.774C381.533,744.303 333.25,733.328 280.964,694.537C269.882,710.379 264.424,721.18 256.817,741.878L248.198,765.334L238.256,742.407C222.836,706.844 219.282,681.62 228.831,644.838C217.953,628.704 209.978,614.551 204.955,595.822C195.084,596.81 186.195,598.893 175.886,601.021C155.553,605.216 136.661,609.977 117.034,616.614L95.325,623.955L104.706,603.047C123.877,560.323 172.004,517.592 209.285,488.948C211.129,448.012 241.58,403.534 267.52,374.236C282.643,357.155 302.399,340.337 321.399,327.783C325.839,324.798 330.379,321.967 335.013,319.297ZM663.216,502.113C664.22,502.897 665.238,503.687 666.273,504.488C666.645,502.95 667.013,501.456 667.38,499.988C666.024,500.649 664.647,501.35 663.216,502.113ZM323.741,187.238C312.65,187.631 302.871,188.398 292.128,191.8C319.33,214.83 337.432,255.542 341.322,291.083C342.44,301.296 343.214,309.973 345.374,320.047C351.25,318.341 362.881,314.337 368.032,313.408L368.187,314.022C366.385,315.215 356.381,319.388 353.293,320.892C344.184,325.349 335.391,330.425 326.975,336.084C308.634,348.199 289.583,364.401 275.007,380.865C249.432,409.751 218.585,453.923 219.206,493.956C182.623,521.679 133.059,564.287 113.83,607.141C133.852,600.37 153.123,595.507 173.865,591.227C187.501,588.413 198.769,585.733 212.739,585.292C217.535,608.58 226.621,624.007 239.685,643.009C229.362,679.728 232.435,703.844 247.431,738.429C256.681,713.258 262.881,702.099 278.863,680.324C334.276,724.223 384.055,734.729 452.379,745.717C463.548,768.059 475.161,788.465 493.24,806.045C518.175,830.291 548.903,844.891 583.346,849.13C577.133,842.853 572.072,837.804 566.617,830.782C548.985,808.085 537.857,779.403 537.873,750.491C537.875,746.751 537.945,742.882 538.67,739.216C545.564,731.03 555.524,721.718 563.497,714.526C591.627,689.243 622.359,667.013 655.176,648.21C662.899,643.822 670.745,639.655 678.706,635.716C683.606,633.312 692.394,629.459 696.421,626.608C687.928,624.023 677.291,622.645 668.399,621.881C620.332,617.749 575.036,634.329 533.198,656.62C516.233,665.651 499.985,675.965 484.593,687.473C477.83,692.488 471.23,698.141 464.676,702.982C438.047,698.023 409.279,687.163 387.193,671.247C374.714,662.476 365.293,654.129 357.271,640.971C340.492,613.45 360.533,595.635 384.328,582.59C410.391,608.967 440.592,624.964 474.848,638.29C460.276,611.684 454.997,594.518 460.497,564.154C489.978,564.882 518.239,566.732 547.237,572.56C585.733,580.297 621.862,598.684 661.701,598.763C680.378,598.8 705.704,596.285 719.972,582.866C722.035,580.95 723.825,578.76 725.294,576.358C728.166,571.557 729.294,566.461 731.534,561.578C736.339,551.105 738.15,543.01 738.417,531.502C738.442,530.507 738.442,529.512 738.417,528.517C728.714,542.648 723.191,547.737 707.448,554.196C709.574,545.961 711.716,536.119 712.257,527.62C701.759,537.416 694.573,541.133 680.773,545.549C683.743,535.617 686.734,526.178 689.095,516.078C680.153,521.711 673.818,524.712 663.76,528.093C663.578,523.715 663.477,519.333 663.458,514.95C652.015,506.115 642.684,498.922 632.686,488.287C639.418,486.713 646.518,485.855 653.388,485.072C652.727,489.121 652.047,493.11 651.584,497.191C663.176,490.347 669.975,487.651 682.464,482.957C679.714,491.993 677.765,499.437 675.571,508.589C686.949,497.139 694.212,492.57 708.93,485.925C708.202,498.56 705.944,507.14 702.836,519.306C714.663,509.626 720.725,504.743 733.68,496.766C731.885,504.439 728.265,516.097 725.384,523.588C733.166,515.628 744.674,504.483 754.878,499.912C755.308,510.698 755.163,522.058 753.547,532.742C764.852,523.832 774.219,517.447 782.184,505.367C822.23,489.742 858.506,467.709 888.831,437.02C897.453,428.296 905.379,419.414 910.763,408.213C916.672,395.921 911.345,390.008 900.668,383.991C887.28,376.446 872.571,370.471 858.375,364.485C824.238,350.385 789.724,337.217 754.869,324.996C675.928,297.263 603.383,278.027 518.997,284.602C515.926,279.397 502.424,267.235 497.733,262.877C461.884,229.577 425.924,206.561 378.15,194.208C360.396,189.518 342.104,187.175 323.741,187.238ZM392.013,219.453C396.31,219.81 405.306,223.909 409.245,225.73C439.127,239.54 463.495,261.257 486.879,283.946C489.257,286.254 491.958,287.844 494.529,289.899L494.126,290.421L491.886,290.576C485.651,291.468 477.896,293.322 471.765,294.805C451.42,266.759 421.796,237.305 392.013,219.453ZM352.173,430.626C351.016,431.084 334.685,442.847 335.038,442.75C329.749,444.196 312.403,468.267 311.072,468.867C281.556,482.181 243.631,494.128 217.291,513.358L217.103,513.361L216.822,512.963C248.763,472.084 303.483,446.592 351.501,430.529L352.173,430.626ZM352.173,430.626C352.225,430.606 352.246,430.608 352.234,430.635L352.173,430.626ZM316.554,579.21L316.983,579.315C317.267,580.227 313.062,595.931 312.577,598.516C310.58,608.857 310.655,619.49 312.795,629.802C319.367,660.803 344.248,688.664 370.324,705.609C361.999,703.301 354.455,701.321 346.372,698.241C324.04,688.864 298.801,665.142 288.032,643.3C279.399,625.792 277.612,601.888 280.577,582.739C293.234,580.888 303.825,580.085 316.554,579.21ZM575.114,331.788C601.867,329.329 645.369,333.25 670.369,342.984C697.103,353.394 721.137,364.288 749.09,373.441C790.207,386.669 832.111,397.31 874.557,405.302C866.64,432.93 818.085,464.762 792.097,476.351C787.922,478.213 751.673,469.37 744.618,467.76C743.486,467.502 734.147,462.809 731.957,461.79C723.849,457.923 715.451,454.694 706.841,452.133C692.807,447.906 678.27,445.578 663.617,445.211C617.557,443.853 568.372,467.914 535.307,499.004C561.076,498.886 594.908,501.411 615.488,517.931C623.404,524.286 629.631,532.33 637.257,538.745C652.735,551.762 672.079,562.798 690.679,570.597C641.125,575.396 605.92,558.787 559.705,545.719C537.172,539.347 512.249,535.912 488.969,534.079C456.522,531.523 424.125,530.763 391.728,534.569C379.534,536.001 368.241,538.177 356.2,540.129C344.731,541.91 333.232,543.489 321.709,544.865C286.853,549.047 251.729,551.509 216.757,554.692C227.232,549.66 239.854,544.587 250.856,539.497C290.085,521.213 330.771,503.974 372.002,490.847C385.952,486.405 405.185,480.947 419.633,478.715C414.744,466.349 412.838,450.255 413.39,437.063C414.369,413.657 422.801,396.914 439.638,381.182C434.287,390.912 430.847,401.576 429.503,412.599C426.168,439.143 433.729,465.907 450.462,486.781C445.115,471.999 443.272,450.101 445.629,434.664C449.532,409.097 460.975,390.565 481.24,375.113C461.449,404.316 457.714,435.434 472.478,468.159C474.964,473.668 479.095,481.275 483.335,485.582C474.977,459.91 476.25,435.771 490.383,412.371C498.175,399.471 507.534,391.022 518.53,381.117C505.998,401.199 500.153,422.612 497.815,445.934C515.655,441.13 534.15,436.949 552.143,432.539C576.298,426.619 600.815,420.646 625.491,417.497C678.245,410.764 740.391,424.495 789.876,399.291C764.227,397.655 729.671,389.681 705.955,379.899C685.667,371.531 666.661,361.373 645.516,354.062C624.102,346.657 607.566,343.439 585.316,340.227C573.991,338.591 564.535,336.544 552.54,335.163C560.939,333.236 566.606,332.48 575.114,331.788Z" style="fill:rgb(0,183,167);"  data-color="color-1"/>
        <path d="M637.074,368.25C641.099,370.707 654.775,378.185 657.219,380.37C656.958,389.862 658.751,392.554 667.581,396.914L667.533,397.181C662.587,398.842 641.795,388.271 639.227,382.515C636.402,376.186 635.776,374.991 637.074,368.25ZM681.026,389.247C684.969,390.453 689.012,391.432 693.012,392.446L687.89,393.514C684.322,394.27 680.97,394.849 677.37,395.444C679.773,393.174 680.002,392.4 681.026,389.247Z" style="fill:rgb(255,32,32);"  data-color="color-3"/>
    </g>
</svg>
