<?xml version="1.0" encoding="UTF-8" standalone="no"?>
<!DOCTYPE svg PUBLIC "-//W3C//DTD SVG 1.1//EN" "http://www.w3.org/Graphics/SVG/1.1/DTD/svg11.dtd">
<svg width="100%" height="100%" viewBox="0 0 938 891" version="1.1" xmlns="http://www.w3.org/2000/svg" xmlns:xlink="http://www.w3.org/1999/xlink" xml:space="preserve" xmlns:serif="http://www.serif.com/" style="fill-rule:evenodd;clip-rule:evenodd;stroke-linejoin:round;stroke-miterlimit:2;">
    <g transform="matrix(1,0,0,1,-30.4498,-306.532)">
        <path d="M56.802,306.928C70.947,306.167 91.265,306.744 105.976,306.7L205.703,306.648L309.195,306.773C326.968,306.785 345.038,306.72 362.797,306.893C390.064,307.16 393.001,322.853 401.518,343.939C490.317,349.099 581.407,354.73 670.143,358.682C675.442,351.603 681.221,336.896 688.488,332.565C715.768,316.305 757.438,332.692 784.023,343.149C800.252,349.533 800.294,364.879 802.207,378.379C808.955,426.889 819.41,474.811 833.48,521.725C844.031,556.192 856.547,583.334 875.75,613.807C884.243,627.195 893.259,638.59 899.814,653.11C910.052,675.789 898.564,701.518 904.413,723.781C908.28,738.499 916.204,755.893 921.785,770.398C930.889,794.243 939.555,818.254 947.777,842.417C954.163,860.945 963.082,887.003 966.422,905.858C969.51,926.617 966.625,948.827 965.706,969.633C962.225,1048.5 959.046,1124.04 888.59,1174.2C855.898,1196.89 806.932,1207.61 773.228,1181.92C747.844,1162.57 748.132,1136.11 745.081,1107.32C742.24,1080.51 724.519,1078.48 705.838,1065.39C689.491,1053.9 677.82,1028.46 667.959,1010.67L636.163,953.776L593.771,877.632C576.788,846.632 556.206,812.86 555.95,776.576C555.849,742.054 567.668,708.278 575.43,675.014C578.671,661.125 581.928,645.324 571.647,633.643C561.612,622.24 550.845,611.281 540.704,599.888C521.474,578.432 503.394,555.972 486.54,532.605C475.34,517.159 468.773,508.724 448.495,513.675C440.11,515.723 430.627,517.651 422.1,519.611C400.289,524.789 378.45,529.849 356.583,534.789C346.464,537.042 336.487,539.323 326.28,541.23C301.771,545.809 280.676,532.464 272.595,509.217C270.567,503.383 269.888,499.486 268.945,493.445C254.43,480.609 231.224,471.776 213.201,465.486C181.496,454.419 148.257,454.412 115.201,457.489C102.124,457.802 88.472,463.364 75.572,463.087C39.844,462.322 56.564,416.41 56.964,397.029L56.979,396.02C49.531,382.214 35.611,371.163 32.146,355.159C27.255,332.569 32.199,312.674 56.802,306.928Z" style="fill:rgb(254,196,19);fill-rule:nonzero;"/>
        <path d="M65.233,333.981C77.359,333.102 93.083,333.533 105.593,333.544L172.129,333.582C211.278,333.415 250.427,333.506 289.575,333.853C301.411,333.88 350.28,333.01 363.588,335.021C367.113,335.553 376.495,362.74 379.401,369.995C442.181,372.198 504.923,375.383 567.603,379.549L689.403,385.936C692.607,379.694 704.6,356.029 710.127,353.974C723.542,348.987 759.059,362.001 771.709,367.333C785.791,461.427 804.564,551.378 855.615,632.277C860.881,641.951 871.623,653.267 875.173,663.411C882.257,681.677 870.902,708.445 877.18,726.341C894.619,776.055 914.867,824.211 930.435,874.723C940.49,907.349 943.189,920.052 940.843,954.429C936.099,1023.97 939.525,1094.16 883.465,1145C861.493,1163.51 822.293,1180.38 794.947,1164.75C760.913,1145.29 780.753,1101.77 760.047,1073.1C746.907,1054.9 727.814,1052.79 713.254,1037.1C709.493,1032.9 700.733,1016.22 697.593,1010.51L674.056,967.93L620.601,872.413C608.541,850.44 595.061,827.044 587.078,803.376C576.072,770.703 587.871,730.175 596.931,697.842C612.839,641.064 605.914,631.83 568.347,591.173C560.801,582.988 553.386,574.684 546.104,566.262C538.158,557.283 530.553,548.006 523.306,538.454C505.244,514.762 490.28,483.287 456.072,486.701C445.908,487.716 435.719,489.848 425.755,491.994C402.303,497.272 378.884,502.692 355.497,508.251C343.619,511.004 331.373,514.029 319.317,515.727C299.182,518.562 295.743,490.914 292.027,476.447C264.349,452.719 203.737,432.246 167.557,430.396C143.647,429.173 106.157,431.491 82.839,436.08C83.422,427.813 85.294,416.814 86.439,408.556C89.315,387.823 82.882,380.777 70.543,365.132C63.704,356.462 60.124,350.625 61.216,338.979C61.454,336.436 63.183,335.309 65.233,333.981ZM763.453,767.386C763.452,797.53 764.213,831.196 763.293,861.046C792.906,861.874 827.292,861.663 857.044,861.287C857.041,839.76 857.052,818.211 856.921,796.685C856.863,787.163 855.929,777.609 856.099,768.008C825.177,768.02 794.209,767.25 763.453,767.386ZM763.859,955.07C763.786,983.24 765.329,1012.52 765.003,1039.82C769.163,1043.28 771.319,1045.28 775.002,1049.24L831.997,1049.32C837.706,1049.36 851.939,1050.09 856.836,1049.6C857.148,1048.95 857.413,1048.56 857.541,1047.89L857.56,955.111C826.739,955.112 794.561,955.609 763.859,955.07ZM196.436,383.051C196.842,391.892 197.321,401.09 197.103,409.92C231.669,417.33 255.345,420.334 286.771,439.567L286.6,384.578C256.567,384.756 226.477,383.033 196.436,383.051ZM856.947,861.396C856.915,877.886 856.773,894.592 857.015,911.065C857.232,925.775 858.337,940.288 857.794,955.075C875.516,956.09 896.051,955.509 914.024,955.569C914.066,946.414 914.544,928.744 913.317,920.143C910.743,902.084 903.681,879.609 898.596,861.891C885.62,861.085 870.143,861.398 856.947,861.396ZM857.951,1049.48C857.976,1076.15 857.456,1104.84 858.112,1131.33C867.131,1123.99 875.385,1114.31 882.125,1104.85C894.186,1086.96 902.544,1070.87 907.839,1049.72L857.951,1049.48ZM386.404,409.104L383.341,409.387C381.511,412.573 382.976,469.941 383.096,477.595C407.681,471.348 434.28,464.378 459.492,462.081C465.441,462.184 472.138,462.449 478.006,463.512C478.02,446.852 477.271,428.263 477.639,411.965C449.754,410.639 414.1,408.985 386.404,409.104ZM669.187,672.02C668.461,641.688 669.07,608.974 669.066,578.456L621.995,578.466C613.628,578.421 603.031,577.958 594.848,578.368L594.657,579.162C621.838,605.317 638.139,633.028 630.051,672.036L669.187,672.02ZM669.9,860.968C669.966,869.394 668.875,901.418 671.246,906.901C677.088,920.407 689.905,940.493 697.039,954.591C719.318,954.463 741.481,955.002 763.808,954.952C764.678,923.916 763.56,892.012 763.102,861.001L669.9,860.968ZM669.769,766.95C650.233,766.206 628.84,766.207 609.228,766.242C608.991,801.239 628.452,831.993 646.703,860.902L669.9,860.968C669.671,829.629 669.627,798.289 669.769,766.95ZM669.187,672.02L669.301,733.402C669.412,744.768 670.053,755.529 669.769,766.95L762.995,767.274C763.002,736.126 763.375,704.103 762.772,673.025C734.075,671.946 697.883,671.982 669.187,672.02ZM573.942,483.919C554.73,483.745 535.517,483.724 516.304,483.857C528.222,498.272 538.019,514.32 549.476,528.728C557.642,539.73 566.051,550.106 574.649,560.772L573.942,483.919ZM573.942,483.919C584.863,484.55 598.225,484.213 609.301,484.213L669.093,484.273L669.139,441.592C669.141,436.168 669.477,424.567 668.751,419.699L667.475,418.961C636.428,418.831 604.225,416.14 573.458,416.164C574.37,438.294 573.963,461.681 573.942,483.919ZM762.753,579.037C763.091,610.168 762.8,641.819 762.804,672.991C791.017,673.125 819.231,673.089 847.444,672.883C827.212,647.058 808.016,609.517 795.5,579.009L762.753,579.037ZM762.753,579.037C763.383,548.449 762.853,515.985 762.901,485.241C752.806,484.095 737.518,484.562 726.821,484.56L669.158,484.472L669.124,578.439L762.753,579.037Z" style="fill:rgb(11,35,85);fill-rule:nonzero;"/>
    </g>
</svg>
