<?xml version="1.0" encoding="UTF-8" standalone="no"?>
<!DOCTYPE svg PUBLIC "-//W3C//DTD SVG 1.1//EN" "http://www.w3.org/Graphics/SVG/1.1/DTD/svg11.dtd">
<svg width="100%" height="100%" viewBox="0 0 636 561" version="1.1" xmlns="http://www.w3.org/2000/svg" xmlns:xlink="http://www.w3.org/1999/xlink" xml:space="preserve" xmlns:serif="http://www.serif.com/" style="fill-rule:evenodd;clip-rule:evenodd;stroke-linejoin:round;stroke-miterlimit:2;">
    <g transform="matrix(1,0,0,1,-85.3769,-22.1949)">
        <path d="M313.778,28.092C314.714,28.813 315.593,29.644 315.965,30.433C316.33,31.204 316.429,32.386 316.414,33.54C316.814,33.957 317.265,34.436 317.557,34.773C318.47,35.826 319.227,36.973 319.758,38.252C320.438,39.889 320.412,43.186 320.38,44.337C320.986,46.12 321.833,48.143 323.083,49.783C323.714,50.61 324.39,51.472 325.478,51.53C395.87,55.261 466.596,55.549 536.698,63.86C538.364,64.057 539.708,64.751 540.8,65.807C541.743,66.719 542.632,68.027 542.908,69.954C543.004,70.623 543.047,71.655 542.76,72.933C542.694,73.228 542.534,73.788 542.362,74.366C542.811,74.933 543.212,75.518 543.422,76.014C543.926,77.208 544.314,78.578 544.673,80.005C544.806,72.522 543.883,65.032 544.085,57.547C544.116,56.381 544.33,55.241 544.669,54.12C544.882,53.415 545.357,52.085 545.444,51.843C545.608,49.982 546.428,48.117 548.077,46.598C548.682,46.042 549.462,45.53 550.341,45.107C550.355,45.056 550.368,45.008 550.382,44.963C550.952,43.147 551.989,41.798 553.29,40.847C554.857,39.703 557.133,38.66 560.694,39.786C569.52,42.576 571.011,44.724 580.061,46.903C586.151,48.37 592.367,49.25 598.528,50.38C598.421,50.361 598.098,50.318 598.098,50.318C598.098,50.318 603.086,51.293 604.668,52.696C606.351,54.191 607.279,56.11 607.295,58.456C607.317,61.561 606.56,65.233 605.913,68.911C605.648,70.422 605.353,71.932 605.321,73.349C606.504,74.238 607.678,75.308 608.097,76.295C608.878,78.133 608.598,81.924 608.496,83.028C610.343,95.567 612.359,108.088 614.819,120.521C620.845,150.983 632.61,180.163 648.292,206.907C659.758,226.461 674.207,245.023 680.824,267.108C681.77,270.265 680.894,272.65 678.985,274.601C678.462,275.135 676.958,275.908 675.825,276.446C675.242,277.291 674.723,278.179 674.466,279.157C673.32,283.531 673.626,290.414 674.996,294.705C687.25,333.095 708.841,367.875 718.541,407.176C724.699,432.123 718.506,457.989 715.742,482.756C714.37,495.049 713.493,507.393 712.262,519.702C711.944,522.879 712.079,526.313 710.579,529.132C708.72,532.626 705.931,533.421 702.947,532.93C701.887,532.755 700.621,532.303 699.403,531.333C698.117,533.991 697.303,536.828 696.372,541.307C696.831,542.346 697.651,544.347 697.814,545.732C698.755,553.732 698.344,556.376 694.233,563.362C692.388,566.498 689.691,568.326 686.544,569.499C685.39,569.929 684.169,570.262 682.963,570.609C682.245,570.816 681.493,570.919 680.925,571.344C679.508,572.405 677.991,573.086 676.252,573.246C675.448,574.097 674.519,574.897 673.61,575.259C670.98,576.308 668.627,576.179 667.091,575.916C666.738,576.17 666.362,576.404 665.968,576.613C665.175,577.938 664.147,578.906 663.064,579.546C661.587,580.418 658.136,581.396 654.983,581.519C652.262,581.625 649.8,581.05 648.409,580.309C648.043,580.115 647.681,579.884 647.332,579.612C644.357,580.619 641.347,581.522 638.265,582.081C632.703,583.09 625.003,581.262 620.457,577.983C616.855,575.385 614.987,571.406 614.572,566.891C614.14,562.194 615.417,556.883 616.544,553.678C616.676,553.303 616.844,552.921 617.059,552.539C615.252,549.438 613.204,546.455 611.795,543.16C611.395,542.226 611.354,540.748 611.426,539.426C610.905,538.786 610.326,538.024 610.029,537.458C608.693,534.915 608.143,533.265 607.694,531.818C607.339,530.671 607.112,529.762 605.783,527.868C604.953,526.686 603.306,525.543 602.109,524.166C600.193,521.962 598.934,519.452 598.687,516.743C598.658,516.422 598.684,516.07 598.752,515.699C593.486,513.615 591.399,512.587 585.848,512.109C585.711,512.28 585.571,512.449 585.433,512.606C585.548,512.475 585.795,512.139 585.795,512.139C585.795,512.139 583.477,515.043 582.379,515.642C580.111,516.878 577.721,517.033 575.166,515.592C572.443,514.057 570.618,510.992 569.62,508.029C567.235,500.944 565.187,493.736 563.493,486.454C562.74,483.216 562.558,478.835 561.966,474.544C561.604,471.916 561.273,469.24 559.718,467.488C556.469,463.825 552.476,460.891 548.977,457.467C547.959,458.082 546.98,458.372 546.156,458.495C544.441,458.751 542.913,458.418 541.558,457.662C540.235,456.925 538.76,455.693 538.06,453.167C536.895,448.965 536.715,444.535 535.722,440.293C534.986,439.488 533.708,438.044 533.19,437.175C532.017,435.205 531.681,433.193 531.949,431.368C530.57,431.247 529.1,430.706 527.645,429.498C526.188,428.29 523.965,424.566 522.521,421.719C519.704,416.162 516.414,410.857 513.36,405.426C507.373,394.776 501.541,384.036 495.393,373.478C491.203,366.282 488.603,364.728 485.825,356.715C484.829,353.843 485.615,351.804 486.519,350.403C485.841,349.067 485.247,347.363 485.089,346.338C484.96,345.505 484.942,344.215 485.132,342.692C485.244,341.788 485.459,340.089 485.587,339.078C485.136,338.561 484.592,338.06 484.057,337.528C482.443,335.92 480.761,334.258 479.457,332.469C476.75,328.754 475.416,324.562 476.808,319.541C477.799,315.969 479.105,313.948 480.42,312.212C481.194,311.188 482.103,310.48 482.505,308.285C482.903,306.11 482.814,303.867 482.644,301.653C481.749,300.042 480.322,297.041 480.659,294.781C480.984,292.605 481.693,291.223 482.416,290.198C482.807,289.645 483.421,289.071 484.031,288.572C484.05,288.041 484.104,287.541 484.216,287.156C486.25,280.173 489.067,273.453 490.935,266.616C492.269,261.733 493.108,256.783 492.441,251.569C491.856,251.284 491.323,250.986 491.006,250.72C489.437,249.402 488.463,247.714 488.215,245.555C488.017,243.838 488.201,242.122 488.575,240.412C488.676,239.949 488.849,239.494 488.971,239.037C487.832,237.244 486.261,234.126 486.852,231.272C487.156,229.8 488.026,228.522 489.026,227.483C488.893,227.312 488.76,227.137 488.628,226.957C488.118,226.26 487.624,225.496 487.169,224.62C486.488,224.324 485.922,223.939 485.56,223.439C484.386,221.819 483.78,219.936 483.667,217.861C483.662,217.781 483.659,217.696 483.657,217.605C482.664,217.312 481.719,216.885 481.009,216.266C478.903,214.429 478.01,212.268 477.938,209.901C477.313,209.957 476.663,209.984 475.98,209.972C475.653,210.509 475.325,210.984 475.02,211.316C473.256,213.231 471.115,214.133 468.857,214.173C467.012,214.205 464.733,213.729 462.395,211.446C460.556,209.652 459.945,208.066 459.645,206.763C459.483,206.063 459.501,205.08 459.57,204.205C458.651,202.917 457.551,200.933 457.457,198.716C457.453,198.613 457.469,198.463 457.502,198.279C457.288,198.192 457.074,198.104 456.864,198.013C457.037,198.088 457.263,198.151 457.517,198.203C457.535,198.107 457.558,198.003 457.583,197.893C455.209,197.267 452.016,196.06 451.223,193.979C450.55,192.216 450.199,190.361 449.972,188.473C449.796,187.005 449.802,185.497 449.315,184.113C448.991,183.196 448.135,182.693 447.296,182.164C446.105,181.414 444.768,180.803 443.442,180.219C440.218,178.8 437.047,177.475 434.802,175.859C430.331,172.642 429.574,168.902 430.205,164.98C430.418,163.654 431.227,161.385 431.788,159.904C431.139,159.711 430.452,159.652 429.81,159.465C427.546,158.805 425.349,157.919 423.296,156.289C420.233,153.855 419.197,151.714 418.581,149.674C418.269,148.644 418.589,147.55 417.681,146.018C415.981,143.151 414.245,140.22 411.875,137.876C406.492,132.548 400.515,127.833 394.466,123.276C392.896,122.093 391.231,122.873 389.597,123.407C386.934,124.276 384.282,125.437 381.725,126.099C377.381,127.225 374.567,126.078 372.456,123.959C372.325,123.957 372.188,123.948 372.046,123.932C371.189,124.818 370.104,125.453 368.783,125.827C369.157,127.253 369.047,128.639 368.579,129.966L368.574,129.98C368.616,130.125 368.654,130.27 368.689,130.417C369.179,132.49 369.124,135.096 367.18,138.168C365.486,140.845 363.385,141.973 361.373,142.444C359.395,142.906 357.273,142.698 355.159,141.715C354.197,141.267 352.882,140.286 351.766,139.381C349.884,140.079 347.813,140.338 346.074,141.339C338.679,145.597 331.737,150.597 324.533,155.172C323.23,156 320.797,157.394 319.189,157.787C317.578,158.181 316.148,158.076 315.018,157.764C314.36,157.582 313.736,157.344 313.159,157.036C312.462,157.478 311.763,157.839 311.074,158.104C308.955,158.919 306.563,159.044 304.101,158.708C302.973,158.554 300.858,158.205 300.58,158.159C295.069,159.017 289.756,160.965 284.23,161.722C280.346,162.254 278.221,160.463 276.911,157.966C276.37,156.934 276.393,152.26 276.393,152.26C276.393,152.26 276.3,152.857 276.288,153.082C276.34,152.126 276.604,150.311 276.657,149.951C276.151,147.007 275.504,143.676 274.207,140.709C273.306,138.648 272.119,136.713 270.046,135.683C269.292,135.309 268.399,135.322 267.566,135.144C265.916,134.792 264.328,134.282 262.879,133.453C258.329,130.85 254.54,127.075 250.103,124.283C232.504,113.211 224.15,109.101 204.886,101.306C189.941,95.258 173.432,92.947 157.428,95.106C145.792,96.676 134.271,99.014 122.65,100.694C117.855,101.388 113.02,101.778 108.194,102.217C106.945,102.33 105.589,102.734 104.345,102.731C102.801,102.726 101.326,102.404 99.937,101.702C97.299,100.37 96.141,98.268 95.917,95.796C95.801,94.512 96.016,92.876 96.923,91.247C97.645,89.951 99.048,88.496 100.044,87.789C100.617,87.382 101.555,87.052 102.48,86.801C102.595,86.512 102.703,86.216 102.851,85.945C103.176,85.349 103.524,84.77 103.907,84.218C102.729,83 101.682,81.21 100.927,77.881C100.154,74.467 100.879,71.654 102.37,69.109C102.96,68.103 104.197,66.498 104.913,65.591C104.702,65.404 104.444,65.253 104.214,65.08C103.612,64.627 102.959,64.219 102.304,63.816C99.902,62.338 97.512,60.857 95.751,59.018C94.709,57.93 93.904,55.468 93.507,54.056C92.628,52.955 91.736,52.697 90.871,52.002C89.823,51.159 88.73,50.124 87.564,48.571C85.001,45.159 84.907,41.656 86.17,38.193C86.841,36.356 88.412,34.585 88.923,33.087C89.057,32.693 88.91,32.255 88.897,31.84C88.919,32.568 89.572,34.464 89.572,34.464C89.572,34.464 90.123,23.401 94.775,22.996C114.276,21.298 130.837,22.805 150.339,22.947C182.447,23.18 214.557,23.247 246.665,23.177C260.45,23.146 274.231,22.766 288.015,22.643C293.113,22.598 298.211,22.666 303.31,22.671C304.442,22.672 305.683,22.298 306.805,22.334C308.417,22.386 309.937,22.784 311.347,23.596C312.67,24.358 313.39,26.191 313.778,28.092ZM120,29.225C112.028,29.108 103.995,29.22 95.382,29.97C94.807,30.02 95.876,31.046 95.893,31.623C95.932,32.868 95.95,34.165 95.549,35.344C95.08,36.719 93.757,38.327 92.991,40L120,40L120,29.225ZM200,30.179C186.667,30.15 173.333,30.095 160,30.012L160,40L200,40L200,30.179ZM280,29.74C268.894,29.901 257.788,30.152 246.681,30.177C244.454,30.181 242.227,30.186 240,30.189L240,40L280,40L280,29.74ZM320,56.571C316.704,54.032 314.687,49.507 313.527,45.909C313.017,44.33 313.93,42.469 313.294,40.937C313.155,40.604 312.977,40.294 312.772,40L280,40L280,80L320,80L320,56.571ZM400,61.694C386.665,61.179 373.329,60.686 360,60.137L360,80L400,80L400,61.694ZM480,65.684C466.678,64.765 453.342,64.025 440,63.386L440,80L480,80L480,65.684ZM537.426,80C537.289,79.558 537.14,79.134 536.972,78.735C536.562,77.762 535.251,77.341 534.885,76.35C534.378,74.978 536.477,70.883 535.874,70.811C530.586,70.184 525.295,69.603 520,69.063L520,80L537.426,80ZM560,46.922C559.549,46.77 559.077,46.616 558.584,46.46C555.501,45.485 558.252,51.076 555.29,50.945C554.01,50.889 552.472,51.593 552.415,52.483C552.3,54.285 551.131,55.93 551.083,57.735C550.883,65.156 551.78,72.581 551.672,80L560,80L560,46.922ZM600,62.118C600.184,60.852 600.303,59.636 600.296,58.505C600.294,58.26 600.181,58.067 600,57.914L600,62.118ZM601.851,80C601.843,79.668 601.787,79.343 601.655,79.032C601.408,78.45 600.678,78.236 600,77.994L600,80L601.851,80ZM618.545,160C614.09,147.575 610.516,134.84 607.952,121.879C607.828,121.253 607.705,120.627 607.584,120L600,120L600,160L618.545,160ZM640,206.541C638.771,204.376 637.567,202.195 636.39,200L600,200L600,240L640,240L640,206.541ZM667.174,280C667.309,279.072 667.482,278.193 667.695,277.383C668.293,275.099 669.629,273.035 671.027,271.133C671.756,270.142 674.471,270.295 674.118,269.117C671.019,258.77 666.128,249.232 660.644,240L640,240L640,280L667.174,280ZM680,327.555C678.929,325.044 677.874,322.526 676.843,320L640,320L640,360L680,360L680,327.555ZM709.345,400C705.306,386.295 699.967,373.084 694.283,360L680,360L680,400L709.345,400ZM709.013,480C710.577,466.861 713.079,453.422 713.938,440L680,440L680,480L709.013,480ZM702.387,520C702.405,521.368 702.222,522.765 702.604,524.068C702.84,524.876 704.004,526.588 704.399,525.844C705.324,524.105 705.155,522.005 705.232,520L702.387,520ZM688.085,560C688.124,559.938 688.163,559.876 688.2,559.812C691.291,554.559 691.569,552.565 690.862,546.55C690.614,544.443 688.845,543.211 689.309,540.907C691.4,530.526 692.785,527.549 698.353,520L680,520L680,560L688.085,560ZM640,574.534C643.109,573.733 646.148,572.627 649.172,571.549C650.052,571.235 651.165,569.215 651.549,570.066C651.656,570.303 651.082,573.803 651.696,574.129C653.278,574.971 658.055,574.374 659.504,573.518C660.536,572.909 660.596,569.888 661.573,570.581C662.566,571.285 663.849,569.751 663.311,569.388C662.999,569.177 664.03,569.146 664.404,569.1C665.451,568.969 666.537,568.596 667.558,568.858C668.101,568.997 669.449,569.382 671.016,568.757C672.569,568.138 671.986,565.468 674.506,566.135C675.412,566.375 676.11,566.205 676.732,565.74C677.686,565.026 678.815,564.569 680,564.191L680,560L640,560L640,574.534ZM607.778,520C609.08,521.39 610.654,522.624 611.512,523.846C614.824,528.564 613.587,529.178 616.226,534.203C616.829,535.351 618.144,536.094 618.543,537.328C618.86,538.31 617.825,539.459 618.231,540.408C620.261,545.155 623.623,549.255 625.671,553.995C626.246,555.327 623.296,555.579 623.148,556.001C622.767,557.084 622.35,558.474 622.028,560L640,560L640,520L607.778,520ZM569.589,480C569.772,481.779 569.98,483.441 570.311,484.868C571.954,491.931 573.94,498.923 576.254,505.796C576.72,507.18 577.331,508.777 578.603,509.494C579.231,509.848 579.689,508.541 580.163,507.999C581.967,505.936 581.589,504.809 584.84,505.015C591.95,505.466 594.382,506.44 600,508.666L600,480L569.589,480ZM542.802,440C543.52,443.754 543.784,447.613 544.805,451.297C545.111,452.397 546.649,449.913 547.694,449.452C548.902,448.918 550.3,448.049 551.541,448.502C552.487,448.847 552.029,450.55 552.718,451.285C554.974,453.698 557.524,455.82 560,458.015L560,440L542.802,440ZM518.342,400C518.715,400.666 519.088,401.331 519.462,401.996C519.641,402.313 519.82,402.631 520,402.947L520,400L518.342,400ZM520,331.369C519.264,332.289 518.494,333.067 517.892,333.592C516.79,334.553 515.003,334.543 513.992,335.599C509.013,340.792 511.173,342.428 506.767,347.956C505.935,349.001 504.256,349.106 503.404,350.135C502.008,351.82 501.737,354.302 500.213,355.872C499.023,357.097 497.331,358.164 495.623,358.15C494.851,358.144 495.876,356.519 495.517,355.835C494.991,354.836 492.068,353.355 492.438,354.422C493.25,356.762 494.055,358.504 494.899,360L520,360L520,331.369ZM515.603,320C515.624,320.148 515.642,320.246 515.66,320.262C517.583,321.901 518.646,321.288 520,322.004L520,320L515.603,320ZM510.23,320C510.368,321.103 510.329,322.199 510.096,323.125C509.825,324.201 507.19,325.223 508.13,325.812C510.085,327.037 512.295,327.957 514.567,328.354C515.905,328.588 513.914,325.715 513.521,324.415C513.153,323.199 512.717,321.422 513.198,320L510.23,320ZM484.009,320C483.849,320.429 483.697,320.896 483.554,321.412C481.679,328.173 489.82,331.962 492.399,336.647C493.315,338.309 491.754,343.635 492.006,345.267C492.146,346.169 493.038,348.38 493.475,347.579C494.765,345.217 494.353,342.259 495.066,339.664C495.756,337.154 498.603,340.042 499.883,339.234C502.558,337.547 501.503,334.466 502.503,332.157C503.208,330.531 506.059,329.427 505.236,326.993C504.574,325.033 502.597,323.748 501.735,321.866C501.482,321.316 502.621,320.324 502.067,320.08C501.989,320.046 501.87,320.02 501.717,320L484.009,320ZM495.854,240C495.518,241.586 494.986,243.164 495.169,244.754C495.332,246.171 498.415,245.722 498.74,247.111C501.478,258.799 497.677,269.282 493.932,280L520,280L520,240L495.854,240ZM490.571,212.665C489.763,212.794 489.039,212.955 489.039,212.955C489.039,212.955 489.676,212.864 490.616,212.793C490.602,212.75 490.587,212.707 490.571,212.665ZM465.003,200C465.534,200.652 466.302,200.997 466.633,202.196C467.173,204.15 465.48,204.677 467.284,206.437C470.296,209.377 471.382,202.634 472.32,201.769C472.823,201.305 475.879,202.968 476.112,202.973C477.581,203.001 478.808,202.72 480,202.435L480,200L465.003,200ZM439.182,160C438.386,163.578 434.978,167.362 438.891,170.178C439.235,170.426 439.607,170.663 440,170.893L440,160L439.182,160ZM400,118.684C400.575,119.121 401.149,119.56 401.722,120L440,120L440,80L400,80L400,118.684ZM359.418,120C359.42,119.818 359.424,119.636 359.43,119.455C359.454,118.765 359.664,118.315 360,118.04L360,80L320,80L320,120L359.418,120ZM360,127.78C360.658,128.007 361.293,128.131 361.839,127.789C362.557,127.34 360.445,126.653 360.21,125.84C360.135,125.579 360.065,125.316 360,125.052L360,127.78ZM360,135.561C360.452,135.394 360.878,135.036 361.265,134.425C362.669,132.206 361.669,130.93 360,130.085L360,135.561ZM280,136.59C281.975,140.467 282.92,145.038 283.595,148.994C283.847,150.466 283.359,151.971 283.278,153.462C283.254,153.903 282.843,154.846 283.28,154.786C288.827,154.027 294.156,152.053 299.691,151.214C302.329,150.814 305.897,152.595 308.561,151.571C311.209,150.552 313.755,146.467 315.853,144.85C316.258,144.538 317.312,144.11 317.368,144.617C317.584,146.589 316.196,148.536 316.474,150.5C316.647,151.721 318.611,150.628 320,149.759L320,120L280,120L280,136.59ZM240,110.005C244.148,112.365 248.589,115.061 253.83,118.358C254.652,118.875 255.451,119.427 256.235,120L280,120L280,80L240,80L240,110.005ZM160,87.763C173.445,86.458 187.129,88.027 200,92.11L200,80L160,80L160,87.763ZM109.768,80C110.578,80.536 111.626,80.908 113.068,82.074C113.579,82.488 114.572,83.069 114.259,83.647C113.316,85.391 111.234,86.241 109.982,87.777C108.713,89.333 108.189,91.458 106.75,92.857C106.097,93.491 104.838,92.97 104.097,93.497C103.499,93.921 102.438,95.123 103.093,95.454C104.423,96.126 106.075,95.381 107.56,95.246C111.71,94.868 115.868,94.531 120,93.993L120,80L109.768,80ZM120,40L120,80L160,80L160,40L120,40ZM240,40L200,40L200,80L240,80L240,40ZM520,80L480,80L480,120L520,120L520,80ZM560,80L560,120L600,120L600,80L560,80ZM560,120L520,120L520,160L560,160L560,120ZM600,200L600,160L560,160L560,200L600,200ZM640,320L640,280L600,280L600,320L640,320ZM680,440L680,400L640,400L640,440L680,440ZM680,520L680,480L640,480L640,520L680,520ZM600,480L640,480L640,440L600,440L600,480ZM560,440L600,440L600,400L560,400L560,440ZM520,400L560,400L560,360L520,360L520,400ZM520,320L560,320L560,280L520,280L520,320ZM560,320L560,360L600,360L600,320L560,320ZM480,200L520,200L520,160L480,160L480,200ZM520,200L520,240L560,240L560,200L520,200ZM440,160L480,160L480,120L440,120L440,160ZM600,240L560,240L560,280L600,280L600,240ZM640,360L600,360L600,400L640,400L640,360ZM313.983,29.298C314.304,31.625 314.209,33.733 314.209,33.733C314.209,33.733 314.496,30.663 313.983,29.298ZM659.577,577.327C658.878,577.101 658.189,576.762 657.525,576.292C658.233,576.794 658.918,577.127 659.577,577.327ZM490.182,228.94C490.225,229.025 490.296,229.09 490.296,229.09C490.296,229.09 490.25,229.029 490.182,228.94ZM459.658,198.353C459.668,198.381 459.678,198.409 459.689,198.436C460.051,198.453 460.293,198.457 460.293,198.457C460.293,198.457 460.056,198.424 459.658,198.353ZM534.937,424.978C535.078,425.167 535.193,425.273 535.193,425.273C535.193,425.273 535.097,425.169 534.937,424.978ZM490.608,360.659C489.32,358.083 488.67,355.356 488.67,355.356C488.67,355.356 488.829,358.158 489.321,359.094C489.543,359.516 490.018,360.35 490.608,360.659Z" data-color="color-1"/>
        <path d="M109.768,80C108.874,79.408 108.272,78.616 107.754,76.333C106.669,71.544 113.119,69.653 112.182,64.891C111.057,59.178 104.244,57.767 100.808,54.178C100.001,53.335 100.417,51.812 99.79,50.828C97.549,47.31 95.629,47.653 93.161,44.367C92.085,42.934 92.33,41.443 92.991,40C93.757,38.327 95.08,36.719 95.549,35.344C95.95,34.165 95.932,32.868 95.893,31.623C95.876,31.046 94.807,30.02 95.382,29.97C103.995,29.22 112.028,29.108 120,29.225C129.863,29.371 139.631,29.869 150.289,29.946C153.526,29.97 156.763,29.992 160,30.012C173.333,30.095 186.667,30.15 200,30.179C213.333,30.208 226.667,30.211 240,30.189C242.227,30.186 244.454,30.181 246.681,30.177C257.788,30.152 268.894,29.901 280,29.74C282.692,29.701 285.385,29.667 288.077,29.643C293.152,29.598 298.228,29.666 303.303,29.671C304.82,29.673 306.539,28.905 307.854,29.662C308.574,30.077 307.236,31.39 307.592,32.141C307.936,32.868 309.292,32.695 309.636,33.422C309.997,34.187 309.02,35.188 309.39,35.95C310.156,37.523 311.778,38.575 312.772,40C312.977,40.294 313.155,40.604 313.294,40.937C313.93,42.469 313.017,44.33 313.527,45.909C314.687,49.507 316.704,54.032 320,56.571C321.445,57.684 323.135,58.416 325.107,58.52C336.73,59.136 348.363,59.658 360,60.137C373.329,60.686 386.665,61.179 400,61.694C413.336,62.21 426.671,62.748 440,63.386C453.342,64.025 466.678,64.765 480,65.684C493.349,66.604 506.684,67.704 520,69.063C525.295,69.603 530.586,70.184 535.874,70.811C536.477,70.883 534.378,74.978 534.885,76.35C535.251,77.341 536.562,77.762 536.972,78.735C537.14,79.134 537.289,79.558 537.426,80C538.781,84.384 538.927,90.534 544.684,91.347C549.555,92.036 551.501,85.049 551.626,81.795C551.649,81.197 551.664,80.598 551.672,80C551.78,72.581 550.883,65.156 551.083,57.735C551.131,55.93 552.3,54.285 552.415,52.483C552.472,51.593 554.01,50.889 555.29,50.945C558.252,51.076 555.501,45.485 558.584,46.46C559.077,46.616 559.549,46.77 560,46.922C567.81,49.553 569.664,51.6 578.422,53.709C584.636,55.205 590.978,56.112 597.265,57.265C597.625,57.332 599.31,57.332 600,57.914C600.181,58.067 600.294,58.26 600.296,58.505C600.303,59.636 600.184,60.852 600,62.118C599.297,66.967 597.658,72.556 598.687,76.977C598.816,77.534 599.386,77.775 600,77.994C600.678,78.236 601.408,78.45 601.655,79.032C601.787,79.343 601.843,79.668 601.851,80C601.882,81.169 601.334,82.439 601.507,83.617C603.295,95.782 605.24,107.93 607.584,120C607.705,120.627 607.828,121.253 607.952,121.879C610.516,134.84 614.09,147.575 618.545,160C623.475,173.753 629.483,187.125 636.39,200C637.567,202.195 638.771,204.376 640,206.541C640.742,207.849 641.494,209.152 642.254,210.448C648.069,220.366 654.705,230.004 660.644,240C666.128,249.232 671.019,258.77 674.118,269.117C674.471,270.295 671.756,270.142 671.027,271.133C669.629,273.035 668.293,275.099 667.695,277.383C667.482,278.193 667.309,279.072 667.174,280C666.395,285.334 666.868,292.26 668.327,296.834C670.833,304.685 673.733,312.383 676.843,320C677.874,322.526 678.929,325.044 680,327.555C684.635,338.421 689.577,349.167 694.283,360C699.967,373.084 705.306,386.295 709.345,400C710.207,402.927 711.011,405.877 711.745,408.853C714.281,419.126 714.606,429.558 713.938,440C713.079,453.422 710.577,466.861 709.013,480C708.935,480.661 708.858,481.321 708.785,481.98C707.41,494.3 706.53,506.67 705.297,519.005C705.264,519.333 705.245,519.665 705.232,520C705.155,522.005 705.324,524.105 704.399,525.844C704.004,526.588 702.84,524.876 702.604,524.068C702.222,522.765 702.405,521.368 702.387,520C702.381,519.486 702.346,518.975 702.242,518.476C702.027,517.445 700.553,517.053 699.895,517.93C699.348,518.659 698.834,519.347 698.353,520C692.785,527.549 691.4,530.526 689.309,540.907C688.845,543.211 690.614,544.443 690.862,546.55C691.569,552.565 691.291,554.559 688.2,559.812C688.163,559.876 688.124,559.938 688.085,560C686.312,562.79 682.981,563.24 680,564.191C678.815,564.569 677.686,565.026 676.732,565.74C676.11,566.205 675.412,566.375 674.506,566.135C671.986,565.468 672.569,568.138 671.016,568.757C669.449,569.382 668.101,568.997 667.558,568.858C666.537,568.596 665.451,568.969 664.404,569.1C664.03,569.146 662.999,569.177 663.311,569.388C663.849,569.751 662.566,571.285 661.573,570.581C660.596,569.888 660.536,572.909 659.504,573.518C658.055,574.374 653.278,574.971 651.696,574.129C651.082,573.803 651.656,570.303 651.549,570.066C651.165,569.215 650.052,571.235 649.172,571.549C646.148,572.627 643.109,573.733 640,574.534C639.013,574.788 638.019,575.011 637.016,575.193C633.122,575.9 627.735,574.602 624.552,572.306C620.969,569.721 621.117,564.318 622.028,560C622.35,558.474 622.767,557.084 623.148,556.001C623.296,555.579 626.246,555.327 625.671,553.995C623.623,549.255 620.261,545.155 618.231,540.408C617.825,539.459 618.86,538.31 618.543,537.328C618.144,536.094 616.829,535.351 616.226,534.203C613.587,529.178 614.824,528.564 611.512,523.846C610.654,522.624 609.08,521.39 607.778,520C606.69,518.839 605.791,517.569 605.658,516.107C605.555,514.972 607.54,514.332 607.453,513.195C607.313,511.369 603.443,510.017 602.323,509.581C601.486,509.254 600.717,508.95 600,508.666C594.382,506.44 591.95,505.466 584.84,505.015C581.589,504.809 581.967,505.936 580.163,507.999C579.689,508.541 579.231,509.848 578.603,509.494C577.331,508.777 576.72,507.18 576.254,505.796C573.94,498.923 571.954,491.931 570.311,484.868C569.98,483.441 569.772,481.779 569.589,480C568.985,474.135 568.642,467 564.955,462.843C563.423,461.116 561.73,459.548 560,458.015C557.524,455.82 554.974,453.698 552.718,451.285C552.029,450.55 552.487,448.847 551.541,448.502C550.3,448.049 548.902,448.918 547.694,449.452C546.649,449.913 545.111,452.397 544.805,451.297C543.784,447.613 543.52,443.754 542.802,440C542.625,439.077 542.421,438.161 542.171,437.255C541.835,436.038 538.62,433.988 538.877,432.371C539.131,430.778 542.027,433.102 543.631,433.269C546.865,433.603 549.099,433.144 550.008,429.522C551.033,425.436 550.328,419.158 548.615,415.341C548.269,414.568 544.98,414.044 545.225,412.552C545.441,411.239 546.87,410.446 547.51,409.279C547.814,408.725 548.637,407.298 548.024,407.454C543.606,408.574 537.628,412.043 538.719,417.596C539.373,420.922 541.671,420.189 541.408,423.898C541.134,427.749 533.766,424.031 532.806,424.346C531.784,424.682 530.022,421.032 528.765,418.553C526.067,413.232 522.947,408.136 520,402.947C519.82,402.631 519.641,402.313 519.462,401.996C519.088,401.331 518.715,400.666 518.342,400C512.728,389.974 507.224,379.885 501.442,369.955C498.768,365.363 496.742,363.269 494.899,360C494.055,358.504 493.25,356.762 492.438,354.422C492.068,353.355 494.991,354.836 495.517,355.835C495.876,356.519 494.851,358.144 495.623,358.15C497.331,358.164 499.023,357.097 500.213,355.872C501.737,354.302 502.008,351.82 503.404,350.135C504.256,349.106 505.935,349.001 506.767,347.956C511.173,342.428 509.013,340.792 513.992,335.599C515.003,334.543 516.79,334.553 517.892,333.592C518.494,333.067 519.264,332.289 520,331.369C521.871,329.029 523.514,325.766 521.563,323.381C520.975,322.662 520.47,322.253 520,322.004C518.646,321.288 517.583,321.901 515.66,320.262C515.642,320.246 515.624,320.148 515.603,320C515.492,319.238 515.281,317.174 514.339,318.48C513.754,318.882 513.398,319.411 513.198,320C512.717,321.422 513.153,323.199 513.521,324.415C513.914,325.715 515.905,328.588 514.567,328.354C512.295,327.957 510.085,327.037 508.13,325.812C507.19,325.223 509.825,324.201 510.096,323.125C510.329,322.199 510.368,321.103 510.23,320C510.013,318.263 509.359,316.508 508.339,315.363C506.196,312.956 501.253,309.172 497.931,312.363C497.075,313.186 496.999,314.609 496.17,315.458C495.77,315.868 494.811,315.393 494.502,315.876C491.564,320.479 499.675,319.731 501.717,320C501.87,320.02 501.989,320.046 502.067,320.08C502.621,320.324 501.482,321.316 501.735,321.866C502.597,323.748 504.574,325.033 505.236,326.993C506.059,329.427 503.208,330.531 502.503,332.157C501.503,334.466 502.558,337.547 499.883,339.234C498.603,340.042 495.756,337.154 495.066,339.664C494.353,342.259 494.765,345.217 493.475,347.579C493.038,348.38 492.146,346.169 492.006,345.267C491.754,343.635 493.315,338.309 492.399,336.647C489.82,331.962 481.679,328.173 483.554,321.412C483.697,320.896 483.849,320.429 484.009,320C485.731,315.388 488.332,315.327 489.39,309.545C489.966,306.399 489.798,303.138 489.528,299.951C489.394,298.376 487.32,297.576 487.583,295.814C488.043,292.729 489.953,294.038 491.056,291.466C491.366,290.745 490.717,289.868 490.937,289.114C491.833,286.036 492.88,283.009 493.932,280C497.677,269.282 501.478,258.799 498.74,247.111C498.415,245.722 495.332,246.171 495.169,244.754C494.986,243.164 495.518,241.586 495.854,240C496.02,239.214 496.138,238.426 496.097,237.633C495.987,235.52 493.209,235.098 493.707,232.69C494.168,230.461 497.012,231.71 497.139,229.155C497.341,225.083 494.811,224.364 493.256,221.143C492.957,220.523 493.596,219.544 493.083,219.086C492.617,218.67 491.593,219.836 491.227,219.33C489.849,217.428 491.51,214.207 490.386,212.275C489.1,210.063 487.134,212.32 485.611,210.991C482.703,208.454 490.446,203.047 485.316,202.042C483.244,201.636 481.656,202.04 480,202.435C478.808,202.72 477.581,203.001 476.112,202.973C475.879,202.968 472.823,201.305 472.32,201.769C471.382,202.634 470.296,209.377 467.284,206.437C465.48,204.677 467.173,204.15 466.633,202.196C466.302,200.997 465.534,200.652 465.003,200C464.706,199.636 464.483,199.176 464.451,198.418C464.423,197.781 466.25,195.623 465.316,194.77C463.718,193.312 461.64,192.457 459.656,191.594C459.076,191.342 457.989,192.075 457.763,191.485C456.591,188.41 457.01,184.891 455.917,181.788C453.723,175.559 445.048,173.847 440,170.893C439.607,170.663 439.235,170.426 438.891,170.178C434.978,167.362 438.386,163.578 439.182,160C439.53,158.439 439.38,156.917 437.907,155.531C434.837,152.643 430.872,153.367 427.65,150.808C423.927,147.85 425.887,146.133 423.703,142.448C421.7,139.07 419.591,135.662 416.799,132.9C412.098,128.248 406.97,124.037 401.722,120C401.149,119.56 400.575,119.121 400,118.684C399.56,118.35 399.119,118.017 398.678,117.685C392.611,113.115 386.028,117.754 379.969,119.323C376.058,120.337 376.183,115.546 374.179,113.746C373.279,112.939 373.705,116.952 372.495,116.96C370.775,116.97 369.41,115.066 367.69,115.077C366.301,115.086 368.076,118.842 366.717,119.131C365.879,119.308 361.569,116.756 360,118.04C359.664,118.315 359.454,118.765 359.43,119.455C359.424,119.636 359.42,119.818 359.418,120C359.404,121.694 359.598,123.405 360,125.052C360.065,125.316 360.135,125.579 360.21,125.84C360.445,126.653 362.557,127.34 361.839,127.789C361.293,128.131 360.658,128.007 360,127.78C359.369,127.562 358.718,127.247 358.107,127.156C356.886,126.973 355.636,126.399 354.434,126.679C353.974,126.787 353.775,127.823 354.177,128.072C355.189,128.699 358.051,129.098 360,130.085C361.669,130.93 362.669,132.206 361.265,134.425C360.878,135.036 360.452,135.394 360,135.561C357.537,136.474 354.336,131.715 352.868,131.379C351.638,131.096 350.542,132.36 349.361,132.807C347.112,133.658 344.665,134.072 342.581,135.272C335.098,139.581 328.069,144.634 320.78,149.263C320.561,149.402 320.293,149.576 320,149.759C318.611,150.628 316.647,151.721 316.474,150.5C316.196,148.536 317.584,146.589 317.368,144.617C317.312,144.11 316.258,144.538 315.853,144.85C313.755,146.467 311.209,150.552 308.561,151.571C305.897,152.595 302.329,150.814 299.691,151.214C294.156,152.053 288.827,154.027 283.28,154.786C282.843,154.846 283.254,153.903 283.278,153.462C283.359,151.971 283.847,150.466 283.595,148.994C282.92,145.038 281.975,140.467 280,136.59C278.463,133.573 276.303,130.976 273.161,129.414C271.04,128.361 268.41,128.553 266.354,127.377C262.732,125.305 259.61,122.462 256.235,120C255.451,119.427 254.652,118.875 253.83,118.358C248.589,115.061 244.148,112.365 240,110.005C229.882,104.247 221.508,100.481 207.512,94.817C205.045,93.819 202.538,92.916 200,92.11C187.129,88.027 173.445,86.458 160,87.763C158.829,87.876 157.659,88.012 156.492,88.169C144.834,89.742 133.291,92.083 121.649,93.766C121.1,93.846 120.55,93.921 120,93.993C115.868,94.531 111.71,94.868 107.56,95.246C106.075,95.381 104.423,96.126 103.093,95.454C102.438,95.123 103.499,93.921 104.097,93.497C104.838,92.97 106.097,93.491 106.75,92.857C108.189,91.458 108.713,89.333 109.982,87.777C111.234,86.241 113.316,85.391 114.259,83.647C114.572,83.069 113.579,82.488 113.068,82.074C111.626,80.908 110.578,80.536 109.768,80ZM102.156,40C101.938,40.414 101.707,40.835 101.484,41.232C101.683,41.359 101.877,41.487 102.066,41.631C103.529,42.753 104.993,44.106 106.537,46.53C107.007,47.266 107.416,48.539 107.709,49.631C109.485,50.974 111.793,51.961 113.614,53.387C116.768,55.857 119.125,58.955 120,63.192L120,40L160,40L160,79.728C167.12,79.092 174.297,79.197 181.398,80L200,80L200,83.748C203.563,84.79 207.073,86.01 210.512,87.401C223.066,92.481 231.216,96.076 240,100.845L240,80L280,80L280,120L269.596,120C269.785,120.115 269.974,120.229 270.166,120.34C270.46,120.401 272.099,120.74 272.956,120.94C274.264,121.244 275.529,121.658 276.72,122.25C277.901,122.837 278.992,123.526 280,124.301L280,120L320,120L320,136.913C320.179,136.978 320.349,137.049 320.512,137.122C321.316,137.484 322.047,137.93 322.683,138.474C327.927,134.999 333.14,131.477 338.589,128.34C340.943,126.984 343.651,126.377 346.205,125.445C346.772,123.069 348.312,121.165 350.089,120L320,120L320,80L360,80L360,109.745C360.179,109.726 360.361,109.71 360.544,109.698C360.79,109.683 361.071,109.69 361.378,109.715C362.802,108.046 364.826,107.095 367.639,107.077C368.064,107.074 368.554,107.144 369.073,107.261C369.759,106.748 370.484,106.375 371.224,106.112C373.421,105.33 376.358,104.952 379.524,107.794C380.148,108.355 380.869,109.378 381.517,110.421C383.455,109.708 385.424,108.926 387.393,108.437C391.644,107.382 395.866,107.312 400,109.198L400,80L440,80L440,120L414.498,120C417.23,122.308 419.887,124.7 422.426,127.213C425.701,130.454 428.235,134.406 430.584,138.369C431.403,139.75 431.904,140.987 432.249,142.122C432.482,142.89 432.702,143.988 432.833,144.695C433.894,145.411 435.155,145.369 436.285,145.722C437.559,146.12 438.8,146.607 440,147.257L440,120L480,120L480,160L447.267,160C447.129,161.346 446.792,162.714 446.302,164.075C446.202,164.352 446.074,164.694 445.937,165.052C448.474,166.279 451.613,167.325 454.271,168.858C458.531,171.314 461.879,174.635 463.462,179.13C464.098,180.933 464.428,182.824 464.649,184.741C464.662,184.855 464.674,184.968 464.685,185.083C466.85,186.095 468.959,187.264 470.708,188.861C472.19,190.213 473.119,191.848 473.45,193.729C473.84,193.764 474.251,193.824 474.679,193.917C475.342,194.061 476.504,194.499 477.451,194.878C478.362,194.72 479.157,194.405 480,194.238L480,160L520,160L520,200L494.411,200C495.09,201.613 495.326,203.444 494.952,205.448C495.78,206.126 496.586,207.021 497.302,208.253C498.115,209.652 498.595,211.219 498.748,212.926C498.763,213.095 498.772,213.289 498.777,213.501C499.656,214.557 500.22,216.301 500.574,217.89C501.377,219.419 502.484,220.244 503.175,221.4C504.419,223.483 505.31,225.906 505.129,229.552C505.018,231.786 504.331,233.377 503.509,234.62C503.49,234.649 503.47,234.679 503.449,234.708C503.797,235.557 504.044,236.421 504.086,237.216C504.135,238.146 504.087,239.074 503.967,240L520,240L520,280L502.273,280C501.128,283.439 499.949,286.891 498.9,290.395C498.931,291.794 498.861,293.564 498.409,294.619C498.014,295.539 497.474,296.365 496.887,297.084C497.205,297.857 497.444,298.624 497.499,299.275C497.618,300.672 497.711,302.081 497.749,303.491C499.932,302.913 502.213,303.009 504.492,303.622C508.338,304.657 512.205,307.675 514.313,310.042L514.322,310.052C514.704,310.04 515.056,310.053 515.37,310.071C517.006,310.168 518.604,310.691 520,311.807L520,280L560,280L560,320L528.925,320C530.812,323.26 530.898,326.938 529.587,330.583C528.264,334.258 525.159,337.868 523.152,339.619C522.421,340.257 521.083,340.952 520,341.459L520,360L507.163,360C506.795,360.508 506.394,360.99 505.953,361.444C505.85,361.551 505.744,361.656 505.637,361.761C506.471,362.922 507.37,364.238 508.355,365.929C512.326,372.748 516.166,379.642 520,386.538L520,360L560,360L560,400L551.139,400C551.641,400.212 552.088,400.462 552.487,400.716C554.059,401.719 555.262,403.165 555.881,405.177C556.214,406.257 556.454,407.843 555.977,409.739C555.877,410.137 555.682,410.658 555.457,411.187C555.633,411.482 555.785,411.777 555.915,412.066C558.257,417.288 559.17,425.88 557.767,431.469C556.847,435.138 555.113,437.36 553.172,438.849C552.598,439.289 551.983,439.674 551.325,440L560,440L560,447.29C563.569,450.784 567.625,453.797 570.94,457.534C573.759,460.712 575.458,464.984 576.36,469.653C577.03,473.12 577.205,476.841 577.593,480L600,480L600,500.084C601.51,500.659 603.192,501.333 605.229,502.127C606.445,502.601 609.677,503.923 611.628,505.556C614.041,507.574 615.241,510.127 615.429,512.581C615.496,513.444 615.201,514.517 614.757,515.594C615.911,516.758 617.415,518.332 618.059,519.249C618.243,519.51 618.414,519.76 618.574,520L640,520L640,560L631.654,560C631.407,560.271 631.143,560.535 630.861,560.792C630.624,561.009 630.277,561.248 629.881,561.488C629.666,562.47 629.506,563.533 629.482,564.583C629.472,565.021 629.569,565.727 629.622,566.077C631.271,567.089 633.751,567.655 635.587,567.322C637.079,567.051 638.547,566.672 640,566.234L640,560L668.409,560C669.15,559.345 669.935,558.796 670.682,558.54C671.609,558.222 672.707,557.981 674.036,558.02C675.245,557.386 676.546,556.883 677.899,556.466C678.468,556.291 679.272,556.037 680,555.807L680,520L688.554,520C689.87,518.01 691.476,515.819 693.497,513.127C694.74,511.471 696.366,510.384 698.128,509.844C698.996,500.256 699.767,490.659 700.834,481.092C700.875,480.728 700.916,480.364 700.959,480L680,480L680,440L706.021,440C706.663,430.201 706.358,420.414 703.978,410.77C703.083,407.143 702.085,403.555 701.001,400L680,400L680,360L685.64,360C683.78,355.756 681.889,351.523 680,347.289L680,360L640,360L640,320L668.245,320C665.503,313.178 662.946,306.284 660.706,299.267C659.039,294.045 658.437,286.327 659.132,280L640,280L640,240L651.371,240C647.658,233.982 643.744,228.074 640,222.117L640,240L600,240L600,200L627.344,200C620.645,187.099 614.83,173.729 610.062,160L600,160L600,122.905C599.81,121.937 599.622,120.969 599.436,120L560,120L560,80L591.403,80C591.164,79.593 590.987,79.187 590.895,78.789C590.166,75.657 590.259,72.109 590.787,68.486C590.987,67.116 591.269,65.731 591.535,64.375C586.52,63.509 581.496,62.677 576.549,61.486C569.475,59.783 566.781,58.142 562.047,56.206C561.878,56.378 561.703,56.542 561.522,56.7C561.064,57.097 560.561,57.468 560,57.791L560,80L559.671,80C559.663,80.7 559.647,81.4 559.62,82.101C559.5,85.24 558.219,90.506 555.606,94.006C552.753,97.827 548.698,99.994 543.565,99.269C537.97,98.478 534.731,95.468 532.654,91.448C531.309,88.847 530.867,85.446 529.95,82.766C529.262,82.004 528.382,80.955 527.814,80L520,80L520,77.104C506.685,75.734 493.349,74.625 480,73.699L480,80L440,80L440,71.389C426.671,70.748 413.336,70.21 400,69.695L400,80L360,80L360,68.142C348.222,67.659 336.448,67.132 324.684,66.509C323.021,66.421 321.46,66.105 320,65.593L320,80L280,80L280,40L302.499,40C302.384,39.809 302.282,39.625 302.197,39.451C301.964,38.971 301.821,38.349 301.741,37.668C297.21,37.653 292.679,37.602 288.149,37.643C285.432,37.667 282.716,37.701 280,37.74L280,40L240,40L240,38.189C226.667,38.211 213.333,38.208 200,38.179L200,40L160,40L160,38.012C156.743,37.992 153.487,37.97 150.23,37.946C139.591,37.869 129.849,37.357 120,37.212L120,40L102.156,40ZM120,68.544C119.669,70.021 119.068,71.392 118.279,72.697C117.916,73.298 117.314,74.123 116.748,74.866C117.206,75.174 117.672,75.509 118.098,75.853C118.718,76.355 119.387,77.029 120,77.773L120,68.544ZM560,448.417C560.118,448.685 560.181,448.84 560.181,448.84C560.181,448.84 560.113,448.67 560,448.406L560,448.417ZM527.528,400C529.225,402.964 530.964,405.905 532.64,408.88C533.067,408.173 533.552,407.495 534.089,406.846C536.8,403.574 541.118,401.183 544.983,400L527.528,400ZM121.514,80C121.777,80.499 121.976,80.984 122.083,81.429C122.417,82.819 122.432,84.219 122.042,85.622C133.189,83.957 144.253,81.748 155.422,80.241C156.063,80.155 156.704,80.074 157.346,80L121.514,80ZM200,40L240,40L240,80L200,80L200,40ZM480,80L520,80L520,120L480,120L480,80ZM520,120L560,120L560,160L520,160L520,120ZM600,160L600,200L560,200L560,160L600,160ZM640,280L640,320L600,320L600,280L640,280ZM680,400L680,440L640,440L640,400L680,400ZM680,480L680,520L640,520L640,480L680,480ZM640,480L600,480L600,440L640,440L640,480ZM600,440L560,440L560,400L600,400L600,440ZM560,360L560,320L600,320L600,360L560,360ZM520,240L520,200L560,200L560,240L520,240ZM560,240L600,240L600,280L560,280L560,240ZM600,360L640,360L640,400L600,400L600,360ZM493.355,300.204C493.137,300.344 493.01,300.415 493.01,300.415C493.01,300.415 493.146,300.346 493.355,300.204ZM500.603,218.022C501.005,219.878 501.122,221.49 501.122,221.49C501.122,221.49 501.022,219.272 500.603,218.022ZM346.197,125.477L346.199,125.47C346.093,125.52 346.008,125.562 346.008,125.562C346.008,125.562 346.075,125.531 346.197,125.477Z" style="fill:rgb(190,76,48);" data-color="color-2"/>
    </g>
</svg>
