<?xml version="1.0" encoding="UTF-8" standalone="no"?>
<!DOCTYPE svg PUBLIC "-//W3C//DTD SVG 1.1//EN" "http://www.w3.org/Graphics/SVG/1.1/DTD/svg11.dtd">
<svg width="100%" height="100%" viewBox="0 0 3440 3607" version="1.1" xmlns="http://www.w3.org/2000/svg" xmlns:xlink="http://www.w3.org/1999/xlink" xml:space="preserve" xmlns:serif="http://www.serif.com/" style="fill-rule:evenodd;clip-rule:evenodd;stroke-linejoin:round;stroke-miterlimit:2;">
    <g transform="matrix(1,0,0,1,-199.523,-248.48)">
        <path d="M561.707,3022.04C568.948,3020.28 586.229,3019.77 594.397,3019.3C456.223,2962.47 373.055,2879.39 326.06,2737.48C416.569,2768.91 569.737,2797.61 664.942,2807.8C892.211,2831.25 1140.24,2836.21 1364.47,2787.16C1467.56,2764.61 1647.32,2700.52 1730.13,2634.12C1644.23,2648.68 1545.77,2639.12 1463.38,2610.63C1486.56,2597.64 1507.81,2586.81 1531.13,2573.12C1543.57,2564.62 1549,2560.94 1559.86,2550.64C1524.61,2556.66 1496.63,2559.02 1460.77,2559.93C1390.29,2554.29 1326.45,2541.54 1263.35,2508.1C1242.05,2496.81 1200.85,2471.27 1188.2,2450.63L1189.02,2448.22C1200.51,2443.45 1242.58,2434.11 1257.2,2430.23C1268.83,2426.57 1286.3,2418.29 1297.99,2413.14C1282.94,2412.12 1268.99,2412.62 1253.93,2410.3C1248.7,2409.66 1243.49,2408.81 1238.32,2407.75C1144.21,2388.87 1065.47,2346.21 1011.22,2265.2C1028.44,2263.82 1072.96,2254.19 1089.72,2247.48C1096.16,2247.38 1100.35,2246.65 1105.62,2243.01L1105.44,2239.67C1100.08,2235.87 1096.42,2236.4 1089.81,2236.04C1076.98,2230.46 1049.63,2223.28 1033.07,2216.31C950.585,2181.53 906.028,2147.57 859.953,2072.19C894.156,2076.15 906.559,2074.67 940.685,2071.88C952.445,2072.53 995.406,2070.91 1003.08,2063.21C996.491,2058.62 972.89,2053.12 964.312,2052.59C957.245,2049.88 948.79,2047.16 941.676,2044.86C851.854,2015.85 767.44,1972.27 709.826,1895.22C698.699,1880.34 684.108,1862.07 675.748,1845.41C727.197,1853.5 821.839,1850.15 874.093,1847.39C827.381,1830.81 786.016,1818.15 740.414,1797.65C597.085,1733.24 504.839,1646.06 419.012,1516.1C476.649,1536.14 548.97,1558.65 608.797,1572.29C616.213,1574.73 672.493,1587.21 678.953,1587.22L679.154,1585.25C675.016,1581.43 621.358,1548.74 613.976,1544.53C493.978,1481.39 380.054,1393.1 312.069,1274.28C292.009,1239.23 279.707,1203.22 261.381,1170.66L260.006,1168.24C305.976,1193.44 359.297,1221.66 407.575,1242.48C456.909,1263.75 511.854,1281.59 562.547,1299.61C535.336,1272.53 498.281,1249.02 469.425,1222.99C362.195,1126.27 259.456,1015 222.342,871.416C208.661,818.49 204.438,769.089 199.523,715.485C217.758,732.728 236.928,756.348 254.721,774.237C296.436,816.175 367.405,888.151 417.937,917.01C456.075,947.502 502.871,970.808 541.078,997.12C550.43,1002.86 563.238,1009.42 573.082,1014.83C563.427,1003.29 561.234,1001.52 549.542,992.545C524.401,973.378 488.792,935.469 467.666,911.79C304.405,745.777 261.452,473.359 313.312,253.071C335.725,287.826 356.664,330.738 380.425,368.155C461.941,496.514 566.736,633.348 681.397,734.12L711.504,760.002L734.413,777.627C754.158,794.68 797.61,826.12 819.799,837.668C806.63,816.578 791.743,796.167 778.364,774.676C753.162,734.19 736.039,697.056 717.587,653.393C666.189,517.801 650.285,393.411 664.786,248.48L672.704,263.412C821.358,541.506 1079.4,762.832 1323.91,955.018C1418.11,1030.43 1514.44,1103.12 1612.8,1173.03C1657.9,1204.99 1703.23,1236.65 1748.77,1268C1847.81,1336.03 1974.3,1418.29 2019.18,1536.14C2033.77,1574.48 2032.11,1618.92 2040.19,1658.98C2061.14,1788.01 2128.04,1922.78 2229.97,2007.4C2236.96,2013.29 2244.26,2018.8 2251.83,2023.92L2241.89,1984.18C2228.64,1923.77 2226.73,1890.68 2227.84,1829.75C2249.34,1832.81 2285.87,1843.03 2307.44,1848.83C2306.57,1839.6 2291.79,1812.08 2287.74,1800.24C2276.87,1768.44 2269.84,1727.75 2273.52,1694.33C2275.46,1676.66 2280.26,1627.18 2289.95,1615.06C2311.48,1631.88 2371.93,1676.41 2397.07,1684.92C2401.78,1679.94 2383.86,1639.54 2381.45,1628.62C2358.05,1522.88 2363.37,1449.55 2389.82,1347.92C2417.82,1391.28 2472.44,1450.36 2512.17,1482.19C2453.14,1336.79 2484.11,1140.28 2590.24,1023.68C2599.75,1093.77 2632.02,1204.98 2678.29,1257.97C2650.19,1107.73 2691.41,942.143 2798.99,830.093C2822.8,805.301 2850.43,783.989 2877.43,762.767C2869.33,851.324 2868.8,981.543 2895.26,1067.34C2897.83,1079.55 2901.39,1091.46 2904.79,1103.47L2910.09,1103.96C2911.2,1094.18 2909.65,1076.28 2909.13,1068.1C2917.01,909.95 2988.02,761.573 3106.25,656.233C3136.52,629.059 3150.33,628.376 3178.41,609.675C3170.19,639.931 3164.9,683.164 3160.94,714.699C3136.74,907.507 3147.73,1084.69 3177.1,1276.03C3197.46,1408.62 3246.79,1534.03 3214.46,1664.92C3191.53,1757.75 3135.94,1814.04 3085.4,1892.35C3027.75,1981.68 2978.09,2058.03 2940.35,2158.04C2969.33,2163.23 3008.34,2180.5 3036.03,2192.05C3173.57,2249.43 3313.53,2332.15 3401.73,2455.21C3430.59,2495.47 3458.43,2545.83 3438.8,2595.57C3492.71,2624.25 3537.32,2665.37 3554.36,2725.38C3587.58,2842.33 3531.24,2951.19 3420.25,2996.46C3420.43,2904.91 3363.94,2889.99 3291.34,2864.55C3121.54,2805.04 2879.38,2784.01 2736.59,2916.69C2762.13,2951.44 2789.58,2983.19 2816.94,3016.36C2821.67,3022.09 2850.14,3055.89 2852.45,3060.25C2907.28,3124.3 2960.17,3185.15 3033.48,3228.98C3078.21,3255.73 3106.47,3263.06 3147.31,3224.55C3208.42,3172.11 3250.72,3080.2 3341.6,3080.42C3363.41,3080.44 3380.22,3091.21 3397.55,3102.07C3437.81,3076.1 3480.76,3081.93 3518.74,3110.35C3530.59,3119.21 3541.83,3131.98 3554.78,3139.64C3590.92,3157 3618.19,3179.77 3629.25,3220.67C3636.97,3231.96 3639.7,3269.2 3638.51,3282.95C3635.21,3321.19 3626.71,3356.87 3594.95,3381.38C3584.08,3389.77 3569.29,3404.43 3554.04,3403.47L3552.89,3400.27L3559.4,3390.6C3570.02,3374.64 3574.81,3355.51 3572.98,3336.43C3570.51,3310.85 3556.8,3295.82 3537.97,3280.81L3530.15,3300.99C3491.45,3332.64 3493.23,3296.32 3470.91,3286.98C3464.21,3294.9 3465.21,3310.27 3464.63,3320.74C3461.51,3376.95 3434.43,3408.28 3388.22,3436.66C3408.27,3385.2 3395.72,3351.84 3353.42,3318.77C3303.28,3350.49 3251.97,3387.45 3213.21,3432.6C3199.95,3447.09 3175.38,3483.12 3179.94,3503.77C3188.73,3543.55 3182.77,3547.44 3152.74,3579.75C3196.75,3618.93 3228.2,3606.69 3272.69,3578.82C3270.44,3583.92 3268.12,3588.99 3265.74,3594.03C3236.52,3655.53 3169.32,3681.11 3104.69,3656.54C3098.23,3654.13 3082.41,3641.28 3076.86,3640.62C3036.93,3635.93 3009.34,3601.1 2995.59,3563.06C2975.93,3508.62 2998.64,3461.01 3023.3,3410.71C2955.6,3389.72 2866.75,3343.12 2794.97,3327.3C2783.05,3327.83 2766.37,3331.32 2754.81,3333.51C2624.37,3358.31 2519.11,3305.52 2428.35,3213.65C2440.44,3215.51 2454.81,3216.73 2467.13,3218.05C2488.74,3222.08 2539.53,3220.33 2562.62,3219.93C2551.75,3214.98 2540.84,3211.44 2529.58,3207.51C2470.72,3186.89 2412.31,3140.26 2370.04,3095.21C2315.45,3111.41 2258.92,3116.49 2202.19,3115.16C2230.91,3214.27 2294.54,3315.64 2369.97,3386.47C2397.95,3412.75 2433.99,3438.08 2465.93,3459.45C2492.02,3451.92 2524.42,3444.09 2548.59,3433.05C2567.86,3424.25 2590.96,3407.11 2609.81,3396.08C2682.2,3353.69 2755.88,3360.36 2800.01,3438.27C2871.7,3458.38 2898.62,3538.23 2878.52,3604.92C2868.75,3636.72 2847.91,3663.97 2819.77,3681.72C2850.65,3604.87 2799.21,3562.78 2725.63,3559.05C2736.06,3582.89 2744.86,3607.78 2742.58,3634.06C2735.95,3710.76 2710.29,3762.28 2631.81,3780.8C2660.93,3725.55 2651.94,3675.24 2603.6,3635.75C2593.4,3637.85 2578.44,3641.02 2568.36,3641.12C2526.58,3641.54 2498.13,3633.74 2470.91,3674.45C2459.83,3692.9 2450.2,3711.7 2438.79,3730C2434.58,3736.76 2422.12,3747 2419.97,3751.82C2410.58,3772.91 2440.8,3797.46 2454.07,3804.78C2478.16,3818.09 2494.55,3820.91 2520.22,3821.4C2481.45,3870.06 2369.37,3862.88 2326.74,3821.88C2310.06,3805.83 2288.78,3787.35 2279.23,3764.29C2263.73,3713.65 2236.65,3664.07 2277.54,3616.39C2291.75,3599.82 2305.92,3590.48 2319.6,3576.48C2289.56,3543.5 2172.69,3468.35 2129.29,3446.54C2134.72,3467.77 2150.94,3502.38 2153.18,3514.12C2148.52,3517.33 2148.06,3516.45 2140.91,3515.49C2046.64,3502.91 1965.97,3441.66 1911.73,3364.56C1903.64,3353.16 1895.76,3341.6 1888.1,3329.89C1892.25,3345.26 1895.28,3356.95 1901.12,3371.68C1910.08,3399.52 1917.97,3422.77 1932.28,3448.5C1789.15,3373.49 1715.26,3237.85 1668.29,3089.41C1636.76,3126.2 1604.17,3159.51 1572.24,3194.91C1463.26,3315.69 1335.81,3428.34 1170.09,3458.02C1087.55,3472.8 980.445,3469.95 908.312,3420.09C945.412,3406.5 994.726,3379.85 1024.35,3354.38C889.379,3389.84 693.576,3349.54 605.023,3236.46C643.429,3232.61 703.871,3219 738.095,3201.06C627.657,3186.99 518.985,3146.9 445.6,3059.81C435.791,3047.95 426.995,3035.29 419.306,3021.96C463.295,3024.82 517.831,3025.78 561.707,3022.04ZM2910.09,1103.98L2905.1,1104.38L2906.2,1107.12L2909.5,1107.38C2909.75,1106.41 2909.94,1105.27 2910.09,1103.98Z" style="fill:rgb(19,29,26);"/>
        <path d="M3263.92,2787.21C3208.88,2774.04 3158.54,2759.11 3101.06,2746.32C3121.36,2741.63 3157.9,2727.59 3179.7,2720.72C3217.27,2709.22 3255.51,2700 3294.19,2693.1C3295.43,2690.69 3296.72,2688.3 3298.04,2685.92C3354.32,2585.64 3470.96,2665.39 3490.71,2748.24C3504.12,2804.49 3489.44,2854.37 3461.03,2903.22C3433.72,2774.9 3326.27,2736.51 3205.33,2745.27C3235.78,2754.2 3269.31,2764.57 3296.62,2780.94C3320.85,2792.43 3336.65,2804.56 3357.21,2822.19C3324.97,2808.3 3297.32,2798.39 3263.92,2787.21ZM3365.69,2697.35C3376.76,2694.14 3422.93,2683.06 3425.77,2675.19C3408.76,2666.43 3368.18,2671.88 3353.22,2684.67C3344.91,2692.79 3343.09,2696.71 3337.48,2706.53L3365.69,2697.35Z" style="fill:rgb(128,128,128);" data-color='color-2'/>
        <path d="M3112.21,2519.97C3118,2522.7 3154.24,2547.49 3152.38,2552.39C3136.14,2595.3 3149.55,2636.25 3201.76,2630.76C3214.01,2629.47 3222.38,2619.3 3229.18,2609.22L3247.03,2622.31L3233.37,2635.5C3213.94,2649.97 3196.22,2657.71 3171.31,2655.27C3146.12,2652.83 3123.04,2640.13 3107.5,2620.16C3085.89,2592.12 3079.81,2542.13 3112.21,2519.97Z" style="fill:rgb(242,228,211);"/>
        <path d="M3320.16,3164.95C3325.32,3163.36 3337.29,3164.09 3343.36,3164.14C3363.45,3177.76 3368.27,3183.99 3382.98,3203.73C3383.71,3217.75 3390.92,3235.84 3389.32,3241.47C3384.88,3241.63 3386.96,3241.94 3383.5,3240.92C3348.83,3230.66 3343.96,3224.4 3309.79,3235.13C3295.25,3251.69 3276.87,3274.34 3261.13,3288.63C3219.15,3326.75 3180.35,3356.4 3148.67,3404.82C3128,3436.41 3113.11,3456.57 3115.63,3497.73C3116.87,3518.07 3101.49,3509.7 3087.91,3521.33C3085.09,3529.39 3090.35,3541.81 3092.94,3551.67C3081.14,3559.25 3059.61,3522.42 3054.59,3513.83C3058.08,3439.2 3077.04,3442.19 3103.94,3381.55L3105.21,3378.64C3086.59,3370.67 3059.87,3363.38 3038.53,3354.84C2933.6,3309.35 2889.21,3271.51 2823.08,3175.06C2860.92,3200.23 2899.3,3224.6 2938.17,3248.15C2996.78,3283.33 3076.17,3334.43 3145.78,3301.83C3189.56,3281.32 3227.2,3236.31 3260.91,3202.23C3280.33,3182.59 3289.71,3166.33 3320.16,3164.95ZM2241.03,3416.94C2259.28,3417.63 2278.43,3415.92 2296.73,3414.72C2307.08,3427.21 2327.56,3444.58 2340.35,3453.45C2382.55,3484.08 2443.4,3530.45 2500.02,3512.57C2580.71,3487.08 2641.5,3492.58 2661.46,3588.36C2662.91,3595.33 2662.87,3608.54 2658.24,3614.2C2651.78,3609.96 2647.08,3597.94 2641.44,3592.18C2609.87,3559.89 2560.18,3549.98 2519.74,3566.57L2517.56,3567.49C2479.76,3578.72 2432.15,3606.26 2402.98,3632.16C2386.59,3648.28 2357.52,3671.09 2355.36,3695.14C2354.4,3705.89 2356.45,3706.66 2348.22,3712.62C2331.57,3713.04 2332.83,3696.81 2328.7,3684.12C2315.41,3643.24 2418.76,3594.15 2397.48,3569.76C2365.56,3533.17 2336.18,3501.39 2301.46,3468.62C2290.78,3458.53 2244.53,3423.44 2241.03,3416.94ZM2685.53,3438.77C2701.76,3436.89 2720.43,3443.09 2732.78,3453.49C2743.8,3462.77 2764.73,3482.91 2764.46,3497.86C2763.44,3499.09 2762.41,3500.32 2761.39,3501.55C2748.52,3501.55 2733.77,3503.28 2721.49,3505.06C2718.13,3505.6 2701.17,3508.58 2699.5,3506.9C2676.18,3483.33 2662.5,3465.37 2633.81,3447.61C2650.82,3443.42 2668.1,3440.46 2685.53,3438.77ZM3440.15,3163C3483.41,3163.69 3498.16,3182.19 3518,3216.44C3497.23,3215.67 3476.66,3216.09 3455.88,3216.35C3450.57,3196.51 3448.51,3182.06 3440.15,3163Z" style="fill:rgb(128,128,128);" data-color="color-2"/>
        <path d="M2498.08,2387.69C2483.19,2379.24 2462.85,2374.97 2446.81,2368.13C2166.34,2248.71 1876.37,2069.95 1775.57,1764.46C1761.38,1721.47 1754.99,1685.23 1746.61,1641.85C1674.8,1624.78 1598.81,1592.9 1534.52,1558.92C1440.12,1509.02 1332.65,1435.3 1284.38,1337.65C1278.05,1324.84 1267.52,1308.31 1263.28,1295.04C1266.22,1295.83 1303.83,1328.61 1310.7,1333.37C1407.8,1400.62 1534.34,1461.92 1650.33,1483.32C1637.71,1477.17 1626.58,1469.92 1615.13,1461.81C1501.22,1381.16 1389.46,1297.2 1293.3,1195.45C1234.94,1133.7 1199.42,1076.8 1171.93,996.585C1179.91,999.983 1204.57,1024.23 1213.63,1031.58C1259.58,1068.07 1306.15,1103.79 1353.3,1138.71C1481.44,1233.26 1614.19,1323.79 1744.84,1414.61C1807.05,1457.85 1891.39,1524.92 1909.77,1600.19C1914.66,1620.19 1918.84,1665.59 1922.69,1689.28C1955.27,1890.14 2077.87,2066.33 2245.49,2179.53C2342.8,2245.24 2448.2,2302.09 2570.39,2297.34C2603.42,2296.06 2630.67,2290.84 2662.96,2285.31C2574.65,2253.61 2546.04,2231.9 2470.52,2178.75C2507.17,2186.44 2590.39,2189.75 2633.14,2194.32C2822.04,2214.51 2996.46,2253.19 3161.42,2353.17C3233.56,2396.89 3339.66,2480.37 3367.57,2565.95C3369.58,2572.11 3368.2,2575.82 3365.15,2580.67C3357.91,2584.06 3342,2583.83 3333.77,2583.73C3243.27,2582.58 3177.61,2492.75 3106.39,2447.41C3070.41,2424.51 3022.44,2405.33 2981.49,2393.52C2968.29,2389.71 2906.75,2377.04 2898.47,2381.72C2906.46,2388.84 2928.99,2400.49 2939.73,2407.57C2976.99,2432.14 3003.82,2454.96 3034.01,2487.58C2973.56,2457.94 2919.51,2451.01 2853.03,2452.71C2777.57,2454.63 2723.85,2477.54 2665.3,2523.21L2665.46,2526.11C2686.04,2527.97 2708.25,2527.23 2728.3,2531.82C2775.34,2542.58 2815.84,2564.17 2857.68,2586.74C2850.46,2586.34 2843.23,2586.11 2836,2586.07C2690.62,2585.99 2588.25,2639.92 2487.69,2740.24C2550.61,2720.17 2577.85,2721.72 2643.6,2720.84C2630.76,2728.71 2617.87,2736.48 2604.92,2744.16C2485.78,2815.41 2298.38,2906.33 2157.32,2874.94C2226.31,2841.25 2304.29,2780.07 2346.45,2715.6C2361.3,2692.9 2371.23,2671.56 2382.88,2647.19C2258.37,2750.77 2111.14,2763.04 1957.68,2731.15C2053.29,2684.8 2126.97,2632.87 2200.83,2555.23C2296.77,2562.5 2387.76,2550.97 2476.78,2513.42C2374.22,2495.57 2320.57,2475.29 2236.13,2412.97C2275.27,2424.19 2476.68,2412.46 2498.08,2387.69ZM426.061,622.893C428.6,624.232 470.634,679.18 478.29,688.198C503.63,717.892 530.575,746.176 559.006,772.924C692.473,896.851 907.685,1046.62 1073.73,1124.44C1077.96,1136.69 1080.51,1149.76 1084.51,1162.49C1094.78,1195.15 1109.73,1221 1129.77,1248.47C1122.74,1247.38 1103.38,1238.25 1095.61,1234.64C891.171,1139.58 675.329,1017.89 536.737,835.525C490.779,775.052 452.099,693.216 426.061,622.893ZM1947.82,2886.29C1963.76,2891.55 1975.46,2904.89 1987.98,2915.9C2055.35,2975.17 2085.38,3069.45 2115.14,3151.26C2119.61,3163.53 2131.07,3200.03 2136.33,3210.32C2162.53,3261.6 2188.02,3313.05 2225.9,3356.49C2173.73,3350.39 2139.03,3343.13 2090.31,3319.54C2041.5,3301.45 1984.75,3261.02 1957.62,3215.89C1945.58,3195.86 1939.9,3174.5 1933.47,3152.26C1968.11,3185.23 2008.46,3194.42 2053.5,3204.49C1956.6,3116.13 1920.78,3013.93 1947.82,2886.29ZM531.71,1112.86C541.65,1114.76 591.993,1145.16 606.987,1152.09C670.554,1182.04 735.23,1209.58 800.876,1234.64C862.078,1257.97 924.529,1277.88 987.939,1294.28C1017.57,1301.92 1067.63,1311.68 1093.16,1319.61L1095.27,1320.29C1121.35,1370.67 1135.79,1396.26 1179.47,1432.33C1169.16,1432.86 1151.98,1430.39 1141.54,1428.87C900.951,1393.77 683.821,1308.37 531.71,1112.86ZM675.893,1449.82C723.939,1465.33 796.783,1477.77 847.108,1484.72C952.803,1499.76 1059.41,1507.49 1166.16,1507.88C1183.5,1537.81 1203.56,1568.47 1233.79,1587.79C1241.97,1593.01 1263.3,1601.8 1268.68,1607.87C1235.16,1610.86 1169.15,1610.45 1134.86,1608.78C991.424,1601.81 831.678,1572.86 715.764,1482.91C704.186,1473.92 685.481,1460.13 675.893,1449.82ZM1467.54,2864.62L1470.84,2864.83C1460.32,2874.28 1247.19,2936.14 1220.15,2942.47C1060.58,2979.81 879.926,3010.5 719.37,2961.52C691.464,2953.01 651.466,2930.56 627.154,2914C614.019,2903.97 600.773,2894.08 587.416,2884.34C632.808,2897.32 705.09,2902.5 753.334,2906.72C935.578,2923.49 1119.14,2919.51 1300.48,2894.84C1355.97,2886.93 1412.48,2875.1 1467.54,2864.62ZM2003.51,2400.81C1999.07,2403.3 1979.57,2406.79 1973.81,2407.52C1915.09,2415.02 1845.89,2393.26 1804.1,2350.69C1864.32,2379.52 1952.47,2392.96 2018.32,2388.01C2031.31,2386.37 2050.01,2383.42 2062.66,2382.95C2044.39,2389.97 2022.77,2397.2 2003.51,2400.81ZM3081.04,1611.01C3086.83,1615.92 3083.05,1623.43 3082.55,1630.52C3075.36,1731.41 3010.91,1804.37 2962.25,1887.79C2916.04,1967.01 2877.13,2049.14 2846.43,2135.62C2822.59,2131.15 2798.59,2127.49 2774.5,2124.64C2768.81,2124.59 2769.1,2124.67 2763.76,2122.74C2762.7,2116.29 2778.8,2081.73 2782.32,2073.56C2813,2001.88 2851.94,1934.03 2898.35,1871.39C2957.11,1792.41 3052.09,1701.81 3081.04,1611.01ZM1289.55,1732.77C1293.86,1731.67 1299.69,1730.62 1302.99,1733.86C1340.22,1770.36 1367.07,1785.93 1419.17,1795.89C1286.06,1828.73 1154.61,1836.04 1020.13,1808.52C951.807,1788.37 933.997,1778.01 874.343,1742.29C908.647,1747.9 942.183,1748.14 976.85,1748.94C1081.33,1751 1185.83,1745.6 1289.55,1732.77ZM1296.97,3030.28L1300.31,3030.28L1301.31,3031.8C1298.05,3033.84 1295.8,3035.1 1292.05,3036.35C1136.85,3087.65 904.849,3189.82 747.08,3118.38C736.41,3112.36 722.076,3106.53 710.558,3101.49C866.389,3116.57 1140.34,3069.34 1296.97,3030.28ZM1319,3131.95L1322.76,3132.07L1323.17,3134.04C1305.23,3147.42 1289.93,3161.52 1269.91,3174.54C1191.31,3225.61 1084.08,3282.55 990.336,3292.58C964.753,3295.32 935.427,3284.17 914.357,3282.58L911.5,3282.39C901.641,3278.98 895.944,3278.07 885.82,3276.15C917.614,3269.12 948.839,3267.08 981.865,3258.01C1089.24,3228.54 1218.98,3181.25 1319,3131.95ZM1381.67,1589.73C1386.11,1590.85 1384.15,1590.13 1387.7,1591.72C1431.67,1611.46 1476.2,1627.02 1522.28,1641.21C1551.05,1650.67 1582.86,1655.59 1610.63,1667.24C1626.84,1674.05 1636.92,1704.15 1648.4,1716.54C1656.79,1725.59 1665.52,1730.01 1675.92,1735.97C1666.29,1737.32 1665.3,1736.56 1655.97,1735.65C1572.05,1727.46 1495.57,1682.98 1430.42,1631.85C1417.76,1621.91 1391.41,1602.23 1381.67,1589.73ZM1406.32,1960.15L1411.04,1959.62L1410.42,1962.24C1392.41,1973.78 1361.87,1987.37 1342.38,1996.9C1334.32,2001.32 1324.25,2001.38 1316.15,2004.24C1247.76,2028.36 1169.86,2033.34 1100.8,2004.04C1091.52,2000.51 1080.31,1994.26 1071.3,1989.62C1155.72,2003.07 1323.21,1986.91 1406.32,1960.15ZM1475.27,2133.87L1477.42,2135.46C1471.67,2146.91 1417.26,2180.11 1403.37,2187.06C1347.91,2214.8 1287.93,2216.74 1229.51,2197.45C1219.5,2193.71 1209.56,2189.81 1199.67,2185.77C1290.89,2187.62 1390.7,2167.92 1475.27,2133.87ZM1776.8,2844.69C1784.02,2848.68 1780.12,2865.6 1779.48,2874.2C1777.92,2895.14 1780.07,2911.58 1783.84,2932.01C1791.45,2973.93 1805.54,3014.4 1825.59,3051.99C1830.04,3060.22 1846.11,3083.33 1847.43,3086.8L1845.27,3087.98L1841.11,3085.46C1782.29,3048.49 1751.08,3005.11 1756.66,2933.42C1759.2,2900.87 1769.02,2875.88 1776.8,2844.69ZM1673.18,2191.6C1683.24,2194.17 1700.67,2206.85 1711.51,2211.61C1766.52,2235.78 1824.49,2248.82 1884.44,2251.03C1894.66,2251.4 1909.88,2247.11 1918.3,2248.95C1917.65,2250.75 1913.91,2252.29 1911.53,2253.73C1854.28,2272.44 1786.74,2278.11 1733.04,2246.28C1714.89,2235.52 1683.73,2210 1673.18,2191.6ZM1422.82,3189.71C1423.49,3198.96 1409.61,3212.07 1403.88,3219.82C1358.03,3281.82 1288.3,3330.62 1209.26,3337.23L1210.43,3333.84C1268.78,3309.7 1379.48,3238.2 1422.82,3189.71ZM1572.87,2051.42C1576.19,2052.45 1575.62,2051.97 1578.02,2053.57C1623.41,2083.67 1676.82,2103.55 1730.38,2112.53C1747.6,2115.42 1761.85,2114.5 1777.1,2116.83L1777.7,2118.51L1773.5,2119.44C1695.68,2139.15 1615.3,2127.22 1572.87,2051.42ZM1573.73,2308.12L1573.76,2310.8C1566.28,2323.17 1532.83,2349.98 1519.1,2357.1C1478.91,2377.96 1436.98,2376.71 1394.99,2364.18C1391.1,2362.96 1392.29,2363.29 1388.87,2360.63C1392.59,2357.77 1437.4,2353.19 1447.59,2350.67C1490.02,2340.19 1534.65,2328.07 1573.73,2308.12ZM1509.45,1895.15C1516.71,1897.75 1533.69,1906.65 1542.32,1910.34C1577.85,1925.55 1616.81,1937.17 1655.71,1937.65C1661.04,1937.72 1661.53,1936.87 1666.41,1939.12L1666.1,1943.09C1601.72,1951.55 1553.2,1950.68 1509.45,1895.15Z" style="fill:rgb(0,153,185);" data-color="color-1"/>
    </g>
</svg>
