<?xml version="1.0" encoding="UTF-8" standalone="no"?>
<!DOCTYPE svg PUBLIC "-//W3C//DTD SVG 1.1//EN" "http://www.w3.org/Graphics/SVG/1.1/DTD/svg11.dtd">
<svg width="100%" height="100%" viewBox="0 0 894 881" version="1.1" xmlns="http://www.w3.org/2000/svg" xmlns:xlink="http://www.w3.org/1999/xlink" xml:space="preserve" xmlns:serif="http://www.serif.com/" style="fill-rule:evenodd;clip-rule:evenodd;stroke-linejoin:round;stroke-miterlimit:2;">
    <g transform="matrix(1,0,0,1,-61.4598,-32.539)">
        <path d="M349.299,568.6L335.345,558.867C323.906,550.888 310.273,539.507 298.953,530.642L235.656,481.162C208.293,459.778 180.704,438.683 152.836,417.839L61.46,347.373L93.214,348.878C104.489,349.413 120.139,348.942 131.795,348.953L210.764,348.998C211.491,348.998 370.17,349.009 406.676,349.011C409.726,339.587 413.988,328.287 416.826,320.25C423.791,300.444 430.648,280.599 437.398,260.712L480.266,134.883L480.276,134.856C488.916,109.954 498.201,82.658 507.68,58.157L517.591,32.539L526.469,58.533C527.842,62.553 548.825,120.425 550.705,125.916L601.463,277.683C609.774,302.192 618.634,325.942 626.607,350.509L846.924,350.131C862.289,350.003 877.698,350.12 893.071,350.171C904.268,350.208 917.189,350.254 928.312,350.153L955.423,349.907L934.965,367.699C934.965,367.699 911.965,387.7 903.07,395.087L903.045,395.108C886.337,408.799 869.392,422.198 852.219,435.3L791.424,482.366L719.1,538.421C710.991,544.743 702.452,552.062 694.065,558.452C702.282,580.026 775.999,824.517 793.224,872.64L805.496,906.926L777.435,883.716C771.025,878.414 763.514,873.88 756.979,868.621C733.526,849.749 708.819,832.809 684.616,815.017C655.101,793.32 627.498,770.812 596.253,751.456L571.019,737.542L560.835,737.018C548.386,736.376 532.288,736.877 519.646,736.919L519.634,736.919C498.966,736.938 477.959,736.855 456.847,736.771L435.621,751.193C424.856,758.507 413.913,767.477 403.291,775.337L326.415,831.891C326.415,831.891 280.295,865.645 280.295,865.645C273.097,870.955 263.804,877.433 257.221,883.239L223.583,912.911L241.432,871.761C244.111,865.584 246.79,858.921 249.07,852.587C264.41,809.973 283.895,768.558 299.717,726.193L304.176,714.254L321.71,668.985L333.165,670.768C339.048,671.683 343.566,672.804 348.783,670.808C349.824,668.099 350.111,664.376 350.384,660.418C351.1,650.005 350.2,638.067 350.167,630.869C350.007,610.114 349.717,589.36 349.299,568.6Z" style="fill:white;"/>
        <path d="M485.557,400.499C501.817,400.577 518.252,400.266 534.558,400.242C543.803,400.229 557.254,400.648 566.179,400.104C576.094,421.387 586.422,448.243 595.667,470.284L652.044,604.103L670.852,649.225C686.681,687.241 680.719,678.507 719.605,679.907C722.55,689.411 725.358,698.718 728.449,708.193C730.345,714.009 733.337,722.3 734.797,728.067C719.705,728.587 701.232,728.024 685.856,727.963C671.781,726.975 651.271,728.131 636.598,727.866C628.671,727.723 605.567,727.222 598.432,727.89C598.976,711.922 598.451,695.803 598.901,679.699C602.197,679.832 625.093,682.901 622.789,674.679C618.313,658.706 611.547,638.907 604.208,623.91L530.683,623.081C520.952,622.993 505.078,622.231 495.851,623.021C491.661,632.358 483.778,653.399 480.536,663.105C461.845,662.984 443.153,663.142 424.467,663.581C428.034,651.003 433.941,636.802 438.821,624.467L455.989,580.425L487.704,499.309C494.28,482.388 501.05,464.192 507.919,447.459L485.703,447.753L485.557,400.499ZM513.294,575.939C526.873,574.785 538.633,575.246 551.991,574.735C562.467,574.326 573.878,574.331 584.449,574.093C574.434,550.073 559.124,505.954 547.628,480.174C547.209,479.982 546.789,479.789 546.37,479.597C538.386,506.019 527.116,531.854 518.811,558.217C516.952,564.119 515.118,570.027 513.294,575.939ZM408.003,423.217C417.816,422.996 428.173,423.147 438.029,423.132C437.99,436.913 438.401,450.917 438.446,464.766C430.19,463.996 417.094,461.391 415.389,472.496C412.816,489.255 413.862,508.552 413.936,525.505L414.917,626.632C415.169,643.148 416.668,661.646 415.821,678.091C445.106,677.201 476.301,678.453 505.359,677.307C515.785,667.832 517.862,658.606 522.492,645.367C535.123,644.633 548.365,645.746 561.133,644.987C561.591,671.628 562.2,700.46 561.35,727.031C548.735,726.381 532.423,726.876 519.625,726.919C457.965,726.975 393.285,726.125 331.793,727.075C331.063,713.441 331.527,694.656 331.627,680.649C340.791,682.075 347.456,683.137 355.978,678.466C362.673,668.921 360.22,643.09 360.167,630.802C359.951,602.887 359.503,574.973 358.821,547.065C358.34,523.482 358.235,498.873 357.011,475.309C356.417,463.869 345.257,464.136 336.377,465.971C335.663,453.218 336.097,437.033 336,423.94C360.249,423.403 383.512,424.13 408.003,423.217Z" style="fill:rgb(0,39,79);"/>
        <path d="M517.006,61.765C518.379,65.786 539.364,123.665 541.233,129.122L591.986,280.876C601.063,307.645 610.8,333.504 619.311,360.522L846.973,360.131C862.311,360.003 877.692,360.12 893.038,360.171C904.274,360.208 917.24,360.254 928.403,360.153C928.403,360.153 905.528,380.047 896.706,387.373C880.079,400.999 863.215,414.333 846.124,427.372L785.3,474.46L712.961,530.527C702.889,538.379 692.154,547.803 681.881,554.986C691.757,577.958 697.576,605.915 706.123,629.605C710.198,640.9 712.894,653.374 716.986,665.007C709.045,665.019 696.166,663.968 692.222,655.86C686.61,644.319 682.025,632.017 677.222,620.092C664.935,589.617 653.212,558.917 642.058,528.009C680.19,498.824 718.112,469.368 755.822,439.642C769.946,428.539 783.805,417.012 798.072,406.101C727.978,405.152 656.46,406.43 586.275,406.411C579.525,385.478 572.502,364.634 565.207,343.884C554.289,314.327 543.787,283.361 533.183,253.53C529.983,244.43 526.718,235.353 523.388,226.3C520.901,219.669 517.959,212.601 515.837,205.917C509.196,226.434 501.825,245.322 495.074,265.384L448.617,406.616C375.732,407.236 302.845,407.38 229.959,407.049C236.685,412.607 245.539,418.779 252.68,424.421L310.062,470.242C319.319,477.644 332.428,487.647 340.871,495.483C340.163,511.811 341.165,533.669 341.066,550.665C329.763,542.781 316.301,531.526 305.116,522.767L241.814,473.283C214.395,451.855 186.75,430.717 158.884,409.875L92.74,358.867C104.151,359.408 119.989,358.942 131.789,358.953L210.761,358.998L414.103,359.012C416.817,349.007 422.694,333.667 426.257,323.574C433.235,303.731 440.105,283.85 446.866,263.932L489.723,138.134C498.326,113.34 507.568,86.16 517.006,61.765ZM685.856,727.963C701.232,728.024 719.705,728.587 734.797,728.067C751.897,776.698 766.529,827.734 783.809,876.01C777.365,870.68 769.818,866.117 763.248,860.83C739.681,841.867 714.859,824.838 690.539,806.96C660.809,785.105 632.992,762.452 601.519,742.955C608.951,743.94 625.91,743.539 633.936,743.525L692.439,743.49C690.323,738.282 688.129,733.105 685.856,727.963ZM309.085,729.692C311.133,731.086 320.773,740.973 322.981,743.198L397.133,743.347C404.711,743.346 423.687,743.861 430.001,742.922C419.129,750.309 408.07,759.36 397.354,767.29L320.499,823.829L274.376,857.585C266.959,863.057 257.392,869.754 250.606,875.74C253.368,869.372 256.129,862.503 258.479,855.974C273.806,813.397 293.277,772.02 309.085,729.692Z" style="fill:rgb(233,117,16);"/>
    </g>
</svg>
