<svg width="100%" height="100%" viewBox="0 0 736 823" version="1.1" xmlns="http://www.w3.org/2000/svg" xmlns:xlink="http://www.w3.org/1999/xlink" xml:space="preserve" xmlns:serif="http://www.serif.com/" style="fill-rule:evenodd;clip-rule:evenodd;stroke-linejoin:round;stroke-miterlimit:2;">
    <g transform="matrix(1,0,0,1,-134.017,-100.081)">
        <path d="M493.917,100.177C509.88,99.07 520.391,107.553 523.659,123.207C524.842,129.019 524.67,135.099 524.575,141.015C524.341,155.46 524.767,170.113 524.024,184.529C513.612,193.13 502.697,193.139 496.963,208.343C498.328,214.089 503.675,224.198 506.472,229.825L520.055,257.163C539.772,297.121 558.656,336.442 579.694,375.858C599.873,337.829 618.549,299.728 635.922,260.342C639.297,252.69 643.405,244.352 645.993,236.456C647.521,231.855 648.493,227.089 648.887,222.257C649.386,215.542 647.035,204.155 642.36,199.309C633.734,190.367 612.682,191.217 601.2,190.652C599.478,190.567 598.149,190.324 596.989,189.028C596.1,181.744 595.692,105.221 597.336,102.229C600.153,100.905 631.635,101.464 636.748,101.471L700.013,101.478L868.895,101.529C869.238,111.581 868.999,122.848 869,132.971L868.964,189.411C863.412,190.177 857.334,189.873 851.676,190.373C816.592,193.473 796.903,217.862 780.868,246.35C747.185,306.193 718.227,368.197 687.904,429.696L647.989,509.685C644.418,516.902 640.328,523.708 636.716,530.88C635.623,533.049 635.185,535.447 635.159,537.875C634.914,560.988 635.053,584.115 635,607.229C635.362,631.001 633.752,655.137 637.503,678.702C638.569,685.395 642.179,694.122 646.985,698.997C660.13,712.333 683.469,709.919 700.783,710.097C701.468,718.591 701.018,734.332 701.018,743.388L700.915,802.35C639.153,805.217 612.816,812.877 561.124,847.001C507.867,883.3 462.703,920.503 394.855,922.83C359.463,924.299 322.253,916.298 295.851,891.413C257.731,855.483 252.662,787.489 289.224,748.86C302.363,734.977 319.871,726.746 339.244,726.987C377.214,727.461 396.739,752.712 397.04,789.117C398.017,788.695 398.976,788.229 399.913,787.723C427.581,772.699 435.48,740.406 436.502,711.005C438.534,652.558 436.751,593.649 436.612,535.21C436.608,533.601 426.592,514.855 425.149,512.095L401.061,465.942C381.546,427.183 361.828,388.526 341.909,349.973C333.283,333.264 324.407,315.455 315.32,299.072C313.795,302.122 312.017,305.04 310.008,307.796C296.823,325.543 277.112,337.306 255.233,340.484C227.935,344.791 200.058,337.833 177.986,321.203C154.923,304.098 138.866,273.705 135.155,245.574C127.53,187.779 158.767,135.652 212.759,114.621C284.993,86.485 355.586,117.883 428.985,118.973C440.381,119.14 457.036,116.75 467.32,111.475C477.399,106.304 482.243,101.793 493.917,100.177Z" style="fill:rgb(251,243,228);fill-rule:nonzero;"/>
        <path d="M492.839,114.583C512.984,111.876 510.434,132.568 510.419,145.691L510.409,177.541C506.788,179.086 503.209,180.73 499.678,182.469C491.422,186.597 485.604,191.212 482.649,200.426C480.817,206.137 480.703,208.491 482.551,214.19C485.461,223.167 489.829,231.412 494.073,239.798C498.92,249.291 503.709,258.813 508.442,268.364C531.225,315.192 554.744,361.658 578.989,407.745C597.643,374.8 661.197,254.153 663.302,220.41C663.942,210.15 663.492,198.086 656.329,190.129C646.176,178.85 625.264,176.496 611.03,175.949L611.048,115.974L854.447,115.829L854.498,175.902C814.655,176.99 788.904,202.359 770.486,234.904C759.969,253.488 750.301,271.995 740.478,290.929C717.405,335.814 695.007,381.043 673.292,426.6C661.997,449.615 650.535,472.549 638.909,495.398C633.629,505.732 628.145,516.764 622.562,526.881C619.67,532.12 620.682,548.2 620.682,555.272L620.68,597.055L620.72,639.612C620.853,660.759 620.588,692.312 635.07,709.187C645.69,721.562 670.773,724.382 686.476,725.066L686.498,787.917C675.371,789.355 664.453,789.568 653.184,791.657C617.025,798.36 587.679,811.566 557.626,831.97C501.947,868.581 454.059,910.661 382.072,908.338C352.51,907.384 323.638,899.82 303.016,877.266C286.673,859.332 278.115,835.645 279.22,811.407C280.191,790.211 287.342,770.031 303.548,755.488C322.217,738.737 353.89,735.177 371.519,755.628C384.117,770.243 382.364,785.869 380.948,803.772C391.019,805.332 401.538,804.059 410.395,798.871C455.957,772.182 451.481,708.016 451.48,662.718L451.479,584.264L451.534,549.042C451.541,546.489 451.735,532.495 451.177,530.887C448.461,523.059 442.202,511.957 438.29,504.481L413.067,456.288L353.267,341.258C339.79,315.336 325.866,287.749 311.285,262.483C306.456,291.957 294.248,313.928 263.885,323.28C213.879,338.682 168.246,307.332 153.364,259.068C145.054,232.302 147.777,203.327 160.929,178.579C169.199,163.004 180.521,150.423 195.085,140.391C245.218,106.279 310.088,119.267 366.11,127.493C402.285,132.804 443.152,140.747 477.415,122.754C483.524,119.546 485.525,116.848 492.839,114.583ZM419.042,826.447C449.321,810.19 463.587,786.633 471.708,753.55C477.376,730.461 477.13,708.78 477.151,685.23L477.163,639.82C477.166,602.369 477.189,564.891 477.227,527.442C477.23,524.279 477.031,522.006 475.589,519.113C467.807,503.502 459.514,487.871 451.459,472.409L401.342,376.984L357.108,292.814C353.964,286.781 350.819,280.706 347.661,274.683C324.621,230.745 304.238,183.222 246.526,183.95C251.688,181.291 265.213,181.929 271.228,182.313C293.151,183.713 314.014,195.558 327.286,212.818C342.672,232.829 354.317,256.138 366.029,278.372C380.035,304.711 393.84,331.155 407.444,357.704C427.596,396.745 449.306,434.984 469.286,474.124C473.055,481.506 490.02,511.891 491.073,516.84C492.416,523.152 491.552,530.987 491.543,537.503L491.49,577.545L491.499,663.433C491.501,695.144 493.247,727.982 483.484,758.537C474.633,786.236 456.916,809.794 430.486,822.535C427.46,824.01 422.407,826.366 419.042,826.447Z" style="fill:rgb(1,22,32);" data-color="color-2"/>
        <path d="M246.526,183.95C233.348,185.753 225.375,186.982 216.804,198.477C208.524,209.582 206.259,223.457 207.874,236.988C209.341,249.278 215.342,253.811 225.923,258.565C223.198,247.308 223.651,243.36 228.053,232.89C241.174,201.689 279.356,214.488 285.87,243.016C288.849,255.893 286.542,269.426 279.464,280.588C272.722,291.04 262.015,298.298 249.808,300.69C234.484,303.838 218.186,301.456 205.037,292.761C188.634,282.047 177.215,265.201 173.338,245.997C165.067,204.518 185.02,170.251 223.168,153.48C230.472,150.269 236.935,149.252 244.474,147.514C310.329,132.331 375.696,164.086 441.766,158.108C455.384,156.875 472.262,151.396 484.782,146.022C485.121,150.895 485.259,154.688 485.125,159.59C476.627,165.659 467.269,171.821 461.203,180.481C441.736,208.274 469.425,246.812 482.281,271.701L521.099,348.505L559.972,425.696L570.015,445.569C572.022,449.555 575.139,456.589 578.199,459.561C580.618,459.74 581.589,457.949 582.707,455.883C588.815,444.591 594.583,432.916 600.372,421.472C617.145,388.595 633.498,355.506 649.429,322.213C660.03,300.347 670.956,278.03 679.891,255.423C690.336,228.995 695.717,192.738 673.409,170.682C662.7,160.094 647.822,157.592 633.952,153.781C633.902,149.345 633.802,144.897 633.991,140.466C674.65,139.688 717.52,140.376 758.319,140.356L804.39,140.335C811.002,140.332 822.725,139.973 828.894,140.5C829.07,144.985 829.128,149.474 829.069,153.962C812.11,160.001 799.043,165.372 785.13,177.827C755.02,204.781 735.771,246.878 716.501,282.045C707.067,299.262 696.309,319.664 688.005,337.124L623.922,468.993L605.347,507.069C603.773,510.289 596.437,524.299 596.174,526.63C594.863,538.286 595.523,555.49 595.537,567.52L595.658,627.036C595.916,664.367 593.746,720.132 633.911,738.545C642.939,742.683 652.325,744.693 661.958,746.855C662.035,752.569 662.269,759.049 662.009,764.7C654.468,766.118 647.52,766.982 639.959,768.645C616.238,773.995 593.324,782.443 571.807,793.773C558.07,801.167 545.679,810.026 532.832,818.991C489.451,849.201 447.114,882.45 391.788,884.761C354.624,886.313 311.953,868.351 303.856,827.58C299.396,805.119 307.213,773.565 333.063,767.55C344.193,765.501 357.604,769.562 359.444,782.233C360.615,790.301 356.844,793.993 355.17,800.867C347.71,831.515 377.334,834.895 398.754,831.981C405.739,831.076 412.565,829.214 419.042,826.447C422.407,826.366 427.46,824.01 430.486,822.535C456.916,809.794 474.633,786.236 483.484,758.537C493.247,727.982 491.501,695.144 491.499,663.433L491.49,577.545L491.543,537.503C491.552,530.987 492.416,523.152 491.073,516.84C490.02,511.891 473.055,481.506 469.286,474.124C449.306,434.984 427.596,396.745 407.444,357.704C393.84,331.155 380.035,304.711 366.029,278.372C354.317,256.138 342.672,232.829 327.286,212.818C314.014,195.558 293.151,183.713 271.228,182.313C265.213,181.929 251.688,181.291 246.526,183.95Z" style="fill:rgb(200,152,42);" data-color="color-1"/>
    </g>
</svg>
