<svg width="100%" height="100%" viewBox="0 0 655 807" version="1.1" xmlns="http://www.w3.org/2000/svg" xmlns:xlink="http://www.w3.org/1999/xlink" xml:space="preserve" xmlns:serif="http://www.serif.com/" style="fill-rule:evenodd;clip-rule:evenodd;stroke-linejoin:round;stroke-miterlimit:2;">
    <g transform="matrix(1,0,0,1,-161.028,-97.3055)">
        <path d="M286.726,97.796C292.219,97.147 301.345,97.332 307.117,97.325L339.701,97.323L446.057,97.334L801.005,97.332L801.01,401.104L682.753,401.01C683.344,425.393 682.845,452.009 682.846,476.487L682.868,621.843L583.279,621.807C583.451,598.227 585.357,573.461 567.395,554.39C556.404,542.72 542.067,544.148 527.379,544.185L527.389,753.026L584.974,753.015C616.093,752.955 646.21,747.921 668.844,724.655C698.374,694.301 708.404,642.86 709.849,601.804C710.313,588.603 709.978,572.874 709.944,559.53L816.005,559.984L815.997,568.25L816.021,903.949L432.591,903.965L312.365,903.961C280.586,903.959 251.779,904.472 219.984,902.354L219.957,765.02C254.047,764.942 295.554,770.066 297.556,725.823C298.223,711.085 298,696.335 297.991,681.615L297.989,598.682L297.995,322.624C263.122,332.135 225.733,329.496 197.733,305.736C149.484,264.793 150.563,189.77 190.657,143.654C216.094,114.396 249.503,101.293 286.726,97.796ZM527.378,234.985L527.388,406.183C544.053,406.152 560.672,408.18 573.441,395.268C588.112,380.433 586.481,359.73 586.391,340.56L607.625,340.625L672.076,340.561C670.721,312.352 660.719,275.106 639.303,255.94C615.511,234.649 595.306,234.945 566.081,234.953L527.378,234.985Z" style="fill:white;"/>
        <path d="M283.264,112.711C287.235,112.287 296.278,112.481 300.456,112.482L333.037,112.511L439.698,112.513L785.975,112.485L785.979,385.319C755.677,384.428 720.343,385.051 689.879,385.235C686.854,328.135 685.148,258.963 626.143,229.274C605.405,218.84 583.821,220.418 561.435,220.422L511.991,220.456L511.989,420.404L535.02,420.413C552.577,420.453 563.978,420.921 579.571,409.923C591.811,401.243 597.879,385.561 600.417,371.29C601.299,366.331 600.777,360.461 601.671,355.082C622.591,354.439 646.843,355 668.007,354.999L668.012,606.954C645.707,606.973 621.687,607.534 599.56,606.259C597.672,581.632 595.098,562.715 576.783,543.458C564.728,530.785 550.325,529.981 533.809,529.967L511.99,529.991L512.003,767.911L573.375,767.895L574.219,767.9C613.417,768.031 648.731,766.132 678.369,736.523C718.581,696.35 725.647,628.57 725.516,574.503L801.489,574.505L801.487,888.071L234.52,887.518L234.478,779.328L238.692,779.35C284.173,779.429 312.662,767.17 313.003,716.669C313.082,704.96 312.996,692.869 312.988,681.138L312.988,594.363L312.956,301.539C298.903,307.843 290.326,310.809 274.938,312.59C225.019,318.948 178.465,281.183 175.389,230.56C171.636,168.781 223.486,117.317 283.264,112.711ZM294.42,183.005C277.883,183.039 265.52,185.461 253.044,197.577C249.176,201.332 245.901,207.287 249.623,212.249C252.005,213.405 260.777,211.185 264.256,211.298C294.811,212.282 305.457,240.514 292.761,265.949C281.359,288.793 254.363,291.735 233.452,280.656C197.566,261.644 191.07,218.937 210.313,185.406C222.233,164.412 241.453,148.713 264.668,141.518C283.178,136.064 302.012,136.901 321.103,136.907L361.353,136.925L470.081,136.937L662.638,136.929C695.44,136.928 729.388,136.498 762.124,136.978L762.102,360.273C747.436,360.29 730.744,360.652 716.185,360.118C715.593,351.947 715.117,342.758 714.036,334.702C709.912,303.973 700.193,271.686 682.574,245.91C663.335,217.766 636.81,201.937 603.749,195.768C599.293,195.408 594.466,194.166 590.115,194.07C566.218,193.545 541.664,194.265 517.827,193.902C478.958,193.31 482.694,216.895 482.774,246.606L482.81,286.855L482.961,386.241C483.024,405.843 483.365,426.171 483.04,445.682C489.377,444.432 498.697,444.935 505.38,444.964L537.513,445.023C544.247,445.02 553.579,445.306 559.937,444.321C577.715,441.569 596.11,432.587 606.6,417.542C614.677,405.958 617.587,393.103 620.196,379.544L644.157,379.637L644.092,582.448L619.626,582.397C615.934,556.386 607.942,535.361 586.517,519.045C557.468,496.922 517.948,505.764 482.94,503.124L482.837,684.975L482.815,741.023C482.791,766.118 477.878,793.08 513.023,793.865C521.881,794.063 530.811,793.982 539.682,793.96L590.246,793.897C631.745,793.61 667.631,781.343 697.018,751.291C731.824,715.697 746.173,647.204 747.971,599.186L777.093,599.209L777.101,864.027L258.842,864.048C258.998,845.735 258.888,827.421 258.513,809.111C263.563,808.184 270.192,807.92 275.018,806.866C288.893,803.584 306.03,798.441 317.166,789.41C343.246,768.261 342.588,730.794 342.591,700.644L342.577,654.034L342.583,497.97L342.588,325.825L342.601,271.748C342.593,233.291 343.841,188.4 294.42,183.005Z" style="fill:rgb(0,23,33);" data-color="color-2"/>
        <path d="M294.42,183.005C277.883,183.039 265.52,185.461 253.044,197.577C249.176,201.332 245.901,207.287 249.623,212.249C252.005,213.405 260.777,211.185 264.256,211.298C294.811,212.282 305.457,240.514 292.761,265.949C281.359,288.793 254.363,291.735 233.452,280.656C197.566,261.644 191.07,218.937 210.313,185.406C222.233,164.412 241.453,148.713 264.668,141.518C283.178,136.064 302.012,136.901 321.103,136.907L361.353,136.925L470.081,136.937L662.638,136.929C695.44,136.928 729.388,136.498 762.124,136.978L762.102,360.273C747.436,360.29 730.744,360.652 716.185,360.118C717.818,357.388 719.246,352.182 719.554,348.973C724.327,299.283 707.11,238.915 662.089,211.998C647.481,203.264 630.678,197.394 613.829,195.7C610.674,195.383 594.466,194.166 590.115,194.07C566.218,193.545 541.664,194.265 517.827,193.902C478.958,193.31 482.694,216.895 482.774,246.606L482.81,286.855L482.961,386.241C483.024,405.843 483.365,426.171 483.04,445.682C489.377,444.432 498.697,444.935 505.38,444.964L537.513,445.023C544.247,445.02 553.579,445.306 559.937,444.321C577.715,441.569 596.11,432.587 606.6,417.542C614.677,405.958 617.587,393.103 620.196,379.544L644.157,379.637L644.092,582.448L619.626,582.397C615.934,556.386 607.942,535.361 586.517,519.045C557.468,496.922 517.948,505.764 482.94,503.124L482.837,684.975L482.815,741.023C482.791,766.118 477.878,793.08 513.023,793.865C521.881,794.063 530.811,793.982 539.682,793.96L590.246,793.897C631.745,793.61 667.631,781.343 697.018,751.291C731.824,715.697 746.173,647.204 747.971,599.186L777.093,599.209L777.101,864.027L258.842,864.048C258.998,845.735 258.888,827.421 258.513,809.111C266.678,812.627 286.691,810.798 295.301,808.993C313.685,805.272 330.969,795.884 341.253,779.701C357.37,754.34 356.636,724.633 356.638,695.94L356.625,643.387L356.637,474.625L356.651,310.848L356.687,265.573C356.7,249.37 356.898,235.885 354.13,219.739C349.508,192.777 320.392,177.388 294.42,183.005Z" style="fill:rgb(207,155,49);" data-color="color-1"/>
    </g>
</svg>
