<?xml version="1.0" encoding="UTF-8" standalone="no"?>
<!DOCTYPE svg PUBLIC "-//W3C//DTD SVG 1.1//EN" "http://www.w3.org/Graphics/SVG/1.1/DTD/svg11.dtd">
<svg width="100%" height="100%" viewBox="0 0 791 874" version="1.1" xmlns="http://www.w3.org/2000/svg" xmlns:xlink="http://www.w3.org/1999/xlink" xml:space="preserve" xmlns:serif="http://www.serif.com/" style="fill-rule:evenodd;clip-rule:evenodd;stroke-linejoin:round;stroke-miterlimit:2;">
    <g transform="matrix(1,0,0,1,-102.449,-311.726)">
        <path d="M589.085,647.908L590.819,648.375C593.328,651.587 592.425,657.483 594.462,660.984C596.254,664.064 600.577,666.433 602.528,669.385C604.235,671.968 601.863,675.03 599.358,675.958L598.306,675.055L598.383,671.99C585.267,667.258 562.522,657.614 589.085,647.908ZM750,847.304C754.28,850.63 755.694,856.538 757.416,861.637C754.843,860.993 751.823,860.017 749.239,859.248L739.556,855.53C743.513,851.987 745.606,850.253 750,847.304ZM807.078,848.814C807.776,852.292 806.11,857.59 805.221,861.199L796.961,859.867L796.446,859.259C798.672,856.337 804.185,851.505 807.078,848.814Z" style="fill:rgb(251,245,238);"/>
        <path d="M499.431,550.093C506.078,549.621 513.659,550.216 520.212,550.28C576.96,550.827 632.087,570.416 664.631,619.154C666.806,622.411 668.255,625.139 669.307,628.947C672.206,639.447 664.088,643.025 659.641,650.158C659.468,654.327 662.816,655.534 666.54,656.246C704.289,663.459 742.687,668.11 780.446,675.207C779.61,676.653 778.83,678.131 778.108,679.637C769.626,697.484 781.499,741.518 806.529,720.335C809.513,717.809 814.156,715.297 817.726,713.753C813.617,725.974 811.456,729.988 804.828,741.292C815.584,752.037 823.956,752.2 838.149,749.97C820.804,809.09 781.619,801.057 734.898,787.683C696.593,776.718 645.082,758.64 606.16,769.464C569.508,779.657 550.234,823.685 534.862,854.004C562.016,829.615 584.626,828.17 618.841,834.064C639.836,837.843 660.545,843.07 680.819,849.707C710.344,859.537 739.123,872.734 769.442,879.771C781.824,882.645 792.039,882.515 804.341,879.229C803.122,882.754 801.262,887.764 799.247,890.837C770.095,936.67 711.33,917.693 669.276,904.403C619.54,888.686 573.519,880.602 521.802,893.654C454.122,910.734 417.434,952.371 382.888,1010.62C379.998,979.315 380.733,959.021 389.589,928.415C369.07,958.697 355.907,988.408 351.503,1025.1L344.585,1019.48C300.044,984.163 255.515,944.197 225.07,895.701C222.943,892.313 214.515,879.138 213.851,875.851C209.207,852.863 221.891,827.985 232.059,809.351C219.15,820.729 201.828,833.789 188.138,844.552C201.382,808.684 233.223,760.497 253.266,727.748C282.597,755.472 307.182,782.486 325.63,818.59C347,860.414 395.397,842.684 419.678,813.092C447.007,779.785 446.498,753.273 435.378,713.578C427.505,685.473 417.568,644.865 432.373,618.216C425.74,622.133 419.267,627.138 414.676,633.417C397.201,657.319 411.528,699.179 415.43,726.33C419.445,750.606 413.62,773.595 398.846,793.306C389.138,806.256 368.837,825.45 351.943,811.732C343.979,805.266 336.932,792.511 331.141,783.705C298.549,734.145 238.03,697.299 230.318,634.342C261.567,611.974 352.99,551.584 389.228,554.304C422.538,556.805 449.689,584.798 469.978,608.717C464.466,586.377 456.837,572.653 439.549,557.396C461.017,552.402 477.601,550.974 499.431,550.093ZM750.859,761.773C753.908,760.246 757.619,761.465 759.169,764.502C760.718,767.54 759.526,771.259 756.498,772.829C753.44,774.416 749.674,773.209 748.109,770.141C746.544,767.072 747.778,763.316 750.859,761.773ZM772.341,777.495C775.539,776.287 779.111,777.892 780.332,781.083C781.553,784.275 779.963,787.853 776.776,789.087C773.569,790.328 769.965,788.728 768.736,785.517C767.508,782.306 769.124,778.709 772.341,777.495ZM794.692,764.715C797.901,763.849 801.225,765.653 802.246,768.815C803.268,771.977 801.629,775.384 798.52,776.559C796.369,777.372 793.945,776.935 792.214,775.422C790.482,773.909 789.725,771.565 790.244,769.326C790.762,767.086 792.472,765.314 794.692,764.715ZM772.261,749.738C775.384,748.322 779.066,749.69 780.507,752.802C781.948,755.914 780.608,759.605 777.507,761.07C774.371,762.551 770.629,761.193 769.172,758.047C767.715,754.9 769.102,751.17 772.261,749.738ZM558.581,618.317C594.787,616.619 615.048,649.595 633.359,647.919C635.763,647.699 637.902,646.724 639.326,644.728C643.381,639.047 640.59,630.027 639.379,623.8C646.407,630.735 655.042,644.014 645.776,653.275C639.759,659.289 631.451,659.387 623.425,659.393C617.339,668.563 618.963,679.954 604.791,680.105C600.533,678.777 599.941,679.434 595.863,679.026C583.955,677.747 570.627,674.266 562.375,665.035C557.354,659.419 558.925,653.144 562.566,647.478C565.916,642.266 569.734,639.004 574.553,635.244C552.295,627.849 531.261,634.942 510.619,643.266C522.68,626.665 538.519,619.692 558.581,618.317Z" style="fill:rgb(251,180,5);"/>
        <path d="M123.032,331.589L493.965,331.585L606.039,331.565C627.295,331.564 656.169,330.735 676.459,333.053C702.952,336.062 728.648,343.996 752.225,356.446C801.966,382.917 838.957,428.288 854.863,482.333C874.048,545.498 864.851,609.526 833.998,667.154C827.423,664.973 821.58,663.687 814.816,662.334C830.545,634.55 840.208,609.676 843.992,577.809C857.513,463.934 787.901,366.622 673.097,352.132C665.448,350.577 633.585,351.026 624.417,351.026L525.294,351.052L141.845,351.08L141.928,476.003L189.098,475.959L189.103,642.085L189.104,651.991L189.158,752.652C189.166,760.343 189.52,787.967 188.623,793.63C188.047,797.266 172.909,827.79 170.235,833.065L170.048,495.241L123,495.254L123.032,331.589ZM187.304,870.715C188.578,870.858 187.993,870.66 188.987,871.517C189.667,887.59 189.076,906.761 189.077,923.125L189.104,1023.03L141.709,1023.06L141.719,1146.58L430.736,1146.55L430.787,1023.03L412.979,1023.02C417.252,1016.08 421.881,1009.37 426.847,1002.91L449.861,1002.93L449.879,1021.01L449.886,1165.43L123.005,1165.4L122.989,1002.94L170.2,1002.94L170.175,881.355C175.514,877.244 181.253,873.68 187.304,870.715ZM511.636,921.581C514.288,922.939 640.608,1124.91 653.968,1146.52L852.86,1146.56L852.881,1023.01L799.889,1023.04C781.937,994.074 762.681,964.801 744.273,936.054C752.066,936.085 758.024,935.663 765.818,935.01L777.83,953.691C788.263,969.01 799.446,987.245 809.574,1002.99L872.235,1002.96L872.256,1165.41L643.801,1165.4L496.512,931.74C501.834,927.701 505.956,925.098 511.636,921.581ZM360.706,476.008L543.305,475.934L595.495,475.939C620.823,475.95 637.996,473.736 660.044,489.153C677.214,501.167 688.877,519.536 692.444,540.182C696.484,564.847 688.872,581.972 675.082,601.387C671.349,596.605 667.144,591.923 663.155,587.332C665.104,584.456 666.864,581.063 668.548,577.991C683.476,543.31 668.695,504.56 629.422,496.674C618.321,494.444 605.676,495.199 594.299,495.191L549.11,495.182L379.939,495.262C380.238,508.701 380.008,523.012 380.023,536.52C373.425,537.826 366.953,539.706 360.683,542.14L360.706,476.008Z" style="fill:rgb(251,245,238);"/>
        <path d="M102.464,311.835L491.184,311.884L605.634,311.883C628.261,311.879 657.221,311 678.944,313.45C706.713,316.492 733.703,324.526 758.614,337.166C813.23,365.111 854.371,413.768 872.842,472.261C894.386,538.558 886.052,610.253 854.634,671.97C859.582,673.525 862.146,674.287 866.473,677.157C871.871,680.737 874.241,686.288 875.257,692.617C877.154,704.438 873.961,718.228 868.524,728.798C867.182,731.408 861.607,741.269 861.086,743.322C856.556,761.167 853.155,776.299 842.226,791.803C805.502,843.894 730.605,802.13 682.817,793.491C661.727,789.678 648.188,788.163 626.658,791.721C663.364,803.444 702.718,823.289 740.301,837.343C748.087,820.36 755.918,829.967 763.343,840.722C788.341,840.579 791.813,839.458 813.226,828.11C820.571,829.809 819.696,852.978 819.358,859.554C832.155,871.181 822.696,889.584 815.137,901.42C807.719,913.037 797.503,921.265 785.462,927.664L821.151,983.06L892.736,982.942L892.725,1130.83L892.73,1185.24L631.857,1185.25C580.94,1105.09 530.61,1024.56 480.871,943.666C465.865,956.764 455.288,967.723 442.207,982.958L470.427,983.017L470.401,1185.24L102.502,1185.25L102.472,983.011L149.64,983.008L149.642,515.303L102.449,515.344C103.528,448.743 102.513,378.613 102.464,311.835ZM360.706,476.008L360.683,542.14C366.953,539.706 373.425,537.826 380.023,536.52C380.008,523.012 380.238,508.701 379.939,495.262L549.11,495.182L594.299,495.191C605.676,495.199 618.321,494.444 629.422,496.674C668.695,504.56 683.476,543.31 668.548,577.991C666.864,581.063 665.104,584.456 663.155,587.332C667.144,591.923 671.349,596.605 675.082,601.387C688.872,581.972 696.484,564.847 692.444,540.182C688.877,519.536 677.214,501.167 660.044,489.153C637.996,473.736 620.823,475.95 595.495,475.939L543.305,475.934L360.706,476.008ZM400.368,515.31L400.322,537.297C408.488,538.926 412.897,540.485 420.399,544.115C463.053,529.69 504.717,527.961 549.259,533.588C587.357,538.401 615.22,547.242 645.265,571.353L647.463,572.727C649.927,571.631 650.906,569.638 651.856,567.189C655.688,557.312 655.436,545.275 651.14,535.587C647.604,527.615 640.838,521 632.582,517.994C618.956,513.032 552.862,515.283 534.575,515.285L400.368,515.31ZM187.304,870.715C181.253,873.68 175.514,877.244 170.175,881.355L170.2,1002.94L122.989,1002.94L123.005,1165.4L449.886,1165.43L449.879,1021.01L449.861,1002.93L426.847,1002.91C421.881,1009.37 417.252,1016.08 412.979,1023.02L430.787,1023.03L430.736,1146.55L141.719,1146.58L141.709,1023.06L189.104,1023.03L189.077,923.125C189.076,906.761 189.667,887.59 188.987,871.517C187.993,870.66 188.578,870.858 187.304,870.715ZM511.636,921.581C505.956,925.098 501.834,927.701 496.512,931.74L643.801,1165.4L872.256,1165.41L872.235,1002.96L809.574,1002.99C799.446,987.245 788.263,969.01 777.83,953.691L765.818,935.01C758.024,935.663 752.066,936.085 744.273,936.054C762.681,964.801 781.937,994.074 799.889,1023.04L852.881,1023.01L852.86,1146.56L653.968,1146.52C640.608,1124.91 514.288,922.939 511.636,921.581ZM750,847.304C745.606,850.253 743.513,851.987 739.556,855.53L749.239,859.248C751.823,860.017 754.843,860.993 757.416,861.637C755.694,856.538 754.28,850.63 750,847.304ZM807.078,848.814C804.185,851.505 798.672,856.337 796.446,859.259L796.961,859.867L805.221,861.199C806.11,857.59 807.776,852.292 807.078,848.814ZM123.032,331.589L123,495.254L170.048,495.241L170.235,833.065C172.909,827.79 188.047,797.266 188.623,793.63C189.52,787.967 189.166,760.343 189.158,752.652L189.104,651.991L189.103,642.085L189.098,475.959L141.928,476.003L141.845,351.08L525.294,351.052L624.417,351.026C633.585,351.026 665.448,350.577 673.097,352.132C787.901,366.622 857.513,463.934 843.992,577.809C840.208,609.676 830.545,634.55 814.816,662.334C821.58,663.687 827.423,664.973 833.998,667.154C864.851,609.526 874.048,545.498 854.863,482.333C838.957,428.288 801.966,382.917 752.225,356.446C728.648,343.996 702.952,336.062 676.459,333.053C656.169,330.735 627.295,331.564 606.039,331.565L493.965,331.585L123.032,331.589ZM499.431,550.093C477.601,550.974 461.017,552.402 439.549,557.396C456.837,572.653 464.466,586.377 469.978,608.717C449.689,584.798 422.538,556.805 389.228,554.304C352.99,551.584 261.567,611.974 230.318,634.342C238.03,697.299 298.549,734.145 331.141,783.705C336.932,792.511 343.979,805.266 351.943,811.732C368.837,825.45 389.138,806.256 398.846,793.306C413.62,773.595 419.445,750.606 415.43,726.33C411.528,699.179 397.201,657.319 414.676,633.417C419.267,627.138 425.74,622.133 432.373,618.216C417.568,644.865 427.505,685.473 435.378,713.578C446.498,753.273 447.007,779.785 419.678,813.092C395.397,842.684 347,860.414 325.63,818.59C307.182,782.486 282.597,755.472 253.266,727.748C233.223,760.497 201.382,808.684 188.138,844.552C201.828,833.789 219.15,820.729 232.059,809.351C221.891,827.985 209.207,852.863 213.851,875.851C214.515,879.138 222.943,892.313 225.07,895.701C255.515,944.197 300.044,984.163 344.585,1019.48L351.503,1025.1C355.907,988.408 369.07,958.697 389.589,928.415C380.733,959.021 379.998,979.315 382.888,1010.62C417.434,952.371 454.122,910.734 521.802,893.654C573.519,880.602 619.54,888.686 669.276,904.403C711.33,917.693 770.095,936.67 799.247,890.837C801.262,887.764 803.122,882.754 804.341,879.229C792.039,882.515 781.824,882.645 769.442,879.771C739.123,872.734 710.344,859.537 680.819,849.707C660.545,843.07 639.836,837.843 618.841,834.064C584.626,828.17 562.016,829.615 534.862,854.004C550.234,823.685 569.508,779.657 606.16,769.464C645.082,758.64 696.593,776.718 734.898,787.683C781.619,801.057 820.804,809.09 838.149,749.97C823.956,752.2 815.584,752.037 804.828,741.292C811.456,729.988 813.617,725.974 817.726,713.753C814.156,715.297 809.513,717.809 806.529,720.335C781.499,741.518 769.626,697.484 778.108,679.637C778.83,678.131 779.61,676.653 780.446,675.207C742.687,668.11 704.289,663.459 666.54,656.246C662.816,655.534 659.468,654.327 659.641,650.158C664.088,643.025 672.206,639.447 669.307,628.947C668.255,625.139 666.806,622.411 664.631,619.154C632.087,570.416 576.96,550.827 520.212,550.28C513.659,550.216 506.078,549.621 499.431,550.093ZM558.581,618.317C594.787,616.619 615.048,649.595 633.359,647.919C635.763,647.699 637.902,646.724 639.326,644.728C643.381,639.047 640.59,630.027 639.379,623.8C646.407,630.735 655.042,644.014 645.776,653.275C639.759,659.289 631.451,659.387 623.425,659.393C617.339,668.563 618.963,679.954 604.791,680.105C600.533,678.777 599.941,679.434 595.863,679.026C583.955,677.747 570.627,674.266 562.375,665.035C557.354,659.419 558.925,653.144 562.566,647.478C565.916,642.266 569.734,639.004 574.553,635.244C552.295,627.849 531.261,634.942 510.619,643.266C522.68,626.665 538.519,619.692 558.581,618.317ZM589.085,647.908C562.522,657.614 585.267,667.258 598.383,671.99L598.306,675.055L599.358,675.958C601.863,675.03 604.235,671.968 602.528,669.385C600.577,666.433 596.254,664.064 594.462,660.984C592.425,657.483 593.328,651.587 590.819,648.375L589.085,647.908ZM772.261,749.738C775.384,748.322 779.066,749.69 780.507,752.802C781.948,755.914 780.608,759.605 777.507,761.07C774.371,762.551 770.629,761.193 769.172,758.047C767.715,754.9 769.102,751.17 772.261,749.738ZM794.692,764.715C797.901,763.849 801.225,765.653 802.246,768.815C803.268,771.977 801.629,775.384 798.52,776.559C796.369,777.372 793.945,776.935 792.214,775.422C790.482,773.909 789.725,771.565 790.244,769.326C790.762,767.086 792.472,765.314 794.692,764.715ZM772.341,777.495C775.539,776.287 779.111,777.892 780.332,781.083C781.553,784.275 779.963,787.853 776.776,789.087C773.569,790.328 769.965,788.728 768.736,785.517C767.508,782.306 769.124,778.709 772.341,777.495ZM750.859,761.773C753.908,760.246 757.619,761.465 759.169,764.502C760.718,767.54 759.526,771.259 756.498,772.829C753.44,774.416 749.674,773.209 748.109,770.141C746.544,767.072 747.778,763.316 750.859,761.773Z" style="fill:rgb(1,56,97);"/>
    </g>
</svg>
