<?xml version="1.0" encoding="UTF-8" standalone="no"?>
<!DOCTYPE svg PUBLIC "-//W3C//DTD SVG 1.1//EN" "http://www.w3.org/Graphics/SVG/1.1/DTD/svg11.dtd">
<svg width="100%" height="100%" viewBox="0 0 807 739" version="1.1" xmlns="http://www.w3.org/2000/svg" xmlns:xlink="http://www.w3.org/1999/xlink" xml:space="preserve" xmlns:serif="http://www.serif.com/" style="fill-rule:evenodd;clip-rule:evenodd;stroke-linejoin:round;stroke-miterlimit:2;">
    <g transform="matrix(1,0,0,1,-97.7405,-140.41)">
        <path d="M453.883,178.428C438.217,201.082 425.723,229.432 415.399,254.92C412.808,254.153 392.818,254.453 388.496,254.452L322.425,254.469C323.207,295.894 323.832,336.984 322.787,378.419C322.7,381.864 322.272,396.622 323.08,398.425C296.735,429.908 251.301,484.057 237.866,522.255C253.864,514.837 272.565,509.101 289.805,505.371C255.997,553.175 240.682,612.645 249.149,671.348C249.453,673.457 249.946,675.641 250.478,677.71C264.955,658.96 275.578,653.685 291.892,639.714C295.093,666.51 306.89,686.246 324.061,706.148C324.102,716.48 324.042,726.812 323.881,737.143C323.617,748.071 322.937,759.863 322.905,770.695C362.758,770.715 402.61,770.957 442.461,771.423C460.518,785.404 473.088,795.736 492.096,808.319C489.374,797.368 486.912,786.919 483.128,776.251C486.263,776.308 487.721,776.28 490.888,775.935C504.784,793.34 519.099,819.956 527.056,840.562L136.573,840.589L136.524,805.157C169.35,796.669 193.022,776.135 202.561,742.879C207.962,724.051 206.525,700.963 206.524,681.276L206.492,626.102L206.114,455.527L206.143,347.628C206.202,326.69 207.029,305.018 205.669,284.167C202.977,242.902 174.258,216.299 136.487,205.604L136.512,178.442L453.883,178.428ZM542.487,340.325C543.707,337.045 535.191,316.434 533.034,311.767C522.464,288.889 509.276,266.858 495.416,245.833C491.934,240.551 483.396,227.688 479.181,223.194C460.596,257.941 436.502,320.088 449.113,359.227C452.483,369.683 456.392,376.769 461.789,386.127C447.012,392.872 431.741,399.511 417.877,408.017C399.206,419.473 381.711,433.202 364.942,447.25C362.475,449.317 360.083,451.365 357.477,453.259C371.39,450.441 398.74,448.647 412.758,450.553C404.568,455.138 398.335,459.695 390.795,465.1C356.633,489.59 334.471,519.81 318.419,558.516C334.488,546.276 357.163,536.639 376.866,533.274C348.123,566.767 336.089,606.153 339.388,650.057C340.343,662.376 342.66,674.551 346.297,686.36C321.758,658.269 315.092,632.542 317.623,596.062C317.896,592.567 318.258,589.079 318.712,585.602C304.069,593.864 289.406,603.862 276.966,615.229C288.631,557.747 309.74,515.12 348.162,470.95C334.358,471.17 309.749,475.274 296.629,479.756C330.045,443.616 380.146,396.444 425.201,376.913C420.626,364.058 421.707,359.899 421.392,346.561C420.528,309.973 431.974,271.065 447.708,238.046C456.782,219.162 467.016,200.857 478.35,183.236C496.379,210.145 514.325,236.737 533.324,262.996C546.057,280.593 557.04,300.342 572.326,315.961C579.566,323.363 595.843,330.539 605.729,333.565C602.166,322.854 595.976,310.22 590.069,300.544C603.37,301.684 621.304,303.985 634.272,307.24C678.3,318.292 723.337,344.7 752.566,379.669C756.938,384.895 760.898,390.452 764.411,396.29C766.094,399.142 769.194,405.337 771.013,407.533C767.934,419.576 761.691,435.287 756.664,446.618C754.223,441.185 750.704,433.838 749.396,428.176C745.245,442.456 741.404,458.353 750.943,471.282L750.577,472.225C753.363,477.698 787.344,505.228 794.506,511.621C807.293,523.036 821.825,535.017 834.606,547.205C811.009,542.995 790.915,546.463 774.367,564.491C771.884,562.586 766.66,559.343 763.878,557.449C756.606,552.498 749.427,547.411 742.369,542.16C740.588,540.835 735.726,537.363 734.437,535.883C733.361,533.628 730.594,531.603 728.618,529.68C716.639,518.019 708.355,507.243 698.84,493.598C702.529,492.777 708.621,491.401 712.501,491.568C730.797,492.352 749.817,501.489 765.058,511.167C770.008,514.31 774.507,517.73 779.334,520.666C761.431,499.263 756.003,493.495 732.048,477.595C736.572,464.23 737.751,449.959 735.483,436.032C728.814,393.393 700.288,366.933 667.538,343.019C688.478,370.816 719.358,419.521 717.539,456.271C717.004,462.543 714.572,471.944 709.163,475.658C704.501,478.858 694.747,480.982 690.874,475.703C695.573,474.975 697.841,472.993 700.707,469.331C714.824,451.301 704.371,437.705 693.601,422.579C693.678,433.894 692.453,440.112 688.891,450.716C676.359,416.71 658.177,383.395 621.203,371.817C627.59,382.912 632.008,392.404 637.317,403.981C606.951,374.585 582.502,382.044 550.122,404.213C550.727,404.114 551.333,404.025 551.941,403.946C575.942,400.807 602.292,406.714 621.587,421.613C617.479,421.219 612.988,419.099 608.918,418.309C585.06,413.677 561.383,421.346 538.731,426.794C528.176,429.276 517.537,431.381 506.832,433.105C488.192,424.609 468.014,420.009 447.533,419.587C463.626,399.207 486.829,382.2 506.82,365.913C513.037,359.774 534.319,346.524 542.317,341.272L542.487,340.325ZM549.907,470.71C555.745,474.408 560.692,478.341 566.296,482.284C559.745,466.969 553.421,453.958 541.53,441.707C547.235,440.864 569.329,437.579 573.939,441.281C578.002,444.543 580.039,457.625 581.862,463.051C590.009,488.756 615.939,499.018 641.051,497.569C657.816,496.601 672.548,491.783 686.205,504.408C688.941,506.937 693.565,508.911 695.429,512.517C674.079,508.379 665.51,513.947 645.407,517.623C627.465,520.903 593.55,516.623 576.482,509.634C569.207,506.655 555.599,497.877 548.036,493.475C538.624,487.996 531.166,485.042 521.615,480.423C531.172,477.167 540.375,474.142 549.907,470.71ZM746.885,225.863C723.847,247.922 702.914,267.185 680.584,290.647C674.401,285.839 668.225,281.145 661.569,276.997C632.336,258.778 594.331,251.103 560.096,254.607C558.735,253.403 554.585,247.803 553.248,246.03C537.459,225.089 518.398,202.055 506.88,178.441L577.903,178.431C594.654,178.443 612.729,178.034 629.23,179.862C668.692,184.236 715.266,201.484 746.885,225.863ZM862.356,545.005L832.831,518.586C826.785,513.226 819.679,507.29 813.961,501.711C818.427,482.236 818.242,461.873 807.91,444.191C816.72,422.032 810.355,403.647 795.083,386.101C797.968,377.306 801.925,368.049 805.003,359.07C811.061,341.503 815.661,323.467 818.755,305.145C829.298,321.885 836.554,339.348 843.386,357.802C865.642,417.916 869.066,481.54 862.356,545.005ZM557.87,840.659C559.409,836.621 560.394,832.534 561.87,828.553C563.214,827.023 563.991,825.299 564.987,823.548C578.94,799.028 598.905,776.901 618.869,757.068C623.751,752.218 629.83,748.184 634.925,743.465C640.993,750.99 647.254,757.833 653.365,765.516C647.179,766.72 639.927,768.235 633.848,769.936C645.436,784.891 670.547,804.279 688.486,809.584C679.477,813.561 671.16,817.995 661.904,821.735C626.892,835.883 595.238,840.092 557.87,840.659ZM795.297,215.875L795.844,216.545C802.505,259.701 795.678,326.172 778.59,366.468L771.733,359.567C775.252,342.364 783.473,291.917 779.357,275.51L779.02,275.459L775.466,282.116L744.951,335.458C738.878,329.923 732.498,325.038 725.96,320.082C741.475,295.554 756.092,270.661 772.489,246.71C779.691,236.19 787.607,226.047 795.297,215.875ZM629.667,608.53C650.638,607.953 677.064,650.877 687.139,667.044C685.269,644.348 682.932,634.395 672.538,613.842C687.166,627.71 696.549,642.565 705.467,660.384C709.11,667.495 713.474,677.891 717.022,685.506C713.227,690.986 709.672,697.303 705.505,702.4C702.583,705.975 700.959,706.663 696.807,706.903C696.505,707.877 696.524,707.911 696.564,708.896C695.785,708.585 683.85,688.175 681.601,684.844C673.727,673.186 665.767,664.339 655.892,654.224C644.574,642.632 632.793,630.353 624.569,616.209C623.981,615.197 623.373,613.564 623.856,612.393C624.678,610.402 627.668,609.401 629.667,608.53ZM384.536,646.318C385.993,646.971 388.583,658.148 389.4,660.561C396.745,682.261 406.195,698.114 421.293,715.051L411.019,708.413C393.665,697.833 379.899,679.799 369.863,662.5C375.226,656.066 378.55,652.031 384.536,646.318Z" style="fill:rgb(99,15,34);"/>
        <path d="M527.056,840.562C529.124,846.166 531.102,851.804 532.988,857.472L119.257,857.494C119.391,835.027 119.369,812.559 119.191,790.092C135.471,789.572 149.164,784.587 161.814,774.411C177.045,761.984 186.679,743.986 188.574,724.42C189.566,714.924 189.428,702.349 189.4,692.827L189.312,652.396L189.064,507.414L189.021,356.72L189.068,309.764C189.078,300.975 189.701,289.931 188.5,281.377C183.452,245.423 153.164,223.168 119.257,219.777C119.585,200.709 119.36,181.066 119.372,161.955L466.115,161.974C461.479,167.617 457.93,172.284 453.883,178.428L136.512,178.442L136.487,205.604C174.258,216.299 202.977,242.902 205.669,284.167C207.029,305.018 206.202,326.69 206.143,347.628L206.114,455.527L206.492,626.102L206.524,681.276C206.525,700.963 207.962,724.051 202.561,742.879C193.022,776.135 169.35,796.669 136.524,805.157L136.573,840.589L527.056,840.562ZM415.399,254.92C413.231,260.26 411.137,265.631 409.118,271.03C386.246,271.463 363.37,271.602 340.495,271.448C341.192,297.877 341.254,324.319 340.68,350.751C340.478,360.524 340.513,370.32 340.052,380.083C334.787,386.342 328.637,392.313 323.08,398.425C322.272,396.622 322.7,381.864 322.787,378.419C323.832,336.984 323.207,295.894 322.425,254.469L388.496,254.452C392.818,254.453 412.808,254.153 415.399,254.92ZM324.061,706.148C329.69,712.472 335.385,718.737 341.145,724.942L340.9,753.896C366.476,753.914 393.364,753.515 418.832,754.059C425.849,758.597 435.723,766.209 442.461,771.423C402.61,770.957 362.758,770.715 322.905,770.695C322.937,759.863 323.617,748.071 323.881,737.143C324.042,726.812 324.102,716.48 324.061,706.148ZM690.874,475.703C673.579,470.73 662.841,455.954 649.424,444.363C639.885,436.121 632.294,428.784 621.587,421.613C602.292,406.714 575.942,400.807 551.941,403.946C551.333,404.025 550.727,404.114 550.122,404.213C582.502,382.044 606.951,374.585 637.317,403.981C632.008,392.404 627.59,382.912 621.203,371.817C658.177,383.395 676.359,416.71 688.891,450.716C692.453,440.112 693.678,433.894 693.601,422.579C704.371,437.705 714.824,451.301 700.707,469.331C697.841,472.993 695.573,474.975 690.874,475.703ZM771.013,407.533L772.503,401.417C779.728,410.651 786.79,420.215 785.261,433.003C783.539,447.397 767.928,458.28 757.554,467.017C756.431,467.963 752.225,470.669 750.943,471.282C741.404,458.353 745.245,442.456 749.396,428.176C750.704,433.838 754.223,441.185 756.664,446.618C761.691,435.287 767.934,419.576 771.013,407.533ZM774.367,564.491C769.544,570.835 768.047,574.206 767.089,582.173C763.963,579.644 760.725,577.188 757.312,575.055C734.25,560.647 710.449,547.431 686.815,533.995C684.066,532.432 681.486,530.999 678.637,529.623C683.586,538.878 689.652,548.367 694.908,557.918C677.257,544.116 658.424,535.836 635.824,539.364C610.331,543.344 585.149,547.993 559.223,548.09L559.634,547.733C567.402,541.079 573.756,538.566 579.817,529.498C545.252,520.006 512.048,521.758 479.878,539.513C463.271,548.678 442.295,565.702 435.796,584.564C435.52,585.365 435.477,586.109 435.613,586.947C423.734,594.555 415.977,600.746 406.408,611.301C407.154,607.902 407.933,604.511 408.745,601.128C420.408,553.563 444.884,519.317 486.852,493.949C462.167,493.932 438.189,496.246 414.458,503.438C427.641,489.2 456.489,468.597 475.246,462.765C499.646,455.179 527.363,458.846 549.907,470.71C540.375,474.142 531.172,477.167 521.615,480.423C531.166,485.042 538.624,487.996 548.036,493.475C555.599,497.877 569.207,506.655 576.482,509.634C593.55,516.623 627.465,520.903 645.407,517.623C665.51,513.947 674.079,508.379 695.429,512.517C704.816,516.137 713.729,521.494 721.987,527.182C724.932,529.21 731.835,534.462 734.437,535.883C735.726,537.363 740.588,540.835 742.369,542.16C749.427,547.411 756.606,552.498 763.878,557.449C766.66,559.343 771.884,562.586 774.367,564.491ZM506.88,178.441C503.362,173.345 500.014,167.371 496.994,161.941L575.316,161.881C588.72,161.89 603.659,161.526 616.912,162.159C670.14,164.702 717.282,183.333 760.549,214.271C755.951,218.034 751.374,222.241 746.885,225.863C715.266,201.484 668.692,184.236 629.23,179.862C612.729,178.034 594.654,178.443 577.903,178.431L506.88,178.441ZM680.584,290.647C679.676,291.719 678.263,293.13 677.273,294.182C662.738,288.745 649.438,284.307 634.261,281.029C627.766,279.626 620.959,276.975 614.246,275.449C599.694,272.142 585.936,271.1 571.089,271.11C567.512,265.552 563.847,260.05 560.096,254.607C594.331,251.103 632.336,258.778 661.569,276.997C668.225,281.145 674.401,285.839 680.584,290.647ZM818.755,305.145C820.137,295.957 820.932,286.69 821.136,277.401C878.622,356.137 891.268,465.159 877.691,559.383C873.145,555.098 866.401,549.311 862.356,545.005C869.066,481.54 865.642,417.916 843.386,357.802C836.554,339.348 829.298,321.885 818.755,305.145ZM688.486,809.584C695.829,812.187 704.258,815.053 711.785,817.062C654.897,846.735 616.622,857.673 551.956,857.477C553.888,851.857 555.859,846.251 557.87,840.659C595.238,840.092 626.892,835.883 661.904,821.735C671.16,817.995 679.477,813.561 688.486,809.584ZM561.87,828.553C570.066,785.685 590.332,755.865 624.55,729.446C627.701,734.358 631.258,738.936 634.925,743.465C629.83,748.184 623.751,752.218 618.869,757.068C598.905,776.901 578.94,799.028 564.987,823.548C563.991,825.299 563.214,827.023 561.87,828.553ZM506.82,365.913C489.972,350.543 483.326,341.859 475.809,320.742C485.86,324.852 494.304,328.153 503.764,333.566L509.63,337.257C507.794,333.996 506.01,330.706 504.279,327.388C496.465,309.987 492.512,301.472 487.338,282.532C507.63,294.662 527.961,321.678 542.487,340.325L542.317,341.272C534.319,346.524 513.037,359.774 506.82,365.913ZM785.018,452.686C791.552,457.767 790.711,470.525 788.088,477.545C787.246,479.796 785.435,484.763 783.322,485.815L782.345,485.176L775.636,478.188C776.116,477.839 780.744,474.868 780.738,474.896C782.309,466.264 781.455,460.996 785.018,452.686ZM483.128,776.251L475.718,760.24L478.086,758.507C482.442,764.25 486.71,770.06 490.888,775.935C487.721,776.28 486.263,776.308 483.128,776.251Z" style="fill:rgb(220,157,66);"/>
        <path d="M767.089,582.173C768.7,608.385 779.598,619.369 801.891,632.117C802.493,623.143 803.673,620.291 812.35,616.949C815.97,622.944 819.739,630.81 817.828,638.027C814.895,648.593 803.905,652.706 794.103,653.738C756.745,657.672 724.352,631.477 701.46,604.765C682.232,582.329 667.058,563.304 634.942,563.213C602.694,563.122 582.017,581.218 565.236,607.135C576.675,601.664 584.494,599.612 596.979,603.073C600.17,612.493 603.41,624.869 609.217,632.621C622.549,650.419 640.189,662.467 654.863,679.955C661.514,687.982 667.456,696.571 672.62,705.626C681.18,720.731 687.047,735.819 699.368,748.752C722.031,772.54 752.147,772.414 781.587,762.948C772.151,784.424 753.214,795.889 730.836,800.712C733.068,797.012 734.487,794.448 736.359,790.564C712.115,791.243 702.708,789.605 681.492,778.487L701.385,774.091C680.547,754.479 668.142,734.025 651.817,710.732C637.569,690.402 616.135,668.888 594.507,656.931C571.893,644.429 548.963,640.298 530.039,660.78C528.587,662.38 527.183,664.023 525.829,665.707C544.639,660.847 569.158,664.672 584.093,677.636C573.526,677.918 564.826,678.935 555.768,684.919C530.298,701.746 525.402,738.283 524.505,766.289C504.518,743.103 490.337,710.838 492.655,679.789C494.091,660.556 501.439,647.171 512.03,631.742C505.952,634.789 499.777,638.232 494.554,642.609C480.118,654.709 465.474,676.972 462.234,695.575C453.287,674.594 450.311,657.749 455.961,635.119C462.859,607.488 478.34,589.4 501.563,573.714C474.841,571.984 459.294,574.021 435.613,586.947C435.477,586.109 435.52,585.365 435.796,584.564C442.295,565.702 463.271,548.678 479.878,539.513C512.048,521.758 545.252,520.006 579.817,529.498C573.756,538.566 567.402,541.079 559.634,547.733L559.223,548.09C585.149,547.993 610.331,543.344 635.824,539.364C658.424,535.836 677.257,544.116 694.908,557.918C689.652,548.367 683.586,538.878 678.637,529.623C681.486,530.999 684.066,532.432 686.815,533.995C710.449,547.431 734.25,560.647 757.312,575.055C760.725,577.188 763.963,579.644 767.089,582.173ZM716.261,580.493C717.061,583.781 724.335,592.55 726.61,595.087C733.112,602.339 743.058,610.137 752.198,613.565C750.987,611.489 719.302,582.598 716.261,580.493ZM734.21,706.414C739.748,716.817 737.039,729.859 732.311,739.977C738.347,737.269 741.509,735.199 746.506,730.98C747.437,734.646 748.409,738.302 749.422,741.946C754.988,738.582 757.743,735.823 761.288,730.52C762.64,733.516 763.659,736.765 764.722,739.884C777.571,731.043 787.709,721.007 796.079,707.807C795.612,713.639 795.24,717.709 794.205,723.507C791.816,732.122 781.604,755.831 769.78,745.433C757.729,751.398 747.165,752.199 734.072,748.491C722.886,745.323 716.295,739.463 708.768,730.924C718.681,724.191 726.336,715.285 734.21,706.414ZM592.378,436.017C602.249,435.721 609.992,438.394 618.359,443.378C603.949,466.926 630.194,492.891 654.157,473.757L658.818,478.367L662.019,481.466C653.542,484.173 645.024,486.099 636.069,486.373C608.549,487.212 592.492,461.589 592.378,436.017ZM829.538,667.446L830.373,667.524L830.68,668.219C828.467,686.443 821.177,696.716 803.495,701.905C808.114,693.966 808.516,688.561 809.128,679.527C806.352,681.118 787.947,690.909 785.557,689.852C786.608,687.439 787.622,684.303 788.516,681.775C780.264,686.282 774.644,687.466 765.451,688.7C769.727,682.396 770.327,680.18 772.927,673.019C792.629,677.146 811.074,675.146 829.538,667.446ZM738.59,660.292C747.663,664.987 753.74,667.558 763.223,671.032C760.426,677.702 757.181,681.191 751.722,685.656C745.205,690.147 740.448,690.884 732.839,691.079C737.255,679.661 738.336,672.667 738.59,660.292ZM830.631,577.689C843.629,575.635 859.824,579.763 871.255,586.301C859.907,584.051 846.88,584.357 835.38,585.167C823.25,586.229 811.236,588.53 800.165,593.734C810.202,582.612 815.376,579.532 830.631,577.689ZM866.152,617.825C866.974,619.917 866.333,625.871 865.788,628.187C863.13,639.493 853.226,649.516 842.394,653.305C839.097,654.459 836.97,654.02 833.643,653.284L833.431,652.898C833.547,651.346 838.369,648.069 840.107,646.623C850.496,637.974 858.248,628.632 866.152,617.825ZM635.436,454.831C637.248,456.037 640.522,459.808 642.177,461.599C641.063,462.716 639.555,463.812 638.283,464.797C631.049,465.889 630.446,459.359 635.436,454.831Z" style="fill:rgb(249,247,245);"/>
        <path d="M97.741,140.627L461.479,140.612L559.212,140.593C589.432,140.548 617.681,139.175 647.554,144.714C683.364,151.428 717.77,164.187 749.299,182.445C758.656,187.919 767.585,194.094 776.546,200.19C785.612,193.507 800.748,179.78 809.738,172.123C814.956,189.745 820.022,225.032 821.117,243.279C831.817,255.281 841.563,268.099 850.267,281.618C893.235,348.763 906.785,431.787 903.826,510.417C903.002,532.334 900.933,555.308 896.224,576.779C903.092,591.518 896.111,603.286 890.527,616.662C889.608,618.862 888.647,626.287 888.132,628.898C886.434,637.291 883.279,645.322 878.812,652.628C873.851,660.688 867.523,664.485 863.42,670.887C860.361,677.301 858.363,684.297 855.446,690.782C850.446,701.899 844.668,713.206 838.486,723.717C832.456,733.786 825.835,743.489 818.658,752.775C817.04,754.873 809.878,762.458 809.447,763.768C804.119,779.961 799.022,788.908 786.433,801.277C776.813,809.659 768.333,815.541 756.49,820.639C752.593,822.317 744.977,824.64 741.624,826.489C733.5,830.97 725.914,835.749 717.554,840.011C686.856,856.011 653.892,867.222 619.804,873.254C586.069,879.055 555.002,878.374 520.969,878.396L427.03,878.403L97.952,878.455L97.913,770.031C123.057,770.135 148.931,767.267 160.944,742.15C166.197,731.166 167.43,722.175 167.479,710.157L167.393,417.633L167.408,331.728C167.409,316.047 168.306,298.731 166.385,283.27C161.926,247.368 127.927,240.056 98,239.995L97.741,140.627ZM478.086,758.507L475.718,760.24L483.128,776.251C486.912,786.919 489.374,797.368 492.096,808.319C473.088,795.736 460.518,785.404 442.461,771.423C435.723,766.209 425.849,758.597 418.832,754.059C393.364,753.515 366.476,753.914 340.9,753.896L341.145,724.942C335.385,718.737 329.69,712.472 324.061,706.148C306.89,686.246 295.093,666.51 291.892,639.714C275.578,653.685 264.955,658.96 250.478,677.71C249.946,675.641 249.453,673.457 249.149,671.348C240.682,612.645 255.997,553.175 289.805,505.371C272.565,509.101 253.864,514.837 237.866,522.255C251.301,484.057 296.735,429.908 323.08,398.425C328.637,392.313 334.787,386.342 340.052,380.083C340.513,370.32 340.478,360.524 340.68,350.751C341.254,324.319 341.192,297.877 340.495,271.448C363.37,271.602 386.246,271.463 409.118,271.03C411.137,265.631 413.231,260.26 415.399,254.92C425.723,229.432 438.217,201.082 453.883,178.428C457.93,172.284 461.479,167.617 466.115,161.974L119.372,161.955C119.36,181.066 119.585,200.709 119.257,219.777C153.164,223.168 183.452,245.423 188.5,281.377C189.701,289.931 189.078,300.975 189.068,309.764L189.021,356.72L189.064,507.414L189.312,652.396L189.4,692.827C189.428,702.349 189.566,714.924 188.574,724.42C186.679,743.986 177.045,761.984 161.814,774.411C149.164,784.587 135.471,789.572 119.191,790.092C119.369,812.559 119.391,835.027 119.257,857.494L532.988,857.472C531.102,851.804 529.124,846.166 527.056,840.562C519.099,819.956 504.784,793.34 490.888,775.935C486.71,770.06 482.442,764.25 478.086,758.507ZM785.018,452.686C781.455,460.996 782.309,466.264 780.738,474.896C780.744,474.868 776.116,477.839 775.636,478.188L782.345,485.176L783.322,485.815C785.435,484.763 787.246,479.796 788.088,477.545C790.711,470.525 791.552,457.767 785.018,452.686ZM866.152,617.825C858.248,628.632 850.496,637.974 840.107,646.623C838.369,648.069 833.547,651.346 833.431,652.898L833.643,653.284C836.97,654.02 839.097,654.459 842.394,653.305C853.226,649.516 863.13,639.493 865.788,628.187C866.333,625.871 866.974,619.917 866.152,617.825ZM368.512,711.372L368.445,734.012C376.653,733.992 385.715,734.162 393.853,733.886C387.788,729.204 383.101,725.042 377.549,719.775C375.415,717.75 370.484,712.875 368.512,711.372ZM795.297,215.875C787.607,226.047 779.691,236.19 772.489,246.71C756.092,270.661 741.475,295.554 725.96,320.082C732.498,325.038 738.878,329.923 744.951,335.458L775.466,282.116L779.02,275.459L779.357,275.51C783.473,291.917 775.252,342.364 771.733,359.567L778.59,366.468C795.678,326.172 802.505,259.701 795.844,216.545L795.297,215.875ZM629.667,608.53C627.668,609.401 624.678,610.402 623.856,612.393C623.373,613.564 623.981,615.197 624.569,616.209C632.793,630.353 644.574,642.632 655.892,654.224C665.767,664.339 673.727,673.186 681.601,684.844C683.85,688.175 695.785,708.585 696.564,708.896C696.524,707.911 696.505,707.877 696.807,706.903C700.959,706.663 702.583,705.975 705.505,702.4C709.672,697.303 713.227,690.986 717.022,685.506C713.474,677.891 709.11,667.495 705.467,660.384C696.549,642.565 687.166,627.71 672.538,613.842C682.932,634.395 685.269,644.348 687.139,667.044C677.064,650.877 650.638,607.953 629.667,608.53ZM592.378,436.017C592.492,461.589 608.549,487.212 636.069,486.373C645.024,486.099 653.542,484.173 662.019,481.466L658.818,478.367L654.157,473.757C630.194,492.891 603.949,466.926 618.359,443.378C609.992,438.394 602.249,435.721 592.378,436.017ZM829.538,667.446C811.074,675.146 792.629,677.146 772.927,673.019C770.327,680.18 769.727,682.396 765.451,688.7C774.644,687.466 780.264,686.282 788.516,681.775C787.622,684.303 786.608,687.439 785.557,689.852C787.947,690.909 806.352,681.118 809.128,679.527C808.516,688.561 808.114,693.966 803.495,701.905C821.177,696.716 828.467,686.443 830.68,668.219L830.373,667.524L829.538,667.446ZM384.536,646.318C378.55,652.031 375.226,656.066 369.863,662.5C379.899,679.799 393.665,697.833 411.019,708.413L421.293,715.051C406.195,698.114 396.745,682.261 389.4,660.561C388.583,658.148 385.993,646.971 384.536,646.318ZM738.59,660.292C738.336,672.667 737.255,679.661 732.839,691.079C740.448,690.884 745.205,690.147 751.722,685.656C757.181,681.191 760.426,677.702 763.223,671.032C753.74,667.558 747.663,664.987 738.59,660.292ZM830.631,577.689C815.376,579.532 810.202,582.612 800.165,593.734C811.236,588.53 823.25,586.229 835.38,585.167C846.88,584.357 859.907,584.051 871.255,586.301C859.824,579.763 843.629,575.635 830.631,577.689ZM506.88,178.441C518.398,202.055 537.459,225.089 553.248,246.03C554.585,247.803 558.735,253.403 560.096,254.607C563.847,260.05 567.512,265.552 571.089,271.11C585.936,271.1 599.694,272.142 614.246,275.449C620.959,276.975 627.766,279.626 634.261,281.029C649.438,284.307 662.738,288.745 677.273,294.182C678.263,293.13 679.676,291.719 680.584,290.647C702.914,267.185 723.847,247.922 746.885,225.863C751.374,222.241 755.951,218.034 760.549,214.271C717.282,183.333 670.14,164.702 616.912,162.159C603.659,161.526 588.72,161.89 575.316,161.881L496.994,161.941C500.014,167.371 503.362,173.345 506.88,178.441ZM688.486,809.584C670.547,804.279 645.436,784.891 633.848,769.936C639.927,768.235 647.179,766.72 653.365,765.516C647.254,757.833 640.993,750.99 634.925,743.465C631.258,738.936 627.701,734.358 624.55,729.446C590.332,755.865 570.066,785.685 561.87,828.553C560.394,832.534 559.409,836.621 557.87,840.659C555.859,846.251 553.888,851.857 551.956,857.477C616.622,857.673 654.897,846.735 711.785,817.062C704.258,815.053 695.829,812.187 688.486,809.584ZM399.266,295.23C387.34,295.586 375.135,296.1 363.228,296.005C363.821,311.734 363.351,327.652 363.516,343.39C363.563,347.878 362.943,356.965 363.452,360.717C364.384,360.745 364.058,360.903 364.527,360.57C374.922,353.315 382.615,347.244 394.447,342.282C394.697,330.744 396.353,318.724 398.273,307.31C398.763,304.394 401.231,297.447 400.3,295.288L399.266,295.23ZM734.21,706.414C726.336,715.285 718.681,724.191 708.768,730.924C716.295,739.463 722.886,745.323 734.072,748.491C747.165,752.199 757.729,751.398 769.78,745.433C781.604,755.831 791.816,732.122 794.205,723.507C795.24,717.709 795.612,713.639 796.079,707.807C787.709,721.007 777.571,731.043 764.722,739.884C763.659,736.765 762.64,733.516 761.288,730.52C757.743,735.823 754.988,738.582 749.422,741.946C748.409,738.302 747.437,734.646 746.506,730.98C741.509,735.199 738.347,737.269 732.311,739.977C737.039,729.859 739.748,716.817 734.21,706.414ZM635.436,454.831C630.446,459.359 631.049,465.889 638.283,464.797C639.555,463.812 641.063,462.716 642.177,461.599C640.522,459.808 637.248,456.037 635.436,454.831ZM542.487,340.325C527.961,321.678 507.63,294.662 487.338,282.532C492.512,301.472 496.465,309.987 504.279,327.388C506.01,330.706 507.794,333.996 509.63,337.257L503.764,333.566C494.304,328.153 485.86,324.852 475.809,320.742C483.326,341.859 489.972,350.543 506.82,365.913C486.829,382.2 463.626,399.207 447.533,419.587C468.014,420.009 488.192,424.609 506.832,433.105C517.537,431.381 528.176,429.276 538.731,426.794C561.383,421.346 585.06,413.677 608.918,418.309C612.988,419.099 617.479,421.219 621.587,421.613C632.294,428.784 639.885,436.121 649.424,444.363C662.841,455.954 673.579,470.73 690.874,475.703C694.747,480.982 704.501,478.858 709.163,475.658C714.572,471.944 717.004,462.543 717.539,456.271C719.358,419.521 688.478,370.816 667.538,343.019C700.288,366.933 728.814,393.393 735.483,436.032C737.751,449.959 736.572,464.23 732.048,477.595C756.003,493.495 761.431,499.263 779.334,520.666C774.507,517.73 770.008,514.31 765.058,511.167C749.817,501.489 730.797,492.352 712.501,491.568C708.621,491.401 702.529,492.777 698.84,493.598C708.355,507.243 716.639,518.019 728.618,529.68C730.594,531.603 733.361,533.628 734.437,535.883C731.835,534.462 724.932,529.21 721.987,527.182C713.729,521.494 704.816,516.137 695.429,512.517C693.565,508.911 688.941,506.937 686.205,504.408C672.548,491.783 657.816,496.601 641.051,497.569C615.939,499.018 590.009,488.756 581.862,463.051C580.039,457.625 578.002,444.543 573.939,441.281C569.329,437.579 547.235,440.864 541.53,441.707C553.421,453.958 559.745,466.969 566.296,482.284C560.692,478.341 555.745,474.408 549.907,470.71C527.363,458.846 499.646,455.179 475.246,462.765C456.489,468.597 427.641,489.2 414.458,503.438C438.189,496.246 462.167,493.932 486.852,493.949C444.884,519.317 420.408,553.563 408.745,601.128C407.933,604.511 407.154,607.902 406.408,611.301C415.977,600.746 423.734,594.555 435.613,586.947C459.294,574.021 474.841,571.984 501.563,573.714C478.34,589.4 462.859,607.488 455.961,635.119C450.311,657.749 453.287,674.594 462.234,695.575C465.474,676.972 480.118,654.709 494.554,642.609C499.777,638.232 505.952,634.789 512.03,631.742C501.439,647.171 494.091,660.556 492.655,679.789C490.337,710.838 504.518,743.103 524.505,766.289C525.402,738.283 530.298,701.746 555.768,684.919C564.826,678.935 573.526,677.918 584.093,677.636C569.158,664.672 544.639,660.847 525.829,665.707C527.183,664.023 528.587,662.38 530.039,660.78C548.963,640.298 571.893,644.429 594.507,656.931C616.135,668.888 637.569,690.402 651.817,710.732C668.142,734.025 680.547,754.479 701.385,774.091L681.492,778.487C702.708,789.605 712.115,791.243 736.359,790.564C734.487,794.448 733.068,797.012 730.836,800.712C753.214,795.889 772.151,784.424 781.587,762.948C752.147,772.414 722.031,772.54 699.368,748.752C687.047,735.819 681.18,720.731 672.62,705.626C667.456,696.571 661.514,687.982 654.863,679.955C640.189,662.467 622.549,650.419 609.217,632.621C603.41,624.869 600.17,612.493 596.979,603.073C584.494,599.612 576.675,601.664 565.236,607.135C582.017,581.218 602.694,563.122 634.942,563.213C667.058,563.304 682.232,582.329 701.46,604.765C724.352,631.477 756.745,657.672 794.103,653.738C803.905,652.706 814.895,648.593 817.828,638.027C819.739,630.81 815.97,622.944 812.35,616.949C803.673,620.291 802.493,623.143 801.891,632.117C779.598,619.369 768.7,608.385 767.089,582.173C768.047,574.206 769.544,570.835 774.367,564.491C790.915,546.463 811.009,542.995 834.606,547.205C821.825,535.017 807.293,523.036 794.506,511.621C787.344,505.228 753.363,477.698 750.577,472.225L750.943,471.282C752.225,470.669 756.431,467.963 757.554,467.017C767.928,458.28 783.539,447.397 785.261,433.003C786.79,420.215 779.728,410.651 772.503,401.417L771.013,407.533C769.194,405.337 766.094,399.142 764.411,396.29C760.898,390.452 756.938,384.895 752.566,379.669C723.337,344.7 678.3,318.292 634.272,307.24C621.304,303.985 603.37,301.684 590.069,300.544C595.976,310.22 602.166,322.854 605.729,333.565C595.843,330.539 579.566,323.363 572.326,315.961C557.04,300.342 546.057,280.593 533.324,262.996C514.325,236.737 496.379,210.145 478.35,183.236C467.016,200.857 456.782,219.162 447.708,238.046C431.974,271.065 420.528,309.973 421.392,346.561C421.707,359.899 420.626,364.058 425.201,376.913C380.146,396.444 330.045,443.616 296.629,479.756C309.749,475.274 334.358,471.17 348.162,470.95C309.74,515.12 288.631,557.747 276.966,615.229C289.406,603.862 304.069,593.864 318.712,585.602C318.258,589.079 317.896,592.567 317.623,596.062C315.092,632.542 321.758,658.269 346.297,686.36C342.66,674.551 340.343,662.376 339.388,650.057C336.089,606.153 348.123,566.767 376.866,533.274C357.163,536.639 334.488,546.276 318.419,558.516C334.471,519.81 356.633,489.59 390.795,465.1C398.335,459.695 404.568,455.138 412.758,450.553C398.74,448.647 371.39,450.441 357.477,453.259C360.083,451.365 362.475,449.317 364.942,447.25C381.711,433.202 399.206,419.473 417.877,408.017C431.741,399.511 447.012,392.872 461.789,386.127C456.392,376.769 452.483,369.683 449.113,359.227C436.502,320.088 460.596,257.941 479.181,223.194C483.396,227.688 491.934,240.551 495.416,245.833C509.276,266.858 522.464,288.889 533.034,311.767C535.191,316.434 543.707,337.045 542.487,340.325ZM716.261,580.493C719.302,582.598 750.987,611.489 752.198,613.565C743.058,610.137 733.112,602.339 726.61,595.087C724.335,592.55 717.061,583.781 716.261,580.493ZM862.356,545.005C866.401,549.311 873.145,555.098 877.691,559.383C891.268,465.159 878.622,356.137 821.136,277.401C820.932,286.69 820.137,295.957 818.755,305.145C815.661,323.467 811.061,341.503 805.003,359.07C801.925,368.049 797.968,377.306 795.083,386.101C810.355,403.647 816.72,422.032 807.91,444.191C818.242,461.873 818.427,482.236 813.961,501.711C819.679,507.29 826.785,513.226 832.831,518.586L862.356,545.005Z" style="fill:rgb(17,17,17);"/>
    </g>
</svg>
