<?xml version="1.0" encoding="UTF-8" standalone="no"?>
<!DOCTYPE svg PUBLIC "-//W3C//DTD SVG 1.1//EN" "http://www.w3.org/Graphics/SVG/1.1/DTD/svg11.dtd">
<svg width="100%" height="100%" viewBox="0 0 650 663" version="1.1" xmlns="http://www.w3.org/2000/svg" xmlns:xlink="http://www.w3.org/1999/xlink" xml:space="preserve" xmlns:serif="http://www.serif.com/" style="fill-rule:evenodd;clip-rule:evenodd;stroke-linejoin:round;stroke-miterlimit:2;">
    <g transform="matrix(1,0,0,1,-219.467,-218.196)">
        <path d="M711.39,582.979L714.579,584.441C756.066,603.457 799.299,618.453 841.071,636.835L868.276,648.807L856.557,676.123C802.388,802.377 688.272,879.422 550.357,880.725L544.973,880.679L540.765,880.649L540.688,880.648C535.69,880.586 530.48,880.211 525.473,879.908L524.252,879.835L523.041,879.662C499.93,876.361 499.826,877.704 477.13,872.628L477.082,872.617C417.446,859.071 362.743,829.232 319.069,786.427C254.357,723.265 220.634,640.5 219.48,550.498C219.417,546.117 219.595,541.633 219.732,537.22L219.835,534.093L219.846,533.861C219.944,531.828 220.12,529.715 220.267,527.675C228.749,399.418 313.771,284.848 434.311,239.76C464.789,228.36 496.924,221.498 529.4,219.456L534.96,219.138L543.542,218.817L548.693,218.796L565.874,218.196L584.246,219.25L631.036,228.585C644.97,232.248 658.303,236.436 672.493,242.003L672.536,242.02C749.301,272.405 811.933,330.39 848.139,404.604L848.145,404.617C851.622,411.762 855.625,420.551 858.452,427.953L868.943,455.424L766.317,496.985L766.257,497.009C752.864,502.365 735.105,508.851 722.361,514.826L716.017,517.801L716.096,518.36L717.103,529.655L717.262,537.43L717.258,537.881C717.209,543.011 717.2,548.552 716.636,553.593C715.613,563.826 713.869,573.613 711.39,582.979ZM381.347,528.242C387.26,472.886 254.557,463.451 250.195,529.76C250.063,531.588 249.899,533.483 249.811,535.307L249.717,538.178C249.594,542.128 249.419,546.164 249.477,550.107C250.527,632.058 281.114,707.47 340.043,764.977C379.754,803.907 429.497,831.044 483.727,843.362C505.441,848.219 505.458,846.846 527.283,849.963C531.817,850.237 536.533,850.594 541.059,850.65L545.21,850.68L550.344,850.724C675.728,849.539 779.643,779.303 828.987,664.294C787.076,645.85 743.705,630.792 702.079,611.713C700.688,612.414 690.891,630.233 688.993,633.035C658.33,678.57 607.406,706.314 552.519,707.385C544.327,707.458 536.993,706.926 528.872,706.228C444.296,694.655 383.589,627.455 381.111,541.968L381.347,528.242ZM709.188,486.695C709.339,487.046 709.486,487.371 709.625,487.664C722.837,481.469 741.232,474.707 755.117,469.154L830.426,438.656C827.892,432.021 824.287,424.15 821.17,417.745C788.253,350.272 731.3,297.544 661.495,269.914C637.279,260.414 610.293,252.078 584.28,249.377L584.3,267.634C584.302,269.765 584.428,271.92 584.666,274.096C595.199,313.174 622.723,355.648 645.511,386.819C661.328,407.906 678.641,428.214 692.69,450.536C695.94,455.809 698.85,461.281 701.402,466.919C704.347,473.07 706.947,479.575 709.188,486.695ZM479.276,421.081C450.552,438.724 429.962,462.366 418.911,496.326C407.63,531.199 410.667,569.126 427.354,601.759C444.098,634.302 473.095,658.849 507.954,669.992C514.203,671.978 521.974,673.909 528.5,674.783C536.413,676.376 556.15,677.364 563.998,675.592C576.693,675.383 590.996,670.751 602.435,665.882C649.844,645.703 681.729,601.715 686.803,550.426C687.281,546.303 687.219,541.777 687.259,537.594L687.13,531.295L686.284,521.8C684.889,511.968 682.949,503.408 680.508,495.692C679.176,492.254 677.745,488.263 676.722,485.637L676.695,485.566C675.968,483.674 675.193,481.803 674.369,479.952C665.028,460.038 651.569,444.773 635.161,422.939C630.253,416.61 626.336,411.423 621.588,404.89C599.857,375.852 573.471,338.874 561.197,303.685C559.386,306.148 557.343,308.905 555.639,311.077L555.932,310.921C545.476,326.435 540.282,344.348 540.792,363.041C541.082,373.694 543.915,376.857 540.84,387.331L535.52,405.456L521.637,407.716C522.417,409.365 523.201,410.852 523.746,411.492C539.63,441.297 578.425,465.605 566.658,503.721C562.74,516.604 553.759,527.345 541.774,533.483C529.806,539.589 515.89,540.641 503.14,536.403C490.571,532.186 480.207,523.122 474.355,511.226C465.079,492.425 468.901,469.192 475.449,450.163C479.719,438.076 485.144,426.43 491.647,415.388C487.385,417.062 483.258,418.965 479.276,421.081ZM509.755,445.375C507.535,450.168 505.537,455.068 503.77,460.059C499.698,471.909 495.492,486.263 501.266,497.968L501.274,497.984C503.587,502.686 507.679,506.271 512.668,507.956C523.152,511.401 534.751,505.53 537.974,494.932L537.993,494.871C540.06,488.177 538.085,482.441 534.457,476.565C527.492,465.284 517.564,456.046 509.755,445.375Z" style="fill:white;"/>
        <path d="M249.477,550.107C249.419,546.164 249.594,542.128 249.717,538.178L249.811,535.307C249.899,533.483 250.063,531.588 250.195,529.76C254.557,463.451 280.768,400.456 324.729,350.622C377.391,290.818 451.669,254.404 531.198,249.402L536.376,249.106L544.163,248.815L549.56,248.793C556.93,248.806 564.299,248.882 571.667,249.02C565.474,255.787 560.401,260.185 554.3,267.667L551.709,269.891L548.012,273.39L544.523,276.797L543.061,278.792L540.652,281.361L540.275,281.5C537.995,284.569 533.385,291.108 531.019,293.818L531.054,294.155C516.759,315.366 509.961,338.503 510.808,364.036C510.914,367.231 512.596,377.038 512.055,378.881C447.738,389.351 401.034,437.447 385.779,499.681C383.336,509.649 382.422,518.178 381.347,528.242L381.111,541.968C383.589,627.455 444.296,694.655 528.872,706.228C536.993,706.926 544.327,707.458 552.519,707.385C607.406,706.314 658.33,678.57 688.993,633.035C690.891,630.233 700.688,612.414 702.079,611.713C713.293,616.853 725.13,621.269 736.468,626.134C766.831,639.162 798.814,651.016 828.987,664.294C779.643,779.303 675.728,849.539 550.344,850.724L545.21,850.68L541.059,850.65C536.533,850.594 531.817,850.237 527.283,849.963C523.075,849.362 517.508,849.036 512.971,848.462C503.148,847.225 493.389,845.523 483.727,843.362C429.497,831.044 379.754,803.907 340.043,764.977C281.114,707.47 250.527,632.058 249.477,550.107ZM580.42,249.065C587.127,249.444 594.759,250.771 605.898,253.321C625.454,257.798 642.685,262.535 661.495,269.914C731.3,297.544 788.253,350.272 821.17,417.745C824.287,424.15 827.892,432.021 830.426,438.656L755.117,469.154C741.232,474.707 722.837,481.469 709.625,487.664C708.197,484.667 706.05,478.274 704.702,474.815C701.459,466.367 697.438,458.239 692.69,450.536C681.283,432.412 665.688,413.746 652.698,396.5C624.153,358.604 583.137,298.011 580.42,249.065Z" style="fill:rgb(0,9,60);"/>
        <path d="M528.5,674.783C521.974,673.909 514.203,671.978 507.954,669.992C473.095,658.849 444.098,634.302 427.354,601.759C410.667,569.126 407.63,531.199 418.911,496.326C431.621,457.268 456.949,431.858 492.757,413.526C485.759,425.119 479.96,437.395 475.449,450.163C468.901,469.192 465.079,492.425 474.355,511.226C480.207,523.122 490.571,532.186 503.14,536.403C515.89,540.641 529.806,539.589 541.774,533.483C553.759,527.345 562.74,516.604 566.658,503.721C575.503,475.071 557.78,456.423 540.732,436.251C534.309,428.651 528.424,420.27 523.746,411.492C522.472,409.996 519.896,403.88 519.11,401.867C515.823,394.901 513.612,381.671 512.055,378.881C512.596,377.038 510.914,367.231 510.808,364.036C509.961,338.503 516.759,315.366 531.054,294.155L531.019,293.818C533.385,291.108 537.995,284.569 540.275,281.5L540.652,281.361L543.061,278.792L544.523,276.797L548.012,273.39L551.709,269.891L554.3,267.667C554.357,318.86 605.072,382.794 634.639,422.243C660.895,457.275 679.689,475.308 686.284,521.8L687.13,531.295L687.259,537.594C687.219,541.777 687.281,546.303 686.803,550.426C682.973,589.143 666.651,620.128 636.717,645.482C619.444,660.111 586.811,675.217 563.998,675.592C556.15,677.364 536.413,676.376 528.5,674.783Z" style="fill:rgb(249,78,0);"/>
    </g>
</svg>
