<svg width="100%" height="100%" viewBox="0 0 1025 755" version="1.1" xmlns="http://www.w3.org/2000/svg" xmlns:xlink="http://www.w3.org/1999/xlink" xml:space="preserve" xmlns:serif="http://www.serif.com/" style="fill-rule:evenodd;clip-rule:evenodd;stroke-linejoin:round;stroke-miterlimit:2;">
    <g transform="matrix(1,0,0,1,-225.12,-130.865)">
        <path d="M1175.65,490.517C1195.57,506.246 1215.65,521.078 1234.67,538.059C1244.21,546.575 1248.25,555.574 1249.23,564.33C1250.18,572.837 1248.08,581.423 1243.74,589.696C1237.43,601.731 1225.86,613.258 1217.43,622.577C1211.69,628.928 1207.84,636.786 1200.41,642.468C1194.84,646.734 1190.83,649.237 1185.41,651.419C1173.62,673.597 1148.63,693.184 1124.8,695.311C1108.99,696.721 1084.39,692.779 1064.73,688.865C1064.49,690.004 1064.25,691.142 1064,692.278C1074.81,698.074 1086.06,704.529 1096.32,710.182L1105.99,715.503L1103.79,726.314C1093.86,775.078 1085,824.651 1074.84,873.214L1072.35,885.147L904.308,885.103L736.368,885.042L739.98,867.091C752.882,802.952 766.105,738.877 779.65,674.871C743.435,711.125 709.494,753.48 679.773,794.975L665.154,815.383L654.108,792.84C642.562,769.278 631.026,742.298 620.159,718.193L568.122,601.971L556.355,656.565L530.983,775.508L530.975,775.544C523.883,808 517.037,840.507 510.435,873.065L507.972,885.208L495.583,885.083C412.214,884.243 327.267,885.037 243.762,885.068L225.12,885.075L229.102,866.864C239.881,817.571 250.049,768.145 259.603,718.6L261.002,711.349L267.601,708.035C280.356,701.631 294.746,695.175 308.193,688.955L356.011,451.505L356.014,451.494C364.933,407.547 375.483,359.045 383.336,314.207C371.802,310.049 360.241,305.971 348.652,301.971L336.383,297.736L338.811,284.986C347.771,237.934 358.643,190.848 366.666,143.645L368.745,131.413L381.15,131.162C410.615,130.565 441.88,131.122 471.535,131.121L661.049,131.132L664.864,140.444C690.667,203.42 720.621,266.597 747.843,329.649C794.334,265.529 842.424,201.922 888.085,137.565L892.436,131.433L899.952,131.249C934.429,130.407 972.38,131.212 1007.12,131.212L1218.3,131.301L1214.78,149.192C1205.51,196.221 1194.8,243.401 1185.82,290.302L1184.4,297.745L1177.56,301.015C1167.35,305.9 1148.6,312.212 1134.71,317.443C1128.26,346.505 1121.41,376.517 1115.75,405.655C1133.77,422.503 1153.38,438.716 1168.73,457.756C1175.94,466.69 1178.82,477.701 1176.6,487.272C1176.34,488.364 1176.03,489.448 1175.65,490.517Z" style="fill:white;" />
        <path d="M381.454,146.159C410.82,145.564 441.98,146.122 471.535,146.121L650.984,146.131C680.151,217.317 714.616,288.759 744.455,359.988C795.719,288.51 849.521,217.841 900.319,146.245C934.678,145.405 972.499,146.212 1007.12,146.212L1200.06,146.293C1190.79,193.348 1180.07,240.555 1171.09,287.483C1159.15,293.194 1135.34,300.846 1121.8,306.382C1114.24,340.662 1105.92,376.506 1099.48,410.889C1118.57,429.354 1140.41,446.528 1157.06,467.175C1163.91,475.662 1165.14,487.089 1154.58,493.336C1157.44,495.119 1160.22,497.386 1162.85,499.514C1183.68,516.096 1204.77,531.475 1224.68,549.248C1249.22,571.159 1221.66,595.545 1206.31,612.514C1201.16,618.207 1197.96,625.46 1191.3,630.553C1185.38,635.082 1181.73,637.095 1174.52,639.362C1166.44,659.298 1144.55,678.489 1123.47,680.37C1104.45,682.067 1071.94,675.235 1052.9,671.054C1051.26,680.755 1048.99,690.647 1046.91,700.286C1060.49,707.113 1075.64,715.917 1089.09,723.322C1079.17,772.06 1070.31,821.607 1060.16,870.144L904.313,870.103L754.685,870.049C770.676,790.554 787.161,711.159 804.141,631.87C795.611,638.505 782.682,650.87 774.772,658.599C735.84,696.638 699.328,741.913 667.578,786.24C656.1,762.816 644.637,735.992 633.841,712.046L562.963,553.741C561.242,564.047 558.182,576.747 555.982,587.106L541.688,653.42L516.321,772.342C509.213,804.871 502.351,837.452 495.734,870.084C412.313,869.243 327.313,870.037 243.756,870.068C254.561,820.654 264.754,771.107 274.332,721.44C289.165,713.992 306.229,706.479 321.401,699.351L370.714,454.477C380.488,406.317 392.208,352.704 400.23,304.383C384.719,298.71 369.157,293.18 353.546,287.792C362.525,240.643 373.414,193.459 381.454,146.159Z" style="fill:rgb(5,72,140);fill-rule:nonzero;"  data-color="color-2"/>
        <path d="M833.367,474.744C818.516,453.599 805.476,423.395 811.156,397.722C825.004,335.135 881.917,383.387 905.746,404.7C903.481,392.793 902.16,387.914 895.623,377.258C917.918,376.934 939.299,376.443 961.573,378.69C992.142,381.774 1021.22,389.904 1048.66,403.848C1081.78,420.598 1110.29,444.856 1137.12,470.194C1139.06,472.021 1143,476.534 1142.76,479.067C1142.23,484.478 1129.66,489.982 1125.67,491.89C1132.7,499.188 1148.77,511.417 1157.37,518.027C1170.98,528.477 1183.43,538.929 1196.69,549.644C1184,550.443 1169.45,553.228 1157.68,558.037C1140.01,565.254 1146.02,573.212 1157.8,581.901C1161.76,584.816 1166.03,587.281 1170.54,589.25C1173.18,590.384 1186.42,594.781 1187.27,595.796C1187.71,602.085 1183.86,609.316 1179.69,613.993C1165.34,630.09 1139.01,626.734 1119.68,623.354C1095.04,619.046 1059.78,600.635 1038.09,621.184C1036.33,622.977 1035.35,624.611 1035.32,627.072C1037.86,629.598 1050.47,629.386 1055.58,630.063C1066.99,631.56 1078.3,633.75 1089.45,636.621C1112.06,642.5 1129.8,650.827 1153.06,642.964C1130.33,673.03 1104.99,657.638 1074.07,651.776C1051.95,647.58 1030.03,641.535 1007.68,638.475C995.914,639.059 981.738,644.448 969.979,645.957C931.399,650.907 880.214,650.799 846.744,628.402C819.097,609.901 832.439,557.878 841.145,532.085C825.63,550.408 817.97,567.154 813.672,590.68C767.503,621.265 707.372,684.974 674.367,730.426C659.179,696.483 644.041,661.953 628.471,628.224C630.673,624.312 632.788,619.754 634.79,615.681C669.595,544.874 710.968,475.516 766.625,418.735C761.336,419.737 776.881,408.371 791.19,405.232C793.187,428.644 799.21,448.409 818.015,464.453C822.725,468.454 827.876,471.907 833.367,474.744Z" style="fill:white;fill-rule:nonzero;"/>
        <path d="M406.13,177.795L631.746,177.821L741.265,425.278L750.728,421.581C755.911,419.64 766.233,414.561 771.522,413.559C715.865,470.34 669.595,544.874 634.79,615.681C632.788,619.754 630.673,624.312 628.471,628.224L579.125,518.169C571.219,500.297 561.051,474.848 552.593,458.05L501.232,700.061C491.285,746.357 481.874,793.455 471.399,839.543L279.932,839.588C287.124,807.415 293.7,774.799 300.601,742.518C315.111,735.829 333.033,728.145 346.985,720.841C350.494,706.523 353.601,689.17 356.561,674.508L373.487,590.535C393.991,488.771 413.793,385.003 435.45,283.627C421.734,277.727 402.547,271.407 388.115,265.814C390.511,257.404 392.977,243.578 394.777,234.74L406.13,177.795ZM914.253,177.786L1163.31,177.877L1145.72,265.615C1129.29,271.835 1112.19,277.716 1095.61,283.634L1073.98,393.508C1048.17,375.751 1016.06,366.093 985.682,359.981C949.434,354.693 912.641,354.287 876.285,358.774C842.037,337.495 805.446,341.923 792.835,383.905C778.704,387.308 768.235,390.686 754.673,395.498C797.182,339.245 837.791,281.151 880.066,224.67C891.562,209.311 903.398,193.541 914.253,177.786ZM829.598,646.404C867.411,672.298 920.06,673.467 964.13,669.151C977.224,667.869 989.796,663.372 1002.47,662.277C1006.66,661.915 1018.66,664.504 1023.39,665.324C1019.7,679.954 1016.25,700.884 1013.49,716.073L1054.88,738.831C1054.15,746.234 1037,837.588 1035.63,839.612C954.534,838.604 871.711,839.7 790.402,839.511L829.598,646.404Z" style="fill:rgb(202,30,48);"  data-color="color-1"/>
        <path d="M1000.03,468.233C1018.25,466.336 1039.92,472.354 1056.47,479.733C1073.21,487.197 1082.41,491.096 1101.06,490.627C1096.88,497.742 1094.91,499.92 1087.43,503.134C1080.31,503.917 1077.77,503.749 1070.87,501.822C1049.92,526.788 1012.06,512.123 1017.12,477.632C1010.4,475.175 1005.35,473.059 1000.03,468.233ZM841.68,398.509C859.43,397.664 871.434,412.031 879.442,426.099C869.497,421.292 863.516,418.849 852.59,417.164C838.408,416.701 835.059,425.976 831.578,437.604C823.705,421.891 822.671,405.372 841.68,398.509Z" style="fill:rgb(5,72,140);" data-color="color-2"/>
    </g>
</svg>
