<svg width="100%" height="100%" viewBox="0 0 412 468" version="1.1" xmlns="http://www.w3.org/2000/svg" xmlns:xlink="http://www.w3.org/1999/xlink" xml:space="preserve" xmlns:serif="http://www.serif.com/" style="fill-rule:evenodd;clip-rule:evenodd;stroke-linejoin:round;stroke-miterlimit:2;">
    <g transform="matrix(1,0,0,1,-34.5725,-22.1626)">
        <path d="M150.706,82.508C149.681,79.951 147.173,78.134 144.262,78.134L140.309,78.134C132.718,78.134 126.075,71.491 126.075,63.899L126.075,46.397C126.075,38.805 132.718,32.163 140.309,32.163L217.94,32.163C225.532,32.163 232.175,38.805 232.175,46.397L232.175,63.899C232.175,71.491 225.532,78.134 217.94,78.134L213.988,78.134C211.098,78.134 208.607,79.924 207.567,82.45C228.859,82.313 266.411,81.995 277.654,82.335C280.103,82.409 282.717,82.41 284.744,82.948C287.113,83.576 289.104,84.712 290.705,86.289C292.848,88.401 294.662,91.427 294.557,96.353C294.204,112.993 294.891,129.629 294.327,146.269C294.202,149.972 292.937,152.664 291.266,154.721C288.379,158.273 283.389,160.089 278.281,160.048C273.121,160.133 269.875,158.161 267.201,155.241C266.215,154.164 265.407,152.769 264.313,151.438L264.305,151.429C260.615,146.913 256.298,143.229 250.538,141.806C243.546,140.077 224.888,139.639 207.142,139.523L207.237,196.407C209.588,196.372 211.296,196.319 212.064,196.238C213.632,196.073 215.24,195.739 216.678,195.082C219.705,193.698 221.326,190.453 222.038,187.295C222.634,184.647 222.866,181.783 223.873,179.254C225.328,175.599 227.1,173.688 230.925,172.344C232.222,171.888 240.576,171.397 246.007,171.786C250.074,172.078 253.052,173.233 253.862,173.728C256.818,175.535 258.861,178.746 259.361,182.113C259.629,183.921 259.525,186.021 259.523,187.86L259.515,196.255C259.549,206.88 259.488,217.505 259.335,228.126C259.233,235.404 259.22,242.683 259.297,249.977C259.33,252.051 259.675,266.432 259.155,269.817C258.537,273.84 256.413,275.826 255.515,276.582C254.537,277.405 253.114,278.267 251.262,278.878L307.322,278.878C309.297,278.878 312.354,279.603 314.823,281.414C317.834,283.622 319.836,287.051 319.862,291.041L320.145,311.959L320.145,312.026C320.145,314.205 320.107,318.767 318.802,321.726C317.18,325.402 314.382,327.923 310.376,328.897C308.291,329.405 305.559,329.547 302.104,328.268C300.708,327.857 293.812,325.922 284.858,325.025L284.858,406.03C284.858,406.152 284.888,406.271 284.931,406.396L289.088,415.541L289.131,415.641C290.324,418.425 290.517,421.2 289.948,423.704L357.393,423.704C366.301,423.704 379.816,420.005 391.537,408.284C397.088,402.733 406.339,402.733 412.033,408.427C412.033,408.427 432.112,430.203 432.089,430.179C438.074,436.344 436.523,445.351 431.697,449.758C411.78,469.283 387.855,479.273 357.393,479.273L139.463,479.273C131.871,479.273 125.228,472.63 125.228,465.038L125.228,436.244C125.228,434.734 125.507,433.163 126.06,431.659L119.012,431.66C99.668,431.663 80.314,431.678 60.969,431.645C59.455,431.642 55.328,431.416 53.114,430.69C50.668,429.888 48.974,428.533 47.912,427.3C46.073,425.166 44.989,422.308 44.809,419.508C44.618,416.564 44.669,413.427 44.652,410.395L44.653,410.319C44.683,407.136 44.49,403.935 44.605,400.754C44.749,396.772 45.914,394.215 47.301,392.335C49.313,389.608 52.297,387.646 57.484,386.845C60.817,386.33 64.336,385.521 66.897,383.245C70.849,379.729 70.945,373.552 71.156,368.522C71.668,356.341 71.309,344.027 71.283,331.816L71.255,236.507L71.243,169.989L71.236,148.574C71.234,143.981 71.332,139.342 71.053,134.757C70.926,132.665 70.655,130.751 69.709,128.871C68.841,127.148 67.221,126.617 65.744,126.226C63.517,125.638 61.264,125.461 59.38,125.219C53.861,124.512 49.923,122.524 47.964,120.323L46.529,118.711L45.886,116.65C45.436,115.203 45.207,113.832 45.126,112.321C44.999,109.936 45.261,91.591 45.719,90.047C46.86,86.213 48.498,84.48 51.866,82.56L53.604,81.569L55.59,81.324C57.873,81.041 61.813,81.318 64.282,81.493L64.322,81.496C67.591,81.754 70.863,81.961 74.155,82.118C84.533,82.541 94.186,82.508 104.553,82.51L150.706,82.508ZM274.858,406.03L274.858,315.696C274.858,315.132 275.423,314.567 275.987,314.567C291.796,314.567 305.346,318.801 305.346,318.801C310.992,321.06 310.145,314.285 310.145,312.026L309.862,291.137C309.862,289.725 308.169,288.878 307.322,288.878L207.954,288.878C206.825,288.878 205.414,289.725 205.414,291.419L205.414,312.309C205.414,314.849 205.132,320.495 210.213,319.084C210.213,319.084 220.94,314.567 239.571,314.849C240.136,314.849 240.701,315.414 240.701,315.978L240.983,406.03C240.983,407.442 240.701,408.571 240.136,409.982L236.184,419.58C235.337,421.274 236.748,423.532 238.724,423.532L277.399,423.532C279.375,423.532 280.786,421.556 279.939,419.58L275.705,410.264C275.14,408.853 274.858,407.442 274.858,406.03ZM207.374,278.893C207.569,278.883 207.763,278.878 207.954,278.878L231.978,278.878C231.455,278.732 230.962,278.569 230.551,278.392C228.85,277.662 227.646,276.668 226.894,275.875L225.754,274.671L225.063,273.164C224.072,271.003 223.473,268.69 223.045,266.311C222.75,264.671 222.681,262.959 222.037,261.364L222.016,261.31C221.61,260.268 221.266,259.579 220.745,258.82C219.901,258.505 217.606,257.676 215.789,257.268C213.271,256.702 210.403,256.232 207.336,255.839L207.374,278.893ZM150.44,386.873L150.775,253.675L136.68,253.666C136.688,259.272 136.649,264.914 136.659,270.423L136.849,343.153L136.929,360.836C136.953,364.817 136.853,369.054 137.342,373.126C137.814,377.065 138.714,380.957 142.234,383.514C144.392,385.081 147.555,386.203 150.44,386.873ZM160.8,243.706L160.352,421.848C160.352,435.398 143.697,432.857 137.204,433.422C135.793,433.704 135.228,435.115 135.228,436.244L135.228,465.038C135.228,467.297 137.204,469.273 139.463,469.273L357.393,469.273C385.058,469.273 406.795,460.239 424.861,442.455C426.273,441.326 426.555,438.785 424.861,437.091L404.819,415.355C403.125,413.661 400.302,413.661 398.608,415.355C384.493,429.469 368.12,433.704 357.393,433.704L215.682,433.704C206.084,433.704 197.615,432.857 197.615,422.977L197.317,244.807C211.294,245.855 224.751,247.888 228.003,251.821C229.598,253.859 230.367,255.202 231.332,257.675C232.794,261.297 232.547,265.494 234.153,268.996C234.49,269.352 236.161,269.663 236.478,269.67C239.018,269.722 247.306,270.421 249.076,268.931C249.849,268.28 249.327,252.066 249.298,250.091C249.22,242.722 249.232,235.353 249.336,227.985C249.489,217.412 249.549,206.838 249.515,196.265L249.523,187.851C249.524,186.486 249.668,184.924 249.469,183.581C249.391,183.059 249.105,182.54 248.646,182.259C247.514,181.568 235.596,181.302 234.239,181.779C233.622,181.996 233.398,182.363 233.163,182.953C232.347,185.002 232.276,187.347 231.793,189.493C230.415,195.613 226.703,201.494 220.836,204.176C218.422,205.28 215.742,205.907 213.111,206.183C211.363,206.368 205.055,206.451 197.253,206.482L197.125,129.485C218.213,129.519 244.23,129.945 252.938,132.098C260.864,134.057 266.97,138.886 272.048,145.101C273.974,147.445 274.806,150.136 278.212,150.048C281.112,150.095 284.211,149.525 284.333,145.931C284.895,129.332 284.207,112.738 284.559,96.141C284.652,91.774 280.749,92.433 277.352,92.33C263.902,91.924 212.649,92.467 197.063,92.505L197.051,85.071C197.051,75.756 204.672,68.134 213.988,68.134L217.94,68.134C220.199,68.134 222.175,66.158 222.175,63.899L222.175,46.397C222.175,44.139 220.199,42.163 217.94,42.163L140.309,42.163C138.051,42.163 136.075,44.139 136.075,46.397L136.075,63.899C136.075,66.158 138.051,68.134 140.309,68.134L144.262,68.134C153.577,68.134 161.199,75.756 161.199,85.071L161.181,92.508L104.554,92.51C94.029,92.508 84.232,92.538 73.695,92.108C70.306,91.946 66.919,91.732 63.536,91.465C61.649,91.331 58.591,91.029 56.818,91.248C56.039,91.692 55.568,92.013 55.304,92.9C54.915,94.207 55.004,109.767 55.112,111.788C55.147,112.446 55.237,113.045 55.434,113.675C58.307,116.903 73.021,113.215 78.64,124.374C80.218,127.508 80.823,130.663 81.035,134.151C81.325,138.935 81.233,143.776 81.236,148.569L81.243,169.987L81.255,236.504L81.283,331.804C81.31,344.152 81.666,356.615 81.148,368.941C80.83,376.511 79.49,385.427 73.542,390.717C69.547,394.269 64.212,395.924 59.011,396.728C56.039,397.187 54.718,397.805 54.598,401.115C54.487,404.207 54.682,407.32 54.652,410.415C54.668,413.178 54.61,416.112 54.788,418.865C54.832,419.543 55.042,420.256 55.488,420.773C56.214,421.616 59.844,421.643 60.988,421.645C80.325,421.678 99.673,421.663 119.01,421.66L140.126,421.656C144.22,421.655 148.327,421.702 152.415,421.539C153.43,421.556 154.936,421.16 154.96,419.896C155.069,413.957 155.027,407.982 155.003,402.043C154.922,398.453 154.895,397.786 151.238,397.211C146.469,396.461 140.277,394.452 136.358,391.605C126.412,384.382 126.997,371.763 126.929,360.887L126.849,343.188L126.659,270.444C126.643,261.624 126.756,252.461 126.589,243.66L153.92,243.677C156.204,243.68 158.509,243.7 160.8,243.706ZM161.087,129.559L160.894,206.405C159.13,206.396 157.84,206.391 157.183,206.39L126.71,206.395L126.643,129.543L161.087,129.559ZM150.919,196.391L151.062,139.554C151.062,139.554 136.652,139.548 136.652,139.548L136.701,196.393L150.919,196.391ZM226.307,423.704C225.646,421.029 225.848,418.164 227.022,415.567C227.022,415.567 230.858,406.25 230.851,406.268C230.889,406.173 230.982,406.125 230.983,406.032L230.729,325.106C220.068,325.919 214.093,328.3 214.093,328.3L213.505,328.548L212.889,328.719C210.825,329.292 209.026,329.406 207.459,329.255L207.615,422.968L207.615,422.977C207.615,422.995 207.615,423.014 207.616,423.033C208.051,423.156 208.617,423.303 209.037,423.366C211.061,423.671 213.331,423.704 215.682,423.704L226.307,423.704Z" style="fill:rgb(30,0,150);" data-color="color-2"/>
        <path d="M34.653,410.224C34.685,406.952 34.493,403.662 34.611,400.394C34.851,393.751 36.941,389.532 39.255,386.397C42.592,381.875 47.356,378.29 55.958,376.962C57.431,376.735 59.119,376.778 60.252,375.772C60.862,375.228 60.686,374.291 60.802,373.465C61.058,371.66 61.094,369.803 61.165,368.102C61.671,356.068 61.309,343.901 61.283,331.828L61.255,236.509L61.243,169.992L61.236,148.58C61.234,144.226 61.336,139.829 61.079,135.483C60.028,135.335 59.014,135.254 58.109,135.138C49.483,134.033 43.556,130.412 40.494,126.972L37.624,123.747L36.339,119.625C35.634,117.361 35.267,115.218 35.141,112.854C34.994,110.106 35.605,88.977 36.134,87.197L36.135,87.195C38.153,80.412 40.955,77.268 46.915,73.872L50.391,71.891L54.362,71.399C57.142,71.055 61.931,71.302 64.952,71.515L64.989,71.518C65.016,71.52 65.043,71.522 65.07,71.524C65.083,71.525 65.096,71.526 65.109,71.527C68.263,71.776 71.421,71.976 74.613,72.128C84.832,72.543 94.342,72.508 104.553,72.51L117.779,72.509C116.683,69.807 116.075,66.896 116.075,63.899L116.075,46.397C116.075,33.472 127.384,22.163 140.309,22.163L217.94,22.163C230.865,22.163 242.175,33.472 242.175,46.397L242.175,63.899C242.175,66.798 241.606,69.615 240.578,72.242C256.352,72.163 271.487,72.144 277.956,72.339C281.191,72.437 284.63,72.572 287.309,73.282C291.455,74.382 294.922,76.405 297.724,79.166C301.441,82.83 304.736,88.021 304.555,96.565C304.201,113.247 304.886,129.925 304.321,146.608C304.107,152.936 301.882,157.513 299.026,161.028C294.381,166.744 286.538,170.081 278.347,170.048C269.738,170.165 264.301,166.88 259.826,161.995C258.73,160.797 257.803,159.267 256.586,157.786L264.313,161.438L256.562,157.757C254.258,154.938 251.734,152.402 248.138,151.513C242.846,150.205 230.486,149.786 217.158,149.615L217.193,170.407C219.536,166.885 222.649,164.653 227.611,162.909C229.256,162.331 239.834,161.318 246.722,161.812C253.162,162.274 257.796,164.412 259.078,165.196C264.53,168.529 268.33,174.434 269.252,180.645C269.59,182.918 269.525,185.556 269.523,187.869L269.515,196.246C269.549,206.922 269.488,217.598 269.334,228.267C269.233,235.454 269.22,242.643 269.296,249.846C269.327,251.824 269.523,263.197 269.244,268.878L307.322,268.878C310.849,268.878 316.328,270.116 320.737,273.35C326.224,277.374 329.799,283.66 329.861,290.929C329.861,290.929 330.144,311.809 330.144,311.824C330.144,311.869 330.145,311.914 330.145,311.961C330.145,311.983 330.144,312.006 330.142,312.029L330.145,312.026C330.145,315.121 329.805,321.559 327.951,325.762C325.033,332.378 319.948,336.861 312.74,338.614C309.259,339.461 304.715,339.811 299.002,337.781C298.286,337.577 296.843,337.186 294.858,336.745L294.858,404.069C294.858,404.069 298.183,411.383 298.192,411.403C298.221,411.469 298.251,411.536 298.281,411.605C298.295,411.638 298.307,411.673 298.318,411.709L298.322,411.702C298.609,412.37 298.861,413.038 299.081,413.704L357.393,413.704C364.483,413.704 375.138,410.541 384.466,401.213C393.847,391.832 409.481,391.733 419.247,401.499L419.385,401.648C419.385,401.648 435.65,419.288 438.886,422.798C439.017,422.94 439.14,423.081 439.257,423.221L439.264,423.214L439.273,423.223C449.584,433.854 446.829,449.356 438.601,456.994C416.819,478.303 390.687,489.273 357.393,489.273L139.463,489.273C126.538,489.273 115.228,477.963 115.228,465.038L115.228,441.661C97.139,441.665 79.04,441.676 60.95,441.645C58.836,441.641 53.089,441.205 49.998,440.192C45.44,438.698 42.315,436.125 40.335,433.827C37.104,430.075 35.147,425.073 34.829,420.152C34.627,417.018 34.671,413.679 34.653,410.452C34.728,418.884 34.679,408.112 34.653,410.224ZM34.653,410.452C34.652,410.377 34.653,410.302 34.653,410.226L34.653,410.224L34.653,410.452ZM319.872,321.69C319.701,321.479 319.455,321.177 319.152,320.809C320.114,317.892 320.145,313.99 320.145,312.026L320.145,311.959L319.862,291.041C319.836,287.051 317.834,283.622 314.823,281.414C312.354,279.603 309.297,278.878 307.322,278.878L251.262,278.878C253.114,278.267 254.537,277.405 255.515,276.582C256.413,275.826 258.537,273.84 259.155,269.817C259.675,266.432 259.33,252.051 259.297,249.977C259.22,242.683 259.233,235.404 259.335,228.126C259.488,217.505 259.549,206.88 259.515,196.255L259.523,187.86C259.525,186.021 259.629,183.921 259.361,182.113C258.861,178.746 256.818,175.535 253.862,173.728C253.052,173.233 250.074,172.078 246.007,171.786C240.576,171.397 232.222,171.888 230.925,172.344C227.1,173.688 225.328,175.599 223.873,179.254C222.866,181.783 222.634,184.647 222.038,187.295C221.326,190.453 219.705,193.698 216.678,195.082C215.24,195.739 213.632,196.073 212.064,196.238C211.296,196.319 209.588,196.372 207.237,196.407L207.142,139.523C224.888,139.639 243.546,140.077 250.538,141.806C256.298,143.229 260.615,146.913 264.305,151.429L264.313,151.438C265.407,152.769 266.215,154.164 267.201,155.241C269.875,158.161 273.121,160.133 278.281,160.048C283.389,160.089 288.379,158.273 291.266,154.721C292.937,152.664 294.202,149.972 294.327,146.269C294.891,129.629 294.204,112.993 294.557,96.353C294.662,91.427 292.848,88.401 290.705,86.289C289.104,84.712 287.113,83.576 284.744,82.948C282.717,82.41 280.103,82.409 277.654,82.335C266.411,81.995 228.859,82.313 207.567,82.45C208.607,79.924 211.098,78.134 213.988,78.134L217.94,78.134C225.532,78.134 232.175,71.491 232.175,63.899L232.175,46.397C232.175,38.805 225.532,32.163 217.94,32.163L140.309,32.163C132.718,32.163 126.075,38.805 126.075,46.397L126.075,63.899C126.075,71.491 132.718,78.134 140.309,78.134L144.262,78.134C147.173,78.134 149.681,79.951 150.706,82.508L104.553,82.51C94.186,82.508 84.533,82.541 74.155,82.118C70.863,81.961 67.591,81.754 64.322,81.496L64.282,81.493C61.813,81.318 57.873,81.041 55.59,81.324L53.604,81.569L51.866,82.56C48.498,84.48 46.86,86.213 45.719,90.047C45.261,91.591 44.999,109.936 45.126,112.321C45.207,113.832 45.436,115.203 45.886,116.65L46.529,118.711L47.964,120.323C49.923,122.524 53.861,124.512 59.38,125.219C61.264,125.461 63.517,125.638 65.744,126.226C67.221,126.617 68.841,127.148 69.709,128.871C70.655,130.751 70.926,132.665 71.053,134.757C71.332,139.342 71.234,143.981 71.236,148.574L71.243,169.989L71.255,236.507L71.283,331.816C71.309,344.027 71.668,356.341 71.156,368.522C70.945,373.552 70.849,379.729 66.897,383.245C64.336,385.521 60.817,386.33 57.484,386.845C52.297,387.646 49.313,389.608 47.301,392.335C45.914,394.215 44.749,396.772 44.605,400.754C44.49,403.935 44.683,407.136 44.653,410.319L44.652,410.395C44.669,413.427 44.618,416.564 44.809,419.508C44.822,419.71 44.839,419.911 44.862,420.113C44.864,420.134 44.866,420.156 44.869,420.178C45.166,422.758 46.219,425.335 47.912,427.3C48.974,428.533 50.668,429.888 53.114,430.69C55.328,431.416 59.455,431.642 60.969,431.645C80.314,431.678 99.668,431.663 119.012,431.66L126.06,431.659C125.507,433.163 125.228,434.734 125.228,436.244L125.228,465.038C125.228,472.63 131.871,479.273 139.463,479.273L357.393,479.273C387.855,479.273 411.78,469.283 431.697,449.758C436.523,445.351 438.074,436.344 432.089,430.179C432.112,430.203 412.033,408.427 412.033,408.427C406.339,402.733 397.088,402.733 391.537,408.284C379.816,420.005 366.301,423.704 357.393,423.704L289.948,423.704C290.517,421.2 290.324,418.425 289.131,415.641L289.088,415.541L284.931,406.396C284.888,406.271 284.858,406.152 284.858,406.03L284.858,325.025C293.812,325.922 300.708,327.857 302.104,328.268C305.559,329.547 308.291,329.405 310.376,328.897C314.382,327.923 317.18,325.402 318.802,321.726C319.435,321.869 319.896,321.931 320.069,321.951L319.095,320.977C319.1,320.963 319.104,320.95 319.109,320.937L319.872,321.69ZM320.069,321.951L320.145,322.026C320.145,322.026 320.124,322.001 320.085,321.952L320.069,321.951ZM320.085,321.952C320.124,321.957 320.145,321.959 320.145,321.959L319.872,321.69C319.967,321.807 320.039,321.895 320.085,321.952ZM236.184,419.58C236.184,419.58 240.117,410.029 240.124,410.011L240.136,409.982C240.701,408.571 240.983,407.442 240.983,406.03L240.701,315.978C240.701,315.414 240.136,314.849 239.571,314.849C220.94,314.567 210.213,319.084 210.213,319.084C205.132,320.495 205.414,314.849 205.414,312.309L205.414,291.419C205.414,289.725 206.825,288.878 207.954,288.878L307.322,288.878C308.169,288.878 309.862,289.725 309.862,291.137L310.145,312.026C310.145,314.285 310.992,321.06 305.346,318.801C305.346,318.801 291.796,314.567 275.987,314.567C275.423,314.567 274.858,315.132 274.858,315.696L274.858,406.03C274.858,407.442 275.14,408.853 275.705,410.264L279.939,419.58C280.786,421.556 279.375,423.532 277.399,423.532L238.724,423.532C236.748,423.532 235.337,421.274 236.184,419.58ZM300.079,307.195L299.966,298.878L215.414,298.878L215.414,307.162C221.098,305.896 229.321,304.694 239.712,304.85C242.484,304.888 245.342,306.054 247.419,308.131C249.531,310.243 250.701,313.163 250.7,315.947L250.983,406.014L250.983,406.03C250.983,408.693 250.537,410.852 249.485,413.532L266.247,413.532C265.306,411.033 264.858,408.529 264.858,406.03L264.858,315.696C264.858,312.88 266.028,309.961 268.14,307.849C270.252,305.737 273.171,304.567 275.987,304.567C285.4,304.567 294.084,305.937 300.079,307.195ZM226.307,423.704L215.682,423.704C213.331,423.704 211.061,423.671 209.037,423.366C208.617,423.303 208.051,423.156 207.616,423.033C207.615,423.014 207.615,422.995 207.615,422.977L207.615,422.968L207.459,329.255C209.026,329.406 210.825,329.292 212.889,328.719L213.505,328.548L214.093,328.3C214.093,328.3 220.068,325.919 230.729,325.106L230.983,406.032C230.982,406.125 230.889,406.173 230.851,406.268C230.858,406.25 227.022,415.567 227.022,415.567C225.848,418.164 225.646,421.029 226.307,423.704ZM197.615,422.977L197.615,422.99C197.623,432.858 206.088,433.704 215.682,433.704L357.393,433.704C368.12,433.704 384.493,429.469 398.608,415.355C400.302,413.661 403.125,413.661 404.819,415.355L424.861,437.091C426.555,438.785 426.273,441.326 424.861,442.455C406.795,460.239 385.058,469.273 357.393,469.273L139.463,469.273C137.204,469.273 135.228,467.297 135.228,465.038L135.228,436.244C135.228,435.115 135.793,433.704 137.204,433.422C143.697,432.857 160.352,435.398 160.352,421.848L160.8,243.706C158.509,243.7 156.204,243.68 153.92,243.677L126.589,243.66C126.756,252.461 126.643,261.624 126.659,270.444L126.849,343.188L126.929,360.887C126.997,371.763 126.412,384.382 136.358,391.605C140.277,394.452 146.469,396.461 151.238,397.211C154.895,397.786 154.922,398.453 155.003,402.043C155.027,407.982 155.069,413.957 154.96,419.896C154.936,421.16 153.43,421.556 152.415,421.539C148.327,421.702 144.22,421.655 140.126,421.656L119.01,421.66C99.673,421.663 80.325,421.678 60.988,421.645C59.844,421.643 56.214,421.616 55.488,420.773C55.042,420.256 54.832,419.543 54.788,418.865C54.61,416.112 54.668,413.178 54.652,410.415C54.682,407.32 54.487,404.207 54.598,401.115C54.718,397.805 56.039,397.187 59.011,396.728C64.212,395.924 69.547,394.269 73.542,390.717C79.49,385.427 80.83,376.511 81.148,368.941C81.666,356.615 81.31,344.152 81.283,331.804L81.255,236.504L81.243,169.987L81.236,148.569C81.233,143.776 81.325,138.935 81.035,134.151C80.823,130.663 80.218,127.508 78.64,124.374C73.021,113.215 58.307,116.903 55.434,113.675C55.237,113.045 55.147,112.446 55.112,111.788C55.004,109.767 54.915,94.207 55.304,92.9C55.568,92.013 56.039,91.692 56.818,91.248C58.591,91.029 61.649,91.331 63.536,91.465C66.919,91.732 70.306,91.946 73.695,92.108C84.232,92.538 94.029,92.508 104.554,92.51L161.181,92.508L161.199,85.071C161.199,75.756 153.577,68.134 144.262,68.134L140.309,68.134C138.051,68.134 136.075,66.158 136.075,63.899L136.075,46.397C136.075,44.139 138.051,42.163 140.309,42.163L217.94,42.163C220.199,42.163 222.175,44.139 222.175,46.397L222.175,63.899C222.175,66.158 220.199,68.134 217.94,68.134L213.988,68.134C204.672,68.134 197.051,75.756 197.051,85.071L197.063,92.505C212.649,92.467 263.902,91.924 277.352,92.33C280.749,92.433 284.652,91.774 284.559,96.141C284.207,112.738 284.895,129.332 284.333,145.931C284.211,149.525 281.112,150.095 278.212,150.048C274.806,150.136 273.974,147.445 272.048,145.101C266.97,138.886 260.864,134.057 252.938,132.098C244.23,129.945 218.213,129.519 197.125,129.485L197.253,206.482C205.055,206.451 211.363,206.368 213.111,206.183C215.742,205.907 218.422,205.28 220.836,204.176C226.703,201.494 230.415,195.613 231.793,189.493C232.276,187.347 232.347,185.002 233.163,182.953C233.398,182.363 233.622,181.996 234.239,181.779C235.596,181.302 247.514,181.568 248.646,182.259C249.105,182.54 249.391,183.059 249.469,183.581C249.668,184.924 249.524,186.486 249.523,187.851L249.515,196.265C249.549,206.838 249.489,217.412 249.336,227.985C249.232,235.353 249.22,242.722 249.298,250.091C249.327,252.066 249.849,268.28 249.076,268.931C247.306,270.421 239.018,269.722 236.478,269.67C236.161,269.663 234.49,269.352 234.153,268.996C232.547,265.494 232.794,261.297 231.332,257.675C230.367,255.202 229.598,253.859 228.003,251.821C224.751,247.888 211.294,245.855 197.317,244.807L197.615,422.977ZM145.02,406.102C139.876,404.757 134.342,402.5 130.482,399.697C123.303,394.483 119.737,387.436 118.141,379.615C116.907,373.569 116.967,367.019 116.929,360.941L116.849,343.224L116.659,270.466L116.659,270.463C116.643,261.699 116.756,252.594 116.591,243.85L116.397,233.654L153.931,233.677L153.935,233.677C156.223,233.68 158.531,233.7 160.827,233.706L170.825,233.732L170.8,243.731C170.8,243.731 170.352,421.873 170.352,421.848C170.352,427.05 168.871,430.959 166.725,433.985C163.644,438.33 158.913,441.011 153.426,442.256C150.762,442.861 147.887,443.07 145.228,443.162L145.228,459.273L357.393,459.273C379.947,459.273 398.125,452.63 413.41,439.424L401.4,426.399C385.938,439.713 368.869,443.704 357.393,443.704L215.682,443.704C205.582,443.704 196.738,441.599 192.086,436.13C189.452,433.033 187.615,428.865 187.615,422.993L187.299,234.028L198.065,234.835C208.806,235.641 219.251,237.087 225.786,239.297C230.575,240.916 233.879,243.235 235.796,245.553L235.879,245.659C237.402,247.605 238.4,249.108 239.306,250.943C239.303,250.611 239.301,250.363 239.298,250.219L239.298,250.197C239.219,242.746 239.232,235.295 239.337,227.842L239.337,227.841C239.481,217.865 239.542,207.888 239.52,197.894C236.644,204.495 231.676,210.216 224.993,213.271C221.605,214.82 217.852,215.74 214.158,216.128C212.298,216.324 205.59,216.449 197.292,216.482L187.27,216.52L187.108,119.469L197.141,119.485C219.133,119.521 246.256,120.145 255.337,122.39C262.864,124.251 269.167,128.045 274.561,133.128C274.609,122.824 274.395,112.53 274.473,102.266C258.076,101.98 211.745,102.47 197.087,102.505L187.08,102.529L187.051,85.08L187.051,85.071C187.051,70.865 198.196,59.135 212.175,58.194L212.175,52.163L146.075,52.163L146.075,58.194C160.054,59.135 171.199,70.865 171.199,85.084L171.155,102.508L104.552,102.51C93.889,102.508 83.962,102.536 73.253,102.098L73.219,102.096C70.509,101.967 67.8,101.805 65.106,101.612C65.095,103.002 65.085,104.441 65.079,105.774C67.258,106.11 69.771,106.566 71.652,107.111C77.929,108.928 83.876,112.538 87.572,119.877C89.782,124.265 90.72,128.661 91.017,133.546C91.319,138.529 91.233,143.571 91.236,148.565L91.243,169.984L91.255,236.502L91.283,331.79C91.31,344.283 91.663,356.891 91.139,369.361C90.714,379.482 88.14,391.117 80.187,398.191C75.794,402.096 70.279,404.477 64.588,405.823C64.62,407.357 64.665,408.888 64.653,410.408C64.655,410.819 64.655,411.233 64.654,411.651C82.77,411.676 100.894,411.663 119.008,411.66L140.124,411.656C141.758,411.655 143.395,411.664 145.031,411.662C145.033,409.81 145.028,407.956 145.02,406.102ZM170.869,216.453L160.846,216.404C159.104,216.396 157.829,216.391 157.18,216.39L116.718,216.396L116.635,119.539L171.113,119.563L170.869,216.453ZM161.087,129.559L126.643,129.543L126.71,206.395L157.183,206.39C157.84,206.391 159.13,206.396 160.894,206.405L161.087,129.559ZM150.919,196.391L136.701,196.393L136.652,139.548C136.652,139.548 151.062,139.554 151.062,139.554L150.919,196.391ZM417.322,443.667C417.424,443.787 417.532,443.904 417.647,444.019L417.322,443.667ZM207.374,278.893L207.336,255.839C210.403,256.232 213.271,256.702 215.789,257.268C217.606,257.676 219.901,258.505 220.745,258.82C221.266,259.579 221.61,260.268 222.016,261.31L222.037,261.364C222.681,262.959 222.75,264.671 223.045,266.311C223.473,268.69 224.072,271.003 225.063,273.164L225.754,274.671L226.894,275.875C227.646,276.668 228.85,277.662 230.551,278.392C230.962,278.569 231.455,278.732 231.978,278.878L207.954,278.878C207.763,278.878 207.569,278.883 207.374,278.893ZM217.356,268.146L217.357,268.206L218.353,268.878L218.422,268.878L217.356,268.146ZM150.44,386.873C147.555,386.203 144.392,385.081 142.234,383.514C138.714,380.957 137.814,377.065 137.342,373.126C136.853,369.054 136.953,364.817 136.929,360.836L136.849,343.153L136.659,270.423C136.649,264.914 136.688,259.272 136.68,253.666L150.775,253.675L150.44,386.873Z" style="fill:rgb(213,0,0);" data-color="color-1"/>
        <path d="M160.8,243.706C158.509,243.7 156.204,243.68 153.92,243.677L126.589,243.66C126.756,252.461 126.643,261.624 126.659,270.444L126.849,343.188L126.929,360.887C126.997,371.763 126.412,384.382 136.358,391.605C140.277,394.452 146.469,396.461 151.238,397.211C154.895,397.786 154.922,398.453 155.003,402.043C155.027,407.982 155.069,413.957 154.96,419.896C154.936,421.16 153.43,421.556 152.415,421.539C148.327,421.702 144.22,421.655 140.126,421.656L119.01,421.66C99.673,421.663 80.325,421.678 60.988,421.645C59.844,421.643 56.214,421.616 55.488,420.773C55.042,420.256 54.832,419.543 54.788,418.865C54.61,416.112 54.668,413.178 54.652,410.415C54.682,407.32 54.487,404.207 54.598,401.115C54.718,397.805 56.039,397.187 59.011,396.728C64.212,395.924 69.547,394.269 73.542,390.717C79.49,385.427 80.83,376.511 81.148,368.941C81.666,356.615 81.31,344.152 81.283,331.804L81.255,236.504L81.243,169.987L81.236,148.569C81.233,143.776 81.325,138.935 81.035,134.151C80.823,130.663 80.218,127.508 78.64,124.374C73.021,113.215 58.307,116.903 55.434,113.675C55.237,113.045 55.147,112.446 55.112,111.788C55.004,109.767 54.915,94.207 55.304,92.9C55.568,92.013 56.039,91.692 56.818,91.248C58.591,91.029 61.649,91.331 63.536,91.465C66.919,91.732 70.306,91.946 73.695,92.108C84.232,92.538 94.029,92.508 104.554,92.51L161.181,92.508L161.199,85.071C161.199,75.756 153.577,68.134 144.262,68.134L140.309,68.134C138.051,68.134 136.075,66.158 136.075,63.899L136.075,46.397C136.075,44.139 138.051,42.163 140.309,42.163L217.94,42.163C220.199,42.163 222.175,44.139 222.175,46.397L222.175,63.899C222.175,66.158 220.199,68.134 217.94,68.134L213.988,68.134C204.672,68.134 197.051,75.756 197.051,85.071L197.063,92.505C212.649,92.467 263.902,91.924 277.352,92.33C280.749,92.433 284.652,91.774 284.559,96.141C284.207,112.738 284.895,129.332 284.333,145.931C284.211,149.525 281.112,150.095 278.212,150.048C274.806,150.136 273.974,147.445 272.048,145.101C266.97,138.886 260.864,134.057 252.938,132.098C244.23,129.945 218.213,129.519 197.125,129.485L197.253,206.482C205.055,206.451 211.363,206.368 213.111,206.183C215.742,205.907 218.422,205.28 220.836,204.176C226.703,201.494 230.415,195.613 231.793,189.493C232.276,187.347 232.347,185.002 233.163,182.953C233.398,182.363 233.622,181.996 234.239,181.779C235.596,181.302 247.514,181.568 248.646,182.259C249.105,182.54 249.391,183.059 249.469,183.581C249.668,184.924 249.524,186.486 249.523,187.851L249.515,196.265C249.549,206.838 249.489,217.412 249.336,227.985C249.232,235.353 249.22,242.722 249.298,250.091C249.327,252.066 249.849,268.28 249.076,268.931C247.306,270.421 239.018,269.722 236.478,269.67C236.161,269.663 234.49,269.352 234.153,268.996C232.547,265.494 232.794,261.297 231.332,257.675C230.367,255.202 229.598,253.859 228.003,251.821C224.751,247.888 211.294,245.855 197.317,244.807L197.615,422.977C197.615,432.857 206.084,433.704 215.682,433.704L357.393,433.704C368.12,433.704 384.493,429.469 398.608,415.355C400.302,413.661 403.125,413.661 404.819,415.355L424.861,437.091C426.555,438.785 426.273,441.326 424.861,442.455C406.795,460.239 385.058,469.273 357.393,469.273L139.463,469.273C137.204,469.273 135.228,467.297 135.228,465.038L135.228,436.244C135.228,435.115 135.793,433.704 137.204,433.422C143.697,432.857 160.352,435.398 160.352,421.848L160.8,243.706ZM161.087,129.559L126.643,129.543L126.71,206.395L157.183,206.39C157.84,206.391 159.13,206.396 160.894,206.405L161.087,129.559ZM274.858,406.03C274.858,407.442 275.14,408.853 275.705,410.264L279.939,419.58C280.786,421.556 279.375,423.532 277.399,423.532L238.724,423.532C236.748,423.532 235.337,421.274 236.184,419.58L240.136,409.982C240.701,408.571 240.983,407.442 240.983,406.03L240.701,315.978C240.701,315.414 240.136,314.849 239.571,314.849C220.94,314.567 210.213,319.084 210.213,319.084C205.132,320.495 205.414,314.849 205.414,312.309L205.414,291.419C205.414,289.725 206.825,288.878 207.954,288.878L307.322,288.878C308.169,288.878 309.862,289.725 309.862,291.137L310.145,312.026C310.145,314.285 310.992,321.06 305.346,318.801C305.346,318.801 291.796,314.567 275.987,314.567C275.423,314.567 274.858,315.132 274.858,315.696L274.858,406.03Z" style="fill:white;"/>
    </g>
</svg>
