<svg width="100%" height="100%" viewBox="0 0 651 940" version="1.1" xmlns="http://www.w3.org/2000/svg" xmlns:xlink="http://www.w3.org/1999/xlink" xml:space="preserve" xmlns:serif="http://www.serif.com/" style="fill-rule:evenodd;clip-rule:evenodd;stroke-linejoin:round;stroke-miterlimit:2;">
    <g transform="matrix(1,0,0,1,-184.303,-287.96)">
        <path d="M376.543,312.787L647.367,312.767L647.338,454.67L809.471,454.628L809.485,658.572L651.993,658.566L651.993,601.023L593.22,601.08L593.201,907.509L652.062,907.517L652.06,871.424L622.538,871.427L622.573,751.35L809.486,751.352L809.477,913.875L809.476,971.816C784.59,997.804 758.137,1023.81 732.73,1049.4L647.36,1049.41L647.371,1202.25L376.536,1202.26L376.561,1049.39L286.713,1049.41C260.725,1023.8 234.959,997.972 209.415,971.922L209.353,525.319C216.956,517.464 226.826,508.653 234.881,501.09L284.766,454.616L376.533,454.658L376.543,312.787ZM296.006,479.232L427.165,479.198L427.179,575.935L347.045,575.907L347.123,933.211L677.329,933.168L677.32,845.732L647.74,845.783L647.721,776.28L783.945,776.287L783.947,817.875L783.987,961.899L722.691,1024.08L296.612,1024.05C275.95,1004.09 255.237,982.884 234.873,962.532C234.334,915.191 234.849,866.813 234.849,819.403L234.85,536.25L296.006,479.232ZM451.658,1049.41L573.047,1049.44L573.022,1068.4L621.864,1068.34L621.891,1176.74L572.015,1176.73L401.9,1176.73L401.877,1068.43C418.343,1068.21 435.137,1068.39 451.629,1068.4L451.658,1049.41ZM593.132,479.014L651.259,478.949C659.527,486.441 667.64,494.103 675.592,501.929L675.72,479.362L783.961,479.373L783.945,611.625L783.973,633.607L677.337,633.599L677.352,575.947L593.21,575.953L593.132,479.014ZM372.314,601.038L427.139,601.026L427.185,907.531L372.254,907.505L372.314,601.038ZM452.828,444.047L401.872,444.036C402.294,409.058 401.905,373.287 401.907,338.244L621.843,338.258L621.852,444.013L571.643,444.031L571.691,830.625L571.704,881.114L571.7,881.114L571.704,907.114L452.743,907.131L452.748,881.131L452.743,881.131L452.828,444.047Z" style="fill:rgb(255,254,251);"  data-color="color-3"/>
        <path d="M296.006,479.232L427.165,479.198L427.179,575.935L347.045,575.907L347.123,933.211L677.329,933.168L677.32,845.732L647.74,845.783L647.721,776.28L783.945,776.287L783.947,817.875L783.987,961.899L722.691,1024.08L296.612,1024.05C275.95,1004.09 255.237,982.884 234.873,962.532C234.334,915.191 234.849,866.813 234.849,819.403L234.85,536.25L296.006,479.232ZM593.132,479.014L651.259,478.949C659.527,486.441 667.64,494.103 675.592,501.929L675.72,479.362L783.961,479.373L783.945,611.625L783.973,633.607L677.337,633.599L677.352,575.947L593.21,575.953L593.132,479.014Z" style="fill:rgb(220,26,33);" data-color="color-2"/>
        <path d="M351.994,287.967L672.267,287.96L672.261,429.771L834.875,429.755L834.865,683.157L621.92,683.137L621.95,726.347L834.904,726.381L834.913,981.514L742.252,1074.2L730.577,1074.17L672.246,1074.18L672.264,1226.99L351.998,1227L351.978,1074.2L275.976,1074.23C245.208,1043.37 214.65,1012.3 184.303,981.025L184.326,515.085C212.49,487.281 246.676,457.055 276.073,429.761L352.005,429.753L351.994,287.967ZM376.543,312.787L376.533,454.658L284.766,454.616L234.881,501.09C226.826,508.653 216.956,517.464 209.353,525.319L209.415,971.922C234.959,997.972 260.725,1023.8 286.713,1049.41L376.561,1049.39L376.536,1202.26L647.371,1202.25L647.36,1049.41L732.73,1049.4C758.137,1023.81 784.59,997.804 809.476,971.816L809.477,913.875L809.486,751.352L622.573,751.35L622.538,871.427L652.06,871.424L652.062,907.517L593.201,907.509L593.22,601.08L651.993,601.023L651.993,658.566L809.485,658.572L809.471,454.628L647.338,454.67L647.367,312.767L376.543,312.787ZM452.743,907.131L452.828,444.047L401.872,444.036C402.294,409.058 401.905,373.287 401.907,338.244L621.843,338.258L621.852,444.013L571.643,444.031L571.691,830.625L571.704,907.114L452.743,907.131ZM451.658,1049.41L573.047,1049.44L573.022,1068.4L621.864,1068.34L621.891,1176.74L572.015,1176.73L401.9,1176.73L401.877,1068.43C418.343,1068.21 435.137,1068.39 451.629,1068.4L451.658,1049.41ZM372.314,601.038L427.139,601.026L427.185,907.531L372.254,907.505L372.314,601.038Z" style="fill:rgb(0,29,111);"  data-color="color-1"/>
    </g>
</svg>
