<svg width="100%" height="100%" viewBox="0 0 881 807" version="1.1" xmlns="http://www.w3.org/2000/svg" xmlns:xlink="http://www.w3.org/1999/xlink" xml:space="preserve" xmlns:serif="http://www.serif.com/" style="fill-rule:evenodd;clip-rule:evenodd;stroke-linejoin:round;stroke-miterlimit:2;">
    <g transform="matrix(1,0,0,1,-101.015,-89.4137)">
        <path d="M635.037,861.158L598.941,747.607C586.909,747.336 575.575,746.316 563.614,745.144C522.714,741.139 476.45,730.789 437.316,718.26L389.158,871.014L136.191,870.986C146.29,841.984 155.816,809.848 165.256,780.4L226.652,589.542C220.332,581.746 215.117,574.996 209.39,566.675C170.889,510.777 155.479,438.599 169.945,372.094C173.693,353.907 181.901,336.702 185.501,318.561C187.667,307.646 186.422,295.066 184.254,284.403C179.599,261.505 165.804,228.652 190.485,212.223C206.72,201.417 234.382,203.247 252.723,206.339C260.387,207.641 269.384,211.154 275.696,215.735C291.923,227.2 289.105,244.75 288.941,262.253C288.824,274.66 289.427,287.886 291.912,300.163C296.263,321.659 307.641,340.757 319.545,358.872L396.59,114.415L643.728,114.433C643.873,114.92 644.018,115.407 644.163,115.894L644.419,115.894L645.474,120.277C658.348,163.13 673.106,207.454 686.591,250.091L767.005,508.338C785.718,500.519 801.925,492.782 820.217,483.571C848.55,469.303 877.26,442.02 910.92,446.782C922.194,448.377 932.964,456.589 939.459,466.018C948.041,478.478 958.205,498.097 956.043,514.016C954.485,521.464 945.353,540.213 941.776,547.19C912.98,603.361 872.625,653.239 819.999,688.548C825.419,708.084 833.194,730.61 839.406,750.32L877.559,870.965L638.167,871.003L637.376,868.515L636.621,868.515L635.037,861.158ZM503.127,512.964C510.017,515.257 516.965,517.375 523.963,519.314C528.631,520.438 533.531,521.538 538.171,522.768C538.356,522.817 538.541,522.867 538.725,522.916C536.661,514.602 523.076,456.905 520.944,453.717C515.27,472.275 508.684,494.583 502.258,512.674C502.548,512.771 502.837,512.868 503.127,512.964Z" style="fill:rgb(69,40,75);"  data-color="color-2"/>
        <path d="M668.122,108.754C668.122,108.754 669.616,113.747 669.617,113.749C682.409,156.282 697.048,200.249 710.444,242.605C710.444,242.605 782.537,474.13 782.537,474.13C791.218,470.076 799.826,465.848 808.973,461.242C826.285,452.524 843.777,439.108 862.371,430.759C878.884,423.344 896.157,419.444 914.422,422.028C932.275,424.554 949.762,436.905 960.048,451.837C971.667,468.707 983.743,495.827 980.816,517.38L980.696,518.263L980.513,519.135C978.668,527.956 968.259,550.332 964.023,558.595C936.109,613.045 897.894,661.848 849.031,698.576C853.605,713.327 858.829,728.778 863.245,742.79L911.684,895.96L619.882,896.006L619.09,893.514L616.429,893.514L610.849,867.59C610.849,867.59 580.372,771.714 580.372,771.714C574.021,771.253 567.687,770.663 561.177,770.025C526.731,766.652 488.626,758.976 453.756,749.261L407.489,896.016L101.015,895.982L112.581,862.765C122.614,833.952 132.071,802.024 141.453,772.756L141.457,772.744C141.457,772.744 185.048,637.235 198.77,594.581C195.418,590.203 192.194,585.785 188.799,580.853C146.471,519.397 129.622,440.031 145.485,366.924C149.232,348.843 157.399,331.735 160.979,313.695C162.522,305.922 161.299,296.977 159.755,289.384C156.578,273.754 150.297,253.94 151.334,236.638C152.399,218.854 159.316,202.938 176.633,191.412C197.625,177.439 233.164,177.689 256.895,181.689L256.91,181.692C268.06,183.586 281.101,188.791 290.241,195.401C314.033,212.292 314.181,236.74 313.94,262.488C313.858,271.128 314.124,280.232 315.357,288.991L378.257,89.414L662.379,89.434L667.692,107.31C667.835,107.791 667.978,108.272 668.122,108.754ZM649.544,133.676C648.169,129.196 646.812,124.729 645.474,120.277L644.419,115.894L644.163,115.894C644.018,115.407 643.873,114.92 643.728,114.433L396.59,114.415L319.545,358.872C307.641,340.757 296.263,321.659 291.912,300.163C289.427,287.886 288.824,274.66 288.941,262.253C289.105,244.75 291.923,227.2 275.696,215.735C269.384,211.154 260.387,207.641 252.723,206.339C234.382,203.247 206.72,201.417 190.485,212.223C165.804,228.652 179.599,261.505 184.254,284.403C186.422,295.066 187.667,307.646 185.501,318.561C181.901,336.702 173.693,353.907 169.945,372.094C155.479,438.599 170.889,510.777 209.39,566.675C215.117,574.996 220.332,581.746 226.652,589.542L165.256,780.4C155.816,809.848 146.29,841.984 136.191,870.986L389.158,871.014L437.316,718.26C476.45,730.789 522.714,741.139 563.614,745.144C575.575,746.316 586.909,747.336 598.941,747.607L635.037,861.158L636.621,868.515L637.376,868.515L638.167,871.003L877.559,870.965L839.406,750.32C833.194,730.61 825.419,708.084 819.999,688.548C872.625,653.239 912.98,603.361 941.776,547.19C945.353,540.213 954.485,521.464 956.043,514.016C958.205,498.097 948.041,478.478 939.459,466.018C932.964,456.589 922.194,448.377 910.92,446.782C877.26,442.02 848.55,469.303 820.217,483.571C801.925,492.782 785.718,500.519 767.005,508.338L686.591,250.091C674.56,212.052 661.359,172.158 649.544,133.676ZM255.501,570.345C238.027,550.199 223.699,527.57 214.051,502.286C197.808,459.721 193.532,407.58 206.473,363.611C211.827,345.421 219.642,329.208 220.738,309.806C221.818,290.685 217.344,270.501 212.211,252.183C227.46,249.974 239.747,250.236 254.958,251.617C255.019,270.454 256.09,293.259 261.165,311.496C274.725,360.217 321.767,424.109 356.753,458.87C408.977,509.923 475.029,544.535 546.729,558.42C547.422,558.556 548.114,558.689 548.807,558.82C558.405,591.393 568.093,624.364 577.259,655.629C550.501,653.216 524.002,648.365 498.387,641.375C429.483,622.572 361.949,593.302 310.436,542.519C289.318,521.858 273.624,503.618 258.671,477.654C247.954,458.989 239.531,439.098 233.585,418.413C232.12,413.488 228.399,397.079 227.097,393.837C226.685,404.405 228.166,418.149 230.09,428.676C258.622,584.827 438.868,664.013 582.089,672.111C586.305,686.504 590.382,700.437 594.257,713.691C544.27,711.737 493.317,701.611 446.06,686.176L410.034,670.962C362.714,650.979 329.464,633.567 289.925,599.771L255.501,570.345ZM503.127,512.964C502.837,512.868 502.548,512.771 502.258,512.674C508.684,494.583 515.27,472.275 520.944,453.717C523.076,456.905 536.661,514.602 538.725,522.916C538.541,522.867 538.356,522.817 538.171,522.768C533.531,521.538 528.631,520.438 523.963,519.314C516.965,517.375 510.017,515.257 503.127,512.964ZM772.734,542.204C792.749,535.355 811.651,527.526 832.819,516.63C841.934,511.92 850.922,506.966 859.771,501.775C874.822,493.079 883.376,486.561 901.596,488.079C907.674,495.761 914.088,507.547 918.054,516.676C892.216,574.455 855.887,621.043 807.384,655.003C803.513,642.408 799.498,629.344 795.375,615.923C799.52,612.813 803.558,609.564 807.477,606.172L817.266,597.26L816.73,597.559C810.015,601.379 803.753,606.381 797.117,610.345C796.144,610.926 795.169,611.501 794.191,612.07C787.28,589.572 780.074,566.11 772.734,542.204Z" style="fill:rgb(254,195,19);"  data-color="color-3"/>
        <path d="M595.3,564.68C562.46,453.039 529.408,341.73 520.086,313.373C517.959,318.835 467.579,482.308 467.579,482.308C422.433,459.845 390.004,431.503 358.047,393.223L430.528,158.91C450.667,159.375 610.564,158.978 610.564,158.978C611.572,163.165 675.51,371.861 731.609,554.638C739.685,580.95 747.599,606.726 755.139,631.276C755.952,633.925 756.761,636.559 757.565,639.178C761.642,652.452 765.601,665.338 769.407,677.724C795.058,761.206 813.758,821.942 814.939,825.522L671.351,825.516C670.92,823.514 657.53,777.285 638.813,713.169C635.015,700.157 630.997,686.408 626.823,672.142C625.396,667.263 623.95,662.324 622.489,657.333C613.8,627.656 604.559,596.155 595.3,564.68ZM261.986,632.457C305.256,669.443 341.52,688.706 393.306,710.575C388.449,723.585 355.669,825.552 355.669,825.552L199,825.467C204.852,809.422 256.041,649.607 261.986,632.457Z" style="fill:rgb(0,126,129);"  data-color="color-1"/>
    </g>
</svg>
