<svg width="100%" height="100%" viewBox="0 0 433 660" version="1.1" xmlns="http://www.w3.org/2000/svg" xmlns:xlink="http://www.w3.org/1999/xlink" xml:space="preserve" xmlns:serif="http://www.serif.com/" style="fill-rule:evenodd;clip-rule:evenodd;stroke-linejoin:round;stroke-miterlimit:2;">
    <g transform="matrix(1,0,0,1,-274.151,-152.734)">
        <path d="M332.336,794.332L330.631,792.357C329.675,791.217 328.814,790.123 328.201,789.2L320.075,776.973L333.674,771.442C343.385,767.493 353.669,760.506 360.762,752.818L360.789,752.789C367.184,745.95 371.677,737.556 373.828,728.421L373.832,728.401C376.437,717.505 375.936,706.974 375.943,695.891L375.953,664.593C375.955,650.919 375.798,636.722 375.945,623.111C376.145,604.692 371.352,595.037 358.036,582.754L347.432,572.973L358.98,564.327C366.244,558.889 372.892,552.079 375.024,543.011C376.593,536.335 375.952,528.496 375.955,521.588L375.951,494.412L375.947,474.256C375.941,466.191 376.693,460.375 373.361,452.799C367.681,439.886 356.951,431.219 346.119,422.7C341.791,419.296 337.065,416.384 332.831,412.943L330.362,410.936L329.211,407.968C327.104,402.533 324.952,395.397 323.105,389.775L323.103,389.768C319.049,377.372 315.068,364.953 311.161,352.511C302.24,324.299 293.126,296.148 283.817,268.062L274.151,238.897L301.025,253.791C307.498,257.378 316.383,263.005 323.769,263.117C326.53,263.158 327.916,261.546 328.641,259.559C329.014,258.536 329.293,257.458 329.501,256.354C320.787,250.198 316.064,240.749 316.971,229.209C319.339,199.08 351.01,192.373 368.763,205.84C376.388,211.625 381.786,220.996 380.893,233.986C380.574,238.62 379.241,242.808 377.094,246.563C377.334,246.701 377.578,246.828 377.827,246.945C381.738,248.77 386.358,247.954 391.323,246.099C406.967,240.256 415.198,226.591 422.082,212.487C417.331,207.456 414.601,201.54 413.593,193.237L413.59,193.216C412.456,183.591 415.196,173.91 421.212,166.301L421.216,166.296C427.518,158.345 435.481,154.205 445.43,152.998L445.445,152.996C458.164,151.488 469.708,156.555 477.524,166.611C483.462,174.251 486.117,183.94 484.902,193.545L484.902,193.55C483.896,201.45 481.174,207.024 476.79,211.941C481.954,222.562 486.816,232.568 497.15,240.249C504.03,245.362 510.854,248.841 517.412,247.603C518.751,247.35 520.039,246.871 521.286,246.172C517.601,238.878 516.806,230.52 519.218,221.926C521.476,213.796 526.947,206.935 534.375,202.921L534.38,202.919C542.018,198.799 551.884,198.021 560.15,200.768L560.193,200.782C568.006,203.444 574.462,209.065 578.195,216.48L578.216,216.523C583.599,227.431 582.7,241.537 574.841,251.088C572.824,253.539 570.907,255.298 568.798,256.767C568.94,258.208 569.265,259.595 569.944,260.844C571.57,263.833 574.505,263.409 577.287,262.752C584.338,261.087 591.569,256.672 596.699,253.888L623.007,239.615L613.846,268.109C607.162,288.899 601.063,309.945 594.275,330.926L582.733,366.327L582.723,366.356C581.534,369.938 580.283,373.611 579.045,377.3C582.533,377.555 586.067,377.875 589.817,378.368C619.862,382.216 649.732,394.375 671.526,415.796C723.582,466.963 715.805,556.334 665.4,605.634C628.801,641.431 582.589,650.913 533.964,652.223L533.968,691.2C533.966,700.597 533.546,712.486 534.675,721.633L534.678,721.653C535.253,726.445 536.463,731.14 538.276,735.612C545.181,752.428 560.735,764.587 577.203,771.454L590.211,776.878L582.782,788.855C580.218,792.99 572.43,802.68 569.074,807.065L568.315,808.056L567.368,808.871C564.11,811.672 562.435,812.446 557.879,812.501L557.876,812.501C550.63,812.586 543.291,812.559 536.052,812.561L492.943,812.565L348.333,812.599L344.738,808.38C341.847,804.986 338.909,801.632 335.927,798.317C334.917,797.196 333.619,795.784 332.336,794.332ZM446.858,164.913C440.207,165.719 434.84,168.426 430.621,173.749C426.586,178.853 424.746,185.351 425.508,191.812C426.51,200.06 430.209,204.727 436.912,209.233C427.721,228.752 417.349,249.188 395.522,257.34C381.583,262.547 369.155,260.268 361.422,246.756C365.609,243.185 368.537,238.743 368.921,233.162C370.791,205.972 331.063,203.061 328.934,230.149C328.214,239.313 333.471,246.178 342.057,249.534C342.007,261.261 338.798,275.345 323.588,275.115C314.461,274.978 303.206,268.72 295.208,264.287C304.535,292.429 313.667,320.635 322.606,348.903C326.5,361.304 330.468,373.682 334.508,386.038C336.292,391.467 338.362,398.374 340.4,403.631C344.584,407.032 349.26,409.904 353.537,413.268C365.919,423.005 377.853,433.207 384.346,447.967C388.435,457.266 387.939,464.349 387.947,474.247L387.951,494.41L387.955,521.586C387.952,529.388 388.476,538.224 386.705,545.757C383.92,557.607 375.665,566.827 366.172,573.933C382.429,588.929 388.189,600.755 387.945,623.241C387.798,636.81 387.955,650.963 387.953,664.595L387.943,695.895C387.936,707.933 388.332,719.359 385.504,731.191C382.878,742.344 377.379,752.616 369.554,760.985C361.363,769.863 349.453,777.98 338.195,782.558C339.678,784.789 342.909,788.141 344.844,790.286C347.899,793.683 350.909,797.12 353.872,800.598L492.941,800.565L536.051,800.561C543.243,800.559 550.536,800.586 557.736,800.502C558.611,800.492 558.919,800.309 559.545,799.771C562.728,795.613 570.152,786.451 572.585,782.53C553.25,774.467 535.264,759.893 527.166,740.146C524.947,734.679 523.466,728.941 522.763,723.083C521.581,713.514 521.966,701.05 521.968,691.198L521.963,640.39C571.775,640.294 619.782,633.466 657.009,597.055C702.869,552.201 710.476,470.907 663.114,424.354C643.172,404.753 615.767,393.786 588.275,390.268C579.372,389.098 571.715,388.936 562.932,388.259C565.435,379.833 568.553,370.958 571.333,362.577L582.862,327.219C589.644,306.258 595.74,285.219 602.422,264.436C590.638,270.829 568.871,283.982 559.403,266.578C556.688,261.587 556.808,255.251 556.823,249.699C560.439,248.008 562.921,246.688 565.575,243.463C570.487,237.492 570.821,228.653 567.455,221.834C565.157,217.269 561.161,213.789 556.323,212.141C551.131,210.416 544.899,210.88 540.075,213.481C535.515,215.945 532.157,220.162 530.775,225.158C528.404,233.591 530.816,241.668 537.251,247.548C523.947,264.865 506.555,262.19 489.992,249.881C475.437,239.063 470.056,224.479 462.025,209.236C468.089,204.475 471.972,200.089 472.998,192.035C473.812,185.596 472.032,179.099 468.049,173.975C462.88,167.325 455.27,163.915 446.858,164.913ZM521.988,462.772C536.679,462.82 549.562,463.066 561.086,473.474C570.759,482.211 576.08,495.423 576.495,508.309C577.055,525.701 576.048,538.865 564.047,552.136L563.742,552.439C552.093,563.87 537.305,564.629 521.941,564.484L521.988,462.772ZM555.348,543.863C564.791,533.273 564.948,522.571 564.501,508.695C564.189,498.985 560.331,488.963 553.043,482.379C547.213,477.113 540.852,475.488 533.983,474.99C533.983,474.99 533.946,552.317 533.946,552.317C541.775,551.782 549.141,549.928 555.291,543.919L555.348,543.863Z" style="fill:rgb(255,116,0);"  data-color="color-1"/>
        <path d="M446.858,164.913C455.27,163.915 462.88,167.325 468.049,173.975C472.032,179.099 473.812,185.596 472.998,192.035C471.972,200.089 468.089,204.475 462.025,209.236C470.056,224.479 475.437,239.063 489.992,249.881C506.555,262.19 523.947,264.865 537.251,247.548C530.816,241.668 528.404,233.591 530.775,225.158C532.157,220.162 535.515,215.945 540.075,213.481C544.899,210.88 551.131,210.416 556.323,212.141C561.161,213.789 565.157,217.269 567.455,221.834C570.821,228.653 570.487,237.492 565.575,243.463C562.921,246.688 560.439,248.008 556.823,249.699C556.808,255.251 556.688,261.587 559.403,266.578C568.871,283.982 590.638,270.829 602.422,264.436C595.74,285.219 589.644,306.258 582.862,327.219L571.333,362.577C568.553,370.958 565.435,379.833 562.932,388.259C571.715,388.936 579.372,389.098 588.275,390.268C615.767,393.786 643.172,404.753 663.114,424.354C710.476,470.907 702.869,552.201 657.009,597.055C619.782,633.466 571.775,640.294 521.963,640.39L521.968,691.198C521.966,701.05 521.581,713.514 522.763,723.083C523.466,728.941 524.947,734.679 527.166,740.146C535.264,759.893 553.25,774.467 572.585,782.53C570.152,786.451 562.728,795.613 559.545,799.771C558.919,800.309 558.611,800.492 557.736,800.502C550.536,800.586 543.243,800.559 536.051,800.561L492.941,800.565L353.872,800.598C350.909,797.12 347.899,793.683 344.844,790.286C342.909,788.141 339.678,784.789 338.195,782.558C349.453,777.98 361.363,769.863 369.554,760.985C377.379,752.616 382.878,742.344 385.504,731.191C388.332,719.359 387.936,707.933 387.943,695.895L387.953,664.595C387.955,650.963 387.798,636.81 387.945,623.241C388.189,600.755 382.429,588.929 366.172,573.933C375.665,566.827 383.92,557.607 386.705,545.757C388.476,538.224 387.952,529.388 387.955,521.586L387.951,494.41L387.947,474.247C387.939,464.349 388.435,457.266 384.346,447.967C377.853,433.207 365.919,423.005 353.537,413.268C349.26,409.904 344.584,407.032 340.4,403.631C338.362,398.374 336.292,391.467 334.508,386.038C330.468,373.682 326.5,361.304 322.606,348.903C313.667,320.635 304.535,292.429 295.208,264.287C303.206,268.72 314.461,274.978 323.588,275.115C338.798,275.345 342.007,261.261 342.057,249.534C333.471,246.178 328.214,239.313 328.934,230.149C331.063,203.061 370.791,205.972 368.921,233.162C368.537,238.743 365.609,243.185 361.422,246.756C369.155,260.268 381.583,262.547 395.522,257.34C417.349,249.188 427.721,228.752 436.912,209.233C430.209,204.727 426.51,200.06 425.508,191.812C424.746,185.351 426.586,178.853 430.621,173.749C434.84,168.426 440.207,165.719 446.858,164.913ZM347.248,221.674C343.759,222.279 340.865,224.715 339.675,228.051C338.485,231.387 339.183,235.105 341.502,237.781C343.821,240.457 347.402,241.678 350.873,240.976C356.136,239.911 359.568,234.815 358.577,229.538C357.586,224.26 352.539,220.757 347.248,221.674ZM547.663,221.799C542.352,222.724 538.766,227.74 539.609,233.065C540.452,238.39 545.412,242.052 550.75,241.291C554.275,240.788 557.257,238.424 558.551,235.105C559.844,231.786 559.249,228.028 556.994,225.272C554.738,222.515 551.172,221.188 547.663,221.799ZM435.499,350.509C415.292,351.108 358.93,353.737 345.161,368.078C344.172,374.875 344.896,378.785 346.931,385.24C353.786,382.106 360.117,379.254 367.425,377.299C397.992,369.123 433.677,368.705 465.166,369.661C490.859,370.615 529.911,373.567 552.967,385.439C554.72,379.007 555.459,374.368 553.828,367.742C535.891,351.56 460.738,349.379 435.499,350.509ZM447.357,175.728C440.433,176.737 435.633,183.162 436.63,190.088C437.625,197.013 444.041,201.825 450.969,200.841C457.915,199.856 462.742,193.419 461.743,186.475C460.744,179.531 454.298,174.716 447.357,175.728ZM448.88,215.852C444.929,228.992 434.609,244.361 425.298,254.26C413.706,266.585 397.161,275.118 379.951,274C369.247,273.305 362.827,269.882 355.507,262.312C350.524,283.104 338.298,290.879 317.499,288.553C320.274,293.413 324.86,308.651 326.719,314.673C330.606,327.263 335.543,341.193 338.894,353.786C365.89,338.304 418.334,336.293 449.583,336.408C481.444,336.464 531.692,338.567 559.549,353.577C562.122,344.871 564.922,335.5 567.97,326.969C572.353,314.697 575.78,300.234 580.922,288.402C559.975,291.705 548.466,282.331 543.311,262.423C534.175,271.084 527.138,274.509 514.133,274.091C484.778,273.144 464.277,247.426 452.495,223.039C451.738,221.469 449.958,216.781 448.88,215.852ZM448.914,246.825C449.833,247.777 454.061,255.362 455.162,257.066C461.947,267.562 468.064,273.771 477.856,281.343C465.242,288.912 460.38,300.646 464.821,315.012C465.744,317.998 466.998,320.836 468.079,323.767C462.121,323.595 456.161,323.504 450.201,323.495C443.288,323.455 436.302,323.563 429.382,323.608C434.073,312.971 437.399,302.289 430.702,291.506C427.976,287.117 424.589,284.553 420.672,281.314C434.605,271.825 441.057,261.074 448.914,246.825ZM448.868,266.754C445.959,271.742 441.802,278.338 437.214,281.925C441.458,288.454 444.401,293.554 446.888,301.122C447.556,303.156 448.367,308.961 449.238,309.629C452.036,297.759 453.682,292.124 460.807,281.905C457.424,278.601 455.208,276.069 452.515,272.133C451.964,271.326 449.303,267.173 448.868,266.754ZM536.292,285.257C536.608,285.272 536.822,285.423 537.146,285.57C543.401,296.519 552.101,301.424 564.48,302.664C563.373,306.767 561.469,311.634 559.989,315.722C557.713,322.089 555.383,328.436 552.998,334.762C547.799,332.218 540.843,330.565 535.178,329.172C522.683,326.9 514.229,325.777 501.61,324.852C504.206,301.999 513.372,290.251 536.292,285.257ZM361.499,285.018C368.775,285.969 377.152,289.643 382.735,294.419C392.099,302.431 395.446,312.828 396.409,324.759C386.503,325.278 373.973,327.193 364.248,329.046C357.118,330.634 351.791,331.819 345.011,334.704L333.907,302.681C346.772,301.485 355.433,296.58 361.499,285.018ZM412.718,401.737C399.553,401.777 385.778,401.601 372.67,401.86C374.387,403.056 376.144,404.072 377.889,405.194C392.079,414.313 404.783,428.547 407.818,445.596C409.189,453.301 408.911,461.795 408.908,469.658L408.904,497.971L408.892,524.963C408.887,543.245 410.064,560.441 394.196,572.827C404.779,583.565 408.83,592.939 408.872,608.223C408.895,616.762 408.914,625.42 408.912,633.966L408.846,687.174C408.626,716.85 407.299,745.673 384.59,767.831C380.819,771.51 377.37,774.209 373.238,777.424L474.204,777.488C493.84,777.345 513.478,777.412 533.114,777.688C514.04,762.115 504.13,748.161 501.447,722.669C499.704,708.995 500.205,692.92 500.233,678.93L500.256,616.365C552.681,616.614 605.444,617.316 646.119,577.991C683.27,542.073 685.798,471.966 649.088,434.996C612.045,397.691 550.313,401.794 501.659,401.789L417.369,401.723L412.718,401.737ZM505.393,437.008C512.927,436.463 521.089,437.021 528.272,436.846C576.289,435.677 599.671,471.677 596.397,516.492C594.924,536.671 590.854,551.611 575.274,566.183C554.095,584.163 526.554,582.72 500.221,582.856L500.331,437.212C501.999,437.166 503.721,437.076 505.393,437.008ZM521.988,462.772L521.941,564.484C537.305,564.629 552.093,563.87 563.742,552.439L564.047,552.136C576.048,538.865 577.055,525.701 576.495,508.309C576.08,495.423 570.759,482.211 561.086,473.474C549.562,463.066 536.679,462.82 521.988,462.772Z" style="fill:rgb(0,6,122);"  data-color="color-2"/>
        <path d="M412.718,401.737L417.369,401.723L501.659,401.789C550.313,401.794 612.045,397.691 649.088,434.996C685.798,471.966 683.27,542.073 646.119,577.991C605.444,617.316 552.681,616.614 500.256,616.365L500.233,678.93C500.205,692.92 499.704,708.995 501.447,722.669C504.13,748.161 514.04,762.115 533.114,777.688C513.478,777.412 493.84,777.345 474.204,777.488L373.238,777.424C377.37,774.209 380.819,771.51 384.59,767.831C407.299,745.673 408.626,716.85 408.846,687.174L408.912,633.966C408.914,625.42 408.895,616.762 408.872,608.223C408.83,592.939 404.779,583.565 394.196,572.827C410.064,560.441 408.887,543.245 408.892,524.963L408.904,497.971L408.908,469.658C408.911,461.795 409.189,453.301 407.818,445.596C404.783,428.547 392.079,414.313 377.889,405.194C376.144,404.072 374.387,403.056 372.67,401.86C385.778,401.601 399.553,401.777 412.718,401.737ZM505.393,437.008C503.721,437.076 501.999,437.166 500.331,437.212L500.221,582.856C526.554,582.72 554.095,584.163 575.274,566.183C590.854,551.611 594.924,536.671 596.397,516.492C599.671,471.677 576.289,435.677 528.272,436.846C521.089,437.021 512.927,436.463 505.393,437.008ZM448.88,215.852C449.958,216.781 451.738,221.469 452.495,223.039C464.277,247.426 484.778,273.144 514.133,274.091C527.138,274.509 534.175,271.084 543.311,262.423C548.466,282.331 559.975,291.705 580.922,288.402C575.78,300.234 572.353,314.697 567.97,326.969C564.922,335.5 562.122,344.871 559.549,353.577C531.692,338.567 481.444,336.464 449.583,336.408C418.334,336.293 365.89,338.304 338.894,353.786C335.543,341.193 330.606,327.263 326.719,314.673C324.86,308.651 320.274,293.413 317.499,288.553C338.298,290.879 350.524,283.104 355.507,262.312C362.827,269.882 369.247,273.305 379.951,274C397.161,275.118 413.706,266.585 425.298,254.26C434.609,244.361 444.929,228.992 448.88,215.852ZM448.914,246.825C441.057,261.074 434.605,271.825 420.672,281.314C424.589,284.553 427.976,287.117 430.702,291.506C437.399,302.289 434.073,312.971 429.382,323.608C436.302,323.563 443.288,323.455 450.201,323.495C456.161,323.504 462.121,323.595 468.079,323.767C466.998,320.836 465.744,317.998 464.821,315.012C460.38,300.646 465.242,288.912 477.856,281.343C468.064,273.771 461.947,267.562 455.162,257.066C454.061,255.362 449.833,247.777 448.914,246.825ZM448.868,266.754C449.303,267.173 451.964,271.326 452.515,272.133C455.208,276.069 457.424,278.601 460.807,281.905C453.682,292.124 452.036,297.759 449.238,309.629C448.367,308.961 447.556,303.156 446.888,301.122C444.401,293.554 441.458,288.454 437.214,281.925C441.802,278.338 445.959,271.742 448.868,266.754ZM361.499,285.018C355.433,296.58 346.772,301.485 333.907,302.681L345.011,334.704C351.791,331.819 357.118,330.634 364.248,329.046C373.973,327.193 386.503,325.278 396.409,324.759C395.446,312.828 392.099,302.431 382.735,294.419C377.152,289.643 368.775,285.969 361.499,285.018ZM536.292,285.257C513.372,290.251 504.206,301.999 501.61,324.852C514.229,325.777 522.683,326.9 535.178,329.172C540.843,330.565 547.799,332.218 552.998,334.762C555.383,328.436 557.713,322.089 559.989,315.722C561.469,311.634 563.373,306.767 564.48,302.664C552.101,301.424 543.401,296.519 537.146,285.57C536.822,285.423 536.608,285.272 536.292,285.257ZM435.499,350.509C460.738,349.379 535.891,351.56 553.828,367.742C555.459,374.368 554.72,379.007 552.967,385.439C529.911,373.567 490.859,370.615 465.166,369.661C433.677,368.705 397.992,369.123 367.425,377.299C360.117,379.254 353.786,382.106 346.931,385.24C344.896,378.785 344.172,374.875 345.161,368.078C358.93,353.737 415.292,351.108 435.499,350.509ZM447.357,175.728C454.298,174.716 460.744,179.531 461.743,186.475C462.742,193.419 457.915,199.856 450.969,200.841C444.041,201.825 437.625,197.013 436.63,190.088C435.633,183.162 440.433,176.737 447.357,175.728ZM547.663,221.799C551.172,221.188 554.738,222.515 556.994,225.272C559.249,228.028 559.844,231.786 558.551,235.105C557.257,238.424 554.275,240.788 550.75,241.291C545.412,242.052 540.452,238.39 539.609,233.065C538.766,227.74 542.352,222.724 547.663,221.799ZM347.248,221.674C352.539,220.757 357.586,224.26 358.577,229.538C359.568,234.815 356.136,239.911 350.873,240.976C347.402,241.678 343.821,240.457 341.502,237.781C339.183,235.105 338.485,231.387 339.675,228.051C340.865,224.715 343.759,222.279 347.248,221.674Z" style="fill:white;"  data-color="color-3"/>
    </g>
</svg>
