<svg width="100%" height="100%" viewBox="0 0 937 1345" version="1.1" xmlns="http://www.w3.org/2000/svg" xmlns:xlink="http://www.w3.org/1999/xlink" xml:space="preserve" xmlns:serif="http://www.serif.com/" style="fill-rule:evenodd;clip-rule:evenodd;stroke-linejoin:round;stroke-miterlimit:2;">
    <g transform="matrix(1,0,0,1,-40.8221,-104.016)">
        <path d="M413.107,134.566C426.45,132.846 467.059,134.813 481.419,135.913C553.898,142.147 623.022,169.223 680.448,213.87C689.263,220.679 707.013,235.582 714.415,244.234C701.386,268.39 691.581,293.09 679.093,317.024C672.193,310.262 663.1,299.691 656.833,292.437C558.046,178.097 371.614,167.562 259.78,268.688C237.341,288.979 218.417,309.93 201.538,335.505C98.707,491.322 127.661,729.078 289.717,834.509C345.072,870.522 413.71,886.812 479.289,873.163C480.644,950.83 479.412,1033.13 479.409,1111.12L479.342,1417.37C463.503,1418.51 441.012,1417.83 424.567,1417.88C408.057,1417.93 385.532,1417.71 369.399,1417.3C389.266,1395.42 396.546,1376.7 404.795,1348.19C413.803,1317.06 413,1289.48 412.978,1257.56L412.956,1187.44L412.831,941.994C394.315,938.215 375.438,937.33 356.296,932.906C88.331,870.985 -1.025,532.715 129.904,314.073C141.056,295.76 153.792,278.459 167.967,262.37C230.533,190.037 316.873,141.588 413.107,134.566ZM434.257,237.314C532.831,234.604 604.344,271.888 663.357,349.396C651.934,371.017 640.395,392.577 628.74,414.074C628.74,414.074 613.575,389.821 610.804,385.286C606.847,378.942 602.559,372.811 597.957,366.918C566.816,327.11 524.233,300.839 473.737,294.74C426.554,288.907 379.002,302.238 341.731,331.747C232.217,418.09 220.01,607.284 304.971,713.451C331.56,746.677 369.079,778.609 412.771,783.698C412.882,781.663 412.946,779.624 412.961,777.586L412.987,693.366C412.991,637.015 416.886,601.493 374.618,558.885C417.472,557.93 462.26,558.625 505.325,558.628L740.243,558.625L947.467,558.643L947.563,675.149C934.296,655.025 911.621,625.795 885.825,621.407C873.196,619.259 853.618,620.186 840.392,620.189L758.019,620.239C665.892,620.29 571.459,619.055 479.547,620.363C477.701,648.746 482.09,834.266 478.039,839.328C474.788,843.392 460.993,843.616 455.969,844.035C396.125,849.022 333.245,826.357 287.692,787.688C224.772,734.277 189.863,653.816 183.441,572.578C177.606,498.771 191.898,425.671 230.099,361.853C238.297,348.157 247.002,334.783 257.403,322.635C304.183,267.996 363.479,242.708 434.257,237.314ZM523.045,982.094C620.025,982.845 719.727,980.063 816.201,982.879C816.216,1017.49 816.52,1052.57 816.081,1087.15C801.063,1055.99 767.978,1041.58 734.71,1041.5C728.913,1041.49 723.106,1041.49 717.308,1041.5L673.501,1041.54C647.064,1041.52 610.89,1040.28 585.199,1041.64C584.002,1053.5 584.762,1079.96 584.769,1092.57L584.84,1192.31L584.816,1260.57C584.819,1311.44 583.102,1360.25 618.448,1401.68C622.721,1406.69 632.022,1417.34 632.022,1417.34C596.783,1419.22 552.843,1415.57 516.633,1415.98C516.142,1407.26 516.699,1396.95 516.722,1387.88L516.748,1328.48L516.779,1136.99L516.711,1032.13C516.698,1022.81 516.083,990.611 517.206,983.613C519.529,981.949 519.95,982.393 523.045,982.094ZM516.842,655.805C529.422,654.888 548.82,655.428 561.897,655.427L643.838,655.437L776.767,655.421C800.703,655.422 824.406,655.276 848.69,655.554C880.326,655.917 895.094,654.277 919.371,678.615C927.852,687.118 945.257,712.542 946.73,723.619C948.404,736.212 947.456,762.218 947.122,775.983C942.982,771.281 937.552,762.887 933.409,757.608C920.314,740.92 905.33,729.979 885.754,722.137C860.047,713.251 817.288,713.981 789.367,713.988L728.444,714.025L583.552,714.012C583.404,724.468 584.833,794.321 582.767,798.416C577.919,808.021 529.578,825.876 517.058,829.524C515.953,809.288 516.799,783.795 516.762,763.097C516.698,727.507 516.418,691.36 516.842,655.805ZM671.932,734.8C671.932,734.8 699.608,774.562 704.637,782.544C689.39,815.185 649.633,846.609 619.707,866.095C612.571,870.741 588.14,881.187 584.964,886.403L585.552,887.44C592.657,890.588 726.743,888.571 742.238,887.279C752.481,886.425 762.659,884.928 772.289,881.172C792.942,873.117 807.292,857.72 816.139,837.74C816.873,868.35 816.308,901.831 816.042,932.625L816.115,946.018C810.575,945.943 804.961,946.085 799.417,946.23C723.652,948.211 647.881,947.407 572.1,947.494C553.781,947.516 535.011,947.785 516.72,947.207C515.67,923.188 516.394,886.05 516.916,861.688C565.948,839.851 599.516,817.036 636.024,776.361C642.861,768.785 649.561,761.088 656.121,753.272C660.58,747.89 666.433,740.184 671.252,735.459L671.932,734.8Z" style="fill:rgb(81,65,192);" data-color="color-1"/>
        <path d="M410.271,104.694L410.284,104.693C425.762,103.021 468.411,104.829 483.85,106.011L483.99,106.023C562.224,112.752 636.838,141.975 698.829,190.16C708.847,197.903 728.822,214.926 737.211,224.732L750.587,240.366L740.819,258.476C727.856,282.509 718.115,307.089 705.69,330.902L689.883,363.41C678.409,385.126 666.819,406.781 655.113,428.373L630.586,473.612L603.303,429.979C603.303,429.979 588.296,405.976 585.274,401.042C581.898,395.638 578.242,390.414 574.32,385.392C548.164,351.962 512.548,329.646 470.098,324.519L470.056,324.513C430.845,319.666 391.327,330.744 360.329,355.287L360.305,355.306C262.949,432.063 252.865,600.326 328.394,694.707C343.132,713.123 361.539,731.672 382.972,743.107L382.987,693.364C382.99,646.151 388.734,615.711 353.32,580.013L304.15,530.448C304.15,530.448 462.041,528.625 505.327,528.628L740.244,528.625L977.442,528.646L975.254,853.331L924.606,795.808C920.16,790.759 914.258,781.798 909.808,776.128C900.298,764.009 889.407,756.036 875.286,750.264C866.466,747.321 855.495,745.709 843.92,744.841L846.13,837.021C846.87,867.877 846.312,901.621 846.043,932.675L846.158,953.741L846.188,953.742L846.191,959.887L846.281,976.429L846.198,976.428L846.201,982.866C846.216,1017.61 846.519,1052.82 846.079,1087.53L844.459,1215.13L789.056,1100.17C779.156,1079.63 756.575,1071.55 734.644,1071.5C728.886,1071.49 723.118,1071.49 717.348,1071.5L673.503,1071.54L673.478,1071.54C656.118,1071.53 634.481,1070.96 614.508,1070.99C614.593,1079.19 614.766,1087.2 614.769,1092.55L614.84,1192.31L614.816,1260.57C614.819,1304.22 610.939,1346.66 641.272,1382.21L641.274,1382.21C645.474,1387.14 654.618,1397.61 654.618,1397.61L695.148,1444.02L633.62,1447.3C597.997,1449.2 441.722,1447.83 424.658,1447.88C407.894,1447.93 385.022,1447.7 368.641,1447.29L303.149,1445.63L347.189,1397.13C363.592,1379.07 369.166,1363.39 375.977,1339.85C384.151,1311.61 382.998,1286.54 382.978,1257.58L382.956,1187.45C382.956,1187.45 382.844,967.594 382.844,967.594C371.846,966.131 360.739,964.724 349.541,962.136C61.873,895.661 -36.39,533.379 104.223,298.565L104.281,298.47C116.321,278.698 130.069,260.016 145.357,242.652C212.968,164.531 306.353,112.465 410.271,104.694ZM413.107,134.566C316.873,141.588 230.533,190.037 167.967,262.37C153.792,278.459 141.056,295.76 129.904,314.073C-1.025,532.715 88.331,870.985 356.296,932.906C375.438,937.33 394.315,938.215 412.831,941.994L412.956,1187.44L412.978,1257.56C413,1289.48 413.803,1317.06 404.795,1348.19C396.546,1376.7 389.266,1395.42 369.399,1417.3C385.532,1417.71 408.057,1417.93 424.567,1417.88C441.012,1417.83 463.503,1418.51 479.342,1417.37L479.409,1111.12C479.412,1033.13 480.644,950.83 479.289,873.163C413.71,886.812 345.072,870.522 289.717,834.509C127.661,729.078 98.707,491.322 201.538,335.505C218.417,309.93 237.341,288.979 259.78,268.688C371.614,167.562 558.046,178.097 656.833,292.437C663.1,299.691 672.193,310.262 679.093,317.024C691.581,293.09 701.386,268.39 714.415,244.234C707.013,235.582 689.263,220.679 680.448,213.87C623.022,169.223 553.898,142.147 481.419,135.913C467.059,134.813 426.45,132.846 413.107,134.566ZM434.257,237.314C363.479,242.708 304.183,267.996 257.403,322.635C247.002,334.783 238.297,348.157 230.099,361.853C191.898,425.671 177.606,498.771 183.441,572.578C189.863,653.816 224.772,734.277 287.692,787.688C333.245,826.357 396.125,849.022 455.969,844.035C460.993,843.616 474.788,843.392 478.039,839.328C482.09,834.266 477.701,648.746 479.547,620.363C571.459,619.055 665.892,620.29 758.019,620.239L840.392,620.189C853.618,620.186 873.196,619.259 885.825,621.407C911.621,625.795 934.296,655.025 947.563,675.149L947.467,558.643L740.243,558.625L505.325,558.628C462.26,558.625 417.472,557.93 374.618,558.885C416.886,601.493 412.991,637.015 412.987,693.366L412.961,777.586C412.946,779.624 412.882,781.663 412.771,783.698C369.079,778.609 331.56,746.677 304.971,713.451C220.01,607.284 232.217,418.09 341.731,331.747C379.002,302.238 426.554,288.907 473.737,294.74C524.233,300.839 566.816,327.11 597.957,366.918C602.559,372.811 606.847,378.942 610.804,385.286C613.575,389.821 628.74,414.074 628.74,414.074C640.395,392.577 651.934,371.017 663.357,349.396C604.344,271.888 532.831,234.604 434.257,237.314ZM523.045,982.094C519.95,982.393 519.529,981.949 517.206,983.613C516.083,990.611 516.698,1022.81 516.711,1032.13L516.779,1136.99L516.748,1328.48L516.722,1387.88C516.699,1396.95 516.142,1407.26 516.633,1415.98C552.843,1415.57 596.783,1419.22 632.022,1417.34C632.022,1417.34 622.721,1406.69 618.448,1401.68C583.102,1360.25 584.819,1311.44 584.816,1260.57L584.84,1192.31L584.769,1092.57C584.762,1079.96 584.002,1053.5 585.199,1041.64C610.89,1040.28 647.064,1041.52 673.501,1041.54L717.308,1041.5C723.106,1041.49 728.913,1041.49 734.71,1041.5C767.978,1041.58 801.063,1055.99 816.081,1087.15C816.52,1052.57 816.216,1017.49 816.201,982.879C719.727,980.063 620.025,982.845 523.045,982.094ZM516.842,655.805C516.418,691.36 516.698,727.507 516.762,763.097C516.799,783.795 515.953,809.288 517.058,829.524C529.578,825.876 577.919,808.021 582.767,798.416C584.833,794.321 583.404,724.468 583.552,714.012L728.444,714.025L789.367,713.988C817.288,713.981 860.047,713.251 885.754,722.137C905.33,729.979 920.314,740.92 933.409,757.608C937.552,762.887 942.982,771.281 947.122,775.983C947.456,762.218 948.404,736.212 946.73,723.619C945.257,712.542 927.852,687.118 919.371,678.615C895.094,654.277 880.326,655.917 848.69,655.554C824.406,655.276 800.703,655.422 776.767,655.421L643.838,655.437L561.897,655.427C548.82,655.428 529.422,654.888 516.842,655.805ZM671.932,734.8L671.252,735.459C666.433,740.184 660.58,747.89 656.121,753.272C649.561,761.088 642.861,768.785 636.024,776.361C599.516,817.036 565.948,839.851 516.916,861.688C516.394,886.05 515.67,923.188 516.72,947.207C535.011,947.785 553.781,947.516 572.1,947.494C647.881,947.407 723.652,948.211 799.417,946.23C804.961,946.085 810.575,945.943 816.115,946.018L816.042,932.625C816.308,901.831 816.873,868.35 816.139,837.74C807.292,857.72 792.942,873.117 772.289,881.172C762.659,884.928 752.481,886.425 742.238,887.279C726.743,888.571 592.657,890.588 585.552,887.44L584.964,886.403C588.14,881.187 612.571,870.741 619.707,866.095C649.633,846.609 689.39,815.185 704.637,782.544C699.608,774.562 671.932,734.8 671.932,734.8ZM824.84,743.993C812.094,743.739 799.621,743.985 789.385,743.988L728.452,744.025L714.786,744.024C721.415,753.664 727.824,763.067 730.019,766.552L738.747,780.405L731.818,795.241C721.347,817.657 701.048,839.902 679.112,858.893C707.749,858.537 733.545,857.9 739.745,857.383C747.107,856.769 754.467,855.922 761.388,853.223C774.39,848.151 783.138,838.172 788.708,825.594L824.84,743.993Z" style="fill:rgb(29,0,100);" data-color="color-2"/>
    </g>
</svg>
