<?xml version="1.0" encoding="UTF-8" standalone="no"?>
<!DOCTYPE svg PUBLIC "-//W3C//DTD SVG 1.1//EN" "http://www.w3.org/Graphics/SVG/1.1/DTD/svg11.dtd">
<svg width="100%" height="100%" viewBox="0 0 677 782" version="1.1" xmlns="http://www.w3.org/2000/svg" xmlns:xlink="http://www.w3.org/1999/xlink" xml:space="preserve" xmlns:serif="http://www.serif.com/" style="fill-rule:evenodd;clip-rule:evenodd;stroke-linejoin:round;stroke-miterlimit:2;">
    <g transform="matrix(1,0,0,1,-157.944,-54.9991)">
        <path d="M468.503,185.21C503.834,183.534 540.882,189.004 569.716,211.17C579.331,218.713 587.826,227.583 594.946,237.516C617.537,268.831 617.903,297.813 617.991,334.506L618.065,382.538L618.478,505.884L618.403,527.154C618.342,539.676 617.171,550.169 626.703,560.151C636.796,570.722 656.748,568.549 670.84,568.479L670.866,660.343C670.87,674.823 659.267,686.635 644.788,686.89C637.248,686.956 629.735,686.956 622.661,687.056C598.032,687.405 572.512,687.997 547.969,687.869C513.517,687.383 480.93,673.904 465.252,641.491C454.68,619.633 455.51,598.578 455.526,575.209L455.531,534.672L455.583,397.185C455.605,385.677 456.657,364.071 454.467,353.641C449.055,327.875 408.057,323.161 391.354,340C382.321,349.107 382.913,361.058 382.892,372.875L382.824,686.542C329.52,686.771 276.453,685.584 222.9,686.096C222.564,654.679 222.874,622.697 222.907,591.242L222.95,442.376L222.988,371.002C222.979,359.638 223.338,348.152 222.801,336.815C221.99,319.675 203.656,322.293 191.513,322.372C180.344,322.385 169.177,322.593 158.015,322.996L157.944,187.048L285.98,187.556L322.446,187.892C337.637,187.935 359.475,186.175 372.677,194.724C378.349,198.396 379.719,203.879 380.662,210.171C403.843,195.751 441.351,187.096 468.503,185.21ZM637.014,202.858C657.053,202.453 678.724,202.995 698.928,203L834.469,203.008L834.538,697.207C834.541,726.288 833.487,745.807 819.869,772.409C796.786,817.5 750.564,832.784 703.156,836.007C687.324,837.083 671.264,836.713 655.224,836.706L585.469,836.696L337.375,836.715L222.946,836.831L222.916,697.27L498.706,697.435L593.326,697.455C612.088,697.458 630.817,697.829 649.534,696.38C671.9,694.648 684.935,676.034 685.054,654.618C685.179,632.297 685.053,610.017 685.041,587.725L685.012,455.556L685.034,378.421C685.046,365.58 685.485,351.694 684.769,338.948C683.484,316.083 652.409,319.956 637.053,320.003L637.014,202.858ZM638.845,54.999L834.481,55.202C834.482,101.714 833.169,149.886 834.249,196.199C827.428,196.746 817.095,196.563 810.013,196.581L768.555,196.609L638.788,196.626L638.845,54.999Z" style="fill:rgb(0,17,49);"/>
        <path d="M665.884,79.395C710.922,80.493 761.279,79.884 806.507,79.534C805.332,110.913 806.65,141.863 805.452,172.443C778.457,172.483 751.463,172.398 724.47,172.189C704.993,172.088 685.131,171.794 665.712,172.518C666.132,141.84 665.843,110.175 665.884,79.395ZM470.218,209.726C474.959,209.446 482.373,209.6 487.248,209.899C544.385,213.399 582.746,237.661 592.658,296.886C594.65,308.792 593.976,322.252 593.955,334.247L593.976,379.761L594.082,506.782L594.024,530.454C594.002,536.844 593.843,543.013 594.706,549.365C598.564,577.778 620.838,590.687 647.274,591.532C646.906,611.421 647.297,631.685 647.217,651.783C647.18,657.394 642.664,661.945 637.054,662.026C617.615,662.304 576.84,662.887 576.84,662.887C557.223,662.98 534.331,664.694 516.153,657.389C473.185,640.121 479.916,588.065 479.847,551.503L479.71,415.504C479.633,405.933 479.652,396.36 479.766,386.789C479.957,375.312 480.276,364.993 479.198,353.454C476.971,329.617 460.044,313.255 437.182,307.835C420.09,303.784 399.202,304.874 383.865,314.356C370.274,322.759 364.214,335.055 360.582,350.25C358.467,362.886 358.996,383.83 359.158,397.067C359.409,414.317 359.527,431.57 359.512,448.823L359.361,662.882C322.158,663.531 283.974,662.28 246.981,663.272L246.9,426.369L246.627,372.641C246.581,347.36 251.291,305.673 219.203,297.938C208.391,295.332 192.688,296.165 181.853,298.518C182.049,269.998 181.741,240.613 181.516,212.003C223.449,212.136 265.381,212.501 307.311,213.097C314.909,213.251 322.509,213.333 330.11,213.345C337.283,213.344 345.117,213.029 352.185,214.213C355.751,214.811 356.551,216.272 358.456,219.095C359.162,230.227 358.881,244.552 359.021,256.085C377.312,240.259 391.559,228.886 414.641,220.402C434.224,213.205 449.421,210.43 470.218,209.726ZM661.883,227.994C701.422,228.441 741.1,227.594 780.656,228.022C790.598,228.13 800.899,228.226 810.824,227.877C809.903,270.159 810.532,314.288 810.544,356.644L810.538,582.762L810.572,670.46C810.595,688.675 811.61,707.518 809.078,725.304C803.594,763.818 784.281,794.584 745.311,805.245C710.672,814.721 678.385,813.63 643.215,813.612L566.275,813.564L312.375,813.583L247.188,813.512C247.865,800.002 247.333,784.952 247.104,771.349C246.834,754.781 246.698,738.211 246.696,721.64C248.806,721.737 250.917,721.798 253.029,721.823L505.736,722.08C539.423,722.059 571.876,721.063 605.437,720.602C615.249,720.507 625.061,720.465 634.874,720.474C655.057,720.432 675.418,719.07 690.559,703.828C710.945,683.306 708.535,651.833 708.435,625.601L708.332,563.497L708.556,337.234C708.6,324.76 707.375,316.844 698.013,307.517C687.426,296.97 675.381,296.812 661.539,296.911C661.404,273.938 661.519,250.964 661.883,227.994Z" style="fill:rgb(174,40,87);"/>
    </g>
</svg>
