<?xml version="1.0" encoding="UTF-8" standalone="no"?>
<!DOCTYPE svg PUBLIC "-//W3C//DTD SVG 1.1//EN" "http://www.w3.org/Graphics/SVG/1.1/DTD/svg11.dtd">
<svg width="100%" height="100%" viewBox="0 0 884 824" version="1.1" xmlns="http://www.w3.org/2000/svg" xmlns:xlink="http://www.w3.org/1999/xlink" xml:space="preserve" xmlns:serif="http://www.serif.com/" style="fill-rule:evenodd;clip-rule:evenodd;stroke-linejoin:round;stroke-miterlimit:2;">
    <g transform="matrix(1,0,0,1,-61.0429,-91.7181)">
        <path d="M800.037,151.455C844.779,151.386 890.506,150.927 935.195,151.416C932.876,163.402 931.07,176.54 929.144,188.677L918.817,254.051C917.193,264.423 915.467,277.892 913.446,287.918L882.837,287.989C876.074,325.079 869.505,362.203 863.13,399.361C860.643,413.607 855.191,438.551 854.075,451.781C872.155,465.348 889.787,479.502 906.943,494.22C914.265,500.603 923.934,508.848 929.419,516.503C939.913,531.147 938.877,554.264 931.937,570.212C924.982,586.193 921.563,603.757 910.811,617.855C907.518,622.173 903.856,626.109 900.571,630.413C898.369,633.593 895.706,641.334 893.402,645.369C883.622,662.495 872.598,673.952 856.052,684.248C854.463,695.236 851.925,705.458 847.869,715.812C846.692,718.816 844.968,721.698 843.729,724.678C842.236,729.377 841.852,735.948 840.38,740.999C835.226,758.683 823.437,774.788 808.785,785.774C797.229,794.439 784.937,799.5 771.21,803.138C765.544,827.235 761.607,853.04 756.267,877.554L573.34,877.477C562.792,890.345 553.492,897.409 538.113,904.398C534.085,875.898 531.82,855.348 518.763,829.437C511.878,825.244 501.547,821.498 493.99,817.651C472.739,806.983 453.049,793.455 435.469,777.445C427.375,810.35 418.007,844.868 410.544,877.648C385.779,877.221 360.293,877.525 335.485,877.53L244.284,877.539L163.564,472.306L140.466,355.253C136.095,333.479 130.853,310.139 127.033,288.465L91.445,288.527L75.865,193.16C73.909,180.883 70.296,163.001 69.254,151.506L258.186,151.559C291.259,151.556 325.028,151.9 358.058,151.514L358.068,288.442C340.061,288.438 320.573,288.042 302.695,288.474L317.211,370.748C318.53,378.341 319.845,385.922 321.192,393.51C321.993,398.019 323.319,403.507 323.82,407.968C347.926,376.01 363.874,356.236 395.418,330.309C399.365,317.602 403.362,304.907 409.369,293.035C410.609,290.584 412.364,287.621 413.333,285.109C414.029,279.505 414.475,273.504 415.074,267.905C420.897,213.457 463.023,136.683 505.649,102.825C533.026,146.848 555.81,188.533 587.386,230.784C611.151,232.162 631.362,234.97 654.236,241.727C655.548,232.653 658.521,220.866 660.281,211.583C664.08,191.54 668.229,171.421 671.289,151.243C680.601,151.697 691.911,151.431 701.312,151.431L752.567,151.41C759.704,140.463 766.743,129.592 773.152,118.203C774.57,115.683 776.25,112.723 777.866,110.351C787.749,121.13 795.245,137.773 800.037,151.455Z" style="fill:rgb(194,91,31);"/>
        <path d="M328.167,389.886C347.04,365.46 362.614,347.775 388.92,325.948C392.784,313.558 396.818,301.23 402.677,289.649C403.684,287.659 405.086,285.312 406.01,283.199C406.633,277.923 407.057,272.338 407.617,267.107C413.619,210.984 457.047,131.852 500.984,96.952L507.574,91.718L512.018,98.864C538.678,141.735 560.949,182.389 591.327,223.512C611.403,224.817 629.148,227.244 648.284,232.278C649.745,224.906 651.64,216.898 652.912,210.186C656.695,190.233 660.828,170.206 663.874,150.118L664.889,143.422L671.654,143.752C680.853,144.2 692.025,143.931 701.309,143.931C701.309,143.931 748.5,143.912 748.5,143.912C754.785,134.245 760.951,124.591 766.616,114.525C768.133,111.829 769.939,108.666 771.668,106.128L776.997,98.306L783.394,105.282C792.729,115.464 800.157,130.509 805.277,143.945C848.372,143.852 892.304,143.446 935.277,143.916L944.266,144.015L942.558,152.841C940.255,164.745 938.465,177.793 936.552,189.847L926.226,255.215C924.587,265.685 922.838,279.28 920.798,289.4L919.588,295.404L889.098,295.474C882.733,330.496 876.541,365.547 870.52,400.64L870.518,400.651C868.298,413.368 863.663,434.713 861.979,448.346C879.001,461.228 895.624,474.628 911.849,488.547L911.871,488.567C919.595,495.299 929.73,504.06 935.515,512.135C947.452,528.792 946.708,555.065 938.814,573.205C931.62,589.736 927.897,607.821 916.774,622.403C913.52,626.67 909.907,630.564 906.645,634.818C904.549,637.954 902.097,645.267 899.915,649.088C890.056,666.352 879.012,678.22 862.946,688.744C861.254,699.027 858.698,708.73 854.852,718.548C853.698,721.494 852.032,724.329 850.781,727.258C849.383,731.883 849.005,738.211 847.58,743.097C841.98,762.313 829.205,779.837 813.284,791.775C802.173,800.106 790.444,805.36 777.52,809.162C772.382,831.971 768.61,856.131 763.595,879.15L762.309,885.057C762.309,885.057 576.835,884.978 576.836,884.978C566.389,897.124 556.647,904.213 541.216,911.226L532.09,915.373L530.687,905.448C526.889,878.573 524.823,858.967 513.045,834.79C506.399,831.113 497.369,827.784 490.61,824.346C472.455,815.231 455.408,804.087 439.791,791.136C432.449,820.352 424.416,850.504 417.857,879.313L416.505,885.252L410.415,885.147C385.693,884.721 360.251,885.025 335.486,885.03L238.131,885.04L156.207,473.765L133.11,356.718C129.143,336.955 124.462,315.907 120.77,295.976L85.073,296.038L68.461,194.355L68.458,194.34C66.478,181.916 62.839,163.816 61.785,152.183L61.043,144.004L258.188,144.059C291.231,144.056 324.97,144.4 357.97,144.015L365.557,143.926L365.569,295.944L358.066,295.942C343.013,295.939 326.92,295.659 311.607,295.823L324.599,369.455L324.6,369.464C325.784,376.277 326.964,383.08 328.167,389.886ZM778.679,123.662C772.464,134.549 765.703,144.994 758.85,155.506L756.632,158.908L701.312,158.931C693.976,158.931 685.491,159.087 677.669,158.948C674.733,177.011 671.053,195.026 667.65,212.98C665.909,222.164 662.957,233.823 661.659,242.8L660.419,251.374L652.111,248.92C629.817,242.334 610.115,239.615 586.952,238.271L583.468,238.069L581.378,235.274C551.441,195.215 529.358,155.672 503.847,114.173C464.829,149.231 427.88,218.687 422.531,268.703C421.928,274.343 421.477,280.388 420.776,286.033L420.662,286.948L420.33,287.808C419.279,290.533 417.406,293.762 416.061,296.421C410.244,307.92 406.403,320.227 402.58,332.534L401.915,334.678L400.18,336.103C369.165,361.596 353.51,381.062 329.808,412.484L318.468,427.517L316.367,408.805C315.882,404.489 314.582,399.183 313.808,394.821C312.459,387.227 311.143,379.64 309.823,372.041L293.793,281.187L302.514,280.976C317.993,280.602 334.675,280.845 350.567,280.921L350.559,159.09C319.928,159.349 288.76,159.056 258.185,159.059C258.185,159.059 77.714,159.008 77.714,159.008C79.233,169.598 81.756,182.472 83.269,191.963L97.818,281.016L133.325,280.954L134.419,287.163C138.229,308.781 143.46,332.06 147.822,353.789L170.921,470.847L250.437,870.038L335.484,870.03C358.31,870.025 381.709,869.769 404.596,870.059C411.824,839.021 420.568,806.624 428.186,775.654L431.198,763.411L440.519,771.9C457.593,787.449 476.716,800.587 497.374,810.958L497.392,810.967C505.106,814.894 515.636,818.751 522.664,823.031L524.496,824.147L525.461,826.062C537.296,849.548 540.627,868.74 544.08,892.998C553.262,887.802 560.063,881.844 567.54,872.722L569.791,869.976L750.195,870.051C754.929,847.286 758.687,823.63 763.909,801.421L764.939,797.041L769.289,795.888C782.066,792.502 793.529,787.839 804.286,779.773C817.669,769.739 828.472,755.053 833.18,738.901C834.667,733.795 835.072,727.157 836.581,722.407L836.679,722.098L836.804,721.799C838.023,718.866 839.728,716.033 840.886,713.076C844.728,703.269 847.124,693.583 848.629,683.175L849.128,679.723L852.09,677.88C867.507,668.286 877.776,657.608 886.889,641.65C889.283,637.458 892.117,629.447 894.504,626.001L894.609,625.863C897.894,621.559 901.555,617.624 904.848,613.307C915.23,599.694 918.344,582.651 925.06,567.219C931.047,553.463 932.374,533.504 923.323,520.871C918.144,513.644 908.957,505.925 902.039,499.894C885.013,485.289 867.516,471.243 849.574,457.78L846.253,455.288L846.602,451.151C847.731,437.758 853.221,412.505 855.74,398.08C862.119,360.901 868.692,323.755 875.459,286.644L876.578,280.503C876.578,280.503 907.207,280.432 907.207,280.432C908.741,271.532 910.105,261.206 911.408,252.886L921.736,187.504L921.737,187.502C923.211,178.209 924.618,168.335 926.234,158.831C884.411,158.486 841.801,158.891 800.049,158.955L794.72,158.963L792.959,153.934C789.569,144.255 784.8,132.956 778.679,123.662ZM587.853,390.019C600.748,389.797 609.633,391.965 621.285,397.293L617.542,399.694C616.356,402.169 615.508,404.793 615.022,407.494C613.607,415.14 614.562,422.199 619.216,428.647C623.245,434.261 629.417,437.959 636.268,438.863C645.733,440.086 651.713,436.751 658.665,431.23L667.433,436.565C667.929,436.896 667.624,436.648 668.18,437.478C664.418,443.48 649.616,448.359 642.575,448.985C630.084,449.971 617.703,446.036 608.073,438.02C593.501,425.709 589.43,408.186 587.853,390.019ZM538.197,300.385C528.049,306.602 518.903,313.527 509.652,320.972C504.454,308.344 499.684,299.058 491.944,287.817C503.199,288.653 509.619,292.237 518.603,298.695C514.732,277.695 509.731,264.069 499.635,245.357C500.127,245.497 500.618,245.641 501.108,245.788C517.369,250.676 528.524,262.271 536.389,276.931C539.957,286.108 539.829,290.888 538.197,300.385ZM896.87,573.874C897.925,580.579 891.999,592.13 887.795,597.21C881.862,604.379 875.539,608.245 866.242,609.329C866.26,607.877 870.239,604.637 871.662,603.182C880.679,593.962 888.413,583.655 896.87,573.874ZM643.628,415.754C645.974,414.994 648.501,416.23 649.342,418.549C650.183,420.868 649.035,423.436 646.747,424.357C645.194,424.981 643.425,424.709 642.132,423.647C640.839,422.584 640.229,420.901 640.54,419.257C640.852,417.613 642.036,416.27 643.628,415.754ZM760.254,674.437C763.839,682.421 761.181,696.698 759.472,704.96C764.141,702.942 767.014,700.889 771.093,697.909C775.054,701.205 778,704.056 781.211,708.053C785.458,705.219 788.718,702.376 792.464,698.942C796.941,701.099 799.592,702.814 802.833,706.636C813.058,697.596 818.67,692.052 827.167,681.23C826.95,690.417 825.233,694.581 820.965,702.53C817.732,707.919 815.011,711.317 810.302,715.379L807.758,709.595C794.487,717.911 783.709,717.744 768.477,716.368C754.403,715.097 737.69,711.593 730.774,697.829C742.135,690.71 750.732,683.746 760.254,674.437ZM863.904,627.639L865.308,627.506L865.733,627.97C864.163,642.995 851.114,655.01 839.054,662.536C841.705,652.554 841.584,645.207 838.8,635.447C831.461,641.596 829.299,643.85 819.977,646.532C820.468,644.255 821.935,639.321 820.5,637.528L819.264,637.906C809.336,643.719 801.145,646.227 789.825,647.407C792.681,641.956 793.819,638.34 795.488,632.417C816.539,636.321 843.266,632.001 863.904,627.639ZM756.596,619.393C765.38,623.059 774.237,626.548 783.161,629.858C778.592,638.15 770.977,645.508 763.249,650.861C756.362,655.313 752.241,657.212 744.38,659.353C753.258,645.236 755.635,635.994 756.596,619.393ZM869.388,532.705C881.999,531.109 895.023,534.153 907.032,537.548C895.024,538.902 881.235,537.747 867.38,539.295C855.517,540.132 847.541,542.295 838.15,549.334C847.475,537.06 854.34,534.336 869.388,532.705ZM810.412,542.572C812.254,562.658 821.919,579.466 839.799,589.565C841.579,586.998 847,577.481 847.997,576.36L848.855,576.432C850.257,578.242 851.388,585.993 850.711,587.965C841.545,614.655 805.005,613.165 782.743,609.532C743.912,603.335 719.232,571.576 691.767,546.767C675.639,532.199 656.141,524.323 634.204,526.773C609.714,529.507 584.791,544.85 574.606,567.93C588.306,562.443 595.306,561.15 609.863,562.759C600.031,598.733 625.396,616.092 648.898,638.002C655.47,644.14 661.755,650.576 667.734,657.292C673.856,664.162 679.63,671.335 685.033,678.784C696.123,694.112 707.107,711.699 722.587,722.71C741.078,735.863 764.917,739.668 787.097,737.488C789.456,737.256 801.182,735.077 801.874,735.513C802.331,739.153 799.601,744.823 797.349,747.575C786.233,761.154 772.021,764.204 756.042,767.039C757.649,763.875 759.045,761.275 760.228,757.92C738.897,759.027 722.91,762.201 702.493,752.101C711.617,749.199 715.91,747.935 724.256,743.029C693.964,730.568 682.402,711.072 663.004,686.501C644.031,662.467 618.484,638.963 588.332,631.014C565.76,625.063 547.781,627.5 531.316,644.427C549.358,641.272 568.32,643.744 583.973,653.657C576.894,655.68 570.343,657.638 564.476,662.33C530.618,689.405 539.631,742.844 558.892,775.606C556.083,773.522 553.251,771.434 550.473,769.315C495.318,727.24 471.261,667.481 516.414,607.454C517.084,606.563 517.77,605.684 518.47,604.816C489.669,614.416 466.342,632.571 452.6,660.11L448.846,667.813C447.305,659.675 446.055,653.014 445.534,644.678C443.86,617.882 453.801,590.896 468.607,568.909C475.137,559.213 481.188,552.915 489.955,545.433C461.969,546.757 438.271,558.844 418.962,579.044C420.863,568.85 421.773,565.719 425.843,556.018C435.848,540.027 447.655,524.794 461.972,512.451C485.397,492.257 517.433,477.609 548.827,479.773C552.491,480.01 554.844,480.116 558.491,479.951C557.673,481.997 553.158,484.361 551.099,485.925C545.819,489.935 541.249,494.234 536.594,498.937C560.331,500.787 579.168,502.235 603.148,500.372C624.129,498.742 647.668,489.601 667.504,489.628C700.438,489.672 739.965,515.589 766.963,532.573C773.47,536.667 779.194,541.488 785.439,545.347C782.842,535.483 780.356,528.899 776.606,519.361C790.668,525.54 799.425,531.685 810.412,542.572ZM753.617,574.252C751.277,581.236 758.991,583.093 764.327,583.103C764.712,578.368 757.644,574.583 753.617,574.252ZM788.098,590.206C786.939,592.003 786.595,592.245 786.607,594.273C787.938,598.041 792.114,598.312 795.622,598.67C797.344,594.051 791.902,590.93 788.098,590.206ZM742.368,540.034C745.486,550.714 760.208,562.352 771.324,563.19C765.198,555.124 751.78,543.323 742.368,540.034ZM782.693,567.943C778.945,573.733 784.741,575.762 789.487,576.16C792.122,570.984 787.28,568.182 782.693,567.943ZM689.305,521.573C697.46,535.044 727.424,555.229 742.385,559.614C731.471,544.257 716.59,534.478 699.853,526.119C697.683,525.035 691.388,522.137 689.305,521.573Z" style="fill:rgb(248,241,227);"/>
        <path d="M307.765,467.407C308.984,463.76 317.665,448.888 319.788,445.194C340.696,408.82 383.181,356.818 419.725,335.307C412.913,315.436 414.385,304.597 413.333,285.109C414.029,279.505 414.475,273.504 415.074,267.905C420.897,213.457 463.023,136.683 505.649,102.825C533.026,146.848 555.81,188.533 587.386,230.784C611.151,232.162 631.362,234.97 654.236,241.727C660.74,243.808 666.558,245.749 672.94,248.158C677.25,244.907 681.359,240.805 685.369,237.152C712.646,212.306 732.992,182.434 752.567,151.41C759.704,140.463 766.743,129.592 773.152,118.203C774.57,115.683 776.25,112.723 777.866,110.351C787.749,121.13 795.245,137.773 800.037,151.455C811.847,193.421 811.722,237.849 799.676,279.747C796.357,291.369 792.139,302.828 788.199,314.251C787.355,316.697 786.622,318.834 786.019,321.355C789.009,325.588 793.795,332.94 797.057,336.626C818.813,361.211 828.516,381.829 811.458,412.768C819.584,423.77 821.37,433.228 821.089,446.726C844.277,461.611 865.929,478.946 887.387,496.22C897.171,504.096 908.057,512.161 917.053,520.945C920.581,524.39 924.054,530.261 925.134,534.996C927.631,547.741 921.766,558.911 917.102,570.265C915.813,574.411 915.163,578.868 914.097,583.06C912.16,590.679 908.681,597.636 904.562,604.297C900.362,611.089 894.001,616.611 889.325,622.853C886.796,626.229 885.33,634.265 882.953,637.995C871.931,658.478 861.32,665.564 841.692,675.472C842.388,690.25 838.783,704.912 831.315,717.683C833.829,730.4 828.572,742.701 821.599,753.14C800.178,785.21 761.174,794.129 724.588,792.236C726.645,789.679 729.146,786.392 731.413,784.127C713.497,782.982 696.071,779.722 680.014,771.28C677.607,771.615 674.817,772.077 672.425,772.234C687.826,787.064 708.978,799.632 730.218,803.312C737.102,804.505 743.972,804.495 750.926,804.51C747.066,822.619 743.884,840.888 740.242,859.071C706.449,859.308 672.655,859.355 638.862,859.212C621.579,859.164 602.932,858.836 585.712,859.45C595.094,845.566 597.955,834.602 602.357,819.264C617.278,826.418 634.169,831.62 650.868,832.041C640.878,817.506 633.248,804.784 632.825,786.454L632.646,781.443C632.892,767.082 638.991,745.422 654.532,740.967C656.822,745.856 660.577,751.889 666.849,751.916C670.052,751.929 674.404,751.816 676.901,749.549C677.298,747.66 676.52,747.174 674.61,745.829C667.988,741.167 665.714,736.514 662.337,729.323C660.847,725.875 659.651,725.11 656.154,724.154C631.338,721.458 615.087,749.657 613.18,771.105C611.724,787.477 614.058,798.062 621.662,812.477C606.988,806.578 602.377,801.612 592.332,789.948C587.099,824.097 574.858,854.27 550.313,879.32C548.454,867.129 548.615,861.344 545.669,848.365C535.597,803.995 503.452,781.637 477.285,746.724C478.369,752.41 478.847,757.897 480.046,763.461C482.436,774.552 486.89,784.871 491.246,795.298C475.839,786.82 461.382,776.718 448.123,765.166L446.412,763.834C416.82,738.157 398.565,707.042 382.289,671.815C372.791,686.849 364.281,711.415 361.632,728.886C346.359,713.378 333.965,695.278 325.029,675.431C312.049,647.136 304.8,604.872 315.829,575.385C297.805,581.31 289.756,586.176 274.808,597.373C275.447,589.998 278.171,579.042 279.967,571.742C292.094,522.459 321.629,477.442 359.225,443.573C339.018,450.311 326.478,460.698 310.038,472.413C308.814,474.05 303.562,478.469 301.734,480.072C303.634,475.852 305.517,471.437 307.765,467.407ZM863.904,627.639C843.266,632.001 816.539,636.321 795.488,632.417C793.819,638.34 792.681,641.956 789.825,647.407C801.145,646.227 809.336,643.719 819.264,637.906L820.5,637.528C821.935,639.321 820.468,644.255 819.977,646.532C829.299,643.85 831.461,641.596 838.8,635.447C841.584,645.207 841.705,652.554 839.054,662.536C851.114,655.01 864.163,642.995 865.733,627.97L865.308,627.506L863.904,627.639ZM896.87,573.874C888.413,583.655 880.679,593.962 871.662,603.182C870.239,604.637 866.26,607.877 866.242,609.329C875.539,608.245 881.862,604.379 887.795,597.21C891.999,592.13 897.925,580.579 896.87,573.874ZM536.389,276.931C528.524,262.271 517.369,250.676 501.108,245.788C500.618,245.641 500.127,245.497 499.635,245.357C509.731,264.069 514.732,277.695 518.603,298.695C509.619,292.237 503.199,288.653 491.944,287.817C499.684,299.058 504.454,308.344 509.652,320.972C518.903,313.527 528.049,306.602 538.197,300.385C540.517,299.062 544.522,296.056 547.004,294.468C552.075,291.224 556.737,288.627 562.028,285.775C561.437,263.886 550.329,243.334 540.147,224.518L539.42,223.471C536.912,219.038 534.38,214.618 531.823,210.213L530.823,208.472C520.932,192.263 510.934,175.53 499.836,160.164C469.715,190.499 445.04,238.078 446.239,281.233C446.743,299.396 449.357,323.919 463.194,337.447C466.162,340.277 469.691,342.878 473.045,345.237C460.52,293.154 465.448,243.315 493.686,197.141C494.616,195.625 495.585,194.132 496.592,192.665C508.628,219.065 525.878,242.094 535.143,269.752C535.773,271.634 537.169,275.098 536.389,276.931ZM701.374,287.318C724.358,314.217 742.201,342.688 753.681,376.412C757.747,388.357 762.689,412.219 768.884,421.264C781.941,413.952 787.344,406.921 792.118,392.625C793.728,395.125 794.228,395.679 796.341,397.789C798.832,385.146 797.051,372.524 789.756,361.707C789.07,360.681 788.346,359.681 787.587,358.708C784.248,369.721 779.863,377.289 773.367,386.824C771.898,355.423 756.824,331.899 734.458,310.534C728.766,305.096 708.051,288.867 701.374,287.318ZM760.254,674.437C750.732,683.746 742.135,690.71 730.774,697.829C737.69,711.593 754.403,715.097 768.477,716.368C783.709,717.744 794.487,717.911 807.758,709.595L810.302,715.379C815.011,711.317 817.732,707.919 820.965,702.53C825.233,694.581 826.95,690.417 827.167,681.23C818.67,692.052 813.058,697.596 802.833,706.636C799.592,702.814 796.941,701.099 792.464,698.942C788.718,702.376 785.458,705.219 781.211,708.053C778,704.056 775.054,701.205 771.093,697.909C767.014,700.889 764.141,702.942 759.472,704.96C761.181,696.698 763.839,682.421 760.254,674.437ZM810.412,542.572C812.131,531.677 814.644,523.994 822.497,515.758C831.875,505.922 840.477,505.798 852.923,505.496C846.651,501.869 841.56,497.589 835.492,493.55C812.633,478.335 789.006,458.256 762.649,449.917C756.555,447.989 749.628,447.517 743.467,447.779C726.036,448.521 718.551,453.559 707.235,465.66C722.546,459.642 750.032,457.91 765.744,463.909C767.863,464.718 769.261,464.373 771.222,465.942L771.163,466.791C769.097,466.584 767.013,466.649 764.963,466.983C748.867,469.474 740.012,475.108 730.455,488C736.449,494.522 737.751,496.63 741.593,504.706C724.146,495.935 711.755,484.674 692.582,477.544C671.675,469.77 664.754,474.486 643.642,476.255C629.618,477.43 617.097,476.095 603.551,472.594C602.64,472.451 599.569,471.494 598.52,471.195C576.972,464.288 556.622,452.25 534.334,446.746C542.15,437.381 546.32,433.692 554.176,425.399C519.411,413.744 492.992,428.389 466.362,449.665C472.335,449.723 501.501,450.832 505.636,453.748C504.865,454.786 500.027,456.422 498.522,457.138C465.079,473.045 442.554,505.343 430.772,539.639C429.259,544.044 426.144,551.705 425.843,556.018C421.773,565.719 420.863,568.85 418.962,579.044C438.271,558.844 461.969,546.757 489.955,545.433C481.188,552.915 475.137,559.213 468.607,568.909C453.801,590.896 443.86,617.882 445.534,644.678C446.055,653.014 447.305,659.675 448.846,667.813L452.6,660.11C466.342,632.571 489.669,614.416 518.47,604.816C517.77,605.684 517.084,606.563 516.414,607.454C471.261,667.481 495.318,727.24 550.473,769.315C553.251,771.434 556.083,773.522 558.892,775.606C539.631,742.844 530.618,689.405 564.476,662.33C570.343,657.638 576.894,655.68 583.973,653.657C568.32,643.744 549.358,641.272 531.316,644.427C547.781,627.5 565.76,625.063 588.332,631.014C618.484,638.963 644.031,662.467 663.004,686.501C682.402,711.072 693.964,730.568 724.256,743.029C715.91,747.935 711.617,749.199 702.493,752.101C722.91,762.201 738.897,759.027 760.228,757.92C759.045,761.275 757.649,763.875 756.042,767.039C772.021,764.204 786.233,761.154 797.349,747.575C799.601,744.823 802.331,739.153 801.874,735.513C801.182,735.077 789.456,737.256 787.097,737.488C764.917,739.668 741.078,735.863 722.587,722.71C707.107,711.699 696.123,694.112 685.033,678.784C679.63,671.335 673.856,664.162 667.734,657.292C661.755,650.576 655.47,644.14 648.898,638.002C625.396,616.092 600.031,598.733 609.863,562.759C595.306,561.15 588.306,562.443 574.606,567.93C584.791,544.85 609.714,529.507 634.204,526.773C656.141,524.323 675.639,532.199 691.767,546.767C719.232,571.576 743.912,603.335 782.743,609.532C805.005,613.165 841.545,614.655 850.711,587.965C851.388,585.993 850.257,578.242 848.855,576.432L847.997,576.36C847,577.481 841.579,586.998 839.799,589.565C821.919,579.466 812.254,562.658 810.412,542.572ZM689.305,521.573C691.388,522.137 697.683,525.035 699.853,526.119C716.59,534.478 731.471,544.257 742.385,559.614C727.424,555.229 697.46,535.044 689.305,521.573ZM742.368,540.034C751.78,543.323 765.198,555.124 771.324,563.19C760.208,562.352 745.486,550.714 742.368,540.034ZM753.617,574.252C757.644,574.583 764.712,578.368 764.327,583.103C758.991,583.093 751.277,581.236 753.617,574.252ZM788.098,590.206C791.902,590.93 797.344,594.051 795.622,598.67C792.114,598.312 787.938,598.041 786.607,594.273C786.595,592.245 786.939,592.003 788.098,590.206ZM782.693,567.943C787.28,568.182 792.122,570.984 789.487,576.16C784.741,575.762 778.945,573.733 782.693,567.943ZM754.648,487.974C756.925,486.278 758.697,484.828 762.014,483.488C775.97,477.849 792.771,480.762 804.609,489.817C804.727,489.976 804.844,490.134 804.962,490.293L804.541,490.922C802.85,490.967 802.064,490.675 800.45,490.266L798.313,490.204C784.161,488.664 768.886,487.138 754.648,487.974ZM587.853,390.019C589.43,408.186 593.501,425.709 608.073,438.02C617.703,446.036 630.084,449.971 642.575,448.985C649.616,448.359 664.418,443.48 668.18,437.478C667.624,436.648 667.929,436.896 667.433,436.565L658.665,431.23C651.713,436.751 645.733,440.086 636.268,438.863C629.417,437.959 623.245,434.261 619.216,428.647C614.562,422.199 613.607,415.14 615.022,407.494C615.508,404.793 616.356,402.169 617.542,399.694L621.285,397.293C609.633,391.965 600.748,389.797 587.853,390.019ZM869.388,532.705C854.34,534.336 847.475,537.06 838.15,549.334C847.541,542.295 855.517,540.132 867.38,539.295C881.235,537.747 895.024,538.902 907.032,537.548C895.023,534.153 881.999,531.109 869.388,532.705ZM643.628,415.754C642.036,416.27 640.852,417.613 640.54,419.257C640.229,420.901 640.839,422.584 642.132,423.647C643.425,424.709 645.194,424.981 646.747,424.357C649.035,423.436 650.183,420.868 649.342,418.549C648.501,416.23 645.974,414.994 643.628,415.754ZM668.934,562.437C684.287,585.698 690.941,597.415 696.487,625.035C682.464,608.542 656.885,589.869 634.753,587.925C633.884,587.847 633.012,587.795 632.14,587.768C648.079,604.19 665.289,621.283 680.057,638.654C690.319,650.63 709.302,675.854 722.034,682.779C726.707,681.674 729.672,680.801 734.099,678.817C723.339,659.184 717.386,641.779 712.485,620.075C707.901,599.773 689.114,570.33 668.934,562.437ZM666.136,349.109L662.822,346.178C648.6,335.007 640.097,329.974 622.11,330.019C627.623,335.093 629.14,337.214 633.275,343.516C599.54,333.308 572.968,343.737 550.346,370.204C577.008,363.743 606.581,360.56 630.954,375.911C646.413,385.647 657.878,397.053 671.359,409.437C681.687,418.545 695.56,434.518 710.968,431.501C718.196,430.085 726.958,422.638 730.354,416.221C741.079,395.952 737.828,375.051 717.93,362.866C723.624,379.361 719.067,392.539 708.198,405.786C700.632,389.388 679.478,361.58 666.136,349.109ZM756.596,619.393C755.635,635.994 753.258,645.236 744.38,659.353C752.241,657.212 756.362,655.313 763.249,650.861C770.977,645.508 778.592,638.15 783.161,629.858C774.237,626.548 765.38,623.059 756.596,619.393ZM453.977,404.083C411.017,423.069 369.91,471.575 346.34,511.346C342.185,518.356 337.29,529.118 333.876,536.676C348.031,528.93 360.34,522.601 376.616,519.644C358.538,542.738 350.19,568.039 353.78,597.657C354.353,602.276 355.193,606.857 356.296,611.379C359.223,620.997 362.367,629.095 367.713,637.775C362.449,583.351 386.304,511.886 430.545,477.978C417.563,477.987 410.276,479.146 398.246,479.65C406.843,463.653 416.744,448.392 427.847,434.021C433.518,426.715 439.572,419.715 445.982,413.049C447.705,411.263 453.528,406.003 454.237,404.382L453.977,404.083ZM818.833,659.664C808.692,661.391 799.174,662.331 788.85,661.789C792.774,666.862 795.88,671.017 799.396,676.399C800.698,678.933 802.033,681.436 803.133,684.065C807.751,679.638 820.356,666.467 820.626,660.041L820.223,659.493L818.833,659.664ZM777.741,184.373C773.838,212.586 762.512,256.47 748.031,281.144C752.391,283.525 756.593,285.665 760.518,288.744C763.016,291.303 765.442,293.932 767.793,296.627C778.782,265.612 786.3,234.925 781.058,201.933C780.533,198.628 779.649,186.141 777.741,184.373ZM195.797,529.11L164.889,372.282L151.505,304.727C149.544,294.757 146.184,280.013 144.811,270.245C132.304,269.849 119.619,270.471 106.995,270.175C102.809,236.741 98.175,203.365 93.094,170.055C110.263,169.72 127.952,169.972 145.161,169.97L239.459,170.006L303.816,169.948C315.038,169.936 327.886,169.64 339.008,170.06C339.021,203.134 338.567,237.178 339.196,270.142C321.455,270.158 297.455,269.415 280.23,270.269C290.946,323.17 298.221,377.679 309.361,430.189C289.781,461.835 274.657,492.695 266.565,529.409C272.348,523.72 280.419,515.346 286.403,510.24C267.43,549.861 256.52,589.474 257.521,633.832C269.139,621.597 281.218,612.543 296.711,605.781C296.786,611.597 296.74,617.861 297.272,623.621C301.931,674.026 326.298,714.036 361.967,748.751C363.592,750.333 364.908,751.633 366.699,753.048C368.791,741.998 376.119,717.563 381.188,707.332C391.699,727.063 405.136,743.256 420.833,759.072C416.432,771.28 412.086,788.919 408.842,801.763L394.208,859.234C367.497,859.383 340.785,859.354 314.075,859.148C297.468,859.153 277.242,859.83 260.907,859.191C259.137,847.751 256.403,835.287 254.187,823.804C249.278,798.006 244.157,772.249 238.825,746.535L196.445,532.274L195.797,529.11ZM816.268,169.589C847.348,169.212 880.585,169.21 911.677,169.596C907.314,203.299 901.516,236.458 896.844,269.972C886.645,270.009 876.447,269.938 866.249,269.759C863.898,281.578 862.025,293.984 859.966,305.909C855.489,332.506 850.832,359.072 845.996,385.607C843.567,398.868 840.821,412.978 838.915,426.261C835.2,419.564 832.195,414.356 828.125,407.874C837.832,387.214 838.213,371.355 825.149,351.794C817.964,341.036 810.451,332.332 801.946,322.654C806.432,308.21 810.633,296.564 814.54,281.416C824.209,244.836 824.802,206.45 816.268,169.589ZM687.943,169.514L730.642,169.596C721.015,180.664 711.069,191.451 700.815,201.942C693.978,209.026 686.092,215.986 678.767,222.629C681.852,205.125 685.384,187.027 687.943,169.514Z" style="fill:rgb(5,31,53);"/>
    </g>
</svg>
