<?xml version="1.0" encoding="UTF-8" standalone="no"?>
<!DOCTYPE svg PUBLIC "-//W3C//DTD SVG 1.1//EN" "http://www.w3.org/Graphics/SVG/1.1/DTD/svg11.dtd">
<svg width="100%" height="100%" viewBox="0 0 937 873" version="1.1" xmlns="http://www.w3.org/2000/svg" xmlns:xlink="http://www.w3.org/1999/xlink" xml:space="preserve" xmlns:serif="http://www.serif.com/" style="fill-rule:evenodd;clip-rule:evenodd;stroke-linejoin:round;stroke-miterlimit:2;">
    <g transform="matrix(1,0,0,1,-25.775,-74.0449)">
        <path d="M155.397,89.066L943.197,89.045C937.154,115.153 931.837,146.65 926.698,173.29L894.74,341.319C889.448,369.129 884.386,397.852 878.527,425.469C866.525,400.162 853.266,377.259 833.347,357.22C813.797,337.552 791.166,323.983 764.185,316.942C744.78,311.877 731.617,312.612 712.101,312.647L677.992,312.66L578.249,312.613C576.507,323.843 573.436,337.603 571.233,348.926C567.492,368.524 563.629,388.099 559.645,407.649L628.405,407.661C641.273,407.654 662.12,408.22 674.125,406.506C712.079,401.086 751.221,383.71 785.397,366.953L720.148,707.374L714.878,700.394C688.083,667.059 655.15,639.03 610.91,633.003C599.671,631.472 584.57,632.27 572.921,632.276L517.229,632.323C508.194,682.55 499.403,734.861 489.432,784.781C503.713,802.571 519.159,820.54 533.788,838.132L611.584,932.005L54.353,931.993C62.391,920.346 70.74,906.621 78.443,894.554L126.805,818.001L144.703,789.899C150.427,780.931 155.013,775.384 157.005,764.712C159.227,752.81 161.562,740.877 163.805,728.973L180.837,639.838L224.959,407.552L238.358,335.944C240.825,322.758 243.828,308.27 245.82,295.088C236.646,271.786 225.774,247.528 215.733,224.491C195.876,179.236 175.764,134.094 155.397,89.066Z" style="fill:rgb(32,22,16);fill-rule:nonzero;"/>
        <path d="M803.623,351.546L728.523,743.361C728.523,743.361 703.046,709.616 703.037,709.605C678.667,679.331 649.086,653.342 608.885,647.866C598.248,646.417 583.954,647.27 572.934,647.276L529.784,647.312C521.912,691.493 514.136,736.986 505.511,780.812C518.484,796.757 532.231,812.8 545.329,828.551L643.497,947.006L25.775,946.992L42.007,923.473C49.941,911.977 58.175,898.428 65.779,886.515L114.138,809.966L132.055,781.835L132.059,781.829C136.62,774.683 140.672,770.463 142.26,761.959C144.483,750.049 146.82,738.108 149.068,726.177L166.102,637.031L210.219,404.773L223.614,333.185C225.805,321.475 228.429,308.726 230.366,296.81C221.587,274.842 211.418,252.132 201.991,230.503C182.158,185.305 162.072,140.219 141.73,95.248L132.149,74.067L962.066,74.045L957.811,92.428C951.808,118.36 946.535,149.646 941.431,176.11L909.476,344.123C904.164,372.035 899.081,400.863 893.2,428.582L883.99,471.994L864.974,431.897C853.715,408.156 841.395,386.593 822.709,367.795C816.685,361.734 810.339,356.312 803.623,351.546ZM155.397,89.066C175.764,134.094 195.876,179.236 215.733,224.491C225.774,247.528 236.646,271.786 245.82,295.088C243.828,308.27 240.825,322.758 238.358,335.944L224.959,407.552L180.837,639.838L163.805,728.973C161.562,740.877 159.227,752.81 157.005,764.712C155.013,775.384 150.427,780.931 144.703,789.899L126.805,818.001L78.443,894.554C70.74,906.621 62.391,920.346 54.353,931.993L611.584,932.005L533.788,838.132C519.159,820.54 503.713,802.571 489.432,784.781C499.403,734.861 508.194,682.55 517.229,632.323L572.921,632.276C584.57,632.27 599.671,631.472 610.91,633.003C655.15,639.03 688.083,667.059 714.878,700.394L720.148,707.374L785.397,366.953C751.221,383.71 712.079,401.086 674.125,406.506C662.12,408.22 641.273,407.654 628.405,407.661L559.645,407.649C563.629,388.099 567.492,368.524 571.233,348.926C573.436,337.603 576.507,323.843 578.249,312.613L677.992,312.66L712.101,312.647C731.617,312.612 744.78,311.877 764.185,316.942C791.166,323.983 813.797,337.552 833.347,357.22C853.266,377.259 866.525,400.162 878.527,425.469C884.386,397.852 889.448,369.129 894.74,341.319L926.698,173.29C931.837,146.65 937.154,115.153 943.197,89.045L155.397,89.066ZM794.656,345.707C784.155,339.46 772.788,334.689 760.397,331.456C742.418,326.763 730.209,327.615 712.117,327.647L677.991,327.66C677.991,327.66 590.816,327.619 590.816,327.619C589.234,335.791 587.414,344.301 585.961,351.769C583.358,365.408 580.695,379.036 577.974,392.652L628.397,392.661C640.67,392.654 660.555,393.291 672.005,391.657C708.452,386.452 745.974,369.577 778.793,353.485L794.656,345.707Z" style="fill:white;"/>
        <path d="M214.94,130.164C271.91,129.463 330.119,130.218 387.204,130.171L892.875,130.113L857.559,316.167C857.111,315.71 856.661,315.256 856.208,314.804C799.972,258.69 734.171,266.122 661.67,266.123L540.239,266.184C537.571,282.764 533.744,300.851 530.538,317.433L513.185,407.206C510.375,421.733 507.032,437.449 504.733,451.985L593.514,451.981C624.217,451.988 653.535,453.478 683.669,446.84C703.3,442.516 713.897,437.685 731.832,429.32C730.208,435.786 728.816,444.788 727.538,451.575L719.79,492.366L695.703,618.222C669.831,600.921 639.842,590.775 608.78,588.812C602.329,588.379 594.326,588.55 587.75,588.575L480.749,588.567C480.14,588.638 370.671,586.146 370.448,587.387C370.294,588.239 468.176,655.965 468.176,655.965L442.756,800.194C442.756,800.194 508.896,876.109 521.746,888.829L133.165,888.883C138.581,879.301 145.636,868.437 151.467,859.028L179.262,814.046C181.982,809.679 195.447,789.057 196.611,785.399C199.541,776.196 202.648,756.87 204.626,746.622L221.295,660.181L272.282,393.971L286.309,319.553C288.869,305.896 291.346,291.348 294.272,277.816C288.347,265.701 279.965,251.213 273.442,239.081C259.977,214.31 246.661,189.458 233.494,164.527C227.979,154.246 219.64,140.362 214.94,130.164Z" style="fill:rgb(0,162,142);fill-rule:nonzero;"/>
    </g>
</svg>
