<svg width="100%" height="100%" viewBox="0 0 932 940" version="1.1" xmlns="http://www.w3.org/2000/svg" xmlns:xlink="http://www.w3.org/1999/xlink" xml:space="preserve" xmlns:serif="http://www.serif.com/" style="fill-rule:evenodd;clip-rule:evenodd;stroke-linejoin:round;stroke-miterlimit:2;">
    <g transform="matrix(1,0,0,1,-45.5921,-37.6682)">
        <path d="M505.352,37.761C506.283,37.735 507.213,37.717 508.144,37.707C630.545,36.131 748.583,83.12 836.414,168.385C925.946,256.493 976.7,376.631 977.455,502.243C978.105,628.752 928.643,750.372 839.882,840.517C754.522,927.288 638.092,976.448 516.375,977.112C396.215,979.033 280.126,933.59 193.202,850.606C100.898,762.816 47.74,641.618 45.675,514.249C43.351,390.085 89.972,269.991 175.463,179.916C248.409,104.252 344.844,55.542 449.033,41.732C468.404,39.132 485.952,38.203 505.352,37.761Z" style="fill:rgb(28,28,29);fill-rule:nonzero;"  data-color="color-3"/>
        <path d="M493.233,72.531C733.214,62.384 935.997,248.674 946.195,488.653C956.394,728.633 770.148,931.455 530.171,941.706C290.121,951.959 87.223,765.644 77.021,525.591C66.819,285.539 253.178,82.681 493.233,72.531Z" style="fill:rgb(238,238,238);fill-rule:nonzero;"  data-color="color-4"/>
        <path d="M504.326,90.349C734.424,86.295 924.256,269.511 928.365,499.608C932.474,729.705 749.305,919.581 519.209,923.746C289.034,927.913 99.078,744.667 94.967,514.491C90.857,284.315 274.149,94.403 504.326,90.349Z" style="fill:rgb(0,83,151);fill-rule:nonzero;"  data-color="color-1"/>
        <path d="M494.822,197.715C495.227,197.672 495.633,197.635 496.04,197.605C571.053,193.001 644.781,218.663 700.724,268.849C827.736,382.989 836.979,596.12 722.316,721.424C671.768,776.663 602.986,811.905 527.876,815.621C527.27,815.669 526.663,815.71 526.057,815.744C451.72,820.007 378.983,792.615 324.033,743.187C260.328,686.018 224.914,605.655 220.88,520.529C213.112,356.614 325.475,206.885 494.822,197.715Z" style="fill:rgb(238,238,238);fill-rule:nonzero;"  data-color="color-4"/>
        <path d="M495.76,216.211C496.09,216.184 496.42,216.157 496.75,216.131C566.099,212.007 634.271,235.429 686.442,281.303C775.767,359.469 805.284,496.653 767.378,607.298C731.716,711.391 640.236,789.934 528.877,797.133C528.343,797.192 527.808,797.234 527.272,797.26C455.366,801.344 391.213,777.23 337.673,729.527C279.668,677.108 244.751,603.874 240.541,525.806C235.725,441.266 258.814,366.024 315.717,302.405C363.469,249.017 424.381,220.28 495.76,216.211Z" style="fill:rgb(28,28,29);fill-rule:nonzero;"  data-color="color-3"/>
        <path d="M511.013,317.894C522.918,304.404 537.038,295.156 554.89,291.901C585.907,286.244 613.217,307.362 617.661,338.214C623.299,377.358 597.468,409.06 575.085,437.983C565.552,450.296 556.122,462.69 546.796,475.162C553.639,471.603 565.026,463.359 571.562,458.902C581.94,451.731 592.735,445.183 603.889,439.29C628.735,426.281 656.747,417.139 684.862,425.504C697.062,429.445 705.985,437.252 711.683,448.544C728.361,481.591 711.68,513.378 680.156,529.155C686.227,534.08 693.318,540.023 697.634,546.606C706.357,559.912 710.236,574.962 707.269,590.617C704.31,606.08 695.301,619.722 682.242,628.516C652.819,648.137 616.488,633.62 590.479,615.488C566.508,598.776 540.544,567.062 524.595,542.673C525.288,588.893 528.378,635.295 513.444,679.629C508.88,694.149 502.996,708.219 495.865,721.664C478.855,716.063 469.202,708.88 453.923,699.6C484.317,671.171 495.806,626.441 499.167,586.154C500.318,572.353 499.859,557.458 499.318,543.627C489.26,556.872 477.413,569.953 466.103,582.264C441.897,608.611 405.313,639.258 367.276,635.188C310.052,629.064 296.032,564.986 340.363,530.179C338.977,529.27 337.605,528.341 336.247,527.393C306.502,506.496 296.331,470.413 318.359,439.781C325.809,429.353 337.165,422.386 349.837,420.469C394.882,413.576 439.704,448.461 473.705,473.604C447.959,435.745 409.915,403.459 405.457,354.745C402.226,319.44 424.857,293.476 460.008,291.212C481.455,290.018 498.634,301.352 511.013,317.894Z" style="fill:rgb(4,132,71);fill-rule:nonzero;"  data-color="color-2"/>
    </g>
</svg>
