<?xml version="1.0" encoding="UTF-8" standalone="no"?>
<!DOCTYPE svg PUBLIC "-//W3C//DTD SVG 1.1//EN" "http://www.w3.org/Graphics/SVG/1.1/DTD/svg11.dtd">
<svg width="100%" height="100%" viewBox="0 0 640 645" version="1.1" xmlns="http://www.w3.org/2000/svg" xmlns:xlink="http://www.w3.org/1999/xlink" xml:space="preserve" xmlns:serif="http://www.serif.com/" style="fill-rule:evenodd;clip-rule:evenodd;stroke-linejoin:round;stroke-miterlimit:2;">
    <g transform="matrix(1,0,0,1,-182.352,-168.796)">
        <path d="M202.895,189.059C231.307,188.501 261.473,189.001 290.033,188.998L460.442,188.982C460.628,221.902 460.063,255.556 460.024,288.54C445.581,288.447 421.082,294.341 409.4,303.942C407.75,305.298 407.263,307.579 407.176,309.669C406.745,320.056 407.06,330.978 406.991,341.372L406.867,413.052L536.483,412.873C556.616,412.838 577.148,413.082 597.24,412.806C597.75,376.543 596.249,339.435 596.689,302.953C588.993,300.012 583.644,296.925 575.126,294.21C562.655,290.236 555.446,290.535 543.559,288.543C543.259,278.315 542.98,188.989 542.98,188.989C628.772,189.499 714.567,189.497 800.36,188.986C800.691,219.961 800.6,256.084 800.579,287.342C790.834,288.627 778.104,290.439 769.13,294.043C763.545,296.285 756.756,299.884 751.014,302.484L750.615,674.467C771.163,684.663 778.542,687.773 801.452,688.726C800.966,723.487 800.808,758.252 800.976,793.016C800.976,793.016 620.726,793.861 543.847,792.888C543.225,787.795 543.687,693.51 544.784,688.408C548.686,687.691 557.042,687.258 561.54,686.684C576.709,684.75 584.031,680.774 597.187,674.049C595.566,632.333 598.157,587.848 597.608,545.661C574.97,546.36 550.546,545.959 527.826,545.957L407.053,545.978L406.537,673.198C411.621,675.014 416.31,677.122 420.942,679.918C432.49,686.887 446.818,687.808 459.97,689.038C460.081,723.695 459.928,758.353 459.512,793.009L202.431,793.028C202.141,770.003 202.69,695.502 202.967,690.881C209.623,690.2 252.507,676.847 252.83,675.307C254.353,672.94 253.57,650.276 253.622,645.793C253.906,615.456 254.015,585.119 253.949,554.781L253.481,303.187C235.247,293.616 223.203,290.842 202.519,288.876C202.4,255.603 202.723,222.186 202.895,189.059Z" style="fill:rgb(252,250,247);fill-rule:nonzero;"/>
        <path d="M223.918,209.059C249.13,208.238 275.936,208.606 301.261,208.438C347.336,207.875 393.416,207.731 439.494,208.006C439.543,228.669 438.877,250.143 439.313,270.574C421.486,274.632 403.963,281.891 387.261,289.431C386.266,297.824 386.613,311.393 386.586,320.324L386.308,367.747C386.255,388.855 384.628,412.551 385.684,433.116C390.377,433.581 397.595,433.238 402.459,433.216C413.801,433.2 425.143,433.119 436.484,432.974C467.421,432.617 498.36,432.473 529.298,432.541C548.64,432.532 567.945,432.51 587.287,432.677C595.696,432.749 610.211,434.538 617.935,433.82L618.082,525.64C606.629,524.22 594.343,526.107 582.752,526.298C569.287,526.521 555.774,526.494 542.308,526.5C508.128,526.199 473.947,526.107 439.765,526.224C423.492,526.205 402.012,525.584 386.084,526.633C384.695,561.684 385.924,598.116 385.815,633.263C385.757,651.762 385.078,669.744 385.445,688.289C399.845,694.758 424.275,705.199 439.179,707.796C438.758,729.497 439.45,751.295 438.765,773.415C430.2,774.387 412.14,773.923 402.739,773.929L337.081,773.949L263.126,773.959C252.882,773.959 234.592,774.521 224.999,773.659C224.916,773.488 224.818,773.324 224.749,773.146C223.086,768.841 223.341,721.43 223.992,714.392C224.22,711.917 224.954,709.756 225.822,707.452C243.277,701.744 259.356,696.78 275.75,688.101L274.531,286.475C269.711,284.145 262.794,282.104 257.677,280.333C246.873,276.592 236.21,273.49 225.025,271.217C225.039,250.334 224.163,230.142 223.918,209.059Z" style="fill:rgb(187,38,45);fill-rule:nonzero;"/>
        <path d="M233.562,661.13C233.578,654.946 233.6,647.614 233.623,645.597C233.906,615.34 234.015,585.083 233.949,554.821C233.949,554.821 233.505,315.877 233.504,315.876C223.117,311.651 213.967,310.054 200.627,308.786L182.584,307.071L182.519,288.948C182.4,255.616 182.723,222.141 182.895,188.955L182.997,169.446L202.502,169.063C231.042,168.502 261.343,169.001 290.031,168.998L480.329,168.98L480.442,188.869C480.628,221.834 480.063,255.534 480.024,288.564L480,308.669L459.895,308.54C450.896,308.482 436.521,311.135 426.994,316.199C426.843,324.583 427.045,333.186 426.991,341.449L426.902,393.024L536.454,392.873C549.989,392.85 563.705,392.953 577.345,392.939C577.286,367.433 576.591,341.645 576.609,316.074C574.308,315.106 571.863,314.161 569.053,313.266C557.687,309.644 551.087,310.083 540.254,308.268L524.049,305.552L523.568,289.129C523.266,278.848 522.98,189.051 522.98,189.051L522.917,168.869L543.099,168.989C628.812,169.499 714.527,169.497 800.241,168.986L820.146,168.868L820.359,188.772C820.691,219.819 820.6,256.025 820.579,287.355L820.567,304.879L803.194,307.17C794.963,308.256 784.162,309.558 776.581,312.603C774.82,313.31 772.934,314.162 771.001,315.074C770.939,371.956 770.69,604.977 770.629,661.9C780.649,666.399 787.735,668.138 802.283,668.743L821.722,669.552L821.45,689.006C820.966,723.641 820.808,758.281 820.976,792.919L821.072,812.922L801.07,813.016C801.07,813.016 620.577,813.861 543.594,812.886L526.114,812.665L523.995,795.313C523.333,789.896 524.064,689.63 525.231,684.204L528.038,671.15L541.169,668.737C545.325,667.974 554.219,667.456 559.01,666.845C566.482,665.892 571.593,664.238 576.827,661.871C576.204,630.473 577.478,597.836 577.666,566.026C561.021,566.157 543.995,565.958 527.826,565.957L426.972,565.975C426.972,565.975 426.59,660.151 426.59,660.151C428.163,660.978 429.722,661.857 431.276,662.794C440.267,668.22 451.592,668.167 461.832,669.125L479.912,670.816L479.97,688.974C480.081,723.732 479.928,758.492 479.511,793.249L479.273,813.008L182.681,813.029L182.433,793.28C182.138,769.929 182.722,694.373 183.003,689.686L184.019,672.714L200.933,670.985C204.43,670.627 222.187,664.89 233.562,661.13ZM202.895,189.059C202.723,222.186 202.4,255.603 202.519,288.876C223.203,290.842 235.247,293.616 253.481,303.187L253.949,554.781C254.015,585.119 253.906,615.456 253.622,645.793C253.57,650.276 254.353,672.94 252.83,675.307C252.507,676.847 209.623,690.2 202.967,690.881C202.69,695.502 202.141,770.003 202.431,793.028L459.512,793.009C459.928,758.353 460.081,723.695 459.97,689.038C446.818,687.808 432.49,686.887 420.942,679.918C416.31,677.122 411.621,675.014 406.537,673.198L407.053,545.978L527.826,545.957C550.546,545.959 574.97,546.36 597.608,545.661C598.157,587.848 595.566,632.333 597.187,674.049C584.031,680.774 576.709,684.75 561.54,686.684C557.042,687.258 548.686,687.691 544.784,688.408C543.687,693.51 543.225,787.795 543.847,792.888C620.726,793.861 800.976,793.016 800.976,793.016C800.808,758.252 800.966,723.487 801.452,688.726C778.542,687.773 771.163,684.663 750.615,674.467L751.014,302.484C756.756,299.884 763.545,296.285 769.13,294.043C778.104,290.439 790.834,288.627 800.579,287.342C800.6,256.084 800.691,219.961 800.36,188.986C714.567,189.497 628.772,189.499 542.98,188.989C542.98,188.989 543.259,278.315 543.559,288.543C555.446,290.535 562.655,290.236 575.126,294.21C583.644,296.925 588.993,300.012 596.689,302.953C596.249,339.435 597.75,376.543 597.24,412.806C577.148,413.082 556.616,412.838 536.483,412.873L406.867,413.052L406.991,341.372C407.06,330.978 406.745,320.056 407.176,309.669C407.263,307.579 407.75,305.298 409.4,303.942C421.082,294.341 445.581,288.447 460.024,288.54C460.063,255.556 460.628,221.902 460.442,188.982L290.033,188.998C261.473,189.001 231.307,188.501 202.895,189.059ZM564.155,208.52L779.464,209.041C779.494,228.48 780.054,250.162 778.726,269.373C773.818,270.373 766.535,272.086 761.964,274.084C751.321,278.736 740.677,282.771 729.796,286.817L728.948,687.502C738.862,691.935 748.445,697.172 758.44,701.359C764.898,704.065 772.289,705.959 779.093,707.762C779.506,724.947 780.508,741.714 779.455,758.962C779.169,763.654 779.563,768.602 779.293,773.328L565.974,773.526C563.608,751.585 565.073,729.871 564.314,708.18C581.247,706.545 602.337,695.815 617.675,688.36L617.624,604.263C617.445,578.055 617.598,551.845 618.082,525.64L617.935,433.82L617.724,348.778C617.45,328.673 617.324,308.566 617.347,288.46C605.69,281.492 577.972,271.868 564.49,270.962C564.085,250.151 563.974,229.335 564.155,208.52Z" style="fill:rgb(0,53,25);"/>
    </g>
</svg>
