<?xml version="1.0" encoding="UTF-8" standalone="no"?>
<!DOCTYPE svg PUBLIC "-//W3C//DTD SVG 1.1//EN" "http://www.w3.org/Graphics/SVG/1.1/DTD/svg11.dtd">
<svg width="100%" height="100%" viewBox="0 0 582 735" version="1.1" xmlns="http://www.w3.org/2000/svg" xmlns:xlink="http://www.w3.org/1999/xlink" xml:space="preserve" xmlns:serif="http://www.serif.com/" style="fill-rule:evenodd;clip-rule:evenodd;stroke-linejoin:round;stroke-miterlimit:2;">
    <g transform="matrix(1,0,0,1,-61.2213,-55.7518)">
        <g transform="matrix(4.40056,0,0,4.64593,86.0316,66.7429)">
            <path d="M-1.993,73.261C-1.176,72.704 -0.485,71.286 0.302,69.552C2.684,64.302 4.632,56.16 4.387,50.959C3.245,32.007 8.626,14.163 26.549,4.767C33.794,0.97 46.792,-2.819 55.083,-2.322C71.609,-1.331 89.637,5.919 97.967,21.065C103.849,31.76 103.612,42.382 103.45,54.119C103.415,57.977 103.348,61.93 104.237,65.49C104.993,68.516 106.489,71.238 109.593,73.191L113.022,75.348L110.145,78.137C106.967,81.218 104.339,83.901 103.792,88.654C102.937,96.063 103.847,103.993 103.306,111.503C102.944,116.515 100.768,120.699 100.417,125.46C100.337,126.534 101.304,128.158 102.004,129.036C106.81,135.05 113.383,135.617 120.246,137.13L126.461,138.501L121.803,142.632C119.91,144.31 118.126,145.842 116.016,147.428C109.023,152.683 100.908,155.249 92.209,153.326C87.502,152.285 84.572,150.121 81,148.114C78.203,149.439 75.89,151.116 72.514,152.283C69.478,153.333 63.371,154.82 61.484,155.136L61.372,155.154C57.476,155.843 53.687,155.79 49.977,155.183L49.964,155.181C48.838,155.003 42.393,153.628 39.067,152.689C26.197,149.059 15.236,142.329 9.057,130.09C3.491,119.063 4.535,108.588 4.389,96.667C4.338,92.48 4.45,87.38 2.599,83.539C1.423,81.098 -0.043,79.978 -2.126,78.404L-5.638,75.75L-1.993,73.261ZM0,75.88C2.541,77.801 4.264,79.22 5.7,82.198C7.737,86.425 7.742,92.022 7.798,96.629C7.937,108.061 6.795,118.123 12.133,128.697C17.866,140.054 28.098,146.226 40.04,149.595C43.242,150.498 49.444,151.825 50.528,151.997C50.538,151.999 50.547,152 50.556,152.002C53.874,152.544 57.262,152.596 60.746,151.98C60.802,151.97 60.857,151.961 60.913,151.953C62.681,151.657 68.468,150.245 71.345,149.25C75.243,147.903 77.699,145.854 81.169,144.491C85.18,146.55 87.995,149.079 92.983,150.182C100.635,151.873 107.746,149.521 113.897,144.899C115.931,143.37 117.649,141.893 119.473,140.275C111.827,138.589 104.641,137.685 99.286,130.984C98.178,129.596 96.891,126.935 97.016,125.235C97.367,120.476 99.543,116.293 99.905,111.283C100.449,103.73 99.544,95.755 100.403,88.303C101.046,82.726 103.977,79.496 107.707,75.88C99.903,70.97 99.967,62.33 100.042,54.084C100.196,42.896 100.551,32.751 94.944,22.557C87.177,8.434 70.277,1.824 54.868,0.901C47.114,0.436 34.975,4.04 28.2,7.592C11.481,16.357 6.722,33.114 7.791,50.793C8.176,58.789 3.806,73.282 0,75.88ZM51.346,27.817C52.252,27.025 52.232,27.206 52.303,27.3C52.303,27.3 52.169,26.993 53.331,27.58C64.117,27.162 69.665,34.927 69.794,45.195C69.872,51.342 70.124,57.635 69.378,63.75C68.975,67.054 67.633,71.026 65.197,73.367C64.356,74.182 64.07,74.479 62.731,75.84C63.973,77.276 65.177,78.501 65.887,79.259C69.122,82.718 69.351,88.037 69.954,92.516C59.371,90.772 53.794,91.829 47.236,100.466C51.827,99.071 56.776,98.258 61.492,99.381C69.698,101.335 70.56,105.773 68.962,112.965C66.507,120.915 60.323,125.402 51.978,124.249C48.317,123.742 45.299,121.859 43.096,118.927C41.625,116.951 40.576,114.693 40.015,112.294C38.857,107.419 39.119,93.689 39.683,88.258C40.251,82.775 45.586,77.151 46.842,75.949C45.595,75.079 45.617,75.03 45.025,74.545C37.911,68.616 39.692,57.797 39.281,49.738C38.813,40.549 41.074,29.721 51.346,27.817ZM42.591,101.054L44.469,98.581C48.278,93.563 51.89,90.846 56,89.538C58.931,88.605 62.168,88.401 66.044,88.748C65.92,87.891 65.772,87.035 65.578,86.196C65.168,84.423 64.57,82.721 63.335,81.401C62.606,80.621 61.37,79.361 60.094,77.885L58.207,75.702L60.238,73.638C61.607,72.247 61.9,71.943 62.765,71.105L62.77,71.1C64.714,69.232 65.671,66.017 65.992,63.379C66.722,57.399 66.462,51.245 66.386,45.234C66.321,40.088 64.796,35.635 61.476,33.052C59.404,31.44 56.643,30.643 53.242,30.817C48.852,31.215 46.199,33.6 44.67,36.771C42.856,40.529 42.465,45.263 42.686,49.582C42.888,53.556 42.541,58.21 43.029,62.602C43.433,66.229 44.375,69.697 47.264,72.111C47.778,72.532 47.765,72.584 48.863,73.35L52.039,75.565L49.264,78.22C48.201,79.238 43.556,83.931 43.075,88.574C42.79,91.322 42.571,96.29 42.591,101.054ZM42.68,105.241C42.787,107.85 42.995,110.133 43.342,111.591L43.343,111.596C43.805,113.571 44.666,115.432 45.881,117.066C47.522,119.245 49.747,120.677 52.47,121.054C58.977,121.953 63.704,118.342 65.655,112.174C66.347,109.04 66.75,106.602 65.386,104.856C64.515,103.74 62.958,103.059 60.661,102.512C56.562,101.536 52.268,102.328 48.277,103.54L42.68,105.241Z" style="fill:rgb(255,0,0);"/>
        </g>
        <g transform="matrix(4.40056,0,0,4.64593,86.0316,66.7429)">
            <path d="M0,75.88C3.806,73.282 8.176,58.789 7.791,50.793C6.722,33.114 11.481,16.357 28.2,7.592C34.975,4.04 47.114,0.436 54.868,0.901C70.277,1.824 87.177,8.434 94.944,22.557C100.551,32.751 100.196,42.896 100.042,54.084C99.967,62.33 99.903,70.97 107.707,75.88C103.977,79.496 101.046,82.726 100.403,88.303C99.544,95.755 100.449,103.73 99.905,111.283C99.543,116.293 97.367,120.476 97.016,125.235C96.891,126.935 98.178,129.596 99.286,130.984C104.641,137.685 111.827,138.589 119.473,140.275C117.649,141.893 115.931,143.37 113.897,144.899C107.746,149.521 100.635,151.873 92.983,150.182C87.995,149.079 85.18,146.55 81.169,144.491C77.699,145.854 75.243,147.903 71.345,149.25C68.468,150.245 62.681,151.657 60.913,151.953C60.857,151.961 60.802,151.97 60.746,151.98C57.262,152.596 53.874,152.544 50.556,152.002C50.547,152 50.538,151.999 50.528,151.997C49.444,151.825 43.242,150.498 40.04,149.595C28.098,146.226 17.866,140.054 12.133,128.697C6.795,118.123 7.937,108.061 7.798,96.629C7.742,92.022 7.737,86.425 5.7,82.198C4.264,79.22 2.541,77.801 0,75.88ZM46.842,75.949C45.586,77.151 40.251,82.775 39.683,88.258C39.119,93.689 38.857,107.419 40.015,112.294C40.576,114.693 41.625,116.951 43.096,118.927C45.299,121.859 48.317,123.742 51.978,124.249C60.323,125.402 66.507,120.915 68.962,112.965C70.56,105.773 69.698,101.335 61.492,99.381C56.776,98.258 51.827,99.071 47.236,100.466C53.794,91.829 59.371,90.772 69.954,92.516C69.351,88.037 69.122,82.718 65.887,79.259C65.177,78.501 63.973,77.276 62.731,75.84C64.07,74.479 64.356,74.182 65.197,73.367C67.633,71.026 68.975,67.054 69.378,63.75C70.124,57.635 69.872,51.342 69.794,45.195C69.664,34.832 64.015,27.02 53.033,27.594L52.975,27.597C41.311,28.616 38.789,40.082 39.281,49.738C39.692,57.797 37.911,68.616 45.025,74.545C45.617,75.03 45.595,75.079 46.842,75.949Z" style="fill:rgb(0,56,33);fill-rule:nonzero;"/>
        </g>
    </g>
</svg>
