<?xml version="1.0" encoding="UTF-8" standalone="no"?>
<!DOCTYPE svg PUBLIC "-//W3C//DTD SVG 1.1//EN" "http://www.w3.org/Graphics/SVG/1.1/DTD/svg11.dtd">
<svg width="100%" height="100%" viewBox="0 0 871 737" version="1.1" xmlns="http://www.w3.org/2000/svg" xmlns:xlink="http://www.w3.org/1999/xlink" xml:space="preserve" xmlns:serif="http://www.serif.com/" style="fill-rule:evenodd;clip-rule:evenodd;stroke-linejoin:round;stroke-miterlimit:2;">
    <g transform="matrix(1,0,0,1,-58.6123,-143.884)">
        <path d="M363.873,301.094C372.117,300.741 376.666,302.411 372.662,312.19C368.671,311.103 358.572,305.634 363.873,301.094ZM597.235,364.165C605.588,363.273 610.725,364.085 616.617,370.315C603.032,370.476 591.838,374.485 582.079,383.935C579.027,387.151 577.998,388.485 575.506,392.164C558.107,377.511 584.491,365.975 597.235,364.165Z" style="fill:rgb(255,252,243);"/>
        <path d="M279.557,164.712C285.852,164.026 294.993,164.469 301.365,164.799C334.661,166.523 359.997,180.588 389.597,193.579C401.027,198.596 413.132,202.175 424.68,207.826C437.085,213.895 445.064,218.804 455.21,228.589C457.914,231.196 466.57,240.115 469.165,241.791C479.961,248.735 494.811,252.839 499.279,266.577C503.824,280.555 493.843,288.581 481.909,291.869C478.295,287.046 474.783,282.148 471.376,277.178C462.001,322.073 509.62,327.895 539.549,342.653C546.57,346.115 554.604,349.533 561.865,352.399C527.316,374.98 541.685,403.777 571.881,420.921C581.45,426.354 589.471,428.465 600.07,430.788C593.566,451.75 581.795,467.795 562.232,478.43C539.188,490.756 499.574,492.155 475.203,482.534C445.562,470.833 414.636,452.261 382.012,468.553C376.178,471.466 368.806,478.12 366.996,484.569C365.403,490.242 367.833,494.934 370.665,499.718C375.736,497.303 380.546,494.848 386.028,493.475C414.529,486.334 443.806,494.433 471.228,502.167C503.441,511.251 536.445,513.235 567.909,499.812C553.652,522.139 538.666,527.834 513.499,531.455C477.318,536.661 447.745,516.965 412.143,518.318C401.448,518.724 390.362,520.784 380.112,523.82C376.163,524.994 367.206,528.201 363.405,527.011C354.737,524.298 349.961,513.287 346.706,505.742C340.245,509.955 334.245,514.836 328.806,520.307C306.84,542.716 299.893,569.449 300.089,599.897C300.609,598.483 301.152,597.078 301.719,595.682C308.514,579.12 323.236,566.95 339.464,560.158C330.697,581.24 333.527,605.623 344.238,625.412C353.215,641.997 366.852,650.507 383.511,658.292C373.034,633.931 369.833,610.874 378.736,585.535C382.856,643.466 430.924,647.1 447.368,697.661C450.06,705.938 451.758,714.83 452.607,723.485L398.896,723.448C401.163,758.249 399.366,787.084 375.375,814.561C375.613,813.207 375.78,811.842 375.874,810.471C378.535,774.259 335.616,721.747 313.118,695.782C305.994,687.707 300.185,680.159 293.686,671.551C304.1,701.992 306.835,721.988 308.41,753.251C287.612,717.283 251.258,694.542 227.337,661.253C202.32,626.437 196.862,586.583 203.694,545.15C180.826,578.527 168.266,634.606 179.688,673.797C137.904,635.245 118.303,582.296 136.204,526.601C118.948,541.036 105.218,559.222 96.062,579.771C95.037,545.961 99,529.037 113.702,498.731C121.105,483.471 129.731,454.691 131.755,437.966C132.576,438.591 133.392,439.222 134.205,439.857C154.012,455.362 159.265,479.639 162.189,503.399C169.42,499.118 176.93,495.327 184.669,492.051C221.503,476.382 246.34,471.141 255.864,427.463C263.981,390.244 250.832,366.621 242.247,331.732C234.048,298.412 239.333,262.637 257.63,233.485C237.935,242.997 228.114,251.371 218.677,271.897C195.335,322.319 239.767,373.28 223.755,424.046C219.979,436.016 206.027,456.957 190.665,450.948C184.386,448.493 182.052,439.239 179.01,433.464C171.309,418.844 161.06,406.05 148.469,395.309C136.705,385.246 123.502,376.541 117.757,361.422C108.508,336.581 112.296,308.094 122.295,284.092C104.06,298.779 90.631,315.454 85.56,338.559C74.294,308.454 79.651,282.607 100.165,257.748C114.625,240.224 132.538,234.042 151.165,222.806C161.76,216.416 170.18,205.128 180.266,197.898C192.722,188.522 205.777,183.08 220.179,177.497C239.541,169.991 258.844,166.206 279.557,164.712ZM356.163,257.178C337.406,259.668 329.057,266.097 313.85,276.83C339.412,266.943 367.685,267.693 386.408,289.751C370.636,282.137 354.48,281.877 340.316,293.607C334.148,298.715 331.718,303.784 327.923,310.688C333.807,309.254 341.422,307.729 347.031,306.134C349.556,312.912 350.302,314.716 354.627,320.304C362.881,328.249 371.852,331.581 383.369,331.309C401.859,330.872 410.081,321.422 429.38,327.768C424.846,320.558 419.837,312.967 415.523,305.707C427.5,302.364 435.125,298.788 438.169,285.457C433.479,285.987 430.946,286.13 426.294,284.433C419.604,281.992 413.611,277.045 407.807,272.88C392.844,262.145 374.832,255.087 356.163,257.178ZM621.749,430.41L622.261,431.051C626.38,453.174 622.225,481.514 600.68,493.237C600.314,488.101 599.206,483.086 598.218,478.03C611.777,463.562 617.576,449.418 621.749,430.41Z" style="fill:rgb(254,183,0);"/>
        <path d="M676.066,201.232C758.531,199.308 853.311,211.094 873.037,308.156C880.061,338.905 878.366,367.681 874.298,398.532C865.822,462.821 824.691,501.443 761.668,514.558C804.178,535.857 815.764,566.791 827.612,609.815C832.669,627.989 837.193,646.307 841.177,664.746C847.758,694.097 856.522,731.077 888.431,742.719C894.574,744.96 900.626,745.07 907.068,745.297C907.43,771.688 907.045,798.393 907.235,824.854C874.884,824.266 841.981,824.836 809.631,824.931C798.13,824.965 787.127,823.326 778.074,815.788C755.273,796.804 745.531,752.969 738.856,725.355C735.081,709.662 731.433,693.94 727.911,678.188C723.799,660.416 719.195,642.76 714.104,625.243C708.431,605.922 702.659,585.124 688.502,570.105C674.985,555.765 652.277,558.435 634.054,558.525L595.723,558.753C596.37,578.315 595.814,601.394 595.818,621.199L595.86,746.092L649.125,746.084L653.897,746.117C653.567,772.141 653.838,798.755 653.824,824.827L420.878,824.723C420.486,798.81 420.806,772.058 420.831,746.085L474.046,746.085C474.428,725.373 474.066,703.501 474.065,682.662L474.072,557.161C491.99,561.709 516.423,561.726 534.045,556.409C554.58,550.413 571.85,536.426 581.982,517.585C609.126,515.352 624.404,506.764 636.959,482.059C665.248,480.815 697.867,481.933 719.791,460.667C740.987,440.107 744.817,407.298 745.191,379.249C745.529,353.932 743.604,323.6 724.871,304.55C701.653,280.937 673.891,282.866 643.77,282.862C627.755,282.949 611.74,282.893 595.727,282.694L595.844,340.243C569.702,335.106 532.954,324.189 512.172,307.105C524.645,284.143 526.078,255.893 501.966,239.595C496.801,236.068 490.112,233.042 485.755,228.518C476.682,219.099 469.873,210.439 459.55,202.026C531.723,202.148 603.896,201.884 676.066,201.232Z" style="fill:rgb(254,183,0);"/>
        <path d="M275.915,144.21C279.55,143.806 285.93,143.888 289.752,143.896C315.727,143.952 338.847,148.831 362.543,159.56C368.68,162.355 374.715,165.368 380.636,168.594C383.212,170.006 391.044,174.755 393.543,175.414C411.056,180.029 427.93,180.028 445.898,180.03L492.76,180.022L650.808,179.563C698.384,179.531 743.369,177.918 789.551,192.193C828.763,204.314 860.651,226.207 879.935,263.726C904.925,312.345 904.059,380.981 888.829,432.498C875.16,478.737 846.555,501.554 806.317,522.605C834.797,550.988 842.952,580.26 852.549,618.152C855.973,632.077 859.297,646.026 862.523,659.999C865.6,673.029 868.099,684.34 873.26,696.771C885.153,725.416 903.125,723.355 929.45,723.413L929.382,847.066L806.165,847.173C799.333,847.194 790.856,846.6 784.39,844.318C736.836,827.536 722.598,753.013 712.585,709.704C706.778,683.71 700.397,657.847 693.445,632.135C676.874,573.035 672.05,580.795 616.583,580.987L616.576,696.75L616.555,723.427L675.945,723.456L675.819,847.034L403.341,846.978C388.314,862.092 374.276,872.218 354.542,880.793C361.123,851.777 355.333,832.491 341.143,806.938C337.618,825.662 331.957,839.707 319.525,854.199C316.965,811.268 273.441,772.072 243.681,744.41C233.856,735.398 224.232,726.171 214.814,716.735C221.051,730.896 230.245,746.928 238.734,759.877C241.796,764.548 245.96,768.591 249.183,773.574L248.864,774.278C246.007,774.779 239.12,772.53 236.207,771.631C221.996,767.149 208.334,761.085 195.477,753.554C153.309,729.154 135.531,700.685 113.32,658.854C113.493,662.469 113.682,666.083 113.823,669.7C114.111,677.104 115.949,684.29 116.69,691.643C109.49,687.977 103.854,682.322 99.01,675.897C62.201,627.075 59.637,563.736 76.367,506.777C84.334,479.653 94.652,454.863 101.484,427.666C103.37,420.157 104.316,410.977 105.211,403.293C103.808,402.32 102.454,401.279 101.154,400.173C77.892,380.461 61.728,349.437 59.046,318.75C56.312,287.468 66.639,266.231 85.92,242.405C101.161,223.571 121.63,216.195 141.328,204.008C151.043,197.998 160.043,186.685 170.01,179.58C199.102,158.842 240.585,146.803 275.915,144.21ZM279.557,164.712C258.844,166.206 239.541,169.991 220.179,177.497C205.777,183.08 192.722,188.522 180.266,197.898C170.18,205.128 161.76,216.416 151.165,222.806C132.538,234.042 114.625,240.224 100.165,257.748C79.651,282.607 74.294,308.454 85.56,338.559C90.631,315.454 104.06,298.779 122.295,284.092C112.296,308.094 108.508,336.581 117.757,361.422C123.502,376.541 136.705,385.246 148.469,395.309C161.06,406.05 171.309,418.844 179.01,433.464C182.052,439.239 184.386,448.493 190.665,450.948C206.027,456.957 219.979,436.016 223.755,424.046C239.767,373.28 195.335,322.319 218.677,271.897C228.114,251.371 237.935,242.997 257.63,233.485C239.333,262.637 234.048,298.412 242.247,331.732C250.832,366.621 263.981,390.244 255.864,427.463C246.34,471.141 221.503,476.382 184.669,492.051C176.93,495.327 169.42,499.118 162.189,503.399C159.265,479.639 154.012,455.362 134.205,439.857C133.392,439.222 132.576,438.591 131.755,437.966C129.731,454.691 121.105,483.471 113.702,498.731C99,529.037 95.037,545.961 96.062,579.771C105.218,559.222 118.948,541.036 136.204,526.601C118.303,582.296 137.904,635.245 179.688,673.797C168.266,634.606 180.826,578.527 203.694,545.15C196.862,586.583 202.32,626.437 227.337,661.253C251.258,694.542 287.612,717.283 308.41,753.251C306.835,721.988 304.1,701.992 293.686,671.551C300.185,680.159 305.994,687.707 313.118,695.782C335.616,721.747 378.535,774.259 375.874,810.471C375.78,811.842 375.613,813.207 375.375,814.561C399.366,787.084 401.163,758.249 398.896,723.448L452.607,723.485C451.758,714.83 450.06,705.938 447.368,697.661C430.924,647.1 382.856,643.466 378.736,585.535C369.833,610.874 373.034,633.931 383.511,658.292C366.852,650.507 353.215,641.997 344.238,625.412C333.527,605.623 330.697,581.24 339.464,560.158C323.236,566.95 308.514,579.12 301.719,595.682C301.152,597.078 300.609,598.483 300.089,599.897C299.893,569.449 306.84,542.716 328.806,520.307C334.245,514.836 340.245,509.955 346.706,505.742C349.961,513.287 354.737,524.298 363.405,527.011C367.206,528.201 376.163,524.994 380.112,523.82C390.362,520.784 401.448,518.724 412.143,518.318C447.745,516.965 477.318,536.661 513.499,531.455C538.666,527.834 553.652,522.139 567.909,499.812C536.445,513.235 503.441,511.251 471.228,502.167C443.806,494.433 414.529,486.334 386.028,493.475C380.546,494.848 375.736,497.303 370.665,499.718C367.833,494.934 365.403,490.242 366.996,484.569C368.806,478.12 376.178,471.466 382.012,468.553C414.636,452.261 445.562,470.833 475.203,482.534C499.574,492.155 539.188,490.756 562.232,478.43C581.795,467.795 593.566,451.75 600.07,430.788C589.471,428.465 581.45,426.354 571.881,420.921C541.685,403.777 527.316,374.98 561.865,352.399C554.604,349.533 546.57,346.115 539.549,342.653C509.62,327.895 462.001,322.073 471.376,277.178C474.783,282.148 478.295,287.046 481.909,291.869C493.843,288.581 503.824,280.555 499.279,266.577C494.811,252.839 479.961,248.735 469.165,241.791C466.57,240.115 457.914,231.196 455.21,228.589C445.064,218.804 437.085,213.895 424.68,207.826C413.132,202.175 401.027,198.596 389.597,193.579C359.997,180.588 334.661,166.523 301.365,164.799C294.993,164.469 285.852,164.026 279.557,164.712ZM356.163,257.178C374.832,255.087 392.844,262.145 407.807,272.88C413.611,277.045 419.604,281.992 426.294,284.433C430.946,286.13 433.479,285.987 438.169,285.457C435.125,298.788 427.5,302.364 415.523,305.707C419.837,312.967 424.846,320.558 429.38,327.768C410.081,321.422 401.859,330.872 383.369,331.309C371.852,331.581 362.881,328.249 354.627,320.304C350.302,314.716 349.556,312.912 347.031,306.134C341.422,307.729 333.807,309.254 327.923,310.688C331.718,303.784 334.148,298.715 340.316,293.607C354.48,281.877 370.636,282.137 386.408,289.751C367.685,267.693 339.412,266.943 313.85,276.83C329.057,266.097 337.406,259.668 356.163,257.178ZM363.873,301.094C358.572,305.634 368.671,311.103 372.662,312.19C376.666,302.411 372.117,300.741 363.873,301.094ZM647.694,304.783L616.54,304.965L616.615,346.684C641.306,350.645 655.768,361.342 651.071,388.605C649.496,397.743 645.887,404.048 639.797,410.929C644.105,426.995 644.655,443.343 642.329,459.794C653.997,459.491 664.016,459.357 675.627,457.835C717.989,450.467 721.988,421.132 723.462,383.506C725.847,322.627 709.68,301.417 647.694,304.783ZM621.749,430.41C617.576,449.418 611.777,463.562 598.218,478.03C599.206,483.086 600.314,488.101 600.68,493.237C622.225,481.514 626.38,453.174 622.261,431.051L621.749,430.41ZM676.066,201.232C603.896,201.884 531.723,202.148 459.55,202.026C469.873,210.439 476.682,219.099 485.755,228.518C490.112,233.042 496.801,236.068 501.966,239.595C526.078,255.893 524.645,284.143 512.172,307.105C532.954,324.189 569.702,335.106 595.844,340.243L595.727,282.694C611.74,282.893 627.755,282.949 643.77,282.862C673.891,282.866 701.653,280.937 724.871,304.55C743.604,323.6 745.529,353.932 745.191,379.249C744.817,407.298 740.987,440.107 719.791,460.667C697.867,481.933 665.248,480.815 636.959,482.059C624.404,506.764 609.126,515.352 581.982,517.585C571.85,536.426 554.58,550.413 534.045,556.409C516.423,561.726 491.99,561.709 474.072,557.161L474.065,682.662C474.066,703.501 474.428,725.373 474.046,746.085L420.831,746.085C420.806,772.058 420.486,798.81 420.878,824.723L653.824,824.827C653.838,798.755 653.567,772.141 653.897,746.117L649.125,746.084L595.86,746.092L595.818,621.199C595.814,601.394 596.37,578.315 595.723,558.753L634.054,558.525C652.277,558.435 674.985,555.765 688.502,570.105C702.659,585.124 708.431,605.922 714.104,625.243C719.195,642.76 723.799,660.416 727.911,678.188C731.433,693.94 735.081,709.662 738.856,725.355C745.531,752.969 755.273,796.804 778.074,815.788C787.127,823.326 798.13,824.965 809.631,824.931C841.981,824.836 874.884,824.266 907.235,824.854C907.045,798.393 907.43,771.688 907.068,745.297C900.626,745.07 894.574,744.96 888.431,742.719C856.522,731.077 847.758,694.097 841.177,664.746C837.193,646.307 832.669,627.989 827.612,609.815C815.764,566.791 804.178,535.857 761.668,514.558C824.691,501.443 865.822,462.821 874.298,398.532C878.366,367.681 880.061,338.905 873.037,308.156C853.311,211.094 758.531,199.308 676.066,201.232ZM597.235,364.165C584.491,365.975 558.107,377.511 575.506,392.164C577.998,388.485 579.027,387.151 582.079,383.935C591.838,374.485 603.032,370.476 616.617,370.315C610.725,364.085 605.588,363.273 597.235,364.165Z" style="fill:rgb(1,48,87);"/>
    </g>
</svg>
