<svg width="100%" height="100%" viewBox="0 0 447 512" version="1.1" xmlns="http://www.w3.org/2000/svg" xmlns:xlink="http://www.w3.org/1999/xlink" xml:space="preserve" xmlns:serif="http://www.serif.com/" style="fill-rule:evenodd;clip-rule:evenodd;stroke-linejoin:round;stroke-miterlimit:2;">
    <g transform="matrix(1,0,0,1,-47.3212,-21.1443)">
        <g transform="matrix(1,0,0,1,10.5638,5.87275)">
            <path d="M259.569,31.326C260.801,31.2 276.264,40.43 278.411,41.663L315.517,62.969L431.091,129.301L455.109,143.114C459.511,145.643 464.568,148.698 469.041,151.003C468.716,161.058 468.954,172.395 468.953,182.534L468.949,240.657L469.014,390.924L340.83,464.508L290.555,493.347C280.665,499.033 270.291,505.223 260.315,510.66C259.076,510.686 242.732,501.001 240.535,499.74L203.617,478.545L88.489,412.457L64.222,398.525C60.609,396.448 54.675,392.802 51.053,391.118L51.081,222.424L51.085,174.235L51.106,159.997C51.106,157.512 51.201,153.53 50.824,151.176L259.569,31.326Z" style="fill:rgb(60,0,91);"  data-color="color-1"/>
        </g>
        <path d="M47.487,148.977C53.892,144.857 60.372,141.222 66.951,137.42L99.761,118.66C130.531,100.757 161.413,83.047 192.405,65.53L238.667,38.913C242.942,36.446 267.99,21.778 271.042,21.144C273.382,21.934 281.511,26.866 284.186,28.406C293.586,33.735 302.942,39.139 312.254,44.619L413.738,102.809L467.466,133.737C475.125,138.11 482.849,142.345 490.38,146.944C491.37,147.548 492.475,148.114 493.374,148.839C493.761,155.784 493.518,164.885 493.52,171.946L493.516,214.398L493.527,338.643L493.526,380.468C493.533,388.605 493.421,397.2 493.679,405.298L341.477,492.512L291.211,521.253C287.117,523.547 283.038,525.866 278.972,528.21C276.48,529.648 272.974,531.801 270.416,532.856C263.548,529.405 253.932,523.408 247.008,519.482L189.225,486.383L87.662,428.052C74.276,420.339 60.569,412.801 47.321,404.955L47.529,305.87L47.55,281.517C47.552,279.765 47.647,272.161 47.417,270.793C47.5,268.584 47.422,266.262 47.384,264.043C47.669,262.073 47.512,257.221 47.496,255.043C47.433,249.724 47.426,244.405 47.477,239.087L47.549,181.397L47.483,160.146C47.475,156.747 47.304,152.286 47.487,148.977ZM270.133,37.198L61.388,157.049C61.765,159.403 61.67,163.385 61.669,165.87L61.649,180.108L61.645,228.297L61.616,396.991C65.239,398.675 71.173,402.321 74.786,404.398L99.052,418.33L214.181,484.418L251.099,505.613C253.296,506.874 269.64,516.559 270.879,516.533C280.855,511.096 291.229,504.906 301.119,499.22L351.394,470.381L479.578,396.797L479.513,246.53L479.517,188.407C479.518,178.268 479.28,166.931 479.605,156.876C475.132,154.571 470.075,151.516 465.673,148.987L441.655,135.174L326.081,68.842L288.975,47.536C286.828,46.303 271.365,37.072 270.133,37.198ZM270.327,173.788C271.085,173.833 353.062,221.028 360.474,225.373L360.459,250.657L331.201,250.675L331.196,242.069C329.336,241.214 325.742,239.018 323.885,237.951L309.763,229.835L284.607,215.391C279.963,212.725 275.134,210.034 270.55,207.286C269.038,208.021 266.63,209.498 265.106,210.373L254.923,216.227L223.477,234.276L214.873,239.219C213.383,240.072 211.326,241.319 209.809,242.03L209.798,311.852C215.557,315.045 221.475,318.528 227.196,321.816L270.468,346.642C274.744,344.467 280.356,341.003 284.665,338.527L310.115,323.921L323.853,316.032C326.177,314.698 328.879,313.065 331.225,311.859C331.167,309.078 331.209,306.104 331.205,303.308C340.67,303.188 351,303.167 360.455,303.318C360.455,311.705 360.369,320.271 360.5,328.644C357.949,329.926 354.68,331.927 352.168,333.371L337.124,342.015L291.389,368.259L277.636,376.157C275.503,377.379 272.601,379.186 270.461,380.212C267.439,378.621 264.146,376.628 261.166,374.912L245.688,366.024L203.446,341.781C195.905,337.453 188.148,332.832 180.557,328.66C180.471,325.652 180.547,322.223 180.547,319.185L180.549,301.076L180.551,253.232C180.583,243.955 180.566,234.677 180.5,225.4C183.008,223.717 187.581,221.28 190.335,219.702L209.352,208.792L270.327,173.788ZM270.41,179.675L185.645,228.307C185.829,230.669 185.725,234.116 185.725,236.553L185.724,251.12L185.721,301.209L185.72,317.528C185.719,319.896 185.603,323.371 185.731,325.664C192.004,329.481 198.993,333.256 205.41,336.95L252.953,364.253C258.618,367.524 264.967,370.976 270.467,374.366L328.215,341.181L347.045,330.374C349.725,328.833 352.715,327.216 355.328,325.63C355.229,320.101 355.184,313.934 355.311,308.404C349.007,308.443 342.703,308.441 336.4,308.396C336.386,310.534 336.344,312.741 336.432,314.871C334.823,315.621 332.648,316.94 331.059,317.849L321.668,323.261L296.566,337.624L279.241,347.599C276.731,349.04 272.939,351.381 270.416,352.616C265.975,349.954 261.518,347.484 257.034,344.901L229.023,328.809L213.214,319.735C210.717,318.301 207.101,316.082 204.626,314.866L204.609,265.464C204.609,256.837 204.452,247.672 204.627,239.076C206.598,238.123 209.031,236.641 210.959,235.534L221.466,229.488L253.94,210.848L264.812,204.599C266.567,203.59 268.71,202.274 270.481,201.352C275.343,203.866 281.746,207.831 286.594,210.608L320.675,230.155L330.715,235.932C332.416,236.911 334.675,238.297 336.39,239.143L336.386,245.512C342.516,245.551 349.178,245.644 355.282,245.502L355.266,228.248C353.396,227.416 349.569,225.041 347.672,223.943L333.863,216.004L288.551,190.031L276.271,182.933C275.107,182.261 271.488,180.088 270.41,179.675ZM270.248,77.495C271.714,77.581 430.101,168.768 444.421,177.163L444.393,226.014L387.864,226.048L387.854,209.42C384.261,207.769 377.316,203.527 373.729,201.465L346.444,185.784L297.839,157.877C288.866,152.725 279.536,147.527 270.68,142.217C267.759,143.636 263.106,146.49 260.161,148.182L240.487,159.492L179.73,194.365L163.106,203.915C160.227,205.563 156.253,207.972 153.322,209.346L153.3,344.249C164.427,350.417 175.861,357.148 186.915,363.5L270.522,411.467C278.783,407.265 289.625,400.571 297.951,395.788L347.124,367.568L373.666,352.325C378.156,349.748 383.378,346.593 387.909,344.263C387.797,338.889 387.878,333.142 387.871,327.741C406.159,327.508 426.117,327.468 444.385,327.76C444.386,343.964 444.218,360.515 444.472,376.692C439.543,379.169 433.228,383.036 428.374,385.825L399.308,402.527L310.943,453.233L284.371,468.492C280.249,470.854 274.642,474.344 270.508,476.327C264.669,473.253 258.306,469.403 252.548,466.087L222.643,448.914L141.029,402.075C126.459,393.713 111.47,384.784 96.805,376.724C96.638,370.911 96.785,364.287 96.786,358.417L96.788,323.428L96.793,230.989C96.854,213.064 96.821,195.139 96.694,177.214C101.54,173.964 110.376,169.254 115.697,166.206L152.439,145.126L270.248,77.495ZM270.41,88.87L106.634,182.832C106.99,187.395 106.789,194.055 106.789,198.764L106.788,226.909L106.781,323.686L106.779,355.215C106.778,359.79 106.554,366.504 106.801,370.935C118.921,378.31 132.425,385.604 144.822,392.741L236.681,445.493C247.625,451.812 259.893,458.482 270.52,465.031L382.095,400.916L418.476,380.035C423.653,377.058 429.43,373.933 434.479,370.869C434.287,360.186 434.201,348.271 434.446,337.587C422.267,337.663 410.087,337.658 397.908,337.571C397.882,341.702 397.801,345.966 397.97,350.081C394.861,351.53 390.659,354.079 387.59,355.836L369.444,366.292L320.946,394.042L287.472,413.315C282.621,416.1 275.295,420.622 270.421,423.009C261.841,417.865 253.229,413.093 244.565,408.102L190.445,377.012L159.901,359.48C155.076,356.708 148.09,352.422 143.307,350.072L143.276,254.623C143.275,237.954 142.972,220.247 143.31,203.639C147.118,201.796 151.818,198.934 155.543,196.794L175.845,185.113L238.587,149.099L259.593,137.025C262.984,135.075 267.124,132.534 270.546,130.751C279.941,135.608 292.312,143.27 301.679,148.636L367.527,186.401L386.925,197.563C390.211,199.455 394.576,202.134 397.889,203.768L397.881,216.073C409.726,216.148 422.597,216.329 434.39,216.053L434.359,182.718C430.746,181.11 423.352,176.522 419.687,174.399L393.006,159.061L305.46,108.878L281.734,95.163C279.484,93.866 272.492,89.666 270.41,88.87Z" style="fill:white;"  data-color="color-3"/>
        <path d="M270.41,88.87C272.492,89.666 279.484,93.866 281.734,95.163L305.46,108.878L393.006,159.061L419.687,174.399C423.352,176.522 430.746,181.11 434.359,182.718L434.39,216.053C422.597,216.329 409.726,216.148 397.881,216.073L397.889,203.768C394.576,202.134 390.211,199.455 386.925,197.563L367.527,186.401L301.679,148.636C292.312,143.27 279.941,135.608 270.546,130.751C267.124,132.534 262.984,135.075 259.593,137.025L238.587,149.099L175.845,185.113L155.543,196.794C151.818,198.934 147.118,201.796 143.31,203.639C142.972,220.247 143.275,237.954 143.276,254.623L143.307,350.072C148.09,352.422 155.076,356.708 159.901,359.48L190.445,377.012L244.565,408.102C253.229,413.093 261.841,417.865 270.421,423.009C275.295,420.622 282.621,416.1 287.472,413.315L320.946,394.042L369.444,366.292L387.59,355.836C390.659,354.079 394.861,351.53 397.97,350.081C397.801,345.966 397.882,341.702 397.908,337.571C410.087,337.658 422.267,337.663 434.446,337.587C434.201,348.271 434.287,360.186 434.479,370.869C429.43,373.933 423.653,377.058 418.476,380.035L382.095,400.916L270.52,465.031C259.893,458.482 247.625,451.812 236.681,445.493L144.822,392.741C132.425,385.604 118.921,378.31 106.801,370.935C106.554,366.504 106.778,359.79 106.779,355.215L106.781,323.686L106.788,226.909L106.789,198.764C106.789,194.055 106.99,187.395 106.634,182.832L270.41,88.87ZM270.424,179.655C271.502,180.067 275.121,182.241 276.285,182.912L288.565,190.01L333.876,215.984L347.686,223.922C349.583,225.021 353.41,227.396 355.28,228.228L355.296,245.481C349.192,245.624 342.53,245.53 336.4,245.491L336.404,239.123C334.689,238.277 332.43,236.89 330.729,235.911L320.689,230.134L286.608,210.588C281.76,207.811 275.357,203.845 270.495,201.331C268.723,202.254 266.581,203.569 264.826,204.578L253.954,210.828L221.48,229.467L210.972,235.513C209.044,236.621 206.612,238.102 204.641,239.056C204.466,247.652 204.623,256.816 204.623,265.444L204.639,314.846C207.115,316.062 210.731,318.28 213.228,319.715L229.037,328.789L257.048,344.88C261.532,347.463 265.989,349.933 270.43,352.596C272.953,351.36 276.744,349.02 279.255,347.578L296.58,337.603L321.681,323.241L331.073,317.829C332.662,316.919 334.837,315.6 336.446,314.85C336.358,312.72 336.4,310.513 336.414,308.375C342.717,308.42 349.021,308.423 355.325,308.384C355.198,313.913 355.242,320.08 355.342,325.61C352.728,327.195 349.738,328.813 347.059,330.354L328.229,341.161L270.481,374.345C264.981,370.956 258.631,367.503 252.967,364.233L205.423,336.93C199.007,333.236 192.018,329.461 185.745,325.644C185.617,323.35 185.733,319.875 185.733,317.507L185.735,301.189L185.738,251.1L185.739,236.533C185.739,234.096 185.843,230.649 185.658,228.287L270.424,179.655Z" style="fill:rgb(125,0,0);"  data-color="color-2"/>
    </g>
</svg>
