<?xml version="1.0" encoding="UTF-8" standalone="no"?>
<!DOCTYPE svg PUBLIC "-//W3C//DTD SVG 1.1//EN" "http://www.w3.org/Graphics/SVG/1.1/DTD/svg11.dtd">
<svg width="100%" height="100%" viewBox="0 0 641 874" version="1.1" xmlns="http://www.w3.org/2000/svg" xmlns:xlink="http://www.w3.org/1999/xlink" xml:space="preserve" xmlns:serif="http://www.serif.com/" style="fill-rule:evenodd;clip-rule:evenodd;stroke-linejoin:round;stroke-miterlimit:2;">
    <g transform="matrix(1,0,0,1,-338.657,-119.476)">
        <g transform="matrix(1,0,0,1,99.0742,56.0173)">
            <path d="M319.934,143.47L421.649,143.467C448.181,143.472 473.164,142.909 499.598,146.163C539.857,151.12 550.077,172.249 559.962,207.846C568.288,179.22 576.98,154.552 609.763,148.048C638.583,142.329 669.141,143.483 698.387,143.476L799.981,143.488L799.959,314.248L731.078,314.192C718.777,314.184 704.335,313.517 692.328,315.257C687.788,315.915 682.167,319.27 678.874,322.518C670.958,330.325 669.68,337.38 669.663,348.067C669.626,371.547 669.678,394.986 669.679,418.437L669.67,561.673L669.645,627.25C669.636,636.638 668.661,653.143 670.283,661.764C675.791,691.036 707.94,685.779 729.506,685.775L799.97,685.758L799.948,798.693C799.949,815.64 800.772,840.146 799.798,856.539L696.967,856.547C670.867,856.542 646.246,857.104 620.26,853.802C579.379,848.606 570.616,827.933 559.934,792.192C547.046,842.611 527.947,853.951 476.815,855.831C458.484,856.505 440.123,856.533 421.734,856.538L319.952,856.526L319.96,685.696L388.425,685.784C399.84,685.795 416.828,686.956 427.47,684.817C455.049,679.274 450.441,647.902 450.413,628.467L450.365,568.148L450.44,357.077C450.493,344.142 451.471,332.622 441.509,322.798C429.357,310.816 406.129,314.179 389.836,314.186L320.005,314.227C319.086,258.176 319.936,199.715 319.934,143.47Z" style="fill:rgb(88,153,77);fill-rule:nonzero;"/>
        </g>
        <g transform="matrix(1,0,0,1,99.0742,56.0173)">
            <path d="M559.26,80.678C569.503,75.917 581.069,72.182 594.193,69.578C628.083,62.853 663.977,63.484 698.382,63.476L879.991,63.497L879.949,394.313C879.949,394.313 796.752,394.245 763.326,394.218C759.703,394.215 756.227,395.653 753.665,398.215C751.103,400.777 749.665,404.252 749.667,407.875C749.667,446.368 749.658,553.942 749.654,592.118C749.654,595.738 751.092,599.211 753.653,601.77C756.213,604.33 759.685,605.768 763.306,605.767C796.736,605.759 879.986,605.739 879.986,605.739L879.948,798.693C879.949,817.031 880.711,843.546 879.657,861.284L875.186,936.533L696.962,936.547L696.952,936.547C667.422,936.541 639.576,936.9 610.174,933.164C589.845,930.58 573.425,925.546 559.723,918.869C539.355,928.63 513.773,934.526 479.754,935.777C460.452,936.487 441.119,936.533 421.74,936.538L239.948,936.517L239.964,605.593C239.964,605.593 323.276,605.7 356.731,605.743C360.354,605.748 363.829,604.312 366.393,601.753C368.956,599.193 370.396,595.72 370.397,592.097C370.403,553.861 370.419,446.085 370.425,407.855C370.425,404.234 368.987,400.761 366.425,398.201C363.864,395.641 360.39,394.203 356.769,394.205C323.563,394.225 241.307,394.273 241.307,394.273L240.016,315.538C239.09,259.058 239.936,200.149 239.934,143.473L239.931,63.472L421.655,63.467L421.664,63.467C451.521,63.473 479.626,63.101 509.374,66.763C529.263,69.211 545.547,74.105 559.26,80.678ZM319.934,143.47C319.936,199.715 319.086,258.176 320.005,314.227L389.836,314.186C406.129,314.179 429.357,310.816 441.509,322.798C451.471,332.622 450.493,344.142 450.44,357.077L450.365,568.148L450.413,628.467C450.441,647.902 455.049,679.274 427.47,684.817C416.828,686.956 399.84,685.795 388.425,685.784L319.96,685.696L319.952,856.526L421.734,856.538C440.123,856.533 458.484,856.505 476.815,855.831C527.947,853.951 547.046,842.611 559.934,792.192C570.616,827.933 579.379,848.606 620.26,853.802C646.246,857.104 670.867,856.542 696.967,856.547L799.798,856.539C800.772,840.146 799.949,815.64 799.948,798.693L799.97,685.758L729.506,685.775C707.94,685.779 675.791,691.036 670.283,661.764C668.661,653.143 669.636,636.638 669.645,627.25L669.67,561.673L669.679,418.437C669.678,394.986 669.626,371.547 669.663,348.067C669.68,337.38 670.958,330.325 678.874,322.518C682.167,319.27 687.788,315.915 692.328,315.257C704.335,313.517 718.777,314.184 731.078,314.192L799.959,314.248L799.981,143.488L698.387,143.476C669.141,143.483 638.583,142.329 609.763,148.048C576.98,154.552 568.288,179.22 559.962,207.846C550.077,172.249 539.857,151.12 499.598,146.163C473.164,142.909 448.181,143.472 421.649,143.467L319.934,143.47Z" style="fill:rgb(237,125,51);"/>
        </g>
        <g transform="matrix(1,0,0,1,99.0742,56.0173)">
            <path d="M559.626,127.91C570.455,118.93 584.156,112.349 601.978,108.813C633.333,102.591 666.559,103.484 698.385,103.476L839.986,103.493L839.954,354.281C839.954,354.281 758.547,353.994 724.264,353.966C716.157,354.079 709.642,360.678 709.632,368.785C709.536,420.423 709.197,580.824 709.08,630.743C709.04,638.917 715.62,645.584 723.794,645.652C758.23,645.707 839.978,645.748 839.978,645.748L839.948,798.693C839.949,816.336 840.742,841.846 839.728,858.911L837.492,896.536L696.965,896.547L696.959,896.547C669.145,896.542 642.911,897.002 615.217,893.483C590.019,890.28 572.876,882.372 559.879,871.761C558.73,872.695 557.562,873.596 556.374,874.467C538.397,887.654 514.256,894.481 478.285,895.804C459.468,896.496 440.621,896.533 421.737,896.538L279.95,896.521L279.962,645.645C279.962,645.645 361.19,646.205 395.529,646.367C403.614,646.311 410.166,639.793 410.264,631.709C410.333,581.671 410.411,419.025 410.43,369.046C410.392,360.913 403.813,354.326 395.679,354.278C361.461,354.25 280.656,354.25 280.656,354.25L280.01,314.883C279.088,258.617 279.936,199.932 279.934,143.471L279.933,103.471L421.657,103.467C449.851,103.472 476.395,103.005 504.486,106.463C529.198,109.506 546.443,117.304 559.626,127.91ZM319.934,143.47C319.936,199.715 319.086,258.176 320.005,314.227L389.836,314.186C406.129,314.179 429.357,310.816 441.509,322.798C451.471,332.622 450.493,344.142 450.44,357.077L450.365,568.148L450.413,628.467C450.441,647.902 455.049,679.274 427.47,684.817C416.828,686.956 399.84,685.795 388.425,685.784L319.96,685.696L319.952,856.526L421.734,856.538C440.123,856.533 458.484,856.505 476.815,855.831C527.947,853.951 547.046,842.611 559.934,792.192C570.616,827.933 579.379,848.606 620.26,853.802C646.246,857.104 670.867,856.542 696.967,856.547L799.798,856.539C800.772,840.146 799.949,815.64 799.948,798.693L799.97,685.758L729.506,685.775C707.94,685.779 675.791,691.036 670.283,661.764C668.661,653.143 669.636,636.638 669.645,627.25L669.67,561.673L669.679,418.437C669.678,394.986 669.626,371.547 669.663,348.067C669.68,337.38 670.958,330.325 678.874,322.518C682.167,319.27 687.788,315.915 692.328,315.257C704.335,313.517 718.777,314.184 731.078,314.192L799.959,314.248L799.981,143.488L698.387,143.476C669.141,143.483 638.583,142.329 609.763,148.048C576.98,154.552 568.288,179.22 559.962,207.846C550.077,172.249 539.857,151.12 499.598,146.163C473.164,142.909 448.181,143.472 421.649,143.467L319.934,143.47Z" style="fill:white;"/>
        </g>
    </g>
</svg>
