<?xml version="1.0" encoding="UTF-8" standalone="no"?>
<!DOCTYPE svg PUBLIC "-//W3C//DTD SVG 1.1//EN" "http://www.w3.org/Graphics/SVG/1.1/DTD/svg11.dtd">
<svg width="100%" height="100%" viewBox="0 0 1173 1473" version="1.1" xmlns="http://www.w3.org/2000/svg" xmlns:xlink="http://www.w3.org/1999/xlink" xml:space="preserve" xmlns:serif="http://www.serif.com/" style="fill-rule:evenodd;clip-rule:evenodd;stroke-linejoin:round;stroke-miterlimit:2;">
    <g transform="matrix(1,0,0,1,-357.111,-335.671)">
        <path d="M406.687,1593.16L682.664,487.787L682.957,487.787C685.691,478.412 689.109,469.721 693.211,461.713C697.508,452.924 702.195,445.697 707.273,440.033C712.742,430.853 719.48,422.26 727.488,414.252C752.097,389.642 781.883,377.338 816.844,377.338L1369.38,377.338C1401.02,379.096 1428.17,391.4 1450.83,414.252C1475.44,438.861 1487.74,468.646 1487.74,503.607C1487.74,520.599 1484.81,536.42 1478.95,551.068L1479.83,551.068L1203.56,1656.15L1203.27,1656.15C1203.07,1657.12 1202.78,1658.1 1202.39,1659.08C1200.59,1672.17 1196.85,1684.45 1191.18,1695.93C1191.16,1695.96 1191.15,1695.98 1191.14,1696.01C1185.14,1708.13 1176.97,1719.36 1166.65,1729.68C1142.04,1754.29 1112.25,1766.6 1077.29,1766.6L516.844,1766.6C485.203,1764.84 458.055,1752.53 435.398,1729.68C410.984,1705.07 398.777,1675.29 398.777,1640.33C398.777,1623.33 401.707,1607.61 407.566,1593.16L406.687,1593.16ZM839.842,1514.06L935.203,1514.06L1156.39,629.877L951.023,629.877L729.832,1514.06L819.405,1514.06C804.091,1594.93 788.845,1675.81 788.87,1676.99C789.758,1673.75 790.946,1670.33 791.984,1667.11C798.723,1646.66 834.864,1530.12 839.842,1514.06ZM1024.3,671.543C993.333,711.985 957.09,814.253 944.401,846.445C941.136,854.729 934.966,875.594 930.045,885.425L983.55,671.543L1024.3,671.543ZM1038.54,929.311C1036.41,922.573 1034.8,916.423 1034.8,912.337C1034.78,899.123 1039.27,880.203 1041.06,866.473C1044.48,840.284 1061.19,715.149 1051.4,671.543L1103.02,671.543L1038.54,929.311ZM882.603,1075.06C883.792,1072.14 884.884,1069.48 885.818,1067.29C894.501,1046.96 909.189,1020.26 916.374,999.886C915.685,1018.27 914.467,1036.99 913.943,1055.29L945.03,1063.01C953.084,1065 961.532,1067.22 969.589,1069.06C977.214,1053.02 984.96,1035.64 992.863,1019.89C990.922,1045.61 989.76,1071.5 988.344,1097.26C987.76,1107.88 984.504,1126.86 985.522,1136.36C986.187,1135.31 986.866,1134.22 987.558,1133.09L902.676,1472.39L852.768,1472.39C878.384,1389.63 915.433,1268.01 930.3,1200.43C938.492,1163.19 946.426,1125.8 948.438,1087.61C940.221,1085.48 931.992,1083.39 923.752,1081.35C921.324,1087.85 918.023,1094.39 915.407,1100.95C910.32,1113.92 905.65,1127.01 901.4,1140.23C878.989,1209.08 863.749,1281.72 850.054,1352.74C848.24,1362.15 838.498,1413.35 827.301,1472.39L783.206,1472.39L882.603,1075.06Z"/>
        <path d="M882.603,1075.06C878.131,1086.05 872.291,1100.71 868.321,1107.62C864.086,1070.17 871.478,963.489 890.882,928.037C896.545,917.69 922.205,897.711 928.368,888.395C928.905,887.583 929.466,886.58 930.045,885.425C934.966,875.594 941.136,854.729 944.401,846.445C957.09,814.253 993.333,711.985 1024.3,671.543C1030.04,664.049 1035.6,658.678 1040.79,656.269C1042.08,656.478 1043.29,656.832 1044.39,657.543C1047.53,659.564 1049.81,664.486 1051.4,671.543C1061.19,715.149 1044.48,840.284 1041.06,866.473C1039.27,880.203 1034.78,899.123 1034.8,912.337C1034.8,916.423 1036.41,922.573 1038.54,929.311C1041.89,939.952 1046.56,952.058 1048.28,959.816C1049.53,965.458 1050.07,971.202 1049.51,976.972C1045.65,1016.71 1009.91,1096.5 987.558,1133.09C986.866,1134.22 986.187,1135.31 985.522,1136.36C984.504,1126.86 987.76,1107.88 988.344,1097.26C989.76,1071.5 990.922,1045.61 992.863,1019.89C984.96,1035.64 977.214,1053.02 969.589,1069.06C961.532,1067.22 953.084,1065 945.03,1063.01L913.943,1055.29C914.467,1036.99 915.685,1018.27 916.374,999.886C909.189,1020.26 894.501,1046.96 885.818,1067.29C884.884,1069.48 883.792,1072.14 882.603,1075.06Z" style="fill:rgb(200,39,44);"/>
        <path d="M642.238,477.694C639.539,488.505 639.68,487.356 642.957,476.12C646.423,464.237 650.774,453.222 655.938,443.087C661.313,432.149 667.233,422.977 673.477,415.439C680.285,404.589 688.453,394.361 698.025,384.789C730.752,352.062 770.351,335.671 816.844,335.671L1369.38,335.671C1370.15,335.671 1370.92,335.692 1371.69,335.735C1413.89,338.079 1450.13,354.399 1480.36,384.853C1513.04,417.568 1529.41,457.145 1529.41,503.607C1529.41,522.581 1526.58,540.438 1521.05,557.203C1520.85,558.532 1520.58,559.857 1520.25,561.174L1243.99,1666.25C1243.67,1667.52 1243.3,1668.76 1242.87,1669.97C1237.16,1703.81 1221.67,1733.58 1196.11,1759.14C1163.38,1791.87 1123.79,1808.26 1077.29,1808.26L516.844,1808.26C516.073,1808.26 515.302,1808.24 514.532,1808.2C472.311,1805.85 436.047,1789.51 405.814,1759.02C373.379,1726.33 357.111,1686.78 357.111,1640.33C357.111,1621.31 359.958,1603.5 365.498,1586.87C365.692,1585.6 365.947,1584.33 366.262,1583.07L642.238,477.694ZM672.571,528.213C666.271,526.594 666.177,526.616 672.571,528.213L406.687,1593.16L407.566,1593.16C401.707,1607.61 398.777,1623.33 398.777,1640.33C398.777,1675.29 410.984,1705.07 435.398,1729.68C458.055,1752.53 485.203,1764.84 516.844,1766.6L1077.29,1766.6C1112.25,1766.6 1142.04,1754.29 1166.65,1729.68C1176.97,1719.36 1185.14,1708.13 1191.14,1696.01C1195.03,1697.19 1195.05,1697.14 1191.18,1695.93C1196.85,1684.45 1200.59,1672.17 1202.39,1659.08C1202.78,1658.1 1203.07,1657.12 1203.27,1656.15L1203.56,1656.15L1479.83,551.068L1478.95,551.068C1484.81,536.42 1487.74,520.599 1487.74,503.607C1487.74,468.646 1475.44,438.861 1450.83,414.252C1428.17,391.4 1401.02,379.096 1369.38,377.338L816.844,377.338C781.883,377.338 752.097,389.642 727.488,414.252C719.48,422.26 712.742,430.853 707.273,440.033C702.195,445.697 697.508,452.924 693.211,461.713C689.109,469.721 685.691,478.412 682.957,487.787L682.664,487.787L672.571,528.213ZM839.842,1514.06C834.864,1530.12 798.723,1646.66 791.984,1667.11C790.946,1670.33 789.758,1673.75 788.87,1676.99C788.845,1675.81 804.091,1594.93 819.405,1514.06L729.832,1514.06L951.023,629.877L1156.39,629.877L935.203,1514.06L839.842,1514.06ZM827.301,1472.39C838.498,1413.35 848.24,1362.15 850.054,1352.74C863.749,1281.72 878.989,1209.08 901.4,1140.23C905.65,1127.01 910.32,1113.92 915.407,1100.95C918.023,1094.39 921.324,1087.85 923.752,1081.35C931.992,1083.39 940.221,1085.48 948.438,1087.61C946.426,1125.8 938.492,1163.19 930.3,1200.43C915.433,1268.01 878.384,1389.63 852.768,1472.39L902.676,1472.39L987.558,1133.09C1009.91,1096.5 1045.65,1016.71 1049.51,976.972C1050.07,971.202 1049.53,965.458 1048.28,959.816C1046.56,952.058 1041.89,939.952 1038.54,929.311L1103.02,671.543L1051.4,671.543C1049.81,664.486 1047.53,659.564 1044.39,657.543C1043.29,656.832 1042.08,656.478 1040.79,656.269C1035.6,658.678 1030.04,664.049 1024.3,671.543L983.55,671.543L930.045,885.425C929.466,886.58 928.905,887.583 928.368,888.395C922.205,897.711 896.545,917.69 890.882,928.037C871.478,963.489 864.086,1070.17 868.321,1107.62C872.291,1100.71 878.131,1086.05 882.603,1075.06L783.206,1472.39L827.301,1472.39Z" style="fill:rgb(252,171,23);"/>
    </g>
</svg>
