<svg width="100%" height="100%" viewBox="0 0 966 705" version="1.1" xmlns="http://www.w3.org/2000/svg" xmlns:xlink="http://www.w3.org/1999/xlink" xml:space="preserve" xmlns:serif="http://www.serif.com/" style="fill-rule:evenodd;clip-rule:evenodd;stroke-linejoin:round;stroke-miterlimit:2;">
    <g transform="matrix(1,0,0,1,-295.264,-154.926)">
        <path d="M1110.45,495.783C1119.63,491.761 1130.28,489.318 1139.65,490.517C1150.09,491.828 1159.56,497.31 1165.89,505.709C1172.56,514.533 1174.36,522.981 1174.01,532.355C1180.09,536.423 1186.24,540.522 1192.31,544.372C1211.44,556.502 1213.23,571.016 1210.13,589.542C1223.26,602.096 1236.81,613.029 1250.9,624.75L1250.9,624.754C1257.7,630.422 1261.8,641.146 1260.92,650.299C1259.11,669.194 1245.49,687.011 1232.01,699.754L1231.92,699.833C1219.68,711.049 1203.44,720.9 1187,723.649C1174.43,725.751 1163.03,722.766 1151.86,718.678C1144.57,716.01 1137.47,712.606 1129.67,712.308C1116.93,711.823 1101.44,715.444 1088.5,717.153C1081.76,718.044 1076.14,718.624 1070.74,718.953C1080.76,735.839 1092.95,751.77 1107.5,764.402C1114.94,770.367 1122.34,772.648 1129.76,774.954C1140.27,778.222 1150.85,781.436 1161.99,789.047C1182.07,802.755 1188.5,818.339 1193.24,840.839L1197.13,859.338L1178.23,858.924C1155.35,858.424 1132.46,858.278 1109.51,858.489L1109.46,858.489C1096.37,858.512 1054.23,859.13 1042.99,855.229C1005.7,842.287 956.34,811.028 928.56,782.465C923.654,777.421 918.961,770.982 914.743,764.424C909.546,768.734 904.316,772.65 899.968,775.433C892.587,780.158 885.148,784.318 878.848,788.337C875.879,790.231 872.225,793.288 870.287,794.963C872.111,796.888 875.688,800.453 879.519,803.106C881.215,804.28 883.072,805.49 885.098,806.743C896.933,814.058 902.366,828.762 903.594,842.666L905.054,859.203L888.454,858.984C857.421,858.574 826.306,859.056 795.264,858.894C786.27,858.846 777.623,858.99 768.748,857.413C758.717,855.688 749.18,851.803 740.798,846.026C727.724,837.045 720.264,825.893 715.591,812.717C686.042,824.126 654.452,830.134 622.924,833.29L617.354,855.237L295.264,855.225L299.04,837.158C300.125,831.967 301.66,826.379 303.025,821.214C316.841,768.922 328.915,715.969 343.116,663.798L346.083,652.896L357.381,652.739C368.577,652.584 379.929,652.63 391.216,652.671L437.914,455.07C444.984,424.97 451.886,393.714 459.364,363.468C452.548,362.489 445.732,361.431 439.149,360.158L423.873,357.205L427.383,342.047C440.672,284.66 454.402,224.354 466.552,166.852L469.062,154.975L496.183,154.926L496.502,154.94C517.637,155.803 545.181,155.04 566.909,155.046L718.071,154.987L721.516,165.195C742.047,226.044 764.61,286.89 785.866,347.737L934.904,155.085L1228.69,155.126L1224.34,173.567C1210.62,231.719 1195.09,289.973 1181.92,348.232L1179.74,357.9L1169.99,359.681C1161.27,361.273 1151.65,362.622 1142.36,363.986L1110.45,495.783Z" style="fill:white;"/>
        <path d="M495.89,169.927C517.21,170.798 544.996,170.04 566.913,170.046L707.303,169.991C730.795,239.614 756.946,309.234 780.757,378.856L942.264,170.086L1209.74,170.123C1196.01,228.32 1180.47,286.62 1167.29,344.925C1155.54,347.071 1142.13,348.766 1130.15,350.663L1092.37,506.704C1098.91,508.619 1103.59,509.94 1109.7,513.038C1117.56,508.226 1128.44,504.205 1137.78,505.4C1144.2,506.206 1150.02,509.575 1153.91,514.739C1160.03,522.822 1159.56,530.565 1158.22,539.84C1166.78,545.546 1175.61,551.542 1184.28,557.04C1199.48,566.677 1197.24,578.948 1193.86,594.608C1209.09,609.895 1224.83,622.572 1241.3,636.277C1244.63,639.052 1246.42,644.385 1245.99,648.866C1244.51,664.291 1232.72,678.438 1221.79,688.774C1211.6,698.111 1198.21,706.566 1184.53,708.854C1164.8,712.153 1148.99,698.034 1130.24,697.319C1116.72,696.804 1100.27,700.469 1086.54,702.282C1070.76,704.366 1061.51,704.638 1045.78,703.953C1058.36,730.332 1075.64,756.674 1097.86,775.901C1116.29,790.828 1134.06,788.134 1153.53,801.434C1169.9,812.61 1174.7,825.583 1178.56,843.928C1155.52,843.424 1132.48,843.277 1109.43,843.489C1097.32,843.51 1058.31,844.668 1047.91,841.058C1012.52,828.777 965.676,799.113 939.313,772.007C931.087,763.549 923.648,750.661 918.266,740.892C910.616,748.76 899.692,757.8 891.881,762.8C862.386,781.682 831.949,791.525 877.211,819.502C885.127,824.395 887.831,834.686 888.652,843.985C857.579,843.575 826.424,844.056 795.343,843.894C787.2,843.851 779.368,844.07 771.293,842.631C763.4,841.274 755.896,838.216 749.302,833.669C734.276,823.352 728.922,809.203 725.68,792.127C723.052,793.182 720.353,794.549 717.707,795.675C684.073,809.988 647.314,816.374 610.997,819.306L605.685,840.237L313.723,840.226C314.756,835.283 316.227,829.965 317.527,825.046C331.334,772.79 343.398,719.873 357.589,667.738C372.649,667.529 387.994,667.688 403.077,667.703L452.514,458.509C460.838,423.071 468.926,386.024 478.004,350.927C466.158,349.252 453.701,347.694 441.996,345.431C455.307,287.951 469.058,227.548 481.228,169.953L495.89,169.927Z" style="fill:rgb(0,82,158);fill-rule:nonzero;"  data-color="color-2"/>
        <path d="M953.981,195.911L1177.1,195.893C1166.15,236.667 1156.07,280.854 1146.04,322.055L1109.83,327.398C1105.36,347.703 1099.62,369.428 1094.63,389.772L1067.1,502.114C1039.07,494.391 1012.99,488.394 984.031,485.249C979.693,484.778 966.044,477.942 961.172,476.211C947.965,471.519 934.675,467.334 920.708,465.327C880.971,459.744 858.452,472.896 828.044,495.73C791.562,525.826 716.626,550.505 670.8,565.6C660.006,538.872 649.608,509.611 639.397,482.478C635.951,493.953 633.427,505.946 630.363,517.54C615.032,575.567 602.906,635.158 587.094,693.009L617.093,692.998C606.434,733.235 596.088,773.555 586.056,813.953L346.805,813.943C357.615,775.092 367.452,732.304 377.531,692.844C392.451,693.248 408.236,692.821 423.388,693.045C446.848,598.405 467.909,502.861 490.634,408.023C497.013,381.403 503.296,354.477 509.18,327.748C497.167,326.664 484.708,325.165 472.677,323.887C476.385,310.818 479.952,292.216 482.996,278.671L501.799,195.853C517.678,197.101 546.927,196.12 564.205,196.11L688.58,196.021C717.143,273.341 743.63,351.262 772.842,428.75L953.981,195.911Z" style="fill:rgb(218,24,42);fill-rule:nonzero;"  data-color="color-1"/>
        <path d="M901.574,483.423C925.537,481.948 950.178,492.589 972.624,498.43C982.755,500.226 993.709,500.23 1003.81,501.938C1057.52,511.018 1112.53,521.362 1157.52,554.196C1165.09,559.725 1174.17,564.299 1181.19,570.56C1188.97,577.498 1182.53,587.744 1178.41,594.17C1187.71,607.546 1215.28,629.46 1228.78,638.851C1221.29,639.742 1200.13,644.144 1199.47,655.569C1199.13,661.675 1207.67,664.683 1211.98,668.44C1215.78,675.772 1205.2,685.85 1200.39,690.267C1186.11,704.233 1166.68,694.566 1152.16,686.37C1129.13,673.367 1115.38,676.698 1091.19,679.97C1063.15,683.764 1022.26,680.311 1011.83,648.625C1008.39,638.178 1008.8,631.667 1009.8,620.888C996.913,637.232 994.771,654.974 1002,674.248C978.023,682.807 949.313,699.384 927.503,713.247C933.734,697.328 935.949,686.661 938.125,669.766C924.032,697.058 909.059,718.629 883.816,737.234C866.271,750.165 838.368,763.156 835.265,787.135C832.375,809.475 857.069,817.749 868.749,832.603L805.687,832.599C792.547,832.733 779.658,832.981 768.516,824.912C742.605,806.148 742.858,765.888 746.672,737.569C751.436,702.483 761.45,667.349 776.617,635.328C780.404,627.333 787.494,617.809 792.642,610.446C745.219,644.845 723.735,704.224 723.074,761.243C689.118,780.493 656.58,788.649 617.988,793.35L650.133,668.429L619.76,668.329L644.366,568.099C648.098,577.074 651.575,586.151 654.795,595.322C673.025,582.833 705.418,572.584 726.942,563.674C752.289,553.076 777.258,541.595 801.804,529.252C795.308,541.612 790.848,549.848 786.306,563.125C817.722,534.322 855.964,486.927 901.574,483.423ZM1022.18,705.114C1022.68,705.468 1036.07,731.605 1038.03,734.772C1050.29,754.501 1082.86,791.415 1104.7,796.856C1131.11,803.433 1147.51,805.649 1156.73,832.047L1089.69,832.047C1080.71,832.032 1067.55,832.236 1058.84,829.557C1036.27,822.611 1016.15,807.809 996.631,794.628C979.813,783.269 965.386,769.995 954.868,752.287C966.776,731.49 1001.13,715.518 1022.18,705.114ZM1131.72,518.42C1134.72,518.239 1138.1,518.267 1140.85,519.54C1145.55,521.713 1150.66,528.431 1147.98,533.587L1146.41,533.272C1139.75,528.971 1133.04,524.74 1126.29,520.578C1127.37,519.514 1130.07,518.936 1131.72,518.42Z" style="fill:rgb(254,254,254);"/>
        <path d="M1013.15,511.137C1037.93,512.148 1048.74,525.565 1058.85,546.598C1044.28,537.166 1018.74,507.978 1001.82,533.903C997.731,540.17 999.763,551.225 1001.76,557.973C1007.42,572.157 1013.73,579.3 1025.67,588.247C1017.48,586.788 1010,584.984 1003.51,579.553C980.017,559.906 973.856,514.816 1013.15,511.137ZM1121.67,590.643C1131.56,590.016 1147.57,591.275 1156.39,595.291C1156.79,597.692 1157.16,600.312 1158.16,602.532C1159.8,606.149 1165.87,611.542 1165.28,615.258C1162.56,616.064 1159.83,614.802 1156.96,613.936L1148.99,610.517C1136.99,613.863 1131.67,608.969 1126.33,598.822C1118.4,594.824 1113.88,596.324 1110.39,594.234C1112.44,591.424 1118.48,590.998 1121.67,590.643ZM1015.92,536.474C1028.08,535.059 1033.75,540.201 1041.73,548.573C1034.27,546.07 1025.93,541.426 1019.07,546.601C1017.96,552.567 1020.96,560.471 1022.74,566.357C1015.9,558.547 1005.6,545.774 1015.92,536.474Z" style="fill:rgb(0,82,158);"  data-color="color-2"/>
    </g>
</svg>
