<svg width="100%" height="100%" viewBox="0 0 718 779" version="1.1" xmlns="http://www.w3.org/2000/svg" xmlns:xlink="http://www.w3.org/1999/xlink" xml:space="preserve" xmlns:serif="http://www.serif.com/" style="fill-rule:evenodd;clip-rule:evenodd;stroke-linejoin:round;stroke-miterlimit:2;">
    <g transform="matrix(1,0,0,1,-154.705,-122)">
        <path d="M156.67,122.031L389.121,122C438.626,198.401 487.581,275.156 535.982,352.261L584.393,428.029C591.595,439.351 599.815,451.685 606.524,463.189C605.556,441.375 606.065,416.51 606.078,394.501L606.105,283.275L606.188,247.435C606.197,243.57 606.498,229.529 605.606,226.787C602.794,218.142 596.723,206.846 592.716,198.329L556.337,122.032L871.954,122.01C869.364,126.387 866.68,131.229 864.315,135.776C847.909,167.326 828.202,197.747 813.468,229.994C812.666,231.749 812.922,244.189 812.931,246.688L813.003,274.768L812.998,395.808L813.031,899.95L784.125,899.958L650.211,900.018L493.021,652.918C477.756,628.641 461.267,604.599 446.125,580.159C438.407,567.702 429.665,554.774 422.648,541.923C422.988,547.407 422.575,556.423 422.553,562.245L422.512,602.554L422.527,731.609C422.52,741.972 421.203,778.328 423.561,786.136C427.791,800.145 437.138,815.881 443.899,828.999C456.288,852.458 468.313,876.108 479.972,899.939L154.705,899.957C157.167,896.942 163.865,884.323 166.513,879.804L200.64,821.108C203.47,816.185 217.786,791.789 218.193,787.83C218.684,783.058 218.438,758.835 218.504,752.373L219.033,628.126L219.175,364.478L219.171,278.674C219.168,262.642 219.317,246.459 218.947,230.445C218.99,228.767 218.215,226.904 217.396,225.431C198.006,190.553 176.371,156.713 156.67,122.031ZM604.806,152.031L821.043,152.031C812.722,167.212 804.51,182.453 796.409,197.752C793.873,202.51 784.671,218.853 783.818,223.169C783.232,226.135 783.471,242.964 783.479,247.378L783.554,300.325C783,361.198 782.812,422.073 782.99,482.947L782.999,747.188L782.993,824.725C782.979,836.385 782.349,858.211 783.745,868.655C778.559,869.186 771.364,868.984 766,868.982L736.734,868.96L692,869.002C683.655,869.079 675.777,869.494 667.347,869.423C658.575,857.143 648.562,840.117 640.286,827.165L590.681,749.765L453.786,534.527L415.47,474.792C408.263,463.515 401.405,452.195 393.943,441.078C394.062,448.821 393.194,457.402 393.066,465.31L392.074,535.506L392.017,715.036L391.988,765.003C391.989,770.603 391.572,791.191 393.076,794.966C402.721,819.172 419.829,845.65 429.244,869.63L406.75,869.605L280.56,869.611C257.385,869.611 230.618,870.275 207.878,869.101C213.641,860.261 246.769,803.945 248.356,796.851C250.114,789 249.027,772.153 249.023,763.245L248.993,691.28L249.005,353.118L248.999,264.212C248.988,255.816 248.435,227.999 249.618,221.752C237.987,199.508 223.607,175.329 211.231,153.067C264.458,152.29 319.475,153.007 372.847,153.008C406.444,203.32 439.17,257.565 471.758,308.841L636.445,565.381C637.952,530.788 637.561,495.104 637.56,460.426L637.544,314.302L637.583,249.287C637.594,242.298 637.879,227.63 637.207,221.311C636.932,218.726 628.216,201.356 626.441,197.657C619.14,182.49 611.928,167.281 604.806,152.031Z" style="fill:rgb(0,48,89);"  data-color="color-2"/>
        <path d="M604.806,152.031L821.043,152.031C812.722,167.212 804.51,182.453 796.409,197.752C793.873,202.51 784.671,218.853 783.818,223.169C783.232,226.135 783.471,242.964 783.479,247.378L783.554,300.325C783,361.198 782.812,422.073 782.99,482.947L782.999,747.188L782.993,824.725C782.979,836.385 782.349,858.211 783.745,868.655C778.559,869.186 771.364,868.984 766,868.982L736.734,868.96L692,869.002C683.655,869.079 675.777,869.494 667.347,869.423C658.575,857.143 648.562,840.117 640.286,827.165L590.681,749.765L453.786,534.527L415.47,474.792C408.263,463.515 401.405,452.195 393.943,441.078C394.062,448.821 393.194,457.402 393.066,465.31L392.074,535.506L392.017,715.036L391.988,765.003C391.989,770.603 391.572,791.191 393.076,794.966C402.721,819.172 419.829,845.65 429.244,869.63L406.75,869.605L280.56,869.611C257.385,869.611 230.618,870.275 207.878,869.101C213.641,860.261 246.769,803.945 248.356,796.851C250.114,789 249.027,772.153 249.023,763.245L248.993,691.28L249.005,353.118L248.999,264.212C248.988,255.816 248.435,227.999 249.618,221.752C237.987,199.508 223.607,175.329 211.231,153.067C264.458,152.29 319.475,153.007 372.847,153.008C406.444,203.32 439.17,257.565 471.758,308.841L636.445,565.381C637.952,530.788 637.561,495.104 637.56,460.426L637.544,314.302L637.583,249.287C637.594,242.298 637.879,227.63 637.207,221.311C636.932,218.726 628.216,201.356 626.441,197.657C619.14,182.49 611.928,167.281 604.806,152.031ZM255.732,179.987L358.59,179.901C371.501,199.449 383.596,219.147 396.122,238.945L455.49,332.411L580.312,526.836L631.681,607.281C642.466,624.202 653.765,642.545 665.042,659.006C664.447,646.035 664.574,635.347 664.414,622.5C663.824,592.539 663.674,562.571 663.964,532.606L663.961,334.06L663.952,251.838C663.937,246.723 664.525,223.502 663.919,220.522C661.939,210.786 651.866,189.669 647.461,179.981L775.465,180.007C770.216,190.677 761.101,206.504 757.874,217.547C757.229,219.754 757.445,234.468 757.452,237.652L757.524,274.182L757.012,407.958L756.447,841.995L732.75,841.978L680.247,842.004C665.786,818.37 650.667,795.493 635.985,772.053L471.557,513.643L412.07,421.07C396.977,397.61 379.589,371.111 366.001,346.987C365.728,358.095 365.99,370.149 365.99,381.331L365.983,449.927L365.957,657.03L366.393,766.505C366.495,773.963 365.914,794.939 366.758,800.79C367.975,809.231 383.144,833.816 388.104,841.965L253.332,841.937C259.728,830.8 271.022,812.666 275.303,801.166C276.355,798.339 276.012,776.809 276.009,772.326L275.974,717.378L275.971,493.49L275.976,302.035L275.994,246.248C276.013,232.634 278.382,218.506 271.192,207.017C265.748,198.32 261.332,188.66 255.732,179.987Z" style="fill:rgb(252,251,251);"  data-color="color-3"/>
        <path d="M255.732,179.987L358.59,179.901C371.501,199.449 383.596,219.147 396.122,238.945L455.49,332.411L580.312,526.836L631.681,607.281C642.466,624.202 653.765,642.545 665.042,659.006C664.447,646.035 664.574,635.347 664.414,622.5C663.824,592.539 663.674,562.571 663.964,532.606L663.961,334.06L663.952,251.838C663.937,246.723 664.525,223.502 663.919,220.522C661.939,210.786 651.866,189.669 647.461,179.981L775.465,180.007C770.216,190.677 761.101,206.504 757.874,217.547C757.229,219.754 757.445,234.468 757.452,237.652L757.524,274.182L757.012,407.958L756.447,841.995L732.75,841.978L680.247,842.004C665.786,818.37 650.667,795.493 635.985,772.053L471.557,513.643L412.07,421.07C396.977,397.61 379.589,371.111 366.001,346.987C365.728,358.095 365.99,370.149 365.99,381.331L365.983,449.927L365.957,657.03L366.393,766.505C366.495,773.963 365.914,794.939 366.758,800.79C367.975,809.231 383.144,833.816 388.104,841.965L253.332,841.937C259.728,830.8 271.022,812.666 275.303,801.166C276.355,798.339 276.012,776.809 276.009,772.326L275.974,717.378L275.971,493.49L275.976,302.035L275.994,246.248C276.013,232.634 278.382,218.506 271.192,207.017C265.748,198.32 261.332,188.66 255.732,179.987Z" style="fill:rgb(203,7,52);"  data-color="color-1"/>
    </g>
</svg>
