<?xml version="1.0" encoding="UTF-8" standalone="no"?>
<!DOCTYPE svg PUBLIC "-//W3C//DTD SVG 1.1//EN" "http://www.w3.org/Graphics/SVG/1.1/DTD/svg11.dtd">
<svg width="100%" height="100%" viewBox="0 0 597 872" version="1.1" xmlns="http://www.w3.org/2000/svg" xmlns:xlink="http://www.w3.org/1999/xlink" xml:space="preserve" xmlns:serif="http://www.serif.com/" style="fill-rule:evenodd;clip-rule:evenodd;stroke-linejoin:round;stroke-miterlimit:2;">
    <g transform="matrix(1,0,0,1,-206.89,-58.9138)">
        <path d="M502.889,58.914C547.724,73.242 599.53,97.158 625.006,138.435C643.89,169.032 647.405,202.918 633.264,236.161C628.307,247.814 621.8,258.194 619.052,270.367C646.684,261.888 664.342,228.739 673.821,203.355C687.588,219.642 698.813,236.488 705.09,257.078C718.499,301.068 712.226,345.19 691.703,385.502C737.106,403.954 775.301,443.654 803.729,482.571C784.279,503.329 765.567,524.767 747.628,546.844C737.438,559.243 717.356,584.979 706.588,595.029C666.059,595.107 625.532,595.559 585.011,596.387C585.202,572.709 590.015,540.158 574.852,520.359C552.53,491.21 493.512,493.121 466.072,513.236C444.783,530.029 435.434,566.37 432.698,592.758C427.82,639.786 426.277,714.774 454.965,754.59C476.414,784.357 547.906,784.099 574.591,761.322C598.377,741.021 602.468,717.405 605.97,687.819C612.51,688.208 624.444,690.657 631.207,691.873L669.932,698.609C709.762,704.946 754.849,711.636 794.268,720.142C789.519,740.423 785.143,760.79 781.141,781.231C778.686,794.144 775.973,810.606 772.581,823.44C771.98,825.711 762.353,835.31 759.987,837.76C734.97,863.659 704.183,886.185 671.039,900.803C581.43,940.326 455.087,939.009 364.176,904.865C305.386,882.784 257.951,841.353 232.902,783.143C197.95,701.919 199.375,588.126 230.262,505.721C243.008,471.715 266.613,436.763 295.988,415.39C310.471,404.852 324.713,397.517 340.984,390.32C316.406,292.168 373.51,245.588 447.653,196.688C468.388,183.012 501.595,163.674 510.627,139.883C521.2,112.036 514.226,84.857 502.889,58.914ZM653.244,375.251C647.563,382.915 638.244,394.711 630.476,400.051C685.038,417.173 718.615,436.042 756.146,479.576C734.401,505.633 710.495,533.551 690.738,561.153C667.947,560.16 644.434,560.163 621.539,559.788C621.947,532.336 618.294,513.206 598.492,492.094C577.749,469.979 547.41,463.832 518.18,463.384C486.657,462.9 457.197,470.136 433.978,492.748C398.639,527.164 393.889,586.301 393.778,633.199C393.661,682.46 395.742,745.436 432.243,782.925C455.482,806.791 485.887,812.453 517.787,812.674C552.328,812.914 582.343,805.591 607.641,780.597C622.886,765.535 631.055,749.106 636.648,728.662C660.992,732.403 685.304,736.346 709.582,740.491C722.475,742.703 738.412,745.03 750.808,748.028C748.029,762.523 742.924,795.807 737.228,808.136C733.142,816.978 701.046,842.055 692.189,848.001C621.018,895.781 518.495,902.147 436.508,886.923C376.812,875.837 317.977,850.364 283.785,797.971C240.25,731.26 237.008,641.338 251.474,565.137C262.124,509.03 286.6,465.668 334.152,433.119C344.382,426.116 357.274,420.11 368.893,415.67C373.309,413.983 382.836,411.364 386.352,409.48C374.578,389.578 370.585,368.593 370.96,345.623C371.731,298.359 417.681,256.235 455.182,232.302L489.211,210.93C499.915,204.21 511.334,197.368 520.554,188.701C542.576,168 551.324,144.205 552.027,114.089C563.716,124.334 573.885,130.696 585.035,142.374C604.466,162.726 609.794,187.287 601.545,214.083C596.048,230.495 588.373,245.608 582.291,261.883C576.697,276.852 568.101,298.136 580.799,312.028C585.783,317.481 595.286,319.015 602.423,318.756C624.047,317.97 643.62,304.927 658.496,290.096C663.431,285.149 667.872,279.683 672.701,274.572C673.619,277.672 674.478,281.373 674.951,284.555C680.181,319.743 673.114,346.671 653.244,375.251Z" style="fill:rgb(0,39,67);"/>
        <path d="M653.244,375.251C647.563,382.915 638.244,394.711 630.476,400.051C685.038,417.173 718.615,436.042 756.146,479.576C734.401,505.633 710.495,533.551 690.738,561.153C667.947,560.16 644.434,560.163 621.539,559.788C621.947,532.336 618.294,513.206 598.492,492.094C577.749,469.979 547.41,463.832 518.18,463.384C486.657,462.9 457.197,470.136 433.978,492.748C398.639,527.164 393.889,586.301 393.778,633.199C393.661,682.46 395.742,745.436 432.243,782.925C455.482,806.791 485.887,812.453 517.787,812.674C552.328,812.914 582.343,805.591 607.641,780.597C622.886,765.535 631.055,749.106 636.648,728.662C660.992,732.403 685.304,736.346 709.582,740.491C722.475,742.703 738.412,745.03 750.808,748.028C748.029,762.523 742.924,795.807 737.228,808.136C733.142,816.978 701.046,842.055 692.189,848.001C621.018,895.781 518.495,902.147 436.508,886.923C376.812,875.837 317.977,850.364 283.785,797.971C240.25,731.26 237.008,641.338 251.474,565.137C262.124,509.03 286.6,465.668 334.152,433.119C344.382,426.116 357.274,420.11 368.893,415.67C373.309,413.983 382.836,411.364 386.352,409.48C387.597,410.69 393.993,420.334 396.329,422.851C417.44,445.605 435.878,453.412 465.616,455.799C454.706,449.987 447.397,441.298 440.556,431.272C418.618,399.123 417.121,359.301 436.637,325.498C454.8,294.036 486.078,275.71 515.94,256.915C528.462,249.034 540.606,240.588 553.022,232.499C541.146,249.469 526.766,269.752 524.484,290.669C521.473,318.27 537.528,339.111 559.431,353.638C588.293,372.783 620.338,371.993 653.244,375.251Z" style="fill:rgb(189,33,36);"/>
        <path d="M386.352,409.48C374.578,389.578 370.585,368.593 370.96,345.623C371.731,298.359 417.681,256.235 455.182,232.302L489.211,210.93C499.915,204.21 511.334,197.368 520.554,188.701C542.576,168 551.324,144.205 552.027,114.089C563.716,124.334 573.885,130.696 585.035,142.374C604.466,162.726 609.794,187.287 601.545,214.083C596.048,230.495 588.373,245.608 582.291,261.883C576.697,276.852 568.101,298.136 580.799,312.028C585.783,317.481 595.286,319.015 602.423,318.756C624.047,317.97 643.62,304.927 658.496,290.096C663.431,285.149 667.872,279.683 672.701,274.572C673.619,277.672 674.478,281.373 674.951,284.555C680.181,319.743 673.114,346.671 653.244,375.251C620.338,371.993 588.293,372.783 559.431,353.638C537.528,339.111 521.473,318.27 524.484,290.669C526.766,269.752 541.146,249.469 553.022,232.499C540.606,240.588 528.462,249.034 515.94,256.915C486.078,275.71 454.8,294.036 436.637,325.498C417.121,359.301 418.618,399.123 440.556,431.272C447.397,441.298 454.706,449.987 465.616,455.799C435.878,453.412 417.44,445.605 396.329,422.851C393.993,420.334 387.597,410.69 386.352,409.48Z" style="fill:rgb(242,122,21);"/>
    </g>
</svg>
