<?xml version="1.0" encoding="UTF-8" standalone="no"?>
<!DOCTYPE svg PUBLIC "-//W3C//DTD SVG 1.1//EN" "http://www.w3.org/Graphics/SVG/1.1/DTD/svg11.dtd">
<svg width="100%" height="100%" viewBox="0 0 477 706" version="1.1" xmlns="http://www.w3.org/2000/svg" xmlns:xlink="http://www.w3.org/1999/xlink" xml:space="preserve" xmlns:serif="http://www.serif.com/" style="fill-rule:evenodd;clip-rule:evenodd;stroke-linejoin:round;stroke-miterlimit:2;">
    <g transform="matrix(1,0,0,1,-246.246,-152.646)">
        <g transform="matrix(-1.72837e-16,-1,0.525456,-1.07385e-16,208.004,1017.68)">
            <path d="M379.725,72.778C381.494,74.351 398.84,111.091 401.071,115.696L511.941,348.392L644.528,72.935L865.038,544.257L706.129,858.953L667.292,935.621C659.963,950.081 652.192,964.88 645.283,979.489C638.631,964.818 629.596,947.918 622.283,933.428L570.719,831.176C563.583,816.88 555.269,801.271 548.679,786.943C584.304,718.003 617.472,647.207 652.639,577.993C657.893,567.653 663.045,557.027 667.967,546.529C660.884,530.824 654.126,514.259 647.264,498.376L639.266,479.625C635.337,488.463 629.693,499.187 625.343,507.928L599.85,559.115L512.807,734.266L385.902,479.558C375.761,501.388 365.915,524.823 356.235,546.97C364.459,565.421 377.161,588.25 386.622,606.913C407.915,648.455 428.983,690.112 449.825,731.882L466.965,765.826C470.255,772.345 474.301,779.866 477.107,786.518C471.279,799.79 463.845,813.924 457.225,826.909C431.391,877.577 406.959,929.275 380.854,979.77C374.336,965.105 363.9,946.251 356.372,931.705L316.368,853.404L160.002,544.949L307.613,228.165L348.565,140.009C358.864,118.071 370.095,94.941 379.725,72.778ZM379.301,139.771C381.51,141.824 400.407,182.665 403.382,188.799L511.963,414.124C516.607,405.939 522.432,392.941 526.654,384.207L555.046,325.418L644.683,140.03C655.199,162.122 665.303,185.423 675.617,207.768C701.023,261.459 726.015,315.346 750.59,369.422L805.278,486.427C814.174,505.42 824.409,525.811 832.651,544.919L722.155,765.043C696.472,815.219 671.08,865.542 645.978,916.011C639.991,905.096 634.632,893.725 628.879,882.688C612.502,851.265 597.314,818.871 580.866,787.541C585.012,778.141 590.752,767.581 595.466,758.257C603.362,742.635 611.169,726.968 618.885,711.256L700.479,545.508C694.24,533.204 686.856,514.841 681.149,501.827L646.147,421.648C644.611,418.613 642.534,413.26 641.129,409.971L512.989,669.398C469.409,583.344 426.456,496.975 384.132,410.297C377.14,427.272 369.096,444.785 361.653,461.622L324.22,545.834C336.868,572.934 352.761,603.055 366.408,630.083L445.068,786.902C439.764,799.115 431.416,814.837 425.401,827.009C410.337,856.978 395.523,887.071 380.961,917.286C368.207,893.235 356.44,867.884 343.941,843.623C292.765,744.571 242.107,645.252 191.968,545.671C200.146,529.198 208.157,511.084 216.013,494.329C234.84,454.855 253.27,415.193 271.301,375.35C307.8,297.053 343.801,218.525 379.301,139.771Z" style="fill:rgb(0,56,104);"/>
        </g>
        <g transform="matrix(-1.72837e-16,-1,0.525456,-1.07385e-16,208.004,1017.68)">
            <path d="M379.301,139.771C381.51,141.824 400.407,182.665 403.382,188.799L511.963,414.124C516.607,405.939 522.432,392.941 526.654,384.207L555.046,325.418L644.683,140.03C655.199,162.122 665.303,185.423 675.617,207.768C701.023,261.459 726.015,315.346 750.59,369.422L805.278,486.427C814.174,505.42 824.409,525.811 832.651,544.919L722.155,765.043C696.472,815.219 671.08,865.542 645.978,916.011C639.991,905.096 634.632,893.725 628.879,882.688C612.502,851.265 597.314,818.871 580.866,787.541C585.012,778.141 590.752,767.581 595.466,758.257C603.362,742.635 611.169,726.968 618.885,711.256L700.479,545.508C694.24,533.204 686.856,514.841 681.149,501.827L646.147,421.648C644.611,418.613 642.534,413.26 641.129,409.971L512.989,669.398C469.409,583.344 426.456,496.975 384.132,410.297C377.14,427.272 369.096,444.785 361.653,461.622L324.22,545.834C336.868,572.934 352.761,603.055 366.408,630.083L445.068,786.902C439.764,799.115 431.416,814.837 425.401,827.009C410.337,856.978 395.523,887.071 380.961,917.286C368.207,893.235 356.44,867.884 343.941,843.623C292.765,744.571 242.107,645.252 191.968,545.671C200.146,529.198 208.157,511.084 216.013,494.329C234.84,454.855 253.27,415.193 271.301,375.35C307.8,297.053 343.801,218.525 379.301,139.771ZM379.693,200.397C381.244,202.319 386.322,213.747 387.682,216.574L410.532,264.362L511.725,477.275L586.516,321.763C605.766,281.723 625.551,241.559 644.347,201.343C649.351,213.382 656.206,227.059 661.811,238.982L692.37,304.492L804.187,544.504C796.551,561.008 786.989,579.042 778.743,595.406L743.944,665.011L645.713,859.419C633.172,835.805 621.163,810.682 609.116,786.696C618.946,767.686 628.765,747.347 638.31,728.131L685.881,632.172L712.828,577.598C718.106,566.986 723.958,555.958 728.792,545.194L673.364,418.908C664.082,397.946 654.806,377.794 646.001,356.617L642.158,347.438C631.281,368.363 620.785,391.064 610.233,412.306L512.149,609.984C508.608,603.586 504.313,593.966 501.022,587.138C495.054,574.803 489.013,562.505 482.899,550.243L419.492,421.504C407.71,397.331 395.421,370.477 383.098,346.896C379.319,354.173 374.168,366.935 370.734,374.753C363.189,391.743 355.736,408.773 348.376,425.843L295.82,545.442C311.688,576.207 327.06,607.748 342.554,638.754L416.469,786.457C405.662,810.289 391.951,836.105 380.327,860.002C370.362,841.036 360.533,820.871 350.768,801.694L280.552,662.901L245.214,592.684C237.235,576.997 228.4,560.362 220.911,544.569C226.151,532.081 232.98,518.115 238.712,505.71L268.631,440.804L379.693,200.397Z" style="fill:rgb(250,250,250);"/>
        </g>
        <g transform="matrix(-1.72837e-16,-1,0.525456,-1.07385e-16,208.004,1017.68)">
            <path d="M379.693,200.397C381.244,202.319 386.322,213.747 387.682,216.574L410.532,264.362L511.725,477.275L586.516,321.763C605.766,281.723 625.551,241.559 644.347,201.343C649.351,213.382 656.206,227.059 661.811,238.982L692.37,304.492L804.187,544.504C796.551,561.008 786.989,579.042 778.743,595.406L743.944,665.011L645.713,859.419C633.172,835.805 621.163,810.682 609.116,786.696C618.946,767.686 628.765,747.347 638.31,728.131L685.881,632.172L712.828,577.598C718.106,566.986 723.958,555.958 728.792,545.194L673.364,418.908C664.082,397.946 654.806,377.794 646.001,356.617L642.158,347.438C631.281,368.363 620.785,391.064 610.233,412.306L512.149,609.984C508.608,603.586 504.313,593.966 501.022,587.138C495.054,574.803 489.013,562.505 482.899,550.243L419.492,421.504C407.71,397.331 395.421,370.477 383.098,346.896C379.319,354.173 374.168,366.935 370.734,374.753C363.189,391.743 355.736,408.773 348.376,425.843L295.82,545.442C311.688,576.207 327.06,607.748 342.554,638.754L416.469,786.457C405.662,810.289 391.951,836.105 380.327,860.002C370.362,841.036 360.533,820.871 350.768,801.694L280.552,662.901L245.214,592.684C237.235,576.997 228.4,560.362 220.911,544.569C226.151,532.081 232.98,518.115 238.712,505.71L268.631,440.804L379.693,200.397Z" style="fill:rgb(88,153,77);"/>
        </g>
    </g>
</svg>
