<svg width="100%" height="100%" viewBox="0 0 2831 2663" version="1.1" xmlns="http://www.w3.org/2000/svg" xmlns:xlink="http://www.w3.org/1999/xlink" xml:space="preserve" xmlns:serif="http://www.serif.com/" style="fill-rule:evenodd;clip-rule:evenodd;stroke-linejoin:round;stroke-miterlimit:2;">
    <g transform="matrix(1,0,0,1,-644.866,-729.225)">
        <path d="M3062.66,2161.66L3061.4,2162.9C3012.78,2210.03 2920.31,2261.09 2858.25,2288.6C2843.04,2295.33 2791.43,2313.89 2785.43,2324.1C2787.94,2339.23 2821.13,2399.59 2829.7,2416.12L2905.13,2561.7C2910.13,2571.32 2917.31,2584.29 2921.58,2593.88C2925.79,2599.26 2931.51,2611.87 2935.09,2618.5C2989.36,2718.91 3036.91,2832.65 3112.75,2918.79C3187.18,3003.31 3276.27,3066.54 3387.4,3088.13C3405.52,3091.65 3424.63,3100.6 3424.79,3122.25C3425.27,3186.56 3425.21,3252.01 3424.13,3316.31C3423.8,3336.44 3400.25,3339.98 3384.8,3340.89C3349.2,3341.27 3313.08,3340.97 3277.25,3340.86L3070.63,3340.7L2879.39,3340.85C2840.28,3340.86 2792.59,3343.72 2754.89,3336.4C2687.45,3323.29 2658.81,3262.07 2630.93,3208.48L2577.05,3105.28L2374.5,2718.49L2309.71,2595.32C2295.84,2569.08 2281.19,2539.69 2264.91,2515.16C2247.53,2488.29 2238.76,2479.12 2216.63,2456.5C2144.31,2398.77 2104.52,2396.29 2016.06,2396.22L1747.66,2396.34C1700.4,2396.33 1652.73,2395.45 1605.58,2397.62C1593.77,2398.16 1584.68,2402.64 1584.14,2415.59C1582.4,2457.62 1583.21,2499.96 1583.22,2542.07L1583,2774.39C1583.13,2796.94 1582.76,2816.17 1586.58,2838.69C1606.4,2955.42 1689.23,3040.14 1800.53,3075.46C1826.75,3083.79 1873.1,3086.92 1890.16,3103.8C1897.16,3122.79 1893.97,3290 1893.8,3322.22C1887.32,3330.69 1884.07,3333.2 1875.85,3340.17C1803.74,3343.07 1716.53,3340.78 1642.83,3340.7L896.249,3340.7C839.333,3340.74 782.246,3341.43 725.4,3340.33C703.932,3339.91 695.624,3324.15 695.72,3302.27C695.867,3268.73 694.468,3250.35 695.441,3213.59C696.06,3190.22 690.318,3124.36 703.754,3100.26C726.463,3085.74 772.42,3085.36 800.365,3074.11C851.179,3053.67 895.784,3028.64 932.377,2986.98C970.393,2943.27 994.943,2889.49 1003.06,2832.13C1009.12,2790.46 1006.28,2683.59 1006.28,2635.89L1006.29,2259.21L1006.26,1654.87L1006.18,1461.1C1006.16,1421.28 1006.4,1383.67 1004.91,1343.56C999.458,1197.55 920.898,1099.1 789.012,1041.93C762.797,1030.56 717.905,1024.02 699.366,1007.72C692.72,994.366 695.693,828.958 695.773,800.944C706.897,782.179 713.95,779.038 736.458,779.231C839.89,780.118 943.302,779.892 1046.74,779.808L1822.66,779.734L2251.97,779.699C2334.36,779.702 2425.98,777.848 2507.35,782.298C2605.46,787.663 2724.7,810.371 2816.8,844.609C3005.59,914.792 3177.95,1062.59 3261.62,1247.64C3323.65,1384.83 3341.92,1525.64 3325.9,1675.17C3323.44,1698.1 3316.42,1749.82 3308.83,1770.46C3302.54,1804.55 3282.46,1860.64 3267.02,1892.44C3256.77,1915.61 3224.25,1979.53 3209.13,1996.61C3184.43,2038.48 3102.68,2135.86 3062.66,2161.66Z" style="fill:rgb(127,0,107);" data-color="color-1"/>
        <path d="M3094.43,2200.5C3041.8,2250.63 2944.38,2305.11 2878.5,2334.32L2878.48,2334.32C2873.73,2336.43 2862.24,2341.43 2850.67,2346.46C2859.95,2365.08 2870.41,2386.01 2874.09,2393.11L2949.51,2538.66C2954.38,2548.03 2961.1,2560.35 2965.76,2570.28C2970.46,2578.1 2975.67,2588.43 2979.08,2594.73C3031.59,2691.89 3076.89,2802.39 3150.28,2885.75C3217.27,2961.82 3296.91,3019.62 3396.93,3039.05C3437.63,3046.95 3474.43,3073.26 3474.79,3121.88C3475.27,3186.59 3475.21,3252.45 3474.12,3317.13C3473.68,3344.46 3460.83,3362.89 3441.97,3375.24C3426.66,3385.25 3404.76,3389.8 3386.54,3390.87L3385.33,3390.89C3349.53,3391.27 3313.19,3390.97 3277.15,3390.86L3070.63,3390.7L2879.42,3390.85L2879.4,3390.85C2837.29,3390.86 2785.96,3393.37 2745.35,3385.48L2745.35,3385.48C2661.64,3369.21 2621.2,3298.11 2586.59,3231.59L2532.74,3128.45L2330.23,2741.73C2330.23,2741.73 2265.48,2618.64 2265.48,2618.64C2252.37,2593.83 2238.64,2565.99 2223.09,2542.56L2222.93,2542.32C2208.43,2519.89 2200.72,2511.75 2183.09,2493.72C2123.63,2446.93 2089.6,2446.28 2016.05,2446.22L1747.67,2446.34L1747.65,2446.34C1709.63,2446.33 1671.34,2445.73 1633.27,2446.68C1632.73,2478.45 1633.21,2510.33 1633.22,2542.09C1633.22,2542.09 1633,2774.28 1633,2774.25C1633.11,2793.9 1632.55,2810.69 1635.88,2830.32C1652.46,2928.01 1722.51,2998.24 1815.66,3027.8L1815.67,3027.81C1834.32,3033.73 1862.96,3037.16 1884.43,3044.51C1901.57,3050.37 1915.64,3058.67 1925.33,3068.26L1933.23,3076.08L1937.07,3086.51C1939.25,3092.41 1942.1,3107.34 1943.18,3128.14C1945.98,3182.49 1943.94,3296.33 1943.8,3322.48L1943.71,3339.27L1933.51,3352.6C1924.3,3364.64 1919.87,3368.4 1908.19,3378.31L1895.06,3389.44L1877.86,3390.13C1805.12,3393.06 1717.15,3390.78 1642.8,3390.7L896.269,3390.7C839.024,3390.74 781.607,3391.43 724.427,3390.32L724.422,3390.32C700.996,3389.86 683.819,3381.39 671.05,3369.15C655.483,3354.22 645.593,3331.16 645.72,3302.05C645.869,3268.09 644.473,3249.48 645.459,3212.27C645.911,3195.17 643.313,3156.31 646.407,3125.89C648.485,3105.45 653.477,3087.76 660.082,3075.91L666.213,3064.92L676.819,3058.14C690.248,3049.55 708.831,3043.33 729.354,3039.07C747.221,3035.36 767.305,3033.52 781.699,3027.72L781.705,3027.72C825.044,3010.29 863.509,2989.58 894.747,2954.05C926.372,2917.65 946.796,2872.88 953.567,2825.03L953.58,2824.93C959.418,2784.79 956.28,2681.84 956.28,2635.89L956.29,2259.21L956.26,1654.88L956.18,1461.12C956.16,1421.93 956.411,1384.9 954.945,1345.42C950.275,1220.39 882.063,1136.76 769.121,1087.8L769.117,1087.8C754.515,1081.47 733.597,1076.98 715.541,1070.95C695.389,1064.22 677.876,1055.4 666.351,1045.27L658.978,1038.79L654.603,1030C652.16,1025.09 647.715,1009.42 646.502,986.408C643.823,935.57 645.708,823.552 645.773,800.801L645.812,787.172L652.762,775.447C664.642,755.407 676.011,745.265 688.757,738.629C700.511,732.509 714.719,729.043 736.887,729.233C840.162,730.118 943.418,729.892 1046.72,729.808L1822.66,729.734L2251.97,729.699C2335.24,729.702 2427.84,727.875 2510.08,732.373C2612.86,737.993 2737.74,761.877 2834.22,797.743C3035.12,872.426 3218.14,1030.12 3307.18,1227.04C3372.98,1372.56 3392.61,1521.88 3375.62,1680.5L3375.62,1680.5C3373.01,1704.78 3365.31,1757.59 3357.3,1783.15C3349.74,1820.75 3328.83,1879.37 3312.39,1913.48C3301.24,1938.41 3268.43,2001.18 3250.34,2025.1C3222.03,2071.18 3139.05,2168.7 3094.43,2200.5ZM3062.66,2161.66C3102.68,2135.86 3184.43,2038.48 3209.13,1996.61C3224.25,1979.53 3256.77,1915.61 3267.02,1892.44C3282.46,1860.64 3302.54,1804.55 3308.83,1770.46C3316.42,1749.82 3323.44,1698.1 3325.9,1675.17C3341.92,1525.64 3323.65,1384.83 3261.62,1247.64C3177.95,1062.59 3005.59,914.792 2816.8,844.609C2724.7,810.371 2605.46,787.663 2507.35,782.298C2425.98,777.848 2334.36,779.702 2251.97,779.699L1822.66,779.734L1046.74,779.808C943.302,779.892 839.89,780.118 736.458,779.231C713.95,779.038 706.897,782.179 695.773,800.944C695.693,828.958 692.72,994.366 699.366,1007.72C717.905,1024.02 762.797,1030.56 789.012,1041.93C920.898,1099.1 999.458,1197.55 1004.91,1343.56C1006.4,1383.67 1006.16,1421.28 1006.18,1461.1L1006.26,1654.87L1006.29,2259.21L1006.28,2635.89C1006.28,2683.59 1009.12,2790.46 1003.06,2832.13C994.943,2889.49 970.393,2943.27 932.377,2986.98C895.784,3028.64 851.179,3053.67 800.365,3074.11C772.42,3085.36 726.463,3085.74 703.754,3100.26C690.318,3124.36 696.06,3190.22 695.441,3213.59C694.468,3250.35 695.867,3268.73 695.72,3302.27C695.624,3324.15 703.932,3339.91 725.4,3340.33C782.246,3341.43 839.333,3340.74 896.249,3340.7L1642.83,3340.7C1716.53,3340.78 1803.74,3343.07 1875.85,3340.17C1884.07,3333.2 1887.32,3330.69 1893.8,3322.22C1893.97,3290 1897.16,3122.79 1890.16,3103.8C1873.1,3086.92 1826.75,3083.79 1800.53,3075.46C1689.23,3040.14 1606.4,2955.42 1586.58,2838.69C1582.76,2816.17 1583.13,2796.94 1583,2774.39L1583.22,2542.07C1583.21,2499.96 1582.4,2457.62 1584.14,2415.59C1584.68,2402.64 1593.77,2398.16 1605.58,2397.62C1652.73,2395.45 1700.4,2396.33 1747.66,2396.34L2016.06,2396.22C2104.52,2396.29 2144.31,2398.77 2216.63,2456.5C2238.76,2479.12 2247.53,2488.29 2264.91,2515.16C2281.19,2539.69 2295.84,2569.08 2309.71,2595.32L2374.5,2718.49L2577.05,3105.28L2630.93,3208.48C2658.81,3262.07 2687.45,3323.29 2754.89,3336.4C2792.59,3343.72 2840.28,3340.86 2879.39,3340.85L3070.63,3340.7L3277.25,3340.86C3313.08,3340.97 3349.2,3341.27 3384.8,3340.89C3400.25,3339.98 3423.8,3336.44 3424.13,3316.31C3425.21,3252.01 3425.27,3186.56 3424.79,3122.25C3424.63,3100.6 3405.52,3091.65 3387.4,3088.13C3276.27,3066.54 3187.18,3003.31 3112.75,2918.79C3036.91,2832.65 2989.36,2718.91 2935.09,2618.5C2931.51,2611.87 2925.79,2599.26 2921.58,2593.88C2917.31,2584.29 2910.13,2571.32 2905.13,2561.7L2829.7,2416.12C2821.13,2399.59 2787.94,2339.23 2785.43,2324.1C2791.43,2313.89 2843.04,2295.33 2858.25,2288.6C2920.31,2261.09 3012.78,2210.03 3061.4,2162.9L3062.66,2161.66Z" style="fill:white;"/>
        <g transform="matrix(0.855763,0,0,0.855763,291.604,215.818)">
            <path d="M1573.41,1232.61C1725.83,1104.09 1956.88,1127.33 2079.76,1285.07C2094.04,1303.41 2112.18,1309.43 2129.91,1291.37C2149.13,1273.86 2164.54,1253.39 2184.07,1236.27C2254.33,1175.14 2345.92,1144.3 2438.84,1150.49C2636.91,1163.35 2766.37,1321.45 2751.26,1517.5C2738.09,1688.33 2603.94,1806.91 2489.87,1920.51C2408.75,2002.83 2326.65,2084.2 2243.61,2164.59C2200.25,2206.39 2146.93,2252.08 2105.93,2294.23L2081.26,2270.73C2056.66,2246.89 2029.07,2218.95 2003.35,2196.92C1993.24,2186.43 1968.51,2163.31 1961.68,2153.96C1943.85,2138.67 1924.01,2117.57 1907.11,2100.59C1877.97,2071.48 1849.02,2042.17 1820.27,2012.66C1811.73,2005.73 1757.07,1949.45 1746.48,1938.15C1668.95,1855.38 1548.81,1746.33 1501.21,1645.58C1462.75,1565.8 1461.54,1492.33 1474.37,1407.47C1475.44,1405.25 1480.85,1384.76 1481.9,1381.08C1486.49,1364.88 1490.63,1353.13 1497.38,1337.81C1513.22,1298.22 1542.4,1261.41 1573.41,1232.61Z" style="fill:rgb(254,175,175);" data-color="color-2"/>
        </g>
    </g>
</svg>
