<svg width="100%" height="100%" viewBox="0 0 995 989" version="1.1" xmlns="http://www.w3.org/2000/svg" xmlns:xlink="http://www.w3.org/1999/xlink" xml:space="preserve" xmlns:serif="http://www.serif.com/" style="fill-rule:evenodd;clip-rule:evenodd;stroke-linejoin:round;stroke-miterlimit:2;">
    <g transform="matrix(1,0,0,1,-22.8479,-26.3298)">
        <path d="M315.555,294.926C304.986,247.939 298.735,200.006 301.026,151.722L302.411,122.528L331.632,123.151C360.416,123.765 391.556,127.617 418.933,138.989C446.923,95.054 494.434,49.269 498.85,45.251L519.641,26.33L539.872,45.848C543.906,49.74 593.015,96.678 621.04,139.517C648.184,128.289 679.014,123.925 707.344,122.867L737.209,121.752L738.438,151.613C740.438,200.238 734.23,248.136 723.592,295.228C750.412,281.715 778.253,271.181 810.283,263.364L833.194,257.772L844.037,278.714C858.496,306.641 867.072,336.78 867.839,367.699C913.785,374.161 953.687,393.663 994.047,420L1017.35,435.208L1003.94,459.589C985.951,492.266 959.35,534.666 929.766,564.345C948.757,593.931 960.968,630.681 969.82,662.32L978.269,692.52L947.724,699.623C892.871,712.379 808.075,725.544 740.164,719.53C751.135,756.152 754.579,788.732 753.761,836.17L753.247,865.943L723.471,865.652C672.349,865.151 621.171,848.199 574.399,825.576C577.13,850.888 583.708,876.331 591.962,898.601L601.901,925.418L575.59,936.627C550.145,947.467 524.806,958.553 499.601,969.868C490.592,974.421 477.18,980.085 467.976,984.163L398.061,1015.14L428.262,944.887C444.94,906.089 460.181,867.15 464.623,825.986C418.482,848.345 371.438,862.139 317.599,865.84L286.215,867.998L285.548,836.547C284.587,791.287 288.284,756.732 298.934,719.821C282.248,721.104 265.101,721.096 248.918,720.665C195.831,719.336 143.018,712.592 91.299,700.538L61.521,693.597L69.027,663.956C76.669,633.781 90.877,594.326 110.135,564.236C80.411,534.567 51.222,490.031 35.209,458.95L22.848,434.958L45.404,420.138C86.77,392.958 125.271,374.376 171.401,367.843C172.431,336.665 182.399,302.961 195.682,278.087L206.742,257.376L229.504,263.136C260.701,271.029 288.695,281.497 315.555,294.926ZM317.509,710.433L317.515,710.509C304.081,751.307 299.505,787.256 300.544,836.229L300.878,851.955L316.57,850.876C377.294,846.701 429.029,829.139 480.916,800.683C481.286,853.42 462.911,902.264 442.042,950.811L426.942,985.938L461.9,970.449C471.001,966.416 484.319,960.81 493.123,956.335C518.536,944.923 544.07,933.751 569.711,922.827L582.866,917.222L577.897,903.814C566.303,872.532 557.925,835.293 558.032,800.377C608.753,827.612 666.179,850.09 723.618,850.652L738.506,850.798L738.763,835.912C739.71,781.012 734.796,746.798 718.394,701.603C787.384,713.716 884.268,698.98 944.327,685.013L959.599,681.462L955.374,666.362C945.847,632.306 932.477,591.934 910.088,562.303C942.321,533.829 971.577,487.272 990.793,452.356L997.502,440.166L985.849,432.562C943.636,405.015 902.048,385.074 852.658,381.109C854.432,347.902 846.144,315.407 830.716,285.611L825.295,275.14L813.839,277.936C771.117,288.363 736.125,303.819 700.776,324.937C715.917,268.548 725.865,210.938 723.45,152.23L722.836,137.299L707.903,137.856C677.165,139.004 643.225,144.085 615.231,158.761C590.338,114.636 533.73,60.766 529.457,56.643L519.342,46.884L508.946,56.344C504.294,60.578 449.959,112.823 424.844,158.355C396.69,143.275 362.488,138.812 331.312,138.147L316.701,137.836L316.009,152.433C313.333,208.831 322.715,264.724 336.875,319.139C337.331,320.891 337.801,322.69 338.284,324.525C303.189,303.5 267.462,288.213 225.825,277.677L214.444,274.798L208.914,285.153C194.743,311.688 184.552,349.081 186.561,381.21C136.692,385.52 96.855,404.28 53.641,432.674L42.363,440.084L48.543,452.08C65.614,485.214 98.153,534.349 129.803,562.143C107.763,591.532 91.772,635.244 83.568,667.639L79.815,682.459L94.704,685.929C145.433,697.753 197.236,704.368 249.306,705.67C269.505,706.208 291.269,706.107 311.593,703.455L317.509,710.433L316.89,702.699C317.286,702.638 317.681,702.575 318.076,702.512L318.089,702.51C318.861,702.384 319.619,702.255 320.377,702.121C319.383,704.938 318.432,707.726 317.521,710.492L317.517,710.441L317.509,710.433ZM519.042,67.438C523.646,71.88 592.192,136.346 608.956,180.225C636.818,159.979 674.793,154.103 708.463,152.846C711.361,223.302 695.871,292.113 675.297,359.105C721.617,327.578 763.007,305.783 817.396,292.508C833.912,324.407 841.67,359.647 836.108,395.393C889.855,395.794 933.33,416.201 977.652,445.124C956.882,482.864 924.202,535.112 888.651,560.228C915.971,588.459 930.6,633.483 940.929,670.403C873.898,685.991 759.463,703.352 693.774,679.865C717.909,737.928 724.852,772.636 723.765,835.653C660.779,835.036 597.939,806.616 544.536,775.655C539.186,818.854 548.869,868.654 563.832,909.027C537.988,920.037 512.253,931.299 486.628,942.809C478.044,947.203 464.819,952.749 455.823,956.735C480.777,898.685 501.809,840.12 494.407,775.608C437.341,809.977 382.056,831.338 315.541,835.911C314.257,775.405 321.879,735.555 345.01,679.974C335.507,683.486 325.688,686.074 315.689,687.703C294.46,691.125 271.155,691.247 249.695,690.675C198.64,689.399 147.848,682.914 98.109,671.321C107.035,636.075 125.318,586.367 151.319,559.977C117.624,537.05 80.379,481.121 61.877,445.21C107.325,415.349 148.733,396.454 203.663,395.316C196.206,363.386 206.843,320.873 222.145,292.219C275.545,305.731 318.861,327.38 364.065,359.295C359.436,345.971 354.979,329.145 351.392,315.361C337.612,262.408 328.388,208.027 330.992,153.144C365.042,153.87 403.183,158.94 431.075,180.072C449.076,133.942 514.061,71.972 519.042,67.438Z" style="fill:rgb(254,254,254);"/>
        <path d="M529.457,56.643C533.73,60.766 590.338,114.636 615.231,158.761C643.225,144.085 677.165,139.004 707.903,137.856L722.836,137.299L723.45,152.23C725.865,210.938 715.917,268.548 700.776,324.937C736.125,303.819 771.117,288.363 813.839,277.936L825.295,275.14L830.716,285.611C846.144,315.407 854.432,347.902 852.658,381.109C902.048,385.074 943.636,405.015 985.849,432.562L997.502,440.166L990.793,452.356C971.577,487.272 942.321,533.829 910.088,562.303C932.477,591.934 945.847,632.306 955.374,666.362L959.599,681.462L944.327,685.013C884.268,698.98 787.384,713.716 718.394,701.603C734.796,746.798 739.71,781.012 738.763,835.912L738.506,850.798L723.618,850.652C666.179,850.09 608.753,827.612 558.032,800.377C557.925,835.293 566.303,872.532 577.897,903.814L582.866,917.222L569.711,922.827C544.07,933.751 518.536,944.923 493.123,956.335C484.319,960.81 471.001,966.416 461.9,970.449L426.942,985.938L442.042,950.811C462.911,902.264 481.286,853.42 480.916,800.683C429.029,829.139 377.294,846.701 316.57,850.876L300.878,851.955L300.544,836.229C299.435,783.929 304.728,746.482 320.377,702.121C319.619,702.255 318.861,702.384 318.089,702.51L318.076,702.512C295.953,706.078 271.67,706.266 249.306,705.67C197.236,704.368 145.433,697.753 94.704,685.929L79.815,682.459L83.568,667.639C91.772,635.244 107.763,591.532 129.803,562.143C98.153,534.349 65.614,485.214 48.543,452.08L42.363,440.084L53.641,432.674C96.855,404.28 136.692,385.52 186.561,381.21C184.552,349.081 194.743,311.688 208.914,285.153L214.444,274.798L225.825,277.677C267.462,288.213 303.189,303.5 338.284,324.525C337.801,322.69 337.331,320.891 336.875,319.139C322.715,264.724 313.333,208.831 316.009,152.433L316.701,137.836L331.312,138.147C362.488,138.812 396.69,143.275 424.844,158.355C449.959,112.823 504.294,60.578 508.946,56.344L519.342,46.884L529.457,56.643ZM519.042,67.438C514.061,71.972 449.076,133.942 431.075,180.072C403.183,158.94 365.042,153.87 330.992,153.144C328.388,208.027 337.612,262.408 351.392,315.361C354.979,329.145 359.436,345.971 364.065,359.295C318.861,327.38 275.545,305.731 222.145,292.219C206.843,320.873 196.206,363.386 203.663,395.316C148.733,396.454 107.325,415.349 61.877,445.21C80.379,481.121 117.624,537.05 151.319,559.977C125.318,586.367 107.035,636.075 98.109,671.321C147.848,682.914 198.64,689.399 249.695,690.675C271.155,691.247 294.46,691.125 315.689,687.703C325.688,686.074 335.507,683.486 345.01,679.974C321.879,735.555 314.257,775.405 315.541,835.911C382.056,831.338 437.341,809.977 494.407,775.608C501.809,840.12 480.777,898.685 455.823,956.735C464.819,952.749 478.044,947.203 486.628,942.809C512.253,931.299 537.988,920.037 563.832,909.027C548.869,868.654 539.186,818.854 544.536,775.655C597.939,806.616 660.779,835.036 723.765,835.653C724.852,772.636 717.909,737.928 693.774,679.865C759.463,703.352 873.898,685.991 940.929,670.403C930.6,633.483 915.971,588.459 888.651,560.228C924.202,535.112 956.882,482.864 977.652,445.124C933.33,416.201 889.855,395.794 836.108,395.393C841.67,359.647 833.912,324.407 817.396,292.508C763.007,305.783 721.617,327.578 675.297,359.105C695.871,292.113 711.361,223.302 708.463,152.846C674.793,154.103 636.818,159.979 608.956,180.225C592.192,136.346 523.646,71.88 519.042,67.438ZM373.915,383.887L462.536,383.945L462.524,430.009L446.971,430.024L464.811,526.009C468.664,508.893 474.026,489.954 478.557,472.838C486.359,443.121 494.441,413.479 502.801,383.915L536.691,383.924C537.847,389.157 540.109,396.512 541.572,401.824L551.085,436.427C559.19,466.061 567.012,495.773 574.549,525.557C581.219,494.808 587.046,461.105 593.086,430.027L577.609,429.988L577.645,383.927L666.371,383.933L666.381,430.021L648.17,430.019C642.72,459.858 636.195,490.323 630.169,520.105L607.708,632.46C589.746,632.209 571.349,632.424 553.354,632.438C551.249,619.684 544.508,597.349 540.978,584.213L519.622,503.334C514.326,524.034 509.74,544.616 504.243,565.461C498.611,586.819 491.148,611.138 486.699,632.433C468.61,632.234 450.187,632.427 432.071,632.44C419.285,565.176 403.803,497.192 391.733,429.996L373.892,429.996L373.915,383.887ZM275.299,427.757C307.501,441.224 336.399,470.28 360.274,494.894C361.997,496.67 364.87,500.138 366.852,501.386C376.206,507.276 388.211,510.025 397.582,516.045C400.95,531.71 403.973,548.027 407.024,563.79C399.449,559.667 391.943,555.42 384.509,551.05C379.559,553.027 372.43,556.878 367.521,559.403C356.161,565.318 344.831,571.293 333.533,577.326C308.019,590.753 283.279,602.951 257.748,615.938C259.24,612.283 260.842,608.864 262.507,605.285C277.534,576.422 297.32,554.173 324.73,536.683C280.327,528.521 244.882,513.663 205.463,491.335C237.386,483.203 277.825,484.904 309.418,493.345C292.745,475.176 278.575,452.572 275.299,427.757ZM763.498,427.977L764.012,428.746C763.901,431.147 762.935,435.197 762.255,437.647C756.275,459.203 744.608,476.327 730.154,492.741C770.367,484.258 794.512,483.629 834.598,491.458C794.19,513.492 760.212,529.134 714.354,536.061C740.207,551.343 761.745,577.449 776.475,603.346C778.807,607.495 780.589,611.879 782.473,616.249C758.998,603.683 734.222,592.838 710.768,579.818C692.918,569.909 673.765,559.922 655.355,551.095C648.244,554.681 639.907,559.616 632.835,563.547C636.073,547.661 638.752,531.441 642.156,515.614C649.785,511.902 665.791,504.929 672.335,501.238C674.632,499.943 691.685,482.076 694.865,478.932C717.969,456.086 734.985,442.902 763.498,427.977ZM519.442,161.775C520.328,163.889 522.402,176.949 522.797,179.563C530.007,227.25 533.669,279.346 534.422,327.574C552.875,304.486 573.686,283.586 601.034,271.206C578.706,298.707 554.91,339.532 542.128,372.487L519.875,372.442L495.726,372.465C489.855,345.468 455.276,293.287 438.61,271.094C465.633,282.993 486.178,303.718 504.517,326.233C505.446,313.651 505.319,298.023 505.852,285.092C506.739,261.976 508.477,238.9 511.062,215.912C512.814,199.575 515.606,177.724 519.442,161.775ZM504.388,640.147L534.868,640.084C539.197,648.455 548.408,660.412 554.283,667.719C573.471,691.507 594.588,713.671 617.419,733.987C609.722,731.824 602.493,730.105 594.841,727.549C572.738,720.165 554.785,710.312 535.558,697.509C532.353,722.674 531.177,738.414 523.703,763.623C522.486,767.887 520.761,772.557 519.303,776.784C511.335,752.546 504.972,722.41 503.334,696.867C483.959,711.1 465.511,720.886 442.461,728.273C435.71,730.437 428.899,732.052 422.089,734.099C428.215,727.745 436.348,720.822 442.83,714.347C465.748,691.452 487.627,668.017 504.388,640.147Z" style="fill:rgb(184,37,42);" data-color="color-1"/>
    </g>
</svg>
