<?xml version="1.0" encoding="UTF-8" standalone="no"?>
<!DOCTYPE svg PUBLIC "-//W3C//DTD SVG 1.1//EN" "http://www.w3.org/Graphics/SVG/1.1/DTD/svg11.dtd">
<svg width="100%" height="100%" viewBox="0 0 4096 4096" version="1.1" xmlns="http://www.w3.org/2000/svg" xmlns:xlink="http://www.w3.org/1999/xlink" xml:space="preserve" xmlns:serif="http://www.serif.com/" style="fill-rule:evenodd;clip-rule:evenodd;stroke-linejoin:round;stroke-miterlimit:2;">
    <path d="M1060.23,2748.1C1105.94,2691.94 1177.67,2643.66 1252.1,2627.65C1309.37,2615.33 1368.09,2621.73 1418.99,2655.69C1452.79,2678.24 1470.23,2716.69 1479.5,2756.85C1500.21,2741.17 1504.84,2722.85 1507.54,2701.83C1510.89,2675.78 1512.56,2646.94 1524.39,2615.08C1524.42,2614.99 1524.46,2614.89 1524.5,2614.8L1525.44,2612.32C1529.05,2602.91 1537.14,2595.94 1546.97,2593.76C1603.26,2581.29 1661.12,2574.23 1717,2561.77C1726.98,2559.55 1737.4,2562.55 1744.66,2569.75C1751.91,2576.95 1755.01,2587.35 1752.86,2597.34C1745.07,2633.68 1742.01,2666.14 1737.35,2702.74C1737.34,2702.83 1737.33,2702.92 1737.31,2703.01C1730.86,2750.27 1724.78,2797.58 1719.09,2844.93C1719.08,2844.97 1719.08,2845 1719.07,2845.04C1712.73,2896.19 1703.74,2946.77 1698.13,2998.2C1698.09,2998.6 1698.04,2999 1697.98,2999.39C1697.15,3004.95 1698.65,3016.18 1699.72,3022.97C1728.09,3009.87 1741.91,2982.07 1750.91,2952.07C1762.64,2912.95 1765.67,2869.34 1770.66,2836.42C1770.66,2836.38 1770.67,2836.35 1770.67,2836.31C1770.67,2836.31 1801.84,2635.38 1801.85,2635.33C1804.01,2620.89 1805.67,2601.42 1807.62,2588.13L1807.62,2588.12C1809.91,2572.44 1820.81,2558.25 1839.66,2549.14C1861.89,2538.38 1898.62,2534.52 1912.39,2532.5L1999.07,2519.39L1999.07,2519.39C2007.07,2517 2001.96,2516.1 2018.22,2520.58C2030.42,2523.94 2039.2,2534.59 2040.16,2547.21C2041.09,2559.3 2033.34,2589.23 2031.7,2602.91C2028.23,2631.97 2024.49,2661.03 2020.62,2690.08C2049.84,2627.24 2091.46,2570.72 2147.36,2526.67L2147.36,2526.67C2180.97,2500.19 2225.95,2478.5 2269.94,2473.39C2298.66,2470.05 2326.96,2473.4 2352.25,2485.95C2356.15,2474.22 2367.08,2465.76 2379.99,2465.45C2388.98,2465.23 2397.88,2464.14 2406.68,2462.29L2406.7,2462.29C2453.97,2452.36 2502.09,2445.72 2549.31,2435.73C2558.29,2433.83 2567.64,2436.14 2574.69,2442.01C2581.75,2447.87 2585.73,2456.64 2585.51,2465.81C2583.99,2528.72 2574.81,2580.35 2564.93,2642.34L2564.92,2642.38L2538.06,2809.55C2538.06,2809.57 2538.05,2809.58 2538.05,2809.6C2533.73,2836.19 2523.32,2885.65 2522.08,2915C2526.5,2911.19 2534.53,2904.03 2539.06,2898.52C2544.11,2892.37 2548.86,2886.08 2553.2,2880.59C2557.77,2874.81 2562.12,2868.61 2566.44,2862.49C2568.18,2847.86 2572.03,2825.95 2573.72,2814.93C2578.33,2784.52 2582.7,2754.07 2586.84,2723.59C2586.85,2723.54 2586.86,2723.49 2586.86,2723.44C2605.05,2594.12 2622.34,2464.68 2638.72,2335.12C2638.72,2335.08 2638.73,2335.04 2638.73,2335C2645.36,2284.17 2662.22,2176.3 2661.81,2130.69C2661.7,2117.91 2669.69,2106.46 2681.73,2102.16C2717.03,2089.57 2752.99,2086.91 2790.16,2081.39C2818.45,2077.2 2844.16,2072.62 2872.28,2067.19L2872.3,2067.19C2884.62,2064.68 2880.12,2064.7 2892.36,2067.46C2904.11,2070.11 2913.14,2079.52 2915.29,2091.37C2915.52,2092.63 2916.07,2096.71 2915.43,2103.03C2913.79,2119.43 2903.11,2188.74 2901.54,2199.56C2901.54,2199.57 2901.53,2199.59 2901.53,2199.6C2891.87,2265.53 2882.58,2331.51 2873.67,2397.55C2873.66,2397.63 2873.65,2397.71 2873.64,2397.79C2872.56,2405.3 2871.49,2412.82 2870.43,2420.33C2874.23,2416.17 2879.22,2413.07 2884.93,2411.58C2897.05,2408.39 2908.79,2406.25 2920.71,2404.39C2924.33,2385.38 2929.12,2365.62 2932.4,2347.42L2932.4,2347.42C2935.71,2329.07 2937.08,2302.11 2944.91,2281.08C2953.12,2258.98 2967.44,2242.29 2989.68,2235.47C3043.15,2219.06 3099.81,2214.03 3154.5,2203.01C3164.27,2201.04 3174.39,2204.06 3181.49,2211.06C3188.59,2218.07 3191.74,2228.14 3189.91,2237.94C3187.03,2253.31 3185.24,2279.27 3183.47,2296.01C3181.16,2318.75 3178.51,2341.45 3175.51,2364.11C3190.08,2362.36 3204.74,2360.91 3217.6,2359.48C3227.34,2358.4 3237.01,2362.15 3243.47,2369.53C3249.93,2376.9 3252.39,2386.97 3250.03,2396.49C3243.61,2422.53 3236.92,2444.19 3231.43,2471.01C3228.8,2483.83 3218.18,2493.46 3205.17,2494.83C3187.43,2496.68 3169.76,2499.2 3152.22,2502.37C3149.42,2524.15 3144.74,2550.47 3142.25,2567.19L3118.14,2737.57C3118.14,2737.64 3118.12,2737.71 3118.12,2737.77C3113.94,2765.93 3108.44,2794.04 3104.68,2822.36C3104.13,2826.54 3102.84,2829.7 3104.82,2831.41C3107.55,2833.78 3111.83,2833.27 3116.07,2833.05C3123.22,2832.66 3130.73,2830.63 3137.39,2827.6C3162.41,2816.19 3192.09,2779.45 3205.57,2755.83C3205.99,2754.18 3208.66,2743.64 3210.06,2735.67C3213.41,2716.67 3216.16,2694.11 3217.51,2684.92C3227.43,2615.73 3237.74,2546.61 3248.42,2477.55C3251.9,2453.72 3261.01,2380 3267.93,2361.99C3269.74,2357.28 3272.7,2353.1 3276.55,2349.85C3288.71,2339.55 3309.9,2330.75 3335.71,2324.65C3383.03,2313.46 3448.22,2309.2 3478.36,2302.6C3488.22,2300.45 3498.51,2303.39 3505.73,2310.45C3512.95,2317.5 3516.14,2327.72 3514.22,2337.63C3505.49,2382.6 3503.93,2428.79 3497.53,2474.1C3491.87,2514.12 3469.1,2632.35 3459.41,2713.55C3455.84,2743.44 3453.24,2767.45 3455.83,2777.86L3455.84,2777.88C3456.27,2779.62 3456.65,2781.68 3457.93,2782.89C3459.03,2782.77 3461.93,2782.41 3463.41,2781.89C3470.19,2779.55 3476.39,2773.49 3482.35,2766.78C3494.17,2753.45 3503.89,2736.34 3508.45,2723.4L3508.45,2723.39C3518.89,2693.84 3521.18,2650.32 3525.91,2618.34C3525.92,2618.3 3525.92,2618.27 3525.93,2618.24C3537.16,2544 3547.84,2469.69 3557.97,2395.27C3559.39,2384.48 3563.29,2349.05 3566.62,2331.59C3568.16,2323.51 3570.2,2317.67 3571.53,2315C3575.76,2306.53 3583.68,2300.64 3592.8,2298.91C3592.87,2298.87 3592.93,2298.84 3592.99,2298.8C3626.09,2279.2 3747.83,2261.57 3780.99,2257.36C3790.35,2256.17 3799.72,2259.45 3806.3,2266.22C3812.87,2272.99 3815.87,2282.46 3814.41,2291.78C3812.45,2304.19 3810.99,2317.2 3809.75,2329.71C3796.29,2468.33 3771.12,2605.09 3750.71,2742.76C3735.73,2843.79 3726.27,2961.8 3691.54,3063.97C3654.37,3173.34 3589.03,3264.95 3463.54,3305.06C3462.71,3305.32 3461.87,3305.55 3461.01,3305.74C3406.77,3317.98 3364.4,3319.22 3309.58,3296.66C3256.92,3275 3224.59,3219.89 3221.01,3164.29C3217.3,3106.7 3243.61,3050.16 3303.75,3028.65C3324.16,3021.35 3355.27,3016.9 3376.42,3027.53C3382.25,3030.46 3386.97,3035.22 3389.85,3041.07C3392.41,3046.26 3393.88,3052.57 3393.39,3059.8C3392.91,3066.78 3388.44,3077.05 3386.85,3082.9L3386.85,3082.91C3383.02,3097.04 3385.69,3114.45 3393.3,3126.94L3393.3,3126.94C3394.81,3129.41 3395.8,3132.94 3398.74,3133.56C3403.65,3134.58 3408.59,3133.61 3412.6,3130.63C3424.59,3121.75 3433.41,3100.82 3442.41,3075.8C3455.77,3038.64 3466.43,2992.5 3474.39,2950.29C3451.37,2971.59 3424.66,2988.23 3388.68,2995.22C3341.84,3004.32 3299.76,2998.77 3267.04,2979.68C3245.79,2967.29 3228.04,2949.19 3215.47,2924.86C3180.54,2959.34 3148.53,2986.8 3095.7,3008.76C3041.3,3031.37 2986.8,3042.86 2942.57,3026.72C2921.45,3019.01 2901.95,3005.43 2885.6,2983.45C2822.98,3051.11 2737.53,3103.86 2639.7,3064.83C2616.23,3055.47 2599.27,3038.68 2586.2,3018.82C2579.29,3027.8 2572.38,3036.8 2565.06,3045.43C2545.06,3069.02 2522.25,3089.99 2491.45,3103.5L2491.44,3103.5C2454.74,3119.58 2405.61,3118.62 2368.39,3104.14C2344.25,3094.76 2327.1,3079.09 2313.71,3060.08C2298.14,3078.51 2280.73,3095.64 2263.06,3111.16L2263.06,3111.16C2190.08,3175.27 2076.2,3176.78 2013.37,3096.12C1995.69,3073.43 1983.99,3047.95 1976.68,3021.05C1967.27,3094.95 1957.63,3168.75 1946.33,3242.4C1950.07,3232.45 1958.95,3224.95 1969.92,3223.29L2883.32,3084.67C2973.3,3070.66 3097.95,3058.16 3187.05,3042.75C3198.49,3040.77 3210.04,3045.57 3216.71,3055.07C3223.39,3064.57 3223.98,3077.06 3218.24,3087.15C3218.24,3087.15 3201.44,3116.74 3202.51,3151.29C3203.39,3179.39 3223.45,3211.16 3231.24,3223.63C3236.38,3231.89 3238.52,3237.54 3238.72,3238.3C3242.85,3254.14 3233.52,3270.35 3217.76,3274.76C3197.57,3280.4 3120.86,3286.16 3081.1,3292.14C2979.31,3308.16 2877.32,3322.99 2775.19,3336.62C2775.19,3336.62 1972.54,3454.23 1972.51,3454.23C1963.92,3455.81 1936.43,3461.48 1922.59,3461.24C1909.94,3461.01 1901.3,3456.28 1896.92,3452.48C1894.08,3450.01 1891.82,3447.13 1890.14,3444C1869.85,3489.25 1843.71,3531.29 1806.01,3569.52C1744.72,3632.21 1660.89,3667.8 1573.21,3668.36C1573.14,3668.36 1573.07,3668.36 1572.99,3668.36C1487.93,3668.28 1431.39,3629.66 1402.01,3576.61C1359.04,3499.03 1375.29,3386.58 1454.38,3310.77C1491.25,3275.43 1536.75,3254.15 1585.27,3241.75C1576.33,3241.91 1567.26,3241.33 1558.08,3239.94C1488,3229.36 1462.62,3169.09 1452.9,3107.76C1449.86,3088.57 1449.86,3068.92 1451.37,3049.23C1445.68,3064.93 1439.46,3079.35 1432.93,3091.42C1381.32,3197.25 1290.97,3278.86 1172.65,3299.02C1133.94,3305.62 1098.71,3301.38 1068.11,3288.88C1108.26,3323.61 1157.24,3341.48 1215.67,3322.2C1217.93,3320.6 1222.01,3317.9 1234.48,3317.2C1246.68,3316.51 1258.07,3323.28 1263.29,3334.33C1272.22,3353.22 1267.75,3379.84 1247.61,3406.28C1216.73,3446.81 1149.77,3491.48 1123.57,3499.91C1052.34,3522.82 994.419,3521.09 946.717,3503.35C876.013,3477.06 826.62,3414.4 790.778,3335.54C757.605,3262.56 735.905,3175.45 715.629,3096.14L705.211,3163.95C696.052,3225.34 686.369,3286.65 676.165,3347.87C674.147,3359.98 664.954,3369.64 652.958,3372.25C591.214,3385.7 527.435,3388.03 465.988,3403.56C456.489,3405.97 446.415,3403.58 439.005,3397.17C431.595,3390.76 427.782,3381.13 428.793,3371.39C434.509,3316.26 441.868,3261.64 450.254,3206.8C478.981,3018.94 505.326,2830.39 537.964,2643.19C542.682,2616.13 547.717,2588.05 553.545,2560.31C517.07,2582.17 486.625,2609.85 462.03,2649.39C443.268,2679.55 425.432,2728.23 428.103,2770.51C429.504,2792.7 436.804,2813.2 456.641,2824.96C464.41,2829.57 469.692,2837.43 471.019,2846.36C472.347,2855.29 469.579,2864.35 463.484,2871.01C433.757,2903.52 384.749,2926.58 337.374,2928.34C303.324,2929.61 270.293,2920.16 244.617,2897.52L244.612,2897.52C218.421,2874.42 199.068,2834.25 197.789,2799.1C193.499,2681.22 248.466,2585.33 332.666,2511.75C453.276,2406.35 634.783,2347.59 775.94,2334.96C834.112,2328.13 922.394,2333.59 977.33,2355.22C1056.48,2386.38 1092.92,2449.97 1102.24,2522.64C1110.83,2589.7 1095.33,2664.78 1070.4,2725.42C1067.21,2733.16 1063.82,2740.72 1060.23,2748.1ZM2878.11,2096.62C2849.49,2102.15 2823.34,2106.8 2794.56,2111.07C2759.36,2116.29 2725.24,2118.49 2691.81,2130.42C2692.23,2176.95 2675.24,2287.02 2668.48,2338.88C2652.08,2468.58 2634.78,2598.16 2616.57,2727.62C2612.41,2758.27 2608.01,2788.88 2603.38,2819.46C2601.37,2832.55 2595.93,2862.08 2595.56,2873.31C2589.39,2881.87 2583.26,2890.94 2576.74,2899.19C2554.46,2927.36 2521.86,2975.64 2492.1,2926.12C2490.69,2897.9 2503.34,2836.19 2508.44,2804.79L2535.3,2637.62C2544.96,2577.03 2554.03,2526.57 2555.52,2465.08C2508.28,2475.07 2460.15,2481.72 2412.86,2491.65C2402.26,2493.88 2391.54,2495.18 2380.71,2495.44C2379.84,2512.04 2378.38,2528.61 2376.34,2545.11C2323.39,2472.98 2224.92,2503.75 2165.93,2550.23C2066.74,2628.4 2016.07,2748.65 2000.68,2871.52C1991.93,2941.48 1991.95,3019.83 2037.03,3077.68C2088.91,3144.27 2183.01,3141.55 2243.26,3088.62C2271.03,3064.22 2298.29,3035.66 2317.45,3004.04C2330.7,3034.56 2346.15,3063.31 2379.26,3076.18C2409.55,3087.96 2449.53,3089.11 2479.4,3076.02C2532.14,3052.9 2556.55,3003.07 2591.99,2964.3C2604.05,2993.86 2619.34,3024.41 2650.81,3036.96C2751,3076.94 2834.55,3003.17 2890.75,2931C2928.84,3024.95 3006.28,3013.44 3084.18,2981.06C3149.3,2953.99 3180.31,2917.43 3228.43,2869.38C3243.22,2950.82 3305.4,2980.84 3382.96,2965.77C3449.3,2952.88 3477.21,2899.45 3519.61,2855.42C3511.34,2921.72 3481.45,3116.94 3430.47,3154.73C3419.49,3162.87 3406.01,3165.73 3392.58,3162.92C3381.53,3160.6 3373.34,3151.84 3367.68,3142.55C3356.02,3123.42 3352.02,3096.72 3357.9,3075.05C3359.4,3069.52 3365.27,3059.06 3362.94,3054.33C3348.64,3047.14 3327.66,3051.96 3313.85,3056.9C3220.89,3090.14 3236.68,3234.23 3320.99,3268.92C3369.28,3288.79 3406.63,3287.26 3454.41,3276.48C3684.98,3202.8 3691.57,2937.09 3721.03,2738.36C3741.37,2601.18 3766.48,2464.9 3779.89,2326.77C3781.19,2313.69 3782.73,2300.09 3784.77,2287.12C3753.68,2291.07 3639.18,2306.25 3608.25,2324.63C3607.45,2325.1 3605.7,2331.63 3605.28,2333.18L3603.28,2334.43L3600.81,2328.35L3598.38,2328.39C3594.88,2335.41 3589.41,2386.29 3587.7,2399.28C3577.55,2473.84 3566.85,2548.32 3555.59,2622.73C3550.6,2656.44 3547.74,2702.23 3536.74,2733.38C3527.41,2759.84 3500.76,2800.7 3473.24,2810.24C3463.98,2813.45 3452.76,2814.54 3443.9,2809.54C3434.95,2804.5 3429.14,2794.85 3426.72,2785.11C3416.63,2744.59 3459.72,2527.23 3467.82,2469.9C3474.3,2424.08 3475.94,2377.38 3484.77,2331.91C3441.86,2341.3 3327.68,2345.86 3295.94,2372.74C3289.4,2389.77 3281.36,2459.63 3278.09,2482C3267.41,2551.01 3257.11,2620.09 3247.2,2689.23C3244.92,2704.72 3238.61,2758.27 3232.26,2769.58C3216.57,2797.55 3179.9,2841.19 3149.83,2854.9C3116.37,2870.14 3068.45,2867.43 3074.94,2818.42C3078.72,2789.94 3084.24,2761.68 3088.44,2733.37L3112.56,2562.88C3115.96,2540 3123.82,2498.35 3124.47,2477.24C3150.09,2471.81 3175.99,2467.72 3202.04,2464.99C3207.62,2437.75 3214.38,2415.74 3220.91,2389.3C3196.08,2392.06 3164.27,2394.83 3140.17,2399.88C3145.51,2364.33 3150,2328.67 3153.63,2292.91C3155.48,2275.5 3157.42,2248.44 3160.42,2232.42C3106.7,2243.24 3051.01,2248.03 2998.48,2264.15C2965.95,2274.13 2967.01,2324.57 2961.92,2352.75C2957.39,2377.86 2949.88,2406.01 2946.81,2430.86C2928.18,2433.58 2910.82,2435.79 2892.55,2440.59C2890.28,2462.11 2887.78,2496.21 2883.09,2515.79C2901.06,2512.35 2918.98,2508.65 2936.84,2504.7C2929.87,2539.12 2925.92,2574 2920.14,2608.6C2907.06,2686.61 2900.01,2767.13 2882.27,2844.14C2880.84,2850.36 2861.12,2869.55 2855.96,2874.37C2748.95,2974.27 2789.89,2791.15 2796.01,2741.48C2798.28,2723 2801.79,2702.04 2804.34,2683.44C2816.93,2586.73 2830.13,2490.09 2843.94,2393.54C2852.86,2327.39 2862.17,2261.29 2871.85,2195.25C2873.57,2183.39 2886.42,2100.31 2885.77,2096.73C2881.11,2095.68 2882.85,2095.66 2878.11,2096.62ZM1641.56,3231.18C1666.3,3228.02 1691.26,3226.55 1715.76,3226.15C1718.75,3212.05 1721.15,3196.98 1723.33,3181.75C1698.69,3202.92 1671.19,3220.61 1641.56,3231.18ZM2855.46,2527.48C2848.15,2580.74 2841.03,2634.01 2834.09,2687.31C2834.08,2687.38 2834.07,2687.45 2834.06,2687.51C2831.53,2705.98 2828.04,2726.79 2825.79,2745.14L2825.78,2745.15C2823.39,2764.59 2815.46,2804.92 2813.61,2840.07C2813.14,2849.01 2814.1,2860.15 2815.03,2868.17C2820.88,2864.37 2828.6,2858.87 2835.48,2852.44C2838.39,2849.73 2850.42,2836.77 2854.08,2832.82C2870.92,2757.79 2877.83,2679.51 2890.55,2603.66C2893.91,2583.52 2896.67,2563.29 2899.75,2543.11C2896.08,2543.84 2892.41,2544.55 2888.73,2545.26C2878.72,2547.17 2868.43,2543.88 2861.39,2536.51C2858.85,2533.85 2856.86,2530.78 2855.46,2527.48ZM2005.38,2548.78L1916.81,2562.17C1899.57,2564.71 1840.7,2569.21 1837.3,2592.46C1835.35,2605.82 1833.67,2625.41 1831.5,2639.89L1800.32,2840.91C1789.99,2909.13 1786.88,3021.48 1706.2,3052.79C1669.44,3067.05 1664.7,3019.05 1668.31,2994.95C1673.93,2943.37 1682.94,2892.65 1689.3,2841.35C1695.01,2793.84 1701.11,2746.37 1707.59,2698.95C1712.36,2661.48 1715.55,2628.26 1723.53,2591.05C1667.64,2603.51 1609.76,2610.58 1553.46,2623.05L1552.51,2625.53C1525.21,2699.03 1558.67,2755.58 1471.34,2796.28C1466.53,2798.51 1461.69,2800.68 1456.83,2802.79C1451.66,2757.67 1440.85,2706.34 1402.34,2680.65C1292.66,2607.46 1140.32,2685.93 1072.78,2781.12C1003.92,2878.16 965.262,2987.17 974.63,3105.26C985.688,3206.72 1060.29,3287.74 1167.61,3269.45C1276.42,3250.91 1358.93,3175.1 1406.25,3077.69C1430.63,3033 1450.17,2953 1452.84,2901.19C1472.28,2892.57 1488.75,2885.32 1507.49,2875.06C1501.8,2909.55 1496.33,2944.08 1491.1,2978.64C1484.97,3019.25 1476.06,3062.25 1482.53,3103.06C1490.23,3151.64 1507.05,3201.9 1562.56,3210.28C1649.93,3223.47 1723.54,3150.47 1769.68,3085.52C1756.64,3128.57 1754.29,3204.1 1739.24,3256.07C1647.52,3255.21 1544.51,3265.93 1475.14,3332.43C1361.11,3441.72 1393.68,3638.19 1573.02,3638.36C1652.7,3637.85 1728.87,3605.51 1784.57,3548.54C1849.16,3483.05 1877.19,3405.48 1902.15,3319.74C1910.59,3319.34 1916.88,3320.08 1923.63,3315.45C1924.58,3314.49 1924.81,3313.34 1923.99,3311.91C1918.76,3305.57 1914.5,3305.11 1906.33,3302.3C1928.95,3167.99 1944.64,3033.09 1962.12,2898C1974.99,2798.56 1990.02,2698.97 2001.91,2599.34C2003.38,2587.07 2011.08,2560.34 2010.25,2549.5C2006.15,2548.37 2007.78,2548.14 2005.38,2548.78ZM1214.22,3323.2C1211.72,3324.68 1210.6,3326.07 1210.6,3326.07C1210.6,3326.07 1212.67,3324.31 1214.22,3323.2ZM779.031,2364.8C552.817,2384.91 217.916,2527.24 227.769,2798.01C228.77,2825.52 243.957,2856.94 264.456,2875.02C314.039,2918.73 400.086,2895.89 441.345,2850.77C369.164,2807.99 400.741,2691.11 436.557,2633.54C476.279,2569.69 529.514,2533.51 597.688,2504.95C584.891,2550.93 575.736,2601.21 567.518,2648.34C534.916,2835.34 508.605,3023.68 479.909,3211.33C471.597,3265.69 464.299,3319.84 458.633,3374.48C520.402,3358.86 584.505,3356.46 646.573,3342.94C656.753,3281.86 666.412,3220.7 675.549,3159.46L694.709,3034.76C698.617,3008.53 704.114,2976.79 704.684,2950.8C777.471,3147.76 797.745,3573.2 1114.38,3471.35C1147.49,3460.7 1253.46,3383.73 1236.17,3347.15C1228.91,3347.56 1232.67,3348.07 1228.27,3349.6C1056.35,3409.46 950.66,3205.11 909.656,3070.66C892.019,3012.83 876.071,2956.77 844.738,2905.49C937.217,2868.41 1005.39,2804.64 1042.65,2714.01C1088.79,2601.81 1101.49,2436.35 966.339,2383.13C915.238,2363.01 832.998,2358.39 779.031,2364.8ZM943.294,3077.47C941.925,2988.45 965.942,2904.47 1008.66,2826.8C975.613,2865.19 934.691,2896.14 886.776,2919.62C909.249,2964.68 923.324,3012.64 938.351,3061.91C939.903,3067 941.551,3072.19 943.294,3077.47ZM3192.16,3072.31C3102.89,3087.75 2978.01,3100.29 2887.87,3114.32L1974.42,3252.95L1974.28,3256.05C1973.92,3263.21 1967.8,3283.02 1959.65,3308.9C1959.33,3309.91 1967.18,3312.36 1969.99,3313.9C1970.72,3314.3 1970.12,3315.57 1970.03,3315.83C1969.48,3317.59 1956.31,3320.27 1955.74,3322.05C1940.39,3369.81 1920.89,3424.67 1916.59,3429.83C1921.99,3434.52 1958.84,3426.21 1967.68,3424.62L2771.03,3306.91C2873.03,3293.3 2974.88,3278.49 3076.54,3262.49C3115.22,3256.66 3190.01,3251.36 3209.69,3245.86C3209.24,3244.13 3173.84,3194.37 3172.53,3152.22C3171.19,3109.16 3192.16,3072.31 3192.16,3072.31ZM3193.15,2230.7C3192.84,2229.65 3187.04,2210.51 3181.41,2198.33C3180.85,2197.12 3180.13,2195.74 3179.37,2194.35C3143.98,2199.13 3072.46,2215.58 3051.91,2219.37C3027.87,2223.97 3005.13,2232.13 2980.75,2233.39C2964.28,2234.24 2950.22,2221.65 2949.25,2205.19C2946.94,2165.94 2950.02,2124.97 2946.6,2087.77C2945.1,2071.51 2956.88,2057.04 2973.11,2055.21C3076,2043.6 3185.82,2022.49 3288.26,2006.18C3398.9,1988.56 3510.43,1973.43 3620.85,1955.07C3621.16,1955.01 3621.48,1954.97 3621.8,1954.92C3639.12,1952.61 3647.56,1956.77 3663.93,1964.17C3675.35,1969.34 3682.36,1981.06 3681.5,1993.56C3678.72,2034.12 3657.47,2122.79 3649.28,2168.17C3647.15,2179.99 3638.18,2189.4 3626.48,2192.09C3608.51,2196.22 3585.41,2200.03 3567.01,2201.87L3567.01,2201.87C3450.09,2213.6 3342.49,2242.63 3226.16,2255.82C3218.02,2256.74 3209.86,2254.29 3203.57,2249.05C3197.97,2244.38 3194.28,2237.85 3193.15,2230.7ZM3625.77,1984.66C3515.29,2003.04 3403.69,2018.18 3292.98,2035.81C3190.1,2052.19 3079.8,2073.36 2976.47,2085.02C2979.92,2122.54 2976.87,2163.85 2979.2,2203.43C3002.24,2202.24 3023.67,2194.22 3046.4,2189.88C3071.12,2185.34 3169,2163.12 3193.85,2163.04C3208.1,2174.61 3222.5,2221.86 3222.78,2226.01C3339.24,2212.81 3446.96,2183.76 3564.02,2172.02C3581.26,2170.29 3602.92,2166.72 3619.76,2162.85C3627.79,2118.31 3648.84,2031.32 3651.57,1991.51C3641.44,1986.93 3636.49,1983.23 3625.77,1984.66ZM1486.9,1417.11C1491.43,1405.65 1497.74,1394.85 1505.7,1385.13C1521.31,1365.9 1539.97,1352.96 1561.01,1344.85C1558.35,1341.99 1556.25,1338.62 1554.86,1334.92C1551.13,1324.94 1540.71,1292.47 1542.63,1275.75C1542.81,1274.16 1543.06,1272.63 1543.38,1271.16C1541.11,1269.35 1539.06,1267.17 1537.34,1264.65C1524.63,1246.09 1507.2,1204.32 1497.51,1182.48C1483.48,1150.87 1471.56,1128.23 1453.41,1098.73C1453.22,1098.42 1453.03,1098.11 1452.85,1097.79C1415.35,1031.54 1363.75,957.187 1316.43,897.732L1316.43,897.73C1291.65,866.598 1266.3,838.683 1241.3,807.661C1228.3,811.492 1215.43,812.951 1200,810.877C1176.25,807.84 1154.84,794.996 1141,775.463C1140.98,775.438 1140.96,775.414 1140.94,775.389C1127.41,756.18 1122.07,732.384 1126.08,709.237L1126.09,709.199C1135.13,657.326 1195.25,620.339 1245.04,632.94C1245.13,632.963 1245.23,632.987 1245.32,633.012C1268.27,639.054 1287.62,654.47 1298.58,675.394C1309.45,695.807 1311.04,715.875 1308.24,736.257C1334.32,745.506 1359.76,758.744 1384.93,769.704L1384.93,769.705C1434.07,791.104 1482.41,811.357 1534.12,822.835C1528.18,784.593 1517.1,731.954 1512.98,710.722C1512.96,710.652 1512.95,710.581 1512.94,710.511C1503.69,660.943 1495.48,611.189 1488.29,561.282C1486.9,551.769 1483.47,527.027 1481.03,510.397C1474.29,508.051 1465.84,504.874 1459.02,501.538C1437.56,491.049 1417.03,473.698 1409.33,445.527L1409.33,445.525C1392.81,385.051 1427.25,330.865 1486.88,317.912C1511.78,312.341 1537.88,317.446 1558.74,331.928C1581.39,347.401 1596.51,371.641 1600.47,398.779C1600.47,398.817 1600.48,398.856 1600.48,398.894C1604.46,426.914 1596.96,450.594 1583.95,472.38C1604.62,494.09 1624.58,522.619 1643.55,541.751C1698.32,596.975 1750.46,656.306 1810.25,706.243C1833.5,643.171 1854.33,579.233 1872.71,514.566L1872.72,514.533C1872.72,514.533 1897.29,428.477 1897.29,428.477C1901.83,412.389 1904.66,398.008 1910.53,384.842C1909.95,384.384 1909.42,383.953 1908.98,383.559C1869.34,348.701 1863.07,309.789 1874.98,279.251C1886.43,249.872 1917.29,225.047 1962.95,218.953C1965.28,218.642 1967.64,218.606 1969.97,218.845C2005.29,222.459 2035.89,234.818 2050.85,270.835C2058.81,290.014 2057.51,314.139 2052.21,334.383C2046.98,354.366 2038.12,370.104 2035.27,373.649C2033.3,376.112 2030.2,379.406 2026.55,382.922C2041.49,418.033 2049.39,464.772 2058.98,498.979C2076.78,562.467 2112.85,663.464 2151.57,727.315C2173.53,711.426 2196.25,689.141 2213.17,673.014C2252.84,634.503 2292,595.476 2330.63,555.941C2330.68,555.898 2330.72,555.856 2330.76,555.813C2345.26,541.15 2361.4,524.198 2377.18,508.905C2365.35,485.452 2360.69,461.701 2366.33,440.365C2371.74,419.949 2385.92,400.003 2415.67,384.388L2415.67,384.385C2434.6,374.456 2467.19,375.741 2486.65,384.5L2486.65,384.501C2527.64,402.963 2546.03,438.323 2544.62,471.59C2543.2,505.108 2521.85,538.715 2477.61,552.772C2471.4,554.748 2464.39,555.409 2457.48,555.333C2450.26,589.997 2435.82,630.184 2427.1,659.238L2391.12,781.807C2391.09,781.898 2391.06,781.989 2391.03,782.08C2375.9,831.87 2362.47,875.171 2350.79,925.767C2344.95,951.092 2340.55,1019.93 2334,1066.41C2330.4,1091.96 2325.14,1111.96 2320.27,1120.33C2318.4,1123.56 2315.95,1126.38 2313.07,1128.68C2316.16,1131.8 2318.54,1135.5 2320.3,1139.66C2322.54,1144.97 2322.78,1156.67 2322.79,1161.31C2324.54,1190.44 2305.77,1252.91 2285.78,1275.05C2279.38,1282.14 2270,1285.76 2260.5,1284.8C2237.3,1282.46 2220.69,1284.59 2198.73,1283.78C2160.95,1282.38 2126.26,1279.93 2088.31,1281.97C2087.87,1281.99 2087.43,1282 2086.99,1282.01C2047.44,1282.39 2006.29,1292.84 1967.85,1296.21C1913.5,1300.99 1871.15,1307.17 1820.01,1327.36C1791.12,1338.76 1772.93,1346.69 1746.18,1363.44C1730.54,1375.37 1719.51,1381.16 1710.44,1383.52C1711.67,1385.48 1712.49,1386.93 1712.89,1387.7C1717.38,1396.23 1729.96,1426.49 1724.85,1452.36C1720.24,1475.73 1701.04,1509.25 1669.62,1534.27C1675.63,1533.83 1681.03,1533.61 1685.65,1533.64C1693.94,1533.7 1701.84,1537.18 1707.46,1543.27C1713.09,1549.36 1715.95,1557.5 1715.37,1565.77C1705.46,1705.08 1679.61,1844.65 1663.33,1983.31L1663.32,1983.32C1662.77,1988 1663.75,1999.15 1664.22,2004.01C1692.44,2011.55 1708.54,1988.38 1721.84,1964.88C1721.16,1809.21 1755.34,1654.23 1869.13,1540.83C1923.03,1487.12 1993.44,1438.99 2073.2,1437.66L2073.21,1437.66C2100.29,1437.22 2121.09,1443.02 2139.74,1453.88C2143.62,1446.68 2150.34,1441.27 2158.46,1439.12C2193.28,1429.9 2230.9,1423.14 2266.53,1417.95C2291.6,1414.3 2316.56,1413.23 2341.26,1407.25C2350.59,1404.99 2360.44,1407.34 2367.75,1413.55C2375.06,1419.77 2378.96,1429.11 2378.23,1438.68C2369.31,1556.43 2344.6,1674.36 2326.68,1791.11C2321.58,1824.39 2309.43,1872.46 2310.15,1904.88L2310.15,1904.89C2310.27,1910.04 2312.16,1915.76 2315.38,1920.07C2316.74,1919.26 2318.25,1918.3 2319.38,1917.44C2325.9,1912.43 2332.65,1905.49 2339.31,1897.69C2360.6,1872.8 2380.9,1839.4 2385.34,1823.48C2393.61,1793.79 2394.81,1758.86 2399.09,1727.99C2403.07,1699.32 2426,1532.32 2442.94,1459.79C2446.42,1444.88 2449.88,1433.41 2452.78,1426.76C2456.28,1418.75 2460.54,1413.88 2463.62,1411.22L2463.62,1411.21C2471.03,1404.81 2491.43,1396.15 2518.3,1389.49C2568.16,1377.14 2643.26,1366.21 2664.6,1365.17C2672.91,1364.76 2681.01,1367.82 2686.98,1373.62C2688.41,1375.02 2689.69,1376.54 2690.8,1378.16C2707.84,1363.25 2726.79,1350.43 2749.63,1339.78C2780.57,1325.35 2819.39,1315.57 2855.85,1317.35C2896.94,1319.36 2934.98,1335.53 2959.5,1372.43C2960.21,1373.5 2960.9,1374.56 2961.56,1375.6C2996.42,1329.77 3035.2,1289.83 3093.29,1275.19C3136.48,1264.3 3189.07,1267.72 3228.4,1290.52L3228.4,1290.52C3268.72,1313.9 3288.74,1355.28 3295.29,1403.85C3303.54,1465.08 3289.91,1538.2 3281.82,1587.19L3281.82,1587.2L3261.2,1711.73C3261.19,1711.79 3261.18,1711.85 3261.17,1711.9C3259.78,1719.98 3254.27,1739.15 3252.47,1758.25C3251.92,1764.05 3252.76,1772.73 3253.24,1776.99C3254.78,1776.87 3256.71,1776.65 3258.46,1776.3C3259.85,1775.14 3271.33,1765.53 3277.93,1757.53C3293.16,1739.09 3307.8,1715.28 3311.45,1702.96L3311.45,1702.95C3318.18,1680.32 3323.92,1620.82 3327.68,1593.88C3338.48,1512.41 3350.66,1431.13 3364.21,1350.03C3365.65,1341.23 3370.42,1308.37 3374.33,1293.76C3377.62,1281.47 3383.74,1274.46 3386.49,1272.12C3386.5,1272.11 3386.52,1272.1 3386.53,1272.09C3398.3,1262.14 3419.64,1252.71 3445.48,1245.57C3445.77,1245.49 3446.06,1245.41 3446.35,1245.33C3440.2,1242.78 3434.24,1239.49 3428.55,1235.29C3358.41,1183.61 3378.57,1075.84 3442.98,1029.99L3442.99,1029.98C3467.12,1012.82 3482.12,1006.58 3510.26,1001C3511.72,1000.7 3513.2,1000.52 3514.7,1000.45C3542.56,999.148 3577.48,1004.04 3602.99,1018.63C3624.65,1031.02 3640.26,1049.75 3644.79,1075.69C3656.33,1141.72 3629.78,1191.02 3585.42,1221.83C3586.71,1221.7 3587.91,1221.57 3589.03,1221.46C3597.93,1220.57 3606.76,1223.69 3613.12,1229.98C3616.33,1233.15 3620.9,1239.02 3622.78,1249.13C3624.24,1257 3624.29,1275.24 3622.35,1300.39C3614.03,1408.06 3575.43,1663.75 3568.34,1698.11C3565.41,1712.33 3567.74,1727.63 3568.17,1730.2C3568.61,1730.25 3569.19,1730.3 3569.59,1730.29C3571.66,1730.24 3573.84,1729.76 3576.09,1729.06C3588.07,1725.3 3600.65,1715.49 3610.83,1702.14L3610.84,1702.13C3614.12,1697.82 3615.89,1689.36 3619.5,1682.04C3625.01,1670.88 3632.49,1661.17 3641.95,1654.97C3650.82,1649.16 3662.09,1648.46 3671.61,1653.12C3684.21,1659.3 3695.01,1674.38 3697.24,1696.55C3700.03,1724.25 3690.45,1765.64 3685.14,1776.41C3681.11,1784.59 3656.7,1829.17 3620.04,1868.96C3593.87,1897.37 3561.47,1922.91 3526.35,1933.79C3471.58,1950.78 3417.37,1954.42 3376.16,1932.83C3359.02,1923.86 3343.62,1910.71 3331.14,1892.08C3273.29,1956.1 3184.82,2007.07 3098.24,1987.58C3029.42,1972.08 3003.1,1924.15 2997.21,1866.96C2992.34,1819.71 3003.03,1765.45 3010.38,1724.77C3019.42,1674.62 3028.33,1617.83 3034.22,1566.62C3035.53,1554.11 3032.5,1535.46 3031.27,1528.7C3027.65,1529.97 3021.3,1532.42 3016.22,1535.65C3011.04,1538.94 3004.44,1547.1 2998.34,1555.54C2992.55,1563.55 2986.91,1571.81 2985.73,1577.68L2985.73,1577.69C2977.19,1619.97 2971.26,1665.38 2965.17,1708.51L2924.6,1998.67C2922.65,2012.61 2911.28,2023.32 2897.25,2024.43C2844.31,2028.6 2750.55,2042.12 2698.77,2053.53C2688.91,2055.7 2678.61,2052.76 2671.38,2045.71C2664.14,2038.65 2660.95,2028.43 2662.87,2018.52C2666.25,2001.11 2668.29,1972.06 2670.63,1953.39C2670.64,1953.31 2670.65,1953.23 2670.66,1953.15C2675.31,1918.29 2680.39,1883.48 2685.89,1848.73L2708.43,1703.79C2713.85,1668.98 2717.9,1637.25 2722.01,1599.57L2722.01,1599.56C2723.25,1588.18 2723.19,1576.86 2720.98,1567.22C2719.91,1562.55 2719.1,1558.09 2715.94,1555.84C2714.74,1554.98 2713.11,1555.5 2711.17,1555.8C2706.76,1556.5 2701.85,1558.31 2696.28,1561.07C2689.36,1566.13 2686.05,1576.32 2682.73,1586.43C2677.47,1602.46 2674.67,1619.8 2672.69,1632.28C2658.37,1722.6 2645.51,1812.39 2629.25,1902.34L2629.25,1902.34C2620.95,1948.25 2618.43,1995.16 2608.98,2040.94C2606.61,2052.44 2597.74,2061.5 2586.3,2064.12C2527.19,2077.67 2449.8,2087.2 2388.31,2096.37C2378.53,2097.83 2368.66,2094.38 2361.93,2087.15C2357.25,2082.13 2354.5,2075.73 2353.97,2069.06C2341.06,2080.57 2326.83,2091.29 2310.4,2101.51L2310.4,2101.51C2255.89,2135.39 2183.74,2145.9 2127.43,2108.62L2127.43,2108.62C2113.64,2099.5 2102.77,2088.35 2093.26,2076.06C2062.08,2114.46 2021.61,2150.19 1977.67,2167.3L1977.66,2167.31C1899.69,2197.66 1812.48,2173.83 1765.01,2108.62C1746.29,2131.57 1725.82,2153.85 1703.73,2171.24C1663.31,2203.04 1598.39,2231.07 1539.93,2230.28C1495.86,2229.68 1455.33,2213.62 1427.88,2174.98L1427.87,2174.97C1387.21,2117.73 1397.18,2038.47 1407.78,1973.54C1407.85,1973.14 1407.92,1972.76 1408,1972.37C1432.22,1853.74 1447.74,1722.63 1466.07,1602.59C1467.3,1594.57 1471.73,1587.38 1478.34,1582.67C1485.64,1577.48 1502.47,1566.55 1510.16,1564.14C1517.33,1561.9 1526.29,1559.48 1536.39,1557.01C1526.75,1553.11 1518.09,1547.88 1510.59,1541.21C1495.03,1527.38 1483.48,1507.21 1479.59,1477.66C1479.44,1476.57 1479.31,1475.48 1479.19,1474.39C1444.22,1729.79 1378.64,2160.56 1372.68,2223.86C1371.41,2237.29 1361.33,2248.23 1348.04,2250.58C1279.07,2262.78 1211.43,2277.65 1142.27,2289.76C1132.47,2291.47 1122.47,2288.23 1115.55,2281.09C1108.63,2273.95 1105.7,2263.85 1107.72,2254.12C1111.53,2235.72 1114.5,2206.62 1117.03,2187.66C1121.72,2152.27 1126.78,2116.95 1132.2,2081.67C1141.31,2018.18 1150.68,1954.74 1160.33,1891.33L997.581,2276.84C993.139,2287.36 983.109,2294.45 971.709,2295.12C934.458,2297.32 888.147,2295.6 850.74,2294.59C842.624,2294.37 834.944,2290.87 829.453,2284.89C823.962,2278.91 821.13,2270.96 821.602,2262.86C826.444,2179.73 824.828,2101.7 822.937,2018.93C822.937,2018.93 819.632,1902.51 819.631,1902.52C804.283,1967.01 787.361,2035.76 769.019,2099.99C739.252,2204.23 705.065,2296.73 668.753,2343.82C663.919,2350.09 656.803,2354.19 648.956,2355.24C582.181,2364.13 527.71,2377.35 459.096,2377.97C447.2,2378.08 436.364,2371.14 431.475,2360.3C426.585,2349.45 428.567,2336.74 436.525,2327.9C445.681,2317.73 450.134,2311.41 457.876,2300.15C530.819,2186.89 581.649,2047.16 624.638,1920.21C624.66,1920.14 624.683,1920.08 624.706,1920.01C629.852,1905.16 634.928,1890.28 639.936,1875.38C611.616,1899.46 573.667,1913.06 537.287,1915.72C438.773,1922.95 387.99,1847.64 385.239,1759.77C382.07,1658.58 429.759,1569.05 497.877,1497.09C497.901,1497.06 497.925,1497.04 497.949,1497.01C627.762,1360.83 840.714,1307.98 1022.85,1303.98C1038.98,1303.62 1052.51,1316.09 1053.46,1332.2C1059.42,1433.09 1063.22,1526.26 1065.16,1627.16C1065.35,1636.82 1065.21,1650.32 1065.01,1665.81C1076.39,1638.25 1088.21,1611.28 1099.58,1585.63L1099.58,1585.62C1141.42,1491.23 1186.44,1399.71 1227.29,1304.72C1231.77,1294.3 1241.74,1287.3 1253.05,1286.62C1278.44,1285.1 1311.45,1277.16 1337.52,1272.32L1337.56,1272.32C1376.37,1265.16 1415.32,1258.78 1454.37,1253.2C1464.15,1251.1 1464.66,1250.82 1474.97,1252.29C1486.08,1253.87 1495.37,1261.52 1499.07,1272.11C1499.94,1274.61 1501.32,1280.38 1501.09,1289.36C1500.73,1303.49 1497.13,1337.19 1491.19,1383.96C1489.87,1394.37 1488.44,1405.45 1486.9,1417.11ZM1575.79,1272.21C1566,1278.61 1579.37,1314.81 1582.96,1324.4C1593.71,1331.4 1609.09,1325.1 1621.93,1326.89C1636.14,1328.86 1654.89,1332.04 1667.45,1339.17C1700.56,1357.97 1698.47,1362.35 1729.03,1338.78C1758.25,1320.38 1777.73,1311.79 1808.99,1299.45C1863.05,1278.11 1907.77,1271.38 1965.22,1266.33C2004.41,1262.89 2046.38,1252.4 2086.7,1252.01C2125.59,1249.92 2161.13,1252.37 2199.84,1253.8C2222.48,1254.64 2239.59,1252.54 2263.51,1254.95C2279.75,1236.96 2294.62,1185.71 2292.81,1162.67C2292.57,1159.54 2295.2,1150.93 2290.28,1148.92C2253.49,1133.89 2087.4,1105.02 1926.31,1132.96C1771.55,1159.8 1621.82,1242.58 1575.79,1272.21ZM660.536,1812.75C666.797,1793.29 672.942,1773.79 678.969,1754.25C705.319,1666.5 723.05,1599.64 750.752,1522.12C716.911,1540.48 688.772,1563.82 662.387,1601.4C639.963,1633.34 621.569,1690.4 624.243,1740.17C625.733,1767.89 633.442,1793.7 655.018,1808.03C657.059,1809.39 658.908,1810.98 660.536,1812.75ZM3592.03,1251.31C3557.63,1254.77 3437.34,1268.41 3405.9,1295C3402.01,1298.3 3395.49,1344.66 3393.8,1354.96C3380.3,1435.74 3368.17,1516.74 3357.41,1597.93C3353.49,1625.9 3347.22,1687.91 3340.21,1711.5C3332.98,1735.85 3291.3,1799.16 3266.46,1805.24C3198.06,1822 3227.97,1727.98 3231.6,1706.83L3252.22,1582.3C3265.06,1504.59 3293.97,1363.22 3213.35,1316.47C3180.56,1297.46 3136.64,1295.2 3100.62,1304.28C3049.36,1317.2 3016,1353.55 2985.25,1394.01C2975.06,1407.42 2962.25,1422.94 2953.89,1437.32C2948.61,1418.05 2945.77,1405.97 2934.51,1389.03C2896.78,1332.24 2815.98,1341.94 2762.31,1366.97C2719.31,1387.02 2691.94,1415.93 2663.18,1452.45C2664.18,1433.83 2665.67,1413.65 2666.06,1395.13C2636.77,1396.56 2502.11,1417.6 2483.24,1433.91C2467.88,1447.19 2433.73,1696.63 2428.81,1732.11C2424.35,1764.26 2422.85,1800.61 2414.24,1831.53C2405.75,1861.99 2348.65,1949.44 2315.43,1951.65C2308.72,1952.1 2302.72,1949.63 2297.79,1945.14C2287.24,1935.54 2280.47,1919.65 2280.16,1905.55C2279.4,1871.66 2291.69,1821.35 2297.03,1786.56C2314.83,1670.56 2339.45,1553.4 2348.32,1436.41C2322.71,1442.61 2296.85,1443.85 2270.86,1447.64C2236.33,1452.67 2199.88,1459.19 2166.14,1468.12C2162.43,1483.38 2161.08,1492.48 2159.18,1508.16C2134.1,1482.91 2111.95,1467.03 2073.7,1467.66C2001.75,1468.86 1938.93,1513.63 1890.31,1562.08C1780.47,1671.54 1750.1,1822.28 1751.9,1972.55C1729.96,2012.33 1699.48,2049.45 1648.9,2030.56C1631.41,2024.03 1631.76,1994.84 1633.53,1979.81C1649.76,1841.61 1675.57,1702.5 1685.44,1563.64C1648.16,1563.38 1557.13,1580.88 1519.11,1592.78C1513.38,1594.57 1501.17,1603.25 1495.73,1607.12C1477.32,1727.64 1461.71,1859.27 1437.39,1978.37C1427.97,2036.06 1416.2,2106.74 1452.33,2157.6C1506.06,2233.22 1625.56,2194.58 1685.18,2147.66C1717.17,2122.49 1745.32,2086.2 1769.64,2053.71C1799.02,2135.42 1888.6,2169.79 1966.78,2139.35C2018.88,2119.06 2065,2069.14 2094.41,2023.47C2108.22,2046.22 2121.08,2068.44 2143.99,2083.61C2190.35,2114.3 2249.68,2103.93 2294.56,2076.03C2337.33,2049.43 2363.71,2018.92 2392.57,1978.92C2387.98,2007.98 2389.92,2039.59 2383.88,2066.7C2444.66,2057.63 2521.17,2048.27 2579.6,2034.88C2589,1989.34 2591.47,1942.67 2599.73,1897C2615.95,1807.27 2628.77,1717.68 2643.06,1627.58C2647.43,1600.06 2655.8,1551.22 2681.1,1535.13C2740.77,1504.4 2757.25,1553.21 2751.83,1602.82C2747.67,1640.99 2743.56,1673.14 2738.07,1708.4L2715.53,1853.38C2710.06,1887.9 2705.02,1922.48 2700.4,1957.12C2697.99,1976.36 2695.8,2006.29 2692.32,2024.23C2745.17,2012.59 2840.86,1998.78 2894.89,1994.52L2935.46,1704.34C2941.63,1660.63 2947.67,1614.6 2956.32,1571.75C2959.86,1554.19 2985.41,1519.68 3000.13,1510.33C3057.26,1474.04 3069.1,1523.15 3064.03,1570C3058.08,1621.79 3049.06,1679.31 3039.9,1730.1C3026.08,1806.67 2997.81,1934.21 3104.83,1958.31C3197.52,1979.18 3291.22,1906.1 3337.96,1834.41C3363.95,1927.08 3440.03,1929.15 3517.47,1905.14C3593.27,1881.64 3652.02,1775.75 3658.23,1763.15C3664.27,1750.91 3676.29,1688.83 3658.4,1680.06C3645.34,1688.62 3641.6,1711.26 3634.69,1720.32C3593.6,1774.24 3520.48,1781.66 3538.96,1692.05C3547.74,1649.5 3605.26,1264.39 3592.03,1251.31ZM1459.64,1282.75C1420.64,1288.31 1381.75,1294.67 1343,1301.82C1315.8,1306.87 1281.34,1314.98 1254.85,1316.57C1213.96,1411.66 1168.89,1503.28 1127.01,1597.78C1095.52,1668.86 1060.26,1750.18 1041.74,1825.77C1031.42,1790.58 1036.02,1671.41 1035.17,1627.74C1033.23,1527.25 1029.45,1434.45 1023.51,1333.97C848.853,1337.81 644.146,1387.12 519.664,1517.71C457.039,1583.87 412.311,1665.8 415.224,1758.83C417.43,1829.28 456.114,1891.6 535.093,1885.8C574.024,1882.95 615.575,1865.63 638.418,1833.02C565.047,1784.28 595.37,1644.64 637.834,1584.16C683.169,1519.59 732.77,1492.77 804.278,1465.8C760.403,1574.52 741.043,1651.85 707.669,1762.99C690.419,1818.91 672.211,1874.53 653.053,1929.83C609.254,2059.17 557.216,2201.45 482.849,2316.78C474.082,2329.54 469.102,2336.55 458.824,2347.97C526.113,2347.36 579.511,2334.22 644.996,2325.5C731.899,2212.8 801.04,1826.34 843.331,1680.11L852.927,2018.16C854.838,2101.79 856.443,2180.62 851.551,2264.6C888.161,2265.59 933.485,2267.32 969.943,2265.17L1228.25,1653.31C1204.72,1797.35 1182.59,1941.61 1161.88,2086.08C1156.48,2121.2 1151.44,2156.37 1146.77,2191.6C1144.16,2211.19 1141.03,2241.22 1137.09,2260.21C1206.24,2248.1 1273.86,2233.24 1342.81,2221.04C1351.26,2131.41 1479.04,1305.79 1470.74,1281.99C1465.26,1281.21 1465.17,1281.57 1459.64,1282.75ZM3516.1,1030.42C3492.79,1035.05 3480.37,1040.21 3460.38,1054.43C3411.14,1089.48 3392.73,1171.63 3446.35,1211.14C3466.21,1225.78 3490.53,1224.19 3514.57,1221.56C3578.41,1204.16 3628.48,1156.61 3615.24,1080.86C3607.99,1039.38 3553.91,1028.65 3516.1,1030.42ZM1966.92,248.689C1901.64,257.402 1874.27,313.084 1928.79,361.033C1935.17,366.645 1947.95,371.716 1951.56,378.763L1949.29,380.887C1932.71,396.619 1932.25,415.08 1926.15,436.668L1901.57,522.768C1879.23,601.368 1853.3,678.904 1823.86,755.134C1749.19,699.969 1687.47,628.641 1622.25,562.876C1597.6,538.017 1571.72,496.089 1544.25,476.982C1561.3,455.221 1574.95,432.515 1570.78,403.106C1568.03,384.24 1557.51,367.389 1541.75,356.651C1527.65,346.861 1510.09,343.436 1493.35,347.207C1451.04,356.35 1426.56,394.743 1438.27,437.621C1449.73,479.569 1506.76,482.915 1508.03,489.2C1509.51,496.526 1515.93,542.996 1517.98,556.973C1525.11,606.482 1533.26,655.839 1542.43,705.011C1548.43,735.953 1568.22,831.143 1568.02,859.213C1498.8,850.361 1436.46,824.867 1372.95,797.21C1341.4,783.473 1309.55,765.633 1276.29,758.051L1272.97,757.269C1279.47,734.172 1284.16,712.06 1272.06,689.421C1264.96,675.863 1252.48,665.92 1237.68,662.023C1203.39,653.345 1161.87,678.63 1155.64,714.353C1152.99,729.665 1156.52,745.407 1165.47,758.114C1174.48,770.825 1188.42,779.174 1203.88,781.129C1221.93,783.56 1235.07,778.96 1251.32,771.889C1280.62,810.095 1310.67,842.319 1339.9,879.05C1388.14,939.662 1440.73,1015.47 1478.96,1083.01C1497.88,1113.76 1510.31,1137.36 1524.93,1170.31C1534.04,1190.84 1550.14,1230.25 1562.09,1247.7C1579.58,1236.06 1735.77,1125.86 1912.13,1093.91C2090.11,1061.66 2288.21,1107.7 2294.34,1105.25C2307.22,1083.1 2313.06,955.862 2321.56,919.022C2333.4,867.731 2346.99,823.829 2362.33,773.356L2398.34,650.698C2409.39,613.86 2430.9,558.19 2431.86,521.503C2431.86,521.503 2453.67,528.913 2468.51,524.185C2528.14,505.251 2529.98,436.92 2474.33,411.855C2462.07,406.335 2441.54,404.694 2429.61,410.952C2379.27,437.372 2389.27,477.127 2415.4,514.321C2394.71,532.543 2371.86,556.92 2352.09,576.909C2313.24,616.664 2273.86,655.909 2233.97,694.634C2209.29,718.148 2172.77,753.267 2142.57,767.902C2096.61,705.689 2050.99,581.619 2030.09,507.077C2018.78,466.73 2011.26,407.261 1988.49,375.17C1996.59,370.558 2007.66,360.125 2011.87,354.88C2015.9,349.858 2034.28,309.159 2023.14,282.34C2012.95,257.793 1990.99,251.152 1966.92,248.689ZM1607.08,1364.7C1576.18,1368.01 1549.19,1379.12 1528.95,1404.09C1513.01,1423.52 1505.89,1448.73 1509.32,1473.63C1516.16,1525.83 1552.74,1538.32 1599.03,1535.82C1654.54,1523.89 1689.66,1475.76 1695.42,1446.55C1698.98,1428.54 1689.47,1407.61 1686.34,1401.66C1685.15,1399.39 1678.76,1388.9 1668.22,1379.43C1665.67,1377.18 1662.75,1375.4 1659.58,1374.17C1642.62,1367.63 1625.68,1362.68 1607.08,1364.7ZM2595.11,2108.84L2598.02,2108.72C2606.25,2108.38 2614.25,2111.43 2620.16,2117.17L2622.57,2119.51C2628.44,2125.21 2631.73,2133.07 2631.67,2141.26L2630.35,2315C2630.24,2329.85 2619.27,2342.38 2604.57,2344.47L1172.67,2547.85C1159.56,2549.72 1146.77,2542.76 1141.22,2530.73C1131.42,2509.53 1131.45,2504.97 1128.31,2482.61C1118.99,2453.21 1105.79,2418.58 1092.38,2391.02L1092.37,2391.01C1090.81,2387.8 1088.95,2387.16 1087.46,2385.57C1084.74,2382.65 1082,2379.26 1079.19,2374.45C1074.47,2366.36 1073.81,2356.52 1077.39,2347.86C1080.98,2339.2 1088.4,2332.72 1097.46,2330.33C1124.5,2323.21 1201.55,2313.73 1231.71,2309.27C1231.75,2309.27 1231.79,2309.26 1231.82,2309.26L1528.95,2266.43L2591.96,2109.13C2593,2108.98 2594.06,2108.88 2595.11,2108.84ZM2596.35,2138.81L1533.29,2296.12L1236.1,2338.95C1206.67,2343.3 1131.48,2352.39 1105.11,2359.34C1109.95,2367.64 1114.42,2367.75 1119.35,2377.89C1133.73,2407.44 1147.9,2444.75 1157.67,2475.96C1160.58,2496.36 1160,2499.86 1168.45,2518.15L2600.35,2314.77L2601.67,2141.03L2599.26,2138.69L2596.35,2138.81Z"/>
    <path d="M1966.92,248.689C1990.99,251.152 2012.95,257.793 2023.14,282.34C2034.28,309.159 2015.9,349.858 2011.87,354.88C2007.66,360.125 1996.59,370.558 1988.49,375.17C2011.26,407.261 2018.78,466.73 2030.09,507.077C2050.99,581.619 2096.61,705.689 2142.57,767.902C2172.77,753.267 2209.29,718.148 2233.97,694.634C2273.86,655.909 2313.24,616.664 2352.09,576.909C2371.86,556.92 2394.71,532.543 2415.4,514.321C2389.27,477.127 2379.27,437.372 2429.61,410.952C2441.54,404.694 2462.07,406.335 2474.33,411.855C2529.98,436.92 2528.14,505.251 2468.51,524.185C2453.67,528.913 2431.86,521.503 2431.86,521.503C2430.9,558.19 2409.39,613.86 2398.34,650.698L2362.33,773.356C2346.99,823.829 2333.4,867.731 2321.56,919.022C2313.06,955.862 2307.22,1083.1 2294.34,1105.25C2288.21,1107.7 2090.11,1061.66 1912.13,1093.91C1735.77,1125.86 1579.58,1236.06 1562.09,1247.7C1550.14,1230.25 1534.04,1190.84 1524.93,1170.31C1510.31,1137.36 1497.88,1113.76 1478.96,1083.01C1440.73,1015.47 1388.14,939.662 1339.9,879.05C1310.67,842.319 1280.62,810.095 1251.32,771.889C1235.07,778.96 1221.93,783.56 1203.88,781.129C1188.42,779.174 1174.48,770.825 1165.47,758.114C1156.52,745.407 1152.99,729.665 1155.64,714.353C1161.87,678.63 1203.39,653.345 1237.68,662.023C1252.48,665.92 1264.96,675.863 1272.06,689.421C1284.16,712.06 1279.47,734.172 1272.97,757.269L1276.29,758.051C1309.55,765.633 1341.4,783.473 1372.95,797.21C1436.46,824.867 1498.8,850.361 1568.02,859.213C1568.22,831.143 1548.43,735.953 1542.43,705.011C1533.26,655.839 1525.11,606.482 1517.98,556.973C1515.93,542.996 1509.51,496.526 1508.03,489.2C1506.76,482.915 1449.73,479.569 1438.27,437.621C1426.56,394.743 1451.04,356.35 1493.35,347.207C1510.09,343.436 1527.65,346.861 1541.75,356.651C1557.51,367.389 1568.03,384.24 1570.78,403.106C1574.95,432.515 1561.3,455.221 1544.25,476.982C1571.72,496.089 1597.6,538.017 1622.25,562.876C1687.47,628.641 1749.19,699.969 1823.86,755.134C1853.3,678.904 1879.23,601.368 1901.57,522.768L1926.15,436.668C1932.25,415.08 1932.71,396.619 1949.29,380.887L1951.56,378.763C1947.95,371.716 1935.17,366.645 1928.79,361.033C1874.27,313.084 1901.64,257.402 1966.92,248.689ZM2596.35,2138.81L2599.26,2138.69L2601.67,2141.03L2600.35,2314.77L1168.45,2518.15C1160,2499.86 1160.58,2496.36 1157.67,2475.96C1147.9,2444.75 1133.73,2407.44 1119.35,2377.89C1114.42,2367.75 1109.95,2367.64 1105.11,2359.34C1131.48,2352.39 1206.67,2343.3 1236.1,2338.95L1533.29,2296.12L2596.35,2138.81ZM3192.16,3072.31C3192.16,3072.31 3171.19,3109.16 3172.53,3152.22C3173.84,3194.37 3209.24,3244.13 3209.69,3245.86C3190.01,3251.36 3115.22,3256.66 3076.54,3262.49C2974.88,3278.49 2873.03,3293.3 2771.03,3306.91L1967.68,3424.62C1958.84,3426.21 1921.99,3434.52 1916.59,3429.83C1920.89,3424.67 1940.39,3369.81 1955.74,3322.05C1956.31,3320.27 1969.48,3317.59 1970.03,3315.83C1970.12,3315.57 1970.72,3314.3 1969.99,3313.9C1967.18,3312.36 1959.33,3309.91 1959.65,3308.9C1967.8,3283.02 1973.92,3263.21 1974.28,3256.05L1974.42,3252.95L2887.87,3114.32C2978.01,3100.29 3102.89,3087.75 3192.16,3072.31ZM3625.77,1984.66C3636.49,1983.23 3641.44,1986.93 3651.57,1991.51C3648.84,2031.32 3627.79,2118.31 3619.76,2162.85C3602.92,2166.72 3581.26,2170.29 3564.02,2172.02C3446.96,2183.76 3339.24,2212.81 3222.78,2226.01C3222.5,2221.86 3208.1,2174.61 3193.85,2163.04C3169,2163.12 3071.12,2185.34 3046.4,2189.88C3023.67,2194.22 3002.24,2202.24 2979.2,2203.43C2976.87,2163.85 2979.92,2122.54 2976.47,2085.02C3079.8,2073.36 3190.1,2052.19 3292.98,2035.81C3403.69,2018.18 3515.29,2003.04 3625.77,1984.66ZM1575.79,1272.21C1621.82,1242.58 1771.55,1159.8 1926.31,1132.96C2087.4,1105.02 2253.49,1133.89 2290.28,1148.92C2295.2,1150.93 2292.57,1159.54 2292.81,1162.67C2294.62,1185.71 2279.75,1236.96 2263.51,1254.95C2239.59,1252.54 2222.48,1254.64 2199.84,1253.8C2161.13,1252.37 2125.59,1249.92 2086.7,1252.01C2046.38,1252.4 2004.41,1262.89 1965.22,1266.33C1907.77,1271.38 1863.05,1278.11 1808.99,1299.45C1777.73,1311.79 1758.25,1320.38 1729.03,1338.78C1698.47,1362.35 1700.56,1357.97 1667.45,1339.17C1654.89,1332.04 1636.14,1328.86 1621.93,1326.89C1609.09,1325.1 1593.71,1331.4 1582.96,1324.4C1579.37,1314.81 1566,1278.61 1575.79,1272.21Z" style="fill:rgb(229,0,26);"/>
    <path d="M3592.03,1251.31C3605.26,1264.39 3547.74,1649.5 3538.96,1692.05C3520.48,1781.66 3593.6,1774.24 3634.69,1720.32C3641.6,1711.26 3645.34,1688.62 3658.4,1680.06C3676.29,1688.83 3664.27,1750.91 3658.23,1763.15C3652.02,1775.75 3593.27,1881.64 3517.47,1905.14C3440.03,1929.15 3363.95,1927.08 3337.96,1834.41C3291.22,1906.1 3197.52,1979.18 3104.83,1958.31C2997.81,1934.21 3026.08,1806.67 3039.9,1730.1C3049.06,1679.31 3058.08,1621.79 3064.03,1570C3069.1,1523.15 3057.26,1474.04 3000.13,1510.33C2985.41,1519.68 2959.86,1554.19 2956.32,1571.75C2947.67,1614.6 2941.63,1660.63 2935.46,1704.34L2894.89,1994.52C2840.86,1998.78 2745.17,2012.59 2692.32,2024.23C2695.8,2006.29 2697.99,1976.36 2700.4,1957.12C2705.02,1922.48 2710.06,1887.9 2715.53,1853.38L2738.07,1708.4C2743.56,1673.14 2747.67,1640.99 2751.83,1602.82C2757.25,1553.21 2740.77,1504.4 2681.1,1535.13C2655.8,1551.22 2647.43,1600.06 2643.06,1627.58C2628.77,1717.68 2615.95,1807.27 2599.73,1897C2591.47,1942.67 2589,1989.34 2579.6,2034.88C2521.17,2048.27 2444.66,2057.63 2383.88,2066.7C2389.92,2039.59 2387.98,2007.98 2392.57,1978.92C2363.71,2018.92 2337.33,2049.43 2294.56,2076.03C2249.68,2103.93 2190.35,2114.3 2143.99,2083.61C2121.08,2068.44 2108.22,2046.22 2094.41,2023.47C2065,2069.14 2018.88,2119.06 1966.78,2139.35C1888.6,2169.79 1799.02,2135.42 1769.64,2053.71C1745.32,2086.2 1717.17,2122.49 1685.18,2147.66C1625.56,2194.58 1506.06,2233.22 1452.33,2157.6C1416.2,2106.74 1427.97,2036.06 1437.39,1978.37C1461.71,1859.27 1477.32,1727.64 1495.73,1607.12C1501.17,1603.25 1513.38,1594.57 1519.11,1592.78C1557.13,1580.88 1648.16,1563.38 1685.44,1563.64C1675.57,1702.5 1649.76,1841.61 1633.53,1979.81C1631.76,1994.84 1631.41,2024.03 1648.9,2030.56C1699.48,2049.45 1729.96,2012.33 1751.9,1972.55C1750.1,1822.28 1780.47,1671.54 1890.31,1562.08C1938.93,1513.63 2001.75,1468.86 2073.7,1467.66C2111.95,1467.03 2134.1,1482.91 2159.18,1508.16C2161.08,1492.48 2162.43,1483.38 2166.14,1468.12C2199.88,1459.19 2236.33,1452.67 2270.86,1447.64C2296.85,1443.85 2322.71,1442.61 2348.32,1436.41C2339.45,1553.4 2314.83,1670.56 2297.03,1786.56C2291.69,1821.35 2279.4,1871.66 2280.16,1905.55C2280.47,1919.65 2287.24,1935.54 2297.79,1945.14C2302.72,1949.63 2308.72,1952.1 2315.43,1951.65C2348.65,1949.44 2405.75,1861.99 2414.24,1831.53C2422.85,1800.61 2424.35,1764.26 2428.81,1732.11C2433.73,1696.63 2467.88,1447.19 2483.24,1433.91C2502.11,1417.6 2636.77,1396.56 2666.06,1395.13C2665.67,1413.65 2664.18,1433.83 2663.18,1452.45C2691.94,1415.93 2719.31,1387.02 2762.31,1366.97C2815.98,1341.94 2896.78,1332.24 2934.51,1389.03C2945.77,1405.97 2948.61,1418.05 2953.89,1437.32C2962.25,1422.94 2975.06,1407.42 2985.25,1394.01C3016,1353.55 3049.36,1317.2 3100.62,1304.28C3136.64,1295.2 3180.56,1297.46 3213.35,1316.47C3293.97,1363.22 3265.06,1504.59 3252.22,1582.3L3231.6,1706.83C3227.97,1727.98 3198.06,1822 3266.46,1805.24C3291.3,1799.16 3332.98,1735.85 3340.21,1711.5C3347.22,1687.91 3353.49,1625.9 3357.41,1597.93C3368.17,1516.74 3380.3,1435.74 3393.8,1354.96C3395.49,1344.66 3402.01,1298.3 3405.9,1295C3437.34,1268.41 3557.63,1254.77 3592.03,1251.31ZM2091.67,1564.76C2033.82,1583.82 2009.47,1622.46 1981.41,1675.07C1948.75,1736.28 1891.31,1956.58 1984.29,1987.62C2010.82,1986.83 2030.4,1979.51 2048.81,1959.79C2057.3,1950.69 2074.91,1926.43 2077.84,1915.02C2096.55,1841.67 2104.07,1765.12 2117.89,1690.58C2124.42,1655.4 2134.62,1618.57 2137.76,1583.33C2139.27,1566.36 2103.56,1563.31 2091.67,1564.76ZM2878.11,2096.62C2882.85,2095.66 2881.11,2095.68 2885.77,2096.73C2886.42,2100.31 2873.57,2183.39 2871.85,2195.25C2862.17,2261.29 2852.86,2327.39 2843.94,2393.54C2830.13,2490.09 2816.93,2586.73 2804.34,2683.44C2801.79,2702.04 2798.28,2723 2796.01,2741.48C2789.89,2791.15 2748.95,2974.27 2855.96,2874.37C2861.12,2869.55 2880.84,2850.36 2882.27,2844.14C2900.01,2767.13 2907.06,2686.61 2920.14,2608.6C2925.92,2574 2929.87,2539.12 2936.84,2504.7C2918.98,2508.65 2901.06,2512.35 2883.09,2515.79C2887.78,2496.21 2890.28,2462.11 2892.55,2440.59C2910.82,2435.79 2928.18,2433.58 2946.81,2430.86C2949.88,2406.01 2957.39,2377.86 2961.92,2352.75C2967.01,2324.57 2965.95,2274.13 2998.48,2264.15C3051.01,2248.03 3106.7,2243.24 3160.42,2232.42C3157.42,2248.44 3155.48,2275.5 3153.63,2292.91C3150,2328.67 3145.51,2364.33 3140.17,2399.88C3164.27,2394.83 3196.08,2392.06 3220.91,2389.3C3214.38,2415.74 3207.62,2437.75 3202.04,2464.99C3175.99,2467.72 3150.09,2471.81 3124.47,2477.24C3123.82,2498.35 3115.96,2540 3112.56,2562.88L3088.44,2733.37C3084.24,2761.68 3078.72,2789.94 3074.94,2818.42C3068.45,2867.43 3116.37,2870.14 3149.83,2854.9C3179.9,2841.19 3216.57,2797.55 3232.26,2769.58C3238.61,2758.27 3244.92,2704.72 3247.2,2689.23C3257.11,2620.09 3267.41,2551.01 3278.09,2482C3281.36,2459.63 3289.4,2389.77 3295.94,2372.74C3327.68,2345.86 3441.86,2341.3 3484.77,2331.91C3475.94,2377.38 3474.3,2424.08 3467.82,2469.9C3459.72,2527.23 3416.63,2744.59 3426.72,2785.11C3429.14,2794.85 3434.95,2804.5 3443.9,2809.54C3452.76,2814.54 3463.98,2813.45 3473.24,2810.24C3500.76,2800.7 3527.41,2759.84 3536.74,2733.38C3547.74,2702.23 3550.6,2656.44 3555.59,2622.73C3566.85,2548.32 3577.55,2473.84 3587.7,2399.28C3589.41,2386.29 3594.88,2335.41 3598.38,2328.39L3600.81,2328.35L3603.28,2334.43L3605.28,2333.18C3605.7,2331.63 3607.45,2325.1 3608.25,2324.63C3639.18,2306.25 3753.68,2291.07 3784.77,2287.12C3782.73,2300.09 3781.19,2313.69 3779.89,2326.77C3766.48,2464.9 3741.37,2601.18 3721.03,2738.36C3691.57,2937.09 3684.98,3202.8 3454.41,3276.48C3406.63,3287.26 3369.28,3288.79 3320.99,3268.92C3236.68,3234.23 3220.89,3090.14 3313.85,3056.9C3327.66,3051.96 3348.64,3047.14 3362.94,3054.33C3365.27,3059.06 3359.4,3069.52 3357.9,3075.05C3352.02,3096.72 3356.02,3123.42 3367.68,3142.55C3373.34,3151.84 3381.53,3160.6 3392.58,3162.92C3406.01,3165.73 3419.49,3162.87 3430.47,3154.73C3481.45,3116.94 3511.34,2921.72 3519.61,2855.42C3477.21,2899.45 3449.3,2952.88 3382.96,2965.77C3305.4,2980.84 3243.22,2950.82 3228.43,2869.38C3180.31,2917.43 3149.3,2953.99 3084.18,2981.06C3006.28,3013.44 2928.84,3024.95 2890.75,2931C2834.55,3003.17 2751,3076.94 2650.81,3036.96C2619.34,3024.41 2604.05,2993.86 2591.99,2964.3C2556.55,3003.07 2532.14,3052.9 2479.4,3076.02C2449.53,3089.11 2409.55,3087.96 2379.26,3076.18C2346.15,3063.31 2330.7,3034.56 2317.45,3004.04C2298.29,3035.66 2271.03,3064.22 2243.26,3088.62C2183.01,3141.55 2088.91,3144.27 2037.03,3077.68C1991.95,3019.83 1991.93,2941.48 2000.68,2871.52C2016.07,2748.65 2066.74,2628.4 2165.93,2550.23C2224.92,2503.75 2323.39,2472.98 2376.34,2545.11C2378.38,2528.61 2379.84,2512.04 2380.71,2495.44C2391.54,2495.18 2402.26,2493.88 2412.86,2491.65C2460.15,2481.72 2508.28,2475.07 2555.52,2465.08C2554.03,2526.57 2544.96,2577.03 2535.3,2637.62L2508.44,2804.79C2503.34,2836.19 2490.69,2897.9 2492.1,2926.12C2521.86,2975.64 2554.46,2927.36 2576.74,2899.19C2583.26,2890.94 2589.39,2881.87 2595.56,2873.31C2595.93,2862.08 2601.37,2832.55 2603.38,2819.46C2608.01,2788.88 2612.41,2758.27 2616.57,2727.62C2634.78,2598.16 2652.08,2468.58 2668.48,2338.88C2675.24,2287.02 2692.23,2176.95 2691.81,2130.42C2725.24,2118.49 2759.36,2116.29 2794.56,2111.07C2823.34,2106.8 2849.49,2102.15 2878.11,2096.62ZM2324.23,2592.36C2197.36,2623.69 2119.41,2937.12 2212.03,2977.65C2235.91,2978.88 2252,2973.54 2270.03,2957.07C2281.23,2946.84 2301.69,2922.02 2305.91,2907.86C2322.03,2853.83 2328.3,2794.54 2338.96,2739.1C2346.82,2698.23 2355.18,2657.95 2359.89,2616.88C2361.47,2599.68 2337.48,2592.48 2324.23,2592.36ZM1459.64,1282.75C1465.17,1281.57 1465.26,1281.21 1470.74,1281.99C1479.04,1305.79 1351.26,2131.41 1342.81,2221.04C1273.86,2233.24 1206.24,2248.1 1137.09,2260.21C1141.03,2241.22 1144.16,2211.19 1146.77,2191.6C1151.44,2156.37 1156.48,2121.2 1161.88,2086.08C1182.59,1941.61 1204.72,1797.35 1228.25,1653.31L969.943,2265.17C933.485,2267.32 888.161,2265.59 851.551,2264.6C856.443,2180.62 854.838,2101.79 852.927,2018.16L843.331,1680.11C801.04,1826.34 731.899,2212.8 644.996,2325.5C579.511,2334.22 526.113,2347.36 458.824,2347.97C469.102,2336.55 474.082,2329.54 482.849,2316.78C557.216,2201.45 609.254,2059.17 653.053,1929.83C672.211,1874.53 690.419,1818.91 707.669,1762.99C741.043,1651.85 760.403,1574.52 804.278,1465.8C732.77,1492.77 683.169,1519.59 637.834,1584.16C595.37,1644.64 565.047,1784.28 638.418,1833.02C615.575,1865.63 574.024,1882.95 535.093,1885.8C456.114,1891.6 417.43,1829.28 415.224,1758.83C412.311,1665.8 457.039,1583.87 519.664,1517.71C644.146,1387.12 848.853,1337.81 1023.51,1333.97C1029.45,1434.45 1033.23,1527.25 1035.17,1627.74C1036.02,1671.41 1031.42,1790.58 1041.74,1825.77C1060.26,1750.18 1095.52,1668.86 1127.01,1597.78C1168.89,1503.28 1213.96,1411.66 1254.85,1316.57C1281.34,1314.98 1315.8,1306.87 1343,1301.82C1381.75,1294.67 1420.64,1288.31 1459.64,1282.75ZM2005.38,2548.78C2007.78,2548.14 2006.15,2548.37 2010.25,2549.5C2011.08,2560.34 2003.38,2587.07 2001.91,2599.34C1990.02,2698.97 1974.99,2798.56 1962.12,2898C1944.64,3033.09 1928.95,3167.99 1906.33,3302.3C1914.5,3305.11 1918.76,3305.57 1923.99,3311.91C1924.81,3313.34 1924.58,3314.49 1923.63,3315.45C1916.88,3320.08 1910.59,3319.34 1902.15,3319.74C1877.19,3405.48 1849.16,3483.05 1784.57,3548.54C1728.87,3605.51 1652.7,3637.85 1573.02,3638.36C1393.68,3638.19 1361.11,3441.72 1475.14,3332.43C1544.51,3265.93 1647.52,3255.21 1739.24,3256.07C1754.29,3204.1 1756.64,3128.57 1769.68,3085.52C1723.54,3150.47 1649.93,3223.47 1562.56,3210.28C1507.05,3201.9 1490.23,3151.64 1482.53,3103.06C1476.06,3062.25 1484.97,3019.25 1491.1,2978.64C1496.33,2944.08 1501.8,2909.55 1507.49,2875.06C1488.75,2885.32 1472.28,2892.57 1452.84,2901.19C1450.17,2953 1430.63,3033 1406.25,3077.69C1358.93,3175.1 1276.42,3250.91 1167.61,3269.45C1060.29,3287.74 985.688,3206.72 974.63,3105.26C965.262,2987.17 1003.92,2878.16 1072.78,2781.12C1140.32,2685.93 1292.66,2607.46 1402.34,2680.65C1440.85,2706.34 1451.66,2757.67 1456.83,2802.79C1461.69,2800.68 1466.53,2798.51 1471.34,2796.28C1558.67,2755.58 1525.21,2699.03 1552.51,2625.53L1553.46,2623.05C1609.76,2610.58 1667.64,2603.51 1723.53,2591.05C1715.55,2628.26 1712.36,2661.48 1707.59,2698.95C1701.11,2746.37 1695.01,2793.84 1689.3,2841.35C1682.94,2892.65 1673.93,2943.37 1668.31,2994.95C1664.7,3019.05 1669.44,3067.05 1706.2,3052.79C1786.88,3021.48 1789.99,2909.13 1800.32,2840.91L1831.5,2639.89C1833.67,2625.41 1835.35,2605.82 1837.3,2592.46C1840.7,2569.21 1899.57,2564.71 1916.81,2562.17L2005.38,2548.78ZM1269.13,2743.94C1172.49,2798.21 1095.82,3201.07 1232.63,3131.33C1302.68,3081.31 1308.2,2992.54 1320.17,2915.1C1301.21,2910.23 1287.45,2903.11 1276.32,2885.23C1263.13,2864.03 1263.86,2832.1 1270.15,2807.88C1274.51,2791.08 1285.38,2772.83 1295.27,2758.09C1294.64,2756.3 1294.01,2754.51 1293.38,2752.73C1285.27,2745.95 1279.72,2743.77 1269.13,2743.94ZM1689.08,3336.65C1637.53,3344.02 1582.5,3355.92 1549.17,3400.42C1534.67,3419.57 1528.62,3443.8 1532.41,3467.52C1536.24,3492.32 1550.92,3502.14 1572.42,3510.83C1666.7,3520.05 1707.53,3410.28 1725.64,3335.81C1716.65,3335.89 1697.08,3335.62 1689.08,3336.65ZM779.031,2364.8C832.998,2358.39 915.238,2363.01 966.339,2383.13C1101.49,2436.35 1088.79,2601.81 1042.65,2714.01C1005.39,2804.64 937.217,2868.41 844.738,2905.49C876.071,2956.77 892.019,3012.83 909.656,3070.66C950.66,3205.11 1056.35,3409.46 1228.27,3349.6C1232.67,3348.07 1228.91,3347.56 1236.17,3347.15C1253.46,3383.73 1147.49,3460.7 1114.38,3471.35C797.745,3573.2 777.471,3147.76 704.684,2950.8C704.114,2976.79 698.617,3008.53 694.709,3034.76L675.549,3159.46C666.412,3220.7 656.753,3281.86 646.573,3342.94C584.505,3356.46 520.402,3358.86 458.633,3374.48C464.299,3319.84 471.597,3265.69 479.909,3211.33C508.605,3023.68 534.916,2835.34 567.518,2648.34C575.736,2601.21 584.891,2550.93 597.688,2504.95C529.514,2533.51 476.279,2569.69 436.557,2633.54C400.741,2691.11 369.164,2807.99 441.345,2850.77C400.086,2895.89 314.039,2918.73 264.456,2875.02C243.957,2856.94 228.77,2825.52 227.769,2798.01C217.916,2527.24 552.817,2384.91 779.031,2364.8ZM762.827,2459.77C764.46,2530.71 747.244,2627.44 738.308,2699.91C733.369,2739.96 723.87,2820.87 715.092,2857.2C754.472,2848.54 776.769,2842.8 807.098,2815.66C865.564,2756.44 892.194,2667.62 892.464,2586.08C892.754,2498.2 848.245,2458.23 762.827,2459.77ZM3516.1,1030.42C3553.91,1028.65 3607.99,1039.38 3615.24,1080.86C3628.48,1156.61 3578.41,1204.16 3514.57,1221.56C3490.53,1224.19 3466.21,1225.78 3446.35,1211.14C3392.73,1171.63 3411.14,1089.48 3460.38,1054.43C3480.37,1040.21 3492.79,1035.05 3516.1,1030.42ZM1607.08,1364.7C1625.68,1362.68 1642.62,1367.63 1659.58,1374.17C1662.75,1375.4 1665.67,1377.18 1668.22,1379.43C1678.76,1388.9 1685.15,1399.39 1686.34,1401.66C1689.47,1407.61 1698.98,1428.54 1695.42,1446.55C1689.66,1475.76 1654.54,1523.89 1599.03,1535.82C1552.74,1538.32 1516.16,1525.83 1509.32,1473.63C1505.89,1448.73 1513.01,1423.52 1528.95,1404.09C1549.19,1379.12 1576.18,1368.01 1607.08,1364.7Z" style="fill:white;"/>
</svg>
