<?xml version="1.0" encoding="UTF-8" standalone="no"?>
<!DOCTYPE svg PUBLIC "-//W3C//DTD SVG 1.1//EN" "http://www.w3.org/Graphics/SVG/1.1/DTD/svg11.dtd">
<svg width="100%" height="100%" viewBox="0 0 4096 4096" version="1.1" xmlns="http://www.w3.org/2000/svg" xmlns:xlink="http://www.w3.org/1999/xlink" xml:space="preserve" xmlns:serif="http://www.serif.com/" style="fill-rule:evenodd;clip-rule:evenodd;stroke-linejoin:round;stroke-miterlimit:2;">
    <path d="M1730.89,3565.74C1716.71,3563.97 1608.4,3574.73 1587.7,3576.28C1570.28,3589.49 1551.83,3601.29 1532.53,3611.56C1502.74,3641.85 1318.59,3675.37 1268.31,3687.07C1229.27,3695.97 1190.6,3706.38 1152.37,3718.28C1072.88,3743.81 1003.44,3773.91 936.213,3823.8C934.396,3811 933.739,3791.65 934.189,3778.76C939.289,3632.53 1002.04,3513.92 1104.93,3414.54C1067.43,3419.11 1017.52,3424.5 979.977,3425.61C899.818,3427.98 821.216,3427.34 741.016,3434.41C655.946,3441.92 584.181,3459.63 503.261,3486.91C555.342,3304.76 705.039,3241.65 856.768,3159.08C1158.16,2995.08 1475.19,2500.03 1413.27,2149.76C1330.37,2277.11 1203.79,2215.43 1199.74,2078.74C1152.1,2148.74 1074.44,2221.41 995.013,2253.61C862.825,2307.2 735.767,2230.51 804.889,2078.12C781.919,2091.89 761.042,2108.55 739.031,2121.69C693.03,2147.41 631.161,2169.23 577.947,2167.36C475.482,2163.77 421.643,2083.05 425.764,1986.54C429.052,1907.64 463.527,1833.28 521.614,1779.78C370.147,1794.8 259.52,1659.48 303.776,1513.29C335.842,1407.37 430.329,1351.1 523.966,1303.64C511.223,1289.89 503.443,1281.34 493.399,1265.26C466.399,1222.95 457.586,1171.54 468.948,1122.65C480.322,1074.47 510.399,1032.79 552.543,1006.82C616.132,968.084 682.481,966.169 752.88,983.467C724.243,930.95 713.217,887.338 733.3,826.701C740.524,804.89 747.137,803.527 748.416,784.12C774.835,761.279 781.751,735.77 817.613,715.443C896.898,670.501 960.277,660.532 1047.85,679.64C1075.28,662.912 1092.86,656.738 1124.22,650.121C1116.52,417.372 1398.79,314.652 1592.13,371.984C1620.61,380.43 1650.61,397.95 1674.03,416.124C1678.02,407.14 1682.52,397.011 1687.35,388.495C1728.04,318.065 1795.05,266.696 1873.63,245.702C1940.5,227.574 2030.84,226.028 2076.04,288.858C2088.51,306.186 2094.01,324.127 2099.58,344.455C2146.73,306.003 2224.18,276.887 2282.69,263.186C2403.06,234.999 2577.06,277.082 2607.75,414.858C2616.69,454.99 2605.75,484.92 2583.82,517.74C2639.51,518.357 2666.93,521.402 2714.97,549.602C2842.51,470.254 3039.85,486.137 3097.04,642.765C3120.7,707.571 3104.19,758.603 3074.89,816.443C3154.93,765.673 3318.47,722.059 3387.93,814.166C3435.85,877.698 3417.87,958.565 3372.1,1018.49C3406.1,1013.46 3424.72,1015.91 3459.12,1016.08C3497.58,1016.27 3575.82,1050.08 3582.85,1054.7C3719.41,1144.55 3780.02,1345.43 3601.84,1428.25C3688.05,1506.46 3753.76,1608.03 3762.55,1726.25C3770.49,1833 3670.92,1903.08 3573,1905.76C3529.13,1906.95 3490.14,1898.74 3447.79,1889.29C3485.58,1945.13 3518.85,1995.32 3506.19,2069.5C3497.53,2120.21 3454.53,2172.25 3411.92,2200C3367.5,2229.15 3313.13,2238.95 3261.33,2227.17C3182.1,2209.89 3090.3,2163.83 3033.21,2106.28C3046.96,2143.28 3060.16,2189.21 3041.29,2226.06C3002.07,2302.62 2899.05,2305.41 2831.03,2270.72C2771.38,2240.3 2726.85,2192.52 2691.91,2138.3C2682.95,2169.03 2674.17,2192.12 2658.4,2220.28C2673.36,2249.56 2691.6,2289.98 2696.79,2322.54C2711.43,2414.48 2685.66,2495.81 2662.6,2582.76C2628.99,2709.48 2639.9,2859.61 2700.27,2977.11C2750.02,3072.69 2827.97,3150.66 2923.55,3200.44C2959.5,3219.12 3003.01,3235.41 3041.19,3251.6C3158.58,3301.39 3231.26,3358.39 3300.1,3466.77C3318.46,3495.67 3338.1,3552.69 3351.97,3585.58C3302.08,3574.32 3254.77,3561.15 3204.24,3550.46C3072.06,3522.5 2956.11,3514.95 2821.96,3516.38C2887.16,3597.01 2928.18,3668.07 2942.07,3773.92C2945.16,3797.42 2946.88,3827.99 2944.49,3851.64L2944.28,3853.54C2697.36,3698.19 2351.07,3693.31 2081.89,3586.9C2064.65,3582.76 2048.81,3574.7 2031.22,3570.36L1964.12,3544.39C1958.54,3535.64 1954.52,3528.94 1944.77,3521.89C1908.39,3495.56 1852.34,3551.48 1822.28,3556.7C1794.23,3561.58 1760.93,3560.8 1730.89,3565.74ZM748.416,784.12L748.375,784.156L748.63,775.05C748.667,778.476 748.591,781.467 748.416,784.12Z" style="fill:rgb(15,58,38);"/>
    <path d="M2004.21,1423.1C2038.35,1447.01 2077.85,1461.49 2117.07,1474.62C2122.3,1481.24 2126.89,1489.24 2131.36,1496.47C2145.53,1521.16 2162.91,1540.27 2173.4,1566.43C2197.16,1628.33 2223.39,1687.55 2244.07,1750.47C2250.81,1770.97 2257.42,1791.83 2265,1812.01C2269.44,1805.61 2268.34,1786.58 2268.56,1776.99C2260.66,1702.08 2270.47,1652.02 2296.2,1582.67C2303.64,1565.89 2309.18,1547 2320.77,1534.06C2330.62,1523.26 2344.13,1503.56 2356.21,1489.89L2370.71,1473.68C2371.74,1485.88 2372.43,1498.14 2374.82,1510.12C2380.37,1566.15 2407.56,1645.32 2437.16,1694.22C2428.83,1722.59 2420.24,1750.93 2409.62,1778.55C2399.25,1814.27 2388.1,1846.95 2376.02,1882.05C2430.33,1826.14 2449.14,1814.43 2516.83,1781.86C2523.72,1777.74 2534.08,1773.65 2541.67,1770.32C2581.3,1744.6 2680.35,1721.7 2725.89,1715.93C2738.5,1713.52 2760.07,1712.79 2772.65,1714.57L2773.92,1716.54L2769.32,1718.68C2715.76,1745.42 2693.38,1760.49 2645.87,1797.69L2643.57,1799.08C2582.03,1851.38 2527.23,1911.12 2480.41,1976.92L2480.4,1983.73C2555.3,1940.98 2672.07,1902.51 2680.93,2031.78C2560.64,1975.99 2483.41,2101.38 2395.55,2158.64C2387.03,2109.6 2381.97,2082.51 2364.22,2035.15C2360.7,2050.58 2358.7,2057.73 2353.15,2072.5C2336.28,2126.07 2334.25,2157.53 2341.96,2213.49C2355.53,2269.6 2374.35,2330.51 2426.93,2361.87C2467.03,2385.79 2502.31,2386.09 2545.34,2371.63C2522.89,2368.44 2514.03,2366.43 2494.27,2353.18C2542.6,2341.8 2580.94,2317.89 2610.19,2276.37C2675.83,2416.69 2588.27,2518.01 2572.75,2656.76C2552.16,2840.84 2611.04,3044.97 2745.54,3176.3C2805.95,3235.28 2898.26,3282.86 2976.3,3312.92L2971.73,3318.18C2958.49,3316.42 2911.07,3316.65 2897.83,3318.66C2883.78,3319.04 2840.26,3317.92 2828.13,3313.29L2826.77,3307.28C2824.2,3311.84 2826.05,3310.33 2821.93,3312.77C2811.68,3309.77 2817.49,3311.79 2810.71,3305.49C2805.49,3305.79 2795.32,3306.49 2790.52,3305.72C2776.17,3303.4 2754.96,3284.94 2742.07,3294.98C2738.39,3291.56 2739.99,3293.52 2739.68,3286.06L2736.7,3285.01L2725.68,3281.02C2642.87,3247.71 2537.05,3165.06 2492.68,3087.48C2491.28,3127.45 2490.22,3153.18 2497,3193.7C2513.94,3294.88 2586.64,3376.6 2653.11,3449.98C2669.46,3468.02 2725.69,3522.95 2736.45,3540.08C2755.31,3557.18 2793.57,3612.46 2805.24,3635.11C2814.43,3647.81 2830.52,3690.89 2837.03,3707.21C2789.57,3681.25 2718.94,3654.73 2667.43,3635.52C2529.09,3584.83 2396.81,3525.83 2264.84,3460.24C2203.4,3429.7 2116.39,3371.79 2075.89,3317.31C2057.5,3292.57 2054.35,3199.5 2052.25,3164.19C1969.74,3307.04 1859.8,3440.43 1684.55,3456.79C1694.84,3426.47 1742.55,3331.03 1760.89,3301.69C1790.18,3237.38 1808.76,3202.76 1829.99,3134.49C1767.89,3220.16 1654.78,3365.03 1562.34,3417.71C1549.56,3431.79 1522.72,3446.41 1508.06,3458.32C1434.05,3518.49 1351.83,3532.67 1263.27,3558.48C1245.19,3563.75 1212.24,3573.95 1195.15,3582.37L1186.59,3585.97C1151.52,3601.05 1115.37,3613.99 1079.42,3629.62C1086,3605.07 1093.92,3583.28 1109.71,3562.41C1186.24,3461.22 1305.91,3395.56 1399.11,3310.56C1445.53,3268.23 1479.8,3228.12 1516.76,3179.37C1494.41,3195.02 1472.87,3213.14 1450.13,3228.67C1413.64,3253.59 1371.2,3277.02 1331.14,3295.67C1352.82,3271.17 1373.06,3244.82 1392.8,3219.82C1428.24,3174.96 1461.2,3132.23 1481.01,3078.19C1482.04,3075.4 1489.2,3072.05 1492.22,3070.64C1570.57,2921.97 1613.75,2739.99 1639.52,2574.76C1647.57,2523.15 1655.72,2441.61 1651.36,2390.05C1621.7,2504.83 1590.89,2612.71 1542.11,2720.79C1536.33,2733.61 1534.68,2758.33 1529.51,2772.71C1517.15,2807.11 1502.85,2840.69 1486.16,2873.22C1409.5,3030.64 1298.75,3087.78 1151.22,3167.18C1179.82,3128.2 1212.03,3091.87 1240.22,3051.9C1317.88,2941.77 1390.48,2823.24 1446.65,2700.69C1465.64,2659.25 1484,2605.46 1499.64,2562.4C1526.81,2481.67 1546.4,2381.84 1547.73,2296.37C1548.9,2221.21 1508.93,2136.65 1473.23,2071.53C1435.84,2001.3 1344.24,1913.45 1320.17,1850.25C1325.06,1851.89 1329.93,1853.6 1334.78,1855.36C1428.29,1889.6 1517.94,1952.18 1567.65,2039.76C1576.85,2055.97 1586.3,2077.41 1594.27,2094.6C1600.71,2042.24 1596.44,1998.81 1579.87,1948.28L1578.99,1944.98C1558.45,1868.63 1505.3,1786.99 1441.37,1740.34C1418.5,1723.64 1401.78,1714.71 1377.71,1700.97C1369.2,1698.5 1367.67,1697.37 1359.84,1692.86C1478.29,1684.92 1556.85,1742.09 1653.96,1791.99C1647.78,1740.15 1636.16,1717.9 1610.63,1674.21C1605.34,1667.27 1602.71,1663.42 1598.33,1655.88C1615.35,1663.21 1656.93,1681.07 1669.88,1692.57C1694.09,1707.38 1726.72,1729.05 1748.98,1746.51L1757.37,1753.17C1788.94,1778.89 1816.79,1806.79 1844.49,1836.52C1838.73,1806.21 1829.21,1776.75 1816.13,1748.81C1794.21,1701.49 1712.63,1579.15 1676.33,1539.69C1664,1526.22 1650.9,1513.48 1637.1,1501.51C1627.66,1493.49 1614.71,1484.91 1607.36,1475.91C1612.11,1474.21 1610.27,1475.12 1617.26,1477.76C1641.36,1482.83 1650.11,1483.47 1674.18,1482.35C1709.27,1480.71 1763.46,1458.74 1794.26,1472.34C1852.61,1504.45 1971.45,1626.11 2001.73,1683.39C2014.12,1701.77 2095.38,1826.05 2100.95,1828.43L2101.86,1822.74C2097.96,1798.22 2095.27,1764.21 2092.13,1738.57C2075.56,1662.57 2063.45,1618.7 2040.23,1544.94C2030.49,1507.28 2016.2,1460.04 2004.21,1423.1Z" style="fill:rgb(164,100,28);fill-rule:nonzero;"/>
    <path d="M1684.09,2795.67C1678.88,2881.29 1698.02,2946.61 1780.21,2985.72C1855.96,3021.76 1929.37,2998.79 2003.83,2972.21L2039.62,2960.17C1992.14,3003.5 1934.75,3040.32 1870.49,3050.94C1810.55,3060.85 1729.96,3062.35 1688.64,3009.96C1641.23,2939.06 1658.89,2871.73 1684.09,2795.67Z" style="fill:rgb(15,58,38);fill-rule:nonzero;"/>
    <path d="M1473.23,2071.53C1509.13,2095.79 1527.96,2180.39 1545.96,2217.93C1545.12,2225.68 1543.32,2229.69 1545.97,2235.8L1553.33,2239.09L1554.73,2243.07L1551.86,2248.14L1548.72,2247.27C1550.88,2263.86 1558.12,2266.25 1555.72,2279.75C1554.18,2288.4 1551.81,2296.95 1553.7,2305.23L1555.77,2304.86L1559.48,2295.95L1560.11,2297.85L1558.22,2297.48L1560.15,2300.74C1559.25,2317.52 1553.19,2341 1548.72,2357.63C1546.26,2366.79 1548.44,2370.81 1551.19,2380.07C1540.37,2406.62 1545.85,2426.35 1532.39,2454.04C1536.5,2461.19 1537.34,2458.67 1535.03,2466.41C1531.52,2478.09 1524.05,2490.35 1521.34,2502.04C1519.46,2510.17 1533.38,2515.79 1517.57,2520.18C1511.41,2535.83 1509.96,2549.13 1499.64,2562.4C1526.81,2481.67 1546.4,2381.84 1547.73,2296.37C1548.9,2221.21 1508.93,2136.65 1473.23,2071.53Z" style="fill:rgb(104,70,28);fill-rule:nonzero;"/>
    <path d="M1377.71,1700.97C1389.9,1700.64 1392,1705.21 1400.7,1706.13C1421.61,1708.34 1441.34,1741.82 1457.9,1740.02C1465.06,1747.65 1458.35,1746.79 1464.02,1748.67L1467.97,1747.08L1470.88,1749.51L1470.26,1755.89C1476.91,1760.3 1476.05,1754.37 1479.92,1758.28C1484.6,1763.79 1485.99,1773.15 1490.39,1779C1495.69,1786.04 1532.76,1813.94 1530.88,1819.81C1525.39,1836.94 1555.64,1860.38 1555.67,1862.06C1556.08,1891.48 1586.55,1918.13 1579.87,1948.28L1578.99,1944.98C1558.45,1868.63 1505.3,1786.99 1441.37,1740.34C1418.5,1723.64 1401.78,1714.71 1377.71,1700.97Z" style="fill:rgb(104,70,28);fill-rule:nonzero;"/>
    <path d="M1794.68,1528.94C1820.25,1545.54 1843.68,1564.33 1868.44,1582.03C1874.17,1586.13 1884.15,1590.62 1888.27,1594.72C1882.83,1595.99 1884.55,1594.87 1880.66,1598.24C1864.82,1582.93 1840.75,1568.98 1822.83,1552.87C1820.3,1554.04 1820.8,1555.08 1819.02,1558.98C1821.72,1569.18 1871.55,1636.1 1871.91,1652.16C1847.46,1611.4 1818.65,1570.88 1794.68,1528.94Z" style="fill:rgb(138,86,32);fill-rule:nonzero;"/>
    <path d="M1617.26,1477.76C1641.36,1482.83 1650.11,1483.47 1674.18,1482.35C1709.27,1480.71 1763.46,1458.74 1794.26,1472.34C1778.21,1472.1 1749.66,1472.06 1734.84,1477.79L1736.46,1483.27L1733.55,1485.69L1731.36,1484.54C1728.94,1483.3 1721.23,1479.31 1718.94,1479.58C1696.07,1482.23 1636,1498.37 1617.26,1477.76Z" style="fill:rgb(104,70,28);fill-rule:nonzero;"/>
    <path d="M1598.33,1655.88C1615.35,1663.21 1656.93,1681.07 1669.88,1692.57C1660.64,1694.96 1666.56,1697.29 1657.01,1698.58L1654.94,1695.89L1655.9,1691.94L1660.96,1690.83L1660.75,1689.49C1655.71,1688.04 1657.68,1688.77 1651.09,1690.85C1641.13,1687.22 1627.51,1666.5 1612.82,1668.83L1610.63,1674.21C1605.34,1667.27 1602.71,1663.42 1598.33,1655.88Z" style="fill:rgb(104,70,28);fill-rule:nonzero;"/>
    <path d="M1737.64,2259L1741.15,2231.47L1752.42,2252C1746.24,2252.86 1743.58,2256.62 1737.64,2259Z" style="fill:rgb(160,98,32);fill-rule:nonzero;"/>
    <path d="M1186.59,3585.97C1184.43,3581.25 1184.43,3581.31 1183.61,3576.18L1186.18,3575.82C1189.33,3578.82 1191.35,3580.24 1195.15,3582.37L1186.59,3585.97Z" style="fill:rgb(104,70,28);fill-rule:nonzero;"/>
    <path d="M1956.48,1819.08C1960.06,1816.83 1958.28,1817.06 1961.65,1817.56L1958.65,1820.9L1954.83,1822.45L1956.48,1819.08Z" style="fill:rgb(104,70,28);fill-rule:nonzero;"/>
    <path d="M1987.33,1847.11C1988.42,1846.49 1987.49,1846.91 1991.36,1845.82L1989.35,1849.45L1985.21,1850.53L1987.33,1847.11Z" style="fill:rgb(104,70,28);fill-rule:nonzero;"/>
    <path d="M1520.31,1776.96C1522.56,1776.48 1521.29,1776.47 1524.06,1777.61L1520.74,1780.17L1517.35,1779.11L1520.31,1776.96Z" style="fill:rgb(104,70,28);fill-rule:nonzero;"/>
    <path d="M2010.31,1884.05L2014.27,1882.5L2012.67,1885.66C2010.31,1886.83 2011.87,1886.22 2007.78,1886.84L2010.31,1884.05Z" style="fill:rgb(104,70,28);fill-rule:nonzero;"/>
    <path d="M1716.85,2624.23C1765.5,2512.58 1845.42,2442.3 1954.96,2391.56C2006.86,2367.52 2050.76,2382.56 2099.96,2403.9C2172.46,2435.35 2240.07,2456.58 2315.98,2474.45C2429.81,2501.24 2490.47,2488.87 2582.83,2415.1C2572.29,2433.15 2558.97,2457.04 2545.76,2472.83C2467.85,2565.94 2444.83,2691.73 2475.76,2808.02C2487.98,2852.97 2506.57,2895.95 2530.96,2935.64C2411.29,2845.25 2226.06,2838.39 2081.4,2855.81C1991.75,2866.6 1922.11,2921.67 1832.42,2899.36C1800.92,2885.2 1794.5,2877.24 1774.73,2850.33C1770.69,2839.49 1762.46,2827.71 1758.32,2816.72C1747.29,2787.52 1749.22,2757.78 1747.34,2727.59C1744.77,2727.16 1746.27,2727.66 1743.24,2725.15L1746.05,2721.99C1744.89,2716.83 1748.55,2681.35 1748.8,2670.8L1746.73,2678.49C1747.08,2666.74 1748.05,2653.26 1747.91,2641.64C1747.79,2631.97 1751.23,2617.8 1749.1,2610.3C1732.16,2630.82 1718.01,2650.51 1701.79,2671.03C1706.5,2655.65 1711.2,2639.19 1716.85,2624.23Z" style="fill:rgb(15,58,38);fill-rule:nonzero;"/>
    <path d="M1749.1,2610.3L1765.61,2591.07C1775.55,2595.94 1769.9,2594.38 1776.42,2604.04C1763.18,2643.32 1750.06,2686.04 1747.34,2727.59C1744.77,2727.16 1746.27,2727.66 1743.24,2725.15L1746.05,2721.99C1744.89,2716.83 1748.55,2681.35 1748.8,2670.8L1746.73,2678.49C1747.08,2666.74 1748.05,2653.26 1747.91,2641.64C1747.79,2631.97 1751.23,2617.8 1749.1,2610.3Z" style="fill:rgb(138,86,32);fill-rule:nonzero;"/>
    <path d="M1765.61,2591.07C1774.08,2582.4 1784.05,2571.68 1792.88,2563.74L1776.42,2604.04C1769.9,2594.38 1775.55,2595.94 1765.61,2591.07Z" style="fill:rgb(160,98,32);fill-rule:nonzero;"/>
    <path d="M2178.19,2685.1C2227.87,2692.5 2267.19,2704.41 2312.69,2724.72C2357.42,2747.97 2375.67,2763.68 2408.48,2801.99C2292.3,2773.51 2156.65,2775.34 2039.22,2796.15C1984.53,2805.85 1881.46,2854.98 1843.23,2792.12C1835.09,2778.74 1832.94,2762.54 1837.32,2747.5C1842.19,2730.88 1853.81,2717.07 1869.35,2709.42C1917.1,2685.38 1963.08,2711.8 1984.97,2756.57C2019.98,2725.22 2053.65,2712.54 2101.54,2714.36C2136.8,2715.7 2197.02,2733.21 2229.98,2749.03L2231.85,2747.29L2231.16,2743.03C2213.65,2717.31 2202.04,2705.21 2178.19,2685.1Z" style="fill:rgb(254,246,223);fill-rule:nonzero;"/>
    <path d="M2178.19,2685.1C2227.87,2692.5 2267.19,2704.41 2312.69,2724.72C2307.68,2726.99 2303.79,2728.9 2298.91,2731.45C2298.16,2727.49 2298.03,2729.44 2299.3,2725.62C2296.67,2719.54 2282.56,2713.71 2275.02,2717.88C2267.03,2713.23 2256.29,2702.32 2247.19,2705.26L2245.83,2710.75L2242.13,2710.61C2242.88,2706.38 2243.38,2706.07 2242.45,2701.92C2231.51,2699.86 2221.25,2698.33 2210.73,2694.68C2205.34,2697.46 2207.8,2695.73 2204.14,2701.25C2213.65,2717.26 2229.54,2723.43 2231.16,2743.03C2213.65,2717.31 2202.04,2705.21 2178.19,2685.1Z" style="fill:rgb(253,251,228);fill-rule:nonzero;"/>
    <path d="M1909.12,2515.83C1938.37,2489.05 1967.26,2460.5 2009.83,2463.58C2056.84,2466.99 2108.06,2490.83 2152.31,2507.29C2222.43,2533.37 2305.42,2556.83 2380.44,2557.61C2394.08,2553.73 2406.65,2552.68 2422.21,2548.05C2412.51,2554.7 2409.7,2556.92 2398.47,2561.05C2315.7,2600.93 2177.79,2615.74 2107.91,2542.98C2107.55,2544.55 2107.15,2546.1 2106.73,2547.65C2099.58,2573.34 2071.77,2572.33 2051.18,2564.76C2022.55,2554.24 2001.14,2533.81 1988.35,2506.53C1986.57,2512.22 1985.63,2514.77 1984.88,2520.83C1987.39,2536.89 1988.96,2542.93 1993.9,2558.42C1960.2,2549.18 1935,2541.54 1909.12,2515.83Z" style="fill:rgb(253,251,228);fill-rule:nonzero;"/>
    <path d="M2422.21,2548.05C2412.51,2554.7 2409.7,2556.92 2398.47,2561.05L2394.47,2558.19C2388.97,2558.52 2386.02,2558.5 2380.44,2557.61C2394.08,2553.73 2406.65,2552.68 2422.21,2548.05Z" style="fill:rgb(254,246,223);fill-rule:nonzero;"/>
    <path d="M1984.88,2520.83C1983.59,2511.38 1983.78,2509.69 1985.16,2500.2L1986.88,2499.95L1988.35,2506.53C1986.57,2512.22 1985.63,2514.77 1984.88,2520.83Z" style="fill:rgb(96,116,100);fill-rule:nonzero;"/>
    <path d="M1832.28,2863.23C1834.9,2862.35 1833.37,2862.51 1836.87,2863.52L1835.93,2867.22C1834.73,2867.44 1832.58,2867.17 1831.23,2867.09L1832.28,2863.23Z" style="fill:rgb(33,68,41);fill-rule:nonzero;"/>
    <path d="M1789.27,1876.44C1814.91,1875.6 1833.32,1877.23 1857.79,1884.81C1863.84,1887.43 1891.34,1899.75 1895.93,1900.8C1942.98,1928.18 1972.99,1947.24 2015.69,1980.62C2088.72,2037.71 2143.72,2120.85 2236.59,2140.36C2242.25,2084.94 2234.17,2047.21 2204.55,1999.55C2225.7,2016.06 2250.27,2038.54 2265.93,2060.49C2270.64,2068.8 2275.96,2077.18 2278.88,2086.19C2308.26,2219.8 2159.22,2273.63 2059.3,2311.1C2047.05,2315.13 2037.71,2317.79 2026.45,2324.42L2018.22,2327.31C2003.02,2320.43 1967.17,2320.59 1939.69,2310.44C1930.49,2306.71 1921.66,2303.77 1912.62,2299.48C1832.68,2261.62 1779.74,2156.6 1813.89,2071.52C1825.54,2042.51 1840.19,2024.29 1862.26,2002.19C1795.62,1980.54 1784.9,1966.15 1716,1974.79C1726.23,1939.81 1757.18,1894.12 1789.27,1876.44Z" style="fill:rgb(15,58,38);fill-rule:nonzero;"/>
    <path d="M1939.69,2310.44C1968.46,2300.64 2022.45,2305.7 2053,2310.23L2059.3,2311.1C2047.05,2315.13 2037.71,2317.79 2026.45,2324.42L2018.22,2327.31C2003.02,2320.43 1967.17,2320.59 1939.69,2310.44Z" style="fill:rgb(33,68,41);fill-rule:nonzero;"/>
    <path d="M1912.39,2049.98C1937.18,2050.77 1946.81,2064.61 1960.86,2082.55C1937.08,2110.49 1933.63,2141.73 1947.53,2175.59C1959.87,2205.63 1998.44,2242.45 2033.21,2225.12C2052.19,2215.67 2060.74,2193.3 2066.26,2174.22C2092.89,2192.81 2105.97,2197.15 2137.36,2205.44L2119.01,2219.48C2076.17,2248.27 2020.5,2279.2 1968.87,2259.96C1933.15,2246.64 1896.12,2216.15 1879.8,2181.44C1861.02,2141.46 1866.65,2069.24 1912.39,2049.98Z" style="fill:rgb(254,246,223);fill-rule:nonzero;"/>
    <path d="M2356.21,1489.89L2370.71,1473.68C2371.74,1485.88 2372.43,1498.14 2374.82,1510.12C2380.37,1566.15 2407.56,1645.32 2437.16,1694.22C2428.83,1722.59 2420.24,1750.93 2409.62,1778.55L2409.63,1775.1C2409.87,1756.91 2414.28,1745.6 2419.87,1728.61L2417.37,1733.17C2418.35,1729.4 2420.99,1723.05 2419.18,1720.97C2401.94,1701.21 2378.36,1682.53 2358.64,1665.32C2349.74,1657.55 2337.9,1637.45 2328.84,1630.68C2317.59,1641.39 2328.66,1660.17 2319.14,1661.07C2306.05,1689.22 2280.62,1787.38 2279.05,1815.67C2276.13,1813.09 2273.24,1810.47 2270.39,1807.8C2270.22,1796.79 2270.33,1787.96 2268.56,1776.99C2260.66,1702.08 2270.47,1652.02 2296.2,1582.67C2303.64,1565.89 2309.18,1547 2320.77,1534.06C2330.62,1523.26 2344.13,1503.56 2356.21,1489.89Z" style="fill:url(#_Linear1);fill-rule:nonzero;"/>
    <path d="M2296.2,1582.67C2303.64,1565.89 2309.18,1547 2320.77,1534.06C2316.2,1560.26 2321.88,1570.83 2296.2,1582.67Z" style="fill:rgb(104,70,28);fill-rule:nonzero;"/>
    <path d="M2356.21,1489.89L2370.71,1473.68C2371.74,1485.88 2372.43,1498.14 2374.82,1510.12C2369.78,1503.94 2369.29,1502.89 2366.55,1495.47L2365.28,1491.97L2356.21,1489.89Z" style="fill:rgb(104,70,28);fill-rule:nonzero;"/>
    <path d="M2280.52,2176.46C2285.13,2178.94 2283.88,2177.86 2287.07,2181.56L2284.87,2184.78L2281.49,2186.47C2278.24,2182.42 2279.67,2184.42 2280.52,2176.46Z" style="fill:rgb(104,70,28);fill-rule:nonzero;"/>
    <path d="M2279.68,2200.73C2281.36,2199.67 2280.21,2200.22 2283.41,2199.87L2282.47,2205.38L2279.23,2205.33L2279.68,2200.73Z" style="fill:rgb(104,70,28);fill-rule:nonzero;"/>
    <path d="M2004.21,1423.1C2038.35,1447.01 2077.85,1461.49 2117.07,1474.62C2122.3,1481.24 2126.89,1489.24 2131.36,1496.47C2145.53,1521.16 2162.91,1540.27 2173.4,1566.43C2156.82,1555.22 2115.33,1569.31 2100.9,1557.47C2095.15,1552.74 2082.35,1542.62 2076.06,1541.3C2074.79,1548.85 2078.27,1550.63 2080.4,1557.98C2088.16,1584.71 2084.01,1615.11 2092.89,1642.73C2093.52,1646.98 2095.45,1654.28 2093.99,1657.31C2087.26,1673.06 2096.56,1690.79 2098.01,1704.4C2098.55,1709.58 2091.99,1721.39 2092.13,1738.57C2075.56,1662.57 2063.45,1618.7 2040.23,1544.94C2030.49,1507.28 2016.2,1460.04 2004.21,1423.1Z" style="fill:rgb(119,74,29);fill-rule:nonzero;"/>
    <path d="M2004.21,1423.1C2038.35,1447.01 2077.85,1461.49 2117.07,1474.62C2122.3,1481.24 2126.89,1489.24 2131.36,1496.47C2119.72,1484.81 2118.79,1482.81 2103.54,1476.65C2086.81,1469.9 2069.95,1459.76 2051.94,1456.38C2040.79,1454.29 2037.19,1445.3 2025.87,1444.8C2008.62,1458.15 2050.54,1526.86 2040.23,1544.94C2030.49,1507.28 2016.2,1460.04 2004.21,1423.1Z" style="fill:rgb(104,70,28);fill-rule:nonzero;"/>
    <path d="M2725.89,1715.93C2738.5,1713.52 2760.07,1712.79 2772.65,1714.57L2773.92,1716.54L2769.32,1718.68C2715.76,1745.42 2693.38,1760.49 2645.87,1797.69C2636.62,1785.29 2601.58,1799.27 2585.53,1795.19C2572.58,1782.56 2571.59,1791.66 2551.83,1786.86C2555.31,1779.83 2555.56,1782.56 2554.92,1776.36C2551.75,1779.34 2553.54,1778.68 2549.77,1778.88L2541.67,1770.32C2581.3,1744.6 2680.35,1721.7 2725.89,1715.93Z" style="fill:rgb(104,70,28);fill-rule:nonzero;"/>
    <path d="M2725.89,1715.93C2738.5,1713.52 2760.07,1712.79 2772.65,1714.57L2773.92,1716.54L2769.32,1718.68C2754.42,1713.3 2744.38,1722.89 2725.89,1715.93Z" style="fill:rgb(89,76,36);fill-rule:nonzero;"/>
    <path d="M2341.96,2213.49L2339.81,2213.08C2337.82,2203.34 2338.88,2193.46 2333.52,2184.84C2331.29,2181.25 2329.99,2177.83 2329.07,2173.72C2331.21,2171.18 2331.86,2170.67 2334.52,2168.89L2332.38,2160.38L2332.92,2161.46L2327.88,2137.4C2330.19,2133.13 2330.37,2132.63 2331.78,2127.97L2329.52,2125.32L2323.57,2125.24L2323.57,2121.52C2329.14,2115.29 2330.18,2114.8 2332.04,2106.99C2327.15,2086.91 2329.32,2058.96 2330.21,2037.88L2330.91,2037.42C2331.06,2045.63 2330.84,2051.21 2332.48,2059.21C2337.32,2054.08 2342.05,2031.03 2347.74,2019.63L2349.23,2020.23C2349.98,2039 2350.56,2053.76 2353.15,2072.5C2336.28,2126.07 2334.25,2157.53 2341.96,2213.49ZM2092.89,1642.73C2084.01,1615.11 2088.16,1584.71 2080.4,1557.98C2078.27,1550.63 2074.79,1548.85 2076.06,1541.3C2082.35,1542.62 2095.15,1552.74 2100.9,1557.47C2115.33,1569.31 2156.82,1555.22 2173.4,1566.43C2197.16,1628.33 2223.39,1687.55 2244.07,1750.47C2243,1749.47 2225.78,1729.62 2225.42,1728.97C2229.4,1725.9 2227.49,1727.51 2231.14,1724.14C2227.37,1709.13 2229.95,1707.34 2215.52,1703.3L2214.23,1699.78C2216.29,1696.21 2217.09,1694.74 2218.66,1690.95L2192.99,1632.44C2188.02,1629.6 2190.68,1630.62 2184.42,1630.69C2181.36,1626.5 2181.91,1628.76 2182.38,1623.99C2186.72,1622.57 2184.68,1623.48 2188.52,1621.31C2185.22,1610.03 2171.94,1574.73 2163.16,1567.43C2148.49,1569.08 2142.99,1569.93 2128.85,1573.9C2111.9,1566.95 2117.08,1572.97 2106.02,1573.14C2102.84,1573.19 2092.74,1563 2084.99,1560.98L2086.65,1567.43L2088.72,1566.81C2088.78,1571.38 2088.01,1574.51 2087.28,1579.01C2093.22,1591.24 2089.92,1620.59 2095.94,1637.88L2092.89,1642.73ZM2093.99,1657.31C2102.57,1686.98 2101.79,1722.71 2104.76,1753.26C2106.2,1768.06 2102.68,1782.03 2113.71,1793L2112.79,1795.32L2108.17,1791.08C2104.37,1796.7 2105.14,1811.39 2101.86,1822.74C2097.96,1798.22 2095.27,1764.21 2092.13,1738.57C2091.99,1721.39 2098.55,1709.58 2098.01,1704.4C2096.56,1690.79 2087.26,1673.06 2093.99,1657.31ZM2516.83,1781.86C2523.72,1777.74 2534.08,1773.65 2541.67,1770.32L2549.77,1778.88C2553.54,1778.68 2551.75,1779.34 2554.92,1776.36C2555.56,1782.56 2555.31,1779.83 2551.83,1786.86C2571.59,1791.66 2572.58,1782.56 2585.53,1795.19C2601.58,1799.27 2636.62,1785.29 2645.87,1797.69L2643.57,1799.08C2631.72,1794.57 2628.15,1796.88 2619.06,1804.22L2617.67,1799.66C2612.87,1797.31 2591.77,1800.14 2583.02,1799.63C2564.16,1798.51 2530.55,1778.94 2516.83,1781.86Z" style="fill:rgb(138,86,32);"/>
    <path d="M2736.45,3540.08C2755.31,3557.18 2793.57,3612.46 2805.24,3635.11C2798.11,3635.13 2785.66,3627.82 2779.76,3623.53L2782.66,3620.36C2787.96,3623.53 2787.14,3624.37 2791.73,3624.26C2782.04,3603.37 2741.38,3559.74 2736.45,3540.08Z" style="fill:rgb(160,98,32);fill-rule:nonzero;"/>
    <path d="M2070.08,1869.12C2088.75,1882.73 2117.05,1920.56 2125.03,1941.59L2123.76,1944.07C2119.51,1942.33 2118.06,1941.86 2114.23,1939.4C2114.74,1923.56 2082.46,1885.18 2069.95,1873.55L2070.08,1869.12Z" style="fill:rgb(138,86,32);fill-rule:nonzero;"/>
    <path d="M1857.79,1884.81L1861.32,1880.8C1877.94,1877.69 1891.37,1879.76 1907.96,1881.63C1906.03,1882.77 1903.63,1884.19 1900.75,1885.89C1892.4,1885.06 1882.51,1878.53 1879.56,1889.46C1884.59,1892.95 1889.96,1894.32 1895.78,1896.31C1896.3,1900.08 1896.57,1898.61 1895.93,1900.8C1891.34,1899.75 1863.84,1887.43 1857.79,1884.81Z" style="fill:rgb(138,86,32);fill-rule:nonzero;"/>
    <path d="M1996.61,2338.5C2001.02,2341.32 2001.85,2341.58 2005.69,2345.02C1999.73,2344.91 1994.14,2344.08 1988.95,2346.6L1991.5,2351.52C1986.01,2354.43 1988.74,2354.3 1983.31,2353.28L1980.76,2348.49C1964.83,2348.36 1972.31,2360.98 1932.88,2354.54C1960.89,2350.41 1970.58,2348.65 1996.61,2338.5Z" style="fill:rgb(160,98,32);fill-rule:nonzero;"/>
    <path d="M2265.93,2060.49L2272.06,2057.75C2281.12,2065.14 2282.34,2067.62 2290.06,2076.05L2281.9,2074.9C2278.49,2079.18 2279.54,2079.71 2278.88,2086.19C2275.96,2077.18 2270.64,2068.8 2265.93,2060.49Z" style="fill:rgb(138,86,32);fill-rule:nonzero;"/>
    <path d="M2268.56,1776.99C2270.33,1787.96 2270.22,1796.79 2270.39,1807.8C2270.26,1813.66 2269.77,1819.05 2269.32,1824.87L2267.85,1824.02L2265,1812.01C2269.44,1805.61 2268.34,1786.58 2268.56,1776.99Z" style="fill:rgb(36,78,37);fill-rule:nonzero;"/>
    <path d="M2480.4,1983.73C2475.8,1988.16 2477.93,1987.33 2472.39,1988.83C2473.85,1983.6 2476.69,1981.41 2480.41,1976.92L2480.4,1983.73Z" style="fill:rgb(36,78,37);fill-rule:nonzero;"/>
    <path d="M2246.05,2955.25C2311.58,2933.98 2356.99,2925.7 2422.57,2958.37C2456.51,2975.28 2475.06,2996.01 2488.82,3031.34C2417.88,2948.86 2394.51,3052.21 2395.56,3110.75C2396.42,3158.72 2403.15,3181.7 2414.05,3226.61C2385.89,3186.02 2371.31,3154.87 2352.74,3109.35C2347.88,3097.43 2274,2971.76 2246.05,2955.25Z" style="fill:rgb(15,58,38);fill-rule:nonzero;"/>
    <path d="M1796.69,393.749C1835.33,355.538 1892.39,313.113 1948.93,312.405C2000.54,311.759 2016.57,359.17 2014.06,402.424C2013.08,417.161 2010.71,431.773 2006.98,446.063C1999.77,469.109 1987.18,524.957 1973.63,540.241L1976.91,543.613C1981.52,534.8 1984.1,531.562 1990.17,523.498C1994.85,509.841 2019.91,493.338 2031.35,483.1C2152.74,374.413 2318.11,289.165 2476.07,377.817C2500.71,391.65 2515.48,410.442 2521.8,438.29C2516.84,446.209 2498.8,470.901 2489.81,472.407C2480.59,485.23 2458.28,503.699 2446.13,515.494C2413.65,547.004 2356.12,597.842 2330.91,634.903L2335.1,636.917C2392.48,607.313 2492.42,590.397 2556.62,598.204C2617.28,592.067 2776.74,649.028 2692.71,732.096C2678.85,745.788 2649.11,768.809 2631.73,779.065C2614.41,791.481 2570.84,817.198 2560.52,831.366L2559.95,835.5C2565.07,839.371 2589.13,844.309 2597.62,846.727C2692.6,867 2773.14,908.204 2828.02,992.378C2861.69,1044 2882.33,1110.46 2817.44,1152.06C2766.32,1184.83 2693.25,1172.69 2638.08,1159.39C2625.37,1156.31 2589.31,1145.68 2579.42,1139.25C2564.33,1135.24 2549.74,1129.53 2535.94,1122.23C2543.1,1133.38 2550.85,1144.86 2556.98,1156.52C2568.98,1174.79 2590.78,1219.53 2585.24,1241.94C2580.13,1262.57 2567.79,1268.74 2551.55,1279.12C2500.4,1274.07 2454.76,1225.82 2418.48,1190.39C2386.09,1162.09 2330.99,1119.66 2291.71,1106.09C2323.54,1178.98 2403.22,1316.29 2294.76,1363.63C2253.52,1381.62 2192.55,1370.02 2152.41,1353.23C2087.88,1325.59 2024.47,1249.93 1985.48,1192.28C1968.51,1167.2 1952.97,1132.62 1937.7,1106.87C1914.15,1135.25 1895.14,1165.77 1873.63,1192.62C1832.65,1243.75 1764.9,1295.36 1703.89,1318.52C1683.9,1326.1 1658.66,1339.31 1637.44,1342.45C1620.11,1349.39 1575.71,1355.29 1559.14,1350.84C1478.09,1329.05 1516.04,1216.49 1531.41,1162.52C1538.73,1136.79 1542.67,1113.92 1548.67,1090.3L1550.57,1088.69C1558.84,1081.51 1559.76,1082.72 1563.57,1072L1560.42,1068.56L1556.96,1069.34C1556.96,1069.34 1533.13,1081.27 1530.55,1082.47C1432.18,1127.99 1300.86,1176.72 1200.9,1107.78C1238.99,1062.42 1287.42,1046.88 1341.69,1026.77C1354.13,1022.16 1369.39,1018.44 1381.1,1013.35L1369.61,1005.29C1356.99,998.015 1341.34,990.83 1327.61,985.473C1268.87,962.555 1163.84,902.425 1164.06,829.061C1161.65,819.874 1188.91,767.229 1208.17,771.469C1283.61,730.847 1393.44,742.886 1472.2,766.376C1477.92,768.085 1483.62,769.835 1489.31,771.627C1497.1,773.527 1508.89,775.684 1515.32,779.725C1519.93,781.194 1519.95,780.98 1524.85,780.909C1515.06,763.679 1404.17,705.942 1378.17,686.894C1315.86,641.258 1203.6,580.914 1292.8,494.387C1345.52,443.249 1412.21,432.764 1482.84,434.247L1501.57,436.569C1590.06,453.164 1642.58,501.428 1692.57,571.757C1710.58,499.683 1744.92,446.862 1796.69,393.749Z" style="fill:rgb(77,106,35);fill-rule:nonzero;"/>
    <path d="M1976.91,543.613C1975.66,549.599 1976.06,549.547 1972.42,554.324L1970.21,552.619C1970.15,546.305 1970.91,545.844 1973.63,540.241L1976.91,543.613Z" style="fill:rgb(43,86,44);fill-rule:nonzero;"/>
    <path d="M2335.1,636.917C2329.97,640.533 2329.64,641.368 2323.34,642.256L2323.75,639.201L2330.91,634.903L2335.1,636.917Z" style="fill:rgb(69,99,25);fill-rule:nonzero;"/>
    <path d="M2217.28,518.109C2225.57,505.665 2266.03,495.498 2282,489.474C2272.2,504.409 2262.72,516.601 2251.73,530.679C2247.48,536.122 2246.98,540.156 2241.44,546.256C2206.76,597.309 2168.39,644.559 2138.29,698.728C2124.57,723.399 2107.42,746.445 2097.86,773.29C2098.78,778.241 2098.3,780.521 2099.49,786.146C2088.44,796.033 2095.41,785.136 2088.7,792.26C2086.48,794.615 2087.7,793.756 2086.23,794.625C2078.96,806.241 2075.51,815.216 2069.71,825.507L2073.93,827.121L2077.24,824.673L2075.42,827.343L2078.57,826.786C2077.13,821.498 2076.82,824.031 2078.64,819.029C2089.17,814.22 2082.58,823.325 2092.17,819.317C2102.95,814.818 2103.51,806.892 2116.17,808.705C2194.81,763.747 2361.32,716.319 2459.84,730.661C2460.42,730.889 2461.01,731.116 2461.59,731.344C2455.86,738.222 2446.09,743.879 2438.61,748.986C2377.74,790.548 2327.33,838.972 2275.89,891.09C2284.69,892.384 2333.86,900.591 2338.52,904.293C2358.59,920.238 2368.35,916.183 2390.02,925.406C2437.48,945.606 2485.22,978.916 2524.06,1012.83C2535.16,1021.11 2550.68,1037.37 2560.5,1047.89C2547.51,1044.11 2531.29,1038.91 2518.32,1036.62C2514.73,1034.7 2511.85,1033.25 2507.89,1032.16C2467.03,1020.96 2427.25,1006.78 2385.79,997.002C2367.03,992.58 2284.31,981.827 2275.52,973.098C2274.65,972.238 2273.83,971.337 2272.98,970.456C2270.44,971.959 2268.7,973.048 2266.28,974.641C2258.32,972.374 2260.81,973.114 2254.26,966.593C2253.69,966.845 2247.33,969.662 2247.25,969.646C2234.14,967.11 2218.95,965.679 2205.91,964.829L2058.6,956.637C2087.38,1006.8 2115.7,1059.09 2127.09,1115.91C2128.39,1122.4 2132.2,1139.47 2129.97,1145.26C2117.98,1136.75 2104.14,1121.64 2093.46,1110.89C2063.22,1080.45 2030.1,1053.83 2014.29,1012.64L2009.48,1010.77L2007.91,1004.19C1993.94,1000.95 1995.93,990.612 1983.87,977.318L1976.19,980.864L1974.93,983.202C1948.9,987.358 1909.32,1013.77 1880.32,1011.53C1858.63,1009.86 1834.01,1009.86 1812.93,1008.33C1734.21,1002.59 1650.16,975.195 1596.26,914.794C1595.45,914.264 1593.23,911.733 1592.45,910.907L1594.79,908.759C1608.92,909.14 1622.61,908.972 1636.45,911.825C1640.59,912.097 1682.11,917.269 1678.27,918.889C1701.35,909.161 1785.05,931.8 1800.68,929.423C1792.79,915.77 1783.98,910.154 1774.14,898.494C1769.6,893.106 1762.7,881.432 1758.74,874.833C1747.28,855.98 1736.89,836.506 1727.59,816.501C1722,804.633 1718.48,792.658 1711.88,782.225C1709.5,770.172 1708.19,765.234 1705.15,753.676C1700.09,734.14 1695.4,714.511 1691.08,694.799C1746.86,726.634 1784.98,747.525 1834.38,791.82C1851.93,807.553 1896.28,856.707 1909.89,866.627L1911.14,865.561L1910.75,863.656C1909.2,855.959 1908.98,853.501 1908.93,845.7L1906.45,842.035C1902.31,845.343 1903.73,844.347 1898.63,846.319L1896.49,844.593C1897.45,836.925 1900.75,834.292 1904.49,827.575C1903.5,804.356 1902.6,736.318 1913.78,717.595C1912.46,689.554 1914.67,677.424 1921.66,650.618C1939.17,672.85 1946.71,683.167 1958.29,710.284C1961.17,717.032 1974.88,753.877 1977.53,756.296C1985.87,746.472 1995.86,725.408 2002.54,713.266C2019.2,682.938 2040.76,653.777 2066.78,630.908L2068.37,629.529C2079.75,618.547 2092.52,607.668 2104.44,597.16C2129.03,570.567 2181.58,532.886 2214.2,517.041L2217.28,518.109Z" style="fill:rgb(130,140,27);fill-rule:nonzero;"/>
    <path d="M2217.28,518.109C2225.57,505.665 2266.03,495.498 2282,489.474C2272.2,504.409 2262.72,516.601 2251.73,530.679C2247.48,536.122 2246.98,540.156 2241.44,546.256C2239.33,543.644 2238.5,542.532 2236.65,539.867C2242.71,527.243 2257.7,519.546 2264.8,506.926L2263.16,504.116C2249.33,501.572 2234.48,512.283 2217.28,518.109Z" style="fill:rgb(109,123,18);fill-rule:nonzero;"/>
    <path d="M2524.06,1012.83C2535.16,1021.11 2550.68,1037.37 2560.5,1047.89C2547.51,1044.11 2531.29,1038.91 2518.32,1036.62L2524.86,1031.35C2529.13,1031.93 2530.57,1032.15 2534.85,1032.08C2534.38,1026.52 2527.63,1018.19 2524.06,1012.83Z" style="fill:rgb(109,123,18);fill-rule:nonzero;"/>
    <path d="M2069.71,825.507L2073.93,827.121L2077.24,824.673L2075.42,827.343L2078.57,826.786C2077.13,821.498 2076.82,824.031 2078.64,819.029C2089.17,814.22 2082.58,823.325 2092.17,819.317C2102.95,814.818 2103.51,806.892 2116.17,808.705C2095.06,822.645 2071.84,833.937 2052.33,848.454C2058.91,840.771 2065.02,834.456 2069.71,825.507Z" style="fill:rgb(69,99,25);fill-rule:nonzero;"/>
    <path d="M2104.44,597.16L2107.93,608.075L2105.78,609.75L2098.68,607.77C2092.52,615.665 2095.98,619.644 2087.64,627.726L2084,627.692L2080.77,623.482C2076.75,625.792 2072.63,627.677 2068.37,629.529C2079.75,618.547 2092.52,607.668 2104.44,597.16Z" style="fill:rgb(109,123,18);fill-rule:nonzero;"/>
    <path d="M1983.87,977.318C1987.49,973.427 1988.88,973.648 1994.14,971.526L1997.63,972.301L1998.2,975.126L1993.91,980.948C1999.71,992.429 2003.36,996.022 2007.91,1004.19C1993.94,1000.95 1995.93,990.612 1983.87,977.318Z" style="fill:rgb(109,123,18);fill-rule:nonzero;"/>
    <path d="M1596.26,914.794C1595.45,914.264 1593.23,911.733 1592.45,910.907L1594.79,908.759C1608.92,909.14 1622.61,908.972 1636.45,911.825C1624.16,912.915 1622.76,911.15 1613.77,921.296C1608.85,918.676 1610.46,919.324 1606.85,914.014C1601.26,912.626 1601.67,912.706 1596.26,914.794Z" style="fill:rgb(109,123,18);fill-rule:nonzero;"/>
    <path d="M2097.86,773.29C2098.78,778.241 2098.3,780.521 2099.49,786.146C2088.44,796.033 2095.41,785.136 2088.7,792.26C2086.48,794.615 2087.7,793.756 2086.23,794.625L2083.93,789.191C2088.29,783.669 2092.51,777.773 2097.86,773.29Z" style="fill:rgb(69,99,25);fill-rule:nonzero;"/>
    <path d="M1904.49,827.575L1909.96,827.053C1904.93,836.255 1905.4,832.445 1906.45,842.035C1902.31,845.343 1903.73,844.347 1898.63,846.319L1896.49,844.593C1897.45,836.925 1900.75,834.292 1904.49,827.575Z" style="fill:rgb(69,99,25);fill-rule:nonzero;"/>
    <path d="M1974.93,983.202C1969.99,975.624 1970.07,979.029 1971.33,972.544L1974.18,973.899L1976.19,980.864L1974.93,983.202Z" style="fill:rgb(109,123,18);fill-rule:nonzero;"/>
    <path d="M1502.28,529.109L1505.65,531.279C1505.76,536.939 1503.56,538.341 1500.15,544.146C1496.47,540.361 1497.57,542.704 1496.33,537.258L1502.28,529.109Z" style="fill:rgb(69,99,25);fill-rule:nonzero;"/>
    <path d="M1517.44,589.005C1518.72,588.777 1517.66,588.869 1521.91,589.175L1518.52,591.168C1517.28,591.416 1518.3,591.319 1514.32,590.976L1517.44,589.005Z" style="fill:rgb(43,86,44);fill-rule:nonzero;"/>
    <path d="M1472.67,680.435C1476.36,678.785 1474.55,678.909 1478.05,679.638L1475.05,683.195L1471.47,683.098L1472.67,680.435Z" style="fill:rgb(69,99,25);fill-rule:nonzero;"/>
    <path d="M1427.23,532.745L1430.74,532.275L1429.41,535.288C1426.94,536.309 1428.55,535.787 1424.43,536.255L1427.23,532.745Z" style="fill:rgb(69,99,25);fill-rule:nonzero;"/>
    <path d="M1420.96,454.836L1424.48,454.88L1423.62,457.693C1420.33,458.938 1422.17,458.592 1418.03,458.339L1420.96,454.836Z" style="fill:rgb(43,86,44);fill-rule:nonzero;"/>
    <path d="M1453.66,772.491L1456.77,772.317L1454.78,775.074C1452.61,776.292 1454.03,775.673 1450.31,776.333L1453.66,772.491Z" style="fill:rgb(43,86,44);fill-rule:nonzero;"/>
    <path d="M1521.35,831.06C1523.52,829.82 1522.1,830.471 1525.83,829.679L1522.27,833.163L1519.42,834.086L1521.35,831.06Z" style="fill:rgb(43,86,44);fill-rule:nonzero;"/>
    <path d="M1414.25,576.824L1417.35,577.231L1414.68,579.629C1411.91,579.898 1413.34,580.123 1410.49,578.531L1414.25,576.824Z" style="fill:rgb(69,99,25);fill-rule:nonzero;"/>
    <path d="M1436.84,525.307L1440.81,523.674L1437.54,526.401C1435.57,528.382 1436.78,527.652 1433.81,528.409L1436.84,525.307Z" style="fill:rgb(69,99,25);fill-rule:nonzero;"/>
    <path d="M1708.17,784.673C1709.21,782.702 1708.34,783.9 1711.88,782.225C1710.8,783.938 1711.69,782.755 1708.17,784.673Z" style="fill:rgb(69,99,25);fill-rule:nonzero;"/>
    <path d="M2827.61,1356.93C2879.85,1314.96 3064.25,1257.89 3114.49,1320.42C3124,1332.27 3128.4,1347.42 3126.71,1362.52C3125.36,1373.74 3119.37,1387.99 3111.25,1396.01C3110.04,1376.73 3135.75,1357.44 3115.74,1330.38C3084.44,1288.06 3031.19,1297.58 2985.7,1303.04C2977.43,1304.03 2964.3,1310.93 2955.7,1309.28C2943.83,1304.03 2940.46,1317.41 2926.85,1320.73L2928.7,1315.27L2926.51,1319.14L2928.89,1315.76C2906.12,1313.55 2847.64,1357.76 2827.61,1356.93Z" style="fill:rgb(43,86,44);fill-rule:nonzero;"/>
    <path d="M2940.6,1593.86C2940.78,1598.43 2939.89,1596.85 2942.01,1599.97C2949.77,1594.62 2983.71,1594.81 2994.66,1594.9L2994.27,1595.87L2980.49,1597.42C2979.63,1597.57 2978.78,1597.72 2977.92,1597.87C2964.08,1594.87 2935.22,1610.71 2924.64,1606.9C2932.36,1602.12 2934.82,1600.73 2940.6,1593.86Z" style="fill:rgb(43,86,44);fill-rule:nonzero;"/>
    <path d="M2655.85,1378.67C2658.07,1377.47 2656.69,1377.9 2660.17,1378.18L2657.57,1381.68C2655.24,1383.13 2656.65,1382.71 2653.15,1382.07L2655.85,1378.67Z" style="fill:rgb(36,78,37);fill-rule:nonzero;"/>
    <path d="M2944.31,1498.76L2948.87,1497.6L2947.22,1502.54L2943.16,1501.87L2944.31,1498.76Z" style="fill:rgb(43,86,44);fill-rule:nonzero;"/>
    <path d="M3225.8,858.707C3255.68,856.549 3280.56,855.759 3301.91,880.485C3313.46,892.911 3319.63,912.141 3317.57,929.348C3308.74,1002.99 3234.52,1065.95 3182.17,1110.32C3184.63,1109.96 3187.09,1109.66 3189.57,1109.43C3314.1,1098.24 3563.51,1088.34 3593.41,1247.59C3602.55,1296.26 3531.78,1329.63 3495.93,1342.09C3475.69,1349.13 3357.97,1368.78 3354.66,1372.56C3360.16,1382.23 3404.37,1402.8 3417.04,1410.69C3548,1492.29 3631.11,1571.98 3639.97,1735.32C3582.89,1718.08 3545.89,1707.63 3510.45,1660.9C3497.5,1643.32 3484.64,1622.87 3473.32,1605.08C3424.39,1528.17 3360.61,1456.47 3270.16,1430.56C3247.66,1424.12 3232.26,1411.29 3220.18,1391.14C3220.06,1387.41 3219.64,1375.27 3220.64,1372.21C3230.41,1342.23 3271.15,1317.11 3295.99,1303.17C3163.27,1231.17 3104.54,1209.33 2951.65,1201.91C2997.39,1173.63 3046.33,1119.54 3080.41,1078.28C3092.71,1063.38 3106.11,1039.34 3121.42,1029.53C3071.67,1033.41 3002.06,1059.11 2961.2,1086.94C2957.5,1044.45 2955.13,1015.75 2941.26,974.446C3027.3,917.332 3123.32,874.307 3225.8,858.707ZM1155.61,1354.88C1237.49,1356.78 1282.63,1363.88 1347.64,1424.96C1352.9,1429.9 1358.11,1441.53 1361.99,1446.3C1386.13,1475.96 1393.16,1498.23 1391.1,1536.72C1351.3,1564.68 1299.32,1579.21 1250.68,1580.18C1240.1,1580.39 1215.89,1576.67 1207.44,1577.52C1213.2,1585.04 1217.93,1585.72 1224.92,1591.39C1244.78,1607.49 1269.6,1626.54 1273.33,1653.38C1275.7,1670.46 1269.26,1690.79 1258.76,1702.91C1239.51,1725.13 1189.83,1768.12 1166.48,1782.61C1126.58,1807.37 1023.57,1856.46 980.501,1863.14C960.287,1864.46 931.459,1863.47 940.043,1832.65C955.929,1775.62 1021.72,1735.55 1073.16,1713.91C1086.01,1708.5 1114.12,1698.7 1124.55,1691.97C1120.53,1690.36 1105.8,1691.76 1100.43,1691.86C1026.07,1693.27 926.237,1636.86 1001.14,1555.97C1008.3,1548.16 1016.56,1541.41 1025.64,1535.95C1071.33,1509.01 1162.63,1480.15 1218.24,1470.75C1225.27,1469.56 1237.18,1472.03 1244.56,1467.51C1243.7,1462.77 1221.97,1451.16 1216.2,1447.91C1174.66,1424.58 1152.12,1394.98 1124.59,1357.36L1155.61,1354.88ZM2827.61,1356.93C2879.85,1314.96 3064.25,1257.89 3114.49,1320.42C3124,1332.27 3128.4,1347.42 3126.71,1362.52C3125.36,1373.74 3119.37,1387.99 3111.25,1396.01C3089.65,1428.19 3038.77,1470.8 3008.88,1497.37C3093.23,1473.24 3165.41,1472.27 3247.54,1510.03C3288.08,1529.7 3369.71,1612.1 3380.31,1653.15C3407.66,1759.08 3220.72,1727 3167.53,1715.23C3147.69,1710.84 3082.65,1691.29 3071.91,1694.39L3107.17,1732.76C3158.03,1788.79 3224.73,1871.21 3224.36,1950.26C3223,1989.53 3175.32,2001.22 3143.93,1995.79C3037.12,1977.31 2945.9,1899.76 2878.4,1818.52C2873.21,1812.27 2862.86,1800.41 2863.7,1793L2858.89,1788.79C2901.34,1783.52 2971.53,1809.17 3013.04,1822.46C2972.07,1764.59 2848.32,1618.66 2772.14,1623.9C2763.2,1624.51 2737.6,1629.3 2726.89,1630.96C2693.33,1636.15 2659.05,1634.11 2626.34,1624.99C2567.34,1608.1 2491.42,1560.89 2515.07,1488.58C2529.08,1445.6 2559.57,1409.93 2599.84,1389.41C2633.72,1372.34 2676.18,1365.93 2712.59,1377.87C2694.93,1412.75 2686.83,1453.62 2694.3,1492.34L2696.73,1493.47C2700.88,1490.66 2699.36,1491.43 2701.29,1487.92C2725.92,1443.18 2780.65,1378.93 2827.61,1356.93Z" style="fill:rgb(43,86,44);"/>
    <path d="M2890.9,612.674C2917,608.167 2979.48,612.355 2991.91,643.045C2996.8,655.126 3006.39,660.468 3006.67,673.582C3008.69,766.484 2950.36,843.982 2896.07,913.605C2891,907.229 2885.04,900.626 2879.67,894.424C2860.02,874.985 2827.99,849.217 2805.62,832.227C2793.93,823.349 2768.59,816.095 2753.58,802.47C2753.91,778.404 2830.04,744.172 2799.35,642.35C2827.56,626.397 2858.7,616.303 2890.9,612.674Z" style="fill:rgb(43,86,44);fill-rule:nonzero;"/>
    <path d="M2752.69,3368.5C2707.41,3348.23 2655.22,3299.03 2622.29,3261.55C2643.01,3268 2663.78,3274.27 2684.6,3280.36C2696.03,3281.44 2707.23,3283.38 2718.56,3285.19L2725.68,3281.02L2736.7,3285.01C2740.39,3284.3 2883.78,3319.04 2897.83,3318.66C2911.07,3316.65 2958.49,3316.42 2971.73,3318.18L2976.3,3312.92L2998.21,3320.96C3089.46,3350.57 3138.36,3388.75 3194.37,3467.76C3149.11,3452.33 3102.47,3441.32 3055.09,3434.9C2948.69,3419.76 2853.55,3422.94 2752.69,3368.5ZM1617.26,1477.76C1641.36,1482.83 1650.11,1483.47 1674.18,1482.35C1709.27,1480.71 1763.46,1458.74 1794.26,1472.34C1852.61,1504.45 1971.45,1626.11 2001.73,1683.39C1991.22,1676.8 1979.52,1657.85 1967.39,1647.14C1942.11,1624.84 1917.06,1611.79 1888.27,1594.72C1882.83,1595.99 1884.55,1594.87 1880.66,1598.24C1864.82,1582.93 1840.75,1568.98 1822.83,1552.87C1820.3,1554.04 1820.8,1555.08 1819.02,1558.98C1821.72,1569.18 1871.55,1636.1 1871.91,1652.16C1874.77,1655.91 1875.43,1657.09 1877.25,1661.19C1887.85,1685.03 1909.45,1711.09 1921.25,1733.23C1945.84,1779.33 1953.37,1818.23 2011.04,1832.84C2029.87,1837.61 2054.42,1855.65 2070.08,1869.12L2069.95,1873.55C2082.46,1885.18 2114.74,1923.56 2114.23,1939.4C2059.23,1907.39 1969.9,1891.41 1907.96,1881.63C1891.37,1879.76 1877.94,1877.69 1861.32,1880.8L1857.79,1884.81C1833.32,1877.23 1814.91,1875.6 1789.27,1876.44C1757.18,1894.12 1726.23,1939.81 1716,1974.79C1784.9,1966.15 1795.62,1980.54 1862.26,2002.19C1840.19,2024.29 1825.54,2042.51 1813.89,2071.52C1779.74,2156.6 1832.68,2261.62 1912.62,2299.48C1921.66,2303.77 1930.49,2306.71 1939.69,2310.44C1967.17,2320.59 2003.02,2320.43 2018.22,2327.31C2011.36,2332.23 2004.3,2335 1996.61,2338.5C1970.58,2348.65 1960.89,2350.41 1932.88,2354.54C1917.97,2352.95 1902.7,2354.48 1887.97,2351.34C1831.32,2339.26 1783.89,2298.9 1752.42,2252C1746.24,2252.86 1743.58,2256.62 1737.64,2259C1729.9,2313.84 1718.7,2373.71 1716.67,2429.16C1715.84,2451.99 1707.7,2611.02 1716.85,2624.23C1711.2,2639.19 1706.5,2655.65 1701.79,2671.03C1718.01,2650.51 1732.16,2630.82 1749.1,2610.3C1751.23,2617.8 1747.79,2631.97 1747.91,2641.64C1748.05,2653.26 1747.08,2666.74 1746.73,2678.49L1748.8,2670.8C1748.55,2681.35 1744.89,2716.83 1746.05,2721.99L1743.24,2725.15C1746.27,2727.66 1744.77,2727.16 1747.34,2727.59C1749.22,2757.78 1747.29,2787.52 1758.32,2816.72C1762.46,2827.71 1770.69,2839.49 1774.73,2850.33C1794.5,2877.24 1800.92,2885.2 1832.42,2899.36L1830.13,2900.21C1822.87,2897.75 1816.15,2895.41 1808.74,2893.42C1763.6,2917.65 1975.58,2970.23 2039.62,2960.17C1992.14,3003.5 1934.75,3040.32 1870.49,3050.94C1810.55,3060.85 1729.96,3062.35 1688.64,3009.96C1681.73,3027.25 1676.2,3045.93 1669.85,3063.53C1637.35,3153.67 1588.11,3234.34 1517.08,3299.48C1482.19,3330.87 1447.5,3367.31 1408.94,3393.98C1367.29,3422.78 1323.7,3448.51 1281.81,3477.25C1252.04,3497.68 1225.41,3520.38 1196.22,3540.89C1301.93,3537.9 1409.63,3507.5 1499.4,3452.98C1516.84,3442.39 1543.19,3429.4 1558.89,3417.25L1562.34,3417.71C1549.56,3431.79 1522.72,3446.41 1508.06,3458.32C1434.05,3518.49 1351.83,3532.67 1263.27,3558.48C1245.19,3563.75 1212.24,3573.95 1195.15,3582.37L1186.59,3585.97C1151.52,3601.05 1115.37,3613.99 1079.42,3629.62C1086,3605.07 1093.92,3583.28 1109.71,3562.41C1186.24,3461.22 1305.91,3395.56 1399.11,3310.56C1445.53,3268.23 1479.8,3228.12 1516.76,3179.37C1494.41,3195.02 1472.87,3213.14 1450.13,3228.67C1413.64,3253.59 1371.2,3277.02 1331.14,3295.67C1352.82,3271.17 1373.06,3244.82 1392.8,3219.82C1428.24,3174.96 1461.2,3132.23 1481.01,3078.19C1482.04,3075.4 1613.75,2739.99 1639.52,2574.76C1647.57,2523.15 1655.72,2441.61 1651.36,2390.05C1621.7,2504.83 1590.89,2612.71 1542.11,2720.79C1536.33,2733.61 1534.68,2758.33 1529.51,2772.71C1517.15,2807.11 1502.85,2840.69 1486.16,2873.22C1409.5,3030.64 1298.75,3087.78 1151.22,3167.18C1179.82,3128.2 1212.03,3091.87 1240.22,3051.9C1317.88,2941.77 1390.48,2823.24 1446.65,2700.69C1465.64,2659.25 1484,2605.46 1499.64,2562.4C1526.81,2481.67 1546.4,2381.84 1547.73,2296.37C1548.9,2221.21 1508.93,2136.65 1473.23,2071.53C1435.84,2001.3 1344.24,1913.45 1320.17,1850.25C1325.06,1851.89 1329.93,1853.6 1334.78,1855.36C1428.29,1889.6 1517.94,1952.18 1567.65,2039.76C1576.85,2055.97 1586.3,2077.41 1594.27,2094.6C1600.71,2042.24 1596.44,1998.81 1579.87,1948.28L1578.99,1944.98C1558.45,1868.63 1505.3,1786.99 1441.37,1740.34C1418.5,1723.64 1401.78,1714.71 1377.71,1700.97C1369.2,1698.5 1367.67,1697.37 1359.84,1692.86C1478.29,1684.92 1556.85,1742.09 1653.96,1791.99C1647.78,1740.15 1636.16,1717.9 1610.63,1674.21C1605.34,1667.27 1602.71,1663.42 1598.33,1655.88C1615.35,1663.21 1656.93,1681.07 1669.88,1692.57C1694.09,1707.38 1726.72,1729.05 1748.98,1746.51L1757.37,1753.17C1788.94,1778.89 1816.79,1806.79 1844.49,1836.52C1838.73,1806.21 1829.21,1776.75 1816.13,1748.81C1794.21,1701.49 1712.63,1579.15 1676.33,1539.69C1664,1526.22 1650.9,1513.48 1637.1,1501.51C1627.66,1493.49 1614.71,1484.91 1607.36,1475.91C1612.11,1474.21 1610.27,1475.12 1617.26,1477.76ZM2278.88,2086.19C2279.54,2079.71 2278.49,2079.18 2281.9,2074.9L2290.06,2076.05C2293.43,2086.54 2304.76,2137.91 2306.09,2147.61C2308.08,2162.11 2314.46,2236.43 2310.2,2238.3C2272.59,2254.83 2240.7,2281.35 2208.28,2303.33C2184.34,2319.57 2128.56,2327.39 2099.93,2329.71C2087.39,2330.12 2064.76,2323.21 2051.79,2326.19L2049.85,2325.68C2042.06,2325.08 2034.26,2324.66 2026.45,2324.42C2037.71,2317.79 2047.05,2315.13 2059.3,2311.1C2159.22,2273.63 2308.26,2219.8 2278.88,2086.19ZM2365.62,2366.05C2369.42,2367.74 2381.3,2375.49 2386.5,2378.38C2406.87,2389.67 2426.91,2398.66 2449.59,2404.25C2466.01,2408.29 2486.73,2407.33 2502.77,2411.15L2501.44,2413.22C2466.11,2422.66 2429.86,2419.95 2398.69,2399.85C2387.41,2392.57 2371.07,2378.67 2365.62,2366.05ZM2067.32,3048.8C2081.02,3137.92 2136.4,3207.4 2202.49,3267.2C2206.73,3271.03 2213,3274.3 2218.86,3273.61C2229.32,3261.94 2239.43,3211.02 2242.11,3193.87C2258.98,3222.25 2276.83,3250.04 2295.63,3277.19C2304.87,3290.54 2317.13,3306.7 2326.73,3319.84C2328.21,3321.87 2322.97,3327.01 2331.35,3335.58C2386.08,3391.52 2528.58,3502.89 2599.71,3530.37L2603.92,3529.53C2615.39,3547.87 2752.86,3612.69 2779.76,3623.53C2785.66,3627.82 2798.11,3635.13 2805.24,3635.11C2814.43,3647.81 2830.52,3690.89 2837.03,3707.21C2789.57,3681.25 2718.94,3654.73 2667.43,3635.52C2529.09,3584.83 2396.81,3525.83 2264.84,3460.24C2203.4,3429.7 2116.39,3371.79 2075.89,3317.31C2057.5,3292.57 2054.35,3199.5 2052.25,3164.19C1969.74,3307.04 1859.8,3440.43 1684.55,3456.79C1694.84,3426.47 1742.55,3331.03 1760.89,3301.69C1771.78,3303.16 1857.56,3248.14 1870.79,3238.05C1923.09,3197.86 1972.03,3153.5 2017.14,3105.39C2034.51,3086.88 2050.39,3067.13 2067.32,3048.8Z" style="fill:rgb(119,74,29);"/>
    <path d="M2725.68,3281.02L2736.7,3285.01C2728,3286.36 2727.36,3286.34 2718.56,3285.19L2725.68,3281.02Z" style="fill:rgb(33,68,41);fill-rule:nonzero;"/>
    <path d="M757.592,1740.01L742.177,1761.97C706.816,1812.71 708.249,1846.87 749.676,1892.39C710.724,1935.38 645.628,2007.18 584.037,2016.65C569.862,2018.83 551.77,2004.67 554.266,1989.04C566.951,1909.66 642.44,1824.28 702.701,1775.68C715.456,1761.18 740.385,1748.19 757.592,1740.01Z" style="fill:rgb(43,86,44);fill-rule:nonzero;"/>
    <path d="M757.592,1740.01L742.177,1761.97L740.383,1754.66C723.798,1760.93 716.268,1772.06 702.701,1775.68C715.456,1761.18 740.385,1748.19 757.592,1740.01Z" style="fill:rgb(36,78,37);fill-rule:nonzero;"/>
    <path d="M895.49,766.996C945.44,766.353 962.892,769.142 996.411,808.237C1022.54,838.715 1048.84,871.068 1065.63,907.967C1073.2,924.612 1106.08,999.652 1100.96,1014.65L1098.28,1014.43C1097.86,1006.95 1099.11,1003.36 1096.28,996.144C1082.3,960.53 1073.08,929.345 1055.16,894.978L1049.9,895.685L1047.88,892.362C1048.5,886.217 1049.61,881.456 1045.43,876.168C1024.6,849.826 1005.45,825.363 980.847,802.499C965.942,788.65 970.036,778.77 944.383,772.785C926.34,768.575 913.918,778.181 903.184,776.65L899.261,770.248L896.618,770.102C895.821,775.044 896.041,775.186 893.757,779.55L888.98,779.964L886.781,777.957C891.739,774.013 890.63,775.96 893.014,770.734C884.101,770.638 869.667,777.529 861.881,781.531C858.946,786.757 861.38,799.435 861.973,806.804C860.403,808.355 854.675,813.66 854.416,816.104C850.969,848.602 846.406,882.863 850.775,915.418C850.571,913.902 856.468,916.18 858.169,917.948L857.544,923.415L853.971,920.277L852.439,920.793C853.04,930.836 857.879,949.355 861.809,958.669L866.861,959.709L867.945,963.16C865.852,966.436 865.3,967.414 863.732,970.966L870.596,976.224C873.375,1018.07 926.785,1084.93 957.895,1110.8C957.589,1110.54 965.13,1113.36 965.619,1113.47C982.332,1117.36 986.214,1138.64 1003.64,1143.06C1013.38,1145.49 1021.61,1150.21 1027.65,1158.56L1026.3,1162.54C1015.31,1166.79 941.228,1123.8 916.169,1125.21C906.423,1125.75 870.311,1096.69 841.758,1103.3L839.02,1103.95L837.633,1102.06L840.518,1098.39C818.282,1092.18 790.11,1084.47 766.932,1080.91C759.878,1079.83 764.164,1084.8 753.156,1086.49C746.248,1070.19 713.284,1078.53 697.264,1074.71C693.73,1073.86 689.51,1079.53 687.351,1081.85L683.139,1081.91L679.746,1077.03C675.032,1075.04 677.398,1075.79 670.868,1077.39C658.266,1093.16 664.823,1080.33 649.484,1082.19L645.421,1090.2C622.183,1095.15 594.349,1114.08 600.741,1140.56C601.921,1145.45 596.192,1145.58 594.936,1154.92C597.372,1158.94 594.821,1156.53 599.937,1160.57C606.255,1165.55 607.146,1183.66 612.448,1194.07C620.157,1209.22 633.19,1211.57 637.349,1224.7C639.657,1231.7 652.567,1240.21 658.941,1243.94C664.624,1247.28 666.682,1250.85 670.999,1255.75L671.979,1250.51C677.683,1249.85 675.043,1249.31 679.849,1253.07C678.656,1258.44 678.337,1258.18 680.302,1263.22C696.679,1277.14 723.894,1286.08 742.76,1296.32C754.739,1302.83 809.206,1316.76 813.171,1326.05C804.258,1341.6 776.93,1335.72 764.968,1344.94L764.857,1349.85C755.302,1346.27 759.096,1346.91 747.075,1351.56L743.986,1354.74C735.603,1354.67 701.225,1363.37 693.57,1367.26C681.716,1385.2 684.841,1368.1 672.85,1372.67C650.424,1381.23 626.017,1384.38 604.576,1395.78C596.245,1400.21 598.633,1398.76 595.652,1407.6L591.108,1407.69L587.085,1402.19C579.054,1405.39 580.335,1406.66 574.007,1413.88L564.977,1411.51C547.867,1415.82 553.558,1423.5 542.803,1430.28L534.736,1428.07C527.451,1430.23 488.749,1459.84 479.603,1466.62C476.64,1468.82 483.139,1467.32 478.369,1475.26C475.115,1475.07 472.836,1474.82 469.622,1474.44L466.38,1477.12L470.888,1481.83L470.279,1485.2L467.212,1486.68L461.007,1483.02C445.035,1503.93 437.954,1512.59 426.514,1536.71C429.778,1540.57 428.912,1538.98 430.498,1543.92C418.926,1557.28 421.853,1560 417.32,1574.44L415.462,1571.96C416.16,1547.84 432.549,1507.94 450.167,1488.6C538.192,1391.95 676.168,1373.35 793.15,1330.9C794.758,1330.32 797.523,1330.42 800.891,1329.01L801.178,1325.09C783.675,1316.37 761.888,1312.12 745.208,1304.63C699.165,1284.59 660.18,1253.65 625.73,1218.39C596.671,1188.64 576.107,1124.3 617.345,1096.89C710.568,1034.93 856.71,1101.17 952.685,1131.26C968.644,1136.26 1011.89,1158.29 1021.92,1159.11L1022.85,1158.11C1019.95,1154.77 1021.59,1155.95 1017.58,1154.05C884.304,1090.87 810.11,919.445 859.96,779.951C862.877,771.787 888.38,768.239 895.49,766.996Z" style="fill:rgb(33,68,41);fill-rule:nonzero;"/>
    <path d="M2526.78,2158.03C2542.41,2144.46 2558.13,2131 2573.97,2117.67C2584.68,2153 2586.94,2191.6 2568.65,2225.05C2553.32,2253.08 2520.02,2274.1 2489.75,2282.69C2443.77,2295.72 2416,2272.15 2389.83,2237.94C2397.25,2234.52 2405.26,2231.02 2412.51,2227.36C2456.83,2263.68 2503.7,2262.07 2532.3,2208.45C2533.46,2200.44 2533.54,2191.54 2533.85,2183.39C2530.87,2176.66 2528.59,2165.5 2526.78,2158.03Z" style="fill:rgb(253,251,228);fill-rule:nonzero;"/>
    <path d="M2533.85,2183.39C2535.89,2191.3 2536.03,2192.73 2542.05,2198.22C2534.05,2202.16 2536.77,2199.82 2532.3,2208.45C2533.46,2200.44 2533.54,2191.54 2533.85,2183.39Z" style="fill:rgb(254,246,223);fill-rule:nonzero;"/>
    <path d="M683.735,1146.62C686.767,1144.85 685.087,1145.19 688.83,1145.92L686.365,1149.43C684.775,1150.03 683.265,1149.75 681.354,1149.72L683.735,1146.62Z" style="fill:rgb(36,78,37);fill-rule:nonzero;"/>
    <path d="M599.276,1494.22C602.697,1492.78 600.835,1493.06 604.901,1493.75L602.532,1497.28C600.206,1498.25 601.686,1497.93 597.998,1497.04L599.276,1494.22Z" style="fill:rgb(36,78,37);fill-rule:nonzero;"/>
    <path d="M608.687,1139.16C613.202,1140.65 612.911,1140.47 616.134,1143.97L614.786,1147.4L612.045,1148.14L609.109,1146.07L608.687,1139.16Z" style="fill:rgb(36,78,37);fill-rule:nonzero;"/>
    <path d="M683.153,1215.07L686.421,1213.22L688.095,1214.69L686.83,1222.71C685.137,1221.46 682.834,1219.34 681.183,1217.91L683.153,1215.07Z" style="fill:rgb(36,78,37);fill-rule:nonzero;"/>
    <path d="M527.417,1495.29L531.563,1493.34L529.416,1497.4C525.874,1499.33 527.596,1499.23 524.348,1498.44L527.417,1495.29Z" style="fill:rgb(36,78,37);fill-rule:nonzero;"/>
    <path d="M618.375,1158.58L622.692,1156.45L621.825,1161.3L618.14,1162.85L618.375,1158.58Z" style="fill:rgb(36,78,37);fill-rule:nonzero;"/>
    <path d="M610.375,1168.58L614.692,1166.45L613.825,1171.3L610.14,1172.85L610.375,1168.58Z" style="fill:rgb(36,78,37);fill-rule:nonzero;"/>
    <path d="M944.375,936.577L948.692,934.448L947.825,939.299L944.14,940.846L944.375,936.577Z" style="fill:rgb(36,78,37);fill-rule:nonzero;"/>
    <defs>
        <linearGradient id="_Linear1" x1="0" y1="0" x2="1" y2="0" gradientUnits="userSpaceOnUse" gradientTransform="matrix(27.1782,-323.281,323.281,27.1782,2340.05,1813.38)"><stop offset="0" style="stop-color:rgb(136,85,24);stop-opacity:1"/><stop offset="1" style="stop-color:rgb(105,66,28);stop-opacity:1"/></linearGradient>
    </defs>
</svg>
