<?xml version="1.0" encoding="UTF-8" standalone="no"?>
<!DOCTYPE svg PUBLIC "-//W3C//DTD SVG 1.1//EN" "http://www.w3.org/Graphics/SVG/1.1/DTD/svg11.dtd">
<svg width="100%" height="100%" viewBox="0 0 995 813" version="1.1" xmlns="http://www.w3.org/2000/svg" xmlns:xlink="http://www.w3.org/1999/xlink" xml:space="preserve" xmlns:serif="http://www.serif.com/" style="fill-rule:evenodd;clip-rule:evenodd;stroke-linejoin:round;stroke-miterlimit:2;">
    <g transform="matrix(1,0,0,1,-21.2894,-124.593)">
        <path d="M250.77,733.357C239.958,740.81 228.26,748.128 217.215,755.333L162.195,791.195C142.97,803.599 83.139,844.52 63.399,849.066C70.593,837.388 91.269,820.472 102.215,811.254C125.328,792.048 148.813,773.294 172.658,755.002C194.697,737.859 216.582,720.519 238.31,702.984L236.836,696.83C206.788,697.487 176.764,698.957 146.796,701.237L115.382,703.837C109.47,704.334 100.845,705.326 95.215,704.937C89.757,701.684 87.134,697.459 91.267,691.392C95.768,684.784 103.6,679.668 109.186,673.964C115.201,668.621 127.735,656.739 133.752,652.777C138.565,649.606 157.971,644.928 164.793,643.047L222.55,626.632C230.81,624.267 247.028,620.11 254.142,617.118C257.367,608.902 259.297,603.768 264.799,596.638C238.568,562.275 212.122,528.076 185.462,494.044L164.166,466.643C161.278,462.923 158.41,458.798 155.37,455.131C150.38,449.113 146.909,439.477 153.043,432.805C160.092,425.137 170.651,418.913 178.79,412.254C187.683,405.788 201.353,395.742 212.423,397.898C219.69,399.314 225.939,401.948 232.851,404.626L257.158,414.063L339.103,446.084C352.253,451.206 369.26,458.377 382.467,462.642L414.668,452.732C430.482,447.784 431.441,447.924 444.44,437.514L465.487,420.595C483.956,405.835 502.303,390.923 520.527,375.862C524.947,372.205 540.568,360.148 542.856,356.654C570.531,314.399 600.381,256.043 654.197,243.85C678.758,238.285 722.195,248.367 748.296,253.007C766.372,242.757 784.22,230.833 802.454,220.738C855.108,191.588 925.995,159.332 985.172,149.767C980.317,163.154 972.707,179.037 966.421,191.815C955.751,213.945 943.679,235.37 930.277,255.96C916.381,277.061 900.183,297.421 884.268,317.032C865.721,339.922 846.725,362.444 827.29,384.585C818.111,394.931 808.736,405.103 799.171,415.093C795.736,418.711 786.671,427.802 784.047,431.244C779.264,437.521 776.089,455.307 772.074,463.28C766.584,474.184 757.909,486.317 750.366,495.814L825.047,559.041L845.362,576.227C849.505,579.735 854.257,583.245 857.751,587.42C859.377,589.363 859.909,591.99 860.067,594.466C860.43,600.155 857.597,605.443 853.843,609.522C846.477,617.53 791.097,655.399 780.895,658.62C771.897,661.461 746.669,661.517 736.027,662.105C697.109,664.269 658.178,666.168 619.235,667.804C608.929,668.28 581.939,668.996 572.237,670.624C568.617,671.231 547.476,687.774 543.054,691.061L552.326,721.149C555.103,730.147 563.125,747.88 552.889,754.461C539.869,762.833 525.842,774.171 511.566,779.765C506.483,781.756 488.446,772.633 483.356,770.302L450.036,754.98C445.318,752.804 439.123,749.665 434.46,747.774C424.112,751.031 413.796,754.389 403.514,757.847C396.133,760.284 386.086,762.967 379.703,766.936L378.427,767.714C371.109,774.023 362.99,779.341 354.953,784.71C340.808,793.996 326.569,803.14 312.24,812.14C287.13,828.322 261.774,844.121 236.183,859.532C221.862,868.189 193.903,886.549 178.896,890.431C186.524,879.813 222.298,851.619 233.78,842.773C259.673,822.823 287.71,800.112 314.165,781.199C304.102,778.989 297.47,776.447 288.502,771.69C283.193,774.58 275.119,780.18 269.872,783.575L236.437,805.067C203.728,825.982 170.76,846.489 137.539,866.581C120.665,876.823 95.449,892.965 77.282,899.042C86.933,885.44 127.267,854.561 142.243,843.008C162.445,827.149 182.796,811.481 203.294,796.008C222.765,781.394 244.429,765.874 263.298,750.778C258.232,744.762 254.859,740.111 250.77,733.357Z" style="fill:rgb(4,40,64);"/>
        <path d="M186.537,718.718C173.809,719.389 161.088,720.208 148.377,721.174L117.047,723.768C110.242,724.34 100.314,725.337 93.836,724.889L89.076,724.56L84.976,722.117C75.558,716.504 70.594,708.708 69.482,700.542C68.677,694.627 69.572,687.715 74.737,680.133C79.872,672.595 88.525,666.477 94.897,659.97L95.384,659.473L95.904,659.011C102.451,653.196 116.2,640.389 122.75,636.075C128.467,632.31 151.212,626.045 159.401,623.787C159.401,623.787 217.075,607.396 217.075,607.396C222.55,605.829 231.779,603.474 239.012,601.246C239.517,600.088 240.029,598.966 240.562,597.864C217.118,567.237 193.503,536.741 169.694,506.347L148.371,478.912L148.368,478.908C145.608,475.352 142.879,471.4 139.974,467.897C129.158,454.852 125.024,433.731 138.319,419.269C145.972,410.944 157.289,404.004 166.125,396.775L166.567,396.413L167.029,396.078C173.415,391.434 181.952,385.396 190.549,381.747C199.268,378.047 208.183,376.696 216.248,378.267C224.71,379.916 232.028,382.858 240.083,385.979L264.417,395.427L346.381,427.455C357.323,431.718 370.995,437.452 382.768,441.624C382.768,441.624 408.743,433.63 408.712,433.639C421.008,429.793 421.818,430.006 431.926,421.912L452.979,404.989L453.001,404.971C471.383,390.281 489.643,375.44 507.78,360.45C511.104,357.7 524.688,346.366 526.884,344.534C540.863,323.085 555.495,297.83 573.295,276.252C593.81,251.382 618.5,231.431 649.778,224.344C674.248,218.8 716.088,226.792 744.645,232.021C760.667,222.615 776.566,212.21 792.767,203.24C847.266,173.069 920.73,139.923 981.981,130.023L1015.58,124.593L1003.97,156.586C998.897,170.584 990.978,187.202 984.401,200.575C973.369,223.446 960.891,245.589 947.01,266.915L946.98,266.96C932.725,288.607 916.13,309.51 899.803,329.629C881.092,352.721 861.928,375.442 842.286,397.819L842.251,397.858C832.91,408.387 823.369,418.739 813.635,428.905C810.624,432.073 802.924,439.671 800.245,442.995C799.952,443.76 797.944,449.034 796.908,452.444C794.646,459.881 792.334,467.514 789.937,472.275C786.607,478.888 782.237,485.924 777.594,492.661L837.967,543.774L858.283,560.961L858.286,560.964C863.277,565.19 868.879,569.554 873.089,574.584C877.442,579.787 879.603,586.563 880.026,593.192C880.739,604.365 875.934,615.052 868.562,623.063C860.328,632.012 798.314,674.094 786.917,677.692C776.924,680.847 748.95,681.422 737.131,682.075C698.137,684.243 659.13,686.145 620.112,687.785C611.23,688.193 589.457,688.698 578.584,689.934C576.303,691.588 571.258,695.25 566.368,698.804L571.437,715.253C574.013,723.6 578.955,737.828 577.66,748.479C576.509,757.943 572.142,765.859 563.706,771.283C549.627,780.337 534.3,792.338 518.861,798.387C515.294,799.784 509.943,800.643 503.467,799.424C494.689,797.77 479.87,790.703 475.014,788.479L441.67,773.146L441.66,773.141C439.134,771.976 436.163,770.513 433.26,769.137C425.451,771.635 417.66,774.19 409.837,776.821L409.784,776.839C403.771,778.824 395.465,780.687 390.19,783.967L390.181,783.972C382.594,790.338 374.3,795.838 365.996,801.385L365.929,801.429C351.704,810.767 337.386,819.963 322.977,829.014C297.734,845.28 272.244,861.162 246.519,876.654C230.925,886.081 200.237,905.569 183.905,909.794L130.42,923.629L162.653,878.762C164.346,876.405 167.309,873.231 171.056,869.591C163.353,874.311 155.636,879.009 147.905,883.685C129.937,894.591 102.967,911.539 83.627,918.009L25.506,937.451L60.971,887.469C65.821,880.633 77.842,869.622 90.882,858.591C81.375,863.63 73.23,867.325 67.887,868.556L21.289,879.287L46.371,838.576C54.405,825.534 77.108,806.25 89.382,795.914L89.433,795.872C112.728,776.515 136.397,757.613 160.429,739.176C169.156,732.388 177.859,725.568 186.537,718.718ZM250.77,733.357C254.859,740.111 258.232,744.762 263.298,750.778C244.429,765.874 222.765,781.394 203.294,796.008C182.796,811.481 162.445,827.149 142.243,843.008C127.267,854.561 86.933,885.44 77.282,899.042C95.449,892.965 120.665,876.823 137.539,866.581C170.76,846.489 203.728,825.982 236.437,805.067L269.872,783.575C275.119,780.18 283.193,774.58 288.502,771.69C297.47,776.447 304.102,778.989 314.165,781.199C287.71,800.112 259.673,822.823 233.78,842.773C222.298,851.619 186.524,879.813 178.896,890.431C193.903,886.549 221.862,868.189 236.183,859.532C261.774,844.121 287.13,828.322 312.24,812.14C326.569,803.14 340.808,793.996 354.953,784.71C362.99,779.341 371.109,774.023 378.427,767.714L379.703,766.936C386.086,762.967 396.133,760.284 403.514,757.847C413.796,754.389 424.112,751.031 434.46,747.774C439.123,749.665 445.318,752.804 450.036,754.98L483.356,770.302C488.446,772.633 506.483,781.756 511.566,779.765C525.842,774.171 539.869,762.833 552.889,754.461C563.125,747.88 555.103,730.147 552.326,721.149L543.054,691.061C547.476,687.774 568.617,671.231 572.237,670.624C581.939,668.996 608.929,668.28 619.235,667.804C658.178,666.168 697.109,664.269 736.027,662.105C746.669,661.517 771.897,661.461 780.895,658.62C791.097,655.399 846.477,617.53 853.843,609.522C857.597,605.443 860.43,600.155 860.067,594.466C859.909,591.99 859.377,589.363 857.751,587.42C854.257,583.245 849.505,579.735 845.362,576.227L825.047,559.041L750.366,495.814C757.909,486.317 766.584,474.184 772.074,463.28C776.089,455.307 779.264,437.521 784.047,431.244C786.671,427.802 795.736,418.711 799.171,415.093C808.736,405.103 818.111,394.931 827.29,384.585C846.725,362.444 865.721,339.922 884.268,317.032C900.183,297.421 916.381,277.061 930.277,255.96C943.679,235.37 955.751,213.945 966.421,191.815C972.707,179.037 980.317,163.154 985.172,149.767C925.995,159.332 855.108,191.588 802.454,220.738C784.22,230.833 766.372,242.757 748.296,253.007C722.195,248.367 678.758,238.285 654.197,243.85C600.381,256.043 570.531,314.399 542.856,356.654C540.568,360.148 524.947,372.205 520.527,375.862C502.303,390.923 483.956,405.835 465.487,420.595L444.44,437.514C431.441,447.924 430.482,447.784 414.668,452.732L382.467,462.642C369.26,458.377 352.253,451.206 339.103,446.084L257.158,414.063L232.851,404.626C225.939,401.948 219.69,399.314 212.423,397.898C201.353,395.742 187.683,405.788 178.79,412.254C170.651,418.913 160.092,425.137 153.043,432.805C146.909,439.477 150.38,449.113 155.37,455.131C158.41,458.798 161.278,462.923 164.166,466.643L185.462,494.044C212.122,528.076 238.568,562.275 264.799,596.638C259.297,603.768 257.367,608.902 254.142,617.118C247.028,620.11 230.81,624.267 222.55,626.632L164.793,643.047C157.971,644.928 138.565,649.606 133.752,652.777C127.735,656.739 115.201,668.621 109.186,673.964C103.6,679.668 95.768,684.784 91.267,691.392C87.134,697.459 89.757,701.684 95.215,704.937C100.845,705.326 109.47,704.334 115.382,703.837L146.796,701.237C176.764,698.957 206.788,697.487 236.836,696.83L238.31,702.984C216.582,720.519 194.697,737.859 172.658,755.002C148.813,773.294 125.328,792.048 102.215,811.254C91.269,820.472 70.593,837.388 63.399,849.066C83.139,844.52 142.97,803.599 162.195,791.195L217.215,755.333C228.26,748.128 239.958,740.81 250.77,733.357ZM565.859,552.002L566.18,552.213C565.724,553.093 554.47,561.797 552.782,563.148L534.357,577.631C521.897,587.356 520.238,587.911 505.29,592.921L480.808,601.084C453.992,610.055 427.06,618.671 400.017,626.931C383.432,632.037 364.878,637.256 348.626,642.904L348.321,642.754C351.371,639.486 363.344,633.309 367.574,629.701C375.294,623.119 384.695,620.539 394.219,617.312L422.1,607.833L487.403,585.213C505.794,578.79 523.794,573.451 540.869,564.199C548.813,559.894 557.696,556.261 565.859,552.002ZM737.886,512.066C764.99,534.093 791.029,558.009 818.049,580.204C825.384,586.229 833.156,592.782 840.134,599.188C837.217,601.896 835.139,602.896 831.687,604.667C831.426,604.752 830.386,604.81 830.26,604.701C797.616,576.506 762.655,549.987 730.253,521.61C732.679,518.874 735.568,514.997 737.886,512.066ZM361.25,604.052L361.601,604.117L361.414,604.756C347.172,615.302 343.508,615.215 326.551,620.062C314.122,623.561 301.728,627.187 289.373,630.941C239.187,646.527 188.795,661.441 138.209,675.678L137.683,675.711L137.598,674.864C139.76,671.065 143.047,668.03 147.006,666.178C152.195,663.745 161.719,661.207 167.521,659.484L201.288,649.553L308.326,619.362C324.741,614.727 345.399,609.399 361.25,604.052ZM646.255,266.976L646.416,267.088C646.759,268.258 643.996,272.615 643.218,274.731C640.511,282.088 639.431,287.676 638.913,295.419C629.144,301.992 618.722,309.901 609.213,316.879C596.255,326.322 583.355,335.842 570.513,345.44C570.213,345.108 570.402,345.371 570.362,344.481C581.38,324.633 601.36,299.256 619.071,285.148C625.452,280.064 639,271.678 646.255,266.976ZM772.278,635.715L777.771,635.482C767.653,645.52 766.61,644.056 752.811,644.48C744.191,644.666 735.571,644.915 726.954,645.228C688.599,646.734 647.825,647.627 609.703,649.906L602.737,649.959C617.957,641.129 614.704,642.242 632.598,641.45L662.771,640.13L772.278,635.715ZM206.223,472.916C208.054,473.513 230.453,502.105 234.111,506.618L289.29,574.035C287.072,576.005 284.995,577.668 282.678,579.511C275.505,569.759 262.746,555.449 254.57,545.674L198.499,478.448L206.223,472.916ZM669.333,259.687C684.886,258.539 711.183,265.557 727.314,269.181L720.994,276.933C703.251,271.5 687.562,267.013 668.777,268.119C660.562,282.36 658.649,311.14 660.696,327.221C641.716,339.825 627.669,349.481 606.815,359.839C588.95,368.853 572.027,374.16 551.947,373.991C555.201,370.405 557.786,366.442 560.359,362.361C586.525,363.775 631.965,338.643 651.974,322.42C651.738,320.531 651.539,318.638 651.374,316.741C650.081,301.243 652.734,275.305 662.862,262.258C664.763,259.808 666.321,259.911 669.333,259.687ZM543.086,384.366C553.092,386.28 563.277,387.138 573.42,385.957C561.132,395.226 547.786,403.561 535.484,412.888C511.979,430.946 488.697,449.294 465.645,467.926C412.046,510.123 359.857,554.08 309.164,599.727C302.652,606.203 294.906,605.845 285.463,608.195C293.078,598.561 302.944,589.476 311.854,581.062C323.306,570.188 334.909,559.475 346.661,548.927C411.259,490.537 476.62,440.017 543.086,384.366ZM597.439,615.559L597.716,615.773C596.707,617.805 584.054,628.063 581.079,630.882C565.952,645.214 551.106,656.464 533.782,668.056C516.505,679.696 498.837,690.746 480.809,701.186C467.264,709.143 451.985,718.04 438.068,725.12C430.709,728.864 416.55,733.907 408.594,736.918L408.458,736.849C408.732,735.867 418.504,731.049 420.009,730.241C482.333,696.777 539.611,655.928 597.439,615.559ZM556.08,467.934C557.103,468.563 557.6,472.25 557.944,473.663C559.143,478.579 560.698,483.158 562.378,487.92L530.92,509.558L529.7,510.413L529.106,510.155C528.6,501.571 528.157,496.427 525.472,488.375C535.548,481.373 545.752,474.558 556.08,467.934ZM459.246,537.409C459.973,538.101 460.072,539.283 460.347,540.435C461.653,545.895 463.896,547.996 466.72,552.82C457.983,559.441 446.097,567.416 436.921,573.596L436.264,573.425C433.32,569.976 429.822,562.663 429.125,558.302C436.835,552.237 450.95,543.245 459.246,537.409ZM316.407,691.975L316.721,692.642C313.93,695.649 310.593,698.326 307.447,700.983C306.591,699.244 306.69,700.091 306.777,698.404C309.279,695.641 313.089,693.867 316.407,691.975ZM811.384,242.412C812.552,244.002 813.15,257.049 813.724,260.216C815.287,268.834 818.46,276.329 821.958,284.191C804.286,297.045 784.431,313.521 767.03,327.151L653.91,416.114C648.781,407.798 645.376,402.628 638.789,395.537C628.639,385.17 619.99,380.272 605.582,379.734C624.886,371.033 646.306,356.089 663.702,343.877L715.476,307.176C738.915,290.514 762.245,273.691 786.486,258.208C794.772,252.916 803.172,247.818 811.384,242.412ZM861.948,320.532L862.209,320.788C861.18,323.069 815.062,371.496 810.261,376.539C773.142,415.283 734.962,452.997 695.765,489.638C654.634,528.529 614.667,565.546 570.242,600.848C543.021,622.885 514.138,642.838 485.662,663.148C455.965,684.329 426.15,704.684 394.036,722.069C383.887,727.563 373.223,733.834 362.796,738.765C360.373,738.418 357.326,737.618 354.89,737.051C353.615,736.584 353.585,736.648 352.566,735.787C354.486,734.282 358.642,732.37 360.903,731.167C411.706,704.14 458.361,669.724 504.708,635.81C521.205,623.739 539.001,611.696 554.868,598.928C586.672,573.335 617.42,545.803 647.717,518.444C691.305,479.007 734.477,439.112 777.226,398.765C804.93,372.732 833.283,345.341 861.948,320.532ZM490.337,485.2C491.605,486.513 499.183,501.778 501.352,505.169C508.31,500.877 517.674,493.845 524.593,488.944C520.421,499.506 514.968,510.441 510.467,521.066C516.588,528.331 522.308,536.159 528.589,543.578C522.461,542.36 514.794,541.368 508.515,540.384L501.093,539.22L487.227,563.584C485.962,554.721 484.473,544.513 483.869,535.66L462.28,532.328C469.238,528.398 476.101,523.471 483.132,519.362C485.717,510.407 488.445,494.821 490.337,485.2ZM594.869,390.712C596.396,390.587 597.658,390.518 598.748,391.383C596.399,393.831 591.571,401.185 591.009,404.399C587.659,425.135 586.809,450.392 597.721,469.073C609.938,489.99 629.48,491.792 649.171,480.336C619.937,513.218 589.83,493.66 578.481,457.413C576.299,450.442 575.958,444.193 575.656,436.974C570.37,440.377 563.987,445.35 558.736,449.077C546.059,458.074 533.556,467.454 520.753,476.278C498.831,454.211 470.482,487.534 463.25,507.314C461.505,512.086 460.419,516.305 459.277,521.218C455.699,524.383 448.399,529.359 444.359,532.299C435.563,538.686 426.802,545.121 418.077,551.604C406.695,559.58 395.389,568.431 384.03,576.465C380.788,578.758 370.862,586.414 367.845,587.534C354.93,592.326 339.415,595.228 326.077,598.772C334.153,592.899 344.906,583.172 352.801,576.422L406.011,530.572C434.91,505.943 463.745,483.9 493.152,460.202C513.823,443.307 534.951,426.978 556.513,411.235C568.34,402.668 580.043,391.936 594.869,390.712ZM947.386,180.526L947.718,181.028C926.157,199.846 906.131,220.742 884.499,239.595C869.67,252.52 855.505,265.528 839.035,276.427L834.865,268.704C828.991,256.385 828.623,247.685 826.775,234.262C849.822,221.35 873.599,209.788 897.988,199.635C914.634,192.765 930.912,187.149 947.386,180.526ZM207.467,417.416C210.724,417.593 227.734,425.363 232.13,427.155L323.231,464.763C338.835,471.268 360.49,481.191 376.732,485.831C380.479,486.902 392.848,481.63 397.547,479.876C384.37,490.862 371.048,503.705 356.208,512.73C354.935,513.504 354.605,513.047 353.29,512.602L244.465,458.811C235.232,454.252 226.032,449.628 216.865,444.938C210.761,441.808 202.682,437.294 196.363,435.187C192.974,436.915 178.892,447.286 175.478,449.825L170.645,443.36C180.889,435.475 196.221,422.554 207.467,417.416Z" style="fill:white;"/>
        <path d="M285.35,694.242L286.2,694.228C287.464,695.653 287.51,699.791 288.043,702C293.945,726.495 333.527,757.54 358.612,759.28C347.287,763.442 341.782,764.735 329.551,765.024C317.434,764.792 302.983,759.336 293.025,752.633C273.014,739.162 262.164,719.152 257.448,696.017C266.371,695.784 276.257,694.763 285.35,694.242ZM288.502,771.69C283.193,774.58 275.119,780.18 269.872,783.575L236.437,805.067C203.728,825.982 170.76,846.489 137.539,866.581C120.665,876.823 95.449,892.965 77.282,899.042C86.933,885.44 127.267,854.561 142.243,843.008C162.445,827.149 182.796,811.481 203.294,796.008C222.765,781.394 244.429,765.874 263.298,750.778C268.761,756.827 272.375,760.379 279.059,765.151C280.845,766.426 287.432,770.713 288.502,771.69ZM250.77,733.357C239.958,740.81 228.26,748.128 217.215,755.333L162.195,791.195C142.97,803.599 83.139,844.52 63.399,849.066C70.593,837.388 91.269,820.472 102.215,811.254C125.328,792.048 148.813,773.294 172.658,755.002C194.697,737.859 216.582,720.519 238.31,702.984C241.761,714.873 244.889,722.443 250.77,733.357ZM378.427,767.714C371.109,774.023 362.99,779.341 354.953,784.71C340.808,793.996 326.569,803.14 312.24,812.14C287.13,828.322 261.774,844.121 236.183,859.532C221.862,868.189 193.903,886.549 178.896,890.431C186.524,879.813 222.298,851.619 233.78,842.773C259.673,822.823 287.71,800.112 314.165,781.199C333.062,783.609 345.055,781.99 363.018,774.705C367.875,772.735 373.229,769.624 377.987,767.872L378.427,767.714Z" style="fill:rgb(159,46,31);"/>
    </g>
</svg>
