<svg width="100%" height="100%" viewBox="0 0 982 830" version="1.1" xmlns="http://www.w3.org/2000/svg" xmlns:xlink="http://www.w3.org/1999/xlink" xml:space="preserve" xmlns:serif="http://www.serif.com/" style="fill-rule:evenodd;clip-rule:evenodd;stroke-linejoin:round;stroke-miterlimit:2;">
    <g transform="matrix(1,0,0,1,-20.6993,-80.968)">
        <path d="M100.858,744.588C92.838,727.734 83.514,711.245 77.875,693.467C73.437,679.477 70.397,665.397 67.1,651.248L64.31,639.279L76.104,635.822C90.763,631.526 105.693,627.844 120.459,623.551C120.467,623.463 120.476,623.375 120.484,623.289C122.314,603.91 123.825,584.375 126.513,565.094L127.462,558.283L133.626,555.235C140.344,551.913 147.851,549.263 154.888,546.04C156.179,539.497 157.224,531.978 158.359,525.91L158.369,525.86C160.753,513.646 163.199,501.444 165.707,489.255L156.104,491.584L155.614,475.572C155.38,467.93 155.566,459.771 157.187,452.287L158.286,447.21L162.581,444.289C166.993,441.289 176.222,436.798 183.351,433.332C186.413,420.162 189.388,406.971 192.277,393.762L193.568,387.862L198.908,385.043C206.745,380.906 221.78,373.906 230.386,372.621C231.251,372.491 233.203,372.423 235.464,372.39C238.719,357.199 241.56,339.968 244.214,325.598L245.367,319.354L251,316.425C261.415,311.009 275.625,305.856 286.092,300.555C290.084,291.864 293.879,276.267 296.629,264.091C281.799,259.814 267.178,257.954 251.622,254.304L239.521,251.464L241.815,239.248C242.881,233.576 243.979,227.909 245.11,222.25L247.213,211.726L257.945,211.798C269.413,211.874 281.684,212.816 293.18,213.459C296.489,213.644 300.09,213.783 303.709,213.951C303.937,209.336 304.162,204.702 304.427,200.105C297.349,199.036 290.667,198.027 282.41,195.753L272.175,192.934L272.892,182.342C273.258,176.926 273.895,171.531 274.802,166.179L276.8,154.38L288.724,155.397C294.166,155.861 299.415,155.928 304.719,156.091C304.799,135.445 305.55,114.771 305.632,94.14L305.681,81.779L318.029,81.206C323.891,80.933 328.57,80.923 334.409,81.035L346.952,81.275L347.158,93.818C347.474,112.961 349.084,132.298 349.862,151.446C349.954,153.706 350.059,155.986 350.18,158.269C359.239,158.8 368.321,159.667 377.383,160.047L389.455,160.553L389.833,172.63C389.961,176.739 390.366,181.089 390.671,185.208L391.561,197.25L379.617,199.025C373.676,199.908 367.769,200.509 361.808,201.185C362.244,206.21 362.664,211.229 363.134,216.252C380.356,217.684 397.59,218.964 414.834,220.09L426.464,220.85L426.975,232.493C427.17,236.958 427.796,241.503 428.513,245.918L430.314,257.009L419.601,260.397C410.507,263.273 400.543,265.518 391.101,268.278C392.18,272.27 393.402,276.439 394.581,280.386C399.797,280.612 404.463,281.303 410.908,283.162L418.199,285.265L419.953,292.647C422.672,304.091 425.256,315.567 427.703,327.073C436.947,327.945 446.387,328.906 455.34,329.303L464.117,329.693L467.028,337.982C471.357,350.305 473.294,363.132 476.386,375.12C494.643,375.473 516.335,375.933 533.835,377.402C539.157,371.751 544.522,366.141 549.935,360.569L549.939,360.565C553.38,357.028 559.371,350.746 563.1,348.011L565.69,346.112L568.866,345.637C572.338,345.117 574.841,344.925 577.619,344.893C611.42,312.83 643.893,278.709 677.912,247.008C684.043,241.295 692.741,232.071 698.929,226.799L699.049,226.702C702.595,223.823 707.055,222.312 711.566,222.442C719.076,222.626 723.393,223.158 727.865,225.432C730.873,226.963 734.057,229.351 738.064,233.717C741.831,237.823 746.816,244.525 748.69,250.98C750.872,258.493 749.821,265.831 744.215,271.943C718.956,299.484 692.254,325.55 665.675,351.759C667.643,351.715 669.466,351.728 671.343,351.808C677.162,346.265 682.576,340.361 688.188,334.58C710.468,311.627 734.571,290.454 757.498,268.198C763.426,262.437 769.307,256.625 775.153,250.749C776.564,249.318 782.651,242.938 785.706,240.175C788.274,237.853 790.537,236.766 791.419,236.437L791.422,236.436C811.514,228.957 828.622,243.926 834.651,261.441C837.478,269.62 835.921,278.677 830.525,285.442L830.281,285.749L830.018,286.04C822.174,294.743 806.724,309.679 801.11,315.331C786.381,330.159 771.532,345.126 756.521,359.85C757.882,359.977 758.843,360.066 758.843,360.066C784.784,337.07 806.936,315.377 831.848,290.728C841.942,280.605 852.172,270.618 862.533,260.774C865.225,258.214 870.385,253.093 874.117,249.79L874.304,249.637C878.084,246.533 882.832,244.853 887.722,244.889C896.904,244.913 904.093,246.351 911.56,253.933C918.189,260.632 923.444,269.614 924.055,279.246C924.53,286.735 920.335,293.182 915.244,297.985C877.969,333.147 840.233,368.073 804.694,404.986C802.44,408.516 800.562,413.172 797.569,415.961L797.109,416.39C839.492,405.44 881.845,394.237 924.528,384.517C943.21,380.264 964.036,373.938 982.589,370.538L1001.77,367.023L997.636,386.083C994.915,398.621 991.545,410.829 987.76,423.007C972.867,470.929 953.923,517.614 928.962,561.212C923.828,570.178 918.289,578.759 913.071,587.676C903.367,604.314 894.32,621.326 885.951,638.673C869.957,672.3 859.741,702.342 850.263,736.616C857.489,737.594 863.772,739.582 873.97,743.242C903.286,753.764 915.872,757.233 946.919,750.214L968.862,745.252L962.204,766.741C958.687,778.09 953.741,787.309 947.239,795.123L946.021,796.549C938.193,805.486 928.227,812.562 915.922,818.933C904.75,824.718 893.029,829.378 880.934,832.844C867.851,836.637 856.282,838.828 843.505,844.236C827.871,850.852 815.969,860.529 801.987,869.517C779.13,884.21 753.437,891.68 726.477,893.619C722.894,893.877 715.839,894.588 712.445,894.484L711.709,894.462L710.98,894.356C706.214,893.666 701.101,893.414 696.326,892.664C679.356,889.998 663.58,887.004 646.28,889.083C632.025,890.795 619.929,895.123 606.384,899.467C582.306,907.186 561.327,911.331 535.884,910.163L535.874,910.163C518.132,909.321 500.666,905.436 484.272,898.688C465.606,891.182 449.829,881.609 429.231,879.012C415.923,877.334 408.712,879.073 395.959,880.343C359.134,884.013 317.911,870.995 289.476,847.254L257.683,820.708C245.282,821.929 234.279,825.816 221.049,826.658C187.32,828.804 162.627,817.021 138.012,795.284L123.516,782.483C107.966,782.748 91.434,784.068 77.376,785.992L20.699,793.751L68.456,762.26C77.169,756.515 90.924,748.91 100.858,744.588ZM351.304,228.293C349.952,216.429 349.131,204.631 347.993,192.759C347.833,191.092 347.71,190.814 346.685,190.073C357.228,188.386 367.416,187.696 377.706,186.167C377.388,181.868 376.973,177.326 376.839,173.036C363.881,172.493 350.885,170.928 337.972,170.832C337.48,164.61 337.127,158.22 336.873,151.975C336.09,132.722 334.477,113.28 334.16,94.033C328.625,93.927 324.189,93.934 318.632,94.192C318.546,115.788 317.726,137.431 317.712,159.039C317.71,162.681 317.703,166.366 317.556,170.001C307.155,168.649 297.727,169.212 287.619,168.35C286.785,173.274 286.199,178.237 285.862,183.22C297.926,186.543 306.522,187.027 318.209,189.182C317.161,201.811 316.759,215.121 315.981,227.857C308.814,227.007 299.877,226.855 292.453,226.439C281.166,225.808 269.119,224.873 257.858,224.798C256.737,230.408 255.648,236.025 254.592,241.648C274.423,246.301 292.755,248.231 311.871,255.454C308.864,268.767 302.216,299.259 295.74,310.15C285.04,316.129 268.665,321.892 256.998,327.959C253.704,345.795 250.111,367.976 245.824,385.383C243.411,385.371 234.353,385.172 232.309,385.478C224.812,386.597 211.806,392.935 204.977,396.54C201.635,411.818 198.179,427.07 194.608,442.296C188.124,445.529 175.234,451.406 169.892,455.039C168.491,461.509 168.406,468.568 168.608,475.175C179.939,472.427 190.48,470.216 201.678,466.661C200.91,470.466 200.17,474.457 199.322,478.229C192.889,480.531 186.401,482.944 179.874,484.939C176.871,499.392 173.956,513.863 171.128,528.351C169.609,536.473 168.2,547.236 166.213,554.947C157.684,559.503 147.914,562.673 139.388,566.889C136.727,585.98 135.238,605.324 133.426,624.512C133.149,627.44 133.022,630.622 132.53,633.501C115.043,638.933 97.21,643.184 79.761,648.298C82.981,662.117 85.932,675.873 90.266,689.537C96.387,708.833 107.039,726.537 115.356,744.943C116.68,747.874 118.672,751.232 120.216,754.07C116.43,754.773 111.276,755.795 107.436,755.916C98.062,759.817 84.216,767.44 75.613,773.113C95.988,770.324 121.374,768.774 141.987,769.71C146.381,769.91 154.985,772.404 159.826,773.351C169.09,775.162 178.294,775.601 187.704,774.774C218.244,772.089 240.183,756.964 272.006,758.032C301.729,759.03 320.174,770.305 350.75,769.116C375.203,768.166 382.068,762.694 402.864,757.716C413.172,755.287 423.755,754.23 434.339,754.572C469.828,755.684 497.575,772.621 533.803,770.837C561.16,769.489 575.247,760.767 599.503,752.813C616.614,747.013 634.616,744.29 652.676,744.77C674.795,745.209 698.607,751.731 718.909,760.463C747.273,772.663 774.336,792.657 806.779,789.456C821.079,788.045 828.043,781.88 839.147,778.88C859.583,788.484 866.309,790.503 888.189,795.352C870.074,799.137 855.753,799.167 837.861,796.36C835.01,795.913 827.178,799.339 824.007,799.962C806.527,805.444 789.267,804.319 771.529,800.583C747.075,795.433 725.613,782.348 701.858,774.938C688.313,770.767 674.217,768.656 660.044,768.676C637.927,768.733 618.529,773.297 597.557,780.052C578.436,786.211 559.746,793.598 539.472,794.786C525.875,795.575 512.235,794.334 499.004,791.101C477.547,785.814 464.827,779.162 441.248,777.116C429.552,776.154 417.78,776.797 406.258,779.027C385.652,782.943 371.811,789.213 349.443,788.671C331.101,788.226 320.572,784.048 303.214,779.962C292.619,777.356 281.761,775.962 270.851,775.806C257.445,775.773 244.103,777.676 231.241,781.456C224.179,783.602 215.935,786.786 208.998,788.542C190.367,793.257 164.971,791.297 146.617,785.54C168.469,804.837 190.28,815.59 220.223,813.685C239.441,812.462 254.201,805.429 274.594,807.93C289.108,809.71 298.121,814.164 311.512,818.847C324.057,823.358 337.268,825.74 350.599,825.897C385.627,826.118 406.129,811.575 440.223,815.349C473.827,819.068 500.059,836.882 535.008,836.12C550.139,836.155 566.443,833.728 581.005,829.156C604.242,821.86 622.888,813.354 648.059,815.472C672.459,817.525 688.968,825.64 710.974,834.727C724.505,840.315 741.258,842.658 755.844,843.74C744.323,846.42 730.429,848.078 718.762,846.554C692.69,843.149 669.875,834.41 643.002,836.321C622.728,837.763 605.901,843.523 586.751,849.716C569.67,854.816 553.282,857.298 535.363,857.1C522.804,856.837 510.335,854.928 498.273,851.421C475.139,844.611 457.302,834.821 432.163,833.8C410.908,832.938 398.06,837.286 378.305,841.838C356.423,846.88 319.195,845.745 297.808,837.275C323.676,858.873 361.169,870.746 394.67,867.408C408.538,866.026 416.385,864.29 430.857,866.115C452.631,868.86 469.407,878.702 489.141,886.635C504.202,892.84 520.219,896.406 536.49,897.178C560.281,898.27 579.892,894.309 602.415,887.088C616.772,882.484 629.619,877.991 644.729,876.176C663.258,873.95 680.168,876.967 698.343,879.822C703.068,880.564 708.127,880.808 712.843,881.491C715.915,881.585 722.298,880.887 725.542,880.653C750.319,878.871 773.953,872.084 794.957,858.582C809.577,849.184 822.092,839.182 838.438,832.264C851.722,826.642 863.729,824.298 877.332,820.353C888.606,817.124 899.531,812.781 909.945,807.389C930.044,796.982 943.069,784.572 949.786,762.894C915.66,770.61 901.802,767.044 869.578,755.478C854.546,750.083 849.082,748.717 833.52,748.807C844.495,707 855.49,672.446 874.226,633.058C882.749,615.39 891.963,598.064 901.846,581.119C907.045,572.234 912.565,563.686 917.68,554.753C942.17,511.979 960.734,466.166 975.346,419.149C979.018,407.334 982.292,395.491 984.932,383.326C966.551,386.694 945.923,392.979 927.414,397.193C868.677,410.569 810.567,426.76 752.139,441.223C755.75,436.292 757.817,434.3 762.504,430.249C771.407,422.556 780.099,414.468 788.708,406.449C791.294,404.04 792.521,399.695 794.525,396.805C830.442,359.435 868.615,324.1 906.323,288.529C908.709,286.278 911.304,283.58 911.081,280.07C910.667,273.544 906.806,267.61 902.314,263.072C897.759,258.439 893.253,257.9 887.648,257.888C885.791,257.871 883.987,258.506 882.552,259.685C879.105,262.735 874.103,267.711 871.49,270.196C861.2,279.973 851.043,289.888 841.022,299.94C814.576,326.106 791.216,348.961 763.231,373.531L750.838,372.378C739.766,379.605 717.524,404.654 706.619,413.631C704.579,415.31 698.12,410.299 695.248,408.834L694.615,408.516C703.807,401.467 701.288,398.532 706.122,390.357C707.286,388.389 719.696,377.218 722.12,374.933C745.774,352.639 768.976,329.235 791.887,306.17C797.415,300.605 812.638,285.906 820.362,277.336C822.981,274.052 823.736,269.656 822.363,265.686C818.573,254.657 808.607,243.91 795.957,248.62C794.704,249.087 785.983,258.285 784.371,259.916C778.482,265.835 772.543,271.705 766.555,277.524C743.72,299.691 719.707,320.774 697.516,343.635C690.422,350.943 683.618,358.424 675.994,365.197C671.187,364.694 667.787,364.64 662.989,364.862C651.627,373.178 636.587,390.85 625.564,398.691C622.883,398.87 619.094,398.79 616.339,398.808L611.947,396.112C615.561,391.463 615.176,389.344 615.189,383.565C618.738,379.778 622.915,376.04 626.629,372.286C662.642,335.89 700.002,300.918 734.635,263.156C740.319,256.959 732.93,247.351 728.485,242.507C721.993,235.431 719.435,235.638 711.247,235.438C709.793,235.396 708.372,235.877 707.242,236.795C701.292,241.864 692.783,250.92 686.774,256.519C651.494,289.396 617.877,324.878 582.715,357.963C577.998,357.833 575.421,357.801 570.789,358.494C567.502,360.905 562.289,366.514 559.256,369.631C552.42,376.669 545.653,383.774 538.957,390.945C517.947,388.7 488.218,388.374 466.607,387.932C461.798,373.665 460.136,357.586 454.763,342.291C442.492,341.746 429.317,340.166 416.952,339.167C413.956,324.615 410.74,310.108 407.305,295.653C398.655,293.158 393.737,293.221 384.889,293.32C382.009,283.621 377.508,269.231 375.712,259.676C388.204,254.943 402.796,252.078 415.681,248.003C414.883,243.09 414.205,238.031 413.987,233.063C393.076,231.697 372.18,230.107 351.304,228.293ZM434.436,426.152C424.562,429.494 415.524,432.791 413.801,434.247C410.342,437.17 407.451,441.222 404.503,444.675C400.219,449.783 395.764,454.745 391.143,459.55L390.505,459.97L389.949,459.62C391.593,451.437 398.615,434.942 402.206,427.062C407.423,424.967 413.985,423.165 419.449,421.409C424.26,419.862 429.333,418.296 434.436,416.711L434.436,402.805L463.584,402.805L463.584,426.491L434.436,426.491L434.436,426.152ZM833.203,668.705C831.819,672.312 829.795,678.671 830.377,682.46L829.105,687.612C822.36,687.446 810.314,688.455 803.267,688.829C786.491,689.694 769.721,690.647 752.955,691.689L622.011,699.359L355.011,716.702L186.983,728.733C168.231,730.02 148.842,731.981 130.189,732.959C128.215,729.126 126.424,725.964 124.209,722.261C134.721,720.813 146.804,719.87 157.462,718.767C183.433,716.003 209.436,713.554 235.466,711.421L438.274,694.688C528.318,687.044 618.459,680.575 708.673,675.281L779.619,671.326C796.4,670.334 816.561,668.732 833.203,668.705ZM308.08,355.729L308.868,356.139C309.097,358.297 308.222,365.574 308.069,368.559C300.026,373.821 286.592,380.884 277.806,385.877L276.962,385.51C277.453,381.776 278.682,376.917 279.523,373.151C283.389,369.771 302.461,359.084 308.08,355.729ZM290.876,445.863L291.484,446.398C291.805,449.388 291.249,452.773 290.913,455.812C270.953,463.893 251.321,473.155 231.194,481.323C230.631,480.074 232.416,472.235 232.792,470.218C240.344,467.737 251.13,462.833 258.682,459.551C269.383,454.918 280.115,450.356 290.876,445.863ZM465.688,503.892L466.256,504.347C465.923,507.386 465.636,510.43 465.395,513.477C458.72,516.248 444.571,520.219 437.333,522.474L376.7,540.993L376.138,540.841C374.825,538.947 375.869,533.704 376.182,531.279L465.688,503.892ZM289.121,478.112C289.099,481.987 288.796,484.403 288.3,488.268C258.96,500.311 229.51,512.084 199.955,523.587C200.066,520.191 200.559,516.232 200.904,512.8C230.325,501.925 259.911,488.453 289.121,478.112ZM691.647,509.17C693.108,510.559 711.922,553.598 714.261,558.8C730.523,557.36 753.252,554.793 769.514,552.482C765.703,557 758.325,563.623 753.864,567.81L728.016,592.157C736.275,606.761 747.275,628.32 754.171,643.502C738.163,634.244 722.051,625.165 705.839,616.268L702.218,614.022C687.438,627.944 672.925,642.147 658.687,656.623C661.358,644.979 664.107,633.353 666.936,621.747C668.779,614.174 671.171,605.391 672.453,597.789L623.57,569.918C629.957,570.547 644.937,568.027 651.918,567.075C660.576,565.895 671.41,564.755 679.864,563.156C681.781,557.441 683.288,549.412 684.6,543.311C687.082,531.958 689.431,520.577 691.647,509.17ZM664.89,578.512L686.782,590.994L685.272,599.95C684.45,604.826 683.196,610.173 681.906,615.401C685.688,611.769 689.487,608.154 693.304,604.559L700.578,597.707C700.578,597.707 712.398,605.038 712.395,605.037C716.149,607.097 719.897,609.168 723.64,611.248C721.22,606.696 718.864,602.383 716.7,598.556L711.682,589.683L732.498,570.076C726.425,570.718 720.592,571.29 715.408,571.749L706.197,572.565L702.404,564.131C701.672,562.502 699.306,557.117 696.371,550.477C695.175,556.142 693.803,562.478 692.189,567.29L689.766,574.513L682.28,575.929C677.032,576.922 670.889,577.747 664.89,578.512ZM330.148,522.319L330.702,522.804C330.99,525.256 330.069,533.473 329.813,536.357C320.92,540.084 310.261,543.829 301.172,547.228L251.299,565.88C224.313,575.989 196.734,587.277 169.699,596.841L168.939,596.798C167.95,595.12 169.412,585.33 169.69,582.779C222.803,562.17 277.069,543.027 330.148,522.319Z" style="fill:rgb(154,0,0);"  data-color="color-2"/>
        <g transform="matrix(1,0,0,1,26.5891,-9.17245)">
            <path d="M324.715,237.465C321.168,237.205 317.617,237.116 314.063,236.997C313.715,223.969 312.542,213.869 312.507,199.999C314.934,199.685 317.638,199.483 320.096,199.245C321.121,199.986 321.244,200.264 321.404,201.931C322.542,213.804 323.363,225.601 324.715,237.465ZM806.614,677.877C813.563,659.014 821.092,640.371 829.189,621.972C838.905,599.807 849.523,577.787 859.514,555.695C867.64,537.559 875.576,519.339 883.323,501.038C891.058,482.935 903.001,455.969 908.923,437.934C798.554,467.354 686.479,493.634 576.302,523.739L507.409,542.749C498.886,545.108 477.912,550.397 470.557,553.794C463.577,564.479 453.82,580.034 447.81,590.908C402.818,603.695 355.851,615.505 310.53,627.387L189.25,659.752L119.843,677.898C107.801,681.055 93.428,684.485 81.681,688.158C80.713,685.462 79.693,682.763 78.889,680.016L320.705,612.579L401.761,590.435C411.848,587.62 430.52,582.985 439.842,579.433C448.072,567.053 455.864,554.387 463.204,541.459C514.681,526.454 566.408,512.323 618.364,499.071C660.498,487.657 702.72,476.574 745.026,465.821L855.131,437.374C879.456,431.04 904.723,424.071 929.169,418.592C921.779,442.469 910.573,469.42 900.596,492.625C890.797,516.02 880.149,539.05 868.676,561.671C846.117,605.157 822.097,645.574 803.788,691.632C803.206,687.843 805.23,681.484 806.614,677.877ZM299.56,396.972C336.099,399.039 374.583,399.238 411.269,400.296C400.293,404.777 387.996,409.228 376.55,412.463C373.295,413.383 368.328,413.039 364.908,412.934C347.465,411.689 328.78,411.235 311.239,410.558C310.564,423.571 309.664,438.672 309.691,451.581C304.721,451.35 299.75,451.151 294.777,450.981C295.784,434.501 297.798,413.489 299.56,396.972ZM675.907,264.878C677.8,266.654 679.683,270.723 680.925,273.14C652.269,302.456 621.938,330.622 593.302,360.025C588.046,365.422 565.233,388.884 560.177,390.187C556.985,388.306 556.123,386.72 554.236,383.671C566.319,370.989 583.013,355.95 595.916,343.421L675.907,264.878ZM297.479,359.801C335.972,359.989 376.458,362.436 415.188,363.401C415.716,365.923 417.929,374.173 416.858,375.954C398.351,375.917 378.013,374.816 359.353,374.356C338.212,373.89 317.065,373.775 295.92,374.01C296.749,369.731 297.086,364.228 297.479,359.801ZM445.438,415.128C455.904,415.765 467.77,415.544 478.589,416.024C479.413,421.23 480.684,426.018 482.294,431.021L459.607,430.96C461.041,439.608 463.355,449.583 465.109,458.32C467.599,470.946 469.97,483.595 472.223,496.266C472.857,500.685 473.921,505.76 474.741,510.201L462.443,516.254C457.801,482.947 450.792,448.563 445.438,415.128ZM765.861,278.835C768.78,279.561 769.843,282.352 771.062,284.793C767.211,289.178 760.229,295.675 755.925,299.889L726.339,328.596L689.085,364.635C684.405,369.229 656.602,397.768 651.687,399.101C649.554,397.194 647.09,394.641 645.02,392.601C685.578,354.975 725.86,317.053 765.861,278.835ZM852.818,286.87C854.625,287.617 856.7,290.935 857.934,292.626C853.122,297.952 843.737,306.458 838.298,311.694L797.557,350.75C780.442,367.141 763.631,384.287 745.651,399.721C743.623,401.462 741.546,403.42 739.251,404.77L733.087,400.217C739.175,394.065 747.17,387.02 753.597,381.037L791.963,345.127C812.051,326.163 832.577,305.146 852.818,286.87ZM305.456,311.364C326.464,311.93 347.697,313.896 368.894,314.479C371.072,324.521 373.082,336.245 374.75,346.35L361.325,346.373C360.873,343.164 359.763,338.661 359.054,335.392L356.178,322.992C347.793,321.7 327.06,321.12 317.507,320.415C317.423,328.983 317.123,337.722 316.987,346.325L304.083,346.153C305.131,337.194 305.176,320.857 305.456,311.364ZM262.532,487.284L263.131,485.514C265.392,484.446 314.244,485.991 320.091,486.042C319.88,489.365 319.605,492.826 319.453,496.138C304.03,495.767 287.099,494.898 271.86,495.099C270.343,508.725 268.07,524.084 266.898,537.567C263.281,538.572 259.595,539.642 255.973,540.599L261.711,497.44C262.207,493.575 262.51,491.159 262.532,487.284ZM543.716,387.849L544.261,388.418C544.606,392.969 545.461,395.339 548.294,398.817C536.423,410.469 523.165,422.188 510.819,433.469L510.537,433.674L509.854,433.332C508.718,430.141 507.907,425.458 507.207,422.024C519.549,410.356 531.449,400.029 543.716,387.849ZM632.14,397.338L632.691,397.515C633.733,401.952 634.607,403.588 637.21,407.045C625.04,417.718 611.855,430.105 600.047,441.18L598.977,441.917L598.286,441.439C597.134,438.331 596.562,433.402 596.04,429.983C607.264,419.208 620.442,408.151 632.14,397.338ZM662.279,426.48C664.298,429.003 672.413,456.989 676.276,464.705C674.1,465.455 666.168,468.517 664.412,468.186L663.999,467.325C660.759,458.488 657.502,449.523 653.78,440.889C653.176,439.488 650.089,439.181 648.54,438.24L648.422,437.394C650.41,434.049 658.756,428.125 662.279,426.48ZM722.302,403.379C722.76,405.636 722.971,408.273 723.224,410.588L728.014,413.362C720.715,420.157 713.352,426.884 705.926,433.54C701.384,437.539 696.859,441.033 692.362,445.165C690.275,442.584 688.022,439.978 685.878,437.429C689.947,433.249 696.136,428.003 700.559,423.959C707.925,417.226 715.174,410.364 722.302,403.379ZM314.892,256.357L327.842,257.055C328.696,266.404 331.9,282.782 333.622,292.253L317.482,291.861C317.647,284.47 315.555,264.66 314.892,256.357ZM190.75,418.671L201.104,418.349L196.451,443.058C195.819,446.404 194.666,453.675 193.564,456.63L192.399,456.929C189.147,456.505 185.382,456.545 182.058,456.491C182.852,452.476 189.687,420.064 190.75,418.671ZM571.274,419.896C572.63,422.128 574.529,431.608 576.585,435.919C572.069,436.002 567.405,435.953 562.875,435.966C561.098,436.026 560.896,436.172 559.264,435.409C558.687,434.688 557.842,433.932 558.301,432.84C560.003,428.788 568.069,422.597 571.274,419.896Z" style="fill:white;"  data-color="color-3"/>
        </g>
        <g transform="matrix(1,0,0,1,26.5891,-9.17245)">
            <path d="M686.254,890.663C681.538,889.98 676.479,889.736 671.754,888.994C653.579,886.139 636.669,883.122 618.14,885.348C603.03,887.163 590.183,891.656 575.826,896.26C553.303,903.481 533.692,907.442 509.901,906.35C493.63,905.578 477.613,902.012 462.552,895.807C442.818,887.874 426.042,878.032 404.268,875.287C389.796,873.462 381.949,875.198 368.081,876.58C334.58,879.918 297.087,868.045 271.219,846.447C292.606,854.917 329.834,856.052 351.716,851.01C371.471,846.458 384.319,842.11 405.574,842.972C430.713,843.993 448.55,853.783 471.684,860.593C483.746,864.1 496.215,866.009 508.774,866.272C526.693,866.47 543.081,863.988 560.162,858.888C579.312,852.695 596.139,846.935 616.413,845.493C643.286,843.582 666.101,852.321 692.173,855.726C703.84,857.25 717.734,855.592 729.255,852.912C714.669,851.83 697.916,849.487 684.385,843.899C662.379,834.812 645.87,826.697 621.47,824.644C596.299,822.526 577.653,831.032 554.416,838.328C539.854,842.9 523.55,845.327 508.419,845.292C473.47,846.054 447.238,828.24 413.634,824.521C379.54,820.747 359.038,835.29 324.01,835.069C310.679,834.912 297.468,832.53 284.923,828.019C271.532,823.336 262.519,818.882 248.005,817.102C227.612,814.601 212.852,821.634 193.634,822.857C163.691,824.762 141.88,814.009 120.028,794.712C138.382,800.469 163.778,802.429 182.409,797.714C189.346,795.958 197.59,792.774 204.652,790.628C217.514,786.848 230.856,784.945 244.262,784.978C255.172,785.134 266.03,786.528 276.625,789.134C293.983,793.22 304.512,797.398 322.854,797.843C345.222,798.385 359.063,792.115 379.669,788.199C391.191,785.969 402.963,785.326 414.659,786.288C438.238,788.334 450.958,794.986 472.415,800.273C485.646,803.506 499.286,804.747 512.883,803.958C533.157,802.77 551.847,795.383 570.968,789.224C591.94,782.469 611.338,777.905 633.455,777.848C647.628,777.828 661.724,779.939 675.269,784.11C699.024,791.52 720.486,804.605 744.94,809.755C762.678,813.491 779.938,814.616 797.418,809.134C800.589,808.511 808.421,805.085 811.272,805.532C829.164,808.339 843.485,808.309 861.6,804.524C839.72,799.675 832.994,797.656 812.558,788.052C801.454,791.052 794.49,797.217 780.19,798.628C747.747,801.829 720.684,781.835 692.32,769.635C672.018,760.903 648.206,754.381 626.087,753.942C608.027,753.462 590.025,756.185 572.914,761.985C548.658,769.939 534.571,778.661 507.214,780.009C470.986,781.793 443.239,764.856 407.75,763.744C397.166,763.402 386.583,764.459 376.275,766.888C355.479,771.866 348.614,777.338 324.161,778.288C293.585,779.477 275.14,768.202 245.417,767.204C213.594,766.136 191.655,781.261 161.115,783.946C151.705,784.773 142.501,784.334 133.237,782.523C128.396,781.576 119.792,779.082 115.398,778.882C94.785,777.946 69.399,779.496 49.024,782.285C57.627,776.612 71.473,768.989 80.847,765.088C84.687,764.967 89.841,763.945 93.627,763.242C92.083,760.404 90.091,757.046 88.766,754.115C80.45,735.709 69.798,718.005 63.677,698.709C59.343,685.045 56.392,671.289 53.172,657.47C70.621,652.356 88.454,648.105 105.941,642.673C106.433,639.794 106.56,636.612 106.837,633.684C108.649,614.496 110.138,595.152 112.799,576.061C121.325,571.845 131.095,568.675 139.624,564.119C141.611,556.408 143.02,545.645 144.539,537.523C147.367,523.035 150.282,508.564 153.285,494.111C159.812,492.116 166.3,489.703 172.733,487.401C173.581,483.629 174.321,479.638 175.089,475.833C163.891,479.388 153.35,481.599 142.019,484.347C141.817,477.74 141.902,470.681 143.303,464.211C148.645,460.578 161.535,454.701 168.019,451.468C171.59,436.242 175.046,420.99 178.388,405.712C185.217,402.107 198.223,395.769 205.72,394.65C207.764,394.344 216.822,394.543 219.235,394.555C223.522,377.148 227.115,354.967 230.409,337.131C242.076,331.064 258.451,325.301 269.151,319.322C275.627,308.431 282.275,277.939 285.282,264.626C266.166,257.403 247.834,255.473 228.003,250.82C229.059,245.197 230.148,239.58 231.269,233.97C242.53,234.045 254.577,234.98 265.864,235.611C273.288,236.027 282.225,236.179 289.392,237.029C290.17,224.293 290.572,210.983 291.62,198.354C279.933,196.199 271.337,195.715 259.273,192.392C259.61,187.409 260.196,182.446 261.03,177.522C271.138,178.384 280.566,177.821 290.967,179.173C291.114,175.538 291.121,171.853 291.123,168.211C291.137,146.603 291.957,124.96 292.043,103.364C297.6,103.106 302.036,103.099 307.571,103.205C307.888,122.452 309.501,141.894 310.284,161.147C310.538,167.392 310.891,173.782 311.383,180.004C324.296,180.1 337.292,181.665 350.25,182.208C350.384,186.498 350.799,191.04 351.117,195.339C340.827,196.868 330.639,197.558 320.096,199.245C317.638,199.483 314.934,199.685 312.507,199.999C312.542,213.869 313.715,223.969 314.063,236.997C317.617,237.116 321.168,237.205 324.715,237.465C345.591,239.279 366.487,240.869 387.398,242.235C387.616,247.203 388.294,252.262 389.092,257.175C376.207,261.25 361.615,264.115 349.123,268.848C350.919,278.403 355.42,292.793 358.3,302.492C367.148,302.393 372.066,302.33 380.716,304.825C384.151,319.28 387.367,333.787 390.363,348.339C402.728,349.338 415.903,350.918 428.174,351.463C433.547,366.758 435.209,382.837 440.018,397.104C461.629,397.546 491.358,397.872 512.368,400.117C519.064,392.946 525.831,385.841 532.667,378.803C535.7,375.686 540.913,370.077 544.2,367.666C548.832,366.973 551.409,367.005 556.126,367.135C591.288,334.05 624.905,298.568 660.185,265.691C666.811,259.517 676.044,247.633 681.967,243.033C691.999,243.395 694.842,243.991 701.896,251.679C706.341,256.523 713.73,266.131 708.046,272.328C673.413,310.09 636.053,345.062 600.04,381.458C596.326,385.212 592.149,388.95 588.6,392.737C588.587,398.516 588.972,400.635 585.358,405.284L589.75,407.98C592.505,407.962 596.294,408.042 598.975,407.863C609.998,400.022 625.038,382.35 636.4,374.034C641.198,373.812 644.598,373.866 649.405,374.369C657.029,367.596 663.833,360.115 670.927,352.807C693.118,329.946 717.131,308.863 739.966,286.696C745.954,280.877 751.893,275.007 757.782,269.088C759.394,267.457 768.115,258.259 769.368,257.792C783.104,252.679 793.674,265.788 796.611,277.694C797.195,280.262 796.596,282.955 794.979,285.033C787.851,293.339 771.147,309.454 765.298,315.342C742.387,338.407 719.185,361.811 695.531,384.105C693.107,386.39 680.697,397.561 679.533,399.529C674.699,407.704 677.218,410.639 668.026,417.688L668.659,418.006C671.531,419.471 677.99,424.482 680.03,422.803C690.935,413.826 713.177,388.777 724.249,381.55L736.642,382.703C764.627,358.133 787.987,335.278 814.433,309.112C824.454,299.06 834.611,289.145 844.901,279.368C848.13,276.298 855.008,269.423 858.09,267.078C865.129,267.008 870.393,266.821 875.725,272.244C880.217,276.782 884.078,282.716 884.492,289.242C884.715,292.752 882.12,295.45 879.734,297.701C842.026,333.272 803.853,368.607 767.936,405.977C765.932,408.867 764.705,413.212 762.119,415.621C753.51,423.64 744.818,431.728 735.915,439.421C731.228,443.472 729.161,445.464 725.55,450.395C783.978,435.932 842.088,419.741 900.825,406.365C919.334,402.151 939.962,395.866 958.343,392.498C955.703,404.663 952.429,416.506 948.757,428.321C934.145,475.338 915.581,521.151 891.091,563.925C885.976,572.858 880.456,581.406 875.257,590.291C865.374,607.236 856.16,624.562 847.637,642.23C828.901,681.618 817.906,716.172 806.931,757.979C822.493,757.889 827.957,759.255 842.989,764.65C875.213,776.216 889.071,779.782 923.197,772.066C916.48,793.744 903.355,806.081 883.356,816.561C872.942,821.953 862.017,826.296 850.743,829.525C837.14,833.47 825.133,835.814 811.849,841.436C795.503,848.354 782.988,858.356 768.368,867.754C747.364,881.256 723.73,888.043 698.953,889.825C695.709,890.059 689.326,890.757 686.254,890.663ZM305.456,311.364C305.176,320.857 305.131,337.194 304.083,346.153L316.987,346.325C317.123,337.722 317.423,328.983 317.507,320.415C327.06,321.12 347.793,321.7 356.178,322.992L359.054,335.392C359.763,338.661 360.873,343.164 361.325,346.373L374.75,346.35C373.082,336.245 371.072,324.521 368.894,314.479C347.697,313.896 326.464,311.93 305.456,311.364ZM439.099,513.064L349.593,540.451C349.28,542.876 348.236,548.119 349.549,550.013L350.111,550.165L410.744,531.646C417.982,529.391 432.131,525.42 438.806,522.649C439.047,519.602 439.334,516.558 439.667,513.519L439.099,513.064ZM261.711,497.44L255.973,540.599C259.595,539.642 263.281,538.572 266.898,537.567C268.07,524.084 270.343,508.725 271.86,495.099C287.099,494.898 304.03,495.767 319.453,496.138C319.605,492.826 319.88,489.365 320.091,486.042C314.244,485.991 265.392,484.446 263.131,485.514L262.532,487.284C233.322,497.625 203.736,511.097 174.315,521.972C173.97,525.404 173.477,529.363 173.366,532.759C202.921,521.256 232.371,509.483 261.711,497.44ZM665.058,518.342C662.842,529.749 660.493,541.13 658.011,552.483C656.699,558.584 655.192,566.613 653.275,572.328C644.821,573.927 633.987,575.067 625.329,576.247C618.348,577.199 603.368,579.719 596.981,579.09L645.864,606.961C644.582,614.563 642.19,623.346 640.347,630.919C637.518,642.525 634.769,654.151 632.098,665.795C646.336,651.319 660.849,637.116 675.629,623.194L679.25,625.44C695.462,634.337 711.574,643.416 727.582,652.674C720.686,637.492 709.686,615.933 701.427,601.329L727.275,576.982C731.736,572.795 739.114,566.172 742.925,561.654C726.663,563.965 703.934,566.532 687.672,567.972C685.333,562.77 666.519,519.731 665.058,518.342ZM303.559,531.491C250.48,552.199 196.214,571.342 143.101,591.951C142.823,594.502 141.361,604.292 142.35,605.97L143.11,606.013C170.145,596.449 197.724,585.161 224.71,575.052L274.583,556.4C283.672,553.001 294.331,549.256 303.224,545.529C303.48,542.645 304.401,534.428 304.113,531.976L303.559,531.491ZM299.56,396.972C297.798,413.489 295.784,434.501 294.777,450.981C299.75,451.151 304.721,451.35 309.691,451.581C309.664,438.672 310.564,423.571 311.239,410.558C328.78,411.235 347.465,411.689 364.908,412.934C368.328,413.039 373.295,413.383 376.55,412.463C387.996,409.228 400.293,404.777 411.269,400.296C374.583,399.238 336.099,399.039 299.56,396.972ZM675.907,264.878L595.916,343.421C583.013,355.95 566.319,370.989 554.236,383.671C556.123,386.72 556.985,388.306 560.177,390.187C565.233,388.884 588.046,365.422 593.302,360.025C621.938,330.622 652.269,302.456 680.925,273.14C679.683,270.723 677.8,266.654 675.907,264.878ZM297.479,359.801C297.086,364.228 296.749,369.731 295.92,374.01C317.065,373.775 338.212,373.89 359.353,374.356C378.013,374.816 398.351,375.917 416.858,375.954C417.929,374.173 415.716,365.923 415.188,363.401C376.458,362.436 335.972,359.989 297.479,359.801ZM445.438,415.128C450.792,448.563 457.801,482.947 462.443,516.254L474.741,510.201C473.921,505.76 472.857,500.685 472.223,496.266C469.97,483.595 467.599,470.946 465.109,458.32C463.355,449.583 461.041,439.608 459.607,430.96L482.294,431.021C480.684,426.018 479.413,421.23 478.589,416.024C467.77,415.544 455.904,415.765 445.438,415.128ZM765.861,278.835C725.86,317.053 685.578,354.975 645.02,392.601C647.09,394.641 649.554,397.194 651.687,399.101C656.602,397.768 684.405,369.229 689.085,364.635L726.339,328.596L755.925,299.889C760.229,295.675 767.211,289.178 771.062,284.793C769.843,282.352 768.78,279.561 765.861,278.835ZM852.818,286.87C832.577,305.146 812.051,326.163 791.963,345.127L753.597,381.037C747.17,387.02 739.175,394.065 733.087,400.217L739.251,404.77C741.546,403.42 743.623,401.462 745.651,399.721C763.631,384.287 780.442,367.141 797.557,350.75L838.298,311.694C843.737,306.458 853.122,297.952 857.934,292.626C856.7,290.935 854.625,287.617 852.818,286.87ZM430.531,418.506C418.108,422.944 405.409,426.546 392.86,430.581C387.396,432.337 380.834,434.139 375.617,436.234C372.026,444.114 365.004,460.609 363.36,468.792L363.916,469.142L364.554,468.722C369.175,463.917 373.63,458.955 377.914,453.847C380.862,450.394 383.753,446.342 387.212,443.419C391.102,440.132 426.048,429.462 433.242,427.017C432.77,425.198 431.737,419.504 430.827,418.618L430.531,418.506ZM264.287,455.035C253.526,459.528 242.794,464.09 232.093,468.723C224.541,472.005 213.755,476.909 206.203,479.39C205.827,481.407 204.042,489.246 204.605,490.495C224.732,482.327 244.364,473.065 264.324,464.984C264.66,461.945 265.216,458.56 264.895,455.57L264.287,455.035ZM543.716,387.849C531.449,400.029 519.549,410.356 507.207,422.024C507.907,425.458 508.718,430.141 509.854,433.332L510.537,433.674L510.819,433.469C523.165,422.188 536.423,410.469 548.294,398.817C545.461,395.339 544.606,392.969 544.261,388.418L543.716,387.849ZM632.14,397.338C620.442,408.151 607.264,419.208 596.04,429.983C596.562,433.402 597.134,438.331 598.286,441.439L598.977,441.917L600.047,441.18C611.855,430.105 625.04,417.718 637.21,407.045C634.607,403.588 633.733,401.952 632.691,397.515L632.14,397.338ZM662.279,426.48C658.756,428.125 650.41,434.049 648.422,437.394L648.54,438.24C650.089,439.181 653.176,439.488 653.78,440.889C657.502,449.523 660.759,458.488 663.999,467.325L664.412,468.186C666.168,468.517 674.1,465.455 676.276,464.705C672.413,456.989 664.298,429.003 662.279,426.48ZM722.302,403.379C715.174,410.364 707.925,417.226 700.559,423.959C696.136,428.003 689.947,433.249 685.878,437.429C688.022,439.978 690.275,442.584 692.362,445.165C696.859,441.033 701.384,437.539 705.926,433.54C713.352,426.884 720.715,420.157 728.014,413.362L723.224,410.588C722.971,408.273 722.76,405.636 722.302,403.379ZM314.892,256.357C315.555,264.66 317.647,284.47 317.482,291.861L333.622,292.253C331.9,282.782 328.696,266.404 327.842,257.055L314.892,256.357ZM190.75,418.671C189.687,420.064 182.852,452.476 182.058,456.491C185.382,456.545 189.147,456.505 192.399,456.929L193.564,456.63C194.666,453.675 195.819,446.404 196.451,443.058L201.104,418.349L190.75,418.671ZM281.491,364.901C275.872,368.256 256.8,378.943 252.934,382.323C252.093,386.089 250.864,390.948 250.373,394.682L251.217,395.049C260.003,390.056 273.437,382.993 281.48,377.731C281.633,374.746 282.508,367.469 282.279,365.311L281.491,364.901ZM571.274,419.896C568.069,422.597 560.003,428.788 558.301,432.84C557.842,433.932 558.687,434.688 559.264,435.409C560.896,436.172 561.098,436.026 562.875,435.966C567.405,435.953 572.069,436.002 576.585,435.919C574.529,431.608 572.63,422.128 571.274,419.896ZM806.614,677.877C789.972,677.904 769.811,679.506 753.03,680.498L682.084,684.453C591.87,689.747 501.729,696.216 411.685,703.86L208.877,720.593C182.847,722.726 156.844,725.175 130.873,727.939C120.215,729.042 108.132,729.985 97.62,731.433C99.835,735.136 101.626,738.298 103.6,742.131C122.253,741.153 141.642,739.192 160.394,737.905L328.422,725.874L595.422,708.531L726.366,700.861C743.132,699.819 759.902,698.866 776.678,698.001C783.725,697.627 795.771,696.618 802.516,696.784L803.788,691.632C822.097,645.574 846.117,605.157 868.676,561.671C880.149,539.05 890.797,516.02 900.596,492.625C910.573,469.42 921.779,442.469 929.169,418.592C904.723,424.071 879.456,431.04 855.131,437.374L745.026,465.821C702.72,476.574 660.498,487.657 618.364,499.071C566.408,512.323 514.681,526.454 463.204,541.459C455.864,554.387 448.072,567.053 439.842,579.433C430.52,582.985 411.848,587.62 401.761,590.435L320.705,612.579L78.889,680.016C79.693,682.763 80.713,685.462 81.681,688.158C93.428,684.485 107.801,681.055 119.843,677.898L189.25,659.752L310.53,627.387C355.851,615.505 402.818,603.695 447.81,590.908C453.82,580.034 463.577,564.479 470.557,553.794C477.912,550.397 498.886,545.108 507.409,542.749L576.302,523.739C686.479,493.634 798.554,467.354 908.923,437.934C903.001,455.969 891.058,482.935 883.323,501.038C875.576,519.339 867.64,537.559 859.514,555.695C849.523,577.787 838.905,599.807 829.189,621.972C821.092,640.371 813.563,659.014 806.614,677.877Z" style="fill:rgb(51,51,51);"  data-color="color-1"/>
        </g>
    </g>
</svg>
