<svg width="100%" height="100%" viewBox="0 0 966 633" version="1.1" xmlns="http://www.w3.org/2000/svg" xmlns:xlink="http://www.w3.org/1999/xlink" xml:space="preserve" xmlns:serif="http://www.serif.com/" style="fill-rule:evenodd;clip-rule:evenodd;stroke-linejoin:round;stroke-miterlimit:2;">
    <g transform="matrix(1,0,0,1,-30.1181,-380.977)">
        <path d="M864.684,390.977C885.716,392.073 898.526,407.162 905.789,425.868C911.21,439.828 913.864,457.007 905.89,470.552C904.141,473.523 898.582,476.86 895.693,478.655C888.678,482.381 881.187,485.146 873.861,488.153C858.574,494.427 843.444,501.053 828.138,507.259C818.695,511.088 811.438,508.844 802.698,504.742C763.518,522.787 722.388,539.222 682.803,557.188C687.392,573.259 691.8,589.38 696.027,605.55L661.453,643.309C670.069,643.842 731.996,648.966 735.531,651.512C746.841,659.66 784.416,696.603 796.398,707.676C832.801,710.2 869.374,714.63 905.803,717.423C923.311,718.408 927.202,719.482 939.454,731.451C957.772,749.348 976.025,777.382 985.282,801.372C982.168,810.055 979.321,815.788 973.105,822.574C969.236,822.616 963.973,822.125 960.01,821.872C961.805,830.34 962.715,838.971 962.727,847.627C962.773,857.059 960.899,880.197 957.135,888.815C940.404,927.119 911.523,959.666 883.363,990.075C875.905,998.128 867.139,1001.82 856.204,1002.77C837.814,1003.91 818.63,1003.39 800.156,1003.39L688.102,1003.37L323.516,1003.38L221.763,1003.35C195.453,1003.33 160.484,1004.5 134.277,1000.28C122.321,998.361 103.426,979.451 94.849,970.15C65.438,938.258 57.18,908.142 59.333,865.098L40.118,864.84C42.454,840.663 52.8,814.365 64.239,793.086L42.887,774.812C47.564,765.039 71.573,708.77 79.908,705.441C94.153,699.751 123.764,692.851 139.539,688.763L254.693,658.656L217.953,637.45L261.939,506.011C283.708,497.771 307.11,489.818 329.141,482.276C329.122,482.128 329.1,481.98 329.083,481.832C328.157,473.719 327.209,463.058 332.661,456.296C338.762,448.729 373.601,446.743 384.501,445.756C399.789,444.372 459.79,445.355 469.864,454.302C474.361,458.297 474.898,463.583 475.306,469.217C511.855,473.628 548.378,478.258 584.872,483.106C602.004,485.376 620.32,487.388 637.318,490.535C640.808,491.181 643.019,492.833 645.723,495.015C688.965,476.534 732.082,457.759 775.069,438.692C776.356,436.193 777.848,433.256 779.472,430.985C781.398,428.293 783.87,426.037 786.726,424.365C795.77,418.955 855.838,392.425 864.684,390.977Z" style="fill:rgb(18,50,62);" data-color="color-2"/>
        <path d="M318.563,475.327C318.261,466.436 319.428,456.777 324.876,450.019C327.597,446.645 333.778,443.23 342.073,441.165C355.591,437.8 375.679,436.514 383.599,435.797C394.688,434.793 428.481,434.968 451.339,438.357C463.356,440.139 472.663,443.414 476.505,446.826C480.838,450.675 483.001,455.213 484.146,460.215C518.183,464.351 552.197,468.677 586.186,473.193C603.484,475.485 621.976,477.525 639.138,480.702C642.185,481.266 644.632,482.251 646.943,483.617C687.349,466.322 727.646,448.77 767.83,430.963C768.92,428.941 770.104,426.894 771.338,425.168L771.339,425.166C774.074,421.344 777.581,418.139 781.618,415.768C791.148,410.085 853.841,382.619 863.069,381.108C863.774,380.993 864.49,380.953 865.204,380.991C890.463,382.307 906.388,399.783 915.111,422.248C921.587,438.925 924.033,459.444 914.508,475.625C912.12,479.68 904.914,484.699 900.971,487.149C900.779,487.268 900.583,487.381 900.384,487.487C893.078,491.367 885.288,494.272 877.658,497.404C862.358,503.683 847.215,510.315 831.896,516.526C821.088,520.908 812.422,519.666 802.776,515.707C767.408,531.844 730.561,546.768 694.777,562.763C698.544,576.148 702.185,589.568 705.702,603.021C706.56,606.305 705.694,609.8 703.402,612.303C703.402,612.303 682.639,634.979 682.64,634.979C697.954,636.314 717.684,638.215 728.748,639.838C735.732,640.863 740.275,642.605 741.376,643.398C752.14,651.152 786.394,684.565 800.634,697.952C835.858,700.509 871.231,704.74 906.47,707.445C927.26,708.618 931.855,710.048 946.442,724.298C965.692,743.106 984.883,772.561 994.612,797.772C995.476,800.012 995.505,802.488 994.695,804.748C991.078,814.832 987.698,821.448 980.479,829.329C978.61,831.369 975.98,832.543 973.214,832.573C972.78,832.578 972.329,832.577 971.866,832.57C972.432,837.556 972.719,842.572 972.727,847.597C972.775,857.977 970.434,883.349 966.299,892.818C949.123,932.14 919.609,965.652 890.7,996.87C881.45,1006.86 870.632,1011.55 857.07,1012.73C856.987,1012.74 856.905,1012.75 856.823,1012.75C838.23,1013.9 818.834,1013.39 800.156,1013.39L688.101,1013.37L323.516,1013.38L221.76,1013.35L221.755,1013.35C194.97,1013.33 159.373,1014.45 132.692,1010.15C127.966,1009.39 122.316,1006.84 116.559,1003C105.704,995.759 93.889,983.86 87.498,976.929C58.449,945.429 48.554,915.594 49.02,874.96L39.984,874.839C37.188,874.802 34.536,873.595 32.67,871.513C30.804,869.43 29.896,866.661 30.164,863.878C32.365,841.097 41.238,816.497 51.712,795.527L36.384,782.409C32.945,779.466 31.912,774.578 33.867,770.495C37.677,762.534 54.141,724.306 64.896,707.586C69.127,701.007 73.528,697.221 76.199,696.154C90.732,690.349 120.922,683.257 137.021,679.085L228.6,655.142L212.954,646.111C208.836,643.734 206.961,638.786 208.47,634.276L252.456,502.837C253.409,499.99 255.591,497.722 258.399,496.659C277.863,489.291 298.627,482.15 318.563,475.327ZM864.684,390.977C855.838,392.425 795.77,418.955 786.726,424.365C783.87,426.037 781.398,428.293 779.472,430.985C777.848,433.256 776.356,436.193 775.069,438.692C732.082,457.759 688.965,476.534 645.723,495.015C643.019,492.833 640.808,491.181 637.318,490.535C620.32,487.388 602.004,485.376 584.872,483.106C548.378,478.258 511.855,473.628 475.306,469.217C474.898,463.583 474.361,458.297 469.864,454.302C459.79,445.355 399.789,444.372 384.501,445.756C373.601,446.743 338.762,448.729 332.661,456.296C327.209,463.058 328.157,473.719 329.083,481.832C329.1,481.98 329.122,482.128 329.141,482.276C307.11,489.818 283.708,497.771 261.939,506.011L217.953,637.45L254.693,658.656L139.539,688.763C123.764,692.851 94.153,699.751 79.908,705.441C71.573,708.77 47.564,765.039 42.887,774.812L64.239,793.086C52.8,814.365 42.454,840.663 40.118,864.84L59.333,865.098C57.18,908.142 65.438,938.258 94.849,970.15C103.426,979.451 122.321,998.361 134.277,1000.28C160.484,1004.5 195.453,1003.33 221.763,1003.35L323.516,1003.38L688.102,1003.37L800.156,1003.39C818.63,1003.39 837.814,1003.91 856.204,1002.77C867.139,1001.82 875.905,998.128 883.363,990.075C911.523,959.666 940.404,927.119 957.135,888.815C960.899,880.197 962.773,857.059 962.727,847.627C962.715,838.971 961.805,830.34 960.01,821.872C963.973,822.125 969.236,822.616 973.105,822.574C979.321,815.788 982.168,810.055 985.282,801.372C976.025,777.382 957.772,749.348 939.454,731.451C927.202,719.482 923.311,718.408 905.803,717.423C869.374,714.63 832.801,710.2 796.398,707.676C784.416,696.603 746.841,659.66 735.531,651.512C731.996,648.966 670.069,643.842 661.453,643.309L696.027,605.55C691.8,589.38 687.392,573.259 682.803,557.188C722.388,539.222 763.518,522.787 802.698,504.742C811.438,508.844 818.695,511.088 828.138,507.259C843.444,501.053 858.574,494.427 873.861,488.153C881.187,485.146 888.678,482.381 895.693,478.655C898.582,476.86 904.141,473.523 905.89,470.552C913.864,457.007 911.21,439.828 905.789,425.868C898.526,407.162 885.716,392.073 864.684,390.977Z" style="fill:white;"  data-color="color-3"/>
        <path d="M281.78,518.614C279.401,519.254 278.759,519.354 276.299,519.481L276.311,518.902L280.107,517.459L342.177,494.467C348.071,492.334 366.566,485.285 371.711,484.731C378.706,483.978 396.26,484.66 403.82,484.811L469.289,486.039C472.237,489.658 486.969,507.01 487.762,509.43C494.804,530.929 496.469,559.363 501.414,581.349C491.326,591.222 479.479,603.065 468.938,612.303C459.54,611.908 448.771,611.199 439.465,611.195C437.334,611.337 437.153,611.31 435.051,610.865C435.674,609.83 437.473,609.698 438.973,609.303C446.485,607.363 458.486,606.146 464.319,600.527C472.312,592.827 479.466,584.961 487.889,577.584C484.068,558.062 480.746,536.784 477.606,517.175L460.48,497.508C432.375,496.564 398.186,495.681 369.804,496.199C361.749,496.346 338.141,504.221 328.564,506.747C313.286,510.776 297.135,514.608 281.78,518.614ZM542.113,546.477C542.081,544.323 538.307,525.727 537.592,521.428C527.859,519.646 514.498,518.222 504.442,516.869C501.833,503.263 498.167,500.964 488.954,490.114C498.681,491.577 511.812,492.403 521.816,493.369C525.491,493.71 533.249,494.214 536.567,494.901C557.061,496.295 577.965,499.139 598.5,500.794C589.471,506.152 575.887,514.438 566.569,518.371C561.919,520.333 560.364,514.442 549.204,522.227C546.589,529.615 543.148,540.261 544.187,548.07L543.702,549.911L543.054,549.887L542.113,546.477ZM421.397,701.395C427.56,700.568 464.753,705.761 474.093,706.725C500.995,709.499 531.338,709.846 557.791,713.006C582.551,731.87 596.137,753.825 606.378,783.014C596.655,781.79 582.975,781.362 572.988,780.777L511.991,777.24C502.082,776.653 489.691,776.19 479.995,774.797C472.987,756.811 455.459,708.978 429.439,712.35C412.949,714.486 390.749,720.6 374.071,724.575L255.395,752.877C201.642,765.434 144.699,779.516 91.652,794.887C87.849,795.989 71.566,819.211 67.443,824.14C72.657,812.992 79.522,799.138 85.665,788.614C100.89,782.614 121.757,777.027 137.813,772.49C168.958,763.828 200.205,755.535 231.547,747.613C293.147,732.067 359.497,714.518 421.397,701.395ZM469.631,723.002C477.236,737.235 481.912,748.322 487.713,763.319L555.446,768.526C565.076,769.269 581.892,771.046 591.281,770.986C584.926,756.027 576.416,741.348 563.862,730.636L501.252,725.554C491.607,724.79 478.887,724.255 469.631,723.002ZM590.869,699.54C606.251,700.094 630.299,703.076 646.215,704.571L760.652,715.706C770.515,723.868 784.492,737.886 794.285,746.918C803.466,755.386 818.623,768.899 826.845,777.758L826.335,778.303L820.882,777.941C754.269,774.063 687.259,767.753 620.668,763.964C607.529,737.441 604.715,732.082 583.96,710.873C586.222,707.539 588.748,703.061 590.869,699.54ZM619.322,683.34C610.203,682.581 601.1,681.767 592.027,680.852C586.968,675.944 581.362,669.725 576.45,664.541C573.071,663.935 568.883,663.494 565.436,663.202C543.867,661.375 521.612,657.892 500.041,656.865C487.414,669.84 484.933,669.792 488.956,688.001C478.666,687.301 468.13,686.28 457.833,685.402C448.219,668.807 438.465,652.294 428.572,635.864L596.492,651.045C637.832,654.824 682.037,658.191 722.972,663.168C737.825,677.407 753.093,693.699 767.487,708.533C758.718,707.145 746.718,706.17 737.606,705.194L724.699,704.05L710.768,690.918C680.645,687.834 650.134,685.901 619.787,683.379C619.752,683.532 619.717,683.689 619.682,683.85C619.553,683.667 619.434,683.498 619.322,683.34ZM326.495,836.384C350.484,834.707 363.353,864.992 366.857,884.635C371.477,910.539 369.562,940.046 354.703,962.579C349.346,970.704 341.971,976.553 332.381,978.342C276.506,982.139 274.259,846.666 326.495,836.384ZM324.966,851.383C286.903,864.972 292.526,969.471 333.041,964.176C372.618,944.772 363.248,849.059 324.966,851.383ZM332.532,891.62C346.83,893.499 347.844,918.676 335.934,927.208C321.752,926.404 321.514,900.455 332.532,891.62ZM829.5,731.639C827.697,730.815 827.734,730.887 826.356,729.495C828.479,728.511 831.244,729.106 833.719,729.338C846.58,730.495 911.37,734.747 918.877,738.057C927.69,741.943 935.629,750.648 941.765,757.965C952.681,771.012 961.181,785.903 966.863,801.936C937.462,800.502 902.695,797.319 873.81,797.057C863.447,768.893 853.69,750.145 829.5,731.639ZM859.93,746.856C868.324,761.185 873.626,771.574 880.518,786.649C902.613,787.984 930.562,789.256 952.259,791.77C949.388,779.1 935.084,760.482 924.344,752.649C904.85,750.818 879.187,747.781 859.93,746.856ZM241.349,846.962C284.489,850.463 287.117,968.109 241.101,976.682C193.657,969.283 197.84,853.994 241.349,846.962ZM240.153,860.373C207.724,872.31 210.251,960.628 243.095,960.078C274.524,948.958 272.788,862.799 240.153,860.373ZM244.179,896.859C257.326,896.853 256.748,920.655 248.072,929.435C234.054,928.203 236.1,905.616 244.179,896.859ZM165.153,852.87C205.447,851.285 207.471,960.35 170.234,974.03C138.802,974.947 136.415,921.214 139.826,899.113C142.474,881.958 147.435,859.88 165.153,852.87ZM164.395,865.551C138.709,884.085 141.791,965.055 170.573,959.584C196.945,943.982 193.152,861.425 164.395,865.551ZM169.952,899.648C181.717,903.951 178.942,922.242 172.063,930.323C160.098,927.756 162.688,907.288 169.952,899.648ZM101.415,830.303C138.167,827.521 138.772,916.818 107.884,932.1C74.978,933.504 68.174,847.343 101.415,830.303ZM102.741,843.728C78.52,857.416 84.004,920.421 107.263,921.271C129.887,908.499 128.09,844.252 102.741,843.728ZM104.357,877.08C113.512,877.903 110.685,891.964 106.599,897.469C97.885,895.544 100.449,882.706 104.357,877.08ZM626.091,777.993L766.684,787.804C789.331,789.307 813.615,791.318 836.173,792.118C836.765,796.402 839.954,804.9 837.404,807.782L833.101,807.802C823.398,807.068 813.486,806.525 803.765,806.041C742.407,802.987 680.9,798.204 619.547,795.629C622.504,789.438 624.478,784.647 626.091,777.993ZM403.909,639.103L404.585,639.117C406.797,640.204 426.073,671.082 429.234,675.996C420.084,667.088 409.973,658.343 400.411,649.817C367.704,658.918 334.359,667.183 301.507,675.897C243.128,691.574 184.654,706.901 126.091,721.875L86.512,732.1C88.015,728.696 89.706,725.271 91.319,721.907L403.909,639.103ZM772.594,456.906C773.18,457.642 774.743,470.708 775.113,472.681L623.072,537.776C621.873,537.413 622.445,537.657 621.509,536.141C621.321,531.131 623.051,522.785 628.054,520.5C675.82,498.675 725.092,479.322 772.594,456.906ZM862.955,407.317C893.244,405.618 909.059,458.115 882.839,469.853C853.974,471.771 836.008,420.457 862.955,407.317ZM867.228,417.611C850.777,428.632 861.864,458.576 879.089,458.084C895.781,447.47 884.477,417.558 867.228,417.611ZM480.657,834.884C510.522,836.84 543.276,838.13 573.211,839.235C572.714,846.953 572.416,853.109 570.947,860.682C540.513,860.097 509.694,857.739 479.158,857.105C480.061,849.293 480.36,842.765 480.657,834.884ZM867.423,854.205C893.351,855.428 920.826,857.582 946.631,858.136C945.667,865.364 944.498,871.578 943.073,878.74C937.307,879.045 922.779,877.955 916.5,877.663L865.088,875.271C866.448,868.832 867.044,860.745 867.423,854.205ZM477.389,803.764C507.961,804.473 539.906,806.527 570.569,807.9L573.274,823.545C543.848,822.781 508.73,821.116 479.505,819.244C479.044,813.13 478.531,809.765 477.389,803.764ZM404.979,778.588L405.361,779.025C403.8,783.999 400.505,793.367 399.469,798.024C393.429,825.185 392.592,859.388 407.231,884.086C410.776,890.066 417.083,896.975 424.024,898.254C431.61,899.653 434.742,897.98 440.775,894.141C437.709,898.2 435.849,900.464 432.319,904.112C422.046,911.997 411.687,908.198 403.74,899.29C380.762,873.534 378.548,801.56 404.979,778.588ZM473.136,882.926C500.436,885.379 534.12,885.763 562.166,887.191L555.084,900.378C551.265,900.825 532.958,899.844 527.94,899.654C507.735,898.798 487.524,898.1 467.308,897.56L473.136,882.926ZM864.344,824.69C889.702,825.432 917.959,827.113 943.328,828.644C944.572,833.47 945.471,838.413 946.427,843.306C920.505,842.444 893.472,840.618 867.488,839.197C866.472,834.354 865.424,829.519 864.344,824.69ZM837.197,419.198L837.979,419.266C838.909,420.758 838.706,435.445 838.809,438.746C824.437,445.372 810.1,452.075 795.799,458.853C795.928,467.088 798.327,474.459 798.444,481.647L797.399,481.064C789.62,467.067 785.582,455.491 792.514,440.222C806.795,433.092 822.651,426.028 837.197,419.198ZM454.048,923.722C481.121,924.082 509.797,925.849 536.935,927.081L527.82,938.479C500.423,938.225 472.61,936.133 444.955,935.896L454.048,923.722ZM854.636,899.737C879.888,900.186 907.254,901.958 932.665,903.066L924.192,915.223C922.377,915.609 904.911,914.692 901.764,914.55L848.224,912.199C849.957,908.36 852.644,903.554 854.636,899.737ZM615.963,510.943C616.905,512.621 607.409,521.207 605.982,527.071C603.853,535.824 604.697,538.667 605.652,547.518C604.194,545.65 602.99,543.592 600.884,542.813C594.476,544.861 576.835,553.777 569.283,557.294C567.07,558.34 567.799,558.367 565.652,558.129C562.896,553.224 568.277,539.142 570.681,534.436C585.822,526.696 600.916,518.865 615.963,510.943ZM425.934,959.869C432.542,959.385 447.77,960.29 454.844,960.53L507.03,962.14L499.262,970.491L417.494,969.131C419.891,966.218 423.322,962.704 425.934,959.869ZM832.409,938.728C855.762,939.114 880.726,940.55 904.151,941.616L895.19,951.197C872.141,950.72 846.696,949.349 823.661,947.932C826.564,945.203 829.663,941.688 832.409,938.728ZM805.033,970.443C826.106,970.289 853.575,972.027 874.971,972.868C871.893,975.421 868.776,977.929 865.622,980.388C857.95,982.317 809.187,979.367 796.448,979.026C799.167,976.089 802.161,973.246 805.033,970.443ZM666.654,566.229C669.064,568.101 673.25,588.335 674.31,592.739L659.589,591.202L649.003,590.053C649.541,585.064 649.771,578.788 650.084,573.678L666.654,566.229ZM379.888,461.311L422.576,461.332L422.829,470.564C408.967,470.934 394.139,470.646 380.204,470.593L379.888,461.311ZM525.692,679.303C537.653,681.169 555.366,682.349 567.794,683.457C569.743,685.354 573.609,688.476 574.166,690.802C572.312,691.835 571.451,691.263 568.97,690.937C559.368,690.558 544.985,688.691 534.956,687.846C531.15,689.914 526.16,693.777 523.073,689.201C522.655,685.988 524.454,682.461 525.692,679.303ZM434.935,826.174L435.568,826.368C437.514,828.438 436.072,837.014 437.771,841.196C439.856,846.33 445.836,849.084 446.522,853.22C445.657,856.789 442.649,858.564 439.652,860.419C424.049,859.234 423.49,835.177 434.935,826.174Z" style="fill:rgb(53,129,0);"  data-color="color-1"/>
    </g>
</svg>
