<svg width="100%" height="100%" viewBox="0 0 849 908" version="1.1" xmlns="http://www.w3.org/2000/svg" xmlns:xlink="http://www.w3.org/1999/xlink" xml:space="preserve" xmlns:serif="http://www.serif.com/" style="fill-rule:evenodd;clip-rule:evenodd;stroke-linejoin:round;stroke-miterlimit:2;">
    <g transform="matrix(1,0,0,1,-114.181,-54.5591)">
        <path d="M462.664,267.534C472.516,243.995 480.097,216.015 469.82,191.192C469.327,190.002 468.804,188.825 468.254,187.66C498.774,193.181 529.234,199.027 559.63,205.198C562.99,205.861 591.569,211.153 593.169,212.366C604.099,220.652 612.743,240.629 615.281,254.017C617.984,268.275 616.255,281.151 613.25,295.133C609.902,294.777 609.697,295.156 606.535,295.93C603.552,295.095 602.213,287.439 599.728,284.772C567.128,249.787 511.434,242.977 469.678,265.104C467.591,266.21 464.858,267.922 462.664,267.534ZM665.077,552.106C662.482,511.511 652.05,477.409 634.955,440.883C660.92,461.213 687.406,480.868 714.389,499.828C725.636,507.62 737.365,514.965 748.71,522.697L748.197,522.769C742.96,523.473 737.361,523.486 732.082,524.012C719.77,525.239 706.986,527.811 695.594,532.782C686.44,536.776 677.678,542.987 669.856,549.144C668.573,550.154 666.546,551.863 665.077,552.106ZM687.094,463.397C678.027,458.124 667.665,450.388 659.186,444.189C633.413,425.346 611.547,404.739 589.423,381.877C601.606,402.23 613.662,422.843 622.306,445.013C622.264,447.619 623.355,453.674 623.765,456.51C625.438,468.074 624.624,474.653 621.984,485.683C567.524,452.51 499.315,446.585 439.908,470.813C436.336,472.27 420.641,480.306 418.194,480.213C434.43,448.201 443.333,418.961 439.12,382.377C436.355,358.369 431.424,339.577 417.145,319.62C438.122,323.365 640.464,363.553 643.916,366.002C649.622,370.049 654.615,376.345 658.884,381.813C675.886,403.59 688.009,428.177 693.275,455.39C690.819,459.732 691.215,460.134 687.094,463.397ZM242.529,532.39C270.353,489.96 285.422,442.437 259.765,394.524C265.746,395.563 272.208,397.077 278.138,398.445C310.4,405.889 343.115,412.377 375.263,420.207C380.664,458.302 369.197,478.321 349.04,509.04C315.868,508.835 295.636,513.059 264.326,524.115C257.851,526.401 250.294,530.291 243.766,532.854C243.353,532.7 242.941,532.545 242.529,532.39ZM424.427,289.375C422.741,294.149 419.015,300.125 418.223,304.374C409.577,301.716 386.824,297.983 377.728,296.546C392.864,311.009 412.127,330.014 417.745,350.783C415.365,350.529 408.192,346.619 405.09,345.569C378.295,336.498 348.973,337.322 322.802,348.047C320.535,348.976 312.22,352.893 310.692,352.572C310.945,351.971 311.195,351.368 311.44,350.763C322.881,322.544 326.75,294.088 314.65,265.47C349.894,271.946 390.526,279.367 424.427,289.375Z" style="fill:white;"  data-color="color-3"/>
        <path d="M417.745,350.783C412.127,330.014 392.864,311.009 377.728,296.546C386.824,297.983 409.577,301.716 418.223,304.374C421.24,304.011 423.473,300.33 425.408,297.987C441.463,278.549 455.301,255.492 460.469,230.56C463.183,217.466 464.331,195.264 452.41,186.068C450.904,184.906 448.079,184.041 446.224,183.425C443.153,178.585 440.006,173.793 436.785,169.051C464.104,175.224 492.577,179.531 520.035,185.138C520.098,177.105 520.105,168.096 519.472,160.141C515.84,159.606 512.776,159.544 509.113,159.414L513.377,141.497C515.433,141.934 517.915,142.277 520.022,142.626C519.956,137.538 520.152,132.769 520.355,127.699C520.469,122.036 520.258,115.139 521.32,109.714C521.512,108.731 521.596,109.393 521.101,108.258L520.577,108.487C518.201,116.035 517.003,120.217 515.105,128.107L511.963,140.367C488.871,123.079 451.514,118.815 423.497,118.957C421.35,118.733 419.856,118.851 417.711,118.948C414.741,118.455 410.491,118.405 407.24,117.957C389.685,115.539 383.952,110.863 371.403,99.729C400.799,104.837 427.662,82.799 455.037,76.045C463.646,73.921 468.539,73.91 477.195,74.118L487.659,75.372C492.133,76.367 494.891,77.062 499.155,78.557C504.855,80.555 513.014,84.393 518.858,85.18L520.486,85.844C521.248,85.881 520.801,85.939 521.764,85.396C522.518,82.748 522.425,81.304 522.5,78.579L522.681,77.8C522.921,75.939 523.083,74.401 523.197,72.528C527.565,72.428 531.531,72.359 535.916,72.503C535.368,79.511 535.845,87.632 535.864,94.734C535.909,111.909 536.996,129.802 536.56,146.956C539.704,147.042 543.054,147.042 546.157,147.423C545.717,152.142 545.374,157.578 544.334,162.143L536.818,161.47C536.913,170.016 536.753,180.437 537.298,188.831C546.774,189.833 560.88,193.222 570.588,194.98C581.238,196.908 593.84,198.633 604.183,200.927C623.739,226.497 632.769,247.228 629.27,280.669C627.888,293.879 616.67,324.404 607.672,334.157C606.381,332.409 602.378,326.167 601.467,325.397C599.958,322.656 597.29,319.505 594.973,317.397C585.98,305.836 569.402,296.957 556.064,291.783C557.19,296.889 558.285,302.344 559.709,307.348C561.415,314.104 563.262,321.033 564.618,327.846C564.885,329.553 565.147,332.503 566.007,333.841L566.635,334.218C595.329,338.784 625.9,346.826 654.897,351.746C659.25,355.399 666.506,365.07 669.9,370.049C688.287,397.018 706.424,426.879 708.704,460.228C709.101,466.036 708.987,471.564 708.858,477.365C735.305,497.16 763.851,514.7 791.194,533.204C794.28,535.292 797.577,537.296 800.54,539.521C831.503,518.078 862.194,496.245 892.605,474.028C898.93,469.386 905.164,464.645 911.486,460.009C917.889,455.315 925.15,450.567 931.032,445.209C934.701,448.531 936.689,450.659 939.949,454.403L823.862,550.983C823.686,558.722 824.468,567.294 823.379,574.809C822.666,579.731 818.89,586.281 817.118,591.381C812.298,605.392 808.539,619.831 806.009,634.442C805.206,639.077 807.612,646.844 808.153,651.688C809.184,660.921 812.849,683.302 808.993,691.335C800.273,709.502 793.121,727.673 782.819,744.943C776.878,754.778 770.858,764.169 764.723,773.847C762.344,777.694 757.944,783.216 756.018,786.882C749.273,799.72 744.82,812.208 741.842,826.369C747.497,826.445 753.419,825.776 759.073,825.275C760.348,825.041 766.374,824.788 768.395,824.579C772.539,824.999 780.567,825.614 784.147,826.861C815.81,837.891 831.918,846.75 866.122,837.304C846.117,861.377 826.571,878.473 794.024,881.12C781.081,882.173 765.257,883.094 753.275,887.377C724.474,897.673 707.857,919.197 676.541,925.56C651.959,930.554 629.426,923.254 606.298,924.026C604.737,923.933 600.518,923.719 599.112,924.252C583.52,925.017 564.364,933.316 549.795,938.37C541.792,941.119 533.607,943.308 525.299,944.922C496.043,950.466 469.962,942.096 443.359,931.316C423.933,923.444 409.53,918.633 388.488,921.197C373.675,923.002 358.092,921.38 343.921,916.407C323.721,909.318 307.154,896.002 289.7,884.086C294.324,884.111 301.451,883.661 305.783,884.139C307.464,884.105 307.504,884.125 309.114,883.683C308.799,882.572 308.441,882.72 307.071,881.921C289.914,868.595 274.843,865.999 253.662,867.833C253.114,867.897 250.988,868.103 250.596,868.24C246.932,868.592 243.152,869.238 239.478,869.494C200,872.242 173.861,858.25 145.041,834.408C173.789,841.469 199.269,835.657 224.295,820.585C202.336,802.899 196.416,781.669 189.614,755.793C188.285,750.738 170.665,737.901 170.405,729.344C169.852,711.176 168.439,691.244 171.096,673.251C172.171,665.97 179.412,656.118 180.514,648.264C182.314,634.797 184.495,622.921 187.517,609.727C194.609,610.453 207.035,613.25 214.407,614.63C234.746,618.436 255.301,623.256 275.699,626.779C284.175,603.384 293.917,580.466 304.88,558.128C275.113,559.748 245.855,566.685 217.07,574.069C208.497,576.268 195.49,581.241 187.726,582.852C185.065,584.048 179.18,585.426 176.138,586.231C178.644,583.696 181.448,580.722 184.112,578.433C190.544,570.969 200.14,562.621 207.375,554.441C226.711,532.58 247.195,502.33 254.26,473.871L254.88,472.247C256.223,467.393 256.964,462.163 257.541,457.189C261.843,420.116 246.061,399.142 224.263,372.144C229.223,373.716 236.872,374.941 242.029,375.977C254.906,378.564 268.073,380.391 280.932,383.001C283.833,376.405 288.212,369.631 291.531,362.876C305.322,334.807 317.448,297.767 302.822,267.928C300.376,262.938 295.703,261.392 290.678,260.784C288.677,256.118 286.642,251.467 284.573,246.831C309.544,249.675 338.471,258.128 363.717,261.648C363.126,247.031 363.445,230.132 363.528,215.368L363.39,213.488C361.645,211.882 355.408,212.766 351.973,212.695C334.413,211.31 328.125,201.794 314.879,192.276C332.041,195.258 350.453,193.713 365.662,184.636C366.273,179.549 366.829,173.98 367.723,168.973L375.408,169.104C376.038,197.358 376.74,225.563 376.696,253.829C376.691,257.252 376.686,260.913 376.844,264.325C393.995,268.103 415.165,272.639 432.421,275.367C429.814,280.069 427.15,284.739 424.427,289.375C390.526,279.367 349.894,271.946 314.65,265.47C326.75,294.088 322.881,322.544 311.44,350.763C311.195,351.368 310.945,351.971 310.692,352.572C312.22,352.893 320.535,348.976 322.802,348.047C348.973,337.322 378.295,336.498 405.09,345.569C408.192,346.619 415.365,350.529 417.745,350.783ZM665.077,552.106C666.546,551.863 668.573,550.154 669.856,549.144C677.678,542.987 686.44,536.776 695.594,532.782C706.986,527.811 719.77,525.239 732.082,524.012C737.361,523.486 742.96,523.473 748.197,522.769L748.71,522.697C737.365,514.965 725.636,507.62 714.389,499.828C687.406,480.868 660.92,461.213 634.955,440.883C652.05,477.409 662.482,511.511 665.077,552.106ZM613.25,295.133C616.255,281.151 617.984,268.275 615.281,254.017C612.743,240.629 604.099,220.652 593.169,212.366C591.569,211.153 562.99,205.861 559.63,205.198C529.234,199.027 498.774,193.181 468.254,187.66C468.804,188.825 469.327,190.002 469.82,191.192C480.097,216.015 472.516,243.995 462.664,267.534C464.858,267.922 467.591,266.21 469.678,265.104C511.434,242.977 567.128,249.787 599.728,284.772C602.213,287.439 603.552,295.095 606.535,295.93C609.697,295.156 609.902,294.777 613.25,295.133ZM622.306,445.013C613.662,422.843 601.606,402.23 589.423,381.877C611.547,404.739 633.413,425.346 659.186,444.189C667.665,450.388 678.027,458.124 687.094,463.397C691.215,460.134 690.819,459.732 693.275,455.39C688.009,428.177 675.886,403.59 658.884,381.813C654.615,376.345 649.622,370.049 643.916,366.002C640.464,363.553 438.122,323.365 417.145,319.62C431.424,339.577 436.355,358.369 439.12,382.377C443.333,418.961 434.43,448.201 418.194,480.213C420.641,480.306 436.336,472.27 439.908,470.813C499.315,446.585 567.524,452.51 621.984,485.683C624.624,474.653 625.438,468.074 623.765,456.51C623.355,453.674 622.264,447.619 622.306,445.013ZM375.263,420.207C343.115,412.377 310.4,405.889 278.138,398.445C272.208,397.077 265.746,395.563 259.765,394.524C285.422,442.437 270.353,489.96 242.529,532.39C242.941,532.545 243.353,532.7 243.766,532.854C250.294,530.291 257.851,526.401 264.326,524.115C295.636,513.059 315.868,508.835 349.04,509.04C369.197,478.321 380.664,458.302 375.263,420.207ZM778.459,594.157C784.732,593.902 796.42,591.821 802.729,590.802C806.112,585.386 810.5,574.673 811.31,568.067C811.457,566.867 810.645,563.18 810.358,561.83C798.345,571.357 790.244,578.26 779.271,589.017C778.025,590.239 775.254,592.581 774.901,594.063C776.08,594.837 776.612,594.395 778.459,594.157ZM412.145,694.263C421.037,693.312 429.905,692.155 438.744,690.795C440.829,683.636 443.01,676.506 445.288,669.407C434.226,672.163 419.193,672.929 408.183,675.918C406.738,676.31 405.249,681.647 404.673,683.436L400.141,695.639C404.153,695.283 408.156,694.824 412.145,694.263ZM542.554,329.391L546.591,330.313C548.594,330.813 552.094,331.938 553.811,330.997C553.569,326.817 551.28,316.729 550.357,312.188C547.607,312.041 543.048,312.307 540.16,312.394C540.779,317.105 539.826,323.274 541.007,328.021C541.257,329.026 541.421,328.807 542.554,329.391ZM480.414,509.779C478.912,509.928 476.88,509.756 476.383,510.883C471.493,521.977 465.961,535.711 461.55,546.739C464.942,546.262 468.346,545.87 471.758,545.565L480.951,544.907C483.947,536.504 489.518,517.802 491.22,509.299C487.978,509.424 483.552,509.467 480.414,509.779ZM573.162,514.801L571.234,514.012L566.254,512.631C565.784,515.166 563.647,524.597 563.902,526.484C565.03,534.818 567.953,544.878 570.052,553.164C574.057,569.07 578.208,584.939 582.504,600.769C585.199,610.8 589.002,624.105 590.981,634.187C599.16,633.248 609.746,630.913 617.979,629.337C635.351,626.071 652.685,622.604 669.976,618.934C674.821,617.936 694.811,614.279 697.397,612.922C701.269,610.891 714.785,600.037 719.59,596.597L787.238,548.805C783.131,545.726 778.968,542.723 774.75,539.798C759.269,540.994 742.163,544.862 727.107,548.548C695.967,556.172 675.867,581.941 652.597,601.433C652.016,590.639 652.918,576.943 651.962,567.064C649.172,562.781 645.394,559.207 641.959,555.555C627.569,540.254 610.319,528.904 590.916,520.908C586.432,519.06 578.059,515.845 573.162,514.801ZM512.902,284.06C510.749,290.069 508.668,299.418 507.056,305.844C510.336,305.689 513.706,305.45 516.979,305.606L518.244,305.609C519.802,303.442 520.397,287.794 520.865,284.011L512.902,284.06ZM512.628,312.216C510.331,312.368 507.519,312.633 505.26,312.626C504.589,315.451 503.728,318.714 503.175,321.524C505.298,322.013 508.134,322.76 510.218,323.117L516.904,324.386C517.464,319.976 517.904,316.466 518.075,312.007C516.768,312.037 513.777,312.021 512.628,312.216ZM338.271,372.699C323.253,374.289 302.66,379.673 288.254,384.43C296.83,385.593 305.313,388.162 313.879,389.707C317.835,390.714 350.55,398.252 351.801,397.894C352.46,392.877 346.936,388.819 345.462,385.196C343.85,381.232 343.313,376.968 341.185,372.883C339.61,372.138 340.39,372.43 338.271,372.699ZM397.923,379.667C395.279,389.056 390.61,397.005 389.566,405.876C397.135,408.209 410.417,410.805 418.39,412.433L423.988,413.832C424.243,406.973 424.641,400.012 424.321,393.164C416.655,388.638 406.274,382.593 397.923,379.667ZM301.347,592.87C298.759,598.652 296.312,604.497 294.009,610.398L307.056,610.42C308.108,610.073 308.055,610.338 308.44,609.336C310.346,604.377 312.054,598.61 313.645,593.565C309.543,593.383 305.444,593.151 301.347,592.87ZM498.373,285.2C473.582,288.165 453.078,296.82 430.336,306.678C434.795,307.577 442.093,309.255 446.38,309.828C461.494,313.317 476.852,316.063 492.024,319.321L502.721,284.965C501.94,284.999 498.972,285.079 498.373,285.2ZM314.059,644.002L314.759,643.415C316.875,644.079 321.295,644.933 323.528,645.105L323.675,645.453C326.487,645.695 329.126,646.155 331.907,646.6C330.997,651.29 330.21,690.358 331.502,693.562C332.084,693.83 332.268,693.993 332.874,694.078C334.571,694.1 336.199,694.045 337.864,694.355C339.459,693.986 340.362,694.134 341.974,694.227C341.919,691.711 341.978,688.949 341.984,686.412L342.016,681.045L342.122,676.682C342.308,674.427 342.266,671.992 342.283,669.716C342.729,665.286 342.519,655.999 342.535,651.186C342.811,645.658 342.834,639.998 342.921,634.454C343.292,613.694 344.238,593.217 342.888,572.476C342.667,569.083 342.74,562.343 341.735,559.364C340.285,558.548 338.012,558.89 336.18,558.907C329.273,583.12 318.596,606.889 312.56,631.508C311.698,635.023 310.386,639.413 309.227,642.844C311.092,643.088 312.409,643.1 314.059,644.002ZM453.396,641.433C453.85,640.296 453.803,640.158 453.928,638.921L453.266,638.331L450.859,638.657L421.18,643.119C418.386,649.631 414.523,659.422 411.365,665.477C422.862,663.609 436.362,660.959 447.566,659.362C449.488,653.777 451.96,647.091 453.396,641.433ZM454.157,689.647C455.867,689.186 457.917,689.119 459.878,688.723C463.53,688.399 468.36,687.698 471.839,687.683C474.548,686.908 475.072,684.753 476.253,682.389C477.82,679.771 479.349,677.131 480.84,674.469C482.375,672.145 483.513,670.544 484.65,667.964C487.72,663.446 489.753,658.573 492.75,653.895C497.146,652.336 510.131,649.912 515.457,648.741C515.394,615.538 517.809,581.241 517.024,548.128L517.137,547.494C517.407,542.384 517.358,537.564 517.327,532.46C513.249,531.445 508.346,529.301 504.364,527.702C501.89,524.07 501.606,521.988 500.652,517.795C490.241,557.286 479.193,596.607 467.512,635.741C462.711,652.283 457.546,672.705 452.212,688.791C452.995,689.795 452.491,689.373 454.157,689.647ZM503.204,555.503C503.307,553.961 503.43,554.734 503.728,553.438L504.207,553.692C504.604,556.983 504.62,564.847 504.057,568.137C503.778,564.858 504.552,557.96 503.204,555.503ZM564.004,574.294C562.367,574.529 560.332,574.168 558.622,573.963C554.584,573.479 550.347,572.918 546.344,572.275C546.739,577.798 547.363,582.878 548.041,588.364C554.776,588.951 561.52,589.435 568.27,589.815C566.899,584.627 565.477,579.454 564.004,574.294ZM549.006,597.222C549.626,603.226 550.194,609.971 551.045,615.892C558.14,616.001 568.034,616.014 575.048,616.766C573.53,610.998 571.942,604.35 570.216,598.686C564.078,598.248 554.869,597.941 549.006,597.222ZM470.267,554.304L458.133,555.01C455.523,561.391 453.135,566.972 450.187,573.196C452.641,572.988 455.126,572.814 457.563,572.481C463.024,571.902 468.495,571.412 473.972,571.013C475.511,565.819 477.82,558.965 479.015,553.823C476.308,553.952 472.896,554.029 470.267,554.304ZM430.094,632.367C431.526,632.334 432.95,632.028 434.371,631.801C441.312,630.693 450.277,629.536 457.065,627.763C460.005,621.062 461.403,614.744 463.8,608.05C453.966,610.029 444.034,611.493 434.047,612.438C432.86,615.131 425.611,630.855 425.855,632.795C427.708,632.922 428.311,632.723 430.094,632.367ZM260.611,687.021C264.501,687.548 268.382,688.13 272.256,688.766C275.416,691.735 277.932,696.039 280.945,699.361C291.512,711.012 304.673,724.12 321.092,725.743L322.593,726.036C370.745,731.169 419.424,727.811 466.415,716.116C468.714,715.903 469.905,715.774 472.141,715.245C476.531,714.72 486.289,714.136 489.807,712.368C491.102,710.464 492.15,708.795 493.33,706.816C498.247,699.044 501.375,690.029 505.773,682.023C506.512,680.678 507.643,680.425 509.219,680.099C517.169,678.453 525.509,677.109 533.5,675.682C546.943,673.238 560.36,670.653 573.748,667.929L574.386,667.82C588.855,665.076 605.416,662.295 619.615,658.756C622.867,658.209 624.922,657.737 628.108,656.87C630.913,656.524 634.59,655.515 637.376,654.852C682.488,644.122 727.362,632.826 772.092,620.571C774.299,620.065 776.99,618.997 778.928,619.539C775.837,625.653 771.828,638.637 769.557,645.488L755.947,686.556C746.028,716.682 733.762,749.341 724.884,779.345C719.859,796.941 715.561,814.738 712,832.688C713.754,833.073 715.505,833.471 717.252,833.886C718.768,834.247 718.826,834.217 720.32,833.788C721.617,832.724 721.766,831.856 722.364,830.283L722.654,827.829C724.973,824.134 730.622,800.645 732.384,794.908C737.654,777.748 742.481,756.774 748.673,740.139L749.241,737.554L750.904,733.176L751.456,732.239C751.647,729.34 757.576,712.359 758.871,708.584C766.063,687.621 773.716,666.818 781.77,646.17C787.139,632.377 793.8,616.637 798.338,602.667C779.436,606.088 753.45,613.304 734.546,618.133L728.781,619.474C726.318,620.087 723.784,620.69 721.335,621.333L718.28,621.927C708.68,624.979 694.355,627.944 684.175,630.324C662.31,635.456 640.386,640.33 618.407,644.946C604.089,648.045 589.734,650.969 575.345,653.719C570.652,654.591 562.676,656.299 558.11,656.753L556.777,657.134C544.165,659.696 531.289,661.68 518.658,664.152C513.746,665.113 505.939,666.022 501.442,667.35C496.44,677.411 488.918,691.17 482.562,700.491C459.972,702.833 435.709,707.854 412.632,710.731C387.378,713.879 370.915,714.663 345.987,715.032C344.267,714.97 342.319,715.04 340.582,715.061C325.953,713.389 326.992,715.962 311.659,708.815L310.404,708.169C284.177,693.657 272.969,666.554 264.441,639.239C253.617,637.332 243.021,635.035 232.248,632.956L222.63,631.02L221.163,630.666L214.258,629.454C210.532,628.565 205.35,627.846 201.488,627.106C199.755,626.774 198.193,626.141 196.719,626.871C196.522,627.561 196.351,627.957 196.29,628.666C195.911,633.097 195.525,637.692 195.438,642.125C212.543,646.097 232.668,649.402 250.089,652.88L251.929,653.297L256.86,653.995C260.16,660.509 263.071,667.606 266.44,673.869C251.507,670.486 237.757,667.931 222.71,665.265C219.972,664.706 217.595,664.304 214.833,663.894C208.835,662.808 198.1,660.578 192.412,660.337C189.262,670.661 183.496,680.171 183.456,690.887C183.41,703.085 183.507,715.286 183.51,727.483C184.435,728.351 188.897,732.635 189.651,733.139C195.17,738.688 199.647,739.369 207.133,740.866C213.999,742.239 220.878,743.653 227.784,744.821L230.503,745.215C247.975,748.459 271.11,752.053 289.064,753.687C291.587,754.26 294.963,754.384 297.604,754.581C315.69,756.278 333.848,757.077 352.012,756.974C355.895,756.985 369.464,756.859 372.868,756.198C375.504,756.123 377.783,756.109 380.406,755.702C400.424,754.941 424.905,748.621 444.03,743.015C447.203,741.928 450.361,740.797 453.502,739.62L461.24,737.013C459.036,737.039 456.288,737.197 454.182,737.838C450.285,738.169 446.315,738.465 442.43,738.851C425.834,741.868 408.111,742.981 391.276,744.065C341.993,747.237 296.168,742.222 247.72,733.152C245.198,732.473 241.518,731.825 238.88,731.278C225.228,727.528 211.169,724.376 197.348,720.639C196.437,720.463 195.417,720.089 194.518,719.801C193.167,717.237 193.359,689.064 193.523,684.601C193.608,682.278 194.412,677.573 194.91,675.091C203.608,676.427 214.52,678.82 223.265,680.482C223.939,680.577 226.183,680.945 226.731,680.95C237.394,682.974 250.379,684.713 260.611,687.021ZM696.581,891.823C698.248,891.447 697.781,891.891 698.608,890.891C696.247,890.118 691.626,890.502 689.08,890.693C682.529,890.007 677.651,889.518 671.243,887.658C646.314,880.423 631.692,866.921 604.388,866.701C570.418,866.427 548.348,886.029 514.618,889.376C478.84,892.927 457.158,872.291 423.218,870.814C398.967,869.758 383.194,880.609 360.985,885.796C349.172,888.555 332.811,886.99 320.911,884.488C352.503,899.623 359.08,900.922 394.54,893.941C403.052,892.265 415.458,891.364 424.056,892.237C435.304,893.379 448.657,898.008 459.133,902.222C491.348,915.181 515.3,916.843 548.029,904.844C564.696,898.734 582.792,889.929 600.465,888.284C638.591,884.735 658.135,905.755 696.581,891.823ZM764.965,856.824C765.444,856.781 766.762,856.329 767.297,856.164L766.381,856.213L767.605,855.651C764.473,855.266 761.077,855.488 757.897,855.574C742.91,853.295 728.473,848.268 715.312,840.744C688.116,825.302 671.046,806.187 637.021,801.074C590.628,794.102 561.06,823.348 518.098,828.616C486.89,832.443 464.853,814.602 434.297,812.659C402.099,810.612 381.075,828.224 350.726,832.434C336.691,834.381 322.24,831.509 308.877,827.073C268.307,813.605 241.358,827.88 206.107,846.113C211.914,845.495 220.28,845.174 225.634,844.196C243.734,840.891 261.728,837.098 280.342,839.587C303.765,842.719 317.643,852.939 342.637,851.81C374.297,850.38 396.144,834.076 428.397,836.108C448.004,837.343 459.257,843.229 477.404,848.122C488.372,851.192 499.764,852.475 511.141,851.922C541.601,850.549 563.474,837.137 591.828,829.008C619.903,820.958 651.428,824.711 678.02,836.087C706.069,848.087 733.14,864.301 764.965,856.824ZM538.605,287.538C539.24,293.571 539.21,300.586 539.934,306.132L548.812,305.996C547.834,300.329 547.801,288.777 541.035,287.871L538.605,287.538ZM554.223,534.281C553.519,534.398 546.678,535.299 546.991,535.113C541.202,538.541 543.7,541.18 548.892,541.921C551.542,542.299 554.399,542.568 556.953,543.293C556.354,540.262 555.87,537.122 554.732,534.262L554.223,534.281ZM794.95,684.924C795.283,681.879 795.283,681.09 794.988,678.039L794.845,672.322C794.972,670.961 795.181,670.611 794.629,669.417C793.564,670.184 793.75,670.467 793.184,671.941C786.23,687.181 780.678,703.274 774.697,718.938C771.979,726.057 769.757,733.666 766.896,740.739C775.151,730.194 794.622,698.21 794.95,684.924ZM544.432,549.312C545.197,554.054 545.541,559.12 545.961,563.925C550.907,564.778 557.383,565.08 561.835,566.101C561.266,561.105 559.85,555.952 558.563,551.07C553.826,550.722 549.11,550.135 544.432,549.312ZM297.119,630.772C298.679,631.285 299.322,631.578 300.993,631.667C302.316,630.707 301.917,630.885 302.515,628.928L305.61,619.015C301.162,618.743 295.636,618.245 291.265,618.181L287.81,628.815L297.119,630.772ZM470.313,580.692C462.336,581.798 453.956,582.827 446.033,584.09C444.797,586.861 438.461,600.219 438.674,602.504L439.634,602.678C444.858,601.991 462.334,600.292 465.778,598.226C467.24,596.159 470.68,584.104 471.208,581.22L470.784,580.686L470.313,580.692ZM316.448,557.835C312.374,566.66 308.533,575.59 304.929,584.617C308.57,584.926 311.476,585.11 315.123,585.15C316.397,584.688 316.25,585.029 316.815,583.553C319.97,575.308 322.977,566.473 325.446,558.015L316.448,557.835ZM551.657,624.914C552.121,629.7 552.593,636.619 553.29,641.218C560.604,640.227 568.307,638.609 575.617,637.285C577.91,636.961 578.104,637.336 579.49,636.071C580.355,632.486 578.462,628.691 577.208,625.02L551.657,624.914ZM377.072,662.121C377.565,664.787 377.48,678.293 377.029,680.761C377.504,683.582 377.313,694.932 377.305,698.251C380.904,697.911 384.494,697.373 388.076,696.871C396.728,671.333 408.147,646.341 418.063,621.255C423.078,608.569 428.894,596.261 433.715,583.453C413.313,573.825 398.116,567.274 375.994,562.589C375.987,570.181 377.222,578.82 377.158,586.482C376.95,611.296 378.042,637.402 377.072,662.121Z" style="fill:rgb(14,46,68);"  data-color="color-1"/>
        <path d="M462.664,267.534C464.858,267.922 467.591,266.21 469.678,265.104C511.434,242.977 567.128,249.787 599.728,284.772C602.213,287.439 603.552,295.095 606.535,295.93C609.697,295.156 609.902,294.777 613.25,295.133C611.404,301.475 610.092,305.081 607.014,310.897C596.949,297.347 579.317,285.131 563.599,279.338C526.049,265.498 487.386,270.636 451.771,286.513C455.549,280.681 459.333,273.7 462.664,267.534ZM665.077,552.106C666.546,551.863 668.573,550.154 669.856,549.144C677.678,542.987 686.44,536.776 695.594,532.782C706.986,527.811 719.77,525.239 732.082,524.012C737.361,523.486 742.96,523.473 748.197,522.769L748.71,522.697C752.627,525.293 756.57,527.982 760.614,530.365C716.983,533.419 697.19,537.378 666.125,570.234C665.604,565.169 665.045,557.249 665.077,552.106ZM365.432,545.339L363.403,544.842L363.244,544.369L364.925,543.603C398.176,530.122 427.783,517.957 463.53,511.913C456.851,530.427 446.694,549.686 439.655,569.516C420.712,559.653 399.419,551.358 378.447,547.309C375.123,546.667 368.572,545.326 365.432,545.339ZM503.204,555.503C503.307,553.961 503.43,554.734 503.728,553.438L504.207,553.692C504.604,556.983 504.62,564.847 504.057,568.137C503.778,564.858 504.552,557.96 503.204,555.503ZM418.194,480.213C420.641,480.306 436.336,472.27 439.908,470.813C499.315,446.585 567.524,452.51 621.984,485.683C624.624,474.653 625.438,468.074 623.765,456.51C623.355,453.674 622.264,447.619 622.306,445.013C635.595,472.548 645.77,509.327 649.653,539.62C605.145,500.848 554.278,485.807 495.672,489.833C464.478,491.976 424.36,500.26 395.774,513.343C401.611,505.892 406.914,498.545 411.865,490.468C412.921,488.745 417.128,481.2 418.194,480.213ZM687.094,463.397C691.215,460.134 690.819,459.732 693.275,455.39C693.892,460.056 694.036,462.836 694.119,467.564L687.094,463.397ZM242.529,532.39C242.941,532.545 243.353,532.7 243.766,532.854C250.294,530.291 257.851,526.401 264.326,524.115C295.636,513.059 315.868,508.835 349.04,509.04C369.197,478.321 380.664,458.302 375.263,420.207C387.693,422.121 400.249,425.741 412.582,428.272C415.19,428.807 417.916,429.482 420.471,430.221C414.394,463.141 392.815,496.63 370.669,521.094C365.308,527.017 354.512,538.401 348.168,543.07C340.334,542.88 332.708,542.206 324.892,542.187C298.95,542.124 273.024,545.747 247.812,551.735C240.447,553.484 228.06,556.315 220.883,559.011C226.897,552.882 231.937,546.759 236.919,539.787C237.678,538.725 241.894,532.901 242.529,532.39ZM310.692,352.572C312.22,352.893 320.535,348.976 322.802,348.047C348.973,337.322 378.295,336.498 405.09,345.569C408.192,346.619 415.365,350.529 417.745,350.783C420.97,359.821 422.355,368.051 423.554,377.441C389.524,354.079 341.525,355.18 303.424,366.744C304.518,364.575 309.601,354.151 310.692,352.572Z" style="fill:white;fill-opacity:0.67;"/>
        <path d="M524.132,54.651C529.896,54.461 535.665,54.566 541.418,54.966C548.068,69.812 546.392,77.164 546.407,93.074L546.485,137.63C549.034,140.95 555.017,146.971 558.093,150.409C552.793,163.068 549.637,165.157 550.031,179.262C552.898,179.616 555.919,180.305 558.777,180.811C577.117,184.06 595.423,187.99 613.823,190.848C620.897,198.335 632.223,218.271 635.849,227.627C650.686,265.916 639.949,297.364 624.802,332.261C629.812,332.835 638.027,334.728 642.924,335.726C647.714,336.701 662.71,338.828 665.639,342.379C691.628,373.881 715.025,409.175 721.247,450.379C722.35,457.68 722.457,465.041 722.776,472.315C726.786,475.414 739.369,483.024 744.451,486.386L800.84,523.718C810.929,517.252 824.812,506.614 834.822,499.409L896.305,455.617C907.662,447.506 920.645,437.617 932.14,430.046C940.158,434.467 954.581,444.393 962.496,449.72C947.955,461.811 934.448,475.194 920.258,487.648C893.563,511.076 867.212,534.962 838.89,556.412C838.313,562.332 838.1,570.765 836.716,576.38C834.499,585.374 830.16,594.75 827.145,603.627C823.757,613.604 821.797,623.415 819.935,633.723C818.497,641.677 820.969,648.286 821.773,655.702C822.65,663.798 824.749,684.161 822.881,691.612C820.661,700.465 812.02,718.647 807.999,727.037C801.162,741.361 793.599,755.327 785.339,768.88C775.783,784.408 765.894,794.567 760.512,811.821C770.614,812.12 780.171,812.478 790,815.184C803.236,818.829 815.676,825.06 829.393,826.866C844.419,828.845 859.673,825.985 873.748,820.667C879.244,818.57 884.773,816.159 890.214,813.891C887.976,820.887 885.341,827.701 881.91,834.179C866.692,862.913 839.502,886.773 807.275,893.793C788.938,897.787 769.176,896.427 751.598,903.767C742.711,907.477 734.968,912.909 727.023,918.248C710.446,930.039 693.692,937.801 673.575,941.364C645.71,946.298 618.532,935.966 591.026,940.87C579.883,942.857 569.095,947.601 558.49,951.485C544.546,956.592 530.429,960.793 515.525,961.909C490.238,964.258 467.815,958.157 444.887,948.169C434.335,943.572 425.682,939.201 414.113,937.194C404.474,935.523 397.225,935.864 387.546,936.113C370.45,936.552 353.954,935.401 337.819,929.125C315.262,920.351 296.094,905.654 277.703,890.346C276.017,888.822 270.704,883.903 268.947,883.515C256.745,880.824 241.269,884.225 228.752,884.507C217.035,884.777 205.352,883.125 194.169,879.617C163.62,869.852 129.007,843.437 114.181,814.814C147.353,826.165 168.612,832.061 202.899,818.009C186.028,798.694 183.2,784.604 178.005,761.509C176.421,754.467 156.576,740.969 157.714,729.594C158.011,726.625 156.497,721.233 157.123,717.865C157.418,702.084 156.416,685.876 158.619,670.232C159.957,660.94 167.008,651.086 169.001,642.393C171.844,629.995 174.145,617.713 177.224,605.299C167.033,601.73 156.928,597.917 146.919,593.866C187.629,560.331 232.54,515.215 244.823,461.846C254.998,417.642 222.827,388.666 199.669,355.592C223.436,360.67 250.1,364.985 274.321,369.702C278.06,364.516 285.96,348.133 288.221,341.799C296.172,319.515 303.82,295.818 293.922,273.034C290.528,271.822 285.976,270.911 282.376,270.086C281.426,267.928 280.477,265.46 279.644,263.236C275.34,251.748 270.176,240.883 264.769,229.875C274.144,231.968 284.249,233.662 293.746,235.514L352.914,247.214L352.804,227.566C328.266,224.641 320.09,212.338 300.482,199.294C293.501,194.65 287.595,192.116 279.939,189.119C298.502,178.988 313.758,179.194 333.841,178.915C339.841,178.831 349.064,175.628 354.755,173.517C356.766,168.121 358.848,162.453 361.224,157.228C368.123,153.84 374.925,155.948 382.243,157.333C388.859,170.827 386.852,185.237 387.634,199.52C388.636,217.805 388.067,236.152 388.79,254.368C404.46,257.101 421.862,260.374 437.357,263.85C446.454,244.368 454.074,216.268 447.607,195.126C443.939,193.955 441.518,193.111 438,191.586C431.222,177.458 425.836,167.36 418.022,153.777C430.553,155.267 444.623,158.307 457.163,160.698C473.003,163.609 488.822,166.638 504.617,169.785C504.806,164.484 505.018,161.313 506.269,156.179C490.846,139.274 461.835,136.264 440.112,134.876C422.504,133.751 408.07,136.88 390.56,130.273C361.808,119.425 350.973,99.016 338.783,73.031C383.14,96.143 392.08,85.887 434.267,67.084C462.519,54.492 489.729,57.33 517.616,69.437C518.992,63.606 520.802,59.568 524.132,54.651ZM250.596,868.24C250.988,868.103 253.114,867.897 253.662,867.833C274.843,865.999 289.914,868.595 307.071,881.921C308.441,882.72 308.799,882.572 309.114,883.683C307.504,884.125 307.464,884.105 305.783,884.139C301.451,883.661 294.324,884.111 289.7,884.086C307.154,896.002 323.721,909.318 343.921,916.407C358.092,921.38 373.675,923.002 388.488,921.197C409.53,918.633 423.933,923.444 443.359,931.316C469.962,942.096 496.043,950.466 525.299,944.922C533.607,943.308 541.792,941.119 549.795,938.37C564.364,933.316 583.52,925.017 599.112,924.252C600.518,923.719 604.737,923.933 606.298,924.026C629.426,923.254 651.959,930.554 676.541,925.56C707.857,919.197 724.474,897.673 753.275,887.377C765.257,883.094 781.081,882.173 794.024,881.12C826.571,878.473 846.117,861.377 866.122,837.304C831.918,846.75 815.81,837.891 784.147,826.861C780.567,825.614 772.539,824.999 768.395,824.579C766.374,824.788 760.348,825.041 759.073,825.275C753.419,825.776 747.497,826.445 741.842,826.369C744.82,812.208 749.273,799.72 756.018,786.882C757.944,783.216 762.344,777.694 764.723,773.847C770.858,764.169 776.878,754.778 782.819,744.943C793.121,727.673 800.273,709.502 808.993,691.335C812.849,683.302 809.184,660.921 808.153,651.688C807.612,646.844 805.206,639.077 806.009,634.442C808.539,619.831 812.298,605.392 817.118,591.381C818.89,586.281 822.666,579.731 823.379,574.809C824.468,567.294 823.686,558.722 823.862,550.983L939.949,454.403C936.689,450.659 934.701,448.531 931.032,445.209C925.15,450.567 917.889,455.315 911.486,460.009C905.164,464.645 898.93,469.386 892.605,474.028C862.194,496.245 831.503,518.078 800.54,539.521C797.577,537.296 794.28,535.292 791.194,533.204C763.851,514.7 735.305,497.16 708.858,477.365C708.987,471.564 709.101,466.036 708.704,460.228C706.424,426.879 688.287,397.018 669.9,370.049C666.506,365.07 659.25,355.399 654.897,351.746C625.9,346.826 595.329,338.784 566.635,334.218L566.007,333.841C565.147,332.503 564.885,329.553 564.618,327.846C563.262,321.033 561.415,314.104 559.709,307.348C558.285,302.344 557.19,296.889 556.064,291.783C569.402,296.957 585.98,305.836 594.973,317.397C597.29,319.505 599.958,322.656 601.467,325.397C602.378,326.167 606.381,332.409 607.672,334.157C616.67,324.404 627.888,293.879 629.27,280.669C632.769,247.228 623.739,226.497 604.183,200.927C593.84,198.633 581.238,196.908 570.588,194.98C560.88,193.222 546.774,189.833 537.298,188.831C536.753,180.437 536.913,170.016 536.818,161.47L544.334,162.143C545.374,157.578 545.717,152.142 546.157,147.423C543.054,147.042 539.704,147.042 536.56,146.956C536.996,129.802 535.909,111.909 535.864,94.734C535.845,87.632 535.368,79.511 535.916,72.503C531.531,72.359 527.565,72.428 523.197,72.528C523.083,74.401 522.921,75.939 522.681,77.8L522.5,78.579C522.425,81.304 522.518,82.748 521.764,85.396C520.801,85.939 521.248,85.881 520.486,85.844L518.858,85.18C513.014,84.393 504.855,80.555 499.155,78.557C494.891,77.062 492.133,76.367 487.659,75.372L477.195,74.118C468.539,73.91 463.646,73.921 455.037,76.045C427.662,82.799 400.799,104.837 371.403,99.729C383.952,110.863 389.685,115.539 407.24,117.957C410.491,118.405 414.741,118.455 417.711,118.948C419.856,118.851 421.35,118.733 423.497,118.957C451.514,118.815 488.871,123.079 511.963,140.367L515.105,128.107C517.003,120.217 518.201,116.035 520.577,108.487L521.101,108.258C521.596,109.393 521.512,108.731 521.32,109.714C520.258,115.139 520.469,122.036 520.355,127.699C520.152,132.769 519.956,137.538 520.022,142.626C517.915,142.277 515.433,141.934 513.377,141.497L509.113,159.414C512.776,159.544 515.84,159.606 519.472,160.141C520.105,168.096 520.098,177.105 520.035,185.138C492.577,179.531 464.104,175.224 436.785,169.051C440.006,173.793 443.153,178.585 446.224,183.425C448.079,184.041 450.904,184.906 452.41,186.068C464.331,195.264 463.183,217.466 460.469,230.56C455.301,255.492 441.463,278.549 425.408,297.987C423.473,300.33 421.24,304.011 418.223,304.374C419.015,300.125 422.741,294.149 424.427,289.375C427.15,284.739 429.814,280.069 432.421,275.367C415.165,272.639 393.995,268.103 376.844,264.325C376.686,260.913 376.691,257.252 376.696,253.829C376.74,225.563 376.038,197.358 375.408,169.104L367.723,168.973C366.829,173.98 366.273,179.549 365.662,184.636C350.453,193.713 332.041,195.258 314.879,192.276C328.125,201.794 334.413,211.31 351.973,212.695C355.408,212.766 361.645,211.882 363.39,213.488L363.528,215.368C363.445,230.132 363.126,247.031 363.717,261.648C338.471,258.128 309.544,249.675 284.573,246.831C286.642,251.467 288.677,256.118 290.678,260.784C295.703,261.392 300.376,262.938 302.822,267.928C317.448,297.767 305.322,334.807 291.531,362.876C288.212,369.631 283.833,376.405 280.932,383.001C268.073,380.391 254.906,378.564 242.029,375.977C236.872,374.941 229.223,373.716 224.263,372.144C246.061,399.142 261.843,420.116 257.541,457.189C256.964,462.163 256.223,467.393 254.88,472.247L254.26,473.871C247.195,502.33 226.711,532.58 207.375,554.441C200.14,562.621 190.544,570.969 184.112,578.433C181.448,580.722 178.644,583.696 176.138,586.231C179.18,585.426 185.065,584.048 187.726,582.852C195.49,581.241 208.497,576.268 217.07,574.069C245.855,566.685 275.113,559.748 304.88,558.128C293.917,580.466 284.175,603.384 275.699,626.779C255.301,623.256 234.746,618.436 214.407,614.63C207.035,613.25 194.609,610.453 187.517,609.727C184.495,622.921 182.314,634.797 180.514,648.264C179.412,656.118 172.171,665.97 171.096,673.251C168.439,691.244 169.852,711.176 170.405,729.344C170.665,737.901 188.285,750.738 189.614,755.793C196.416,781.669 202.336,802.899 224.295,820.585C199.269,835.657 173.789,841.469 145.041,834.408C173.861,858.25 200,872.242 239.478,869.494C243.152,869.238 246.932,868.592 250.596,868.24ZM551.657,624.914L577.208,625.02C578.462,628.691 580.355,632.486 579.49,636.071C578.104,637.336 577.91,636.961 575.617,637.285C568.307,638.609 560.604,640.227 553.29,641.218C552.593,636.619 552.121,629.7 551.657,624.914ZM778.459,594.157C776.612,594.395 776.08,594.837 774.901,594.063C775.254,592.581 778.025,590.239 779.271,589.017C790.244,578.26 798.345,571.357 810.358,561.83C810.645,563.18 811.457,566.867 811.31,568.067C810.5,574.673 806.112,585.386 802.729,590.802C796.42,591.821 784.732,593.902 778.459,594.157ZM470.313,580.692L470.784,580.686L471.208,581.22C470.68,584.104 467.24,596.159 465.778,598.226C462.334,600.292 444.858,601.991 439.634,602.678L438.674,602.504C438.461,600.219 444.797,586.861 446.033,584.09C453.956,582.827 462.336,581.798 470.313,580.692ZM316.448,557.835L325.446,558.015C322.977,566.473 319.97,575.308 316.815,583.553C316.25,585.029 316.397,584.688 315.123,585.15C311.476,585.11 308.57,584.926 304.929,584.617C308.533,575.59 312.374,566.66 316.448,557.835ZM544.432,549.312C549.11,550.135 553.826,550.722 558.563,551.07C559.85,555.952 561.266,561.105 561.835,566.101C557.383,565.08 550.907,564.778 545.961,563.925C545.541,559.12 545.197,554.054 544.432,549.312ZM377.072,662.121C378.042,637.402 376.95,611.296 377.158,586.482C377.222,578.82 375.987,570.181 375.994,562.589C398.116,567.274 413.313,573.825 433.715,583.453C428.894,596.261 423.078,608.569 418.063,621.255C408.147,646.341 396.728,671.333 388.076,696.871C384.494,697.373 380.904,697.911 377.305,698.251C377.313,694.932 377.504,683.582 377.029,680.761C377.48,678.293 377.565,664.787 377.072,662.121ZM390.14,578.604C390.856,596.32 391.168,614.05 391.075,631.78C391.11,639.429 391.526,648.42 391.363,655.837C395.006,648.798 397.8,641.726 401.015,634.509C406.967,621.106 414.132,603.258 420.463,590.644C413.563,587.709 396.837,580.502 390.14,578.604ZM564.004,574.294C565.477,579.454 566.899,584.627 568.27,589.815C561.52,589.435 554.776,588.951 548.041,588.364C547.363,582.878 546.739,577.798 546.344,572.275C550.347,572.918 554.584,573.479 558.622,573.963C560.332,574.168 562.367,574.529 564.004,574.294ZM549.006,597.222C554.869,597.941 564.078,598.248 570.216,598.686C571.942,604.35 573.53,610.998 575.048,616.766C568.034,616.014 558.14,616.001 551.045,615.892C550.194,609.971 549.626,603.226 549.006,597.222ZM470.267,554.304C472.896,554.029 476.308,553.952 479.015,553.823C477.82,558.965 475.511,565.819 473.972,571.013C468.495,571.412 463.024,571.902 457.563,572.481C455.126,572.814 452.641,572.988 450.187,573.196C453.135,566.972 455.523,561.391 458.133,555.01L470.267,554.304ZM430.094,632.367C428.311,632.723 427.708,632.922 425.855,632.795C425.611,630.855 432.86,615.131 434.047,612.438C444.034,611.493 453.966,610.029 463.8,608.05C461.403,614.744 460.005,621.062 457.065,627.763C450.277,629.536 441.312,630.693 434.371,631.801C432.95,632.028 431.526,632.334 430.094,632.367ZM260.611,687.021C250.379,684.713 237.394,682.974 226.731,680.95C226.183,680.945 223.939,680.577 223.265,680.482C214.52,678.82 203.608,676.427 194.91,675.091C194.412,677.573 193.608,682.278 193.523,684.601C193.359,689.064 193.167,717.237 194.518,719.801C195.417,720.089 196.437,720.463 197.348,720.639C211.169,724.376 225.228,727.528 238.88,731.278C241.518,731.825 245.198,732.473 247.72,733.152C296.168,742.222 341.993,747.237 391.276,744.065C408.111,742.981 425.834,741.868 442.43,738.851C446.315,738.465 450.285,738.169 454.182,737.838C456.288,737.197 459.036,737.039 461.24,737.013L453.502,739.62C450.361,740.797 447.203,741.928 444.03,743.015C424.905,748.621 400.424,754.941 380.406,755.702C377.783,756.109 375.504,756.123 372.868,756.198C369.464,756.859 355.895,756.985 352.012,756.974C333.848,757.077 315.69,756.278 297.604,754.581C294.963,754.384 291.587,754.26 289.064,753.687C271.11,752.053 247.975,748.459 230.503,745.215L227.784,744.821C220.878,743.653 213.999,742.239 207.133,740.866C199.647,739.369 195.17,738.688 189.651,733.139C188.897,732.635 184.435,728.351 183.51,727.483C183.507,715.286 183.41,703.085 183.456,690.887C183.496,680.171 189.262,670.661 192.412,660.337C198.1,660.578 208.835,662.808 214.833,663.894C217.595,664.304 219.972,664.706 222.71,665.265C237.757,667.931 251.507,670.486 266.44,673.869C263.071,667.606 260.16,660.509 256.86,653.995L251.929,653.297L250.089,652.88C232.668,649.402 212.543,646.097 195.438,642.125C195.525,637.692 195.911,633.097 196.29,628.666C196.351,627.957 196.522,627.561 196.719,626.871C198.193,626.141 199.755,626.774 201.488,627.106C205.35,627.846 210.532,628.565 214.258,629.454L221.163,630.666L222.63,631.02L232.248,632.956C243.021,635.035 253.617,637.332 264.441,639.239C272.969,666.554 284.177,693.657 310.404,708.169L311.659,708.815C326.992,715.962 325.953,713.389 340.582,715.061C342.319,715.04 344.267,714.97 345.987,715.032C370.915,714.663 387.378,713.879 412.632,710.731C435.709,707.854 459.972,702.833 482.562,700.491C488.918,691.17 496.44,677.411 501.442,667.35C505.939,666.022 513.746,665.113 518.658,664.152C531.289,661.68 544.165,659.696 556.777,657.134L558.11,656.753C562.676,656.299 570.652,654.591 575.345,653.719C589.734,650.969 604.089,648.045 618.407,644.946C640.386,640.33 662.31,635.456 684.175,630.324C694.355,627.944 708.68,624.979 718.28,621.927L721.335,621.333C723.784,620.69 726.318,620.087 728.781,619.474L734.546,618.133C753.45,613.304 779.436,606.088 798.338,602.667C793.8,616.637 787.139,632.377 781.77,646.17C773.716,666.818 766.063,687.621 758.871,708.584C757.576,712.359 751.647,729.34 751.456,732.239L750.904,733.176L749.241,737.554L748.673,740.139C742.481,756.774 737.654,777.748 732.384,794.908C730.622,800.645 724.973,824.134 722.654,827.829L722.364,830.283C721.766,831.856 721.617,832.724 720.32,833.788C718.826,834.217 718.768,834.247 717.252,833.886C715.505,833.471 713.754,833.073 712,832.688C715.561,814.738 719.859,796.941 724.884,779.345C733.762,749.341 746.028,716.682 755.947,686.556L769.557,645.488C771.828,638.637 775.837,625.653 778.928,619.539C776.99,618.997 774.299,620.065 772.092,620.571C727.362,632.826 682.488,644.122 637.376,654.852C634.59,655.515 630.913,656.524 628.108,656.87C624.922,657.737 622.867,658.209 619.615,658.756C605.416,662.295 588.855,665.076 574.386,667.82L573.748,667.929C560.36,670.653 546.943,673.238 533.5,675.682C525.509,677.109 517.169,678.453 509.219,680.099C507.643,680.425 506.512,680.678 505.773,682.023C501.375,690.029 498.247,699.044 493.33,706.816C492.15,708.795 491.102,710.464 489.807,712.368C486.289,714.136 476.531,714.72 472.141,715.245C469.905,715.774 468.714,715.903 466.415,716.116C419.424,727.811 370.745,731.169 322.593,726.036L321.092,725.743C304.673,724.12 291.512,711.012 280.945,699.361C277.932,696.039 275.416,691.735 272.256,688.766C268.382,688.13 264.501,687.548 260.611,687.021ZM301.347,592.87C305.444,593.151 309.543,593.383 313.645,593.565C312.054,598.61 310.346,604.377 308.44,609.336C308.055,610.338 308.108,610.073 307.056,610.42L294.009,610.398C296.312,604.497 298.759,598.652 301.347,592.87ZM498.373,285.2C498.972,285.079 501.94,284.999 502.721,284.965L492.024,319.321C476.852,316.063 461.494,313.317 446.38,309.828C442.093,309.255 434.795,307.577 430.336,306.678C453.078,296.82 473.582,288.165 498.373,285.2ZM314.059,644.002C312.409,643.1 311.092,643.088 309.227,642.844C310.386,639.413 311.698,635.023 312.56,631.508C318.596,606.889 329.273,583.12 336.18,558.907C338.012,558.89 340.285,558.548 341.735,559.364C342.74,562.343 342.667,569.083 342.888,572.476C344.238,593.217 343.292,613.694 342.921,634.454C342.834,639.998 342.811,645.658 342.535,651.186C342.519,655.999 342.729,665.286 342.283,669.716C342.266,671.992 342.308,674.427 342.122,676.682L342.016,681.045L341.984,686.412C341.978,688.949 341.919,691.711 341.974,694.227C340.362,694.134 339.459,693.986 337.864,694.355C336.199,694.045 334.571,694.1 332.874,694.078C332.268,693.993 332.084,693.83 331.502,693.562C330.21,690.358 330.997,651.29 331.907,646.6C329.126,646.155 326.487,645.695 323.675,645.453L323.528,645.105C321.295,644.933 316.875,644.079 314.759,643.415L314.059,644.002ZM331.277,621.361C329.978,624.098 328.701,626.593 327.747,629.474L328.39,630.72L329.967,630.347C331.106,628.247 331.626,623.599 331.277,621.361ZM453.396,641.433C451.96,647.091 449.488,653.777 447.566,659.362C436.362,660.959 422.862,663.609 411.365,665.477C414.523,659.422 418.386,649.631 421.18,643.119L450.859,638.657L453.266,638.331L453.928,638.921C453.803,640.158 453.85,640.296 453.396,641.433ZM454.157,689.647C452.491,689.373 452.995,689.795 452.212,688.791C457.546,672.705 462.711,652.283 467.512,635.741C479.193,596.607 490.241,557.286 500.652,517.795C501.606,521.988 501.89,524.07 504.364,527.702C508.346,529.301 513.249,531.445 517.327,532.46C517.358,537.564 517.407,542.384 517.137,547.494L517.024,548.128C517.809,581.241 515.394,615.538 515.457,648.741C510.131,649.912 497.146,652.336 492.75,653.895C489.753,658.573 487.72,663.446 484.65,667.964C483.513,670.544 482.375,672.145 480.84,674.469C479.349,677.131 477.82,679.771 476.253,682.389C475.072,684.753 474.548,686.908 471.839,687.683C468.36,687.698 463.53,688.399 459.878,688.723C457.917,689.119 455.867,689.186 454.157,689.647ZM503.204,555.503C498.629,575.531 493.501,595.429 487.825,615.173C483.597,629.883 478.932,644.359 474.797,659.114C478.469,654.998 480.62,649.789 483.713,645.386L503.376,639.233C503.292,615.532 503.519,591.832 504.057,568.137C504.62,564.847 504.604,556.983 504.207,553.692L503.728,553.438C503.43,554.734 503.307,553.961 503.204,555.503ZM338.271,372.699C340.39,372.43 339.61,372.138 341.185,372.883C343.313,376.968 343.85,381.232 345.462,385.196C346.936,388.819 352.46,392.877 351.801,397.894C350.55,398.252 317.835,390.714 313.879,389.707C305.313,388.162 296.83,385.593 288.254,384.43C302.66,379.673 323.253,374.289 338.271,372.699ZM397.923,379.667C406.274,382.593 416.655,388.638 424.321,393.164C424.641,400.012 424.243,406.973 423.988,413.832L418.39,412.433C410.417,410.805 397.135,408.209 389.566,405.876C390.61,397.005 395.279,389.056 397.923,379.667ZM480.414,509.779C483.552,509.467 487.978,509.424 491.22,509.299C489.518,517.802 483.947,536.504 480.951,544.907L471.758,545.565C468.346,545.87 464.942,546.262 461.55,546.739C465.961,535.711 471.493,521.977 476.383,510.883C476.88,509.756 478.912,509.928 480.414,509.779ZM573.162,514.801C578.059,515.845 586.432,519.06 590.916,520.908C610.319,528.904 627.569,540.254 641.959,555.555C645.394,559.207 649.172,562.781 651.962,567.064C652.918,576.943 652.016,590.639 652.597,601.433C675.867,581.941 695.967,556.172 727.107,548.548C742.163,544.862 759.269,540.994 774.75,539.798C778.968,542.723 783.131,545.726 787.238,548.805L719.59,596.597C714.785,600.037 701.269,610.891 697.397,612.922C694.811,614.279 674.821,617.936 669.976,618.934C652.685,622.604 635.351,626.071 617.979,629.337C609.746,630.913 599.16,633.248 590.981,634.187C589.002,624.105 585.199,610.8 582.504,600.769C578.208,584.939 574.057,569.07 570.052,553.164C567.953,544.878 565.03,534.818 563.902,526.484C563.647,524.597 565.784,515.166 566.254,512.631L571.234,514.012L573.162,514.801ZM750.619,555.183C717.065,559.475 689.197,582.745 666.256,606.151C669.041,605.965 671.73,605.834 674.489,605.368C677.758,604.84 692.923,602.826 694.367,601.788C712.348,588.868 729.55,574.633 747.882,562.075C751.135,559.847 754.713,557.286 757.798,554.856C756.075,554.918 752.151,554.948 750.619,555.183ZM579.532,531.219C584.62,558.09 593.296,592.961 600.233,619.827C611.188,618.616 625.308,615.052 636.678,613.141L643.059,611.733C642.643,600.319 642.948,586.414 642.042,575.412C620.555,552.968 608.453,543.262 579.532,531.219ZM412.145,694.263C408.156,694.824 404.153,695.283 400.141,695.639L404.673,683.436C405.249,681.647 406.738,676.31 408.183,675.918C419.193,672.929 434.226,672.163 445.288,669.407C443.01,676.506 440.829,683.636 438.744,690.795C429.905,692.155 421.037,693.312 412.145,694.263ZM542.554,329.391C541.421,328.807 541.257,329.026 541.007,328.021C539.826,323.274 540.779,317.105 540.16,312.394C543.048,312.307 547.607,312.041 550.357,312.188C551.28,316.729 553.569,326.817 553.811,330.997C552.094,331.938 548.594,330.813 546.591,330.313L542.554,329.391ZM538.605,287.538L541.035,287.871C547.801,288.777 547.834,300.329 548.812,305.996L539.934,306.132C539.21,300.586 539.24,293.571 538.605,287.538ZM554.223,534.281L554.732,534.262C555.87,537.122 556.354,540.262 556.953,543.293C554.399,542.568 551.542,542.299 548.892,541.921C543.7,541.18 541.202,538.541 546.991,535.113C546.678,535.299 553.519,534.398 554.223,534.281ZM297.119,630.772L287.81,628.815L291.265,618.181C295.636,618.245 301.162,618.743 305.61,619.015L302.515,628.928C301.917,630.885 302.316,630.707 300.993,631.667C299.322,631.578 298.679,631.285 297.119,630.772ZM512.902,284.06L520.865,284.011C520.397,287.794 519.802,303.442 518.244,305.609L516.979,305.606C513.706,305.45 510.336,305.689 507.056,305.844C508.668,299.418 510.749,290.069 512.902,284.06ZM512.628,312.216C513.777,312.021 516.768,312.037 518.075,312.007C517.904,316.466 517.464,319.976 516.904,324.386L510.218,323.117C508.134,322.76 505.298,322.013 503.175,321.524C503.728,318.714 504.589,315.451 505.26,312.626C507.519,312.633 510.331,312.368 512.628,312.216ZM794.95,684.924C794.622,698.21 775.151,730.194 766.896,740.739C769.757,733.666 771.979,726.057 774.697,718.938C780.678,703.274 786.23,687.181 793.184,671.941C793.75,670.467 793.564,670.184 794.629,669.417C795.181,670.611 794.972,670.961 794.845,672.322L794.988,678.039C795.283,681.09 795.283,681.879 794.95,684.924ZM288.687,571.755C257.776,574.318 213.042,585.304 182.783,592.556C188.869,593.868 194.443,594.847 200.587,595.864L272.987,610.402C276.877,600.28 284.092,581.116 289.196,572.247L288.687,571.755Z" style="fill:rgb(115,191,0);"  data-color="color-2"/>
        <path d="M764.965,856.824C733.14,864.301 706.069,848.087 678.02,836.087C651.428,824.711 619.903,820.958 591.828,829.008C563.474,837.137 541.601,850.549 511.141,851.922C499.764,852.475 488.372,851.192 477.404,848.122C459.257,843.229 448.004,837.343 428.397,836.108C396.144,834.076 374.297,850.38 342.637,851.81C317.643,852.939 303.765,842.719 280.342,839.587C261.728,837.098 243.734,840.891 225.634,844.196C220.28,845.174 211.914,845.495 206.107,846.113C241.358,827.88 268.307,813.605 308.877,827.073C322.24,831.509 336.691,834.381 350.726,832.434C381.075,828.224 402.099,810.612 434.297,812.659C464.853,814.602 486.89,832.443 518.098,828.616C561.06,823.348 590.628,794.102 637.021,801.074C671.046,806.187 688.116,825.302 715.312,840.744C728.473,848.268 742.91,853.295 757.897,855.574C761.077,855.488 764.473,855.266 767.605,855.651L766.381,856.213L767.297,856.164C766.762,856.329 765.444,856.781 764.965,856.824ZM696.581,891.823C658.135,905.755 638.591,884.735 600.465,888.284C582.792,889.929 564.696,898.734 548.029,904.844C515.3,916.843 491.348,915.181 459.133,902.222C448.657,898.008 435.304,893.379 424.056,892.237C415.458,891.364 403.052,892.265 394.54,893.941C359.08,900.922 352.503,899.623 320.911,884.488C332.811,886.99 349.172,888.555 360.985,885.796C383.194,880.609 398.967,869.758 423.218,870.814C457.158,872.291 478.84,892.927 514.618,889.376C548.348,886.029 570.418,866.427 604.388,866.701C631.692,866.921 646.314,880.423 671.243,887.658C677.651,889.518 682.529,890.007 689.08,890.693C691.626,890.502 696.247,890.118 698.608,890.891C697.781,891.891 698.248,891.447 696.581,891.823Z" style="fill:white;"/>
    </g>
</svg>
