<svg width="100%" height="100%" viewBox="0 0 830 634" version="1.1" xmlns="http://www.w3.org/2000/svg" xmlns:xlink="http://www.w3.org/1999/xlink" xml:space="preserve" xmlns:serif="http://www.serif.com/" style="fill-rule:evenodd;clip-rule:evenodd;stroke-linejoin:round;stroke-miterlimit:2;">
    <g transform="matrix(1,0,0,1,-95.4509,-215.417)">
        <path d="M887.55,388.375C897.865,389.749 916.504,390.769 920.851,401.907C925.986,409.384 924.181,419.077 924.014,427.784C923.942,459.93 924.974,492.298 924.505,524.491C924.438,529.074 924.713,549.475 923.548,552.816C922.84,554.706 922.302,556.24 921.378,558.043C915.675,567.248 912.177,567.546 903.79,572.41C905.482,585.855 907.373,598.467 902.555,611.309C906.322,619.205 905.734,621.369 904.438,629.864C903.4,636.667 901.913,642.361 899.424,648.863C898.879,650.287 900.984,654.058 901.04,655.703C900.553,660.073 897.961,666.511 896.757,670.674C895.363,675.497 892.079,679.334 890.823,683.253C890.563,686.533 890.434,688.859 888.856,691.894C887.102,695.814 884.603,701.837 881.643,704.887C894.338,706.801 912.599,709.471 924.841,712.438C917.158,719.376 909.558,726.405 902.043,733.524C897.768,737.641 890.01,745.673 885.621,749.077C884.381,749.979 883.912,750.028 882.461,750.508C875.316,752.095 867.762,753.85 860.682,755.749C847.203,759.365 832.318,761.417 819.026,765.362L816.857,765.78C805.95,768.473 794.995,770.966 783.997,773.259L778.063,774.744C764.338,777.726 749.555,780.983 735.997,784.598C735.354,784.764 732.964,785.427 732.454,785.458C721.265,788.485 701.594,794.3 690.839,796.467C688.622,797.223 685.733,798.304 683.521,798.865L625.733,814.975C618.37,817.093 600.585,822.991 594.13,824.06C590.746,825.497 586.758,826.562 583.195,827.612C571.827,830.983 560.477,834.418 549.153,837.937C545.635,839.03 537.231,841.419 534.223,842.733L533.34,842.657C531.02,843.946 516.244,848.13 513.153,849.041C508.587,847.812 503.536,845.938 498.998,844.444C481.097,838.55 462.948,833.529 444.943,827.992L440.015,826.544C428.864,822.722 412.384,818.287 400.965,815.088L394.626,813.373C376.911,808.7 356.441,802.642 338.868,797.412C335.949,796.594 333.024,795.797 330.093,795.021C328.029,794.611 325.838,793.982 323.787,793.446C306.83,789.524 288.69,783.755 271.372,779.842C261.744,777.666 247.541,774.792 238.615,772.083L227.789,769.784C220.494,767.415 212.965,765.878 205.509,764.149L163.023,754.518C140.411,749.292 141.779,751.337 124.566,735.593C116.15,727.827 107.677,720.125 99.147,712.486C109.606,710.731 121.297,707.799 131.772,706.929L128.804,702.442L126.513,697.785C123.898,692.936 121.354,690.517 117.912,686.325C112.819,680.122 110.754,668.951 109.782,661.241C109.701,661.137 109.618,661.033 109.538,660.928C99.413,647.634 98.59,611.43 100.65,595.107C91.723,584.767 96.423,559.81 99.136,547.091C100.004,543.433 100.657,540.659 101.886,537.12C102.987,533.366 103.792,530.179 105.442,526.613L105.283,526.169C109.251,517.67 111.541,518.307 116.673,511.825C135.2,488.425 153.871,476.906 183.561,473.438C170.275,471.943 164.089,471.573 150.708,471.556L146.402,471.566C140.885,471.611 136.399,471.934 130.72,471.771C130.482,466.93 130.306,462.087 130.192,457.241C129.864,445.831 128.864,434.098 137.56,425.43C143.813,419.197 148.869,419.924 156.911,419.894C157.136,410.168 159.262,396.564 163.7,387.855C165.494,383.133 168.483,378.278 171.771,374.45C172.074,373.797 172.894,372.797 173.407,372.282C187.276,358.367 201.222,351.904 220.546,351.334C226.635,350.534 235.526,350.203 241.843,349.779C263.617,347.722 285.632,347.317 307.456,345.759C316.462,345.116 325.517,345.219 334.544,344.509L349.449,300.154C358.76,271.602 361.516,242.129 397.22,238.489C398.856,238.096 401.015,237.796 402.714,237.508C410.713,237.127 421.779,235.311 430.438,234.625L521.734,227.354L523.615,227.186C541.519,224.995 560.142,223.396 578.127,221.735C580.061,221.157 591.008,220.359 593.552,220.148C602.458,218.876 611.333,218.876 620.504,217.725C641.294,215.116 677.978,209.07 681.798,239.149C684.154,257.705 673.767,282.046 670.82,300.755C670.298,303.787 668.787,308.504 668.463,311.122C677.561,308.747 681.74,306.788 691.554,305.845C711.394,303.796 735.354,303.568 753.932,311.096L755.578,311.688C759.738,313.541 765.816,316.48 769.58,318.991C771.765,320.577 773.145,321.551 775.122,323.453C777.758,325.513 778.888,326.493 781.232,328.898C783.724,331.481 786.994,334.855 788.903,337.917C790.79,339.869 795.35,346.404 796.388,348.916C798.809,352.799 802.944,360.341 804.444,364.647C805.65,367.219 808.323,373.673 808.591,376.417C809.869,378.472 809.551,378.564 812.377,379.155C816.463,380.009 820.987,380.284 825.166,380.622L827.445,380.917C837.997,382.508 849.021,383.235 859.588,384.763L866.644,385.747C870.471,386.318 874.308,386.822 878.153,387.258C880.833,387.55 885.002,387.889 887.55,388.375ZM764.361,336.408C759.47,332.57 754.12,329.356 748.435,326.84C733.29,320.195 710.801,323.742 694.33,323.02C692.213,322.927 688.938,323.072 686.827,323.339C682.689,323.883 678.632,324.929 674.748,326.455C670.798,328.041 665.219,330.977 663.497,334.978C662.939,336.571 661.974,339.077 661.629,340.646C660.101,347.766 658.781,354.887 657.283,361.989C666.523,375.746 661.37,387.17 660.563,402.122C659.555,420.811 659.274,440.736 659.827,459.491C659.94,463.318 662.193,468.686 663.95,472.063C673.519,477.749 676.833,476 687.284,476.528C700.226,477.183 717.489,475.225 729.899,477.829C727.298,482.125 725.234,487.025 719.266,488.364C710.876,490.247 701.257,488.186 692.998,488.967C661.312,491.963 646.639,481.911 648.498,447.416C648.334,444.216 648.195,442.191 648.465,438.993C648.362,437.161 648.427,435.035 648.434,433.175C648.048,423.731 648.015,411.674 648.353,402.83C648.966,386.744 657.727,374.681 643.205,361.717C638.476,357.496 645.163,338.835 646.256,331.921C647.265,327.971 647.995,324.361 648.78,320.356C652.293,308.666 654.885,294.468 657.575,282.494C658.866,276.751 660.741,270.73 661.728,265.082C662.222,263.882 664.833,252.095 665.364,249.877C665.731,248.574 665.709,247.675 665.771,246.341C665.878,243.44 665.563,242.097 664.803,239.32C659.107,234.141 661.166,234.622 652.657,232.163C646.107,231.939 642.606,232.04 636.024,232.855C633.381,233.182 626.936,233.963 624.75,233.867L623.932,234.29C619.118,234.554 614.177,234.947 609.389,235.504C583.034,238.567 556.142,240.089 529.828,242.896L500.241,245.782C496.538,246.143 490.369,247.259 486.943,246.983L468.085,248.569C458.113,248.483 440.177,250.793 429.926,251.636C421.759,252.307 406.152,253.362 398.584,254.707C395.632,255.222 392.756,256.103 390.023,257.331L387.024,259.14L384.177,260.916C376.927,267.276 379.8,265.705 375.887,271.932C374.208,276.06 373.877,279.064 371.878,283.062C371.811,285.715 370.25,289.729 369.595,292.46C367.01,298.988 362.988,312.906 360.681,320.137L360.134,322.041C359.447,324.861 358.669,326.453 357.737,329.068C353.738,340.288 350.001,351.609 347.282,363.213C340.437,361.93 326.39,363.031 319.002,362.985C298.734,362.858 278.651,363.824 258.449,364.983C254.09,365.233 232.396,367.189 230.605,366.549L226.374,366.69C222.467,367.703 217.926,367.157 214.232,368.045C200.749,371.286 184.201,378.712 179.248,392.665C173.286,405.239 171.618,423.705 174.322,437.17C170.905,438.383 157.77,438.215 153.1,438.48C144.93,443.477 145.976,446.633 145.42,455.813L146.094,455.931C156.616,457.692 170.104,455.213 180.675,456.469C180.897,456.496 197.157,485.379 197.958,487.119C182.94,488.055 165.892,490.203 153.081,499.018C150.177,501.036 147.224,502.983 144.225,504.857C140.729,508.376 131.956,518.036 131.231,523.022C130.525,524.103 129.782,525.124 129.288,526.312C126.921,526.584 124.551,526.815 122.177,527.005C119.986,530.043 116.352,546.943 116.417,550.71C115.174,553.482 112.425,579.291 113.391,584.188C113.588,585.186 117.909,586.744 117.884,588.261C117.76,596.085 115.628,607.381 115.526,614.823C115.385,625.183 118.497,637.936 119.779,648.102L120.428,651.079C122.885,656.975 126.423,653.704 129.656,657.903C130.748,660.922 126.046,665.596 128.016,670.432C129.739,675.94 130.234,677.329 133.667,682.067C135.19,683.925 135.324,684.505 137.576,684.88L141.051,684.905C142.265,689.497 139.92,690.353 140.51,692.328C142.453,698.828 154.919,709.783 159.905,713.656L161.407,714.842C161.187,715.074 137.441,717.877 134.279,718.481C137.754,722.262 144.997,727.523 149.765,729.503C156.199,733.342 157.654,733.3 164.85,734.956C189.181,737.775 214.759,744.447 238.793,749.4C286.528,759.236 333.882,770.56 381.29,781.83C385.323,782.788 405.937,788.848 407.865,788.617C409.916,789.294 411.95,790.021 413.965,790.797C417.677,791.063 443.337,797.185 446.431,798.62L447.856,798.742C460.208,802.396 473.887,804.902 486.499,808.278C494.411,810.396 505.029,813.741 513.027,815.227C514.774,815.551 528.056,811.95 530.059,811.169C532.507,810.766 537.527,809.328 539.961,808.54C542.472,808.286 549.211,806.372 552.136,805.62C560.815,803.388 569.751,801.268 578.346,798.802C581.424,798.178 584.087,797.522 587.125,796.732C607.815,791.616 628.4,786.199 649.182,781.475C655.553,780.027 663.069,778.675 669.203,776.675C671.693,775.98 675.302,775.383 678.112,774.667C679.681,774.55 696.923,770.095 699.474,769.469C713.609,765.989 727.813,762.796 742.076,759.889C743.157,759.78 744.356,759.4 745.429,759.119C749.68,757.91 757.95,756.48 762.643,755.499L806.767,746.63L832.632,741.31C836.607,740.505 841.036,739.948 844.805,739.157C845.983,738.69 847.381,738.397 848.628,738.078C856.418,736.349 866.449,735.603 873.715,733.03C879.526,730.972 890.387,721.228 896.642,719.808C898.007,719.499 896.973,720.398 898.766,719.203C895.292,718.383 894.48,718.172 890.854,718.155C889.992,718.108 889.065,717.896 888.204,717.739C882.021,716.919 875.707,716.521 869.606,715.346L866.323,714.882C865.671,714.623 861.257,714.161 860.264,714.04C858.3,714.002 857.583,714.048 856.204,713.065C856.733,710.646 860.986,708.228 863.196,706.658C863.197,704.394 862.871,702.048 863.997,700.222C869.853,698.248 874.087,689.588 875.629,683.861L875.87,682.947C876.675,679.953 876.173,677.094 875.874,673.982C881.32,669.584 881.681,668.251 883.608,661.741C883.965,660.099 884.829,657.459 885.321,655.764C884.841,652.709 883.559,649.778 882.449,646.875L880.941,645.68L882.583,642.734C884.385,639.324 889.298,637.297 889.524,631.734C889.828,624.24 889.99,620.841 885.459,615.139C886.022,613.286 885.939,611.206 886.541,609.02C887.837,603.952 889.676,604.397 890.23,597.369L890.349,593.545C889.674,584.561 886.692,564.618 884.808,555.992C890.057,555.911 902.117,555.934 904.763,551.467C909.076,544.183 906.981,526.051 907.126,517.733C907.377,503.338 907.825,489.334 907.432,475.307L907.556,469.495C906.935,458.153 907.107,442.379 907.463,430.947C908.285,404.592 908.14,408.278 882.013,405.233C874.847,404.023 867.73,403.523 860.504,402.725L822.662,398.32C813.164,397.214 805.137,396.585 795.635,394.882C791.537,380.969 788.578,369.689 781.105,356.879C780.259,354.999 777.733,351.146 776.535,349.217L774.965,347.364C773.313,345.116 772.241,343.457 770.074,341.644L764.361,336.408ZM509.839,647.495L508.808,645.336C508.714,642.024 506.948,636.513 506.599,632.363C505.088,614.375 505.965,600.481 509.727,582.885L511.241,578.022C517.819,561.247 528.727,539.029 552.328,546.624C564.072,550.404 572.807,566.328 577.31,576.663C586.486,600.374 586.267,624.278 580.651,648.551C579.151,652.608 578.033,657.446 576.371,661.133C573.61,665.732 571.441,669.364 567.946,673.491C554.363,689.531 534.856,690.161 521.739,673.197C520.585,671.997 520,670.748 519.182,669.3C515.764,664.029 514.424,661.977 512.432,656.081C511.452,653.292 510.824,650.893 510.069,648.041L509.839,647.495ZM532.363,594.77C524.1,603.332 520.73,624.797 528.065,634.168C529.604,636.602 530.57,637.32 532.656,639.253L534.793,640.436L535.22,640.212C537.28,640.908 538.107,640.533 540.342,640.119C542.811,641.148 545.36,637.999 546.977,636.394C560.212,620.74 549.894,581.07 532.754,594.453L532.363,594.77ZM514.897,598.841C516.429,596.056 518.365,593.295 520.021,590.494C525.135,586.14 523.599,584.536 532.138,580.905L537.29,579.593C556.57,579.04 559.254,604.914 558.865,619.011C558.605,628.469 556.573,642.148 549.793,649.394C541.498,657.665 531.971,658.002 524.2,649.243C522.298,647.1 518.275,640.599 516.991,639.592L516.38,639.846C515.33,646.668 525.857,664.492 531.435,669.434C534.687,671.984 537.102,672.968 541.022,674.349C545.355,674.356 546.273,674.249 550.344,673.182C553.529,672.463 555.711,669.987 558.152,667.766C563.279,664.308 566.196,659.25 568.265,653.559C577.035,628.847 578.47,601.295 567.446,577.068C557.752,555.766 539.631,545.961 524.364,568.945C520.053,575.435 518.33,581.002 516.026,588.401C515.439,591.283 514.792,594.153 514.085,597.008L514.897,598.841ZM629.3,689.2L629.081,690.381L624.653,695.408C622.723,699.135 622.95,701.517 621.21,705.104C618.185,711.341 613.161,717.106 609.7,722.991C609.425,723.457 609.5,727.023 609.515,727.772C605.376,729.537 598.99,733.711 595.603,734.171L591.394,735.724C584.733,737.343 579.471,738.708 572.657,739.289C574.329,738.069 576.134,737.016 577.901,735.933L579.944,733.604L581.5,732.421L584.58,729.819C584.825,727.993 584.891,728.912 584.046,727.011C584.643,726.362 585.19,724.811 585.142,724.882C587.699,721.069 590.45,725.123 594.386,719.617C595.642,718.224 596.151,717.482 597.214,715.92C599.522,713.11 600.792,711.113 602.754,708.029C604.509,704.025 603.391,700.51 602.946,695.901C605.712,691.531 607.336,690.945 610.36,687.444C613.57,682.784 615.008,676.731 616.653,671.358C617.11,669.863 617.249,669.105 617.826,667.686C617.213,666.284 616.52,665.232 615.727,663.937C614.722,662.603 614.613,662.361 613.891,660.931C613.518,653.459 630.934,651.008 621.578,629.558C625.936,629.595 639.332,629.92 642.906,631.254C646.039,635.531 653.508,640.686 658.224,642.721C664.296,645.409 671.179,645.612 677.399,643.286C680.137,642.047 680.746,641.674 683.156,639.873C690.489,634.932 694.469,627.036 698.577,619.513C702.403,619.012 733.986,617.724 736.1,618.5C738.03,620.136 737.159,620.034 738.236,621.812C741.134,626.596 740.384,629.558 734.587,632.41C734.193,636.573 733.476,644.274 736.412,647.913C737.382,649.116 739.677,649.842 741.159,650.394C743.125,653.041 741.593,655.122 740.695,658.003C739.178,662.87 740.274,666.976 742.934,671.205C744.545,674.672 752.049,678.701 752.091,679.727C752.278,684.232 750.676,685.13 752.248,690.004L754.277,692.995L757.857,697.774C759.146,699.062 763.466,702.49 763.882,703.298C762.49,703.699 742.978,700.626 741.49,699.654L741.186,699.512L737.805,699.398C737.746,698.597 736.95,696.733 736.628,695.872L734.62,691.045C734.481,689.227 734.387,688.919 734.872,687.099C730.621,681.882 728.339,681.578 726.084,673.929L725.144,670.359C724.577,667.142 723.703,664.043 722.872,660.886L721.608,657.504C719.48,651.995 719.337,648.333 718.82,642.381L718.443,640.021C718.485,637.836 718.843,638.112 717.793,636.794C714.587,635.962 711.621,636.99 707.899,637.018C691.871,664.528 664.7,667.586 638.693,651.906C637.272,656.916 636.686,658.109 633.735,662.714C635.22,665.673 635.325,670.886 634.093,673.909C633.29,677.251 630.972,686.465 629.3,689.2ZM872.365,420.344C879.019,420.946 887.108,421.337 893.528,422.181C893.129,426.521 892.999,429.817 892.946,434.186C868.596,433.278 844.315,431.387 819.941,431.083C807.196,430.308 798.567,428.591 788.095,437.919C777.343,447.496 775.394,459.199 769.541,471.004C761.094,488.04 750.328,514.614 736.472,526.897C737.587,523.741 738.833,520.508 739.561,517.25C740.791,513.756 743.784,504.284 744.418,500.918C745.172,498.618 745.998,496.406 746.834,494.137L749.644,484.312C750.402,483.016 753.405,473.837 754.088,471.942C760.132,455.239 765.074,435.979 778.72,423.69C794.452,409.522 816.461,416.171 835.426,417.275C843.615,417.752 852.118,418.497 860.382,419.156C862.587,419.492 870.502,420.521 872.365,420.344ZM701.95,385.658C700.608,385.753 699.262,385.798 697.917,385.791C695.385,385.778 693.361,386.029 691.598,384.25L692.003,382.79C695.051,380.121 695.419,377.77 700.158,377.201C710.371,375.973 721.583,376.612 731.829,376.977C739.637,378.991 741.762,380.152 744.607,387.742C747.668,403.998 730.906,443.711 718.474,454.242L717.753,454.188C718.998,450.284 720.062,446.522 721.235,442.608C722.238,438.564 723.935,434.27 725.025,429.88C728.058,419.315 738.419,397.168 729.059,387.818C720.282,385.61 710.725,386.985 705.038,385.574L704.471,385.58C703.26,386.064 703.261,385.935 701.95,385.658ZM186.931,411.056C189.768,404.162 191.699,400.184 195.671,393.896C200.423,389.099 202.771,387.531 208.536,383.846C211.039,383.173 215.956,381.543 218.354,381.365C247.371,379.216 276.53,377.706 305.588,376.019C317.939,375.302 331.283,375.974 343.488,374.672C346.627,374.721 348.563,374.709 351.718,374.44L352.395,374.492C357.14,374.757 361.087,374.861 365.838,374.817C379.126,374.351 394.993,374.638 406.746,380.872C410.747,383.842 411.86,384.941 415.353,388.433L415.696,389.084C416.849,391.244 418.702,393.308 419.761,395.597C426.72,410.643 423.702,418.273 420.63,432.912L420.352,433.653C419.948,434.762 419.993,434.996 419.728,436.06C417.917,443.334 414.815,447.678 410.658,453.504C406.448,459.108 399.926,470.689 396.139,474.819C395.566,481.339 391.833,522.302 389.536,524.311C383.085,524.406 377.49,524.036 371.199,524.003L328.716,523.968L235.848,523.394C230.926,523.326 221.379,524.705 217.359,522.798C216.82,521.651 216.862,521.562 216.662,520.29L216.428,516.485C214.761,503.666 213.5,486.568 209.743,474.673C208.228,469.874 202.73,465.603 199.81,461.611C189.317,447.263 186.429,435.247 185.838,418.349C186.017,415.873 186.499,413.501 186.931,411.056ZM239.149,437.937C242.154,431.3 243.119,419.261 240.922,412.235C237.406,400.987 227.307,390.404 214.585,394.084C209.791,395.609 208.316,397.082 204.552,400.297L201.131,403.507C199.394,405.996 198.635,407.128 197.646,410.01C194.091,420.828 194.249,428.302 199.048,438.625C207.696,457.224 228.309,458.475 238.185,440.418L239.149,437.937ZM382.94,450.379L383.438,450.426L384.27,450.497C388.889,450.914 390.359,450.95 394.768,449.401C401.018,447.698 406.871,440.626 409.011,434.66C414.794,418.505 414.21,397.971 396.664,389.387C382.788,382.598 371.235,391.502 364.888,404.154C357.873,418.135 361.346,434.148 372.031,445.276C374.382,447.724 379.386,450.333 382.94,450.379ZM284.484,482.433C285.888,478.068 284.846,417.866 285.145,408.493C285.174,407.167 284.797,404.888 284.612,403.481C283.911,401.872 283.29,399.973 281.512,399.455C272.049,396.695 270.04,402.255 269.808,410.142C269.377,424.772 270.082,438.752 269.593,453.326C269.501,456.584 269.204,461.595 269.565,464.696L269.336,485.668C268.853,490.129 269.269,501.924 269.821,506.248C272.4,510.283 273.155,510.507 277.397,512.406C281.046,510.958 282.072,510.299 284.734,507.431C285.027,501.966 285.328,487.561 284.484,482.433ZM353.599,508.422L353.701,508.183C355.29,504.544 354.629,492.53 354.607,488.165C354.64,475.524 354.608,462.884 354.51,450.244C354.426,435.557 354.839,420.708 354.673,406.037C354.364,403.691 354.362,398.602 352.416,396.935C345.828,391.289 339.662,398.52 339.561,405.2C339.776,418.638 338.964,432.603 339.638,445.821C338.482,464.808 339.756,485.943 339.798,505.073C339.809,509.977 347.746,514.586 351.661,510.947C352.413,509.715 352.623,509.506 353.599,508.422ZM261.757,437.09C261.673,434.844 261.696,432.64 261.703,430.394C261.789,424.284 263.278,403.051 259.154,400.506C243.398,390.787 247.816,425.134 247.85,428.214L247.923,463.896C247.84,477.59 247.134,491.328 247.333,505.005C247.356,506.601 249.044,510.256 250.437,510.828C263.237,516.083 260.789,497.942 260.992,493.382C261.755,476.265 261.427,461.252 261.883,444.319C261.951,442.087 261.94,439.307 261.757,437.09ZM300.229,512.258C302.89,511.411 303.848,510.477 306.003,508.791C309.468,505.153 307.238,416.465 308.135,406.678C308.759,399.876 301.801,392.636 296.408,397.969C291.77,402.554 293.055,422.875 293.202,429.358C293.166,437.507 292.94,446.597 293.274,454.667C292.486,471.389 292.573,490.05 293.121,506.801C293.197,509.134 297.97,511.96 300.229,512.258ZM326.613,395.854C321.008,395.744 320.528,396.308 316.857,400.542C315.837,408.082 316.124,417.102 316.187,424.759C316.408,451.862 315.62,479.413 316.673,506.491C320.202,511.381 319.829,509.87 324.416,512.043C334.577,509.24 331.246,494.903 331.253,486.08L331.174,440.248C331.128,429.209 332.8,410.083 330.702,399.578C329.331,397.898 328.716,396.831 326.847,395.859L326.613,395.854ZM313.251,686.071L313.036,686.592C311.335,690.595 307.925,694.05 308.664,697.478C309.774,698.253 310.31,698.166 311.674,698.325C310.546,698.404 310.835,698.433 310.009,698.72C301.611,701.645 292.46,701.564 283.233,703.82C286.005,701.591 291.18,700.157 292.133,696.147C292.81,691.87 291.915,689.52 294.314,685.881C299.108,685.108 304.929,672.582 305.172,667.994C305.236,666.776 303.019,660.126 303.315,659.495C306.261,653.204 310.323,654.705 310.773,646.68C311.878,643.793 312.216,639.772 312.627,636.609C312.829,634.478 312.837,632.924 313.642,630.922C315.524,629.753 347.844,630.018 352.394,630.668C357.64,640.278 365.073,648.908 375.881,652.118C379.251,653.103 382.705,653.775 386.198,654.127C391.699,654.661 399.509,653.455 403.296,656.773C406.026,661.992 404.492,673.948 411.74,675.342C413.237,675.63 416.59,676.236 417.339,676.986C414.854,688.113 412.612,686.171 418.538,698.971L419.4,700.272C426.614,707.829 425.832,708.713 435.464,712.966L434.204,719.08C437.133,724.537 438.858,725.914 442.934,730.298C445.35,732.897 452.884,737.463 453.229,738.819C449.354,739.283 442.006,737.157 438.196,735.917C422.455,730.793 412.312,720.429 404.99,705.8C401.082,697.992 402.838,695.726 395.598,691.08C393.461,684.377 390.785,677.548 388.818,671.082C378.93,670.977 376.538,670.499 367.193,667.07L365.84,666.233C362.54,664.622 359.229,662.118 356.423,659.771C354.194,658.422 350.156,654.066 348.366,652.153L347.044,650.856L343.152,645.672L326.182,645.436C325.651,649.784 325.383,652.204 323.709,656.371C322.316,658.841 321.276,660.386 319.676,662.666C321.506,671.939 316.54,676.14 314.379,683.699L313.251,686.071ZM871.627,487.041C871.029,486.556 866.498,480.301 865.208,478.818C857.817,470.317 847.031,469.777 836.554,469.174C826.897,469.209 816.477,468.935 809.239,476.414C799.255,486.731 793.491,505.535 789.115,519.148C787.674,522.48 786.918,524.239 785.946,527.716C780.819,543.077 774.799,561.563 762.492,572.687C766.908,564.469 769.118,555.619 771.141,546.563L777.43,525.418C778.671,522.673 779.941,516.986 781.109,513.783C785.988,500.411 790.598,481.47 799.831,470.797C801.332,469.475 802.802,467.862 804.195,466.407C808.471,462.504 812.602,460.26 818.293,459.232C833.236,456.534 859.84,459.045 870.601,470.461C882.038,482.594 887.338,510.78 888.199,527.026C884.501,518.901 882.294,510.657 878.683,502.726C876.386,497.473 874.033,492.245 871.627,487.041ZM838.567,666.327C827.134,673.378 815.159,655.455 812.267,646.083C811.802,644.59 811.365,642.744 810.954,641.205C809.625,633.452 808.663,622.425 808.044,614.524C808.201,613.954 808.183,614.18 808.156,613.548C807.822,605.93 807.941,601.059 809.301,593.641C810.627,582.45 814.802,571.787 821.428,562.671C826.667,557.165 826.982,558.58 832.712,555.773C836.569,555.983 837.741,556.002 840.888,558.17C845.678,561.56 847.381,563.476 851.047,568.103L850.975,568.47L851.099,569.111C852.848,571.623 854.152,574.945 855.213,577.821C864.512,603.021 862.792,632.096 850.302,655.761C849.013,658.416 848.089,659.544 846.053,661.68C844.518,662.811 842.915,663.959 841.416,665.13L838.567,666.327ZM820.097,620.366C820.647,623.421 821.074,625.903 822.911,628.556L825.674,631.009C838.761,635.059 837.712,612.442 836.59,604.857C836.29,603.081 835.974,601.309 835.642,599.539C831.498,595.003 829.744,593.93 824.236,597.185C819.628,606.469 819.161,610.115 820.097,620.366ZM843.815,651.231C851.091,644.28 851.42,624.601 852.718,616.098L852.876,615.111L852.675,614.177C854.514,601.742 850.361,573.667 837.21,566.528C830.413,563.796 824.842,568.119 821.735,573.744C819.743,577.351 814.352,587.223 815.958,590.843C817.775,590.542 820.44,587.369 822.027,585.799C823.527,585.035 825.436,584.432 827.056,583.863L829.437,584.02C850.38,596.237 843.735,653.289 821.49,639.177C819.315,637.743 818.688,636.965 817.064,634.915L816.181,634.744C815.405,637.213 816.888,640.209 818.081,642.648C818.974,645.212 820.764,647.9 822.318,650.162C823.586,652.513 824.297,653.199 826.427,654.867C829.189,657.587 831.635,657.989 835.452,657.96C838.23,656.844 838.601,656.522 840.907,654.582C841.877,653.36 842.762,652.385 843.815,651.231ZM495.782,437.008C494.979,438.16 494.396,439.002 493.472,440.084C491.056,440.716 480.625,440.562 477.379,440.577C462.424,440.65 447.655,440.239 432.68,440.52C437.982,436.005 441.422,428.213 447.951,422.595C458.366,421.914 471.62,422.802 482.533,422.652L483.038,422.523C489.48,423.732 497.145,422.237 504.447,423.521C503.082,425.07 499.818,430.485 498.954,432.454C497.78,434.348 497.2,435.321 495.782,437.008ZM381.202,366.37L372.369,366.277C369.766,366.251 352.56,366.371 351.455,365.243C355.631,364.077 378.972,363.983 384.333,364.02L384.918,363.903C390.775,363.882 396.632,363.934 402.487,364.058C404.999,363.999 407.546,363.871 410.043,364.071C411.86,364.244 413.952,364.506 415.75,364.532C418.073,364.885 421.09,365.441 423.371,365.607L423.713,366.101L424.502,366.622C429.958,370.182 433.719,371.087 437.786,377.41C438.77,378.94 440.613,382.302 441.46,383.519C443.066,383.622 445.105,383.69 446.663,383.869C445,383.873 443.339,383.664 441.934,384.325C441.747,387.136 442.929,389.267 443.453,391.851C444.908,399.019 444.766,408.991 444.651,416.332C442.856,415.422 439.43,414.244 438.556,412.986C436.732,403.625 436.649,397.31 432.487,388.293C428.508,380.233 424.745,375.747 416.581,371.761L413.496,370.524L408.982,368.333C396.904,365.116 393.531,366.057 381.202,366.37Z" style="fill:rgb(255,202,20);"  data-color="color-2"/>
        <path d="M770.835,373.771C765.394,364.967 760.521,361.352 751.476,356.533C755.983,368.343 756.061,369.812 758.128,382.556C751.248,367.472 742.359,353.284 728.4,343.714C724.084,340.755 721.107,340.165 718.128,338.311L718.535,337.729L720.485,337.556C748.888,335.315 763.05,346.769 772.378,372.911C772.997,374.5 773.553,375.434 773.327,377.113L772.618,376.955C771.941,375.855 771.349,374.967 770.835,373.771ZM595.227,657.051C591.873,668.672 588.728,680.8 581.745,690.851C572.727,703.831 561.481,711.941 545.155,708.339C539.998,706.781 535.597,703.993 531.473,700.605C541.963,701.422 547.53,704.263 558.729,700.336C577.303,693.823 586.446,671.24 594.194,655.018C594.655,653.552 594.631,652.583 595.62,651.925C595.985,654.179 595.716,654.748 595.227,657.051ZM867.1,652.955C866.49,671.343 845.165,702.972 827.713,681.92L827.37,681.497L827.627,681.021L829.869,681.464C833.535,682.506 834.839,682.535 838.632,682.706C857.765,679.157 859.004,668.459 865.65,652.456C866.093,650.94 865.998,650.161 866.998,649.417C867.343,651.162 867.266,651.247 867.1,652.955ZM145.167,615.608C148.06,614.617 150.555,612.986 153.293,611.557C158.714,608.729 163.304,607.363 169.357,606.538C169.63,610.383 169.832,614.869 170.238,618.65C155.612,622.69 143.942,627.967 145.173,645.568C140.827,642.572 135.875,640.041 131.092,637.808C130.111,632.875 130.414,629.004 130.873,624.016C137.711,624.246 141.414,624.583 148.038,626.173C147.248,623.581 145.455,618.445 144.911,616.07C144.276,614.753 144.23,614.483 143.859,613.051C141.091,608.576 136.354,607.778 131.398,606.174C131.563,600.912 132.254,594.15 132.638,588.774C137.645,588.888 142.852,589.683 147.622,589.593C155.272,589.45 162.119,588.76 169.841,589.095C158.548,592.36 151.629,594.468 144.587,604.856C144.844,608.436 145.037,612.021 145.167,615.608ZM477.404,656.822C479.861,656.486 482.72,656.019 485.157,655.817L486.631,661.422C487.162,663.64 487.625,663.895 487.019,665.686C483.528,668.501 477.729,666.514 473.626,668.331C468.315,668.613 460.644,669.726 455.269,670.426C461.109,665.737 467.594,661.908 474.973,660.349C473.632,659.423 470.02,658.621 468.277,658.146C471.328,657.765 474.371,657.323 477.404,656.822ZM173.799,508.202C174.973,508.013 179.066,507.918 180.465,507.85C175.425,511.318 171.786,515.617 167.634,520.069L159.125,519.986L150.654,520.04C158.241,512.54 162.986,509.278 173.799,508.202ZM162.584,644.755C161.069,644.42 161.086,644.501 159.822,643.648C160.782,642.654 163.359,642.288 164.959,641.868C167.195,641.035 169.399,639.96 171.716,640.039C175.054,641.641 174.589,644.854 174.879,648.258C170.207,647.172 167.127,646.293 162.584,644.755ZM494.818,693.156C496.51,692.826 496.758,692.937 497.61,694.228C496.513,696.981 487.167,701.18 484.342,702.611C482.38,700.11 481.683,699.049 480.422,696.104C484.505,695.023 490.546,694.01 494.818,693.156ZM802.983,668.107C804.226,668.075 803.641,667.94 804.697,668.756C804.934,671.844 799.813,676.441 796.96,677.219C795.903,675.721 794.694,673.226 793.809,671.538C796.694,670.038 799.879,669.132 802.983,668.107ZM472.931,498.383L476.204,502.559L477.509,501.547C484.667,495.924 491.466,494.388 500.383,493.249C494.581,497.427 493.126,498.984 488.463,504.527C499.497,508.747 508.329,519.43 504.371,531.587C494.203,520.64 486.118,519.501 471.804,521.601C465.139,526.869 464.459,530.092 461.536,537.804C479.089,537.325 480.117,536.745 494.281,547.404C492.291,551.672 491.071,554.841 489.477,559.286C484.821,557.262 480.492,556.177 475.385,555.914C467.502,555.483 459.771,558.199 453.89,563.464C452.331,567.425 450.679,574.83 449.782,579.041C456.882,577.823 463.866,575.272 471.191,575.285C474.322,575.291 477.483,575.159 480.569,575.925C483.529,576.659 484.374,577.891 484.072,580.938C483.68,584.881 483.26,588.823 482.829,592.752C470.152,593.214 460.446,593.795 450.324,602.654C448.971,607.679 448.265,615.976 447.751,621.374C459.007,617.733 468.9,615.58 480.428,612.999C480.503,618.931 480.738,624.86 481.132,630.78C471.63,633.337 456.189,636.862 448.362,641.787C446.615,648.34 445.874,654.374 445.119,661.055C434.791,650.184 429.75,647.406 416.217,642.148C415.225,637.139 414.548,631.134 413.843,626.013C425.606,628.857 431.023,633.834 440.546,641.142C434.786,618.29 437.466,613.19 414.401,603.44C415.022,597.198 415.926,590.988 417.11,584.828C426.31,586.039 427.626,587.092 435.52,592.206C436.162,586.127 436.745,581.405 436.467,575.275C431.62,568.76 427.701,566.544 420.43,563.531C427.454,544.406 422.641,539.783 443.885,552.214C445.644,546.602 446.449,543.989 449.312,538.856C445.449,533.056 442.515,530.352 436.628,526.772C442.793,517.483 447.972,509.037 458.852,519.974C460.632,516.335 461.574,512.788 463.609,508.839C462.629,506.589 461.316,504.512 460.067,502.393C464.727,499.057 466.926,497.867 472.333,496.018C474.033,495.58 474.427,495.119 475.611,495.71C474.721,497.166 474.271,497.379 472.931,498.383ZM184.427,539.414L205.184,539.477L218.228,539.488C221.986,539.51 227.149,539.4 230.773,539.788L232.865,539.681L295.901,540.14C320.403,540.434 344.111,541.086 368.682,541.001L375.251,541.296C383.012,541.553 391.545,542.01 399.251,542.019L397.614,550.012C381.144,550.369 364.806,550.013 348.358,550.16C340.736,549.984 332.846,550.146 325.201,550.21C268.16,548.853 210.891,550.261 153.826,548.537C150.836,548.446 147.169,548.483 144.213,548.741C142.051,557.093 141.972,567.853 141.843,576.576C139.544,576.555 134.367,576.668 132.488,575.945L131.982,575.082C132.563,570.717 133.478,561.194 133.406,557.022C134.35,550.987 135.385,544.896 137.133,539.04L139.136,538.466C151.244,539.398 163.702,538.393 175.407,539.312C178.414,539.27 181.422,539.304 184.427,539.414ZM875.649,579.495C874.045,573.335 872.22,567.235 870.177,561.207C864.5,544.862 850.228,518.237 828.103,526.639C816.489,531.049 810.257,544.386 805.605,555.223C800.302,550.28 799.098,549.664 792.413,546.607C794.205,542.836 794.935,541.107 796.245,537.12C798.294,533.318 800.115,533.974 803.601,535.529L808.309,540.058C811.375,530.915 817.868,522.492 805.187,518.528C809.165,511.101 809.577,509.517 818.179,509.366C820.153,512.47 822.653,517.404 827.113,515.933C828.384,514.666 827.923,515.403 828.422,513.57C828.047,512.443 827.678,510.101 827.44,508.831L826.203,503.915C829.862,503.968 834.076,503.88 837.612,504.584C838.323,508.158 838.831,510.606 839.91,514.074C842.496,515.566 844.433,516.537 846.666,518.551L847.858,509.817C851.862,512.575 853.888,513.526 856.399,517.689L856.663,525.523C858.862,528.746 860.295,530.508 862.869,533.466L865.171,527.323C867.533,530.447 868.938,533.091 870.105,536.847C871.103,540.057 869.628,543.671 870.273,546.678C872.012,554.771 876.35,565.08 876.513,573.35C877.267,576.623 877.111,581.173 877.087,584.619C876.147,582.388 875.763,581.842 875.649,579.495ZM383.08,400.036C404.869,399.154 409.85,429.587 388.949,439.317C371.67,442.727 360.496,410.366 383.08,400.036ZM217.174,405.579C236.207,404.668 238.109,438.522 219.81,442.791C199.531,441.793 197.068,409.32 217.174,405.579ZM698.276,661.958C699.613,663.053 700.637,662.991 702.166,663.736L701.551,663.95C699.988,664.449 699.492,664.938 698.254,664.522L698.276,661.958ZM722.768,685.437C723.393,687.227 722.797,688.302 722.354,690.397C720.634,687.411 720.701,687.878 722.768,685.437ZM692.286,677.654L692.608,677.581L693.053,677.942L692.785,680.642C691.61,679.659 692.07,678.988 692.286,677.654ZM532.269,335.44C528.988,335.023 509.078,336.262 505.006,336.463C510.666,317.487 515.019,297.93 520.068,278.772C521.164,274.612 522.109,270.37 522.996,266.159C536.4,265.017 549.991,263.982 563.365,262.69L564.266,262.502C569.885,262.438 577.504,261.497 583.303,260.942L619.267,257.535C626.299,256.893 634.381,255.95 641.372,255.855C640.976,257.688 638.562,267.869 638.55,268.756C637.801,271.567 637.225,273.841 636.669,276.71L628.324,311.032C627.422,314.869 624.439,330.066 622.198,332.034C610.06,330.869 590.161,333.201 577.308,333.259L548.921,334.303C545.253,334.444 535.628,334.783 532.269,335.44ZM429.664,274.041C437.439,273.792 446.685,272.732 454.536,272.018L482.252,269.712C488.825,269.113 498.125,267.986 504.539,268.026C500.356,288.481 492.182,317.394 486.268,337.627C449.085,339.683 411.888,341.478 374.68,343.01C378.703,328.388 383.071,313.864 387.781,299.45C389.08,295.345 392.764,279.53 396.566,277.655C399.726,276.097 408.906,276.072 413.125,275.55C417.023,275.489 425.827,274.675 429.664,274.041ZM367.877,685.535C368.804,686.058 368.978,686.012 370.026,685.963L371.009,685.908L371.813,686.826L370.131,687.687C368.746,687.527 368.516,687.129 367.418,686.232L367.877,685.535ZM351.644,687.674C352.106,687.555 351.78,687.6 352.611,687.875L353.593,690.146C351.823,689.452 351.935,689.331 351.644,687.674ZM330.743,671.633L330.816,671.648C331.858,672.6 331.411,672.04 331.546,674.071L330.235,672.679L330.743,671.633ZM504.447,423.521C524.852,424.185 545.248,425.086 565.632,426.222C579.125,427.021 596.872,425.213 602.438,441.094C614.422,475.28 624.291,510.197 636.824,544.216C640.694,554.721 639.656,556.573 650.174,563C659.509,563.06 668.819,562.259 678.265,562.713C675.334,567.381 673.075,571.336 668.33,574.432C661.872,574.754 642.429,575.236 637.971,571.343C630.464,564.789 626.028,546.917 622.876,537.516C615.964,516.904 609.591,496.128 602.421,475.603C599.902,468.391 597.785,460.325 594.437,453.478C592.934,450.403 590.678,446.23 587.476,444.743C581.181,441.819 505.789,440.289 493.472,440.084C494.396,439.002 494.979,438.16 495.782,437.008C497.2,435.321 497.78,434.348 498.954,432.454C499.818,430.485 503.082,425.07 504.447,423.521ZM423.713,366.101C434.857,365.876 451.236,367.12 462.608,367.81C481.357,368.832 500.092,370.087 518.809,371.576C527.644,372.311 536.509,373.554 545.289,374.242C565.894,375.858 586.713,376.309 607.234,378.848C618.582,380.252 622.767,387.755 626.825,397.144C617.835,392.947 605.603,393.207 595.678,392.631L560.441,390.479C522.55,387.712 484.62,385.508 446.663,383.869C445.105,383.69 443.066,383.622 441.46,383.519C440.613,382.302 438.77,378.94 437.786,377.41C433.719,371.087 429.958,370.182 424.502,366.622L423.713,366.101ZM534.746,488.087C537.85,487.91 541.129,487.771 544.211,487.603C552.588,487.146 553.66,491.096 556.654,497.751C559.835,499.319 561.79,500.192 565.112,501.412C565.042,498.348 564.541,494.501 564.217,491.391C569.626,493.859 572.618,495.074 577.049,498.914C576.907,502.968 577.985,515.869 584.394,514.031C586.011,512.618 586.239,511.637 587.15,509.613C590.902,514.697 593.366,518.527 596.283,524.117C592.679,530.42 593.861,528.525 596.716,534.877C603.508,549.989 604.464,556.24 602.144,572.374C599.752,565.678 597.494,559.441 594.791,552.87C586.948,532.908 571.13,509.112 547.657,507.413C535.217,506.512 527.99,510.171 517.682,516.219C515.475,506.772 513.513,502.644 507.746,495.176C513.277,492.769 518.159,491.401 524.129,490.896C526.689,493.28 529.216,496.355 531.53,499.032C533.626,498.235 535.599,497.334 537.646,496.424L534.746,488.087ZM787.895,566.488L788.266,566.59L788.882,566.77C794.327,568.31 795.771,569.287 800.298,572.702C799.144,577.961 798.701,582.437 797.082,587.748C792.211,585.393 789.573,583.888 784.27,582.648C784.999,577.165 786.212,571.757 787.895,566.488ZM784.017,647.095C784.068,644.842 783.15,639.803 782.773,637.374C786.93,636.838 792.293,635.946 796.285,634.747L797.055,636.856C797.451,639.429 798.379,642.546 797.522,644.705C796.2,645.756 796.008,645.698 794.415,646.152C791.928,646.645 785.922,648.44 784.017,647.095ZM781.154,602.761L795.426,606.257C795.626,608.975 796.753,613.901 794.015,614.882C790.376,615.338 785.07,616.548 782.069,614.852C779.862,612.001 780.883,606.586 781.154,602.761Z" style="fill:white;"  data-color="color-3"/>
        <path d="M128.016,670.432C126.046,665.596 130.748,660.922 129.656,657.903C126.423,653.704 122.885,656.975 120.428,651.079L119.779,648.102C118.497,637.936 115.385,625.183 115.526,614.823C115.628,607.381 117.76,596.085 117.884,588.261C117.909,586.744 113.588,585.186 113.391,584.188C112.425,579.291 115.174,553.482 116.417,550.71C116.352,546.943 119.986,530.043 122.177,527.005C124.551,526.815 126.921,526.584 129.288,526.312C129.782,525.124 130.525,524.103 131.231,523.022C131.956,518.036 140.729,508.376 144.225,504.857C147.224,502.983 150.177,501.036 153.081,499.018C165.892,490.203 182.94,488.055 197.958,487.119C197.157,485.379 180.897,456.496 180.675,456.469C170.104,455.213 156.616,457.692 146.094,455.931L145.42,455.813C145.976,446.633 144.93,443.477 153.1,438.48C157.77,438.215 170.905,438.383 174.322,437.17C171.618,423.705 173.286,405.239 179.248,392.665C184.201,378.712 200.749,371.286 214.232,368.045C217.926,367.157 222.467,367.703 226.374,366.69L230.605,366.549C232.396,367.189 254.09,365.233 258.449,364.983C278.651,363.824 298.734,362.858 319.002,362.985C326.39,363.031 340.437,361.93 347.282,363.213C350.001,351.609 353.738,340.288 357.737,329.068C358.669,326.453 359.447,324.861 360.134,322.041L360.681,320.137C362.988,312.906 367.01,298.988 369.595,292.46C370.25,289.729 371.811,285.715 371.878,283.062C373.877,279.064 374.208,276.06 375.887,271.932C379.8,265.705 376.927,267.276 384.177,260.916L387.024,259.14L390.023,257.331C392.756,256.103 395.632,255.222 398.584,254.707C406.152,253.362 421.759,252.307 429.926,251.636C440.177,250.793 458.113,248.483 468.085,248.569L486.943,246.983C490.369,247.259 496.538,246.143 500.241,245.782L529.828,242.896C556.142,240.089 583.034,238.567 609.389,235.504C614.177,234.947 619.118,234.554 623.932,234.29L624.75,233.867C626.936,233.963 633.381,233.182 636.024,232.855C642.606,232.04 646.107,231.939 652.657,232.163C661.166,234.622 659.107,234.141 664.803,239.32C665.563,242.097 665.878,243.44 665.771,246.341C665.709,247.675 665.731,248.574 665.364,249.877C664.833,252.095 662.222,263.882 661.728,265.082C660.741,270.73 658.866,276.751 657.575,282.494C654.885,294.468 652.293,308.666 648.78,320.356C647.995,324.361 647.265,327.971 646.256,331.921C645.163,338.835 638.476,357.496 643.205,361.717C657.727,374.681 648.966,386.744 648.353,402.83C648.015,411.674 648.048,423.731 648.434,433.175C648.427,435.035 648.362,437.161 648.465,438.993C648.195,442.191 648.334,444.216 648.498,447.416C646.639,481.911 661.312,491.963 692.998,488.967C701.257,488.186 710.876,490.247 719.266,488.364C725.234,487.025 727.298,482.125 729.899,477.829C717.489,475.225 700.226,477.183 687.284,476.528C676.833,476 673.519,477.749 663.95,472.063C662.193,468.686 659.94,463.318 659.827,459.491C659.274,440.736 659.555,420.811 660.563,402.122C661.37,387.17 666.523,375.746 657.283,361.989C658.781,354.887 660.101,347.766 661.629,340.646C661.974,339.077 662.939,336.571 663.497,334.978C665.219,330.977 670.798,328.041 674.748,326.455C678.632,324.929 682.689,323.883 686.827,323.339C688.938,323.072 692.213,322.927 694.33,323.02C710.801,323.742 733.29,320.195 748.435,326.84C754.12,329.356 759.47,332.57 764.361,336.408L770.074,341.644C772.241,343.457 773.313,345.116 774.965,347.364L776.535,349.217C777.733,351.146 780.259,354.999 781.105,356.879C788.578,369.689 791.537,380.969 795.635,394.882C805.137,396.585 813.164,397.214 822.662,398.32L860.504,402.725C867.73,403.523 874.847,404.023 882.013,405.233C908.14,408.278 908.285,404.592 907.463,430.947C907.107,442.379 906.935,458.153 907.556,469.495L907.432,475.307C907.825,489.334 907.377,503.338 907.126,517.733C906.981,526.051 909.076,544.183 904.763,551.467C902.117,555.934 890.057,555.911 884.808,555.992C886.692,564.618 889.674,584.561 890.349,593.545L890.23,597.369C889.676,604.397 887.837,603.952 886.541,609.02C885.939,611.206 886.022,613.286 885.459,615.139C889.99,620.841 889.828,624.24 889.524,631.734C889.298,637.297 884.385,639.324 882.583,642.734L880.941,645.68L882.449,646.875C883.559,649.778 884.841,652.709 885.321,655.764C884.829,657.459 883.965,660.099 883.608,661.741C881.681,668.251 881.32,669.584 875.874,673.982C876.173,677.094 876.675,679.953 875.87,682.947L875.629,683.861C874.087,689.588 869.853,698.248 863.997,700.222C862.871,702.048 863.197,704.394 863.196,706.658C860.986,708.228 856.733,710.646 856.204,713.065C857.583,714.048 858.3,714.002 860.264,714.04C861.257,714.161 865.671,714.623 866.323,714.882L869.606,715.346C875.707,716.521 882.021,716.919 888.204,717.739C889.065,717.896 889.992,718.108 890.854,718.155C894.48,718.172 895.292,718.383 898.766,719.203C896.973,720.398 898.007,719.499 896.642,719.808C890.387,721.228 879.526,730.972 873.715,733.03C866.449,735.603 856.418,736.349 848.628,738.078C847.381,738.397 845.983,738.69 844.805,739.157C841.036,739.948 836.607,740.505 832.632,741.31L806.767,746.63L762.643,755.499C757.95,756.48 749.68,757.91 745.429,759.119C744.356,759.4 743.157,759.78 742.076,759.889C727.813,762.796 713.609,765.989 699.474,769.469C696.923,770.095 679.681,774.55 678.112,774.667C675.302,775.383 671.693,775.98 669.203,776.675C663.069,778.675 655.553,780.027 649.182,781.475C628.4,786.199 607.815,791.616 587.125,796.732C584.087,797.522 581.424,798.178 578.346,798.802C569.751,801.268 560.815,803.388 552.136,805.62C549.211,806.372 542.472,808.286 539.961,808.54C537.527,809.328 532.507,810.766 530.059,811.169C528.056,811.95 514.774,815.551 513.027,815.227C505.029,813.741 494.411,810.396 486.499,808.278C473.887,804.902 460.208,802.396 447.856,798.742L446.431,798.62C443.337,797.185 417.677,791.063 413.965,790.797C411.95,790.021 409.916,789.294 407.865,788.617C405.937,788.848 385.323,782.788 381.29,781.83C333.882,770.56 286.528,759.236 238.793,749.4C214.759,744.447 189.181,737.775 164.85,734.956C157.654,733.3 156.199,733.342 149.765,729.503C144.997,727.523 137.754,722.262 134.279,718.481C137.441,717.877 161.187,715.074 161.407,714.842L159.905,713.656C154.919,709.783 142.453,698.828 140.51,692.328C139.92,690.353 142.265,689.497 141.051,684.905L137.576,684.88C135.324,684.505 135.19,683.925 133.667,682.067C130.234,677.329 129.739,675.94 128.016,670.432ZM787.895,566.488C786.212,571.757 784.999,577.165 784.27,582.648C789.573,583.888 792.211,585.393 797.082,587.748C798.701,582.437 799.144,577.961 800.298,572.702C795.771,569.287 794.327,568.31 788.882,566.77L788.266,566.59L787.895,566.488ZM615.678,448.919C615.906,448.988 615.816,448.957 615.678,448.919ZM796.285,634.747C792.293,635.946 786.93,636.838 782.773,637.374C783.15,639.803 784.068,644.842 784.017,647.095C785.922,648.44 791.928,646.645 794.415,646.152C796.008,645.698 796.2,645.756 797.522,644.705C798.379,642.546 797.451,639.429 797.055,636.856L796.285,634.747ZM739.561,517.25C738.833,520.508 737.587,523.741 736.472,526.897C750.328,514.614 761.094,488.04 769.541,471.004C775.394,459.199 777.343,447.496 788.095,437.919C798.567,428.591 807.196,430.308 819.941,431.083C844.315,431.387 868.596,433.278 892.946,434.186C892.999,429.817 893.129,426.521 893.528,422.181C887.108,421.337 879.019,420.946 872.365,420.344C870.502,420.521 862.587,419.492 860.382,419.156C852.118,418.497 843.615,417.752 835.426,417.275C816.461,416.171 794.452,409.522 778.72,423.69C765.074,435.979 760.132,455.239 754.088,471.942C753.405,473.837 750.402,483.016 749.644,484.312L746.834,494.137C745.998,496.406 745.172,498.618 744.418,500.918C743.784,504.284 740.791,513.756 739.561,517.25ZM472.931,498.383C474.271,497.379 474.721,497.166 475.611,495.71C474.427,495.119 474.033,495.58 472.333,496.018C466.926,497.867 464.727,499.057 460.067,502.393C461.316,504.512 462.629,506.589 463.609,508.839C461.574,512.788 460.632,516.335 458.852,519.974C447.972,509.037 442.793,517.483 436.628,526.772C442.515,530.352 445.449,533.056 449.312,538.856C446.449,543.989 445.644,546.602 443.885,552.214C422.641,539.783 427.454,544.406 420.43,563.531C427.701,566.544 431.62,568.76 436.467,575.275C436.745,581.405 436.162,586.127 435.52,592.206C427.626,587.092 426.31,586.039 417.11,584.828C415.926,590.988 415.022,597.198 414.401,603.44C437.466,613.19 434.786,618.29 440.546,641.142C431.023,633.834 425.606,628.857 413.843,626.013C414.548,631.134 415.225,637.139 416.217,642.148C429.75,647.406 434.791,650.184 445.119,661.055C445.874,654.374 446.615,648.34 448.362,641.787C456.189,636.862 471.63,633.337 481.132,630.78C480.738,624.86 480.503,618.931 480.428,612.999C468.9,615.58 459.007,617.733 447.751,621.374C448.265,615.976 448.971,607.679 450.324,602.654C460.446,593.795 470.152,593.214 482.829,592.752C483.26,588.823 483.68,584.881 484.072,580.938C484.374,577.891 483.529,576.659 480.569,575.925C477.483,575.159 474.322,575.291 471.191,575.285C463.866,575.272 456.882,577.823 449.782,579.041C450.679,574.83 452.331,567.425 453.89,563.464C459.771,558.199 467.502,555.483 475.385,555.914C480.492,556.177 484.821,557.262 489.477,559.286C491.071,554.841 492.291,551.672 494.281,547.404C480.117,536.745 479.089,537.325 461.536,537.804C464.459,530.092 465.139,526.869 471.804,521.601C486.118,519.501 494.203,520.64 504.371,531.587C508.329,519.43 499.497,508.747 488.463,504.527C493.126,498.984 494.581,497.427 500.383,493.249C491.466,494.388 484.667,495.924 477.509,501.547L476.204,502.559L472.931,498.383ZM486.631,661.422L485.157,655.817C482.72,656.019 479.861,656.486 477.404,656.822C474.371,657.323 471.328,657.765 468.277,658.146C470.02,658.621 473.632,659.423 474.973,660.349C467.594,661.908 461.109,665.737 455.269,670.426C460.644,669.726 468.315,668.613 473.626,668.331C477.729,666.514 483.528,668.501 487.019,665.686C487.625,663.895 487.162,663.64 486.631,661.422ZM494.818,693.156C490.546,694.01 484.505,695.023 480.422,696.104C481.683,699.049 482.38,700.11 484.342,702.611C487.167,701.18 496.513,696.981 497.61,694.228C496.758,692.937 496.51,692.826 494.818,693.156ZM579.944,733.604L577.901,735.933C576.134,737.016 574.329,738.069 572.657,739.289C579.471,738.708 584.733,737.343 591.394,735.724L595.603,734.171C598.99,733.711 605.376,729.537 609.515,727.772C609.5,727.023 609.425,723.457 609.7,722.991C613.161,717.106 618.185,711.341 621.21,705.104C622.95,701.517 622.723,699.135 624.653,695.408L629.081,690.381C641.166,691.432 653.265,692.321 665.375,693.045C669.264,693.303 679.715,693.776 683.255,694.44C699.823,694.763 721.551,696.818 737.805,699.398L741.186,699.512L741.49,699.654C742.978,700.626 762.49,703.699 763.882,703.298C763.466,702.49 759.146,699.062 757.857,697.774L754.277,692.995L752.248,690.004C750.676,685.13 752.278,684.232 752.091,679.727C752.049,678.701 744.545,674.672 742.934,671.205C740.274,666.976 739.178,662.87 740.695,658.003C741.593,655.122 743.125,653.041 741.159,650.394C739.677,649.842 737.382,649.116 736.412,647.913C733.476,644.274 734.193,636.573 734.587,632.41C740.384,629.558 741.134,626.596 738.236,621.812C737.159,620.034 738.03,620.136 736.1,618.5C733.986,617.724 702.403,619.012 698.577,619.513C694.469,627.036 690.489,634.932 683.156,639.873C680.746,641.674 680.137,642.047 677.399,643.286C671.179,645.612 664.296,645.409 658.224,642.721C653.508,640.686 646.039,635.531 642.906,631.254C639.332,629.92 625.936,629.595 621.578,629.558C630.934,651.008 613.518,653.459 613.891,660.931C614.613,662.361 614.722,662.603 615.727,663.937C616.52,665.232 617.213,666.284 617.826,667.686C617.249,669.105 617.11,669.863 616.653,671.358C615.008,676.731 613.57,682.784 610.36,687.444C607.336,690.945 605.712,691.531 602.946,695.901C603.391,700.51 604.509,704.025 602.754,708.029C600.792,711.113 599.522,713.11 597.214,715.92C596.151,717.482 595.642,718.224 594.386,719.617C590.45,725.123 587.699,721.069 585.142,724.882C585.19,724.811 584.643,726.362 584.046,727.011C584.891,728.912 584.825,727.993 584.58,729.819L581.5,732.421L579.944,733.604ZM802.983,668.107C799.879,669.132 796.694,670.038 793.809,671.538C794.694,673.226 795.903,675.721 796.96,677.219C799.813,676.441 804.934,671.844 804.697,668.756C803.641,667.94 804.226,668.075 802.983,668.107ZM482.533,422.652C471.62,422.802 458.366,421.914 447.951,422.595C441.422,428.213 437.982,436.005 432.68,440.52C447.655,440.239 462.424,440.65 477.379,440.577C480.625,440.562 491.056,440.716 493.472,440.084C505.789,440.289 581.181,441.819 587.476,444.743C590.678,446.23 592.934,450.403 594.437,453.478C597.785,460.325 599.902,468.391 602.421,475.603C609.591,496.128 615.964,516.904 622.876,537.516C626.028,546.917 630.464,564.789 637.971,571.343C642.429,575.236 661.872,574.754 668.33,574.432C673.075,571.336 675.334,567.381 678.265,562.713C668.819,562.259 659.509,563.06 650.174,563C639.656,556.573 640.694,554.721 636.824,544.216C624.291,510.197 614.422,475.28 602.438,441.094C596.872,425.213 579.125,427.021 565.632,426.222C545.248,425.086 524.852,424.185 504.447,423.521C497.145,422.237 489.48,423.732 483.038,422.523L482.533,422.652ZM145.167,615.608C145.037,612.021 144.844,608.436 144.587,604.856C151.629,594.468 158.548,592.36 169.841,589.095C162.119,588.76 155.272,589.45 147.622,589.593C142.852,589.683 137.645,588.888 132.638,588.774C132.254,594.15 131.563,600.912 131.398,606.174C136.354,607.778 141.091,608.576 143.859,613.051C144.23,614.483 144.276,614.753 144.911,616.07C145.455,618.445 147.248,623.581 148.038,626.173C141.414,624.583 137.711,624.246 130.873,624.016C130.414,629.004 130.111,632.875 131.092,637.808C135.875,640.041 140.827,642.572 145.173,645.568C143.942,627.967 155.612,622.69 170.238,618.65C169.832,614.869 169.63,610.383 169.357,606.538C163.304,607.363 158.714,608.729 153.293,611.557C150.555,612.986 148.06,614.617 145.167,615.608ZM415.75,364.532C413.952,364.506 411.86,364.244 410.043,364.071C407.546,363.871 404.999,363.999 402.487,364.058C396.632,363.934 390.775,363.882 384.918,363.903L384.333,364.02C378.972,363.983 355.631,364.077 351.455,365.243C352.56,366.371 369.766,366.251 372.369,366.277L381.202,366.37C393.531,366.057 396.904,365.116 408.982,368.333L413.496,370.524L416.581,371.761C424.745,375.747 428.508,380.233 432.487,388.293C436.649,397.31 436.732,403.625 438.556,412.986C439.43,414.244 442.856,415.422 444.651,416.332C444.766,408.991 444.908,399.019 443.453,391.851C442.929,389.267 441.747,387.136 441.934,384.325C443.339,383.664 445,383.873 446.663,383.869C484.62,385.508 522.55,387.712 560.441,390.479L595.678,392.631C605.603,393.207 617.835,392.947 626.825,397.144C622.767,387.755 618.582,380.252 607.234,378.848C586.713,376.309 565.894,375.858 545.289,374.242C536.509,373.554 527.644,372.311 518.809,371.576C500.092,370.087 481.357,368.832 462.608,367.81C451.236,367.12 434.857,365.876 423.713,366.101L423.371,365.607C421.09,365.441 418.073,364.885 415.75,364.532ZM718.535,337.729L718.128,338.311C721.107,340.165 724.084,340.755 728.4,343.714C742.359,353.284 751.248,367.472 758.128,382.556C756.061,369.812 755.983,368.343 751.476,356.533C760.521,361.352 765.394,364.967 770.835,373.771C771.349,374.967 771.941,375.855 772.618,376.955L773.327,377.113C773.553,375.434 772.997,374.5 772.378,372.911C763.05,346.769 748.888,335.315 720.485,337.556L718.535,337.729ZM413.125,275.55C408.906,276.072 399.726,276.097 396.566,277.655C392.764,279.53 389.08,295.345 387.781,299.45C383.071,313.864 378.703,328.388 374.68,343.01C411.888,341.478 449.085,339.683 486.268,337.627C492.182,317.394 500.356,288.481 504.539,268.026C498.125,267.986 488.825,269.113 482.252,269.712L454.536,272.018C446.685,272.732 437.439,273.792 429.664,274.041C425.827,274.675 417.023,275.489 413.125,275.55ZM509.727,582.885C505.965,600.481 505.088,614.375 506.599,632.363C506.948,636.513 508.714,642.024 508.808,645.336L509.839,647.495L510.069,648.041C510.824,650.893 511.452,653.292 512.432,656.081C514.424,661.977 515.764,664.029 519.182,669.3C520,670.748 520.585,671.997 521.739,673.197C534.856,690.161 554.363,689.531 567.946,673.491C571.441,669.364 573.61,665.732 576.371,661.133C578.033,657.446 579.151,652.608 580.651,648.551C586.267,624.278 586.486,600.374 577.31,576.663C572.807,566.328 564.072,550.404 552.328,546.624C528.727,539.029 517.819,561.247 511.241,578.022L509.727,582.885ZM528.065,634.168C520.73,624.797 524.1,603.332 532.363,594.77L532.754,594.453C549.894,581.07 560.212,620.74 546.977,636.394C545.36,637.999 542.811,641.148 540.342,640.119C538.107,640.533 537.28,640.908 535.22,640.212L534.793,640.436L532.656,639.253C530.57,637.32 529.604,636.602 528.065,634.168ZM520.021,590.494C518.365,593.295 516.429,596.056 514.897,598.841L514.085,597.008C514.792,594.153 515.439,591.283 516.026,588.401C518.33,581.002 520.053,575.435 524.364,568.945C539.631,545.961 557.752,555.766 567.446,577.068C578.47,601.295 577.035,628.847 568.265,653.559C566.196,659.25 563.279,664.308 558.152,667.766C555.711,669.987 553.529,672.463 550.344,673.182C546.273,674.249 545.355,674.356 541.022,674.349C537.102,672.968 534.687,671.984 531.435,669.434C525.857,664.492 515.33,646.668 516.38,639.846L516.991,639.592C518.275,640.599 522.298,647.1 524.2,649.243C531.971,658.002 541.498,657.665 549.793,649.394C556.573,642.148 558.605,628.469 558.865,619.011C559.254,604.914 556.57,579.04 537.29,579.593L532.138,580.905C523.599,584.536 525.135,586.14 520.021,590.494ZM875.649,579.495C875.763,581.842 876.147,582.388 877.087,584.619C877.111,581.173 877.267,576.623 876.513,573.35C876.35,565.08 872.012,554.771 870.273,546.678C869.628,543.671 871.103,540.057 870.105,536.847C868.938,533.091 867.533,530.447 865.171,527.323L862.869,533.466C860.295,530.508 858.862,528.746 856.663,525.523L856.399,517.689C853.888,513.526 851.862,512.575 847.858,509.817L846.666,518.551C844.433,516.537 842.496,515.566 839.91,514.074C838.831,510.606 838.323,508.158 837.612,504.584C834.076,503.88 829.862,503.968 826.203,503.915L827.44,508.831C827.678,510.101 828.047,512.443 828.422,513.57C827.923,515.403 828.384,514.666 827.113,515.933C822.653,517.404 820.153,512.47 818.179,509.366C809.577,509.517 809.165,511.101 805.187,518.528C817.868,522.492 811.375,530.915 808.309,540.058L803.601,535.529C800.115,533.974 798.294,533.318 796.245,537.12C794.935,541.107 794.205,542.836 792.413,546.607C799.098,549.664 800.302,550.28 805.605,555.223C810.257,544.386 816.489,531.049 828.103,526.639C850.228,518.237 864.5,544.862 870.177,561.207C872.22,567.235 874.045,573.335 875.649,579.495ZM173.799,508.202C162.986,509.278 158.241,512.54 150.654,520.04L159.125,519.986L167.634,520.069C171.786,515.617 175.425,511.318 180.465,507.85C179.066,507.918 174.973,508.013 173.799,508.202ZM829.869,681.464L827.627,681.021L827.37,681.497L827.713,681.92C845.165,702.972 866.49,671.343 867.1,652.955C867.266,651.247 867.343,651.162 866.998,649.417C865.998,650.161 866.093,650.94 865.65,652.456C859.004,668.459 857.765,679.157 838.632,682.706C834.839,682.535 833.535,682.506 829.869,681.464ZM781.154,602.761C780.883,606.586 779.862,612.001 782.069,614.852C785.07,616.548 790.376,615.338 794.015,614.882C796.753,613.901 795.626,608.975 795.426,606.257L781.154,602.761ZM545.155,708.339C561.481,711.941 572.727,703.831 581.745,690.851C588.728,680.8 591.873,668.672 595.227,657.051C595.716,654.748 595.985,654.179 595.62,651.925C594.631,652.583 594.655,653.552 594.194,655.018C586.446,671.24 577.303,693.823 558.729,700.336C547.53,704.263 541.963,701.422 531.473,700.605C535.597,703.993 539.998,706.781 545.155,708.339ZM137.133,539.04C135.385,544.896 134.35,550.987 133.406,557.022C133.478,561.194 132.563,570.717 131.982,575.082L132.488,575.945C134.367,576.668 139.544,576.555 141.843,576.576C141.972,567.853 142.051,557.093 144.213,548.741C147.169,548.483 150.836,548.446 153.826,548.537C210.891,550.261 268.16,548.853 325.201,550.21C332.846,550.146 340.736,549.984 348.358,550.16C364.806,550.013 381.144,550.369 397.614,550.012L399.251,542.019C391.545,542.01 383.012,541.553 375.251,541.296L368.682,541.001C344.111,541.086 320.403,540.434 295.901,540.14L232.865,539.681L230.773,539.788C227.149,539.4 221.986,539.51 218.228,539.488L205.184,539.477L184.427,539.414C181.422,539.304 178.414,539.27 175.407,539.312C163.702,538.393 151.244,539.398 139.136,538.466L137.133,539.04ZM185.838,418.349C186.429,435.247 189.317,447.263 199.81,461.611C202.73,465.603 208.228,469.874 209.743,474.673C213.5,486.568 214.761,503.666 216.428,516.485L216.662,520.29C216.862,521.562 216.82,521.651 217.359,522.798C221.379,524.705 230.926,523.326 235.848,523.394L328.716,523.968L371.199,524.003C377.49,524.036 383.085,524.406 389.536,524.311C391.833,522.302 395.566,481.339 396.139,474.819C399.926,470.689 406.448,459.108 410.658,453.504C414.815,447.678 417.917,443.334 419.728,436.06C419.993,434.996 419.948,434.762 420.352,433.653L420.63,432.912C423.702,418.273 426.72,410.643 419.761,395.597C418.702,393.308 416.849,391.244 415.696,389.084L415.353,388.433C411.86,384.941 410.747,383.842 406.746,380.872C394.993,374.638 379.126,374.351 365.838,374.817C361.087,374.861 357.14,374.757 352.395,374.492L351.718,374.44C348.563,374.709 346.627,374.721 343.488,374.672C331.283,375.974 317.939,375.302 305.588,376.019C276.53,377.706 247.371,379.216 218.354,381.365C215.956,381.543 211.039,383.173 208.536,383.846C202.771,387.531 200.423,389.099 195.671,393.896C191.699,400.184 189.768,404.162 186.931,411.056C186.499,413.501 186.017,415.873 185.838,418.349ZM284.484,482.433C285.328,487.561 285.027,501.966 284.734,507.431C282.072,510.299 281.046,510.958 277.397,512.406C273.155,510.507 272.4,510.283 269.821,506.248C269.269,501.924 268.853,490.129 269.336,485.668L269.565,464.696C269.204,461.595 269.501,456.584 269.593,453.326C270.082,438.752 269.377,424.772 269.808,410.142C270.04,402.255 272.049,396.695 281.512,399.455C283.29,399.973 283.911,401.872 284.612,403.481C284.797,404.888 285.174,407.167 285.145,408.493C284.846,417.866 285.888,478.068 284.484,482.433ZM300.229,512.258C297.97,511.96 293.197,509.134 293.121,506.801C292.573,490.05 292.486,471.389 293.274,454.667C292.94,446.597 293.166,437.507 293.202,429.358C293.055,422.875 291.77,402.554 296.408,397.969C301.801,392.636 308.759,399.876 308.135,406.678C307.238,416.465 309.468,505.153 306.003,508.791C303.848,510.477 302.89,511.411 300.229,512.258ZM339.561,405.2C339.662,398.52 345.828,391.289 352.416,396.935C354.362,398.602 354.364,403.691 354.673,406.037C354.839,420.708 354.426,435.557 354.51,450.244C354.608,462.884 354.64,475.524 354.607,488.165C354.629,492.53 355.29,504.544 353.701,508.183L353.599,508.422C352.623,509.506 352.413,509.715 351.661,510.947C347.746,514.586 339.809,509.977 339.798,505.073C339.756,485.943 338.482,464.808 339.638,445.821C338.964,432.603 339.776,418.638 339.561,405.2ZM326.613,395.854L326.847,395.859C328.716,396.831 329.331,397.898 330.702,399.578C332.8,410.083 331.128,429.209 331.174,440.248L331.253,486.08C331.246,494.903 334.577,509.24 324.416,512.043C319.829,509.87 320.202,511.381 316.673,506.491C315.62,479.413 316.408,451.862 316.187,424.759C316.124,417.102 315.837,408.082 316.857,400.542C320.528,396.308 321.008,395.744 326.613,395.854ZM382.94,450.379C379.386,450.333 374.382,447.724 372.031,445.276C361.346,434.148 357.873,418.135 364.888,404.154C371.235,391.502 382.788,382.598 396.664,389.387C414.21,397.971 414.794,418.505 409.011,434.66C406.871,440.626 401.018,447.698 394.768,449.401C390.359,450.95 388.889,450.914 384.27,450.497L383.438,450.426L382.94,450.379ZM383.08,400.036C360.496,410.366 371.67,442.727 388.949,439.317C409.85,429.587 404.869,399.154 383.08,400.036ZM214.585,394.084C227.307,390.404 237.406,400.987 240.922,412.235C243.119,419.261 242.154,431.3 239.149,437.937L238.185,440.418C228.309,458.475 207.696,457.224 199.048,438.625C194.249,428.302 194.091,420.828 197.646,410.01C198.635,407.128 199.394,405.996 201.131,403.507L204.552,400.297C208.316,397.082 209.791,395.609 214.585,394.084ZM217.174,405.579C197.068,409.32 199.531,441.793 219.81,442.791C238.109,438.522 236.207,404.668 217.174,405.579ZM261.757,437.09C261.94,439.307 261.951,442.087 261.883,444.319C261.427,461.252 261.755,476.265 260.992,493.382C260.789,497.942 263.237,516.083 250.437,510.828C249.044,510.256 247.356,506.601 247.333,505.005C247.134,491.328 247.84,477.59 247.923,463.896L247.85,428.214C247.816,425.134 243.398,390.787 259.154,400.506C263.278,403.051 261.789,424.284 261.703,430.394C261.696,432.64 261.673,434.844 261.757,437.09ZM799.831,470.797C790.598,481.47 785.988,500.411 781.109,513.783C779.941,516.986 778.671,522.673 777.43,525.418L771.141,546.563C769.118,555.619 766.908,564.469 762.492,572.687C774.799,561.563 780.819,543.077 785.946,527.716C786.918,524.239 787.674,522.48 789.115,519.148C793.491,505.535 799.255,486.731 809.239,476.414C816.477,468.935 826.897,469.209 836.554,469.174C847.031,469.777 857.817,470.317 865.208,478.818C866.498,480.301 871.029,486.556 871.627,487.041C874.033,492.245 876.386,497.473 878.683,502.726C882.294,510.657 884.501,518.901 888.199,527.026C887.338,510.78 882.038,482.594 870.601,470.461C859.84,459.045 833.236,456.534 818.293,459.232C812.602,460.26 808.471,462.504 804.195,466.407C802.802,467.862 801.332,469.475 799.831,470.797ZM846.053,661.68C848.089,659.544 849.013,658.416 850.302,655.761C862.792,632.096 864.512,603.021 855.213,577.821C854.152,574.945 852.848,571.623 851.099,569.111L850.975,568.47L851.047,568.103C847.381,563.476 845.678,561.56 840.888,558.17C837.741,556.002 836.569,555.983 832.712,555.773C826.982,558.58 826.667,557.165 821.428,562.671C814.802,571.787 810.627,582.45 809.301,593.641C807.941,601.059 807.822,605.93 808.156,613.548C808.183,614.18 808.201,613.954 808.044,614.524C808.663,622.425 809.625,633.452 810.954,641.205C811.365,642.744 811.802,644.59 812.267,646.083C815.159,655.455 827.134,673.378 838.567,666.327L841.416,665.13C842.915,663.959 844.518,662.811 846.053,661.68ZM822.027,585.799C820.44,587.369 817.775,590.542 815.958,590.843C814.352,587.223 819.743,577.351 821.735,573.744C824.842,568.119 830.413,563.796 837.21,566.528C850.361,573.667 854.514,601.742 852.675,614.177L852.876,615.111L852.718,616.098C851.42,624.601 851.091,644.28 843.815,651.231C842.762,652.385 841.877,653.36 840.907,654.582C838.601,656.522 838.23,656.844 835.452,657.96C831.635,657.989 829.189,657.587 826.427,654.867C824.297,653.199 823.586,652.513 822.318,650.162C820.764,647.9 818.974,645.212 818.081,642.648C816.888,640.209 815.405,637.213 816.181,634.744L817.064,634.915C818.688,636.965 819.315,637.743 821.49,639.177C843.735,653.289 850.38,596.237 829.437,584.02L827.056,583.863C825.436,584.432 823.527,585.035 822.027,585.799ZM820.097,620.366C819.161,610.115 819.628,606.469 824.236,597.185C829.744,593.93 831.498,595.003 835.642,599.539C835.974,601.309 836.29,603.081 836.59,604.857C837.712,612.442 838.761,635.059 825.674,631.009L822.911,628.556C821.074,625.903 820.647,623.421 820.097,620.366ZM563.365,262.69C549.991,263.982 536.4,265.017 522.996,266.159C522.109,270.37 521.164,274.612 520.068,278.772C515.019,297.93 510.666,317.487 505.006,336.463C509.078,336.262 528.988,335.023 532.269,335.44C535.628,334.783 545.253,334.444 548.921,334.303L577.308,333.259C590.161,333.201 610.06,330.869 622.198,332.034C624.439,330.066 627.422,314.869 628.324,311.032L636.669,276.71C637.225,273.841 637.801,271.567 638.55,268.756C638.562,267.869 640.976,257.688 641.372,255.855C634.381,255.95 626.299,256.893 619.267,257.535L583.303,260.942C577.504,261.497 569.885,262.438 564.266,262.502L563.365,262.69ZM731.829,376.977C721.583,376.612 710.371,375.973 700.158,377.201C695.419,377.77 695.051,380.121 692.003,382.79L691.598,384.25C693.361,386.029 695.385,385.778 697.917,385.791C699.262,385.798 700.608,385.753 701.95,385.658C703.261,385.935 703.26,386.064 704.471,385.58L705.038,385.574C710.725,386.985 720.282,385.61 729.059,387.818C738.419,397.168 728.058,419.315 725.025,429.88C723.935,434.27 722.238,438.564 721.235,442.608C720.062,446.522 718.998,450.284 717.753,454.188L718.474,454.242C730.906,443.711 747.668,403.998 744.607,387.742C741.762,380.152 739.637,378.991 731.829,376.977ZM162.584,644.755C167.127,646.293 170.207,647.172 174.879,648.258C174.589,644.854 175.054,641.641 171.716,640.039C169.399,639.96 167.195,641.035 164.959,641.868C163.359,642.288 160.782,642.654 159.822,643.648C161.086,644.501 161.069,644.42 162.584,644.755ZM292.133,696.147C291.18,700.157 286.005,701.591 283.233,703.82C292.46,701.564 301.611,701.645 310.009,698.72C310.835,698.433 310.546,698.404 311.674,698.325C315.534,698.65 320.819,696.903 325.325,696.582L373.034,692.757C380.331,692.165 388.463,691.807 395.598,691.08C402.838,695.726 401.082,697.992 404.99,705.8C412.312,720.429 422.455,730.793 438.196,735.917C442.006,737.157 449.354,739.283 453.229,738.819C452.884,737.463 445.35,732.897 442.934,730.298C438.858,725.914 437.133,724.537 434.204,719.08L435.464,712.966C425.832,708.713 426.614,707.829 419.4,700.272L418.538,698.971C412.612,686.171 414.854,688.113 417.339,676.986C416.59,676.236 413.237,675.63 411.74,675.342C404.492,673.948 406.026,661.992 403.296,656.773C399.509,653.455 391.699,654.661 386.198,654.127C382.705,653.775 379.251,653.103 375.881,652.118C365.073,648.908 357.64,640.278 352.394,630.668C347.844,630.018 315.524,629.753 313.642,630.922C312.837,632.924 312.829,634.478 312.627,636.609C312.216,639.772 311.878,643.793 310.773,646.68C310.323,654.705 306.261,653.204 303.315,659.495C303.019,660.126 305.236,666.776 305.172,667.994C304.929,672.582 299.108,685.108 294.314,685.881C291.915,689.52 292.81,691.87 292.133,696.147ZM534.746,488.087L537.646,496.424C535.599,497.334 533.626,498.235 531.53,499.032C529.216,496.355 526.689,493.28 524.129,490.896C518.159,491.401 513.277,492.769 507.746,495.176C513.513,502.644 515.475,506.772 517.682,516.219C527.99,510.171 535.217,506.512 547.657,507.413C571.13,509.112 586.948,532.908 594.791,552.87C597.494,559.441 599.752,565.678 602.144,572.374C604.464,556.24 603.508,549.989 596.716,534.877C593.861,528.525 592.679,530.42 596.283,524.117C593.366,518.527 590.902,514.697 587.15,509.613C586.239,511.637 586.011,512.618 584.394,514.031C577.985,515.869 576.907,502.968 577.049,498.914C572.618,495.074 569.626,493.859 564.217,491.391C564.541,494.501 565.042,498.348 565.112,501.412C561.79,500.192 559.835,499.319 556.654,497.751C553.66,491.096 552.588,487.146 544.211,487.603C541.129,487.771 537.85,487.91 534.746,488.087Z" style="fill:rgb(60,0,96);"  data-color="color-1"/>
    </g>
</svg>
