<?xml version="1.0" encoding="UTF-8" standalone="no"?>
<!DOCTYPE svg PUBLIC "-//W3C//DTD SVG 1.1//EN" "http://www.w3.org/Graphics/SVG/1.1/DTD/svg11.dtd">
<svg width="100%" height="100%" viewBox="0 0 855 1239" version="1.1" xmlns="http://www.w3.org/2000/svg" xmlns:xlink="http://www.w3.org/1999/xlink" xml:space="preserve" xmlns:serif="http://www.serif.com/" style="fill-rule:evenodd;clip-rule:evenodd;stroke-linejoin:round;stroke-miterlimit:2;">
    <g transform="matrix(1,0,0,1,-37.0566,-134.16)">
        <path d="M434.229,958.241C432.489,961.132 430.85,964.068 429.272,967.05C417.811,988.702 405.908,1010.11 393.91,1031.47C354.448,1103.21 314.016,1174.42 272.626,1245.08C261.092,1264.74 249.453,1284.35 237.711,1303.89C232.85,1311.89 224.744,1326 219.112,1333C228.267,1306.3 242.06,1275.05 253.291,1249.29L291.065,1160.99C318.7,1093.68 347.51,1026.86 377.483,960.56C390.524,931.548 406.433,894.125 421.104,866.553C425.637,897.093 430.012,927.656 434.229,958.241ZM576.029,928.667C570.217,940.49 562.667,953.115 556.073,964.72C539.75,993.548 522.745,1021.98 505.071,1050C461.829,1120.93 416.683,1190.67 369.683,1259.16C351.881,1285.38 334.674,1311.62 315.68,1337.12C307.666,1347.88 297.881,1363.15 289.157,1372.87C307.875,1333.36 330.453,1290.72 350.683,1251.52L452.699,1055.75C456.55,1048.45 493.393,981.624 493.558,980.491C520.938,963.341 548.551,945.491 576.029,928.667ZM337.289,910.337C337.772,914.286 329.655,933.486 327.719,938.6C307.275,992.594 283.721,1044.07 254.716,1094.06C246.022,1109.04 237.108,1126.64 227.415,1140.88C227.394,1140.73 227.372,1140.59 227.35,1140.44C244.039,1079.77 305.196,953.459 337.289,910.337ZM592.469,1011.66C592.613,1015.16 582.44,1034.77 580.316,1039.04C558.759,1082.94 534.697,1125.57 508.249,1166.71C495.689,1186.58 476.014,1216.39 460.88,1233.87C460.854,1233.66 460.829,1233.45 460.804,1233.24C487.19,1172.42 523.387,1108.91 560.908,1054.89C576.78,1032.04 581.09,1025.74 592.469,1011.66Z" style="fill:rgb(161,45,26);"/>
        <path d="M421.104,866.553C420.762,864.406 420.746,862.161 419.24,860.737C401.085,865.799 381.562,872.501 363.424,876.87C350.913,849.604 336.282,822.497 323.427,794.576L197.86,839.295C156.552,854.504 115.126,869.389 73.585,883.948C80.149,868.8 126.183,759.762 131.488,754.813C141.19,745.76 163.502,732.198 175.363,724.087L269.19,659.969L503.393,499.998L606.867,429.674C623.562,418.234 641.011,406.303 657.538,394.688C662.926,390.901 677.895,369.452 682.711,362.944L721.385,310.919C727.831,302.323 738.005,288.115 744.932,280.399C757.768,266.1 777.727,250.452 792.932,237.869C817.154,217.824 842.38,196.178 867.442,177.44L858.534,265.382C857.02,280.846 854.596,311.455 851.194,325.524C848.097,338.335 837.784,363.839 832.95,377.189C823.998,402.542 815.358,428.005 807.032,453.57C805.079,459.645 798.651,474.95 798.762,479.838C799.064,493.076 801.526,508.362 802.646,521.867L810.743,625.625L832.764,898.784C835.998,940.266 842.077,990.353 843.202,1031.01C829.704,1055.13 816.077,1079.18 802.322,1103.15C795.763,1114.56 788.317,1128.26 781.334,1139.26C765.103,1103.83 749.067,1068.3 733.224,1032.69C720.69,1004.7 706.896,972.89 691.802,946.132L603.37,977.066C599.926,970.508 580.232,930.245 576.924,928.4L576.029,928.667C548.551,945.491 520.938,963.341 493.558,980.491C477.371,989.405 459.789,1001.35 443.031,1010.88C439.704,994.6 437.133,975.021 434.229,958.241C430.012,927.656 425.637,897.093 421.104,866.553Z" style="fill:rgb(51,51,51);"/>
        <path d="M645.431,378.751C646.314,377.607 662.762,356.279 666.647,351.03L705.359,298.954L705.384,298.92C712.125,289.931 722.806,275.107 730.049,267.039C743.476,252.081 764.276,235.623 780.181,222.461C804.652,202.21 830.146,180.353 855.466,161.422L891.928,134.16L878.436,267.362C876.852,283.547 874.19,315.517 870.634,330.224C867.418,343.527 856.82,370.02 851.781,383.926C842.897,409.09 834.322,434.363 826.072,459.692C824.661,464.082 819.692,478.302 818.799,480.853C819.233,493.367 821.531,507.591 822.582,520.262L830.68,624.043L852.701,897.203L852.703,897.229C855.962,939.025 862.061,989.493 863.194,1030.46L863.347,1035.97L860.655,1040.78C847.122,1064.96 833.46,1089.07 819.665,1113.11L819.661,1113.12C812.964,1124.77 805.349,1138.75 798.219,1149.98L778.486,1181.06L763.151,1147.59C746.893,1112.1 730.83,1076.51 714.96,1040.84C704.896,1018.37 694.027,993.37 682.293,970.647L593.686,1001.64L585.663,986.365C583.914,983.034 575.912,967.858 569.707,956.093C547.839,969.739 525.933,983.812 504.175,997.441L503.698,997.739L503.206,998.01C487.094,1006.88 469.598,1018.78 452.918,1028.27L428.955,1041.89L423.436,1014.88C420.071,998.42 417.459,978.622 414.463,961.313L414.416,960.973C410.976,936.021 407.431,911.085 403.78,886.163C391.797,889.813 379.673,893.528 368.108,896.314L352.109,900.168L345.246,885.211C335.223,863.367 323.839,841.625 313.098,819.485C313.098,819.485 204.669,858.101 204.669,858.101C163.296,873.333 121.806,888.241 80.2,902.822L37.057,917.943L55.234,875.996C60.514,863.81 91.205,791.204 105.998,760.1C111.411,748.718 116.282,741.647 117.845,740.189C128.093,730.627 151.546,716.145 164.076,707.576L257.908,643.455L492.132,483.47L595.594,413.154C612.011,401.904 629.159,390.179 645.431,378.751ZM421.104,866.553C425.637,897.093 430.012,927.656 434.229,958.241C437.133,975.021 439.704,994.6 443.031,1010.88C459.789,1001.35 477.371,989.405 493.558,980.491C520.938,963.341 548.551,945.491 576.029,928.667L576.924,928.4C580.232,930.245 599.926,970.508 603.37,977.066L691.802,946.132C706.896,972.89 720.69,1004.7 733.224,1032.69C749.067,1068.3 765.103,1103.83 781.334,1139.26C788.317,1128.26 795.763,1114.56 802.322,1103.15C816.077,1079.18 829.704,1055.13 843.202,1031.01C842.077,990.353 835.998,940.266 832.764,898.784L810.743,625.625L802.646,521.867C801.526,508.362 799.064,493.076 798.762,479.838C798.651,474.95 805.079,459.645 807.032,453.57C815.358,428.005 823.998,402.542 832.95,377.189C837.784,363.839 848.097,338.335 851.194,325.524C854.596,311.455 857.02,280.846 858.534,265.382L867.442,177.44C842.38,196.178 817.154,217.824 792.932,237.869C777.727,250.452 757.768,266.1 744.932,280.399C738.005,288.115 727.831,302.323 721.385,310.919L682.711,362.944C677.895,369.452 662.926,390.901 657.538,394.688C641.011,406.303 623.562,418.234 606.867,429.674L503.393,499.998L269.19,659.969L175.363,724.087C163.502,732.198 141.19,745.76 131.488,754.813C126.183,759.762 80.149,868.8 73.585,883.948C115.126,869.389 156.552,854.504 197.86,839.295L323.427,794.576C336.282,822.497 350.913,849.604 363.424,876.87C381.562,872.501 401.085,865.799 419.24,860.737C420.746,862.161 420.762,864.406 421.104,866.553Z" style="fill:white;"/>
        <path d="M779.548,551.964C779.371,546.355 779.323,540.743 779.404,535.132C780.211,539.672 780.774,543.954 781.362,548.513C785.157,582.825 789.275,619.015 792.372,653.359L809.556,867.881L818.057,975.939C819.17,991.141 820.501,1006.33 821.419,1021.55C821.657,1025.5 821.574,1027.77 818.657,1030.57C816.716,1028.1 811.424,979.187 810.589,972.831C796.925,868.792 781.518,765.884 781.643,660.645C781.685,624.754 778.995,588.165 779.548,551.964ZM145.827,832.067C141.216,833.84 136.614,835.321 131.928,836.863C135.722,834.354 139.876,832.781 144.064,831.016C210.026,800.515 276.515,771.166 343.5,742.983C360.953,735.6 378.894,727.394 396.346,720.319C391.037,724.221 383.745,729.192 377.919,732.414C361.231,741.645 342.3,757.094 325.578,764.931C308.363,772.999 287.151,779.814 269.239,786.534C228.269,802.159 187.129,817.338 145.827,832.067ZM811.233,378.296C810.103,380.616 809.211,383.689 808.331,386.179C796.475,419.72 785.586,453.679 773.08,486.981C769.87,495.529 763.201,505.022 758.485,513.044C752.93,522.493 747.045,531.95 741.362,541.34C747.561,522.725 756.97,501.706 764.684,483.369L810.267,376.748C811.025,374.307 812.829,369.826 814.786,368.155C813.724,371.374 812.548,375.24 811.233,378.296ZM644.409,429.87C646.608,432.667 635.857,453.353 631.202,456.616C621.205,463.624 610.875,469.697 600.795,476.523L504.235,540.629C385.091,620.273 265.054,698.576 144.149,775.521C143.478,774.913 143.782,775.162 143.63,773.823C145.542,769.134 147.321,767.127 151.624,764.168C170.514,751.175 189.737,738.182 208.661,725.282L329.608,643.089L552.312,492.165C582.879,471.205 613.579,450.44 644.409,429.87ZM832.476,232.423C832.562,244.105 789.875,289.986 780.968,302.493C763.92,326.431 746.339,351.171 729.369,375.207L637.682,504.09C636.328,500.8 653.731,445.904 656.916,439.468C658.115,437.045 669.833,421.041 672.573,417.255L703.768,374.112L741.875,321.182C750.188,309.642 761.2,292.491 771.915,283.745C792.09,267.275 811.95,248.237 832.476,232.423ZM534.549,806.845C534.71,808.968 486.883,932.215 482.903,943.598C499.674,935.939 516.251,927.156 532.899,919.202C542.426,914.65 552.909,909.019 562.832,905.58C534.791,924.126 502.566,943.303 473.777,961.429L463.323,968.09C461.75,956.852 459.37,944.773 457.627,933.31C453.858,908.346 450.328,883.345 447.039,858.313L448.799,857.37L448.701,857.112L446.93,857.255L448.449,856.471C451.396,861.882 454.843,877.88 456.6,884.691C460.957,901.591 465.807,918.896 469.587,935.898C477.168,921.86 484.978,904.607 492.287,889.982L534.549,806.845ZM705.214,863.843C708.15,869.431 713.073,883.081 715.517,889.367C722.4,907.017 729.131,924.725 735.712,942.489C747.677,974.121 759.156,1005.94 770.144,1037.92C774.661,1051.23 780.852,1068.4 784.203,1081.75C778.259,1074.66 724.74,946.969 717.836,929.899C715.885,925.077 706.683,873.319 705.214,863.843ZM463.281,770.079C463.664,773.448 446.72,816.587 444.212,823.194C421.761,830.348 396.831,838.854 374.163,844.389C368.473,830.387 359.65,813.723 352.754,799.936L348.759,791.976L356.175,788.396C363.215,802.494 371.72,817.506 379.24,831.498C398.433,826.289 417.542,820.775 436.559,814.956C445.262,799.877 454.17,784.916 463.281,770.079ZM615.573,851.845C616.051,854.667 603.578,882.21 601.65,886.692C608.456,899.84 617.694,922.034 624.712,933.658C642.576,928.5 660.406,923.223 678.2,917.829L681.408,924.644L671.23,928.164L617.32,946.161C608.645,927.777 600.507,908.122 591.8,889.389C599.805,876.926 607.729,864.41 615.573,851.845Z" style="fill:rgb(218,106,0);"/>
    </g>
</svg>
