<?xml version="1.0" encoding="UTF-8" standalone="no"?>
<!DOCTYPE svg PUBLIC "-//W3C//DTD SVG 1.1//EN" "http://www.w3.org/Graphics/SVG/1.1/DTD/svg11.dtd">
<svg width="100%" height="100%" viewBox="0 0 764 775" version="1.1" xmlns="http://www.w3.org/2000/svg" xmlns:xlink="http://www.w3.org/1999/xlink" xml:space="preserve" xmlns:serif="http://www.serif.com/" style="fill-rule:evenodd;clip-rule:evenodd;stroke-linejoin:round;stroke-miterlimit:2;">
    <g transform="matrix(1,0,0,1,-128.851,-101.315)">
        <g transform="matrix(-1,0,0,1,910.826,0)">
            <path d="M369.893,101.653C374.208,101.158 391.133,101.372 396.167,101.478C404.392,101.651 422.822,100.757 429.887,101.937C434.119,102.613 438.143,104.238 441.658,106.691C449.235,112.014 451.674,118.641 453.242,127.206C473.196,130.91 499.483,143.032 517.406,152.134C531.55,145.744 541.058,142.549 555.94,138.667C556.681,119.627 567.928,110.46 586.407,110.972C603.582,111.447 621.355,110.219 638.494,111.3C653.459,112.244 660.204,123.61 662.565,136.965C699.778,145.159 733.555,164.351 760.031,191.804C782.333,214.928 776.954,224.524 773.116,253.606C770.694,271.467 768.423,289.349 766.305,307.249L746.762,488.391C746.215,494.088 745.462,499.763 744.504,505.405C743.023,513.839 740.455,523.081 741.422,531.494C744.033,554.228 749.231,576.589 756.913,598.144C761.032,609.725 766.287,621.676 770.662,633.335C782.638,665.25 785.858,697.14 776.668,730.28C775.006,736.272 771.897,743.902 769.622,749.884C774.005,755.719 774.301,762.411 772.2,769.26C764.315,794.954 757.476,821.363 748.981,846.834C743.381,863.624 729.999,865.895 714.516,865.969L640.65,865.996C628.666,865.991 614.461,866.455 602.583,865.189C598.318,864.734 592.716,861.263 589.703,858.044C582.094,849.915 582.445,840.99 582.488,830.893C567.654,836.272 552.261,843.978 537.716,850.352C525.13,855.856 512.245,860.649 499.121,864.708C446.876,882.125 361.597,875.862 308.225,862.846C285.302,857.255 254.688,844.411 233.557,834.057C187.855,838.599 144.467,838.443 99.493,826.86C77.329,821.152 49.485,810.984 29.993,798.742C19.626,792.232 16.853,773.864 20.189,763.051C23.07,753.713 26.005,749.676 34.844,744.685C39.195,726.892 42.232,710.136 56.999,697.609C72.989,684.043 95.306,686.31 116.099,682.683C158.974,675.605 198.082,653.919 226.796,621.301C244.524,601.355 257.114,579.183 265.097,553.786C269.115,541 271.763,532.702 270.958,519.162C261.33,504.404 262.867,488.256 261.646,471.102C260.202,450.752 258.566,430.415 256.736,410.096L244.545,282.536L240.318,241.013C239.561,233.658 238.243,223.497 237.999,216.236C237.785,210.931 239.115,205.677 241.829,201.113C246.096,193.85 254.988,184.379 261.138,178.253C286.838,152.649 311.058,138.792 345.951,129.724C346.548,114.473 354.853,104.296 369.893,101.653ZM750.33,766.204C752.172,765.937 751.488,765.677 752.771,766.375C750.995,776.488 745.69,791.096 742.588,801.549C739.057,813.444 736.251,826.23 731.835,837.794C731.094,839.735 729.651,843.634 727.844,844.657C725.916,845.748 721.465,845.933 719.206,846.021C701.591,846.702 683.698,846.091 666.058,846.096C647.975,846.101 629.667,846.7 611.606,846.031C609.705,845.961 605.173,845.951 603.716,844.889C597.688,840.495 603.154,816.563 600.506,808.934C600.078,807.701 599.264,806.368 598.024,805.84C592.592,803.531 532.579,831.754 522.176,835.947C504.294,843.156 485.642,849.24 466.623,852.577C424.914,859.893 359.16,855.302 318.299,845.207C297.02,839.949 276.497,832.28 256.368,823.688C247.604,819.728 234.278,813.623 226.406,808.314C225.066,804.05 224.926,800.587 225.365,796.218C226.612,783.82 233.628,790.126 240.537,793.188C244.384,794.894 248.433,796.961 252.278,798.702C258.644,801.523 265.084,804.171 271.593,806.644C311.379,822.142 355.329,830.619 397.472,833.604C453.266,837.555 496.794,827.279 546.384,802.145C564.31,794.326 585.495,781.881 604.758,778.145C625.683,774.086 652.251,775.594 673.615,774.399C687.357,773.749 701.074,772.663 714.747,771.146C726.714,769.734 738.404,767.687 750.33,766.204ZM490.754,539.079C495.829,541.1 502.46,545.516 506.781,548.757C515.51,555.169 515.653,566.039 514.72,575.896C512.554,598.812 509.024,620.261 529.307,636.629C548.447,652.074 575.102,653.627 598.855,651.427L598.866,719.524C598.866,732.477 599.229,747.581 598.466,760.356C575.814,766.101 551.213,778.442 530.098,788.778C470.755,817.825 421.467,819.851 356.615,809.471C316.155,803.258 276.978,790.491 240.627,771.671C251.086,715.567 300.883,728.569 343.091,715.645C385.327,702.713 419.869,670.29 446.032,635.685C468.769,605.613 485.876,577.075 490.754,539.079ZM289.685,531.816C316.749,548.02 304.086,564.446 306.829,589.752C308.598,603.589 316.641,616.441 327.824,624.63C347.275,638.873 375.038,638.788 398.233,638.185C405.51,637.996 413.811,637.456 420.978,636.484C399.037,661.248 372.968,686.126 340.799,696.264C303.912,707.889 256.168,700.152 232.792,738.29C226.394,748.73 224.209,758.307 220.953,770.033C215.252,772.766 214.513,773.46 210.208,778.005C202.731,778.13 195.252,778.183 187.774,778.165C141.481,777.278 95.557,768.523 53.883,747.958C65.385,700.337 73.151,708.951 117.237,701.964C126.779,700.531 136.204,698.402 145.435,695.593C168.861,688.519 190.853,677.36 210.396,662.633C252.112,631.547 282.084,583.459 289.685,531.816ZM554.273,159.49C555.283,159.508 555.622,159.265 555.727,159.982C556.39,164.496 556.099,171.747 556.091,176.207L556.009,222.553C555.999,230.257 555.532,246.442 557.128,253.27C558.28,258.362 560.857,263.021 564.557,266.703C573.665,275.629 586.619,273.613 598.872,273.484L598.803,632.239C577.462,634.23 544.573,634.462 533.766,611.696C528.78,597.596 537.605,569.375 531.559,552.457C525.043,534.226 508.204,526.442 492.078,518.3C491.731,515.213 491.585,511.97 491.508,508.857C490.954,486.571 489.372,464.464 487.543,442.239C483.411,395.383 478.787,348.572 473.671,301.813L469.363,258.562C468.432,248.986 465.47,229.844 468.275,220.189C468.972,217.788 475.821,210.107 477.932,207.616C498.584,183.238 524.542,169.539 554.273,159.49ZM41.757,764.298C45.831,765.346 52.258,768.66 56.264,770.477C104.262,792.239 153.57,797.097 205.561,796.989C205.56,804.035 206.607,809.317 208.68,816.075L208.228,816.841L206.121,816.977C156.103,822.362 83.58,808.084 40.129,782.609C37.711,776.441 36.838,769.45 41.757,764.298ZM452.958,147.965C468.929,152.161 482.2,157.776 497.093,164.617C488.557,170.294 480.556,176.737 473.188,183.865C466.109,190.557 457.697,200.032 452.994,208.37L452.958,147.965ZM373.448,121.194C389.759,120.775 406.615,121.634 422.993,121.426C424.269,121.41 428.591,122.292 429.835,123.039C435.486,126.432 432.813,136.011 433.472,141.499C433.482,172.87 433.556,204.213 433.437,235.579C433.415,241.515 432.641,243.554 426.625,245.012C417.258,245.035 375.143,246.349 369.278,243.88C367.696,243.214 366.517,241.451 366.035,239.855C364.694,235.417 365.561,206.844 365.558,199.884L365.545,155.528C365.544,148.224 364.764,132.748 366.718,125.444C367.291,123.304 371.079,121.661 373.448,121.194ZM580.354,131.107C589.472,130.709 632.277,129.978 638.466,132.043C640.299,132.655 641.392,134.024 642.174,135.738C642.835,137.188 642.928,138.758 642.994,140.326C643.794,159.166 643.052,178.371 643.057,197.247C643.062,213.343 643.91,230.45 642.944,246.44C642.857,247.884 642.724,249.19 642.117,250.517C641.075,252.796 639.28,253.686 637.054,254.57C628.604,254.985 583.802,255.9 578.224,253.76C576.701,253.176 575.615,251.997 575.005,250.476C573.398,246.469 573.394,139.282 574.862,135.77C575.93,133.213 577.895,132.101 580.354,131.107ZM345.08,150.526C346.62,151.13 346.093,153.974 346.076,155.96L345.999,209.486C345.995,220.548 345.288,233.661 347.121,244.41C348.857,254.586 359.521,263.34 369.744,263.821C376.186,264.125 382.985,264.074 389.634,264.046L389.733,619.571C375.734,619.571 357.595,618.171 344.739,612.837C335.827,609.139 330.827,602.415 327.346,593.709C323.937,583.049 325.8,570.516 326.241,559.476C326.961,541.456 317.87,527.308 303.191,517.412C296.779,513.09 288.495,508.701 283.283,502.997C282.252,498.851 281.54,482.627 281.201,477.422C280.16,461.839 278.998,446.265 277.716,430.7C273.062,375.301 267.962,319.94 262.417,264.622C261.415,254.364 256.1,217.628 259.529,210.518C262.261,204.855 267.515,199.937 271.863,195.455C293.962,172.678 315.06,160.527 345.08,150.526ZM723.169,539.322L723.654,539.801C724.799,544.946 725.46,552.504 726.453,558.124C728.717,570.893 731.821,583.498 735.746,595.857C740.805,611.79 747.172,626.16 753.148,641.732C762.626,666.433 764.949,695.296 758.946,721.101C757.132,728.901 752.991,739.264 749.957,746.81C744.418,747.963 737.699,748.602 732.004,749.546C707.081,753.678 682.694,754.76 657.513,755.939C644.336,756.056 631.163,756.412 618,757.005L617.979,649.559C623.733,648.74 629.474,647.837 635.202,646.851C657.874,642.859 679.697,635.796 693.367,615.905C704.18,600.171 701.113,584.676 706.809,567.558C709.959,558.091 717.389,547.577 723.169,539.322ZM449.219,251.893C450.078,253.225 450.48,261.852 450.68,264.058L453.956,297.556C459.372,350.985 465.652,404.857 469.415,458.438C471.33,485.709 474.721,519.447 470.629,546.182C466.967,570.105 450.88,596.392 436.581,615.839C434.394,616.181 432.09,616.39 429.881,616.626L408.992,618.565L408.906,490.141L408.945,264.092C426.118,263.959 437.437,267.174 449.219,251.893ZM662.492,157.247C696.624,168.289 733.544,185.765 754.707,217.105C759.604,224.358 755.988,238.457 754.785,247.185L749.686,284.749C744.884,323.101 740.282,361.478 735.88,399.878C733.525,420.962 731.425,442.073 729.581,463.207C729.062,468.825 727.142,493.037 725.744,496.965C718.856,516.315 701.092,534.264 691.838,553.302C683.624,570.199 686.003,581.842 681.17,598.086C669.857,623.508 642.737,626.682 617.972,629.88L617.987,273.433C630.119,273.519 644.428,275.077 653.94,265.983C662.796,257.518 662.589,247.495 662.524,236.201C662.488,230.032 662.528,223.714 662.528,217.496L662.492,157.247Z" style="fill:white;"/>
        </g>
        <g transform="matrix(-1,0,0,1,910.826,0)">
            <path d="M490.754,539.079C495.829,541.1 502.46,545.516 506.781,548.757C515.51,555.169 515.653,566.039 514.72,575.896C512.554,598.812 509.024,620.261 529.307,636.629C548.447,652.074 575.102,653.627 598.855,651.427L598.866,719.524C598.866,732.477 599.229,747.581 598.466,760.356C575.814,766.101 551.213,778.442 530.098,788.778C470.755,817.825 421.467,819.851 356.615,809.471C316.155,803.258 276.978,790.491 240.627,771.671C251.086,715.567 300.883,728.569 343.091,715.645C385.327,702.713 419.869,670.29 446.032,635.685C468.769,605.613 485.876,577.075 490.754,539.079ZM289.685,531.816C316.749,548.02 304.086,564.446 306.829,589.752C308.598,603.589 316.641,616.441 327.824,624.63C347.275,638.873 375.038,638.788 398.233,638.185C405.51,637.996 413.811,637.456 420.978,636.484C399.037,661.248 372.968,686.126 340.799,696.264C303.912,707.889 256.168,700.152 232.792,738.29C226.394,748.73 224.209,758.307 220.953,770.033C215.252,772.766 214.513,773.46 210.208,778.005C202.731,778.13 195.252,778.183 187.774,778.165C141.481,777.278 95.557,768.523 53.883,747.958C65.385,700.337 73.151,708.951 117.237,701.964C126.779,700.531 136.204,698.402 145.435,695.593C168.861,688.519 190.853,677.36 210.396,662.633C252.112,631.547 282.084,583.459 289.685,531.816ZM723.169,539.322L723.654,539.801C724.799,544.946 725.46,552.504 726.453,558.124C728.717,570.893 731.821,583.498 735.746,595.857C740.805,611.79 747.172,626.16 753.148,641.732C762.626,666.433 764.949,695.296 758.946,721.101C757.132,728.901 752.991,739.264 749.957,746.81C744.418,747.963 737.699,748.602 732.004,749.546C707.081,753.678 682.694,754.76 657.513,755.939C644.336,756.056 631.163,756.412 618,757.005L617.979,649.559C623.733,648.74 629.474,647.837 635.202,646.851C657.874,642.859 679.697,635.796 693.367,615.905C704.18,600.171 701.113,584.676 706.809,567.558C709.959,558.091 717.389,547.577 723.169,539.322Z" style="fill:rgb(175,47,47);"/>
        </g>
        <g transform="matrix(-1,0,0,1,910.826,0)">
            <path d="M580.354,131.107C589.472,130.709 632.277,129.978 638.466,132.043C640.299,132.655 641.392,134.024 642.174,135.738C642.835,137.188 642.928,138.758 642.994,140.326C643.794,159.166 643.052,178.371 643.057,197.247C643.062,213.343 643.91,230.45 642.944,246.44C642.857,247.884 642.724,249.19 642.117,250.517C641.075,252.796 639.28,253.686 637.054,254.57C628.604,254.985 583.802,255.9 578.224,253.76C576.701,253.176 575.615,251.997 575.005,250.476C573.398,246.469 573.394,139.282 574.862,135.77C575.93,133.213 577.895,132.101 580.354,131.107ZM373.448,121.194C389.759,120.775 406.615,121.634 422.993,121.426C424.269,121.41 428.591,122.292 429.835,123.039C435.486,126.432 432.813,136.011 433.472,141.499C433.482,172.87 433.556,204.213 433.437,235.579C433.415,241.515 432.641,243.554 426.625,245.012C417.258,245.035 375.143,246.349 369.278,243.88C367.696,243.214 366.517,241.451 366.035,239.855C364.694,235.417 365.561,206.844 365.558,199.884L365.545,155.528C365.544,148.224 364.764,132.748 366.718,125.444C367.291,123.304 371.079,121.661 373.448,121.194Z" style="fill:rgb(175,47,47);"/>
        </g>
        <g transform="matrix(-1,0,0,1,910.826,0)">
            <path d="M750.33,766.204C752.172,765.937 751.488,765.677 752.771,766.375C750.995,776.488 745.69,791.096 742.588,801.549C739.057,813.444 736.251,826.23 731.835,837.794C731.094,839.735 729.651,843.634 727.844,844.657C725.916,845.748 721.465,845.933 719.206,846.021C701.591,846.702 683.698,846.091 666.058,846.096C647.975,846.101 629.667,846.7 611.606,846.031C609.705,845.961 605.173,845.951 603.716,844.889C597.688,840.495 603.154,816.563 600.506,808.934C600.078,807.701 599.264,806.368 598.024,805.84C592.592,803.531 532.579,831.754 522.176,835.947C504.294,843.156 485.642,849.24 466.623,852.577C424.914,859.893 359.16,855.302 318.299,845.207C297.02,839.949 276.497,832.28 256.368,823.688C247.604,819.728 234.278,813.623 226.406,808.314C225.066,804.05 224.926,800.587 225.365,796.218C226.612,783.82 233.628,790.126 240.537,793.188C244.384,794.894 248.433,796.961 252.278,798.702C258.644,801.523 265.084,804.171 271.593,806.644C311.379,822.142 355.329,830.619 397.472,833.604C453.266,837.555 496.794,827.279 546.384,802.145C564.31,794.326 585.495,781.881 604.758,778.145C625.683,774.086 652.251,775.594 673.615,774.399C687.357,773.749 701.074,772.663 714.747,771.146C726.714,769.734 738.404,767.687 750.33,766.204ZM41.757,764.298C45.831,765.346 52.258,768.66 56.264,770.477C104.262,792.239 153.57,797.097 205.561,796.989C205.56,804.035 206.607,809.317 208.68,816.075L208.228,816.841L206.121,816.977C156.103,822.362 83.58,808.084 40.129,782.609C37.711,776.441 36.838,769.45 41.757,764.298Z" style="fill:rgb(95,47,0);"/>
        </g>
        <g transform="matrix(-1,0,0,1,910.826,0)">
            <path d="M662.492,157.247C696.624,168.289 733.544,185.765 754.707,217.105C759.604,224.358 755.988,238.457 754.785,247.185L749.686,284.749C744.884,323.101 740.282,361.478 735.88,399.878C733.525,420.962 731.425,442.073 729.581,463.207C729.062,468.825 727.142,493.037 725.744,496.965C718.856,516.315 701.092,534.264 691.838,553.302C683.624,570.199 686.003,581.842 681.17,598.086C669.857,623.508 642.737,626.682 617.972,629.88L617.987,273.433C630.119,273.519 644.428,275.077 653.94,265.983C662.796,257.518 662.589,247.495 662.524,236.201C662.488,230.032 662.528,223.714 662.528,217.496L662.492,157.247ZM554.273,159.49C555.283,159.508 555.622,159.265 555.727,159.982C556.39,164.496 556.099,171.747 556.091,176.207L556.009,222.553C555.999,230.257 555.532,246.442 557.128,253.27C558.28,258.362 560.857,263.021 564.557,266.703C573.665,275.629 586.619,273.613 598.872,273.484L598.803,632.239C577.462,634.23 544.573,634.462 533.766,611.696C528.78,597.596 537.605,569.375 531.559,552.457C525.043,534.226 508.204,526.442 492.078,518.3C491.731,515.213 491.585,511.97 491.508,508.857C490.954,486.571 489.372,464.464 487.543,442.239C483.411,395.383 478.787,348.572 473.671,301.813L469.363,258.562C468.432,248.986 465.47,229.844 468.275,220.189C468.972,217.788 475.821,210.107 477.932,207.616C498.584,183.238 524.542,169.539 554.273,159.49ZM345.08,150.526C346.62,151.13 346.093,153.974 346.076,155.96L345.999,209.486C345.995,220.548 345.288,233.661 347.121,244.41C348.857,254.586 359.521,263.34 369.744,263.821C376.186,264.125 382.985,264.074 389.634,264.046L389.733,619.571C375.734,619.571 357.595,618.171 344.739,612.837C335.827,609.139 330.827,602.415 327.346,593.709C323.937,583.049 325.8,570.516 326.241,559.476C326.961,541.456 317.87,527.308 303.191,517.412C296.779,513.09 288.495,508.701 283.283,502.997C282.252,498.851 281.54,482.627 281.201,477.422C280.16,461.839 278.998,446.265 277.716,430.7C273.062,375.301 267.962,319.94 262.417,264.622C261.415,254.364 256.1,217.628 259.529,210.518C262.261,204.855 267.515,199.937 271.863,195.455C293.962,172.678 315.06,160.527 345.08,150.526ZM449.219,251.893C450.078,253.225 450.48,261.852 450.68,264.058L453.956,297.556C459.372,350.985 465.652,404.857 469.415,458.438C471.33,485.709 474.721,519.447 470.629,546.182C466.967,570.105 450.88,596.392 436.581,615.839C434.394,616.181 432.09,616.39 429.881,616.626L408.992,618.565L408.906,490.141L408.945,264.092C426.118,263.959 437.437,267.174 449.219,251.893ZM452.958,147.965C468.929,152.161 482.2,157.776 497.093,164.617C488.557,170.294 480.556,176.737 473.188,183.865C466.109,190.557 457.697,200.032 452.994,208.37L452.958,147.965Z" style="fill:rgb(95,47,0);"/>
        </g>
    </g>
</svg>
