<svg width="100%" height="100%" viewBox="0 0 875 687" version="1.1" xmlns="http://www.w3.org/2000/svg" xmlns:xlink="http://www.w3.org/1999/xlink" xml:space="preserve" xmlns:serif="http://www.serif.com/" style="fill-rule:evenodd;clip-rule:evenodd;stroke-linejoin:round;stroke-miterlimit:2;">
    <g transform="matrix(1,0,0,1,-67.3332,-162.728)">
        <path d="M321.062,562.022C288.81,547.998 256.724,533.144 224.359,519.52C213.156,514.903 202,510.172 190.898,505.329C176.731,499.154 161.793,493.343 155.429,477.973C146.645,456.763 161.012,442.128 177.421,432.739C196.367,421.899 215.134,409.685 235.081,400.636C234.554,374.635 235.245,346.937 235.465,320.707C223.021,314.969 210.391,309.571 197.883,303.995C186.443,298.894 173.614,294.091 163.767,286.239C154.696,279.004 147.635,268.288 146.501,256.496C145.34,244.439 150.885,232.267 158.507,223.283C171.831,207.576 216.575,179.505 236.12,171.89C248.203,167.181 260.381,164.372 273.282,163.25C310.889,159.692 338.177,174.981 371.25,188.922C371.261,188.926 371.272,188.931 371.283,188.936C409.473,205.182 447.51,221.781 485.393,238.731C568.124,275.607 651.109,311.913 734.34,347.646C747.031,345.783 759.9,346.739 772.056,350.355C771.572,347.089 771.136,343.849 770.753,340.686C769.398,329.467 768.093,315.122 770.12,302.187C771.711,292.04 775.34,282.733 781.753,275.639C788.827,267.815 796.429,264.255 803.956,263.357C811.333,262.477 818.838,264.238 826.076,268.068C843.172,277.114 859.046,298.886 866.883,311.865C877.052,328.708 885.516,346.132 892.467,364.502C892.473,364.517 892.478,364.532 892.484,364.547C897.138,377.01 902.938,394.094 903.726,407.099C904.066,412.71 900.121,417.674 894.578,418.61C889.035,419.547 883.678,416.153 882.157,410.742C878.365,397.258 873.387,385.314 866.84,372.953C859.981,360.004 853.158,346.907 845.076,334.791C847.8,348.775 849.607,362.937 850.48,377.184C866.798,383.127 877.916,395.871 876.019,416.296C875.693,419.809 874.929,422.89 873.795,425.673C888.984,431.837 913.593,444.245 925.483,452.311C936.649,459.887 941.033,468.607 941.805,476.918C942.525,484.682 939.938,492.552 934.939,499.697C930.348,506.26 923.665,512.235 916.728,516.83C917.792,527.786 917.57,542.373 913.347,553.12C908.484,565.495 899.297,573.752 883.852,572.589C878.765,572.206 872.934,569.919 867.146,566.123C858.753,560.62 850.096,551.851 844.099,545.019C834.007,545.321 828.213,544.212 820.961,542.044L821.322,614.433C832.13,619.196 842.896,624.077 853.566,629.108C861.508,632.852 867.185,638.911 869.228,645.899C870.76,651.135 870.525,657.091 867.205,663.534C859.977,677.608 844.746,683.966 830.599,688.828C813.001,694.875 794.445,700.733 776.398,705.444C776.398,705.444 776.099,705.544 776.099,705.545C773.925,709.071 771.835,712.578 769.295,715.899C753.926,736.005 726.938,750.166 701.604,739.312C681.022,730.494 671.122,712.422 667.08,692.068C656.714,688.635 641.178,682.477 630.773,678.059C630.044,678.848 629.288,679.626 628.487,680.396C613.518,694.801 595.133,699.837 578.699,696.642C562.077,693.411 547.064,681.791 539.363,661.689C538.271,658.84 537.422,656.295 536.691,653.784C534.303,654.379 531.939,654.963 529.722,655.548C517.824,658.749 505.907,661.88 493.972,664.938C466.016,672.321 437.812,678.73 409.412,684.153C398.655,686.28 388.003,688.452 377.24,690.24C377.331,693.373 376.874,696.507 375.789,699.404C372.811,707.355 366.366,712.531 358.955,715.709C342.964,722.569 331.763,725.557 321.724,725.995C308.983,726.551 297.978,722.931 280.942,716.569C279.775,718.458 278.59,720.339 277.527,722.034C277.325,731.177 275.348,739.045 268.172,746.236C262.645,751.791 255.122,754.898 247.286,754.863C239.931,754.854 232.886,751.901 227.723,746.663C227.703,746.642 227.683,746.622 227.662,746.601C218.269,736.92 217.247,722.737 222.894,711.715C215.365,711.889 207.815,710.937 199.315,706.944C188.499,701.862 182.425,694.575 178.034,684.683C160.733,680.396 125.629,669.615 116.794,663.579C111.673,660.083 108.19,654.66 107.138,648.551C106.184,643.013 107.367,637.44 110.833,632.934C112.567,630.678 117.495,626.736 124.16,622.663C136.687,615.008 155.823,605.458 161.735,603.348C164.715,602.286 167.726,601.514 170.77,600.894C172.951,586.406 179.098,569.45 187.761,559.531C198.079,547.718 210.867,540.491 226.573,539.135C248.066,537.278 265.805,551.228 281.52,564.105C286.429,568.105 291.315,572.133 296.176,576.192C304.42,571.425 312.748,566.732 321.062,562.022ZM274.275,174.205C262.415,175.233 251.22,177.811 240.114,182.139C221.701,189.313 179.447,215.602 166.895,230.399C161.119,237.208 156.57,246.305 157.45,255.443C158.301,264.293 163.817,272.209 170.625,277.639C179.761,284.924 191.748,289.216 202.362,293.948C217.076,300.508 231.957,306.824 246.511,313.728C246.368,344.381 245.345,377.491 246.265,407.792C224.109,416.82 203.621,430.422 182.884,442.287C171.167,448.991 159.32,458.619 165.592,473.764C170.8,486.342 183.7,490.192 195.293,495.245C206.343,500.065 217.443,504.773 228.59,509.366C262.937,523.823 296.969,539.664 331.217,554.433C335.768,556.395 340.849,558.596 345.238,560.868C328.588,570.535 311.585,579.864 295.031,589.589C288.255,583.876 281.431,578.221 274.56,572.623C260.98,561.496 246.094,548.489 227.52,550.094C214.761,551.196 204.428,557.171 196.046,566.767C186.939,577.194 181.294,596.733 180.918,610.331C175.64,611.113 170.481,611.908 165.431,613.709C157.437,616.561 123.96,633.907 119.553,639.639C117.994,641.666 117.549,644.193 117.978,646.684C118.525,649.86 120.336,652.679 122.998,654.496C132.404,660.924 173.686,672.776 186.119,675.251C189.649,685.148 194.141,692.359 203.993,696.988C221.894,705.398 234.715,696.48 255.178,700.232C253.879,702.196 252.567,704.245 251.219,706.165C232.228,706 224.329,727.369 235.557,738.941C238.66,742.089 242.896,743.862 247.317,743.863C252.219,743.89 256.926,741.947 260.381,738.47C266.054,732.789 266.669,726.359 266.531,718.886C269.23,714.498 273.899,707.389 276.105,703.001C310.012,715.744 318.732,720.994 354.619,705.6C359.301,703.592 363.607,700.569 365.488,695.546C366.957,691.625 366.281,686.964 364.358,683.311C363.98,682.593 363.538,681.92 363.089,681.233C378.014,679.285 392.562,676.272 407.311,673.355C435.487,667.976 463.468,661.618 491.203,654.292C503.118,651.239 515.015,648.114 526.893,644.918C532.561,643.422 539.211,641.939 544.688,640.266C546.126,646.778 547.224,651.461 549.635,657.754C561.915,689.808 596.716,695.703 620.86,672.47C623.409,670.017 625.428,667.461 627.65,664.672C637.272,669.146 666.647,681.103 676.811,683.491C679.371,702.813 686.806,721.005 705.936,729.201C726.508,738.015 748.078,725.544 760.557,709.217C763.689,705.123 766.07,700.711 768.875,696.369L773.253,694.896C791.15,690.238 809.565,684.424 827.024,678.425C838.581,674.453 851.523,670.002 857.424,658.501C861.915,649.794 856.916,642.848 848.876,639.058C836.143,633.054 823.273,627.267 810.358,621.638L809.886,527.035C826.497,532.086 830.582,535.012 848.974,533.761C856.364,542.819 872.92,560.735 884.678,561.62C909.024,563.453 907.671,526.617 904.858,511.093C923.177,501.507 944.712,478.651 919.307,461.414C907.119,453.145 880.977,440.139 866.858,434.762C878.422,459.743 894.323,498.339 893.728,526.416C893.606,532.194 891.896,537.045 890.122,542.433C888.415,505.713 867.551,467.252 852.696,434.276C859.142,428.928 864.244,424.13 865.066,415.279C866.67,398.014 854.926,388.761 839.879,385.586C838.735,354.37 832.954,323.498 822.726,293.983C847.613,313.017 862.158,340.613 876.561,367.804C883.483,380.874 888.737,393.507 892.746,407.764C892.016,395.719 886.489,379.938 882.179,368.395C875.465,350.651 867.289,333.82 857.466,317.551C845.684,298.038 814.527,255.79 789.913,283.016C777.354,296.907 779.592,322.136 781.674,339.366C782.825,348.891 784.483,359.14 786.435,368.603C770.379,358.988 751.36,355.582 732.965,359.026C648.691,322.862 564.67,286.111 480.909,248.775C443.085,231.852 405.107,215.279 366.977,199.058C335.636,185.847 309.921,170.818 274.275,174.205ZM802.069,296.8C805.112,301.01 817.402,361.634 819.523,370.625C820.846,376.39 822.504,382.072 824.489,387.643C821.814,388.522 819.426,389.562 816.837,390.648C814.481,391.829 811.828,393.378 809.492,394.674C800.426,373.124 795.012,335.558 797.729,312.148C798.328,306.989 800.202,301.61 802.069,296.8ZM732.758,574.859C733.169,577.948 732.895,584.212 732.844,587.556L727.978,585.469L726.768,584.892L726.539,584.128C727.937,581.015 730.666,577.657 732.758,574.859ZM263.123,320.677C283.084,329.381 304.31,339.537 324.165,348.707C324.007,354.77 324.397,401.62 323.609,403.212L322.395,403.01C302.558,397.223 282.999,399.296 263.083,402.381C262.656,375.992 262.811,347.059 263.123,320.677ZM313.078,389.698C313.174,379.162 313.125,364.609 313.128,355.715C300.284,349.744 286.995,343.475 273.952,337.55C273.807,354.792 273.761,372.633 273.924,389.769C287.018,388.211 300.018,387.661 313.078,389.698ZM794.815,526.439C795.287,527.222 795.324,606.556 795.444,614.528C786.444,611.193 773.925,605.346 764.843,601.377L749.055,594.632C748.88,583.607 749.001,572.205 748.979,561.15C756.968,555.619 764.795,549.858 772.451,543.875C779.357,538.426 787.741,531.318 794.815,526.439ZM784.167,548.582C782.478,549.948 780.833,551.273 779.265,552.511C779.251,552.521 779.238,552.532 779.224,552.542C772.921,557.468 766.505,562.246 759.98,566.873C759.971,573.667 759.937,580.543 759.978,587.337L769.165,591.261C769.192,591.273 769.22,591.285 769.248,591.297C773.725,593.254 779.052,595.679 784.364,598.023C784.319,583.886 784.266,563.825 784.167,548.582ZM413.161,386.713C427.514,392.717 441.813,398.848 456.057,405.104L456.06,460.736C451.955,458.79 447.565,456.987 443.375,455.193C426.5,447.561 410.804,441.068 393.842,432.932C400.401,419.627 407.747,400.78 413.161,386.713ZM445.059,443.888L445.057,412.298C436.499,408.567 427.921,404.881 419.323,401.241C415.937,409.874 412.162,419.216 408.437,427.625C420.742,433.27 432.613,438.306 445.059,443.888ZM486.859,418.937C498.139,423.514 509.181,429.328 520.858,433.912C510.929,440.043 508.641,446.994 505.914,457.885C505.812,458.454 505.517,460.109 505.224,460.538C502.125,465.067 491.091,469.364 486.473,471.302C487.109,454.849 486.713,435.599 486.859,418.937ZM497.846,446.113C498.911,442.994 500.127,440.178 501.669,437.577C500.387,436.987 499.109,436.397 497.832,435.808C497.839,439.224 497.848,442.672 497.846,446.113ZM355.227,360.929L389.162,376.692C385.556,386.205 379.247,399.331 374.997,408.911C373.121,413.427 370.937,418.116 368.938,422.603C364.707,420.987 359.68,418.63 355.464,416.789C355.845,399.439 355.796,378.251 355.227,360.929ZM366.687,400.567C369.282,394.846 372.323,388.322 374.98,382.233L366.615,378.348C366.71,385.693 366.732,393.244 366.687,400.567ZM839.931,441.554C840.198,441.763 840.464,441.972 840.73,442.181C843.851,452.906 846.593,463.777 849.863,474.457C854.211,488.657 859.376,502.632 864.68,516.499C867.381,523.56 870.605,530.114 873.962,536.881C871.825,534.353 870.302,532.068 868.439,529.339C859.74,513.826 852.691,498.25 844.771,482.394C838.196,469.231 833.859,458.059 828.998,444.187C833.102,443.773 836.026,442.79 839.931,441.554Z" style="fill:rgb(88,153,77);" data-color="color-2"/>
        <path d="M744.255,376.188C764.111,373.585 781.89,384.106 791.64,401.026C772.682,389.257 748.683,377.176 751.549,411.745C753.411,434.202 760.518,448.404 767.408,468.852C744.515,485.553 720.871,502.528 696.813,517.489C685.585,524.457 674.234,531.224 662.765,537.788C658.06,540.436 638.331,550.588 635.522,553.608C632.661,556.684 623.545,575.676 620.563,581.083L613.882,576.188C615.392,570.942 623.853,550.044 627.189,546.967C630.822,543.615 652.361,532.617 657.653,529.717C664.423,526.032 671.097,522.174 677.669,518.146C705.559,501.048 732.857,483.001 759.515,464.039L755.871,456.922L750.294,460.594C742.357,465.906 733.933,471.044 725.792,476.069C692.123,496.854 657.196,517.233 621.1,533.487C613.34,529.959 605.61,526.365 597.91,522.708C597.711,503.651 598.098,484.504 597.629,465.472C609.173,461.865 624.472,455.62 636.046,451.287L691.652,430.754C707.558,424.89 722.727,419.09 738.932,414.026C738.955,409.046 738.935,406.114 739.705,401.22C725.444,404.407 711.882,409.627 698.055,414.426C682.904,419.685 666.683,424.958 651.93,431.044C650.974,424.475 650.949,416.791 650.885,410.14C675.941,400.14 718.623,379.044 744.255,376.188ZM405.509,585.908C409.46,585.931 464.105,610.506 470.456,613.219C462.084,615.385 452.122,619.046 443.813,621.838C431.102,626.103 418.333,630.199 405.512,634.123C377.787,642.581 350,650.833 322.152,658.878C305.094,663.739 287.98,668.174 270.912,673.122C257.568,676.576 240.557,681.304 227.284,683.876C233.366,680.872 240.785,678.729 247.162,676.162C261.303,670.472 276.688,665.102 290.631,659.063C297.102,655.532 312.568,651.746 315.342,644.583C318.106,637.448 306.348,635.654 301.384,634.513C310.895,629.589 322.541,624.462 332.341,619.907C356.822,608.771 381.212,597.438 405.509,585.908ZM278.444,192.71C287.45,191.577 303.396,193.313 311.824,196.5C343.759,208.575 374.78,223.551 406.242,236.807C444.111,252.669 481.801,268.957 519.303,285.669C530.736,290.733 542.756,296.973 554.189,301.581C605.725,322.351 655.617,346.741 706.766,368.321C702.764,369.747 698.198,371.808 694.234,373.483C666.165,362.271 637.487,348.828 609.626,336.7C601.261,332.59 590.005,328.04 581.342,324.344L539.786,306.329C493.188,285.398 446.343,265.02 399.261,245.2C378.295,236.418 357.834,227.006 337.106,217.742C316.099,208.353 295.659,199.25 271.998,201.394C245.919,203.756 223.411,217.292 200.98,229.639C195.084,232.877 188.899,236.831 182.888,239.713L182.358,239.963C211.697,217.659 240.805,195.87 278.444,192.71ZM291.576,417.722C302.451,417.533 313.276,419.236 323.567,422.755C335.785,426.817 352.839,434.947 364.878,440.439C376.834,445.79 388.861,450.978 400.958,456.003C441.295,473.112 481.443,490.663 521.394,508.655C543.961,518.693 569.479,529.165 591.137,540.222L579.639,545.856L489.375,505.282C461.94,492.493 435.709,483.283 408.433,471.573L349.931,446.669C318.266,433.179 299.399,422.961 263.461,430.853C234.241,437.27 210.039,456.345 182.864,464.727C219.136,443.148 247.893,419.485 291.576,417.722ZM588.061,589.083C592.105,588.826 597.285,590.191 600.916,592.092C630.133,607.394 621.716,657.183 592.067,666.582C586.59,667.73 580.881,666.711 576.139,663.74C568.422,658.981 564.052,650.363 562.114,641.757C559.044,628.462 561.497,614.49 568.912,603.036C573.682,595.662 579.32,590.936 588.061,589.083ZM587.349,602.069C564.982,608.375 563.899,658.863 591.858,654.416C617.87,646.438 612.029,600.452 587.349,602.069ZM584.992,617.731C593.887,618.361 595.307,632.081 588.219,638.054C577.294,637.551 579.5,623.806 584.992,617.731ZM371.089,569.893C374.783,570.782 389.7,577.95 393.273,579.938C384.773,585.474 364.902,594.055 354.605,598.877C333.286,609.11 311.857,619.113 290.323,628.884C289.616,629.264 287.771,630.248 287.101,630.193C281.868,629.764 273.572,626.987 268.555,625.59C281.938,615.686 308.969,602.644 324.45,594.66C338.597,587.363 357.302,576.155 371.089,569.893ZM468.629,287.701L476.942,291.56C477.316,321.293 477.331,351.03 476.989,380.764L476.829,468.737L476.169,469.352C472.967,467.789 469.703,466.394 466.439,464.967L467.299,347.25L467.798,310.307C467.923,302.786 467.812,295.173 468.629,287.701ZM334.494,230.088C336.657,230.811 342.298,233.667 344.616,234.765L343.978,410.732C342.574,410.858 336.062,407.722 334.378,406.972L334.621,286.061C334.588,267.257 335.041,248.972 334.494,230.088ZM232.82,568.108C245.911,570.885 267.419,589.316 278.828,598.297C273.987,600.956 270.097,603.771 265.73,607.088C260.108,611.32 254.791,616.151 249.492,620.8L232.616,617.162L232.82,568.108ZM576.598,334.419C579.778,335.674 582.976,337.408 586.038,338.976L586.59,457.568L582.771,459.437C580.19,460.803 578.258,461.564 575.577,462.629C576.362,420.286 576.43,376.803 576.598,334.419ZM732.321,641.07C762.589,645.964 758.809,688.591 740.337,704.426C726.838,715.998 714.274,714.063 702.85,701.407C699.134,696.123 698.604,693.906 696.868,687.586C701.053,693.287 706.998,702.229 714.088,702.811C738.008,704.775 750.249,681.221 745.33,660.115C742.842,649.44 740.498,648.737 732.665,641.707C732.551,641.495 732.436,641.283 732.321,641.07ZM221.158,568.383L222.035,568.448C222.863,569.813 222.079,609.631 222.099,615.107C216.694,613.924 209.276,612.978 203.657,612.124C201.804,611.986 199.764,611.724 197.898,611.527C198.332,594.975 205.093,575.615 221.158,568.383ZM639.13,631.072C663.977,640.632 691.488,655.041 716.094,666.043L714.819,672.978C710.017,671.213 704.931,668.96 700.154,667.011C679.287,658.494 658.236,650.379 637.352,641.922C637.992,638.314 638.585,634.696 639.13,631.072ZM639.393,414.555C640.016,416.93 641.503,429.582 642.437,434.123C630.802,439.045 618.69,443.145 606.99,448.031L605.484,448.503L604.917,448.061C604.271,443.597 607.443,433.655 608.951,429.302C614.592,423.67 631.746,417.528 639.393,414.555ZM564.449,456.538C565.251,458.052 565.095,465.297 565.126,467.507C550.794,474.645 534.444,482.476 519.775,488.768L511.282,484.998L505.322,482.343C524.321,473.427 545.014,465.251 564.449,456.538ZM693.783,586.936C693.884,586.955 693.991,586.954 694.085,586.994C698.083,588.718 721.163,645.235 724.025,652.332C721.836,652.094 719.66,651.616 717.496,651.194C717.057,651.09 716.625,650.963 716.2,650.814C715.127,650.438 714.43,650.124 713.884,649.025C708.424,638.027 704.161,626.468 698.711,615.443C694.716,607.361 690.751,599.258 686.814,591.149L693.783,586.936ZM429.673,317.939L429.818,318.997C426.19,328.314 385.28,426.231 383.004,428.194L380.797,427.729L379.711,426.451C379.793,424.487 384.498,414.173 385.587,411.493C393.705,391.131 402.183,370.916 411.017,350.854C414.654,342.567 418.376,333.682 422.441,325.597C424.295,321.911 426.458,320.311 429.673,317.939ZM585.854,470.988C586.939,473.586 586.683,511.349 586.871,517.545L579.66,514.503L575.559,512.692C575.862,500.608 575.627,487.621 575.591,475.472L585.854,470.988ZM565.298,480.49C566.142,482.9 566.629,504.999 566.867,509.138C559.963,506.005 552.757,503.002 545.777,499.998C542.713,498.74 537.99,496.266 534.866,494.761C545.054,490.153 555.059,485.111 565.298,480.49ZM183.847,628.196C197.964,626.827 257.931,641.033 274.191,645.183C266.55,645.021 248.422,642.249 240.46,641.122C222.606,637.898 196.103,631.853 178.426,633.709C171.001,634.488 162.184,638.936 152.68,640.309C161.734,633.985 172.802,629.298 183.847,628.196ZM817.195,472.364C817.572,474.034 816.805,475.161 816.192,476.709C808.384,496.419 768.441,531.921 749.457,539.641C749.773,538.209 753.883,535.648 755.23,534.504C776.37,516.55 802.283,495.968 817.195,472.364ZM549.817,401.935C551.65,401.94 557.027,402.865 559.068,403.174C559.449,412.327 559.171,415.834 557.006,424.708L551.307,422.148L537.928,415.688C542.894,411.165 545.694,407.236 549.817,401.935ZM537.108,385.082C546.245,384.129 551.492,388.403 559.395,392.897C551.465,393.387 548.315,393.593 540.627,395.847C535.017,397.626 530.141,399.426 524.648,401.505C525.47,392.862 529.01,388.188 537.108,385.082ZM734.479,612.504C740.105,613.627 750.235,618.953 756.045,620.892C759.702,622.113 766.072,624.691 769.564,626.311C784.793,633.377 809.3,639.48 822.603,649.605C818.816,648.961 803.416,642.402 798.934,640.609C784.518,634.817 770.136,628.939 755.791,622.974C749.433,620.332 742.654,617.621 736.387,614.765C734.869,614.074 735.054,613.844 734.479,612.504ZM835.452,399.551C842.506,400.241 846.082,401.476 851.178,406.323C849.249,407.805 846.994,409.161 844.929,410.478C841.718,412.217 838.145,413.464 834.718,414.763C833.954,410.387 831.722,402.513 835.452,399.551ZM822.949,404.919C824.169,405.882 825.254,413.946 826.08,416.99C822.16,418.369 818.443,419.933 814.61,421.519C814.015,421.544 813.92,421.429 813.309,421.234C812.124,418.393 811.743,415.097 811.229,412.038C814.963,409.349 818.951,407.191 822.949,404.919ZM561.79,585.132L564.017,584.928L564.33,585.32C555.914,594.783 537.565,597.513 525.106,600.605C524.242,600.872 524.148,600.798 523.223,600.843C524.303,599.68 530.664,597.039 532.43,596.29C541.824,592.311 551.672,586.738 561.79,585.132ZM775.098,413.883C776.628,415.108 785.773,442.895 787.099,447.208C779.716,442.132 776.286,422.331 775.098,413.883ZM791.108,413.884C792.606,415.73 797.509,436.454 798,439.728C791.748,436.09 790.258,420.533 791.108,413.884ZM604.212,564.449C604.731,564.839 604.498,564.556 604.676,565.446C602.775,569.114 602.055,570.378 597.998,570L597.461,569.79L597.314,569.057C599.032,567.312 602.031,565.746 604.212,564.449Z" style="fill:white;"  data-color="color-4"/>
        <path d="M274.275,174.205C309.921,170.818 335.636,185.847 366.977,199.058C405.107,215.279 443.085,231.852 480.909,248.775C564.67,286.111 648.691,322.862 732.965,359.026C751.36,355.582 770.379,358.988 786.435,368.603C784.483,359.14 782.825,348.891 781.674,339.366C779.592,322.136 777.354,296.907 789.913,283.016C814.527,255.79 845.684,298.038 857.466,317.551C867.289,333.82 875.465,350.651 882.179,368.395C886.489,379.938 892.016,395.719 892.746,407.764C888.737,393.507 883.483,380.874 876.561,367.804C862.158,340.613 847.613,313.017 822.726,293.983C832.954,323.498 838.735,354.37 839.879,385.586C854.926,388.761 866.67,398.014 865.066,415.279C864.244,424.13 859.142,428.928 852.696,434.276C867.551,467.252 888.415,505.713 890.122,542.433C891.896,537.045 893.606,532.194 893.728,526.416C894.323,498.339 878.422,459.743 866.858,434.762C880.977,440.139 907.119,453.145 919.307,461.414C944.712,478.651 923.177,501.507 904.858,511.093C907.671,526.617 909.024,563.453 884.678,561.62C872.92,560.735 856.364,542.819 848.974,533.761C830.582,535.012 826.497,532.086 809.886,527.035L810.358,621.638C823.273,627.267 836.143,633.054 848.876,639.058C856.916,642.848 861.915,649.794 857.424,658.501C851.523,670.002 838.581,674.453 827.024,678.425C809.565,684.424 791.15,690.238 773.253,694.896L768.875,696.369C766.07,700.711 763.689,705.123 760.557,709.217C748.078,725.544 726.508,738.015 705.936,729.201C686.806,721.005 679.371,702.813 676.811,683.491C666.647,681.103 637.272,669.146 627.65,664.672C625.428,667.461 623.409,670.017 620.86,672.47C596.716,695.703 561.915,689.808 549.635,657.754C547.224,651.461 546.126,646.778 544.688,640.266C539.211,641.939 532.561,643.422 526.893,644.918C515.015,648.114 503.118,651.239 491.203,654.292C463.468,661.618 435.487,667.976 407.311,673.355C392.562,676.272 378.014,679.285 363.089,681.233C363.538,681.92 363.98,682.593 364.358,683.311C366.281,686.964 366.957,691.625 365.488,695.546C363.607,700.569 359.301,703.592 354.619,705.6C318.732,720.994 310.012,715.744 276.105,703.001C273.899,707.389 269.23,714.498 266.531,718.886C266.669,726.359 266.054,732.789 260.381,738.47C256.926,741.947 252.219,743.89 247.317,743.863C242.896,743.862 238.66,742.089 235.557,738.941C224.329,727.369 232.228,706 251.219,706.165C252.567,704.245 253.879,702.196 255.178,700.232C234.715,696.48 221.894,705.398 203.993,696.988C194.141,692.359 189.649,685.148 186.119,675.251C173.686,672.776 132.404,660.924 122.998,654.496C120.336,652.679 118.525,649.86 117.978,646.684C117.549,644.193 117.994,641.666 119.553,639.639C123.96,633.907 157.437,616.561 165.431,613.709C170.481,611.908 175.64,611.113 180.918,610.331C181.294,596.733 186.939,577.194 196.046,566.767C204.428,557.171 214.761,551.196 227.52,550.094C246.094,548.489 260.98,561.496 274.56,572.623C281.431,578.221 288.255,583.876 295.031,589.589C311.585,579.864 328.588,570.535 345.238,560.868C340.849,558.596 335.768,556.395 331.217,554.433C296.969,539.664 262.937,523.823 228.59,509.366C217.443,504.773 206.343,500.065 195.293,495.245C183.7,490.192 170.8,486.342 165.592,473.764C159.32,458.619 171.167,448.991 182.884,442.287C203.621,430.422 224.109,416.82 246.265,407.792C245.345,377.491 246.368,344.381 246.511,313.728C231.957,306.824 217.076,300.508 202.362,293.948C191.748,289.216 179.761,284.924 170.625,277.639C163.817,272.209 158.301,264.293 157.45,255.443C156.57,246.305 161.119,237.208 166.895,230.399C179.447,215.602 221.701,189.313 240.114,182.139C251.22,177.811 262.415,175.233 274.275,174.205ZM791.108,413.884C790.258,420.533 791.748,436.09 798,439.728C797.509,436.454 792.606,415.73 791.108,413.884ZM263.123,320.677C262.811,347.059 262.656,375.992 263.083,402.381C282.999,399.296 302.558,397.223 322.395,403.01L323.609,403.212C324.397,401.62 324.007,354.77 324.165,348.707C304.31,339.537 283.084,329.381 263.123,320.677ZM775.098,413.883C776.286,422.331 779.716,442.132 787.099,447.208C785.773,442.895 776.628,415.108 775.098,413.883ZM732.758,574.859C730.666,577.657 727.937,581.015 726.539,584.128L726.768,584.892L727.978,585.469L732.844,587.556C732.895,584.212 733.169,577.948 732.758,574.859ZM232.82,568.108L232.616,617.162L249.492,620.8C254.791,616.151 260.108,611.32 265.73,607.088C270.097,603.771 273.987,600.956 278.828,598.297C267.419,589.316 245.911,570.885 232.82,568.108ZM564.449,456.538C545.014,465.251 524.321,473.427 505.322,482.343L511.282,484.998L519.775,488.768C534.444,482.476 550.794,474.645 565.126,467.507C565.095,465.297 565.251,458.052 564.449,456.538ZM549.817,401.935C545.694,407.236 542.894,411.165 537.928,415.688L551.307,422.148L557.006,424.708C559.171,415.834 559.449,412.327 559.068,403.174C557.027,402.865 551.65,401.94 549.817,401.935ZM221.158,568.383C205.093,575.615 198.332,594.975 197.898,611.527C199.764,611.724 201.804,611.986 203.657,612.124C209.276,612.978 216.694,613.924 222.099,615.107C222.079,609.631 222.863,569.813 222.035,568.448L221.158,568.383ZM486.859,418.937C486.713,435.599 487.109,454.849 486.473,471.302C491.091,469.364 502.125,465.067 505.224,460.538C505.517,460.109 505.812,458.454 505.914,457.885C508.641,446.994 510.929,440.043 520.858,433.912C509.181,429.328 498.139,423.514 486.859,418.937ZM429.673,317.939C426.458,320.311 424.295,321.911 422.441,325.597C418.376,333.682 414.654,342.567 411.017,350.854C402.183,370.916 393.705,391.131 385.587,411.493C384.498,414.173 379.793,424.487 379.711,426.451L380.797,427.729L383.004,428.194C385.28,426.231 426.19,328.314 429.818,318.997L429.673,317.939ZM405.509,585.908C381.212,597.438 356.822,608.771 332.341,619.907C322.541,624.462 310.895,629.589 301.384,634.513C306.348,635.654 318.106,637.448 315.342,644.583C312.568,651.746 297.102,655.532 290.631,659.063C276.688,665.102 261.303,670.472 247.162,676.162C240.785,678.729 233.366,680.872 227.284,683.876C240.557,681.304 257.568,676.576 270.912,673.122C287.98,668.174 305.094,663.739 322.152,658.878C350,650.833 377.787,642.581 405.512,634.123C418.333,630.199 431.102,626.103 443.813,621.838C452.122,619.046 462.084,615.385 470.456,613.219C464.105,610.506 409.46,585.931 405.509,585.908ZM585.854,470.988L575.591,475.472C575.627,487.621 575.862,500.608 575.559,512.692L579.66,514.503L586.871,517.545C586.683,511.349 586.939,473.586 585.854,470.988ZM839.931,441.554C836.026,442.79 833.102,443.773 828.998,444.187C833.859,458.059 838.196,469.231 844.771,482.394C852.691,498.25 859.74,513.826 868.439,529.339C870.302,532.068 871.825,534.353 873.962,536.881C870.605,530.114 867.381,523.56 864.68,516.499C859.376,502.632 854.211,488.657 849.863,474.457C846.593,463.777 843.851,452.906 840.73,442.181C840.464,441.972 840.198,441.763 839.931,441.554ZM822.949,404.919C818.951,407.191 814.963,409.349 811.229,412.038C811.743,415.097 812.124,418.393 813.309,421.234C813.92,421.429 814.015,421.544 814.61,421.519C818.443,419.933 822.16,418.369 826.08,416.99C825.254,413.946 824.169,405.882 822.949,404.919ZM537.108,385.082C529.01,388.188 525.47,392.862 524.648,401.505C530.141,399.426 535.017,397.626 540.627,395.847C548.315,393.593 551.465,393.387 559.395,392.897C551.492,388.403 546.245,384.129 537.108,385.082ZM291.576,417.722C247.893,419.485 219.136,443.148 182.864,464.727C210.039,456.345 234.241,437.27 263.461,430.853C299.399,422.961 318.266,433.179 349.931,446.669L408.433,471.573C435.709,483.283 461.94,492.493 489.375,505.282L579.639,545.856L591.137,540.222C569.479,529.165 543.961,518.693 521.394,508.655C481.443,490.663 441.295,473.112 400.958,456.003C388.861,450.978 376.834,445.79 364.878,440.439C352.839,434.947 335.785,426.817 323.567,422.755C313.276,419.236 302.451,417.533 291.576,417.722ZM639.13,631.072C638.585,634.696 637.992,638.314 637.352,641.922C658.236,650.379 679.287,658.494 700.154,667.011C704.931,668.96 710.017,671.213 714.819,672.978L716.094,666.043C691.488,655.041 663.977,640.632 639.13,631.072ZM588.061,589.083C579.32,590.936 573.682,595.662 568.912,603.036C561.497,614.49 559.044,628.462 562.114,641.757C564.052,650.363 568.422,658.981 576.139,663.74C580.881,666.711 586.59,667.73 592.067,666.582C621.716,657.183 630.133,607.394 600.916,592.092C597.285,590.191 592.105,588.826 588.061,589.083ZM587.349,602.069C612.029,600.452 617.87,646.438 591.858,654.416C563.899,658.863 564.982,608.375 587.349,602.069ZM584.992,617.731C579.5,623.806 577.294,637.551 588.219,638.054C595.307,632.081 593.887,618.361 584.992,617.731ZM278.444,192.71C240.805,195.87 211.697,217.659 182.358,239.963L182.888,239.713C188.899,236.831 195.084,232.877 200.98,229.639C223.411,217.292 245.919,203.756 271.998,201.394C295.659,199.25 316.099,208.353 337.106,217.742C357.834,227.006 378.295,236.418 399.261,245.2C446.343,265.02 493.188,285.398 539.786,306.329L581.342,324.344C590.005,328.04 601.261,332.59 609.626,336.7C637.487,348.828 666.165,362.271 694.234,373.483C698.198,371.808 702.764,369.747 706.766,368.321C655.617,346.741 605.725,322.351 554.189,301.581C542.756,296.973 530.736,290.733 519.303,285.669C481.801,268.957 444.111,252.669 406.242,236.807C374.78,223.551 343.759,208.575 311.824,196.5C303.396,193.313 287.45,191.577 278.444,192.71ZM561.79,585.132C551.672,586.738 541.824,592.311 532.43,596.29C530.664,597.039 524.303,599.68 523.223,600.843C524.148,600.798 524.242,600.872 525.106,600.605C537.565,597.513 555.914,594.783 564.33,585.32L564.017,584.928L561.79,585.132ZM794.815,526.439C787.741,531.318 779.357,538.426 772.451,543.875C764.795,549.858 756.968,555.619 748.979,561.15C749.001,572.205 748.88,583.607 749.055,594.632L764.843,601.377C773.925,605.346 786.444,611.193 795.444,614.528C795.324,606.556 795.287,527.222 794.815,526.439ZM413.161,386.713C407.747,400.78 400.401,419.627 393.842,432.932C410.804,441.068 426.5,447.561 443.375,455.193C447.565,456.987 451.955,458.79 456.06,460.736L456.057,405.104C441.813,398.848 427.514,392.717 413.161,386.713ZM183.847,628.196C172.802,629.298 161.734,633.985 152.68,640.309C162.184,638.936 171.001,634.488 178.426,633.709C196.103,631.853 222.606,637.898 240.46,641.122C248.422,642.249 266.55,645.021 274.191,645.183C257.931,641.033 197.964,626.827 183.847,628.196ZM734.479,612.504C735.054,613.844 734.869,614.074 736.387,614.765C742.654,617.621 749.433,620.332 755.791,622.974C770.136,628.939 784.518,634.817 798.934,640.609C803.416,642.402 818.816,648.961 822.603,649.605C809.3,639.48 784.793,633.377 769.564,626.311C766.072,624.691 759.702,622.113 756.045,620.892C750.235,618.953 740.105,613.627 734.479,612.504ZM693.783,586.936L686.814,591.149C690.751,599.258 694.716,607.361 698.711,615.443C704.161,626.468 708.424,638.027 713.884,649.025C714.43,650.124 715.127,650.438 716.2,650.814C716.625,650.963 717.057,651.09 717.496,651.194C719.66,651.616 721.836,652.094 724.025,652.332C721.163,645.235 698.083,588.718 694.085,586.994C693.991,586.954 693.884,586.955 693.783,586.936ZM371.089,569.893C357.302,576.155 338.597,587.363 324.45,594.66C308.969,602.644 281.938,615.686 268.555,625.59C273.572,626.987 281.868,629.764 287.101,630.193C287.771,630.248 289.616,629.264 290.323,628.884C311.857,619.113 333.286,609.11 354.605,598.877C364.902,594.055 384.773,585.474 393.273,579.938C389.7,577.95 374.783,570.782 371.089,569.893ZM565.298,480.49C555.059,485.111 545.054,490.153 534.866,494.761C537.99,496.266 542.713,498.74 545.777,499.998C552.757,503.002 559.963,506.005 566.867,509.138C566.629,504.999 566.142,482.9 565.298,480.49ZM604.212,564.449C602.031,565.746 599.032,567.312 597.314,569.057L597.461,569.79L597.998,570C602.055,570.378 602.775,569.114 604.676,565.446C604.498,564.556 604.731,564.839 604.212,564.449ZM334.494,230.088C335.041,248.972 334.588,267.257 334.621,286.061L334.378,406.972C336.062,407.722 342.574,410.858 343.978,410.732L344.616,234.765C342.298,233.667 336.657,230.811 334.494,230.088ZM468.629,287.701C467.812,295.173 467.923,302.786 467.798,310.307L467.299,347.25L466.439,464.967C469.703,466.394 472.967,467.789 476.169,469.352L476.829,468.737L476.989,380.764C477.331,351.03 477.316,321.293 476.942,291.56L468.629,287.701ZM576.598,334.419C576.43,376.803 576.362,420.286 575.577,462.629C578.258,461.564 580.19,460.803 582.771,459.437L586.59,457.568L586.038,338.976C582.976,337.408 579.778,335.674 576.598,334.419ZM639.393,414.555C631.746,417.528 614.592,423.67 608.951,429.302C607.443,433.655 604.271,443.597 604.917,448.061L605.484,448.503L606.99,448.031C618.69,443.145 630.802,439.045 642.437,434.123C641.503,429.582 640.016,416.93 639.393,414.555ZM355.227,360.929C355.796,378.251 355.845,399.439 355.464,416.789C359.68,418.63 364.707,420.987 368.938,422.603C370.937,418.116 373.121,413.427 374.997,408.911C379.247,399.331 385.556,386.205 389.162,376.692L355.227,360.929ZM835.452,399.551C831.722,402.513 833.954,410.387 834.718,414.763C838.145,413.464 841.718,412.217 844.929,410.478C846.994,409.161 849.249,407.805 851.178,406.323C846.082,401.476 842.506,400.241 835.452,399.551ZM744.255,376.188C718.623,379.044 675.941,400.14 650.885,410.14C650.949,416.791 650.974,424.475 651.93,431.044C666.683,424.958 682.904,419.685 698.055,414.426C711.882,409.627 725.444,404.407 739.705,401.22C738.935,406.114 738.955,409.046 738.932,414.026C722.727,419.09 707.558,424.89 691.652,430.754L636.046,451.287C624.472,455.62 609.173,461.865 597.629,465.472C598.098,484.504 597.711,503.651 597.91,522.708C605.61,526.365 613.34,529.959 621.1,533.487C657.196,517.233 692.123,496.854 725.792,476.069C733.933,471.044 742.357,465.906 750.294,460.594L755.871,456.922L759.515,464.039C732.857,483.001 705.559,501.048 677.669,518.146C671.097,522.174 664.423,526.032 657.653,529.717C652.361,532.617 630.822,543.615 627.189,546.967C623.853,550.044 615.392,570.942 613.882,576.188L620.563,581.083C623.545,575.676 632.661,556.684 635.522,553.608C638.331,550.588 658.06,540.436 662.765,537.788C674.234,531.224 685.585,524.457 696.813,517.489C720.871,502.528 744.515,485.553 767.408,468.852C760.518,448.404 753.411,434.202 751.549,411.745C748.683,377.176 772.682,389.257 791.64,401.026C781.89,384.106 764.111,373.585 744.255,376.188ZM802.069,296.8C800.202,301.61 798.328,306.989 797.729,312.148C795.012,335.558 800.426,373.124 809.492,394.674C811.828,393.378 814.481,391.829 816.837,390.648C819.426,389.562 821.814,388.522 824.489,387.643C822.504,382.072 820.846,376.39 819.523,370.625C817.402,361.634 805.112,301.01 802.069,296.8ZM732.321,641.07C732.436,641.283 732.551,641.495 732.665,641.707C740.498,648.737 742.842,649.44 745.33,660.115C750.249,681.221 738.008,704.775 714.088,702.811C706.998,702.229 701.053,693.287 696.868,687.586C698.604,693.906 699.134,696.123 702.85,701.407C714.274,714.063 726.838,715.998 740.337,704.426C758.809,688.591 762.589,645.964 732.321,641.07ZM817.195,472.364C802.283,495.968 776.37,516.55 755.23,534.504C753.883,535.648 749.773,538.209 749.457,539.641C768.441,531.921 808.384,496.419 816.192,476.709C816.805,475.161 817.572,474.034 817.195,472.364Z" style="fill:rgb(143,45,0);"  data-color="color-1"/>
        <path d="M535.979,687.114C540.545,687.103 543.661,688.192 547.815,689.832C551.297,691.205 570.077,698.316 567.581,703.216C563.675,705.495 542.51,711.749 536.855,713.66C509.92,722.935 482.929,732.048 455.883,740.998C358.688,773.605 261.268,805.537 163.63,836.792C159.159,838.279 142.48,843.469 138.525,842.254L138.539,841.48C142.019,837.98 165.679,828.802 171.648,826.277C219.981,806.107 268.628,786.696 317.571,768.051C372.634,746.563 427.93,725.678 483.45,705.398L515.197,693.877C520.714,691.889 530.392,688.187 535.979,687.114ZM582.957,736.669C602.118,736.575 590.455,749.54 580.131,753.06C567.618,757.327 555.057,761.188 542.429,765.082L460.162,789.955C407.889,806.019 356.049,823.487 303.373,838.215C291.934,841.413 280.614,845.018 269.115,848.019C266.49,848.63 262.608,850.096 260.343,848.361L260.326,847.339C269.681,836.473 491.285,765.666 522.478,755.602C534.041,751.895 545.585,748.126 557.108,744.294C563.978,742.01 576.114,737.475 582.957,736.669ZM215.174,720.932L215.601,721.047C216.92,722.498 216.932,729.609 219.436,734.844C199.93,742.298 178.16,749.536 158.381,756.431C136.469,764.069 111.548,772.759 89.199,778.469C87.438,778.837 86.93,779.04 85.109,778.808L84.844,778.184C88.831,774.408 120.056,761.771 126.804,758.718C155.887,745.558 185.556,732.864 215.174,720.932ZM218.422,525.101C219.633,525.028 219.237,525.032 220.455,525.355C221.455,527.117 220.834,531.563 219.753,532.683C213.507,539.147 196.219,545.395 188.435,548.793C168.031,557.813 147.389,566.283 126.531,574.194C112.856,579.458 89.102,589.195 75.772,592.433C74.248,592.665 74.916,592.841 73.663,592.26C76.891,587.749 149.763,554.518 159.726,549.831C170.569,544.729 207.872,527.356 218.422,525.101ZM149.973,684.582C153.401,684.379 162.492,684.751 164.24,688.184L163.811,689.194C157.091,694.861 92.107,717.31 80.622,720.682C76.2,721.924 71.771,723.136 67.333,724.317C74.23,718.317 141.973,686.766 149.973,684.582Z" style="fill:rgb(88,153,77);"  data-color="color-3"/>
    </g>
</svg>
