<?xml version="1.0" encoding="UTF-8" standalone="no"?>
<!DOCTYPE svg PUBLIC "-//W3C//DTD SVG 1.1//EN" "http://www.w3.org/Graphics/SVG/1.1/DTD/svg11.dtd">
<svg width="100%" height="100%" viewBox="0 0 920 995" version="1.1" xmlns="http://www.w3.org/2000/svg" xmlns:xlink="http://www.w3.org/1999/xlink" xml:space="preserve" xmlns:serif="http://www.serif.com/" style="fill-rule:evenodd;clip-rule:evenodd;stroke-linejoin:round;stroke-miterlimit:2;">
    <g transform="matrix(1,0,0,1,-52.3393,-274.373)">
        <path d="M511.997,274.373C515.265,278.22 529.678,306.143 532.578,311.819C580.945,406.481 606.518,518.394 617.749,623.621C714.504,678.342 810.105,735.398 906.414,790.922C928.337,803.562 950.539,816.268 972.177,829.372L972.217,963.099L599.272,953.833C595.306,973.764 588.717,1005.71 583.078,1024.62L691.661,1105.74L691.61,1195.35C645.757,1185.64 599.798,1176.43 553.742,1167.73C544.391,1196.24 534.639,1223.69 521.653,1250.78C519.428,1255.42 514.793,1265.57 511.831,1269.28C493.622,1234.59 482.184,1203.93 469.858,1167.12C423.969,1176.24 378.148,1185.7 332.398,1195.5L332.407,1105.61L441.381,1024.65C435.019,1003.07 429.506,975.307 424.885,953.321C381.598,955.268 336.392,955.758 292.909,956.891L52.339,963.062L52.387,829.418L405.72,623.918C417.46,526.712 436.125,433.161 476.479,343.232C487.068,319.636 499.592,297.043 511.997,274.373ZM84.662,861.677L84.668,928.751C151.705,921.91 218.606,913.789 285.333,904.395C329.884,898.242 377.609,891.686 421.739,883.919C407.641,825.515 400.763,765.602 401.259,705.524C401.279,691.617 401.218,677.831 401.776,663.933L190.614,785.731C166.734,799.379 142.931,813.161 119.204,827.075C109.864,832.512 92.955,841.676 84.656,847.358L84.662,861.677ZM512.283,1192.35C516.371,1183.81 522.696,1159.02 525.291,1149.39C534.315,1117 542.419,1084.35 549.59,1051.5C577.498,923.173 606.014,792.067 598.306,660.005C596.116,622.478 590.536,574.378 582.477,537.735C567.152,520.595 549.655,504.356 533.943,487.477C527.198,480.231 519.364,472.115 512.126,465.471C488.552,489.364 465.7,513.967 442.264,537.963C430.429,596.546 424.602,656.184 424.875,715.949C425.529,806.892 441.11,893.709 459.891,982.329C470.203,1031.97 481.691,1081.36 494.346,1130.46C499.752,1151.19 506.029,1171.61 511.425,1192L512.19,1192.51L512.283,1192.35ZM512.171,495.051C515.435,498.027 521.331,509.015 523.755,513.297C542.721,546.804 554.148,582.83 556.263,621.354C558.144,655.63 545.427,685.393 527.608,714.008C524.232,719.428 516.428,731.451 512.172,736.462C496.968,717.877 472.903,673.137 469.564,649.207C462.254,596.821 482.358,537.428 512.171,495.051ZM512.24,615.304C516.916,619.678 531.176,630.393 536.447,633.698C536.775,605.383 529.01,576.585 519.203,550.253C518.027,547.095 513.633,534.616 511.189,533.486C497.739,563.806 487.043,601.296 487.649,634.682C495.417,628.593 504.809,621.579 512.24,615.304ZM512.177,435.645C533.748,458.172 556.542,480.627 578.496,502.915C566.645,460.321 554.168,417.939 536.053,377.502C533.282,371.317 515.006,329.616 511.275,327.914C479.386,388.44 462.867,438.49 445.563,504.163C466.139,481.933 490.633,457.019 512.177,435.645ZM666.049,1118.18C637.126,1096.96 608.357,1075.52 579.744,1053.88C577.39,1065.37 572.471,1083.05 569.06,1094.37C565.449,1109.04 560.86,1124.12 556.626,1138.68C591.482,1145.17 631.617,1151.94 665.875,1159.89C665.933,1151.93 666.798,1123.98 666.049,1118.18ZM357.818,1135.71C358.211,1143.42 358.039,1151.58 358.001,1159.33C394.649,1151.33 431.244,1145.08 467.69,1137.48C463.204,1122.94 458.966,1108.33 454.979,1093.65C450.995,1081.3 447.582,1067.22 444.272,1054.55L388.042,1095.98C379.49,1102.24 365.802,1111.6 357.962,1118.18C357.953,1123.36 358.138,1130.69 357.818,1135.71ZM938.749,928.61C939.449,924.688 939.175,908.846 939.169,903.899L938.94,846.76C926.617,838.795 910.961,830.159 897.979,822.543L815.36,774.541C751.694,737.221 687.793,700.301 623.661,663.785C623.512,678.035 623.442,692.285 623.45,706.535C623.004,729.462 622.982,753.433 620.468,776.18C616.515,811.956 611.396,848.84 602.944,883.889C685.575,897.3 768.476,908.991 851.593,918.955L938.749,928.61Z" style="fill:rgb(10,56,104);"/>
        <path d="M511.189,533.486C513.633,534.616 518.027,547.095 519.203,550.253C529.01,576.585 536.775,605.383 536.447,633.698C531.176,630.393 516.916,619.678 512.24,615.304C511.816,597.766 512.279,580.225 512.205,562.724C512.178,556.161 512.668,539.157 511.189,533.486ZM623.45,706.535C623.442,692.285 623.512,678.035 623.661,663.785C687.793,700.301 751.694,737.221 815.36,774.541L897.979,822.543C910.961,830.159 926.617,838.795 938.94,846.76L939.169,903.899C939.175,908.846 939.449,924.688 938.749,928.61C938.037,922.008 938.299,910.303 938.296,903.381L938.325,860.915C856.826,821.299 776.163,779.365 694.099,740.778C678.023,733.023 661.996,725.167 646.018,717.212C640.538,714.521 628.88,708.433 623.45,706.535ZM84.662,861.677L84.656,847.358C92.955,841.676 109.864,832.512 119.204,827.075C142.931,813.161 166.734,799.379 190.614,785.731L401.776,663.933C401.218,677.831 401.279,691.617 401.259,705.524C397.77,706.548 381.198,715.106 376.596,717.395L324.029,743.317C271.774,768.745 219.652,794.445 167.665,820.417L112.18,847.973C103.733,852.17 92.739,857.226 84.662,861.677ZM511.275,327.914C515.006,329.616 533.282,371.317 536.053,377.502C554.168,417.939 566.645,460.321 578.496,502.915C556.542,480.627 533.748,458.172 512.177,435.645C511.499,411.823 512.38,387.165 512.142,363.316C512.061,355.214 512.729,334.832 511.275,327.914ZM512.283,1192.35L512.19,1192.51L511.425,1192C506.029,1171.61 499.752,1151.19 494.346,1130.46C481.691,1081.36 470.203,1031.97 459.891,982.329C441.11,893.709 425.529,806.892 424.875,715.949C424.602,656.184 430.429,596.546 442.264,537.963C465.7,513.967 488.552,489.364 512.126,465.471C512.022,473.798 512.721,487.499 512.171,495.051C482.358,537.428 462.254,596.821 469.564,649.207C472.903,673.137 496.968,717.877 512.172,736.462C512.716,753.241 512.23,772.146 512.222,789.066L512.242,887.838L512.283,1192.35Z" style="fill:rgb(48,116,154);"/>
        <path d="M512.126,465.471C519.364,472.115 527.198,480.231 533.943,487.477C549.655,504.356 567.152,520.595 582.477,537.735C590.536,574.378 596.116,622.478 598.306,660.005C606.014,792.067 577.498,923.173 549.59,1051.5C542.419,1084.35 534.315,1117 525.291,1149.39C522.696,1159.02 516.371,1183.81 512.283,1192.35L512.242,887.838L512.222,789.066C512.23,772.146 512.716,753.241 512.172,736.462C516.428,731.451 524.232,719.428 527.608,714.008C545.427,685.393 558.144,655.63 556.263,621.354C554.148,582.83 542.721,546.804 523.755,513.297C521.331,509.015 515.435,498.027 512.171,495.051C512.721,487.499 512.022,473.798 512.126,465.471ZM666.049,1118.18C666.798,1123.98 665.933,1151.93 665.875,1159.89C631.617,1151.94 591.482,1145.17 556.626,1138.68C560.86,1124.12 565.449,1109.04 569.06,1094.37L665.551,1135.09C665.611,1131.38 665.581,1121.34 666.049,1118.18ZM454.979,1093.65C458.966,1108.33 463.204,1122.94 467.69,1137.48C431.244,1145.08 394.649,1151.33 358.001,1159.33C358.039,1151.58 358.211,1143.42 357.818,1135.71C358.332,1136.21 358.712,1136.29 359.403,1136.62C389.974,1121.48 424.899,1108.81 454.979,1093.65Z" style="fill:rgb(22,72,118);"/>
        <path d="M512.24,615.304C504.809,621.579 495.417,628.593 487.649,634.682C487.043,601.296 497.739,563.806 511.189,533.486C512.668,539.157 512.178,556.161 512.205,562.724C512.279,580.225 511.816,597.766 512.24,615.304ZM401.259,705.524C400.763,765.602 407.641,825.515 421.739,883.919C377.609,891.686 329.884,898.242 285.333,904.395C218.606,913.789 151.705,921.91 84.668,928.751L84.662,861.677C92.739,857.226 103.733,852.17 112.18,847.973L167.665,820.417C219.652,794.445 271.774,768.745 324.029,743.317L376.596,717.395C381.198,715.106 397.77,706.548 401.259,705.524ZM512.177,435.645C490.633,457.019 466.139,481.933 445.563,504.163C462.867,438.49 479.386,388.44 511.275,327.914C512.729,334.832 512.061,355.214 512.142,363.316C512.38,387.165 511.499,411.823 512.177,435.645ZM938.749,928.61L851.593,918.955C768.476,908.991 685.575,897.3 602.944,883.889C611.396,848.84 616.515,811.956 620.468,776.18C622.982,753.433 623.004,729.462 623.45,706.535C628.88,708.433 640.538,714.521 646.018,717.212C661.996,725.167 678.023,733.023 694.099,740.778C776.163,779.365 856.826,821.299 938.325,860.915L938.296,903.381C938.299,910.303 938.037,922.008 938.749,928.61ZM569.06,1094.37C572.471,1083.05 577.39,1065.37 579.744,1053.88C608.357,1075.52 637.126,1096.96 666.049,1118.18C665.581,1121.34 665.611,1131.38 665.551,1135.09L569.06,1094.37ZM357.818,1135.71C358.138,1130.69 357.953,1123.36 357.962,1118.18C365.802,1111.6 379.49,1102.24 388.042,1095.98L444.272,1054.55C447.582,1067.22 450.995,1081.3 454.979,1093.65C424.899,1108.81 389.974,1121.48 359.403,1136.62C358.712,1136.29 358.332,1136.21 357.818,1135.71Z" style="fill:rgb(70,146,182);"/>
    </g>
</svg>
