<svg width="100%" height="100%" viewBox="0 0 984 698" version="1.1" xmlns="http://www.w3.org/2000/svg" xmlns:xlink="http://www.w3.org/1999/xlink" xml:space="preserve" xmlns:serif="http://www.serif.com/" style="fill-rule:evenodd;clip-rule:evenodd;stroke-linejoin:round;stroke-miterlimit:2;">
    <g transform="matrix(1,0,0,1,-18.9405,-105.076)">
        <path d="M718.013,391.933C719.75,392.083 721.488,392.232 723.224,392.376C742.888,394.009 753.693,405.792 767.215,418.618C776.173,427.076 785.087,435.582 793.953,444.137C793.984,444.167 794.015,444.197 794.046,444.228C796.376,446.512 799.432,449.904 802.244,452.508C824.433,454.663 846.949,456.285 869.039,458.437C875.872,459.102 895.761,460.167 909.59,461.958C917.75,463.015 924.285,464.672 927.306,466.142C960.857,482.462 983.106,521.598 997.42,554.392C1004.48,570.562 1003.71,584.086 998.254,594.986C994.566,602.352 988.431,608.797 979.904,613.895C980.249,617.84 980.435,621.798 980.464,625.76C980.464,625.806 980.464,625.851 980.464,625.897C980.376,687.498 942.735,745.233 896.613,783.241C873.033,802.672 868.629,802.233 838.745,802.249L838.725,802.249L811.146,802.228L717.541,802.238L338.877,802.206L144.084,802.262C144.073,802.262 144.062,802.262 144.051,802.262C113.818,802.21 103.224,795.456 80.91,773.753C56.924,750.425 36.467,713.413 34.114,678.718C32.835,677.426 31.615,676.097 30.552,674.755C21.134,662.868 17.988,647.149 19.182,630.376C20.381,613.536 25.955,595.57 30.837,581.424C28.069,577.007 26.646,573.003 25.985,569.185C24.604,561.205 26.871,553.236 31.817,541.361C33.087,538.311 34.408,534.966 35.62,531.873C40.654,518.776 45.956,505.782 51.522,492.901C60.882,471.02 70.519,450.998 95.83,444.377C105.022,441.972 114.442,439.219 123.605,436.639C123.605,436.639 178.671,421.012 178.671,421.012C176.123,415.339 175.48,408.409 177.61,399.699C179.626,391.459 182.188,383.548 184.678,375.44L184.686,375.416L197.858,332.769L211.696,287.971L211.704,287.944C217.879,268.078 220.741,259.197 226.012,253.034C231.465,246.658 239.745,242.449 259.54,234.508C259.54,234.508 292.596,221.178 292.595,221.179C292.798,219.728 293.028,218.275 293.299,216.819C295.457,205.224 301.859,197.648 310.458,192.263C318.368,187.31 328.916,184.956 337.099,181.17C340.408,179.639 349.015,177.742 352.623,177.706C352.647,177.706 352.671,177.705 352.695,177.705C379.495,177.557 406.723,176.853 433.479,177.876C442.672,178.228 453.598,182.692 462.768,189.767C468.479,194.174 473.438,199.527 477.049,205.062C487.358,206.362 498.495,207.436 508.415,208.639C534.504,211.74 560.575,214.993 586.626,218.4L613.956,221.697C627.372,223.312 632.478,223.351 641.307,228.174L737.14,183.413L737.161,183.404L769.265,168.465C773.406,166.53 778.021,164.458 782.171,162.359C783.691,160.965 785.074,158.545 786.149,156.998C792.154,148.128 800.64,143.65 810.029,139.296C831.825,129.19 853.236,118.154 875.175,108.376C879.068,106.64 882.883,105.837 887.069,105.299C887.425,105.254 887.782,105.22 888.14,105.198C918.414,103.366 943.269,122.398 956.782,148.269C967.135,168.09 971.45,196.78 964.916,220.557C960.03,238.338 949.39,253.43 931.962,261.745C920.079,267.414 907.183,272.233 895.127,277.628C895.027,277.673 894.927,277.716 894.827,277.759C885.648,281.643 875.271,286.868 866.094,290.116C862.317,291.476 858.4,292.408 854.415,292.895C854.382,292.899 854.348,292.903 854.315,292.907C846.296,293.835 840.087,292.701 833.207,290.641C793.438,308.239 753.804,326.138 714.308,344.338C716.459,350.015 718.552,355.73 720.505,361.324C724.391,372.456 722.78,382.575 718.013,391.933ZM889.106,121.169C886.504,121.503 884.11,121.91 881.69,122.989C859.823,132.735 838.484,143.739 816.759,153.812C810.039,156.928 803.628,159.663 799.348,166.043C797.193,169.076 793.879,173.742 790.805,175.913C786.153,178.332 780.787,180.741 776.021,182.968L743.911,197.91L640.268,246.318C628.612,238.527 625.549,239.208 612.043,237.582L584.631,234.275C558.61,230.872 532.568,227.622 506.509,224.525C493.808,222.984 479.131,221.646 466.679,219.795C462.543,207.589 445.591,194.351 432.867,193.864C406.343,192.85 379.351,193.558 352.784,193.705C350.701,193.726 345.728,194.807 343.817,195.691C331.126,201.563 312.108,203.204 309.029,219.746C308.237,224.003 307.851,228.232 307.396,232.462L265.513,249.351C233.722,262.104 237.237,259.703 226.983,292.693L213.145,337.491L199.973,380.138C197.574,387.948 195.094,395.564 193.152,403.501C189.504,418.414 201.402,423.159 212.722,427.98L127.96,452.035C118.697,454.643 109.172,457.425 99.879,459.856C79.93,465.075 73.598,481.973 66.221,499.221C60.73,511.927 55.5,524.745 50.535,537.665C49.278,540.873 47.906,544.346 46.587,547.512C40.918,561.124 38.073,566.74 48.784,578.608C40.619,601.643 25.493,642.608 43.093,664.819C45.004,667.232 47.603,669.539 49.889,671.619C49.663,704.213 69.269,740.112 92.065,762.283C110.513,780.226 119.084,786.219 144.079,786.262L338.875,786.206L717.539,786.238L811.151,786.228L838.737,786.249C863.323,786.236 867.038,786.88 886.438,770.893C929.038,735.788 964.383,682.771 964.464,625.874C964.413,618.705 963.78,611.552 962.571,604.485C983.253,596.758 992.163,582.343 982.756,560.793C969.841,531.204 950.579,495.255 920.308,480.53C913.083,477.016 877.129,475.3 867.489,474.362C843.79,472.053 819.602,470.353 795.853,467.953C791.89,465.128 786.525,459.262 782.843,455.651C774.013,447.131 765.136,438.66 756.214,430.236C745.465,420.041 737.53,409.619 721.9,408.321C710.527,407.376 699.126,406.266 687.728,405.391C697.175,394.083 710.798,382.065 705.399,366.597C701.88,356.518 697.897,346.039 693.944,336.119C739.878,314.855 785.999,293.998 832.301,273.548C839.418,275.926 844.813,277.9 852.475,277.013C855.275,276.671 858.027,276.016 860.68,275.06C869.617,271.902 879.68,266.795 888.591,263.024C900.53,257.681 913.305,252.918 925.072,247.304C957.658,231.757 957.077,183.393 942.6,155.676C931.985,135.353 912.888,119.73 889.106,121.169Z" style="fill:rgb(5,43,71);"  data-color="color-3"/>
        <path d="M890.262,135.589C904.765,134.387 913.541,141.053 923.262,151.268C941.121,167.819 946.73,217.517 923.556,231.863C906.558,242.387 876.483,251.505 857.764,260.886C849.406,265.074 841.003,260.997 833.207,257.397C780.967,280.828 728.977,304.811 677.245,329.342L686.939,355.138C689.1,360.957 694.959,373.663 691.248,379.009C682.125,392.154 670.893,403.372 661.323,416.443C675.972,418.572 691.618,418.781 706.351,420.502C711.372,421.088 725.173,421.223 728.773,424.274C741.729,435.252 753.72,447.658 766.128,459.28C773.472,466.197 780.78,472.989 786.632,481.134C814.88,484.09 843.304,485.928 871.603,488.443C882.888,489.446 908.063,490.273 917.349,494.279C925.896,497.965 933.57,506.756 939.886,513.463C942.829,516.588 945.557,519.798 947.945,523.372C954.41,533.049 973.538,566.968 972.924,577.303C972.715,580.82 970.79,584.254 968.178,586.564C961.439,592.526 952.186,591.478 943.909,591.091C947.929,602.924 952.199,612.476 951.854,625.658C950.73,668.71 927.443,712.982 897.245,742.895C890.075,749.997 868.75,770.252 859.894,771.767C851.719,773.166 827.163,772.61 817.793,772.606L725.477,772.58L319.375,772.622L191.075,772.608C172.654,772.604 153.958,772.696 135.494,772.626C121.41,772.573 105.007,756.076 95.623,745.986C80.123,729.322 67.766,705.335 63.915,682.651C62.992,677.211 63.373,669.767 63.682,664.144C59.476,661.691 53.34,657.802 51.189,653.511C40.916,633.019 59.419,591.621 64.54,571.578C59.482,569.312 57.979,568.453 54.628,564.209C63.798,538.992 74.737,510.725 87.161,486.788C88.876,483.486 96.261,475.678 99.648,474.32C105.139,472.118 112.654,470.24 118.519,468.603L153.493,458.75L220.849,439.428C233.357,435.844 249.278,430.872 261.696,428.253C243.884,422.201 223.434,416.566 206.234,409.767C207.746,400.891 210.486,393.529 213.043,384.935C217.659,369.361 222.388,353.82 227.23,338.315L238.561,300.955C240.4,294.893 245.627,274.418 250.832,270.879C255.668,267.59 267.74,263.082 273.68,260.653C289.517,254.329 305.312,247.899 321.063,241.364C320.696,233.3 320.483,226.787 323.385,219.252C327.367,216.584 348.986,208.249 353.945,207.769C363.41,207.724 374.136,206.512 383.599,207.553C404.398,209.841 432.631,201.339 449.119,217.06C453.553,221.288 453.575,226.721 453.345,232.011L570.514,246.466L604.741,250.605C619.096,252.37 626.072,251.33 636.895,262.207C651.57,254.748 670.606,247.199 685.976,240.109L803.355,185.312C809.118,172.829 814.388,170.114 826.423,164.611C845.693,155.8 864.699,146.115 883.998,137.348C885.93,136.47 888.181,135.989 890.262,135.589ZM327.503,610.605C318.145,612.616 311.609,618.509 306.634,626.542C293.036,648.498 290.634,677.067 295.634,701.938C299.251,719.93 313.169,744.805 335.059,740.555C385.604,724.667 375.278,605.527 327.503,610.605ZM329.912,625.091C363.837,622.852 368.887,713.527 333.9,725.844C296.512,728.768 297.118,632.998 329.912,625.091ZM584.494,482.007C589.889,486.828 593.596,490.491 598.661,495.731C636.7,498.192 674.715,500.996 712.703,504.143C721.361,504.823 755.138,506.738 761.321,508.942C766.322,510.724 802.766,543.645 808.122,548.084C781.524,546.277 754.61,545.15 727.955,543.609L622.056,537.453C624.554,543.286 627.058,549.234 628.78,555.352C636.817,555.77 645.729,556.403 653.718,556.561C666.296,557.577 679.651,558.218 692.286,558.693C741.164,560.53 790.39,564.499 839.237,566.039C834.222,549.523 834.9,552.933 821.728,541.575L797.618,520.463C792.04,515.596 786.508,510.676 781.023,505.704C778.177,503.137 773.047,498.223 770.067,496.277C746.494,494.988 721.753,493.3 698.281,490.984C660.605,487.267 622.023,486.003 584.494,482.007ZM424.192,572.661C377.754,578.62 376.246,694.348 425.614,692.97C435.722,691.032 442.154,686.313 447.828,677.724C460.061,659.206 462.612,634.573 458.621,613.167C455.523,596.55 444.239,572.294 424.192,572.661ZM424.875,584.638C447.974,584.399 453.077,619.85 451.07,636.786C449.177,652.762 445.354,675.13 426.864,679.264C391.07,680.26 391.556,591.535 424.875,584.638ZM815.84,722.946C811.79,727.616 808.004,731.995 803.246,736.006C827.82,736.152 853.098,737.516 877.339,737.34C880.182,735.53 886.161,728.055 888.445,725.09L840.448,723.613C833.779,723.411 822.068,722.657 815.84,722.946ZM890.761,152.046C858.202,163.023 876.122,223.646 906.496,221.937C937.499,214.432 923.409,150.124 890.761,152.046ZM894.085,165.557C909.013,164.779 917.776,193.777 911.26,204.661C909.615,207.409 907.259,208.279 904.379,208.95C895.873,207.871 891.017,201.876 887.936,194.376C883.752,184.19 881.781,170.659 894.085,165.557ZM798.178,205.975C757.532,224.746 717.007,243.777 676.604,263.065C665.889,268.155 655.128,273.15 644.323,278.048C637.633,281.098 631.084,283.911 624.646,287.476C620.388,289.835 618.922,300.508 621.053,303.907C621.658,303.803 622.036,303.807 622.554,303.549C642.352,294.143 662.255,284.962 682.262,276.01L801.18,222.159C800.392,219.46 798.557,206.246 798.446,206.063L798.178,205.975ZM244.858,621.095C235.605,623.947 229.628,630.375 225.288,638.91C214.006,661.098 211.643,690.138 218.831,713.908C223.282,728.627 232.832,745.752 250.87,742.647C294.696,727.967 288.571,618.29 244.858,621.095ZM246.747,636.057C276.656,634.744 278.796,718.435 249.076,728.539C217.863,732.422 218.942,644.456 246.747,636.057ZM362.958,225.252C362.136,227.501 362.586,231.766 362.686,234.334C381.943,230.004 404.45,230.301 424.191,231.689L424.884,231.479C425.615,229.209 425.5,227.397 425.56,225.012C404.926,224.955 383.404,225.516 362.958,225.252ZM661.329,338.461L649.835,344.118C651.744,348.476 655.225,360.193 657.891,364.221C658.16,364.628 661.001,364.752 661.879,364.811C665.234,365.14 668.592,365.427 671.954,365.673C670.666,362.107 662.879,339.442 662.041,338.587L661.329,338.461ZM430.829,410.855C439.389,420.187 458.927,445.775 464.744,456.919L480.328,458.085C473.768,447.678 466.905,437.714 460.273,427.414C484.163,428.572 510.238,431.139 534.055,433.187L640.402,442.331L684.461,446.04C689.483,446.459 705.71,447.169 708.96,449.496C715.071,453.871 722.895,461.188 728.694,466.334C733.029,470.293 738.715,475.785 743.157,479.437C750.163,480.337 757.082,480.245 763.898,481.02C748.576,467.455 731.308,449.646 716.198,437.17C704.199,435.127 682.581,433.786 670.077,432.602C639.922,429.584 609.746,426.771 579.553,424.165L488.298,415.814C471.902,414.256 446.935,411.314 430.829,410.855ZM176.008,630.122C168.737,631.693 163.485,635.68 159.672,642.074C147.956,661.719 144.598,688.168 149.454,710.332C152.516,724.305 160.718,742.608 177.854,740.814C218.725,726.813 211.767,628.894 176.008,630.122ZM176.278,645.036C203.274,645.226 201.608,718.308 178.246,727.133C163.224,726.824 158.611,706.998 158.166,695.031C157.613,680.144 159.004,650.578 176.278,645.036ZM612.643,280.51C605.869,283.944 597.359,288.255 590.458,291.193C571.2,299.393 563.518,305.007 564.032,327.296L564.441,327.712L564.623,327.605C569.376,319.141 593.219,310.128 602.932,305.834C603.638,295.706 604.064,287.109 613.148,280.875L612.643,280.51ZM367.504,247.126C357.352,249.41 333.578,258.34 322.875,262.099C310.037,266.613 297.238,271.237 284.48,275.97C279.964,277.629 267.182,281.568 264.217,284.364L264.136,285.264C267.274,286.06 344.408,264.427 354.902,261.763C371.415,257.571 371.976,258.095 390.914,258.944C405.687,259.486 420.448,260.324 435.187,261.458C447.395,262.386 464.146,259.831 468.684,273.107C471.958,282.687 474.686,293.143 477.409,302.904C482.143,319.145 486.743,335.425 491.208,351.742C483.642,362.294 475.972,372.77 468.199,383.169L479.874,384.013C483.913,379.761 500.818,358.58 504.557,353.12L488.874,295.767C487.473,290.653 485.639,284.716 484.46,279.684C481.029,265.049 474.942,251.121 457.644,250.113C451.82,249.773 445.938,249.571 440.117,249.33C429.624,248.805 419.126,248.372 408.624,248.032C397.596,247.688 377.745,246.451 367.504,247.126ZM110.391,608.041C101.911,610.538 96.776,615.621 92.706,623.285C82.765,642.008 81.681,664.943 87.57,685.092C91.257,697.711 99.379,711.443 114.524,710.016C141.07,702.014 144.341,654.443 137.233,632.701C132.888,619.41 126.239,607.125 110.391,608.041ZM111.612,621.055C130.896,620.41 131.926,656.539 129.551,669.212C127.64,679.415 125.413,691.345 114.244,695.019C89.567,695.592 89.485,629.394 111.612,621.055ZM408.59,410.107L196.409,468.68C177.152,473.993 157.863,479.187 138.542,484.263C126.821,487.322 112.917,490.562 101.512,493.958C99.762,498.58 97.96,503.208 96.403,507.897C113.456,503.84 130.41,499.377 147.25,494.511L334.693,443.234C356.767,437.249 381.185,429.953 403.17,424.488C410.207,435.242 417.718,444.427 425.009,454.909C430.227,455.002 435.965,455.225 441.144,455.115C432.875,443.173 424.017,432.24 415.395,420.591C413.987,418.687 409.959,411.315 408.59,410.107ZM946.426,561.928C942.948,563.23 873.219,557.803 861.842,557.344C863.16,561.05 864.805,565.329 865.956,569.038C893.838,569.813 927.339,571.972 955.114,574.104C953.766,571.047 951.446,565.296 949.955,562.559C941.229,543.173 928.296,518.982 908.76,508.983C905.226,507.174 884.188,506.095 878.84,505.643C860.723,504.033 842.59,502.59 824.446,501.317C830.611,506.104 836.577,511.144 842.328,516.423C846.911,517.241 856.987,517.824 861.962,518.236L897.981,521.195C901.102,521.447 913.743,522.151 915.845,523.183C928.287,529.291 940.179,550.613 946.426,561.928ZM605.507,543.458C597.871,524.563 579.974,493.887 561.441,484.595C557.167,482.452 523.989,481.074 515.833,480.602C498.353,479.591 476.831,477.189 459.43,476.892C465.9,482.94 468.338,485.95 473.455,492.936C503.506,493.602 535.494,496.738 565.583,498.584C572.846,499.029 596.759,535.6 600.659,543.656C588.79,543.833 574.152,542.299 562.197,541.741C536.836,540.557 510.864,537.87 485.561,536.797C473.878,515.353 451.057,467.194 420.315,471.92C409.601,473.567 392.896,478.827 381.848,481.783C357.381,488.156 332.949,494.66 308.552,501.293L149.99,544.365C130.355,549.845 107.072,555.313 88.075,561.407C87.202,562.522 86.388,563.683 85.638,564.884C77.091,578.556 66.188,617.991 63.26,635.087C62.587,639.012 63.182,643.525 64.06,647.411C66.863,630.536 82.516,584.364 96.952,575.014C101.957,571.772 158.555,557.441 168.742,554.642C222.5,539.762 276.353,525.23 330.299,511.048L379.964,497.785C389.227,495.276 424.052,484.714 430.539,487.103C449.646,494.14 467.467,531.898 477.078,549.241C510.039,551.971 543.437,553.222 576.464,555.261C587.642,555.951 599.189,556.82 610.347,557.023C608.791,552.239 607.472,548.114 605.507,543.458ZM862.415,167.003C854.454,170.785 846.453,174.483 838.413,178.095C834.375,179.942 825.415,183.461 822.346,186.274C807.201,200.16 815.875,221.489 826.026,234.182L829.84,238.529C819.082,217.996 816.3,208.533 840.148,197.87C846.215,195.158 855.333,190.423 861.063,187.076C860.857,180.313 861.266,175.125 862.425,168.427C862.571,167.587 862.542,167.842 862.415,167.003ZM858.885,637.004C857.79,648.158 856.226,649.622 854.535,658.853C855.733,660.197 926.835,662.808 928.036,661.887C930.408,654.353 931.881,647.767 933.548,640.039L858.885,637.004ZM481.073,582.657C482.327,588.142 484.265,593.955 484.677,599.488C505.734,600.615 527.211,600.714 548.318,601.869C556.47,602.315 565.109,602.194 573.213,602.745C572.011,598.087 570.324,590.236 568.729,586.07C542.571,585.739 516.342,583.745 490.191,582.944C487.19,582.852 484.067,582.624 481.073,582.657ZM455.168,715.501C450.852,721.072 447.157,725.682 442.562,730.985C450.495,731.044 523.572,732.882 525.368,732.062C530.392,727.637 534.253,722.48 538.22,717.119C518.179,716.672 498.098,715.982 478.075,715.733C471.317,715.649 461.707,715.246 455.168,715.501ZM844.661,683.522C841.415,689.015 838.078,694.826 834.449,700.043C858.707,700.246 883.673,702.081 907.589,702.106C910.914,697.744 914.318,690.998 916.993,685.99C892.878,685.308 868.767,684.485 844.661,683.522ZM486.591,621.489C486.513,629.514 486.327,636.539 484.714,644.515C494.82,644.889 569.953,648.385 572.073,647.396C573.742,639.246 574.288,633.237 574.862,624.969C545.71,623.98 515.694,621.82 486.591,621.489ZM856.323,600.929C857.829,606.569 858.2,611.271 859.132,616.969C875.403,617.554 891.67,618.234 907.932,619.01C916.511,619.407 926.3,620.095 934.807,620.021C933.281,614.152 931.542,609.597 929.203,604.001C907.59,603.002 877.619,600.781 856.323,600.929ZM478.403,670.793C476.345,677.418 473.896,682.782 470.97,689.088C479.506,689.116 552.731,691.867 555.737,690.798C559.127,685.195 561.539,680.142 564.057,674.091C553.516,673.022 539.813,672.755 529.053,672.382C512.45,671.806 494.977,670.877 478.403,670.793ZM490.222,253.846C495.689,259.731 496.919,261.954 499.708,269.393C522.057,271.627 545.546,274.481 567.826,276.258C547.338,286.437 541.804,304.316 546.383,325.908C547.509,314.976 548.187,308.365 553.4,298.236C563.817,281 584.712,275.847 602.335,266.72C568.342,262.54 534.106,259.576 500.142,254.941C497.048,254.518 493.296,254.013 490.222,253.846Z" style="fill:rgb(5,43,71);"  data-color="color-1"/>
        <path d="M327.503,610.605C375.278,605.527 385.604,724.667 335.059,740.555C313.169,744.805 299.251,719.93 295.634,701.938C290.634,677.067 293.036,648.498 306.634,626.542C311.609,618.509 318.145,612.616 327.503,610.605ZM329.912,625.091C297.118,632.998 296.512,728.768 333.9,725.844C368.887,713.527 363.837,622.852 329.912,625.091ZM424.192,572.661C444.239,572.294 455.523,596.55 458.621,613.167C462.612,634.573 460.061,659.206 447.828,677.724C442.154,686.313 435.722,691.032 425.614,692.97C376.246,694.348 377.754,578.62 424.192,572.661ZM424.875,584.638C391.556,591.535 391.07,680.26 426.864,679.264C445.354,675.13 449.177,652.762 451.07,636.786C453.077,619.85 447.974,584.399 424.875,584.638ZM584.494,482.007C622.023,486.003 660.605,487.267 698.281,490.984C721.753,493.3 746.494,494.988 770.067,496.277C773.047,498.223 778.177,503.137 781.023,505.704C786.508,510.676 792.04,515.596 797.618,520.463L821.728,541.575C834.9,552.933 834.222,549.523 839.237,566.039C790.39,564.499 741.164,560.53 692.286,558.693C679.651,558.218 666.296,557.577 653.718,556.561C645.729,556.403 636.817,555.77 628.78,555.352C627.058,549.234 624.554,543.286 622.056,537.453L727.955,543.609C754.61,545.15 781.524,546.277 808.122,548.084C802.766,543.645 766.322,510.724 761.321,508.942C755.138,506.738 721.361,504.823 712.703,504.143C674.715,500.996 636.7,498.192 598.661,495.731C593.596,490.491 589.889,486.828 584.494,482.007ZM244.858,621.095C288.571,618.29 294.696,727.967 250.87,742.647C232.832,745.752 223.282,728.627 218.831,713.908C211.643,690.138 214.006,661.098 225.288,638.91C229.628,630.375 235.605,623.947 244.858,621.095ZM246.747,636.057C218.942,644.456 217.863,732.422 249.076,728.539C278.796,718.435 276.656,634.744 246.747,636.057ZM176.008,630.122C211.767,628.894 218.725,726.813 177.854,740.814C160.718,742.608 152.516,724.305 149.454,710.332C144.598,688.168 147.956,661.719 159.672,642.074C163.485,635.68 168.737,631.693 176.008,630.122ZM176.278,645.036C159.004,650.578 157.613,680.144 158.166,695.031C158.611,706.998 163.224,726.824 178.246,727.133C201.608,718.308 203.274,645.226 176.278,645.036ZM430.829,410.855C446.935,411.314 471.902,414.256 488.298,415.814L579.553,424.165C609.746,426.771 639.922,429.584 670.077,432.602C682.581,433.786 704.199,435.127 716.198,437.17C731.308,449.646 748.576,467.455 763.898,481.02C757.082,480.245 750.163,480.337 743.157,479.437C738.715,475.785 733.029,470.293 728.694,466.334C722.895,461.188 715.071,453.871 708.96,449.496C705.71,447.169 689.483,446.459 684.461,446.04L640.402,442.331L534.055,433.187C510.238,431.139 484.163,428.572 460.273,427.414C466.905,437.714 473.768,447.678 480.328,458.085L464.744,456.919C458.927,445.775 439.389,420.187 430.829,410.855ZM110.391,608.041C126.239,607.125 132.888,619.41 137.233,632.701C144.341,654.443 141.07,702.014 114.524,710.016C99.379,711.443 91.257,697.711 87.57,685.092C81.681,664.943 82.765,642.008 92.706,623.285C96.776,615.621 101.911,610.538 110.391,608.041ZM111.612,621.055C89.485,629.394 89.567,695.592 114.244,695.019C125.413,691.345 127.64,679.415 129.551,669.212C131.926,656.539 130.896,620.41 111.612,621.055ZM367.504,247.126C377.745,246.451 397.596,247.688 408.624,248.032C419.126,248.372 429.624,248.805 440.117,249.33C445.938,249.571 451.82,249.773 457.644,250.113C474.942,251.121 481.029,265.049 484.46,279.684C485.639,284.716 487.473,290.653 488.874,295.767L504.557,353.12C500.818,358.58 483.913,379.761 479.874,384.013L468.199,383.169C475.972,372.77 483.642,362.294 491.208,351.742C486.743,335.425 482.143,319.145 477.409,302.904C474.686,293.143 471.958,282.687 468.684,273.107C464.146,259.831 447.395,262.386 435.187,261.458C420.448,260.324 405.687,259.486 390.914,258.944C371.976,258.095 371.415,257.571 354.902,261.763C344.408,264.427 267.274,286.06 264.136,285.264L264.217,284.364C267.182,281.568 279.964,277.629 284.48,275.97C297.238,271.237 310.037,266.613 322.875,262.099C333.578,258.34 357.352,249.41 367.504,247.126ZM798.178,205.975L798.446,206.063C798.557,206.246 800.392,219.46 801.18,222.159L682.262,276.01C662.255,284.962 642.352,294.143 622.554,303.549C622.036,303.807 621.658,303.803 621.053,303.907C618.922,300.508 620.388,289.835 624.646,287.476C631.084,283.911 637.633,281.098 644.323,278.048C655.128,273.15 665.889,268.155 676.604,263.065C717.007,243.777 757.532,224.746 798.178,205.975ZM890.761,152.046C923.409,150.124 937.499,214.432 906.496,221.937C876.122,223.646 858.202,163.023 890.761,152.046ZM894.085,165.557C881.781,170.659 883.752,184.19 887.936,194.376C891.017,201.876 895.873,207.871 904.379,208.95C907.259,208.279 909.615,207.409 911.26,204.661C917.776,193.777 909.013,164.779 894.085,165.557ZM600.659,543.656C596.759,535.6 572.846,499.029 565.583,498.584C535.494,496.738 503.506,493.602 473.455,492.936C468.338,485.95 465.9,482.94 459.43,476.892C476.831,477.189 498.353,479.591 515.833,480.602C523.989,481.074 557.167,482.452 561.441,484.595C579.974,493.887 597.871,524.563 605.507,543.458C604.063,543.491 602.03,543.477 600.659,543.656ZM490.222,253.846C493.296,254.013 497.048,254.518 500.142,254.941C534.106,259.576 568.342,262.54 602.335,266.72C584.712,275.847 563.817,281 553.4,298.236C548.187,308.365 547.509,314.976 546.383,325.908C541.804,304.316 547.338,286.437 567.826,276.258C545.546,274.481 522.057,271.627 499.708,269.393C496.919,261.954 495.689,259.731 490.222,253.846ZM946.426,561.928C940.179,550.613 928.287,529.291 915.845,523.183C913.743,522.151 901.102,521.447 897.981,521.195L861.962,518.236C856.987,517.824 846.911,517.241 842.328,516.423C836.577,511.144 830.611,506.104 824.446,501.317C842.59,502.59 860.723,504.033 878.84,505.643C884.188,506.095 905.226,507.174 908.76,508.983C928.296,518.982 941.229,543.173 949.955,562.559C948.486,562.58 947.582,562.782 946.426,561.928ZM862.415,167.003C862.542,167.842 862.571,167.587 862.425,168.427C861.266,175.125 860.857,180.313 861.063,187.076C855.333,190.423 846.215,195.158 840.148,197.87C816.3,208.533 819.082,217.996 829.84,238.529L826.026,234.182C815.875,221.489 807.201,200.16 822.346,186.274C825.415,183.461 834.375,179.942 838.413,178.095C846.453,174.483 854.454,170.785 862.415,167.003ZM612.643,280.51L613.148,280.875C604.064,287.109 603.638,295.706 602.932,305.834C593.219,310.128 569.376,319.141 564.623,327.605L564.441,327.712L564.032,327.296C563.518,305.007 571.2,299.393 590.458,291.193C597.359,288.255 605.869,283.944 612.643,280.51ZM362.958,225.252C383.404,225.516 404.926,224.955 425.56,225.012C425.5,227.397 425.615,229.209 424.884,231.479L424.191,231.689C404.45,230.301 381.943,230.004 362.686,234.334C362.586,231.766 362.136,227.501 362.958,225.252Z" style="fill:white;"  data-color="color-4"/>
        <path d="M889.106,121.169C912.888,119.73 931.985,135.353 942.6,155.676C957.077,183.393 957.658,231.757 925.072,247.304C913.305,252.918 900.53,257.681 888.591,263.024C879.68,266.795 869.617,271.902 860.68,275.06C858.027,276.016 855.275,276.671 852.475,277.013C844.813,277.9 839.418,275.926 832.301,273.548C785.999,293.998 739.878,314.855 693.944,336.119C697.897,346.039 701.88,356.518 705.399,366.597C710.798,382.065 697.175,394.083 687.728,405.391C699.126,406.266 710.527,407.376 721.9,408.321C737.53,409.619 745.465,420.041 756.214,430.236C765.136,438.66 774.013,447.131 782.843,455.651C786.525,459.262 791.89,465.128 795.853,467.953C819.602,470.353 843.79,472.053 867.489,474.362C877.129,475.3 913.083,477.016 920.308,480.53C950.579,495.255 969.841,531.204 982.756,560.793C992.163,582.343 983.253,596.758 962.571,604.485C963.78,611.552 964.413,618.705 964.464,625.874C964.383,682.771 929.038,735.788 886.438,770.893C867.038,786.88 863.323,786.236 838.737,786.249L811.151,786.228L717.539,786.238L338.875,786.206L144.079,786.262C119.084,786.219 110.513,780.226 92.065,762.283C69.269,740.112 49.663,704.213 49.889,671.619C47.603,669.539 45.004,667.232 43.093,664.819C25.493,642.608 40.619,601.643 48.784,578.608C38.073,566.74 40.918,561.124 46.587,547.512C47.906,544.346 49.278,540.873 50.535,537.665C55.5,524.745 60.73,511.927 66.221,499.221C73.598,481.973 79.93,465.075 99.879,459.856C109.172,457.425 118.697,454.643 127.96,452.035L212.722,427.98C201.402,423.159 189.504,418.414 193.152,403.501C195.094,395.564 197.574,387.948 199.973,380.138L213.145,337.491L226.983,292.693C237.237,259.703 233.722,262.104 265.513,249.351L307.396,232.462C307.851,228.232 308.237,224.003 309.029,219.746C312.108,203.204 331.126,201.563 343.817,195.691C345.728,194.807 350.701,193.726 352.784,193.705C379.351,193.558 406.343,192.85 432.867,193.864C445.591,194.351 462.543,207.589 466.679,219.795C479.131,221.646 493.808,222.984 506.509,224.525C532.568,227.622 558.61,230.872 584.631,234.275L612.043,237.582C625.549,239.208 628.612,238.527 640.268,246.318L743.911,197.91L776.021,182.968C780.787,180.741 786.153,178.332 790.805,175.913C793.879,173.742 797.193,169.076 799.348,166.043C803.628,159.663 810.039,156.928 816.759,153.812C838.484,143.739 859.823,132.735 881.69,122.989C884.11,121.91 886.504,121.503 889.106,121.169ZM890.262,135.589C888.181,135.989 885.93,136.47 883.998,137.348C864.699,146.115 845.693,155.8 826.423,164.611C814.388,170.114 809.118,172.829 803.355,185.312L685.976,240.109C670.606,247.199 651.57,254.748 636.895,262.207C626.072,251.33 619.096,252.37 604.741,250.605L570.514,246.466L453.345,232.011C453.575,226.721 453.553,221.288 449.119,217.06C432.631,201.339 404.398,209.841 383.599,207.553C374.136,206.512 363.41,207.724 353.945,207.769C348.986,208.249 327.367,216.584 323.385,219.252C320.483,226.787 320.696,233.3 321.063,241.364C305.312,247.899 289.517,254.329 273.68,260.653C267.74,263.082 255.668,267.59 250.832,270.879C245.627,274.418 240.4,294.893 238.561,300.955L227.23,338.315C222.388,353.82 217.659,369.361 213.043,384.935C210.486,393.529 207.746,400.891 206.234,409.767C223.434,416.566 243.884,422.201 261.696,428.253C249.278,430.872 233.357,435.844 220.849,439.428L153.493,458.75L118.519,468.603C112.654,470.24 105.139,472.118 99.648,474.32C96.261,475.678 88.876,483.486 87.161,486.788C74.737,510.725 63.798,538.992 54.628,564.209C57.979,568.453 59.482,569.312 64.54,571.578C59.419,591.621 40.916,633.019 51.189,653.511C53.34,657.802 59.476,661.691 63.682,664.144C63.373,669.767 62.992,677.211 63.915,682.651C67.766,705.335 80.123,729.322 95.623,745.986C105.007,756.076 121.41,772.573 135.494,772.626C153.958,772.696 172.654,772.604 191.075,772.608L319.375,772.622L725.477,772.58L817.793,772.606C827.163,772.61 851.719,773.166 859.894,771.767C868.75,770.252 890.075,749.997 897.245,742.895C927.443,712.982 950.73,668.71 951.854,625.658C952.199,612.476 947.929,602.924 943.909,591.091C952.186,591.478 961.439,592.526 968.178,586.564C970.79,584.254 972.715,580.82 972.924,577.303C973.538,566.968 954.41,533.049 947.945,523.372C945.557,519.798 942.829,516.588 939.886,513.463C933.57,506.756 925.896,497.965 917.349,494.279C908.063,490.273 882.888,489.446 871.603,488.443C843.304,485.928 814.88,484.09 786.632,481.134C780.78,472.989 773.472,466.197 766.128,459.28C753.72,447.658 741.729,435.252 728.773,424.274C725.173,421.223 711.372,421.088 706.351,420.502C691.618,418.781 675.972,418.572 661.323,416.443C670.893,403.372 682.125,392.154 691.248,379.009C694.959,373.663 689.1,360.957 686.939,355.138L677.245,329.342C728.977,304.811 780.967,280.828 833.207,257.397C841.003,260.997 849.406,265.074 857.764,260.886C876.483,251.505 906.558,242.387 923.556,231.863C946.73,217.517 941.121,167.819 923.262,151.268C913.541,141.053 904.765,134.387 890.262,135.589ZM486.591,621.489C515.694,621.82 545.71,623.98 574.862,624.969C574.288,633.237 573.742,639.246 572.073,647.396C569.953,648.385 494.82,644.889 484.714,644.515C486.327,636.539 486.513,629.514 486.591,621.489ZM455.168,715.501C461.707,715.246 471.317,715.649 478.075,715.733C498.098,715.982 518.179,716.672 538.22,717.119C534.253,722.48 530.392,727.637 525.368,732.062C523.572,732.882 450.495,731.044 442.562,730.985C447.157,725.682 450.852,721.072 455.168,715.501ZM844.661,683.522C868.767,684.485 892.878,685.308 916.993,685.99C914.318,690.998 910.914,697.744 907.589,702.106C883.673,702.081 858.707,700.246 834.449,700.043C838.078,694.826 841.415,689.015 844.661,683.522ZM856.323,600.929C877.619,600.781 907.59,603.002 929.203,604.001C931.542,609.597 933.281,614.152 934.807,620.021C926.3,620.095 916.511,619.407 907.932,619.01C891.67,618.234 875.403,617.554 859.132,616.969C858.2,611.271 857.829,606.569 856.323,600.929ZM949.955,562.559C951.446,565.296 953.766,571.047 955.114,574.104C927.339,571.972 893.838,569.813 865.956,569.038C864.805,565.329 863.16,561.05 861.842,557.344C873.219,557.803 942.948,563.23 946.426,561.928C947.582,562.782 948.486,562.58 949.955,562.559ZM408.59,410.107C409.959,411.315 413.987,418.687 415.395,420.591C424.017,432.24 432.875,443.173 441.144,455.115C435.965,455.225 430.227,455.002 425.009,454.909C417.718,444.427 410.207,435.242 403.17,424.488C381.185,429.953 356.767,437.249 334.693,443.234L147.25,494.511C130.41,499.377 113.456,503.84 96.403,507.897C97.96,503.208 99.762,498.58 101.512,493.958C112.917,490.562 126.821,487.322 138.542,484.263C157.863,479.187 177.152,473.993 196.409,468.68L408.59,410.107ZM815.84,722.946C822.068,722.657 833.779,723.411 840.448,723.613L888.445,725.09C886.161,728.055 880.182,735.53 877.339,737.34C853.098,737.516 827.82,736.152 803.246,736.006C808.004,731.995 811.79,727.616 815.84,722.946ZM661.329,338.461L662.041,338.587C662.879,339.442 670.666,362.107 671.954,365.673C668.592,365.427 665.234,365.14 661.879,364.811C661.001,364.752 658.16,364.628 657.891,364.221C655.225,360.193 651.744,348.476 649.835,344.118L661.329,338.461ZM858.885,637.004L933.548,640.039C931.881,647.767 930.408,654.353 928.036,661.887C926.835,662.808 855.733,660.197 854.535,658.853C856.226,649.622 857.79,648.158 858.885,637.004ZM478.403,670.793C494.977,670.877 512.45,671.806 529.053,672.382C539.813,672.755 553.516,673.022 564.057,674.091C561.539,680.142 559.127,685.195 555.737,690.798C552.731,691.867 479.506,689.116 470.97,689.088C473.896,682.782 476.345,677.418 478.403,670.793ZM481.073,582.657C484.067,582.624 487.19,582.852 490.191,582.944C516.342,583.745 542.571,585.739 568.729,586.07C570.324,590.236 572.011,598.087 573.213,602.745C565.109,602.194 556.47,602.315 548.318,601.869C527.211,600.714 505.734,600.615 484.677,599.488C484.265,593.955 482.327,588.142 481.073,582.657ZM605.507,543.458C607.472,548.114 608.791,552.239 610.347,557.023C599.189,556.82 587.642,555.951 576.464,555.261C543.437,553.222 510.039,551.971 477.078,549.241C467.467,531.898 449.646,494.14 430.539,487.103C424.052,484.714 389.227,495.276 379.964,497.785L330.299,511.048C276.353,525.23 222.5,539.762 168.742,554.642C158.555,557.441 101.957,571.772 96.952,575.014C82.516,584.364 66.863,630.536 64.06,647.411C63.182,643.525 62.587,639.012 63.26,635.087C66.188,617.991 77.091,578.556 85.638,564.884C86.388,563.683 87.202,562.522 88.075,561.407C107.072,555.313 130.355,549.845 149.99,544.365L308.552,501.293C332.949,494.66 357.381,488.156 381.848,481.783C392.896,478.827 409.601,473.567 420.315,471.92C451.057,467.194 473.878,515.353 485.561,536.797C510.864,537.87 536.836,540.557 562.197,541.741C574.152,542.299 588.79,543.833 600.659,543.656C602.03,543.477 604.063,543.491 605.507,543.458Z" style="fill:rgb(186,54,39);"  data-color="color-2"/>
    </g>
</svg>
