<svg width="100%" height="100%" viewBox="0 0 837 833" version="1.1" xmlns="http://www.w3.org/2000/svg" xmlns:xlink="http://www.w3.org/1999/xlink" xml:space="preserve" xmlns:serif="http://www.serif.com/" style="fill-rule:evenodd;clip-rule:evenodd;stroke-linejoin:round;stroke-miterlimit:2;">
    <g transform="matrix(1,0,0,1,-104.18,-104.303)">
        <path d="M462.015,124.705C486.462,121.5 517.232,135.368 538.839,145.612C541.822,147.026 555.504,153.903 557.731,153.952C566.696,154.15 581.48,151.732 590.741,150.731C599.898,149.76 609.077,149.027 618.272,148.532C638.803,147.616 648.834,151.39 664,165.296C673.391,163.434 682.695,161.161 691.887,158.485C708.762,153.584 727.5,146.53 745.225,148.785C767.128,151.245 787.858,161.815 808.794,167.445C835.604,174.655 853.137,186.323 870.663,208.098C877.873,217.003 883.932,226.781 888.697,237.2C896.012,253.066 902.112,274.635 907.241,291.671C911.086,304.444 917.817,325.651 919.951,338.188C921.103,344.825 921.339,351.589 920.652,358.289C917.922,382.961 903.354,397.6 889.222,415.978C885.037,421.42 881.589,432.016 877.994,438.327C869.364,453.475 857.189,469.26 843.52,480.127C842.797,472.152 842.226,467.041 838.971,459.745C833.01,471.608 818.108,488.992 808.677,498.676C810.012,486.706 809.651,473.43 804.557,462.366C799.426,479.728 788.663,490.579 776.941,503.756C772.226,509.156 767.553,514.591 762.92,520.061C765.857,504.374 769.93,486.716 764.505,471.174C754.089,487.221 737.611,502.399 721.75,513.173C724.653,499.772 725.429,489.72 724.732,476.085C723.131,477.739 692.118,494.935 680.966,500.423C670.888,524.828 669.162,565.731 676.364,591.438C687.73,587.204 699.779,579.986 710.017,573.435C709.784,592.782 706.906,607.536 698.606,624.904C699.155,626.306 699.97,627.946 700.618,629.339C712.632,623.039 726.101,612.34 735.921,602.956C737.471,625.149 734.839,640.756 727.01,661.548C739.495,654.46 751.719,642.009 760.975,631.216C768.441,654.404 774.371,681.512 771.583,706.045C779.823,715.319 784.67,723.918 784.327,736.664C783.508,767.071 760.862,797.31 739.895,817.867C710.678,844.269 681.112,850.338 642.86,843.035C609.351,836.885 575.63,818.769 551.857,794.1C526.812,768.111 510.278,748.397 476.648,732.63C463.145,749.023 452.238,765.908 445.89,786.434C438.369,810.754 437.709,840.337 445.236,864.714C449.044,877.043 456.067,891.526 462.147,902.956C452.862,900.035 442.828,897.675 433.204,894.662C408.106,886.827 383.571,877.289 359.772,866.113C257.922,817.484 181.591,741.284 142.773,633.903C118.836,567.69 119.241,499.977 137.051,432.236C143.422,407.288 152.22,383.023 163.318,359.788C193.738,296.126 242.998,239.113 306.188,206.558C335.169,191.627 360.954,182.895 391.02,172.303C406.09,143.985 430.054,127.703 462.015,124.705Z" style="fill:rgb(21,21,22);"  data-color="color-3"/>
        <path d="M459.79,104.827L459.808,104.825C487.647,101.354 522.864,115.904 547.406,127.54C549.213,128.396 557.679,132.344 561.08,133.93C569.371,133.636 580.995,131.668 588.612,130.845L588.632,130.843C598.133,129.835 607.657,129.075 617.289,128.556L617.381,128.552C640.608,127.516 653.624,131.017 669.507,143.662C675.143,142.36 680.742,140.899 686.303,139.28L686.309,139.279C705.655,133.66 727.274,126.389 747.575,128.923C770.427,131.518 792.141,142.256 813.988,148.131C845.28,156.546 865.77,170.128 886.226,195.536C894.479,205.734 901.416,216.929 906.874,228.858C914.537,245.49 921.018,268.056 926.392,285.906C930.431,299.324 937.414,321.62 939.663,334.804C941.122,343.232 941.42,351.821 940.539,360.409L940.531,360.489C937.356,389.183 921.512,406.796 905.076,428.17C901.348,433.018 898.575,442.605 895.372,448.227C885.535,465.494 871.547,483.396 855.966,495.782L826.949,518.852L826.091,509.39C825.02,510.538 823.987,511.622 823.005,512.63L782.34,554.386L785.709,524.172C783.188,527.1 780.679,530.039 778.181,532.987L753.147,562.544L755.872,601.563C755.981,603.111 756.071,604.632 756.144,606.127L769.059,591.067L780.013,625.086C787.435,648.138 793.213,674.714 792.133,699.579C800.406,710.632 804.73,721.944 804.32,737.202C803.369,772.517 778.248,808.273 753.606,832.433L753.304,832.706C718.912,863.785 684.196,871.274 639.223,862.701C601.75,855.818 564.04,835.565 537.456,807.978C518.066,787.858 504.396,771.55 482.223,758.215C474.895,768.648 468.913,779.68 464.997,792.343C458.611,812.994 457.954,838.113 464.346,858.813C467.809,870.027 474.274,883.167 479.804,893.563L502.747,936.695L456.145,922.034C446.869,919.116 436.844,916.759 427.244,913.753C401.278,905.647 375.893,895.779 351.213,884.189L351.155,884.161C244.441,833.21 164.636,753.211 123.964,640.703C98.624,570.608 98.848,498.932 117.682,427.254C124.375,401.053 133.616,375.57 145.272,351.167L145.272,351.165C177.545,283.627 229.991,223.316 297.028,188.779C324.599,174.574 349.341,165.766 377.361,155.908C395.839,125.723 423.624,108.316 459.79,104.827ZM462.015,124.705C430.054,127.703 406.09,143.985 391.02,172.303C360.954,182.895 335.169,191.627 306.188,206.558C242.998,239.113 193.738,296.126 163.318,359.788C152.22,383.023 143.422,407.288 137.051,432.236C119.241,499.977 118.836,567.69 142.773,633.903C181.591,741.284 257.922,817.484 359.772,866.113C383.571,877.289 408.106,886.827 433.204,894.662C442.828,897.675 452.862,900.035 462.147,902.956C456.067,891.526 449.044,877.043 445.236,864.714C437.709,840.337 438.369,810.754 445.89,786.434C452.238,765.908 463.145,749.023 476.648,732.63C510.278,748.397 526.812,768.111 551.857,794.1C575.63,818.769 609.351,836.885 642.86,843.035C681.112,850.338 710.678,844.269 739.895,817.867C760.862,797.31 783.508,767.071 784.327,736.664C784.67,723.918 779.823,715.319 771.583,706.045C774.371,681.512 768.441,654.404 760.975,631.216C751.719,642.009 739.495,654.46 727.01,661.548C734.839,640.756 737.471,625.149 735.921,602.956C726.101,612.34 712.632,623.039 700.618,629.339C699.97,627.946 699.155,626.306 698.606,624.904C706.906,607.536 709.784,592.782 710.017,573.435C699.779,579.986 687.73,587.204 676.364,591.438C669.162,565.731 670.888,524.828 680.966,500.423C692.118,494.935 723.131,477.739 724.732,476.085C725.429,489.72 724.653,499.772 721.75,513.173C737.611,502.399 754.089,487.221 764.505,471.174C769.93,486.716 765.857,504.374 762.92,520.061C767.553,514.591 772.226,509.156 776.941,503.756C788.663,490.579 799.426,479.728 804.557,462.366C809.651,473.43 810.012,486.706 808.677,498.676C818.108,488.992 833.01,471.608 838.971,459.745C842.226,467.041 842.797,472.152 843.52,480.127C857.189,469.26 869.364,453.475 877.994,438.327C881.589,432.016 885.037,421.42 889.222,415.978C903.354,397.6 917.922,382.961 920.652,358.289C921.339,351.589 921.103,344.825 919.951,338.188C917.817,325.651 911.086,304.444 907.241,291.671C902.112,274.635 896.012,253.066 888.697,237.2C883.932,226.781 877.873,217.003 870.663,208.098C853.137,186.323 835.604,174.655 808.794,167.445C787.858,161.815 767.128,151.245 745.225,148.785C727.5,146.53 708.762,153.584 691.887,158.485C682.695,161.161 673.391,163.434 664,165.296C648.834,151.39 638.803,147.616 618.272,148.532C609.077,149.027 599.898,149.76 590.741,150.731C581.48,151.732 566.696,154.15 557.731,153.952C555.504,153.903 541.822,147.026 538.839,145.612C517.232,135.368 486.462,121.5 462.015,124.705ZM496.657,231.016C499.268,232.138 512.149,241.486 515.808,243.725C525.21,249.479 533.569,253.642 543.36,258.549C536.525,262.054 532.987,263.544 525.609,265.629C517.398,267.731 506.442,268.358 498.042,267.472C488.001,260.671 485.201,255 481.091,243.932C485.889,238.193 490.451,235.02 496.657,231.016ZM640.274,656.821L640.846,657.425C644.666,673.463 632.707,702.46 627.427,717.968C622.793,714.685 618.72,710.507 614.7,706.505C610.031,701.884 605.66,696.973 601.611,691.8C616.892,680.644 628.651,672.1 640.274,656.821ZM679.213,685.366C680.192,687.038 680.795,690.467 681.062,692.473C683.209,708.573 675.452,724.411 670.495,739.523C663.053,737.71 658.115,735.578 651.216,732.47C647.541,730.825 645.156,729.578 641.646,727.581C657,714.253 668.564,702.893 679.213,685.366ZM816.555,349.206C834.391,347.487 859.041,351.096 871.92,364.795C873.474,389.962 863.862,414.047 850.503,434.903C850.396,426.811 851.45,419.353 851.896,411.33C852.598,398.657 851.892,385.946 849.79,373.43C844.279,382.483 839.469,391.192 831.638,398.489C832.617,384.417 831.695,376.305 827.255,363.058L819.967,364.264C814.469,379.342 807.272,396.561 796.561,408.513C795.454,391.22 793.537,384.336 787.809,368.058L778.242,371.822C777.058,376.195 776.657,381.16 775.343,385.474C769.89,403.375 766.804,419.496 753.844,433.578C751.695,417.976 745.987,401.786 740.493,387.128C737.187,388.366 733.888,389.625 730.598,390.903C727.947,407.02 721.442,423.942 715.021,439.005C712.147,445.746 706.4,451.872 701.297,457.058C700.751,450.8 699.174,444.47 697.639,438.386C694.986,428.994 691.866,419.931 688.741,410.697C686.38,411.178 683.875,411.828 681.516,412.391C675.448,432.366 668.733,446.743 655.178,462.961C654.691,460.498 654.344,458.005 653.97,455.522C652.086,443.001 649.169,430.728 646.155,418.432C644.085,418.518 641.941,418.704 639.867,418.851C630.922,436.901 623.783,447.32 609.723,461.795C608.611,443.22 607.909,434.641 603.373,416.491L596.831,414.597C588.943,423.916 584.321,429.088 574.518,437.019C574.656,422 573.066,412.826 569.586,398.358C580.791,403.068 589.657,406.747 601.501,409.566C658.492,423.133 705.027,393.361 753.639,369.246C774.506,358.894 792.834,351.07 816.555,349.206ZM745.046,682.306C749.588,686.397 747.504,711.281 746.432,717.894C745.124,725.956 744.307,732.419 737.098,737.373C721.068,748.39 698.476,745.004 680.574,742.139C684.19,739.011 687.767,735.837 691.303,732.617C698.335,726.129 705.405,719.377 710.908,711.586C711.853,710.247 711.94,709.857 713.077,709.713C716.459,714.682 715.246,728.677 714.81,734.605C715.491,735.028 715.996,735.478 717.002,734.975C719.192,733.88 722.402,729.862 724.005,728.033C732,718.912 738.149,708.489 741.319,696.738C742.55,692.177 743.37,687.308 744.859,682.85L745.046,682.306ZM604.295,622.407C604.591,622.743 604.778,622.881 604.842,623.326C607.103,638.901 597.46,665.187 591.293,678.808C588.537,675.399 585.53,671.096 582.892,667.521C578.537,661.615 574.346,655.59 570.322,649.454C584.535,640.896 593.046,634.624 604.295,622.407ZM570.249,586.39L570.872,587.239C571.854,599.446 564.131,620.65 558.972,632.199L553.054,622.225L541.697,604.418C552.939,599.016 560.607,593.959 570.249,586.39Z" style="fill:white;"  data-color="color-4"/>
        <path d="M344.852,288.344C354.034,271.196 368.857,250.829 380.381,234.82C394.065,215.812 417.511,178.798 436.943,166.533C491.316,132.215 550.103,211.325 601.659,206.976C594.405,212.428 579.301,210.367 570.939,209.361C540.831,205.733 515.146,184.011 486.399,177.851C443.668,169.16 415.714,217.565 392.839,245.446C386.578,253.077 379.845,260.205 373.058,267.259C362.373,278.364 352.175,290.839 341.177,301.492C342.415,297.507 344.186,292.357 344.852,288.344ZM640.929,194.346C672.708,212.092 718.113,177.365 750.795,184.06C765.898,187.154 800.823,200.224 814.771,207.387C853.38,227.215 863.583,271.47 875.648,309.899L874.96,309.972C866.845,298.263 859.413,286.237 852.828,273.834C840.214,250.075 826.274,227.905 800.525,216.772C783.858,209.703 766.42,202.754 748.503,199.804C719.891,195.092 692.819,207.341 664.597,207.793C657.375,207.908 647.032,205.832 642.641,199.745C641.782,198.555 640.599,195.877 640.929,194.346ZM338.831,416.04C342.074,456.255 361.142,493.541 391.849,519.712C411.893,536.515 428.484,540.297 451.557,549.894C462.537,554.461 474.977,566.313 483.66,574.324C501.181,591.687 512.103,612.236 525.313,632.468C549.664,669.763 581.111,717.945 616.27,745.329C639.529,763.445 686.033,775.478 714.916,771.996C724.304,770.864 732.918,769.375 741.773,765.215C727.804,786.412 710.405,804.942 684.289,809.67C619.03,821.485 572.314,768.912 534.786,724.112C514.29,699.644 493.284,675.832 472.115,651.89C454.805,632.311 435.074,615.604 410.164,606.494C378.492,595.629 358.757,580.357 339.611,552.906C351.914,590.53 389.526,617.253 418.635,641.67C423.903,646.088 429.561,650.372 434.508,655.137C383.648,639.551 347.996,618.171 322.22,570.082C303.314,534.809 296.593,495.1 299.093,455.227C300.038,450.115 301.128,443.605 302.553,438.716C312.946,403.052 321.081,369.892 355.126,349.936C346.501,368.672 340.707,384.658 338.932,405.655C338.722,408.143 338.166,413.956 338.831,416.04ZM437.194,722.118L437.736,722.194C437.537,723.536 433.151,728.873 431.979,730.719C404.748,773.597 398.051,804.636 408.048,854.106C405.024,850.599 402.493,847.4 399.674,843.748C393.762,835.495 388.695,825.588 386.458,815.322C379.262,782.296 395.514,739.369 427.285,724.79C430.115,723.491 434.137,722.738 437.194,722.118Z" style="fill:rgb(188,108,52);"  data-color="color-2"/>
        <path d="M299.093,455.227C297.046,407.792 292.398,362.848 305.299,315.839C288.022,335.718 273.433,375.84 266.433,400.504C250.917,455.173 254.684,504.454 270.593,558.411C277.133,580.593 278.392,592.146 290.231,613.325C249.225,666.369 270.546,733.347 300.061,786.154C253.908,739.144 226.958,681.095 222.518,615.032C221.771,604.817 221.456,594.574 221.573,584.331C221.76,573.163 222.558,562.193 222.408,550.992C228.494,561.863 233.792,567.399 243.063,575.552C240.688,570.465 236.501,565.032 234.683,559.523C221.22,518.736 221.497,450.993 226.24,408.714C224.78,411.659 222.757,417.837 221.604,421.071L213.487,444.128C187.424,519.356 178.113,601.618 201.368,678.708C196.485,669.839 190.766,661.291 185.883,652.404C178.206,638.435 172.135,623.669 166.666,608.697C139.125,533.309 158.87,447.696 191.435,377.243C219.879,315.704 264.857,266.14 323.892,232.808C336.308,225.798 349.758,218.455 363.276,213.61C355.123,233.718 350.885,251.646 345.143,272.443C343.049,280.029 341.644,288.27 338.967,295.58C341.069,292.559 342.134,290.833 344.852,288.344C344.186,292.357 342.415,297.507 341.177,301.492C352.175,290.839 362.373,278.364 373.058,267.259C379.845,260.205 386.578,253.077 392.839,245.446C415.714,217.565 443.668,169.16 486.399,177.851C515.146,184.011 540.831,205.733 570.939,209.361C579.301,210.367 594.405,212.428 601.659,206.976C603.22,206.852 604.372,206.921 605.717,206.147C607.148,201.32 599.911,190.211 596.481,186.637C611.042,184.55 625.257,184.315 639.909,184.623C642.483,186.195 647.288,188.985 648.201,191.644L647.55,192.764C645.583,194.102 643.374,194.062 640.929,194.346C640.599,195.877 641.782,198.555 642.641,199.745C647.032,205.832 657.375,207.908 664.597,207.793C692.819,207.341 719.891,195.092 748.503,199.804C766.42,202.754 783.858,209.703 800.525,216.772C826.274,227.905 840.214,250.075 852.828,273.834C859.413,286.237 866.845,298.263 874.96,309.972L875.648,309.899C879.691,320.052 882.673,327.645 885.404,338.236C839.989,319.7 803.692,317.546 757.744,337.469C695.246,364.568 651.306,403.552 579.07,373.303C568.58,368.911 557.374,363.143 546.878,359.125C517.722,347.965 487.048,353.451 459.004,365.357C423.991,380.221 385.303,407.674 344.981,395.22C358.059,408.294 378.287,416.137 396.546,415.268C434.277,413.474 467.658,393.522 506.14,392.459C489.651,404.159 479.568,428.815 476.802,448.024C473.696,469.593 470.541,510.779 473.573,531.776C468.569,528.264 460.691,523.237 454.998,521.178C439.119,515.437 428.335,510.797 414.232,501.453C392.042,486.752 378.933,467.003 363.209,446.254C357.344,438.672 351.278,431.148 345.235,423.696C343.993,422.165 340.491,416.13 339.048,415.954L338.831,416.04C338.166,413.956 338.722,408.143 338.932,405.655C340.707,384.658 346.501,368.672 355.126,349.936C321.081,369.892 312.946,403.052 302.553,438.716C301.128,443.605 300.038,450.115 299.093,455.227ZM471.115,196.188C445.414,199.109 424.509,225.152 408.581,243.286C432.186,243.54 436.106,230.949 457.092,221.486C450.067,250.241 447.7,286.28 486.027,287.418C491.628,287.584 497.478,288.574 503.203,288.705C489.415,294.18 465.315,295.157 450.62,291.183C443.324,289.21 439.173,271.761 437.715,264.639C434.108,276.238 432.472,284.924 438.478,296.367C442.999,304.995 450.858,311.395 460.224,314.075C487.378,322.137 526.614,298.722 550.808,287.219C554.912,285.268 557.665,282.389 560.448,278.903C558.641,289.049 556.36,295.928 550.304,304.264C543.453,313.512 543.401,314.043 534.841,321.238C575.662,305.255 597.375,264.924 643.729,263.362C657.006,262.915 667.464,264.794 679.747,270.213C692.536,275.809 703.916,284.189 713.057,294.741C704.547,274.278 697.138,255.532 675.007,246.333C657.12,238.897 635.594,240.287 617.019,244.206C610.771,245.524 601.497,248.245 595.409,246.871C575.522,242.385 557.317,233.722 539.179,225.192C521.007,216.645 491.119,194.293 471.115,196.188ZM751.16,220.619C740.227,222.697 735.66,228.733 730.878,238.108C751.094,241.55 773.247,251.806 786.888,267.318C790.224,271.126 793.82,275.093 797.009,278.998C790.783,259.72 776.178,219.566 751.16,220.619ZM532.791,502.161C564.495,497.004 585.103,530.589 598.632,553.568C604.368,563.407 610.003,573.305 615.535,583.26C615.574,556.829 605.644,533.423 596.328,509.066C633.784,533.366 644.699,585.769 657.318,626.118C660.619,636.432 664.225,647.828 666.97,658.262C663.449,665.411 658.876,668.389 652.083,671.809C651.825,669.286 651.576,666.764 651.443,664.231C650.795,651.91 648.545,639.817 646.12,627.733C634.827,633.208 628.547,636.211 616.046,637.647C614.749,620.908 614.549,613.981 611.612,596.798C600.1,600.941 595.715,602.313 583.582,602.751C582.816,599.312 582.248,593.241 581.72,589.547C580.789,583.149 579.64,576.785 578.275,570.466C572.195,571.892 568.072,572.33 561.832,572.554C554.737,539.696 538.665,525.465 510.034,510.925C517.797,505.9 523.807,503.512 532.791,502.161ZM325.493,660.704C329.244,663.892 332.59,667.645 336.933,671.169C350.154,681.897 363.251,687.98 378.779,694.146C350.262,718.349 345.552,738.491 341.708,774.357C340.607,779.713 340.88,795.182 341.554,800.962C337.672,795.142 334.466,789.93 331.667,783.498C313.934,742.753 309.519,702.721 325.493,660.704Z" style="fill:rgb(113,30,44);"  data-color="color-1"/>
    </g>
</svg>
