<svg width="100%" height="100%" viewBox="0 0 905 841" version="1.1" xmlns="http://www.w3.org/2000/svg" xmlns:xlink="http://www.w3.org/1999/xlink" xml:space="preserve" xmlns:serif="http://www.serif.com/" style="fill-rule:evenodd;clip-rule:evenodd;stroke-linejoin:round;stroke-miterlimit:2;">
    <g transform="matrix(1,0,0,1,-47.5419,-87.1951)">
        <path d="M367.347,109.935L424.102,108.699L476.193,141.724L491.67,186.451L518.84,126.417L556.56,97.863L607.776,99.896L650.891,122.63L668.874,174.396L725.546,184.468L762.735,226.896L756.664,292.923L696.512,349.781L775.572,379.288L802.599,434.82L789.99,493.739L729.401,535.271L728.952,588.394L689.27,628.734L609.492,639.264L526.515,588.885L534.76,670.609L570.883,714.449L529.361,743.048L508.563,718.205L485.945,611.047L405.219,648.32L342.176,636.21L313.886,596.513L310.718,552.653L252.381,536.654L223.391,480.08L231.721,429.241L260.262,399.016L302.275,374.961L288.796,360.279L243.403,311.248L236.132,280.4L257.745,226.578L315.011,200.546L328.834,145.137L367.347,109.935Z" style="fill:rgb(13,115,51);" data-color='color-1'/>
        <path d="M582.923,87.231C603.544,86.663 623.783,92.872 640.539,104.906C662.689,120.906 672.133,140.204 676.337,166.333C691.685,164.961 704.095,165.533 718.562,171.509C734.388,178.048 747.362,187.768 757.116,201.926C771.009,221.889 776.269,246.609 771.707,270.499C765.007,306.167 742.828,327.412 714.344,346.838C729.059,348.263 752.507,356.367 764.793,364.009C791.681,380.734 802.925,399.095 810.435,428.637C849.237,442.695 878.884,464.96 889.981,506.4C904.788,510.072 919.723,518.188 924.538,533.716C926.454,539.896 925.811,545.045 925.277,551.302C933.226,558.074 939.121,563.333 944.325,573.221C959.377,601.821 953.985,649.717 923.841,666.798C915.219,671.684 905.104,671.346 895.728,668.235C880.17,677.932 870.335,680.501 853.512,672.165C837.323,679.13 819.746,678.415 806.361,665.406C798.753,658.01 797.175,646.926 797.388,636.706C791.647,633.549 784.504,627.423 781.79,621.444C768.137,591.368 789.649,560.592 815.006,547.194C812.994,530.14 822.969,519.719 837.151,512.508C830.028,496.499 821.241,488.124 805.961,479.72C794.978,507.355 770.458,530.325 740.597,535.259C742.076,541.66 742.92,548.191 743.117,554.758C744.807,609.624 694.854,648.961 642.754,650.391C650.603,668.755 656.905,674.695 670.657,688.407C687.501,679.122 707.813,671.833 725.381,684.344C727.177,685.747 731.632,690.736 733.525,691.358C759.235,699.81 778.463,717.132 788.084,742.593C788.551,743.829 794.486,750.429 795.856,752.106C802.11,759.76 805.651,767.944 806.107,777.986C806.407,784.651 805.455,791.314 803.301,797.629C796.359,818.493 770.53,853.504 755.363,870.048C772.103,872.145 793.719,876.715 808.714,884.665C812.979,886.926 815.134,892.022 810.672,895.526C800.944,903.166 784.765,906.463 772.814,908.949C736.95,916.41 699.892,920.327 663.388,922.856C624.347,925.549 585.229,926.954 546.096,927.07C514.791,927.269 481.781,927.544 450.625,926.535C409.89,926.376 242.69,918.665 214.448,896.778C212.738,895.452 210.75,893.535 210.698,891.205C210.667,889.84 211.249,888.529 212.129,887.515C223.876,873.97 286.775,866.85 305.239,865.777C272.565,838.099 237.26,835.391 210.126,796.137C203.162,786.232 197.561,775.436 193.472,764.039C183.226,734.847 185.896,697.058 218.484,681.837C221.076,680.45 228.904,679.469 230.848,678.139C251.519,663.99 274.287,662.248 297.625,673.274C320.274,683.975 330.564,703.364 338.755,727.133C349.134,713.458 362.604,709.566 378.965,713.839C382.244,697.294 395.342,672.398 403.207,657.457C390.911,657.883 382.215,658.047 369.882,655.397C346.017,650.27 327.364,638.605 313.859,618.103C303.641,602.591 298.025,578.665 302.126,560.409C270.031,558.733 250.761,546.703 230.474,522.267C217.582,520.025 194.424,512.752 182.716,507.061C159.547,495.797 138.371,469.661 130.504,445.1C116.623,444.417 103.528,437.444 97.153,424.847C94.685,419.971 93.702,415.251 92.183,410.074C57.039,387.484 59.284,346.139 53.884,309.439C50.355,285.449 34.154,242.126 73.087,239.052C76.901,221.907 92.189,209.608 109.929,218.017C114.39,220.132 117.435,223.106 120.886,226.565C126.986,219.803 131.666,215.26 141.468,214.403C158.946,212.875 170.666,228.131 175.285,243.226C179.546,257.154 180.281,272.868 181.356,287.455C195.668,272.443 210.531,266.404 229.885,276.76C231.177,232.047 263.435,195.773 308.933,193.935C307.33,179.819 309.916,162.854 315.667,149.863C325.556,127.891 343.81,110.778 366.375,102.326C389.573,93.168 415.497,93.833 438.196,104.168C462.666,115.17 481.791,135.407 491.394,160.459C507.008,118.788 536.512,88.674 582.923,87.231ZM291.828,371.619C270.315,358.824 256.898,348.42 242.715,326.891C240.836,324.038 236.196,312.814 235.195,311.823C231.116,318.428 223.976,329.77 221.913,336.998C214.873,361.67 219.534,370.311 201.183,391.004C209.226,411.94 198.836,424.08 181.902,434.841C189.651,446.772 202.108,454.479 214.744,460.303C215.688,454.47 216.821,448.053 218.529,442.393C229.782,405.404 256.214,383.774 291.828,371.619ZM339.909,375.767C332.195,378.08 324.324,379.804 316.595,382.05C293.904,388.641 268.253,399.528 252.715,417.868C238.856,434.225 231.49,454.749 233.679,476.234C236.861,507.465 257.474,534.907 289.199,540.634C295.295,541.731 301.496,542.125 307.681,541.808C311.79,541.602 318.811,540.226 321.948,542.832C322.862,545.56 319.713,558.301 319.251,562.739C318.784,567.342 318.698,571.975 318.992,576.592C321.663,618.018 356.471,641.532 396.554,639.233C420.831,637.841 446.321,623.568 464.276,607.946C478.47,595.596 489.01,579.643 500.035,564.589C500.168,564.443 500.301,564.296 500.435,564.15C500.05,578.658 497.821,593.86 497.432,608.626C496.213,654.979 505.957,692.838 531.137,731.505C542.43,725.444 549.334,720.946 558.097,711.67C540.204,698.934 526.77,671.373 521.001,650.842C512.602,620.956 516.771,589.621 520.251,559.355C524.933,563.883 532.669,574.198 537.439,579.651C554.368,598.987 573.285,614.436 597.476,624.077C643.228,642.309 700.691,629.462 719.926,580.225C728.44,558.434 724.476,539.874 715.066,519.009C736.597,517.668 752.429,516.275 769.376,501.444C783.648,488.878 792.283,471.113 793.348,452.128C794.569,430.957 788.25,411.173 774.016,395.231C752.665,371.317 713.872,362.426 682.948,359.9C673.828,359.155 664.164,359.525 654.912,359.017C663.27,355.526 670.817,351.011 678.781,346.814C712.056,329.282 747.648,305.229 753.65,264.858C756.604,246.05 751.901,226.842 740.592,211.527C729.639,196.83 713.109,186.529 694.88,183.418C684.37,181.624 670.516,186.96 661.772,185.659C658.158,183.198 657.373,161.66 655.635,156C638.452,100.041 563.229,87.308 527.366,134.263C503.481,165.535 505.439,184.356 497.246,219.395C496.979,221.753 497.16,225.774 494.857,226.722C492.821,225.499 492.302,221.405 491.796,219.148L491.643,218.762C488.544,210.767 485.073,196.967 482.88,188.379C470.423,139.601 425.947,99.269 373.912,119.674C356.858,126.361 341.053,138.429 333.441,156.019C329.328,165.657 327.137,176.006 326.99,186.484C326.95,192.655 330.553,209.589 329.397,212.162C325.356,212.894 315.161,212.408 310.256,212.506C289.899,212.914 271.772,223.126 260.16,240.001C249.6,255.605 245.721,274.785 249.388,293.266C257.943,338.719 303.441,358.066 342.362,371.669L348.538,373.442C345.594,374.316 342.92,375.14 339.909,375.767ZM419.759,249.167C455.368,246.641 470.221,278.837 475.437,309.229C479.606,333.521 476.003,357.123 468.794,380.486C471.42,383.405 474.079,386.628 476.643,389.629C470.919,389.618 461.133,387.891 455.123,387.196C439.866,385.432 422.978,383.993 407.738,386.016C396.154,387.844 386.151,390.403 376.859,397.941C374.563,399.804 370.064,403.686 367.732,400.479C366.965,392.386 378.107,383.319 384.224,379.362C366.633,349.189 362.319,298.091 385.162,269.34C394.288,257.853 405.119,250.948 419.759,249.167ZM587.121,410.091C596.128,410.28 606.881,421.798 616.899,423.491C622.967,424.516 634.106,419.248 636.01,425.326C635.01,428.676 632.129,430.227 629.326,432.137C621.906,437.19 614.264,437.951 605.63,436.042C601.856,441.78 596.397,450.625 593.691,456.775C580.569,486.606 570.484,519.958 538.955,535.764C523.337,543.593 502.597,544.249 486.147,538.179C460.758,528.81 446.34,509.367 435.226,485.845C425.399,467.321 427.419,461.141 410.891,443.192C402.682,444.883 385.705,446.43 380.689,438.237C379.985,431.64 388.949,433.763 393.561,433.3C400.157,432.638 403.046,431.296 408.553,428.011C414.818,424.275 425.838,415.127 433.134,420.431C435.751,424.48 431.1,429.54 428.433,432.425C447.094,446.045 467.154,454.979 490.233,457.612C526.259,461.769 562.444,451.275 590.656,428.489C585.312,424.427 575.772,413.318 587.121,410.091ZM412.514,194.161C421.824,193.582 439.019,196.829 440.942,209.299C441.975,216 429.644,213.214 425.529,213.128C411.901,212.843 400.368,218.695 390.43,227.791C389.067,229.226 386.299,232.719 385.232,234.513C381.843,240.211 373.844,243.622 372.724,234.136C371.865,226.864 375.767,219.927 380.011,214.198C388.326,202.974 398.613,196.158 412.514,194.161ZM474.411,404.96C476.776,408.503 478.693,411.381 481.69,414.398C495.063,427.758 518.523,426.687 532.99,415.707C536.82,412.8 542.175,404.884 546.293,404.844C549.553,406.593 548.747,410.369 547.549,413.306C534.883,444.371 484.391,452.727 469.894,418.37C467.91,413.67 466.102,408.93 467.943,403.999C468.991,401.892 468.243,402.63 470.037,401.493C472.539,401.581 473.289,403.005 474.411,404.96ZM580.415,242.16C604.418,241.138 622.728,258.782 629.748,280.608C639.764,311.748 635.244,340.569 623.261,370.37C627.969,372.578 645.648,383.249 639.546,389.452C635.336,390.493 630.695,384.744 625.9,382.966C615.319,379.04 607.022,377.949 596.037,377.15C571.422,375.993 554.456,381.613 532.436,390.17C534.98,384.223 536.161,382.094 540.067,376.957C534.675,365.088 530.483,349.264 529.617,336.244C527.207,300.05 535.582,245.891 580.415,242.16ZM577.835,185.159C597.929,183.507 620.104,197.207 626.125,217.261C626.939,219.972 626.615,222.98 625.037,225.361C619.81,229.021 613.422,219.663 609.277,216.143C600.573,210.332 592.825,206.222 582.112,205.232C578.622,204.913 575.106,205.049 571.651,205.636C567.374,206.377 560.279,209.76 556.338,207.712C552.556,205.747 554.467,200.002 556.438,197.236C561.99,189.443 568.785,186.576 577.835,185.159ZM581.947,711.603C569.085,730.069 549.791,744.345 527.616,749.121C523.038,746.188 518.596,740.897 515.146,736.729C499.668,718.031 491.812,696.514 486.696,673.087C484.394,662.587 482.756,651.952 481.79,641.246C481.18,634.331 480.942,625.879 480.077,619.228C476.698,622.468 464.614,631.108 462.952,633.638C449.187,654.595 438.22,681.863 429.719,705.242C425.314,717.356 422.914,728.092 419.276,739.151C428.939,748.776 437.449,758.627 437.582,773.039C437.658,781.133 434.878,789.222 429.112,795.03C428.825,795.318 428.533,795.601 428.236,795.879L423.741,799.191C427.353,819.59 423.816,839.301 412.008,856.519C411.789,856.836 411.565,857.15 411.336,857.46C441.748,855.678 474.428,855.289 504.916,855.217C524.912,855.17 550.705,854.784 570.784,855.938C571.142,853.905 573.791,844.581 573.779,844.37C572.321,819.065 578.625,798.683 600.177,783.172C612.574,774.251 628.84,770.432 645.139,768.311C636.96,756.828 635.373,746.948 639.806,733.436C611.088,705.722 592.669,678.089 582.489,638.765C567.931,631.194 554.369,621.845 542.114,610.934C538.467,607.718 535.253,603.968 531.671,600.767C532.608,611.747 532.77,623.881 534.493,634.761C537.627,654.553 546.674,675.834 560.127,690.832C567.049,698.549 574.614,704.566 581.947,711.603Z" style="fill:rgb(0,46,14);"  data-color='color-2'/>
        <path d="M420.008,263.135C433.455,261.932 444.088,267.244 450.829,278.849C466.628,306.045 467.499,346.294 460.766,376.483C456.805,374.799 454.051,374.187 449.853,373.196C451.293,363.967 451.022,356.045 451.033,346.707C443.45,342.84 435.265,340.714 426.861,339.611C433.993,333.41 441.229,330.055 450.817,331.687C448.183,321.37 446.504,316.781 439.81,308.616C436.971,305.976 434.743,304.011 431.042,302.47C426.15,300.379 420.609,300.42 415.749,302.583C392.288,313.169 395.731,353.265 404.042,372.719C399.631,373.39 397.589,373.912 393.306,375.228C389.481,366.08 386.561,356.579 384.587,346.862C380.041,324.191 381.046,300.73 394.191,280.823C400.279,271.604 409.056,265.184 420.008,263.135ZM578.124,256.087C616.042,253.032 624.437,300.107 621.22,328.486C619.615,342.638 617.037,353.481 613.65,367.18C609.269,366.397 604.879,365.661 600.482,364.972C602.763,358.034 603.524,349.681 604.672,342.344C597.729,338.733 590.146,335.858 582.414,334.588C590.861,328.167 594.95,326.8 605.389,326.953C603.434,317.231 601.292,309.324 594.705,301.805C593.198,300.319 591.819,299.214 589.985,298.114C585.068,295.17 579.163,294.358 573.634,295.865C566.302,297.903 559.845,303.392 556.435,310.096C546.964,328.715 550.236,349.617 555.559,368.523C552.924,369.452 550.02,370.889 547.452,372.069C546.586,368.982 545.771,365.88 545.005,362.766C537.192,330.665 537.711,265.403 578.124,256.087Z" style="fill:rgb(254,254,252);"/>
        <path d="M517.206,491.114C530.691,490.325 542.824,494.81 553.132,503.332C535.114,525.788 518.09,531.856 490.882,522.557C477.227,517.529 470.49,510.942 461.438,499.612C483.883,488.466 499.269,489.524 521.235,500.226C519.478,498.242 515.105,494.14 515.528,491.673L517.206,491.114Z" style="fill:rgb(237,77,97);fill-rule:nonzero;"/>
        <path d="M213.487,719.015C233.759,718.239 255.553,753.133 266.499,767.986C286.513,795.56 311.156,818.527 338.383,838.802C347.35,845.86 356.808,852.097 364.756,860.369C370.46,866.305 377.9,877.836 364.52,879.799C344.967,878.702 316.863,850.464 299.457,840.137C271.273,823.416 239.314,811.15 221.051,782.272C212.587,768.888 194.833,730.589 213.487,719.015Z" style="fill:rgb(13,115,51);fill-rule:nonzero;"  data-color='color-1'/>
        <path d="M699.029,696.11C702.372,695.724 705.752,695.617 709.041,696.446C713.974,697.689 717.99,700.713 720.781,704.943C731.468,721.14 717.881,741.927 721.683,748.581L722.593,748.758C733.52,744.251 737.126,721.784 737.581,711.591C753.578,720.39 769.895,734.644 772.58,753.837C775.117,771.971 761.667,790.141 751.656,804.141C746.517,811.318 741.274,818.42 735.93,825.446C718.092,848.583 702.258,860.713 672.293,864.589C650.089,867.462 615.137,865.077 596.801,850.841C595.543,849.677 594.554,848.645 593.452,847.346C589.968,843.235 590.752,832.379 591.382,827.156C592.698,816.251 599.433,805.046 608.595,798.645C633.302,781.384 660.313,786.98 686.583,796.948C693.078,799.412 701.176,802.891 707.814,804.447C709.338,804.805 710.295,804.328 711.373,803.468C712.297,793.951 680.68,780.848 672.257,777.759C679.177,777.473 696.859,776.771 700.716,769.674C699.857,763.649 681.488,766.922 676.257,765.524C670.465,764.162 664.566,761.954 660.08,757.908C657.527,755.606 653.315,746.462 656.337,743.634C657.919,743.852 662.779,746.204 664.647,747.068C672.624,750.756 680.943,751.135 689.226,747.788C696.857,744.677 702.89,738.588 705.931,730.929C711.883,715.968 705.911,703.705 691.036,698.308C694.029,697.3 695.975,696.815 699.029,696.11ZM141.147,232.051C163.771,231.405 163.674,279.268 166.577,294.867C167.971,302.358 168.561,309.713 170.278,317.464C155.421,322.4 139.956,332.008 135.973,348.244C135.125,351.701 134.449,357.923 135.726,361.245L136.442,361.051C137.408,357.696 140.626,352.058 142.562,349.035C151.454,335.154 166.443,329.214 181.902,325.767C182.423,319.828 183.496,315.1 186.136,309.411C190.432,299.643 206.197,283.783 217.717,290.026C228.178,295.695 216.874,308.566 213.311,314.92C209.453,321.799 204.854,330.133 203.503,337.92C199.36,361.988 194.237,387.703 165.633,392.101C161.138,392.793 149.872,391.348 147.434,395.178C149.296,401.279 166.29,405.092 172.077,403.395C175.683,402.338 180.736,400.352 184.221,400.305C185.287,400.828 185.719,400.95 185.94,402.369C187.916,415.085 169.428,422.614 160.537,425.659C149.93,428.667 133.003,431.003 122.652,426.23C116.416,423.354 114.259,420.428 111.863,414.505C117.721,414.475 137.957,414.007 138.881,406.239C136.23,403.867 126.16,405.329 121.669,404.357C115.833,403.095 111.638,402.151 106.328,399.206C91.586,391.031 83.467,378.305 78.864,362.488C73.061,342.553 73.607,323.244 70.856,302.969C69.474,292.524 65.766,282.045 65.042,271.552C64.628,265.551 66.027,258.715 72.559,257.196C74.619,256.717 77.902,257.116 79.48,258.416C93.909,270.297 100.812,298.04 105.114,315.304C102.377,317.848 94.636,325.361 95.544,329.257L96.476,329.825C99.427,328.971 105.848,325.116 109.03,323.481C115.772,319.947 122.748,316.878 129.909,314.295C134.425,312.7 154.789,307.115 156.686,305.665C157.216,303.867 157.231,304.733 156.681,302.975C154.133,300.422 150.738,300.361 147.127,299.801C146.496,290.21 143.71,281.595 141.768,272.394C138.968,259.131 123.8,240.499 141.147,232.051ZM866.794,522.183C880.708,519.984 913.253,527.014 907.845,546.883C903.732,549.5 882.555,543.457 878.364,548.569C878.264,551.142 881.736,551.57 884.111,551.946C900.448,554.487 914.12,560.119 924.512,573.93C939.615,594.002 938.996,633.69 918.477,650.236C916.623,651.731 907.925,655.293 906.424,654.141C901.365,650.259 908.807,639.84 904.642,632.717C903.241,632.137 902.283,632.697 901.561,633.905C895.674,643.757 890.923,654.32 879.019,658.117C875.715,659.171 869.961,660.065 866.563,658.287C864.74,655.265 868.115,651.104 869.215,647.789C870.484,643.963 872.143,635.353 868.977,632.313C867.273,632.54 868.04,632.198 866.729,633.631C860.167,648.004 849.171,659.254 832.519,659.472C819.288,659.646 814.808,650.273 815.014,638.56C815.754,638.402 816.492,638.24 817.229,638.071C822.833,636.787 823.829,636.113 828.077,630.786C832.828,624.827 831.921,602.55 821.556,603.683C815.431,604.352 817.108,616.469 815.004,620.473C812.647,624.959 803.742,620.452 800.79,618.344C792.808,611.905 794.237,597.623 797.954,589.16C805.184,572.699 821.496,559.885 839.156,556.589C842.755,555.892 855.157,556.031 856.874,553.922C855.605,546.767 837.588,544.613 831.826,543.951C834.997,528.598 853.244,523.921 866.794,522.183ZM264.137,684.191C270.688,683.631 278.75,685.425 284.984,687.517C308.505,695.407 322.916,722.929 328.116,745.64C329.538,751.853 329.994,760.311 332.205,766.234C332.634,767.383 333.508,767.636 334.449,767.922L335.524,767.192C338.251,762.41 338.675,753.096 339.079,747.387C345.829,750.687 373.83,765.278 379.382,765.616C380.959,764.341 380.5,765.132 380.872,763.199C378.953,756.424 359.069,743.583 352.59,739.233C356.581,732.039 362.579,728.933 370.92,730.597C387.821,733.971 404.888,745.876 415.442,759.318C419.651,764.678 421.055,769.719 419.992,776.333C414.934,791.246 406.876,781.637 401.793,783.184C400.418,785.923 406.317,796.624 407.226,801.477C410.219,817.454 408.112,830.817 399.548,844.623C381.173,820.183 350.124,806.594 329.726,781.942C302.4,748.917 294.866,707.826 254.734,685.945C258.536,684.938 260.221,684.647 264.137,684.191ZM229.406,697.137C257.521,694.57 280.338,727.623 291.469,749.13C310.581,786.061 341.93,808.122 373.816,833.032C386.585,843.009 398.079,856.145 386.753,872.422L383.421,867.517C370.661,848.268 358.207,837.856 339.764,824.628C330.488,817.976 320.402,808.646 312.47,800.4C301.497,788.885 291.313,776.644 281.986,763.759C265.497,741.103 246.646,707.454 216.283,704.281C220.896,700.001 223.333,698.548 229.406,697.137ZM786.054,767.291C796.909,787.102 774.138,818.495 763.111,833.902C753.927,846.735 743.676,860.841 731.717,871.46C700.741,898.963 652.622,898.81 614.351,889.878C604.323,887.538 596.051,883.182 589.461,875.624C585.824,869.77 585.904,867.173 586.05,860.541C617.643,885.112 681.007,886.829 714.614,866.12C721.033,862.137 726.962,857.413 732.279,852.045C741.993,842.316 750.018,830.867 758.183,819.868C770.848,802.805 781.125,788.367 786.054,767.291ZM98.25,232.967C108.041,233.503 111.543,242.03 115.672,249.457C124.682,265.661 129.228,282.642 133.401,300.534C129.664,301.79 126.663,302.986 123.016,304.507L118.144,307.008C112.278,284.826 106.533,260.441 89.599,244.206C91.191,238.118 92.135,235.258 98.25,232.967Z" style="fill:rgb(254,254,252);"/>
    </g>
</svg>
