<svg width="100%" height="100%" viewBox="0 0 909 675" version="1.1" xmlns="http://www.w3.org/2000/svg" xmlns:xlink="http://www.w3.org/1999/xlink" xml:space="preserve" xmlns:serif="http://www.serif.com/" style="fill-rule:evenodd;clip-rule:evenodd;stroke-linejoin:round;stroke-miterlimit:2;">
    <g transform="matrix(1,0,0,1,-64.3702,-156.139)">
        <path d="M851.046,568.286C849.524,571.971 841.323,589.845 840.802,592.791C838.152,599.124 835.376,605.402 832.473,611.623C852.962,620.111 874.456,632.371 893.836,643.213C895.271,644.016 897.441,645.306 898.678,646.367C885.358,648.265 872.135,650.775 859.049,653.889C850.203,656.036 841.494,658.757 832.916,660.851C839.462,680.082 847.27,701.711 852.93,721.036C846.723,717.51 840.563,712.643 834.337,708.931C815.911,697.943 797.08,687.04 777.031,679.324C783.129,676.954 794.016,673.698 799.305,671.156C802.493,666.398 805.578,658.78 808.664,653.449C661.858,591.687 499.217,578.203 344.245,614.944C305.702,624.511 267.982,637.132 231.443,652.689C230.837,652.942 230.455,653.139 229.883,653.446C232.677,658.378 236.134,666.779 238.707,670.628C243.833,673.539 255.421,677.163 261.291,679.046C239.633,688.569 218.745,699.756 198.816,712.507C193.883,715.679 187.813,719.486 183.219,723.029C185.04,716.068 187.991,707.571 190.301,700.656C194.792,687.376 199.401,674.136 204.127,660.937C183.253,654.354 159.676,649.737 138.035,646.464C140.577,644.646 150.635,639.167 153.969,637.305C170.592,628.05 187.594,619.493 204.932,611.658C202.191,605.314 199.508,598.727 196.099,592.729C192.681,584.446 188.62,576.431 185.241,568.041C290.258,516.577 423.566,495.722 540.033,499.146C584.249,500.551 628.307,505.146 671.862,512.895C714.802,520.46 757.209,531.037 798.152,546.084C815.827,552.58 834.403,559.432 851.046,568.286ZM365.6,530.13C355.816,532.391 340.591,536.475 331.028,538.147C333.767,539.998 336.973,542.054 339.586,544.016C338.924,550.026 337.299,555.35 336.37,561.128C334.511,563.645 331.435,565.541 329.072,567.678L334.471,571.784C333.902,577.267 332.288,589.558 329.893,594.465C328.912,596.475 325.373,600.4 323.817,603.35C333.546,600.485 343.527,598.243 353.411,595.943C350.504,593.392 348.198,592.293 345.22,590.198L345.995,584.062C346.062,582.878 346.103,581.349 346.284,580.214C352.255,578.521 358.294,577.082 364.385,575.9C365.929,578.957 367.502,582 369.103,585.028C367.323,587.647 365.157,590.669 363.587,593.371C374.948,590.897 387.391,588.67 398.895,586.694C397.198,585.495 391.314,581.605 390.158,580.371C385.788,575.703 380.768,567.233 377.241,561.643C378.121,559.839 379.47,557.302 380.064,555.456C377.427,554.761 374.78,554.147 372.259,553.111C369.2,549.5 364.505,542.188 361.708,538.03C362.84,536.157 365.239,532.454 365.86,530.575L365.6,530.13ZM349.909,552.402C351.785,553.498 357.983,564.436 359.166,566.803C358.426,567.804 358.199,567.63 356.84,568.178C353.652,569.044 351.419,569.403 348.169,569.766C348.428,565.089 349.131,556.939 349.909,552.402ZM295.472,547.15C288.633,549.453 279.588,552.232 273.016,554.878C271.84,562.689 269.12,575.974 268.552,583.175C262.23,578.463 251.881,569.411 245.868,563.993C238.876,566.857 231.939,569.853 225.06,572.98C227.848,574.413 230.79,575.646 232.922,577.916C233.762,582.966 234.865,590.565 236.177,595.378L231.39,602.719L231.787,602.867C238.328,605.254 238.245,602.942 242.07,611.018C243.541,614.124 245.511,618.487 247.12,621.586C245.706,624.856 244.24,628.103 242.72,631.325C249.546,629.02 263.137,624.157 269.53,621.065C266.652,619.628 264.099,618.391 261.147,617.124C258.829,612.084 256.724,606.771 254.617,601.625C253.223,598.06 250.463,591.829 249.521,588.61C254.377,594.352 269.813,606.571 276.333,610.68C277.314,598.964 279.856,587.637 280.977,575.535C284.338,583.357 288.726,598.114 290.913,606.71C289.81,608.875 287.77,612.621 287.025,614.764C297.345,611.352 309.392,608.057 319.273,604.51C315.733,603.315 312.232,602.237 308.968,600.386C306.687,594.354 304.302,588.258 302.466,582.079C303.84,578.628 305.427,577.082 307.029,574.157C304.155,573.263 301.246,572.325 298.345,571.544L292.598,555.644C293.546,553.834 296.517,548.842 296.155,547.234L295.472,547.15ZM432.734,519.62C421.04,520.361 408.977,522.928 398.024,523.52C400.549,526.296 403.607,528.51 405.659,530.838C406.329,537.171 406.873,543.617 407.613,549.918C405.703,551.997 403.258,554.532 401.473,556.669C403.641,557.91 406.348,559.364 408.409,560.688C409.269,566.134 409.827,571.783 410.437,577.277L404.918,585.648C415.734,584.303 427.002,583.171 437.73,581.583C434.861,579.085 432.398,577.178 429.381,574.895L428.551,567.914L427.557,560.25C428.884,560.072 432.018,559.485 432.776,560.437C436.696,565.364 441.767,575.357 444.823,580.86C452.45,580.064 460.414,579.357 468.004,578.404C464.688,573.939 461.494,572.936 458.145,569.184C454.615,565.23 451.629,559.642 448.154,555.53C450.483,554.125 451.982,553.291 453.755,551.106C462.361,540.496 458.155,522.793 443.733,520.158C439.865,519.452 436.682,519.485 432.734,519.62ZM432.627,531.726C434.22,531.669 436.132,531.511 437.602,532.131C439.53,532.939 441.016,534.539 441.68,536.521C443.873,542.902 439.276,546.386 433.757,547.813C430.764,548.496 429.169,548.725 426.105,549.038C425.331,543.609 424.776,538.151 424.439,532.678C427.161,532.271 429.89,532.012 432.627,531.726ZM793.141,563.31C779.898,565.561 775.459,574.315 776.427,586.607C777.287,597.532 798.246,603.586 799.812,610.123C800.137,611.428 799.93,612.811 799.237,613.964C795.804,619.64 785.255,614.069 781.348,611.255C775.221,606.841 773.176,600.754 772.168,593.65C772.115,593.281 772.065,592.912 772.016,592.543C768.307,600.024 765.256,609.639 762.014,617.459C764.924,616.286 766.402,615.49 769.055,613.741C777.741,621.803 782.105,626.111 794.205,628.218C800.165,628.732 806.364,628.146 811.04,623.795C818.756,616.614 821.444,603.744 813.537,595.489C807.93,589.636 800.891,587.217 795.208,581.789C793.911,580.55 793.339,576.853 794.923,575.443C800.698,571.736 811.391,579.964 814.506,584.65C816.777,588.065 817.931,590.973 818.855,594.215C821.146,589.747 825.655,577.814 827.152,572.717C824.998,574.081 822.834,575.427 820.657,576.754C813.517,569.771 805.561,563.253 794.881,563.251C794.301,563.254 793.72,563.274 793.141,563.31ZM652.809,525.709C653.309,527.73 655.509,530.585 656.767,532.346C655.291,534.676 653.445,537.445 652.065,539.761C647.134,548.033 646.116,549.632 636.809,551.767C637.66,553.414 638.78,555.449 639.554,557.094C637.045,562.022 631.188,572.151 627.084,575.75C625.311,577.305 620.141,580.696 617.819,582.486C628.01,583.802 637.055,585.314 647.152,587.149C645.491,584.536 643.765,582.673 641.569,580.487C643.123,577.436 645.777,572.61 647.783,569.824C652.202,571.258 661.156,572.765 666.08,573.725L666.655,578.346C666.856,580.119 667.077,581.889 667.318,583.657C664.684,585.833 662.334,587.482 659.55,589.43L693.9,596.488C692.759,594.659 689.045,589.134 688.337,587.589C686.123,582.756 684.738,571.778 684.138,566.227C685.739,564.819 687.927,563.021 689.314,561.474C686.858,559.696 684.844,558.385 682.259,556.789C680.576,551.901 679.096,542.72 678.133,537.46C680.234,535.564 681.868,534.256 684.123,532.536C678.202,530.265 668.939,529.002 662.625,527.646C661.101,527.319 653.98,525.825 652.809,525.709ZM661.861,546.175L662.396,546.507C663.469,548.489 664.862,560.634 665.283,563.806C662.986,563.619 660.348,563.053 658.052,562.632C656.289,562.17 654.693,561.612 652.97,561.032C655.96,556.095 658.923,551.143 661.861,546.175ZM498.52,514.864C492.691,515.89 487.265,518.178 483.703,523.172C480.565,527.573 479.795,534.8 480.973,539.974C483.541,550.931 495.158,552.4 504.371,554.295C507.783,555.057 513.409,555.95 514.116,560.137C514.474,562.262 512.027,564.417 510.141,564.907C501.904,567.051 491.673,564.171 485.262,558.655C483.556,557.187 482.15,555.75 480.623,554.33C480.999,561.96 480.909,570.093 480.948,577.766C482.697,575.826 483.992,574.359 485.566,572.279C494.581,576.405 500.881,577.936 510.708,577.596C525.198,575.621 532.712,568.331 531.03,552.896C530.377,546.9 528.187,546.473 524.787,542.778C520.052,537.632 493.037,537.338 496.873,528.057C499.216,525.891 503.872,525.333 507.002,525.552C517.705,526.299 520.406,528.937 527.103,536.278L527.558,536.778C527.125,529.839 527.335,521.475 527.342,514.425C525.691,516.039 524.437,517.339 522.898,519.067C514.443,515.243 507.662,514.209 498.52,514.864ZM718.777,539.93C720.257,542.899 721.462,545.103 723.323,547.874C721.785,552.682 719.752,559.71 717.902,564.222C715.266,565.866 713.014,566.491 710.097,567.496C711.69,569.675 712.86,570.933 714.694,572.903C712.834,579.207 710.998,585.703 708.923,591.923C705.512,594.193 702.517,595.763 699.434,598.513C703.007,598.965 706.72,600.064 710.212,601.027C722.968,604.543 735.692,608.023 748.146,612.504C750.164,609.944 751.701,607.807 753.539,605.109L759.722,596.029C753.931,597.2 749.168,598.65 743.502,600.297C738.659,598.932 732.55,597.102 727.868,595.215C729.214,590.726 731.118,583.757 732.83,579.52C735.49,578.361 738.608,577.114 741.184,575.895C739.122,573.646 736.968,571.209 734.868,569.022C736.2,564.92 738.907,556.003 740.684,552.537C742.827,551.257 746.311,549.277 748.16,547.739C739.139,545.446 727.391,541.745 718.777,539.93ZM552.061,515.957C553.746,518.6 555.02,520.311 556.964,522.787C556.201,528.509 555.495,534.238 554.845,539.974C552.426,541.107 548.296,542.895 546.129,544.211C548.711,545.827 551.331,547.381 553.989,548.87C553.523,555.428 552.711,562.246 552.018,568.807C550.162,570.607 546.129,574.136 544.703,575.829L575.383,578.175C573.495,575.673 572.112,573.973 570.012,571.655C570.526,565.011 570.967,557.914 571.872,551.35C576.707,551.721 584.539,552.007 589.048,552.636C588.782,559.357 588.19,566.06 587.273,572.723C584.955,575.028 582.658,576.695 580.53,578.766C587.387,578.991 597.183,580.2 604.149,581.096C606.215,581.305 608.473,581.583 610.53,581.703C608.727,579.168 606.196,576.025 604.595,573.602C604.924,567.003 605.956,560.432 606.345,553.949C609.25,551.972 611.701,551.169 614.62,549.59C612.216,547.25 610.162,545.81 607.452,543.814C607.96,538.689 608.431,533.559 608.865,528.426C610.555,525.923 613.127,523.749 615.309,521.613C606.162,520.067 595.013,519.888 586.662,518.227C588.319,520.288 589.951,522.368 591.56,524.466C590.952,530.246 590.275,536.019 589.53,541.783C583.922,541.071 578.316,540.814 572.756,540.059C573.216,534.937 573.705,529.818 574.223,524.703C576.041,522.795 578.736,520.148 580.122,518.036C570.538,517.082 561.741,516.106 552.061,515.957ZM405.896,750.545C408.164,749.112 410.456,747.486 412.63,745.905C424.137,737.539 436.639,730.138 448.014,721.634C487.435,740.706 535.106,742.328 576.491,728.295C580.198,727.038 586.79,724.6 590.023,722.761C596.347,726.478 604.862,732.493 611.034,736.679L631.838,750.502C617.667,760.428 591.086,770.002 574.479,774.286C517.336,788.604 456.862,780.088 405.896,750.545ZM518.764,747.041C517.622,750.028 515.944,754.768 514.595,757.573L503.417,757.636C506.151,760.04 508.9,762.425 511.666,764.791C510.999,768.779 510.42,772.6 509.221,776.482C512.255,774.471 515.867,771.948 518.923,770.056C521.97,771.968 525.079,773.978 528.146,775.836C527.198,772.395 526.171,768.231 525.092,764.887C528.079,762.539 531.22,759.976 534.248,757.718C530.902,757.653 526.148,757.705 522.918,757.404C522.239,755.502 519.784,748.151 518.764,747.041ZM570.393,739.597C570.375,743.283 570.337,746.968 570.282,750.654C566.873,752.114 563.364,753.332 559.783,754.296C562.998,755.63 567.285,757.097 570.226,758.429L570.554,769.51C572.921,767.711 575.609,763.833 577.496,761.37C578.405,761.547 579.964,761.803 580.81,762.025C583.402,762.783 586.204,763.547 588.741,764.415C586.997,761.563 584.087,757.164 582.609,754.343C584.741,751.258 587.086,747.995 589.105,744.861L577.62,748.171C576.178,746.303 572.118,740.445 570.393,739.597ZM466.554,739.246C464.379,741.471 461.73,745.296 459.815,747.891C455.802,747.036 451.855,745.9 448.003,744.489C450.309,747.889 452.588,751.306 454.843,754.739L448.844,764.461C451.676,763.601 455.243,762.403 458.054,761.705C459.195,761.504 459.607,761.17 460.5,762.036C462.942,764.404 464.995,767.443 467.347,769.84C467.445,766.072 467.427,762.044 468.052,758.35C471.788,756.753 474.902,755.664 478.722,754.361C474.727,753.089 471.444,751.968 467.515,750.459C467.383,747.937 467.192,741.392 466.554,739.246ZM696.76,694.573C696.256,692.828 695.42,690.945 694.83,689.184C688.58,670.522 681.736,652.093 676.066,633.244C678.991,634.472 693.873,638.047 697.816,639.087C709.334,642.241 720.805,645.562 732.225,649.052C722.055,665.225 710.709,681.365 696.76,694.573ZM305.251,648.874C306.712,648.293 308.761,647.721 310.307,647.277C325.776,642.831 341.24,637.97 356.873,634.161L359.969,638.434C357.991,643.058 356.013,650.163 354.256,655.091C349.692,667.893 345.649,681.583 340.827,694.237C331.591,684.512 323.301,675.032 315.434,664.106C311.828,659.097 308.774,653.916 305.251,648.874ZM477.998,272.815C474.881,283.635 470.731,294.801 467.056,305.444C463.765,314.975 460.559,324.646 457.114,334.11C450.732,336.348 444.272,338.619 438.111,341.42C407.673,355.256 379.387,378.061 360.354,405.619C357.859,405.675 355.327,405.455 352.83,405.451C333.865,405.425 314.706,405.082 295.757,405.554C302.216,391.928 310.091,379.021 319.256,367.047C357.459,315.695 414.621,281.762 477.998,272.815ZM345.352,368.546C343.433,370.964 340.738,374.557 338.58,376.587L327.098,372.918C329.284,376.44 331.714,379.727 334.135,383.087C331.707,386.26 329.331,389.322 327.079,392.628L336.577,390.106C337.555,389.973 337.697,389.739 338.224,390.228C340.852,392.664 342.698,396.426 345.164,399.027C345.745,395.357 345.837,391.384 346.017,387.653C349.365,386.614 353.74,385.395 356.947,384.182C353.752,382.889 349.057,381.094 346.066,379.463C346.058,377.711 346.397,369.42 345.352,368.546ZM383.193,333.543C380.536,331.673 376.189,328.553 373.401,327.172C374.375,330.837 375.414,335.191 376.541,338.759C373.719,341.068 369.323,344.172 366.943,346.442C370.908,346.439 375.28,346.345 379.21,346.532C380.682,350.303 382.198,354.055 383.757,357.79C384.464,355.644 386.66,347.092 388.661,346.475L400.036,346.407C396.678,343.433 392.887,341.307 389.909,338.594C391.091,334.701 392.237,330.798 393.346,326.884C389.946,328.946 386.348,331.721 383.193,333.543ZM428.877,295.826C428.883,300.053 428.945,303.305 429.26,307.547C425.589,309.038 421.123,310.711 417.677,312.536C421.985,313.428 425.429,314.307 429.594,315.802C430.096,319.596 430.799,323.987 430.898,327.763C432.789,325.487 436.745,319.003 438.62,318.401L440.137,318.735L449.924,321.292C447.379,317.722 444.848,314.761 442.334,311.362C444.233,307.503 446.056,304.245 448.178,300.523C444.191,302.076 440.858,303.408 436.736,304.588C434.891,302.417 430.908,297.064 428.877,295.826ZM741.87,405.627C729.498,405.246 716.473,405.394 704.05,405.391C695.879,405.389 685.75,405.176 677.82,405.654C662.241,381.68 628.865,354.577 603.124,342.501C594.982,338.682 588.596,336.336 580.281,333.137C577.791,327.076 574.953,317.445 572.777,310.902C568.465,297.926 564.053,284.984 559.542,272.076C574.862,274.753 586.57,277.206 601.471,282.282C650.584,299.463 693.159,331.453 723.33,373.843C729.279,382.309 737.655,396.048 741.87,405.627ZM608.477,296.282C605.752,299.022 603.102,301.836 600.531,304.72C596.795,303.296 593.081,301.813 589.391,300.271C591.3,303.975 593.239,307.661 595.206,311.333C593.067,314.144 589.504,318.02 587.774,320.673C590.756,320.157 593.227,319.757 596.133,318.936C597.445,318.646 598.827,318.039 599.791,318.814C602.302,320.836 604.363,324.757 606.389,327.419C606.911,323.453 607.467,319.493 608.059,315.538C611.766,314.325 615.71,313.511 619.564,312.902C615.805,310.914 612.285,309.327 608.419,307.577C608.532,305.616 609.151,298.077 608.861,296.653L608.477,296.282ZM644.641,327.053C645.655,331.021 646.727,334.973 647.861,338.908C645.304,340.925 640.305,344.354 638.387,346.368C642.448,346.383 646.556,346.265 650.568,346.827C651.584,349.607 653.38,355 654.637,357.534C655.409,355.471 657.987,347.588 659.109,346.489L670.595,346.437C667.736,343.666 664.559,341.45 661.359,339.091L664.425,326.972C660.986,329.094 657.886,331.183 654.555,333.454C651.988,331.7 647.277,328.32 644.641,327.053ZM691.655,367.771C691.212,370.803 691.52,376.004 691.555,379.327C688.051,381.207 684.798,382.668 680.986,383.858C685.024,385.425 688.208,386.378 692.345,387.589L693.448,398.988C695.897,396.313 698.026,392.818 700.037,389.756L704.179,390.761C706.666,391.39 709.159,391.994 711.659,392.574C709.142,389.251 706.716,385.978 703.856,382.932C706.023,379.517 708.048,376.329 710.03,372.792L698.794,376.678C697.477,375.053 692.645,368.67 691.655,367.771ZM270.401,477.296C273.182,479.005 276.596,481.557 279.198,483.579C287.746,490.225 297.364,496.502 305.698,503.371C292.77,505.646 278.883,511.612 267.055,513.863C266.96,504.234 267.37,494.846 269.093,485.353C269.579,482.675 270.056,479.995 270.401,477.296ZM770.833,514.214C764.556,512.368 758.269,510.556 751.972,508.78C747.866,507.659 735.6,504.8 732.707,503.042C733.123,502.174 763.728,480.011 766.843,477.931C769.84,491.109 770.448,500.868 770.833,514.214ZM541.712,616.681C548.872,616.517 558.752,617.527 566,618.111C581.082,619.283 596.133,620.818 611.141,622.716C613.707,628.896 617.282,640.419 619.512,647.218C622.23,655.506 626.545,667.404 628.539,675.438C626.447,674.568 617.205,668.124 614.945,666.594L584.817,646.167L556.434,627.08C553.22,624.921 544.17,619.131 541.712,616.681ZM493.787,616.54L494.649,616.739C494.331,618.21 485.731,623.496 483.852,624.763L460.257,640.492C443.394,651.872 426.47,663.164 409.488,674.366L408.749,674.426L408.57,673.786C410.392,669.926 412.169,663.368 413.716,659.166C418.021,647.468 421.579,634.433 426.048,622.858C446.452,619.803 473.07,617.543 493.787,616.54ZM519.077,350.118C519.973,351.01 557.077,458.033 559.761,467.011C597.5,465.477 638.956,466.336 676.955,466.351C674.28,468.697 669.125,472.363 666.112,474.741C660.416,479.238 654.721,483.968 648.985,488.344C641.179,486.771 631.39,485.643 623.414,484.541C588.903,479.803 554.11,477.417 519.275,477.397C475.616,477.258 432.025,480.893 388.991,488.259C387.101,487.065 385.34,485.7 383.615,484.282C376.085,478.088 368.305,472.225 360.611,466.238C396.279,467.144 432.304,465.505 468.002,466.681C471.255,466.789 474.523,466.967 477.772,467.179C479.143,462.488 481.769,455.82 483.431,451.01C487.859,438.172 492.352,425.357 496.909,412.565L510.677,373.514C513.339,365.952 516.138,357.482 519.077,350.118Z" style="fill:rgb(187,54,49);" data-color="color-1"/>
        <path d="M64.37,650.616C70.332,647.698 131.083,612.141 137.383,608.659C151.277,600.998 165.379,593.72 179.671,586.832C173.721,572.899 168.245,560.046 162.842,545.878C170.244,541.25 177.826,536.415 185.445,532.198C195.994,526.359 206.786,521.842 217.878,517.191C217.581,498.638 219.042,487.643 220.793,469.657C212.52,468.769 204.552,466.036 197.477,461.657C185.161,453.966 176.458,441.641 173.33,427.461C170.151,412.968 172.861,397.805 180.864,385.31C188.755,372.971 201.156,364.205 215.42,360.881C231.791,357.226 245.041,361.457 258.796,370.218C263.552,361.108 270.691,350.203 276.634,341.849C321.248,279.018 389.086,236.584 465.104,223.955C464.088,216.129 463.521,207.257 465.272,199.568C468.685,184.945 477.83,172.305 490.652,164.49C503.37,156.634 518.702,154.194 533.23,157.711C547.564,161.197 559.913,170.262 567.533,182.895C574.802,194.92 577.355,210.706 574.069,224.357C584.273,225.686 597.119,228.938 606.974,231.773C680.384,253.275 742.24,303.068 778.927,370.189C787.541,365.076 792.458,362.212 802.497,360.439C816.405,357.946 830.734,361.11 842.301,369.228C854.086,377.491 863.384,391.271 865.793,405.543C868.086,419.782 864.737,434.354 856.458,446.164C845.861,461.007 833.342,466.892 815.954,469.89C818.91,485.37 819.544,501.546 819.456,517.264C842.141,526.749 853.629,532.698 874.051,545.73C868.383,559.586 863.188,572.867 857.167,586.682C863.377,589.881 869.983,592.791 876.323,596.008C890.195,602.982 960.24,641.731 973.295,650.138C951.439,649.527 863.713,663.929 848.658,668.97C859.617,699.963 869.587,731.297 878.553,762.925C880.97,771.605 882.897,780.557 885.234,789.316C880.894,786.472 874.53,781.182 870.235,777.862C862.217,771.689 854.1,765.646 845.885,759.736C812.288,735.754 787.622,723.361 749.536,708.514C744.403,715.788 737.702,723.324 731.816,730.033C779.81,765.514 745.477,837.818 688.83,825.576C672.432,822.032 660.624,809.828 652.217,795.847C636.843,805.014 613.097,814.643 595.927,819.454C525.479,839.75 449.855,831.258 385.664,795.843C361.051,838.138 305.417,838.716 286.213,791.255C276.778,767.936 287.075,745.45 305.821,729.885C298.86,722.796 293.735,716.298 287.718,708.446C282.28,710.556 276.8,712.677 271.425,714.868C232.595,730.696 197.316,753.345 164.253,778.914C160.13,782.103 156.12,785.52 151.85,788.561C161.876,746.452 174.242,709.528 188.368,668.843C167.146,663.251 89.179,651.715 64.37,650.616ZM898.182,634.754C882.604,623.744 883.342,613.357 866.334,604.925C858.054,600.821 849.327,596.289 840.802,592.791C841.323,589.845 849.524,571.971 851.046,568.286C853.743,562.372 856.148,556.296 858.591,550.27C840.999,539.534 825.155,532.894 806.163,525.356C806.308,496.415 805.361,482.11 798.697,453.933C804.774,455.669 810.334,456.672 816.657,455.926C827.178,454.615 836.725,449.114 843.136,440.67C849.917,431.853 853.606,420.433 852.041,409.309C850.489,398.274 844.548,388.332 835.572,381.729C823.01,372.47 807.833,371.149 793.748,377.74C785.484,381.608 780.956,386.743 775.72,393.978C772.749,388.248 769.866,382.502 766.767,376.866C729.995,309.977 664.947,260.574 590.935,242.236C578.689,239.202 565.959,236.507 553.202,235.774C561.509,222.104 564.444,206.49 556.48,191.818C551.119,182.052 542.088,174.822 531.386,171.727C520.534,168.694 508.923,170.1 499.109,175.636C481.817,185.423 474.435,205.588 480.871,224.268C482.279,228.355 484.512,232.047 486.665,235.771C480.546,236.183 474.621,236.871 468.596,237.795C391.24,249.657 321.76,296.908 279.544,362.405C273.048,372.483 267.509,382.965 261.821,393.635C258.424,388.346 254.413,383.938 249.123,380.464C240.145,374.451 229.101,372.364 218.547,374.687C182.049,382.738 174.732,430.834 206.016,450.334C216.252,456.714 227.123,457.234 238.595,454.353C232.218,481.253 230.517,497.828 231.016,525.344C211.416,532.905 196.446,539.565 178.17,550.142L185.241,568.041C188.62,576.431 192.681,584.446 196.099,592.729C177.444,600.987 158.35,611.309 140.523,621.17C132.533,625.589 135.721,632.286 127.768,636.851C134.651,636.867 131.153,645.734 138.035,646.464C159.676,649.737 183.253,654.354 204.127,660.937C199.401,674.136 194.792,687.376 190.301,700.656C187.991,707.571 185.04,716.068 183.219,723.029C180.07,730.433 174.567,749.904 172.101,758.268C175.014,756.616 180.201,752.577 183.16,750.414C188.837,746.262 194.602,742.232 200.47,738.354C227.991,720.254 262.001,702.378 293.674,692.961C300.767,701.635 305.099,708.022 313.062,716.706C315.668,719.547 318.351,722.317 321.145,724.975C323.216,726.944 328.89,731.05 328.151,733.836C327.49,736.325 321.731,737.128 319.371,738.496C317.034,739.852 314.472,740.975 312.296,742.704C294.975,756.537 292.205,780.265 305.751,797.855C312.014,806.128 321.353,811.522 331.649,812.813C341.864,814.078 352.16,811.206 360.245,804.836C371.117,796.367 374.332,786.905 375.909,773.912C381.615,776.673 389.558,781.785 395.891,785.07C413.14,793.982 431.216,801.193 449.862,806.6C509.009,823.389 571.056,818.071 626.802,792.523C640.38,786.3 649.284,780.634 661.927,773.589C662.537,778.181 662.895,781.89 664.408,786.311C667.896,796.503 675.351,804.853 685.09,809.455C704.802,818.853 727.855,809.897 736.909,790.232C741.355,780.807 741.807,769.987 738.163,760.225C734.659,751.059 727.964,743.795 719.527,738.896C716.427,737.096 710.38,736.978 709.055,733.236C709.639,730.95 723.066,718.588 726.041,715.244C732.426,708.108 738.417,700.629 743.989,692.841C749.344,694.43 755.582,696.918 760.877,698.932C798.755,713.631 834.074,734.218 865.53,759.934C860.907,748.287 857.644,733.503 852.93,721.036C847.27,701.711 839.462,680.082 832.916,660.851C841.494,658.757 850.203,656.036 859.049,653.889C872.135,650.775 885.358,648.265 898.678,646.367C904.686,645.636 892.151,635.222 898.182,634.754ZM295.472,547.15L296.155,547.234C296.517,548.842 293.546,553.834 292.598,555.644L298.345,571.544C301.246,572.325 304.155,573.263 307.029,574.157C305.427,577.082 303.84,578.628 302.466,582.079C304.302,588.258 306.687,594.354 308.968,600.386C312.232,602.237 315.733,603.315 319.273,604.51C309.392,608.057 297.345,611.352 287.025,614.764C287.77,612.621 289.81,608.875 290.913,606.71C288.726,598.114 284.338,583.357 280.977,575.535C279.856,587.637 277.314,598.964 276.333,610.68C269.813,606.571 254.377,594.352 249.521,588.61C250.463,591.829 253.223,598.06 254.617,601.625C256.724,606.771 258.829,612.084 261.147,617.124C264.099,618.391 266.652,619.628 269.53,621.065C263.137,624.157 249.546,629.02 242.72,631.325C244.24,628.103 245.706,624.856 247.12,621.586C245.511,618.487 243.541,614.124 242.07,611.018C238.245,602.942 238.328,605.254 231.787,602.867L231.39,602.719L236.177,595.378C234.865,590.565 233.762,582.966 232.922,577.916C230.79,575.646 227.848,574.413 225.06,572.98C231.939,569.853 238.876,566.857 245.868,563.993C251.881,569.411 262.23,578.463 268.552,583.175C269.12,575.974 271.84,562.689 273.016,554.878C279.588,552.232 288.633,549.453 295.472,547.15ZM691.655,367.771C692.645,368.67 697.477,375.053 698.794,376.678L710.03,372.792C708.048,376.329 706.023,379.517 703.856,382.932C706.716,385.978 709.142,389.251 711.659,392.574C709.159,391.994 706.666,391.39 704.179,390.761L700.037,389.756C698.026,392.818 695.897,396.313 693.448,398.988L692.345,387.589C688.208,386.378 685.024,385.425 680.986,383.858C684.798,382.668 688.051,381.207 691.555,379.327C691.52,376.004 691.212,370.803 691.655,367.771ZM267.055,513.863C262.663,515.168 258.283,516.512 253.916,517.896C253.357,501.221 254.748,484.539 258.06,468.187C262.071,471.256 266.32,474.298 270.401,477.296C270.056,479.995 269.579,482.675 269.093,485.353C267.37,494.846 266.96,504.234 267.055,513.863ZM766.843,477.931C770.647,474.762 775.251,471.6 779.321,468.674C782.728,485.195 783.602,501.411 783.605,518.201C779.614,516.877 774.862,515.161 770.833,514.214C770.448,500.868 769.84,491.109 766.843,477.931ZM631.838,750.502C635.279,752.526 640.756,756.703 643.966,759.164C622.873,771.757 602.606,780.936 578.83,787.132C528.204,800.11 474.726,796.214 426.515,776.037C414.099,770.8 405.29,765.876 393.865,759.169C396.87,756.552 402.527,752.72 405.896,750.545C456.862,780.088 517.336,788.604 574.479,774.286C591.086,770.002 617.667,760.428 631.838,750.502ZM448.014,721.634C450.928,719.622 457.7,714.703 460.612,713.207C489.267,723.815 516.154,727.103 546.495,722.15C556.2,720.565 568.253,717.821 577.361,714.155C581.565,717.224 585.987,719.833 590.023,722.761C586.79,724.6 580.198,727.038 576.491,728.295C535.106,742.328 487.435,740.706 448.014,721.634ZM732.225,649.052C736.554,650.341 740.908,651.403 745.224,652.658C735.105,669.96 723.126,686.107 709.47,700.778C707.385,703.018 704.09,706.739 701.901,708.729C700.029,704.023 698.425,699.353 696.76,694.573C710.709,681.365 722.055,665.225 732.225,649.052ZM340.827,694.237C339.77,698.276 337.416,704.305 335.955,708.318C317.141,690.118 306.314,674.403 292.683,652.546C296.812,651.177 301.063,650.3 305.251,648.874C308.774,653.916 311.828,659.097 315.434,664.106C323.301,675.032 331.591,684.512 340.827,694.237ZM596.766,378.419C606.728,382.149 624.648,398.036 631.225,406.183C622.458,406.048 613.704,406.185 604.941,406.035C603.177,399.521 597.511,383.836 596.766,378.419ZM295.757,405.554C293.383,406.039 282.671,405.583 279.962,405.415C284.008,395.117 298.391,372.276 304.977,363.221C337.601,318.114 383.827,284.656 436.868,267.757C453.143,262.664 466.507,260.146 483.151,257.519C481.475,262.525 479.909,267.946 477.998,272.815C414.621,281.762 357.459,315.695 319.256,367.047C310.091,379.021 302.216,391.928 295.757,405.554ZM457.114,334.11C455.718,338.742 453.261,347.109 451.366,351.267C425.539,361.258 393.911,382.702 378.28,405.79L360.354,405.619C379.387,378.061 407.673,355.256 438.111,341.42C444.272,338.619 450.732,336.348 457.114,334.11ZM498.52,514.864C507.662,514.209 514.443,515.243 522.898,519.067C524.437,517.339 525.691,516.039 527.342,514.425C527.335,521.475 527.125,529.839 527.558,536.778L527.103,536.278C520.406,528.937 517.705,526.299 507.002,525.552C503.872,525.333 499.216,525.891 496.873,528.057C493.037,537.338 520.052,537.632 524.787,542.778C528.187,546.473 530.377,546.9 531.03,552.896C532.712,568.331 525.198,575.621 510.708,577.596C500.881,577.936 494.581,576.405 485.566,572.279C483.992,574.359 482.697,575.826 480.948,577.766C480.909,570.093 480.999,561.96 480.623,554.33C482.15,555.75 483.556,557.187 485.262,558.655C491.673,564.171 501.904,567.051 510.141,564.907C512.027,564.417 514.474,562.262 514.116,560.137C513.409,555.95 507.783,555.057 504.371,554.295C495.158,552.4 483.541,550.931 480.973,539.974C479.795,534.8 480.565,527.573 483.703,523.172C487.265,518.178 492.691,515.89 498.52,514.864ZM793.141,563.31C793.72,563.274 794.301,563.254 794.881,563.251C805.561,563.253 813.517,569.771 820.657,576.754C822.834,575.427 824.998,574.081 827.152,572.717C825.655,577.814 821.146,589.747 818.855,594.215C817.931,590.973 816.777,588.065 814.506,584.65C811.391,579.964 800.698,571.736 794.923,575.443C793.339,576.853 793.911,580.55 795.208,581.789C800.891,587.217 807.93,589.636 813.537,595.489C821.444,603.744 818.756,616.614 811.04,623.795C806.364,628.146 800.165,628.732 794.205,628.218C782.105,626.111 777.741,621.803 769.055,613.741C766.402,615.49 764.924,616.286 762.014,617.459C765.256,609.639 768.307,600.024 772.016,592.543C772.065,592.912 772.115,593.281 772.168,593.65C773.176,600.754 775.221,606.841 781.348,611.255C785.255,614.069 795.804,619.64 799.237,613.964C799.93,612.811 800.137,611.428 799.812,610.123C798.246,603.586 777.287,597.532 776.427,586.607C775.459,574.315 779.898,565.561 793.141,563.31ZM718.777,539.93C727.391,541.745 739.139,545.446 748.16,547.739C746.311,549.277 742.827,551.257 740.684,552.537C738.907,556.003 736.2,564.92 734.868,569.022C736.968,571.209 739.122,573.646 741.184,575.895C738.608,577.114 735.49,578.361 732.83,579.52C731.118,583.757 729.214,590.726 727.868,595.215C732.55,597.102 738.659,598.932 743.502,600.297C749.168,598.65 753.931,597.2 759.722,596.029L753.539,605.109C751.701,607.807 750.164,609.944 748.146,612.504C735.692,608.023 722.968,604.543 710.212,601.027C706.72,600.064 703.007,598.965 699.434,598.513C702.517,595.763 705.512,594.193 708.923,591.923C710.998,585.703 712.834,579.207 714.694,572.903C712.86,570.933 711.69,569.675 710.097,567.496C713.014,566.491 715.266,565.866 717.902,564.222C719.752,559.71 721.785,552.682 723.323,547.874C721.462,545.103 720.257,542.899 718.777,539.93ZM652.809,525.709C653.98,525.825 661.101,527.319 662.625,527.646C668.939,529.002 678.202,530.265 684.123,532.536C681.868,534.256 680.234,535.564 678.133,537.46C679.096,542.72 680.576,551.901 682.259,556.789C684.844,558.385 686.858,559.696 689.314,561.474C687.927,563.021 685.739,564.819 684.138,566.227C684.738,571.778 686.123,582.756 688.337,587.589C689.045,589.134 692.759,594.659 693.9,596.488L659.55,589.43C662.334,587.482 664.684,585.833 667.318,583.657C667.077,581.889 666.856,580.119 666.655,578.346L666.08,573.725C661.156,572.765 652.202,571.258 647.783,569.824C645.777,572.61 643.123,577.436 641.569,580.487C643.765,582.673 645.491,584.536 647.152,587.149C637.055,585.314 628.01,583.802 617.819,582.486C620.141,580.696 625.311,577.305 627.084,575.75C631.188,572.151 637.045,562.022 639.554,557.094C638.78,555.449 637.66,553.414 636.809,551.767C646.116,549.632 647.134,548.033 652.065,539.761C653.445,537.445 655.291,534.676 656.767,532.346C655.509,530.585 653.309,527.73 652.809,525.709ZM661.861,546.175C658.923,551.143 655.96,556.095 652.97,561.032C654.693,561.612 656.289,562.17 658.052,562.632C660.348,563.053 662.986,563.619 665.283,563.806C664.862,560.634 663.469,548.489 662.396,546.507L661.861,546.175ZM570.393,739.597C572.118,740.445 576.178,746.303 577.62,748.171L589.105,744.861C587.086,747.995 584.741,751.258 582.609,754.343C584.087,757.164 586.997,761.563 588.741,764.415C586.204,763.547 583.402,762.783 580.81,762.025C579.964,761.803 578.405,761.547 577.496,761.37C575.609,763.833 572.921,767.711 570.554,769.51L570.226,758.429C567.285,757.097 562.998,755.63 559.783,754.296C563.364,753.332 566.873,752.114 570.282,750.654C570.337,746.968 570.375,743.283 570.393,739.597ZM383.193,333.543C386.348,331.721 389.946,328.946 393.346,326.884C392.237,330.798 391.091,334.701 389.909,338.594C392.887,341.307 396.678,343.433 400.036,346.407L388.661,346.475C386.66,347.092 384.464,355.644 383.757,357.79C382.198,354.055 380.682,350.303 379.21,346.532C375.28,346.345 370.908,346.439 366.943,346.442C369.323,344.172 373.719,341.068 376.541,338.759C375.414,335.191 374.375,330.837 373.401,327.172C376.189,328.553 380.536,331.673 383.193,333.543ZM428.877,295.826C430.908,297.064 434.891,302.417 436.736,304.588C440.858,303.408 444.191,302.076 448.178,300.523C446.056,304.245 444.233,307.503 442.334,311.362C444.848,314.761 447.379,317.722 449.924,321.292L440.137,318.735L438.62,318.401C436.745,319.003 432.789,325.487 430.898,327.763C430.799,323.987 430.096,319.596 429.594,315.802C425.429,314.307 421.985,313.428 417.677,312.536C421.123,310.711 425.589,309.038 429.26,307.547C428.945,303.305 428.883,300.053 428.877,295.826ZM432.734,519.62C436.682,519.485 439.865,519.452 443.733,520.158C458.155,522.793 462.361,540.496 453.755,551.106C451.982,553.291 450.483,554.125 448.154,555.53C451.629,559.642 454.615,565.23 458.145,569.184C461.494,572.936 464.688,573.939 468.004,578.404C460.414,579.357 452.45,580.064 444.823,580.86C441.767,575.357 436.696,565.364 432.776,560.437C432.018,559.485 428.884,560.072 427.557,560.25L428.551,567.914L429.381,574.895C432.398,577.178 434.861,579.085 437.73,581.583C427.002,583.171 415.734,584.303 404.918,585.648L410.437,577.277C409.827,571.783 409.269,566.134 408.409,560.688C406.348,559.364 403.641,557.91 401.473,556.669C403.258,554.532 405.703,551.997 407.613,549.918C406.873,543.617 406.329,537.171 405.659,530.838C403.607,528.51 400.549,526.296 398.024,523.52C408.977,522.928 421.04,520.361 432.734,519.62ZM432.627,531.726C429.89,532.012 427.161,532.271 424.439,532.678C424.776,538.151 425.331,543.609 426.105,549.038C429.169,548.725 430.764,548.496 433.757,547.813C439.276,546.386 443.873,542.902 441.68,536.521C441.016,534.539 439.53,532.939 437.602,532.131C436.132,531.511 434.22,531.669 432.627,531.726ZM517.8,189.492C527.705,188.267 537.023,194.457 540.546,203.676C542.524,208.893 542.365,214.68 540.103,219.78C537.17,226.473 532.87,229.539 526.409,232.093L570.044,359.724L584.118,400.788C586.558,407.816 589.562,415.561 591.7,422.6L790.707,422.584C787.441,410.247 792.737,397.375 805.603,393.892C811.277,392.346 817.337,393.198 822.364,396.249C832.987,402.671 836.021,416.729 829.189,427.147C826.012,432.03 820.978,435.401 815.254,436.478C808.183,437.751 803.023,435.239 797.474,431.488C787.356,439.364 776.486,447.103 766.188,454.845L708.277,498.686C699.937,496.061 683.166,493.212 674.085,491.592C677.18,488.439 685.828,482.08 689.645,479.162L717.15,458.141C720.586,455.512 726.205,451.513 729.066,448.644C723.839,449.362 715.198,449.124 709.645,449.121L678.8,449.098L572.935,449.139C568.029,436.478 563.869,422.565 559.332,409.689C546.106,372.148 534.127,333.376 520.522,296.028C520.06,294.339 519.284,292.245 518.713,290.55C516.738,298.218 513.583,306.498 511.02,314.067L493.867,363.566L475.237,417.933C471.886,427.8 468.225,439.563 464.479,449.149L359.288,449.107L327.95,449.129C321.822,449.134 314.36,449.367 308.401,448.78C311.454,451.678 317.489,456.102 321.073,458.879L345.238,477.505C351.204,482.096 357.308,486.534 362.734,491.746C351.031,493.1 340.451,495.752 328.954,498.242C319.086,491.237 308.314,482.657 298.618,475.2C279.68,460.636 259.934,446.324 241.113,431.714C235.545,435.377 230.942,437.478 223.96,436.596C218.426,435.927 213.391,433.065 209.983,428.653C206.287,423.869 204.655,417.807 205.452,411.814C206.185,406.062 209.215,400.853 213.851,397.371C218.477,393.894 224.498,392.518 230.195,393.416C236.225,394.332 241.606,397.703 245.06,402.732C249.5,409.175 249.615,415.294 248.28,422.592L446.098,422.643C448.648,416.834 451.829,406.553 454.062,400.072L468.452,358.438L511.743,231.882C490.904,220.312 494.545,193.128 517.8,189.492ZM466.554,739.246C467.192,741.392 467.383,747.937 467.515,750.459C471.444,751.968 474.727,753.089 478.722,754.361C474.902,755.664 471.788,756.753 468.052,758.35C467.427,762.044 467.445,766.072 467.347,769.84C464.995,767.443 462.942,764.404 460.5,762.036C459.607,761.17 459.195,761.504 458.054,761.705C455.243,762.403 451.676,763.601 448.844,764.461L454.843,754.739C452.588,751.306 450.309,747.889 448.003,744.489C451.855,745.9 455.802,747.036 459.815,747.891C461.73,745.296 464.379,741.471 466.554,739.246ZM518.764,747.041C519.784,748.151 522.239,755.502 522.918,757.404C526.148,757.705 530.902,757.653 534.248,757.718C531.22,759.976 528.079,762.539 525.092,764.887C526.171,768.231 527.198,772.395 528.146,775.836C525.079,773.978 521.97,771.968 518.923,770.056C515.867,771.948 512.255,774.471 509.221,776.482C510.42,772.6 510.999,768.779 511.666,764.791C508.9,762.425 506.151,760.04 503.417,757.636L514.595,757.573C515.944,754.768 517.622,750.028 518.764,747.041ZM345.352,368.546C346.397,369.42 346.058,377.711 346.066,379.463C349.057,381.094 353.752,382.889 356.947,384.182C353.74,385.395 349.365,386.614 346.017,387.653C345.837,391.384 345.745,395.357 345.164,399.027C342.698,396.426 340.852,392.664 338.224,390.228C337.697,389.739 337.555,389.973 336.577,390.106L327.079,392.628C329.331,389.322 331.707,386.26 334.135,383.087C331.714,379.727 329.284,376.44 327.098,372.918L338.58,376.587C340.738,374.557 343.433,370.964 345.352,368.546ZM644.641,327.053C647.277,328.32 651.988,331.7 654.555,333.454C657.886,331.183 660.986,329.094 664.425,326.972L661.359,339.091C664.559,341.45 667.736,343.666 670.595,346.437L659.109,346.489C657.987,347.588 655.409,355.471 654.637,357.534C653.38,355 651.584,349.607 650.568,346.827C646.556,346.265 642.448,346.383 638.387,346.368C640.305,344.354 645.304,340.925 647.861,338.908C646.727,334.973 645.655,331.021 644.641,327.053ZM608.477,296.282L608.861,296.653C609.151,298.077 608.532,305.616 608.419,307.577C612.285,309.327 615.805,310.914 619.564,312.902C615.71,313.511 611.766,314.325 608.059,315.538C607.467,319.493 606.911,323.453 606.389,327.419C604.363,324.757 602.302,320.836 599.791,318.814C598.827,318.039 597.445,318.646 596.133,318.936C593.227,319.757 590.756,320.157 587.774,320.673C589.504,318.02 593.067,314.144 595.206,311.333C593.239,307.661 591.3,303.975 589.391,300.271C593.081,301.813 596.795,303.296 600.531,304.72C603.102,301.836 605.752,299.022 608.477,296.282ZM518.191,625.234C519.909,625.614 536.48,637.047 539.192,638.831C567.677,657.422 596.002,676.255 624.166,695.328C631.694,700.31 639.182,705.35 646.63,710.449C652.008,714.134 658.958,719.144 664.551,722.191C663.266,719.122 661.935,714.347 660.851,711.068L654.984,693.832L632.022,625.418C639.533,626.925 647.209,627.537 654.609,629.021C656.244,632.381 657.932,637.879 659.154,641.49C661.402,648.245 663.716,654.978 666.092,661.689L698.195,753.537C702.643,753.213 705.624,753.168 709.897,755.104C714.94,757.383 718.837,761.618 720.691,766.832C722.533,772.023 722.224,777.735 719.834,782.697C717.464,787.695 713.484,791.493 708.21,793.27C702.962,795.037 697.229,794.665 692.252,792.237C681.225,786.768 677.799,774.018 683.741,763.303C680.387,760.445 673.16,755.794 669.281,753.144L640.608,733.693L556.896,678.016C544.423,669.724 531.465,661.422 519.267,652.827L518.461,652.384C515.748,652.755 364.702,755.236 353.779,763.003C358.815,771.303 358.167,780.832 351.319,787.948C347.487,791.953 342.21,794.255 336.668,794.338C331.233,794.456 325.987,792.34 322.155,788.483C318.176,784.478 315.782,778.629 315.99,772.968C316.199,767.189 318.764,761.75 323.087,757.911C328.173,753.44 333.411,753.11 339.708,753.528C346.429,732.599 354.27,711.068 361.383,690.199C368.252,670.048 375.045,648.362 382.455,628.539C387.733,628.303 399.504,626.262 405.373,625.562C402.177,636.924 396.98,651.02 393.109,662.507L373.236,721.757C421.237,689.108 469.557,656.932 518.191,625.234ZM559.542,272.076C557.849,267.394 556.187,262.057 554.301,257.539C567.441,258.768 582.116,262.109 594.73,265.869C643.931,280.338 687.723,309.102 720.545,348.51C733.577,364.237 748.941,386.606 756.695,405.453L741.87,405.627C737.655,396.048 729.279,382.309 723.33,373.843C693.159,331.453 650.584,299.463 601.471,282.282C586.57,277.206 574.862,274.753 559.542,272.076ZM677.82,405.654L659.94,405.742C645.941,387.338 626.008,371.502 606.169,359.772C600.017,356.135 590.535,352.896 585.402,349.197C583.748,343.828 582.041,338.474 580.281,333.137C588.596,336.336 594.982,338.682 603.124,342.501C628.865,354.577 662.241,381.68 677.82,405.654ZM518.368,674.988C526.398,680.879 536.721,686.561 545.02,692.295C548.672,694.818 554.111,697.718 557.072,700.859C543.048,702.955 535.223,705.303 520.322,705.525C506.921,705.525 493.584,703.683 480.684,700.051C484.079,697.082 490.42,693.221 494.423,690.629C502.459,685.499 510.441,680.285 518.368,674.988ZM441.659,378.458L441.96,378.855C441.663,381.211 434.069,402.233 432.759,405.71C424.193,405.531 415.297,405.687 406.706,405.725C406.526,405.567 406.47,405.307 406.364,405.091C410.947,397.918 433.37,382.179 441.659,378.458ZM552.061,515.957C561.741,516.106 570.538,517.082 580.122,518.036C578.736,520.148 576.041,522.795 574.223,524.703C573.705,529.818 573.216,534.937 572.756,540.059C578.316,540.814 583.922,541.071 589.53,541.783C590.275,536.019 590.952,530.246 591.56,524.466C589.951,522.368 588.319,520.288 586.662,518.227C595.013,519.888 606.162,520.067 615.309,521.613C613.127,523.749 610.555,525.923 608.865,528.426C608.431,533.559 607.96,538.689 607.452,543.814C610.162,545.81 612.216,547.25 614.62,549.59C611.701,551.169 609.25,551.972 606.345,553.949C605.956,560.432 604.924,567.003 604.595,573.602C606.196,576.025 608.727,579.168 610.53,581.703C608.473,581.583 606.215,581.305 604.149,581.096C597.183,580.2 587.387,578.991 580.53,578.766C582.658,576.695 584.955,575.028 587.273,572.723C588.19,566.06 588.782,559.357 589.048,552.636C584.539,552.007 576.707,551.721 571.872,551.35C570.967,557.914 570.526,565.011 570.012,571.655C572.112,573.973 573.495,575.673 575.383,578.175L544.703,575.829C546.129,574.136 550.162,570.607 552.018,568.807C552.711,562.246 553.523,555.428 553.989,548.87C551.331,547.381 548.711,545.827 546.129,544.211C548.296,542.895 552.426,541.107 554.845,539.974C555.495,534.238 556.201,528.509 556.964,522.787C555.02,520.311 553.746,518.6 552.061,515.957ZM365.6,530.13L365.86,530.575C365.239,532.454 362.84,536.157 361.708,538.03C364.505,542.188 369.2,549.5 372.259,553.111C374.78,554.147 377.427,554.761 380.064,555.456C379.47,557.302 378.121,559.839 377.241,561.643C380.768,567.233 385.788,575.703 390.158,580.371C391.314,581.605 397.198,585.495 398.895,586.694C387.391,588.67 374.948,590.897 363.587,593.371C365.157,590.669 367.323,587.647 369.103,585.028C367.502,582 365.929,578.957 364.385,575.9C358.294,577.082 352.255,578.521 346.284,580.214C346.103,581.349 346.062,582.878 345.995,584.062L345.22,590.198C348.198,592.293 350.504,593.392 353.411,595.943C343.527,598.243 333.546,600.485 323.817,603.35C325.373,600.4 328.912,596.475 329.893,594.465C332.288,589.558 333.902,577.267 334.471,571.784L329.072,567.678C331.435,565.541 334.511,563.645 336.37,561.128C337.299,555.35 338.924,550.026 339.586,544.016C336.973,542.054 333.767,539.998 331.028,538.147C340.591,536.475 355.816,532.391 365.6,530.13ZM349.909,552.402C349.131,556.939 348.428,565.089 348.169,569.766C351.419,569.403 353.652,569.044 356.84,568.178C358.199,567.63 358.426,567.804 359.166,566.803C357.983,564.436 351.785,553.498 349.909,552.402Z" style="fill:rgb(254,254,254);"/>
        <g transform="matrix(0.842105,0,0,0.842105,82.0504,90.1611)">
            <path d="M120.138,751.531C125.594,747.324 132.801,742.803 138.659,739.035C162.325,723.894 187.129,710.61 212.849,699.3C205.878,697.065 192.117,692.762 186.03,689.305C182.975,684.734 178.868,674.757 175.551,668.901C176.23,668.536 176.684,668.302 177.404,668.002C220.794,649.528 265.586,634.54 311.355,623.18C495.385,579.55 688.521,595.562 862.854,668.904C859.189,675.235 855.525,684.281 851.739,689.931C845.459,692.95 832.531,696.817 825.29,699.631C849.097,708.794 871.459,721.741 893.341,734.789C900.734,739.197 908.048,744.977 915.42,749.163C921.017,763.968 924.892,781.525 930.382,795.355C893.028,764.818 851.087,740.37 806.107,722.916C799.819,720.523 792.411,717.569 786.052,715.682C779.435,724.931 772.321,733.812 764.738,742.286C761.206,746.257 745.261,760.936 744.568,763.652C746.142,768.096 753.323,768.235 757.004,770.372C767.023,776.19 774.972,784.816 779.134,795.7C783.461,807.293 782.925,820.142 777.645,831.335C766.893,854.687 739.517,865.321 716.109,854.162C704.544,848.696 695.691,838.78 691.549,826.677C689.753,821.428 689.328,817.023 688.604,811.57C673.589,819.937 663.017,826.665 646.893,834.055C580.694,864.393 507.013,870.709 436.777,850.771C414.634,844.35 393.169,835.787 372.685,825.204C365.165,821.303 355.733,815.233 348.957,811.954C347.084,827.383 343.267,838.619 330.355,848.677C320.755,856.241 308.529,859.652 296.399,858.149C284.172,856.616 273.082,850.211 265.644,840.387C249.558,819.499 252.848,791.321 273.417,774.895C276,772.841 279.042,771.508 281.818,769.898C284.621,768.273 291.46,767.32 292.244,764.364C293.122,761.056 286.384,756.18 283.924,753.841C280.606,750.686 277.421,747.396 274.327,744.022C264.87,733.71 259.726,726.125 251.303,715.824C213.691,727.007 173.304,748.236 140.624,769.729C133.655,774.334 126.809,779.12 120.067,784.05C116.554,786.619 110.394,791.415 106.935,793.376C109.864,783.445 116.398,760.323 120.138,751.531ZM652.873,784.155L628.167,767.74C620.838,762.769 610.727,755.627 603.217,751.213C598.424,747.736 593.173,744.637 588.181,740.993C577.366,745.346 563.053,748.605 551.528,750.486C515.498,756.369 483.57,752.464 449.542,739.867C446.084,741.644 438.042,747.485 434.582,749.874C421.074,759.972 406.227,768.761 392.564,778.696C389.982,780.573 387.26,782.504 384.567,784.206C380.566,786.789 373.848,791.339 370.28,794.447C383.847,802.412 394.308,808.259 409.051,814.478C466.302,838.438 529.807,843.064 589.925,827.652C618.16,820.296 642.226,809.395 667.274,794.441C663.463,791.518 656.959,786.559 652.873,784.155ZM517.916,635.399C460.164,673.041 402.784,711.25 345.783,750.021L369.382,679.66C373.979,666.02 380.151,649.281 383.945,635.789C376.976,636.62 362.998,639.044 356.731,639.324C347.93,662.864 339.864,688.616 331.707,712.545C323.26,737.327 313.949,762.895 305.968,787.748C298.491,787.252 292.271,787.644 286.231,792.953C281.097,797.511 278.052,803.971 277.803,810.833C277.556,817.556 280.399,824.501 285.124,829.257C289.674,833.838 295.904,836.35 302.358,836.21C308.94,836.112 315.206,833.378 319.756,828.622C327.889,820.171 328.658,808.856 322.678,798.999C335.648,789.776 515.016,668.08 518.237,667.64L519.195,668.166C533.68,678.373 549.068,688.231 563.879,698.078L663.287,764.195L697.337,787.292C701.943,790.439 710.525,795.962 714.507,799.357C707.452,812.08 711.52,827.22 724.614,833.715C730.524,836.599 737.332,837.04 743.565,834.942C749.827,832.831 754.554,828.321 757.368,822.387C760.206,816.494 760.573,809.711 758.386,803.546C756.184,797.355 751.556,792.326 745.568,789.62C740.494,787.321 736.954,787.374 731.672,787.759L693.55,678.69C690.727,670.721 687.98,662.725 685.31,654.703C683.859,650.415 681.855,643.886 679.913,639.897C671.126,638.134 662.01,637.407 653.091,635.617L680.358,716.859L687.325,737.327C688.613,741.221 690.194,746.891 691.719,750.536C685.077,746.917 676.824,740.968 670.439,736.592C661.594,730.537 652.701,724.552 643.763,718.635C610.318,695.987 576.681,673.623 542.856,651.545C539.635,649.427 519.957,635.851 517.916,635.399ZM488.937,625.075C464.335,626.266 432.726,628.949 408.498,632.578C403.19,646.323 398.965,661.802 393.852,675.693C392.015,680.684 389.906,688.471 387.742,693.055L387.955,693.815L388.832,693.743C408.999,680.441 429.095,667.032 449.12,653.518L477.139,634.84C479.371,633.335 489.583,627.058 489.961,625.311L488.937,625.075ZM545.848,625.242C548.766,628.152 559.514,635.028 563.331,637.591L597.035,660.257L632.812,684.514C635.497,686.331 646.471,693.984 648.955,695.016C646.588,685.476 641.464,671.347 638.235,661.505C635.587,653.431 631.342,639.748 628.295,632.409C610.473,630.155 592.6,628.332 574.69,626.941C566.083,626.247 554.35,625.047 545.848,625.242ZM729.968,717.739C731.945,723.416 733.849,728.961 736.072,734.55C738.672,732.187 742.585,727.767 745.06,725.108C761.277,707.686 775.502,688.511 787.519,667.965C782.393,666.475 777.223,665.214 772.082,663.683C758.521,659.539 744.899,655.595 731.222,651.85C726.54,650.615 708.866,646.369 705.393,644.911C712.126,667.295 720.254,689.179 727.676,711.34C728.377,713.431 729.369,715.668 729.968,717.739ZM518.127,694.482C508.713,700.772 499.235,706.964 489.692,713.056C484.939,716.133 477.409,720.718 473.378,724.244C488.696,728.557 504.534,730.744 520.447,730.744C538.142,730.482 547.435,727.693 564.088,725.204C560.572,721.473 554.113,718.03 549.777,715.034C539.921,708.225 527.662,701.478 518.127,694.482ZM307.298,717.34C313.024,702.314 317.825,686.056 323.244,670.854C325.331,665.002 327.68,656.565 330.028,651.074C330.837,649.198 331.572,647.135 330.584,645.33C328.633,644.908 328.577,645.313 326.351,646C307.787,650.523 289.424,656.295 271.055,661.575C269.219,662.102 266.785,662.782 265.05,663.471C260.078,665.164 255.029,666.206 250.126,667.833C266.313,693.787 279.17,712.449 301.511,734.061C303.247,729.296 306.042,722.137 307.298,717.34ZM66.482,660.61C58.309,659.743 22.814,655.606 22.814,655.606C22.814,655.606 59.948,635.821 69.436,630.573C90.606,618.863 113.28,606.606 135.433,596.8C139.481,603.922 142.666,611.745 145.922,619.278C125.333,628.582 105.143,638.744 85.403,649.733C81.444,651.944 69.5,658.45 66.482,660.61ZM931.336,611.283C951.534,621.296 1018.06,657.573 1018.06,657.573C1018.06,657.573 976.88,659.626 969.745,660.494C968.276,659.234 965.699,657.703 963.995,656.749C940.982,643.874 915.457,629.316 891.127,619.236C894.574,611.848 897.871,604.393 901.018,596.873C911.141,601.026 921.504,606.408 931.336,611.283ZM122.539,567.482L114.141,546.227C135.845,533.667 153.621,525.758 176.897,516.78C176.304,484.105 178.324,464.422 185.896,432.478C172.273,435.899 159.364,435.282 147.209,427.705C110.059,404.549 118.749,347.435 162.089,337.875C174.622,335.116 187.737,337.594 198.399,344.735C204.681,348.86 209.444,354.094 213.478,360.375C220.232,347.705 226.809,335.258 234.523,323.29C284.655,245.512 367.163,189.402 459.023,175.315C466.178,174.218 473.214,173.401 480.48,172.911C477.923,168.49 475.272,164.105 473.599,159.252C465.956,137.07 474.723,113.124 495.257,101.502C506.911,94.928 520.7,93.258 533.586,96.859C546.295,100.535 557.019,109.12 563.386,120.718C572.842,138.141 569.357,156.683 559.493,172.915C574.641,173.786 589.758,176.986 604.301,180.589C692.189,202.366 769.434,261.031 813.101,340.462C816.78,347.155 820.205,353.978 823.732,360.783C829.951,352.19 835.328,346.093 845.141,341.5C861.867,333.673 879.89,335.242 894.807,346.237C905.465,354.078 912.521,365.884 914.364,378.988C916.222,392.197 911.842,405.759 903.789,416.229C896.176,426.257 884.839,432.789 872.345,434.346C864.836,435.232 858.234,434.041 851.018,431.979C858.931,465.439 860.056,482.427 859.884,516.794C882.437,525.745 901.252,533.63 922.141,546.379C919.241,553.535 916.385,560.751 913.182,567.773C893.419,557.259 871.359,549.122 850.37,541.408C801.751,523.54 751.392,510.98 700.401,501.996C648.68,492.795 596.361,487.338 543.854,485.669C405.549,481.604 247.246,506.369 122.539,567.482ZM253.777,374.529C276.279,373.969 299.03,374.375 321.55,374.407C324.516,374.412 327.522,374.672 330.485,374.606L351.773,374.81C370.334,347.392 407.893,321.928 438.562,310.063C440.812,305.126 443.73,295.19 445.388,289.689C449.479,278.45 453.286,266.967 457.194,255.649C461.558,243.01 466.487,229.75 470.187,216.902C472.457,211.119 474.317,204.683 476.307,198.738C456.542,201.858 440.672,204.847 421.346,210.896C358.359,230.963 303.466,270.695 264.725,324.259C256.904,335.012 239.824,362.135 235.021,374.364C238.237,374.564 250.957,375.105 253.777,374.529ZM817.929,503.562C822.714,504.687 828.357,506.725 833.096,508.298C833.092,488.36 832.055,469.103 828.009,449.484C823.175,452.959 817.708,456.714 813.191,460.477C809.492,462.947 773.149,489.265 772.655,490.296C776.09,492.383 790.656,495.779 795.532,497.11C803.009,499.219 810.476,501.37 817.929,503.562ZM517.453,117.956C489.838,122.273 485.513,154.554 510.26,168.293L458.852,318.579L441.764,368.019C439.112,375.716 435.335,387.924 432.307,394.823L197.398,394.761C198.983,386.095 198.846,378.829 193.574,371.177C189.472,365.207 183.082,361.202 175.921,360.115C169.157,359.049 162.006,360.683 156.513,364.812C151.008,368.946 147.41,375.132 146.54,381.962C145.593,389.079 147.531,396.278 151.92,401.959C155.966,407.199 161.946,410.597 168.518,411.392C176.809,412.438 182.274,409.944 188.887,405.595C211.236,422.943 234.686,439.939 257.174,457.233C268.688,466.088 281.48,476.278 293.198,484.596C306.85,481.639 319.415,478.489 333.311,476.882C326.868,470.693 319.62,465.423 312.536,459.971L283.84,437.853C279.583,434.555 272.417,429.301 268.791,425.86C275.868,426.557 284.729,426.28 292.006,426.275L329.22,426.248L454.134,426.298C458.582,414.915 462.93,400.946 466.91,389.229L489.032,324.668L509.402,265.888C512.445,256.9 516.192,247.067 518.537,237.962C519.215,239.975 520.137,242.462 520.685,244.467C536.841,288.818 551.066,334.859 566.772,379.439C572.159,394.73 577.099,411.251 582.926,426.287L708.64,426.238L745.268,426.265C751.862,426.268 762.124,426.551 768.331,425.699C764.934,429.105 758.261,433.854 754.181,436.976L721.518,461.939C716.986,465.404 706.716,472.956 703.041,476.699C713.825,478.623 733.741,482.007 743.644,485.124L812.414,433.062C824.642,423.868 837.551,414.679 849.566,405.326C856.154,409.78 862.282,412.763 870.679,411.252C877.477,409.973 883.455,405.969 887.227,400.171C895.34,387.8 891.738,371.106 879.122,363.479C873.152,359.856 865.957,358.844 859.219,360.68C843.94,364.817 837.651,380.102 841.53,394.752L605.209,394.771C602.67,386.413 599.102,377.215 596.205,368.869L579.492,320.106L527.675,168.544C535.348,165.512 540.455,161.87 543.938,153.923C546.623,147.866 546.813,140.995 544.464,134.799C540.28,123.851 529.214,116.501 517.453,117.956ZM427.036,342.353C417.191,346.772 390.564,365.462 385.122,373.979C385.248,374.235 385.314,374.544 385.529,374.732C395.73,374.687 406.294,374.502 416.466,374.714C418.022,370.586 427.04,345.621 427.393,342.824L427.036,342.353ZM567.021,216.024C572.378,231.352 577.617,246.721 582.737,262.13C585.322,269.9 588.692,281.337 591.649,288.534C593.738,294.871 595.765,301.229 597.73,307.605C603.826,311.997 615.086,315.844 622.39,320.163C645.95,334.092 669.62,352.897 686.244,374.752L707.477,374.648C716.893,374.08 728.921,374.333 738.624,374.336C753.377,374.339 768.844,374.164 783.535,374.616L801.14,374.41C791.932,352.028 773.688,325.465 758.212,306.789C719.237,259.992 667.233,225.835 608.807,208.653C593.827,204.188 576.402,200.221 560.797,198.761C563.037,204.127 565.011,210.464 567.021,216.024ZM518.969,308.699C515.479,317.444 512.155,327.502 508.994,336.481L492.644,382.855C487.233,398.046 481.898,413.263 476.64,428.508C474.665,434.22 471.547,442.138 469.919,447.709C466.061,447.457 462.181,447.245 458.317,447.117C415.926,445.721 373.146,447.667 330.791,446.591C339.927,453.701 349.166,460.663 358.108,468.018C360.156,469.702 362.247,471.324 364.492,472.741C415.595,463.994 467.359,459.678 519.204,459.843C560.571,459.866 601.888,462.7 642.869,468.326C652.341,469.635 663.965,470.974 673.235,472.842C680.046,467.646 686.809,462.029 693.574,456.689C697.151,453.865 703.272,449.512 706.449,446.726C661.326,446.707 612.096,445.688 567.281,447.51C564.093,436.848 520.034,309.758 518.969,308.699ZM219.693,503.146C233.738,500.473 250.23,493.389 265.582,490.686C255.685,482.53 244.264,475.075 234.112,467.184C231.023,464.782 226.969,461.752 223.666,459.722C218.82,456.163 213.774,452.55 209.012,448.906C205.078,468.323 203.427,488.134 204.09,507.936C209.276,506.292 214.478,504.695 219.693,503.146ZM611.224,342.306C612.109,348.738 618.837,367.365 620.932,375.1C631.338,375.278 641.734,375.116 652.145,375.276C644.335,365.602 623.055,346.735 611.224,342.306Z" data-color="color-2"/>
        </g>
    </g>
</svg>
