<?xml version="1.0" encoding="UTF-8" standalone="no"?>
<!DOCTYPE svg PUBLIC "-//W3C//DTD SVG 1.1//EN" "http://www.w3.org/Graphics/SVG/1.1/DTD/svg11.dtd">
<svg width="100%" height="100%" viewBox="0 0 795 840" version="1.1" xmlns="http://www.w3.org/2000/svg" xmlns:xlink="http://www.w3.org/1999/xlink" xml:space="preserve" xmlns:serif="http://www.serif.com/" style="fill-rule:evenodd;clip-rule:evenodd;stroke-linejoin:round;stroke-miterlimit:2;">
    <g transform="matrix(1,0,0,1,-106.983,-70.4135)">
        <path d="M458.448,746.549C469.651,745.762 471.67,749.331 478.931,756.656C486.63,764.423 496.817,770.102 507.406,764.289C522.718,784.293 529.903,803.209 529.495,829.046C529.253,844.348 523.435,868.723 511.5,879.369C503.305,886.679 493.276,887.03 482.879,886.302C449.658,882.921 426.959,866.346 407.773,839.95C409.308,837.169 410.011,835.655 411.206,832.724C436.436,830.555 430.622,801.887 432.311,784.452C433.856,768.493 441.86,751.286 458.448,746.549Z" style="fill:rgb(74,32,0);"/>
        <path d="M466.795,70.691C470.385,70.193 476.035,70.351 479.488,71.28C481.297,71.776 483.05,72.455 484.721,73.307C487.366,74.665 493.816,79.177 495.903,79.867C504.653,82.765 509.992,82.936 518.051,88.113C544.377,105.025 558.87,128.345 566.287,157.877C586.643,162.048 605.495,168.14 607.496,191.85C627.809,196.212 638.884,197.04 657.033,209.664C684.365,228.676 691.352,256.846 703.599,285.462C718.723,320.799 726.515,356.663 732.64,394.403C738.022,428.512 740.914,459.819 719.801,489.705C729.509,499.002 736.652,506.989 743.546,518.769C749.902,529.683 752.045,542.553 756.981,554.015C771.75,588.312 783.116,622.468 793.098,658.393L810.331,721.3C813.267,731.882 814.4,743.424 808.795,753.303C828,777.958 838.49,772.227 865.813,777.896C887.789,782.456 897.507,803.711 900.342,824.083C903.106,843.955 902.769,858.312 879.803,864.437C866.302,868.038 852.905,871.695 838.843,873.012C806.979,875.742 775.313,875.524 749.106,854.466C743.243,854.585 734.076,854.338 728.428,852.882C717.993,850.193 702.98,848.621 696.915,838.759C690.725,828.694 693.092,817.972 692.918,807.435C692.697,794.038 691.514,788.627 694.331,775.55C684.594,770.103 684.862,767.033 680.668,757.368L672.074,737.739C660.575,711.424 648.482,684.808 638.704,657.832C634.631,646.596 632.305,635.383 629.81,623.738C625.191,620.328 623.531,618.573 620.048,614.011C601.036,613.337 592.864,609.878 577.188,600.284C572.856,606.977 568.839,616.325 563.782,621.851C555.239,631.187 546.819,629.612 535.92,629.705C532.551,630.281 529.512,631.938 526.065,632.118C520.857,632.39 515.698,631.041 510.55,630.554C504.514,629.983 498.269,630.174 492.663,627.501C489.472,625.98 487.306,622.736 484.257,620.982C466.782,614.163 461.555,604.349 460.912,585.294C457.436,587.405 453.341,589.537 449.743,591.517C455.02,616.323 458.452,643.365 462.845,668.441C463.541,672.413 462.231,678.843 461.093,682.719C473.036,690.786 491.931,696.324 502.599,707.098C506.854,711.395 510.061,718.378 513.407,723.464C515.639,726.857 518.063,729.381 520.833,732.338C521.342,732.938 521.846,733.542 522.346,734.15C528.076,741.13 529.853,746.294 528.946,755.302C531.416,758.569 533.791,761.906 536.068,765.309C551.764,789.163 555.573,821.538 549.555,849.103C539.628,894.568 513.106,917.739 466.246,907.544C439.479,901.524 415.408,886.934 397.687,865.991C392.225,859.544 388.778,853.771 383.948,847.55C380.9,843.625 374.683,842.269 370.865,835.443C360.67,817.215 360.562,800.037 358.777,780.163C357.969,771.158 355.23,765.738 355.939,755.137C356.804,742.185 358.767,730.244 361.744,717.673C347.892,712.337 343.985,697.902 340.073,684.722C333.464,704.483 321.524,730.384 313.14,749.975C310.059,757.118 307.016,764.277 304.011,771.451C301.218,778.218 298.455,786.894 293.584,792.25C293.82,797.464 294.018,802.679 294.178,807.896C294.517,823.112 290.252,836.57 274.326,841.688C266.707,844.137 260.444,845.609 252.426,845.517C232.888,862.877 208.511,866.537 183.227,866.681C166.881,866.773 123.862,863.021 113.051,851.793C108.233,846.791 106.826,840.035 106.996,833.314C107.603,809.291 113.453,781.919 139.664,774.446C143.611,773.321 147.747,772.977 151.788,772.323C160.499,770.914 167.413,766.07 173.714,760.138C172.372,751.193 176.864,739.954 179.947,731.529C196.977,684.992 198.246,635.355 220.64,590.397C222.192,587.283 224.021,578.333 225.05,574.513C226.614,568.852 228.499,563.284 230.695,557.838C240.693,532.626 258.294,511.136 274.353,489.54C277.56,485.228 280.676,481.073 284.461,477.234C282.793,468.285 281.368,459.292 280.188,450.265C279.496,444.678 279.009,438.162 278.188,432.738C277.004,427.528 274.34,422.633 273.026,417.45C265.597,388.156 269.033,354.543 282.697,327.364C299.912,293.12 333.652,263.964 365.355,243.157C355.514,237.125 345.409,230.819 341.236,219.651C335.379,203.977 344.35,190.59 356.946,182.06C365.042,176.578 371.569,174.085 380.445,170.628C381.133,139.288 400.586,105.713 427.697,89.51C428.96,88.754 438.344,84.298 438.52,84.109C447.875,74.066 453.742,72.326 466.795,70.691ZM468.793,83.196C458.745,84.327 452.628,85.354 448.026,95.375C430.859,99.01 417.383,111.608 408.219,126.034C396.624,144.288 392.581,158.678 393.044,179.856C381.538,183.234 359.837,190.88 353.985,202.239C343.523,222.547 374.753,233.16 388.711,238.167L390.13,243.494C359.088,259.445 318.962,292.722 300.061,322.321C294.774,330.767 290.562,339.839 287.524,349.329C277.39,380.893 280.709,401.731 290.747,431.441C291.726,434.337 292.566,446.251 293.104,450.154C294.62,460.593 296.333,471.002 298.242,481.377C280.709,497.858 262.073,527.579 248.924,547.891C240.129,561.476 236.257,582.088 231.465,597.421C230.436,600.151 229.324,603.289 228.081,605.912C212.613,638.563 209.405,674.71 200.195,709.278C196.59,722.807 192.035,735.538 187.514,748.773C185.556,754.504 185.913,756.922 188.177,762.417C181.092,771.102 171.89,779.633 161.057,783.299C156.211,784.939 151.044,784.979 146.028,785.741C129.921,788.187 124.536,800.65 122.018,815.027C120.802,821.965 118.74,830.046 119.416,837.13C119.699,840.086 120.741,841.946 123.095,843.771C131.629,850.383 170.023,853.823 182.289,853.871C190.81,853.86 199.32,853.212 207.745,851.931C224.89,849.186 236.544,844.689 248.654,832.414C260.085,834.144 280.419,830.514 281.574,816.179C282.401,805.92 280.989,795.347 281.553,784.909C282.854,783.825 286.316,781.062 286.961,779.729C292.159,768.982 296.215,757.155 300.95,746.165C311.295,722.156 322.063,697.838 331.212,673.364C334.322,665.044 337.691,652.936 340.144,644.266C342.701,654.792 355.714,699.938 363.101,704.356C366.558,706.424 370.113,705.762 373.878,705.411C374.83,707.316 375.911,709.368 376.762,711.303C372.365,729.517 366.626,751.912 370.131,770.515C373.798,789.972 371.772,810.341 381.504,828.325C383.785,832.541 387.175,834.095 391.529,835.013C395.662,841.717 398.948,847.16 403.785,853.382C419.438,873.52 442.319,888.84 467.187,894.747C480.684,897.953 500.08,898.913 512.299,891.132C526.236,882.258 533.29,864.771 536.801,849.355C542.636,823.74 539.841,794.319 525.444,771.907C522.113,766.723 518.886,762.923 514.899,758.291C521.119,745.802 510.146,739.575 503.504,730.752C501.282,727.8 499.685,724.762 497.841,721.59C483.772,700.17 455.391,704.184 445.957,681.805C448.682,678.494 451.582,674.577 450.768,670.006C446.542,646.278 442.347,622.541 438.4,598.759C437.643,594.199 436.89,589.734 435.821,585.233C449.133,577.52 462.609,570.096 476.241,562.965C474.091,570.424 473.989,574.705 473.85,582.635C473.628,595.28 475.837,608.255 491.461,608.647C491.472,608.647 494.22,611.755 494.538,612.084C499.895,619.007 504.483,619.11 512.859,616.27C520.485,621.163 526.182,620.051 533.629,615.926C558.749,624.236 561.641,597.797 574.143,581.275C589.396,595.73 606.025,603.152 627.408,602.556C627.976,602.54 628.544,602.521 629.112,602.499C631.047,609.733 633.385,611.923 639.922,615.118L640.544,615.427L640.919,615.607C645.626,648.678 661.377,680.765 674.412,711.198C681.245,727.15 688.274,743.006 694.827,759.077C697.002,764.369 703.125,765.528 708.218,766.832L709.695,772.507C702.35,784.383 705.243,795.588 705.473,808.648C705.611,816.457 702.028,830.631 710.703,834.678C721.641,839.781 740.002,843.302 751.71,841.052C774.966,860.758 802.902,863.199 832.213,860.764C843.523,859.825 880.468,853.979 886.708,847.04C889.685,843.729 889.295,838.193 888.884,834.051C887.65,821.606 884.726,804.157 874.617,795.639C862.418,785.358 840.731,789.399 826.159,783.627C819.707,781.071 813.976,776.773 808.873,772.137C802.694,766.522 797.517,759.97 794.314,752.219C806.314,737.559 796.972,723.72 793.132,707.815C780.694,656.293 766.073,605.633 744.823,556.955C740.11,546.158 737.891,534.264 731.608,524.119C723.402,510.4 713.82,502.034 701.75,492.206C723.057,464.989 726.337,450.476 722.45,415.99C716.801,365.87 706.195,321.68 685.509,275.61C676.819,256.256 671.875,236.447 652.869,222.707C634.724,208.964 609.779,203.478 587.445,201.782C590.729,199.372 594.733,196.125 595.103,191.921C596.429,176.826 571.745,171.414 562.043,170.345C560.101,170.149 558.152,170.014 556.201,169.94C554.113,161.652 552.267,153.77 549.259,145.692C542.358,127.161 528.592,109.486 511.69,99.077C503.703,94.158 495.748,92.129 486.463,91.837C483.595,84.534 476.054,82.386 468.793,83.196ZM498.071,282.476L498.614,282.638L498.753,283.372C491.433,294.727 475.028,294.728 464.402,288.065C463.036,286.824 461.363,285.037 460.025,283.693C472.96,288.118 485.501,287.31 498.071,282.476ZM406.482,492.689C407.09,500.157 407.918,508.36 408.236,515.79C379.893,500.95 343.388,506.834 317.402,523.988C316.008,515.875 314.742,507.741 313.604,499.588C341.88,482.541 376.242,477.692 406.482,492.689ZM702.888,365.43C704.61,373.36 706.201,381.318 707.661,389.3C681.986,383.612 661.779,386.861 637.759,398.271C634.22,399.952 625.064,406.591 622.181,407.449C620.772,402.239 619.498,397.842 617.799,392.701C622.752,388.39 636.688,379.373 642.357,375.902C659.167,365.606 683.434,360.25 702.888,365.43ZM772.387,669.337C774.072,675.622 775.696,681.923 777.259,688.239C759.205,706.312 736.568,713.903 711.107,714.275C702.658,714.399 692.953,713.129 684.996,710.175C682.084,703.988 679.282,697.75 676.59,691.464C687.976,694.418 692.291,695.571 704.439,695.268C727.75,694.688 755.856,686.484 772.387,669.337ZM495.007,441.906C495.447,435.686 495.779,429.458 496.002,423.227C503.335,421.42 510.548,418.99 517.758,416.752C524.98,414.51 532.407,412.449 539.41,409.59C551.802,404.529 563.619,398.318 575.436,392.075C577.937,390.753 590.969,381.836 592.28,382.05C591.665,386.397 590.433,396.671 588.96,400.432C582.5,403.95 567.415,414.718 563.727,416.519C548.834,423.791 510.392,439.063 495.007,441.906ZM208.84,717.516C210.395,712.19 211.619,706.348 212.866,700.91C218.979,705.163 225.409,709.834 232.073,713.261C249.294,722.118 270.055,724.216 289.032,721.181C294.145,720.364 297.791,718.794 301.789,717.994C299.388,724.56 297.17,729.829 293.843,736.045C289.035,738.005 279.104,740.187 273.842,740.323C246.232,741.036 228.982,735.202 208.84,717.516ZM488.05,424.775C487.908,431.162 487.659,437.546 487.304,443.924C470.487,447.697 453.202,451.692 435.949,452.522C427.684,452.919 419.523,452.296 411.267,451.965C409.981,446.153 408.48,440.2 407.088,434.396C409.04,433.726 423.59,435.274 427.464,435.055C448.008,433.893 468.223,429.876 488.05,424.775Z" style="fill:rgb(254,254,254);"/>
        <path d="M468.793,83.196C476.054,82.386 483.595,84.534 486.463,91.837C495.748,92.129 503.703,94.158 511.69,99.077C528.592,109.486 542.358,127.161 549.259,145.692C552.267,153.77 554.113,161.652 556.201,169.94C558.152,170.014 560.101,170.149 562.043,170.345C571.745,171.414 596.429,176.826 595.103,191.921C594.733,196.125 590.729,199.372 587.445,201.782C609.779,203.478 634.724,208.964 652.869,222.707C671.875,236.447 676.819,256.256 685.509,275.61C706.195,321.68 716.801,365.87 722.45,415.99C726.337,450.476 723.057,464.989 701.75,492.206C713.82,502.034 723.402,510.4 731.608,524.119C737.891,534.264 740.11,546.158 744.823,556.955C766.073,605.633 780.694,656.293 793.132,707.815C796.972,723.72 806.314,737.559 794.314,752.219C797.517,759.97 802.694,766.522 808.873,772.137C813.976,776.773 819.707,781.071 826.159,783.627C840.731,789.399 862.418,785.358 874.617,795.639C884.726,804.157 887.65,821.606 888.884,834.051C889.295,838.193 889.685,843.729 886.708,847.04C880.468,853.979 843.523,859.825 832.213,860.764C802.902,863.199 774.966,860.758 751.71,841.052C740.002,843.302 721.641,839.781 710.703,834.678C702.028,830.631 705.611,816.457 705.473,808.648C705.243,795.588 702.35,784.383 709.695,772.507L708.218,766.832C703.125,765.528 697.002,764.369 694.827,759.077C688.274,743.006 681.245,727.15 674.412,711.198C661.377,680.765 645.626,648.678 640.919,615.607L640.544,615.427L639.922,615.118C633.385,611.923 631.047,609.733 629.112,602.499C628.544,602.521 627.976,602.54 627.408,602.556C606.025,603.152 589.396,595.73 574.143,581.275C561.641,597.797 558.749,624.236 533.629,615.926C526.182,620.051 520.485,621.163 512.859,616.27C504.483,619.11 499.895,619.007 494.538,612.084C494.22,611.755 491.472,608.647 491.461,608.647C475.837,608.255 473.628,595.28 473.85,582.635C473.989,574.705 474.091,570.424 476.241,562.965C462.609,570.096 449.133,577.52 435.821,585.233C436.89,589.734 437.643,594.199 438.4,598.759C442.347,622.541 446.542,646.278 450.768,670.006C451.582,674.577 448.682,678.494 445.957,681.805C455.391,704.184 483.772,700.17 497.841,721.59C499.685,724.762 501.282,727.8 503.504,730.752C510.146,739.575 521.119,745.802 514.899,758.291C518.886,762.923 522.113,766.723 525.444,771.907C539.841,794.319 542.636,823.74 536.801,849.355C533.29,864.771 526.236,882.258 512.299,891.132C500.08,898.913 480.684,897.953 467.187,894.747C442.319,888.84 419.438,873.52 403.785,853.382C398.948,847.16 395.662,841.717 391.529,835.013C387.175,834.095 383.785,832.541 381.504,828.325C371.772,810.341 373.798,789.972 370.131,770.515C366.626,751.912 372.365,729.517 376.762,711.303C375.911,709.368 374.83,707.316 373.878,705.411C370.113,705.762 366.558,706.424 363.101,704.356C355.714,699.938 342.701,654.792 340.144,644.266C337.691,652.936 334.322,665.044 331.212,673.364C322.063,697.838 311.295,722.156 300.95,746.165C296.215,757.155 292.159,768.982 286.961,779.729C286.316,781.062 282.854,783.825 281.553,784.909C280.989,795.347 282.401,805.92 281.574,816.179C280.419,830.514 260.085,834.144 248.654,832.414C236.544,844.689 224.89,849.186 207.745,851.931C199.32,853.212 190.81,853.86 182.289,853.871C170.023,853.823 131.629,850.383 123.095,843.771C120.741,841.946 119.699,840.086 119.416,837.13C118.74,830.046 120.802,821.965 122.018,815.027C124.536,800.65 129.921,788.187 146.028,785.741C151.044,784.979 156.211,784.939 161.057,783.299C171.89,779.633 181.092,771.102 188.177,762.417C185.913,756.922 185.556,754.504 187.514,748.773C192.035,735.538 196.59,722.807 200.195,709.278C209.405,674.71 212.613,638.563 228.081,605.912C229.324,603.289 230.436,600.151 231.465,597.421C236.257,582.088 240.129,561.476 248.924,547.891C262.073,527.579 280.709,497.858 298.242,481.377C296.333,471.002 294.62,460.593 293.104,450.154C292.566,446.251 291.726,434.337 290.747,431.441C280.709,401.731 277.39,380.893 287.524,349.329C290.562,339.839 294.774,330.767 300.061,322.321C318.962,292.722 359.088,259.445 390.13,243.494L388.711,238.167C374.753,233.16 343.523,222.547 353.985,202.239C359.837,190.88 381.538,183.234 393.044,179.856C392.581,158.678 396.624,144.288 408.219,126.034C417.383,111.608 430.859,99.01 448.026,95.375C452.628,85.354 458.745,84.327 468.793,83.196ZM617.799,392.701C619.498,397.842 620.772,402.239 622.181,407.449L625.558,421.202C630.868,418.154 636.502,415.709 642.354,413.91C666.082,406.411 689.99,407.814 712.171,419.297L707.661,389.3C706.201,381.318 704.61,373.36 702.888,365.43C701.356,357.971 699.427,350.84 697.372,343.513C673.151,333.687 626.975,358.96 613.727,378.513C614.926,383.278 616.747,388.377 617.799,392.701ZM676.59,691.464C679.282,697.75 682.084,703.988 684.996,710.175C687.588,715.626 690.978,723.018 694.144,728.009C702.193,732.059 713.039,733.814 721.952,733.218C745.48,731.644 765.141,725.371 781.239,707.993C780.282,701.492 778.662,694.692 777.259,688.239C775.696,681.923 774.072,675.622 772.387,669.337L766.59,649.344C741.65,669.432 706.757,677.474 675.25,674.034C673.188,673.798 671.131,673.529 669.079,673.226C670.791,677.74 674.289,687.559 676.59,691.464ZM458.448,746.549C441.86,751.286 433.856,768.493 432.311,784.452C430.622,801.887 436.436,830.555 411.206,832.724C410.011,835.655 409.308,837.169 407.773,839.95C426.959,866.346 449.658,882.921 482.879,886.302C493.276,887.03 503.305,886.679 511.5,879.369C523.435,868.723 529.253,844.348 529.495,829.046C529.903,803.209 522.718,784.293 507.406,764.289C496.817,770.102 486.63,764.423 478.931,756.656C471.67,749.331 469.651,745.762 458.448,746.549ZM531.806,208.678C525.808,209.567 521.265,210.492 515.494,212.458C519.185,213.616 529.304,217.958 527.855,222.683C523.922,224.748 516.119,220.713 512.023,220.383C510.009,220.22 505.226,221.183 503.161,221.623C506.407,221.955 519.115,225.475 516.746,229.719C515.741,229.928 514.774,230.16 513.807,230.506L513.519,231.054C509.624,238.296 501.988,239.372 499.89,230.486C496.119,231.508 492.881,232.341 489.059,233.119C489.618,236.782 490.908,242.353 489.009,245.487L488.053,245.734C483.935,243.291 482.635,231.822 484.816,227.776C485.523,226.463 488.435,224.112 489.542,222.895C492.593,219.544 495.405,217.397 499.178,214.989C488.078,217.236 470.833,217.676 459.206,217.598C463.172,219.766 472.422,224.741 469.714,230.297C466.463,232.781 463.385,231.79 459.181,231.313C458.237,235.425 455.865,240.183 449.709,238.619C446.018,237.681 448.228,233.154 442.545,232.426L442.069,231.771C443.064,229.426 446.297,226.937 448.608,225.843C451.655,224.402 453.765,225.987 456.407,225.923C453.9,218.723 434.037,226.958 429.482,224.808C427.771,221.382 433.918,217.633 436.308,216.135C429.767,215.864 423.244,215.266 416.762,214.342C417.543,220.154 419.171,230.338 417.867,235.835L416.614,237.798L415.632,237.983C411.189,234.358 409.37,219.715 403.836,218.072C399.912,218.571 399.285,222.319 399.526,225.594C400.404,237.575 403.662,248.914 412.934,257.02C414.011,252.585 414.373,250.524 416.445,246.465L416.639,247.133C418.068,252.172 418.942,260.016 419.906,265.251C423.551,285.054 430.774,296.689 446.678,308.981C451.255,312.464 458.627,319.558 463.315,322.157C469.854,325.781 487.756,325.426 494.955,323.23C505.637,319.97 519.656,298.723 525.524,289.129C528.323,284.553 530.6,277.172 532.118,272.02C534.226,263.814 538.128,211.155 533.287,208.445L531.806,208.678ZM507.9,268.946C509.33,269.008 510.189,269.112 511.573,269.601C513.166,270.158 514.455,271.353 515.131,272.899C516.27,275.476 515.511,277.7 514.61,280.163C513.041,279.712 513.035,279.771 511.377,279.802C509.436,280.676 508.371,282.952 507.151,284.755C493.903,304.324 472.527,307.145 454.882,290.051C453.082,287.832 451.458,285.904 449.547,283.776L448.897,283.792L447.496,286.413L446.83,286.429C444.682,282.889 442.801,273.642 449.308,274.442C450.053,275.327 452.575,278.312 453.731,278.351C462.441,278.641 505.817,280.52 509.274,272.036L507.691,270.236L507.9,268.946ZM498.071,282.476C485.501,287.31 472.96,288.118 460.025,283.693C461.363,285.037 463.036,286.824 464.402,288.065C475.028,294.728 491.433,294.727 498.753,283.372L498.614,282.638L498.071,282.476ZM494.547,255.215C505.201,261.157 489.711,269.601 484.207,271.365C476.146,273.947 470.179,269.503 463.462,265.906C460.737,263.654 459.42,258.675 462.987,257.202C466.371,258.065 466.134,260.844 468.659,261.792C478.129,265.35 489.603,264.899 494.547,255.215ZM491.447,303.637C492.736,303.314 492.266,303.338 493.552,303.558C494.99,305.794 492.861,307.576 491.065,308.732C485.382,312.393 478.254,311.61 472.057,310.159C469.864,309.141 468.354,308.575 467.44,306.363C469.251,304.462 486.019,304.88 491.447,303.637ZM381.66,799.897C382.152,803.148 382.654,805.748 383.365,808.96C384.158,812.544 384.975,816.881 386.299,820.231C386.172,817.721 385.355,812.356 384.763,809.896C383.415,805.273 382.991,799.344 382.567,794.487C382.842,790.556 385.122,757.862 385.84,756.313L386.651,756.013C388.708,757.871 388.785,762.537 388.914,765.183C389.443,776.017 386.825,786.853 387.613,797.65C388.118,804.583 390.873,811.309 392.178,818.126C392.904,821.921 393.364,828.815 396.273,831.473C397.349,832.456 398.988,833.159 400.446,832.94C401.747,832.744 402.736,832.052 403.424,830.953C404.225,829.672 400.848,816.062 400.393,813.641C399.152,807.049 397.205,800.8 396.907,794.041C396.687,789.036 400.763,754.495 403.565,752.373C404.361,752.722 404.93,752.828 405.106,753.908C407.07,765.939 402.74,778.559 402.912,790.533C402.987,795.683 406.821,820.51 409.776,823.498C414.529,825.583 418.52,819.465 420.058,815.803C422.052,811.057 422.014,805.641 422.088,800.574C422.103,781.956 422.755,769.092 433.685,753.243C438.257,746.613 441.578,741.679 449.647,738.332C456.686,735.413 466.156,735.127 473.16,738.244C474.631,738.899 477.669,740.531 478.824,741.701C484.487,747.445 492.944,759.441 502.495,756.332C504.025,755.834 506.403,753.889 507.139,752.287C507.76,750.934 507.266,749.499 506.517,748.227C504.235,744.352 500.52,741.061 497.727,737.487C494.94,733.92 490.603,725.962 487.279,723.377C473.573,712.717 455.116,709.084 442.089,697.248C434.008,689.906 435.681,675.278 427.351,673.725C415.365,671.491 397.589,678.444 387.496,684.789C384.33,686.779 381.659,688.927 378.953,691.267C381.478,697.525 384.206,703.966 386.632,710.233C383.295,723.898 379.851,737.306 377.847,751.263C375.826,765.336 380.816,778.662 381.12,792.689C381.164,795.019 381.392,797.6 381.66,799.897ZM560.122,504.089C554.467,505.758 547.484,511.932 541.55,515.383C531.027,521.503 517.46,525.563 507.683,532.402C506.576,533.177 500.685,542.518 499.345,544.41C495.165,550.854 488.718,557.331 485.446,564.241C482.22,571.056 481.431,586.589 482.941,593.997C483.53,596.882 487.689,600.859 490.86,600.304C494.955,595.199 493.265,585.157 494.526,579.965C496.067,573.617 509.343,550.741 514.13,547.639L515.226,547.722C518.894,553.327 507.067,568.712 504.331,574.894C501.008,582.402 501.299,586.132 499.957,594.979C499.333,599.094 498.478,611.713 508.902,608.167C512.37,606.987 511.726,594.277 513.94,591.157C518.352,580.223 523.786,571.135 528.524,560.531C529.513,558.448 530.258,556.587 532.858,556.376C538.099,561.902 525.189,581.22 522.653,587.025C520.694,591.507 516.167,605.176 518.798,609.27C521.252,610.965 526.791,610.952 528.438,608.46C531.571,603.721 532.501,597.962 534.741,592.809C539.085,584.246 544.409,575.954 548.671,567.277C549.232,566.134 549.745,565.709 550.803,565.197C551.608,565.49 551.612,565.272 551.849,565.977C555.07,575.541 531.764,604.74 539.948,608.581C541.545,609.331 543.958,609.17 545.545,608.418C547.03,607.714 548.132,606.658 549.098,605.344C552.362,600.907 554.606,595.494 557.235,590.656C560.536,584.58 564.47,578.517 568.486,572.885C577.703,559.959 589.346,555.558 594.807,538.963C595.48,536.97 596.03,534.937 596.455,532.876C590.063,519.971 575.722,503.677 560.122,504.089ZM468.432,109.148C453.493,111.958 448.812,116.496 438.187,126.992C434.814,146.898 434.008,162.881 436.631,182.96C451.343,183.226 464.758,186.131 479.448,184.36C490.295,182.659 501.315,180.206 512.065,178.744C511.996,167.59 511.41,158.263 509.335,147.186C508.064,140.403 504.423,129.286 503.743,122.976C490.893,114.92 484.864,106.956 468.432,109.148ZM473.183,123.205C475.064,122.986 478.551,122.966 480.56,122.889C481.13,127.531 482.077,132.572 482.855,137.218C486.835,136.407 491.773,135.865 495.862,135.309C496.511,142.821 497.432,150.115 498.028,157.81C493.94,157.964 489.714,158.307 485.622,158.585C485.941,163.565 485.996,168.897 486.137,173.91L474.375,173.905L461.266,173.984C461.012,169.349 461.03,164.169 460.944,159.488C456.842,159.743 452.737,159.923 448.628,160.028C447.933,152.281 448.018,145.835 448.099,138.085L460.991,137.91L461.538,124.219L473.183,123.205ZM392.008,605.2C372.196,607.305 357.738,612.924 345.079,628.469C347.232,636.501 349.427,645.402 351.856,653.289C358.749,645.293 366.925,639.614 376.668,635.509C394.272,628.653 414.151,626.228 431.885,634.004C432.868,634.433 433.844,634.876 434.813,635.335C433.366,627.969 432.012,620.584 430.752,613.183C418.941,606.568 405.545,603.465 392.008,605.2ZM600.729,452.109C595.425,456.688 589.226,464.528 584.38,469.863C613.617,466.755 641.201,492.505 645.874,520.686C646.229,522.828 645.495,526.498 646.532,528.11C648.236,527.91 647.946,527.714 649.538,526.383C655.378,521.638 661.661,516.706 667.35,511.834C663.27,480.965 632.819,450.852 600.729,452.109ZM546.153,218.147C542.387,224.232 539.105,247.092 541.598,253.586L542.419,253.673L544.411,251.953C549.241,244.861 555.196,224.904 548.173,218.584C547.466,218.408 546.87,218.217 546.153,218.147ZM588.96,400.432C590.433,396.671 591.665,386.397 592.28,382.05C593.591,375.501 594.999,366.726 596.587,360.504C570.487,376.658 526.386,396.831 495.987,401.87C496.132,408.988 496.137,416.108 496.002,423.227C495.779,429.458 495.447,435.686 495.007,441.906C494.482,448.656 494.099,455.417 493.861,462.184C515.499,455.96 537.392,448.462 557.226,437.616C563.761,434.042 579.109,425.199 582.866,419.055C584.28,416.743 587.994,403.685 588.96,400.432ZM293.843,736.045C297.17,729.829 299.388,724.56 301.789,717.994C304.013,713.316 306.742,705.781 308.717,700.788C274.204,706.032 244.373,702.63 217.293,678.742C215.982,685.41 213.775,694.398 212.866,700.91C211.619,706.348 210.395,712.19 208.84,717.516L205.154,729.687C210.422,741.997 217.771,745.783 230.265,751C244.277,756.85 266.244,761.197 281.031,755.496C288.242,752.716 290.853,743.2 293.843,736.045ZM407.088,434.396C408.48,440.2 409.981,446.153 411.267,451.965C412.642,458.305 413.969,464.655 415.248,471.014C443.927,471.526 458.062,470.466 485.907,464.637C486.103,458.179 486.845,450.461 487.304,443.924C487.659,437.546 487.908,431.162 488.05,424.775C488.434,417.783 488.776,410.789 489.074,403.792C477.461,407.21 466.195,410.825 454.091,411.942C437.112,413.508 418.19,417.196 401.606,412.391C403.238,420.043 405.215,426.879 407.088,434.396ZM313.604,499.588C314.742,507.741 316.008,515.875 317.402,523.988C318.913,530.878 319.88,539.488 321.292,546.718C343.03,527.343 383.865,526.625 409.623,537.629C409.328,530.339 408.865,523.058 408.236,515.79C407.918,508.36 407.09,500.157 406.482,492.689C405.822,485.502 405.064,476.689 403.833,469.658C392.562,461.75 378.306,459.738 364.823,459.814C344.575,459.928 326.344,466.011 309.791,477.543C311.156,484.875 312.427,492.224 313.604,499.588Z" style="fill:rgb(79,0,0);"/>
        <path d="M558.287,183.646C565.496,182.725 571.496,183.274 578.285,185.725C562.351,186.347 553.005,191.783 538.86,195.508C524.811,199.066 510.604,201.973 496.286,204.219C485.401,205.96 471.149,206.087 459.937,206.607C455.953,206.765 451.421,205.917 447.486,206.102C426.872,207.071 407.119,202.481 386.375,201.781C379.619,201.86 372.866,202.121 366.123,202.562C372.7,200.13 384.676,195.592 391.506,195.217C408.962,194.259 426.727,198.945 444.481,199.307C457.529,200.048 471.897,201.592 484.91,199.842C495.466,198.421 509.793,196.959 519.923,194.167L544.099,187.287C548.514,186.027 553.068,184.463 557.571,183.754L558.287,183.646ZM394.275,282.832C394.96,285.383 394.905,292.069 395.519,295.241C397.963,307.878 402.164,330.737 410.138,340.495C440.918,328.467 463.602,336.505 489.652,354.55C487.638,353.945 485.168,352.938 483.158,352.185C478.623,350.728 474.061,349.356 469.474,348.069C446.425,341.743 428.686,340.397 407.645,352.328C404.066,347.137 399.711,341.019 397.194,335.307C390.858,320.933 388.697,297.581 394.275,282.832ZM566.154,280.388C572.844,287.358 572.429,313.51 571.429,322.48C545.723,318.237 528.845,327.155 509.127,344.003C494.041,356.895 499.439,368.165 499.148,386.125C499.049,388.106 499.418,387.329 498.347,388.669C496.44,389.375 497.339,389.383 495.576,388.936C494.451,387.338 494.499,386.921 494.524,384.694C494.575,380.17 494.177,373.105 494.972,368.819C497.504,355.18 502.787,341.294 512.795,331.371C522.166,322.08 533.863,314.422 546.976,312.016C550.725,311.328 558.237,311.375 562.054,311.33C565.787,302.993 565.859,289.569 566.154,280.388ZM570.683,484.169C586.101,484.071 611.506,506.328 617.939,519.966C625.24,535.44 627.111,547.18 609.82,555.817L612.589,551.573C623.809,529.093 597.703,501.371 578.484,493.004C570.688,489.609 564.186,488.674 555.903,490.205C560.906,486.749 564.625,484.977 570.683,484.169ZM841.236,798.662C852.831,797.361 861.335,798.986 868.527,809.054C859.025,810.442 848.876,812.456 839.376,814.163C834.597,814.907 817.803,819.099 814.697,817.271C814.499,814.827 815.897,812.65 817.384,810.667C822.792,803.461 832.612,799.866 841.236,798.662ZM159.977,793.191C174.09,793.001 184.825,796.737 190.923,810.49C184.645,810.068 178.377,809.339 172.119,808.668C160.658,807.534 150.875,806.342 139.29,806.556C143.306,796.473 149.739,794.185 159.977,793.191ZM244.868,818.006L245.181,818.22L245.074,818.747C241.628,821.864 237.771,825.308 233.863,827.813C207.419,844.767 162.485,837.665 133.102,831.453C132.445,831.274 132.843,831.439 132.043,830.713C132.25,824.442 137.09,827.336 141.517,828.213C149.114,829.726 156.775,830.901 164.477,831.733C180.848,833.474 207.776,833.791 223.87,828.873C227.64,827.722 240.379,820.39 244.868,818.006ZM405.573,655.169C406.96,655.038 408.351,654.939 409.744,654.873C420.058,654.443 431.924,657.001 439.744,664.108C421.195,659.664 404.116,662.201 386.992,670.54C380.898,673.741 370.736,681.141 364.439,685.299C365.834,681.987 367.025,679.755 369.136,676.896C377.96,665.153 391.046,657.35 405.573,655.169ZM429.813,113.989L430.153,114.216C429.186,116.784 426.002,121.274 424.488,125.473C417.674,144.364 413.471,158.573 413.754,178.7C410.461,178.068 407.331,177.973 403.988,177.782L402.977,177.603L402.538,176.789C403.633,153.025 412.797,130.836 429.813,113.989ZM755.607,826.967C763.058,828.366 770.265,832.199 776.916,835.622C788.961,841.821 805.297,842.059 818.696,841.573C828.309,841.217 837.888,840.234 847.373,838.629C856.001,837.191 864.477,835.646 872.815,833.037C873.691,832.763 874.709,832.871 875.592,833.122C876.477,834.233 876.325,834.614 876.398,836.059C862.384,839.747 849.96,842.685 835.511,844.213C802.868,847.666 781.977,847.511 755.607,826.967ZM619.891,302.496C620.581,304.023 621.059,309.65 621.23,311.549C622.776,328.742 620.384,345.44 615.11,361.823C614.272,364.426 613.532,368.347 612.32,370.706L611.771,369.894C611.045,367.02 607.464,353.337 607.812,351.272C609.07,343.795 612.837,333.966 614.881,326.048C617.006,317.814 618.097,310.523 619.891,302.496ZM330.197,321.454C355.583,323.578 379.378,352.464 384.653,375.85C385.526,379.72 387,384.136 386.933,388.121C384.987,383.542 383.816,379.642 381.423,375.007C369.097,351.132 353.255,334.843 330.197,321.454ZM643.148,426.709C658.437,426.012 670.426,430.749 682.477,439.773C676.337,438.708 670.208,437.58 664.092,436.388C650.481,434.098 638.224,433.699 624.69,436.346L624.71,429.923C631.766,428.08 635.903,427.167 643.148,426.709ZM392.872,557.717C402.193,557.704 406.318,558.34 415.444,559.731L416.651,566.823C401.145,563.703 391.319,563.259 375.799,565.834C367.972,567.574 360.706,570.058 353.258,572.984C368.279,561.68 373.998,558.63 392.872,557.717ZM442.335,504.958C446.215,505.342 452.748,506.877 456.904,507.516C467.373,509.127 474.832,509.289 485.168,508.339C486.707,511.833 488.305,515.301 489.963,518.74C471.724,520.065 457.227,515.805 442.335,504.958ZM786.057,755.141C787.171,756.228 787.915,758.63 788.525,760.168C776.302,765.263 767.803,766.264 754.602,764.188C753,763.808 751.89,763.67 750.491,762.785C765.387,760.648 771.61,759.489 786.057,755.141ZM487.832,477.639C489.781,477.719 490.074,477.739 491.965,478.164C495.335,482.303 488.742,501.313 486.928,506.468C485.112,506.737 484.707,506.884 482.86,506.515C482.86,506.512 487.49,481.44 487.832,477.639ZM318.128,577.357C319.401,581.168 321.127,589.305 322.33,593.647C324.834,602.445 327.705,611.134 330.933,619.693C319.912,615.802 317.737,587.064 318.128,577.357Z" style="fill:white;fill-opacity:0.5;"/>
        <path d="M313.604,499.588C312.427,492.224 311.156,484.875 309.791,477.543C326.344,466.011 344.575,459.928 364.823,459.814C378.306,459.738 392.562,461.75 403.833,469.658C405.064,476.689 405.822,485.502 406.482,492.689C376.242,477.692 341.88,482.541 313.604,499.588ZM408.236,515.79C408.865,523.058 409.328,530.339 409.623,537.629C383.865,526.625 343.03,527.343 321.292,546.718C319.88,539.488 318.913,530.878 317.402,523.988C343.388,506.834 379.893,500.95 408.236,515.79ZM676.59,691.464C674.289,687.559 670.791,677.74 669.079,673.226C671.131,673.529 673.188,673.798 675.25,674.034C706.757,677.474 741.65,669.432 766.59,649.344L772.387,669.337C755.856,686.484 727.75,694.688 704.439,695.268C692.291,695.571 687.976,694.418 676.59,691.464ZM777.259,688.239C778.662,694.692 780.282,701.492 781.239,707.993C765.141,725.371 745.48,731.644 721.952,733.218C713.039,733.814 702.193,732.059 694.144,728.009C690.978,723.018 687.588,715.626 684.996,710.175C692.953,713.129 702.658,714.399 711.107,714.275C736.568,713.903 759.205,706.312 777.259,688.239ZM707.661,389.3L712.171,419.297C689.99,407.814 666.082,406.411 642.354,413.91C636.502,415.709 630.868,418.154 625.558,421.202L622.181,407.449C625.064,406.591 634.22,399.952 637.759,398.271C661.779,386.861 681.986,383.612 707.661,389.3ZM617.799,392.701C616.747,388.377 614.926,383.278 613.727,378.513C626.975,358.96 673.151,333.687 697.372,343.513C699.427,350.84 701.356,357.971 702.888,365.43C683.434,360.25 659.167,365.606 642.357,375.902C636.688,379.373 622.752,388.39 617.799,392.701ZM496.002,423.227C496.137,416.108 496.132,408.988 495.987,401.87C526.386,396.831 570.487,376.658 596.587,360.504C594.999,366.726 593.591,375.501 592.28,382.05C590.969,381.836 577.937,390.753 575.436,392.075C563.619,398.318 551.802,404.529 539.41,409.59C532.407,412.449 524.98,414.51 517.758,416.752C510.548,418.99 503.335,421.42 496.002,423.227ZM588.96,400.432C587.994,403.685 584.28,416.743 582.866,419.055C579.109,425.199 563.761,434.042 557.226,437.616C537.392,448.462 515.499,455.96 493.861,462.184C494.099,455.417 494.482,448.656 495.007,441.906C510.392,439.063 548.834,423.791 563.727,416.519C567.415,414.718 582.5,403.95 588.96,400.432ZM212.866,700.91C213.775,694.398 215.982,685.41 217.293,678.742C244.373,702.63 274.204,706.032 308.717,700.788C306.742,705.781 304.013,713.316 301.789,717.994C297.791,718.794 294.145,720.364 289.032,721.181C270.055,724.216 249.294,722.118 232.073,713.261C225.409,709.834 218.979,705.163 212.866,700.91ZM293.843,736.045C290.853,743.2 288.242,752.716 281.031,755.496C266.244,761.197 244.277,756.85 230.265,751C217.771,745.783 210.422,741.997 205.154,729.687L208.84,717.516C228.982,735.202 246.232,741.036 273.842,740.323C279.104,740.187 289.035,738.005 293.843,736.045ZM468.432,109.148C484.864,106.956 490.893,114.92 503.743,122.976C504.423,129.286 508.064,140.403 509.335,147.186C511.41,158.263 511.996,167.59 512.065,178.744C501.315,180.206 490.295,182.659 479.448,184.36C464.758,186.131 451.343,183.226 436.631,182.96C434.008,162.881 434.814,146.898 438.187,126.992C448.812,116.496 453.493,111.958 468.432,109.148ZM473.183,123.205L461.538,124.219L460.991,137.91L448.099,138.085C448.018,145.835 447.933,152.281 448.628,160.028C452.737,159.923 456.842,159.743 460.944,159.488C461.03,164.169 461.012,169.349 461.266,173.984L474.375,173.905L486.137,173.91C485.996,168.897 485.941,163.565 485.622,158.585C489.714,158.307 493.94,157.964 498.028,157.81C497.432,150.115 496.511,142.821 495.862,135.309C491.773,135.865 486.835,136.407 482.855,137.218C482.077,132.572 481.13,127.531 480.56,122.889C478.551,122.966 475.064,122.986 473.183,123.205ZM407.088,434.396C405.215,426.879 403.238,420.043 401.606,412.391C418.19,417.196 437.112,413.508 454.091,411.942C466.195,410.825 477.461,407.21 489.074,403.792C488.776,410.789 488.434,417.783 488.05,424.775C468.223,429.876 448.008,433.893 427.464,435.055C423.59,435.274 409.04,433.726 407.088,434.396ZM487.304,443.924C486.845,450.461 486.103,458.179 485.907,464.637C458.062,470.466 443.927,471.526 415.248,471.014C413.969,464.655 412.642,458.305 411.267,451.965C419.523,452.296 427.684,452.919 435.949,452.522C453.202,451.692 470.487,447.697 487.304,443.924ZM392.008,605.2C405.545,603.465 418.941,606.568 430.752,613.183C432.012,620.584 433.366,627.969 434.813,635.335C433.844,634.876 432.868,634.433 431.885,634.004C414.151,626.228 394.272,628.653 376.668,635.509C366.925,639.614 358.749,645.293 351.856,653.289C349.427,645.402 347.232,636.501 345.079,628.469C357.738,612.924 372.196,607.305 392.008,605.2ZM600.729,452.109C632.819,450.852 663.27,480.965 667.35,511.834C661.661,516.706 655.378,521.638 649.538,526.383C647.946,527.714 648.236,527.91 646.532,528.11C645.495,526.498 646.229,522.828 645.874,520.686C641.201,492.505 613.617,466.755 584.38,469.863C589.226,464.528 595.425,456.688 600.729,452.109Z" style="fill:rgb(252,169,27);"/>
        <path d="M381.66,799.897C381.392,797.6 381.164,795.019 381.12,792.689C380.816,778.662 375.826,765.336 377.847,751.263C379.851,737.306 383.295,723.898 386.632,710.233C384.206,703.966 381.478,697.525 378.953,691.267C381.659,688.927 384.33,686.779 387.496,684.789C397.589,678.444 415.365,671.491 427.351,673.725C435.681,675.278 434.008,689.906 442.089,697.248C455.116,709.084 473.573,712.717 487.279,723.377C490.603,725.962 494.94,733.92 497.727,737.487C500.52,741.061 504.235,744.352 506.517,748.227C507.266,749.499 507.76,750.934 507.139,752.287C506.403,753.889 504.025,755.834 502.495,756.332C492.944,759.441 484.487,747.445 478.824,741.701C477.669,740.531 474.631,738.899 473.16,738.244C466.156,735.127 456.686,735.413 449.647,738.332C441.578,741.679 438.257,746.613 433.685,753.243C422.755,769.092 422.103,781.956 422.088,800.574C422.014,805.641 422.052,811.057 420.058,815.803C418.52,819.465 414.529,825.583 409.776,823.498C406.821,820.51 402.987,795.683 402.912,790.533C402.74,778.559 407.07,765.939 405.106,753.908C404.93,752.828 404.361,752.722 403.565,752.373C400.763,754.495 396.687,789.036 396.907,794.041C397.205,800.8 399.152,807.049 400.393,813.641C400.848,816.062 404.225,829.672 403.424,830.953C402.736,832.052 401.747,832.744 400.446,832.94C398.988,833.159 397.349,832.456 396.273,831.473C393.364,828.815 392.904,821.921 392.178,818.126C390.873,811.309 388.118,804.583 387.613,797.65C386.825,786.853 389.443,776.017 388.914,765.183C388.785,762.537 388.708,757.871 386.651,756.013L385.84,756.313C385.122,757.862 382.842,790.556 382.567,794.487C382.991,799.344 383.415,805.273 384.763,809.896C385.355,812.356 386.172,817.721 386.299,820.231C384.975,816.881 384.158,812.544 383.365,808.96C382.654,805.748 382.152,803.148 381.66,799.897ZM531.806,208.678L533.287,208.445C538.128,211.155 534.226,263.814 532.118,272.02C530.6,277.172 528.323,284.553 525.524,289.129C519.656,298.723 505.637,319.97 494.955,323.23C487.756,325.426 469.854,325.781 463.315,322.157C458.627,319.558 451.255,312.464 446.678,308.981C430.774,296.689 423.551,285.054 419.906,265.251C418.942,260.016 418.068,252.172 416.639,247.133L416.445,246.465C414.373,250.524 414.011,252.585 412.934,257.02C403.662,248.914 400.404,237.575 399.526,225.594C399.285,222.319 399.912,218.571 403.836,218.072C409.37,219.715 411.189,234.358 415.632,237.983L416.614,237.798L417.867,235.835C419.171,230.338 417.543,220.154 416.762,214.342C423.244,215.266 429.767,215.864 436.308,216.135C433.918,217.633 427.771,221.382 429.482,224.808C434.037,226.958 453.9,218.723 456.407,225.923C453.765,225.987 451.655,224.402 448.608,225.843C446.297,226.937 443.064,229.426 442.069,231.771L442.545,232.426C448.228,233.154 446.018,237.681 449.709,238.619C455.865,240.183 458.237,235.425 459.181,231.313C463.385,231.79 466.463,232.781 469.714,230.297C472.422,224.741 463.172,219.766 459.206,217.598C470.833,217.676 488.078,217.236 499.178,214.989C495.405,217.397 492.593,219.544 489.542,222.895C488.435,224.112 485.523,226.463 484.816,227.776C482.635,231.822 483.935,243.291 488.053,245.734L489.009,245.487C490.908,242.353 489.618,236.782 489.059,233.119C492.881,232.341 496.119,231.508 499.89,230.486C501.988,239.372 509.624,238.296 513.519,231.054L513.807,230.506C514.774,230.16 515.741,229.928 516.746,229.719C519.115,225.475 506.407,221.955 503.161,221.623C505.226,221.183 510.009,220.22 512.023,220.383C516.119,220.713 523.922,224.748 527.855,222.683C529.304,217.958 519.185,213.616 515.494,212.458C521.265,210.492 525.808,209.567 531.806,208.678ZM507.9,268.946L507.691,270.236L509.274,272.036C505.817,280.52 462.441,278.641 453.731,278.351C452.575,278.312 450.053,275.327 449.308,274.442C442.801,273.642 444.682,282.889 446.83,286.429L447.496,286.413L448.897,283.792L449.547,283.776C451.458,285.904 453.082,287.832 454.882,290.051C472.527,307.145 493.903,304.324 507.151,284.755C508.371,282.952 509.436,280.676 511.377,279.802C513.035,279.771 513.041,279.712 514.61,280.163C515.511,277.7 516.27,275.476 515.131,272.899C514.455,271.353 513.166,270.158 511.573,269.601C510.189,269.112 509.33,269.008 507.9,268.946ZM491.447,303.637C486.019,304.88 469.251,304.462 467.44,306.363C468.354,308.575 469.864,309.141 472.057,310.159C478.254,311.61 485.382,312.393 491.065,308.732C492.861,307.576 494.99,305.794 493.552,303.558C492.266,303.338 492.736,303.314 491.447,303.637ZM494.547,255.215C489.603,264.899 478.129,265.35 468.659,261.792C466.134,260.844 466.371,258.065 462.987,257.202C459.42,258.675 460.737,263.654 463.462,265.906C470.179,269.503 476.146,273.947 484.207,271.365C489.711,269.601 505.201,261.157 494.547,255.215ZM560.122,504.089C575.722,503.677 590.063,519.971 596.455,532.876C596.03,534.937 595.48,536.97 594.807,538.963C589.346,555.558 577.703,559.959 568.486,572.885C564.47,578.517 560.536,584.58 557.235,590.656C554.606,595.494 552.362,600.907 549.098,605.344C548.132,606.658 547.03,607.714 545.545,608.418C543.958,609.17 541.545,609.331 539.948,608.581C531.764,604.74 555.07,575.541 551.849,565.977C551.612,565.272 551.608,565.49 550.803,565.197C549.745,565.709 549.232,566.134 548.671,567.277C544.409,575.954 539.085,584.246 534.741,592.809C532.501,597.962 531.571,603.721 528.438,608.46C526.791,610.952 521.252,610.965 518.798,609.27C516.167,605.176 520.694,591.507 522.653,587.025C525.189,581.22 538.099,561.902 532.858,556.376C530.258,556.587 529.513,558.448 528.524,560.531C523.786,571.135 518.352,580.223 513.94,591.157C511.726,594.277 512.37,606.987 508.902,608.167C498.478,611.713 499.333,599.094 499.957,594.979C501.299,586.132 501.008,582.402 504.331,574.894C507.067,568.712 518.894,553.327 515.226,547.722L514.13,547.639C509.343,550.741 496.067,573.617 494.526,579.965C493.265,585.157 494.955,595.199 490.86,600.304C487.689,600.859 483.53,596.882 482.941,593.997C481.431,586.589 482.22,571.056 485.446,564.241C488.718,557.331 495.165,550.854 499.345,544.41C500.685,542.518 506.576,533.177 507.683,532.402C517.46,525.563 531.027,521.503 541.55,515.383C547.484,511.932 554.467,505.758 560.122,504.089ZM546.153,218.147C546.87,218.217 547.466,218.408 548.173,218.584C555.196,224.904 549.241,244.861 544.411,251.953L542.419,253.673L541.598,253.586C539.105,247.092 542.387,224.232 546.153,218.147Z" style="fill:rgb(239,180,130);"/>
    </g>
</svg>
