<svg width="100%" height="100%" viewBox="0 0 743 845" version="1.1" xmlns="http://www.w3.org/2000/svg" xmlns:xlink="http://www.w3.org/1999/xlink" xml:space="preserve" xmlns:serif="http://www.serif.com/" style="fill-rule:evenodd;clip-rule:evenodd;stroke-linejoin:round;stroke-miterlimit:2;">
    <g transform="matrix(1,0,0,1,-121.739,-58.3899)">
        <path d="M500.434,75.2C518.725,73.743 560.093,76.427 564.327,99.465C588.779,111.814 606.322,127.052 616.963,153.126C624.749,152.677 632.368,152.041 637.34,159.605C646.331,173.284 647.243,192.713 646.633,208.588C646.419,214.148 645.121,219.637 644.486,225.145C644.511,226.277 643.621,228.973 645.047,229.533C660.132,235.46 673.108,240.31 685.315,251.639C694.94,260.572 698.843,270.356 705.364,281.512C709.334,288.33 713.786,294.856 718.685,301.04C730.867,316.434 747.494,329.084 760.172,345.584C778.103,368.922 793.345,392.39 789.749,423.521C787.482,443.146 777.678,460.199 763.171,473.366C761.737,475.116 751.025,482.507 750.58,483.546C746.027,494.16 741.156,497.649 732.339,504.738C756.874,525.602 763.985,550.475 756.292,581.864C757.781,584.629 759.204,587.429 760.559,590.262C768.062,606.118 772.264,628.373 768.647,645.921C767.819,650.255 763.887,656.651 764.209,660.956C765.734,681.355 768.388,705.555 761.36,725.2C766.648,737.633 768.099,741.952 767.981,755.548C777.439,759.459 788.661,765.475 794.199,774.369C796.471,774.561 798.739,774.792 801.002,775.062C813.862,776.72 826.02,782.315 834.048,792.705C841.586,802.461 840.615,807.888 843.385,817.986C847.032,825.984 851.299,832.37 850.018,841.698C848.894,849.882 839.681,854.599 832.231,857.039C807.965,864.985 779.509,865.747 754.287,862.223C732.106,859.124 712.793,852.18 699.128,833.71L698.058,841.471C687.939,841.552 682.553,840.228 673.372,836.742C658.465,831.082 656.873,825.321 658.102,810.261C658.66,803.414 659.362,796.151 660.258,789.222C660.454,787.707 659.509,782.487 659.299,780.595C658.796,775.624 658.86,770.612 659.491,765.656C660.439,758.502 662.323,753.829 664.989,747.271C662.706,745.084 659.379,741.188 657.503,738.567C648.743,726.068 644.876,709.31 640.741,694.803C637.823,684.565 638.502,679.595 631.243,671.092C627.644,666.877 624.409,655.641 623.281,650.173C620.908,638.67 621.657,625.83 623.47,614.209C620.752,611.515 619.113,609.394 617.165,606.158C574.387,618.087 538.65,616.292 496.607,602.936C478.066,608.516 469.217,611.563 449.281,614.192C450.746,628.761 451.814,645.228 442.964,657.626C444.761,662.758 444.918,665.718 445.667,671.062C451.509,675.626 459.499,678.621 466.319,684.178C476.494,692.47 482.515,700.056 491.484,709.009C495.655,713.172 499.084,712.643 504.57,719.703C506.881,723.428 507.757,726.704 508.065,731.014C542.836,760.812 557.041,822.218 536.2,863.677C531.617,872.794 522.178,884.442 511.682,887.078C486.109,893.5 456.436,882.358 433.298,871.388C408.726,858.998 387.241,836.673 378.917,810.293L378.023,810.041C348.716,801.498 352.227,749.151 356.354,725.475C357.933,716.415 360.688,707.024 363.243,698.206C351.136,692.862 349.77,690.935 340.499,680.989C335.817,697.118 330.456,704.922 316.449,713.605C312.937,724.513 307.18,733.105 300.988,742.585C302.715,751.846 302.169,759.51 301.707,768.643C301.198,778.693 304.002,794.284 299.067,803.081C296.247,808.109 274.049,812.377 268.383,812.121C261.282,811.801 265.608,810.637 263.324,808.426C261.631,808.995 252.112,815.591 250.18,817.1C235.837,828.297 220.109,829.492 202.445,830.598C185.761,831.643 149.813,829 137.408,817.725C133.613,804.573 137.712,800.053 142.855,788.851C145.009,782.961 146.415,776.851 149.551,771.344C161.706,750.002 189.327,740.563 211.951,733.908C211.202,717.678 212.63,701.739 214.288,685.638C214.326,683.047 213.553,680.291 213.249,677.739C212.12,668.26 214.632,660.039 217.978,651.281C213.155,622.578 218.546,601.492 235.294,577.55C241.206,569.099 244.344,565.329 247.44,555.323C253.903,534.435 274.331,518.008 290.974,504.477C280.433,472.836 279.58,446.201 291.491,414.643C290.708,411.716 290.007,408.767 289.389,405.8C282.222,371.455 291.2,329.78 310.406,300.689C316.744,290.951 324.515,282.225 333.457,274.806C353.69,258.135 368.084,255.883 392.919,250.705C392.443,250.212 391.981,249.705 391.535,249.184C376.481,231.481 375.14,173.474 393.795,155.826C398.016,151.834 404.021,151.879 409.491,152.317C409.713,151.756 409.94,151.196 410.171,150.639C419.512,128.126 441.781,108.736 464.023,99.57C469.352,81.096 482.986,77.15 500.434,75.2ZM464.217,113.497C443.776,124.621 430.226,136.523 420.02,158.054C424.837,164.565 427.652,171.253 429.155,179.258C433.041,199.943 435.067,240.96 416.741,255.016C420.265,259.878 423.69,264.363 427.534,268.991C459.205,307.115 534.98,314.477 575.858,288.04C592.951,276.811 600.799,267.723 608.344,248.788C595.185,227.461 597.362,184.455 608.477,162.637C598.193,139.695 587.14,125.564 565.038,113.008C563.89,143.545 532.349,147.721 508.041,147.007C494.357,146.605 481.342,142.134 471.707,132.128C466.512,126.729 465.366,121.088 464.823,113.799L464.217,113.497ZM507.043,157.193C540.049,155.004 567.97,172.731 579.465,203.869C582.405,204 589.543,204.655 591.341,206.99C596.948,214.269 598.378,235.005 592.134,242.193C589.205,245.565 584.906,245.564 580.989,245.534C579.253,252.298 576.37,258.715 572.465,264.505C560.915,281.714 545.714,291.939 525.446,295.852C506.547,298.719 490.816,295.062 474.711,284.376C462.009,275.948 449.625,260.123 446.754,244.874L446.226,244.68L445.351,244.347C441.005,242.73 437.142,239.996 436.408,235.146C434.785,224.432 434.455,213.49 446.945,210.855C455.6,182.057 476.202,160.466 507.043,157.193ZM508.327,167.202C493.183,168.485 479.197,175.825 469.537,187.559C460.983,197.802 457.749,207.547 455.009,220.308C444.09,219.895 443.707,231.247 455.503,234.063C461.696,265.828 480.51,283.418 513.142,285.884C547.31,285.259 574.403,260.963 573.417,225.869C573.06,209.317 566.056,193.605 553.984,182.275C542.75,171.876 523.606,165.102 508.327,167.202ZM513.39,205.842C514.855,206.951 519.349,211.721 520.837,213.235C525.872,218.427 530.992,223.536 536.196,228.559C529.194,235.558 521.508,242.366 514.344,249.45C513.25,249.267 494.217,231.056 491.754,228.784C498.911,221.085 506.123,213.438 513.39,205.842ZM532.049,186.898C543.462,191.763 550.236,198.812 555.489,209.917C550.107,215.252 544.851,220.496 539.263,225.614C537.057,224.511 519.632,205.966 516.308,202.522C521.387,197.147 526.637,191.937 532.049,186.898ZM495.322,187.464C497.427,187.96 508.419,200.327 510.836,202.919C503.169,210.283 495.636,217.784 488.24,225.418C486.448,224.173 476.24,213.737 472.895,210.841C477.362,199.826 484.992,192.831 495.322,187.464ZM538.929,231.84C541.365,233.558 550.732,242.775 554.147,245.73C550.072,255.976 541.393,262.676 532.23,268.051L531.457,268.331C530.033,267.79 519.816,255.593 517.398,253.132C524.617,246.113 531.585,238.918 538.929,231.84ZM488.396,232.316C490.895,233.436 507.527,250.231 510.716,253.392C505.812,258.418 501.05,263.36 495.898,268.134C486.54,265.83 478.079,255.051 473.665,247.038C477.943,242.395 483.813,236.912 488.396,232.316ZM556.44,213.983C561.25,219.952 558.355,235.329 555.952,242.048L550.969,237.176L542.046,228.559C546.902,223.938 551.748,218.811 556.44,213.983ZM510.313,183.189C517.014,182.669 521.978,183.687 528.367,185.4C524.225,189.052 520.069,193.287 516.107,197.176L513.646,199.427C508.864,194.241 504.93,190.218 499.753,185.482C503.725,184.112 506.206,183.683 510.313,183.189ZM471.277,215.259C473.345,216.608 482.933,226.547 485.322,228.97L478.493,235.831L471.901,242.416C468.693,232.47 468.475,225.275 471.277,215.259ZM513.862,256.884C518.101,261.468 522.168,265.866 526.219,270.621C521.648,271.932 518.123,272.468 513.414,272.574C508.485,272.57 504.877,271.74 500.139,270.551C504.814,266.097 509.389,261.54 513.862,256.884ZM580.701,215.729C582.349,225.334 581.735,225.247 581.812,233.985C582.908,234.738 584.315,234.221 585.668,233.945C586.548,230.204 587.006,221.044 584.681,217.444C583.764,216.024 582.376,215.987 580.701,215.729ZM354.031,290.426C308.601,313.219 292.101,372.157 313.965,417.135C319.992,429.533 327.72,438.078 337.845,447.209C324.894,446.285 314.11,442.202 305.05,432.701C294.852,475.028 305.426,505.442 335.537,536.417C326.257,534.918 320.223,532.779 311.878,528.15C309.172,554.681 318.569,577.77 330.773,600.485C355.657,575.072 383.486,566.838 417.522,578.139C413.06,533.586 391.633,502.728 350.136,484.937C370.521,485.899 379.672,486.875 396.787,499.761C400.668,485.066 399.766,472.591 396.118,457.954C391.806,443.796 388.135,437.41 380.876,424.704C390.279,432.435 398.997,439.576 405.916,449.838C415.1,409.394 399.359,390.682 376.905,359.201C394.677,365.572 408.198,378.26 416.313,395.269C423.453,410.235 423.9,421.025 422.93,437.001C439.934,450.977 453.525,458.836 475.549,461.474C464.365,465.864 444.506,466.716 432.652,465.397C448.648,481.089 471.066,491.827 493.701,491.639C495.302,491.636 496.902,491.582 498.5,491.477C508.818,469.749 510.536,440.095 512.624,416.56C470.509,411.472 441.829,392.568 415.943,359.52C411.834,354.334 407.856,349.046 404.011,343.662C392.091,326.626 381.992,308.61 364.877,295.987C362.5,294.234 356.971,290.225 354.031,290.426ZM648.36,245.434C646.571,258.092 642.723,264.764 635.678,275.426C637.265,301.25 634.478,324.775 622.764,348.279C603.459,387.012 571.515,414.448 527.263,417.053L524.947,417.181C525.022,442.804 522.805,472.636 510.616,495.475C535.095,492.532 551.204,486.391 571.547,472.172C563.257,474 554.503,473.998 546.028,474.009C571.389,464.57 591.475,448.002 607.974,426.805C596.828,433.256 582.18,437.485 569.35,438.299C605.598,419.11 633.866,383.744 651.972,347.658C655.943,339.698 659.639,332.091 662.735,323.73C665.864,340.691 660.102,360.533 656.936,377.148C663.056,383.432 667.466,387.988 674.663,393.229C693.402,380.469 709.061,374.482 732.509,376.206C711.274,380.664 698.34,390.754 683.664,406.576C720.788,404.471 743.283,425.033 752.15,459.997C765.332,447.241 775.789,433.538 775.712,414.247C775.524,367.008 727.838,336.485 703.203,300.801C702.328,313.834 700.578,319.462 694.044,330.522C698.111,289.438 688.663,261.412 648.36,245.434ZM709.788,515.576C697.732,518.413 684.11,522.132 677.375,533.581C673.516,540.139 670.962,546.663 665.324,552.015C658.029,558.939 650.696,560.574 642.02,555.007C633.484,560.839 625.879,562.038 618.523,553.417C606.362,555.239 600.479,550.337 596.784,539.097C584.228,553.444 580.292,565.012 577.937,583.78C600.479,580.722 614.733,576.17 635.375,566.589C622.394,597.511 636.357,610.288 666.504,614.801C661.529,617.624 659.563,618.764 654.135,620.382C650.833,621.366 640.463,621.496 639.166,622.788L639.002,624.878C638.125,634.782 638.749,639.716 640.809,649.292C645.118,669.33 657.694,676.906 677.632,678.504C698.215,680.153 721.868,676.361 738.228,662.469C746.993,654.897 752.713,646.877 753.332,635.081C753.993,622.488 751.319,609.401 744.771,598.616C733.964,606.153 729.333,608.134 716.238,608.41C723.693,603.787 728.506,599.234 733.138,591.911C749.24,566.457 744.583,527.407 713.777,515.879C712.791,515.51 710.821,515.478 709.788,515.576ZM749.389,676.495C723.15,694.906 689.308,703.75 658.377,692.201C662.529,718.637 672.506,736.708 697.103,748.291C692.099,750.512 688.212,751.543 683.315,753.416C677.774,762.191 670.205,791.21 681.995,798.217C691.585,803.917 707.077,804.17 715.53,813.923C733.253,832.374 757.091,835.804 781.543,835.442C794.969,834.893 814.524,833.438 825.978,825.496C827.92,824.15 827.272,815.456 826.618,813.089C819.334,786.713 788.551,783.612 765.706,786.99C760.509,787.758 755.41,789.326 750.302,790.038C756.531,784.281 764.061,780.506 771.757,777.042C759.417,764.153 736.531,765.862 721.693,773.142C729.975,762.205 738.071,755.316 752.227,753.665C751.811,745.83 751.021,736.454 744.941,730.689C743.627,729.442 741.986,730.02 740.399,730.364L740.134,729.912C741.923,726.406 744.446,720.861 746.192,717.542C749.33,711.579 753.362,681.289 749.389,676.495ZM446.643,725.057C439.793,726.576 434.758,729.803 430.967,735.829C414.748,761.611 430.442,787.358 415.437,806.208C435.724,834.986 466.843,868.184 503.136,874.39C504.047,874.545 504.959,874.692 505.873,874.83C513.623,875.448 517.147,872.011 520.945,865.497C544.549,825.014 533.484,767.311 495.791,739.403C484.473,741.915 477.082,741.492 466.793,735.162C458.342,729.963 457.837,724.335 446.643,725.057ZM399.344,636.192C392.949,636.907 388.85,638.239 383.084,641.008C363.909,650.215 364.635,666.657 372.465,683.358C373.092,680.074 373.721,674.016 374.694,671.404L375.307,671.086C378.551,675.23 378.856,683.821 378.391,689.027C377.545,698.504 371.192,709.491 369.343,718.011C364.466,740.484 361.548,775.701 375.124,795.138C367.908,773.714 367.046,749.397 376.252,728.166C376.846,726.797 377.503,725.866 378.701,725.001L379.462,725.12C382.053,728.78 377.829,749.414 377.15,755.36C376.125,764.315 378.564,801.356 388.824,804.256C392.109,803.158 391.025,800.414 390.606,797.803C389.159,788.787 387.944,778.961 387.446,769.852C386.535,753.191 390.727,735.232 394.94,719.148L396.374,718.325C401.644,720.878 395.414,753.529 395.674,759.543C396.052,768.293 396.542,776.678 398.093,785.442C398.701,789.771 398.531,798.133 404.68,797.271C412.64,792.17 410.086,765.453 411.69,755.706C415.423,733.031 429.354,709.687 455.751,714.349C459.466,715.069 462.673,717.834 465.683,719.979C471.715,724.652 478.384,728.295 486.134,728.902C489.041,729.129 493.902,729.634 495.156,726.052C494.941,724.685 494.238,723.232 493.124,722.369C479.559,711.86 467.571,699.587 454.207,688.91C450.005,685.554 443.882,683.224 439.644,679.736C434.178,675.54 430.18,670.645 425.12,666.01C422.533,663.64 414.408,660.59 413.724,657.656C416.521,654.693 428.054,658.879 431.546,660.14C424.899,646.81 416.274,634.92 399.344,636.192ZM673.295,448.119C669.629,448.785 668.026,449.291 664.472,450.499C669.648,451.55 680.56,454.237 681.365,460.316L680.905,460.891C677.249,460.173 669.394,457.848 666.452,457.637C652.965,456.868 640.179,459.92 628.881,467.558C615.763,476.425 607.303,487.604 601.556,502.425C600.414,505.37 591.127,521.849 600.808,523.536C605.259,524.311 608.143,513.492 609.104,510.59C612.369,500.402 617.854,491.551 626.005,484.555C628.043,482.805 631.613,479.102 634.364,479.224L634.98,479.95C634.741,482.121 626.157,493.909 624.32,497.32C620.094,504.6 616.439,513.438 613.373,521.195C611.861,525.02 607.298,535.901 610.629,538.925C617.597,545.251 623.258,528.56 624.369,525.03C628.633,511.491 635.506,501.158 646.165,491.98C647.974,490.358 648.241,490.097 650.6,489.577L651.438,489.761C651.68,490.854 651.435,491.574 650.703,492.595C644.365,501.436 640.783,508.427 635.679,518.296C633.494,522.07 618.895,550.935 632.743,547.261C640.277,545.262 646.485,522.509 650.688,516.199C652.876,512.913 663.851,500.371 667.53,501.339C668.906,502.998 668.621,502.12 668.91,503.915C662.68,512.853 655.597,519.681 651.609,530.479C650.3,534.022 647.495,538.376 647.904,542.396C648.266,545.668 653.04,545.545 655.104,544.002C663.046,538.786 666.234,525.738 672.741,519.606C685.954,507.156 705.811,503.848 710.409,483.519C715.11,462.737 692.01,446.789 673.295,448.119ZM596.247,314.945C553.24,339.103 515.187,342.356 467.449,329.963C459.754,327.966 448.55,323.689 441.581,319.829C447.637,329.719 452.421,337.329 460.168,346.156C475.306,363.111 495.907,376.327 519.057,377.902C548.217,379.886 575.296,360.585 588.59,335.552C590.384,332.173 597.222,318.388 596.785,315.044L596.247,314.945ZM384.343,589.202C368.937,590.629 354.775,598.26 345.11,610.341C328.341,630.974 335.667,654.652 353.12,671.901C351.167,656.336 352.92,647.016 364.778,636.023C377.254,626.316 392.041,620.308 408.045,622.421C419.567,623.943 426.102,628.408 433.858,636.59C434.272,623.181 435.19,612.859 425.202,602.23C416.79,593.278 403.474,589.174 391.413,589.011C389.054,588.957 386.695,589.021 384.343,589.202ZM379.276,264.03C369.423,266.764 364.099,269.232 355.427,274.853C388.865,284.429 403.078,316.468 421.612,342.543C441.493,370.512 467.43,394.403 502.257,400.875C512.384,402.229 516.965,398.648 523.654,391.615C496.074,390.705 471.02,377.426 452.708,357.386C427.956,330.297 414.171,294.517 386.436,269.487C384.927,268.124 381.199,264.073 379.276,264.03ZM506.442,86.209C496.637,86.905 485.1,87.819 477.971,95.482C473.153,100.662 475.779,106.941 480.826,110.733C491.97,119.104 508.194,120.322 521.5,118.495C521.961,118.431 522.421,118.364 522.88,118.294C531.958,116.482 546.602,113.295 552.188,104.999C552.689,104.242 553.158,103.465 553.593,102.668C546.008,88.561 520.7,84.752 506.442,86.209ZM686.272,419.663C675.166,421.235 665.531,425.381 658.67,434.65C657.936,435.657 657.232,436.685 656.558,437.733C661.928,436.36 666.253,435.381 671.799,435.131C698.633,433.919 726.495,452.865 723.641,482.005C722.964,487.21 721.972,490.269 720.134,495.209C742.021,479.385 745.023,462.084 729.243,439.394C721.508,428.273 710.948,421.863 697.478,419.904C693.766,419.366 690.003,419.285 686.272,419.663ZM618.857,262.432C605.586,282.084 590.172,297.122 567.631,305.842C517.345,325.296 440.845,315.455 410.09,266.974C411.074,270.908 411.434,272.58 413.225,276.249C416.917,281.624 420.876,287.206 425.611,291.843C448.516,314.274 485.552,323.265 516.889,324.013C541.793,324.608 571.272,316.717 591.941,303.206C604.998,294.406 615.931,281.964 618.985,266.088C619.196,264.993 619.424,263.379 618.857,262.432ZM403.809,162.778C388.371,179.017 388.182,225.469 402.012,243.732C402.699,244.64 404.196,245.434 405.269,245.856C406.686,245.682 406.365,245.789 407.691,245.305C427.487,229.443 421.194,163.726 403.809,162.778ZM399.769,174.26C400.892,175.172 401.013,175.614 401.584,177.075C409.691,197.831 410.228,215.392 401.567,235.768L400.825,236.697L400.179,236.521C392.074,218.992 394.522,192.439 399.769,174.26ZM623.615,162.846C606.166,176.329 604.971,232.381 622.231,245.575C640.052,233.618 638.303,169.105 623.615,162.846ZM626.227,175.223C626.894,175.825 627.106,175.861 627.361,176.657C632.722,193.331 631.939,216.709 625.781,232.452C625.287,231.235 624.811,230.011 624.353,228.78C618.6,213.234 619.239,190.385 626.227,175.223ZM622.636,287.884C616.267,296.252 615.279,299.731 612.928,309.943C604.051,348.497 578.167,379.249 539.321,389.69C537.666,395.393 536.838,398.006 533.283,402.721L533.727,403.209C561.711,398.876 581.943,384.239 598.859,361.699C613.09,342.737 624.131,312.177 623.076,288.214L622.636,287.884ZM410.471,808.554C405.586,810.398 404.008,810.249 398.784,809.992L393.793,813.602C405.352,840.18 429.203,857.26 455.465,867.638C459.46,869.237 463.522,870.666 467.639,871.919C472.888,873.223 478.157,874.443 483.446,875.577C459.527,863.231 440.722,849.056 423.08,828.401C420.258,825.097 412,809.638 410.471,808.554ZM599.966,483.019C575.366,495.559 558.633,525.993 549.617,551.163L554.744,547.805C566.458,540.659 578.269,534.622 591.553,530.883C583.49,522.538 582.551,517.022 587.095,506.408C588.683,502.699 601.631,485.003 599.966,483.019ZM644.43,395.109C638.416,419.17 631.815,430.406 618.825,450.801C619.338,453.334 619.961,456.098 620.33,458.634C624.032,456.14 627.861,453.422 631.79,451.345C635.135,449.831 638.5,448.36 641.884,446.932C644.11,438.038 646.806,430.107 653.196,423.307C655.12,421.259 664.916,412.931 662.482,410.566C657.952,406.163 649.795,398.1 644.43,395.109ZM547.652,510.134C525.53,518.244 490.33,521.607 466.77,518.713C457.855,517.618 448.361,515.076 439.866,512.055C442.821,514.175 445.791,516.273 448.777,518.349C468.003,530.59 486.043,535.164 508.679,530.147C523.032,526.832 536.397,520.167 547.681,510.697L547.652,510.134ZM550.447,122.555C529.128,132.417 511.1,134.349 488.122,129.713L488.222,130.117L489.693,130.962C506.222,136.942 526.431,136.21 542.832,130.087C545.232,129.191 550.155,125.087 550.447,122.555Z" style="fill:rgb(0,24,49);"   data-color="color-2"/>
        <path d="M446.643,725.057C457.837,724.335 458.342,729.963 466.793,735.162C477.082,741.492 484.473,741.915 495.791,739.403C533.484,767.311 544.549,825.014 520.945,865.497C517.147,872.011 513.623,875.448 505.873,874.83C504.959,874.692 504.047,874.545 503.136,874.39C466.843,868.184 435.724,834.986 415.437,806.208C430.442,787.358 414.748,761.611 430.967,735.829C434.758,729.803 439.793,726.576 446.643,725.057ZM410.471,808.554C412,809.638 420.258,825.097 423.08,828.401C440.722,849.056 459.527,863.231 483.446,875.577C478.157,874.443 472.888,873.223 467.639,871.919C463.522,870.666 459.46,869.237 455.465,867.638C429.203,857.26 405.352,840.18 393.793,813.602L398.784,809.992C404.008,810.249 405.586,810.398 410.471,808.554Z" style="fill:rgb(74,34,0);"/>
        <path d="M503.683,58.704C513.883,57.645 528.837,59.401 538.853,61.914C547.016,63.799 565.759,71.248 570.772,78.397C578.599,89.559 580.058,89.589 591.998,97.669C606.189,107.272 617.893,121.821 626.779,136.664C663.867,143.087 663.934,190.668 661.878,219.592C680.75,227.914 699.192,238.721 709.781,257.244C717.731,271.151 724.881,285.364 735.902,297.232C742.742,304.597 750.034,311.494 757.018,318.718C781.858,345.065 805.823,378.601 804.914,416.402C804.339,439.965 795.006,462.469 778.736,479.523C771.861,486.603 763.598,490.796 759.008,499.49C757.826,501.729 755.822,503.64 753.985,505.387C767.183,520.278 773.674,543.265 773.27,562.8C773.16,568.124 772.047,574.499 772.164,579.444C772.234,582.424 776.188,590.172 777.409,594.13C781.378,605.855 783.155,617.266 783.951,629.488C784.746,641.683 781.165,650.214 779.232,661.727C778.625,665.342 779.74,673.247 779.837,677.257C780.137,689.551 780.709,701.915 779.11,714.17C778.802,716.658 776.95,723.365 777.431,725.51C779.035,732.663 781.176,738.724 782.199,746.088C785.858,748.214 788.949,750.105 792.425,752.539C794.76,753.808 800.24,759.223 802.645,759.913C814.738,763.385 823.69,764.963 834.105,772.937C843.355,779.965 850.23,789.656 853.807,800.709C855.037,804.608 856.009,809.781 857.355,813.393C859.994,820.471 862.878,824.622 863.71,832.452C864.666,841.455 864.036,850.301 858.254,857.698C848.077,870.719 822.018,876.099 806.245,877.96C776.965,881.415 740.605,879.136 713.911,865.799C708.311,863.001 704.196,859.899 699.353,856.105C679.37,856.107 646.876,848.921 644.176,823.873C642.917,812.198 645.675,800.069 645.652,788.745C645.621,773.827 644.552,764.945 648.517,750.099C634.592,731.159 630.548,709.044 624.277,686.836C623.728,684.892 619.265,678.988 618.035,676.731C608.667,659.551 607.488,643.231 608.025,624.227C582.881,630.768 549.002,630.301 523.547,625.553C514.205,623.811 505.4,621.357 496.233,618.91C485.476,622.114 475.539,624.564 464.674,627.285C464.956,641.434 463.329,648.871 458.446,661.767C475.457,672.577 487.796,683.069 501.125,698.111C504.414,701.822 510.7,704.446 513.911,709.267C516.829,713.647 518.234,717.44 520.494,722.125C523.453,726.685 527.961,731.54 531.457,735.828C557.582,770.652 567.074,816.809 553.384,858.814C548.659,873.312 536.504,891.706 522.106,898.163C500.869,907.687 472.248,901.411 451.146,894.041C411.69,880.025 385.48,859.48 367.422,821.52C359.504,816.249 355.049,812.315 350.135,803.938C334.804,777.806 338.931,734.683 346.618,706.284C340.263,714.401 335.622,718.142 328.749,724.475C326.289,726.741 318.506,742.797 316.319,746.805C316.48,748.91 316.614,751.018 316.721,753.126C316.927,758.051 316.227,763.481 316.213,768.451C316.176,781.816 319.017,803.715 308.734,813.801C297.562,824.757 276.76,826.514 262.13,826.474C256.186,830.125 248.112,835.909 241.266,838.206C209.918,848.166 168.864,847.598 138.54,835.329C115.858,826.152 119.807,801.291 129.099,784.255C131.154,780.488 133.303,772.797 135.406,768.138C146.339,743.921 173.3,731.565 197,723.039C196.911,711.74 198.82,699.809 199.382,688.596C199.786,680.531 198.367,673.027 199.478,664.39C200.017,660.209 202.756,652.612 202.69,649.79C202.359,642.22 201.651,634.324 201.925,626.794C202.871,600.759 216.447,579.883 230.564,559.123C233.682,554.538 235.031,545.656 238.173,540.096C246.949,524.566 260.276,512.018 273.46,500.245C266.651,477.116 265.865,454.845 270.275,431.157C270.475,427.202 275.259,416.128 274.686,412.778C273.263,404.46 272.035,396.218 271.594,387.671C270.381,359.017 276.673,330.543 289.846,305.068C301.246,283.425 319.409,262.215 341.223,250.61C350.882,245.471 359.099,242.779 369.347,239.632C362.236,214.447 361.915,181.324 373.53,157.294C379.384,145.185 387.054,140.191 399.284,136.077C413.711,112.38 427.235,101.909 450.443,88.391C463.261,66.545 478.941,60.924 503.683,58.704ZM500.434,75.2C482.986,77.15 469.352,81.096 464.023,99.57C441.781,108.736 419.512,128.126 410.171,150.639C409.94,151.196 409.713,151.756 409.491,152.317C404.021,151.879 398.016,151.834 393.795,155.826C375.14,173.474 376.481,231.481 391.535,249.184C391.981,249.705 392.443,250.212 392.919,250.705C368.084,255.883 353.69,258.135 333.457,274.806C324.515,282.225 316.744,290.951 310.406,300.689C291.2,329.78 282.222,371.455 289.389,405.8C290.007,408.767 290.708,411.716 291.491,414.643C279.58,446.201 280.433,472.836 290.974,504.477C274.331,518.008 253.903,534.435 247.44,555.323C244.344,565.329 241.206,569.099 235.294,577.55C218.546,601.492 213.155,622.578 217.978,651.281C214.632,660.039 212.12,668.26 213.249,677.739C213.553,680.291 214.326,683.047 214.288,685.638C212.63,701.739 211.202,717.678 211.951,733.908C189.327,740.563 161.706,750.002 149.551,771.344C146.415,776.851 145.009,782.961 142.855,788.851C137.712,800.053 133.613,804.573 137.408,817.725C149.813,829 185.761,831.643 202.445,830.598C220.109,829.492 235.837,828.297 250.18,817.1C252.112,815.591 261.631,808.995 263.324,808.426C265.608,810.637 261.282,811.801 268.383,812.121C274.049,812.377 296.247,808.109 299.067,803.081C304.002,794.284 301.198,778.693 301.707,768.643C302.169,759.51 302.715,751.846 300.988,742.585C307.18,733.105 312.937,724.513 316.449,713.605C330.456,704.922 335.817,697.118 340.499,680.989C349.77,690.935 351.136,692.862 363.243,698.206C360.688,707.024 357.933,716.415 356.354,725.475C352.227,749.151 348.716,801.498 378.023,810.041L378.917,810.293C387.241,836.673 408.726,858.998 433.298,871.388C456.436,882.358 486.109,893.5 511.682,887.078C522.178,884.442 531.617,872.794 536.2,863.677C557.041,822.218 542.836,760.812 508.065,731.014C507.757,726.704 506.881,723.428 504.57,719.703C499.084,712.643 495.655,713.172 491.484,709.009C482.515,700.056 476.494,692.47 466.319,684.178C459.499,678.621 451.509,675.626 445.667,671.062C444.918,665.718 444.761,662.758 442.964,657.626C451.814,645.228 450.746,628.761 449.281,614.192C469.217,611.563 478.066,608.516 496.607,602.936C538.65,616.292 574.387,618.087 617.165,606.158C619.113,609.394 620.752,611.515 623.47,614.209C621.657,625.83 620.908,638.67 623.281,650.173C624.409,655.641 627.644,666.877 631.243,671.092C638.502,679.595 637.823,684.565 640.741,694.803C644.876,709.31 648.743,726.068 657.503,738.567C659.379,741.188 662.706,745.084 664.989,747.271C662.323,753.829 660.439,758.502 659.491,765.656C658.86,770.612 658.796,775.624 659.299,780.595C659.509,782.487 660.454,787.707 660.258,789.222C659.362,796.151 658.66,803.414 658.102,810.261C656.873,825.321 658.465,831.082 673.372,836.742C682.553,840.228 687.939,841.552 698.058,841.471L699.128,833.71C712.793,852.18 732.106,859.124 754.287,862.223C779.509,865.747 807.965,864.985 832.231,857.039C839.681,854.599 848.894,849.882 850.018,841.698C851.299,832.37 847.032,825.984 843.385,817.986C840.615,807.888 841.586,802.461 834.048,792.705C826.02,782.315 813.862,776.72 801.002,775.062C798.739,774.792 796.471,774.561 794.199,774.369C788.661,765.475 777.439,759.459 767.981,755.548C768.099,741.952 766.648,737.633 761.36,725.2C768.388,705.555 765.734,681.355 764.209,660.956C763.887,656.651 767.819,650.255 768.647,645.921C772.264,628.373 768.062,606.118 760.559,590.262C759.204,587.429 757.781,584.629 756.292,581.864C763.985,550.475 756.874,525.602 732.339,504.738C741.156,497.649 746.027,494.16 750.58,483.546C751.025,482.507 761.737,475.116 763.171,473.366C777.678,460.199 787.482,443.146 789.749,423.521C793.345,392.39 778.103,368.922 760.172,345.584C747.494,329.084 730.867,316.434 718.685,301.04C713.786,294.856 709.334,288.33 705.364,281.512C698.843,270.356 694.94,260.572 685.315,251.639C673.108,240.31 660.132,235.46 645.047,229.533C643.621,228.973 644.511,226.277 644.486,225.145C645.121,219.637 646.419,214.148 646.633,208.588C647.243,192.713 646.331,173.284 637.34,159.605C632.368,152.041 624.749,152.677 616.963,153.126C606.322,127.052 588.779,111.814 564.327,99.465C560.093,76.427 518.725,73.743 500.434,75.2ZM644.43,395.109C649.795,398.1 657.952,406.163 662.482,410.566C664.916,412.931 655.12,421.259 653.196,423.307C646.806,430.107 644.11,438.038 641.884,446.932C638.5,448.36 635.135,449.831 631.79,451.345C627.861,453.422 624.032,456.14 620.33,458.634C619.961,456.098 619.338,453.334 618.825,450.801C631.815,430.406 638.416,419.17 644.43,395.109Z" style="fill:rgb(254,254,252);"/>
        <path d="M354.031,290.426C356.971,290.225 362.5,294.234 364.877,295.987C381.992,308.61 392.091,326.626 404.011,343.662C407.856,349.046 411.834,354.334 415.943,359.52C441.829,392.568 470.509,411.472 512.624,416.56C510.536,440.095 508.818,469.749 498.5,491.477C496.902,491.582 495.302,491.636 493.701,491.639C471.066,491.827 448.648,481.089 432.652,465.397C444.506,466.716 464.365,465.864 475.549,461.474C453.525,458.836 439.934,450.977 422.93,437.001C423.9,421.025 423.453,410.235 416.313,395.269C408.198,378.26 394.677,365.572 376.905,359.201C399.359,390.682 415.1,409.394 405.916,449.838C398.997,439.576 390.279,432.435 380.876,424.704C388.135,437.41 391.806,443.796 396.118,457.954C399.766,472.591 400.668,485.066 396.787,499.761C379.672,486.875 370.521,485.899 350.136,484.937C391.633,502.728 413.06,533.586 417.522,578.139C383.486,566.838 355.657,575.072 330.773,600.485C318.569,577.77 309.172,554.681 311.878,528.15C320.223,532.779 326.257,534.918 335.537,536.417C305.426,505.442 294.852,475.028 305.05,432.701C314.11,442.202 324.894,446.285 337.845,447.209C327.72,438.078 319.992,429.533 313.965,417.135C292.101,372.157 308.601,313.219 354.031,290.426ZM648.36,245.434C688.663,261.412 698.111,289.438 694.044,330.522C700.578,319.462 702.328,313.834 703.203,300.801C727.838,336.485 775.524,367.008 775.712,414.247C775.789,433.538 765.332,447.241 752.15,459.997C743.283,425.033 720.788,404.471 683.664,406.576C698.34,390.754 711.274,380.664 732.509,376.206C709.061,374.482 693.402,380.469 674.663,393.229C667.466,387.988 663.056,383.432 656.936,377.148C660.102,360.533 665.864,340.691 662.735,323.73C659.639,332.091 655.943,339.698 651.972,347.658C633.866,383.744 605.598,419.11 569.35,438.299C582.18,437.485 596.828,433.256 607.974,426.805C591.475,448.002 571.389,464.57 546.028,474.009C554.503,473.998 563.257,474 571.547,472.172C551.204,486.391 535.095,492.532 510.616,495.475C522.805,472.636 525.022,442.804 524.947,417.181L527.263,417.053C571.515,414.448 603.459,387.012 622.764,348.279C634.478,324.775 637.265,301.25 635.678,275.426C642.723,264.764 646.571,258.092 648.36,245.434ZM709.788,515.576C710.821,515.478 712.791,515.51 713.777,515.879C744.583,527.407 749.24,566.457 733.138,591.911C728.506,599.234 723.693,603.787 716.238,608.41C729.333,608.134 733.964,606.153 744.771,598.616C751.319,609.401 753.993,622.488 753.332,635.081C752.713,646.877 746.993,654.897 738.228,662.469C721.868,676.361 698.215,680.153 677.632,678.504C657.694,676.906 645.118,669.33 640.809,649.292C638.749,639.716 638.125,634.782 639.002,624.878L639.166,622.788C640.463,621.496 650.833,621.366 654.135,620.382C659.563,618.764 661.529,617.624 666.504,614.801C636.357,610.288 622.394,597.511 635.375,566.589C614.733,576.17 600.479,580.722 577.937,583.78C580.292,565.012 584.228,553.444 596.784,539.097C600.479,550.337 606.362,555.239 618.523,553.417C625.879,562.038 633.484,560.839 642.02,555.007C650.696,560.574 658.029,558.939 665.324,552.015C670.962,546.663 673.516,540.139 677.375,533.581C684.11,522.132 697.732,518.413 709.788,515.576ZM749.389,676.495C753.362,681.289 749.33,711.579 746.192,717.542C744.446,720.861 741.923,726.406 740.134,729.912L740.399,730.364C741.986,730.02 743.627,729.442 744.941,730.689C751.021,736.454 751.811,745.83 752.227,753.665C738.071,755.316 729.975,762.205 721.693,773.142C736.531,765.862 759.417,764.153 771.757,777.042C764.061,780.506 756.531,784.281 750.302,790.038C755.41,789.326 760.509,787.758 765.706,786.99C788.551,783.612 819.334,786.713 826.618,813.089C827.272,815.456 827.92,824.15 825.978,825.496C814.524,833.438 794.969,834.893 781.543,835.442C757.091,835.804 733.253,832.374 715.53,813.923C707.077,804.17 691.585,803.917 681.995,798.217C670.205,791.21 677.774,762.191 683.315,753.416C688.212,751.543 692.099,750.512 697.103,748.291C672.506,736.708 662.529,718.637 658.377,692.201C689.308,703.75 723.15,694.906 749.389,676.495ZM399.344,636.192C416.274,634.92 424.899,646.81 431.546,660.14C428.054,658.879 416.521,654.693 413.724,657.656C414.408,660.59 422.533,663.64 425.12,666.01C430.18,670.645 434.178,675.54 439.644,679.736C443.882,683.224 450.005,685.554 454.207,688.91C467.571,699.587 479.559,711.86 493.124,722.369C494.238,723.232 494.941,724.685 495.156,726.052C493.902,729.634 489.041,729.129 486.134,728.902C478.384,728.295 471.715,724.652 465.683,719.979C462.673,717.834 459.466,715.069 455.751,714.349C429.354,709.687 415.423,733.031 411.69,755.706C410.086,765.453 412.64,792.17 404.68,797.271C398.531,798.133 398.701,789.771 398.093,785.442C396.542,776.678 396.052,768.293 395.674,759.543C395.414,753.529 401.644,720.878 396.374,718.325L394.94,719.148C390.727,735.232 386.535,753.191 387.446,769.852C387.944,778.961 389.159,788.787 390.606,797.803C391.025,800.414 392.109,803.158 388.824,804.256C378.564,801.356 376.125,764.315 377.15,755.36C377.829,749.414 382.053,728.78 379.462,725.12L378.701,725.001C377.503,725.866 376.846,726.797 376.252,728.166C367.046,749.397 367.908,773.714 375.124,795.138C361.548,775.701 364.466,740.484 369.343,718.011C371.192,709.491 377.545,698.504 378.391,689.027C378.856,683.821 378.551,675.23 375.307,671.086L374.694,671.404C373.721,674.016 373.092,680.074 372.465,683.358C364.635,666.657 363.909,650.215 383.084,641.008C388.85,638.239 392.949,636.907 399.344,636.192ZM673.295,448.119C692.01,446.789 715.11,462.737 710.409,483.519C705.811,503.848 685.954,507.156 672.741,519.606C666.234,525.738 663.046,538.786 655.104,544.002C653.04,545.545 648.266,545.668 647.904,542.396C647.495,538.376 650.3,534.022 651.609,530.479C655.597,519.681 662.68,512.853 668.91,503.915C668.621,502.12 668.906,502.998 667.53,501.339C663.851,500.371 652.876,512.913 650.688,516.199C646.485,522.509 640.277,545.262 632.743,547.261C618.895,550.935 633.494,522.07 635.679,518.296C640.783,508.427 644.365,501.436 650.703,492.595C651.435,491.574 651.68,490.854 651.438,489.761L650.6,489.577C648.241,490.097 647.974,490.358 646.165,491.98C635.506,501.158 628.633,511.491 624.369,525.03C623.258,528.56 617.597,545.251 610.629,538.925C607.298,535.901 611.861,525.02 613.373,521.195C616.439,513.438 620.094,504.6 624.32,497.32C626.157,493.909 634.741,482.121 634.98,479.95L634.364,479.224C631.613,479.102 628.043,482.805 626.005,484.555C617.854,491.551 612.369,500.402 609.104,510.59C608.143,513.492 605.259,524.311 600.808,523.536C591.127,521.849 600.414,505.37 601.556,502.425C607.303,487.604 615.763,476.425 628.881,467.558C640.179,459.92 652.965,456.868 666.452,457.637C669.394,457.848 677.249,460.173 680.905,460.891L681.365,460.316C680.56,454.237 669.648,451.55 664.472,450.499C668.026,449.291 669.629,448.785 673.295,448.119ZM384.343,589.202C386.695,589.021 389.054,588.957 391.413,589.011C403.474,589.174 416.79,593.278 425.202,602.23C435.19,612.859 434.272,623.181 433.858,636.59C426.102,628.408 419.567,623.943 408.045,622.421C392.041,620.308 377.254,626.316 364.778,636.023C352.92,647.016 351.167,656.336 353.12,671.901C335.667,654.652 328.341,630.974 345.11,610.341C354.775,598.26 368.937,590.629 384.343,589.202ZM686.272,419.663C690.003,419.285 693.766,419.366 697.478,419.904C710.948,421.863 721.508,428.273 729.243,439.394C745.023,462.084 742.021,479.385 720.134,495.209C721.972,490.269 722.964,487.21 723.641,482.005C726.495,452.865 698.633,433.919 671.799,435.131C666.253,435.381 661.928,436.36 656.558,437.733C657.232,436.685 657.936,435.657 658.67,434.65C665.531,425.381 675.166,421.235 686.272,419.663ZM599.966,483.019C601.631,485.003 588.683,502.699 587.095,506.408C582.551,517.022 583.49,522.538 591.553,530.883C578.269,534.622 566.458,540.659 554.744,547.805L549.617,551.163C558.633,525.993 575.366,495.559 599.966,483.019ZM547.652,510.134L547.681,510.697C536.397,520.167 523.032,526.832 508.679,530.147C486.043,535.164 468.003,530.59 448.777,518.349C445.791,516.273 442.821,514.175 439.866,512.055C448.361,515.076 457.855,517.618 466.77,518.713C490.33,521.607 525.53,518.244 547.652,510.134Z" style="fill:rgb(57,87,115);"   data-color="color-3"/>
        <path d="M464.217,113.497L464.823,113.799C465.366,121.088 466.512,126.729 471.707,132.128C481.342,142.134 494.357,146.605 508.041,147.007C532.349,147.721 563.89,143.545 565.038,113.008C587.14,125.564 598.193,139.695 608.477,162.637C597.362,184.455 595.185,227.461 608.344,248.788C600.799,267.723 592.951,276.811 575.858,288.04C534.98,314.477 459.205,307.115 427.534,268.991C423.69,264.363 420.265,259.878 416.741,255.016C435.067,240.96 433.041,199.943 429.155,179.258C427.652,171.253 424.837,164.565 420.02,158.054C430.226,136.523 443.776,124.621 464.217,113.497ZM507.043,157.193C476.202,160.466 455.6,182.057 446.945,210.855C434.455,213.49 434.785,224.432 436.408,235.146C437.142,239.996 441.005,242.73 445.351,244.347L446.226,244.68L446.754,244.874C449.625,260.123 462.009,275.948 474.711,284.376C490.816,295.062 506.547,298.719 525.446,295.852C545.714,291.939 560.915,281.714 572.465,264.505C576.37,258.715 579.253,252.298 580.989,245.534C584.906,245.564 589.205,245.565 592.134,242.193C598.378,235.005 596.948,214.269 591.341,206.99C589.543,204.655 582.405,204 579.465,203.869C567.97,172.731 540.049,155.004 507.043,157.193ZM580.701,215.729C582.376,215.987 583.764,216.024 584.681,217.444C587.006,221.044 586.548,230.204 585.668,233.945C584.315,234.221 582.908,234.738 581.812,233.985C581.735,225.247 582.349,225.334 580.701,215.729ZM508.327,167.202C523.606,165.102 542.75,171.876 553.984,182.275C566.056,193.605 573.06,209.317 573.417,225.869C574.403,260.963 547.31,285.259 513.142,285.884C480.51,283.418 461.696,265.828 455.503,234.063C443.707,231.247 444.09,219.895 455.009,220.308C457.749,207.547 460.983,197.802 469.537,187.559C479.197,175.825 493.183,168.485 508.327,167.202ZM532.049,186.898C526.637,191.937 521.387,197.147 516.308,202.522C519.632,205.966 537.057,224.511 539.263,225.614C544.851,220.496 550.107,215.252 555.489,209.917C550.236,198.812 543.462,191.763 532.049,186.898ZM556.44,213.983C551.748,218.811 546.902,223.938 542.046,228.559L550.969,237.176L555.952,242.048C558.355,235.329 561.25,219.952 556.44,213.983ZM513.862,256.884C509.389,261.54 504.814,266.097 500.139,270.551C504.877,271.74 508.485,272.57 513.414,272.574C518.123,272.468 521.648,271.932 526.219,270.621C522.168,265.866 518.101,261.468 513.862,256.884ZM471.277,215.259C468.475,225.275 468.693,232.47 471.901,242.416L478.493,235.831L485.322,228.97C482.933,226.547 473.345,216.608 471.277,215.259ZM488.396,232.316C483.813,236.912 477.943,242.395 473.665,247.038C478.079,255.051 486.54,265.83 495.898,268.134C501.05,263.36 505.812,258.418 510.716,253.392C507.527,250.231 490.895,233.436 488.396,232.316ZM513.39,205.842C506.123,213.438 498.911,221.085 491.754,228.784C494.217,231.056 513.25,249.267 514.344,249.45C521.508,242.366 529.194,235.558 536.196,228.559C530.992,223.536 525.872,218.427 520.837,213.235C519.349,211.721 514.855,206.951 513.39,205.842ZM510.313,183.189C506.206,183.683 503.725,184.112 499.753,185.482C504.93,190.218 508.864,194.241 513.646,199.427L516.107,197.176C520.069,193.287 524.225,189.052 528.367,185.4C521.978,183.687 517.014,182.669 510.313,183.189ZM495.322,187.464C484.992,192.831 477.362,199.826 472.895,210.841C476.24,213.737 486.448,224.173 488.24,225.418C495.636,217.784 503.169,210.283 510.836,202.919C508.419,200.327 497.427,187.96 495.322,187.464ZM538.929,231.84C531.585,238.918 524.617,246.113 517.398,253.132C519.816,255.593 530.033,267.79 531.457,268.331L532.23,268.051C541.393,262.676 550.072,255.976 554.147,245.73C550.732,242.775 541.365,233.558 538.929,231.84ZM596.247,314.945L596.785,315.044C597.222,318.388 590.384,332.173 588.59,335.552C575.296,360.585 548.217,379.886 519.057,377.902C495.907,376.327 475.306,363.111 460.168,346.156C452.421,337.329 447.637,329.719 441.581,319.829C448.55,323.689 459.754,327.966 467.449,329.963C515.187,342.356 553.24,339.103 596.247,314.945ZM506.442,86.209C520.7,84.752 546.008,88.561 553.593,102.668C553.158,103.465 552.689,104.242 552.188,104.999C546.602,113.295 531.958,116.482 522.88,118.294C522.421,118.364 521.961,118.431 521.5,118.495C508.194,120.322 491.97,119.104 480.826,110.733C475.779,106.941 473.153,100.662 477.971,95.482C485.1,87.819 496.637,86.905 506.442,86.209ZM618.857,262.432C619.424,263.379 619.196,264.993 618.985,266.088C615.931,281.964 604.998,294.406 591.941,303.206C571.272,316.717 541.793,324.608 516.889,324.013C485.552,323.265 448.516,314.274 425.611,291.843C420.876,287.206 416.917,281.624 413.225,276.249C411.434,272.58 411.074,270.908 410.09,266.974C440.845,315.455 517.345,325.296 567.631,305.842C590.172,297.122 605.586,282.084 618.857,262.432ZM403.809,162.778C421.194,163.726 427.487,229.443 407.691,245.305C406.365,245.789 406.686,245.682 405.269,245.856C404.196,245.434 402.699,244.64 402.012,243.732C388.182,225.469 388.371,179.017 403.809,162.778ZM399.769,174.26C394.522,192.439 392.074,218.992 400.179,236.521L400.825,236.697L401.567,235.768C410.228,215.392 409.691,197.831 401.584,177.075C401.013,175.614 400.892,175.172 399.769,174.26ZM623.615,162.846C638.303,169.105 640.052,233.618 622.231,245.575C604.971,232.381 606.166,176.329 623.615,162.846ZM626.227,175.223C619.239,190.385 618.6,213.234 624.353,228.78C624.811,230.011 625.287,231.235 625.781,232.452C631.939,216.709 632.722,193.331 627.361,176.657C627.106,175.861 626.894,175.825 626.227,175.223ZM550.447,122.555C550.155,125.087 545.232,129.191 542.832,130.087C526.431,136.21 506.222,136.942 489.693,130.962L488.222,130.117L488.122,129.713C511.1,134.349 529.128,132.417 550.447,122.555ZM379.276,264.03C381.199,264.073 384.927,268.124 386.436,269.487C414.171,294.517 427.956,330.297 452.708,357.386C471.02,377.426 496.074,390.705 523.654,391.615C516.965,398.648 512.384,402.229 502.257,400.875C467.43,394.403 441.493,370.512 421.612,342.543C403.078,316.468 388.865,284.429 355.427,274.853C364.099,269.232 369.423,266.764 379.276,264.03ZM622.636,287.884L623.076,288.214C624.131,312.177 613.09,342.737 598.859,361.699C581.943,384.239 561.711,398.876 533.727,403.209L533.283,402.721C536.838,398.006 537.666,395.393 539.321,389.69C578.167,379.249 604.051,348.497 612.928,309.943C615.279,299.731 616.267,296.252 622.636,287.884Z" style="fill:rgb(239,160,3);"   data-color="color-1"/>
    </g>
</svg>
