<?xml version="1.0" encoding="UTF-8" standalone="no"?>
<!DOCTYPE svg PUBLIC "-//W3C//DTD SVG 1.1//EN" "http://www.w3.org/Graphics/SVG/1.1/DTD/svg11.dtd">
<svg width="100%" height="100%" viewBox="0 0 899 926" version="1.1" xmlns="http://www.w3.org/2000/svg" xmlns:xlink="http://www.w3.org/1999/xlink" xml:space="preserve" xmlns:serif="http://www.serif.com/" style="fill-rule:evenodd;clip-rule:evenodd;stroke-linejoin:round;stroke-miterlimit:2;">
    <g transform="matrix(1,0,0,1,-86.8959,-34.9069)">
        <path d="M476.784,55.21C487.328,54.17 506.097,55.697 516.67,57.419C605.896,71.952 662.685,150.14 722.178,209.761C739.875,227.646 758.97,244.093 779.281,258.944C824.576,292.006 876.574,314.726 931.607,325.5C942.608,327.638 952.22,328.652 963.262,330.114C961.518,342.722 957.591,356.205 953.888,368.354C936.508,425.359 893.151,462.815 842.72,490.861C826.96,499.625 812.29,505.507 796.747,513.411C840.127,535.347 863.892,568.711 870.78,616.482C877.231,661.215 884.694,690.907 916.805,725.451C879.09,745.697 837.335,741.873 797.659,730.274C792.833,759.107 778.66,787.838 757.87,808.52C742.321,774.581 726.449,758.916 697.009,737.354C683.504,748.679 669.39,759.536 656.099,771.076C627.185,796.181 597.862,820.305 567.869,844.12C524.855,877.876 478.427,911.652 429.493,936.03C399.146,902.574 381.653,869.599 366.56,827.313C362.39,830.086 359.809,832.068 355.94,835.265C341.994,794.147 314.8,791.455 291.237,759.821C279.53,742.834 274.506,721.275 281.17,701.352C284.893,690.222 289.171,680.02 291.259,668.415C263.108,660.442 249.888,636.089 257.05,608.025C262.624,609.321 271.484,614.103 276.719,611.369C279.994,609.659 283.611,602.647 282.845,598.988C279.745,584.178 270.338,570.96 269.008,555.529C267.866,543.135 271.433,531.329 274.295,519.403C264.4,503.821 260.732,498.132 254.357,480.639C219.494,466.372 184.612,446.597 155.819,422.185C135.442,404.91 108.979,377.667 107.002,349.814C105.186,324.235 127.33,304.009 143.904,287.638C152.927,278.727 162.115,269.943 170.527,260.442C185.178,243.894 198.167,225.97 206.842,205.539C218.547,177.974 225.364,124.099 243.297,103.295C251.364,93.937 263.185,88.937 275.404,88.17C314.011,85.747 309.182,137.637 331.272,156.655C337.485,162.003 345.837,163.928 353.874,163.281C360.207,162.771 367.242,160.649 371.957,156.252C387.262,141.978 390.568,102.834 407.17,83.568C424.355,63.626 451.601,57.027 476.784,55.21Z" style="fill:rgb(254,254,254);"/>
        <path d="M475.082,35.282L475.104,35.28C487.066,34.157 508.035,35.749 519.885,37.679C568.333,45.57 608.171,70.366 643.777,101.659C676.892,130.764 706.291,165.525 736.365,195.664L736.395,195.694C753.342,212.821 771.628,228.572 791.079,242.794C834.005,274.126 883.282,295.657 935.435,305.87C946.016,307.925 955.266,308.881 965.887,310.287L985.83,312.928L983.073,332.854C981.189,346.476 977.02,361.06 973.019,374.186C954.068,436.343 907.429,477.759 852.44,508.34C847.446,511.117 842.56,513.612 837.722,515.973C867.421,539.994 884.58,572.046 890.575,613.627C896.376,653.854 902.577,680.77 931.454,711.834L949.098,730.815L926.265,743.073C890.167,762.45 850.815,762.955 812.383,754.658C804.565,780.071 790.571,804.2 771.975,822.699L751.637,842.932L739.687,816.85C728.145,791.655 716.279,777.851 697.492,762.845C687.989,770.55 678.401,778.199 669.211,786.178C640.076,811.475 610.529,835.785 580.261,859.818L580.216,859.854C536.152,894.434 488.54,928.958 438.411,953.932L424.855,960.685L414.679,949.467C388.858,921 371.731,892.899 357.698,859.757L346.317,869.161L337,841.689C330.203,821.649 319.167,813.126 307.584,803.74C296.91,795.09 285.78,785.975 274.978,771.473L274.769,771.17C259.537,749.069 253.533,720.929 262.203,695.008C263.916,689.886 265.79,684.988 267.474,680.035C240.795,664.717 229.341,635.722 237.671,603.079L242.512,584.111L257.84,587.675C257.477,586.812 257.114,585.947 256.758,585.08C253.092,576.14 249.935,567.037 249.087,557.303C248.017,545.569 250.219,534.239 252.875,522.949C246.68,513.054 243.042,506.576 238.709,495.75C204.664,481.013 171.031,461.303 142.886,437.44C118.91,417.115 89.378,384.001 87.052,351.23C86.031,336.848 90.081,323.586 97.181,311.477C105.634,297.06 118.754,284.368 129.85,273.408C138.556,264.811 147.437,256.351 155.553,247.184C168.772,232.253 180.606,216.157 188.433,197.722C195.243,181.685 200.222,156.428 206.971,134.46C212.542,116.327 219.536,100.227 228.149,90.236C239.742,76.788 256.591,69.311 274.151,68.209C299.064,66.646 313.096,78.531 322.849,96.005C327.785,104.847 331.34,115.546 335.347,125.635C337.766,131.725 339.966,137.749 344.32,141.498C346.473,143.35 349.484,143.57 352.269,143.346C354.321,143.18 356.788,143.05 358.317,141.625C364.062,136.266 366.552,125.764 370.167,115.269C375.839,98.802 382.241,81.86 392.019,70.512C412.644,46.579 444.847,37.502 475.082,35.282ZM476.784,55.21C451.601,57.027 424.355,63.626 407.17,83.568C390.568,102.834 387.262,141.978 371.957,156.252C367.242,160.649 360.207,162.771 353.874,163.281C345.837,163.928 337.485,162.003 331.272,156.655C309.182,137.637 314.011,85.747 275.404,88.17C263.185,88.937 251.364,93.937 243.297,103.295C225.364,124.099 218.547,177.974 206.842,205.539C198.167,225.97 185.178,243.894 170.527,260.442C162.115,269.943 152.927,278.727 143.904,287.638C127.33,304.009 105.186,324.235 107.002,349.814C108.979,377.667 135.442,404.91 155.819,422.185C184.612,446.597 219.494,466.372 254.357,480.639C260.732,498.132 264.4,503.821 274.295,519.403C271.433,531.329 267.866,543.135 269.008,555.529C270.338,570.96 279.745,584.178 282.845,598.988C283.611,602.647 279.994,609.659 276.719,611.369C271.484,614.103 262.624,609.321 257.05,608.025C249.888,636.089 263.108,660.442 291.259,668.415C289.171,680.02 284.893,690.222 281.17,701.352C274.506,721.275 279.53,742.834 291.237,759.821C314.8,791.455 341.994,794.147 355.94,835.265C359.809,832.068 362.39,830.086 366.56,827.313C381.653,869.599 399.146,902.574 429.493,936.03C478.427,911.652 524.855,877.876 567.869,844.12C597.862,820.305 627.185,796.181 656.099,771.076C669.39,759.536 683.504,748.679 697.009,737.354C726.449,758.916 742.321,774.581 757.87,808.52C778.66,787.838 792.833,759.107 797.659,730.274C837.335,741.873 879.09,745.697 916.805,725.451C884.694,690.907 877.231,661.215 870.78,616.482C863.892,568.711 840.127,535.347 796.747,513.411C812.29,505.507 826.96,499.625 842.72,490.861C893.151,462.815 936.508,425.359 953.888,368.354C957.591,356.205 961.518,342.722 963.262,330.114C952.22,328.652 942.608,327.638 931.607,325.5C876.574,314.726 824.576,292.006 779.281,258.944C758.97,244.093 739.875,227.646 722.178,209.761C662.685,150.14 605.896,71.952 516.67,57.419C506.097,55.697 487.328,54.17 476.784,55.21ZM476.063,73.204C591.369,64.844 659.515,179.329 735.143,246.376C773.173,280.003 816.915,306.551 864.3,324.763C884.646,332.518 920.82,343.295 942.665,345.165C938.429,360.842 931.706,380.687 923.647,394.633C889.299,454.074 817.93,489.16 754.523,506.964C764.871,511.536 764.732,515.341 772.513,519.398C788.147,527.55 800.684,533.859 814.236,545.113C852.781,577.119 850.8,615.697 860.585,659.663C865.097,679.935 875.359,701.404 888.052,718.007C855.486,726.884 814.138,718.214 783.115,706.298C781.914,730.614 774.445,756.621 760.927,776.855C744.241,748.039 721.626,734.536 697.48,714.345C654.214,749.58 611.983,786.191 568.525,820.892C525.111,855.748 482.843,887.061 434.005,913.978C405.757,881.602 383.845,832.671 373.523,791.219C369.329,798.001 367.371,801.44 361.792,806.978C346.884,781.764 322.211,771.286 305.55,749.143C294.953,734.542 293.585,717.738 299.637,700.996C302.107,694.164 305.037,686.378 306.745,679.395C308.911,670.54 307.871,661.175 309.461,652.053C293.101,652.086 278.11,647.767 273.456,630.053C276.147,630.082 279.216,630.082 281.753,629.205C292.96,625.333 298.848,609.471 303.76,599.291C299.474,590.391 295.554,581.32 292.009,572.1C282.943,548.941 286.138,540.363 293.764,516.408C281.958,499.658 272.888,488.141 267.895,467.839C226.795,449.576 184.306,427.023 152.266,394.821C141.269,383.422 124.09,362.604 124.605,345.636C126.086,328.357 144.361,311.741 156.061,300.395C182.108,275.137 206.309,249.411 221.551,215.982C224.746,208.858 227.445,201.522 229.628,194.025C235.015,175.676 245.291,125.359 257.935,113.563C264.719,107.235 272.852,105.594 281.796,106.045C292.42,111.884 296.072,129.623 300.776,140.456C312.144,166.64 326.1,183.4 356.674,180.844C388.146,178.212 396.833,152.38 406.107,126.429C409.933,115.722 412.99,104.121 420.56,95.28C434.137,79.367 456.383,75.048 476.063,73.204ZM755.819,545.952C780.157,583.342 790.856,604.604 799.926,648.066C768.353,638.066 746.115,614.436 730.762,585.949C728.625,616.454 734.001,639.413 757.855,660.403C782.423,681.792 818.835,696.27 851.365,698.082C845.073,687.74 841.684,680.57 838.263,668.685C834.349,655.086 832.408,641.014 829.805,627.165C824.832,600.708 813.045,579.151 790.806,563.442C781.162,556.629 767.372,548.928 755.819,545.952ZM638.153,610.239C636.521,627.983 632.319,662.537 625.514,678.821C622.891,685.098 602.485,703.348 596.26,709.712C587.709,718.444 579.473,727.479 571.568,736.801C545.758,767.674 522.189,800.353 501.039,834.588C507.159,829.916 513.374,825.37 519.681,820.953C549.511,798.915 578.599,775.892 606.898,751.921C626.667,735.308 649.651,716.04 666.988,697.246C660.488,678.003 655.972,640.826 655.938,620.382C647.778,616.958 645.08,615.462 638.153,610.239ZM412.817,193.168C409.692,193.675 407.078,194.128 403.994,194.839C407.032,194.853 410.429,194.776 413.421,195.159C430.176,197.3 442.311,210.087 442.069,227.19C442.002,235.725 438.475,243.867 432.295,249.754C425.863,255.856 417.24,259.105 408.38,258.764C399.513,258.477 391.134,254.639 385.126,248.111C378.16,240.584 376.268,232.986 375.053,223.189C372.456,235.657 373.552,246.967 379.241,258.31C385.742,269.451 395.011,277.183 407.633,280.502C419.124,283.463 431.32,281.762 441.561,275.768C451.721,269.659 459.008,259.731 461.791,248.207C469.624,216.734 444.532,189.493 412.817,193.168ZM532.981,210.027L532.929,210.073C531.656,208.83 528.919,204.902 527.694,203.293L526.826,203.712C527.774,206.355 529.385,207.823 530.003,210.418C528.111,208.622 527.103,207.174 525.77,204.93C524.705,202.962 524.664,202.568 522.813,201.513C521.936,203.36 531.392,218.132 532.906,221.104C531.179,219.455 530.007,218.167 528.433,216.366L528.169,216.763C529.152,219.758 539.521,232.346 542.179,237.808C534.854,231.837 533.466,229.524 525.046,224.891C526.879,227.378 528.965,230.085 530.701,232.607C528.734,232.011 526.755,231.453 524.766,230.935L524.217,231.331L524.25,232.464C521.314,232.185 506.799,222.955 498.917,220.698C503.373,225.61 507.009,226.891 512.141,230.7C505.829,228.658 497.861,224.948 491.369,225.822L490.954,226.504C492.949,229.052 507.132,234.203 511.196,235.9C503.833,236.182 501.35,235.082 494.304,233.365C494.334,234.524 494.162,235.993 494.664,236.818C498.499,237.969 501.486,238.345 505.46,238.942L505.121,239.128C507.545,239.407 516.017,239.864 517.309,240.758C517.732,241.773 518.061,242.56 518.561,243.538C528.477,245.366 537.14,246.11 546.642,250.249C541.589,249.95 509.028,245.012 507.885,245.669C508.309,247.358 510.475,248.873 511.904,249.8C504.023,251.101 495.853,246.649 487.984,250.9L487.765,251.581C490.924,252.956 496.136,252.09 499.804,252.197C496.729,253.497 487.323,254.902 486.02,256.414L486.353,257.832L485.095,259.478L485.417,260.236C489.948,259.902 505.388,255.92 507.772,256.736C504.883,259.526 492.472,258.501 490.845,262.821L491.266,263.385C495.08,263.374 500.899,262.268 504.819,261.648C501.937,264.211 500.722,265.248 498.301,268.213L497.853,268.753L497.589,269.081C511.538,265.503 516.776,260.461 529.152,255.47L528.596,256.024C517.085,267.337 491.005,280.006 499.417,300.676L500.149,300.811C501.7,298.884 500.985,297.38 502.018,296.052C502.218,297.309 502.174,297.678 502.134,298.965L502.759,299.601C504.613,298.601 504.505,295.867 505.189,294.695C506.028,293.26 507.605,295.878 508.584,291.809C509.652,287.367 509.941,283.553 513.82,280.458L514.247,280.733L514.385,282.634C519.095,284.38 527.029,267.506 531.535,265.827C532.082,266.898 532.099,267.015 532.405,268.188C534.633,267.72 539.297,261.198 541.043,259C543.948,259.021 548.315,258.388 549.11,261.747L548.609,263.102C545.252,264.217 543.728,263.827 540.634,265.688C539.892,268.496 543.703,267.197 537.955,270.75C533.645,273.415 527.734,275.463 525.694,280.407L526.264,280.837C529.628,279.357 531.816,277.685 535.188,276.372C533.823,278.272 532.58,280.03 530.79,281.546C526.934,284.813 516.243,290.012 515.327,295.331L515.978,295.67L518.996,294.595L519.145,295.001L518.474,296.236C519.859,296.591 519.424,296.444 521.013,296.086C519.912,298.67 514.884,301.16 514.693,304.638C517.623,304.249 522.391,298.825 525.228,296.788C523.807,300.992 516.222,305.269 516.261,308.481C519.248,308.792 524.633,300.335 528.033,298.049L528.247,297.902L528.434,298.004C529.46,299.641 525.65,304.991 524.932,307.371C524.176,309.876 523.683,311.59 523.193,314.207C531.321,301.24 542.554,286.672 552.292,274.932C549.916,280.952 546.993,285.382 543.941,290.995C542.625,293.417 544.888,293.024 543.731,294.826C542.453,296.814 540.131,297.92 539.99,300.543C541.445,301.535 542.062,299.815 543.919,300.72C543.492,304.26 540.316,307.536 541.184,310.303L542.415,310.522C544.847,308.938 543.768,305.482 546.005,303.48L546.426,303.795C546.217,305.614 545.976,306.834 546.232,308.666C549.617,306.366 552.853,289.008 554.967,284.115L555.386,284.382C556.663,291.761 552.688,302.669 552.231,310.361C551.847,315.723 552.224,321.184 552.006,326.547C551.356,342.532 551.989,357.187 549.925,373.104C534.863,366.126 519.274,360.345 503.303,355.814C458.861,343.621 388.324,336.834 343.499,350.553C337.825,352.289 331.659,354.237 326.532,357.293C313.567,365.022 303.047,408.578 299.028,423.438C385.457,402.187 476.252,395.324 561.252,426.447C587.377,436.013 612.775,447.225 637.595,459.793C613.203,437.052 595.921,424.63 568.365,406.372C593.156,412.338 618.623,424.871 640.326,438.083C618.006,410.86 593.904,393.979 562.421,378.549L564.333,376.308C564.727,374.162 565.226,370.775 564.759,368.688C563.057,370 562.168,371.712 560.432,371.988L559.986,371.281C560.842,369.867 563.165,368.748 564.677,367.842C564.205,361.473 564.5,355.65 563.855,348.688C562.82,349.753 561.099,351.669 559.511,351.318C560.345,349.603 562.348,348.545 563.986,347.421C564.165,340.764 563.083,335.095 563.437,328.785C561.769,329.242 560.249,329.951 558.76,329.338C560.493,327.565 560.427,328.884 562.883,327.413L563.253,325.914L562.693,325.484L560.264,325.883L560.034,325.338C561.342,324.101 562.805,323.168 562.671,321.345C561.479,321.176 561.87,321.372 560.924,320.756C561.959,319.707 562.403,319.205 563.309,318.043L562.894,317.17C561.469,317.934 560.98,318.533 559.647,318.426L560.235,317.231C562.884,315.624 563.057,315.835 563.155,312.747L562.517,312.417L559.532,314.05L559.003,313.754L559.403,313.001C560.898,312.166 561.367,311.884 562.726,310.861L562.875,309.774C562.096,309.625 560.049,311.023 558.767,311.606C558.412,309.931 562.613,309.314 562.933,306.276L562.297,305.833C560.95,306.142 560.62,306.285 559.22,306.26C559.237,306.219 564.722,301.41 565.177,301.01C563.051,301.959 560.748,303.098 558.526,303.707C560.066,302.387 561.591,301.051 563.102,299.697L562.823,298.583L562.082,298.254C561.088,298.694 560.083,299.106 559.066,299.489L558.713,298.798C560.095,296.844 561.219,298.058 562.142,296.863C563.474,295.139 562.613,288.778 562.525,286.034C563.7,284.738 564.266,283.555 565.56,283.434C566.097,284.743 566.236,285.387 566.583,286.744C565.552,287.668 565.22,287.518 565.143,289.094C565.001,292.001 569.898,306.084 572.172,306.812C572.241,304.042 569.897,302.535 571.955,300.542C572.898,303.014 573.135,304.179 574.942,306.13C575.91,305.428 575.858,304.854 576.387,303.517C577.41,303.54 579.19,304.81 580.247,305.428C581.746,304.89 580.846,297.458 582.671,294.963C582.941,297.869 583.585,305.683 586.031,307.29L586.765,306.811C586.877,305.327 586.971,304.248 587.212,302.758C589.68,304.484 588.844,308.638 592.452,308.887C594.02,306.587 592.183,306.393 593.459,304.983C594.429,305.904 595.008,306.616 596.257,307.095C597.532,306.48 596.948,306.915 597.669,305.16C598.541,305.928 598.6,305.931 599.644,306.465C600.374,304.725 597.339,297.82 596.584,294.976L596.426,294.368C597.84,296.351 599.119,299.618 601.653,299.673L602.724,298.258C601.037,295.512 600.506,294.033 599.321,291.042C601.465,293.707 602.592,295.153 604.381,298.058C606.867,300.396 604.251,297.07 608.507,299.468L609.193,299.163C609.4,295.962 597.172,271.181 595.165,266.44C599.868,270.344 613.207,284.734 617.769,286.443C621.668,283.779 623.809,290.318 628.137,286.132C627.775,284.804 624.099,282.964 622.572,282.025C624.659,282.794 632.008,285.537 633.801,285.454C631.574,281.17 622.083,279.592 619.225,277.208C620.832,277.408 621.415,277.69 622.87,277.251C621.849,275.466 619.898,275.777 617.768,273.8L618.18,272.649C616.645,271.111 610.413,268.213 608.223,266.843C605.225,264.967 602.469,263.068 599.561,261.048C602.469,262.09 604.524,263.01 607.617,263.428L607.557,263.052C606.357,262.456 605.765,262.293 604.871,261.307C608.056,260.89 613.641,264.584 617.723,262.521L617.846,261.827L615.78,260.383C617.817,258.791 622.5,261.298 626.058,260.716L626.774,259.331C630.201,259.262 632.744,261.848 635.904,259.727C636.714,257.132 636.596,255.255 635.72,252.697C634.24,251.665 631.106,251.767 628.979,251.141C625.905,251.101 623.675,251.041 620.598,250.741C622.575,250.041 624.967,249.92 627.088,249.689C628.153,249.487 627.769,249.629 628.668,248.985L628.067,248.439C624.904,248.111 622.923,248.497 619.78,248.917L606.863,249.066C609.449,247.086 612.168,245.677 615.009,244.094C606.515,243.873 601.803,244.135 593.531,245.127C597.943,243.215 611.957,239.05 613.412,234.797L612.983,234.02L610.627,233.53C613.6,231.935 619.459,230.434 620.962,228.193L619.518,227.596C615.492,229.149 612.33,230.569 608.418,232.415L606.672,232.304C608.468,229.652 619.317,224.539 622.479,223.189L623.602,222.035L623.511,221.201C621.816,220.906 620.767,221.536 619.133,222.17C616.548,223.538 612.159,225.88 609.264,226.236C611.684,224.428 615.686,222.489 618.587,221.651L619.77,220.378L619.626,219.548C616.917,218.901 610.677,222.995 607.603,224.102C610.14,221.997 612.825,220.99 613.331,217.48L612.672,216.917C604.333,218.003 582.255,241.123 574.82,246.421C573.921,247.062 572.259,246.718 571.264,246.38L571.065,245.826C573.06,242.962 577.244,239.483 579.807,236.557L579.643,235.848L577.359,235.636C578.452,232.573 583.558,229.466 583.343,225.806C583.053,220.869 589.355,213.339 588.986,208.783L588.42,208.364C586.215,210.369 584.216,216.499 581.186,220.358L580.703,220.967C582.768,211.969 587.726,207.325 589.138,197.912C582.809,206.226 581.274,215.361 576.373,222.756C577.983,215.539 579.411,213.285 582.228,206.622C582.877,205.247 583.883,203.346 583.3,201.933C581.449,202.736 580.936,204.574 580.077,206.477C580.405,204.651 580.799,203.617 580.132,201.902C578.881,202.312 579.021,202.828 578.181,204.441C576.569,208.382 576.067,211.959 574.022,216.201C573.357,214.751 576.433,204.727 577.04,202.584C577.021,201.207 577.134,198.746 576.693,197.603C574.999,198.797 568.512,218.35 567.444,221.813C567.826,215.373 569.197,209.356 569.678,202.996C566.082,211.262 562.167,227.948 561.717,236.908C559.181,230.677 552.982,215.728 548.046,211.733L547.5,211.661C548.962,215.604 550.864,219.788 552.114,223.662C549.157,219.867 547.519,217.038 545.622,212.56C545.383,212.274 541.262,204.315 540.402,202.83L539.693,202.713C539.793,204.121 539.981,204.597 539.193,205.846C541.443,210.406 544.665,216.497 546.366,221.14C543.208,217.501 540.24,210.76 538.163,206.251C537.396,205.004 536.855,203.793 535.437,203.525C535.059,205.396 535.834,207.263 536.373,209.147C534.824,206.607 533.212,202.105 530.84,201.175L530.026,202.082L532.948,208.941L532.45,209.539L532.981,210.027ZM532.981,210.027L533.236,209.803L533.225,210.252L532.981,210.027ZM569.304,278.885C569.679,279.239 572.72,290.495 572.907,291.589L572.53,291.423C571.449,288.851 569.785,284.888 568.654,282.201C568.061,280.794 568.351,283.284 567.17,281.292L569.304,278.885ZM585.686,261.33C587.918,263.018 589.765,266.513 590.421,269.223L589.466,269C587.825,266.681 586.82,263.96 585.686,261.33ZM614.138,254.27C618.394,253.822 630.76,253.184 634.374,254.78C630.749,255.308 617.267,255.411 614.138,254.27ZM593.496,275.797C595.989,277.191 598.369,283.564 598.317,286.402C597.274,286.451 597.724,286.271 596.951,286.904L597.631,291.202C596.97,290.755 596.367,288.698 595.981,287.734C594.354,284.078 593.972,282.611 592.989,278.691C593.841,280.322 595.454,283.844 596.616,284.895C596.286,282.561 594.436,278.259 593.496,275.797ZM622.029,257.243C625.316,257.063 632.22,256.296 634.989,257.762C630.117,258.398 626.894,257.525 622.029,257.243ZM415.295,368.712C450.869,366.903 490.475,372.282 520.631,392.226C510.88,389.609 501.033,387.36 491.113,385.484C454.064,378.641 416.531,374.735 378.867,373.802C389.681,370.551 404.034,369.289 415.295,368.712ZM591.247,246.581L591.967,246.78L591.533,247.695C589.492,249.142 588.79,249.215 586.331,249.969L585.589,249.5C586.399,248.287 589.697,247.219 591.247,246.581ZM589.858,290.302C592.359,291.786 593.197,295.469 594.042,298.184C592.043,296.999 590.701,292.572 589.858,290.302ZM572.646,275.299C574.187,278.558 574.732,282.203 575.445,285.756L574.882,286.437C573.782,283.978 572.322,281.388 571.446,278.857C570.891,277.252 571.7,276.696 572.646,275.299ZM582.223,277.817C584.234,279.515 586.274,284.686 587.198,287.178C584.873,285.881 583.261,280.518 582.223,277.817ZM576.995,282.343L578.019,283.018C579.509,286.318 579.824,289.206 580.264,292.754C578.401,291.46 577.469,284.948 576.995,282.343ZM589.621,283.414C588.202,281.485 584.928,276.215 584.991,273.882L586.081,275.208C587.396,277.807 589.053,280.62 589.621,283.414ZM603.466,246.036L605.341,246.222C604.175,247.477 597.053,250.166 595.056,251.004C594.129,251.396 594.622,251.339 593.573,251.116C594.51,248.772 600.996,246.725 603.466,246.036ZM592.261,242.73L592.287,243.195C589.365,244.608 586.075,245.365 582.924,246.244L582.942,245.709C584.437,243.769 589.715,243.197 592.261,242.73ZM414.278,427.212C378.55,429.384 345.568,433.314 310.733,442.379C307.484,447.883 304.31,453.43 301.211,459.019C306.893,458.925 312.041,459.018 317.4,461.043C326.749,464.576 336.659,468.429 345.735,472.552C347.164,468.75 348.613,464.978 349.877,461.116C351.885,471.24 356.646,482.21 360.081,492.134C345.756,507.714 344.502,523.495 338.417,543.013C335.939,551.382 332.616,559.586 330.083,567.927C327.708,575.748 329.679,581.815 336.099,586.811C346.483,594.891 358.721,587.075 368.846,583.194C379.642,579.057 393.289,579.07 402.986,585.857C406.094,588.023 408.194,590.96 411.683,590.625C417.513,586.569 415.024,573.405 410.904,568.499C406.008,562.669 401.977,561.345 395.14,559.526C420.372,549.052 434.028,577.739 443.647,595.941C437.742,593.745 434.674,592.699 428.186,593.024L423.228,595.706C431.487,597.763 441.029,601.048 447.697,606.377C471.245,625.192 488.51,652.369 522.229,632.207C522.701,631.924 523.172,631.639 523.64,631.351C518.702,646.149 512.578,656.278 498.687,663.776C471.947,678.209 448.71,656.874 424.396,647.154C404.824,639.329 384.725,646.572 370.266,629.917C367.06,633.624 364.941,636.283 360.407,638.333C351.982,642.14 342.566,638.28 339.402,649.719C338.109,654.394 336.408,662.05 338.735,666.604L339.58,667.183C364.184,656.831 402.63,663.148 424.954,676.616C418.866,680.065 416.527,681.156 409.807,682.919C387.17,687.352 360.462,673.313 343.822,698.798C332.298,716.448 336,736.565 356.571,745.307C359.705,736.333 361.657,731.616 366.519,723.136C369.087,735.415 374.496,744.899 385.251,751.92C419.752,774.443 464.646,749.835 494.924,730.248C525.201,710.662 556.229,683.563 576.816,653.687C589.617,633.908 590.988,571.602 592.01,547.742C572.374,564.94 560.218,572.902 535.079,582.214C534.786,585.829 534.546,589.733 534.006,593.294C522.461,582.288 515.596,577.987 500.376,572.453C533.025,563.912 565.094,549.851 583.269,519.89C594.631,501.16 591.7,491.711 584.16,473.228C581.834,467.377 579.593,461.493 577.438,455.576C526.223,432.81 470.172,423.066 414.278,427.212ZM476.251,442.156C495.893,439.926 522.403,469.094 533.094,483.066L527.235,480.929C505.438,473.077 484.692,464.339 462.256,474.896C485.009,479.295 496.777,486.343 513.237,501.957L499.091,501.997C494.998,507.161 492.137,510.66 487.225,515.002C490.188,508.63 490.994,506.35 491.075,499.275C484.834,497.378 478.567,495.565 472.277,493.839C470.796,510.673 457.802,515.195 443.976,507.077C441.07,504.724 439.743,502.808 437.628,499.836L432.834,501.682C437.897,514.426 445.174,522.256 456.573,529.625C441.479,526.841 432.335,523.294 419.651,514.737C417.262,519.195 415.576,522.65 413.546,527.282C409.491,516.13 405.465,508.849 399.891,498.48C396.033,496.602 387.13,493.809 384.725,491.816C376.458,484.964 373.848,467.826 372.419,457.919C378.743,464.712 382.518,467.38 390.604,471.962C407.148,467.39 425.878,459.955 442.099,454.108C453.916,449.848 463.415,444.065 476.251,442.156ZM274.414,165.262C265.809,224.643 245.827,267.809 203.962,311.609C201.537,314.147 177.097,337.438 177.01,337.619C178.458,337.562 178.451,337.447 179.786,336.802C221.096,314.988 259.231,275.734 273.308,230.63C278.938,213.163 280.421,194.624 277.638,176.484C277.27,174.112 276.028,166.761 274.414,165.262ZM686.974,461.143C673.475,463.551 662.74,474.194 654.912,484.881C643.315,500.712 642.033,522.517 640.447,541.422C639.233,555.89 633.506,597.337 659.039,592.699C660.796,592.375 663.079,590.975 664.513,589.85C675.276,580.226 673.5,574.552 680.974,563.029C684.114,558.189 691.896,550.133 696.186,545.675C708.735,532.911 714.249,515.489 715.609,497.959C716.402,487.754 714.142,476.255 707.012,468.481C701.399,462.363 694.921,460.656 686.974,461.143ZM686.67,477.123C707.353,475.622 703.347,502.888 699.516,515.295C700.531,505.624 699.32,500.57 690.826,495.672C688.275,496.959 684.731,499.544 682.673,501.622C674.943,509.429 687.438,513.833 686.799,524.51C686.124,535.781 678.979,541.738 671.506,548.741C667.822,552.224 660.854,564.161 660.027,564.507C642.128,572.019 650.66,547.965 655.092,541.05C657.079,537.949 658.836,531.91 659.377,529.855C655.849,519.143 655.244,514.176 660.296,503.344C665.319,492.575 675.292,481.311 686.67,477.123ZM706.536,635.883C707.878,665.117 719.539,687.928 738.021,709.695C742.707,715.214 746.286,721.27 751.82,726.297C752.168,726.611 752.52,726.92 752.878,727.223L753.568,727.128L754.025,726.394C755.932,714.601 755.695,704.056 755.537,692.149C734.384,680.354 725.937,669.955 713.416,648.985C711.986,646.589 707.641,637.129 706.536,635.883Z" style="fill:rgb(0,28,79);"/>
    </g>
</svg>
