<svg width="100%" height="100%" viewBox="0 0 916 805" version="1.1" xmlns="http://www.w3.org/2000/svg" xmlns:xlink="http://www.w3.org/1999/xlink" xml:space="preserve" xmlns:serif="http://www.serif.com/" style="fill-rule:evenodd;clip-rule:evenodd;stroke-linejoin:round;stroke-miterlimit:2;">
    <g transform="matrix(1,0,0,1,-57.0427,-97.5228)">
        <path d="M441.753,117.712C478.783,114.769 508.096,147.029 532.213,170.861C562.481,200.842 591.877,231.69 620.366,263.365L651.424,297.748C671.775,320.251 687.15,336.56 716.208,348.274C758.025,365.131 805.264,368.535 849.721,364.09C871.102,361.882 892.267,357.93 913.004,352.274C922.411,349.75 931.569,346.74 940.923,344.097C942.974,343.518 945.083,343.541 947.1,344.324C948.92,345.015 950.366,346.439 951.086,348.247C954.628,357.039 949.099,375.142 945.466,383.348C937.213,401.994 922.03,419.028 907,432.699C857.813,477.439 796.675,506.42 735.407,530.544C735.657,543.556 734.449,548.218 729.833,560.216C738.841,578.195 750.094,595.882 759.41,613.762C762.569,619.823 766.262,625.779 769.347,631.876C779.008,650.968 752.908,663.966 739.139,670.049C742.392,683.387 745.841,696.676 749.485,709.913C745.426,710.039 741.243,710.314 737.178,710.529C735.182,719.849 732.922,724.412 727.489,732.16C735.623,770.055 747.715,809.58 763.304,845.01C768.821,857.551 775.742,870.202 782.221,882.309C769.516,882.692 750.704,879.014 738.307,876.033C676.699,861.218 628.227,832.711 579.992,792.645C532.558,753.497 493.719,705.241 438.126,676.451C361.729,636.888 279.116,640.9 196.465,651.047C177.889,653.37 159.338,655.891 140.815,658.61C130.566,660.108 98.151,666.497 90.628,665.196C86.229,664.435 82.254,662.405 79.753,658.622C77.03,654.504 76.431,649.121 77.55,644.363C78.691,639.514 81.563,636.208 85.656,633.522C95.522,627.049 106.676,621.704 117.022,615.961C136.393,605.242 155.694,594.397 174.923,583.426C238.485,547.463 297.488,513.378 359.141,473.926L338.843,295.918C338.08,289.491 338.119,287.618 330.276,287.302C317.821,286.8 305.213,287.047 292.737,287.045L217.711,287.037C207.891,287.036 198.077,287.086 188.254,286.923C174.688,286.698 161.253,282.006 155.595,268.504C149.167,253.167 154.225,235.223 169.991,227.957C183.034,221.946 196.178,216.307 209.343,210.576L281.023,179.262L363.128,143.652C388.824,132.62 413.461,119.647 441.753,117.712Z" style="fill:rgb(254,254,254);"   data-color="color-4"/>
        <path d="M442.493,137.706C469.75,135.045 495.538,165.432 513.469,182.957C537.916,206.681 561.687,231.092 584.753,256.161L625.622,301.12C643.973,321.511 662.734,344.822 686.914,358.635C735.392,386.33 799.721,391.183 854.181,385.435C879.855,382.726 902.859,377.258 927.525,370.848C926.63,372.987 925.694,375.109 924.718,377.213C915.533,396.51 891.998,418.436 875.124,431.513C826.166,469.455 768.034,495.888 710.088,516.968C718.45,534.292 714.432,543.096 704.693,558.649C719.661,585.483 734.399,612.445 748.907,639.53C738.123,648.28 728.729,651.408 715.092,652.883C717.297,665.882 720.046,678.783 723.331,691.552L710.789,691.546C717.682,706.988 717.343,714.627 703.685,725.71C715.418,774.417 724.742,808.575 744.507,855.395C683.401,842.875 627.051,806.23 581.084,765.434C544.515,734.256 513.356,698.768 472.885,671.591C377.707,607.677 261.848,618.936 154.301,634.94C140.976,636.922 127.307,638.599 114.071,641.216C206.531,589.767 293.38,541.487 382.598,483.835C380.32,466.306 378.508,447.854 376.476,430.204L365.131,333.256L361.339,300.274C358.868,278.855 360.298,265.769 333.157,265.964C325.236,266.021 316.342,265.935 308.354,265.934L231.635,265.929C217.801,265.93 203.927,266.122 190.107,265.648C178.105,265.237 171.903,258.398 178.002,247.013C182.108,244.141 197.325,237.951 202.924,235.518L253,213.738L359.278,167.455C376.505,160.005 398.136,149.954 415.352,143.683C424.082,140.455 433.215,138.444 442.493,137.706ZM478.155,220.267C480.163,221.465 501.533,252.57 504.144,256.397C515.378,254.08 528.553,250.457 540.046,247.802C532.41,257.22 525.283,267.208 517.821,276.822C526.155,287.913 534.625,298.901 543.229,309.783C534.458,306.47 520.397,302.628 511.141,299.729L502.972,297.098C496.115,307.342 484.735,321.485 477.001,331.839C477.359,317.44 477.594,303.039 477.704,288.636C465.317,284.317 452.891,280.116 440.425,276.032C452.81,271.702 465.293,267.658 477.865,263.904L478.155,220.267ZM445.406,367.778C447.635,369.751 465.775,397.545 468.629,401.849C480.514,398.501 492.278,394.844 504.207,391.571C497.17,401.365 489.108,411.643 481.797,421.298C488.17,432.179 498.03,446.241 505.124,457.065L474.125,446.264L466.045,443.445C457.886,454.261 448.042,467.677 440.476,478.784C441.644,465.119 441.824,449.363 442.543,435.408C432.45,432.238 419.428,427.134 409.353,423.426C419.552,418.782 432.853,414.204 443.537,410.318C444.476,396.264 444.388,381.749 445.406,367.778ZM658.574,647.61C671.718,650.31 682.046,652.404 695.521,653.114C697.767,660.341 699.572,667.358 700.218,674.917C695.037,675.106 691.862,674.554 686.871,673.356C665.527,679.131 648.735,693.234 635.054,710.066C654.247,702.174 670.415,698.374 690.672,694.56C696.578,715.035 689.415,706.852 681.247,722.799C685.751,745.538 692.926,770.754 699.725,792.876C703.239,803.608 707.566,814.482 711.28,825.247C670.514,807.247 609.582,768.796 610.665,718.105C611.194,693.367 640.96,663.921 658.574,647.61ZM604.479,324.177C606.542,325.522 622.982,351.637 625.801,355.96C635.752,353.989 645.745,352.235 655.772,350.7C650.305,358.232 643.682,366.511 637.969,373.966C644.872,384.108 651.51,394.623 658.335,404.873C647.107,400.814 635.909,396.676 624.74,392.459C622.093,393.122 603.231,419.276 600.237,423.477L602.054,384.48C591.084,379.847 580.031,375.413 568.9,371.182C577.487,367.19 593.939,363.003 602.987,360.642C603.031,349.265 604.003,335.727 604.479,324.177ZM675.387,487.209C678.156,489.783 691.417,520.69 691.714,527.326C692.273,539.801 686.95,546.504 679.833,555.593C681.903,559.589 684.26,563.678 686.509,567.585C698.362,588.177 709.745,609.121 721.758,629.614C699.683,635.86 684.179,632.6 662.334,627.936C665.331,623.986 671.061,618.441 674.7,614.94C664.512,614.935 652.092,615.951 644.411,623.393C640.774,626.917 635.539,638.598 632.94,643.437C625.874,656.593 618.905,669.71 610.813,682.272C588.792,652.242 567.197,631.621 538.708,608.454C532.259,603.576 525.738,598.795 519.147,594.111C530.923,576.017 548.008,552.674 567.922,543.22C582.347,536.373 604.009,544.294 618.346,549.788C608.155,553.002 591.168,560.014 582.646,565.987L654.097,565.985C659.854,556.091 665.765,546.288 671.828,536.58C649.429,524.302 611.719,513.127 586.942,508.013C591.395,506.622 596.077,505.571 600.587,504.326C625.356,497.487 650.042,491.536 675.387,487.209Z" style="fill:rgb(4,23,52);"   data-color="color-1"/>
        <path d="M319.981,307.036C310.903,306.908 301.783,307.046 292.735,307.045L217.709,307.037C207.779,307.036 197.855,307.085 187.922,306.92C166.458,306.564 146.102,297.597 137.149,276.234C126.572,250.996 135.676,221.75 161.62,209.793C174.788,203.724 188.058,198.029 201.35,192.243L273.041,160.924L355.204,125.289L355.238,125.274C382.97,113.368 409.731,99.89 440.254,97.768L440.292,97.765C459.251,96.288 476.716,101.67 492.725,111.011C512.918,122.792 530.692,141.24 546.279,156.643L546.288,156.652C576.823,186.898 606.479,218.018 635.22,249.973L666.262,284.337C684.392,304.385 697.797,319.288 723.686,329.724C762.519,345.379 806.413,348.317 847.728,344.189C868.004,342.092 888.075,338.343 907.781,332.968L907.821,332.957C917.143,330.456 926.216,327.469 935.487,324.85L935.489,324.849C941.728,323.088 948.137,323.288 954.274,325.655C961.301,328.347 966.883,333.857 969.637,340.773C971.662,345.798 972.591,352.366 972.069,359.596C971.261,370.781 966.967,384.188 963.754,391.444C954.412,412.55 937.47,432.02 920.457,447.494C872.754,490.885 814.326,520.186 754.985,544.259C754.45,549.256 753.408,553.562 751.636,558.824C759.804,574.119 769.189,589.247 777.146,604.518C780.341,610.65 784.072,616.678 787.192,622.846C795.217,638.704 791.825,652.593 782.478,664.292C777.417,670.628 769.891,676.152 762.388,680.588C764.443,688.613 766.569,696.618 768.768,704.605L775.515,729.115L752.077,729.842C751.143,731.926 750.081,733.948 748.836,736.049C756.629,770.146 767.661,805.252 781.611,836.956C786.925,849.036 793.614,861.211 799.855,872.872L815.082,901.327L782.824,902.3C768.6,902.729 747.51,898.816 733.631,895.479C668.913,879.916 617.906,850.134 567.236,808.049C520.903,769.804 483.235,722.334 428.929,694.211C356.244,656.571 277.558,661.242 198.924,670.895C180.497,673.2 162.094,675.701 143.714,678.399L143.707,678.4C132.194,680.083 95.671,686.365 87.219,684.903C77.332,683.193 68.691,678.155 63.07,669.653C57.355,661.01 55.733,649.77 58.082,639.784C60.47,629.628 66.11,622.427 74.683,616.801L74.685,616.8C84.956,610.061 96.544,604.453 107.327,598.468L107.339,598.462C126.633,587.785 145.858,576.982 165.043,566.037L165.074,566.019C224.694,532.286 280.286,500.219 337.853,463.768C337.853,463.768 323.891,341.323 319.981,307.036ZM441.753,117.712C413.461,119.647 388.824,132.62 363.128,143.652L281.023,179.262L209.343,210.576C196.178,216.307 183.034,221.946 169.991,227.957C154.225,235.223 149.167,253.167 155.595,268.504C161.253,282.006 174.688,286.698 188.254,286.923C198.077,287.086 207.891,287.036 217.711,287.037L292.737,287.045C305.213,287.047 317.821,286.8 330.276,287.302C338.119,287.618 338.08,289.491 338.843,295.918L359.141,473.926C297.488,513.378 238.485,547.463 174.923,583.426C155.694,594.397 136.393,605.242 117.022,615.961C106.676,621.704 95.522,627.049 85.656,633.522C81.563,636.208 78.691,639.514 77.55,644.363C76.431,649.121 77.03,654.504 79.753,658.622C82.254,662.405 86.229,664.435 90.628,665.196C98.151,666.497 130.566,660.108 140.815,658.61C159.338,655.891 177.889,653.37 196.465,651.047C279.116,640.9 361.729,636.888 438.126,676.451C493.719,705.241 532.558,753.497 579.992,792.645C628.227,832.711 676.699,861.218 738.307,876.033C750.704,879.014 769.516,882.692 782.221,882.309C775.742,870.202 768.821,857.551 763.304,845.01C747.715,809.58 735.623,770.055 727.489,732.16C732.922,724.412 735.182,719.849 737.178,710.529C741.243,710.314 745.426,710.039 749.485,709.913C745.841,696.676 742.392,683.387 739.139,670.049C752.908,663.966 779.008,650.968 769.347,631.876C766.262,625.779 762.569,619.823 759.41,613.762C750.094,595.882 738.841,578.195 729.833,560.216C734.449,548.218 735.657,543.556 735.407,530.544C796.675,506.42 857.813,477.439 907,432.699C922.03,419.028 937.213,401.994 945.466,383.348C949.099,375.142 954.628,357.039 951.086,348.247C950.366,346.439 948.92,345.015 947.1,344.324C945.083,343.541 942.974,343.518 940.923,344.097C931.569,346.74 922.411,349.75 913.004,352.274C892.267,357.93 871.102,361.882 849.721,364.09C805.264,368.535 758.025,365.131 716.208,348.274C687.15,336.56 671.775,320.251 651.424,297.748L620.366,263.365C591.877,231.69 562.481,200.842 532.213,170.861C508.096,147.029 478.783,114.769 441.753,117.712ZM658.574,647.61C671.718,650.31 682.046,652.404 695.521,653.114C697.767,660.341 699.572,667.358 700.218,674.917C695.037,675.106 691.862,674.554 686.871,673.356C665.527,679.131 648.735,693.234 635.054,710.066C654.247,702.174 670.415,698.374 690.672,694.56C696.578,715.035 689.415,706.852 681.247,722.799C685.751,745.538 692.926,770.754 699.725,792.876C703.239,803.608 707.566,814.482 711.28,825.247C670.514,807.247 609.582,768.796 610.665,718.105C611.194,693.367 640.96,663.921 658.574,647.61Z" style="fill:rgb(190,0,48);"   data-color="color-2"/>
        <path d="M478.155,220.267C480.163,221.465 501.533,252.57 504.144,256.397C515.378,254.08 528.553,250.457 540.046,247.802C532.41,257.22 525.283,267.208 517.821,276.822C526.155,287.913 534.625,298.901 543.229,309.783C534.458,306.47 520.397,302.628 511.141,299.729L502.972,297.098C496.115,307.342 484.735,321.485 477.001,331.839C477.359,317.44 477.594,303.039 477.704,288.636C465.317,284.317 452.891,280.116 440.425,276.032C452.81,271.702 465.293,267.658 477.865,263.904L478.155,220.267ZM445.406,367.778C447.635,369.751 465.775,397.545 468.629,401.849C480.514,398.501 492.278,394.844 504.207,391.571C497.17,401.365 489.108,411.643 481.797,421.298C488.17,432.179 498.03,446.241 505.124,457.065L474.125,446.264L466.045,443.445C457.886,454.261 448.042,467.677 440.476,478.784C441.644,465.119 441.824,449.363 442.543,435.408C432.45,432.238 419.428,427.134 409.353,423.426C419.552,418.782 432.853,414.204 443.537,410.318C444.476,396.264 444.388,381.749 445.406,367.778ZM604.479,324.177C606.542,325.522 622.982,351.637 625.801,355.96C635.752,353.989 645.745,352.235 655.772,350.7C650.305,358.232 643.682,366.511 637.969,373.966C644.872,384.108 651.51,394.623 658.335,404.873C647.107,400.814 635.909,396.676 624.74,392.459C622.093,393.122 603.231,419.276 600.237,423.477L602.054,384.48C591.084,379.847 580.031,375.413 568.9,371.182C577.487,367.19 593.939,363.003 602.987,360.642C603.031,349.265 604.003,335.727 604.479,324.177Z" style="fill:rgb(254,254,254);"   data-color="color-3"/>
    </g>
</svg>
