<svg width="100%" height="100%" viewBox="0 0 824 931" version="1.1" xmlns="http://www.w3.org/2000/svg" xmlns:xlink="http://www.w3.org/1999/xlink" xml:space="preserve" xmlns:serif="http://www.serif.com/" style="fill-rule:evenodd;clip-rule:evenodd;stroke-linejoin:round;stroke-miterlimit:2;">
    <g transform="matrix(1,0,0,1,-94.2986,-56.7965)">
        <path d="M499.219,72.716C543.988,71.283 594.096,84.523 628.824,113.545C663.381,142.424 686.882,186.353 691.184,231.188C704.223,237.341 716.078,244.324 721.324,259.136C730.443,284.88 727.289,330.294 717.323,355.723C714.277,363.496 708.274,369.151 700.69,371.981C700.37,378.005 699.5,390.024 697.718,395.219C691.995,411.893 692.625,422.908 696.012,440.199C699.598,459.481 706.164,477.796 714.132,495.659C718.728,505.961 724.42,517.208 727.807,527.827C731.115,538.198 727.915,550.241 717.293,554.709C713.559,556.281 706.929,555.876 703.053,554.329C681.482,543.446 671.116,517.054 662.405,496.034C660.777,507.288 657.958,517.208 654.51,527.962C674.512,547.117 686.514,572.703 700.903,596.003C709.278,599.771 720.675,603.804 729.402,607.237C746.813,614.076 764.171,621.049 781.475,628.155C818.224,643.18 854.666,659.715 891.242,675.364C846.078,716.589 801.739,760.974 755.564,801.096C693.188,854.542 625.884,901.954 554.558,942.695C540.111,950.94 521.317,961.947 506.687,969.028C493.601,962.589 479.979,955.083 467.236,947.972C398.923,910.064 334.228,865.975 273.963,816.259C247.389,793.935 221.419,770.903 196.082,747.185C171.654,724.708 143.908,699.123 120.767,675.496C130.858,671.868 142.074,666.901 152.085,662.713L224.472,631.984C236.555,627.018 248.676,622.143 260.832,617.359C269.222,614.057 280.828,609.964 288.567,605.821C290.627,604.718 297.009,595.049 298.9,592.411C304.172,584.986 309.168,577.368 313.877,569.573C329.232,543.764 336.139,523.51 367.037,514.401L364.746,459.634C351.418,487.216 337.495,514.17 314.497,535.276C304.155,544.769 281.597,563.417 267.725,547.933C255.435,534.213 274.341,511.453 282.326,499.141C297.61,475.573 310.231,447.723 312.226,419.222C301.515,403.63 296.337,384.24 295.369,365.497C294.806,365.252 294.246,365.001 293.689,364.744C287.5,361.886 281.186,356.096 279.109,348.885C274.365,332.412 272.275,298.745 278.644,282.605C281.343,275.764 289.505,272.629 295.51,270.577C302.146,154.488 383.914,77.495 499.219,72.716ZM622.921,340.243C632.804,351.048 644.135,358.948 658.994,360.68C670.053,361.97 682.912,360.865 691.959,353.759C701.84,345.997 703.095,329.145 704.253,317.385C705.375,305.988 707.504,284.458 699.43,275.705C690.656,266.192 669.362,266.327 657.093,265.517C644.76,265.395 630.441,264.874 618.488,267.146C583.873,273.726 610.801,325.118 622.921,340.243ZM481.205,236.216C455.443,237.371 423.231,237.683 404.496,258.018C390.528,273.178 389.524,294.851 390.087,314.335C391.037,347.267 406.76,361.393 436.024,372.346C419.089,360.273 409.649,350.221 406.5,328.764C403.832,310.585 402.517,285.663 413.472,269.949C426.442,251.343 453.386,249.564 474.016,248.889C509.105,246.824 542.263,252.446 577.1,254.045C614.406,255.757 669.212,242.424 703.996,258.27C692.047,244.282 679.513,241.502 661.525,240.056C633.161,237.778 605.208,242.555 576.779,241.468C544.382,240.229 513.887,234.439 481.205,236.216ZM388.297,523.352C388.423,534.337 387.536,551.333 385.329,562.149C403.946,590.482 426.518,621.794 455.738,640.072C457.445,636.29 459.148,632.38 461.004,628.678C465.801,619.667 470.439,610.572 474.916,601.397C447.838,578.255 421.405,553.893 395.227,529.734C393.097,527.768 390.542,525.094 388.297,523.352ZM511.401,191.29C465.3,194.261 403.894,206.387 374.263,245.116C381.095,240.522 389.082,234.865 396.482,231.416C425.313,217.977 464.457,210.421 495.879,207.663C526.063,205.134 554.363,205.956 584.535,207.498C608.723,208.735 637.167,209.889 660.831,214.957C625.378,198.296 591.881,193.927 552.816,191.424C541.553,190.703 522.732,190.32 511.401,191.29ZM630.443,384.046C639.22,399.372 648.304,418.177 653.364,435.137C654.447,430.242 655.99,424.364 657.753,419.64C661.763,407.04 665.251,400.1 671.102,388.673C655.669,390.601 645.258,389.07 630.443,384.046ZM464.054,360.058C516.243,363.13 545.719,338.355 553.088,285.967C556.49,261.783 524.295,263.657 508.015,262.758C491.018,261.735 474.526,261.238 457.484,263.628C432.752,267.095 422.356,277.331 421.265,302.382C419.827,335.422 426.291,358.326 463.553,360.039L464.054,360.058ZM576.962,311.153C573.387,311.761 572.331,312.071 568.934,313.294C560.405,334.015 551.505,350.92 533.624,365.421C501.771,391.253 450.648,397.317 412.963,381.554C400.032,376.282 388.388,368.287 378.823,358.113C381.497,392.013 385.289,470.634 399.564,498.866C402.396,504.469 407.097,509.077 411.803,513.124C434.308,532.478 484.554,559.726 513.551,565.187C529.654,568.22 546.21,567.676 562.466,566.383C572.114,565.616 586.804,565.41 593.392,557.416C598.794,550.862 599.105,540.028 598.088,531.981C597.455,526.971 595.917,522.682 592.485,518.889C579.42,512.001 557.692,520.841 544.636,509.009C541.177,505.875 538.482,502.42 537.103,497.893C536.788,496.844 536.501,495.787 536.241,494.723C549.073,492.767 563.483,493.712 576.496,492.897C589.685,492.072 602.195,492.109 610.884,480.677C605.415,475.09 600.093,471.337 591.79,471.205C587.364,471.134 581.67,472.587 577.284,472.539C571.852,472.48 566.258,470.917 560.674,470.981C538.615,471.234 519.585,476.765 499.34,484.473C498.327,474.748 501.051,470.275 506.69,462.523C510.259,463.633 512.482,464.428 515.919,465.886C529.146,462.371 543.549,456.889 556.586,454.614C570.461,452.194 574.619,463.501 588.551,455.964L588.487,436.695L582.532,436.517C580.329,439.257 576.653,444.12 574.318,446.492C573.723,441.112 572.592,432.91 571.438,427.591L560.175,423.187C551.136,424.581 538.743,425.454 531.072,419.839C521.491,412.824 528.499,401.415 536.378,396.771L538.855,405.897C547.17,403.637 553.351,402.195 561.979,401.832C565.579,401.655 569.187,401.735 572.775,402.07C587.413,403.41 611.185,407.215 602.806,383.048C599.592,373.779 583.761,314.141 580.893,311.814C578.951,311.196 578.989,311.187 576.962,311.153ZM637.647,552.316C621.417,603.852 561.242,651.965 514.928,676.078C510.62,678.268 506.332,680.496 502.064,682.764C529.045,660.919 560.655,632.794 581.015,604.612C546.161,629.698 505.515,645.736 471.238,671.271C464.883,676.006 454.805,685.214 450.157,691.345C433.041,711.566 422.932,735.2 423.938,762.093C435.382,779.476 445.725,797.559 454.904,816.237C472.861,790.175 487.036,773.594 508.28,750.842C545.123,711.385 608.617,655.148 630.565,605.773C635.578,594.714 638.481,582.816 639.125,570.692C639.294,567.716 639.538,554.001 637.647,552.316ZM361.555,537.321C347.355,550.769 342.826,567.43 342.465,586.616C341.436,641.324 376.468,685.71 408.666,726.001C411.08,720.984 413.041,715.847 415.362,710.819C423.807,693.738 433.699,677.417 448.768,665.276C430.299,651.699 413.914,636.85 397.758,620.649C373.792,596.615 361.954,571.652 362.183,537.633L361.555,537.321Z" style="fill:rgb(89,28,27);"  data-color="color-1"/>
        <path d="M698.11,636.387C699.272,637.468 701.2,643.917 701.639,645.609C711.124,682.205 713.497,719.953 716.993,757.213C712.821,754.551 704.435,750.994 699.697,748.99C675.68,738.826 649.651,731.581 624.506,724.556C619.565,728.634 611.362,733.862 605.917,737.548C595.466,744.591 585.095,751.751 574.806,759.027C540.314,783.713 499.979,817.994 471.766,849.922C466.873,855.038 462.017,860.19 457.199,865.377C484.035,810.757 534.03,764.224 582.978,729.485C592.416,722.787 605.711,713.336 615.467,707.787C635.454,710.298 674.897,724.957 694.48,732.557C694.634,723.789 695.658,713.403 696.103,704.488C697.23,681.901 698.692,659.009 698.11,636.387ZM294.346,628.907C294.526,631.076 286.929,645.581 285.562,648.634C277.683,666.231 271.115,685.862 265.608,704.326C289.179,700.792 303.725,698.67 327.395,697.659C329.662,699.905 332.127,702.595 334.23,705.095C369.306,746.806 405.295,788.528 431.003,836.911C433.494,841.599 435.987,845.9 438.15,850.644L423.248,833.397C416.553,824.782 405.64,813.339 398.249,804.817C371.981,774.529 343.16,745.328 317.645,714.453C293.58,714.838 258.774,717.737 235.573,722.099C248.918,691.1 271.484,653.678 294.346,628.907ZM360.266,280.728C360.796,280.696 360.446,280.663 361.187,281.241C361.294,286.139 360.745,293.121 360.613,298.27C360.387,307.963 360.459,317.66 360.828,327.348C339.627,329.045 316.175,334.342 294.353,336.193L294.022,336.143C292.079,333.918 292.394,296.09 292.429,289.875C314.842,285.497 337.494,282.442 360.266,280.728Z" style="fill:white;fill-opacity:0.45;"/>
        <path d="M637.647,552.316C639.538,554.001 639.294,567.716 639.125,570.692C638.481,582.816 635.578,594.714 630.565,605.773C608.617,655.148 545.123,711.385 508.28,750.842C487.036,773.594 472.861,790.175 454.904,816.237C445.725,797.559 435.382,779.476 423.938,762.093C422.932,735.2 433.041,711.566 450.157,691.345C454.805,685.214 464.883,676.006 471.238,671.271C505.515,645.736 546.161,629.698 581.015,604.612C560.655,632.794 529.045,660.919 502.064,682.764C506.332,680.496 510.62,678.268 514.928,676.078C561.242,651.965 621.417,603.852 637.647,552.316ZM508.015,262.758C524.295,263.657 556.49,261.783 553.088,285.967C545.719,338.355 516.243,363.13 464.054,360.058C466.32,353.688 471.807,342.622 474.734,336.31L496.145,290.54C500.391,281.507 505.096,272.261 508.015,262.758ZM657.093,265.517C669.362,266.327 690.656,266.192 699.43,275.705C707.504,284.458 705.375,305.988 704.253,317.385C703.095,329.145 701.84,345.997 691.959,353.759C682.912,360.865 670.053,361.97 658.994,360.68C644.135,358.948 632.804,351.048 622.921,340.243C624.134,338.598 631.38,322.88 632.672,320.133C640.943,302.128 649.351,284.186 657.895,266.309L657.093,265.517ZM361.555,537.321L362.183,537.633C361.954,571.652 373.792,596.615 397.758,620.649C413.914,636.85 430.299,651.699 448.768,665.276C433.699,677.417 423.807,693.738 415.362,710.819C413.041,715.847 411.08,720.984 408.666,726.001C376.468,685.71 341.436,641.324 342.465,586.616C342.826,567.43 347.355,550.769 361.555,537.321ZM481.205,236.216C513.887,234.439 544.382,240.229 576.779,241.468C605.208,242.555 633.161,237.778 661.525,240.056C679.513,241.502 692.047,244.282 703.996,258.27C669.212,242.424 614.406,255.757 577.1,254.045C542.263,252.446 509.105,246.824 474.016,248.889C453.386,249.564 426.442,251.343 413.472,269.949C402.517,285.663 403.832,310.585 406.5,328.764C409.649,350.221 419.089,360.273 436.024,372.346C406.76,361.393 391.037,347.267 390.087,314.335C389.524,294.851 390.528,273.178 404.496,258.018C423.231,237.683 455.443,237.371 481.205,236.216Z" style="fill:rgb(239,173,71);"  data-color="color-2"/>
        <path d="M494.392,57.22C541.726,54.249 588.721,66.958 628.106,93.381C659.848,115.135 685.293,150.358 697.318,186.719C701.271,198.672 703.407,208.731 705.703,221.047C743.344,242.535 744.15,279.532 740.976,318.818C738.918,344.287 735.759,365.337 715.129,382.523C714.191,388.126 713.654,393.652 712.556,399.387C711.322,405.832 708.618,414.928 709.153,421.296C711.309,446.969 720.463,471.944 730.778,495.352C735.005,505.112 740.19,514.556 743.212,524.792C747.458,539.178 743.357,555.638 730.83,564.5C723.066,569.881 713.503,572.004 704.192,570.415C706.228,574.561 708.173,578.774 710.682,582.648C716.403,585.437 727.585,589.502 733.811,592.006L782.333,611.734L917.905,669.558C911.05,678.019 900.186,688.571 892.267,696.188C878.389,709.375 864.388,722.432 850.265,735.357L805.871,776.441C795.909,785.701 786.23,795.072 776.036,804.093C754.315,823.285 731.891,841.667 708.81,859.2C674.159,885.555 638.371,910.38 601.549,933.605C591.326,939.927 510.531,988.065 505.21,987.362C503.234,985.988 497.043,982.892 494.59,981.577C487.218,977.642 479.876,973.652 472.563,969.608C447.795,955.848 420.415,940.477 396.552,925.105C343.646,890.948 293.04,853.354 245.062,812.564C231.103,800.661 217.428,787.895 203.887,775.503C187.412,760.669 171.116,745.637 155.002,730.411C137.486,713.86 119.764,697.642 103.057,680.264C99.894,676.974 96.534,673.775 94.299,669.763C109.82,662.909 126.173,656.332 141.855,649.672C167.359,638.735 192.923,627.938 218.544,617.28L259.3,600.547C262.496,599.231 278.717,592.907 280.373,591.239C285.224,586.355 293.322,573.033 297.428,566.884C275.296,573.076 253.884,567.391 248.711,541.905C245.861,526.65 255.782,510.849 264.003,498.783C280.698,474.279 291.312,453.15 296.228,423.595C287.459,407.945 283.636,392.722 281.067,375.235C276.39,372.13 272.401,368.098 269.346,363.388C258.737,346.939 257.101,307.053 261.018,287.542C263.864,273.368 269.357,267.171 280.911,259.718C283.389,214.606 304.161,163.194 334.819,130.111C378.225,83.272 431.368,60.336 494.392,57.22ZM499.219,72.716C383.914,77.495 302.146,154.488 295.51,270.577C289.505,272.629 281.343,275.764 278.644,282.605C272.275,298.745 274.365,332.412 279.109,348.885C281.186,356.096 287.5,361.886 293.689,364.744C294.246,365.001 294.806,365.252 295.369,365.497C296.337,384.24 301.515,403.63 312.226,419.222C310.231,447.723 297.61,475.573 282.326,499.141C274.341,511.453 255.435,534.213 267.725,547.933C281.597,563.417 304.155,544.769 314.497,535.276C337.495,514.17 351.418,487.216 364.746,459.634L367.037,514.401C336.139,523.51 329.232,543.764 313.877,569.573C309.168,577.368 304.172,584.986 298.9,592.411C297.009,595.049 290.627,604.718 288.567,605.821C280.828,609.964 269.222,614.057 260.832,617.359C248.676,622.143 236.555,627.018 224.472,631.984L152.085,662.713C142.074,666.901 130.858,671.868 120.767,675.496C143.908,699.123 171.654,724.708 196.082,747.185C221.419,770.903 247.389,793.935 273.963,816.259C334.228,865.975 398.923,910.064 467.236,947.972C479.979,955.083 493.601,962.589 506.687,969.028C521.317,961.947 540.111,950.94 554.558,942.695C625.884,901.954 693.188,854.542 755.564,801.096C801.739,760.974 846.078,716.589 891.242,675.364C854.666,659.715 818.224,643.18 781.475,628.155C764.171,621.049 746.813,614.076 729.402,607.237C720.675,603.804 709.278,599.771 700.903,596.003C686.514,572.703 674.512,547.117 654.51,527.962C657.958,517.208 660.777,507.288 662.405,496.034C671.116,517.054 681.482,543.446 703.053,554.329C706.929,555.876 713.559,556.281 717.293,554.709C727.915,550.241 731.115,538.198 727.807,527.827C724.42,517.208 718.728,505.961 714.132,495.659C706.164,477.796 699.598,459.481 696.012,440.199C692.625,422.908 691.995,411.893 697.718,395.219C699.5,390.024 700.37,378.005 700.69,371.981C708.274,369.151 714.277,363.496 717.323,355.723C727.289,330.294 730.443,284.88 721.324,259.136C716.078,244.324 704.223,237.341 691.184,231.188C686.882,186.353 663.381,142.424 628.824,113.545C594.096,84.523 543.988,71.283 499.219,72.716ZM622.921,340.243C610.801,325.118 583.873,273.726 618.488,267.146C630.441,264.874 644.76,265.395 657.093,265.517L657.895,266.309C649.351,284.186 640.943,302.128 632.672,320.133C631.38,322.88 624.134,338.598 622.921,340.243ZM511.401,191.29C522.732,190.32 541.553,190.703 552.816,191.424C591.881,193.927 625.378,198.296 660.831,214.957C637.167,209.889 608.723,208.735 584.535,207.498C554.363,205.956 526.063,205.134 495.879,207.663C464.457,210.421 425.313,217.977 396.482,231.416C389.082,234.865 381.095,240.522 374.263,245.116C403.894,206.387 465.3,194.261 511.401,191.29ZM464.054,360.058L463.553,360.039C426.291,358.326 419.827,335.422 421.265,302.382C422.356,277.331 432.752,267.095 457.484,263.628C474.526,261.238 491.018,261.735 508.015,262.758C505.096,272.261 500.391,281.507 496.145,290.54L474.734,336.31C471.807,342.622 466.32,353.688 464.054,360.058Z" style="fill:white;"  data-color="color-3"/>
        <path d="M576.962,311.153C578.989,311.187 578.951,311.196 580.893,311.814C583.761,314.141 599.592,373.779 602.806,383.048C611.185,407.215 587.413,403.41 572.775,402.07C569.187,401.735 565.579,401.655 561.979,401.832C553.351,402.195 547.17,403.637 538.855,405.897L536.378,396.771C528.499,401.415 521.491,412.824 531.072,419.839C538.743,425.454 551.136,424.581 560.175,423.187L571.438,427.591C572.592,432.91 573.723,441.112 574.318,446.492C576.653,444.12 580.329,439.257 582.532,436.517L588.487,436.695L588.551,455.964C574.619,463.501 570.461,452.194 556.586,454.614C543.549,456.889 529.146,462.371 515.919,465.886C512.482,464.428 510.259,463.633 506.69,462.523C501.051,470.275 498.327,474.748 499.34,484.473C519.585,476.765 538.615,471.234 560.674,470.981C566.258,470.917 571.852,472.48 577.284,472.539C581.67,472.587 587.364,471.134 591.79,471.205C600.093,471.337 605.415,475.09 610.884,480.677C602.195,492.109 589.685,492.072 576.496,492.897C563.483,493.712 549.073,492.767 536.241,494.723C536.501,495.787 536.788,496.844 537.103,497.893C538.482,502.42 541.177,505.875 544.636,509.009C557.692,520.841 579.42,512.001 592.485,518.889C595.917,522.682 597.455,526.971 598.088,531.981C599.105,540.028 598.794,550.862 593.392,557.416C586.804,565.41 572.114,565.616 562.466,566.383C546.21,567.676 529.654,568.22 513.551,565.187C484.554,559.726 434.308,532.478 411.803,513.124C407.097,509.077 402.396,504.469 399.564,498.866C385.289,470.634 381.497,392.013 378.823,358.113C388.388,368.287 400.032,376.282 412.963,381.554C450.648,397.317 501.771,391.253 533.624,365.421C551.505,350.92 560.405,334.015 568.934,313.294C572.331,312.071 573.387,311.761 576.962,311.153ZM388.297,523.352C390.542,525.094 393.097,527.768 395.227,529.734C421.405,553.893 447.838,578.255 474.916,601.397C470.439,610.572 465.801,619.667 461.004,628.678C459.148,632.38 457.445,636.29 455.738,640.072C426.518,621.794 403.946,590.482 385.329,562.149C387.536,551.333 388.423,534.337 388.297,523.352ZM630.443,384.046C645.258,389.07 655.669,390.601 671.102,388.673C665.251,400.1 661.763,407.04 657.753,419.64C655.99,424.364 654.447,430.242 653.364,435.137C648.304,418.177 639.22,399.372 630.443,384.046Z" style="fill:rgb(247,216,157);"  data-color="color-4"/>
    </g>
</svg>
