<svg width="100%" height="100%" viewBox="0 0 807 961" version="1.1" xmlns="http://www.w3.org/2000/svg" xmlns:xlink="http://www.w3.org/1999/xlink" xml:space="preserve" xmlns:serif="http://www.serif.com/" style="fill-rule:evenodd;clip-rule:evenodd;stroke-linejoin:round;stroke-miterlimit:2;">
    <g transform="matrix(1,0,0,1,-107.276,-41.3661)">
        <path d="M498.525,62.715C508.883,61.962 523.896,62.703 534.254,63.411C620.154,69.289 696.142,112.212 752.093,176.653C771.668,199.199 799.963,237.637 797.366,268.62C794.271,305.534 759.444,322.803 733.684,344.92C731.821,354.349 730.503,371.932 729.524,382.084C771.27,405.231 743.73,491.898 725.068,524.006C716.197,539.269 704.307,548.391 687.393,552.461C685.142,566.343 681.867,581.365 680.296,595.207C679.891,598.778 680.646,611.517 680.783,616C680.984,625.462 681.112,634.926 681.168,644.39C690.582,655.1 699.779,664.953 708.989,676.01C723.614,693.47 736.927,711.989 748.821,731.414C761.815,738.464 779.547,746.495 793.179,753.239C821.021,766.797 848.486,781.115 875.544,796.178C850.967,814.122 820.627,833.391 794.991,849.651C731.712,889.788 662.361,927.569 592.345,954.69C568.949,963.7 545.17,971.685 521.078,978.624C518.002,979.489 514.915,980.317 511.819,981.108C381.757,945.574 256.202,871.453 145.769,795.971C181.406,778.164 216.175,758.221 252.783,742.287C270.305,734.66 268.827,736.639 279.321,720.678C282.857,715.3 286.535,710.014 290.346,704.827C305.405,684.33 321.677,664.751 339.051,646.174C337.467,630.328 340.045,612.435 339.351,597.216C338.856,586.367 334.479,564.52 332.556,552.914C316.977,549.238 303.01,538.127 294.545,524.081C276.418,494.005 263.239,446.176 269.432,411.288C271.686,398.592 278.9,388.611 289.412,381.882L285.743,344.252C273.446,333.79 258.613,324.195 246.277,313.184C232.391,300.789 223.411,286.395 222.077,267.591C219.728,234.471 253.277,191.732 274.48,168.24C318.523,119.441 380.63,81.53 445.44,68.69C462.938,65.223 480.602,63.54 498.525,62.715ZM349.043,683.242C349.242,686.37 349.481,689.507 349.66,692.635C353.415,758.256 378.445,818.467 408.523,876.225C417.185,859.631 425.986,846.995 437.756,832.229C451.775,814.471 466.381,795.591 482.202,779.53C465.303,773.503 449.228,764.574 434.008,755.443C406.016,738.649 379.072,719.203 357.633,694.412C356.306,692.878 349.786,683.602 349.043,683.242ZM451.759,680.354C462.919,687.372 486.245,689.257 499.142,689.045C527.887,688.572 555.463,690.957 579.561,672.528C608.873,650.112 637.307,623.556 651.168,588.506C656.631,574.692 659.07,559.026 661.808,544.514C665.706,523.274 669.425,502.001 672.964,480.698C642.246,488.226 616.03,489.448 585.755,477.487C561.137,467.761 544.526,445.907 534.859,422.036C531.721,414.286 529.628,405.754 526.288,397.856L525.917,396.991C514.629,397.016 504.296,396.721 493.084,396.456C489.858,404.189 487.733,412.903 484.808,420.733C477.479,440.353 464.141,460.137 446,471.224C422.332,485.689 387.163,489.765 360.488,483.608C351.77,480.837 347.3,478.543 339.133,474.47C343.403,495.37 347.543,516.297 351.553,537.248C354.675,554.002 357.153,571.198 362.76,587.518C375.237,623.834 409.323,651.489 439.636,673.124C442.874,675.435 448.326,678.65 451.759,680.354ZM462.828,489.377C463.792,493.589 462.028,500.386 465.812,504.611C471.822,511.322 479.315,500.739 483.254,500.312C490.373,499.541 499.431,504.753 508.651,504.967C520.424,505.24 525.78,500.316 536.232,500.204C539.493,500.169 544.617,507.178 549.013,506.927C550.837,506.823 552.542,506.005 553.756,504.641C557.074,500.914 556.373,493.599 556.272,488.846C562.58,496.208 567.357,501.849 564.208,512.125C559.185,519.509 548.162,519.943 540.041,520.096C529.401,526.894 518.018,538.491 504.091,533.887C495.18,530.941 487.818,524.99 479.973,520.04C470.362,520.062 454.601,518.824 454.413,505.691C454.326,499.582 458.717,493.641 462.828,489.377ZM484.649,559.193C491.74,558.667 499.802,561.814 506.897,562.122C513.068,562.39 520.231,560.964 526.313,559.898C538.877,557.696 548.804,561.719 560.468,565.398C565.591,567.014 568.347,568.171 573.001,565.719C577.46,568.843 586.659,575.115 582.908,581.364C580.531,582.977 577.676,581.221 574.633,579.848C563.809,574.964 551.529,574.915 539.761,575.428C528.521,575.667 517.493,576.567 506.259,576.368C488.719,576.263 470.875,573.682 453.569,577.612C449.082,578.631 440.922,584.854 437.948,579.655C437.676,573.849 443.562,568.078 448.504,565.885C450.466,565.94 450.147,566.22 452.092,567.732C461.013,565.151 476.084,560.047 484.649,559.193ZM471.096,597.149C499.332,602.058 522.819,601.205 550.847,597.012C548.334,601.048 547.112,602.409 543.69,605.392C534.838,612.017 525.856,614.544 514.753,615.331C501.409,616.277 486.211,613.705 475.84,604.615C473.782,602.811 471.271,600.005 471.096,597.149ZM291.777,409.388C285.006,419.673 289.229,452.74 291.921,465.599C295.952,484.855 306.356,518.687 325.514,527.639C323.396,516.558 323.175,508.738 322.571,497.535C305.013,488.189 302.806,463.813 302.959,445.947C299.39,440.779 296.036,435.768 297.229,429.115L298.037,428.062C302.509,428.261 312.566,442.696 315.517,446.653C314.761,432.613 316.208,425.346 304.744,416.059C300.149,412.336 297.93,409.638 291.777,409.388ZM361.377,632.878C361.149,646.543 362.002,661.562 362.027,675.587C388.418,708.285 460.227,759.809 502.645,766.032C499.709,762.741 482.668,750.253 478.243,746.676C462.358,733.736 446.851,720.339 431.74,706.503C416.712,692.782 398.116,674.884 384.454,659.843C379.583,654.464 374.842,648.971 370.217,643.38C367.884,640.56 363.744,635.23 361.377,632.878ZM493.806,312.718C446.142,314.623 402.063,320.369 356.113,333.237C345.901,336.097 333.847,337.36 323.917,340.569C359.162,347.229 403.773,337.55 440.134,334.808C470.404,332.525 494.464,331.948 524.699,331.983C548.795,332.23 572.623,334.445 596.552,336.537C625.787,339.093 665.272,347.247 693.796,340.271C688.799,339.033 683.787,337.962 678.747,336.914C658.406,332.686 638.195,326.878 617.833,322.842C588.051,316.926 557.82,313.552 527.466,312.754C517.584,312.461 503.483,312.03 493.806,312.718ZM504.416,131.077C492.589,134.912 486.735,141.752 486.282,154.146C481.994,144.042 479.41,134.565 466.493,133.872C458.493,133.443 450.557,133.75 442.549,133.698C424.92,133.429 406.348,134.188 388.809,133.598C391.335,140.94 396.117,148.588 403.337,152.085C412.873,156.703 452.159,155.078 464.971,155.104C465.59,157.211 466.315,159.997 467.013,162.016L419.889,162.073C423.751,170.059 429.006,178.629 437.876,181.646C446.199,184.477 477.838,183.009 488.676,182.956C487.481,180.617 485.778,176.692 488.584,174.999C493.763,175.523 501.712,185.213 509.517,189.024C511.539,188.043 513.607,187.106 515.522,185.94C520.198,182.838 527.504,175.198 531.179,174.992C534.366,177.042 532.363,180.828 531.152,183.448C539.639,183.231 548.129,183.15 556.618,183.203C562.952,183.204 574.225,183.735 580.018,182.035C584.793,180.634 589.082,177.944 592.494,174.322C595.947,170.657 598.307,166.514 600.609,162.071L553.02,162.092C553.612,159.787 554.204,157.265 554.92,155.014C574.024,155.024 596.813,155.933 615.772,152.813C622.89,151.642 630.012,140.362 632.602,133.681L582.006,133.971C576.824,133.961 570.319,134.123 565.241,133.923C545.675,133.154 542.354,135.272 534.706,153.097C534.492,149.49 534.452,148.007 532.625,144.728C525.957,132.763 516.896,130.348 504.416,131.077ZM576.807,369.173C562.762,371.054 549.508,377.404 552.412,394.203C552.607,395.332 552.825,396.458 553.059,397.58L556.896,392.021C566.351,381.157 573.497,377.027 585.563,369.858C582.32,369.266 580.154,368.803 576.807,369.173ZM559.592,839.784C550.558,849.259 541.445,859.01 532.302,868.353C543.296,898.021 549.073,922.317 555.863,953.058L562.422,944.643C576.566,926.227 585.058,911.629 597.72,892.661C589.566,875.868 578.016,857.619 564.882,844.295C563.717,843.113 561.039,840.369 559.592,839.784ZM724.791,409.022C717.563,411.609 709.317,418.781 705.943,425.662C703.587,430.468 703.467,441.002 702.87,446.909C707.606,440.072 714.59,430.996 721.133,425.978C722.564,434.947 721.246,438.025 716.017,445.483C715.613,460.237 714.013,481.388 703.123,493.397C702.009,494.626 696.812,496.859 696.066,497.622C695.503,506.465 694.964,518.971 693.542,527.467C722.456,513.446 733.641,446.51 729.764,416.092C729.307,412.51 728.533,409.883 724.791,409.022ZM492.606,224.782C430.064,227.33 355.824,241.896 312.103,290.367C309.167,293.622 305.158,298.061 302.796,301.616C303.339,309.432 304.776,318.06 305.161,325.516C354.81,273.464 424.957,260.076 494.372,257.047C504.2,256.618 516.341,256.688 526.126,257.217C594.479,261.19 664.918,273.481 713.339,326.289L716.112,301.694C679.978,254.664 621.969,235.461 565.219,228.01C544.846,225.335 513.241,223.269 492.606,224.782ZM660.35,684.931C653.061,696.791 644.697,704.734 634.592,713.977C602.815,743.044 570.18,761.915 531.711,780.497C545.481,793.776 563.524,817.467 575.893,833.076C587.604,848.145 596.96,860.186 605.939,877.061C630.417,824.672 655.623,772.836 660.489,714.163C660.882,709.428 661.94,687.64 660.35,684.931ZM673.521,369.051C684.166,379.199 680.976,406.319 681.058,420.237C681.158,437.342 679.047,452.027 668.989,466.27C672.007,464.669 673.76,463.748 676.224,461.185C689.54,445.173 690.215,429.429 691.269,409.588C691.662,402.181 692.688,393.5 691.807,386.178C690.139,372.31 686.826,368.579 673.521,369.051ZM455.003,836.915C436.794,855.418 428.811,868.525 417.136,891.267C429.497,912.349 437.394,923.892 452.602,942.564C454.545,945.019 456.549,947.632 458.563,950.007C464.007,922.599 470.963,892.342 481.416,866.3C473.589,858.182 462.243,843.584 455.003,836.915ZM485.818,368.794C487.162,371.202 488.843,374.018 489.958,376.495C496.272,376.655 527.227,377.791 530.857,375.864L531.535,374.75L534.839,369.033C518.657,369.039 501.951,369.224 485.818,368.794ZM338.176,369.065C334.666,370.252 331.926,371.813 330.155,375.203C325.353,384.396 328.812,430.512 332.475,440.951C335.7,450.139 340.597,459.433 348.721,465.134L350.152,465.334C350.107,463.799 347.835,461.522 347.029,459.758C336.203,436.062 336.6,403.521 340.381,378.057C340.879,374.704 343.497,371.414 345.487,369.077C343.12,369.055 340.52,368.971 338.176,369.065Z" style="fill:rgb(8,33,64);"  data-color="color-1"/>
        <path d="M504.416,131.077C516.896,130.348 525.957,132.763 532.625,144.728C534.452,148.007 534.492,149.49 534.706,153.097C542.354,135.272 545.675,133.154 565.241,133.923C570.319,134.123 576.824,133.961 582.006,133.971L632.602,133.681C630.012,140.362 622.89,151.642 615.772,152.813C596.813,155.933 574.024,155.024 554.92,155.014C554.204,157.265 553.612,159.787 553.02,162.092L600.609,162.071C598.307,166.514 595.947,170.657 592.494,174.322C589.082,177.944 584.793,180.634 580.018,182.035C574.225,183.735 562.952,183.204 556.618,183.203C548.129,183.15 539.639,183.231 531.152,183.448C532.363,180.828 534.366,177.042 531.179,174.992C527.504,175.198 520.198,182.838 515.522,185.94C513.607,187.106 511.539,188.043 509.517,189.024C501.712,185.213 493.763,175.523 488.584,174.999C485.778,176.692 487.481,180.617 488.676,182.956C477.838,183.009 446.199,184.477 437.876,181.646C429.006,178.629 423.751,170.059 419.889,162.073L467.013,162.016C466.315,159.997 465.59,157.211 464.971,155.104C452.159,155.078 412.873,156.703 403.337,152.085C396.117,148.588 391.335,140.94 388.809,133.598C406.348,134.188 424.92,133.429 442.549,133.698C450.557,133.75 458.493,133.443 466.493,133.872C479.41,134.565 481.994,144.042 486.282,154.146C486.735,141.752 492.589,134.912 504.416,131.077Z" style="fill:rgb(213,165,0);"  data-color="color-2"/>
        <path d="M360.488,483.608C387.163,489.765 422.332,485.689 446,471.224C464.141,460.137 477.479,440.353 484.808,420.733C487.733,412.903 489.858,404.189 493.084,396.456C504.296,396.721 514.629,397.016 525.917,396.991L526.288,397.856C529.628,405.754 531.721,414.286 534.859,422.036C544.526,445.907 561.137,467.761 585.755,477.487C616.03,489.448 642.246,488.226 672.964,480.698C669.425,502.001 665.706,523.274 661.808,544.514C659.07,559.026 656.631,574.692 651.168,588.506C637.307,623.556 608.873,650.112 579.561,672.528C555.463,690.957 527.887,688.572 499.142,689.045C486.245,689.257 462.919,687.372 451.759,680.354C450.527,676.922 435.484,661.46 432.097,657.66C416.457,640.113 401.616,623.695 390.053,603.012C380.28,585.53 377.949,571.277 374.01,552.468C369.62,531.501 367.294,503.561 360.488,483.608ZM462.828,489.377C458.717,493.641 454.326,499.582 454.413,505.691C454.601,518.824 470.362,520.062 479.973,520.04C487.818,524.99 495.18,530.941 504.091,533.887C518.018,538.491 529.401,526.894 540.041,520.096C548.162,519.943 559.185,519.509 564.208,512.125C567.357,501.849 562.58,496.208 556.272,488.846C556.373,493.599 557.074,500.914 553.756,504.641C552.542,506.005 550.837,506.823 549.013,506.927C544.617,507.178 539.493,500.169 536.232,500.204C525.78,500.316 520.424,505.24 508.651,504.967C499.431,504.753 490.373,499.541 483.254,500.312C479.315,500.739 471.822,511.322 465.812,504.611C462.028,500.386 463.792,493.589 462.828,489.377ZM471.096,597.149C471.271,600.005 473.782,602.811 475.84,604.615C486.211,613.705 501.409,616.277 514.753,615.331C525.856,614.544 534.838,612.017 543.69,605.392C547.112,602.409 548.334,601.048 550.847,597.012C522.819,601.205 499.332,602.058 471.096,597.149ZM484.649,559.193C476.084,560.047 461.013,565.151 452.092,567.732C450.147,566.22 450.466,565.94 448.504,565.885C443.562,568.078 437.676,573.849 437.948,579.655C440.922,584.854 449.082,578.631 453.569,577.612C470.875,573.682 488.719,576.263 506.259,576.368C517.493,576.567 528.521,575.667 539.761,575.428C551.529,574.915 563.809,574.964 574.633,579.848C577.676,581.221 580.531,582.977 582.908,581.364C586.659,575.115 577.46,568.843 573.001,565.719C568.347,568.171 565.591,567.014 560.468,565.398C548.804,561.719 538.877,557.696 526.313,559.898C520.231,560.964 513.068,562.39 506.897,562.122C499.802,561.814 491.74,558.667 484.649,559.193ZM361.377,632.878C363.744,635.23 367.884,640.56 370.217,643.38C374.842,648.971 379.583,654.464 384.454,659.843C398.116,674.884 416.712,692.782 431.74,706.503C446.851,720.339 462.358,733.736 478.243,746.676C482.668,750.253 499.709,762.741 502.645,766.032C460.227,759.809 388.418,708.285 362.027,675.587C362.002,661.562 361.149,646.543 361.377,632.878ZM724.791,409.022C728.533,409.883 729.307,412.51 729.764,416.092C733.641,446.51 722.456,513.446 693.542,527.467C694.964,518.971 695.503,506.465 696.066,497.622C696.812,496.859 702.009,494.626 703.123,493.397C714.013,481.388 715.613,460.237 716.017,445.483C721.246,438.025 722.564,434.947 721.133,425.978C714.59,430.996 707.606,440.072 702.87,446.909C703.467,441.002 703.587,430.468 705.943,425.662C709.317,418.781 717.563,411.609 724.791,409.022ZM291.777,409.388C297.93,409.638 300.149,412.336 304.744,416.059C316.208,425.346 314.761,432.613 315.517,446.653C312.566,442.696 302.509,428.261 298.037,428.062L297.229,429.115C296.036,435.768 299.39,440.779 302.959,445.947C302.806,463.813 305.013,488.189 322.571,497.535C323.175,508.738 323.396,516.558 325.514,527.639C306.356,518.687 295.952,484.855 291.921,465.599C289.229,452.74 285.006,419.673 291.777,409.388ZM485.818,368.794C501.951,369.224 518.657,369.039 534.839,369.033L531.535,374.75L530.857,375.864C527.227,377.791 496.272,376.655 489.958,376.495C488.843,374.018 487.162,371.202 485.818,368.794Z" style="fill:rgb(237,188,119);"  data-color="color-4"/>
        <path d="M494.915,41.715C501.209,41.2 511.293,41.37 517.618,41.506C609.386,43.474 692.86,82.219 755.399,149.114C781.765,177.316 819.358,225.057 817.918,265.837C817.499,277.691 815.362,285.075 810.979,295.854C799.155,324.933 773.659,336.507 752.328,356.721C751.824,361.88 751.238,367.03 750.572,372.171C755.779,377.886 760.765,384.225 764.012,391.333C778.367,422.758 768.739,470.095 757.506,501.308C747.217,529.902 733.49,554.887 705.207,568.287C703.433,576.806 701.235,587.862 700.417,596.442C700.069,600.093 700.603,609.255 700.739,613.369C700.98,620.813 701.077,628.26 701.031,635.708C714.806,651.793 726.111,663.844 739.29,681.355C743.863,687.45 748.304,693.641 752.612,699.925C754.064,702.074 761.581,713.765 762.926,714.622C775.921,722.9 796.026,731.948 809.863,738.776C821.2,744.401 832.487,750.129 843.72,755.96C867.233,768.243 890.439,781.105 913.317,794.534C898.733,805.066 883.498,815.367 868.607,825.48C762.234,897.718 648.833,963.954 524.364,999.16C521.45,1000.02 518.387,1001.11 515.402,1001.65C507.316,1003.13 478.232,992.781 469.341,989.849C389.252,963.438 308.431,922.854 236.413,879.138C192.42,852.433 149.894,823.575 107.276,794.756C130.87,781.28 154.736,768.285 178.859,755.779C194.219,747.901 209.67,740.202 225.209,732.683C234.395,728.222 248.41,722.291 256.971,716.713C258.371,715.801 263.819,707.274 265.327,705.059C269.374,699.076 273.546,693.179 277.841,687.372C289.715,671.531 305.431,653.018 318.593,638.322C318.84,625.229 319.491,609.348 319.251,596.548C319.167,592.113 315.672,574.126 314.844,568.565C269.771,547.288 251.647,483.902 248.106,437.498C246.176,412.2 251.03,391.522 268.374,372.482C267.808,366.881 267.217,361.365 266.891,355.741C255.378,346.146 242.569,337.171 231.221,327.254C214.391,312.544 202.916,289.741 201.583,267.466C199.246,228.444 234.579,180.607 259.945,152.97C323.286,83.956 401.799,46.543 494.915,41.715ZM498.525,62.715C480.602,63.54 462.938,65.223 445.44,68.69C380.63,81.53 318.523,119.441 274.48,168.24C253.277,191.732 219.728,234.471 222.077,267.591C223.411,286.395 232.391,300.789 246.277,313.184C258.613,324.195 273.446,333.79 285.743,344.252L289.412,381.882C278.9,388.611 271.686,398.592 269.432,411.288C263.239,446.176 276.418,494.005 294.545,524.081C303.01,538.127 316.977,549.238 332.556,552.914C334.479,564.52 338.856,586.367 339.351,597.216C340.045,612.435 337.467,630.328 339.051,646.174C321.677,664.751 305.405,684.33 290.346,704.827C286.535,710.014 282.857,715.3 279.321,720.678C268.827,736.639 270.305,734.66 252.783,742.287C216.175,758.221 181.406,778.164 145.769,795.971C256.202,871.453 381.757,945.574 511.819,981.108C514.915,980.317 518.002,979.489 521.078,978.624C545.17,971.685 568.949,963.7 592.345,954.69C662.361,927.569 731.712,889.788 794.991,849.651C820.627,833.391 850.967,814.122 875.544,796.178C848.486,781.115 821.021,766.797 793.179,753.239C779.547,746.495 761.815,738.464 748.821,731.414C736.927,711.989 723.614,693.47 708.989,676.01C699.779,664.953 690.582,655.1 681.168,644.39C681.112,634.926 680.984,625.462 680.783,616C680.646,611.517 679.891,598.778 680.296,595.207C681.867,581.365 685.142,566.343 687.393,552.461C704.307,548.391 716.197,539.269 725.068,524.006C743.73,491.898 771.27,405.231 729.524,382.084C730.503,371.932 731.821,354.349 733.684,344.92C759.444,322.803 794.271,305.534 797.366,268.62C799.963,237.637 771.668,199.199 752.093,176.653C696.142,112.212 620.154,69.289 534.254,63.411C523.896,62.703 508.883,61.962 498.525,62.715ZM559.592,839.784C561.039,840.369 563.717,843.113 564.882,844.295C578.016,857.619 589.566,875.868 597.72,892.661C585.058,911.629 576.566,926.227 562.422,944.643L555.863,953.058C549.073,922.317 543.296,898.021 532.302,868.353C541.445,859.01 550.558,849.259 559.592,839.784ZM492.606,224.782C513.241,223.269 544.846,225.335 565.219,228.01C621.969,235.461 679.978,254.664 716.112,301.694L713.339,326.289C664.918,273.481 594.479,261.19 526.126,257.217C516.341,256.688 504.2,256.618 494.372,257.047C424.957,260.076 354.81,273.464 305.161,325.516C304.776,318.06 303.339,309.432 302.796,301.616C305.158,298.061 309.167,293.622 312.103,290.367C355.824,241.896 430.064,227.33 492.606,224.782ZM673.521,369.051C686.826,368.579 690.139,372.31 691.807,386.178C692.688,393.5 691.662,402.181 691.269,409.588C690.215,429.429 689.54,445.173 676.224,461.185C673.76,463.748 672.007,464.669 668.989,466.27C679.047,452.027 681.158,437.342 681.058,420.237C680.976,406.319 684.166,379.199 673.521,369.051ZM455.003,836.915C462.243,843.584 473.589,858.182 481.416,866.3C470.963,892.342 464.007,922.599 458.563,950.007C456.549,947.632 454.545,945.019 452.602,942.564C437.394,923.892 429.497,912.349 417.136,891.267C428.811,868.525 436.794,855.418 455.003,836.915ZM338.176,369.065C340.52,368.971 343.12,369.055 345.487,369.077C343.497,371.414 340.879,374.704 340.381,378.057C336.6,403.521 336.203,436.062 347.029,459.758C347.835,461.522 350.107,463.799 350.152,465.334L348.721,465.134C340.597,459.433 335.7,450.139 332.475,440.951C328.812,430.512 325.353,384.396 330.155,375.203C331.926,371.813 334.666,370.252 338.176,369.065ZM451.759,680.354C448.326,678.65 442.874,675.435 439.636,673.124C409.323,651.489 375.237,623.834 362.76,587.518C357.153,571.198 354.675,554.002 351.553,537.248C347.543,516.297 343.403,495.37 339.133,474.47C347.3,478.543 351.77,480.837 360.488,483.608C367.294,503.561 369.62,531.501 374.01,552.468C377.949,571.277 380.28,585.53 390.053,603.012C401.616,623.695 416.457,640.113 432.097,657.66C435.484,661.46 450.527,676.922 451.759,680.354ZM349.043,683.242C349.786,683.602 356.306,692.878 357.633,694.412C379.072,719.203 406.016,738.649 434.008,755.443C449.228,764.574 465.303,773.503 482.202,779.53C466.381,795.591 451.775,814.471 437.756,832.229C425.986,846.995 417.185,859.631 408.523,876.225C378.445,818.467 353.415,758.256 349.66,692.635C349.481,689.507 349.242,686.37 349.043,683.242ZM493.806,312.718C503.483,312.03 517.584,312.461 527.466,312.754C557.82,313.552 588.051,316.926 617.833,322.842C638.195,326.878 658.406,332.686 678.747,336.914C683.787,337.962 688.799,339.033 693.796,340.271C665.272,347.247 625.787,339.093 596.552,336.537C572.623,334.445 548.795,332.23 524.699,331.983C494.464,331.948 470.404,332.525 440.134,334.808C403.773,337.55 359.162,347.229 323.917,340.569C333.847,337.36 345.901,336.097 356.113,333.237C402.063,320.369 446.142,314.623 493.806,312.718ZM576.807,369.173C580.154,368.803 582.32,369.266 585.563,369.858C573.497,377.027 566.351,381.157 556.896,392.021L553.059,397.58C552.825,396.458 552.607,395.332 552.412,394.203C549.508,377.404 562.762,371.054 576.807,369.173ZM660.35,684.931C661.94,687.64 660.882,709.428 660.489,714.163C655.623,772.836 630.417,824.672 605.939,877.061C596.96,860.186 587.604,848.145 575.893,833.076C563.524,817.467 545.481,793.776 531.711,780.497C570.18,761.915 602.815,743.044 634.592,713.977C644.697,704.734 653.061,696.791 660.35,684.931Z" style="fill:rgb(254,254,254);"  data-color="color-3"/>
    </g>
</svg>
