<?xml version="1.0" encoding="UTF-8" standalone="no"?>
<!DOCTYPE svg PUBLIC "-//W3C//DTD SVG 1.1//EN" "http://www.w3.org/Graphics/SVG/1.1/DTD/svg11.dtd">
<svg width="100%" height="100%" viewBox="0 0 729 878" version="1.1" xmlns="http://www.w3.org/2000/svg" xmlns:xlink="http://www.w3.org/1999/xlink" xml:space="preserve" xmlns:serif="http://www.serif.com/" style="fill-rule:evenodd;clip-rule:evenodd;stroke-linejoin:round;stroke-miterlimit:2;">
    <g transform="matrix(1,0,0,1,-120.682,-70.542)">
        <path d="M275.865,698.704C268.653,695.591 261.297,691.951 253.429,687.595L213.282,665.367L253.729,643.689C287.589,625.542 315.567,594.897 311.799,554.938C311.273,549.355 310.658,543.499 310.074,537.566C282.036,549.028 257.666,568.376 240.092,593.546L214.069,630.819L196.53,588.88C178.181,545.004 169.816,498.203 168.177,450.732L168.174,450.607C165.78,353.2 202.09,258.817 269.129,188.155C339.608,112.933 428.205,74.006 530.727,70.737L530.747,70.737C536.024,70.526 541.307,70.486 546.599,70.618L546.612,70.619C651.527,73.353 747.107,118.519 824.587,191.82L849.064,214.977L819.805,231.689C769.095,260.655 731.189,294.153 696.403,339.114C698.195,340.774 699.982,342.443 701.793,344.154C712.364,339.45 722.716,333.89 732.728,328.521L758.872,314.5L768.259,342.643C773.309,357.787 778.365,371.778 782.302,387.364C792.181,426.482 799.269,467.302 805.958,507.09L810.237,532.544L784.66,536.009C781.382,536.453 778.082,536.858 774.771,537.244C782.598,567.065 791.224,596.672 800.641,626.034L804.949,639.469L795.676,650.101C789.614,657.051 783.474,663.932 777.256,670.74L766.75,682.243L758.563,679.855L759.02,682.189L751.874,688.541C752.023,689.264 752.167,689.983 752.307,690.695L754.236,700.512L748.859,708.95C747.212,711.533 745.478,714.112 743.709,716.678C749.269,731.585 756.62,748.758 761.718,762.382L767.33,777.381L730.941,814.06L720.048,813.701C705.107,813.21 692.342,812.481 679.934,810.988L686.403,825.651L647.471,825.118C641.502,825.036 635.943,824.78 630.601,824.353C632.569,826.11 634.499,827.911 636.381,829.764C654.31,847.416 671.022,864.653 690.153,881.06L718.203,905.114L685.441,922.203C675.119,927.587 661.461,932.665 650.418,936.295C602.608,952.01 564.395,951.801 516.593,937.962L516.582,937.959C468.434,923.973 405.962,884.812 360.046,860.513L359.955,860.463C335.116,847.053 309.709,834.726 283.802,823.518C248.664,808.585 215.466,797.538 179.087,786.769L120.682,769.48L174.392,740.752C183.107,736.091 190.811,731.133 200.087,726.485C225.684,713.658 249.914,704.556 275.865,698.704Z" style="fill:rgb(250,241,223);"/>
        <path d="M531.644,95.721C536.414,95.528 541.189,95.491 545.961,95.61C644.689,98.183 734.495,141.002 807.406,209.981C746.924,244.528 703.613,285.119 662.883,342.357C675.086,353.457 684.052,361.493 696.029,373.357C712.686,367.535 729.016,358.88 744.543,350.553C749.393,365.095 754.283,378.519 758.063,393.486C767.779,431.956 774.726,472.105 781.304,511.235C768.836,512.924 756.054,514.048 743.506,515.662C753.232,555.376 764.348,594.735 776.835,633.669C770.899,640.475 764.886,647.213 758.796,653.881C748.248,650.804 736.545,647.938 725.853,645.121C727.956,654.379 729.92,663.669 731.744,672.987L723.178,680.603C726.134,684.712 726.79,690.495 727.776,695.514C724.058,701.348 719.859,707.149 715.862,712.824C721.415,729.979 731.699,753.493 738.303,771.143L720.87,788.715C689.139,787.671 667.951,785.566 637.17,776.371C640.763,784.267 644.311,792.183 647.813,800.12C625.901,799.82 610.035,796.866 588.846,791.641C584.992,799.127 581.266,806.956 577.551,814.533C591.325,825.378 606.254,835.185 618.841,847.578C637.185,865.639 654.305,883.251 673.879,900.037C664.671,904.84 652.462,909.307 642.611,912.545C600.075,926.527 566.076,926.261 523.556,913.951C476.808,900.372 416.323,862.01 371.832,838.465C346.334,824.698 320.251,812.045 293.655,800.541C257.587,785.209 223.522,773.85 186.183,762.797C194.701,758.241 202.221,753.379 211.287,748.836C246.368,731.256 278.656,721.194 317.489,717.324C323.468,711.347 331.828,697.841 336.147,690.263C309.063,685.084 290.023,679.28 265.539,665.724C308.205,642.857 341.436,602.943 336.689,552.591C335.244,537.264 333.05,519.793 332.892,504.582C286.976,514.077 246.436,540.789 219.594,579.234C202.416,538.158 194.697,494.319 193.166,449.993C190.934,359.174 224.799,271.175 287.34,205.283C353.145,135.032 435.902,98.745 531.644,95.721ZM538.777,473.668C605.986,453.3 670.731,430.739 734.205,400.548C732.983,394.9 731.534,388.786 729.709,383.296C666.142,412.924 601.405,439.975 535.656,464.381C536.391,466.508 538.343,471.722 538.777,473.668ZM512.949,547.94C525.765,585.962 542.967,616.623 578.114,639.061C573.103,667.533 578.119,721.012 586.698,748.58C555.071,739.159 525.537,723.781 499.683,703.273C495.434,699.934 488.518,695.794 487.233,690.388C477.15,647.968 475.483,603.085 474.614,559.589C470.481,559.48 466.164,559.141 462.023,558.879C461.161,603.109 463.107,661.301 476.769,703.757C509.486,734.343 563.578,758.095 606.044,770.501C593.621,725.242 583.852,675.428 592.911,628.477C564.988,614.457 544.637,592.472 532.92,563.266C529.692,555.219 527.671,547.182 525.591,538.797C520.871,543.019 518.459,544.832 512.949,547.94ZM471.277,449.652C460.691,451.341 451.503,455.858 445.374,464.694C430.415,486.26 432.739,514.337 454.892,529.919C463.12,535.707 472.594,536.736 482.119,535.368C490.296,533.888 496.041,532.152 502.292,526.326C529.699,500.783 518.103,453.604 479.062,449.591C476.87,449.366 473.464,449.339 471.277,449.652ZM475.807,467.589C489.814,465.042 503.24,474.315 505.819,488.317C508.397,502.319 499.154,515.766 485.158,518.375C471.117,520.993 457.619,511.714 455.033,497.668C452.446,483.622 461.755,470.144 475.807,467.589ZM519.927,277.222C463.996,281.714 418.425,301.388 381.351,344.891C358.258,372.038 343.036,404.989 337.334,440.17C336.498,445.188 334.872,455.755 335.136,460.579C345.027,420.063 361.892,386.065 390.658,355.354C413.415,330.464 448.448,309.106 481.141,300.913C533.656,287.753 592.509,297.445 639.311,323.733C642.506,318.425 645.971,313.669 649.047,308.644C613.544,286.065 561.658,274.643 519.927,277.222ZM595.774,530.206C583.023,531.043 564.224,531.458 552.244,533.001C562.016,574.735 579.387,601.962 622.293,613.381C619.333,622.587 617.193,630.763 615.81,640.453C611.606,669.909 614.563,713.427 625.342,741.472C650.641,753.52 677.199,757.873 704.797,760.412L686.106,710.598C689.485,706.25 701.637,692.619 700.849,687.799C700.594,686.238 699.526,685.123 698.173,684.416C688.72,679.477 654.65,692.286 652.264,690.655L652.426,689.77C659.231,675.68 659.595,673.755 675.594,668.383C684.205,665.492 693.576,662.699 702.431,660.395C701.392,652.977 700.488,645.539 699.721,638.087C697.439,637.326 693.221,635.837 690.944,635.65C680.346,634.781 664.955,641.162 654.994,645.364C664.584,633.141 675.603,618.418 685.575,606.741C705.052,612.031 727.344,617.89 746.518,623.909C740.077,597.18 728.925,560.367 719.99,534.237C706.338,543.58 688.687,556.465 674.982,564.971C645.37,559.986 627.105,548.791 604.85,529.913C602.169,529.982 598.351,529.966 595.774,530.206ZM429.4,685.89L388.074,711.716C381.589,715.791 372.676,721.762 366.112,725.329C408.36,739.475 428.231,754.413 461.769,781.666C471.478,789.352 487.552,801.234 495.975,809.343L496.52,809.173C492.379,802.806 485.173,794.575 480.25,787.522C465.955,767.259 453.709,745.626 443.691,722.942C440.643,716.008 437.89,708.948 435.438,701.781C434.48,699.025 430.83,686.904 429.4,685.89Z" style="fill:rgb(51,51,51);"/>
        <path d="M521.644,324.207C525.122,323.895 528.749,323.822 532.25,323.772C566.837,323.591 600.775,333.166 630.167,351.398C646.305,361.633 657.554,371.539 671.081,384.696C661.535,389.812 641.456,397.987 631.149,402.31C609.49,411.611 587.694,420.589 565.768,429.24C552.51,434.502 535.975,440.406 523.307,446.048C499.421,421.107 459.025,420.472 434.083,444.109C411.384,465.62 406.595,499.601 421.596,526.92C425.264,533.6 430.032,538.965 435.147,544.455C434.504,560.893 432.742,577.268 429.873,593.466C429.686,594.505 429.482,595.541 429.263,596.574C413.964,668.869 382.938,674.725 317.107,660.061C322.144,656.41 331.206,646.622 335.338,641.648C358.679,613.555 368.196,583.958 365.515,547.466C364.537,534.162 362.604,520.861 361.477,507.581C357.77,462.644 372.055,418.073 401.192,383.661C432.667,346.428 473.736,328.185 521.644,324.207ZM474.614,559.589C490.251,560.305 499.853,555.637 512.949,547.94C525.765,585.962 542.967,616.623 578.114,639.061C573.103,667.533 578.119,721.012 586.698,748.58C555.071,739.159 525.537,723.781 499.683,703.273C495.434,699.934 488.518,695.794 487.233,690.388C477.15,647.968 475.483,603.085 474.614,559.589ZM734.205,400.548C740.551,430.159 745.933,457.52 751.639,487.19C681.171,495.766 610.532,502.871 539.767,508.501C542.457,499.281 541.936,482.674 538.777,473.668C605.986,453.3 670.731,430.739 734.205,400.548ZM664.461,143.753C699.434,157.39 732.104,176.319 761.328,199.879C728.992,224.127 706.727,244.335 679.895,275.271C675.631,280.318 671.391,285.26 667.383,290.517C646.221,277.017 620.027,268.16 596.259,260.755C609.093,236.866 622.358,213.212 636.048,189.803C645.4,174.034 654.873,159.259 664.461,143.753ZM316.759,741.705C327.056,740.883 337.334,744.641 347.223,747.504C390.444,759.866 424.886,786.984 460.221,813.4C504.366,846.402 558.885,888.013 615.38,894.52C591.521,897.358 578.076,898.055 553.965,893.387C501.376,882.34 453.131,850.58 406.682,824.692C375.21,807.151 344.119,790.377 310.845,776.351C293.299,768.954 270.182,759.441 251.659,755.59C257.702,754.131 264.556,751.638 270.744,749.954C285.786,745.752 301.194,742.99 316.759,741.705ZM570.6,120.635C594.453,123.143 610.692,126.732 633.383,133.276L590.07,240.75C587.844,246.386 585.239,252.538 583.518,258.303C571.774,256 556.805,254.792 544.914,254.027C547.506,242.002 549.719,227.433 552.106,215.019L570.6,120.635ZM530.779,119.758L540.178,119.539C539.519,131.539 538.297,144.076 537.478,156.147L531.053,254.055C517.798,254.098 505.207,254.91 492.135,257.313L491.641,251.987C487.996,209.767 480.284,166.917 476.752,124.57C491.797,121.546 515.485,119.91 530.779,119.758ZM447.411,133.622C449.082,135.858 474.997,248.183 477.746,260.196C464.24,263.532 454.398,266.643 441.433,271.59C439.33,266.862 437.286,261.898 435.253,257.122C421.623,222.735 406.835,188.819 390.914,155.431C410.94,145.168 425.385,138.967 447.411,133.622ZM365.362,168.922C367.513,170.949 379.826,192.329 382.056,196.181C397.609,223.042 415.076,250.323 429.539,277.712C417.579,284.605 410.575,288.423 399.389,297.176C397.337,295.12 394.621,291.81 392.649,289.541C373.624,267.2 353.452,245.646 334.376,223.319C329.557,217.679 324.414,211.878 319.311,206.5C321.247,204.826 323.407,202.759 325.186,200.923C337.372,188.351 351.039,178.837 365.362,168.922ZM475.807,467.589C489.814,465.042 503.24,474.315 505.819,488.317C508.397,502.319 499.154,515.766 485.158,518.375C471.117,520.993 457.619,511.714 455.033,497.668C452.446,483.622 461.755,470.144 475.807,467.589ZM299.122,226.772C301.416,227.657 314.917,239.889 317.672,242.295C341.545,263.142 365.139,283.978 387.902,306.048C379.31,312.846 370.258,322.123 363.125,330.435L357.72,327.046C336.882,313.507 313.467,300.612 292.246,287.419C283.277,281.843 273.397,276.734 264.61,270.926C275.119,255.456 286.648,240.705 299.122,226.772ZM251.248,296.307C257.284,300.001 273.716,306.581 280.672,309.925C304.346,321.306 329.986,331.658 353.435,343.226C349.228,349.232 345.268,355.408 341.564,361.737C340.376,363.771 334.866,373.972 333.997,374.907L332.882,374.705C299.519,365.773 263.135,357.655 229.437,349.867C234.965,331.352 242.269,313.416 251.248,296.307ZM222.713,377.857C256.567,380.963 293.085,386.088 327.085,390.039C323.576,399.464 320.494,408.108 318.104,417.899C317.537,420.219 316.241,426.491 314.903,427.883C303.546,428.146 290.664,429.193 279.268,429.951L216.504,434.303C217.288,413.795 219.174,398.004 222.713,377.857ZM310.853,444.095L312.02,444.051C312.725,445.166 311.677,450.314 311.495,452.197C310.615,461.309 309.623,473.772 311.11,482.645C276.462,494.709 257.383,504.734 227.44,524.777C227.03,523.002 226.466,521.135 225.97,519.373C223.599,508.656 221.436,498.716 219.888,487.85C218.72,479.658 218.021,471.319 216.743,463.221C227.076,460.531 240.85,458.057 251.448,455.925L310.853,444.095Z" style="fill:rgb(149,35,28);"/>
    </g>
</svg>
