<?xml version="1.0" encoding="UTF-8" standalone="no"?>
<!DOCTYPE svg PUBLIC "-//W3C//DTD SVG 1.1//EN" "http://www.w3.org/Graphics/SVG/1.1/DTD/svg11.dtd">
<svg width="100%" height="100%" viewBox="0 0 745 900" version="1.1" xmlns="http://www.w3.org/2000/svg" xmlns:xlink="http://www.w3.org/1999/xlink" xml:space="preserve" xmlns:serif="http://www.serif.com/" style="fill-rule:evenodd;clip-rule:evenodd;stroke-linejoin:round;stroke-miterlimit:2;">
    <g transform="matrix(1,0,0,1,-272.528,-37.4112)">
        <path d="M775.926,47.578C803.327,45.407 830.236,58.185 852.389,72.865C825.98,94.512 810.756,116.101 792.412,144.559L807.046,147.735C800.732,163.335 794.62,178.914 787.684,194.25C789.384,196.445 791.661,198.602 793.633,200.599C805.308,190.801 810.023,186.211 823.162,177.554C830.75,188.092 839.928,196.964 833.836,210.233C838.427,226.397 843.019,242.676 847.654,258.818C851.44,272.003 863.176,278.655 850.151,292.637C852.253,302.998 852.801,308.428 849.434,318.329C856.242,331.979 865.471,347.778 867.346,362.968C868.908,375.622 861.856,377.039 852.129,377.883C851.519,380.678 848.235,390.447 848.206,391.659C847.921,403.734 851.596,405.775 843.576,416.304C847.032,422.569 849.55,427.676 848.696,434.992C845.17,465.207 820.436,461.494 798.014,459.496C823.954,476.494 843.152,494.662 853.734,524.819C857.512,506.282 859.377,495.091 878.399,487.801C890.64,456.454 897.708,445.91 928.919,458.506C932.486,459.945 941.106,457.869 946.271,461.072C954.382,466.101 958.915,473.52 968.7,475.422C975.98,476.824 978.86,485.517 983.722,488.974C991.322,493.985 999.479,494.819 1003.35,504.178C1013.11,527.747 1002.57,557.722 986.619,576.257C981.046,582.734 974.97,585.985 967.377,589.249C955.91,628.774 910.515,675.722 869.173,682.06C852.845,684.563 796.04,629.398 784.777,616.812C772.978,634.248 763.621,644.264 749.137,659.095C771.027,661.33 792.687,665.422 813.884,671.326L810.451,678.129C836.03,685.796 873.903,689.981 866.757,725.583C858.554,766.452 835.748,801.498 816.735,837.989C831.751,842.538 840.604,847.906 852.431,857.725C867.66,858.59 892.642,860.449 896.186,881.457C898.36,886.292 886.187,899.326 886.194,901.256C886.243,915.884 878.092,915.002 866.404,913.623C861.494,913.043 860.377,918.867 858.014,921.979C855.958,924.687 849.007,925.384 845.816,922.674C844.866,920.215 844.811,919.85 843.201,917.831C829.283,912.09 836.01,931.047 818.643,924.302C816.47,921.534 817.624,921.06 816.852,916.772C814.371,914.844 807.749,914.269 804.257,912.783C799.139,910.603 795.59,908.023 790.334,906.203C784.12,907.559 787.264,917.307 784.077,918.46C772.815,922.536 745.595,923.266 736.306,914.715C732.244,910.976 733.634,900.171 733.888,895.8C731.948,892.854 731,890.761 729.5,887.586C730.58,864.903 745.191,844.264 752.376,823.291C756.022,812.65 756.661,797.894 759.439,786.755C761.483,778.561 764.604,772.337 768.105,764.671C752.923,768.633 735.229,770.024 719.972,775.32C715.995,776.701 705.952,783.825 703.209,783.057C702.637,781.333 702.449,780.222 701.177,778.921C697.045,780.037 687.998,785.716 683.143,787.71C661.424,796.631 643.68,800.227 620.432,800.565L603.372,800.243C585.715,821.456 559.015,848.837 535.245,862.726C530.653,865.409 526.436,867.048 521.094,867.189C504.933,867.617 457.291,851.386 438.255,846.484C424.676,857.396 421.102,864.984 415.239,880.469C421.771,887.328 428.924,893.857 428.329,903.995C426.709,923.589 403.895,927.604 388.335,927.093C353.15,925.938 341.461,894.121 343.436,863.523C344.626,845.093 350.18,832.917 364.079,820.637C362.832,819.475 360.226,817.018 360.002,815.003C358.632,802.659 364.206,778.615 369.757,767.697C372.336,762.625 382.376,760.526 386.762,759.627C405.002,755.888 428.328,763.375 443.366,774.288C463.765,773.816 470.893,773.309 490.506,777.044L499.065,766.387C483.058,752.892 476.781,748.561 463.918,731.857C443.924,734.853 422.765,736.966 406.633,721.386C404.288,719.121 399.94,713.476 396.779,712.923C390.898,711.896 383.171,714.012 376.937,714.249C370.801,714.483 367.282,714.331 361.311,712.915C328.637,705.168 304.27,680.987 286.599,654.018C287.544,653.833 288.486,653.633 289.425,653.419C328.384,644.433 357.849,626.263 379.039,592.122C369.317,579.075 363.979,560.95 364.108,544.737C380.825,519.545 403.591,497.5 427.987,479.725C434.551,474.942 445.574,470.796 451.253,465.815C456.831,460.493 461.518,453.759 466.795,448.195C492.836,420.733 547.806,391.508 586.624,401.118C606.118,385.487 614.301,376.406 624.611,353.731C616.927,331.957 616.487,318.702 617.735,296.15C612.674,294.874 610.098,294.321 604.928,293.78C579.348,306.868 570.641,335.479 558.188,358.676C549.89,374.133 536.491,390.068 521.942,399.909C500.937,414.117 482.737,413.949 459.276,409.566C492.579,383.206 502.286,358.808 505.808,317.256C506.226,312.328 509.392,305.648 509.298,300.54C509.173,293.797 507.231,286.838 506.847,280.084C505.285,266.286 508.889,257.44 512.916,244.846C513.886,241.811 513.856,230.987 514.233,226.986C515.904,209.236 521.754,196.4 533.306,183.078C533.98,159.921 551.055,138.344 570.893,127.701C580.384,106.813 596.22,92.714 619.304,88.877C637.764,69.01 652.454,62.186 679.21,64.181C702.584,49.215 721.093,45.284 747.929,53.477C758.529,49.159 764.874,48.368 775.926,47.578ZM766.339,822.662C760.588,836.363 743.551,870.349 745.059,885.457C746.122,896.104 778.223,888.989 785.357,891.039C794.733,891.283 809.905,900.334 817.773,901.639C833.417,904.235 865.368,897.053 878.902,889.013C895.37,879.231 867.415,869.147 858.325,869.934C843.799,871.193 842.52,871.382 831.385,879.803L826.774,883.251L817.929,877.698C823.514,871.699 833.638,865.334 836.389,861.41C827.919,852.364 812.071,868.214 806.087,873.668L796.007,867.135C802.274,861.773 818.484,853.302 819.859,849.195C818.601,845.405 806.808,848.37 803.974,849.674C797.162,852.808 792.083,857.683 786.872,862.91C783.241,860.468 779.417,857.783 775.646,855.612C783.551,849.118 791.624,843.69 800.215,838.15L805.59,826.029C792.64,827.424 778.558,828.072 766.339,822.662ZM512.68,448.137C498.697,449.612 491.914,454.192 481.053,462.632C515.731,463.54 537.534,481.6 555.394,509.682L562.27,520.937C566.927,517.366 569.632,515.358 574.756,512.337C567.497,487.669 559.317,467.969 535.134,453.722C529.393,450.339 519.419,447.486 512.68,448.137ZM725.717,148.844C658.006,154.784 607.212,203.876 600.769,272.407C600.556,274.67 601.511,275.932 602.803,277.478C605.193,277.802 604.113,277.997 606.182,277.054C614.25,240.715 623.941,214.631 653.754,189.942C691.543,158.648 728.295,161.384 773.879,168.372C772.77,171.604 771.384,176.044 770.095,179.092C753.557,175.855 746.909,174.765 729.906,174.299C722.063,174.77 715.5,175.451 707.948,176.792C658.324,185.6 621.807,229.421 616.236,278.504C616.147,279.291 616.756,280.58 617.112,281.267L618.603,282.007C620.914,280.79 625.264,267.542 626.35,264.444C649.5,198.392 706.086,170.085 774.965,191.393C779.352,179.52 784.139,167.62 788.442,155.823C770.304,151.456 744.478,146.733 725.717,148.844ZM818.461,194.095C786.312,219.379 752.247,259.083 720.337,286.653L719.512,286.462C693.446,280.556 683.533,315.995 707.256,322.305C715.1,324.392 720.64,317.249 727.577,315.027C756.965,305.904 786.407,296.954 815.901,288.177C826.161,285.276 836.368,282.187 846.514,278.909C845.511,276.999 844.152,274.193 843.063,272.43C806.953,281.393 764.361,294.211 728.676,305.129C728.173,299.153 727.981,297.646 726.226,292.024C745.569,275.172 765.644,255.833 784.631,238.362C794.95,228.867 814.639,211.533 823.372,201.696C822.205,199.782 819.808,195.64 818.461,194.095ZM710.289,293.3C711.586,293.29 713.156,293.278 714.409,293.586C716.767,294.182 718.782,295.706 719.998,297.813C724.029,304.785 718.859,311.384 712.629,314.547C711.234,314.575 709.244,314.624 707.879,314.308C705.575,313.768 703.611,312.269 702.48,310.19C698.808,303.342 704.249,296.342 710.289,293.3ZM711.222,299.571C709.553,302.12 708.813,302.98 708.253,306.065C708.698,307.656 708.814,308.702 710.892,309.023C712.804,306.962 714.16,305.874 714.713,303.077C714.029,301.001 713.522,300.161 711.222,299.571ZM608.613,698.916C586.811,723.843 566.061,747.702 542.781,771.283C549.31,776.004 556.681,777.925 564.322,780.412C570.448,781.871 574.489,782.87 580.764,783.52C597.613,756.462 611.661,733.607 626.449,705.2C620.48,703.174 614.534,701.079 608.613,698.916ZM824.806,216.697L817.722,223.837C821.286,237.211 824.782,250.604 828.211,264.013C829.127,264.359 829.057,264.528 829.768,264.378L837.382,262.137C835.854,250.772 832.62,225.13 824.806,216.697ZM827.119,504.655C828.049,521.296 826.616,533.386 826.19,549.568C827.966,547.298 830.835,543.85 832.363,541.564L841.689,528.613C837.765,519.549 833.991,512.094 827.119,504.655ZM383.501,773.336C381.739,774.452 379.074,776.136 378.136,777.922C375.559,782.831 367.405,802.341 369.178,806.886C371.524,808.384 372.136,808.591 374.79,809.475C377.222,807.498 386.384,779.363 388.547,773.883C386.395,773.165 385.822,773.299 383.501,773.336ZM746.366,901.946C746.127,904.82 745.966,907.425 745.424,910.269C754.891,910.882 764.378,911.104 773.863,910.934L774.066,902.314C764.684,902.354 755.755,902.415 746.366,901.946ZM702.159,368C703.046,374.66 703.995,383.669 705.3,390.082L713.629,393.849C713.256,388.284 712.83,382.721 712.351,377.164C710.424,375.36 704.019,369.191 702.159,368ZM421.813,837.153C418.268,840.848 417.582,841.738 415.071,846.172C417.185,847.249 420.873,849.569 422.844,849.447L429.614,841.345C426.967,839.859 424.526,838.516 421.813,837.153ZM410.109,854.056C408.325,856.282 406.452,858.469 405.045,860.948L411.852,865.331L416.901,857.866C414.612,856.414 412.648,855.011 410.109,854.056ZM401.283,869.568L396.927,876.797C398.711,877.491 401.16,878.535 402.951,879.001L406.827,872.274L401.283,869.568ZM524.033,308.021C518.841,337.611 517.934,359.112 500.165,384.561C513.651,379.002 526.803,365.435 535.346,353.732C541.512,345.929 547.338,337.862 552.807,329.556C547.208,330.878 541.587,332.112 535.949,333.257C541.482,328.841 548.886,324.838 554.919,320.917L536.965,323.008C543.785,318.225 548.832,315.24 556.486,311.699C543.301,311.143 536.683,310.791 524.033,308.021ZM520.914,717.853C507.331,725.231 498.284,728.841 483.309,733.054C491.095,744.164 497.349,749.671 508.094,758.006L515.094,753.225C530.652,741.634 541.969,732.779 556.059,718.937C541.82,719.939 535.172,719.022 520.914,717.853ZM507.477,584.992L506.409,591.179C501.542,589.985 496.867,588.856 492.057,587.41C493.746,593.111 501.187,622.028 505.698,625.31C509.695,628.217 527.749,624.428 533.088,624.936C543.936,625.787 552.877,632.286 562.816,635.963C570.81,638.92 587.824,639.599 590.694,649.446C593.886,660.401 586.301,671.013 578.904,678.251C586.705,678.771 594.691,678.184 602.512,677.772C608.164,676.893 616.667,673.745 622.282,671.848C636.129,665.726 647.508,660.372 657.812,648.912C650.825,643.571 637.895,637.307 629.987,633.588C622.671,630.401 616.198,627.728 608.724,624.949C601.14,622.324 593.024,618.999 585.55,616.011C586.706,613.722 588.487,610.85 589.816,608.575C596.852,611.959 606.06,614.684 612.017,617.646L632.87,626.591C640.994,630.606 653.22,638.185 661.036,640.922C659.358,625.828 652.383,611.954 643.217,599.993C638.638,593.176 634.785,588.439 629.506,582.151C619.343,569.835 597.217,556.47 582.09,551.198C548.655,539.546 512.377,540.552 483.65,563.001C485.726,568.475 487.775,573.819 489.634,579.376C492.676,580.141 506.058,583.039 507.477,584.992ZM671.374,629.641C672.1,651.453 670.754,654.67 652.409,667.903C662.06,670.16 668.517,670.202 678.31,670.112C680.064,668.122 682.353,665.671 683.897,663.587C694.141,650.95 699.382,644.148 707.91,630.077C693.941,630.642 685.291,631.278 671.374,629.641ZM958.292,486.734C950.63,490.685 940.298,521.049 936.138,529.806C939.761,534.008 944.354,541.751 950.03,539.04C956.808,527.758 963.421,516.405 970.131,505.093C976.735,493.959 969.474,487.163 958.292,486.734ZM732.554,624.074C723.152,637.866 713.08,650.449 703.077,663.748C702.711,664.234 703.309,666.921 703.483,667.549L702.828,669.387C705.724,669.917 717.078,664.564 720.457,663.094C735.116,656.146 746.812,641.803 756.356,628.982C748.407,627.42 740.473,625.784 732.554,624.074ZM638.247,680.335C632.821,682.829 628.27,685.035 623.01,687.86C645.583,695.063 674.605,701.264 697.468,691.674C704.513,688.018 707.567,685.785 713.716,680.528C693.868,686.764 677.313,686.868 656.797,683.449C651.953,682.641 642.597,679.923 638.247,680.335ZM930.891,471.269C927.445,473.173 919.698,497.404 917.142,503.446C921.673,505.598 932.573,513.951 934.205,513.651C939.215,503.107 945.917,489.902 949.564,479.032C942.898,473.268 939.828,470.931 930.891,471.269ZM905.834,464.481C897.22,468.647 892.147,481.063 888.655,489.804C895.631,492.218 900.063,495.215 906.472,498.686L908.901,499.496C912.353,497.323 919.248,475.189 921.125,469.756C914.612,465.786 913.361,465.124 905.834,464.481ZM455.93,786.096C447.802,803.816 443.125,813.256 446.531,833.426C451.073,835.535 453.303,836.488 458.068,837.918L459.586,837.659C460.206,834.184 458.346,827.85 458.186,823.807C457.717,811.946 461.09,797.568 465.887,786.723L455.93,786.096ZM770.944,797.667L768.594,809.495C778.579,814.303 801.583,818.852 811.691,814.825C812.711,814.423 813.608,813.759 814.29,812.9L820.073,802.435C799.902,804.506 790.642,804.002 770.944,797.667ZM598.978,493.917C600.742,512.157 601.638,522.255 596.48,540.083C598.772,541.464 603.62,544.733 605.94,545.004L606.596,544.439C611.176,530.466 613.276,522.725 611.72,507.517C608.2,503.16 603.402,497.295 598.978,493.917ZM860.411,569.876C845.52,583.286 827.701,608.524 818.535,626.435C828.756,637.288 845.574,651.861 858.861,658.849C869.729,651.891 878.98,645.326 888.375,636.363C900.229,625.409 911.687,612.411 920.075,598.586C917.657,596.349 914.471,593.321 911.709,591.644C901.191,585.259 892.22,586.137 885.735,574.857C876.475,585.925 870.88,593.397 859.73,602.659C862.943,592.721 864.54,587.899 865.754,577.371C864.55,575.121 862.676,570.753 860.411,569.876ZM772.453,61.067C766.046,61.71 760.894,62.494 754.707,64.626C747.702,77.644 741.594,97.025 737.655,111.41C742.493,104.756 746.466,99.691 750.213,92.361C748.978,99.806 747.958,106.073 747.325,113.574L759.027,94.975L755.139,115.311C759.898,108.793 765.242,101.761 769.702,95.109C768.111,102.552 766.549,110.519 764.644,117.842C769.4,111.077 774.193,105.055 779.343,98.584L780.267,98.826C778.79,105.941 775.735,113.705 773.754,120.809C780.327,113.418 787.209,105.369 794.307,98.565L784.606,121.823C797.912,109.871 812.174,90.086 827.576,75.265C810.903,66.246 791.788,59.381 772.453,61.067ZM702.433,407.89C691.557,431.737 684.178,433.245 659.261,428.068C678.745,450.81 703.88,480.452 734.449,487.857C736.619,488.33 739.636,489.491 741.565,488.198C749.57,482.83 749.384,469.017 749.773,460.443C738.956,452.642 733.56,448.197 724.154,438.796C723.183,448.103 721.58,460.236 719.435,469.344C717.94,463.823 704.005,409.317 702.433,407.89ZM388.652,607.556C369.206,633.306 344.459,651.709 313.466,661.185C318.345,667.734 322.354,671.618 329.605,675.483C364.181,688.84 387.294,646.727 400.571,621.599C397.019,617.172 392.668,611.391 388.652,607.556ZM803.771,689.808C798.756,698.438 775.717,735.542 774.253,742.365C778.624,748.408 803.909,743.053 810.955,741.395C785.379,760.538 786.045,754.928 773.55,787.688C778.15,788.806 784.287,790.488 788.837,791.23C803.023,793.368 814.254,791.777 827.708,787.657C837.311,770.146 844.498,754.187 851.231,735.429C862.793,703.22 840.342,702.517 816.304,694.18C812.223,692.765 807.863,691.427 803.771,689.808ZM884.777,497.972C872.267,503.663 868.069,513.629 865.525,526.691C870.684,542.49 882.618,560.578 897.168,568.958C904.046,572.919 914.252,572.272 917.676,564.302C921.236,556.016 914.09,548.238 907.837,544.107C898.165,538.994 890.62,538.76 882.795,534.644L889.298,530.337L885.648,521.267C894.291,525.661 909.304,533.983 919.035,532.181C924.164,531.231 929.335,521.339 921.749,517.53C909.079,511.169 896.842,505.547 884.777,497.972ZM540.851,194.803C537.53,198.901 534.65,202.509 532.546,207.427C516.24,245.553 536.056,251.714 570.899,250.419C562.082,247.31 556.626,244.632 548.554,239.805C552.502,240.025 570.037,242.062 571.679,241.475C564.385,237.759 558.991,234.752 552.206,230.042C560.067,230.306 567.8,231.481 575.593,232.531C569.415,228.31 563.131,224.331 558.083,218.759C564.399,219.421 570.698,220.232 576.976,221.193C570.379,216.743 545.68,196.794 540.851,194.803ZM724.943,199.096C683.758,203.05 657.262,226.517 643.943,264.837C656.202,248.868 669.1,236.399 689.97,233.787C705.995,231.782 717.093,235.518 727.86,247.107C720.403,244.874 714.46,243.498 706.555,244.732C688.045,247.623 676.897,264.419 672.165,281.25C667.07,299.367 670.358,316.25 674.8,333.955C664.196,343.171 659.452,346.804 647.501,354.088C663.509,351.101 669.05,348.504 683.875,341.419C674.712,360.836 665.023,373.557 656.431,390.55L652.957,397.118C640.168,397.309 627.383,397.763 614.612,398.479C612.298,401.201 609.261,404.582 607.205,407.396C635.586,406.21 658.55,407.392 686.473,407.443C692.209,382.149 692.565,369.975 692.178,344.449C697.448,350.247 702.632,356.319 708.728,361.218C707.713,354.309 706.889,344.053 704.392,337.692C702.008,331.942 694.549,328.424 691.167,323.955C683.13,313.338 682.56,297.217 690.773,286.469C698.659,276.151 707.498,274.059 719.775,274.477C740.475,253.368 762.86,234.569 783.106,212.427C767.123,202.117 743.808,196.814 724.943,199.096ZM649.291,709.626C639.344,735.341 629.212,760.983 618.895,786.552C625.797,786.625 630.797,786.496 637.676,785.975C645.024,784.889 652.723,783.439 659.771,781.054C663.122,758.604 667.527,733.46 669.345,711.027C662.774,710.597 655.813,710.249 649.291,709.626ZM617.979,101.256C600.4,107.99 586.383,118.223 582.728,137.713C589.97,150.366 595.552,155.723 605.893,165.931C602.708,159.275 599.238,152.303 596.373,145.545C601.999,150.869 608.56,157.766 614.116,162.657C612.046,157.684 608.909,150.754 607.539,145.72L607.995,144.53C612.17,147.216 618.004,152.505 621.938,155.865C618.025,148.446 613.594,140.452 609.904,132.989C616.587,138.069 619.833,142.28 625.487,148.403C622.98,140.631 620.502,132.599 617.625,124.978C623.142,131.163 628.526,137.464 633.774,143.878C631.478,137.667 620.034,103.136 617.979,101.256ZM462.609,479.48C436.498,485.951 393.502,526.182 379.88,547.998C380.787,555.203 383.091,569.792 386.392,575.751C401.268,602.608 429.337,630.011 451.49,649.99C461.722,634.868 469.631,625.448 486.485,616.573C485.716,613.008 484.97,609.242 484.004,605.743C472.879,571.022 459.847,534.912 415.602,545.936C438.416,527.999 457.483,529.738 477.124,551.255C494.466,538.85 503.358,534.491 524.502,530.148C524.504,525.105 524.813,522.172 522.488,517.605C512.886,498.744 483.652,478.243 462.609,479.48ZM510.07,779.749C506.541,787.487 501.874,798.167 499.292,806.29C495.616,800.015 493.138,795.669 487.928,790.374L478.603,789.647C469.035,805.265 467.016,819.922 471.377,837.894C471.654,839.038 471.965,840.175 472.31,841.301C486.342,844.655 502.997,850.873 515.122,853.434C528.304,854.512 536.451,846.306 546.355,838.256C553.51,832.44 565.829,820.908 571.286,813.562C550.094,810.767 537.235,804.032 521.346,790.085C519.601,788.554 511.181,780.477 510.07,779.749ZM571.538,142.959C559.802,150.062 542.159,171.746 550.296,186.952C554.63,195.052 571.641,201.236 580.55,203.089C581.874,203.364 583.201,203.628 584.529,203.879C578.161,199.486 573.728,196.619 568.008,191.469C571.446,191.791 586.342,195.676 587.015,195.348L586.817,194.835C582.137,190.716 579.609,188.562 575.627,183.676C582.354,186.145 589.064,188.664 595.879,190.88C590.371,184.964 584.518,178.424 578.885,172.704C587.605,174.404 591.043,175.599 599.396,179.442C595.259,174.866 572.652,143.285 571.538,142.959ZM798.556,482.092C790.353,506.924 777.297,525.053 753.818,537.588C708.375,561.849 661.205,547.288 623.639,515.745C623.016,529.964 621.03,538.863 615.811,552.243C632.372,564.227 644.584,575.429 656.175,592.682C659.341,597.393 664.022,608.046 666.9,611.59C682.679,615.063 703.682,617.576 717.95,608.607C734.283,598.34 745.939,567.099 751.2,549.243C752.999,570.594 748.807,590.959 739.895,610.311C753.589,611.997 767.635,612.986 779.152,603.494C797.197,588.623 804.315,562.339 807.236,540.109C808.841,527.892 807.573,490.366 798.556,482.092ZM805.473,233.276C784.221,253.083 762.658,272.553 740.793,291.68L751.837,288.342C773.46,281.13 796.119,274.728 818.031,268.359C816.284,263.037 807.794,236.212 805.473,233.276ZM838.094,290.404C827.001,293.686 818.269,295.602 807.192,298.283C812.698,300.687 816.244,302.702 821.41,305.666C826.014,304.649 832.467,302.045 834.659,307.518C833.671,315.637 823.197,321.398 816.758,325.021C816.386,330.268 815.02,337.78 808.304,338.472C804.287,335.352 807.315,330.486 805.213,327.31C802.013,326.503 795.322,327.586 791.865,328.19C798.677,321.599 800.537,320.507 809.266,316.731C805.923,314.959 802.578,313.349 799.668,310.926C793.307,313.068 787.568,314.975 781.093,316.736C784.253,313.305 788.106,308.878 791.399,305.708C779.774,309.895 755.484,318.982 761.74,335.351C766.048,346.622 778.685,357.162 788.784,363.528C782.602,379.898 787.624,399.712 793.245,415.787C797.426,426.503 803.433,443.592 814.568,448.567C823.055,452.36 832.684,448.112 835.673,439.22C839.134,428.923 834.279,421.618 827.731,414.141C832.039,411.868 835.925,410.168 838.257,405.756C838.465,402.924 838.751,403.982 837.305,401.715C831.691,398.554 815.603,402.213 808.891,403.391C819.277,396.976 826.055,392.243 838.01,390.23C840.825,389.756 840.099,377.817 839.976,375.093C834.831,376.287 829.558,378.138 824.775,374.975C818.957,371.128 820.927,363.402 827.297,361.358L829.408,361.622C830.999,366.47 822.668,372.433 840.243,369.834C845.179,369.104 850.419,370.735 855.363,369.567C865.29,360.978 843.861,328.589 840.259,317.734C842.321,311.149 845.722,295.143 838.477,290.482L838.094,290.404ZM401.336,771.679C392.467,781.57 386.765,812.646 379.479,825.405C375.723,831.983 363.607,835.008 359.547,846.396C355.893,855.071 355.701,864.112 355.978,873.466C356.177,885.852 360.433,898.762 369.351,907.321C378.124,915.739 417.175,918.639 414.002,899.878C412.63,891.765 399.902,886.02 393.007,883.729C388.821,882.338 379.123,881.132 376.954,877.751C377.166,875.606 377.296,874.007 377.759,871.887L390.261,875.222C391.326,872.85 393.984,868.167 393.847,866.154L391.726,864.695C388.894,863.512 385.682,862.08 382.843,861.029C385.01,857.328 384.326,857.155 387.575,855.567C397.67,856.512 397.775,857.173 405.037,849.459C400.069,847.656 398.011,846.738 393.396,844.173C395.233,841.483 394.943,841.036 397.66,839.695C402.147,840.258 403.727,846.379 409.86,841.588C414.355,838.075 419.49,830.137 422.87,825.377C425.843,827.39 431.558,831.822 434.968,831.222C437.44,828.024 436.16,822.103 436.522,817.479C437.293,807.637 440.185,798.676 443.202,789.355C422.772,796.55 416.985,802.373 401.13,816.472C409.089,797.263 416.156,792.78 433.49,782.726C425.424,778.04 410.307,771.49 401.336,771.679ZM491.756,629.936C478.971,640.002 471.641,649.176 464.501,663.827C476.017,677.938 501.47,703.184 519.312,707.351L520.8,706.892L521.011,704.299C526.622,703.026 539.404,709.205 545.617,707.035C544.391,704.702 538.021,699.651 535.712,697.755C553.975,705.09 571.464,707.606 589.201,696.898L591.844,694.146L591.715,692.917C587.963,691.303 582.094,692.457 577.964,691.559C559.409,687.527 545.367,676.012 534.324,661.349C544.706,665.064 558.827,670.816 569.753,666.262C573.669,664.629 580.658,657.747 579.703,652.973C575.895,648.997 572.161,651.52 565.502,649.48C551.645,645.234 544.667,637.228 529.499,636.7C519.633,636.356 509.314,640.719 500.562,636.69C496.964,635.034 493.807,630.89 491.756,629.936ZM525.064,252.214C519.482,267.863 520.059,282.369 524.836,298.154C539.043,299.908 553.354,301.901 566.618,295.393C557.359,294.448 548.122,293.294 538.915,291.932C547.452,289.552 554.449,289.923 562.392,288.192L562.62,287.422C555.935,285.701 550.236,284.265 543.731,281.965C551.234,280.625 558.726,279.219 566.205,277.746C557.884,275.07 549.086,272.069 540.743,269.617C549.673,268.779 556.503,268.307 565.507,268.563C551.381,261.651 539.057,258.147 525.064,252.214ZM730.586,341.996C732.313,356.269 739.57,398.769 744.261,410.518C750.374,414.793 758.926,421.029 765.393,424.282C762.78,407.894 759.989,393.228 760.381,376.548C750.76,367.284 742.25,358.395 734.491,347.486C733.362,345.898 731.757,343.351 730.586,341.996ZM738.044,321.46C732.174,336.125 756.928,360.937 767.943,369.697C767.345,395.022 771.515,418.603 782.293,441.614C767.667,436.882 747.19,426.153 735.562,416.065C728.809,391.183 725.289,365.147 720.898,339.759C720.563,337.82 720.102,335.817 718.658,334.513C716.403,333.973 716.204,333.803 714.144,334.6C712.859,336.765 716.63,354.729 717.262,358.806C720.477,379.713 724.303,400.522 728.736,421.206C751.242,439.11 770.972,449.29 799.69,453.55C782.808,428.405 772.769,397.233 776.841,366.816C760.603,353.352 750.331,342.447 742.542,322.894C742.038,321.628 739.474,321.664 738.044,321.46ZM564.114,412.161C545.833,413.739 528.437,417.968 512.562,427.497C518.079,427.447 525.081,427.153 530.421,428.164C604.992,442.285 627.056,535.48 708.072,534.615C730.594,534.263 752.021,524.842 767.509,508.483C776.975,498.633 782.451,487.576 783.307,473.857L772.278,470.214C766.892,504.383 738.356,520.557 705.436,517.4C659.679,510.109 622.291,472.889 594.943,437.889C603.437,442.602 610.679,449.308 618.537,454.827C649.908,476.861 686.81,511.649 727.979,501.89C670.248,490.423 631.158,408.333 564.114,412.161ZM716.06,63.245C705.056,65.057 697.004,67.561 687.722,74.241C686.011,88.945 685.305,104.143 688.053,118.774C690.393,110.386 692.484,101.93 694.322,93.418C695.608,101.82 696.711,109.055 698.664,117.302C700.19,109.771 701.745,101.119 703.708,93.785C704.154,97.534 705.65,112.296 707.502,114.909C709.393,108.183 711.428,100.238 713.633,93.709C713.955,101.208 714.927,106.388 716.234,113.821C719.102,107.26 721.091,97.716 723.341,90.451L725.37,111.143C731.398,96.981 735.383,80.495 739.11,65.499C730.708,62.815 724.95,62.117 716.06,63.245ZM669.453,76.034C654.382,77.599 641.179,84.171 631.448,95.915C632.027,111.887 635.626,119.728 642.036,134.025L641.015,114.701C644.324,121.211 647.607,127.837 650.993,134.295C650.918,131.115 650.212,115.785 650.622,113.816L659.574,128.487C659.271,120.658 658.852,112.834 658.317,105.018C661.663,112.235 664.665,118.501 668.43,125.497C667.48,116.739 667.593,110.008 667.601,101.184L675.767,120.348C676.097,113.853 677.07,79.474 674.616,76.125C672.286,75.805 671.788,75.783 669.453,76.034ZM710.889,699.077C702.342,704.134 698.568,705.596 689.107,708.272C695.311,725.231 702.083,743.559 709.382,760.035L716.664,754.962C726.937,747.633 734.559,742.038 743.932,733.486C738.353,727.575 716.466,700.286 710.889,699.077ZM738.393,672.839C733.698,677.549 728.086,682.918 723.649,687.752C741.34,692.239 759.9,696.664 777.148,702.387C781.856,694.878 786.658,687.428 791.551,680.038C773.984,676.621 756.236,674.217 738.393,672.839ZM979.308,501.444C977.602,504.175 977.079,505.934 975.821,508.838C971.267,519.217 965.274,529.344 960.092,539.405C957.836,543.784 960.662,546.826 964.099,548.519C974.345,553.565 984.197,533.614 986.625,527.722C986.996,526.819 987.36,525.913 987.717,525.005C987.587,529.456 987.592,534.264 986.852,538.624C985.452,544.786 984.043,548.692 980.591,554.037C979.522,555.691 977.298,558.835 977.677,560.595C980.429,561.78 979.558,561.906 981.773,561.14C991.361,551.594 1001.51,517.669 990.523,506.413C987.975,503.802 982.86,502.782 979.308,501.444Z" style="fill:rgb(119,12,7);"/>
        <path d="M507.477,584.992C506.058,583.039 492.676,580.141 489.634,579.376C487.775,573.819 485.726,568.475 483.65,563.001C512.377,540.552 548.655,539.546 582.09,551.198C597.217,556.47 619.343,569.835 629.506,582.151C623.215,591.895 616.11,606.718 612.017,617.646C606.06,614.684 596.852,611.959 589.816,608.575C588.487,610.85 586.706,613.722 585.55,616.011C593.024,618.999 601.14,622.324 608.724,624.949C604.245,642.189 602.154,659.963 602.512,677.772C594.691,678.184 586.705,678.771 578.904,678.251C586.301,671.013 593.886,660.401 590.694,649.446C587.824,639.599 570.81,638.92 562.816,635.963C552.877,632.286 543.936,625.787 533.088,624.936C527.749,624.428 509.695,628.217 505.698,625.31C501.187,622.028 493.746,593.111 492.057,587.41C496.867,588.856 501.542,589.985 506.409,591.179L507.477,584.992ZM565.646,600.836C554.822,600.934 558.473,596.575 559.115,588.932C561.349,592.296 554.985,596.954 556.113,599.33C556.697,600.56 563.578,599.847 565.646,600.836ZM629.987,633.588C637.895,637.307 650.825,643.571 657.812,648.912C647.508,660.372 636.129,665.726 622.282,671.848C624.751,658.542 627.049,646.803 629.987,633.588ZM643.217,599.993C652.383,611.954 659.358,625.828 661.036,640.922C653.22,638.185 640.994,630.606 632.87,626.591C636.155,617.662 639.604,608.794 643.217,599.993Z" style="fill:rgb(202,55,33);"/>
        <path d="M589.816,608.575C588.487,610.85 586.706,613.722 585.55,616.011C583.476,620.134 582.131,623.498 576.954,623.161L575.836,621.691C575.459,618.944 576.793,616.925 578.003,614.303L570.12,610.549C568.938,614.717 568.799,618.138 564.74,620.144L563.628,619.614C562.301,616.334 565.152,611.947 564.82,608.725C564.714,607.691 558.539,605.907 558.539,605.907C555.222,607.072 556.58,611.869 552.806,614.416C550.066,614.374 551.058,614.742 548.855,613.28C548.324,610.476 550.124,606.693 551.138,603.632L542.318,600.49C541.589,604.165 541.288,609.866 536.696,609.963L535.402,608.269C534.481,605.406 535.697,601.85 536.401,598.818L528.178,596.59C527.582,600.431 527.352,606.552 522.103,605.778C518.99,602.335 520.752,599.09 521.806,594.834C507.413,591.249 516.104,595.408 509.955,600.626C507.669,599.977 508.21,599.933 506.318,597.853C505.433,595.368 505.971,593.807 506.409,591.179L507.477,584.992C508.27,581.835 509.634,577.045 513.77,576.986C515.857,578.972 515.608,581.028 515.707,584.26L515.722,584.863C518.741,585.792 519.791,586.156 523.046,586.429C525.765,583.186 524.304,582.324 527.373,580.213C529.854,580.795 528.994,580.263 530.758,582.05C530.585,585.875 530.247,586.178 532.332,588.705C534.824,589.67 536.205,590.014 538.764,590.64C539.74,587.812 540.325,585.198 542.665,583.331L544.568,582.73C548.14,585.138 546.227,588.975 544.927,592.419L553.449,595.565C554.811,592.261 555.017,591.349 557.754,589L559.115,588.932C561.349,592.296 557.866,595.098 558.995,597.474C559.579,598.704 563.578,599.847 565.646,600.836L567.152,600.49C568.559,597.921 569.206,595.952 571.779,594.821L574.115,594.92C576.186,597.34 574.49,600.532 573.532,603.365L580.965,607.231C583.133,603.675 586.079,598.462 591.009,601.242C591.947,604.409 591.534,605.279 589.816,608.575Z" style="fill:rgb(254,254,254);"/>
        <path d="M769.985,37.789C770.971,37.617 771.311,37.614 772.302,37.565C808.047,35.804 841.755,49.251 867.903,73.651C841.623,93.19 827.105,111.196 808.879,137.608C812.662,138.635 816.762,139.995 820.541,141.158L806.589,176.329L824.54,163.964C836.276,176.426 849.668,193.299 844.442,211.176C851.754,231.683 855.546,253.427 864.532,273.563C868.157,281.685 864.885,288.259 860.983,295.708C861.85,304.967 862.469,308.934 860.293,318.159C871.116,338.585 893.882,379.548 858.291,388.556C860.098,400.511 860.447,406.719 855.28,417.475C865.287,438.424 853.069,466.956 828.52,470.053C838.547,479.266 843.97,486.293 851.224,497.674C857.497,487.506 861.759,484.746 871.854,479.203C874.051,469.175 880.139,457.552 888.011,450.819C902.673,438.279 915.116,443.541 930.524,448.153C946.536,452.947 949.812,447.013 962.821,462.035C974.513,464.921 982.284,471.407 988.813,481.089C991.543,482.194 995.073,483.572 997.595,485.016C1026.82,501.747 1018.03,544.946 1003.79,569.122C996.272,581.88 988.32,590.137 975.193,596.519C962.272,640.918 913.94,681.856 869.701,693.136C894.718,726.793 846.756,801.172 830.967,832.419C841.365,836.787 848.155,843.465 856.95,846.991C866.294,849.761 874.828,849.208 884.011,853.239C901.502,860.916 911.172,878.439 901.734,896.343C900.824,898.23 897.906,900.631 897.214,902.537C894.934,909.279 895.238,913.498 890.052,918.624C882.541,926.05 877.675,922.428 869.098,924.647C866.995,925.191 863.287,931.954 858.546,933.382C851.019,935.649 847.434,932.862 840.163,931.418C835.897,931.238 823.734,938.281 817.295,934.384C811.85,931.089 810.27,930.503 808.203,924.45L794.901,920.545C790.644,928.101 782.051,930.681 773.65,930.752C760.014,930.866 740.803,932.13 729.927,922.547C723.495,916.879 723.871,905.786 723.887,897.944C709.515,882.947 738.448,835.823 743.442,819.074C747.358,805.939 747.496,790.354 751.854,778.097C741.815,780.314 734.222,781.352 724.252,784.739C719.844,786.236 703.738,794.412 701.528,794.714C701.19,794.227 699.2,791.396 698.621,791.618C691.845,794.216 685.794,797.575 678.931,800.177C660.292,807.243 643.081,809.906 623.274,810.483C618.456,810.515 612.754,810.249 607.875,810.134C588.993,832.019 562.303,858.227 537.408,872.918C517.974,884.387 462.93,863.341 440.891,857.087C433.294,864.644 430.425,868.001 426.498,877.891C432.645,885.196 437.281,891.8 437.914,901.733C438.453,909.559 435.771,917.266 430.49,923.066C413.324,942.063 371.168,941.398 353.267,923.629C327.908,898.457 326.712,846.301 350.519,819.995C349.54,814.561 349.207,806.842 350.722,801.638C356.327,782.382 353.47,758.402 376.716,751.916C403.325,744.492 423.927,751.73 446.63,764.151C458.736,763.487 470.54,763.469 482.52,765.43C472.857,757.289 467.915,752.42 459.712,742.812C432.58,747.14 413.755,742.845 394.627,722.924C340.253,731.684 294.041,693.524 272.528,646.299C278.129,645.561 283.687,644.528 289.178,643.205C320.179,636.042 349.922,619.647 367.089,592.106C358.197,577.217 355.577,560.975 353.82,544.089C364.475,520.51 400.846,486.713 421.89,471.935C426.63,467.754 439.907,463.11 443.766,458.878C455.883,445.594 465.759,434.628 479.925,423.33C467.062,421.791 452.435,418.769 441.055,412.491C454.123,397.986 470.497,390.059 481.038,372.106C491.426,354.415 493.402,337.959 496.092,318.055C496.937,311.798 498.946,305.582 499.206,299.251C498.817,288.009 495.48,275.181 497.545,263.957C499.952,250.869 504.903,241.735 504.356,227.87C504.006,218.994 508.094,206.819 511.502,198.738C514.318,192.062 519.627,185.285 522.728,178.639C526.419,168.775 527.637,160.654 533.222,150.912C537.823,142.605 545.471,132.115 553.597,126.967C563.96,120.403 564.301,116.483 570.843,107.514C582.157,92.006 597.397,84.006 615.685,78.634C632.19,61.325 651.96,51.152 676.39,53.787C678.071,52.773 679.766,51.781 681.473,50.812C702.74,38.711 723.856,36.267 747.352,42.763C755.968,39.937 761.035,38.746 769.985,37.789ZM785.618,632.86C780.701,639.782 775.288,646.338 769.421,652.475C780.772,653.443 793.095,654.9 804.008,658.361L817.21,661.771C804.563,651.244 797.252,644.114 785.618,632.86ZM775.926,47.578C764.874,48.368 758.529,49.159 747.929,53.477C721.093,45.284 702.584,49.215 679.21,64.181C652.454,62.186 637.764,69.01 619.304,88.877C596.22,92.714 580.384,106.813 570.893,127.701C551.055,138.344 533.98,159.921 533.306,183.078C521.754,196.4 515.904,209.236 514.233,226.986C513.856,230.987 513.886,241.811 512.916,244.846C508.889,257.44 505.285,266.286 506.847,280.084C507.231,286.838 509.173,293.797 509.298,300.54C509.392,305.648 506.226,312.328 505.808,317.256C502.286,358.808 492.579,383.206 459.276,409.566C482.737,413.949 500.937,414.117 521.942,399.909C536.491,390.068 549.89,374.133 558.188,358.676C570.641,335.479 579.348,306.868 604.928,293.78C610.098,294.321 612.674,294.874 617.735,296.15C616.487,318.702 616.927,331.957 624.611,353.731C614.301,376.406 606.118,385.487 586.624,401.118C547.806,391.508 492.836,420.733 466.795,448.195C461.518,453.759 456.831,460.493 451.253,465.815C445.574,470.796 434.551,474.942 427.987,479.725C403.591,497.5 380.825,519.545 364.108,544.737C363.979,560.95 369.317,579.075 379.039,592.122C357.849,626.263 328.384,644.433 289.425,653.419C288.486,653.633 287.544,653.833 286.599,654.018C304.27,680.987 328.637,705.168 361.311,712.915C367.282,714.331 370.801,714.483 376.937,714.249C383.171,714.012 390.898,711.896 396.779,712.923C399.94,713.476 404.288,719.121 406.633,721.386C422.765,736.966 443.924,734.853 463.918,731.857C476.781,748.561 483.058,752.892 499.065,766.387L490.506,777.044C470.893,773.309 463.765,773.816 443.366,774.288C428.328,763.375 405.002,755.888 386.762,759.627C382.376,760.526 372.336,762.625 369.757,767.697C364.206,778.615 358.632,802.659 360.002,815.003C360.226,817.018 362.832,819.475 364.079,820.637C350.18,832.917 344.626,845.093 343.436,863.523C341.461,894.121 353.15,925.938 388.335,927.093C403.895,927.604 426.709,923.589 428.329,903.995C428.924,893.857 421.771,887.328 415.239,880.469C421.102,864.984 424.676,857.396 438.255,846.484C457.291,851.386 504.933,867.617 521.094,867.189C526.436,867.048 530.653,865.409 535.245,862.726C559.015,848.837 585.715,821.456 603.372,800.243L620.432,800.565C643.68,800.227 661.424,796.631 683.143,787.71C687.998,785.716 697.045,780.037 701.177,778.921C702.449,780.222 702.637,781.333 703.209,783.057C705.952,783.825 715.995,776.701 719.972,775.32C735.229,770.024 752.923,768.633 768.105,764.671C764.604,772.337 761.483,778.561 759.439,786.755C756.661,797.894 756.022,812.65 752.376,823.291C745.191,844.264 730.58,864.903 729.5,887.586C731,890.761 731.948,892.854 733.888,895.8C733.634,900.171 732.244,910.976 736.306,914.715C745.595,923.266 772.815,922.536 784.077,918.46C787.264,917.307 784.12,907.559 790.334,906.203C795.59,908.023 799.139,910.603 804.257,912.783C807.749,914.269 814.371,914.844 816.852,916.772C817.624,921.06 816.47,921.534 818.643,924.302C836.01,931.047 829.283,912.09 843.201,917.831C844.811,919.85 844.866,920.215 845.816,922.674C849.007,925.384 855.958,924.687 858.014,921.979C860.377,918.867 861.494,913.043 866.404,913.623C878.092,915.002 886.243,915.884 886.194,901.256C886.187,899.326 898.36,886.292 896.186,881.457C892.642,860.449 867.66,858.59 852.431,857.725C840.604,847.906 831.751,842.538 816.735,837.989C835.748,801.498 858.554,766.452 866.757,725.583C873.903,689.981 836.03,685.796 810.451,678.129L813.884,671.326C792.687,665.422 771.027,661.33 749.137,659.095C763.621,644.264 772.978,634.248 784.777,616.812C796.04,629.398 852.845,684.563 869.173,682.06C910.515,675.722 955.91,628.774 967.377,589.249C974.97,585.985 981.046,582.734 986.619,576.257C1002.57,557.722 1013.11,527.747 1003.35,504.178C999.479,494.819 991.322,493.985 983.722,488.974C978.86,485.517 975.98,476.824 968.7,475.422C958.915,473.52 954.382,466.101 946.271,461.072C941.106,457.869 932.486,459.945 928.919,458.506C897.708,445.91 890.64,456.454 878.399,487.801C859.377,495.091 857.512,506.282 853.734,524.819C843.152,494.662 823.954,476.494 798.014,459.496C820.436,461.494 845.17,465.207 848.696,434.992C849.55,427.676 847.032,422.569 843.576,416.304C851.596,405.775 847.921,403.734 848.206,391.659C848.235,390.447 851.519,380.678 852.129,377.883C861.856,377.039 868.908,375.622 867.346,362.968C865.471,347.778 856.242,331.979 849.434,318.329C852.801,308.428 852.253,302.998 850.151,292.637C863.176,278.655 851.44,272.003 847.654,258.818C843.019,242.676 838.427,226.397 833.836,210.233C839.928,196.964 830.75,188.092 823.162,177.554C810.023,186.211 805.308,190.801 793.633,200.599C791.661,198.602 789.384,196.445 787.684,194.25C794.62,178.914 800.732,163.335 807.046,147.735L792.412,144.559C810.756,116.101 825.98,94.512 852.389,72.865C830.236,58.185 803.327,45.407 775.926,47.578ZM629.506,582.151C634.785,588.439 638.638,593.176 643.217,599.993C639.604,608.794 636.155,617.662 632.87,626.591L612.017,617.646C616.11,606.718 623.215,591.895 629.506,582.151ZM608.724,624.949C616.198,627.728 622.671,630.401 629.987,633.588C627.049,646.803 624.751,658.542 622.282,671.848C616.667,673.745 608.164,676.893 602.512,677.772C602.154,659.963 604.245,642.189 608.724,624.949ZM606.468,304.529C585.509,318.713 580.392,337.123 569.559,358.524C563.708,370.084 555.09,383.091 545.946,392.32L553.759,390.722C564.585,389.298 573.388,388.637 584.354,389.828C598.728,377.811 605.681,370.538 614.143,353.525C611.075,343.742 609.05,335.554 607.77,325.328C607.295,321.535 607.604,306.082 606.468,304.529Z" style="fill:rgb(254,254,254);"/>
        <path d="M491.756,629.936C493.807,630.89 496.964,635.034 500.562,636.69C509.314,640.719 519.633,636.356 529.499,636.7C544.667,637.228 551.645,645.234 565.502,649.48C572.161,651.52 575.895,648.997 579.703,652.973C580.658,657.747 573.669,664.629 569.753,666.262C558.827,670.816 544.706,665.064 534.324,661.349C545.367,676.012 559.409,687.527 577.964,691.559C582.094,692.457 587.963,691.303 591.715,692.917L591.844,694.146L589.201,696.898C571.464,707.606 553.975,705.09 535.712,697.755C538.021,699.651 544.391,704.702 545.617,707.035C539.404,709.205 526.622,703.026 521.011,704.299L520.8,706.892L519.312,707.351C501.47,703.184 476.017,677.938 464.501,663.827C471.641,649.176 478.971,640.002 491.756,629.936ZM462.609,479.48C483.652,478.243 512.886,498.744 522.488,517.605C524.813,522.172 524.504,525.105 524.502,530.148C503.358,534.491 494.466,538.85 477.124,551.255C457.483,529.738 438.416,527.999 415.602,545.936C459.847,534.912 472.879,571.022 484.004,605.743C484.97,609.242 485.716,613.008 486.485,616.573C469.631,625.448 461.722,634.868 451.49,649.99C429.337,630.011 401.268,602.608 386.392,575.751C383.091,569.792 380.787,555.203 379.88,547.998C393.502,526.182 436.498,485.951 462.609,479.48ZM838.094,290.404L838.477,290.482C845.722,295.143 842.321,311.149 840.259,317.734C843.861,328.589 865.29,360.978 855.363,369.567C850.419,370.735 845.179,369.104 840.243,369.834C822.668,372.433 830.999,366.47 829.408,361.622L827.297,361.358C820.927,363.402 818.957,371.128 824.775,374.975C829.558,378.138 834.831,376.287 839.976,375.093C840.099,377.817 840.825,389.756 838.01,390.23C826.055,392.243 819.277,396.976 808.891,403.391C815.603,402.213 831.691,398.554 837.305,401.715C838.751,403.982 838.465,402.924 838.257,405.756C835.925,410.168 832.039,411.868 827.731,414.141C834.279,421.618 839.134,428.923 835.673,439.22C832.684,448.112 823.055,452.36 814.568,448.567C803.433,443.592 797.426,426.503 793.245,415.787C787.624,399.712 782.602,379.898 788.784,363.528C778.685,357.162 766.048,346.622 761.74,335.351C755.484,318.982 779.774,309.895 791.399,305.708C788.106,308.878 784.253,313.305 781.093,316.736C787.568,314.975 793.307,313.068 799.668,310.926C802.578,313.349 805.923,314.959 809.266,316.731C800.537,320.507 798.677,321.599 791.865,328.19C795.322,327.586 802.013,326.503 805.213,327.31C807.315,330.486 804.287,335.352 808.304,338.472C815.02,337.78 816.386,330.268 816.758,325.021C823.197,321.398 833.671,315.637 834.659,307.518C832.467,302.045 826.014,304.649 821.41,305.666C816.244,302.702 812.698,300.687 807.192,298.283C818.269,295.602 827.001,293.686 838.094,290.404ZM803.771,689.808C807.863,691.427 812.223,692.765 816.304,694.18C840.342,702.517 862.793,703.22 851.231,735.429C844.498,754.187 837.311,770.146 827.708,787.657C814.254,791.777 803.023,793.368 788.837,791.23C784.287,790.488 778.15,788.806 773.55,787.688C786.045,754.928 785.379,760.538 810.955,741.395C803.909,743.053 778.624,748.408 774.253,742.365C775.717,735.542 798.756,698.438 803.771,689.808ZM860.411,569.876C862.676,570.753 864.55,575.121 865.754,577.371C864.54,587.899 862.943,592.721 859.73,602.659C870.88,593.397 876.475,585.925 885.735,574.857C892.22,586.137 901.191,585.259 911.709,591.644C914.471,593.321 917.657,596.349 920.075,598.586C911.687,612.411 900.229,625.409 888.375,636.363C878.98,645.326 869.729,651.891 858.861,658.849C845.574,651.861 828.756,637.288 818.535,626.435C827.701,608.524 845.52,583.286 860.411,569.876ZM510.07,779.749C511.181,780.477 519.601,788.554 521.346,790.085C537.235,804.032 550.094,810.767 571.286,813.562C565.829,820.908 553.51,832.44 546.355,838.256C536.451,846.306 528.304,854.512 515.122,853.434C502.997,850.873 486.342,844.655 472.31,841.301C471.965,840.175 471.654,839.038 471.377,837.894C467.016,819.922 469.035,805.265 478.603,789.647L487.928,790.374C493.138,795.669 495.616,800.015 499.292,806.29C501.874,798.167 506.541,787.487 510.07,779.749ZM702.433,407.89C704.005,409.317 717.94,463.823 719.435,469.344C721.58,460.236 723.183,448.103 724.154,438.796C733.56,448.197 738.956,452.642 749.773,460.443C749.384,469.017 749.57,482.83 741.565,488.198C739.636,489.491 736.619,488.33 734.449,487.857C703.88,480.452 678.745,450.81 659.261,428.068C684.178,433.245 691.557,431.737 702.433,407.89ZM884.777,497.972C896.842,505.547 909.079,511.169 921.749,517.53C929.335,521.339 924.164,531.231 919.035,532.181C909.304,533.983 894.291,525.661 885.648,521.267L889.298,530.337L882.795,534.644C890.62,538.76 898.165,538.994 907.837,544.107C914.09,548.238 921.236,556.016 917.676,564.302C914.252,572.272 904.046,572.919 897.168,568.958C882.618,560.578 870.684,542.49 865.525,526.691C868.069,513.629 872.267,503.663 884.777,497.972ZM979.308,501.444C982.86,502.782 987.975,503.802 990.523,506.413C1001.51,517.669 991.361,551.594 981.773,561.14C979.558,561.906 980.429,561.78 977.677,560.595C977.298,558.835 979.522,555.691 980.591,554.037C984.043,548.692 985.452,544.786 986.852,538.624C987.592,534.264 987.587,529.456 987.717,525.005C987.36,525.913 986.996,526.819 986.625,527.722C984.197,533.614 974.345,553.565 964.099,548.519C960.662,546.826 957.836,543.784 960.092,539.405C965.274,529.344 971.267,519.217 975.821,508.838C977.079,505.934 977.602,504.175 979.308,501.444ZM958.292,486.734C969.474,487.163 976.735,493.959 970.131,505.093C963.421,516.405 956.808,527.758 950.03,539.04C944.354,541.751 939.761,534.008 936.138,529.806C940.298,521.049 950.63,490.685 958.292,486.734ZM930.891,471.269C939.828,470.931 942.898,473.268 949.564,479.032C945.917,489.902 939.215,503.107 934.205,513.651C932.573,513.951 921.673,505.598 917.142,503.446C919.698,497.404 927.445,473.173 930.891,471.269ZM905.834,464.481C913.361,465.124 914.612,465.786 921.125,469.756C919.248,475.189 912.353,497.323 908.901,499.496L906.472,498.686C900.063,495.215 895.631,492.218 888.655,489.804C892.147,481.063 897.22,468.647 905.834,464.481Z" style="fill:rgb(249,213,171);"/>
        <path d="M564.114,412.161C631.158,408.333 670.248,490.423 727.979,501.89C686.81,511.649 649.908,476.861 618.537,454.827C610.679,449.308 603.437,442.602 594.943,437.889C622.291,472.889 659.679,510.109 705.436,517.4C738.356,520.557 766.892,504.383 772.278,470.214L783.307,473.857C782.451,487.576 776.975,498.633 767.509,508.483C752.021,524.842 730.594,534.263 708.072,534.615C627.056,535.48 604.992,442.285 530.421,428.164C525.081,427.153 518.079,427.447 512.562,427.497C528.437,417.968 545.833,413.739 564.114,412.161ZM772.453,61.067C791.788,59.381 810.903,66.246 827.576,75.265C812.174,90.086 797.912,109.871 784.606,121.823L794.307,98.565C787.209,105.369 780.327,113.418 773.754,120.809C775.735,113.705 778.79,105.941 780.267,98.826L779.343,98.584C774.193,105.055 769.4,111.077 764.644,117.842C766.549,110.519 768.111,102.552 769.702,95.109C765.242,101.761 759.898,108.793 755.139,115.311L759.027,94.975L747.325,113.574C747.958,106.073 748.978,99.806 750.213,92.361C746.466,99.691 742.493,104.756 737.655,111.41C741.594,97.025 747.702,77.644 754.707,64.626C760.894,62.494 766.046,61.71 772.453,61.067ZM388.652,607.556C392.668,611.391 397.019,617.172 400.571,621.599C390.773,640.143 375.618,667.937 354.452,675.861C346.937,678.674 338.665,678.983 329.605,675.483C322.354,671.618 318.345,667.734 313.466,661.185C344.459,651.709 369.206,633.306 388.652,607.556ZM716.06,63.245C724.95,62.117 730.708,62.815 739.11,65.499C735.383,80.495 731.398,96.981 725.37,111.143L723.341,90.451C721.091,97.716 719.102,107.26 716.234,113.821C714.927,106.388 713.955,101.208 713.633,93.709C711.428,100.238 709.393,108.183 707.502,114.909C705.65,112.296 704.154,97.534 703.708,93.785C701.745,101.119 700.19,109.771 698.664,117.302C696.711,109.055 695.608,101.82 694.322,93.418C692.484,101.93 690.393,110.386 688.053,118.774C685.305,104.143 686.011,88.945 687.722,74.241C697.004,67.561 705.056,65.057 716.06,63.245ZM608.613,698.916C614.534,701.079 620.48,703.174 626.449,705.2C611.661,733.607 597.613,756.462 580.764,783.52C574.489,782.87 570.448,781.871 564.322,780.412C556.681,777.925 549.31,776.004 542.781,771.283C566.061,747.702 586.811,723.843 608.613,698.916ZM710.889,699.077C716.466,700.286 738.353,727.575 743.932,733.486C734.559,742.038 726.937,747.633 716.664,754.962L709.382,760.035C702.083,743.559 695.311,725.231 689.107,708.272C698.568,705.596 702.342,704.134 710.889,699.077ZM669.453,76.034C671.788,75.783 672.286,75.805 674.616,76.125C677.07,79.474 676.097,113.853 675.767,120.348L667.601,101.184C667.593,110.008 667.48,116.739 668.43,125.497C664.665,118.501 661.663,112.235 658.317,105.018C658.852,112.834 659.271,120.658 659.574,128.487L650.622,113.816C650.212,115.785 650.918,131.115 650.993,134.295C647.607,127.837 644.324,121.211 641.015,114.701L642.036,134.025C635.626,119.728 632.027,111.887 631.448,95.915C641.179,84.171 654.382,77.599 669.453,76.034ZM571.538,142.959C572.652,143.285 595.259,174.866 599.396,179.442C591.043,175.599 587.605,174.404 578.885,172.704C584.518,178.424 590.371,184.964 595.879,190.88C589.064,188.664 582.354,186.145 575.627,183.676C579.609,188.562 582.137,190.716 586.817,194.835L587.015,195.348C586.342,195.676 571.446,191.791 568.008,191.469C573.728,196.619 578.161,199.486 584.529,203.879C583.201,203.628 581.874,203.364 580.55,203.089C571.641,201.236 554.63,195.052 550.296,186.952C542.159,171.746 559.802,150.062 571.538,142.959ZM540.851,194.803C545.68,196.794 570.379,216.743 576.976,221.193C570.698,220.232 564.399,219.421 558.083,218.759C563.131,224.331 569.415,228.31 575.593,232.531C567.8,231.481 560.067,230.306 552.206,230.042C558.991,234.752 564.385,237.759 571.679,241.475C570.037,242.062 552.502,240.025 548.554,239.805C556.626,244.632 562.082,247.31 570.899,250.419C536.056,251.714 516.24,245.553 532.546,207.427C534.65,202.509 537.53,198.901 540.851,194.803ZM617.979,101.256C620.034,103.136 631.478,137.667 633.774,143.878C628.526,137.464 623.142,131.163 617.625,124.978C620.502,132.599 622.98,140.631 625.487,148.403C619.833,142.28 616.587,138.069 609.904,132.989C613.594,140.452 618.025,148.446 621.938,155.865C618.004,152.505 612.17,147.216 607.995,144.53L607.539,145.72C608.909,150.754 612.046,157.684 614.116,162.657C608.56,157.766 601.999,150.869 596.373,145.545C599.238,152.303 602.708,159.275 605.893,165.931C595.552,155.723 589.97,150.366 582.728,137.713C586.383,118.223 600.4,107.99 617.979,101.256ZM524.033,308.021C536.683,310.791 543.301,311.143 556.486,311.699C548.832,315.24 543.785,318.225 536.965,323.008L554.919,320.917C548.886,324.838 541.482,328.841 535.949,333.257C541.587,332.112 547.208,330.878 552.807,329.556C547.338,337.862 541.512,345.929 535.346,353.732C526.803,365.435 513.651,379.002 500.165,384.561C517.934,359.112 518.841,337.611 524.033,308.021ZM525.064,252.214C539.057,258.147 551.381,261.651 565.507,268.563C556.503,268.307 549.673,268.779 540.743,269.617C549.086,272.069 557.884,275.07 566.205,277.746C558.726,279.219 551.234,280.625 543.731,281.965C550.236,284.265 555.935,285.701 562.62,287.422L562.392,288.192C554.449,289.923 547.452,289.552 538.915,291.932C548.122,293.294 557.359,294.448 566.618,295.393C553.354,301.901 539.043,299.908 524.836,298.154C520.059,282.369 519.482,267.863 525.064,252.214ZM730.586,341.996C731.757,343.351 733.362,345.898 734.491,347.486C742.25,358.395 750.76,367.284 760.381,376.548C759.989,393.228 762.78,407.894 765.393,424.282C758.926,421.029 750.374,414.793 744.261,410.518C739.57,398.769 732.313,356.269 730.586,341.996ZM455.93,786.096L465.887,786.723C461.09,797.568 457.717,811.946 458.186,823.807C458.346,827.85 460.206,834.184 459.586,837.659L458.068,837.918C453.303,836.488 451.073,835.535 446.531,833.426C443.125,813.256 447.802,803.816 455.93,786.096ZM770.944,797.667C790.642,804.002 799.902,804.506 820.073,802.435L814.29,812.9C813.608,813.759 812.711,814.423 811.691,814.825C801.583,818.852 778.579,814.303 768.594,809.495L770.944,797.667ZM805.473,233.276C807.794,236.212 816.284,263.037 818.031,268.359C796.119,274.728 773.46,281.13 751.837,288.342L740.793,291.68C762.658,272.553 784.221,253.083 805.473,233.276ZM824.806,216.697C832.62,225.13 835.854,250.772 837.382,262.137L829.768,264.378C829.057,264.528 829.127,264.359 828.211,264.013C824.782,250.604 821.286,237.211 817.722,223.837L824.806,216.697Z" style="fill:rgb(202,55,33);"/>
        <path d="M724.943,199.096C743.808,196.814 767.123,202.117 783.106,212.427C762.86,234.569 740.475,253.368 719.775,274.477C707.498,274.059 698.659,276.151 690.773,286.469C682.56,297.217 683.13,313.338 691.167,323.955C694.549,328.424 702.008,331.942 704.392,337.692C706.889,344.053 707.713,354.309 708.728,361.218C702.632,356.319 697.448,350.247 692.178,344.449C692.565,369.975 692.209,382.149 686.473,407.443C658.55,407.392 635.586,406.21 607.205,407.396C609.261,404.582 612.298,401.201 614.612,398.479C627.383,397.763 640.168,397.309 652.957,397.118L656.431,390.55C665.023,373.557 674.712,360.836 683.875,341.419C669.05,348.504 663.509,351.101 647.501,354.088C659.452,346.804 664.196,343.171 674.8,333.955C670.358,316.25 667.07,299.367 672.165,281.25C676.897,264.419 688.045,247.623 706.555,244.732C714.46,243.498 720.403,244.874 727.86,247.107C717.093,235.518 705.995,231.782 689.97,233.787C669.1,236.399 656.202,248.868 643.943,264.837C657.262,226.517 683.758,203.05 724.943,199.096ZM725.717,148.844C744.478,146.733 770.304,151.456 788.442,155.823C784.139,167.62 779.352,179.52 774.965,191.393C706.086,170.085 649.5,198.392 626.35,264.444C625.264,267.542 620.914,280.79 618.603,282.007L617.112,281.267C616.756,280.58 616.147,279.291 616.236,278.504C621.807,229.421 658.324,185.6 707.948,176.792C715.5,175.451 722.063,174.77 729.906,174.299C746.909,174.765 753.557,175.855 770.095,179.092C771.384,176.044 772.77,171.604 773.879,168.372C728.295,161.384 691.543,158.648 653.754,189.942C623.941,214.631 614.25,240.715 606.182,277.054C604.113,277.997 605.193,277.802 602.803,277.478C601.511,275.932 600.556,274.67 600.769,272.407C607.212,203.876 658.006,154.784 725.717,148.844ZM818.461,194.095C819.808,195.64 822.205,199.782 823.372,201.696C814.639,211.533 794.95,228.867 784.631,238.362C765.644,255.833 745.569,275.172 726.226,292.024C727.981,297.646 728.173,299.153 728.676,305.129C764.361,294.211 806.953,281.393 843.063,272.43C844.152,274.193 845.511,276.999 846.514,278.909C836.368,282.187 826.161,285.276 815.901,288.177C786.407,296.954 756.965,305.904 727.577,315.027C720.64,317.249 715.1,324.392 707.256,322.305C683.533,315.995 693.446,280.556 719.512,286.462L720.337,286.653C752.247,259.083 786.312,219.379 818.461,194.095ZM710.289,293.3C704.249,296.342 698.808,303.342 702.48,310.19C703.611,312.269 705.575,313.768 707.879,314.308C709.244,314.624 711.234,314.575 712.629,314.547C718.859,311.384 724.029,304.785 719.998,297.813C718.782,295.706 716.767,294.182 714.409,293.586C713.156,293.278 711.586,293.29 710.289,293.3ZM711.222,299.571C713.522,300.161 714.029,301.001 714.713,303.077C714.16,305.874 712.804,306.962 710.892,309.023C708.814,308.702 708.698,307.656 708.253,306.065C708.813,302.98 709.553,302.12 711.222,299.571ZM738.044,321.46C739.474,321.664 742.038,321.628 742.542,322.894C750.331,342.447 760.603,353.352 776.841,366.816C772.769,397.233 782.808,428.405 799.69,453.55C770.972,449.29 751.242,439.11 728.736,421.206C724.303,400.522 720.477,379.713 717.262,358.806C716.63,354.729 712.859,336.765 714.144,334.6C716.204,333.803 716.403,333.973 718.658,334.513C720.102,335.817 720.563,337.82 720.898,339.759C725.289,365.147 728.809,391.183 735.562,416.065C747.19,426.153 767.667,436.882 782.293,441.614C771.515,418.603 767.345,395.022 767.943,369.697C756.928,360.937 732.174,336.125 738.044,321.46ZM702.159,368C704.019,369.191 710.424,375.36 712.351,377.164C712.83,382.721 713.256,388.284 713.629,393.849L705.3,390.082C703.995,383.669 703.046,374.66 702.159,368ZM798.556,482.092C807.573,490.366 808.841,527.892 807.236,540.109C804.315,562.339 797.197,588.623 779.152,603.494C767.635,612.986 753.589,611.997 739.895,610.311C748.807,590.959 752.999,570.594 751.2,549.243C745.939,567.099 734.283,598.34 717.95,608.607C703.682,617.576 682.679,615.063 666.9,611.59C664.022,608.046 659.341,597.393 656.175,592.682C644.584,575.429 632.372,564.227 615.811,552.243C621.03,538.863 623.016,529.964 623.639,515.745C661.205,547.288 708.375,561.849 753.818,537.588C777.297,525.053 790.353,506.924 798.556,482.092ZM401.336,771.679C410.307,771.49 425.424,778.04 433.49,782.726C416.156,792.78 409.089,797.263 401.13,816.472C416.985,802.373 422.772,796.55 443.202,789.355C440.185,798.676 437.293,807.637 436.522,817.479C436.16,822.103 437.44,828.024 434.968,831.222C431.558,831.822 425.843,827.39 422.87,825.377C419.49,830.137 414.355,838.075 409.86,841.588C403.727,846.379 402.147,840.258 397.66,839.695C394.943,841.036 395.233,841.483 393.396,844.173C398.011,846.738 400.069,847.656 405.037,849.459C397.775,857.173 397.67,856.512 387.575,855.567C384.326,857.155 385.01,857.328 382.843,861.029C385.682,862.08 388.894,863.512 391.726,864.695L393.847,866.154C393.984,868.167 391.326,872.85 390.261,875.222L377.759,871.887C377.296,874.007 377.166,875.606 376.954,877.751C379.123,881.132 388.821,882.338 393.007,883.729C399.902,886.02 412.63,891.765 414.002,899.878C417.175,918.639 378.124,915.739 369.351,907.321C360.433,898.762 356.177,885.852 355.978,873.466C355.701,864.112 355.893,855.071 359.547,846.396C363.607,835.008 375.723,831.983 379.479,825.405C386.765,812.646 392.467,781.57 401.336,771.679ZM766.339,822.662C778.558,828.072 792.64,827.424 805.59,826.029L800.215,838.15C791.624,843.69 783.551,849.118 775.646,855.612C779.417,857.783 783.241,860.468 786.872,862.91C792.083,857.683 797.162,852.808 803.974,849.674C806.808,848.37 818.601,845.405 819.859,849.195C818.484,853.302 802.274,861.773 796.007,867.135L806.087,873.668C812.071,868.214 827.919,852.364 836.389,861.41C833.638,865.334 823.514,871.699 817.929,877.698L826.774,883.251L831.385,879.803C842.52,871.382 843.799,871.193 858.325,869.934C867.415,869.147 895.37,879.231 878.902,889.013C865.368,897.053 833.417,904.235 817.773,901.639C809.905,900.334 794.733,891.283 785.357,891.039C778.223,888.989 746.122,896.104 745.059,885.457C743.551,870.349 760.588,836.363 766.339,822.662ZM649.291,709.626C655.813,710.249 662.774,710.597 669.345,711.027C667.527,733.46 663.122,758.604 659.771,781.054C652.723,783.439 645.024,784.889 637.676,785.975C630.797,786.496 625.797,786.625 618.895,786.552C629.212,760.983 639.344,735.341 649.291,709.626ZM512.68,448.137C519.419,447.486 529.393,450.339 535.134,453.722C559.317,467.969 567.497,487.669 574.756,512.337C569.632,515.358 566.927,517.366 562.27,520.937L555.394,509.682C537.534,481.6 515.731,463.54 481.053,462.632C491.914,454.192 498.697,449.612 512.68,448.137ZM520.914,717.853C535.172,719.022 541.82,719.939 556.059,718.937C541.969,732.779 530.652,741.634 515.094,753.225L508.094,758.006C497.349,749.671 491.095,744.164 483.309,733.054C498.284,728.841 507.331,725.231 520.914,717.853ZM738.393,672.839C756.236,674.217 773.984,676.621 791.551,680.038C786.658,687.428 781.856,694.878 777.148,702.387C759.9,696.664 741.34,692.239 723.649,687.752C728.086,682.918 733.698,677.549 738.393,672.839ZM671.374,629.641C685.291,631.278 693.941,630.642 707.91,630.077C699.382,644.148 694.141,650.95 683.897,663.587C682.353,665.671 680.064,668.122 678.31,670.112C668.517,670.202 662.06,670.16 652.409,667.903C670.754,654.67 672.1,651.453 671.374,629.641ZM732.554,624.074C740.473,625.784 748.407,627.42 756.356,628.982C746.812,641.803 735.116,656.146 720.457,663.094C717.078,664.564 705.724,669.917 702.828,669.387L703.483,667.549C703.309,666.921 702.711,664.234 703.077,663.748C713.08,650.449 723.152,637.866 732.554,624.074ZM638.247,680.335C642.597,679.923 651.953,682.641 656.797,683.449C677.313,686.868 693.868,686.764 713.716,680.528C707.567,685.785 704.513,688.018 697.468,691.674C674.605,701.264 645.583,695.063 623.01,687.86C628.27,685.035 632.821,682.829 638.247,680.335ZM598.978,493.917C603.402,497.295 608.2,503.16 611.72,507.517C613.276,522.725 611.176,530.466 606.596,544.439L605.94,545.004C603.62,544.733 598.772,541.464 596.48,540.083C601.638,522.255 600.742,512.157 598.978,493.917ZM827.119,504.655C833.991,512.094 837.765,519.549 841.689,528.613L832.363,541.564C830.835,543.85 827.966,547.298 826.19,549.568C826.616,533.386 828.049,521.296 827.119,504.655ZM383.501,773.336C385.822,773.299 386.395,773.165 388.547,773.883C386.384,779.363 377.222,807.498 374.79,809.475C372.136,808.591 371.524,808.384 369.178,806.886C367.405,802.341 375.559,782.831 378.136,777.922C379.074,776.136 381.739,774.452 383.501,773.336ZM746.366,901.946C755.755,902.415 764.684,902.354 774.066,902.314L773.863,910.934C764.378,911.104 754.891,910.882 745.424,910.269C745.966,907.425 746.127,904.82 746.366,901.946ZM421.813,837.153C424.526,838.516 426.967,839.859 429.614,841.345L422.844,849.447C420.873,849.569 417.185,847.249 415.071,846.172C417.582,841.738 418.268,840.848 421.813,837.153ZM410.109,854.056C412.648,855.011 414.612,856.414 416.901,857.866L411.852,865.331L405.045,860.948C406.452,858.469 408.325,856.282 410.109,854.056ZM401.283,869.568L406.827,872.274L402.951,879.001C401.16,878.535 398.711,877.491 396.927,876.797L401.283,869.568Z" style="fill:rgb(246,173,58);"/>
    </g>
</svg>
