<svg width="100%" height="100%" viewBox="0 0 885 934" version="1.1" xmlns="http://www.w3.org/2000/svg" xmlns:xlink="http://www.w3.org/1999/xlink" xml:space="preserve" xmlns:serif="http://www.serif.com/" style="fill-rule:evenodd;clip-rule:evenodd;stroke-linejoin:round;stroke-miterlimit:2;">
    <g transform="matrix(1,0,0,1,-97.0722,-295.282)">
        <path d="M591.478,295.806C606.682,293.94 632.645,296.894 644.407,307.249C655.601,317.103 668.31,325.606 679.37,335.246C705.602,358.108 715.429,391.527 717.31,425.195C729.546,430.891 741.724,437.84 753.547,444.373C761.467,448.868 766.464,455.451 765.94,464.882C764.339,493.7 737.162,497.45 714.289,497.074C711.195,507.515 708.15,509.817 699.931,516.65C702.721,526.426 702.791,531.554 701.213,541.638C717.158,547.626 733.171,553.43 749.25,559.047C762.131,538.646 780.32,526.472 804.13,537.396C820.177,535.683 827.68,536.734 840.11,547.541C857.175,549.914 853.265,552.397 866.35,558.819C892.459,571.632 907.317,581.969 909.233,613.755C916.37,616.406 929.208,620.834 935.781,622.84C979.239,636.102 993.686,643.01 971.522,689.84C967.367,698.618 954.76,700.37 945.853,702.511L937.862,727.326C943.738,731.747 947.368,735.874 950.918,742.132C956.488,751.435 945.653,787.877 935.101,789.849C919.121,792.834 892.419,788.021 876.251,784.555C873.158,783.892 859.493,776.586 854.89,774.656C847.124,812.146 834.145,838.205 805.287,861.666C802.741,863.736 799.85,871.871 797.153,874.503C785.499,885.775 770.336,892.108 754.189,892.963C731.5,894.165 714.118,885.796 697.656,871.078C678.863,869.171 669,865.838 656.891,850.491C654.244,847.801 649.819,840.954 646.924,839.139C637.266,833.087 628.565,827.399 619.454,820.453C609.701,828.858 606.322,834.569 599.496,845.314C626.67,852.61 657.976,869.162 677.358,889.851C706.761,921.239 694.465,949.984 681.344,983.393C676.835,994.738 672.95,1006.32 669.707,1018.09C668.493,1022.63 665.612,1033.13 665.487,1037.47L665.475,1038.03C665.12,1050.84 671.274,1054.56 668.276,1074.13C712.646,1060.52 745.513,1075.89 754.472,1122.95C768.394,1134.67 767.143,1149.55 765.583,1166.27C764.454,1178.37 756.665,1186.44 747.251,1193.3C708.24,1221.73 655.86,1225.32 609.607,1218.16C603.002,1229.65 591.803,1226.09 580.294,1227.32C560.288,1229.45 540.511,1229.96 520.436,1227.29C511.209,1226.06 496.002,1223.71 489.546,1216.06C482.738,1206.03 484.541,1186.7 486.326,1175.4C479.153,1159.68 481.614,1145.44 487.342,1129.82C479.876,1115.93 479.724,1105.31 479.681,1090.09C479.636,1073.8 481.124,1067.24 490.553,1054.23C490.661,1045.93 490.817,1037.63 491.021,1029.32L490.824,1027.39L489.541,1026.72C484.592,1027.65 473.416,1040.29 469.005,1044.46C459.438,1053.44 449.418,1061.92 438.984,1069.87C418.473,1085.59 399.671,1097.12 377.773,1108.42C345.68,1124.98 321.808,1115.04 288.588,1114.79C279.72,1114.72 261.325,1132.6 252.078,1135.92C262.048,1154.05 258.897,1164.06 255.768,1183.02C255.161,1187.76 256.507,1193.76 255.578,1198.4C251.099,1220.77 233.055,1223.65 213.878,1225.19C200.446,1226.28 190.565,1226.46 177.708,1226.28C139.434,1225.74 114.805,1202.21 102.949,1167.5C92.58,1137.36 96.505,1113.28 110.224,1085.09C92.675,1073.02 98.756,1045.17 102.682,1027.19C105.75,1013.14 114.88,995.059 127.554,987.857C136.238,982.922 145.86,983.033 155.351,980.97C168.062,977.533 170.1,973.97 183.262,977.77C198.895,969.678 211.302,972.304 224.88,983.175C234.531,981.963 243.814,979.395 253.372,977.581C262.449,975.859 270.894,975.303 280.091,974.907C287.719,968.065 295.441,960.182 302.533,952.814C296.673,935.686 295.484,917.306 299.089,899.567C290.967,901.227 278.259,902.339 269.857,902.102C261.951,901.88 252.098,898.327 245.648,893.701C236.324,887.013 231.55,876.892 225.009,868.468C216.123,857.023 208.234,848.687 201.739,835.308C198.666,828.977 195.906,815.499 192.58,810.698C187.236,803.217 178.514,795.741 172.839,788.815C146.517,756.689 123.428,719.774 119.769,677.496C118.913,667.613 112.247,658.705 114.144,645.963C116.336,631.228 119.5,625.508 130.786,615.83C139.145,583.552 154.722,564.952 189.666,559.003C195.171,558.066 205.12,559.004 209.749,557.606C220.072,554.487 228.958,550.82 239.638,548.362C210.309,537.178 179.363,526.522 150.754,513.471C141.402,509.205 137.223,498.285 139.103,488.632C139.87,481.426 143.864,474.813 145.86,468.168C152.524,445.991 165.204,444.975 187.002,448.99C190.744,438.086 194.343,427.134 197.799,416.135C184.733,408.307 174.055,398.332 180.872,381.515C189.627,359.919 193.672,335.914 223.006,343.403C247.552,349.669 270.879,358.163 294.924,366.415L425.755,411.889C434.861,405.788 446.762,401.697 457.055,398.221C465.247,378.661 471.846,364.422 485.762,348.067C513.167,315.858 549.627,299.122 591.478,295.806ZM696.833,570.655C697.197,565.485 693.57,556.15 698.44,553.499C717.19,560.423 735.992,567.208 754.844,573.852C755.926,571.59 757.106,569.377 758.381,567.219C769.975,547.356 782.772,538.765 803.942,551.212C817.376,545.372 826.115,550.119 835.599,559.984C848.938,559.765 853.815,562.403 862.516,572.496C879.816,575.028 891.172,586.452 895.874,603.381C897.733,610.071 896.832,615.807 895.913,622.522C898.221,623.166 906.17,625.494 909.357,626.828C923.297,632.664 961.109,640.475 969.36,651.175C972.893,655.756 963.441,679.517 960.848,685.679C954.271,688.419 943.479,690.686 936.22,692.397C932.572,704.932 928.617,717.376 924.358,729.718C930.383,736.385 936.978,741.528 941.355,749.489C940.339,756.951 937.477,765.825 934.977,772.944C932.631,779.558 927.358,780.012 921.213,779.244C910.475,777.328 895.336,777.761 885.071,774.383C872.372,770.203 857.601,761.504 845.267,755.689C845.045,758.374 844.756,761.054 844.401,763.725C839.107,802.121 824.17,831.984 793.187,855.41C784.352,882.484 743.765,886.893 722.159,874.221C714.859,869.939 709.655,865.276 703.365,859.728C678.169,857.225 670.186,851.759 657.351,829.477C641.71,823.513 631.28,814.317 619.034,803.259C614.338,807.98 604.958,816.992 601.204,821.914C593.538,831.963 587.344,841.814 579.211,851.934C612.04,858.93 654.367,877.16 674.494,905.539C694.621,933.917 675.672,961.171 666.361,988.927C660.186,1007.33 655.555,1024.26 652.083,1043.5C663.22,1067.02 653.252,1073.76 654.336,1090.93C657.197,1092.09 672.54,1085.66 677.28,1084.38C681.24,1083.31 685.286,1082.6 689.371,1082.24C723.247,1079.35 740.571,1098.18 743.183,1130.77C747.157,1133.4 749.769,1135.6 752.129,1139.92C755.267,1145.67 754.344,1161.95 752.77,1167.87C750.399,1176.79 738.251,1184.66 730.32,1189.3C704.307,1204.52 674.774,1210.24 644.814,1209.48C638.35,1209.31 631.896,1208.87 625.469,1208.17C622.13,1207.8 601.669,1204.2 600.229,1204.87C600.2,1207.54 600.464,1211.84 597.776,1213.32C590.646,1217.24 580.608,1214.21 572.723,1214.68C569.234,1214.9 566.21,1217.26 562.586,1217.08C546.595,1216.29 510.276,1219.23 498.505,1207.43C493.645,1202.56 497.017,1181.34 498.768,1173.65C489.288,1157.32 493.033,1141.5 502.336,1125.79C490.698,1117.86 490.966,1103.31 491.029,1090.65C491.09,1078.41 492.303,1069.91 501.975,1062.01C502,1043.52 502.459,1026.25 505.338,1007.95C499.798,1010.61 480.312,1016.88 478.537,1018.58C442.369,1053.38 399.638,1089.74 351.143,1105.32C338.56,1109.36 300.67,1100.69 285.553,1102.86C268.548,1105.31 261.9,1119.07 247.09,1123.4C241.599,1124.74 235.16,1118.59 231.066,1115.02C226.445,1117.44 220.504,1119.47 219.661,1124.98C220.924,1127.3 223.041,1127.52 225.509,1128.62C249.189,1139.09 251.226,1160.88 241.696,1181.75C250.935,1206.6 231.241,1211.88 211.767,1213.39C171.062,1216.54 139.088,1214.99 118.419,1174.44C107.132,1152.76 105.813,1127.24 114.805,1104.51C118.498,1095.22 123.691,1086.75 126.774,1077.17C121.809,1075.54 111.794,1073.11 110.807,1067.17C108.151,1051.18 112.45,1032.3 118.641,1017.85C129.899,991.559 141.672,998.574 163.509,990.952C172.398,987.566 175.776,987.688 184.265,991.569C198.265,982.353 209.289,985.028 221.03,996.168C234.508,994.449 244.694,991.658 257.829,988.958C264.891,987.507 276.497,987.098 283.722,986.94C294.486,978.965 307.897,964.934 315.902,954.233C303.341,926.595 305.979,895.076 326.866,872.223C321.427,875.884 301.067,887.417 295.491,888.258C281.712,890.21 267.473,893.675 255.01,885.355C245.47,878.987 241.353,869.76 234.692,860.98C226.937,850.759 218.539,842.467 212.884,830.725C208.52,821.664 207.012,814.815 205.063,805.138C195.491,794.586 186.499,786.293 177.032,774.57C157.293,750.129 129.701,706.038 132.881,673.418C122.406,653.132 121.943,636.386 142.567,622.985C142.636,622.242 142.71,621.5 142.788,620.758C146.76,583.143 176.918,566.897 212.276,570.855C232.351,560.254 269.161,551.606 291.686,552.706C320.167,554.097 310.173,556.839 335.483,543.889C365.166,528.702 400.226,527.555 430.317,543.598C433.653,540.93 436.953,539.98 440.223,537.784C445.966,533.926 450.662,527.529 454.908,522.129L454.7,521.378L448.89,520.824C441.471,521.716 438.039,526.986 429.582,529.664C406.519,519.82 385.719,517.775 360.872,522.741C351.663,524.945 344.428,526.916 335.581,530.491C318.077,539.364 317.735,543.269 298.792,541.082C285.917,540.45 276.854,541.352 264.396,544.036C249.4,538.343 158.713,506.966 152.095,499.668C150.292,497.681 150.379,493.734 150.685,491.192C151.509,484.355 157.27,465.891 162.787,461.902C170.305,456.464 186.307,461.518 194.871,463.187C200.958,445.528 206.953,427.837 212.855,410.116C206.631,407.159 195.193,401.875 191.88,395.836C190.633,393.795 190.829,390.443 191.825,388.056C193.607,383.046 201.967,355.581 208.052,354.67C223.242,352.395 281.458,374.588 293.133,378.619L414.953,420.932C410.203,426.109 408.528,428.425 406.088,434.998C404.467,445.118 406.296,450.543 412.293,458.946C413.521,460.666 414.82,462.336 416.208,463.93C426.785,471.737 432.031,473.567 444.52,477.674C447.268,473.673 447.926,473.443 451.643,470.392C440.437,466.561 421.946,460.26 416.358,448.895C414.618,445.417 414.393,441.375 415.737,437.726C419.438,427.499 433.183,421.039 442.638,416.979C449.686,413.963 456.907,411.367 464.262,409.206L464.78,408.374C470.257,399.449 474.625,386.83 480.356,376.805C499.398,343.819 531.189,320.13 568.249,311.315C589.022,306.175 615.138,303.798 634.512,314.968C641.274,318.874 646.599,325.559 652.571,330.283C657.582,334.246 663.45,337.954 668.341,341.942C690.225,359.774 701.459,386.001 704.137,413.672C704.908,417.864 705.058,428.114 707.029,431.315C715.879,445.69 767.486,450.822 751.655,474.793C745.674,483.849 724.413,484.693 714.35,484.789C711.305,484.818 706.18,484.926 704.262,487.708C701.888,491.457 702.702,497.261 699.779,500.826C696.383,505.123 689.076,506.884 688.32,511.026C687.113,517.644 690.444,525.345 690.5,532.472C690.563,540.358 685.907,546.473 684.869,552.71C682.782,565.249 689.305,573.357 678.104,583.85C683.947,602.579 686.662,614.115 677.822,632.523C676.885,629.333 675.722,624.905 674.614,621.883C672.23,641.888 667.601,654.828 652.326,669.017L653.418,671.302C665.163,664.949 673.706,657.209 678.474,644.58C683.651,651.223 690.378,665.607 695.983,667.652C693.745,658.241 687.615,647.792 682.797,639.535C689.545,630.859 690.895,627.907 692.514,617.182C692.249,607.626 691.88,603.633 689.165,594.205C688.891,593.604 687.545,590.325 687.866,589.896C693.413,582.479 695.212,579.931 696.833,570.655Z" style="fill:rgb(254,254,243);"/>
        <path d="M696.833,570.655C697.197,565.485 693.57,556.15 698.44,553.499C717.19,560.423 735.992,567.208 754.844,573.852C755.926,571.59 757.106,569.377 758.381,567.219C769.975,547.356 782.772,538.765 803.942,551.212C817.376,545.372 826.115,550.119 835.599,559.984C848.938,559.765 853.815,562.403 862.516,572.496C879.816,575.028 891.172,586.452 895.874,603.381C897.733,610.071 896.832,615.807 895.913,622.522C898.221,623.166 906.17,625.494 909.357,626.828C923.297,632.664 961.109,640.475 969.36,651.175C972.893,655.756 963.441,679.517 960.848,685.679C954.271,688.419 943.479,690.686 936.22,692.397C932.572,704.932 928.617,717.376 924.358,729.718C930.383,736.385 936.978,741.528 941.355,749.489C940.339,756.951 937.477,765.825 934.977,772.944C932.631,779.558 927.358,780.012 921.213,779.244C910.475,777.328 895.336,777.761 885.071,774.383C872.372,770.203 857.601,761.504 845.267,755.689C845.045,758.374 844.756,761.054 844.401,763.725C839.107,802.121 824.17,831.984 793.187,855.41C784.352,882.484 743.765,886.893 722.159,874.221C714.859,869.939 709.655,865.276 703.365,859.728C678.169,857.225 670.186,851.759 657.351,829.477C641.71,823.513 631.28,814.317 619.034,803.259C614.338,807.98 604.958,816.992 601.204,821.914C593.538,831.963 587.344,841.814 579.211,851.934C612.04,858.93 654.367,877.16 674.494,905.539C694.621,933.917 675.672,961.171 666.361,988.927C660.186,1007.33 655.555,1024.26 652.083,1043.5C663.22,1067.02 653.252,1073.76 654.336,1090.93C657.197,1092.09 672.54,1085.66 677.28,1084.38C681.24,1083.31 685.286,1082.6 689.371,1082.24C723.247,1079.35 740.571,1098.18 743.183,1130.77C747.157,1133.4 749.769,1135.6 752.129,1139.92C755.267,1145.67 754.344,1161.95 752.77,1167.87C750.399,1176.79 738.251,1184.66 730.32,1189.3C704.307,1204.52 674.774,1210.24 644.814,1209.48C638.35,1209.31 631.896,1208.87 625.469,1208.17C622.13,1207.8 601.669,1204.2 600.229,1204.87C600.2,1207.54 600.464,1211.84 597.776,1213.32C590.646,1217.24 580.608,1214.21 572.723,1214.68C569.234,1214.9 566.21,1217.26 562.586,1217.08C546.595,1216.29 510.276,1219.23 498.505,1207.43C493.645,1202.56 497.017,1181.34 498.768,1173.65C489.288,1157.32 493.033,1141.5 502.336,1125.79C490.698,1117.86 490.966,1103.31 491.029,1090.65C491.09,1078.41 492.303,1069.91 501.975,1062.01C502,1043.52 502.459,1026.25 505.338,1007.95C499.798,1010.61 480.312,1016.88 478.537,1018.58C442.369,1053.38 399.638,1089.74 351.143,1105.32C338.56,1109.36 300.67,1100.69 285.553,1102.86C268.548,1105.31 261.9,1119.07 247.09,1123.4C241.599,1124.74 235.16,1118.59 231.066,1115.02C226.445,1117.44 220.504,1119.47 219.661,1124.98C220.924,1127.3 223.041,1127.52 225.509,1128.62C249.189,1139.09 251.226,1160.88 241.696,1181.75C250.935,1206.6 231.241,1211.88 211.767,1213.39C171.062,1216.54 139.088,1214.99 118.419,1174.44C107.132,1152.76 105.813,1127.24 114.805,1104.51C118.498,1095.22 123.691,1086.75 126.774,1077.17C121.809,1075.54 111.794,1073.11 110.807,1067.17C108.151,1051.18 112.45,1032.3 118.641,1017.85C129.899,991.559 141.672,998.574 163.509,990.952C172.398,987.566 175.776,987.688 184.265,991.569C198.265,982.353 209.289,985.028 221.03,996.168C234.508,994.449 244.694,991.658 257.829,988.958C264.891,987.507 276.497,987.098 283.722,986.94C294.486,978.965 307.897,964.934 315.902,954.233C303.341,926.595 305.979,895.076 326.866,872.223C321.427,875.884 301.067,887.417 295.491,888.258C281.712,890.21 267.473,893.675 255.01,885.355C245.47,878.987 241.353,869.76 234.692,860.98C226.937,850.759 218.539,842.467 212.884,830.725C208.52,821.664 207.012,814.815 205.063,805.138C195.491,794.586 186.499,786.293 177.032,774.57C157.293,750.129 129.701,706.038 132.881,673.418C122.406,653.132 121.943,636.386 142.567,622.985C142.636,622.242 142.71,621.5 142.788,620.758C146.76,583.143 176.918,566.897 212.276,570.855C232.351,560.254 269.161,551.606 291.686,552.706C320.167,554.097 310.173,556.839 335.483,543.889C365.166,528.702 400.226,527.555 430.317,543.598C433.653,540.93 436.953,539.98 440.223,537.784C445.966,533.926 450.662,527.529 454.908,522.129L454.7,521.378L448.89,520.824L448.537,520.483C438.547,510.977 433.436,508.684 446.476,496.167C419.213,485.832 390.481,476.239 362.937,466.468C317.908,450.432 272.967,434.15 228.116,417.621C222.781,433.581 216.159,452.067 211.68,468.087C246.131,480.316 280.474,492.848 314.706,505.68C322.185,508.41 355.76,519.936 360.872,522.741C351.663,524.945 344.428,526.916 335.581,530.491L242.274,497.054C221.747,489.714 196.51,480.298 175.778,474.84C173.128,481.046 171.716,485.097 169.727,491.549C181.606,495.973 298.959,538.999 300.686,540.644C300.175,540.778 299.272,541.061 298.792,541.082C285.917,540.45 276.854,541.352 264.396,544.036C249.4,538.343 158.713,506.966 152.095,499.668C150.292,497.681 150.379,493.734 150.685,491.192C151.509,484.355 157.27,465.891 162.787,461.902C170.305,456.464 186.307,461.518 194.871,463.187C200.958,445.528 206.953,427.837 212.855,410.116C206.631,407.159 195.193,401.875 191.88,395.836C190.633,393.795 190.829,390.443 191.825,388.056C193.607,383.046 201.967,355.581 208.052,354.67C223.242,352.395 281.458,374.588 293.133,378.619L414.953,420.932C410.203,426.109 408.528,428.425 406.088,434.998L300.918,399.024C274.264,389.751 245.446,379.099 218.513,371.356C213.21,377.649 211.844,381.184 209.396,389.179C232.774,399.019 259.475,408.305 283.442,416.921L416.208,463.93C426.785,471.737 432.031,473.567 444.52,477.674C447.268,473.673 447.926,473.443 451.643,470.392C440.437,466.561 421.946,460.26 416.358,448.895C414.618,445.417 414.393,441.375 415.737,437.726C419.438,427.499 433.183,421.039 442.638,416.979C449.686,413.963 456.907,411.367 464.262,409.206L464.78,408.374C470.257,399.449 474.625,386.83 480.356,376.805C499.398,343.819 531.189,320.13 568.249,311.315C589.022,306.175 615.138,303.798 634.512,314.968C641.274,318.874 646.599,325.559 652.571,330.283C657.582,334.246 663.45,337.954 668.341,341.942C690.225,359.774 701.459,386.001 704.137,413.672C704.908,417.864 705.058,428.114 707.029,431.315C715.879,445.69 767.486,450.822 751.655,474.793C745.674,483.849 724.413,484.693 714.35,484.789C711.305,484.818 706.18,484.926 704.262,487.708C701.888,491.457 702.702,497.261 699.779,500.826C696.383,505.123 689.076,506.884 688.32,511.026C687.113,517.644 690.444,525.345 690.5,532.472C690.563,540.358 685.907,546.473 684.869,552.71C682.782,565.249 689.305,573.357 678.104,583.85C683.947,602.579 686.662,614.115 677.822,632.523C676.885,629.333 675.722,624.905 674.614,621.883C672.23,641.888 667.601,654.828 652.326,669.017L651.827,665.778L651.232,665.617C646.888,670.1 642.531,674.817 637.754,678.814C644.11,676.193 647.458,674.752 653.418,671.302C665.163,664.949 673.706,657.209 678.474,644.58C683.651,651.223 690.378,665.607 695.983,667.652C698.411,667.379 746.673,683.746 752.964,685.669C736.77,665.417 722.374,655.325 722.147,627.293C712.86,623.837 701.992,620.41 692.514,617.182C692.249,607.626 691.88,603.633 689.165,594.205C701.612,598.914 716.225,603.569 728.953,608.04C732.512,598.889 735.681,593.738 742.4,586.759L696.833,570.655ZM801.195,627.659L794.689,631.887C797.201,634.055 799.789,636.489 802.786,637.965C810.967,641.993 820.292,644.569 828.934,647.456C846.466,653.313 864.113,658.78 881.533,664.973C888.258,667.364 895.667,669.433 901.923,672.827C903.624,673.749 905.992,675.062 906.207,677.145C906.568,680.65 889.174,737.791 887.718,738.96C885.441,740.787 882.112,740.564 879.41,740.022C868.211,737.778 822.9,717.371 816.624,718.762L815.525,720.89C816.263,722.662 816.624,723.401 818.463,724.369C838.302,734.802 858.884,744.049 878.781,754.308C893.688,762.43 906.606,760.358 922.59,763.668L925.552,755.186C920.387,750.746 911.401,743.445 907.539,738.422C909.379,729.057 923.177,682.9 927.564,677.294C932.544,674.193 944.517,673.013 950.492,672.611C951.619,668.478 952.744,663.991 954.126,659.966C945.076,655.724 928.854,650.657 918.993,647.27L863.608,628.271C857.731,648.215 839.342,651.621 825.341,636.686C814.895,639.995 808.21,637.597 802.05,628.458C801.729,627.981 801.695,628.027 801.195,627.659ZM572.396,452.314C564.72,455.806 547.417,466.673 545.271,475.061C539.663,496.983 532.707,521.713 542.352,543.425C550.687,538.926 558.402,534.725 567.304,531.408C558.358,545.748 551.673,553.29 556.075,571.408C558.211,580.2 567.104,597.527 576.087,600.293C576.857,599.235 576.969,599.176 577.418,597.962C578.438,598.355 583.78,602.762 584.883,603.937C591.714,611.219 618.905,611.345 620.377,599.26C617.654,593.828 605.17,592.48 599.005,589.502C608.458,585.622 650.716,573.042 655.555,585.29C654.119,588.273 652.131,588.755 648.824,590.103C650.28,592.713 651.455,595.545 654.075,596.875C664.512,598.085 665.175,578.839 660.048,573.313C657.057,570.09 649.253,570.272 645.195,570.054C627.341,570.672 609.172,572.145 591.601,575.385C584.894,576.622 576.05,582.666 573.595,582.488C570.267,578.39 578.914,564.735 584.661,564.005C586.766,565.484 586.151,564.507 586.593,567.015C595.854,567.048 602.68,566.523 611.936,565.6C585.184,557.445 579.576,549.665 561.977,576.304C561.782,553.12 572.6,539.05 597.121,539.187C600.656,539.225 604.18,539.587 607.649,540.269C611.808,520.411 625.36,517.641 641.057,527.813C628.251,525.517 619.776,524.037 617.146,539.726C621.503,539.927 628.285,540.058 631.599,541.722C639.948,545.913 657.622,560.076 667.109,550.42C678.141,539.192 668.586,532.953 660.491,527.711C659.046,518.583 658.178,514.618 654.181,505.929C659.875,498.055 661.774,493.632 664.533,484.29C666.754,488.8 667.834,491.712 668.757,496.705C681.126,490.43 683.464,487.232 688.361,474.446C669.655,469.219 648.31,464.753 629.185,461.021C613.008,457.865 588.67,452.955 572.396,452.314ZM585.739,456.098C624.352,454.034 623.582,488.635 640.42,492.555C645.499,492.066 646.239,488.974 646.635,484.637L646.723,483.629L647.46,483.319C651.188,487.863 647.781,499.062 643.567,502.724C638.241,507.353 634.012,504.163 628.137,503.781C626.362,505.299 624.523,508.848 622.512,510.643C616.764,515.774 610.294,515.646 605.306,509.448C602.062,505.418 602.661,502.207 603.286,496.957L604.421,495.553C609.298,495.828 609.66,496.569 612.348,492.389L611.91,490.983C606.804,488.733 600.216,492.237 597.31,496.624C594.439,500.957 594.982,504.891 595.777,509.675L595.079,510.252C583.303,501.858 588.875,492.995 598.518,486.395C602.458,483.698 606.017,483.326 610.676,482.548C598.664,467.115 584.222,463.511 566.84,472.986C567.368,471.939 567.908,470.898 568.46,469.863C573.205,461.001 576.4,458.928 585.739,456.098ZM594.364,1051.06C572.706,1052.47 527.872,1061.57 510.573,1077.9C507.167,1081.12 508.625,1095.31 509.391,1100.5C509.566,1101.67 509.766,1102.84 509.991,1104C522.122,1096.92 530.368,1092.8 543.697,1087.95C569.021,1079.53 611.673,1067.53 637.803,1076.71C640.711,1063.55 640.93,1054.47 624.513,1052.09C614.831,1050.69 604.132,1050.33 594.364,1051.06ZM860.438,588.746C851.139,593.4 821.824,627.977 841.533,634.761C845.918,636.27 855.536,629.708 856.876,625.688C855.578,623.463 854.245,623.535 851.247,622.697L851.267,621.59C861.653,617.51 863.621,616.024 868.885,605.778L870.604,615.235C874.417,616.054 878.198,617.012 881.94,618.107C883.159,616.772 883.125,615.277 882.924,613.443C881.511,600.564 873.915,589.887 860.438,588.746ZM669.875,506.025C670.096,507.722 672.058,515.053 671.934,515.46C669.027,525.005 667.286,521.977 675.62,528.681C676.005,523.707 676.017,517.739 674.592,512.722C674.318,511.756 677.117,510.175 676.153,507.307C673.907,505.795 672.616,506.063 669.875,506.025ZM123.904,1142.82C124.66,1150 126.579,1157 129.584,1163.57C138.369,1183.13 153.734,1196.46 175.675,1197.91C192.334,1199.01 210.582,1199.32 226.641,1194.36C227.394,1194.13 227.405,1193.22 227.684,1192.41C222.438,1184.43 148.022,1219.14 125.825,1142.26C125.363,1139.48 124.894,1135.02 123.55,1132.79C122.78,1135.64 123.524,1139.77 123.904,1142.82ZM722.337,728.92C699.229,738.945 683.898,761.098 677.984,785.056C672.908,805.624 673.757,819.762 684.228,838.418C679.135,813.055 681.529,797.51 693.133,774.417C690.672,796.823 694.727,817.191 705.979,836.792C720.058,857.709 739.248,872.279 764.742,861.682C747.803,859.495 732.429,850.666 722.006,837.139C708.245,819.79 702.05,797.634 704.816,775.666C706.613,761.506 712.847,747.275 721.858,736.335C723.662,734.146 725.621,732.17 725.313,729.256C724.229,729.096 723.441,728.938 722.337,728.92ZM605.238,686.002C591.554,699.343 575.508,707.108 558.625,715.187C555.786,725.273 554.308,735.576 551.545,745.595C543.626,774.304 529.716,797.807 511.995,821.392C522.256,819.677 538.183,817.431 547.895,815.043C536.722,822.775 515.655,830.025 502.095,831.356C496.616,837.766 490.246,845.418 485.453,852.384L498.356,850.534C499.964,845.843 501.02,842.76 504.259,839.253C510.465,832.533 521.65,825.03 527.104,837.131C529.025,841.396 526.032,845.153 527.13,847.35C530.167,847.629 531.806,847.546 534.782,847.399C542.288,846.83 549.801,846.345 557.319,845.943C566.071,840.261 570.987,836.795 577.334,828.196C569.344,830.166 562.39,833.433 555.119,835.126C589.922,817.243 633.544,760.965 645.163,723.271C647.225,716.581 649.047,709.26 650.423,702.355C636.271,718.225 624.153,727.697 604.826,737.442C607.89,722.846 610.319,703.573 610.82,688.744C610.854,687.745 606.259,686.079 605.238,686.002ZM569.492,712.388C571.598,712.418 572.986,712.57 574.992,713.324C578.38,714.588 581.129,717.142 582.639,720.427C587.214,730.643 581.285,738.855 571.912,742.909C569.917,743.168 567.962,743.043 566.023,742.452C563.464,741.664 561.314,739.909 560.029,737.56C555.166,728.673 560.917,716.952 569.492,712.388ZM570.965,720.366C563.908,726.736 563.473,732.054 572.221,736.882C578.025,731.721 580.504,722.171 570.965,720.366ZM551.296,771.042C553.443,770.935 556.322,770.726 558.355,771.319C561.519,772.275 564.107,774.563 565.444,777.585C569.677,787.073 562.818,795.939 554.196,799.615C551.919,800.051 549.913,800.143 547.623,799.586C545.117,799.001 542.947,797.44 541.597,795.249C536.269,786.472 543.032,775.425 551.296,771.042ZM552.789,778.945C549.531,782.162 546.502,786.248 548.67,790.981C551.313,792.989 550.087,792.413 553.773,792.831C557.525,790.056 560.738,786.715 559.355,781.622C556.983,778.918 556.518,778.853 552.789,778.945ZM714.517,1143.3C696.561,1144.82 669.792,1149.59 654.122,1158.55C630.371,1172.13 616.198,1177.77 590.565,1185.72C600.797,1188.6 605.274,1189.34 616.224,1188.71C628.214,1187.05 636.685,1182.39 647.7,1177.74C676.459,1165.6 704.839,1151.36 736.949,1157.29C736.84,1152.58 737.344,1147.97 733.148,1144.81C729.12,1141.78 719.384,1142.54 714.517,1143.3ZM321.991,982.539C300.698,997.764 288.651,1010.52 298.78,1037.11L299.763,1038.12C300.266,1036.77 304.927,1018.6 305.714,1016.3C307.67,1010.6 322.094,983.386 321.991,982.539ZM145.601,1010.83C137.907,1014.52 133.556,1019.49 130.989,1027.71C128.455,1035.82 122.468,1056.9 129.952,1062.61C130.79,1062.27 132.409,1061.84 132.589,1061.24C134.914,1053.41 135.061,1042.78 137.215,1034.98C139.337,1027.29 143.71,1018.92 146.559,1011.4L145.601,1010.83ZM385.633,550.442C404.923,568.111 409.489,595.967 410.926,620.911C412.901,655.181 404.883,690.328 385.093,718.817C411.973,750.239 439.969,760.756 481.257,764.386C456.081,774.838 422.681,770.303 398.057,760.086C391.264,757.193 384.654,753.887 378.264,750.187C388.98,770.358 403.377,783.125 423.34,794.148C414.034,792.827 404.101,791.503 395.015,789.189C405.554,807.921 415.136,818.022 432.249,831.123C420.311,833.837 404.966,838.797 394.665,845.584C402.702,848.418 409.206,849.982 417.556,851.849C438.374,855.203 449.529,855.792 470.823,854.917C476.286,847.321 484.131,837.156 490.295,829.937C471.115,826.092 463.938,824.049 446.763,814.444C463.16,818.498 482.645,820.056 499.538,819.425C518.179,800.701 537.169,761.394 543.124,735.594C545.263,726.329 547.818,711.209 552.195,703.737L552.579,703.071C540.736,692.526 501.388,649.018 488.958,649.393C479.341,649.684 467.865,659.985 461.829,666.707C459.357,669.46 457.341,672.41 455.412,675.559C442.508,649.016 432.045,601.233 432.005,572.105C421.158,557.588 403.511,550.076 385.633,550.442ZM361.696,554.262C353.307,556.934 346.569,559.669 338.985,564.325C352.049,573.161 356.9,578.569 365.986,591.406C350.256,581.707 339.77,578.315 321.838,574.075C290.51,566.666 265.949,569.433 235.604,579.278C284.593,597.518 301.171,614.18 314.551,665.49C316.776,650.858 316.939,639.072 312.5,624.713L313.39,624.409C328.346,638.717 332.986,671.336 324.02,689.758C343.215,689.361 360.474,685.066 376.677,674.356C371.031,689.95 363.554,693.795 350.34,704.042C364.02,702.455 375.81,699.098 384.81,687.372C400.03,667.54 402.089,642.895 399.87,618.971C398.194,600.909 384.49,552.749 361.696,554.262ZM707.694,689.889C712.515,697.63 717.036,704.842 720.898,713.126C727.029,711.657 732.668,712.71 738.916,713.554L742.52,709.895L747.737,703.618C735.438,699.366 719.908,693.484 707.694,689.889ZM805.44,702.118C806.929,700.82 808.269,700.318 810.169,700.932C816.637,703.023 823.071,705.478 829.504,707.69C846.062,713.208 862.539,718.966 878.929,724.962C882.527,714.572 885.769,703.549 889.034,693.013C865.013,682.687 838.616,674.221 814.251,664.551C813.577,674.711 810.378,679.159 805.385,687.706C798.659,694.698 796.711,696.999 787.935,701.598C800.959,684.356 809.642,661.414 791.498,643.903C782.923,635.626 757.958,641.89 753.257,638.63C754.088,637.274 764.273,632.754 767.103,631.055C761.732,627.804 756.185,623.391 758.073,616.158L759.094,615.945C766.859,621.436 770.709,624.092 780.586,622.987C789.853,621.951 805.683,607.055 795.536,598.902C791.004,595.26 781.265,594.86 779.016,602.07L779.547,603.302C784.107,604.274 786.843,602.527 789.621,603.823C787.876,611.956 775.835,611.09 774.8,606.007C772.304,593.74 768.633,595.634 755.468,594.995C747.579,603.358 738.933,621.642 739.002,633.144C739.078,645.905 758.218,667.548 767.327,676.486C773.097,682.147 778.74,684.912 786.572,686.778L787.029,687.729C784.341,691.493 776.841,691.395 772.589,691.071C770.684,695.554 767.941,702.595 765.237,706.391C759.354,714.65 751.727,722.989 744.956,730.539C724.183,753.444 712.883,781.953 725.323,812.277C732.123,828.855 742.518,837.518 758.809,844.321C773.083,850.283 777.022,848.156 788.334,838.913C814.501,817.531 828.322,780.64 829.114,747.536C798.593,732.559 787.203,735.453 805.44,702.118ZM794.82,806.169C794.961,811.047 790.924,821.925 787.262,825.834C781.137,832.374 777.229,833.923 768.725,834.703C768.565,833.021 771.919,831.575 773.823,830.136C782.265,823.758 788.573,814.576 794.82,806.169ZM784.351,717.584C785.172,723.029 771.032,747.283 767.189,752.352C765.94,748.369 781.407,722.242 784.351,717.584ZM679.226,681.302C672.57,724.297 663.489,736.799 646.25,774.658C652.881,767.857 658.766,761.96 664.681,754.462L664.717,769.688L664.879,778.258C675.96,755.609 683.046,735.182 705.294,720.675C701.457,713.327 685.873,685.349 679.226,681.302ZM784.304,560.849C775.48,567.051 771.426,573.868 767.615,583.956C772.042,584.628 777.168,585.278 781.492,586.201L783.112,586.183C785.352,583.775 793.97,568.899 795.497,565.598C791.782,563.043 789.003,560.916 784.304,560.849ZM192.413,587.396C180.004,589.903 172.889,593.312 165.146,603.614C182.711,596.27 198.686,596.735 216.684,603.575C203.549,604.947 188.885,605.723 177.204,611.921C216.419,612.019 257.367,625.984 278.157,661.559C286.444,677.723 290.066,688.76 286.507,707.136C296.328,695.609 299.848,687.279 298.586,671.679C296.45,648.169 285.237,626.415 267.326,611.033C246.396,593.683 219.512,585.2 192.413,587.396ZM812.342,565.216C803.6,571.724 800.704,577.075 795.5,586.467C801.604,587.93 805.037,588.872 808.087,594.997C810.698,594.217 822.84,575.298 821.59,569.463C819.794,566.38 815.77,564.981 812.342,565.216ZM837.576,575.817C826.955,583.058 808.062,612.49 813.53,624.493C816.285,626.495 819.914,626.217 822.77,624.411C829.661,607.078 836.079,598.64 848.135,584.5C849.279,583.158 848.603,582.156 848.13,580.681C845.014,577.282 841.984,576.481 837.576,575.817ZM342.914,969.448C363.524,1004.94 420.813,1013.91 457.428,1003.69L458.494,1003.15C456.915,1002.68 446.517,1003.05 443.798,1002.97C437.749,1002.8 431.71,1002.34 425.703,1001.6C402.033,998.758 380.255,992.528 359.179,980.996C354.169,978.255 347.041,971.515 342.914,969.448ZM591.874,659.589C583.486,677.096 580.351,683.161 569.011,699.073C576.835,693.585 584.609,688.027 592.333,682.4C607.793,668.192 605.591,670.377 621.841,684.188C614.394,673.419 605.659,662.588 591.874,659.589ZM182.193,628.056C168.024,629.27 143.291,633.979 144.753,652.82C145.212,658.737 149.258,668.274 151.652,673.937C146.774,687.325 155.47,706.488 161.209,719.009C175.561,750.327 196.719,773.716 220.838,797.605C223.342,827.839 231.704,830.465 248.18,853.245C263.574,874.53 264.215,877.71 292.983,875.224C294.006,875.134 295.027,875.029 296.047,874.909C293.291,871.596 287.804,863.628 292.221,859.694C295.436,861.254 296.474,864.335 299.157,866.333C305.832,871.305 314.786,864.673 319.72,860.187C334.692,860.286 348.396,856.119 359.248,845.401C359.543,845.11 359.835,844.816 360.125,844.521C355.333,845.724 350.483,846.794 345.75,847.968C336.585,850.241 324.977,857.436 315.913,851.839C308.6,847.323 302.055,832.782 298.316,825.052C304.276,829.255 317.985,840.132 323.469,842.433C329.26,842.306 336.924,838.273 342.58,836.562C356.275,832.418 375.56,833.403 373.52,813.796C371.422,793.626 353.249,787.95 336.008,785.833C341.03,790.381 342.616,791.899 345.883,797.744C354.812,800.21 355.72,802.635 358.598,811.061C353.317,808.369 349.023,805.698 342.927,807.624C341.317,808.133 339.758,808.79 338.27,809.587C336.242,800.421 335.678,797.536 328.719,790.956L322.433,796.743C324.07,788.996 326.798,780.361 322.4,773.349C321.331,771.644 319.728,769.722 319.734,767.93C326.348,764.895 332.552,772.505 335.758,777.071C342.244,776.966 346.516,776.895 353.044,778.036C352.883,773.544 352.959,768.924 351.01,765.453C339.34,744.675 312.397,746.096 295.447,759.418C292.366,761.84 271.33,763.983 269.514,757.063L272.014,754.241C271.787,751.781 270.079,745.168 269.384,742.841C264.708,727.187 268.874,719.089 272.461,704.929C277.187,686.275 262.693,661.04 248.208,650.171C230.26,635.544 205.29,626.816 182.193,628.056ZM174.832,647.912C175.025,650.225 171.98,660.219 171.792,664.463C170.768,687.622 174.639,705.234 184.467,725.768L177.051,718.17C164.508,704.143 153.808,675.275 163.951,657.385C166.605,652.705 170.285,650.49 174.832,647.912ZM190,691.385C191.395,692.997 195.048,701.993 196.349,704.636C207.594,727.472 223.955,750.662 241.505,769.017C211.795,761.814 193.129,719.23 190,691.385ZM255.427,811.894C261.495,815.319 273.028,830.338 278.651,835.987C284.086,841.447 289.298,846.182 295.046,851.377C274.854,849.297 263.594,828.307 255.427,811.894ZM241.946,820.272C243.928,822.135 250.65,831.961 252.88,834.857C259.752,843.775 266.697,852.549 273.691,861.374C260.408,858.929 246.144,832.084 241.946,820.272ZM517.755,866.566C457.762,870.203 410.796,885.123 363.506,923.089C368.291,910.853 375.852,900.017 386.71,892.467C377.679,894.449 367.039,896.804 362.092,905.774C350.544,926.714 364.628,950.408 383.15,961.587C424.594,986.6 480.842,963.48 512.976,932.142C506.686,950.256 505.477,954.692 502.95,973.62C519.41,948.595 540.941,931.086 570.417,924.382C559.603,931.442 539.492,950.673 536.742,963.068L537.233,963.681C549.087,956.21 554.145,954.144 567.741,950.225C564.643,953.188 561.633,956.149 558.832,959.363C538.303,982.918 527.545,1014.64 525.244,1045.5C525.185,1046.29 525.482,1047.5 525.719,1048.28L526.731,1048.94C531.467,1047.58 538.355,1043.23 543.007,1040.86C573.095,1025.49 597.318,1007.15 620.606,982.801C611.471,1000.93 605.05,1016.84 596.988,1035.27C609.322,1034.17 620.759,1033.59 633.121,1035.16C637.12,1017.99 641.324,1001.12 646.634,984.389C653.325,963.3 672.345,935.414 657.919,914.062C642.457,891.176 607.493,877.259 581.624,871.504C560.659,866.954 539.17,865.293 517.755,866.566ZM685.947,433.461L688.912,434.467L689.556,433.346C686.59,393.799 684.311,380.301 657.534,350.853L661.346,363.736C664.295,380.206 666.713,387.958 664.035,404.704C651.387,378.514 645.658,337.819 615.14,326.595C607.453,323.768 601.502,324.022 593.542,324.159C629.325,336.152 642.396,367.184 646.284,401.864C636.148,376.7 619.526,347.35 593.437,336.232C548.764,317.195 501.237,363.201 485.72,401.442C484.983,403.264 484.27,405.095 483.581,406.935C509.83,374.664 522.776,353.983 563.798,341.458C540.794,356.55 524.574,378.159 519.261,405.547C538.784,408.215 558.192,411.668 577.437,415.898C582.655,417.054 592.4,419.005 597.064,420.733C573.454,420.733 549.846,421.202 526.255,422.138C500.671,422.938 456.385,421.783 437.153,439.233C461.87,431.471 480.546,432.745 506.04,433.019C558.381,433.582 606.171,440.585 657.217,451.81C679.779,456.772 713.021,466.724 735.061,465.889C712.74,452.159 635.111,436.211 606.708,430.314C627.739,429.003 667.769,424.908 685.947,433.461ZM516.24,838.435C512.796,840.311 508.931,842.996 507.496,846.817L507.768,848.55C509.462,849.175 509.531,849.103 511.263,849.164C516.121,848.328 520.458,847.668 521.186,841.944C519.781,839.785 519.287,839.118 516.24,838.435ZM513.15,1186.15C512.92,1190.21 512.752,1194.47 512.295,1198.49C525.285,1200.63 548.132,1201.65 561.335,1200.61L561.253,1187.01C545.931,1188.85 528.325,1189.31 513.15,1186.15ZM574.313,1097.98C560.626,1102.45 532.194,1112.82 519.707,1120.2C532.985,1127.71 539.201,1127.14 554.113,1126.34C543.315,1131.45 529.104,1131.13 517.504,1129.98C506.479,1143.48 504.677,1160.03 515.874,1174.01C531.144,1177.21 546.693,1176.91 562.008,1174.04L563.988,1165.29C582.802,1173.59 588.934,1176.41 609.826,1168.26C628.13,1161.13 645.547,1150.24 663.467,1142.23C683.047,1133.98 705.963,1129.5 727.091,1127.87C722.672,1104.52 710.578,1094.09 686.37,1098.93C659.535,1104.3 644.527,1119.11 627.521,1138.75C630.987,1122.08 633.124,1115.76 644.007,1102.38C630.919,1108.57 624.648,1113.1 616.309,1125.39C607.311,1122.78 604.015,1121.1 595.955,1116.35C590.01,1112.85 578.122,1098.72 574.313,1097.98ZM463.202,536.072C461.223,538.225 456.985,542.746 455.625,545.103C448.182,558.002 447.909,576.983 448.33,591.47C448.911,611.466 454.498,630.741 460.04,649.781C468.728,640.742 477.964,629.162 491.404,628.857C493.41,628.828 495.416,628.849 497.421,628.92C502.552,633.452 516.408,650.169 521.788,656.188L540.722,676C512.303,625.876 479.383,592.852 463.202,536.072ZM197.53,1004.41C188.846,1010.89 179.951,1026.96 175.735,1036.91C175.409,1029.29 176.039,1023.06 177.528,1015.54C177.917,1013.58 179.332,1008.7 177.754,1007.55C170.355,1002.18 162.729,1009.97 158.72,1015.34C147.887,1029.88 145.02,1045.95 143.195,1063.38L153.061,1068.6C125.319,1094.06 125.838,1139.73 150.371,1167.02C166.508,1184.97 196.728,1182.53 218.429,1179.06C236.669,1176.14 234.271,1151.66 218.539,1143.03C200.787,1137.19 180.484,1142.37 163.781,1149.35C167.341,1144.22 168.635,1142.36 173.055,1137.81C168.245,1133.23 166.117,1130.94 166.503,1123.79L167.283,1123.39C182.509,1131.84 181.887,1131.72 200.161,1129.49C193.603,1127.96 188.301,1127.17 182.789,1123.18C181.545,1120.37 181.337,1119.05 183.379,1116.4C187.037,1115.21 194.317,1118.72 198.394,1119.06C201.872,1119.34 205.62,1119.09 209.093,1118.9C202.455,1117.59 184.925,1114.26 187.099,1105.3L188.514,1103.82C195.243,1103.97 199.049,1109.14 205.2,1106.81L205.605,1105.48C203.015,1102.18 189.953,1097.43 196.118,1092.31C198.347,1092.3 200.061,1092.31 202.3,1092.08C205.862,1088.43 199.984,1080.87 197.719,1077.12C195.96,1080.73 191.384,1091.26 189.264,1093.4L188.322,1093.17C185.177,1085.26 190.393,1068.77 191.453,1060.09C192.843,1048.69 191.993,1036.5 196.396,1025.73C197.977,1021.83 199.908,1018.71 202.207,1015.23C203.898,1012.67 207.873,1009.94 207.578,1007.19C204.858,1004.86 201.048,1004.65 197.53,1004.41ZM304.943,712.292C297.258,720.481 292.751,724.372 282.155,728.759C282.887,735.148 283.347,739.298 284.873,745.56C287.732,743.771 291.022,741.815 293.773,739.937C304.212,734.148 308.727,733.509 320.419,731.822C319.898,725.045 319.8,720.466 319.931,713.663L304.943,712.292ZM481.017,464.364C443.094,482.608 478.419,557.253 511.924,529.755C506.28,539.771 503.161,545.63 491.709,549.254C488.469,548.515 484.599,547.737 481.502,546.705C485.801,559.283 491.063,572.648 497.761,584.154C515.428,614.503 542.558,646.251 556.751,678.289L560.858,687.174C569.422,675.628 573.704,668.503 578.911,655.039C571.126,649.245 560.525,640.379 554.841,632.642C552.924,635.179 555.55,636.355 552.794,638.343C547.691,637.598 534.77,627.942 530.498,624.469C519.484,615.517 514.654,604.141 510.121,591.22L509.451,595.015L508.604,595.095C504.553,590.082 503.814,579.204 503.795,572.998C503.693,540.126 529.04,505.325 508.363,473.947C502.806,465.515 490.218,463.656 481.017,464.364ZM482.283,474.05C506.749,472.862 504.073,493.526 508.184,510.784C504.992,507.482 501.92,503.206 496.976,505.093C493.296,510.078 496.48,516.143 494.88,520.179L492.793,519.658C478.751,499.934 501.975,498.866 489.167,485.331C484.504,480.404 478.883,491.033 475.708,491.351C471.402,484.776 475.144,477.155 482.283,474.05ZM377.902,860.491C375.52,867.792 373.936,874.186 372.108,881.662C379.067,882.879 383.073,882.952 390.217,882.71C391.469,876.566 392.496,872.281 394.293,866.277C388.428,864.398 383.629,862.765 377.902,860.491ZM411.352,870.418L408.278,880.038L417.509,875.997L425.871,872.735C421.32,871.984 415.861,870.93 411.352,870.418ZM597.678,1093.77C593.277,1094.4 588.924,1094.93 584.625,1096.08C586.992,1098.4 589.641,1101.13 592.073,1103.32C594.331,1100.79 600.783,1095.23 601.487,1093.71C599.608,1093.3 599.513,1093.43 597.678,1093.77ZM619.844,1097.32C611.388,1101.02 607.049,1103.6 600.784,1110.52C603.267,1112.08 605.571,1113.88 608.386,1114.3C608.81,1113.91 609.433,1113.44 609.664,1112.99C617.554,1104.3 621.211,1101.72 632.103,1097.28C628.496,1097.24 623.315,1097.03 619.844,1097.32Z" style="fill:rgb(134,0,0);" data-color="color-3"/>
        <path d="M652.326,669.017L653.418,671.302C647.458,674.752 644.11,676.193 637.754,678.814C642.531,674.817 646.888,670.1 651.232,665.617L651.827,665.778L652.326,669.017ZM182.193,628.056C205.29,626.816 230.26,635.544 248.208,650.171C262.693,661.04 277.187,686.275 272.461,704.929C268.874,719.089 264.708,727.187 269.384,742.841C270.079,745.168 271.787,751.781 272.014,754.241L269.514,757.063C271.33,763.983 292.366,761.84 295.447,759.418C312.397,746.096 339.34,744.675 351.01,765.453C352.959,768.924 352.883,773.544 353.044,778.036C346.516,776.895 342.244,776.966 335.758,777.071C332.552,772.505 326.348,764.895 319.734,767.93C319.728,769.722 321.331,771.644 322.4,773.349C326.798,780.361 324.07,788.996 322.433,796.743L328.719,790.956C335.678,797.536 336.242,800.421 338.27,809.587C339.758,808.79 341.317,808.133 342.927,807.624C349.023,805.698 353.317,808.369 358.598,811.061C355.72,802.635 354.812,800.21 345.883,797.744C342.616,791.899 341.03,790.381 336.008,785.833C353.249,787.95 371.422,793.626 373.52,813.796C375.56,833.403 356.275,832.418 342.58,836.562C336.924,838.273 329.26,842.306 323.469,842.433C317.985,840.132 304.276,829.255 298.316,825.052C302.055,832.782 308.6,847.323 315.913,851.839C324.977,857.436 336.585,850.241 345.75,847.968C350.483,846.794 355.333,845.724 360.125,844.521C359.835,844.816 359.543,845.11 359.248,845.401C348.396,856.119 334.692,860.286 319.72,860.187C314.786,864.673 305.832,871.305 299.157,866.333C296.474,864.335 295.436,861.254 292.221,859.694C287.804,863.628 293.291,871.596 296.047,874.909C295.027,875.029 294.006,875.134 292.983,875.224C264.215,877.71 263.574,874.53 248.18,853.245C231.704,830.465 223.342,827.839 220.838,797.605C196.719,773.716 175.561,750.327 161.209,719.009C155.47,706.488 146.774,687.325 151.652,673.937C149.258,668.274 145.212,658.737 144.753,652.82C143.291,633.979 168.024,629.27 182.193,628.056ZM174.832,647.912C170.285,650.49 166.605,652.705 163.951,657.385C153.808,675.275 164.508,704.143 177.051,718.17L184.467,725.768C174.639,705.234 170.768,687.622 171.792,664.463C171.98,660.219 175.025,650.225 174.832,647.912ZM241.946,820.272C246.144,832.084 260.408,858.929 273.691,861.374C266.697,852.549 259.752,843.775 252.88,834.857C250.65,831.961 243.928,822.135 241.946,820.272ZM190,691.385C193.129,719.23 211.795,761.814 241.505,769.017C223.955,750.662 207.594,727.472 196.349,704.636C195.048,701.993 191.395,692.997 190,691.385ZM255.427,811.894C263.594,828.307 274.854,849.297 295.046,851.377C289.298,846.182 284.086,841.447 278.651,835.987C273.028,830.338 261.495,815.319 255.427,811.894ZM661.346,363.736L657.534,350.853C684.311,380.301 686.59,393.799 689.556,433.346L688.912,434.467L685.947,433.461C682.342,405.578 680.462,385.663 661.346,363.736ZM805.44,702.118C787.203,735.453 798.593,732.559 829.114,747.536C828.322,780.64 814.501,817.531 788.334,838.913C777.022,848.156 773.083,850.283 758.809,844.321C742.518,837.518 732.123,828.855 725.323,812.277C712.883,781.953 724.183,753.444 744.956,730.539C751.727,722.989 759.354,714.65 765.237,706.391C767.941,702.595 770.684,695.554 772.589,691.071C776.841,691.395 784.341,691.493 787.029,687.729L786.572,686.778C778.74,684.912 773.097,682.147 767.327,676.486C758.218,667.548 739.078,645.905 739.002,633.144C738.933,621.642 747.579,603.358 755.468,594.995C768.633,595.634 772.304,593.74 774.8,606.007C775.835,611.09 787.876,611.956 789.621,603.823C786.843,602.527 784.107,604.274 779.547,603.302L779.016,602.07C781.265,594.86 791.004,595.26 795.536,598.902C805.683,607.055 789.853,621.951 780.586,622.987C770.709,624.092 766.859,621.436 759.094,615.945L758.073,616.158C756.185,623.391 761.732,627.804 767.103,631.055C764.273,632.754 754.088,637.274 753.257,638.63C757.958,641.89 782.923,635.626 791.498,643.903C809.642,661.414 800.959,684.356 787.935,701.598C796.711,696.999 798.659,694.698 805.385,687.706C804.439,690.715 798.804,701.099 799.415,703.201C801.738,703.13 803.209,702.667 805.44,702.118ZM794.82,806.169C788.573,814.576 782.265,823.758 773.823,830.136C771.919,831.575 768.565,833.021 768.725,834.703C777.229,833.923 781.137,832.374 787.262,825.834C790.924,821.925 794.961,811.047 794.82,806.169ZM784.351,717.584C781.407,722.242 765.94,748.369 767.189,752.352C771.032,747.283 785.172,723.029 784.351,717.584ZM572.396,452.314C588.67,452.955 613.008,457.865 629.185,461.021C648.31,464.753 669.655,469.219 688.361,474.446C683.464,487.232 681.126,490.43 668.757,496.705C667.834,491.712 666.754,488.8 664.533,484.29C661.774,493.632 659.875,498.055 654.181,505.929C658.178,514.618 659.046,518.583 660.491,527.711C668.586,532.953 678.141,539.192 667.109,550.42C657.622,560.076 639.948,545.913 631.599,541.722C628.285,540.058 621.503,539.927 617.146,539.726C619.776,524.037 628.251,525.517 641.057,527.813C625.36,517.641 611.808,520.411 607.649,540.269C604.18,539.587 600.656,539.225 597.121,539.187C572.6,539.05 561.782,553.12 561.977,576.304C579.576,549.665 585.184,557.445 611.936,565.6C602.68,566.523 595.854,567.048 586.593,567.015C586.151,564.507 586.766,565.484 584.661,564.005C578.914,564.735 570.267,578.39 573.595,582.488C576.05,582.666 584.894,576.622 591.601,575.385C609.172,572.145 627.341,570.672 645.195,570.054C649.253,570.272 657.057,570.09 660.048,573.313C665.175,578.839 664.512,598.085 654.075,596.875C651.455,595.545 650.28,592.713 648.824,590.103C652.131,588.755 654.119,588.273 655.555,585.29C650.716,573.042 608.458,585.622 599.005,589.502C605.17,592.48 617.654,593.828 620.377,599.26C618.905,611.345 591.714,611.219 584.883,603.937C583.78,602.762 578.438,598.355 577.418,597.962C576.969,599.176 576.857,599.235 576.087,600.293C567.104,597.527 558.211,580.2 556.075,571.408C551.673,553.29 558.358,545.748 567.304,531.408C558.402,534.725 550.687,538.926 542.352,543.425C532.707,521.713 539.663,496.983 545.271,475.061C547.417,466.673 564.72,455.806 572.396,452.314ZM585.739,456.098C576.4,458.928 573.205,461.001 568.46,469.863C567.908,470.898 567.368,471.939 566.84,472.986C584.222,463.511 598.664,467.115 610.676,482.548C606.017,483.326 602.458,483.698 598.518,486.395C588.875,492.995 583.303,501.858 595.079,510.252L595.777,509.675C594.982,504.891 594.439,500.957 597.31,496.624C600.216,492.237 606.804,488.733 611.91,490.983L612.348,492.389C609.66,496.569 609.298,495.828 604.421,495.553L603.286,496.957C602.661,502.207 602.062,505.418 605.306,509.448C610.294,515.646 616.764,515.774 622.512,510.643C624.523,508.848 626.362,505.299 628.137,503.781C634.012,504.163 638.241,507.353 643.567,502.724C647.781,499.062 651.188,487.863 647.46,483.319L646.723,483.629L646.635,484.637C646.239,488.974 645.499,492.066 640.42,492.555C623.582,488.635 624.352,454.034 585.739,456.098ZM481.017,464.364C490.218,463.656 502.806,465.515 508.363,473.947C529.04,505.325 503.693,540.126 503.795,572.998C503.814,579.204 504.553,590.082 508.604,595.095L509.451,595.015L510.121,591.22C514.654,604.141 519.484,615.517 530.498,624.469C534.77,627.942 547.691,637.598 552.794,638.343C555.55,636.355 552.924,635.179 554.841,632.642C560.525,640.379 571.126,649.245 578.911,655.039C573.704,668.503 569.422,675.628 560.858,687.174L556.751,678.289C542.558,646.251 515.428,614.503 497.761,584.154C491.063,572.648 485.801,559.283 481.502,546.705C484.599,547.737 488.469,548.515 491.709,549.254C503.161,545.63 506.28,539.771 511.924,529.755C478.419,557.253 443.094,482.608 481.017,464.364ZM482.283,474.05C475.144,477.155 471.402,484.776 475.708,491.351C478.883,491.033 484.504,480.404 489.167,485.331C501.975,498.866 478.751,499.934 492.793,519.658L494.88,520.179C496.48,516.143 493.296,510.078 496.976,505.093C501.92,503.206 504.992,507.482 508.184,510.784C504.073,493.526 506.749,472.862 482.283,474.05ZM860.438,588.746C873.915,589.887 881.511,600.564 882.924,613.443C883.125,615.277 883.159,616.772 881.94,618.107C878.198,617.012 874.417,616.054 870.604,615.235L868.885,605.778C863.621,616.024 861.653,617.51 851.267,621.59L851.247,622.697C854.245,623.535 855.578,623.463 856.876,625.688C855.536,629.708 845.918,636.27 841.533,634.761C821.824,627.977 851.139,593.4 860.438,588.746ZM837.576,575.817C841.984,576.481 845.014,577.282 848.13,580.681C848.603,582.156 849.279,583.158 848.135,584.5C836.079,598.64 829.661,607.078 822.77,624.411C819.914,626.217 816.285,626.495 813.53,624.493C808.062,612.49 826.955,583.058 837.576,575.817ZM304.943,712.292L319.931,713.663C319.8,720.466 319.898,725.045 320.419,731.822C308.727,733.509 304.212,734.148 293.773,739.937C291.022,741.815 287.732,743.771 284.873,745.56C283.347,739.298 282.887,735.148 282.155,728.759C292.751,724.372 297.258,720.481 304.943,712.292ZM707.694,689.889C719.908,693.484 735.438,699.366 747.737,703.618L742.52,709.895L738.916,713.554C732.668,712.71 727.029,711.657 720.898,713.126C717.036,704.842 712.515,697.63 707.694,689.889ZM812.342,565.216C815.77,564.981 819.794,566.38 821.59,569.463C822.84,575.298 810.698,594.217 808.087,594.997C805.037,588.872 801.604,587.93 795.5,586.467C800.704,577.075 803.6,571.724 812.342,565.216ZM784.304,560.849C789.003,560.916 791.782,563.043 795.497,565.598C793.97,568.899 785.352,583.775 783.112,586.183L781.492,586.201C777.168,585.278 772.042,584.628 767.615,583.956C771.426,573.868 775.48,567.051 784.304,560.849ZM669.875,506.025C672.616,506.063 673.907,505.795 676.153,507.307C677.117,510.175 674.318,511.756 674.592,512.722C676.017,517.739 676.005,523.707 675.62,528.681C667.286,521.977 669.027,525.005 671.934,515.46C672.058,515.053 670.096,507.722 669.875,506.025Z" style="fill:white;" data-color="color-4"/>
        <path d="M517.755,866.566C539.17,865.293 560.659,866.954 581.624,871.504C607.493,877.259 642.457,891.176 657.919,914.062C672.345,935.414 653.325,963.3 646.634,984.389C641.324,1001.12 637.12,1017.99 633.121,1035.16C620.759,1033.59 609.322,1034.17 596.988,1035.27C605.05,1016.84 611.471,1000.93 620.606,982.801C597.318,1007.15 573.095,1025.49 543.007,1040.86C538.355,1043.23 531.467,1047.58 526.731,1048.94L525.719,1048.28C525.482,1047.5 525.185,1046.29 525.244,1045.5C527.545,1014.64 538.303,982.918 558.832,959.363C561.633,956.149 564.643,953.188 567.741,950.225C554.145,954.144 549.087,956.21 537.233,963.681L536.742,963.068C539.492,950.673 559.603,931.442 570.417,924.382C540.941,931.086 519.41,948.595 502.95,973.62C505.477,954.692 506.686,950.256 512.976,932.142C480.842,963.48 424.594,986.6 383.15,961.587C364.628,950.408 350.544,926.714 362.092,905.774C367.039,896.804 377.679,894.449 386.71,892.467C375.852,900.017 368.291,910.853 363.506,923.089C410.796,885.123 457.762,870.203 517.755,866.566ZM385.633,550.442C403.511,550.076 421.158,557.588 432.005,572.105C432.045,601.233 442.508,649.016 455.412,675.559C457.341,672.41 459.357,669.46 461.829,666.707C467.865,659.985 479.341,649.684 488.958,649.393C501.388,649.018 540.736,692.526 552.579,703.071L552.195,703.737C547.818,711.209 545.263,726.329 543.124,735.594C537.169,761.394 518.179,800.701 499.538,819.425C482.645,820.056 463.16,818.498 446.763,814.444C463.938,824.049 471.115,826.092 490.295,829.937C484.131,837.156 476.286,847.321 470.823,854.917C449.529,855.792 438.374,855.203 417.556,851.849C409.206,849.982 402.702,848.418 394.665,845.584C404.966,838.797 420.311,833.837 432.249,831.123C415.136,818.022 405.554,807.921 395.015,789.189C404.101,791.503 414.034,792.827 423.34,794.148C403.377,783.125 388.98,770.358 378.264,750.187C384.654,753.887 391.264,757.193 398.057,760.086C422.681,770.303 456.081,774.838 481.257,764.386C439.969,760.756 411.973,750.239 385.093,718.817C404.883,690.328 412.901,655.181 410.926,620.911C409.489,595.967 404.923,568.111 385.633,550.442ZM685.947,433.461C667.769,424.908 627.739,429.003 606.708,430.314C635.111,436.211 712.74,452.159 735.061,465.889C713.021,466.724 679.779,456.772 657.217,451.81C606.171,440.585 558.381,433.582 506.04,433.019C480.546,432.745 461.87,431.471 437.153,439.233C456.385,421.783 500.671,422.938 526.255,422.138C549.846,421.202 573.454,420.733 597.064,420.733C592.4,419.005 582.655,417.054 577.437,415.898C558.192,411.668 538.784,408.215 519.261,405.547C524.574,378.159 540.794,356.55 563.798,341.458C522.776,353.983 509.83,374.664 483.581,406.935C484.27,405.095 484.983,403.264 485.72,401.442C501.237,363.201 548.764,317.195 593.437,336.232C619.526,347.35 636.148,376.7 646.284,401.864C642.396,367.184 629.325,336.152 593.542,324.159C601.502,324.022 607.453,323.768 615.14,326.595C645.658,337.819 651.387,378.514 664.035,404.704C666.713,387.958 664.295,380.206 661.346,363.736C680.462,385.663 682.342,405.578 685.947,433.461ZM361.696,554.262C384.49,552.749 398.194,600.909 399.87,618.971C402.089,642.895 400.03,667.54 384.81,687.372C375.81,699.098 364.02,702.455 350.34,704.042C363.554,693.795 371.031,689.95 376.677,674.356C360.474,685.066 343.215,689.361 324.02,689.758C332.986,671.336 328.346,638.717 313.39,624.409L312.5,624.713C316.939,639.072 316.776,650.858 314.551,665.49C301.171,614.18 284.593,597.518 235.604,579.278C265.949,569.433 290.51,566.666 321.838,574.075C339.77,578.315 350.256,581.707 365.986,591.406C356.9,578.569 352.049,573.161 338.985,564.325C346.569,559.669 353.307,556.934 361.696,554.262ZM605.238,686.002C606.259,686.079 610.854,687.745 610.82,688.744C610.319,703.573 607.89,722.846 604.826,737.442C624.153,727.697 636.271,718.225 650.423,702.355C649.047,709.26 647.225,716.581 645.163,723.271C633.544,760.965 589.922,817.243 555.119,835.126C562.39,833.433 569.344,830.166 577.334,828.196C570.987,836.795 566.071,840.261 557.319,845.943C549.801,846.345 542.288,846.83 534.782,847.399C531.806,847.546 530.167,847.629 527.13,847.35C526.032,845.153 529.025,841.396 527.104,837.131C521.65,825.03 510.465,832.533 504.259,839.253C501.02,842.76 499.964,845.843 498.356,850.534L485.453,852.384C490.246,845.418 496.616,837.766 502.095,831.356C515.655,830.025 536.722,822.775 547.895,815.043C538.183,817.431 522.256,819.677 511.995,821.392C529.716,797.807 543.626,774.304 551.545,745.595C554.308,735.576 555.786,725.273 558.625,715.187C575.508,707.108 591.554,699.343 605.238,686.002ZM551.296,771.042C543.032,775.425 536.269,786.472 541.597,795.249C542.947,797.44 545.117,799.001 547.623,799.586C549.913,800.143 551.919,800.051 554.196,799.615C562.818,795.939 569.677,787.073 565.444,777.585C564.107,774.563 561.519,772.275 558.355,771.319C556.322,770.726 553.443,770.935 551.296,771.042ZM552.789,778.945C556.518,778.853 556.983,778.918 559.355,781.622C560.738,786.715 557.525,790.056 553.773,792.831C550.087,792.413 551.313,792.989 548.67,790.981C546.502,786.248 549.531,782.162 552.789,778.945ZM569.492,712.388C560.917,716.952 555.166,728.673 560.029,737.56C561.314,739.909 563.464,741.664 566.023,742.452C567.962,743.043 569.917,743.168 571.912,742.909C581.285,738.855 587.214,730.643 582.639,720.427C581.129,717.142 578.38,714.588 574.992,713.324C572.986,712.57 571.598,712.418 569.492,712.388ZM570.965,720.366C580.504,722.171 578.025,731.721 572.221,736.882C563.473,732.054 563.908,726.736 570.965,720.366ZM192.413,587.396C219.512,585.2 246.396,593.683 267.326,611.033C285.237,626.415 296.45,648.169 298.586,671.679C299.848,687.279 296.328,695.609 286.507,707.136C290.066,688.76 286.444,677.723 278.157,661.559C257.367,625.984 216.419,612.019 177.204,611.921C188.885,605.723 203.549,604.947 216.684,603.575C198.686,596.735 182.711,596.27 165.146,603.614C172.889,593.312 180.004,589.903 192.413,587.396ZM463.202,536.072C479.383,592.852 512.303,625.876 540.722,676L521.788,656.188C516.408,650.169 502.552,633.452 497.421,628.92C495.416,628.849 493.41,628.828 491.404,628.857C477.964,629.162 468.728,640.742 460.04,649.781C454.498,630.741 448.911,611.466 448.33,591.47C447.909,576.983 448.182,558.002 455.625,545.103C456.985,542.746 461.223,538.225 463.202,536.072ZM594.364,1051.06C604.132,1050.33 614.831,1050.69 624.513,1052.09C640.93,1054.47 640.711,1063.55 637.803,1076.71C611.673,1067.53 569.021,1079.53 543.697,1087.95C530.368,1092.8 522.122,1096.92 509.991,1104C509.766,1102.84 509.566,1101.67 509.391,1100.5C508.625,1095.31 507.167,1081.12 510.573,1077.9C527.872,1061.57 572.706,1052.47 594.364,1051.06ZM722.337,728.92C723.441,728.938 724.229,729.096 725.313,729.256C725.621,732.17 723.662,734.146 721.858,736.335C712.847,747.275 706.613,761.506 704.816,775.666C702.05,797.634 708.245,819.79 722.006,837.139C732.429,850.666 747.803,859.495 764.742,861.682C739.248,872.279 720.058,857.709 705.979,836.792C694.727,817.191 690.672,796.823 693.133,774.417C681.529,797.51 679.135,813.055 684.228,838.418C673.757,819.762 672.908,805.624 677.984,785.056C683.898,761.098 699.229,738.945 722.337,728.92ZM679.226,681.302C685.873,685.349 701.457,713.327 705.294,720.675C683.046,735.182 675.96,755.609 664.879,778.258L664.717,769.688L664.681,754.462C658.766,761.96 652.881,767.857 646.25,774.658C663.489,736.799 672.57,724.297 679.226,681.302ZM342.914,969.448C347.041,971.515 354.169,978.255 359.179,980.996C380.255,992.528 402.033,998.758 425.703,1001.6C431.71,1002.34 437.749,1002.8 443.798,1002.97C446.517,1003.05 456.915,1002.68 458.494,1003.15L457.428,1003.69C420.813,1013.91 363.524,1004.94 342.914,969.448ZM591.874,659.589C605.659,662.588 614.394,673.419 621.841,684.188C605.591,670.377 607.793,668.192 592.333,682.4C584.609,688.027 576.835,693.585 569.011,699.073C580.351,683.161 583.486,677.096 591.874,659.589ZM321.991,982.539C322.094,983.386 307.67,1010.6 305.714,1016.3C304.927,1018.6 300.266,1036.77 299.763,1038.12L298.78,1037.11C288.651,1010.52 300.698,997.764 321.991,982.539ZM377.902,860.491C383.629,862.765 388.428,864.398 394.293,866.277C392.496,872.281 391.469,876.566 390.217,882.71C383.073,882.952 379.067,882.879 372.108,881.662C373.936,874.186 375.52,867.792 377.902,860.491ZM516.24,838.435C519.287,839.118 519.781,839.785 521.186,841.944C520.458,847.668 516.121,848.328 511.263,849.164C509.531,849.103 509.462,849.175 507.768,848.55L507.496,846.817C508.931,842.996 512.796,840.311 516.24,838.435ZM411.352,870.418C415.861,870.93 421.32,871.984 425.871,872.735L417.509,875.997L408.278,880.038L411.352,870.418Z" style="fill:rgb(44,137,64);" data-color="color-1"/>
        <path d="M123.904,1142.82C123.524,1139.77 122.78,1135.64 123.55,1132.79C124.894,1135.02 125.363,1139.48 125.825,1142.26C148.022,1219.14 222.438,1184.43 227.684,1192.41C227.405,1193.22 227.394,1194.13 226.641,1194.36C210.582,1199.32 192.334,1199.01 175.675,1197.91C153.734,1196.46 138.369,1183.13 129.584,1163.57C126.579,1157 124.66,1150 123.904,1142.82ZM448.89,520.824C441.471,521.716 438.039,526.986 429.582,529.664C406.519,519.82 385.719,517.775 360.872,522.741C355.76,519.936 322.185,508.41 314.706,505.68C280.474,492.848 246.131,480.316 211.68,468.087C216.159,452.067 222.781,433.581 228.116,417.621C272.967,434.15 317.908,450.432 362.937,466.468C390.481,476.239 419.213,485.832 446.476,496.167C433.436,508.684 438.547,510.977 448.537,520.483L448.89,520.824ZM406.088,434.998C404.467,445.118 406.296,450.543 412.293,458.946C413.521,460.666 414.82,462.336 416.208,463.93L283.442,416.921C259.475,408.305 232.774,399.019 209.396,389.179C211.844,381.184 213.21,377.649 218.513,371.356C245.446,379.099 274.264,389.751 300.918,399.024L406.088,434.998ZM335.581,530.491C318.077,539.364 317.735,543.269 298.792,541.082C299.272,541.061 300.175,540.778 300.686,540.644C298.959,538.999 181.606,495.973 169.727,491.549C171.716,485.097 173.128,481.046 175.778,474.84C196.51,480.298 221.747,489.714 242.274,497.054L335.581,530.491ZM695.983,667.652C693.745,658.241 687.615,647.792 682.797,639.535C689.545,630.859 690.895,627.907 692.514,617.182C701.992,620.41 712.86,623.837 722.147,627.293C722.374,655.325 736.77,665.417 752.964,685.669C746.673,683.746 698.411,667.379 695.983,667.652ZM689.165,594.205C688.891,593.604 687.545,590.325 687.866,589.896C693.413,582.479 695.212,579.931 696.833,570.655L742.4,586.759C735.681,593.738 732.512,598.889 728.953,608.04C716.225,603.569 701.612,598.914 689.165,594.205ZM574.313,1097.98C578.122,1098.72 590.01,1112.85 595.955,1116.35C604.015,1121.1 607.311,1122.78 616.309,1125.39C624.648,1113.1 630.919,1108.57 644.007,1102.38C633.124,1115.76 630.987,1122.08 627.521,1138.75C644.527,1119.11 659.535,1104.3 686.37,1098.93C710.578,1094.09 722.672,1104.52 727.091,1127.87C705.963,1129.5 683.047,1133.98 663.467,1142.23C645.547,1150.24 628.13,1161.13 609.826,1168.26C588.934,1176.41 582.802,1173.59 563.988,1165.29L562.008,1174.04C546.693,1176.91 531.144,1177.21 515.874,1174.01C504.677,1160.03 506.479,1143.48 517.504,1129.98C529.104,1131.13 543.315,1131.45 554.113,1126.34C539.201,1127.14 532.985,1127.71 519.707,1120.2C532.194,1112.82 560.626,1102.45 574.313,1097.98ZM197.53,1004.41C201.048,1004.65 204.858,1004.86 207.578,1007.19C207.873,1009.94 203.898,1012.67 202.207,1015.23C199.908,1018.71 197.977,1021.83 196.396,1025.73C191.993,1036.5 192.843,1048.69 191.453,1060.09C190.393,1068.77 185.177,1085.26 188.322,1093.17L189.264,1093.4C191.384,1091.26 195.96,1080.73 197.719,1077.12C199.984,1080.87 205.862,1088.43 202.3,1092.08C200.061,1092.31 198.347,1092.3 196.118,1092.31C189.953,1097.43 203.015,1102.18 205.605,1105.48L205.2,1106.81C199.049,1109.14 195.243,1103.97 188.514,1103.82L187.099,1105.3C184.925,1114.26 202.455,1117.59 209.093,1118.9C205.62,1119.09 201.872,1119.34 198.394,1119.06C194.317,1118.72 187.037,1115.21 183.379,1116.4C181.337,1119.05 181.545,1120.37 182.789,1123.18C188.301,1127.17 193.603,1127.96 200.161,1129.49C181.887,1131.72 182.509,1131.84 167.283,1123.39L166.503,1123.79C166.117,1130.94 168.245,1133.23 173.055,1137.81C168.635,1142.36 167.341,1144.22 163.781,1149.35C180.484,1142.37 200.787,1137.19 218.539,1143.03C234.271,1151.66 236.669,1176.14 218.429,1179.06C196.728,1182.53 166.508,1184.97 150.371,1167.02C125.838,1139.73 125.319,1094.06 153.061,1068.6L143.195,1063.38C145.02,1045.95 147.887,1029.88 158.72,1015.34C162.729,1009.97 170.355,1002.18 177.754,1007.55C179.332,1008.7 177.917,1013.58 177.528,1015.54C176.039,1023.06 175.409,1029.29 175.735,1036.91C179.951,1026.96 188.846,1010.89 197.53,1004.41ZM801.195,627.659C801.695,628.027 801.729,627.981 802.05,628.458C808.21,637.597 814.895,639.995 825.341,636.686C839.342,651.621 857.731,648.215 863.608,628.271L918.993,647.27C928.854,650.657 945.076,655.724 954.126,659.966C952.744,663.991 951.619,668.478 950.492,672.611C944.517,673.013 932.544,674.193 927.564,677.294C923.177,682.9 909.379,729.057 907.539,738.422C911.401,743.445 920.387,750.746 925.552,755.186L922.59,763.668C906.606,760.358 893.688,762.43 878.781,754.308C858.884,744.049 838.302,734.802 818.463,724.369C816.624,723.401 816.263,722.662 815.525,720.89L816.624,718.762C822.9,717.371 868.211,737.778 879.41,740.022C882.112,740.564 885.441,740.787 887.718,738.96C889.174,737.791 906.568,680.65 906.207,677.145C905.992,675.062 903.624,673.749 901.923,672.827C895.667,669.433 888.258,667.364 881.533,664.973C864.113,658.78 846.466,653.313 828.934,647.456C820.292,644.569 810.967,641.993 802.786,637.965C799.789,636.489 797.201,634.055 794.689,631.887L801.195,627.659ZM805.385,687.706C810.378,679.159 813.577,674.711 814.251,664.551C838.616,674.221 865.013,682.687 889.034,693.013C885.769,703.549 882.527,714.572 878.929,724.962C862.539,718.966 846.062,713.208 829.504,707.69C823.071,705.478 816.637,703.023 810.169,700.932C808.269,700.318 806.929,700.82 805.44,702.118C803.209,702.667 801.738,703.13 799.415,703.201C798.804,701.099 804.439,690.715 805.385,687.706ZM714.517,1143.3C719.384,1142.54 729.12,1141.78 733.148,1144.81C737.344,1147.97 736.84,1152.58 736.949,1157.29C704.839,1151.36 676.459,1165.6 647.7,1177.74C636.685,1182.39 628.214,1187.05 616.224,1188.71C605.274,1189.34 600.797,1188.6 590.565,1185.72C616.198,1177.77 630.371,1172.13 654.122,1158.55C669.792,1149.59 696.561,1144.82 714.517,1143.3ZM513.15,1186.15C528.325,1189.31 545.931,1188.85 561.253,1187.01L561.335,1200.61C548.132,1201.65 525.285,1200.63 512.295,1198.49C512.752,1194.47 512.92,1190.21 513.15,1186.15ZM145.601,1010.83L146.559,1011.4C143.71,1018.92 139.337,1027.29 137.215,1034.98C135.061,1042.78 134.914,1053.41 132.589,1061.24C132.409,1061.84 130.79,1062.27 129.952,1062.61C122.468,1056.9 128.455,1035.82 130.989,1027.71C133.556,1019.49 137.907,1014.52 145.601,1010.83ZM619.844,1097.32C623.315,1097.03 628.496,1097.24 632.103,1097.28C621.211,1101.72 617.554,1104.3 609.664,1112.99C609.433,1113.44 608.81,1113.91 608.386,1114.3C605.571,1113.88 603.267,1112.08 600.784,1110.52C607.049,1103.6 611.388,1101.02 619.844,1097.32ZM597.678,1093.77C599.513,1093.43 599.608,1093.3 601.487,1093.71C600.783,1095.23 594.331,1100.79 592.073,1103.32C589.641,1101.13 586.992,1098.4 584.625,1096.08C588.924,1094.93 593.277,1094.4 597.678,1093.77Z" style="fill:rgb(200,146,1);" data-color='color-2'/>
    </g>
</svg>
