<svg width="100%" height="100%" viewBox="0 0 800 935" version="1.1" xmlns="http://www.w3.org/2000/svg" xmlns:xlink="http://www.w3.org/1999/xlink" xml:space="preserve" xmlns:serif="http://www.serif.com/" style="fill-rule:evenodd;clip-rule:evenodd;stroke-linejoin:round;stroke-miterlimit:2;">
    <g transform="matrix(1,0,0,1,-99.635,-74.9386)">
        <path d="M502.711,96.214C558.839,93.731 616.799,109.117 662.083,142.931C709.131,177.795 740.317,229.996 748.718,287.948C761.036,295.354 776.21,305.825 778.246,321.304C778.693,324.703 778.886,328.147 779.1,331.569C779.478,337.616 779.811,343.666 780.104,349.718C781.607,381.95 780.142,412.842 775.876,444.779C772.795,467.848 769.145,467.604 754.632,483.516C754.497,490.007 754.574,496.502 754.861,502.988C756.68,544.161 766.533,566.496 797.946,594.529C819.103,613.409 824.89,635.889 826.034,663.121C838.415,668.813 853.052,674.196 865.968,679.849C771.628,770.496 673.515,859.645 568.145,937.273C553.528,948.073 538.794,958.715 523.964,969.222C518.461,973.121 507.501,981.296 502.044,984.241C493.1,979.055 481.608,970.617 473.162,964.543C395.686,909.498 320.082,846.347 248.547,783.796C222.332,760.775 196.346,737.495 170.593,713.958C158.586,702.964 144.905,690.909 133.389,679.576C144.897,673.964 158.141,668.269 169.873,662.896L242.319,629.709C253.076,624.794 265.266,619.649 275.781,614.296C277.794,613.271 286.285,600.45 288.367,597.459L311.634,564.302C311.204,553.878 311.486,546.115 310.687,535.053C303.865,527.008 300.173,522.449 295.36,513.116C291.957,511.505 288.447,509.636 285.637,507.104C276.86,499.197 256.217,470.247 249.55,459.182C238.597,441.002 240.801,358.2 242.482,333.636C242.914,327.327 242.772,320.131 244.489,314.074C248.053,301.5 265.029,291.208 275.623,285.193C283.671,243.484 303.098,204.814 331.757,173.46C376.484,124.017 436.903,99.535 502.711,96.214ZM675.09,726.614C670.141,727.45 663.885,730.776 663.921,736.454C664.235,737.085 664.802,738.67 665.608,738.724C685.212,740.031 700.267,748.28 713.29,763.71L714,764.378C715.509,763.526 720.341,753.916 720.804,752.11C724.998,735.757 693.837,727.005 682.097,726.501C679.943,726.408 677.179,726.514 675.09,726.614ZM718.71,497.361C713.949,508.821 707.486,519.439 701.427,530.225C699.16,534.26 692.641,541.702 691.786,545.501C690.042,553.252 690.386,563.17 689.435,571.191C698.09,576.964 706.053,582.863 711.778,591.76C713.358,594.215 716.771,601.797 718.564,603.294C728.835,611.867 733.298,613.926 739.058,626.535L768.06,638.451C774.554,641.141 781.817,643.991 788.114,646.959C782.367,620.707 766.958,615.276 749.723,596.179C739.098,584.3 731.107,570.307 726.277,555.119C721.082,539.139 719.837,524.598 719.285,508.06C719.214,505.939 719.383,498.122 718.71,497.361ZM506.945,585.189C474.759,589.012 472.534,608.964 473.825,636.274C474.13,643.198 474.56,650.116 475.116,657.024C494.463,645.501 519.541,644.989 541.021,649.804L541.031,631.375C540.99,630.166 541.256,628.489 540.011,627.954C523.818,620.994 501.689,622.964 485.723,626.556C486.023,614.28 489.439,612.564 500.297,610.479C514.909,607.674 526.456,607.895 541.079,609.15L541.02,592.095C530.163,585.217 519.465,584.496 506.945,585.189ZM515.724,278.873C510.726,293.232 504.605,309.172 500.027,323.397C484.535,323.918 468.031,324.626 452.585,324.537L489.993,355.389C486.848,367.277 479.477,389.731 475.283,401.422C484.144,394.961 493.087,388.613 502.074,382.328C504.856,380.382 513.442,374.176 516.162,372.904C528.055,381.344 545.2,392.706 556.231,401.5L541.312,355.214C553.801,345.247 567.214,334.86 579.375,324.616C563.392,324.656 547.409,324.488 531.431,324.112C529.615,318.763 517.248,280.826 515.724,278.873ZM276.536,313.889C269.646,317.727 265.582,320.116 260.387,326.024C259.575,362.698 255.732,412.408 264.097,448.24C269.439,454.025 274.811,457.931 281.288,462.334C285.147,464.805 288.175,466.739 292.28,468.846C287.027,442.247 283.171,415.39 280.731,388.387C279.8,377.247 279.078,366.09 278.623,354.921C278.423,350.004 278.01,316.835 277.056,314.126L276.536,313.889ZM744.267,314.99C743.313,331.021 743.005,347.067 742.563,363.116C741.622,397.3 737.495,430.616 733.259,464.48C737.299,462.382 741.358,460.318 745.303,458.046C748.635,455.923 752.929,453.285 755.677,450.42C757.736,442.543 759.117,430.305 759.905,422.172C761.768,402.945 762.46,383.621 761.969,364.31C761.759,352.031 761.015,339.475 760.998,327.24C756.806,322.623 750.214,317.026 744.267,314.99ZM657.77,751.144C655.399,751.681 646.404,755.476 648.883,759.889C650.279,762.375 660.775,765.365 663.465,767.493C675.936,774.215 685.091,783.203 693.117,794.672C703.988,782.324 704.806,778.952 691.129,766.706C682.491,758.972 669.676,751.417 657.77,751.144ZM694.263,697.667C687.999,698.541 672.62,700.939 674.612,711.036C674.83,712.142 674.926,711.921 675.701,712.721C679.362,713.443 683.606,712.123 687.304,712.124C698.275,712.127 708.803,714.386 718.733,718.893C722.955,721.093 726.285,723.073 730.14,725.909C731.926,720.619 733.836,714.097 731.091,708.881C724.962,697.233 705.408,696.592 694.263,697.667ZM704.096,368.193C704.436,365.042 704.815,356.732 703.973,353.863C703.244,354.991 703.266,357.435 703.161,358.917C700.814,387.192 685.395,416.003 663.11,433.499C646.617,446.448 625.833,454.016 605.191,456.771C606.956,457.4 611.902,457.163 613.902,457.035C630.261,455.989 642.641,452.847 657.443,445.876C676.911,436.732 691.821,420.06 698.741,399.695C702.282,389.569 704.092,378.92 704.096,368.193ZM627.304,549.936C602.961,563.45 594.008,591.516 597.963,618.066C600.509,618.658 610.041,621.278 611.784,620.325L611.752,619.755C609.845,593.361 619.51,571.602 643.022,558.472C639.517,555.646 631.873,549.714 627.304,549.936ZM365.252,616.854C388.451,660.68 422.025,704.708 471.398,720.003C475.225,721.174 479.102,722.177 483.017,723.009C468.725,713.453 454.732,701.944 441.551,690.916C418.453,671.591 395.932,651.092 376.081,628.398C374.039,626.064 367.46,618.315 365.252,616.854ZM577.751,733.988C566.938,743.437 555.075,753.205 545.384,764.613C520.45,793.966 496.472,834.048 492.451,873.052C492.403,873.521 492.381,874.594 492.619,874.983C498.237,861.74 508.264,843.984 515.456,831.598C528.903,808.494 543.127,785.851 558.08,763.691C560.275,760.438 577.751,735.31 577.751,733.988ZM484.84,248.218C436.889,250.613 365.606,259.755 329.789,296.658C314.439,312.474 315.508,334.62 316.182,355.353C316.877,376.727 321.996,393.121 337.073,408.864C334.713,404.262 331.282,397.032 330.437,391.992C327.106,372.124 326.434,340.636 332.381,321.186C341.663,290.832 391.239,276.353 418.377,269.831C472.895,258.92 526.758,258.159 581.968,264.172C624.403,268.794 660.838,276.508 697.951,297.871C692.483,291.803 678.454,283.583 671.259,280.194C615.549,253.954 546.013,245.202 484.84,248.218ZM683.01,599.566C668.438,603.419 651.971,620.745 654.695,636.774C655.059,638.913 657.071,640.609 659.181,640.823C661.025,638.638 661.385,636.952 662.971,634.871C671.659,624.749 684.189,615.49 696.128,609.57C692.802,605.531 688.724,599.458 683.01,599.566ZM591.996,823.4C590.248,824.554 588.781,825.516 588.354,827.733C587.769,830.765 589.882,833.58 591.708,835.754C596.866,841.896 616.936,862.223 624.171,862.904C625.353,863.015 626.497,862.903 627.663,862.701C629.964,860.972 630.402,860.06 632.01,857.717C623.096,851.256 613.901,839.735 604.973,832.611C600.73,829.226 597.824,824.167 591.996,823.4ZM586.503,484.05C591.504,495.215 606.696,503.846 617.332,508.502C620.487,505.552 623.872,502.508 626.898,499.451C629.966,496.351 633.091,493.231 635.971,489.961C615.502,490.086 606.799,489.644 586.503,484.05ZM509.81,456.186C482.477,459.265 468.533,494.582 447.182,508.841C420.784,526.47 386.237,529.629 393.403,570.024C399.073,601.984 419.524,628.545 444.59,648.513C447.932,651.1 453.827,654.984 457.583,656.781C456.873,646.368 456.167,635.951 455.592,625.534C454.804,611.245 455.159,601.238 462.059,588.526C466.148,582.013 470.38,576.91 477.308,572.901C505.828,556.398 554.501,562.029 571.222,593.015C572.842,596.017 574.332,599.601 575.75,602.764C576.339,599.36 576.794,595.944 577.213,592.515C579.64,572.667 588.215,552.507 604.955,540.65C606.366,539.65 607.815,538.707 609.306,537.831C594.222,528.055 583.322,520.29 570.849,507.084C565.133,500.927 559.85,494.382 555.038,487.496C543.319,471.075 532.896,453.348 509.81,456.186ZM511.857,496.198C527.951,494.893 539.264,504.158 547.127,517.397C555.019,530.687 557.087,545.292 558.766,560.332C549.768,541.035 535.814,516.128 511.701,516.527C491.874,520.114 474.885,545.87 466.754,563.104C467.705,546.705 474.207,523.697 484.938,510.888C492.76,501.551 499.812,497.384 511.857,496.198ZM494.58,120.709C437.091,124.801 390.448,146.601 352.458,190.386C332.243,213.635 317.432,241.076 309.089,270.734C307.173,277.387 304.941,286.025 304.09,292.845C351.192,234.412 449.214,223.738 518.999,224.024C566.251,225.536 608.06,230.748 652.63,248.317C645.667,224.799 632.831,202.366 617.403,183.383C642.032,191.743 659.891,207.818 677.628,226C657.547,183.231 626.041,149.442 580.801,132.734C556.51,123.763 520.497,118.458 494.58,120.709ZM333.956,498.305C333.598,526.345 353.542,552.961 372.284,572.342C373.313,573.406 375.553,575.729 376.668,576.651C375.308,565.33 375.16,558.115 374.942,546.755C361.912,535.176 351.069,523.771 341.355,509.202C339.868,506.972 335.505,499.809 333.956,498.305ZM319.403,594.838C313.766,604.981 299.504,627.098 295.656,637.491C291.892,647.658 294.896,673.484 292.924,685.111C292.37,702.716 290.861,721.718 290.941,738.789C312.041,730.454 341.717,718.213 363.277,712.48C385.081,730.808 410.698,747.977 433.566,765.125C444.981,773.685 456.666,780.858 467.323,790.51C474.659,796.877 484.553,807.139 490.956,814.728L498.27,802.339C483.653,779.317 459.53,759.471 438.177,740.859C399.144,706.835 359.645,671.09 335.274,624.246C333.859,621.526 320.379,595.555 319.403,594.838ZM510.327,412.531L509.652,412.761C496.886,417.242 483.707,437.083 472.857,445.95C465.73,451.775 458.913,456.679 449.915,459.624C422.562,468.576 384.741,465.329 358.992,453.334C348.069,448.246 339.903,441.895 331.218,434.114C339.802,459.855 350.921,491.211 367.39,512.985C371.938,518.75 375.738,523.032 380.908,528.36C391.183,515.808 417.125,499.725 432.485,492.293C468.987,474.631 497.97,403.738 544.24,441.731C545.809,443.037 547.359,444.365 548.889,445.717C540.91,434.41 525.434,411.241 510.327,412.531ZM637.464,775.538C629.162,779.283 628.037,783.598 635.654,789.269C642.594,794.436 651.212,801.267 657.807,807.112C659.922,808.986 668.981,820.95 670.149,821.346L670.485,821.154C672.617,819.041 679.193,813.246 678.452,810.032C675.593,797.636 650.148,774.889 637.464,775.538ZM707.887,662.194C700.522,663.065 692.931,664.942 686.541,668.791C677.519,674.225 673.226,678.542 679.159,688.153C686.376,684.086 690.159,682.598 698.156,680.288C711.534,677.941 720.062,677.813 733.025,682.633C730.44,665.666 726.786,660.035 707.887,662.194ZM614.095,800.505C609.815,803.374 605.917,806.524 610.942,811.331C616.617,816.76 643.983,842.401 649.784,842.663C656.882,838.049 656.641,834.004 651.038,827.907C643.522,819.728 625.568,799.968 614.095,800.505ZM656.848,575.486C638.044,584.06 626.131,605.37 632.367,625.792C634.456,626.185 636.809,626.945 638.67,626.161C639.684,625.004 639.576,624.145 639.718,622.592C644.873,604.933 655.232,593.399 669.718,582.77C666.09,579.772 661.523,575.454 656.848,575.486ZM701.275,629.618C689.516,631.979 679.288,637.04 672.304,647.104C670.344,649.928 668.252,656.68 670.415,659.734C673.284,660.286 679.815,655.381 682.598,653.617C695.409,646.514 705.064,644.688 719.388,643.543C714.791,633.731 713.071,628.507 701.275,629.618ZM504.344,668.193C498.251,668.899 494.812,669.373 489.53,672.962C501.865,677.274 510.561,677.199 523.62,676.442C529.093,675.842 533.681,675.224 538.958,673.528C529.5,668.372 521.961,667.949 511.154,667.92C509.852,667.916 505.337,668.001 504.344,668.193Z"  data-color="color-3"/>
        <path d="M515.724,278.873C517.248,280.826 529.615,318.763 531.431,324.112C547.409,324.488 563.392,324.656 579.375,324.616C567.214,334.86 553.801,345.247 541.312,355.214L556.231,401.5C545.2,392.706 528.055,381.344 516.162,372.904C513.442,374.176 504.856,380.382 502.074,382.328C493.087,388.613 484.144,394.961 475.283,401.422C479.477,389.731 486.848,367.277 489.993,355.389L452.585,324.537C468.031,324.626 484.535,323.918 500.027,323.397C504.605,309.172 510.726,293.232 515.724,278.873Z" style="fill:rgb(255,191,9);"  data-color="color-2"/>
        <path d="M503.807,75.214C580.174,71.696 659.657,102.031 710.019,160.297C737.615,192.222 759.795,233.817 766.485,275.792C779.1,284.935 788.96,294.935 794.743,309.668C797.97,317.889 798.221,326.594 798.844,335.305C799.527,345.193 799.93,355.098 800.053,365.009C800.335,396.527 799.706,442.15 788.712,472.12C786.298,478.701 779.875,485.809 775.022,490.751C775,526.463 778.882,552.041 806.494,576.892C829.421,597.527 842.662,618.691 845.414,649.97C863.446,657.944 882.259,665.656 899.483,675.227C810.59,762.969 717.009,845.83 619.151,923.447C581.476,952.889 541.402,981.2 502.449,1008.96C492.533,1002.31 482.709,995.521 472.981,988.596C340.497,894.424 217.764,786.011 99.635,674.511C112.145,667.891 129.922,660.251 143.07,654.134L222.125,617.091L247.535,605.286C271.054,594.444 263.274,595.409 277.738,577.543C304.225,544.825 285.489,535.76 264.558,511.579C254.206,499.432 244.562,486.698 235.677,473.44C232.122,468.04 229.321,461.733 227.973,455.319C220.169,418.129 220.922,380.183 222.273,342.488C223.535,307.292 226.517,292.841 257.626,272.793C267.72,230.872 288.043,192.104 316.778,159.955C365.597,105.508 431.8,79.186 503.807,75.214ZM502.711,96.214C436.903,99.535 376.484,124.017 331.757,173.46C303.098,204.814 283.671,243.484 275.623,285.193C265.029,291.208 248.053,301.5 244.489,314.074C242.772,320.131 242.914,327.327 242.482,333.636C240.801,358.2 238.597,441.002 249.55,459.182C256.217,470.247 276.86,499.197 285.637,507.104C288.447,509.636 291.957,511.505 295.36,513.116C300.173,522.449 303.865,527.008 310.687,535.053C311.486,546.115 311.204,553.878 311.634,564.302L288.367,597.459C286.285,600.45 277.794,613.271 275.781,614.296C265.266,619.649 253.076,624.794 242.319,629.709L169.873,662.896C158.141,668.269 144.897,673.964 133.389,679.576C144.905,690.909 158.586,702.964 170.593,713.958C196.346,737.495 222.332,760.775 248.547,783.796C320.082,846.347 395.686,909.498 473.162,964.543C481.608,970.617 493.1,979.055 502.044,984.241C507.501,981.296 518.461,973.121 523.964,969.222C538.794,958.715 553.528,948.073 568.145,937.273C673.515,859.645 771.628,770.496 865.968,679.849C853.052,674.196 838.415,668.813 826.034,663.121C824.89,635.889 819.103,613.409 797.946,594.529C766.533,566.496 756.68,544.161 754.861,502.988C754.574,496.502 754.497,490.007 754.632,483.516C769.145,467.604 772.795,467.848 775.876,444.779C780.142,412.842 781.607,381.95 780.104,349.718C779.811,343.666 779.478,337.616 779.1,331.569C778.886,328.147 778.693,324.703 778.246,321.304C776.21,305.825 761.036,295.354 748.718,287.948C740.317,229.996 709.131,177.795 662.083,142.931C616.799,109.117 558.839,93.731 502.711,96.214ZM484.84,248.218C546.013,245.202 615.549,253.954 671.259,280.194C678.454,283.583 692.483,291.803 697.951,297.871C660.838,276.508 624.403,268.794 581.968,264.172C526.758,258.159 472.895,258.92 418.377,269.831C391.239,276.353 341.663,290.832 332.381,321.186C326.434,340.636 327.106,372.124 330.437,391.992C331.282,397.032 334.713,404.262 337.073,408.864C321.996,393.121 316.877,376.727 316.182,355.353C315.508,334.62 314.439,312.474 329.789,296.658C365.606,259.755 436.889,250.613 484.84,248.218ZM718.71,497.361C719.383,498.122 719.214,505.939 719.285,508.06C719.837,524.598 721.082,539.139 726.277,555.119C731.107,570.307 739.098,584.3 749.723,596.179C766.958,615.276 782.367,620.707 788.114,646.959C781.817,643.991 774.554,641.141 768.06,638.451L739.058,626.535C733.298,613.926 728.835,611.867 718.564,603.294C716.771,601.797 713.358,594.215 711.778,591.76C706.053,582.863 698.09,576.964 689.435,571.191C690.386,563.17 690.042,553.252 691.786,545.501C692.641,541.702 699.16,534.26 701.427,530.225C707.486,519.439 713.949,508.821 718.71,497.361Z" style="fill:white;"/>
        <path d="M510.327,412.531C525.434,411.241 540.91,434.41 548.889,445.717C547.359,444.365 545.809,443.037 544.24,441.731C497.97,403.738 468.987,474.631 432.485,492.293C417.125,499.725 391.183,515.808 380.908,528.36C375.738,523.032 371.938,518.75 367.39,512.985C350.921,491.211 339.802,459.855 331.218,434.114C339.903,441.895 348.069,448.246 358.992,453.334C384.741,465.329 422.562,468.576 449.915,459.624C458.913,456.679 465.73,451.775 472.857,445.95C483.707,437.083 496.886,417.242 509.652,412.761L510.327,412.531ZM586.503,484.05C606.799,489.644 615.502,490.086 635.971,489.961C633.091,493.231 629.966,496.351 626.898,499.451C623.872,502.508 620.487,505.552 617.332,508.502C606.696,503.846 591.504,495.215 586.503,484.05Z" style="fill:rgb(206,179,141);"  data-color="color-4"/>
        <path d="M494.58,120.709C520.497,118.458 556.51,123.763 580.801,132.734C626.041,149.442 657.547,183.231 677.628,226C659.891,207.818 642.032,191.743 617.403,183.383C632.831,202.366 645.667,224.799 652.63,248.317C608.06,230.748 566.251,225.536 518.999,224.024C449.214,223.738 351.192,234.412 304.09,292.845C304.941,286.025 307.173,277.387 309.089,270.734C317.432,241.076 332.243,213.635 352.458,190.386C390.448,146.601 437.091,124.801 494.58,120.709ZM509.81,456.186C532.896,453.348 543.319,471.075 555.038,487.496C559.85,494.382 565.133,500.927 570.849,507.084C583.322,520.29 594.222,528.055 609.306,537.831C607.815,538.707 606.366,539.65 604.955,540.65C588.215,552.507 579.64,572.667 577.213,592.515C576.794,595.944 576.339,599.36 575.75,602.764C574.332,599.601 572.842,596.017 571.222,593.015C554.501,562.029 505.828,556.398 477.308,572.901C470.38,576.91 466.148,582.013 462.059,588.526C455.159,601.238 454.804,611.245 455.592,625.534C456.167,635.951 456.873,646.368 457.583,656.781C453.827,654.984 447.932,651.1 444.59,648.513C419.524,628.545 399.073,601.984 393.403,570.024C386.237,529.629 420.784,526.47 447.182,508.841C468.533,494.582 482.477,459.265 509.81,456.186ZM511.857,496.198C499.812,497.384 492.76,501.551 484.938,510.888C474.207,523.697 467.705,546.705 466.754,563.104C474.885,545.87 491.874,520.114 511.701,516.527C535.814,516.128 549.768,541.035 558.766,560.332C557.087,545.292 555.019,530.687 547.127,517.397C539.264,504.158 527.951,494.893 511.857,496.198ZM319.403,594.838C320.379,595.555 333.859,621.526 335.274,624.246C359.645,671.09 399.144,706.835 438.177,740.859C459.53,759.471 483.653,779.317 498.27,802.339L490.956,814.728C484.553,807.139 474.659,796.877 467.323,790.51C456.666,780.858 444.981,773.685 433.566,765.125C410.698,747.977 385.081,730.808 363.277,712.48C341.717,718.213 312.041,730.454 290.941,738.789C290.861,721.718 292.37,702.716 292.924,685.111C294.896,673.484 291.892,647.658 295.656,637.491C299.504,627.098 313.766,604.981 319.403,594.838ZM704.096,368.193C704.092,378.92 702.282,389.569 698.741,399.695C691.821,420.06 676.911,436.732 657.443,445.876C642.641,452.847 630.261,455.989 613.902,457.035C611.902,457.163 606.956,457.4 605.191,456.771C625.833,454.016 646.617,446.448 663.11,433.499C685.395,416.003 700.814,387.192 703.161,358.917C703.266,357.435 703.244,354.991 703.973,353.863C704.815,356.732 704.436,365.042 704.096,368.193ZM506.945,585.189C519.465,584.496 530.163,585.217 541.02,592.095L541.079,609.15C526.456,607.895 514.909,607.674 500.297,610.479C489.439,612.564 486.023,614.28 485.723,626.556C501.689,622.964 523.818,620.994 540.011,627.954C541.256,628.489 540.99,630.166 541.031,631.375L541.021,649.804C519.541,644.989 494.463,645.501 475.116,657.024C474.56,650.116 474.13,643.198 473.825,636.274C472.534,608.964 474.759,589.012 506.945,585.189ZM276.536,313.889L277.056,314.126C278.01,316.835 278.423,350.004 278.623,354.921C279.078,366.09 279.8,377.247 280.731,388.387C283.171,415.39 287.027,442.247 292.28,468.846C288.175,466.739 285.147,464.805 281.288,462.334C274.811,457.931 269.439,454.025 264.097,448.24C255.732,412.408 259.575,362.698 260.387,326.024C265.582,320.116 269.646,317.727 276.536,313.889ZM744.267,314.99C750.214,317.026 756.806,322.623 760.998,327.24C761.015,339.475 761.759,352.031 761.969,364.31C762.46,383.621 761.768,402.945 759.905,422.172C759.117,430.305 757.736,442.543 755.677,450.42C752.929,453.285 748.635,455.923 745.303,458.046C741.358,460.318 737.299,462.382 733.259,464.48C737.495,430.616 741.622,397.3 742.563,363.116C743.005,347.067 743.313,331.021 744.267,314.99ZM577.751,733.988C577.751,735.31 560.275,760.438 558.08,763.691C543.127,785.851 528.903,808.494 515.456,831.598C508.264,843.984 498.237,861.74 492.619,874.983C492.381,874.594 492.403,873.521 492.451,873.052C496.472,834.048 520.45,793.966 545.384,764.613C555.075,753.205 566.938,743.437 577.751,733.988ZM365.252,616.854C367.46,618.315 374.039,626.064 376.081,628.398C395.932,651.092 418.453,671.591 441.551,690.916C454.732,701.944 468.725,713.453 483.017,723.009C479.102,722.177 475.225,721.174 471.398,720.003C422.025,704.708 388.451,660.68 365.252,616.854ZM627.304,549.936C631.873,549.714 639.517,555.646 643.022,558.472C619.51,571.602 609.845,593.361 611.752,619.755L611.784,620.325C610.041,621.278 600.509,618.658 597.963,618.066C594.008,591.516 602.961,563.45 627.304,549.936ZM675.09,726.614C677.179,726.514 679.943,726.408 682.097,726.501C693.837,727.005 724.998,735.757 720.804,752.11C720.341,753.916 715.509,763.526 714,764.378L713.29,763.71C700.267,748.28 685.212,740.031 665.608,738.724C664.802,738.67 664.235,737.085 663.921,736.454C663.885,730.776 670.141,727.45 675.09,726.614ZM333.956,498.305C335.505,499.809 339.868,506.972 341.355,509.202C351.069,523.771 361.912,535.176 374.942,546.755C375.16,558.115 375.308,565.33 376.668,576.651C375.553,575.729 373.313,573.406 372.284,572.342C353.542,552.961 333.598,526.345 333.956,498.305ZM657.77,751.144C669.676,751.417 682.491,758.972 691.129,766.706C704.806,778.952 703.988,782.324 693.117,794.672C685.091,783.203 675.936,774.215 663.465,767.493C660.775,765.365 650.279,762.375 648.883,759.889C646.404,755.476 655.399,751.681 657.77,751.144ZM694.263,697.667C705.408,696.592 724.962,697.233 731.091,708.881C733.836,714.097 731.926,720.619 730.14,725.909C726.285,723.073 722.955,721.093 718.733,718.893C708.803,714.386 698.275,712.127 687.304,712.124C683.606,712.123 679.362,713.443 675.701,712.721C674.926,711.921 674.83,712.142 674.612,711.036C672.62,700.939 687.999,698.541 694.263,697.667ZM637.464,775.538C650.148,774.889 675.593,797.636 678.452,810.032C679.193,813.246 672.617,819.041 670.485,821.154L670.149,821.346C668.981,820.95 659.922,808.986 657.807,807.112C651.212,801.267 642.594,794.436 635.654,789.269C628.037,783.598 629.162,779.283 637.464,775.538ZM707.887,662.194C726.786,660.035 730.44,665.666 733.025,682.633C720.062,677.813 711.534,677.941 698.156,680.288C690.159,682.598 686.376,684.086 679.159,688.153C673.226,678.542 677.519,674.225 686.541,668.791C692.931,664.942 700.522,663.065 707.887,662.194ZM614.095,800.505C625.568,799.968 643.522,819.728 651.038,827.907C656.641,834.004 656.882,838.049 649.784,842.663C643.983,842.401 616.617,816.76 610.942,811.331C605.917,806.524 609.815,803.374 614.095,800.505ZM656.848,575.486C661.523,575.454 666.09,579.772 669.718,582.77C655.232,593.399 644.873,604.933 639.718,622.592C639.576,624.145 639.684,625.004 638.67,626.161C636.809,626.945 634.456,626.185 632.367,625.792C626.131,605.37 638.044,584.06 656.848,575.486ZM701.275,629.618C713.071,628.507 714.791,633.731 719.388,643.543C705.064,644.688 695.409,646.514 682.598,653.617C679.815,655.381 673.284,660.286 670.415,659.734C668.252,656.68 670.344,649.928 672.304,647.104C679.288,637.04 689.516,631.979 701.275,629.618ZM683.01,599.566C688.724,599.458 692.802,605.531 696.128,609.57C684.189,615.49 671.659,624.749 662.971,634.871C661.385,636.952 661.025,638.638 659.181,640.823C657.071,640.609 655.059,638.913 654.695,636.774C651.971,620.745 668.438,603.419 683.01,599.566ZM591.996,823.4C597.824,824.167 600.73,829.226 604.973,832.611C613.901,839.735 623.096,851.256 632.01,857.717C630.402,860.06 629.964,860.972 627.663,862.701C626.497,862.903 625.353,863.015 624.171,862.904C616.936,862.223 596.866,841.896 591.708,835.754C589.882,833.58 587.769,830.765 588.354,827.733C588.781,825.516 590.248,824.554 591.996,823.4ZM504.344,668.193C505.337,668.001 509.852,667.916 511.154,667.92C521.961,667.949 529.5,668.372 538.958,673.528C533.681,675.224 529.093,675.842 523.62,676.442C510.561,677.199 501.865,677.274 489.53,672.962C494.812,669.373 498.251,668.899 504.344,668.193Z" style="fill:rgb(4,126,77);"  data-color="color-1"/>
    </g>
</svg>
