<svg width="100%" height="100%" viewBox="0 0 2168 3386" version="1.1" xmlns="http://www.w3.org/2000/svg" xmlns:xlink="http://www.w3.org/1999/xlink" xml:space="preserve" xmlns:serif="http://www.serif.com/" style="fill-rule:evenodd;clip-rule:evenodd;stroke-linejoin:round;stroke-miterlimit:2;">
    <g transform="matrix(1,0,0,1,-198.104,-302.448)">
        <path d="M1542.86,383.13C1560.11,381.159 1581.43,382.115 1599.07,381.771C1633.59,381.1 1667.62,382.154 1702.1,384.321C1886.04,395.312 2068.74,434.574 2247.34,501.49C2228.22,526.839 2204.95,562.421 2186.32,589.625C2085.23,734.697 1994.39,895.031 1915.25,1068.08C1932.54,1076.41 1956.47,1092.79 1973.14,1103.86C1952.43,1151.89 1932.27,1200.93 1911.19,1248.48C1969.4,1290.19 2016.52,1336.4 2063.64,1402.99C2164.53,1545.55 2213.1,1770.7 2215.37,1975.56C2186.85,2003.96 2150.28,2033.66 2119.99,2058.16C2157.02,2160.48 2176.74,2318.04 2192.33,2431.33C2156.68,2432.56 2120.85,2435.33 2085.27,2436.07C2077.58,2469.74 2069.44,2494.18 2061.61,2525.59C2077.76,2582.12 2072.13,2599.84 2043.38,2642.13C2059.62,2703.22 2077.45,2786.78 2092.73,2850.83C2034.13,2889.77 1973.16,2921.7 1909.94,2938.59C1883,2945.79 1873.69,2950.42 1847.12,2935.73C1823,2922.4 1796.1,2912.79 1771.43,2901.09C1775.83,2918 1779.96,2937.22 1783.94,2954.52C1876.85,3006.05 1947.91,3057.84 2035.2,3128.18C1995.41,3208.76 1956.04,3289.82 1917.1,3371.34C1887.16,3433.6 1855.1,3498.55 1826.65,3562.21C1793.75,3538.86 1747.66,3513.65 1712.78,3490.96C1638.21,3442.74 1564.92,3390.18 1493.08,3333.4C1421.11,3275.72 1349.96,3215.78 1279.68,3153.61C1211.14,3093.63 1141.66,3032.12 1071.62,2976.1C847.308,2796.67 620.929,2702.6 369.676,2659.35C454.829,2604.37 582.257,2485.27 648.496,2384.82C670.929,2350.8 690.341,2305.36 707.765,2265.15C677.411,2297.91 645.337,2331.02 613.941,2361.56C593.497,2381.45 571.235,2398.66 550.57,2418.95C536.879,2399.6 521.977,2380.62 507.863,2360.89C383.546,2187.06 294.86,1945.49 288.03,1687.4C280.925,1418.9 362.245,1182.41 482.226,989.707C743.68,569.772 1170.61,399.307 1542.86,383.13Z" style="fill:rgb(0,68,30);fill-rule:nonzero;" data-color="color-1"/>
        <path d="M1998.36,2300.57C2008.23,2306.73 2019.14,2312.75 2027.68,2322.24L2030.19,2321.15C2034.9,2290.84 2003.89,2093.59 1996.14,2057.18C2009.04,2062.36 2044.71,2074.36 2052.96,2086.28C2096.82,2149.59 2110.72,2296.67 2116.45,2379.28L1945.75,2338.89C1933.67,2336.02 1891.53,2328.55 1882.79,2323.38C1894.04,2298.8 1900.59,2291.68 1917.2,2277.13C1940.23,2279.11 1976.13,2292.09 1998.36,2300.57ZM1854.09,1924.51C1853.02,1927.29 1852.83,1929.32 1851.18,1929.22C1830.39,1927.9 1801.49,1916.94 1781.6,1912.2C1755.32,1906.16 1729.01,1900.48 1702.67,1895.15C1581.46,1870.64 1467.07,1859.43 1345.34,1851.55C1382.33,2131.54 1513.76,2177.31 1674.78,2235.25C1674.59,2319.21 1677.92,2412.05 1679.79,2496.41L1688.38,2889.68C1677.95,2886.67 1617.2,2842.4 1604.38,2833.11C1604.21,2824.42 1603.59,2815.73 1603.06,2807.06C1604.64,2767.22 1600.83,2707.89 1600.51,2666.3C1599.53,2536.07 1594.8,2403.65 1594.84,2273.6C1559.53,2261.73 1525.61,2245.9 1491.5,2228.81C1382.41,2174.16 1314.78,2110.69 1240.28,1980.32C1253.54,1950.25 1274.09,1907.69 1268.66,1870.65C1267.33,1861.56 1266.61,1853.97 1261.51,1848.72C1258.42,1850.75 1252.27,1870.5 1246.04,1879.93C1233.99,1898.17 1227,1904.75 1212.47,1918.63C1214.64,1921.62 1214.62,1918.69 1217.68,1923.44C1200.56,1941.51 1181.33,1954.62 1160.99,1962.08C1133.56,1971.92 1096.19,1967.9 1074.09,1944.24C993.997,1858.46 1055.88,1740.83 1130.43,1721.9C1162.14,1713.85 1205.96,1710.75 1232.16,1736.23C1241.9,1743.04 1245.9,1746.1 1254.34,1755.73C1275.72,1740.24 1306.36,1729.9 1329.75,1720.32C1362.02,1707.29 1394.12,1693.24 1426,1678.18C1592.32,1598.39 1764.5,1487.84 1904.03,1328.21C1977.77,1451.4 2023.49,1620.6 2041.77,1782.65C2049.69,1663.56 2050.96,1578.87 2022.77,1462.52C2110.48,1600.61 2131.85,1756.85 2147.1,1939.86C2126.52,1962.5 2096.38,1989.08 2074.04,2007.78C2041.25,1991.67 1975.11,1968.83 1941.98,1958.29C1938.89,1900.26 1930.39,1831.57 1924.29,1774.05C1922.36,1755.88 1916.49,1706.43 1912.84,1689.96C1909.77,1657.44 1902.07,1614.29 1896.75,1582.27C1893.56,1723.08 1877.95,1790.42 1854.09,1924.51ZM558.968,1986.61C535.065,1997.15 484.322,2028.92 458.969,2043.58C420.74,1923.29 410.824,1859.94 400.338,1728.96C435.736,1714.14 470.894,1698.06 505.783,1680.73C533.83,1667.03 563.995,1651.19 592.322,1640.05C529.499,1640.82 461.951,1645.96 399.114,1650.51C404.42,1514.85 424.931,1403.15 468.265,1283.43C492.79,1290.9 526.938,1295.36 552.4,1299.19L695.2,1319.11C635.037,1281.99 561.518,1236.05 500.884,1203.79C560.994,1071.18 633.502,966.939 720.211,874.588C787.261,932.582 859.921,987.794 928.698,1042.14C934.838,1047.79 945.997,1055.83 952.716,1061.08C946.392,1051.72 940.564,1041.53 934.669,1031.56C919.686,1003.97 898.26,970.281 882.017,943.711C853.267,896.33 824.173,849.423 794.738,802.999C915.934,694.228 1018.36,637.951 1154.14,584.826C1177.36,647.679 1203.14,709.084 1227.22,771.247C1233.79,788.2 1240.95,806.644 1248.38,822.709C1253.63,837.09 1259.43,851.573 1264.96,865.761C1262.11,842.256 1260.84,800.098 1257.83,781.857C1254.24,709.428 1244.64,624.023 1242.41,553.917C1354.74,520.406 1468.98,503.578 1583.51,503.676C1576.04,574.532 1570.12,645.736 1565.75,717.173C1564.97,729.549 1562.18,768.167 1562.91,777.829C1560.33,799.8 1560.42,825.193 1557.71,849.776C1567.46,819.815 1580.72,783.714 1589.08,754.16C1597.36,741.107 1660.58,533.991 1670.09,505.77C1788.93,508.391 1938.68,533.364 2055.98,567.127C2038.83,594.741 2019.34,625.036 2003.3,653.652C1988.34,675.925 1968.62,711.532 1954.73,735.971C1911.67,811.209 1871.19,889.675 1833.44,971.068C1829.56,979.416 1814.76,1009.92 1814.11,1017.88C1809.75,1022.57 1810.34,1023.94 1804.86,1022.52C1494.78,941.878 1144.44,1004.9 881.901,1279.33C830.518,1333.04 743.47,1452.17 713.909,1535.78C704.018,1554.53 694.097,1584.37 686.871,1606.35C651.769,1713.1 635.813,1824 643.596,1943.03C646.489,1987.26 668.206,2090.82 685.229,2125.72C678.766,2129.58 650.237,2158.84 642.83,2166.24L553.963,2255.06C530.222,2211.67 510.43,2170.15 489.266,2123.99C492.875,2117.82 496.295,2111.27 499.726,2104.87C504.047,2100.04 522.619,2068.75 527.257,2061.09C545.118,2031.14 563.267,2001.58 581.699,1972.43C574.345,1977.28 566.428,1981.97 558.968,1986.61ZM1420.46,1254.87C1551.7,1245.27 1666.77,1269.34 1788.13,1343.17C1766.38,1367.21 1717.11,1407.4 1692.74,1426.83C1550.28,1540.38 1402.34,1609.11 1247.65,1671.9C1242.2,1666.76 1236.49,1662.26 1230.57,1658.46C1179.02,1625.89 1118.96,1640.79 1068.65,1671.12C1119.74,1577.45 1173.39,1519.76 1246.49,1468.72C1350.59,1396.29 1450.27,1381.32 1562.91,1370.37C1385.88,1313.53 1198.09,1339.48 1030.44,1446.37C1006.81,1461.43 983.609,1482.78 961.277,1501.85C1087.29,1327.65 1253.61,1266.54 1420.46,1254.87ZM1848.37,2538.69C1891.99,2528.39 1938.21,2514.05 1982.76,2514.23C1992.71,2529.76 2003.55,2556.77 2003.29,2578.57L2001.95,2582.48C1998.49,2583.2 1998.67,2582.99 1995.29,2581.41C1948.34,2567.79 1900.67,2556.28 1853.66,2542.84C1849.18,2541.55 1850.1,2542.72 1848.37,2538.69ZM1428.8,2279.68C1461.57,2292.07 1507.28,2316.12 1541.65,2331.48C1542.4,2408.63 1537.06,2482.98 1532.38,2559.72C1532.18,2563.23 1531.8,2566.8 1531.47,2570.31L1529.93,2571.2C1519.93,2545.96 1507.19,2504.88 1497.51,2477.24C1474.36,2411.58 1451.45,2345.73 1428.8,2279.68ZM1629.74,1967.86C1643.71,1968.6 1669.94,1975.7 1684.25,1979.28C1743.93,1993.94 1802.91,2014.39 1860.82,2040.51C1866.78,2043.25 1883.39,2050.24 1887.76,2054.29L1885.59,2055.17C1828.87,2069.53 1753.38,2069.29 1700.09,2035.38C1674.83,2019.31 1651.23,1993.24 1629.74,1967.86Z" style="fill:rgb(254,254,254);" data-color="color-3"/>
        <path d="M1540.73,304.86C1574.49,300.974 1634.88,302.763 1669.65,303.551C1905.34,310.172 2139.44,363.134 2365.95,461.079C2250.13,632.176 2100.94,845.635 2010.2,1045.7C2026.53,1055.7 2046.03,1071.12 2062.8,1082.54C2041.64,1128.51 2019.35,1173.07 2000.37,1221.35C2044.49,1258.56 2085.24,1304.11 2121.63,1356.88C2204.98,1478.34 2247.83,1613.91 2271.42,1783.27C2282.27,1861.19 2288.8,1922.42 2289.51,2002.41C2263.59,2031.44 2233.35,2057.2 2205.33,2081.05C2229.1,2217.81 2246.48,2357.95 2269.61,2493.85C2229.02,2493.12 2182.59,2498.78 2141.3,2500.14C2135.71,2531.15 2130.99,2555.67 2131.84,2587.9C2132.49,2613.05 2124.04,2639.68 2117.54,2662.75C2129.24,2726.42 2153.98,2813.38 2168.94,2879.81C2102.45,2934.86 2048.42,2959.63 1976.85,2991.19C2026.79,3026.04 2085.54,3076.13 2133.88,3116.89C2106.1,3170.08 2077.7,3229.23 2051.09,3283.8C1986,3417.12 1922.1,3551.74 1859.42,3687.63C1844.52,3677.36 1828.3,3667.68 1813.01,3658.71C1710.77,3598.73 1612.95,3529.18 1514.41,3456.81C1418.59,3384.35 1324.23,3307.62 1231.46,3226.71C1139.72,3146.58 1048.49,3062.43 953.717,2990.42C722.074,2814.43 454.85,2734.98 198.104,2686.16C302.668,2630.32 402.574,2556.53 495.83,2466.26C480.588,2448.44 465.828,2429.72 451.588,2410.12C315.026,2219.56 222.095,1959.99 214.512,1677.66C203.471,1266.53 398.313,913.901 615.954,699.557C889.743,429.915 1217.12,321.831 1540.73,304.86ZM1542.86,383.13C1170.61,399.307 743.68,569.772 482.226,989.707C362.245,1182.41 280.925,1418.9 288.03,1687.4C294.86,1945.49 383.546,2187.06 507.863,2360.89C521.977,2380.62 536.879,2399.6 550.57,2418.95C571.235,2398.66 593.497,2381.45 613.941,2361.56C645.337,2331.02 677.411,2297.91 707.765,2265.15C690.341,2305.36 670.929,2350.8 648.496,2384.82C582.257,2485.27 454.829,2604.37 369.676,2659.35C620.929,2702.6 847.308,2796.67 1071.62,2976.1C1141.66,3032.12 1211.14,3093.63 1279.68,3153.61C1349.96,3215.78 1421.11,3275.72 1493.08,3333.4C1564.92,3390.18 1638.21,3442.74 1712.78,3490.96C1747.66,3513.65 1793.75,3538.86 1826.65,3562.21C1855.1,3498.55 1887.16,3433.6 1917.1,3371.34C1956.04,3289.82 1995.41,3208.76 2035.2,3128.18C1947.91,3057.84 1876.85,3006.05 1783.94,2954.52C1779.96,2937.22 1775.83,2918 1771.43,2901.09C1796.1,2912.79 1823,2922.4 1847.12,2935.73C1873.69,2950.42 1883,2945.79 1909.94,2938.59C1973.16,2921.7 2034.13,2889.77 2092.73,2850.83C2077.45,2786.78 2059.62,2703.22 2043.38,2642.13C2072.13,2599.84 2077.76,2582.12 2061.61,2525.59C2069.44,2494.18 2077.58,2469.74 2085.27,2436.07C2120.85,2435.33 2156.68,2432.56 2192.33,2431.33C2176.74,2318.04 2157.02,2160.48 2119.99,2058.16C2150.28,2033.66 2186.85,2003.96 2215.37,1975.56C2213.1,1770.7 2164.53,1545.55 2063.64,1402.99C2016.52,1336.4 1969.4,1290.19 1911.19,1248.48C1932.27,1200.93 1952.43,1151.89 1973.14,1103.86C1956.47,1092.79 1932.54,1076.41 1915.25,1068.08C1994.39,895.031 2085.23,734.697 2186.32,589.625C2204.95,562.421 2228.22,526.839 2247.34,501.49C2068.74,434.574 1886.04,395.312 1702.1,384.321C1667.62,382.154 1633.59,381.1 1599.07,381.771C1581.43,382.115 1560.11,381.159 1542.86,383.13ZM1509.09,1118.87C1521.86,1116.91 1548.03,1117.77 1561.89,1117.75C1617.94,1117.78 1673.94,1122.95 1729.57,1133.21C1755.68,1137.77 1781.61,1144.46 1807.33,1148.82C1792.01,1184.94 1776.82,1221.2 1761.78,1257.59C1727.39,1246.2 1693.28,1234.72 1658.39,1227.25C1664.85,1212.19 1671.88,1192.87 1677.98,1177.14C1573.07,1162.49 1488.56,1158.47 1382.52,1174.39C1375.09,1174.14 1341.49,1181.15 1333.01,1182.88C1242.29,1201.45 1158.65,1238.71 1073.12,1286.52C1087.5,1270.06 1126.83,1244.41 1144.11,1233.22C1261.97,1156.96 1381.48,1128.23 1509.09,1118.87ZM1043.48,2251.61C1044.02,2252.6 1044.78,2253.77 1044.9,2255.11C1054.92,2363.1 1040.2,2461.66 1000.79,2554.02C1066.4,2588.38 1150.18,2660.57 1203.53,2727.71C1224.75,2754.42 1242.78,2783.64 1263.37,2809.37C1248.49,2799.79 1225.09,2780.19 1209.8,2768.78C1182.05,2748.36 1154.02,2728.8 1125.72,2710.12C1041.78,2655.01 953.872,2614.61 863.75,2589.73C843.427,2584.13 815.615,2576.4 795.19,2575.36C900.908,2503.94 994.094,2415.82 1043.48,2251.61ZM1468.27,2017.03C1494.21,2023.85 1523.67,2023.51 1549.78,2034.87C1581.43,2048.64 1609.76,2073.53 1641.38,2090.19C1740.47,2142.4 1828.43,2140.03 1929.99,2117.05C1966.09,2160.53 2026.39,2248.41 2027.68,2322.24C2019.14,2312.75 2008.23,2306.73 1998.36,2300.57C1993.75,2293.14 1974.84,2279.39 1968.17,2274.58C1944.21,2253.67 1918.16,2240.46 1891.41,2230.25C1815.03,2271.64 1784.88,2323.83 1777.06,2444.97C1792.59,2418.52 1833.21,2377.12 1856.23,2379.15C1890.98,2382.22 1935.76,2392.53 1970.08,2400.86C1979.5,2422.56 1987.35,2440.74 1995.07,2464.18C1918.85,2462.58 1855.16,2466.05 1797.51,2550.56C1795.29,2553.83 1793.08,2557.12 1790.9,2560.43C1809.64,2552.25 1829.1,2543.63 1848.37,2538.69C1891.99,2528.39 1938.21,2514.05 1982.76,2514.23C1992.71,2529.76 2003.55,2556.77 2003.29,2578.57L2001.95,2582.48C1998.49,2583.2 1998.67,2582.99 1995.29,2581.41C1987.38,2585.49 1964.93,2588.01 1955.04,2589.85C1905.67,2599 1877.45,2617.71 1839.75,2665.45C1882.67,2652.83 1934.78,2654.98 1977.93,2663.71C1988.99,2710.73 2003.09,2755.92 2014.45,2805.47C1976.31,2825.18 1930.85,2841.69 1890.69,2861.6C1843.69,2830.03 1796.74,2795.13 1749.5,2763.12C1748.56,2703.31 1746.05,2642.14 1744.84,2582.08C1742.47,2453.73 1741.51,2325.32 1741.95,2196.92C1643.44,2166.15 1528.61,2157.31 1468.27,2017.03ZM847.614,1586.13C847.467,1589.46 835.981,1623.41 834.104,1629.78C825.601,1658.63 819.048,1688.69 814.545,1719.5C793.736,1858.58 811.006,1991.48 861.265,2111.16C858.701,2132.79 855.187,2154.13 850.746,2175.06C820.882,2316.07 756.941,2405.87 671.411,2472.01C668.443,2474.75 668.649,2474.8 665.245,2475.63C665.893,2472.22 680.008,2454.49 683.133,2450.11C700.579,2425.42 716.863,2398.94 731.867,2370.87C775.137,2289.06 793.665,2223.18 814.272,2124.83C788.367,2038.35 768.441,1986.37 767.788,1883.36C767.116,1777.31 796.755,1661.3 847.614,1586.13ZM1212.47,1918.63C1214.64,1921.62 1214.62,1918.69 1217.68,1923.44C1200.56,1941.51 1181.33,1954.62 1160.99,1962.08C1133.56,1971.92 1096.19,1967.9 1074.09,1944.24C993.997,1858.46 1055.88,1740.83 1130.43,1721.9C1162.14,1713.85 1205.96,1710.75 1232.16,1736.23C1229.07,1744.17 1226.17,1767.36 1224.96,1777.03C1216.1,1848.28 1210.39,1886.33 1177.3,1940.55C1190.28,1933.43 1200.01,1927.13 1212.47,1918.63ZM1076.33,2050.72C1092.37,2055.03 1108.6,2057.48 1124.89,2058.06C1132.16,2086.05 1142.46,2115.95 1150.03,2145.24C1182.48,2270.73 1198.11,2370.58 1191.7,2505.16C1239.7,2544.48 1287.87,2583.38 1336.18,2621.84C1391.6,2666.9 1447.17,2711.54 1502.89,2755.76C1536.03,2781.64 1570.27,2805.6 1603.09,2831.82C1602.79,2823.15 1602.93,2815.69 1603.06,2807.06C1603.59,2815.73 1604.21,2824.42 1604.38,2833.11C1617.2,2842.4 1677.95,2886.67 1688.38,2889.68C1690.05,2896.7 1695.76,2958.18 1697.23,2970.44C1542.51,2881.36 1398.67,2743.96 1253.94,2623.84C1211.84,2588.89 1169.07,2554.24 1127.51,2518.05C1152.45,2359.97 1119.37,2194.15 1076.33,2050.72ZM591.489,2600.31C601.453,2600.06 611.099,2601.4 620.944,2601.86C855.659,2612.67 1076.48,2740.15 1282.19,2901.93C1351.43,2956.39 1421.57,3011.75 1491.96,3063.78C1581.47,3129.95 1672.19,3194.84 1768.46,3236.22C1774.08,3166.91 1768.61,3115.08 1760.25,3047.36C1793.9,3103.73 1827.85,3159.71 1862.08,3215.29L1876.06,3236.85C1848.1,3280.49 1811.53,3350.39 1783.75,3398.31C1639.45,3316.6 1516.37,3211.91 1383.21,3097.19C1273.28,3002.5 1160.83,2906.83 1046.22,2825.9C947.982,2755.9 845.736,2699.34 740.724,2656.91C700.607,2640.32 660.789,2623.8 620.034,2611.17C611.134,2608.41 599.856,2605.18 591.489,2600.31Z" style="fill:rgb(30,124,68);" data-color="color-2"/>
    </g>
</svg>
