<?xml version="1.0" encoding="UTF-8" standalone="no"?>
<!DOCTYPE svg PUBLIC "-//W3C//DTD SVG 1.1//EN" "http://www.w3.org/Graphics/SVG/1.1/DTD/svg11.dtd">
<svg width="100%" height="100%" viewBox="0 0 966 1270" version="1.1" xmlns="http://www.w3.org/2000/svg" xmlns:xlink="http://www.w3.org/1999/xlink" xml:space="preserve" xmlns:serif="http://www.serif.com/" style="fill-rule:evenodd;clip-rule:evenodd;stroke-linejoin:round;stroke-miterlimit:2;">
    <g transform="matrix(1,0,0,1,-11.1635,-83.044)">
        <path d="M408.015,854.207C396.169,845.362 384.918,835.747 374.335,825.424C377.808,804.929 384.214,773.41 384.189,753.907C392.253,755.164 399.683,754.72 407.609,752.771C411.6,765.821 417.278,781.878 425.315,793.326C463.75,848.075 526.077,884.702 583.357,917.059C588.825,920.148 592.782,928.566 596.1,933.609C604.547,947.762 619.214,953.017 634.872,955.469C627.918,975.699 620.475,995.758 612.549,1015.63L603.499,952.408C593.172,948.491 524.033,924.079 518.232,919.352C479.134,901.9 442.155,880.043 408.015,854.207ZM621.142,1290.56C615.739,1289.73 590.033,1277.84 584.114,1275.32C563.196,1266.43 543.669,1254.36 523.935,1243.35C486.294,1222.67 451.941,1198.96 418.605,1171.93C391.571,1150.01 366.036,1126.72 338.196,1105.9C321.992,1093.78 305.445,1082.09 288.581,1070.94C260.051,1051.91 230.619,1034.27 200.387,1018.08C191.66,1013.51 159.358,999.192 153.653,995.327C237.836,1019.92 302.25,1050.3 373.278,1102.7C397.002,1120.21 419.554,1140.41 443.701,1156.79C470.956,1175.43 498.967,1192.94 527.66,1209.27C556.138,1225.22 588.601,1241.04 618.142,1255.31C716.026,1188.03 792.99,1124.3 859.803,1024.63C836.777,1107.36 749.504,1195.73 682.043,1247.97C670.058,1257.27 657.783,1266.18 645.235,1274.7C637.761,1279.73 628.148,1285.53 621.142,1290.56ZM295.718,328.362L285.286,340.053C299.563,308.398 331.873,278.978 362.93,264.286C399.458,247.006 439.411,242.917 477.762,256.225C481.427,257.801 483.541,259.084 486.979,261.159C428.906,259.136 376.652,269.81 327.089,302.447C313.648,311.298 306.547,320.093 295.718,328.362ZM328.687,662.891C328.39,660.077 326.557,653.596 325.792,650.589C328.727,646.78 332.63,639.788 337.792,642.74C339.713,645.84 339.524,650.933 339.6,654.66C342.421,672.241 348.152,683.689 363.118,694.512L363.502,694.788C356.991,685.095 354.686,680.642 352.013,668.86C351.208,663.941 353.207,657.334 354.837,652.785C361.277,651.63 364.918,651.784 371.296,652.082C371.459,657.802 372.181,662.313 373.615,667.818C379.44,679.742 385.311,683.799 396.269,691.017C389.3,676.754 388.286,670.816 385.14,655.473C390.593,660.232 400.122,667.974 404.376,673.434C408.064,678.167 408.203,681.756 413.356,687.264C424.61,695.354 426.77,693.358 437.719,697.093C438.792,696.889 439.766,696.594 440.817,696.304C441.328,694.58 438.986,678.875 438.554,675.698C436.22,658.533 435.281,641.497 434.265,624.228C439.298,620.604 443.267,617.253 447.991,613.253C461.265,599.431 466.396,591.569 476.443,575.643C478.179,571.694 480.589,562.654 483.321,559.982C490.01,553.441 501.723,547.778 509.961,543.235C554.319,518.771 602.587,502.771 649.42,484.131C662.385,478.971 702.041,464.294 711.848,457.953C712.83,461.893 714.579,466.598 715.913,470.506C722.679,486.045 724.973,497.901 729.265,514.022C731.306,521.689 740.775,536.256 745.088,543.435L733.732,549.101L696.817,566.829L688.197,556.679C687.464,562.352 686.794,568.42 685.943,574.04C685.188,579.18 684.484,584.609 683.59,589.703C681.329,582.538 680.662,581.446 675.125,576.546C675.081,576.554 675.038,576.563 674.994,576.571C674.934,585.391 674.876,590.027 672.835,598.852C675.524,604.662 681.778,626.667 683.054,633.577C686.367,651.513 682.526,670.957 696.953,684.882C697.463,669.64 697.518,639.725 694.157,625.406C692.204,617.985 685.688,605.462 686.932,600.566L688.132,599.668C688.241,599.724 688.351,599.78 688.458,599.839C698.831,605.549 685.536,611.666 712.528,607.884C715.339,602.794 718.521,594.141 723.471,592.502C728.88,593.483 729.636,597.419 730.906,602.135C732.349,590.264 734.279,586.939 722.607,580.766C729.057,577.843 735.528,574.968 742.019,572.139C736.685,613.805 737.943,605.922 747.596,643.814C752.616,663.52 735.262,719.265 728.006,741.138C720.951,736.992 708.061,725.596 701.458,719.959C712.754,712.054 714.324,703.301 710.725,690.232C707.326,683.767 705.602,680.949 700.289,675.944C702.189,686.42 703.413,692.842 697.617,702.273C684.892,717.969 664.101,707.642 649.201,704.745C641.879,703.321 631.051,705.47 623.916,707.784L619.813,698.314C616.297,684.95 622.023,675.675 631.212,666.323C604.394,683.006 596.611,693.381 585.218,722.536C592.197,717.912 598.288,713.771 604.972,708.751C611.138,717.082 614.269,717.082 621.647,722.794C603.699,724.81 600.656,730.626 586.121,738.124C561.969,750.582 541.057,756.393 515.138,745.723C521.85,758.265 525.731,762.723 537.949,771.176C543.056,773.14 545.11,774.83 551.294,776.622C576.078,783.805 598.193,777.43 621.958,770.836C640.722,765.606 659.48,778.995 679.093,772.695C686.134,771.07 690.635,769.656 697.487,767.293C704.019,769.252 708.279,770.729 714.58,773.317C711.651,788.075 708.543,802.797 705.258,817.48C703.91,823.694 701.84,835.048 700.069,840.648C695.354,825.741 692.799,820.112 684.075,807.083C690.269,802.798 699.48,794.289 700.572,786.49L699.945,785.715L698.99,786.03C686.87,798.223 672.904,793.363 659.126,794.834C640.448,796.828 632.652,800.705 613.673,793.444C621.288,804.113 625.682,805.162 637.61,810.682C638.594,823.536 638.41,836.885 629.889,847.336C611.327,870.101 582.858,852.958 565.481,839.014L567.382,860.45L566.17,859.876C540.952,847.639 516.294,834.283 492.268,819.848C479.299,812.188 460.205,801.024 449.123,790.972C443.839,786.235 439.523,780.521 436.413,774.144C428.132,756.794 429.704,738.782 423.375,720.881C412.639,725.444 401.269,728.154 389.597,725.337C360.686,718.753 337.701,690.044 328.687,662.891ZM604.988,628.293C617.658,621.1 628.769,611.113 639.974,602.133C643.634,599.2 649.439,598.278 655.15,593.238C658.583,590.208 661.295,586.449 663.073,582.231C667.627,571.43 665.715,562.436 661.452,552.228C660.066,579.922 645.296,571.486 627.604,563.581C606.79,554.28 574.957,527.632 552.007,536.58C524.504,547.303 505.148,564.728 492.95,591.115C497.155,588.369 501.422,585.719 505.746,583.167C514.006,576.252 530.99,568.739 541.513,566.169C558.116,562.114 566.268,567.867 579.675,576.162C568.493,575.177 565.12,576.35 554.568,579.437C543.231,584.477 526.701,591.933 516.804,599.301C526.225,598.937 532.401,598.886 541.833,600.18C547.502,604.394 553.906,609.819 561.06,610.633C568.601,613.497 572.954,611.672 579.551,612.308C585.057,611.483 588.589,610.458 593.611,608.209C596.916,607.983 598.023,607.141 600.632,604.962C606.943,605.194 610.819,605.441 617.139,604.227C614.971,608.314 605.03,625.275 604.988,628.293ZM209.22,458.199C209.308,474.515 209.718,487.028 213.054,502.959C188.312,469.642 177.801,418.554 187.631,378.271C191.699,348.958 207.17,324.487 223.908,300.923C209.447,310.775 199.962,319.41 188.526,332.63C192.41,318.118 198.209,304.171 204.811,290.779C227.31,245.141 264.178,210.406 307.882,185.079C319.891,178.12 334.814,170.337 348.101,165.957L333.016,165.421C338.064,161.517 348.401,156.84 354.431,154.337C383.477,141.814 411.873,134.878 443.423,133.803C559.066,129.863 635.054,215.879 636.819,329.818C637.15,339.041 636.55,347.875 636.052,357.069C633.928,359.103 630.393,361.669 627.967,363.539C591.212,305.14 532.321,250.958 463.668,235.993C409.178,224.116 355.545,225.506 303.796,247.882C290.132,253.79 277.628,261.358 265.042,269.1L253.295,278.27C283.472,264.54 293.737,262.286 325.382,258.37C272.252,286.82 238.331,325.679 220.689,384.028C213.314,408.071 209.451,433.052 209.22,458.199ZM666.268,744.769C671.602,748.947 676.564,753.671 681.56,758.256C676.725,758.986 672.86,758.945 668.009,758.999C662.42,758.605 658.127,758.125 652.599,757.343C656.618,754.09 662.345,748.441 666.268,744.769Z" style="fill:rgb(252,191,0);"/>
        <path d="M443.033,99.317C451.222,98.5 464.075,99.05 472.267,99.633C527.688,103.578 583.581,126.317 619.942,169.625C660.275,217.664 670.939,272.706 666.034,333.715C695.817,305.847 719.463,272.078 735.463,234.564C742.758,246.209 752.017,263.557 758.804,275.785C794.558,340.1 824.909,407.272 849.544,476.608C857.654,499.554 864.66,521.567 869.332,545.556C887.097,636.779 839.916,702.532 754.296,732.581C752.346,737.402 750.513,743.249 748.813,748.231C763.947,751.466 777.222,749.774 792.266,747.575C779.549,767.287 766.395,779.173 741.959,778.664C737.048,796.953 729.984,814.477 724.752,832.594C723.629,836.482 724.732,846.468 724.898,851.017C725.762,874.666 720.723,893.526 706.687,912.71C735.13,924.003 762.943,938.307 790.912,951.095C842.408,974.64 891.8,994.977 945.622,1012.38C933.518,1028.09 919.381,1044.32 906.319,1059.42C821.716,1157.25 732.441,1259.14 623.49,1330.34C535.345,1296.71 473.23,1259.84 396.426,1203.65C358.952,1175.66 324.224,1145.48 287.273,1117.08C220.535,1065.78 143.296,1016.27 64.68,985.214C134.541,960.725 209.017,925.407 267.684,879.798C273.498,875.278 274.157,856.078 274.829,849.13C276.688,829.912 265.93,816.971 256.696,801.045C268.657,788.56 288.225,767.477 301.145,756.981C271.616,752.719 233.453,735.623 208.845,719.13C153.115,681.777 116.949,631.027 103.254,565.496C154.339,581.705 198.231,588.14 250.689,576.875C248.964,498.032 268.212,419.517 312.461,353.721C301.667,362.899 294.15,370.161 285.072,381.232C252.364,421.119 236.603,473.941 235.578,525.029C235.262,540.788 236.676,554.402 238.225,569.986C227.001,566.352 214.34,558.623 206.292,550.024C115.814,453.343 140.473,302.303 224.126,210.262C284.291,144.063 355.186,105.187 443.033,99.317ZM666.268,744.769C662.345,748.441 656.618,754.09 652.599,757.343C658.127,758.125 662.42,758.605 668.009,758.999C672.86,758.945 676.725,758.986 681.56,758.256C676.564,753.671 671.602,748.947 666.268,744.769ZM518.232,919.352C524.033,924.079 593.172,948.491 603.499,952.408L612.549,1015.63C620.475,995.758 627.918,975.699 634.872,955.469C619.214,953.017 604.547,947.762 596.1,933.609C592.782,928.566 588.825,920.148 583.357,917.059C526.077,884.702 463.75,848.075 425.315,793.326C417.278,781.878 411.6,765.821 407.609,752.771C399.683,754.72 392.253,755.164 384.189,753.907C384.214,773.41 377.808,804.929 374.335,825.424C384.918,835.747 396.169,845.362 408.015,854.207C442.155,880.043 479.134,901.9 518.232,919.352ZM295.718,328.362C306.547,320.093 313.648,311.298 327.089,302.447C376.652,269.81 428.906,259.136 486.979,261.159C483.541,259.084 481.427,257.801 477.762,256.225C439.411,242.917 399.458,247.006 362.93,264.286C331.873,278.978 299.563,308.398 285.286,340.053L295.718,328.362ZM187.631,378.271C177.801,418.554 188.312,469.642 213.054,502.959C209.718,487.028 209.308,474.515 209.22,458.199C209.451,433.052 213.314,408.071 220.689,384.028C238.331,325.679 272.252,286.82 325.382,258.37C293.737,262.286 283.472,264.54 253.295,278.27L265.042,269.1C277.628,261.358 290.132,253.79 303.796,247.882C355.545,225.506 409.178,224.116 463.668,235.993C532.321,250.958 591.212,305.14 627.967,363.539C630.393,361.669 633.928,359.103 636.052,357.069C636.55,347.875 637.15,339.041 636.819,329.818C635.054,215.879 559.066,129.863 443.423,133.803C411.873,134.878 383.477,141.814 354.431,154.337C348.401,156.84 338.064,161.517 333.016,165.421L348.101,165.957C334.814,170.337 319.891,178.12 307.882,185.079C264.178,210.406 227.31,245.141 204.811,290.779C198.209,304.171 192.41,318.118 188.526,332.63C199.962,319.41 209.447,310.775 223.908,300.923C207.17,324.487 191.699,348.958 187.631,378.271ZM339.6,654.66C339.524,650.933 339.713,645.84 337.792,642.74C332.63,639.788 328.727,646.78 325.792,650.589C326.557,653.596 328.39,660.077 328.687,662.891C337.701,690.044 360.686,718.753 389.597,725.337C401.269,728.154 412.639,725.444 423.375,720.881C429.704,738.782 428.132,756.794 436.413,774.144C439.523,780.521 443.839,786.235 449.123,790.972C460.205,801.024 479.299,812.188 492.268,819.848C516.294,834.283 540.952,847.639 566.17,859.876L567.382,860.45L565.481,839.014C582.858,852.958 611.327,870.101 629.889,847.336C638.41,836.885 638.594,823.536 637.61,810.682C625.682,805.162 621.288,804.113 613.673,793.444C632.652,800.705 640.448,796.828 659.126,794.834C672.904,793.363 686.87,798.223 698.99,786.03L699.945,785.715L700.572,786.49C699.48,794.289 690.269,802.798 684.075,807.083C692.799,820.112 695.354,825.741 700.069,840.648C701.84,835.048 703.91,823.694 705.258,817.48C708.543,802.797 711.651,788.075 714.58,773.317C708.279,770.729 704.019,769.252 697.487,767.293C690.635,769.656 686.134,771.07 679.093,772.695C659.48,778.995 640.722,765.606 621.958,770.836C598.193,777.43 576.078,783.805 551.294,776.622C545.11,774.83 543.056,773.14 537.949,771.176C525.731,762.723 521.85,758.265 515.138,745.723C541.057,756.393 561.969,750.582 586.121,738.124C600.656,730.626 603.699,724.81 621.647,722.794C614.269,717.082 611.138,717.082 604.972,708.751C598.288,713.771 592.197,717.912 585.218,722.536C596.611,693.381 604.394,683.006 631.212,666.323C622.023,675.675 616.297,684.95 619.813,698.314L623.916,707.784C631.051,705.47 641.879,703.321 649.201,704.745C664.101,707.642 684.892,717.969 697.617,702.273C703.413,692.842 702.189,686.42 700.289,675.944C705.602,680.949 707.326,683.767 710.725,690.232C714.324,703.301 712.754,712.054 701.458,719.959C708.061,725.596 720.951,736.992 728.006,741.138C735.262,719.265 752.616,663.52 747.596,643.814C737.943,605.922 736.685,613.805 742.019,572.139C735.528,574.968 729.057,577.843 722.607,580.766C734.279,586.939 732.349,590.264 730.906,602.135C729.636,597.419 728.88,593.483 723.471,592.502C718.521,594.141 715.339,602.794 712.528,607.884C685.536,611.666 698.831,605.549 688.458,599.839C688.351,599.78 688.241,599.724 688.132,599.668L686.932,600.566C685.688,605.462 692.204,617.985 694.157,625.406C697.518,639.725 697.463,669.64 696.953,684.882C682.526,670.957 686.367,651.513 683.054,633.577C681.778,626.667 675.524,604.662 672.835,598.852C674.876,590.027 674.934,585.391 674.994,576.571C675.038,576.563 675.081,576.554 675.125,576.546C680.662,581.446 681.329,582.538 683.59,589.703C684.484,584.609 685.188,579.18 685.943,574.04C686.794,568.42 687.464,562.352 688.197,556.679L696.817,566.829L733.732,549.101L745.088,543.435C740.775,536.256 731.306,521.689 729.265,514.022C724.973,497.901 722.679,486.045 715.913,470.506C714.579,466.598 712.83,461.893 711.848,457.953C702.041,464.294 662.385,478.971 649.42,484.131C602.587,502.771 554.319,518.771 509.961,543.235C501.723,547.778 490.01,553.441 483.321,559.982C480.589,562.654 478.179,571.694 476.443,575.643C466.396,591.569 461.265,599.431 447.991,613.253C443.267,617.253 439.298,620.604 434.265,624.228C435.281,641.497 436.22,658.533 438.554,675.698C438.986,678.875 441.328,694.58 440.817,696.304C439.766,696.594 438.792,696.889 437.719,697.093C426.77,693.358 424.61,695.354 413.356,687.264C408.203,681.756 408.064,678.167 404.376,673.434C400.122,667.974 390.593,660.232 385.14,655.473C388.286,670.816 389.3,676.754 396.269,691.017C385.311,683.799 379.44,679.742 373.615,667.818C372.181,662.313 371.459,657.802 371.296,652.082C364.918,651.784 361.277,651.63 354.837,652.785C353.207,657.334 351.208,663.941 352.013,668.86C354.686,680.642 356.991,685.095 363.502,694.788L363.118,694.512C348.152,683.689 342.421,672.241 339.6,654.66ZM505.746,583.167C501.422,585.719 497.155,588.369 492.95,591.115C505.148,564.728 524.504,547.303 552.007,536.58C574.957,527.632 606.79,554.28 627.604,563.581C645.296,571.486 660.066,579.922 661.452,552.228C665.715,562.436 667.627,571.43 663.073,582.231C661.295,586.449 658.583,590.208 655.15,593.238C649.439,598.278 643.634,599.2 639.974,602.133C628.769,611.113 617.658,621.1 604.988,628.293C605.03,625.275 614.971,608.314 617.139,604.227C610.819,605.441 606.943,605.194 600.632,604.962C598.023,607.141 596.916,607.983 593.611,608.209C596.507,604.517 598.248,602.256 600.642,598.256C599.119,595.819 597.544,593.158 595.856,590.854C592.802,597.538 589.207,605.311 581.795,607.761C569.218,611.919 562.491,604.174 559.579,593.537C555.894,594.856 551.849,596.41 548.167,597.609C552.529,603.381 555.018,606.453 561.06,610.633C553.906,609.819 547.502,604.394 541.833,600.18C532.401,598.886 526.225,598.937 516.804,599.301C526.701,591.933 543.231,584.477 554.568,579.437C565.12,576.35 568.493,575.177 579.675,576.162C566.268,567.867 558.116,562.114 541.513,566.169C530.99,568.739 514.006,576.252 505.746,583.167ZM621.142,1290.56C628.148,1285.53 637.761,1279.73 645.235,1274.7C657.783,1266.18 670.058,1257.27 682.043,1247.97C749.504,1195.73 836.777,1107.36 859.803,1024.63C792.99,1124.3 716.026,1188.03 618.142,1255.31C588.601,1241.04 556.138,1225.22 527.66,1209.27C498.967,1192.94 470.956,1175.43 443.701,1156.79C419.554,1140.41 397.002,1120.21 373.278,1102.7C302.25,1050.3 237.836,1019.92 153.653,995.327C159.358,999.192 191.66,1013.51 200.387,1018.08C230.619,1034.27 260.051,1051.91 288.581,1070.94C305.445,1082.09 321.992,1093.78 338.196,1105.9C366.036,1126.72 391.571,1150.01 418.605,1171.93C451.941,1198.96 486.294,1222.67 523.935,1243.35C543.669,1254.36 563.196,1266.43 584.114,1275.32C590.033,1277.84 615.739,1289.73 621.142,1290.56Z" style="fill:rgb(167,12,0);"/>
        <path d="M297.917,566.269C291.883,568.108 285.859,569.981 279.846,571.888C279.813,566.812 279.812,561.737 279.842,556.661C280.438,475.878 301.101,377.155 370.43,326.105C404.744,300.838 447.209,295.924 488.734,296.32C483.624,298.383 472.51,298.11 466.579,298.94C404.438,307.641 355.55,336.433 328.749,394.882C303.385,450.195 295.585,505.546 297.917,566.269ZM733.162,316.43C681.826,404.624 583.94,465.288 498.629,516.938C405.434,573.362 250.698,653.552 143.369,596.877C166.568,601.523 189.565,604.966 213.298,604.367C325.646,601.533 469.739,516.515 561.374,454.97C598.632,429.946 635.652,404.461 668.703,373.945C684.76,359.12 700.799,342.885 713.903,325.378C720.779,316.192 726.922,303.975 734.624,295.873L735.977,298.025C735.996,305.846 736.43,309.228 733.162,316.43ZM326.058,771.828C325.996,773.303 314.873,795.927 313.401,799.534C393.194,891.2 461.797,934.774 577.242,971.142C580.747,981.802 584.089,999.806 586.398,1010.98C590.475,1030.8 594.683,1050.6 599.023,1070.37C596.438,1066.45 593.823,1061.22 591.569,1057.01C577.954,1029.43 570.401,1011.86 561.399,982.271C477.69,955.875 409.619,922.928 345.234,860.792C326.638,842.846 310.649,823.527 293.963,803.814C300.05,796.654 318.456,777.561 326.058,771.828Z" style="fill:white;fill-opacity:0.25;"/>
        <path d="M443.033,99.317C451.222,98.5 464.075,99.05 472.267,99.633C527.688,103.578 583.581,126.317 619.942,169.625C660.275,217.664 670.939,272.706 666.034,333.715C695.817,305.847 719.463,272.078 735.463,234.564C742.758,246.209 752.017,263.557 758.804,275.785C794.558,340.1 824.909,407.272 849.544,476.608C857.654,499.554 864.66,521.567 869.332,545.556C887.097,636.779 839.916,702.532 754.296,732.581C752.346,737.402 750.513,743.249 748.813,748.231C763.947,751.466 777.222,749.774 792.266,747.575C779.549,767.287 766.395,779.173 741.959,778.664C737.048,796.953 729.984,814.477 724.752,832.594C723.629,836.482 724.732,846.468 724.898,851.017C725.762,874.666 720.723,893.526 706.687,912.71C735.13,924.003 762.943,938.307 790.912,951.095C842.408,974.64 891.8,994.977 945.622,1012.38C933.518,1028.09 919.381,1044.32 906.319,1059.42C821.716,1157.25 732.441,1259.14 623.49,1330.34C535.345,1296.71 473.23,1259.84 396.426,1203.65C358.952,1175.66 324.224,1145.48 287.273,1117.08C220.535,1065.78 143.296,1016.27 64.68,985.214C134.541,960.725 209.017,925.407 267.684,879.798C273.498,875.278 274.157,856.078 274.829,849.13C276.688,829.912 265.93,816.971 256.696,801.045C268.657,788.56 288.225,767.477 301.145,756.981C271.616,752.719 233.453,735.623 208.845,719.13C153.115,681.777 116.949,631.027 103.254,565.496C154.339,581.705 198.231,588.14 250.689,576.875C248.964,498.032 268.212,419.517 312.461,353.721C301.667,362.899 294.15,370.161 285.072,381.232C252.364,421.119 236.603,473.941 235.578,525.029C235.262,540.788 236.676,554.402 238.225,569.986C227.001,566.352 214.34,558.623 206.292,550.024C115.814,453.343 140.473,302.303 224.126,210.262C284.291,144.063 355.186,105.187 443.033,99.317ZM352.013,668.86C354.686,680.642 356.991,685.095 363.502,694.788L363.118,694.512C348.152,683.689 342.421,672.241 339.6,654.66C335.972,656.727 331.053,659.333 328.687,662.891C337.701,690.044 360.686,718.753 389.597,725.337C392.946,724.196 396.865,723.497 400.068,722.159C414.111,716.292 414.093,706.091 404.36,695.759C401.894,693.141 400.659,691.104 397.015,689.839L396.269,691.017C385.311,683.799 379.44,679.742 373.615,667.818C368.066,666.645 358.394,664.502 353.079,666.783C352.589,667.617 352.297,667.954 352.013,668.86ZM437.719,697.093C426.77,693.358 424.61,695.354 413.356,687.264C414.556,694.953 421.589,710.971 423.375,720.881C429.704,738.782 428.132,756.794 436.413,774.144C439.523,780.521 443.839,786.235 449.123,790.972C460.205,801.024 479.299,812.188 492.268,819.848C516.294,834.283 540.952,847.639 566.17,859.876L567.382,860.45L565.481,839.014C582.858,852.958 611.327,870.101 629.889,847.336C638.41,836.885 638.594,823.536 637.61,810.682C625.682,805.162 621.288,804.113 613.673,793.444C632.652,800.705 640.448,796.828 659.126,794.834C672.904,793.363 686.87,798.223 698.99,786.03C695.444,779.481 685.914,775.474 679.093,772.695C659.48,778.995 640.722,765.606 621.958,770.836C601.711,785.797 554.666,794.136 537.949,771.176C525.731,762.723 521.85,758.265 515.138,745.723C541.057,756.393 561.969,750.582 586.121,738.124C600.656,730.626 603.699,724.81 621.647,722.794C614.269,717.082 611.138,717.082 604.972,708.751C598.288,713.771 592.197,717.912 585.218,722.536C596.611,693.381 604.394,683.006 631.212,666.323C622.023,675.675 616.297,684.95 619.813,698.314C654.009,688.425 670.265,712.417 697.617,702.273C703.413,692.842 702.189,686.42 700.289,675.944C705.602,680.949 707.326,683.767 710.725,690.232C718.817,676.982 729.299,665.175 737.334,651.427C734.108,642.416 729.624,633.158 725.378,624.604C719.618,626.142 718.66,626.368 712.933,626.712C707.535,627.037 697.906,624.221 694.157,625.406C697.518,639.725 697.463,669.64 696.953,684.882C682.526,670.957 686.367,651.513 683.054,633.577C681.778,626.667 675.524,604.662 672.835,598.852C671.65,594.09 672.027,582.526 672.065,577.09C673.034,576.939 674.011,576.764 674.994,576.571L674.995,576.431C675.038,576.469 675.082,576.508 675.125,576.546C678.741,575.831 682.419,574.884 685.943,574.04C686.794,568.42 687.464,562.352 688.197,556.679L696.817,566.829L733.732,549.101C727.47,538.335 716.121,525.198 710.991,515.715C708.299,510.738 705.564,481.988 704.57,474.428L638.072,498.825C597.047,513.44 559.628,526.285 521.109,546.892C503.332,556.402 491.72,566.646 476.443,575.643C466.396,591.569 461.265,599.431 447.991,613.253C444.791,655.471 449.885,702.248 469.818,740.188C463.095,732.806 440.3,705.469 437.719,697.093ZM451.425,649.94C452.672,651.617 454.347,655.489 455.395,657.503C468.862,683.374 490.907,695.444 517.419,705.524C516.729,705.594 516.039,705.655 515.348,705.709C497.747,707.075 470.019,705.952 461.208,687.789C456.025,677.104 452.186,661.84 451.425,649.94ZM505.746,583.167C501.422,585.719 497.155,588.369 492.95,591.115C505.148,564.728 524.504,547.303 552.007,536.58C574.957,527.632 606.79,554.28 627.604,563.581C645.296,571.486 660.066,579.922 661.452,552.228C665.715,562.436 667.627,571.43 663.073,582.231C661.295,586.449 658.583,590.208 655.15,593.238C649.439,598.278 643.634,599.2 639.974,602.133C628.769,611.113 617.658,621.1 604.988,628.293C593.441,638.27 573.528,644.105 558.476,645.316C576.61,635.989 584.422,629.226 598.287,614.232C593.059,614.32 583.161,615.582 579.551,612.308C585.057,611.483 588.589,610.458 593.611,608.209C596.507,604.517 598.248,602.256 600.642,598.256C599.119,595.819 597.544,593.158 595.856,590.854C592.802,597.538 589.207,605.311 581.795,607.761C569.218,611.919 562.491,604.174 559.579,593.537C555.894,594.856 551.849,596.41 548.167,597.609C552.529,603.381 555.018,606.453 561.06,610.633C553.906,609.819 547.502,604.394 541.833,600.18C532.401,598.886 526.225,598.937 516.804,599.301C526.701,591.933 543.231,584.477 554.568,579.437C540.682,572.047 518.016,581.789 505.746,583.167ZM408.015,854.207C442.155,880.043 479.134,901.9 518.232,919.352C518.07,916.207 507.545,893.863 504.727,891.224C484.393,872.182 458.059,854.506 438.991,834.153C423.198,817.297 415.164,795.415 399.069,777.122C401.873,804.544 404.221,826.653 408.015,854.207ZM636.819,329.818C635.054,215.879 559.066,129.863 443.423,133.803C411.873,134.878 383.477,141.814 354.431,154.337C348.401,156.84 338.064,161.517 333.016,165.421L348.101,165.957C334.814,170.337 319.891,178.12 307.882,185.079C264.178,210.406 227.31,245.141 204.811,290.779C198.209,304.171 192.41,318.118 188.526,332.63C199.962,319.41 209.447,310.775 223.908,300.923C207.17,324.487 191.699,348.958 187.631,378.271C188.659,385.106 188.878,392.017 189.853,398.861C192.567,417.917 196.812,436.956 203.886,454.899C204.664,456.872 206.76,462.571 208.328,463.471C208.78,461.476 208.989,460.232 209.22,458.199C209.451,433.052 213.314,408.071 220.689,384.028C238.331,325.679 272.252,286.82 325.382,258.37C293.737,262.286 283.472,264.54 253.295,278.27L265.042,269.1C267.269,265.531 273.932,260.198 277.404,257.563C301.244,239.467 332.081,225.132 361.23,218.51C422.109,204.679 496.466,212.13 549.961,245.604C574.99,261.573 597.35,281.379 616.222,304.295C618.875,307.477 634.984,329.406 636.819,329.818ZM452.415,144.331C492.693,144.234 525.369,153.757 557.5,178.934C590.215,204.568 612.522,246.707 617.266,287.805C610.058,273.089 601.103,259.294 590.596,246.719C587.833,243.324 584.952,240.028 581.959,236.835C540.762,193.078 485.628,165.004 426.002,157.422C411.12,155.447 398.852,155.52 383.998,155.008C410.561,148.209 424.558,145.467 452.415,144.331ZM326.058,771.828C318.456,777.561 300.05,796.654 293.963,803.814C310.649,823.527 326.638,842.846 345.234,860.792C409.619,922.928 477.69,955.875 561.399,982.271C570.401,1011.86 577.954,1029.43 591.569,1057.01C593.823,1061.22 596.438,1066.45 599.023,1070.37C594.683,1050.6 590.475,1030.8 586.398,1010.98C584.089,999.806 580.747,981.802 577.242,971.142C461.797,934.774 393.194,891.2 313.401,799.534C314.873,795.927 325.996,773.303 326.058,771.828ZM618.142,1255.31C588.601,1241.04 556.138,1225.22 527.66,1209.27C498.967,1192.94 470.956,1175.43 443.701,1156.79C419.554,1140.41 397.002,1120.21 373.278,1102.7C302.25,1050.3 237.836,1019.92 153.653,995.327C159.358,999.192 191.66,1013.51 200.387,1018.08C230.619,1034.27 260.051,1051.91 288.581,1070.94C305.445,1082.09 321.992,1093.78 338.196,1105.9C366.036,1126.72 391.571,1150.01 418.605,1171.93C451.941,1198.96 486.294,1222.67 523.935,1243.35C543.669,1254.36 563.196,1266.43 584.114,1275.32C590.033,1277.84 615.739,1289.73 621.142,1290.56C619.793,1280 618.895,1266.03 618.142,1255.31ZM297.917,566.269C305.134,564.09 312.672,561.483 319.869,559.125C317.318,543.019 318.172,531.468 318.838,515.658C320.692,471.634 332.257,442.757 350.877,403.811C343.863,447.439 339.777,502.056 354.123,544.125C398.658,522.565 437.924,484.799 478.777,455.887C520.563,426.315 563.878,402.68 605.702,374.553C595.277,358.264 564.571,316.835 546.737,312.297C520.22,305.55 462.237,324.333 439.079,339.868C436.105,341.863 434.676,343.648 431.399,345.245L430.616,344.796C431.82,342.398 437.118,339.193 439.836,336.833C463.044,316.683 485.549,308.365 514.06,298.844C507.015,297.442 495.748,295.754 488.734,296.32C447.209,295.924 404.744,300.838 370.43,326.105C301.101,377.155 280.438,475.878 279.842,556.661C279.812,561.737 279.813,566.812 279.846,571.888C285.859,569.981 291.883,568.108 297.917,566.269ZM733.162,316.43C739.715,327.465 747.571,344.292 753.546,356.105C766.092,380.334 778.264,404.753 790.066,429.353C799.173,448.336 808.16,468.781 819.493,486.343C815.666,469.164 808.51,450.002 801.924,433.497C783.751,387.952 763.754,338.462 735.977,298.025L734.624,295.873C726.922,303.975 720.779,316.192 713.903,325.378C700.799,342.885 684.76,359.12 668.703,373.945C635.652,404.461 598.632,429.946 561.374,454.97C469.739,516.515 325.646,601.533 213.298,604.367C189.565,604.966 166.568,601.523 143.369,596.877C250.698,653.552 405.434,573.362 498.629,516.938C583.94,465.288 681.826,404.624 733.162,316.43ZM299.888,856.136C298.946,881.66 296.333,906.388 286.845,930.458C276.962,938.053 266.064,941.994 254.969,947.471C235.793,956.938 216.665,965.012 196.902,973.153C267.95,992.05 328.86,1018.45 388.191,1062.14C396.558,1068.31 405.491,1073.92 413.753,1080.3C436.528,1097.89 458.819,1116.14 482.032,1133.15C525.751,1164.68 572.562,1188.51 622.556,1208.41C636.459,1198.57 652.113,1189.54 665.573,1179.47C716.688,1141.22 779.498,1084.89 816.644,1032.94C806.401,1026.71 794.877,1020.53 784.322,1014.65C759.052,1001.03 733.888,989.389 708.312,976.732C707.187,989.541 706.06,1000.56 702.692,1013.03C690.406,1058.52 657.3,1109.82 621.372,1140.01C617.684,1143.1 613.912,1146.09 610.059,1148.97C628.323,1113.4 642.77,1075.99 653.161,1037.38C657.126,1023.2 660.171,1008.64 664.044,994.556C660.512,988.948 658.889,985.897 656.1,979.888C637.764,1018.65 625.092,1048 602.89,1085.04C595.458,1075 587.151,1065.82 579.552,1055.91C565.487,1037.56 556.497,1020.46 547.117,999.514C471.775,987.067 392.842,953.534 337.639,900.323C328.481,891.496 320.66,882.075 312.726,872.21C310.274,869.161 302.031,858.01 299.888,856.136ZM148.357,611.127C178.324,667.095 253.671,711.539 312.966,728.299C320.209,730.346 340.331,736.01 347.704,735.715C323.695,717.31 310.591,703.773 297.905,675.771C257.243,675.388 208.351,656.758 175.676,633.078C169.97,628.943 151.306,612.635 148.357,611.127ZM477.762,256.225C439.411,242.917 399.458,247.006 362.93,264.286C331.873,278.978 299.563,308.398 285.286,340.053L295.718,328.362C298.592,321.912 307.364,315.016 312.356,310.329C356.769,268.631 415.06,249.216 475.612,256.939C476.202,257.014 477.234,256.477 477.762,256.225Z" style="fill-opacity:0.25;"/>
        <path d="M436.575,83.564C438.082,83.415 439.593,83.312 441.107,83.258C506.639,81.028 567.801,95.969 617.152,141.47C653.788,175.249 683.423,235.248 685.147,285.218C708.743,252.702 722.685,223.68 726.516,183.666L727.823,185.609C741.643,206.089 757.95,236.733 769.879,258.432C804.756,321.979 836.244,386.421 860.871,454.722C879.913,507.531 897.331,561.427 886.521,618.374C876.46,671.373 845.477,703.922 802.024,733.062C807.308,733.082 812.933,732.822 818.242,732.669C807.181,763.433 791.107,789.373 756.726,796.601C752.563,810.042 745.954,825.288 742.913,838.751C742.211,841.863 743.069,857.543 742.885,862.808C742.343,878.37 739.172,889.682 735.475,904.654C783.41,927.711 832.156,949.043 881.618,968.611C913.017,980.654 944.595,992.225 976.341,1003.32C970.257,1010.37 963.526,1019.55 957.675,1026.99C946.076,1041.75 934.254,1056.34 922.212,1070.75C902.887,1093.39 883.279,1115.8 863.393,1137.96C826.881,1178.96 786.289,1222.71 745.584,1259.34C707.688,1293.24 667.423,1324.4 625.095,1352.58C617.384,1348.73 606.484,1344.96 598.242,1341.72C586.104,1336.95 574.071,1331.91 562.151,1326.62C551.47,1322.94 522.741,1307.2 512.272,1301.53C479.162,1283.92 447.251,1264.15 416.746,1242.34C359.995,1201.77 308.203,1156.29 252.237,1115.28C178.429,1060.49 97.275,1016.35 11.164,984.171C79.322,961.121 149.483,932.394 211.211,895.25C224.113,887.486 242.001,876.414 252.986,866.593C258.572,844.599 257.279,838.995 246.59,819.871L233.536,796.659C242.289,788.113 254.517,776.32 262.337,767.289C223.644,752.138 195.279,736.518 163.914,708.486C117.631,667.12 84.692,602.591 81.649,540.169C114.191,550.968 159.56,561.225 193.111,562.904C158.031,531.177 138.063,473.215 133.766,427.301C126.85,347.921 151.778,269.048 203.06,208.053C264.655,133.777 340.149,92.676 436.575,83.564ZM443.033,99.317C355.186,105.187 284.291,144.063 224.126,210.262C140.473,302.303 115.814,453.343 206.292,550.024C214.34,558.623 227.001,566.352 238.225,569.986C236.676,554.402 235.262,540.788 235.578,525.029C236.603,473.941 252.364,421.119 285.072,381.232C294.15,370.161 301.667,362.899 312.461,353.721C268.212,419.517 248.964,498.032 250.689,576.875C198.231,588.14 154.339,581.705 103.254,565.496C116.949,631.027 153.115,681.777 208.845,719.13C233.453,735.623 271.616,752.719 301.145,756.981C288.225,767.477 268.657,788.56 256.696,801.045C265.93,816.971 276.688,829.912 274.829,849.13C274.157,856.078 273.498,875.278 267.684,879.798C209.017,925.407 134.541,960.725 64.68,985.214C143.296,1016.27 220.535,1065.78 287.273,1117.08C324.224,1145.48 358.952,1175.66 396.426,1203.65C473.23,1259.84 535.345,1296.71 623.49,1330.34C732.441,1259.14 821.716,1157.25 906.319,1059.42C919.381,1044.32 933.518,1028.09 945.622,1012.38C891.8,994.977 842.408,974.64 790.912,951.095C762.943,938.307 735.13,924.003 706.687,912.71C720.723,893.526 725.762,874.666 724.898,851.017C724.732,846.468 723.629,836.482 724.752,832.594C729.984,814.477 737.048,796.953 741.959,778.664C766.395,779.173 779.549,767.287 792.266,747.575C777.222,749.774 763.947,751.466 748.813,748.231C750.513,743.249 752.346,737.402 754.296,732.581C839.916,702.532 887.097,636.779 869.332,545.556C864.66,521.567 857.654,499.554 849.544,476.608C824.909,407.272 794.558,340.1 758.804,275.785C752.017,263.557 742.758,246.209 735.463,234.564C719.463,272.078 695.817,305.847 666.034,333.715C670.939,272.706 660.275,217.664 619.942,169.625C583.581,126.317 527.688,103.578 472.267,99.633C464.075,99.05 451.222,98.5 443.033,99.317ZM579.551,612.308C572.954,611.672 568.601,613.497 561.06,610.633C555.018,606.453 552.529,603.381 548.167,597.609C551.849,596.41 555.894,594.856 559.579,593.537C562.491,604.174 569.218,611.919 581.795,607.761C589.207,605.311 592.802,597.538 595.856,590.854C597.544,593.158 599.119,595.819 600.642,598.256C598.248,602.256 596.507,604.517 593.611,608.209C588.589,610.458 585.057,611.483 579.551,612.308Z" style="fill:rgb(254,254,254);"/>
    </g>
</svg>
