<svg width="100%" height="100%" viewBox="0 0 2447 2592" version="1.1" xmlns="http://www.w3.org/2000/svg" xmlns:xlink="http://www.w3.org/1999/xlink" xml:space="preserve" xmlns:serif="http://www.serif.com/" style="fill-rule:evenodd;clip-rule:evenodd;stroke-linejoin:round;stroke-miterlimit:2;">
    <g transform="matrix(1,0,0,1,-172.158,-647.23)">
        <path d="M849.782,2249.43C858.768,2254.03 867.718,2258.78 876.632,2263.68C894.473,2273.41 920.455,2285.56 936.6,2300.18C938.553,2301.95 941.196,2310.41 942.261,2313.83C956.895,2325.36 1006.42,2345.83 1023.15,2347.23L1033.93,2336.64C1062.62,2347.11 1094.6,2354.55 1123.95,2363.85C1140.37,2391.52 1167.47,2391.74 1190.75,2392.03C1178.1,2435.2 1173.21,2467.54 1153.09,2505.7C1183.75,2482.06 1207,2434.96 1223.79,2391.18L1225.8,2391.26C1254.22,2392.41 1281.76,2393.31 1303.14,2363C1330.92,2356.8 1368.11,2344.46 1394.73,2331.6C1482.41,2357.81 1575.19,2384.23 1648.72,2466.22C1682.65,2504.06 1682.87,2566.78 1685.87,2623.69C1626.29,2612.03 1517.65,2630.16 1460.66,2658.27C1463.32,2637.39 1463.68,2620.02 1467.46,2598.97C1481.62,2579.84 1502.16,2563.93 1520.33,2539.12C1474.32,2556.52 1446.67,2567.04 1397.91,2565.26C1336.7,2562.16 1278.5,2547.42 1218.13,2532.84C1257.25,2510.95 1275.2,2487.58 1305.29,2446.08C1268.12,2465.67 1237.46,2488.33 1197.19,2505.91C1168.41,2518.47 1128.57,2526.62 1104.05,2541.05C1094.95,2546.41 1054.41,2599.95 1041.76,2613.16C961.645,2695.88 875.734,2805.14 776.141,2823.83C729.33,2832.62 655.307,2794.82 651.649,2710.98C650.179,2677.28 664.654,2650.12 678.926,2626.15C682.556,2642.71 699.659,2695.94 712.799,2692.18C712.784,2691.45 712.768,2690.72 712.752,2689.99L712.733,2686.47C712.221,2627.99 756.888,2497.22 778.084,2445.36C784.321,2430.1 802.419,2396.53 810.564,2380.56C809.608,2324.37 825.197,2288.93 849.782,2249.43Z" style="fill:rgb(4,73,8);"  data-color="color-3"/>
        <path d="M616.298,1904.06C611.507,1899.92 610.961,1905.41 605.025,1900.33C604.087,1864.14 638.911,1875.82 648.342,1860.68C649.793,1848.04 655.039,1835.25 664.652,1840.76C667.069,1846.1 667.762,1848.48 671.447,1851.96C675.875,1851.89 676.739,1850.3 680.376,1846.54C682.461,1841.96 681.818,1831.15 681.833,1825.01C686.43,1823.19 698.671,1817.39 702.459,1819.32C702.582,1824.36 702.772,1829.41 703.03,1834.44L704.727,1836.14C710.203,1834.43 711.272,1834.32 716.173,1830.64C718.568,1825.81 717.724,1816.38 717.631,1809.73C724.162,1807.5 729.899,1803.58 735.613,1805.84C738.295,1810.98 737.543,1818.57 737.504,1825.52L757.473,1821.26L757.443,1786.34L774.224,1779.74C774.388,1790.54 774.067,1805.91 776.024,1815.84C782.668,1817.41 787.727,1819.19 794.131,1822.09C791.628,1838.49 786.52,1833.7 776.143,1838.24C772.073,1848.42 777.448,1848.7 773.105,1857.3C768.846,1858.81 766.231,1860.54 762.154,1858.43C759.88,1854.04 759.325,1852.46 757.523,1847.54C752.305,1842.87 749.603,1844.78 744.299,1846.12C740.017,1847.2 738.444,1851.62 737.562,1856.88C735.347,1870.09 726.197,1872.21 718.559,1873.9C714.79,1863.72 719.247,1864.33 714.019,1856.13C709.196,1855.63 708.311,1856.82 704.014,1859.93C699.471,1871.53 707.032,1877.82 695.897,1883.56C692.459,1885.33 687.767,1886.08 684.242,1884.67C680.724,1877.13 684.781,1875.11 681.34,1868.2C674.903,1871.92 669.278,1875.51 668.643,1887.45C668.022,1899.14 654.818,1901.81 648.645,1904.17C648.878,1896.8 650.028,1890.45 647.69,1885.44C642.871,1885.15 642.061,1886.03 637.677,1888.6C636.283,1894.28 636.774,1897.83 637.017,1903.86C633.009,1913.55 626.241,1915.61 619.165,1911.62C618.356,1909.52 616.967,1906.14 616.298,1904.06ZM909.683,1810.96C894.222,1808.99 878.721,1807.82 863.207,1807.44C855.811,1806.3 855.936,1808.3 852.178,1802.18C849.683,1790.32 852.115,1780.96 858.398,1772.94C874.072,1768.83 901.778,1779.31 918.246,1784.62C916.562,1791.13 913.091,1807.69 909.683,1810.96ZM847.474,1826.06C867.898,1826.57 889.906,1829.43 909.346,1829.55C909.798,1863.06 913.554,1887.22 924.828,1916.5C930.495,1938.65 945.067,1959.73 957.873,1973.12C941.618,1989.11 928.178,2000.87 911.19,2015.13C867.736,1973.57 847.014,1901.61 847.474,1826.06Z" style="fill:rgb(254,253,253);"/>
        <path d="M1252.63,2084.85C1263.44,2083.2 1290.29,2084.7 1294.61,2101.81L1292.98,2105.86C1287.8,2110.89 1284.16,2110.65 1278.03,2111.7C1267.02,2110.56 1239.66,2109.69 1233.94,2094.21L1235.58,2090.21C1241.4,2085.1 1245.84,2085.6 1252.63,2084.85ZM1498.01,2112.84C1505.33,2112.7 1516.66,2113.77 1521.81,2122.11L1520.91,2125.47C1511.11,2137.09 1497.46,2136.82 1485.23,2138.03C1475.47,2138.22 1463.14,2138.66 1454.84,2130.55L1454.93,2127.02C1464.29,2112.81 1485.16,2113.52 1498.01,2112.84Z" style="fill:rgb(41,123,119);"/>
        <path d="M540.071,1674.28C545.62,1674.47 558.877,1678.56 564.654,1680.57C607.319,1695.48 627.664,1718.97 657.388,1763.35C601.724,1798.87 549.92,1857.78 532.267,1947.41C524.883,1951.87 502.801,1964.86 504.578,1978.77C512.379,1979.48 521.968,1973.44 530.057,1971.85C587.111,1960.58 638.473,1994.06 694.278,2001.21C705.275,2002.62 752.262,1995.8 757.004,1999.42C758.521,2003.38 759.193,2005.14 758.009,2010.63C747.802,2057.92 688.465,2060.46 662.001,2060.29C651.586,2060.22 632.665,2051.19 625.045,2057.45C624.263,2059.99 622.888,2062.86 623.558,2065.18C646.605,2145.16 770.673,2164.41 810.539,2155.57C803.246,2171.16 800.944,2173.88 790.166,2182.45C733.041,2217.29 653.38,2183.48 598.303,2150.31C617.887,2174.85 639.113,2191.99 663.676,2203.1C673.275,2207.44 683.938,2208.8 693.093,2214.76L692.516,2217.57C684.678,2222.03 674.663,2219.38 666.45,2218.93C626.838,2216.81 593.033,2197.15 558.722,2169.01L557.661,2170.56C561.438,2196.37 581.906,2201.15 585.37,2210.7C576.533,2217.71 532.566,2187.2 523.101,2179.2C480.218,2142.43 441.226,2089.31 427.457,2015.9C399.313,1865.85 435.144,1719.75 540.071,1674.28ZM1960.48,2087.97C1962.82,2087.62 1964.88,2087.49 1967.23,2088.13C1980.32,2091.69 2048.68,2166.72 2055.52,2183.73C2057.46,2188.55 2057.44,2190.92 2056.75,2196.3C2010.82,2259.2 1969.95,2157.19 1948.92,2164.42C1943.04,2185.87 1970.9,2217.97 1981.47,2229.37C1986.23,2234.5 1994.18,2238.89 1999.82,2242.11C1992.22,2250.05 1973.58,2263.36 1971.36,2271.2C1981.08,2280.67 2008.73,2266.47 2019.09,2260.61C2036.44,2291.27 2051.52,2293.27 2076.37,2298.84C2086.5,2312.78 2090.34,2313.36 2103.37,2318.88C2095.22,2324.16 2086.84,2328.58 2078.29,2332.09C2023.38,2355.27 1985.71,2330.56 1939.01,2290.79C1921.54,2285.79 1933.38,2290.77 1928.02,2301.58C1918.36,2306.91 1866.75,2315.81 1848.42,2317.96C1807.94,2320.92 1740.44,2330.9 1704.53,2302.26C1685.77,2287.31 1711.66,2211.64 1724.31,2193.85C1775.93,2121.28 1809.53,2156.99 1868.84,2160.16C1872.29,2213.06 1893.5,2241.61 1925.05,2257.7C1902.17,2214.23 1885.18,2154.98 1922.1,2113.67C1934.03,2100.32 1946.5,2094.99 1960.48,2087.97ZM2083.37,2006.06C2101.35,2003.31 2111.73,2015.7 2126.5,2027.48C2164.07,2057.45 2190.89,2084.31 2215.89,2137.77C2262.87,2166.83 2241.82,2203.5 2224.85,2250.12C2220.92,2246.2 2220.48,2245.9 2217.04,2240.63C2214.97,2231.5 2218.07,2221.82 2220.03,2211.85C2211.14,2218.79 2097.47,2313.61 2090.67,2251.98C2089.09,2237.66 2127.55,2202.51 2141.17,2188.97C2148.02,2182.98 2171.17,2161.87 2173.96,2152.52L2171.72,2149.95C2157.92,2147.61 2106.94,2187.54 2086.16,2192.04C2082.66,2168.72 2072.78,2162.69 2060.53,2142.39C2073.51,2125.18 2117.41,2085.51 2121.39,2076.77L2120.22,2074.43C2099.14,2073.46 2060.76,2100.78 2043.01,2118.24C2029.51,2100.37 2009.96,2082.62 1999.64,2067.17C2018.04,2041.74 2059.72,2016.9 2083.37,2006.06ZM1274.9,1186.39C1315.79,1182.17 1347.8,1204.9 1372.8,1253.22C1399.88,1305.57 1386.27,1362.27 1387.07,1422.12C1387.54,1457.21 1390.76,1501.67 1395.12,1536.15C1385.78,1524.04 1379.09,1511.73 1371.94,1496.83C1355.69,1455.97 1353.65,1425.84 1354.54,1378.59C1296.51,1450.36 1162.04,1228.54 1274.9,1186.39ZM1281.99,1222.13C1269.2,1229.47 1268.28,1232 1260.16,1248.7C1278.05,1245.63 1285.15,1244.68 1300.6,1261.19C1294.88,1269.7 1286.55,1282.5 1287.09,1295.33C1287.36,1301.69 1293.97,1317.5 1298.96,1319.09C1302.55,1313.84 1303.28,1305.42 1304.35,1297.99C1308.38,1291.36 1313.35,1289.43 1319.1,1287.61C1324.62,1287.99 1325.91,1287.34 1330.16,1292.62C1335.33,1304.77 1329.21,1312.61 1333.1,1322.95C1363.68,1332.64 1341.97,1216.81 1281.99,1222.13ZM1455.59,1565.04C1400.82,1483.29 1428.17,1370.42 1439.48,1270.56C1444.78,1223.83 1453.48,1178.58 1462.53,1133.24C1532.82,1137.14 1588.47,1142.6 1658.04,1162.19C1729.19,1182.21 1798.63,1207.82 1869.64,1227.91C1845.69,1251.06 1830.83,1256.27 1804.54,1234.97C1806.69,1243.26 1809.05,1253.09 1811.49,1261.05C1776.02,1283.32 1790.98,1318.21 1815.47,1341.45C1829.62,1354.87 1870.49,1374.37 1872.79,1399.36C1865.61,1423.53 1828.22,1418.33 1813.58,1414.51C1801.23,1411.28 1788.66,1405.7 1776.24,1402.7C1764.01,1399.74 1741.88,1403.79 1732.99,1388.74C1729.16,1359.78 1762.6,1361.05 1774.21,1362.21C1739.3,1331.27 1723.61,1362.27 1690.59,1382.7C1649.41,1408.16 1609.34,1439.36 1566.76,1459.34C1558.93,1463.1 1547.48,1460.03 1541.92,1463.27C1541.11,1467.67 1542.38,1474.33 1544.11,1477.83C1599.45,1589.55 1823.6,1419.76 1854.25,1566.04C1848.61,1568.1 1840.13,1566.16 1832.23,1569.37C1785.6,1519.03 1745.38,1549.5 1695.18,1552.2L1693.48,1552.27L1692.58,1554.88C1702.52,1574.66 1760.82,1620.6 1778.27,1634.79C1775.72,1615.73 1773.31,1596.29 1770.09,1577.48C1778.76,1574.06 1850.63,1614.16 1866.32,1604.96C1876.51,1628.25 1883.45,1642.37 1895.67,1663.99C1867.99,1663.55 1855.09,1663.71 1830.3,1644.62C1831.74,1674.16 1835.57,1699.69 1839.77,1728.43L1838.35,1733.14C1809.09,1736.23 1728.82,1683.27 1700,1664.07C1701.74,1672.4 1702.3,1674.27 1705.03,1682.03L1714.52,1731.59C1708.99,1729.87 1691.73,1725.1 1687.25,1722.83C1684.21,1717.52 1666.9,1697.29 1661.19,1689.09C1635.59,1652.32 1611.03,1618.14 1583.43,1584.71C1585.62,1601.79 1587.69,1615.79 1591.64,1632.23C1593.76,1641.07 1596.59,1648.51 1598.19,1657.25C1567.69,1625.26 1542.69,1601.23 1515.61,1562.82C1513.47,1557.68 1504.35,1542.2 1501.26,1536.75C1501.27,1565.32 1502.95,1576.45 1508.79,1603.72C1470.76,1567.4 1465.34,1531.59 1451.68,1470.07C1445.74,1503.24 1445.53,1519.02 1453.34,1552.07C1454.52,1557.06 1455.12,1559.86 1455.59,1565.04ZM1491.58,1457.38C1494.26,1464.71 1533.97,1501.75 1526.88,1483.44C1514.74,1474.4 1486.82,1444.35 1491.58,1457.38ZM1612.87,1184.78C1589.09,1188.51 1573.04,1196.49 1554.12,1219.79C1590.12,1219.5 1603.96,1222.22 1639.79,1236.54C1621.82,1245.92 1616.98,1250.15 1604.38,1271.58C1634.84,1254.68 1642.81,1249.93 1675.49,1256.85L1654.36,1277.41C1660.37,1283 1674.88,1294.51 1677.04,1303.4C1673.41,1309.38 1670.13,1311.35 1664.9,1311.43C1644.54,1311.74 1638.6,1304.42 1628.1,1281.41C1626.09,1282.81 1626.8,1281.81 1625.76,1284.07C1630.93,1323.4 1652.19,1330.01 1677.27,1324.25C1693.43,1320.55 1702.63,1295.3 1708.94,1274.33C1719.56,1276.22 1724.43,1282.43 1735.59,1278.92C1752.11,1273.72 1779.03,1249.8 1761.86,1220.93C1755.62,1226.09 1755.2,1240.97 1743.31,1241.72C1699.97,1244.46 1655.41,1174.26 1612.87,1184.78ZM1286.47,1414.87C1297.68,1418.31 1308.87,1421.88 1320.05,1425.56C1315.67,1444.55 1319.3,1469.79 1324.46,1487.67C1348.62,1571.45 1416.31,1623.05 1469.82,1656.61L1439.44,1704.36C1432.03,1717.25 1426.08,1728.45 1419.23,1742.03C1401.86,1646.95 1309.64,1589.16 1276.77,1457.56C1279.91,1442.32 1282.64,1429.72 1286.47,1414.87ZM1838.75,1276.02L1840.19,1278.17C1837.52,1284.87 1829.99,1291.96 1825.48,1296.9C1833.23,1300.56 1848.89,1306.5 1850.03,1320.01L1846.53,1324.76C1835.93,1324.78 1812.59,1321.5 1818.76,1294.3C1821.13,1283.84 1832.07,1279.62 1838.75,1276.02Z" style="fill:rgb(236,212,177);"  data-color="color-4"/>
        <path d="M1860.77,1587.27L1880,1590.84L1904.51,1670.14L1855.93,1675.97L1855.39,1762.04L1721.31,1746L1603.09,1696.51L1431.68,1569.17L1414.59,1406.8L1410.13,1331.57C1402.04,1331.94 1502.6,1457.67 1527.16,1483.32C1571.92,1530.06 1627.86,1546.67 1693.33,1556.26C1693.05,1555.79 1692.81,1555.33 1692.58,1554.88C1693.6,1555.5 1694.62,1556.08 1695.64,1556.64L1744.89,1565.77C1758.64,1565.54 1772.33,1564.73 1785.8,1567.72C1794.97,1568.03 1826.33,1571.97 1832.23,1569.37C1840.13,1566.16 1848.61,1568.1 1854.25,1566.04C1856.42,1573.06 1858.59,1580.18 1860.77,1587.27ZM1702.21,1418.43C1716.63,1416.71 1742.01,1434.21 1761.49,1431.17C1769.1,1429.98 1797.69,1446.11 1808.31,1446.77C1819.13,1447.45 1837.6,1452.38 1849.05,1454.46C1866.72,1466.23 1890.68,1502.26 1905.95,1521.96C1868.55,1524.22 1840.57,1492.51 1800.59,1477.46C1721.12,1454.96 1655.89,1516.73 1575.66,1480.9C1614.07,1463.13 1665.73,1428.93 1702.21,1418.43Z" style="fill:rgb(125,138,149);"/>
        <path d="M246.569,715.244C259.303,718.402 292.271,733.632 305.571,739.293L428.332,792.103C532.284,836.598 631.724,873.053 735.453,924.255C702.049,936.466 666.338,944.682 633.504,957.873C675.526,996.01 726.273,1036.83 769.731,1074.33C902.242,1188.27 1034.32,1303.32 1165.96,1419.5C1181.95,1404.52 1190.76,1394.32 1201.32,1370.94C1162.03,1367.48 1147.98,1365.43 1113.25,1333.82C1135.93,1328.76 1146.26,1321.09 1164.15,1300.64L1161.57,1300.69C1125.55,1301.09 1085.23,1286.78 1058.92,1247.74C1095.59,1250.1 1113.07,1246.72 1146.66,1223.97C1092.1,1225.76 1047.85,1213.79 1002.13,1161.98C997.79,1157.07 994.745,1152.5 994.344,1144.71C999.834,1137.89 1012.16,1139.31 1024.92,1138.33C1095.42,1132.47 1169.58,1081.82 1234.77,1044.83C1242.16,1040.63 1269.68,883.315 1319.66,848.426C1382.89,804.288 1410.23,820.052 1473.84,800.762C1543.35,779.688 1610.7,721.105 1685.97,748.841C1728.71,764.135 1755.01,814.304 1789.97,849.772C1819.57,879.804 1855.73,896.673 1873.95,945.99C1890.54,990.892 1893.37,1043.23 1907.95,1088.79C1940.63,1142.01 2045.62,1188.44 2089.12,1201.58C2042.34,1267.38 1975.5,1278.92 1913.92,1279.22C1897.61,1279.3 1892.62,1278.75 1878.58,1292.19C1882.24,1317.38 1880.28,1323.31 1877.18,1349.43C1906.22,1383.92 1922.17,1398.69 1887.34,1442.92C1910.22,1488.3 1902.73,1499.69 1945.16,1517.54C1944.86,1517.97 1944.56,1518.39 1944.26,1518.82L1942.73,1520.9C1925.36,1544.82 1904.42,1545.09 1881.99,1548.34C1895.21,1607.96 1904.76,1636.67 1936.05,1678.87C1909.81,1689.34 1899.38,1690.22 1872.08,1688.05C1872.48,1718.4 1870.33,1748.17 1868.58,1778.4C1829.98,1778.94 1804.26,1772.96 1767.37,1754.63C1764.49,1762.37 1759.37,1776.88 1753.85,1779.68C1721.01,1796.33 1659.84,1754.37 1629.25,1735.95C1680.83,1793.06 1740.95,1840.76 1796.54,1888.56C1857.07,1940.96 1917.41,1993.87 1977.54,2047.28C2027.97,1998.7 2077.97,1937.2 2137.19,1990.93C2157.42,2009.28 2208.94,2045.69 2222.23,2072.84C2236.08,2101.12 2259.85,2123.85 2270.4,2146.49C2274.8,2155.92 2277.69,2166.74 2278.84,2178.12C2282.77,2216.66 2266.43,2251.8 2252.25,2281.14C2318.91,2338.25 2386.28,2399.21 2452.66,2457.54L2523.42,2520.36C2540.81,2535.5 2571.15,2555.32 2581.02,2582.48C2590.28,2607.97 2570.67,2635.71 2555.96,2645.21C2505.72,2677.64 2458.72,2621.4 2417.42,2585.21L2244.89,2432.72C2214.34,2405.72 2170.07,2362.87 2138.14,2345.51C2070.29,2381.16 2012.29,2403.53 1946.93,2342.63C1894.66,2357.28 1845.17,2365.45 1792,2363.51C1780.65,2363.09 1734.97,2354.76 1729.81,2355.56C1706.9,2359.15 1695.46,2372.76 1666.15,2364.32C1634.64,2355.26 1614.11,2334.75 1584.85,2316.47C1544.98,2291.56 1540.97,2263.75 1526.53,2207.65C1497.33,2209.84 1491.95,2210.25 1462.5,2205.79C1440.53,2222.67 1429.82,2239.97 1416.53,2271.95C1414.38,2277.12 1413.66,2282.26 1414.96,2288.1C1419.38,2293.49 1424.79,2294.3 1430.53,2296.27C1501.62,2313.29 1552.96,2337.43 1617.94,2383.99C1702.4,2444.51 1735.97,2491.3 1732.62,2638.54C1748.06,2660.51 1753.15,2655.69 1751.29,2693.21C1750.21,2714.78 1749.87,2739.67 1749.36,2761.46L1740.83,2778.87C1739.53,2805.09 1740.54,2817.08 1745.53,2841.77C1759.88,2850.86 1776.2,2859.01 1790.98,2866.91C1797.75,2862.39 1804.61,2858.17 1811.55,2854.26C1878.89,2816.49 1992.34,2806.06 2022.78,2930.01C2140.23,3068.65 1805.44,3144.92 1758.74,3142.56C1746.27,3141.93 1729.87,3138.55 1718.2,3138.68C1713.99,3142.66 1718.19,3149.79 1715.1,3163.79C1708.88,3173.78 1676.16,3180.33 1665.75,3182.36C1605.75,3194.01 1535.19,3216.88 1476.29,3189.1C1457.7,3179.34 1464.71,3105.52 1459.81,3093.07C1435.12,3030.32 1450.87,2992.62 1456.07,2928.69C1456.86,2918.92 1442.4,2865.89 1439.18,2848.78C1438.24,2847.86 1428.31,2837.78 1427.71,2836.45C1415.82,2809.89 1403.87,2746.6 1400.22,2715C1398.5,2700.14 1406.66,2688.87 1411.68,2680.36C1411.84,2665.09 1416.34,2634.87 1413.93,2623.29C1404.33,2616.15 1358.23,2615.6 1343.24,2613.76C1306.72,2609.45 1270.27,2603.99 1233.9,2597.39C1203.17,2591.77 1170.72,2584.48 1140.04,2580.57C1123.6,2595.69 1107.45,2614.17 1091.58,2630.89C1003.57,2723.62 915.69,2827.72 811.622,2876.5C797.886,2884.76 773.012,2879.99 760.586,2886.45C708.894,2913.31 675.201,2920.75 620.252,2905.69C604.192,2930.32 600.832,2942.45 593.638,2974.99C644.326,3002.48 658.739,3020.06 653.683,3103.58C653.568,3134 653.561,3153.44 630.975,3163.96C580.22,3186.9 534.792,3188.5 481.718,3186.39C380.638,3182.37 226.203,3125.01 284.404,2923.27C289.074,2907.08 297.045,2892.34 302.218,2874.68C277.569,2863.27 261.971,2849.66 262.433,2806.53C262.778,2774.27 274.692,2714.49 289.641,2692.28C311.812,2659.35 351.619,2649.36 381.476,2647.02C393.435,2646.09 406.196,2648.91 418.205,2647.22C442.278,2641.45 459.867,2634.82 484.643,2633.82C510.13,2608.41 517.533,2606.14 546.466,2595.01C574.488,2584.23 599.032,2570.64 629.092,2570.2C647.065,2569.93 665.578,2574.18 683.013,2572.87L684.803,2572.72C699.508,2535.71 710.792,2488.75 726.316,2450.6C736.31,2426.04 749.439,2402.97 758.307,2380.42C764.426,2364.86 764.337,2331.2 771.341,2308.54C780.698,2278.26 795.639,2244.54 803.985,2215.27C785.94,2225.82 774.777,2226.7 755.856,2231.74C748.3,2233.76 730.712,2245.72 724.135,2246.77C690.673,2252.13 632.029,2259.14 599.564,2255.36C583.403,2253.41 567.427,2248.87 551.909,2241.83C491.266,2214.15 425.731,2156.62 395.887,2070.17C372.368,2002.04 362.662,1900.15 377.794,1826.27C394.746,1743.51 434.294,1701.04 482.484,1662.46C493.791,1611.07 512.726,1600.23 541.358,1571.64C565.349,1547.58 602.127,1528.9 631.283,1530.36C664.813,1532.04 670.841,1527.52 702.071,1510.3C714.961,1503.07 728.082,1496.8 741.387,1491.53C834.81,1453.05 948.903,1430.03 1044.24,1463.78L746.351,1202.82C685.603,1149.93 607.434,1086.29 549.564,1029.69L556.79,1131.67C521.184,1094.63 479.377,1042.97 446.113,1000.17C381.644,917.207 298.761,813.931 246.569,715.244ZM547.849,2829.63C562.805,2830.34 580.628,2821.04 595.349,2814.98C620.572,2827.71 615.73,2855.53 638.668,2868.78C650.988,2875.9 673.938,2876.27 686.158,2867.41L686.681,2864.99C681.118,2856.98 661.786,2849.6 648.149,2831.53C625.503,2801.51 609.855,2771.55 607.748,2724.17C605.824,2680.9 616.381,2652.36 634.483,2621.16C601.647,2621.51 547.332,2635.41 528.848,2682.04C504.936,2731.75 526.869,2782.85 543.681,2827.31C546.12,2829.33 545.285,2829.21 547.849,2829.63ZM1611.9,2669C1554.46,2674.87 1500.11,2689.06 1447.73,2726.97C1452.36,2748.96 1456.58,2771.9 1461.33,2793.58C1482.74,2779.16 1505.04,2767.91 1527.91,2759.99C1597.14,2735.79 1636.97,2734.04 1706.88,2742.49C1707.04,2723.95 1707.62,2696.26 1709.11,2677.57C1680.01,2667.77 1642,2665.32 1611.9,2669ZM1470.47,1866.78C1482.93,1865.85 1492.11,1865.63 1504.56,1866.28C1508.67,1866.8 1508.84,1866.87 1512.9,1865.95C1515.67,1861.68 1514.97,1864.18 1515.04,1858.2C1511.31,1847.81 1508.36,1845.54 1501.04,1841.32L1497.81,1839.73C1484.58,1834.47 1446.05,1834.25 1451.02,1866.3C1455.6,1873.01 1465.64,1870.52 1470.47,1866.78ZM1675.65,2836.55C1669.42,2838.21 1662.1,2839.86 1656.03,2841.97C1663.14,2855.18 1666.83,2860.95 1675.57,2872.11L1690.43,2861.42C1697.37,2858.33 1709.24,2855.34 1711.92,2844.43C1707.07,2832.19 1684.06,2834.9 1675.65,2836.55ZM1274.9,1186.39C1162.04,1228.54 1296.51,1450.36 1354.54,1378.59C1353.65,1425.84 1355.69,1455.97 1371.94,1496.83C1379.09,1511.73 1385.78,1524.04 1395.12,1536.15C1390.76,1501.67 1387.54,1457.21 1387.07,1422.12C1386.27,1362.27 1399.88,1305.57 1372.8,1253.22C1347.8,1204.9 1315.79,1182.17 1274.9,1186.39ZM1281.99,1222.13C1341.97,1216.81 1363.68,1332.64 1333.1,1322.95C1329.21,1312.61 1335.33,1304.77 1330.16,1292.62C1325.91,1287.34 1324.62,1287.99 1319.1,1287.61C1313.35,1289.43 1308.38,1291.36 1304.35,1297.99C1303.28,1305.42 1302.55,1313.84 1298.96,1319.09C1293.97,1317.5 1287.36,1301.69 1287.09,1295.33C1286.55,1282.5 1294.88,1269.7 1300.6,1261.19C1285.15,1244.68 1278.05,1245.63 1260.16,1248.7C1268.28,1232 1269.2,1229.47 1281.99,1222.13ZM2187.51,2275.76L2156.58,2300.92L2413.14,2531.49C2434.76,2550.54 2498.27,2609.2 2517.37,2618.68C2526.21,2618.39 2547.18,2614.36 2545.83,2594.92C2545.39,2588.63 2531.55,2577.05 2528.07,2573.29C2492.62,2541.65 2456.8,2510.35 2421.12,2479.29L2187.51,2275.76ZM1599.71,2780.77C1577.08,2784.3 1552.98,2789.9 1531.85,2798.33C1518.12,2803.82 1475.94,2816.38 1478.8,2841.05C1480.65,2856.92 1498.06,2915.45 1505.73,2927.6C1488.21,2974.46 1490.64,3019.39 1496.65,3071.27C1538.81,3056.66 1581.75,3047.67 1624.97,3044.41C1696.08,3039.5 1739.46,3046.33 1807.18,2998.25C1845.62,2970.96 1908.22,2941.53 1949.89,2937.63C1962.45,2936.16 1975.01,2934.97 1987.59,2934.05C1942.93,2820.52 1839.69,2873.45 1777.01,2920.56C1762.65,2931.35 1749.18,2945.22 1734.85,2956.54C1742.56,2923.21 1745.1,2917.66 1761.66,2892.18C1734.25,2878.25 1725.89,2877.72 1698.4,2893.76C1707.72,2898.61 1721.1,2903.66 1727.15,2915.17L1726.51,2918.79C1715.14,2927.05 1690.62,2915.99 1678.7,2909.95L1670.45,2927.89C1646.1,2937.7 1629.88,2928.44 1652.85,2893.63C1643.01,2885 1628.07,2864.15 1625.48,2862.41C1617.72,2865.89 1606.16,2874.66 1602.7,2860.59C1604.26,2841.85 1608.32,2839.94 1618.38,2827.16L1617.77,2824.38C1613.35,2803.57 1617.04,2785.67 1609.28,2779.5L1599.71,2780.77ZM1008.36,2197.34C998.974,2213.14 981.281,2262.69 973.89,2282.47C979.588,2284.62 1014.71,2299.83 1017.21,2295.98C1025.74,2274.34 1042.7,2227.14 1054.24,2213.08C1045.83,2209.73 1015.34,2196.76 1008.36,2197.34ZM1375.07,2038.52C1384.36,2039.69 1397.47,2043.56 1404.6,2032.66L1404.28,2029.25C1397.42,2019.89 1389.07,2020.43 1379.81,2018.99C1375.52,2017.76 1374.51,2016.72 1370.55,2019.2C1367.39,2025.46 1368.25,2021.99 1368.06,2030.07C1370.23,2036.19 1370.12,2036.39 1375.07,2038.52ZM1040.84,2043.56C1008.34,2091.91 980.357,2108.07 939.36,2133.71C958.54,2146.49 977.274,2159.07 996.789,2170.67C1018.13,2158.86 1051.99,2178.13 1072.71,2189.18C1079.83,2192.96 1081.57,2196.05 1083.96,2206.61C1093.86,2213.07 1126.26,2223.29 1137.79,2225.68C1144.38,2227.56 1151.82,2229.97 1158.39,2231.36C1168.24,2222.91 1185.72,2219.1 1196.86,2212.23C1201.65,2209.28 1209.85,2212.29 1215.16,2213.79C1219.46,2200.33 1223.63,2186.77 1227.65,2173.13C1198.54,2161.89 1157.56,2145.71 1155.72,2090.5C1148.81,2092.52 1130.19,2098.38 1123.92,2097.53C1104.44,2094.88 1079.72,2068.15 1061.49,2056.59C1055.64,2052.87 1046.14,2044.82 1040.84,2043.56ZM1263.78,2009.85C1276.25,2009.97 1288.13,2010.66 1300.27,2015.57C1310.14,2018.13 1325.93,2029.39 1334.9,2035.8C1338.12,2004.18 1341.13,1972.52 1343.93,1940.81C1333.86,1930.13 1325.54,1925.96 1314.12,1919.61C1302.59,1915.04 1289.37,1913.94 1277.51,1915.2C1225.78,1921.78 1230.66,1959.35 1211.4,2018.86C1229.63,2010.37 1244.73,2009.81 1263.78,2009.85ZM1613.99,1771.22C1615.76,1805.44 1605.3,1831.2 1591.63,1857.39C1590.16,1843.97 1588.12,1811.83 1576.34,1814.49C1568.58,1823.09 1557.03,1854.25 1549.74,1869.02C1556.78,1875.04 1561.69,1879.12 1568.21,1886.37C1568.35,1902.11 1569.2,1914.88 1570.26,1930.59C1576.87,1929.21 1617.79,1860.23 1626.52,1848.02C1628.67,1899.67 1624.26,1932.68 1600.74,1973.23C1595.99,1981.37 1591,1989.19 1585.79,1996.68C1575.92,2015.67 1591.94,2064.94 1597.72,2085.63C1639.09,2038.78 1661.57,2027.99 1710.93,2013.21C1705.99,1947.6 1696.58,1865.09 1661.62,1816.32C1656.75,1809.53 1619.67,1773.74 1613.99,1771.22ZM885.658,2149.74C876.209,2158.92 852.422,2195.68 857.13,2213.63C869.118,2227.54 928.638,2253.45 947.334,2267.68C956.749,2245.74 967.049,2219.84 976.674,2198.74C950.331,2186.57 910.883,2166.31 885.658,2149.74ZM1424.71,1052.9C1335.12,1057.53 1256.94,1067.33 1173.45,1118.2C1159.17,1126.9 1137.66,1136.49 1124.6,1147.13C1171.2,1139.22 1217.32,1123.21 1265.04,1115.54C1423.76,1090.24 1584.07,1098.66 1741.23,1140.53C1822.3,1163.4 1942.53,1218.48 2019.26,1215.98C2009.86,1208.55 1999.15,1199.93 1989.27,1194.54C1940.87,1168.16 1897.34,1123.25 1846.21,1108.14C1711.28,1068.28 1562.5,1043.54 1424.71,1052.9ZM1105.45,1805.41C1101.78,1824.64 1097.51,1843.6 1092.65,1862.23C1119.98,1879.09 1147.73,1894.41 1175.83,1908.16L1210.07,1898.72L1217.48,1866.06C1222.75,1860.04 1224.8,1858.67 1227.79,1850.21L1227.64,1844.97C1220.18,1836.62 1119.57,1807.66 1105.45,1805.41ZM1174.11,1855.8C1192.58,1855.62 1201.64,1880.64 1179.16,1889.86C1171.52,1887.93 1167.94,1886.99 1162.97,1878.31C1160.23,1863.45 1166.02,1860.92 1174.11,1855.8ZM1073.12,2237.25C1065.17,2256.73 1054.93,2284.52 1046.79,2302.46C1074.28,2309.31 1101.56,2318.35 1129.1,2325.46L1132.36,2324.77C1137.21,2313.77 1146.96,2273.75 1150.55,2259.4C1124.84,2251.22 1099.03,2243.84 1073.12,2237.25ZM1111.63,2270.14C1120.02,2270.68 1127.77,2275.13 1125.86,2289.89C1122.74,2295.96 1121.58,2296.18 1116.97,2299.21C1108.25,2298.17 1105.66,2298.64 1099.85,2289.13C1098.42,2281.91 1098.26,2285.3 1100.05,2278.61C1104.33,2272.58 1105.74,2272.65 1111.63,2270.14ZM630.392,1570.87C609.835,1573.39 602.258,1574.81 583.489,1588.67C610.334,1594.83 625.894,1601.81 651.343,1616.25C610.271,1610.69 579.268,1591.24 543.521,1629.16C591.464,1632.64 626.043,1659.49 664.608,1699.58C677.583,1713.5 685.245,1722.36 696.34,1739.62C726.18,1727.31 756.947,1719.86 787.572,1713.46C766.008,1649.78 728.43,1601.58 683.136,1579.52C666.242,1571.57 648.009,1569.33 630.392,1570.87ZM458.845,2680.78C395.882,2691.97 355.996,2727.23 359.928,2832.29C360.417,2845.37 363.075,2861.16 361.593,2874.77C359.333,2895.51 348.608,2924.93 348.487,2945.65C347.487,3116.73 505.917,3106.85 584.882,3092.83C602.306,3089.73 628.014,3086.65 617.645,3051.8C611.665,3032.21 607.438,3023.76 594.897,3013.39C548.984,2982.42 481.679,3000.92 432.128,2999.98C427.303,2999.88 424.101,3000.57 420.267,2996.43C419.944,2982.1 433.984,2979.53 441.53,2977.31C454.769,2973.35 468.177,2970.77 481.655,2969.6C494.532,2968.38 550.421,2969.95 556.151,2965.41L556.085,2962.67C549.228,2957.79 530.215,2958.19 521.424,2956.63C498.489,2952.58 469.851,2945.17 449.343,2928.8C452.072,2922.73 459.053,2909.88 460.821,2904.47C472.383,2869.05 483.864,2845.13 501.078,2815.27C483.286,2768.63 479.014,2734.62 489.301,2681.89C478.87,2679.89 469.383,2678.65 458.845,2680.78ZM1388.84,1938.84C1383.91,1939.34 1378.83,1938.3 1375.74,1943.3C1370.36,1952.02 1371.18,1976.19 1370.91,1987.57L1397.67,1991.15C1403.8,1992.47 1401.45,1993.73 1405.52,1989.85C1409.04,1975.22 1410.2,1956.34 1410.99,1940.62C1404.3,1940.07 1395.35,1938.92 1388.84,1938.84ZM920.415,1490.91C848.901,1495.41 781.854,1512.78 715.853,1556.47C767.742,1586.9 804.606,1635.55 828.02,1712.28C852.268,1711.85 882.395,1711.08 906.549,1715.25C960.007,1724.46 1001.37,1725.07 1054.33,1710.44C1042.69,1730.52 1030.76,1747.6 1017.45,1765.21C1034.64,1776.87 1058.89,1793.74 1073.84,1810.5C1076.36,1800.52 1082.22,1772.32 1087.5,1768.21L1089.83,1768.88C1130.08,1781.02 1186.03,1794.33 1224.36,1809.36C1219.31,1783.85 1213.74,1757.27 1210.92,1731.04C1199.58,1734.73 1187.17,1738.36 1175.99,1742.53C1144.54,1670.56 1136.23,1609.48 1138.07,1523.09C1107,1513.22 1077.8,1513.25 1049.87,1504.64C1076.69,1539.32 1093.12,1571.82 1078.66,1626.05C1062.1,1527.38 981.233,1487.77 920.415,1490.91ZM571.511,2852.3L568.765,2855.26C571.05,2859.12 586.646,2868.52 591.208,2871.73L592.976,2870.14C587.927,2855.78 581.709,2851.14 571.511,2852.3ZM1462.3,2169.26C1489.66,2175.05 1499.78,2174.36 1527.25,2168.63C1593.83,2140.21 1574.72,2075.35 1518.35,2060.87C1498.87,2057.44 1493.95,2057.65 1474.23,2061.06C1461.34,2066.03 1452.16,2068.97 1440,2078.39C1415.91,2097.06 1405.12,2136.86 1434.73,2157.29C1442.22,2162.45 1453.73,2168.17 1462.3,2169.26ZM1478.57,2087.21C1487.1,2085.09 1500.64,2082.08 1509.03,2082.54C1547.3,2091.5 1578.2,2131.92 1524.12,2152.47C1507.32,2159.06 1478.93,2162.51 1462.36,2154.77C1453.93,2151.85 1437.69,2145.12 1434.76,2131.72C1428.15,2101.46 1466.43,2091.13 1478.57,2087.21ZM1498.01,2112.84C1485.16,2113.52 1464.29,2112.81 1454.93,2127.02L1454.84,2130.55C1463.14,2138.66 1475.47,2138.22 1485.23,2138.03C1497.46,2136.82 1511.11,2137.09 1520.91,2125.47L1521.81,2122.11C1516.66,2113.77 1505.33,2112.7 1498.01,2112.84ZM1286.47,1414.87C1282.64,1429.72 1279.91,1442.32 1276.77,1457.56C1309.64,1589.16 1401.86,1646.95 1419.23,1742.03C1426.08,1728.45 1432.03,1717.25 1439.44,1704.36L1469.82,1656.61C1416.31,1623.05 1348.62,1571.45 1324.46,1487.67C1319.3,1469.79 1315.67,1444.55 1320.05,1425.56C1308.87,1421.88 1297.68,1418.31 1286.47,1414.87ZM1702.21,1418.43C1665.73,1428.93 1614.07,1463.13 1575.66,1480.9C1655.89,1516.73 1721.12,1454.96 1800.59,1477.46C1840.57,1492.51 1868.55,1524.22 1905.95,1521.96C1890.68,1502.26 1866.72,1466.23 1849.05,1454.46C1837.6,1452.38 1819.13,1447.45 1808.31,1446.77C1797.69,1446.11 1769.1,1429.98 1761.49,1431.17C1742.01,1434.21 1716.63,1416.71 1702.21,1418.43ZM1749.64,2005.22C1761.36,2042.04 1814.5,2044.82 1838.94,2120.03C1853.68,2124.85 1863.96,2130.18 1877.84,2120.17L1878.07,2116.64C1869,2105.76 1756.91,2006.66 1749.64,2005.22ZM1302.98,1708.51C1305.81,1730.12 1309.92,1759.37 1314.62,1780.32C1331.31,1779.92 1350.04,1782.2 1362.66,1801.08C1369.32,1811.07 1373.04,1824.66 1372.96,1838.79C1372.96,1845.9 1371.23,1854.77 1369.98,1861.72C1396.49,1849.71 1398.55,1866.2 1413.93,1863.68C1417.73,1841.62 1412.69,1849.89 1425.57,1831.82C1434.67,1819.06 1456.75,1819.58 1459.7,1805.34C1462.16,1797.97 1464.65,1790.04 1467.45,1783C1459.25,1786.34 1451.42,1789.53 1443.52,1794.37C1422.22,1807.42 1406.48,1830.38 1385.65,1844.95C1389.88,1825.14 1389.92,1821.94 1388.04,1801.07C1373.17,1771.81 1328.24,1716.38 1302.98,1708.51ZM1508.49,1777.95C1503.81,1789.04 1499.21,1800.2 1494.69,1811.45C1501.99,1815.08 1510.63,1820.07 1518.11,1821.38L1519.98,1819.92C1526.38,1808.04 1530.65,1798.18 1536.24,1785.34C1530.04,1783.41 1514.3,1778.14 1508.49,1777.95ZM513.192,2851.54C509.141,2857.84 506.729,2860.54 504.595,2868.44L505.047,2871.64C517.786,2880.72 559.214,2898.85 573.129,2903.66C576.181,2900.7 577.069,2900.68 578.55,2895.94C574.913,2890.42 563.127,2887.66 557.056,2884.09C541.735,2875.08 528.176,2860.86 513.192,2851.54ZM1090.73,1892.92C1086.11,1948.27 1078.77,1974.88 1056.4,2020.76C1079.25,2039.48 1101.03,2055.05 1124.54,2071.81C1137.82,2066.51 1151.14,2061.38 1164.48,2056.44C1165,2055.53 1201.52,1943.17 1203.82,1935.33C1197.42,1936.51 1183.7,1939.13 1177.9,1938.55C1152.23,1936.01 1114.02,1910.18 1090.73,1892.92ZM1376.53,2100.99C1363.82,2132.3 1360.99,2136.25 1341.58,2157.57C1332.32,2167.74 1307.62,2208.91 1306.85,2225.84C1312.72,2242.97 1338.74,2235.27 1349.64,2233.51C1381.87,2226.75 1392.33,2219.23 1419.15,2191.69C1398.81,2169.16 1377.11,2146.94 1378.05,2103.13L1376.53,2100.99ZM348.776,2702.25C336.059,2705.41 330.176,2709.71 322.495,2726.32C311.839,2749.36 288.781,2829.62 315.453,2841.96C318.97,2842.55 322.473,2844.25 324.831,2842.11C323.511,2786.36 329.774,2751.33 354.463,2706.44L354.87,2702.77C351.83,2701.25 351.986,2701.49 348.776,2702.25ZM610.305,924.508C621.325,924.386 632.177,923.057 643.16,921.889C636.761,918.208 629.656,915.903 622.966,913.391C590.926,896.03 545.017,878.095 511.374,863.277L314.34,776.913C326.246,789.501 339.166,807.642 350.395,822.439C370.434,849.094 390.635,875.472 410.997,901.57C434.518,930.932 458.181,960.039 481.984,988.888C492.839,1002.06 510.328,1021.91 519.727,1035.48C521.419,1011.14 523.287,986.829 525.331,962.551C663.974,1083.57 803.123,1203.27 942.772,1321.65C986.819,1358.82 1030.72,1396.38 1074.46,1434.34C1090.8,1448.45 1126.95,1481.76 1142.96,1492.83C1145.69,1478.98 1148.55,1464.93 1151.14,1451.04L849.996,1191.79C748.512,1104.91 645.015,1019.04 544.348,930.599C554.327,929.962 603.844,927.876 610.305,924.508ZM1049.67,1899.57C979.252,1993.25 887.78,2069.57 796.197,2104.19C788.542,2107.08 751.876,2116.4 748.882,2119.17C752.137,2122.56 750.74,2121.44 755.087,2122.16C855.79,2145.51 1029.99,2074.58 1051.46,1902.66C1050.33,1899.73 1051.07,1900.52 1049.67,1899.57ZM318.084,2953.41C297.465,3012.28 320.906,3083.82 359.021,3109.31C427.986,3155.44 537.278,3162.55 609.043,3133.05C613.688,3128.6 614.406,3128.43 616.942,3121.46L616.655,3117.57C611.527,3112.69 589.229,3119.68 581.872,3120.93C531.188,3129.48 474.5,3132.53 424.606,3116.78C371.424,3099.98 320.199,3045.97 319.866,2957.01L318.084,2953.41ZM1399.11,1910.07C1406.36,1911.56 1410.55,1914.61 1415.43,1905.39L1414.71,1901.03C1410.83,1894.74 1406.3,1894.75 1400.4,1893.11C1393.19,1892.28 1381.02,1888.7 1379.93,1903.68C1385.69,1913.24 1390.82,1910.46 1399.11,1910.07ZM1713.69,2050.81C1673.59,2056.9 1628.65,2096.9 1603.38,2143.49C1591.18,2165.97 1578.51,2197.43 1580.54,2227.63C1581.88,2247.47 1586.82,2254.81 1595.42,2267.8L1609.56,2233.73C1615.54,2268.23 1619.02,2288.12 1641.34,2307.72C1646.92,2312.59 1652.62,2317.16 1658.42,2321.4C1655.2,2294.87 1654.27,2279.85 1659.57,2253.48C1680.8,2173.68 1738.04,2115.59 1793.8,2103.95C1759.21,2068.77 1729.38,2084.77 1693.02,2104.57C1709.8,2079.84 1729.99,2070.76 1752.26,2061.59C1736.76,2052.1 1730.69,2047.92 1713.69,2050.81ZM1255.16,2175.61L1242.42,2215.69C1250.63,2216.67 1273.64,2221.49 1279.3,2215.15C1284.42,2202.13 1289.67,2188.21 1294.99,2175.47C1281.76,2175.79 1268.37,2176.38 1255.16,2175.61ZM1650.28,2776.54C1647.96,2787.49 1649.77,2798.17 1650.96,2809.73C1672.67,2803.56 1680.86,2802.94 1703.02,2803.96L1705.74,2802.3C1707.56,2795.32 1707,2788.44 1706.89,2780.91C1688.07,2777.19 1669.28,2774.71 1650.28,2776.54ZM497.126,2895.36L487.483,2918.67C511.573,2929.94 532.096,2933.49 557.503,2933.43C561.563,2931.79 559.75,2933.43 562.464,2926.92C560.119,2922.11 531.431,2913.25 525.627,2910.7C515.905,2906.57 506.383,2901.44 497.126,2895.36ZM2083.37,2006.06C2059.72,2016.9 2018.04,2041.74 1999.64,2067.17C2009.96,2082.62 2029.51,2100.37 2043.01,2118.24C2060.76,2100.78 2099.14,2073.46 2120.22,2074.43L2121.39,2076.77C2117.41,2085.51 2073.51,2125.18 2060.53,2142.39C2072.78,2162.69 2082.66,2168.72 2086.16,2192.04C2106.94,2187.54 2157.92,2147.61 2171.72,2149.95L2173.96,2152.52C2171.17,2161.87 2148.02,2182.98 2141.17,2188.97C2127.55,2202.51 2089.09,2237.66 2090.67,2251.98C2097.47,2313.61 2211.14,2218.79 2220.03,2211.85C2218.07,2221.82 2214.97,2231.5 2217.04,2240.63C2220.48,2245.9 2220.92,2246.2 2224.85,2250.12C2241.82,2203.5 2262.87,2166.83 2215.89,2137.77C2190.89,2084.31 2164.07,2057.45 2126.5,2027.48C2111.73,2015.7 2101.35,2003.31 2083.37,2006.06ZM1469.16,1915.6C1481.91,1913.08 1497.89,1913.56 1510.89,1913.82C1523.28,1916.7 1531.27,1919.47 1542.77,1926.37C1540.58,1890.3 1533.4,1894.68 1510.51,1890.65C1492.78,1887.73 1484.37,1887.43 1466.68,1890.23C1459.47,1890.96 1449.64,1894.32 1442.63,1897.59L1443.09,1925.83C1451.97,1922.08 1460.18,1918.71 1469.16,1915.6ZM1280.94,1890.16C1297.03,1889.65 1306.56,1889.43 1322.01,1896.93C1331.59,1900.88 1337.31,1905.68 1346.24,1912.15L1348.1,1909.21C1349.12,1902.19 1350.12,1897.63 1349.66,1890.42C1345.34,1879.12 1335.15,1876.7 1326.67,1872.87C1314.13,1867.32 1300.52,1866.69 1287.53,1865.79C1273.49,1867.27 1263.74,1869.66 1250.23,1875.52C1243.23,1887.79 1241.17,1895.27 1235.51,1907.76C1253.94,1896.88 1261.25,1894.56 1280.94,1890.16ZM1233.43,1413.81C1153.51,1472.08 1160.72,1579.69 1191.46,1688.1C1235.59,1665.74 1257.97,1654.04 1304.71,1658.67C1332.55,1663.1 1344.07,1674.91 1367.62,1697.87L1366.34,1695.34C1327.38,1619.16 1226.16,1531.63 1235.5,1416.23L1233.43,1413.81ZM1729.93,1884.35C1731.8,1904.82 1735.43,1920.79 1740.05,1940.23C1792.1,1991.96 1857.8,2039.98 1912.43,2090.8C1920.11,2083.17 1924.17,2079.35 1932.42,2073.21L1944.33,2063.5L1804.03,1944.73C1784.59,1928.27 1748.83,1896.17 1729.93,1884.35ZM1257.51,1702.7C1251.63,1704.2 1245.84,1705.61 1240,1707.43C1242.96,1722.59 1253.16,1789 1255.59,1794.73C1258.48,1794.1 1257.37,1795.02 1259.13,1792.63C1264.88,1789.39 1271.68,1785.23 1277.44,1782.48C1275.13,1770.15 1264.42,1707.15 1260.17,1702.56L1257.51,1702.7ZM1632.85,784.726C1573.5,797.21 1521.04,839.797 1462.03,847.4C1372.69,858.911 1319.46,866.62 1297.16,1013.24C1361.69,996.261 1484.18,993.737 1550.52,999.142C1637.02,1003.35 1770.74,1017.9 1854.05,1059.96C1846.45,1013.7 1844.01,958.214 1815.28,934.024C1799.53,920.76 1773.39,903.72 1760.53,888.269C1717.41,836.494 1697.63,769.053 1632.85,784.726ZM1551.01,838.206C1552.59,838.811 1553.65,840.191 1555.14,841.606C1555.89,844.81 1556.3,847.311 1555.58,850.792C1535.13,950.389 1458.24,956.697 1400.51,938.596L1384.3,932.928C1420.49,930.077 1449.56,920.519 1479.38,888.648C1505.66,860.57 1520.58,851.818 1551.01,838.206ZM1455.59,1565.04C1477.05,1601.06 1498.93,1614.45 1525.43,1638.56C1523.61,1621.92 1515.51,1575.25 1515.61,1562.82C1542.69,1601.23 1567.69,1625.26 1598.19,1657.25C1617.23,1683.19 1662.23,1715.57 1687.25,1722.83C1691.73,1725.1 1708.99,1729.87 1714.52,1731.59L1705.03,1682.03C1713.25,1685.15 1728.67,1698.5 1737.78,1704.11C1772.38,1725.44 1804.24,1740.43 1841.85,1745.32C1841.6,1743.24 1840.06,1729.69 1839.77,1728.43C1835.57,1699.69 1831.74,1674.16 1830.3,1644.62C1855.09,1663.71 1867.99,1663.55 1895.67,1663.99C1883.45,1642.37 1876.51,1628.25 1866.32,1604.96C1862.21,1592.17 1858.24,1578.94 1854.25,1566.04C1823.6,1419.76 1599.45,1589.55 1544.11,1477.83C1542.38,1474.33 1541.11,1467.67 1541.92,1463.27C1547.48,1460.03 1558.93,1463.1 1566.76,1459.34C1609.34,1439.36 1649.41,1408.16 1690.59,1382.7C1723.61,1362.27 1739.3,1331.27 1774.21,1362.21C1762.6,1361.05 1729.16,1359.78 1732.99,1388.74C1741.88,1403.79 1764.01,1399.74 1776.24,1402.7C1788.66,1405.7 1801.23,1411.28 1813.58,1414.51C1828.22,1418.33 1865.61,1423.53 1872.79,1399.36C1870.49,1374.37 1829.62,1354.87 1815.47,1341.45C1790.98,1318.21 1776.02,1283.32 1811.49,1261.05C1809.05,1253.09 1806.69,1243.26 1804.54,1234.97C1830.83,1256.27 1845.69,1251.06 1869.64,1227.91C1798.63,1207.82 1729.19,1182.21 1658.04,1162.19C1588.47,1142.6 1532.82,1137.14 1462.53,1133.24C1453.48,1178.58 1444.78,1223.83 1439.48,1270.56C1428.17,1370.42 1400.82,1483.29 1455.59,1565.04ZM1612.87,1184.78C1655.41,1174.26 1699.97,1244.46 1743.31,1241.72C1755.2,1240.97 1755.62,1226.09 1761.86,1220.93C1779.03,1249.8 1752.11,1273.72 1735.59,1278.92C1724.43,1282.43 1719.56,1276.22 1708.94,1274.33C1702.63,1295.3 1693.43,1320.55 1677.27,1324.25C1652.19,1330.01 1630.93,1323.4 1625.76,1284.07C1626.8,1281.81 1626.09,1282.81 1628.1,1281.41C1638.6,1304.42 1644.54,1311.74 1664.9,1311.43C1670.13,1311.35 1673.41,1309.38 1677.04,1303.4C1674.88,1294.51 1660.37,1283 1654.36,1277.41L1675.49,1256.85C1642.81,1249.93 1634.84,1254.68 1604.38,1271.58C1616.98,1250.15 1621.82,1245.92 1639.79,1236.54C1603.96,1222.22 1590.12,1219.5 1554.12,1219.79C1573.04,1196.49 1589.09,1188.51 1612.87,1184.78ZM1692.58,1554.88L1693.48,1552.27L1695.18,1552.2C1745.38,1549.5 1785.6,1519.03 1832.23,1569.37C1826.33,1571.97 1794.97,1568.03 1785.8,1567.72C1755.27,1560.93 1723.6,1573.73 1692.58,1554.88ZM1476.2,1382.83C1469.83,1365.66 1466.5,1343.36 1463.16,1324.22C1485.78,1368.22 1512.68,1399.13 1548.45,1415.12C1533.58,1416.88 1527.04,1414.4 1512.41,1409.19C1498.05,1401.54 1489.09,1394.62 1476.2,1382.83ZM911.19,2015.13C928.178,2000.87 941.618,1989.11 957.873,1973.12C979.308,1959.82 1034.07,1893.81 1052.68,1870.18C1016.31,1850.61 952.905,1837.27 915.211,1830.17L909.346,1829.55C889.906,1829.43 867.898,1826.57 847.474,1826.06C837.491,1825.73 800.496,1830.96 794.746,1827.62L794.131,1822.09C787.727,1819.19 782.668,1817.41 776.024,1815.84C782.953,1806.18 849.321,1807.4 863.207,1807.44C878.721,1807.82 894.222,1808.99 909.683,1810.96C941.627,1815.68 1007.15,1827.03 1037.22,1842.32C982.238,1767.34 874.263,1747.66 802.01,1752.06C736.119,1756.07 652.553,1789.38 606.911,1865.19C599.157,1878.07 591.515,1893.95 584.643,1908.17C589.035,1904.51 598.984,1895.12 603.144,1894.38C605.12,1898 604.535,1895.99 605.025,1900.33C610.961,1905.41 611.507,1899.92 616.298,1904.06C607.175,1914.62 587.766,1918.44 581.547,1932.42L581.375,1935.75C584.94,1939.69 605.712,1942.35 611.505,1943.85C644.993,1952.07 681.387,1972.65 715.453,1967.48C735.562,1964.43 788.794,1959.28 791.346,1999C795.795,2068.26 724.122,2089.31 696.949,2096.91C753.302,2113.83 821.205,2076.15 873.264,2043.55C882.176,2037.97 904.106,2023.31 911.19,2015.13ZM1960.48,2087.97C1946.5,2094.99 1934.03,2100.32 1922.1,2113.67C1885.18,2154.98 1902.17,2214.23 1925.05,2257.7C1893.5,2241.61 1872.29,2213.06 1868.84,2160.16C1809.53,2156.99 1775.93,2121.28 1724.31,2193.85C1711.66,2211.64 1685.77,2287.31 1704.53,2302.26C1740.44,2330.9 1807.94,2320.92 1848.42,2317.96C1866.75,2315.81 1918.36,2306.91 1928.02,2301.58C1933.38,2290.77 1921.54,2285.79 1939.01,2290.79C1985.71,2330.56 2023.38,2355.27 2078.29,2332.09C2086.84,2328.58 2095.22,2324.16 2103.37,2318.88C2090.34,2313.36 2086.5,2312.78 2076.37,2298.84C2051.52,2293.27 2036.44,2291.27 2019.09,2260.61C2008.73,2266.47 1981.08,2280.67 1971.36,2271.2C1973.58,2263.36 1992.22,2250.05 1999.82,2242.11C1994.18,2238.89 1986.23,2234.5 1981.47,2229.37C1970.9,2217.97 1943.04,2185.87 1948.92,2164.42C1969.95,2157.19 2010.82,2259.2 2056.75,2196.3C2057.44,2190.92 2057.46,2188.55 2055.52,2183.73C2048.68,2166.72 1980.32,2091.69 1967.23,2088.13C1964.88,2087.49 1962.82,2087.62 1960.48,2087.97ZM1307.27,1845.73C1314.98,1846.59 1318.03,1847.1 1325.63,1849.58C1331.41,1850.79 1329.91,1851.82 1333.95,1848.19C1338.23,1834.7 1334.71,1828.73 1327.57,1821.19C1316.1,1814.65 1304.02,1815.58 1292.11,1817.07L1286.8,1820.45C1279.57,1825.8 1274.81,1828.95 1270.94,1839.63L1271.63,1843.26C1279.02,1849.26 1297.86,1845.95 1307.27,1845.73ZM1838.75,1276.02C1832.07,1279.62 1821.13,1283.84 1818.76,1294.3C1812.59,1321.5 1835.93,1324.78 1846.53,1324.76L1850.03,1320.01C1848.89,1306.5 1833.23,1300.56 1825.48,1296.9C1829.99,1291.96 1837.52,1284.87 1840.19,1278.17L1838.75,1276.02ZM1522.5,1686.83C1507.38,1689.33 1486.38,1722.39 1472.17,1737.96C1493.09,1729.08 1506.35,1727.1 1528.12,1730.6C1544.76,1734.88 1550.54,1737.91 1565.74,1749.03C1560.12,1718.74 1547.3,1681.11 1522.5,1686.83ZM1379.3,2258.72C1334.84,2270.56 1334.71,2254.31 1315.53,2322.71C1317.07,2325.69 1316.18,2324.95 1317.8,2325.78C1354.24,2317.04 1362.7,2310.6 1381.36,2262.82L1380.84,2259.48L1379.3,2258.72ZM1225.33,2134.87C1249.38,2142.78 1261.67,2144.23 1286.17,2144.21C1310.64,2144.84 1357.69,2129.77 1340.64,2072.96C1334.47,2052.42 1311.72,2042.66 1297.62,2037.28C1283.34,2034.64 1273.19,2034 1258.86,2033.92C1238.05,2036.97 1203.22,2040.14 1190.84,2066.76C1173.29,2104.47 1207.28,2127.79 1225.33,2134.87ZM1257.81,2053.79C1273.29,2055.44 1280.47,2056.23 1295.05,2063.72C1311.71,2074.28 1346.75,2092.39 1317.44,2122.91C1288.81,2138.93 1248.52,2132.78 1220.21,2118.98C1214.66,2113.22 1200.93,2106.54 1199.59,2095.6C1195.84,2064.75 1247.01,2056.04 1257.81,2053.79ZM1252.63,2084.85C1245.84,2085.6 1241.4,2085.1 1235.58,2090.21L1233.94,2094.21C1239.66,2109.69 1267.02,2110.56 1278.03,2111.7C1284.16,2110.65 1287.8,2110.89 1292.98,2105.86L1294.61,2101.81C1290.29,2084.7 1263.44,2083.2 1252.63,2084.85ZM1472.14,2038.41C1486.79,2035.44 1498.84,2035.93 1513.47,2036.49C1530.59,2039.09 1540.71,2042.93 1556.22,2053.4C1553.15,2020.93 1550.24,1990.04 1544.71,1958.24C1532.64,1945.17 1526.81,1943.24 1512.69,1938.3C1499.08,1937.11 1483.79,1936.54 1470.25,1939.28C1460.02,1941.89 1451.56,1945.31 1442.18,1952.3C1434.17,1998.16 1434.69,2010.99 1431.03,2055.64C1444.09,2047.27 1458.23,2042.53 1472.14,2038.41ZM1957.99,2966.83C1879.61,2976.05 1818.45,3039.16 1743.37,3064.69C1704.64,3077.87 1660.74,3070.11 1622.65,3074.63C1603.21,3076.94 1513.05,3091.86 1499.7,3105.25C1495.72,3116.63 1499.73,3132.63 1502.27,3144.79C1503.12,3148.83 1503.98,3152.86 1504.88,3156.88C1521.04,3155.96 1537.19,3153.12 1553.29,3150.63C1576.72,3146.08 1600.08,3140.84 1623.37,3134.93C1621.47,3125.05 1618.05,3111.46 1618.84,3101.87C1621.53,3096.8 1623.59,3094.62 1628.2,3094.37C1669.24,3092.2 1710.7,3104.63 1751.63,3095.51C1792.01,3086.5 1830.35,3057.73 1868.15,3035.07C1891.9,3020.7 1916.37,3009.15 1941.32,3000.51C1954.17,2996.16 1966.69,2992.08 1979.72,2989.09C1987.93,2987.21 2003.95,2989.62 2009.71,2982.28C2006.74,2960.97 1969.5,2964.41 1957.99,2966.83ZM849.782,2249.43C825.197,2288.93 809.608,2324.37 810.564,2380.56C802.419,2396.53 784.321,2430.1 778.084,2445.36C756.888,2497.22 712.221,2627.99 712.733,2686.47L712.752,2689.99C712.768,2690.72 712.784,2691.45 712.799,2692.18C699.659,2695.94 682.556,2642.71 678.926,2626.15C664.654,2650.12 650.179,2677.28 651.649,2710.98C655.307,2794.82 729.33,2832.62 776.141,2823.83C875.734,2805.14 961.645,2695.88 1041.76,2613.16C1054.41,2599.95 1094.95,2546.41 1104.05,2541.05C1128.57,2526.62 1168.41,2518.47 1197.19,2505.91C1237.46,2488.33 1268.12,2465.67 1305.29,2446.08C1275.2,2487.58 1257.25,2510.95 1218.13,2532.84C1278.5,2547.42 1336.7,2562.16 1397.91,2565.26C1446.67,2567.04 1474.32,2556.52 1520.33,2539.12C1502.16,2563.93 1481.62,2579.84 1467.46,2598.97C1463.68,2620.02 1463.32,2637.39 1460.66,2658.27C1517.65,2630.16 1626.29,2612.03 1685.87,2623.69C1682.87,2566.78 1682.65,2504.06 1648.72,2466.22C1575.19,2384.23 1482.41,2357.81 1394.73,2331.6C1368.11,2344.46 1330.92,2356.8 1303.14,2363C1281.76,2393.31 1254.22,2392.41 1225.8,2391.26L1223.79,2391.18C1207,2434.96 1183.75,2482.06 1153.09,2505.7C1173.21,2467.54 1178.1,2435.2 1190.75,2392.03C1167.47,2391.74 1140.37,2391.52 1123.95,2363.85C1094.6,2354.55 1062.62,2347.11 1033.93,2336.64L1023.15,2347.23C1006.42,2345.83 956.895,2325.36 942.261,2313.83C941.196,2310.41 938.553,2301.95 936.6,2300.18C920.455,2285.56 894.473,2273.41 876.632,2263.68C867.718,2258.78 858.768,2254.03 849.782,2249.43ZM540.071,1674.28C435.144,1719.75 399.313,1865.85 427.457,2015.9C441.226,2089.31 480.218,2142.43 523.101,2179.2C532.566,2187.2 576.533,2217.71 585.37,2210.7C581.906,2201.15 561.438,2196.37 557.661,2170.56L558.722,2169.01C593.033,2197.15 626.838,2216.81 666.45,2218.93C674.663,2219.38 684.678,2222.03 692.516,2217.57L693.093,2214.76C683.938,2208.8 673.275,2207.44 663.676,2203.1C639.113,2191.99 617.887,2174.85 598.303,2150.31C653.38,2183.48 733.041,2217.29 790.166,2182.45C800.944,2173.88 803.246,2171.16 810.539,2155.57C770.673,2164.41 646.605,2145.16 623.558,2065.18C622.888,2062.86 624.263,2059.99 625.045,2057.45C632.665,2051.19 651.586,2060.22 662.001,2060.29C688.465,2060.46 747.802,2057.92 758.009,2010.63C759.193,2005.14 758.521,2003.38 757.004,1999.42C752.262,1995.8 705.275,2002.62 694.278,2001.21C638.473,1994.06 587.111,1960.58 530.057,1971.85C521.968,1973.44 512.379,1979.48 504.578,1978.77C502.801,1964.86 524.883,1951.87 532.267,1947.41C549.92,1857.78 601.724,1798.87 657.388,1763.35C627.664,1718.97 607.319,1695.48 564.654,1680.57C558.877,1678.56 545.62,1674.47 540.071,1674.28ZM1203.07,2242.87C1198.17,2243.19 1189.8,2242.35 1187.17,2247.55C1177.43,2266.75 1159.41,2326.47 1160.23,2348.56C1167.2,2365.81 1240.01,2360.19 1255.79,2359.65C1262.54,2357.33 1266.17,2356.03 1272.72,2352.24C1279.44,2336.36 1300.88,2274.41 1299.81,2260.86C1298.27,2241.42 1213.53,2241.8 1203.07,2242.87ZM1209.17,2266.22C1231.2,2267.23 1253.2,2269.41 1275.13,2272.75C1267,2291.11 1259.49,2315.77 1252.88,2335.87L1228.48,2335.72L1189.22,2335.6L1196.9,2309.35C1204.13,2309.96 1226.45,2313.1 1228.96,2300.74C1223.67,2291.53 1208.8,2292.23 1200.98,2291.49L1209.17,2266.22Z" style="fill:rgb(19,0,61);"  data-color="color-2"/>
        <path d="M610.305,924.508C603.844,927.876 554.327,929.962 544.348,930.599C645.015,1019.04 748.512,1104.91 849.996,1191.79L1151.14,1451.04C1148.55,1464.93 1145.69,1478.98 1142.96,1492.83C1126.95,1481.76 1090.8,1448.45 1074.46,1434.34C1030.72,1396.38 986.819,1358.82 942.772,1321.65C803.123,1203.27 663.974,1083.57 525.331,962.551C523.287,986.829 521.419,1011.14 519.727,1035.48C510.328,1021.91 492.839,1002.06 481.984,988.888C458.181,960.039 434.518,930.932 410.997,901.57C390.635,875.472 370.434,849.094 350.395,822.439C339.166,807.642 326.246,789.501 314.34,776.913L511.374,863.277C545.017,878.095 590.926,896.03 622.966,913.391C629.656,915.903 636.761,918.208 643.16,921.889C632.177,923.057 621.325,924.386 610.305,924.508ZM1203.07,2242.87C1213.53,2241.8 1298.27,2241.42 1299.81,2260.86C1300.88,2274.41 1279.44,2336.36 1272.72,2352.24C1266.17,2356.03 1262.54,2357.33 1255.79,2359.65C1240.01,2360.19 1167.2,2365.81 1160.23,2348.56C1159.41,2326.47 1177.43,2266.75 1187.17,2247.55C1189.8,2242.35 1198.17,2243.19 1203.07,2242.87ZM1209.17,2266.22L1200.98,2291.49C1208.8,2292.23 1223.67,2291.53 1228.96,2300.74C1226.45,2313.1 1204.13,2309.96 1196.9,2309.35L1189.22,2335.6L1228.48,2335.72L1252.88,2335.87C1259.49,2315.77 1267,2291.11 1275.13,2272.75C1253.2,2269.41 1231.2,2267.23 1209.17,2266.22ZM2187.51,2275.76L2421.12,2479.29C2456.8,2510.35 2492.62,2541.65 2528.07,2573.29C2531.55,2577.05 2545.39,2588.63 2545.83,2594.92C2547.18,2614.36 2526.21,2618.39 2517.37,2618.68C2498.27,2609.2 2434.76,2550.54 2413.14,2531.49L2156.58,2300.92L2187.51,2275.76ZM1729.93,1884.35C1748.83,1896.17 1784.59,1928.27 1804.03,1944.73L1944.33,2063.5L1932.42,2073.21C1924.17,2079.35 1920.11,2083.17 1912.43,2090.8C1857.8,2039.98 1792.1,1991.96 1740.05,1940.23C1735.43,1920.79 1731.8,1904.82 1729.93,1884.35ZM1008.36,2197.34C1015.34,2196.76 1045.83,2209.73 1054.24,2213.08C1042.7,2227.14 1025.74,2274.34 1017.21,2295.98C1014.71,2299.83 979.588,2284.62 973.89,2282.47C981.281,2262.69 998.974,2213.14 1008.36,2197.34Z" style="fill:rgb(200,122,0);"/>
        <path d="M1957.99,2966.83C1969.5,2964.41 2006.74,2960.97 2009.71,2982.28C2003.95,2989.62 1987.93,2987.21 1979.72,2989.09C1966.69,2992.08 1954.17,2996.16 1941.32,3000.51C1916.37,3009.15 1891.9,3020.7 1868.15,3035.07C1830.35,3057.73 1792.01,3086.5 1751.63,3095.51C1710.7,3104.63 1669.24,3092.2 1628.2,3094.37C1623.59,3094.62 1621.53,3096.8 1618.84,3101.87C1618.05,3111.46 1621.47,3125.05 1623.37,3134.93C1600.08,3140.84 1576.72,3146.08 1553.29,3150.63C1537.19,3153.12 1521.04,3155.96 1504.88,3156.88C1503.98,3152.86 1503.12,3148.83 1502.27,3144.79C1499.73,3132.63 1495.72,3116.63 1499.7,3105.25C1513.05,3091.86 1603.21,3076.94 1622.65,3074.63C1660.74,3070.11 1704.64,3077.87 1743.37,3064.69C1818.45,3039.16 1879.61,2976.05 1957.99,2966.83ZM924.828,1916.5C913.554,1887.22 909.798,1863.06 909.346,1829.55L915.211,1830.17C952.905,1837.27 1016.31,1850.61 1052.68,1870.18C1034.07,1893.81 979.308,1959.82 957.873,1973.12C945.067,1959.73 930.495,1938.65 924.828,1916.5ZM911.19,2015.13C904.106,2023.31 882.176,2037.97 873.264,2043.55C821.205,2076.15 753.302,2113.83 696.949,2096.91C724.122,2089.31 795.795,2068.26 791.346,1999C788.794,1959.28 735.562,1964.43 715.453,1967.48C681.387,1972.65 644.993,1952.07 611.505,1943.85C605.712,1942.35 584.94,1939.69 581.375,1935.75L581.547,1932.42C587.766,1918.44 607.175,1914.62 616.298,1904.06C616.967,1906.14 618.356,1909.52 619.165,1911.62C626.241,1915.61 633.009,1913.55 637.017,1903.86C636.774,1897.83 636.283,1894.28 637.677,1888.6C642.061,1886.03 642.871,1885.15 647.69,1885.44C650.028,1890.45 648.878,1896.8 648.645,1904.17C654.818,1901.81 668.022,1899.14 668.643,1887.45C669.278,1875.51 674.903,1871.92 681.34,1868.2C684.781,1875.11 680.724,1877.13 684.242,1884.67C687.767,1886.08 692.459,1885.33 695.897,1883.56C707.032,1877.82 699.471,1871.53 704.014,1859.93C708.311,1856.82 709.196,1855.63 714.019,1856.13C719.247,1864.33 714.79,1863.72 718.559,1873.9C726.197,1872.21 735.347,1870.09 737.562,1856.88C738.444,1851.62 740.017,1847.2 744.299,1846.12C749.603,1844.78 752.305,1842.87 757.523,1847.54C759.325,1852.46 759.88,1854.04 762.154,1858.43C766.231,1860.54 768.846,1858.81 773.105,1857.3C777.448,1848.7 772.073,1848.42 776.143,1838.24C786.52,1833.7 791.628,1838.49 794.131,1822.09L794.746,1827.62C800.496,1830.96 837.491,1825.73 847.474,1826.06C847.014,1901.61 867.736,1973.57 911.19,2015.13ZM605.025,1900.33C604.535,1895.99 605.12,1898 603.144,1894.38C598.984,1895.12 589.035,1904.51 584.643,1908.17C591.515,1893.95 599.157,1878.07 606.911,1865.19C652.553,1789.38 736.119,1756.07 802.01,1752.06C874.263,1747.66 982.238,1767.34 1037.22,1842.32C1007.15,1827.03 941.627,1815.68 909.683,1810.96C913.091,1807.69 916.562,1791.13 918.246,1784.62C901.778,1779.31 874.072,1768.83 858.398,1772.94C852.115,1780.96 849.683,1790.32 852.178,1802.18C855.936,1808.3 855.811,1806.3 863.207,1807.44C849.321,1807.4 782.953,1806.18 776.024,1815.84C774.067,1805.91 774.388,1790.54 774.224,1779.74L757.443,1786.34L757.473,1821.26L737.504,1825.52C737.543,1818.57 738.295,1810.98 735.613,1805.84C729.899,1803.58 724.162,1807.5 717.631,1809.73C717.724,1816.38 718.568,1825.81 716.173,1830.64C711.272,1834.32 710.203,1834.43 704.727,1836.14L703.03,1834.44C702.772,1829.41 702.582,1824.36 702.459,1819.32C698.671,1817.39 686.43,1823.19 681.833,1825.01C681.818,1831.15 682.461,1841.96 680.376,1846.54C676.739,1850.3 675.875,1851.89 671.447,1851.96C667.762,1848.48 667.069,1846.1 664.652,1840.76C655.039,1835.25 649.793,1848.04 648.342,1860.68C638.911,1875.82 604.087,1864.14 605.025,1900.33ZM1049.67,1899.57C1051.07,1900.52 1050.33,1899.73 1051.46,1902.66C1029.99,2074.58 855.79,2145.51 755.087,2122.16C750.74,2121.44 752.137,2122.56 748.882,2119.17C751.876,2116.4 788.542,2107.08 796.197,2104.19C887.78,2069.57 979.252,1993.25 1049.67,1899.57ZM318.084,2953.41L319.866,2957.01C320.199,3045.97 371.424,3099.98 424.606,3116.78C474.5,3132.53 531.188,3129.48 581.872,3120.93C589.229,3119.68 611.527,3112.69 616.655,3117.57L616.942,3121.46C614.406,3128.43 613.688,3128.6 609.043,3133.05C537.278,3162.55 427.986,3155.44 359.021,3109.31C320.906,3083.82 297.465,3012.28 318.084,2953.41ZM348.776,2702.25C351.986,2701.49 351.83,2701.25 354.87,2702.77L354.463,2706.44C329.774,2751.33 323.511,2786.36 324.831,2842.11C322.473,2844.25 318.97,2842.55 315.453,2841.96C288.781,2829.62 311.839,2749.36 322.495,2726.32C330.176,2709.71 336.059,2705.41 348.776,2702.25Z" style="fill:rgb(114,62,11);"/>
        <path d="M172.158,647.23C188.121,651.031 212.773,661.632 228.767,667.949L321.065,704.678C438.081,752.905 554.735,803.089 671.005,855.22C705.019,871.207 739.113,886.812 773.283,902.034C791.932,910.354 812.338,920.439 831.263,926.016C800.451,942.684 742.891,963.381 710.054,976.761C764.603,1021.77 818.795,1067.75 872.619,1114.69C907.638,1145.11 959.738,1194.59 996.54,1214.08C981.018,1195.07 937.534,1149.64 959.765,1115.24C965.375,1106.56 1001.58,1103.92 1010.99,1103.4C1066.05,1100.32 1117.56,1071.48 1168.33,1041.84C1181.49,1034.15 1198.74,1025.82 1210.8,1015.61C1221.83,926.236 1262.89,833.382 1321.43,803.492C1363.31,774.186 1418.57,783.411 1460.22,767.753C1550.17,733.931 1636.93,668.656 1729.9,733.187C1762.38,755.729 1782.07,790.393 1810.76,819.307C1853.07,861.946 1903.51,886.547 1919.1,970.146C1922.81,988.514 1935.62,1062.76 1943.47,1072.59C1980.91,1119.46 2035.92,1143.18 2082.35,1163.13C2096.27,1169.11 2114.98,1170.02 2127.79,1178.42C2132.46,1187.85 2128.83,1196.59 2124.78,1205.39C2083.8,1294.64 1991.26,1312.92 1924.76,1316.24C1924.38,1322.69 1919.84,1342.38 1920.85,1344.16C1941.84,1381.05 1958.61,1400.88 1928.27,1447.8C1933.77,1462.51 1939.4,1477.09 1945.18,1491.55C1958.8,1496.66 1971.91,1498.94 1985.78,1501.76C1972.57,1547.14 1953.61,1563.63 1923.06,1577.81L1923.72,1580.74C1935.86,1633.39 1955.93,1657.11 1988.25,1681.07C1964.69,1709.43 1936.92,1719.81 1907.45,1722.5C1906.77,1739.49 1905.78,1798.23 1898.14,1805.65C1877.68,1825.53 1813.02,1809.49 1790.44,1804.64C1786.93,1814.82 1784.91,1818.63 1780.38,1827.5C1822.54,1866.4 1868.96,1902.11 1912.16,1938.81C1932.83,1956.36 1953.79,1978.45 1974.65,1994.64C2061.81,1920.11 2103.62,1905.73 2191.33,1988.89C2208.3,2004.76 2230.89,2022.27 2244.76,2043.95C2294.16,2121.18 2342.49,2153.3 2296.27,2270.8C2320.07,2293.93 2349.09,2318.19 2373.89,2340.17L2513.4,2463.79C2540.83,2487.99 2570.55,2511.83 2596.8,2538.58C2638.04,2580.61 2614.71,2653.03 2574.85,2676.84C2546.25,2693.88 2514.68,2696.19 2485.11,2683.41C2459.02,2672.35 2428.45,2640.34 2404.1,2619.2C2345.89,2569.07 2287.93,2518.27 2230.24,2466.82C2204.29,2443.88 2163.48,2403.41 2136.76,2387.01C2062.66,2424 2009.59,2433.19 1939.07,2381.04C1921.01,2383.96 1901.96,2389.15 1884.07,2392.77C1833.44,2403.02 1784.98,2400.09 1734.42,2392.89C1727.57,2391.91 1708.66,2399.93 1698.77,2400.84L1696.8,2401.01C1704.85,2410.87 1712.9,2420.72 1720.72,2430.99C1759.38,2481.77 1767.91,2553.15 1770.8,2626.44C1773.98,2633.38 1783.62,2647.19 1784.94,2654.24C1789.76,2679.85 1785.97,2721.59 1784.71,2748.8C1784,2764.14 1774.98,2791.96 1777.25,2806.57C1778.27,2813.11 1788.36,2819.24 1792.24,2821.96C1813.03,2812.55 1829.45,2806.13 1850.59,2799.85C1910.72,2786.32 1975.33,2788.99 2024.9,2849.11C2041.45,2869.19 2044.53,2887.97 2056.17,2912.96C2062.13,2925.77 2074.69,2937.07 2079.61,2951.78C2100.95,3014.21 2063.5,3053.15 2031.79,3079.04C1947.21,3148.08 1847.81,3170.13 1752.89,3177.84C1749.88,3182.23 1746.83,3186.33 1743.33,3189.85C1717.76,3215.63 1592.87,3236.33 1557.57,3237.92C1532,3239.08 1505.2,3238.61 1480.14,3230.52C1463.14,3225.04 1445.24,3215.15 1435.78,3191.79C1425.35,3166.06 1427.93,3133.56 1424.59,3104.99C1423.11,3092.36 1417.13,3081.02 1414.85,3068.59C1406.26,3021.63 1413.07,2978.01 1420.16,2931.93C1416.18,2912.04 1410.88,2889.74 1406.41,2869.96C1380.82,2837.81 1368.61,2758.28 1363.27,2709.37C1362.63,2703.45 1374.05,2668.97 1373.92,2655.43C1368.3,2651.82 1275.25,2641.11 1260.24,2638.67C1224.38,2633.03 1188.63,2625.84 1153.04,2617.12C1054.23,2714.82 965.281,2834.41 851.919,2896.66C815.272,2916.78 808.926,2911.55 774.737,2919.53C744.868,2926.5 711.044,2956.47 676.344,2949.84C668.101,2948.27 640.097,2944.46 637.706,2957.37C640.875,2966.32 652.568,2972.62 658.285,2977.63C691.143,3006.41 691.911,3052.13 687.948,3102.26C686.403,3121.81 692.744,3137.65 682.656,3158.62C667.44,3189.87 636.658,3203.36 611.299,3209.68C507.683,3235.52 379.88,3232.19 288.926,3145.9C262.954,3121.26 242.555,3077.75 237.735,3033.63C232.425,2985.02 236.866,2939.51 255.9,2899.1C239.363,2878.83 224.766,2842.23 225.695,2809.73C226.787,2767.64 239.095,2701.29 259.747,2671.72C298.908,2615.65 361.072,2610.82 412.195,2610.49C429.038,2610.38 452.283,2600.98 469.424,2597.61C479.088,2595.71 493.732,2575.7 504.163,2572.32C556.855,2545.75 604.194,2533.27 660.015,2533.18C677.803,2473.85 696.513,2423.51 722.929,2372.11C726.215,2365.71 729.474,2331.55 731.432,2320.67C734.388,2304.24 737.544,2294.68 742.775,2278.93C719.55,2288.7 629.847,2295.46 603.457,2293C584.195,2291.13 565.089,2286.57 546.388,2279.4C481.714,2254.42 401.555,2185.91 367.628,2096.88C338.521,2020.51 324.503,1914.93 340.396,1828.75C357.083,1738.27 398.212,1685.95 450.929,1641.34C468.842,1577.31 518.575,1540.19 558.779,1514.23C594.215,1491.35 622.819,1500.33 656.635,1491.14C679.905,1484.81 715.733,1463.56 740.102,1453.56C803.047,1428.18 867.769,1414.02 932.926,1411.4C818.55,1314.29 704.74,1215.68 591.51,1115.6C592.177,1152.85 591.733,1192.78 591.766,1230.24C559.513,1191.13 525.526,1153.19 492.907,1114.38C451.628,1064.98 410.958,1014.45 370.916,962.809C294.867,865.522 227.643,772.697 172.158,647.23ZM246.569,715.244C298.761,813.931 381.644,917.207 446.113,1000.17C479.377,1042.97 521.184,1094.63 556.79,1131.67L549.564,1029.69C607.434,1086.29 685.603,1149.93 746.351,1202.82L1044.24,1463.78C948.903,1430.03 834.81,1453.05 741.387,1491.53C728.082,1496.8 714.961,1503.07 702.071,1510.3C670.841,1527.52 664.813,1532.04 631.283,1530.36C602.127,1528.9 565.349,1547.58 541.358,1571.64C512.726,1600.23 493.791,1611.07 482.484,1662.46C434.294,1701.04 394.746,1743.51 377.794,1826.27C362.662,1900.15 372.368,2002.04 395.887,2070.17C425.731,2156.62 491.266,2214.15 551.909,2241.83C567.427,2248.87 583.403,2253.41 599.564,2255.36C632.029,2259.14 690.673,2252.13 724.135,2246.77C730.712,2245.72 748.3,2233.76 755.856,2231.74C774.777,2226.7 785.94,2225.82 803.985,2215.27C795.639,2244.54 780.698,2278.26 771.341,2308.54C764.337,2331.2 764.426,2364.86 758.307,2380.42C749.439,2402.97 736.31,2426.04 726.316,2450.6C710.792,2488.75 699.508,2535.71 684.803,2572.72L683.013,2572.87C665.578,2574.18 647.065,2569.93 629.092,2570.2C599.032,2570.64 574.488,2584.23 546.466,2595.01C517.533,2606.14 510.13,2608.41 484.643,2633.82C459.867,2634.82 442.278,2641.45 418.205,2647.22C406.196,2648.91 393.435,2646.09 381.476,2647.02C351.619,2649.36 311.812,2659.35 289.641,2692.28C274.692,2714.49 262.778,2774.27 262.433,2806.53C261.971,2849.66 277.569,2863.27 302.218,2874.68C297.045,2892.34 289.074,2907.08 284.404,2923.27C226.203,3125.01 380.638,3182.37 481.718,3186.39C534.792,3188.5 580.22,3186.9 630.975,3163.96C653.561,3153.44 653.568,3134 653.683,3103.58C658.739,3020.06 644.326,3002.48 593.638,2974.99C600.832,2942.45 604.192,2930.32 620.252,2905.69C675.201,2920.75 708.894,2913.31 760.586,2886.45C773.012,2879.99 797.886,2884.76 811.622,2876.5C915.69,2827.72 1003.57,2723.62 1091.58,2630.89C1107.45,2614.17 1123.6,2595.69 1140.04,2580.57C1170.72,2584.48 1203.17,2591.77 1233.9,2597.39C1270.27,2603.99 1306.72,2609.45 1343.24,2613.76C1358.23,2615.6 1404.33,2616.15 1413.93,2623.29C1416.34,2634.87 1411.84,2665.09 1411.68,2680.36C1406.66,2688.87 1398.5,2700.14 1400.22,2715C1403.87,2746.6 1415.82,2809.89 1427.71,2836.45C1428.31,2837.78 1438.24,2847.86 1439.18,2848.78C1442.4,2865.89 1456.86,2918.92 1456.07,2928.69C1450.87,2992.62 1435.12,3030.32 1459.81,3093.07C1464.71,3105.52 1457.7,3179.34 1476.29,3189.1C1535.19,3216.88 1605.75,3194.01 1665.75,3182.36C1676.16,3180.33 1708.88,3173.78 1715.1,3163.79C1718.19,3149.79 1713.99,3142.66 1718.2,3138.68C1729.87,3138.55 1746.27,3141.93 1758.74,3142.56C1805.44,3144.92 2140.23,3068.65 2022.78,2930.01C1992.34,2806.06 1878.89,2816.49 1811.55,2854.26C1804.61,2858.17 1797.75,2862.39 1790.98,2866.91C1776.2,2859.01 1759.88,2850.86 1745.53,2841.77C1740.54,2817.08 1739.53,2805.09 1740.83,2778.87L1749.36,2761.46C1749.87,2739.67 1750.21,2714.78 1751.29,2693.21C1753.15,2655.69 1748.06,2660.51 1732.62,2638.54C1735.97,2491.3 1702.4,2444.51 1617.94,2383.99C1552.96,2337.43 1501.62,2313.29 1430.53,2296.27C1424.79,2294.3 1419.38,2293.49 1414.96,2288.1C1413.66,2282.26 1414.38,2277.12 1416.53,2271.95C1429.82,2239.97 1440.53,2222.67 1462.5,2205.79C1491.95,2210.25 1497.33,2209.84 1526.53,2207.65C1540.97,2263.75 1544.98,2291.56 1584.85,2316.47C1614.11,2334.75 1634.64,2355.26 1666.15,2364.32C1695.46,2372.76 1706.9,2359.15 1729.81,2355.56C1734.97,2354.76 1780.65,2363.09 1792,2363.51C1845.17,2365.45 1894.66,2357.28 1946.93,2342.63C2012.29,2403.53 2070.29,2381.16 2138.14,2345.51C2170.07,2362.87 2214.34,2405.72 2244.89,2432.72L2417.42,2585.21C2458.72,2621.4 2505.72,2677.64 2555.96,2645.21C2570.67,2635.71 2590.28,2607.97 2581.02,2582.48C2571.15,2555.32 2540.81,2535.5 2523.42,2520.36L2452.66,2457.54C2386.28,2399.21 2318.91,2338.25 2252.25,2281.14C2266.43,2251.8 2282.77,2216.66 2278.84,2178.12C2277.69,2166.74 2274.8,2155.92 2270.4,2146.49C2259.85,2123.85 2236.08,2101.12 2222.23,2072.84C2208.94,2045.69 2157.42,2009.28 2137.19,1990.93C2077.97,1937.2 2027.97,1998.7 1977.54,2047.28C1917.41,1993.87 1857.07,1940.96 1796.54,1888.56C1740.95,1840.76 1680.83,1793.06 1629.25,1735.95C1659.84,1754.37 1721.01,1796.33 1753.85,1779.68C1759.37,1776.88 1764.49,1762.37 1767.37,1754.63C1804.26,1772.96 1829.98,1778.94 1868.58,1778.4C1870.33,1748.17 1872.48,1718.4 1872.08,1688.05C1899.38,1690.22 1909.81,1689.34 1936.05,1678.87C1904.76,1636.67 1895.21,1607.96 1881.99,1548.34C1904.42,1545.09 1925.36,1544.82 1942.73,1520.9L1944.26,1518.82C1944.56,1518.39 1944.86,1517.97 1945.16,1517.54C1902.73,1499.69 1910.22,1488.3 1887.34,1442.92C1922.17,1398.69 1906.22,1383.92 1877.18,1349.43C1880.28,1323.31 1882.24,1317.38 1878.58,1292.19C1892.62,1278.75 1897.61,1279.3 1913.92,1279.22C1975.5,1278.92 2042.34,1267.38 2089.12,1201.58C2045.62,1188.44 1940.63,1142.01 1907.95,1088.79C1893.37,1043.23 1890.54,990.892 1873.95,945.99C1855.73,896.673 1819.57,879.804 1789.97,849.772C1755.01,814.304 1728.71,764.135 1685.97,748.841C1610.7,721.105 1543.35,779.688 1473.84,800.762C1410.23,820.052 1382.89,804.288 1319.66,848.426C1269.68,883.315 1242.16,1040.63 1234.77,1044.83C1169.58,1081.82 1095.42,1132.47 1024.92,1138.33C1012.16,1139.31 999.834,1137.89 994.344,1144.71C994.745,1152.5 997.79,1157.07 1002.13,1161.98C1047.85,1213.79 1092.1,1225.76 1146.66,1223.97C1113.07,1246.72 1095.59,1250.1 1058.92,1247.74C1085.23,1286.78 1125.55,1301.09 1161.57,1300.69L1164.15,1300.64C1146.26,1321.09 1135.93,1328.76 1113.25,1333.82C1147.98,1365.43 1162.03,1367.48 1201.32,1370.94C1190.76,1394.32 1181.95,1404.52 1165.96,1419.5C1034.32,1303.32 902.242,1188.27 769.731,1074.33C726.273,1036.83 675.526,996.01 633.504,957.873C666.338,944.682 702.049,936.466 735.453,924.255C631.724,873.053 532.284,836.598 428.332,792.103L305.571,739.293C292.271,733.632 259.303,718.402 246.569,715.244ZM1749.64,2005.22C1756.91,2006.66 1869,2105.76 1878.07,2116.64L1877.84,2120.17C1863.96,2130.18 1853.68,2124.85 1838.94,2120.03C1814.5,2044.82 1761.36,2042.04 1749.64,2005.22ZM1470.49,2243.99C1465.28,2252.73 1462,2258.21 1457.47,2268.02L1497.67,2279.44C1502.69,2281.01 1503.76,2282.78 1507.62,2280.36C1507.79,2273.98 1500.37,2256.38 1497.59,2248.06C1487.92,2247.05 1480.07,2246.06 1470.49,2243.99Z" style="fill:white;"/>
        <path d="M1632.85,784.726C1697.63,769.053 1717.41,836.494 1760.53,888.269C1773.39,903.72 1799.53,920.76 1815.28,934.024C1844.01,958.214 1846.45,1013.7 1854.05,1059.96C1770.74,1017.9 1637.02,1003.35 1550.52,999.142C1484.18,993.737 1361.69,996.261 1297.16,1013.24C1319.46,866.62 1372.69,858.911 1462.03,847.4C1521.04,839.797 1573.5,797.21 1632.85,784.726ZM1551.01,838.206C1520.58,851.818 1505.66,860.57 1479.38,888.648C1449.56,920.519 1420.49,930.077 1384.3,932.928L1400.51,938.596C1458.24,956.697 1535.13,950.389 1555.58,850.792C1556.3,847.311 1555.89,844.81 1555.14,841.606C1553.65,840.191 1552.59,838.811 1551.01,838.206ZM1424.71,1052.9C1562.5,1043.54 1711.28,1068.28 1846.21,1108.14C1897.34,1123.25 1940.87,1168.16 1989.27,1194.54C1999.15,1199.93 2009.86,1208.55 2019.26,1215.98C1942.53,1218.48 1822.3,1163.4 1741.23,1140.53C1584.07,1098.66 1423.76,1090.24 1265.04,1115.54C1217.32,1123.21 1171.2,1139.22 1124.6,1147.13C1137.66,1136.49 1159.17,1126.9 1173.45,1118.2C1256.94,1067.33 1335.12,1057.53 1424.71,1052.9ZM1302.98,1708.51C1328.24,1716.38 1373.17,1771.81 1388.04,1801.07C1389.92,1821.94 1389.88,1825.14 1385.65,1844.95C1406.48,1830.38 1422.22,1807.42 1443.52,1794.37C1451.42,1789.53 1459.25,1786.34 1467.45,1783C1464.65,1790.04 1462.16,1797.97 1459.7,1805.34C1456.75,1819.58 1434.67,1819.06 1425.57,1831.82C1412.69,1849.89 1417.73,1841.62 1413.93,1863.68C1398.55,1866.2 1396.49,1849.71 1369.98,1861.72C1371.23,1854.77 1372.96,1845.9 1372.96,1838.79C1373.04,1824.66 1369.32,1811.07 1362.66,1801.08C1350.04,1782.2 1331.31,1779.92 1314.62,1780.32C1309.92,1759.37 1305.81,1730.12 1302.98,1708.51ZM1522.5,1686.83C1547.3,1681.11 1560.12,1718.74 1565.74,1749.03C1550.54,1737.91 1544.76,1734.88 1528.12,1730.6C1506.35,1727.1 1493.09,1729.08 1472.17,1737.96C1486.38,1722.39 1507.38,1689.33 1522.5,1686.83ZM1257.51,1702.7L1260.17,1702.56C1264.42,1707.15 1275.13,1770.15 1277.44,1782.48C1271.68,1785.23 1264.88,1789.39 1259.13,1792.63C1257.37,1795.02 1258.48,1794.1 1255.59,1794.73C1253.16,1789 1242.96,1722.59 1240,1707.43C1245.84,1705.61 1251.63,1704.2 1257.51,1702.7ZM920.415,1490.91C981.233,1487.77 1062.1,1527.38 1078.66,1626.05C1093.12,1571.82 1076.69,1539.32 1049.87,1504.64C1077.8,1513.25 1107,1513.22 1138.07,1523.09C1136.23,1609.48 1144.54,1670.56 1175.99,1742.53C1187.17,1738.36 1199.58,1734.73 1210.92,1731.04C1213.74,1757.27 1219.31,1783.85 1224.36,1809.36C1186.03,1794.33 1130.08,1781.02 1089.83,1768.88L1087.5,1768.21C1082.22,1772.32 1076.36,1800.52 1073.84,1810.5C1058.89,1793.74 1034.64,1776.87 1017.45,1765.21C1030.76,1747.6 1042.69,1730.52 1054.33,1710.44C1001.37,1725.07 960.007,1724.46 906.549,1715.25C882.395,1711.08 852.268,1711.85 828.02,1712.28C804.606,1635.55 767.742,1586.9 715.853,1556.47C781.854,1512.78 848.901,1495.41 920.415,1490.91ZM1040.84,2043.56C1046.14,2044.82 1055.64,2052.87 1061.49,2056.59C1079.72,2068.15 1104.44,2094.88 1123.92,2097.53C1130.19,2098.38 1148.81,2092.52 1155.72,2090.5C1157.56,2145.71 1198.54,2161.89 1227.65,2173.13C1223.63,2186.77 1219.46,2200.33 1215.16,2213.79C1209.85,2212.29 1201.65,2209.28 1196.86,2212.23C1185.72,2219.1 1168.24,2222.91 1158.39,2231.36C1151.82,2229.97 1144.38,2227.56 1137.79,2225.68C1126.26,2223.29 1093.86,2213.07 1083.96,2206.61C1081.57,2196.05 1079.83,2192.96 1072.71,2189.18C1051.99,2178.13 1018.13,2158.86 996.789,2170.67C977.274,2159.07 958.54,2146.49 939.36,2133.71C980.357,2108.07 1008.34,2091.91 1040.84,2043.56ZM1613.99,1771.22C1619.67,1773.74 1656.75,1809.53 1661.62,1816.32C1696.58,1865.09 1705.99,1947.6 1710.93,2013.21C1661.57,2027.99 1639.09,2038.78 1597.72,2085.63C1591.94,2064.94 1575.92,2015.67 1585.79,1996.68C1591,1989.19 1595.99,1981.37 1600.74,1973.23C1624.26,1932.68 1628.67,1899.67 1626.52,1848.02C1617.79,1860.23 1576.87,1929.21 1570.26,1930.59C1569.2,1914.88 1568.35,1902.11 1568.21,1886.37C1561.69,1879.12 1556.78,1875.04 1549.74,1869.02C1557.03,1854.25 1568.58,1823.09 1576.34,1814.49C1588.12,1811.83 1590.16,1843.97 1591.63,1857.39C1605.3,1831.2 1615.76,1805.44 1613.99,1771.22ZM1233.43,1413.81L1235.5,1416.23C1226.16,1531.63 1327.38,1619.16 1366.34,1695.34L1367.62,1697.87C1344.07,1674.91 1332.55,1663.1 1304.71,1658.67C1257.97,1654.04 1235.59,1665.74 1191.46,1688.1C1160.72,1579.69 1153.51,1472.08 1233.43,1413.81ZM1713.69,2050.81C1730.69,2047.92 1736.76,2052.1 1752.26,2061.59C1729.99,2070.76 1709.8,2079.84 1693.02,2104.57C1729.38,2084.77 1759.21,2068.77 1793.8,2103.95C1738.04,2115.59 1680.8,2173.68 1659.57,2253.48C1654.27,2279.85 1655.2,2294.87 1658.42,2321.4C1652.62,2317.16 1646.92,2312.59 1641.34,2307.72C1619.02,2288.12 1615.54,2268.23 1609.56,2233.73L1595.42,2267.8C1586.82,2254.81 1581.88,2247.47 1580.54,2227.63C1578.51,2197.43 1591.18,2165.97 1603.38,2143.49C1628.65,2096.9 1673.59,2056.9 1713.69,2050.81ZM630.392,1570.87C648.009,1569.33 666.242,1571.57 683.136,1579.52C728.43,1601.58 766.008,1649.78 787.572,1713.46C756.947,1719.86 726.18,1727.31 696.34,1739.62C685.245,1722.36 677.583,1713.5 664.608,1699.58C626.043,1659.49 591.464,1632.64 543.521,1629.16C579.268,1591.24 610.271,1610.69 651.343,1616.25C625.894,1601.81 610.334,1594.83 583.489,1588.67C602.258,1574.81 609.835,1573.39 630.392,1570.87ZM1090.73,1892.92C1114.02,1910.18 1152.23,1936.01 1177.9,1938.55C1183.7,1939.13 1197.42,1936.51 1203.82,1935.33C1201.52,1943.17 1165,2055.53 1164.48,2056.44C1151.14,2061.38 1137.82,2066.51 1124.54,2071.81C1101.03,2055.05 1079.25,2039.48 1056.4,2020.76C1078.77,1974.88 1086.11,1948.27 1090.73,1892.92ZM1105.45,1805.41C1119.57,1807.66 1220.18,1836.62 1227.64,1844.97L1227.79,1850.21C1224.8,1858.67 1222.75,1860.04 1217.48,1866.06L1210.07,1898.72L1175.83,1908.16C1147.73,1894.41 1119.98,1879.09 1092.65,1862.23C1097.51,1843.6 1101.78,1824.64 1105.45,1805.41ZM1174.11,1855.8C1166.02,1860.92 1160.23,1863.45 1162.97,1878.31C1167.94,1886.99 1171.52,1887.93 1179.16,1889.86C1201.64,1880.64 1192.58,1855.62 1174.11,1855.8ZM1376.53,2100.99L1378.05,2103.13C1377.11,2146.94 1398.81,2169.16 1419.15,2191.69C1392.33,2219.23 1381.87,2226.75 1349.64,2233.51C1338.74,2235.27 1312.72,2242.97 1306.85,2225.84C1307.62,2208.91 1332.32,2167.74 1341.58,2157.57C1360.99,2136.25 1363.82,2132.3 1376.53,2100.99ZM1255.16,2175.61C1268.37,2176.38 1281.76,2175.79 1294.99,2175.47C1289.67,2188.21 1284.42,2202.13 1279.3,2215.15C1273.64,2221.49 1250.63,2216.67 1242.42,2215.69L1255.16,2175.61ZM1508.49,1777.95C1514.3,1778.14 1530.04,1783.41 1536.24,1785.34C1530.65,1798.18 1526.38,1808.04 1519.98,1819.92L1518.11,1821.38C1510.63,1820.07 1501.99,1815.08 1494.69,1811.45C1499.21,1800.2 1503.81,1789.04 1508.49,1777.95Z" style="fill:rgb(103,0,0);"  data-color="color-1"/>
        <path d="M1225.33,2134.87C1207.28,2127.79 1173.29,2104.47 1190.84,2066.76C1203.22,2040.14 1238.05,2036.97 1258.86,2033.92C1258.69,2040.13 1258.68,2047.91 1257.81,2053.79C1247.01,2056.04 1195.84,2064.75 1199.59,2095.6C1200.93,2106.54 1214.66,2113.22 1220.21,2118.98C1218.52,2129.03 1219.78,2128.42 1225.33,2134.87ZM1297.62,2037.28C1311.72,2042.66 1334.47,2052.42 1340.64,2072.96C1357.69,2129.77 1310.64,2144.84 1286.17,2144.21C1293.16,2141.46 1314.58,2133.99 1317.96,2127.41L1317.44,2122.91C1346.75,2092.39 1311.71,2074.28 1295.05,2063.72C1296.92,2058.48 1297.24,2043.97 1297.62,2037.28ZM1462.3,2169.26C1453.73,2168.17 1442.22,2162.45 1434.73,2157.29C1405.12,2136.86 1415.91,2097.06 1440,2078.39C1452.16,2068.97 1461.34,2066.03 1474.23,2061.06C1474.76,2067.74 1474.98,2083.5 1478.57,2087.21C1466.43,2091.13 1428.15,2101.46 1434.76,2131.72C1437.69,2145.12 1453.93,2151.85 1462.36,2154.77C1461.76,2161.33 1460.5,2165.02 1462.3,2169.26ZM1518.35,2060.87C1574.72,2075.35 1593.83,2140.21 1527.25,2168.63L1524.12,2152.47C1578.2,2131.92 1547.3,2091.5 1509.03,2082.54C1513.03,2082.41 1514.29,2082.78 1518.07,2080.77C1520.42,2074.51 1518.98,2069.32 1518.35,2060.87ZM1512.69,1938.3C1526.81,1943.24 1532.64,1945.17 1544.71,1958.24C1550.24,1990.04 1553.15,2020.93 1556.22,2053.4C1540.71,2042.93 1530.59,2039.09 1513.47,2036.49L1512.69,1938.3ZM1472.14,2038.41C1458.23,2042.53 1444.09,2047.27 1431.03,2055.64C1434.69,2010.99 1434.17,1998.16 1442.18,1952.3C1451.56,1945.31 1460.02,1941.89 1470.25,1939.28C1470.99,1968.47 1472.78,2010.43 1472.14,2038.41ZM1263.78,2009.85C1244.73,2009.81 1229.63,2010.37 1211.4,2018.86C1230.66,1959.35 1225.78,1921.78 1277.51,1915.2C1273.44,1944.58 1266.84,1981.87 1263.78,2009.85ZM1314.12,1919.61C1325.54,1925.96 1333.86,1930.13 1343.93,1940.81C1341.13,1972.52 1338.12,2004.18 1334.9,2035.8C1325.93,2029.39 1310.14,2018.13 1300.27,2015.57C1305.47,1985.18 1308.82,1951.51 1314.12,1919.61ZM1388.84,1938.84C1395.35,1938.92 1404.3,1940.07 1410.99,1940.62C1410.2,1956.34 1409.04,1975.22 1405.52,1989.85C1401.45,1993.73 1403.8,1992.47 1397.67,1991.15L1370.91,1987.57C1371.18,1976.19 1370.36,1952.02 1375.74,1943.3C1378.83,1938.3 1383.91,1939.34 1388.84,1938.84ZM1307.27,1845.73C1297.86,1845.95 1279.02,1849.26 1271.63,1843.26L1270.94,1839.63C1274.81,1828.95 1279.57,1825.8 1286.8,1820.45C1285.61,1829.1 1283.82,1834.81 1285.47,1842.24C1289.5,1844.64 1287.93,1843.94 1292.57,1843.77C1297.21,1844.08 1302.89,1844.1 1307.27,1845.73ZM1327.57,1821.19C1334.71,1828.73 1338.23,1834.7 1333.95,1848.19C1329.91,1851.82 1331.41,1850.79 1325.63,1849.58C1327.87,1840.52 1327.71,1830.66 1327.57,1821.19ZM1470.47,1866.78C1465.64,1870.52 1455.6,1873.01 1451.02,1866.3C1446.05,1834.25 1484.58,1834.47 1497.81,1839.73C1488.51,1841.3 1477.59,1841.32 1469.15,1843.28C1468.2,1850.39 1466.61,1858.1 1467.87,1864.82L1470.47,1866.78ZM1501.04,1841.32C1508.36,1845.54 1511.31,1847.81 1515.04,1858.2C1514.97,1864.18 1515.67,1861.68 1512.9,1865.95C1508.84,1866.87 1508.67,1866.8 1504.56,1866.28C1503.96,1855.4 1504.92,1850.62 1501.04,1841.32ZM1280.94,1890.16C1261.25,1894.56 1253.94,1896.88 1235.51,1907.76C1241.17,1895.27 1243.23,1887.79 1250.23,1875.52C1263.74,1869.66 1273.49,1867.27 1287.53,1865.79C1281.02,1872.48 1281.67,1878.63 1280.94,1890.16ZM1510.51,1890.65C1533.4,1894.68 1540.58,1890.3 1542.77,1926.37C1531.27,1919.47 1523.28,1916.7 1510.89,1913.82L1510.51,1890.65ZM1469.16,1915.6C1460.18,1918.71 1451.97,1922.08 1443.09,1925.83L1442.63,1897.59C1449.64,1894.32 1459.47,1890.96 1466.68,1890.23C1467.74,1898.91 1468.87,1906.77 1469.16,1915.6ZM1326.67,1872.87C1335.15,1876.7 1345.34,1879.12 1349.66,1890.42C1350.12,1897.63 1349.12,1902.19 1348.1,1909.21L1346.24,1912.15C1337.31,1905.68 1331.59,1900.88 1322.01,1896.93C1322.75,1889.39 1325.04,1880.27 1326.67,1872.87ZM1375.07,2038.52C1370.12,2036.39 1370.23,2036.19 1368.06,2030.07C1368.25,2021.99 1367.39,2025.46 1370.55,2019.2C1374.51,2016.72 1375.52,2017.76 1379.81,2018.99C1375.89,2025.24 1376.04,2029.05 1375.07,2038.52ZM1399.11,1910.07C1390.82,1910.46 1385.69,1913.24 1379.93,1903.68C1381.02,1888.7 1393.19,1892.28 1400.4,1893.11L1399.11,1910.07Z" style="fill:rgb(4,68,85);"/>
        <path d="M1292.57,1843.77C1287.93,1843.94 1289.5,1844.64 1285.47,1842.24C1283.82,1834.81 1285.61,1829.1 1286.8,1820.45L1292.11,1817.07C1304.02,1815.58 1316.1,1814.65 1327.57,1821.19C1327.71,1830.66 1327.87,1840.52 1325.63,1849.58C1318.03,1847.1 1314.98,1846.59 1307.27,1845.73C1302.89,1844.1 1297.21,1844.08 1292.57,1843.77ZM1286.17,2144.21C1261.67,2144.23 1249.38,2142.78 1225.33,2134.87C1219.78,2128.42 1218.52,2129.03 1220.21,2118.98C1248.52,2132.78 1288.81,2138.93 1317.44,2122.91L1317.96,2127.41C1314.58,2133.99 1293.16,2141.46 1286.17,2144.21ZM1258.86,2033.92C1273.19,2034 1283.34,2034.64 1297.62,2037.28C1297.24,2043.97 1296.92,2058.48 1295.05,2063.72C1280.47,2056.23 1273.29,2055.44 1257.81,2053.79C1258.68,2047.91 1258.69,2040.13 1258.86,2033.92ZM1474.23,2061.06C1493.95,2057.65 1498.87,2057.44 1518.35,2060.87C1518.98,2069.32 1520.42,2074.51 1518.07,2080.77C1514.29,2082.78 1513.03,2082.41 1509.03,2082.54C1500.64,2082.08 1487.1,2085.09 1478.57,2087.21C1474.98,2083.5 1474.76,2067.74 1474.23,2061.06ZM1527.25,2168.63C1499.78,2174.36 1489.66,2175.05 1462.3,2169.26C1460.5,2165.02 1461.76,2161.33 1462.36,2154.77C1478.93,2162.51 1507.32,2159.06 1524.12,2152.47L1527.25,2168.63ZM1470.25,1939.28C1483.79,1936.54 1499.08,1937.11 1512.69,1938.3L1513.47,2036.49C1498.84,2035.93 1486.79,2035.44 1472.14,2038.41C1472.78,2010.43 1470.99,1968.47 1470.25,1939.28ZM1277.51,1915.2C1289.37,1913.94 1302.59,1915.04 1314.12,1919.61C1308.82,1951.51 1305.47,1985.18 1300.27,2015.57C1288.13,2010.66 1276.25,2009.97 1263.78,2009.85C1266.84,1981.87 1273.44,1944.58 1277.51,1915.2ZM1497.81,1839.73L1501.04,1841.32C1504.92,1850.62 1503.96,1855.4 1504.56,1866.28C1492.11,1865.63 1482.93,1865.85 1470.47,1866.78L1467.87,1864.82C1466.61,1858.1 1468.2,1850.39 1469.15,1843.28C1477.59,1841.32 1488.51,1841.3 1497.81,1839.73ZM1466.68,1890.23C1484.37,1887.43 1492.78,1887.73 1510.51,1890.65L1510.89,1913.82C1497.89,1913.56 1481.91,1913.08 1469.16,1915.6C1468.87,1906.77 1467.74,1898.91 1466.68,1890.23ZM1287.53,1865.79C1300.52,1866.69 1314.13,1867.32 1326.67,1872.87C1325.04,1880.27 1322.75,1889.39 1322.01,1896.93C1306.56,1889.43 1297.03,1889.65 1280.94,1890.16C1281.67,1878.63 1281.02,1872.48 1287.53,1865.79ZM1379.81,2018.99C1389.07,2020.43 1397.42,2019.89 1404.28,2029.25L1404.6,2032.66C1397.47,2043.56 1384.36,2039.69 1375.07,2038.52C1376.04,2029.05 1375.89,2025.24 1379.81,2018.99ZM1400.4,1893.11C1406.3,1894.75 1410.83,1894.74 1414.71,1901.03L1415.43,1905.39C1410.55,1914.61 1406.36,1911.56 1399.11,1910.07L1400.4,1893.11Z" style="fill:rgb(44,99,101);"/>
        <path d="M885.658,2149.74C910.883,2166.31 950.331,2186.57 976.674,2198.74C967.049,2219.84 956.749,2245.74 947.334,2267.68C928.638,2253.45 869.118,2227.54 857.13,2213.63C852.422,2195.68 876.209,2158.92 885.658,2149.74ZM1073.12,2237.25C1099.03,2243.84 1124.84,2251.22 1150.55,2259.4C1146.96,2273.75 1137.21,2313.77 1132.36,2324.77L1129.1,2325.46C1101.56,2318.35 1074.28,2309.31 1046.79,2302.46C1054.93,2284.52 1065.17,2256.73 1073.12,2237.25ZM1111.63,2270.14C1105.74,2272.65 1104.33,2272.58 1100.05,2278.61C1098.26,2285.3 1098.42,2281.91 1099.85,2289.13C1105.66,2298.64 1108.25,2298.17 1116.97,2299.21C1121.58,2296.18 1122.74,2295.96 1125.86,2289.89C1127.77,2275.13 1120.02,2270.68 1111.63,2270.14ZM1379.3,2258.72L1380.84,2259.48L1381.36,2262.82C1362.7,2310.6 1354.24,2317.04 1317.8,2325.78C1316.18,2324.95 1317.07,2325.69 1315.53,2322.71C1334.71,2254.31 1334.84,2270.56 1379.3,2258.72ZM1599.71,2780.77L1609.28,2779.5C1617.04,2785.67 1613.35,2803.57 1617.77,2824.38L1618.38,2827.16C1608.32,2839.94 1604.26,2841.85 1602.7,2860.59C1606.16,2874.66 1617.72,2865.89 1625.48,2862.41C1628.07,2864.15 1643.01,2885 1652.85,2893.63C1629.88,2928.44 1646.1,2937.7 1670.45,2927.89L1678.7,2909.95C1690.62,2915.99 1715.14,2927.05 1726.51,2918.79L1727.15,2915.17C1721.1,2903.66 1707.72,2898.61 1698.4,2893.76C1725.89,2877.72 1734.25,2878.25 1761.66,2892.18C1745.1,2917.66 1742.56,2923.21 1734.85,2956.54C1749.18,2945.22 1762.65,2931.35 1777.01,2920.56C1839.69,2873.45 1942.93,2820.52 1987.59,2934.05C1975.01,2934.97 1962.45,2936.16 1949.89,2937.63C1908.22,2941.53 1845.62,2970.96 1807.18,2998.25C1739.46,3046.33 1696.08,3039.5 1624.97,3044.41C1581.75,3047.67 1538.81,3056.66 1496.65,3071.27C1490.64,3019.39 1488.21,2974.46 1505.73,2927.6C1498.06,2915.45 1480.65,2856.92 1478.8,2841.05C1475.94,2816.38 1518.12,2803.82 1531.85,2798.33C1552.98,2789.9 1577.08,2784.3 1599.71,2780.77ZM1611.9,2669C1642,2665.32 1680.01,2667.77 1709.11,2677.57C1707.62,2696.26 1707.04,2723.95 1706.88,2742.49C1636.97,2734.04 1597.14,2735.79 1527.91,2759.99C1505.04,2767.91 1482.74,2779.16 1461.33,2793.58C1456.58,2771.9 1452.36,2748.96 1447.73,2726.97C1500.11,2689.06 1554.46,2674.87 1611.9,2669ZM1650.28,2776.54C1669.28,2774.71 1688.07,2777.19 1706.89,2780.91C1707,2788.44 1707.56,2795.32 1705.74,2802.3L1703.02,2803.96C1680.86,2802.94 1672.67,2803.56 1650.96,2809.73C1649.77,2798.17 1647.96,2787.49 1650.28,2776.54ZM1675.65,2836.55C1684.06,2834.9 1707.07,2832.19 1711.92,2844.43C1709.24,2855.34 1697.37,2858.33 1690.43,2861.42L1675.57,2872.11C1666.83,2860.95 1663.14,2855.18 1656.03,2841.97C1662.1,2839.86 1669.42,2838.21 1675.65,2836.55ZM547.849,2829.63C545.285,2829.21 546.12,2829.33 543.681,2827.31C526.869,2782.85 504.936,2731.75 528.848,2682.04C547.332,2635.41 601.647,2621.51 634.483,2621.16C616.381,2652.36 605.824,2680.9 607.748,2724.17C609.855,2771.55 625.503,2801.51 648.149,2831.53C661.786,2849.6 681.118,2856.98 686.681,2864.99L686.158,2867.41C673.938,2876.27 650.988,2875.9 638.668,2868.78C615.73,2855.53 620.572,2827.71 595.349,2814.98C580.628,2821.04 562.805,2830.34 547.849,2829.63ZM458.845,2680.78C469.383,2678.65 478.87,2679.89 489.301,2681.89C479.014,2734.62 483.286,2768.63 501.078,2815.27C483.864,2845.13 472.383,2869.05 460.821,2904.47C459.053,2909.88 452.072,2922.73 449.343,2928.8C469.851,2945.17 498.489,2952.58 521.424,2956.63C530.215,2958.19 549.228,2957.79 556.085,2962.67L556.151,2965.41C550.421,2969.95 494.532,2968.38 481.655,2969.6C468.177,2970.77 454.769,2973.35 441.53,2977.31C433.984,2979.53 419.944,2982.1 420.267,2996.43C424.101,3000.57 427.303,2999.88 432.128,2999.98C481.679,3000.92 548.984,2982.42 594.897,3013.39C607.438,3023.76 611.665,3032.21 617.645,3051.8C628.014,3086.65 602.306,3089.73 584.882,3092.83C505.917,3106.85 347.487,3116.73 348.487,2945.65C348.608,2924.93 359.333,2895.51 361.593,2874.77C363.075,2861.16 360.417,2845.37 359.928,2832.29C355.996,2727.23 395.882,2691.97 458.845,2680.78ZM497.126,2895.36C506.383,2901.44 515.905,2906.57 525.627,2910.7C531.431,2913.25 560.119,2922.11 562.464,2926.92C559.75,2933.43 561.563,2931.79 557.503,2933.43C532.096,2933.49 511.573,2929.94 487.483,2918.67L497.126,2895.36ZM513.192,2851.54C528.176,2860.86 541.735,2875.08 557.056,2884.09C563.127,2887.66 574.913,2890.42 578.55,2895.94C577.069,2900.68 576.181,2900.7 573.129,2903.66C559.214,2898.85 517.786,2880.72 505.047,2871.64L504.595,2868.44C506.729,2860.54 509.141,2857.84 513.192,2851.54ZM571.511,2852.3C581.709,2851.14 587.927,2855.78 592.976,2870.14L591.208,2871.73C586.646,2868.52 571.05,2859.12 568.765,2855.26L571.511,2852.3Z" style="fill:rgb(152,76,8);"  data-color="color-5"/>
    </g>
</svg>
