<svg width="100%" height="100%" viewBox="0 0 842 966" version="1.1" xmlns="http://www.w3.org/2000/svg" xmlns:xlink="http://www.w3.org/1999/xlink" xml:space="preserve" xmlns:serif="http://www.serif.com/" style="fill-rule:evenodd;clip-rule:evenodd;stroke-linejoin:round;stroke-miterlimit:2;">
    <g transform="matrix(1,0,0,1,-109.452,-282.526)">
        <path d="M583.607,283.002C588.174,282.534 592.706,282.35 597.29,282.733C606.089,283.47 615.706,285.974 623.378,290.433C638.558,299.258 651.745,313.757 664.956,325.358C681.755,340.11 701.356,354.575 715.667,371.757C718.664,375.356 722.111,379.902 723.187,384.556C725.922,396.383 718.591,449.698 717.039,466.112C738.222,476.835 813.596,501.412 808.121,533.462C800.925,575.589 733.541,560.871 704.379,556.421C708.373,562.093 711.756,567.411 714.814,573.637C726.184,596.788 720.618,619.694 693.945,626.761C692.731,636.262 692.288,638.587 687.409,646.907C701.256,661.349 716.132,670.91 736.342,672.997C723.226,685.476 711.582,692.417 693.534,695.078L696.878,704.085C693.361,704.878 667.21,709.787 666.769,710.007L666.852,711.004C672.95,715.655 678.926,713.596 690.643,723.274C704.144,724.99 712.857,728.817 723.856,736.277C734.997,733.282 747.306,730.572 758.605,727.887C760.36,695.057 766.701,673.925 802.766,666.154C810.441,664.5 817.08,662.637 825.144,662.046C825.333,660.918 825.533,659.79 825.744,658.665C830.45,634.126 836.031,609.063 840.999,584.46L862.937,475.027C866.142,459.701 869.195,444.343 872.096,428.957C874.536,416.348 876,396.614 887.275,389.341C901.739,380.012 937.72,386.037 947.277,400.65C954.939,412.364 947.165,429.819 944.777,442.256C941.746,455.067 938.44,468.063 935.575,480.981C940.762,484.177 948.049,491.271 947.273,498.002C945.58,512.678 944.131,539.749 938.069,552.664C931.985,565.627 917.493,577.325 913.655,592.316C910.589,602.395 909.018,612.092 907.035,622.123L897.468,670.17C915.99,681.667 916.13,698.05 913.278,717.314C919.989,731.59 914.908,737.608 912.43,751.693C911.149,758.97 913.651,767.177 910.698,775.213C909.774,781.069 903.526,786.204 901.679,791.094C893.482,812.805 888.177,832.081 860.357,834.756C855.288,858.912 849.989,883.019 844.458,907.073C859.298,922.854 852.256,936.529 846.98,955.321C842.427,971.539 827.191,983.815 823.04,1001.46C806.055,1073.67 791.262,1146.42 773.485,1218.45C771.055,1228.3 768.194,1238.2 758.626,1243.1C741.277,1252.51 711.141,1248.15 700.639,1230.21C694.38,1219.47 700.145,1205.25 703.461,1194.17C692.095,1196.09 680.621,1197.3 669.105,1197.79C665.29,1197.93 649.448,1197.8 646.955,1198.32C629.025,1220.41 562.568,1223.51 536.928,1214.17C530.804,1211.94 523.104,1206.85 520.784,1200.26C515.128,1184.2 519.065,1165.99 515.598,1149.15C513.407,1133.94 518.281,1112.26 523.669,1098.19C518.247,1083.44 520.406,1061.86 520.656,1045.47C512.224,1035.68 510.259,1030.49 509.816,1017.73C478.425,1020.17 449.398,1019.76 418.068,1018.43C393.604,1054.58 358.709,1097.78 319.955,1119.18C313.199,1122.91 302.103,1124.93 294.488,1127.53C286.006,1130.43 279.698,1133.83 271.963,1138.24C289.876,1152.15 291.15,1164.21 293.933,1185.47C296.092,1195.26 298.449,1205.16 296.462,1215.23C290.888,1243.45 241.485,1239.38 219.814,1240.85C140.646,1246.2 104.363,1187.57 120.695,1115.91C108.379,1101.7 109.184,1078.81 109.683,1061.82C110.922,1019.65 137.573,1017.65 172.697,1018.14C178.726,1018.22 185.374,1015.39 194.475,1016.07C206.022,1005.18 229.732,998.913 245.565,993.507C249.701,972.978 255.676,953.73 262.409,933.927C255.129,933.109 251.706,932.288 244.921,930.047C230.526,935.136 231.801,929.884 220.11,928.508C207.938,927.075 205.395,930.34 192.123,924.823C180.191,919.902 170.773,910.342 166.034,898.338C156.417,874.609 160.382,844.37 170.242,821.22C159.497,793.626 142.305,747.219 146.485,717.688C150.095,692.845 164.794,672.637 184.657,658.059C197.814,648.404 211.364,643.076 227.602,641.515C230.64,641.223 240.426,640.666 242.719,639.527C254.943,633.458 266.939,626.771 279.318,620.985C318.278,602.251 364.255,590.556 407.639,597.063C419.505,587.978 422.2,589.488 431.829,583.425C400.734,565.252 382.601,535.98 382.576,499.556C364.937,493.825 342.513,485.865 339.831,464.708C336.271,436.635 365.342,427.087 387.347,422.656C405.19,419.062 423.119,417.384 441.105,415.366C442.926,405.292 453.399,359.464 459.103,351.767C465.698,342.869 496.943,328.127 507.993,320.585C520.94,311.748 538.626,299.083 552.848,292.301C562.57,287.659 572.942,284.523 583.607,283.002ZM587.045,296.527C552.298,300.573 527.692,326.957 497.853,342.693C489.773,346.954 475.589,355.367 469.083,361.388C463.239,379.623 455.846,409.471 451.595,428.543C430.086,430.703 370.505,434.25 357.146,450.501C354.428,453.76 353.146,457.979 353.592,462.199C355.417,480.914 401.324,491.799 416.551,495.42C410.41,499.009 405.166,502.257 399.882,507.166C406.905,512.923 409.728,513.98 418.276,516.701L397.831,517.016C406.121,544.899 422.267,568.462 451.969,576.528C439.189,604.536 428.301,594.275 412.84,611.535C349.803,602.377 296.669,623.776 243.135,655.512C223.704,652.955 206.096,658.587 190.843,670.54C165.292,690.561 154.827,715.757 161.719,747.936C167.359,774.271 176.643,797.744 184.89,823.102C180.806,830.85 177.235,839.169 176.042,847.782C173.127,868.819 172.557,898.748 193.959,910.41C200.772,914.122 209.559,915.301 216.84,913.028C217.296,912.885 217.749,912.737 218.201,912.584C230.132,918.477 233.743,920.871 246.176,914.585C251.918,918.802 258.653,921.128 265.835,919.993C267.999,919.642 270.13,919.105 272.203,918.388L281.456,921.426C270.2,952.712 263.859,972.055 256.582,1004.49C247.381,1007.57 238.097,1010.69 228.924,1013.83C216.25,1018.16 209.336,1019.86 200.983,1030.6C192.503,1029.78 180.89,1028.98 173.207,1033.21C150.921,1030.43 124.695,1028.83 123.667,1057.85C123.12,1073.26 121.099,1091.94 130.306,1105.52C131.439,1107.2 135.277,1109.65 136.977,1110.77C119.832,1148.56 132.368,1202.82 172.681,1220.43C178.573,1222.98 184.778,1224.75 191.134,1225.67C215.555,1229.24 251.721,1227.04 275.332,1220.86C288.255,1217.47 282.136,1194.63 279.678,1186.76C279.131,1185.01 280.067,1180.57 279.741,1178.67C279.913,1173.71 277.604,1169.1 275.78,1164.59C269.692,1149.56 257.938,1145.6 243.285,1142.52L244.512,1128.14C261.196,1132.59 270.088,1121.61 284.894,1115.99C295.602,1111.92 306.887,1110.92 316.7,1104.99C357.322,1080.31 384.969,1041.58 411.996,1003.92C450.874,1006.13 483.9,1007.17 522.937,1002.58C523.214,1013.13 522.073,1027.12 530.047,1034.63C531.11,1035.62 532.227,1036.56 533.394,1037.43C533.59,1052.33 531.019,1085.52 537.911,1097.47C530.945,1116.53 527.882,1129.55 528.56,1150.31C528.686,1154.16 530.811,1156.06 530.983,1160.64C531.402,1171.81 530.755,1182.36 532.137,1193.5C533.645,1195.44 534.935,1196.85 536.834,1198.43C551.99,1210.98 630.376,1204.93 636.678,1187.78C637.513,1185.14 637.211,1184.38 639.137,1183.2C644.74,1183.36 651.315,1184.36 656.097,1184.4C676.887,1184.56 702.423,1182.03 721.927,1174.7C720.328,1182.02 718.445,1189.2 716.545,1196.34C714.74,1204.65 708.419,1217.54 713.852,1225.44C720.462,1235.05 744.679,1236.39 753.308,1229.99C758.916,1225.83 762.707,1204.56 764.53,1197.11C769.511,1176.95 774.245,1156.73 778.731,1136.46L797.089,1053.47C801.149,1034.68 805.087,1015.49 810.093,997.002C814.222,981.751 824.175,969.848 831.577,956.448C834.93,950.379 839.511,932.022 840.23,924.735L840.293,924.029C836.784,918.282 835.359,916.893 829.591,913.436C834.619,883.267 843.58,851.544 849.017,820.313C855.396,820.963 860.112,821.747 866.36,819.619C880.882,814.673 886.24,798.478 887.81,784.661C894.41,779.242 898.044,773.611 898.902,764.941C899.389,760.015 899.142,756.863 897.248,752.399C894.241,745.31 911.534,732.573 898.955,718.133C898.811,717.968 898.676,717.796 898.533,717.631C898.447,717.531 898.358,717.435 898.27,717.338C905.831,697.001 900.331,686.588 881.363,677.064C889.911,648.375 891.957,615.443 900.875,586.601C904.714,570.534 922.294,557.619 926.896,543.147C930.01,533.355 933.76,506.786 932.615,496.002C932.188,491.978 921.538,493.489 918.526,493.911C924.473,467.507 931.15,438.458 937.842,412.252C929.901,400.257 917.395,399.943 903.98,398.763C897.092,398.157 890.884,402.12 890.299,408.846C887.209,422.909 884.497,436.98 881.687,451.082L866.642,525.943C856.484,576.778 844.358,630.431 835.169,680.968C828.694,677.753 824.533,675.921 817.003,677.182C772.865,684.567 774.045,699.226 771.551,739.832C755.388,743.226 736.542,747.083 720.758,751.629C708.6,741.346 700.657,737.328 684.156,737.14C675.082,726.276 673,728.148 660.604,725.823C659.732,725.659 637.371,699.985 634.568,696.859L636.394,688.229C652.89,697.305 663.239,696.896 681.59,694.867C677.183,689.338 674.003,685.874 669.05,680.806C685.361,683.38 693.634,682.931 709.579,678.097C691.382,671.117 679.979,661.839 670.113,644.488C679.912,636.403 683.04,629.104 677.401,617.179C687.197,614.271 699.44,613.567 704.694,603.67C711.956,589.989 697.796,568.551 688.602,559.039C693.105,552.649 697.337,547.17 700.049,539.765C722.349,545.793 747.594,550.25 770.776,548.654C787.837,547.48 804.441,532.115 785.905,517.495C761.75,498.441 730.727,487.72 702.756,474.904C704.142,448.787 709.638,415.911 710.341,389.938C710.617,379.738 647.772,330.733 636.707,319.033C623.784,305.367 606.259,294.173 587.045,296.527ZM315.074,760.619C316.489,760.429 315.775,760.416 317.207,761.015C318.244,764.526 317.275,768.651 317.146,772.341C316.531,789.833 312.012,803.886 307.188,820.567C298.27,816.452 292.167,815.352 282.645,813.225L270.651,811.077C271.602,802.598 273.254,793.629 274.66,785.169C288.972,781.007 294.487,775.409 303.502,764.302C307.654,762.703 310.768,761.807 315.074,760.619ZM301.061,786.667L300.346,787.223C295.633,790.856 287.215,793.685 285.729,797.499L286.1,799.166C287.267,799.761 287.685,800.11 288.986,800.192L297.933,802.44C299.314,797.845 301.241,792.165 301.833,787.502L301.061,786.667ZM795.711,814.465L801.678,819.226C799.099,828.784 796.772,841.189 794.605,851.111L781.476,911.237L747.223,1068.02C714.147,1050.09 688.844,1066.13 664.048,1087.81C657.48,1082.55 650.941,1077.26 644.431,1071.93C644.086,1067.53 643.07,1055.53 643.681,1051.88C646.782,1033.35 651.044,1033.92 644.591,1015.54C649.315,1004.79 652.14,991.358 653.058,979.684C653.659,975.542 653.156,968.267 652.483,963.972C645.144,917.099 580.103,905.159 541.574,896.931C550.784,893.747 555.251,891.754 563.567,886.891C589.675,909.691 637.218,896.115 643.52,862.109C657.703,872.742 672.102,874.946 686.936,864.615C722.702,873.519 771.116,837.101 795.711,814.465ZM781.189,844.436C751.148,864.992 726.946,881.871 690.16,879.944C688.722,879.869 683.892,882.95 682.273,883.377C671.976,886.772 660.918,885.042 650.714,882.258C640.982,894.803 634.999,899.858 620.21,906.109C640.237,916.143 656.03,928.995 663.343,951.333C670.665,973.699 665.176,994.092 659.196,1015.64C660.118,1018.95 661.292,1022.72 661.716,1026.09C661.74,1042.07 656.95,1047.15 657.212,1065.17L663.059,1070.52C685.723,1052.49 707.496,1041.53 737.421,1049.05C741.252,1031.13 782.18,847.66 781.189,844.436Z" style="fill:white;"/>
        <path d="M587.045,296.527C606.259,294.173 623.784,305.367 636.707,319.033C647.772,330.733 710.617,379.738 710.341,389.938C709.638,415.911 704.142,448.787 702.756,474.904C730.727,487.72 761.75,498.441 785.905,517.495C804.441,532.115 787.837,547.48 770.776,548.654C747.594,550.25 722.349,545.793 700.049,539.765C697.337,547.17 693.105,552.649 688.602,559.039C697.796,568.551 711.956,589.989 704.694,603.67C699.44,613.567 687.197,614.271 677.401,617.179C683.04,629.104 679.912,636.403 670.113,644.488C679.979,661.839 691.382,671.117 709.579,678.097C693.634,682.931 685.361,683.38 669.05,680.806C674.003,685.874 677.183,689.338 681.59,694.867C663.239,696.896 652.89,697.305 636.394,688.229L634.568,696.859C637.371,699.985 659.732,725.659 660.604,725.823C673,728.148 675.082,726.276 684.156,737.14C700.657,737.328 708.6,741.346 720.758,751.629C736.542,747.083 755.388,743.226 771.551,739.832C774.045,699.226 772.865,684.567 817.003,677.182C824.533,675.921 828.694,677.753 835.169,680.968C844.358,630.431 856.484,576.778 866.642,525.943L881.687,451.082C884.497,436.98 887.209,422.909 890.299,408.846C890.884,402.12 897.092,398.157 903.98,398.763C917.395,399.943 929.901,400.257 937.842,412.252C931.15,438.458 924.473,467.507 918.526,493.911C921.538,493.489 932.188,491.978 932.615,496.002C933.76,506.786 930.01,533.355 926.896,543.147C922.294,557.619 904.714,570.534 900.875,586.601C891.957,615.443 889.911,648.375 881.363,677.064C900.331,686.588 905.831,697.001 898.27,717.338C898.358,717.435 898.447,717.531 898.533,717.631C898.676,717.796 898.811,717.968 898.955,718.133C911.534,732.573 894.241,745.31 897.248,752.399C899.142,756.863 899.389,760.015 898.902,764.941C898.044,773.611 894.41,779.242 887.81,784.661C886.24,798.478 880.882,814.673 866.36,819.619C860.112,821.747 855.396,820.963 849.017,820.313C843.58,851.544 834.619,883.267 829.591,913.436C835.359,916.893 836.784,918.282 840.293,924.029L840.23,924.735C839.511,932.022 834.93,950.379 831.577,956.448C824.175,969.848 814.222,981.751 810.093,997.002C805.087,1015.49 801.149,1034.68 797.089,1053.47L778.731,1136.46C774.245,1156.73 769.511,1176.95 764.53,1197.11C762.707,1204.56 758.916,1225.83 753.308,1229.99C744.679,1236.39 720.462,1235.05 713.852,1225.44C708.419,1217.54 714.74,1204.65 716.545,1196.34C718.445,1189.2 720.328,1182.02 721.927,1174.7C702.423,1182.03 676.887,1184.56 656.097,1184.4C651.315,1184.36 644.74,1183.36 639.137,1183.2C637.211,1184.38 637.513,1185.14 636.678,1187.78C630.376,1204.93 551.99,1210.98 536.834,1198.43C534.935,1196.85 533.645,1195.44 532.137,1193.5C530.755,1182.36 531.402,1171.81 530.983,1160.64C530.811,1156.06 528.686,1154.16 528.56,1150.31C527.882,1129.55 530.945,1116.53 537.911,1097.47C531.019,1085.52 533.59,1052.33 533.394,1037.43C532.227,1036.56 531.11,1035.62 530.047,1034.63C522.073,1027.12 523.214,1013.13 522.937,1002.58C483.9,1007.17 450.874,1006.13 411.996,1003.92C384.969,1041.58 357.322,1080.31 316.7,1104.99C306.887,1110.92 295.602,1111.92 284.894,1115.99C270.088,1121.61 261.196,1132.59 244.512,1128.14L243.285,1142.52C257.938,1145.6 269.692,1149.56 275.78,1164.59C277.604,1169.1 279.913,1173.71 279.741,1178.67C280.067,1180.57 279.131,1185.01 279.678,1186.76C282.136,1194.63 288.255,1217.47 275.332,1220.86C251.721,1227.04 215.555,1229.24 191.134,1225.67C184.778,1224.75 178.573,1222.98 172.681,1220.43C132.368,1202.82 119.832,1148.56 136.977,1110.77C135.277,1109.65 131.439,1107.2 130.306,1105.52C121.099,1091.94 123.12,1073.26 123.667,1057.85C124.695,1028.83 150.921,1030.43 173.207,1033.21C180.89,1028.98 192.503,1029.78 200.983,1030.6C209.336,1019.86 216.25,1018.16 228.924,1013.83C238.097,1010.69 247.381,1007.57 256.582,1004.49C263.859,972.055 270.2,952.712 281.456,921.426L272.203,918.388C270.13,919.105 267.999,919.642 265.835,919.993C258.653,921.128 251.918,918.802 246.176,914.585C233.743,920.871 230.132,918.477 218.201,912.584C217.749,912.737 217.296,912.885 216.84,913.028C209.559,915.301 200.772,914.122 193.959,910.41C172.557,898.748 173.127,868.819 176.042,847.782C177.235,839.169 180.806,830.85 184.89,823.102C176.643,797.744 167.359,774.271 161.719,747.936C154.827,715.757 165.292,690.561 190.843,670.54C206.096,658.587 223.704,652.955 243.135,655.512C296.669,623.776 349.803,602.377 412.84,611.535C428.301,594.275 439.189,604.536 451.969,576.528C422.267,568.462 406.121,544.899 397.831,517.016L418.276,516.701C409.728,513.98 406.905,512.923 399.882,507.166C405.166,502.257 410.41,499.009 416.551,495.42C401.324,491.799 355.417,480.914 353.592,462.199C353.146,457.979 354.428,453.76 357.146,450.501C370.505,434.25 430.086,430.703 451.595,428.543C455.846,409.471 463.239,379.623 469.083,361.388C475.589,355.367 489.773,346.954 497.853,342.693C527.692,326.957 552.298,300.573 587.045,296.527ZM207.81,1130.6C212.348,1130.84 222.792,1132.24 225.691,1128.9L225.455,1126.97C223.555,1126.05 213.551,1124.57 209.682,1123.52L201.69,1120.88C201.546,1124.48 200.876,1126.34 202.312,1129.21C204.576,1130.43 205.17,1130.33 207.81,1130.6ZM564.164,820.724L561.864,821.743C560.738,828.198 570.291,843.968 575.369,847.902L575.903,847.866L580.681,843.232C579.425,839.878 573.295,822.174 571.43,820.594C568.359,820.434 567.239,820.466 564.164,820.724ZM229.094,671.495C218.122,672.83 210.883,676.812 202.479,684.047C209.616,683.928 215.182,683.815 222.23,685.537C254.003,693.301 281.205,719.678 281.54,753.616L281.541,754.62L281.129,765.34C285.133,760.285 287.768,756.919 290.756,751.133C310.306,713.277 267.903,666.87 229.094,671.495ZM555.512,713.033C546.398,720.047 527.23,736.25 527.964,748.392L528.598,748.849C533.11,752.159 534.097,756.839 536.031,762.186C536.94,764.877 537.645,768.04 539.573,769.932C543.483,767.612 554.247,722.46 556.469,714.356L555.512,713.033ZM326.254,1076.53C358.135,1051.31 387.102,1008.62 411.471,976.487C421.174,963.694 432.728,953.367 442.177,941.204C440.901,956.61 437.67,962.154 431.369,976.11C457.032,963.133 477.735,953.79 505.363,944.991C488.442,956.475 469.528,968.068 453.265,979.404C490.674,981.815 531.583,976.167 571.382,977.908C566.112,979.711 560.826,981.297 555.964,984.002C553.109,985.562 549.567,987.371 546.838,989.022C544.416,995.859 538.729,1009.19 540.776,1016.03C544.474,1020.05 547.815,1016.87 552.104,1014.6C563.336,1008.8 585.916,1000.57 598.277,1002.91C599.086,1005.34 596.192,1004.74 596.699,1008.21C608.804,1007.39 617.214,1006.52 629.367,1007.93C636.995,984.429 643.523,953.858 617.645,939.238C588.529,922.789 552.241,916.03 519.594,909.779C516.767,909.238 495.765,914.839 490.985,915.808C490.748,916.089 487.164,920.253 486.746,920.363C471.794,924.299 449.403,925.686 433.702,926.053C431.021,925.884 429.936,924.23 428.569,922.545C422.922,915.587 404.01,916.712 394.239,913.94C385.305,931.417 366.392,930.728 350.019,924.861C337.862,948.911 321.851,959.71 297.223,967.867L283.124,969.911C277.687,1004.96 263.456,1032.92 256.319,1064.87L255.229,1065.53C248.729,1060.23 251.791,1031.11 253.057,1022.96C242.896,1026.33 223.282,1032 215.287,1037.37C209.469,1048.29 209.592,1061.08 213.215,1072.71C218.443,1089.92 230.232,1104.39 246.038,1112.99C259.58,1109.04 270.735,1103.2 283.391,1098.76C302.196,1092.16 310.484,1089.62 326.254,1076.53ZM566.187,664.212C554.707,678.431 548.912,693.836 542.381,710.763C547.449,704.879 552.836,697.607 557.396,691.215C559.67,688.086 561.961,684.969 564.268,681.863C569.562,686.874 574.675,692.966 579.552,697.439C580.493,682.327 579.527,673.73 566.187,664.212ZM567.745,855.908C563.268,847.571 558.208,845.69 549.127,845.207C526.518,845.824 510.135,854.03 506.107,877.094C511.567,894.41 528.895,889.733 542.411,885.626C555.619,881.612 570.937,871.605 567.745,855.908ZM558.983,855.545C568.417,877.413 528.277,891.673 514.746,878.759C503.481,868.007 530.67,853.044 539.616,852.512C544.854,852.201 547.972,851.895 553.13,852.008C555.348,853.213 556.913,854.033 558.983,855.545ZM541.714,860.392C531.996,862.622 527.891,864.757 521.089,872.146C526.427,873.923 528.387,874.643 534.005,874.643C539.56,873.193 550.499,869.19 551.572,862.648C549.597,859.202 545.412,860.241 541.714,860.392ZM482.897,838.174C478.149,847.919 472.47,858.135 468.083,867.765L468.496,868.597C470.934,868.511 473.408,868.448 475.841,868.33L489.161,868.466C488.993,863.277 486.138,840.96 482.897,838.174ZM577.092,1149.19C599.071,1145.87 631.186,1151.45 650.411,1144.99C676.987,1134.9 696.396,1112.09 721.157,1098.43C731.841,1092.53 732.168,1092.44 744.174,1090.99C744.358,1089.64 743.842,1089.57 742.711,1088.05C724.501,1064.91 696.636,1081.09 678.438,1095.53C672.71,1100.11 667.11,1104.85 661.646,1109.75C657.591,1112.62 653.536,1116.94 648.73,1120.32C650.448,1114.52 652.934,1108.75 654.259,1103.05C654.417,1102.36 653.426,1101.46 652.824,1100.68C647.53,1096.97 639.778,1097.53 634.958,1101.68L634.184,1103.66C635.384,1105.88 635.938,1105.62 638.472,1106.94C635.553,1108.27 627.227,1110.01 626.343,1110.83C624.794,1115.49 620.411,1120.42 616.049,1115.82C614.568,1110.89 616.002,1108.43 617.984,1103.87C613.754,1100.28 609.578,1096.29 605.315,1092.61C602.529,1094.4 599.575,1097.21 597.059,1099.46C587.155,1091.59 591.888,1089.44 599.92,1082.32C597.264,1078.03 595.79,1074.75 593.699,1070.2C588.436,1075.15 581.47,1076.84 582.586,1066.4C582.945,1063.04 588.724,1060.62 591.728,1059.15C590.952,1055.55 590.348,1050.58 589.782,1046.85C581.108,1048.45 576.246,1049.78 568.204,1052.93C561.541,1055.78 557.351,1057.75 551.211,1061.96C551.321,1077.78 549.604,1082.41 558.257,1095.26C545.333,1117.94 542.599,1128.92 544.609,1155.22C554.989,1152.91 566.537,1150.43 577.092,1149.19ZM507.471,766.8C515.02,764.991 519.732,764.897 527.394,765.612C526.099,762.461 524.714,759.286 523.38,756.145C514.959,754.899 511.881,755.485 503.622,757.198C501.361,757.9 499.452,758.446 497.27,759.407C497.123,763.175 497.038,767.184 496.664,770.915C500.604,769.174 503.315,767.883 507.471,766.8ZM277.052,905.625C280.483,907.445 281.116,907.762 285.032,907.588C300.916,906.883 286.673,880.091 283.301,871.254C285.762,865.54 288.639,859.532 291.24,853.841C293.329,860.539 294.487,882.317 302.3,881.834C310.752,876.104 307.239,859.184 305.842,850.693C301.8,826.127 276.487,830.395 261.226,822.128C247.411,814.645 262.96,773.359 264.9,760.684C265.98,753.984 265.773,747.139 264.291,740.516C257.113,709.093 222.761,697.352 193.789,703.984C187.313,706.695 181.033,710.508 178.247,717.294C170.315,736.614 193.319,801.107 200.25,822.968C189.199,842.363 187.505,864.676 191.844,886.261C193.405,894.026 201.558,902.113 209.729,901.495C213.827,898.644 210.574,897.499 214.397,895.953C221.785,897.416 230.054,907.708 236.966,904.411C238.454,901.055 233.55,893.472 231.799,890.042C239.041,895.444 250.487,906.536 258.642,907.046C264.845,904.514 257.264,894.22 254.908,890.386C262.901,894.867 270.585,902.587 277.052,905.625ZM770.885,1093.86C772.193,1094.17 771.519,1094.14 772.916,1093.62C777.774,1081.01 778.469,1062.68 782.117,1049.19C789.05,1023.55 793.324,995.495 804.956,971.549C807.842,965.608 817.026,955.293 818.086,949.793L819.679,944.049C821.243,939.617 822.745,933.661 824.051,929.04C819.037,933.242 814.79,937.062 810.019,941.541C814.276,910.392 820.013,879.464 827.21,848.861C829.588,837.923 831.861,826.962 834.031,815.981C827.974,814.325 825.338,813.719 820.05,810.347C812.684,846.084 804.874,881.729 796.619,917.271C793.131,932.822 788.644,956.042 784.351,970.823L793.416,965.365C789.217,980.97 781.626,995.388 778.15,1007.06C772.618,1025.64 762.137,1068.97 761.153,1086.97C765.039,1090.39 766.366,1091.26 770.885,1093.86ZM555.209,835.867C552.011,828.876 538.392,795.484 535.897,793.054C524.144,792.331 515.725,793.253 505.14,798.941C508.559,813.799 511.725,829.951 515.505,844.535C524.786,839.607 534.533,837.28 544.986,836.384C547.859,836.138 552.704,836.31 555.209,835.867ZM344.989,886.695C344.446,893.869 344.005,900.275 344.404,907.493C348.272,912.554 356.354,918.375 362.986,917.152C364.315,915.691 364.206,915.572 364.649,913.705L370.487,893.531C358.35,893.208 355.495,893.125 344.989,886.695ZM638.899,622.763C622.994,624.776 615.33,629.319 601.773,637.178C616.078,648.005 629.098,650.963 646.583,646.051C649.484,644.611 652.764,643.069 655.552,641.486C645.828,638.533 639.486,637.516 629.557,635.622C633.729,634.31 636.08,633.575 640.45,632.84C647.843,631.597 657.079,634.231 662.285,628.909C659.798,623.341 644.442,621.858 638.899,622.763ZM870.878,690.971C861.844,692.592 854.724,694.347 847.111,699.7C846.879,705.044 846.557,709.879 847.028,715.235L862.892,713.726C869.1,713.227 883.592,713.152 886.563,707.895C892.353,697.651 879.775,690.078 870.878,690.971ZM678.89,450.04L687.014,452.022C688.362,435.46 690.025,411.609 692.385,395.588C679.79,383.031 662.91,368.845 648.959,356.497C635.756,344.81 616.542,324.397 601.792,316.15C593.097,311.289 576.673,317.636 567.965,321.493C552.902,328.733 538.914,342.417 524.593,351.616C512.582,359.332 498.317,363.684 486.634,370.412C516.078,422.914 563.697,427.098 617.261,436.574C637.438,440.143 658.661,445.836 678.89,450.04ZM591.952,335.731C593.999,336.667 608.587,364.003 611.075,368.284C607.327,366.833 603.194,364.956 599.456,363.363C603.96,371.854 609.134,381.598 614.606,389.392C609.972,388.039 605.262,386.508 600.643,385.068C604.688,393.203 612.214,403.981 617.329,411.856C608.366,411.949 596.934,410.692 587.985,409.585C587.486,413.136 587.875,415.92 586.438,419.207C584.042,420.987 584.071,420.353 580.481,420.08L568.235,417.815C569.352,413.779 569.904,409.413 570.54,405.256C561.469,403.974 551.654,402.157 542.553,400.69C551.689,395.047 561.793,387.39 570.321,380.832L558.35,377.906C564.407,373.087 571.096,366.826 576.945,361.601C572.808,360.97 568.396,360.471 564.224,359.925C574.094,351.67 582.486,344.39 591.952,335.731ZM439.697,656.898C441.234,666.636 460.277,713.834 466.793,724.071C468.066,726.071 476.223,726.154 479.364,726.181C469.1,708.744 458.002,691.969 448.765,673.963C447.238,670.987 441.481,658.83 439.697,656.898ZM276.405,671.023C298.476,686.261 310.329,713.376 309.321,739.693L310.277,740.376C318.709,738.64 316.491,735.061 316.76,727.952C317.346,712.431 313.263,698.878 307.157,684.855C317.412,694.76 320.482,702.605 327.725,714.359C335.785,727.439 355.352,722.54 367.045,718.516C371.949,716.828 381.605,710.074 385.613,710.983L386.238,712.415C385.047,725.129 360.02,745.105 348.61,749.446C351.447,767.096 355.232,784.58 359.951,801.823C349.559,791.868 346.738,788.61 338.136,776.922C335.482,786.196 323.146,829.08 326.109,836.067C328.819,842.454 336.303,844.9 342.2,847.364C343.759,841.71 344.781,838.164 346.988,832.66L367.747,838.218C368.635,834.845 371.164,823.567 374.5,822.724C382.847,820.617 399.579,824.444 402.868,833.594C404.084,836.979 401.885,840.643 400.481,843.645C405.415,845.488 407.801,846.338 412.404,849.103C409.734,856.435 407.604,862.679 405.402,870.156C410.665,871.351 436.338,878.117 440.756,874.936C447.817,869.849 446.54,870.752 455.538,869.773C465.579,849.717 473.938,827.561 484.348,807.558C486.275,803.856 489.023,799.551 487.99,795.571L486.798,795.236C482.232,803.658 479.019,812.349 473.656,820.316C456.835,822.509 439.939,824.085 423.003,825.042C410.527,818.113 388.499,805.891 378.663,796.991C382.094,784.337 387.28,770.102 391.288,757.399C395.884,742.385 400.208,727.289 404.257,712.119C419.843,714.376 434.838,717.242 450.32,720.169C442.88,700.952 435.168,682.245 429.084,662.49C426.91,655.432 424.267,647.747 421.417,640.994C407.076,634.833 387.886,632.483 372.409,631.684C388.225,649.663 390.087,662.093 391.905,684.995C385.764,667.498 376.563,650.488 361.626,639.011C353.691,634.016 346.253,633.53 337.169,635.868C312.787,642.144 287.338,654.46 264.518,665.08C269.17,667.13 272.017,668.45 276.405,671.023ZM882.55,724.072C877.399,724.548 856.683,725.391 853.759,728.189C852.22,735.894 850.695,738.626 846.76,745.502C848.303,746.778 849.993,746.276 852.482,746.28C860.95,745.961 869.038,745.82 877.585,744.805C885.05,743.919 887.272,739.979 888.16,732.815C888.546,729.701 887.885,726.727 885.939,724.302C884.298,723.826 884.281,723.708 882.55,724.072ZM378.741,832.074L376.379,840.611C377.787,841.223 383.907,843.993 385.074,844.073L387.664,834.145C384.816,833.498 381.518,832.826 378.741,832.074ZM560.119,780.245C555.136,780.985 547.256,781.91 543.443,785.106L543.682,786.177C545.861,786.825 546.055,786.686 548.363,786.228C551.381,785.753 563.229,784.119 565.219,783.154C564.88,781.106 565.152,781.836 562.999,780.207L560.119,780.245ZM201.702,1141.34C201.753,1144.94 201.164,1145.97 202.843,1148.66C206.772,1150.05 215.9,1146.28 221.873,1145.21L223.968,1143.79L224.25,1142.34C220.691,1140.86 206.655,1141.58 201.702,1141.34ZM572.791,737.679C563.476,738.215 562.831,741.567 561.905,750.392C562.63,751.36 562.296,751.31 563.124,751.551C570.758,748.344 571.649,746.027 573.998,738.311L573.465,737.567L572.791,737.679ZM412.811,723.511L405.902,745.99C434.666,761.575 434.722,768.9 468.286,762.98C470.975,762.579 474.042,762.05 476.708,761.749C472.054,754.549 463.423,740.506 457.973,734.605C442.854,731.177 427.798,727.478 412.811,723.511ZM445.528,750.408C448.532,749.399 451.79,750.982 452.854,753.966C453.918,756.95 452.395,760.237 449.43,761.355C447.463,762.097 445.249,761.719 443.639,760.367C442.029,759.015 441.275,756.899 441.667,754.834C442.059,752.769 443.535,751.077 445.528,750.408ZM690.012,753.835C650.919,763.546 626.189,857.5 672.896,855.864L673.927,854.797C672.41,853.224 668.216,848.937 667.404,847.131C655.2,819.969 679.817,767.518 705.014,756.749C700.018,755.171 695.341,753.506 690.012,753.835ZM447.776,608.904C442.938,611.34 439.42,612.983 434.341,615.042C449.191,640.481 471.776,678.091 484.211,704.187C490.436,698.719 496.134,693.857 502.621,688.713C507.547,694.263 512.21,700.881 516.647,706.902C520.008,711.825 523.507,716.826 526.792,721.785C528.426,716.131 531.444,708.494 528.06,703.506C519.443,690.808 505.995,678.966 495.382,667.943C483.839,656.015 473.144,643.295 463.374,629.877C460.911,626.459 450.158,609.737 447.776,608.904ZM499.422,891.923C498.485,895.725 497.527,900.075 496.292,903.745L507.144,900.369L510.804,899.462L511.309,898.502C508.575,896.026 503.216,894.068 499.422,891.923ZM473.569,879.316C466.156,879.763 458.693,880.26 451.28,880.617C446.35,893.654 442.152,904.712 438.833,918.303L455.399,915.996C463.71,915.213 472.83,914.171 481.1,914.008C484.713,902.726 489.094,889.909 492.201,878.613C486.552,878.82 479.054,878.864 473.569,879.316ZM474.261,886.818L482.018,886.491C479.917,892.855 477.73,899.19 475.458,905.495C470.122,905.928 463.389,905.972 457.922,906.136L450.106,906.479L456.979,887.59C462.744,887.424 468.505,887.167 474.261,886.818ZM566,487.784C560.171,500.679 556.428,507.818 544.099,515.922C540.791,544.15 543.759,557.364 554.265,583.972C554.756,575.608 555.991,570.139 558.179,561.967C560.891,579.917 564.192,589.948 572.769,606.121C573.596,600.27 574.141,597.342 575.691,591.56C579.574,603.813 584.657,612.076 591.473,622.979C604.478,608.534 616.196,602.165 635.511,600.064C635.538,595.095 635.628,593.031 636.443,588.164C643.5,578.902 659.111,570.894 669.49,578.802C670.693,581.13 670.569,580.127 670.232,582.602C661.678,583.482 652.853,584.465 653.319,597.352C653.384,599.14 654.078,599.593 655.211,600.914C658.444,601.667 662.501,597.114 666.337,596.98C671.249,596.808 676.447,599.239 681.325,598.764C706.581,596.303 673.143,564.736 667.833,556.857C676.03,550.125 678.238,548.325 684.216,539.245C688.085,532.541 689.411,528.598 691.179,521.032C676.742,514.991 662.337,510.31 647.551,505.28C656.08,518.349 663.595,542.369 679.259,527.428C677.026,536.106 676.445,539.609 669.307,545.386L659.612,545.043C646.145,562.074 638.787,571.647 616.127,571.587C624.098,567.754 625.552,566.701 631.527,560.195C626.755,556.233 621.453,551.654 616.557,547.955C624.204,550.111 629.053,551.545 636.378,554.979C634.793,546.39 634.926,543.87 637.718,535.532C636.621,533.622 637.388,534.372 635.137,533.443C629.512,533.863 622.918,545.989 617.415,533.269C612.954,531.891 613.96,534.844 611.436,532.784C612.42,527.08 635.293,526.064 640.505,525.498C636.578,518.378 633.565,513.448 628.084,507.226C617.519,509.567 610.507,510.949 600.731,515.459C608.077,506.911 610.228,503.76 619.995,497.926C602.911,493.77 583.518,489.203 566,487.784ZM432.407,446.562C421.42,447.397 382.815,450.455 375.992,456.96L375.558,458.554C376.724,458.995 420.202,456.391 426.438,456.307C455.3,455.925 484.157,457.323 512.847,460.493C593.607,469.795 655.341,488.897 730.761,515.977C737.942,518.467 766.587,528.924 772.085,529.324L773.293,528.653C770.477,519.752 710.88,497.793 698.61,493.495C614.657,464.089 521.814,441.669 432.407,446.562ZM759.195,1113.96C761.455,1114.87 761.64,1115.45 763.342,1114.85C763.142,1112.7 760.83,1109.57 759.124,1108.43C741.987,1096.99 711.17,1119.35 697.968,1129.25C685.353,1135.94 672.258,1149.27 656.655,1155.32C635.458,1163.54 613.633,1157.89 590.646,1160.23C573.382,1162 562.37,1163.53 545.443,1167.25C546.14,1171.55 546.568,1179.96 546.92,1184.52C556.016,1183.92 586.023,1178.28 595.763,1176.36C594.265,1173.21 592.85,1169.89 591.439,1166.69C607.987,1165.89 636.014,1170.16 649.9,1166.81C687.369,1157.79 719.167,1111.49 759.195,1113.96ZM868.61,795.001C870.4,792.236 871.672,788.271 872.834,785.106C856.038,785.741 843.677,785.86 827.539,781.345C826.121,783.982 824.594,787.684 823.341,790.495C821.924,794.024 821.687,793.122 822.403,796.355C829.252,805.493 853.7,804.082 863.484,801.311C865.24,799.271 867.115,797.227 868.61,795.001ZM615.252,833.011L623.659,834.385C618.161,823.363 612.273,810.853 605.723,800.466C602.702,795.676 601.376,795.512 596.201,794.555C590.504,794.114 587.941,794.413 582.339,794.97C587.001,808.548 591.915,822.037 597.079,835.432C603.777,834.243 608.481,833.578 615.252,833.011ZM402.789,755.594C398.192,767.57 394.377,780.039 390.102,792.166C402.393,800.336 413.754,806.203 425.493,813.715C432.791,812.673 463.132,811.776 466.985,808.861C470.779,800.053 478.481,783.216 480.782,774.443C465.741,773.63 456.178,777.023 442.461,778.006C429.526,771.491 415.702,762.614 402.789,755.594ZM353.869,846.007C351.81,853.774 348.701,864.718 347.616,872.668C349.986,878.509 350.762,879.305 356.548,882.035C360.195,883.755 371.199,885.622 373.466,881.778C376.334,872.829 379.059,863.836 381.64,854.801C372.597,851.232 363.318,848.294 353.869,846.007ZM360.525,865.502C364.279,865.075 367.783,864.562 369.447,868.363C369.062,870.959 368.196,871.576 366.477,873.563C362.315,874.164 359.955,874.184 357.78,870.437C358.312,867.159 357.849,868.403 360.525,865.502ZM608.08,1021.81C603.625,1022.22 599.766,1022.47 595.386,1023.51L596.653,1034.48C604.793,1033.99 612.739,1033.32 620.877,1034.1C623.814,1034.33 627.013,1034.48 629.899,1034.96L631.804,1025.1C623.612,1022.65 616.862,1020.75 608.08,1021.81ZM143.064,1151.52C144.574,1177.3 160.099,1204.55 187.148,1209.81C212.265,1214.7 239.14,1211.97 264.282,1208.57C267.161,1208.18 268.492,1206.82 269.876,1204.62C269.938,1202.32 270.283,1202.71 269.24,1201.13C263.465,1200.85 257.704,1202.95 252.433,1203.39C229.265,1205.33 190.681,1210.65 171.231,1195.57C154.177,1182.35 147.367,1165.63 144.521,1145.67L143.45,1133.53C142.649,1139.63 141.989,1145.37 143.064,1151.52ZM497.738,809.867C496.491,812.601 495.128,815.398 494.144,818.225C495.848,828.211 498.295,846.97 501.54,855.823C501.816,855.84 502.507,855.942 502.676,855.832C504.084,854.246 505.66,852.372 507.105,850.865C505.806,845.567 499.373,811.559 497.738,809.867ZM612.347,1065.22C609.103,1065.74 608.665,1065.31 606.245,1067.19C605.602,1069.81 607.442,1073.48 608.489,1076.26L617.109,1072.89C620.801,1072.35 625.674,1072.09 625.034,1067.15C621.649,1063.61 616.949,1064.45 612.347,1065.22ZM571.391,711.393C569.883,718.366 568.433,725.246 566.631,732.151L575.892,730.914C577.746,728.055 578.519,722.082 579.127,718.492C576.862,716.278 573.868,713.184 571.391,711.393ZM206.757,1097.72C205.654,1100.5 203.385,1104.82 204.877,1107.64C207.819,1113.21 218.529,1114.86 224.336,1116.47L224.579,1115.54L223.919,1114.97C218.229,1110.02 212.322,1103.2 206.757,1097.72ZM472.352,733.377C475.651,737.337 486.739,753.254 489.387,754.234L491.091,754.006C491.753,749.628 484.926,739.044 482.713,734.282L472.352,733.377ZM625.354,1083.92C621.987,1085.11 618.402,1086.3 615.088,1087.57C617.152,1090.24 619.334,1093.75 622.323,1094.93C624.519,1094.38 623.944,1094.42 625.829,1092.65L626.581,1092.18C629.762,1090.18 634.605,1088.8 635.785,1087.08C633.745,1083.5 629.037,1083.57 625.354,1083.92ZM628.667,847.116C624.504,843.781 622.158,843.677 616.99,842.794C605.551,842.963 582.658,843.511 583.671,859.846L584.332,860.304C594.919,852.49 605.485,849.089 618.784,850.839C625.965,851.784 629.179,855.694 627.029,863.047C622.315,877.189 602.839,886.835 588.644,882.621C582.153,880.69 579.627,877.236 577.424,871.14L577.167,870.443C577.118,870.302 577.069,870.162 577.02,870.021L572.537,880.082C599.031,901.686 651.301,868.905 628.667,847.116ZM518.133,784.915C524.019,783.852 527.118,783.795 533.031,783.647C529.543,771.347 524.184,774.011 512.977,774.92C507.253,775.91 503.39,776.566 498.047,779.164L501.243,790.964C509.112,785.751 510.431,787.083 518.133,784.915ZM593.361,681.614C593.706,710.12 592.851,720.454 585.298,748.181C590.879,752.877 592.459,755.004 596.085,761.341C602.763,746.491 605.601,736.133 609.631,720.247C611.114,744.45 609.524,748.86 602.31,771.92L605.455,777.405C607.243,780.175 609.54,783.963 611.445,786.531C622.243,762.529 628.262,752.824 649.508,736.799C633.944,726.342 621.939,713.737 609.558,699.836C605.78,695.594 597.208,684.682 593.361,681.614ZM502.438,708.545C497.725,713.018 496.698,713.521 491.355,716.895C494.475,727.215 499.201,738.281 501.934,748.183C505.322,747.591 509.228,746.809 512.608,746.516C521.364,745.726 519.677,741.74 523.422,734.626C517.246,727.942 506.442,712.389 502.438,708.545ZM195.274,1191.99C216.418,1196 243.365,1192.14 264.82,1188.77C263.894,1179.9 263.607,1174.85 258.964,1167.27C252.871,1160.07 243.167,1158.18 234.112,1157.9C221.917,1155.84 192.929,1159.74 180.417,1161.41C184.895,1157.04 188.059,1155.35 193.631,1152.62C191.76,1147.68 190.915,1144.04 190.372,1138.84C184.587,1138.06 175.109,1137.36 174.088,1129.9C177.377,1124.06 183.722,1126.62 189.059,1127.86C189.472,1123.65 190.034,1119.32 190.525,1115.1C186.371,1113.03 182.101,1111.64 180.444,1107.36C180.113,1104.58 181.193,1103.32 182.615,1100.94C188.017,1099.08 188.672,1101.08 192.976,1104.68C194.714,1097.61 196.328,1092.06 199.543,1085.4C193.14,1069.6 193.075,1062.49 194.517,1045.94C181.247,1045.91 175.188,1048.65 161.04,1047.73C157.475,1061.44 157.947,1069.24 158.173,1082.98C158.706,1115.39 147.044,1155.44 173.453,1181.44C177.953,1185.87 184.293,1189.37 190.569,1190.94C192.129,1191.33 193.698,1191.68 195.274,1191.99ZM611.386,859.061C604.832,859.719 588.834,863.221 588.305,871.198C590.036,873.459 591.072,873.527 593.955,874.665C601.529,874.481 615.66,869.763 617.658,861.798C616.37,858.725 614.632,859.214 611.386,859.061ZM606.811,1045.62C605.023,1048.15 604.852,1049.3 604.073,1052.21C605.501,1058.38 618.537,1054.77 625.477,1055.82L626.942,1055.46C628.106,1052.64 628.201,1049.84 628.504,1046.81C620.171,1045.62 615.445,1045.06 606.811,1045.62ZM582.511,1025.39C571.902,1027.79 562.32,1030.47 551.872,1033.42C551.795,1036.75 551.374,1044.51 552.034,1047.39C553.394,1047.73 552.882,1047.89 553.797,1047.41C566.18,1042.16 572.654,1039.7 585.596,1036.48C585.1,1033.55 584.625,1026.75 582.783,1025.42L582.511,1025.39ZM808.855,784.927C810.975,779.492 812.323,775.943 815.137,770.792C810.594,763.893 809.434,765.85 801.452,767.825C807.372,760.563 811.064,755.163 815.169,746.642C811.151,743.804 808.655,742.282 806.58,737.614C802.883,729.3 803.326,716.619 808.795,709.176C809.51,708.209 810.246,707.258 811.003,706.324C811.4,717.156 813.579,724.889 818.548,734.614C829.286,741.797 843.403,740.116 839.491,723.458C838.623,719.765 834.697,715.36 833.678,711.504C830.814,703.716 834.03,696.899 825.364,692.671C824.163,692.095 822.946,691.554 821.714,691.049C813.973,692.94 794.761,696.17 791.638,703.194C783.503,721.489 786.588,746.02 788.414,765.436C788.591,767.32 788.051,768.171 787.037,769.562C781.651,770.079 774.895,758.424 772.6,754.171C758.147,757.891 717.708,765.696 707.019,772.883C700.514,777.258 695.727,783.901 691.804,790.582C688.128,796.967 685.031,803.668 682.549,810.605C675.195,834.255 677.998,856.068 708.499,848.61C734.764,842.187 780.856,811.79 795.6,789.741C796.56,792.542 797.797,795.275 798.973,797.995C800.809,799.394 803.302,800.753 805.325,801.946C807.508,796.148 808.021,791.064 808.855,784.927ZM572.201,800.221C570.169,795.21 570.6,794.037 565.11,793.216C561.922,794.663 552.552,795.658 548.559,796.217L552.684,803.295C556.506,803.292 560.652,803.203 564.442,803.307C567.926,806.587 568.984,808.472 573.959,808.117C575.907,805.894 573.823,802.357 572.201,800.221ZM592.859,785.163C594.589,785.403 594.483,785.436 596.165,785C596.247,782.303 595.222,781.311 593.355,779.482C589.358,775.567 587.728,775.782 582.344,775.99C579.737,776.362 577.02,776.668 574.481,777.324L578.148,786.175C584.077,785.021 586.803,785.088 592.859,785.163ZM315.074,760.619C310.768,761.807 307.654,762.703 303.502,764.302C294.487,775.409 288.972,781.007 274.66,785.169C273.254,793.629 271.602,802.598 270.651,811.077L282.645,813.225C292.167,815.352 298.27,816.452 307.188,820.567C312.012,803.886 316.531,789.833 317.146,772.341C317.275,768.651 318.244,764.526 317.207,761.015C315.775,760.416 316.489,760.429 315.074,760.619ZM488.122,568.773C484.561,568.802 483.711,568.278 480.988,571.337C473.653,579.576 470.482,587.506 463.025,596.053C466.731,602.173 472.373,611.941 476.577,617.406C477.619,619.691 482.468,626.236 484.055,628.457C498.28,648.363 515.236,665.472 531.219,683.95C537.727,670.704 543.567,664.227 550.408,652.23C545.914,647.594 541.364,643.011 536.761,638.483L536.257,650.392C531.431,645.679 526.873,640.569 522.539,635.403C515.954,627.554 507.661,618 504.857,608C500.976,594.157 511.714,526.513 513.443,506.923C506.633,495.549 498.719,483.101 483.991,482.071C466.982,481.023 457.944,498.315 457.457,513.115C456.864,531.122 464.987,549.691 482.463,556.607C486.67,558.273 494.178,559.311 497.044,562.445C497.594,567.304 491.913,568.401 488.122,568.773ZM474.463,496.721C496.393,495.353 499.79,507.895 505.638,526.381C501.285,522.833 495.794,518.577 491.013,523.586C489.346,528.103 490.671,531.623 492.06,536.039C491.692,536.505 491.491,536.437 490.773,536.724C486.642,535.141 478.559,528.329 478.433,523.52C478.285,517.902 485.66,514.735 489.289,511.3C489.208,509.694 489.1,508.972 487.603,507.741C477.868,499.736 476.151,506.234 469.249,506.866L468.675,505.66C469.749,500.51 470.091,499.647 474.463,496.721ZM664.153,741.996C639.435,762.497 630.842,775.543 621.447,805.202C626.239,814.936 630.954,824.706 635.594,834.513L637.011,837.347L637.691,837.053C637.556,832.949 636.4,829.114 636.557,825.089C637.911,790.382 647.052,768.356 672.82,744.63L664.153,741.996ZM147.399,1049.23C144.41,1049.97 142.433,1050.19 140.163,1052.33C136.041,1059.45 138.331,1083.2 139.368,1091.77C139.662,1094.2 142.148,1094.64 144.239,1095.27L147.442,1095.97L148.421,1095.25C149.215,1086.99 147.457,1075.97 147.649,1067.56C147.774,1062.06 149.813,1056.25 149.803,1050.1C148.529,1048.92 149.283,1049.26 147.399,1049.23ZM761.17,1153.5C753.077,1161.34 747.888,1164.7 737.983,1170.3C736.36,1177.45 725.931,1212.58 727.884,1216.36L728.582,1216.76C735.029,1218.06 738.354,1218.04 744.885,1218.01C750.018,1203.76 753.35,1188.38 756.904,1173.65C757.834,1169.8 760.926,1157 761.17,1153.5ZM313.357,890.789C303.443,913.748 293.09,934.037 285.976,958.283C296.131,956.714 301.722,955.32 311.348,951.786C322.305,946.315 328.069,941.93 336.214,932.275C338.521,929.541 342.307,924.759 344.855,922.47C335.184,914.755 333.304,909.522 332.964,897.261C325.95,894.528 320.613,892.887 313.357,890.789ZM599.587,447.886C601.873,448.838 612.651,452.301 614.378,452.523C624.238,453.794 679.459,474.906 683.711,473.691C684.366,470.952 685.276,468.737 684.345,466.213C678.146,463.235 607.409,447.708 599.587,447.886ZM829.939,752.688C825.685,760.753 821.495,767.614 833.522,771.521C844.597,775.12 869.231,776.308 880.146,773.476C883.383,770.563 884.125,767.638 884.3,763.427C884.376,761.59 883.949,759.947 882.57,758.651C876.238,752.702 845.511,763.519 829.939,752.688ZM861.372,674.761C862.639,674.334 865.956,673.34 866.285,672.269C867.855,667.165 869.274,660.027 870.318,655.005C873.146,641.458 875.884,627.892 878.532,614.308C885.452,579.086 885.307,569.429 911.902,543.515C913.582,536.325 915.249,522.259 916.417,514.362C909.758,517.494 904.278,519.573 898.18,523.807C900.508,489.879 910.762,455.562 918.249,422.536C918.811,420.056 918.918,420.037 917.718,418.036C914.411,417.223 910.512,415.981 907.22,416.396C903.572,419.946 882.353,533.151 879.368,546.188C881.838,545.067 886.519,542.5 888.86,542.901L888.819,543.811C883.825,559.925 876.351,572.656 871.628,589.708C863.593,618.716 859.177,650.506 851.697,679.206L861.372,674.761ZM390.717,858.015C386.595,872.134 376.868,903.698 374.622,917.267L375.262,918.222C377.435,917.728 377.819,917.566 379.788,916.516C383.096,914.388 383.194,914.783 384.105,910.482C386.273,900.25 388.042,889.891 390.56,879.734C392.284,872.78 395.418,865.842 396.59,858.83C395.191,857.686 392.794,857.988 390.717,858.015ZM575.763,766.831C579.229,766.108 582.256,766.257 585.786,766.267C583.501,762.35 582.604,760.456 579.307,757.396C568.481,757.398 561.516,758.227 557.102,769.385C562.766,769.261 570.834,769.477 575.763,766.831ZM323.91,857.91C322.795,863.58 321.415,871.848 319.966,877.232C326.153,879.158 329.274,880.328 335.16,883.016C335.72,876.611 336.625,869.405 338.218,863.169C333.673,861.554 328.281,859.79 323.91,857.91ZM403.128,882.797C401.104,890.226 399.041,897.644 396.938,905.051L429.996,907.99C432.055,901.797 434.74,894.383 436.5,888.204C425.768,887.282 413.72,884.896 403.128,882.797ZM795.711,814.465C771.116,837.101 722.702,873.519 686.936,864.615C672.102,874.946 657.703,872.742 643.52,862.109C637.218,896.115 589.675,909.691 563.567,886.891C555.251,891.754 550.784,893.747 541.574,896.931C580.103,905.159 645.144,917.099 652.483,963.972C653.156,968.267 653.659,975.542 653.058,979.684C652.14,991.358 649.315,1004.79 644.591,1015.54C651.044,1033.92 646.782,1033.35 643.681,1051.88C643.07,1055.53 644.086,1067.53 644.431,1071.93C650.941,1077.26 657.48,1082.55 664.048,1087.81C688.844,1066.13 714.147,1050.09 747.223,1068.02L781.476,911.237L794.605,851.111C796.772,841.189 799.099,828.784 801.678,819.226L795.711,814.465Z" style="fill:rgb(0,45,61);"  data-color="color-2"/>
        <path d="M277.052,905.625C270.585,902.587 262.901,894.867 254.908,890.386C257.264,894.22 264.845,904.514 258.642,907.046C250.487,906.536 239.041,895.444 231.799,890.042C233.55,893.472 238.454,901.055 236.966,904.411C230.054,907.708 221.785,897.416 214.397,895.953C210.574,897.499 213.827,898.644 209.729,901.495C201.558,902.113 193.405,894.026 191.844,886.261C187.505,864.676 189.199,842.363 200.25,822.968C193.319,801.107 170.315,736.614 178.247,717.294C181.033,710.508 187.313,706.695 193.789,703.984C222.761,697.352 257.113,709.093 264.291,740.516C265.773,747.139 265.98,753.984 264.9,760.684C262.96,773.359 247.411,814.645 261.226,822.128C276.487,830.395 301.8,826.127 305.842,850.693C307.239,859.184 310.752,876.104 302.3,881.834C294.487,882.317 293.329,860.539 291.24,853.841C288.639,859.532 285.762,865.54 283.301,871.254C286.673,880.091 300.916,906.883 285.032,907.588C281.116,907.762 280.483,907.445 277.052,905.625ZM808.855,784.927C808.021,791.064 807.508,796.148 805.325,801.946C803.302,800.753 800.809,799.394 798.973,797.995C797.797,795.275 796.56,792.542 795.6,789.741C780.856,811.79 734.764,842.187 708.499,848.61C677.998,856.068 675.195,834.255 682.549,810.605C685.031,803.668 688.128,796.967 691.804,790.582C695.727,783.901 700.514,777.258 707.019,772.883C717.708,765.696 758.147,757.891 772.6,754.171C774.895,758.424 781.651,770.079 787.037,769.562C788.051,768.171 788.591,767.32 788.414,765.436C786.588,746.02 783.503,721.489 791.638,703.194C794.761,696.17 813.973,692.94 821.714,691.049C822.946,691.554 824.163,692.095 825.364,692.671C834.03,696.899 830.814,703.716 833.678,711.504C834.697,715.36 838.623,719.765 839.491,723.458C843.403,740.116 829.286,741.797 818.548,734.614C813.579,724.889 811.4,717.156 811.003,706.324C810.246,707.258 809.51,708.209 808.795,709.176C803.326,716.619 802.883,729.3 806.58,737.614C808.655,742.282 811.151,743.804 815.169,746.642C811.064,755.163 807.372,760.563 801.452,767.825C809.434,765.85 810.594,763.893 815.137,770.792C812.323,775.943 810.975,779.492 808.855,784.927ZM488.122,568.773C491.913,568.401 497.594,567.304 497.044,562.445C494.178,559.311 486.67,558.273 482.463,556.607C464.987,549.691 456.864,531.122 457.457,513.115C457.944,498.315 466.982,481.023 483.991,482.071C498.719,483.101 506.633,495.549 513.443,506.923C511.714,526.513 500.976,594.157 504.857,608C507.661,618 515.954,627.554 522.539,635.403C526.873,640.569 531.431,645.679 536.257,650.392L536.761,638.483C541.364,643.011 545.914,647.594 550.408,652.23C543.567,664.227 537.727,670.704 531.219,683.95C515.236,665.472 498.28,648.363 484.055,628.457C482.468,626.236 477.619,619.691 476.577,617.406C472.373,611.941 466.731,602.173 463.025,596.053C470.482,587.506 473.653,579.576 480.988,571.337C483.711,568.278 484.561,568.802 488.122,568.773ZM474.463,496.721C470.091,499.647 469.749,500.51 468.675,505.66L469.249,506.866C476.151,506.234 477.868,499.736 487.603,507.741C489.1,508.972 489.208,509.694 489.289,511.3C485.66,514.735 478.285,517.902 478.433,523.52C478.559,528.329 486.642,535.141 490.773,536.724C491.491,536.437 491.692,536.505 492.06,536.039C490.671,531.623 489.346,528.103 491.013,523.586C495.794,518.577 501.285,522.833 505.638,526.381C499.79,507.895 496.393,495.353 474.463,496.721ZM868.61,795.001C867.115,797.227 865.24,799.271 863.484,801.311C853.7,804.082 829.252,805.493 822.403,796.355C821.687,793.122 821.924,794.024 823.341,790.495C824.594,787.684 826.121,783.982 827.539,781.345C843.677,785.86 856.038,785.741 872.834,785.106C871.672,788.271 870.4,792.236 868.61,795.001ZM566,487.784C583.518,489.203 602.911,493.77 619.995,497.926C610.228,503.76 608.077,506.911 600.731,515.459C610.507,510.949 617.519,509.567 628.084,507.226C633.565,513.448 636.578,518.378 640.505,525.498C635.293,526.064 612.42,527.08 611.436,532.784C613.96,534.844 612.954,531.891 617.415,533.269C622.918,545.989 629.512,533.863 635.137,533.443C637.388,534.372 636.621,533.622 637.718,535.532C634.926,543.87 634.793,546.39 636.378,554.979C629.053,551.545 624.204,550.111 616.557,547.955C621.453,551.654 626.755,556.233 631.527,560.195C625.552,566.701 624.098,567.754 616.127,571.587C638.787,571.647 646.145,562.074 659.612,545.043L669.307,545.386C676.445,539.609 677.026,536.106 679.259,527.428C663.595,542.369 656.08,518.349 647.551,505.28C662.337,510.31 676.742,514.991 691.179,521.032C689.411,528.598 688.085,532.541 684.216,539.245C678.238,548.325 676.03,550.125 667.833,556.857C673.143,564.736 706.581,596.303 681.325,598.764C676.447,599.239 671.249,596.808 666.337,596.98C662.501,597.114 658.444,601.667 655.211,600.914C654.078,599.593 653.384,599.14 653.319,597.352C652.853,584.465 661.678,583.482 670.232,582.602C670.569,580.127 670.693,581.13 669.49,578.802C659.111,570.894 643.5,578.902 636.443,588.164C635.628,593.031 635.538,595.095 635.511,600.064C616.196,602.165 604.478,608.534 591.473,622.979C584.657,612.076 579.574,603.813 575.691,591.56C574.141,597.342 573.596,600.27 572.769,606.121C564.192,589.948 560.891,579.917 558.179,561.967C555.991,570.139 554.756,575.608 554.265,583.972C543.759,557.364 540.791,544.15 544.099,515.922C556.428,507.818 560.171,500.679 566,487.784ZM829.939,752.688C845.511,763.519 876.238,752.702 882.57,758.651C883.949,759.947 884.376,761.59 884.3,763.427C884.125,767.638 883.383,770.563 880.146,773.476C869.231,776.308 844.597,775.12 833.522,771.521C821.495,767.614 825.685,760.753 829.939,752.688ZM638.899,622.763C644.442,621.858 659.798,623.341 662.285,628.909C657.079,634.231 647.843,631.597 640.45,632.84C636.08,633.575 633.729,634.31 629.557,635.622C639.486,637.516 645.828,638.533 655.552,641.486C652.764,643.069 649.484,644.611 646.583,646.051C629.098,650.963 616.078,648.005 601.773,637.178C615.33,629.319 622.994,624.776 638.899,622.763ZM870.878,690.971C879.775,690.078 892.353,697.651 886.563,707.895C883.592,713.152 869.1,713.227 862.892,713.726L847.028,715.235C846.557,709.879 846.879,705.044 847.111,699.7C854.724,694.347 861.844,692.592 870.878,690.971ZM882.55,724.072C884.281,723.708 884.298,723.826 885.939,724.302C887.885,726.727 888.546,729.701 888.16,732.815C887.272,739.979 885.05,743.919 877.585,744.805C869.038,745.82 860.95,745.961 852.482,746.28C849.993,746.276 848.303,746.778 846.76,745.502C850.695,738.626 852.22,735.894 853.759,728.189C856.683,725.391 877.399,724.548 882.55,724.072ZM567.965,321.493C576.673,317.636 593.097,311.289 601.792,316.15C616.542,324.397 635.756,344.81 648.959,356.497C662.91,368.845 679.79,383.031 692.385,395.588C690.025,411.609 688.362,435.46 687.014,452.022L678.89,450.04C679.381,434.214 681.206,411.378 683.422,395.753C673.101,388.724 664.514,385.847 653.9,377.179C633.502,360.623 620.116,336.157 596.727,323.39C588.778,319.051 574.036,324.182 567.965,321.493Z" style="fill:rgb(249,213,171);"/>
        <path d="M541.714,860.392C545.412,860.241 549.597,859.202 551.572,862.648C550.499,869.19 539.56,873.193 534.005,874.643C528.387,874.643 526.427,873.923 521.089,872.146C527.891,864.757 531.996,862.622 541.714,860.392ZM611.386,859.061C614.632,859.214 616.37,858.725 617.658,861.798C615.66,869.763 601.529,874.481 593.955,874.665C591.072,873.527 590.036,873.459 588.305,871.198C588.834,863.221 604.832,859.719 611.386,859.061Z" style="fill:rgb(25,121,133);"/>
        <path d="M770.885,1093.86C766.366,1091.26 765.039,1090.39 761.153,1086.97C762.137,1068.97 772.618,1025.64 778.15,1007.06C781.626,995.388 789.217,980.97 793.416,965.365L784.351,970.823C788.644,956.042 793.131,932.822 796.619,917.271C804.874,881.729 812.684,846.084 820.05,810.347C825.338,813.719 827.974,814.325 834.031,815.981C831.861,826.962 829.588,837.923 827.21,848.861C820.013,879.464 814.276,910.392 810.019,941.541C814.79,937.062 819.037,933.242 824.051,929.04C822.745,933.661 821.243,939.617 819.679,944.049L818.086,949.793C817.026,955.293 807.842,965.608 804.956,971.549C793.324,995.495 789.05,1023.55 782.117,1049.19C778.469,1062.68 777.774,1081.01 772.916,1093.62C771.519,1094.14 772.193,1094.17 770.885,1093.86ZM861.372,674.761L851.697,679.206C859.177,650.506 863.593,618.716 871.628,589.708C876.351,572.656 883.825,559.925 888.819,543.811L888.86,542.901C886.519,542.5 881.838,545.067 879.368,546.188C882.353,533.151 903.572,419.946 907.22,416.396C910.512,415.981 914.411,417.223 917.718,418.036C918.918,420.037 918.811,420.056 918.249,422.536C910.762,455.562 900.508,489.879 898.18,523.807C904.278,519.573 909.758,517.494 916.417,514.362C915.249,522.259 913.582,536.325 911.902,543.515C885.307,569.429 885.452,579.086 878.532,614.308C875.884,627.892 873.146,641.458 870.318,655.005C869.274,660.027 867.855,667.165 866.285,672.269C865.956,673.34 862.639,674.334 861.372,674.761ZM577.092,1149.19C566.537,1150.43 554.989,1152.91 544.609,1155.22C542.599,1128.92 545.333,1117.94 558.257,1095.26C549.604,1082.41 551.321,1077.78 551.211,1061.96C557.351,1057.75 561.541,1055.78 568.204,1052.93C576.246,1049.78 581.108,1048.45 589.782,1046.85C590.348,1050.58 590.952,1055.55 591.728,1059.15C588.724,1060.62 582.945,1063.04 582.586,1066.4C581.47,1076.84 588.436,1075.15 593.699,1070.2C595.79,1074.75 597.264,1078.03 599.92,1082.32C591.888,1089.44 587.155,1091.59 597.059,1099.46C599.575,1097.21 602.529,1094.4 605.315,1092.61C609.578,1096.29 613.754,1100.28 617.984,1103.87C616.002,1108.43 614.568,1110.89 616.049,1115.82C620.411,1120.42 624.794,1115.49 626.343,1110.83C627.227,1110.01 635.553,1108.27 638.472,1106.94C635.938,1105.62 635.384,1105.88 634.184,1103.66L634.958,1101.68C639.778,1097.53 647.53,1096.97 652.824,1100.68C653.426,1101.46 654.417,1102.36 654.259,1103.05C652.934,1108.75 650.448,1114.52 648.73,1120.32C653.536,1116.94 657.591,1112.62 661.646,1109.75C667.11,1104.85 672.71,1100.11 678.438,1095.53C696.636,1081.09 724.501,1064.91 742.711,1088.05C743.842,1089.57 744.358,1089.64 744.174,1090.99C732.168,1092.44 731.841,1092.53 721.157,1098.43C696.396,1112.09 676.987,1134.9 650.411,1144.99C631.186,1151.45 599.071,1145.87 577.092,1149.19ZM195.274,1191.99C193.698,1191.68 192.129,1191.33 190.569,1190.94C184.293,1189.37 177.953,1185.87 173.453,1181.44C147.044,1155.44 158.706,1115.39 158.173,1082.98C157.947,1069.24 157.475,1061.44 161.04,1047.73C175.188,1048.65 181.247,1045.91 194.517,1045.94C193.075,1062.49 193.14,1069.6 199.543,1085.4C196.328,1092.06 194.714,1097.61 192.976,1104.68C188.672,1101.08 188.017,1099.08 182.615,1100.94C181.193,1103.32 180.113,1104.58 180.444,1107.36C182.101,1111.64 186.371,1113.03 190.525,1115.1C190.034,1119.32 189.472,1123.65 189.059,1127.86C183.722,1126.62 177.377,1124.06 174.088,1129.9C175.109,1137.36 184.587,1138.06 190.372,1138.84C190.915,1144.04 191.76,1147.68 193.631,1152.62C188.059,1155.35 184.895,1157.04 180.417,1161.41C192.929,1159.74 221.917,1155.84 234.112,1157.9C243.167,1158.18 252.871,1160.07 258.964,1167.27C263.607,1174.85 263.894,1179.9 264.82,1188.77C243.365,1192.14 216.418,1196 195.274,1191.99ZM759.195,1113.96C719.167,1111.49 687.369,1157.79 649.9,1166.81C636.014,1170.16 607.987,1165.89 591.439,1166.69C592.85,1169.89 594.265,1173.21 595.763,1176.36C586.023,1178.28 556.016,1183.92 546.92,1184.52C546.568,1179.96 546.14,1171.55 545.443,1167.25C562.37,1163.53 573.382,1162 590.646,1160.23C613.633,1157.89 635.458,1163.54 656.655,1155.32C672.258,1149.27 685.353,1135.94 697.968,1129.25C711.17,1119.35 741.987,1096.99 759.124,1108.43C760.83,1109.57 763.142,1112.7 763.342,1114.85C761.64,1115.45 761.455,1114.87 759.195,1113.96ZM207.81,1130.6C205.17,1130.33 204.576,1130.43 202.312,1129.21C200.876,1126.34 201.546,1124.48 201.69,1120.88L209.682,1123.52C213.551,1124.57 223.555,1126.05 225.455,1126.97L225.691,1128.9C222.792,1132.24 212.348,1130.84 207.81,1130.6ZM599.587,447.886C607.409,447.708 678.146,463.235 684.345,466.213C685.276,468.737 684.366,470.952 683.711,473.691C679.459,474.906 624.238,453.794 614.378,452.523C612.651,452.301 601.873,448.838 599.587,447.886ZM473.569,879.316C479.054,878.864 486.552,878.82 492.201,878.613C489.094,889.909 484.713,902.726 481.1,914.008C472.83,914.171 463.71,915.213 455.399,915.996L438.833,918.303C442.152,904.712 446.35,893.654 451.28,880.617C458.693,880.26 466.156,879.763 473.569,879.316ZM474.261,886.818C468.505,887.167 462.744,887.424 456.979,887.59L450.106,906.479L457.922,906.136C463.389,905.972 470.122,905.928 475.458,905.495C477.73,899.19 479.917,892.855 482.018,886.491L474.261,886.818ZM206.757,1097.72C212.322,1103.2 218.229,1110.02 223.919,1114.97L224.579,1115.54L224.336,1116.47C218.529,1114.86 207.819,1113.21 204.877,1107.64C203.385,1104.82 205.654,1100.5 206.757,1097.72ZM608.08,1021.81C616.862,1020.75 623.612,1022.65 631.804,1025.1L629.899,1034.96C627.013,1034.48 623.814,1034.33 620.877,1034.1C612.739,1033.32 604.793,1033.99 596.653,1034.48L595.386,1023.51C599.766,1022.47 603.625,1022.22 608.08,1021.81ZM606.811,1045.62C615.445,1045.06 620.171,1045.62 628.504,1046.81C628.201,1049.84 628.106,1052.64 626.942,1055.46L625.477,1055.82C618.537,1054.77 605.501,1058.38 604.073,1052.21C604.852,1049.3 605.023,1048.15 606.811,1045.62ZM612.347,1065.22C616.949,1064.45 621.649,1063.61 625.034,1067.15C625.674,1072.09 620.801,1072.35 617.109,1072.89L608.489,1076.26C607.442,1073.48 605.602,1069.81 606.245,1067.19C608.665,1065.31 609.103,1065.74 612.347,1065.22ZM625.354,1083.92C629.037,1083.57 633.745,1083.5 635.785,1087.08C634.605,1088.8 629.762,1090.18 626.581,1092.18L625.829,1092.65C623.944,1094.42 624.519,1094.38 622.323,1094.93C619.334,1093.75 617.152,1090.24 615.088,1087.57C618.402,1086.3 621.987,1085.11 625.354,1083.92ZM201.702,1141.34C206.655,1141.58 220.691,1140.86 224.25,1142.34L223.968,1143.79L221.873,1145.21C215.9,1146.28 206.772,1150.05 202.843,1148.66C201.164,1145.97 201.753,1144.94 201.702,1141.34ZM143.064,1151.52C141.989,1145.37 142.649,1139.63 143.45,1133.53L144.521,1145.67C147.367,1165.63 154.177,1182.35 171.231,1195.57C190.681,1210.65 229.265,1205.33 252.433,1203.39C257.704,1202.95 263.465,1200.85 269.24,1201.13C270.283,1202.71 269.938,1202.32 269.876,1204.62C268.492,1206.82 267.161,1208.18 264.282,1208.57C239.14,1211.97 212.265,1214.7 187.148,1209.81C160.099,1204.55 144.574,1177.3 143.064,1151.52ZM761.17,1153.5C760.926,1157 757.834,1169.8 756.904,1173.65C753.35,1188.38 750.018,1203.76 744.885,1218.01C738.354,1218.04 735.029,1218.06 728.582,1216.76L727.884,1216.36C725.931,1212.58 736.36,1177.45 737.983,1170.3C747.888,1164.7 753.077,1161.34 761.17,1153.5ZM403.128,882.797C413.72,884.896 425.768,887.282 436.5,888.204C434.74,894.383 432.055,901.797 429.996,907.99L396.938,905.051C399.041,897.644 401.104,890.226 403.128,882.797ZM439.697,656.898C441.481,658.83 447.238,670.987 448.765,673.963C458.002,691.969 469.1,708.744 479.364,726.181C476.223,726.154 468.066,726.071 466.793,724.071C460.277,713.834 441.234,666.636 439.697,656.898ZM147.399,1049.23C149.283,1049.26 148.529,1048.92 149.803,1050.1C149.813,1056.25 147.774,1062.06 147.649,1067.56C147.457,1075.97 149.215,1086.99 148.421,1095.25L147.442,1095.97L144.239,1095.27C142.148,1094.64 139.662,1094.2 139.368,1091.77C138.331,1083.2 136.041,1059.45 140.163,1052.33C142.433,1050.19 144.41,1049.97 147.399,1049.23ZM582.511,1025.39L582.783,1025.42C584.625,1026.75 585.1,1033.55 585.596,1036.48C572.654,1039.7 566.18,1042.16 553.797,1047.41C552.882,1047.89 553.394,1047.73 552.034,1047.39C551.374,1044.51 551.795,1036.75 551.872,1033.42C562.32,1030.47 571.902,1027.79 582.511,1025.39ZM323.91,857.91C328.281,859.79 333.673,861.554 338.218,863.169C336.625,869.405 335.72,876.611 335.16,883.016C329.274,880.328 326.153,879.158 319.966,877.232C321.415,871.848 322.795,863.58 323.91,857.91ZM571.391,711.393C573.868,713.184 576.862,716.278 579.127,718.492C578.519,722.082 577.746,728.055 575.892,730.914L566.631,732.151C568.433,725.246 569.883,718.366 571.391,711.393ZM472.352,733.377L482.713,734.282C484.926,739.044 491.753,749.628 491.091,754.006L489.387,754.234C486.739,753.254 475.651,737.337 472.352,733.377ZM572.791,737.679L573.465,737.567L573.998,738.311C571.649,746.027 570.758,748.344 563.124,751.551C562.296,751.31 562.63,751.36 561.905,750.392C562.831,741.567 563.476,738.215 572.791,737.679ZM499.422,891.923C503.216,894.068 508.575,896.026 511.309,898.502L510.804,899.462L507.144,900.369L496.292,903.745C497.527,900.075 498.485,895.725 499.422,891.923ZM560.119,780.245L562.999,780.207C565.152,781.836 564.88,781.106 565.219,783.154C563.229,784.119 551.381,785.753 548.363,786.228C546.055,786.686 545.861,786.825 543.682,786.177L543.443,785.106C547.256,781.91 555.136,780.985 560.119,780.245Z" style="fill:rgb(206,118,12);"  data-color="color-3"/>
        <path d="M234.112,1157.9C243.167,1158.18 252.871,1160.07 258.964,1167.27C237.118,1164.32 227.125,1167.72 203.795,1161.41C214.09,1160.9 217.532,1160.79 227.638,1158.9L225.517,1158.93C227.799,1158.07 231.55,1158.06 234.112,1157.9ZM661.646,1109.75C667.11,1104.85 672.71,1100.11 678.438,1095.53C696.636,1081.09 724.501,1064.91 742.711,1088.05L742.002,1088.24C736.75,1089.56 735.073,1089.06 730.031,1087.38C706.782,1079.62 686.655,1099.56 667.869,1109.69C665.921,1110.74 663.632,1110.63 661.646,1109.75ZM638.472,1106.94C635.938,1105.62 635.384,1105.88 634.184,1103.66L634.958,1101.68C639.778,1097.53 647.53,1096.97 652.824,1100.68C646.97,1100.99 640.256,1099.73 639.397,1106.61L638.472,1106.94ZM207.81,1130.6C205.17,1130.33 204.576,1130.43 202.312,1129.21C200.876,1126.34 201.546,1124.48 201.69,1120.88L209.682,1123.52L207.81,1130.6Z" style="fill:white;fill-opacity:0.25;"/>
        <path d="M567.745,855.908C570.937,871.605 555.619,881.612 542.411,885.626C528.895,889.733 511.567,894.41 506.107,877.094C510.135,854.03 526.518,845.824 549.127,845.207C558.208,845.69 563.268,847.571 567.745,855.908ZM553.13,852.008C547.972,851.895 544.854,852.201 539.616,852.512C530.67,853.044 503.481,868.007 514.746,878.759C528.277,891.673 568.417,877.413 558.983,855.545C556.913,854.033 555.348,853.213 553.13,852.008ZM555.209,835.867C552.704,836.31 547.859,836.138 544.986,836.384C534.533,837.28 524.786,839.607 515.505,844.535C511.725,829.951 508.559,813.799 505.14,798.941C515.725,793.253 524.144,792.331 535.897,793.054C538.392,795.484 552.011,828.876 555.209,835.867ZM615.252,833.011C608.481,833.578 603.777,834.243 597.079,835.432C591.915,822.037 587.001,808.548 582.339,794.97C587.941,794.413 590.504,794.114 596.201,794.555C601.376,795.512 602.702,795.676 605.723,800.466C612.273,810.853 618.161,823.363 623.659,834.385L615.252,833.011ZM628.667,847.116C651.301,868.905 599.031,901.686 572.537,880.082L577.02,870.021C577.069,870.162 577.118,870.302 577.167,870.443L577.424,871.14C579.627,877.236 582.153,880.69 588.644,882.621C602.839,886.835 622.315,877.189 627.029,863.047C629.179,855.694 625.965,851.784 618.784,850.839C605.485,849.089 594.919,852.49 584.332,860.304L583.671,859.846C582.658,843.511 605.551,842.963 616.99,842.794C622.158,843.677 624.504,843.781 628.667,847.116ZM518.133,784.915C510.431,787.083 509.112,785.751 501.243,790.964L498.047,779.164C503.39,776.566 507.253,775.91 512.977,774.92C524.184,774.011 529.543,771.347 533.031,783.647C527.118,783.795 524.019,783.852 518.133,784.915ZM507.471,766.8C503.315,767.883 500.604,769.174 496.664,770.915C497.038,767.184 497.123,763.175 497.27,759.407C499.452,758.446 501.361,757.9 503.622,757.198C511.881,755.485 514.959,754.899 523.38,756.145C524.714,759.286 526.099,762.461 527.394,765.612C519.732,764.897 515.02,764.991 507.471,766.8ZM575.763,766.831C570.834,769.477 562.766,769.261 557.102,769.385C561.516,758.227 568.481,757.398 579.307,757.396C582.604,760.456 583.501,762.35 585.786,766.267C582.256,766.257 579.229,766.108 575.763,766.831ZM572.201,800.221C573.823,802.357 575.907,805.894 573.959,808.117C568.984,808.472 567.926,806.587 564.442,803.307C560.652,803.203 556.506,803.292 552.684,803.295L548.559,796.217C552.552,795.658 561.922,794.663 565.11,793.216C570.6,794.037 570.169,795.21 572.201,800.221ZM592.859,785.163C586.803,785.088 584.077,785.021 578.148,786.175L574.481,777.324C577.02,776.668 579.737,776.362 582.344,775.99C587.728,775.782 589.358,775.567 593.355,779.482C595.222,781.311 596.247,782.303 596.165,785C594.483,785.436 594.589,785.403 592.859,785.163ZM353.869,846.007C363.318,848.294 372.597,851.232 381.64,854.801C379.059,863.836 376.334,872.829 373.466,881.778C371.199,885.622 360.195,883.755 356.548,882.035C350.762,879.305 349.986,878.509 347.616,872.668C348.701,864.718 351.81,853.774 353.869,846.007ZM360.525,865.502C357.849,868.403 358.312,867.159 357.78,870.437C359.955,874.184 362.315,874.164 366.477,873.563C368.196,871.576 369.062,870.959 369.447,868.363C367.783,864.562 364.279,865.075 360.525,865.502ZM344.989,886.695C355.495,893.125 358.35,893.208 370.487,893.531L364.649,913.705C364.206,915.572 364.315,915.691 362.986,917.152C356.354,918.375 348.272,912.554 344.404,907.493C344.005,900.275 344.446,893.869 344.989,886.695ZM390.717,858.015C392.794,857.988 395.191,857.686 396.59,858.83C395.418,865.842 392.284,872.78 390.56,879.734C388.042,889.891 386.273,900.25 384.105,910.482C383.194,914.783 383.096,914.388 379.788,916.516C377.819,917.566 377.435,917.728 375.262,918.222L374.622,917.267C376.868,903.698 386.595,872.134 390.717,858.015ZM564.164,820.724C567.239,820.466 568.359,820.434 571.43,820.594C573.295,822.174 579.425,839.878 580.681,843.232L575.903,847.866L575.369,847.902C570.291,843.968 560.738,828.198 561.864,821.743L564.164,820.724ZM497.738,809.867C499.373,811.559 505.806,845.567 507.105,850.865C505.66,852.372 504.084,854.246 502.676,855.832C502.507,855.942 501.816,855.84 501.54,855.823C498.295,846.97 495.848,828.211 494.144,818.225C495.128,815.398 496.491,812.601 497.738,809.867ZM378.741,832.074C381.518,832.826 384.816,833.498 387.664,834.145L385.074,844.073C383.907,843.993 377.787,841.223 376.379,840.611L378.741,832.074Z" style="fill:rgb(41,81,98);"/>
        <path d="M326.254,1076.53C310.484,1089.62 302.196,1092.16 283.391,1098.76C270.735,1103.2 259.58,1109.04 246.038,1112.99C230.232,1104.39 218.443,1089.92 213.215,1072.71C209.592,1061.08 209.469,1048.29 215.287,1037.37C223.282,1032 242.896,1026.33 253.057,1022.96C251.791,1031.11 248.729,1060.23 255.229,1065.53L256.319,1064.87C263.456,1032.92 277.687,1004.96 283.124,969.911L297.223,967.867C321.851,959.71 337.862,948.911 350.019,924.861C366.392,930.728 385.305,931.417 394.239,913.94C404.01,916.712 422.922,915.587 428.569,922.545C429.936,924.23 431.021,925.884 433.702,926.053C449.403,925.686 471.794,924.299 486.746,920.363C487.164,920.253 490.748,916.089 490.985,915.808C495.765,914.839 516.767,909.238 519.594,909.779C552.241,916.03 588.529,922.789 617.645,939.238C643.523,953.858 636.995,984.429 629.367,1007.93C617.214,1006.52 608.804,1007.39 596.699,1008.21C596.192,1004.74 599.086,1005.34 598.277,1002.91C585.916,1000.57 563.336,1008.8 552.104,1014.6C547.815,1016.87 544.474,1020.05 540.776,1016.03C538.729,1009.19 544.416,995.859 546.838,989.022C549.567,987.371 553.109,985.562 555.964,984.002C560.826,981.297 566.112,979.711 571.382,977.908C531.583,976.167 490.674,981.815 453.265,979.404C469.528,968.068 488.442,956.475 505.363,944.991C477.735,953.79 457.032,963.133 431.369,976.11C437.67,962.154 440.901,956.61 442.177,941.204C432.728,953.367 421.174,963.694 411.471,976.487C387.102,1008.62 358.135,1051.31 326.254,1076.53ZM276.405,671.023C272.017,668.45 269.17,667.13 264.518,665.08C287.338,654.46 312.787,642.144 337.169,635.868C346.253,633.53 353.691,634.016 361.626,639.011C376.563,650.488 385.764,667.498 391.905,684.995C390.087,662.093 388.225,649.663 372.409,631.684C387.886,632.483 407.076,634.833 421.417,640.994C424.267,647.747 426.91,655.432 429.084,662.49C435.168,682.245 442.88,700.952 450.32,720.169C434.838,717.242 419.843,714.376 404.257,712.119C400.208,727.289 395.884,742.385 391.288,757.399C387.28,770.102 382.094,784.337 378.663,796.991C388.499,805.891 410.527,818.113 423.003,825.042C439.939,824.085 456.835,822.509 473.656,820.316C479.019,812.349 482.232,803.658 486.798,795.236L487.99,795.571C489.023,799.551 486.275,803.856 484.348,807.558C473.938,827.561 465.579,849.717 455.538,869.773C446.54,870.752 447.817,869.849 440.756,874.936C436.338,878.117 410.665,871.351 405.402,870.156C407.604,862.679 409.734,856.435 412.404,849.103C407.801,846.338 405.415,845.488 400.481,843.645C401.885,840.643 404.084,836.979 402.868,833.594C399.579,824.444 382.847,820.617 374.5,822.724C371.164,823.567 368.635,834.845 367.747,838.218L346.988,832.66C344.781,838.164 343.759,841.71 342.2,847.364C336.303,844.9 328.819,842.454 326.109,836.067C323.146,829.08 335.482,786.196 338.136,776.922C346.738,788.61 349.559,791.868 359.951,801.823C355.232,784.58 351.447,767.096 348.61,749.446C360.02,745.105 385.047,725.129 386.238,712.415L385.613,710.983C381.605,710.074 371.949,716.828 367.045,718.516C355.352,722.54 335.785,727.439 327.725,714.359C320.482,702.605 317.412,694.76 307.157,684.855C313.263,698.878 317.346,712.431 316.76,727.952C316.491,735.061 318.709,738.64 310.277,740.376L309.321,739.693C310.329,713.376 298.476,686.261 276.405,671.023ZM229.094,671.495C267.903,666.87 310.306,713.277 290.756,751.133C287.768,756.919 285.133,760.285 281.129,765.34L281.541,754.62L281.54,753.616C281.205,719.678 254.003,693.301 222.23,685.537C215.182,683.815 209.616,683.928 202.479,684.047C210.883,676.812 218.122,672.83 229.094,671.495ZM402.789,755.594C415.702,762.614 429.526,771.491 442.461,778.006C456.178,777.023 465.741,773.63 480.782,774.443C478.481,783.216 470.779,800.053 466.985,808.861C463.132,811.776 432.791,812.673 425.493,813.715C413.754,806.203 402.393,800.336 390.102,792.166C394.377,780.039 398.192,767.57 402.789,755.594ZM593.361,681.614C597.208,684.682 605.78,695.594 609.558,699.836C621.939,713.737 633.944,726.342 649.508,736.799C628.262,752.824 622.243,762.529 611.445,786.531C609.54,783.963 607.243,780.175 605.455,777.405L602.31,771.92C609.524,748.86 611.114,744.45 609.631,720.247C605.601,736.133 602.763,746.491 596.085,761.341C592.459,755.004 590.879,752.877 585.298,748.181C592.851,720.454 593.706,710.12 593.361,681.614ZM447.776,608.904C450.158,609.737 460.911,626.459 463.374,629.877C473.144,643.295 483.839,656.015 495.382,667.943C505.995,678.966 519.443,690.808 528.06,703.506C531.444,708.494 528.426,716.131 526.792,721.785C523.507,716.826 520.008,711.825 516.647,706.902C512.21,700.881 507.547,694.263 502.621,688.713C496.134,693.857 490.436,698.719 484.211,704.187C471.776,678.091 449.191,640.481 434.341,615.042C439.42,612.983 442.938,611.34 447.776,608.904ZM690.012,753.835C695.341,753.506 700.018,755.171 705.014,756.749C679.817,767.518 655.2,819.969 667.404,847.131C668.216,848.937 672.41,853.224 673.927,854.797L672.896,855.864C626.189,857.5 650.919,763.546 690.012,753.835ZM412.811,723.511C427.798,727.478 442.854,731.177 457.973,734.605C463.423,740.506 472.054,754.549 476.708,761.749C474.042,762.05 470.975,762.579 468.286,762.98C434.722,768.9 434.666,761.575 405.902,745.99L412.811,723.511ZM445.528,750.408C443.535,751.077 442.059,752.769 441.667,754.834C441.275,756.899 442.029,759.015 443.639,760.367C445.249,761.719 447.463,762.097 449.43,761.355C452.395,760.237 453.918,756.95 452.854,753.966C451.79,750.982 448.532,749.399 445.528,750.408ZM664.153,741.996L672.82,744.63C647.052,768.356 637.911,790.382 636.557,825.089C636.4,829.114 637.556,832.949 637.691,837.053L637.011,837.347L635.594,834.513C630.954,824.706 626.239,814.936 621.447,805.202C630.842,775.543 639.435,762.497 664.153,741.996ZM502.438,708.545C506.442,712.389 517.246,727.942 523.422,734.626C519.677,741.74 521.364,745.726 512.608,746.516C509.228,746.809 505.322,747.591 501.934,748.183C499.201,738.281 494.475,727.215 491.355,716.895C496.698,713.521 497.725,713.018 502.438,708.545ZM555.512,713.033L556.469,714.356C554.247,722.46 543.483,767.612 539.573,769.932C537.645,768.04 536.94,764.877 536.031,762.186C534.097,756.839 533.11,752.159 528.598,748.849L527.964,748.392C527.23,736.25 546.398,720.047 555.512,713.033ZM566.187,664.212C579.527,673.73 580.493,682.327 579.552,697.439C574.675,692.966 569.562,686.874 564.268,681.863C561.961,684.969 559.67,688.086 557.396,691.215C552.836,697.607 547.449,704.879 542.381,710.763C548.912,693.836 554.707,678.431 566.187,664.212ZM313.357,890.789C320.613,892.887 325.95,894.528 332.964,897.261C333.304,909.522 335.184,914.755 344.855,922.47C342.307,924.759 338.521,929.541 336.214,932.275C328.069,941.93 322.305,946.315 311.348,951.786C301.722,955.32 296.131,956.714 285.976,958.283C293.09,934.037 303.443,913.748 313.357,890.789ZM482.897,838.174C486.138,840.96 488.993,863.277 489.161,868.466L475.841,868.33C473.408,868.448 470.934,868.511 468.496,868.597L468.083,867.765C472.47,858.135 478.149,847.919 482.897,838.174ZM678.89,450.04C658.661,445.836 637.438,440.143 617.261,436.574C563.697,427.098 516.078,422.914 486.634,370.412C498.317,363.684 512.582,359.332 524.593,351.616C538.914,342.417 552.902,328.733 567.965,321.493C574.036,324.182 588.778,319.051 596.727,323.39C620.116,336.157 633.502,360.623 653.9,377.179C664.514,385.847 673.101,388.724 683.422,395.753C681.206,411.378 679.381,434.214 678.89,450.04ZM591.952,335.731C582.486,344.39 574.094,351.67 564.224,359.925C568.396,360.471 572.808,360.97 576.945,361.601C571.096,366.826 564.407,373.087 558.35,377.906L570.321,380.832C561.793,387.39 551.689,395.047 542.553,400.69C551.654,402.157 561.469,403.974 570.54,405.256C569.904,409.413 569.352,413.779 568.235,417.815L580.481,420.08C584.071,420.353 584.042,420.987 586.438,419.207C587.875,415.92 587.486,413.136 587.985,409.585C596.934,410.692 608.366,411.949 617.329,411.856C612.214,403.981 604.688,393.203 600.643,385.068C605.262,386.508 609.972,388.039 614.606,389.392C609.134,381.598 603.96,371.854 599.456,363.363C603.194,364.956 607.327,366.833 611.075,368.284C608.587,364.003 593.999,336.667 591.952,335.731ZM432.407,446.562C521.814,441.669 614.657,464.089 698.61,493.495C710.88,497.793 770.477,519.752 773.293,528.653L772.085,529.324C766.587,528.924 737.942,518.467 730.761,515.977C655.341,488.897 593.607,469.795 512.847,460.493C484.157,457.323 455.3,455.925 426.438,456.307C420.202,456.391 376.724,458.995 375.558,458.554L375.992,456.96C382.815,450.455 421.42,447.397 432.407,446.562Z" style="fill:rgb(0,120,56);"  data-color="color-1"/>
        <path d="M567.965,321.493C576.673,317.636 593.097,311.289 601.792,316.15C616.542,324.397 635.756,344.81 648.959,356.497C662.91,368.845 679.79,383.031 692.385,395.588C690.025,411.609 688.362,435.46 687.014,452.022L678.89,450.04C679.381,434.214 681.206,411.378 683.422,395.753C673.101,388.724 664.514,385.847 653.9,377.179C633.502,360.623 620.116,336.157 596.727,323.39C588.778,319.051 574.036,324.182 567.965,321.493ZM277.052,905.625C270.585,902.587 262.901,894.867 254.908,890.386C257.264,894.22 264.845,904.514 258.642,907.046C250.487,906.536 239.041,895.444 231.799,890.042C233.55,893.472 238.454,901.055 236.966,904.411C230.054,907.708 221.785,897.416 214.397,895.953C210.574,897.499 213.827,898.644 209.729,901.495C201.558,902.113 193.405,894.026 191.844,886.261C187.505,864.676 189.199,842.363 200.25,822.968C193.319,801.107 170.315,736.614 178.247,717.294C181.033,710.508 187.313,706.695 193.789,703.984C187.79,735.658 196.549,764.912 205.059,794.998C206.97,801.752 211.238,815.876 210.18,822.377C207.364,839.681 189.576,861.641 199.827,879.218C222.803,893.143 246.082,877.267 258.538,883.505C263.051,885.765 266.281,890.504 269.199,894.445C271.766,897.912 275.249,901.727 277.052,905.625ZM808.855,784.927C808.021,791.064 807.508,796.148 805.325,801.946C803.302,800.753 800.809,799.394 798.973,797.995C797.797,795.275 796.56,792.542 795.6,789.741C780.856,811.79 734.764,842.187 708.499,848.61C677.998,856.068 675.195,834.255 682.549,810.605C684.058,815.061 684.5,819.883 686.103,824.328C690.686,837.035 703.102,836.039 713.791,833.119C737.531,826.634 755.785,810.522 774.993,796.054C780.172,792.153 785.863,786.829 791.855,784.284C796.877,782.472 803.903,782.601 808.855,784.927ZM476.577,617.406C472.373,611.941 466.731,602.173 463.025,596.053C470.482,587.506 473.653,579.576 480.988,571.337C483.711,568.278 484.561,568.802 488.122,568.773C476.688,581.859 476.654,600.599 476.577,617.406ZM868.61,795.001C867.115,797.227 865.24,799.271 863.484,801.311C853.7,804.082 829.252,805.493 822.403,796.355C821.687,793.122 821.924,794.024 823.341,790.495L823.775,790.706C851.246,804.283 843.492,797.653 868.61,795.001ZM888.86,542.901C886.519,542.5 881.838,545.067 879.368,546.188C882.353,533.151 903.572,419.946 907.22,416.396C910.512,415.981 914.411,417.223 917.718,418.036C910.74,424.115 905.77,456.391 903.884,465.875L892.526,523.274C891.586,528.255 890.161,538.871 888.86,542.901ZM143.064,1151.52C141.989,1145.37 142.649,1139.63 143.45,1133.53L144.521,1145.67C147.367,1165.63 154.177,1182.35 171.231,1195.57C190.681,1210.65 229.265,1205.33 252.433,1203.39C257.704,1202.95 263.465,1200.85 269.24,1201.13C270.283,1202.71 269.938,1202.32 269.876,1204.62C268.492,1206.82 267.161,1208.18 264.282,1208.57C239.14,1211.97 212.265,1214.7 187.148,1209.81C160.099,1204.55 144.574,1177.3 143.064,1151.52ZM770.885,1093.86C766.366,1091.26 765.039,1090.39 761.153,1086.97C762.137,1068.97 772.618,1025.64 778.15,1007.06C781.626,995.388 789.217,980.97 793.416,965.365L784.351,970.823C788.644,956.042 793.131,932.822 796.619,917.271C804.874,881.729 812.684,846.084 820.05,810.347C825.338,813.719 827.974,814.325 834.031,815.981C831.861,826.962 829.588,837.923 827.21,848.861L826.167,847.759C815.839,856.038 812.054,872.096 810.197,884.713C806.662,908.726 801.499,932.744 797.783,956.653C802.418,951.476 810.091,943.061 816.893,941.502C819.722,942.831 817.785,943.63 819.679,944.049L818.086,949.793C815.002,950.379 810.486,956.457 808.749,959.029C804.706,965.114 801.279,971.586 798.516,978.348C795.441,985.99 793.728,993.971 791.03,1001.63C784.301,1020.73 780.139,1039.89 776.346,1059.74C774.188,1070.95 771.129,1082.33 770.885,1093.86ZM861.372,674.761L851.697,679.206C859.177,650.506 863.593,618.716 871.628,589.708C876.351,572.656 883.825,559.925 888.819,543.811L889.642,544.493C894.405,539.584 900.816,529.832 906.525,527.832C909.015,528.072 908.067,527.684 910.004,529.518C913.395,539.156 894.809,555.091 890.284,564.53C878.972,588.124 875.039,612.48 869.299,637.683C866.984,647.771 862.264,664.906 861.372,674.761ZM761.17,1153.5C760.926,1157 757.834,1169.8 756.904,1173.65C753.35,1188.38 750.018,1203.76 744.885,1218.01C738.354,1218.04 735.029,1218.06 728.582,1216.76L727.884,1216.36C725.931,1212.58 736.36,1177.45 737.983,1170.3C747.888,1164.7 753.077,1161.34 761.17,1153.5ZM577.092,1149.19C566.537,1150.43 554.989,1152.91 544.609,1155.22C542.599,1128.92 545.333,1117.94 558.257,1095.26C549.604,1082.41 551.321,1077.78 551.211,1061.96C557.351,1057.75 561.541,1055.78 568.204,1052.93C563.72,1073.51 565.311,1077.18 576.36,1094.42L577.31,1095.89C566.822,1118.01 570.137,1126.38 577.092,1149.19ZM195.274,1191.99C193.698,1191.68 192.129,1191.33 190.569,1190.94C184.293,1189.37 177.953,1185.87 173.453,1181.44C147.044,1155.44 158.706,1115.39 158.173,1082.98C157.947,1069.24 157.475,1061.44 161.04,1047.73C175.188,1048.65 181.247,1045.91 194.517,1045.94C193.075,1062.49 193.14,1069.6 199.543,1085.4C196.328,1092.06 194.714,1097.61 192.976,1104.68C188.672,1101.08 188.017,1099.08 182.615,1100.94L181.001,1098.78C179.533,1098.75 178.241,1098.83 177.249,1100.26C167.327,1114.53 166.033,1132.2 167.128,1148.91C168.607,1171.47 180.992,1178.08 195.274,1191.99ZM759.195,1113.96C719.167,1111.49 687.369,1157.79 649.9,1166.81C636.014,1170.16 607.987,1165.89 591.439,1166.69C592.85,1169.89 594.265,1173.21 595.763,1176.36C586.023,1178.28 556.016,1183.92 546.92,1184.52C546.568,1179.96 546.14,1171.55 545.443,1167.25C562.37,1163.53 573.382,1162 590.646,1160.23C613.633,1157.89 635.458,1163.54 656.655,1155.32C672.258,1149.27 685.353,1135.94 697.968,1129.25C699.259,1129.9 699.227,1129.59 700.974,1129.32L701.734,1129.98L700.255,1131.1C711.33,1130.57 739.608,1098.46 759.195,1113.96ZM403.128,882.797C413.72,884.896 425.768,887.282 436.5,888.204C434.74,894.383 432.055,901.797 429.996,907.99L396.938,905.051C399.041,897.644 401.104,890.226 403.128,882.797ZM439.697,656.898C441.481,658.83 447.238,670.987 448.765,673.963C458.002,691.969 469.1,708.744 479.364,726.181C476.223,726.154 468.066,726.071 466.793,724.071C460.277,713.834 441.234,666.636 439.697,656.898ZM147.399,1049.23C149.283,1049.26 148.529,1048.92 149.803,1050.1C149.813,1056.25 147.774,1062.06 147.649,1067.56C147.457,1075.97 149.215,1086.99 148.421,1095.25L147.442,1095.97L144.239,1095.27C142.148,1094.64 139.662,1094.2 139.368,1091.77C138.331,1083.2 136.041,1059.45 140.163,1052.33C142.433,1050.19 144.41,1049.97 147.399,1049.23ZM582.511,1025.39L582.783,1025.42C584.625,1026.75 585.1,1033.55 585.596,1036.48C572.654,1039.7 566.18,1042.16 553.797,1047.41C552.882,1047.89 553.394,1047.73 552.034,1047.39C551.374,1044.51 551.795,1036.75 551.872,1033.42C562.32,1030.47 571.902,1027.79 582.511,1025.39ZM323.91,857.91C328.281,859.79 333.673,861.554 338.218,863.169C336.625,869.405 335.72,876.611 335.16,883.016C329.274,880.328 326.153,879.158 319.966,877.232C321.415,871.848 322.795,863.58 323.91,857.91ZM571.391,711.393C573.868,713.184 576.862,716.278 579.127,718.492C578.519,722.082 577.746,728.055 575.892,730.914L566.631,732.151C568.433,725.246 569.883,718.366 571.391,711.393ZM472.352,733.377L482.713,734.282C484.926,739.044 491.753,749.628 491.091,754.006L489.387,754.234C486.739,753.254 475.651,737.337 472.352,733.377ZM572.791,737.679L573.465,737.567L573.998,738.311C571.649,746.027 570.758,748.344 563.124,751.551C562.296,751.31 562.63,751.36 561.905,750.392C562.831,741.567 563.476,738.215 572.791,737.679ZM499.422,891.923C503.216,894.068 508.575,896.026 511.309,898.502L510.804,899.462L507.144,900.369L496.292,903.745C497.527,900.075 498.485,895.725 499.422,891.923ZM560.119,780.245L562.999,780.207C565.152,781.836 564.88,781.106 565.219,783.154C563.229,784.119 551.381,785.753 548.363,786.228C546.055,786.686 545.861,786.825 543.682,786.177L543.443,785.106C547.256,781.91 555.136,780.985 560.119,780.245ZM326.254,1076.53C310.484,1089.62 302.196,1092.16 283.391,1098.76C270.735,1103.2 259.58,1109.04 246.038,1112.99C230.232,1104.39 218.443,1089.92 213.215,1072.71C209.592,1061.08 209.469,1048.29 215.287,1037.37C223.282,1032 242.896,1026.33 253.057,1022.96C251.791,1031.11 248.729,1060.23 255.229,1065.53L256.319,1064.87C263.456,1032.92 277.687,1004.96 283.124,969.911L297.223,967.867C288.088,993.954 275.065,1033.24 288.065,1059.88C295.87,1075.86 310.461,1075.7 326.254,1076.53ZM552.104,1014.6C547.815,1016.87 544.474,1020.05 540.776,1016.03C538.729,1009.19 544.416,995.859 546.838,989.022C549.567,987.371 553.109,985.562 555.964,984.002C555.369,994.458 551.89,1003.85 552.104,1014.6Z" style="fill-opacity:0.37;"/>
        <path d="M565.11,793.216C570.6,794.037 570.169,795.21 572.201,800.221C570.244,800.403 570.245,800.321 568.431,799.841C566.331,798.048 565.988,795.92 565.11,793.216ZM549.127,845.207C558.208,845.69 563.268,847.571 567.745,855.908C565.153,857.034 561.963,856.051 558.983,855.545C556.913,854.033 555.348,853.213 553.13,852.008C551.038,849.721 550.009,848.192 549.127,845.207ZM535.897,793.054C538.392,795.484 552.011,828.876 555.209,835.867C552.493,835.53 548.356,835.635 545.484,835.627C540.105,822.451 531.592,807.337 535.897,793.054ZM596.201,794.555C601.376,795.512 602.702,795.676 605.723,800.466C612.273,810.853 618.161,823.363 623.659,834.385L615.252,833.011C613.346,831.005 596.611,797.166 596.201,794.555ZM616.99,842.794C622.158,843.677 624.504,843.781 628.667,847.116C626.705,849.336 625.906,849.923 623.175,850.047C620.274,848.537 618.862,845.638 616.99,842.794ZM512.977,774.92C524.184,774.011 529.543,771.347 533.031,783.647C527.118,783.795 524.019,783.852 518.133,784.915L516.958,784.463C514.92,782.109 513.434,777.956 512.977,774.92ZM503.622,757.198C511.881,755.485 514.959,754.899 523.38,756.145C524.714,759.286 526.099,762.461 527.394,765.612C519.732,764.897 515.02,764.991 507.471,766.8C506.224,763.585 504.941,760.384 503.622,757.198ZM579.307,757.396C582.604,760.456 583.501,762.35 585.786,766.267C582.256,766.257 579.229,766.108 575.763,766.831L574.873,764.591L575.555,763.242L576.031,763.909C577.416,761.834 577.463,760.08 579.307,757.396ZM582.344,775.99C587.728,775.782 589.358,775.567 593.355,779.482C595.222,781.311 596.247,782.303 596.165,785C594.483,785.436 594.589,785.403 592.859,785.163L588.167,784.114C585.294,782.243 584.006,779.065 582.344,775.99ZM276.405,671.023C272.017,668.45 269.17,667.13 264.518,665.08C287.338,654.46 312.787,642.144 337.169,635.868C346.253,633.53 353.691,634.016 361.626,639.011C341.768,644.236 321.941,652.261 302.844,659.912C297.025,662.243 281.775,668.121 276.405,671.023ZM678.89,450.04C658.661,445.836 637.438,440.143 617.261,436.574C563.697,427.098 516.078,422.914 486.634,370.412C498.317,363.684 512.582,359.332 524.593,351.616C538.914,342.417 552.902,328.733 567.965,321.493C574.036,324.182 588.778,319.051 596.727,323.39C620.116,336.157 633.502,360.623 653.9,377.179C664.514,385.847 673.101,388.724 683.422,395.753C681.206,411.378 679.381,434.214 678.89,450.04ZM591.952,335.731C582.486,344.39 574.094,351.67 564.224,359.925C568.396,360.471 572.808,360.97 576.945,361.601C571.096,366.826 564.407,373.087 558.35,377.906L570.321,380.832C561.793,387.39 551.689,395.047 542.553,400.69C551.654,402.157 561.469,403.974 570.54,405.256C569.904,409.413 569.352,413.779 568.235,417.815L580.481,420.08C584.071,420.353 584.042,420.987 586.438,419.207C587.875,415.92 587.486,413.136 587.985,409.585C596.934,410.692 608.366,411.949 617.329,411.856C612.214,403.981 604.688,393.203 600.643,385.068C605.262,386.508 609.972,388.039 614.606,389.392C609.134,381.598 603.96,371.854 599.456,363.363C603.194,364.956 607.327,366.833 611.075,368.284C608.587,364.003 593.999,336.667 591.952,335.731ZM432.407,446.562C521.814,441.669 614.657,464.089 698.61,493.495C710.88,497.793 770.477,519.752 773.293,528.653L772.085,529.324C766.587,528.924 737.942,518.467 730.761,515.977C655.341,488.897 593.607,469.795 512.847,460.493C484.157,457.323 455.3,455.925 426.438,456.307C420.202,456.391 376.724,458.995 375.558,458.554L375.992,456.96C382.815,450.455 421.42,447.397 432.407,446.562Z" style="fill:white;fill-opacity:0.28;"/>
    </g>
</svg>
