<?xml version="1.0" encoding="UTF-8" standalone="no"?>
<!DOCTYPE svg PUBLIC "-//W3C//DTD SVG 1.1//EN" "http://www.w3.org/Graphics/SVG/1.1/DTD/svg11.dtd">
<svg width="100%" height="100%" viewBox="0 0 1024 1024" version="1.1" xmlns="http://www.w3.org/2000/svg" xmlns:xlink="http://www.w3.org/1999/xlink" xml:space="preserve" xmlns:serif="http://www.serif.com/" style="fill-rule:evenodd;clip-rule:evenodd;stroke-linejoin:round;stroke-miterlimit:2;">
    <path d="M574.312,69.71C594.67,68.106 617.798,71.542 636.663,79.369C643.372,82.153 646.937,83.594 650.195,90.527C656.392,103.715 662.103,117.169 667.801,130.588C677.143,153.156 686.939,175.533 697.183,197.707C698.429,200.404 703.554,212.484 705.492,213.272C711.681,215.786 722.913,218.081 729.678,219.636C768.185,228.367 807.02,235.579 846.094,241.257C851.833,242.104 886.793,246.721 889.245,248.211C889.627,251.471 886.243,256.681 884.603,259.557C858.646,305.096 807.558,333.734 758.615,348.324C746.853,351.83 732.187,355.167 719.86,355.225L719.939,355.633L720.08,356.312C722.138,366.676 729.904,387.509 734.018,397.68C744.155,422.742 741.249,429.284 715.241,439.612C720.881,448.779 724.572,457.744 725.722,468.589C726.744,478.228 723.127,481.862 717.299,488.831C716.781,495.278 716.075,508.89 716.61,515.121C716.791,517.234 722.742,527.41 724.292,531.047C731.67,548.36 735.286,564.678 732.967,583.513C732.324,588.732 730.943,593.617 729.839,598.747C744.473,605.408 760.558,611.234 775.502,617.708C798.637,627.75 821.026,639.431 842.498,652.661C845.817,654.713 856.473,660.919 858.6,663.054C859.346,665.42 858.012,669.445 857.156,671.795C846.465,701.163 835.04,730.575 818.827,757.373C778.488,824.048 719.073,874.741 655.182,917.639C637.895,929.204 620.25,940.222 602.271,950.678C591.982,956.77 580.645,963.666 570.046,968.952C559.144,964.758 535.22,949.995 524.679,943.811C482.543,919.184 441.686,892.431 402.267,863.655C379.476,846.671 356.994,829.278 334.829,811.484C319.414,798.108 302.943,785.475 287.456,772.167C254.496,743.847 224.903,716.339 187.161,693.71C170.348,683.707 152.98,674.666 135.141,666.633C128.129,663.501 113.962,658.931 108.445,655.417C112.788,651.779 120.537,646.379 125.275,643.151C157.642,621.149 193.085,603.407 227.987,585.777C252.492,573.399 277.265,560.36 302.023,548.549C305.784,542.431 309.69,534.898 313.165,528.512C299.67,506.027 283.68,482.745 269.481,460.302L250.617,430.658C248.696,427.658 242.846,417.691 240.574,415.717C233.565,409.975 224.733,407.89 218.38,400.816C207.186,388.35 206.947,374.6 206.991,358.83C199.739,346.201 190.828,334.134 182.881,321.897C171.162,303.852 71.089,150.213 71.042,145.559C71.011,142.413 139.007,95.019 145.316,88.993C145.429,88.885 145.54,88.774 145.652,88.664C152.607,98.415 160.261,111.011 166.822,121.256L202.86,177.629L241.094,237.503C248.218,248.684 256.318,260.906 262.921,272.3C284.249,253.465 318.665,233.97 344.948,223.428C344.975,215.255 353.682,152.7 358.075,147.472C364.885,139.368 381.703,130.744 391.297,125.668C447.386,95.992 510.587,73.822 574.312,69.71Z" style="fill-rule:nonzero;"/>
    <path d="M472.456,364.83C479.693,386.036 485.406,390.426 501.6,404.616C501.806,412.248 502.669,419.189 503.728,426.689C505.576,439.775 508.453,448.012 518.351,456.984C533.641,470.845 551.062,481.835 571.209,486.953C566.258,499.053 564.215,506.536 564.008,519.736C576.761,499.596 600.117,472.865 620.21,460.163C631.372,453.168 643.657,448.152 656.526,445.337C658.987,444.793 664.337,443.856 666.698,444.107C675.526,445.042 693.62,448.478 701.501,451.467C703.63,457.663 704.923,466.983 706.569,473.626C687.15,460.001 678.711,463.679 657.529,470.564C635.407,477.753 619.677,486.332 601.901,501.628C609.822,500.88 623.383,499.614 630.409,495.951C633.519,493.796 637.224,492.643 640.511,491.187C652.046,486.076 661.327,486.186 673.659,486.922C679.73,487.285 687.046,487.056 693.406,487.06C695.625,489.668 696.198,490.479 697.938,493.432C697.498,497.436 697.13,500.587 695.828,504.432C684.807,504.014 671.141,504.984 659.924,505.531C656.622,510.08 654.389,513.578 651.483,518.332C661.653,520.591 677.628,520 689.006,522.183C689.818,522.905 690.444,523.529 691.165,524.321C710.869,545.99 711.683,563.453 710.821,590.609C704.997,573.07 704.253,570.78 694.76,554.522C699.382,579.998 693.473,603.466 685.345,627.278C675.961,615.974 665.127,605.689 653.002,597.412C637.129,586.576 621.226,577.607 606.51,564.926C596.653,556.433 590.513,549.081 582.532,539.017C584.971,549.99 587.825,563.383 589.307,574.373C562.47,557.933 539.894,532.621 522.722,506.312C518.16,499.322 514.747,491.252 510.483,484.219C510.677,501.595 512.726,514.836 517.242,531.568C490.764,511.22 475.358,494.67 471.795,460.006C468.458,427.532 469.476,397.258 472.456,364.83Z" style="fill:rgb(102,102,102);fill-rule:nonzero;"/>
    <path d="M526.957,282.554C583.665,278.38 647.851,289.774 704.849,296.143C705.602,301.797 706.277,307.484 707.391,313.077C704.136,317.239 692.173,332.157 690.952,335.892C696.741,353.711 702.959,371.389 709.6,388.908C712.351,396.318 716.85,406.781 719.12,413.975C718.04,417.307 717.025,421.349 713.336,422.722C701.562,427.105 683.647,415.442 671.154,417.204C664.545,418.136 657.313,421.76 651.562,424.457C644.506,415.28 644.75,408.967 648.935,398.374C633.221,403.742 626.633,412.472 629.062,429.741C605.029,441.601 581.597,461.79 571.209,486.953C551.062,481.835 533.641,470.845 518.351,456.984C508.453,448.012 505.576,439.775 503.728,426.689C502.669,419.189 501.806,412.248 501.6,404.616C509.887,410.391 514.792,413.047 523.775,417.693C503.204,394.987 495.989,368.953 496.194,338.645C501.365,331.046 506.473,325.317 512.135,316.603C519.151,304.424 523.034,296.269 526.957,282.554ZM630.409,495.951C633.519,493.796 637.224,492.643 640.511,491.187C652.046,486.076 661.327,486.186 673.659,486.922C679.73,487.285 687.046,487.056 693.406,487.06C695.625,489.668 696.198,490.479 697.938,493.432C697.498,497.436 697.13,500.587 695.828,504.432C684.807,504.014 671.141,504.984 659.924,505.531C656.622,510.08 654.389,513.578 651.483,518.332C647.376,524.12 644.474,531.318 641.914,537.884C628.625,519.752 630.372,517.989 630.409,495.951Z" style="fill:rgb(251,200,125);"/>
    <path d="M593.522,297.343C600.501,299.192 606.073,301.755 612.662,304.595C629.2,311.723 645.59,319.326 662.609,325.25C667.894,322.463 673.13,319.586 678.317,316.62C675.209,327.354 672.685,331.868 666.731,341.321C658.696,351.015 657.696,348.621 650.177,355.278C642.602,361.984 640.536,366.048 631.176,372.721C634.63,363.703 636.067,357.791 633.09,348.709C631.649,351.976 629.895,355.321 626.617,356.96C615.877,362.331 607.874,354.652 602.732,346.475C590.693,347.773 577.319,346.598 565.207,346.603C577.941,340.823 589.935,334.497 602.317,328.028C574.309,319.165 578.558,319.115 550.799,327.531C554.596,323.001 558.623,318.668 562.864,314.551C572.676,306.226 580.978,300.389 593.522,297.343Z" style="fill-rule:nonzero;"/>
    <path d="M313.603,579.011C314.922,579.602 324.072,594.55 325.661,597.338C356.842,652.028 393.09,700.857 432.249,750.181C450.846,734.685 467.922,717.456 486.237,701.736C497.856,709.769 509.464,717.805 521.728,724.828C526.454,727.534 531.153,730.281 535.796,733.127C537.893,748.652 540.244,763.33 541.938,779.051C546.55,820.668 548.024,862.574 546.348,904.413C534.616,896.564 520.112,888.403 507.801,880.424C476.225,860.385 445.515,839.013 415.753,816.367C406.543,809.304 394.666,800.557 386.265,792.64C383.87,790.383 378.097,777.944 376.239,774.301C373.073,768.12 369.713,762.041 366.164,756.072C343.576,717.791 311.426,686.038 272.867,663.927C299.355,690.604 312.291,717.499 327.574,751.578C291.334,707.64 235.977,659.234 182.384,639.046C200.44,626.8 218.053,619.116 237.871,610.17C262.697,598.795 287.961,588.401 313.603,579.011ZM719.961,619.577L756.08,635.88C773.391,643.526 803.871,657.106 819.067,668.103C784.479,771.766 721.777,835.709 629.682,891.794L615.412,899.424C614.897,876.484 611.262,851.725 607.755,829.054C603.079,798.892 597.361,768.9 590.611,739.132C601.094,730.902 611.088,722.068 620.544,712.675C640.776,726.995 665.287,737.764 690.198,739.607C689.18,729.351 685.561,716.026 683.05,705.814L670.798,656.388C675.703,659.647 680.256,662.574 685.416,665.435C697.242,654.457 711.265,633.165 719.961,619.577ZM363.168,499.322C364.316,500.564 370.471,510.647 371.856,512.786C376.408,519.818 381.256,526.654 386.387,533.276C414.003,569.354 446.751,601.196 483.589,627.79C488.911,631.566 510.854,646.26 513.161,650.192C525.07,670.494 534.968,697.435 547.079,717.667C530.999,705.133 517.774,684.877 507.343,667.384C505.185,664.203 502.336,658.94 500.32,655.486C496.062,656.343 491.002,657.026 486.658,657.726C482.87,660.704 471.682,673.284 467.855,677.65C458.387,688.453 446.661,700.316 437.98,711.463C409.65,673.439 379.419,637.603 356.029,596.063C347.405,580.746 339.346,565.13 330.728,549.861C342.869,533.594 352.196,515.797 363.168,499.322ZM624.064,634.249C629.982,637.718 636.467,640.695 642.578,644.123C645.709,650.78 648.806,661.72 651.038,668.946C655.631,683.552 659.895,698.259 663.828,713.057C651.57,700.951 640.307,680.072 630.213,665.417C603.927,681.5 586.271,712.492 568.029,737.379C571.077,748.659 573.702,763.703 575.878,775.331C580.669,800.312 584.651,825.442 587.818,850.68C590.111,868.345 593.237,897.225 591.173,914.134C585.72,918.124 583.24,919.7 577.052,922.339L573.563,918.727C575.554,886.505 570.994,842.632 567.046,810.302L557.995,738.444C563.051,733.196 574.175,716.085 578.55,709.378C587.647,695.432 599.197,680.098 607.682,665.971C613.72,655.705 619.189,645.115 624.064,634.249Z" style="fill:rgb(163,70,20);"/>
    <path d="M580.183,96.746C589.883,96.548 621.183,96.613 627.078,105.981C632.389,114.421 638.3,130.783 642.296,140.515L661.345,185.992C654.308,184.237 636.463,182.711 628.96,182.186C573.629,178.312 521.405,185.681 468.28,201.253C463.415,202.772 459.126,204.117 454.354,205.97C455.828,203.682 457.297,201.114 458.646,198.74C466.08,185.667 474.375,172.829 481.164,159.415C458.985,147.564 434.591,147.159 410.28,148.23C414.777,146.531 419.441,143.631 423.719,141.384C472.154,115.943 525.157,98.186 580.183,96.746ZM435.707,232.774C441.126,232.609 446.55,232.626 451.968,232.825C464.381,233.272 476.764,234.338 489.071,236.019C499.658,237.422 570.244,249.823 574.851,254.745C573.946,254.906 565.55,254.004 563.81,253.892C476.634,248.284 388.604,255.589 311.262,300.538C285.688,314.745 250.612,343.823 235.96,368.991C240.424,343.383 249.016,323.622 267.535,304.795C312.373,259.214 372.421,234.606 435.707,232.774ZM597.892,209.216C619.246,207.718 653.683,210.11 674.987,213.156C679.105,220.03 683.066,227.553 687.944,233.906C699.004,248.31 738.749,255.728 756.809,257.805C764.694,258.712 772.646,258.654 780.49,259.618C761.871,262.625 732.846,260.29 714.048,258.335C677.515,253.654 646.439,244.975 611.064,235.302C593.502,230.326 575.782,225.932 557.93,222.126C548.527,220.179 539.718,218.253 530.112,217.665C547.657,212.307 579.539,210.179 597.892,209.216Z" style="fill:rgb(64,64,64);"/>
    <path d="M526.957,282.554C583.665,278.38 647.851,289.774 704.849,296.143C705.602,301.797 706.277,307.484 707.391,313.077C704.136,317.239 692.173,332.157 690.952,335.892C686.469,340.152 672.92,341.175 666.731,341.321C672.685,331.868 675.209,327.354 678.317,316.62C673.13,319.586 667.894,322.463 662.609,325.25C645.59,319.326 629.2,311.723 612.662,304.595C606.073,301.755 600.501,299.192 593.522,297.343C580.978,300.389 572.676,306.226 562.864,314.551C556.887,312.504 519.159,315.35 512.135,316.603C519.151,304.424 523.034,296.269 526.957,282.554ZM415.201,441.917C422.499,446.294 427.234,448.223 435.048,451.433C434.899,466.708 435.626,482.3 440.814,496.836C457.644,543.989 545.196,593.063 588.617,613.474C585.821,621.242 582.827,629.955 579.401,637.434C572.055,655.271 564.859,673.169 557.814,691.128C551.351,676.919 544.537,662.475 538.285,648.226C533.814,638.379 531.255,631.707 522.013,625.293C514.636,620.172 507.051,614.771 499.903,609.368C485.299,598.111 471.171,586.249 457.555,573.816C434.032,552.319 413.197,528.054 395.505,501.551C405.622,486.557 411.712,459.434 415.201,441.917ZM404.012,322.107C417.934,321.281 426.46,328.116 435.883,337.68C446.981,348.945 445.582,357.982 444.949,372.559C437.608,362.503 425.042,347.522 414.874,340.252C412.216,338.351 408.856,337.257 405.755,336.238C397.049,346.006 396.922,350.199 397.104,362.64C400.28,357.215 401.418,355.254 407.297,352.588C413.625,355.845 415.987,357.937 420.329,363.697C414.576,370.773 414.61,374.04 415.286,383.072C418.697,398.614 432.109,404.806 445.172,411.063C444.996,417.237 444.762,423.408 444.47,429.577C409.698,426.304 391.76,401.735 383.812,369.455C379.46,351.781 382.548,326.378 404.012,322.107Z" style="fill:rgb(215,127,48);"/>
    <path d="M538.285,648.226C546.332,647.081 556.896,643.651 564.774,641.414C569.014,640.21 575.191,637.9 579.401,637.434C572.055,655.271 564.859,673.169 557.814,691.128C551.351,676.919 544.537,662.475 538.285,648.226Z" style="fill:rgb(251,200,125);"/>
    <path d="M137.516,124.92C139.141,125.683 235.758,277.32 243.631,289.739C241.919,291.801 230.541,306.457 229.336,306.93L228.401,305.741C221.472,294.494 213.504,282.774 206.233,271.664L169.661,215.684C153.665,191.255 135.952,162.572 119.342,139.1C125.309,134.343 131.363,129.409 137.516,124.92ZM321.62,409.795L321.961,409.773C324.005,411.264 333.065,424.393 335.959,427.85C338.456,423.623 342.385,416.894 342.311,412.154C343.938,412.11 346.723,413.42 348.368,414.068C347.494,426.572 343.311,435.7 334.673,444.684C330.675,448.275 328.166,448.894 323.168,450.728C314.531,437.073 305.781,423.489 296.921,409.979C305.196,409.911 313.319,410.151 321.62,409.795ZM366.76,453.438C367.454,456.112 364.008,468.218 363.032,471.376C351.793,474.618 348.337,474.233 337.561,470.129C335.593,469.126 335.205,468.873 333.454,467.51C350.302,463.689 352.008,462.449 366.76,453.438Z" style="fill:rgb(86,36,11);"/>
</svg>
