<svg width="100%" height="100%" viewBox="0 0 110 116" version="1.1" xmlns="http://www.w3.org/2000/svg" xmlns:xlink="http://www.w3.org/1999/xlink" xml:space="preserve" xmlns:serif="http://www.serif.com/" style="fill-rule:evenodd;clip-rule:evenodd;stroke-linejoin:round;stroke-miterlimit:2;">
    <g transform="matrix(1,0,0,1,-315.182,-47.2779)">
        <g transform="matrix(1,0,0,1,-48.4625,-262.918)">
            <path id="NM" d="M472.452,324.756L472.743,317.185L469.637,317.087L448.186,316.117L426.638,314.758L377.719,310.487L374.71,310.196L374.321,313.69L367.042,388.817L366.362,395.903L363.644,424.536L364.033,424.633L377.427,425.895L378.689,419.101L381.116,417.16L408.294,419.586L408.488,419.586L406.061,414.83L418.388,415.704L449.157,417.451L468.376,418.324L471.676,327.279L472.355,327.376L472.452,324.756L472.452,324.756Z" style="fill:rgb(249,249,249);"   data-color="color-1"/>
        </g>
    </g>
</svg>
