
<svg width="100%" height="100%" viewBox="0 0 84 91" version="1.1" xmlns="http://www.w3.org/2000/svg" xmlns:xlink="http://www.w3.org/1999/xlink" xml:space="preserve" xmlns:serif="http://www.serif.com/" style="fill-rule:evenodd;clip-rule:evenodd;stroke-linejoin:round;stroke-miterlimit:2;">
    <g transform="matrix(1,0,0,1,-615.367,-1443)">
        <g transform="matrix(0.994898,0.100882,-0.100882,0.994898,10.0034,1269.3)">
            <path id="WI" d="M705.792,134.803L703.365,137.812L701.909,142.18L702.589,144.606L705.792,134.803ZM631.15,114.226L628.918,116.749L629.986,128.397L623.774,134.026L622.609,139.462L626.006,142.568L625.035,155.963L628.627,158.681L630.956,158.875L638.333,163.34L642.992,168.193L648.913,171.202L650.272,178.676L650.272,179.161L653.087,182.558L652.31,185.179L653.281,190.905L656.193,194.885L661.531,197.7L661.434,198.185L682.594,195.759L690.456,194.788L703.559,192.944L703.171,191.488L703.171,186.926L700.55,182.073L699.871,175.958L701.133,169.163L700.453,163.922L702.783,157.419L701.909,156.351L702.103,150.333L703.365,145.771L701.909,144.218L699.094,145.189L697.541,149.265L693.853,151.401L695.018,146.256L698.318,141.889L698.512,139.947L698.609,139.85L693.95,135.191L693.95,128.591L688.709,124.32L681.526,123.835L674.149,121.894L658.231,117.04L655.125,115.293L654.834,115.584L649.884,114.905L648.233,115.876L648.913,108.79L640.954,112.867L631.247,114.42L631.15,114.226L631.15,114.226Z" style="fill:rgb(249,249,249);" data-color="color-1"/>
        </g>
    </g>
</svg>
