
<svg width="100%" height="100%" viewBox="0 0 103 121" version="1.1" xmlns="http://www.w3.org/2000/svg" xmlns:xlink="http://www.w3.org/1999/xlink" xml:space="preserve" xmlns:serif="http://www.serif.com/" style="fill-rule:evenodd;clip-rule:evenodd;stroke-linejoin:round;stroke-miterlimit:2;">
    <g transform="matrix(1,0,0,1,-719.012,-1331.69)">
        <g transform="matrix(0.995357,0.0962545,-0.0962545,0.995357,170.167,1210.81)">
            <path id="MN" d="M558.547,73.847L560.488,80.739L564.565,105.587L566.506,115.487L567.089,124.223L569.321,129.465L569.806,133.929L570.195,135.385L570.098,135.677L566.215,142.083L568.739,146.354L573.592,180.52L573.786,184.985L578.639,184.693L597.761,183.626L645.516,179.646L650.272,179.161L650.272,178.676L648.913,171.202L642.992,168.193L638.333,163.34L630.956,158.875L628.627,158.681L625.035,155.963L626.006,142.568L622.609,139.462L623.774,134.026L629.986,128.397L628.918,116.749L631.15,114.226L638.721,106.266L647.36,95.201L650.66,92.872L656.484,90.057L662.599,85.495L658.522,86.271L656.096,84.427L646.777,85.689L645.322,83.942L636.974,87.339L630.277,84.524L628.433,82.292L623.094,82.68L619.503,80.836L620.667,79.477L616.106,78.021L612.029,78.021L605.526,80.836L604.264,78.895L593.975,77.439L590.481,68.703L590.093,66.082L585.628,64.82L586.016,72.294L574.174,73.168L559.518,73.75L558.547,73.847L558.547,73.847Z" style="fill:rgb(249,249,249);"  data-color="color-1"/>
        </g>
    </g>
</svg>
