<svg width="100%" height="100%" viewBox="0 0 114 87" version="1.1" xmlns="http://www.w3.org/2000/svg" xmlns:xlink="http://www.w3.org/1999/xlink" xml:space="preserve" xmlns:serif="http://www.serif.com/" style="fill-rule:evenodd;clip-rule:evenodd;stroke-linejoin:round;stroke-miterlimit:2;">
    <g transform="matrix(1,0,0,1,-103.04,-268.47)">
        <g transform="matrix(0.965006,-0.262228,0.262228,0.965006,-92.5833,239.574)">
            <path id="OR" d="M162.238,162.757L177.671,167.416L219.214,178.87L223,179.84L225.718,180.52L250.275,186.344L263.961,189.352L266.678,189.935L267.067,187.897L276.288,149.654L273.667,143.442L273.958,141.015L284.053,127.814L288.809,115.876L285.509,112.284L285.411,110.44L285.411,110.343L283.567,109.955L256.293,103.743L254.837,104.422L249.498,103.549L238.724,104.713L232.124,103.84L225.135,103.743L224.553,101.996L209.799,100.637L204.558,97.822L203.878,95.978L204.461,88.698L200.967,84.912L200.675,85.01L199.996,85.495L195.143,82.971L192.231,83.845L190.29,82.874L188.251,91.222L186.892,93.551L180.874,108.208L179.127,116.264L178.06,116.361L172.43,129.756L168.645,135.482L167.286,136.453L163.791,143.247L163.112,150.43L160.977,156.836L162.238,162.66L162.238,162.757L162.238,162.757Z" style="fill:rgb(249,249,249);"   data-color="color-1"/>
        </g>
    </g>
</svg>
