<svg width="100%" height="100%" viewBox="0 0 104 51" version="1.1" xmlns="http://www.w3.org/2000/svg" xmlns:xlink="http://www.w3.org/1999/xlink" xml:space="preserve" xmlns:serif="http://www.serif.com/" style="fill-rule:evenodd;clip-rule:evenodd;stroke-linejoin:round;stroke-miterlimit:2;">
    <g transform="matrix(1,0,0,1,-344.822,-809.206)">
        <g transform="matrix(0.973971,-0.226673,0.226673,0.973971,-91.7839,427.368)">
            <path id="HI" d="M416.35,514.999L413.341,512.767L410.72,513.446L411.302,518.882L407.711,523.347L410.817,530.432L411.691,537.712L415.282,540.042L417.514,536.45L421.494,533.538L426.347,532.276L431.686,527.715L426.444,523.25L426.347,520.532L416.35,514.999L416.35,514.999ZM391.404,502.963L391.793,499.372L389.948,499.081L391.404,502.963ZM397.519,497.043L395.869,497.819L397.034,501.507L399.558,501.702L400.334,504.905L403.052,506.069L409.07,503.255L403.44,498.596L397.519,497.043ZM385.095,493.063L384.222,495.684L388.395,495.587L392.278,496.557L390.24,493.354L385.095,493.063L385.095,493.063ZM372.865,485.395L370.633,483.26L366.362,486.56L369.08,491.607L371.021,489.569L376.554,490.733L376.068,488.404L372.865,485.395ZM344.814,472.291L338.02,474.815L337.34,476.659L340.058,478.601L343.844,479.571L346.561,474.233L344.814,472.291Z" style="fill:rgb(249,249,249);"  data-color="color-1"/>
        </g>
    </g>
</svg>
