<svg width="100%" height="100%" viewBox="0 0 91 145" version="1.1" xmlns="http://www.w3.org/2000/svg" xmlns:xlink="http://www.w3.org/1999/xlink" xml:space="preserve" xmlns:serif="http://www.serif.com/" style="fill-rule:evenodd;clip-rule:evenodd;stroke-linejoin:round;stroke-miterlimit:2;">
    <g transform="matrix(1,0,0,1,-258.053,-479.774)">
        <g transform="matrix(0.987322,-0.158729,0.158729,0.987322,-34.8146,477.29)">
            <path id="ID" d="M309.095,52.882L300.456,51.135L297.641,50.455L296.38,50.164L285.12,100.831L285.606,105.005L285.217,109.372L285.412,110.343L285.412,110.44L285.509,112.284L288.809,115.876L284.053,127.814L273.958,141.015L273.667,143.442L276.288,149.654L267.067,187.897L266.678,189.935L269.396,190.517L296.865,195.953L307.833,197.991L310.648,198.476L313.366,198.962L327.343,201.194L352.385,204.98L355.2,205.368L355.588,202.165L356.462,195.856L359.762,170.619L361.509,158.098L361.897,154.895L361.315,154.604L358.306,149.168L355.782,152.469L345.591,151.401L337.534,151.498L336.564,152.274L332.778,144.509L331.808,143.733L326.372,130.435L325.596,125.97L315.986,125.291L317.831,119.952L319.189,119.564L322.587,103.646L319.675,103.84L318.995,101.802L311.813,89.766L309.289,87.63L307.445,82.583L308.318,81.807L306.862,76.274L305.018,72.683L309.192,52.882L309.095,52.882L309.095,52.882Z" style="fill:rgb(249,249,249);"  data-color="color-1"/>
        </g>
    </g>
</svg>
