<svg width="100%" height="100%" viewBox="0 0 114 84" version="1.1" xmlns="http://www.w3.org/2000/svg" xmlns:xlink="http://www.w3.org/1999/xlink" xml:space="preserve" xmlns:serif="http://www.serif.com/" style="fill-rule:evenodd;clip-rule:evenodd;stroke-linejoin:round;stroke-miterlimit:2;">
    <g transform="matrix(1,0,0,1,-232.49,-837.461)">
        <g transform="matrix(0.996096,-0.0882788,0.0882788,0.996096,-168.111,645.117)">
            <path id="CO" d="M489.632,255.55L490.021,236.525L485.362,236.331L461.678,235.457L459.349,235.36L457.407,235.263L428.58,233.419L409.361,231.866L385.387,229.537L383.057,229.245L382.766,231.769L377.524,282.339L375.68,300.004L374.904,307.672L374.71,310.196L377.719,310.487L426.638,314.758L448.186,316.117L469.637,317.087L472.743,317.185L474.685,317.282L478.761,317.379L480.703,317.476L486.817,317.67L488.37,317.67L488.37,315.729L489.438,264.382L489.535,258.656L489.535,256.811L489.632,255.55L489.632,255.55Z" style="fill:rgb(249,249,249);"  data-color="color-1"/>
        </g>
    </g>
</svg>
