<svg width="100%" height="100%" viewBox="0 0 114 70" version="1.1" xmlns="http://www.w3.org/2000/svg" xmlns:xlink="http://www.w3.org/1999/xlink" xml:space="preserve" xmlns:serif="http://www.serif.com/" style="fill-rule:evenodd;clip-rule:evenodd;stroke-linejoin:round;stroke-miterlimit:2;">
    <g transform="matrix(1,0,0,1,-461.729,-1019.16)">
        <g transform="matrix(0.999849,-0.0173539,0.0173539,0.999849,-2.87116,893.693)">
            <path id="SD" d="M566.895,135.579L550.491,136.065L510.986,136.356L468.181,135.191L464.396,134.997L464.299,137.23L463.911,146.062L463.619,152.76L463.522,154.119L463.231,154.119L463.134,156.642L462.163,177.025L461.387,192.167L461.29,194.788L464.202,194.885L497.106,195.953L524.963,196.244L544.085,196.05L550.2,199.932L555.344,198.476L558.741,198.574L569.321,201.68L572.33,204.689L574.174,204.883L574.174,204.203L572.039,201L573.398,195.856L571.748,185.082L573.786,184.985L573.592,180.52L568.739,146.354L566.215,142.083L570.097,135.677L570.195,135.385L566.894,135.58L566.895,135.579Z" style="fill:rgb(249,249,249);"   data-color="color-1"/>
        </g>
    </g>
</svg>
