<svg width="100%" height="100%" viewBox="0 0 229 215" version="1.1" xmlns="http://www.w3.org/2000/svg" xmlns:xlink="http://www.w3.org/1999/xlink" xml:space="preserve" xmlns:serif="http://www.serif.com/" style="fill-rule:evenodd;clip-rule:evenodd;stroke-linejoin:round;stroke-miterlimit:2;">
    <g transform="matrix(1,0,0,1,-45.1498,-39.7592)">
        <g transform="matrix(1,0,0,1,-360.911,-287.52)">
            <path id="TX" d="M472.355,327.376L471.676,327.279L468.375,418.324L449.157,417.451L418.388,415.704L406.061,414.83L408.488,419.586L419.067,430.166L425.085,437.252L433.045,443.173L438.674,453.461L440.81,464.235L445.372,467.244L448.963,471.224L454.107,473.068L461.581,477.824L464.978,479.086L469.637,474.427L471.093,469.477L473.52,464.721L481.091,461.712L484.003,463.168L492.447,463.847L500.115,468.603L505.357,469.574L503.901,472.291L506.91,474.233L509.724,477.63L510.307,481.221L512.151,483.648L516.422,493.937L520.693,497.528L523.993,502.963L528.166,507.234L530.011,507.817L531.564,518.882L536.126,521.405L536.32,524.9L537.484,524.608L545.444,534.315L549.423,535.188L554.471,538.197L562.236,538.197L567.865,541.303L574.563,539.847L571.554,537.033L568.836,528.879L567.768,521.794L566.215,519.464L566.895,514.708L564.856,514.514L562.138,510.049L565.245,513.349L568.836,512.087L570.777,506.943L566.895,501.702L572.718,502.381L575.436,498.207L575.048,496.751L577.474,493.548L576.892,496.363L579.61,494.228L578.542,490.442L582.036,492.286L586.501,489.763L582.133,485.201L584.851,486.269L589.899,486.56L596.499,485.104L603.876,480.154L608.341,476.465L609.02,473.747L611.738,470.933L610.282,466.274L610.573,463.362L615.426,461.226L615.038,466.371L617.95,466.371L614.747,469.088L627.656,462.294L629.791,462.197L631.15,455.985L631.539,455.985L632.995,452.393L633.674,441.328L634.548,436.863L632.024,428.904L628.918,423.469L628.821,420.848L625.618,416.383L623.676,397.65L623.579,395.32L623.385,392.894L622.803,384.352L616.979,384.546L615.523,382.993L615.232,382.896L615.135,382.896L611.349,382.217L606.982,379.402L602.128,377.364L593.004,379.984L590.578,379.402L587.569,380.567L583.881,383.576L573.98,378.917L570.874,383.187L566.312,381.537L561.459,378.431L558.838,380.664L556.315,380.761L556.315,378.917L549.52,375.714L546.802,376.975L545.444,375.422L537.97,374.646L532.243,369.405L531.369,371.152L527.196,370.958L523.313,367.269L521.566,361.445L521.275,328.25L496.427,327.959L472.937,327.376L472.355,327.376L472.355,327.376Z" style="fill:rgb(249,249,249);"   data-color="color-1"/>
        </g>
    </g>
</svg>
