
<svg width="100%" height="100%" viewBox="0 0 106 94" version="1.1" xmlns="http://www.w3.org/2000/svg" xmlns:xlink="http://www.w3.org/1999/xlink" xml:space="preserve" xmlns:serif="http://www.serif.com/" style="fill-rule:evenodd;clip-rule:evenodd;stroke-linejoin:round;stroke-miterlimit:2;">
    <g transform="matrix(1,0,0,1,-530.081,-1329.54)">
        <g transform="matrix(0.996287,0.0860919,-0.0860919,0.996287,-33.535,1036.6)">
            <path id="MO" d="M653.669,242.446L648.913,238.272L628.044,240.893L606.787,242.737L586.89,243.32L586.792,243.902L589.219,248.561L591.451,250.114L594.072,254.773L594.46,255.161L595.431,255.938L597.761,257.588L600.284,257.491L601.643,259.917L598.246,264.091L601.74,267.197L602.128,269.138L606.496,271.662L608.923,312.72L609.02,315.243L609.214,317.767L609.311,320.291L609.505,322.911L609.602,325.435L614.164,325.144L645.419,322.62L682.4,319.029L684.244,322.814L679.973,329.609L690.456,328.056L690.553,328.056L690.553,327.279L690.747,322.814L692.688,320.388L692.106,317.67L691.912,317.476L692.3,316.214L692.883,316.408L693.174,317.184L693.077,317.476L693.077,318.349L693.465,318.446L694.241,317.476L694.241,317.379L694.338,317.087L696.862,315.534L697.25,315.34L698.124,307.381L697.93,306.993L697.639,306.896L690.747,301.266L691.815,299.228L689.874,293.695L686.379,290.977L679.779,288.066L675.605,284.668L676.091,277.68L677.352,271.177L670.364,271.565L668.228,269.332L667.258,264.867L656.193,255.549L653.087,246.911L653.863,242.64L653.669,242.446L653.669,242.446Z" style="fill:rgb(249,249,249);"  data-color="color-1"/>
        </g>
    </g>
</svg>
