<svg width="100%" height="100%" viewBox="0 0 107 126" version="1.1" xmlns="http://www.w3.org/2000/svg" xmlns:xlink="http://www.w3.org/1999/xlink" xml:space="preserve" xmlns:serif="http://www.serif.com/" style="fill-rule:evenodd;clip-rule:evenodd;stroke-linejoin:round;stroke-miterlimit:2;">
    <g transform="matrix(1,0,0,1,-439.528,-27.7412)">
        <g transform="matrix(1,0,0,1,171.782,-271.195)">
            <path id="AZ" d="M372.186,309.905L339.476,305.828L321.907,303.305L296.865,299.325L294.341,298.937L294.341,299.131L290.071,317.961L287.838,317.864L284.441,314.855L280.17,318.446L280.073,333.879L278.52,337.18L278.52,337.568L278.326,339.994L281.723,349.118L284.732,353.195L279.296,356.398L277.161,360.378L273.667,368.919L271.92,369.307L271.823,376.393L274.832,378.626L273.279,382.896L269.784,383.09L267.746,386.876L274.734,391.244L287.935,398.621L328.702,420.266L363.256,424.536L363.644,424.536L366.362,395.903L367.042,388.817L374.321,313.69L374.71,310.196L372.186,309.905L372.186,309.905Z" style="fill:rgb(249,249,249);"  data-color="color-1"/>
        </g>
    </g>
</svg>
