<svg width="100%" height="100%" viewBox="0 0 786 786" version="1.1" xmlns="http://www.w3.org/2000/svg" xmlns:xlink="http://www.w3.org/1999/xlink" xml:space="preserve" xmlns:serif="http://www.serif.com/" style="fill-rule:evenodd;clip-rule:evenodd;stroke-linejoin:round;stroke-miterlimit:2;">
    <g transform="matrix(1,0,0,1,-119.053,-119.184)">
        <path d="M499.876,119.376C716.895,112.659 898.235,283.21 904.826,500.233C911.417,717.256 740.761,898.498 523.734,904.963C306.885,911.424 125.824,740.937 119.238,524.092C112.652,307.246 283.034,126.087 499.876,119.376ZM504.757,136.167C712.356,132.128 883.947,297.096 888.08,504.693C892.212,712.29 727.321,883.956 519.726,888.182C311.999,892.41 140.2,727.392 136.065,519.663C131.93,311.934 297.026,140.209 504.757,136.167Z"   data-color="color-3"/>
        <path d="M504.757,136.167C712.356,132.128 883.947,297.096 888.08,504.693C892.212,712.29 727.321,883.956 519.726,888.182C311.999,892.41 140.2,727.392 136.065,519.663C131.93,311.934 297.026,140.209 504.757,136.167ZM493.852,151.643C693.039,141.567 862.67,294.893 872.705,494.082C882.741,693.27 729.38,862.87 530.19,872.865C331.056,882.858 161.516,729.551 151.483,530.419C141.45,331.288 294.723,161.716 493.852,151.643Z" style="fill:rgb(0,143,245);"   data-color="color-1"/>
        <path d="M493.852,151.643C693.039,141.567 862.67,294.893 872.705,494.082C882.741,693.27 729.38,862.87 530.19,872.865C331.056,882.858 161.516,729.551 151.483,530.419C141.45,331.288 294.723,161.716 493.852,151.643ZM527.355,233.535C528.552,233.369 529.116,233.506 530.218,234.111C541.796,240.472 553.437,246.925 565.018,253.258C588.948,266.111 612.763,279.179 636.459,292.461C671.128,311.795 708.154,331.12 742.06,351.357C738.884,361.931 732.2,380.828 728.276,391.239C724.645,393.117 721.004,394.975 717.352,396.812L717.379,448.393C710.517,452.405 702.122,456.312 694.933,460.335C693.504,465.431 691.997,470.506 690.413,475.556C686.482,477.832 682.532,480.077 678.565,482.29C679.471,489.085 679.76,498.265 680.18,505.247L682.337,538.223L688.432,636.828C689.244,650 689.874,673.777 692.416,687.206C693.252,691.621 700.719,694.288 701.038,703.601C708.506,704.399 717.171,704.112 724.741,704.021C726.811,714.849 730.101,726.172 732.968,736.893C739.924,736.11 753.371,736.353 760.93,736.228C756.949,740.929 751.274,746.483 746.905,750.891C738.938,751.137 726.694,750.54 718.478,750.302L668.498,748.812L540.526,745.374L416.269,741.865C397.931,741.328 374.032,741.313 356.056,739.903C356.274,746.206 356.689,752.734 357.003,759.053C360.258,759.468 366.038,759.409 369.498,759.483L392.531,759.984C416.772,760.438 441.01,761.015 465.245,761.716L729.544,768.044C723.45,772.231 717.697,777.096 712.178,782.007C683.152,781.932 651.962,780.718 622.753,780.05L431.14,775.732C414.292,775.412 397.197,774.519 380.446,774.45C380.666,780.661 381.129,786.732 381.579,792.928C390.814,792.471 404.024,793.033 413.399,793.324L445.001,794.02L543.23,796.035C590.607,796.244 639.683,797.947 687.246,798.781C682.136,801.983 664.914,813.07 660.312,813.319C643.351,814.234 620.98,812.822 604.028,812.62C569.127,812.263 534.23,811.613 499.339,810.671C476.659,810.211 452.441,810.153 429.853,808.939C441.966,815.291 470.399,825.13 484.353,828.67C487.706,829.521 515.085,829.451 520.911,829.604L576.359,830.58C589.328,830.861 604.62,831.64 617.308,831.23C594.601,839.22 571.057,844.595 547.133,847.25C483.293,853.925 418.874,842.235 361.449,813.554C338.864,802.14 315.123,786.067 295.437,770.146C308.545,758.417 320.978,742.67 333.571,730.12C339.537,724.174 346.392,716.717 351.674,710.292C346.809,709.98 338.592,710.57 333.639,710.929C317.905,727.411 302.265,744.759 286.137,760.782C267.741,743.671 246.488,717.439 232.046,697.071C239.25,696.145 250.561,695.63 257.926,695.403C258.303,686.09 259.409,675.275 260.136,665.801L265.447,598.823L271.409,523.422C272.532,508.948 273.41,492.609 275.007,478.304C269.714,480.647 262.206,484.878 256.903,487.673C256.884,475.518 257.828,460.155 258.158,447.71C254.654,446.642 250.862,445.66 247.312,444.672C245.118,435.382 240.182,410.356 235.359,403.876C243.537,397.069 256.128,384.019 263.814,376.408L304.459,336.433C310.115,330.759 315.833,325.147 321.611,319.597C324.633,316.664 327.618,313.423 330.973,310.878C336.959,306.336 368.347,295.164 377.647,291.466C407.502,279.453 437.487,267.767 467.599,256.412C487.846,248.578 506.852,240.869 527.355,233.535Z" style="fill:white;"   data-color="color-2"/>
        <path d="M527.355,233.535C528.552,233.369 529.116,233.506 530.218,234.111C541.796,240.472 553.437,246.925 565.018,253.258C588.948,266.111 612.763,279.179 636.459,292.461C671.128,311.795 708.154,331.12 742.06,351.357C738.884,361.931 732.2,380.828 728.276,391.239C724.645,393.117 721.004,394.975 717.352,396.812L717.379,448.393C710.517,452.405 702.122,456.312 694.933,460.335C693.504,465.431 691.997,470.506 690.413,475.556C686.482,477.832 682.532,480.077 678.565,482.29C679.471,489.085 679.76,498.265 680.18,505.247L682.337,538.223L688.432,636.828C689.244,650 689.874,673.777 692.416,687.206C693.252,691.621 700.719,694.288 701.038,703.601C708.506,704.399 717.171,704.112 724.741,704.021C726.811,714.849 730.101,726.172 732.968,736.893C739.924,736.11 753.371,736.353 760.93,736.228C756.949,740.929 751.274,746.483 746.905,750.891C738.938,751.137 726.694,750.54 718.478,750.302L668.498,748.812L540.526,745.374L416.269,741.865C397.931,741.328 374.032,741.313 356.056,739.903C356.274,746.206 356.689,752.734 357.003,759.053C360.258,759.468 366.038,759.409 369.498,759.483L392.531,759.984C416.772,760.438 441.01,761.015 465.245,761.716L729.544,768.044C723.45,772.231 717.697,777.096 712.178,782.007C683.152,781.932 651.962,780.718 622.753,780.05L431.14,775.732C414.292,775.412 397.197,774.519 380.446,774.45C380.666,780.661 381.129,786.732 381.579,792.928C390.814,792.471 404.024,793.033 413.399,793.324L445.001,794.02L543.23,796.035C590.607,796.244 639.683,797.947 687.246,798.781C682.136,801.983 664.914,813.07 660.312,813.319C643.351,814.234 620.98,812.822 604.028,812.62C569.127,812.263 534.23,811.613 499.339,810.671C476.659,810.211 452.441,810.153 429.853,808.939C441.966,815.291 470.399,825.13 484.353,828.67C487.706,829.521 515.085,829.451 520.911,829.604L576.359,830.58C589.328,830.861 604.62,831.64 617.308,831.23C594.601,839.22 571.057,844.595 547.133,847.25C483.293,853.925 418.874,842.235 361.449,813.554C338.864,802.14 315.123,786.067 295.437,770.146C308.545,758.417 320.978,742.67 333.571,730.12C339.537,724.174 346.392,716.717 351.674,710.292C346.809,709.98 338.592,710.57 333.639,710.929C317.905,727.411 302.265,744.759 286.137,760.782C267.741,743.671 246.488,717.439 232.046,697.071C239.25,696.145 250.561,695.63 257.926,695.403C258.303,686.09 259.409,675.275 260.136,665.801L265.447,598.823L271.409,523.422C272.532,508.948 273.41,492.609 275.007,478.304C269.714,480.647 262.206,484.878 256.903,487.673C256.884,475.518 257.828,460.155 258.158,447.71C254.654,446.642 250.862,445.66 247.312,444.672C245.118,435.382 240.182,410.356 235.359,403.876C243.537,397.069 256.128,384.019 263.814,376.408L304.459,336.433C310.115,330.759 315.833,325.147 321.611,319.597C324.633,316.664 327.618,313.423 330.973,310.878C336.959,306.336 368.347,295.164 377.647,291.466C407.502,279.453 437.487,267.767 467.599,256.412C487.846,248.578 506.852,240.869 527.355,233.535ZM356.058,401.181C355.813,405.965 355.603,410.751 355.429,415.538C365.601,415.701 376.878,416.622 387.096,417.243L444.807,420.846L624.016,431.974L673.196,435.037C681.078,435.529 691.771,436.503 699.523,436.585L699.55,423.112L511.37,411.013L408.959,404.458C391.696,403.359 373.186,402.652 356.058,401.181ZM541.792,438.02C534.806,440.799 527.678,444.575 520.94,447.999L520.121,457.838C523.847,456.671 535.248,452.911 538.716,452.601C546.275,451.926 558.455,453.322 566.376,453.833C571.779,454.203 590.93,457.062 592.534,447.849C592.917,445.651 589.891,442.58 588.273,441.158C582.837,440.263 576.908,440.277 571.364,439.906C561.592,439.253 551.528,438.949 541.792,438.02ZM527.035,252.03C503.677,262.434 475.728,271.538 451.676,281.082C416.893,294.885 382.329,309.533 347.453,322.978L347.485,340.844C318.672,362.502 289.59,387.121 260.857,409.265C261.166,414.476 261.428,419.814 261.807,425.01C273.694,416.334 286.608,405.596 298.262,396.353L352.409,353.427L402.376,356.882L600.949,370.892L670.327,375.805C685.332,376.874 702.276,378.367 717.273,378.775L717.328,356.722C675.976,333.298 632.206,309.643 590.338,287.03L548.057,264.102C542.533,261.059 531.68,255.375 527.035,252.03ZM525.853,272.511C528.036,272.626 544.703,282.251 547.92,284.03L589.358,306.914C605.972,315.88 622.53,324.948 639.032,334.119C648.245,339.152 658.491,344.383 667.412,349.769C662.12,348.758 654.816,348.326 649.354,347.875L620.329,345.554L534.12,339.1C519.643,338.288 504.475,336.92 489.962,335.863L382.89,327.844C430.621,309.176 478.261,291.687 525.853,272.511ZM355.998,371.426C355.816,376.239 355.579,381.141 355.459,385.947C365.653,386.08 377.368,387.009 387.614,387.667L438.17,390.986L600.261,401.405L663.806,405.785C675.041,406.56 688.419,407.801 699.541,408.075L699.553,394.33L355.998,371.426ZM626.862,443.48L608.116,452.591C607.946,455.784 607.809,458.646 607.398,461.822C611.152,460.917 621.383,458.277 624.608,458.125C635.35,457.618 647.605,459.199 658.521,459.558C664.427,460.078 670.811,461.492 676.139,457.844C681.104,454.444 678.246,447.273 673.391,446.743C657.989,445.061 642.327,445.186 626.862,443.48ZM355.87,427.063C350.114,429.654 342.25,433.478 336.739,436.538C336.575,439.907 336.477,443.747 336.179,447.066C339.323,446.077 351.675,442.064 354.068,441.813C364.129,440.759 377.405,442.731 388.018,443.109C394.003,443.632 410.174,446.213 411.845,437.456C412.3,435.073 409.46,431.901 407.922,430.264C398.008,428.974 386.294,428.903 376.188,428.063C372.981,427.797 358.366,426.746 355.87,427.063ZM555.758,469.215C553.961,470.839 554.244,473.908 554.106,476.595L547.166,629.254C546.397,648.235 544.679,669.865 544.401,688.518C539.87,692.766 537.048,695.82 533.448,700.897L579.466,702.224C586.685,702.477 593.909,702.588 601.133,702.557C597.487,696.995 593.501,693.327 588.875,688.626L576.953,469.845C569.171,469.107 563.692,468.847 555.758,469.215ZM368.621,708.087C368.356,714.178 368.075,719.894 367.495,725.973L716.859,736.035C717.748,733.644 713.736,722.059 713.044,718.256L487.017,711.728L407.377,709.229C394.725,708.849 381.2,708.158 368.621,708.087ZM642.289,475.245C640.389,477.287 639.935,504.659 639.717,509.576L636.92,570.499L633.488,645.293C632.777,659.773 631.628,675.857 631.402,690.235C627.16,694.862 624.014,698.509 620.072,703.411C629.652,703.765 639.235,704.064 648.819,704.306C653.07,704.412 660.337,704.344 664.377,704.726C671.998,705.064 679.824,704.904 687.468,704.839C683.624,698.805 680.707,696.791 676.025,691.657C672.187,640.71 670.317,588.891 666.418,537.88C664.946,518.62 664.672,494.229 662.442,475.69C654.745,474.918 650.056,474.771 642.289,475.245ZM378.297,459.706C376.259,459.875 373.786,460.009 371.797,460.275C370.234,478.052 369.543,496.953 368.795,514.824C366.455,570.692 362.68,626.717 360.685,682.572C357.071,686.834 353.248,690.627 349.752,694.991C352.867,695.473 355.956,695.611 359.102,695.692C369.951,695.972 380.905,696.713 391.75,696.834C401.342,697.126 409.613,697.507 419.235,696.922C415.517,691.856 410.988,687.688 406.611,683.134C406.161,668.552 405.041,653.169 404.205,638.548L399.874,560.853L396.13,493.625C395.553,484.031 395.082,469.977 394.023,460.685C389.269,459.572 383.164,459.334 378.297,459.706ZM465.876,464.249C465.24,464.358 464.09,464.293 463.748,464.897C462.031,467.933 456.182,658.699 453.389,686.242C448.333,690.645 446.343,692.938 442.354,698.336C457.972,698.942 472.948,699.581 488.584,699.635C496.606,700.244 503.492,699.949 511.499,699.573C507.789,694.026 503.469,690.459 498.586,685.969C498.034,667.555 496.757,648.655 495.724,630.245L491.279,549.784L488.364,495.71C487.834,485.979 487.527,474.173 486.354,464.691C479.458,464.236 472.794,463.695 465.876,464.249ZM449.482,432.46C443.136,435.351 435.164,439.534 429.119,442.069L428.877,452.312C432.905,451.055 444.369,447.243 448.079,446.93C456.364,446.233 467.995,447.741 476.62,448.159C482.544,448.651 489.458,449.203 495.36,449.028C498.952,446.979 502.785,444.38 500.78,439.138C500.045,437.216 496.512,435.625 494.535,435.393C481.909,433.914 469.033,433.889 456.348,432.75C454.087,432.547 451.739,432.386 449.482,432.46Z" style="fill:rgb(0,143,245);"   data-color="color-1"/>
        <path d="M527.035,252.03C531.68,255.375 542.533,261.059 548.057,264.102L590.338,287.03C632.206,309.643 675.976,333.298 717.328,356.722L717.273,378.775C702.276,378.367 685.332,376.874 670.327,375.805L600.949,370.892L402.376,356.882L352.409,353.427L298.262,396.353C286.608,405.596 273.694,416.334 261.807,425.01C261.428,419.814 261.166,414.476 260.857,409.265C289.59,387.121 318.672,362.502 347.485,340.844L347.453,322.978C382.329,309.533 416.893,294.885 451.676,281.082C475.728,271.538 503.677,262.434 527.035,252.03ZM525.853,272.511C478.261,291.687 430.621,309.176 382.89,327.844L489.962,335.863C504.475,336.92 519.643,338.288 534.12,339.1L620.329,345.554L649.354,347.875C654.816,348.326 662.12,348.758 667.412,349.769C658.491,344.383 648.245,339.152 639.032,334.119C622.53,324.948 605.972,315.88 589.358,306.914L547.92,284.03C544.703,282.251 528.036,272.626 525.853,272.511ZM368.621,708.087C381.2,708.158 394.725,708.849 407.377,709.229L487.017,711.728L713.044,718.256C713.736,722.059 717.748,733.644 716.859,736.035L367.495,725.973C368.075,719.894 368.356,714.178 368.621,708.087ZM355.998,371.426L699.553,394.33L699.541,408.075C688.419,407.801 675.041,406.56 663.806,405.785L600.261,401.405L438.17,390.986L387.614,387.667C377.368,387.009 365.653,386.08 355.459,385.947C355.579,381.141 355.816,376.239 355.998,371.426ZM356.058,401.181C373.186,402.652 391.696,403.359 408.959,404.458L511.37,411.013L699.55,423.112L699.523,436.585C691.771,436.503 681.078,435.529 673.196,435.037L624.016,431.974L444.807,420.846L387.096,417.243C376.878,416.622 365.601,415.701 355.429,415.538C355.603,410.751 355.813,405.965 356.058,401.181ZM378.297,459.706C383.164,459.334 389.269,459.572 394.023,460.685C395.082,469.977 395.553,484.031 396.13,493.625L399.874,560.853L404.205,638.548C405.041,653.169 406.161,668.552 406.611,683.134C410.988,687.688 415.517,691.856 419.235,696.922C409.613,697.507 401.342,697.126 391.75,696.834C380.905,696.713 369.951,695.972 359.102,695.692C355.956,695.611 352.867,695.473 349.752,694.991C353.248,690.627 357.071,686.834 360.685,682.572C362.68,626.717 366.455,570.692 368.795,514.824C369.543,496.953 370.234,478.052 371.797,460.275C373.786,460.009 376.259,459.875 378.297,459.706ZM465.876,464.249C472.794,463.695 479.458,464.236 486.354,464.691C487.527,474.173 487.834,485.979 488.364,495.71L491.279,549.784L495.724,630.245C496.757,648.655 498.034,667.555 498.586,685.969C503.469,690.459 507.789,694.026 511.499,699.573C503.492,699.949 496.606,700.244 488.584,699.635C472.948,699.581 457.972,698.942 442.354,698.336C446.343,692.938 448.333,690.645 453.389,686.242C456.182,658.699 462.031,467.933 463.748,464.897C464.09,464.293 465.24,464.358 465.876,464.249ZM555.758,469.215C563.692,468.847 569.171,469.107 576.953,469.845L588.875,688.626C593.501,693.327 597.487,696.995 601.133,702.557C593.909,702.588 586.685,702.477 579.466,702.224L533.448,700.897C537.048,695.82 539.87,692.766 544.401,688.518C544.679,669.865 546.397,648.235 547.166,629.254L554.106,476.595C554.244,473.908 553.961,470.839 555.758,469.215ZM642.289,475.245C650.056,474.771 654.745,474.918 662.442,475.69C664.672,494.229 664.946,518.62 666.418,537.88C670.317,588.891 672.187,640.71 676.025,691.657C680.707,696.791 683.624,698.805 687.468,704.839C679.824,704.904 671.998,705.064 664.377,704.726C660.337,704.344 653.07,704.412 648.819,704.306C639.235,704.064 629.652,703.765 620.072,703.411C624.014,698.509 627.16,694.862 631.402,690.235C631.628,675.857 632.777,659.773 633.488,645.293L636.92,570.499L639.717,509.576C639.935,504.659 640.389,477.287 642.289,475.245ZM355.87,427.063C358.366,426.746 372.981,427.797 376.188,428.063C386.294,428.903 398.008,428.974 407.922,430.264C409.46,431.901 412.3,435.073 411.845,437.456C410.174,446.213 394.003,443.632 388.018,443.109C377.405,442.731 364.129,440.759 354.068,441.813C351.675,442.064 339.323,446.077 336.179,447.066C336.477,443.747 336.575,439.907 336.739,436.538C342.25,433.478 350.114,429.654 355.87,427.063ZM449.482,432.46C451.739,432.386 454.087,432.547 456.348,432.75C469.033,433.889 481.909,433.914 494.535,435.393C496.512,435.625 500.045,437.216 500.78,439.138C502.785,444.38 498.952,446.979 495.36,449.028C489.458,449.203 482.544,448.651 476.62,448.159C467.995,447.741 456.364,446.233 448.079,446.93C444.369,447.243 432.905,451.055 428.877,452.312L429.119,442.069C435.164,439.534 443.136,435.351 449.482,432.46ZM541.792,438.02C551.528,438.949 561.592,439.253 571.364,439.906C576.908,440.277 582.837,440.263 588.273,441.158C589.891,442.58 592.917,445.651 592.534,447.849C590.93,457.062 571.779,454.203 566.376,453.833C558.455,453.322 546.275,451.926 538.716,452.601C535.248,452.911 523.847,456.671 520.121,457.838L520.94,447.999C527.678,444.575 534.806,440.799 541.792,438.02ZM626.862,443.48C642.327,445.186 657.989,445.061 673.391,446.743C678.246,447.273 681.104,454.444 676.139,457.844C670.811,461.492 664.427,460.078 658.521,459.558C647.605,459.199 635.35,457.618 624.608,458.125C621.383,458.277 611.152,460.917 607.398,461.822C607.809,458.646 607.946,455.784 608.116,452.591L626.862,443.48Z" style="fill:white;"   data-color="color-2"/>
    </g>
</svg>
