<?xml version="1.0" encoding="UTF-8" standalone="no"?>
<!DOCTYPE svg PUBLIC "-//W3C//DTD SVG 1.1//EN" "http://www.w3.org/Graphics/SVG/1.1/DTD/svg11.dtd">
<svg width="100%" height="100%" viewBox="0 0 1334 841" version="1.1" xmlns="http://www.w3.org/2000/svg" xmlns:xlink="http://www.w3.org/1999/xlink" xml:space="preserve" xmlns:serif="http://www.serif.com/" style="fill-rule:evenodd;clip-rule:evenodd;stroke-linejoin:round;stroke-miterlimit:2;">
    <g transform="matrix(1,0,0,1,-50.0433,-100.779)">
        <path d="M1191.91,652.047C1199.44,652.033 1206.97,651.97 1214.49,651.859C1220.6,646.95 1226.17,639.535 1231.06,633.439C1252.93,606.426 1267.79,575.585 1274.71,541.555C1278.58,522.513 1280.5,500.879 1277.64,481.542C1272.1,444.128 1251.09,399.91 1225.9,371.572C1202.65,345.273 1176.09,322.094 1146.89,302.611C1074.96,254.529 972.538,220.794 887.31,207.018C856.713,202.366 825.911,199.195 795.009,197.516C767.061,195.778 739.953,194.042 711.808,195.556L669.768,197.606C658.047,198.26 651.001,199.711 638.99,198.987C637.266,197.474 635.224,195.575 633.681,193.931C615.865,174.939 594.635,159.049 570.833,148.357C565.336,145.887 559.355,143.145 554.111,139.944C566.935,141.252 577.891,137.695 590.509,136.034C646.093,128.713 707.387,125.161 763.239,126.413C923.385,130.003 1085.98,169.998 1217.56,264.287C1343.91,354.824 1407.56,515.648 1308.69,651.402C1322.93,650.894 1350.91,648.166 1360.36,658.056C1364.65,661.717 1368.93,670.672 1368.27,676.631C1364.13,714.171 1355.16,755.067 1348.1,791.877L1340.21,834.109C1337.02,851.445 1335.43,874.34 1318.2,883.574C1315.61,885.005 1311.24,887.489 1308.21,887.777C1293.25,889.196 1276.98,888.363 1261.98,888.306L1164.01,888.276L1016.14,888.456C996.98,888.584 975.808,887.814 956.921,889.015C953.379,889.24 933.651,894.787 929.319,895.964C914.9,899.979 900.387,903.653 885.794,906.982C813.336,923.694 733.625,927.563 659.448,923.259C624.209,921.215 584.341,913.937 549.787,906.654C535.413,903.743 521.126,900.421 506.943,896.691C497.863,894.286 484.986,890.185 476.167,888.832C469.259,887.773 455.006,888.355 447.676,888.444C436.62,888.57 425.562,888.547 414.507,888.373L261.523,888.115L140.402,887.957C124.911,887.878 104.349,889.073 89.449,887.363C58.071,883.764 66.884,850.899 70.846,829.851C74.199,812.038 78.413,792.768 81.735,774.426L93.819,703.678C95.421,694.715 96.741,681.859 99.68,673.566C108.235,649.427 127.248,648.006 147.561,648.224C145.191,643.876 140.71,637.819 137.865,633.424C132.965,625.701 128.601,617.652 124.801,609.332C97.803,549.551 96.97,478.358 120.762,417.503C160.889,314.868 263.147,239.72 360.287,196.184C372.495,203.892 409.844,235.132 411.483,249.308C411.265,249.928 411.046,250.549 410.828,251.17C401.616,256.388 380.022,265.22 371.486,269.768C364.041,273.532 356.664,277.43 349.358,281.459C274.522,325.044 203.509,383.882 181.975,471.048C170.074,519.224 182.427,555.46 201.734,599.367C267.75,494.81 338.521,400.326 449.268,339.352C451.571,315.971 447.812,300.219 440.487,278.13C433.347,256.594 424.874,238.47 410.377,220.721C393.783,200.406 371.751,183.619 348.285,172.027C342.295,169.069 326.89,164.575 323.218,160.758C319.413,156.802 318.444,149.2 318.896,143.984C319.41,138.053 321.651,134.168 326.255,130.427C343.713,116.245 368.629,116.453 389.917,116.79C397.539,116.911 405.263,116.851 412.848,117.672C419.932,118.44 426.891,120.127 433.922,121.249C500.85,131.936 589.306,159.606 632.821,214.543C644.27,228.998 654.689,254.524 671.045,262.933C676.002,265.482 683.178,266.77 688.716,267.386C702.719,268.943 717.516,266.726 731.591,266.377C753.181,265.84 775.573,266.936 797.074,269.136C838.522,273.378 880.497,283.195 920.539,294.51C1012.46,320.487 1108.17,358.425 1169.92,435.036C1195.06,466.224 1216.44,509.442 1211.94,550.579C1209.89,569.216 1203,588.125 1188,600.187C1150.56,630.29 1035.53,626.683 989.103,621.287C974.699,619.613 959.113,615.408 944.752,615.691C925.472,616.07 891.427,640.408 875.439,651.903C879.628,652.013 898.538,651.901 900.734,652.252C912.345,653.004 929.925,652.466 941.996,652.453L1018.12,652.372C1075.27,652.236 1135.2,653.397 1191.91,652.047ZM833.542,683.521C827.711,687.598 823.095,709.89 821.008,717.376L807.366,765.302L792.297,817.566C789.779,826.355 782.318,848.492 784.417,856.826C788.671,860.738 798.528,860.794 804.1,860.522C815.68,859.958 828.974,861.264 840.344,860.015C846.439,855.738 852.701,827.009 854.93,818.916L869.427,767.328L882.335,721.475C884.022,715.56 892.245,690.623 889.683,686.133C883.192,681.742 843.476,683.102 833.542,683.521ZM401.751,153.314C397.584,153.792 390.593,153.744 390.277,159.008C393.061,164.35 420.272,172.522 426.968,175.024C444.453,181.63 461.239,189.958 477.075,199.888C506.762,218.836 524.747,238.698 543.68,268.541C547.743,274.947 553.588,284.839 556.526,291.804C570.811,289.586 588.44,283.197 603.309,279.513C612.641,277.345 617.6,276.767 625.902,272.022C612.998,236.708 556.896,198.588 524.264,182.453C495.309,168.136 434.555,148.692 401.751,153.314ZM741.542,639.041C738.516,641.989 732.361,647.639 730.146,650.858L730.289,651.56C733.267,651.43 736.811,651.194 739.732,651.229C740.437,647.939 741.993,642.128 741.542,639.041ZM752.803,574.482C741.491,598.441 715.942,627.735 691.059,638.6C687.123,640.319 680.83,641.54 676.649,643.404C674.785,645.642 672.763,647.605 671.977,650.328L672.747,651.177C682.491,651.884 691.714,653.614 700.013,647.418C721.428,631.427 738.832,610.066 749.463,585.486C750.472,583.152 752.934,576.863 752.803,574.482ZM868.954,623.494C860.378,631.289 852.256,638.376 842.226,644.354C839.317,646.088 829.217,650.267 828.015,651.989C834.982,652.181 841.485,652.056 848.456,651.899C851.602,647.98 868.57,626.892 868.954,623.494ZM1069.27,683.745C1056.39,684.478 1046.53,687.31 1037.6,697.252C1033.57,701.74 1031.24,706.817 1029.1,712.426C1023.44,727.328 994.134,828.407 994.69,838.042C995.011,843.627 997.715,850.664 1002.02,854.372C1005.23,857.146 1009.68,859.364 1013.87,860.136C1025.9,862.35 1052.35,860.838 1065.67,860.812C1083.92,860.777 1107.91,862.087 1125.55,860.36C1128.77,860.045 1132.4,859.587 1135.25,857.949C1140.39,850.828 1163.4,770.208 1165.7,757.883C1164.14,754.413 1162.8,751.687 1158.97,750.273C1154.14,748.491 1107.75,748.85 1101.24,749.331C1098.75,749.515 1096.52,749.982 1094.17,750.808C1087.76,757.203 1082.21,782.3 1080.28,791.902C1079.67,794.895 1085.44,798.197 1087.7,799.521C1087.82,801.807 1088.08,800.771 1086.9,802.737C1082.7,803.682 1070.23,803.323 1065.11,803.35L1076.99,762.187C1078.57,756.685 1081.92,746.031 1082.8,740.682C1093.38,740.725 1160.24,742.477 1164.46,738.704C1168.14,735.406 1179.91,696.783 1179.6,690.811C1179.52,689.329 1179.14,688.421 1178.35,687.191C1173.1,683.723 1164.91,683.39 1158.77,683.518C1129.13,684.133 1098.85,682.786 1069.27,683.745ZM443.799,684.426C441.59,684.924 438.786,685.361 437.83,687.452C432.96,698.098 429.668,713.592 426.461,724.867L404.42,800.32C401.087,811.677 396.419,829.945 392.414,840.545L392.392,839.603C392.244,830.844 395.43,809.877 396.654,800.206L404.178,737.444C405.66,724.886 410.962,701.721 401.217,692.325C397.874,689.049 393.653,686.812 389.066,685.883C382.472,684.5 308.549,684.124 306.87,687.334C280.405,737.942 259.447,792.296 235.262,844.181C232.169,851.16 229.278,861.319 240.999,861.086C256.224,860.783 273.285,862.355 288.122,860.765C295.165,860.009 303.192,837.78 306.087,831.223L329.623,831.157C328.817,840.069 323.722,854.444 330.806,860.151C340.965,862.437 370.213,861.014 381.735,861.065C382.704,861.069 384.865,859.901 385.776,859.334C387.277,858.397 388.757,857.425 390.215,856.421C393.801,857.57 393.38,860.326 396.352,860.564C405.435,861.289 443.188,862.279 449.803,859.984C455.54,853.044 462.849,822.136 465.685,811.88C472.233,787.991 478.917,764.14 485.737,740.327L514.813,740.373L493.65,812.81C490.253,824.21 486.672,836.412 483.102,848.747C477.154,869.297 518.485,858.46 529.432,861.275C537.668,863.392 546.013,857.616 546.837,849.502C550.081,839.301 552.96,829.089 555.933,818.859L572.186,762.159C576.851,745.554 582.246,728.499 585.307,711.599C585.788,704.729 583.318,698.493 579.037,693.503C573.337,686.859 563.749,684.511 555.403,684.37C528.535,683.913 501.589,684.1 474.715,684.141C464.699,684.156 453.691,683.854 443.799,684.426ZM339.48,755.952C340.456,760.037 339.233,768.519 336.99,772.15C335.998,773.756 334.488,773.595 332.703,773.972C331.57,770.022 337.429,760.092 339.48,755.952ZM926.447,683.711C908.266,685.44 897.156,693.839 891.811,711.688C880.388,749.831 869.312,788.677 859.242,827.149C853.779,852.272 868.246,861.046 890.987,860.562C918.756,859.972 946.014,861.414 973.708,860.054C983.622,859.567 986.424,840.378 988.894,831.763C995.924,807.239 1000.12,801.216 971.609,801.515L929.619,801.384C930.028,800.234 931.666,795.37 932.088,794.504C945.563,794.604 984.274,796.338 986.147,791.551C1009.4,732.107 996.004,747.945 947.558,745.35C947.39,744.934 947.221,744.518 947.053,744.102C948.019,741.747 947.486,742.004 949.25,740.897C959.151,739.919 1005.67,743.917 1010.83,738.011C1015.14,733.085 1025.92,697.349 1025.04,690.512C1024.83,688.944 1024.13,687.791 1023.21,686.542C1018.76,683.541 1007.1,683.238 1001.66,683.456C977.125,684.436 950.833,682.372 926.447,683.711ZM157.163,685.15C147.67,686.454 141.446,689.692 135.407,697.1C127.822,706.406 109.861,773.031 110.973,780.205C111.871,786.212 115.178,791.594 120.132,795.107C123.007,797.11 126.276,798.478 129.721,799.118C142.191,801.496 160.348,798.863 173.44,799.757C176.619,799.975 185.354,798.564 186.68,801.32L186.095,802.911C178.735,805.006 134.733,802.891 124.122,803.554C119.809,803.824 112.203,802.98 107.451,804.265C105.261,804.857 103.665,805.617 102.716,807.752C98.498,817.231 88.715,847.276 90.646,856.338C92.45,859.02 94.807,860.27 97.962,860.888C104.922,862.249 201.29,861.832 209.221,860.366C223.053,856.394 236.206,845.955 238.795,831.689C241.728,815.529 259.191,773.104 254.487,758.639C252.604,752.775 248.424,747.925 242.903,745.197C230.912,739.358 197.554,744.921 182.105,741.978L181.986,741.402C194.472,738.554 255.964,745.091 262.431,736.438C265.488,732.347 276.755,692.48 274.897,687.67C270.708,685.286 262.187,684.821 257.365,685.028C224.643,686.433 189.602,683.441 157.163,685.15ZM677.085,683.695C674.936,684.318 672.031,685.024 671.061,687.289C668.816,692.531 667.251,698.335 665.718,703.851C652.755,750.502 638.505,796.798 626.016,843.578C624.96,847.534 624.323,852.603 624.487,856.68C627.67,860.962 641.562,860.73 646.742,860.502C679.302,859.069 715.349,862.548 747.577,860.101C751.289,859.799 754.941,858.986 758.43,857.685C767.112,854.319 777.221,847.188 780.39,838.241C786.281,821.615 790.745,803.348 795.543,786.37L807.382,744.29C810.27,733.993 813.707,723.358 815.168,712.503C817.45,695.546 805.056,684.185 788.568,683.726C760.502,682.945 732.615,683.631 704.553,683.462C695.629,683.409 685.915,683.175 677.085,683.695ZM718.136,740.473L746.625,740.486C741.034,760.908 734.32,781.874 728.421,802.346L700.543,802.418C706.105,781.809 712.514,761.155 718.136,740.473ZM1058.93,440.005C1032.31,416.985 1013.73,388.928 980.494,374.217C960.955,365.569 921.769,350.364 909.561,376.283C898.278,405.254 920.039,424.486 944.818,434.044C970.359,443.895 994.229,437.95 1020.2,441.297C1037.57,443.906 1057.06,452.076 1075.81,455.591C1069.87,448.832 1066.24,445.626 1058.93,440.005ZM612.863,651.256C621.613,651.352 630.364,651.348 639.114,651.244C662.282,592.588 693.655,564.476 731.761,517.93C715.223,527.18 680.621,550.733 669.562,566.009C656.489,579.586 639.481,599.298 624.268,609.567C596.737,626.964 564.688,635.069 532.551,636.336C483.183,638.284 446.724,616.554 434.916,566.732C432.095,554.827 428.37,544.157 413.834,545.78C364.486,551.291 321.003,591.416 287.62,625.386C280.81,632.515 270.295,643.406 265.662,650.644C381.396,650.116 497.132,650.32 612.863,651.256ZM1221.04,683.711C1204.43,685.238 1191.48,694.109 1186.3,710.497C1174.27,748.621 1163.89,787.634 1152.86,826.031C1149.4,838.093 1151.86,853.093 1164.68,857.674C1178.58,862.641 1199.75,861.126 1214.78,861.031C1232.2,860.92 1250.51,861.581 1267.69,860.811C1279.59,860.139 1288.94,856.487 1297.04,847.5C1301.35,842.721 1303.83,836.711 1305.99,830.722C1310.8,817.432 1338.53,717.251 1338.09,708.149C1337.76,701.202 1334.86,694.984 1329.59,690.416C1325.29,686.686 1319.09,685.125 1313.58,684.289C1301.15,682.402 1287.49,683.502 1274.88,683.518C1256.99,683.541 1238.92,683.075 1221.04,683.711ZM1240.9,740.522L1269.26,740.486C1263.58,757.404 1255.85,785.546 1251.39,803.131C1241.81,803.197 1232.23,803.188 1222.65,803.106C1229.07,782.51 1234.29,760.904 1240.9,740.522ZM1175.19,585.836C1172.72,581.673 1168.49,576.017 1163.75,574.258C1147.89,568.378 1130.5,566.05 1114.09,561.885C1088.73,555.448 1063.54,548.125 1039.97,536.57C1021.89,527.83 1001.55,517.475 981.507,514.725C965.368,512.509 944.203,518.658 928.985,523.736C928.377,530.243 928.411,537.561 928.302,544.169C927.31,564.358 925.212,577.463 914.789,595.26C928.334,599.079 943.077,600.35 956.967,602.421C974.276,605.002 992.517,608.332 1009.97,608.876C1059.73,610.427 1109.85,609.685 1158.21,596.442C1163.02,595.125 1173.31,591.865 1175.72,587.401L1175.19,585.836ZM339.214,486.999C365.755,464.211 395.39,437.231 434.626,444.077C449.142,446.609 445.354,465.202 449.501,476.631C458.762,502.156 546.736,495.947 550.887,478.111C549.667,472.708 541.759,470.244 536.786,469.821C510.351,467.57 489.908,450.6 505.528,423.512C510.395,415.072 531.97,419.526 540.566,418.917C545.478,418.57 549.95,418.214 555.12,417.46C565.645,416.072 578.273,414.805 588.209,411.63C568.071,402.135 529.315,404.638 513.559,384.259C507.488,376.408 515.182,367.954 522.058,363.827C551.434,346.193 584.497,336.363 617.542,328.156C642.575,321.68 667.962,316.656 693.576,313.11C765.229,303.905 851.304,307.482 921.202,325.723C924.33,326.766 929.459,328.733 932.526,328.757C930.752,326.079 926.98,325.019 924.023,324.153C909.726,318.654 893.939,314.346 879.226,310.432C819.77,294.617 758.582,290.042 697.326,295.39C687.577,296.242 676.109,296.803 666.514,298.218C620.763,305.323 576.148,318.424 533.817,337.181C491.067,356.223 451.262,383.975 414.673,412.935C406.122,418.665 357.083,460.872 352.258,468.456C339.962,479.975 315.148,507.147 305.322,520.913C306.672,520.595 335.796,490.492 339.214,486.999Z"/>
        <path d="M339.214,486.999C335.796,490.492 306.672,520.595 305.322,520.913C315.148,507.147 339.962,479.975 352.258,468.456C357.083,460.872 406.122,418.665 414.673,412.935C416.498,415.133 418.935,415.899 421.557,417.01C450.559,400.15 478.55,392.133 511.889,400.909C518.771,402.763 525.52,405.077 532.108,407.801C535.321,409.129 553.153,417.237 555.12,417.46C549.95,418.214 545.478,418.57 540.566,418.917C531.97,419.526 510.395,415.072 505.528,423.512C489.908,450.6 510.351,467.57 536.786,469.821C541.759,470.244 549.667,472.708 550.887,478.111C546.736,495.947 458.762,502.156 449.501,476.631C445.354,465.202 449.142,446.609 434.626,444.077C395.39,437.231 365.755,464.211 339.214,486.999ZM669.562,566.009C680.621,550.733 715.223,527.18 731.761,517.93C693.655,564.476 662.282,592.588 639.114,651.244C630.364,651.348 621.613,651.352 612.863,651.256C615.834,642.252 647.263,603.793 654.651,594.392C658.508,589.485 666.671,581.098 669.492,575.324L668.294,576.008L667.296,575.703C665.829,569.545 668.894,570.593 669.562,566.009ZM1175.19,585.836L1175.72,587.401C1173.31,591.865 1163.02,595.125 1158.21,596.442C1109.85,609.685 1059.73,610.427 1009.97,608.876C992.517,608.332 974.276,605.002 956.967,602.421C943.077,600.35 928.334,599.079 914.789,595.26C925.212,577.463 927.31,564.358 928.302,544.169C929.247,544.375 930.597,544.484 931.458,544.858C933.496,545.743 945.064,558.939 948.138,561.418C954.959,566.918 963.401,572.026 971.629,575.091C985.864,580.394 1000.33,583.739 1015.41,585.617C1027.12,587.077 1039.12,587.976 1050.91,588.518C1067.21,589.267 1166.97,591.786 1174.58,586.315C1174.79,586.163 1174.99,585.996 1175.19,585.836ZM401.751,153.314C434.555,148.692 495.309,168.136 524.264,182.453C556.896,198.588 612.998,236.708 625.902,272.022C617.6,276.767 612.641,277.345 603.309,279.513C588.44,283.197 570.811,289.586 556.526,291.804C553.588,284.839 547.743,274.947 543.68,268.541C524.747,238.698 506.762,218.836 477.075,199.888C461.239,189.958 444.453,181.63 426.968,175.024C420.272,172.522 393.061,164.35 390.277,159.008C390.593,153.744 397.584,153.792 401.751,153.314ZM1058.93,440.005C1066.24,445.626 1069.87,448.832 1075.81,455.591C1057.06,452.076 1037.57,443.906 1020.2,441.297C994.229,437.95 970.359,443.895 944.818,434.044C920.039,424.486 898.278,405.254 909.561,376.283C913.377,382.347 915.28,389.718 918.802,395.854C930.91,416.944 961.338,426.079 984.223,427.898C1007.5,429.747 1028.82,437.313 1051.73,440.711C1054.34,441.098 1056.58,441.612 1058.93,440.005ZM752.803,574.482C752.934,576.863 750.472,583.152 749.463,585.486C738.832,610.066 721.428,631.427 700.013,647.418C691.714,653.614 682.491,651.884 672.747,651.177L671.977,650.328C672.763,647.605 674.785,645.642 676.649,643.404C680.83,641.54 687.123,640.319 691.059,638.6C715.942,627.735 741.491,598.441 752.803,574.482ZM868.954,623.494C868.57,626.892 851.602,647.98 848.456,651.899C841.485,652.056 834.982,652.181 828.015,651.989C829.217,650.267 839.317,646.088 842.226,644.354C852.256,638.376 860.378,631.289 868.954,623.494ZM741.542,639.041C741.993,642.128 740.437,647.939 739.732,651.229C736.811,651.194 733.267,651.43 730.289,651.56L730.146,650.858C732.361,647.639 738.516,641.989 741.542,639.041Z" style="fill:rgb(203,203,202);"/>
        <path d="M367.127,100.84C373.374,100.489 380.829,101.766 387.135,101.699C422.491,101.325 456.554,109.341 490.795,117.189C501.354,118.721 518.782,127.44 528.948,127.23C541.544,126.971 560.489,122.186 573.385,120.338C604.985,115.786 636.726,112.27 668.556,109.796C829.126,97.618 990.132,126.914 1136.13,194.873C1299.19,269.956 1429.65,435.108 1348.65,619.472C1346.44,624.519 1344.12,629.52 1341.8,634.525C1353.26,636.24 1362.48,637.576 1371.35,645.846C1389.67,662.927 1383.39,687.423 1379.95,709.28C1376.7,729.867 1372.24,750.701 1368.58,771.408L1359.31,823.497C1353.63,856.317 1351.25,890.366 1312.87,902.704C1302.63,905.995 1285.73,904.355 1274.52,904.161C1259.18,903.973 1243.83,903.9 1228.48,903.941L1014.96,904.246C983.811,905.69 961.501,902.215 931.146,912.329C918.902,916.409 898.418,920.804 885.791,923.548C837.132,933.883 787.634,939.774 737.908,941.148C674.253,942.726 610.637,936.716 548.403,923.246C534.167,920.145 519.982,916.817 505.852,913.263C493.468,910.101 481.948,905.962 469.157,905.317C457.719,904.739 446.43,904.789 434.989,904.593C408.915,904.194 382.838,904.008 356.761,904.035L182.18,903.328C163.611,903.327 89.249,905.215 77.255,901.161C67.403,897.831 59.416,892.011 54.902,882.475C51.226,874.707 49.69,865.782 50.111,857.226C50.754,844.161 53.919,830.595 56.342,817.756L66.505,763.162L76.055,709.954C78.583,695.233 80.649,679.37 85.392,665.281C91.644,646.708 99.983,641.901 116.507,634.034C111.849,623.025 106.751,611.911 102.947,600.668C85.428,548.892 81.003,491.09 95.801,437.968C119.45,353.079 187.793,278.97 260.454,231.54C273.155,223.25 286.652,214.69 299.785,207.244C311.891,200.381 324.636,194.455 336.727,187.382C319.464,177.639 299.319,168.492 298.052,146.483C295.894,109.016 339.249,102.674 367.127,100.84ZM349.358,281.459C356.664,277.43 364.041,273.532 371.486,269.768C380.022,265.22 401.616,256.388 410.828,251.17C411.046,250.549 411.265,249.928 411.483,249.308C409.844,235.132 372.495,203.892 360.287,196.184C263.147,239.72 160.889,314.868 120.762,417.503C96.97,478.358 97.803,549.551 124.801,609.332C128.601,617.652 132.965,625.701 137.865,633.424C140.71,637.819 145.191,643.876 147.561,648.224C127.248,648.006 108.235,649.427 99.68,673.566C96.741,681.859 95.421,694.715 93.819,703.678L81.735,774.426C78.413,792.768 74.199,812.038 70.846,829.851C66.884,850.899 58.071,883.764 89.449,887.363C104.349,889.073 124.911,887.878 140.402,887.957L261.523,888.115L414.507,888.373C425.562,888.547 436.62,888.57 447.676,888.444C455.006,888.355 469.259,887.773 476.167,888.832C484.986,890.185 497.863,894.286 506.943,896.691C521.126,900.421 535.413,903.743 549.787,906.654C584.341,913.937 624.209,921.215 659.448,923.259C733.625,927.563 813.336,923.694 885.794,906.982C900.387,903.653 914.9,899.979 929.319,895.964C933.651,894.787 953.379,889.24 956.921,889.015C975.808,887.814 996.98,888.584 1016.14,888.456L1164.01,888.276L1261.98,888.306C1276.98,888.363 1293.25,889.196 1308.21,887.777C1311.24,887.489 1315.61,885.005 1318.2,883.574C1335.43,874.34 1337.02,851.445 1340.21,834.109L1348.1,791.877C1355.16,755.067 1364.13,714.171 1368.27,676.631C1368.93,670.672 1364.65,661.717 1360.36,658.056C1350.91,648.166 1322.93,650.894 1308.69,651.402C1407.56,515.648 1343.91,354.824 1217.56,264.287C1085.98,169.998 923.385,130.003 763.239,126.413C707.387,125.161 646.093,128.713 590.509,136.034C577.891,137.695 566.935,141.252 554.111,139.944C559.355,143.145 565.336,145.887 570.833,148.357C594.635,159.049 615.865,174.939 633.681,193.931C635.224,195.575 637.266,197.474 638.99,198.987C651.001,199.711 658.047,198.26 669.768,197.606L711.808,195.556C739.953,194.042 767.061,195.778 795.009,197.516C825.911,199.195 856.713,202.366 887.31,207.018C972.538,220.794 1074.96,254.529 1146.89,302.611C1176.09,322.094 1202.65,345.273 1225.9,371.572C1251.09,399.91 1272.1,444.128 1277.64,481.542C1280.5,500.879 1278.58,522.513 1274.71,541.555C1267.79,575.585 1252.93,606.426 1231.06,633.439C1226.17,639.535 1220.6,646.95 1214.49,651.859C1206.97,651.97 1199.44,652.033 1191.91,652.047C1236.14,608.195 1264.72,558.466 1261.27,494.548C1258.29,439.419 1221.1,382.442 1179.88,347.44C1072.73,256.826 924.285,221.863 787.133,213.747C757.56,211.996 723.628,213.664 693.833,213.725C681.587,213.75 665.035,216.058 652.14,216.807C654.488,220.902 657.581,224.832 660.094,228.86C669.8,244.416 676.72,254.733 697.153,252.93C776.556,245.924 853.053,260.827 929.246,281.778C1026.29,308.463 1125.03,350.436 1187.3,433.294C1227.82,482.727 1252.31,590.364 1178.31,623.092C1136.67,641.507 1058.85,641.454 1012.41,639.174C958.821,636.544 949.267,616.687 900.734,652.252C898.538,651.901 879.628,652.013 875.439,651.903C891.427,640.408 925.472,616.07 944.752,615.691C959.113,615.408 974.699,619.613 989.103,621.287C1035.53,626.683 1150.56,630.29 1188,600.187C1203,588.125 1209.89,569.216 1211.94,550.579C1216.44,509.442 1195.06,466.224 1169.92,435.036C1108.17,358.425 1012.46,320.487 920.539,294.51C880.497,283.195 838.522,273.378 797.074,269.136C775.573,266.936 753.181,265.84 731.591,266.377C717.516,266.726 702.719,268.943 688.716,267.386C683.178,266.77 676.002,265.482 671.045,262.933C654.689,254.524 644.27,228.998 632.821,214.543C589.306,159.606 500.85,131.936 433.922,121.249C426.891,120.127 419.932,118.44 412.848,117.672C405.263,116.851 397.539,116.911 389.917,116.79C368.629,116.453 343.713,116.245 326.255,130.427C321.651,134.168 319.41,138.053 318.896,143.984C318.444,149.2 319.413,156.802 323.218,160.758C326.89,164.575 342.295,169.069 348.285,172.027C371.751,183.619 393.783,200.406 410.377,220.721C424.874,238.47 433.347,256.594 440.487,278.13C447.812,300.219 451.571,315.971 449.268,339.352C338.521,400.326 267.75,494.81 201.734,599.367C182.427,555.46 170.074,519.224 181.975,471.048C203.509,383.882 274.522,325.044 349.358,281.459ZM157.204,692.607C191.715,691.521 233.174,692.501 268.131,692.657L255.798,732.984L174.971,732.983L169.699,750.161C183.05,750.102 230.004,747.619 239.701,753.005C242.877,754.769 245.723,757.562 246.645,761.168C247.648,765.092 247.37,769.58 246.705,773.535C244.76,785.103 232.12,830.71 226.769,839.602C222.413,846.84 214.921,850.831 206.993,852.871C173.046,854.139 131.694,852.993 97.16,852.987C101.149,839.726 104.84,825.231 108.608,811.772L192.279,811.83C193.672,805.836 196.152,798.155 197.928,792.123C185.463,792.142 135.097,794.25 126.382,789.599C122.916,787.749 119.934,783.42 119.111,779.658C117.489,772.252 135.593,709.972 140.389,703.023C144.378,697.245 150.422,693.894 157.204,692.607ZM836.494,691.467C851.753,691.702 867.363,691.548 882.65,691.559L837.206,852.302C821.866,852.059 806.1,852.219 790.727,852.194C805.922,798.909 820.7,744.484 836.494,691.467ZM1216.97,691.802C1245.7,690.402 1276.25,692.455 1305.15,691.596C1309.98,691.452 1317.08,691.695 1321.27,694.141C1325.09,696.332 1327.88,699.966 1329.01,704.23C1331.52,713.619 1319.44,752.516 1316.24,763.412C1308.97,788.212 1303.85,815.547 1293.5,839.128C1290.63,845.656 1279.78,850.777 1273.18,852.421C1256.05,853.69 1238.3,852.856 1221.1,852.876C1206.46,852.892 1190.98,853.896 1176.43,852.502C1173.44,852.215 1170.5,851.582 1167.82,850.172C1164.03,848.175 1161.55,844.986 1160.37,840.894C1159.38,837.472 1159.35,834.225 1159.99,830.736C1162.71,815.972 1191.42,715.378 1197.24,705.442C1201.34,698.416 1209.33,693.847 1216.97,691.802ZM1219.2,732.574L1217.76,734.067L1217.79,735.54C1220.64,736.92 1229.89,736.527 1233.69,736.53C1226.18,761.316 1218.97,786.192 1212.07,811.154L1256.86,811.139C1258.83,807.888 1263.16,791.19 1264.47,786.748C1269.79,768.744 1274.49,750.193 1279.9,732.212C1259.66,732.111 1239.43,732.232 1219.2,732.574ZM443.721,692.43L523.368,692.369C536.924,692.363 551.805,691.621 565.11,693.492C572.07,694.471 578.437,705.282 577.064,712.178C574.047,727.342 569.258,742.348 565.023,757.259C556.022,789.176 546.843,821.042 537.487,852.856L490.128,852.882C500.523,818.261 510.744,783.589 520.79,748.866L525.704,731.779C517.262,731.769 464.853,731.449 459.789,732.878L459.366,734.091L460.182,735.176C463.721,737.103 473.741,736.102 478.3,735.962C467.079,774.541 456.382,814.16 445.758,852.908L397.476,852.912C411.641,799.881 428.903,745.609 443.721,692.43ZM1059.98,691.859C1094.68,690.486 1136.81,691.655 1172.08,691.683C1168.04,705.219 1164.1,718.787 1160.27,732.384L1097.59,732.393C1086.78,732.399 1070.3,731.886 1060.15,733.306L1059.44,734.849C1062.84,736.887 1071.5,736.541 1075.65,736.515C1068.97,760.797 1062.07,787.141 1054.58,811.084L1093.6,811.219L1099.27,790.579L1088.61,790.452L1098.27,756.98L1114.69,756.938L1157.33,756.998C1155.02,768.322 1149.95,784.462 1146.68,795.919C1141.39,814.784 1135.96,833.609 1130.38,852.392L1057.21,852.718C1043.22,852.785 1023.51,854.616 1010.28,849.783C1007.42,848.74 1004.84,844.733 1003.88,841.76C1002.98,838.91 1002.75,835.892 1003.2,832.939C1004.3,825.941 1007.46,815.569 1009.42,808.487L1020.87,767.926C1025.41,752.116 1030.04,736.282 1034.63,720.488C1038.99,705.49 1044.32,696.968 1059.98,691.859ZM921.409,691.799C929.04,691.204 945.089,691.689 953.416,691.69L1017.67,691.708L1006.04,732.502C980.688,732.496 955.337,732.511 929.99,732.472C925.922,732.466 924.56,731.949 922.567,735.564C924.151,736.891 937.064,736.475 939.832,736.463L934.768,753.335L990.096,753.433C987.044,764.53 983.841,775.585 980.489,786.595L925.35,786.484L919.78,805.282C919.217,807.907 918.673,808.07 919.621,809.864C935.326,811.076 969.342,810.072 986.135,810.026C982.872,823.684 978.253,838.66 974.405,852.307C958.934,852.33 883.239,854.298 875.394,850.769C871.509,849.012 868.5,845.756 867.055,841.742C864.098,833.739 869.868,817.276 872.169,808.764C876.571,792.609 881.131,776.497 885.848,760.43C890.176,745.3 894.177,730.182 898.867,715.144C903.012,701.854 908.008,696.169 921.409,691.799ZM612.863,651.256C497.132,650.32 381.396,650.116 265.662,650.644C270.295,643.406 280.81,632.515 287.62,625.386C321.003,591.416 364.486,551.291 413.834,545.78C428.37,544.157 432.095,554.827 434.916,566.732C446.724,616.554 483.183,638.284 532.551,636.336C564.688,635.069 596.737,626.964 624.268,609.567C639.481,599.298 656.489,579.586 669.562,566.009C668.894,570.593 665.829,569.545 667.296,575.703L668.294,576.008L669.492,575.324C666.671,581.098 658.508,589.485 654.651,594.392C647.263,603.793 615.834,642.252 612.863,651.256ZM928.302,544.169C928.411,537.561 928.377,530.243 928.985,523.736C944.203,518.658 965.368,512.509 981.507,514.725C1001.55,517.475 1021.89,527.83 1039.97,536.57C1063.54,548.125 1088.73,555.448 1114.09,561.885C1130.5,566.05 1147.89,568.378 1163.75,574.258C1168.49,576.017 1172.72,581.673 1175.19,585.836C1174.99,585.996 1174.79,586.163 1174.58,586.315C1166.97,591.786 1067.21,589.267 1050.91,588.518C1039.12,587.976 1027.12,587.077 1015.41,585.617C1000.33,583.739 985.864,580.394 971.629,575.091C963.401,572.026 954.959,566.918 948.138,561.418C945.064,558.939 933.496,545.743 931.458,544.858C930.597,544.484 929.247,544.375 928.302,544.169ZM909.561,376.283C921.769,350.364 960.955,365.569 980.494,374.217C1013.73,388.928 1032.31,416.985 1058.93,440.005C1056.58,441.612 1054.34,441.098 1051.73,440.711C1028.82,437.313 1007.5,429.747 984.223,427.898C961.338,426.079 930.91,416.944 918.802,395.854C915.28,389.718 913.377,382.347 909.561,376.283ZM921.202,325.723C851.304,307.482 765.229,303.905 693.576,313.11C667.962,316.656 642.575,321.68 617.542,328.156C584.497,336.363 551.434,346.193 522.058,363.827C515.182,367.954 507.488,376.408 513.559,384.259C529.315,404.638 568.071,402.135 588.209,411.63C578.273,414.805 565.645,416.072 555.12,417.46C553.153,417.237 535.321,409.129 532.108,407.801C525.52,405.077 518.771,402.763 511.889,400.909C478.55,392.133 450.559,400.15 421.557,417.01C418.935,415.899 416.498,415.133 414.673,412.935C451.262,383.975 491.067,356.223 533.817,337.181C576.148,318.424 620.763,305.323 666.514,298.218C676.109,296.803 687.577,296.242 697.326,295.39C758.582,290.042 819.77,294.617 879.226,310.432C893.939,314.346 909.726,318.654 924.023,324.153C926.98,325.019 930.752,326.079 932.526,328.757C929.459,328.733 924.33,326.766 921.202,325.723ZM677.642,691.597L751.623,691.566C755.308,691.56 760.49,691.786 764.007,691.548C821.238,687.663 809.257,707.065 797.479,749.47L776.82,823.796C773.159,836.615 770.93,842.412 758.545,849.304C747.132,854.058 721.995,852.361 709.021,852.332L631.558,852.219L677.642,691.597ZM693.866,732.243L693.443,735.173C697.033,738.059 705.577,736.248 710.887,736.37C703.622,761.067 696.493,785.804 689.5,810.579L734.518,810.614C741.323,786.99 749.66,754.646 757.474,732.138L693.866,732.243ZM311.867,692.605L356.933,692.501C367.655,692.48 388.448,689.845 395.789,698.622C397.947,701.202 399.792,705.253 399.625,708.676C398.921,723.078 396.338,737.496 394.806,751.852C391.1,785.221 385.779,819.623 383.053,852.979L334.919,852.991C336.033,846.551 338.694,830.416 338.727,824.261C336.883,822.987 335.996,823.383 333.463,823.289L300.773,823.449C296.219,833.315 292.295,843.031 287.547,853.083C271.975,852.795 255.82,852.993 240.203,852.977C263.621,799.311 287.51,745.852 311.867,692.605ZM322.06,733.725L322.658,735.3C325.5,736.017 335.022,735.858 338.452,735.888L319.554,781.567C327.711,781.417 335.87,781.338 344.029,781.33C346.608,765.965 348.55,748.447 350.595,732.852C345.215,732.793 326.374,732.229 322.06,733.725ZM415.128,267.695C397.095,275.467 379.413,283.376 362.092,292.681C273.8,340.109 175.563,431.433 199.057,542.157C199.704,545.209 203.153,565.016 206.9,564.814C217.226,546.927 228.923,530.406 241.12,513.825C290.326,446.93 346.78,382.545 418.532,339.21C421.442,337.452 424.163,335.654 426.768,333.469C426.613,320.371 424.133,278.593 416.258,267.915L415.128,267.695Z" style="fill:rgb(254,254,254);"/>
        <path d="M443.799,684.426C453.691,683.854 464.699,684.156 474.715,684.141C501.589,684.1 528.535,683.913 555.403,684.37C563.749,684.511 573.337,686.859 579.037,693.503C583.318,698.493 585.788,704.729 585.307,711.599C582.246,728.499 576.851,745.554 572.186,762.159L555.933,818.859C552.96,829.089 550.081,839.301 546.837,849.502C546.013,857.616 537.668,863.392 529.432,861.275C518.485,858.46 477.154,869.297 483.102,848.747C486.672,836.412 490.253,824.21 493.65,812.81L514.813,740.373L485.737,740.327C478.917,764.14 472.233,787.991 465.685,811.88C462.849,822.136 455.54,853.044 449.803,859.984C443.188,862.279 405.435,861.289 396.352,860.564C393.38,860.326 393.801,857.57 390.215,856.421C388.757,857.425 387.277,858.397 385.776,859.334C384.865,859.901 382.704,861.069 381.735,861.065C370.213,861.014 340.965,862.437 330.806,860.151C323.722,854.444 328.817,840.069 329.623,831.157L306.087,831.223C303.192,837.78 295.165,860.009 288.122,860.765C273.285,862.355 256.224,860.783 240.999,861.086C229.278,861.319 232.169,851.16 235.262,844.181C259.447,792.296 280.405,737.942 306.87,687.334C308.549,684.124 382.472,684.5 389.066,685.883C393.653,686.812 397.874,689.049 401.217,692.325C410.962,701.721 405.66,724.886 404.178,737.444L396.654,800.206C395.43,809.877 392.244,830.844 392.392,839.603L392.414,840.545C396.419,829.945 401.087,811.677 404.42,800.32L426.461,724.867C429.668,713.592 432.96,698.098 437.83,687.452C438.786,685.361 441.59,684.924 443.799,684.426ZM443.721,692.43C428.903,745.609 411.641,799.881 397.476,852.912L445.758,852.908C456.382,814.16 467.079,774.541 478.3,735.962C473.741,736.102 463.721,737.103 460.182,735.176L459.366,734.091L459.789,732.878C464.853,731.449 517.262,731.769 525.704,731.779L520.79,748.866C510.744,783.589 500.523,818.261 490.128,852.882L537.487,852.856C546.843,821.042 556.022,789.176 565.023,757.259C569.258,742.348 574.047,727.342 577.064,712.178C578.437,705.282 572.07,694.471 565.11,693.492C551.805,691.621 536.924,692.363 523.368,692.369L443.721,692.43ZM311.867,692.605C287.51,745.852 263.621,799.311 240.203,852.977C255.82,852.993 271.975,852.795 287.547,853.083C292.295,843.031 296.219,833.315 300.773,823.449L333.463,823.289C335.996,823.383 336.883,822.987 338.727,824.261C338.694,830.416 336.033,846.551 334.919,852.991L383.053,852.979C385.779,819.623 391.1,785.221 394.806,751.852C396.338,737.496 398.921,723.078 399.625,708.676C399.792,705.253 397.947,701.202 395.789,698.622C388.448,689.845 367.655,692.48 356.933,692.501L311.867,692.605ZM322.06,733.725C326.374,732.229 345.215,732.793 350.595,732.852C348.55,748.447 346.608,765.965 344.029,781.33C335.87,781.338 327.711,781.417 319.554,781.567L338.452,735.888C335.022,735.858 325.5,736.017 322.658,735.3L322.06,733.725ZM339.48,755.952C337.429,760.092 331.57,770.022 332.703,773.972C334.488,773.595 335.998,773.756 336.99,772.15C339.233,768.519 340.456,760.037 339.48,755.952ZM677.085,683.695C685.915,683.175 695.629,683.409 704.553,683.462C732.615,683.631 760.502,682.945 788.568,683.726C805.056,684.185 817.45,695.546 815.168,712.503C813.707,723.358 810.27,733.993 807.382,744.29L795.543,786.37C790.745,803.348 786.281,821.615 780.39,838.241C777.221,847.188 767.112,854.319 758.43,857.685C754.941,858.986 751.289,859.799 747.577,860.101C715.349,862.548 679.302,859.069 646.742,860.502C641.562,860.73 627.67,860.962 624.487,856.68C624.323,852.603 624.96,847.534 626.016,843.578C638.505,796.798 652.755,750.502 665.718,703.851C667.251,698.335 668.816,692.531 671.061,687.289C672.031,685.024 674.936,684.318 677.085,683.695ZM677.642,691.597L631.558,852.219L709.021,852.332C721.995,852.361 747.132,854.058 758.545,849.304C770.93,842.412 773.159,836.615 776.82,823.796L797.479,749.47C809.257,707.065 821.238,687.663 764.007,691.548C760.49,691.786 755.308,691.56 751.623,691.566L677.642,691.597ZM693.866,732.243L757.474,732.138C749.66,754.646 741.323,786.99 734.518,810.614L689.5,810.579C696.493,785.804 703.622,761.067 710.887,736.37C705.577,736.248 697.033,738.059 693.443,735.173L693.866,732.243ZM718.136,740.473C712.514,761.155 706.105,781.809 700.543,802.418L728.421,802.346C734.32,781.874 741.034,760.908 746.625,740.486L718.136,740.473ZM1221.04,683.711C1238.92,683.075 1256.99,683.541 1274.88,683.518C1287.49,683.502 1301.15,682.402 1313.58,684.289C1319.09,685.125 1325.29,686.686 1329.59,690.416C1334.86,694.984 1337.76,701.202 1338.09,708.149C1338.53,717.251 1310.8,817.432 1305.99,830.722C1303.83,836.711 1301.35,842.721 1297.04,847.5C1288.94,856.487 1279.59,860.139 1267.69,860.811C1250.51,861.581 1232.2,860.92 1214.78,861.031C1199.75,861.126 1178.58,862.641 1164.68,857.674C1151.86,853.093 1149.4,838.093 1152.86,826.031C1163.89,787.634 1174.27,748.621 1186.3,710.497C1191.48,694.109 1204.43,685.238 1221.04,683.711ZM1216.97,691.802C1209.33,693.847 1201.34,698.416 1197.24,705.442C1191.42,715.378 1162.71,815.972 1159.99,830.736C1159.35,834.225 1159.38,837.472 1160.37,840.894C1161.55,844.986 1164.03,848.175 1167.82,850.172C1170.5,851.582 1173.44,852.215 1176.43,852.502C1190.98,853.896 1206.46,852.892 1221.1,852.876C1238.3,852.856 1256.05,853.69 1273.18,852.421C1279.78,850.777 1290.63,845.656 1293.5,839.128C1303.85,815.547 1308.97,788.212 1316.24,763.412C1319.44,752.516 1331.52,713.619 1329.01,704.23C1327.88,699.966 1325.09,696.332 1321.27,694.141C1317.08,691.695 1309.98,691.452 1305.15,691.596C1276.25,692.455 1245.7,690.402 1216.97,691.802ZM1219.2,732.574C1239.43,732.232 1259.66,732.111 1279.9,732.212C1274.49,750.193 1269.79,768.744 1264.47,786.748C1263.16,791.19 1258.83,807.888 1256.86,811.139L1212.07,811.154C1218.97,786.192 1226.18,761.316 1233.69,736.53C1229.89,736.527 1220.64,736.92 1217.79,735.54L1217.76,734.067L1219.2,732.574ZM1240.9,740.522C1234.29,760.904 1229.07,782.51 1222.65,803.106C1232.23,803.188 1241.81,803.197 1251.39,803.131C1255.85,785.546 1263.58,757.404 1269.26,740.486L1240.9,740.522ZM1069.27,683.745C1098.85,682.786 1129.13,684.133 1158.77,683.518C1164.91,683.39 1173.1,683.723 1178.35,687.191C1179.14,688.421 1179.52,689.329 1179.6,690.811C1179.91,696.783 1168.14,735.406 1164.46,738.704C1160.24,742.477 1093.38,740.725 1082.8,740.682C1081.92,746.031 1078.57,756.685 1076.99,762.187L1065.11,803.35C1070.23,803.323 1082.7,803.682 1086.9,802.737C1088.08,800.771 1087.82,801.807 1087.7,799.521C1085.44,798.197 1079.67,794.895 1080.28,791.902C1082.21,782.3 1087.76,757.203 1094.17,750.808C1096.52,749.982 1098.75,749.515 1101.24,749.331C1107.75,748.85 1154.14,748.491 1158.97,750.273C1162.8,751.687 1164.14,754.413 1165.7,757.883C1163.4,770.208 1140.39,850.828 1135.25,857.949C1132.4,859.587 1128.77,860.045 1125.55,860.36C1107.91,862.087 1083.92,860.777 1065.67,860.812C1052.35,860.838 1025.9,862.35 1013.87,860.136C1009.68,859.364 1005.23,857.146 1002.02,854.372C997.715,850.664 995.011,843.627 994.69,838.042C994.134,828.407 1023.44,727.328 1029.1,712.426C1031.24,706.817 1033.57,701.74 1037.6,697.252C1046.53,687.31 1056.39,684.478 1069.27,683.745ZM1059.98,691.859C1044.32,696.968 1038.99,705.49 1034.63,720.488C1030.04,736.282 1025.41,752.116 1020.87,767.926L1009.42,808.487C1007.46,815.569 1004.3,825.941 1003.2,832.939C1002.75,835.892 1002.98,838.91 1003.88,841.76C1004.84,844.733 1007.42,848.74 1010.28,849.783C1023.51,854.616 1043.22,852.785 1057.21,852.718L1130.38,852.392C1135.96,833.609 1141.39,814.784 1146.68,795.919C1149.95,784.462 1155.02,768.322 1157.33,756.998L1114.69,756.938L1098.27,756.98L1088.61,790.452L1099.27,790.579L1093.6,811.219L1054.58,811.084C1062.07,787.141 1068.97,760.797 1075.65,736.515C1071.5,736.541 1062.84,736.887 1059.44,734.849L1060.15,733.306C1070.3,731.886 1086.78,732.399 1097.59,732.393L1160.27,732.384C1164.1,718.787 1168.04,705.219 1172.08,691.683C1136.81,691.655 1094.68,690.486 1059.98,691.859ZM157.163,685.15C189.602,683.441 224.643,686.433 257.365,685.028C262.187,684.821 270.708,685.286 274.897,687.67C276.755,692.48 265.488,732.347 262.431,736.438C255.964,745.091 194.472,738.554 181.986,741.402L182.105,741.978C197.554,744.921 230.912,739.358 242.903,745.197C248.424,747.925 252.604,752.775 254.487,758.639C259.191,773.104 241.728,815.529 238.795,831.689C236.206,845.955 223.053,856.394 209.221,860.366C201.29,861.832 104.922,862.249 97.962,860.888C94.807,860.27 92.45,859.02 90.646,856.338C88.715,847.276 98.498,817.231 102.716,807.752C103.665,805.617 105.261,804.857 107.451,804.265C112.203,802.98 119.809,803.824 124.122,803.554C134.733,802.891 178.735,805.006 186.095,802.911L186.68,801.32C185.354,798.564 176.619,799.975 173.44,799.757C160.348,798.863 142.191,801.496 129.721,799.118C126.276,798.478 123.007,797.11 120.132,795.107C115.178,791.594 111.871,786.212 110.973,780.205C109.861,773.031 127.822,706.406 135.407,697.1C141.446,689.692 147.67,686.454 157.163,685.15ZM157.204,692.607C150.422,693.894 144.378,697.245 140.389,703.023C135.593,709.972 117.489,772.252 119.111,779.658C119.934,783.42 122.916,787.749 126.382,789.599C135.097,794.25 185.463,792.142 197.928,792.123C196.152,798.155 193.672,805.836 192.279,811.83L108.608,811.772C104.84,825.231 101.149,839.726 97.16,852.987C131.694,852.993 173.046,854.139 206.993,852.871C214.921,850.831 222.413,846.84 226.769,839.602C232.12,830.71 244.76,785.103 246.705,773.535C247.37,769.58 247.648,765.092 246.645,761.168C245.723,757.562 242.877,754.769 239.701,753.005C230.004,747.619 183.05,750.102 169.699,750.161L174.971,732.983L255.798,732.984L268.131,692.657C233.174,692.501 191.715,691.521 157.204,692.607ZM926.447,683.711C950.833,682.372 977.125,684.436 1001.66,683.456C1007.1,683.238 1018.76,683.541 1023.21,686.542C1024.13,687.791 1024.83,688.944 1025.04,690.512C1025.92,697.349 1015.14,733.085 1010.83,738.011C1005.67,743.917 959.151,739.919 949.25,740.897C947.486,742.004 948.019,741.747 947.053,744.102C947.221,744.518 947.39,744.934 947.558,745.35C996.004,747.945 1009.4,732.107 986.147,791.551C984.274,796.338 945.563,794.604 932.088,794.504C931.666,795.37 930.028,800.234 929.619,801.384L971.609,801.515C1000.12,801.216 995.924,807.239 988.894,831.763C986.424,840.378 983.622,859.567 973.708,860.054C946.014,861.414 918.756,859.972 890.987,860.562C868.246,861.046 853.779,852.272 859.242,827.149C869.312,788.677 880.388,749.831 891.811,711.688C897.156,693.839 908.266,685.44 926.447,683.711ZM921.409,691.799C908.008,696.169 903.012,701.854 898.867,715.144C894.177,730.182 890.176,745.3 885.848,760.43C881.131,776.497 876.571,792.609 872.169,808.764C869.868,817.276 864.098,833.739 867.055,841.742C868.5,845.756 871.509,849.012 875.394,850.769C883.239,854.298 958.934,852.33 974.405,852.307C978.253,838.66 982.872,823.684 986.135,810.026C969.342,810.072 935.326,811.076 919.621,809.864C918.673,808.07 919.217,807.907 919.78,805.282L925.35,786.484L980.489,786.595C983.841,775.585 987.044,764.53 990.096,753.433L934.768,753.335L939.832,736.463C937.064,736.475 924.151,736.891 922.567,735.564C924.56,731.949 925.922,732.466 929.99,732.472C955.337,732.511 980.688,732.496 1006.04,732.502L1017.67,691.708L953.416,691.69C945.089,691.689 929.04,691.204 921.409,691.799ZM833.542,683.521C843.476,683.102 883.192,681.742 889.683,686.133C892.245,690.623 884.022,715.56 882.335,721.475L869.427,767.328L854.93,818.916C852.701,827.009 846.439,855.738 840.344,860.015C828.974,861.264 815.68,859.958 804.1,860.522C798.528,860.794 788.671,860.738 784.417,856.826C782.318,848.492 789.779,826.355 792.297,817.566L807.366,765.302L821.008,717.376C823.095,709.89 827.711,687.598 833.542,683.521ZM836.494,691.467C820.7,744.484 805.922,798.909 790.727,852.194C806.1,852.219 821.866,852.059 837.206,852.302L882.65,691.559C867.363,691.548 851.753,691.702 836.494,691.467ZM900.734,652.252C949.267,616.687 958.821,636.544 1012.41,639.174C1058.85,641.454 1136.67,641.507 1178.31,623.092C1252.31,590.364 1227.82,482.727 1187.3,433.294C1125.03,350.436 1026.29,308.463 929.246,281.778C853.053,260.827 776.556,245.924 697.153,252.93C676.72,254.733 669.8,244.416 660.094,228.86C657.581,224.832 654.488,220.902 652.14,216.807C665.035,216.058 681.587,213.75 693.833,213.725C723.628,213.664 757.56,211.996 787.133,213.747C924.285,221.863 1072.73,256.826 1179.88,347.44C1221.1,382.442 1258.29,439.419 1261.27,494.548C1264.72,558.466 1236.14,608.195 1191.91,652.047C1135.2,653.397 1075.27,652.236 1018.12,652.372L941.996,652.453C929.925,652.466 912.345,653.004 900.734,652.252ZM415.128,267.695L416.258,267.915C424.133,278.593 426.613,320.371 426.768,333.469C424.163,335.654 421.442,337.452 418.532,339.21C346.78,382.545 290.326,446.93 241.12,513.825C228.923,530.406 217.226,546.927 206.9,564.814C203.153,565.016 199.704,545.209 199.057,542.157C175.563,431.433 273.8,340.109 362.092,292.681C379.413,283.376 397.095,275.467 415.128,267.695Z" style="fill:rgb(0,135,171);"/>
    </g>
</svg>
