<svg width="100%" height="100%" viewBox="0 0 143 69" version="1.1" xmlns="http://www.w3.org/2000/svg" xmlns:xlink="http://www.w3.org/1999/xlink" xml:space="preserve" xmlns:serif="http://www.serif.com/" style="fill-rule:evenodd;clip-rule:evenodd;stroke-linejoin:round;stroke-miterlimit:2;">
    <g transform="matrix(1,0,0,1,-380.126,-1217.6)">
        <g transform="matrix(1,0,0,1,-92.229,902.352)">
            <path id="OK" d="M609.505,322.911L609.311,320.291L609.214,317.767L609.02,315.243L605.332,315.535L567.768,317.282L515.063,318.058L492.544,317.767L488.37,317.67L486.817,317.67L480.702,317.476L478.761,317.379L474.685,317.282L472.743,317.184L472.452,324.755L472.355,327.376L472.937,327.376L496.427,327.958L521.275,328.25L521.566,361.445L523.313,367.269L527.196,370.957L531.369,371.152L532.243,369.404L537.97,374.646L545.443,375.422L546.802,376.975L549.52,375.713L556.314,378.917L556.314,380.761L558.838,380.664L561.459,378.431L566.312,381.537L570.874,383.187L573.98,378.917L583.88,383.576L587.569,380.567L590.578,379.402L593.004,379.984L602.128,377.364L606.981,379.402L611.349,382.217L615.135,382.896L615.232,382.896L615.135,378.528L614.067,352.127L613.97,347.759L610.184,328.153L609.602,325.435L609.505,322.911L609.505,322.911Z" style="fill:rgb(249,249,249);"   data-color="color-1"/>
        </g>
    </g>
</svg>
