<svg width="100%" height="100%" viewBox="0 0 136 63" version="1.1" xmlns="http://www.w3.org/2000/svg" xmlns:xlink="http://www.w3.org/1999/xlink" xml:space="preserve" xmlns:serif="http://www.serif.com/" style="fill-rule:evenodd;clip-rule:evenodd;stroke-linejoin:round;stroke-miterlimit:2;">
    <g transform="matrix(1,0,0,1,-401.578,-1107.42)">
        <g transform="matrix(1,0,0,1,-57.7708,912.633)">
            <path id="NE" d="M572.33,204.688L569.321,201.679L558.741,198.573L555.344,198.476L550.2,199.932L544.085,196.05L524.963,196.244L497.106,195.953L464.202,194.885L461.29,194.788L461.193,197.312L460.805,204.882L459.931,222.645L459.446,232.837L459.349,235.36L461.678,235.457L485.361,236.331L490.02,236.525L489.632,255.549L489.535,256.811L493.224,256.908L506.327,257.103L538.94,257.103L555.344,256.714L591.16,255.355L594.46,255.161L594.072,254.773L591.451,250.114L589.219,248.561L586.792,243.902L586.889,243.32L586.889,243.028L583.881,230.798L584.463,228.857L581.163,224.295L580.969,218.86L577.96,214.104L574.854,204.98L574.174,204.883L572.33,204.688L572.33,204.688Z" style="fill:rgb(249,249,249);"   data-color="color-1"/>
        </g>
    </g>
</svg>
