<svg width="100%" height="100%" viewBox="0 0 108 83" version="1.1" xmlns="http://www.w3.org/2000/svg" xmlns:xlink="http://www.w3.org/1999/xlink" xml:space="preserve" xmlns:serif="http://www.serif.com/" style="fill-rule:evenodd;clip-rule:evenodd;stroke-linejoin:round;stroke-miterlimit:2;">
    <g transform="matrix(1,0,0,1,-378.362,-854.232)">
        <g transform="matrix(0.995108,-0.0987975,0.0987975,0.995108,5.22311,746.633)">
            <path id="WY" d="M461.387,192.167L462.163,177.025L463.134,156.642L463.231,154.119L461.969,154.021L437.024,152.565L423.047,151.401L396.549,148.877L363.353,144.8L361.994,154.313L361.897,154.895L361.509,158.098L359.762,170.619L356.462,195.856L355.588,202.165L355.2,205.368L355.006,206.63L352.579,225.557L356.365,226.042L381.116,229.051L383.057,229.245L385.387,229.537L409.361,231.866L428.58,233.419L457.407,235.263L459.349,235.36L459.446,232.837L459.931,222.645L460.805,204.883L461.193,197.312L461.29,194.788L461.387,192.167L461.387,192.167Z" style="fill:rgb(249,249,249);"   data-color="color-1"/>
        </g>
    </g>
</svg>
