<svg width="100%" height="100%" viewBox="0 0 1024 1536" version="1.1" xmlns="http://www.w3.org/2000/svg" xmlns:xlink="http://www.w3.org/1999/xlink" xml:space="preserve" xmlns:serif="http://www.serif.com/" style="fill-rule:evenodd;clip-rule:evenodd;stroke-linejoin:round;stroke-miterlimit:2;">
    <path d="M554.169,35.575C615.964,32.645 689.138,52.221 741.603,84.512C795.036,117.398 835.731,167.09 849.617,228.756C867.329,307.414 841.664,414.572 799.153,481.558C775.046,519.544 742.269,561.612 696.543,572.409C692.769,579.608 690.368,583.952 685.925,590.869C702.174,594.158 713.11,593.366 728.707,601.285C742.707,588.594 751.378,588.835 763.77,604.018C782.067,626.437 776.068,667.308 772.687,694.315C794.865,682.967 816.914,671.37 838.83,659.524C849.743,653.623 861.391,646.86 872.376,641.429C877.919,643.729 882.202,647.351 886.306,651.61C926.223,694.315 953.837,766.344 952.125,825.254C948.579,911.991 909.406,1046.03 803.647,1049.77C782.848,1050.51 768.273,1041.28 751.982,1031.05C741.123,1024.23 739.228,1027.18 728.915,1016.51L716.887,1022.36C710.929,1039.76 704.295,1057.05 698.757,1074.6C692.769,1093.56 670.226,1095.99 653.463,1103.44C653.613,1132.56 651.01,1134.6 631.781,1157.05C650.252,1189.27 667.966,1195.8 704.39,1195.72C723.746,1164.14 771.154,1156.21 804.99,1165.39C820.117,1169.49 834.827,1182.96 841.55,1197.13C863.863,1244.17 852.811,1302.29 838.356,1350.01C823.351,1399.31 788.067,1444.92 730.262,1425.47C712.225,1419.59 697.307,1406.71 688.857,1389.73C676.772,1365.08 679.142,1338.96 687.841,1313.86C681.897,1305.75 680.338,1302.39 676.854,1293.11C632.22,1287.05 597.684,1270.05 565.773,1237.86C560.029,1252.25 553.896,1267.67 549.069,1282.32C542.033,1303.68 538.003,1311.98 519.117,1324.24C511.833,1342.46 503.23,1368.32 488.334,1380.92C475.123,1392.09 443.047,1389.68 426.673,1387.76C364.999,1380.53 392.79,1316.11 397.994,1277.91C390.389,1276.88 370.565,1273.44 364.33,1274.75C345.881,1278.64 345.711,1281.66 327.767,1270.98C321.33,1286.42 320.667,1294.95 319.698,1311.44C330.343,1320.84 337.564,1329.71 344.385,1342.03C350.564,1355.77 349.612,1361.65 352.123,1375.69C352.856,1379.79 358.559,1387.92 360.102,1392.25C365.406,1407.12 365.802,1424.4 364.871,1439.91C364.24,1450.42 360.035,1459.32 351.623,1465.77C316.745,1492.54 256.927,1493.5 215.009,1490.17C181.047,1487.47 127.65,1476.58 102.753,1450.85C94.317,1442.14 94.1,1417.07 95.365,1404.87C97.716,1382.21 108.131,1361.09 126.331,1346.74C153.518,1325.3 181.495,1327.43 213.226,1331.05C216.874,1318.55 219.901,1312.87 230.223,1304.77C226.438,1275.9 235.143,1243.66 246.86,1217.51C225.475,1198.98 200.075,1184.91 177.803,1167.8C155.042,1150.3 168.013,1115.3 175.839,1092.7C164.697,1076.71 155.687,1066.46 167.467,1047.55C183.168,1022.36 197.79,996.439 213.322,971.102C222.858,955.545 233.615,954.455 249.656,948.404C256.836,945.715 263.897,942.679 270.81,939.556C270.832,937.248 270.881,934.94 270.957,932.633C272.053,901.088 283.957,891.409 305.464,871.288C294.027,869.841 282.746,866.44 271.784,863.121C235.423,852.11 204.37,835.131 176.867,808.66C124.188,757.958 105.886,694.94 104.259,623.788C69.355,585.601 71.422,533.695 123.959,513.559C134.685,509.448 142.907,508.123 154.293,506.117C160.216,476.722 159.313,435.161 181.107,412.226C195.333,397.255 220.862,394.123 236.054,409.995C242.038,416.372 246.135,424.283 247.889,432.849C250.628,446.343 248.483,468.241 247.692,482.256C246.481,503.724 244.273,525.431 243.774,546.971C249.363,552.343 254.01,557.118 258.45,563.581C269.654,579.56 273.84,599.422 270.037,618.561C264.833,644.986 249.71,661.134 228.442,675.358C238.652,722.914 253.64,748.346 299.124,767.777C298.156,754.456 294.199,738.12 292.951,724.162C292.007,713.605 291.54,701.79 290.074,691.706C288.352,684.084 285.018,676.691 282.929,669.183C273.691,635.99 300.625,621.672 328.516,614.664C328.483,609.42 328.296,604.177 327.954,598.944C317.152,591.289 297.934,585.098 288.188,576.132C275.045,564.041 275.475,550.547 277.148,534.351C277.733,528.679 277.193,521.063 277.929,514.915C278.696,508.522 279.835,501.563 280.531,495.3C281.013,490.96 278.578,482.417 278.607,477.399C278.753,451.641 302.704,449.659 312.848,438.641L313.434,437.999C315.03,421.718 316.443,416.945 325.965,403.662C317.784,388.298 300.782,376.877 297.988,359.446C294.345,336.709 310.136,329.775 325.129,318.48C330.721,314.268 344.112,299.964 347.935,294.394L348.368,293.753C322.49,263.473 325.375,229.054 347.147,197.223C355.127,185.557 363.209,179.971 375.385,173.437C412.393,89.968 459.984,42.456 554.169,35.575ZM399.727,465.966C414.122,464.178 432.27,469.11 437.781,484.522C438.934,487.747 439.08,488.427 437.689,491.35C431.092,496.181 418.984,489.327 410.549,488.769C403.186,488.281 403.184,488.103 395.401,489.308C384.033,492.769 380.855,496.619 370.689,501.896C368.738,502.909 366.566,502.581 364.553,501.727C360.285,496.881 364.301,489.376 367.555,484.823C375.465,473.755 386.489,468.233 399.727,465.966Z" style="fill:rgb(222,175,26);" data-color="color-1"/>
    <path d="M267.106,452.478C270.889,446.356 276.018,441.693 281.655,437.747C286.429,434.404 292.007,432.258 296.274,429.29C297.63,418.281 299.442,411.904 304.373,403.607C300.438,398.601 295.934,393.866 292.196,388.794C286.28,380.765 281.793,372.139 280.215,362.294C275.215,331.092 293.723,319.604 314.298,304.103L314.299,304.102C316.877,302.161 321.456,297.614 325.546,293.177C303.801,259.177 308.486,221.863 332.29,187.061C340.87,174.518 349.413,167.527 361.425,160.6C401.138,73.755 453.057,24.914 552.857,17.622C553.01,17.611 553.163,17.602 553.317,17.595C618.5,14.505 695.696,35.121 751.038,69.182C808.615,104.619 852.214,158.353 867.177,224.802C885.837,307.67 859.137,420.631 814.351,491.203C794.028,523.227 767.537,557.255 733.612,576.712C738.725,574.642 743.528,573.932 748.063,574.24C757.302,574.869 767.243,579.806 777.715,592.637C787.159,604.208 792.065,619.416 793.699,635.938C794.572,644.763 794.516,653.983 793.994,663.005C806.126,656.642 818.218,650.204 830.269,643.69C841.37,637.687 853.224,630.818 864.399,625.293C869.054,622.992 874.477,622.813 879.275,624.803C887.175,628.081 893.419,633.05 899.268,639.12C899.331,639.186 899.394,639.252 899.456,639.319C942.318,685.174 971.956,762.521 970.117,825.777C970.115,825.848 970.113,825.918 970.11,825.989C967.857,881.087 951.661,954.101 915.172,1004.64C888.943,1040.97 852.573,1066.05 804.285,1067.76C779.497,1068.64 761.825,1058.49 742.409,1046.29C736.657,1042.68 733.135,1041.34 729.863,1039.78C725.11,1053.15 720.187,1066.5 715.923,1080.02L715.921,1080.02C712.067,1092.22 704.239,1100.41 694.161,1106.32C687.319,1110.34 679.137,1113.01 671.229,1115.82C670.692,1126.47 669.21,1133.48 666.387,1139.95C663.858,1145.74 660.073,1151.17 654.06,1158.54C658.757,1164.97 663.586,1169.49 669.408,1172.4C676.587,1175.99 684.938,1177.24 695.333,1177.6C721.416,1146.58 772.235,1137.85 809.701,1148.02C829.531,1153.39 848.999,1170.84 857.812,1189.41L857.813,1189.42C882.011,1240.43 871.259,1303.48 855.583,1355.23L855.576,1355.25C837.661,1414.11 793.6,1465.72 724.682,1442.58C702.056,1435.21 683.342,1419.05 672.742,1397.75C672.726,1397.72 672.711,1397.69 672.695,1397.65C659.821,1371.39 660.286,1343.74 668.027,1316.81C666.438,1314.27 665.19,1311.94 663.99,1309.32C629.061,1303.12 599.845,1290.19 573.037,1268.66C570.591,1275.14 568.252,1281.62 566.165,1287.95C558.137,1312.32 552.985,1322.68 533.781,1336.07C525.8,1356.14 515.487,1381.53 499.959,1394.66L499.956,1394.66C492.371,1401.08 480.721,1405.12 467.647,1406.59C452.545,1408.29 435.436,1406.91 424.577,1405.64C402.99,1403.11 389.645,1394.72 381.264,1384.01C372.927,1373.35 369.332,1359.71 369.254,1344.54C369.172,1328.28 373.455,1309.93 376.87,1293.53C371.946,1292.97 367.949,1292.52 367.514,1292.48C353.242,1295.49 347.22,1297.13 339.771,1295.74C339.566,1295.7 339.359,1295.66 339.15,1295.61C338.721,1298.32 338.437,1301.07 338.205,1304.09C347.059,1312.85 353.744,1321.77 360.133,1333.31C360.374,1333.75 360.597,1334.19 360.801,1334.65C367.614,1349.8 367.041,1356.4 369.66,1371.49C370.554,1373.11 375.807,1382.7 377.057,1386.21C383.156,1403.31 383.909,1423.15 382.839,1440.99C381.883,1456.91 375.318,1470.28 362.579,1480.05C324.473,1509.3 259.379,1511.75 213.583,1508.11C176.007,1505.13 117.37,1491.84 89.821,1463.37C85.468,1458.88 81.893,1452.09 79.771,1443.89C76.362,1430.71 76.412,1413.13 77.461,1403.01C80.312,1375.53 93.113,1350.01 115.186,1332.61C142.452,1311.1 170.219,1309.13 201.055,1311.73C203.63,1306.23 206.785,1301.78 211.499,1297.18C210.324,1272.48 216.253,1246.22 225.112,1222.99C206.331,1208.5 185.463,1196.38 166.837,1182.07L166.832,1182.07C153.082,1171.5 147.464,1156.93 147.031,1140.8C146.631,1125.86 151.285,1109.33 155.909,1095.39C148.185,1083.57 143.239,1073.23 144.013,1061.44C144.47,1054.48 146.726,1046.8 152.189,1038.03L152.191,1038.03C167.869,1012.88 182.467,986.994 197.976,961.695C210.091,941.93 222.923,939.25 243.303,931.562C243.316,931.557 243.33,931.552 243.343,931.547C246.65,930.309 249.93,928.991 253.181,927.624C254.529,906.299 260.122,893.553 270.094,881.411C268.915,881.058 267.739,880.703 266.568,880.349C227.408,868.49 194.004,850.137 164.385,821.629C109.684,768.981 89.182,704.097 86.459,630.713C63.973,603.201 57.359,570.634 67.417,543.753C74.716,524.247 90.742,507.013 117.517,496.751C125.163,493.821 131.653,492.124 138.666,490.696C140.922,475.334 142.497,458.095 146.513,442.286C150.647,426.015 157.283,411.167 168.059,399.827C189.021,377.767 226.672,374.161 249.057,397.549C249.098,397.592 249.139,397.635 249.18,397.678C257.444,406.484 263.101,417.409 265.523,429.238L265.529,429.268C266.842,435.738 267.196,443.975 267.106,452.478ZM289.182,598.274C289.493,602.639 289.484,607.038 289.149,611.435C293.077,608.937 297.319,606.713 301.783,604.74C297.577,602.629 293.248,600.501 289.182,598.274ZM264.312,668.771C259.659,673.834 254.443,678.513 248.716,682.951C254.313,704.522 261.868,720.295 275.832,732.801C275.506,730.407 275.227,728.054 275.023,725.765C274.13,715.78 273.704,704.633 272.362,695.009C270.663,687.907 267.538,681.017 265.588,674.008C265.092,672.227 264.668,670.481 264.312,668.771ZM554.169,35.575C459.984,42.456 412.393,89.968 375.385,173.437C363.209,179.971 355.127,185.557 347.147,197.223C325.375,229.054 322.49,263.473 348.368,293.753L347.935,294.394C344.112,299.964 330.721,314.268 325.129,318.48C310.136,329.775 294.345,336.709 297.988,359.446C300.782,376.877 317.784,388.298 325.965,403.662C316.443,416.945 315.03,421.718 313.434,437.999L312.848,438.641C302.704,449.659 278.753,451.641 278.607,477.399C278.578,482.417 281.013,490.96 280.531,495.3C279.835,501.563 278.696,508.522 277.929,514.915C277.193,521.063 277.733,528.679 277.148,534.351C275.475,550.547 275.045,564.041 288.188,576.132C297.934,585.098 317.152,591.289 327.954,598.944C328.296,604.177 328.483,609.42 328.516,614.664C300.625,621.672 273.691,635.99 282.929,669.183C285.018,676.691 288.352,684.084 290.074,691.706C291.54,701.79 292.007,713.605 292.951,724.162C294.199,738.12 298.156,754.456 299.124,767.777C253.64,748.346 238.652,722.914 228.442,675.358C249.71,661.134 264.833,644.986 270.037,618.561C273.84,599.422 269.654,579.56 258.45,563.581C254.01,557.118 249.363,552.343 243.774,546.971C244.273,525.431 246.481,503.724 247.692,482.256C248.483,468.241 250.628,446.343 247.889,432.849C246.135,424.283 242.038,416.372 236.054,409.995C220.862,394.123 195.333,397.255 181.107,412.226C159.313,435.161 160.216,476.722 154.293,506.117C142.907,508.123 134.685,509.448 123.959,513.559C71.422,533.695 69.355,585.601 104.259,623.788C105.886,694.94 124.188,757.958 176.867,808.66C204.37,835.131 235.423,852.11 271.784,863.121C282.746,866.44 294.027,869.841 305.464,871.288C283.957,891.409 272.053,901.088 270.957,932.633C270.881,934.94 270.832,937.248 270.81,939.556C263.897,942.679 256.836,945.715 249.656,948.404C233.615,954.455 222.858,955.545 213.322,971.102C197.79,996.439 183.168,1022.36 167.467,1047.55C155.687,1066.46 164.697,1076.71 175.839,1092.7C168.013,1115.3 155.042,1150.3 177.803,1167.8C200.075,1184.91 225.475,1198.98 246.86,1217.51C235.143,1243.66 226.438,1275.9 230.223,1304.77C219.901,1312.87 216.874,1318.55 213.226,1331.05C181.495,1327.43 153.518,1325.3 126.331,1346.74C108.131,1361.09 97.716,1382.21 95.365,1404.87C94.1,1417.07 94.317,1442.14 102.753,1450.85C127.65,1476.58 181.047,1487.47 215.009,1490.17C256.927,1493.5 316.745,1492.54 351.623,1465.77C360.035,1459.32 364.24,1450.42 364.871,1439.91C365.802,1424.4 365.406,1407.12 360.102,1392.25C358.559,1387.92 352.856,1379.79 352.123,1375.69C349.612,1361.65 350.564,1355.77 344.385,1342.03C337.564,1329.71 330.343,1320.84 319.698,1311.44C320.667,1294.95 321.33,1286.42 327.767,1270.98C345.711,1281.66 345.881,1278.64 364.33,1274.75C370.565,1273.44 390.389,1276.88 397.994,1277.91C392.79,1316.11 364.999,1380.53 426.673,1387.76C443.047,1389.68 475.123,1392.09 488.334,1380.92C503.23,1368.32 511.833,1342.46 519.117,1324.24C538.003,1311.98 542.033,1303.68 549.069,1282.32C553.896,1267.67 560.029,1252.25 565.773,1237.86C597.684,1270.05 632.22,1287.05 676.854,1293.11C680.338,1302.39 681.897,1305.75 687.841,1313.86C679.142,1338.96 676.772,1365.08 688.857,1389.73C697.307,1406.71 712.225,1419.59 730.262,1425.47C788.067,1444.92 823.351,1399.31 838.356,1350.01C852.811,1302.29 863.863,1244.17 841.55,1197.13C834.827,1182.96 820.117,1169.49 804.99,1165.39C771.154,1156.21 723.746,1164.14 704.39,1195.72C667.966,1195.8 650.252,1189.27 631.781,1157.05C651.01,1134.6 653.613,1132.56 653.463,1103.44C670.226,1095.99 692.769,1093.56 698.757,1074.6C704.295,1057.05 710.929,1039.76 716.887,1022.36L728.915,1016.51C739.228,1027.18 741.123,1024.23 751.982,1031.05C768.273,1041.28 782.848,1050.51 803.647,1049.77C909.406,1046.03 948.579,911.991 952.125,825.254C953.837,766.344 926.223,694.315 886.306,651.61C882.202,647.351 877.919,643.729 872.376,641.429C861.391,646.86 849.743,653.623 838.83,659.524C816.914,671.37 794.865,682.967 772.687,694.315C776.068,667.308 782.067,626.437 763.77,604.018C751.378,588.835 742.707,588.594 728.707,601.285C713.11,593.366 702.174,594.158 685.925,590.869C690.368,583.952 692.769,579.608 696.543,572.409C742.269,561.612 775.046,519.544 799.153,481.558C841.664,414.572 867.329,307.414 849.617,228.756C835.731,167.09 795.036,117.398 741.603,84.512C689.138,52.221 615.964,32.645 554.169,35.575Z" style="fill:rgb(3,31,63);" data-color="color-2"/>
    <path d="M557.055,52.064C629.737,48.574 714.716,77.541 769.521,125.794C810.217,161.45 834.944,211.908 838.184,265.91C843.389,350.845 810.618,454.085 752.865,516.792C738.362,532.539 719.242,549.947 697.888,555.919C694.79,556.786 688.814,557.064 685.434,557.262C679.651,571.516 673.167,580.181 665.591,593.277C664.033,595.97 662.507,599.78 663.529,602.83C669.421,607.692 702.939,608.565 713.144,612.683C720.762,615.757 723.413,621.347 727.888,620.916C734.36,620.293 738.605,609.415 745.902,609.178C772.115,616.967 754.604,702.58 751.214,723.756C767.857,714.306 785.805,705.527 802.854,696.629C825.958,684.474 848.977,672.16 871.91,659.686C873.001,660.674 874.065,661.693 875.099,662.74C912.947,701.065 937.569,772.345 935.887,825.706C933.265,886.276 915.175,959.964 871.625,1004.16C844.026,1032.17 793.376,1048.47 762.307,1016.58C747.215,1013.57 738.919,1009.06 733.955,994.023C722.888,1001.1 716.204,1004.84 704.203,1010.13C699.801,1022.31 695.471,1034.52 691.213,1046.75C689.15,1052.78 684.609,1067.63 681.864,1072.41L681.598,1072.86C678.504,1078.27 646.078,1089.34 637.153,1093.53C638.595,1130.09 636.694,1126.79 612.44,1155.22C620.755,1170.21 632.527,1189.38 646.96,1198.86C666.054,1211.4 695.073,1214.43 717.155,1210.11C718.144,1194.57 736.062,1185.46 748.94,1181.93C784.246,1172.25 824.355,1177.57 833.787,1219.86C845.25,1272.84 832.255,1332.84 808.029,1380.44C782.442,1430.72 711.013,1422.39 697.915,1369.37C693.106,1349.3 696.534,1328.13 707.434,1310.61C695.453,1300.94 692.579,1292.91 690.997,1278.2C688.052,1278.13 685.111,1277.94 682.181,1277.62C629.529,1271.57 593.331,1248.25 561.043,1207.56C551.879,1224.64 544.733,1249.3 537.45,1267.43C527.174,1293 531.572,1299.08 505.906,1313.32C500.335,1328.78 488.488,1368.36 471.375,1371.49C459.67,1373.62 420.36,1373.65 411.876,1367.01C387.878,1348.21 418.315,1293.61 413.473,1268.44C413.235,1267.35 411.871,1264.42 410.561,1264.1C403.465,1262.84 369.58,1256.33 364.043,1258.03C337.001,1266.37 345.219,1260.55 321.902,1247.04C307.921,1273.68 303.079,1290.44 304.567,1320.55C325.364,1336.11 338.197,1351.62 334.751,1379.13C343.454,1390.77 348.053,1400.37 349.617,1414.89C350.559,1423.62 351.853,1443.62 346.048,1450.1C332.168,1465.61 297.18,1471.92 278.045,1474.01C231.479,1479.08 152.336,1472.43 114.57,1441.9C108.855,1426.9 108.921,1408.2 113.198,1393.3C123.478,1357.49 155.484,1341.7 190.736,1345.33C204.456,1346.74 214.627,1346.9 228.05,1350.96C227.729,1333.22 228.756,1321.9 246.307,1314.25C243.688,1271.06 246.748,1252.21 267.144,1213.04C242.27,1192.28 214.955,1175.15 189.116,1155.76C181.97,1150.39 179.588,1144.33 180.664,1135.78C182.563,1120.68 188.082,1105.25 193.492,1091.24C188.461,1080.8 181.568,1075.71 177.31,1063.46C179.922,1057.01 193.476,1035.17 197.767,1028.37C203.287,1019.61 227.276,974.74 233.431,971.924C250.262,964.224 270.21,958.087 287.317,949.574C287.063,940.911 286.804,930.098 287.714,921.681C290.033,900.238 319.055,881.133 336.038,868.611C328.713,864.809 318.398,861.269 312.322,856.07C312.188,856.058 312.055,856.046 311.921,856.034C188.111,839.403 115.257,735.608 120.916,617.022C93.366,591.763 84.107,553.714 121.017,532.208C135.639,524.646 151.822,522.268 168.034,521.339C172.562,496.928 175.233,440.873 191.738,424.042C196.513,419.172 202.702,415.833 209.636,415.818C215.207,415.806 221.544,417.691 225.488,421.777C229.351,425.78 231.53,431.181 232.371,436.619C234.868,452.772 232.183,471.311 231.05,487.586C229.516,509.606 228.028,531.491 227.548,553.565C237.026,561.9 245.825,570.963 251.169,582.574C263.432,609.214 250.004,640.954 227.022,657.007C221.567,660.817 217.292,663.003 211.326,665.649C215.898,695.068 220.071,717.235 238.097,741.971C261.769,774.457 298.122,788.912 336.679,794.927C344.518,809.581 335.235,825.784 331.796,843.527C339.516,846.921 347.501,850.276 354.883,854.314C360.921,850.115 383.991,832.188 390.408,832.628C394.655,832.919 421.847,842.469 426.052,846.555C426.986,847.569 428.183,850.633 427.715,852.001C423.077,865.548 399.268,857.553 392.112,855.769C376.923,865.353 361.07,878.36 346.466,889.197C336.131,897.528 324.139,905.343 314.957,914.943C305.119,925.229 315.399,948.163 309.716,960.148C305.679,968.664 289.209,972.739 281.065,975.6L249.819,986.842C240.526,997.372 210.054,1049.04 203.425,1062.11C208.929,1072.38 216.794,1076.69 214.247,1089.71C211.162,1105.45 200.561,1123.18 203.093,1139.33C203.922,1144.62 222.021,1155.01 227.117,1158.46L275.288,1191.14C289.026,1200.39 302.682,1209.77 316.257,1219.26C326.095,1226.19 338.179,1235.3 348.447,1241.02C367.498,1236.11 379.345,1242.34 394.962,1242.24C452.517,1241.88 436.602,1270.35 428.047,1312.06C419.566,1353.4 417.696,1356.9 464.035,1352.48C472.951,1351.63 486.194,1306.85 490.002,1298.32L490.345,1297.56C493.201,1295.25 501.839,1291.09 505.584,1289C510.026,1281.57 512.756,1271.97 515.553,1263.71L529.362,1223.93C531.263,1218.49 537.507,1199.78 540.331,1195.76C554.894,1176.32 577.495,1154.72 595.126,1138.29C620.591,1114.57 610.961,1115.14 616.035,1084.12C617.492,1075.21 647.437,1065.52 657.172,1061.36L675.134,1017.88C658.03,1022.45 643.933,1024.59 626.732,1024.85C612.813,1025.54 569.176,1020.39 560.782,1009.47C546.808,991.3 542.033,961.742 540.532,938.866C536.785,881.736 563.176,824.834 603.098,784.736C638.892,748.786 677.232,732.992 727.981,733.031C733.592,698.524 744.487,675.541 739.277,638.862C716.563,644.297 718.841,637.02 699.019,631.271C685.684,627.787 663.932,628.609 651.839,622.764C624.685,609.639 656.393,570.97 664.781,554.32C648.026,549.857 632.655,541.402 622.338,527.09C593.894,487.633 611.979,429.791 624.445,387.875C627.486,377.65 632.289,367.219 633.846,356.678C634.732,350.682 634.014,345.833 630.228,340.954C606.731,310.67 510.919,285.831 472.351,276.454C458.881,273.179 444.971,269.047 431.172,267.546C425.386,266.917 419.733,266.632 414.817,270.219C407.152,275.81 401.837,286.296 396.187,293.835C390.544,301.364 384.67,308.718 378.573,315.884C370.427,325.401 361.13,335.444 351.418,343.389C346.519,347.398 341.425,350.418 336.345,354.528C344.565,368.257 362.94,383.072 364.038,400.985C364.819,413.73 358.252,420.892 350.46,429.65C349.868,457.912 340.906,464.851 317.896,478.515C317.716,506.332 310.867,521.042 314.541,549.703C323.531,557.401 338.05,560.792 350.385,568.143C359.461,545.844 374.792,521.813 402.054,522.201C411.473,522.348 420.442,526.255 426.963,533.052C437.773,544.169 441.424,561.993 440.758,576.976C439.507,605.099 430.561,629.711 410.138,649.296C413.959,654.794 415.404,658.099 417.803,664.114C394.695,652.728 373.741,642.826 347.385,644.769C337.103,644.905 318.954,650.235 311.598,658.072C296.09,674.599 292.749,653.767 301.534,644.21C312.241,632.562 332.166,629.635 347.086,628.692C344.59,616.767 343.059,601.926 344.939,589.815C312.03,569.218 285.747,572.798 293.188,529.994C293.853,526.172 293.292,518.894 294.027,514.343C295.224,506.927 297.595,492.818 295.693,485.906C288.648,460.305 314.218,464.437 325.462,448.347C331.508,439.923 328.857,433.618 331.966,424.489C334.367,417.438 340.373,411.367 343.043,403.504L343.365,402.538C338.584,387.254 322.7,376.063 315.414,362.013C306.36,344.555 328.391,338.012 337.93,328.939C349.816,317.636 360.664,304.906 371.311,292.461C334.294,265.319 339.958,221.352 374.207,192.669C378.07,189.434 384.121,187.273 388.91,185.459C408.243,135.052 437.58,90.256 488.124,67.438C511.351,56.952 531.711,53.665 557.055,52.064Z" style="fill:rgb(3,31,63);fill-rule:nonzero;" data-color="color-2"/>
    <path d="M708.047,111.265C712.435,110.526 721.088,116.301 725.096,118.558C850.43,189.17 832.004,350.175 770.362,457.886C761.84,472.777 749.988,488.122 736.375,499.055C720.685,511.655 705.882,513.745 686.499,511.254C685.457,510.964 682.852,510.111 681.931,509.699C643.784,492.605 679.256,402.851 687.986,375.871C690.967,366.657 693.401,356.948 694.854,347.528C697.044,333.333 696.047,315.588 690.799,302.372C678.038,270.23 634.936,251.253 605.052,238.42C622.548,186.808 646.555,121.161 708.047,111.265ZM739.505,356.344C736.299,357.282 733.489,358.171 730.555,359.889C711.963,370.779 705.988,408.005 727.03,419.415C732.187,422.212 737.943,422.675 743.83,422.326C766.704,415.923 771.233,395.249 765.855,373.788C762.71,361.234 751.969,355.834 739.505,356.344ZM744.948,368.066C758.415,368.99 759.529,391.51 754.749,400.614C752.003,405.845 751.487,406.685 746.979,410.729C746.405,410.692 745.741,410.329 745.148,410.083C745.531,406.428 750.754,403.23 751.983,395.558C754.089,382.416 750.612,379.615 744.313,370.04L744.948,368.066ZM715.122,441.204C702.728,445.529 694.905,457.337 699.987,470.182C701.791,474.692 705.376,478.258 709.896,480.038C713.051,481.297 717.428,481.639 720.806,481.596C732.644,477.45 738.768,462.647 734.62,451.305C733.175,447.264 730.096,444.016 726.137,442.357C722.294,440.744 719.216,440.942 715.122,441.204ZM717.193,451.424C726.678,450.937 726.563,460.317 725.831,467.013L724.683,466.35C723.473,459.425 721.495,456.674 717.193,451.424ZM395.832,203.389C408.453,202.873 433.86,208.165 447.389,211.095C516.928,226.363 592.842,245.478 652.933,284.675C695.71,312.579 671.676,368.681 660.676,406.226C651.462,437.676 634.941,494.855 665.633,519.064C677.325,528.287 697.957,529.786 712.392,527.498C698.746,535.937 690.557,537.95 674.831,536.133C603.416,523.107 631.293,431.222 645.629,385.808C651.322,367.384 663.185,341.995 644.67,325.751C596.755,283.711 522.871,267.331 462.108,252.466C439.757,246.998 419.6,243.189 397.168,241.728C381.478,240.706 376.169,243.276 365.305,253.438C368.304,234.073 373.506,208.794 395.832,203.389ZM558.17,73.302C557.882,74.13 549.646,80.954 548.135,82.327C513.948,113.392 494.668,156.282 482.543,200.366C465.979,195.731 440.634,191.398 423.668,188.762C419.452,188.14 414.589,187.723 410.302,187.25C441.301,119.049 478.497,74.871 558.17,73.302ZM647.817,84.871C660.515,87.169 680.588,95.516 692.478,100.513C632.349,121.039 611.27,177.57 592.697,233.332C588.112,233.044 556.095,220.724 549.099,218.353C566.526,165.914 591.347,105.231 647.817,84.871ZM585.447,72.858C597.767,72.579 617.687,76.761 629.508,79.458C588.348,98.511 562.078,148.03 547.143,188.441C545.424,193.094 539.635,213.074 537.89,215.095C523.566,210.618 507.633,206.86 492.968,203.16C499.92,181.15 504.991,164.276 516.19,143.351C529.451,118.57 557.41,81.313 585.447,72.858ZM777.424,865.991C760.581,872.694 744.427,883.506 737.189,900.604C729.547,918.656 734.596,934.513 751.612,943.639C735.438,961.824 703.581,985.626 680.38,991.778C677.924,988.975 664.635,979.885 660.916,976.936C651.136,969.18 640.429,961.079 631.331,952.514C635.419,948.369 639.705,943.59 643.709,939.303C663.608,953.488 674.293,951.209 683.829,928.298C684.514,927.979 685.195,927.652 685.873,927.317C697.901,921.373 701.762,914.137 705.884,902.085C719.319,894.68 722.466,891.795 728.951,877.832C752.423,864.42 749.469,851.67 733.918,833.489C737.93,828.851 741.621,824.62 745.309,819.71C759.777,835.072 768.361,846.81 777.424,865.991ZM656.451,998.323C628.416,1004.36 606.459,1002.89 579.245,995.451C590.632,988.696 603.019,978.104 612.669,969.115C624.528,979.588 636.076,987.706 650.211,994.85C652.061,995.786 654.782,997.181 656.451,998.323ZM604.11,960.69C594.793,969.467 585.222,977.97 575.41,986.189C564.528,959.868 563.65,936.371 566.716,908.52C579.639,930.097 586.871,941.903 604.11,960.69ZM572.181,885.239C573.178,881.248 574.409,877.581 575.807,873.723C593.48,825.741 629.431,786.704 675.804,765.14C699.253,779.322 716.533,793.274 737.078,811.082C733.229,816.062 729.624,820.75 725.495,825.511C705.069,809.063 693.336,802.249 681.143,830.35C667.562,839.114 663.382,841.967 658.781,858.268C647.91,864.059 639.895,872.066 636.279,884.076L636.047,884.859C612.198,901.254 615.75,911.864 633.463,932.273L622.223,944.138C603.137,925.992 588.353,905.693 572.181,885.239ZM757.044,799.134C765.001,787.398 770.182,778.746 776.767,766.193C786.609,791.714 790.702,819.09 788.754,846.373C787.97,833.71 766.01,808.246 757.044,799.134ZM683.66,762.846C706.462,755.24 746.506,752.5 769.498,762.274C763.74,772.631 757.522,783.619 750.716,793.295C737.154,781.441 722.687,771.383 704.715,767.391C699.685,766.274 687.556,764.797 683.66,762.846Z" style="fill:rgb(167,106,10);"/>
    <path d="M679.167,850.367C685.804,850.458 710.532,872.406 710.964,878.559C710.438,881.285 709.041,882.299 707.097,884.233C698.988,884.649 685.715,869.918 679.575,864.358C674.283,859.565 673.981,855.018 679.167,850.367ZM658.625,876.468C663.249,878.079 666.955,880.898 670.631,884.162C676.89,889.721 686.948,895.991 688.185,904.831C688.505,907.112 685.708,909.269 684.176,910.581C677.685,909.532 665.89,898.081 660.811,893.236C654.959,887.652 651.44,882.358 658.625,876.468ZM635.458,901.928C637.937,901.91 640.023,902.239 641.896,903.977C646.538,908.284 667.512,924.115 668.395,929.552C668.077,931.98 666.818,932.887 665.108,934.723C655.996,934.393 636.24,916.012 633.103,907.293C632.417,905.386 634.371,903.399 635.458,901.928ZM699.964,827.798C708.877,827.866 729.198,845.256 731.761,854.29C732.276,856.104 730.455,858.1 729.446,859.549C727.58,859.687 725.494,859.815 723.528,858.157C716.121,851.915 701.395,841.669 697.84,832.864C697.207,831.297 699.094,828.96 699.964,827.798ZM566.716,908.52C568.05,900.957 569.827,892.525 572.181,885.239C588.353,905.693 603.137,925.992 622.223,944.138L631.331,952.514C640.429,961.079 651.136,969.18 660.916,976.936C664.635,979.885 677.924,988.975 680.38,991.778C673.077,994.261 664.106,997.246 656.451,998.323C654.782,997.181 652.061,995.786 650.211,994.85C636.076,987.706 624.528,979.588 612.669,969.115L604.11,960.69C586.871,941.903 579.639,930.097 566.716,908.52ZM675.804,765.14C678.416,764.21 680.987,763.565 683.66,762.846C687.556,764.797 699.685,766.274 704.715,767.391C722.687,771.383 737.154,781.441 750.716,793.295C752.726,795.128 755.157,797.241 757.044,799.134C766.01,808.246 787.97,833.71 788.754,846.373C788.227,851.117 787.678,857.842 786.72,862.37L777.424,865.991C768.361,846.81 759.777,835.072 745.309,819.71C742.848,816.57 739.934,813.867 737.078,811.082C716.533,793.274 699.253,779.322 675.804,765.14ZM157.605,538.776C172.04,536.746 181.461,540.307 192.373,549.391C176.642,554.25 175.407,559.035 165.711,569.433C160.486,575.037 139.082,571.692 130.808,570.731C140.366,584.771 150.913,586.219 166.643,590.22C175.745,606.984 197.799,608.851 213.401,600.575C206.37,599.626 198.864,597.995 192.818,594.18C186.944,590.811 176.574,580.465 182.479,573.34C199.048,553.348 233.532,577.866 236.272,598.378C239.613,623.389 222.279,642.375 201.106,652.073C194.851,654.937 188.823,656.244 182.447,657.521C185.992,660.4 188.775,661.971 192.667,664.267C195.936,708.291 210.775,745.576 243.66,775.571C266.173,793.85 292.639,806.63 320.955,812.898C317.785,821.519 315.628,828.733 313.8,837.675C313.1,837.584 312.401,837.488 311.702,837.384C224.165,824.418 157.414,759.444 142.993,672.164C139.97,653.867 137.485,632.214 140.251,613.738C104.358,579.263 98.926,546.014 157.605,538.776ZM805.371,876.22C832.055,872.759 853.629,886.59 865.232,909.357C866.693,912.223 868.981,917.046 871.466,918.939C876.097,907.657 868.145,890.511 861.505,881.416C878.866,876.812 904.644,881.71 904.5,904.29C904.34,929.239 884.576,962.282 868.84,981.292C851.502,1002.24 828.331,1015.77 800.742,1017.81C791.458,1017.44 787.862,1016.27 780.14,1011.36C796.105,1005.64 803.824,1001.62 813.067,986.742C799.24,993.955 775.748,1003.23 761.275,997.882C736.953,988.898 756.806,976.011 765.949,967.729C777.531,957.235 787.779,942.932 792.572,928.413C793.862,924.503 795.733,914.02 793.841,910.561C790.265,910.298 784.432,917.251 781.347,919.733C775.77,924.221 766.536,930.921 759.227,926.083C756.975,924.591 753.28,920.607 753.329,917.904C753.772,893.88 784.954,879.328 805.371,876.22ZM855.784,739.48L857.124,739.853C868.309,755.966 876.985,800.338 875.586,821.008C874.041,843.844 870.135,856.378 852.912,872.344C844.842,865.652 840.118,863.332 830.288,860.251C823.287,858.351 817.125,858.125 809.993,857.968C812.568,823.499 810.132,793.979 798.31,761.191C818.133,753.904 836.408,748.467 855.784,739.48ZM847.387,760.412C837.954,764.659 828.011,767.746 818.144,770.848C825.494,795.816 827.267,817.522 827.246,843.351C831.707,844.073 834.409,844.551 838.724,845.804C843.57,847.64 846.279,848.681 850.892,851.236C865.716,825.907 860.1,802.918 854.028,775.396C853.201,771.646 850.768,763.963 848.838,760.808L847.387,760.412ZM207.785,436.261C208.895,436.7 212.34,438.304 212.591,439.695C216.835,463.206 210.804,488.776 210.314,512.795C210.221,517.391 208.978,545.337 207.909,548.625L206.81,548.809C204.496,547.096 202.579,543.598 200.939,541.042C195.289,533.319 193.591,531.737 185.731,526.355C189.336,502.522 192.887,478.188 197.859,454.604C199.39,447.344 201.358,440.251 207.785,436.261ZM485.104,727.813C509.962,726.747 500.002,745.793 489.387,756.612C478.779,767.424 467.612,770.374 453.157,770.318C444.51,768.338 432.425,764.283 438.539,752.88C447.863,735.489 466.717,728.941 485.104,727.813Z" style="fill:rgb(222,175,26);" data-color="color-1"/>
    <path d="M250.998,1334.7C251.444,1334.91 251.891,1335.12 252.337,1335.33C254.493,1350.81 273.108,1362.67 287.999,1362.22C300.151,1361.86 307.135,1359.6 307.022,1346.22C321.339,1361.8 321.008,1371.65 305.733,1386.05C311.546,1388.01 314.172,1388.24 320.252,1387.73C320.962,1388.56 321.648,1389.41 322.309,1390.28C329.292,1399.44 335,1413.19 333.821,1424.93C332.634,1435.76 320.709,1440.61 311.733,1443.49C273.771,1455.67 230.97,1453.9 192.213,1447.49C178.328,1444.87 144.214,1437.2 133.052,1426.22C130.769,1423.98 130.928,1412.31 131.367,1408.6C132.962,1395.04 139.9,1382.68 150.643,1374.26C171.254,1358.19 204.805,1365.43 227.182,1374.29C247.132,1382.18 252.398,1388.48 274.579,1391.33C267.177,1386.88 260.696,1381.06 255.484,1374.18C247.919,1364.25 238.036,1344.2 250.998,1334.7ZM778.008,1200.3C789.077,1200.51 804.401,1202.72 809.876,1213.92C825.406,1245.71 817.306,1290.62 809.101,1323.44C802.801,1345.13 795.248,1376.33 773.817,1388.2C753.318,1399.55 731.778,1391.11 720.655,1372.02C717.592,1365.17 716.304,1357.69 716.732,1350.26C718.88,1313.06 741.783,1308.55 762.523,1289.48C762.187,1289.57 761.85,1289.65 761.512,1289.73C752.469,1291.92 721.829,1295.35 718.767,1282.45C719.018,1282.06 719.268,1281.66 719.519,1281.26C749.083,1276.77 772.477,1238.29 752.312,1212.5C751.061,1210.9 748.183,1208.85 745.805,1207.21C757.055,1202.36 765.977,1201.09 778.008,1200.3ZM398.525,535.624C416.992,534.885 423.412,547.919 428.156,563.564C407.504,544.42 394.044,562.719 386.787,582.712C392.105,586.458 399.207,590.769 404.762,594.388C397.64,596.112 391.866,597.666 384.885,599.871C384.721,607.951 384.903,613.068 386.067,621C388.946,630.003 390.548,631.803 396.264,639.039C385.514,634.198 374.531,631.744 363.001,629.705C353.409,597.08 358.943,543.724 398.525,535.624ZM528.596,540.12C550.482,538.454 557.303,553.573 562.663,571.884C543.955,551.209 528.479,570.158 521.44,589.59L539.087,601.735C532.82,603.548 522.803,603.456 518.899,609.077C518.244,610.02 518.271,614.866 518.256,616.274C518.472,625.599 520.285,631.466 523.383,639.949C515.157,640.441 508.53,641.095 500.449,642.558C497.926,638.403 495.91,633.96 494.445,629.325C485.262,599.718 495.698,550.179 528.596,540.12Z" style="fill:rgb(252,236,193);"/>
    <path d="M536.901,674.836C547.34,678.155 553.103,689.605 551.125,700.256C550.108,705.731 546.986,707.397 542.645,710.255C542.232,712.795 541.801,715.333 541.352,717.867C536.702,743.744 523.889,772.089 501.596,787.29C469.555,809.139 424.217,803.415 395.499,778.588C387.837,771.964 383.142,766.152 377.441,757.856C365.782,740.461 360.774,721.291 355.972,701.3C349.958,698.423 340.678,694.571 339.581,687.078C338.995,683.072 340.919,678.03 345.381,677.457C350.014,681.298 353.274,683.393 359.251,685.184C404.167,698.641 456.717,701.922 502.319,689.978C514.299,686.84 526.037,680.186 536.901,674.836ZM485.104,727.813C466.717,728.941 447.863,735.489 438.539,752.88C432.425,764.283 444.51,768.338 453.157,770.318C467.612,770.374 478.779,767.424 489.387,756.612C500.002,745.793 509.962,726.747 485.104,727.813ZM529.371,527.427C579.196,524.642 579.557,587.364 567.283,620.869C563.697,630.659 559.968,637.101 553.944,645.561C561.441,648.018 571.04,651.96 576.385,657.923C578.496,660.279 582.639,664.78 582.489,668.038C580.999,668.783 580.309,668.899 578.34,668.048C564.859,662.217 555.923,657.845 541.46,654.695C520.474,651.09 499.323,654.424 479.199,660.184C475.813,661.153 471.186,662.658 468.501,659.772C469.519,655.422 482.089,649.505 486.328,647.461C483.379,639.726 480.947,632.769 479.558,624.574C473.512,588.913 488.426,534.325 529.371,527.427ZM528.596,540.12C495.698,550.179 485.262,599.718 494.445,629.325C495.91,633.96 497.926,638.403 500.449,642.558C508.53,641.095 515.157,640.441 523.383,639.949C520.285,631.466 518.472,625.599 518.256,616.274C518.271,614.866 518.244,610.02 518.899,609.077C522.803,603.456 532.82,603.548 539.087,601.735L521.44,589.59C528.479,570.158 543.955,551.209 562.663,571.884C557.303,553.573 550.482,538.454 528.596,540.12ZM536.416,471.161C540.515,470.764 546.07,470.951 550.084,471.684C561.737,473.909 572.02,480.693 578.648,490.53C581.931,495.423 587.266,506.603 580.24,510.367C574.84,510.554 566.616,502.929 560.725,499.364C549.365,494.234 539.82,493.11 527.612,496.107C521.693,497.56 509.564,501.984 505.778,495.958C504.537,482.992 525.986,473.339 536.416,471.161ZM399.727,465.966C414.122,464.178 432.27,469.11 437.781,484.522C438.934,487.747 439.08,488.427 437.689,491.35C431.092,496.181 418.984,489.327 410.549,488.769C403.186,488.281 403.184,488.103 395.401,489.308C384.033,492.769 380.855,496.619 370.689,501.896C368.738,502.909 366.566,502.581 364.553,501.727C360.285,496.881 364.301,489.376 367.555,484.823C375.465,473.755 386.489,468.233 399.727,465.966Z" style="fill:rgb(3,31,63);" data-color="color-2"/>
</svg>
