<svg width="100%" height="100%" viewBox="0 0 816 816" version="1.1" xmlns="http://www.w3.org/2000/svg" xmlns:xlink="http://www.w3.org/1999/xlink" xml:space="preserve" xmlns:serif="http://www.serif.com/" style="fill-rule:evenodd;clip-rule:evenodd;stroke-linejoin:round;stroke-miterlimit:2;">
    <g transform="matrix(1,0,0,1,-98.5773,-352.361)">
        <path d="M493.613,352.569C718.773,345.451 907.079,522.152 914.223,747.256C921.367,972.361 744.644,1160.64 519.486,1167.81C294.292,1174.97 105.932,998.261 98.787,773.122C91.641,547.983 268.418,359.688 493.613,352.569ZM494.125,372.055C708.482,365.184 887.857,533.272 894.859,747.573C901.861,961.873 733.84,1141.31 519.491,1148.44C304.96,1155.57 125.297,987.416 118.289,772.933C111.281,558.45 279.585,378.932 494.125,372.055Z" style="fill:rgb(170,0,0);"  data-color="color-2"/>
        <path d="M494.125,372.055C708.482,365.184 887.857,533.272 894.859,747.573C901.861,961.873 733.84,1141.31 519.491,1148.44C304.96,1155.57 125.297,987.416 118.289,772.933C111.281,558.45 279.585,378.932 494.125,372.055ZM350.555,983.54C384.959,979.837 398.972,997.316 430.149,999.184C459.508,1000.94 476.597,983.643 507.534,983.111C537.84,982.589 549.769,996.594 578.224,999.054C607.067,1001.55 625.645,983.759 653.73,983.165C663.304,982.882 677.305,983.781 686.116,987.522C714.191,999.446 724.073,1002.12 754.305,993.69C748.714,999.406 743.791,1003.48 737.508,1008.14C710.678,1028.05 695.434,1009.31 666.351,1004.3C631.943,1001.08 619.376,1019.46 586.017,1020.93C555.639,1022.28 539.509,1005.34 511.421,1004.09C485.385,1002.93 467.577,1018.88 440.345,1020.86C406.313,1023.34 392.692,1006.12 360.788,1003.96C338.277,1002.44 324.811,1015.43 304.982,1017.1C289.328,1018.41 272.248,1004.34 261.14,994.198C304.661,1008.97 311.994,987.552 350.555,983.54ZM440.797,494.226C441.016,495.86 436.599,503.082 435.609,504.832C426.278,521.324 418.895,539.401 413.052,557.47C371.121,687.131 351.785,823.056 340.528,958.488L304.027,958.496L303.955,958.097C321.07,845.543 371.181,572.3 440.797,494.226ZM538.311,455.191C542.378,456.057 546.653,459.183 550.05,461.544C630.99,517.823 673.13,716.411 692.541,809.84C700.035,845.74 707.107,881.726 713.757,917.792L678.324,917.802C666.749,808.897 652.625,697.905 618.728,593.478C600.472,537.232 583.772,494.517 538.311,455.191ZM490.725,408.314C547.415,404.665 611.575,419.105 662.362,443.931C746.1,484.911 809.94,557.702 839.634,646.057C869.714,735.463 863.19,833.136 821.488,917.75L734.161,917.864C714.176,815.861 691.634,709.315 657.683,611.058C635.433,546.662 596.119,448.333 522.772,431.452L521.772,431.267C499.061,427.125 476.651,432.796 457.85,445.867C372.954,504.893 324.283,712.807 302.477,810.572C294.547,846.123 286.687,881.934 280.218,917.777L191.629,917.838C170.398,877.23 158.391,828.02 155.295,782.55C149.147,689.241 180.361,597.317 242.059,527.036C306.946,452.919 393.375,414.829 490.725,408.314ZM504.716,465.225C505.327,465.155 505.935,465.101 506.55,465.084C518.136,464.772 528.439,471.166 536.629,478.815C599.765,537.773 625.018,735.614 634.723,819.959C638.43,852.178 642.644,885.373 643.802,917.763L510.312,917.778L369.026,917.821C376.479,811.872 404.49,576.733 463.772,494.478C474.066,480.194 486.701,468.115 504.716,465.225ZM429.547,1038.29C460.715,1034.7 475.889,1052.74 504.812,1054.49C533.772,1056.23 549.989,1038.11 579.219,1037.87C623.536,1037.5 627.817,1064.18 675.756,1050.51C675.158,1051.01 674.554,1051.5 673.944,1051.98C659.214,1063.64 636.965,1073.39 618.503,1067.8C605.787,1063.95 599.391,1060.61 585.738,1058.99C555.576,1058.26 542.279,1073.42 512.878,1074.9C501.098,1075.44 489.318,1073.84 478.106,1070.19C463.036,1065.35 453.377,1059.71 436.686,1059.1C418.109,1058.43 407.136,1067.52 390.27,1069.86C372.249,1072.37 351.646,1061.26 337.732,1050.22C382.91,1064.28 391.455,1042.16 429.547,1038.29Z" style="fill:rgb(0,148,240);"  data-color="color-1"/>
        <path d="M490.725,408.314C547.415,404.665 611.575,419.105 662.362,443.931C746.1,484.911 809.94,557.702 839.634,646.057C869.714,735.463 863.19,833.136 821.488,917.75L734.161,917.864C714.176,815.861 691.634,709.315 657.683,611.058C635.433,546.662 596.119,448.333 522.772,431.452L521.772,431.267C499.061,427.125 476.651,432.796 457.85,445.867C372.954,504.893 324.283,712.807 302.477,810.572C294.547,846.123 286.687,881.934 280.218,917.777L191.629,917.838C170.398,877.23 158.391,828.02 155.295,782.55C149.147,689.241 180.361,597.317 242.059,527.036C306.946,452.919 393.375,414.829 490.725,408.314ZM504.716,465.225C505.327,465.155 505.935,465.101 506.55,465.084C518.136,464.772 528.439,471.166 536.629,478.815C599.765,537.773 625.018,735.614 634.723,819.959C638.43,852.178 642.644,885.373 643.802,917.763L510.312,917.778L369.026,917.821C376.479,811.872 404.49,576.733 463.772,494.478C474.066,480.194 486.701,468.115 504.716,465.225Z" style="fill:rgb(249,248,245);"  data-color="color-4"/>
        <path d="M440.797,494.226C441.016,495.86 436.599,503.082 435.609,504.832C426.278,521.324 418.895,539.401 413.052,557.47C371.121,687.131 351.785,823.056 340.528,958.488L304.027,958.496L303.955,958.097C321.07,845.543 371.181,572.3 440.797,494.226ZM538.311,455.191C542.378,456.057 546.653,459.183 550.05,461.544C630.99,517.823 673.13,716.411 692.541,809.84C700.035,845.74 707.107,881.726 713.757,917.792L678.324,917.802C666.749,808.897 652.625,697.905 618.728,593.478C600.472,537.232 583.772,494.517 538.311,455.191Z" style="fill:rgb(209,209,209);"  data-color="color-3"/>
        <path d="M350.555,983.54C384.959,979.837 398.972,997.316 430.149,999.184C459.508,1000.94 476.597,983.643 507.534,983.111C537.84,982.589 549.769,996.594 578.224,999.054C607.067,1001.55 625.645,983.759 653.73,983.165C663.304,982.882 677.305,983.781 686.116,987.522C714.191,999.446 724.073,1002.12 754.305,993.69C748.714,999.406 743.791,1003.48 737.508,1008.14C710.678,1028.05 695.434,1009.31 666.351,1004.3C631.943,1001.08 619.376,1019.46 586.017,1020.93C555.639,1022.28 539.509,1005.34 511.421,1004.09C485.385,1002.93 467.577,1018.88 440.345,1020.86C406.313,1023.34 392.692,1006.12 360.788,1003.96C338.277,1002.44 324.811,1015.43 304.982,1017.1C289.328,1018.41 272.248,1004.34 261.14,994.198C304.661,1008.97 311.994,987.552 350.555,983.54ZM429.547,1038.29C460.715,1034.7 475.889,1052.74 504.812,1054.49C533.772,1056.23 549.989,1038.11 579.219,1037.87C623.536,1037.5 627.817,1064.18 675.756,1050.51C675.158,1051.01 674.554,1051.5 673.944,1051.98C659.214,1063.64 636.965,1073.39 618.503,1067.8C605.787,1063.95 599.391,1060.61 585.738,1058.99C555.576,1058.26 542.279,1073.42 512.878,1074.9C501.098,1075.44 489.318,1073.84 478.106,1070.19C463.036,1065.35 453.377,1059.71 436.686,1059.1C418.109,1058.43 407.136,1067.52 390.27,1069.86C372.249,1072.37 351.646,1061.26 337.732,1050.22C382.91,1064.28 391.455,1042.16 429.547,1038.29Z" style="fill:rgb(249,248,245);"/>
    </g>
</svg>
