<svg width="100%" height="100%" viewBox="0 0 121 63" version="1.1" xmlns="http://www.w3.org/2000/svg" xmlns:xlink="http://www.w3.org/1999/xlink" xml:space="preserve" xmlns:serif="http://www.serif.com/" style="fill-rule:evenodd;clip-rule:evenodd;stroke-linejoin:round;stroke-miterlimit:2;">
    <g transform="matrix(1,0,0,1,-271.091,-1148.27)">
        <g transform="matrix(1,0,0,1,-217.279,893.106)">
            <path id="KS" d="M608.923,312.72L606.496,271.662L602.128,269.138L601.74,267.197L598.246,264.091L601.643,259.917L600.284,257.491L597.761,257.588L595.431,255.938L594.46,255.161L591.16,255.355L555.344,256.714L538.94,257.103L506.327,257.103L493.224,256.908L489.535,256.811L489.535,258.656L489.438,264.382L488.37,315.729L488.37,317.67L492.544,317.767L515.063,318.058L567.768,317.282L605.331,315.535L609.02,315.243L608.923,312.72L608.923,312.72Z" style="fill:rgb(249,249,249);"  data-color="color-1"/>
        </g>
    </g>
</svg>
