
<svg width="100%" height="100%" viewBox="0 0 118 131" version="1.1" xmlns="http://www.w3.org/2000/svg" xmlns:xlink="http://www.w3.org/1999/xlink" xml:space="preserve" xmlns:serif="http://www.serif.com/" style="fill-rule:evenodd;clip-rule:evenodd;stroke-linejoin:round;stroke-miterlimit:2;">
    <g transform="matrix(1,0,0,1,-742.204,-1448.25)">
        <g transform="matrix(0.991148,0.132761,-0.132761,0.991148,108.185,1279.15)">
            <path id="MI" d="M720.06,205.465L732.096,203.524L735.493,202.844L750.344,200.224L750.635,201.485L751.606,201.194L758.012,199.835L764.127,198.379L770.339,196.826L770.242,196.535L773.445,190.226L773.154,184.985L776.745,175.958L779.56,177.608L780.628,175.57L780.336,167.804L777.716,162.951L773.833,152.663L770.436,148.877L768.689,148.392L762.38,152.76L763.059,153.633L759.759,159.845L756.556,159.263L755.585,152.76L756.944,152.274L759.759,145.771L760.05,134.318L755.682,124.611L745.976,122.961L745.005,121.505L735.978,118.885L731.902,123.932L732.29,128.3L729.184,132.182L729.863,138.2L726.855,140.336L726.855,132.765L724.137,138.491L720.934,143.539L718.798,145.189L719.866,150.527L718.507,156.06L719.284,162.951L718.313,166.349L725.302,179.743L726.175,184.888L725.302,194.4L720.642,205.077L720.06,205.465L720.06,205.465ZM655.125,115.293L658.231,117.04L674.149,121.894L681.526,123.835L688.709,124.32L693.95,128.591L693.95,135.191L698.609,139.85L698.609,139.753L702.395,128.785L706.957,125.582L710.451,121.699L711.033,125.194L714.625,119.661L723.263,116.361L723.943,115.002L732.678,116.07L736.076,117.817L737.726,113.546L739.279,114.517L746.073,113.449L744.423,110.731L741.414,108.984L741.996,102.675L736.076,105.975L730.64,105.296L728.893,101.122L729.475,99.763L722.098,103.257L717.342,103.549L708.801,108.79L707.83,110.731L702.589,109.469L699.289,110.925L692.688,105.199L678.032,100.734L677.741,98.987L668.326,108.014L662.987,109.372L655.416,115.099L655.125,115.293L655.125,115.293ZM689.485,93.26L678.129,98.89L681.914,102.578L683.37,98.89L687.253,94.134L689.485,93.26ZM676.77,79.962L669.005,85.301L668.617,87.922L674.732,83.457L676.77,79.962Z" style="fill:rgb(249,249,249);"  data-color="color-1"/>
        </g>
    </g>
</svg>
