<svg width="100%" height="100%" viewBox="0 0 151 115" version="1.1" xmlns="http://www.w3.org/2000/svg" xmlns:xlink="http://www.w3.org/1999/xlink" xml:space="preserve" xmlns:serif="http://www.serif.com/" style="fill-rule:evenodd;clip-rule:evenodd;stroke-linejoin:round;stroke-miterlimit:2;">
    <g transform="matrix(1,0,0,1,-222.719,-642.657)">
        <g transform="matrix(0.977217,0.212243,-0.212243,0.977217,189.925,164.29)">
            <path id="AK" d="M159.035,548.777L159.132,548.583L158.938,548.486L159.035,548.777L159.035,548.777ZM156.609,547.904L153.212,550.913L155.638,550.719L158.453,548.486L156.609,547.904ZM162.724,548.971L162.044,548.777L162.53,549.166L162.724,548.971ZM164.083,549.068L163.015,548.777L162.821,548.874L164.083,549.069L164.083,549.068ZM160.394,547.71L159.327,547.71L161.171,548.195L160.394,547.71ZM164.859,548.68L164.762,548.486L164.374,548.583L164.859,548.68L164.859,548.68ZM161.947,547.515L161.559,547.321L161.559,548.389L161.947,547.515ZM170.198,544.409L167.771,544.895L165.636,547.71L170.198,544.409ZM297.544,533.344L296.283,536.936L297.544,536.159L297.544,533.344ZM287.935,533.732L297.059,541.983L295.603,538.586L289.585,533.441L287.935,533.732ZM291.235,532.082L290.847,533.538L291.526,533.053L291.235,532.082ZM293.274,532.082L293.177,533.053L294.05,533.344L293.274,532.082L293.274,532.082ZM289.682,530.141L290.168,531.985L291.138,531.403L289.682,530.141ZM285.994,529.462L288.226,532.568L287.935,530.529L285.994,529.462ZM279.102,530.238L278.52,532.082L279.297,530.821L279.102,530.238ZM201.452,534.994L201.355,534.897L201.452,534.994ZM210.673,535.188L210.479,534.897L210.673,535.285L210.673,535.188L210.673,535.188ZM279.297,528.782L283.179,535.188L282.597,530.821L279.297,528.782ZM216.108,532.179L215.817,532.471L216.303,532.665L216.108,532.179ZM214.847,532.374L214.944,532.082L214.555,532.082L214.847,532.374L214.847,532.374ZM213.876,532.374L211.352,534.024L208.246,538.1L209.799,539.75L216.982,534.412L213.876,532.374ZM213.294,531.209L213.391,531.597L214.07,531.985L213.294,531.209L213.294,531.209ZM281.626,522.667L280.85,522.376L280.655,522.958L281.626,522.667ZM279.588,522.57L283.567,528.394L282.5,523.056L279.588,522.57ZM215.526,528.879L213.197,530.626L214.264,531.791L217.37,529.462L215.526,528.879ZM217.856,525.967L217.661,526.065L217.661,526.162L217.856,525.968L217.856,525.967ZM216.885,525.773L216.788,525.773L216.594,526.065L216.885,525.773L216.885,525.773ZM219.214,524.997L218.923,524.803L218.923,524.9L219.214,524.997L219.214,524.997ZM219.991,524.9L219.7,524.706L219.7,524.803L219.991,524.9L219.991,524.9ZM218.729,524.609L218.341,524.609L218.341,524.706L218.729,524.609ZM224.359,511.893L224.359,511.602L224.359,511.893ZM173.692,499.857L173.886,499.275L173.789,499.372L173.692,499.857L173.692,499.857ZM173.983,498.887L173.886,498.79L173.789,498.887L173.983,498.887ZM178.254,496.557L178.254,496.46L178.254,496.557ZM178.254,496.169L178.157,495.975L178.254,496.169ZM180.001,493.645L179.904,493.645L180.001,493.645ZM180.583,493.839L180.195,493.645L180.195,493.742L180.583,493.839L180.583,493.839ZM180.001,493.451L180.001,493.257L179.807,493.451L180.001,493.451ZM187.475,491.607L186.407,491.704L186.99,491.995L187.475,491.607L187.475,491.607ZM177.671,483.357L177.671,483.162L177.671,483.357ZM172.818,473.068L172.624,472.971L172.721,473.068L172.818,473.068L172.818,473.068ZM175.633,474.038L175.924,473.941L175.827,473.941L175.633,474.038L175.633,474.038ZM177.574,473.456L177.866,473.456L178.739,473.068L177.574,473.456ZM181.069,472.388L181.263,472.194L180.972,472.388L181.069,472.388L181.069,472.388ZM181.554,472.291L182.136,472L181.651,472.097L181.554,472.291L181.554,472.291ZM183.01,471.709L182.525,471.806L182.525,471.903L183.01,471.709L183.01,471.709ZM245.324,454.14L244.936,453.849L244.257,453.558L245.324,454.14ZM194.463,452.005L195.337,450.84L194.852,451.229L194.463,452.005ZM195.628,450.646L196.016,450.064L195.822,450.258L195.628,450.646ZM196.21,449.87L196.89,449.287L196.502,449.481L196.21,449.87ZM226.785,450.064L227.271,450.549L227.562,450.549L226.785,450.064ZM211.158,443.658L207.179,446.958L204.752,446.278L199.122,449.481L198.055,448.802L191.649,455.985L185.145,457.441L185.728,460.935L188.64,464.914L194.075,470.156L193.202,472.194L197.278,473.941L195.143,474.33L192.522,472.291L193.881,475.3L192.134,476.368L186.601,471.321L182.233,472.097L174.76,474.912L178.157,478.697L177.671,481.027L179.904,483.745L187.281,486.657L192.619,483.939L193.493,485.977L192.037,492.092L187.572,492.092L182.33,494.422L182.039,492.772L179.322,493.839L178.06,496.654L173.595,500.051L173.595,505.002L175.342,505.778L173.983,509.952L179.807,514.999L183.495,513.446L182.719,519.658L183.786,521.017L188.251,521.988L189.901,523.832L193.784,524.123L195.628,526.064L199.608,524.899L197.764,527.423L196.308,532.567L184.466,540.235L182.913,541.788L180.68,540.915L177.089,541.788L171.945,545.186L180.001,542.856L181.166,544.603L191.551,541.206L191.843,542.565L195.919,538.488L204.461,532.567L205.14,532.956L212.614,527.035L210.673,524.705L213.197,520.532L219.797,512.67L224.844,511.699L226.397,512.767L220.282,514.514L218.632,521.017L218.826,524.511L220.962,524.317L231.25,518.105L232.027,515.776L231.153,512.184L234.259,512.961L236.492,511.505L242.898,515.387L242.413,516.455L256.972,518.299L260.369,517.232L261.34,518.687L273.958,524.705L276.093,523.444L276.288,516.164L277.938,519.464L286.091,525.385L286.77,527.811L293.856,531.791L295.7,536.935L297.447,532.956L301.039,539.944L303.465,535.965L301.524,531.014L294.05,530.238L282.597,519.27L276.385,514.708L271.629,519.367L268.814,519.367L262.31,515.096L255.904,514.805L246.78,457.247L245.227,454.529L241.539,452.296L236.006,453.364L231.736,452.49L226.3,450.355L220.573,450.743L219.117,448.026L214.555,447.346L213.779,445.696L211.741,448.026L211.158,443.658Z" style="fill:rgb(249,249,249);" data-color="color-1"/>
        </g>
    </g>
</svg>
