<svg width="100%" height="100%" viewBox="0 0 95 146" version="1.1" xmlns="http://www.w3.org/2000/svg" xmlns:xlink="http://www.w3.org/1999/xlink" xml:space="preserve" xmlns:serif="http://www.serif.com/" style="fill-rule:evenodd;clip-rule:evenodd;stroke-linejoin:round;stroke-miterlimit:2;">
    <g transform="matrix(1,0,0,1,-237.23,-375.409)">
        <g transform="matrix(0.985383,-0.170351,0.170351,0.985383,-9.44666,236.186)">
            <path id="NV" d="M294.827,295.831L304.921,233.031L310.066,201.582L310.648,198.476L307.833,197.991L296.865,195.953L269.396,190.517L266.678,189.935L263.961,189.352L250.275,186.344L225.718,180.52L223,179.84L222.126,183.529L208.926,239.534L220.379,256.035L232.221,272.438L253.187,302.528L268.231,323.688L275.996,334.074L278.52,337.471L278.52,337.18L280.073,333.879L280.17,318.446L284.441,314.855L287.838,317.864L290.071,317.961L294.341,299.131L294.341,298.937L294.827,295.831L294.827,295.831Z" style="fill:rgb(249,249,249);"   data-color="color-1"/>
        </g>
    </g>
</svg>
