<?xml version="1.0" encoding="UTF-8" standalone="no"?>
<!DOCTYPE svg PUBLIC "-//W3C//DTD SVG 1.1//EN" "http://www.w3.org/Graphics/SVG/1.1/DTD/svg11.dtd">
<svg width="100%" height="100%" viewBox="0 0 850 850" version="1.1" xmlns="http://www.w3.org/2000/svg" xmlns:xlink="http://www.w3.org/1999/xlink" xml:space="preserve" xmlns:serif="http://www.serif.com/" style="fill-rule:evenodd;clip-rule:evenodd;stroke-linejoin:round;stroke-miterlimit:2;">
    <g transform="matrix(1,0,0,1,-85.4124,-93.1019)">
        <path d="M496.603,93.321C731.004,85.867 927.076,269.822 934.57,504.221C942.064,738.62 758.142,934.723 523.744,942.257C289.29,949.793 93.129,765.817 85.634,531.362C78.138,296.906 262.147,100.777 496.603,93.321ZM498.985,110.19C724.004,104.029 911.446,281.381 917.733,506.397C924.02,731.413 746.772,918.954 521.76,925.366C296.57,931.784 108.848,754.366 102.556,529.172C96.265,303.979 273.788,116.356 498.985,110.19Z" style="fill:rgb(0,200,230);"/>
        <path d="M498.985,110.19C724.004,104.029 911.446,281.381 917.733,506.397C924.02,731.413 746.772,918.954 521.76,925.366C296.57,931.784 108.848,754.366 102.556,529.172C96.265,303.979 273.788,116.356 498.985,110.19ZM391.076,426.314C391.742,427.944 390.087,445.931 389.576,448.624C388.983,451.751 380.759,464.421 378.693,467.743C363.508,492.159 347.68,516.17 331.226,539.75C319.08,556.944 305.491,574.74 292.966,591.753C291.199,594.154 278.871,601.863 275.487,604.14C264.663,611.519 253.762,618.784 242.786,625.935C242.782,624.798 257.371,608.29 259.447,605.828C307.11,549.319 353.685,490.207 391.076,426.314ZM365.422,705.714L370.843,705.455C367.75,719.381 366.077,737.709 363.295,752.413L216.59,752.441C213.3,748.651 210.126,744.762 207.073,740.779C201.432,734.317 194.494,722.831 190.082,715.499C248.043,711.661 307.34,708.9 365.422,705.714ZM570.328,367.917C571.202,371.99 571.72,386.598 571.922,391.209C572.589,405.773 573.127,420.343 573.534,434.917C566.285,430.612 559.274,426.213 551.935,421.943C544.192,417.636 542.451,415.751 536.307,409.512C547.474,397.692 561.028,380.92 570.328,367.917ZM387.885,472.904C389.06,474.155 387.297,497.299 387.183,500.687C387.092,503.39 380.041,515.227 378.388,518.053C373.918,525.692 369.737,533.997 364.693,541.289C362.549,544.272 349.05,553.143 345.354,555.68C337.748,560.861 330.217,566.152 322.764,571.55L322.332,571.087C328.588,561.61 338,549.556 344.806,539.779C360.007,518.041 374.377,495.733 387.885,472.904ZM501.777,440.843C503.568,442.754 521.93,602.958 524.132,620.395C517.385,621.005 510.634,621.571 503.88,622.095C497.09,622.878 489.481,623.348 482.555,624.018C483.936,605.893 484.268,585.678 485.117,567.295L490.791,451.57C494.396,447.936 498.058,444.36 501.777,440.843ZM737.258,547.41C739.59,547.744 763.066,561.186 767.026,563.294C783.562,572.132 800.334,580.524 817.322,588.459C819.684,589.547 832.79,595.259 833.363,596.212L832.122,596.407C819.201,597.011 805.47,598.449 792.367,599.238C775.712,583.08 754.622,562.866 737.258,547.41ZM590.832,457.657C597.416,461.878 610.668,470.035 616.346,474.621C617.096,482.535 617.459,491.084 617.945,499.073C614.351,496.327 594.944,470.818 591.072,465.705L590.832,457.657ZM626.894,451.824C629.259,453.756 639.022,464.647 641.579,467.373C649.528,475.804 657.66,484.062 665.968,492.141C661.766,491.098 633.504,472.941 628.074,469.522C627.72,463.62 627.327,457.721 626.894,451.824ZM621.997,382.351C623.47,383.481 635.989,397.212 638.602,399.853C651.095,412.435 663.932,424.67 677.1,436.544C737.983,491.325 807.87,535.179 883.679,566.172C882.769,572.779 881.674,579.36 880.397,585.906C880.039,587.723 880.516,587.202 879.414,588.02C876.782,587.537 874.788,586.115 872.559,584.731C833.064,560.205 795.342,533.229 757.981,505.516C735.581,489.138 713.407,472.455 691.465,455.47C668.137,437.003 645.326,417.891 623.061,398.155C622.653,392.891 622.299,387.622 621.997,382.351ZM624.288,413.625C625.889,414.593 633.541,421.396 635.327,422.937C642.815,429.452 650.379,435.878 658.018,442.214C680.993,461.069 704.375,479.421 728.149,497.257C758.624,520.324 789.534,542.811 820.862,564.705C830.1,571.046 839.491,577.162 849.027,583.047C852.494,585.217 862.331,591.043 865.113,593.358C861.716,593.68 857.954,594.323 854.563,594.097C845.085,593.464 722.663,529.072 711.531,520.438C702.865,513.717 694.966,504.882 686.999,497.284C665.957,477.216 645.374,456.997 625.647,435.626C625.479,428.686 624.755,420.63 624.288,413.625ZM384.578,541.019L384.993,541.731C384.625,550.011 383.187,564.873 381.857,572.877C381.274,576.39 373.513,591.561 371.386,595.871L352.189,634.904C342.767,635.501 332.877,636.51 323.401,637.233L323.276,637.165L323.115,636.5L358.875,574.549C363.691,566.2 368.854,556.117 374.353,548.34C375.379,546.888 382.664,542.286 384.578,541.019ZM452.992,378.945C458.524,383.291 462.416,386.504 468.192,390.588L458.379,458.948L450.461,467.403C450.801,464.438 450.897,461.445 450.945,458.462C451.375,431.949 452.263,405.447 452.992,378.945ZM552.939,269.254C555.771,271.976 559.312,281.634 560.544,285.739C567.241,308.054 536.87,368.609 525.94,389.07C524.621,391.646 522.86,394.028 521.201,396.407C524.193,388.497 527.828,381.507 531.024,372.544C542.619,339.166 549.982,304.465 552.939,269.254ZM510.533,205.85C514.741,207.234 517.516,208.906 521.158,211.291C521.581,264.51 519.06,309.778 507.022,361.891C506.708,363.46 506.472,366.059 505.402,367.023C503.756,366.193 503.897,365.671 502.758,363.747C504.181,355.368 504.945,343.58 505.893,334.924C510.597,292.014 510.214,248.965 510.533,205.85ZM393.904,383.941C394.565,384.733 393.231,401.957 392.405,403.934C390.53,408.428 386.893,414.173 384.316,418.388C378.6,427.693 372.691,436.878 366.593,445.937C319.349,516.854 266.596,583.942 208.823,646.579C204.343,647.275 196.772,647.693 192.055,648.094C180.796,649.014 169.543,649.994 158.295,651.034C157.602,649.868 157.781,650.109 157.416,648.742C157.858,647.409 184.462,625.163 187.942,622.096C201.979,609.705 215.797,597.068 229.39,584.191C243.166,571.118 256.884,556.067 270.173,542.431C307.408,504.221 341.055,463.515 371.39,419.618C378.977,408.638 386.886,395.408 393.904,383.941ZM565.399,694.207L566.503,694.376C568.775,697.325 565.355,744.385 564.99,752.434L454.891,752.436C453.87,752.319 454.33,752.522 453.537,751.769L452.825,699.991C489.75,697.564 528.331,696.081 565.399,694.207ZM352.001,563.504L352.195,563.718C352.115,565.263 313.416,630.448 308.794,638.424L271.685,641.612L271.388,641.347C271.592,640.228 280.535,628.845 281.904,627.03C286.014,621.658 289.99,616.186 293.829,610.616C295.442,608.293 301.295,599.763 303.032,598.107C307.193,594.139 315.641,589.118 320.618,585.695C331.161,578.442 341.853,571.306 352.001,563.504ZM566.658,320.828C567.636,323.616 569.286,346.996 569.566,350.747C565.768,356.248 562.365,362.287 558.329,367.766C549.678,379.505 540.637,391.034 531.396,402.306L530.528,402.701L529.841,402.35C529.911,401.978 543.654,377.118 545.148,374.08C550.473,363.497 555.211,352.629 559.338,341.524C561.722,335.072 563.868,327.538 566.427,321.374L566.658,320.828ZM583.547,336.455C584.707,337.47 593.038,349.095 594.771,351.367C599.053,356.979 604.926,363.677 608.874,369.311C609.138,374.642 609.614,380.209 609.996,385.553C606.264,382.92 589.026,365.7 585.693,361.962C585.166,353.445 584.45,344.94 583.547,336.455ZM478.142,396.365L488.191,402.024C487.29,411.22 485.934,421.076 484.891,430.364C481.878,434.078 478.583,437.67 475.391,441.241C473.576,443.154 471.501,445.166 469.628,447.051C470.911,441.862 472.023,434.12 472.952,428.696C474.893,417.954 476.624,407.175 478.142,396.365ZM510.545,827.205C531.68,825.199 544.253,835.747 564.557,837.439C583.793,839.041 602.442,828.081 620.125,827.955C649.883,827.742 659.984,843.589 692.538,833.153C691.797,833.959 691.017,834.729 690.202,835.462C682.786,842.154 676.506,844.784 666.907,846.763C650.327,850.181 637.516,840.658 622.086,841.984C599.932,843.889 585.888,853.742 562.049,852.077C544.332,850.839 532.207,843.337 515.632,842.473C495.337,842.57 484.641,851.509 463.515,852.583C443.793,855.098 423.596,842.693 405.061,842.07C374.449,841.041 359.674,860.03 332.937,833.64C365.031,843.561 376.971,827.028 406.527,827.413C426.745,827.676 442.865,839.52 464.745,837.518C482.867,835.859 492.186,828.721 510.545,827.205ZM375.116,649.218L376.052,649.376C376.722,651.358 375.22,664.323 374.92,667.428C359.019,668.173 341.032,669.929 324.946,671.148L227.367,678.569C211.905,679.744 187.453,682.31 172.432,682.531C170.695,681.604 171.255,681.947 170.203,679.848C168.146,675.743 166.109,670.858 164.224,666.618C174.597,665.48 185.27,664.652 195.677,663.842C255.454,659.192 315.308,653.267 375.116,649.218ZM873.557,610.237L874.251,610.338C874.859,612.682 869.666,628.345 868.572,631.906C851.521,632.335 831.474,634.218 814.209,635.416L719.556,641.994L453.12,661.367L452.51,661.15C451.776,659.663 451.784,645.862 451.734,643.219C462.792,642.554 475.33,641.082 486.513,640.085C508.686,638.09 530.869,636.211 553.062,634.448C659.832,625.586 766.667,617.515 873.557,610.237ZM631.981,536.231C633.515,537.043 642.016,548.521 643.636,550.621L674.909,591.091C676.684,593.362 686.58,605.586 687.186,606.836C686.274,607.834 686.221,607.495 684.379,607.616C668.925,609.218 652.1,610.251 636.536,611.542C636.015,593.933 634.328,576.036 633.525,558.411C633.195,551.187 632.754,543.4 631.981,536.231ZM541.679,429.325C559.354,436.63 563.581,445.352 574.459,459.951C574.664,481.531 575.229,505.621 574.407,526.998C572.337,522.824 567.259,505.63 565.336,500.175C557.189,477.07 550.256,452.178 541.679,429.325ZM496.677,406.801C498.178,407.705 499.422,408.73 500.802,409.801L496.79,415.744C496.156,416.639 496.572,416.31 495.527,416.714C495.216,414.689 496.301,409.14 496.677,406.801ZM482.651,362.842C484.503,364.588 488.59,371.047 489.189,373.75C486.673,371.841 484.481,369.667 482.189,367.495L482.651,362.842ZM484.048,342.419C485.702,344.193 489.429,352.769 490.35,355.212C487.276,353.224 484.047,346.119 484.048,342.419ZM451.608,489.801L452.221,490.42C452.32,493.294 451.382,498.352 450.687,501.159L450.506,501.1C450.363,497.231 449.717,493.067 451.608,489.801ZM397.793,342.372C397.978,343.789 397.062,353.457 396.747,354.716C394.044,365.545 382.765,381.272 376.477,391.238C330.808,463.623 272.164,528.403 210.321,587.306C195.213,601.697 169.58,624.794 152.908,636.488L150.971,630.597C148.146,622.375 145.989,614.056 143.8,605.649C207.856,559.957 266.618,507.265 318.997,448.551C334.711,430.904 349.918,413.209 363.883,394.122C376.231,377.245 386.852,360.154 397.793,342.372ZM629.082,482.29C631.025,483.165 636.425,486.659 638.463,487.899C644.06,491.288 649.675,494.646 655.309,497.973L679.715,512.277C682.895,514.134 691.532,518.942 694.039,521.124C702.262,528.279 710.622,536.872 718.374,544.571C730.62,556.662 743.034,568.582 755.613,580.326C761.544,585.939 770.873,595.258 776.938,600.164L777.478,600.598C775.228,600.86 772.66,600.965 770.376,601.112L701.118,606.374C687.004,587.449 672.001,569.046 658.002,549.959C649.482,538.342 639.721,527.21 631.031,515.587C630.573,504.478 629.923,493.377 629.082,482.29ZM464.15,279.384C467.21,283.707 469.684,302.48 472.107,308.41C473.965,312.96 476.876,325.37 474.385,329.752L473.771,329.351C468.058,318.393 464.772,311.631 460.241,300.208C461.83,293.97 462.91,285.909 464.15,279.384ZM478.691,230.835C480.219,236.231 478.134,280.597 477.858,289.06L475.765,282.271C473.583,273.672 471.72,264.726 469.864,256.049C472.195,247.443 475.145,239.016 478.691,230.835ZM273.963,617.535L274.259,618.239C268.047,626.497 261.784,634.717 255.471,642.897C247.911,643.732 240.256,644.276 232.625,645.12L232.263,644.834L232.566,644.168C243.089,638.321 265.543,623.633 273.963,617.535ZM493.281,143.211C509.701,141.993 528.27,143.199 544.689,144.569C756.114,162.22 903.705,345.847 884.862,555.522C867.712,549.106 845.062,537.967 828.995,529.405C765.54,495.57 707.23,452.864 655.823,402.577C645.377,392.33 629.579,376.124 620.632,364.608C619.354,357.009 618.711,345.554 617.744,337.501C615.598,318.72 612.332,300.084 607.964,281.692C595.487,230.172 558.737,140.271 491.108,156.834C485.874,158.652 480.882,161.104 476.244,164.136C431.227,193.269 413.697,256.011 404.423,305.258C402.187,317.129 386.649,341.61 379.905,352.035C328.133,432.057 260.599,500.908 186.416,560.317C172.578,571.399 155.855,584.892 141.192,594.234C137.695,576.076 135.408,557.705 134.345,539.244C123.417,334.21 271.413,161.389 476.35,144.293C481.999,143.822 487.621,143.508 493.281,143.211ZM501.323,167.613C522.656,165.139 540.764,177.558 553.708,193.414C589.696,237.499 598.089,294.779 606.401,348.991C598.881,339.342 586.528,324.56 581.655,313.601C578.206,305.847 577.988,295.175 576.264,286.766C570.322,257.779 560.355,223.777 539.69,201.732C531.423,192.913 521.126,186.226 508.724,185.912C499.049,185.668 490.589,189.778 483.71,196.412C445.154,233.6 442.124,356.707 440.256,409.028C438.927,448.926 438.198,488.842 438.071,528.762C437.596,608.524 437.884,688.289 438.933,768.046L410.413,768.042C410.652,728.306 411.708,687.342 412.414,647.58L415.179,502.25C416.949,436.946 418.068,370.168 427.325,305.421C433.173,264.518 453.481,176.917 501.323,167.613ZM591.177,483.876C592.693,485.207 598.709,493.013 600.245,494.995C606.402,502.943 613.043,510.928 618.958,519.011L621.921,579.448C622.469,589.871 623.361,601.658 623.557,612.001L622.709,612.75C617.303,613.085 611.83,613.351 606.457,613.994C602.095,603.446 596.257,589.939 592.809,579.262C591.722,575.893 592.387,558.317 592.369,553.083C592.306,538.6 592.153,524.118 591.91,509.636C591.781,501.678 591.809,491.667 591.177,483.876ZM480.892,461.979C481.503,463.277 479.854,483.304 479.663,486.178C476.527,532.404 473.8,578.657 471.481,624.931L451.577,626.658C450.824,617.948 451.294,606.264 451.227,597.316C451.091,579.165 449.701,560.828 453.219,542.969C457.376,521.872 460.268,500.516 463.709,479.298C469.364,473.453 475.092,467.68 480.892,461.979ZM586.708,377.874C588.329,379.027 594.037,384.87 595.76,386.569C600.855,391.675 606.081,396.649 611.433,401.486C613.42,420.445 614.096,442.14 615.295,461.233C612.664,460.076 593.583,447.26 590.131,445.005C589.742,425.205 588.51,397.416 586.708,377.874ZM380.292,600.484L380.608,600.725C380.733,606.593 378.658,626.118 378.143,632.558C374.261,633.176 368.246,633.48 364.185,633.811L363.776,633.297C369.422,622.431 374.928,611.492 380.292,600.484ZM457.125,320.27C457.844,320.84 470.976,344.981 472.612,347.859C472.545,350.95 472.462,352.806 472.073,355.903C465.777,349.129 461.08,342.221 455.955,334.618C456.513,329.83 456.799,325.076 457.125,320.27ZM454.601,350.366C455.624,351.303 459.296,356.192 460.335,357.559C463.782,362.096 466.553,365.315 470.602,369.319C470.223,372.494 470.102,375.266 469.958,378.454C462.224,373.053 458.85,370.47 453.638,362.836C454.034,358.685 454.355,354.528 454.601,350.366ZM480.739,379.792C484.764,382.34 489.913,386.622 489.86,391.702C486.564,389.959 482.978,387.614 479.772,385.62C480.32,383.612 480.482,381.841 480.739,379.792ZM526.398,419.862C527.905,420.959 528.671,421.937 529.247,423.697C533.13,435.547 536.831,447.457 540.641,459.332C546.492,477.314 552.48,495.252 558.602,513.144L568.248,540.636C574.743,558.974 574.492,558.712 573.969,578.084C573.506,590.884 573.172,603.687 572.968,616.493C568.86,617.095 563.126,617.373 558.878,617.704L536.632,619.456C535.813,610.922 534.294,601.006 533.185,592.42C530.798,573.706 528.289,555.007 525.659,536.325C520.905,502.489 516.402,468.179 511.286,434.458C516.295,429.805 521.279,424.132 526.398,419.862ZM499.189,205.379L500.225,205.907C500.888,210.176 500.476,230.564 500.546,235.627C501.042,271.62 498.331,306.898 495.687,342.7L492.895,336.664C485.966,320.529 486.236,319.662 487.205,302.752C487.633,294.519 488.006,286.284 488.324,278.047C488.982,257.405 488.608,234.474 488.506,213.698C491.95,209.273 494.195,207.675 499.189,205.379ZM567.805,782.209C590.661,781.888 599.611,792.092 622.815,794.172C645.93,796.244 661.531,782.618 680.903,782.643C710.675,782.681 719.622,800.732 753.876,789.421C752.602,790.716 751.245,791.926 749.814,793.043C745.311,796.559 740.211,799.233 734.758,800.936C712.345,808.076 699.747,795.551 677.953,798.082C668.382,799.194 660.512,802.638 651.397,805.643C640.373,809.279 631.837,809.791 620.471,809.413C602.391,808.813 585.613,797.566 568.01,798.651C545.874,800.016 537.045,810.559 512.762,809.467C505.402,809.135 498.102,807.974 491.002,806.008C481.153,803.245 473.489,799.897 463.123,798.694C447.734,796.604 435.361,803.204 421.442,806.856C415.692,808.343 409.798,809.202 403.863,809.418C393.51,809.845 383.161,808.475 373.276,805.368C363.785,802.293 357.104,798.871 346.873,797.987C333.625,796.843 323.695,801.987 310.953,803.145C296.928,804.42 285.894,799.11 275.412,790.318C305.997,799.553 316.652,783.013 344.262,782.58C354.078,782.425 366.439,787.83 375.806,790.769C384.744,793.633 394.14,794.796 403.507,794.196C424.835,792.809 439.123,782.293 459.549,782.353C482.171,782.42 494.162,794.158 518.264,792.818C538.909,791.671 547.506,783.524 567.805,782.209ZM531.004,222.901C534.21,225.948 541.529,239.039 543.583,243.321C546.045,248.457 543.878,262.097 543.164,268.184C539.037,303.355 532.03,344.049 519.001,377.042L516.22,384.518L512.371,380.07C521.262,345.077 527.161,317.564 529.335,281.099C529.91,271.179 530.286,261.248 530.46,251.313C530.557,242.094 530.358,232.041 531.004,222.901ZM847.781,679.203C848.734,679.181 848.214,679.105 849.31,679.581C849.457,681.055 846.068,687.073 845.217,688.749C833.942,711.47 820.11,732.83 803.989,752.414L702.184,752.414C685.748,752.415 662.031,753.21 646.148,752.296C645.168,731.452 643.066,710.928 642.417,689.608C662.986,689.234 687.198,687.375 707.897,686.292L847.781,679.203ZM593.65,710.795C595.444,712.171 603.283,721.605 605.128,723.763L626.65,748.793C627.237,755.155 627.467,761.527 627.758,767.909C616.321,767.93 604.884,767.882 593.448,767.763L593.65,710.795Z" style="fill:rgb(4,38,0);"/>
        <path d="M873.557,610.237L874.251,610.338C874.859,612.682 869.666,628.345 868.572,631.906C851.521,632.335 831.474,634.218 814.209,635.416L719.556,641.994L453.12,661.367L452.51,661.15C451.776,659.663 451.784,645.862 451.734,643.219C462.792,642.554 475.33,641.082 486.513,640.085C508.686,638.09 530.869,636.211 553.062,634.448C659.832,625.586 766.667,617.515 873.557,610.237ZM375.116,649.218L376.052,649.376C376.722,651.358 375.22,664.323 374.92,667.428C359.019,668.173 341.032,669.929 324.946,671.148L227.367,678.569C211.905,679.744 187.453,682.31 172.432,682.531C170.695,681.604 171.255,681.947 170.203,679.848C168.146,675.743 166.109,670.858 164.224,666.618C174.597,665.48 185.27,664.652 195.677,663.842C255.454,659.192 315.308,653.267 375.116,649.218ZM501.323,167.613C522.656,165.139 540.764,177.558 553.708,193.414C589.696,237.499 598.089,294.779 606.401,348.991C598.881,339.342 586.528,324.56 581.655,313.601C578.206,305.847 577.988,295.175 576.264,286.766C570.322,257.779 560.355,223.777 539.69,201.732C531.423,192.913 521.126,186.226 508.724,185.912C499.049,185.668 490.589,189.778 483.71,196.412C445.154,233.6 442.124,356.707 440.256,409.028C438.927,448.926 438.198,488.842 438.071,528.762C437.596,608.524 437.884,688.289 438.933,768.046L410.413,768.042C410.652,728.306 411.708,687.342 412.414,647.58L415.179,502.25C416.949,436.946 418.068,370.168 427.325,305.421C433.173,264.518 453.481,176.917 501.323,167.613ZM591.177,483.876C592.693,485.207 598.709,493.013 600.245,494.995C606.402,502.943 613.043,510.928 618.958,519.011L621.921,579.448C622.469,589.871 623.361,601.658 623.557,612.001L622.709,612.75C617.303,613.085 611.83,613.351 606.457,613.994C602.095,603.446 596.257,589.939 592.809,579.262C591.722,575.893 592.387,558.317 592.369,553.083C592.306,538.6 592.153,524.118 591.91,509.636C591.781,501.678 591.809,491.667 591.177,483.876ZM586.708,377.874C588.329,379.027 594.037,384.87 595.76,386.569C600.855,391.675 606.081,396.649 611.433,401.486C613.42,420.445 614.096,442.14 615.295,461.233C612.664,460.076 593.583,447.26 590.131,445.005C589.742,425.205 588.51,397.416 586.708,377.874ZM593.65,710.795C595.444,712.171 603.283,721.605 605.128,723.763L626.65,748.793C627.237,755.155 627.467,761.527 627.758,767.909C616.321,767.93 604.884,767.882 593.448,767.763L593.65,710.795ZM583.547,336.455C584.707,337.47 593.038,349.095 594.771,351.367C599.053,356.979 604.926,363.677 608.874,369.311C609.138,374.642 609.614,380.209 609.996,385.553C606.264,382.92 589.026,365.7 585.693,361.962C585.166,353.445 584.45,344.94 583.547,336.455ZM590.832,457.657C597.416,461.878 610.668,470.035 616.346,474.621C617.096,482.535 617.459,491.084 617.945,499.073C614.351,496.327 594.944,470.818 591.072,465.705L590.832,457.657Z" style="fill:rgb(249,248,246);"/>
        <path d="M567.805,782.209C590.661,781.888 599.611,792.092 622.815,794.172C645.93,796.244 661.531,782.618 680.903,782.643C710.675,782.681 719.622,800.732 753.876,789.421C752.602,790.716 751.245,791.926 749.814,793.043C745.311,796.559 740.211,799.233 734.758,800.936C712.345,808.076 699.747,795.551 677.953,798.082C668.382,799.194 660.512,802.638 651.397,805.643C640.373,809.279 631.837,809.791 620.471,809.413C602.391,808.813 585.613,797.566 568.01,798.651C545.874,800.016 537.045,810.559 512.762,809.467C505.402,809.135 498.102,807.974 491.002,806.008C481.153,803.245 473.489,799.897 463.123,798.694C447.734,796.604 435.361,803.204 421.442,806.856C415.692,808.343 409.798,809.202 403.863,809.418C393.51,809.845 383.161,808.475 373.276,805.368C363.785,802.293 357.104,798.871 346.873,797.987C333.625,796.843 323.695,801.987 310.953,803.145C296.928,804.42 285.894,799.11 275.412,790.318C305.997,799.553 316.652,783.013 344.262,782.58C354.078,782.425 366.439,787.83 375.806,790.769C384.744,793.633 394.14,794.796 403.507,794.196C424.835,792.809 439.123,782.293 459.549,782.353C482.171,782.42 494.162,794.158 518.264,792.818C538.909,791.671 547.506,783.524 567.805,782.209ZM510.545,827.205C531.68,825.199 544.253,835.747 564.557,837.439C583.793,839.041 602.442,828.081 620.125,827.955C649.883,827.742 659.984,843.589 692.538,833.153C691.797,833.959 691.017,834.729 690.202,835.462C682.786,842.154 676.506,844.784 666.907,846.763C650.327,850.181 637.516,840.658 622.086,841.984C599.932,843.889 585.888,853.742 562.049,852.077C544.332,850.839 532.207,843.337 515.632,842.473C495.337,842.57 484.641,851.509 463.515,852.583C443.793,855.098 423.596,842.693 405.061,842.07C374.449,841.041 359.674,860.03 332.937,833.64C365.031,843.561 376.971,827.028 406.527,827.413C426.745,827.676 442.865,839.52 464.745,837.518C482.867,835.859 492.186,828.721 510.545,827.205Z" style="fill:rgb(0,200,230);"/>
        <path d="M629.082,482.29C631.025,483.165 636.425,486.659 638.463,487.899C644.06,491.288 649.675,494.646 655.309,497.973L679.715,512.277C682.895,514.134 691.532,518.942 694.039,521.124C702.262,528.279 710.622,536.872 718.374,544.571C730.62,556.662 743.034,568.582 755.613,580.326C761.544,585.939 770.873,595.258 776.938,600.164L777.478,600.598C775.228,600.86 772.66,600.965 770.376,601.112L701.118,606.374C687.004,587.449 672.001,569.046 658.002,549.959C649.482,538.342 639.721,527.21 631.031,515.587C630.573,504.478 629.923,493.377 629.082,482.29ZM526.398,419.862C527.905,420.959 528.671,421.937 529.247,423.697C533.13,435.547 536.831,447.457 540.641,459.332C546.492,477.314 552.48,495.252 558.602,513.144L568.248,540.636C574.743,558.974 574.492,558.712 573.969,578.084C573.506,590.884 573.172,603.687 572.968,616.493C568.86,617.095 563.126,617.373 558.878,617.704L536.632,619.456C535.813,610.922 534.294,601.006 533.185,592.42C530.798,573.706 528.289,555.007 525.659,536.325C520.905,502.489 516.402,468.179 511.286,434.458C516.295,429.805 521.279,424.132 526.398,419.862ZM397.793,342.372C397.978,343.789 397.062,353.457 396.747,354.716C394.044,365.545 382.765,381.272 376.477,391.238C330.808,463.623 272.164,528.403 210.321,587.306C195.213,601.697 169.58,624.794 152.908,636.488L150.971,630.597C148.146,622.375 145.989,614.056 143.8,605.649C207.856,559.957 266.618,507.265 318.997,448.551C334.711,430.904 349.918,413.209 363.883,394.122C376.231,377.245 386.852,360.154 397.793,342.372ZM393.904,383.941C394.565,384.733 393.231,401.957 392.405,403.934C390.53,408.428 386.893,414.173 384.316,418.388C378.6,427.693 372.691,436.878 366.593,445.937C319.349,516.854 266.596,583.942 208.823,646.579C204.343,647.275 196.772,647.693 192.055,648.094C180.796,649.014 169.543,649.994 158.295,651.034C157.602,649.868 157.781,650.109 157.416,648.742C157.858,647.409 184.462,625.163 187.942,622.096C201.979,609.705 215.797,597.068 229.39,584.191C243.166,571.118 256.884,556.067 270.173,542.431C307.408,504.221 341.055,463.515 371.39,419.618C378.977,408.638 386.886,395.408 393.904,383.941ZM624.288,413.625C625.889,414.593 633.541,421.396 635.327,422.937C642.815,429.452 650.379,435.878 658.018,442.214C680.993,461.069 704.375,479.421 728.149,497.257C758.624,520.324 789.534,542.811 820.862,564.705C830.1,571.046 839.491,577.162 849.027,583.047C852.494,585.217 862.331,591.043 865.113,593.358C861.716,593.68 857.954,594.323 854.563,594.097C845.085,593.464 722.663,529.072 711.531,520.438C702.865,513.717 694.966,504.882 686.999,497.284C665.957,477.216 645.374,456.997 625.647,435.626C625.479,428.686 624.755,420.63 624.288,413.625ZM501.777,440.843C503.568,442.754 521.93,602.958 524.132,620.395C517.385,621.005 510.634,621.571 503.88,622.095C497.09,622.878 489.481,623.348 482.555,624.018C483.936,605.893 484.268,585.678 485.117,567.295L490.791,451.57C494.396,447.936 498.058,444.36 501.777,440.843ZM480.892,461.979C481.503,463.277 479.854,483.304 479.663,486.178C476.527,532.404 473.8,578.657 471.481,624.931L451.577,626.658C450.824,617.948 451.294,606.264 451.227,597.316C451.091,579.165 449.701,560.828 453.219,542.969C457.376,521.872 460.268,500.516 463.709,479.298C469.364,473.453 475.092,467.68 480.892,461.979ZM391.076,426.314C391.742,427.944 390.087,445.931 389.576,448.624C388.983,451.751 380.759,464.421 378.693,467.743C363.508,492.159 347.68,516.17 331.226,539.75C319.08,556.944 305.491,574.74 292.966,591.753C291.199,594.154 278.871,601.863 275.487,604.14C264.663,611.519 253.762,618.784 242.786,625.935C242.782,624.798 257.371,608.29 259.447,605.828C307.11,549.319 353.685,490.207 391.076,426.314ZM621.997,382.351C623.47,383.481 635.989,397.212 638.602,399.853C651.095,412.435 663.932,424.67 677.1,436.544C737.983,491.325 807.87,535.179 883.679,566.172C882.769,572.779 881.674,579.36 880.397,585.906C880.039,587.723 880.516,587.202 879.414,588.02C876.782,587.537 874.788,586.115 872.559,584.731C833.064,560.205 795.342,533.229 757.981,505.516C735.581,489.138 713.407,472.455 691.465,455.47C668.137,437.003 645.326,417.891 623.061,398.155C622.653,392.891 622.299,387.622 621.997,382.351ZM384.578,541.019L384.993,541.731C384.625,550.011 383.187,564.873 381.857,572.877C381.274,576.39 373.513,591.561 371.386,595.871L352.189,634.904C342.767,635.501 332.877,636.51 323.401,637.233L323.276,637.165L323.115,636.5L358.875,574.549C363.691,566.2 368.854,556.117 374.353,548.34C375.379,546.888 382.664,542.286 384.578,541.019ZM631.981,536.231C633.515,537.043 642.016,548.521 643.636,550.621L674.909,591.091C676.684,593.362 686.58,605.586 687.186,606.836C686.274,607.834 686.221,607.495 684.379,607.616C668.925,609.218 652.1,610.251 636.536,611.542C636.015,593.933 634.328,576.036 633.525,558.411C633.195,551.187 632.754,543.4 631.981,536.231ZM352.001,563.504L352.195,563.718C352.115,565.263 313.416,630.448 308.794,638.424L271.685,641.612L271.388,641.347C271.592,640.228 280.535,628.845 281.904,627.03C286.014,621.658 289.99,616.186 293.829,610.616C295.442,608.293 301.295,599.763 303.032,598.107C307.193,594.139 315.641,589.118 320.618,585.695C331.161,578.442 341.853,571.306 352.001,563.504ZM531.004,222.901C534.21,225.948 541.529,239.039 543.583,243.321C546.045,248.457 543.878,262.097 543.164,268.184C539.037,303.355 532.03,344.049 519.001,377.042L516.22,384.518L512.371,380.07C521.262,345.077 527.161,317.564 529.335,281.099C529.91,271.179 530.286,261.248 530.46,251.313C530.557,242.094 530.358,232.041 531.004,222.901ZM499.189,205.379L500.225,205.907C500.888,210.176 500.476,230.564 500.546,235.627C501.042,271.62 498.331,306.898 495.687,342.7L492.895,336.664C485.966,320.529 486.236,319.662 487.205,302.752C487.633,294.519 488.006,286.284 488.324,278.047C488.982,257.405 488.608,234.474 488.506,213.698C491.95,209.273 494.195,207.675 499.189,205.379ZM510.533,205.85C514.741,207.234 517.516,208.906 521.158,211.291C521.581,264.51 519.06,309.778 507.022,361.891C506.708,363.46 506.472,366.059 505.402,367.023C503.756,366.193 503.897,365.671 502.758,363.747C504.181,355.368 504.945,343.58 505.893,334.924C510.597,292.014 510.214,248.965 510.533,205.85ZM387.885,472.904C389.06,474.155 387.297,497.299 387.183,500.687C387.092,503.39 380.041,515.227 378.388,518.053C373.918,525.692 369.737,533.997 364.693,541.289C362.549,544.272 349.05,553.143 345.354,555.68C337.748,560.861 330.217,566.152 322.764,571.55L322.332,571.087C328.588,561.61 338,549.556 344.806,539.779C360.007,518.041 374.377,495.733 387.885,472.904ZM570.328,367.917C571.202,371.99 571.72,386.598 571.922,391.209C572.589,405.773 573.127,420.343 573.534,434.917C566.285,430.612 559.274,426.213 551.935,421.943C544.192,417.636 542.451,415.751 536.307,409.512C547.474,397.692 561.028,380.92 570.328,367.917ZM541.679,429.325C559.354,436.63 563.581,445.352 574.459,459.951C574.664,481.531 575.229,505.621 574.407,526.998C572.337,522.824 567.259,505.63 565.336,500.175C557.189,477.07 550.256,452.178 541.679,429.325ZM737.258,547.41C739.59,547.744 763.066,561.186 767.026,563.294C783.562,572.132 800.334,580.524 817.322,588.459C819.684,589.547 832.79,595.259 833.363,596.212L832.122,596.407C819.201,597.011 805.47,598.449 792.367,599.238C775.712,583.08 754.622,562.866 737.258,547.41ZM452.992,378.945C458.524,383.291 462.416,386.504 468.192,390.588L458.379,458.948L450.461,467.403C450.801,464.438 450.897,461.445 450.945,458.462C451.375,431.949 452.263,405.447 452.992,378.945ZM552.939,269.254C555.771,271.976 559.312,281.634 560.544,285.739C567.241,308.054 536.87,368.609 525.94,389.07C524.621,391.646 522.86,394.028 521.201,396.407C524.193,388.497 527.828,381.507 531.024,372.544C542.619,339.166 549.982,304.465 552.939,269.254ZM566.658,320.828C567.636,323.616 569.286,346.996 569.566,350.747C565.768,356.248 562.365,362.287 558.329,367.766C549.678,379.505 540.637,391.034 531.396,402.306L530.528,402.701L529.841,402.35C529.911,401.978 543.654,377.118 545.148,374.08C550.473,363.497 555.211,352.629 559.338,341.524C561.722,335.072 563.868,327.538 566.427,321.374L566.658,320.828ZM478.142,396.365L488.191,402.024C487.29,411.22 485.934,421.076 484.891,430.364C481.878,434.078 478.583,437.67 475.391,441.241C473.576,443.154 471.501,445.166 469.628,447.051C470.911,441.862 472.023,434.12 472.952,428.696C474.893,417.954 476.624,407.175 478.142,396.365ZM626.894,451.824C629.259,453.756 639.022,464.647 641.579,467.373C649.528,475.804 657.66,484.062 665.968,492.141C661.766,491.098 633.504,472.941 628.074,469.522C627.72,463.62 627.327,457.721 626.894,451.824ZM464.15,279.384C467.21,283.707 469.684,302.48 472.107,308.41C473.965,312.96 476.876,325.37 474.385,329.752L473.771,329.351C468.058,318.393 464.772,311.631 460.241,300.208C461.83,293.97 462.91,285.909 464.15,279.384ZM478.691,230.835C480.219,236.231 478.134,280.597 477.858,289.06L475.765,282.271C473.583,273.672 471.72,264.726 469.864,256.049C472.195,247.443 475.145,239.016 478.691,230.835ZM273.963,617.535L274.259,618.239C268.047,626.497 261.784,634.717 255.471,642.897C247.911,643.732 240.256,644.276 232.625,645.12L232.263,644.834L232.566,644.168C243.089,638.321 265.543,623.633 273.963,617.535ZM380.292,600.484L380.608,600.725C380.733,606.593 378.658,626.118 378.143,632.558C374.261,633.176 368.246,633.48 364.185,633.811L363.776,633.297C369.422,622.431 374.928,611.492 380.292,600.484ZM457.125,320.27C457.844,320.84 470.976,344.981 472.612,347.859C472.545,350.95 472.462,352.806 472.073,355.903C465.777,349.129 461.08,342.221 455.955,334.618C456.513,329.83 456.799,325.076 457.125,320.27ZM454.601,350.366C455.624,351.303 459.296,356.192 460.335,357.559C463.782,362.096 466.553,365.315 470.602,369.319C470.223,372.494 470.102,375.266 469.958,378.454C462.224,373.053 458.85,370.47 453.638,362.836C454.034,358.685 454.355,354.528 454.601,350.366ZM480.739,379.792C484.764,382.34 489.913,386.622 489.86,391.702C486.564,389.959 482.978,387.614 479.772,385.62C480.32,383.612 480.482,381.841 480.739,379.792ZM496.677,406.801C498.178,407.705 499.422,408.73 500.802,409.801L496.79,415.744C496.156,416.639 496.572,416.31 495.527,416.714C495.216,414.689 496.301,409.14 496.677,406.801ZM482.651,362.842C484.503,364.588 488.59,371.047 489.189,373.75C486.673,371.841 484.481,369.667 482.189,367.495L482.651,362.842ZM484.048,342.419C485.702,344.193 489.429,352.769 490.35,355.212C487.276,353.224 484.047,346.119 484.048,342.419ZM451.608,489.801L452.221,490.42C452.32,493.294 451.382,498.352 450.687,501.159L450.506,501.1C450.363,497.231 449.717,493.067 451.608,489.801ZM493.281,143.211C509.701,141.993 528.27,143.199 544.689,144.569C756.114,162.22 903.705,345.847 884.862,555.522C867.712,549.106 845.062,537.967 828.995,529.405C765.54,495.57 707.23,452.864 655.823,402.577C645.377,392.33 629.579,376.124 620.632,364.608C619.354,357.009 618.711,345.554 617.744,337.501C615.598,318.72 612.332,300.084 607.964,281.692C595.487,230.172 558.737,140.271 491.108,156.834C485.874,158.652 480.882,161.104 476.244,164.136C431.227,193.269 413.697,256.011 404.423,305.258C402.187,317.129 386.649,341.61 379.905,352.035C328.133,432.057 260.599,500.908 186.416,560.317C172.578,571.399 155.855,584.892 141.192,594.234C137.695,576.076 135.408,557.705 134.345,539.244C123.417,334.21 271.413,161.389 476.35,144.293C481.999,143.822 487.621,143.508 493.281,143.211ZM847.781,679.203C848.734,679.181 848.214,679.105 849.31,679.581C849.457,681.055 846.068,687.073 845.217,688.749C833.942,711.47 820.11,732.83 803.989,752.414L702.184,752.414C685.748,752.415 662.031,753.21 646.148,752.296C645.168,731.452 643.066,710.928 642.417,689.608C662.986,689.234 687.198,687.375 707.897,686.292L847.781,679.203ZM365.422,705.714L370.843,705.455C367.75,719.381 366.077,737.709 363.295,752.413L216.59,752.441C213.3,748.651 210.126,744.762 207.073,740.779C201.432,734.317 194.494,722.831 190.082,715.499C248.043,711.661 307.34,708.9 365.422,705.714ZM565.399,694.207L566.503,694.376C568.775,697.325 565.355,744.385 564.99,752.434L454.891,752.436C453.87,752.319 454.33,752.522 453.537,751.769L452.825,699.991C489.75,697.564 528.331,696.081 565.399,694.207Z" style="fill:rgb(0,200,230);"/>
    </g>
</svg>
