<svg width="100%" height="100%" viewBox="0 0 89 80" version="1.1" xmlns="http://www.w3.org/2000/svg" xmlns:xlink="http://www.w3.org/1999/xlink" xml:space="preserve" xmlns:serif="http://www.serif.com/" style="fill-rule:evenodd;clip-rule:evenodd;stroke-linejoin:round;stroke-miterlimit:2;">
    <g transform="matrix(1,0,0,1,-626.031,-1231.51)">
        <g transform="matrix(0.997558,0.0698444,-0.0698444,0.997558,31.6509,794.55)">
            <path id="LA" d="M667.646,462.973L669.102,461.129L665.122,460.062L663.375,461.517L667.646,462.973ZM672.596,390.953L672.402,390.953L635.809,394.35L626.588,395.029L623.579,395.32L623.677,397.65L625.618,416.383L628.821,420.848L628.918,423.469L632.024,428.904L634.548,436.863L633.674,441.328L632.995,452.394L631.539,455.985L631.733,455.985L632.024,458.508L630.374,460.838L642.41,459.479L651.825,462.1L658.522,462.973L661.919,460.547L660.075,458.12L666.287,456.179L666.093,458.314L669.296,457.538L671.917,461.615L674.149,460.838L679.973,464.818L676.382,466.079L684.632,468.506L687.738,468.506L689.582,466.274L693.562,464.138L696.377,468.215L698.318,464.526L697.736,458.703L702.977,460.741L703.56,462.488L709.772,463.265L712.878,465.788L712.489,467.827L716.857,463.75L715.207,461.615L707.927,459.77L705.21,458.217L705.112,455.305L708.121,455.694L710.451,450.938L707.442,446.764L705.792,450.743L702.006,450.064L704.627,445.793L702.88,445.308L698.609,448.317L692.494,448.705L690.747,447.346L693.562,442.396L696.862,442.299L702.492,444.143L706.568,444.531L704.336,441.717L700.065,433.369L701.23,428.71L667.743,432.398L669.005,431.137L667.646,427.642L669.684,424.633L670.849,417.063L678.226,404.444L674.635,400.076L674.829,396.873L672.596,391.632L672.596,390.953L672.596,390.953Z" style="fill:rgb(249,249,249);"  data-color="color-1"/>
        </g>
    </g>
</svg>
