<svg width="100%" height="100%" viewBox="0 0 82 103" version="1.1" xmlns="http://www.w3.org/2000/svg" xmlns:xlink="http://www.w3.org/1999/xlink" xml:space="preserve" xmlns:serif="http://www.serif.com/" style="fill-rule:evenodd;clip-rule:evenodd;stroke-linejoin:round;stroke-miterlimit:2;">
    <g transform="matrix(1,0,0,1,-120.056,-492.107)">
        <g transform="matrix(0.9905,-0.137513,0.137513,0.9905,-212.597,338.234)">
            <path id="UT" d="M352.385,204.98L327.343,201.194L313.366,198.962L310.648,198.476L310.066,201.582L304.921,233.031L294.827,295.831L294.341,298.937L296.865,299.325L321.907,303.305L339.476,305.828L372.186,309.905L374.71,310.196L374.904,307.672L375.68,300.004L377.524,282.339L382.766,231.769L383.057,229.245L381.116,229.051L356.365,226.042L352.579,225.557L355.006,206.63L355.2,205.368L352.385,204.98Z" style="fill:rgb(249,249,249);"   data-color="color-1"/>
        </g>
    </g>
</svg>
