<?xml version="1.0" encoding="UTF-8" standalone="no"?>
<!DOCTYPE svg PUBLIC "-//W3C//DTD SVG 1.1//EN" "http://www.w3.org/Graphics/SVG/1.1/DTD/svg11.dtd">
<svg width="100%" height="100%" viewBox="0 0 1321 831" version="1.1" xmlns="http://www.w3.org/2000/svg" xmlns:xlink="http://www.w3.org/1999/xlink" xml:space="preserve" xmlns:serif="http://www.serif.com/" style="fill-rule:evenodd;clip-rule:evenodd;stroke-linejoin:round;stroke-miterlimit:2;">
    <g transform="matrix(1,0,0,1,-55.6807,-97.1146)">
        <path d="M1171.17,634.105C1178.17,633.903 1185.48,633.927 1192.5,633.845C1196.97,629.716 1204.15,621.042 1208.02,616.224C1240.11,576.198 1260.17,526.953 1255.25,475.218C1249.23,411.831 1206.88,356.394 1158.64,317.546C1019.64,205.622 811.736,179.534 639.34,197.736C613.143,171.39 589.906,152.198 554.672,138.329C702.216,113.674 855.354,116.81 999.45,158.76C1044.05,171.404 1087.3,188.393 1128.58,209.483C1215,254.479 1298.37,324.62 1328.46,420.441C1347.43,480.831 1343.18,537.013 1316.54,594.576C1309.49,609.813 1301.45,620.067 1294.22,633.93C1309.88,634.996 1339.41,630.835 1351.67,640.383C1357.04,644.558 1359.93,650.606 1360.62,657.304C1361.95,670.248 1349.54,732.839 1346.85,748.645C1343.55,768.723 1340.11,788.778 1336.54,808.809C1334.82,818.487 1332.66,832.702 1330.05,841.85C1328.33,847.761 1325.41,853.253 1321.47,857.978C1307.54,874.493 1290.57,871.737 1271.13,871.719L1222.88,871.665L1043.17,871.688L988.122,871.651C978.083,871.634 966.594,871.382 956.71,872.021C950.899,872.396 938.989,876.652 932.666,878.599C921.965,881.91 911.203,885.016 900.384,887.917C864.273,897.532 827.421,904.11 790.214,907.582C712.546,915.479 634.115,910.889 557.898,893.986C540.9,890.256 524.033,885.954 507.326,881.087C498.409,878.523 482.106,872.348 473.878,871.94C463.86,871.443 450.991,871.676 440.667,871.672L379.917,871.668L189.911,871.734L132.249,871.741C121.446,871.74 109.594,872.138 98.941,871.063C91.071,870.213 86.87,868.481 80.803,863.691C63.979,850.409 72.771,824.671 76.091,806.156L86.964,745.51L97.272,686.189C98.965,676.587 100.209,666.259 102.688,656.88C109.109,632.588 128.605,631.896 148.808,631.163C143.751,620.762 136.415,610.344 130.664,598.314C104.119,541.772 101.171,476.986 122.472,418.266C146.76,349.54 198.155,294.858 255.638,251.669C287.32,227.866 321.134,209.925 356.815,192.874C380.187,205.289 399,225.524 411.504,248.675C390.471,255.565 349.537,277.822 330.633,290.12C270.724,329.095 207.81,387.12 191.73,459.521C182.351,501.748 187.519,550.816 210.748,587.565C225.331,567.746 235.792,549.456 249.549,529.971C280.78,485.446 316.239,444.043 355.432,406.34C372.409,390.331 390.018,375.006 408.216,360.401C414.166,355.628 438.422,338.578 439.617,334.077C457.319,267.413 405.434,198.366 347.492,170.593C334.513,164.372 316.26,159.251 317.044,142.354C317.361,136.644 320.001,131.314 324.351,127.603C342.153,112.199 383.915,113.365 406.129,114.907C479.154,119.976 571.654,148.488 623.056,202.148C629.017,208.371 634.62,214.978 639.262,222.254C645.486,232.01 650.576,242.67 658.284,251.395C662.738,256.436 668.299,260.989 674.98,262.557C688.303,265.684 706.543,262.215 720.42,261.795C740.563,261.185 760.774,260.965 780.899,262.218C899.578,269.606 1061.48,323.662 1141.59,414.543C1170.1,446.892 1197.09,493.462 1193.95,538.159C1192.79,554.689 1185.89,571.625 1173.13,582.574C1129.71,619.815 999.811,605.054 943.886,600.54C937.906,600.057 931.924,599.976 926.028,601.251C907.287,605.302 883.712,621.62 869.267,633.929L890.604,633.991L1071.58,634.222L1136.23,634.284C1146.59,634.287 1160.98,634.691 1171.17,634.105ZM1160.98,566.986C1155.55,556.6 1144.77,552.598 1133.93,549.945C1092.31,539.756 1049.32,530.441 1010.21,512.384C981.291,499.031 948.683,492.86 918.595,506.774C921.194,518.641 920.408,525.386 919.181,537.2C915.168,564.51 909.777,563.1 899.319,583.257C915.547,582.73 933.03,583.464 949.147,585.156C1006.1,591.135 1063.81,596.278 1120.68,586.551C1132.04,584.608 1157.83,579.672 1160.98,566.986ZM342.998,480.613C361.615,467.645 376.953,454.979 400.48,451.558C412.118,450.175 428.255,450.06 438.078,457.523C445.445,463.121 450.862,474.786 458.644,479.887C472.309,488.843 495.064,485.323 510.407,483.353C518.702,482.288 533.649,478.436 538.411,471.765C539.87,463.731 521.065,462.485 515.518,461.522C510.786,459.598 508.782,458.468 504.368,455.817C496.705,449.373 488.33,437.46 493.081,427.37C499.931,415.295 519.451,418.238 530.337,417.671C540.604,417.137 580.16,415.425 584.432,406.587C580.467,400.531 472.985,389.531 531.737,355.432C546.149,347.067 567.272,339.383 583.082,333.927C610.564,324.161 638.816,316.717 667.54,311.672C738.274,299.063 843.741,297.904 912.856,317.546C918.056,318.908 923.269,320.222 928.493,321.488C923.515,318.943 921.151,317.515 915.723,315.901C793.986,272.305 647.157,282.308 529.79,336.135C475.423,361.069 417.871,403.001 373.86,444.011C362.265,454.374 347.345,468.335 337.088,480.083C328.835,489.231 320.908,499.637 313.234,509.339C316.502,507.021 340.587,483.923 342.998,480.613ZM602.882,661.98C594.183,663.549 594.184,667.808 591.988,675.599C577.371,727.447 562.395,779.21 547.963,831.107C547.013,834.525 546.383,839.166 546.552,842.726C552.109,848.764 598.345,846.509 599.56,843.706C607.563,825.235 612.426,802.593 618.495,782.933L629.062,782.923C636.615,782.922 659.251,783.851 664.44,781.194C669.627,775.639 679.388,741.444 676.04,733.943C671.147,729.711 641.397,731.309 632.833,731.374C634.286,726.263 636.189,720.126 637.4,715.051C647.283,715.023 657.167,715.047 667.05,715.121C684.169,715.415 694.072,719.581 697.707,697.142C699.26,687.55 712.853,661.499 696.09,661.886C665.628,662.588 633.181,660.43 602.882,661.98ZM1162.4,661.967C1159.41,662.227 1156.05,662.249 1153.95,664.74C1151.4,667.758 1103.56,835.32 1104.21,840.017C1104.44,841.65 1105.42,843.534 1106.82,844.427C1112.68,848.164 1143.18,846.03 1151.84,845.942C1156.97,845.374 1160.17,844.01 1161.69,838.383C1163.48,831.732 1165.22,825.142 1167.14,818.52C1173.72,795.91 1180.11,773.249 1186.33,750.538C1193.21,726.026 1200.48,701.267 1207.01,676.631C1207.76,673.809 1208.25,669.499 1207.81,666.607C1207.65,665.515 1207.42,665.606 1206.61,664.509C1199.98,660.79 1171.35,661.995 1162.4,661.967ZM713.908,504.187C700.338,512.701 689.435,519.561 677.089,530.056C658.438,545.911 642.377,563.481 623.88,579.434C588.403,610.03 541.094,628.828 494.085,618.108C468.266,612.105 446.756,598.849 432.453,576.273C425.608,565.469 420.516,537.366 408.251,535.863C377.444,532.086 333.165,571.648 314.069,590.063C299.148,604.855 287.825,616.968 274.663,633.623L621.419,634.411C624.332,627.64 629.401,619.377 633.173,612.88C648.741,586.19 666.465,560.818 686.166,537.017C690.317,531.964 712.799,508.12 714.309,504.566L713.908,504.187ZM534.316,661.865C527.281,666.281 526.274,676.421 524.008,684.406L513.636,721.164L493.535,793.051C490.802,802.942 481.111,833.837 482.091,842.878C485.151,845.986 491.699,846.536 495.842,846.367C507.159,845.906 521.627,846.845 532.641,845.978C534.552,844.456 535.818,843.227 536.544,840.836C539.782,830.174 542.794,819.232 545.846,808.524L563.514,747.053L577.25,699.675C578.852,694.156 587.03,669.146 584.615,665.087C577.811,660.343 544.161,661.375 534.316,661.865ZM861.488,591.025C852.239,603.529 835.063,618.53 822.388,627.947C820.749,629.164 815.071,632.259 815.153,633.934L834.224,633.845C844.758,624.292 852.963,611.065 858.833,598.191C859.691,596.31 861.824,592.994 861.488,591.025ZM746.016,551.976C733.084,579.99 706.659,608.661 678.319,621.614C672.363,624.337 660.309,623.24 662.535,633.891C685.647,634.169 691.828,637.454 708.267,621.398C724.394,605.525 736.336,585.901 743.025,564.282C744.016,561.129 746.111,554.982 746.016,551.976ZM217.646,821.474C219.648,812.075 228.946,781.672 228.114,775.569C226.206,772.919 222.626,771.54 219.695,771.337C211.991,770.804 185.453,769.83 179.485,772.343C175.069,776.516 173.144,788.637 171.346,795.259L154.262,795.253C158.744,778.718 163.106,762.151 167.348,745.553C169.534,737.069 173.157,724.366 174.433,715.993L191.309,716.078C189.789,722.142 186.94,730.198 188.806,735.995C192.587,741.583 233.738,739.731 239.934,737.197C245.996,731.245 245.893,713.558 248.312,705.133C256.792,675.599 250.951,661.47 218.104,661.637L191.468,662.012C172.955,662.383 148.686,659.069 135.397,672.854C132.349,675.967 130.003,679.697 128.515,683.792C123.444,697.898 115.932,730.063 111.89,745.283L100.692,787.281C98.078,796.903 91.613,816.449 91.77,825.639C92.108,845.466 117.254,847.889 132.26,846.176C156.499,843.41 192.242,853.463 210.192,833.247C211.425,831.852 212.621,830.426 213.78,828.97C211.873,833.478 209.638,837.187 211.101,841.91C216.094,847.73 232.006,846.127 239.073,846.276C245.091,846.402 259.161,846.848 263.559,843.608C266.993,841.08 275.082,821.019 276.751,817.158L302.201,817.207C299.336,848.614 299.032,846.806 331.943,845.95C342.999,845.663 356.244,850.632 357.035,835.466C357.725,822.245 358.119,809.121 358.525,795.884L360.861,717.894C361.195,705.265 361.057,688.331 361.984,676.101C362.354,668.559 363.104,660.485 352.551,661.666C340.24,663.043 302.907,659.13 293.502,662.885C287.888,669.398 272.575,705.013 268.012,714.549C251.198,749.69 235.202,786.718 217.646,821.474ZM305.645,750.704C306.564,753.879 306.323,762.259 304.546,765.173C303.723,766.522 301.904,766.409 300.359,766.693C299.386,763.528 304.11,754.268 305.645,750.704ZM738.381,661.929C721.717,663.257 709.337,672.191 704.577,688.516C692.307,730.66 680.34,772.932 668.267,815.137C667.406,818.466 666.762,822.016 666.986,825.397C667.658,835.53 676.473,844.946 687.083,845.173C712.078,845.708 739.465,846.264 764.438,845.514C781.052,843.096 793.147,832.847 797.763,816.524C809.496,774.997 821.401,733.773 832.662,692.083C836.012,677.964 825.485,662.98 810.72,662.048C792.967,660.927 775.058,661.434 757.262,661.56C751.306,661.603 744.269,661.474 738.381,661.929ZM752.515,715.053L772.224,715.094C763.931,741.242 757.746,769.478 749.487,795.734L729.045,795.846C737.5,769.766 743.867,740.929 752.515,715.053ZM856.663,661.936C853.874,662.855 851.829,664.059 850.751,666.932C845.021,682.199 840.723,699.838 836.102,715.503L814.692,788.999C810.561,803.142 805.862,817.342 802.37,831.648C801.732,834.264 800.189,839.305 801.245,841.904C801.884,843.477 803.484,844.605 805.027,845.187C809.757,846.969 847.907,846.781 851.765,844.635C862.227,838.818 861.091,794.921 874.02,795.775C876.252,797.85 880.816,835.922 881.804,841.912C883.927,844.316 887.092,846.227 890.206,845.707C896.74,844.616 938.567,850.472 937.489,839.619C935.956,824.202 932.291,806.949 929.923,792.008C939.68,788.134 948.563,783.053 952.312,772.615C961.015,749.034 966.255,722.885 973.567,699.01C979.575,679.392 968.575,662.335 947.883,662.274C918.164,662.186 886.314,660.771 856.663,661.936ZM890.689,715.363L913.187,715.615C910.228,724.163 907.201,735.982 904.63,744.891L881.981,744.944C884.831,735.068 887.733,725.208 890.689,715.363ZM1000.64,661.993C992.923,664.27 992.377,673.702 990.241,681.087L981.334,711.496C969.8,750.753 958.159,790.123 946.963,829.485C946.06,832.658 944.942,837.974 945,841.168C948.92,847.268 961.394,846.462 967.899,845.954C975.438,845.365 989.778,847.48 996.155,844.613C1000.82,840.18 1014.9,788.347 1018.02,778.313C1020.06,788.093 1026.56,841.335 1032.09,844.751C1037.68,848.205 1073.04,846.181 1081.12,845.366C1087.12,841.032 1092.59,817.339 1094.97,809.288L1112.29,750.185L1127.41,699.999C1129.41,693.375 1137.22,670.386 1135.29,665.505C1129.58,659.743 1083.58,660.953 1082.08,664.247C1072.97,684.255 1069.55,709.171 1062.46,730.469C1060.49,721.229 1053.93,665.527 1050.03,663.003C1046.14,660.49 1007.97,661.7 1000.64,661.993ZM412.341,661.762C410.939,662.899 408.495,664.815 407.948,666.464C404.735,676.164 401.885,686.739 399.146,696.539L380.301,765.277L367.566,810.717C365.162,819.208 362.177,828.435 360.793,837.115C360.37,839.764 360.951,841.63 362.422,843.827C364.112,846.352 368.737,846.485 371.878,846.533C383,846.702 394.361,846.57 405.522,846.518L469.587,846.214C476.889,843.853 477.253,837.604 478.805,830.973C488.679,788.785 487.31,793.67 446.128,794.8C442.156,794.909 434.51,795.092 429.87,795.211L454.372,708.207C457.833,696.18 462.018,684.112 465.161,671.994C466.347,667.769 463.962,662.953 459.355,662.37C452.132,661.457 444.329,661.441 436.999,661.576C429.123,661.721 420.089,661.086 412.341,661.762ZM922.257,358.713C885.838,369.018 907.096,408.816 931.023,421.283C956.205,434.404 977.708,430.002 1004.48,434.264C1020.83,436.866 1036.75,443.142 1052.67,446.552C1058.85,448.218 1063.63,449.312 1069.92,450.496C1041.98,416.088 983.064,363.336 937.344,358.681C932.328,358.157 927.271,358.168 922.257,358.713ZM384.39,147.2C384.747,148.819 384.586,150.2 386.259,150.881C401.354,157.029 416.515,162.565 431.298,169.522C470.448,187.946 505.468,215.952 530.631,251.277C538.602,262.461 544.982,273.75 552.111,285.495C569.955,282.594 590.708,276.332 608.328,271.224C612.885,269.986 618.219,268.679 622.61,267.114C602.092,244.151 585.776,227.065 561.14,207.89C522.947,178.163 454.737,150.007 406.325,147.216C399.019,146.825 391.697,146.819 384.39,147.2ZM1253.4,661.839C1251.1,663.113 1249.95,664.28 1248.76,666.625C1242.65,678.667 1236.87,691.079 1231.06,703.273L1198.41,771.912L1177.43,815.927C1174.17,822.84 1160.01,846.172 1175.38,845.628C1185,845.289 1210.52,847.7 1219.12,843.462C1225.07,840.528 1228.99,817.522 1236.56,817.136L1259.99,817.026C1259.36,822.697 1254.41,846.432 1265.41,845.461C1275.15,844.602 1305.55,848.33 1312.08,842.561C1314.26,834.961 1314.8,815.973 1315.27,807.42L1318.35,748.279C1319.13,732.101 1320,715.928 1320.96,699.759C1321.53,689.861 1322.22,679.81 1322.42,669.889C1322.5,666.056 1321.61,662.805 1317.32,662.307C1309.55,661.404 1301.54,661.679 1293.69,661.678C1280.26,661.63 1266.83,661.684 1253.4,661.839ZM1264.11,750.748C1264.38,753.787 1263.81,762.235 1262.29,764.939C1261.45,766.438 1260.11,766.272 1258.14,766.724C1257.06,763.074 1262.15,754.033 1264.11,750.748Z"/>
        <path d="M342.998,480.613C340.587,483.923 316.502,507.021 313.234,509.339C320.908,499.637 328.835,489.231 337.088,480.083C347.345,468.335 362.265,454.374 373.86,444.011C376.271,445.976 375.916,446.309 378.745,446.669C401.469,437.308 469.118,382.46 472.906,435.581C474.077,452.007 488.477,462 503.82,464C508.376,464.417 512.471,465.373 515.518,461.522C521.065,462.485 539.87,463.731 538.411,471.765C533.649,478.436 518.702,482.288 510.407,483.353C495.064,485.323 472.309,488.843 458.644,479.887C450.862,474.786 445.445,463.121 438.078,457.523C428.255,450.06 412.118,450.175 400.48,451.558C376.953,454.979 361.615,467.645 342.998,480.613ZM1160.98,566.986C1157.83,579.672 1132.04,584.608 1120.68,586.551C1063.81,596.278 1006.1,591.135 949.147,585.156C933.03,583.464 915.547,582.73 899.319,583.257C909.777,563.1 915.168,564.51 919.181,537.2C956.865,576.297 1034.98,576.536 1086.32,578.2C1101.6,578.695 1122.32,577.111 1137.4,573.802C1143.97,572.358 1155.09,567.461 1160.98,566.986ZM384.39,147.2C391.697,146.819 399.019,146.825 406.325,147.216C454.737,150.007 522.947,178.163 561.14,207.89C585.776,227.065 602.092,244.151 622.61,267.114C618.219,268.679 612.885,269.986 608.328,271.224C590.708,276.332 569.955,282.594 552.111,285.495C544.982,273.75 538.602,262.461 530.631,251.277C505.468,215.952 470.448,187.946 431.298,169.522C416.515,162.565 401.354,157.029 386.259,150.881C384.586,150.2 384.747,148.819 384.39,147.2ZM746.016,551.976C746.111,554.982 744.016,561.129 743.025,564.282C736.336,585.901 724.394,605.525 708.267,621.398C691.828,637.454 685.647,634.169 662.535,633.891C660.309,623.24 672.363,624.337 678.319,621.614C706.659,608.661 733.084,579.99 746.016,551.976ZM861.488,591.025C861.824,592.994 859.691,596.31 858.833,598.191C852.963,611.065 844.758,624.292 834.224,633.845L815.153,633.934C815.071,632.259 820.749,629.164 822.388,627.947C835.063,618.53 852.239,603.529 861.488,591.025Z" style="fill:rgb(208,207,207);"/>
        <path d="M380.607,97.115C413.566,97.796 446.354,102.035 478.403,109.76C496.038,114.16 515.982,121.726 533.462,124.639C535.69,125.01 548.113,122.285 551.243,121.697C562.109,119.71 572.986,117.785 583.874,115.925C600.082,113.312 616.163,111.98 632.465,110.449C709.797,103.186 790.673,102.208 867.786,112.286C945.145,123.081 1020.81,143.718 1092.94,173.696C1192.34,215.775 1294.27,291.262 1335.82,394.198C1359.41,451.88 1361.53,516.114 1341.79,575.226C1336.65,590.357 1329.07,603.952 1322.85,618.548C1337.88,618.873 1351.35,618.548 1363.05,629.736C1371.49,637.807 1376.27,650.911 1376.08,662.466C1375.8,678.63 1370.95,695.893 1368.37,711.851C1365.48,729.713 1362.73,746.979 1359.51,764.847C1354.68,791.639 1352.06,819.823 1345.35,846.202C1342.93,855.726 1337.84,863.862 1330.99,870.738C1325.77,875.982 1313.16,884.767 1305.83,885.851C1293.93,887.611 1278.89,887.229 1266.71,887.229L1206.92,887.184L994.423,887.269C984.581,887.251 968.992,886.714 959.663,887.537C952.983,888.127 936.593,893.998 929.009,896.35C914.34,900.903 899.523,904.967 884.584,908.535C839.357,919.158 793.187,925.257 746.754,926.742C680.807,929.234 614.818,923.046 550.484,908.335C535.442,904.963 520.49,901.205 505.642,897.062C499.927,895.42 476.474,887.433 472.82,887.364C464.423,887.206 449.779,887.235 440.948,887.218L376.759,887.205L190.26,887.241C168.157,887.239 99.185,889.874 84.093,883.918C73.272,879.647 63.922,870.98 59.356,860.236C56.394,853.266 55.334,845.596 55.778,838.062C56.391,827.657 58.319,817.332 59.995,807.059C63.514,785.496 67.937,764.217 71.671,742.725L81.679,683.869C87.746,649.237 86.469,631.905 121.704,616.644C119.059,610.9 116.161,605.171 113.685,599.372C37.051,419.822 183.484,253.173 338.303,184.504C319.545,174.131 297.222,171.014 296.099,144.217C295.738,134.405 299.307,124.854 306.015,117.685C323.961,98.567 356.174,97.995 380.607,97.115ZM416.137,262.679C300.387,312.504 163.833,416.238 213.019,559.188C217.756,553.909 231.058,531.264 237.011,523.017C260.104,491.027 282.747,461.793 309.584,432.883C332.287,408.386 356.449,385.284 381.938,363.704C389.239,357.565 396.643,351.55 404.148,345.663C420.694,332.84 427.413,330.399 425.75,306.173C424.765,291.822 421.912,275.967 416.137,262.679ZM1171.17,634.105C1179.36,624.955 1187.78,616.832 1195.68,607.261C1275.19,510.863 1240.64,401.123 1147.82,328.731C1010.48,221.611 819.358,195.279 650.766,213.472C655.398,221.502 660.765,229.076 665.671,236.847C671.573,246.402 680.962,250.134 691.973,249.31C710.049,247.957 727.914,247.534 746.067,247.531C784.012,247.548 821.856,251.432 859.014,259.121C972.765,281.947 1107.35,333.345 1174,433.627C1196.06,466.828 1213.81,509.438 1205.99,550.218C1203.08,565.376 1194.11,583.881 1181.63,593.374C1136.27,627.872 1051.09,621.71 996.846,618.308C974.736,616.921 949.823,612.696 928.429,614.802C917.399,615.887 900.057,627.781 890.604,633.991L869.267,633.929C883.712,621.62 907.287,605.302 926.028,601.251C931.924,599.976 937.906,600.057 943.886,600.54C999.811,605.054 1129.71,619.815 1173.13,582.574C1185.89,571.625 1192.79,554.689 1193.95,538.159C1197.09,493.462 1170.1,446.892 1141.59,414.543C1061.48,323.662 899.578,269.606 780.899,262.218C760.774,260.965 740.563,261.185 720.42,261.795C706.543,262.215 688.303,265.684 674.98,262.557C668.299,260.989 662.738,256.436 658.284,251.395C650.576,242.67 645.486,232.01 639.262,222.254C634.62,214.978 629.017,208.371 623.056,202.148C571.654,148.488 479.154,119.976 406.129,114.907C383.915,113.365 342.153,112.199 324.351,127.603C320.001,131.314 317.361,136.644 317.044,142.354C316.26,159.251 334.513,164.372 347.492,170.593C405.434,198.366 457.319,267.413 439.617,334.077C438.422,338.578 414.166,355.628 408.216,360.401C390.018,375.006 372.409,390.331 355.432,406.34C316.239,444.043 280.78,485.446 249.549,529.971C235.792,549.456 225.331,567.746 210.748,587.565C187.519,550.816 182.351,501.748 191.73,459.521C207.81,387.12 270.724,329.095 330.633,290.12C349.537,277.822 390.471,255.565 411.504,248.675C399,225.524 380.187,205.289 356.815,192.874C321.134,209.925 287.32,227.866 255.638,251.669C198.155,294.858 146.76,349.54 122.472,418.266C101.171,476.986 104.119,541.772 130.664,598.314C136.415,610.344 143.751,620.762 148.808,631.163C128.605,631.896 109.109,632.588 102.688,656.88C100.209,666.259 98.965,676.587 97.272,686.189L86.964,745.51L76.091,806.156C72.771,824.671 63.979,850.409 80.803,863.691C86.87,868.481 91.071,870.213 98.941,871.063C109.594,872.138 121.446,871.74 132.249,871.741L189.911,871.734L379.917,871.668L440.667,871.672C450.991,871.676 463.86,871.443 473.878,871.94C482.106,872.348 498.409,878.523 507.326,881.087C524.033,885.954 540.9,890.256 557.898,893.986C634.115,910.889 712.546,915.479 790.214,907.582C827.421,904.11 864.273,897.532 900.384,887.917C911.203,885.016 921.965,881.91 932.666,878.599C938.989,876.652 950.899,872.396 956.71,872.021C966.594,871.382 978.083,871.634 988.122,871.651L1043.17,871.688L1222.88,871.665L1271.13,871.719C1290.57,871.737 1307.54,874.493 1321.47,857.978C1325.41,853.253 1328.33,847.761 1330.05,841.85C1332.66,832.702 1334.82,818.487 1336.54,808.809C1340.11,788.778 1343.55,768.723 1346.85,748.645C1349.54,732.839 1361.95,670.248 1360.62,657.304C1359.93,650.606 1357.04,644.558 1351.67,640.383C1339.41,630.835 1309.88,634.996 1294.22,633.93C1301.45,620.067 1309.49,609.813 1316.54,594.576C1343.18,537.013 1347.43,480.831 1328.46,420.441C1298.37,324.62 1215,254.479 1128.58,209.483C1087.3,188.393 1044.05,171.404 999.45,158.76C855.354,116.81 702.216,113.674 554.672,138.329C589.906,152.198 613.143,171.39 639.34,197.736C811.736,179.534 1019.64,205.622 1158.64,317.546C1206.88,356.394 1249.23,411.831 1255.25,475.218C1260.17,526.953 1240.11,576.198 1208.02,616.224C1204.15,621.042 1196.97,629.716 1192.5,633.845C1185.48,633.927 1178.17,633.903 1171.17,634.105ZM1255.44,669.534C1275.44,669.769 1295.44,669.861 1315.44,669.809C1313.61,684.708 1313.21,707.763 1312.23,723.245C1309.8,761.354 1308.64,799.942 1305.96,838.05L1265.82,838.066C1266.24,828.82 1267.21,818.623 1267.79,809.25C1257.95,809.05 1247.1,809.284 1237.19,809.317L1228.82,809.239C1224.85,817.526 1219.01,830.475 1214.3,837.989L1175.11,837.948C1185.77,814.232 1197.87,789.924 1209.16,766.417L1255.44,669.534ZM1273.6,711.638C1270.78,717.374 1245.31,772.346 1245.5,773.961L1269.68,773.968C1270.35,767.014 1274.7,714.148 1273.6,711.638ZM414.351,669.236L458.17,669.891C445.158,714.226 432.409,758.637 419.925,803.124C438.632,802.266 458.264,802.806 477.271,802.127C474.784,814.364 472.182,826.578 469.465,838.766C436.317,839.536 400.567,838.88 367.209,838.902C383.596,783.714 398.936,724.939 414.351,669.236ZM857.012,669.766C872.375,669.85 948.455,667.897 957.699,672.126C960.991,673.632 965.845,677.151 966.964,680.744C968.211,684.752 967.868,689.674 967.218,693.754C965.53,704.346 948.814,765.674 944.027,773.648C939.277,781.558 930.215,784.292 921.823,786.312C924.499,803.693 927.33,821.05 930.314,838.381C916.484,838.087 902.652,837.964 888.82,838.01L887.619,830.276C886.346,817.277 883.534,801.213 881.772,787.797C875.919,787.917 869.571,787.766 863.677,787.732L848.535,838.178L807.853,838.193L857.012,669.766ZM885.351,708.054L872.168,752.863C884.542,752.803 896.917,752.813 909.292,752.894C914.413,738.751 918.23,722.574 923.213,708.021L885.351,708.054ZM159.103,670.161C172.766,669.399 186.752,669.851 200.449,669.772C210.758,669.713 222.655,668.559 232.782,670.312C236.799,671.007 240.104,673.243 242.361,676.652C247.995,685.16 238.1,720.02 235.825,731.025C222.468,731.317 209.108,731.43 195.748,731.364C197.279,723.608 198.955,715.881 200.776,708.188L169.22,708.189C162.889,737.548 152.567,773.473 144.848,802.963L177.121,802.99C178.559,797.141 180.891,784.705 183.952,779.483C184.488,778.57 185.916,778.812 187.312,778.731L221.056,778.73C217.229,792.328 213.996,811.449 207.951,823.718C202.348,835.901 181.763,840.605 169.749,838.193C153.189,834.868 90.697,850.052 99.695,818.156C112.279,773.548 122.418,731.635 135.068,687.408C137.947,677.345 149.61,671.511 159.103,670.161ZM919.181,537.2C920.408,525.386 921.194,518.641 918.595,506.774C948.683,492.86 981.291,499.031 1010.21,512.384C1049.32,530.441 1092.31,539.756 1133.93,549.945C1144.77,552.598 1155.55,556.6 1160.98,566.986C1155.09,567.461 1143.97,572.358 1137.4,573.802C1122.32,577.111 1101.6,578.695 1086.32,578.2C1034.98,576.536 956.865,576.297 919.181,537.2ZM535.662,669.674C549.436,670.089 564.362,669.893 578.228,669.978L530.171,837.775C528.395,838.945 493.247,838.563 488.328,838.584C503.776,782.188 519.554,725.884 535.662,669.674ZM922.257,358.713C927.271,358.168 932.328,358.157 937.344,358.681C983.064,363.336 1041.98,416.088 1069.92,450.496C1063.63,449.312 1058.85,448.218 1052.67,446.552C1036.75,443.142 1020.83,436.866 1004.48,434.264C977.708,430.002 956.205,434.404 931.023,421.283C907.096,408.816 885.838,369.018 922.257,358.713ZM713.908,504.187L714.309,504.566C712.799,508.12 690.317,531.964 686.166,537.017C666.465,560.818 648.741,586.19 633.173,612.88C629.401,619.377 624.332,627.64 621.419,634.411L274.663,633.623C287.825,616.968 299.148,604.855 314.069,590.063C333.165,571.648 377.444,532.086 408.251,535.863C420.516,537.366 425.608,565.469 432.453,576.273C446.756,598.849 468.266,612.105 494.085,618.108C541.094,628.828 588.403,610.03 623.88,579.434C642.377,563.481 658.438,545.911 677.089,530.056C689.435,519.561 700.338,512.701 713.908,504.187ZM297.017,669.386L354.922,669.749C353.071,725.087 352.648,783.095 349.625,838.132C335.831,838.008 322.036,838.032 308.243,838.206C308.995,828.607 309.586,818.997 310.016,809.378L277.312,809.363L274.488,809.33C269.647,811.933 263.014,830.827 259.309,837.286L258.885,838.016L218.218,837.99L297.017,669.386ZM315.504,711.87C309.065,725.846 302.746,739.876 296.546,753.96C294.943,757.562 289.09,770.114 288.268,773.311L288.996,774.023L312.479,774.08C312.829,767.343 316.558,713.116 315.504,711.87ZM740.866,669.499C753.89,669.306 812.222,666.884 819.895,672.795C823.779,675.786 826.08,680.671 826.328,685.517C826.62,691.219 794.253,806.116 789.659,818.327C788.207,822.186 786.297,825.055 783.478,828.04C777.347,834.531 770.099,837.759 761.223,838.017L712.701,838.079C704.479,838.086 695.001,838.629 686.94,837.437C673.506,835.452 673.031,825.11 675.867,814.663C686.113,776.919 697.639,739.577 707.958,701.873C713.247,682.549 718.589,670.956 740.866,669.499ZM747.168,707.611C737.839,739.471 728.712,771.389 719.788,803.364L755.04,803.281L781.782,707.839C770.339,707.774 758.583,707.842 747.168,707.611ZM1000.94,669.783C1015.73,670.034 1031.13,669.807 1045.97,669.796C1048.72,700.172 1056.2,736.467 1059.74,768.02C1069.25,737.444 1078.07,701.106 1086.34,669.938L1128.77,669.933C1112.82,723.573 1096.99,778.631 1080.48,831.959C1079.05,837.897 1079.15,838.138 1072.6,838.156C1060.43,838.189 1048.26,838.457 1036.1,838.701C1030.44,808.65 1026.08,777.76 1020.3,747.981C1010.32,776.876 1001.26,808.788 992.382,838.255L952.038,838.06C967.426,782.501 984.503,725.116 1000.94,669.783ZM1158.63,669.933L1201.35,670.001C1185.61,725.744 1170.9,782.651 1154.05,838.041L1111.09,838.07C1116.83,820.343 1122.38,798.511 1127.53,780.329L1158.63,669.933ZM670.763,669.53L697.721,669.454L687.15,707.424L632.464,707.482L622.918,738.982L670.391,739.042C668.214,748.434 663.498,766.134 660.258,775.05L613.309,775.143L602.128,813.04L595.048,838.008C581.129,837.995 567.211,838.078 553.294,838.258L601.25,669.796C624.141,670.081 647.842,669.713 670.763,669.53ZM503.82,464C488.477,462 474.077,452.007 472.906,435.581C469.118,382.46 401.469,437.308 378.745,446.669C375.916,446.309 376.271,445.976 373.86,444.011C417.871,403.001 475.423,361.069 529.79,336.135C647.157,282.308 793.986,272.305 915.723,315.901C921.151,317.515 923.515,318.943 928.493,321.488C923.269,320.222 918.056,318.908 912.856,317.546C843.741,297.904 738.274,299.063 667.54,311.672C638.816,316.717 610.564,324.161 583.082,333.927C567.272,339.383 546.149,347.067 531.737,355.432C472.985,389.531 580.467,400.531 584.432,406.587C580.16,415.425 540.604,417.137 530.337,417.671C519.451,418.238 499.931,415.295 493.081,427.37C488.33,437.46 496.705,449.373 504.368,455.817C508.782,458.468 510.786,459.598 515.518,461.522C512.471,465.373 508.376,464.417 503.82,464Z" style="fill:rgb(254,254,254);"/>
        <path d="M217.646,821.474C235.202,786.718 251.198,749.69 268.012,714.549C272.575,705.013 287.888,669.398 293.502,662.885C302.907,659.13 340.24,663.043 352.551,661.666C363.104,660.485 362.354,668.559 361.984,676.101C361.057,688.331 361.195,705.265 360.861,717.894L358.525,795.884C358.119,809.121 357.725,822.245 357.035,835.466C356.244,850.632 342.999,845.663 331.943,845.95C299.032,846.806 299.336,848.614 302.201,817.207L276.751,817.158C275.082,821.019 266.993,841.08 263.559,843.608C259.161,846.848 245.091,846.402 239.073,846.276C232.006,846.127 216.094,847.73 211.101,841.91C209.638,837.187 211.873,833.478 213.78,828.97C212.621,830.426 211.425,831.852 210.192,833.247C192.242,853.463 156.499,843.41 132.26,846.176C117.254,847.889 92.108,845.466 91.77,825.639C91.613,816.449 98.078,796.903 100.692,787.281L111.89,745.283C115.932,730.063 123.444,697.898 128.515,683.792C130.003,679.697 132.349,675.967 135.397,672.854C148.686,659.069 172.955,662.383 191.468,662.012L218.104,661.637C250.951,661.47 256.792,675.599 248.312,705.133C245.893,713.558 245.996,731.245 239.934,737.197C233.738,739.731 192.587,741.583 188.806,735.995C186.94,730.198 189.789,722.142 191.309,716.078L174.433,715.993C173.157,724.366 169.534,737.069 167.348,745.553C163.106,762.151 158.744,778.718 154.262,795.253L171.346,795.259C173.144,788.637 175.069,776.516 179.485,772.343C185.453,769.83 211.991,770.804 219.695,771.337C222.626,771.54 226.206,772.919 228.114,775.569C228.946,781.672 219.648,812.075 217.646,821.474ZM297.017,669.386L218.218,837.99L258.885,838.016L259.309,837.286C263.014,830.827 269.647,811.933 274.488,809.33L277.312,809.363L310.016,809.378C309.586,818.997 308.995,828.607 308.243,838.206C322.036,838.032 335.831,838.008 349.625,838.132C352.648,783.095 353.071,725.087 354.922,669.749L297.017,669.386ZM315.504,711.87C316.558,713.116 312.829,767.343 312.479,774.08L288.996,774.023L288.268,773.311C289.09,770.114 294.943,757.562 296.546,753.96C302.746,739.876 309.065,725.846 315.504,711.87ZM305.645,750.704C304.11,754.268 299.386,763.528 300.359,766.693C301.904,766.409 303.723,766.522 304.546,765.173C306.323,762.259 306.564,753.879 305.645,750.704ZM159.103,670.161C149.61,671.511 137.947,677.345 135.068,687.408C122.418,731.635 112.279,773.548 99.695,818.156C90.697,850.052 153.189,834.868 169.749,838.193C181.763,840.605 202.348,835.901 207.951,823.718C213.996,811.449 217.229,792.328 221.056,778.73L187.312,778.731C185.916,778.812 184.488,778.57 183.952,779.483C180.891,784.705 178.559,797.141 177.121,802.99L144.848,802.963C152.567,773.473 162.889,737.548 169.22,708.189L200.776,708.188C198.955,715.881 197.279,723.608 195.748,731.364C209.108,731.43 222.468,731.317 235.825,731.025C238.1,720.02 247.995,685.16 242.361,676.652C240.104,673.243 236.799,671.007 232.782,670.312C222.655,668.559 210.758,669.713 200.449,669.772C186.752,669.851 172.766,669.399 159.103,670.161ZM1000.64,661.993C1007.97,661.7 1046.14,660.49 1050.03,663.003C1053.93,665.527 1060.49,721.229 1062.46,730.469C1069.55,709.171 1072.97,684.255 1082.08,664.247C1083.58,660.953 1129.58,659.743 1135.29,665.505C1137.22,670.386 1129.41,693.375 1127.41,699.999L1112.29,750.185L1094.97,809.288C1092.59,817.339 1087.12,841.032 1081.12,845.366C1073.04,846.181 1037.68,848.205 1032.09,844.751C1026.56,841.335 1020.06,788.093 1018.02,778.313C1014.9,788.347 1000.82,840.18 996.155,844.613C989.778,847.48 975.438,845.365 967.899,845.954C961.394,846.462 948.92,847.268 945,841.168C944.942,837.974 946.06,832.658 946.963,829.485C958.159,790.123 969.8,750.753 981.334,711.496L990.241,681.087C992.377,673.702 992.923,664.27 1000.64,661.993ZM1000.94,669.783C984.503,725.116 967.426,782.501 952.038,838.06L992.382,838.255C1001.26,808.788 1010.32,776.876 1020.3,747.981C1026.08,777.76 1030.44,808.65 1036.1,838.701C1048.26,838.457 1060.43,838.189 1072.6,838.156C1079.15,838.138 1079.05,837.897 1080.48,831.959C1096.99,778.631 1112.82,723.573 1128.77,669.933L1086.34,669.938C1078.07,701.106 1069.25,737.444 1059.74,768.02C1056.2,736.467 1048.72,700.172 1045.97,669.796C1031.13,669.807 1015.73,670.034 1000.94,669.783ZM738.381,661.929C744.269,661.474 751.306,661.603 757.262,661.56C775.058,661.434 792.967,660.927 810.72,662.048C825.485,662.98 836.012,677.964 832.662,692.083C821.401,733.773 809.496,774.997 797.763,816.524C793.147,832.847 781.052,843.096 764.438,845.514C739.465,846.264 712.078,845.708 687.083,845.173C676.473,844.946 667.658,835.53 666.986,825.397C666.762,822.016 667.406,818.466 668.267,815.137C680.34,772.932 692.307,730.66 704.577,688.516C709.337,672.191 721.717,663.257 738.381,661.929ZM740.866,669.499C718.589,670.956 713.247,682.549 707.958,701.873C697.639,739.577 686.113,776.919 675.867,814.663C673.031,825.11 673.506,835.452 686.94,837.437C695.001,838.629 704.479,838.086 712.701,838.079L761.223,838.017C770.099,837.759 777.347,834.531 783.478,828.04C786.297,825.055 788.207,822.186 789.659,818.327C794.253,806.116 826.62,691.219 826.328,685.517C826.08,680.671 823.779,675.786 819.895,672.795C812.222,666.884 753.89,669.306 740.866,669.499ZM747.168,707.611C758.583,707.842 770.339,707.774 781.782,707.839L755.04,803.281L719.788,803.364C728.712,771.389 737.839,739.471 747.168,707.611ZM752.515,715.053C743.867,740.929 737.5,769.766 729.045,795.846L749.487,795.734C757.746,769.478 763.931,741.242 772.224,715.094L752.515,715.053ZM856.663,661.936C886.314,660.771 918.164,662.186 947.883,662.274C968.575,662.335 979.575,679.392 973.567,699.01C966.255,722.885 961.015,749.034 952.312,772.615C948.563,783.053 939.68,788.134 929.923,792.008C932.291,806.949 935.956,824.202 937.489,839.619C938.567,850.472 896.74,844.616 890.206,845.707C887.092,846.227 883.927,844.316 881.804,841.912C880.816,835.922 876.252,797.85 874.02,795.775C861.091,794.921 862.227,838.818 851.765,844.635C847.907,846.781 809.757,846.969 805.027,845.187C803.484,844.605 801.884,843.477 801.245,841.904C800.189,839.305 801.732,834.264 802.37,831.648C805.862,817.342 810.561,803.142 814.692,788.999L836.102,715.503C840.723,699.838 845.021,682.199 850.751,666.932C851.829,664.059 853.874,662.855 856.663,661.936ZM857.012,669.766L807.853,838.193L848.535,838.178L863.677,787.732C869.571,787.766 875.919,787.917 881.772,787.797C883.534,801.213 886.346,817.277 887.619,830.276L888.82,838.01C902.652,837.964 916.484,838.087 930.314,838.381C927.33,821.05 924.499,803.693 921.823,786.312C930.215,784.292 939.277,781.558 944.027,773.648C948.814,765.674 965.53,704.346 967.218,693.754C967.868,689.674 968.211,684.752 966.964,680.744C965.845,677.151 960.991,673.632 957.699,672.126C948.455,667.897 872.375,669.85 857.012,669.766ZM885.351,708.054L923.213,708.021C918.23,722.574 914.413,738.751 909.292,752.894C896.917,752.813 884.542,752.803 872.168,752.863L885.351,708.054ZM890.689,715.363C887.733,725.208 884.831,735.068 881.981,744.944L904.63,744.891C907.201,735.982 910.228,724.163 913.187,715.615L890.689,715.363ZM1253.4,661.839C1266.83,661.684 1280.26,661.63 1293.69,661.678C1301.54,661.679 1309.55,661.404 1317.32,662.307C1321.61,662.805 1322.5,666.056 1322.42,669.889C1322.22,679.81 1321.53,689.861 1320.96,699.759C1320,715.928 1319.13,732.101 1318.35,748.279L1315.27,807.42C1314.8,815.973 1314.26,834.961 1312.08,842.561C1305.55,848.33 1275.15,844.602 1265.41,845.461C1254.41,846.432 1259.36,822.697 1259.99,817.026L1236.56,817.136C1228.99,817.522 1225.07,840.528 1219.12,843.462C1210.52,847.7 1185,845.289 1175.38,845.628C1160.01,846.172 1174.17,822.84 1177.43,815.927L1198.41,771.912L1231.06,703.273C1236.87,691.079 1242.65,678.667 1248.76,666.625C1249.95,664.28 1251.1,663.113 1253.4,661.839ZM1255.44,669.534L1209.16,766.417C1197.87,789.924 1185.77,814.232 1175.11,837.948L1214.3,837.989C1219.01,830.475 1224.85,817.526 1228.82,809.239L1237.19,809.317C1247.1,809.284 1257.95,809.05 1267.79,809.25C1267.21,818.623 1266.24,828.82 1265.82,838.066L1305.96,838.05C1308.64,799.942 1309.8,761.354 1312.23,723.245C1313.21,707.763 1313.61,684.708 1315.44,669.809C1295.44,669.861 1275.44,669.769 1255.44,669.534ZM1273.6,711.638C1274.7,714.148 1270.35,767.014 1269.68,773.968L1245.5,773.961C1245.31,772.346 1270.78,717.374 1273.6,711.638ZM1264.11,750.748C1262.15,754.033 1257.06,763.074 1258.14,766.724C1260.11,766.272 1261.45,766.438 1262.29,764.939C1263.81,762.235 1264.38,753.787 1264.11,750.748ZM602.882,661.98C633.181,660.43 665.628,662.588 696.09,661.886C712.853,661.499 699.26,687.55 697.707,697.142C694.072,719.581 684.169,715.415 667.05,715.121C657.167,715.047 647.283,715.023 637.4,715.051C636.189,720.126 634.286,726.263 632.833,731.374C641.397,731.309 671.147,729.711 676.04,733.943C679.388,741.444 669.627,775.639 664.44,781.194C659.251,783.851 636.615,782.922 629.062,782.923L618.495,782.933C612.426,802.593 607.563,825.235 599.56,843.706C598.345,846.509 552.109,848.764 546.552,842.726C546.383,839.166 547.013,834.525 547.963,831.107C562.395,779.21 577.371,727.447 591.988,675.599C594.184,667.808 594.183,663.549 602.882,661.98ZM670.763,669.53C647.842,669.713 624.141,670.081 601.25,669.796L553.294,838.258C567.211,838.078 581.129,837.995 595.048,838.008L602.128,813.04L613.309,775.143L660.258,775.05C663.498,766.134 668.214,748.434 670.391,739.042L622.918,738.982L632.464,707.482L687.15,707.424L697.721,669.454L670.763,669.53ZM412.341,661.762C420.089,661.086 429.123,661.721 436.999,661.576C444.329,661.441 452.132,661.457 459.355,662.37C463.962,662.953 466.347,667.769 465.161,671.994C462.018,684.112 457.833,696.18 454.372,708.207L429.87,795.211C434.51,795.092 442.156,794.909 446.128,794.8C487.31,793.67 488.679,788.785 478.805,830.973C477.253,837.604 476.889,843.853 469.587,846.214L405.522,846.518C394.361,846.57 383,846.702 371.878,846.533C368.737,846.485 364.112,846.352 362.422,843.827C360.951,841.63 360.37,839.764 360.793,837.115C362.177,828.435 365.162,819.208 367.566,810.717L380.301,765.277L399.146,696.539C401.885,686.739 404.735,676.164 407.948,666.464C408.495,664.815 410.939,662.899 412.341,661.762ZM414.351,669.236C398.936,724.939 383.596,783.714 367.209,838.902C400.567,838.88 436.317,839.536 469.465,838.766C472.182,826.578 474.784,814.364 477.271,802.127C458.264,802.806 438.632,802.266 419.925,803.124C432.409,758.637 445.158,714.226 458.17,669.891L414.351,669.236ZM1162.4,661.967C1171.35,661.995 1199.98,660.79 1206.61,664.509C1207.42,665.606 1207.65,665.515 1207.81,666.607C1208.25,669.499 1207.76,673.809 1207.01,676.631C1200.48,701.267 1193.21,726.026 1186.33,750.538C1180.11,773.249 1173.72,795.91 1167.14,818.52C1165.22,825.142 1163.48,831.732 1161.69,838.383C1160.17,844.01 1156.97,845.374 1151.84,845.942C1143.18,846.03 1112.68,848.164 1106.82,844.427C1105.42,843.534 1104.44,841.65 1104.21,840.017C1103.56,835.32 1151.4,667.758 1153.95,664.74C1156.05,662.249 1159.41,662.227 1162.4,661.967ZM1158.63,669.933L1127.53,780.329C1122.38,798.511 1116.83,820.343 1111.09,838.07L1154.05,838.041C1170.9,782.651 1185.61,725.744 1201.35,670.001L1158.63,669.933ZM534.316,661.865C544.161,661.375 577.811,660.343 584.615,665.087C587.03,669.146 578.852,694.156 577.25,699.675L563.514,747.053L545.846,808.524C542.794,819.232 539.782,830.174 536.544,840.836C535.818,843.227 534.552,844.456 532.641,845.978C521.627,846.845 507.159,845.906 495.842,846.367C491.699,846.536 485.151,845.986 482.091,842.878C481.111,833.837 490.802,802.942 493.535,793.051L513.636,721.164L524.008,684.406C526.274,676.421 527.281,666.281 534.316,661.865ZM535.662,669.674C519.554,725.884 503.776,782.188 488.328,838.584C493.247,838.563 528.395,838.945 530.171,837.775L578.228,669.978C564.362,669.893 549.436,670.089 535.662,669.674ZM890.604,633.991C900.057,627.781 917.399,615.887 928.429,614.802C949.823,612.696 974.736,616.921 996.846,618.308C1051.09,621.71 1136.27,627.872 1181.63,593.374C1194.11,583.881 1203.08,565.376 1205.99,550.218C1213.81,509.438 1196.06,466.828 1174,433.627C1107.35,333.345 972.765,281.947 859.014,259.121C821.856,251.432 784.012,247.548 746.067,247.531C727.914,247.534 710.049,247.957 691.973,249.31C680.962,250.134 671.573,246.402 665.671,236.847C660.765,229.076 655.398,221.502 650.766,213.472C819.358,195.279 1010.48,221.611 1147.82,328.731C1240.64,401.123 1275.19,510.863 1195.68,607.261C1187.78,616.832 1179.36,624.955 1171.17,634.105C1160.98,634.691 1146.59,634.287 1136.23,634.284L1071.58,634.222L890.604,633.991ZM416.137,262.679C421.912,275.967 424.765,291.822 425.75,306.173C427.413,330.399 420.694,332.84 404.148,345.663C396.643,351.55 389.239,357.565 381.938,363.704C356.449,385.284 332.287,408.386 309.584,432.883C282.747,461.793 260.104,491.027 237.011,523.017C231.058,531.264 217.756,553.909 213.019,559.188C163.833,416.238 300.387,312.504 416.137,262.679Z" style="fill:rgb(0,122,107);"/>
    </g>
</svg>
