<svg width="100%" height="100%" viewBox="0 0 106 64" version="1.1" xmlns="http://www.w3.org/2000/svg" xmlns:xlink="http://www.w3.org/1999/xlink" xml:space="preserve" xmlns:serif="http://www.serif.com/" style="fill-rule:evenodd;clip-rule:evenodd;stroke-linejoin:round;stroke-miterlimit:2;">
    <g transform="matrix(1,0,0,1,-312.652,-1026.24)">
        <g transform="matrix(1,0,0,1,-151.744,953.172)">
            <path id="ND" d="M556.509,73.847L527.196,74.43L506.715,74.333L489.147,73.944L468.57,73.168L467.502,73.071L467.405,76.953L466.143,100.637L464.59,131.115L464.396,134.997L468.181,135.191L510.986,136.356L550.491,136.065L566.895,135.58L570.195,135.385L569.806,133.929L569.321,129.465L567.089,124.223L566.506,115.487L564.565,105.587L560.488,80.739L558.547,73.847L556.509,73.847L556.509,73.847Z" style="fill:rgb(249,249,249);"  data-color="color-1"/>
        </g>
    </g>
</svg>
