<svg width="100%" height="100%" viewBox="0 0 166 97" version="1.1" xmlns="http://www.w3.org/2000/svg" xmlns:xlink="http://www.w3.org/1999/xlink" xml:space="preserve" xmlns:serif="http://www.serif.com/" style="fill-rule:evenodd;clip-rule:evenodd;stroke-linejoin:round;stroke-miterlimit:2;">
    <g transform="matrix(1,0,0,1,-105.08,-1017.83)">
        <g transform="matrix(0.995018,-0.0996932,0.0996932,0.995018,-205.665,996.035)">
            <path id="MT" d="M465.658,72.974L433.53,70.838L410.138,68.606L386.842,65.888L372.38,63.947L349.279,60.356L337.729,58.414L311.91,53.464L309.192,52.882L305.018,72.683L306.862,76.274L308.318,81.807L307.445,82.583L309.289,87.63L311.813,89.766L318.995,101.802L319.675,103.84L322.587,103.646L319.189,119.564L317.831,119.952L315.986,125.291L325.596,125.97L326.372,130.435L331.808,143.733L332.778,144.509L336.564,152.274L337.534,151.498L345.591,151.401L355.782,152.468L358.306,149.168L361.315,154.604L361.897,154.895L361.994,154.313L363.353,144.8L396.549,148.877L423.047,151.401L437.024,152.566L461.969,154.021L463.231,154.119L463.522,154.119L463.619,152.76L463.911,146.062L464.299,137.23L464.396,134.997L464.59,131.115L466.143,100.637L467.405,76.953L467.502,73.071L465.658,72.974L465.658,72.974Z" style="fill:rgb(249,249,249);"  data-color="color-1"/>
        </g>
    </g>
</svg>
