<svg width="100%" height="100%" viewBox="0 0 106 71" version="1.1" xmlns="http://www.w3.org/2000/svg" xmlns:xlink="http://www.w3.org/1999/xlink" xml:space="preserve" xmlns:serif="http://www.serif.com/" style="fill-rule:evenodd;clip-rule:evenodd;stroke-linejoin:round;stroke-miterlimit:2;">
    <g transform="matrix(1,0,0,1,-204.768,-390.836)">
        <g transform="matrix(0.974845,-0.222886,0.222886,0.974845,7.52269,409.753)">
            <path id="WA" d="M192.134,77.05L192.231,75.4L192.037,75.497L192.134,77.05L192.134,77.05ZM212.808,68.218L212.808,68.218L212.808,68.218ZM218.244,59.579L218.244,59.579L218.244,59.579ZM200.967,84.913L204.461,88.698L203.878,95.978L204.558,97.822L209.799,100.637L224.553,101.996L225.135,103.743L232.124,103.84L238.724,104.713L249.498,103.549L254.837,104.422L256.293,103.743L283.567,109.955L285.412,110.343L285.217,109.372L285.606,105.005L285.12,100.831L296.38,50.164L294.827,49.873L272.114,44.534L252.313,39.487L229.891,33.275L223.194,31.625L224.747,40.069L223.291,42.787L220.67,41.428L223.194,53.173L220.476,57.055L219.214,60.647L219.214,64.335L213.488,68.315L211.061,66.762L208.732,67.927L213.002,62.394L211.935,66.179L214.361,63.559L216.303,63.947L215.72,59.094L216.982,59.288L219.603,53.464L218.729,52.591L215.332,56.958L213.099,57.055L215.526,54.338L218.244,53.658L217.273,48.708L214.555,48.029L213.197,45.699L211.546,46.573L202.617,42.69L194.755,36.575L192.619,42.496L192.425,45.02L194.075,49.485L193.007,63.947L192.231,66.179L196.599,66.568L192.231,69.674L194.56,70.838L192.716,77.05L191.843,72.197L190.193,77.827L192.425,80.545L194.852,80.351L197.764,82.098L199.219,84.913L200.967,84.913L200.967,84.913Z" style="fill:rgb(249,249,249);"   data-color="color-1"/>
        </g>
    </g>
</svg>
