
<svg width="100%" height="100%" viewBox="0 0 98 64" version="1.1" xmlns="http://www.w3.org/2000/svg" xmlns:xlink="http://www.w3.org/1999/xlink" xml:space="preserve" xmlns:serif="http://www.serif.com/" style="fill-rule:evenodd;clip-rule:evenodd;stroke-linejoin:round;stroke-miterlimit:2;">
    <g transform="matrix(1,0,0,1,-439.055,-1346.12)">
        <g transform="matrix(0.997869,0.0652543,-0.0652543,0.997869,-118.649,1124.9)">
            <path id="IA" d="M661.531,197.7L656.193,194.885L653.281,190.905L652.31,185.179L653.087,182.558L650.272,179.161L645.516,179.646L597.761,183.626L578.639,184.693L573.786,184.985L571.748,185.082L573.398,195.856L572.039,201L574.174,204.203L574.174,204.883L574.854,204.98L577.96,214.104L580.969,218.86L581.163,224.295L584.463,228.857L583.881,230.798L586.89,243.028L586.89,243.32L606.787,242.737L628.044,240.893L648.913,238.272L653.669,242.446L653.863,242.64L654.737,242.252L654.057,238.466L657.649,236.234L659.105,226.334L657.649,225.654L658.522,220.607L662.89,219.733L667.743,216.239L669.879,210.124L669.976,207.018L666.093,203.33L664.928,201L661.24,198.671L661.434,198.185L661.531,197.7L661.531,197.7Z" style="fill:rgb(249,249,249);"  data-color="color-1"/>
        </g>
    </g>
</svg>
