<svg width="100%" height="100%" viewBox="0 0 135 221" version="1.1" xmlns="http://www.w3.org/2000/svg" xmlns:xlink="http://www.w3.org/1999/xlink" xml:space="preserve" xmlns:serif="http://www.serif.com/" style="fill-rule:evenodd;clip-rule:evenodd;stroke-linejoin:round;stroke-miterlimit:2;">
    <g transform="matrix(1,0,0,1,-291.156,-181.195)">
        <g transform="matrix(1,0,0,1,140.857,18.4377)">
            <path id="CA" d="M223,179.84L219.214,178.87L177.671,167.416L162.238,162.757L162.238,163.145L161.365,172.755L157.288,184.111L150.494,192.556L150.3,196.826L153.6,202.747L155.25,210.512L152.92,216.821L153.309,223.13L152.144,225.751L156.123,234.39L158.647,237.69L158.453,247.105L164.471,252.832L167.965,247.008L171.751,250.017L173.207,248.658L167.965,249.629L167.868,254.579L168.936,260.791L166.024,257.976L164.374,254.191L163.888,259.432L165.247,269.818L170.683,276.515L167.092,281.174L167.674,287.095L171.556,293.113L178.351,311.749L180.486,312.914L179.807,325.823L180.874,327.376L195.434,332.618L199.899,337.374L201.452,340.48L205.723,342.906L210.382,343.78L212.323,349.118L216.205,350.963L222.029,357.854L227.465,366.881L227.077,375.228L230.085,379.208L269.784,383.09L273.279,382.896L274.832,378.626L271.823,376.393L271.92,369.307L273.667,368.919L277.161,360.378L279.297,356.398L284.732,353.195L281.723,349.118L278.326,339.994L278.52,337.568L278.52,337.471L275.996,334.074L268.231,323.688L253.187,302.528L232.221,272.438L220.379,256.035L208.926,239.534L222.126,183.529L223,179.84L223,179.84Z" style="fill:rgb(249,249,249);"  data-color="color-1"/>
        </g>
    </g>
</svg>
