
<svg width="100%" height="100%" viewBox="0 0 81 73" version="1.1" xmlns="http://www.w3.org/2000/svg" xmlns:xlink="http://www.w3.org/1999/xlink" xml:space="preserve" xmlns:serif="http://www.serif.com/" style="fill-rule:evenodd;clip-rule:evenodd;stroke-linejoin:round;stroke-miterlimit:2;">
    <g transform="matrix(1,0,0,1,-706.127,-1248.16)">
        <g transform="matrix(0.993764,0.1115,-0.1115,0.993764,137.425,856.782)">
            <path id="AR" d="M690.456,328.056L679.973,329.609L684.244,322.814L682.4,319.029L645.419,322.62L614.164,325.144L609.602,325.435L610.185,328.153L613.97,347.759L614.067,352.127L615.135,378.528L615.232,382.896L615.523,382.993L616.979,384.546L622.803,384.352L623.385,392.894L623.579,395.32L626.588,395.029L635.809,394.35L672.402,390.953L672.596,390.953L672.499,388.817L673.47,388.138L671.723,384.838L675.411,369.308L673.955,367.56L679.488,361.445L679.1,356.204L683.176,349.41L683.176,349.312L682.982,349.118L686.476,345.915L685.506,342.033L688.223,337.762L687.641,333.782L690.553,328.153L690.553,328.056L690.456,328.056L690.456,328.056Z" style="fill:rgb(249,249,249);"  data-color="color-1"/>
        </g>
    </g>
</svg>
