<svg width="100%" height="100%" viewBox="0 0 4096 4096" version="1.1" xmlns="http://www.w3.org/2000/svg" xmlns:xlink="http://www.w3.org/1999/xlink" xml:space="preserve" xmlns:serif="http://www.serif.com/" style="fill-rule:evenodd;clip-rule:evenodd;stroke-linejoin:round;stroke-miterlimit:2;">
    <path d="M553.545,500.411L3026.8,499.818L3278.92,751.503C3368.78,842.12 3463.02,938.95 3556.1,1025.86L3559.16,2123.81C3540.44,2138.97 3520.5,2159.97 3503.24,2177.28L3420.58,2260.2C3346.42,2334.53 3269.5,2408.61 3197.16,2484.26C3230.6,2555.18 3261.59,2627.55 3295.93,2697.94C3339.91,2714.88 3389.91,2741.39 3433.26,2762.18C3472.7,2781.08 3518.45,2801.08 3556.61,2821.32L3557,3294.03C3557.58,3394.4 3560.17,3495.04 3559.09,3595.38C3518.77,3597.25 3466.19,3596.04 3425,3596.13L2389.93,3596.45C2364.96,3533.49 2336.49,3470.56 2308.63,3408.82C2296.55,3382.07 2286.87,3355.18 2273.91,3328.56C2271.21,3351 2273,3399 2273.24,3423.78L2274.36,3595.39C2207.81,3597.82 2126.32,3595.72 2058.77,3595.85L1624.54,3596.45L551.039,3597.35L550.98,2818.01C564.472,2809.27 584.471,2800.7 598.93,2792.48C652.436,2762.07 719.881,2735.71 771.944,2706.01C774.484,2656.51 772.968,2595.32 772.833,2544.93L772.448,2281.91L773.213,1382.38C757,1376.39 732.062,1361.93 715.528,1354.22C663.194,1329.79 605.667,1295.76 552.328,1275.11C549.92,1093.13 552.455,906.505 552.298,723.996L551.979,576.726C551.935,560.472 550.789,514.193 553.545,500.411ZM671.421,619.735L671.714,1003.03C671.74,1068.16 670.522,1138.98 672.251,1203.63C687.137,1211.54 702.627,1218.38 717.945,1225.4C776.623,1252.32 834.341,1281.35 891.881,1310.6L892.738,2779.19L753.088,2850.45C731.069,2861.7 690.639,2881.04 671.506,2894.61L671.858,3480.16L1776.45,3480.69C1901.52,3480.67 2030.84,3482.3 2155.56,3480.54L2155.33,3135.85C2155.64,3055.57 2155.51,2975.3 2154.94,2895.02C2085.45,2850.07 2012.1,2820.66 1944.22,2780.96L1944.06,2602.25C1944.09,2576.43 1942.89,2531.95 1944.79,2507.53L2046.06,2507.17L2306.85,3104.34C2343.08,3190.13 2380.07,3275.59 2417.81,3360.72C2434.64,3399.18 2451.09,3443.61 2470.26,3480.22L3125.37,3479.59C3228.25,3479.63 3338.28,3477.86 3440.82,3480.2L3439.89,2901.14C3423.01,2889.18 3389.5,2874.83 3369.95,2864.49C3317.13,2836.53 3257.3,2810.7 3205.52,2781.84C3182.2,2741.17 3168.29,2701.43 3148.68,2660.67C3117.31,2595.46 3089.05,2524.35 3057.74,2460.2L3441.28,2073.24C3439.25,2030.19 3440.19,1981.24 3440.24,1937.83L3440.53,1723.97L3440.55,1078.53C3419.03,1053.8 3388.84,1024.83 3365.14,1000.97C3313.15,948.636 3260.84,896.615 3208.22,844.91L3062.92,699.466C3038.81,675.314 3006.5,641.141 2981.66,619.231L2955.06,619L671.421,619.735ZM804.151,750.909L2926.25,751.619C2953.26,771.461 3015.82,838.437 3043.48,865.624L3311.34,1129.52C3312.25,1171.58 3311.99,1215.64 3311.42,1257.7C3307.97,1510.7 3315.21,1765.32 3311.02,2018.05C3296.32,2033.75 3274.86,2052.98 3258.89,2068.99C3208.89,2119.54 3158.42,2169.63 3107.5,2219.26C3056.65,2269.37 3003.02,2327.8 2950.75,2375.22C2926.39,2376.25 2898.55,2375.84 2873.92,2376.01C2934.49,2502.7 2988.34,2630 3046.72,2757.46C3062.74,2792.44 3080.95,2835.52 3098.58,2868.63C3169.37,2905.75 3240.66,2941.63 3310.98,2979.53C3313.23,3097.99 3313.01,3232.9 3311.2,3351.26C3197.97,3353.37 3079.11,3351.44 2965.41,3351.54C2830.97,3351.67 2693.03,3353.31 2558.84,3351.38C2539.32,3312.61 2514.62,3249.17 2496.79,3207.46L2260.07,2661.92C2219.99,2569.97 2174.19,2469.93 2136.44,2377.58C2036.95,2374.73 1917.83,2377.76 1817.26,2378.25L1817.4,2686.31C1817.44,2742.46 1816.08,2804.47 1818.25,2859.81C1885.99,2898.19 1959.11,2931.98 2027.06,2971.51C2028.82,3012.96 2027.7,3062.47 2027.77,3104.5L2028.15,3350.53C1991.95,3353.34 1922.08,3351.24 1883.61,3351.3L1598.56,3351.46L801.459,3351.69C800.46,3335.37 800.277,3314.71 800.732,3298.24C803.643,3192.88 795.247,3081.29 801.475,2976.52C863.835,2936.77 953.145,2893.27 1020.71,2860.28L1020.95,1797.5C1021.22,1609.6 1023.33,1414.05 1020.37,1226.59C1000.46,1218.6 972.982,1203.71 953.297,1193.85C902.207,1168.25 852.834,1141.63 801.079,1117.21C796.724,1028.46 801.638,850.416 801.258,754.451C802.222,753.27 803.186,752.09 804.151,750.909ZM1814.22,1874.04L2135.7,1869.2C2176.29,1869.01 2224.38,1867.82 2264.53,1868.94C2312.36,1870.27 2497.15,1868.76 2562.21,1868.32C2572.15,1868.26 2583.39,1868.42 2593.22,1868.01C2614.32,1849.39 2635.97,1826.44 2656.49,1806.76C2677.04,1787.27 2697.42,1767.59 2717.6,1747.74C2724.04,1741.45 2732.71,1733.9 2738.64,1727.73C2740.33,1628.48 2737.41,1528.47 2738.8,1429.11C2739.03,1412.59 2739.14,1395.29 2738.77,1378.77L2630.65,1275.12C2619.49,1264.44 2594.23,1238.14 2583.33,1230.35L1814.96,1230.1L1814.22,1874.04Z" style="fill:rgb(22,60,100);" data-color="color-1"/>
    <path d="M671.421,619.735L2955.06,619L2981.66,619.231C3006.5,641.141 3038.81,675.314 3062.92,699.466L3208.22,844.91C3260.84,896.615 3313.15,948.636 3365.14,1000.97C3388.84,1024.83 3419.03,1053.8 3440.55,1078.53L3440.53,1723.97L3440.24,1937.83C3440.19,1981.24 3439.25,2030.19 3441.28,2073.24L3057.74,2460.2C3089.05,2524.35 3117.31,2595.46 3148.68,2660.67C3168.29,2701.43 3182.2,2741.17 3205.52,2781.84C3257.3,2810.7 3317.13,2836.53 3369.95,2864.49C3389.5,2874.83 3423.01,2889.18 3439.89,2901.14L3440.82,3480.2C3338.28,3477.86 3228.25,3479.63 3125.37,3479.59L2470.26,3480.22C2451.09,3443.61 2434.64,3399.18 2417.81,3360.72C2380.07,3275.59 2343.08,3190.13 2306.85,3104.34L2046.06,2507.17L1944.79,2507.53C1942.89,2531.95 1944.09,2576.43 1944.06,2602.25L1944.22,2780.96C2012.1,2820.66 2085.45,2850.07 2154.94,2895.02C2155.51,2975.3 2155.64,3055.57 2155.33,3135.85L2155.56,3480.54C2030.84,3482.3 1901.52,3480.67 1776.45,3480.69L671.858,3480.16L671.506,2894.61C690.639,2881.04 731.069,2861.7 753.088,2850.45L892.738,2779.19L891.881,1310.6C834.341,1281.35 776.623,1252.32 717.945,1225.4C702.627,1218.38 687.137,1211.54 672.251,1203.63C670.522,1138.98 671.74,1068.16 671.714,1003.03L671.421,619.735ZM804.151,750.909C803.186,752.09 802.222,753.27 801.258,754.451C801.638,850.416 796.724,1028.46 801.079,1117.21C852.834,1141.63 902.207,1168.25 953.297,1193.85C972.982,1203.71 1000.46,1218.6 1020.37,1226.59C1023.33,1414.05 1021.22,1609.6 1020.95,1797.5L1020.71,2860.28C953.145,2893.27 863.835,2936.77 801.475,2976.52C795.247,3081.29 803.643,3192.88 800.732,3298.24C800.277,3314.71 800.46,3335.37 801.459,3351.69L1598.56,3351.46L1883.61,3351.3C1922.08,3351.24 1991.95,3353.34 2028.15,3350.53L2027.77,3104.5C2027.7,3062.47 2028.82,3012.96 2027.06,2971.51C1959.11,2931.98 1885.99,2898.19 1818.25,2859.81C1816.08,2804.47 1817.44,2742.46 1817.4,2686.31L1817.26,2378.25C1917.83,2377.76 2036.95,2374.73 2136.44,2377.58C2174.19,2469.93 2219.99,2569.97 2260.07,2661.92L2496.79,3207.46C2514.62,3249.17 2539.32,3312.61 2558.84,3351.38C2693.03,3353.31 2830.97,3351.67 2965.41,3351.54C3079.11,3351.44 3197.97,3353.37 3311.2,3351.26C3313.01,3232.9 3313.23,3097.99 3310.98,2979.53C3240.66,2941.63 3169.37,2905.75 3098.58,2868.63C3080.95,2835.52 3062.74,2792.44 3046.72,2757.46C2988.34,2630 2934.49,2502.7 2873.92,2376.01C2898.55,2375.84 2926.39,2376.25 2950.75,2375.22C3003.02,2327.8 3056.65,2269.37 3107.5,2219.26C3158.42,2169.63 3208.89,2119.54 3258.89,2068.99C3274.86,2052.98 3296.32,2033.75 3311.02,2018.05C3315.21,1765.32 3307.97,1510.7 3311.42,1257.7C3311.99,1215.64 3312.25,1171.58 3311.34,1129.52L3043.48,865.624C3015.82,838.437 2953.26,771.461 2926.25,751.619L804.151,750.909ZM1814.22,1874.04L1814.96,1230.1L2583.33,1230.35C2594.23,1238.14 2619.49,1264.44 2630.65,1275.12L2738.77,1378.77C2739.14,1395.29 2739.03,1412.59 2738.8,1429.11C2737.41,1528.47 2740.33,1628.48 2738.64,1727.73C2732.71,1733.9 2724.04,1741.45 2717.6,1747.74C2697.42,1767.59 2677.04,1787.27 2656.49,1806.76C2635.97,1826.44 2614.32,1849.39 2593.22,1868.01C2583.39,1868.42 2572.15,1868.26 2562.21,1868.32C2497.15,1868.76 2312.36,1870.27 2264.53,1868.94C2224.38,1867.82 2176.29,1869.01 2135.7,1869.2L1814.22,1874.04Z" style="fill:white;" data-color="color-2"/>
</svg>
