<svg width="100%" height="100%" viewBox="0 0 3535 3552" version="1.1" xmlns="http://www.w3.org/2000/svg" xmlns:xlink="http://www.w3.org/1999/xlink" xml:space="preserve" xmlns:serif="http://www.serif.com/" style="fill-rule:evenodd;clip-rule:evenodd;stroke-linejoin:round;stroke-miterlimit:2;">
    <g transform="matrix(1,0,0,1,-291.16,-321.93)">
        <path d="M2791.63,810.287C2799.27,808.671 2812.07,802.553 2812.07,802.553C2831.67,775.333 2860.32,723.485 2879.02,692.915C2971.76,541.281 3048.94,413.547 3206.13,321.93C3137.82,598.597 2943.85,864.948 2834.56,1128.24C2800.23,1210.92 2913.46,1258.55 2975.05,1231.35C3011.58,1212.65 3043.3,1114.9 3064.62,1079.54C3165.15,888.517 3339.95,506.02 3530.09,402.281C3506.41,521.358 3452.92,647.58 3404.68,758.618C3340.36,906.692 3269.2,1053.39 3203.18,1200.55C3169.44,1275.76 3126.62,1334.95 3240.67,1352.05C3355.39,1369.25 3376.81,1275.4 3416.92,1193.75C3530.11,962.945 3608.32,688.522 3825.5,531.068C3815.33,606.146 3793.98,682.728 3772.07,755.201C3730.28,893.455 3676.16,1028.79 3623.94,1163.42C3591.33,1247.5 3559.84,1336.14 3516.03,1414.8C3460.39,1514.72 3352.66,1566.57 3239.99,1548.93C3189.89,1541.17 3134.99,1527.37 3086.24,1511.04C3062.32,1551.89 3039.06,1593.13 3016.48,1634.75C3003.62,1658.09 2990.25,1682.92 2976.65,1705.5C2970.63,1715.51 2950.66,1724.18 2940.54,1729.01C2939.94,1729.29 2930.86,1742.89 2929.78,1744.81C2906.94,1785.63 2884.82,1827.52 2862.88,1868.82L2740.62,2101.76C2954.98,2175 3068.85,2417.06 3173.45,2599.67C3183.97,2618.03 3196.54,2645.44 3210.37,2660.77C3261.53,2717.47 3306.16,2777.74 3352.57,2838.22C3360.87,2849.04 3378.08,2855.07 3389.17,2862.4C3450.53,2902.28 3481.12,2971.35 3484.33,3042.66C3566.99,3140.22 3578.97,3272.16 3535.29,3390.25C3532.42,3398.02 3517.71,3421.32 3517.44,3426.03C3513.55,3495.36 3500.56,3560.76 3445.59,3608.97C3406.74,3641.47 3350.48,3650.93 3303.45,3666.27C3238.7,3686.75 3174.14,3709.1 3108.44,3726.35C2884.04,3785.25 2657.34,3751.56 2431.98,3720.11C2384.8,3713.53 2336.02,3712.58 2289.43,3706.16C2155.12,3779.52 1916.96,3765.48 1770.06,3736.19C1736.45,3788.86 1718.53,3856.08 1651.05,3870.46C1618.85,3877.32 1584.96,3871.56 1557.25,3853.61C1522.92,3831.38 1512.74,3798.87 1505.65,3760.98C1504.6,3755.08 1503.75,3749.15 1503.1,3743.2C1501.41,3736.43 1496.69,3724.69 1494.24,3717.41L1498.16,3715.72C1483.54,3710.89 1463.04,3706.87 1447.73,3703.25C1334.43,3676.53 1226.33,3632.15 1120.19,3585.08C1107.92,3579.64 1105.72,3578.5 1101.76,3566.49L1099.1,3567.83C1096.94,3558.65 1096.16,3551.38 1095.54,3542.07C1094.58,3527.49 1093.27,3526.52 1080.65,3523.95C1076.93,3528.39 1062,3554.07 1058.11,3560.51C1024.69,3548.94 992.343,3538 958.014,3528.49C821.63,3490.72 663.296,3504.66 539.708,3575.1C504.103,3595.39 449.266,3640.02 438.596,3681.83C318.293,3641.72 273.89,3533.51 297.09,3413.75C301.431,3391.34 314.962,3365.25 315.777,3342.83C317.103,3306.39 304.342,3269.28 308.891,3232.29C315.434,3168.67 335.947,3132.53 383.033,3092.33C388.49,3069.88 391.646,3029.6 394.151,3005.15L390.273,3004.98C404.082,2920.96 410.847,2828.48 428.131,2744.01C431.012,2729.92 437.096,2691.07 441.553,2679.51L444.822,2679.89C448.42,2671.15 459.834,2616.48 462.749,2603.97C471.478,2567.99 482.029,2532.49 494.362,2497.59C588.407,2233.47 740.379,2167.22 978.046,2061.5C1067.65,2021.93 1156.5,1980.69 1244.56,1937.81C1260.02,1881.84 1286.52,1875.9 1319.1,1834.14C1321.76,1830.72 1335.49,1791.97 1340.32,1782.63C1366.94,1731.19 1385.04,1713.1 1438,1694.36C1439.31,1666.64 1440.15,1641.95 1439.99,1614.23C1378.01,1585.62 1334.12,1518.24 1307.77,1457.63C1285.15,1452.72 1262.73,1446.98 1240.53,1440.45C1025.2,1376.97 748.668,1190.37 819.409,926.539C853.751,798.457 984.652,735.156 1108.93,732.381C1204.86,730.238 1281.7,748.198 1373.71,776.267C1382.31,722.443 1393.22,638.233 1414.16,589.456C1423.04,568.79 1466.64,517.277 1483.65,498.689C1547.02,429.446 1608.62,350.408 1712.62,363.527C1760.41,369.556 1798.3,395.179 1840.51,394.894C1884.32,391.574 1926.18,372.457 1967.25,358.786C2047.59,332.043 2206.58,331.988 2253.67,417.288C2277.06,459.649 2298.27,535.424 2314.28,583.531C2352.15,697.359 2389.21,811.454 2425.46,925.807C2454.02,918.158 2473.21,911.918 2499.55,897.59C2563.41,862.853 2618.67,805.644 2690.68,787.353C2725.39,778.537 2748.18,782.726 2778.03,800.986C2778.03,800.986 2788.1,806.456 2791.63,810.287ZM2447.52,1250.72C2443.45,1274.9 2437.37,1288.96 2428.57,1311.66C2422.82,1324.85 2422.01,1326.53 2428.34,1339.56C2462.93,1467.66 2407.59,1512 2387.68,1635.88C2382.14,1670.38 2392.02,1703.13 2408.52,1734.7C2413.99,1745.18 2437.41,1747.13 2449.26,1748.82C2422.75,1784.84 2388.52,1791.31 2347.13,1793.47C2340.86,1824.8 2334.77,1856.17 2328.85,1887.57C2370.7,1924.79 2379.62,1940.68 2394.86,1994.3C2430.96,2004.49 2486.65,2025.88 2521.96,2039.33C2531,2025 2542.04,2002.78 2550.67,1987.37C2572.22,1949.47 2593.47,1911.41 2614.42,1873.17C2657.89,1794 2704.03,1712.99 2746.14,1633.59C2737.44,1615.85 2741.02,1614.95 2739.78,1597.83C2737.44,1565.72 2867.5,1438.9 2829.25,1419.41C2719.66,1363.59 2634.01,1318.95 2633.44,1183.08C2582.57,1214.43 2505.7,1242.12 2447.52,1250.72Z" style="fill:rgb(35,28,9);"/>
        <path d="M3083.78,491.648C3087.91,522.782 2798.52,1032.34 2776.53,1108.87C2769.62,1132.9 2761.82,1155.55 2764.6,1183.78C2767.7,1215.21 2787.6,1241.36 2811.44,1260.6C2849.49,1291.29 2914.34,1305.5 2962.32,1300.6C2990.7,1297.7 3025.94,1277.29 3042.25,1254.34C3076.84,1205.69 3099.68,1139.97 3126.98,1087.35C3215.27,917.152 3303.75,720.108 3423.43,570.249C3403.24,617.445 3381.11,664.254 3360.22,711.206C3326.29,788.968 3291.6,866.392 3256.13,943.468C3209.79,1041.03 3164.55,1139.12 3120.43,1237.71C3104.79,1273.63 3096.65,1299.91 3112.32,1338.03C3137.28,1396.84 3192,1407.76 3248.27,1414.11C3373.56,1428.26 3418.14,1341.87 3462.03,1242.92C3476.61,1210.27 3490.89,1177.48 3504.89,1144.57C3562.25,1021.62 3641.61,809.696 3724.59,705.375C3700.96,802.379 3655.11,909.853 3619.94,1005.42C3577.72,1117.19 3539.2,1227 3487.93,1335.19C3437.39,1441.85 3360.47,1500.31 3238.45,1479.05C3174.71,1467.95 3106.98,1429.84 3043.1,1429.57C3040.99,1430.87 3038.9,1432.19 3036.82,1433.54C3005.19,1454.21 2949.43,1567.33 2942.3,1601.87C2901.82,1561.72 2896.83,1566.15 2848.55,1551C2847.99,1535.74 2935.68,1415.97 2930.45,1387.69C2926.46,1366.16 2836.69,1344.99 2814.33,1333.56C2790.92,1321.6 2774.07,1314.83 2752.17,1297.59C2723.5,1275.02 2708.01,1252.59 2703.18,1215.19C2700.4,1193.6 2701.76,1158.43 2710.94,1138.82C2715.91,1128.2 2735.04,1109.03 2743.98,1099.04C2763.93,1076.76 2783.05,1053.82 2796.18,1026.59C2808.35,1001.36 2815.49,971.09 2820.45,943.637C2822.64,931.51 2824.38,903.555 2828.82,894.265C2846.39,857.416 2869.57,821.439 2889.57,786.034C2950.1,678.887 3007.51,588.715 3083.78,491.648Z" style="fill:rgb(147,142,124);"/>
        <path d="M1841.61,2225.63C1867.78,2246.77 1905.22,2265.55 1930.58,2287.99C1823.68,2288.29 1707.01,2250.48 1618.26,2191.15C1664.89,2249.92 1725.75,2290.46 1793.68,2321.49C1812.5,2330.09 1834.87,2334.38 1848.27,2340.56C1846.02,2344.86 1847.31,2342.87 1840.31,2345.13C1837.9,2346.15 1835.45,2347.03 1832.93,2347.77C1782.82,2362.4 1586.19,2267.26 1535.94,2239.23C1468.59,2199.56 1327.91,2093.09 1328.34,2009.33C1325.47,1975.26 1328.56,1960.1 1345.02,1931.08C1349.26,1939.11 1354.46,1947.6 1359.07,1955.51C1391.58,1995.01 1410.38,2017.36 1454.25,2044.06C1400.45,1958.87 1371.7,1865.44 1434.61,1776.35C1451.05,1927.3 1558.32,2012.23 1668.33,2103.84C1716.69,2144.12 1777.21,2184.3 1830.11,2218.54L1841.61,2225.63ZM2342.89,2523.61C2394.63,2626.87 2406.37,2745.62 2375.84,2857.02C2359.33,2840.97 2338.6,2821.94 2324.25,2804.45C2319.79,2801.3 2284.4,2758.87 2278.72,2752.16C2259.96,2739.82 2194.36,2649.3 2183.07,2622.68C2167.58,2586.17 2160.37,2552.29 2174.1,2513.95C2194.24,2515.82 2266.69,2575.18 2279.57,2593.67C2290.13,2604.62 2301.93,2623.18 2314.17,2636.94C2300.93,2596.03 2291.81,2542.54 2261.26,2507.8L2257.63,2499.99C2237.86,2472.2 2225.59,2459.05 2201.61,2435.63C2203.49,2427.83 2205.3,2420.02 2207.04,2412.18C2260.92,2434.49 2312.37,2467.97 2340.38,2521.21L2342.89,2523.61ZM2201.45,2101.74C2209.4,2084.29 2216.34,2066.24 2223.42,2048.41C2260.95,2033.59 2286.07,2017.36 2309.91,1983.64C2321.75,2031.74 2329.34,2058.12 2321.59,2108.28C2317.5,2150.24 2302.72,2200.82 2278.16,2235.43C2262.36,2257.7 2228.18,2295.44 2200.82,2301.88C2195.49,2291.75 2235.38,2222.27 2230.54,2209.89C2225.79,2213.12 2213.99,2227.76 2208.32,2233.56C2195.8,2246.35 2181.77,2256.38 2169.37,2268.09C2163.57,2263.02 2152.93,2254.25 2148.28,2248.74C2144.88,2247.15 2137.96,2241.17 2134.64,2238.51C2157.04,2201.08 2182.22,2155.31 2196.5,2113.97L2201.45,2101.74ZM2024.09,2368.03C2011.65,2337.49 2003.48,2340.19 2004.3,2305.38C2000.99,2302.4 1991.86,2285.17 1988.78,2279.8C1999.02,2275.98 2004.56,2273.56 2015.57,2271.99C2138.75,2244.71 2173.81,2392.37 2117.76,2473.28C2115.41,2476.65 2113.03,2479.99 2110.61,2483.3C2098,2450.64 2081.72,2387.21 2077,2352.33C2076.14,2381.8 2078.67,2450.86 2041.62,2460.12C2037.6,2454.31 2037.04,2411.45 2031.48,2392.44L2024.09,2368.03ZM1726.45,946.45C1714.56,939.166 1676.55,919.53 1670.65,910.553C1675.07,904.105 1707.05,897.799 1715.37,896.15C1891.59,861.216 2072.93,848.382 2250.6,880.26C2274.53,884.552 2319.47,892.204 2341.28,900.555C2347.12,906.494 2361.39,947.687 2367.15,960.054L2366.81,963.973C2356.99,966.451 2281.53,949.989 2264.99,948.686C2099.82,935.674 1935.93,939.603 1772.32,967.136C1765.19,968.335 1748.34,955.799 1740.34,953.197C1735.49,950.298 1731.57,948.745 1726.45,946.45ZM1966.67,2388.15L1968.14,2388.51C1971.62,2403.74 1936.82,2465.37 1928.51,2483.98C1899.43,2549.07 1895.82,2603.58 1901.16,2674.82C1925.23,2610.43 1955.29,2548.45 1990.94,2489.67C2009.95,2599.24 1998.92,2671.58 1951.04,2772.57C1929.42,2816.79 1896.62,2862.64 1867.85,2902.34C1817.92,2776.75 1753.62,2680.29 1816.98,2542.16C1850.63,2468.8 1890.78,2418.69 1966.67,2388.15Z" style="fill:rgb(255,235,205);"  data-color="color-3"/>
        <path d="M1739.71,1082.38C1705.35,1067.83 1668.22,1054.32 1634.17,1040.04C1490.96,980.212 1353.86,932.177 1196.23,954.761C1077.23,971.811 955.926,1056.75 1024.86,1189.43C1054.16,1245.83 1071.71,1258.32 1122.89,1295.27L1122.95,1297.62C1121.62,1297.57 1120.28,1297.53 1118.95,1297.48C1030.53,1260.58 938.4,1176.88 902.41,1087.98C858.177,978.729 908.461,874.981 1017.62,832.518L1023.44,835.49C1047.61,814.633 1112.87,814.064 1144.26,814.554C1453.14,819.376 1684.75,1081.87 1989.61,1099.12C1998.65,1099.63 2017.94,1102.34 2025.3,1099.06L2024.48,1095.77C1995.99,1088.51 1989.18,1078.05 1964.86,1068.5C1941.34,1059.26 1923.44,1052.05 1900.01,1040.76C1898.82,1040.25 1897.64,1039.75 1896.45,1039.24C1887.23,1031.01 1869.71,1022.82 1857.97,1017.03L1854.65,1016.65L1854.31,1015C1890.8,1001.08 2095.23,994.692 2144.11,996.442C2171.51,997.424 2248.98,1006.54 2277.71,1012L2403.22,1036.39C2446.05,1045.11 2472.66,1056.69 2517.61,1053.66C2584,1049.17 2660.24,1001.55 2687.37,939.855C2704.1,901.813 2700.17,893.245 2695.48,854.001C2712.11,864.262 2742.56,878.894 2744.84,900.723C2753.47,983.222 2664.2,1080.19 2593.19,1112.03C2580.31,1120.3 2559.01,1128.38 2544.39,1133.57C2516.02,1146.39 2487.87,1149.17 2464.15,1159.46L2461.05,1159.78C2450.99,1159.84 2418.9,1166.43 2407.65,1168.27C2374.53,1173.68 2341.61,1179.39 2308.08,1182.37C2202.08,1192.21 2095.2,1185.87 1991.11,1163.59C1964.65,1157.73 1937.96,1146.96 1914.01,1141.63L1910.88,1140.95C1899.25,1136.85 1887.58,1132.91 1875.85,1129.14C1845.13,1120.04 1810.71,1107.83 1780.39,1096.97C1768.35,1094.42 1752.48,1085.13 1739.71,1082.38ZM1597.51,680.906C1611.51,642.057 1668.33,590.739 1695.39,560.907L1693.33,558.454C1668.82,550.874 1567.58,581.618 1544.49,596.135C1538.61,599.829 1503.18,617.309 1499.17,618.2L1498.57,615.853C1540.42,556.205 1608.18,458.769 1682.93,437.423C1719.75,432.557 1764.89,454.556 1797.95,464.232C1871.65,485.803 1944.38,488.93 2020.39,485.666C2036.49,484.974 2049.48,477.938 2067.63,477.616C2064.05,471.8 2057.35,468.35 2050.55,467.277C2014.3,461.557 1978.65,452.5 1942.06,448.361C1976.5,442.812 2014.06,425.9 2049.66,421.698C2081.16,417.979 2159.11,418.571 2182.78,440.266C2198.5,454.678 2218.43,520.036 2226.17,542.249C2228.6,549.415 2232.85,559.776 2234.57,566.486C2245.97,592.101 2257.78,633.635 2266.72,661.64L2309.86,794.498C2313.46,805.88 2320.14,813.787 2321.16,825.144L2318.45,826.929C2314.01,825.022 2314.15,825.11 2310.47,821.973C2271.85,815.649 2234.12,806.475 2195.55,800.11C2185.23,798.408 2173.63,800.537 2163.56,798.892C2050.08,780.361 1929.1,790.996 1815.82,807.411C1806.73,808.727 1749.28,817.242 1744.28,820.495L1729.54,824.802C1720.18,830.134 1622.02,854.488 1609.98,856.417C1605.38,854.412 1597.63,840.055 1594.21,834.224C1567.07,787.921 1571.01,761.08 1582.66,713.321C1587.11,709.017 1594.65,688.031 1597.51,680.906Z" style="fill:rgb(98,64,45);"/>
        <path d="M2244.35,1309.43L2242.72,1309.81L2243.24,1308.9C2243.61,1309.06 2243.98,1309.24 2244.35,1309.43ZM2244.81,1309.67C2263.81,1320.02 2282.81,1368.33 2321.74,1329.49C2335.37,1315.89 2342.68,1308.59 2343.36,1288.8C2349.07,1291.73 2354.83,1297.26 2354.65,1304.11C2354.2,1321.44 2363.18,1336.83 2367.91,1353.1C2373.32,1371.67 2383.5,1400.71 2380.8,1420.34C2377.31,1445.81 2368.4,1473.01 2361.78,1498.07C2352.77,1533.32 2344.01,1568.63 2335.48,1603.99C2321.62,1591.85 2305.7,1583.87 2289.65,1574.91C2293.5,1561.32 2296.53,1548.99 2299.69,1535.22C2303.23,1504.22 2285.51,1469.18 2274.35,1439.93C2262.73,1409.59 2251.6,1379.07 2240.99,1348.37C2238.06,1340.03 2230.86,1322.91 2231.3,1315.19C2235.56,1317.68 2235.36,1317.98 2240.19,1318.27C2241.55,1314.84 2242.77,1312.61 2244.81,1309.67ZM2244.81,1309.67C2244.66,1309.58 2244.51,1309.5 2244.35,1309.43L2245.1,1309.25C2245,1309.39 2244.9,1309.53 2244.81,1309.67ZM3356.04,3234.89C3410.99,3297.86 3433.16,3362.29 3427.72,3446.04C3425.73,3473.01 3418.16,3512.96 3397.6,3531.87C3380.56,3545.52 3356.75,3549.94 3336.21,3556.04C3255.87,3579.88 3177.65,3604.78 3094.86,3619.51C2876.13,3658.42 2658.08,3617.12 2440.16,3596.65C2411.52,3593.93 2382.84,3591.59 2354.13,3589.63C2337.46,3588.52 2312.19,3587.75 2296.92,3585.05C2113.07,3714.32 2014.96,3667.16 1832.41,3564.38C1812.49,3553.16 1655.9,3533.35 1625.88,3533.1C1620.82,3536.52 1612.73,3543.12 1606.39,3541.82C1582.65,3536.96 1584.46,3497.66 1590.63,3480.32C1597.66,3460.58 1609.94,3448.95 1626.93,3437.24C1701.86,3430.07 1790.85,3451.36 1855.45,3420.69C1771.2,3400.15 1705.61,3395.65 1620.51,3391.88C1597.83,3300.98 1678.73,3300.08 1744.12,3301.33C1806.08,3302.51 1853.81,3295.48 1912.49,3275.68C1887.24,3271.07 1863.68,3266.84 1838.24,3263.46C1773.06,3250.14 1738.14,3258.5 1681.24,3252.15C1665.82,3241.84 1672.3,3214.06 1679.61,3200.47C1687.77,3185.36 1701.68,3174.17 1718.2,3169.45C1734.23,3164.78 1797.69,3162.98 1818.41,3162.25C1883.01,3159.99 1903.5,3154.6 1964.24,3136.88C1898.75,3122.26 1814.73,3113.69 1747.37,3112.08C1747.7,3107.15 1748.28,3102.24 1749.09,3097.37C1761.2,3026.46 1820.78,3032.54 1873.97,3031.37C1942.35,3029.86 1994.45,3030.11 2061.26,3044.69C2092.51,3074.68 2122,3108 2152,3136.46C2159.1,3143.2 2195.1,3174.93 2199.13,3184.22C2234.88,3225.96 2297.71,3278.39 2344.75,3304.94C2395.15,3297.97 2456.17,3297.59 2507.8,3292.74C2564.53,3288 2620.43,3277.3 2676.02,3265.4C2843.05,3229.64 2984.99,3114.01 3163.1,3141.6C3244.21,3154.16 3290.26,3175.59 3350.82,3229.9L3356.04,3234.89ZM1519.57,1557.06C1456.77,1573.28 1382.74,1470.88 1355.79,1416.66C1324.07,1352.83 1301.27,1155.38 1433.96,1203.76C1487.25,1223.19 1533.32,1328.91 1552.16,1384.05C1562.48,1384.04 1587.51,1382.96 1596.78,1385.25C1609.92,1388.49 1628.18,1404.78 1642.67,1409.46C1646.35,1404.97 1647,1402.77 1646.83,1395.94C1645.53,1342.99 1638.26,1287.03 1650.06,1234.9C1654.24,1216.43 1677.01,1144.63 1702.82,1152.18C1738.7,1162.69 1774.37,1180.09 1810.29,1191.88C1767.21,1217.03 1756.06,1231.73 1731.46,1273.53C1776.06,1260.88 1831.63,1236.23 1880.01,1247.84C1890.95,1250.46 1915.5,1257.13 1923.52,1264.47C1920.2,1267.58 1893.81,1275.01 1885.1,1279.16C1856.82,1292.62 1835.23,1306.53 1810.7,1325.72C1821,1329.26 1834.1,1334.69 1844.57,1333.48C1858.35,1339.15 1880.18,1345.34 1894.89,1349.99L1870.57,1330.64L1891.47,1309.56C1913.5,1340.23 1926.8,1346.87 1960.84,1362.33C1977.9,1355.08 1999.44,1338.72 2009.5,1322.96C2013.11,1317.3 2010.5,1306.29 2015.24,1303.39C2021.79,1306.94 2032.31,1324.21 2033.78,1329.51C2035.81,1336.85 2025.82,1358.16 2022.57,1366.03C2030.22,1358.57 2044.79,1343.39 2053.13,1338.44C2059.12,1338.66 2058.97,1339.01 2064.51,1341.6C2073.48,1339.79 2102.14,1307.1 2111.13,1298.63C2125.54,1285.05 2140.24,1271.72 2155.28,1258.7C2214.34,1255.53 2181.64,1272.32 2189.75,1306.87C2206.53,1378.3 2233.3,1447.92 2244.87,1520.63C2243.48,1530.55 2242.64,1531.33 2237.66,1540.35C2200.15,1588.95 2168.36,1544.03 2126.2,1541.06C2108.93,1539.84 2095.25,1554.15 2071.85,1548.26C2029.48,1537.6 2050.09,1494.59 2071.56,1474.12C2078.8,1467.43 2086,1463.29 2094.44,1458.22C2026.55,1473.68 1988.16,1504.95 1947.72,1561.58L1948.49,1565.43L1953.25,1568.12C1970.87,1563.52 1987.06,1549.28 2007.93,1543.97C2009.36,1560.23 2010.08,1565.74 2014.28,1581.42C1980.92,1596.42 1930.56,1617.88 1906.02,1644.74C1846.4,1709.97 1850.75,1757.8 1743.72,1727.18C1760.64,1746.35 1782.76,1769.83 1806.87,1779.93C1912.55,1824.22 1946.78,1747.69 2034.89,1715.76C2059.14,1707.03 2102.51,1696.22 2128.68,1703.74C2166.17,1714.51 2195.88,1698.17 2229.15,1702.93C2248.82,1705.75 2284.34,1727.14 2303.91,1736.5C2292.69,1779.96 2259.21,1936.18 2240.88,1962.39C2227.8,1981.09 2201.16,1988.6 2179.82,1992.99C2151.16,1998.88 2120.04,2001.58 2090.81,2002.99C1997.53,2007.5 1948.91,1987.87 1871.98,1937.42C1822.17,1904.75 1775.6,1869.53 1728.76,1832.81C1699.08,1809.54 1668.68,1786.68 1642.5,1759.41C1618.17,1734.06 1594.69,1703.88 1581.69,1670.96C1565.11,1628.98 1563.42,1584.54 1554.2,1541L1553.82,1539.25L1553.31,1533.71C1542.1,1538.2 1539.15,1549.91 1519.57,1557.06ZM1389.09,1235.67C1352.89,1261.51 1362.72,1305.25 1373.68,1342.21C1378.51,1321.54 1382.42,1313.26 1391,1293.72C1408.76,1311.16 1421.7,1320.8 1432.4,1343.28C1412.39,1395.31 1417.58,1436.39 1462.86,1473.32C1478.32,1484.24 1482.17,1486.04 1500.39,1493.44C1468.06,1436.02 1460.04,1432.71 1489.37,1370.61C1481.07,1330.99 1436.68,1234.08 1389.09,1235.67ZM2064.8,1793.84C2098.9,1824.83 2161.34,1833.97 2203.01,1813.58C2228.22,1801.23 2238.02,1784.46 2246.19,1759.08C2190.35,1770.75 2131.91,1764.67 2071.88,1773.58C2062.97,1775.37 2053.7,1777.07 2044.88,1779.13L2064.8,1793.84ZM1903.28,2131.62C1909.03,2137.16 1929.76,2148.17 1937.31,2151.26C1994.11,2174.5 2045.56,2166.56 2100.24,2144.22C2081.07,2175.55 2080.66,2184.16 2051.74,2210.04C2022.63,2210.24 1988.29,2219.08 1959.97,2212.16C1938.84,2206.99 1786.54,2103.06 1758.92,2082.9C1728.65,2060.86 1699.14,2037.78 1670.45,2013.72C1616.51,1968.27 1528.62,1885.9 1514.28,1813.13C1511.7,1800.03 1510.8,1757.1 1510.1,1741.72C1508.66,1709.03 1506.43,1676.38 1503.42,1643.79C1524.41,1673.14 1522.34,1683 1534.87,1716.56C1549.48,1755.69 1575.16,1788.58 1603.44,1818.67C1607.66,1823.51 1613.31,1830.68 1618.17,1834.44C1672.65,1899.31 1749.89,1970.6 1807.13,2036.61L1830.56,2062.08L1840.64,2073.97L1849.34,2082.6L1852.66,2086.3C1867.04,2101.17 1885.63,2121.86 1903.28,2131.62ZM2373.17,1261.08L2375.61,1261.32C2375.94,1268.27 2371.29,1279.41 2368.87,1286.47C2362.83,1283 2355.51,1279.39 2349.25,1276.1C2342.59,1273.23 2338.77,1271.82 2332.64,1267.74L2333.84,1264.7C2336.82,1263.77 2368.66,1261.45 2373.17,1261.08Z" style="fill:rgb(213,143,72);"/>
        <path d="M2513.09,2525.71C2530.36,2527.97 2546.75,2528.72 2555.43,2526.35C2561.66,2513.74 2541,2489.08 2545.62,2472.89C2555.87,2436.92 2587.07,2398.83 2600.2,2365.35C2606.94,2356.18 2637.68,2293.59 2643.84,2280.67C2652.99,2265.74 2693.7,2185.12 2700.96,2181.27L2710.41,2180.82C2945.33,2254.89 3032.03,2591.56 3193.8,2755.28C3210.8,2772.48 3226.01,2795.07 3243.81,2812.64C3197.94,2804.78 3080.82,2819.19 3042.1,2838.27L3021.98,2846.55C3005.58,2850.95 2973.02,2867.54 2959.22,2877.3C2944.7,2883.53 2919.08,2903.21 2906.52,2913.49C2898.3,2920.23 2890.03,2930.89 2880.73,2935.15L2877.93,2933.14C2876.25,2922.38 2883.9,2887.57 2885.08,2872.44L2885.24,2870.23C2885.45,2870.49 2885.44,2870.39 2885.27,2870C2887.16,2856.31 2889.24,2834.43 2888.1,2821.31C2891,2817.7 2889.78,2803.43 2889.58,2797.91L2890.96,2785.83C2888.73,2772.67 2888.91,2732.4 2888.31,2717.13C2886.62,2680.65 2883.41,2644.26 2878.69,2608.05L2873.8,2580.47C2864.47,2544.49 2842.57,2428.66 2825.39,2400.07C2822.96,2390.15 2821.22,2385.44 2817.41,2375.92C2816.21,2369.77 2817.2,2368.68 2813.48,2365.64C2809.58,2375.19 2810.4,2384.25 2811.75,2394.21L2811.48,2408.93C2809.05,2436.75 2811,2518.14 2812.47,2546.33L2813.26,2554.11C2810.29,2576.75 2811.95,2607.38 2811.82,2630.65C2810.8,2813.3 2782.34,2992.68 2740.13,3169.53C2662.16,3187.36 2579.7,3205.59 2500.29,3213.2C2490.88,3214.18 2481.46,3215.02 2472.02,3215.7C2456.42,3216.98 2364,3223.7 2356.51,3227.3L2353.16,3228.95C2339.78,3223.09 2291.65,3177.31 2278.03,3164.69C2270.29,3155.38 2253.51,3141.43 2243.81,3132.88L2230.44,3120.59C2228.43,3118.36 2222.32,3111.37 2222.09,3109.23C2220.83,3097.59 2210.15,3040.49 2213.23,3032.23C2231.86,2982.21 2273.95,2940.35 2293.63,2890.7L2294.94,2887.35C2310.43,2909.36 2342.51,2939.2 2362.97,2957.55C2380.34,2973.14 2395.66,2980.84 2409.4,3000.96C2416.58,2971.31 2424.9,2943.56 2433.69,2914.41C2434.18,2903.55 2447.04,2866.54 2449.35,2846.78C2452.3,2839.54 2455.53,2816.26 2456.79,2807.54C2459.39,2796.64 2461.41,2767.04 2462.2,2755.39C2462.37,2748.01 2462.05,2741.22 2461.75,2733.84C2462.07,2726.13 2461.92,2718.8 2461.81,2711.1C2461.02,2697.35 2459.87,2685.44 2458.31,2671.75C2456.58,2657.52 2453.92,2643.8 2450.7,2630.21L2513.09,2525.71ZM2422.75,2546.25C2418.04,2535.85 2412.78,2525.68 2406.63,2515.87C2402.61,2509.45 2395.03,2500.79 2394.81,2493.4C2401.02,2493.52 2418.31,2500.86 2427.28,2503.01L2429.09,2503.43C2435.21,2507.44 2439.1,2509.69 2443.41,2511.12L2422.75,2546.25ZM1233.13,2900.74L1231.24,2909.07C1223.82,2941.55 1200.63,3038.55 1174.32,3055.09C1183.21,2925.61 1175.77,2823.42 1142.16,2696.46C1135.31,2670.58 1127.69,2640.3 1117.03,2615.99C1114.4,2606.26 1111.81,2600.13 1108.02,2590.95C1107.08,2584.71 1101.34,2570.11 1098.73,2563.87C1051.05,2449.7 990.868,2354.63 884.974,2286.04C859.533,2269.56 821.332,2253.31 793.083,2241.25L820.075,2227.29C820.175,2227.69 820.281,2227.6 820.39,2227.14L831.316,2221.94L845.481,2214.39C864.433,2206.36 889.75,2192.41 908.452,2182.76C918.078,2179.15 923.199,2177.33 932.273,2172.3C988.382,2146.77 1044.1,2120.39 1099.4,2093.15C1105.03,2090.8 1109.27,2088.42 1114.6,2085.53C1128.03,2080.81 1148.52,2070.23 1161.7,2063.81C1181.36,2054.82 1237.31,2027.37 1253.82,2022.54C1257.16,2034.11 1257.02,2044.5 1261.25,2055.96C1267.87,2073.89 1283.87,2095.06 1290.93,2111.14C1297.29,2121.42 1302.33,2129.29 1307.4,2140.31C1333.9,2224.88 1350.06,2313.76 1369.53,2400.14C1371.76,2410.05 1384.99,2477.48 1388.4,2483.36L1392.67,2504.49C1395.87,2518.83 1408.88,2590.14 1419.95,2593.19C1464.33,2605.42 1572.54,2568.22 1607.31,2543.21C1614.77,2541.14 1625.22,2535.05 1632.38,2531.26C1641.84,2528.69 1662.67,2516.93 1671.71,2511.55C1683.13,2505.95 1691.07,2501.17 1701.91,2494.58C1731.03,2482.38 1755.52,2471.16 1785.54,2459.88L1787.77,2460C1786.05,2468.09 1773.05,2488.51 1768.34,2498.4C1755.59,2525.16 1738.55,2571.35 1734.07,2600.23L1732.98,2607.88C1707.48,2692.54 1746.24,2804.56 1784.85,2880.72C1786,2882.99 1787.25,2884.53 1788.79,2886.54C1792.66,2895.8 1796.41,2905.68 1801.9,2914.05L1803.33,2924.77C1803.8,2928.49 1799.97,2962.44 1800.66,2975.24C1795.5,2978.92 1794.34,2978.84 1788.32,2980.56L1769.55,2987.09C1718.04,3005.57 1688.17,3040.28 1680.62,3094.43C1675.38,3132.03 1658.2,3122.7 1634.88,3150.2C1621.57,3166.14 1615.92,3179.41 1610.07,3199.59C1604.09,3221.66 1608.18,3251.42 1597.98,3266.58C1589.99,3272.14 1573.24,3283.81 1569.19,3292.17L1569.19,3293.73C1557.18,3301.06 1551.98,3316.24 1548.92,3329.49C1547.99,3333.39 1547.31,3337.35 1546.91,3341.33C1543.85,3367.21 1548.97,3385.48 1553.86,3410.91C1527.52,3435.98 1519.08,3466.54 1517.44,3502.27C1516.92,3513.71 1520.74,3546.76 1526.85,3555.47C1534.17,3571.35 1541.31,3582.29 1555.5,3593.55C1560.01,3597.38 1563.56,3600.03 1568.28,3603.46C1564.51,3611.92 1546.22,3650.74 1544.43,3656.33C1535.84,3656.43 1524.32,3654.69 1515.75,3652.91C1430.58,3635.21 1381.2,3589.69 1333.79,3519.45C1322.95,3499.59 1314.17,3488.27 1305.23,3466.82C1292.75,3437.31 1284.66,3416.4 1275.55,3386.06C1316.16,3418.46 1367.19,3450.43 1420.41,3453.06C1440.38,3454.04 1464.99,3452.18 1485.69,3452.1C1485.9,3448.85 1456.64,3430.12 1451.09,3426.22C1360.4,3362.43 1289.19,3266.94 1240.31,3168.7C1240.51,3169.1 1249.46,3134.66 1250.23,3131.22C1258.87,3092.51 1266.95,3053.68 1274.46,3014.74C1286.31,2931.93 1272.52,2872.73 1262.56,2790.79C1260.46,2773.5 1261.25,2755.73 1258.45,2738.8C1256.7,2741.92 1236.29,2883.73 1233.13,2900.74ZM499.609,2833.62C533.368,2665.88 563.712,2460.64 685.546,2329.48C720.374,2291.99 738.743,2296.91 784.589,2311.85C877.933,2342.27 954.327,2434.57 998.78,2519.33C1000.78,2523.5 1004.65,2531.03 1006.06,2535.07C1015.85,2553.71 1021.82,2575.2 1030.89,2592.43C1034.07,2602.39 1036.9,2611.67 1040.88,2621.37C1041.87,2624.93 1044.45,2635 1045.62,2637.98C1101.43,2822.92 1128.71,2998.12 1064.64,3184.33C1041.83,3154.93 844.473,3040.88 828.427,3035.87C733.856,3006.35 562.824,2994.08 473.21,3041.08C475.367,3013.83 478.687,2985.67 481.273,2958.35C488.387,2920.5 493.772,2872.64 499.609,2833.62ZM957.405,3287.29C925.322,3266.92 827.347,3243.09 787.09,3235.74C875.133,3289.32 895.073,3297.35 959.502,3380.33C932.727,3369.25 871.255,3347.32 843.292,3347.99L841.297,3347.74C769.264,3330.52 688.023,3339.05 616.066,3350.72L583.834,3359.98C576.023,3362.63 568.017,3365.24 560.322,3368.17C494.6,3391.35 391.099,3454.23 380.839,3530.66L380.991,3534.92L374.282,3536.23C373.744,3521.32 369.221,3504.41 367.378,3488.23C368.079,3472.1 368.997,3462.33 371,3446.15C370.958,3446.23 375.403,3429.82 375.89,3428.22C383.466,3402.6 384.688,3396.89 398.236,3372.46L403.803,3361.99C417.982,3330.47 464.518,3288.87 490.607,3267.33C498.71,3261.86 515.741,3250.66 521.198,3243.39L519.867,3242.03C509.657,3241.94 499.82,3246.22 489.935,3249.56C476.278,3254.48 461.876,3259.42 448.513,3264.92L439.43,3268.48C431.391,3272.53 388.683,3295.92 384.938,3296.71C383.127,3287.88 383.263,3279.07 382.606,3269.96C374.37,3155.74 472.256,3105.15 572.48,3093.89C705.621,3078.93 849.639,3115.33 958.874,3193.78C990.055,3216.71 1045.79,3278.54 1053.68,3317.85C1057.1,3334.89 1051.09,3330.85 1061.84,3355.06L1061.33,3359.22C1051.72,3356.75 1037.78,3339.04 1028.21,3331.29C1020.32,3321.56 970.811,3289.97 957.405,3287.29ZM3478.95,3218.39C3478.79,3222.91 3478.38,3225.5 3477.7,3229.99C3473.51,3229.81 3468.04,3218.24 3464.93,3213.86C3351.41,3054.13 3145.9,3007.86 2964.87,3066.81C2941.3,3074.48 2920.5,3081.23 2898.01,3092.86C2890.84,3096.56 2874.5,3105.35 2867.44,3103.58C2851.75,3083.12 2892.66,3032.62 2907.05,3017.64L2908.44,3016.24L2939.63,2986.56L2954.88,2975.73C2990.66,2947.13 3032.4,2927.07 3075.96,2913.85L3088.37,2910.32C3152.67,2893.09 3271.4,2886.01 3332.59,2920.52C3373.56,2943.62 3398.65,2983.49 3410.52,3028.5C3382.65,3003.99 3360.74,2997.46 3324.68,2990.93C3314.59,2989.1 3306.52,2985.35 3295.95,2986.49C3299.49,2991.92 3328.51,3005.35 3335.97,3010.78C3414.59,3068.08 3462.69,3117.3 3478.08,3215.32L3478.95,3218.39ZM1423.67,2311.95C1422.76,2297.41 1413.69,2261.76 1417.49,2249.15C1424.55,2248.78 1460.24,2273.92 1468.23,2279.14C1475.15,2283.95 1480.64,2287.81 1487.92,2292C1537.99,2319.14 1584.19,2346.46 1637.45,2367.86C1646.09,2371.33 1706.26,2394.89 1709.45,2397.7L1709.26,2400.44C1705.52,2402.23 1702.35,2403.63 1698.52,2405.2C1690.5,2409.32 1668.3,2420.15 1661.98,2424.65C1630.23,2441.83 1506.14,2517.56 1475.34,2517.24C1466.47,2509.43 1458.02,2456.73 1452.58,2443.06C1443.17,2419.39 1442.58,2388.24 1434.55,2364.72C1432.16,2347.88 1427.73,2328.47 1423.67,2311.95ZM2357.91,2388.55C2323.13,2368.16 2302.83,2359.44 2267.41,2335.29C2304.67,2301.95 2340.99,2268.36 2354.63,2218.59C2389.46,2255.49 2422.17,2323.63 2442.12,2370.36C2448.49,2385.29 2459.45,2414.72 2466.23,2427.61C2470.86,2436.87 2472.02,2435.31 2470.37,2443.22C2461.97,2439.81 2436.41,2437.31 2427.11,2431.92C2407.31,2420.43 2394.97,2409.35 2373.84,2398.52L2370.29,2396.72C2365.41,2392.45 2363.51,2391.77 2357.91,2388.55ZM2036.08,2784.97C2043.34,2755.7 2052.66,2729.62 2061.2,2700.86C2067.7,2678.96 2065.13,2662.12 2074.05,2639.46C2079.84,2647.41 2085.86,2655.19 2092.1,2662.79L2099.36,2670.04C2140.4,2719.91 2130.86,2698.91 2101.5,2754.27C2095.46,2762.62 2091.56,2768.65 2086.22,2777.42C2079.56,2789.14 2054.97,2828.08 2044.23,2833.16C2041.42,2828.48 2038.42,2805.96 2037,2798.54C2035.11,2792.08 2034.36,2791.55 2036.08,2784.97ZM1945.65,2925.95C1952.56,2912.21 1967.41,2881.02 1977.6,2871.67L1981.63,2872.58L1981.87,2873.4L1982.02,2875.18C1985.53,2913.3 1988.65,2922.64 1988.4,2964.81C1972.63,2964.23 1936.68,2966.55 1927.18,2958.07L1927.21,2955.94C1932.29,2945.41 1939.16,2935.7 1945.65,2925.95ZM2402.77,2095.32C2416.07,2097.74 2421.34,2097.8 2434.67,2096.25C2449.82,2106.02 2463.19,2112.89 2480.88,2117.05C2473.44,2131.78 2461.6,2148.62 2452.49,2162.99C2445.39,2175.49 2439.58,2186.29 2430.91,2197.8C2405.67,2139.37 2412.77,2152 2402.77,2095.32Z" style="fill:rgb(138,53,5);" data-color="color-1"/>
        <path d="M2477.67,2250.23C2485.17,2239.26 2491.43,2224.19 2500.15,2211.46L2510.93,2192.16L2516.41,2182.36C2523.73,2168.34 2530.43,2154.9 2539.25,2141.73C2543.2,2132.37 2564.01,2095.92 2569.9,2084.53C2571.12,2083.31 2577.86,2070.08 2579.12,2067.68C2602.87,2026.32 2625.33,1981.91 2648.43,1939.83C2706.13,1836.28 2762.25,1731.85 2816.78,1626.58C2861.67,1624.09 2883.35,1624.34 2904.35,1667.6C2849.97,1764.21 2796.55,1861.35 2744.08,1959.01L2702.12,2036.97C2697.78,2045.12 2686.48,2067.62 2681.48,2074.22C2677.6,2082.63 2675.38,2088.03 2670,2095.78L2670.18,2097.58L2662.12,2110.73C2659.74,2115.14 2654.07,2126.39 2651.63,2130.05C2644.12,2144.89 2637.52,2158.14 2628.8,2172.38C2622.31,2188.48 2613.75,2200.55 2607.46,2214.72L2604.13,2219.93C2590.88,2247.03 2575.89,2274.16 2561.68,2300.82C2557.62,2308.46 2545.47,2332.44 2541,2338.5C2531.79,2356.83 2522.34,2375.03 2512.66,2393.11C2507.79,2381.04 2501.46,2366.5 2497.23,2354.43C2489.65,2339.63 2479.23,2310.38 2472.56,2293.87C2472.1,2292.14 2470.15,2288.31 2469.31,2286.51L2466.02,2274.54C2468.64,2267.13 2473.98,2257.45 2477.67,2250.23ZM2085.41,2985.25C2075.62,2980.43 2068.46,2977.27 2058.4,2973.2C2069.64,2956.59 2077.74,2938.24 2089.03,2921.91C2111.4,2873.11 2152,2813.33 2175.95,2761.36C2199.16,2792.58 2223.03,2812.56 2247.42,2840.86C2215.17,2897.01 2176.48,2968.45 2140.82,3020.89C2135.07,3017.04 2086.82,2986.97 2085.41,2985.25ZM1664.03,3777.49C1657.59,3786.96 1649.99,3793.97 1638.71,3797.04C1625.74,3800.57 1610.34,3797.69 1599.02,3790.64C1588.8,3784.27 1581.17,3774.34 1578.77,3762.45C1572.18,3729.86 1640.29,3620.89 1659.64,3591.1C1680.33,3600.07 1702.94,3605.51 1723.69,3614.33L1750.89,3623.78C1742.1,3640.14 1730.24,3666.4 1721,3680.75C1712.09,3699.02 1703.56,3714.07 1693.46,3731.7C1685.15,3747.87 1675.29,3763.21 1664.03,3777.49ZM2398.34,2503.41C2396.38,2500.03 2394.91,2496.6 2394.81,2493.4C2396.25,2493.43 2398.29,2493.85 2400.68,2494.5C2408.6,2496.65 2420.39,2501.36 2427.28,2503.01L2429.09,2503.43C2435.21,2507.44 2439.1,2509.69 2443.41,2511.12L2422.75,2546.25C2418.04,2535.85 2412.78,2525.68 2406.63,2515.87C2404.35,2512.23 2400.92,2507.86 2398.34,2503.41Z" style="fill:rgb(186,192,118);" data-color="color-2"/>
    </g>
</svg>
