<svg width="100%" height="100%" viewBox="0 0 703 834" version="1.1" xmlns="http://www.w3.org/2000/svg" xmlns:xlink="http://www.w3.org/1999/xlink" xml:space="preserve" xmlns:serif="http://www.serif.com/" style="fill-rule:evenodd;clip-rule:evenodd;stroke-linejoin:round;stroke-miterlimit:2;">
    <g transform="matrix(1,0,0,1,-156.798,-91.645)">
        <path d="M718.656,91.764L726.93,91.645C739.146,105.324 753.927,119.472 766.9,132.722C797.241,163.686 827.771,194.466 858.487,225.058C859.328,250.795 858.987,277.386 858.988,303.213L858.978,423.01C833.226,423.163 807.474,422.965 781.728,422.417L858.639,498.373C859.669,531.926 859.395,567.22 859.373,600.87L859.374,774.168C852.869,781.517 842.612,791.28 835.543,798.441L785.985,848.439L734.873,899.944C727.282,907.616 717.89,918.075 710.227,925.057L312.916,925.088L300.419,912.465C254.007,863.134 203.845,815.337 156.983,766.157L156.989,572.422L243.814,572.52C224.684,553.378 205.76,534.03 187.046,514.479C177.126,504.319 166.77,494.372 156.986,484.161C156.573,455.589 156.969,425.875 156.969,397.184L156.99,232.444C178.185,209.045 204.618,184.552 226.764,161.624L272.031,115.453C277.493,109.89 290.294,96.14 295.423,91.962C436.5,92.609 577.58,92.544 718.656,91.764ZM438.385,633.092L579.534,633.021L579.565,667.511L438.414,667.981L438.385,633.092ZM438.515,354.253L579.515,354.084C579.534,360.762 579.982,379.718 579.359,385.523L578.542,386.005L435.355,386.069C435.352,381.929 434.689,355.921 436.002,354.399L438.515,354.253Z" style="fill:rgb(0,112,43);" data-color="color-2"/>
        <path d="M685.186,129.759L708.48,129.485C718.286,138.073 730.97,151.476 740.663,160.874C767.567,186.982 794.14,213.43 820.377,240.209C819.428,287.624 819.786,338.854 820.274,386.337C810.968,385.936 800.077,386.129 790.674,386.099L738.604,385.957C697.396,385.635 656.187,385.629 614.979,385.937C614.706,366.232 614.54,346.525 614.48,326.818L605.107,317.52L410.757,317.538C407.174,321.111 403.976,324.261 400.682,328.128C400.476,353.423 400.448,378.72 400.598,404.016C406.399,409.651 413.502,416.529 419.566,421.679L731.646,422.047C760.909,452.367 790.479,482.388 820.351,512.107L820.461,672.569C820.495,700.148 819.668,733.835 820.87,761.004C792.438,788.549 764.25,816.345 736.31,844.389C724.251,856.442 706.71,875.003 694.268,885.974L453.93,885.972L374.561,885.986C360.321,885.998 342.488,885.602 328.556,886.441C324.747,883.076 319.854,877.952 316.155,874.264C275.375,834.6 235.634,792.415 195.185,752.08L195.391,610.989L402.357,610.583C402.357,634.326 402.543,658.069 402.914,681.809C411.31,689.544 419.489,698.171 427.841,705.625C482.145,705.419 536.488,706.528 590.889,705.68C597.876,699.606 608.083,688.959 614.992,682.167C614.935,656.018 615.47,629.467 615.652,603.266C612.796,600.286 609.856,597.388 606.838,594.573C573.064,595.756 535.148,594.966 501.133,594.963L319.821,594.975C314.844,590.941 309.365,585.156 304.752,580.54L281.349,557.182L195.124,471.416C195.616,440.286 195.392,408.331 195.432,377.152L195.623,245.125C199.66,240.622 206.359,234.389 210.779,230.036C221.697,219.448 232.539,208.782 243.304,198.039C258.064,183.12 272.907,168.282 287.832,153.527C295.123,146.275 304.126,136.773 311.651,130.137C356.411,131.785 405.523,130.994 450.565,131.005L685.186,129.759Z" style="fill:rgb(253,241,226);fill-rule:nonzero;" data-color="color-3"/>
        <path d="M668.051,151.728C678.666,151.549 689.282,151.464 699.898,151.474C733.262,183.703 766.19,216.38 798.674,249.495L798.407,364.608L636.091,364.302C635.976,348.964 636.292,333.209 636.442,317.846C629.266,310.508 621.381,302.968 613.996,295.825L400.648,295.975C395.184,300.641 383.496,312.812 378.602,318.212C378.244,349.527 378.068,380.844 378.072,412.161C389.221,422.725 399.126,434.009 411.07,443.904C426.283,444.078 442.145,443.815 457.484,443.879L721.745,443.502C729.531,450.782 739.238,461.487 746.939,469.324C764.005,486.522 781.18,503.61 798.464,520.589L799.001,750.975C786.778,763.995 770.534,779.251 757.602,792.094L685.2,864.075C647.267,864.858 607.82,864.355 569.821,864.355L337.195,863.946L329.009,855.983C291.346,819.022 254.018,781.721 217.031,744.084L217.05,632.454C271.531,632.661 326.012,632.577 380.492,632.2C380.413,651.77 380.579,671.34 380.991,690.905C390.598,701.492 408.513,717.667 419.273,727.961C479.539,728.193 539.806,728.062 600.071,727.568C612.398,715.734 624.657,703.829 636.847,691.853L637.157,594.528C632.962,589.15 621.082,577.469 615.871,572.46C578.16,573.413 539.132,572.962 501.314,572.942C443.825,572.789 386.335,572.972 328.847,573.489C291.224,538.28 253.954,499.467 217.111,463.124L217.199,335.002C217.367,308.566 218.029,281.309 217.724,254.972C226.043,245.53 239.789,232.962 249.167,223.552L320.241,152.542C407.818,151.963 495.397,151.828 582.975,152.135C610.813,152.009 640.403,152.578 668.051,151.728ZM648.569,214.734C656.456,214.469 664.778,214.512 672.7,214.43C679.178,220.718 685.418,227.801 692.084,234.21C705.265,246.883 718.019,258.943 730.008,272.788L730.02,319.042L708.442,318.985C708.323,306.683 708.307,294.381 708.395,282.079C698.419,271.706 688.333,261.439 678.138,251.28C674.406,247.549 666.489,239.276 662.704,236.417C561.442,237.188 460.176,237.183 358.915,236.402C343.104,252.472 323.978,270.249 309.069,286.538C309.427,301.654 309.064,318.107 309.022,333.366L308.507,438.838C325.345,458.467 351.816,482.01 370.708,501.151L673.604,501.006C687.743,513.824 700.882,528.444 714.541,541.819C719.736,546.906 725.221,552.402 730.083,557.759C729.665,615.811 730.398,674.514 729.605,732.39C706.744,755.372 681.729,780.761 658.232,802.984L362.016,803.019L354.893,797.038C345.152,788.316 336.061,778.685 326.553,769.657C313.037,756.822 300.181,743.118 287.07,729.84C287.349,712.45 287.042,694.747 287.155,677.297C294.35,677.21 301.809,677.36 309.025,677.411L309.036,720.774C320.86,733.754 334.332,745.969 346.529,758.667C353.778,766.214 361.55,773.862 369.163,781.05L650.161,780.969C669.506,762.121 689.101,741.536 708.008,722.192L707.979,566.388C693.823,551.568 679.458,536.949 664.887,522.537L362.651,523C352.461,514.352 341.158,501.982 331.535,492.524C316.491,477.739 300.612,462.882 286.503,447.298L287.008,335.269C287.023,316.282 287.252,296.678 286.645,277.737C292.776,270.34 302.768,261.017 309.646,254.034C322.639,240.841 335.936,227.61 349.495,215L552.651,214.989C584.263,214.987 617.014,215.383 648.569,214.734Z" style="fill:rgb(0,87,163);" data-color="color-1"/>
    </g>
</svg>
