<?xml version="1.0" encoding="UTF-8" standalone="no"?>
<!DOCTYPE svg PUBLIC "-//W3C//DTD SVG 1.1//EN" "http://www.w3.org/Graphics/SVG/1.1/DTD/svg11.dtd">
<svg width="100%" height="100%" viewBox="0 0 601 823" version="1.1" xmlns="http://www.w3.org/2000/svg" xmlns:xlink="http://www.w3.org/1999/xlink" xml:space="preserve" xmlns:serif="http://www.serif.com/" style="fill-rule:evenodd;clip-rule:evenodd;stroke-linejoin:round;stroke-miterlimit:2;">
    <g transform="matrix(1,0,0,1,-212.228,-97.383)">
        <path d="M212.405,199.941C235.276,176.139 258.458,152.637 281.943,129.441L301.623,109.645C305.001,106.247 310.033,100.891 313.556,98.051C321.315,97.107 332.786,97.441 340.846,97.438L385.203,97.43L533.601,97.442L647.719,97.447L679.236,97.453C683.917,97.455 691.406,97.273 695.877,97.804C701.291,98.763 706.35,101.265 711.542,102.988C745.283,114.184 778.693,126.863 812.505,137.81C812.578,202.357 811.842,267.628 812.535,332.096C808.593,334.492 804.821,336.178 800.614,338.038C799.343,338.659 796.289,340.032 795.321,340.806C791.089,342.504 786.84,344.809 782.766,346.903L778.792,348.788C710.834,381.73 643.563,416.069 577.021,451.785C576.068,438.743 576.467,422.628 576.461,409.389L576.471,341.059L486.641,341.038C486.012,353.92 486.542,371.583 486.546,384.779L486.572,469.859L486.547,698.398C512.105,699.007 551.464,698.645 577.073,698.321C576.999,686.881 577.244,675.292 576.824,663.872C565.352,664.181 524.032,664.015 512.496,664.033L512.565,529.488C512.572,505.817 512.267,481.475 512.719,457.878C537.223,458.16 591.082,457.92 615.622,457.987L812.517,458.111L812.678,920.051L478.833,920.032C430.855,920.032 381.201,920.698 333.331,919.912C328.797,916.409 322.683,910.08 318.446,905.927L293.128,880.935C266.13,854.47 239.268,827.868 212.542,801.13C211.927,775.824 212.406,748.442 212.393,723.018L212.376,571.34L212.405,199.941ZM783.638,486.525L783.662,890.921L343.078,890.953C321.935,872.135 297.369,845.846 276.762,825.458L254.334,803.479C251.157,800.37 243.129,792.788 240.9,789.431C240.452,765.279 240.877,739.713 240.885,715.456L240.901,572.552L240.962,212.9C245.309,207.868 252.958,200.647 257.799,195.791L288.995,164.502C290.378,163.126 291.878,161.606 293.464,159.984C303.478,149.743 316.901,135.463 325.695,128.014C329.003,127.947 332.338,127.894 335.696,127.854C361.18,127.551 387.924,127.962 413.208,127.964L581.622,127.954L660.367,127.988C669.147,127.996 685.969,127.517 694.005,128.291C697.775,128.653 717.284,135.746 722.573,137.533L783.583,158.207C783.805,209.691 783.089,261.725 783.743,313.144C773.304,318.996 758.578,325.62 747.527,331.027C731.255,339.14 715.032,347.35 698.859,355.657C668.086,371.354 635.595,389.925 604.934,404.743C605.313,373.834 605.035,342.435 604.992,311.502L465.982,311.482C464.372,316.535 458.847,336.351 458.618,340.537C457.857,354.457 458.184,370.962 458.176,385.063L458.184,467.651L458.115,727.205C459.035,727.193 459.959,727.181 460.886,727.169C471.438,727.037 482.041,726.963 492.673,726.926L492.589,726.931C530.039,726.798 570.493,727.079 605.226,727.052C604.72,696.819 605.177,665.701 605.084,635.373C593.044,635.278 552.005,635.263 539.965,635.328L540.036,486.491L585.25,486.514L783.638,486.525Z" style="fill:white;"/>
        <path d="M269.562,225.873C278.139,215.865 290.933,203.89 300.349,194.379C313.007,181.592 325.929,167.806 340.25,157.027C347.689,156.651 357.478,156.941 365.135,156.934L413.859,156.933L562.03,156.914L644.5,156.832C649.444,156.82 682.765,156.26 685.298,157.183C706.469,164.893 729.82,171.423 750.653,179.7C758.96,190.629 742.795,197.468 735.367,203.04C724.338,211.317 713.409,219.726 702.582,228.265C693.691,235.355 685.155,243.403 676.186,250.566C665.303,259.256 655.416,269.801 644.984,279.051C643.517,280.351 641.55,282.146 639.537,282.536C633.459,283.251 626.616,283.021 620.541,283.025L586.528,283.031L518.435,282.968C507.359,282.918 493.932,283.204 483.065,282.547C486.127,276.857 491.872,270.815 496.241,265.745C515.156,243.75 535.647,223.161 557.551,204.142C563.713,198.859 571.954,193.551 578.62,188.174C578.196,187.786 578.512,188.033 577.532,187.661C564.648,194.126 553.308,201.942 541.023,209.405C533.774,213.809 526.2,217.821 519.072,222.408C459.306,261.198 405.092,307.934 357.92,361.332C345.252,375.583 335.933,385.76 324.315,401.231C311.391,418.499 299.284,436.365 288.036,454.769C285.289,459.22 274.522,480.541 270.939,481.252C270.099,480.359 269.93,479.946 269.925,478.486C269.886,467.402 269.88,456.174 269.87,445.107L269.808,375.26L269.563,277.987C269.519,261.063 269.13,242.703 269.562,225.873ZM738.084,863.218C691.957,863.46 645.83,863.397 599.704,863.028C600.36,838.916 598.743,815.213 603.278,791.411C605.307,780.767 606.052,763.983 611.034,754.597C614.934,754.549 623.175,754.408 627.046,754.479L626.847,721.768C626.796,716.386 626.201,706.691 627.277,701.883C628.307,697.282 628.707,690.138 630.484,685.375C644.596,647.549 667.012,613.547 691.805,581.912C700.976,570.21 711.26,557.201 721.801,546.425L722.759,545.362C726.104,540.851 729.783,537.631 733.305,533.486C739.653,526.016 745.173,520.245 752.727,514.005L755.592,517.532L755.868,577.378C755.943,592.823 756.97,605.725 753.151,620.775C746.262,647.917 741.961,676.537 740.093,704.442C739.737,709.768 740.183,715.559 739.836,720.933C737.961,737.238 738.373,753.21 738.22,769.611L738.084,863.218ZM308.381,807.369C306.476,788.873 309.009,764.585 308.254,745.486C309.751,734.335 309.073,725.08 309.613,713.846C314.053,621.587 342.817,526.461 379.74,442.487C388.228,423.184 419.153,361.205 429.924,350.783C430.967,351.08 430.696,351.078 431.615,351.89C432.627,354.642 432.08,384.139 432.078,389.275L432.036,464.048L432.002,513.326C431.983,530.713 432.969,542.674 427.64,559.44C425.263,566.917 422.912,578.309 421.381,586.121C417.74,604.706 417.903,624.027 417.735,642.866C417.547,673.121 415.539,702.504 423.19,732.153C425.216,740.003 426.936,748.155 431.529,754.94C440.549,755.71 451.446,755.396 460.589,755.38L506.811,755.375C515.76,755.387 525.768,755.173 534.607,755.674C532.87,763.048 527.531,776.081 525.011,783.991L506.544,843C505.158,847.45 502.281,859.636 500.194,862.902C496.075,864.488 437.673,863.564 428.625,863.612L367.045,863.505C360.279,858.38 348.957,847.033 342.443,840.805C333.057,831.831 315.948,817.23 308.381,807.369ZM569.061,514.49C576.049,515.132 611.565,514.781 618.915,514.806L677.779,514.913C680.516,514.919 682.232,514.716 684.136,516.618C684.174,519.221 671.102,534.306 668.558,537.777C660.408,548.896 652.1,559.897 644.105,571.142C640.445,576.291 620.289,608.573 617.575,609.5C614.309,610.615 570.863,610.344 568.173,608.887C567.135,606.616 567.418,591.496 567.409,587.682L567.313,554.904L567.183,529.903C567.167,525.872 567.096,521.562 567.278,517.526C567.343,516.073 568.054,515.676 569.061,514.49Z" style="fill:rgb(255,111,31);"/>
        <path d="M783.638,486.525L783.662,890.921L343.078,890.953C321.935,872.135 297.369,845.846 276.762,825.458L254.334,803.479C251.157,800.37 243.129,792.788 240.9,789.431C240.452,765.279 240.877,739.713 240.885,715.456L240.901,572.552L240.962,212.9C245.309,207.868 252.958,200.647 257.799,195.791L288.995,164.502C290.378,163.126 291.878,161.606 293.464,159.984C303.478,149.743 316.901,135.463 325.695,128.014C329.003,127.947 332.338,127.894 335.696,127.854C361.18,127.551 387.924,127.962 413.208,127.964L581.622,127.954L660.367,127.988C669.147,127.996 685.969,127.517 694.005,128.291C697.775,128.653 717.284,135.746 722.573,137.533L783.583,158.207C783.805,209.691 783.089,261.725 783.743,313.144C773.304,318.996 758.578,325.62 747.527,331.027C731.255,339.14 715.032,347.35 698.859,355.657C668.086,371.354 635.595,389.925 604.934,404.743C605.313,373.834 605.035,342.435 604.992,311.502L465.982,311.482C464.372,316.535 458.847,336.351 458.618,340.537C457.857,354.457 458.184,370.962 458.176,385.063L458.184,467.651L458.115,727.205C459.035,727.193 459.959,727.181 460.886,727.169C471.056,727.043 481.696,726.969 492.589,726.931C530.039,726.798 570.493,727.079 605.226,727.052C604.72,696.819 605.177,665.701 605.084,635.373C593.044,635.278 552.005,635.263 539.965,635.328L540.036,486.491L585.25,486.514L783.638,486.525ZM269.562,225.873C269.13,242.703 269.519,261.063 269.563,277.987L269.808,375.26L269.87,445.107C269.88,456.174 269.886,467.402 269.925,478.486C269.93,479.946 270.099,480.359 270.939,481.252C274.522,480.541 285.289,459.22 288.036,454.769C299.284,436.365 311.391,418.499 324.315,401.231C335.933,385.76 345.252,375.583 357.92,361.332C405.092,307.934 459.306,261.198 519.072,222.408C526.2,217.821 533.774,213.809 541.023,209.405C553.308,201.942 564.648,194.126 577.532,187.661C578.512,188.033 578.196,187.786 578.62,188.174C571.954,193.551 563.713,198.859 557.551,204.142C535.647,223.161 515.156,243.75 496.241,265.745C491.872,270.815 486.127,276.857 483.065,282.547C493.932,283.204 507.359,282.918 518.435,282.968L586.528,283.031L620.541,283.025C626.616,283.021 633.459,283.251 639.537,282.536C641.55,282.146 643.517,280.351 644.984,279.051C655.416,269.801 665.303,259.256 676.186,250.566C685.155,243.403 693.691,235.355 702.582,228.265C713.409,219.726 724.338,211.317 735.367,203.04C742.795,197.468 758.96,190.629 750.653,179.7C729.82,171.423 706.469,164.893 685.298,157.183C682.765,156.26 649.444,156.82 644.5,156.832L562.03,156.914L413.859,156.933L365.135,156.934C357.478,156.941 347.689,156.651 340.25,157.027C325.929,167.806 313.007,181.592 300.349,194.379C290.933,203.89 278.139,215.865 269.562,225.873ZM569.061,514.49C568.054,515.676 567.343,516.073 567.278,517.526C567.096,521.562 567.167,525.872 567.183,529.903L567.313,554.904L567.409,587.682C567.418,591.496 567.135,606.616 568.173,608.887C570.863,610.344 614.309,610.615 617.575,609.5C620.289,608.573 640.445,576.291 644.105,571.142C652.1,559.897 660.408,548.896 668.558,537.777C671.102,534.306 684.174,519.221 684.136,516.618C682.232,514.716 680.516,514.919 677.779,514.913L618.915,514.806C611.565,514.781 576.049,515.132 569.061,514.49ZM308.381,807.369C315.948,817.23 333.057,831.831 342.443,840.805C348.957,847.033 360.279,858.38 367.045,863.505L428.625,863.612C437.673,863.564 496.075,864.488 500.194,862.902C502.281,859.636 505.158,847.45 506.544,843L525.011,783.991C527.531,776.081 532.87,763.048 534.607,755.674C525.768,755.173 515.76,755.387 506.811,755.375L460.589,755.38C451.446,755.396 440.549,755.71 431.529,754.94C426.936,748.155 425.216,740.003 423.19,732.153C415.539,702.504 417.547,673.121 417.735,642.866C417.903,624.027 417.74,604.706 421.381,586.121C422.912,578.309 425.263,566.917 427.64,559.44C432.969,542.674 431.983,530.713 432.002,513.326L432.036,464.048L432.078,389.275C432.08,384.139 432.627,354.642 431.615,351.89C430.696,351.078 430.967,351.08 429.924,350.783C419.153,361.205 388.228,423.184 379.74,442.487C342.817,526.461 314.053,621.587 309.613,713.846C309.073,725.08 309.751,734.335 308.254,745.486C309.009,764.585 306.476,788.873 308.381,807.369ZM738.084,863.218L738.22,769.611C738.373,753.21 737.961,737.238 739.836,720.933C740.183,715.559 739.737,709.768 740.093,704.442C741.961,676.537 746.262,647.917 753.151,620.775C756.97,605.725 755.943,592.823 755.868,577.378L755.592,517.532L752.727,514.005C745.173,520.245 739.653,526.016 733.305,533.486C729.783,537.631 726.104,540.851 722.759,545.362L721.801,546.425C711.26,557.201 700.976,570.21 691.805,581.912C667.012,613.547 644.596,647.549 630.484,685.375C628.707,690.138 628.307,697.282 627.277,701.883C626.201,706.691 626.796,716.386 626.847,721.768L627.046,754.479C623.175,754.408 614.934,754.549 611.034,754.597C606.052,763.983 605.307,780.767 603.278,791.411C598.743,815.213 600.36,838.916 599.704,863.028C645.83,863.397 691.957,863.46 738.084,863.218Z" style="fill:rgb(11,27,37);"/>
    </g>
</svg>
