<?xml version="1.0" encoding="UTF-8" standalone="no"?>
<!DOCTYPE svg PUBLIC "-//W3C//DTD SVG 1.1//EN" "http://www.w3.org/Graphics/SVG/1.1/DTD/svg11.dtd">
<svg width="100%" height="100%" viewBox="0 0 833 903" version="1.1" xmlns="http://www.w3.org/2000/svg" xmlns:xlink="http://www.w3.org/1999/xlink" xml:space="preserve" xmlns:serif="http://www.serif.com/" style="fill-rule:evenodd;clip-rule:evenodd;stroke-linejoin:round;stroke-miterlimit:2;">
    <g transform="matrix(1,0,0,1,-95.1238,-58.185)">
        <path d="M200.684,58.185C205.629,60.221 210.481,63.972 215.178,66.647C222.519,70.829 230.24,74.593 237.949,78.04C255.131,85.724 272.796,92.133 290.158,99.365C309.623,107.473 328.845,116.409 347.929,125.368C359.36,121.494 370.31,116.512 381.547,112.138C402.091,104.141 424.144,98.885 445.842,95.168C526.64,81.328 601.98,92.832 676.81,125.664C698.295,114.035 720.535,103.851 743.375,95.179C761.64,88.127 780.895,82.694 798.555,74.216C807.025,70.15 814.945,65.09 822.845,60.028C838.105,88.58 847.245,122.587 847.095,155.036C846.88,202.698 827.83,243.719 794.25,277.037C810.17,291.881 826.42,306.209 840.38,323.02C855.165,340.824 869.205,360.135 880.575,380.323C914.97,441.397 932.575,514.71 926.12,584.71C914.935,572.615 904.54,559.955 892.765,548.41C895,570.375 894.21,593.42 891.35,615.295C885.55,659.665 867.79,719.7 839.96,755.345C834.93,737.67 828.185,720.5 822.975,702.855C816.765,725.235 808.175,747.965 797.715,768.695C779.44,804.925 747.96,848.465 715.06,872.795C721.935,843.455 724.01,821.935 720.465,791.75C719.925,788.095 719.25,784.565 718.325,780.985C717.135,783.715 715.92,786.435 714.665,789.135C707.815,803.94 698.705,816.65 688.78,829.51C645.12,886.11 579.485,935.82 512.165,960.575C433.82,932.12 371.691,881.94 323.818,813.95C316.682,803.815 310.847,792.92 304.216,782.46C299.647,812.92 301.825,846.345 310.816,875.805C269.221,840.185 233.89,793.09 213.612,742.07C208.104,728.215 204.189,713.79 200.139,699.455C191.069,717.46 186.074,740.5 186.47,760.675C180.246,751.065 173.9,741.395 168.668,731.205C140.954,677.2 124.784,606.65 131.632,545.97C119.183,558.475 108.034,572.295 96.831,585.905C95.155,568.86 94.596,552.115 95.684,535C101.215,458.853 130.351,386.323 179.036,327.51C194.389,309.034 211.741,292.442 229.756,276.621C224.948,271.288 219.768,266.301 215.12,260.817C201.849,244.888 191.797,226.535 185.521,206.775C170.301,158.754 177.831,102.606 200.684,58.185Z" style="fill-rule:nonzero;"/>
        <path d="M695.64,196.218C700.745,201.31 705.685,206.412 710.075,212.156C725.775,232.693 739.35,261.741 748.745,285.658C752.56,295.385 755.795,305.335 759.545,315.088C763.945,326.53 769.645,337.621 773.265,349.339C792.215,399.413 795.85,452.743 773.44,502.295C758.8,534.68 736.49,559.385 709.79,582.295C700.5,590.27 690.7,598.475 680.175,604.775C684.68,587.125 686.995,574.26 683.51,556.05C681.51,548.465 679.38,540.915 677.495,533.3C681.22,530.02 685.125,526.925 688.725,523.51C703.57,509.43 711.35,494.108 711.915,473.613C699.7,491.19 682.17,500.5 663.59,509.82C650.715,496.471 634.205,488.856 616.66,483.738C613.155,482.716 609.17,481.179 605.525,481.089L600.5,479.988C600.3,488.666 600.855,498.137 599.575,506.685C592.405,484.084 580.83,463.127 565.51,445.027C574.825,469.678 582.905,496.924 578.17,523.525C558.395,515.675 544.75,520.905 525.885,528.44C521.475,530.2 516.985,532.43 512.34,533.44L511.635,533.27C506.78,532.08 502.12,530.005 497.498,528.12C478.433,520.355 465.478,514.965 445.813,523.925C441.5,507.11 445.241,484.618 449.893,468.057C452.189,459.88 455.196,451.991 457.872,443.942C444.15,462.003 426.818,487.993 423.801,510.795C423.2,506.78 421.623,481.503 420.939,480.178L419.217,480.149C414.467,480.33 409.412,482.157 404.965,483.75C387.236,490.101 373.454,498.946 360.544,512.77C340.125,498.686 324.119,485.617 310.04,464.659C310.763,469.647 311.39,474.709 312.707,479.582C318.391,500.61 331.676,520.435 347.679,534.945C344.619,542.295 341.41,549.56 339.588,557.335C337.095,574.665 340.58,588.77 345.729,605.18C305.625,581.11 271.682,545.915 251.853,503.3C236.117,469.486 231.259,437.798 235.941,400.923C236.886,393.482 237.818,384.94 240.386,377.888C242.331,364.776 247.936,351.373 252.189,338.847C254.272,327.742 260.567,316.056 265.155,305.768C279.671,273.21 295.047,239.369 316.92,210.982C320.628,206.17 324.911,201.867 328.914,197.306C303.479,182.675 273.043,169.9 245.087,161.245C242.182,190.216 249.857,220.312 264.859,245.006L271.613,253.333C252.673,246.392 239.554,232.417 230.029,214.911C213.271,184.375 209.326,148.434 219.062,114.991C251.635,124.217 329.674,151.763 350.728,176.559C357.44,169.765 367.118,165.631 375.428,161.148C419.233,137.512 455.382,130.47 504.66,128.464C499.068,136.806 493.834,145.339 488.611,153.915C477.411,155.415 466.358,157.604 455.576,161.034C423.9,171.112 380.169,203.314 364.856,233.071C371.503,228.315 377.849,223.276 384.769,218.893C415.551,199.399 449.848,189.732 486.277,191.77C489.071,196.69 491.211,202.04 493.517,207.204C481.361,208.434 469.736,210.525 458.402,215.3C428.282,227.988 401.842,253.225 389.548,283.659C403.022,271.388 418.505,259.943 435.621,253.379C454.708,246.058 477.614,242.348 496.925,251.017C496.94,257.551 496.78,264.211 496.211,270.721C490.929,273.967 485.013,276.053 479.768,279.469C464.501,289.41 453.148,308.62 447.289,325.464C464.72,313.469 482.074,306.202 503.385,304.697C528.825,302.899 555.915,308.717 575.645,325.729C575.205,324.311 574.715,322.909 574.175,321.525C568.245,306.091 557.435,289.114 543.61,279.625C538.395,276.042 532.67,273.504 526.915,270.935C526.65,264.228 526.415,257.563 526.61,250.851C531.05,248.744 536.025,247.555 540.88,246.875C575.275,242.06 609.94,264.272 636.12,284.16C630.88,271.886 623.04,261.177 614.305,251.177C591.715,225.325 564.615,209.645 529.95,207.341C531.81,201.763 534.34,197.053 537.415,192.053C586.09,189.123 617.82,205.262 656.31,232.013C654.55,229.113 652.35,226.43 650.25,223.76C622.1,187.927 581.42,159.179 535.3,153.695C530.165,145.045 524.115,136.765 518.405,128.473C562.71,128.961 606.395,138.927 646.53,157.701C657.555,162.874 667.76,169.598 678.725,174.791C700.465,150.943 747.66,134.406 777.62,124.13C786.66,121.031 795.745,117.527 804.97,115.057C806.525,121.454 808.275,127.891 809.32,134.394C814.13,164.268 808.795,193.574 792.99,219.461C783.165,235.56 770.275,249.082 753.05,257.099C753.865,256.003 754.65,254.861 755.555,253.838C757.455,248.005 762.39,241.81 764.96,235.942C775.04,212.928 783.755,182.039 781.555,156.969C774.355,158.98 767.34,162.037 760.395,164.807C747.7,169.872 735.085,175.101 722.9,181.306C713.655,186.012 704.805,191.379 695.64,196.218ZM334.759,255.244C334.109,268.022 335.321,276.547 339.652,288.587C330.32,283.21 320.606,277.036 312.005,270.556C309.652,268.783 307.609,266.667 305.265,264.891C304.81,266.182 305.476,267.556 305.81,268.872C305.587,285.253 312.895,304.376 324.346,316.149C326.135,317.989 328.017,319.749 329.892,321.501C320.643,340.407 315.719,362.593 322.81,383.073C327.6,396.908 338.212,407.39 351.31,413.599C363.335,419.298 377.229,420.654 390.379,419.779C393.115,419.597 397.321,419.321 399.809,418.157C400.338,417.909 400.423,417.789 400.799,417.441C402.811,416.979 404.791,416.838 406.842,416.696C421.156,429.273 432.399,444.784 435.003,464.03C438.772,455.277 442.179,444.874 441.143,435.172L441.601,435.805C442.015,435.618 442.211,435.56 442.583,435.215C446.626,431.462 449.637,424.768 452.155,419.861C456.199,411.979 475.646,369.881 476.457,363.592C479.268,361.243 482.681,346.494 483.591,342.458C471.888,347.379 462.147,355.216 452.405,363.166C445.462,350.185 439.057,336.863 431.107,324.446C422.913,311.651 413.277,299.52 404.693,286.936C403.906,296.132 404.954,303.427 407.421,312.326C393.863,303.356 381.255,289.404 373.327,275.255C371.486,283.91 372.554,290.997 374.951,299.396C358.529,286.957 345.354,272.998 334.759,255.244ZM375.262,344.036C380.599,346.224 386.038,348.212 391.426,350.276C390.862,351.12 390.316,351.977 389.788,352.845C388.326,355.271 387.862,358.008 388.665,360.765C389.324,363.026 390.924,364.853 393.031,365.886C395.486,367.09 398.453,367.146 401.017,366.253C405.156,364.811 406.696,362.256 408.5,358.549C412.885,360.844 418.125,364.687 421.044,368.745C421.875,369.901 421.982,370.4 421.69,371.76C419.96,373.443 417.99,374.995 416.017,376.382C409.514,380.955 401.944,383.188 393.977,381.667C387.496,380.429 381.917,376.898 378.288,371.36C372.606,362.686 373.145,353.718 375.262,344.036ZM289.854,339.388C273.071,366.918 262.7,404.974 270.31,436.668C273.305,449.142 285.402,471.061 292.883,481.933C294.099,474.18 296.093,467.402 302.823,462.564C311.01,456.679 322.191,454.895 331.876,453.142C347.25,450.323 362.369,450.103 377.825,448.428C350.825,445.235 318.05,442.731 299.753,419.784C286.699,403.413 284.206,378.248 286.536,358.09C287.151,352.768 289.808,344.03 289.854,339.388ZM730.525,331.375C732.045,337.093 732.805,343.061 733.68,348.908C736.725,369.306 738.87,393.067 728.175,411.669C718.315,428.818 699.585,436.843 681.235,441.606C670.185,444.474 658.88,446.146 647.795,448.805C664.255,449.352 680.56,450.65 696.51,454.988C713.445,459.822 726.92,469.276 737.305,483.594C756.26,447.733 759.35,408.322 747.56,369.714C745.335,362.426 735.355,334.925 730.525,331.375ZM645.225,298.56C649.28,290.728 651.94,284.338 652.285,275.438C641.125,289.361 629.92,302.225 613.955,310.817C616.27,303.207 616.145,296.241 615.925,288.374C600.945,312.852 584.955,337.68 573.95,364.267C562.805,355.208 552.65,346.416 539.055,341.161C542.105,348.013 543.825,356.384 547.77,362.68C548.75,368.092 552.27,374.309 554.4,379.491C561.195,396.026 567.5,412.293 576.1,428.015C577.71,430.959 579.265,434.471 581.37,437.068C581.55,445.485 583.815,454.188 585.24,462.489C591.79,448.162 604.835,422.298 619.86,415.708C620.54,416.195 621.21,416.652 622,416.949C636.3,422.319 657.305,419.34 670.85,412.944C685.65,405.955 698.24,393.39 703.67,377.784C710.22,358.965 704.23,338.974 695.99,321.711C697.975,319.847 699.755,317.957 701.37,315.761C709.545,304.629 714.77,287.51 712.6,273.705C713.54,267.372 714.43,261.032 715.28,254.687C706.305,266.544 697.88,278.003 683.995,284.463C687.355,273.801 689.26,263.273 689.56,252.092C674.89,272.229 671.7,289.026 645.225,298.56ZM651.9,343.016C652.82,343.045 652.36,342.905 653.225,343.618C655.005,350.43 654.18,358.136 651.195,364.498C647.765,371.813 641.605,377.233 634.005,379.926C626.935,382.432 619.535,382.106 612.775,378.849C609.845,377.438 602.895,373.451 601.86,370.411C606.475,364.143 611.065,358.764 617.75,354.662C617.995,357.326 618.14,359.841 619.68,362.128C621.145,364.307 623.335,365.771 625.94,366.152C628.88,366.584 632.105,365.692 634.455,363.883C636.595,362.233 638.09,359.868 638.315,357.143C638.575,353.966 636.92,351.806 634.96,349.506C640.45,347.012 646.245,345.096 651.9,343.016ZM513.015,741.365C514.605,735.625 515.57,729.72 517.495,724.07C524.055,704.805 538.555,689.875 553.5,676.675C553.775,680.995 553.95,685.325 554.02,689.655C554.015,707.785 551.685,734.425 539.415,748.625C527.18,751.945 512.88,753.74 500.27,752.035C491.568,750.86 484.284,747.14 478.97,740.045C468.253,725.74 467.322,694.315 469.793,676.855C484.453,687.995 496.986,705.865 505.04,722.42C508.02,728.55 510.45,735.04 513.015,741.365Z" style="fill:rgb(247,131,23);"/>
        <path d="M245.472,379.832C243.476,432.428 265.887,485.152 301.48,523.505C313.123,536.05 326.127,546.815 339.588,557.335C337.095,574.665 340.58,588.77 345.729,605.18C305.625,581.11 271.682,545.915 251.853,503.3C236.117,469.486 231.259,437.798 235.941,400.923C236.886,393.482 237.818,384.94 240.386,377.888C242.331,364.776 247.936,351.373 252.189,338.847C252.667,344.406 248.925,355.083 247.811,361.117C246.695,367.309 245.914,373.556 245.472,379.832ZM683.51,556.05C693.09,549.695 702.14,542.58 710.585,534.78C749.365,499.043 780.55,446.674 779.53,392.447C779.395,385.104 778.545,377.588 777.185,370.375C776.28,365.557 772.88,354.289 773.185,350.153C773.205,349.881 773.24,349.61 773.265,349.339C792.215,399.413 795.85,452.743 773.44,502.295C758.8,534.68 736.49,559.385 709.79,582.295C700.5,590.27 690.7,598.475 680.175,604.775C684.68,587.125 686.995,574.26 683.51,556.05ZM465.534,532.69C484.537,531.19 496.985,544.09 511.425,544.64C516.965,544.85 521.92,542.825 526.94,540.77C544.865,533.44 554.61,530.845 574.005,535.145C572.115,540.005 569.68,544.54 567.175,549.1C562.21,547.405 556.565,544.92 551.25,545.72C545.77,546.54 542.085,550.495 539.015,554.77C534.79,562.1 537.135,569.875 534.225,577.18C532.775,580.82 529.685,583.435 526.1,584.875C519.23,587.645 504.42,587.515 497.573,584.565C486.645,579.855 490.769,566 486.657,556.705C484.76,552.415 481.604,548.215 477.086,546.51C470.151,543.89 463.295,546.845 457.047,549.795C454.409,544.95 451.879,540.23 450.032,535.015C455.192,534.145 460.335,533.305 465.534,532.69Z" style="fill:rgb(115,115,115);"/>
        <path d="M334.759,255.244C345.354,272.998 358.529,286.957 374.951,299.396C372.554,290.997 371.486,283.91 373.327,275.255C381.255,289.404 393.863,303.356 407.421,312.326C404.954,303.427 403.906,296.132 404.693,286.936C413.277,299.52 422.913,311.651 431.107,324.446C439.057,336.863 445.462,350.185 452.405,363.166C462.147,355.216 471.888,347.379 483.591,342.458C482.681,346.494 479.268,361.243 476.457,363.592C466.373,369.682 456.514,377.088 447.497,384.682C447.408,384.478 447.321,384.272 447.229,384.068C436.157,359.378 417.289,342.032 392.461,331.5C383.882,327.861 374.845,325.277 366.135,321.961C340.271,312.113 317.393,294.592 305.81,268.872C305.476,267.556 304.81,266.182 305.265,264.891C307.609,266.667 309.652,268.783 312.005,270.556C320.606,277.036 330.32,283.21 339.652,288.587C335.321,276.547 334.109,268.022 334.759,255.244ZM645.225,298.56C671.7,289.026 674.89,272.229 689.56,252.092C689.26,263.273 687.355,273.801 683.995,284.463C697.88,278.003 706.305,266.544 715.28,254.687C714.43,261.032 713.54,267.372 712.6,273.705C704.095,296.205 686.57,308.979 665.215,318.577C638.955,330.378 609.68,335.832 591.77,360.715C586.305,368.31 582.51,376.784 577.54,384.647C568.08,376.656 557.8,369.906 547.77,362.68C543.825,356.384 542.105,348.013 539.055,341.161C552.65,346.416 562.805,355.208 573.95,364.267C584.955,337.68 600.945,312.852 615.925,288.374C616.145,296.241 616.27,303.207 613.955,310.817C629.92,302.225 641.125,289.361 652.285,275.438C651.94,284.338 649.28,290.728 645.225,298.56ZM347.846,331.62C351.476,333.511 355.031,335.471 358.545,337.569C354.536,350.353 354.145,361.866 360.545,374.001C366.283,384.881 375.921,392.319 387.65,395.816C398.5,399.051 408.698,398.382 419.331,394.915C428.892,399.408 434.187,409.554 437.596,419.084C439.441,424.24 440.861,429.685 441.143,435.172C442.179,444.874 438.772,455.277 435.003,464.03C432.399,444.784 421.156,429.273 406.842,416.696C404.791,416.838 402.811,416.979 400.799,417.441C386.767,417.182 366.414,407.407 356.621,397.277C346.481,386.791 341.535,372.156 341.928,357.705C342.162,349.125 343.896,339.312 347.846,331.62ZM667.705,337.483L679.27,332.764C682.945,339.852 684.65,347.147 684.78,355.125C685.025,369.818 679.655,383.653 669.32,394.135C656.245,407.39 638.545,415.62 619.86,415.708C604.835,422.298 591.79,448.162 585.24,462.489C583.815,454.188 581.55,445.485 581.37,437.068C581.665,432.176 582.42,427.373 583.86,422.679C587.035,412.306 593.505,399.702 603.485,394.461C614.23,397.107 625.61,398.131 636.36,394.926C648.495,391.312 658.83,383.241 664.78,372.05C670.655,361.008 671.385,349.316 667.705,337.483ZM219.062,114.991C251.635,124.217 329.674,151.763 350.728,176.559L350.902,178.721L350.279,178.97C340.973,173.279 331.125,168.805 321.185,164.35C311.933,160.204 302.724,156.008 293.188,152.533C271.836,144.753 249.536,139.107 227.578,133.338C222.488,163.211 231.607,203.21 249.062,227.63C252.499,232.438 259.776,242.29 264.859,245.006L271.613,253.333C252.673,246.392 239.554,232.417 230.029,214.911C213.271,184.375 209.326,148.434 219.062,114.991ZM225.761,341.414C226.245,344.212 219.636,363.22 218.41,367.731C215.639,377.923 213.391,388.64 211.81,399.087C207.865,425.865 208.598,453.125 213.975,479.652C225.423,538.96 265.303,587.32 313.088,622.105C327.852,632.855 346.333,641.875 357.719,656.435C367.635,669.115 373.977,685.81 380.853,700.32C389.771,719.06 398.544,737.875 407.174,756.75C413.208,769.995 418.93,783.31 425.229,796.445C446.14,790.335 466.665,786.87 488.42,785.48C528,782.95 559.865,787.925 597.995,798.68C604.55,786.885 608.915,774.075 614.19,761.685C627.21,731.13 640.57,699.795 657.73,671.34C661.82,664.555 665.95,657.62 670.95,651.46C679.445,641.005 696.745,630.805 708.185,622.965C740.36,600.91 770.075,573.51 789.045,539.005C815.78,490.376 820.82,436.981 810.33,382.931C807.71,369.441 803.865,356.241 800.045,343.053C807,352.231 814.825,360.755 821.7,370.024C847.955,405.398 863.2,436.356 876.84,478.022C863.255,473.348 849.655,468.259 835.5,465.633C855.31,522.895 855.655,585.615 845.22,644.725C844.89,645.91 844.975,646.18 844.045,647.06C840.77,646.225 829.39,634.9 825.985,632.045C813.64,621.69 800.04,611.265 785.775,603.75C785.605,622.535 785.925,641.33 784.5,660.085C782.025,689.5 775.005,718.35 763.69,745.61C758.92,736.865 754.08,728.14 748.23,720.055C736.965,704.475 720.53,688.78 703.82,679.1C699.095,699.055 693.695,718.485 684.74,737.02C681.07,744.625 677.08,752.39 672.5,759.495C662.685,774.72 650.64,788.45 637.82,801.19C602.35,836.875 559.28,864.095 511.82,880.815C475.734,868.78 441.417,848.785 412.274,824.46C377.655,795.565 347.871,760.515 330.645,718.45C325.822,706.675 321.777,694.27 320.623,681.545C315.307,684.58 310.551,688.86 305.892,692.805C287.794,708.125 272.145,725.035 257.658,743.8C239.148,699.075 234.655,652.115 238.149,604.18C219.51,613.15 196.326,634.565 181.485,649.24C166.638,591.2 165.811,522.74 188.53,466.575C174.808,468.652 161.215,472.608 148.276,477.587C159.685,436.852 179.375,399.902 204.979,366.332C211.486,357.8 218.251,349.085 225.761,341.414ZM600.5,479.988L605.525,481.089C620.655,487.794 631.32,498.921 640.625,512.42C643.65,516.805 646.81,521.61 648.755,526.6C648.9,526.97 649.025,527.35 649.15,527.725C633.59,547.675 612.265,561.63 591.165,575.02C615.22,569.245 640.63,563.39 660.24,547.39C656.635,566.28 645.515,576.785 629.97,587.28C614.375,597.805 596.77,602.97 578.325,605.66C602.27,607.685 637.115,605.61 656.11,589.675C656.59,589.275 657.06,588.87 657.53,588.455C651.05,606.93 636.385,621.93 618.8,630.34C600.575,639.215 579.51,640.25 560.505,633.21C551.48,629.935 527.175,619.945 523.175,611.415C521.815,608.52 521.71,604.45 521.39,601.285C534.805,596.025 545.565,587.67 551.38,574.2C552.9,570.68 554.14,564.535 558.195,563.155C560.265,562.455 563.315,562.835 565.505,562.92C567.975,563.015 570.545,563.265 572.935,562.485C578.73,560.595 584.05,551.675 587.11,546.78C594.01,535.725 601.005,520.055 599.575,506.685C600.855,498.137 600.3,488.666 600.5,479.988ZM419.217,480.149L420.939,480.178C421.623,481.503 423.2,506.78 423.801,510.795C424.782,527.485 431.438,544.295 442.854,556.65C450.295,564.7 458.246,563.215 468.214,563.57C470.517,567.435 471.925,571.97 473.865,576.045C480.369,589.715 489.546,595.865 503.455,600.88C503.36,604.175 503.46,608.155 502.21,611.22C498.601,620.06 480.127,628.345 471.834,631.65C452.311,639.435 431.268,640.655 411.722,632.165C392.532,623.825 374.942,608.815 367.075,589.085C396.18,606.125 421.324,608.06 454.017,605.705C446.32,604.43 438.594,603.42 430.997,601.605C412.898,597.285 393.607,588.39 380.261,575.165C372.349,567.33 366.377,558.04 366.294,546.645C387.114,565 408.47,569.81 434.871,574.265C428.7,571.3 422.388,568.505 416.52,564.965C400.24,555.15 385.043,540.26 375.237,523.975C383.536,506.09 400.877,487.746 419.217,480.149ZM678.725,174.791C700.465,150.943 747.66,134.406 777.62,124.13C786.66,121.031 795.745,117.527 804.97,115.057C806.525,121.454 808.275,127.891 809.32,134.394C814.13,164.268 808.795,193.574 792.99,219.461C783.165,235.56 770.275,249.082 753.05,257.099C753.865,256.003 754.65,254.861 755.555,253.838C757.945,252.302 759.74,250.244 761.555,248.086C767.47,241.059 772.175,233.029 776.57,224.988C792.325,196.148 798.37,168.597 795.39,135.844C752.17,144.417 715.3,156.719 677.45,179.655C676.635,180.192 675.84,180.567 674.945,180.951L674.595,180.588C675.52,178.381 677.21,176.619 678.725,174.791ZM599.81,655.23C600.53,655 600.07,655.08 601.21,655.26C601.26,655.41 601.325,655.555 601.36,655.71C601.87,658.15 600.715,661.915 600.21,664.395C597.11,679.695 592.675,694.545 584.98,708.21L583.235,702.41C578.685,688.155 575.66,671.055 575.48,656.125C583.705,656.335 591.625,656.175 599.81,655.23ZM422.988,655.26C431.721,656.315 439.843,656.385 448.593,655.685C448.237,669.5 444.498,685.87 441.238,699.38C440.498,702.09 439.57,704.73 438.656,707.385C429.631,694.52 424.882,671.065 422.988,655.26ZM570.31,725.34C572.82,727.725 584.045,764.59 585.445,770.545C580.57,769.16 575.65,767.9 570.76,766.58C564.31,764.58 557.57,763.435 550.95,762.16C559.675,751.095 565.79,738.62 570.31,725.34ZM454.623,721.32C458.448,734.68 462.864,747.38 468.922,759.905C462.417,761.735 455.969,763.62 449.642,766.005L439.138,770.04C442.603,753.515 447.289,736.565 454.623,721.32Z" style="fill:rgb(254,254,254);"/>
    </g>
</svg>
