<?xml version="1.0" encoding="UTF-8" standalone="no"?>
<!DOCTYPE svg PUBLIC "-//W3C//DTD SVG 1.1//EN" "http://www.w3.org/Graphics/SVG/1.1/DTD/svg11.dtd">
<svg width="100%" height="100%" viewBox="0 0 1024 1024" version="1.1" xmlns="http://www.w3.org/2000/svg" xmlns:xlink="http://www.w3.org/1999/xlink" xml:space="preserve" xmlns:serif="http://www.serif.com/" style="fill-rule:evenodd;clip-rule:evenodd;stroke-linejoin:round;stroke-miterlimit:2;">
    <path d="M390.115,318.408C389.498,307.43 388.811,259.221 392.11,251.964C393.276,249.4 395.746,247.638 398.122,246.284C401.834,244.169 406.083,242.906 410.098,241.475C420.405,237.8 431.277,234.534 440.629,228.748C453.291,220.914 468.234,196.291 477.356,183.623C480.73,178.937 484.096,173.599 488.686,170.005C489.562,169.319 490.687,168.385 491.721,167.957C493.54,167.204 496.62,167.921 498.47,168.326C503.191,169.361 507.844,171.155 512.477,172.564C523.872,176.03 536.621,178.954 548.548,178.238C566.876,177.138 583.566,166.985 598.837,157.663C604.553,154.174 610.188,150.458 616.543,148.228C633.094,151.14 651.485,180.252 669.883,189.652C679.454,194.542 690.562,196.749 701.163,198.047C707.786,198.858 716.65,198.684 722.648,201.722C730.953,205.928 737.644,243.968 740.819,254.037C760.511,242.104 781.406,231.348 801.223,219.195C816.332,210.35 830.759,200.493 846.339,192.46C855.11,187.938 861.304,194.071 865.514,201.355C865.547,202.301 865.56,203.248 865.554,204.194C865.383,238.735 805.212,307.959 781.671,331.174C794.366,327.754 806.991,324.077 819.538,320.146C851.67,310.353 881.659,300.367 911.107,283.777C915.571,281.262 925.814,276.349 929.519,273.605C938.401,267.013 947.428,257.974 955.519,250.688C961.937,244.908 968.292,235.299 977.466,238.697C980.893,239.966 983.473,241.505 985.151,244.952C988.981,252.825 986.331,262.487 984.004,270.418C979.58,283.302 975.908,298.11 969.847,310.219C950.716,348.445 917.967,379.327 879.661,397.966C857.836,408.586 837.032,417.085 815.592,428.237C816.487,435.888 816.893,443.62 817.851,451.222C818.264,454.502 820.052,456.486 822.86,458.303C838.039,468.124 861.573,452.143 873.611,442.886C883.949,435.019 893.462,421.579 906.279,417.937C914.718,415.539 923.035,426.448 923.597,434.059C925.437,458.971 922.799,486.189 916.028,510.246C913.636,518.746 908.182,527.266 903.164,534.404C905.031,539.327 905.195,545.376 906.272,550.436C909.786,566.95 908.737,578.51 905.918,594.848C900.081,628.682 883.654,658.516 853.536,676.479C848.072,679.738 845.098,682.45 838.793,684.256C829.144,681.093 825.703,672.68 819.104,664.816C804.863,672.083 793.465,681.961 776.851,682.834C766.619,683.372 760.067,682.045 751.021,677.336C748.139,675.677 746.67,674.815 743.569,673.577L751.223,679.446C763.382,688.838 773.637,698.993 783.409,710.914C788.359,716.952 793.784,726.584 799.305,731.654C806.345,738.118 817.7,743.215 825.784,748.596C831.22,752.215 840.411,758.37 845.087,763.006C859.988,777.776 873.64,798.565 878.56,819.048C879.911,824.674 880.671,831.94 877.245,836.705C873.886,841.376 868.871,843.287 863.474,844.329C831.722,850.458 801.392,850.406 769.288,850.055C762.163,849.977 747.291,850.53 740.825,849.498C733.293,848.295 721.202,842.544 712.84,840.496C708.016,839.315 695.654,835.924 692.081,833.593C684.705,828.781 687.096,815.962 685.809,808.268C684.506,800.482 681.969,791.285 675.999,785.683C663.197,773.671 641.646,770.504 627.783,760.263C621.856,755.885 616.754,744.219 612.017,738.011C599.94,722.18 586.276,709.842 570.452,697.866C568.191,699.362 565.88,700.781 563.522,702.12C536.816,717.07 507.961,720.888 477.956,720.405C467.02,720.228 458.573,721.098 447.508,717.979C445.537,722.293 441.481,728.679 438.959,733.012C435.525,738.915 433.119,743.654 430.224,749.839C445.596,757.735 450.975,764.195 460.226,778.675C468.635,791.839 485.417,822.8 481.579,837.839C480.502,842.114 477.729,845.765 473.9,847.949C466.697,852.088 451.553,850.456 442.884,850.985C433.61,851.421 423.921,852.812 414.661,852.92C392.983,853.175 371.728,853.296 350.055,852.19C333.889,851.366 317.758,852.185 301.734,847.665C293.439,845.326 280.89,841.568 276.114,833.35C272.278,824.317 273.667,806.87 276.278,797.669C279.859,785.045 279.652,780.176 280.458,767.656C281.074,758.884 282.584,750.197 284.964,741.732C287.038,734.611 289.472,727.599 292.258,720.725C294.965,714.196 298.912,705.807 300.733,699.142L300.948,698.343C298.118,696.177 294.501,692.844 291.737,690.445C272.199,703.903 249.157,719.69 224.693,721.608C222.652,725.651 220.741,731.151 218.818,735.427C216.571,740.427 214.434,744.404 211.805,749.186C218.021,753.675 227.547,760.536 230.207,769.278C234.419,783.114 249.817,824.012 238.081,835.626C230.326,843.3 203.773,843.257 192.124,843.297C158.052,843.413 122.95,843.825 88.933,840.387C80.607,840.325 69.253,833.068 64.265,826.404C57.925,817.933 58.379,785.933 59.189,775.581C60.578,757.827 83.528,739.508 89.992,722.303C96.047,706.183 100.193,690.835 101.363,673.47C103.065,655.313 128.527,636.647 142.315,626.058C109.732,607.985 77.284,589.415 60.938,553.888C44.683,518.561 45.155,482.467 57.849,446.226C79.697,383.852 129.359,351.664 186.625,324.815C203.229,317.03 245.58,299.474 264.66,305.251C270.044,306.881 275.295,312.569 277.644,318.02C276.837,324.58 274.191,334.111 269.794,339.262C263.395,346.756 253.652,352.225 246.111,358.66C219.505,381.364 189.061,403.061 172.3,434.57C169.287,440.67 166.223,450.477 168.876,457.115C174.171,470.359 196.366,458.101 203.531,453.304C222.013,440.934 237.628,424.781 254.499,410.431C282.281,386.799 310.255,363.665 341.309,344.382C356.678,334.847 373.74,326.127 390.115,318.408Z" style="fill:rgb(254,249,231);fill-rule:nonzero;"  data-color="color-3"/>
    <path d="M617.168,162.931C619.035,163.562 626.728,171.345 628.577,173.141C648.864,192.853 661.512,206.029 690.886,210.255C698.543,211.356 708.183,212.654 715.941,213.939C719.314,226.022 722.071,238.534 725.412,250.685C727.008,256.49 728.499,263.838 731.055,269.298C731.478,270.201 735.489,273.291 736.504,274.094C745.566,266.316 765.162,255.64 776.105,249.49L821.658,223.374C831.91,217.388 841.66,209.739 852.487,204.727C841.637,243.466 806.272,284.584 779.349,314.089C774.171,319.764 766.437,326.57 760.804,332.043C755.417,337.277 748.867,345.094 743.216,349.426L748.937,357.396C769.215,349.122 788.514,344.065 809.294,337.773C844.814,327.017 880.196,316.267 912.849,298.323C918.722,295.095 928.952,290.377 934.159,286.591C947.975,276.545 962.38,264.198 973.52,251.279C972.851,262.157 969.33,268.507 966.755,278.419C961.502,298.642 954.277,311.503 942.337,328.257C922.293,356.381 897.351,374.663 866.246,389.193C844.426,399.385 822.361,408.445 801.612,420.899C803.137,430.744 802.594,456.985 807.374,463.117C827.954,489.517 868.941,466.764 887.421,449.625C894.858,442.729 901.678,434.994 908.293,430.898C915.111,445.495 907.345,493.454 901.962,509.188C899.694,515.816 891.539,528.069 887.115,533.954C895.749,553.33 896.924,567.423 893.483,588.472C887.586,624.547 871.268,651.529 839.113,669.245C832.991,659.628 830.445,655.911 821.593,648.54C808.824,653.32 793.936,664.579 783.095,667.659C776.277,669.564 769.067,669.555 762.254,667.635C748.218,663.597 717.597,640.119 701.735,631.454C714.795,661.087 713.278,676.595 743.867,692.231C753.048,696.923 768.727,715.548 775.322,723.688C779.892,729.328 784.158,738.42 790.133,743.34C806.083,754.639 824.685,761.535 838.031,776.392C851.848,791.772 863.603,808.785 866.139,829.762C826.28,837.783 784.665,836.214 744.231,835.594C740.335,834.985 736.076,833.478 732.442,832.157C721.909,828.327 711.294,825.296 700.483,822.363C700.475,813.829 700.021,807.092 698.055,798.872C691.589,771.842 672.671,765.975 649.646,756.307C646.06,754.801 637.995,751.619 635.3,748.783C630.143,743.357 625.586,733.293 620.929,727.242C609.794,712.771 585.707,689.702 570.312,680.51C541.675,701.085 517.715,706.656 482.763,707.055C476.1,707.131 468.461,707.231 461.88,706.406C455.696,705.89 446.978,704.317 440.654,703.373C430.734,717.426 419.578,737.845 412.585,753.491C418.901,759.493 426.722,762.516 432.601,767.396C450.509,782.261 465.277,813.386 469.276,835.379C422.504,839.694 375.473,840.468 328.584,837.694C316.035,836.84 296.203,834.696 287.583,824.827C286.909,815.674 287.952,806.24 290.168,797.3C290.715,794.654 293.53,789.415 293.501,786.877C293.297,768.798 295.439,753.833 301.315,736.715C304.905,726.257 310.636,715.872 313.757,705.394C315,701.222 312.404,689.06 311.544,684.28C301.36,683.505 299.934,676.705 291.19,672.965C285.881,676.19 275.461,684.495 269.85,688.391C249.344,702.624 237.139,704.849 214.426,710.282C211.179,717.334 208.579,724.554 205.228,731.604C201.686,739.055 196.89,746.744 193.786,754.292C199.9,759.013 207.07,761.159 212.498,766.698C218.687,773.013 219.981,782.345 222.516,790.488C226.396,802.95 229.733,811.889 229.492,825.156C207.038,831.432 184.27,829.319 161.063,829.556C143.07,829.74 124.544,829.071 106.605,827.77C95.906,826.994 83.762,827.818 76.276,818.786C75.2,817.482 73.29,812.571 73.279,810.899C73.896,802.874 70.638,783.219 73.118,776.516C79.59,759.025 97.983,742.103 104.698,723.925C108.512,713.599 110.572,705.455 112.817,695.033C114.917,685.284 113.916,675.576 118.929,666.913C128.784,651.422 150.18,642.361 159.301,627.001C159.932,625.939 160.659,621.952 160.926,620.552C154.401,615.873 146.085,612.437 139.037,608.466C118.683,596.999 94.479,581.39 81.473,561.662C63.643,534.616 58.382,504.632 64.845,473.3C74.612,425.954 102.235,390.935 142.156,364.976C172.459,345.466 205.473,329.178 240.436,319.979C244.915,318.801 259.281,314.471 262.242,320.155C263.79,323.254 260.057,330.24 257.709,331.962C244.218,341.85 231.843,352.277 219.15,363.132C195.228,383.588 169.594,405.278 157.148,435.004C151.2,449.211 152.893,469.587 169.677,475.344C181.33,479.234 196.938,473.629 206.986,467.572C229.223,454.167 246.945,434.484 266.876,418.047C292.74,396.383 319.334,373.967 348.105,356.255C364.733,346.019 386.512,334.859 404.024,326.48C403.749,304.204 403.972,281.417 403.961,259.103C416.423,253.25 429.575,249.575 442.322,243.459C462.095,233.972 467.582,222.265 479.364,205.349C484.691,197.702 490.895,189.361 496.442,181.775C551.827,199.193 569.241,194.566 617.168,162.931Z" style="fill-rule:nonzero;fill:black;"/>
    <path d="M618.68,192.05C620.045,192.461 628.746,200.249 630.829,201.814C643.236,211.134 656,221.193 670.795,226.24C680.921,229.695 690.586,233.328 700.48,236.782C701.463,239.047 702.485,241.895 703.261,244.238C707.403,256.756 713.276,268.397 718.438,280.491C713.311,284.596 703.719,290.179 697.702,294.07C686.393,301.253 675.332,308.817 664.536,316.749C650.288,296.344 637.505,270.39 626.305,248.192C622.766,241.178 619.909,233.196 616.356,226.083C616.41,259.297 623.106,282.717 635.667,313.425C638.083,319.332 641.821,328.366 645.042,333.677C641.319,338.434 634.148,345.628 629.669,350.878C597.159,336.354 564.508,299.381 543.707,271C536.187,260.739 529.183,249.449 521.595,239.096C523.481,245.961 525.214,253.127 527.599,259.803C543.957,305.614 575.192,344.624 616.317,370.605C611.17,377.994 606.728,384.054 602.712,392.164C546.954,377.022 512.012,338.999 462.848,313.583C485.594,348.491 525.865,386.713 564.08,404.255C575.867,409.665 587.219,412.295 599.515,415.825C601.834,418.57 603.296,421.933 605.793,424.509C607.73,426.822 612.533,426.172 613.499,423.349C617.291,412.275 619.96,403.532 626.24,393.333C628.618,400.644 632.629,407.319 637.97,412.85C656.533,432.031 687.492,429.646 706.288,411.619C715.64,402.649 716.739,389.393 716.735,377.111C719.408,373.818 722.819,370.227 725.7,367.046C727.485,369.342 729.259,372.237 730.868,374.686C742.724,392.729 755.9,409.64 770.551,425.499C775.483,430.838 780.572,435.173 785.853,440.14C786.538,444.897 786.531,447.515 786.405,452.309C783.027,451.633 780.327,450.489 778.44,454.034C778.296,461.627 801.794,482.095 806.67,490.094C809.998,495.553 808.211,505.57 806.828,511.304C821.561,529.328 841.009,539.525 863.787,543.339C875.491,555.39 873.751,577.616 870.828,592.713C867.569,609.548 857.284,624.973 846.789,638.217C841.559,624.858 828.138,608.291 817.789,598.638C808.355,589.839 796.392,586.199 785.731,579.626C767.489,568.377 750.347,553.567 730.049,546.115C717.598,541.644 700.951,551.063 690.042,556.834C730.767,558.694 737.887,561.64 766.801,590.386C755.002,597.263 749.028,601.015 744.545,613.941C773.973,606.84 785.091,608.927 808.851,628.274C797.287,634.685 784.523,642.182 771.991,646.368C744.739,637.284 721.36,612.275 695.38,600.187C682.237,594.072 670.301,594.156 656.328,591.3C646.024,589.194 637.944,585.86 628.231,582.054C639.113,578.575 647.099,576.959 658.321,575.447C637.416,566.643 605.104,559.522 592.686,539.307C580.886,520.098 590.626,493.32 595.898,472.881C602.009,475.44 607.956,478.375 613.705,481.669C611.634,472.496 608.079,464.574 601.235,457.949C579.608,437.015 518.107,432.991 488.973,433.658C506.414,442.851 524.703,446.684 543.316,452.263C553.455,455.302 566.89,460.515 576.362,465.097C567.13,487.411 559.977,512.097 562.467,536.51C563.987,551.415 570.371,562.408 582.101,571.683C567.07,587.235 550.189,604.192 536.254,620.512C542.567,597.83 541.355,575.87 526.025,556.991C520.477,550.158 515.098,546.334 507.995,541.409C512.366,548.069 513.781,552.229 516.426,559.649C523.775,582.124 519.174,608.578 502.167,625.785C480.966,647.237 444.766,653.675 416.131,658.274C410.361,659.201 402.168,659.567 396.995,662.132C396.551,662.401 396.713,663.203 396.708,663.89C399.568,669.417 410.908,674.215 416.438,676.531C405.285,699.197 392.328,721.52 376.264,741.157C373.641,744.364 358.281,753.731 354.001,756.492C365.495,759.068 374.786,758.194 386.175,755.787C390.347,759.84 405.884,771.758 404.948,777.079C401.69,781.462 399.047,778.119 394.745,776.997C377.53,772.507 368.339,782.804 361.207,795.516C350.07,779.975 338.841,773.606 319.881,780.647C319.415,779.348 318.982,778.038 318.585,776.716C312.906,758.005 329.339,727.831 338.204,711.143C332.844,696.286 329.096,681.779 332.915,665.668C340.992,631.591 353.176,592.992 381.415,570.044C393.229,560.443 408.159,551.954 420.702,543.434C403.97,547.165 395.422,549.189 378.964,554.105C382.164,530.673 388.145,506.197 391.38,482.097C382.434,497.31 374.154,515.746 368.061,531.908C361.036,550.542 362.358,560.895 346.383,574.245C335.874,583.027 327.053,600.615 322.398,613.917C315.173,607.214 307.623,601.415 302.38,593.002C283.304,562.395 293.449,529.562 302.728,497.846C304.494,491.81 306.056,483.872 307.373,477.72C302.274,485.125 297.883,493.167 293.607,501.068C281.765,522.949 272.195,544.626 271.526,569.995C271.362,576.204 271.59,582.563 272.155,588.75C272.604,593.673 273.59,598.81 273.293,603.753C272.659,614.307 257.433,641.675 251.301,650.292C246.984,656.357 242.046,662.081 236.408,666.958C217.436,683.368 195.295,686.898 171.037,685.106C173.438,694.893 176.111,697.951 184.802,702.662C173.017,723.295 161.774,729.86 144.219,744.023C159.129,742.49 161.92,744.43 177.159,738.183C174.39,745.676 170.532,748.642 166.262,755.332C172.73,759.025 177.582,763.731 182.699,769.038C181.361,772.458 180.381,774.417 178.656,777.68C177.328,776.736 175.854,775.68 174.459,774.851C168.722,771.372 161.81,770.394 155.333,772.144C148.651,773.997 145.415,777.558 142.172,783.229C140.147,780.841 137.854,778.696 135.337,776.836C110.025,758.237 99.511,786.587 94.32,787.347C90.923,779.191 107.597,759.145 112.252,753.193C123.596,738.69 129.774,723.353 135.104,705.942C137.528,698.025 138.076,688.469 141.727,681.085C143.057,678.395 147.743,674.48 149.788,672.294C161.181,660.385 179.659,651.433 184.47,634.925C188.937,619.603 188.381,600.062 190.454,584.675C192.481,569.622 200.786,542.762 207.114,528.639C228.045,481.926 275.66,439.613 315.54,408.624C342.004,388.058 370.41,367.911 401.67,355.672C392.184,367.12 385.14,380.387 380.971,394.658C382.939,399.113 385.251,402.821 387.97,406.949C413.824,446.213 448.112,483.401 492.16,502.012C505.718,507.741 521.54,510.121 535.663,513.085C520.766,503.083 494.702,483.015 481.849,471.306C457.697,449.305 427.95,413.766 413.546,384.264C430.017,349.504 429.039,309.79 429.008,272.097C445.174,261.446 472.364,254.83 484.227,240.761C488.175,236.079 503.967,210.542 506.714,204.704C517.133,207.507 528.286,210.182 539.007,211.226C563.125,213.575 597.13,203.877 618.68,192.05ZM184.771,364.494L185.261,364.929C168.659,382.006 156.412,393.075 143.791,414.153C121.831,450.828 128.292,495.366 176.918,499.698C185.572,500.469 194.035,498.363 202.369,495.976C192.45,511.051 184.311,527.224 178.116,544.173C176.286,549.085 173.614,560.5 172,563.307C161.802,569.093 142.633,552.602 135.837,546.255C132.108,542.787 129.424,539.883 126.021,536.147C130.527,547.402 134.332,559.931 138.751,571.478C119.038,563.213 107.515,551.564 97.751,532.466C82.693,503.015 88.02,470.383 101.503,441.509C114.343,414.014 135.996,393.413 160.985,376.907C168.41,372.046 176.875,368.471 184.771,364.494ZM705.757,700.66C705.916,700.642 706.075,700.623 706.235,700.608C720.238,699.318 746.48,722.605 754.711,732.771C758.037,736.879 761.32,741.098 764.412,745.386C766.797,748.693 768.926,752.877 771.927,755.623C775.586,758.97 780.727,760.926 785.032,763.359C790.33,766.354 795.147,769.784 799.784,773.719C791.018,778.956 791.527,785.424 788.075,795.018C780.966,784.77 767.38,775.906 754.568,776.483C735.563,781.694 742.889,798.386 732.077,808.15C722.131,796.801 717.569,779.995 708.985,767.924C699.44,754.503 687.355,742.199 676.549,729.81C672.315,724.956 672.986,720.147 676.681,715.093C683.545,705.703 694.731,702.246 705.757,700.66Z" style="fill:rgb(0,107,0);"  data-color="color-1"/>
    <path d="M695.531,446.206C715.711,444.211 718.361,452.166 731.379,464.716C742.333,475.276 753.794,485.343 762.879,497.721C764.865,500.427 765.816,503.836 766.867,506.993C757.293,502.206 753.555,499.277 742.938,495.674L738.306,497.315C725.985,503.992 715.239,503.376 703.453,495.779C692.812,488.921 691.657,471.937 690.246,460.316C679.854,458.228 669.638,455.347 659.686,451.7C672.122,449.984 682.577,447.462 695.531,446.206ZM806.701,558.111C813.04,558.016 819.11,557.842 825.453,558.364C846.113,560.065 842.073,576.138 840.297,590.878L840.065,591.427L839.476,591.665C827.377,576.391 823.254,570.405 806.701,558.111Z" style="fill:black;"/>
    <path d="M707.837,468.888C717.118,471.624 725.344,476.588 731.553,484.085C730.134,486.387 729.469,487.147 727.651,489.176C714.274,500.679 707.544,479.666 707.837,468.888ZM806.012,252.01L806.289,252.361C805.7,254.528 801.112,259.786 799.444,261.898C770.804,298.18 731.945,324.329 702.237,359.392C696.607,366.321 693.718,369.918 694.375,379.205C696.251,405.691 672.401,416.062 652.341,400.032C640.595,387.807 641.614,369.489 652.313,357.153C681.193,323.853 723.592,304.171 760.922,282.191C776.542,273.041 791.599,262.963 806.012,252.01ZM931.543,309.039L931.837,309.694C929.969,313.299 926.464,317.848 924.015,321.237C901.027,353.056 862.874,367.954 828.58,384.43C813.699,391.58 796.861,400.169 781.935,406.652L773.091,394.768C768.579,389.153 764.223,383.693 760.421,377.558C785.069,365.579 814.618,357.706 840.64,349.393C870.266,339.929 905.298,325.805 931.543,309.039ZM888.367,475.94L888.892,476.559C889.65,486.599 884.998,502.522 878.935,510.779C873.969,517.658 866.412,522.215 858.01,523.396C848.455,524.778 841.153,521.53 833.737,515.952C830.589,513.106 821.424,500.66 827.678,497.466C829.769,496.871 833.551,496.841 835.623,496.914C856.783,497.661 872.585,488.833 888.367,475.94ZM382.833,793.093C398.597,792.433 402.429,806.312 404.145,818.872C400.679,818.972 397.214,819.104 393.75,819.269C387.3,819.823 379.562,819.828 373.078,819.92C373.437,811.034 373.953,797.703 382.833,793.093ZM810.68,787.393C820.346,790.262 829.314,805.435 834.027,813.889L820.375,814.548C813.071,815.014 805.753,815.223 798.434,815.176C798.63,804.83 800.718,792.602 810.68,787.393ZM330.284,794.919C342.412,794.827 348.025,810.439 350.331,819.957C345.046,819.981 340.143,819.798 334.875,819.578C329.439,819.286 320.428,817.638 314.782,816.739C318.181,805.858 320.491,801.153 330.284,794.919ZM755.486,792.44C757.502,792.521 759.498,792.874 761.419,793.491C772.059,797.01 778.672,806.187 783.623,815.684L777.82,815.956C767.507,816.028 759.14,816.18 748.897,815.151C749.22,808.111 750.991,798.061 755.486,792.44ZM424.25,792.013C425.643,791.851 428.155,791.668 429.394,792.152C435.994,794.731 442.357,811.194 445.326,817.681C442.594,817.835 439.737,817.893 436.991,817.986C429.953,818.127 422.912,817.93 415.892,817.395C417.347,809.393 418.863,798.423 424.25,792.013ZM163.424,787.448C171.892,787.636 176.699,805.809 177.254,812.95L166.787,813.012C162.154,813.04 157.521,812.953 152.892,812.752C153.894,803.075 154.802,793.488 163.424,787.448ZM117.816,788.419C125.606,789.098 128.941,804.842 129.97,810.847C124.27,811.078 118.562,810.952 112.878,810.469C108.945,810.258 104.341,809.385 100.397,808.746C104.393,799.93 109.051,792.767 117.816,788.419ZM195.316,779.669C201.503,782.648 211.036,804.553 210.673,811.339C209.578,812.284 209.184,811.978 207.379,812.12C202.365,812.672 197.327,812.976 192.283,813.03C191.775,799.364 190.275,792.298 195.316,779.669Z" style="fill:rgb(254,249,231);" data-color="color-2"/>
</svg>
