<svg width="100%" height="100%" viewBox="0 0 1024 1024" version="1.1" xmlns="http://www.w3.org/2000/svg" xmlns:xlink="http://www.w3.org/1999/xlink" xml:space="preserve" xmlns:serif="http://www.serif.com/" style="fill-rule:evenodd;clip-rule:evenodd;stroke-linejoin:round;stroke-miterlimit:2;">
    <path d="M507.806,9.227C513.436,9.03 521.089,10.002 526.539,11.437C548.189,17.14 570.021,23.215 591.533,29.352L705.717,61.766L800.007,87.95C820.021,93.49 843.942,99.109 862.629,107.553C877.336,114.88 889.227,126.129 897.884,139.788C910.068,159.011 910.037,174.372 910.044,195.987L910.052,228.004L910.004,335.333L909.944,530.955L910.025,581.692C910.109,610.333 909.977,629.193 903.976,657.55C890.216,722.584 852.915,775.111 802.06,816.769C785.03,830.719 767.218,842.763 749.026,855.114L674.036,905.055L586.275,962.861L547.448,988.279C536.934,995.225 525.919,1002.83 515.235,1009.36C511.932,1011.54 502.829,1004.08 499.572,1001.95L478.11,987.975C454.309,972.671 430.613,957.204 407.023,941.576C354.65,906.937 301.706,873.065 250.048,837.391C208.198,808.491 170.945,772.919 146.271,728.012C127.068,693.062 116.416,653.943 114.285,614.162C113.618,601.715 113.707,589.252 113.698,576.797L113.689,523.237L113.909,342.844L113.568,230.755C113.557,192.636 108.471,158.53 136.076,127.546C145.268,117.248 156.718,109.217 169.53,104.082C178.054,100.647 185.071,99.087 193.804,96.549L241.692,82.976L391.574,40.695L466.445,19.347C481.84,15.008 491.418,10.141 507.806,9.227Z" style="fill:rgb(59,0,60);fill-rule:nonzero;stroke-width:20px;stroke:white;" data-color="color-1"/>
    <path d="M703.248,390.753L743.9,390.547C754.068,390.523 766.033,390.299 776.09,391.49C776.681,397.953 776.337,407.699 776.237,414.31C776.107,422.867 776.174,432.339 775.615,440.763C761.17,441.686 755.06,439.964 750.003,456.907C745.815,470.943 742.884,485.4 739.415,499.635L718.314,586.557C699.881,662.2 680.3,737.256 662.544,813.081C634.254,813.519 608.792,813.451 580.505,812.972C573.313,788.832 566.718,761.653 560.199,737.098C543.754,675.373 527.643,613.559 511.866,551.66L465.384,728.849L450.87,784.767C448.735,793.059 446.155,804.985 443.6,812.819C432.559,813.615 419.629,813.485 408.53,813.483C392.906,813.561 377.282,813.427 361.662,813.082C358.594,803.942 354.863,786.395 352.564,776.737L336.931,711.096L289.535,514.836C286.3,501.609 283.197,488.35 280.227,475.061C277.808,464.591 275.41,444.444 262.988,441.53C259.661,440.749 253.226,440.912 249.629,440.866C248.685,426.145 249.333,406.481 249.594,391.493C270.302,390.686 295.948,391.414 316.975,391.426C327.546,391.46 338.117,391.439 348.688,391.364C353.672,391.316 372.834,390.452 376.394,392.649C377.602,398.328 376.451,415.565 376.423,422.154C376.394,428.72 376.463,437.854 376.123,444.269C369.627,444.883 360.758,442.814 356.708,449.416C355.429,451.501 356.136,455.094 356.632,457.396C358.714,467.047 361.078,476.653 363.35,486.261L378.204,548.173L395.381,620.384C398.96,635.456 402.565,651.909 406.754,666.712C421.949,605.707 436.824,544.623 451.378,483.462C456.2,462.938 461.232,442.464 466.474,422.044C468.279,414.786 471.79,397.795 474.612,391.81C478.844,390.245 544.593,390.617 551.287,391.991C553.38,402.581 557.257,416.531 559.867,427.289L582.87,519.466L606.303,615.523C610.306,631.95 614.331,649.881 618.856,666.075C620.53,661.065 622.185,653.142 623.45,647.851L631.097,615.929C639.885,579.922 648.423,543.855 656.711,507.73L666.255,468.257C667.616,462.68 669.959,454.39 670.507,448.982C671.259,441.561 652.546,443.465 648.578,443.32C648.422,440.553 648.534,437.647 648.502,434.863C648.333,420.247 648.096,405.905 648.521,391.286C653.755,390.672 663.134,390.841 668.636,390.823L703.248,390.753Z" style="fill:rgb(248,247,247);fill-rule:nonzero;"/>
    <g transform="matrix(1.10153,0,0,1.09205,-52.6965,-26.2063)">
        <path d="M281.295,227.731C286.223,227.592 293.672,227.83 298.508,228.441C301.432,239.911 302.395,249.577 309.031,260.219C326.072,287.551 371.338,296.673 398.234,279.646C416.354,268.175 422.797,248.378 427.082,228.542C434.317,227.817 439.311,227.674 446.555,228.22C449.948,234.999 451.466,243.371 454.797,250.706C461.499,265.468 476.738,279.597 491.88,285.155C507.116,290.747 523.947,290.079 538.692,283.298C563.177,271.861 568.111,250.337 576.284,228.081C582.477,227.86 588.818,227.754 594.993,228.271C597.454,234.019 599.624,241.476 601.921,247.556C615.833,284.377 650.562,298.727 686.831,283.693C704.181,276.501 714.728,264.52 721.715,246.954C723.77,241.068 724.879,233.418 726.835,228.538C734.513,227.875 742.222,227.664 749.924,227.906C750.721,269.873 751.102,309.553 749.952,351.606C695.783,352.444 641.606,352.598 587.433,352.068L373.612,351.799C340.687,351.786 306.957,351.341 274.079,351.827C272.547,329.116 273.248,307.016 273.718,284.31C274.104,265.678 273.653,246.559 274.217,228.075L281.295,227.731ZM581.242,133.1C600.403,130.039 618.392,143.165 621.324,162.346C624.256,181.527 611.01,199.427 591.81,202.23C572.791,205.007 555.097,191.913 552.192,172.913C549.288,153.914 562.263,136.132 581.242,133.1ZM434.453,132.81C453.552,130.75 470.727,144.508 472.884,163.596C475.042,182.684 461.371,199.928 442.295,202.183C423.08,204.454 405.683,190.663 403.51,171.437C401.337,152.211 415.216,134.885 434.453,132.81ZM285.227,132.771C304.349,132.315 320.248,147.391 320.807,166.511C321.366,185.63 306.375,201.609 287.258,202.271C267.997,202.937 251.87,187.807 251.307,168.542C250.743,149.277 265.96,133.231 285.227,132.771ZM731.953,133.428C750.88,130.351 768.722,143.189 771.818,162.113C774.915,181.037 762.095,198.892 743.174,202.007C724.226,205.127 706.341,192.284 703.24,173.334C700.139,154.383 712.999,136.51 731.953,133.428Z" style="fill:rgb(227,153,35);" data-color="color-2"/>
    </g>
</svg>
