<?xml version="1.0" encoding="UTF-8" standalone="no"?>
<!DOCTYPE svg PUBLIC "-//W3C//DTD SVG 1.1//EN" "http://www.w3.org/Graphics/SVG/1.1/DTD/svg11.dtd">
<svg width="100%" height="100%" viewBox="0 0 4096 4096" version="1.1" xmlns="http://www.w3.org/2000/svg" xmlns:xlink="http://www.w3.org/1999/xlink" xml:space="preserve" xmlns:serif="http://www.serif.com/" style="fill-rule:evenodd;clip-rule:evenodd;stroke-linejoin:round;stroke-miterlimit:2;">
    <path d="M133.683,543.81C199.918,520.949 263.766,503.132 333.855,494.779C526.169,472.227 732.38,508.921 908.611,586.847C1192.9,712.553 1428.21,976.665 1537.43,1266.27C1539.37,1272.63 1540.03,1278.37 1545.15,1281.98C1551.18,1278.46 1551.49,1275.35 1553.91,1267.68C1563.55,1241.59 1570.49,1214.36 1577.9,1187.53C1704.58,1302.89 1806.04,1443.2 1875.91,1599.64C1895.47,1643.01 1907.82,1683.06 1925.26,1724.91C2021.23,1715.41 2075.57,1712.23 2173.69,1726.53C2178.67,1700.16 2202.26,1641.34 2213.62,1615.51C2290.02,1441.75 2383.4,1315.77 2518.42,1185.44C2524.07,1212.63 2530.57,1233.59 2539.31,1259.61L2552.37,1294.06L2558.96,1273.46C2630.19,1061.04 2789.63,856.146 2965.22,719.481C3183.58,549.526 3478.67,462.477 3753.75,495.673C3813.46,502.363 3872.23,515.775 3928.94,535.652C3937.08,538.43 3950.25,541.003 3954.46,546.367C3922.24,567.618 3878.76,596.173 3850.16,621.787C3744.25,716.971 3672.13,848.541 3661.48,991.282C3648.74,1162.04 3717.33,1316.76 3826.83,1443.33C3841.53,1460.33 3857.27,1476.71 3871.87,1493.83C3862.39,1499.65 3851.56,1504.79 3841.74,1510.28C3719.64,1578.91 3612.15,1694.86 3564.6,1827.96C3497.18,2016.72 3530.21,2226.37 3612.79,2403.85C3525.79,2382.84 3369.42,2420.32 3285.38,2455.4C3116.29,2525.64 2976.03,2651.17 2887.54,2811.46C2862.41,2857.39 2849.76,2892.19 2830.03,2940.01L2832.82,2942.81C2922.06,3032.7 2899,3162.4 2813.42,3245.83C2756.71,3301.56 2680.24,3332.54 2600.74,3332C2616.44,3310.25 2622.84,3287.04 2630.2,3261.59C2582.01,3263.23 2535.53,3265.17 2488.86,3252.29C2478.11,3249.33 2465.5,3246.29 2454.47,3245.2L2452.59,3247.74C2457.28,3303.83 2486.26,3354.37 2519.09,3398.56C2322.33,3430.13 2150.95,3557.84 2049.64,3726.72C2036.56,3703.67 2021.97,3681.51 2005.97,3660.39C1922.41,3551.54 1812.06,3472.21 1682.67,3428.68C1651.49,3418.18 1611.6,3403.05 1579.15,3398.82C1596.48,3374.61 1653.95,3267.71 1644.51,3244.68C1639.44,3244.45 1614.1,3252.74 1606.3,3254.77C1558.3,3267.28 1516.15,3264.47 1467.07,3262.53C1471.81,3292.55 1477.5,3308.79 1492.31,3335.17C1398,3327.62 1319.37,3294.86 1258.13,3219.91C1195.4,3143.14 1180.37,3006.85 1266.1,2940.81C1170.63,2642.27 873.524,2410.03 559.924,2401.3C535.191,2400.61 510.019,2402.83 485.212,2403.68C629.086,2072.74 592.04,1723.5 267.985,1518.61C253.193,1509.26 239.116,1501 223.58,1492.79C265.37,1448.4 298.736,1408.91 332.751,1358.42C417.107,1233.22 456.365,1082.83 425.986,933.149C402.305,816.474 334.245,703.703 244.904,625.111C212.097,596.25 170.157,567.795 133.683,543.81Z" style="fill:rgb(23,31,28);fill-rule:nonzero;"/>
    <path d="M1562.56,1929.61C1565.63,1976.3 1588.42,2032.54 1605.88,2075.01C1620.9,2108.96 1632.99,2131.89 1651.83,2163.87C1619.45,2141.34 1594.8,2121.5 1572.05,2088.63C1474.75,1950.02 1486.6,1788.97 1532.75,1633.35C1537.98,1615.7 1546.48,1589.43 1554.79,1573.47C1557.96,1564.04 1561.41,1555.47 1565.09,1546.27C1576.74,1521.11 1614.3,1441.86 1619.98,1419.73C1657.13,1467.39 1714.81,1551.49 1735.83,1608C1768.02,1673.4 1792.28,1746.44 1813.93,1816.04C1838.53,1895.17 1854.18,1950.99 1909.71,2015.94C1907.6,1997.51 1898.87,1979.98 1895.64,1962.19C1889.25,1926.98 1889.88,1886.76 1892.81,1851.16C1970.67,1839.22 2024.51,1833.89 2103.62,1841.08C2143.28,1844.69 2162.79,1842.99 2203.29,1855.25C2208.3,1887.75 2205.02,1921.43 2200.85,1953.82C2199.28,1966.07 2188.67,2011.53 2190.87,2017.55C2264.69,1938.31 2287.04,1785.35 2328.88,1687.55L2330.55,1682.06C2339.58,1658.14 2366.68,1591.78 2380.64,1571.8L2384.38,1564.06C2388.3,1554.65 2391.86,1548.73 2396.88,1539.97C2403.55,1526.29 2412.18,1512.48 2420.03,1499.34C2438.77,1468.39 2455.59,1447.8 2475.75,1419.27C2481.41,1442.39 2505.37,1487.12 2516.05,1511.26C2535.3,1555.56 2552.25,1600.82 2566.82,1646.86L2570.15,1660.31C2595.65,1722.59 2604.78,1869.93 2590.33,1934.72C2566.77,2040.35 2530.94,2106 2442.75,2165.96C2478.5,2114.87 2507.54,2037.1 2523.73,1978.25C2556.74,1858.23 2527.4,1638.32 2463.23,1533.2C2448.97,1554.44 2422.04,1611.68 2411.36,1636.01L2407.86,1642.61C2371.79,1725.73 2342.58,1811.65 2320.53,1899.53C2309.86,1942.5 2302.15,1991.83 2291.23,2032.11C2306.21,2020.22 2318.61,2010.46 2332.33,1996.94C2378.5,2061.01 2389.38,2129.67 2382.02,2208.05C2380.88,2220.28 2369.09,2245.61 2371.01,2256.39L2374.29,2256.37C2386.15,2244.15 2396.32,2230.39 2404.54,2215.48C2416.35,2319.79 2417.1,2346.3 2330.86,2414.47C2294.84,2442.94 2266.51,2487.17 2248.62,2529.53C2248.16,2473.99 2237.98,2423.5 2294.15,2391.16C2278.35,2390.01 2174.39,2383.96 2171.67,2407.76C2170.86,2414.9 2189.28,2462.39 2190.96,2472.99C2194.82,2501.42 2194.87,2552.15 2192.6,2580.51C2168.14,2506.67 2118.83,2396.44 2049.23,2515.3C2024.72,2464.73 1982.09,2438.33 1942.61,2493.5C1924.44,2518.89 1911.56,2551.62 1902.22,2581.33C1901.57,2551.41 1900.66,2520.62 1904.63,2490.95C1906.74,2474.84 1910.01,2458.89 1914.41,2443.24C1917.59,2432.21 1926.3,2413.97 1921.95,2403.7C1899.32,2390.28 1830.46,2390.16 1801.43,2389.27C1837.29,2408.68 1847.61,2425.91 1847.55,2468.24C1847.52,2487.63 1846.48,2507.07 1845.64,2526.48C1838.1,2507.62 1826.44,2481.78 1814.02,2465.8C1738.87,2369.12 1655.51,2366.32 1690.94,2219.85L1693.22,2218.97C1699.8,2229.34 1713.23,2252.96 1724.09,2258.26C1725.97,2247.51 1715.29,2222.76 1714.32,2211.53C1713.17,2198.16 1712.62,2182.65 1712.44,2169.26C1711.51,2096.81 1722.55,2051.04 1763.45,1992.24C1775.96,2005.81 1789.85,2018.05 1804.88,2028.77C1794.89,1989.82 1792.21,1957.12 1784.26,1920.05C1776.37,1883.3 1757.3,1820.62 1744.08,1784.35C1739.53,1771.11 1735.34,1759.58 1730.06,1746.63C1717.35,1707.59 1698.76,1667.26 1682.2,1629.39C1671.07,1604.1 1658.3,1581.74 1646.47,1557.1L1640.14,1546.08C1637.04,1540.41 1636.6,1536.74 1632.11,1535.36C1626.14,1545.83 1608.45,1587.43 1605.39,1599.21C1593.27,1630.82 1559.23,1750.12 1561.99,1780.92C1555.35,1817.64 1556.3,1894.18 1562.56,1929.61ZM1906.35,2640.77C1912.82,2644.34 1924.51,2667.91 1929.05,2675.45C1937.78,2689.82 1947.78,2703.39 1958.91,2715.99C1975.25,2734.52 1984.25,2741.03 2005.44,2752.98C2003.51,2731.3 2002.09,2714.02 1996.04,2693.08C2016.74,2714.64 2024.28,2721.69 2050.47,2736.29C2077.63,2717.14 2080.69,2716.12 2099.48,2689.39C2095.97,2713.32 2094.37,2731.6 2092.75,2755.56C2134.59,2725.57 2146.02,2711.25 2173.63,2669.27C2180.36,2658.09 2187.04,2644.62 2193.17,2632.94C2181.39,2697.51 2147.84,2783.93 2077.5,2803.53C2050.43,2811 2021.49,2807.23 1997.25,2793.05C1943.74,2761.35 1920.2,2697.74 1906.35,2640.77ZM2317.6,2977.36C2320.09,2979.77 2319.91,2978.63 2318.8,2981.75C2305.2,3019.94 2294.39,3058.73 2294.32,3099.59C2294.31,3110.83 2292.84,3121.39 2297.68,3131.96C2317.9,3146.15 2310.81,3074.7 2387.24,3134.38C2373.13,3143.73 2359.01,3148.76 2344.62,3158.79C2342.01,3160.58 2339.43,3162.4 2336.88,3164.26C2318.69,3176.83 2303.09,3192.84 2293,3212.55C2270.21,3168.49 2253.76,3134.66 2257.67,3083.05C2260.7,3043.02 2287.34,3002.56 2317.6,2977.36ZM1775.95,2977.49C1798.78,2989.21 1825.39,3031.18 1832.77,3055.88C1849.62,3112.27 1829.98,3160.99 1803.69,3210.03C1791.8,3189.64 1778.61,3179.7 1760.82,3164.36C1742.31,3152.35 1728.28,3144.69 1708.93,3134.43C1720.01,3126.2 1726.91,3118.28 1739.78,3112.11C1766.83,3099.14 1777.87,3127.63 1794,3133.61L1797.5,3131.75C1814.07,3092.53 1788.68,3016.1 1775.95,2977.49ZM2495.48,2926.16C2558.15,2923.41 2564.69,2971.88 2563.64,3021.38C2530.97,2959.76 2494.35,2979.84 2462.4,3028.93C2446.12,3056.96 2443.67,3075.64 2437.67,3106.91C2425.69,3052.23 2427.44,2944.88 2495.48,2926.16ZM1585.47,2926.28C1661.66,2925.53 1672.57,3041.42 1661.06,3095.65L1659.13,3095.7C1651.34,3079.83 1650.51,3060.46 1639.82,3037.96C1628.44,3016.64 1594.68,2972.6 1566.31,2983.62C1549.15,2990.28 1542.03,3007.19 1534.25,3022.52C1529.98,2977.6 1533.41,2936.19 1585.47,2926.28ZM1439.95,2892.65C1475.45,2890.19 1506.58,2903.97 1534.96,2923.82C1528.64,2922.02 1522.29,2920.37 1515.9,2918.86C1438.09,2901.18 1465.15,2957.48 1477.69,2997.89C1481.57,3010.39 1482.41,3026.01 1481.33,3039.14C1476.53,3034.31 1471.84,3021.51 1467.32,3014.93C1441.83,2977.75 1415.62,2965.17 1383.29,3003.99C1379.44,2957.96 1382.27,2901.4 1439.95,2892.65ZM2637.05,2892.59C2646.99,2890.34 2667.03,2894.14 2675.5,2899.82C2710.6,2923.33 2713.32,2962.93 2713.32,3000L2711.98,2998.85L2709.72,2996.98C2674.55,2967.29 2650.42,2983.74 2628.17,3017.01C2622.9,3025.08 2617.37,3035.55 2612.54,3044.09C2613.92,3028.25 2615.12,3014.76 2618.27,2999.07C2621.44,2983.26 2633.45,2956.6 2633.07,2941.53C2632.27,2909.44 2583.01,2917.42 2562.42,2919.77C2584.09,2907.71 2612.41,2895.92 2637.05,2892.59ZM1343.4,2996.36C1347.4,2998.97 1347.14,3006.99 1348.57,3013.49C1353.54,3036.09 1358.78,3053.85 1370.73,3073.62C1361.34,3073.64 1351.38,3074.07 1341.93,3074.3C1319.18,3086.69 1311.08,3099.37 1306.04,3124.29C1305.77,3132.03 1307.36,3129.76 1303.66,3134.13C1286.51,3119.52 1287.68,3044.77 1299.57,3025C1311.41,3005.31 1323.65,3002.52 1343.4,2996.36ZM2757.42,2996.7C2810.4,3019.38 2806.22,3036.23 2802.95,3090.79C2802.3,3101.61 2802.39,3122.96 2795.06,3130.65C2790.57,3127.12 2791.75,3125.9 2790.22,3118.58C2780.28,3086.3 2763.55,3080.04 2732.54,3075.67C2748.4,3045.12 2752.78,3030.49 2757.42,2996.7Z" style="fill:rgb(163,0,255);"/>
    <path d="M1576.52,3150.8C1567.84,3143.3 1561.16,3125.75 1553.92,3110.69C1542.88,3087.75 1554.53,3032.85 1589.65,3051.36C1607.03,3060.52 1599.81,3104.15 1597.67,3118.78C1596.7,3125.38 1597.39,3137.28 1597.75,3146.22L1600.35,3178.35C1592.76,3170.31 1582.04,3159.96 1576.52,3150.8ZM1445.65,3160.68C1434.93,3147.65 1427.76,3134.23 1423.53,3117.79C1418.19,3096.97 1416.82,3052.94 1443.54,3046.95C1453.15,3049.67 1455.78,3055.19 1460.75,3063.72C1473.28,3086.02 1445.84,3132.39 1479.81,3190.71C1467.84,3181.9 1454.28,3172.83 1445.65,3160.68ZM2651.67,3156.89C2644.13,3168.46 2633.59,3176.75 2622.81,3185C2629.23,3165.23 2632.29,3150.46 2636.54,3130.26C2638,3108.1 2635.55,3097.78 2629.7,3076.27C2633.52,3066.93 2638.37,3054.48 2648.22,3049.77C2652.22,3047.84 2656.93,3048.07 2660.72,3050.39C2689.42,3067.9 2673.43,3135.02 2651.67,3156.89ZM2512.35,3048.1C2576.29,3044.56 2535.85,3129.38 2514.49,3156.58L2498.01,3176.48C2496.69,3144.33 2497.24,3103.91 2495.91,3071.06C2495.53,3061.91 2505.15,3053.39 2512.35,3048.1ZM1358.76,3221.12C1351.04,3213.52 1347.88,3202.56 1344.6,3192.45C1340.21,3176.73 1336.62,3151.99 1350.69,3140.21C1375.84,3135.14 1378.84,3183.74 1381.03,3200.45C1382.45,3206.27 1384.67,3214.23 1385.38,3219.93L1395.43,3256.85C1380.04,3246.4 1368.35,3237.46 1358.76,3221.12ZM2733.31,3142.92C2742.62,3141 2740.69,3139.99 2748.43,3142.68C2754.78,3149.63 2756.4,3156.13 2755.88,3165.61C2753.41,3211.49 2733.56,3230.94 2700.2,3258.4C2704.87,3238.83 2709.68,3219.3 2714.65,3199.8C2715.47,3194.66 2716.32,3189.52 2717.2,3184.39C2719.77,3169.39 2721.19,3151.48 2733.31,3142.92ZM2111.85,2594.43C2105.97,2590.89 2106.63,2593.8 2101.13,2588.23C2103.72,2580.2 2110.09,2577.18 2117.62,2570.88C2122.62,2566.01 2125.01,2562.4 2131.79,2561.78C2173.09,2580.16 2126.44,2651.16 2116.17,2673.97C2117.06,2647.37 2110.78,2611.23 2111.9,2594.46C2111.88,2594.49 2111.86,2594.47 2111.85,2594.43ZM1962.08,2560.84C1970.24,2561.73 2001.71,2586.49 2005.1,2593.12C1998.85,2591.16 1997.64,2590.18 1991.16,2591.11C1981.19,2600.05 1980.5,2632.65 1979.69,2646.66L1979.67,2666.74L1975.81,2665.69C1953.16,2639.87 1939.6,2590.62 1962.08,2560.84Z" style="fill:rgb(243,233,217);"/>
    <path d="M360.649,597.252C358.634,595.957 356.626,594.611 354.63,593.212C363.562,593.437 372.516,593.674 381.483,593.941C391.073,593.992 401.003,594.412 405.357,594.525C410.833,594.656 416.375,594.957 421.946,595.41C460.922,597.139 499.928,599.953 538.309,605.349C784.564,638.992 1011.93,755.775 1182.72,936.34C1317.05,1077.68 1429.35,1264.19 1478.45,1453.92C1480.41,1461.51 1472.69,1475.63 1468.86,1482.48C1331.76,1727.81 1350.18,2014.64 1516.88,2236.14C1405.61,2155.51 1341.88,2040.43 1319.59,1905.74C1299.17,1782.3 1314.93,1687.51 1352.25,1570.54C1322.73,1591.67 1287.91,1625.71 1262.54,1652.17C1134.05,1786.14 1022.76,1936.38 898.524,2074.37C892.638,2080.91 882.119,2093.4 875.683,2098.71C870.675,2104.02 863.914,2111.65 858.576,2116.27C854.574,2120.75 845.325,2130.54 842.269,2135L840.656,2136.03C824.951,2151.48 732.737,2240.87 716.759,2247.95C717.177,2243.9 772.41,2171.23 778.579,2164.95C780.098,2159.79 784.098,2156.42 787.85,2152.34C794.533,2138.95 838.628,2084.23 849.822,2069.28C914.877,1981.41 981.302,1894.57 1049.07,1808.77L1052.28,1803.92C1057.7,1799.11 1085.2,1764.68 1091.26,1757.37C1114.56,1729.03 1138.57,1701.27 1163.27,1674.14C1237.32,1592.27 1285.42,1558.47 1370,1493.61L1369.08,1490.63C1353.88,1479.8 1266.92,1462.36 1244.47,1457.73C1014.96,1410.35 773.567,1409.68 541.239,1435.33C523.503,1437.28 496.015,1442.98 479.626,1442.5C520.418,1433.64 572.085,1411.15 620.783,1399.81C815.428,1353.96 1018.22,1355.38 1212.21,1403.94C1235.65,1409.6 1258.86,1416.17 1281.79,1423.64C1299.53,1429.38 1388.39,1463.56 1399.4,1462.49C1403.61,1455.94 1402.52,1446.17 1400.79,1438.9C1342.34,1193.35 1158.49,953.5 952.635,813.887L941.26,806.314C842.822,742.365 734.115,695.829 619.896,668.744C593.414,662.326 566.709,657.146 540.054,651.831C529.892,650.83 517.29,649.03 501.967,646.276L499.997,651.643C521.237,662.421 551.477,685.764 571.877,700.056C721.197,805.334 851.787,934.91 958.237,1083.39C974.757,1106.27 1012.7,1162.01 1020.8,1189.08L1023.38,1191.38C1032.64,1201.33 1040.41,1215.54 1045.68,1228.03C1047.33,1229.57 1068.82,1262.14 1073.64,1268.58C891.227,1258.14 708.827,1289.43 540.327,1360.08C492.887,1379.79 446.557,1404.04 400.147,1426.42C402.607,1423.64 405.727,1421.09 408.207,1418.33C506.747,1308.64 546.377,1144.79 544.177,1002.61L543.127,990.289C542.877,981.925 542.347,973.572 541.547,965.243C530.527,852.893 483.057,744.755 414.097,656.467C404.397,644.045 384.407,616.304 372.847,607.076L361.057,597.839L360.649,597.252ZM2676.41,2143.33C2662.31,2162.03 2608.39,2216.67 2589.53,2227.88C2593.69,2220.35 2602.63,2207.6 2607.81,2200.47C2626.11,2175.28 2638.45,2146.95 2654.72,2120.85C2656.35,2114.63 2662.08,2101.85 2664.76,2095.36L2670.25,2083.69C2742.09,1898.99 2728.77,1732.96 2661.93,1548.5C2651.02,1518.39 2628.2,1493.15 2615.97,1464.88C2611.54,1454.62 2637.72,1390.66 2640.93,1376.94C2724.95,1140.19 2900,903.254 3114.22,769.462C3186.82,721.947 3265.15,683.813 3347.34,655.967C3456.16,618.3 3570.17,597.727 3685.3,594.981C3694.07,594.752 3725.47,593.28 3731.13,596.089L3729.6,598.295L3717.81,607.532C3706.25,616.76 3686.26,644.501 3676.56,656.923C3607.6,745.211 3560.13,853.349 3549.11,965.699C3548.31,974.028 3547.78,982.381 3547.53,990.745L3546.48,1003.07C3544.28,1145.25 3583.91,1309.1 3682.45,1418.79C3684.93,1421.55 3688.05,1424.1 3690.51,1426.88C3644.1,1404.5 3597.77,1380.25 3550.33,1360.54C3381.83,1289.89 3199.43,1258.6 3017.02,1269.04C3021.84,1262.6 3043.33,1230.03 3044.98,1228.49C3050.25,1216 3058.02,1201.79 3067.28,1191.84L3069.86,1189.54C3077.96,1162.47 3115.9,1106.73 3132.42,1083.85C3238.87,935.366 3369.46,805.79 3518.78,700.512C3539.18,686.22 3569.42,662.877 3590.66,652.099L3588.69,646.732C3425.92,675.978 3308.46,710.801 3165.61,800.399C2940.71,950.249 2763.03,1172.09 2695.4,1436.8C2693.87,1442.82 2693.79,1448.16 2695.68,1454.06C2705.37,1460.21 2720.45,1453.97 2730.8,1450.63C2778.74,1435.19 2827.38,1416.97 2876.28,1404.9C3050.18,1361.6 3231.19,1355.01 3407.78,1385.55C3449.99,1392.92 3486.92,1404.57 3527.58,1413.32C3554.16,1421.21 3594.64,1433.76 3619.79,1444.69C3610.2,1443.26 3535.44,1433.21 3530.17,1430.56C3276.15,1404.97 2999.96,1414.42 2752.82,1480.86C2744.91,1482.98 2737.35,1484.86 2731.57,1491.23C2731.96,1497.45 2789.12,1540.6 2797.87,1547.84C2939.2,1664.72 3050.7,1810.74 3161.65,1956.89L3290.81,2129.3C3302.59,2145.06 3330.2,2185.26 3340.97,2197.3C3357.66,2216.54 3373.66,2236.36 3388.94,2256.74C3372.54,2245.5 3351.48,2230.13 3338.36,2214.93C3331.96,2208.21 3323.15,2201.27 3316.15,2194.87C3169.38,2060.64 3050.99,1896.89 2920.27,1747.67C2870,1690.28 2807.91,1617.69 2747.08,1572.78C2756.33,1604.86 2764.76,1637.28 2772.06,1669.87C2806.39,1822.96 2780.3,2020.2 2676.41,2143.33ZM3426.8,2224.18C3409.96,2203.79 3384.7,2161.26 3370.68,2138.12C3291.96,2008.19 3238.97,1875.89 3180.59,1736.74L3177.08,1731.67C3175.7,1726.44 3169.49,1714.78 3166.81,1709.35C3220.47,1654.02 3322.46,1595.67 3393.96,1566.08C3408.91,1559.89 3430.97,1549.86 3446.22,1546.21L3450.22,1544.83C3495.68,1530.5 3610.43,1502.33 3655.69,1510.06C3625.69,1539.42 3604.03,1562.02 3576.41,1593.39C3574.52,1595.65 3573.56,1597.33 3571.25,1598.83C3532.75,1648.93 3479.19,1728.42 3461.48,1790.34C3457.39,1802.24 3452.74,1815.01 3449.25,1827.01C3441.73,1851.31 3432.84,1879.81 3429.2,1904.84C3428.69,1907.75 3425.72,1925.79 3425.14,1927.42C3410.93,2015.25 3415.43,2128.85 3436.66,2214.86C3440.78,2228.68 3443.94,2239.72 3449.52,2253.04C3441.78,2243.51 3433.96,2234.15 3426.8,2224.18ZM2443.78,2682.22C2443.43,2649.74 2441.35,2601.85 2434.51,2570.82C2432.66,2576.66 2430.62,2582.44 2428.41,2588.15C2385.12,2698.79 2292.36,2820.96 2181.96,2869.81C2239.03,2793.02 2243.2,2722.92 2288.98,2650.63C2328.91,2587.58 2408.31,2521.49 2444.66,2451.54C2455.77,2430.17 2464.7,2410.91 2474.7,2389.01C2483.14,2372.15 2487.94,2357.49 2492.4,2339.11C2495.7,2350.23 2504.9,2379.49 2505.35,2389.77C2511.28,2405.03 2513.2,2427.95 2514.6,2444.29C2521.33,2522.94 2504.39,2619.47 2463.35,2688.31C2457.85,2701.23 2449.83,2716.75 2443.63,2729.63C2444.28,2714.13 2443.9,2697.8 2443.78,2682.22ZM1898.65,2857.21C1887.53,2852.81 1860.32,2830.47 1849.82,2822.87C1759.21,2757.2 1694.57,2665.41 1657.77,2560.02C1652.84,2618.59 1652.64,2668.02 1654.6,2726.32L1651.58,2720.77C1591.37,2609.28 1560.32,2491.4 1598.03,2365.82L1605.44,2340.4C1608.45,2349.55 1611.69,2360.67 1615.72,2369.24C1639.44,2433.98 1683.81,2508.05 1733.1,2557.21C1802.22,2626.12 1820.12,2669.02 1857.09,2756.15C1871.77,2790.68 1888.49,2824.29 1907.19,2856.82C1910.22,2861.19 1910.1,2860.86 1911.27,2866.05C1905.13,2864.62 1904.07,2862.04 1898.65,2857.21ZM2055.05,3342.47C2062.77,3395.14 2074,3446.82 2081.05,3499.45C2081.97,3506.34 2053.89,3533.23 2047.89,3538.07C2032.04,3524 2024.75,3515.65 2013.66,3497.7C2027.63,3439.78 2031.81,3401.9 2041.07,3346.22C2043.48,3332.04 2044.96,3312.71 2049.23,3299.93C2052.29,3305.31 2054.23,3334.21 2055.05,3342.47ZM668.739,1913.33C640.515,1773.09 587.006,1668.51 489.063,1564.08C471.028,1544.85 451.224,1526.37 432.512,1507.6C544.599,1511.46 655.786,1545.88 757.96,1591.2C820.332,1618.86 874.942,1661.56 926.666,1705.42C922.897,1716.5 917.602,1729.16 913.256,1740.22L908.28,1751.42C902.62,1767.36 895.699,1782.66 888.933,1798.16L885.375,1808.75C882.893,1814.28 881.384,1816.7 880.078,1822.62L874.624,1834.52C827.743,1952.28 758.234,2088.95 690.357,2195.05C682.066,2208.01 665.609,2234.04 655.765,2244.02L653.463,2244.86C653.127,2240.5 652.526,2242.5 654.115,2239.85C661.062,2228.27 665.576,2197.81 667.275,2183.42L667.746,2180.27C678.932,2126.22 681.824,2053.79 678.513,1998.38C676.754,1979.37 674.886,1960.37 672.91,1941.38C671.909,1933.54 670.514,1925.62 669.229,1917.81L668.739,1913.33ZM1326.26,2549.98C1347.11,2590.31 1349.98,2756.12 1330.92,2797.71C1323.37,2786.76 1308.55,2755.25 1299.95,2740.48C1201.69,2571.8 1051.68,2429.89 870.274,2354.67C825.609,2336.15 782.54,2325.33 736.045,2313.08C756.969,2309.08 787.558,2297.97 808.105,2290.7C973.736,2232.1 1140.06,2251.09 1254.98,2395.84L1267.9,2414.4L1279.8,2433.35L1280.93,2436.24C1297.02,2456.84 1323.07,2523.67 1326.26,2549.98ZM2755.89,2761.57C2735.47,2572.14 2804.97,2344.55 3003.72,2280.87C3008.95,2277.99 3014.23,2276.91 3020,2275.32C3108.99,2249.06 3183.39,2259.89 3269.81,2286.39C3295.33,2294.21 3328.6,2306.92 3354.2,2311.54C3305.4,2324.26 3265.69,2334.2 3218.54,2354.46C3048.84,2427.38 2907.69,2558.6 2813.67,2716.68C2804.57,2731.98 2788.45,2764.14 2779.89,2776.3C2774.64,2787.71 2768.95,2798.7 2763.24,2809.89C2759.96,2793.92 2757.51,2777.79 2755.89,2761.57ZM2174.91,3279.04C2169.77,3264.04 2167.56,3248.94 2164.81,3233.35L2180.91,3250.29C2210.32,3278.5 2268.92,3323.85 2311.38,3329.77C2324.46,3331.6 2352.42,3328.1 2364.79,3332.11C2359.13,3335.91 2346.43,3338.99 2339.38,3341.95C2313.15,3352.97 2286.96,3361.06 2261.05,3372.85C2253.18,3376.44 2224.67,3390.18 2219.19,3390.29C2205.78,3375.07 2178.41,3298.75 2174.91,3279.04ZM1863.69,3385.75C1819.51,3364.77 1766.23,3347.82 1728.26,3329.19C1827.06,3339.79 1862.44,3298.94 1931.94,3236.73C1925.52,3274.35 1900.68,3359.13 1879.71,3390.74C1874.2,3392.58 1874.73,3391.39 1867.81,3388.87L1863.69,3385.75ZM1638.85,1795.52C1642.92,1799.94 1709.31,1932.05 1715.14,1945.69C1697.95,1962.85 1685.91,1980.07 1674.55,2001.35L1659.62,2035.68C1637.28,1959.06 1627.33,1874.66 1638.85,1795.52ZM2455.05,1795.6C2474.02,1823.95 2448.21,2003.79 2433.81,2038.61C2430.29,2025.97 2426.67,2016.78 2421.91,2004.58C2407.04,1976.4 2404.31,1969.02 2383.05,1944.69C2400.78,1902.79 2434.47,1837.21 2455.05,1795.6Z" style="fill:rgb(66,73,73);"/>
    <path d="M1892.81,1851.16C1970.67,1839.22 2024.51,1833.89 2103.62,1841.08C2143.28,1844.69 2162.79,1842.99 2203.29,1855.25C2208.3,1887.75 2205.02,1921.43 2200.85,1953.82C2199.28,1966.07 2188.67,2011.53 2190.87,2017.55C2170.45,2046.91 2074.25,2177.04 2052.36,2191.02C2028.29,2186.78 1929.93,2042.74 1909.71,2015.94C1907.6,1997.51 1898.87,1979.98 1895.64,1962.19C1889.25,1926.98 1889.88,1886.76 1892.81,1851.16Z" style="fill:rgb(66,73,73);fill-rule:nonzero;"/>
    <path d="M1895.15,2091.78C1903.31,2097.65 1915.29,2110.65 1923.11,2117.97C1974.27,2165.86 1983.38,2209.76 1998.89,2274.96C2017.56,2262.16 2030.36,2252.13 2047.74,2237.93C2065.96,2254.14 2076.9,2260.95 2097.82,2274.02C2110.17,2239.79 2114.86,2202.47 2133.38,2170.14C2151.32,2138.81 2177.06,2111.77 2204.96,2089.15C2174.84,2142.44 2163.84,2192.51 2150.66,2251.03C2170.54,2227.26 2307.28,2099.32 2333.83,2098.52L2335.94,2100.91C2338.72,2130.05 2330.91,2144.57 2314.51,2168.11L2330.01,2185.63C2329.87,2221.97 2322.56,2290.37 2295.15,2316.79C2271.72,2339.38 2243.98,2342.19 2213.6,2341.52C2199.02,2339.24 2157.4,2340.78 2145.86,2351.5C2128.79,2367.33 2128.32,2381.9 2124.87,2402.92C2118.33,2409.64 2117.01,2411.63 2108.98,2415.98C2107.75,2415.8 2106.52,2415.61 2105.29,2415.43C2103.34,2406.74 2099.19,2372.55 2097.18,2366.79C2087.65,2339.46 2067.33,2320.69 2047.97,2301.92C2024.91,2322.69 2001.7,2344.62 1995.95,2376.74C1994.14,2386.84 1994.13,2409.19 1984.09,2412.55C1964.59,2399.88 1976,2364.03 1941.78,2342.49C1873.11,2337.36 1797.73,2359.52 1778.02,2264.89C1771.38,2233.01 1752.77,2194.66 1780.89,2171.33C1771.51,2153.53 1755.59,2123.31 1758.8,2103.12C1762.46,2097.73 1760.05,2099.34 1766.03,2097.76C1791.66,2107.71 1921.08,2223.73 1946.82,2251.8C1936.67,2215.06 1931.72,2176.99 1917.89,2139.96C1911.86,2123.81 1898.63,2104.95 1895.15,2091.78Z" style="fill:rgb(23,31,28);fill-rule:nonzero;"/>
    <path d="M1826.69,2206.54C1839.59,2213.2 1849.18,2238.41 1857.12,2251.69C1877.12,2285.15 1898.98,2277.31 1926.87,2284.77C1927.01,2291.11 1924.31,2291.84 1919.07,2298.32C1915.19,2300.78 1911.1,2302.88 1906.85,2304.61C1853.31,2326.33 1800.57,2257.74 1826.69,2206.54ZM2268.47,2207.25C2298.11,2229.93 2258.94,2335.04 2183.71,2301.76C2176.1,2295.84 2170.53,2289.08 2164.05,2281.93C2234.13,2292.87 2234.23,2247.96 2266.7,2209.32L2268.47,2207.25Z" style="fill:rgb(243,233,217);"/>
</svg>
