<?xml version="1.0" encoding="UTF-8" standalone="no"?>
<!DOCTYPE svg PUBLIC "-//W3C//DTD SVG 1.1//EN" "http://www.w3.org/Graphics/SVG/1.1/DTD/svg11.dtd">
<svg width="100%" height="100%" viewBox="0 0 4096 4096" version="1.1" xmlns="http://www.w3.org/2000/svg" xmlns:xlink="http://www.w3.org/1999/xlink" xml:space="preserve" xmlns:serif="http://www.serif.com/" style="fill-rule:evenodd;clip-rule:evenodd;stroke-linejoin:round;stroke-miterlimit:2;">
    <path d="M3610.58,884.038C3625.75,908.878 3644.67,934.686 3660.82,959.713C3767.21,1124.57 3777.96,1353.79 3649.86,1510.58C3634.29,1529.63 3616.23,1537.3 3607.53,1560.33C3626.29,1623.97 3604.2,1706.19 3576.74,1765.31C3568.61,1782.81 3523.46,1830.25 3522.14,1843.16C3515.22,1910.99 3526.48,1994.05 3526.02,2062.1C3525.71,2108.98 3515.95,2144.4 3523.87,2189.52C3525.5,2197.37 3535.31,2218.48 3538.65,2231.39C3552.67,2285.62 3556.93,2347.22 3535.64,2400.15C3529.91,2414.4 3503.37,2446.8 3493.34,2461.36C3458.51,2511.89 3421.46,2566.85 3374.61,2606.85C3373.9,2607.45 3369.7,2610.22 3368.92,2610.73C3354.69,2601.08 3353.12,2600.1 3336.31,2598.32C3325.62,2637.34 3317.06,2677.62 3302.92,2715.56C3292.54,2739 3278.2,2763.2 3268.84,2786.78C3261.43,2805.47 3310.3,2838 3314.89,2854.51C3340.76,2947.5 3389.46,3033.01 3436.68,3116.73C3449.56,3139.55 3463.42,3164.1 3477.59,3186.36C3532.8,3273.96 3615.3,3333.88 3684.54,3408.9C3731.45,3460.25 3769.64,3518.93 3797.61,3582.61C3800.08,3588.22 3799.63,3592.14 3801.79,3597.98C3807.25,3612.71 3819.3,3628.88 3817.71,3645.2C3817.19,3650.56 3814.01,3651.84 3810.47,3654.37C3787.74,3657.62 3755.24,3656.59 3731.58,3656.3C3647.12,3655.17 3562.56,3657.88 3478.15,3655.29C3463.11,3654.83 3444.29,3649.53 3429.92,3649.48C3389.13,3649.34 3352.02,3639.97 3311.57,3640.94C3259.79,3602.5 3262.1,3489.24 3247.99,3475.62C3239.85,3467.76 3215.98,3472.54 3205.49,3473.63L3194.08,3461.04C3189.45,3395.19 3180.82,3348.8 3153.48,3287.95C3144.78,3268.58 3135.55,3249.17 3123.15,3231.84C3111.98,3216.24 3098.03,3201.89 3085.23,3187.56C3065.32,3165.26 3045.05,3143.98 3022.47,3124.3C3006.67,3110.53 2948.81,3057.43 2930.54,3058.66C2911.14,3059.97 2893.27,3071.24 2874.81,3076.52C2835.75,3087.69 2666.67,3129.57 2635.87,3108.58C2631.74,3105.77 2631.05,3101.12 2631.17,3096.46C2631.65,3078.05 2673.21,3028.03 2683.19,3005.7C2697.21,2974.29 2702.9,2939.13 2708.81,2905.54C2710.71,2894.72 2717.54,2879.83 2710.82,2870.39C2696.89,2865.7 2672.13,2899.59 2660.62,2908.61C2592.76,2961.78 2525.53,3006.13 2442.69,3032.89C2425.56,3038.43 2386.15,3047.5 2376.29,3059.75C2373.34,3075.51 2436.03,3186.3 2448.48,3204.37C2450.95,3207.98 2453.53,3211.52 2456.21,3214.98C2457.04,3249.36 2449.8,3271.69 2443.84,3304.82C2427.48,3395.64 2393.26,3474.41 2329.07,3541.61C2306.86,3564.86 2172.84,3612.24 2157.42,3617.54C2130.34,3626.85 2096.17,3643.38 2067.23,3638.13C2059.06,3636.17 2039.18,3621.55 2032.5,3616.14C2012.49,3599.93 1992.06,3584.98 1972.13,3568.72C1963.11,3561.37 1952.4,3550.11 1943.5,3542.12C1943.5,3542.11 1933.46,3539.98 1933.46,3539.98C1914.39,3514.15 1908.48,3486.82 1904.25,3459.61C1893.13,3388.03 1890.47,3319.7 1937.29,3259.3C1946.78,3247.05 1971.69,3217.91 1982.41,3207.89C1984.09,3188.21 1989.64,3170.64 1972.24,3157.91L1966.1,3153.4C1866.1,3149.61 1769.07,3107.68 1682.24,3062.98C1681.65,3062.92 1681.06,3062.86 1680.48,3062.81C1676.27,3058.72 1675.17,3057.19 1671.7,3052.64C1671.03,3030.48 1740.05,3046.34 1754.54,3030.91L1753.55,3027.09C1743.33,3022.22 1686.1,2994.07 1678.18,2994.12C1655.04,2985.99 1563.38,2929.73 1547.7,2912.27C1540.33,2910.95 1532.98,2909.54 1525.64,2908.05C1525.21,2908.71 1524.78,2909.38 1524.33,2910.03C1511.66,2928.35 1437.73,2988.39 1442.12,3003.79C1444.2,3011.11 1450.03,3019.04 1453.48,3026C1457.29,3033.71 1459.79,3041.99 1463.75,3049.64C1471.02,3063.64 1481.53,3076.34 1490.52,3089.28C1510.29,3117.74 1524.3,3146.89 1548.98,3172.23C1565.29,3188.99 1584.46,3203.98 1602.35,3219.04C1697.6,3299.24 1783.39,3352.34 1831.65,3473.64C1839.41,3493.14 1849.34,3514.02 1852.63,3534.79C1852.77,3535.68 1852.94,3536.58 1853.07,3537.48C1854.14,3544.7 1834.48,3545.11 1830.24,3543.68C1816.88,3539.19 1523.99,3541.01 1493.7,3543.72C1477.95,3545.13 1463.96,3546.97 1449.93,3554.83C1433.06,3501.61 1434.59,3441.94 1414.42,3389.62C1405.29,3365.94 1355.39,3367.95 1340.92,3352.62C1309.75,3319.61 1294.11,3275.29 1272.93,3235.87C1252.94,3198.99 1232.22,3162.51 1210.78,3126.46C1170.85,3060.77 1126.86,2997.64 1079.07,2937.43C1079.54,2927.07 1134.68,2874.83 1145.64,2855.42C1161.1,2828.04 1216.81,2718.58 1201.04,2692.06C1188.1,2687.96 1075.36,2652.43 1067.61,2658.76C1051.39,2672 1028.49,2726.02 1015.03,2745.3C941.365,2838.71 849.944,2911.7 750.358,2976.08C730.863,2988.68 677.066,3016.12 659.288,3035.16C642.566,3096.3 625.829,3161.42 610.707,3223.18C618.638,3255.46 663.713,3305.21 679.166,3337.04C689.246,3357.8 706.297,3379.73 717.606,3400.46C737.895,3437.16 754.777,3475.63 768.038,3515.41C773.71,3532.96 776.477,3559.55 782.821,3570.89C781.225,3583.59 773.022,3584.3 762.009,3585.06C734.041,3586.99 699.031,3581.7 671.892,3586.3L675.316,3582.87C674.221,3535.53 608.629,3429.81 582.235,3387.03C585.662,3411.79 608.453,3582.06 613.769,3588.86L623.03,3588.71L620.477,3591.2C576.607,3590.47 532.598,3593.28 488.622,3592.29C464.509,3591.75 440.966,3586.9 416.977,3585.34C399.933,3584.23 382.752,3584.96 365.737,3583.55C349.996,3582.24 334.438,3578.94 318.699,3577.66C306.87,3576.7 294.895,3577.32 283.156,3575.38C277.405,3574.43 271.368,3572.9 266.831,3569.07C259.67,3563.03 308.267,3441.44 311.091,3423.87C316.107,3392.67 245.214,3368.46 248.415,3331.77C249.983,3313.8 263.525,3291.94 269.537,3274.45C281.667,3239.15 293.473,3202.72 302.603,3166.54C320.926,3091.81 337.875,3016.76 353.442,2941.4C360.827,2904.38 360.482,2869.83 373.498,2834.18C376.535,2825.86 387.438,2814.89 393.133,2806.4C410.859,2779.96 451.241,2729.54 457.318,2699.67C459.421,2671.83 451.637,2640.84 449.151,2613.92C442.973,2545.35 435.704,2476.88 429.523,2408.32C428.971,2402.2 381.737,2391.88 373.094,2388.45C327.912,2370.54 294.965,2349.21 258.818,2317.15C211.116,2274.85 197.427,2221.63 192.991,2159.89C194.074,2141.95 196.809,2110.02 202.566,2094.01C217.583,2052.27 241.014,1993.61 272.612,1961.84C274.487,1948.99 243.958,1915.59 235.369,1899.25C175.375,1785.13 218.472,1662.93 259.457,1546.65C303.724,1521.81 292.13,1591.95 297.136,1618.55L297.696,1621.41C304.515,1604.29 316.929,1571.33 326.06,1556.71C349.024,1519.94 385.703,1485.23 413.854,1452.26C463.087,1404.09 553.189,1326.7 620.03,1308.29L623.49,1309.36C624.169,1311.01 624.847,1312.65 625.526,1314.29C612.322,1349.2 599.037,1382.29 594.063,1419.77C591.983,1435.43 593.124,1452.73 591.629,1468.26C586.466,1521.92 593.772,1569.6 599.432,1622.45C605.877,1682.61 590.765,1752.97 569.256,1809.02C546.891,1864.72 496.039,1928.36 444.485,1959.34C396.566,1988.15 404.3,1967.87 374.782,2024.5C351.879,2068.43 315.342,2115.45 336.245,2170.52C347.537,2199.65 380.287,2224.13 408.494,2236.09C413.562,2238.24 437.13,2248.09 441.673,2247.97L446.997,2246.36C453.567,2236.3 471.231,2184.84 477.501,2169.23C490.804,2136.1 505.857,2108.35 520.871,2076.07C530.893,2054.53 535.531,2033.22 548.247,2010.43C583.896,1946.56 632.468,1889.53 676.31,1831.07C687.446,1816.22 709.809,1795.79 718.045,1782.2C729.238,1761.81 734.949,1737.65 743.363,1716.14C762.915,1666.16 827.187,1529.51 837.519,1511.42C882.416,1432.79 930.556,1355.42 980.24,1279.73C1033.59,1201.65 1104.31,1121.73 1169.86,1053.81C1204.2,1018.24 1241.04,984.438 1277.12,950.576C1287,941.302 1328.08,910.251 1331.66,900.725C1322.85,897.453 1229.74,925.837 1214.52,931.412C1194.14,938.531 1146.97,956.394 1128.75,960.682C1134.85,951.409 1141.17,942.282 1147.71,933.309C1162.14,909.736 1183.42,881.217 1199.22,857.665C1199.29,856.518 1199.34,854.032 1199.95,853.118C1292.05,717.005 1421.13,613.15 1562.08,530.985C1590.36,514.501 1637.26,507.878 1665.95,492.214C1668.39,486.924 1668.24,489.566 1666.4,484.03C1655.92,477.733 1648.36,482.783 1636.69,476.438C1626.26,472.16 1619.09,469.446 1608.22,466.054C1598.43,463.532 1566.65,454.567 1567.49,443.702C1578.07,432.957 1607.55,428.276 1622.23,422.839C1716.52,387.708 1816.72,371.932 1917.14,374.011C1968.87,375.082 2005.89,375.744 2057.34,386.854C2072.27,390.077 2140.35,406.588 2149.29,405.406L2150.41,402.59C2139.31,379.016 2112.33,363.121 2098.37,338.44C2090.34,329.518 2083.26,324.477 2073.85,317.255L2073.35,313.215L2076.97,310.749C2093.01,308.364 2149.79,317.759 2162.49,324.5C2168.18,327.118 2168,326.051 2173.08,327.15C2200.91,333.176 2231.07,343.619 2257.88,352.548C2426.42,408.486 2579.83,502.427 2706.27,627.112C2725.58,646.47 2751.38,672.947 2768.23,694.569C2770.18,697.124 2772.05,699.748 2773.81,702.437C2869.35,706.942 2963.9,727.595 3053.58,759.993C3063.9,763.719 3105.96,777.463 3113.45,781.495C3173.91,814.05 3240.23,851.491 3292.89,895.509C3315.97,914.802 3348.04,950.38 3369.23,973.321C3393.86,999.98 3420.62,1037.18 3442.74,1066.49C3456.74,1085.06 3490.07,1149.5 3498.18,1156.88C3515.02,1161.06 3529.29,1132.49 3539.01,1119.15C3559.64,1090.85 3575.39,1056.24 3583.24,1021.95C3585.29,1012.98 3590.58,935.423 3589.6,910.061C3589.2,899.743 3584.7,878.181 3587.03,870.18C3597.86,862.371 3604.82,875.804 3610.58,884.038ZM526.566,2805.91C533.109,2798.03 536.5,2791.97 540.527,2783.24L526.566,2805.91ZM2180.62,1305.98C2182.96,1313.12 2188.63,1331.65 2191.51,1337.47L2192.28,1340.26C2200.42,1362.9 2214.23,1391.03 2229.12,1409.87L2232.54,1414.44C2269.55,1473.99 2336.43,1520.1 2404.58,1535.53C2423.38,1539.78 2447.75,1542.69 2467.2,1545.54C2503.07,1525.78 2540.17,1486.52 2556.48,1448.81C2573.3,1414.26 2579.01,1368.07 2576.88,1329.97C2513.85,1321.9 2468.04,1303.03 2423.01,1257.64C2413.96,1247.58 2407.62,1238.55 2399.72,1227.59C2382.67,1201.42 2376.73,1184.27 2367.09,1155.32C2365.44,1145.9 2363.04,1135.84 2361,1126.43C2350.7,1032.93 2374.33,947.422 2423.38,868.036L2439.82,847.436C2414.28,854.672 2386.2,864.193 2363.84,878.821C2281.62,921.438 2214.13,1020.44 2187.1,1107.41C2166.12,1174.88 2163.82,1237.31 2180.62,1305.98ZM3345.08,2503.03C3351.89,2505.1 3355.54,2507.77 3360.39,2505.54C3368.39,2488.58 3376.35,2452.05 3377.4,2433.57C3364.76,2450.68 3344.47,2476.43 3340.37,2497.05C3342.28,2501.9 3340.59,2500.06 3345.08,2503.03ZM3005.92,1976.84C3021.07,1976.33 3018.58,1977.25 3028.29,1967.78L3025.29,1964.41C3017.08,1966.95 3012.64,1971.45 3005.92,1976.84ZM2880.34,2883.84L2875.21,2891.45L2876.19,2894.3C2884.66,2892.92 2893.75,2887.58 2901.67,2883.63C2891.85,2876.18 2891.07,2879.24 2880.34,2883.84ZM3522.56,1271.89C3526.5,1282.51 3531.14,1296.26 3535.44,1306.45C3536.56,1300.59 3536.24,1298.52 3534.8,1292.71L3533.86,1289.04C3538.82,1266.76 3544.39,1269.29 3563.51,1265.4L3564.4,1261.76L3559.69,1255.06C3562.89,1245.21 3568.1,1244.8 3577.43,1242.02C3582.31,1236.2 3585.11,1231.59 3585.66,1223.93C3561.05,1248.72 3552.34,1254.53 3522.56,1271.89Z"/>
    <path d="M3463.74,2280.5L3458.66,2292.44C3449.45,2308.28 3432.18,2337.01 3418.39,2348.37C3393.2,2371.88 3372.26,2383.75 3338.17,2388.94C3325.22,2390.62 3311.25,2389.35 3298.42,2387.14C3273.25,2383.62 3260.96,2379.77 3237.98,2369.25C3226.18,2364.01 3212.33,2354.05 3202.16,2346.18L3191.85,2339.63C3185.71,2335.17 3178.89,2329.2 3171.72,2327.64C3141.36,2319.63 3121.46,2322.33 3090.72,2328.73C3047.02,2370.8 3048.18,2402.66 3097.6,2439.46C3131.07,2429.55 3163.13,2421.33 3192.62,2447.02L3200.43,2455.06C3208.14,2461.96 3212.69,2470.45 3217.5,2479.64C3184.57,2479.76 3158.88,2480.43 3126.08,2487.46C3116.03,2489.62 3083.11,2500.62 3076.42,2501.33L3057.48,2509.43C3053.67,2510.83 3052.28,2511.25 3048.31,2512.11C3021.04,2494.14 2996.81,2425.63 2997.91,2392.53L2996.56,2388.82C3000.25,2374.06 2998.06,2346.99 3007.93,2327.32C3023.1,2297.1 3050.45,2272.07 3081.58,2259.95C3125.57,2242.83 3152.03,2249.89 3192.75,2266.98C3232.84,2288.59 3245.97,2306.9 3294.77,2309.89C3319.2,2312.17 3333.68,2311 3356.32,2311.94C3364.88,2310.66 3375.87,2310.32 3384.69,2309.79L3384.66,2309.9C3386.68,2310.14 3462.15,2281.38 3463.74,2280.5ZM3463.74,2280.5L3463.75,2280.48C3463.78,2280.48 3463.77,2280.48 3463.74,2280.5ZM3377.4,2433.57C3376.35,2452.05 3368.39,2488.58 3360.39,2505.54C3355.54,2507.77 3351.89,2505.1 3345.08,2503.03C3340.59,2500.06 3342.28,2501.9 3340.37,2497.05C3344.47,2476.43 3364.76,2450.68 3377.4,2433.57Z" style="fill:rgb(249,228,190);"/>
    <path d="M472.906,1553.74C477.44,1637.84 480.809,1740.63 430.643,1812.02C421.058,1825.66 413.538,1855.75 394.527,1856.95C385.582,1849.96 387.394,1828.74 386.769,1817.93C380.963,1717.43 436.027,1637.97 466.427,1547.73L469.293,1539.95L471.312,1540.43C471.848,1544.77 472.521,1549.41 472.906,1553.74ZM2274.33,1741.07C2167.66,1705.25 2064.18,1628.07 2054.73,1507.8C2146.13,1513.62 2193.5,1524.27 2279.53,1557.57L2296.27,1578.89C2302.81,1585.48 2309.6,1592.57 2316.3,1598.95C2310.33,1600.07 2304.04,1600.93 2298.44,1603.12C2247.56,1607.02 2220.43,1608.59 2170.45,1595.21C2214.57,1661.36 2236.05,1685.38 2300.01,1735.5C2306.28,1739.68 2312.63,1743.73 2319.07,1747.64L2319.15,1749.61C2302.44,1751.85 2289.09,1743.82 2274.33,1741.07ZM3566.41,3448.27C3560.47,3435.92 3556.11,3425.47 3551.03,3412.72L3586.77,3450.05C3608.78,3477.74 3658.92,3542.03 3675.49,3573.73C3681.99,3580.84 3701.02,3614.02 3706.27,3623.49C3710.99,3631.17 3716.58,3637.33 3716.94,3645.22C3711.52,3649.71 3711.89,3648.28 3703.41,3649.19C3684.03,3650.64 3664.62,3651.66 3645.2,3652.27C3638.45,3638.72 3630.54,3614.08 3625.26,3598.93C3607.56,3547.98 3587.93,3497.73 3566.41,3448.27ZM3285.28,3069.69L3287.53,3039.48C3294.15,3047.77 3301.93,3056.65 3306.82,3065.9C3320.65,3083.44 3331.78,3111.58 3342.57,3131.9C3367.76,3179.37 3397.12,3223.36 3428.66,3266.79C3432.08,3271.55 3444.72,3288.48 3446.76,3293.38C3457.88,3309.28 3469.61,3326.87 3481.82,3341.78C3468.51,3333.03 3455.47,3323.8 3440.86,3317.53L3435.49,3313.59C3427.82,3309.07 3420.55,3304.26 3413.09,3299.41C3358.84,3262.16 3333.55,3224.87 3306.27,3166.53C3297.85,3144.7 3293.98,3130.76 3288.93,3108.01C3285.83,3096.4 3285.34,3081.6 3285.28,3069.69ZM2457.12,2463.42C2464.94,2481.45 2471.29,2500.09 2476.12,2519.14C2497.97,2605.75 2480.64,2666.55 2436.02,2741.14C2438.72,2722.09 2439.2,2698.84 2440.3,2679.6C2445,2603.94 2440.96,2530.8 2417.22,2458.24C2404.8,2420.27 2385.68,2378.48 2377.91,2339.75C2404.49,2383.77 2435.6,2405.23 2456.96,2461.82L2457.12,2463.42ZM2628.8,2607.33L2631.27,2610.24C2641.33,2699.74 2543.41,2793.42 2478.76,2841.97L2477.67,2841.36C2479.17,2835.53 2506.03,2805.42 2511.34,2799.02C2560.49,2739.78 2600.45,2678.49 2628.8,2607.33ZM2880.34,2883.84L2893.25,2860.4C2908.88,2821.63 2915.06,2804.56 2900.78,2765.88C2896.99,2759.29 2893.34,2749.83 2890.3,2742.63L2886.84,2733.81C2882.37,2729.69 2877.33,2714.68 2875.02,2708.57L2868.96,2694.51C2864.94,2686.25 2856.57,2656.53 2854.14,2646.58C2849.81,2635.2 2844.5,2610.01 2840.95,2596.63C2837.26,2580.33 2834.73,2568.49 2832.61,2552C2831.07,2547.15 2830.72,2542.04 2830.11,2536.96C2824.76,2509.54 2822.26,2478.85 2819.86,2450.88C2800.12,2431.72 2782.43,2410.56 2767.09,2387.73L2765.86,2384.16C2750.11,2370.96 2707.23,2284.87 2700.4,2260.99C2694.99,2242.08 2691.81,2225.75 2688.98,2205.89L2685.15,2206.84C2679.73,2247.73 2675.26,2266.87 2687.25,2309C2688.18,2312.26 2688.1,2313.08 2687.86,2316.34C2686.13,2322.36 2685.72,2327.1 2680.89,2330.63C2675.7,2328.32 2677.35,2329.53 2673.77,2325.16C2584.35,2274.58 2544.41,2210.07 2508.31,2116.21C2477.19,2035.28 2472.27,1980.32 2487.11,1894.23L2489.53,1885.64L2491.46,1877.44L2490.2,1875.6C2450.87,1912.24 2420.29,1973.49 2395.75,2019.84C2392.71,2027.42 2387.83,2040.64 2384.51,2047.65C2384.29,2048.65 2382.62,2052.1 2382.13,2053.19C2379.23,2047.7 2380.04,2045.04 2379.78,2038.34L2379.13,2025.4C2377.76,2009.54 2378.1,1991.65 2378.04,1975.58C2377.92,1963.32 2378.29,1957.43 2379.56,1945.35C2381.73,1849.91 2412.73,1744.05 2462.15,1662.46L2504.5,1637.72C2508.1,1634.47 2511.91,1631.85 2515.82,1629.01C2530.44,1616.74 2540.15,1612.18 2553.66,1597.58L2556.45,1595.93C2619.54,1510.91 2650.39,1499.49 2669.12,1381.77C2669.75,1374.13 2670.54,1366.5 2671.49,1358.89C2719.97,1368.41 2799.13,1418.49 2837.58,1449.75C2786.79,1368.96 2645.22,1204.54 2556.8,1169.3L2553.73,1168.09L2553.1,1165.8C2562.34,1156.59 2582.62,1146.73 2594.95,1142.38C2573.76,1104.34 2542.9,1072.58 2505.5,1050.3C2537.98,1040.78 2543.76,1037.67 2578.82,1030.69L2585.79,1032.41C2636.95,1027.68 2742.42,1050.54 2781.78,1079.85L2787.53,1079.3C2742.11,1002.79 2703.4,960.394 2640.35,899.796C2699.69,898.521 2768.12,906.311 2823.56,928.599L2834.57,932.564C2880.96,950.83 2924.09,976.298 2960.58,1010.35C2949.98,960.425 2924.2,908.087 2898.1,863.986C2894.45,859.382 2888.42,849.096 2885.04,843.731C2896.57,846.82 2908.96,850.76 2920.49,854.172C2990.07,876.07 3059.74,907.343 3121,947.27C3126,950.524 3141.44,960.849 3144.41,964.39C3214.87,1006.3 3324.85,1130.24 3354.86,1206.5C3360.32,1212.34 3374.14,1239.52 3376.85,1247.38C3410.08,1312.01 3438.77,1392.77 3454.18,1463.97C3460.13,1491.44 3462.78,1520.13 3468.42,1547.48C3470.82,1562.91 3472.22,1577.29 3471.69,1592.96C3471.8,1611.69 3471.45,1636.49 3463.24,1653.56C3455.14,1675.24 3441.08,1697.1 3423.81,1712.53C3401.78,1734.02 3380.93,1745.9 3353.85,1760.28C3355.17,1774.34 3353.54,1785.97 3365.73,1794.61L3369.57,1796.22C3377.24,1818.53 3403.36,1870.45 3394.6,1890.41C3407.45,1954.27 3414.48,2010.81 3413.24,2076.37C3410.29,2092.03 3413.19,2121.73 3409.81,2133.14C3409.82,2148.51 3407.52,2186.43 3402.2,2200.29C3392.09,2220.57 3310.94,2208.21 3292.55,2203.03C3262.77,2198.83 3234.14,2186.27 3204.08,2175.79C3072.98,2130.05 2935.58,2219.42 2913.04,2353.39C2909.52,2374.31 2909.84,2403.6 2909.55,2425.56C2910.99,2434.55 2913.79,2454.67 2916.15,2462.4C2920.58,2480.04 2926.56,2497.24 2934.02,2513.82C2927.43,2532.23 2915.83,2562.38 2919.01,2581.58C2922.39,2586.75 2922.91,2586.31 2928.66,2589.04C2942.73,2591.86 2957.79,2598.05 2971.47,2600.85C3004.19,2606.46 3023.46,2605.95 3055.96,2599.23C3069.65,2595.33 3074.6,2593.46 3087.5,2587.43L3088.28,2587.19C3124.94,2570.98 3160.43,2564.63 3200.25,2563.13C3210.1,2563.66 3218.41,2563.92 3228.18,2565.54L3232.22,2567.44C3231.81,2570.66 3231.4,2573.65 3230.87,2576.84C3224.44,2591.09 3211.95,2638.62 3205.63,2646.48C3203.66,2651.02 3195.61,2670.77 3193.37,2672.48C3186.05,2692.93 3162.17,2733.43 3149.72,2751.77C3146.06,2757.54 3140.03,2767.92 3135.47,2772.38C3124.85,2787.32 3079.75,2843.06 3066.65,2850.32C3056.62,2862.44 3030.18,2883.08 3016.48,2891.79C3019.38,2885.58 3031,2859.51 3034.76,2856.1C3037.27,2848.84 3046.65,2831.57 3050.53,2824.06C3058.56,2806.64 3090.71,2725.71 3077.78,2712.26C3067.25,2716.68 3048.81,2754.64 3038.99,2769.44L3032.2,2778.68L3026.23,2787C3016.02,2799.79 3011.33,2805.13 2999.44,2816.29C2988.45,2826.45 2976.91,2837.9 2964.38,2845.85C2956.78,2853.2 2941.6,2861.46 2932.16,2866.84C2922.44,2873.06 2911.91,2878.27 2901.67,2883.63C2893.75,2887.58 2884.66,2892.92 2876.19,2894.3L2875.21,2891.45L2880.34,2883.84ZM1280.53,2394.92C1281.77,2405.02 1284.3,2415.24 1286.5,2425.22C1203.5,2405.6 1117.35,2381.74 1037.57,2351.33C1011.48,2341.39 980.966,2326.82 955.038,2315.27C933.034,2265.8 921.96,2112.12 924.666,2056.54L918.856,2049.94C915.19,2061.78 911.72,2073.98 907.086,2085.44C904.465,2094.89 901.76,2105.64 898.685,2114.85C879.21,2184.66 863.414,2255.44 851.361,2326.91C838.01,2402.14 827.748,2479.07 815.316,2554.53C809.828,2587.84 804.469,2640.04 796.877,2671.62C794.382,2682.4 790.216,2692.73 784.529,2702.23C771.186,2724.46 749.741,2745.21 732.292,2764.49C670.867,2832.38 602.094,2890.18 532.186,2949.06C515.454,3008.09 500.641,3069.57 484.805,3129.1C470.557,3182.66 451.324,3245.39 440.247,3299.25C419.814,3295.66 384.487,3290.3 365.984,3284.58C395.166,3202.11 416.756,3100.63 433.961,3014.4C440.795,2980.16 449.298,2934.58 452.811,2900.36C461.852,2889.74 526.989,2805.7 526.566,2805.91L540.527,2783.24C554.427,2757.36 563.574,2743.61 569.948,2714.62C541.914,2636.46 518.582,2455.6 535.829,2374.14C555.373,2172.32 653.167,2026.05 774.715,1870.06C792.269,1847.53 812.952,1826.56 830.637,1804.22C833.93,1789.21 839.136,1775.07 843.693,1760.56C899.482,1582.95 1010.54,1438.47 1129.04,1297.58C1259.93,1143.08 1415.12,1004.97 1584.97,894.498C1632.25,863.754 1702.35,831.654 1753.34,806.702C1657.7,772.471 1619.29,763.741 1515.05,774.698C1653.66,649.519 1805.37,609.45 1987.71,618.165C1960.96,583.276 1923.87,554.493 1891.83,525.245C1883.82,520.522 1870.75,510.739 1862.72,505.059L1918.21,506.444C2041.19,512.174 2161.94,541.385 2273.94,592.5C2300.23,604.58 2327.51,617.431 2351.05,634.209C2347.12,628.124 2343.24,622.011 2339.4,615.868C2325.9,602.618 2296.54,561.307 2282.94,543.932L2272.13,531.794C2320.5,545.908 2453.79,619.175 2490.28,650.189C2508.61,665.764 2549.03,702.411 2563.4,721.794C2532.96,727.28 2508.04,733.954 2478.14,741.337C2360.87,780.263 2297.35,818.324 2208.82,904.599C2202.14,912.682 2198.47,916.496 2190.79,923.655C2179.22,938.366 2167.31,953.907 2155.44,968.293C2148.58,979.24 2134.81,1002.42 2126.13,1010.36C2120.42,1023.97 2105.47,1024.55 2091.48,1028.5C1958.95,1080.8 1845.38,1172.05 1765.76,1290.21C1841.84,1256.45 1905.17,1234.64 1990.09,1233.04C1885.84,1318.67 1816.44,1406.26 1803.02,1546.82C1802.63,1550.81 1802.39,1554.82 1802.3,1558.83C1841.88,1542.84 1860.5,1530.92 1895.47,1506.75C1855.36,1583.08 1822.11,1697.51 1829.19,1783.54L1830.62,1803.9C1844.21,1893.53 1845.46,1922.08 1879.94,2010.47C1880.63,1952 1894.6,1916.67 1936.66,1873.65C1944.52,1865.62 1970.88,1842.27 1981.12,1840.62C1981.95,1847.74 1981.4,1849.24 1980.15,1856.1L1980.42,1874.82C1981.8,1920.67 1997.51,1972.25 2018.21,2012.72C2033.17,2041.98 2044,2052.92 2048.91,2088.51C2051.36,2106.26 2063.1,2134.05 2070.9,2150.64L2071.56,2152.42C2095.41,2199.75 2128.33,2241.92 2168.45,2276.54C2188.77,2294.02 2211.45,2304.49 2228.85,2319.27C2207.41,2313.24 2178.31,2303.75 2157.39,2299.05C2143.93,2293.84 2128.53,2289.24 2116.2,2282.37C2114.11,2282.21 2112.22,2281.03 2111.17,2279.21C2078.68,2263.85 2039.95,2237.49 2011.43,2215.9C2060.44,2322.26 2013.72,2432.32 1931.02,2505.77C1945.34,2522.03 1959.77,2538.7 1974.79,2554.3C1989.94,2570.04 2008.69,2585.54 2023.04,2601.91C2084.95,2672.54 2149.41,2754.57 2184.03,2842.29C2213.24,2916.49 2231.84,2994.48 2265.72,3066.96C2277.95,3093.71 2290.15,3120.52 2303.06,3146.95C2320.96,3183.6 2342.89,3209.46 2339.28,3252.56C2335.88,3293.17 2314.62,3330.88 2280.35,3353.5C2272.17,3359.77 2269.69,3360.71 2260.16,3365.19C2256.83,3366.78 2251.43,3369.15 2248.41,3370.87C2189.61,3384.93 2158.28,3370.4 2111.22,3334.97C2088.94,3318.2 2071.32,3317.93 2074.41,3284.17C2075.77,3280.15 2076.96,3276.08 2077.96,3271.96C2092.15,3213.37 2089.3,3155.8 2055.35,3104.67C1949.58,2945.38 1734.12,2866.88 1557.61,2826.02C1601.66,2813.26 1642.26,2795.06 1675.28,2761.69C1679.92,2756.99 1680.84,2757.01 1680.69,2752.53C1627.68,2770 1595.41,2754.4 1547.81,2736.26C1512.45,2722.63 1476.91,2709.45 1441.22,2696.7C1456.6,2653.92 1474.87,2612.23 1495.89,2571.93C1506.86,2551.28 1522.04,2527.35 1531.4,2506.63C1501.25,2425.81 1485.94,2371.04 1465.93,2288.79L1460.9,2267.7C1449.84,2204.22 1440.17,2147.59 1441.3,2082.12C1433.58,2100.89 1395.02,2215.27 1388.93,2220.89C1381.07,2202.61 1359.32,2082.93 1361.91,2059.61C1362.84,2045.79 1364,2031.99 1365.42,2018.21C1376.84,1874.2 1413.55,1665.87 1456.88,1526.93C1360.17,1643.68 1290.33,1788.5 1262.11,1938.02C1252.93,1986.66 1251.89,2032.72 1247.79,2081.24L1247.85,2131.65C1250.2,2206.27 1261.02,2308.69 1277.32,2382.21L1280.53,2394.92ZM2018.3,3403.71C2032.79,3414.49 2044.74,3433.3 2067.41,3445.11C2079.16,3451.22 2125.16,3472.04 2130.77,3477.23C2073.09,3491.89 2024.6,3466.16 2018.3,3403.71ZM620.477,3591.2L623.03,3588.71L613.769,3588.86C608.453,3582.06 585.662,3411.79 582.235,3387.03C608.629,3429.81 674.221,3535.53 675.316,3582.87L671.892,3586.3C652.62,3586.48 633.471,3591.44 620.477,3591.2Z" style="fill:rgb(51,51,51);"/>
    <path d="M2933.74,1945.06C2934.53,1944.93 2935.09,1944.21 2935.02,1943.41C2924.95,1934.49 2834.07,1897.61 2782.32,1839.61C2733.37,1784.77 2727.52,1706.22 2730,1690.85C2722.4,1693.04 2685.36,1698.33 2679.96,1695.25C2681.61,1689.34 2741.23,1607.48 2741.23,1607.48C2717.21,1587.8 2699.05,1581.4 2669.67,1572.48L2628.16,1566.35L2627.82,1563.4C2652.1,1541.68 2712.01,1533.97 2743.61,1536.82C2862.91,1547.55 2940.68,1660.74 3015.78,1733.52C3018.35,1738.38 3016.42,1736.77 3020.79,1739.3C3028.91,1746.07 3037.83,1753.18 3045.66,1760.18C3048.1,1762.41 3049.85,1764.2 3052.53,1766.13L3070.25,1781.21C3072.15,1767.96 3075.37,1640.02 3077.52,1632.99C3099.35,1639.29 3154.26,1786.11 3163,1815.95C3165.81,1826.47 3168.1,1833.59 3168.7,1844.61C3170.69,1850.91 3174.18,1859.63 3171.99,1865.37C3146.37,1863.77 3124.29,1860.99 3099.38,1858.46L3089.49,1859.61L3081.91,1860.1C3078.6,1865.34 3110.37,2072.51 3113.45,2095.14C3083.1,2061.99 3058.01,2004.54 3024.3,1971.54C3018,1965.37 2967.07,1979.14 2954.26,1981.07C2924.45,1985.55 2898.22,1984.21 2868.89,1986.08C2856.54,1986.88 2800.83,1980.02 2773.7,1976.87C2772.6,1976.77 2771.74,1975.87 2771.68,1974.76C2771.62,1973.65 2772.38,1972.67 2773.47,1972.45C2809.91,1965.13 2916.53,1947.85 2933.74,1945.06Z"/>
    <path d="M2180.62,1305.98C2163.82,1237.31 2166.12,1174.88 2187.1,1107.41C2214.13,1020.44 2281.62,921.438 2363.84,878.821C2386.2,864.193 2414.28,854.672 2439.82,847.436L2423.38,868.036C2374.33,947.422 2350.7,1032.93 2361,1126.43C2363.04,1135.84 2365.44,1145.9 2367.09,1155.32C2376.73,1184.27 2382.67,1201.42 2399.72,1227.59C2407.62,1238.55 2413.96,1247.58 2423.01,1257.64C2468.04,1303.03 2513.85,1321.9 2576.88,1329.97C2579.01,1368.07 2573.3,1414.26 2556.48,1448.81C2540.17,1486.52 2503.07,1525.78 2467.2,1545.54C2447.75,1542.69 2423.38,1539.78 2404.58,1535.53C2336.43,1520.1 2269.55,1473.99 2232.54,1414.44L2229.12,1409.87C2214.23,1391.03 2200.42,1362.9 2192.28,1340.26L2191.51,1337.47C2188.63,1331.65 2182.96,1313.12 2180.62,1305.98Z" style="fill:rgb(249,228,190);"/>
    <path d="M1116.69,1504.95C1235,1404.65 1325.33,1332.24 1458.45,1249.51C1404.56,1344.7 1349.41,1455 1318.61,1560.92C1312.03,1583.56 1307.25,1628.81 1304.71,1652.95C1251.35,1678.62 1200.29,1708.81 1152.09,1743.2C1139.47,1752.04 1034.86,1813.55 996.525,1848.1C987.903,1855.18 980.489,1861.42 972.232,1868.98C949.339,1884.25 925.085,1908.54 902.886,1926.84C769.602,2036.67 653.313,2170.31 563.338,2317.7C553.284,2334.17 546.491,2358.78 535.829,2374.14C555.373,2172.32 653.167,2026.05 774.715,1870.06C792.269,1847.53 812.952,1826.56 830.637,1804.22C850.829,1784.33 869.475,1760.78 888.704,1739.54C922.494,1702.58 956.593,1665.91 990.999,1629.52C1019.86,1598.46 1051.64,1562.72 1082.75,1534.35C1093.31,1526.11 1106.37,1513.98 1116.69,1504.95ZM2824.96,1778.77C2807.77,1756.77 2809.43,1718.21 2812.68,1691.92C2832.18,1699.1 2841.49,1704 2857.77,1713.04C2862.03,1715.4 2865.26,1719.27 2866.83,1723.88C2869.77,1732.38 2874.59,1746.59 2877.32,1756.2C2878.05,1758.99 2879.52,1761.54 2881.57,1763.57C2890.51,1772.32 2901.84,1782.35 2906.24,1786.21C2907.52,1787.33 2908.96,1788.25 2910.52,1788.94C2956.95,1809.51 2975.71,1796.12 2990.85,1862.55C2981.17,1852.26 2971.36,1842.11 2961.41,1832.09C2956.93,1827.59 2950.35,1825.87 2944.24,1827.62C2919.47,1834.93 2905.11,1832.4 2877.2,1822.86C2871.66,1820.23 2865.54,1816.64 2860.1,1813.62C2847.12,1805.22 2832.53,1792.32 2824.96,1778.77ZM3535.44,1306.45C3531.14,1296.26 3526.5,1282.51 3522.56,1271.89C3552.34,1254.53 3561.05,1248.72 3585.66,1223.93C3611.54,1189.87 3633.21,1152.29 3637.68,1108.74C3645.61,1130.3 3649.14,1152.28 3651.84,1175C3664.36,1280.39 3637.48,1365.72 3574.73,1450.32C3563.91,1391.51 3550.73,1360.75 3535.44,1306.45ZM2252.13,1103.92C2240.01,1211.35 2270.76,1306.35 2354.84,1377.33L2374.97,1392.65C2417.6,1421.55 2466.58,1439.75 2517.74,1445.71L2527.03,1446.26C2538.59,1448.1 2545.03,1448.41 2556.48,1448.81C2540.17,1486.52 2503.07,1525.78 2467.2,1545.54C2447.75,1542.69 2423.38,1539.78 2404.58,1535.53C2336.43,1520.1 2250.97,1403.33 2250.97,1403.33C2245.88,1393.37 2240.69,1383.48 2235.38,1373.65C2235.05,1370.93 2227.92,1351.18 2226.52,1347.03C2219.07,1324.82 2215.39,1305.03 2212.09,1281.87C2211.98,1268.11 2212.05,1254.35 2212.33,1240.6C2217.57,1203.44 2218.86,1190.41 2229.91,1153.31C2237.66,1135.78 2242.31,1120.6 2252.13,1103.92Z" style="fill:rgb(2,184,255);"/>
</svg>
