<?xml version="1.0" encoding="UTF-8" standalone="no"?>
<!DOCTYPE svg PUBLIC "-//W3C//DTD SVG 1.1//EN" "http://www.w3.org/Graphics/SVG/1.1/DTD/svg11.dtd">
<svg width="100%" height="100%" viewBox="0 0 738 671" version="1.1" xmlns="http://www.w3.org/2000/svg" xmlns:xlink="http://www.w3.org/1999/xlink" xml:space="preserve" xmlns:serif="http://www.serif.com/" style="fill-rule:evenodd;clip-rule:evenodd;stroke-linejoin:round;stroke-miterlimit:2;">
    <g transform="matrix(1,0,0,1,-83.676,-104.354)">
        <path d="M175.081,685.365L161.261,696.792L158.87,678.923C155.071,650.522 156.605,595.663 167.578,564.332C151.363,555.12 127.222,538.501 118.1,528.734L101.204,513.333L122.495,511.732C122.403,511.787 145.252,510.17 151.562,509.698C165.534,508.654 179.696,507.044 193.68,505.835C195.985,499.197 199,492.535 202.314,486.213C198.552,483.85 195.27,480.83 191.956,476.861L181.638,464.504L197.288,460.731C203.992,459.114 210.886,459.121 218.242,457.701C223.794,451.49 227.39,446.095 232.622,440.628C210.11,422.795 184.031,391.278 176.515,368.579L171.24,352.647L187.762,355.591C205.868,358.817 225.468,367.142 243.87,370.63C244.512,370.752 245.167,370.881 245.831,371.018C245.454,369.998 245.066,368.988 244.661,367.99C242.555,362.799 240,357.95 235.377,354.226L188.889,316.772L245.045,337.032C250.277,338.92 256.532,341.968 262.161,344.083C267.516,346.04 272.903,347.906 278.32,349.681C263.114,324.72 251.27,297.812 243.122,269.62L243.113,269.588C239.151,255.531 236.667,241.03 232.75,226.734L224.643,188.542L250.528,218.274C256.051,225.995 276.165,240.522 293.323,252.489C292.645,249.233 291.997,246.065 291.368,243.107L287.57,225.248L304.663,231.665C314.091,235.204 322.383,239.73 330.178,245.008C325.135,221.338 323.484,197.045 325.294,172.853L325.295,172.837C326.387,158.849 331.048,132.955 335.706,119.951L342.862,104.354L351.951,117.602C354.775,120.304 364.63,137.6 366.88,141.83L366.885,141.839C370.663,148.976 374.623,156.014 378.762,162.948C399.077,195.85 423.95,225.664 452.614,251.513C454.864,229.64 462.504,222.248 469.809,195.028L477.113,167.811L488.599,193.544C504.827,229.902 520.864,252.444 542.925,281.682C545.884,277.357 548.958,273.111 552.146,268.946L552.148,268.943C560.371,258.213 565.875,252.644 572.532,240.636L583.478,220.892L590.746,242.266C594.095,252.116 599.789,264.288 605.853,275.192C608.177,270.185 610.576,265.501 612.731,262.557L622.332,249.444L623.999,247.39L625.456,248.866C625.456,248.866 655.696,288.683 658.692,293.601C665.923,305.473 671.535,321.357 678.464,333.037C693.43,358.261 712.366,389.973 734.486,409.323C737.97,412.372 739.975,413.938 744.198,413.501L766.123,411.233L753.39,429.225C746.594,438.827 743.963,446.207 737.375,453.438C738.008,453.956 738.645,454.472 739.291,454.99C757.883,440.606 767.794,423.515 774.902,400.517L781.19,380.172L792.83,398.004C817.519,435.826 829.852,484.382 814.397,528.304C801.619,564.613 777.338,592.443 742.715,609.134C734.741,612.977 726.168,615.795 718.013,619.51L710.679,622.85C711.994,623.836 713.397,624.795 714.899,625.726C724.832,631.885 737.71,633.521 749.074,630.698C766.329,626.412 772.199,612.925 780.576,599.215L795.521,574.756L799.034,603.203C799.369,605.919 799.646,608.499 799.855,610.978L812.827,592.357L811.802,625.975C811.233,644.656 809.671,657.307 799.208,673.634L799.189,673.663C787.957,690.927 770.403,703.098 750.263,707.572L750.229,707.58C736.634,710.502 727.227,709.837 713.79,707.458C697.035,704.491 688.365,700.334 674.726,690.454C661.247,680.689 650.233,668.611 639.821,655.957C639.1,657.017 638.312,658.168 637.508,659.338L633.083,668.973C630.393,674.056 620.185,683.879 615.578,687.471C599.406,700.081 582.694,705.797 562.286,703.345C558.612,702.96 579.374,709.727 592.639,713.362C609.336,717.919 626.003,722.579 642.651,727.34L642.658,727.342C668.372,734.738 694.073,741.808 719.482,750.231C725.378,752.185 731.802,753.761 737.842,755.234L818.689,774.945L282.915,774.973L162.298,775.025L129.149,775.044L129.145,775.044C123.079,775.043 112.533,775.254 106.886,774.268L83.676,770.214L102.717,756.336C120.492,743.38 152.705,735.703 177.578,733.236C175.197,717.111 174.811,702.442 175.081,685.365ZM619.169,670.646C619.169,670.646 623.399,665.894 624.245,664.295C623.061,663.757 623.532,663.934 622.067,664.047C622.063,664.064 633.029,648.412 634.4,646.045C618.165,648.698 598.241,641.86 588.926,627.741C597.8,626.102 603.912,624.402 610.627,618.103C602.91,615.543 587.875,612.27 584.18,604.134C581.031,594.68 597.736,595.294 602.023,598.789C631.98,623.208 649.092,659.535 680.593,682.356C692.798,691.197 700.54,694.956 715.534,697.611C727.553,699.739 735.967,700.417 748.128,697.803C765.679,693.904 781.002,683.279 790.807,668.209C800.123,653.673 801.299,642.332 801.807,625.67C797.23,632.24 789.729,644.278 784.499,649.272C790.853,633.165 791.265,621.889 789.109,604.429C779.318,620.453 771.652,635.394 751.485,640.403C737.563,643.861 721.799,641.77 709.63,634.225C683.884,618.264 682.437,595.573 671.569,570.448C665.932,557.417 658.039,545.855 648.795,535.185L649.379,535.531C653.281,537.81 657.507,539.465 661.599,541.368C683.489,551.547 712.033,563.235 719.996,588.232C722.522,596.161 718.802,604.285 713.868,610.409C721.957,606.725 730.464,603.938 738.373,600.126C770.549,584.614 793.089,558.728 804.964,524.984C819.385,484.002 807.493,438.761 784.456,403.47C775.916,431.101 763.554,450.841 739.052,467.509C732.77,462.684 728.004,458.776 722.038,453.491C735.647,444.115 736.636,435.587 745.227,423.448C737.822,424.214 734.011,422.195 727.901,416.849C705.046,396.856 685.327,364.202 669.864,338.139C662.953,326.49 657.364,310.644 650.152,298.803C647.288,294.102 643.418,291.62 640.64,287.688C642.62,302.765 641.258,307.202 641.458,320.773C635.691,309.217 632.426,300.592 628.352,288.327C626.82,283.717 622.937,272.658 620.8,268.464C616.287,274.628 610.786,288.981 607.302,296.632C597.81,282.889 586.664,261.325 581.278,245.485C574.34,258 568.656,263.842 560.085,275.026C554.168,282.757 548.65,290.786 543.554,299.082C516.398,263.241 498.085,239.332 479.467,197.62C470.526,230.938 460.75,233.349 462.079,272.785C425.817,243.289 394.764,207.916 370.214,168.138C365.974,161.037 361.917,153.828 358.047,146.518C356.039,142.743 347.645,125.739 345.12,123.323C340.692,135.687 336.303,160.315 335.265,173.615C333.205,201.147 335.815,228.831 342.986,255.493C344.246,260.231 346.193,267.54 347.948,272.004C333.337,259.022 319.597,247.952 301.149,241.027C303.447,251.834 305.978,265.521 309.331,275.845C294.557,265.133 251.113,236.28 242.395,224.092C246.305,238.364 248.783,252.842 252.738,266.875C263.164,302.948 279.859,336.902 302.059,367.185C287.408,363.248 272.936,358.669 258.687,353.46C253.086,351.359 246.859,348.318 241.651,346.439C253.687,356.136 255.714,371.176 261.564,385.46C255.62,383.593 248.185,381.626 242.008,380.455C223.64,376.974 204.08,368.656 186.008,365.436C194.206,390.195 226.199,426.068 248.765,439.811C236.221,448.909 232.986,456.719 223.467,466.793C215.02,468.865 207.205,468.626 199.632,470.452C204.449,476.221 209.168,479.417 216.434,481.506C210.278,491.744 204.324,503.737 201.229,515.254C185.049,516.478 168.55,518.457 152.307,519.67C146.534,520.102 129.944,519.774 125.689,521.208L125.408,521.908C135.739,532.969 166.475,553.239 180.306,559.75C166.6,586.923 164.78,647.685 168.782,677.597C175.009,672.448 179.879,668.252 185.518,662.326C184.627,668.749 185.221,677.43 185.103,684.112C184.734,704.921 185.269,721.922 189.313,742.443C165.499,743.296 127.903,750.353 108.607,764.417C113.817,765.327 123.55,765.043 129.147,765.044L162.293,765.025L282.913,764.973L735.473,764.949C729.177,763.414 722.482,761.76 716.336,759.723C691.053,751.342 665.479,744.311 639.894,736.952C623.291,732.204 606.661,727.555 590.002,723.008C571.181,717.851 549.243,712.276 531.965,703.069C512.591,692.745 483.671,669.436 478.592,647.214C499.548,650.694 512.02,654.412 525.417,671.295C533.693,681.725 549.804,692.003 563.379,693.405C581.059,695.541 595.458,690.479 609.429,679.585C611.74,677.783 615.803,674.168 619.169,670.646Z" style="fill:rgb(1,103,71);"/>
        <path d="M345.12,123.323C347.645,125.739 356.039,142.743 358.047,146.518C361.917,153.828 365.974,161.037 370.214,168.138C394.764,207.916 425.817,243.289 462.079,272.785C460.75,233.349 470.526,230.938 479.467,197.62C498.085,239.332 516.398,263.241 543.554,299.082C548.65,290.786 554.168,282.757 560.085,275.026C568.656,263.842 574.34,258 581.278,245.485C586.664,261.325 597.81,282.889 607.302,296.632C610.786,288.981 616.287,274.628 620.8,268.464C622.937,272.658 626.82,283.717 628.352,288.327C632.426,300.592 635.691,309.217 641.458,320.773C641.258,307.202 642.62,302.765 640.64,287.688C643.418,291.62 647.288,294.102 650.152,298.803C657.364,310.644 662.953,326.49 669.864,338.139C685.327,364.202 705.046,396.856 727.901,416.849C734.011,422.195 737.822,424.214 745.227,423.448C736.636,435.587 735.647,444.115 722.038,453.491C728.004,458.776 732.77,462.684 739.052,467.509C763.554,450.841 775.916,431.101 784.456,403.47C807.493,438.761 819.385,484.002 804.964,524.984C793.089,558.728 770.549,584.614 738.373,600.126C730.464,603.938 721.957,606.725 713.868,610.409C718.802,604.285 722.522,596.161 719.996,588.232C712.033,563.235 683.489,551.547 661.599,541.368C657.507,539.465 653.281,537.81 649.379,535.531L648.795,535.185C658.039,545.855 665.932,557.417 671.569,570.448C682.437,595.573 683.884,618.264 709.63,634.225C721.799,641.77 737.563,643.861 751.485,640.403C771.652,635.394 779.318,620.453 789.109,604.429C791.265,621.889 790.853,633.165 784.499,649.272C789.729,644.278 797.23,632.24 801.807,625.67C801.299,642.332 800.123,653.673 790.807,668.209C781.002,683.279 765.679,693.904 748.128,697.803C735.967,700.417 727.553,699.739 715.534,697.611C700.54,694.956 692.798,691.197 680.593,682.356C649.092,659.535 631.98,623.208 602.023,598.789C597.736,595.294 581.031,594.68 584.18,604.134C587.875,612.27 602.91,615.543 610.627,618.103C603.912,624.402 597.8,626.102 588.926,627.741C598.241,641.86 618.165,648.698 634.4,646.045C633.029,648.412 622.063,664.064 622.067,664.047C623.532,663.934 623.061,663.757 624.245,664.295C621.996,668.544 613.28,676.582 609.429,679.585C595.458,690.479 581.059,695.541 563.379,693.405C549.804,692.003 533.693,681.725 525.417,671.295C512.02,654.412 499.548,650.694 478.592,647.214C483.671,669.436 512.591,692.745 531.965,703.069C549.243,712.276 571.181,717.851 590.002,723.008C606.661,727.555 623.291,732.204 639.894,736.952C665.479,744.311 691.053,751.342 716.336,759.723C722.482,761.76 729.177,763.414 735.473,764.949L282.913,764.973L162.293,765.025L129.147,765.044C123.55,765.043 113.817,765.327 108.607,764.417C127.903,750.353 165.499,743.296 189.313,742.443C185.269,721.922 184.734,704.921 185.103,684.112C185.221,677.43 184.627,668.749 185.518,662.326C179.879,668.252 175.009,672.448 168.782,677.597C164.78,647.685 166.6,586.923 180.306,559.75C166.475,553.239 135.739,532.969 125.408,521.908L125.689,521.208C129.944,519.774 146.534,520.102 152.307,519.67C168.55,518.457 185.049,516.478 201.229,515.254C204.324,503.737 210.278,491.744 216.434,481.506C209.168,479.417 204.449,476.221 199.632,470.452C207.205,468.626 215.02,468.865 223.467,466.793C232.986,456.719 236.221,448.909 248.765,439.811C226.199,426.068 194.206,390.195 186.008,365.436C204.08,368.656 223.64,376.974 242.008,380.455C248.185,381.626 255.62,383.593 261.564,385.46C255.714,371.176 253.687,356.136 241.651,346.439C246.859,348.318 253.086,351.359 258.687,353.46C272.936,358.669 287.408,363.248 302.059,367.185C279.859,336.902 263.164,302.948 252.738,266.875C248.783,252.842 246.305,238.364 242.395,224.092C251.113,236.28 294.557,265.133 309.331,275.845C305.978,265.521 303.447,251.834 301.149,241.027C319.597,247.952 333.337,259.022 347.948,272.004C346.193,267.54 344.246,260.231 342.986,255.493C335.815,228.831 333.205,201.147 335.265,173.615C336.303,160.315 340.692,135.687 345.12,123.323Z" style="fill-rule:nonzero;"/>
        <path d="M543.318,433.75C544.062,434.111 547.259,435.832 548.03,435.501C549.099,434.074 509.922,401.363 502.424,394.802C481.626,376.606 453.997,358.184 435.315,338.262C403.125,303.936 371.318,262.078 361.167,215.295C359.643,208.275 359.28,200.369 358.781,193.154C362.079,199.218 366.543,206.675 370.152,212.587C371.141,226.109 388.745,250.882 396.972,262.268C420.008,294.148 455.229,321.129 488.097,342.225C494.613,346.407 532.747,365.438 537.821,366.121C542.104,383.816 551.237,397.306 565.339,408.551C547.921,379.613 555.475,337.26 573.31,310.21C575.28,307.222 579.65,298.826 583.604,299.111L584.574,300.562C581.993,305.414 582.139,320.121 582.253,326.004C582.677,348.047 595.343,366.34 609.104,382.486C610.667,384.325 612.104,385.836 613.373,387.942C604.276,385.36 596.055,383.308 586.566,382.972C597.769,391.199 601.659,392.802 612.281,403.182C608.899,410.089 603.222,421.248 606.409,428.651C612.188,442.076 622.99,454.23 636.156,460.511C650.321,467.27 664.524,465.397 679.613,463.53C683.123,465.669 684.622,466.37 688.808,466.818C679.005,472.5 656.512,472.96 645.028,472.518C664.626,486.665 686.972,496.468 702.949,515.61C705.782,519.004 709.164,521.966 711.705,525.658C672.069,493.814 637.167,475.976 585.183,475.464C567.704,475.292 551.424,477.188 534.082,478.619C520.734,479.72 507.972,479.693 494.274,481.076C468.349,483.694 447.46,491.535 423.116,499.789L382.915,513.165C374.589,516.011 361.913,520.927 353.775,522.959C361.088,519.125 369.817,514.731 376.668,510.164C385.683,504.154 393.761,497.352 403.109,491.702L402.406,490.583C403.001,489.843 410.573,485.833 411.997,484.939C419.172,480.501 426.197,475.555 432.924,470.471C441.955,463.645 444.949,451.406 452.324,443.534C472.681,444.381 497.055,451.564 517.463,456.22C496.751,445.444 465.55,417.58 458.038,393.188C463.993,395.73 475.351,411.223 480.495,414.456C488.104,419.239 495.718,421.978 504.079,427.334C522.437,439.092 533.955,454.712 556.012,460.563C570.041,464.284 582.379,462.006 596.578,462.615C608.826,463.14 620.491,465.384 632.499,467.468C617.306,459.178 608.214,447.898 597.491,434.87C594.27,430.958 589.003,425.855 586.538,421.82C579.117,419.264 574.512,419.206 568.221,417.168C556.74,413.45 545.051,401.87 535.033,394.483C533.321,394.491 530.397,396.087 528.688,395.989C531.441,398.119 539.878,410.595 542.436,414.455C556.228,424.792 563.032,439.416 575.576,452.491C560.172,452.856 553.417,448.653 542.111,437.894C541.28,437.101 523.897,426.854 517.565,418.735C523.625,421.789 540.021,432.151 543.318,433.75ZM449.478,522.278C443.127,526.99 430.716,532.267 423.322,535.882C411.597,541.614 397.771,547.744 385.411,551.941C333.821,569.457 261.08,575.185 212.666,545.043C221.138,545.125 229.609,544.819 238.053,544.126C238.17,544.394 238.293,544.799 238.611,544.858C277.363,552.028 319.253,548.591 358.03,543.65C372.177,541.848 382.098,540.65 394.041,538.005C404.093,535.742 414.035,533.013 423.834,529.829C428.642,528.309 445.262,522.488 449.478,522.278ZM450.745,378.78C458.536,384.639 471.466,391.578 480.23,396.31C474.568,399.334 461.748,390.273 455.406,388.228C453.809,385.3 452.122,381.847 450.745,378.78ZM382.533,744.416C369.477,744.781 351.626,744.578 338.561,744.215C303.07,718.414 281.3,672.018 273.431,629.853C271.215,617.974 268.786,605.763 269.967,593.645C304.867,601.066 331.347,598.037 366.059,590.25C381.727,586.735 397.643,582.653 412.881,577.519C402.059,589.989 389.375,598.45 377.368,610.105C371.256,616.037 364.676,623.685 356.797,628.557C362.406,630.185 364.584,625.841 369.864,627.348C365.406,627.362 362.295,628.6 356.797,628.557C367.317,642.202 375.075,650.724 380.345,667.409C383.899,678.659 395.78,692.38 404.031,700.58C418.306,712.552 444.768,737.532 461.523,744.291C455.084,744.642 447.311,744.246 440.679,744.242L402.731,744.5C396.555,739 388.376,734.355 381.785,728.926C353.828,705.902 326.994,680.937 306.173,651.108C301.544,644.477 296.202,634.877 291.004,629.132C302.305,675.417 335.005,714.937 374.62,740.214C376.962,741.709 379.881,743.743 382.533,744.416ZM432.39,384.074C434.46,389.021 436.625,393.942 438.898,398.793C440.25,401.68 447.18,413.845 446.556,415.475C433.563,415.195 364.903,387.833 352.997,379.553C326.176,360.901 300.652,320.477 287.588,290.766C289.765,292.252 302.968,301.026 304.068,302.132C304.247,305.337 342.257,345.166 347.574,350.079C358.217,359.915 379.316,369.802 393.493,374.233C399.939,376.248 426.817,386.114 432.39,384.074ZM693.091,667.063C686.808,663.528 673.03,647.505 668.809,641.33C665.706,636.791 662.657,631.253 658.935,626.706L658.471,626.147C659.551,631.759 660.903,639.034 662.606,644.358C646.227,631.258 643.452,614.65 631.921,598.42C625.872,589.906 615.75,582.14 608.22,575.206C606.411,573.54 603.297,566.87 600.388,563.615C585.077,546.484 561.495,537.509 538.894,536.328C569.114,524.418 593.041,538.12 614.486,558.999C608.611,547.504 601.944,537.676 591.016,530.498C588.139,528.608 585.648,527.556 582.951,525.79L582.536,525.514C584.622,526.047 586.703,526.604 588.777,527.183C612.667,533.82 627.748,547.56 639.942,569.094C638.393,559.467 636.496,554.031 632.892,545.068C639.168,552.166 647.124,561.422 650.302,570.481C649.146,572.707 650.362,576.106 650.408,578.726C650.495,583.64 649.658,589.163 650.007,594.005C650.204,596.703 650.706,599.37 651.502,601.955C654.902,612.999 662.415,620.174 672.014,625.964C672.637,626.34 673.205,626.189 673.786,625.973C677.713,630.729 680.403,634.45 684.91,638.739C686.729,640.468 697.455,648.68 698.219,649.665L699.294,651.624C698.251,653.71 698.011,653.58 695.616,654.213L695.392,654.936C698.255,658.883 718.723,659.866 723.491,659.319L723.94,658.62C727.385,658.992 731.368,659.328 734.744,659.863C726.332,664.077 714.49,665.076 705.231,665.824C702.334,666.058 695.328,666.033 693.091,667.063ZM417.16,446.638C423.279,448.78 425.836,450.72 433.037,452.447C425.249,462.43 421.763,468.18 411.487,475.971C402.211,476.25 392.881,475.961 383.797,473.73C355.637,466.812 327.238,452.998 300.913,440.947C282.569,432.55 261.017,422.305 244.598,411.077C253.431,413.014 267.035,413.721 275.214,416.34C275.854,417.014 276.326,417.545 277.248,417.857C305.737,427.497 333.461,439.679 362.054,448.869C366.83,450.404 377.961,451.243 382.981,451.45C389.675,451.727 411.528,450.029 417.16,446.638ZM589.993,657.253C596.461,660.593 600.663,662.054 607.731,663.383C606.69,664.49 605.623,665.572 604.531,666.628C597.315,673.51 585.347,676.895 575.456,676.563C568.715,676.336 561.276,673.851 555.389,670.394C544.228,663.839 537.124,651.762 529.525,641.716C526.259,637.399 522.515,633.57 518.88,629.639C519.133,629.119 519.396,628.604 519.67,628.095C524.146,619.802 532.064,622.108 538.66,626.08C541.832,607.302 526.729,575.818 511.186,564.789C509.451,563.558 502.886,559.01 502.242,557.633C536.083,559.112 552.443,582.671 557.847,614.073C556.093,615.605 555.153,622.581 555.04,625.053C554.229,642.769 572.611,659.314 589.993,657.253Z" style="fill:rgb(153,0,11);"/>
        <path d="M238.053,544.126C283.654,538.262 363.685,513.656 402.406,490.583L403.109,491.702C393.761,497.352 385.683,504.154 376.668,510.164C369.817,514.731 361.088,519.125 353.775,522.959C361.913,520.927 374.589,516.011 382.915,513.165L423.116,499.789C447.46,491.535 468.349,483.694 494.274,481.076C507.972,479.693 520.734,479.72 534.082,478.619C551.424,477.188 567.704,475.292 585.183,475.464C637.167,475.976 672.069,493.814 711.705,525.658C709.164,521.966 705.782,519.004 702.949,515.61C686.972,496.468 664.626,486.665 645.028,472.518C656.512,472.96 679.005,472.5 688.808,466.818C691.981,463.88 695.67,460.249 699.162,457.823C710.075,469.031 716.995,477.468 730.029,487.012C727.29,489.347 726.103,490.329 724.158,493.469C721.261,498.144 718.692,507.445 728.055,505.04C747.285,500.1 768.487,480.765 779.55,464.784C781.019,462.662 782.453,460.518 783.863,458.357C792.6,481.67 786.84,508.507 776.973,530.543C771.101,543.657 753.74,569.635 742.279,578.527C737.309,573.222 733.028,567.347 728.136,562.064C720.995,554.438 713.17,547.329 705.488,540.259C700.259,535.499 693.951,532.176 688.199,528.118C670.828,515.862 652.295,503.402 631.683,497.475C619.07,493.848 606.206,490.427 593.004,490.104C543.978,488.904 493.624,501.515 449.478,522.278C445.262,522.488 428.642,528.309 423.834,529.829C414.035,533.013 404.093,535.742 394.041,538.005C382.098,540.65 372.177,541.848 358.03,543.65C319.253,548.591 277.363,552.028 238.611,544.858C238.293,544.799 238.17,544.394 238.053,544.126ZM637.351,369.519C628.662,353.12 625.251,341.032 623.098,322.665C649.721,359.054 682.549,403.267 716.045,433.249C705.565,438.939 687.907,444.812 675.872,442.536C673.192,442.029 664.442,432.491 661.769,430.16C650.68,420.492 640.317,409.907 628.962,400.498C623.794,396.195 619.179,391.506 613.373,387.942C612.104,385.836 610.667,384.325 609.104,382.486C595.343,366.34 582.677,348.047 582.253,326.004C582.139,320.121 581.993,305.414 584.574,300.562C599.158,328.934 612.432,349.862 636.375,371.367C638.106,373.942 662.454,397.178 664.963,398.59C660.543,393.42 655.986,389.431 651.423,384.576C646.688,379.538 642.158,374.531 637.351,369.519ZM370.152,212.587C400.039,254.042 438.792,285.195 478.627,316.51C490.682,325.987 506.184,334.008 516.903,344.268C512.978,331.33 506.942,318.271 502.284,305.523C498.943,296.38 496.231,286.835 493.758,277.428C505.691,294.437 520.554,308.98 533.511,325.157C535.194,327.258 536.987,330.592 537.649,333.198C539.603,345.42 534.647,353.634 537.821,366.121C532.747,365.438 494.613,346.407 488.097,342.225C455.229,321.129 420.008,294.148 396.972,262.268C388.745,250.882 371.141,226.109 370.152,212.587ZM461.334,399.44C459.314,395.476 452.659,383.3 450.779,379.103C450.474,378.543 473.14,392.482 480.23,396.31C494.184,402.436 504.173,410.853 517.565,418.735C523.344,422.136 541.28,437.101 542.111,437.894C553.417,448.653 560.172,452.856 575.576,452.491C563.032,439.416 556.228,424.792 542.436,414.455C539.878,410.595 521.076,386.779 520.453,383.341C522.162,383.439 556.74,413.45 568.221,417.168C574.512,419.206 579.117,419.264 586.538,421.82C589.003,425.855 594.27,430.958 597.491,434.87C608.214,447.898 617.306,459.178 632.499,467.468C620.491,465.384 608.826,463.14 596.578,462.615C582.379,462.006 570.041,464.284 556.012,460.563C533.955,454.712 522.873,439.372 504.515,427.614C496.154,422.258 488.104,419.239 480.495,414.456C475.351,411.223 467.289,401.982 461.334,399.44ZM367.928,627.03C371.403,627.388 376.745,628.11 380.264,628.538C395.016,630.333 410.755,629.208 425.009,633.738C429.477,635.158 433.039,637.936 436.155,641.312C431.477,654.13 420.728,668.491 408.375,674.901C406.264,675.996 401.617,676.873 399.165,677.388C424.025,678.137 434.212,678.979 458.794,672.748C465.642,678.045 471.242,683.283 477.632,689.067C497.924,707.435 519.615,722.775 543.15,736.674C546.447,738.621 549.86,741.767 553.012,744.109C534.132,745.095 512.919,744.042 493.782,744.208C486.571,744.27 467.656,744.944 461.523,744.291C444.768,737.532 418.306,712.552 404.031,700.58C395.78,692.38 383.656,678.733 380.345,667.409C379.419,664.242 367.317,642.202 356.797,628.557C362.295,628.6 363.47,627.044 367.928,627.03ZM402.731,744.5C396.532,744.644 388.649,744.733 382.533,744.416C379.881,743.743 376.962,741.709 374.62,740.214C335.005,714.937 302.305,675.417 291.004,629.132C296.202,634.877 301.544,644.477 306.173,651.108C326.994,680.937 353.828,705.902 381.785,728.926C388.376,734.355 396.555,739 402.731,744.5ZM304.068,302.132C313.314,307.78 322.308,314.133 331.576,319.88C353.114,332.995 374.816,345.838 396.678,358.404C407.2,364.462 417.915,370.962 428.749,376.388C430.09,379.012 431.312,381.324 432.39,384.074C426.817,386.114 399.939,376.248 393.493,374.233C379.316,369.802 358.217,359.915 347.574,350.079C342.257,345.166 304.247,305.337 304.068,302.132ZM734.744,659.863C750.636,659.091 760.741,657.599 774.353,648.117C771.001,660.176 764.229,668.115 753.401,674.219C730.795,686.964 712.921,680.855 693.091,667.063C695.328,666.033 702.334,666.058 705.231,665.824C714.49,665.076 726.332,664.077 734.744,659.863ZM650.302,570.481C652.79,576.091 655.56,582.059 657.622,587.812C661.933,599.837 666.522,615.434 673.786,625.973C673.205,626.189 672.637,626.34 672.014,625.964C662.415,620.174 654.902,612.999 651.502,601.955C650.706,599.37 650.204,596.703 650.007,594.005C649.658,589.163 650.495,583.64 650.408,578.726C650.362,576.106 649.146,572.707 650.302,570.481ZM698.219,649.665C706.856,654.544 714.223,656.529 723.94,658.62L723.491,659.319C718.723,659.866 698.255,658.883 695.392,654.936L695.616,654.213C698.011,653.58 698.251,653.71 699.294,651.624L698.219,649.665ZM275.214,416.34C307.307,422.457 339.319,428.992 371.242,435.942C384.919,438.911 404.126,442.436 417.16,446.638C411.528,450.029 389.675,451.727 382.981,451.45C377.961,451.243 366.83,450.404 362.054,448.869C333.461,439.679 305.737,427.497 277.248,417.857C276.326,417.545 275.854,417.014 275.214,416.34ZM557.847,614.073C563.304,633.129 573.599,646.058 589.993,657.253C572.611,659.314 554.229,642.769 555.04,625.053C555.153,622.581 556.093,615.605 557.847,614.073Z" style="fill:rgb(235,3,25);"/>
        <path d="M632.194,421.879C636.917,426.26 642.368,431.649 646.584,436.443C640.631,446.812 647.479,448.525 654.695,453.239L654.707,454.01L653.534,454.567C635.924,454.475 617.895,439.221 632.194,421.879Z" style="fill:rgb(255,254,254);fill-rule:nonzero;"/>
        <path d="M760.632,498.603C762.87,498.457 764.732,498.249 766.475,499.736C768.934,504.614 767.119,533.193 758.57,529.299C756.061,526.332 755.559,523.499 755.031,519.82C754.99,518.329 755.175,516.188 754.521,515.091C750.731,515.683 746.269,521.275 743.016,518.183C740.407,509.629 753.853,501.125 760.632,498.603Z" style="fill-rule:nonzero;"/>
    </g>
</svg>
