<?xml version="1.0" encoding="UTF-8" standalone="no"?>
<!DOCTYPE svg PUBLIC "-//W3C//DTD SVG 1.1//EN" "http://www.w3.org/Graphics/SVG/1.1/DTD/svg11.dtd">
<svg width="100%" height="100%" viewBox="0 0 516 567" version="1.1" xmlns="http://www.w3.org/2000/svg" xmlns:xlink="http://www.w3.org/1999/xlink" xml:space="preserve" xmlns:serif="http://www.serif.com/" style="fill-rule:evenodd;clip-rule:evenodd;stroke-linejoin:round;stroke-miterlimit:2;">
    <g transform="matrix(1,0,0,1,-242.673,-222.875)">
        <path d="M277.591,661.073L283.278,657.664C288.369,657.47 293.504,657.444 298.649,657.473C298.649,657.473 299.099,354.606 299.099,354.606L243.293,354.591L243.39,262.877L281.897,223.157L284.393,223.126C338.531,222.456 392.819,223.38 446.972,223.016C455.279,222.961 463.665,222.96 471.967,223.07L477.901,223.148L477.779,280.621C477.759,290.214 477.457,300.263 477.782,309.773L476.894,313.061C476.894,313.061 474.842,315.157 474.84,315.159C462.994,326.49 448.886,341.864 437.22,352.15L435.492,353.674L433.188,353.65C430.533,353.621 427.794,353.564 425.071,353.536C425.777,387.382 424.426,421.81 425.003,455.647C425.015,456.341 425.01,457.034 424.994,457.726C440.597,442.777 471.11,413.187 475.053,409.204L523.524,359.794L523.527,359.791C525.689,357.592 527.816,355.347 529.947,353.103C519.31,353.069 508.61,353.14 498.063,353.149L492.06,353.154L492.033,263.234L493.845,261.467C504.533,251.045 517.642,236.437 528.408,225.406L529.679,224.103L531.461,223.727C534.056,223.178 547.121,223.025 550.305,223.011L590.87,223.003L732.02,223.048L732.206,230.337C732.162,231.572 732.06,234.562 731.979,238.012C731.483,259.148 730.656,310.92 730.656,310.92L730.619,313.252L729.016,314.947C717.495,327.127 705.828,338.754 694.463,351.146L692.672,353.099L690.023,353.091C685.417,353.077 659.194,353.351 647.864,352.852C646.872,352.808 645.976,352.754 645.19,352.692C629.324,368.971 613.54,385.981 597.619,402.145C580.539,419.484 563.458,435.838 546.871,453.624C550.844,459.336 555.026,464.183 559.079,470.061C573.245,490.604 588.623,510.439 603.307,530.554L664.573,614.866C674.953,629.041 684.99,643.435 695.866,657.297C696.232,657.763 696.826,657.644 697.364,657.665C698.11,657.694 698.875,657.644 699.631,657.584C702.462,657.362 705.215,657.135 707.369,657.596C711.577,658.497 729.949,657.388 741.782,657.428C745.832,657.442 749.209,657.585 751.278,657.896C753.126,658.174 754.423,658.696 755.165,659.137L757.609,660.588L758.034,663.397C758.751,668.128 758.53,680.356 758.531,685.788L758.503,726.746L758.503,726.749C758.494,731.449 758.529,745.832 758.529,745.832L758.536,748.68L756.334,750.486C753.634,752.7 748.313,758.406 745.705,761.05C737.559,769.307 728.948,778.161 721.367,786.943L719.547,789.051L716.762,789.022C689.245,788.734 661.725,788.726 634.208,788.997L631.12,789.027L629.301,786.532C595.723,740.485 561.877,694.635 527.747,648.964L481.982,586.656L481.973,586.644C472.891,574.153 462.655,559.488 452.886,546.863C450.83,548.995 448.688,551.008 446.417,553.275C439.289,560.39 431.947,567.208 424.766,574.263C425.352,580.37 425.048,588.387 425.052,593.886L425.024,641.984L425.024,641.992C425.016,644.576 424.972,653.85 424.951,658.205C425.932,658.232 426.945,658.173 427.951,658.11C431.189,657.907 434.398,657.504 437.049,657.627C441.683,657.843 456.325,657.193 465.969,657.524C471.512,657.715 475.76,658.575 477.257,659.442L479.108,660.514L479.864,662.515C480.269,663.589 480.763,668.1 480.879,674.662C481.27,696.605 480.08,745.722 480.08,745.722L480.032,747.725L478.79,749.297C476.623,752.039 468.238,760.247 465.437,763.11C457.668,771.214 449.824,779.248 441.908,787.211L440.135,788.995L437.619,788.981C374.653,788.622 311.686,788.584 248.719,788.867L242.673,788.894L242.961,695.983L244.791,694.221C255.8,683.617 266.704,671.89 277.591,661.073ZM474.082,745.577C474.082,745.577 475.937,669.104 474.25,664.634C470.519,662.473 443.406,663.93 436.77,663.621C431.847,663.392 424.862,665.236 419.702,663.28C417.696,660.94 419.011,646.126 419.024,641.973L419.052,593.886C419.048,587.653 419.526,578.01 418.425,572.096C426.269,564.292 434.353,556.84 442.178,549.029C446.137,545.076 449.708,541.961 453.095,537.441C464.214,551.239 476.294,568.63 486.826,583.116L532.568,645.392C566.697,691.062 600.557,736.931 634.149,782.997C661.707,782.726 689.267,782.734 716.825,783.022C724.491,774.142 733.196,765.186 741.434,756.836C744.152,754.081 749.716,748.154 752.529,745.847C752.529,745.847 752.494,731.444 752.503,726.738L752.531,685.787C752.53,680.575 752.79,668.837 752.102,664.296C748.511,662.164 712.341,664.796 706.113,663.463C701.929,662.568 694.841,665.71 691.146,661.001C680.226,647.083 670.147,632.633 659.725,618.401L598.457,534.086C583.745,513.933 568.336,494.054 554.14,473.467C549.167,466.256 544.013,460.574 539.267,453.005C556.897,433.82 575.12,416.435 593.344,397.934C609.97,381.055 626.447,363.252 643.023,346.324C645.014,347.51 684.317,347.074 690.041,347.091C701.427,334.676 713.115,323.026 724.657,310.824C724.657,310.824 725.95,229.881 726.273,229.045L590.87,229.003L550.319,229.011C547.352,229.024 535.129,229.084 532.702,229.597C521.904,240.661 508.754,255.31 498.034,265.763L498.058,347.149C513.316,347.136 528.894,346.993 544.141,347.228C538.49,352.598 533.265,358.445 527.805,363.998L479.325,413.417C474.059,418.738 420.688,470.426 420.002,470.67C419.729,470.767 419.425,470.719 419.137,470.744L418.969,468.976C418.518,464.534 419.079,460.174 419.004,455.749C418.392,419.879 419.95,383.344 418.921,347.543C423.596,347.463 428.555,347.6 433.252,347.65C444.98,337.309 459.182,321.796 471.047,310.485L471.785,309.978C471.458,300.397 471.759,290.273 471.779,280.609L471.888,229.069C463.625,228.96 455.279,228.961 447.012,229.016C392.871,229.38 338.594,228.456 284.467,229.126L249.387,265.311L249.299,348.593L305.108,348.608L304.64,663.527C297.573,663.449 290.497,663.393 283.507,663.66C272.038,674.952 260.553,687.369 248.953,698.542L248.692,782.867C311.679,782.584 374.667,782.622 437.653,782.981C445.551,775.036 453.377,767.02 461.129,758.934C463.82,756.182 471.982,748.235 474.082,745.577Z"/>
        <path d="M453.095,537.441C462.493,527.404 473.398,516.612 483.301,506.975C493.337,519.266 505.359,536.452 514.818,549.313L571.64,626.355L630.497,705.898C639.174,717.69 651.831,733.625 659.415,745.62C679.813,745.156 700.971,745.704 721.44,745.509C726.693,745.459 748.763,745.246 752.529,745.847C749.716,748.154 744.152,754.081 741.434,756.836C733.196,765.186 724.491,774.142 716.825,783.022C689.267,782.734 661.707,782.726 634.149,782.997C600.557,736.931 566.697,691.062 532.568,645.392L486.826,583.116C476.294,568.63 464.214,551.239 453.095,537.441ZM284.467,229.126C285.513,230.166 284.189,310.519 284.183,310.488C285.546,310.909 294.142,310.488 296.436,310.557C309.712,310.961 325.156,309.932 338.305,310.842L338.288,543.287L338.306,621.566C338.307,627.092 338.918,661.039 337.477,663.299C331.464,664.838 312.296,665.566 304.64,663.527L305.108,348.608L249.299,348.593L249.387,265.311L284.467,229.126ZM283.507,663.66C282.626,689.886 284.258,719.49 283.259,745.422C304.897,745.03 327.391,745.523 349.155,745.53L474.082,745.577C471.982,748.235 463.82,756.182 461.129,758.934C453.377,767.02 445.551,775.036 437.653,782.981C374.667,782.622 311.679,782.584 248.692,782.867L248.953,698.542C260.553,687.369 272.038,674.952 283.507,663.66ZM498.034,265.763C508.754,255.31 521.904,240.661 532.702,229.597C533.224,251.403 532.219,297.432 532.231,298.664C532.261,301.769 532.484,307.656 532.198,310.542C542.558,310.468 552.919,310.483 563.278,310.587C568.096,310.628 575.866,310.962 580.417,310.631C567.679,322.49 556.422,336.009 544.141,347.228C528.894,346.993 513.316,347.136 498.058,347.149L498.034,265.763ZM679.053,310.673C693.671,311.067 709.896,310.744 724.657,310.824C713.115,323.026 701.427,334.676 690.041,347.091C684.317,347.074 645.014,347.51 643.023,346.324C645.895,342.882 653.194,335.987 656.668,332.513C663.735,325.444 671.609,317.219 679.053,310.673ZM418.977,310.578C436.046,310.208 453.901,310.477 471.047,310.485C459.182,321.796 444.98,337.309 433.252,347.65C428.555,347.6 423.596,347.463 418.921,347.543C418.836,335.221 418.855,322.899 418.977,310.578Z" style="fill:rgb(205,10,9);"/>
        <path d="M532.231,298.664C532.261,301.769 532.484,307.656 532.198,310.542C542.558,310.468 552.919,310.483 563.278,310.587C568.096,310.628 575.866,310.962 580.417,310.631C567.679,322.49 556.422,336.009 544.141,347.228C538.49,352.598 533.265,358.445 527.805,363.998L479.325,413.417C474.059,418.738 420.688,470.426 420.002,470.67C419.729,470.767 419.425,470.719 419.137,470.744L418.969,468.976C418.518,464.534 419.079,460.174 419.004,455.749C418.392,419.879 419.95,383.344 418.921,347.543C418.836,335.221 418.855,322.899 418.977,310.578C436.046,310.208 453.901,310.477 471.047,310.485L471.785,309.978C471.458,300.397 471.759,290.273 471.779,280.609L471.888,229.069C463.625,228.96 455.279,228.961 447.012,229.016C392.871,229.38 338.594,228.456 284.467,229.126C284.726,245.713 284.404,262.709 284.579,279.345C284.649,286.056 285.039,304.561 284.183,310.488C285.546,310.909 294.142,310.488 296.436,310.557C309.712,310.961 325.156,309.932 338.305,310.842L338.288,543.287L338.306,621.566C338.307,627.092 338.918,661.039 337.477,663.299C332.761,663.935 324.724,663.579 319.782,663.613C307.761,663.696 295.507,663.202 283.507,663.66C283.507,663.66 284.258,719.49 283.259,745.422C304.897,745.03 327.391,745.523 349.155,745.53L474.082,745.577C474.082,745.577 475.937,669.104 474.25,664.634C470.519,662.473 443.406,663.93 436.77,663.621C431.847,663.392 424.862,665.236 419.702,663.28C417.696,660.94 419.011,646.126 419.024,641.973L419.052,593.886C419.048,587.653 419.526,578.01 418.425,572.096C426.269,564.292 434.353,556.84 442.178,549.029C446.137,545.076 449.708,541.961 453.095,537.441C462.493,527.404 473.398,516.612 483.301,506.975C493.337,519.266 505.359,536.452 514.818,549.313L571.64,626.355L630.497,705.898C639.174,717.69 651.831,733.625 659.415,745.62C679.813,745.156 700.971,745.704 721.44,745.509C726.693,745.459 748.763,745.246 752.529,745.847C752.529,745.847 752.494,731.444 752.503,726.738L752.531,685.787C752.53,680.575 752.79,668.837 752.102,664.296C748.511,662.164 712.341,664.796 706.113,663.463C701.929,662.568 694.841,665.71 691.146,661.001C680.226,647.083 670.147,632.633 659.725,618.401L598.457,534.086C583.745,513.933 568.336,494.054 554.14,473.467C549.167,466.256 544.013,460.574 539.267,453.005C556.897,433.82 575.12,416.435 593.344,397.934C609.97,381.055 626.447,363.252 643.023,346.324C645.895,342.882 653.194,335.987 656.668,332.513C663.735,325.444 671.609,317.219 679.053,310.673C693.671,311.067 709.896,310.744 724.657,310.824C724.657,310.824 725.95,229.881 726.273,229.045L590.87,229.003L550.319,229.011C547.352,229.024 535.129,229.084 532.702,229.597C532.195,233.864 532.498,242.203 532.495,246.85L531.742,279.855C531.745,283.399 532.186,288.075 532.345,292.311C532.423,294.407 532.433,296.395 532.286,298.085L532.231,298.664Z" style="fill:white;"/>
    </g>
</svg>
