<?xml version="1.0" encoding="UTF-8" standalone="no"?>
<!DOCTYPE svg PUBLIC "-//W3C//DTD SVG 1.1//EN" "http://www.w3.org/Graphics/SVG/1.1/DTD/svg11.dtd">
<svg width="100%" height="100%" viewBox="0 0 1024 1536" version="1.1" xmlns="http://www.w3.org/2000/svg" xmlns:xlink="http://www.w3.org/1999/xlink" xml:space="preserve" xmlns:serif="http://www.serif.com/" style="fill-rule:evenodd;clip-rule:evenodd;stroke-linejoin:round;stroke-miterlimit:2;">
    <path d="M501.031,211.133L501.054,211.131C519.383,209.306 543.569,214.3 568.676,222.814C602.961,234.439 639.341,252.259 662.948,263.043C662.959,263.049 662.971,263.054 662.982,263.059C694.922,277.729 726.628,292.909 758.084,308.592C782.473,320.623 804.974,331.866 828.928,345.098C866.493,365.85 888.829,388.994 901.064,431.118C906.205,448.817 905.048,475.683 905.037,495.04L905.02,555.1L905.091,780.824L905.091,780.84L904.997,953.053L905.125,1005.85C905.271,1038.91 906.591,1058.02 889.325,1087.89C878.972,1105.87 864.902,1121.45 848.056,1133.57C825.258,1150.05 774.049,1174.7 747.22,1187.92C703.399,1209.73 659.054,1230.45 614.225,1250.1C586.553,1262.23 552.561,1277.22 523.486,1285.01C523.132,1285.1 522.775,1285.19 522.415,1285.26C519.318,1285.89 516.186,1286.33 513.034,1286.57C505.09,1287.17 487.402,1283.05 464.178,1274.39C384.683,1244.76 226.131,1165.52 193.099,1146.89C183.542,1141.5 167.694,1131.3 158.731,1123.59C135.102,1103.28 116.229,1071.87 114.502,1040.26C113.764,1026.77 114.138,1010.61 114.16,996.828L114.159,923.595L114.175,688.8L114.164,529.994L114.137,482.416C114.134,471.01 113.869,455.666 115.466,444.703C115.475,444.642 115.484,444.581 115.494,444.521C119.114,421.338 130.629,396.003 146.245,378.566C167.589,354.732 201.169,338.766 229.466,324.391C252.322,312.697 275.325,301.291 298.468,290.172C328.391,275.612 358.55,261.539 388.93,247.957C422.739,232.82 464.173,213.719 501.031,211.133ZM502.581,229.069C467.609,231.428 428.386,250.013 396.283,264.387C366.065,277.896 336.067,291.894 306.304,306.377C283.274,317.441 260.383,328.792 237.638,340.429C211.22,353.85 179.583,368.321 159.654,390.574C146.23,405.564 136.39,427.369 133.278,447.298C131.791,457.504 132.134,471.792 132.137,482.411L132.164,529.988L132.175,688.8L132.159,923.595L132.16,996.845C132.139,1010.31 131.754,1026.1 132.475,1039.28C133.944,1066.16 150.37,1092.67 170.465,1109.94C178.665,1116.99 193.197,1126.28 201.941,1131.21C242.834,1154.28 478.019,1271.17 511.677,1268.62C514.08,1268.44 516.468,1268.1 518.829,1267.62C547.09,1260.05 580.101,1245.4 606.999,1233.61C651.574,1214.08 695.665,1193.47 739.235,1171.79C765.355,1158.92 815.327,1135.02 837.525,1118.97C852.303,1108.34 864.645,1094.68 873.726,1078.91C889.071,1052.36 887.254,1035.27 887.125,1005.91L886.997,953.07L887.091,780.83L887.02,555.1L887.037,495.031C887.047,477.204 888.513,452.439 883.778,436.139C873.041,399.17 853.192,379.066 820.224,360.854C796.51,347.754 774.234,336.629 750.087,324.718C718.791,309.115 687.247,294.012 655.469,279.416C616.825,261.763 543.385,224.794 502.581,229.069Z" style="fill:white;"/>
    <path d="M502.581,229.069C543.385,224.794 616.825,261.763 655.469,279.416C687.247,294.012 718.791,309.115 750.087,324.718C774.234,336.629 796.51,347.754 820.224,360.854C853.192,379.066 873.041,399.17 883.778,436.139C888.513,452.439 887.047,477.204 887.037,495.031L887.02,555.1L887.091,780.83L886.997,953.07L887.125,1005.91C887.254,1035.27 889.071,1052.36 873.726,1078.91C864.645,1094.68 852.303,1108.34 837.525,1118.97C815.327,1135.02 765.355,1158.92 739.235,1171.79C695.665,1193.47 651.574,1214.08 606.999,1233.61C580.101,1245.4 547.09,1260.05 518.829,1267.62C516.468,1268.1 514.08,1268.44 511.677,1268.62C478.019,1271.17 242.834,1154.28 201.941,1131.21C193.197,1126.28 178.665,1116.99 170.465,1109.94C150.37,1092.67 133.944,1066.16 132.475,1039.28C131.754,1026.1 132.139,1010.31 132.16,996.845L132.159,923.595L132.175,688.8L132.164,529.988L132.137,482.411C132.134,471.792 131.791,457.504 133.278,447.298C136.39,427.369 146.23,405.564 159.654,390.574C179.583,368.321 211.22,353.85 237.638,340.429C260.383,328.792 283.274,317.441 306.304,306.377C336.067,291.894 366.065,277.896 396.283,264.387C428.386,250.013 467.609,231.428 502.581,229.069Z" style="fill:rgb(0,22,47);fill-rule:nonzero;"/>
    <path d="M505.295,275.483C506.714,275.402 508.136,275.354 509.557,275.341C546.479,275.096 758.436,382.189 802.278,406.72C808.926,410.565 814.693,415.176 820.189,420.441C838.912,438.375 837.881,456.69 837.879,480.706L837.842,521.627L837.818,671.31L648.2,671.354C648.231,656.145 650.193,547.12 647.113,541.574C645.185,538.102 640.81,535.131 637.502,533.105C620.323,522.582 595.673,511.983 577.149,503.009C561.079,495.223 524.331,475.808 508.978,472.117C508.505,472.222 508.034,472.337 507.567,472.464C497.984,475 460.405,493.776 449.491,499.109L405.59,520.87C397.102,525.112 388.655,529.23 380.346,533.824C372.947,537.913 369.816,542.106 369.784,550.869C369.676,580.406 369.728,609.946 369.731,639.484L369.708,811.032L369.703,897.935C369.703,909.631 369.099,933.717 370.785,944.463C372.016,952.302 400.765,963.933 409.527,968.492L409.567,928.575C414.03,922.13 422.463,912.324 427.608,905.943C428.248,868.085 427.664,828.58 427.662,790.59C423.929,786.242 417.088,780.065 418.641,774.154C422.594,770.275 432.657,771.383 438.528,771.4C439.348,740.507 438.665,706.08 438.686,674.879C428.065,660.833 419.857,653.153 444.783,652.777C446.38,648.424 448.142,644.133 450.065,639.913C458.711,621.13 469.267,610.188 488.369,603.161C492.208,592.288 494.399,590.533 503.841,584.951C503.989,579.844 505.22,567.826 502.476,564.261C496.746,560.917 490.77,566.08 485.847,560.317C485.222,557.832 485.152,557.726 485.728,555.292C490.817,548.55 495.74,554.377 501.889,551.281C507.393,545.993 498.194,528.914 511.203,532.201C516.898,536.914 512.647,541.517 515.02,548.459C518.209,557.788 526.949,550.587 531.751,552.941C533.05,554.631 533.485,556.273 533.246,558.446C532.236,567.623 521.007,560.162 515.407,565.222C513.529,569.138 514.461,580.605 514.611,585.388C524.184,590.103 526.134,593.13 529.661,602.944C532.158,603.783 534.62,604.723 537.04,605.761C557.486,614.633 566.201,633.532 573.869,652.728C579.384,653.21 586.458,651.544 589.428,657.429C589.808,662.794 583.291,669.913 579.878,674.497L579.944,771.327C586.252,771.763 593.718,770.261 599.293,772.726C603.325,777.222 599.121,780.557 595.878,784.256C594.333,785.963 592.882,788.076 591.51,789.95L591.554,906.191C595.891,911.524 606.86,924.186 609.785,929.184L609.874,968.424C617.473,964.35 639.083,955.155 643.85,950.366C650.715,943.469 648.311,898.792 648.299,889.454L648.151,788.782L837.811,788.83L837.861,955.794L837.912,1007.45C837.919,1019.96 839.011,1034.03 835.228,1045.95C826.369,1073.85 799.365,1085.8 775.416,1098.07C759.937,1106 744.354,1113.74 728.763,1121.45C683.519,1143.91 637.846,1165.5 591.769,1186.19C573.276,1194.45 533.769,1212.37 514.941,1215.52C496.409,1218.62 436.313,1189.73 418.489,1181.71C376.622,1162.8 335.073,1143.19 293.859,1122.89C276.417,1114.35 259.08,1105.6 241.851,1096.63C216.389,1083.39 186.617,1068.99 181.507,1036.72C180.169,1028.27 180.802,1016.86 180.825,1008.2L180.907,963.888L181.033,810.598L181.102,574.225L181.174,498.206C181.2,484.661 180.405,467.955 181.727,454.641C185.149,420.173 220.589,404.462 246.892,390.932C265.711,381.307 284.612,371.843 303.593,362.54C341.071,344.05 378.795,326.062 416.755,308.581C437.905,298.987 483.48,278.47 505.295,275.483ZM503.062,693.128C487.532,698.212 480.353,707.977 480.118,724.441L501.179,724.431L503.484,716.542C507.281,716.487 512.022,716.27 515.692,716.771L517.576,724.408L538.715,724.389C537.605,705.05 526.577,691.308 506.043,692.85C505.048,692.927 504.054,693.02 503.062,693.128ZM434.215,780.282C433.525,782.931 433.363,782.601 434.433,785.566C434.9,786.858 436.986,788.285 438.214,788.272C454.455,788.096 576.405,789.836 582.922,787.651C584.046,785.252 585.126,783.815 584.517,781.358C581.848,779.532 568.348,780.021 564.147,780.114C521.053,781.067 477.226,779.113 434.215,780.282ZM519.249,732.569C520.865,738.119 526.458,754.843 525.503,759.503C521.032,762.412 497.113,762.342 492.556,759.87C491.83,754.567 497.975,738.924 499.547,732.571L480.467,732.549C480.299,745.342 480.122,758.787 480.396,771.571L538.867,771.506C538.874,766.084 539.504,735.209 537.819,732.534L519.249,732.569ZM504.871,813.875C473.317,821.856 478.46,843.482 478.637,869.746L479.03,924.669L514.438,924.633L540.693,924.615L540.687,872.511C540.695,863.631 541.355,846.708 539.557,838.77C538.168,832.546 535.062,826.835 530.592,822.285C523.58,815.15 514.601,813.007 504.871,813.875ZM448.738,658.826C448.566,661.594 448.186,663.134 449.401,665.597C449.571,665.736 451.327,667.175 451.328,667.175C487.944,667.929 524.639,667.286 561.272,667.439C563.557,667.448 567.112,667.456 569.254,666.661C570.17,664.122 571.196,662.276 570.579,659.752C567.209,657.679 462.008,658.824 448.738,658.826Z" style="fill:white;"/>
    <path d="M504.233,299.386C505.775,299.26 507.322,299.194 508.869,299.187C527.002,299.111 586.33,327.519 605.715,336.454C648.331,356.291 690.627,376.811 732.584,398.005C753.565,408.637 804.298,430.028 811.399,451.656C815.674,464.678 814.268,504.967 814.268,521.222L814.238,647.372L671.68,647.391L671.346,522.984C661.053,517.001 646.328,510.083 635.429,504.666C614.325,494.15 593.139,483.802 571.871,473.624C553.5,464.88 533.896,455.218 515.001,447.671C511.79,446.389 507.832,445.731 504.562,446.891C489.583,452.205 473.106,460.632 458.704,467.512C421.231,485.579 383.919,503.978 346.772,522.706L346.991,964.692C377.593,980.589 411.14,996.152 442.306,1011.17C459.733,1019.57 491.761,1035.06 509.541,1040.86C521.094,1037.55 546.932,1025.32 558.508,1019.98C596.694,1002.15 634.575,983.68 672.137,964.572L672.024,891.429L671.754,813.39L814.205,813.367L814.306,955.32L814.32,1001.17C814.321,1009.99 814.186,1018.6 814.038,1027.42C813.56,1055.91 778.783,1068.78 756.707,1080.22C729.446,1094.22 701.976,1107.81 674.305,1120.99C640.641,1137.27 606.693,1152.96 572.475,1168.05C555.524,1175.45 536.285,1183.98 518.471,1188.99C511.444,1190.96 505.365,1190.41 498.415,1188.22C483.905,1183.64 468.727,1177.19 454.743,1171.15C431.269,1160.96 407.953,1150.41 384.803,1139.5C349.651,1123.32 314.807,1106.47 280.29,1088.97C258.898,1078.03 211.526,1057.95 206.184,1034.53C204.395,1026.68 205.227,989.416 205.227,978.766L205.238,852.118L205.077,593.475L205.036,508.913C205.035,493.389 202.222,454.322 211.832,442.757C224.689,427.285 254.375,414.034 272.65,404.711C299.48,391.061 326.478,377.742 353.637,364.759C385.636,349.075 417.927,333.992 450.493,319.521C464.764,313.3 489.555,302.515 504.233,299.386ZM508.539,356.231C450.347,381.166 393.016,408.063 336.644,436.875C313.932,448.281 284.404,462.249 262.514,474.575L262.986,1012.02C286.824,1025.27 312.102,1037.94 336.516,1050.24C393.18,1078.9 450.888,1105.45 509.52,1129.83C552.602,1113.09 598.432,1091.56 640.022,1071.47C678.009,1053.12 719.428,1032.76 756.422,1012.22L756.864,873.824L730.156,873.804L730.665,1000.68C677.167,1030.47 616.554,1058.06 560.928,1083.98C546.617,1090.27 524.286,1100.83 510.231,1105.78C489.681,1098.29 462.079,1085.01 441.815,1075.77C390.109,1052.08 339.076,1026.95 288.777,1000.41L288.098,486.252C336.152,460.975 384.694,436.636 433.696,413.25C458.815,401.349 484.825,390.304 509.557,378.501C558.109,400.354 606.198,423.22 653.793,447.085C677.073,458.608 706.94,472.79 729.192,485.582L729.57,587.903L756.776,587.84L756.209,474.336C692.835,441.943 628.958,410.063 564.415,380.059C557.97,377.063 512.643,356.489 508.539,356.231Z" style="fill:rgb(32,95,40);"/>
</svg>
