<?xml version="1.0" encoding="UTF-8" standalone="no"?>
<!DOCTYPE svg PUBLIC "-//W3C//DTD SVG 1.1//EN" "http://www.w3.org/Graphics/SVG/1.1/DTD/svg11.dtd">
<svg width="100%" height="100%" viewBox="0 0 3693 3407" version="1.1" xmlns="http://www.w3.org/2000/svg" xmlns:xlink="http://www.w3.org/1999/xlink" xml:space="preserve" xmlns:serif="http://www.serif.com/" style="fill-rule:evenodd;clip-rule:evenodd;stroke-linejoin:round;stroke-miterlimit:2;">
    <g transform="matrix(1,0,0,1,-159.135,-386.916)">
        <path d="M202.842,2696.08C185.708,2695.7 176.054,2695.04 159.135,2692.67C187.549,2675.74 227.889,2641.13 253.409,2619.79C304.591,2576.98 351.675,2527.31 397.213,2478.63C498.659,2369.99 592.269,2254.29 677.337,2132.4C708.895,2087.66 738.373,2041.8 768.921,1996.45L766.683,1992.57C747.178,1997.31 722.071,2012.28 698.792,2018.38C731.334,1946.27 771.468,1880.26 811.797,1813.06C984.556,1525.14 1213.62,1260.67 1520.5,1112.68C1654.01,1048.3 1811.36,1003.26 1926.59,911.19C2131.18,747.724 2261.81,528.444 2519.12,432.876C2726.92,355.696 2949.45,380.789 3150.26,470.377C3267.44,523.486 3494.96,657.431 3524.96,788.562L3517.12,808.83C3559.94,835.064 3606.51,866.037 3635.32,907.883C3759.13,1087.7 3674.59,1300.75 3495.43,1399.51C3497.52,1350.48 3499.57,1288.76 3465.99,1248.88C3445.67,1224.74 3381.22,1226.68 3351.65,1225.69C3237.14,1221.85 3147.71,1276.4 3150.78,1400.02C3152.39,1464.92 3175.41,1518.08 3192.73,1579.63C3236.71,1737.13 3255.95,1899.77 3212.42,2059.54C3206.02,2062.46 3205.28,2063.53 3200.81,2068.57C3189.37,2069.15 3200.64,2060.99 3189.63,2065.86L3185.96,2062.64C3181.88,2066.31 3167.22,2107.11 3162.59,2117.2C3150.54,2143.15 3137.24,2168.5 3122.72,2193.16C3075.44,2273.57 3027.08,2343.23 2964.61,2412.76C2949.58,2429.48 2935.08,2442.57 2920.75,2457.95C2936.72,2496.24 2956.96,2535.12 2973.62,2573.81C2998.95,2633 3018.81,2694.39 3032.95,2757.2C3040.22,2788.01 3046.04,2819.14 3050.38,2850.5C3053.17,2870.22 3055.7,2897.72 3059.75,2916.47C3104.66,2953.17 3181.15,3001.04 3238.65,3009.64C3306.71,2931.78 3429.91,2807.76 3534.9,2901.1L3536.74,2902.75C3599.87,2865.39 3655.49,2882.46 3700.31,2935.6C3744.98,2939.63 3780.06,2959.5 3808.7,2993.67C3837.55,3028.09 3855.81,3069.52 3851.32,3115.03C3846.46,3164.31 3825.23,3202.4 3786.67,3233.14C3783.88,3235.37 3782.79,3235.79 3779.58,3237.01L3777.49,3235.12C3777.99,3221.27 3782.43,3209.74 3783.73,3196.27C3785.96,3173.11 3784.62,3138.47 3768.25,3120.63C3755.35,3106.58 3744.52,3108.97 3727.65,3110.53C3766.1,3202.42 3691.54,3303.62 3600.88,3327.22C3620.34,3291.93 3637.44,3257.92 3640.95,3217C3642.57,3198.05 3637.94,3169.97 3620.7,3158.95C3606.67,3158.46 3599,3179.19 3588.97,3190.54C3581.28,3148.15 3576.26,3125.65 3539.98,3097.91C3572.52,3187.27 3567.52,3274.16 3486.8,3332.94C3491.53,3287.14 3498.07,3229.76 3460.13,3194.53C3399.57,3214.55 3331.56,3260.72 3299.23,3316.09C3299.54,3382.31 3276.67,3381.08 3226.01,3402.02C3254.08,3469.11 3294.44,3488.74 3364.54,3497.62C3333.74,3514.56 3315.15,3523.19 3279.96,3527.28C3143.6,3543.1 3024.6,3436.58 3066.05,3296.16C3070.74,3280.27 3072.11,3256.01 3078.26,3236.35C3080.93,3227.99 3083.81,3219.7 3086.9,3211.49C3032.92,3163.4 2969.71,3135.74 2906.42,3102.17C2911.87,3130.53 2916.9,3156.81 2927.91,3183.75C2854.94,3166.1 2788.46,3137.71 2731.59,3087.5C2711.67,3069.57 2696.72,3049.41 2678.39,3032.75L2701.26,3102.71C2703.34,3109.46 2714.96,3142.36 2713.94,3145.48C2702.25,3141.45 2691.09,3131.06 2681.56,3123.07C2602.47,3056.82 2534.49,2947.95 2513.42,2847.16C2484.38,2859.26 2454.96,2871.04 2424.69,2879.7C2409.29,2964.79 2398.64,3013.07 2361.81,3092.52C2394.05,3177.31 2519.72,3317.72 2592.25,3372.03C2614.36,3371.23 2637.72,3369.58 2659.19,3374.98L2667.97,3377.18C2726.59,3326.82 2794.64,3317.54 2853.15,3375.1C2894.07,3368.28 2909.72,3375.15 2943.82,3397.19C3030.47,3453.22 3074.86,3600.37 2970.09,3663.39C2987.05,3594.3 2977.39,3563.3 2903.49,3552.16C2921.74,3616.24 2908.9,3679.6 2845.51,3712.34C2845.07,3677.03 2846.14,3644.65 2826.54,3613.19C2801.86,3609.1 2789.49,3606.33 2766.44,3596.91C2770.31,3607.44 2773.74,3617.04 2776.37,3627.94C2793.65,3699.43 2735.71,3774.43 2668.01,3792.34L2664.46,3793.3L2662.32,3793.84C2648.56,3792.6 2624.38,3793.82 2611.59,3789.59L2609.73,3785.14C2647.84,3767.45 2667.89,3746.48 2666.97,3701.75C2666.89,3697.64 2665.18,3686.87 2661.08,3684.89C2641.74,3675.52 2616.61,3686.39 2596.56,3675.93C2570.67,3667.29 2551.86,3644.13 2526.38,3635.3C2494.85,3623.79 2460.62,3632.83 2429.14,3634.61C2384.93,3637.12 2353.44,3664.05 2311.28,3670.37C2276.4,3675.59 2235.59,3664.73 2207.9,3642.57C2192.08,3630.57 2167.08,3597.2 2144.14,3603.62C2096.3,3617 2089.31,3655.12 2098.67,3695.02C2092.98,3691.49 2086.62,3687.58 2081.28,3683.59C2054.86,3664.2 2037.65,3634.73 2033.74,3602.19C2025.53,3536.81 2068.49,3503.54 2114.33,3471.83C2123.86,3465.24 2134.29,3445.97 2146.96,3437.14C2183.28,3411.82 2215.46,3426.16 2254.09,3432.37C2260.85,3433.38 2295.36,3428.9 2304.8,3427.76C2258.05,3353.11 2219.35,3297.27 2151.54,3240.73C2100.74,3272.03 2055.69,3293.54 1997.25,3309.18C1969.26,3316.67 1861.05,3337.57 1836.5,3323.22C1837.38,3318.9 1853.63,3308.49 1859.31,3303.19C1885.24,3278.96 1909.1,3251.88 1929.94,3223.22C1873.52,3237.21 1819.34,3244.63 1761.09,3238.21C1781.92,3204.13 1807.16,3161.17 1813.28,3121.53C1830.05,3012.94 1785.39,2922.22 1727.32,2836.97C1721.59,2860.91 1711.62,2889.58 1703.05,2912.84C1587.08,3227.52 1392.38,3519.07 1019.48,3519.93C1071.94,3465.94 1122.81,3406.26 1155.96,3338.09C1160.82,3328.11 1165.83,3316.23 1171.35,3306.84L1173.18,3303.77C1176.08,3295.76 1180.87,3286.18 1179.68,3278.43C1170.88,3286.48 1162.96,3296.63 1154.95,3305.67C1136.01,3328.83 1112.24,3348.93 1091.87,3370.62C977.082,3492.85 863.569,3551.36 694.948,3543.22C717.097,3520.46 737.613,3497.17 758.992,3475.03L784.472,3442.68C770.665,3449.72 756.668,3456.39 742.497,3462.67C696.13,3484.95 629.211,3489.99 578.448,3488.07C519.973,3485.87 463.175,3469.25 408.946,3448.25C431.827,3433.18 466.234,3410.96 484.902,3392.06C392.391,3391.94 264.185,3339.48 187.474,3289.01C328.787,3218.84 449.606,3117.88 567.826,3014.94C653.799,2940.39 737.996,2863.81 820.346,2785.28C855.93,2751.88 891.22,2718.16 926.212,2684.13C944.337,2666.31 970.848,2640.69 986.532,2621.15C957.338,2629.46 907.036,2649.05 877.067,2659.85C756.332,2703.33 597.297,2754.86 468.345,2756.25C507.566,2728.64 531.673,2710.42 568.028,2679.38C576.122,2673.24 588.405,2661.41 596.341,2654.15C579.361,2657.45 560.484,2662.24 543.469,2666.16C428.88,2689.04 320.3,2702.59 202.842,2696.08Z" style="fill:rgb(17,26,23);"/>
        <path d="M3052.32,1108.87C3052.03,1100.29 3051.92,1100.72 3055.09,1092.76C3089.38,1066.64 3196.75,1022.84 3237.33,1002.58C3260.21,966.227 3285.73,935.321 3319.25,908.199C3366.95,869.6 3399.07,850.175 3458.87,878.521C3580.02,935.95 3621.5,1052.99 3584.53,1178.54C3581.01,1190.49 3576.57,1207.96 3569.04,1218C3563.89,1231.36 3553.75,1249.4 3546.89,1262.51C3542.14,1226.94 3538.18,1218.67 3524.76,1185.56C3450.99,1076.87 3357.85,1071.96 3235.6,1080.21C3220.66,1083.57 3206.2,1083.74 3192.17,1086.66C3179.43,1087.65 3166.71,1088.78 3153.99,1090.05C3230.14,1106.02 3274.85,1113.9 3347.53,1139.28L3340.28,1142.87C3284.7,1129.81 3197.52,1116.17 3140.88,1112.02C3108.29,1109.04 3085.5,1107.13 3052.32,1108.87ZM3392.21,912.373C3351.66,922.152 3340.4,933.768 3313.4,963.672C3329.28,962.469 3345.14,961.053 3360.98,959.425C3379.34,956.354 3433.45,943.016 3438.2,922.487C3431.94,911.438 3403.92,911.647 3392.21,912.373Z" style="fill:rgb(179,179,179);"/>
        <path d="M2981.3,733.636C2992.78,739.219 3019.93,755.68 3030.03,762.935L3061.68,781.086C3051.82,813.329 3046.69,833.425 3070.18,861.312C3070.65,861.631 3071.13,861.949 3071.6,862.267L3074.01,863.805C3084.77,870.777 3093.81,874.842 3106.81,875.833C3135.35,878.008 3141.57,859.191 3158.56,844.874C3164.33,844.569 3170.68,850.022 3175.9,853.541C3129.41,926.824 3015.85,912.523 2977.58,838.301C2959.56,803.342 2969.14,768.593 2981.3,733.636Z" style="fill:rgb(243,232,218);"/>
        <path d="M900.062,2390.75C839.045,2432.54 755.82,2487.23 688.322,2518.39C699.732,2506.75 722.259,2488.22 735.324,2476.67C759.446,2455.16 783.23,2433.27 806.666,2411.02C885.149,2336.45 988.344,2228.24 1057.8,2146.57C1064.91,2136.08 1104.01,2092.8 1115.05,2079.91C1150.4,2038.6 1185,1996.66 1218.84,1954.1C1281.1,1940.01 1323.42,1919.09 1377.4,1887.37C1426.2,1857.33 1465.47,1824.77 1505.78,1784.06C1467.74,1858.1 1321.14,2027.5 1258.5,2085.95C1210.6,2136.77 1149.08,2193.87 1096.46,2238.85C1054.78,2275.21 967.898,2346.06 921.878,2375.43C914.663,2380.77 907.766,2386.15 900.062,2390.75ZM998.703,1766.6C1151.79,1493.48 1441.1,1228.22 1746.31,1139.43C1887.23,1098.44 2074.16,1094.39 2205.2,1167.68C2263.53,1200.81 2306.1,1256 2323.32,1320.84C2355.55,1438.52 2310.39,1561.48 2251.57,1662.97C2238.26,1685.94 2192.72,1757.98 2175.43,1776.94C2142.62,1818.42 2109.8,1858.38 2072.47,1895.89L2061.73,1906.94C2049.63,1919.5 2037.64,1932.17 2025.03,1944.2C2022.23,1946.94 2012.62,1956.76 2010.03,1958.41C1988.82,1979.5 1956.9,2009.3 1932.78,2027.35C1922.8,2037.57 1901.81,2054.66 1890.03,2063.25C1882.64,2069.2 1876.24,2074.38 1868.36,2079.77C1859.88,2087.63 1836.3,2104.81 1825.98,2111.44C1816.88,2117.87 1806.31,2125.73 1797.1,2131.69C1762.53,2157.26 1668.99,2216.39 1628.18,2234.96C1572.38,2270.47 1481.45,2299.16 1419.47,2319.36C1520.09,2243.56 1625.94,2146.67 1720.71,2062.7L1722.25,2061.86C1729.14,2053.67 1741.24,2043.78 1749.67,2036.41C1752.52,2032.67 1777.68,2010.03 1783.08,2005.01C1808.5,1981.47 1833.69,1957.67 1858.64,1933.62C1972.03,1823.52 2162.4,1622.13 2181.49,1458.17C2136.74,1551.65 1990.95,1662.63 1900.36,1714.12C1873.82,1729.2 1842.24,1744.14 1814.35,1756.79L1806.11,1760.41C1746.52,1785.94 1692.27,1798.26 1630,1813.31C1637.74,1803.34 1645.57,1790.63 1652.26,1779.88C1705.97,1693.53 1766.78,1611.25 1840.78,1541.04C1883.38,1500.62 1930.82,1463.81 1975.48,1425.26C1937.17,1439.55 1888.25,1456.89 1852.07,1474.17C1734.13,1530.5 1609.4,1609.19 1488.4,1657.11C1454.61,1675.64 1380.49,1698.77 1342.87,1711.23C1438.52,1565.73 1512.2,1480.52 1658.91,1380.6C1675.89,1369.47 1690.98,1360.21 1705.87,1346.12C1650.23,1365.11 1589.66,1386.06 1536.54,1411.46C1503.62,1427.2 1462.72,1452.96 1430.7,1472.14C1366.23,1510.62 1302.48,1550.28 1239.47,1591.09C1221.88,1603.09 1204.21,1614.99 1186.48,1626.78C1182.25,1629.5 1167.87,1639.19 1164.15,1640.75C1126.32,1665.51 1088.16,1689.62 1052.95,1718.03C1034.03,1733.26 1015.92,1749.47 998.703,1766.6ZM2762.99,1877.83C2745.06,1965.12 2645.36,2101.5 2573.52,2158.5C2543.76,2185.6 2504.22,2212.76 2470.33,2234.68C2545.5,2145.76 2573.68,2027.37 2591.93,1915.16C2591.92,1906.29 2594.14,1894.03 2595.31,1884.97C2603.56,1821.1 2600.83,1756.07 2599.42,1691.68C2596.3,1704.47 2593.19,1718.81 2587.11,1730.33C2575.44,1759.72 2545.85,1811.94 2524.73,1835.93C2518.48,1844.91 2515.67,1848.61 2508.16,1856.51C2497.5,1870.2 2485.39,1884.15 2472.39,1895.69C2467.46,1900.65 2460.02,1908.68 2454.6,1912.54C2446.13,1920.7 2441.8,1924.53 2432.37,1931.77C2425.08,1938.52 2419.31,1942.62 2411.37,1948.38C2346.8,1992.69 2315.94,2007.61 2240.44,2031.1C2248.72,2023.37 2259.33,2014.08 2266.58,2005.67L2277.91,1991.41C2333.27,1922.39 2366.15,1845.14 2398.58,1763.97C2406.65,1738.79 2418.7,1713.3 2426.94,1687.76C2468.96,1557.57 2505.59,1439.03 2462.92,1303.3C2430.69,1197.48 2357.1,1109.16 2258.83,1058.37C2276.35,1033.08 2290.12,1004.9 2309.36,980.422C2351.28,927.063 2394.66,866.291 2458.17,838.578C2452.19,838.595 2441.49,839.883 2435.16,840.436C2397.92,847.761 2374.22,855.312 2338.09,867.32C2310.8,880.543 2277.59,891.47 2248.57,905.05C2215.76,921.789 2117.83,968.706 2084.07,963.351L2084.1,961.053C2086.43,960.034 2088.73,958.972 2091.04,957.918C2127.49,941.284 2251.91,804.283 2291.29,767.614C2339.26,722.927 2390.1,685.799 2447.66,654.304C2458.29,648.31 2464.34,645.961 2475.47,641.606C2444.67,639.635 2418.28,633.814 2387.97,629.818C2409.25,609.536 2442.07,589.048 2467.54,574.519C2760.45,407.454 3155.19,524.184 3385.07,747.55C3392.52,754.796 3401.34,765.274 3401.4,776.149C3390.81,797.797 3372.03,789.495 3356.79,779.551C3345.02,771.871 3332.77,764.886 3321.13,756.89C3319.9,756.047 3318.68,755.193 3317.46,754.328C3323.44,782.656 3325.1,794.678 3318.83,823.79C3189.58,789.566 3098.32,716.26 2982.85,657.726C2918.15,624.927 2824.4,621.139 2752.37,617.393C2799.32,634.645 2872.21,661.889 2910.86,691.161C2829.54,670.666 2728.24,681.489 2646.54,698.389C2699.26,701.691 2792.23,718.563 2828.83,761.155C2830.81,763.485 2832.7,765.882 2834.51,768.341C2829.16,842.638 2846.76,878.464 2904.83,924.822C2909.61,927.66 2939.42,943.764 2940.31,944.46C2967.3,955.36 2986,959.718 3013.64,967.643C2968.82,968.118 2910.27,971.81 2869.65,953.35C2860.9,951.561 2854.84,947.854 2846.86,943.82C2826.78,931.277 2817.05,922.644 2804.48,901.561C2804.13,962.618 2816.41,1002.6 2875.92,1029.21C2803.28,1040.35 2744.64,1077.88 2700.66,1136.63C2659.26,1191.93 2635.12,1264.9 2646.58,1333.97C2652.54,1369.91 2665.2,1388.99 2682.2,1420.01C2684.77,1403.73 2687.15,1388.1 2690.68,1371.97C2692.61,1366.42 2694.41,1362.62 2696.86,1357.36C2709.07,1314.63 2744.54,1272.89 2775.89,1242.79C2769.17,1256.56 2763.34,1275.17 2758.23,1289.96C2752.08,1327.95 2750.7,1355.48 2753.4,1394.19C2759.65,1486.91 2801.28,1571.64 2821.2,1664.35C2825.3,1664.21 2823.36,1664.86 2826.9,1662.02C2841.56,1633.21 2853.02,1606.18 2865.33,1576.4C2874.13,1544.14 2877.69,1527.6 2879.99,1494.29C2910.47,1575.77 2943.31,1639.01 2947.83,1731C2951.6,1766.53 2951.66,1835.45 2945.77,1871.12C2944.09,1886.55 2941.93,1901.92 2939.31,1917.21C2937.07,1926.02 2934.17,1939 2931.57,1947.39C2945.64,1944.38 2991.97,1879.25 3000.78,1865.14C3045.49,1793.6 3073.84,1726.19 3076.45,1641.99C3084.45,1670.88 3092.26,1700.03 3095.84,1730.05C3109.84,1847.59 3072.92,1969.68 3016.26,2071.98C3011.57,2080.46 3005.38,2090.64 2999.35,2098.19C2962.83,2157.55 2918.35,2211.62 2867.13,2258.89C2893.32,2203.06 2898.52,2163.27 2905.78,2103.98C2905.48,2093.77 2907.99,2074.62 2909.11,2063.74C2904.53,2074.44 2898.76,2089.53 2891.75,2098.46C2882.1,2115.14 2868.9,2136.2 2857.54,2152.08C2856.26,2153.88 2852.79,2159.2 2851.35,2160.24C2811.97,2225.47 2703.38,2318.46 2644.61,2364.87C2735.79,2234.7 2761.54,2129.51 2774.84,1975.43C2771.13,1961.83 2772.8,1896.68 2770.64,1875.91C2770.49,1868.59 2771.45,1865.83 2768.32,1859.87C2764.6,1866.27 2764.33,1870.61 2762.99,1877.83ZM1818.37,2736.4C1804.25,2719.4 1778.12,2674.72 1770.95,2654.27L1762.45,2635.84C1735.27,2585.06 1732.04,2542.61 1721.32,2488.47C1735.03,2509.42 1743.49,2539.16 1755.45,2561.76C1785.49,2618.5 1820.21,2675.07 1862.34,2723.54C1896.68,2768.01 1947.16,2804.25 1991.89,2838.07C1920.26,2744.75 1904.52,2680.95 1887.22,2568.48C1941.45,2653.37 1997.92,2693.29 2082.75,2743.99C2030.22,2679.95 1992.17,2587.6 1985.46,2504.84C1983.83,2488.08 1981.22,2467.68 1982,2451.18C1980.47,2433.03 1980.55,2409.14 1980.08,2390.55C1991.83,2400.65 2012.27,2412.99 2025.94,2421.7C2085.52,2459.65 2136.41,2509.76 2175.27,2568.76C2175.88,2560.5 2176.35,2549.02 2177.69,2541.14C2175.86,2505.83 2181.87,2486.18 2176.96,2442.64C2176.54,2439.58 2176.46,2434.2 2176.29,2430.92C2172.36,2413.88 2170.42,2395.66 2165.91,2377.32C2148.66,2307.13 2119.57,2259.16 2076.84,2202.94C2139.25,2243.17 2194.18,2328.95 2227.61,2394.16C2239.14,2416.59 2253.02,2449.07 2260.97,2473.5C2317.38,2620.11 2353.1,2864.66 2283.93,3008.93C2273.24,3031.23 2261.3,3051.73 2248.44,3072.92C2252.22,3010.46 2248.9,2983.47 2229.6,2923.2C2225.08,3027.95 2134.07,3138.83 2046.04,3188.84C2068.65,3111.94 2071.14,2998.66 2042.62,2922.52C2040.36,2989.21 2008.79,3036.05 1962.2,3083.24C1956.73,3088.78 1938.06,3105.04 1930.94,3106.24C1930.76,3099.03 1931.45,3102.54 1933.14,3096.98C1956.55,3019.95 1949.71,2928.82 1933.62,2852.06C1892.96,2823.43 1844.24,2778.74 1818.37,2736.4ZM1062.09,2439.16C1048.98,2446.35 984.225,2470.45 966.516,2477.77C980.753,2466.83 999.806,2454.9 1015.05,2443.82C1044.17,2422.35 1072.74,2400.14 1100.74,2377.22C1223.33,2277.32 1320.43,2179.06 1427.41,2064.38C1429.92,2060.34 1433.35,2057.3 1436.71,2053.81C1444.17,2043.94 1453.91,2030.23 1464.27,2023.99C1470.52,2021.07 1517.23,2013.69 1530.36,2009.39C1596.84,1987.62 1648.7,1953.03 1703,1910.8C1719.91,1897.78 1731.2,1885.63 1746.35,1873.34C1688.64,1967.14 1659.58,2004.19 1580.74,2082.09C1570.48,2092.16 1560.87,2101.84 1549.84,2111.1C1505.3,2153.29 1450.87,2196.7 1402.12,2233.87C1388.49,2244.25 1364.56,2262.84 1350.58,2271.81C1331.82,2285.24 1312.85,2298.37 1293.66,2311.18C1234.69,2349.07 1186.52,2377.46 1124.75,2409.62C1104.42,2419.54 1082.89,2430.57 1062.09,2439.16ZM577.959,2466.69C561.244,2482.31 516.589,2514.17 497.241,2527.8C510.627,2510.68 537.224,2485.4 553.206,2467.83C583.222,2434.24 612.167,2399.71 639.997,2364.29C748.208,2228.29 854.615,2074.08 952.449,1929.79L974.663,1922.97C1037.49,1898.9 1056.42,1889.35 1116.15,1859.21C1153.57,1836.33 1174.28,1822.66 1207.74,1793.48C1178.13,1834.68 1147.69,1872.14 1116.52,1911.71C1094.48,1939.3 1071.71,1966.3 1048.22,1992.66C1029.43,2014.74 1010.3,2036.52 990.839,2058.01L980.171,2071.04C965.772,2086.95 951.21,2102.71 936.489,2118.31C930.764,2124.99 926.347,2130.52 919.685,2136.34C877.732,2185.54 826.022,2236.43 780.408,2282.47C761.109,2301.95 725.37,2338.59 704.91,2355.51C700.594,2360.14 697.841,2363.28 692.835,2367.29C662.915,2394.41 632.63,2422.64 601.15,2447.8C595.068,2453.12 584.532,2463 577.959,2466.69ZM806.54,3271.39C749.581,3302.88 712.516,3308.04 652.495,3322.18C670.563,3307.93 688.28,3293.24 705.629,3278.12C708.375,3274.44 709.458,3274.18 713.209,3271.26C778.975,3204.52 847.609,3142.26 909.165,3070.79C931.878,3044.42 959.965,3010.98 984.335,2987.19L985.311,2986.69C991.793,2975.41 1053.13,2907.65 1065.46,2894.05C1071.66,2886.07 1074.61,2882.57 1081.88,2875.59C1115.04,2832.71 1165.85,2779.64 1202.21,2737.96C1224.94,2711.9 1275.76,2651.78 1298.77,2630.93C1263.96,2683.06 1239.46,2733.64 1208.46,2787.64L1196.5,2807.75C1189.2,2819.92 1170.4,2853.44 1163.02,2862.71C1154.08,2883.03 1122.69,2925.14 1109.62,2944.37C1088.17,2976.63 1042.59,3040.49 1016.77,3071.3L1004.03,3086.62C988.902,3106.24 956.787,3144.91 939.132,3162.26C926.877,3177.49 910.574,3193.21 896.428,3206.84C873.222,3228.15 852.705,3242.51 826.927,3260.12L806.54,3271.39ZM1211.82,3090.45C1151.71,3170.3 1034.57,3283.14 942.664,3321.65C963.669,3300.21 982.398,3277.93 1001.45,3254.73C1183.07,3033.62 1327.32,2784.43 1507.73,2562.21C1523.38,2542.94 1537.99,2522.14 1554.53,2503.68C1542.5,2530.3 1528.53,2560.44 1515.35,2586.21C1500.76,2619.14 1483.74,2652.3 1467.66,2684.63C1423.28,2772.77 1350.06,2910.27 1288.82,2988.05C1278.97,3002.81 1223.45,3079.87 1211.82,3090.45ZM882.486,2940.87C823.935,3017.9 682.85,3166.76 601.125,3211.25C563.586,3231.68 521.071,3243.36 478.85,3249.04C457.219,3251.94 435.406,3252.7 413.757,3255.3C455.426,3234.43 476.069,3215.33 509.725,3196.65C514.015,3191.5 600.024,3129.78 609.96,3123.33C620.604,3113.51 636.056,3102.35 647.753,3093.09C709.106,3044.51 768.331,2993.68 827.225,2942.14C874.103,2900.94 920.679,2859.4 966.948,2817.52C981.832,2803.99 1021.49,2765.29 1035.01,2756.97C991.065,2813.1 930.507,2887.84 883.343,2939.7L882.486,2940.87ZM1381.27,3197.84C1421.23,3152.29 1457.68,3107.57 1487.08,3054.56C1490.86,3047.75 1498.46,3032.98 1503.5,3028.84C1506.42,3041.01 1454.15,3143.76 1442.9,3160.87C1387.88,3244.63 1352.56,3281.38 1260.25,3314.08C1304.94,3279.67 1327.82,3255.87 1365.99,3214.77L1367.03,3214.01C1372.21,3206.21 1374.37,3204.47 1381.27,3197.84ZM2709.58,2561.93L2711.1,2564.89C2706.75,2573.78 2692.93,2587.74 2685.45,2595.48C2628.7,2653.23 2555.97,2692.66 2476.62,2708.72L2474.87,2705.8L2477.8,2702.61C2540.3,2683.96 2659.44,2604.51 2709.58,2561.93Z" style="fill:rgb(182,49,31);"/>
        <path d="M2907.89,2984.51C2890.17,2974.18 2881.43,2969.1 2862.25,2962.09C2908.34,2895.36 2914.93,2814.13 2889.44,2738.68C2905.43,2754.46 2913.61,2764.56 2925.65,2783.52C2933.22,2793.69 2942.52,2811.47 2947.23,2823.31C2964.44,2862.41 2968.15,2892.24 2971.26,2935.01C2972.23,2949.39 2974.65,2953.25 2986.73,2962.71C3020.5,2989.15 3065.23,3016.6 3102.55,3037.57C3142.57,3058.44 3204.91,3095.02 3247.29,3102.13C3328.93,3057.04 3405.68,2901.47 3512.91,3000.96C3454.52,2997.22 3415.28,3021.17 3407.17,3081.89C3329.92,3121.16 3250.96,3187.47 3236.23,3277.64C3229.96,3269.7 3223.82,3262.14 3218.1,3253.77C3198.81,3281.26 3192.92,3300.52 3191.67,3333.89C3153.91,3276.34 3137.67,3226.71 3189.83,3168.71C3140.06,3132.32 3103.3,3104.84 3051.2,3070.44L3040.02,3063.51C3013.06,3046.59 2971.46,3018.93 2943.86,3005.08L2907.89,2984.51ZM2435.86,3345.64C2440.04,3349.76 2443.99,3353.52 2447.83,3357.99C2471.4,3385.18 2504.23,3421.97 2531.97,3445.45C2584.67,3451.79 2673.61,3446.71 2708.31,3496.27C2702.86,3500.64 2662.97,3493.92 2650.25,3496.36C2633.6,3499.56 2621.19,3504.81 2605.66,3510.56C2677.7,3515.51 2679.14,3559.73 2686.04,3619.02C2609.28,3518.56 2462.7,3530.59 2353.33,3561.62C2324.91,3569.68 2298.03,3580.78 2268.3,3582.27C2228.8,3543.2 2242.4,3538.96 2181.55,3531.97C2188.42,3517.08 2193.4,3503.01 2210.2,3497.17C2230.78,3490.02 2256.38,3507.49 2271.46,3520.16C2284.72,3510.42 2298.27,3502.34 2313.84,3496.73C2327.95,3490.25 2341.71,3486.65 2356.66,3482.8C2383.14,3476.01 2405.73,3470.61 2432.81,3467.21C2401.53,3407.75 2360.66,3344.8 2322.1,3289.41C2293.36,3248.11 2300.26,3241.58 2290.1,3195.14C2296.68,3189.26 2300.79,3184.97 2306.75,3178.44C2320.12,3199.66 2334.78,3220.03 2350.66,3239.44C2363.78,3255.97 2390.82,3287.72 2401.24,3303.8C2413.93,3317.92 2424.17,3330.8 2435.86,3345.64ZM2775.1,3478.42C2772.11,3478.69 2768.32,3479.04 2763.72,3479.47C2751.4,3473.49 2740.01,3450 2728.08,3441.32C2721.04,3436.19 2715.45,3434.27 2709.08,3431.79C2739.66,3419.36 2772.62,3406.56 2804.11,3424.76C2813.73,3429.09 2826.63,3441.47 2832.41,3450.2C2843.83,3465 2852.6,3481.33 2864.73,3494.62C2827.08,3478.48 2812.96,3481.68 2775.1,3478.42ZM3577.65,2961.93C3634.89,2960.05 3647.53,2984.11 3672.99,3030.07C3651.49,3024.72 3629.99,3024.14 3607.96,3023.96C3603.57,2995.53 3596.88,2982.07 3577.65,2961.93Z" style="fill:rgb(179,179,179);"/>
    </g>
</svg>
