<?xml version="1.0" encoding="UTF-8" standalone="no"?>
<!DOCTYPE svg PUBLIC "-//W3C//DTD SVG 1.1//EN" "http://www.w3.org/Graphics/SVG/1.1/DTD/svg11.dtd">
<svg width="100%" height="100%" viewBox="0 0 1703 2660" version="1.1" xmlns="http://www.w3.org/2000/svg" xmlns:xlink="http://www.w3.org/1999/xlink" xml:space="preserve" xmlns:serif="http://www.serif.com/" style="fill-rule:evenodd;clip-rule:evenodd;stroke-linejoin:round;stroke-miterlimit:2;">
    <g transform="matrix(1,0,0,1,-795.105,-395.173)">
        <path d="M1928.46,395.502C2085.59,393.174 2221.73,402.799 2376.09,437.373C2238.87,640.397 2130.37,861.412 2053.66,1094.15L2083.09,1096.04C2077.99,1127.99 2067.69,1165.18 2061.53,1198.39C2170.07,1281.7 2262.54,1404.54 2335.55,1519.16C2362.45,1561.4 2401.96,1628.7 2415.95,1676.88C2424.47,1706.27 2432.35,1766.7 2438.54,1799.64L2497.56,2115.12C2464.36,2133.34 2430.44,2150.05 2397.2,2168.23L2488.7,2938.85C2474.14,2933.78 2458.96,2928.03 2444.61,2922.35C2370.4,2893 2293.61,2867.2 2219.91,2836.95C2209.87,2846.36 2194.92,2863.56 2184.69,2874.08C2102.89,2891.98 2004.54,2914.21 1923.68,2935.79C1914.19,2973.68 1908.86,3016.45 1901.85,3055.1C1877.77,3051.77 1848,3044.68 1824.33,3038.97C1722.83,3015.47 1625.37,2977.07 1535.12,2925.03C1389.23,2841.88 1264.72,2714.93 1176.05,2572.87C1179.25,2559.5 1183.49,2545.88 1187.4,2532.65C1056.95,2609.77 943.62,2708.26 823.189,2798.05C889.602,2628.01 956.797,2436.18 1045.15,2277.23C1027.72,2277.23 1008.64,2278.06 991.099,2278.49C985.83,2271.24 981.289,2263.35 976.498,2255.78C844.282,2046.87 790.937,1806.72 795.358,1561.16C800.385,1260.62 903.667,959.127 1111.94,738.364C1330.5,506.694 1614.38,404.686 1928.46,395.502Z" style="fill:rgb(128,128,128);fill-rule:nonzero;"/>
        <path d="M1973.34,461.329C2070.22,459.709 2172.83,469.885 2268.58,482.801C2232.16,534.561 2189.53,617.683 2162.07,674.476C2087.99,827.741 2020.5,983.624 1975.39,1147.99C1987.54,1148.9 1998.13,1149.91 2010.2,1151.49C2000.69,1185.18 1995.54,1224.4 1985.53,1260.27L2013.44,1236.72C2137.03,1342.03 2245.99,1468.17 2318.59,1614.02C2330.6,1638.13 2352.61,1682.45 2358.12,1707.83C2365.57,1742.18 2370.34,1784.61 2375.5,1819.99C2386.66,1898.82 2398.51,1977.55 2411.03,2056.17C2379.25,2074.33 2342.49,2089.81 2312.13,2108.52C2305.86,2124.39 2298.74,2148.34 2293.24,2165.1C2296.79,2176.09 2298.13,2181.94 2300.28,2193.33L2337.43,2198.79C2340.93,2239.81 2346.99,2284.86 2351.73,2326.02L2374.38,2527.47L2396.46,2722.53C2400.71,2759.6 2404.6,2800.52 2410.41,2837.16C2340.27,2812.71 2269.68,2784.96 2199.69,2761.31C2186.52,2779.17 2173.54,2797.17 2160.78,2815.31C2133.74,2824.55 2091.32,2832.54 2062.52,2838.5C2026.19,2846.01 1998.41,2853.43 1962.51,2863.61C1946.9,2853.59 1900.18,2828.24 1883.67,2820.23C1872.83,2872.75 1862.45,2925.37 1852.54,2978.08C1744.99,2954.76 1664.84,2920.12 1569.56,2865.73C1555.86,2858.59 1531.55,2841.85 1518.41,2833.13C1419.27,2767.34 1306.42,2662.76 1242.55,2561.46C1256.47,2514.3 1276.82,2458.97 1292.77,2412.02C1175.47,2462.98 1064.85,2528.09 963.356,2605.91C991.562,2534.24 1022.04,2463.49 1054.74,2393.76C1076.88,2347.45 1099.04,2302.41 1128.65,2260.33L1115.93,2214.82L1023.57,2217.21C885.621,1999.81 840.729,1713.61 864.27,1460.35C887.701,1208.29 982.765,960.681 1158.99,775.962C1321.7,605.417 1539.9,508.027 1771.48,475.96C1840.54,466.179 1903.98,462.874 1973.34,461.329Z" style="fill:rgb(10,0,80);fill-rule:nonzero;"/>
        <path d="M1980.97,1346.59C1984.66,1351.05 1997.1,1384.11 1999.83,1391.76C2036.78,1495.14 2065.99,1601.91 2096.08,1707.42C2108.1,1749.59 2118.41,1795.51 2131.82,1836.78C2131.38,1789.97 2122.34,1720.53 2115.67,1672.5C2103.04,1581.48 2087.12,1480.91 2065.42,1391.47C2115.17,1442.06 2170.48,1508.8 2209.11,1567.98C2201.71,1561.45 2193.59,1552.65 2186.73,1545.31C2161.88,1518.73 2136.77,1495.16 2108.83,1471.92C2156.97,1627.52 2193.36,1863.66 2202.36,2027.16C2225.37,2028.88 2255.22,2027.43 2278.25,2026.56C2254.61,2036.54 2221.72,2047.46 2197.09,2056.46C2197.93,2086.95 2202.04,2119.25 2203.63,2149.82C2207.49,2223.86 2214.81,2304.77 2213.45,2378.51C2182.84,2345.12 2156.35,2319.76 2119.8,2292.51C2141.25,2219.4 2141,2147.37 2134.94,2072.43C2114.79,2069.53 2079.56,2068.09 2057.7,2066.39C2019.84,2063.48 1982.08,2059.54 1944.44,2054.58C1800.22,2036.26 1657.5,2007.67 1517.37,1969C1518.01,1975.52 1518.8,1982.03 1519.71,1988.51C1533.21,2085.95 1582.31,2147.32 1658.41,2205.18C1727.13,2255.59 1808.55,2283.76 1890.48,2303.55L1823.67,2670.29C1813.22,2727.64 1801.14,2808.53 1787.44,2862.91C1592.88,2812.18 1454.91,2711.1 1341.61,2545.23C1352.81,2509.82 1369.38,2471.86 1378.05,2436.02C1380.95,2424.07 1376.78,2387.82 1375.64,2373.5L1368.64,2285.79C1281.39,2308.94 1237.78,2326.15 1161.3,2373.94C1178.47,2338.75 1211.41,2285.73 1233.11,2252.56C1228.66,2230.4 1219.63,2201.8 1213.28,2179.58L1178.89,2058.86C1406.32,1779.96 1677.14,1539.46 1980.97,1346.59ZM1663.54,1382.09C1712.83,1379.06 1741.26,1384.32 1787.85,1395.86C1707.03,1452.82 1614.88,1523.19 1541.08,1589.07C1521.29,1541.95 1534.93,1504.47 1558.27,1461.85C1457.81,1507.71 1377.44,1576.21 1323.99,1674.02C1292.32,1733.01 1282.89,1777.29 1275.22,1841.79C1267.3,1851.38 1255.09,1864.24 1245.71,1872.05C1235.64,1641.41 1428.78,1399.22 1663.54,1382.09ZM1801.4,1211.04L1823.6,1209.72L1797.08,1313.25C1782.41,1309.07 1767.5,1305.74 1752.44,1303.28C1633.59,1283.81 1518.3,1318.98 1421.58,1388.05C1411.85,1394.57 1401.23,1402.58 1391.62,1409.48C1392.93,1407.79 1394.27,1406.12 1395.63,1404.47C1498.33,1279.55 1644.96,1225.8 1801.4,1211.04ZM1872.32,1204.99L1934.91,1206.49C1925.85,1238.12 1917.68,1281.18 1909.36,1314.6C1904.17,1318.39 1898.23,1322.04 1892.79,1325.55C1882.56,1328.61 1852,1331.26 1839.76,1332.7C1851.11,1298.02 1863.6,1241.68 1872.32,1204.99Z" style="fill:rgb(128,128,128);"/>
        <path d="M1471.24,1802.46L1477.71,1806.17C1373.75,1934.3 1345.67,2041.31 1407.8,2197.92C1367,2215.82 1327.19,2232.96 1288.44,2255.3C1277.03,2261.88 1264.75,2268.8 1252.65,2273.92C1271.2,2242.91 1314.24,2196.91 1338.77,2169.46C1310.46,2183.14 1282.87,2203.46 1257.89,2222.58C1242.23,2171.18 1228.77,2110.62 1211.65,2060.84C1267.3,1995.07 1336.88,1933.05 1398.18,1872.3C1420.29,1850.38 1451.15,1825.13 1471.24,1802.46Z" style="fill:rgb(10,0,80);fill-rule:nonzero;"/>
        <path d="M1890.42,609.195C1928.4,606.448 1975.71,608.493 2013.5,610.357C1990.13,666.244 1965.08,745.446 1946.48,803.445C1910.22,916.578 1877.02,1030.67 1846.91,1145.59C1754.14,1146.39 1667.28,1165.46 1580.97,1198.27C1563.71,1167.43 1544,1135.12 1526.04,1104.45L1548.31,1212.69C1541.85,1215.77 1535.15,1219.29 1528.71,1222.52C1500.64,1175.36 1469.16,1129.23 1440.72,1082.17C1427.03,1059.52 1412.01,1034.9 1396.79,1013.33C1423.21,1087.33 1458.96,1171.65 1488.24,1245.64C1399.71,1299.74 1329.88,1379.65 1288.12,1474.62C1275.38,1503.38 1267.36,1529.95 1256.28,1558.94C1252.9,1567.77 1238.91,1591.36 1233.5,1601.37C1221.53,1623.5 1213.5,1640.96 1204.23,1664.38C1169.6,1664.17 1134.17,1662.62 1099.27,1662.22C1126.35,1678.47 1160.95,1692.38 1189.52,1709.1C1165.72,1779.78 1162.92,1870.66 1182.22,1942.41C1155.86,1974.07 1128.48,2004.05 1102.56,2036.41C1106.11,2053.37 1109.89,2067.93 1114.39,2084.58C1105.26,2084.92 1095.81,2085.66 1086.67,2086.25C1079.29,2069.75 1072.19,2053.13 1065.4,2036.39C1056.51,2013.57 1048.77,1991.13 1040.77,1967.98C1067.92,1957.42 1094.93,1946.49 1121.78,1935.18C1100.05,1936.17 1055.98,1942.77 1034.3,1946.38C959.55,1692.55 959.099,1400.77 1068.53,1156.71C1076.47,1162.97 1085.22,1169.06 1093.59,1174.81C1132.78,1201.74 1171.16,1230.56 1210.78,1256.82C1176.71,1212.84 1125.66,1156.55 1088.63,1113.04C1111,1064.08 1154.31,996.23 1187.13,953.802C1345.58,748.932 1554.37,647.903 1807.33,615.409C1809.15,711.796 1821.69,818.282 1824.84,916.678C1830.78,894.887 1836.27,835.407 1839.05,811.388L1862.59,610.484L1890.42,609.195Z" style="fill:rgb(254,254,254);fill-rule:nonzero;"/>
        <path d="M1629.36,2086.17C1642.91,2087.87 1665.06,2093.17 1679.18,2096.11L1768.62,2114.51C1760.49,2124.53 1752.44,2134.91 1744.43,2145.05C1806.32,2163.98 1898.48,2190.73 1961.14,2173.98C1959.38,2189.68 1958.06,2194.89 1953.78,2210.19C1984.82,2204.68 2005.46,2191.49 2024.65,2166.25C2041.94,2175.8 2059.72,2184.42 2077.22,2194.12C2072.22,2242.11 2071.25,2253.03 2051.37,2295.86L2104.25,2346.5C2096.2,2351.82 2058.39,2373.99 2063.32,2384.63C2073.83,2389.1 2122.9,2381.85 2138.12,2380.48C2150.93,2387.99 2171.03,2403.25 2183.75,2412.37C2174.35,2427.67 2165.25,2443.15 2156.47,2458.81C2092.2,2446.88 2054.93,2454.94 1992.2,2468.44C1984.18,2487.28 1972.02,2510.42 1962.99,2529.7C2027.49,2514.86 2116.35,2496.99 2179.65,2517.6C2173.07,2532.47 2165.93,2551.33 2160.72,2566.55C2151.94,2567.38 2141.05,2569.33 2132.13,2570.7C2084.36,2579.99 2050.95,2594.46 2014.02,2625.48C2040.03,2619.63 2146.21,2599.48 2162.72,2625.74C2164.62,2635.33 2124.4,2727.81 2117.94,2743.32C2070.52,2757.18 2023.02,2767.75 1974.9,2778.75C1950.44,2764.35 1925.98,2748.23 1907.86,2726.16C1930.32,2568.16 1959.91,2406.43 1984.25,2248.25C1851.97,2232.02 1694.69,2223.72 1629.36,2086.17Z" style="fill:rgb(254,254,254);fill-rule:nonzero;"/>
    </g>
</svg>
