<?xml version="1.0" encoding="UTF-8" standalone="no"?>
<!DOCTYPE svg PUBLIC "-//W3C//DTD SVG 1.1//EN" "http://www.w3.org/Graphics/SVG/1.1/DTD/svg11.dtd">
<svg width="100%" height="100%" viewBox="0 0 529 440" version="1.1" xmlns="http://www.w3.org/2000/svg" xmlns:xlink="http://www.w3.org/1999/xlink" xml:space="preserve" xmlns:serif="http://www.serif.com/" style="fill-rule:evenodd;clip-rule:evenodd;stroke-linejoin:round;stroke-miterlimit:2;">
    <g transform="matrix(1,0,0,1,-182.339,-217.307)">
        <path d="M343.988,217.382C356.374,217.2 369.254,217.415 381.716,217.365L525.962,217.426L630.589,217.42C643.616,217.488 656.627,217.449 669.667,217.554C675.855,217.603 677.999,218.613 682.645,222.853C688.144,227.87 693.409,232.913 698.664,238.3C702.956,242.7 710.009,248.844 710.92,255.201C711.18,258.472 709.208,268.67 708.578,272.227L702.063,307.033C697.98,329.954 693.702,352.84 689.231,375.689C686.848,388.476 684.697,401.473 681.899,414.075C680.309,421.237 676.904,424.981 669.783,425.426C660.587,426.001 650.954,425.872 641.787,425.865L596.3,425.975C598.717,433.293 601.614,440.991 604.215,448.285C609.743,448.739 630.496,448.092 633.369,449.184C640.25,451.798 664.932,477.778 668.641,484.035C668.987,493.986 664.299,513.187 662.341,523.764L651.244,583.578L643.657,624.769C642.242,632.237 640.835,640.226 638.766,647.525C637.715,651.234 635.324,653.702 632.399,656.02C629.694,656.457 626.446,656.561 623.666,656.721L383.477,656.769L325.908,656.801C286.228,657.032 264.234,659.776 232.811,629.618C206.146,604.028 182.443,582.905 182.339,542.35C182.284,521.01 187.687,497.912 191.579,476.936L203.682,409.951L215.272,346.437C218.241,329.616 220.589,311.235 226.148,295.126C230.947,281.217 242.289,263.93 252.598,253.651C270.627,235.674 294.012,221.947 319.498,218.375C326.82,217.349 336.461,217.481 343.988,217.382Z" style="fill:rgb(254,254,254);fill-rule:nonzero;"/>
        <path d="M331.738,231.491C348.681,230.795 368.397,231.309 385.534,231.357L486.422,231.619L602.86,231.573C624.89,231.513 649.056,230.814 670.89,231.52C678.977,237.498 688.382,248.408 695.411,255.828C697.371,257.896 693.595,274.314 692.955,277.811L686.252,313.746L668.01,411.857C646.845,411.546 625.678,411.44 604.511,411.542C596.579,411.549 582.925,411.055 575.459,411.814C576.516,414.049 577.983,416.391 579.149,418.625C586.419,432.551 589.162,447.662 591.769,462.943C601.374,463.444 618.868,462.689 629.093,462.64C631.463,464.336 636.469,469.717 638.725,472.012C643.941,477.319 650.392,482.9 654.811,488.805C653.375,493.297 652.305,499.746 651.396,504.522L646.333,531.771C640.197,564.478 634.578,597.656 628.089,630.226C627.348,634.464 626.695,638.657 625.548,642.806C624.463,642.906 623.375,642.98 622.286,643.027C615.393,643.273 606.938,643.035 599.946,643.034L556.591,643.132L398.35,643.253L326.271,643.215C311.434,643.208 296.594,643.865 281.917,641.835C256.752,638.354 242.68,619.96 225.827,603.707C207.366,585.902 196.539,569.215 195.801,542.961C195.489,531.883 197.779,519.192 199.709,508.251C201.783,496.425 203.963,484.618 206.249,472.831L220.759,393.347L230.488,339.212C232.556,327.713 234.294,315.183 237.799,304.092C250.565,263.699 289.385,233.207 331.738,231.491Z" style="fill-rule:nonzero;"/>
        <path d="M359.936,244.678C374.645,245.14 389.366,245.039 404.067,244.375C402.811,247.905 400.236,252.558 398.519,256.034C395.418,262.378 392.38,268.753 389.405,275.158L375.63,305.446C373.306,310.504 370.72,316.558 367.983,321.333C360.396,321.402 352.808,321.375 345.222,321.251C340.896,321.216 335.304,320.984 331.135,321.638C325.088,333.897 322.156,356.055 319.534,369.906L306.881,438.105C304.418,451.543 301.831,466.901 298.756,480.068C295.693,493.187 288.105,510.862 282.944,523.53C273.286,547.451 263.146,571.176 252.533,594.689C251.237,597.54 250.389,598.645 248.389,600.879C234.642,595.127 220.44,580.676 214.169,567.197C216.561,560.671 220.993,552.358 223.837,545.652C231.291,528.197 238.32,510.564 244.917,492.767C250.596,477.277 255.952,461.67 260.978,445.956C266.673,428.691 271.991,412.44 280.248,396.152C288.353,379.845 300.432,365.959 310.613,350.976C328.35,324.875 342.701,296.883 351.479,266.492C353.41,259.807 354.903,252.832 357.221,246.324C357.691,245.006 358.855,244.979 359.936,244.678ZM551.812,244.696C556.049,244.146 567.123,244.731 572.048,244.729C589.378,244.834 606.708,244.761 624.036,244.509C622.871,250.064 620.127,255.78 618.24,261.228C615.252,270.096 612.633,279.085 610.392,288.171C607.361,301.387 604.964,314.74 603.21,328.185C602.188,336.08 601.75,343.677 600.268,351.523C603.423,347.12 605.295,343.007 607.802,338.234L618.119,318.735C626.903,302.214 636.582,286.152 644.876,269.393C647.723,263.64 648.937,259.502 653.122,254.51C652.246,261.171 650.501,267.599 649.082,274.175C647.511,281.764 646.06,289.378 644.73,297.013L635.843,346.198C634.733,352.36 632.307,367.63 630.316,372.964C621.633,373.52 611.367,373.291 602.588,373.281C586.135,373.289 569.682,373.169 553.231,372.922C557.115,362.173 561.602,333.735 563.821,321.335L512.382,321.352C523.152,305.324 532.012,286.221 540.579,268.882C544.479,260.991 547.063,252.31 551.812,244.696ZM340.155,527.26C370.446,526.67 401.386,527.134 431.733,527.142C429.611,531.976 426.266,538.305 423.899,543.228C417.536,556.668 410.92,569.988 404.055,583.179C401.773,587.551 395.647,599.863 393.033,603.362C388.67,604.104 376.109,603.801 371.078,603.781C340.943,603.775 310.866,603.348 280.751,603.866C284.119,598.349 287.325,592.667 290.202,586.879C299.995,567.175 310.023,547.64 319.016,527.553C325.374,527.145 333.726,527.302 340.155,527.26ZM534.106,476.401C536.251,476.269 540.266,475.91 542.07,476.828C542.686,479.073 539.898,488.903 539.214,491.902C532.837,520.905 524.786,549.516 515.102,577.589C512.798,584.236 508.24,597.422 504.982,603.424C496.279,603.948 485.809,603.731 476.905,603.751L428.827,603.775C426.132,603.814 423.301,603.746 420.596,603.72C422.11,596.931 425.653,588.144 427.719,581.201C433.114,563.079 439.253,545.756 443.393,527.288C450.188,526.714 460.26,527.27 467.441,527.137C486.271,526.787 505.707,527.645 524.452,527.451C528.085,514.376 533.224,489.837 534.106,476.401ZM318.503,245.399L319.268,245.576C319.576,248.103 315.33,259.124 314.184,262.359C291.386,326.683 260.948,389.113 232.79,451.258C230.196,456.982 220.872,479.982 218.252,483.472L218.042,483.523L217.382,483.091C217.161,481.733 217.242,480.522 217.551,479.184C222.245,458.852 225.719,438.316 229.484,417.787L241.735,349.707C245.726,328.066 248.33,304.088 261.17,285.665C276.044,264.325 294.852,254.15 318.503,245.399ZM601.993,476.084C605.693,475.88 608.266,475.818 611.957,475.954C611.166,487.161 605.915,510.814 603.641,522.573L588.291,603.368C578.713,604.288 556.708,603.562 546.08,603.502C542.45,603.535 538.82,603.436 535.198,603.207C536.992,593.694 541.122,580.109 543.447,570.109C547.882,550.499 551.911,530.799 555.531,511.022C557.624,499.681 560.05,487.673 561.401,476.262C574.218,475.704 588.748,476.461 601.993,476.084ZM435.731,244.63C440.921,244.386 446.876,244.875 452.237,244.728C475.385,244.095 499.443,245.31 522.484,244.446L476.864,314.808C470.358,323.686 466.877,320.786 456.678,321.326C453.169,321.512 449.481,321.332 445.956,321.327L396.258,321.212L396.436,320.601C399.437,310.597 428.317,248.619 435.731,244.63Z" style="fill:rgb(255,46,19);"/>
        <g>
            <path d="M357.032,401.539C363.632,404.879 374.764,428.942 377.048,436.106C379.173,442.773 379.298,449.97 383.733,455.647C395.83,471.132 415.176,485.06 434.106,490.713C438.457,492.012 446.979,493.213 451.762,494.013C445.816,496.091 440.234,496.404 434.076,497.209C417.481,499.379 399.845,498.987 383.387,500.65C384.879,502.993 385.945,504.245 387.722,506.369C389.84,508.899 393.149,512.143 395.497,514.586C385.841,514.884 375.545,514.335 365.52,514.588C356.865,507.845 347.914,503.457 340.294,494.628C340.84,488.501 343.583,475.091 344.778,468.796C354.418,473.891 365.222,476.48 376.131,475.177C373.443,472.577 368.525,469.63 365.297,467.133C358.162,461.613 354.071,456.302 348.736,449.286C350.74,435.821 353.639,422.434 355.637,408.962C356.018,406.397 356.365,404.056 357.032,401.539Z" style="fill:rgb(254,254,254);fill-rule:nonzero;"/>
            <path d="M365.808,359.933C396.201,359.644 426.716,360.626 457.128,360.12C466.325,359.967 476.882,359.755 486.017,360.363C489.015,362.391 492.863,366.362 495.654,369.02C510.544,383.202 524.276,399.297 536.559,415.748C543.296,424.769 546.112,431.046 548.941,441.656C549.546,443.926 551.135,446.223 550.817,448.172L549.801,448.663C546.725,447.728 543.735,445.371 540.875,444.241C530.047,439.963 526.587,435.55 519.017,427.132C481.154,385.028 423.988,360.891 367.457,362.094C366.435,362.116 365.042,361.817 364.2,361.233L364.348,360.558L365.808,359.933Z" style="fill:rgb(254,254,254);fill-rule:nonzero;"/>
            <path d="M480.059,449.942C477.991,452.86 472.816,456.447 469.717,458.2C460.719,463.288 448.459,464.353 438.611,461.315C426.925,457.71 416.4,450.625 410.7,439.538C406.23,430.845 404.492,422.378 407.56,412.893C409.162,407.938 413.641,396.966 418.747,394.715C425.372,391.795 440.547,393.234 447.783,394.956C449.075,395.264 450.911,396.589 451.291,397.92C452.063,400.617 450.921,404.077 450.284,406.637C446.509,421.8 439.784,431.773 432.549,444.8C443.756,442.782 449.121,435.828 458.184,431.192C461.662,428.065 464.867,426.002 468.725,423.443C470.667,421.137 477.314,410.644 480.62,415.025C483.388,418.693 486.295,424.062 488.643,428.114C489.514,429.041 490.486,429.697 490.252,431.008C489.21,436.853 483.522,445.644 480.059,449.942Z" style="fill:rgb(255,46,19);fill-rule:nonzero;"/>
            <path d="M468.725,423.443C470.667,421.137 477.314,410.644 480.62,415.025C483.388,418.693 486.295,424.062 488.643,428.114C489.514,429.041 490.486,429.697 490.252,431.008C489.21,436.853 483.522,445.644 480.059,449.942C473.251,446.652 465.088,435.719 458.184,431.192C461.662,428.065 464.867,426.002 468.725,423.443Z" style="fill:rgb(254,254,254);fill-rule:nonzero;"/>
            <path d="M468.725,423.443C470.667,421.137 477.314,410.644 480.62,415.025C483.388,418.693 486.295,424.062 488.643,428.114C481.81,426.899 474.565,424.327 468.725,423.443Z" style="fill:rgb(255,46,19);fill-rule:nonzero;"/>
        </g>
    </g>
</svg>
