<?xml version="1.0" encoding="UTF-8" standalone="no"?>
<!DOCTYPE svg PUBLIC "-//W3C//DTD SVG 1.1//EN" "http://www.w3.org/Graphics/SVG/1.1/DTD/svg11.dtd">
<svg width="100%" height="100%" viewBox="0 0 1024 1024" version="1.1" xmlns="http://www.w3.org/2000/svg" xmlns:xlink="http://www.w3.org/1999/xlink" xml:space="preserve" xmlns:serif="http://www.serif.com/" style="fill-rule:evenodd;clip-rule:evenodd;stroke-linejoin:round;stroke-miterlimit:2;">
    <g>
        <path d="M326.987,753.502C333.93,751.598 354.89,734.911 361.71,730.247C372.243,723.081 380.45,714.647 389.276,705.771C398.008,696.99 399.496,696.097 405.318,685.461C370.596,671.202 335.407,641.86 309.689,614.719C278.377,581.674 259.391,536.759 253.137,491.856C252.556,487.682 253.438,482.306 253.26,477.966C251.861,443.814 260.884,412.335 272.377,380.607C275.711,371.368 279.761,360.813 280.386,350.851C280.96,341.705 278.436,333.072 271.813,326.407C253.269,308.544 209.328,296.436 184.512,292.336C173.641,290.54 149.492,290.576 138.351,290.24C159.234,256.08 216.543,227.554 253.412,212.758C256.378,207.973 258.421,201.971 261.225,197.032C288.892,148.305 333.31,119.887 388.114,111.277C397.261,110.604 400.506,109.828 410.174,110.106C467.666,109.07 512.158,138.926 562.341,161.272C566.737,163.229 580.678,169.34 585.048,169.333L585.287,169.997C582.132,174.781 561.709,182.082 555.319,184.924C547.564,188.373 537.607,190.791 529.464,193.511C532.048,198.996 539.001,206.202 542.402,211.89C553.581,230.58 563.395,249.843 571.313,270.143C581.793,300.393 605.453,307.825 629.573,326.109C703.688,382.294 746.764,468.462 778.287,553.83C800.247,613.301 819.605,671.426 855.37,724.536C866.743,741.424 879.72,759.668 890.175,776.873C873.724,778.853 835.013,766.498 819.771,760.007C814.89,757.929 809.088,754.967 804.095,753.029C832.527,798.598 858.619,845.376 889.208,889.644C894.072,896.683 899.234,903.511 903.689,910.814C876.119,919.375 849.638,909.648 826.766,894.185C828.778,898.866 832.348,906.89 832.126,911.912C823.948,914.804 800.712,907.229 792.988,903.317C717.552,865.111 706.457,773.131 648.428,718.835C646.191,716.742 643.889,715.05 641.467,713.203C642.772,720.496 642.982,724.732 643.331,732.105C639.197,732.351 635.149,733.295 631.4,733.379C619.247,733.651 606.733,733.565 594.595,733.118C578.55,741.232 540.772,771.891 531.976,786.727C575.223,781.536 605.628,809.885 589.318,853.325C584.899,837.403 570.889,828.354 554.515,833.315C552.146,834.033 549.827,834.855 547.491,835.675C530.42,819.846 480.629,836.341 463.852,847.751C459.498,850.712 455.271,854.896 451.357,858.45C433.774,852.466 415.086,864.748 404.579,878.311C403.226,880.056 401.163,885.286 400.253,887.44L399.41,887.112C399.095,886.313 398.695,884.562 398.522,884.167C393.108,871.813 393.692,860.154 397.763,847.406C398.305,845.707 401.701,838.543 401.761,837.696C399.94,836.589 399.197,836.731 396.957,837.23C384.459,840.014 366.777,851.996 360.084,862.784C359.644,863.496 359.226,864.221 358.83,864.958C355.53,839.092 361.096,819.938 379.731,801.39C357.965,793.325 315.333,807.34 296.282,819.327C290.811,815.739 280.006,816.857 274.115,819.456C264.185,823.837 255.091,830.979 249.937,840.703C249.348,841.799 248.115,844.857 247.118,845.106C241.301,835.218 241.659,821.793 243.583,810.661C244.231,806.908 247.51,800.49 249.281,796.905L248.492,797.03C237.516,798.831 225.997,806.258 217.911,813.766C216.272,815.288 213.217,819.058 211.427,821.024C210.24,819.833 210.405,813.854 210.448,812.098C210.85,795.569 215.754,779.371 227.714,767.49C239.165,756.115 255.066,749.357 271.186,749.126C276.781,749.046 287.253,751.286 293.303,752.104C301.56,752.906 309.946,754.176 318.248,753.575C321.272,753.356 323.969,753.352 326.987,753.502ZM456.511,786.323C472.464,783.681 474.029,780.141 484.679,768.866C498.612,754.114 515.265,739.877 527.048,723.403C527.872,722.248 528.683,721.083 529.48,719.909C526.054,719.527 523.059,718.616 519.706,718.156C503.824,715.978 488.376,712.003 472.986,707.565C472.78,708.77 472.526,710.758 471.373,711.318C447.886,722.718 425.137,735.036 404.403,751.073C402.516,752.533 399.444,754.4 398.162,756.368L398.312,756.853C404.85,757.334 410.156,758.326 416.355,760.426C417.913,760.93 420.517,761.015 421.932,761.703C431.661,766.431 438.293,773.272 444.797,781.665C449.205,787.354 450.068,786.955 456.511,786.323ZM877.346,740.619L879.845,740.631L880.269,741.198L879.228,742.808L877.937,743.318L877.321,742.834C877.557,741.586 877.676,741.908 877.346,740.619ZM165.762,247.486L166.424,248.311L166.289,249.316L165.092,249.785L164.607,249.435C165.06,248.466 165.158,248.378 165.762,247.486Z" style="fill:rgb(41,33,8);"/>
        <path d="M792.46,697.069C745.103,673.152 666.616,621.125 636.141,577.135C639.459,578.862 644.423,583.022 647.534,585.412C653.359,589.909 659.281,594.279 665.295,598.519C686.461,613.019 707.516,627.68 728.459,642.501C739.252,650.203 750.383,657.87 760.653,666.237C772.108,675.57 782.481,686.311 793.584,696.117C795.356,697.522 797.283,698.987 798.955,700.487C796.467,699.362 794.724,698.661 792.46,697.069ZM603.973,596.398C602.261,595.021 601.23,594.491 600.434,592.539L601.042,592.472L603.185,594.275C611.604,600.751 620.332,606.124 629.202,611.965L665.298,635.922L773.648,708.675C783.678,715.488 793.802,722.161 804.018,728.692C806.149,730.049 811.568,732.534 812.568,733.481L812.222,733.89C807.388,732.955 781.987,720.069 776.845,717.353C732.951,694.079 691.146,667.061 651.896,636.6C641.126,628.1 630.525,619.388 620.099,610.469C615.059,606.138 609.045,600.166 603.973,596.398ZM432.273,186.208C437.873,185.315 448.271,186.433 453.945,187.257C479.096,190.909 503.438,214.249 517.664,234.822C504.293,231.957 493.984,231.842 480.534,232.072C485.789,236.195 491.123,240.328 495.794,245.113C508.378,258.003 517.236,273.868 525.862,289.524C527.43,292.369 528.977,295.226 530.066,298.297C525.202,297.936 520.111,298.172 515.258,298.598C483.805,301.045 454.632,315.957 434.228,340.02C411.293,367.598 404.42,401.822 407.981,436.695C415.157,506.967 470.627,555.776 525.173,593.538C539.839,603.691 554.139,614.975 569.002,625.006L602.468,647.428C606.711,650.321 611.967,653.113 615.787,656.435C606.217,651.945 594.971,646.706 585.775,641.632C579.157,637.981 571.791,632.984 564.973,628.995C582.17,654.962 588.415,672.909 594.366,703.256C553.085,700.268 515.775,673.434 486.337,645.977C493.166,656.3 498.483,666.85 504.374,677.729C497.76,675.9 491.251,673.713 484.875,671.178C438.42,651.697 406.794,625.006 373.001,588.759C381.457,602.807 390.098,624.824 398.227,640.331C383.585,633.649 365.149,619.449 353.611,608.437C317.495,573.965 297.046,532.687 295.908,482.366C288.723,493.72 286.853,505.807 285.169,518.876C282.61,510.572 279.519,500.504 278.417,492.012C273.968,457.729 280.269,425.956 293.515,394.551C290.36,411.822 291.387,422.706 295.981,439.434C300.116,423.704 303.632,412.438 312.083,397.946C322.6,379.912 337.832,363.739 345.682,344.38C347.411,340.115 348.409,334.49 349.274,329.932C353.369,331.889 373.643,344.961 376.069,344.466C376.745,342.831 375.519,339.126 374.964,337.361C370.391,322.795 362.946,311.864 352.635,300.888C366.246,299.237 385.803,295.832 398.367,291.09C386.618,291.004 380.262,288.02 370.147,281.958C364.368,278.494 358.618,275.437 353.071,271.491C361.979,271.866 372.62,271.976 381.115,269.097C392.122,265.37 401.169,257.376 406.221,246.911C411.93,235.279 412.228,222.897 408.134,210.73C410.616,208.19 413.01,205.565 415.312,202.861C406.423,204.042 389.111,204.001 381.503,206.167C398.044,193.782 411.806,188.097 432.273,186.208ZM519.348,330.72C523.204,330.149 535.78,330.983 539.753,331.456C580.133,336.262 620.032,363.268 645.61,394.159C649.475,398.827 662.509,417.678 661.922,422.7C659.32,424.778 650.903,424.384 647.512,424.343C629.526,424.124 611.821,419.147 595.832,411.045C589.569,407.872 583.256,404.012 576.805,401.314L576.038,400.998C583.262,410.562 591.032,423.694 594.454,435.136C595.455,438.484 591.482,440.299 588.666,440.27C566.306,440.043 536.966,424.212 520.859,409.409C518.603,407.094 516.84,405.731 514.312,403.726C519.04,412.19 537.699,445.379 533.203,453.162C529.665,455.484 521.567,453.044 517.618,452.201C492.791,446.902 477.157,429.086 457.921,414.364C461.531,430.533 467.028,446.222 474.3,461.109C451.28,453.429 436.777,440.548 434.942,415.237C431.248,364.287 472.157,334.12 519.348,330.72ZM676.289,457.864C679.89,460.73 686.141,466.062 689.007,469.21C697.169,478.177 729.026,525.564 725.454,536.498C723.506,538.607 719.529,538.974 716.779,539.022C696.697,539.376 677.689,522.576 660.556,513.695C671.4,531.646 696.363,572.35 653.091,558.433C631.251,551.408 615.65,539.043 595.422,529.69C598.927,535.809 600.776,542.429 603.632,548.544C613.018,568.396 608.675,575.047 587.096,568.011C557.342,558.31 531.923,535.485 510.719,513.133C505.267,507.386 490.493,489.551 486.98,482.909L487.217,482.428C500.916,497.264 546.32,525.258 567.062,525.954C569.994,526.052 572.99,525.819 575.903,525.478C576.007,523.303 576.259,518.936 575.92,516.92C574.261,507.04 567.602,494.564 562.589,485.796C579.813,497.013 618.248,523.071 638.446,514.667C640.326,498.48 631.834,486.791 622.514,474.56C632.952,479.315 643.614,484.042 654.583,486.771C662.055,488.629 674.926,490.515 678.696,482.262C681.387,476.372 678.495,463.573 676.289,457.864ZM261.618,230.035C267.834,229.379 275.748,237.034 280.352,240.829C270.599,245.494 260.528,250.158 251.498,256.096C292.648,251.814 305.898,250.462 330.496,286.369C317.01,281.856 300.492,277.008 286.382,275.258C257.865,272.068 229.759,270.204 201.001,271.639C193.132,272.032 185.33,272.429 177.584,273.915C205.687,256.764 229.401,240.087 261.618,230.035ZM709.239,562.322C711.246,563.145 718.039,569.103 719.994,570.875C747.402,595.718 775.022,633.533 793.063,665.734C782.048,660.485 715.71,575.435 709.239,562.322ZM392.08,231.292C391.81,238.482 388.672,245.264 383.369,250.125C377.629,255.406 370.039,258.211 362.246,257.931C349.801,257.55 340.359,247.838 333.191,238.669C337.89,236.338 342.667,234.03 347.272,231.529C347.885,235.277 348.27,236.566 350.178,239.922C356.655,251.313 376.335,251.542 382.676,240.028C382.848,239.715 383.415,238.868 383.722,238.594C384.282,238.75 384.657,238.673 385.273,238.661C388.875,236.853 389.944,234.629 392.08,231.292Z" style="fill:rgb(240,176,17);"/>
        <path d="M380.631,220.588L386.837,219.041C390.833,223.604 391.441,225.509 392.08,231.292C389.944,234.629 388.875,236.853 385.273,238.661C384.657,238.673 384.282,238.75 383.722,238.594C386.421,230.791 384.965,226.985 380.631,220.588Z" style="fill:rgb(252,240,219);fill-rule:nonzero;"/>
        <path d="M385.731,819.754C398.151,799.128 408.882,797.119 431.101,799.525C438.928,800.373 466.708,798.442 474.084,795.097C492.947,786.542 510.223,764.745 525.072,750.413C535.764,739.926 543.991,730.848 555.801,721.522C561.561,724.119 564.23,724.494 570.347,725.763C567.65,727.961 565.129,730 562.565,732.359C560.647,734.124 554.543,740.294 552.044,742.427C548.607,745.361 537.597,756.064 534.513,758.414C528.915,762.679 513.075,781.685 507.315,787.899C507.005,788.233 510.395,795.13 508.421,798.389C529.232,804.73 558.264,790.035 570.103,812.409C570.679,813.505 571.208,814.625 571.691,815.765C565.388,816.654 556.485,817.545 550.2,818.101C548.218,818.276 539.913,814.549 535.004,813.96C506.341,810.524 482.407,814.388 458.814,832.192C458.295,832.584 458.494,832.457 457.89,832.712L455.558,834.065C454.544,835.905 451.437,837.982 449.676,839.192C443.711,837.8 433.859,839.277 428.074,841.471C425.007,842.635 420.379,844.567 417.179,844.856C417.168,844.079 420.315,838.692 421.027,837.481C428.674,824.465 447.835,817.803 461.535,812.972C462.757,812.541 462.789,812.934 463.903,811.921L463.592,811.49C461.998,811.041 460.309,810.478 458.661,810.518C455.836,810.587 452.781,809.671 449.917,809.583C443.616,809.388 437.057,809.316 430.778,809.822C426.909,810.134 422.27,810.764 418.678,812.294C417.093,812.97 414.193,814.69 412.734,814.987C404.03,816.76 394.292,817.843 385.731,819.754ZM389.586,728.425C396.172,723.633 419.227,700.261 427.791,708.327C428.704,717.289 366.465,756.68 364.295,766.773C365.16,769.374 365.104,770.562 367.174,771.769C367.174,771.769 373.041,772.451 375.757,772.161C389.811,770.66 406.201,767.246 417.846,777.304C418.746,778.082 420.228,781.585 421.798,783.33C413.691,784.307 405.747,783.518 398.28,787.282C397.265,787.793 395.238,788.848 394.247,788.395C388.552,785.795 385.754,784.423 379.428,783.359C377.53,783.709 370.576,783.041 370.576,783.041C354.597,778.638 323.066,787.487 308.438,795.007C304.968,796.79 301.374,801.002 297.05,801.258C297.546,801.482 293.345,799.586 294.159,799.865C286.902,797.376 271.364,804.355 266.052,804.665C265.873,802.412 269.255,798.221 270.813,796.463C277.381,789.052 286.672,786.412 295.678,783.544C295.571,778.248 296.927,776.576 302.033,776.21C300.649,775.817 293.846,775.03 293.648,774.927C284.632,770.193 245.017,783.437 240.509,780.662L240.466,779.54C244.858,770.028 259.438,763.314 269.3,763.491C290.547,763.871 312.165,768.832 333.465,765.563C335.026,765.324 339.908,762.28 341.503,761.38L343.339,759.804C347.926,758.699 383.004,732.872 388.864,729.157L389.586,728.425Z" style="fill:rgb(174,64,2);"/>
        <path d="M721.32,747.351C718.837,742.544 716.451,736.615 714.312,731.589C718.006,735.71 720.583,739.445 723.728,743.938C734.513,760.862 740.392,773.932 749.861,790.592C751.279,792.561 751.867,793.209 752.75,795.416C755.583,801.328 760.02,807.51 763.086,813.465C775.42,837.42 787.189,859.722 803.59,881.198C796.11,876.316 784.517,868.319 778.77,861.726C763.236,843.904 751.241,816.433 741.808,794.901L721.32,747.351ZM773.273,757.532C772.542,756.001 772.018,755.5 772.13,753.986C773.65,754.947 774.222,756.538 775.069,758.179L825.247,841.339L839.479,864.11C844.005,871.417 848.32,878.907 853.489,885.825C845.705,880.098 840.651,876.601 833.846,869.733C829.18,865.024 828.454,863.388 828.454,863.388C821.718,855.631 815.946,845.477 810.892,836.582C796.67,811.066 784.104,784.662 773.273,757.532ZM223.22,286.264L219.952,286.058L220.378,285.077C221.846,285.023 223.14,284.767 224.378,285.284C243.189,286.804 305.735,293.244 321.237,302.436L321.665,303.219C319.514,305.305 298.768,312.542 297.161,312.076C285.704,308.754 270.629,300.881 259.033,296.779C246.338,292.287 235.318,290.008 223.22,286.264ZM392.132,130.359C395.595,129.024 401.848,129.378 405.688,129.193C433.688,127.841 463.033,135.52 488.479,146.922C493.735,149.278 512.463,158.586 516.766,161.904C507.009,162.782 498.19,162.595 488.967,163.227L487.491,163.001C482.345,163.204 467.951,162.89 463.283,161.81L462.082,161.864C458.752,161.604 432.254,161.941 428.35,161.326C404.43,163.282 388.005,172.321 367.92,184.265L363.669,186.974C362.925,187.838 355.949,192.658 354.65,193.544C340.272,203.357 328.713,214.749 312.443,221.427C309.753,213.809 312.084,206.478 314.6,198.972C310.067,205.688 300.574,211.933 296.835,219.814C296.179,221.198 295.182,222.766 294.096,223.87C287.996,219.98 282.655,212.844 276.278,209.111C282.112,195.539 291.87,183.596 302.128,173.151C325.753,149.098 355.286,135.156 388.541,130.33C389.903,130.383 390.756,130.434 392.132,130.359Z" style="fill:rgb(183,55,2);"/>
    </g>
</svg>
